<?xml version="1.0" encoding="UTF-8"?>
<!DOCTYPE xmeml>
<xmeml version="4">
	<project>
		<name>Alpine TV_09.12.2023-2023-09-07_14-24-35</name>
		<children>
			<bin>
				<name>1_Raw footage </name>
				<labels>
					<label2>Mango</label2>
				</labels>
				<children>
					<clip id="masterclip-1" explodedTracks="true">
						<uuid>19f9378c-9b81-4c9d-bc54-f727bd3954bc</uuid>
						<masterclipid>masterclip-1</masterclipid>
						<ismasterclip>TRUE</ismasterclip>
						<duration>15833</duration>
						<rate>
							<timebase>24</timebase>
							<ntsc>TRUE</ntsc>
						</rate>
						<name>(Aaron Chase)_Lets try the Open-Loop on ALL MY BIKES!!_krEUwkn-J_8_YT.mp4</name>
						<media>
							<video>
								<track>
									<clipitem id="clipitem-1">
										<masterclipid>masterclip-1</masterclipid>
										<name>(Aaron Chase)_Lets try the Open-Loop on ALL MY BIKES!!_krEUwkn-J_8_YT.mp4</name>
										<rate>
											<timebase>24</timebase>
											<ntsc>TRUE</ntsc>
										</rate>
										<alphatype>none</alphatype>
										<pixelaspectratio>square</pixelaspectratio>
										<anamorphic>FALSE</anamorphic>
										<file id="file-1">
											<name>(Aaron Chase)_Lets try the Open-Loop on ALL MY BIKES!!_krEUwkn-J_8_YT.mp4</name>
											<pathurl>file://localhost/Volumes/Charlie's%20Extra%20Space%20/1_Alpine%20TV_Projects%20/Alpine_TV_09.12.2023/3_Raw%20Footage%20/(Aaron%20Chase)_Lets%20try%20the%20Open-Loop%20on%20ALL%20MY%20BIKES!!_krEUwkn-J_8_YT.mp4</pathurl>
											<rate>
												<timebase>24</timebase>
												<ntsc>TRUE</ntsc>
											</rate>
											<duration>15833</duration>
											<timecode>
												<rate>
													<timebase>24</timebase>
													<ntsc>TRUE</ntsc>
												</rate>
												<string>00:00:00:00</string>
												<frame>0</frame>
												<displayformat>NDF</displayformat>
											</timecode>
											<media>
												<video>
													<samplecharacteristics>
														<rate>
															<timebase>24</timebase>
															<ntsc>TRUE</ntsc>
														</rate>
														<width>1920</width>
														<height>1080</height>
														<anamorphic>FALSE</anamorphic>
														<pixelaspectratio>square</pixelaspectratio>
														<fielddominance>none</fielddominance>
													</samplecharacteristics>
												</video>
												<audio>
													<samplecharacteristics>
														<depth>16</depth>
														<samplerate>44100</samplerate>
													</samplecharacteristics>
													<channelcount>2</channelcount>
												</audio>
											</media>
										</file>
										<link>
											<linkclipref>clipitem-1</linkclipref>
											<mediatype>video</mediatype>
											<trackindex>1</trackindex>
											<clipindex>1</clipindex>
										</link>
										<link>
											<linkclipref>clipitem-2</linkclipref>
											<mediatype>audio</mediatype>
											<trackindex>1</trackindex>
											<clipindex>1</clipindex>
											<groupindex>1</groupindex>
										</link>
										<link>
											<linkclipref>clipitem-3</linkclipref>
											<mediatype>audio</mediatype>
											<trackindex>2</trackindex>
											<clipindex>1</clipindex>
											<groupindex>1</groupindex>
										</link>
									</clipitem>
								</track>
							</video>
							<audio>
								<track>
									<clipitem id="clipitem-2">
										<masterclipid>masterclip-1</masterclipid>
										<name>(Aaron Chase)_Lets try the Open-Loop on ALL MY BIKES!!_krEUwkn-J_8_YT.mp4</name>
										<rate>
											<timebase>24</timebase>
											<ntsc>TRUE</ntsc>
										</rate>
										<file id="file-1"/>
										<sourcetrack>
											<mediatype>audio</mediatype>
											<trackindex>1</trackindex>
										</sourcetrack>
										<link>
											<linkclipref>clipitem-1</linkclipref>
											<mediatype>video</mediatype>
											<trackindex>1</trackindex>
											<clipindex>1</clipindex>
										</link>
										<link>
											<linkclipref>clipitem-2</linkclipref>
											<mediatype>audio</mediatype>
											<trackindex>1</trackindex>
											<clipindex>1</clipindex>
											<groupindex>1</groupindex>
										</link>
										<link>
											<linkclipref>clipitem-3</linkclipref>
											<mediatype>audio</mediatype>
											<trackindex>2</trackindex>
											<clipindex>1</clipindex>
											<groupindex>1</groupindex>
										</link>
									</clipitem>
								</track>
								<track>
									<clipitem id="clipitem-3">
										<masterclipid>masterclip-1</masterclipid>
										<name>(Aaron Chase)_Lets try the Open-Loop on ALL MY BIKES!!_krEUwkn-J_8_YT.mp4</name>
										<rate>
											<timebase>24</timebase>
											<ntsc>TRUE</ntsc>
										</rate>
										<file id="file-1"/>
										<sourcetrack>
											<mediatype>audio</mediatype>
											<trackindex>2</trackindex>
										</sourcetrack>
										<link>
											<linkclipref>clipitem-1</linkclipref>
											<mediatype>video</mediatype>
											<trackindex>1</trackindex>
											<clipindex>1</clipindex>
										</link>
										<link>
											<linkclipref>clipitem-2</linkclipref>
											<mediatype>audio</mediatype>
											<trackindex>1</trackindex>
											<clipindex>1</clipindex>
											<groupindex>1</groupindex>
										</link>
										<link>
											<linkclipref>clipitem-3</linkclipref>
											<mediatype>audio</mediatype>
											<trackindex>2</trackindex>
											<clipindex>1</clipindex>
											<groupindex>1</groupindex>
										</link>
									</clipitem>
								</track>
							</audio>
						</media>
						<logginginfo>
							<description></description>
							<scene></scene>
							<shottake></shottake>
							<lognote>https://www.youtube.com/watch?v=krEUwkn-J_8</lognote>
							<good></good>
							<originalvideofilename></originalvideofilename>
							<originalaudiofilename></originalaudiofilename>
						</logginginfo>
						<colorinfo>
							<lut></lut>
							<lut1></lut1>
							<asc_sop></asc_sop>
							<asc_sat></asc_sat>
							<lut2></lut2>
						</colorinfo>
						<labels>
							<label2>Iris</label2>
						</labels>
					</clip>
					<clip id="masterclip-2" explodedTracks="true">
						<uuid>0a8e9963-516c-42a3-be36-c575f22c2209</uuid>
						<masterclipid>masterclip-2</masterclipid>
						<ismasterclip>TRUE</ismasterclip>
						<duration>14901</duration>
						<rate>
							<timebase>24</timebase>
							<ntsc>TRUE</ntsc>
						</rate>
						<name>(Cody and Victoria)_“This view is INSANE!” Climbing the most scenic route in Tahoe. _ Eagle Lake Buttress, Emerald Bay_MPuakR1hEUM_YT.mp4</name>
						<media>
							<video>
								<track>
									<clipitem id="clipitem-4">
										<masterclipid>masterclip-2</masterclipid>
										<name>(Cody and Victoria)_“This view is INSANE!” Climbing the most scenic route in Tahoe. _ Eagle Lake Buttress, Emerald Bay_MPuakR1hEUM_YT.mp4</name>
										<rate>
											<timebase>24</timebase>
											<ntsc>TRUE</ntsc>
										</rate>
										<alphatype>none</alphatype>
										<pixelaspectratio>square</pixelaspectratio>
										<anamorphic>FALSE</anamorphic>
										<file id="file-2">
											<name>(Cody and Victoria)_“This view is INSANE!” Climbing the most scenic route in Tahoe. _ Eagle Lake Buttress, Emerald Bay_MPuakR1hEUM_YT.mp4</name>
											<pathurl>file://localhost/Volumes/Charlie's%20Extra%20Space%20/1_Alpine%20TV_Projects%20/Alpine_TV_09.12.2023/3_Raw%20Footage%20/(Cody%20and%20Victoria)_%e2%80%9cThis%20view%20is%20INSANE!%e2%80%9d%20Climbing%20the%20most%20scenic%20route%20in%20Tahoe.%20_%20Eagle%20Lake%20Buttress,%20Emerald%20Bay_MPuakR1hEUM_YT.mp4</pathurl>
											<rate>
												<timebase>24</timebase>
												<ntsc>TRUE</ntsc>
											</rate>
											<duration>14901</duration>
											<timecode>
												<rate>
													<timebase>24</timebase>
													<ntsc>TRUE</ntsc>
												</rate>
												<string>00:00:00:00</string>
												<frame>0</frame>
												<displayformat>NDF</displayformat>
											</timecode>
											<media>
												<video>
													<samplecharacteristics>
														<rate>
															<timebase>24</timebase>
															<ntsc>TRUE</ntsc>
														</rate>
														<width>1920</width>
														<height>1080</height>
														<anamorphic>FALSE</anamorphic>
														<pixelaspectratio>square</pixelaspectratio>
														<fielddominance>none</fielddominance>
													</samplecharacteristics>
												</video>
												<audio>
													<samplecharacteristics>
														<depth>16</depth>
														<samplerate>44100</samplerate>
													</samplecharacteristics>
													<channelcount>2</channelcount>
												</audio>
											</media>
										</file>
										<link>
											<linkclipref>clipitem-4</linkclipref>
											<mediatype>video</mediatype>
											<trackindex>1</trackindex>
											<clipindex>1</clipindex>
										</link>
										<link>
											<linkclipref>clipitem-5</linkclipref>
											<mediatype>audio</mediatype>
											<trackindex>1</trackindex>
											<clipindex>1</clipindex>
											<groupindex>1</groupindex>
										</link>
										<link>
											<linkclipref>clipitem-6</linkclipref>
											<mediatype>audio</mediatype>
											<trackindex>2</trackindex>
											<clipindex>1</clipindex>
											<groupindex>1</groupindex>
										</link>
									</clipitem>
								</track>
							</video>
							<audio>
								<track>
									<clipitem id="clipitem-5">
										<masterclipid>masterclip-2</masterclipid>
										<name>(Cody and Victoria)_“This view is INSANE!” Climbing the most scenic route in Tahoe. _ Eagle Lake Buttress, Emerald Bay_MPuakR1hEUM_YT.mp4</name>
										<rate>
											<timebase>24</timebase>
											<ntsc>TRUE</ntsc>
										</rate>
										<file id="file-2"/>
										<sourcetrack>
											<mediatype>audio</mediatype>
											<trackindex>1</trackindex>
										</sourcetrack>
										<link>
											<linkclipref>clipitem-4</linkclipref>
											<mediatype>video</mediatype>
											<trackindex>1</trackindex>
											<clipindex>1</clipindex>
										</link>
										<link>
											<linkclipref>clipitem-5</linkclipref>
											<mediatype>audio</mediatype>
											<trackindex>1</trackindex>
											<clipindex>1</clipindex>
											<groupindex>1</groupindex>
										</link>
										<link>
											<linkclipref>clipitem-6</linkclipref>
											<mediatype>audio</mediatype>
											<trackindex>2</trackindex>
											<clipindex>1</clipindex>
											<groupindex>1</groupindex>
										</link>
									</clipitem>
								</track>
								<track>
									<clipitem id="clipitem-6">
										<masterclipid>masterclip-2</masterclipid>
										<name>(Cody and Victoria)_“This view is INSANE!” Climbing the most scenic route in Tahoe. _ Eagle Lake Buttress, Emerald Bay_MPuakR1hEUM_YT.mp4</name>
										<rate>
											<timebase>24</timebase>
											<ntsc>TRUE</ntsc>
										</rate>
										<file id="file-2"/>
										<sourcetrack>
											<mediatype>audio</mediatype>
											<trackindex>2</trackindex>
										</sourcetrack>
										<link>
											<linkclipref>clipitem-4</linkclipref>
											<mediatype>video</mediatype>
											<trackindex>1</trackindex>
											<clipindex>1</clipindex>
										</link>
										<link>
											<linkclipref>clipitem-5</linkclipref>
											<mediatype>audio</mediatype>
											<trackindex>1</trackindex>
											<clipindex>1</clipindex>
											<groupindex>1</groupindex>
										</link>
										<link>
											<linkclipref>clipitem-6</linkclipref>
											<mediatype>audio</mediatype>
											<trackindex>2</trackindex>
											<clipindex>1</clipindex>
											<groupindex>1</groupindex>
										</link>
									</clipitem>
								</track>
							</audio>
						</media>
						<logginginfo>
							<description></description>
							<scene></scene>
							<shottake></shottake>
							<lognote>https://www.youtube.com/watch?v=MPuakR1hEUM</lognote>
							<good></good>
							<originalvideofilename></originalvideofilename>
							<originalaudiofilename></originalaudiofilename>
						</logginginfo>
						<colorinfo>
							<lut></lut>
							<lut1></lut1>
							<asc_sop></asc_sop>
							<asc_sat></asc_sat>
							<lut2></lut2>
						</colorinfo>
						<labels>
							<label2>Iris</label2>
						</labels>
					</clip>
					<clip id="masterclip-3" explodedTracks="true">
						<uuid>fd41958b-b7ba-4b19-9a2f-55d15b4dfbdd</uuid>
						<masterclipid>masterclip-3</masterclipid>
						<ismasterclip>TRUE</ismasterclip>
						<duration>3510</duration>
						<rate>
							<timebase>24</timebase>
							<ntsc>TRUE</ntsc>
						</rate>
						<name>(DELPHI CINEMA)_Reel_214857301_VI.mp4</name>
						<media>
							<video>
								<track>
									<clipitem id="clipitem-7">
										<masterclipid>masterclip-3</masterclipid>
										<name>(DELPHI CINEMA)_Reel_214857301_VI.mp4</name>
										<rate>
											<timebase>24</timebase>
											<ntsc>TRUE</ntsc>
										</rate>
										<alphatype>none</alphatype>
										<pixelaspectratio>square</pixelaspectratio>
										<anamorphic>FALSE</anamorphic>
										<file id="file-3">
											<name>(DELPHI CINEMA)_Reel_214857301_VI.mp4</name>
											<pathurl>file://localhost/Volumes/Charlie's%20Extra%20Space%20/2_Beach%20Bum%20TV_Projects%20/Beach%20Bum_09.05.2023/3_Raw%20Footage%20/(DELPHI%20CINEMA)_Reel_214857301_VI.mp4</pathurl>
											<rate>
												<timebase>24</timebase>
												<ntsc>TRUE</ntsc>
											</rate>
											<duration>3510</duration>
											<timecode>
												<rate>
													<timebase>24</timebase>
													<ntsc>TRUE</ntsc>
												</rate>
												<string>00:00:00:00</string>
												<frame>0</frame>
												<displayformat>NDF</displayformat>
											</timecode>
											<media>
												<video>
													<samplecharacteristics>
														<rate>
															<timebase>24</timebase>
															<ntsc>TRUE</ntsc>
														</rate>
														<width>1280</width>
														<height>720</height>
														<anamorphic>FALSE</anamorphic>
														<pixelaspectratio>square</pixelaspectratio>
														<fielddominance>none</fielddominance>
													</samplecharacteristics>
												</video>
												<audio>
													<samplecharacteristics>
														<depth>16</depth>
														<samplerate>48000</samplerate>
													</samplecharacteristics>
													<channelcount>2</channelcount>
												</audio>
											</media>
										</file>
										<link>
											<linkclipref>clipitem-7</linkclipref>
											<mediatype>video</mediatype>
											<trackindex>1</trackindex>
											<clipindex>1</clipindex>
										</link>
										<link>
											<linkclipref>clipitem-8</linkclipref>
											<mediatype>audio</mediatype>
											<trackindex>1</trackindex>
											<clipindex>1</clipindex>
											<groupindex>1</groupindex>
										</link>
										<link>
											<linkclipref>clipitem-9</linkclipref>
											<mediatype>audio</mediatype>
											<trackindex>2</trackindex>
											<clipindex>1</clipindex>
											<groupindex>1</groupindex>
										</link>
									</clipitem>
								</track>
							</video>
							<audio>
								<track>
									<clipitem id="clipitem-8">
										<masterclipid>masterclip-3</masterclipid>
										<name>(DELPHI CINEMA)_Reel_214857301_VI.mp4</name>
										<rate>
											<timebase>24</timebase>
											<ntsc>TRUE</ntsc>
										</rate>
										<file id="file-3"/>
										<sourcetrack>
											<mediatype>audio</mediatype>
											<trackindex>1</trackindex>
										</sourcetrack>
										<link>
											<linkclipref>clipitem-7</linkclipref>
											<mediatype>video</mediatype>
											<trackindex>1</trackindex>
											<clipindex>1</clipindex>
										</link>
										<link>
											<linkclipref>clipitem-8</linkclipref>
											<mediatype>audio</mediatype>
											<trackindex>1</trackindex>
											<clipindex>1</clipindex>
											<groupindex>1</groupindex>
										</link>
										<link>
											<linkclipref>clipitem-9</linkclipref>
											<mediatype>audio</mediatype>
											<trackindex>2</trackindex>
											<clipindex>1</clipindex>
											<groupindex>1</groupindex>
										</link>
									</clipitem>
								</track>
								<track>
									<clipitem id="clipitem-9">
										<masterclipid>masterclip-3</masterclipid>
										<name>(DELPHI CINEMA)_Reel_214857301_VI.mp4</name>
										<rate>
											<timebase>24</timebase>
											<ntsc>TRUE</ntsc>
										</rate>
										<file id="file-3"/>
										<sourcetrack>
											<mediatype>audio</mediatype>
											<trackindex>2</trackindex>
										</sourcetrack>
										<link>
											<linkclipref>clipitem-7</linkclipref>
											<mediatype>video</mediatype>
											<trackindex>1</trackindex>
											<clipindex>1</clipindex>
										</link>
										<link>
											<linkclipref>clipitem-8</linkclipref>
											<mediatype>audio</mediatype>
											<trackindex>1</trackindex>
											<clipindex>1</clipindex>
											<groupindex>1</groupindex>
										</link>
										<link>
											<linkclipref>clipitem-9</linkclipref>
											<mediatype>audio</mediatype>
											<trackindex>2</trackindex>
											<clipindex>1</clipindex>
											<groupindex>1</groupindex>
										</link>
									</clipitem>
								</track>
							</audio>
						</media>
						<logginginfo>
							<description></description>
							<scene></scene>
							<shottake></shottake>
							<lognote></lognote>
							<good></good>
							<originalvideofilename></originalvideofilename>
							<originalaudiofilename></originalaudiofilename>
						</logginginfo>
						<colorinfo>
							<lut></lut>
							<lut1></lut1>
							<asc_sop></asc_sop>
							<asc_sat></asc_sat>
							<lut2></lut2>
						</colorinfo>
						<labels>
							<label2>Iris</label2>
						</labels>
					</clip>
					<clip id="masterclip-4" explodedTracks="true">
						<uuid>cb60b367-5699-4073-857a-116e8e8957e8</uuid>
						<masterclipid>masterclip-4</masterclipid>
						<ismasterclip>TRUE</ismasterclip>
						<duration>562</duration>
						<rate>
							<timebase>24</timebase>
							<ntsc>TRUE</ntsc>
						</rate>
						<name>49567_Dog carrying a stick runs through the snow_By_FILMCOVE_Artlist_HD.mp4</name>
						<media>
							<video>
								<track>
									<clipitem id="clipitem-10">
										<masterclipid>masterclip-4</masterclipid>
										<name>49567_Dog carrying a stick runs through the snow_By_FILMCOVE_Artlist_HD.mp4</name>
										<rate>
											<timebase>24</timebase>
											<ntsc>TRUE</ntsc>
										</rate>
										<alphatype>none</alphatype>
										<pixelaspectratio>square</pixelaspectratio>
										<anamorphic>FALSE</anamorphic>
										<file id="file-4">
											<name>49567_Dog carrying a stick runs through the snow_By_FILMCOVE_Artlist_HD.mp4</name>
											<pathurl>file://localhost/Volumes/Charlie's%20Extra%20Space%20/1_Alpine%20TV_Projects%20/Alpine_TV_09.12.2023/3_Raw%20Footage%20/49567_Dog%20carrying%20a%20stick%20runs%20through%20the%20snow_By_FILMCOVE_Artlist_HD.mp4</pathurl>
											<rate>
												<timebase>24</timebase>
												<ntsc>TRUE</ntsc>
											</rate>
											<duration>562</duration>
											<timecode>
												<rate>
													<timebase>24</timebase>
													<ntsc>TRUE</ntsc>
												</rate>
												<string>00:01:28:05</string>
												<frame>2117</frame>
												<displayformat>NDF</displayformat>
											</timecode>
											<media>
												<video>
													<samplecharacteristics>
														<rate>
															<timebase>24</timebase>
															<ntsc>TRUE</ntsc>
														</rate>
														<width>1920</width>
														<height>1080</height>
														<anamorphic>FALSE</anamorphic>
														<pixelaspectratio>square</pixelaspectratio>
														<fielddominance>none</fielddominance>
													</samplecharacteristics>
												</video>
												<audio>
													<samplecharacteristics>
														<depth>16</depth>
														<samplerate>44100</samplerate>
													</samplecharacteristics>
													<channelcount>2</channelcount>
												</audio>
											</media>
										</file>
										<link>
											<linkclipref>clipitem-10</linkclipref>
											<mediatype>video</mediatype>
											<trackindex>1</trackindex>
											<clipindex>1</clipindex>
										</link>
										<link>
											<linkclipref>clipitem-11</linkclipref>
											<mediatype>audio</mediatype>
											<trackindex>1</trackindex>
											<clipindex>1</clipindex>
											<groupindex>1</groupindex>
										</link>
										<link>
											<linkclipref>clipitem-12</linkclipref>
											<mediatype>audio</mediatype>
											<trackindex>2</trackindex>
											<clipindex>1</clipindex>
											<groupindex>1</groupindex>
										</link>
									</clipitem>
								</track>
							</video>
							<audio>
								<track>
									<clipitem id="clipitem-11">
										<masterclipid>masterclip-4</masterclipid>
										<name>49567_Dog carrying a stick runs through the snow_By_FILMCOVE_Artlist_HD.mp4</name>
										<rate>
											<timebase>24</timebase>
											<ntsc>TRUE</ntsc>
										</rate>
										<file id="file-4"/>
										<sourcetrack>
											<mediatype>audio</mediatype>
											<trackindex>1</trackindex>
										</sourcetrack>
										<link>
											<linkclipref>clipitem-10</linkclipref>
											<mediatype>video</mediatype>
											<trackindex>1</trackindex>
											<clipindex>1</clipindex>
										</link>
										<link>
											<linkclipref>clipitem-11</linkclipref>
											<mediatype>audio</mediatype>
											<trackindex>1</trackindex>
											<clipindex>1</clipindex>
											<groupindex>1</groupindex>
										</link>
										<link>
											<linkclipref>clipitem-12</linkclipref>
											<mediatype>audio</mediatype>
											<trackindex>2</trackindex>
											<clipindex>1</clipindex>
											<groupindex>1</groupindex>
										</link>
									</clipitem>
								</track>
								<track>
									<clipitem id="clipitem-12">
										<masterclipid>masterclip-4</masterclipid>
										<name>49567_Dog carrying a stick runs through the snow_By_FILMCOVE_Artlist_HD.mp4</name>
										<rate>
											<timebase>24</timebase>
											<ntsc>TRUE</ntsc>
										</rate>
										<file id="file-4"/>
										<sourcetrack>
											<mediatype>audio</mediatype>
											<trackindex>2</trackindex>
										</sourcetrack>
										<link>
											<linkclipref>clipitem-10</linkclipref>
											<mediatype>video</mediatype>
											<trackindex>1</trackindex>
											<clipindex>1</clipindex>
										</link>
										<link>
											<linkclipref>clipitem-11</linkclipref>
											<mediatype>audio</mediatype>
											<trackindex>1</trackindex>
											<clipindex>1</clipindex>
											<groupindex>1</groupindex>
										</link>
										<link>
											<linkclipref>clipitem-12</linkclipref>
											<mediatype>audio</mediatype>
											<trackindex>2</trackindex>
											<clipindex>1</clipindex>
											<groupindex>1</groupindex>
										</link>
									</clipitem>
								</track>
							</audio>
						</media>
						<logginginfo>
							<description></description>
							<scene></scene>
							<shottake></shottake>
							<lognote></lognote>
							<good></good>
							<originalvideofilename></originalvideofilename>
							<originalaudiofilename></originalaudiofilename>
						</logginginfo>
						<colorinfo>
							<lut></lut>
							<lut1></lut1>
							<asc_sop></asc_sop>
							<asc_sat></asc_sat>
							<lut2></lut2>
						</colorinfo>
						<labels>
							<label2>Iris</label2>
						</labels>
					</clip>
					<clip id="masterclip-5" explodedTracks="true">
						<uuid>cf6b1400-d96d-4080-a61b-2c8d668ce9a8</uuid>
						<masterclipid>masterclip-5</masterclipid>
						<ismasterclip>TRUE</ismasterclip>
						<duration>121</duration>
						<rate>
							<timebase>24</timebase>
							<ntsc>TRUE</ntsc>
						</rate>
						<name>49570_Dog jumps up with ears flapping to catch the snowball _By_FILMCOVE_Artlist_HD 2.mp4</name>
						<media>
							<video>
								<track>
									<clipitem id="clipitem-13">
										<masterclipid>masterclip-5</masterclipid>
										<name>49570_Dog jumps up with ears flapping to catch the snowball _By_FILMCOVE_Artlist_HD 2.mp4</name>
										<rate>
											<timebase>24</timebase>
											<ntsc>TRUE</ntsc>
										</rate>
										<alphatype>none</alphatype>
										<pixelaspectratio>square</pixelaspectratio>
										<anamorphic>FALSE</anamorphic>
										<file id="file-5">
											<name>49570_Dog jumps up with ears flapping to catch the snowball _By_FILMCOVE_Artlist_HD 2.mp4</name>
											<pathurl>file://localhost/Volumes/Charlie's%20Extra%20Space%20/1_Alpine%20TV_Projects%20/Alpine_TV_09.12.2023/3_Raw%20Footage%20/49570_Dog%20jumps%20up%20with%20ears%20flapping%20to%20catch%20the%20snowball%20_By_FILMCOVE_Artlist_HD%202.mp4</pathurl>
											<rate>
												<timebase>24</timebase>
												<ntsc>TRUE</ntsc>
											</rate>
											<duration>121</duration>
											<timecode>
												<rate>
													<timebase>24</timebase>
													<ntsc>TRUE</ntsc>
												</rate>
												<string>00:02:19:08</string>
												<frame>3344</frame>
												<displayformat>NDF</displayformat>
											</timecode>
											<media>
												<video>
													<samplecharacteristics>
														<rate>
															<timebase>24</timebase>
															<ntsc>TRUE</ntsc>
														</rate>
														<width>1920</width>
														<height>1080</height>
														<anamorphic>FALSE</anamorphic>
														<pixelaspectratio>square</pixelaspectratio>
														<fielddominance>none</fielddominance>
													</samplecharacteristics>
												</video>
												<audio>
													<samplecharacteristics>
														<depth>16</depth>
														<samplerate>44100</samplerate>
													</samplecharacteristics>
													<channelcount>2</channelcount>
												</audio>
											</media>
										</file>
										<link>
											<linkclipref>clipitem-13</linkclipref>
											<mediatype>video</mediatype>
											<trackindex>1</trackindex>
											<clipindex>1</clipindex>
										</link>
										<link>
											<linkclipref>clipitem-14</linkclipref>
											<mediatype>audio</mediatype>
											<trackindex>1</trackindex>
											<clipindex>1</clipindex>
											<groupindex>1</groupindex>
										</link>
										<link>
											<linkclipref>clipitem-15</linkclipref>
											<mediatype>audio</mediatype>
											<trackindex>2</trackindex>
											<clipindex>1</clipindex>
											<groupindex>1</groupindex>
										</link>
									</clipitem>
								</track>
							</video>
							<audio>
								<track>
									<clipitem id="clipitem-14">
										<masterclipid>masterclip-5</masterclipid>
										<name>49570_Dog jumps up with ears flapping to catch the snowball _By_FILMCOVE_Artlist_HD 2.mp4</name>
										<rate>
											<timebase>24</timebase>
											<ntsc>TRUE</ntsc>
										</rate>
										<file id="file-5"/>
										<sourcetrack>
											<mediatype>audio</mediatype>
											<trackindex>1</trackindex>
										</sourcetrack>
										<link>
											<linkclipref>clipitem-13</linkclipref>
											<mediatype>video</mediatype>
											<trackindex>1</trackindex>
											<clipindex>1</clipindex>
										</link>
										<link>
											<linkclipref>clipitem-14</linkclipref>
											<mediatype>audio</mediatype>
											<trackindex>1</trackindex>
											<clipindex>1</clipindex>
											<groupindex>1</groupindex>
										</link>
										<link>
											<linkclipref>clipitem-15</linkclipref>
											<mediatype>audio</mediatype>
											<trackindex>2</trackindex>
											<clipindex>1</clipindex>
											<groupindex>1</groupindex>
										</link>
									</clipitem>
								</track>
								<track>
									<clipitem id="clipitem-15">
										<masterclipid>masterclip-5</masterclipid>
										<name>49570_Dog jumps up with ears flapping to catch the snowball _By_FILMCOVE_Artlist_HD 2.mp4</name>
										<rate>
											<timebase>24</timebase>
											<ntsc>TRUE</ntsc>
										</rate>
										<file id="file-5"/>
										<sourcetrack>
											<mediatype>audio</mediatype>
											<trackindex>2</trackindex>
										</sourcetrack>
										<link>
											<linkclipref>clipitem-13</linkclipref>
											<mediatype>video</mediatype>
											<trackindex>1</trackindex>
											<clipindex>1</clipindex>
										</link>
										<link>
											<linkclipref>clipitem-14</linkclipref>
											<mediatype>audio</mediatype>
											<trackindex>1</trackindex>
											<clipindex>1</clipindex>
											<groupindex>1</groupindex>
										</link>
										<link>
											<linkclipref>clipitem-15</linkclipref>
											<mediatype>audio</mediatype>
											<trackindex>2</trackindex>
											<clipindex>1</clipindex>
											<groupindex>1</groupindex>
										</link>
									</clipitem>
								</track>
							</audio>
						</media>
						<logginginfo>
							<description></description>
							<scene></scene>
							<shottake></shottake>
							<lognote></lognote>
							<good></good>
							<originalvideofilename></originalvideofilename>
							<originalaudiofilename></originalaudiofilename>
						</logginginfo>
						<colorinfo>
							<lut></lut>
							<lut1></lut1>
							<asc_sop></asc_sop>
							<asc_sat></asc_sat>
							<lut2></lut2>
						</colorinfo>
						<labels>
							<label2>Iris</label2>
						</labels>
					</clip>
					<clip id="masterclip-6" explodedTracks="true">
						<uuid>dd1252d9-1eab-4ddd-92cf-3970d58c9065</uuid>
						<masterclipid>masterclip-6</masterclipid>
						<ismasterclip>TRUE</ismasterclip>
						<duration>433</duration>
						<rate>
							<timebase>24</timebase>
							<ntsc>TRUE</ntsc>
						</rate>
						<name>95720_Little girl playing with her dog in the snow _By_Via_Films_Artlist_HD.mp4</name>
						<media>
							<video>
								<track>
									<clipitem id="clipitem-16">
										<masterclipid>masterclip-6</masterclipid>
										<name>95720_Little girl playing with her dog in the snow _By_Via_Films_Artlist_HD.mp4</name>
										<rate>
											<timebase>24</timebase>
											<ntsc>TRUE</ntsc>
										</rate>
										<alphatype>none</alphatype>
										<pixelaspectratio>square</pixelaspectratio>
										<anamorphic>FALSE</anamorphic>
										<file id="file-6">
											<name>95720_Little girl playing with her dog in the snow _By_Via_Films_Artlist_HD.mp4</name>
											<pathurl>file://localhost/Volumes/Charlie's%20Extra%20Space%20/1_Alpine%20TV_Projects%20/Alpine_TV_09.12.2023/3_Raw%20Footage%20/95720_Little%20girl%20playing%20with%20her%20dog%20in%20the%20snow%20_By_Via_Films_Artlist_HD.mp4</pathurl>
											<rate>
												<timebase>24</timebase>
												<ntsc>TRUE</ntsc>
											</rate>
											<duration>433</duration>
											<timecode>
												<rate>
													<timebase>24</timebase>
													<ntsc>TRUE</ntsc>
												</rate>
												<string>00:17:12:22</string>
												<frame>24790</frame>
												<displayformat>NDF</displayformat>
											</timecode>
											<media>
												<video>
													<samplecharacteristics>
														<rate>
															<timebase>24</timebase>
															<ntsc>TRUE</ntsc>
														</rate>
														<width>1920</width>
														<height>1080</height>
														<anamorphic>FALSE</anamorphic>
														<pixelaspectratio>square</pixelaspectratio>
														<fielddominance>none</fielddominance>
													</samplecharacteristics>
												</video>
											</media>
										</file>
									</clipitem>
								</track>
							</video>
						</media>
						<logginginfo>
							<description></description>
							<scene></scene>
							<shottake></shottake>
							<lognote></lognote>
							<good></good>
							<originalvideofilename></originalvideofilename>
							<originalaudiofilename></originalaudiofilename>
						</logginginfo>
						<colorinfo>
							<lut></lut>
							<lut1></lut1>
							<asc_sop></asc_sop>
							<asc_sat></asc_sat>
							<lut2></lut2>
						</colorinfo>
						<labels>
							<label2>Violet</label2>
						</labels>
					</clip>
					<clip id="masterclip-7" explodedTracks="true">
						<uuid>11dff58e-6f9b-41ba-be64-165848e07499</uuid>
						<masterclipid>masterclip-7</masterclipid>
						<ismasterclip>TRUE</ismasterclip>
						<duration>252</duration>
						<rate>
							<timebase>24</timebase>
							<ntsc>TRUE</ntsc>
						</rate>
						<name>264638_Dog White Snowing Retriever_By_Orangebox_Pictures_Artlist_HD.mp4</name>
						<media>
							<video>
								<track>
									<clipitem id="clipitem-17">
										<masterclipid>masterclip-7</masterclipid>
										<name>264638_Dog White Snowing Retriever_By_Orangebox_Pictures_Artlist_HD.mp4</name>
										<rate>
											<timebase>24</timebase>
											<ntsc>TRUE</ntsc>
										</rate>
										<alphatype>none</alphatype>
										<pixelaspectratio>square</pixelaspectratio>
										<anamorphic>FALSE</anamorphic>
										<file id="file-7">
											<name>264638_Dog White Snowing Retriever_By_Orangebox_Pictures_Artlist_HD.mp4</name>
											<pathurl>file://localhost/Volumes/Charlie's%20Extra%20Space%20/1_Alpine%20TV_Projects%20/Alpine_TV_09.12.2023/3_Raw%20Footage%20/264638_Dog%20White%20Snowing%20Retriever_By_Orangebox_Pictures_Artlist_HD.mp4</pathurl>
											<rate>
												<timebase>24</timebase>
												<ntsc>TRUE</ntsc>
											</rate>
											<duration>252</duration>
											<timecode>
												<rate>
													<timebase>24</timebase>
													<ntsc>TRUE</ntsc>
												</rate>
												<string>00:00:00:00</string>
												<frame>0</frame>
												<displayformat>NDF</displayformat>
											</timecode>
											<media>
												<video>
													<samplecharacteristics>
														<rate>
															<timebase>24</timebase>
															<ntsc>TRUE</ntsc>
														</rate>
														<width>1920</width>
														<height>1080</height>
														<anamorphic>FALSE</anamorphic>
														<pixelaspectratio>square</pixelaspectratio>
														<fielddominance>none</fielddominance>
													</samplecharacteristics>
												</video>
											</media>
										</file>
									</clipitem>
								</track>
							</video>
						</media>
						<logginginfo>
							<description></description>
							<scene></scene>
							<shottake></shottake>
							<lognote></lognote>
							<good></good>
							<originalvideofilename></originalvideofilename>
							<originalaudiofilename></originalaudiofilename>
						</logginginfo>
						<colorinfo>
							<lut></lut>
							<lut1></lut1>
							<asc_sop></asc_sop>
							<asc_sat></asc_sat>
							<lut2></lut2>
						</colorinfo>
						<labels>
							<label2>Violet</label2>
						</labels>
					</clip>
					<clip id="masterclip-8" explodedTracks="true">
						<uuid>37d28d5f-f109-4c4a-95be-7062f3e4b202</uuid>
						<masterclipid>masterclip-8</masterclipid>
						<ismasterclip>TRUE</ismasterclip>
						<duration>231</duration>
						<rate>
							<timebase>24</timebase>
							<ntsc>TRUE</ntsc>
						</rate>
						<name>264640_Dog Jumping Retriever Snowing_By_Orangebox_Pictures_Artlist_HD.mp4</name>
						<media>
							<video>
								<track>
									<clipitem id="clipitem-18">
										<masterclipid>masterclip-8</masterclipid>
										<name>264640_Dog Jumping Retriever Snowing_By_Orangebox_Pictures_Artlist_HD.mp4</name>
										<rate>
											<timebase>24</timebase>
											<ntsc>TRUE</ntsc>
										</rate>
										<alphatype>none</alphatype>
										<pixelaspectratio>square</pixelaspectratio>
										<anamorphic>FALSE</anamorphic>
										<file id="file-8">
											<name>264640_Dog Jumping Retriever Snowing_By_Orangebox_Pictures_Artlist_HD.mp4</name>
											<pathurl>file://localhost/Volumes/Charlie's%20Extra%20Space%20/1_Alpine%20TV_Projects%20/Alpine_TV_09.12.2023/3_Raw%20Footage%20/264640_Dog%20Jumping%20Retriever%20Snowing_By_Orangebox_Pictures_Artlist_HD.mp4</pathurl>
											<rate>
												<timebase>24</timebase>
												<ntsc>TRUE</ntsc>
											</rate>
											<duration>231</duration>
											<timecode>
												<rate>
													<timebase>24</timebase>
													<ntsc>TRUE</ntsc>
												</rate>
												<string>00:00:00:00</string>
												<frame>0</frame>
												<displayformat>NDF</displayformat>
											</timecode>
											<media>
												<video>
													<samplecharacteristics>
														<rate>
															<timebase>24</timebase>
															<ntsc>TRUE</ntsc>
														</rate>
														<width>1920</width>
														<height>1080</height>
														<anamorphic>FALSE</anamorphic>
														<pixelaspectratio>square</pixelaspectratio>
														<fielddominance>none</fielddominance>
													</samplecharacteristics>
												</video>
											</media>
										</file>
									</clipitem>
								</track>
							</video>
						</media>
						<logginginfo>
							<description></description>
							<scene></scene>
							<shottake></shottake>
							<lognote></lognote>
							<good></good>
							<originalvideofilename></originalvideofilename>
							<originalaudiofilename></originalaudiofilename>
						</logginginfo>
						<colorinfo>
							<lut></lut>
							<lut1></lut1>
							<asc_sop></asc_sop>
							<asc_sat></asc_sat>
							<lut2></lut2>
						</colorinfo>
						<labels>
							<label2>Violet</label2>
						</labels>
					</clip>
					<clip id="masterclip-9" explodedTracks="true">
						<uuid>2f3d484b-c473-4853-8171-1155fdf60ad9</uuid>
						<masterclipid>masterclip-9</masterclipid>
						<ismasterclip>TRUE</ismasterclip>
						<duration>312</duration>
						<rate>
							<timebase>24</timebase>
							<ntsc>TRUE</ntsc>
						</rate>
						<name>387434_Puppy Dog Chewing Snowing_By_FILMCOVE_Artlist_HD.mp4</name>
						<media>
							<video>
								<track>
									<clipitem id="clipitem-19">
										<masterclipid>masterclip-9</masterclipid>
										<name>387434_Puppy Dog Chewing Snowing_By_FILMCOVE_Artlist_HD.mp4</name>
										<rate>
											<timebase>24</timebase>
											<ntsc>TRUE</ntsc>
										</rate>
										<alphatype>none</alphatype>
										<pixelaspectratio>square</pixelaspectratio>
										<anamorphic>FALSE</anamorphic>
										<file id="file-9">
											<name>387434_Puppy Dog Chewing Snowing_By_FILMCOVE_Artlist_HD.mp4</name>
											<pathurl>file://localhost/Volumes/Charlie's%20Extra%20Space%20/1_Alpine%20TV_Projects%20/Alpine_TV_09.12.2023/3_Raw%20Footage%20/387434_Puppy%20Dog%20Chewing%20Snowing_By_FILMCOVE_Artlist_HD.mp4</pathurl>
											<rate>
												<timebase>24</timebase>
												<ntsc>TRUE</ntsc>
											</rate>
											<duration>312</duration>
											<timecode>
												<rate>
													<timebase>24</timebase>
													<ntsc>TRUE</ntsc>
												</rate>
												<string>00:01:14:22</string>
												<frame>1798</frame>
												<displayformat>NDF</displayformat>
											</timecode>
											<media>
												<video>
													<samplecharacteristics>
														<rate>
															<timebase>24</timebase>
															<ntsc>TRUE</ntsc>
														</rate>
														<width>1920</width>
														<height>1080</height>
														<anamorphic>FALSE</anamorphic>
														<pixelaspectratio>square</pixelaspectratio>
														<fielddominance>none</fielddominance>
													</samplecharacteristics>
												</video>
												<audio>
													<samplecharacteristics>
														<depth>16</depth>
														<samplerate>48000</samplerate>
													</samplecharacteristics>
													<channelcount>2</channelcount>
												</audio>
											</media>
										</file>
										<link>
											<linkclipref>clipitem-19</linkclipref>
											<mediatype>video</mediatype>
											<trackindex>1</trackindex>
											<clipindex>1</clipindex>
										</link>
										<link>
											<linkclipref>clipitem-20</linkclipref>
											<mediatype>audio</mediatype>
											<trackindex>1</trackindex>
											<clipindex>1</clipindex>
											<groupindex>1</groupindex>
										</link>
										<link>
											<linkclipref>clipitem-21</linkclipref>
											<mediatype>audio</mediatype>
											<trackindex>2</trackindex>
											<clipindex>1</clipindex>
											<groupindex>1</groupindex>
										</link>
									</clipitem>
								</track>
							</video>
							<audio>
								<track>
									<clipitem id="clipitem-20">
										<masterclipid>masterclip-9</masterclipid>
										<name>387434_Puppy Dog Chewing Snowing_By_FILMCOVE_Artlist_HD.mp4</name>
										<rate>
											<timebase>24</timebase>
											<ntsc>TRUE</ntsc>
										</rate>
										<file id="file-9"/>
										<sourcetrack>
											<mediatype>audio</mediatype>
											<trackindex>1</trackindex>
										</sourcetrack>
										<link>
											<linkclipref>clipitem-19</linkclipref>
											<mediatype>video</mediatype>
											<trackindex>1</trackindex>
											<clipindex>1</clipindex>
										</link>
										<link>
											<linkclipref>clipitem-20</linkclipref>
											<mediatype>audio</mediatype>
											<trackindex>1</trackindex>
											<clipindex>1</clipindex>
											<groupindex>1</groupindex>
										</link>
										<link>
											<linkclipref>clipitem-21</linkclipref>
											<mediatype>audio</mediatype>
											<trackindex>2</trackindex>
											<clipindex>1</clipindex>
											<groupindex>1</groupindex>
										</link>
									</clipitem>
								</track>
								<track>
									<clipitem id="clipitem-21">
										<masterclipid>masterclip-9</masterclipid>
										<name>387434_Puppy Dog Chewing Snowing_By_FILMCOVE_Artlist_HD.mp4</name>
										<rate>
											<timebase>24</timebase>
											<ntsc>TRUE</ntsc>
										</rate>
										<file id="file-9"/>
										<sourcetrack>
											<mediatype>audio</mediatype>
											<trackindex>2</trackindex>
										</sourcetrack>
										<link>
											<linkclipref>clipitem-19</linkclipref>
											<mediatype>video</mediatype>
											<trackindex>1</trackindex>
											<clipindex>1</clipindex>
										</link>
										<link>
											<linkclipref>clipitem-20</linkclipref>
											<mediatype>audio</mediatype>
											<trackindex>1</trackindex>
											<clipindex>1</clipindex>
											<groupindex>1</groupindex>
										</link>
										<link>
											<linkclipref>clipitem-21</linkclipref>
											<mediatype>audio</mediatype>
											<trackindex>2</trackindex>
											<clipindex>1</clipindex>
											<groupindex>1</groupindex>
										</link>
									</clipitem>
								</track>
							</audio>
						</media>
						<logginginfo>
							<description></description>
							<scene></scene>
							<shottake></shottake>
							<lognote></lognote>
							<good></good>
							<originalvideofilename></originalvideofilename>
							<originalaudiofilename></originalaudiofilename>
						</logginginfo>
						<colorinfo>
							<lut></lut>
							<lut1></lut1>
							<asc_sop></asc_sop>
							<asc_sat></asc_sat>
							<lut2></lut2>
						</colorinfo>
						<labels>
							<label2>Iris</label2>
						</labels>
					</clip>
					<clip id="masterclip-10" explodedTracks="true">
						<uuid>bd37a523-19ee-40da-a98c-e6aa98469b12</uuid>
						<masterclipid>masterclip-10</masterclipid>
						<ismasterclip>TRUE</ismasterclip>
						<duration>514</duration>
						<rate>
							<timebase>24</timebase>
							<ntsc>TRUE</ntsc>
						</rate>
						<name>387441_Snowing Puppy Dog Snow_By_FILMCOVE_Artlist_HD.mp4</name>
						<media>
							<video>
								<track>
									<clipitem id="clipitem-22">
										<masterclipid>masterclip-10</masterclipid>
										<name>387441_Snowing Puppy Dog Snow_By_FILMCOVE_Artlist_HD.mp4</name>
										<rate>
											<timebase>24</timebase>
											<ntsc>TRUE</ntsc>
										</rate>
										<alphatype>none</alphatype>
										<pixelaspectratio>square</pixelaspectratio>
										<anamorphic>FALSE</anamorphic>
										<file id="file-10">
											<name>387441_Snowing Puppy Dog Snow_By_FILMCOVE_Artlist_HD.mp4</name>
											<pathurl>file://localhost/Volumes/Charlie's%20Extra%20Space%20/1_Alpine%20TV_Projects%20/Alpine_TV_09.12.2023/3_Raw%20Footage%20/387441_Snowing%20Puppy%20Dog%20Snow_By_FILMCOVE_Artlist_HD.mp4</pathurl>
											<rate>
												<timebase>24</timebase>
												<ntsc>TRUE</ntsc>
											</rate>
											<duration>514</duration>
											<timecode>
												<rate>
													<timebase>24</timebase>
													<ntsc>TRUE</ntsc>
												</rate>
												<string>00:02:32:01</string>
												<frame>3649</frame>
												<displayformat>NDF</displayformat>
											</timecode>
											<media>
												<video>
													<samplecharacteristics>
														<rate>
															<timebase>24</timebase>
															<ntsc>TRUE</ntsc>
														</rate>
														<width>1920</width>
														<height>1080</height>
														<anamorphic>FALSE</anamorphic>
														<pixelaspectratio>square</pixelaspectratio>
														<fielddominance>none</fielddominance>
													</samplecharacteristics>
												</video>
												<audio>
													<samplecharacteristics>
														<depth>16</depth>
														<samplerate>48000</samplerate>
													</samplecharacteristics>
													<channelcount>2</channelcount>
												</audio>
											</media>
										</file>
										<link>
											<linkclipref>clipitem-22</linkclipref>
											<mediatype>video</mediatype>
											<trackindex>1</trackindex>
											<clipindex>1</clipindex>
										</link>
										<link>
											<linkclipref>clipitem-23</linkclipref>
											<mediatype>audio</mediatype>
											<trackindex>1</trackindex>
											<clipindex>1</clipindex>
											<groupindex>1</groupindex>
										</link>
										<link>
											<linkclipref>clipitem-24</linkclipref>
											<mediatype>audio</mediatype>
											<trackindex>2</trackindex>
											<clipindex>1</clipindex>
											<groupindex>1</groupindex>
										</link>
									</clipitem>
								</track>
							</video>
							<audio>
								<track>
									<clipitem id="clipitem-23">
										<masterclipid>masterclip-10</masterclipid>
										<name>387441_Snowing Puppy Dog Snow_By_FILMCOVE_Artlist_HD.mp4</name>
										<rate>
											<timebase>24</timebase>
											<ntsc>TRUE</ntsc>
										</rate>
										<file id="file-10"/>
										<sourcetrack>
											<mediatype>audio</mediatype>
											<trackindex>1</trackindex>
										</sourcetrack>
										<link>
											<linkclipref>clipitem-22</linkclipref>
											<mediatype>video</mediatype>
											<trackindex>1</trackindex>
											<clipindex>1</clipindex>
										</link>
										<link>
											<linkclipref>clipitem-23</linkclipref>
											<mediatype>audio</mediatype>
											<trackindex>1</trackindex>
											<clipindex>1</clipindex>
											<groupindex>1</groupindex>
										</link>
										<link>
											<linkclipref>clipitem-24</linkclipref>
											<mediatype>audio</mediatype>
											<trackindex>2</trackindex>
											<clipindex>1</clipindex>
											<groupindex>1</groupindex>
										</link>
									</clipitem>
								</track>
								<track>
									<clipitem id="clipitem-24">
										<masterclipid>masterclip-10</masterclipid>
										<name>387441_Snowing Puppy Dog Snow_By_FILMCOVE_Artlist_HD.mp4</name>
										<rate>
											<timebase>24</timebase>
											<ntsc>TRUE</ntsc>
										</rate>
										<file id="file-10"/>
										<sourcetrack>
											<mediatype>audio</mediatype>
											<trackindex>2</trackindex>
										</sourcetrack>
										<link>
											<linkclipref>clipitem-22</linkclipref>
											<mediatype>video</mediatype>
											<trackindex>1</trackindex>
											<clipindex>1</clipindex>
										</link>
										<link>
											<linkclipref>clipitem-23</linkclipref>
											<mediatype>audio</mediatype>
											<trackindex>1</trackindex>
											<clipindex>1</clipindex>
											<groupindex>1</groupindex>
										</link>
										<link>
											<linkclipref>clipitem-24</linkclipref>
											<mediatype>audio</mediatype>
											<trackindex>2</trackindex>
											<clipindex>1</clipindex>
											<groupindex>1</groupindex>
										</link>
									</clipitem>
								</track>
							</audio>
						</media>
						<logginginfo>
							<description></description>
							<scene></scene>
							<shottake></shottake>
							<lognote></lognote>
							<good></good>
							<originalvideofilename></originalvideofilename>
							<originalaudiofilename></originalaudiofilename>
						</logginginfo>
						<colorinfo>
							<lut></lut>
							<lut1></lut1>
							<asc_sop></asc_sop>
							<asc_sat></asc_sat>
							<lut2></lut2>
						</colorinfo>
						<labels>
							<label2>Iris</label2>
						</labels>
					</clip>
					<clip id="masterclip-11" explodedTracks="true">
						<uuid>1174d3fc-d53f-4090-87be-3ba292079712</uuid>
						<masterclipid>masterclip-11</masterclipid>
						<ismasterclip>TRUE</ismasterclip>
						<duration>610</duration>
						<rate>
							<timebase>24</timebase>
							<ntsc>TRUE</ntsc>
						</rate>
						<name>674635_Dog Golden Retriever Playing Snow_By_Untold_Creative_Artlist_HD.mp4</name>
						<media>
							<video>
								<track>
									<clipitem id="clipitem-25">
										<masterclipid>masterclip-11</masterclipid>
										<name>674635_Dog Golden Retriever Playing Snow_By_Untold_Creative_Artlist_HD.mp4</name>
										<rate>
											<timebase>24</timebase>
											<ntsc>TRUE</ntsc>
										</rate>
										<alphatype>none</alphatype>
										<pixelaspectratio>PAL-601</pixelaspectratio>
										<anamorphic>FALSE</anamorphic>
										<file id="file-11">
											<name>674635_Dog Golden Retriever Playing Snow_By_Untold_Creative_Artlist_HD.mp4</name>
											<pathurl>file://localhost/Volumes/Charlie's%20Extra%20Space%20/1_Alpine%20TV_Projects%20/Alpine_TV_09.12.2023/3_Raw%20Footage%20/674635_Dog%20Golden%20Retriever%20Playing%20Snow_By_Untold_Creative_Artlist_HD.mp4</pathurl>
											<rate>
												<timebase>24</timebase>
												<ntsc>TRUE</ntsc>
											</rate>
											<duration>610</duration>
											<timecode>
												<rate>
													<timebase>24</timebase>
													<ntsc>TRUE</ntsc>
												</rate>
												<string>07:18:22:10</string>
												<frame>631258</frame>
												<displayformat>NDF</displayformat>
											</timecode>
											<media>
												<video>
													<samplecharacteristics>
														<rate>
															<timebase>24</timebase>
															<ntsc>TRUE</ntsc>
														</rate>
														<width>1920</width>
														<height>1080</height>
														<anamorphic>FALSE</anamorphic>
														<pixelaspectratio>PAL-601</pixelaspectratio>
														<fielddominance>none</fielddominance>
													</samplecharacteristics>
												</video>
											</media>
										</file>
									</clipitem>
								</track>
							</video>
						</media>
						<logginginfo>
							<description></description>
							<scene></scene>
							<shottake></shottake>
							<lognote></lognote>
							<good></good>
							<originalvideofilename></originalvideofilename>
							<originalaudiofilename></originalaudiofilename>
						</logginginfo>
						<colorinfo>
							<lut></lut>
							<lut1></lut1>
							<asc_sop></asc_sop>
							<asc_sat></asc_sat>
							<lut2></lut2>
						</colorinfo>
						<labels>
							<label2>Violet</label2>
						</labels>
					</clip>
					<clip id="masterclip-12" explodedTracks="true">
						<uuid>00d9757d-dfc4-4b08-b29a-33e80678eb5a</uuid>
						<masterclipid>masterclip-12</masterclipid>
						<ismasterclip>TRUE</ismasterclip>
						<duration>8999</duration>
						<rate>
							<timebase>24</timebase>
							<ntsc>FALSE</ntsc>
						</rate>
						<name>(ImadClicks)_First snowfall of my Dogs _ German Shepherd Dogs _ 🐕_QmdSEMMMdrI_YT.mp4</name>
						<media>
							<video>
								<track>
									<clipitem id="clipitem-26">
										<masterclipid>masterclip-12</masterclipid>
										<name>(ImadClicks)_First snowfall of my Dogs _ German Shepherd Dogs _ 🐕_QmdSEMMMdrI_YT.mp4</name>
										<rate>
											<timebase>24</timebase>
											<ntsc>FALSE</ntsc>
										</rate>
										<alphatype>none</alphatype>
										<pixelaspectratio>square</pixelaspectratio>
										<anamorphic>FALSE</anamorphic>
										<file id="file-12">
											<name>(ImadClicks)_First snowfall of my Dogs _ German Shepherd Dogs _ 🐕_QmdSEMMMdrI_YT.mp4</name>
											<pathurl>file://localhost/Volumes/Charlie's%20Extra%20Space%20/1_Alpine%20TV_Projects%20/Alpine_TV_09.12.2023/3_Raw%20Footage%20/(ImadClicks)_First%20snowfall%20of%20my%20Dogs%20_%20German%20Shepherd%20Dogs%20_%20%f0%9f%90%95_QmdSEMMMdrI_YT.mp4</pathurl>
											<rate>
												<timebase>24</timebase>
												<ntsc>FALSE</ntsc>
											</rate>
											<duration>8999</duration>
											<timecode>
												<rate>
													<timebase>24</timebase>
													<ntsc>FALSE</ntsc>
												</rate>
												<string>00:00:00:00</string>
												<frame>0</frame>
												<displayformat>NDF</displayformat>
											</timecode>
											<media>
												<video>
													<samplecharacteristics>
														<rate>
															<timebase>24</timebase>
															<ntsc>FALSE</ntsc>
														</rate>
														<width>1920</width>
														<height>960</height>
														<anamorphic>FALSE</anamorphic>
														<pixelaspectratio>square</pixelaspectratio>
														<fielddominance>none</fielddominance>
													</samplecharacteristics>
												</video>
												<audio>
													<samplecharacteristics>
														<depth>16</depth>
														<samplerate>44100</samplerate>
													</samplecharacteristics>
													<channelcount>2</channelcount>
												</audio>
											</media>
										</file>
										<link>
											<linkclipref>clipitem-26</linkclipref>
											<mediatype>video</mediatype>
											<trackindex>1</trackindex>
											<clipindex>1</clipindex>
										</link>
										<link>
											<linkclipref>clipitem-27</linkclipref>
											<mediatype>audio</mediatype>
											<trackindex>1</trackindex>
											<clipindex>1</clipindex>
											<groupindex>1</groupindex>
										</link>
										<link>
											<linkclipref>clipitem-28</linkclipref>
											<mediatype>audio</mediatype>
											<trackindex>2</trackindex>
											<clipindex>1</clipindex>
											<groupindex>1</groupindex>
										</link>
									</clipitem>
								</track>
							</video>
							<audio>
								<track>
									<clipitem id="clipitem-27">
										<masterclipid>masterclip-12</masterclipid>
										<name>(ImadClicks)_First snowfall of my Dogs _ German Shepherd Dogs _ 🐕_QmdSEMMMdrI_YT.mp4</name>
										<rate>
											<timebase>24</timebase>
											<ntsc>FALSE</ntsc>
										</rate>
										<file id="file-12"/>
										<sourcetrack>
											<mediatype>audio</mediatype>
											<trackindex>1</trackindex>
										</sourcetrack>
										<link>
											<linkclipref>clipitem-26</linkclipref>
											<mediatype>video</mediatype>
											<trackindex>1</trackindex>
											<clipindex>1</clipindex>
										</link>
										<link>
											<linkclipref>clipitem-27</linkclipref>
											<mediatype>audio</mediatype>
											<trackindex>1</trackindex>
											<clipindex>1</clipindex>
											<groupindex>1</groupindex>
										</link>
										<link>
											<linkclipref>clipitem-28</linkclipref>
											<mediatype>audio</mediatype>
											<trackindex>2</trackindex>
											<clipindex>1</clipindex>
											<groupindex>1</groupindex>
										</link>
									</clipitem>
								</track>
								<track>
									<clipitem id="clipitem-28">
										<masterclipid>masterclip-12</masterclipid>
										<name>(ImadClicks)_First snowfall of my Dogs _ German Shepherd Dogs _ 🐕_QmdSEMMMdrI_YT.mp4</name>
										<rate>
											<timebase>24</timebase>
											<ntsc>FALSE</ntsc>
										</rate>
										<file id="file-12"/>
										<sourcetrack>
											<mediatype>audio</mediatype>
											<trackindex>2</trackindex>
										</sourcetrack>
										<link>
											<linkclipref>clipitem-26</linkclipref>
											<mediatype>video</mediatype>
											<trackindex>1</trackindex>
											<clipindex>1</clipindex>
										</link>
										<link>
											<linkclipref>clipitem-27</linkclipref>
											<mediatype>audio</mediatype>
											<trackindex>1</trackindex>
											<clipindex>1</clipindex>
											<groupindex>1</groupindex>
										</link>
										<link>
											<linkclipref>clipitem-28</linkclipref>
											<mediatype>audio</mediatype>
											<trackindex>2</trackindex>
											<clipindex>1</clipindex>
											<groupindex>1</groupindex>
										</link>
									</clipitem>
								</track>
							</audio>
						</media>
						<logginginfo>
							<description></description>
							<scene></scene>
							<shottake></shottake>
							<lognote>https://www.youtube.com/watch?v=QmdSEMMMdrI</lognote>
							<good></good>
							<originalvideofilename></originalvideofilename>
							<originalaudiofilename></originalaudiofilename>
						</logginginfo>
						<colorinfo>
							<lut></lut>
							<lut1></lut1>
							<asc_sop></asc_sop>
							<asc_sat></asc_sat>
							<lut2></lut2>
						</colorinfo>
						<labels>
							<label2>Iris</label2>
						</labels>
					</clip>
					<clip id="masterclip-13" explodedTracks="true">
						<uuid>e801173e-6c43-4e8f-a828-0b223b7c765d</uuid>
						<masterclipid>masterclip-13</masterclipid>
						<ismasterclip>TRUE</ismasterclip>
						<duration>149</duration>
						<rate>
							<timebase>24</timebase>
							<ntsc>FALSE</ntsc>
						</rate>
						<name>37882_Dog playing in the snow_By_Timothy_McGlinchey_Artlist_HD.mp4</name>
						<media>
							<video>
								<track>
									<clipitem id="clipitem-29">
										<masterclipid>masterclip-13</masterclipid>
										<name>37882_Dog playing in the snow_By_Timothy_McGlinchey_Artlist_HD.mp4</name>
										<rate>
											<timebase>24</timebase>
											<ntsc>FALSE</ntsc>
										</rate>
										<alphatype>none</alphatype>
										<pixelaspectratio>square</pixelaspectratio>
										<anamorphic>FALSE</anamorphic>
										<file id="file-13">
											<name>37882_Dog playing in the snow_By_Timothy_McGlinchey_Artlist_HD.mp4</name>
											<pathurl>file://localhost/Volumes/Charlie's%20Extra%20Space%20/1_Alpine%20TV_Projects%20/Alpine_TV_09.12.2023/3_Raw%20Footage%20/37882_Dog%20playing%20in%20the%20snow_By_Timothy_McGlinchey_Artlist_HD.mp4</pathurl>
											<rate>
												<timebase>24</timebase>
												<ntsc>FALSE</ntsc>
											</rate>
											<duration>149</duration>
											<timecode>
												<rate>
													<timebase>24</timebase>
													<ntsc>FALSE</ntsc>
												</rate>
												<string>00:00:00:00</string>
												<frame>0</frame>
												<displayformat>NDF</displayformat>
											</timecode>
											<media>
												<video>
													<samplecharacteristics>
														<rate>
															<timebase>24</timebase>
															<ntsc>FALSE</ntsc>
														</rate>
														<width>1920</width>
														<height>1080</height>
														<anamorphic>FALSE</anamorphic>
														<pixelaspectratio>square</pixelaspectratio>
														<fielddominance>none</fielddominance>
													</samplecharacteristics>
												</video>
											</media>
										</file>
									</clipitem>
								</track>
							</video>
						</media>
						<logginginfo>
							<description></description>
							<scene></scene>
							<shottake></shottake>
							<lognote></lognote>
							<good></good>
							<originalvideofilename></originalvideofilename>
							<originalaudiofilename></originalaudiofilename>
						</logginginfo>
						<colorinfo>
							<lut></lut>
							<lut1></lut1>
							<asc_sop></asc_sop>
							<asc_sat></asc_sat>
							<lut2></lut2>
						</colorinfo>
						<labels>
							<label2>Violet</label2>
						</labels>
					</clip>
					<clip id="masterclip-14" explodedTracks="true">
						<uuid>bf6d719c-86cc-49bd-be35-57a25db5e856</uuid>
						<masterclipid>masterclip-14</masterclipid>
						<ismasterclip>TRUE</ismasterclip>
						<duration>3935</duration>
						<rate>
							<timebase>25</timebase>
							<ntsc>FALSE</ntsc>
						</rate>
						<name>(Timelab Pro)_Kamchatka. The Winter Surf Challenge_329118492_VI.mp4</name>
						<media>
							<video>
								<track>
									<clipitem id="clipitem-30">
										<masterclipid>masterclip-14</masterclipid>
										<name>(Timelab Pro)_Kamchatka. The Winter Surf Challenge_329118492_VI.mp4</name>
										<rate>
											<timebase>25</timebase>
											<ntsc>FALSE</ntsc>
										</rate>
										<alphatype>none</alphatype>
										<pixelaspectratio>square</pixelaspectratio>
										<anamorphic>FALSE</anamorphic>
										<file id="file-14">
											<name>(Timelab Pro)_Kamchatka. The Winter Surf Challenge_329118492_VI.mp4</name>
											<pathurl>file://localhost/Volumes/Charlie's%20Extra%20Space%20/1_Alpine%20TV_Projects%20/Alpine_TV_09.12.2023/3_Raw%20Footage%20/(Timelab%20Pro)_Kamchatka.%20The%20Winter%20Surf%20Challenge_329118492_VI.mp4</pathurl>
											<rate>
												<timebase>25</timebase>
												<ntsc>FALSE</ntsc>
											</rate>
											<duration>3935</duration>
											<timecode>
												<rate>
													<timebase>25</timebase>
													<ntsc>FALSE</ntsc>
												</rate>
												<string>00:00:00:00</string>
												<frame>0</frame>
												<displayformat>NDF</displayformat>
											</timecode>
											<media>
												<video>
													<samplecharacteristics>
														<rate>
															<timebase>25</timebase>
															<ntsc>FALSE</ntsc>
														</rate>
														<width>1356</width>
														<height>720</height>
														<anamorphic>FALSE</anamorphic>
														<pixelaspectratio>square</pixelaspectratio>
														<fielddominance>none</fielddominance>
													</samplecharacteristics>
												</video>
												<audio>
													<samplecharacteristics>
														<depth>16</depth>
														<samplerate>48000</samplerate>
													</samplecharacteristics>
													<channelcount>2</channelcount>
												</audio>
											</media>
										</file>
										<link>
											<linkclipref>clipitem-30</linkclipref>
											<mediatype>video</mediatype>
											<trackindex>1</trackindex>
											<clipindex>1</clipindex>
										</link>
										<link>
											<linkclipref>clipitem-31</linkclipref>
											<mediatype>audio</mediatype>
											<trackindex>1</trackindex>
											<clipindex>1</clipindex>
											<groupindex>1</groupindex>
										</link>
										<link>
											<linkclipref>clipitem-32</linkclipref>
											<mediatype>audio</mediatype>
											<trackindex>2</trackindex>
											<clipindex>1</clipindex>
											<groupindex>1</groupindex>
										</link>
									</clipitem>
								</track>
							</video>
							<audio>
								<track>
									<clipitem id="clipitem-31">
										<masterclipid>masterclip-14</masterclipid>
										<name>(Timelab Pro)_Kamchatka. The Winter Surf Challenge_329118492_VI.mp4</name>
										<rate>
											<timebase>25</timebase>
											<ntsc>FALSE</ntsc>
										</rate>
										<file id="file-14"/>
										<sourcetrack>
											<mediatype>audio</mediatype>
											<trackindex>1</trackindex>
										</sourcetrack>
										<link>
											<linkclipref>clipitem-30</linkclipref>
											<mediatype>video</mediatype>
											<trackindex>1</trackindex>
											<clipindex>1</clipindex>
										</link>
										<link>
											<linkclipref>clipitem-31</linkclipref>
											<mediatype>audio</mediatype>
											<trackindex>1</trackindex>
											<clipindex>1</clipindex>
											<groupindex>1</groupindex>
										</link>
										<link>
											<linkclipref>clipitem-32</linkclipref>
											<mediatype>audio</mediatype>
											<trackindex>2</trackindex>
											<clipindex>1</clipindex>
											<groupindex>1</groupindex>
										</link>
									</clipitem>
								</track>
								<track>
									<clipitem id="clipitem-32">
										<masterclipid>masterclip-14</masterclipid>
										<name>(Timelab Pro)_Kamchatka. The Winter Surf Challenge_329118492_VI.mp4</name>
										<rate>
											<timebase>25</timebase>
											<ntsc>FALSE</ntsc>
										</rate>
										<file id="file-14"/>
										<sourcetrack>
											<mediatype>audio</mediatype>
											<trackindex>2</trackindex>
										</sourcetrack>
										<link>
											<linkclipref>clipitem-30</linkclipref>
											<mediatype>video</mediatype>
											<trackindex>1</trackindex>
											<clipindex>1</clipindex>
										</link>
										<link>
											<linkclipref>clipitem-31</linkclipref>
											<mediatype>audio</mediatype>
											<trackindex>1</trackindex>
											<clipindex>1</clipindex>
											<groupindex>1</groupindex>
										</link>
										<link>
											<linkclipref>clipitem-32</linkclipref>
											<mediatype>audio</mediatype>
											<trackindex>2</trackindex>
											<clipindex>1</clipindex>
											<groupindex>1</groupindex>
										</link>
									</clipitem>
								</track>
							</audio>
						</media>
						<logginginfo>
							<description></description>
							<scene></scene>
							<shottake></shottake>
							<lognote></lognote>
							<good></good>
							<originalvideofilename></originalvideofilename>
							<originalaudiofilename></originalaudiofilename>
						</logginginfo>
						<colorinfo>
							<lut></lut>
							<lut1></lut1>
							<asc_sop></asc_sop>
							<asc_sat></asc_sat>
							<lut2></lut2>
						</colorinfo>
						<labels>
							<label2>Iris</label2>
						</labels>
					</clip>
					<clip id="masterclip-15" explodedTracks="true">
						<uuid>e4aa61be-f55a-4c09-b55a-6660157e73dd</uuid>
						<masterclipid>masterclip-15</masterclipid>
						<ismasterclip>TRUE</ismasterclip>
						<duration>144</duration>
						<rate>
							<timebase>25</timebase>
							<ntsc>FALSE</ntsc>
						</rate>
						<name>136111_Sun shining through the trees on a man with a guitar on his back_By_Thomas_Gellert_Artlist_HD.mp4</name>
						<media>
							<video>
								<track>
									<clipitem id="clipitem-33">
										<masterclipid>masterclip-15</masterclipid>
										<name>136111_Sun shining through the trees on a man with a guitar on his back_By_Thomas_Gellert_Artlist_HD.mp4</name>
										<rate>
											<timebase>25</timebase>
											<ntsc>FALSE</ntsc>
										</rate>
										<alphatype>none</alphatype>
										<pixelaspectratio>HD-(1440x1080)</pixelaspectratio>
										<anamorphic>FALSE</anamorphic>
										<file id="file-15">
											<name>136111_Sun shining through the trees on a man with a guitar on his back_By_Thomas_Gellert_Artlist_HD.mp4</name>
											<pathurl>file://localhost/Users/charlesraygibbsjr./Downloads/136111_Sun%20shining%20through%20the%20trees%20on%20a%20man%20with%20a%20guitar%20on%20his%20back_By_Thomas_Gellert_Artlist_HD.mp4</pathurl>
											<rate>
												<timebase>25</timebase>
												<ntsc>FALSE</ntsc>
											</rate>
											<duration>144</duration>
											<timecode>
												<rate>
													<timebase>25</timebase>
													<ntsc>FALSE</ntsc>
												</rate>
												<string>18:55:37:01</string>
												<frame>1703426</frame>
												<displayformat>NDF</displayformat>
											</timecode>
											<media>
												<video>
													<samplecharacteristics>
														<rate>
															<timebase>25</timebase>
															<ntsc>FALSE</ntsc>
														</rate>
														<width>1920</width>
														<height>1080</height>
														<anamorphic>FALSE</anamorphic>
														<pixelaspectratio>HD-(1440x1080)</pixelaspectratio>
														<fielddominance>none</fielddominance>
													</samplecharacteristics>
												</video>
											</media>
										</file>
									</clipitem>
								</track>
							</video>
						</media>
						<logginginfo>
							<description></description>
							<scene></scene>
							<shottake></shottake>
							<lognote></lognote>
							<good></good>
							<originalvideofilename></originalvideofilename>
							<originalaudiofilename></originalaudiofilename>
						</logginginfo>
						<colorinfo>
							<lut></lut>
							<lut1></lut1>
							<asc_sop></asc_sop>
							<asc_sat></asc_sat>
							<lut2></lut2>
						</colorinfo>
						<labels>
							<label2>Violet</label2>
						</labels>
					</clip>
					<clip id="masterclip-16" explodedTracks="true">
						<uuid>90982185-7f4a-45a7-864d-680b5f3683bb</uuid>
						<masterclipid>masterclip-16</masterclipid>
						<ismasterclip>TRUE</ismasterclip>
						<duration>142</duration>
						<rate>
							<timebase>25</timebase>
							<ntsc>FALSE</ntsc>
						</rate>
						<name>136137_Man playing music on a guitar  outside_By_Thomas_Gellert_Artlist_HD.mp4</name>
						<media>
							<video>
								<track>
									<clipitem id="clipitem-34">
										<masterclipid>masterclip-16</masterclipid>
										<name>136137_Man playing music on a guitar  outside_By_Thomas_Gellert_Artlist_HD.mp4</name>
										<rate>
											<timebase>25</timebase>
											<ntsc>FALSE</ntsc>
										</rate>
										<alphatype>none</alphatype>
										<pixelaspectratio>HD-(1440x1080)</pixelaspectratio>
										<anamorphic>FALSE</anamorphic>
										<file id="file-16">
											<name>136137_Man playing music on a guitar  outside_By_Thomas_Gellert_Artlist_HD.mp4</name>
											<pathurl>file://localhost/Users/charlesraygibbsjr./Downloads/136137_Man%20playing%20music%20on%20a%20guitar%c2%a0%20outside_By_Thomas_Gellert_Artlist_HD.mp4</pathurl>
											<rate>
												<timebase>25</timebase>
												<ntsc>FALSE</ntsc>
											</rate>
											<duration>142</duration>
											<timecode>
												<rate>
													<timebase>25</timebase>
													<ntsc>FALSE</ntsc>
												</rate>
												<string>19:08:43:09</string>
												<frame>1723084</frame>
												<displayformat>NDF</displayformat>
											</timecode>
											<media>
												<video>
													<samplecharacteristics>
														<rate>
															<timebase>25</timebase>
															<ntsc>FALSE</ntsc>
														</rate>
														<width>1920</width>
														<height>1080</height>
														<anamorphic>FALSE</anamorphic>
														<pixelaspectratio>HD-(1440x1080)</pixelaspectratio>
														<fielddominance>none</fielddominance>
													</samplecharacteristics>
												</video>
											</media>
										</file>
									</clipitem>
								</track>
							</video>
						</media>
						<logginginfo>
							<description></description>
							<scene></scene>
							<shottake></shottake>
							<lognote></lognote>
							<good></good>
							<originalvideofilename></originalvideofilename>
							<originalaudiofilename></originalaudiofilename>
						</logginginfo>
						<colorinfo>
							<lut></lut>
							<lut1></lut1>
							<asc_sop></asc_sop>
							<asc_sat></asc_sat>
							<lut2></lut2>
						</colorinfo>
						<labels>
							<label2>Violet</label2>
						</labels>
					</clip>
					<clip id="masterclip-17" explodedTracks="true">
						<uuid>e667eb02-1191-4576-a68f-592f68254bad</uuid>
						<masterclipid>masterclip-17</masterclipid>
						<ismasterclip>TRUE</ismasterclip>
						<duration>224</duration>
						<rate>
							<timebase>25</timebase>
							<ntsc>FALSE</ntsc>
						</rate>
						<name>136382_Man walking by trees in a thick forest while carrying a guitar _By_Thomas_Gellert_Artlist_HD.mp4</name>
						<media>
							<video>
								<track>
									<clipitem id="clipitem-35">
										<masterclipid>masterclip-17</masterclipid>
										<name>136382_Man walking by trees in a thick forest while carrying a guitar _By_Thomas_Gellert_Artlist_HD.mp4</name>
										<rate>
											<timebase>25</timebase>
											<ntsc>FALSE</ntsc>
										</rate>
										<alphatype>none</alphatype>
										<pixelaspectratio>HD-(1440x1080)</pixelaspectratio>
										<anamorphic>FALSE</anamorphic>
										<file id="file-17">
											<name>136382_Man walking by trees in a thick forest while carrying a guitar _By_Thomas_Gellert_Artlist_HD.mp4</name>
											<pathurl>file://localhost/Users/charlesraygibbsjr./Downloads/136382_Man%20walking%20by%20trees%20in%20a%20thick%20forest%20while%20carrying%20a%20guitar%c2%a0_By_Thomas_Gellert_Artlist_HD.mp4</pathurl>
											<rate>
												<timebase>25</timebase>
												<ntsc>FALSE</ntsc>
											</rate>
											<duration>224</duration>
											<timecode>
												<rate>
													<timebase>25</timebase>
													<ntsc>FALSE</ntsc>
												</rate>
												<string>19:48:23:06</string>
												<frame>1782581</frame>
												<displayformat>NDF</displayformat>
											</timecode>
											<media>
												<video>
													<samplecharacteristics>
														<rate>
															<timebase>25</timebase>
															<ntsc>FALSE</ntsc>
														</rate>
														<width>1920</width>
														<height>1080</height>
														<anamorphic>FALSE</anamorphic>
														<pixelaspectratio>HD-(1440x1080)</pixelaspectratio>
														<fielddominance>none</fielddominance>
													</samplecharacteristics>
												</video>
											</media>
										</file>
									</clipitem>
								</track>
							</video>
						</media>
						<logginginfo>
							<description></description>
							<scene></scene>
							<shottake></shottake>
							<lognote></lognote>
							<good></good>
							<originalvideofilename></originalvideofilename>
							<originalaudiofilename></originalaudiofilename>
						</logginginfo>
						<colorinfo>
							<lut></lut>
							<lut1></lut1>
							<asc_sop></asc_sop>
							<asc_sat></asc_sat>
							<lut2></lut2>
						</colorinfo>
						<labels>
							<label2>Violet</label2>
						</labels>
					</clip>
					<clip id="masterclip-18" explodedTracks="true">
						<uuid>4e09c731-0727-4103-96b8-dd4a87dca1cc</uuid>
						<masterclipid>masterclip-18</masterclipid>
						<ismasterclip>TRUE</ismasterclip>
						<duration>240</duration>
						<rate>
							<timebase>25</timebase>
							<ntsc>FALSE</ntsc>
						</rate>
						<name>441783_Dog Snow Terrier Mountains_By_Luca_Amhofer_Artlist_HD.mp4</name>
						<media>
							<video>
								<track>
									<clipitem id="clipitem-36">
										<masterclipid>masterclip-18</masterclipid>
										<name>441783_Dog Snow Terrier Mountains_By_Luca_Amhofer_Artlist_HD.mp4</name>
										<rate>
											<timebase>25</timebase>
											<ntsc>FALSE</ntsc>
										</rate>
										<alphatype>none</alphatype>
										<pixelaspectratio>square</pixelaspectratio>
										<anamorphic>FALSE</anamorphic>
										<file id="file-18">
											<name>441783_Dog Snow Terrier Mountains_By_Luca_Amhofer_Artlist_HD.mp4</name>
											<pathurl>file://localhost/Volumes/Charlie's%20Extra%20Space%20/1_Alpine%20TV_Projects%20/Alpine_TV_09.12.2023/3_Raw%20Footage%20/441783_Dog%20Snow%20Terrier%20Mountains_By_Luca_Amhofer_Artlist_HD.mp4</pathurl>
											<rate>
												<timebase>25</timebase>
												<ntsc>FALSE</ntsc>
											</rate>
											<duration>240</duration>
											<timecode>
												<rate>
													<timebase>25</timebase>
													<ntsc>FALSE</ntsc>
												</rate>
												<string>00:36:54:13</string>
												<frame>55363</frame>
												<displayformat>NDF</displayformat>
											</timecode>
											<media>
												<video>
													<samplecharacteristics>
														<rate>
															<timebase>25</timebase>
															<ntsc>FALSE</ntsc>
														</rate>
														<width>1920</width>
														<height>1080</height>
														<anamorphic>FALSE</anamorphic>
														<pixelaspectratio>square</pixelaspectratio>
														<fielddominance>none</fielddominance>
													</samplecharacteristics>
												</video>
											</media>
										</file>
									</clipitem>
								</track>
							</video>
						</media>
						<logginginfo>
							<description></description>
							<scene></scene>
							<shottake></shottake>
							<lognote></lognote>
							<good></good>
							<originalvideofilename></originalvideofilename>
							<originalaudiofilename></originalaudiofilename>
						</logginginfo>
						<colorinfo>
							<lut></lut>
							<lut1></lut1>
							<asc_sop></asc_sop>
							<asc_sat></asc_sat>
							<lut2></lut2>
						</colorinfo>
						<labels>
							<label2>Violet</label2>
						</labels>
					</clip>
					<clip id="masterclip-19" explodedTracks="true">
						<uuid>ed69e047-e6e1-4c26-820c-387733ec7913</uuid>
						<masterclipid>masterclip-19</masterclipid>
						<ismasterclip>TRUE</ismasterclip>
						<duration>356</duration>
						<rate>
							<timebase>25</timebase>
							<ntsc>FALSE</ntsc>
						</rate>
						<name>441802_Dog Hut Winter Snow_By_Luca_Amhofer_Artlist_HD.mp4</name>
						<media>
							<video>
								<track>
									<clipitem id="clipitem-37">
										<masterclipid>masterclip-19</masterclipid>
										<name>441802_Dog Hut Winter Snow_By_Luca_Amhofer_Artlist_HD.mp4</name>
										<rate>
											<timebase>25</timebase>
											<ntsc>FALSE</ntsc>
										</rate>
										<alphatype>none</alphatype>
										<pixelaspectratio>square</pixelaspectratio>
										<anamorphic>FALSE</anamorphic>
										<file id="file-19">
											<name>441802_Dog Hut Winter Snow_By_Luca_Amhofer_Artlist_HD.mp4</name>
											<pathurl>file://localhost/Volumes/Charlie's%20Extra%20Space%20/1_Alpine%20TV_Projects%20/Alpine_TV_09.12.2023/3_Raw%20Footage%20/441802_Dog%20Hut%20Winter%20Snow_By_Luca_Amhofer_Artlist_HD.mp4</pathurl>
											<rate>
												<timebase>25</timebase>
												<ntsc>FALSE</ntsc>
											</rate>
											<duration>356</duration>
											<timecode>
												<rate>
													<timebase>25</timebase>
													<ntsc>FALSE</ntsc>
												</rate>
												<string>00:58:37:04</string>
												<frame>87929</frame>
												<displayformat>NDF</displayformat>
											</timecode>
											<media>
												<video>
													<samplecharacteristics>
														<rate>
															<timebase>25</timebase>
															<ntsc>FALSE</ntsc>
														</rate>
														<width>1920</width>
														<height>1080</height>
														<anamorphic>FALSE</anamorphic>
														<pixelaspectratio>square</pixelaspectratio>
														<fielddominance>none</fielddominance>
													</samplecharacteristics>
												</video>
											</media>
										</file>
									</clipitem>
								</track>
							</video>
						</media>
						<logginginfo>
							<description></description>
							<scene></scene>
							<shottake></shottake>
							<lognote></lognote>
							<good></good>
							<originalvideofilename></originalvideofilename>
							<originalaudiofilename></originalaudiofilename>
						</logginginfo>
						<colorinfo>
							<lut></lut>
							<lut1></lut1>
							<asc_sop></asc_sop>
							<asc_sat></asc_sat>
							<lut2></lut2>
						</colorinfo>
						<labels>
							<label2>Violet</label2>
						</labels>
					</clip>
					<clip id="masterclip-20" explodedTracks="true">
						<uuid>c8e22691-1adf-49de-9ff7-9a04a0c40c32</uuid>
						<masterclipid>masterclip-20</masterclipid>
						<ismasterclip>TRUE</ismasterclip>
						<duration>172</duration>
						<rate>
							<timebase>25</timebase>
							<ntsc>FALSE</ntsc>
						</rate>
						<name>539508_Greenland Dog Sledding Snow Men_By_Alpha_Visuals_Artlist_HD.mp4</name>
						<media>
							<video>
								<track>
									<clipitem id="clipitem-38">
										<masterclipid>masterclip-20</masterclipid>
										<name>539508_Greenland Dog Sledding Snow Men_By_Alpha_Visuals_Artlist_HD.mp4</name>
										<rate>
											<timebase>25</timebase>
											<ntsc>FALSE</ntsc>
										</rate>
										<alphatype>none</alphatype>
										<pixelaspectratio>PAL-601</pixelaspectratio>
										<anamorphic>FALSE</anamorphic>
										<file id="file-20">
											<name>539508_Greenland Dog Sledding Snow Men_By_Alpha_Visuals_Artlist_HD.mp4</name>
											<pathurl>file://localhost/Volumes/Charlie's%20Extra%20Space%20/1_Alpine%20TV_Projects%20/Alpine_TV_09.12.2023/3_Raw%20Footage%20/539508_Greenland%20Dog%20Sledding%20Snow%20Men_By_Alpha_Visuals_Artlist_HD.mp4</pathurl>
											<rate>
												<timebase>25</timebase>
												<ntsc>FALSE</ntsc>
											</rate>
											<duration>172</duration>
											<timecode>
												<rate>
													<timebase>25</timebase>
													<ntsc>FALSE</ntsc>
												</rate>
												<string>00:00:07:03</string>
												<frame>178</frame>
												<displayformat>NDF</displayformat>
											</timecode>
											<media>
												<video>
													<samplecharacteristics>
														<rate>
															<timebase>25</timebase>
															<ntsc>FALSE</ntsc>
														</rate>
														<width>1920</width>
														<height>1080</height>
														<anamorphic>FALSE</anamorphic>
														<pixelaspectratio>PAL-601</pixelaspectratio>
														<fielddominance>none</fielddominance>
													</samplecharacteristics>
												</video>
											</media>
										</file>
									</clipitem>
								</track>
							</video>
						</media>
						<logginginfo>
							<description></description>
							<scene></scene>
							<shottake></shottake>
							<lognote></lognote>
							<good></good>
							<originalvideofilename></originalvideofilename>
							<originalaudiofilename></originalaudiofilename>
						</logginginfo>
						<colorinfo>
							<lut></lut>
							<lut1></lut1>
							<asc_sop></asc_sop>
							<asc_sat></asc_sat>
							<lut2></lut2>
						</colorinfo>
						<labels>
							<label2>Violet</label2>
						</labels>
					</clip>
					<clip id="masterclip-21" explodedTracks="true">
						<uuid>0a49571f-3d1d-42d8-82d6-81398e7f61fd</uuid>
						<masterclipid>masterclip-21</masterclipid>
						<ismasterclip>TRUE</ismasterclip>
						<duration>172</duration>
						<rate>
							<timebase>25</timebase>
							<ntsc>FALSE</ntsc>
						</rate>
						<name>539526_Greenland Snow Dog Sledding Sled Dogs_By_Alpha_Visuals_Artlist_HD.mp4</name>
						<media>
							<video>
								<track>
									<clipitem id="clipitem-39">
										<masterclipid>masterclip-21</masterclipid>
										<name>539526_Greenland Snow Dog Sledding Sled Dogs_By_Alpha_Visuals_Artlist_HD.mp4</name>
										<rate>
											<timebase>25</timebase>
											<ntsc>FALSE</ntsc>
										</rate>
										<alphatype>none</alphatype>
										<pixelaspectratio>square</pixelaspectratio>
										<anamorphic>FALSE</anamorphic>
										<file id="file-21">
											<name>539526_Greenland Snow Dog Sledding Sled Dogs_By_Alpha_Visuals_Artlist_HD.mp4</name>
											<pathurl>file://localhost/Volumes/Charlie's%20Extra%20Space%20/1_Alpine%20TV_Projects%20/Alpine_TV_09.12.2023/3_Raw%20Footage%20/539526_Greenland%20Snow%20Dog%20Sledding%20Sled%20Dogs_By_Alpha_Visuals_Artlist_HD.mp4</pathurl>
											<rate>
												<timebase>25</timebase>
												<ntsc>FALSE</ntsc>
											</rate>
											<duration>172</duration>
											<timecode>
												<rate>
													<timebase>25</timebase>
													<ntsc>FALSE</ntsc>
												</rate>
												<string>00:00:22:03</string>
												<frame>553</frame>
												<displayformat>NDF</displayformat>
											</timecode>
											<media>
												<video>
													<samplecharacteristics>
														<rate>
															<timebase>25</timebase>
															<ntsc>FALSE</ntsc>
														</rate>
														<width>1920</width>
														<height>1080</height>
														<anamorphic>FALSE</anamorphic>
														<pixelaspectratio>square</pixelaspectratio>
														<fielddominance>none</fielddominance>
													</samplecharacteristics>
												</video>
											</media>
										</file>
									</clipitem>
								</track>
							</video>
						</media>
						<logginginfo>
							<description></description>
							<scene></scene>
							<shottake></shottake>
							<lognote></lognote>
							<good></good>
							<originalvideofilename></originalvideofilename>
							<originalaudiofilename></originalaudiofilename>
						</logginginfo>
						<colorinfo>
							<lut></lut>
							<lut1></lut1>
							<asc_sop></asc_sop>
							<asc_sat></asc_sat>
							<lut2></lut2>
						</colorinfo>
						<labels>
							<label2>Violet</label2>
						</labels>
					</clip>
					<clip id="masterclip-22" explodedTracks="true">
						<uuid>9c45e727-ae76-4a76-a216-86c7d0a9f2bc</uuid>
						<masterclipid>masterclip-22</masterclipid>
						<ismasterclip>TRUE</ismasterclip>
						<duration>394</duration>
						<rate>
							<timebase>25</timebase>
							<ntsc>FALSE</ntsc>
						</rate>
						<name>539539_Greenland Snow Dog Sledding Sled Dogs_By_Alpha_Visuals_Artlist_HD.mp4</name>
						<media>
							<video>
								<track>
									<clipitem id="clipitem-40">
										<masterclipid>masterclip-22</masterclipid>
										<name>539539_Greenland Snow Dog Sledding Sled Dogs_By_Alpha_Visuals_Artlist_HD.mp4</name>
										<rate>
											<timebase>25</timebase>
											<ntsc>FALSE</ntsc>
										</rate>
										<alphatype>none</alphatype>
										<pixelaspectratio>square</pixelaspectratio>
										<anamorphic>FALSE</anamorphic>
										<file id="file-22">
											<name>539539_Greenland Snow Dog Sledding Sled Dogs_By_Alpha_Visuals_Artlist_HD.mp4</name>
											<pathurl>file://localhost/Volumes/Charlie's%20Extra%20Space%20/1_Alpine%20TV_Projects%20/Alpine_TV_09.12.2023/3_Raw%20Footage%20/539539_Greenland%20Snow%20Dog%20Sledding%20Sled%20Dogs_By_Alpha_Visuals_Artlist_HD.mp4</pathurl>
											<rate>
												<timebase>25</timebase>
												<ntsc>FALSE</ntsc>
											</rate>
											<duration>394</duration>
											<timecode>
												<rate>
													<timebase>25</timebase>
													<ntsc>FALSE</ntsc>
												</rate>
												<string>00:00:04:18</string>
												<frame>118</frame>
												<displayformat>NDF</displayformat>
											</timecode>
											<media>
												<video>
													<samplecharacteristics>
														<rate>
															<timebase>25</timebase>
															<ntsc>FALSE</ntsc>
														</rate>
														<width>1920</width>
														<height>1080</height>
														<anamorphic>FALSE</anamorphic>
														<pixelaspectratio>square</pixelaspectratio>
														<fielddominance>none</fielddominance>
													</samplecharacteristics>
												</video>
											</media>
										</file>
									</clipitem>
								</track>
							</video>
						</media>
						<logginginfo>
							<description></description>
							<scene></scene>
							<shottake></shottake>
							<lognote></lognote>
							<good></good>
							<originalvideofilename></originalvideofilename>
							<originalaudiofilename></originalaudiofilename>
						</logginginfo>
						<colorinfo>
							<lut></lut>
							<lut1></lut1>
							<asc_sop></asc_sop>
							<asc_sat></asc_sat>
							<lut2></lut2>
						</colorinfo>
						<labels>
							<label2>Violet</label2>
						</labels>
					</clip>
					<clip id="masterclip-23" explodedTracks="true">
						<uuid>641d5a7f-6edd-48fe-bb1b-efb6e9e8009b</uuid>
						<masterclipid>masterclip-23</masterclipid>
						<ismasterclip>TRUE</ismasterclip>
						<duration>868</duration>
						<rate>
							<timebase>25</timebase>
							<ntsc>FALSE</ntsc>
						</rate>
						<name>539547_Greenland Snow Dog Sledding Sled Dogs_By_Alpha_Visuals_Artlist_HD.mp4</name>
						<media>
							<video>
								<track>
									<clipitem id="clipitem-41">
										<masterclipid>masterclip-23</masterclipid>
										<name>539547_Greenland Snow Dog Sledding Sled Dogs_By_Alpha_Visuals_Artlist_HD.mp4</name>
										<rate>
											<timebase>25</timebase>
											<ntsc>FALSE</ntsc>
										</rate>
										<alphatype>none</alphatype>
										<pixelaspectratio>square</pixelaspectratio>
										<anamorphic>FALSE</anamorphic>
										<file id="file-23">
											<name>539547_Greenland Snow Dog Sledding Sled Dogs_By_Alpha_Visuals_Artlist_HD.mp4</name>
											<pathurl>file://localhost/Volumes/Charlie's%20Extra%20Space%20/1_Alpine%20TV_Projects%20/Alpine_TV_09.12.2023/3_Raw%20Footage%20/539547_Greenland%20Snow%20Dog%20Sledding%20Sled%20Dogs_By_Alpha_Visuals_Artlist_HD.mp4</pathurl>
											<rate>
												<timebase>25</timebase>
												<ntsc>FALSE</ntsc>
											</rate>
											<duration>868</duration>
											<timecode>
												<rate>
													<timebase>25</timebase>
													<ntsc>FALSE</ntsc>
												</rate>
												<string>00:00:55:13</string>
												<frame>1388</frame>
												<displayformat>NDF</displayformat>
											</timecode>
											<media>
												<video>
													<samplecharacteristics>
														<rate>
															<timebase>25</timebase>
															<ntsc>FALSE</ntsc>
														</rate>
														<width>1920</width>
														<height>1080</height>
														<anamorphic>FALSE</anamorphic>
														<pixelaspectratio>square</pixelaspectratio>
														<fielddominance>none</fielddominance>
													</samplecharacteristics>
												</video>
											</media>
										</file>
									</clipitem>
								</track>
							</video>
						</media>
						<logginginfo>
							<description></description>
							<scene></scene>
							<shottake></shottake>
							<lognote></lognote>
							<good></good>
							<originalvideofilename></originalvideofilename>
							<originalaudiofilename></originalaudiofilename>
						</logginginfo>
						<colorinfo>
							<lut></lut>
							<lut1></lut1>
							<asc_sop></asc_sop>
							<asc_sat></asc_sat>
							<lut2></lut2>
						</colorinfo>
						<labels>
							<label2>Violet</label2>
						</labels>
					</clip>
					<clip id="masterclip-24" explodedTracks="true">
						<uuid>f5dd5eee-de79-4f7d-a6d4-d0408cc73b3f</uuid>
						<masterclipid>masterclip-24</masterclipid>
						<ismasterclip>TRUE</ismasterclip>
						<duration>231</duration>
						<rate>
							<timebase>25</timebase>
							<ntsc>FALSE</ntsc>
						</rate>
						<name>539575_Greenland Snow Dog Sledding Sled Dogs_By_Alpha_Visuals_Artlist_HD.mp4</name>
						<media>
							<video>
								<track>
									<clipitem id="clipitem-42">
										<masterclipid>masterclip-24</masterclipid>
										<name>539575_Greenland Snow Dog Sledding Sled Dogs_By_Alpha_Visuals_Artlist_HD.mp4</name>
										<rate>
											<timebase>25</timebase>
											<ntsc>FALSE</ntsc>
										</rate>
										<alphatype>none</alphatype>
										<pixelaspectratio>square</pixelaspectratio>
										<anamorphic>FALSE</anamorphic>
										<file id="file-24">
											<name>539575_Greenland Snow Dog Sledding Sled Dogs_By_Alpha_Visuals_Artlist_HD.mp4</name>
											<pathurl>file://localhost/Volumes/Charlie's%20Extra%20Space%20/1_Alpine%20TV_Projects%20/Alpine_TV_09.12.2023/3_Raw%20Footage%20/539575_Greenland%20Snow%20Dog%20Sledding%20Sled%20Dogs_By_Alpha_Visuals_Artlist_HD.mp4</pathurl>
											<rate>
												<timebase>25</timebase>
												<ntsc>FALSE</ntsc>
											</rate>
											<duration>231</duration>
											<timecode>
												<rate>
													<timebase>25</timebase>
													<ntsc>FALSE</ntsc>
												</rate>
												<string>00:00:20:05</string>
												<frame>505</frame>
												<displayformat>NDF</displayformat>
											</timecode>
											<media>
												<video>
													<samplecharacteristics>
														<rate>
															<timebase>25</timebase>
															<ntsc>FALSE</ntsc>
														</rate>
														<width>1920</width>
														<height>1080</height>
														<anamorphic>FALSE</anamorphic>
														<pixelaspectratio>square</pixelaspectratio>
														<fielddominance>none</fielddominance>
													</samplecharacteristics>
												</video>
											</media>
										</file>
									</clipitem>
								</track>
							</video>
						</media>
						<logginginfo>
							<description></description>
							<scene></scene>
							<shottake></shottake>
							<lognote></lognote>
							<good></good>
							<originalvideofilename></originalvideofilename>
							<originalaudiofilename></originalaudiofilename>
						</logginginfo>
						<colorinfo>
							<lut></lut>
							<lut1></lut1>
							<asc_sop></asc_sop>
							<asc_sat></asc_sat>
							<lut2></lut2>
						</colorinfo>
						<labels>
							<label2>Violet</label2>
						</labels>
					</clip>
					<clip id="masterclip-25" explodedTracks="true">
						<uuid>5c5e7e04-bd5b-49b7-9e4c-eb65a44fd586</uuid>
						<masterclipid>masterclip-25</masterclipid>
						<ismasterclip>TRUE</ismasterclip>
						<duration>492</duration>
						<rate>
							<timebase>25</timebase>
							<ntsc>FALSE</ntsc>
						</rate>
						<name>568693_Birds Flock Starlings Flying_By_David_Alexander_Jervidal_Artlist_HD.mp4</name>
						<media>
							<video>
								<track>
									<clipitem id="clipitem-43">
										<masterclipid>masterclip-25</masterclipid>
										<name>568693_Birds Flock Starlings Flying_By_David_Alexander_Jervidal_Artlist_HD.mp4</name>
										<rate>
											<timebase>25</timebase>
											<ntsc>FALSE</ntsc>
										</rate>
										<alphatype>none</alphatype>
										<pixelaspectratio>square</pixelaspectratio>
										<anamorphic>FALSE</anamorphic>
										<file id="file-25">
											<name>568693_Birds Flock Starlings Flying_By_David_Alexander_Jervidal_Artlist_HD.mp4</name>
											<pathurl>file://localhost/Users/charlesraygibbsjr./Downloads/568693_Birds%20Flock%20Starlings%20Flying_By_David_Alexander_Jervidal_Artlist_HD.mp4</pathurl>
											<rate>
												<timebase>25</timebase>
												<ntsc>FALSE</ntsc>
											</rate>
											<duration>492</duration>
											<timecode>
												<rate>
													<timebase>25</timebase>
													<ntsc>FALSE</ntsc>
												</rate>
												<string>13:02:40:19</string>
												<frame>1174019</frame>
												<displayformat>NDF</displayformat>
											</timecode>
											<media>
												<video>
													<samplecharacteristics>
														<rate>
															<timebase>25</timebase>
															<ntsc>FALSE</ntsc>
														</rate>
														<width>1920</width>
														<height>1080</height>
														<anamorphic>FALSE</anamorphic>
														<pixelaspectratio>square</pixelaspectratio>
														<fielddominance>none</fielddominance>
													</samplecharacteristics>
												</video>
											</media>
										</file>
									</clipitem>
								</track>
							</video>
						</media>
						<logginginfo>
							<description></description>
							<scene></scene>
							<shottake></shottake>
							<lognote></lognote>
							<good></good>
							<originalvideofilename></originalvideofilename>
							<originalaudiofilename></originalaudiofilename>
						</logginginfo>
						<colorinfo>
							<lut></lut>
							<lut1></lut1>
							<asc_sop></asc_sop>
							<asc_sat></asc_sat>
							<lut2></lut2>
						</colorinfo>
						<labels>
							<label2>Violet</label2>
						</labels>
					</clip>
					<clip id="masterclip-26" explodedTracks="true">
						<uuid>0db00386-aab9-4c09-bf91-fd2b33aa9620</uuid>
						<masterclipid>masterclip-26</masterclipid>
						<ismasterclip>TRUE</ismasterclip>
						<duration>728</duration>
						<rate>
							<timebase>25</timebase>
							<ntsc>FALSE</ntsc>
						</rate>
						<name>568706_Flock Starlings Birds Flying_By_David_Alexander_Jervidal_Artlist_HD.mp4</name>
						<media>
							<video>
								<track>
									<clipitem id="clipitem-44">
										<masterclipid>masterclip-26</masterclipid>
										<name>568706_Flock Starlings Birds Flying_By_David_Alexander_Jervidal_Artlist_HD.mp4</name>
										<rate>
											<timebase>25</timebase>
											<ntsc>FALSE</ntsc>
										</rate>
										<alphatype>none</alphatype>
										<pixelaspectratio>square</pixelaspectratio>
										<anamorphic>FALSE</anamorphic>
										<file id="file-26">
											<name>568706_Flock Starlings Birds Flying_By_David_Alexander_Jervidal_Artlist_HD.mp4</name>
											<pathurl>file://localhost/Users/charlesraygibbsjr./Downloads/568706_Flock%20Starlings%20Birds%20Flying_By_David_Alexander_Jervidal_Artlist_HD.mp4</pathurl>
											<rate>
												<timebase>25</timebase>
												<ntsc>FALSE</ntsc>
											</rate>
											<duration>728</duration>
											<timecode>
												<rate>
													<timebase>25</timebase>
													<ntsc>FALSE</ntsc>
												</rate>
												<string>01:11:43:23</string>
												<frame>107598</frame>
												<displayformat>NDF</displayformat>
											</timecode>
											<media>
												<video>
													<samplecharacteristics>
														<rate>
															<timebase>25</timebase>
															<ntsc>FALSE</ntsc>
														</rate>
														<width>1920</width>
														<height>1080</height>
														<anamorphic>FALSE</anamorphic>
														<pixelaspectratio>square</pixelaspectratio>
														<fielddominance>none</fielddominance>
													</samplecharacteristics>
												</video>
											</media>
										</file>
									</clipitem>
								</track>
							</video>
						</media>
						<logginginfo>
							<description></description>
							<scene></scene>
							<shottake></shottake>
							<lognote></lognote>
							<good></good>
							<originalvideofilename></originalvideofilename>
							<originalaudiofilename></originalaudiofilename>
						</logginginfo>
						<colorinfo>
							<lut></lut>
							<lut1></lut1>
							<asc_sop></asc_sop>
							<asc_sat></asc_sat>
							<lut2></lut2>
						</colorinfo>
						<labels>
							<label2>Violet</label2>
						</labels>
					</clip>
					<clip id="masterclip-27" explodedTracks="true">
						<uuid>29fe7c21-b1e9-41f8-870b-7cf530829966</uuid>
						<masterclipid>masterclip-27</masterclipid>
						<ismasterclip>TRUE</ismasterclip>
						<duration>9674</duration>
						<rate>
							<timebase>30</timebase>
							<ntsc>TRUE</ntsc>
						</rate>
						<name>(Aaron Chase)_DIY Dirt Sk8 PARK _ Build &amp; RIDE!!_-a4V9fnD_NA_YT.mp4</name>
						<media>
							<video>
								<track>
									<clipitem id="clipitem-45">
										<masterclipid>masterclip-27</masterclipid>
										<name>(Aaron Chase)_DIY Dirt Sk8 PARK _ Build &amp; RIDE!!_-a4V9fnD_NA_YT.mp4</name>
										<rate>
											<timebase>30</timebase>
											<ntsc>TRUE</ntsc>
										</rate>
										<alphatype>none</alphatype>
										<pixelaspectratio>square</pixelaspectratio>
										<anamorphic>FALSE</anamorphic>
										<file id="file-27">
											<name>(Aaron Chase)_DIY Dirt Sk8 PARK _ Build &amp; RIDE!!_-a4V9fnD_NA_YT.mp4</name>
											<pathurl>file://localhost/Volumes/Charlie's%20Extra%20Space%20/1_Alpine%20TV_Projects%20/Alpine_TV_09.12.2023/3_Raw%20Footage%20/(Aaron%20Chase)_DIY%20Dirt%20Sk8%20PARK%20_%20Build%20&amp;%20RIDE!!_-a4V9fnD_NA_YT.mp4</pathurl>
											<rate>
												<timebase>30</timebase>
												<ntsc>TRUE</ntsc>
											</rate>
											<duration>9674</duration>
											<timecode>
												<rate>
													<timebase>30</timebase>
													<ntsc>TRUE</ntsc>
												</rate>
												<string>00:00:00:00</string>
												<frame>0</frame>
												<displayformat>NDF</displayformat>
											</timecode>
											<media>
												<video>
													<samplecharacteristics>
														<rate>
															<timebase>30</timebase>
															<ntsc>TRUE</ntsc>
														</rate>
														<width>1920</width>
														<height>1080</height>
														<anamorphic>FALSE</anamorphic>
														<pixelaspectratio>square</pixelaspectratio>
														<fielddominance>none</fielddominance>
													</samplecharacteristics>
												</video>
												<audio>
													<samplecharacteristics>
														<depth>16</depth>
														<samplerate>44100</samplerate>
													</samplecharacteristics>
													<channelcount>2</channelcount>
												</audio>
											</media>
										</file>
										<link>
											<linkclipref>clipitem-45</linkclipref>
											<mediatype>video</mediatype>
											<trackindex>1</trackindex>
											<clipindex>1</clipindex>
										</link>
										<link>
											<linkclipref>clipitem-46</linkclipref>
											<mediatype>audio</mediatype>
											<trackindex>1</trackindex>
											<clipindex>1</clipindex>
											<groupindex>1</groupindex>
										</link>
										<link>
											<linkclipref>clipitem-47</linkclipref>
											<mediatype>audio</mediatype>
											<trackindex>2</trackindex>
											<clipindex>1</clipindex>
											<groupindex>1</groupindex>
										</link>
									</clipitem>
								</track>
							</video>
							<audio>
								<track>
									<clipitem id="clipitem-46">
										<masterclipid>masterclip-27</masterclipid>
										<name>(Aaron Chase)_DIY Dirt Sk8 PARK _ Build &amp; RIDE!!_-a4V9fnD_NA_YT.mp4</name>
										<rate>
											<timebase>30</timebase>
											<ntsc>TRUE</ntsc>
										</rate>
										<file id="file-27"/>
										<sourcetrack>
											<mediatype>audio</mediatype>
											<trackindex>1</trackindex>
										</sourcetrack>
										<link>
											<linkclipref>clipitem-45</linkclipref>
											<mediatype>video</mediatype>
											<trackindex>1</trackindex>
											<clipindex>1</clipindex>
										</link>
										<link>
											<linkclipref>clipitem-46</linkclipref>
											<mediatype>audio</mediatype>
											<trackindex>1</trackindex>
											<clipindex>1</clipindex>
											<groupindex>1</groupindex>
										</link>
										<link>
											<linkclipref>clipitem-47</linkclipref>
											<mediatype>audio</mediatype>
											<trackindex>2</trackindex>
											<clipindex>1</clipindex>
											<groupindex>1</groupindex>
										</link>
									</clipitem>
								</track>
								<track>
									<clipitem id="clipitem-47">
										<masterclipid>masterclip-27</masterclipid>
										<name>(Aaron Chase)_DIY Dirt Sk8 PARK _ Build &amp; RIDE!!_-a4V9fnD_NA_YT.mp4</name>
										<rate>
											<timebase>30</timebase>
											<ntsc>TRUE</ntsc>
										</rate>
										<file id="file-27"/>
										<sourcetrack>
											<mediatype>audio</mediatype>
											<trackindex>2</trackindex>
										</sourcetrack>
										<link>
											<linkclipref>clipitem-45</linkclipref>
											<mediatype>video</mediatype>
											<trackindex>1</trackindex>
											<clipindex>1</clipindex>
										</link>
										<link>
											<linkclipref>clipitem-46</linkclipref>
											<mediatype>audio</mediatype>
											<trackindex>1</trackindex>
											<clipindex>1</clipindex>
											<groupindex>1</groupindex>
										</link>
										<link>
											<linkclipref>clipitem-47</linkclipref>
											<mediatype>audio</mediatype>
											<trackindex>2</trackindex>
											<clipindex>1</clipindex>
											<groupindex>1</groupindex>
										</link>
									</clipitem>
								</track>
							</audio>
						</media>
						<logginginfo>
							<description></description>
							<scene></scene>
							<shottake></shottake>
							<lognote>https://www.youtube.com/watch?v=-a4V9fnD_NA</lognote>
							<good></good>
							<originalvideofilename></originalvideofilename>
							<originalaudiofilename></originalaudiofilename>
						</logginginfo>
						<colorinfo>
							<lut></lut>
							<lut1></lut1>
							<asc_sop></asc_sop>
							<asc_sat></asc_sat>
							<lut2></lut2>
						</colorinfo>
						<labels>
							<label2>Iris</label2>
						</labels>
					</clip>
					<clip id="masterclip-28" explodedTracks="true">
						<uuid>8e682af1-a273-4daa-b158-a3aa869bc541</uuid>
						<masterclipid>masterclip-28</masterclipid>
						<ismasterclip>TRUE</ismasterclip>
						<duration>12128</duration>
						<rate>
							<timebase>30</timebase>
							<ntsc>TRUE</ntsc>
						</rate>
						<name>(Ben Beholz Vlogs)_I Kitesurfed ON ICE_3FuoUtm4vIE_YT.mp4</name>
						<media>
							<video>
								<track>
									<clipitem id="clipitem-48">
										<masterclipid>masterclip-28</masterclipid>
										<name>(Ben Beholz Vlogs)_I Kitesurfed ON ICE_3FuoUtm4vIE_YT.mp4</name>
										<rate>
											<timebase>30</timebase>
											<ntsc>TRUE</ntsc>
										</rate>
										<alphatype>none</alphatype>
										<pixelaspectratio>square</pixelaspectratio>
										<anamorphic>FALSE</anamorphic>
										<file id="file-28">
											<name>(Ben Beholz Vlogs)_I Kitesurfed ON ICE_3FuoUtm4vIE_YT.mp4</name>
											<pathurl>file://localhost/Volumes/Charlie's%20Extra%20Space%20/1_Alpine%20TV_Projects%20/Alpine_TV_09.12.2023/3_Raw%20Footage%20/(Ben%20Beholz%20Vlogs)_I%20Kitesurfed%20ON%20ICE_3FuoUtm4vIE_YT.mp4</pathurl>
											<rate>
												<timebase>30</timebase>
												<ntsc>TRUE</ntsc>
											</rate>
											<duration>12128</duration>
											<timecode>
												<rate>
													<timebase>30</timebase>
													<ntsc>TRUE</ntsc>
												</rate>
												<string>00:00:00:00</string>
												<frame>0</frame>
												<displayformat>NDF</displayformat>
											</timecode>
											<media>
												<video>
													<samplecharacteristics>
														<rate>
															<timebase>30</timebase>
															<ntsc>TRUE</ntsc>
														</rate>
														<width>1920</width>
														<height>1080</height>
														<anamorphic>FALSE</anamorphic>
														<pixelaspectratio>square</pixelaspectratio>
														<fielddominance>none</fielddominance>
													</samplecharacteristics>
												</video>
												<audio>
													<samplecharacteristics>
														<depth>16</depth>
														<samplerate>44100</samplerate>
													</samplecharacteristics>
													<channelcount>2</channelcount>
												</audio>
											</media>
										</file>
										<link>
											<linkclipref>clipitem-48</linkclipref>
											<mediatype>video</mediatype>
											<trackindex>1</trackindex>
											<clipindex>1</clipindex>
										</link>
										<link>
											<linkclipref>clipitem-49</linkclipref>
											<mediatype>audio</mediatype>
											<trackindex>1</trackindex>
											<clipindex>1</clipindex>
											<groupindex>1</groupindex>
										</link>
										<link>
											<linkclipref>clipitem-50</linkclipref>
											<mediatype>audio</mediatype>
											<trackindex>2</trackindex>
											<clipindex>1</clipindex>
											<groupindex>1</groupindex>
										</link>
									</clipitem>
								</track>
							</video>
							<audio>
								<track>
									<clipitem id="clipitem-49">
										<masterclipid>masterclip-28</masterclipid>
										<name>(Ben Beholz Vlogs)_I Kitesurfed ON ICE_3FuoUtm4vIE_YT.mp4</name>
										<rate>
											<timebase>30</timebase>
											<ntsc>TRUE</ntsc>
										</rate>
										<file id="file-28"/>
										<sourcetrack>
											<mediatype>audio</mediatype>
											<trackindex>1</trackindex>
										</sourcetrack>
										<link>
											<linkclipref>clipitem-48</linkclipref>
											<mediatype>video</mediatype>
											<trackindex>1</trackindex>
											<clipindex>1</clipindex>
										</link>
										<link>
											<linkclipref>clipitem-49</linkclipref>
											<mediatype>audio</mediatype>
											<trackindex>1</trackindex>
											<clipindex>1</clipindex>
											<groupindex>1</groupindex>
										</link>
										<link>
											<linkclipref>clipitem-50</linkclipref>
											<mediatype>audio</mediatype>
											<trackindex>2</trackindex>
											<clipindex>1</clipindex>
											<groupindex>1</groupindex>
										</link>
									</clipitem>
								</track>
								<track>
									<clipitem id="clipitem-50">
										<masterclipid>masterclip-28</masterclipid>
										<name>(Ben Beholz Vlogs)_I Kitesurfed ON ICE_3FuoUtm4vIE_YT.mp4</name>
										<rate>
											<timebase>30</timebase>
											<ntsc>TRUE</ntsc>
										</rate>
										<file id="file-28"/>
										<sourcetrack>
											<mediatype>audio</mediatype>
											<trackindex>2</trackindex>
										</sourcetrack>
										<link>
											<linkclipref>clipitem-48</linkclipref>
											<mediatype>video</mediatype>
											<trackindex>1</trackindex>
											<clipindex>1</clipindex>
										</link>
										<link>
											<linkclipref>clipitem-49</linkclipref>
											<mediatype>audio</mediatype>
											<trackindex>1</trackindex>
											<clipindex>1</clipindex>
											<groupindex>1</groupindex>
										</link>
										<link>
											<linkclipref>clipitem-50</linkclipref>
											<mediatype>audio</mediatype>
											<trackindex>2</trackindex>
											<clipindex>1</clipindex>
											<groupindex>1</groupindex>
										</link>
									</clipitem>
								</track>
							</audio>
						</media>
						<logginginfo>
							<description></description>
							<scene></scene>
							<shottake></shottake>
							<lognote>https://www.youtube.com/watch?v=3FuoUtm4vIE</lognote>
							<good></good>
							<originalvideofilename></originalvideofilename>
							<originalaudiofilename></originalaudiofilename>
						</logginginfo>
						<colorinfo>
							<lut></lut>
							<lut1></lut1>
							<asc_sop></asc_sop>
							<asc_sat></asc_sat>
							<lut2></lut2>
						</colorinfo>
						<labels>
							<label2>Iris</label2>
						</labels>
					</clip>
					<clip id="masterclip-29" explodedTracks="true">
						<uuid>05e66002-a011-43da-bcc4-84565b4724f8</uuid>
						<masterclipid>masterclip-29</masterclipid>
						<ismasterclip>TRUE</ismasterclip>
						<duration>7745</duration>
						<rate>
							<timebase>30</timebase>
							<ntsc>TRUE</ntsc>
						</rate>
						<name>(Ben Beholz Vlogs)_Self ICEolation - FREISTIEL SERIES_DylgLBBj6eM_YT.mp4</name>
						<media>
							<video>
								<track>
									<clipitem id="clipitem-51">
										<masterclipid>masterclip-29</masterclipid>
										<name>(Ben Beholz Vlogs)_Self ICEolation - FREISTIEL SERIES_DylgLBBj6eM_YT.mp4</name>
										<rate>
											<timebase>30</timebase>
											<ntsc>TRUE</ntsc>
										</rate>
										<alphatype>none</alphatype>
										<pixelaspectratio>square</pixelaspectratio>
										<anamorphic>FALSE</anamorphic>
										<file id="file-29">
											<name>(Ben Beholz Vlogs)_Self ICEolation - FREISTIEL SERIES_DylgLBBj6eM_YT.mp4</name>
											<pathurl>file://localhost/Volumes/Charlie's%20Extra%20Space%20/1_Alpine%20TV_Projects%20/Alpine_TV_09.12.2023/3_Raw%20Footage%20/(Ben%20Beholz%20Vlogs)_Self%20ICEolation%20-%20FREISTIEL%20SERIES_DylgLBBj6eM_YT.mp4</pathurl>
											<rate>
												<timebase>30</timebase>
												<ntsc>TRUE</ntsc>
											</rate>
											<duration>7745</duration>
											<timecode>
												<rate>
													<timebase>30</timebase>
													<ntsc>TRUE</ntsc>
												</rate>
												<string>00:00:00:00</string>
												<frame>0</frame>
												<displayformat>NDF</displayformat>
											</timecode>
											<media>
												<video>
													<samplecharacteristics>
														<rate>
															<timebase>30</timebase>
															<ntsc>TRUE</ntsc>
														</rate>
														<width>1920</width>
														<height>1080</height>
														<anamorphic>FALSE</anamorphic>
														<pixelaspectratio>square</pixelaspectratio>
														<fielddominance>none</fielddominance>
													</samplecharacteristics>
												</video>
												<audio>
													<samplecharacteristics>
														<depth>16</depth>
														<samplerate>44100</samplerate>
													</samplecharacteristics>
													<channelcount>2</channelcount>
												</audio>
											</media>
										</file>
										<link>
											<linkclipref>clipitem-51</linkclipref>
											<mediatype>video</mediatype>
											<trackindex>1</trackindex>
											<clipindex>1</clipindex>
										</link>
										<link>
											<linkclipref>clipitem-52</linkclipref>
											<mediatype>audio</mediatype>
											<trackindex>1</trackindex>
											<clipindex>1</clipindex>
											<groupindex>1</groupindex>
										</link>
										<link>
											<linkclipref>clipitem-53</linkclipref>
											<mediatype>audio</mediatype>
											<trackindex>2</trackindex>
											<clipindex>1</clipindex>
											<groupindex>1</groupindex>
										</link>
									</clipitem>
								</track>
							</video>
							<audio>
								<track>
									<clipitem id="clipitem-52">
										<masterclipid>masterclip-29</masterclipid>
										<name>(Ben Beholz Vlogs)_Self ICEolation - FREISTIEL SERIES_DylgLBBj6eM_YT.mp4</name>
										<rate>
											<timebase>30</timebase>
											<ntsc>TRUE</ntsc>
										</rate>
										<file id="file-29"/>
										<sourcetrack>
											<mediatype>audio</mediatype>
											<trackindex>1</trackindex>
										</sourcetrack>
										<link>
											<linkclipref>clipitem-51</linkclipref>
											<mediatype>video</mediatype>
											<trackindex>1</trackindex>
											<clipindex>1</clipindex>
										</link>
										<link>
											<linkclipref>clipitem-52</linkclipref>
											<mediatype>audio</mediatype>
											<trackindex>1</trackindex>
											<clipindex>1</clipindex>
											<groupindex>1</groupindex>
										</link>
										<link>
											<linkclipref>clipitem-53</linkclipref>
											<mediatype>audio</mediatype>
											<trackindex>2</trackindex>
											<clipindex>1</clipindex>
											<groupindex>1</groupindex>
										</link>
									</clipitem>
								</track>
								<track>
									<clipitem id="clipitem-53">
										<masterclipid>masterclip-29</masterclipid>
										<name>(Ben Beholz Vlogs)_Self ICEolation - FREISTIEL SERIES_DylgLBBj6eM_YT.mp4</name>
										<rate>
											<timebase>30</timebase>
											<ntsc>TRUE</ntsc>
										</rate>
										<file id="file-29"/>
										<sourcetrack>
											<mediatype>audio</mediatype>
											<trackindex>2</trackindex>
										</sourcetrack>
										<link>
											<linkclipref>clipitem-51</linkclipref>
											<mediatype>video</mediatype>
											<trackindex>1</trackindex>
											<clipindex>1</clipindex>
										</link>
										<link>
											<linkclipref>clipitem-52</linkclipref>
											<mediatype>audio</mediatype>
											<trackindex>1</trackindex>
											<clipindex>1</clipindex>
											<groupindex>1</groupindex>
										</link>
										<link>
											<linkclipref>clipitem-53</linkclipref>
											<mediatype>audio</mediatype>
											<trackindex>2</trackindex>
											<clipindex>1</clipindex>
											<groupindex>1</groupindex>
										</link>
									</clipitem>
								</track>
							</audio>
						</media>
						<logginginfo>
							<description></description>
							<scene></scene>
							<shottake></shottake>
							<lognote>https://www.youtube.com/watch?v=DylgLBBj6eM</lognote>
							<good></good>
							<originalvideofilename></originalvideofilename>
							<originalaudiofilename></originalaudiofilename>
						</logginginfo>
						<colorinfo>
							<lut></lut>
							<lut1></lut1>
							<asc_sop></asc_sop>
							<asc_sat></asc_sat>
							<lut2></lut2>
						</colorinfo>
						<labels>
							<label2>Iris</label2>
						</labels>
					</clip>
					<clip id="masterclip-30" explodedTracks="true">
						<uuid>3dd47423-0924-45f1-8292-4ffe097a804b</uuid>
						<masterclipid>masterclip-30</masterclipid>
						<ismasterclip>TRUE</ismasterclip>
						<duration>3640</duration>
						<rate>
							<timebase>30</timebase>
							<ntsc>TRUE</ntsc>
						</rate>
						<name>(bizio FPV)_ICE RIDERS Episode II - FPV Drone X WING and KITE Ice Skating on Frozen Lake_xbIGPHmgZVE_YT.mp4</name>
						<media>
							<video>
								<track>
									<clipitem id="clipitem-54">
										<masterclipid>masterclip-30</masterclipid>
										<name>(bizio FPV)_ICE RIDERS Episode II - FPV Drone X WING and KITE Ice Skating on Frozen Lake_xbIGPHmgZVE_YT.mp4</name>
										<rate>
											<timebase>30</timebase>
											<ntsc>TRUE</ntsc>
										</rate>
										<alphatype>none</alphatype>
										<pixelaspectratio>square</pixelaspectratio>
										<anamorphic>FALSE</anamorphic>
										<file id="file-30">
											<name>(bizio FPV)_ICE RIDERS Episode II - FPV Drone X WING and KITE Ice Skating on Frozen Lake_xbIGPHmgZVE_YT.mp4</name>
											<pathurl>file://localhost/Volumes/Charlie's%20Extra%20Space%20/1_Alpine%20TV_Projects%20/Alpine_TV_09.12.2023/3_Raw%20Footage%20/(bizio%20FPV)_ICE%20RIDERS%20Episode%20II%20-%20FPV%20Drone%20X%20WING%20and%20KITE%20Ice%20Skating%20on%20Frozen%20Lake_xbIGPHmgZVE_YT.mp4</pathurl>
											<rate>
												<timebase>30</timebase>
												<ntsc>TRUE</ntsc>
											</rate>
											<duration>3640</duration>
											<timecode>
												<rate>
													<timebase>30</timebase>
													<ntsc>TRUE</ntsc>
												</rate>
												<string>00:00:00:00</string>
												<frame>0</frame>
												<displayformat>NDF</displayformat>
											</timecode>
											<media>
												<video>
													<samplecharacteristics>
														<rate>
															<timebase>30</timebase>
															<ntsc>TRUE</ntsc>
														</rate>
														<width>1920</width>
														<height>1080</height>
														<anamorphic>FALSE</anamorphic>
														<pixelaspectratio>square</pixelaspectratio>
														<fielddominance>none</fielddominance>
													</samplecharacteristics>
												</video>
												<audio>
													<samplecharacteristics>
														<depth>16</depth>
														<samplerate>44100</samplerate>
													</samplecharacteristics>
													<channelcount>2</channelcount>
												</audio>
											</media>
										</file>
										<link>
											<linkclipref>clipitem-54</linkclipref>
											<mediatype>video</mediatype>
											<trackindex>1</trackindex>
											<clipindex>1</clipindex>
										</link>
										<link>
											<linkclipref>clipitem-55</linkclipref>
											<mediatype>audio</mediatype>
											<trackindex>1</trackindex>
											<clipindex>1</clipindex>
											<groupindex>1</groupindex>
										</link>
										<link>
											<linkclipref>clipitem-56</linkclipref>
											<mediatype>audio</mediatype>
											<trackindex>2</trackindex>
											<clipindex>1</clipindex>
											<groupindex>1</groupindex>
										</link>
									</clipitem>
								</track>
							</video>
							<audio>
								<track>
									<clipitem id="clipitem-55">
										<masterclipid>masterclip-30</masterclipid>
										<name>(bizio FPV)_ICE RIDERS Episode II - FPV Drone X WING and KITE Ice Skating on Frozen Lake_xbIGPHmgZVE_YT.mp4</name>
										<rate>
											<timebase>30</timebase>
											<ntsc>TRUE</ntsc>
										</rate>
										<file id="file-30"/>
										<sourcetrack>
											<mediatype>audio</mediatype>
											<trackindex>1</trackindex>
										</sourcetrack>
										<link>
											<linkclipref>clipitem-54</linkclipref>
											<mediatype>video</mediatype>
											<trackindex>1</trackindex>
											<clipindex>1</clipindex>
										</link>
										<link>
											<linkclipref>clipitem-55</linkclipref>
											<mediatype>audio</mediatype>
											<trackindex>1</trackindex>
											<clipindex>1</clipindex>
											<groupindex>1</groupindex>
										</link>
										<link>
											<linkclipref>clipitem-56</linkclipref>
											<mediatype>audio</mediatype>
											<trackindex>2</trackindex>
											<clipindex>1</clipindex>
											<groupindex>1</groupindex>
										</link>
									</clipitem>
								</track>
								<track>
									<clipitem id="clipitem-56">
										<masterclipid>masterclip-30</masterclipid>
										<name>(bizio FPV)_ICE RIDERS Episode II - FPV Drone X WING and KITE Ice Skating on Frozen Lake_xbIGPHmgZVE_YT.mp4</name>
										<rate>
											<timebase>30</timebase>
											<ntsc>TRUE</ntsc>
										</rate>
										<file id="file-30"/>
										<sourcetrack>
											<mediatype>audio</mediatype>
											<trackindex>2</trackindex>
										</sourcetrack>
										<link>
											<linkclipref>clipitem-54</linkclipref>
											<mediatype>video</mediatype>
											<trackindex>1</trackindex>
											<clipindex>1</clipindex>
										</link>
										<link>
											<linkclipref>clipitem-55</linkclipref>
											<mediatype>audio</mediatype>
											<trackindex>1</trackindex>
											<clipindex>1</clipindex>
											<groupindex>1</groupindex>
										</link>
										<link>
											<linkclipref>clipitem-56</linkclipref>
											<mediatype>audio</mediatype>
											<trackindex>2</trackindex>
											<clipindex>1</clipindex>
											<groupindex>1</groupindex>
										</link>
									</clipitem>
								</track>
							</audio>
						</media>
						<logginginfo>
							<description></description>
							<scene></scene>
							<shottake></shottake>
							<lognote>https://www.youtube.com/watch?v=xbIGPHmgZVE</lognote>
							<good></good>
							<originalvideofilename></originalvideofilename>
							<originalaudiofilename></originalaudiofilename>
						</logginginfo>
						<colorinfo>
							<lut></lut>
							<lut1></lut1>
							<asc_sop></asc_sop>
							<asc_sat></asc_sat>
							<lut2></lut2>
						</colorinfo>
						<labels>
							<label2>Iris</label2>
						</labels>
					</clip>
					<clip id="masterclip-31" explodedTracks="true">
						<uuid>e9e8880c-c24e-4a96-871f-286c8d7e84c2</uuid>
						<masterclipid>masterclip-31</masterclipid>
						<ismasterclip>TRUE</ismasterclip>
						<duration>121</duration>
						<rate>
							<timebase>30</timebase>
							<ntsc>TRUE</ntsc>
						</rate>
						<name>503102_Lake Forest Alps Italy_By_ZoneCreative_Artlist_HD.mp4</name>
						<media>
							<video>
								<track>
									<clipitem id="clipitem-57">
										<masterclipid>masterclip-31</masterclipid>
										<name>503102_Lake Forest Alps Italy_By_ZoneCreative_Artlist_HD.mp4</name>
										<rate>
											<timebase>30</timebase>
											<ntsc>TRUE</ntsc>
										</rate>
										<alphatype>none</alphatype>
										<pixelaspectratio>square</pixelaspectratio>
										<anamorphic>FALSE</anamorphic>
										<file id="file-31">
											<name>503102_Lake Forest Alps Italy_By_ZoneCreative_Artlist_HD.mp4</name>
											<pathurl>file://localhost/Users/charlesraygibbsjr./Downloads/503102_Lake%20Forest%20Alps%20Italy_By_ZoneCreative_Artlist_HD.mp4</pathurl>
											<rate>
												<timebase>30</timebase>
												<ntsc>TRUE</ntsc>
											</rate>
											<duration>121</duration>
											<timecode>
												<rate>
													<timebase>30</timebase>
													<ntsc>TRUE</ntsc>
												</rate>
												<string>00:00:06:28</string>
												<frame>208</frame>
												<displayformat>NDF</displayformat>
											</timecode>
											<media>
												<video>
													<samplecharacteristics>
														<rate>
															<timebase>30</timebase>
															<ntsc>TRUE</ntsc>
														</rate>
														<width>1920</width>
														<height>1080</height>
														<anamorphic>FALSE</anamorphic>
														<pixelaspectratio>square</pixelaspectratio>
														<fielddominance>none</fielddominance>
													</samplecharacteristics>
												</video>
											</media>
										</file>
									</clipitem>
								</track>
							</video>
						</media>
						<logginginfo>
							<description></description>
							<scene></scene>
							<shottake></shottake>
							<lognote></lognote>
							<good></good>
							<originalvideofilename></originalvideofilename>
							<originalaudiofilename></originalaudiofilename>
						</logginginfo>
						<colorinfo>
							<lut></lut>
							<lut1></lut1>
							<asc_sop></asc_sop>
							<asc_sat></asc_sat>
							<lut2></lut2>
						</colorinfo>
						<labels>
							<label2>Violet</label2>
						</labels>
					</clip>
					<clip id="masterclip-32" explodedTracks="true">
						<uuid>f907c3fd-a67d-4713-b972-96ec3f215028</uuid>
						<masterclipid>masterclip-32</masterclipid>
						<ismasterclip>TRUE</ismasterclip>
						<duration>850</duration>
						<rate>
							<timebase>30</timebase>
							<ntsc>TRUE</ntsc>
						</rate>
						<name>563331_Trees Forest Snow Falling_By_Animedias_Artlist_HD.mp4</name>
						<media>
							<video>
								<track>
									<clipitem id="clipitem-58">
										<masterclipid>masterclip-32</masterclipid>
										<name>563331_Trees Forest Snow Falling_By_Animedias_Artlist_HD.mp4</name>
										<rate>
											<timebase>30</timebase>
											<ntsc>TRUE</ntsc>
										</rate>
										<alphatype>none</alphatype>
										<pixelaspectratio>PAL-601</pixelaspectratio>
										<anamorphic>FALSE</anamorphic>
										<file id="file-32">
											<name>563331_Trees Forest Snow Falling_By_Animedias_Artlist_HD.mp4</name>
											<pathurl>file://localhost/Volumes/Charlie's%20Extra%20Space%20/1_Alpine%20TV_Projects%20/Alpine_TV_09.12.2023/3_Raw%20Footage%20/563331_Trees%20Forest%20Snow%20Falling_By_Animedias_Artlist_HD.mp4</pathurl>
											<rate>
												<timebase>30</timebase>
												<ntsc>TRUE</ntsc>
											</rate>
											<duration>850</duration>
											<timecode>
												<rate>
													<timebase>30</timebase>
													<ntsc>TRUE</ntsc>
												</rate>
												<string>00:21:53:02</string>
												<frame>39392</frame>
												<displayformat>NDF</displayformat>
											</timecode>
											<media>
												<video>
													<samplecharacteristics>
														<rate>
															<timebase>30</timebase>
															<ntsc>TRUE</ntsc>
														</rate>
														<width>1920</width>
														<height>1080</height>
														<anamorphic>FALSE</anamorphic>
														<pixelaspectratio>PAL-601</pixelaspectratio>
														<fielddominance>none</fielddominance>
													</samplecharacteristics>
												</video>
											</media>
										</file>
									</clipitem>
								</track>
							</video>
						</media>
						<logginginfo>
							<description></description>
							<scene></scene>
							<shottake></shottake>
							<lognote></lognote>
							<good></good>
							<originalvideofilename></originalvideofilename>
							<originalaudiofilename></originalaudiofilename>
						</logginginfo>
						<colorinfo>
							<lut></lut>
							<lut1></lut1>
							<asc_sop></asc_sop>
							<asc_sat></asc_sat>
							<lut2></lut2>
						</colorinfo>
						<labels>
							<label2>Violet</label2>
						</labels>
					</clip>
					<clip id="masterclip-33" explodedTracks="true">
						<uuid>1bce4f02-cada-4ccb-a966-c61ad2ed9427</uuid>
						<masterclipid>masterclip-33</masterclipid>
						<ismasterclip>TRUE</ismasterclip>
						<duration>576</duration>
						<rate>
							<timebase>30</timebase>
							<ntsc>TRUE</ntsc>
						</rate>
						<name>568198_Lake Bridge Mountains Scenic_By_Animedias_Artlist_HD.mp4</name>
						<media>
							<video>
								<track>
									<clipitem id="clipitem-59">
										<masterclipid>masterclip-33</masterclipid>
										<name>568198_Lake Bridge Mountains Scenic_By_Animedias_Artlist_HD.mp4</name>
										<rate>
											<timebase>30</timebase>
											<ntsc>TRUE</ntsc>
										</rate>
										<alphatype>none</alphatype>
										<pixelaspectratio>square</pixelaspectratio>
										<anamorphic>FALSE</anamorphic>
										<file id="file-33">
											<name>568198_Lake Bridge Mountains Scenic_By_Animedias_Artlist_HD.mp4</name>
											<pathurl>file://localhost/Users/charlesraygibbsjr./Downloads/568198_Lake%20Bridge%20Mountains%20Scenic_By_Animedias_Artlist_HD.mp4</pathurl>
											<rate>
												<timebase>30</timebase>
												<ntsc>TRUE</ntsc>
											</rate>
											<duration>576</duration>
											<timecode>
												<rate>
													<timebase>30</timebase>
													<ntsc>TRUE</ntsc>
												</rate>
												<string>00:29:32:17</string>
												<frame>53177</frame>
												<displayformat>NDF</displayformat>
											</timecode>
											<media>
												<video>
													<samplecharacteristics>
														<rate>
															<timebase>30</timebase>
															<ntsc>TRUE</ntsc>
														</rate>
														<width>1920</width>
														<height>1080</height>
														<anamorphic>FALSE</anamorphic>
														<pixelaspectratio>square</pixelaspectratio>
														<fielddominance>none</fielddominance>
													</samplecharacteristics>
												</video>
											</media>
										</file>
									</clipitem>
								</track>
							</video>
						</media>
						<logginginfo>
							<description></description>
							<scene></scene>
							<shottake></shottake>
							<lognote></lognote>
							<good></good>
							<originalvideofilename></originalvideofilename>
							<originalaudiofilename></originalaudiofilename>
						</logginginfo>
						<colorinfo>
							<lut></lut>
							<lut1></lut1>
							<asc_sop></asc_sop>
							<asc_sat></asc_sat>
							<lut2></lut2>
						</colorinfo>
						<labels>
							<label2>Violet</label2>
						</labels>
					</clip>
					<clip id="masterclip-34" explodedTracks="true">
						<uuid>a90fb462-4e24-49cf-a055-04fe862a7b28</uuid>
						<masterclipid>masterclip-34</masterclipid>
						<ismasterclip>TRUE</ismasterclip>
						<duration>4945</duration>
						<rate>
							<timebase>60</timebase>
							<ntsc>FALSE</ntsc>
						</rate>
						<name>(The Pollard Family)_It snowed in Texas!!!_rOzNjkJuWU0_YT.mp4</name>
						<media>
							<video>
								<track>
									<clipitem id="clipitem-60">
										<masterclipid>masterclip-34</masterclipid>
										<name>(The Pollard Family)_It snowed in Texas!!!_rOzNjkJuWU0_YT.mp4</name>
										<rate>
											<timebase>60</timebase>
											<ntsc>FALSE</ntsc>
										</rate>
										<alphatype>none</alphatype>
										<pixelaspectratio>square</pixelaspectratio>
										<anamorphic>FALSE</anamorphic>
										<file id="file-34">
											<name>(The Pollard Family)_It snowed in Texas!!!_rOzNjkJuWU0_YT.mp4</name>
											<pathurl>file://localhost/Volumes/Charlie's%20Extra%20Space%20/1_Alpine%20TV_Projects%20/Alpine_TV_09.12.2023/3_Raw%20Footage%20/(The%20Pollard%20Family)_It%20snowed%20in%20Texas!!!_rOzNjkJuWU0_YT.mp4</pathurl>
											<rate>
												<timebase>60</timebase>
												<ntsc>FALSE</ntsc>
											</rate>
											<duration>4945</duration>
											<timecode>
												<rate>
													<timebase>60</timebase>
													<ntsc>FALSE</ntsc>
												</rate>
												<string>00:00:00:00</string>
												<frame>0</frame>
												<displayformat>NDF</displayformat>
											</timecode>
											<media>
												<video>
													<samplecharacteristics>
														<rate>
															<timebase>60</timebase>
															<ntsc>FALSE</ntsc>
														</rate>
														<width>1920</width>
														<height>1080</height>
														<anamorphic>FALSE</anamorphic>
														<pixelaspectratio>square</pixelaspectratio>
														<fielddominance>none</fielddominance>
													</samplecharacteristics>
												</video>
												<audio>
													<samplecharacteristics>
														<depth>16</depth>
														<samplerate>44100</samplerate>
													</samplecharacteristics>
													<channelcount>2</channelcount>
												</audio>
											</media>
										</file>
										<link>
											<linkclipref>clipitem-60</linkclipref>
											<mediatype>video</mediatype>
											<trackindex>1</trackindex>
											<clipindex>1</clipindex>
										</link>
										<link>
											<linkclipref>clipitem-61</linkclipref>
											<mediatype>audio</mediatype>
											<trackindex>1</trackindex>
											<clipindex>1</clipindex>
											<groupindex>1</groupindex>
										</link>
										<link>
											<linkclipref>clipitem-62</linkclipref>
											<mediatype>audio</mediatype>
											<trackindex>2</trackindex>
											<clipindex>1</clipindex>
											<groupindex>1</groupindex>
										</link>
									</clipitem>
								</track>
							</video>
							<audio>
								<track>
									<clipitem id="clipitem-61">
										<masterclipid>masterclip-34</masterclipid>
										<name>(The Pollard Family)_It snowed in Texas!!!_rOzNjkJuWU0_YT.mp4</name>
										<rate>
											<timebase>60</timebase>
											<ntsc>FALSE</ntsc>
										</rate>
										<file id="file-34"/>
										<sourcetrack>
											<mediatype>audio</mediatype>
											<trackindex>1</trackindex>
										</sourcetrack>
										<link>
											<linkclipref>clipitem-60</linkclipref>
											<mediatype>video</mediatype>
											<trackindex>1</trackindex>
											<clipindex>1</clipindex>
										</link>
										<link>
											<linkclipref>clipitem-61</linkclipref>
											<mediatype>audio</mediatype>
											<trackindex>1</trackindex>
											<clipindex>1</clipindex>
											<groupindex>1</groupindex>
										</link>
										<link>
											<linkclipref>clipitem-62</linkclipref>
											<mediatype>audio</mediatype>
											<trackindex>2</trackindex>
											<clipindex>1</clipindex>
											<groupindex>1</groupindex>
										</link>
									</clipitem>
								</track>
								<track>
									<clipitem id="clipitem-62">
										<masterclipid>masterclip-34</masterclipid>
										<name>(The Pollard Family)_It snowed in Texas!!!_rOzNjkJuWU0_YT.mp4</name>
										<rate>
											<timebase>60</timebase>
											<ntsc>FALSE</ntsc>
										</rate>
										<file id="file-34"/>
										<sourcetrack>
											<mediatype>audio</mediatype>
											<trackindex>2</trackindex>
										</sourcetrack>
										<link>
											<linkclipref>clipitem-60</linkclipref>
											<mediatype>video</mediatype>
											<trackindex>1</trackindex>
											<clipindex>1</clipindex>
										</link>
										<link>
											<linkclipref>clipitem-61</linkclipref>
											<mediatype>audio</mediatype>
											<trackindex>1</trackindex>
											<clipindex>1</clipindex>
											<groupindex>1</groupindex>
										</link>
										<link>
											<linkclipref>clipitem-62</linkclipref>
											<mediatype>audio</mediatype>
											<trackindex>2</trackindex>
											<clipindex>1</clipindex>
											<groupindex>1</groupindex>
										</link>
									</clipitem>
								</track>
							</audio>
						</media>
						<logginginfo>
							<description></description>
							<scene></scene>
							<shottake></shottake>
							<lognote>https://www.youtube.com/watch?v=rOzNjkJuWU0</lognote>
							<good></good>
							<originalvideofilename></originalvideofilename>
							<originalaudiofilename></originalaudiofilename>
						</logginginfo>
						<colorinfo>
							<lut></lut>
							<lut1></lut1>
							<asc_sop></asc_sop>
							<asc_sat></asc_sat>
							<lut2></lut2>
						</colorinfo>
						<labels>
							<label2>Iris</label2>
						</labels>
					</clip>
					<clip id="masterclip-35" explodedTracks="true">
						<uuid>69e45a11-ce1f-47f8-97be-4fc92d5160ce</uuid>
						<masterclipid>masterclip-35</masterclipid>
						<ismasterclip>TRUE</ismasterclip>
						<duration>10260</duration>
						<rate>
							<timebase>59</timebase>
							<ntsc>FALSE</ntsc>
						</rate>
						<name>(Dane Jackson)_DANE JACKSON 2022 HIGHLIGHT REEL_FQCoECFY548_YT.mp4</name>
						<media>
							<video>
								<track>
									<clipitem id="clipitem-63">
										<masterclipid>masterclip-35</masterclipid>
										<name>(Dane Jackson)_DANE JACKSON 2022 HIGHLIGHT REEL_FQCoECFY548_YT.mp4</name>
										<rate>
											<timebase>59</timebase>
											<ntsc>FALSE</ntsc>
										</rate>
										<alphatype>none</alphatype>
										<pixelaspectratio>square</pixelaspectratio>
										<anamorphic>FALSE</anamorphic>
										<file id="file-35">
											<name>(Dane Jackson)_DANE JACKSON 2022 HIGHLIGHT REEL_FQCoECFY548_YT.mp4</name>
											<pathurl>file://localhost/Volumes/Charlie's%20Extra%20Space%20/1_Alpine%20TV_Projects%20/Alpine_TV_09.12.2023/3_Raw%20Footage%20/(Dane%20Jackson)_DANE%20JACKSON%202022%20HIGHLIGHT%20REEL_FQCoECFY548_YT.mp4</pathurl>
											<rate>
												<timebase>59</timebase>
												<ntsc>FALSE</ntsc>
											</rate>
											<duration>10260</duration>
											<timecode>
												<rate>
													<timebase>59</timebase>
													<ntsc>FALSE</ntsc>
												</rate>
												<string>00:00:00:00</string>
												<frame>0</frame>
												<displayformat>NDF</displayformat>
											</timecode>
											<media>
												<video>
													<samplecharacteristics>
														<rate>
															<timebase>59</timebase>
															<ntsc>FALSE</ntsc>
														</rate>
														<width>1920</width>
														<height>1080</height>
														<anamorphic>FALSE</anamorphic>
														<pixelaspectratio>square</pixelaspectratio>
														<fielddominance>none</fielddominance>
													</samplecharacteristics>
												</video>
												<audio>
													<samplecharacteristics>
														<depth>16</depth>
														<samplerate>44100</samplerate>
													</samplecharacteristics>
													<channelcount>2</channelcount>
												</audio>
											</media>
										</file>
										<link>
											<linkclipref>clipitem-63</linkclipref>
											<mediatype>video</mediatype>
											<trackindex>1</trackindex>
											<clipindex>1</clipindex>
										</link>
										<link>
											<linkclipref>clipitem-64</linkclipref>
											<mediatype>audio</mediatype>
											<trackindex>1</trackindex>
											<clipindex>1</clipindex>
											<groupindex>1</groupindex>
										</link>
										<link>
											<linkclipref>clipitem-65</linkclipref>
											<mediatype>audio</mediatype>
											<trackindex>2</trackindex>
											<clipindex>1</clipindex>
											<groupindex>1</groupindex>
										</link>
									</clipitem>
								</track>
							</video>
							<audio>
								<track>
									<clipitem id="clipitem-64">
										<masterclipid>masterclip-35</masterclipid>
										<name>(Dane Jackson)_DANE JACKSON 2022 HIGHLIGHT REEL_FQCoECFY548_YT.mp4</name>
										<rate>
											<timebase>59</timebase>
											<ntsc>FALSE</ntsc>
										</rate>
										<file id="file-35"/>
										<sourcetrack>
											<mediatype>audio</mediatype>
											<trackindex>1</trackindex>
										</sourcetrack>
										<link>
											<linkclipref>clipitem-63</linkclipref>
											<mediatype>video</mediatype>
											<trackindex>1</trackindex>
											<clipindex>1</clipindex>
										</link>
										<link>
											<linkclipref>clipitem-64</linkclipref>
											<mediatype>audio</mediatype>
											<trackindex>1</trackindex>
											<clipindex>1</clipindex>
											<groupindex>1</groupindex>
										</link>
										<link>
											<linkclipref>clipitem-65</linkclipref>
											<mediatype>audio</mediatype>
											<trackindex>2</trackindex>
											<clipindex>1</clipindex>
											<groupindex>1</groupindex>
										</link>
									</clipitem>
								</track>
								<track>
									<clipitem id="clipitem-65">
										<masterclipid>masterclip-35</masterclipid>
										<name>(Dane Jackson)_DANE JACKSON 2022 HIGHLIGHT REEL_FQCoECFY548_YT.mp4</name>
										<rate>
											<timebase>59</timebase>
											<ntsc>FALSE</ntsc>
										</rate>
										<file id="file-35"/>
										<sourcetrack>
											<mediatype>audio</mediatype>
											<trackindex>2</trackindex>
										</sourcetrack>
										<link>
											<linkclipref>clipitem-63</linkclipref>
											<mediatype>video</mediatype>
											<trackindex>1</trackindex>
											<clipindex>1</clipindex>
										</link>
										<link>
											<linkclipref>clipitem-64</linkclipref>
											<mediatype>audio</mediatype>
											<trackindex>1</trackindex>
											<clipindex>1</clipindex>
											<groupindex>1</groupindex>
										</link>
										<link>
											<linkclipref>clipitem-65</linkclipref>
											<mediatype>audio</mediatype>
											<trackindex>2</trackindex>
											<clipindex>1</clipindex>
											<groupindex>1</groupindex>
										</link>
									</clipitem>
								</track>
							</audio>
						</media>
						<logginginfo>
							<description></description>
							<scene></scene>
							<shottake></shottake>
							<lognote>https://www.youtube.com/watch?v=FQCoECFY548</lognote>
							<good></good>
							<originalvideofilename></originalvideofilename>
							<originalaudiofilename></originalaudiofilename>
						</logginginfo>
						<colorinfo>
							<lut></lut>
							<lut1></lut1>
							<asc_sop></asc_sop>
							<asc_sat></asc_sat>
							<lut2></lut2>
						</colorinfo>
						<labels>
							<label2>Iris</label2>
						</labels>
					</clip>
					<clip id="masterclip-36" explodedTracks="true">
						<uuid>6605272b-4077-4e3c-a059-8e9dc98a0287</uuid>
						<masterclipid>masterclip-36</masterclipid>
						<ismasterclip>TRUE</ismasterclip>
						<duration>58474</duration>
						<rate>
							<timebase>60</timebase>
							<ntsc>TRUE</ntsc>
						</rate>
						<name>(Dane Jackson)__Epic!!_ _ GREEN RACE 2022_zhPxinQkgE8_YT.mp4</name>
						<media>
							<video>
								<track>
									<clipitem id="clipitem-66">
										<masterclipid>masterclip-36</masterclipid>
										<name>(Dane Jackson)__Epic!!_ _ GREEN RACE 2022_zhPxinQkgE8_YT.mp4</name>
										<rate>
											<timebase>60</timebase>
											<ntsc>TRUE</ntsc>
										</rate>
										<alphatype>none</alphatype>
										<pixelaspectratio>square</pixelaspectratio>
										<anamorphic>FALSE</anamorphic>
										<file id="file-36">
											<name>(Dane Jackson)__Epic!!_ _ GREEN RACE 2022_zhPxinQkgE8_YT.mp4</name>
											<pathurl>file://localhost/Volumes/Charlie's%20Extra%20Space%20/1_Alpine%20TV_Projects%20/Alpine_TV_09.12.2023/3_Raw%20Footage%20/(Dane%20Jackson)__Epic!!_%20_%20GREEN%20RACE%202022_zhPxinQkgE8_YT.mp4</pathurl>
											<rate>
												<timebase>60</timebase>
												<ntsc>TRUE</ntsc>
											</rate>
											<duration>58474</duration>
											<timecode>
												<rate>
													<timebase>60</timebase>
													<ntsc>TRUE</ntsc>
												</rate>
												<string>00:00:00:00</string>
												<frame>0</frame>
												<displayformat>NDF</displayformat>
											</timecode>
											<media>
												<video>
													<samplecharacteristics>
														<rate>
															<timebase>60</timebase>
															<ntsc>TRUE</ntsc>
														</rate>
														<width>1920</width>
														<height>1080</height>
														<anamorphic>FALSE</anamorphic>
														<pixelaspectratio>square</pixelaspectratio>
														<fielddominance>none</fielddominance>
													</samplecharacteristics>
												</video>
												<audio>
													<samplecharacteristics>
														<depth>16</depth>
														<samplerate>44100</samplerate>
													</samplecharacteristics>
													<channelcount>2</channelcount>
												</audio>
											</media>
										</file>
										<link>
											<linkclipref>clipitem-66</linkclipref>
											<mediatype>video</mediatype>
											<trackindex>1</trackindex>
											<clipindex>1</clipindex>
										</link>
										<link>
											<linkclipref>clipitem-67</linkclipref>
											<mediatype>audio</mediatype>
											<trackindex>1</trackindex>
											<clipindex>1</clipindex>
											<groupindex>1</groupindex>
										</link>
										<link>
											<linkclipref>clipitem-68</linkclipref>
											<mediatype>audio</mediatype>
											<trackindex>2</trackindex>
											<clipindex>1</clipindex>
											<groupindex>1</groupindex>
										</link>
									</clipitem>
								</track>
							</video>
							<audio>
								<track>
									<clipitem id="clipitem-67">
										<masterclipid>masterclip-36</masterclipid>
										<name>(Dane Jackson)__Epic!!_ _ GREEN RACE 2022_zhPxinQkgE8_YT.mp4</name>
										<rate>
											<timebase>60</timebase>
											<ntsc>TRUE</ntsc>
										</rate>
										<file id="file-36"/>
										<sourcetrack>
											<mediatype>audio</mediatype>
											<trackindex>1</trackindex>
										</sourcetrack>
										<link>
											<linkclipref>clipitem-66</linkclipref>
											<mediatype>video</mediatype>
											<trackindex>1</trackindex>
											<clipindex>1</clipindex>
										</link>
										<link>
											<linkclipref>clipitem-67</linkclipref>
											<mediatype>audio</mediatype>
											<trackindex>1</trackindex>
											<clipindex>1</clipindex>
											<groupindex>1</groupindex>
										</link>
										<link>
											<linkclipref>clipitem-68</linkclipref>
											<mediatype>audio</mediatype>
											<trackindex>2</trackindex>
											<clipindex>1</clipindex>
											<groupindex>1</groupindex>
										</link>
									</clipitem>
								</track>
								<track>
									<clipitem id="clipitem-68">
										<masterclipid>masterclip-36</masterclipid>
										<name>(Dane Jackson)__Epic!!_ _ GREEN RACE 2022_zhPxinQkgE8_YT.mp4</name>
										<rate>
											<timebase>60</timebase>
											<ntsc>TRUE</ntsc>
										</rate>
										<file id="file-36"/>
										<sourcetrack>
											<mediatype>audio</mediatype>
											<trackindex>2</trackindex>
										</sourcetrack>
										<link>
											<linkclipref>clipitem-66</linkclipref>
											<mediatype>video</mediatype>
											<trackindex>1</trackindex>
											<clipindex>1</clipindex>
										</link>
										<link>
											<linkclipref>clipitem-67</linkclipref>
											<mediatype>audio</mediatype>
											<trackindex>1</trackindex>
											<clipindex>1</clipindex>
											<groupindex>1</groupindex>
										</link>
										<link>
											<linkclipref>clipitem-68</linkclipref>
											<mediatype>audio</mediatype>
											<trackindex>2</trackindex>
											<clipindex>1</clipindex>
											<groupindex>1</groupindex>
										</link>
									</clipitem>
								</track>
							</audio>
						</media>
						<logginginfo>
							<description></description>
							<scene></scene>
							<shottake></shottake>
							<lognote>https://www.youtube.com/watch?v=zhPxinQkgE8</lognote>
							<good></good>
							<originalvideofilename></originalvideofilename>
							<originalaudiofilename></originalaudiofilename>
						</logginginfo>
						<colorinfo>
							<lut></lut>
							<lut1></lut1>
							<asc_sop></asc_sop>
							<asc_sat></asc_sat>
							<lut2></lut2>
						</colorinfo>
						<labels>
							<label2>Iris</label2>
						</labels>
					</clip>
					<clip id="masterclip-37" explodedTracks="true">
						<uuid>a55d8918-e7d8-437d-b4ab-61a015777596</uuid>
						<masterclipid>masterclip-37</masterclipid>
						<ismasterclip>TRUE</ismasterclip>
						<duration>790</duration>
						<rate>
							<timebase>30</timebase>
							<ntsc>FALSE</ntsc>
						</rate>
						<name>Video by connortrimble.mp4</name>
						<media>
							<video>
								<track>
									<clipitem id="clipitem-69">
										<masterclipid>masterclip-37</masterclipid>
										<name>Video by connortrimble.mp4</name>
										<rate>
											<timebase>30</timebase>
											<ntsc>FALSE</ntsc>
										</rate>
										<alphatype>none</alphatype>
										<pixelaspectratio>square</pixelaspectratio>
										<anamorphic>FALSE</anamorphic>
										<file id="file-37">
											<name>(@connortrimble)_CdWupPdPnlN_IG.mp4</name>
											<pathurl>file://localhost/Volumes/Charlie's%20Extra%20Space%20/1_Alpine%20TV_Projects%20/Alpine_TV_09.12.2023/3_Raw%20Footage%20/(@connortrimble)_CdWupPdPnlN_IG.mp4</pathurl>
											<rate>
												<timebase>30</timebase>
												<ntsc>FALSE</ntsc>
											</rate>
											<duration>790</duration>
											<timecode>
												<rate>
													<timebase>30</timebase>
													<ntsc>FALSE</ntsc>
												</rate>
												<string>00:00:00:00</string>
												<frame>0</frame>
												<displayformat>NDF</displayformat>
											</timecode>
											<media>
												<video>
													<samplecharacteristics>
														<rate>
															<timebase>30</timebase>
															<ntsc>FALSE</ntsc>
														</rate>
														<width>720</width>
														<height>1280</height>
														<anamorphic>FALSE</anamorphic>
														<pixelaspectratio>square</pixelaspectratio>
														<fielddominance>none</fielddominance>
													</samplecharacteristics>
												</video>
												<audio>
													<samplecharacteristics>
														<depth>16</depth>
														<samplerate>44100</samplerate>
													</samplecharacteristics>
													<channelcount>2</channelcount>
												</audio>
											</media>
										</file>
										<link>
											<linkclipref>clipitem-69</linkclipref>
											<mediatype>video</mediatype>
											<trackindex>1</trackindex>
											<clipindex>1</clipindex>
										</link>
										<link>
											<linkclipref>clipitem-70</linkclipref>
											<mediatype>audio</mediatype>
											<trackindex>1</trackindex>
											<clipindex>1</clipindex>
											<groupindex>1</groupindex>
										</link>
										<link>
											<linkclipref>clipitem-71</linkclipref>
											<mediatype>audio</mediatype>
											<trackindex>2</trackindex>
											<clipindex>1</clipindex>
											<groupindex>1</groupindex>
										</link>
									</clipitem>
								</track>
							</video>
							<audio>
								<track>
									<clipitem id="clipitem-70">
										<masterclipid>masterclip-37</masterclipid>
										<name>Video by connortrimble.mp4</name>
										<rate>
											<timebase>30</timebase>
											<ntsc>FALSE</ntsc>
										</rate>
										<file id="file-37"/>
										<sourcetrack>
											<mediatype>audio</mediatype>
											<trackindex>1</trackindex>
										</sourcetrack>
										<link>
											<linkclipref>clipitem-69</linkclipref>
											<mediatype>video</mediatype>
											<trackindex>1</trackindex>
											<clipindex>1</clipindex>
										</link>
										<link>
											<linkclipref>clipitem-70</linkclipref>
											<mediatype>audio</mediatype>
											<trackindex>1</trackindex>
											<clipindex>1</clipindex>
											<groupindex>1</groupindex>
										</link>
										<link>
											<linkclipref>clipitem-71</linkclipref>
											<mediatype>audio</mediatype>
											<trackindex>2</trackindex>
											<clipindex>1</clipindex>
											<groupindex>1</groupindex>
										</link>
									</clipitem>
								</track>
								<track>
									<clipitem id="clipitem-71">
										<masterclipid>masterclip-37</masterclipid>
										<name>Video by connortrimble.mp4</name>
										<rate>
											<timebase>30</timebase>
											<ntsc>FALSE</ntsc>
										</rate>
										<file id="file-37"/>
										<sourcetrack>
											<mediatype>audio</mediatype>
											<trackindex>2</trackindex>
										</sourcetrack>
										<link>
											<linkclipref>clipitem-69</linkclipref>
											<mediatype>video</mediatype>
											<trackindex>1</trackindex>
											<clipindex>1</clipindex>
										</link>
										<link>
											<linkclipref>clipitem-70</linkclipref>
											<mediatype>audio</mediatype>
											<trackindex>1</trackindex>
											<clipindex>1</clipindex>
											<groupindex>1</groupindex>
										</link>
										<link>
											<linkclipref>clipitem-71</linkclipref>
											<mediatype>audio</mediatype>
											<trackindex>2</trackindex>
											<clipindex>1</clipindex>
											<groupindex>1</groupindex>
										</link>
									</clipitem>
								</track>
							</audio>
						</media>
						<logginginfo>
							<description></description>
							<scene></scene>
							<shottake></shottake>
							<lognote></lognote>
							<good></good>
							<originalvideofilename></originalvideofilename>
							<originalaudiofilename></originalaudiofilename>
						</logginginfo>
						<colorinfo>
							<lut></lut>
							<lut1></lut1>
							<asc_sop></asc_sop>
							<asc_sat></asc_sat>
							<lut2></lut2>
						</colorinfo>
						<labels>
							<label2>Iris</label2>
						</labels>
					</clip>
					<clip id="masterclip-38" explodedTracks="true">
						<uuid>a49285d1-6f96-4257-b86b-ce8a29b3410c</uuid>
						<masterclipid>masterclip-38</masterclipid>
						<ismasterclip>TRUE</ismasterclip>
						<duration>4650</duration>
						<rate>
							<timebase>30</timebase>
							<ntsc>FALSE</ntsc>
						</rate>
						<name>(Dennis Schmelz)_DJI Avata Camping Trip - The FPV Game Changer Drone_YKXeG9sbFRw_YT.mp4</name>
						<media>
							<video>
								<track>
									<clipitem id="clipitem-72">
										<masterclipid>masterclip-38</masterclipid>
										<name>(Dennis Schmelz)_DJI Avata Camping Trip - The FPV Game Changer Drone_YKXeG9sbFRw_YT.mp4</name>
										<rate>
											<timebase>30</timebase>
											<ntsc>FALSE</ntsc>
										</rate>
										<alphatype>none</alphatype>
										<pixelaspectratio>square</pixelaspectratio>
										<anamorphic>FALSE</anamorphic>
										<file id="file-38">
											<name>(Dennis Schmelz)_DJI Avata Camping Trip - The FPV Game Changer Drone_YKXeG9sbFRw_YT.mp4</name>
											<pathurl>file://localhost/Volumes/Charlie's%20Extra%20Space%20/1_Alpine%20TV_Projects%20/Alpine_TV_09.12.2023/3_Raw%20Footage%20/(Dennis%20Schmelz)_DJI%20Avata%20Camping%20Trip%20-%20The%20FPV%20Game%20Changer%20Drone_YKXeG9sbFRw_YT.mp4</pathurl>
											<rate>
												<timebase>30</timebase>
												<ntsc>FALSE</ntsc>
											</rate>
											<duration>4650</duration>
											<timecode>
												<rate>
													<timebase>30</timebase>
													<ntsc>FALSE</ntsc>
												</rate>
												<string>00:00:00:00</string>
												<frame>0</frame>
												<displayformat>NDF</displayformat>
											</timecode>
											<media>
												<video>
													<samplecharacteristics>
														<rate>
															<timebase>30</timebase>
															<ntsc>FALSE</ntsc>
														</rate>
														<width>1920</width>
														<height>1080</height>
														<anamorphic>FALSE</anamorphic>
														<pixelaspectratio>square</pixelaspectratio>
														<fielddominance>none</fielddominance>
													</samplecharacteristics>
												</video>
												<audio>
													<samplecharacteristics>
														<depth>16</depth>
														<samplerate>44100</samplerate>
													</samplecharacteristics>
													<channelcount>2</channelcount>
												</audio>
											</media>
										</file>
										<link>
											<linkclipref>clipitem-72</linkclipref>
											<mediatype>video</mediatype>
											<trackindex>1</trackindex>
											<clipindex>1</clipindex>
										</link>
										<link>
											<linkclipref>clipitem-73</linkclipref>
											<mediatype>audio</mediatype>
											<trackindex>1</trackindex>
											<clipindex>1</clipindex>
											<groupindex>1</groupindex>
										</link>
										<link>
											<linkclipref>clipitem-74</linkclipref>
											<mediatype>audio</mediatype>
											<trackindex>2</trackindex>
											<clipindex>1</clipindex>
											<groupindex>1</groupindex>
										</link>
									</clipitem>
								</track>
							</video>
							<audio>
								<track>
									<clipitem id="clipitem-73">
										<masterclipid>masterclip-38</masterclipid>
										<name>(Dennis Schmelz)_DJI Avata Camping Trip - The FPV Game Changer Drone_YKXeG9sbFRw_YT.mp4</name>
										<rate>
											<timebase>30</timebase>
											<ntsc>FALSE</ntsc>
										</rate>
										<file id="file-38"/>
										<sourcetrack>
											<mediatype>audio</mediatype>
											<trackindex>1</trackindex>
										</sourcetrack>
										<link>
											<linkclipref>clipitem-72</linkclipref>
											<mediatype>video</mediatype>
											<trackindex>1</trackindex>
											<clipindex>1</clipindex>
										</link>
										<link>
											<linkclipref>clipitem-73</linkclipref>
											<mediatype>audio</mediatype>
											<trackindex>1</trackindex>
											<clipindex>1</clipindex>
											<groupindex>1</groupindex>
										</link>
										<link>
											<linkclipref>clipitem-74</linkclipref>
											<mediatype>audio</mediatype>
											<trackindex>2</trackindex>
											<clipindex>1</clipindex>
											<groupindex>1</groupindex>
										</link>
									</clipitem>
								</track>
								<track>
									<clipitem id="clipitem-74">
										<masterclipid>masterclip-38</masterclipid>
										<name>(Dennis Schmelz)_DJI Avata Camping Trip - The FPV Game Changer Drone_YKXeG9sbFRw_YT.mp4</name>
										<rate>
											<timebase>30</timebase>
											<ntsc>FALSE</ntsc>
										</rate>
										<file id="file-38"/>
										<sourcetrack>
											<mediatype>audio</mediatype>
											<trackindex>2</trackindex>
										</sourcetrack>
										<link>
											<linkclipref>clipitem-72</linkclipref>
											<mediatype>video</mediatype>
											<trackindex>1</trackindex>
											<clipindex>1</clipindex>
										</link>
										<link>
											<linkclipref>clipitem-73</linkclipref>
											<mediatype>audio</mediatype>
											<trackindex>1</trackindex>
											<clipindex>1</clipindex>
											<groupindex>1</groupindex>
										</link>
										<link>
											<linkclipref>clipitem-74</linkclipref>
											<mediatype>audio</mediatype>
											<trackindex>2</trackindex>
											<clipindex>1</clipindex>
											<groupindex>1</groupindex>
										</link>
									</clipitem>
								</track>
							</audio>
						</media>
						<logginginfo>
							<description></description>
							<scene></scene>
							<shottake></shottake>
							<lognote>https://www.youtube.com/watch?v=YKXeG9sbFRw</lognote>
							<good></good>
							<originalvideofilename></originalvideofilename>
							<originalaudiofilename></originalaudiofilename>
						</logginginfo>
						<colorinfo>
							<lut></lut>
							<lut1></lut1>
							<asc_sop></asc_sop>
							<asc_sat></asc_sat>
							<lut2></lut2>
						</colorinfo>
						<labels>
							<label2>Iris</label2>
						</labels>
					</clip>
					<clip id="masterclip-39" explodedTracks="true">
						<uuid>dc71c28f-120c-4f79-889b-1ca69e6697bb</uuid>
						<masterclipid>masterclip-39</masterclipid>
						<ismasterclip>TRUE</ismasterclip>
						<duration>45180</duration>
						<rate>
							<timebase>30</timebase>
							<ntsc>FALSE</ntsc>
						</rate>
						<name>(Alex Wild)_Building the biggest SECRET HOUSE UNDERGROUND SHELTER. Won't the HUGE ROOF fall_ Part 4_ixRSw0pVVGo_YT.mp4</name>
						<media>
							<video>
								<track>
									<clipitem id="clipitem-75">
										<masterclipid>masterclip-39</masterclipid>
										<name>(Alex Wild)_Building the biggest SECRET HOUSE UNDERGROUND SHELTER. Won't the HUGE ROOF fall_ Part 4_ixRSw0pVVGo_YT.mp4</name>
										<rate>
											<timebase>30</timebase>
											<ntsc>FALSE</ntsc>
										</rate>
										<alphatype>none</alphatype>
										<pixelaspectratio>square</pixelaspectratio>
										<anamorphic>FALSE</anamorphic>
										<file id="file-39">
											<name>(Alex Wild)_Building the biggest SECRET HOUSE UNDERGROUND SHELTER. Won't the HUGE ROOF fall_ Part 4_ixRSw0pVVGo_YT.mp4</name>
											<pathurl>file://localhost/Volumes/Charlie's%20Extra%20Space%20/1_Alpine%20TV_Projects%20/Alpine_TV_09.12.2023/3_Raw%20Footage%20/(Alex%20Wild)_Building%20the%20biggest%20SECRET%20HOUSE%20UNDERGROUND%20SHELTER.%20Won't%20the%20HUGE%20ROOF%20fall_%20Part%204_ixRSw0pVVGo_YT.mp4</pathurl>
											<rate>
												<timebase>30</timebase>
												<ntsc>FALSE</ntsc>
											</rate>
											<duration>45180</duration>
											<timecode>
												<rate>
													<timebase>30</timebase>
													<ntsc>FALSE</ntsc>
												</rate>
												<string>00:00:00:00</string>
												<frame>0</frame>
												<displayformat>NDF</displayformat>
											</timecode>
											<media>
												<video>
													<samplecharacteristics>
														<rate>
															<timebase>30</timebase>
															<ntsc>FALSE</ntsc>
														</rate>
														<width>1920</width>
														<height>1080</height>
														<anamorphic>FALSE</anamorphic>
														<pixelaspectratio>square</pixelaspectratio>
														<fielddominance>none</fielddominance>
													</samplecharacteristics>
												</video>
												<audio>
													<samplecharacteristics>
														<depth>16</depth>
														<samplerate>44100</samplerate>
													</samplecharacteristics>
													<channelcount>2</channelcount>
												</audio>
											</media>
										</file>
										<link>
											<linkclipref>clipitem-75</linkclipref>
											<mediatype>video</mediatype>
											<trackindex>1</trackindex>
											<clipindex>1</clipindex>
										</link>
										<link>
											<linkclipref>clipitem-76</linkclipref>
											<mediatype>audio</mediatype>
											<trackindex>1</trackindex>
											<clipindex>1</clipindex>
											<groupindex>1</groupindex>
										</link>
										<link>
											<linkclipref>clipitem-77</linkclipref>
											<mediatype>audio</mediatype>
											<trackindex>2</trackindex>
											<clipindex>1</clipindex>
											<groupindex>1</groupindex>
										</link>
									</clipitem>
								</track>
							</video>
							<audio>
								<track>
									<clipitem id="clipitem-76">
										<masterclipid>masterclip-39</masterclipid>
										<name>(Alex Wild)_Building the biggest SECRET HOUSE UNDERGROUND SHELTER. Won't the HUGE ROOF fall_ Part 4_ixRSw0pVVGo_YT.mp4</name>
										<rate>
											<timebase>30</timebase>
											<ntsc>FALSE</ntsc>
										</rate>
										<file id="file-39"/>
										<sourcetrack>
											<mediatype>audio</mediatype>
											<trackindex>1</trackindex>
										</sourcetrack>
										<link>
											<linkclipref>clipitem-75</linkclipref>
											<mediatype>video</mediatype>
											<trackindex>1</trackindex>
											<clipindex>1</clipindex>
										</link>
										<link>
											<linkclipref>clipitem-76</linkclipref>
											<mediatype>audio</mediatype>
											<trackindex>1</trackindex>
											<clipindex>1</clipindex>
											<groupindex>1</groupindex>
										</link>
										<link>
											<linkclipref>clipitem-77</linkclipref>
											<mediatype>audio</mediatype>
											<trackindex>2</trackindex>
											<clipindex>1</clipindex>
											<groupindex>1</groupindex>
										</link>
									</clipitem>
								</track>
								<track>
									<clipitem id="clipitem-77">
										<masterclipid>masterclip-39</masterclipid>
										<name>(Alex Wild)_Building the biggest SECRET HOUSE UNDERGROUND SHELTER. Won't the HUGE ROOF fall_ Part 4_ixRSw0pVVGo_YT.mp4</name>
										<rate>
											<timebase>30</timebase>
											<ntsc>FALSE</ntsc>
										</rate>
										<file id="file-39"/>
										<sourcetrack>
											<mediatype>audio</mediatype>
											<trackindex>2</trackindex>
										</sourcetrack>
										<link>
											<linkclipref>clipitem-75</linkclipref>
											<mediatype>video</mediatype>
											<trackindex>1</trackindex>
											<clipindex>1</clipindex>
										</link>
										<link>
											<linkclipref>clipitem-76</linkclipref>
											<mediatype>audio</mediatype>
											<trackindex>1</trackindex>
											<clipindex>1</clipindex>
											<groupindex>1</groupindex>
										</link>
										<link>
											<linkclipref>clipitem-77</linkclipref>
											<mediatype>audio</mediatype>
											<trackindex>2</trackindex>
											<clipindex>1</clipindex>
											<groupindex>1</groupindex>
										</link>
									</clipitem>
								</track>
							</audio>
						</media>
						<logginginfo>
							<description></description>
							<scene></scene>
							<shottake></shottake>
							<lognote>https://www.youtube.com/watch?v=ixRSw0pVVGo</lognote>
							<good></good>
							<originalvideofilename></originalvideofilename>
							<originalaudiofilename></originalaudiofilename>
						</logginginfo>
						<colorinfo>
							<lut></lut>
							<lut1></lut1>
							<asc_sop></asc_sop>
							<asc_sat></asc_sat>
							<lut2></lut2>
						</colorinfo>
						<labels>
							<label2>Iris</label2>
						</labels>
					</clip>
				</children>
			</bin>
			<bin>
				<name>6_Music </name>
				<labels>
					<label2>Mango</label2>
				</labels>
				<children>
					<clip id="masterclip-40" explodedTracks="true">
						<uuid>43a6c5a7-88f3-4246-bca5-28cd3af0edcd</uuid>
						<masterclipid>masterclip-40</masterclipid>
						<ismasterclip>TRUE</ismasterclip>
						<duration>4174</duration>
						<rate>
							<timebase>30</timebase>
							<ntsc>TRUE</ntsc>
						</rate>
						<name>ES_Let's Bounce - Jules Gaia.wav</name>
						<media>
							<audio>
								<track>
									<clipitem id="clipitem-78">
										<masterclipid>masterclip-40</masterclipid>
										<name>ES_Let's Bounce - Jules Gaia.wav</name>
										<rate>
											<timebase>30</timebase>
											<ntsc>TRUE</ntsc>
										</rate>
										<file id="file-40">
											<name>ES_Let's Bounce - Jules Gaia.wav</name>
											<pathurl>file://localhost/Users/charlesraygibbsjr./Downloads/Music%20/ES_Let's%20Bounce%20-%20Jules%20Gaia.wav</pathurl>
											<rate>
												<timebase>30</timebase>
												<ntsc>TRUE</ntsc>
											</rate>
											<duration>4174</duration>
											<timecode>
												<rate>
													<timebase>30</timebase>
													<ntsc>TRUE</ntsc>
												</rate>
												<string>01;02;22;02</string>
												<frame>112150</frame>
												<displayformat>DF</displayformat>
											</timecode>
											<media>
												<audio>
													<samplecharacteristics>
														<depth>16</depth>
														<samplerate>48000</samplerate>
													</samplecharacteristics>
													<channelcount>2</channelcount>
												</audio>
											</media>
										</file>
										<sourcetrack>
											<mediatype>audio</mediatype>
											<trackindex>1</trackindex>
										</sourcetrack>
										<link>
											<linkclipref>clipitem-78</linkclipref>
											<mediatype>audio</mediatype>
											<trackindex>1</trackindex>
											<clipindex>1</clipindex>
											<groupindex>1</groupindex>
										</link>
										<link>
											<linkclipref>clipitem-79</linkclipref>
											<mediatype>audio</mediatype>
											<trackindex>2</trackindex>
											<clipindex>1</clipindex>
											<groupindex>1</groupindex>
										</link>
									</clipitem>
								</track>
								<track>
									<clipitem id="clipitem-79">
										<masterclipid>masterclip-40</masterclipid>
										<name>ES_Let's Bounce - Jules Gaia.wav</name>
										<rate>
											<timebase>30</timebase>
											<ntsc>TRUE</ntsc>
										</rate>
										<file id="file-40"/>
										<sourcetrack>
											<mediatype>audio</mediatype>
											<trackindex>2</trackindex>
										</sourcetrack>
										<link>
											<linkclipref>clipitem-78</linkclipref>
											<mediatype>audio</mediatype>
											<trackindex>1</trackindex>
											<clipindex>1</clipindex>
											<groupindex>1</groupindex>
										</link>
										<link>
											<linkclipref>clipitem-79</linkclipref>
											<mediatype>audio</mediatype>
											<trackindex>2</trackindex>
											<clipindex>1</clipindex>
											<groupindex>1</groupindex>
										</link>
									</clipitem>
								</track>
							</audio>
						</media>
						<logginginfo>
							<description></description>
							<scene></scene>
							<shottake></shottake>
							<lognote></lognote>
							<good></good>
							<originalvideofilename></originalvideofilename>
							<originalaudiofilename></originalaudiofilename>
						</logginginfo>
						<colorinfo>
							<lut></lut>
							<lut1></lut1>
							<asc_sop></asc_sop>
							<asc_sat></asc_sat>
							<lut2></lut2>
						</colorinfo>
						<labels>
							<label2>Caribbean</label2>
						</labels>
					</clip>
					<clip id="masterclip-41" explodedTracks="true">
						<uuid>3d0aa29a-20e6-43d8-91b4-4987941944a5</uuid>
						<masterclipid>masterclip-41</masterclipid>
						<ismasterclip>TRUE</ismasterclip>
						<duration>5556</duration>
						<rate>
							<timebase>30</timebase>
							<ntsc>TRUE</ntsc>
						</rate>
						<name>ES_UCT - T-Shirts &amp; Sweats.mp3</name>
						<media>
							<audio>
								<track>
									<clipitem id="clipitem-80">
										<masterclipid>masterclip-41</masterclipid>
										<name>ES_UCT - T-Shirts &amp; Sweats.mp3</name>
										<rate>
											<timebase>30</timebase>
											<ntsc>TRUE</ntsc>
										</rate>
										<file id="file-41">
											<name>ES_UCT - T-Shirts &amp; Sweats.mp3</name>
											<pathurl>file://localhost/Users/charlesraygibbsjr./Downloads/All%20downloads/Music%20Folder/ES_UCT%20-%20T-Shirts%20&amp;%20Sweats.mp3</pathurl>
											<rate>
												<timebase>30</timebase>
												<ntsc>TRUE</ntsc>
											</rate>
											<duration>5556</duration>
											<timecode>
												<rate>
													<timebase>30</timebase>
													<ntsc>TRUE</ntsc>
												</rate>
												<string>00;00;00;00</string>
												<frame>0</frame>
												<displayformat>DF</displayformat>
											</timecode>
											<media>
												<audio>
													<samplecharacteristics>
														<depth>16</depth>
														<samplerate>48000</samplerate>
													</samplecharacteristics>
													<channelcount>2</channelcount>
												</audio>
											</media>
										</file>
										<sourcetrack>
											<mediatype>audio</mediatype>
											<trackindex>1</trackindex>
										</sourcetrack>
										<link>
											<linkclipref>clipitem-80</linkclipref>
											<mediatype>audio</mediatype>
											<trackindex>1</trackindex>
											<clipindex>1</clipindex>
											<groupindex>1</groupindex>
										</link>
										<link>
											<linkclipref>clipitem-81</linkclipref>
											<mediatype>audio</mediatype>
											<trackindex>2</trackindex>
											<clipindex>1</clipindex>
											<groupindex>1</groupindex>
										</link>
									</clipitem>
								</track>
								<track>
									<clipitem id="clipitem-81">
										<masterclipid>masterclip-41</masterclipid>
										<name>ES_UCT - T-Shirts &amp; Sweats.mp3</name>
										<rate>
											<timebase>30</timebase>
											<ntsc>TRUE</ntsc>
										</rate>
										<file id="file-41"/>
										<sourcetrack>
											<mediatype>audio</mediatype>
											<trackindex>2</trackindex>
										</sourcetrack>
										<link>
											<linkclipref>clipitem-80</linkclipref>
											<mediatype>audio</mediatype>
											<trackindex>1</trackindex>
											<clipindex>1</clipindex>
											<groupindex>1</groupindex>
										</link>
										<link>
											<linkclipref>clipitem-81</linkclipref>
											<mediatype>audio</mediatype>
											<trackindex>2</trackindex>
											<clipindex>1</clipindex>
											<groupindex>1</groupindex>
										</link>
									</clipitem>
								</track>
							</audio>
						</media>
							<marker>
								<comment></comment>
								<name></name>
								<in>682</in>
								<out>-1</out>
							</marker>
							<marker>
								<comment></comment>
								<name></name>
								<in>1424</in>
								<out>-1</out>
							</marker>
						<logginginfo>
							<description></description>
							<scene></scene>
							<shottake></shottake>
							<lognote></lognote>
							<good></good>
							<originalvideofilename></originalvideofilename>
							<originalaudiofilename></originalaudiofilename>
						</logginginfo>
						<colorinfo>
							<lut></lut>
							<lut1></lut1>
							<asc_sop></asc_sop>
							<asc_sat></asc_sat>
							<lut2></lut2>
						</colorinfo>
						<labels>
							<label2>Caribbean</label2>
						</labels>
					</clip>
					<clip id="masterclip-42" explodedTracks="true">
						<uuid>6d751717-ef6a-4e4d-bd3d-130d69c3deb1</uuid>
						<masterclipid>masterclip-42</masterclipid>
						<ismasterclip>TRUE</ismasterclip>
						<duration>5674</duration>
						<rate>
							<timebase>30</timebase>
							<ntsc>TRUE</ntsc>
						</rate>
						<name>ES_Sink - Coma Svensson.mp3</name>
						<media>
							<audio>
								<track>
									<clipitem id="clipitem-82">
										<masterclipid>masterclip-42</masterclipid>
										<name>ES_Sink - Coma Svensson.mp3</name>
										<rate>
											<timebase>30</timebase>
											<ntsc>TRUE</ntsc>
										</rate>
										<file id="file-42">
											<name>ES_Sink - Coma Svensson.mp3</name>
											<pathurl>file://localhost/Users/charlesraygibbsjr./Downloads/All%20downloads/Music%20Folder/ES_Sink%20-%20Coma%20Svensson.mp3</pathurl>
											<rate>
												<timebase>30</timebase>
												<ntsc>TRUE</ntsc>
											</rate>
											<duration>5674</duration>
											<timecode>
												<rate>
													<timebase>30</timebase>
													<ntsc>TRUE</ntsc>
												</rate>
												<string>00;00;00;00</string>
												<frame>0</frame>
												<displayformat>DF</displayformat>
											</timecode>
											<media>
												<audio>
													<samplecharacteristics>
														<depth>16</depth>
														<samplerate>48000</samplerate>
													</samplecharacteristics>
													<channelcount>2</channelcount>
												</audio>
											</media>
										</file>
										<sourcetrack>
											<mediatype>audio</mediatype>
											<trackindex>1</trackindex>
										</sourcetrack>
										<link>
											<linkclipref>clipitem-82</linkclipref>
											<mediatype>audio</mediatype>
											<trackindex>1</trackindex>
											<clipindex>1</clipindex>
											<groupindex>1</groupindex>
										</link>
										<link>
											<linkclipref>clipitem-83</linkclipref>
											<mediatype>audio</mediatype>
											<trackindex>2</trackindex>
											<clipindex>1</clipindex>
											<groupindex>1</groupindex>
										</link>
									</clipitem>
								</track>
								<track>
									<clipitem id="clipitem-83">
										<masterclipid>masterclip-42</masterclipid>
										<name>ES_Sink - Coma Svensson.mp3</name>
										<rate>
											<timebase>30</timebase>
											<ntsc>TRUE</ntsc>
										</rate>
										<file id="file-42"/>
										<sourcetrack>
											<mediatype>audio</mediatype>
											<trackindex>2</trackindex>
										</sourcetrack>
										<link>
											<linkclipref>clipitem-82</linkclipref>
											<mediatype>audio</mediatype>
											<trackindex>1</trackindex>
											<clipindex>1</clipindex>
											<groupindex>1</groupindex>
										</link>
										<link>
											<linkclipref>clipitem-83</linkclipref>
											<mediatype>audio</mediatype>
											<trackindex>2</trackindex>
											<clipindex>1</clipindex>
											<groupindex>1</groupindex>
										</link>
									</clipitem>
								</track>
							</audio>
						</media>
							<marker>
								<comment></comment>
								<name></name>
								<in>3083</in>
								<out>-1</out>
							</marker>
						<logginginfo>
							<description></description>
							<scene></scene>
							<shottake></shottake>
							<lognote></lognote>
							<good></good>
							<originalvideofilename></originalvideofilename>
							<originalaudiofilename></originalaudiofilename>
						</logginginfo>
						<colorinfo>
							<lut></lut>
							<lut1></lut1>
							<asc_sop></asc_sop>
							<asc_sat></asc_sat>
							<lut2></lut2>
						</colorinfo>
						<labels>
							<label2>Caribbean</label2>
						</labels>
					</clip>
					<clip id="masterclip-43" explodedTracks="true">
						<uuid>797ce190-c050-4d38-aeff-17c41adf153d</uuid>
						<masterclipid>masterclip-43</masterclipid>
						<ismasterclip>TRUE</ismasterclip>
						<duration>4888</duration>
						<rate>
							<timebase>30</timebase>
							<ntsc>TRUE</ntsc>
						</rate>
						<name>RocknStock - One Right Decision.mp3</name>
						<media>
							<audio>
								<track>
									<clipitem id="clipitem-84">
										<masterclipid>masterclip-43</masterclipid>
										<name>RocknStock - One Right Decision.mp3</name>
										<rate>
											<timebase>30</timebase>
											<ntsc>TRUE</ntsc>
										</rate>
										<file id="file-43">
											<name>RocknStock - One Right Decision.mp3</name>
											<pathurl>file://localhost/Users/charlesraygibbsjr./Downloads/Music%20/RocknStock%20-%20One%20Right%20Decision.mp3</pathurl>
											<rate>
												<timebase>30</timebase>
												<ntsc>TRUE</ntsc>
											</rate>
											<duration>4888</duration>
											<timecode>
												<rate>
													<timebase>30</timebase>
													<ntsc>TRUE</ntsc>
												</rate>
												<string>00;00;00;00</string>
												<frame>0</frame>
												<displayformat>DF</displayformat>
											</timecode>
											<media>
												<audio>
													<samplecharacteristics>
														<depth>16</depth>
														<samplerate>44100</samplerate>
													</samplecharacteristics>
													<channelcount>2</channelcount>
												</audio>
											</media>
										</file>
										<sourcetrack>
											<mediatype>audio</mediatype>
											<trackindex>1</trackindex>
										</sourcetrack>
										<link>
											<linkclipref>clipitem-84</linkclipref>
											<mediatype>audio</mediatype>
											<trackindex>1</trackindex>
											<clipindex>1</clipindex>
											<groupindex>1</groupindex>
										</link>
										<link>
											<linkclipref>clipitem-85</linkclipref>
											<mediatype>audio</mediatype>
											<trackindex>2</trackindex>
											<clipindex>1</clipindex>
											<groupindex>1</groupindex>
										</link>
									</clipitem>
								</track>
								<track>
									<clipitem id="clipitem-85">
										<masterclipid>masterclip-43</masterclipid>
										<name>RocknStock - One Right Decision.mp3</name>
										<rate>
											<timebase>30</timebase>
											<ntsc>TRUE</ntsc>
										</rate>
										<file id="file-43"/>
										<sourcetrack>
											<mediatype>audio</mediatype>
											<trackindex>2</trackindex>
										</sourcetrack>
										<link>
											<linkclipref>clipitem-84</linkclipref>
											<mediatype>audio</mediatype>
											<trackindex>1</trackindex>
											<clipindex>1</clipindex>
											<groupindex>1</groupindex>
										</link>
										<link>
											<linkclipref>clipitem-85</linkclipref>
											<mediatype>audio</mediatype>
											<trackindex>2</trackindex>
											<clipindex>1</clipindex>
											<groupindex>1</groupindex>
										</link>
									</clipitem>
								</track>
							</audio>
						</media>
						<logginginfo>
							<description></description>
							<scene></scene>
							<shottake></shottake>
							<lognote></lognote>
							<good></good>
							<originalvideofilename></originalvideofilename>
							<originalaudiofilename></originalaudiofilename>
						</logginginfo>
						<colorinfo>
							<lut></lut>
							<lut1></lut1>
							<asc_sop></asc_sop>
							<asc_sat></asc_sat>
							<lut2></lut2>
						</colorinfo>
						<labels>
							<label2>Caribbean</label2>
						</labels>
					</clip>
					<clip id="masterclip-44" explodedTracks="true">
						<uuid>3e16f65a-1d7a-4b64-a6a9-4d3ae56d7d1e</uuid>
						<masterclipid>masterclip-44</masterclipid>
						<ismasterclip>TRUE</ismasterclip>
						<duration>5119</duration>
						<rate>
							<timebase>30</timebase>
							<ntsc>TRUE</ntsc>
						</rate>
						<name>ORKAS - On the Road - Instrumental Version.mp3</name>
						<media>
							<audio>
								<track>
									<clipitem id="clipitem-86">
										<masterclipid>masterclip-44</masterclipid>
										<name>ORKAS - On the Road - Instrumental Version.mp3</name>
										<rate>
											<timebase>30</timebase>
											<ntsc>TRUE</ntsc>
										</rate>
										<file id="file-44">
											<name>ORKAS - On the Road - Instrumental Version.mp3</name>
											<pathurl>file://localhost/Volumes/Charlie's%20Extra%20Space%20/1_Alpine%20TV_Projects%20/Alpine_TV_09.12.2023/5_Music%20/ORKAS%20-%20On%20the%20Road%20-%20Instrumental%20Version.mp3</pathurl>
											<rate>
												<timebase>30</timebase>
												<ntsc>TRUE</ntsc>
											</rate>
											<duration>5119</duration>
											<timecode>
												<rate>
													<timebase>30</timebase>
													<ntsc>TRUE</ntsc>
												</rate>
												<string>00;00;00;00</string>
												<frame>0</frame>
												<displayformat>DF</displayformat>
											</timecode>
											<media>
												<audio>
													<samplecharacteristics>
														<depth>16</depth>
														<samplerate>44100</samplerate>
													</samplecharacteristics>
													<channelcount>2</channelcount>
												</audio>
											</media>
										</file>
										<sourcetrack>
											<mediatype>audio</mediatype>
											<trackindex>1</trackindex>
										</sourcetrack>
										<link>
											<linkclipref>clipitem-86</linkclipref>
											<mediatype>audio</mediatype>
											<trackindex>1</trackindex>
											<clipindex>1</clipindex>
											<groupindex>1</groupindex>
										</link>
										<link>
											<linkclipref>clipitem-87</linkclipref>
											<mediatype>audio</mediatype>
											<trackindex>2</trackindex>
											<clipindex>1</clipindex>
											<groupindex>1</groupindex>
										</link>
									</clipitem>
								</track>
								<track>
									<clipitem id="clipitem-87">
										<masterclipid>masterclip-44</masterclipid>
										<name>ORKAS - On the Road - Instrumental Version.mp3</name>
										<rate>
											<timebase>30</timebase>
											<ntsc>TRUE</ntsc>
										</rate>
										<file id="file-44"/>
										<sourcetrack>
											<mediatype>audio</mediatype>
											<trackindex>2</trackindex>
										</sourcetrack>
										<link>
											<linkclipref>clipitem-86</linkclipref>
											<mediatype>audio</mediatype>
											<trackindex>1</trackindex>
											<clipindex>1</clipindex>
											<groupindex>1</groupindex>
										</link>
										<link>
											<linkclipref>clipitem-87</linkclipref>
											<mediatype>audio</mediatype>
											<trackindex>2</trackindex>
											<clipindex>1</clipindex>
											<groupindex>1</groupindex>
										</link>
									</clipitem>
								</track>
							</audio>
						</media>
						<logginginfo>
							<description></description>
							<scene></scene>
							<shottake></shottake>
							<lognote></lognote>
							<good></good>
							<originalvideofilename></originalvideofilename>
							<originalaudiofilename></originalaudiofilename>
						</logginginfo>
						<colorinfo>
							<lut></lut>
							<lut1></lut1>
							<asc_sop></asc_sop>
							<asc_sat></asc_sat>
							<lut2></lut2>
						</colorinfo>
						<labels>
							<label2>Caribbean</label2>
						</labels>
					</clip>
					<clip id="masterclip-45" explodedTracks="true">
						<uuid>ef24256a-f296-4583-b6e9-f21861f9c6ea</uuid>
						<masterclipid>masterclip-45</masterclipid>
						<ismasterclip>TRUE</ismasterclip>
						<duration>4452</duration>
						<rate>
							<timebase>30</timebase>
							<ntsc>TRUE</ntsc>
						</rate>
						<name>Evert Z - Loud and Proud.mp3</name>
						<media>
							<audio>
								<track>
									<clipitem id="clipitem-88">
										<masterclipid>masterclip-45</masterclipid>
										<name>Evert Z - Loud and Proud.mp3</name>
										<rate>
											<timebase>30</timebase>
											<ntsc>TRUE</ntsc>
										</rate>
										<file id="file-45">
											<name>Evert Z - Loud and Proud.mp3</name>
											<pathurl>file://localhost/Users/charlesraygibbsjr./Downloads/Evert%20Z%20-%20Loud%20and%20Proud.mp3</pathurl>
											<rate>
												<timebase>30</timebase>
												<ntsc>TRUE</ntsc>
											</rate>
											<duration>4452</duration>
											<timecode>
												<rate>
													<timebase>30</timebase>
													<ntsc>TRUE</ntsc>
												</rate>
												<string>00;00;00;00</string>
												<frame>0</frame>
												<displayformat>DF</displayformat>
											</timecode>
											<media>
												<audio>
													<samplecharacteristics>
														<depth>16</depth>
														<samplerate>44100</samplerate>
													</samplecharacteristics>
													<channelcount>2</channelcount>
												</audio>
											</media>
										</file>
										<sourcetrack>
											<mediatype>audio</mediatype>
											<trackindex>1</trackindex>
										</sourcetrack>
										<link>
											<linkclipref>clipitem-88</linkclipref>
											<mediatype>audio</mediatype>
											<trackindex>1</trackindex>
											<clipindex>1</clipindex>
											<groupindex>1</groupindex>
										</link>
										<link>
											<linkclipref>clipitem-89</linkclipref>
											<mediatype>audio</mediatype>
											<trackindex>2</trackindex>
											<clipindex>1</clipindex>
											<groupindex>1</groupindex>
										</link>
									</clipitem>
								</track>
								<track>
									<clipitem id="clipitem-89">
										<masterclipid>masterclip-45</masterclipid>
										<name>Evert Z - Loud and Proud.mp3</name>
										<rate>
											<timebase>30</timebase>
											<ntsc>TRUE</ntsc>
										</rate>
										<file id="file-45"/>
										<sourcetrack>
											<mediatype>audio</mediatype>
											<trackindex>2</trackindex>
										</sourcetrack>
										<link>
											<linkclipref>clipitem-88</linkclipref>
											<mediatype>audio</mediatype>
											<trackindex>1</trackindex>
											<clipindex>1</clipindex>
											<groupindex>1</groupindex>
										</link>
										<link>
											<linkclipref>clipitem-89</linkclipref>
											<mediatype>audio</mediatype>
											<trackindex>2</trackindex>
											<clipindex>1</clipindex>
											<groupindex>1</groupindex>
										</link>
									</clipitem>
								</track>
							</audio>
						</media>
							<marker>
								<comment></comment>
								<name></name>
								<in>1336</in>
								<out>-1</out>
							</marker>
							<marker>
								<comment></comment>
								<name></name>
								<in>1322</in>
								<out>-1</out>
							</marker>
							<marker>
								<comment></comment>
								<name></name>
								<in>1331</in>
								<out>-1</out>
							</marker>
							<marker>
								<comment></comment>
								<name></name>
								<in>1005</in>
								<out>-1</out>
							</marker>
						<logginginfo>
							<description></description>
							<scene></scene>
							<shottake></shottake>
							<lognote></lognote>
							<good></good>
							<originalvideofilename></originalvideofilename>
							<originalaudiofilename></originalaudiofilename>
						</logginginfo>
						<colorinfo>
							<lut></lut>
							<lut1></lut1>
							<asc_sop></asc_sop>
							<asc_sat></asc_sat>
							<lut2></lut2>
						</colorinfo>
						<labels>
							<label2>Caribbean</label2>
						</labels>
					</clip>
					<clip id="masterclip-46" explodedTracks="true">
						<uuid>d8ab3fba-f85f-42b9-8265-cb33df60e3bb</uuid>
						<masterclipid>masterclip-46</masterclipid>
						<ismasterclip>TRUE</ismasterclip>
						<duration>6068</duration>
						<rate>
							<timebase>30</timebase>
							<ntsc>TRUE</ntsc>
						</rate>
						<name>BrunchWithBunny - MYThing - No Lead Vocals.mp3</name>
						<media>
							<audio>
								<track>
									<clipitem id="clipitem-90">
										<masterclipid>masterclip-46</masterclipid>
										<name>BrunchWithBunny - MYThing - No Lead Vocals.mp3</name>
										<rate>
											<timebase>30</timebase>
											<ntsc>TRUE</ntsc>
										</rate>
										<file id="file-46">
											<name>BrunchWithBunny - MYThing - No Lead Vocals.mp3</name>
											<pathurl>file://localhost/Users/charlesraygibbsjr./Downloads/BrunchWithBunny%20-%20MYThing%20-%20No%20Lead%20Vocals.mp3</pathurl>
											<rate>
												<timebase>30</timebase>
												<ntsc>TRUE</ntsc>
											</rate>
											<duration>6068</duration>
											<timecode>
												<rate>
													<timebase>30</timebase>
													<ntsc>TRUE</ntsc>
												</rate>
												<string>00;00;00;00</string>
												<frame>0</frame>
												<displayformat>DF</displayformat>
											</timecode>
											<media>
												<audio>
													<samplecharacteristics>
														<depth>16</depth>
														<samplerate>44100</samplerate>
													</samplecharacteristics>
													<channelcount>2</channelcount>
												</audio>
											</media>
										</file>
										<sourcetrack>
											<mediatype>audio</mediatype>
											<trackindex>1</trackindex>
										</sourcetrack>
										<link>
											<linkclipref>clipitem-90</linkclipref>
											<mediatype>audio</mediatype>
											<trackindex>1</trackindex>
											<clipindex>1</clipindex>
											<groupindex>1</groupindex>
										</link>
										<link>
											<linkclipref>clipitem-91</linkclipref>
											<mediatype>audio</mediatype>
											<trackindex>2</trackindex>
											<clipindex>1</clipindex>
											<groupindex>1</groupindex>
										</link>
									</clipitem>
								</track>
								<track>
									<clipitem id="clipitem-91">
										<masterclipid>masterclip-46</masterclipid>
										<name>BrunchWithBunny - MYThing - No Lead Vocals.mp3</name>
										<rate>
											<timebase>30</timebase>
											<ntsc>TRUE</ntsc>
										</rate>
										<file id="file-46"/>
										<sourcetrack>
											<mediatype>audio</mediatype>
											<trackindex>2</trackindex>
										</sourcetrack>
										<link>
											<linkclipref>clipitem-90</linkclipref>
											<mediatype>audio</mediatype>
											<trackindex>1</trackindex>
											<clipindex>1</clipindex>
											<groupindex>1</groupindex>
										</link>
										<link>
											<linkclipref>clipitem-91</linkclipref>
											<mediatype>audio</mediatype>
											<trackindex>2</trackindex>
											<clipindex>1</clipindex>
											<groupindex>1</groupindex>
										</link>
									</clipitem>
								</track>
							</audio>
						</media>
						<logginginfo>
							<description></description>
							<scene></scene>
							<shottake></shottake>
							<lognote></lognote>
							<good></good>
							<originalvideofilename></originalvideofilename>
							<originalaudiofilename></originalaudiofilename>
						</logginginfo>
						<colorinfo>
							<lut></lut>
							<lut1></lut1>
							<asc_sop></asc_sop>
							<asc_sat></asc_sat>
							<lut2></lut2>
						</colorinfo>
						<labels>
							<label2>Caribbean</label2>
						</labels>
					</clip>
					<clip id="masterclip-47" explodedTracks="true">
						<uuid>788002ed-1a0a-4fbf-aa96-4992d702aeee</uuid>
						<masterclipid>masterclip-47</masterclipid>
						<ismasterclip>TRUE</ismasterclip>
						<duration>5394</duration>
						<rate>
							<timebase>30</timebase>
							<ntsc>TRUE</ntsc>
						</rate>
						<name>Ben Winwood - The Journey.mp3</name>
						<media>
							<audio>
								<track>
									<clipitem id="clipitem-92">
										<masterclipid>masterclip-47</masterclipid>
										<name>Ben Winwood - The Journey.mp3</name>
										<rate>
											<timebase>30</timebase>
											<ntsc>TRUE</ntsc>
										</rate>
										<file id="file-47">
											<name>Ben Winwood - The Journey.mp3</name>
											<pathurl>file://localhost/Users/charlesraygibbsjr./Downloads/Ben%20Winwood%20-%20The%20Journey.mp3</pathurl>
											<rate>
												<timebase>30</timebase>
												<ntsc>TRUE</ntsc>
											</rate>
											<duration>5394</duration>
											<timecode>
												<rate>
													<timebase>30</timebase>
													<ntsc>TRUE</ntsc>
												</rate>
												<string>00;00;00;00</string>
												<frame>0</frame>
												<displayformat>DF</displayformat>
											</timecode>
											<media>
												<audio>
													<samplecharacteristics>
														<depth>16</depth>
														<samplerate>44100</samplerate>
													</samplecharacteristics>
													<channelcount>2</channelcount>
												</audio>
											</media>
										</file>
										<sourcetrack>
											<mediatype>audio</mediatype>
											<trackindex>1</trackindex>
										</sourcetrack>
										<link>
											<linkclipref>clipitem-92</linkclipref>
											<mediatype>audio</mediatype>
											<trackindex>1</trackindex>
											<clipindex>1</clipindex>
											<groupindex>1</groupindex>
										</link>
										<link>
											<linkclipref>clipitem-93</linkclipref>
											<mediatype>audio</mediatype>
											<trackindex>2</trackindex>
											<clipindex>1</clipindex>
											<groupindex>1</groupindex>
										</link>
									</clipitem>
								</track>
								<track>
									<clipitem id="clipitem-93">
										<masterclipid>masterclip-47</masterclipid>
										<name>Ben Winwood - The Journey.mp3</name>
										<rate>
											<timebase>30</timebase>
											<ntsc>TRUE</ntsc>
										</rate>
										<file id="file-47"/>
										<sourcetrack>
											<mediatype>audio</mediatype>
											<trackindex>2</trackindex>
										</sourcetrack>
										<link>
											<linkclipref>clipitem-92</linkclipref>
											<mediatype>audio</mediatype>
											<trackindex>1</trackindex>
											<clipindex>1</clipindex>
											<groupindex>1</groupindex>
										</link>
										<link>
											<linkclipref>clipitem-93</linkclipref>
											<mediatype>audio</mediatype>
											<trackindex>2</trackindex>
											<clipindex>1</clipindex>
											<groupindex>1</groupindex>
										</link>
									</clipitem>
								</track>
							</audio>
						</media>
						<logginginfo>
							<description></description>
							<scene></scene>
							<shottake></shottake>
							<lognote>All Rights Reserved to www.Art-list.io</lognote>
							<good></good>
							<originalvideofilename></originalvideofilename>
							<originalaudiofilename></originalaudiofilename>
						</logginginfo>
						<colorinfo>
							<lut></lut>
							<lut1></lut1>
							<asc_sop></asc_sop>
							<asc_sat></asc_sat>
							<lut2></lut2>
						</colorinfo>
						<labels>
							<label2>Caribbean</label2>
						</labels>
					</clip>
				</children>
			</bin>
			<bin>
				<name>4_Template Assets</name>
				<labels>
					<label2>Mango</label2>
				</labels>
				<children>
					<clip id="masterclip-48" explodedTracks="true">
						<uuid>ea544f3f-b8cd-4e69-95bb-02196fe8a043</uuid>
						<masterclipid>masterclip-48</masterclipid>
						<ismasterclip>TRUE</ismasterclip>
						<duration>5844</duration>
						<rate>
							<timebase>30</timebase>
							<ntsc>TRUE</ntsc>
						</rate>
						<in>724</in>
						<out>4377</out>
						<name>1080/AE Attribution.aep Copy 32</name>
						<media>
							<video>
								<track>
									<clipitem id="clipitem-94">
										<masterclipid>masterclip-48</masterclipid>
										<name>1080/AE Attribution.aep Copy 32</name>
										<rate>
											<timebase>30</timebase>
											<ntsc>TRUE</ntsc>
										</rate>
										<alphatype>straight</alphatype>
										<pixelaspectratio>square</pixelaspectratio>
										<anamorphic>FALSE</anamorphic>
										<file id="file-48">
											<name>1080/AE Attribution.aep</name>
											<pathurl>file://localhost/Volumes/Charlie's%20Extra%20Space%20/1_Alpine%20TV_Projects%20/1_Alpine%20TV_Master%20Assets/Attribution/AE%20Attribution.aep</pathurl>
											<rate>
												<timebase>30</timebase>
												<ntsc>TRUE</ntsc>
											</rate>
											<duration>5844</duration>
											<timecode>
												<rate>
													<timebase>30</timebase>
													<ntsc>TRUE</ntsc>
												</rate>
												<string>00;00;00;00</string>
												<frame>0</frame>
												<displayformat>DF</displayformat>
											</timecode>
											<media>
												<video>
													<samplecharacteristics>
														<rate>
															<timebase>30</timebase>
															<ntsc>TRUE</ntsc>
														</rate>
														<width>1920</width>
														<height>1080</height>
														<anamorphic>FALSE</anamorphic>
														<pixelaspectratio>square</pixelaspectratio>
														<fielddominance>lower</fielddominance>
													</samplecharacteristics>
												</video>
											</media>
										</file>
									</clipitem>
								</track>
							</video>
						</media>
						<logginginfo>
							<description></description>
							<scene></scene>
							<shottake></shottake>
							<lognote></lognote>
							<good></good>
							<originalvideofilename></originalvideofilename>
							<originalaudiofilename></originalaudiofilename>
						</logginginfo>
						<colorinfo>
							<lut></lut>
							<lut1></lut1>
							<asc_sop></asc_sop>
							<asc_sat></asc_sat>
							<lut2></lut2>
						</colorinfo>
						<labels>
							<label2>Rose</label2>
						</labels>
					</clip>
					<sequence id="sequence-1" TL.SQAudioVisibleBase="0" TL.SQVideoVisibleBase="0" TL.SQVisibleBaseTime="0" TL.SQAVDividerPosition="0.5" TL.SQHideShyTracks="0" TL.SQHeaderWidth="236" TL.SQDataTrackViewControlState="0" Monitor.ProgramZoomOut="64059092697600" Monitor.ProgramZoomIn="0" TL.SQTimePerPixel="0.2315711193197616" MZ.EditLine="21991680092872" MZ.Sequence.PreviewFrameSizeHeight="1080" MZ.Sequence.PreviewFrameSizeWidth="1920" MZ.Sequence.AudioTimeDisplayFormat="200" MZ.Sequence.PreviewRenderingClassID="1297106761" MZ.Sequence.PreviewRenderingPresetCodec="1297107278" MZ.Sequence.PreviewRenderingPresetPath="EncoderPresets/SequencePreview/795454d9-d3c2-429d-9474-923ab13b7018/I-Frame Only MPEG.epr" MZ.Sequence.PreviewUseMaxRenderQuality="false" MZ.Sequence.PreviewUseMaxBitDepth="false" MZ.Sequence.EditingModeGUID="795454d9-d3c2-429d-9474-923ab13b7018" MZ.Sequence.VideoTimeDisplayFormat="103" MZ.WorkOutPoint="48370632710400" MZ.WorkInPoint="0" explodedTracks="true">
						<uuid>8c27e11b-60cb-480d-a8c1-564558b83c99</uuid>
						<duration>0</duration>
						<rate>
							<timebase>30</timebase>
							<ntsc>TRUE</ntsc>
						</rate>
						<name>ATM Bug (Right) </name>
						<media>
							<video>
								<format>
									<samplecharacteristics>
										<rate>
											<timebase>30</timebase>
											<ntsc>TRUE</ntsc>
										</rate>
										<codec>
											<name>Apple ProRes 422</name>
											<appspecificdata>
												<appname>Final Cut Pro</appname>
												<appmanufacturer>Apple Inc.</appmanufacturer>
												<appversion>7.0</appversion>
												<data>
													<qtcodec>
														<codecname>Apple ProRes 422</codecname>
														<codectypename>Apple ProRes 422</codectypename>
														<codectypecode>apcn</codectypecode>
														<codecvendorcode>appl</codecvendorcode>
														<spatialquality>1024</spatialquality>
														<temporalquality>0</temporalquality>
														<keyframerate>0</keyframerate>
														<datarate>0</datarate>
													</qtcodec>
												</data>
											</appspecificdata>
										</codec>
										<width>1920</width>
										<height>1080</height>
										<anamorphic>FALSE</anamorphic>
										<pixelaspectratio>square</pixelaspectratio>
										<fielddominance>none</fielddominance>
										<colordepth>24</colordepth>
									</samplecharacteristics>
								</format>
								<track TL.SQTrackShy="0" TL.SQTrackExpandedHeight="25" TL.SQTrackExpanded="0" MZ.TrackTargeted="1">
									<enabled>TRUE</enabled>
									<locked>FALSE</locked>
								</track>
								<track TL.SQTrackShy="0" TL.SQTrackExpandedHeight="25" TL.SQTrackExpanded="0" MZ.TrackTargeted="0">
									<enabled>TRUE</enabled>
									<locked>FALSE</locked>
								</track>
								<track TL.SQTrackShy="0" TL.SQTrackExpandedHeight="25" TL.SQTrackExpanded="0" MZ.TrackTargeted="0">
									<enabled>TRUE</enabled>
									<locked>FALSE</locked>
								</track>
								<track TL.SQTrackShy="0" TL.SQTrackExpandedHeight="25" TL.SQTrackExpanded="0" MZ.TrackTargeted="0">
									<enabled>TRUE</enabled>
									<locked>FALSE</locked>
								</track>
								<track TL.SQTrackShy="0" TL.SQTrackExpandedHeight="25" TL.SQTrackExpanded="0" MZ.TrackTargeted="0">
									<clipitem id="clipitem-95">
										<masterclipid>masterclip-49</masterclipid>
										<name>ATM BUG_1080_Top Left.png</name>
										<enabled>TRUE</enabled>
										<duration>1294705</duration>
										<rate>
											<timebase>30</timebase>
											<ntsc>TRUE</ntsc>
										</rate>
										<start>0</start>
										<end>7558</end>
										<in>107892</in>
										<out>115450</out>
										<pproTicksIn>914456685542400</pproTicksIn>
										<pproTicksOut>978515778240000</pproTicksOut>
										<alphatype>straight</alphatype>
										<pixelaspectratio>square</pixelaspectratio>
										<anamorphic>FALSE</anamorphic>
										<file id="file-49">
											<name>ATM BUG_1080_Top Right.png</name>
											<pathurl>file://localhost/Volumes/Charlie's%20Extra%20Space%20/1_Alpine%20TV_Projects%20/1_Alpine%20TV_Master%20Assets/ATM%20BUG_1080_Top%20Right.png</pathurl>
											<rate>
												<timebase>30</timebase>
												<ntsc>TRUE</ntsc>
											</rate>
											<timecode>
												<rate>
													<timebase>30</timebase>
													<ntsc>TRUE</ntsc>
												</rate>
												<string>00:00:00:00</string>
												<frame>0</frame>
												<displayformat>NDF</displayformat>
											</timecode>
											<media>
												<video>
													<samplecharacteristics>
														<rate>
															<timebase>30</timebase>
															<ntsc>TRUE</ntsc>
														</rate>
														<width>1920</width>
														<height>1080</height>
														<anamorphic>FALSE</anamorphic>
														<pixelaspectratio>square</pixelaspectratio>
														<fielddominance>none</fielddominance>
													</samplecharacteristics>
												</video>
											</media>
										</file>
										<logginginfo>
											<description></description>
											<scene></scene>
											<shottake></shottake>
											<lognote></lognote>
											<good></good>
											<originalvideofilename></originalvideofilename>
											<originalaudiofilename></originalaudiofilename>
										</logginginfo>
										<colorinfo>
											<lut></lut>
											<lut1></lut1>
											<asc_sop></asc_sop>
											<asc_sat></asc_sat>
											<lut2></lut2>
										</colorinfo>
										<labels>
											<label2>Lavender</label2>
										</labels>
									</clipitem>
									<enabled>TRUE</enabled>
									<locked>FALSE</locked>
								</track>
								<track TL.SQTrackShy="0" TL.SQTrackExpandedHeight="25" TL.SQTrackExpanded="0" MZ.TrackTargeted="0">
									<enabled>TRUE</enabled>
									<locked>FALSE</locked>
								</track>
							</video>
							<audio>
								<numOutputChannels>2</numOutputChannels>
								<format>
									<samplecharacteristics>
										<depth>16</depth>
										<samplerate>44100</samplerate>
									</samplecharacteristics>
								</format>
								<outputs>
									<group>
										<index>1</index>
										<numchannels>1</numchannels>
										<downmix>0</downmix>
										<channel>
											<index>1</index>
										</channel>
									</group>
									<group>
										<index>2</index>
										<numchannels>1</numchannels>
										<downmix>0</downmix>
										<channel>
											<index>2</index>
										</channel>
									</group>
								</outputs>
								<track TL.SQTrackAudioKeyframeStyle="0" TL.SQTrackShy="0" TL.SQTrackExpandedHeight="25" TL.SQTrackExpanded="0" MZ.TrackTargeted="1" PannerCurrentValue="0.5" PannerIsInverted="true" PannerStartKeyframe="-91445760000000000,0.5,0,0,0,0,0,0" PannerName="Balance" currentExplodedTrackIndex="0" totalExplodedTrackCount="2" premiereTrackType="Stereo">
									<enabled>TRUE</enabled>
									<locked>FALSE</locked>
									<outputchannelindex>1</outputchannelindex>
								</track>
								<track TL.SQTrackAudioKeyframeStyle="0" TL.SQTrackShy="0" TL.SQTrackExpandedHeight="25" TL.SQTrackExpanded="0" MZ.TrackTargeted="1" PannerCurrentValue="0.5" PannerIsInverted="true" PannerStartKeyframe="-91445760000000000,0.5,0,0,0,0,0,0" PannerName="Balance" currentExplodedTrackIndex="1" totalExplodedTrackCount="2" premiereTrackType="Stereo">
									<enabled>TRUE</enabled>
									<locked>FALSE</locked>
									<outputchannelindex>2</outputchannelindex>
								</track>
							</audio>
						</media>
						<timecode>
							<rate>
								<timebase>30</timebase>
								<ntsc>TRUE</ntsc>
							</rate>
							<string>00:00:00:00</string>
							<frame>0</frame>
							<displayformat>NDF</displayformat>
						</timecode>
						<labels>
							<label2>Forest</label2>
						</labels>
						<logginginfo>
							<description></description>
							<scene></scene>
							<shottake></shottake>
							<lognote></lognote>
							<good></good>
							<originalvideofilename></originalvideofilename>
							<originalaudiofilename></originalaudiofilename>
						</logginginfo>
					</sequence>
					<sequence id="sequence-2" TL.SQVisibleBaseTime="0" TL.SQTimePerPixel="0.23675557219892152" MZ.Sequence.PreviewFrameSizeHeight="1080" MZ.Sequence.PreviewFrameSizeWidth="1920" MZ.Sequence.AudioTimeDisplayFormat="200" MZ.Sequence.PreviewRenderingClassID="1297106761" MZ.Sequence.PreviewRenderingPresetCodec="1297107278" MZ.Sequence.PreviewRenderingPresetPath="EncoderPresets/SequencePreview/795454d9-d3c2-429d-9474-923ab13b7018/I-Frame Only MPEG.epr" MZ.Sequence.PreviewUseMaxRenderQuality="false" MZ.Sequence.PreviewUseMaxBitDepth="false" MZ.Sequence.EditingModeGUID="795454d9-d3c2-429d-9474-923ab13b7018" MZ.Sequence.VideoTimeDisplayFormat="103" MZ.WorkOutPoint="47845141344000" MZ.WorkInPoint="0" explodedTracks="true">
						<uuid>e3e04d2e-d979-44de-b9ea-d133ee3ff433</uuid>
						<duration>0</duration>
						<rate>
							<timebase>30</timebase>
							<ntsc>TRUE</ntsc>
						</rate>
						<name>ATM Bug (Left) </name>
						<media>
							<video>
								<format>
									<samplecharacteristics>
										<rate>
											<timebase>30</timebase>
											<ntsc>TRUE</ntsc>
										</rate>
										<codec>
											<name>Apple ProRes 422</name>
											<appspecificdata>
												<appname>Final Cut Pro</appname>
												<appmanufacturer>Apple Inc.</appmanufacturer>
												<appversion>7.0</appversion>
												<data>
													<qtcodec>
														<codecname>Apple ProRes 422</codecname>
														<codectypename>Apple ProRes 422</codectypename>
														<codectypecode>apcn</codectypecode>
														<codecvendorcode>appl</codecvendorcode>
														<spatialquality>1024</spatialquality>
														<temporalquality>0</temporalquality>
														<keyframerate>0</keyframerate>
														<datarate>0</datarate>
													</qtcodec>
												</data>
											</appspecificdata>
										</codec>
										<width>1920</width>
										<height>1080</height>
										<anamorphic>FALSE</anamorphic>
										<pixelaspectratio>square</pixelaspectratio>
										<fielddominance>none</fielddominance>
										<colordepth>24</colordepth>
									</samplecharacteristics>
								</format>
								<track TL.SQTrackExpandedHeight="25" TL.SQTrackExpanded="0" MZ.TrackTargeted="1">
									<enabled>TRUE</enabled>
									<locked>FALSE</locked>
								</track>
								<track>
									<enabled>TRUE</enabled>
									<locked>FALSE</locked>
								</track>
								<track>
									<enabled>TRUE</enabled>
									<locked>FALSE</locked>
								</track>
								<track>
									<enabled>TRUE</enabled>
									<locked>FALSE</locked>
								</track>
								<track>
									<clipitem id="clipitem-96">
										<masterclipid>masterclip-50</masterclipid>
										<name>ATM_logo_channels_right-2.png</name>
										<enabled>TRUE</enabled>
										<duration>1294705</duration>
										<rate>
											<timebase>30</timebase>
											<ntsc>TRUE</ntsc>
										</rate>
										<start>0</start>
										<end>5645</end>
										<in>104895</in>
										<out>110540</out>
										<pproTicksIn>889055110944000</pproTicksIn>
										<pproTicksOut>936900252288000</pproTicksOut>
										<alphatype>straight</alphatype>
										<pixelaspectratio>square</pixelaspectratio>
										<anamorphic>FALSE</anamorphic>
										<file id="file-50">
											<name>ATM_logo_channels_right-2.png</name>
											<pathurl>file://localhost/Volumes/Charlie's%20Extra%20Space%20/Alpine%20TV_06.05.2023/4_Assets/ATM_logo_channels_right-2.png</pathurl>
											<rate>
												<timebase>30</timebase>
												<ntsc>TRUE</ntsc>
											</rate>
											<timecode>
												<rate>
													<timebase>30</timebase>
													<ntsc>TRUE</ntsc>
												</rate>
												<string>00:00:00:00</string>
												<frame>0</frame>
												<displayformat>NDF</displayformat>
											</timecode>
											<media>
												<video>
													<samplecharacteristics>
														<rate>
															<timebase>30</timebase>
															<ntsc>TRUE</ntsc>
														</rate>
														<width>1920</width>
														<height>1080</height>
														<anamorphic>FALSE</anamorphic>
														<pixelaspectratio>square</pixelaspectratio>
														<fielddominance>none</fielddominance>
													</samplecharacteristics>
												</video>
											</media>
										</file>
										<filter>
											<effect>
												<name>Basic Motion</name>
												<effectid>basic</effectid>
												<effectcategory>motion</effectcategory>
												<effecttype>motion</effecttype>
												<mediatype>video</mediatype>
												<pproBypass>false</pproBypass>
												<parameter authoringApp="PremierePro">
													<parameterid>scale</parameterid>
													<name>Scale</name>
													<valuemin>0</valuemin>
													<valuemax>1000</valuemax>
													<value>100</value>
												</parameter>
												<parameter authoringApp="PremierePro">
													<parameterid>rotation</parameterid>
													<name>Rotation</name>
													<valuemin>-8640</valuemin>
													<valuemax>8640</valuemax>
													<value>0</value>
												</parameter>
												<parameter authoringApp="PremierePro">
													<parameterid>center</parameterid>
													<name>Center</name>
													<value>
														<horiz>-0.811979</horiz>
														<vert>0</vert>
													</value>
												</parameter>
												<parameter authoringApp="PremierePro">
													<parameterid>centerOffset</parameterid>
													<name>Anchor Point</name>
													<value>
														<horiz>0</horiz>
														<vert>0</vert>
													</value>
												</parameter>
												<parameter authoringApp="PremierePro">
													<parameterid>antiflicker</parameterid>
													<name>Anti-flicker Filter</name>
													<valuemin>0.0</valuemin>
													<valuemax>1.0</valuemax>
													<value>0</value>
												</parameter>
											</effect>
										</filter>
											<marker>
												<comment></comment>
												<name></name>
												<in>153111</in>
												<out>-1</out>
											</marker>
											<marker>
												<comment></comment>
												<name></name>
												<in>131977</in>
												<out>-1</out>
											</marker>
											<marker>
												<comment></comment>
												<name></name>
												<in>119595</in>
												<out>-1</out>
											</marker>
											<marker>
												<comment></comment>
												<name></name>
												<in>112988</in>
												<out>-1</out>
											</marker>
											<marker>
												<comment></comment>
												<name></name>
												<in>118458</in>
												<out>-1</out>
											</marker>
											<marker>
												<comment></comment>
												<name></name>
												<in>108636</in>
												<out>-1</out>
											</marker>
											<marker>
												<comment></comment>
												<name></name>
												<in>121973</in>
												<out>-1</out>
											</marker>
										<logginginfo>
											<description></description>
											<scene></scene>
											<shottake></shottake>
											<lognote></lognote>
											<good></good>
											<originalvideofilename></originalvideofilename>
											<originalaudiofilename></originalaudiofilename>
										</logginginfo>
										<colorinfo>
											<lut></lut>
											<lut1></lut1>
											<asc_sop></asc_sop>
											<asc_sat></asc_sat>
											<lut2></lut2>
										</colorinfo>
										<labels>
										</labels>
									</clipitem>
									<enabled>TRUE</enabled>
									<locked>FALSE</locked>
								</track>
							</video>
							<audio>
								<numOutputChannels>2</numOutputChannels>
								<format>
									<samplecharacteristics>
										<depth>16</depth>
										<samplerate>44100</samplerate>
									</samplecharacteristics>
								</format>
								<outputs>
									<group>
										<index>1</index>
										<numchannels>1</numchannels>
										<downmix>0</downmix>
										<channel>
											<index>1</index>
										</channel>
									</group>
									<group>
										<index>2</index>
										<numchannels>1</numchannels>
										<downmix>0</downmix>
										<channel>
											<index>2</index>
										</channel>
									</group>
								</outputs>
								<track TL.SQTrackExpandedHeight="25" TL.SQTrackExpanded="0" MZ.TrackTargeted="1" PannerCurrentValue="0.5" PannerIsInverted="true" PannerStartKeyframe="-91445760000000000,0.5,0,0,0,0,0,0" PannerName="Balance" currentExplodedTrackIndex="0" totalExplodedTrackCount="2" premiereTrackType="Stereo">
									<enabled>TRUE</enabled>
									<locked>FALSE</locked>
									<outputchannelindex>1</outputchannelindex>
								</track>
								<track TL.SQTrackExpandedHeight="25" TL.SQTrackExpanded="0" MZ.TrackTargeted="1" PannerCurrentValue="0.5" PannerIsInverted="true" PannerStartKeyframe="-91445760000000000,0.5,0,0,0,0,0,0" PannerName="Balance" currentExplodedTrackIndex="1" totalExplodedTrackCount="2" premiereTrackType="Stereo">
									<enabled>TRUE</enabled>
									<locked>FALSE</locked>
									<outputchannelindex>2</outputchannelindex>
								</track>
							</audio>
						</media>
						<timecode>
							<rate>
								<timebase>30</timebase>
								<ntsc>TRUE</ntsc>
							</rate>
							<string>00:00:00:00</string>
							<frame>0</frame>
							<displayformat>NDF</displayformat>
						</timecode>
						<labels>
							<label2>Forest</label2>
						</labels>
						<logginginfo>
							<description></description>
							<scene></scene>
							<shottake></shottake>
							<lognote></lognote>
							<good></good>
							<originalvideofilename></originalvideofilename>
							<originalaudiofilename></originalaudiofilename>
						</logginginfo>
					</sequence>
					<sequence id="sequence-3" TL.SQAudioVisibleBase="0" TL.SQVideoVisibleBase="0" TL.SQVisibleBaseTime="0" TL.SQAVDividerPosition="0.5" TL.SQHideShyTracks="0" TL.SQHeaderWidth="236" Monitor.ProgramZoomOut="47845141344000" Monitor.ProgramZoomIn="0" TL.SQTimePerPixel="0.59066380842023947" MZ.EditLine="12603317126400" MZ.Sequence.PreviewFrameSizeHeight="1080" MZ.Sequence.PreviewFrameSizeWidth="1920" MZ.Sequence.AudioTimeDisplayFormat="200" MZ.Sequence.PreviewRenderingClassID="1297106761" MZ.Sequence.PreviewRenderingPresetCodec="1297107278" MZ.Sequence.PreviewRenderingPresetPath="EncoderPresets/SequencePreview/795454d9-d3c2-429d-9474-923ab13b7018/I-Frame Only MPEG.epr" MZ.Sequence.PreviewUseMaxRenderQuality="false" MZ.Sequence.PreviewUseMaxBitDepth="false" MZ.Sequence.EditingModeGUID="795454d9-d3c2-429d-9474-923ab13b7018" MZ.Sequence.VideoTimeDisplayFormat="103" MZ.WorkOutPoint="47845141344000" MZ.WorkInPoint="0" explodedTracks="true">
						<uuid>d5879c9a-417d-46b8-b055-36d028a67d3b</uuid>
						<duration>0</duration>
						<rate>
							<timebase>30</timebase>
							<ntsc>TRUE</ntsc>
						</rate>
						<name>ATM Bug Left </name>
						<media>
							<video>
								<format>
									<samplecharacteristics>
										<rate>
											<timebase>30</timebase>
											<ntsc>TRUE</ntsc>
										</rate>
										<codec>
											<name>Apple ProRes 422</name>
											<appspecificdata>
												<appname>Final Cut Pro</appname>
												<appmanufacturer>Apple Inc.</appmanufacturer>
												<appversion>7.0</appversion>
												<data>
													<qtcodec>
														<codecname>Apple ProRes 422</codecname>
														<codectypename>Apple ProRes 422</codectypename>
														<codectypecode>apcn</codectypecode>
														<codecvendorcode>appl</codecvendorcode>
														<spatialquality>1024</spatialquality>
														<temporalquality>0</temporalquality>
														<keyframerate>0</keyframerate>
														<datarate>0</datarate>
													</qtcodec>
												</data>
											</appspecificdata>
										</codec>
										<width>1920</width>
										<height>1080</height>
										<anamorphic>FALSE</anamorphic>
										<pixelaspectratio>square</pixelaspectratio>
										<fielddominance>none</fielddominance>
										<colordepth>24</colordepth>
									</samplecharacteristics>
								</format>
								<track TL.SQTrackShy="0" TL.SQTrackExpandedHeight="25" TL.SQTrackExpanded="0" MZ.TrackTargeted="1">
									<enabled>TRUE</enabled>
									<locked>FALSE</locked>
								</track>
								<track TL.SQTrackShy="0" TL.SQTrackExpandedHeight="25" TL.SQTrackExpanded="0" MZ.TrackTargeted="0">
									<clipitem id="clipitem-97">
										<masterclipid>masterclip-50</masterclipid>
										<name>ATM_logo_channels_right-2.png</name>
										<enabled>TRUE</enabled>
										<duration>1294705</duration>
										<rate>
											<timebase>30</timebase>
											<ntsc>TRUE</ntsc>
										</rate>
										<start>0</start>
										<end>5645</end>
										<in>104895</in>
										<out>110540</out>
										<pproTicksIn>889055110944000</pproTicksIn>
										<pproTicksOut>936900252288000</pproTicksOut>
										<alphatype>straight</alphatype>
										<file id="file-50"/>
										<filter>
											<effect>
												<name>Basic Motion</name>
												<effectid>basic</effectid>
												<effectcategory>motion</effectcategory>
												<effecttype>motion</effecttype>
												<mediatype>video</mediatype>
												<pproBypass>false</pproBypass>
												<parameter authoringApp="PremierePro">
													<parameterid>scale</parameterid>
													<name>Scale</name>
													<valuemin>0</valuemin>
													<valuemax>1000</valuemax>
													<value>100</value>
												</parameter>
												<parameter authoringApp="PremierePro">
													<parameterid>rotation</parameterid>
													<name>Rotation</name>
													<valuemin>-8640</valuemin>
													<valuemax>8640</valuemax>
													<value>0</value>
												</parameter>
												<parameter authoringApp="PremierePro">
													<parameterid>center</parameterid>
													<name>Center</name>
													<value>
														<horiz>-0.811979</horiz>
														<vert>0</vert>
													</value>
												</parameter>
												<parameter authoringApp="PremierePro">
													<parameterid>centerOffset</parameterid>
													<name>Anchor Point</name>
													<value>
														<horiz>0</horiz>
														<vert>0</vert>
													</value>
												</parameter>
												<parameter authoringApp="PremierePro">
													<parameterid>antiflicker</parameterid>
													<name>Anti-flicker Filter</name>
													<valuemin>0.0</valuemin>
													<valuemax>1.0</valuemax>
													<value>0</value>
												</parameter>
											</effect>
										</filter>
											<marker>
												<comment></comment>
												<name></name>
												<in>153111</in>
												<out>-1</out>
											</marker>
											<marker>
												<comment></comment>
												<name></name>
												<in>131977</in>
												<out>-1</out>
											</marker>
											<marker>
												<comment></comment>
												<name></name>
												<in>119595</in>
												<out>-1</out>
											</marker>
											<marker>
												<comment></comment>
												<name></name>
												<in>112988</in>
												<out>-1</out>
											</marker>
											<marker>
												<comment></comment>
												<name></name>
												<in>118458</in>
												<out>-1</out>
											</marker>
											<marker>
												<comment></comment>
												<name></name>
												<in>108636</in>
												<out>-1</out>
											</marker>
											<marker>
												<comment></comment>
												<name></name>
												<in>121973</in>
												<out>-1</out>
											</marker>
										<logginginfo>
											<description></description>
											<scene></scene>
											<shottake></shottake>
											<lognote></lognote>
											<good></good>
											<originalvideofilename></originalvideofilename>
											<originalaudiofilename></originalaudiofilename>
										</logginginfo>
										<colorinfo>
											<lut></lut>
											<lut1></lut1>
											<asc_sop></asc_sop>
											<asc_sat></asc_sat>
											<lut2></lut2>
										</colorinfo>
										<labels>
										</labels>
									</clipitem>
									<enabled>TRUE</enabled>
									<locked>FALSE</locked>
								</track>
							</video>
							<audio>
								<numOutputChannels>2</numOutputChannels>
								<format>
									<samplecharacteristics>
										<depth>16</depth>
										<samplerate>44100</samplerate>
									</samplecharacteristics>
								</format>
								<outputs>
									<group>
										<index>1</index>
										<numchannels>1</numchannels>
										<downmix>0</downmix>
										<channel>
											<index>1</index>
										</channel>
									</group>
									<group>
										<index>2</index>
										<numchannels>1</numchannels>
										<downmix>0</downmix>
										<channel>
											<index>2</index>
										</channel>
									</group>
								</outputs>
								<track TL.SQTrackAudioKeyframeStyle="0" TL.SQTrackShy="0" TL.SQTrackExpandedHeight="25" TL.SQTrackExpanded="0" MZ.TrackTargeted="1" PannerCurrentValue="0.5" PannerIsInverted="true" PannerStartKeyframe="-91445760000000000,0.5,0,0,0,0,0,0" PannerName="Balance" currentExplodedTrackIndex="0" totalExplodedTrackCount="2" premiereTrackType="Stereo">
									<enabled>TRUE</enabled>
									<locked>FALSE</locked>
									<outputchannelindex>1</outputchannelindex>
								</track>
								<track TL.SQTrackAudioKeyframeStyle="0" TL.SQTrackShy="0" TL.SQTrackExpandedHeight="25" TL.SQTrackExpanded="0" MZ.TrackTargeted="1" PannerCurrentValue="0.5" PannerIsInverted="true" PannerStartKeyframe="-91445760000000000,0.5,0,0,0,0,0,0" PannerName="Balance" currentExplodedTrackIndex="1" totalExplodedTrackCount="2" premiereTrackType="Stereo">
									<enabled>TRUE</enabled>
									<locked>FALSE</locked>
									<outputchannelindex>2</outputchannelindex>
								</track>
							</audio>
						</media>
						<timecode>
							<rate>
								<timebase>30</timebase>
								<ntsc>TRUE</ntsc>
							</rate>
							<string>00:00:00:00</string>
							<frame>0</frame>
							<displayformat>NDF</displayformat>
						</timecode>
						<labels>
							<label2>Forest</label2>
						</labels>
						<logginginfo>
							<description></description>
							<scene></scene>
							<shottake></shottake>
							<lognote></lognote>
							<good></good>
							<originalvideofilename></originalvideofilename>
							<originalaudiofilename></originalaudiofilename>
						</logginginfo>
					</sequence>
					<clip id="masterclip-51" explodedTracks="true">
						<uuid>be8bf1de-c2fd-4c38-b4bb-1c2446ce9816</uuid>
						<masterclipid>masterclip-51</masterclipid>
						<ismasterclip>TRUE</ismasterclip>
						<duration>5844</duration>
						<rate>
							<timebase>30</timebase>
							<ntsc>TRUE</ntsc>
						</rate>
						<in>724</in>
						<out>1675</out>
						<name>1080/AE Attribution.aep Copy 33</name>
						<media>
							<video>
								<track>
									<clipitem id="clipitem-98">
										<masterclipid>masterclip-51</masterclipid>
										<name>1080/AE Attribution.aep Copy 33</name>
										<rate>
											<timebase>30</timebase>
											<ntsc>TRUE</ntsc>
										</rate>
										<alphatype>straight</alphatype>
										<pixelaspectratio>square</pixelaspectratio>
										<anamorphic>FALSE</anamorphic>
										<file id="file-51">
											<name>1080/AE Attribution.aep</name>
											<pathurl>file://localhost/Volumes/Charlie's%20Extra%20Space%20/1_Alpine%20TV_Projects%20/1_Alpine%20TV_Master%20Assets/Attribution/AE%20Attribution.aep</pathurl>
											<rate>
												<timebase>30</timebase>
												<ntsc>TRUE</ntsc>
											</rate>
											<duration>5844</duration>
											<timecode>
												<rate>
													<timebase>30</timebase>
													<ntsc>TRUE</ntsc>
												</rate>
												<string>00;00;00;00</string>
												<frame>0</frame>
												<displayformat>DF</displayformat>
											</timecode>
											<media>
												<video>
													<samplecharacteristics>
														<rate>
															<timebase>30</timebase>
															<ntsc>TRUE</ntsc>
														</rate>
														<width>1920</width>
														<height>1080</height>
														<anamorphic>FALSE</anamorphic>
														<pixelaspectratio>square</pixelaspectratio>
														<fielddominance>lower</fielddominance>
													</samplecharacteristics>
												</video>
											</media>
										</file>
									</clipitem>
								</track>
							</video>
						</media>
						<logginginfo>
							<description></description>
							<scene></scene>
							<shottake></shottake>
							<lognote></lognote>
							<good></good>
							<originalvideofilename></originalvideofilename>
							<originalaudiofilename></originalaudiofilename>
						</logginginfo>
						<colorinfo>
							<lut></lut>
							<lut1></lut1>
							<asc_sop></asc_sop>
							<asc_sat></asc_sat>
							<lut2></lut2>
						</colorinfo>
						<labels>
							<label2>Rose</label2>
						</labels>
					</clip>
					<clip id="masterclip-52" explodedTracks="true">
						<uuid>7a1bb263-a39e-45ca-a6c6-8ae587d36e5f</uuid>
						<masterclipid>masterclip-52</masterclipid>
						<ismasterclip>TRUE</ismasterclip>
						<duration>5844</duration>
						<rate>
							<timebase>30</timebase>
							<ntsc>TRUE</ntsc>
						</rate>
						<in>724</in>
						<out>872</out>
						<name>1080/AE Attribution.aep Copy 34</name>
						<media>
							<video>
								<track>
									<clipitem id="clipitem-99">
										<masterclipid>masterclip-52</masterclipid>
										<name>1080/AE Attribution.aep Copy 34</name>
										<rate>
											<timebase>30</timebase>
											<ntsc>TRUE</ntsc>
										</rate>
										<alphatype>straight</alphatype>
										<pixelaspectratio>square</pixelaspectratio>
										<anamorphic>FALSE</anamorphic>
										<file id="file-52">
											<name>1080/AE Attribution.aep</name>
											<pathurl>file://localhost/Volumes/Charlie's%20Extra%20Space%20/1_Alpine%20TV_Projects%20/1_Alpine%20TV_Master%20Assets/Attribution/AE%20Attribution.aep</pathurl>
											<rate>
												<timebase>30</timebase>
												<ntsc>TRUE</ntsc>
											</rate>
											<duration>5844</duration>
											<timecode>
												<rate>
													<timebase>30</timebase>
													<ntsc>TRUE</ntsc>
												</rate>
												<string>00;00;00;00</string>
												<frame>0</frame>
												<displayformat>DF</displayformat>
											</timecode>
											<media>
												<video>
													<samplecharacteristics>
														<rate>
															<timebase>30</timebase>
															<ntsc>TRUE</ntsc>
														</rate>
														<width>1920</width>
														<height>1080</height>
														<anamorphic>FALSE</anamorphic>
														<pixelaspectratio>square</pixelaspectratio>
														<fielddominance>lower</fielddominance>
													</samplecharacteristics>
												</video>
											</media>
										</file>
									</clipitem>
								</track>
							</video>
						</media>
						<logginginfo>
							<description></description>
							<scene></scene>
							<shottake></shottake>
							<lognote></lognote>
							<good></good>
							<originalvideofilename></originalvideofilename>
							<originalaudiofilename></originalaudiofilename>
						</logginginfo>
						<colorinfo>
							<lut></lut>
							<lut1></lut1>
							<asc_sop></asc_sop>
							<asc_sat></asc_sat>
							<lut2></lut2>
						</colorinfo>
						<labels>
							<label2>Rose</label2>
						</labels>
					</clip>
					<clip id="masterclip-53" explodedTracks="true">
						<uuid>3ace9e15-eeae-4c87-ad42-5ae2996cc2d8</uuid>
						<masterclipid>masterclip-53</masterclipid>
						<ismasterclip>TRUE</ismasterclip>
						<duration>5844</duration>
						<rate>
							<timebase>30</timebase>
							<ntsc>TRUE</ntsc>
						</rate>
						<in>724</in>
						<out>1675</out>
						<name>1080/AE Attribution.aep Copy 35</name>
						<media>
							<video>
								<track>
									<clipitem id="clipitem-100">
										<masterclipid>masterclip-53</masterclipid>
										<name>1080/AE Attribution.aep Copy 35</name>
										<rate>
											<timebase>30</timebase>
											<ntsc>TRUE</ntsc>
										</rate>
										<alphatype>straight</alphatype>
										<pixelaspectratio>square</pixelaspectratio>
										<anamorphic>FALSE</anamorphic>
										<file id="file-53">
											<name>1080/AE Attribution.aep</name>
											<pathurl>file://localhost/Volumes/Charlie's%20Extra%20Space%20/1_Alpine%20TV_Projects%20/1_Alpine%20TV_Master%20Assets/Attribution/AE%20Attribution.aep</pathurl>
											<rate>
												<timebase>30</timebase>
												<ntsc>TRUE</ntsc>
											</rate>
											<duration>5844</duration>
											<timecode>
												<rate>
													<timebase>30</timebase>
													<ntsc>TRUE</ntsc>
												</rate>
												<string>00;00;00;00</string>
												<frame>0</frame>
												<displayformat>DF</displayformat>
											</timecode>
											<media>
												<video>
													<samplecharacteristics>
														<rate>
															<timebase>30</timebase>
															<ntsc>TRUE</ntsc>
														</rate>
														<width>1920</width>
														<height>1080</height>
														<anamorphic>FALSE</anamorphic>
														<pixelaspectratio>square</pixelaspectratio>
														<fielddominance>lower</fielddominance>
													</samplecharacteristics>
												</video>
											</media>
										</file>
									</clipitem>
								</track>
							</video>
						</media>
						<logginginfo>
							<description></description>
							<scene></scene>
							<shottake></shottake>
							<lognote></lognote>
							<good></good>
							<originalvideofilename></originalvideofilename>
							<originalaudiofilename></originalaudiofilename>
						</logginginfo>
						<colorinfo>
							<lut></lut>
							<lut1></lut1>
							<asc_sop></asc_sop>
							<asc_sat></asc_sat>
							<lut2></lut2>
						</colorinfo>
						<labels>
							<label2>Rose</label2>
						</labels>
					</clip>
					<clip id="masterclip-54" explodedTracks="true">
						<uuid>c9a5c07e-6a2a-4a9e-9f7f-334d04b5c47e</uuid>
						<masterclipid>masterclip-54</masterclipid>
						<ismasterclip>TRUE</ismasterclip>
						<duration>5844</duration>
						<rate>
							<timebase>30</timebase>
							<ntsc>TRUE</ntsc>
						</rate>
						<in>724</in>
						<out>2668</out>
						<name>1080/AE Attribution.aep Copy 36</name>
						<media>
							<video>
								<track>
									<clipitem id="clipitem-101">
										<masterclipid>masterclip-54</masterclipid>
										<name>1080/AE Attribution.aep Copy 36</name>
										<rate>
											<timebase>30</timebase>
											<ntsc>TRUE</ntsc>
										</rate>
										<alphatype>straight</alphatype>
										<pixelaspectratio>square</pixelaspectratio>
										<anamorphic>FALSE</anamorphic>
										<file id="file-54">
											<name>1080/AE Attribution.aep</name>
											<pathurl>file://localhost/Volumes/Charlie's%20Extra%20Space%20/1_Alpine%20TV_Projects%20/1_Alpine%20TV_Master%20Assets/Attribution/AE%20Attribution.aep</pathurl>
											<rate>
												<timebase>30</timebase>
												<ntsc>TRUE</ntsc>
											</rate>
											<duration>5844</duration>
											<timecode>
												<rate>
													<timebase>30</timebase>
													<ntsc>TRUE</ntsc>
												</rate>
												<string>00;00;00;00</string>
												<frame>0</frame>
												<displayformat>DF</displayformat>
											</timecode>
											<media>
												<video>
													<samplecharacteristics>
														<rate>
															<timebase>30</timebase>
															<ntsc>TRUE</ntsc>
														</rate>
														<width>1920</width>
														<height>1080</height>
														<anamorphic>FALSE</anamorphic>
														<pixelaspectratio>square</pixelaspectratio>
														<fielddominance>lower</fielddominance>
													</samplecharacteristics>
												</video>
											</media>
										</file>
									</clipitem>
								</track>
							</video>
						</media>
						<logginginfo>
							<description></description>
							<scene></scene>
							<shottake></shottake>
							<lognote></lognote>
							<good></good>
							<originalvideofilename></originalvideofilename>
							<originalaudiofilename></originalaudiofilename>
						</logginginfo>
						<colorinfo>
							<lut></lut>
							<lut1></lut1>
							<asc_sop></asc_sop>
							<asc_sat></asc_sat>
							<lut2></lut2>
						</colorinfo>
						<labels>
							<label2>Rose</label2>
						</labels>
					</clip>
					<clip id="masterclip-55" explodedTracks="true">
						<uuid>a6376e28-a4d5-4875-84d2-181001e91515</uuid>
						<masterclipid>masterclip-55</masterclipid>
						<ismasterclip>TRUE</ismasterclip>
						<duration>5844</duration>
						<rate>
							<timebase>30</timebase>
							<ntsc>TRUE</ntsc>
						</rate>
						<in>932</in>
						<out>2668</out>
						<name>1080/AE Attribution.aep Copy 37</name>
						<media>
							<video>
								<track>
									<clipitem id="clipitem-102">
										<masterclipid>masterclip-55</masterclipid>
										<name>1080/AE Attribution.aep Copy 37</name>
										<rate>
											<timebase>30</timebase>
											<ntsc>TRUE</ntsc>
										</rate>
										<alphatype>straight</alphatype>
										<pixelaspectratio>square</pixelaspectratio>
										<anamorphic>FALSE</anamorphic>
										<file id="file-55">
											<name>1080/AE Attribution.aep</name>
											<pathurl>file://localhost/Volumes/Charlie's%20Extra%20Space%20/1_Alpine%20TV_Projects%20/1_Alpine%20TV_Master%20Assets/Attribution/AE%20Attribution.aep</pathurl>
											<rate>
												<timebase>30</timebase>
												<ntsc>TRUE</ntsc>
											</rate>
											<duration>5844</duration>
											<timecode>
												<rate>
													<timebase>30</timebase>
													<ntsc>TRUE</ntsc>
												</rate>
												<string>00;00;00;00</string>
												<frame>0</frame>
												<displayformat>DF</displayformat>
											</timecode>
											<media>
												<video>
													<samplecharacteristics>
														<rate>
															<timebase>30</timebase>
															<ntsc>TRUE</ntsc>
														</rate>
														<width>1920</width>
														<height>1080</height>
														<anamorphic>FALSE</anamorphic>
														<pixelaspectratio>square</pixelaspectratio>
														<fielddominance>lower</fielddominance>
													</samplecharacteristics>
												</video>
											</media>
										</file>
									</clipitem>
								</track>
							</video>
						</media>
						<logginginfo>
							<description></description>
							<scene></scene>
							<shottake></shottake>
							<lognote></lognote>
							<good></good>
							<originalvideofilename></originalvideofilename>
							<originalaudiofilename></originalaudiofilename>
						</logginginfo>
						<colorinfo>
							<lut></lut>
							<lut1></lut1>
							<asc_sop></asc_sop>
							<asc_sat></asc_sat>
							<lut2></lut2>
						</colorinfo>
						<labels>
							<label2>Rose</label2>
						</labels>
					</clip>
					<clip id="masterclip-56" explodedTracks="true">
						<uuid>cea74045-c546-4d53-8f53-d8b83fc394d5</uuid>
						<masterclipid>masterclip-56</masterclipid>
						<ismasterclip>TRUE</ismasterclip>
						<duration>5844</duration>
						<rate>
							<timebase>30</timebase>
							<ntsc>TRUE</ntsc>
						</rate>
						<in>932</in>
						<out>2668</out>
						<name>1080/AE Attribution.aep Copy 38</name>
						<media>
							<video>
								<track>
									<clipitem id="clipitem-103">
										<masterclipid>masterclip-56</masterclipid>
										<name>1080/AE Attribution.aep Copy 38</name>
										<rate>
											<timebase>30</timebase>
											<ntsc>TRUE</ntsc>
										</rate>
										<alphatype>straight</alphatype>
										<pixelaspectratio>square</pixelaspectratio>
										<anamorphic>FALSE</anamorphic>
										<file id="file-56">
											<name>1080/AE Attribution.aep</name>
											<pathurl>file://localhost/Volumes/Charlie's%20Extra%20Space%20/1_Alpine%20TV_Projects%20/1_Alpine%20TV_Master%20Assets/Attribution/AE%20Attribution.aep</pathurl>
											<rate>
												<timebase>30</timebase>
												<ntsc>TRUE</ntsc>
											</rate>
											<duration>5844</duration>
											<timecode>
												<rate>
													<timebase>30</timebase>
													<ntsc>TRUE</ntsc>
												</rate>
												<string>00;00;00;00</string>
												<frame>0</frame>
												<displayformat>DF</displayformat>
											</timecode>
											<media>
												<video>
													<samplecharacteristics>
														<rate>
															<timebase>30</timebase>
															<ntsc>TRUE</ntsc>
														</rate>
														<width>1920</width>
														<height>1080</height>
														<anamorphic>FALSE</anamorphic>
														<pixelaspectratio>square</pixelaspectratio>
														<fielddominance>lower</fielddominance>
													</samplecharacteristics>
												</video>
											</media>
										</file>
									</clipitem>
								</track>
							</video>
						</media>
						<logginginfo>
							<description></description>
							<scene></scene>
							<shottake></shottake>
							<lognote></lognote>
							<good></good>
							<originalvideofilename></originalvideofilename>
							<originalaudiofilename></originalaudiofilename>
						</logginginfo>
						<colorinfo>
							<lut></lut>
							<lut1></lut1>
							<asc_sop></asc_sop>
							<asc_sat></asc_sat>
							<lut2></lut2>
						</colorinfo>
						<labels>
							<label2>Rose</label2>
						</labels>
					</clip>
					<clip id="masterclip-57" explodedTracks="true">
						<uuid>9577503a-49fb-4262-aa12-25b6a1a9bc49</uuid>
						<masterclipid>masterclip-57</masterclipid>
						<ismasterclip>TRUE</ismasterclip>
						<duration>5844</duration>
						<rate>
							<timebase>30</timebase>
							<ntsc>TRUE</ntsc>
						</rate>
						<in>932</in>
						<out>2668</out>
						<name>1080/AE Attribution.aep Copy 39</name>
						<media>
							<video>
								<track>
									<clipitem id="clipitem-104">
										<masterclipid>masterclip-57</masterclipid>
										<name>1080/AE Attribution.aep Copy 39</name>
										<rate>
											<timebase>30</timebase>
											<ntsc>TRUE</ntsc>
										</rate>
										<alphatype>straight</alphatype>
										<pixelaspectratio>square</pixelaspectratio>
										<anamorphic>FALSE</anamorphic>
										<file id="file-57">
											<name>1080/AE Attribution.aep</name>
											<pathurl>file://localhost/Volumes/Charlie's%20Extra%20Space%20/1_Alpine%20TV_Projects%20/1_Alpine%20TV_Master%20Assets/Attribution/AE%20Attribution.aep</pathurl>
											<rate>
												<timebase>30</timebase>
												<ntsc>TRUE</ntsc>
											</rate>
											<duration>5844</duration>
											<timecode>
												<rate>
													<timebase>30</timebase>
													<ntsc>TRUE</ntsc>
												</rate>
												<string>00;00;00;00</string>
												<frame>0</frame>
												<displayformat>DF</displayformat>
											</timecode>
											<media>
												<video>
													<samplecharacteristics>
														<rate>
															<timebase>30</timebase>
															<ntsc>TRUE</ntsc>
														</rate>
														<width>1920</width>
														<height>1080</height>
														<anamorphic>FALSE</anamorphic>
														<pixelaspectratio>square</pixelaspectratio>
														<fielddominance>lower</fielddominance>
													</samplecharacteristics>
												</video>
											</media>
										</file>
									</clipitem>
								</track>
							</video>
						</media>
						<logginginfo>
							<description></description>
							<scene></scene>
							<shottake></shottake>
							<lognote></lognote>
							<good></good>
							<originalvideofilename></originalvideofilename>
							<originalaudiofilename></originalaudiofilename>
						</logginginfo>
						<colorinfo>
							<lut></lut>
							<lut1></lut1>
							<asc_sop></asc_sop>
							<asc_sat></asc_sat>
							<lut2></lut2>
						</colorinfo>
						<labels>
							<label2>Rose</label2>
						</labels>
					</clip>
					<clip id="masterclip-58" explodedTracks="true">
						<uuid>c3abc529-6523-4e45-9ef3-7573c919c7fc</uuid>
						<masterclipid>masterclip-58</masterclipid>
						<ismasterclip>TRUE</ismasterclip>
						<duration>5844</duration>
						<rate>
							<timebase>30</timebase>
							<ntsc>TRUE</ntsc>
						</rate>
						<in>724</in>
						<out>2668</out>
						<name>1080/AE Attribution.aep Copy 40</name>
						<media>
							<video>
								<track>
									<clipitem id="clipitem-105">
										<masterclipid>masterclip-58</masterclipid>
										<name>1080/AE Attribution.aep Copy 40</name>
										<rate>
											<timebase>30</timebase>
											<ntsc>TRUE</ntsc>
										</rate>
										<alphatype>straight</alphatype>
										<pixelaspectratio>square</pixelaspectratio>
										<anamorphic>FALSE</anamorphic>
										<file id="file-58">
											<name>1080/AE Attribution.aep</name>
											<pathurl>file://localhost/Volumes/Charlie's%20Extra%20Space%20/1_Alpine%20TV_Projects%20/1_Alpine%20TV_Master%20Assets/Attribution/AE%20Attribution.aep</pathurl>
											<rate>
												<timebase>30</timebase>
												<ntsc>TRUE</ntsc>
											</rate>
											<duration>5844</duration>
											<timecode>
												<rate>
													<timebase>30</timebase>
													<ntsc>TRUE</ntsc>
												</rate>
												<string>00;00;00;00</string>
												<frame>0</frame>
												<displayformat>DF</displayformat>
											</timecode>
											<media>
												<video>
													<samplecharacteristics>
														<rate>
															<timebase>30</timebase>
															<ntsc>TRUE</ntsc>
														</rate>
														<width>1920</width>
														<height>1080</height>
														<anamorphic>FALSE</anamorphic>
														<pixelaspectratio>square</pixelaspectratio>
														<fielddominance>lower</fielddominance>
													</samplecharacteristics>
												</video>
											</media>
										</file>
									</clipitem>
								</track>
							</video>
						</media>
						<logginginfo>
							<description></description>
							<scene></scene>
							<shottake></shottake>
							<lognote></lognote>
							<good></good>
							<originalvideofilename></originalvideofilename>
							<originalaudiofilename></originalaudiofilename>
						</logginginfo>
						<colorinfo>
							<lut></lut>
							<lut1></lut1>
							<asc_sop></asc_sop>
							<asc_sat></asc_sat>
							<lut2></lut2>
						</colorinfo>
						<labels>
							<label2>Rose</label2>
						</labels>
					</clip>
					<clip id="masterclip-59" explodedTracks="true">
						<uuid>543e3cc9-ad2b-4518-9fab-b88cf3060ec8</uuid>
						<masterclipid>masterclip-59</masterclipid>
						<ismasterclip>TRUE</ismasterclip>
						<duration>5844</duration>
						<rate>
							<timebase>30</timebase>
							<ntsc>TRUE</ntsc>
						</rate>
						<in>724</in>
						<out>2668</out>
						<name>1080/AE Attribution.aep Copy 41</name>
						<media>
							<video>
								<track>
									<clipitem id="clipitem-106">
										<masterclipid>masterclip-59</masterclipid>
										<name>1080/AE Attribution.aep Copy 41</name>
										<rate>
											<timebase>30</timebase>
											<ntsc>TRUE</ntsc>
										</rate>
										<alphatype>straight</alphatype>
										<pixelaspectratio>square</pixelaspectratio>
										<anamorphic>FALSE</anamorphic>
										<file id="file-59">
											<name>1080/AE Attribution.aep</name>
											<pathurl>file://localhost/Volumes/Charlie's%20Extra%20Space%20/1_Alpine%20TV_Projects%20/1_Alpine%20TV_Master%20Assets/Attribution/AE%20Attribution.aep</pathurl>
											<rate>
												<timebase>30</timebase>
												<ntsc>TRUE</ntsc>
											</rate>
											<duration>5844</duration>
											<timecode>
												<rate>
													<timebase>30</timebase>
													<ntsc>TRUE</ntsc>
												</rate>
												<string>00;00;00;00</string>
												<frame>0</frame>
												<displayformat>DF</displayformat>
											</timecode>
											<media>
												<video>
													<samplecharacteristics>
														<rate>
															<timebase>30</timebase>
															<ntsc>TRUE</ntsc>
														</rate>
														<width>1920</width>
														<height>1080</height>
														<anamorphic>FALSE</anamorphic>
														<pixelaspectratio>square</pixelaspectratio>
														<fielddominance>lower</fielddominance>
													</samplecharacteristics>
												</video>
											</media>
										</file>
									</clipitem>
								</track>
							</video>
						</media>
						<logginginfo>
							<description></description>
							<scene></scene>
							<shottake></shottake>
							<lognote></lognote>
							<good></good>
							<originalvideofilename></originalvideofilename>
							<originalaudiofilename></originalaudiofilename>
						</logginginfo>
						<colorinfo>
							<lut></lut>
							<lut1></lut1>
							<asc_sop></asc_sop>
							<asc_sat></asc_sat>
							<lut2></lut2>
						</colorinfo>
						<labels>
							<label2>Rose</label2>
						</labels>
					</clip>
					<clip id="masterclip-60" explodedTracks="true">
						<uuid>d31b3f18-654e-44e9-8037-e4ccfc7471dc</uuid>
						<masterclipid>masterclip-60</masterclipid>
						<ismasterclip>TRUE</ismasterclip>
						<duration>5844</duration>
						<rate>
							<timebase>30</timebase>
							<ntsc>TRUE</ntsc>
						</rate>
						<in>932</in>
						<out>2668</out>
						<name>1080/AE Attribution.aep Copy 42</name>
						<media>
							<video>
								<track>
									<clipitem id="clipitem-107">
										<masterclipid>masterclip-60</masterclipid>
										<name>1080/AE Attribution.aep Copy 42</name>
										<rate>
											<timebase>30</timebase>
											<ntsc>TRUE</ntsc>
										</rate>
										<alphatype>straight</alphatype>
										<pixelaspectratio>square</pixelaspectratio>
										<anamorphic>FALSE</anamorphic>
										<file id="file-60">
											<name>1080/AE Attribution.aep</name>
											<pathurl>file://localhost/Volumes/Charlie's%20Extra%20Space%20/1_Alpine%20TV_Projects%20/1_Alpine%20TV_Master%20Assets/Attribution/AE%20Attribution.aep</pathurl>
											<rate>
												<timebase>30</timebase>
												<ntsc>TRUE</ntsc>
											</rate>
											<duration>5844</duration>
											<timecode>
												<rate>
													<timebase>30</timebase>
													<ntsc>TRUE</ntsc>
												</rate>
												<string>00;00;00;00</string>
												<frame>0</frame>
												<displayformat>DF</displayformat>
											</timecode>
											<media>
												<video>
													<samplecharacteristics>
														<rate>
															<timebase>30</timebase>
															<ntsc>TRUE</ntsc>
														</rate>
														<width>1920</width>
														<height>1080</height>
														<anamorphic>FALSE</anamorphic>
														<pixelaspectratio>square</pixelaspectratio>
														<fielddominance>lower</fielddominance>
													</samplecharacteristics>
												</video>
											</media>
										</file>
									</clipitem>
								</track>
							</video>
						</media>
						<logginginfo>
							<description></description>
							<scene></scene>
							<shottake></shottake>
							<lognote></lognote>
							<good></good>
							<originalvideofilename></originalvideofilename>
							<originalaudiofilename></originalaudiofilename>
						</logginginfo>
						<colorinfo>
							<lut></lut>
							<lut1></lut1>
							<asc_sop></asc_sop>
							<asc_sat></asc_sat>
							<lut2></lut2>
						</colorinfo>
						<labels>
							<label2>Rose</label2>
						</labels>
					</clip>
					<clip id="masterclip-61" explodedTracks="true">
						<uuid>6f34c7d9-dc5b-4885-a876-49b573f69eb7</uuid>
						<masterclipid>masterclip-61</masterclipid>
						<ismasterclip>TRUE</ismasterclip>
						<duration>5844</duration>
						<rate>
							<timebase>30</timebase>
							<ntsc>TRUE</ntsc>
						</rate>
						<in>724</in>
						<out>2668</out>
						<name>1080/AE Attribution.aep Copy 43</name>
						<media>
							<video>
								<track>
									<clipitem id="clipitem-108">
										<masterclipid>masterclip-61</masterclipid>
										<name>1080/AE Attribution.aep Copy 43</name>
										<rate>
											<timebase>30</timebase>
											<ntsc>TRUE</ntsc>
										</rate>
										<alphatype>straight</alphatype>
										<pixelaspectratio>square</pixelaspectratio>
										<anamorphic>FALSE</anamorphic>
										<file id="file-61">
											<name>1080/AE Attribution.aep</name>
											<pathurl>file://localhost/Volumes/Charlie's%20Extra%20Space%20/1_Alpine%20TV_Projects%20/1_Alpine%20TV_Master%20Assets/Attribution/AE%20Attribution.aep</pathurl>
											<rate>
												<timebase>30</timebase>
												<ntsc>TRUE</ntsc>
											</rate>
											<duration>5844</duration>
											<timecode>
												<rate>
													<timebase>30</timebase>
													<ntsc>TRUE</ntsc>
												</rate>
												<string>00;00;00;00</string>
												<frame>0</frame>
												<displayformat>DF</displayformat>
											</timecode>
											<media>
												<video>
													<samplecharacteristics>
														<rate>
															<timebase>30</timebase>
															<ntsc>TRUE</ntsc>
														</rate>
														<width>1920</width>
														<height>1080</height>
														<anamorphic>FALSE</anamorphic>
														<pixelaspectratio>square</pixelaspectratio>
														<fielddominance>lower</fielddominance>
													</samplecharacteristics>
												</video>
											</media>
										</file>
									</clipitem>
								</track>
							</video>
						</media>
						<logginginfo>
							<description></description>
							<scene></scene>
							<shottake></shottake>
							<lognote></lognote>
							<good></good>
							<originalvideofilename></originalvideofilename>
							<originalaudiofilename></originalaudiofilename>
						</logginginfo>
						<colorinfo>
							<lut></lut>
							<lut1></lut1>
							<asc_sop></asc_sop>
							<asc_sat></asc_sat>
							<lut2></lut2>
						</colorinfo>
						<labels>
							<label2>Rose</label2>
						</labels>
					</clip>
					<clip id="masterclip-62" explodedTracks="true">
						<uuid>f27d6369-4ba6-474e-b23b-4000d991fa3f</uuid>
						<masterclipid>masterclip-62</masterclipid>
						<ismasterclip>TRUE</ismasterclip>
						<duration>5844</duration>
						<rate>
							<timebase>30</timebase>
							<ntsc>TRUE</ntsc>
						</rate>
						<in>932</in>
						<out>2158</out>
						<name>1080/AE Attribution.aep Copy 44</name>
						<media>
							<video>
								<track>
									<clipitem id="clipitem-109">
										<masterclipid>masterclip-62</masterclipid>
										<name>1080/AE Attribution.aep Copy 44</name>
										<rate>
											<timebase>30</timebase>
											<ntsc>TRUE</ntsc>
										</rate>
										<alphatype>straight</alphatype>
										<pixelaspectratio>square</pixelaspectratio>
										<anamorphic>FALSE</anamorphic>
										<file id="file-62">
											<name>1080/AE Attribution.aep</name>
											<pathurl>file://localhost/Volumes/Charlie's%20Extra%20Space%20/1_Alpine%20TV_Projects%20/1_Alpine%20TV_Master%20Assets/Attribution/AE%20Attribution.aep</pathurl>
											<rate>
												<timebase>30</timebase>
												<ntsc>TRUE</ntsc>
											</rate>
											<duration>5844</duration>
											<timecode>
												<rate>
													<timebase>30</timebase>
													<ntsc>TRUE</ntsc>
												</rate>
												<string>00;00;00;00</string>
												<frame>0</frame>
												<displayformat>DF</displayformat>
											</timecode>
											<media>
												<video>
													<samplecharacteristics>
														<rate>
															<timebase>30</timebase>
															<ntsc>TRUE</ntsc>
														</rate>
														<width>1920</width>
														<height>1080</height>
														<anamorphic>FALSE</anamorphic>
														<pixelaspectratio>square</pixelaspectratio>
														<fielddominance>lower</fielddominance>
													</samplecharacteristics>
												</video>
											</media>
										</file>
									</clipitem>
								</track>
							</video>
						</media>
						<logginginfo>
							<description></description>
							<scene></scene>
							<shottake></shottake>
							<lognote></lognote>
							<good></good>
							<originalvideofilename></originalvideofilename>
							<originalaudiofilename></originalaudiofilename>
						</logginginfo>
						<colorinfo>
							<lut></lut>
							<lut1></lut1>
							<asc_sop></asc_sop>
							<asc_sat></asc_sat>
							<lut2></lut2>
						</colorinfo>
						<labels>
							<label2>Rose</label2>
						</labels>
					</clip>
					<clip id="masterclip-63" explodedTracks="true">
						<uuid>58627906-3f6b-458f-8338-3403632d1019</uuid>
						<masterclipid>masterclip-63</masterclipid>
						<ismasterclip>TRUE</ismasterclip>
						<duration>5844</duration>
						<rate>
							<timebase>30</timebase>
							<ntsc>TRUE</ntsc>
						</rate>
						<in>1443</in>
						<out>2158</out>
						<name>1080/AE Attribution.aep Copy 45</name>
						<media>
							<video>
								<track>
									<clipitem id="clipitem-110">
										<masterclipid>masterclip-63</masterclipid>
										<name>1080/AE Attribution.aep Copy 45</name>
										<rate>
											<timebase>30</timebase>
											<ntsc>TRUE</ntsc>
										</rate>
										<alphatype>straight</alphatype>
										<pixelaspectratio>square</pixelaspectratio>
										<anamorphic>FALSE</anamorphic>
										<file id="file-63">
											<name>1080/AE Attribution.aep</name>
											<pathurl>file://localhost/Volumes/Charlie's%20Extra%20Space%20/1_Alpine%20TV_Projects%20/1_Alpine%20TV_Master%20Assets/Attribution/AE%20Attribution.aep</pathurl>
											<rate>
												<timebase>30</timebase>
												<ntsc>TRUE</ntsc>
											</rate>
											<duration>5844</duration>
											<timecode>
												<rate>
													<timebase>30</timebase>
													<ntsc>TRUE</ntsc>
												</rate>
												<string>00;00;00;00</string>
												<frame>0</frame>
												<displayformat>DF</displayformat>
											</timecode>
											<media>
												<video>
													<samplecharacteristics>
														<rate>
															<timebase>30</timebase>
															<ntsc>TRUE</ntsc>
														</rate>
														<width>1920</width>
														<height>1080</height>
														<anamorphic>FALSE</anamorphic>
														<pixelaspectratio>square</pixelaspectratio>
														<fielddominance>lower</fielddominance>
													</samplecharacteristics>
												</video>
											</media>
										</file>
									</clipitem>
								</track>
							</video>
						</media>
						<logginginfo>
							<description></description>
							<scene></scene>
							<shottake></shottake>
							<lognote></lognote>
							<good></good>
							<originalvideofilename></originalvideofilename>
							<originalaudiofilename></originalaudiofilename>
						</logginginfo>
						<colorinfo>
							<lut></lut>
							<lut1></lut1>
							<asc_sop></asc_sop>
							<asc_sat></asc_sat>
							<lut2></lut2>
						</colorinfo>
						<labels>
							<label2>Rose</label2>
						</labels>
					</clip>
					<clip id="masterclip-64" explodedTracks="true">
						<uuid>27d4366d-27d5-4559-8fe1-105c9af0ca0d</uuid>
						<masterclipid>masterclip-64</masterclipid>
						<ismasterclip>TRUE</ismasterclip>
						<duration>5844</duration>
						<rate>
							<timebase>30</timebase>
							<ntsc>TRUE</ntsc>
						</rate>
						<in>1443</in>
						<out>1583</out>
						<name>1080/AE Attribution.aep Copy 46</name>
						<media>
							<video>
								<track>
									<clipitem id="clipitem-111">
										<masterclipid>masterclip-64</masterclipid>
										<name>1080/AE Attribution.aep Copy 46</name>
										<rate>
											<timebase>30</timebase>
											<ntsc>TRUE</ntsc>
										</rate>
										<alphatype>straight</alphatype>
										<pixelaspectratio>square</pixelaspectratio>
										<anamorphic>FALSE</anamorphic>
										<file id="file-64">
											<name>1080/AE Attribution.aep</name>
											<pathurl>file://localhost/Volumes/Charlie's%20Extra%20Space%20/1_Alpine%20TV_Projects%20/1_Alpine%20TV_Master%20Assets/Attribution/AE%20Attribution.aep</pathurl>
											<rate>
												<timebase>30</timebase>
												<ntsc>TRUE</ntsc>
											</rate>
											<duration>5844</duration>
											<timecode>
												<rate>
													<timebase>30</timebase>
													<ntsc>TRUE</ntsc>
												</rate>
												<string>00;00;00;00</string>
												<frame>0</frame>
												<displayformat>DF</displayformat>
											</timecode>
											<media>
												<video>
													<samplecharacteristics>
														<rate>
															<timebase>30</timebase>
															<ntsc>TRUE</ntsc>
														</rate>
														<width>1920</width>
														<height>1080</height>
														<anamorphic>FALSE</anamorphic>
														<pixelaspectratio>square</pixelaspectratio>
														<fielddominance>lower</fielddominance>
													</samplecharacteristics>
												</video>
											</media>
										</file>
									</clipitem>
								</track>
							</video>
						</media>
						<logginginfo>
							<description></description>
							<scene></scene>
							<shottake></shottake>
							<lognote></lognote>
							<good></good>
							<originalvideofilename></originalvideofilename>
							<originalaudiofilename></originalaudiofilename>
						</logginginfo>
						<colorinfo>
							<lut></lut>
							<lut1></lut1>
							<asc_sop></asc_sop>
							<asc_sat></asc_sat>
							<lut2></lut2>
						</colorinfo>
						<labels>
							<label2>Rose</label2>
						</labels>
					</clip>
					<clip id="masterclip-65" explodedTracks="true">
						<uuid>6c929f9d-2d14-4826-a346-c9e0f64e1658</uuid>
						<masterclipid>masterclip-65</masterclipid>
						<ismasterclip>TRUE</ismasterclip>
						<duration>5844</duration>
						<rate>
							<timebase>30</timebase>
							<ntsc>TRUE</ntsc>
						</rate>
						<in>1443</in>
						<out>2996</out>
						<name>1080/AE Attribution.aep Copy 47</name>
						<media>
							<video>
								<track>
									<clipitem id="clipitem-112">
										<masterclipid>masterclip-65</masterclipid>
										<name>1080/AE Attribution.aep Copy 47</name>
										<rate>
											<timebase>30</timebase>
											<ntsc>TRUE</ntsc>
										</rate>
										<alphatype>straight</alphatype>
										<pixelaspectratio>square</pixelaspectratio>
										<anamorphic>FALSE</anamorphic>
										<file id="file-65">
											<name>1080/AE Attribution.aep</name>
											<pathurl>file://localhost/Volumes/Charlie's%20Extra%20Space%20/1_Alpine%20TV_Projects%20/1_Alpine%20TV_Master%20Assets/Attribution/AE%20Attribution.aep</pathurl>
											<rate>
												<timebase>30</timebase>
												<ntsc>TRUE</ntsc>
											</rate>
											<duration>5844</duration>
											<timecode>
												<rate>
													<timebase>30</timebase>
													<ntsc>TRUE</ntsc>
												</rate>
												<string>00;00;00;00</string>
												<frame>0</frame>
												<displayformat>DF</displayformat>
											</timecode>
											<media>
												<video>
													<samplecharacteristics>
														<rate>
															<timebase>30</timebase>
															<ntsc>TRUE</ntsc>
														</rate>
														<width>1920</width>
														<height>1080</height>
														<anamorphic>FALSE</anamorphic>
														<pixelaspectratio>square</pixelaspectratio>
														<fielddominance>lower</fielddominance>
													</samplecharacteristics>
												</video>
											</media>
										</file>
									</clipitem>
								</track>
							</video>
						</media>
						<logginginfo>
							<description></description>
							<scene></scene>
							<shottake></shottake>
							<lognote></lognote>
							<good></good>
							<originalvideofilename></originalvideofilename>
							<originalaudiofilename></originalaudiofilename>
						</logginginfo>
						<colorinfo>
							<lut></lut>
							<lut1></lut1>
							<asc_sop></asc_sop>
							<asc_sat></asc_sat>
							<lut2></lut2>
						</colorinfo>
						<labels>
							<label2>Rose</label2>
						</labels>
					</clip>
					<clip id="masterclip-66" explodedTracks="true">
						<uuid>8935f156-0d11-4497-ab37-00a2f8b0db9b</uuid>
						<masterclipid>masterclip-66</masterclipid>
						<ismasterclip>TRUE</ismasterclip>
						<duration>5844</duration>
						<rate>
							<timebase>30</timebase>
							<ntsc>TRUE</ntsc>
						</rate>
						<in>1443</in>
						<out>2703</out>
						<name>1080/AE Attribution.aep Copy 48</name>
						<media>
							<video>
								<track>
									<clipitem id="clipitem-113">
										<masterclipid>masterclip-66</masterclipid>
										<name>1080/AE Attribution.aep Copy 48</name>
										<rate>
											<timebase>30</timebase>
											<ntsc>TRUE</ntsc>
										</rate>
										<alphatype>straight</alphatype>
										<pixelaspectratio>square</pixelaspectratio>
										<anamorphic>FALSE</anamorphic>
										<file id="file-66">
											<name>1080/AE Attribution.aep</name>
											<pathurl>file://localhost/Volumes/Charlie's%20Extra%20Space%20/1_Alpine%20TV_Projects%20/1_Alpine%20TV_Master%20Assets/Attribution/AE%20Attribution.aep</pathurl>
											<rate>
												<timebase>30</timebase>
												<ntsc>TRUE</ntsc>
											</rate>
											<duration>5844</duration>
											<timecode>
												<rate>
													<timebase>30</timebase>
													<ntsc>TRUE</ntsc>
												</rate>
												<string>00;00;00;00</string>
												<frame>0</frame>
												<displayformat>DF</displayformat>
											</timecode>
											<media>
												<video>
													<samplecharacteristics>
														<rate>
															<timebase>30</timebase>
															<ntsc>TRUE</ntsc>
														</rate>
														<width>1920</width>
														<height>1080</height>
														<anamorphic>FALSE</anamorphic>
														<pixelaspectratio>square</pixelaspectratio>
														<fielddominance>lower</fielddominance>
													</samplecharacteristics>
												</video>
											</media>
										</file>
									</clipitem>
								</track>
							</video>
						</media>
						<logginginfo>
							<description></description>
							<scene></scene>
							<shottake></shottake>
							<lognote></lognote>
							<good></good>
							<originalvideofilename></originalvideofilename>
							<originalaudiofilename></originalaudiofilename>
						</logginginfo>
						<colorinfo>
							<lut></lut>
							<lut1></lut1>
							<asc_sop></asc_sop>
							<asc_sat></asc_sat>
							<lut2></lut2>
						</colorinfo>
						<labels>
							<label2>Rose</label2>
						</labels>
					</clip>
					<clip id="masterclip-67" explodedTracks="true">
						<uuid>7b2b85a7-74e9-470e-9213-20ed802f485a</uuid>
						<masterclipid>masterclip-67</masterclipid>
						<ismasterclip>TRUE</ismasterclip>
						<duration>5844</duration>
						<rate>
							<timebase>30</timebase>
							<ntsc>TRUE</ntsc>
						</rate>
						<in>1443</in>
						<out>2167</out>
						<name>1080/AE Attribution.aep Copy 49</name>
						<media>
							<video>
								<track>
									<clipitem id="clipitem-114">
										<masterclipid>masterclip-67</masterclipid>
										<name>1080/AE Attribution.aep Copy 49</name>
										<rate>
											<timebase>30</timebase>
											<ntsc>TRUE</ntsc>
										</rate>
										<alphatype>straight</alphatype>
										<pixelaspectratio>square</pixelaspectratio>
										<anamorphic>FALSE</anamorphic>
										<file id="file-67">
											<name>1080/AE Attribution.aep</name>
											<pathurl>file://localhost/Volumes/Charlie's%20Extra%20Space%20/1_Alpine%20TV_Projects%20/1_Alpine%20TV_Master%20Assets/Attribution/AE%20Attribution.aep</pathurl>
											<rate>
												<timebase>30</timebase>
												<ntsc>TRUE</ntsc>
											</rate>
											<duration>5844</duration>
											<timecode>
												<rate>
													<timebase>30</timebase>
													<ntsc>TRUE</ntsc>
												</rate>
												<string>00;00;00;00</string>
												<frame>0</frame>
												<displayformat>DF</displayformat>
											</timecode>
											<media>
												<video>
													<samplecharacteristics>
														<rate>
															<timebase>30</timebase>
															<ntsc>TRUE</ntsc>
														</rate>
														<width>1920</width>
														<height>1080</height>
														<anamorphic>FALSE</anamorphic>
														<pixelaspectratio>square</pixelaspectratio>
														<fielddominance>lower</fielddominance>
													</samplecharacteristics>
												</video>
											</media>
										</file>
									</clipitem>
								</track>
							</video>
						</media>
						<logginginfo>
							<description></description>
							<scene></scene>
							<shottake></shottake>
							<lognote></lognote>
							<good></good>
							<originalvideofilename></originalvideofilename>
							<originalaudiofilename></originalaudiofilename>
						</logginginfo>
						<colorinfo>
							<lut></lut>
							<lut1></lut1>
							<asc_sop></asc_sop>
							<asc_sat></asc_sat>
							<lut2></lut2>
						</colorinfo>
						<labels>
							<label2>Rose</label2>
						</labels>
					</clip>
					<sequence id="sequence-4" TL.SQVisibleBaseTime="0" TL.SQTimePerPixel="0.28585104318292026" MZ.Sequence.PreviewFrameSizeHeight="1080" MZ.Sequence.PreviewFrameSizeWidth="1920" MZ.Sequence.AudioTimeDisplayFormat="200" MZ.Sequence.PreviewRenderingPresetCodec="1297107278" MZ.Sequence.PreviewRenderingPresetPath="EncoderPresets/SequencePreview/795454d9-d3c2-429d-9474-923ab13b7018/I-Frame Only MPEG.epr" MZ.Sequence.PreviewUseMaxRenderQuality="false" MZ.Sequence.PreviewUseMaxBitDepth="false" MZ.Sequence.EditingModeGUID="795454d9-d3c2-429d-9474-923ab13b7018" MZ.Sequence.VideoTimeDisplayFormat="103" MZ.WorkOutPoint="991653062400" MZ.WorkInPoint="0" explodedTracks="true">
						<uuid>66494bcf-1d22-4fc0-b414-0b3c5b72c27d</uuid>
						<duration>0</duration>
						<rate>
							<timebase>30</timebase>
							<ntsc>TRUE</ntsc>
						</rate>
						<name>Trans 1 </name>
						<media>
							<video>
								<format>
									<samplecharacteristics>
										<rate>
											<timebase>30</timebase>
											<ntsc>TRUE</ntsc>
										</rate>
										<codec>
											<name>Apple ProRes 422</name>
											<appspecificdata>
												<appname>Final Cut Pro</appname>
												<appmanufacturer>Apple Inc.</appmanufacturer>
												<appversion>7.0</appversion>
												<data>
													<qtcodec>
														<codecname>Apple ProRes 422</codecname>
														<codectypename>Apple ProRes 422</codectypename>
														<codectypecode>apcn</codectypecode>
														<codecvendorcode>appl</codecvendorcode>
														<spatialquality>1024</spatialquality>
														<temporalquality>0</temporalquality>
														<keyframerate>0</keyframerate>
														<datarate>0</datarate>
													</qtcodec>
												</data>
											</appspecificdata>
										</codec>
										<width>1920</width>
										<height>1080</height>
										<anamorphic>FALSE</anamorphic>
										<pixelaspectratio>square</pixelaspectratio>
										<fielddominance>none</fielddominance>
										<colordepth>24</colordepth>
									</samplecharacteristics>
								</format>
								<track TL.SQTrackExpandedHeight="25" TL.SQTrackExpanded="0" MZ.TrackTargeted="1">
									<enabled>TRUE</enabled>
									<locked>FALSE</locked>
								</track>
								<track>
									<enabled>TRUE</enabled>
									<locked>FALSE</locked>
								</track>
								<track>
									<enabled>TRUE</enabled>
									<locked>FALSE</locked>
								</track>
								<track>
									<enabled>TRUE</enabled>
									<locked>FALSE</locked>
								</track>
								<track>
									<clipitem id="clipitem-115">
										<masterclipid>masterclip-68</masterclipid>
										<name>TRANS 1 </name>
										<enabled>TRUE</enabled>
										<duration>117</duration>
										<rate>
											<timebase>30</timebase>
											<ntsc>TRUE</ntsc>
										</rate>
										<start>0</start>
										<end>117</end>
										<in>0</in>
										<out>117</out>
										<pproTicksIn>0</pproTicksIn>
										<pproTicksOut>991653062400</pproTicksOut>
										<sequence id="sequence-5" TL.SQVisibleBaseTime="0" TL.SQTimePerPixel="0.28585104318292026" MZ.Sequence.PreviewFrameSizeHeight="1080" MZ.Sequence.PreviewFrameSizeWidth="1920" MZ.Sequence.AudioTimeDisplayFormat="200" MZ.Sequence.PreviewRenderingPresetCodec="1297107278" MZ.Sequence.PreviewRenderingPresetPath="EncoderPresets/SequencePreview/795454d9-d3c2-429d-9474-923ab13b7018/I-Frame Only MPEG.epr" MZ.Sequence.PreviewUseMaxRenderQuality="false" MZ.Sequence.PreviewUseMaxBitDepth="false" MZ.Sequence.EditingModeGUID="795454d9-d3c2-429d-9474-923ab13b7018" MZ.Sequence.VideoTimeDisplayFormat="103" MZ.WorkOutPoint="991653062400" MZ.WorkInPoint="0">
											<duration>0</duration>
											<rate>
												<timebase>30</timebase>
												<ntsc>TRUE</ntsc>
											</rate>
											<name>Trans 1 </name>
											<media>
												<video>
													<format>
														<samplecharacteristics>
															<rate>
																<timebase>30</timebase>
																<ntsc>TRUE</ntsc>
															</rate>
															<codec>
																<name>Apple ProRes 422</name>
																<appspecificdata>
																	<appname>Final Cut Pro</appname>
																	<appmanufacturer>Apple Inc.</appmanufacturer>
																	<appversion>7.0</appversion>
																	<data>
																		<qtcodec>
																			<codecname>Apple ProRes 422</codecname>
																			<codectypename>Apple ProRes 422</codectypename>
																			<codectypecode>apcn</codectypecode>
																			<codecvendorcode>appl</codecvendorcode>
																			<spatialquality>1024</spatialquality>
																			<temporalquality>0</temporalquality>
																			<keyframerate>0</keyframerate>
																			<datarate>0</datarate>
																		</qtcodec>
																	</data>
																</appspecificdata>
															</codec>
															<width>1920</width>
															<height>1080</height>
															<anamorphic>FALSE</anamorphic>
															<pixelaspectratio>square</pixelaspectratio>
															<fielddominance>none</fielddominance>
															<colordepth>24</colordepth>
														</samplecharacteristics>
													</format>
													<track TL.SQTrackExpandedHeight="25" TL.SQTrackExpanded="0" MZ.TrackTargeted="1">
														<enabled>TRUE</enabled>
														<locked>FALSE</locked>
													</track>
													<track>
														<enabled>TRUE</enabled>
														<locked>FALSE</locked>
													</track>
													<track>
														<enabled>TRUE</enabled>
														<locked>FALSE</locked>
													</track>
													<track>
														<enabled>TRUE</enabled>
														<locked>FALSE</locked>
													</track>
													<track>
														<clipitem id="clipitem-116">
															<masterclipid>masterclip-69</masterclipid>
															<name>01_ALPINE_Trans.mov</name>
															<enabled>TRUE</enabled>
															<duration>117</duration>
															<rate>
																<timebase>30</timebase>
																<ntsc>TRUE</ntsc>
															</rate>
															<start>0</start>
															<end>117</end>
															<in>0</in>
															<out>117</out>
															<pproTicksIn>0</pproTicksIn>
															<pproTicksOut>991653062400</pproTicksOut>
															<alphatype>none</alphatype>
															<pixelaspectratio>square</pixelaspectratio>
															<anamorphic>FALSE</anamorphic>
															<file id="file-68">
																<name>01_ALPINE_Trans.mov</name>
																<pathurl>file://localhost/Volumes/Charlie's%20Extra%20Space%20/1_Alpine%20TV_Projects%20/1_Alpine%20TV_Master%20Assets/Transitions/Video/01_ALPINE_Trans.mov</pathurl>
																<rate>
																	<timebase>30</timebase>
																	<ntsc>TRUE</ntsc>
																</rate>
																<duration>117</duration>
																<timecode>
																	<rate>
																		<timebase>30</timebase>
																		<ntsc>TRUE</ntsc>
																	</rate>
																	<string>00;00;00;00</string>
																	<frame>0</frame>
																	<displayformat>DF</displayformat>
																</timecode>
																<media>
																	<video>
																		<samplecharacteristics>
																			<rate>
																				<timebase>30</timebase>
																				<ntsc>TRUE</ntsc>
																			</rate>
																			<width>1920</width>
																			<height>1080</height>
																			<anamorphic>FALSE</anamorphic>
																			<pixelaspectratio>square</pixelaspectratio>
																			<fielddominance>none</fielddominance>
																		</samplecharacteristics>
																	</video>
																	<audio>
																		<samplecharacteristics>
																			<depth>16</depth>
																			<samplerate>48000</samplerate>
																		</samplecharacteristics>
																		<channelcount>2</channelcount>
																	</audio>
																</media>
															</file>
																<marker>
																	<comment></comment>
																	<name></name>
																	<in>17</in>
																	<out>-1</out>
																</marker>
																<marker>
																	<comment></comment>
																	<name></name>
																	<in>70</in>
																	<out>-1</out>
																</marker>
															<logginginfo>
																<description></description>
																<scene></scene>
																<shottake></shottake>
																<lognote></lognote>
																<good></good>
																<originalvideofilename></originalvideofilename>
																<originalaudiofilename></originalaudiofilename>
															</logginginfo>
															<colorinfo>
																<lut></lut>
																<lut1></lut1>
																<asc_sop></asc_sop>
																<asc_sat></asc_sat>
																<lut2></lut2>
															</colorinfo>
															<labels>
																<label2>Iris</label2>
															</labels>
														</clipitem>
														<enabled>TRUE</enabled>
														<locked>FALSE</locked>
													</track>
												</video>
												<audio>
													<numOutputChannels>2</numOutputChannels>
													<format>
														<samplecharacteristics>
															<depth>16</depth>
															<samplerate>44100</samplerate>
														</samplecharacteristics>
													</format>
													<outputs>
														<group>
															<index>1</index>
															<numchannels>1</numchannels>
															<downmix>0</downmix>
															<channel>
																<index>1</index>
															</channel>
														</group>
														<group>
															<index>2</index>
															<numchannels>1</numchannels>
															<downmix>0</downmix>
															<channel>
																<index>2</index>
															</channel>
														</group>
													</outputs>
													<track TL.SQTrackExpandedHeight="25" TL.SQTrackExpanded="0" MZ.TrackTargeted="1" PannerCurrentValue="0.5" PannerIsInverted="true" PannerStartKeyframe="-91445760000000000,0.5,0,0,0,0,0,0" PannerName="Balance" currentExplodedTrackIndex="0" totalExplodedTrackCount="2" premiereTrackType="Stereo">
														<enabled>TRUE</enabled>
														<locked>FALSE</locked>
														<outputchannelindex>1</outputchannelindex>
													</track>
													<track TL.SQTrackExpandedHeight="25" TL.SQTrackExpanded="0" MZ.TrackTargeted="1" PannerCurrentValue="0.5" PannerIsInverted="true" PannerStartKeyframe="-91445760000000000,0.5,0,0,0,0,0,0" PannerName="Balance" currentExplodedTrackIndex="1" totalExplodedTrackCount="2" premiereTrackType="Stereo">
														<enabled>TRUE</enabled>
														<locked>FALSE</locked>
														<outputchannelindex>2</outputchannelindex>
													</track>
												</audio>
											</media>
											<timecode>
												<rate>
													<timebase>30</timebase>
													<ntsc>TRUE</ntsc>
												</rate>
												<string>00:00:00:00</string>
												<frame>0</frame>
												<displayformat>NDF</displayformat>
											</timecode>
											<logginginfo>
												<description></description>
												<scene></scene>
												<shottake></shottake>
												<lognote></lognote>
												<good></good>
												<originalvideofilename></originalvideofilename>
												<originalaudiofilename></originalaudiofilename>
											</logginginfo>
										</sequence>
										<labels>
											<label2>Forest</label2>
										</labels>
									</clipitem>
									<enabled>TRUE</enabled>
									<locked>FALSE</locked>
								</track>
							</video>
							<audio>
								<numOutputChannels>2</numOutputChannels>
								<format>
									<samplecharacteristics>
										<depth>16</depth>
										<samplerate>44100</samplerate>
									</samplecharacteristics>
								</format>
								<outputs>
									<group>
										<index>1</index>
										<numchannels>1</numchannels>
										<downmix>0</downmix>
										<channel>
											<index>1</index>
										</channel>
									</group>
									<group>
										<index>2</index>
										<numchannels>1</numchannels>
										<downmix>0</downmix>
										<channel>
											<index>2</index>
										</channel>
									</group>
								</outputs>
								<track TL.SQTrackExpandedHeight="25" TL.SQTrackExpanded="0" MZ.TrackTargeted="1" PannerCurrentValue="0.5" PannerIsInverted="true" PannerStartKeyframe="-91445760000000000,0.5,0,0,0,0,0,0" PannerName="Balance" currentExplodedTrackIndex="0" totalExplodedTrackCount="2" premiereTrackType="Stereo">
									<enabled>TRUE</enabled>
									<locked>FALSE</locked>
									<outputchannelindex>1</outputchannelindex>
								</track>
								<track TL.SQTrackExpandedHeight="25" TL.SQTrackExpanded="0" MZ.TrackTargeted="1" PannerCurrentValue="0.5" PannerIsInverted="true" PannerStartKeyframe="-91445760000000000,0.5,0,0,0,0,0,0" PannerName="Balance" currentExplodedTrackIndex="1" totalExplodedTrackCount="2" premiereTrackType="Stereo">
									<enabled>TRUE</enabled>
									<locked>FALSE</locked>
									<outputchannelindex>2</outputchannelindex>
								</track>
								<track PannerCurrentValue="0.5" PannerIsInverted="true" PannerStartKeyframe="-91445760000000000,0.5,0,0,0,0,0,0" PannerName="Balance" currentExplodedTrackIndex="0" totalExplodedTrackCount="2" premiereTrackType="Stereo">
									<clipitem id="clipitem-117" premiereChannelType="stereo">
										<masterclipid>masterclip-69</masterclipid>
										<name>01_ALPINE_Trans.mov</name>
										<enabled>TRUE</enabled>
										<duration>117</duration>
										<rate>
											<timebase>30</timebase>
											<ntsc>TRUE</ntsc>
										</rate>
										<start>0</start>
										<end>117</end>
										<in>0</in>
										<out>117</out>
										<pproTicksIn>0</pproTicksIn>
										<pproTicksOut>991653062400</pproTicksOut>
										<file id="file-68"/>
										<sourcetrack>
											<mediatype>audio</mediatype>
											<trackindex>1</trackindex>
										</sourcetrack>
										<filter>
											<effect>
												<name>Gain</name>
												<effectid>{61756678, 4761696e, 4b657947}</effectid>
												<effecttype>filter</effecttype>
												<mediatype>audio</mediatype>
												<parameter authoringApp="PremierePro">
													<parameterid>Gain(dB)</parameterid>
													<name>Gain(dB)</name>
													<valuemin>-96</valuemin>
													<valuemax>96</valuemax>
													<value>-4</value>
												</parameter>
											</effect>
										</filter>
											<marker>
												<comment></comment>
												<name></name>
												<in>17</in>
												<out>-1</out>
											</marker>
											<marker>
												<comment></comment>
												<name></name>
												<in>70</in>
												<out>-1</out>
											</marker>
										<link>
											<linkclipref>clipitem-117</linkclipref>
											<mediatype>audio</mediatype>
											<trackindex>3</trackindex>
											<clipindex>1</clipindex>
											<groupindex>1</groupindex>
										</link>
										<link>
											<linkclipref>clipitem-118</linkclipref>
											<mediatype>audio</mediatype>
											<trackindex>4</trackindex>
											<clipindex>1</clipindex>
											<groupindex>1</groupindex>
										</link>
										<logginginfo>
											<description></description>
											<scene></scene>
											<shottake></shottake>
											<lognote></lognote>
											<good></good>
											<originalvideofilename></originalvideofilename>
											<originalaudiofilename></originalaudiofilename>
										</logginginfo>
										<colorinfo>
											<lut></lut>
											<lut1></lut1>
											<asc_sop></asc_sop>
											<asc_sat></asc_sat>
											<lut2></lut2>
										</colorinfo>
										<labels>
											<label2>Iris</label2>
										</labels>
									</clipitem>
									<enabled>TRUE</enabled>
									<locked>FALSE</locked>
									<outputchannelindex>1</outputchannelindex>
								</track>
								<track PannerCurrentValue="0.5" PannerIsInverted="true" PannerStartKeyframe="-91445760000000000,0.5,0,0,0,0,0,0" PannerName="Balance" currentExplodedTrackIndex="1" totalExplodedTrackCount="2" premiereTrackType="Stereo">
									<clipitem id="clipitem-118" premiereChannelType="stereo">
										<masterclipid>masterclip-69</masterclipid>
										<name>01_ALPINE_Trans.mov</name>
										<enabled>TRUE</enabled>
										<duration>117</duration>
										<rate>
											<timebase>30</timebase>
											<ntsc>TRUE</ntsc>
										</rate>
										<start>0</start>
										<end>117</end>
										<in>0</in>
										<out>117</out>
										<pproTicksIn>0</pproTicksIn>
										<pproTicksOut>991653062400</pproTicksOut>
										<file id="file-68"/>
										<sourcetrack>
											<mediatype>audio</mediatype>
											<trackindex>2</trackindex>
										</sourcetrack>
										<filter>
											<effect>
												<name>Gain</name>
												<effectid>{61756678, 4761696e, 4b657947}</effectid>
												<effecttype>filter</effecttype>
												<mediatype>audio</mediatype>
												<parameter authoringApp="PremierePro">
													<parameterid>Gain(dB)</parameterid>
													<name>Gain(dB)</name>
													<valuemin>-96</valuemin>
													<valuemax>96</valuemax>
													<value>-4</value>
												</parameter>
											</effect>
										</filter>
											<marker>
												<comment></comment>
												<name></name>
												<in>17</in>
												<out>-1</out>
											</marker>
											<marker>
												<comment></comment>
												<name></name>
												<in>70</in>
												<out>-1</out>
											</marker>
										<link>
											<linkclipref>clipitem-117</linkclipref>
											<mediatype>audio</mediatype>
											<trackindex>3</trackindex>
											<clipindex>1</clipindex>
											<groupindex>1</groupindex>
										</link>
										<link>
											<linkclipref>clipitem-118</linkclipref>
											<mediatype>audio</mediatype>
											<trackindex>4</trackindex>
											<clipindex>1</clipindex>
											<groupindex>1</groupindex>
										</link>
										<logginginfo>
											<description></description>
											<scene></scene>
											<shottake></shottake>
											<lognote></lognote>
											<good></good>
											<originalvideofilename></originalvideofilename>
											<originalaudiofilename></originalaudiofilename>
										</logginginfo>
										<colorinfo>
											<lut></lut>
											<lut1></lut1>
											<asc_sop></asc_sop>
											<asc_sat></asc_sat>
											<lut2></lut2>
										</colorinfo>
										<labels>
											<label2>Iris</label2>
										</labels>
									</clipitem>
									<enabled>TRUE</enabled>
									<locked>FALSE</locked>
									<outputchannelindex>2</outputchannelindex>
								</track>
							</audio>
						</media>
						<timecode>
							<rate>
								<timebase>30</timebase>
								<ntsc>TRUE</ntsc>
							</rate>
							<string>00:00:00:00</string>
							<frame>0</frame>
							<displayformat>NDF</displayformat>
						</timecode>
						<labels>
							<label2>Forest</label2>
						</labels>
						<logginginfo>
							<description></description>
							<scene></scene>
							<shottake></shottake>
							<lognote></lognote>
							<good></good>
							<originalvideofilename></originalvideofilename>
							<originalaudiofilename></originalaudiofilename>
						</logginginfo>
					</sequence>
					<sequence id="sequence-6" TL.SQVisibleBaseTime="0" TL.SQTimePerPixel="0.28585104318292026" MZ.Sequence.PreviewFrameSizeHeight="1080" MZ.Sequence.PreviewFrameSizeWidth="1920" MZ.Sequence.AudioTimeDisplayFormat="200" MZ.Sequence.PreviewRenderingPresetCodec="1297107278" MZ.Sequence.PreviewRenderingPresetPath="EncoderPresets/SequencePreview/795454d9-d3c2-429d-9474-923ab13b7018/I-Frame Only MPEG.epr" MZ.Sequence.PreviewUseMaxRenderQuality="false" MZ.Sequence.PreviewUseMaxBitDepth="false" MZ.Sequence.EditingModeGUID="795454d9-d3c2-429d-9474-923ab13b7018" MZ.Sequence.VideoTimeDisplayFormat="103" MZ.WorkOutPoint="652626374400" MZ.WorkInPoint="0" explodedTracks="true">
						<uuid>6a6a8472-ff9c-430c-a34c-3cad83a1d172</uuid>
						<duration>0</duration>
						<rate>
							<timebase>30</timebase>
							<ntsc>TRUE</ntsc>
						</rate>
						<name>Trans 2</name>
						<media>
							<video>
								<format>
									<samplecharacteristics>
										<rate>
											<timebase>30</timebase>
											<ntsc>TRUE</ntsc>
										</rate>
										<codec>
											<name>Apple ProRes 422</name>
											<appspecificdata>
												<appname>Final Cut Pro</appname>
												<appmanufacturer>Apple Inc.</appmanufacturer>
												<appversion>7.0</appversion>
												<data>
													<qtcodec>
														<codecname>Apple ProRes 422</codecname>
														<codectypename>Apple ProRes 422</codectypename>
														<codectypecode>apcn</codectypecode>
														<codecvendorcode>appl</codecvendorcode>
														<spatialquality>1024</spatialquality>
														<temporalquality>0</temporalquality>
														<keyframerate>0</keyframerate>
														<datarate>0</datarate>
													</qtcodec>
												</data>
											</appspecificdata>
										</codec>
										<width>1920</width>
										<height>1080</height>
										<anamorphic>FALSE</anamorphic>
										<pixelaspectratio>square</pixelaspectratio>
										<fielddominance>none</fielddominance>
										<colordepth>24</colordepth>
									</samplecharacteristics>
								</format>
								<track TL.SQTrackExpandedHeight="25" TL.SQTrackExpanded="0" MZ.TrackTargeted="1">
									<enabled>TRUE</enabled>
									<locked>FALSE</locked>
								</track>
								<track>
									<enabled>TRUE</enabled>
									<locked>FALSE</locked>
								</track>
								<track>
									<enabled>TRUE</enabled>
									<locked>FALSE</locked>
								</track>
								<track>
									<enabled>TRUE</enabled>
									<locked>FALSE</locked>
								</track>
								<track>
									<clipitem id="clipitem-119">
										<masterclipid>masterclip-70</masterclipid>
										<name>03_ALPINE_Trans.mov</name>
										<enabled>TRUE</enabled>
										<duration>77</duration>
										<rate>
											<timebase>30</timebase>
											<ntsc>TRUE</ntsc>
										</rate>
										<start>0</start>
										<end>77</end>
										<in>0</in>
										<out>77</out>
										<pproTicksIn>0</pproTicksIn>
										<pproTicksOut>652626374400</pproTicksOut>
										<alphatype>none</alphatype>
										<pixelaspectratio>square</pixelaspectratio>
										<anamorphic>FALSE</anamorphic>
										<file id="file-69">
											<name>03_ALPINE_Trans.mov</name>
											<pathurl>file://localhost/Volumes/Charlie's%20Extra%20Space%20/1_Alpine%20TV_Projects%20/1_Alpine%20TV_Master%20Assets/Transitions/Video/03_ALPINE_Trans.mov</pathurl>
											<rate>
												<timebase>30</timebase>
												<ntsc>TRUE</ntsc>
											</rate>
											<duration>77</duration>
											<timecode>
												<rate>
													<timebase>30</timebase>
													<ntsc>TRUE</ntsc>
												</rate>
												<string>00;00;00;03</string>
												<frame>3</frame>
												<displayformat>DF</displayformat>
											</timecode>
											<media>
												<video>
													<samplecharacteristics>
														<rate>
															<timebase>30</timebase>
															<ntsc>TRUE</ntsc>
														</rate>
														<width>1920</width>
														<height>1080</height>
														<anamorphic>FALSE</anamorphic>
														<pixelaspectratio>square</pixelaspectratio>
														<fielddominance>none</fielddominance>
													</samplecharacteristics>
												</video>
												<audio>
													<samplecharacteristics>
														<depth>16</depth>
														<samplerate>48000</samplerate>
													</samplecharacteristics>
													<channelcount>2</channelcount>
												</audio>
											</media>
										</file>
											<marker>
												<comment></comment>
												<name></name>
												<in>60</in>
												<out>-1</out>
											</marker>
											<marker>
												<comment></comment>
												<name></name>
												<in>19</in>
												<out>-1</out>
											</marker>
										<logginginfo>
											<description></description>
											<scene></scene>
											<shottake></shottake>
											<lognote></lognote>
											<good></good>
											<originalvideofilename></originalvideofilename>
											<originalaudiofilename></originalaudiofilename>
										</logginginfo>
										<colorinfo>
											<lut></lut>
											<lut1></lut1>
											<asc_sop></asc_sop>
											<asc_sat></asc_sat>
											<lut2></lut2>
										</colorinfo>
										<labels>
											<label2>Iris</label2>
										</labels>
									</clipitem>
									<enabled>TRUE</enabled>
									<locked>FALSE</locked>
								</track>
							</video>
							<audio>
								<numOutputChannels>2</numOutputChannels>
								<format>
									<samplecharacteristics>
										<depth>16</depth>
										<samplerate>44100</samplerate>
									</samplecharacteristics>
								</format>
								<outputs>
									<group>
										<index>1</index>
										<numchannels>1</numchannels>
										<downmix>0</downmix>
										<channel>
											<index>1</index>
										</channel>
									</group>
									<group>
										<index>2</index>
										<numchannels>1</numchannels>
										<downmix>0</downmix>
										<channel>
											<index>2</index>
										</channel>
									</group>
								</outputs>
								<track TL.SQTrackExpandedHeight="25" TL.SQTrackExpanded="0" MZ.TrackTargeted="1" PannerCurrentValue="0.5" PannerIsInverted="true" PannerStartKeyframe="-91445760000000000,0.5,0,0,0,0,0,0" PannerName="Balance" currentExplodedTrackIndex="0" totalExplodedTrackCount="2" premiereTrackType="Stereo">
									<enabled>TRUE</enabled>
									<locked>FALSE</locked>
									<outputchannelindex>1</outputchannelindex>
								</track>
								<track TL.SQTrackExpandedHeight="25" TL.SQTrackExpanded="0" MZ.TrackTargeted="1" PannerCurrentValue="0.5" PannerIsInverted="true" PannerStartKeyframe="-91445760000000000,0.5,0,0,0,0,0,0" PannerName="Balance" currentExplodedTrackIndex="1" totalExplodedTrackCount="2" premiereTrackType="Stereo">
									<enabled>TRUE</enabled>
									<locked>FALSE</locked>
									<outputchannelindex>2</outputchannelindex>
								</track>
							</audio>
						</media>
						<timecode>
							<rate>
								<timebase>30</timebase>
								<ntsc>TRUE</ntsc>
							</rate>
							<string>00:00:00:00</string>
							<frame>0</frame>
							<displayformat>NDF</displayformat>
						</timecode>
						<labels>
							<label2>Forest</label2>
						</labels>
						<logginginfo>
							<description></description>
							<scene></scene>
							<shottake></shottake>
							<lognote></lognote>
							<good></good>
							<originalvideofilename></originalvideofilename>
							<originalaudiofilename></originalaudiofilename>
						</logginginfo>
					</sequence>
<sequence id="sequence-5"/>
					<sequence id="sequence-7" TL.SQAudioVisibleBase="0" TL.SQVideoVisibleBase="0" TL.SQVisibleBaseTime="0" TL.SQAVDividerPosition="0.5" TL.SQHideShyTracks="0" TL.SQHeaderWidth="236" Monitor.ProgramZoomOut="46277142912000" Monitor.ProgramZoomIn="0" TL.SQTimePerPixel="0.28585104318291882" MZ.EditLine="7161938784000" MZ.Sequence.PreviewFrameSizeHeight="1080" MZ.Sequence.PreviewFrameSizeWidth="1920" MZ.Sequence.AudioTimeDisplayFormat="200" MZ.Sequence.PreviewRenderingPresetCodec="1297107278" MZ.Sequence.PreviewRenderingPresetPath="EncoderPresets/SequencePreview/795454d9-d3c2-429d-9474-923ab13b7018/I-Frame Only MPEG.epr" MZ.Sequence.PreviewUseMaxRenderQuality="false" MZ.Sequence.PreviewUseMaxBitDepth="false" MZ.Sequence.EditingModeGUID="795454d9-d3c2-429d-9474-923ab13b7018" MZ.Sequence.VideoTimeDisplayFormat="103" MZ.WorkOutPoint="46277142912000" MZ.WorkInPoint="0" explodedTracks="true">
						<uuid>095d9baf-13e8-4aaf-b240-98ce7215d9a0</uuid>
						<duration>0</duration>
						<rate>
							<timebase>30</timebase>
							<ntsc>TRUE</ntsc>
						</rate>
						<name>ATM BUG RIGHT </name>
						<media>
							<video>
								<format>
									<samplecharacteristics>
										<rate>
											<timebase>30</timebase>
											<ntsc>TRUE</ntsc>
										</rate>
										<codec>
											<name>Apple ProRes 422</name>
											<appspecificdata>
												<appname>Final Cut Pro</appname>
												<appmanufacturer>Apple Inc.</appmanufacturer>
												<appversion>7.0</appversion>
												<data>
													<qtcodec>
														<codecname>Apple ProRes 422</codecname>
														<codectypename>Apple ProRes 422</codectypename>
														<codectypecode>apcn</codectypecode>
														<codecvendorcode>appl</codecvendorcode>
														<spatialquality>1024</spatialquality>
														<temporalquality>0</temporalquality>
														<keyframerate>0</keyframerate>
														<datarate>0</datarate>
													</qtcodec>
												</data>
											</appspecificdata>
										</codec>
										<width>1920</width>
										<height>1080</height>
										<anamorphic>FALSE</anamorphic>
										<pixelaspectratio>square</pixelaspectratio>
										<fielddominance>none</fielddominance>
										<colordepth>24</colordepth>
									</samplecharacteristics>
								</format>
								<track TL.SQTrackShy="0" TL.SQTrackExpandedHeight="25" TL.SQTrackExpanded="0" MZ.TrackTargeted="1">
									<enabled>TRUE</enabled>
									<locked>FALSE</locked>
								</track>
								<track TL.SQTrackShy="0" TL.SQTrackExpandedHeight="25" TL.SQTrackExpanded="0" MZ.TrackTargeted="0">
									<enabled>TRUE</enabled>
									<locked>FALSE</locked>
								</track>
								<track TL.SQTrackShy="0" TL.SQTrackExpandedHeight="25" TL.SQTrackExpanded="0" MZ.TrackTargeted="0">
									<enabled>TRUE</enabled>
									<locked>FALSE</locked>
								</track>
								<track TL.SQTrackShy="0" TL.SQTrackExpandedHeight="25" TL.SQTrackExpanded="0" MZ.TrackTargeted="0">
									<clipitem id="clipitem-120">
										<masterclipid>masterclip-49</masterclipid>
										<name>ATM BUG_1080_Top Left.png</name>
										<enabled>TRUE</enabled>
										<duration>1294705</duration>
										<rate>
											<timebase>30</timebase>
											<ntsc>TRUE</ntsc>
										</rate>
										<start>0</start>
										<end>5460</end>
										<in>105832</in>
										<out>111292</out>
										<pproTicksIn>896996811110400</pproTicksIn>
										<pproTicksOut>943273954022400</pproTicksOut>
										<alphatype>straight</alphatype>
										<file id="file-49"/>
										<logginginfo>
											<description></description>
											<scene></scene>
											<shottake></shottake>
											<lognote></lognote>
											<good></good>
											<originalvideofilename></originalvideofilename>
											<originalaudiofilename></originalaudiofilename>
										</logginginfo>
										<colorinfo>
											<lut></lut>
											<lut1></lut1>
											<asc_sop></asc_sop>
											<asc_sat></asc_sat>
											<lut2></lut2>
										</colorinfo>
										<labels>
											<label2>Lavender</label2>
										</labels>
									</clipitem>
									<enabled>TRUE</enabled>
									<locked>FALSE</locked>
								</track>
							</video>
							<audio>
								<numOutputChannels>2</numOutputChannels>
								<format>
									<samplecharacteristics>
										<depth>16</depth>
										<samplerate>44100</samplerate>
									</samplecharacteristics>
								</format>
								<outputs>
									<group>
										<index>1</index>
										<numchannels>1</numchannels>
										<downmix>0</downmix>
										<channel>
											<index>1</index>
										</channel>
									</group>
									<group>
										<index>2</index>
										<numchannels>1</numchannels>
										<downmix>0</downmix>
										<channel>
											<index>2</index>
										</channel>
									</group>
								</outputs>
								<track TL.SQTrackAudioKeyframeStyle="0" TL.SQTrackShy="0" TL.SQTrackExpandedHeight="25" TL.SQTrackExpanded="0" MZ.TrackTargeted="1" PannerCurrentValue="0.5" PannerIsInverted="true" PannerStartKeyframe="-91445760000000000,0.5,0,0,0,0,0,0" PannerName="Balance" currentExplodedTrackIndex="0" totalExplodedTrackCount="2" premiereTrackType="Stereo">
									<enabled>TRUE</enabled>
									<locked>FALSE</locked>
									<outputchannelindex>1</outputchannelindex>
								</track>
								<track TL.SQTrackAudioKeyframeStyle="0" TL.SQTrackShy="0" TL.SQTrackExpandedHeight="25" TL.SQTrackExpanded="0" MZ.TrackTargeted="1" PannerCurrentValue="0.5" PannerIsInverted="true" PannerStartKeyframe="-91445760000000000,0.5,0,0,0,0,0,0" PannerName="Balance" currentExplodedTrackIndex="1" totalExplodedTrackCount="2" premiereTrackType="Stereo">
									<enabled>TRUE</enabled>
									<locked>FALSE</locked>
									<outputchannelindex>2</outputchannelindex>
								</track>
							</audio>
						</media>
						<timecode>
							<rate>
								<timebase>30</timebase>
								<ntsc>TRUE</ntsc>
							</rate>
							<string>00:00:00:00</string>
							<frame>0</frame>
							<displayformat>NDF</displayformat>
						</timecode>
						<labels>
							<label2>Forest</label2>
						</labels>
						<logginginfo>
							<description></description>
							<scene></scene>
							<shottake></shottake>
							<lognote></lognote>
							<good></good>
							<originalvideofilename></originalvideofilename>
							<originalaudiofilename></originalaudiofilename>
						</logginginfo>
					</sequence>
					<clip id="masterclip-71" explodedTracks="true">
						<uuid>b94e860e-b50b-418c-9a03-51cb947fa70b</uuid>
						<masterclipid>masterclip-71</masterclipid>
						<ismasterclip>TRUE</ismasterclip>
						<duration>150</duration>
						<rate>
							<timebase>30</timebase>
							<ntsc>TRUE</ntsc>
						</rate>
						<in>0</in>
						<out>149</out>
						<name>Logo_1080_People Are Awesome V2_Right.png</name>
						<media>
							<video>
								<track>
									<clipitem id="clipitem-121">
										<masterclipid>masterclip-71</masterclipid>
										<name>Logo_1080_People Are Awesome V2_Right.png</name>
										<rate>
											<timebase>30</timebase>
											<ntsc>TRUE</ntsc>
										</rate>
										<alphatype>straight</alphatype>
										<pixelaspectratio>square</pixelaspectratio>
										<anamorphic>FALSE</anamorphic>
										<file id="file-70">
											<name>Logo_1080_People Are Awesome V2_Right.png</name>
											<pathurl>file://localhost/Volumes/Charlie's%20Extra%20Space%20/Alpine%20TV_Master%20Assets/Logo_1080_People%20Are%20Awesome%20V2_Right.png</pathurl>
											<rate>
												<timebase>30</timebase>
												<ntsc>TRUE</ntsc>
											</rate>
											<timecode>
												<rate>
													<timebase>30</timebase>
													<ntsc>TRUE</ntsc>
												</rate>
												<string>00:00:02:15</string>
												<frame>75</frame>
												<displayformat>NDF</displayformat>
											</timecode>
											<media>
												<video>
													<samplecharacteristics>
														<rate>
															<timebase>30</timebase>
															<ntsc>TRUE</ntsc>
														</rate>
														<width>1920</width>
														<height>1080</height>
														<anamorphic>FALSE</anamorphic>
														<pixelaspectratio>square</pixelaspectratio>
														<fielddominance>none</fielddominance>
													</samplecharacteristics>
												</video>
											</media>
										</file>
									</clipitem>
								</track>
							</video>
						</media>
						<logginginfo>
							<description></description>
							<scene></scene>
							<shottake></shottake>
							<lognote></lognote>
							<good></good>
							<originalvideofilename></originalvideofilename>
							<originalaudiofilename></originalaudiofilename>
						</logginginfo>
						<colorinfo>
							<lut></lut>
							<lut1></lut1>
							<asc_sop></asc_sop>
							<asc_sat></asc_sat>
							<lut2></lut2>
						</colorinfo>
						<labels>
							<label2>Lavender</label2>
						</labels>
					</clip>
					<clip id="masterclip-50" explodedTracks="true">
						<uuid>1f294831-8ad7-47ec-94d5-428682e280ec</uuid>
						<masterclipid>masterclip-50</masterclipid>
						<ismasterclip>TRUE</ismasterclip>
						<duration>150</duration>
						<rate>
							<timebase>30</timebase>
							<ntsc>TRUE</ntsc>
						</rate>
						<in>0</in>
						<out>149</out>
						<name>ATM_logo_channels_right-2.png</name>
						<media>
							<video>
								<track>
									<clipitem id="clipitem-122">
										<masterclipid>masterclip-50</masterclipid>
										<name>ATM_logo_channels_right-2.png</name>
										<rate>
											<timebase>30</timebase>
											<ntsc>TRUE</ntsc>
										</rate>
										<alphatype>straight</alphatype>
										<file id="file-50"/>
									</clipitem>
								</track>
							</video>
						</media>
							<marker>
								<comment></comment>
								<name></name>
								<in>153111</in>
								<out>-1</out>
							</marker>
							<marker>
								<comment></comment>
								<name></name>
								<in>131977</in>
								<out>-1</out>
							</marker>
							<marker>
								<comment></comment>
								<name></name>
								<in>119595</in>
								<out>-1</out>
							</marker>
							<marker>
								<comment></comment>
								<name></name>
								<in>112988</in>
								<out>-1</out>
							</marker>
							<marker>
								<comment></comment>
								<name></name>
								<in>118458</in>
								<out>-1</out>
							</marker>
							<marker>
								<comment></comment>
								<name></name>
								<in>108636</in>
								<out>-1</out>
							</marker>
							<marker>
								<comment></comment>
								<name></name>
								<in>121973</in>
								<out>-1</out>
							</marker>
						<logginginfo>
							<description></description>
							<scene></scene>
							<shottake></shottake>
							<lognote></lognote>
							<good></good>
							<originalvideofilename></originalvideofilename>
							<originalaudiofilename></originalaudiofilename>
						</logginginfo>
						<colorinfo>
							<lut></lut>
							<lut1></lut1>
							<asc_sop></asc_sop>
							<asc_sat></asc_sat>
							<lut2></lut2>
						</colorinfo>
						<labels>
							<label2>Lavender</label2>
						</labels>
					</clip>
					<clip id="masterclip-49" explodedTracks="true">
						<uuid>5fba253e-9635-4f5a-9bff-cfb7a6d6dee9</uuid>
						<masterclipid>masterclip-49</masterclipid>
						<ismasterclip>TRUE</ismasterclip>
						<duration>150</duration>
						<rate>
							<timebase>30</timebase>
							<ntsc>TRUE</ntsc>
						</rate>
						<in>0</in>
						<out>149</out>
						<name>ATM BUG_1080_Top Left.png</name>
						<media>
							<video>
								<track>
									<clipitem id="clipitem-123">
										<masterclipid>masterclip-49</masterclipid>
										<name>ATM BUG_1080_Top Left.png</name>
										<rate>
											<timebase>30</timebase>
											<ntsc>TRUE</ntsc>
										</rate>
										<alphatype>straight</alphatype>
										<file id="file-49"/>
									</clipitem>
								</track>
							</video>
						</media>
						<logginginfo>
							<description></description>
							<scene></scene>
							<shottake></shottake>
							<lognote></lognote>
							<good></good>
							<originalvideofilename></originalvideofilename>
							<originalaudiofilename></originalaudiofilename>
						</logginginfo>
						<colorinfo>
							<lut></lut>
							<lut1></lut1>
							<asc_sop></asc_sop>
							<asc_sat></asc_sat>
							<lut2></lut2>
						</colorinfo>
						<labels>
							<label2>Lavender</label2>
						</labels>
					</clip>
					<clip id="masterclip-72" explodedTracks="true">
						<uuid>135b9977-cc99-48ba-81ba-fd3ae7979002</uuid>
						<masterclipid>masterclip-72</masterclipid>
						<ismasterclip>TRUE</ismasterclip>
						<duration>20982</duration>
						<rate>
							<timebase>30</timebase>
							<ntsc>TRUE</ntsc>
						</rate>
						<name>(FailArmy)_On Thin Ice _ Epic Winter Moments &amp; Frozen Fails Compilation_wIduHgWJXig_YT.mp4</name>
						<media>
							<video>
								<track>
									<clipitem id="clipitem-124">
										<masterclipid>masterclip-72</masterclipid>
										<name>(FailArmy)_On Thin Ice _ Epic Winter Moments &amp; Frozen Fails Compilation_wIduHgWJXig_YT.mp4</name>
										<rate>
											<timebase>30</timebase>
											<ntsc>TRUE</ntsc>
										</rate>
										<alphatype>none</alphatype>
										<pixelaspectratio>square</pixelaspectratio>
										<anamorphic>FALSE</anamorphic>
										<file id="file-71">
											<name>(FailArmy)_On Thin Ice _ Epic Winter Moments &amp; Frozen Fails Compilation_wIduHgWJXig_YT.mp4</name>
											<pathurl>file://localhost/Volumes/Charlie's%20Extra%20Space%20%201/1_Alpine%20TV_Projects%20/Alpine_TV_08.28.2023/3_Raw%20Footage%20/(FailArmy)_On%20Thin%20Ice%20_%20Epic%20Winter%20Moments%20&amp;%20Frozen%20Fails%20Compilation_wIduHgWJXig_YT.mp4</pathurl>
											<rate>
												<timebase>30</timebase>
												<ntsc>TRUE</ntsc>
											</rate>
											<duration>20982</duration>
											<timecode>
												<rate>
													<timebase>30</timebase>
													<ntsc>TRUE</ntsc>
												</rate>
												<string>00:00:00:00</string>
												<frame>0</frame>
												<displayformat>NDF</displayformat>
											</timecode>
											<media>
												<video>
													<samplecharacteristics>
														<rate>
															<timebase>30</timebase>
															<ntsc>TRUE</ntsc>
														</rate>
														<width>1920</width>
														<height>1080</height>
														<anamorphic>FALSE</anamorphic>
														<pixelaspectratio>square</pixelaspectratio>
														<fielddominance>none</fielddominance>
													</samplecharacteristics>
												</video>
												<audio>
													<samplecharacteristics>
														<depth>16</depth>
														<samplerate>44100</samplerate>
													</samplecharacteristics>
													<channelcount>2</channelcount>
												</audio>
											</media>
										</file>
										<link>
											<linkclipref>clipitem-124</linkclipref>
											<mediatype>video</mediatype>
											<trackindex>1</trackindex>
											<clipindex>1</clipindex>
										</link>
										<link>
											<linkclipref>clipitem-125</linkclipref>
											<mediatype>audio</mediatype>
											<trackindex>1</trackindex>
											<clipindex>1</clipindex>
											<groupindex>1</groupindex>
										</link>
										<link>
											<linkclipref>clipitem-126</linkclipref>
											<mediatype>audio</mediatype>
											<trackindex>2</trackindex>
											<clipindex>1</clipindex>
											<groupindex>1</groupindex>
										</link>
									</clipitem>
								</track>
							</video>
							<audio>
								<track>
									<clipitem id="clipitem-125">
										<masterclipid>masterclip-72</masterclipid>
										<name>(FailArmy)_On Thin Ice _ Epic Winter Moments &amp; Frozen Fails Compilation_wIduHgWJXig_YT.mp4</name>
										<rate>
											<timebase>30</timebase>
											<ntsc>TRUE</ntsc>
										</rate>
										<file id="file-71"/>
										<sourcetrack>
											<mediatype>audio</mediatype>
											<trackindex>1</trackindex>
										</sourcetrack>
										<link>
											<linkclipref>clipitem-124</linkclipref>
											<mediatype>video</mediatype>
											<trackindex>1</trackindex>
											<clipindex>1</clipindex>
										</link>
										<link>
											<linkclipref>clipitem-125</linkclipref>
											<mediatype>audio</mediatype>
											<trackindex>1</trackindex>
											<clipindex>1</clipindex>
											<groupindex>1</groupindex>
										</link>
										<link>
											<linkclipref>clipitem-126</linkclipref>
											<mediatype>audio</mediatype>
											<trackindex>2</trackindex>
											<clipindex>1</clipindex>
											<groupindex>1</groupindex>
										</link>
									</clipitem>
								</track>
								<track>
									<clipitem id="clipitem-126">
										<masterclipid>masterclip-72</masterclipid>
										<name>(FailArmy)_On Thin Ice _ Epic Winter Moments &amp; Frozen Fails Compilation_wIduHgWJXig_YT.mp4</name>
										<rate>
											<timebase>30</timebase>
											<ntsc>TRUE</ntsc>
										</rate>
										<file id="file-71"/>
										<sourcetrack>
											<mediatype>audio</mediatype>
											<trackindex>2</trackindex>
										</sourcetrack>
										<link>
											<linkclipref>clipitem-124</linkclipref>
											<mediatype>video</mediatype>
											<trackindex>1</trackindex>
											<clipindex>1</clipindex>
										</link>
										<link>
											<linkclipref>clipitem-125</linkclipref>
											<mediatype>audio</mediatype>
											<trackindex>1</trackindex>
											<clipindex>1</clipindex>
											<groupindex>1</groupindex>
										</link>
										<link>
											<linkclipref>clipitem-126</linkclipref>
											<mediatype>audio</mediatype>
											<trackindex>2</trackindex>
											<clipindex>1</clipindex>
											<groupindex>1</groupindex>
										</link>
									</clipitem>
								</track>
							</audio>
						</media>
						<logginginfo>
							<description></description>
							<scene></scene>
							<shottake></shottake>
							<lognote>https://www.youtube.com/watch?v=wIduHgWJXig</lognote>
							<good></good>
							<originalvideofilename></originalvideofilename>
							<originalaudiofilename></originalaudiofilename>
						</logginginfo>
						<colorinfo>
							<lut></lut>
							<lut1></lut1>
							<asc_sop></asc_sop>
							<asc_sat></asc_sat>
							<lut2></lut2>
						</colorinfo>
						<labels>
							<label2>Iris</label2>
						</labels>
					</clip>
				</children>
			</bin>
			<bin>
				<name>0_Final Sequences </name>
				<labels>
					<label2>Mango</label2>
				</labels>
				<children>
					<sequence id="sequence-8" TL.SQAudioVisibleBase="0" TL.SQVideoVisibleBase="0" TL.SQVisibleBaseTime="0" TL.SQAVDividerPosition="0.5" TL.SQHideShyTracks="0" TL.SQHeaderWidth="236" TL.SQDataTrackViewControlState="0" Monitor.ProgramZoomOut="47124709632000" Monitor.ProgramZoomIn="0" TL.SQTimePerPixel="1.1434041727316706" AM.TrackVScrollPosition="0" AM.TrackScrollPosition="0" MZ.EditLine="38920263782400" MZ.Sequence.PreviewFrameSizeHeight="1080" MZ.Sequence.PreviewFrameSizeWidth="1920" MZ.Sequence.AudioTimeDisplayFormat="200" MZ.Sequence.PreviewRenderingClassID="1297106761" MZ.Sequence.PreviewRenderingPresetCodec="1297107278" MZ.Sequence.PreviewRenderingPresetPath="EncoderPresets/SequencePreview/795454d9-d3c2-429d-9474-923ab13b7018/I-Frame Only MPEG.epr" MZ.Sequence.PreviewUseMaxRenderQuality="false" MZ.Sequence.PreviewUseMaxBitDepth="false" MZ.Sequence.EditingModeGUID="795454d9-d3c2-429d-9474-923ab13b7018" MZ.Sequence.VideoTimeDisplayFormat="103" MZ.WorkOutPoint="25087974912000" MZ.WorkInPoint="0" explodedTracks="true">
						<uuid>d44e874b-f6b8-4ac4-8458-3dbd0a57eeac</uuid>
						<duration>5460</duration>
						<rate>
							<timebase>30</timebase>
							<ntsc>TRUE</ntsc>
						</rate>
						<name>ATM_ALPINETV_3420..mp4 </name>
						<media>
							<video>
								<format>
									<samplecharacteristics>
										<rate>
											<timebase>30</timebase>
											<ntsc>TRUE</ntsc>
										</rate>
										<codec>
											<name>Apple ProRes 422</name>
											<appspecificdata>
												<appname>Final Cut Pro</appname>
												<appmanufacturer>Apple Inc.</appmanufacturer>
												<appversion>7.0</appversion>
												<data>
													<qtcodec>
														<codecname>Apple ProRes 422</codecname>
														<codectypename>Apple ProRes 422</codectypename>
														<codectypecode>apcn</codectypecode>
														<codecvendorcode>appl</codecvendorcode>
														<spatialquality>1024</spatialquality>
														<temporalquality>0</temporalquality>
														<keyframerate>0</keyframerate>
														<datarate>0</datarate>
													</qtcodec>
												</data>
											</appspecificdata>
										</codec>
										<width>1920</width>
										<height>1080</height>
										<anamorphic>FALSE</anamorphic>
										<pixelaspectratio>square</pixelaspectratio>
										<fielddominance>none</fielddominance>
										<colordepth>24</colordepth>
									</samplecharacteristics>
								</format>
								<track TL.SQTrackShy="0" TL.SQTrackExpandedHeight="25" TL.SQTrackExpanded="0" MZ.TrackTargeted="0">
									<clipitem id="clipitem-127">
										<masterclipid>masterclip-73</masterclipid>
										<name>XTR_everyone needs a little cold motivation _1</name>
										<enabled>TRUE</enabled>
										<duration>1944</duration>
										<rate>
											<timebase>30</timebase>
											<ntsc>TRUE</ntsc>
										</rate>
										<start>0</start>
										<end>1944</end>
										<in>0</in>
										<out>1944</out>
										<pproTicksIn>0</pproTicksIn>
										<pproTicksOut>16476697036800</pproTicksOut>
										<sequence id="sequence-9" TL.SQVisibleBaseTime="0" TL.SQTimePerPixel="0.28585104318292026" MZ.Sequence.PreviewFrameSizeHeight="1080" MZ.Sequence.PreviewFrameSizeWidth="1920" MZ.Sequence.AudioTimeDisplayFormat="200" MZ.Sequence.PreviewRenderingPresetCodec="1297107278" MZ.Sequence.PreviewRenderingPresetPath="EncoderPresets/SequencePreview/795454d9-d3c2-429d-9474-923ab13b7018/I-Frame Only MPEG.epr" MZ.Sequence.PreviewUseMaxRenderQuality="false" MZ.Sequence.PreviewUseMaxBitDepth="false" MZ.Sequence.EditingModeGUID="795454d9-d3c2-429d-9474-923ab13b7018" MZ.Sequence.VideoTimeDisplayFormat="103" MZ.WorkOutPoint="16476697036800" MZ.WorkInPoint="0">
											<duration>1944</duration>
											<rate>
												<timebase>30</timebase>
												<ntsc>TRUE</ntsc>
											</rate>
											<name>AWE_everyone needs a little cold motivation _1</name>
											<media>
												<video>
													<format>
														<samplecharacteristics>
															<rate>
																<timebase>30</timebase>
																<ntsc>TRUE</ntsc>
															</rate>
															<codec>
																<name>Apple ProRes 422</name>
																<appspecificdata>
																	<appname>Final Cut Pro</appname>
																	<appmanufacturer>Apple Inc.</appmanufacturer>
																	<appversion>7.0</appversion>
																	<data>
																		<qtcodec>
																			<codecname>Apple ProRes 422</codecname>
																			<codectypename>Apple ProRes 422</codectypename>
																			<codectypecode>apcn</codectypecode>
																			<codecvendorcode>appl</codecvendorcode>
																			<spatialquality>1024</spatialquality>
																			<temporalquality>0</temporalquality>
																			<keyframerate>0</keyframerate>
																			<datarate>0</datarate>
																		</qtcodec>
																	</data>
																</appspecificdata>
															</codec>
															<width>1920</width>
															<height>1080</height>
															<anamorphic>FALSE</anamorphic>
															<pixelaspectratio>square</pixelaspectratio>
															<fielddominance>none</fielddominance>
															<colordepth>24</colordepth>
														</samplecharacteristics>
													</format>
													<track TL.SQTrackExpandedHeight="25" TL.SQTrackExpanded="0" MZ.TrackTargeted="1">
														<clipitem id="clipitem-128">
															<masterclipid>masterclip-28</masterclipid>
															<name>(Ben Beholz Vlogs)_I Kitesurfed ON ICE_3FuoUtm4vIE_YT.mp4</name>
															<enabled>TRUE</enabled>
															<duration>12128</duration>
															<rate>
																<timebase>30</timebase>
																<ntsc>TRUE</ntsc>
															</rate>
															<start>0</start>
															<end>67</end>
															<in>2253</in>
															<out>2320</out>
															<pproTicksIn>19095678201600</pproTicksIn>
															<pproTicksOut>19663547904000</pproTicksOut>
															<alphatype>none</alphatype>
															<file id="file-28"/>
															<logginginfo>
																<description></description>
																<scene></scene>
																<shottake></shottake>
																<lognote>https://www.youtube.com/watch?v=3FuoUtm4vIE</lognote>
																<good></good>
																<originalvideofilename></originalvideofilename>
																<originalaudiofilename></originalaudiofilename>
															</logginginfo>
															<colorinfo>
																<lut></lut>
																<lut1></lut1>
																<asc_sop></asc_sop>
																<asc_sat></asc_sat>
																<lut2></lut2>
															</colorinfo>
															<labels>
																<label2>Iris</label2>
															</labels>
														</clipitem>
														<clipitem id="clipitem-129">
															<masterclipid>masterclip-28</masterclipid>
															<name>(Ben Beholz Vlogs)_I Kitesurfed ON ICE_3FuoUtm4vIE_YT.mp4</name>
															<enabled>TRUE</enabled>
															<duration>12128</duration>
															<rate>
																<timebase>30</timebase>
																<ntsc>TRUE</ntsc>
															</rate>
															<start>67</start>
															<end>107</end>
															<in>2079</in>
															<out>2119</out>
															<pproTicksIn>17620912108800</pproTicksIn>
															<pproTicksOut>17959938796800</pproTicksOut>
															<alphatype>none</alphatype>
															<file id="file-28"/>
															<logginginfo>
																<description></description>
																<scene></scene>
																<shottake></shottake>
																<lognote>https://www.youtube.com/watch?v=3FuoUtm4vIE</lognote>
																<good></good>
																<originalvideofilename></originalvideofilename>
																<originalaudiofilename></originalaudiofilename>
															</logginginfo>
															<colorinfo>
																<lut></lut>
																<lut1></lut1>
																<asc_sop></asc_sop>
																<asc_sat></asc_sat>
																<lut2></lut2>
															</colorinfo>
															<labels>
																<label2>Iris</label2>
															</labels>
														</clipitem>
														<clipitem id="clipitem-130">
															<masterclipid>masterclip-28</masterclipid>
															<name>(Ben Beholz Vlogs)_I Kitesurfed ON ICE_3FuoUtm4vIE_YT.mp4</name>
															<enabled>TRUE</enabled>
															<duration>12128</duration>
															<rate>
																<timebase>30</timebase>
																<ntsc>TRUE</ntsc>
															</rate>
															<start>107</start>
															<end>153</end>
															<in>8842</in>
															<out>8888</out>
															<pproTicksIn>74941849382400</pproTicksIn>
															<pproTicksOut>75331730073600</pproTicksOut>
															<alphatype>none</alphatype>
															<file id="file-28"/>
															<logginginfo>
																<description></description>
																<scene></scene>
																<shottake></shottake>
																<lognote>https://www.youtube.com/watch?v=3FuoUtm4vIE</lognote>
																<good></good>
																<originalvideofilename></originalvideofilename>
																<originalaudiofilename></originalaudiofilename>
															</logginginfo>
															<colorinfo>
																<lut></lut>
																<lut1></lut1>
																<asc_sop></asc_sop>
																<asc_sat></asc_sat>
																<lut2></lut2>
															</colorinfo>
															<labels>
																<label2>Iris</label2>
															</labels>
														</clipitem>
														<clipitem id="clipitem-131">
															<masterclipid>masterclip-28</masterclipid>
															<name>(Ben Beholz Vlogs)_I Kitesurfed ON ICE_3FuoUtm4vIE_YT.mp4</name>
															<enabled>TRUE</enabled>
															<duration>12128</duration>
															<rate>
																<timebase>30</timebase>
																<ntsc>TRUE</ntsc>
															</rate>
															<start>153</start>
															<end>208</end>
															<in>5060</in>
															<out>5115</out>
															<pproTicksIn>42886876032000</pproTicksIn>
															<pproTicksOut>43353037728000</pproTicksOut>
															<alphatype>none</alphatype>
															<file id="file-28"/>
															<logginginfo>
																<description></description>
																<scene></scene>
																<shottake></shottake>
																<lognote>https://www.youtube.com/watch?v=3FuoUtm4vIE</lognote>
																<good></good>
																<originalvideofilename></originalvideofilename>
																<originalaudiofilename></originalaudiofilename>
															</logginginfo>
															<colorinfo>
																<lut></lut>
																<lut1></lut1>
																<asc_sop></asc_sop>
																<asc_sat></asc_sat>
																<lut2></lut2>
															</colorinfo>
															<labels>
																<label2>Iris</label2>
															</labels>
														</clipitem>
														<clipitem id="clipitem-132">
															<masterclipid>masterclip-30</masterclipid>
															<name>(bizio FPV)_ICE RIDERS Episode II - FPV Drone X WING and KITE Ice Skating on Frozen Lake_xbIGPHmgZVE_YT.mp4</name>
															<enabled>TRUE</enabled>
															<duration>3640</duration>
															<rate>
																<timebase>30</timebase>
																<ntsc>TRUE</ntsc>
															</rate>
															<start>208</start>
															<end>260</end>
															<in>784</in>
															<out>836</out>
															<pproTicksIn>6644923084800</pproTicksIn>
															<pproTicksOut>7085657779200</pproTicksOut>
															<alphatype>none</alphatype>
															<file id="file-30"/>
															<logginginfo>
																<description></description>
																<scene></scene>
																<shottake></shottake>
																<lognote>https://www.youtube.com/watch?v=xbIGPHmgZVE</lognote>
																<good></good>
																<originalvideofilename></originalvideofilename>
																<originalaudiofilename></originalaudiofilename>
															</logginginfo>
															<colorinfo>
																<lut></lut>
																<lut1></lut1>
																<asc_sop></asc_sop>
																<asc_sat></asc_sat>
																<lut2></lut2>
															</colorinfo>
															<labels>
																<label2>Iris</label2>
															</labels>
														</clipitem>
														<clipitem id="clipitem-133">
															<masterclipid>masterclip-30</masterclipid>
															<name>(bizio FPV)_ICE RIDERS Episode II - FPV Drone X WING and KITE Ice Skating on Frozen Lake_xbIGPHmgZVE_YT.mp4</name>
															<enabled>TRUE</enabled>
															<duration>3640</duration>
															<rate>
																<timebase>30</timebase>
																<ntsc>TRUE</ntsc>
															</rate>
															<start>260</start>
															<end>376</end>
															<in>487</in>
															<out>603</out>
															<pproTicksIn>4127649926400</pproTicksIn>
															<pproTicksOut>5110827321600</pproTicksOut>
															<alphatype>none</alphatype>
															<file id="file-30"/>
															<logginginfo>
																<description></description>
																<scene></scene>
																<shottake></shottake>
																<lognote>https://www.youtube.com/watch?v=xbIGPHmgZVE</lognote>
																<good></good>
																<originalvideofilename></originalvideofilename>
																<originalaudiofilename></originalaudiofilename>
															</logginginfo>
															<colorinfo>
																<lut></lut>
																<lut1></lut1>
																<asc_sop></asc_sop>
																<asc_sat></asc_sat>
																<lut2></lut2>
															</colorinfo>
															<labels>
																<label2>Iris</label2>
															</labels>
														</clipitem>
														<clipitem id="clipitem-134">
															<masterclipid>masterclip-14</masterclipid>
															<name>(Timelab Pro)_Kamchatka. The Winter Surf Challenge_329118492_VI.mp4</name>
															<enabled>TRUE</enabled>
															<duration>4717</duration>
															<rate>
																<timebase>30</timebase>
																<ntsc>TRUE</ntsc>
															</rate>
															<start>376</start>
															<end>419</end>
															<in>1535</in>
															<out>1578</out>
															<pproTicksIn>13010149152000</pproTicksIn>
															<pproTicksOut>13374602841600</pproTicksOut>
															<alphatype>none</alphatype>
															<file id="file-14"/>
															<filter>
																<effect>
																	<name>Basic Motion</name>
																	<effectid>basic</effectid>
																	<effectcategory>motion</effectcategory>
																	<effecttype>motion</effecttype>
																	<mediatype>video</mediatype>
																	<pproBypass>false</pproBypass>
																	<parameter authoringApp="PremierePro">
																		<parameterid>scale</parameterid>
																		<name>Scale</name>
																		<valuemin>0</valuemin>
																		<valuemax>1000</valuemax>
																		<value>153.593</value>
																	</parameter>
																	<parameter authoringApp="PremierePro">
																		<parameterid>rotation</parameterid>
																		<name>Rotation</name>
																		<valuemin>-8640</valuemin>
																		<valuemax>8640</valuemax>
																		<value>0</value>
																	</parameter>
																	<parameter authoringApp="PremierePro">
																		<parameterid>center</parameterid>
																		<name>Center</name>
																		<value>
																			<horiz>0</horiz>
																			<vert>0</vert>
																		</value>
																	</parameter>
																	<parameter authoringApp="PremierePro">
																		<parameterid>centerOffset</parameterid>
																		<name>Anchor Point</name>
																		<value>
																			<horiz>0</horiz>
																			<vert>0</vert>
																		</value>
																	</parameter>
																	<parameter authoringApp="PremierePro">
																		<parameterid>antiflicker</parameterid>
																		<name>Anti-flicker Filter</name>
																		<valuemin>0.0</valuemin>
																		<valuemax>1.0</valuemax>
																		<value>0</value>
																	</parameter>
																</effect>
															</filter>
															<filter>
																<effect>
																	<name>Gaussian Blur</name>
																	<effectid>Gaussian Blur</effectid>
																	<effectcategory>Blur</effectcategory>
																	<effecttype>motion</effecttype>
																	<mediatype>video</mediatype>
																	<pproBypass>false</pproBypass>
																	<parameter authoringApp="PremierePro">
																		<parameterid>radius</parameterid>
																		<name>Radius</name>
																		<valuemin>0</valuemin>
																		<valuemax>100</valuemax>
																		<value>217</value>
																	</parameter>
																</effect>
															</filter>
															<logginginfo>
																<description></description>
																<scene></scene>
																<shottake></shottake>
																<lognote></lognote>
																<good></good>
																<originalvideofilename></originalvideofilename>
																<originalaudiofilename></originalaudiofilename>
															</logginginfo>
															<colorinfo>
																<lut></lut>
																<lut1></lut1>
																<asc_sop></asc_sop>
																<asc_sat></asc_sat>
																<lut2></lut2>
															</colorinfo>
															<labels>
																<label2>Iris</label2>
															</labels>
														</clipitem>
														<clipitem id="clipitem-135">
															<masterclipid>masterclip-14</masterclipid>
															<name>(Timelab Pro)_Kamchatka. The Winter Surf Challenge_329118492_VI.mp4</name>
															<enabled>TRUE</enabled>
															<duration>4717</duration>
															<rate>
																<timebase>30</timebase>
																<ntsc>TRUE</ntsc>
															</rate>
															<start>419</start>
															<end>490</end>
															<in>1705</in>
															<out>1776</out>
															<pproTicksIn>14451012576000</pproTicksIn>
															<pproTicksOut>15052784947200</pproTicksOut>
															<alphatype>none</alphatype>
															<file id="file-14"/>
															<filter>
																<effect>
																	<name>Basic Motion</name>
																	<effectid>basic</effectid>
																	<effectcategory>motion</effectcategory>
																	<effecttype>motion</effecttype>
																	<mediatype>video</mediatype>
																	<pproBypass>false</pproBypass>
																	<parameter authoringApp="PremierePro">
																		<parameterid>scale</parameterid>
																		<name>Scale</name>
																		<valuemin>0</valuemin>
																		<valuemax>1000</valuemax>
																		<value>153.593</value>
																	</parameter>
																	<parameter authoringApp="PremierePro">
																		<parameterid>rotation</parameterid>
																		<name>Rotation</name>
																		<valuemin>-8640</valuemin>
																		<valuemax>8640</valuemax>
																		<value>0</value>
																	</parameter>
																	<parameter authoringApp="PremierePro">
																		<parameterid>center</parameterid>
																		<name>Center</name>
																		<value>
																			<horiz>0</horiz>
																			<vert>0</vert>
																		</value>
																	</parameter>
																	<parameter authoringApp="PremierePro">
																		<parameterid>centerOffset</parameterid>
																		<name>Anchor Point</name>
																		<value>
																			<horiz>0</horiz>
																			<vert>0</vert>
																		</value>
																	</parameter>
																	<parameter authoringApp="PremierePro">
																		<parameterid>antiflicker</parameterid>
																		<name>Anti-flicker Filter</name>
																		<valuemin>0.0</valuemin>
																		<valuemax>1.0</valuemax>
																		<value>0</value>
																	</parameter>
																</effect>
															</filter>
															<filter>
																<effect>
																	<name>Gaussian Blur</name>
																	<effectid>Gaussian Blur</effectid>
																	<effectcategory>Blur</effectcategory>
																	<effecttype>motion</effecttype>
																	<mediatype>video</mediatype>
																	<pproBypass>false</pproBypass>
																	<parameter authoringApp="PremierePro">
																		<parameterid>radius</parameterid>
																		<name>Radius</name>
																		<valuemin>0</valuemin>
																		<valuemax>100</valuemax>
																		<value>217</value>
																	</parameter>
																</effect>
															</filter>
															<logginginfo>
																<description></description>
																<scene></scene>
																<shottake></shottake>
																<lognote></lognote>
																<good></good>
																<originalvideofilename></originalvideofilename>
																<originalaudiofilename></originalaudiofilename>
															</logginginfo>
															<colorinfo>
																<lut></lut>
																<lut1></lut1>
																<asc_sop></asc_sop>
																<asc_sat></asc_sat>
																<lut2></lut2>
															</colorinfo>
															<labels>
																<label2>Iris</label2>
															</labels>
														</clipitem>
														<clipitem id="clipitem-136">
															<masterclipid>masterclip-14</masterclipid>
															<name>(Timelab Pro)_Kamchatka. The Winter Surf Challenge_329118492_VI.mp4</name>
															<enabled>TRUE</enabled>
															<duration>4717</duration>
															<rate>
																<timebase>30</timebase>
																<ntsc>TRUE</ntsc>
															</rate>
															<start>490</start>
															<end>612</end>
															<in>554</in>
															<out>676</out>
															<pproTicksIn>4695519628800</pproTicksIn>
															<pproTicksOut>5729551027200</pproTicksOut>
															<alphatype>none</alphatype>
															<file id="file-14"/>
															<filter>
																<effect>
																	<name>Basic Motion</name>
																	<effectid>basic</effectid>
																	<effectcategory>motion</effectcategory>
																	<effecttype>motion</effecttype>
																	<mediatype>video</mediatype>
																	<pproBypass>false</pproBypass>
																	<parameter authoringApp="PremierePro">
																		<parameterid>scale</parameterid>
																		<name>Scale</name>
																		<valuemin>0</valuemin>
																		<valuemax>1000</valuemax>
																		<value>202.593</value>
																	</parameter>
																	<parameter authoringApp="PremierePro">
																		<parameterid>rotation</parameterid>
																		<name>Rotation</name>
																		<valuemin>-8640</valuemin>
																		<valuemax>8640</valuemax>
																		<value>0</value>
																	</parameter>
																	<parameter authoringApp="PremierePro">
																		<parameterid>center</parameterid>
																		<name>Center</name>
																		<value>
																			<horiz>0</horiz>
																			<vert>0.0444445</vert>
																		</value>
																	</parameter>
																	<parameter authoringApp="PremierePro">
																		<parameterid>centerOffset</parameterid>
																		<name>Anchor Point</name>
																		<value>
																			<horiz>0</horiz>
																			<vert>0</vert>
																		</value>
																	</parameter>
																	<parameter authoringApp="PremierePro">
																		<parameterid>antiflicker</parameterid>
																		<name>Anti-flicker Filter</name>
																		<valuemin>0.0</valuemin>
																		<valuemax>1.0</valuemax>
																		<value>0</value>
																	</parameter>
																</effect>
															</filter>
															<filter>
																<effect>
																	<name>Gaussian Blur</name>
																	<effectid>Gaussian Blur</effectid>
																	<effectcategory>Blur</effectcategory>
																	<effecttype>motion</effecttype>
																	<mediatype>video</mediatype>
																	<pproBypass>true</pproBypass>
																	<parameter authoringApp="PremierePro">
																		<parameterid>radius</parameterid>
																		<name>Radius</name>
																		<valuemin>0</valuemin>
																		<valuemax>100</valuemax>
																		<value>88</value>
																	</parameter>
																</effect>
															</filter>
															<logginginfo>
																<description></description>
																<scene></scene>
																<shottake></shottake>
																<lognote></lognote>
																<good></good>
																<originalvideofilename></originalvideofilename>
																<originalaudiofilename></originalaudiofilename>
															</logginginfo>
															<colorinfo>
																<lut></lut>
																<lut1></lut1>
																<asc_sop></asc_sop>
																<asc_sat></asc_sat>
																<lut2></lut2>
															</colorinfo>
															<labels>
																<label2>Iris</label2>
															</labels>
														</clipitem>
														<clipitem id="clipitem-137">
															<masterclipid>masterclip-30</masterclipid>
															<name>(bizio FPV)_ICE RIDERS Episode II - FPV Drone X WING and KITE Ice Skating on Frozen Lake_xbIGPHmgZVE_YT.mp4</name>
															<enabled>TRUE</enabled>
															<duration>3640</duration>
															<rate>
																<timebase>30</timebase>
																<ntsc>TRUE</ntsc>
															</rate>
															<start>612</start>
															<end>705</end>
															<in>1097</in>
															<out>1190</out>
															<pproTicksIn>9297806918400</pproTicksIn>
															<pproTicksOut>10086043968000</pproTicksOut>
															<alphatype>none</alphatype>
															<file id="file-30"/>
															<logginginfo>
																<description></description>
																<scene></scene>
																<shottake></shottake>
																<lognote>https://www.youtube.com/watch?v=xbIGPHmgZVE</lognote>
																<good></good>
																<originalvideofilename></originalvideofilename>
																<originalaudiofilename></originalaudiofilename>
															</logginginfo>
															<colorinfo>
																<lut></lut>
																<lut1></lut1>
																<asc_sop></asc_sop>
																<asc_sat></asc_sat>
																<lut2></lut2>
															</colorinfo>
															<labels>
																<label2>Iris</label2>
															</labels>
														</clipitem>
														<clipitem id="clipitem-138">
															<masterclipid>masterclip-30</masterclipid>
															<name>(bizio FPV)_ICE RIDERS Episode II - FPV Drone X WING and KITE Ice Skating on Frozen Lake_xbIGPHmgZVE_YT.mp4</name>
															<enabled>TRUE</enabled>
															<duration>3640</duration>
															<rate>
																<timebase>30</timebase>
																<ntsc>TRUE</ntsc>
															</rate>
															<start>705</start>
															<end>898</end>
															<in>1228</in>
															<out>1421</out>
															<pproTicksIn>10408119321600</pproTicksIn>
															<pproTicksOut>12043923091200</pproTicksOut>
															<alphatype>none</alphatype>
															<file id="file-30"/>
															<logginginfo>
																<description></description>
																<scene></scene>
																<shottake></shottake>
																<lognote>https://www.youtube.com/watch?v=xbIGPHmgZVE</lognote>
																<good></good>
																<originalvideofilename></originalvideofilename>
																<originalaudiofilename></originalaudiofilename>
															</logginginfo>
															<colorinfo>
																<lut></lut>
																<lut1></lut1>
																<asc_sop></asc_sop>
																<asc_sat></asc_sat>
																<lut2></lut2>
															</colorinfo>
															<labels>
																<label2>Iris</label2>
															</labels>
														</clipitem>
														<clipitem id="clipitem-139">
															<masterclipid>masterclip-14</masterclipid>
															<name>(Timelab Pro)_Kamchatka. The Winter Surf Challenge_329118492_VI.mp4</name>
															<enabled>TRUE</enabled>
															<duration>4717</duration>
															<rate>
																<timebase>30</timebase>
																<ntsc>TRUE</ntsc>
															</rate>
															<start>898</start>
															<end>976</end>
															<in>2174</in>
															<out>2252</out>
															<pproTicksIn>18426100492800</pproTicksIn>
															<pproTicksOut>19087202534400</pproTicksOut>
															<alphatype>none</alphatype>
															<file id="file-14"/>
															<filter>
																<effect>
																	<name>Basic Motion</name>
																	<effectid>basic</effectid>
																	<effectcategory>motion</effectcategory>
																	<effecttype>motion</effecttype>
																	<mediatype>video</mediatype>
																	<pproBypass>false</pproBypass>
																	<parameter authoringApp="PremierePro">
																		<parameterid>scale</parameterid>
																		<name>Scale</name>
																		<valuemin>0</valuemin>
																		<valuemax>1000</valuemax>
																		<value>153.593</value>
																	</parameter>
																	<parameter authoringApp="PremierePro">
																		<parameterid>rotation</parameterid>
																		<name>Rotation</name>
																		<valuemin>-8640</valuemin>
																		<valuemax>8640</valuemax>
																		<value>0</value>
																	</parameter>
																	<parameter authoringApp="PremierePro">
																		<parameterid>center</parameterid>
																		<name>Center</name>
																		<value>
																			<horiz>0</horiz>
																			<vert>0</vert>
																		</value>
																	</parameter>
																	<parameter authoringApp="PremierePro">
																		<parameterid>centerOffset</parameterid>
																		<name>Anchor Point</name>
																		<value>
																			<horiz>0</horiz>
																			<vert>0</vert>
																		</value>
																	</parameter>
																	<parameter authoringApp="PremierePro">
																		<parameterid>antiflicker</parameterid>
																		<name>Anti-flicker Filter</name>
																		<valuemin>0.0</valuemin>
																		<valuemax>1.0</valuemax>
																		<value>0</value>
																	</parameter>
																</effect>
															</filter>
															<filter>
																<effect>
																	<name>Gaussian Blur</name>
																	<effectid>Gaussian Blur</effectid>
																	<effectcategory>Blur</effectcategory>
																	<effecttype>motion</effecttype>
																	<mediatype>video</mediatype>
																	<pproBypass>false</pproBypass>
																	<parameter authoringApp="PremierePro">
																		<parameterid>radius</parameterid>
																		<name>Radius</name>
																		<valuemin>0</valuemin>
																		<valuemax>100</valuemax>
																		<value>427</value>
																	</parameter>
																</effect>
															</filter>
															<logginginfo>
																<description></description>
																<scene></scene>
																<shottake></shottake>
																<lognote></lognote>
																<good></good>
																<originalvideofilename></originalvideofilename>
																<originalaudiofilename></originalaudiofilename>
															</logginginfo>
															<colorinfo>
																<lut></lut>
																<lut1></lut1>
																<asc_sop></asc_sop>
																<asc_sat></asc_sat>
																<lut2></lut2>
															</colorinfo>
															<labels>
																<label2>Iris</label2>
															</labels>
														</clipitem>
														<clipitem id="clipitem-140">
															<masterclipid>masterclip-30</masterclipid>
															<name>(bizio FPV)_ICE RIDERS Episode II - FPV Drone X WING and KITE Ice Skating on Frozen Lake_xbIGPHmgZVE_YT.mp4</name>
															<enabled>TRUE</enabled>
															<duration>3640</duration>
															<rate>
																<timebase>30</timebase>
																<ntsc>TRUE</ntsc>
															</rate>
															<start>976</start>
															<end>1061</end>
															<in>2518</in>
															<out>2603</out>
															<pproTicksIn>21341730009600</pproTicksIn>
															<pproTicksOut>22062161721600</pproTicksOut>
															<alphatype>none</alphatype>
															<file id="file-30"/>
															<logginginfo>
																<description></description>
																<scene></scene>
																<shottake></shottake>
																<lognote>https://www.youtube.com/watch?v=xbIGPHmgZVE</lognote>
																<good></good>
																<originalvideofilename></originalvideofilename>
																<originalaudiofilename></originalaudiofilename>
															</logginginfo>
															<colorinfo>
																<lut></lut>
																<lut1></lut1>
																<asc_sop></asc_sop>
																<asc_sat></asc_sat>
																<lut2></lut2>
															</colorinfo>
															<labels>
																<label2>Iris</label2>
															</labels>
														</clipitem>
														<clipitem id="clipitem-141">
															<masterclipid>masterclip-28</masterclipid>
															<name>(Ben Beholz Vlogs)_I Kitesurfed ON ICE_3FuoUtm4vIE_YT.mp4</name>
															<enabled>TRUE</enabled>
															<duration>12128</duration>
															<rate>
																<timebase>30</timebase>
																<ntsc>TRUE</ntsc>
															</rate>
															<start>1061</start>
															<end>1117</end>
															<in>4719</in>
															<out>4775</out>
															<pproTicksIn>39996673516800</pproTicksIn>
															<pproTicksOut>40471310880000</pproTicksOut>
															<alphatype>none</alphatype>
															<file id="file-28"/>
															<logginginfo>
																<description></description>
																<scene></scene>
																<shottake></shottake>
																<lognote>https://www.youtube.com/watch?v=3FuoUtm4vIE</lognote>
																<good></good>
																<originalvideofilename></originalvideofilename>
																<originalaudiofilename></originalaudiofilename>
															</logginginfo>
															<colorinfo>
																<lut></lut>
																<lut1></lut1>
																<asc_sop></asc_sop>
																<asc_sat></asc_sat>
																<lut2></lut2>
															</colorinfo>
															<labels>
																<label2>Iris</label2>
															</labels>
														</clipitem>
														<clipitem id="clipitem-142">
															<masterclipid>masterclip-28</masterclipid>
															<name>(Ben Beholz Vlogs)_I Kitesurfed ON ICE_3FuoUtm4vIE_YT.mp4</name>
															<enabled>TRUE</enabled>
															<duration>12128</duration>
															<rate>
																<timebase>30</timebase>
																<ntsc>TRUE</ntsc>
															</rate>
															<start>1117</start>
															<end>1148</end>
															<in>4124</in>
															<out>4155</out>
															<pproTicksIn>34953651532800</pproTicksIn>
															<pproTicksOut>35216397216000</pproTicksOut>
															<alphatype>none</alphatype>
															<file id="file-28"/>
															<logginginfo>
																<description></description>
																<scene></scene>
																<shottake></shottake>
																<lognote>https://www.youtube.com/watch?v=3FuoUtm4vIE</lognote>
																<good></good>
																<originalvideofilename></originalvideofilename>
																<originalaudiofilename></originalaudiofilename>
															</logginginfo>
															<colorinfo>
																<lut></lut>
																<lut1></lut1>
																<asc_sop></asc_sop>
																<asc_sat></asc_sat>
																<lut2></lut2>
															</colorinfo>
															<labels>
																<label2>Iris</label2>
															</labels>
														</clipitem>
														<clipitem id="clipitem-143">
															<masterclipid>masterclip-28</masterclipid>
															<name>(Ben Beholz Vlogs)_I Kitesurfed ON ICE_3FuoUtm4vIE_YT.mp4</name>
															<enabled>TRUE</enabled>
															<duration>12128</duration>
															<rate>
																<timebase>30</timebase>
																<ntsc>TRUE</ntsc>
															</rate>
															<start>1148</start>
															<end>1199</end>
															<in>7671</in>
															<out>7722</out>
															<pproTicksIn>65016843091200</pproTicksIn>
															<pproTicksOut>65449102118400</pproTicksOut>
															<alphatype>none</alphatype>
															<file id="file-28"/>
															<logginginfo>
																<description></description>
																<scene></scene>
																<shottake></shottake>
																<lognote>https://www.youtube.com/watch?v=3FuoUtm4vIE</lognote>
																<good></good>
																<originalvideofilename></originalvideofilename>
																<originalaudiofilename></originalaudiofilename>
															</logginginfo>
															<colorinfo>
																<lut></lut>
																<lut1></lut1>
																<asc_sop></asc_sop>
																<asc_sat></asc_sat>
																<lut2></lut2>
															</colorinfo>
															<labels>
																<label2>Iris</label2>
															</labels>
														</clipitem>
														<clipitem id="clipitem-144">
															<masterclipid>masterclip-28</masterclipid>
															<name>(Ben Beholz Vlogs)_I Kitesurfed ON ICE_3FuoUtm4vIE_YT.mp4</name>
															<enabled>TRUE</enabled>
															<duration>12128</duration>
															<rate>
																<timebase>30</timebase>
																<ntsc>TRUE</ntsc>
															</rate>
															<start>1199</start>
															<end>1242</end>
															<in>5308</in>
															<out>5351</out>
															<pproTicksIn>44988841497600</pproTicksIn>
															<pproTicksOut>45353295187200</pproTicksOut>
															<alphatype>none</alphatype>
															<file id="file-28"/>
															<logginginfo>
																<description></description>
																<scene></scene>
																<shottake></shottake>
																<lognote>https://www.youtube.com/watch?v=3FuoUtm4vIE</lognote>
																<good></good>
																<originalvideofilename></originalvideofilename>
																<originalaudiofilename></originalaudiofilename>
															</logginginfo>
															<colorinfo>
																<lut></lut>
																<lut1></lut1>
																<asc_sop></asc_sop>
																<asc_sat></asc_sat>
																<lut2></lut2>
															</colorinfo>
															<labels>
																<label2>Iris</label2>
															</labels>
														</clipitem>
														<clipitem id="clipitem-145">
															<masterclipid>masterclip-28</masterclipid>
															<name>(Ben Beholz Vlogs)_I Kitesurfed ON ICE_3FuoUtm4vIE_YT.mp4</name>
															<enabled>TRUE</enabled>
															<duration>12128</duration>
															<rate>
																<timebase>30</timebase>
																<ntsc>TRUE</ntsc>
															</rate>
															<start>1242</start>
															<end>1306</end>
															<in>6781</in>
															<out>6845</out>
															<pproTicksIn>57473499283200</pproTicksIn>
															<pproTicksOut>58015941984000</pproTicksOut>
															<alphatype>none</alphatype>
															<file id="file-28"/>
															<logginginfo>
																<description></description>
																<scene></scene>
																<shottake></shottake>
																<lognote>https://www.youtube.com/watch?v=3FuoUtm4vIE</lognote>
																<good></good>
																<originalvideofilename></originalvideofilename>
																<originalaudiofilename></originalaudiofilename>
															</logginginfo>
															<colorinfo>
																<lut></lut>
																<lut1></lut1>
																<asc_sop></asc_sop>
																<asc_sat></asc_sat>
																<lut2></lut2>
															</colorinfo>
															<labels>
																<label2>Iris</label2>
															</labels>
														</clipitem>
														<clipitem id="clipitem-146">
															<masterclipid>masterclip-14</masterclipid>
															<name>(Timelab Pro)_Kamchatka. The Winter Surf Challenge_329118492_VI.mp4</name>
															<enabled>TRUE</enabled>
															<duration>4717</duration>
															<rate>
																<timebase>30</timebase>
																<ntsc>TRUE</ntsc>
															</rate>
															<start>1306</start>
															<end>1362</end>
															<in>2398</in>
															<out>2454</out>
															<pproTicksIn>20324649945600</pproTicksIn>
															<pproTicksOut>20799287308800</pproTicksOut>
															<alphatype>none</alphatype>
															<file id="file-14"/>
															<filter>
																<effect>
																	<name>Basic Motion</name>
																	<effectid>basic</effectid>
																	<effectcategory>motion</effectcategory>
																	<effecttype>motion</effecttype>
																	<mediatype>video</mediatype>
																	<pproBypass>false</pproBypass>
																	<parameter authoringApp="PremierePro">
																		<parameterid>scale</parameterid>
																		<name>Scale</name>
																		<valuemin>0</valuemin>
																		<valuemax>1000</valuemax>
																		<value>181.593</value>
																	</parameter>
																	<parameter authoringApp="PremierePro">
																		<parameterid>rotation</parameterid>
																		<name>Rotation</name>
																		<valuemin>-8640</valuemin>
																		<valuemax>8640</valuemax>
																		<value>0</value>
																	</parameter>
																	<parameter authoringApp="PremierePro">
																		<parameterid>center</parameterid>
																		<name>Center</name>
																		<value>
																			<horiz>-0.0988201</horiz>
																			<vert>0.127778</vert>
																		</value>
																	</parameter>
																	<parameter authoringApp="PremierePro">
																		<parameterid>centerOffset</parameterid>
																		<name>Anchor Point</name>
																		<value>
																			<horiz>0</horiz>
																			<vert>0</vert>
																		</value>
																	</parameter>
																	<parameter authoringApp="PremierePro">
																		<parameterid>antiflicker</parameterid>
																		<name>Anti-flicker Filter</name>
																		<valuemin>0.0</valuemin>
																		<valuemax>1.0</valuemax>
																		<value>0</value>
																	</parameter>
																</effect>
															</filter>
															<logginginfo>
																<description></description>
																<scene></scene>
																<shottake></shottake>
																<lognote></lognote>
																<good></good>
																<originalvideofilename></originalvideofilename>
																<originalaudiofilename></originalaudiofilename>
															</logginginfo>
															<colorinfo>
																<lut></lut>
																<lut1></lut1>
																<asc_sop></asc_sop>
																<asc_sat></asc_sat>
																<lut2></lut2>
															</colorinfo>
															<labels>
																<label2>Iris</label2>
															</labels>
														</clipitem>
														<clipitem id="clipitem-147">
															<masterclipid>masterclip-28</masterclipid>
															<name>(Ben Beholz Vlogs)_I Kitesurfed ON ICE_3FuoUtm4vIE_YT.mp4</name>
															<enabled>TRUE</enabled>
															<duration>12128</duration>
															<rate>
																<timebase>30</timebase>
																<ntsc>TRUE</ntsc>
															</rate>
															<start>1362</start>
															<end>1390</end>
															<in>7956</in>
															<out>7984</out>
															<pproTicksIn>67432408243200</pproTicksIn>
															<pproTicksOut>67669726924800</pproTicksOut>
															<alphatype>none</alphatype>
															<file id="file-28"/>
															<logginginfo>
																<description></description>
																<scene></scene>
																<shottake></shottake>
																<lognote>https://www.youtube.com/watch?v=3FuoUtm4vIE</lognote>
																<good></good>
																<originalvideofilename></originalvideofilename>
																<originalaudiofilename></originalaudiofilename>
															</logginginfo>
															<colorinfo>
																<lut></lut>
																<lut1></lut1>
																<asc_sop></asc_sop>
																<asc_sat></asc_sat>
																<lut2></lut2>
															</colorinfo>
															<labels>
																<label2>Iris</label2>
															</labels>
														</clipitem>
														<clipitem id="clipitem-148">
															<masterclipid>masterclip-28</masterclipid>
															<name>(Ben Beholz Vlogs)_I Kitesurfed ON ICE_3FuoUtm4vIE_YT.mp4</name>
															<enabled>TRUE</enabled>
															<duration>12128</duration>
															<rate>
																<timebase>30</timebase>
																<ntsc>TRUE</ntsc>
															</rate>
															<start>1390</start>
															<end>1455</end>
															<in>7108</in>
															<out>7173</out>
															<pproTicksIn>60245042457600</pproTicksIn>
															<pproTicksOut>60795960825600</pproTicksOut>
															<alphatype>none</alphatype>
															<file id="file-28"/>
															<logginginfo>
																<description></description>
																<scene></scene>
																<shottake></shottake>
																<lognote>https://www.youtube.com/watch?v=3FuoUtm4vIE</lognote>
																<good></good>
																<originalvideofilename></originalvideofilename>
																<originalaudiofilename></originalaudiofilename>
															</logginginfo>
															<colorinfo>
																<lut></lut>
																<lut1></lut1>
																<asc_sop></asc_sop>
																<asc_sat></asc_sat>
																<lut2></lut2>
															</colorinfo>
															<labels>
																<label2>Iris</label2>
															</labels>
														</clipitem>
														<clipitem id="clipitem-149">
															<masterclipid>masterclip-28</masterclipid>
															<name>(Ben Beholz Vlogs)_I Kitesurfed ON ICE_3FuoUtm4vIE_YT.mp4</name>
															<enabled>TRUE</enabled>
															<duration>12128</duration>
															<rate>
																<timebase>30</timebase>
																<ntsc>TRUE</ntsc>
															</rate>
															<start>1455</start>
															<end>1495</end>
															<in>8492</in>
															<out>8532</out>
															<pproTicksIn>71975365862400</pproTicksIn>
															<pproTicksOut>72314392550400</pproTicksOut>
															<alphatype>none</alphatype>
															<file id="file-28"/>
															<logginginfo>
																<description></description>
																<scene></scene>
																<shottake></shottake>
																<lognote>https://www.youtube.com/watch?v=3FuoUtm4vIE</lognote>
																<good></good>
																<originalvideofilename></originalvideofilename>
																<originalaudiofilename></originalaudiofilename>
															</logginginfo>
															<colorinfo>
																<lut></lut>
																<lut1></lut1>
																<asc_sop></asc_sop>
																<asc_sat></asc_sat>
																<lut2></lut2>
															</colorinfo>
															<labels>
																<label2>Iris</label2>
															</labels>
														</clipitem>
														<clipitem id="clipitem-150">
															<masterclipid>masterclip-14</masterclipid>
															<name>(Timelab Pro)_Kamchatka. The Winter Surf Challenge_329118492_VI.mp4</name>
															<enabled>TRUE</enabled>
															<duration>4717</duration>
															<rate>
																<timebase>30</timebase>
																<ntsc>TRUE</ntsc>
															</rate>
															<start>1495</start>
															<end>1602</end>
															<in>2768</in>
															<out>2875</out>
															<pproTicksIn>23460646809600</pproTicksIn>
															<pproTicksOut>24367543200000</pproTicksOut>
															<alphatype>none</alphatype>
															<file id="file-14"/>
															<filter>
																<effect>
																	<name>Basic Motion</name>
																	<effectid>basic</effectid>
																	<effectcategory>motion</effectcategory>
																	<effecttype>motion</effecttype>
																	<mediatype>video</mediatype>
																	<pproBypass>false</pproBypass>
																	<parameter authoringApp="PremierePro">
																		<parameterid>scale</parameterid>
																		<name>Scale</name>
																		<valuemin>0</valuemin>
																		<valuemax>1000</valuemax>
																		<value>185.593</value>
																	</parameter>
																	<parameter authoringApp="PremierePro">
																		<parameterid>rotation</parameterid>
																		<name>Rotation</name>
																		<valuemin>-8640</valuemin>
																		<valuemax>8640</valuemax>
																		<value>0</value>
																	</parameter>
																	<parameter authoringApp="PremierePro">
																		<parameterid>center</parameterid>
																		<name>Center</name>
																		<value>
																			<horiz>0.144543</horiz>
																			<vert>-0.0958333</vert>
																		</value>
																	</parameter>
																	<parameter authoringApp="PremierePro">
																		<parameterid>centerOffset</parameterid>
																		<name>Anchor Point</name>
																		<value>
																			<horiz>0</horiz>
																			<vert>0</vert>
																		</value>
																	</parameter>
																	<parameter authoringApp="PremierePro">
																		<parameterid>antiflicker</parameterid>
																		<name>Anti-flicker Filter</name>
																		<valuemin>0.0</valuemin>
																		<valuemax>1.0</valuemax>
																		<value>0</value>
																	</parameter>
																</effect>
															</filter>
															<logginginfo>
																<description></description>
																<scene></scene>
																<shottake></shottake>
																<lognote></lognote>
																<good></good>
																<originalvideofilename></originalvideofilename>
																<originalaudiofilename></originalaudiofilename>
															</logginginfo>
															<colorinfo>
																<lut></lut>
																<lut1></lut1>
																<asc_sop></asc_sop>
																<asc_sat></asc_sat>
																<lut2></lut2>
															</colorinfo>
															<labels>
																<label2>Iris</label2>
															</labels>
														</clipitem>
														<clipitem id="clipitem-151">
															<masterclipid>masterclip-28</masterclipid>
															<name>(Ben Beholz Vlogs)_I Kitesurfed ON ICE_3FuoUtm4vIE_YT.mp4</name>
															<enabled>TRUE</enabled>
															<duration>12128</duration>
															<rate>
																<timebase>30</timebase>
																<ntsc>TRUE</ntsc>
															</rate>
															<start>1602</start>
															<end>1652</end>
															<in>5351</in>
															<out>5401</out>
															<pproTicksIn>45353295187200</pproTicksIn>
															<pproTicksOut>45777078547200</pproTicksOut>
															<alphatype>none</alphatype>
															<file id="file-28"/>
															<logginginfo>
																<description></description>
																<scene></scene>
																<shottake></shottake>
																<lognote>https://www.youtube.com/watch?v=3FuoUtm4vIE</lognote>
																<good></good>
																<originalvideofilename></originalvideofilename>
																<originalaudiofilename></originalaudiofilename>
															</logginginfo>
															<colorinfo>
																<lut></lut>
																<lut1></lut1>
																<asc_sop></asc_sop>
																<asc_sat></asc_sat>
																<lut2></lut2>
															</colorinfo>
															<labels>
																<label2>Iris</label2>
															</labels>
														</clipitem>
														<clipitem id="clipitem-152">
															<masterclipid>masterclip-29</masterclipid>
															<name>(Ben Beholz Vlogs)_Self ICEolation - FREISTIEL SERIES_DylgLBBj6eM_YT.mp4</name>
															<enabled>TRUE</enabled>
															<duration>7745</duration>
															<rate>
																<timebase>30</timebase>
																<ntsc>TRUE</ntsc>
															</rate>
															<start>1652</start>
															<end>1708</end>
															<in>6349</in>
															<out>6405</out>
															<pproTicksIn>53812011052800</pproTicksIn>
															<pproTicksOut>54286648416000</pproTicksOut>
															<alphatype>none</alphatype>
															<file id="file-29"/>
															<logginginfo>
																<description></description>
																<scene></scene>
																<shottake></shottake>
																<lognote>https://www.youtube.com/watch?v=DylgLBBj6eM</lognote>
																<good></good>
																<originalvideofilename></originalvideofilename>
																<originalaudiofilename></originalaudiofilename>
															</logginginfo>
															<colorinfo>
																<lut></lut>
																<lut1></lut1>
																<asc_sop></asc_sop>
																<asc_sat></asc_sat>
																<lut2></lut2>
															</colorinfo>
															<labels>
																<label2>Iris</label2>
															</labels>
														</clipitem>
														<clipitem id="clipitem-153">
															<masterclipid>masterclip-29</masterclipid>
															<name>(Ben Beholz Vlogs)_Self ICEolation - FREISTIEL SERIES_DylgLBBj6eM_YT.mp4</name>
															<enabled>TRUE</enabled>
															<duration>7745</duration>
															<rate>
																<timebase>30</timebase>
																<ntsc>TRUE</ntsc>
															</rate>
															<start>1708</start>
															<end>1757</end>
															<in>4270</in>
															<out>4319</out>
															<pproTicksIn>36191098944000</pproTicksIn>
															<pproTicksOut>36606406636800</pproTicksOut>
															<alphatype>none</alphatype>
															<file id="file-29"/>
															<logginginfo>
																<description></description>
																<scene></scene>
																<shottake></shottake>
																<lognote>https://www.youtube.com/watch?v=DylgLBBj6eM</lognote>
																<good></good>
																<originalvideofilename></originalvideofilename>
																<originalaudiofilename></originalaudiofilename>
															</logginginfo>
															<colorinfo>
																<lut></lut>
																<lut1></lut1>
																<asc_sop></asc_sop>
																<asc_sat></asc_sat>
																<lut2></lut2>
															</colorinfo>
															<labels>
																<label2>Iris</label2>
															</labels>
														</clipitem>
														<clipitem id="clipitem-154">
															<masterclipid>masterclip-30</masterclipid>
															<name>(bizio FPV)_ICE RIDERS Episode II - FPV Drone X WING and KITE Ice Skating on Frozen Lake_xbIGPHmgZVE_YT.mp4</name>
															<enabled>TRUE</enabled>
															<duration>3640</duration>
															<rate>
																<timebase>30</timebase>
																<ntsc>TRUE</ntsc>
															</rate>
															<start>1757</start>
															<end>1853</end>
															<in>384</in>
															<out>480</out>
															<pproTicksIn>3254656204800</pproTicksIn>
															<pproTicksOut>4068320256000</pproTicksOut>
															<alphatype>none</alphatype>
															<file id="file-30"/>
															<logginginfo>
																<description></description>
																<scene></scene>
																<shottake></shottake>
																<lognote>https://www.youtube.com/watch?v=xbIGPHmgZVE</lognote>
																<good></good>
																<originalvideofilename></originalvideofilename>
																<originalaudiofilename></originalaudiofilename>
															</logginginfo>
															<colorinfo>
																<lut></lut>
																<lut1></lut1>
																<asc_sop></asc_sop>
																<asc_sat></asc_sat>
																<lut2></lut2>
															</colorinfo>
															<labels>
																<label2>Iris</label2>
															</labels>
														</clipitem>
														<clipitem id="clipitem-155">
															<masterclipid>masterclip-30</masterclipid>
															<name>(bizio FPV)_ICE RIDERS Episode II - FPV Drone X WING and KITE Ice Skating on Frozen Lake_xbIGPHmgZVE_YT.mp4</name>
															<enabled>TRUE</enabled>
															<duration>3640</duration>
															<rate>
																<timebase>30</timebase>
																<ntsc>TRUE</ntsc>
															</rate>
															<start>1853</start>
															<end>1944</end>
															<in>3026</in>
															<out>3117</out>
															<pproTicksIn>25647368947200</pproTicksIn>
															<pproTicksOut>26418654662400</pproTicksOut>
															<alphatype>none</alphatype>
															<file id="file-30"/>
															<logginginfo>
																<description></description>
																<scene></scene>
																<shottake></shottake>
																<lognote>https://www.youtube.com/watch?v=xbIGPHmgZVE</lognote>
																<good></good>
																<originalvideofilename></originalvideofilename>
																<originalaudiofilename></originalaudiofilename>
															</logginginfo>
															<colorinfo>
																<lut></lut>
																<lut1></lut1>
																<asc_sop></asc_sop>
																<asc_sat></asc_sat>
																<lut2></lut2>
															</colorinfo>
															<labels>
																<label2>Iris</label2>
															</labels>
														</clipitem>
														<enabled>TRUE</enabled>
														<locked>FALSE</locked>
													</track>
													<track>
														<clipitem id="clipitem-156">
															<masterclipid>masterclip-54</masterclipid>
															<name>1080/AE Attribution.aep Copy 36</name>
															<enabled>TRUE</enabled>
															<duration>5844</duration>
															<rate>
																<timebase>30</timebase>
																<ntsc>TRUE</ntsc>
															</rate>
															<start>0</start>
															<end>208</end>
															<in>724</in>
															<out>932</out>
															<pproTicksIn>6136383052800</pproTicksIn>
															<pproTicksOut>7899321830400</pproTicksOut>
															<alphatype>straight</alphatype>
															<file id="file-54"/>
															<logginginfo>
																<description></description>
																<scene></scene>
																<shottake></shottake>
																<lognote></lognote>
																<good></good>
																<originalvideofilename></originalvideofilename>
																<originalaudiofilename></originalaudiofilename>
															</logginginfo>
															<colorinfo>
																<lut></lut>
																<lut1></lut1>
																<asc_sop></asc_sop>
																<asc_sat></asc_sat>
																<lut2></lut2>
															</colorinfo>
															<labels>
																<label2>Rose</label2>
															</labels>
														</clipitem>
														<clipitem id="clipitem-157">
															<masterclipid>masterclip-55</masterclipid>
															<name>1080/AE Attribution.aep Copy 37</name>
															<enabled>TRUE</enabled>
															<duration>5844</duration>
															<rate>
																<timebase>30</timebase>
																<ntsc>TRUE</ntsc>
															</rate>
															<start>208</start>
															<end>376</end>
															<in>932</in>
															<out>1100</out>
															<pproTicksIn>7899321830400</pproTicksIn>
															<pproTicksOut>9323233920000</pproTicksOut>
															<alphatype>straight</alphatype>
															<file id="file-55"/>
															<logginginfo>
																<description></description>
																<scene></scene>
																<shottake></shottake>
																<lognote></lognote>
																<good></good>
																<originalvideofilename></originalvideofilename>
																<originalaudiofilename></originalaudiofilename>
															</logginginfo>
															<colorinfo>
																<lut></lut>
																<lut1></lut1>
																<asc_sop></asc_sop>
																<asc_sat></asc_sat>
																<lut2></lut2>
															</colorinfo>
															<labels>
																<label2>Rose</label2>
															</labels>
														</clipitem>
														<clipitem id="clipitem-158">
															<masterclipid>masterclip-53</masterclipid>
															<name>1080/AE Attribution.aep Copy 35</name>
															<enabled>TRUE</enabled>
															<duration>5844</duration>
															<rate>
																<timebase>30</timebase>
																<ntsc>TRUE</ntsc>
															</rate>
															<start>376</start>
															<end>612</end>
															<in>1100</in>
															<out>1336</out>
															<pproTicksIn>9323233920000</pproTicksIn>
															<pproTicksOut>11323491379200</pproTicksOut>
															<alphatype>straight</alphatype>
															<file id="file-53"/>
															<logginginfo>
																<description></description>
																<scene></scene>
																<shottake></shottake>
																<lognote></lognote>
																<good></good>
																<originalvideofilename></originalvideofilename>
																<originalaudiofilename></originalaudiofilename>
															</logginginfo>
															<colorinfo>
																<lut></lut>
																<lut1></lut1>
																<asc_sop></asc_sop>
																<asc_sat></asc_sat>
																<lut2></lut2>
															</colorinfo>
															<labels>
																<label2>Rose</label2>
															</labels>
														</clipitem>
														<clipitem id="clipitem-159">
															<masterclipid>masterclip-56</masterclipid>
															<name>1080/AE Attribution.aep Copy 38</name>
															<enabled>TRUE</enabled>
															<duration>5844</duration>
															<rate>
																<timebase>30</timebase>
																<ntsc>TRUE</ntsc>
															</rate>
															<start>612</start>
															<end>898</end>
															<in>932</in>
															<out>1218</out>
															<pproTicksIn>7899321830400</pproTicksIn>
															<pproTicksOut>10323362649600</pproTicksOut>
															<alphatype>straight</alphatype>
															<file id="file-56"/>
															<logginginfo>
																<description></description>
																<scene></scene>
																<shottake></shottake>
																<lognote></lognote>
																<good></good>
																<originalvideofilename></originalvideofilename>
																<originalaudiofilename></originalaudiofilename>
															</logginginfo>
															<colorinfo>
																<lut></lut>
																<lut1></lut1>
																<asc_sop></asc_sop>
																<asc_sat></asc_sat>
																<lut2></lut2>
															</colorinfo>
															<labels>
																<label2>Rose</label2>
															</labels>
														</clipitem>
														<clipitem id="clipitem-160">
															<masterclipid>masterclip-53</masterclipid>
															<name>1080/AE Attribution.aep Copy 35</name>
															<enabled>TRUE</enabled>
															<duration>5844</duration>
															<rate>
																<timebase>30</timebase>
																<ntsc>TRUE</ntsc>
															</rate>
															<start>898</start>
															<end>976</end>
															<in>1622</in>
															<out>1700</out>
															<pproTicksIn>13747532198400</pproTicksIn>
															<pproTicksOut>14408634240000</pproTicksOut>
															<alphatype>straight</alphatype>
															<file id="file-53"/>
															<logginginfo>
																<description></description>
																<scene></scene>
																<shottake></shottake>
																<lognote></lognote>
																<good></good>
																<originalvideofilename></originalvideofilename>
																<originalaudiofilename></originalaudiofilename>
															</logginginfo>
															<colorinfo>
																<lut></lut>
																<lut1></lut1>
																<asc_sop></asc_sop>
																<asc_sat></asc_sat>
																<lut2></lut2>
															</colorinfo>
															<labels>
																<label2>Rose</label2>
															</labels>
														</clipitem>
														<clipitem id="clipitem-161">
															<masterclipid>masterclip-57</masterclipid>
															<name>1080/AE Attribution.aep Copy 39</name>
															<enabled>TRUE</enabled>
															<duration>5844</duration>
															<rate>
																<timebase>30</timebase>
																<ntsc>TRUE</ntsc>
															</rate>
															<start>976</start>
															<end>1061</end>
															<in>932</in>
															<out>1017</out>
															<pproTicksIn>7899321830400</pproTicksIn>
															<pproTicksOut>8619753542400</pproTicksOut>
															<alphatype>straight</alphatype>
															<file id="file-57"/>
															<logginginfo>
																<description></description>
																<scene></scene>
																<shottake></shottake>
																<lognote></lognote>
																<good></good>
																<originalvideofilename></originalvideofilename>
																<originalaudiofilename></originalaudiofilename>
															</logginginfo>
															<colorinfo>
																<lut></lut>
																<lut1></lut1>
																<asc_sop></asc_sop>
																<asc_sat></asc_sat>
																<lut2></lut2>
															</colorinfo>
															<labels>
																<label2>Rose</label2>
															</labels>
														</clipitem>
														<clipitem id="clipitem-162">
															<masterclipid>masterclip-58</masterclipid>
															<name>1080/AE Attribution.aep Copy 40</name>
															<enabled>TRUE</enabled>
															<duration>5844</duration>
															<rate>
																<timebase>30</timebase>
																<ntsc>TRUE</ntsc>
															</rate>
															<start>1061</start>
															<end>1306</end>
															<in>724</in>
															<out>969</out>
															<pproTicksIn>6136383052800</pproTicksIn>
															<pproTicksOut>8212921516800</pproTicksOut>
															<alphatype>straight</alphatype>
															<file id="file-58"/>
															<logginginfo>
																<description></description>
																<scene></scene>
																<shottake></shottake>
																<lognote></lognote>
																<good></good>
																<originalvideofilename></originalvideofilename>
																<originalaudiofilename></originalaudiofilename>
															</logginginfo>
															<colorinfo>
																<lut></lut>
																<lut1></lut1>
																<asc_sop></asc_sop>
																<asc_sat></asc_sat>
																<lut2></lut2>
															</colorinfo>
															<labels>
																<label2>Rose</label2>
															</labels>
														</clipitem>
														<clipitem id="clipitem-163">
															<masterclipid>masterclip-53</masterclipid>
															<name>1080/AE Attribution.aep Copy 35</name>
															<enabled>TRUE</enabled>
															<duration>5844</duration>
															<rate>
																<timebase>30</timebase>
																<ntsc>TRUE</ntsc>
															</rate>
															<start>1306</start>
															<end>1362</end>
															<in>2030</in>
															<out>2086</out>
															<pproTicksIn>17205604416000</pproTicksIn>
															<pproTicksOut>17680241779200</pproTicksOut>
															<alphatype>straight</alphatype>
															<file id="file-53"/>
															<logginginfo>
																<description></description>
																<scene></scene>
																<shottake></shottake>
																<lognote></lognote>
																<good></good>
																<originalvideofilename></originalvideofilename>
																<originalaudiofilename></originalaudiofilename>
															</logginginfo>
															<colorinfo>
																<lut></lut>
																<lut1></lut1>
																<asc_sop></asc_sop>
																<asc_sat></asc_sat>
																<lut2></lut2>
															</colorinfo>
															<labels>
																<label2>Rose</label2>
															</labels>
														</clipitem>
														<clipitem id="clipitem-164">
															<masterclipid>masterclip-59</masterclipid>
															<name>1080/AE Attribution.aep Copy 41</name>
															<enabled>TRUE</enabled>
															<duration>5844</duration>
															<rate>
																<timebase>30</timebase>
																<ntsc>TRUE</ntsc>
															</rate>
															<start>1362</start>
															<end>1495</end>
															<in>724</in>
															<out>857</out>
															<pproTicksIn>6136383052800</pproTicksIn>
															<pproTicksOut>7263646790400</pproTicksOut>
															<alphatype>straight</alphatype>
															<file id="file-59"/>
															<logginginfo>
																<description></description>
																<scene></scene>
																<shottake></shottake>
																<lognote></lognote>
																<good></good>
																<originalvideofilename></originalvideofilename>
																<originalaudiofilename></originalaudiofilename>
															</logginginfo>
															<colorinfo>
																<lut></lut>
																<lut1></lut1>
																<asc_sop></asc_sop>
																<asc_sat></asc_sat>
																<lut2></lut2>
															</colorinfo>
															<labels>
																<label2>Rose</label2>
															</labels>
														</clipitem>
														<clipitem id="clipitem-165">
															<masterclipid>masterclip-53</masterclipid>
															<name>1080/AE Attribution.aep Copy 35</name>
															<enabled>TRUE</enabled>
															<duration>5844</duration>
															<rate>
																<timebase>30</timebase>
																<ntsc>TRUE</ntsc>
															</rate>
															<start>1495</start>
															<end>1602</end>
															<in>2219</in>
															<out>2326</out>
															<pproTicksIn>18807505516800</pproTicksIn>
															<pproTicksOut>19714401907200</pproTicksOut>
															<alphatype>straight</alphatype>
															<file id="file-53"/>
															<logginginfo>
																<description></description>
																<scene></scene>
																<shottake></shottake>
																<lognote></lognote>
																<good></good>
																<originalvideofilename></originalvideofilename>
																<originalaudiofilename></originalaudiofilename>
															</logginginfo>
															<colorinfo>
																<lut></lut>
																<lut1></lut1>
																<asc_sop></asc_sop>
																<asc_sat></asc_sat>
																<lut2></lut2>
															</colorinfo>
															<labels>
																<label2>Rose</label2>
															</labels>
														</clipitem>
														<clipitem id="clipitem-166">
															<masterclipid>masterclip-61</masterclipid>
															<name>1080/AE Attribution.aep Copy 43</name>
															<enabled>TRUE</enabled>
															<duration>5844</duration>
															<rate>
																<timebase>30</timebase>
																<ntsc>TRUE</ntsc>
															</rate>
															<start>1602</start>
															<end>1757</end>
															<in>724</in>
															<out>879</out>
															<pproTicksIn>6136383052800</pproTicksIn>
															<pproTicksOut>7450111468800</pproTicksOut>
															<alphatype>straight</alphatype>
															<file id="file-61"/>
															<logginginfo>
																<description></description>
																<scene></scene>
																<shottake></shottake>
																<lognote></lognote>
																<good></good>
																<originalvideofilename></originalvideofilename>
																<originalaudiofilename></originalaudiofilename>
															</logginginfo>
															<colorinfo>
																<lut></lut>
																<lut1></lut1>
																<asc_sop></asc_sop>
																<asc_sat></asc_sat>
																<lut2></lut2>
															</colorinfo>
															<labels>
																<label2>Rose</label2>
															</labels>
														</clipitem>
														<clipitem id="clipitem-167">
															<masterclipid>masterclip-60</masterclipid>
															<name>1080/AE Attribution.aep Copy 42</name>
															<enabled>TRUE</enabled>
															<duration>5844</duration>
															<rate>
																<timebase>30</timebase>
																<ntsc>TRUE</ntsc>
															</rate>
															<start>1757</start>
															<end>1944</end>
															<in>932</in>
															<out>1119</out>
															<pproTicksIn>7899321830400</pproTicksIn>
															<pproTicksOut>9484271596800</pproTicksOut>
															<alphatype>straight</alphatype>
															<file id="file-60"/>
															<logginginfo>
																<description></description>
																<scene></scene>
																<shottake></shottake>
																<lognote></lognote>
																<good></good>
																<originalvideofilename></originalvideofilename>
																<originalaudiofilename></originalaudiofilename>
															</logginginfo>
															<colorinfo>
																<lut></lut>
																<lut1></lut1>
																<asc_sop></asc_sop>
																<asc_sat></asc_sat>
																<lut2></lut2>
															</colorinfo>
															<labels>
																<label2>Rose</label2>
															</labels>
														</clipitem>
														<enabled>TRUE</enabled>
														<locked>FALSE</locked>
													</track>
												</video>
												<audio>
													<numOutputChannels>2</numOutputChannels>
													<format>
														<samplecharacteristics>
															<depth>16</depth>
															<samplerate>44100</samplerate>
														</samplecharacteristics>
													</format>
													<outputs>
														<group>
															<index>1</index>
															<numchannels>1</numchannels>
															<downmix>0</downmix>
															<channel>
																<index>1</index>
															</channel>
														</group>
														<group>
															<index>2</index>
															<numchannels>1</numchannels>
															<downmix>0</downmix>
															<channel>
																<index>2</index>
															</channel>
														</group>
													</outputs>
													<track TL.SQTrackExpandedHeight="25" TL.SQTrackExpanded="0" MZ.TrackTargeted="1" PannerCurrentValue="0.5" PannerIsInverted="true" PannerStartKeyframe="-91445760000000000,0.5,0,0,0,0,0,0" PannerName="Balance" currentExplodedTrackIndex="0" totalExplodedTrackCount="2" premiereTrackType="Stereo">
														<transitionitem>
															<start>0</start>
															<end>151</end>
															<pproTicksIn>0</pproTicksIn>
															<pproTicksOut>1279825747200</pproTicksOut>
															<alignment>start-black</alignment>
															<cutPointTicks>0</cutPointTicks>
															<rate>
																<timebase>30</timebase>
																<ntsc>TRUE</ntsc>
															</rate>
															<effect>
																<name>Cross Fade (+3dB)</name>
																<effectid>KGAudioTransCrossFade3dB</effectid>
																<effecttype>transition</effecttype>
																<mediatype>audio</mediatype>
																<wipecode>0</wipecode>
																<wipeaccuracy>100</wipeaccuracy>
																<startratio>0</startratio>
																<endratio>1</endratio>
																<reverse>FALSE</reverse>
															</effect>
														</transitionitem>
														<clipitem id="clipitem-168" premiereChannelType="stereo">
															<masterclipid>masterclip-42</masterclipid>
															<name>ES_Sink - Coma Svensson.mp3</name>
															<enabled>TRUE</enabled>
															<duration>5674</duration>
															<rate>
																<timebase>30</timebase>
																<ntsc>TRUE</ntsc>
															</rate>
															<start>-1</start>
															<end>-1</end>
															<in>2378</in>
															<out>4322</out>
															<pproTicksIn>20155136601600</pproTicksIn>
															<pproTicksOut>36631833638400</pproTicksOut>
															<file id="file-42"/>
															<sourcetrack>
																<mediatype>audio</mediatype>
																<trackindex>1</trackindex>
															</sourcetrack>
															<filter>
																<effect>
																	<name>Gain</name>
																	<effectid>{61756678, 4761696e, 4b657947}</effectid>
																	<effecttype>filter</effecttype>
																	<mediatype>audio</mediatype>
																	<parameter authoringApp="PremierePro">
																		<parameterid>Gain(dB)</parameterid>
																		<name>Gain(dB)</name>
																		<valuemin>-96</valuemin>
																		<valuemax>96</valuemax>
																		<value>-6</value>
																	</parameter>
																</effect>
															</filter>
																<marker>
																	<comment></comment>
																	<name></name>
																	<in>3083</in>
																	<out>-1</out>
																</marker>
															<link>
																<linkclipref>clipitem-168</linkclipref>
																<mediatype>audio</mediatype>
																<trackindex>1</trackindex>
																<clipindex>2</clipindex>
																<groupindex>1</groupindex>
															</link>
															<link>
																<linkclipref>clipitem-169</linkclipref>
																<mediatype>audio</mediatype>
																<trackindex>2</trackindex>
																<clipindex>2</clipindex>
																<groupindex>1</groupindex>
															</link>
															<logginginfo>
																<description></description>
																<scene></scene>
																<shottake></shottake>
																<lognote></lognote>
																<good></good>
																<originalvideofilename></originalvideofilename>
																<originalaudiofilename></originalaudiofilename>
															</logginginfo>
															<colorinfo>
																<lut></lut>
																<lut1></lut1>
																<asc_sop></asc_sop>
																<asc_sat></asc_sat>
																<lut2></lut2>
															</colorinfo>
															<labels>
																<label2>Caribbean</label2>
															</labels>
														</clipitem>
														<transitionitem>
															<start>1756</start>
															<end>1944</end>
															<pproTicksIn>14883271603200</pproTicksIn>
															<pproTicksOut>16476697036800</pproTicksOut>
															<alignment>end-black</alignment>
															<cutPointTicks>1593425433600</cutPointTicks>
															<rate>
																<timebase>30</timebase>
																<ntsc>TRUE</ntsc>
															</rate>
															<effect>
																<name>Cross Fade (+3dB)</name>
																<effectid>KGAudioTransCrossFade3dB</effectid>
																<effecttype>transition</effecttype>
																<mediatype>audio</mediatype>
																<wipecode>0</wipecode>
																<wipeaccuracy>100</wipeaccuracy>
																<startratio>0</startratio>
																<endratio>1</endratio>
																<reverse>FALSE</reverse>
															</effect>
														</transitionitem>
														<enabled>TRUE</enabled>
														<locked>FALSE</locked>
														<outputchannelindex>1</outputchannelindex>
													</track>
													<track TL.SQTrackExpandedHeight="25" TL.SQTrackExpanded="0" MZ.TrackTargeted="1" PannerCurrentValue="0.5" PannerIsInverted="true" PannerStartKeyframe="-91445760000000000,0.5,0,0,0,0,0,0" PannerName="Balance" currentExplodedTrackIndex="1" totalExplodedTrackCount="2" premiereTrackType="Stereo">
														<transitionitem>
															<start>0</start>
															<end>151</end>
															<pproTicksIn>0</pproTicksIn>
															<pproTicksOut>1279825747200</pproTicksOut>
															<alignment>start-black</alignment>
															<cutPointTicks>0</cutPointTicks>
															<rate>
																<timebase>30</timebase>
																<ntsc>TRUE</ntsc>
															</rate>
															<effect>
																<name>Cross Fade (+3dB)</name>
																<effectid>KGAudioTransCrossFade3dB</effectid>
																<effecttype>transition</effecttype>
																<mediatype>audio</mediatype>
																<wipecode>0</wipecode>
																<wipeaccuracy>100</wipeaccuracy>
																<startratio>0</startratio>
																<endratio>1</endratio>
																<reverse>FALSE</reverse>
															</effect>
														</transitionitem>
														<clipitem id="clipitem-169" premiereChannelType="stereo">
															<masterclipid>masterclip-42</masterclipid>
															<name>ES_Sink - Coma Svensson.mp3</name>
															<enabled>TRUE</enabled>
															<duration>5674</duration>
															<rate>
																<timebase>30</timebase>
																<ntsc>TRUE</ntsc>
															</rate>
															<start>-1</start>
															<end>-1</end>
															<in>2378</in>
															<out>4322</out>
															<pproTicksIn>20155136601600</pproTicksIn>
															<pproTicksOut>36631833638400</pproTicksOut>
															<file id="file-42"/>
															<sourcetrack>
																<mediatype>audio</mediatype>
																<trackindex>2</trackindex>
															</sourcetrack>
															<filter>
																<effect>
																	<name>Gain</name>
																	<effectid>{61756678, 4761696e, 4b657947}</effectid>
																	<effecttype>filter</effecttype>
																	<mediatype>audio</mediatype>
																	<parameter authoringApp="PremierePro">
																		<parameterid>Gain(dB)</parameterid>
																		<name>Gain(dB)</name>
																		<valuemin>-96</valuemin>
																		<valuemax>96</valuemax>
																		<value>-6</value>
																	</parameter>
																</effect>
															</filter>
																<marker>
																	<comment></comment>
																	<name></name>
																	<in>3083</in>
																	<out>-1</out>
																</marker>
															<link>
																<linkclipref>clipitem-168</linkclipref>
																<mediatype>audio</mediatype>
																<trackindex>1</trackindex>
																<clipindex>2</clipindex>
																<groupindex>1</groupindex>
															</link>
															<link>
																<linkclipref>clipitem-169</linkclipref>
																<mediatype>audio</mediatype>
																<trackindex>2</trackindex>
																<clipindex>2</clipindex>
																<groupindex>1</groupindex>
															</link>
															<logginginfo>
																<description></description>
																<scene></scene>
																<shottake></shottake>
																<lognote></lognote>
																<good></good>
																<originalvideofilename></originalvideofilename>
																<originalaudiofilename></originalaudiofilename>
															</logginginfo>
															<colorinfo>
																<lut></lut>
																<lut1></lut1>
																<asc_sop></asc_sop>
																<asc_sat></asc_sat>
																<lut2></lut2>
															</colorinfo>
															<labels>
																<label2>Caribbean</label2>
															</labels>
														</clipitem>
														<transitionitem>
															<start>1756</start>
															<end>1944</end>
															<pproTicksIn>14883271603200</pproTicksIn>
															<pproTicksOut>16476697036800</pproTicksOut>
															<alignment>end-black</alignment>
															<cutPointTicks>1593425433600</cutPointTicks>
															<rate>
																<timebase>30</timebase>
																<ntsc>TRUE</ntsc>
															</rate>
															<effect>
																<name>Cross Fade (+3dB)</name>
																<effectid>KGAudioTransCrossFade3dB</effectid>
																<effecttype>transition</effecttype>
																<mediatype>audio</mediatype>
																<wipecode>0</wipecode>
																<wipeaccuracy>100</wipeaccuracy>
																<startratio>0</startratio>
																<endratio>1</endratio>
																<reverse>FALSE</reverse>
															</effect>
														</transitionitem>
														<enabled>TRUE</enabled>
														<locked>FALSE</locked>
														<outputchannelindex>2</outputchannelindex>
													</track>
												</audio>
											</media>
											<timecode>
												<rate>
													<timebase>30</timebase>
													<ntsc>TRUE</ntsc>
												</rate>
												<string>00:00:00:00</string>
												<frame>0</frame>
												<displayformat>NDF</displayformat>
											</timecode>
											<logginginfo>
												<description></description>
												<scene></scene>
												<shottake></shottake>
												<lognote></lognote>
												<good></good>
												<originalvideofilename></originalvideofilename>
												<originalaudiofilename></originalaudiofilename>
											</logginginfo>
										</sequence>
										<link>
											<linkclipref>clipitem-127</linkclipref>
											<mediatype>video</mediatype>
											<trackindex>1</trackindex>
											<clipindex>1</clipindex>
										</link>
										<link>
											<linkclipref>clipitem-262</linkclipref>
											<mediatype>audio</mediatype>
											<trackindex>1</trackindex>
											<clipindex>1</clipindex>
											<groupindex>1</groupindex>
										</link>
										<link>
											<linkclipref>clipitem-265</linkclipref>
											<mediatype>audio</mediatype>
											<trackindex>2</trackindex>
											<clipindex>1</clipindex>
											<groupindex>1</groupindex>
										</link>
										<labels>
											<label2>Forest</label2>
										</labels>
									</clipitem>
									<clipitem id="clipitem-170">
										<masterclipid>masterclip-74</masterclipid>
										<name>AWE_when nature is your building ground_1</name>
										<enabled>TRUE</enabled>
										<duration>2229</duration>
										<rate>
											<timebase>30</timebase>
											<ntsc>TRUE</ntsc>
										</rate>
										<start>1997</start>
										<end>4226</end>
										<in>0</in>
										<out>2229</out>
										<pproTicksIn>0</pproTicksIn>
										<pproTicksOut>18892262188800</pproTicksOut>
										<sequence id="sequence-10" TL.SQVisibleBaseTime="0" TL.SQTimePerPixel="0.28585104318292026" MZ.Sequence.PreviewFrameSizeHeight="1080" MZ.Sequence.PreviewFrameSizeWidth="1920" MZ.Sequence.AudioTimeDisplayFormat="200" MZ.Sequence.PreviewRenderingPresetCodec="1297107278" MZ.Sequence.PreviewRenderingPresetPath="EncoderPresets/SequencePreview/795454d9-d3c2-429d-9474-923ab13b7018/I-Frame Only MPEG.epr" MZ.Sequence.PreviewUseMaxRenderQuality="false" MZ.Sequence.PreviewUseMaxBitDepth="false" MZ.Sequence.EditingModeGUID="795454d9-d3c2-429d-9474-923ab13b7018" MZ.Sequence.VideoTimeDisplayFormat="103" MZ.WorkOutPoint="18892262188800" MZ.WorkInPoint="0">
											<duration>2229</duration>
											<rate>
												<timebase>30</timebase>
												<ntsc>TRUE</ntsc>
											</rate>
											<name>AWE_when nature is your building ground_1</name>
											<media>
												<video>
													<format>
														<samplecharacteristics>
															<rate>
																<timebase>30</timebase>
																<ntsc>TRUE</ntsc>
															</rate>
															<codec>
																<name>Apple ProRes 422</name>
																<appspecificdata>
																	<appname>Final Cut Pro</appname>
																	<appmanufacturer>Apple Inc.</appmanufacturer>
																	<appversion>7.0</appversion>
																	<data>
																		<qtcodec>
																			<codecname>Apple ProRes 422</codecname>
																			<codectypename>Apple ProRes 422</codectypename>
																			<codectypecode>apcn</codectypecode>
																			<codecvendorcode>appl</codecvendorcode>
																			<spatialquality>1024</spatialquality>
																			<temporalquality>0</temporalquality>
																			<keyframerate>0</keyframerate>
																			<datarate>0</datarate>
																		</qtcodec>
																	</data>
																</appspecificdata>
															</codec>
															<width>1920</width>
															<height>1080</height>
															<anamorphic>FALSE</anamorphic>
															<pixelaspectratio>square</pixelaspectratio>
															<fielddominance>none</fielddominance>
															<colordepth>24</colordepth>
														</samplecharacteristics>
													</format>
													<track TL.SQTrackExpandedHeight="25" TL.SQTrackExpanded="0" MZ.TrackTargeted="1">
														<clipitem id="clipitem-171">
															<masterclipid>masterclip-3</masterclipid>
															<name>(DELPHI CINEMA)_Reel_214857301_VI.mp4</name>
															<enabled>TRUE</enabled>
															<duration>4387</duration>
															<rate>
																<timebase>30</timebase>
																<ntsc>TRUE</ntsc>
															</rate>
															<start>0</start>
															<end>148</end>
															<in>1406</in>
															<out>1554</out>
															<pproTicksIn>11916788083200</pproTicksIn>
															<pproTicksOut>13171186828800</pproTicksOut>
															<alphatype>none</alphatype>
															<file id="file-3"/>
															<filter>
																<effect>
																	<name>Basic Motion</name>
																	<effectid>basic</effectid>
																	<effectcategory>motion</effectcategory>
																	<effecttype>motion</effecttype>
																	<mediatype>video</mediatype>
																	<pproBypass>false</pproBypass>
																	<parameter authoringApp="PremierePro">
																		<parameterid>scale</parameterid>
																		<name>Scale</name>
																		<valuemin>0</valuemin>
																		<valuemax>1000</valuemax>
																		<value>150</value>
																	</parameter>
																	<parameter authoringApp="PremierePro">
																		<parameterid>rotation</parameterid>
																		<name>Rotation</name>
																		<valuemin>-8640</valuemin>
																		<valuemax>8640</valuemax>
																		<value>0</value>
																	</parameter>
																	<parameter authoringApp="PremierePro">
																		<parameterid>center</parameterid>
																		<name>Center</name>
																		<value>
																			<horiz>0</horiz>
																			<vert>0</vert>
																		</value>
																	</parameter>
																	<parameter authoringApp="PremierePro">
																		<parameterid>centerOffset</parameterid>
																		<name>Anchor Point</name>
																		<value>
																			<horiz>0</horiz>
																			<vert>0</vert>
																		</value>
																	</parameter>
																	<parameter authoringApp="PremierePro">
																		<parameterid>antiflicker</parameterid>
																		<name>Anti-flicker Filter</name>
																		<valuemin>0.0</valuemin>
																		<valuemax>1.0</valuemax>
																		<value>0</value>
																	</parameter>
																</effect>
															</filter>
															<logginginfo>
																<description></description>
																<scene></scene>
																<shottake></shottake>
																<lognote></lognote>
																<good></good>
																<originalvideofilename></originalvideofilename>
																<originalaudiofilename></originalaudiofilename>
															</logginginfo>
															<colorinfo>
																<lut></lut>
																<lut1></lut1>
																<asc_sop></asc_sop>
																<asc_sat></asc_sat>
																<lut2></lut2>
															</colorinfo>
															<labels>
																<label2>Iris</label2>
															</labels>
														</clipitem>
														<clipitem id="clipitem-172">
															<masterclipid>masterclip-27</masterclipid>
															<name>(Aaron Chase)_DIY Dirt Sk8 PARK _ Build &amp; RIDE!!_-a4V9fnD_NA_YT.mp4</name>
															<enabled>TRUE</enabled>
															<duration>9674</duration>
															<rate>
																<timebase>30</timebase>
																<ntsc>TRUE</ntsc>
															</rate>
															<start>148</start>
															<end>197</end>
															<in>305</in>
															<out>354</out>
															<pproTicksIn>2585078496000</pproTicksIn>
															<pproTicksOut>3000386188800</pproTicksOut>
															<alphatype>none</alphatype>
															<file id="file-27"/>
															<logginginfo>
																<description></description>
																<scene></scene>
																<shottake></shottake>
																<lognote>https://www.youtube.com/watch?v=-a4V9fnD_NA</lognote>
																<good></good>
																<originalvideofilename></originalvideofilename>
																<originalaudiofilename></originalaudiofilename>
															</logginginfo>
															<colorinfo>
																<lut></lut>
																<lut1></lut1>
																<asc_sop></asc_sop>
																<asc_sat></asc_sat>
																<lut2></lut2>
															</colorinfo>
															<labels>
																<label2>Iris</label2>
															</labels>
														</clipitem>
														<clipitem id="clipitem-173">
															<masterclipid>masterclip-27</masterclipid>
															<name>(Aaron Chase)_DIY Dirt Sk8 PARK _ Build &amp; RIDE!!_-a4V9fnD_NA_YT.mp4</name>
															<enabled>TRUE</enabled>
															<duration>9674</duration>
															<rate>
																<timebase>30</timebase>
																<ntsc>TRUE</ntsc>
															</rate>
															<start>197</start>
															<end>253</end>
															<in>2599</in>
															<out>2655</out>
															<pproTicksIn>22028259052800</pproTicksIn>
															<pproTicksOut>22502896416000</pproTicksOut>
															<alphatype>none</alphatype>
															<file id="file-27"/>
															<logginginfo>
																<description></description>
																<scene></scene>
																<shottake></shottake>
																<lognote>https://www.youtube.com/watch?v=-a4V9fnD_NA</lognote>
																<good></good>
																<originalvideofilename></originalvideofilename>
																<originalaudiofilename></originalaudiofilename>
															</logginginfo>
															<colorinfo>
																<lut></lut>
																<lut1></lut1>
																<asc_sop></asc_sop>
																<asc_sat></asc_sat>
																<lut2></lut2>
															</colorinfo>
															<labels>
																<label2>Iris</label2>
															</labels>
														</clipitem>
														<clipitem id="clipitem-174">
															<masterclipid>masterclip-27</masterclipid>
															<name>(Aaron Chase)_DIY Dirt Sk8 PARK _ Build &amp; RIDE!!_-a4V9fnD_NA_YT.mp4</name>
															<enabled>TRUE</enabled>
															<duration>9674</duration>
															<rate>
																<timebase>30</timebase>
																<ntsc>TRUE</ntsc>
															</rate>
															<start>253</start>
															<end>289</end>
															<in>2846</in>
															<out>2882</out>
															<pproTicksIn>24121748851200</pproTicksIn>
															<pproTicksOut>24426872870400</pproTicksOut>
															<alphatype>none</alphatype>
															<file id="file-27"/>
															<logginginfo>
																<description></description>
																<scene></scene>
																<shottake></shottake>
																<lognote>https://www.youtube.com/watch?v=-a4V9fnD_NA</lognote>
																<good></good>
																<originalvideofilename></originalvideofilename>
																<originalaudiofilename></originalaudiofilename>
															</logginginfo>
															<colorinfo>
																<lut></lut>
																<lut1></lut1>
																<asc_sop></asc_sop>
																<asc_sat></asc_sat>
																<lut2></lut2>
															</colorinfo>
															<labels>
																<label2>Iris</label2>
															</labels>
														</clipitem>
														<clipitem id="clipitem-175">
															<masterclipid>masterclip-27</masterclipid>
															<name>(Aaron Chase)_DIY Dirt Sk8 PARK _ Build &amp; RIDE!!_-a4V9fnD_NA_YT.mp4</name>
															<enabled>TRUE</enabled>
															<duration>9674</duration>
															<rate>
																<timebase>30</timebase>
																<ntsc>TRUE</ntsc>
															</rate>
															<start>289</start>
															<end>325</end>
															<in>3298</in>
															<out>3334</out>
															<pproTicksIn>27952750425600</pproTicksIn>
															<pproTicksOut>28257874444800</pproTicksOut>
															<alphatype>none</alphatype>
															<file id="file-27"/>
															<logginginfo>
																<description></description>
																<scene></scene>
																<shottake></shottake>
																<lognote>https://www.youtube.com/watch?v=-a4V9fnD_NA</lognote>
																<good></good>
																<originalvideofilename></originalvideofilename>
																<originalaudiofilename></originalaudiofilename>
															</logginginfo>
															<colorinfo>
																<lut></lut>
																<lut1></lut1>
																<asc_sop></asc_sop>
																<asc_sat></asc_sat>
																<lut2></lut2>
															</colorinfo>
															<labels>
																<label2>Iris</label2>
															</labels>
														</clipitem>
														<clipitem id="clipitem-176">
															<masterclipid>masterclip-27</masterclipid>
															<name>(Aaron Chase)_DIY Dirt Sk8 PARK _ Build &amp; RIDE!!_-a4V9fnD_NA_YT.mp4</name>
															<enabled>TRUE</enabled>
															<duration>9674</duration>
															<rate>
																<timebase>30</timebase>
																<ntsc>TRUE</ntsc>
															</rate>
															<start>325</start>
															<end>358</end>
															<in>2727</in>
															<out>2760</out>
															<pproTicksIn>23113144454400</pproTicksIn>
															<pproTicksOut>23392841472000</pproTicksOut>
															<alphatype>none</alphatype>
															<file id="file-27"/>
															<logginginfo>
																<description></description>
																<scene></scene>
																<shottake></shottake>
																<lognote>https://www.youtube.com/watch?v=-a4V9fnD_NA</lognote>
																<good></good>
																<originalvideofilename></originalvideofilename>
																<originalaudiofilename></originalaudiofilename>
															</logginginfo>
															<colorinfo>
																<lut></lut>
																<lut1></lut1>
																<asc_sop></asc_sop>
																<asc_sat></asc_sat>
																<lut2></lut2>
															</colorinfo>
															<labels>
																<label2>Iris</label2>
															</labels>
														</clipitem>
														<clipitem id="clipitem-177">
															<masterclipid>masterclip-27</masterclipid>
															<name>(Aaron Chase)_DIY Dirt Sk8 PARK _ Build &amp; RIDE!!_-a4V9fnD_NA_YT.mp4</name>
															<enabled>TRUE</enabled>
															<duration>9674</duration>
															<rate>
																<timebase>30</timebase>
																<ntsc>TRUE</ntsc>
															</rate>
															<start>358</start>
															<end>461</end>
															<in>3491</in>
															<out>3594</out>
															<pproTicksIn>29588554195200</pproTicksIn>
															<pproTicksOut>30461547916800</pproTicksOut>
															<alphatype>none</alphatype>
															<file id="file-27"/>
															<logginginfo>
																<description></description>
																<scene></scene>
																<shottake></shottake>
																<lognote>https://www.youtube.com/watch?v=-a4V9fnD_NA</lognote>
																<good></good>
																<originalvideofilename></originalvideofilename>
																<originalaudiofilename></originalaudiofilename>
															</logginginfo>
															<colorinfo>
																<lut></lut>
																<lut1></lut1>
																<asc_sop></asc_sop>
																<asc_sat></asc_sat>
																<lut2></lut2>
															</colorinfo>
															<labels>
																<label2>Iris</label2>
															</labels>
														</clipitem>
														<clipitem id="clipitem-178">
															<masterclipid>masterclip-27</masterclipid>
															<name>(Aaron Chase)_DIY Dirt Sk8 PARK _ Build &amp; RIDE!!_-a4V9fnD_NA_YT.mp4</name>
															<enabled>TRUE</enabled>
															<duration>9674</duration>
															<rate>
																<timebase>30</timebase>
																<ntsc>TRUE</ntsc>
															</rate>
															<start>461</start>
															<end>530</end>
															<in>3812</in>
															<out>3881</out>
															<pproTicksIn>32309243366400</pproTicksIn>
															<pproTicksOut>32894064403200</pproTicksOut>
															<alphatype>none</alphatype>
															<file id="file-27"/>
															<logginginfo>
																<description></description>
																<scene></scene>
																<shottake></shottake>
																<lognote>https://www.youtube.com/watch?v=-a4V9fnD_NA</lognote>
																<good></good>
																<originalvideofilename></originalvideofilename>
																<originalaudiofilename></originalaudiofilename>
															</logginginfo>
															<colorinfo>
																<lut></lut>
																<lut1></lut1>
																<asc_sop></asc_sop>
																<asc_sat></asc_sat>
																<lut2></lut2>
															</colorinfo>
															<labels>
																<label2>Iris</label2>
															</labels>
														</clipitem>
														<clipitem id="clipitem-179">
															<masterclipid>masterclip-27</masterclipid>
															<name>(Aaron Chase)_DIY Dirt Sk8 PARK _ Build &amp; RIDE!!_-a4V9fnD_NA_YT.mp4</name>
															<enabled>TRUE</enabled>
															<duration>9674</duration>
															<rate>
																<timebase>30</timebase>
																<ntsc>TRUE</ntsc>
															</rate>
															<start>530</start>
															<end>567</end>
															<in>4705</in>
															<out>4742</out>
															<pproTicksIn>39878014176000</pproTicksIn>
															<pproTicksOut>40191613862400</pproTicksOut>
															<alphatype>none</alphatype>
															<file id="file-27"/>
															<logginginfo>
																<description></description>
																<scene></scene>
																<shottake></shottake>
																<lognote>https://www.youtube.com/watch?v=-a4V9fnD_NA</lognote>
																<good></good>
																<originalvideofilename></originalvideofilename>
																<originalaudiofilename></originalaudiofilename>
															</logginginfo>
															<colorinfo>
																<lut></lut>
																<lut1></lut1>
																<asc_sop></asc_sop>
																<asc_sat></asc_sat>
																<lut2></lut2>
															</colorinfo>
															<labels>
																<label2>Iris</label2>
															</labels>
														</clipitem>
														<clipitem id="clipitem-180">
															<masterclipid>masterclip-27</masterclipid>
															<name>(Aaron Chase)_DIY Dirt Sk8 PARK _ Build &amp; RIDE!!_-a4V9fnD_NA_YT.mp4</name>
															<enabled>TRUE</enabled>
															<duration>9674</duration>
															<rate>
																<timebase>30</timebase>
																<ntsc>TRUE</ntsc>
															</rate>
															<start>567</start>
															<end>615</end>
															<in>5119</in>
															<out>5167</out>
															<pproTicksIn>43386940396800</pproTicksIn>
															<pproTicksOut>43793772422400</pproTicksOut>
															<alphatype>none</alphatype>
															<file id="file-27"/>
															<logginginfo>
																<description></description>
																<scene></scene>
																<shottake></shottake>
																<lognote>https://www.youtube.com/watch?v=-a4V9fnD_NA</lognote>
																<good></good>
																<originalvideofilename></originalvideofilename>
																<originalaudiofilename></originalaudiofilename>
															</logginginfo>
															<colorinfo>
																<lut></lut>
																<lut1></lut1>
																<asc_sop></asc_sop>
																<asc_sat></asc_sat>
																<lut2></lut2>
															</colorinfo>
															<labels>
																<label2>Iris</label2>
															</labels>
														</clipitem>
														<clipitem id="clipitem-181">
															<masterclipid>masterclip-27</masterclipid>
															<name>(Aaron Chase)_DIY Dirt Sk8 PARK _ Build &amp; RIDE!!_-a4V9fnD_NA_YT.mp4</name>
															<enabled>TRUE</enabled>
															<duration>9674</duration>
															<rate>
																<timebase>30</timebase>
																<ntsc>TRUE</ntsc>
															</rate>
															<start>615</start>
															<end>653</end>
															<in>5399</in>
															<out>5437</out>
															<pproTicksIn>45760127212800</pproTicksIn>
															<pproTicksOut>46082202566400</pproTicksOut>
															<alphatype>none</alphatype>
															<file id="file-27"/>
															<logginginfo>
																<description></description>
																<scene></scene>
																<shottake></shottake>
																<lognote>https://www.youtube.com/watch?v=-a4V9fnD_NA</lognote>
																<good></good>
																<originalvideofilename></originalvideofilename>
																<originalaudiofilename></originalaudiofilename>
															</logginginfo>
															<colorinfo>
																<lut></lut>
																<lut1></lut1>
																<asc_sop></asc_sop>
																<asc_sat></asc_sat>
																<lut2></lut2>
															</colorinfo>
															<labels>
																<label2>Iris</label2>
															</labels>
														</clipitem>
														<clipitem id="clipitem-182">
															<masterclipid>masterclip-27</masterclipid>
															<name>(Aaron Chase)_DIY Dirt Sk8 PARK _ Build &amp; RIDE!!_-a4V9fnD_NA_YT.mp4</name>
															<enabled>TRUE</enabled>
															<duration>9674</duration>
															<rate>
																<timebase>30</timebase>
																<ntsc>TRUE</ntsc>
															</rate>
															<start>653</start>
															<end>679</end>
															<in>6145</in>
															<out>6171</out>
															<pproTicksIn>52082974944000</pproTicksIn>
															<pproTicksOut>52303342291200</pproTicksOut>
															<alphatype>none</alphatype>
															<file id="file-27"/>
															<logginginfo>
																<description></description>
																<scene></scene>
																<shottake></shottake>
																<lognote>https://www.youtube.com/watch?v=-a4V9fnD_NA</lognote>
																<good></good>
																<originalvideofilename></originalvideofilename>
																<originalaudiofilename></originalaudiofilename>
															</logginginfo>
															<colorinfo>
																<lut></lut>
																<lut1></lut1>
																<asc_sop></asc_sop>
																<asc_sat></asc_sat>
																<lut2></lut2>
															</colorinfo>
															<labels>
																<label2>Iris</label2>
															</labels>
														</clipitem>
														<clipitem id="clipitem-183">
															<masterclipid>masterclip-27</masterclipid>
															<name>(Aaron Chase)_DIY Dirt Sk8 PARK _ Build &amp; RIDE!!_-a4V9fnD_NA_YT.mp4</name>
															<enabled>TRUE</enabled>
															<duration>9674</duration>
															<rate>
																<timebase>30</timebase>
																<ntsc>TRUE</ntsc>
															</rate>
															<start>679</start>
															<end>714</end>
															<in>6437</in>
															<out>6472</out>
															<pproTicksIn>54557869766400</pproTicksIn>
															<pproTicksOut>54854518118400</pproTicksOut>
															<alphatype>none</alphatype>
															<file id="file-27"/>
															<logginginfo>
																<description></description>
																<scene></scene>
																<shottake></shottake>
																<lognote>https://www.youtube.com/watch?v=-a4V9fnD_NA</lognote>
																<good></good>
																<originalvideofilename></originalvideofilename>
																<originalaudiofilename></originalaudiofilename>
															</logginginfo>
															<colorinfo>
																<lut></lut>
																<lut1></lut1>
																<asc_sop></asc_sop>
																<asc_sat></asc_sat>
																<lut2></lut2>
															</colorinfo>
															<labels>
																<label2>Iris</label2>
															</labels>
														</clipitem>
														<clipitem id="clipitem-184">
															<masterclipid>masterclip-27</masterclipid>
															<name>(Aaron Chase)_DIY Dirt Sk8 PARK _ Build &amp; RIDE!!_-a4V9fnD_NA_YT.mp4</name>
															<enabled>TRUE</enabled>
															<duration>9674</duration>
															<rate>
																<timebase>30</timebase>
																<ntsc>TRUE</ntsc>
															</rate>
															<start>714</start>
															<end>745</end>
															<in>6570</in>
															<out>6601</out>
															<pproTicksIn>55685133504000</pproTicksIn>
															<pproTicksOut>55947879187200</pproTicksOut>
															<alphatype>none</alphatype>
															<file id="file-27"/>
															<logginginfo>
																<description></description>
																<scene></scene>
																<shottake></shottake>
																<lognote>https://www.youtube.com/watch?v=-a4V9fnD_NA</lognote>
																<good></good>
																<originalvideofilename></originalvideofilename>
																<originalaudiofilename></originalaudiofilename>
															</logginginfo>
															<colorinfo>
																<lut></lut>
																<lut1></lut1>
																<asc_sop></asc_sop>
																<asc_sat></asc_sat>
																<lut2></lut2>
															</colorinfo>
															<labels>
																<label2>Iris</label2>
															</labels>
														</clipitem>
														<clipitem id="clipitem-185">
															<masterclipid>masterclip-27</masterclipid>
															<name>(Aaron Chase)_DIY Dirt Sk8 PARK _ Build &amp; RIDE!!_-a4V9fnD_NA_YT.mp4</name>
															<enabled>TRUE</enabled>
															<duration>9674</duration>
															<rate>
																<timebase>30</timebase>
																<ntsc>TRUE</ntsc>
															</rate>
															<start>745</start>
															<end>796</end>
															<in>7211</in>
															<out>7262</out>
															<pproTicksIn>61118036179200</pproTicksIn>
															<pproTicksOut>61550295206400</pproTicksOut>
															<alphatype>none</alphatype>
															<file id="file-27"/>
															<logginginfo>
																<description></description>
																<scene></scene>
																<shottake></shottake>
																<lognote>https://www.youtube.com/watch?v=-a4V9fnD_NA</lognote>
																<good></good>
																<originalvideofilename></originalvideofilename>
																<originalaudiofilename></originalaudiofilename>
															</logginginfo>
															<colorinfo>
																<lut></lut>
																<lut1></lut1>
																<asc_sop></asc_sop>
																<asc_sat></asc_sat>
																<lut2></lut2>
															</colorinfo>
															<labels>
																<label2>Iris</label2>
															</labels>
														</clipitem>
														<clipitem id="clipitem-186">
															<masterclipid>masterclip-27</masterclipid>
															<name>(Aaron Chase)_DIY Dirt Sk8 PARK _ Build &amp; RIDE!!_-a4V9fnD_NA_YT.mp4</name>
															<enabled>TRUE</enabled>
															<duration>9674</duration>
															<rate>
																<timebase>30</timebase>
																<ntsc>TRUE</ntsc>
															</rate>
															<start>796</start>
															<end>829</end>
															<in>6760</in>
															<out>6793</out>
															<pproTicksIn>57295510272000</pproTicksIn>
															<pproTicksOut>57575207289600</pproTicksOut>
															<alphatype>none</alphatype>
															<file id="file-27"/>
															<logginginfo>
																<description></description>
																<scene></scene>
																<shottake></shottake>
																<lognote>https://www.youtube.com/watch?v=-a4V9fnD_NA</lognote>
																<good></good>
																<originalvideofilename></originalvideofilename>
																<originalaudiofilename></originalaudiofilename>
															</logginginfo>
															<colorinfo>
																<lut></lut>
																<lut1></lut1>
																<asc_sop></asc_sop>
																<asc_sat></asc_sat>
																<lut2></lut2>
															</colorinfo>
															<labels>
																<label2>Iris</label2>
															</labels>
														</clipitem>
														<clipitem id="clipitem-187">
															<masterclipid>masterclip-27</masterclipid>
															<name>(Aaron Chase)_DIY Dirt Sk8 PARK _ Build &amp; RIDE!!_-a4V9fnD_NA_YT.mp4</name>
															<enabled>TRUE</enabled>
															<duration>9674</duration>
															<rate>
																<timebase>30</timebase>
																<ntsc>TRUE</ntsc>
															</rate>
															<start>829</start>
															<end>876</end>
															<in>6864</in>
															<out>6911</out>
															<pproTicksIn>58176979660800</pproTicksIn>
															<pproTicksOut>58575336019200</pproTicksOut>
															<alphatype>none</alphatype>
															<file id="file-27"/>
															<logginginfo>
																<description></description>
																<scene></scene>
																<shottake></shottake>
																<lognote>https://www.youtube.com/watch?v=-a4V9fnD_NA</lognote>
																<good></good>
																<originalvideofilename></originalvideofilename>
																<originalaudiofilename></originalaudiofilename>
															</logginginfo>
															<colorinfo>
																<lut></lut>
																<lut1></lut1>
																<asc_sop></asc_sop>
																<asc_sat></asc_sat>
																<lut2></lut2>
															</colorinfo>
															<labels>
																<label2>Iris</label2>
															</labels>
														</clipitem>
														<clipitem id="clipitem-188">
															<masterclipid>masterclip-1</masterclipid>
															<name>(Aaron Chase)_Lets try the Open-Loop on ALL MY BIKES!!_krEUwkn-J_8_YT.mp4</name>
															<enabled>TRUE</enabled>
															<duration>19791</duration>
															<rate>
																<timebase>30</timebase>
																<ntsc>TRUE</ntsc>
															</rate>
															<start>876</start>
															<end>963</end>
															<in>5541</in>
															<out>5628</out>
															<pproTicksIn>46963671955200</pproTicksIn>
															<pproTicksOut>47701055001600</pproTicksOut>
															<alphatype>none</alphatype>
															<file id="file-1"/>
															<logginginfo>
																<description></description>
																<scene></scene>
																<shottake></shottake>
																<lognote>https://www.youtube.com/watch?v=krEUwkn-J_8</lognote>
																<good></good>
																<originalvideofilename></originalvideofilename>
																<originalaudiofilename></originalaudiofilename>
															</logginginfo>
															<colorinfo>
																<lut></lut>
																<lut1></lut1>
																<asc_sop></asc_sop>
																<asc_sat></asc_sat>
																<lut2></lut2>
															</colorinfo>
															<labels>
																<label2>Iris</label2>
															</labels>
														</clipitem>
														<clipitem id="clipitem-189">
															<masterclipid>masterclip-1</masterclipid>
															<name>(Aaron Chase)_Lets try the Open-Loop on ALL MY BIKES!!_krEUwkn-J_8_YT.mp4</name>
															<enabled>TRUE</enabled>
															<duration>19791</duration>
															<rate>
																<timebase>30</timebase>
																<ntsc>TRUE</ntsc>
															</rate>
															<start>963</start>
															<end>995</end>
															<in>5676</in>
															<out>5708</out>
															<pproTicksIn>48107887027200</pproTicksIn>
															<pproTicksOut>48379108377600</pproTicksOut>
															<alphatype>none</alphatype>
															<file id="file-1"/>
															<logginginfo>
																<description></description>
																<scene></scene>
																<shottake></shottake>
																<lognote>https://www.youtube.com/watch?v=krEUwkn-J_8</lognote>
																<good></good>
																<originalvideofilename></originalvideofilename>
																<originalaudiofilename></originalaudiofilename>
															</logginginfo>
															<colorinfo>
																<lut></lut>
																<lut1></lut1>
																<asc_sop></asc_sop>
																<asc_sat></asc_sat>
																<lut2></lut2>
															</colorinfo>
															<labels>
																<label2>Iris</label2>
															</labels>
														</clipitem>
														<clipitem id="clipitem-190">
															<masterclipid>masterclip-27</masterclipid>
															<name>(Aaron Chase)_DIY Dirt Sk8 PARK _ Build &amp; RIDE!!_-a4V9fnD_NA_YT.mp4</name>
															<enabled>TRUE</enabled>
															<duration>9674</duration>
															<rate>
																<timebase>30</timebase>
																<ntsc>TRUE</ntsc>
															</rate>
															<start>995</start>
															<end>1045</end>
															<in>7353</in>
															<out>7403</out>
															<pproTicksIn>62321580921600</pproTicksIn>
															<pproTicksOut>62745364281600</pproTicksOut>
															<alphatype>none</alphatype>
															<file id="file-27"/>
															<logginginfo>
																<description></description>
																<scene></scene>
																<shottake></shottake>
																<lognote>https://www.youtube.com/watch?v=-a4V9fnD_NA</lognote>
																<good></good>
																<originalvideofilename></originalvideofilename>
																<originalaudiofilename></originalaudiofilename>
															</logginginfo>
															<colorinfo>
																<lut></lut>
																<lut1></lut1>
																<asc_sop></asc_sop>
																<asc_sat></asc_sat>
																<lut2></lut2>
															</colorinfo>
															<labels>
																<label2>Iris</label2>
															</labels>
														</clipitem>
														<clipitem id="clipitem-191">
															<masterclipid>masterclip-27</masterclipid>
															<name>(Aaron Chase)_DIY Dirt Sk8 PARK _ Build &amp; RIDE!!_-a4V9fnD_NA_YT.mp4</name>
															<enabled>TRUE</enabled>
															<duration>9674</duration>
															<rate>
																<timebase>30</timebase>
																<ntsc>TRUE</ntsc>
															</rate>
															<start>1045</start>
															<end>1090</end>
															<in>7607</in>
															<out>7652</out>
															<pproTicksIn>64474400390400</pproTicksIn>
															<pproTicksOut>64855805414400</pproTicksOut>
															<alphatype>none</alphatype>
															<file id="file-27"/>
															<logginginfo>
																<description></description>
																<scene></scene>
																<shottake></shottake>
																<lognote>https://www.youtube.com/watch?v=-a4V9fnD_NA</lognote>
																<good></good>
																<originalvideofilename></originalvideofilename>
																<originalaudiofilename></originalaudiofilename>
															</logginginfo>
															<colorinfo>
																<lut></lut>
																<lut1></lut1>
																<asc_sop></asc_sop>
																<asc_sat></asc_sat>
																<lut2></lut2>
															</colorinfo>
															<labels>
																<label2>Iris</label2>
															</labels>
														</clipitem>
														<clipitem id="clipitem-192">
															<masterclipid>masterclip-27</masterclipid>
															<name>(Aaron Chase)_DIY Dirt Sk8 PARK _ Build &amp; RIDE!!_-a4V9fnD_NA_YT.mp4</name>
															<enabled>TRUE</enabled>
															<duration>9674</duration>
															<rate>
																<timebase>30</timebase>
																<ntsc>TRUE</ntsc>
															</rate>
															<start>1090</start>
															<end>1131</end>
															<in>7732</in>
															<out>7773</out>
															<pproTicksIn>65533858790400</pproTicksIn>
															<pproTicksOut>65881361145600</pproTicksOut>
															<alphatype>none</alphatype>
															<file id="file-27"/>
															<logginginfo>
																<description></description>
																<scene></scene>
																<shottake></shottake>
																<lognote>https://www.youtube.com/watch?v=-a4V9fnD_NA</lognote>
																<good></good>
																<originalvideofilename></originalvideofilename>
																<originalaudiofilename></originalaudiofilename>
															</logginginfo>
															<colorinfo>
																<lut></lut>
																<lut1></lut1>
																<asc_sop></asc_sop>
																<asc_sat></asc_sat>
																<lut2></lut2>
															</colorinfo>
															<labels>
																<label2>Iris</label2>
															</labels>
														</clipitem>
														<clipitem id="clipitem-193">
															<masterclipid>masterclip-27</masterclipid>
															<name>(Aaron Chase)_DIY Dirt Sk8 PARK _ Build &amp; RIDE!!_-a4V9fnD_NA_YT.mp4</name>
															<enabled>TRUE</enabled>
															<duration>9674</duration>
															<rate>
																<timebase>30</timebase>
																<ntsc>TRUE</ntsc>
															</rate>
															<start>1131</start>
															<end>1178</end>
															<in>8619</in>
															<out>8666</out>
															<pproTicksIn>73051775596800</pproTicksIn>
															<pproTicksOut>73450131955200</pproTicksOut>
															<alphatype>none</alphatype>
															<file id="file-27"/>
															<logginginfo>
																<description></description>
																<scene></scene>
																<shottake></shottake>
																<lognote>https://www.youtube.com/watch?v=-a4V9fnD_NA</lognote>
																<good></good>
																<originalvideofilename></originalvideofilename>
																<originalaudiofilename></originalaudiofilename>
															</logginginfo>
															<colorinfo>
																<lut></lut>
																<lut1></lut1>
																<asc_sop></asc_sop>
																<asc_sat></asc_sat>
																<lut2></lut2>
															</colorinfo>
															<labels>
																<label2>Iris</label2>
															</labels>
														</clipitem>
														<clipitem id="clipitem-194">
															<masterclipid>masterclip-27</masterclipid>
															<name>(Aaron Chase)_DIY Dirt Sk8 PARK _ Build &amp; RIDE!!_-a4V9fnD_NA_YT.mp4</name>
															<enabled>TRUE</enabled>
															<duration>9674</duration>
															<rate>
																<timebase>30</timebase>
																<ntsc>TRUE</ntsc>
															</rate>
															<start>1178</start>
															<end>1211</end>
															<in>8137</in>
															<out>8170</out>
															<pproTicksIn>68966504006400</pproTicksIn>
															<pproTicksOut>69246201024000</pproTicksOut>
															<alphatype>none</alphatype>
															<file id="file-27"/>
															<logginginfo>
																<description></description>
																<scene></scene>
																<shottake></shottake>
																<lognote>https://www.youtube.com/watch?v=-a4V9fnD_NA</lognote>
																<good></good>
																<originalvideofilename></originalvideofilename>
																<originalaudiofilename></originalaudiofilename>
															</logginginfo>
															<colorinfo>
																<lut></lut>
																<lut1></lut1>
																<asc_sop></asc_sop>
																<asc_sat></asc_sat>
																<lut2></lut2>
															</colorinfo>
															<labels>
																<label2>Iris</label2>
															</labels>
														</clipitem>
														<clipitem id="clipitem-195">
															<masterclipid>masterclip-27</masterclipid>
															<name>(Aaron Chase)_DIY Dirt Sk8 PARK _ Build &amp; RIDE!!_-a4V9fnD_NA_YT.mp4</name>
															<enabled>TRUE</enabled>
															<duration>9674</duration>
															<rate>
																<timebase>30</timebase>
																<ntsc>TRUE</ntsc>
															</rate>
															<start>1211</start>
															<end>1257</end>
															<in>8265</in>
															<out>8311</out>
															<pproTicksIn>70051389408000</pproTicksIn>
															<pproTicksOut>70441270099200</pproTicksOut>
															<alphatype>none</alphatype>
															<file id="file-27"/>
															<logginginfo>
																<description></description>
																<scene></scene>
																<shottake></shottake>
																<lognote>https://www.youtube.com/watch?v=-a4V9fnD_NA</lognote>
																<good></good>
																<originalvideofilename></originalvideofilename>
																<originalaudiofilename></originalaudiofilename>
															</logginginfo>
															<colorinfo>
																<lut></lut>
																<lut1></lut1>
																<asc_sop></asc_sop>
																<asc_sat></asc_sat>
																<lut2></lut2>
															</colorinfo>
															<labels>
																<label2>Iris</label2>
															</labels>
														</clipitem>
														<clipitem id="clipitem-196">
															<masterclipid>masterclip-1</masterclipid>
															<name>(Aaron Chase)_Lets try the Open-Loop on ALL MY BIKES!!_krEUwkn-J_8_YT.mp4</name>
															<enabled>TRUE</enabled>
															<duration>19791</duration>
															<rate>
																<timebase>30</timebase>
																<ntsc>TRUE</ntsc>
															</rate>
															<start>1257</start>
															<end>1343</end>
															<in>3332</in>
															<out>3418</out>
															<pproTicksIn>28240923110400</pproTicksIn>
															<pproTicksOut>28969830489600</pproTicksOut>
															<alphatype>none</alphatype>
															<file id="file-1"/>
															<logginginfo>
																<description></description>
																<scene></scene>
																<shottake></shottake>
																<lognote>https://www.youtube.com/watch?v=krEUwkn-J_8</lognote>
																<good></good>
																<originalvideofilename></originalvideofilename>
																<originalaudiofilename></originalaudiofilename>
															</logginginfo>
															<colorinfo>
																<lut></lut>
																<lut1></lut1>
																<asc_sop></asc_sop>
																<asc_sat></asc_sat>
																<lut2></lut2>
															</colorinfo>
															<labels>
																<label2>Iris</label2>
															</labels>
														</clipitem>
														<clipitem id="clipitem-197">
															<masterclipid>masterclip-39</masterclipid>
															<name>(Alex Wild)_Building the biggest SECRET HOUSE UNDERGROUND SHELTER. Won't the HUGE ROOF fall_ Part 4_ixRSw0pVVGo_YT.mp4</name>
															<enabled>TRUE</enabled>
															<duration>45134</duration>
															<rate>
																<timebase>30</timebase>
																<ntsc>TRUE</ntsc>
															</rate>
															<start>1343</start>
															<end>1376</end>
															<in>38470</in>
															<out>38503</out>
															<pproTicksIn>326058917184000</pproTicksIn>
															<pproTicksOut>326338614201600</pproTicksOut>
															<alphatype>none</alphatype>
															<file id="file-39"/>
															<logginginfo>
																<description></description>
																<scene></scene>
																<shottake></shottake>
																<lognote>https://www.youtube.com/watch?v=ixRSw0pVVGo</lognote>
																<good></good>
																<originalvideofilename></originalvideofilename>
																<originalaudiofilename></originalaudiofilename>
															</logginginfo>
															<colorinfo>
																<lut></lut>
																<lut1></lut1>
																<asc_sop></asc_sop>
																<asc_sat></asc_sat>
																<lut2></lut2>
															</colorinfo>
															<labels>
																<label2>Iris</label2>
															</labels>
														</clipitem>
														<clipitem id="clipitem-198">
															<masterclipid>masterclip-39</masterclipid>
															<name>(Alex Wild)_Building the biggest SECRET HOUSE UNDERGROUND SHELTER. Won't the HUGE ROOF fall_ Part 4_ixRSw0pVVGo_YT.mp4</name>
															<enabled>TRUE</enabled>
															<duration>45134</duration>
															<rate>
																<timebase>30</timebase>
																<ntsc>TRUE</ntsc>
															</rate>
															<start>1376</start>
															<end>1403</end>
															<in>3677</in>
															<out>3704</out>
															<pproTicksIn>31165028294400</pproTicksIn>
															<pproTicksOut>31393871308800</pproTicksOut>
															<alphatype>none</alphatype>
															<file id="file-39"/>
															<logginginfo>
																<description></description>
																<scene></scene>
																<shottake></shottake>
																<lognote>https://www.youtube.com/watch?v=ixRSw0pVVGo</lognote>
																<good></good>
																<originalvideofilename></originalvideofilename>
																<originalaudiofilename></originalaudiofilename>
															</logginginfo>
															<colorinfo>
																<lut></lut>
																<lut1></lut1>
																<asc_sop></asc_sop>
																<asc_sat></asc_sat>
																<lut2></lut2>
															</colorinfo>
															<labels>
																<label2>Iris</label2>
															</labels>
														</clipitem>
														<clipitem id="clipitem-199">
															<masterclipid>masterclip-39</masterclipid>
															<name>(Alex Wild)_Building the biggest SECRET HOUSE UNDERGROUND SHELTER. Won't the HUGE ROOF fall_ Part 4_ixRSw0pVVGo_YT.mp4</name>
															<enabled>TRUE</enabled>
															<duration>45134</duration>
															<rate>
																<timebase>30</timebase>
																<ntsc>TRUE</ntsc>
															</rate>
															<start>1403</start>
															<end>1431</end>
															<in>2034</in>
															<out>2062</out>
															<pproTicksIn>17239507084800</pproTicksIn>
															<pproTicksOut>17476825766400</pproTicksOut>
															<alphatype>none</alphatype>
															<file id="file-39"/>
															<logginginfo>
																<description></description>
																<scene></scene>
																<shottake></shottake>
																<lognote>https://www.youtube.com/watch?v=ixRSw0pVVGo</lognote>
																<good></good>
																<originalvideofilename></originalvideofilename>
																<originalaudiofilename></originalaudiofilename>
															</logginginfo>
															<colorinfo>
																<lut></lut>
																<lut1></lut1>
																<asc_sop></asc_sop>
																<asc_sat></asc_sat>
																<lut2></lut2>
															</colorinfo>
															<labels>
																<label2>Iris</label2>
															</labels>
														</clipitem>
														<clipitem id="clipitem-200">
															<masterclipid>masterclip-39</masterclipid>
															<name>(Alex Wild)_Building the biggest SECRET HOUSE UNDERGROUND SHELTER. Won't the HUGE ROOF fall_ Part 4_ixRSw0pVVGo_YT.mp4</name>
															<enabled>TRUE</enabled>
															<duration>45134</duration>
															<rate>
																<timebase>30</timebase>
																<ntsc>TRUE</ntsc>
															</rate>
															<start>1431</start>
															<end>1448</end>
															<in>2062</in>
															<out>2079</out>
															<pproTicksIn>17476825766400</pproTicksIn>
															<pproTicksOut>17620912108800</pproTicksOut>
															<alphatype>none</alphatype>
															<file id="file-39"/>
															<logginginfo>
																<description></description>
																<scene></scene>
																<shottake></shottake>
																<lognote>https://www.youtube.com/watch?v=ixRSw0pVVGo</lognote>
																<good></good>
																<originalvideofilename></originalvideofilename>
																<originalaudiofilename></originalaudiofilename>
															</logginginfo>
															<colorinfo>
																<lut></lut>
																<lut1></lut1>
																<asc_sop></asc_sop>
																<asc_sat></asc_sat>
																<lut2></lut2>
															</colorinfo>
															<labels>
																<label2>Iris</label2>
															</labels>
														</clipitem>
														<clipitem id="clipitem-201">
															<masterclipid>masterclip-39</masterclipid>
															<name>(Alex Wild)_Building the biggest SECRET HOUSE UNDERGROUND SHELTER. Won't the HUGE ROOF fall_ Part 4_ixRSw0pVVGo_YT.mp4</name>
															<enabled>TRUE</enabled>
															<duration>45134</duration>
															<rate>
																<timebase>30</timebase>
																<ntsc>TRUE</ntsc>
															</rate>
															<start>1448</start>
															<end>1472</end>
															<in>2580</in>
															<out>2604</out>
															<pproTicksIn>21867221376000</pproTicksIn>
															<pproTicksOut>22070637388800</pproTicksOut>
															<alphatype>none</alphatype>
															<file id="file-39"/>
															<logginginfo>
																<description></description>
																<scene></scene>
																<shottake></shottake>
																<lognote>https://www.youtube.com/watch?v=ixRSw0pVVGo</lognote>
																<good></good>
																<originalvideofilename></originalvideofilename>
																<originalaudiofilename></originalaudiofilename>
															</logginginfo>
															<colorinfo>
																<lut></lut>
																<lut1></lut1>
																<asc_sop></asc_sop>
																<asc_sat></asc_sat>
																<lut2></lut2>
															</colorinfo>
															<labels>
																<label2>Iris</label2>
															</labels>
														</clipitem>
														<clipitem id="clipitem-202">
															<masterclipid>masterclip-39</masterclipid>
															<name>(Alex Wild)_Building the biggest SECRET HOUSE UNDERGROUND SHELTER. Won't the HUGE ROOF fall_ Part 4_ixRSw0pVVGo_YT.mp4</name>
															<enabled>TRUE</enabled>
															<duration>45134</duration>
															<rate>
																<timebase>30</timebase>
																<ntsc>TRUE</ntsc>
															</rate>
															<start>1472</start>
															<end>1498</end>
															<in>4470</in>
															<out>4496</out>
															<pproTicksIn>37886232384000</pproTicksIn>
															<pproTicksOut>38106599731200</pproTicksOut>
															<alphatype>none</alphatype>
															<file id="file-39"/>
															<logginginfo>
																<description></description>
																<scene></scene>
																<shottake></shottake>
																<lognote>https://www.youtube.com/watch?v=ixRSw0pVVGo</lognote>
																<good></good>
																<originalvideofilename></originalvideofilename>
																<originalaudiofilename></originalaudiofilename>
															</logginginfo>
															<colorinfo>
																<lut></lut>
																<lut1></lut1>
																<asc_sop></asc_sop>
																<asc_sat></asc_sat>
																<lut2></lut2>
															</colorinfo>
															<labels>
																<label2>Iris</label2>
															</labels>
														</clipitem>
														<clipitem id="clipitem-203">
															<masterclipid>masterclip-39</masterclipid>
															<name>(Alex Wild)_Building the biggest SECRET HOUSE UNDERGROUND SHELTER. Won't the HUGE ROOF fall_ Part 4_ixRSw0pVVGo_YT.mp4</name>
															<enabled>TRUE</enabled>
															<duration>45134</duration>
															<rate>
																<timebase>30</timebase>
																<ntsc>TRUE</ntsc>
															</rate>
															<start>1498</start>
															<end>1520</end>
															<in>5718</in>
															<out>5740</out>
															<pproTicksIn>48463865049600</pproTicksIn>
															<pproTicksOut>48650329728000</pproTicksOut>
															<alphatype>none</alphatype>
															<file id="file-39"/>
															<logginginfo>
																<description></description>
																<scene></scene>
																<shottake></shottake>
																<lognote>https://www.youtube.com/watch?v=ixRSw0pVVGo</lognote>
																<good></good>
																<originalvideofilename></originalvideofilename>
																<originalaudiofilename></originalaudiofilename>
															</logginginfo>
															<colorinfo>
																<lut></lut>
																<lut1></lut1>
																<asc_sop></asc_sop>
																<asc_sat></asc_sat>
																<lut2></lut2>
															</colorinfo>
															<labels>
																<label2>Iris</label2>
															</labels>
														</clipitem>
														<clipitem id="clipitem-204">
															<masterclipid>masterclip-39</masterclipid>
															<name>(Alex Wild)_Building the biggest SECRET HOUSE UNDERGROUND SHELTER. Won't the HUGE ROOF fall_ Part 4_ixRSw0pVVGo_YT.mp4</name>
															<enabled>TRUE</enabled>
															<duration>45134</duration>
															<rate>
																<timebase>30</timebase>
																<ntsc>TRUE</ntsc>
															</rate>
															<start>1520</start>
															<end>1564</end>
															<in>34706</in>
															<out>34750</out>
															<pproTicksIn>294156505843200</pproTicksIn>
															<pproTicksOut>294529435200000</pproTicksOut>
															<alphatype>none</alphatype>
															<file id="file-39"/>
															<logginginfo>
																<description></description>
																<scene></scene>
																<shottake></shottake>
																<lognote>https://www.youtube.com/watch?v=ixRSw0pVVGo</lognote>
																<good></good>
																<originalvideofilename></originalvideofilename>
																<originalaudiofilename></originalaudiofilename>
															</logginginfo>
															<colorinfo>
																<lut></lut>
																<lut1></lut1>
																<asc_sop></asc_sop>
																<asc_sat></asc_sat>
																<lut2></lut2>
															</colorinfo>
															<labels>
																<label2>Iris</label2>
															</labels>
														</clipitem>
														<clipitem id="clipitem-205">
															<masterclipid>masterclip-39</masterclipid>
															<name>(Alex Wild)_Building the biggest SECRET HOUSE UNDERGROUND SHELTER. Won't the HUGE ROOF fall_ Part 4_ixRSw0pVVGo_YT.mp4</name>
															<enabled>TRUE</enabled>
															<duration>45134</duration>
															<rate>
																<timebase>30</timebase>
																<ntsc>TRUE</ntsc>
															</rate>
															<start>1564</start>
															<end>1587</end>
															<in>5938</in>
															<out>5961</out>
															<pproTicksIn>50328511833600</pproTicksIn>
															<pproTicksOut>50523452179200</pproTicksOut>
															<alphatype>none</alphatype>
															<file id="file-39"/>
															<logginginfo>
																<description></description>
																<scene></scene>
																<shottake></shottake>
																<lognote>https://www.youtube.com/watch?v=ixRSw0pVVGo</lognote>
																<good></good>
																<originalvideofilename></originalvideofilename>
																<originalaudiofilename></originalaudiofilename>
															</logginginfo>
															<colorinfo>
																<lut></lut>
																<lut1></lut1>
																<asc_sop></asc_sop>
																<asc_sat></asc_sat>
																<lut2></lut2>
															</colorinfo>
															<labels>
																<label2>Iris</label2>
															</labels>
														</clipitem>
														<clipitem id="clipitem-206">
															<masterclipid>masterclip-39</masterclipid>
															<name>(Alex Wild)_Building the biggest SECRET HOUSE UNDERGROUND SHELTER. Won't the HUGE ROOF fall_ Part 4_ixRSw0pVVGo_YT.mp4</name>
															<enabled>TRUE</enabled>
															<duration>45134</duration>
															<rate>
																<timebase>30</timebase>
																<ntsc>TRUE</ntsc>
															</rate>
															<start>1587</start>
															<end>1616</end>
															<in>7164</in>
															<out>7193</out>
															<pproTicksIn>60719679820800</pproTicksIn>
															<pproTicksOut>60965474169600</pproTicksOut>
															<alphatype>none</alphatype>
															<file id="file-39"/>
															<logginginfo>
																<description></description>
																<scene></scene>
																<shottake></shottake>
																<lognote>https://www.youtube.com/watch?v=ixRSw0pVVGo</lognote>
																<good></good>
																<originalvideofilename></originalvideofilename>
																<originalaudiofilename></originalaudiofilename>
															</logginginfo>
															<colorinfo>
																<lut></lut>
																<lut1></lut1>
																<asc_sop></asc_sop>
																<asc_sat></asc_sat>
																<lut2></lut2>
															</colorinfo>
															<labels>
																<label2>Iris</label2>
															</labels>
														</clipitem>
														<clipitem id="clipitem-207">
															<masterclipid>masterclip-39</masterclipid>
															<name>(Alex Wild)_Building the biggest SECRET HOUSE UNDERGROUND SHELTER. Won't the HUGE ROOF fall_ Part 4_ixRSw0pVVGo_YT.mp4</name>
															<enabled>TRUE</enabled>
															<duration>45134</duration>
															<rate>
																<timebase>30</timebase>
																<ntsc>TRUE</ntsc>
															</rate>
															<start>1616</start>
															<end>1637</end>
															<in>7324</in>
															<out>7345</out>
															<pproTicksIn>62075786572800</pproTicksIn>
															<pproTicksOut>62253775584000</pproTicksOut>
															<alphatype>none</alphatype>
															<file id="file-39"/>
															<logginginfo>
																<description></description>
																<scene></scene>
																<shottake></shottake>
																<lognote>https://www.youtube.com/watch?v=ixRSw0pVVGo</lognote>
																<good></good>
																<originalvideofilename></originalvideofilename>
																<originalaudiofilename></originalaudiofilename>
															</logginginfo>
															<colorinfo>
																<lut></lut>
																<lut1></lut1>
																<asc_sop></asc_sop>
																<asc_sat></asc_sat>
																<lut2></lut2>
															</colorinfo>
															<labels>
																<label2>Iris</label2>
															</labels>
														</clipitem>
														<clipitem id="clipitem-208">
															<masterclipid>masterclip-39</masterclipid>
															<name>(Alex Wild)_Building the biggest SECRET HOUSE UNDERGROUND SHELTER. Won't the HUGE ROOF fall_ Part 4_ixRSw0pVVGo_YT.mp4</name>
															<enabled>TRUE</enabled>
															<duration>45134</duration>
															<rate>
																<timebase>30</timebase>
																<ntsc>TRUE</ntsc>
															</rate>
															<start>1637</start>
															<end>1662</end>
															<in>10621</in>
															<out>10646</out>
															<pproTicksIn>90020061331200</pproTicksIn>
															<pproTicksOut>90231953011200</pproTicksOut>
															<alphatype>none</alphatype>
															<file id="file-39"/>
															<logginginfo>
																<description></description>
																<scene></scene>
																<shottake></shottake>
																<lognote>https://www.youtube.com/watch?v=ixRSw0pVVGo</lognote>
																<good></good>
																<originalvideofilename></originalvideofilename>
																<originalaudiofilename></originalaudiofilename>
															</logginginfo>
															<colorinfo>
																<lut></lut>
																<lut1></lut1>
																<asc_sop></asc_sop>
																<asc_sat></asc_sat>
																<lut2></lut2>
															</colorinfo>
															<labels>
																<label2>Iris</label2>
															</labels>
														</clipitem>
														<clipitem id="clipitem-209">
															<masterclipid>masterclip-39</masterclipid>
															<name>(Alex Wild)_Building the biggest SECRET HOUSE UNDERGROUND SHELTER. Won't the HUGE ROOF fall_ Part 4_ixRSw0pVVGo_YT.mp4</name>
															<enabled>TRUE</enabled>
															<duration>45134</duration>
															<rate>
																<timebase>30</timebase>
																<ntsc>TRUE</ntsc>
															</rate>
															<start>1662</start>
															<end>1688</end>
															<in>16506</in>
															<out>16532</out>
															<pproTicksIn>139899362803200</pproTicksIn>
															<pproTicksOut>140119730150400</pproTicksOut>
															<alphatype>none</alphatype>
															<file id="file-39"/>
															<logginginfo>
																<description></description>
																<scene></scene>
																<shottake></shottake>
																<lognote>https://www.youtube.com/watch?v=ixRSw0pVVGo</lognote>
																<good></good>
																<originalvideofilename></originalvideofilename>
																<originalaudiofilename></originalaudiofilename>
															</logginginfo>
															<colorinfo>
																<lut></lut>
																<lut1></lut1>
																<asc_sop></asc_sop>
																<asc_sat></asc_sat>
																<lut2></lut2>
															</colorinfo>
															<labels>
																<label2>Iris</label2>
															</labels>
														</clipitem>
														<clipitem id="clipitem-210">
															<masterclipid>masterclip-39</masterclipid>
															<name>(Alex Wild)_Building the biggest SECRET HOUSE UNDERGROUND SHELTER. Won't the HUGE ROOF fall_ Part 4_ixRSw0pVVGo_YT.mp4</name>
															<enabled>TRUE</enabled>
															<duration>45134</duration>
															<rate>
																<timebase>30</timebase>
																<ntsc>TRUE</ntsc>
															</rate>
															<start>1688</start>
															<end>1722</end>
															<in>37301</in>
															<out>37335</out>
															<pproTicksIn>316150862227200</pproTicksIn>
															<pproTicksOut>316439034912000</pproTicksOut>
															<alphatype>none</alphatype>
															<file id="file-39"/>
															<logginginfo>
																<description></description>
																<scene></scene>
																<shottake></shottake>
																<lognote>https://www.youtube.com/watch?v=ixRSw0pVVGo</lognote>
																<good></good>
																<originalvideofilename></originalvideofilename>
																<originalaudiofilename></originalaudiofilename>
															</logginginfo>
															<colorinfo>
																<lut></lut>
																<lut1></lut1>
																<asc_sop></asc_sop>
																<asc_sat></asc_sat>
																<lut2></lut2>
															</colorinfo>
															<labels>
																<label2>Iris</label2>
															</labels>
														</clipitem>
														<clipitem id="clipitem-211">
															<masterclipid>masterclip-39</masterclipid>
															<name>(Alex Wild)_Building the biggest SECRET HOUSE UNDERGROUND SHELTER. Won't the HUGE ROOF fall_ Part 4_ixRSw0pVVGo_YT.mp4</name>
															<enabled>TRUE</enabled>
															<duration>45134</duration>
															<rate>
																<timebase>30</timebase>
																<ntsc>TRUE</ntsc>
															</rate>
															<start>1722</start>
															<end>1751</end>
															<in>35226</in>
															<out>35255</out>
															<pproTicksIn>298563852787200</pproTicksIn>
															<pproTicksOut>298809647136000</pproTicksOut>
															<alphatype>none</alphatype>
															<file id="file-39"/>
															<logginginfo>
																<description></description>
																<scene></scene>
																<shottake></shottake>
																<lognote>https://www.youtube.com/watch?v=ixRSw0pVVGo</lognote>
																<good></good>
																<originalvideofilename></originalvideofilename>
																<originalaudiofilename></originalaudiofilename>
															</logginginfo>
															<colorinfo>
																<lut></lut>
																<lut1></lut1>
																<asc_sop></asc_sop>
																<asc_sat></asc_sat>
																<lut2></lut2>
															</colorinfo>
															<labels>
																<label2>Iris</label2>
															</labels>
														</clipitem>
														<clipitem id="clipitem-212">
															<masterclipid>masterclip-39</masterclipid>
															<name>(Alex Wild)_Building the biggest SECRET HOUSE UNDERGROUND SHELTER. Won't the HUGE ROOF fall_ Part 4_ixRSw0pVVGo_YT.mp4</name>
															<enabled>TRUE</enabled>
															<duration>45134</duration>
															<rate>
																<timebase>30</timebase>
																<ntsc>TRUE</ntsc>
															</rate>
															<start>1751</start>
															<end>1795</end>
															<in>19654</in>
															<out>19698</out>
															<pproTicksIn>166580763148800</pproTicksIn>
															<pproTicksOut>166953692505600</pproTicksOut>
															<alphatype>none</alphatype>
															<file id="file-39"/>
															<logginginfo>
																<description></description>
																<scene></scene>
																<shottake></shottake>
																<lognote>https://www.youtube.com/watch?v=ixRSw0pVVGo</lognote>
																<good></good>
																<originalvideofilename></originalvideofilename>
																<originalaudiofilename></originalaudiofilename>
															</logginginfo>
															<colorinfo>
																<lut></lut>
																<lut1></lut1>
																<asc_sop></asc_sop>
																<asc_sat></asc_sat>
																<lut2></lut2>
															</colorinfo>
															<labels>
																<label2>Iris</label2>
															</labels>
														</clipitem>
														<clipitem id="clipitem-213">
															<masterclipid>masterclip-39</masterclipid>
															<name>(Alex Wild)_Building the biggest SECRET HOUSE UNDERGROUND SHELTER. Won't the HUGE ROOF fall_ Part 4_ixRSw0pVVGo_YT.mp4</name>
															<enabled>TRUE</enabled>
															<duration>45134</duration>
															<rate>
																<timebase>30</timebase>
																<ntsc>TRUE</ntsc>
															</rate>
															<start>1795</start>
															<end>1840</end>
															<in>20526</in>
															<out>20571</out>
															<pproTicksIn>173971544947200</pproTicksIn>
															<pproTicksOut>174352949971200</pproTicksOut>
															<alphatype>none</alphatype>
															<file id="file-39"/>
															<logginginfo>
																<description></description>
																<scene></scene>
																<shottake></shottake>
																<lognote>https://www.youtube.com/watch?v=ixRSw0pVVGo</lognote>
																<good></good>
																<originalvideofilename></originalvideofilename>
																<originalaudiofilename></originalaudiofilename>
															</logginginfo>
															<colorinfo>
																<lut></lut>
																<lut1></lut1>
																<asc_sop></asc_sop>
																<asc_sat></asc_sat>
																<lut2></lut2>
															</colorinfo>
															<labels>
																<label2>Iris</label2>
															</labels>
														</clipitem>
														<clipitem id="clipitem-214">
															<masterclipid>masterclip-39</masterclipid>
															<name>(Alex Wild)_Building the biggest SECRET HOUSE UNDERGROUND SHELTER. Won't the HUGE ROOF fall_ Part 4_ixRSw0pVVGo_YT.mp4</name>
															<enabled>TRUE</enabled>
															<duration>45134</duration>
															<rate>
																<timebase>30</timebase>
																<ntsc>TRUE</ntsc>
															</rate>
															<start>1840</start>
															<end>1882</end>
															<in>39281</in>
															<out>39323</out>
															<pproTicksIn>332932683283200</pproTicksIn>
															<pproTicksOut>333288661305600</pproTicksOut>
															<alphatype>none</alphatype>
															<file id="file-39"/>
															<logginginfo>
																<description></description>
																<scene></scene>
																<shottake></shottake>
																<lognote>https://www.youtube.com/watch?v=ixRSw0pVVGo</lognote>
																<good></good>
																<originalvideofilename></originalvideofilename>
																<originalaudiofilename></originalaudiofilename>
															</logginginfo>
															<colorinfo>
																<lut></lut>
																<lut1></lut1>
																<asc_sop></asc_sop>
																<asc_sat></asc_sat>
																<lut2></lut2>
															</colorinfo>
															<labels>
																<label2>Iris</label2>
															</labels>
														</clipitem>
														<clipitem id="clipitem-215">
															<masterclipid>masterclip-39</masterclipid>
															<name>(Alex Wild)_Building the biggest SECRET HOUSE UNDERGROUND SHELTER. Won't the HUGE ROOF fall_ Part 4_ixRSw0pVVGo_YT.mp4</name>
															<enabled>TRUE</enabled>
															<duration>45134</duration>
															<rate>
																<timebase>30</timebase>
																<ntsc>TRUE</ntsc>
															</rate>
															<start>1882</start>
															<end>1949</end>
															<in>41197</in>
															<out>41264</out>
															<pproTicksIn>349172061638400</pproTicksIn>
															<pproTicksOut>349739931340800</pproTicksOut>
															<alphatype>none</alphatype>
															<file id="file-39"/>
															<logginginfo>
																<description></description>
																<scene></scene>
																<shottake></shottake>
																<lognote>https://www.youtube.com/watch?v=ixRSw0pVVGo</lognote>
																<good></good>
																<originalvideofilename></originalvideofilename>
																<originalaudiofilename></originalaudiofilename>
															</logginginfo>
															<colorinfo>
																<lut></lut>
																<lut1></lut1>
																<asc_sop></asc_sop>
																<asc_sat></asc_sat>
																<lut2></lut2>
															</colorinfo>
															<labels>
																<label2>Iris</label2>
															</labels>
														</clipitem>
														<clipitem id="clipitem-216">
															<masterclipid>masterclip-39</masterclipid>
															<name>(Alex Wild)_Building the biggest SECRET HOUSE UNDERGROUND SHELTER. Won't the HUGE ROOF fall_ Part 4_ixRSw0pVVGo_YT.mp4</name>
															<enabled>TRUE</enabled>
															<duration>45134</duration>
															<rate>
																<timebase>30</timebase>
																<ntsc>TRUE</ntsc>
															</rate>
															<start>1949</start>
															<end>2002</end>
															<in>42705</in>
															<out>42758</out>
															<pproTicksIn>361953367776000</pproTicksIn>
															<pproTicksOut>362402578137600</pproTicksOut>
															<alphatype>none</alphatype>
															<file id="file-39"/>
															<logginginfo>
																<description></description>
																<scene></scene>
																<shottake></shottake>
																<lognote>https://www.youtube.com/watch?v=ixRSw0pVVGo</lognote>
																<good></good>
																<originalvideofilename></originalvideofilename>
																<originalaudiofilename></originalaudiofilename>
															</logginginfo>
															<colorinfo>
																<lut></lut>
																<lut1></lut1>
																<asc_sop></asc_sop>
																<asc_sat></asc_sat>
																<lut2></lut2>
															</colorinfo>
															<labels>
																<label2>Iris</label2>
															</labels>
														</clipitem>
														<clipitem id="clipitem-217">
															<masterclipid>masterclip-39</masterclipid>
															<name>(Alex Wild)_Building the biggest SECRET HOUSE UNDERGROUND SHELTER. Won't the HUGE ROOF fall_ Part 4_ixRSw0pVVGo_YT.mp4</name>
															<enabled>TRUE</enabled>
															<duration>45134</duration>
															<rate>
																<timebase>30</timebase>
																<ntsc>TRUE</ntsc>
															</rate>
															<start>2002</start>
															<end>2065</end>
															<in>43167</in>
															<out>43230</out>
															<pproTicksIn>365869126022400</pproTicksIn>
															<pproTicksOut>366403093056000</pproTicksOut>
															<alphatype>none</alphatype>
															<file id="file-39"/>
															<logginginfo>
																<description></description>
																<scene></scene>
																<shottake></shottake>
																<lognote>https://www.youtube.com/watch?v=ixRSw0pVVGo</lognote>
																<good></good>
																<originalvideofilename></originalvideofilename>
																<originalaudiofilename></originalaudiofilename>
															</logginginfo>
															<colorinfo>
																<lut></lut>
																<lut1></lut1>
																<asc_sop></asc_sop>
																<asc_sat></asc_sat>
																<lut2></lut2>
															</colorinfo>
															<labels>
																<label2>Iris</label2>
															</labels>
														</clipitem>
														<clipitem id="clipitem-218">
															<masterclipid>masterclip-39</masterclipid>
															<name>(Alex Wild)_Building the biggest SECRET HOUSE UNDERGROUND SHELTER. Won't the HUGE ROOF fall_ Part 4_ixRSw0pVVGo_YT.mp4</name>
															<enabled>TRUE</enabled>
															<duration>45134</duration>
															<rate>
																<timebase>30</timebase>
																<ntsc>TRUE</ntsc>
															</rate>
															<start>2065</start>
															<end>2085</end>
															<in>42945</in>
															<out>42965</out>
															<pproTicksIn>363987527904000</pproTicksIn>
															<pproTicksOut>364157041248000</pproTicksOut>
															<alphatype>none</alphatype>
															<file id="file-39"/>
															<logginginfo>
																<description></description>
																<scene></scene>
																<shottake></shottake>
																<lognote>https://www.youtube.com/watch?v=ixRSw0pVVGo</lognote>
																<good></good>
																<originalvideofilename></originalvideofilename>
																<originalaudiofilename></originalaudiofilename>
															</logginginfo>
															<colorinfo>
																<lut></lut>
																<lut1></lut1>
																<asc_sop></asc_sop>
																<asc_sat></asc_sat>
																<lut2></lut2>
															</colorinfo>
															<labels>
																<label2>Iris</label2>
															</labels>
														</clipitem>
														<clipitem id="clipitem-219">
															<masterclipid>masterclip-39</masterclipid>
															<name>(Alex Wild)_Building the biggest SECRET HOUSE UNDERGROUND SHELTER. Won't the HUGE ROOF fall_ Part 4_ixRSw0pVVGo_YT.mp4</name>
															<enabled>TRUE</enabled>
															<duration>45134</duration>
															<rate>
																<timebase>30</timebase>
																<ntsc>TRUE</ntsc>
															</rate>
															<start>2085</start>
															<end>2116</end>
															<in>32413</in>
															<out>32444</out>
															<pproTicksIn>274721800953600</pproTicksIn>
															<pproTicksOut>274984546636800</pproTicksOut>
															<alphatype>none</alphatype>
															<file id="file-39"/>
															<logginginfo>
																<description></description>
																<scene></scene>
																<shottake></shottake>
																<lognote>https://www.youtube.com/watch?v=ixRSw0pVVGo</lognote>
																<good></good>
																<originalvideofilename></originalvideofilename>
																<originalaudiofilename></originalaudiofilename>
															</logginginfo>
															<colorinfo>
																<lut></lut>
																<lut1></lut1>
																<asc_sop></asc_sop>
																<asc_sat></asc_sat>
																<lut2></lut2>
															</colorinfo>
															<labels>
																<label2>Iris</label2>
															</labels>
														</clipitem>
														<clipitem id="clipitem-220">
															<masterclipid>masterclip-39</masterclipid>
															<name>(Alex Wild)_Building the biggest SECRET HOUSE UNDERGROUND SHELTER. Won't the HUGE ROOF fall_ Part 4_ixRSw0pVVGo_YT.mp4</name>
															<enabled>TRUE</enabled>
															<duration>45134</duration>
															<rate>
																<timebase>30</timebase>
																<ntsc>TRUE</ntsc>
															</rate>
															<start>2116</start>
															<end>2161</end>
															<in>33772</in>
															<out>33817</out>
															<pproTicksIn>286240232678400</pproTicksIn>
															<pproTicksOut>286621637702400</pproTicksOut>
															<alphatype>none</alphatype>
															<file id="file-39"/>
															<logginginfo>
																<description></description>
																<scene></scene>
																<shottake></shottake>
																<lognote>https://www.youtube.com/watch?v=ixRSw0pVVGo</lognote>
																<good></good>
																<originalvideofilename></originalvideofilename>
																<originalaudiofilename></originalaudiofilename>
															</logginginfo>
															<colorinfo>
																<lut></lut>
																<lut1></lut1>
																<asc_sop></asc_sop>
																<asc_sat></asc_sat>
																<lut2></lut2>
															</colorinfo>
															<labels>
																<label2>Iris</label2>
															</labels>
														</clipitem>
														<clipitem id="clipitem-221">
															<masterclipid>masterclip-39</masterclipid>
															<name>(Alex Wild)_Building the biggest SECRET HOUSE UNDERGROUND SHELTER. Won't the HUGE ROOF fall_ Part 4_ixRSw0pVVGo_YT.mp4</name>
															<enabled>TRUE</enabled>
															<duration>45134</duration>
															<rate>
																<timebase>30</timebase>
																<ntsc>TRUE</ntsc>
															</rate>
															<start>2161</start>
															<end>2229</end>
															<in>30737</in>
															<out>30805</out>
															<pproTicksIn>260516582726400</pproTicksIn>
															<pproTicksOut>261092928096000</pproTicksOut>
															<alphatype>none</alphatype>
															<file id="file-39"/>
															<logginginfo>
																<description></description>
																<scene></scene>
																<shottake></shottake>
																<lognote>https://www.youtube.com/watch?v=ixRSw0pVVGo</lognote>
																<good></good>
																<originalvideofilename></originalvideofilename>
																<originalaudiofilename></originalaudiofilename>
															</logginginfo>
															<colorinfo>
																<lut></lut>
																<lut1></lut1>
																<asc_sop></asc_sop>
																<asc_sat></asc_sat>
																<lut2></lut2>
															</colorinfo>
															<labels>
																<label2>Iris</label2>
															</labels>
														</clipitem>
														<enabled>TRUE</enabled>
														<locked>FALSE</locked>
													</track>
													<track>
														<clipitem id="clipitem-222">
															<masterclipid>masterclip-52</masterclipid>
															<name>1080/AE Attribution.aep Copy 34</name>
															<enabled>TRUE</enabled>
															<duration>5844</duration>
															<rate>
																<timebase>30</timebase>
																<ntsc>TRUE</ntsc>
															</rate>
															<start>0</start>
															<end>148</end>
															<in>724</in>
															<out>872</out>
															<pproTicksIn>6136383052800</pproTicksIn>
															<pproTicksOut>7390781798400</pproTicksOut>
															<alphatype>straight</alphatype>
															<file id="file-52"/>
															<logginginfo>
																<description></description>
																<scene></scene>
																<shottake></shottake>
																<lognote></lognote>
																<good></good>
																<originalvideofilename></originalvideofilename>
																<originalaudiofilename></originalaudiofilename>
															</logginginfo>
															<colorinfo>
																<lut></lut>
																<lut1></lut1>
																<asc_sop></asc_sop>
																<asc_sat></asc_sat>
																<lut2></lut2>
															</colorinfo>
															<labels>
																<label2>Rose</label2>
															</labels>
														</clipitem>
														<clipitem id="clipitem-223">
															<masterclipid>masterclip-48</masterclipid>
															<name>1080/AE Attribution.aep Copy 32</name>
															<enabled>TRUE</enabled>
															<duration>5844</duration>
															<rate>
																<timebase>30</timebase>
																<ntsc>TRUE</ntsc>
															</rate>
															<start>148</start>
															<end>1343</end>
															<in>724</in>
															<out>1919</out>
															<pproTicksIn>6136383052800</pproTicksIn>
															<pproTicksOut>16264805356800</pproTicksOut>
															<alphatype>straight</alphatype>
															<file id="file-48"/>
															<logginginfo>
																<description></description>
																<scene></scene>
																<shottake></shottake>
																<lognote></lognote>
																<good></good>
																<originalvideofilename></originalvideofilename>
																<originalaudiofilename></originalaudiofilename>
															</logginginfo>
															<colorinfo>
																<lut></lut>
																<lut1></lut1>
																<asc_sop></asc_sop>
																<asc_sat></asc_sat>
																<lut2></lut2>
															</colorinfo>
															<labels>
																<label2>Rose</label2>
															</labels>
														</clipitem>
														<clipitem id="clipitem-224">
															<masterclipid>masterclip-51</masterclipid>
															<name>1080/AE Attribution.aep Copy 33</name>
															<enabled>TRUE</enabled>
															<duration>5844</duration>
															<rate>
																<timebase>30</timebase>
																<ntsc>TRUE</ntsc>
															</rate>
															<start>1343</start>
															<end>2229</end>
															<in>724</in>
															<out>1610</out>
															<pproTicksIn>6136383052800</pproTicksIn>
															<pproTicksOut>13645824192000</pproTicksOut>
															<alphatype>straight</alphatype>
															<file id="file-51"/>
															<logginginfo>
																<description></description>
																<scene></scene>
																<shottake></shottake>
																<lognote></lognote>
																<good></good>
																<originalvideofilename></originalvideofilename>
																<originalaudiofilename></originalaudiofilename>
															</logginginfo>
															<colorinfo>
																<lut></lut>
																<lut1></lut1>
																<asc_sop></asc_sop>
																<asc_sat></asc_sat>
																<lut2></lut2>
															</colorinfo>
															<labels>
																<label2>Rose</label2>
															</labels>
														</clipitem>
														<enabled>TRUE</enabled>
														<locked>FALSE</locked>
													</track>
												</video>
												<audio>
													<numOutputChannels>2</numOutputChannels>
													<format>
														<samplecharacteristics>
															<depth>16</depth>
															<samplerate>44100</samplerate>
														</samplecharacteristics>
													</format>
													<outputs>
														<group>
															<index>1</index>
															<numchannels>1</numchannels>
															<downmix>0</downmix>
															<channel>
																<index>1</index>
															</channel>
														</group>
														<group>
															<index>2</index>
															<numchannels>1</numchannels>
															<downmix>0</downmix>
															<channel>
																<index>2</index>
															</channel>
														</group>
													</outputs>
													<track TL.SQTrackExpandedHeight="25" TL.SQTrackExpanded="0" MZ.TrackTargeted="1" PannerCurrentValue="0.5" PannerIsInverted="true" PannerStartKeyframe="-91445760000000000,0.5,0,0,0,0,0,0" PannerName="Balance" currentExplodedTrackIndex="0" totalExplodedTrackCount="2" premiereTrackType="Stereo">
														<transitionitem>
															<start>0</start>
															<end>70</end>
															<pproTicksIn>0</pproTicksIn>
															<pproTicksOut>593296704000</pproTicksOut>
															<alignment>start-black</alignment>
															<cutPointTicks>0</cutPointTicks>
															<rate>
																<timebase>30</timebase>
																<ntsc>TRUE</ntsc>
															</rate>
															<effect>
																<name>Cross Fade (+3dB)</name>
																<effectid>KGAudioTransCrossFade3dB</effectid>
																<effecttype>transition</effecttype>
																<mediatype>audio</mediatype>
																<wipecode>0</wipecode>
																<wipeaccuracy>100</wipeaccuracy>
																<startratio>0</startratio>
																<endratio>1</endratio>
																<reverse>FALSE</reverse>
															</effect>
														</transitionitem>
														<clipitem id="clipitem-225" premiereChannelType="stereo">
															<masterclipid>masterclip-45</masterclipid>
															<name>Evert Z - Loud and Proud.mp3</name>
															<enabled>TRUE</enabled>
															<duration>4452</duration>
															<rate>
																<timebase>30</timebase>
																<ntsc>TRUE</ntsc>
															</rate>
															<start>-1</start>
															<end>-1</end>
															<in>42</in>
															<out>2271</out>
															<pproTicksIn>355978022400</pproTicksIn>
															<pproTicksOut>19248240211200</pproTicksOut>
															<file id="file-45"/>
															<sourcetrack>
																<mediatype>audio</mediatype>
																<trackindex>1</trackindex>
															</sourcetrack>
															<filter>
																<effect>
																	<name>Gain</name>
																	<effectid>{61756678, 4761696e, 4b657947}</effectid>
																	<effecttype>filter</effecttype>
																	<mediatype>audio</mediatype>
																	<parameter authoringApp="PremierePro">
																		<parameterid>Gain(dB)</parameterid>
																		<name>Gain(dB)</name>
																		<valuemin>-96</valuemin>
																		<valuemax>96</valuemax>
																		<value>-6</value>
																	</parameter>
																</effect>
															</filter>
																<marker>
																	<comment></comment>
																	<name></name>
																	<in>1336</in>
																	<out>-1</out>
																</marker>
																<marker>
																	<comment></comment>
																	<name></name>
																	<in>1322</in>
																	<out>-1</out>
																</marker>
																<marker>
																	<comment></comment>
																	<name></name>
																	<in>1331</in>
																	<out>-1</out>
																</marker>
																<marker>
																	<comment></comment>
																	<name></name>
																	<in>1005</in>
																	<out>-1</out>
																</marker>
															<link>
																<linkclipref>clipitem-225</linkclipref>
																<mediatype>audio</mediatype>
																<trackindex>1</trackindex>
																<clipindex>2</clipindex>
																<groupindex>1</groupindex>
															</link>
															<link>
																<linkclipref>clipitem-226</linkclipref>
																<mediatype>audio</mediatype>
																<trackindex>2</trackindex>
																<clipindex>2</clipindex>
																<groupindex>1</groupindex>
															</link>
															<logginginfo>
																<description></description>
																<scene></scene>
																<shottake></shottake>
																<lognote></lognote>
																<good></good>
																<originalvideofilename></originalvideofilename>
																<originalaudiofilename></originalaudiofilename>
															</logginginfo>
															<colorinfo>
																<lut></lut>
																<lut1></lut1>
																<asc_sop></asc_sop>
																<asc_sat></asc_sat>
																<lut2></lut2>
															</colorinfo>
															<labels>
																<label2>Caribbean</label2>
															</labels>
														</clipitem>
														<transitionitem>
															<start>2141</start>
															<end>2229</end>
															<pproTicksIn>18146403475200</pproTicksIn>
															<pproTicksOut>18892262188800</pproTicksOut>
															<alignment>end-black</alignment>
															<cutPointTicks>745858713600</cutPointTicks>
															<rate>
																<timebase>30</timebase>
																<ntsc>TRUE</ntsc>
															</rate>
															<effect>
																<name>Cross Fade (+3dB)</name>
																<effectid>KGAudioTransCrossFade3dB</effectid>
																<effecttype>transition</effecttype>
																<mediatype>audio</mediatype>
																<wipecode>0</wipecode>
																<wipeaccuracy>100</wipeaccuracy>
																<startratio>0</startratio>
																<endratio>1</endratio>
																<reverse>FALSE</reverse>
															</effect>
														</transitionitem>
														<enabled>TRUE</enabled>
														<locked>FALSE</locked>
														<outputchannelindex>1</outputchannelindex>
													</track>
													<track TL.SQTrackExpandedHeight="25" TL.SQTrackExpanded="0" MZ.TrackTargeted="1" PannerCurrentValue="0.5" PannerIsInverted="true" PannerStartKeyframe="-91445760000000000,0.5,0,0,0,0,0,0" PannerName="Balance" currentExplodedTrackIndex="1" totalExplodedTrackCount="2" premiereTrackType="Stereo">
														<transitionitem>
															<start>0</start>
															<end>70</end>
															<pproTicksIn>0</pproTicksIn>
															<pproTicksOut>593296704000</pproTicksOut>
															<alignment>start-black</alignment>
															<cutPointTicks>0</cutPointTicks>
															<rate>
																<timebase>30</timebase>
																<ntsc>TRUE</ntsc>
															</rate>
															<effect>
																<name>Cross Fade (+3dB)</name>
																<effectid>KGAudioTransCrossFade3dB</effectid>
																<effecttype>transition</effecttype>
																<mediatype>audio</mediatype>
																<wipecode>0</wipecode>
																<wipeaccuracy>100</wipeaccuracy>
																<startratio>0</startratio>
																<endratio>1</endratio>
																<reverse>FALSE</reverse>
															</effect>
														</transitionitem>
														<clipitem id="clipitem-226" premiereChannelType="stereo">
															<masterclipid>masterclip-45</masterclipid>
															<name>Evert Z - Loud and Proud.mp3</name>
															<enabled>TRUE</enabled>
															<duration>4452</duration>
															<rate>
																<timebase>30</timebase>
																<ntsc>TRUE</ntsc>
															</rate>
															<start>-1</start>
															<end>-1</end>
															<in>42</in>
															<out>2271</out>
															<pproTicksIn>355978022400</pproTicksIn>
															<pproTicksOut>19248240211200</pproTicksOut>
															<file id="file-45"/>
															<sourcetrack>
																<mediatype>audio</mediatype>
																<trackindex>2</trackindex>
															</sourcetrack>
															<filter>
																<effect>
																	<name>Gain</name>
																	<effectid>{61756678, 4761696e, 4b657947}</effectid>
																	<effecttype>filter</effecttype>
																	<mediatype>audio</mediatype>
																	<parameter authoringApp="PremierePro">
																		<parameterid>Gain(dB)</parameterid>
																		<name>Gain(dB)</name>
																		<valuemin>-96</valuemin>
																		<valuemax>96</valuemax>
																		<value>-6</value>
																	</parameter>
																</effect>
															</filter>
																<marker>
																	<comment></comment>
																	<name></name>
																	<in>1336</in>
																	<out>-1</out>
																</marker>
																<marker>
																	<comment></comment>
																	<name></name>
																	<in>1322</in>
																	<out>-1</out>
																</marker>
																<marker>
																	<comment></comment>
																	<name></name>
																	<in>1331</in>
																	<out>-1</out>
																</marker>
																<marker>
																	<comment></comment>
																	<name></name>
																	<in>1005</in>
																	<out>-1</out>
																</marker>
															<link>
																<linkclipref>clipitem-225</linkclipref>
																<mediatype>audio</mediatype>
																<trackindex>1</trackindex>
																<clipindex>2</clipindex>
																<groupindex>1</groupindex>
															</link>
															<link>
																<linkclipref>clipitem-226</linkclipref>
																<mediatype>audio</mediatype>
																<trackindex>2</trackindex>
																<clipindex>2</clipindex>
																<groupindex>1</groupindex>
															</link>
															<logginginfo>
																<description></description>
																<scene></scene>
																<shottake></shottake>
																<lognote></lognote>
																<good></good>
																<originalvideofilename></originalvideofilename>
																<originalaudiofilename></originalaudiofilename>
															</logginginfo>
															<colorinfo>
																<lut></lut>
																<lut1></lut1>
																<asc_sop></asc_sop>
																<asc_sat></asc_sat>
																<lut2></lut2>
															</colorinfo>
															<labels>
																<label2>Caribbean</label2>
															</labels>
														</clipitem>
														<transitionitem>
															<start>2141</start>
															<end>2229</end>
															<pproTicksIn>18146403475200</pproTicksIn>
															<pproTicksOut>18892262188800</pproTicksOut>
															<alignment>end-black</alignment>
															<cutPointTicks>745858713600</cutPointTicks>
															<rate>
																<timebase>30</timebase>
																<ntsc>TRUE</ntsc>
															</rate>
															<effect>
																<name>Cross Fade (+3dB)</name>
																<effectid>KGAudioTransCrossFade3dB</effectid>
																<effecttype>transition</effecttype>
																<mediatype>audio</mediatype>
																<wipecode>0</wipecode>
																<wipeaccuracy>100</wipeaccuracy>
																<startratio>0</startratio>
																<endratio>1</endratio>
																<reverse>FALSE</reverse>
															</effect>
														</transitionitem>
														<enabled>TRUE</enabled>
														<locked>FALSE</locked>
														<outputchannelindex>2</outputchannelindex>
													</track>
												</audio>
											</media>
											<timecode>
												<rate>
													<timebase>30</timebase>
													<ntsc>TRUE</ntsc>
												</rate>
												<string>00:00:00:00</string>
												<frame>0</frame>
												<displayformat>NDF</displayformat>
											</timecode>
											<logginginfo>
												<description></description>
												<scene></scene>
												<shottake></shottake>
												<lognote></lognote>
												<good></good>
												<originalvideofilename></originalvideofilename>
												<originalaudiofilename></originalaudiofilename>
											</logginginfo>
										</sequence>
										<link>
											<linkclipref>clipitem-170</linkclipref>
											<mediatype>video</mediatype>
											<trackindex>1</trackindex>
											<clipindex>2</clipindex>
										</link>
										<link>
											<linkclipref>clipitem-263</linkclipref>
											<mediatype>audio</mediatype>
											<trackindex>1</trackindex>
											<clipindex>2</clipindex>
											<groupindex>1</groupindex>
										</link>
										<link>
											<linkclipref>clipitem-266</linkclipref>
											<mediatype>audio</mediatype>
											<trackindex>2</trackindex>
											<clipindex>2</clipindex>
											<groupindex>1</groupindex>
										</link>
										<labels>
											<label2>Forest</label2>
										</labels>
									</clipitem>
									<clipitem id="clipitem-227">
										<masterclipid>masterclip-75</masterclipid>
										<name>miley cyrus was right, it's "the climb"_1</name>
										<enabled>TRUE</enabled>
										<duration>1193</duration>
										<rate>
											<timebase>30</timebase>
											<ntsc>TRUE</ntsc>
										</rate>
										<start>4267</start>
										<end>5460</end>
										<in>0</in>
										<out>1193</out>
										<pproTicksIn>0</pproTicksIn>
										<pproTicksOut>10111470969600</pproTicksOut>
										<sequence id="sequence-11" TL.SQVisibleBaseTime="0" TL.SQTimePerPixel="0.28585104318292026" MZ.Sequence.PreviewFrameSizeHeight="1080" MZ.Sequence.PreviewFrameSizeWidth="1920" MZ.Sequence.AudioTimeDisplayFormat="200" MZ.Sequence.PreviewRenderingPresetCodec="1297107278" MZ.Sequence.PreviewRenderingPresetPath="EncoderPresets/SequencePreview/795454d9-d3c2-429d-9474-923ab13b7018/I-Frame Only MPEG.epr" MZ.Sequence.PreviewUseMaxRenderQuality="false" MZ.Sequence.PreviewUseMaxBitDepth="false" MZ.Sequence.EditingModeGUID="795454d9-d3c2-429d-9474-923ab13b7018" MZ.Sequence.VideoTimeDisplayFormat="103" MZ.WorkOutPoint="10111470969600" MZ.WorkInPoint="0">
											<duration>1193</duration>
											<rate>
												<timebase>30</timebase>
												<ntsc>TRUE</ntsc>
											</rate>
											<name>XTR_miley cyrus was right, it's "the climb"_1</name>
											<media>
												<video>
													<format>
														<samplecharacteristics>
															<rate>
																<timebase>30</timebase>
																<ntsc>TRUE</ntsc>
															</rate>
															<codec>
																<name>Apple ProRes 422</name>
																<appspecificdata>
																	<appname>Final Cut Pro</appname>
																	<appmanufacturer>Apple Inc.</appmanufacturer>
																	<appversion>7.0</appversion>
																	<data>
																		<qtcodec>
																			<codecname>Apple ProRes 422</codecname>
																			<codectypename>Apple ProRes 422</codectypename>
																			<codectypecode>apcn</codectypecode>
																			<codecvendorcode>appl</codecvendorcode>
																			<spatialquality>1024</spatialquality>
																			<temporalquality>0</temporalquality>
																			<keyframerate>0</keyframerate>
																			<datarate>0</datarate>
																		</qtcodec>
																	</data>
																</appspecificdata>
															</codec>
															<width>1920</width>
															<height>1080</height>
															<anamorphic>FALSE</anamorphic>
															<pixelaspectratio>square</pixelaspectratio>
															<fielddominance>none</fielddominance>
															<colordepth>24</colordepth>
														</samplecharacteristics>
													</format>
													<track TL.SQTrackExpandedHeight="25" TL.SQTrackExpanded="0" MZ.TrackTargeted="1">
														<clipitem id="clipitem-228">
															<masterclipid>masterclip-2</masterclipid>
															<name>(Cody and Victoria)_“This view is INSANE!” Climbing the most scenic route in Tahoe. _ Eagle Lake Buttress, Emerald Bay_MPuakR1hEUM_YT.mp4</name>
															<enabled>TRUE</enabled>
															<duration>18626</duration>
															<rate>
																<timebase>30</timebase>
																<ntsc>TRUE</ntsc>
															</rate>
															<start>0</start>
															<end>44</end>
															<in>5056</in>
															<out>5100</out>
															<pproTicksIn>42852973363200</pproTicksIn>
															<pproTicksOut>43225902720000</pproTicksOut>
															<alphatype>none</alphatype>
															<file id="file-2"/>
															<logginginfo>
																<description></description>
																<scene></scene>
																<shottake></shottake>
																<lognote>https://www.youtube.com/watch?v=MPuakR1hEUM</lognote>
																<good></good>
																<originalvideofilename></originalvideofilename>
																<originalaudiofilename></originalaudiofilename>
															</logginginfo>
															<colorinfo>
																<lut></lut>
																<lut1></lut1>
																<asc_sop></asc_sop>
																<asc_sat></asc_sat>
																<lut2></lut2>
															</colorinfo>
															<labels>
																<label2>Iris</label2>
															</labels>
														</clipitem>
														<clipitem id="clipitem-229">
															<masterclipid>masterclip-2</masterclipid>
															<name>(Cody and Victoria)_“This view is INSANE!” Climbing the most scenic route in Tahoe. _ Eagle Lake Buttress, Emerald Bay_MPuakR1hEUM_YT.mp4</name>
															<enabled>TRUE</enabled>
															<duration>18626</duration>
															<rate>
																<timebase>30</timebase>
																<ntsc>TRUE</ntsc>
															</rate>
															<start>44</start>
															<end>78</end>
															<in>1625</in>
															<out>1659</out>
															<pproTicksIn>13772959200000</pproTicksIn>
															<pproTicksOut>14061131884800</pproTicksOut>
															<alphatype>none</alphatype>
															<file id="file-2"/>
															<logginginfo>
																<description></description>
																<scene></scene>
																<shottake></shottake>
																<lognote>https://www.youtube.com/watch?v=MPuakR1hEUM</lognote>
																<good></good>
																<originalvideofilename></originalvideofilename>
																<originalaudiofilename></originalaudiofilename>
															</logginginfo>
															<colorinfo>
																<lut></lut>
																<lut1></lut1>
																<asc_sop></asc_sop>
																<asc_sat></asc_sat>
																<lut2></lut2>
															</colorinfo>
															<labels>
																<label2>Iris</label2>
															</labels>
														</clipitem>
														<clipitem id="clipitem-230">
															<masterclipid>masterclip-2</masterclipid>
															<name>(Cody and Victoria)_“This view is INSANE!” Climbing the most scenic route in Tahoe. _ Eagle Lake Buttress, Emerald Bay_MPuakR1hEUM_YT.mp4</name>
															<enabled>TRUE</enabled>
															<duration>18626</duration>
															<rate>
																<timebase>30</timebase>
																<ntsc>TRUE</ntsc>
															</rate>
															<start>78</start>
															<end>123</end>
															<in>1935</in>
															<out>1980</out>
															<pproTicksIn>16400416032000</pproTicksIn>
															<pproTicksOut>16781821056000</pproTicksOut>
															<alphatype>none</alphatype>
															<file id="file-2"/>
															<logginginfo>
																<description></description>
																<scene></scene>
																<shottake></shottake>
																<lognote>https://www.youtube.com/watch?v=MPuakR1hEUM</lognote>
																<good></good>
																<originalvideofilename></originalvideofilename>
																<originalaudiofilename></originalaudiofilename>
															</logginginfo>
															<colorinfo>
																<lut></lut>
																<lut1></lut1>
																<asc_sop></asc_sop>
																<asc_sat></asc_sat>
																<lut2></lut2>
															</colorinfo>
															<labels>
																<label2>Iris</label2>
															</labels>
														</clipitem>
														<clipitem id="clipitem-231">
															<masterclipid>masterclip-2</masterclipid>
															<name>(Cody and Victoria)_“This view is INSANE!” Climbing the most scenic route in Tahoe. _ Eagle Lake Buttress, Emerald Bay_MPuakR1hEUM_YT.mp4</name>
															<enabled>TRUE</enabled>
															<duration>18626</duration>
															<rate>
																<timebase>30</timebase>
																<ntsc>TRUE</ntsc>
															</rate>
															<start>123</start>
															<end>175</end>
															<in>4339</in>
															<out>4391</out>
															<pproTicksIn>36775919980800</pproTicksIn>
															<pproTicksOut>37216654675200</pproTicksOut>
															<alphatype>none</alphatype>
															<file id="file-2"/>
															<logginginfo>
																<description></description>
																<scene></scene>
																<shottake></shottake>
																<lognote>https://www.youtube.com/watch?v=MPuakR1hEUM</lognote>
																<good></good>
																<originalvideofilename></originalvideofilename>
																<originalaudiofilename></originalaudiofilename>
															</logginginfo>
															<colorinfo>
																<lut></lut>
																<lut1></lut1>
																<asc_sop></asc_sop>
																<asc_sat></asc_sat>
																<lut2></lut2>
															</colorinfo>
															<labels>
																<label2>Iris</label2>
															</labels>
														</clipitem>
														<clipitem id="clipitem-232">
															<masterclipid>masterclip-2</masterclipid>
															<name>(Cody and Victoria)_“This view is INSANE!” Climbing the most scenic route in Tahoe. _ Eagle Lake Buttress, Emerald Bay_MPuakR1hEUM_YT.mp4</name>
															<enabled>TRUE</enabled>
															<duration>18626</duration>
															<rate>
																<timebase>30</timebase>
																<ntsc>TRUE</ntsc>
															</rate>
															<start>175</start>
															<end>238</end>
															<in>5655</in>
															<out>5718</out>
															<pproTicksIn>47929898016000</pproTicksIn>
															<pproTicksOut>48463865049600</pproTicksOut>
															<alphatype>none</alphatype>
															<file id="file-2"/>
															<logginginfo>
																<description></description>
																<scene></scene>
																<shottake></shottake>
																<lognote>https://www.youtube.com/watch?v=MPuakR1hEUM</lognote>
																<good></good>
																<originalvideofilename></originalvideofilename>
																<originalaudiofilename></originalaudiofilename>
															</logginginfo>
															<colorinfo>
																<lut></lut>
																<lut1></lut1>
																<asc_sop></asc_sop>
																<asc_sat></asc_sat>
																<lut2></lut2>
															</colorinfo>
															<labels>
																<label2>Iris</label2>
															</labels>
														</clipitem>
														<clipitem id="clipitem-233">
															<masterclipid>masterclip-2</masterclipid>
															<name>(Cody and Victoria)_“This view is INSANE!” Climbing the most scenic route in Tahoe. _ Eagle Lake Buttress, Emerald Bay_MPuakR1hEUM_YT.mp4</name>
															<enabled>TRUE</enabled>
															<duration>18626</duration>
															<rate>
																<timebase>30</timebase>
																<ntsc>TRUE</ntsc>
															</rate>
															<start>238</start>
															<end>306</end>
															<in>6104</in>
															<out>6172</out>
															<pproTicksIn>51735472588800</pproTicksIn>
															<pproTicksOut>52311817958400</pproTicksOut>
															<alphatype>none</alphatype>
															<file id="file-2"/>
															<logginginfo>
																<description></description>
																<scene></scene>
																<shottake></shottake>
																<lognote>https://www.youtube.com/watch?v=MPuakR1hEUM</lognote>
																<good></good>
																<originalvideofilename></originalvideofilename>
																<originalaudiofilename></originalaudiofilename>
															</logginginfo>
															<colorinfo>
																<lut></lut>
																<lut1></lut1>
																<asc_sop></asc_sop>
																<asc_sat></asc_sat>
																<lut2></lut2>
															</colorinfo>
															<labels>
																<label2>Iris</label2>
															</labels>
														</clipitem>
														<clipitem id="clipitem-234">
															<masterclipid>masterclip-2</masterclipid>
															<name>(Cody and Victoria)_“This view is INSANE!” Climbing the most scenic route in Tahoe. _ Eagle Lake Buttress, Emerald Bay_MPuakR1hEUM_YT.mp4</name>
															<enabled>TRUE</enabled>
															<duration>18626</duration>
															<rate>
																<timebase>30</timebase>
																<ntsc>TRUE</ntsc>
															</rate>
															<start>306</start>
															<end>362</end>
															<in>7250</in>
															<out>7306</out>
															<pproTicksIn>61448587200000</pproTicksIn>
															<pproTicksOut>61923224563200</pproTicksOut>
															<alphatype>none</alphatype>
															<file id="file-2"/>
															<logginginfo>
																<description></description>
																<scene></scene>
																<shottake></shottake>
																<lognote>https://www.youtube.com/watch?v=MPuakR1hEUM</lognote>
																<good></good>
																<originalvideofilename></originalvideofilename>
																<originalaudiofilename></originalaudiofilename>
															</logginginfo>
															<colorinfo>
																<lut></lut>
																<lut1></lut1>
																<asc_sop></asc_sop>
																<asc_sat></asc_sat>
																<lut2></lut2>
															</colorinfo>
															<labels>
																<label2>Iris</label2>
															</labels>
														</clipitem>
														<clipitem id="clipitem-235">
															<masterclipid>masterclip-2</masterclipid>
															<name>(Cody and Victoria)_“This view is INSANE!” Climbing the most scenic route in Tahoe. _ Eagle Lake Buttress, Emerald Bay_MPuakR1hEUM_YT.mp4</name>
															<enabled>TRUE</enabled>
															<duration>18626</duration>
															<rate>
																<timebase>30</timebase>
																<ntsc>TRUE</ntsc>
															</rate>
															<start>362</start>
															<end>406</end>
															<in>7816</in>
															<out>7860</out>
															<pproTicksIn>66245814835200</pproTicksIn>
															<pproTicksOut>66618744192000</pproTicksOut>
															<alphatype>none</alphatype>
															<file id="file-2"/>
															<logginginfo>
																<description></description>
																<scene></scene>
																<shottake></shottake>
																<lognote>https://www.youtube.com/watch?v=MPuakR1hEUM</lognote>
																<good></good>
																<originalvideofilename></originalvideofilename>
																<originalaudiofilename></originalaudiofilename>
															</logginginfo>
															<colorinfo>
																<lut></lut>
																<lut1></lut1>
																<asc_sop></asc_sop>
																<asc_sat></asc_sat>
																<lut2></lut2>
															</colorinfo>
															<labels>
																<label2>Iris</label2>
															</labels>
														</clipitem>
														<clipitem id="clipitem-236">
															<masterclipid>masterclip-2</masterclipid>
															<name>(Cody and Victoria)_“This view is INSANE!” Climbing the most scenic route in Tahoe. _ Eagle Lake Buttress, Emerald Bay_MPuakR1hEUM_YT.mp4</name>
															<enabled>TRUE</enabled>
															<duration>18626</duration>
															<rate>
																<timebase>30</timebase>
																<ntsc>TRUE</ntsc>
															</rate>
															<start>406</start>
															<end>466</end>
															<in>9135</in>
															<out>9195</out>
															<pproTicksIn>77425219872000</pproTicksIn>
															<pproTicksOut>77933759904000</pproTicksOut>
															<alphatype>none</alphatype>
															<file id="file-2"/>
															<logginginfo>
																<description></description>
																<scene></scene>
																<shottake></shottake>
																<lognote>https://www.youtube.com/watch?v=MPuakR1hEUM</lognote>
																<good></good>
																<originalvideofilename></originalvideofilename>
																<originalaudiofilename></originalaudiofilename>
															</logginginfo>
															<colorinfo>
																<lut></lut>
																<lut1></lut1>
																<asc_sop></asc_sop>
																<asc_sat></asc_sat>
																<lut2></lut2>
															</colorinfo>
															<labels>
																<label2>Iris</label2>
															</labels>
														</clipitem>
														<clipitem id="clipitem-237">
															<masterclipid>masterclip-2</masterclipid>
															<name>(Cody and Victoria)_“This view is INSANE!” Climbing the most scenic route in Tahoe. _ Eagle Lake Buttress, Emerald Bay_MPuakR1hEUM_YT.mp4</name>
															<enabled>TRUE</enabled>
															<duration>18626</duration>
															<rate>
																<timebase>30</timebase>
																<ntsc>TRUE</ntsc>
															</rate>
															<start>466</start>
															<end>491</end>
															<in>9876</in>
															<out>9901</out>
															<pproTicksIn>83705689267200</pproTicksIn>
															<pproTicksOut>83917580947200</pproTicksOut>
															<alphatype>none</alphatype>
															<file id="file-2"/>
															<logginginfo>
																<description></description>
																<scene></scene>
																<shottake></shottake>
																<lognote>https://www.youtube.com/watch?v=MPuakR1hEUM</lognote>
																<good></good>
																<originalvideofilename></originalvideofilename>
																<originalaudiofilename></originalaudiofilename>
															</logginginfo>
															<colorinfo>
																<lut></lut>
																<lut1></lut1>
																<asc_sop></asc_sop>
																<asc_sat></asc_sat>
																<lut2></lut2>
															</colorinfo>
															<labels>
																<label2>Iris</label2>
															</labels>
														</clipitem>
														<clipitem id="clipitem-238">
															<masterclipid>masterclip-2</masterclipid>
															<name>(Cody and Victoria)_“This view is INSANE!” Climbing the most scenic route in Tahoe. _ Eagle Lake Buttress, Emerald Bay_MPuakR1hEUM_YT.mp4</name>
															<enabled>TRUE</enabled>
															<duration>18626</duration>
															<rate>
																<timebase>30</timebase>
																<ntsc>TRUE</ntsc>
															</rate>
															<start>491</start>
															<end>541</end>
															<in>10009</in>
															<out>10059</out>
															<pproTicksIn>84832953004800</pproTicksIn>
															<pproTicksOut>85256736364800</pproTicksOut>
															<alphatype>none</alphatype>
															<file id="file-2"/>
															<logginginfo>
																<description></description>
																<scene></scene>
																<shottake></shottake>
																<lognote>https://www.youtube.com/watch?v=MPuakR1hEUM</lognote>
																<good></good>
																<originalvideofilename></originalvideofilename>
																<originalaudiofilename></originalaudiofilename>
															</logginginfo>
															<colorinfo>
																<lut></lut>
																<lut1></lut1>
																<asc_sop></asc_sop>
																<asc_sat></asc_sat>
																<lut2></lut2>
															</colorinfo>
															<labels>
																<label2>Iris</label2>
															</labels>
														</clipitem>
														<clipitem id="clipitem-239">
															<masterclipid>masterclip-2</masterclipid>
															<name>(Cody and Victoria)_“This view is INSANE!” Climbing the most scenic route in Tahoe. _ Eagle Lake Buttress, Emerald Bay_MPuakR1hEUM_YT.mp4</name>
															<enabled>TRUE</enabled>
															<duration>18626</duration>
															<rate>
																<timebase>30</timebase>
																<ntsc>TRUE</ntsc>
															</rate>
															<start>541</start>
															<end>573</end>
															<in>10340</in>
															<out>10372</out>
															<pproTicksIn>87638398848000</pproTicksIn>
															<pproTicksOut>87909620198400</pproTicksOut>
															<alphatype>none</alphatype>
															<file id="file-2"/>
															<logginginfo>
																<description></description>
																<scene></scene>
																<shottake></shottake>
																<lognote>https://www.youtube.com/watch?v=MPuakR1hEUM</lognote>
																<good></good>
																<originalvideofilename></originalvideofilename>
																<originalaudiofilename></originalaudiofilename>
															</logginginfo>
															<colorinfo>
																<lut></lut>
																<lut1></lut1>
																<asc_sop></asc_sop>
																<asc_sat></asc_sat>
																<lut2></lut2>
															</colorinfo>
															<labels>
																<label2>Iris</label2>
															</labels>
														</clipitem>
														<clipitem id="clipitem-240">
															<masterclipid>masterclip-2</masterclipid>
															<name>(Cody and Victoria)_“This view is INSANE!” Climbing the most scenic route in Tahoe. _ Eagle Lake Buttress, Emerald Bay_MPuakR1hEUM_YT.mp4</name>
															<enabled>TRUE</enabled>
															<duration>18626</duration>
															<rate>
																<timebase>30</timebase>
																<ntsc>TRUE</ntsc>
															</rate>
															<start>573</start>
															<end>668</end>
															<in>10921</in>
															<out>11016</out>
															<pproTicksIn>92562761491200</pproTicksIn>
															<pproTicksOut>93367949875200</pproTicksOut>
															<alphatype>none</alphatype>
															<file id="file-2"/>
															<logginginfo>
																<description></description>
																<scene></scene>
																<shottake></shottake>
																<lognote>https://www.youtube.com/watch?v=MPuakR1hEUM</lognote>
																<good></good>
																<originalvideofilename></originalvideofilename>
																<originalaudiofilename></originalaudiofilename>
															</logginginfo>
															<colorinfo>
																<lut></lut>
																<lut1></lut1>
																<asc_sop></asc_sop>
																<asc_sat></asc_sat>
																<lut2></lut2>
															</colorinfo>
															<labels>
																<label2>Iris</label2>
															</labels>
														</clipitem>
														<clipitem id="clipitem-241">
															<masterclipid>masterclip-2</masterclipid>
															<name>(Cody and Victoria)_“This view is INSANE!” Climbing the most scenic route in Tahoe. _ Eagle Lake Buttress, Emerald Bay_MPuakR1hEUM_YT.mp4</name>
															<enabled>TRUE</enabled>
															<duration>18626</duration>
															<rate>
																<timebase>30</timebase>
																<ntsc>TRUE</ntsc>
															</rate>
															<start>668</start>
															<end>731</end>
															<in>11187</in>
															<out>11250</out>
															<pproTicksIn>94817288966400</pproTicksIn>
															<pproTicksOut>95351256000000</pproTicksOut>
															<alphatype>none</alphatype>
															<file id="file-2"/>
															<logginginfo>
																<description></description>
																<scene></scene>
																<shottake></shottake>
																<lognote>https://www.youtube.com/watch?v=MPuakR1hEUM</lognote>
																<good></good>
																<originalvideofilename></originalvideofilename>
																<originalaudiofilename></originalaudiofilename>
															</logginginfo>
															<colorinfo>
																<lut></lut>
																<lut1></lut1>
																<asc_sop></asc_sop>
																<asc_sat></asc_sat>
																<lut2></lut2>
															</colorinfo>
															<labels>
																<label2>Iris</label2>
															</labels>
														</clipitem>
														<clipitem id="clipitem-242">
															<masterclipid>masterclip-2</masterclipid>
															<name>(Cody and Victoria)_“This view is INSANE!” Climbing the most scenic route in Tahoe. _ Eagle Lake Buttress, Emerald Bay_MPuakR1hEUM_YT.mp4</name>
															<enabled>TRUE</enabled>
															<duration>18626</duration>
															<rate>
																<timebase>30</timebase>
																<ntsc>TRUE</ntsc>
															</rate>
															<start>731</start>
															<end>812</end>
															<in>11446</in>
															<out>11527</out>
															<pproTicksIn>97012486771200</pproTicksIn>
															<pproTicksOut>97699015814400</pproTicksOut>
															<alphatype>none</alphatype>
															<file id="file-2"/>
															<logginginfo>
																<description></description>
																<scene></scene>
																<shottake></shottake>
																<lognote>https://www.youtube.com/watch?v=MPuakR1hEUM</lognote>
																<good></good>
																<originalvideofilename></originalvideofilename>
																<originalaudiofilename></originalaudiofilename>
															</logginginfo>
															<colorinfo>
																<lut></lut>
																<lut1></lut1>
																<asc_sop></asc_sop>
																<asc_sat></asc_sat>
																<lut2></lut2>
															</colorinfo>
															<labels>
																<label2>Iris</label2>
															</labels>
														</clipitem>
														<clipitem id="clipitem-243">
															<masterclipid>masterclip-2</masterclipid>
															<name>(Cody and Victoria)_“This view is INSANE!” Climbing the most scenic route in Tahoe. _ Eagle Lake Buttress, Emerald Bay_MPuakR1hEUM_YT.mp4</name>
															<enabled>TRUE</enabled>
															<duration>18626</duration>
															<rate>
																<timebase>30</timebase>
																<ntsc>TRUE</ntsc>
															</rate>
															<start>812</start>
															<end>926</end>
															<in>13730</in>
															<out>13844</out>
															<pproTicksIn>116370910656000</pproTicksIn>
															<pproTicksOut>117337136716800</pproTicksOut>
															<alphatype>none</alphatype>
															<file id="file-2"/>
															<logginginfo>
																<description></description>
																<scene></scene>
																<shottake></shottake>
																<lognote>https://www.youtube.com/watch?v=MPuakR1hEUM</lognote>
																<good></good>
																<originalvideofilename></originalvideofilename>
																<originalaudiofilename></originalaudiofilename>
															</logginginfo>
															<colorinfo>
																<lut></lut>
																<lut1></lut1>
																<asc_sop></asc_sop>
																<asc_sat></asc_sat>
																<lut2></lut2>
															</colorinfo>
															<labels>
																<label2>Iris</label2>
															</labels>
														</clipitem>
														<clipitem id="clipitem-244">
															<masterclipid>masterclip-2</masterclipid>
															<name>(Cody and Victoria)_“This view is INSANE!” Climbing the most scenic route in Tahoe. _ Eagle Lake Buttress, Emerald Bay_MPuakR1hEUM_YT.mp4</name>
															<enabled>TRUE</enabled>
															<duration>18626</duration>
															<rate>
																<timebase>30</timebase>
																<ntsc>TRUE</ntsc>
															</rate>
															<start>926</start>
															<end>973</end>
															<in>15893</in>
															<out>15940</out>
															<pproTicksIn>134703778809600</pproTicksIn>
															<pproTicksOut>135102135168000</pproTicksOut>
															<alphatype>none</alphatype>
															<file id="file-2"/>
															<logginginfo>
																<description></description>
																<scene></scene>
																<shottake></shottake>
																<lognote>https://www.youtube.com/watch?v=MPuakR1hEUM</lognote>
																<good></good>
																<originalvideofilename></originalvideofilename>
																<originalaudiofilename></originalaudiofilename>
															</logginginfo>
															<colorinfo>
																<lut></lut>
																<lut1></lut1>
																<asc_sop></asc_sop>
																<asc_sat></asc_sat>
																<lut2></lut2>
															</colorinfo>
															<labels>
																<label2>Iris</label2>
															</labels>
														</clipitem>
														<clipitem id="clipitem-245">
															<masterclipid>masterclip-2</masterclipid>
															<name>(Cody and Victoria)_“This view is INSANE!” Climbing the most scenic route in Tahoe. _ Eagle Lake Buttress, Emerald Bay_MPuakR1hEUM_YT.mp4</name>
															<enabled>TRUE</enabled>
															<duration>18626</duration>
															<rate>
																<timebase>30</timebase>
																<ntsc>TRUE</ntsc>
															</rate>
															<start>973</start>
															<end>1019</end>
															<in>16101</in>
															<out>16147</out>
															<pproTicksIn>136466717587200</pproTicksIn>
															<pproTicksOut>136856598278400</pproTicksOut>
															<alphatype>none</alphatype>
															<file id="file-2"/>
															<logginginfo>
																<description></description>
																<scene></scene>
																<shottake></shottake>
																<lognote>https://www.youtube.com/watch?v=MPuakR1hEUM</lognote>
																<good></good>
																<originalvideofilename></originalvideofilename>
																<originalaudiofilename></originalaudiofilename>
															</logginginfo>
															<colorinfo>
																<lut></lut>
																<lut1></lut1>
																<asc_sop></asc_sop>
																<asc_sat></asc_sat>
																<lut2></lut2>
															</colorinfo>
															<labels>
																<label2>Iris</label2>
															</labels>
														</clipitem>
														<clipitem id="clipitem-246">
															<masterclipid>masterclip-2</masterclipid>
															<name>(Cody and Victoria)_“This view is INSANE!” Climbing the most scenic route in Tahoe. _ Eagle Lake Buttress, Emerald Bay_MPuakR1hEUM_YT.mp4</name>
															<enabled>TRUE</enabled>
															<duration>18626</duration>
															<rate>
																<timebase>30</timebase>
																<ntsc>TRUE</ntsc>
															</rate>
															<start>1019</start>
															<end>1060</end>
															<in>17263</in>
															<out>17304</out>
															<pproTicksIn>146315442873600</pproTicksIn>
															<pproTicksOut>146662945228800</pproTicksOut>
															<alphatype>none</alphatype>
															<file id="file-2"/>
															<logginginfo>
																<description></description>
																<scene></scene>
																<shottake></shottake>
																<lognote>https://www.youtube.com/watch?v=MPuakR1hEUM</lognote>
																<good></good>
																<originalvideofilename></originalvideofilename>
																<originalaudiofilename></originalaudiofilename>
															</logginginfo>
															<colorinfo>
																<lut></lut>
																<lut1></lut1>
																<asc_sop></asc_sop>
																<asc_sat></asc_sat>
																<lut2></lut2>
															</colorinfo>
															<labels>
																<label2>Iris</label2>
															</labels>
														</clipitem>
														<clipitem id="clipitem-247">
															<masterclipid>masterclip-2</masterclipid>
															<name>(Cody and Victoria)_“This view is INSANE!” Climbing the most scenic route in Tahoe. _ Eagle Lake Buttress, Emerald Bay_MPuakR1hEUM_YT.mp4</name>
															<enabled>TRUE</enabled>
															<duration>18626</duration>
															<rate>
																<timebase>30</timebase>
																<ntsc>TRUE</ntsc>
															</rate>
															<start>1060</start>
															<end>1120</end>
															<in>17348</in>
															<out>17408</out>
															<pproTicksIn>147035874585600</pproTicksIn>
															<pproTicksOut>147544414617600</pproTicksOut>
															<alphatype>none</alphatype>
															<file id="file-2"/>
															<logginginfo>
																<description></description>
																<scene></scene>
																<shottake></shottake>
																<lognote>https://www.youtube.com/watch?v=MPuakR1hEUM</lognote>
																<good></good>
																<originalvideofilename></originalvideofilename>
																<originalaudiofilename></originalaudiofilename>
															</logginginfo>
															<colorinfo>
																<lut></lut>
																<lut1></lut1>
																<asc_sop></asc_sop>
																<asc_sat></asc_sat>
																<lut2></lut2>
															</colorinfo>
															<labels>
																<label2>Iris</label2>
															</labels>
														</clipitem>
														<clipitem id="clipitem-248">
															<masterclipid>masterclip-2</masterclipid>
															<name>(Cody and Victoria)_“This view is INSANE!” Climbing the most scenic route in Tahoe. _ Eagle Lake Buttress, Emerald Bay_MPuakR1hEUM_YT.mp4</name>
															<enabled>TRUE</enabled>
															<duration>18626</duration>
															<rate>
																<timebase>30</timebase>
																<ntsc>TRUE</ntsc>
															</rate>
															<start>1120</start>
															<end>1193</end>
															<in>17611</in>
															<out>17684</out>
															<pproTicksIn>149264975059200</pproTicksIn>
															<pproTicksOut>149883698764800</pproTicksOut>
															<alphatype>none</alphatype>
															<file id="file-2"/>
															<logginginfo>
																<description></description>
																<scene></scene>
																<shottake></shottake>
																<lognote>https://www.youtube.com/watch?v=MPuakR1hEUM</lognote>
																<good></good>
																<originalvideofilename></originalvideofilename>
																<originalaudiofilename></originalaudiofilename>
															</logginginfo>
															<colorinfo>
																<lut></lut>
																<lut1></lut1>
																<asc_sop></asc_sop>
																<asc_sat></asc_sat>
																<lut2></lut2>
															</colorinfo>
															<labels>
																<label2>Iris</label2>
															</labels>
														</clipitem>
														<enabled>TRUE</enabled>
														<locked>FALSE</locked>
													</track>
													<track>
														<clipitem id="clipitem-249">
															<masterclipid>masterclip-62</masterclipid>
															<name>1080/AE Attribution.aep Copy 44</name>
															<enabled>TRUE</enabled>
															<duration>5844</duration>
															<rate>
																<timebase>30</timebase>
																<ntsc>TRUE</ntsc>
															</rate>
															<start>0</start>
															<end>1193</end>
															<in>932</in>
															<out>2125</out>
															<pproTicksIn>7899321830400</pproTicksIn>
															<pproTicksOut>18010792800000</pproTicksOut>
															<alphatype>straight</alphatype>
															<file id="file-62"/>
															<logginginfo>
																<description></description>
																<scene></scene>
																<shottake></shottake>
																<lognote></lognote>
																<good></good>
																<originalvideofilename></originalvideofilename>
																<originalaudiofilename></originalaudiofilename>
															</logginginfo>
															<colorinfo>
																<lut></lut>
																<lut1></lut1>
																<asc_sop></asc_sop>
																<asc_sat></asc_sat>
																<lut2></lut2>
															</colorinfo>
															<labels>
																<label2>Rose</label2>
															</labels>
														</clipitem>
														<enabled>TRUE</enabled>
														<locked>FALSE</locked>
													</track>
												</video>
												<audio>
													<numOutputChannels>2</numOutputChannels>
													<format>
														<samplecharacteristics>
															<depth>16</depth>
															<samplerate>44100</samplerate>
														</samplecharacteristics>
													</format>
													<outputs>
														<group>
															<index>1</index>
															<numchannels>1</numchannels>
															<downmix>0</downmix>
															<channel>
																<index>1</index>
															</channel>
														</group>
														<group>
															<index>2</index>
															<numchannels>1</numchannels>
															<downmix>0</downmix>
															<channel>
																<index>2</index>
															</channel>
														</group>
													</outputs>
													<track TL.SQTrackExpandedHeight="25" TL.SQTrackExpanded="0" MZ.TrackTargeted="1" PannerCurrentValue="0.5" PannerIsInverted="true" PannerStartKeyframe="-91445760000000000,0.5,0,0,0,0,0,0" PannerName="Balance" currentExplodedTrackIndex="0" totalExplodedTrackCount="2" premiereTrackType="Stereo">
														<clipitem id="clipitem-250" premiereChannelType="stereo">
															<masterclipid>masterclip-46</masterclipid>
															<name>BrunchWithBunny - MYThing - No Lead Vocals.mp3</name>
															<enabled>TRUE</enabled>
															<duration>6068</duration>
															<rate>
																<timebase>30</timebase>
																<ntsc>TRUE</ntsc>
															</rate>
															<start>0</start>
															<end>-1</end>
															<in>47</in>
															<out>1240</out>
															<pproTicksIn>398356358400</pproTicksIn>
															<pproTicksOut>10509827328000</pproTicksOut>
															<file id="file-46"/>
															<sourcetrack>
																<mediatype>audio</mediatype>
																<trackindex>1</trackindex>
															</sourcetrack>
															<filter>
																<effect>
																	<name>Gain</name>
																	<effectid>{61756678, 4761696e, 4b657947}</effectid>
																	<effecttype>filter</effecttype>
																	<mediatype>audio</mediatype>
																	<parameter authoringApp="PremierePro">
																		<parameterid>Gain(dB)</parameterid>
																		<name>Gain(dB)</name>
																		<valuemin>-96</valuemin>
																		<valuemax>96</valuemax>
																		<value>-6</value>
																	</parameter>
																</effect>
															</filter>
															<link>
																<linkclipref>clipitem-250</linkclipref>
																<mediatype>audio</mediatype>
																<trackindex>1</trackindex>
																<clipindex>1</clipindex>
																<groupindex>1</groupindex>
															</link>
															<link>
																<linkclipref>clipitem-251</linkclipref>
																<mediatype>audio</mediatype>
																<trackindex>2</trackindex>
																<clipindex>1</clipindex>
																<groupindex>1</groupindex>
															</link>
															<logginginfo>
																<description></description>
																<scene></scene>
																<shottake></shottake>
																<lognote></lognote>
																<good></good>
																<originalvideofilename></originalvideofilename>
																<originalaudiofilename></originalaudiofilename>
															</logginginfo>
															<colorinfo>
																<lut></lut>
																<lut1></lut1>
																<asc_sop></asc_sop>
																<asc_sat></asc_sat>
																<lut2></lut2>
															</colorinfo>
															<labels>
																<label2>Caribbean</label2>
															</labels>
														</clipitem>
														<transitionitem>
															<start>1059</start>
															<end>1193</end>
															<pproTicksIn>8975731564800</pproTicksIn>
															<pproTicksOut>10111470969600</pproTicksOut>
															<alignment>end-black</alignment>
															<cutPointTicks>1135739404800</cutPointTicks>
															<rate>
																<timebase>30</timebase>
																<ntsc>TRUE</ntsc>
															</rate>
															<effect>
																<name>Cross Fade (+3dB)</name>
																<effectid>KGAudioTransCrossFade3dB</effectid>
																<effecttype>transition</effecttype>
																<mediatype>audio</mediatype>
																<wipecode>0</wipecode>
																<wipeaccuracy>100</wipeaccuracy>
																<startratio>0</startratio>
																<endratio>1</endratio>
																<reverse>FALSE</reverse>
															</effect>
														</transitionitem>
														<enabled>TRUE</enabled>
														<locked>FALSE</locked>
														<outputchannelindex>1</outputchannelindex>
													</track>
													<track TL.SQTrackExpandedHeight="25" TL.SQTrackExpanded="0" MZ.TrackTargeted="1" PannerCurrentValue="0.5" PannerIsInverted="true" PannerStartKeyframe="-91445760000000000,0.5,0,0,0,0,0,0" PannerName="Balance" currentExplodedTrackIndex="1" totalExplodedTrackCount="2" premiereTrackType="Stereo">
														<clipitem id="clipitem-251" premiereChannelType="stereo">
															<masterclipid>masterclip-46</masterclipid>
															<name>BrunchWithBunny - MYThing - No Lead Vocals.mp3</name>
															<enabled>TRUE</enabled>
															<duration>6068</duration>
															<rate>
																<timebase>30</timebase>
																<ntsc>TRUE</ntsc>
															</rate>
															<start>0</start>
															<end>-1</end>
															<in>47</in>
															<out>1240</out>
															<pproTicksIn>398356358400</pproTicksIn>
															<pproTicksOut>10509827328000</pproTicksOut>
															<file id="file-46"/>
															<sourcetrack>
																<mediatype>audio</mediatype>
																<trackindex>2</trackindex>
															</sourcetrack>
															<filter>
																<effect>
																	<name>Gain</name>
																	<effectid>{61756678, 4761696e, 4b657947}</effectid>
																	<effecttype>filter</effecttype>
																	<mediatype>audio</mediatype>
																	<parameter authoringApp="PremierePro">
																		<parameterid>Gain(dB)</parameterid>
																		<name>Gain(dB)</name>
																		<valuemin>-96</valuemin>
																		<valuemax>96</valuemax>
																		<value>-6</value>
																	</parameter>
																</effect>
															</filter>
															<link>
																<linkclipref>clipitem-250</linkclipref>
																<mediatype>audio</mediatype>
																<trackindex>1</trackindex>
																<clipindex>1</clipindex>
																<groupindex>1</groupindex>
															</link>
															<link>
																<linkclipref>clipitem-251</linkclipref>
																<mediatype>audio</mediatype>
																<trackindex>2</trackindex>
																<clipindex>1</clipindex>
																<groupindex>1</groupindex>
															</link>
															<logginginfo>
																<description></description>
																<scene></scene>
																<shottake></shottake>
																<lognote></lognote>
																<good></good>
																<originalvideofilename></originalvideofilename>
																<originalaudiofilename></originalaudiofilename>
															</logginginfo>
															<colorinfo>
																<lut></lut>
																<lut1></lut1>
																<asc_sop></asc_sop>
																<asc_sat></asc_sat>
																<lut2></lut2>
															</colorinfo>
															<labels>
																<label2>Caribbean</label2>
															</labels>
														</clipitem>
														<transitionitem>
															<start>1059</start>
															<end>1193</end>
															<pproTicksIn>8975731564800</pproTicksIn>
															<pproTicksOut>10111470969600</pproTicksOut>
															<alignment>end-black</alignment>
															<cutPointTicks>1135739404800</cutPointTicks>
															<rate>
																<timebase>30</timebase>
																<ntsc>TRUE</ntsc>
															</rate>
															<effect>
																<name>Cross Fade (+3dB)</name>
																<effectid>KGAudioTransCrossFade3dB</effectid>
																<effecttype>transition</effecttype>
																<mediatype>audio</mediatype>
																<wipecode>0</wipecode>
																<wipeaccuracy>100</wipeaccuracy>
																<startratio>0</startratio>
																<endratio>1</endratio>
																<reverse>FALSE</reverse>
															</effect>
														</transitionitem>
														<enabled>TRUE</enabled>
														<locked>FALSE</locked>
														<outputchannelindex>2</outputchannelindex>
													</track>
												</audio>
											</media>
											<timecode>
												<rate>
													<timebase>30</timebase>
													<ntsc>TRUE</ntsc>
												</rate>
												<string>00:00:00:00</string>
												<frame>0</frame>
												<displayformat>NDF</displayformat>
											</timecode>
											<logginginfo>
												<description></description>
												<scene></scene>
												<shottake></shottake>
												<lognote></lognote>
												<good></good>
												<originalvideofilename></originalvideofilename>
												<originalaudiofilename></originalaudiofilename>
											</logginginfo>
										</sequence>
										<link>
											<linkclipref>clipitem-227</linkclipref>
											<mediatype>video</mediatype>
											<trackindex>1</trackindex>
											<clipindex>3</clipindex>
										</link>
										<link>
											<linkclipref>clipitem-264</linkclipref>
											<mediatype>audio</mediatype>
											<trackindex>1</trackindex>
											<clipindex>3</clipindex>
											<groupindex>1</groupindex>
										</link>
										<link>
											<linkclipref>clipitem-267</linkclipref>
											<mediatype>audio</mediatype>
											<trackindex>2</trackindex>
											<clipindex>3</clipindex>
											<groupindex>1</groupindex>
										</link>
										<labels>
											<label2>Forest</label2>
										</labels>
									</clipitem>
									<enabled>TRUE</enabled>
									<locked>FALSE</locked>
								</track>
								<track TL.SQTrackShy="0" TL.SQTrackExpandedHeight="25" TL.SQTrackExpanded="0" MZ.TrackTargeted="0">
									<clipitem id="clipitem-252">
										<masterclipid>masterclip-76</masterclipid>
										<name>Alpine TV _ Main Lower Third/AlpineTV_LowerThird.aep</name>
										<enabled>TRUE</enabled>
										<duration>6750</duration>
										<rate>
											<timebase>30</timebase>
											<ntsc>TRUE</ntsc>
										</rate>
										<start>0</start>
										<end>1944</end>
										<in>0</in>
										<out>1944</out>
										<pproTicksIn>0</pproTicksIn>
										<pproTicksOut>16476697036800</pproTicksOut>
										<alphatype>straight</alphatype>
										<pixelaspectratio>square</pixelaspectratio>
										<anamorphic>FALSE</anamorphic>
										<file id="file-72">
											<name>Alpine TV _ Main Lower Third/AlpineTV_LowerThird.aep</name>
											<pathurl>file://localhost/Volumes/Charlie's%20Extra%20Space%20/1_Alpine%20TV_Projects%20/1_Alpine%20TV_Master%20Assets/Lower%20Third/AlpineTV_LowerThird.aep</pathurl>
											<rate>
												<timebase>30</timebase>
												<ntsc>TRUE</ntsc>
											</rate>
											<duration>6750</duration>
											<timecode>
												<rate>
													<timebase>30</timebase>
													<ntsc>TRUE</ntsc>
												</rate>
												<string>00:00:00:00</string>
												<frame>0</frame>
												<displayformat>NDF</displayformat>
											</timecode>
											<media>
												<video>
													<samplecharacteristics>
														<rate>
															<timebase>30</timebase>
															<ntsc>TRUE</ntsc>
														</rate>
														<width>1920</width>
														<height>1080</height>
														<anamorphic>FALSE</anamorphic>
														<pixelaspectratio>square</pixelaspectratio>
														<fielddominance>lower</fielddominance>
													</samplecharacteristics>
												</video>
											</media>
										</file>
										<logginginfo>
											<description></description>
											<scene></scene>
											<shottake></shottake>
											<lognote></lognote>
											<good></good>
											<originalvideofilename></originalvideofilename>
											<originalaudiofilename></originalaudiofilename>
										</logginginfo>
										<colorinfo>
											<lut></lut>
											<lut1></lut1>
											<asc_sop></asc_sop>
											<asc_sat></asc_sat>
											<lut2></lut2>
										</colorinfo>
										<labels>
											<label2>Violet</label2>
										</labels>
									</clipitem>
									<clipitem id="clipitem-253">
										<masterclipid>masterclip-77</masterclipid>
										<name>Alpine TV _ Main Lower Third/AlpineTV_LowerThird.aep</name>
										<enabled>TRUE</enabled>
										<duration>6750</duration>
										<rate>
											<timebase>30</timebase>
											<ntsc>TRUE</ntsc>
										</rate>
										<start>1997</start>
										<end>4226</end>
										<in>0</in>
										<out>2229</out>
										<pproTicksIn>0</pproTicksIn>
										<pproTicksOut>18892262188800</pproTicksOut>
										<alphatype>straight</alphatype>
										<pixelaspectratio>square</pixelaspectratio>
										<anamorphic>FALSE</anamorphic>
										<file id="file-73">
											<name>Alpine TV _ Main Lower Third/AlpineTV_LowerThird.aep</name>
											<pathurl>file://localhost/Volumes/Charlie's%20Extra%20Space%20/1_Alpine%20TV_Projects%20/1_Alpine%20TV_Master%20Assets/Lower%20Third/AlpineTV_LowerThird.aep</pathurl>
											<rate>
												<timebase>30</timebase>
												<ntsc>TRUE</ntsc>
											</rate>
											<duration>6750</duration>
											<timecode>
												<rate>
													<timebase>30</timebase>
													<ntsc>TRUE</ntsc>
												</rate>
												<string>00:00:00:00</string>
												<frame>0</frame>
												<displayformat>NDF</displayformat>
											</timecode>
											<media>
												<video>
													<samplecharacteristics>
														<rate>
															<timebase>30</timebase>
															<ntsc>TRUE</ntsc>
														</rate>
														<width>1920</width>
														<height>1080</height>
														<anamorphic>FALSE</anamorphic>
														<pixelaspectratio>square</pixelaspectratio>
														<fielddominance>lower</fielddominance>
													</samplecharacteristics>
												</video>
											</media>
										</file>
										<logginginfo>
											<description></description>
											<scene></scene>
											<shottake></shottake>
											<lognote></lognote>
											<good></good>
											<originalvideofilename></originalvideofilename>
											<originalaudiofilename></originalaudiofilename>
										</logginginfo>
										<colorinfo>
											<lut></lut>
											<lut1></lut1>
											<asc_sop></asc_sop>
											<asc_sat></asc_sat>
											<lut2></lut2>
										</colorinfo>
										<labels>
											<label2>Violet</label2>
										</labels>
									</clipitem>
									<clipitem id="clipitem-254">
										<masterclipid>masterclip-78</masterclipid>
										<name>Alpine TV _ Main Lower Third/AlpineTV_LowerThird.aep</name>
										<enabled>TRUE</enabled>
										<duration>6750</duration>
										<rate>
											<timebase>30</timebase>
											<ntsc>TRUE</ntsc>
										</rate>
										<start>4267</start>
										<end>5460</end>
										<in>0</in>
										<out>1193</out>
										<pproTicksIn>0</pproTicksIn>
										<pproTicksOut>10111470969600</pproTicksOut>
										<alphatype>straight</alphatype>
										<pixelaspectratio>square</pixelaspectratio>
										<anamorphic>FALSE</anamorphic>
										<file id="file-74">
											<name>Alpine TV _ Main Lower Third/AlpineTV_LowerThird.aep</name>
											<pathurl>file://localhost/Volumes/Charlie's%20Extra%20Space%20/1_Alpine%20TV_Projects%20/1_Alpine%20TV_Master%20Assets/Lower%20Third/AlpineTV_LowerThird.aep</pathurl>
											<rate>
												<timebase>30</timebase>
												<ntsc>TRUE</ntsc>
											</rate>
											<duration>6750</duration>
											<timecode>
												<rate>
													<timebase>30</timebase>
													<ntsc>TRUE</ntsc>
												</rate>
												<string>00:00:00:00</string>
												<frame>0</frame>
												<displayformat>NDF</displayformat>
											</timecode>
											<media>
												<video>
													<samplecharacteristics>
														<rate>
															<timebase>30</timebase>
															<ntsc>TRUE</ntsc>
														</rate>
														<width>1920</width>
														<height>1080</height>
														<anamorphic>FALSE</anamorphic>
														<pixelaspectratio>square</pixelaspectratio>
														<fielddominance>lower</fielddominance>
													</samplecharacteristics>
												</video>
											</media>
										</file>
										<logginginfo>
											<description></description>
											<scene></scene>
											<shottake></shottake>
											<lognote></lognote>
											<good></good>
											<originalvideofilename></originalvideofilename>
											<originalaudiofilename></originalaudiofilename>
										</logginginfo>
										<colorinfo>
											<lut></lut>
											<lut1></lut1>
											<asc_sop></asc_sop>
											<asc_sat></asc_sat>
											<lut2></lut2>
										</colorinfo>
										<labels>
											<label2>Violet</label2>
										</labels>
									</clipitem>
									<enabled>TRUE</enabled>
									<locked>FALSE</locked>
								</track>
								<track TL.SQTrackShy="0" TL.SQTrackExpandedHeight="25" TL.SQTrackExpanded="0" MZ.TrackTargeted="0">
									<clipitem id="clipitem-255">
										<masterclipid>masterclip-79</masterclipid>
										<name>ATM BUG LEFT</name>
										<enabled>TRUE</enabled>
										<duration>5460</duration>
										<rate>
											<timebase>30</timebase>
											<ntsc>TRUE</ntsc>
										</rate>
										<start>0</start>
										<end>5460</end>
										<in>0</in>
										<out>5460</out>
										<pproTicksIn>0</pproTicksIn>
										<pproTicksOut>46277142912000</pproTicksOut>
										<sequence id="sequence-7"/>
										<labels>
											<label2>Forest</label2>
										</labels>
									</clipitem>
									<enabled>TRUE</enabled>
									<locked>FALSE</locked>
								</track>
								<track TL.SQTrackShy="0" TL.SQTrackExpandedHeight="25" TL.SQTrackExpanded="0" MZ.TrackTargeted="0">
									<clipitem id="clipitem-256">
										<masterclipid>masterclip-80</masterclipid>
										<name>Trans 1 </name>
										<enabled>TRUE</enabled>
										<duration>117</duration>
										<rate>
											<timebase>30</timebase>
											<ntsc>TRUE</ntsc>
										</rate>
										<start>1927</start>
										<end>2044</end>
										<in>0</in>
										<out>117</out>
										<pproTicksIn>0</pproTicksIn>
										<pproTicksOut>991653062400</pproTicksOut>
										<sequence id="sequence-4"/>
										<link>
											<linkclipref>clipitem-256</linkclipref>
											<mediatype>video</mediatype>
											<trackindex>4</trackindex>
											<clipindex>1</clipindex>
										</link>
										<link>
											<linkclipref>clipitem-268</linkclipref>
											<mediatype>audio</mediatype>
											<trackindex>5</trackindex>
											<clipindex>1</clipindex>
											<groupindex>1</groupindex>
										</link>
										<link>
											<linkclipref>clipitem-271</linkclipref>
											<mediatype>audio</mediatype>
											<trackindex>6</trackindex>
											<clipindex>1</clipindex>
											<groupindex>1</groupindex>
										</link>
										<labels>
											<label2>Forest</label2>
										</labels>
									</clipitem>
									<clipitem id="clipitem-257">
										<masterclipid>masterclip-81</masterclipid>
										<name>trans 2</name>
										<enabled>TRUE</enabled>
										<duration>77</duration>
										<rate>
											<timebase>30</timebase>
											<ntsc>TRUE</ntsc>
										</rate>
										<start>4207</start>
										<end>4284</end>
										<in>0</in>
										<out>77</out>
										<pproTicksIn>0</pproTicksIn>
										<pproTicksOut>652626374400</pproTicksOut>
										<sequence id="sequence-12" TL.SQVisibleBaseTime="0" TL.SQTimePerPixel="0.28585104318291882" MZ.Sequence.PreviewFrameSizeHeight="1080" MZ.Sequence.PreviewFrameSizeWidth="1920" MZ.Sequence.AudioTimeDisplayFormat="200" MZ.Sequence.PreviewRenderingPresetCodec="1297107278" MZ.Sequence.PreviewRenderingPresetPath="EncoderPresets/SequencePreview/795454d9-d3c2-429d-9474-923ab13b7018/I-Frame Only MPEG.epr" MZ.Sequence.PreviewUseMaxRenderQuality="false" MZ.Sequence.PreviewUseMaxBitDepth="false" MZ.Sequence.EditingModeGUID="795454d9-d3c2-429d-9474-923ab13b7018" MZ.Sequence.VideoTimeDisplayFormat="103" MZ.WorkOutPoint="652626374400" MZ.WorkInPoint="0">
											<duration>0</duration>
											<rate>
												<timebase>30</timebase>
												<ntsc>TRUE</ntsc>
											</rate>
											<name>Trans 2</name>
											<media>
												<video>
													<format>
														<samplecharacteristics>
															<rate>
																<timebase>30</timebase>
																<ntsc>TRUE</ntsc>
															</rate>
															<codec>
																<name>Apple ProRes 422</name>
																<appspecificdata>
																	<appname>Final Cut Pro</appname>
																	<appmanufacturer>Apple Inc.</appmanufacturer>
																	<appversion>7.0</appversion>
																	<data>
																		<qtcodec>
																			<codecname>Apple ProRes 422</codecname>
																			<codectypename>Apple ProRes 422</codectypename>
																			<codectypecode>apcn</codectypecode>
																			<codecvendorcode>appl</codecvendorcode>
																			<spatialquality>1024</spatialquality>
																			<temporalquality>0</temporalquality>
																			<keyframerate>0</keyframerate>
																			<datarate>0</datarate>
																		</qtcodec>
																	</data>
																</appspecificdata>
															</codec>
															<width>1920</width>
															<height>1080</height>
															<anamorphic>FALSE</anamorphic>
															<pixelaspectratio>square</pixelaspectratio>
															<fielddominance>none</fielddominance>
															<colordepth>24</colordepth>
														</samplecharacteristics>
													</format>
													<track TL.SQTrackExpandedHeight="25" TL.SQTrackExpanded="0" MZ.TrackTargeted="1">
														<enabled>TRUE</enabled>
														<locked>FALSE</locked>
													</track>
													<track>
														<enabled>TRUE</enabled>
														<locked>FALSE</locked>
													</track>
													<track>
														<enabled>TRUE</enabled>
														<locked>FALSE</locked>
													</track>
													<track>
														<clipitem id="clipitem-258">
															<masterclipid>masterclip-82</masterclipid>
															<name>Trans 2</name>
															<enabled>TRUE</enabled>
															<duration>77</duration>
															<rate>
																<timebase>30</timebase>
																<ntsc>TRUE</ntsc>
															</rate>
															<start>0</start>
															<end>77</end>
															<in>0</in>
															<out>77</out>
															<pproTicksIn>0</pproTicksIn>
															<pproTicksOut>652626374400</pproTicksOut>
															<sequence id="sequence-6"/>
															<labels>
																<label2>Forest</label2>
															</labels>
														</clipitem>
														<enabled>TRUE</enabled>
														<locked>FALSE</locked>
													</track>
												</video>
												<audio>
													<numOutputChannels>2</numOutputChannels>
													<format>
														<samplecharacteristics>
															<depth>16</depth>
															<samplerate>44100</samplerate>
														</samplecharacteristics>
													</format>
													<outputs>
														<group>
															<index>1</index>
															<numchannels>1</numchannels>
															<downmix>0</downmix>
															<channel>
																<index>1</index>
															</channel>
														</group>
														<group>
															<index>2</index>
															<numchannels>1</numchannels>
															<downmix>0</downmix>
															<channel>
																<index>2</index>
															</channel>
														</group>
													</outputs>
													<track TL.SQTrackExpandedHeight="25" TL.SQTrackExpanded="0" MZ.TrackTargeted="1" PannerCurrentValue="0.5" PannerIsInverted="true" PannerStartKeyframe="-91445760000000000,0.5,0,0,0,0,0,0" PannerName="Balance" currentExplodedTrackIndex="0" totalExplodedTrackCount="2" premiereTrackType="Stereo">
														<enabled>TRUE</enabled>
														<locked>FALSE</locked>
														<outputchannelindex>1</outputchannelindex>
													</track>
													<track TL.SQTrackExpandedHeight="25" TL.SQTrackExpanded="0" MZ.TrackTargeted="1" PannerCurrentValue="0.5" PannerIsInverted="true" PannerStartKeyframe="-91445760000000000,0.5,0,0,0,0,0,0" PannerName="Balance" currentExplodedTrackIndex="1" totalExplodedTrackCount="2" premiereTrackType="Stereo">
														<enabled>TRUE</enabled>
														<locked>FALSE</locked>
														<outputchannelindex>2</outputchannelindex>
													</track>
													<track PannerCurrentValue="0.5" PannerIsInverted="true" PannerStartKeyframe="-91445760000000000,0.5,0,0,0,0,0,0" PannerName="Balance" currentExplodedTrackIndex="0" totalExplodedTrackCount="2" premiereTrackType="Stereo">
														<clipitem id="clipitem-259" premiereChannelType="stereo">
															<masterclipid>masterclip-70</masterclipid>
															<name>03_ALPINE_Trans.mov</name>
															<enabled>TRUE</enabled>
															<duration>77</duration>
															<rate>
																<timebase>30</timebase>
																<ntsc>TRUE</ntsc>
															</rate>
															<start>0</start>
															<end>77</end>
															<in>0</in>
															<out>77</out>
															<pproTicksIn>0</pproTicksIn>
															<pproTicksOut>652626374400</pproTicksOut>
															<file id="file-69"/>
															<sourcetrack>
																<mediatype>audio</mediatype>
																<trackindex>1</trackindex>
															</sourcetrack>
																<marker>
																	<comment></comment>
																	<name></name>
																	<in>60</in>
																	<out>-1</out>
																</marker>
																<marker>
																	<comment></comment>
																	<name></name>
																	<in>19</in>
																	<out>-1</out>
																</marker>
															<link>
																<linkclipref>clipitem-259</linkclipref>
																<mediatype>audio</mediatype>
																<trackindex>3</trackindex>
																<clipindex>1</clipindex>
																<groupindex>1</groupindex>
															</link>
															<link>
																<linkclipref>clipitem-260</linkclipref>
																<mediatype>audio</mediatype>
																<trackindex>4</trackindex>
																<clipindex>1</clipindex>
																<groupindex>1</groupindex>
															</link>
															<logginginfo>
																<description></description>
																<scene></scene>
																<shottake></shottake>
																<lognote></lognote>
																<good></good>
																<originalvideofilename></originalvideofilename>
																<originalaudiofilename></originalaudiofilename>
															</logginginfo>
															<colorinfo>
																<lut></lut>
																<lut1></lut1>
																<asc_sop></asc_sop>
																<asc_sat></asc_sat>
																<lut2></lut2>
															</colorinfo>
															<labels>
																<label2>Iris</label2>
															</labels>
														</clipitem>
														<enabled>TRUE</enabled>
														<locked>FALSE</locked>
														<outputchannelindex>1</outputchannelindex>
													</track>
													<track PannerCurrentValue="0.5" PannerIsInverted="true" PannerStartKeyframe="-91445760000000000,0.5,0,0,0,0,0,0" PannerName="Balance" currentExplodedTrackIndex="1" totalExplodedTrackCount="2" premiereTrackType="Stereo">
														<clipitem id="clipitem-260" premiereChannelType="stereo">
															<masterclipid>masterclip-70</masterclipid>
															<name>03_ALPINE_Trans.mov</name>
															<enabled>TRUE</enabled>
															<duration>77</duration>
															<rate>
																<timebase>30</timebase>
																<ntsc>TRUE</ntsc>
															</rate>
															<start>0</start>
															<end>77</end>
															<in>0</in>
															<out>77</out>
															<pproTicksIn>0</pproTicksIn>
															<pproTicksOut>652626374400</pproTicksOut>
															<file id="file-69"/>
															<sourcetrack>
																<mediatype>audio</mediatype>
																<trackindex>2</trackindex>
															</sourcetrack>
																<marker>
																	<comment></comment>
																	<name></name>
																	<in>60</in>
																	<out>-1</out>
																</marker>
																<marker>
																	<comment></comment>
																	<name></name>
																	<in>19</in>
																	<out>-1</out>
																</marker>
															<link>
																<linkclipref>clipitem-259</linkclipref>
																<mediatype>audio</mediatype>
																<trackindex>3</trackindex>
																<clipindex>1</clipindex>
																<groupindex>1</groupindex>
															</link>
															<link>
																<linkclipref>clipitem-260</linkclipref>
																<mediatype>audio</mediatype>
																<trackindex>4</trackindex>
																<clipindex>1</clipindex>
																<groupindex>1</groupindex>
															</link>
															<logginginfo>
																<description></description>
																<scene></scene>
																<shottake></shottake>
																<lognote></lognote>
																<good></good>
																<originalvideofilename></originalvideofilename>
																<originalaudiofilename></originalaudiofilename>
															</logginginfo>
															<colorinfo>
																<lut></lut>
																<lut1></lut1>
																<asc_sop></asc_sop>
																<asc_sat></asc_sat>
																<lut2></lut2>
															</colorinfo>
															<labels>
																<label2>Iris</label2>
															</labels>
														</clipitem>
														<enabled>TRUE</enabled>
														<locked>FALSE</locked>
														<outputchannelindex>2</outputchannelindex>
													</track>
												</audio>
											</media>
											<timecode>
												<rate>
													<timebase>30</timebase>
													<ntsc>TRUE</ntsc>
												</rate>
												<string>00:00:00:00</string>
												<frame>0</frame>
												<displayformat>NDF</displayformat>
											</timecode>
											<logginginfo>
												<description></description>
												<scene></scene>
												<shottake></shottake>
												<lognote></lognote>
												<good></good>
												<originalvideofilename></originalvideofilename>
												<originalaudiofilename></originalaudiofilename>
											</logginginfo>
										</sequence>
										<link>
											<linkclipref>clipitem-257</linkclipref>
											<mediatype>video</mediatype>
											<trackindex>4</trackindex>
											<clipindex>2</clipindex>
										</link>
										<link>
											<linkclipref>clipitem-269</linkclipref>
											<mediatype>audio</mediatype>
											<trackindex>5</trackindex>
											<clipindex>2</clipindex>
											<groupindex>1</groupindex>
										</link>
										<link>
											<linkclipref>clipitem-272</linkclipref>
											<mediatype>audio</mediatype>
											<trackindex>6</trackindex>
											<clipindex>2</clipindex>
											<groupindex>1</groupindex>
										</link>
										<labels>
											<label2>Forest</label2>
										</labels>
									</clipitem>
									<clipitem id="clipitem-261">
										<masterclipid>masterclip-80</masterclipid>
										<name>Trans 1 </name>
										<enabled>TRUE</enabled>
										<duration>117</duration>
										<rate>
											<timebase>30</timebase>
											<ntsc>TRUE</ntsc>
										</rate>
										<start>5443</start>
										<end>5560</end>
										<in>0</in>
										<out>117</out>
										<pproTicksIn>0</pproTicksIn>
										<pproTicksOut>991653062400</pproTicksOut>
										<sequence id="sequence-4"/>
										<link>
											<linkclipref>clipitem-261</linkclipref>
											<mediatype>video</mediatype>
											<trackindex>4</trackindex>
											<clipindex>3</clipindex>
										</link>
										<link>
											<linkclipref>clipitem-270</linkclipref>
											<mediatype>audio</mediatype>
											<trackindex>5</trackindex>
											<clipindex>3</clipindex>
											<groupindex>1</groupindex>
										</link>
										<link>
											<linkclipref>clipitem-273</linkclipref>
											<mediatype>audio</mediatype>
											<trackindex>6</trackindex>
											<clipindex>3</clipindex>
											<groupindex>1</groupindex>
										</link>
										<labels>
											<label2>Forest</label2>
										</labels>
									</clipitem>
									<enabled>TRUE</enabled>
									<locked>FALSE</locked>
								</track>
								<track TL.SQTrackShy="0" TL.SQTrackExpandedHeight="25" TL.SQTrackExpanded="0" MZ.TrackTargeted="0">
									<enabled>TRUE</enabled>
									<locked>FALSE</locked>
								</track>
								<track TL.SQTrackShy="0" TL.SQTrackExpandedHeight="25" TL.SQTrackExpanded="0" MZ.TrackTargeted="0">
									<enabled>TRUE</enabled>
									<locked>FALSE</locked>
								</track>
								<track TL.SQTrackShy="0" TL.SQTrackExpandedHeight="25" TL.SQTrackExpanded="0" MZ.TrackTargeted="0">
									<enabled>TRUE</enabled>
									<locked>FALSE</locked>
								</track>
								<track TL.SQTrackShy="0" TL.SQTrackExpandedHeight="25" TL.SQTrackExpanded="0" MZ.TrackTargeted="0">
									<enabled>TRUE</enabled>
									<locked>FALSE</locked>
								</track>
								<track TL.SQTrackShy="0" TL.SQTrackExpandedHeight="25" TL.SQTrackExpanded="0" MZ.TrackTargeted="0">
									<enabled>TRUE</enabled>
									<locked>FALSE</locked>
								</track>
							</video>
							<audio>
								<numOutputChannels>2</numOutputChannels>
								<format>
									<samplecharacteristics>
										<depth>16</depth>
										<samplerate>44100</samplerate>
									</samplecharacteristics>
								</format>
								<outputs>
									<group>
										<index>1</index>
										<numchannels>1</numchannels>
										<downmix>0</downmix>
										<channel>
											<index>1</index>
										</channel>
									</group>
									<group>
										<index>2</index>
										<numchannels>1</numchannels>
										<downmix>0</downmix>
										<channel>
											<index>2</index>
										</channel>
									</group>
								</outputs>
								<track TL.SQTrackAudioKeyframeStyle="0" TL.SQTrackShy="0" TL.SQTrackExpandedHeight="15" TL.SQTrackExpanded="0" MZ.TrackTargeted="0" PannerCurrentValue="0.5" PannerIsInverted="true" PannerStartKeyframe="-91445760000000000,0.5,0,0,0,0,0,0" PannerName="Balance" currentExplodedTrackIndex="0" totalExplodedTrackCount="2" premiereTrackType="Stereo">
									<clipitem id="clipitem-262" premiereChannelType="stereo">
										<masterclipid>masterclip-73</masterclipid>
										<name>XTR_everyone needs a little cold motivation _1</name>
										<enabled>TRUE</enabled>
										<duration>1944</duration>
										<rate>
											<timebase>30</timebase>
											<ntsc>TRUE</ntsc>
										</rate>
										<start>0</start>
										<end>1944</end>
										<in>0</in>
										<out>1944</out>
										<pproTicksIn>0</pproTicksIn>
										<pproTicksOut>16476697036800</pproTicksOut>
										<sequence id="sequence-9"/>
										<sourcetrack>
											<mediatype>audio</mediatype>
											<trackindex>0</trackindex>
										</sourcetrack>
										<link>
											<linkclipref>clipitem-127</linkclipref>
											<mediatype>video</mediatype>
											<trackindex>1</trackindex>
											<clipindex>1</clipindex>
										</link>
										<link>
											<linkclipref>clipitem-262</linkclipref>
											<mediatype>audio</mediatype>
											<trackindex>1</trackindex>
											<clipindex>1</clipindex>
											<groupindex>1</groupindex>
										</link>
										<link>
											<linkclipref>clipitem-265</linkclipref>
											<mediatype>audio</mediatype>
											<trackindex>2</trackindex>
											<clipindex>1</clipindex>
											<groupindex>1</groupindex>
										</link>
										<labels>
											<label2>Forest</label2>
										</labels>
									</clipitem>
									<clipitem id="clipitem-263" premiereChannelType="stereo">
										<masterclipid>masterclip-74</masterclipid>
										<name>AWE_when nature is your building ground_1</name>
										<enabled>TRUE</enabled>
										<duration>2229</duration>
										<rate>
											<timebase>30</timebase>
											<ntsc>TRUE</ntsc>
										</rate>
										<start>1997</start>
										<end>4226</end>
										<in>0</in>
										<out>2229</out>
										<pproTicksIn>0</pproTicksIn>
										<pproTicksOut>18892262188800</pproTicksOut>
										<sequence id="sequence-10"/>
										<sourcetrack>
											<mediatype>audio</mediatype>
											<trackindex>0</trackindex>
										</sourcetrack>
										<link>
											<linkclipref>clipitem-170</linkclipref>
											<mediatype>video</mediatype>
											<trackindex>1</trackindex>
											<clipindex>2</clipindex>
										</link>
										<link>
											<linkclipref>clipitem-263</linkclipref>
											<mediatype>audio</mediatype>
											<trackindex>1</trackindex>
											<clipindex>2</clipindex>
											<groupindex>1</groupindex>
										</link>
										<link>
											<linkclipref>clipitem-266</linkclipref>
											<mediatype>audio</mediatype>
											<trackindex>2</trackindex>
											<clipindex>2</clipindex>
											<groupindex>1</groupindex>
										</link>
										<labels>
											<label2>Forest</label2>
										</labels>
									</clipitem>
									<clipitem id="clipitem-264" premiereChannelType="stereo">
										<masterclipid>masterclip-75</masterclipid>
										<name>miley cyrus was right, it's "the climb"_1</name>
										<enabled>TRUE</enabled>
										<duration>1193</duration>
										<rate>
											<timebase>30</timebase>
											<ntsc>TRUE</ntsc>
										</rate>
										<start>4267</start>
										<end>5460</end>
										<in>0</in>
										<out>1193</out>
										<pproTicksIn>0</pproTicksIn>
										<pproTicksOut>10111470969600</pproTicksOut>
										<sequence id="sequence-11"/>
										<sourcetrack>
											<mediatype>audio</mediatype>
											<trackindex>0</trackindex>
										</sourcetrack>
										<link>
											<linkclipref>clipitem-227</linkclipref>
											<mediatype>video</mediatype>
											<trackindex>1</trackindex>
											<clipindex>3</clipindex>
										</link>
										<link>
											<linkclipref>clipitem-264</linkclipref>
											<mediatype>audio</mediatype>
											<trackindex>1</trackindex>
											<clipindex>3</clipindex>
											<groupindex>1</groupindex>
										</link>
										<link>
											<linkclipref>clipitem-267</linkclipref>
											<mediatype>audio</mediatype>
											<trackindex>2</trackindex>
											<clipindex>3</clipindex>
											<groupindex>1</groupindex>
										</link>
										<labels>
											<label2>Forest</label2>
										</labels>
									</clipitem>
									<enabled>TRUE</enabled>
									<locked>FALSE</locked>
									<outputchannelindex>1</outputchannelindex>
								</track>
								<track TL.SQTrackAudioKeyframeStyle="0" TL.SQTrackShy="0" TL.SQTrackExpandedHeight="15" TL.SQTrackExpanded="0" MZ.TrackTargeted="0" PannerCurrentValue="0.5" PannerIsInverted="true" PannerStartKeyframe="-91445760000000000,0.5,0,0,0,0,0,0" PannerName="Balance" currentExplodedTrackIndex="1" totalExplodedTrackCount="2" premiereTrackType="Stereo">
									<clipitem id="clipitem-265" premiereChannelType="stereo">
										<masterclipid>masterclip-73</masterclipid>
										<name>XTR_everyone needs a little cold motivation _1</name>
										<enabled>TRUE</enabled>
										<duration>1944</duration>
										<rate>
											<timebase>30</timebase>
											<ntsc>TRUE</ntsc>
										</rate>
										<start>0</start>
										<end>1944</end>
										<in>0</in>
										<out>1944</out>
										<pproTicksIn>0</pproTicksIn>
										<pproTicksOut>16476697036800</pproTicksOut>
										<sequence id="sequence-9"/>
										<sourcetrack>
											<mediatype>audio</mediatype>
											<trackindex>1</trackindex>
										</sourcetrack>
										<link>
											<linkclipref>clipitem-127</linkclipref>
											<mediatype>video</mediatype>
											<trackindex>1</trackindex>
											<clipindex>1</clipindex>
										</link>
										<link>
											<linkclipref>clipitem-262</linkclipref>
											<mediatype>audio</mediatype>
											<trackindex>1</trackindex>
											<clipindex>1</clipindex>
											<groupindex>1</groupindex>
										</link>
										<link>
											<linkclipref>clipitem-265</linkclipref>
											<mediatype>audio</mediatype>
											<trackindex>2</trackindex>
											<clipindex>1</clipindex>
											<groupindex>1</groupindex>
										</link>
										<labels>
											<label2>Forest</label2>
										</labels>
									</clipitem>
									<clipitem id="clipitem-266" premiereChannelType="stereo">
										<masterclipid>masterclip-74</masterclipid>
										<name>AWE_when nature is your building ground_1</name>
										<enabled>TRUE</enabled>
										<duration>2229</duration>
										<rate>
											<timebase>30</timebase>
											<ntsc>TRUE</ntsc>
										</rate>
										<start>1997</start>
										<end>4226</end>
										<in>0</in>
										<out>2229</out>
										<pproTicksIn>0</pproTicksIn>
										<pproTicksOut>18892262188800</pproTicksOut>
										<sequence id="sequence-10"/>
										<sourcetrack>
											<mediatype>audio</mediatype>
											<trackindex>1</trackindex>
										</sourcetrack>
										<link>
											<linkclipref>clipitem-170</linkclipref>
											<mediatype>video</mediatype>
											<trackindex>1</trackindex>
											<clipindex>2</clipindex>
										</link>
										<link>
											<linkclipref>clipitem-263</linkclipref>
											<mediatype>audio</mediatype>
											<trackindex>1</trackindex>
											<clipindex>2</clipindex>
											<groupindex>1</groupindex>
										</link>
										<link>
											<linkclipref>clipitem-266</linkclipref>
											<mediatype>audio</mediatype>
											<trackindex>2</trackindex>
											<clipindex>2</clipindex>
											<groupindex>1</groupindex>
										</link>
										<labels>
											<label2>Forest</label2>
										</labels>
									</clipitem>
									<clipitem id="clipitem-267" premiereChannelType="stereo">
										<masterclipid>masterclip-75</masterclipid>
										<name>miley cyrus was right, it's "the climb"_1</name>
										<enabled>TRUE</enabled>
										<duration>1193</duration>
										<rate>
											<timebase>30</timebase>
											<ntsc>TRUE</ntsc>
										</rate>
										<start>4267</start>
										<end>5460</end>
										<in>0</in>
										<out>1193</out>
										<pproTicksIn>0</pproTicksIn>
										<pproTicksOut>10111470969600</pproTicksOut>
										<sequence id="sequence-11"/>
										<sourcetrack>
											<mediatype>audio</mediatype>
											<trackindex>1</trackindex>
										</sourcetrack>
										<link>
											<linkclipref>clipitem-227</linkclipref>
											<mediatype>video</mediatype>
											<trackindex>1</trackindex>
											<clipindex>3</clipindex>
										</link>
										<link>
											<linkclipref>clipitem-264</linkclipref>
											<mediatype>audio</mediatype>
											<trackindex>1</trackindex>
											<clipindex>3</clipindex>
											<groupindex>1</groupindex>
										</link>
										<link>
											<linkclipref>clipitem-267</linkclipref>
											<mediatype>audio</mediatype>
											<trackindex>2</trackindex>
											<clipindex>3</clipindex>
											<groupindex>1</groupindex>
										</link>
										<labels>
											<label2>Forest</label2>
										</labels>
									</clipitem>
									<enabled>TRUE</enabled>
									<locked>FALSE</locked>
									<outputchannelindex>2</outputchannelindex>
								</track>
								<track TL.SQTrackAudioKeyframeStyle="0" TL.SQTrackShy="0" TL.SQTrackExpandedHeight="15" TL.SQTrackExpanded="0" MZ.TrackTargeted="0" PannerCurrentValue="0.5" PannerIsInverted="true" PannerStartKeyframe="-91445760000000000,0.5,0,0,0,0,0,0" PannerName="Balance" currentExplodedTrackIndex="0" totalExplodedTrackCount="2" premiereTrackType="Stereo">
									<enabled>TRUE</enabled>
									<locked>FALSE</locked>
									<outputchannelindex>1</outputchannelindex>
								</track>
								<track TL.SQTrackAudioKeyframeStyle="0" TL.SQTrackShy="0" TL.SQTrackExpandedHeight="15" TL.SQTrackExpanded="0" MZ.TrackTargeted="0" PannerCurrentValue="0.5" PannerIsInverted="true" PannerStartKeyframe="-91445760000000000,0.5,0,0,0,0,0,0" PannerName="Balance" currentExplodedTrackIndex="1" totalExplodedTrackCount="2" premiereTrackType="Stereo">
									<enabled>TRUE</enabled>
									<locked>FALSE</locked>
									<outputchannelindex>2</outputchannelindex>
								</track>
								<track TL.SQTrackAudioKeyframeStyle="0" TL.SQTrackShy="0" TL.SQTrackExpandedHeight="15" TL.SQTrackExpanded="0" MZ.TrackTargeted="0" PannerCurrentValue="0.5" PannerIsInverted="true" PannerStartKeyframe="-91445760000000000,0.5,0,0,0,0,0,0" PannerName="Balance" currentExplodedTrackIndex="0" totalExplodedTrackCount="2" premiereTrackType="Stereo">
									<clipitem id="clipitem-268" premiereChannelType="stereo">
										<masterclipid>masterclip-80</masterclipid>
										<name>Trans 1 </name>
										<enabled>TRUE</enabled>
										<duration>117</duration>
										<rate>
											<timebase>30</timebase>
											<ntsc>TRUE</ntsc>
										</rate>
										<start>1927</start>
										<end>2044</end>
										<in>0</in>
										<out>117</out>
										<pproTicksIn>0</pproTicksIn>
										<pproTicksOut>991653062400</pproTicksOut>
										<sequence id="sequence-4"/>
										<sourcetrack>
											<mediatype>audio</mediatype>
											<trackindex>0</trackindex>
										</sourcetrack>
										<link>
											<linkclipref>clipitem-256</linkclipref>
											<mediatype>video</mediatype>
											<trackindex>4</trackindex>
											<clipindex>1</clipindex>
										</link>
										<link>
											<linkclipref>clipitem-268</linkclipref>
											<mediatype>audio</mediatype>
											<trackindex>5</trackindex>
											<clipindex>1</clipindex>
											<groupindex>1</groupindex>
										</link>
										<link>
											<linkclipref>clipitem-271</linkclipref>
											<mediatype>audio</mediatype>
											<trackindex>6</trackindex>
											<clipindex>1</clipindex>
											<groupindex>1</groupindex>
										</link>
										<labels>
											<label2>Forest</label2>
										</labels>
									</clipitem>
									<clipitem id="clipitem-269" premiereChannelType="stereo">
										<masterclipid>masterclip-81</masterclipid>
										<name>trans 2</name>
										<enabled>TRUE</enabled>
										<duration>77</duration>
										<rate>
											<timebase>30</timebase>
											<ntsc>TRUE</ntsc>
										</rate>
										<start>4207</start>
										<end>4284</end>
										<in>0</in>
										<out>77</out>
										<pproTicksIn>0</pproTicksIn>
										<pproTicksOut>652626374400</pproTicksOut>
										<sequence id="sequence-12"/>
										<sourcetrack>
											<mediatype>audio</mediatype>
											<trackindex>0</trackindex>
										</sourcetrack>
										<link>
											<linkclipref>clipitem-257</linkclipref>
											<mediatype>video</mediatype>
											<trackindex>4</trackindex>
											<clipindex>2</clipindex>
										</link>
										<link>
											<linkclipref>clipitem-269</linkclipref>
											<mediatype>audio</mediatype>
											<trackindex>5</trackindex>
											<clipindex>2</clipindex>
											<groupindex>1</groupindex>
										</link>
										<link>
											<linkclipref>clipitem-272</linkclipref>
											<mediatype>audio</mediatype>
											<trackindex>6</trackindex>
											<clipindex>2</clipindex>
											<groupindex>1</groupindex>
										</link>
										<labels>
											<label2>Forest</label2>
										</labels>
									</clipitem>
									<clipitem id="clipitem-270" premiereChannelType="stereo">
										<masterclipid>masterclip-80</masterclipid>
										<name>Trans 1 </name>
										<enabled>TRUE</enabled>
										<duration>117</duration>
										<rate>
											<timebase>30</timebase>
											<ntsc>TRUE</ntsc>
										</rate>
										<start>5443</start>
										<end>5560</end>
										<in>0</in>
										<out>117</out>
										<pproTicksIn>0</pproTicksIn>
										<pproTicksOut>991653062400</pproTicksOut>
										<sequence id="sequence-4"/>
										<sourcetrack>
											<mediatype>audio</mediatype>
											<trackindex>0</trackindex>
										</sourcetrack>
										<link>
											<linkclipref>clipitem-261</linkclipref>
											<mediatype>video</mediatype>
											<trackindex>4</trackindex>
											<clipindex>3</clipindex>
										</link>
										<link>
											<linkclipref>clipitem-270</linkclipref>
											<mediatype>audio</mediatype>
											<trackindex>5</trackindex>
											<clipindex>3</clipindex>
											<groupindex>1</groupindex>
										</link>
										<link>
											<linkclipref>clipitem-273</linkclipref>
											<mediatype>audio</mediatype>
											<trackindex>6</trackindex>
											<clipindex>3</clipindex>
											<groupindex>1</groupindex>
										</link>
										<labels>
											<label2>Forest</label2>
										</labels>
									</clipitem>
									<enabled>TRUE</enabled>
									<locked>FALSE</locked>
									<outputchannelindex>1</outputchannelindex>
								</track>
								<track TL.SQTrackAudioKeyframeStyle="0" TL.SQTrackShy="0" TL.SQTrackExpandedHeight="15" TL.SQTrackExpanded="0" MZ.TrackTargeted="0" PannerCurrentValue="0.5" PannerIsInverted="true" PannerStartKeyframe="-91445760000000000,0.5,0,0,0,0,0,0" PannerName="Balance" currentExplodedTrackIndex="1" totalExplodedTrackCount="2" premiereTrackType="Stereo">
									<clipitem id="clipitem-271" premiereChannelType="stereo">
										<masterclipid>masterclip-80</masterclipid>
										<name>Trans 1 </name>
										<enabled>TRUE</enabled>
										<duration>117</duration>
										<rate>
											<timebase>30</timebase>
											<ntsc>TRUE</ntsc>
										</rate>
										<start>1927</start>
										<end>2044</end>
										<in>0</in>
										<out>117</out>
										<pproTicksIn>0</pproTicksIn>
										<pproTicksOut>991653062400</pproTicksOut>
										<sequence id="sequence-4"/>
										<sourcetrack>
											<mediatype>audio</mediatype>
											<trackindex>1</trackindex>
										</sourcetrack>
										<link>
											<linkclipref>clipitem-256</linkclipref>
											<mediatype>video</mediatype>
											<trackindex>4</trackindex>
											<clipindex>1</clipindex>
										</link>
										<link>
											<linkclipref>clipitem-268</linkclipref>
											<mediatype>audio</mediatype>
											<trackindex>5</trackindex>
											<clipindex>1</clipindex>
											<groupindex>1</groupindex>
										</link>
										<link>
											<linkclipref>clipitem-271</linkclipref>
											<mediatype>audio</mediatype>
											<trackindex>6</trackindex>
											<clipindex>1</clipindex>
											<groupindex>1</groupindex>
										</link>
										<labels>
											<label2>Forest</label2>
										</labels>
									</clipitem>
									<clipitem id="clipitem-272" premiereChannelType="stereo">
										<masterclipid>masterclip-81</masterclipid>
										<name>trans 2</name>
										<enabled>TRUE</enabled>
										<duration>77</duration>
										<rate>
											<timebase>30</timebase>
											<ntsc>TRUE</ntsc>
										</rate>
										<start>4207</start>
										<end>4284</end>
										<in>0</in>
										<out>77</out>
										<pproTicksIn>0</pproTicksIn>
										<pproTicksOut>652626374400</pproTicksOut>
										<sequence id="sequence-12"/>
										<sourcetrack>
											<mediatype>audio</mediatype>
											<trackindex>1</trackindex>
										</sourcetrack>
										<link>
											<linkclipref>clipitem-257</linkclipref>
											<mediatype>video</mediatype>
											<trackindex>4</trackindex>
											<clipindex>2</clipindex>
										</link>
										<link>
											<linkclipref>clipitem-269</linkclipref>
											<mediatype>audio</mediatype>
											<trackindex>5</trackindex>
											<clipindex>2</clipindex>
											<groupindex>1</groupindex>
										</link>
										<link>
											<linkclipref>clipitem-272</linkclipref>
											<mediatype>audio</mediatype>
											<trackindex>6</trackindex>
											<clipindex>2</clipindex>
											<groupindex>1</groupindex>
										</link>
										<labels>
											<label2>Forest</label2>
										</labels>
									</clipitem>
									<clipitem id="clipitem-273" premiereChannelType="stereo">
										<masterclipid>masterclip-80</masterclipid>
										<name>Trans 1 </name>
										<enabled>TRUE</enabled>
										<duration>117</duration>
										<rate>
											<timebase>30</timebase>
											<ntsc>TRUE</ntsc>
										</rate>
										<start>5443</start>
										<end>5560</end>
										<in>0</in>
										<out>117</out>
										<pproTicksIn>0</pproTicksIn>
										<pproTicksOut>991653062400</pproTicksOut>
										<sequence id="sequence-4"/>
										<sourcetrack>
											<mediatype>audio</mediatype>
											<trackindex>1</trackindex>
										</sourcetrack>
										<link>
											<linkclipref>clipitem-261</linkclipref>
											<mediatype>video</mediatype>
											<trackindex>4</trackindex>
											<clipindex>3</clipindex>
										</link>
										<link>
											<linkclipref>clipitem-270</linkclipref>
											<mediatype>audio</mediatype>
											<trackindex>5</trackindex>
											<clipindex>3</clipindex>
											<groupindex>1</groupindex>
										</link>
										<link>
											<linkclipref>clipitem-273</linkclipref>
											<mediatype>audio</mediatype>
											<trackindex>6</trackindex>
											<clipindex>3</clipindex>
											<groupindex>1</groupindex>
										</link>
										<labels>
											<label2>Forest</label2>
										</labels>
									</clipitem>
									<enabled>TRUE</enabled>
									<locked>FALSE</locked>
									<outputchannelindex>2</outputchannelindex>
								</track>
								<track TL.SQTrackAudioKeyframeStyle="0" TL.SQTrackShy="0" TL.SQTrackExpandedHeight="15" TL.SQTrackExpanded="0" MZ.TrackTargeted="0" PannerCurrentValue="0.5" PannerIsInverted="true" PannerStartKeyframe="-91445760000000000,0.5,0,0,0,0,0,0" PannerName="Balance" currentExplodedTrackIndex="0" totalExplodedTrackCount="2" premiereTrackType="Stereo">
									<enabled>TRUE</enabled>
									<locked>FALSE</locked>
									<outputchannelindex>1</outputchannelindex>
								</track>
								<track TL.SQTrackAudioKeyframeStyle="0" TL.SQTrackShy="0" TL.SQTrackExpandedHeight="15" TL.SQTrackExpanded="0" MZ.TrackTargeted="0" PannerCurrentValue="0.5" PannerIsInverted="true" PannerStartKeyframe="-91445760000000000,0.5,0,0,0,0,0,0" PannerName="Balance" currentExplodedTrackIndex="1" totalExplodedTrackCount="2" premiereTrackType="Stereo">
									<enabled>TRUE</enabled>
									<locked>FALSE</locked>
									<outputchannelindex>2</outputchannelindex>
								</track>
								<track TL.SQTrackAudioKeyframeStyle="0" TL.SQTrackShy="0" TL.SQTrackExpandedHeight="15" TL.SQTrackExpanded="0" MZ.TrackTargeted="0" PannerCurrentValue="0.5" PannerIsInverted="true" PannerStartKeyframe="-91445760000000000,0.5,0,0,0,0,0,0" PannerName="Balance" currentExplodedTrackIndex="0" totalExplodedTrackCount="2" premiereTrackType="Stereo">
									<enabled>TRUE</enabled>
									<locked>FALSE</locked>
									<outputchannelindex>1</outputchannelindex>
								</track>
								<track TL.SQTrackAudioKeyframeStyle="0" TL.SQTrackShy="0" TL.SQTrackExpandedHeight="15" TL.SQTrackExpanded="0" MZ.TrackTargeted="0" PannerCurrentValue="0.5" PannerIsInverted="true" PannerStartKeyframe="-91445760000000000,0.5,0,0,0,0,0,0" PannerName="Balance" currentExplodedTrackIndex="1" totalExplodedTrackCount="2" premiereTrackType="Stereo">
									<enabled>TRUE</enabled>
									<locked>FALSE</locked>
									<outputchannelindex>2</outputchannelindex>
								</track>
								<track TL.SQTrackAudioKeyframeStyle="0" TL.SQTrackShy="0" TL.SQTrackExpandedHeight="15" TL.SQTrackExpanded="0" MZ.TrackTargeted="0" PannerCurrentValue="0.5" PannerIsInverted="true" PannerStartKeyframe="-91445760000000000,0.5,0,0,0,0,0,0" PannerName="Balance" currentExplodedTrackIndex="0" totalExplodedTrackCount="2" premiereTrackType="Stereo">
									<enabled>TRUE</enabled>
									<locked>FALSE</locked>
									<outputchannelindex>1</outputchannelindex>
								</track>
								<track TL.SQTrackAudioKeyframeStyle="0" TL.SQTrackShy="0" TL.SQTrackExpandedHeight="15" TL.SQTrackExpanded="0" MZ.TrackTargeted="0" PannerCurrentValue="0.5" PannerIsInverted="true" PannerStartKeyframe="-91445760000000000,0.5,0,0,0,0,0,0" PannerName="Balance" currentExplodedTrackIndex="1" totalExplodedTrackCount="2" premiereTrackType="Stereo">
									<enabled>TRUE</enabled>
									<locked>FALSE</locked>
									<outputchannelindex>2</outputchannelindex>
								</track>
								<track TL.SQTrackAudioKeyframeStyle="0" TL.SQTrackShy="0" TL.SQTrackExpandedHeight="15" TL.SQTrackExpanded="0" MZ.TrackTargeted="0" PannerCurrentValue="0.5" PannerIsInverted="true" PannerStartKeyframe="-91445760000000000,0.5,0,0,0,0,0,0" PannerName="Balance" currentExplodedTrackIndex="0" totalExplodedTrackCount="2" premiereTrackType="Stereo">
									<enabled>TRUE</enabled>
									<locked>FALSE</locked>
									<outputchannelindex>1</outputchannelindex>
								</track>
								<track TL.SQTrackAudioKeyframeStyle="0" TL.SQTrackShy="0" TL.SQTrackExpandedHeight="15" TL.SQTrackExpanded="0" MZ.TrackTargeted="0" PannerCurrentValue="0.5" PannerIsInverted="true" PannerStartKeyframe="-91445760000000000,0.5,0,0,0,0,0,0" PannerName="Balance" currentExplodedTrackIndex="1" totalExplodedTrackCount="2" premiereTrackType="Stereo">
									<enabled>TRUE</enabled>
									<locked>FALSE</locked>
									<outputchannelindex>2</outputchannelindex>
								</track>
								<track TL.SQTrackAudioKeyframeStyle="0" TL.SQTrackShy="0" TL.SQTrackExpandedHeight="15" TL.SQTrackExpanded="0" MZ.TrackTargeted="0" PannerCurrentValue="0.5" PannerIsInverted="true" PannerStartKeyframe="-91445760000000000,0.5,0,0,0,0,0,0" PannerName="Balance" currentExplodedTrackIndex="0" totalExplodedTrackCount="2" premiereTrackType="Stereo">
									<enabled>TRUE</enabled>
									<locked>FALSE</locked>
									<outputchannelindex>1</outputchannelindex>
								</track>
								<track TL.SQTrackAudioKeyframeStyle="0" TL.SQTrackShy="0" TL.SQTrackExpandedHeight="15" TL.SQTrackExpanded="0" MZ.TrackTargeted="0" PannerCurrentValue="0.5" PannerIsInverted="true" PannerStartKeyframe="-91445760000000000,0.5,0,0,0,0,0,0" PannerName="Balance" currentExplodedTrackIndex="1" totalExplodedTrackCount="2" premiereTrackType="Stereo">
									<enabled>TRUE</enabled>
									<locked>FALSE</locked>
									<outputchannelindex>2</outputchannelindex>
								</track>
								<track TL.SQTrackAudioKeyframeStyle="0" TL.SQTrackShy="0" TL.SQTrackExpandedHeight="25" TL.SQTrackExpanded="0" MZ.TrackTargeted="0" PannerCurrentValue="0.5" PannerIsInverted="true" PannerStartKeyframe="-91445760000000000,0.5,0,0,0,0,0,0" PannerName="Balance" currentExplodedTrackIndex="0" totalExplodedTrackCount="2" premiereTrackType="Stereo">
									<enabled>TRUE</enabled>
									<locked>FALSE</locked>
									<outputchannelindex>1</outputchannelindex>
								</track>
								<track TL.SQTrackAudioKeyframeStyle="0" TL.SQTrackShy="0" TL.SQTrackExpandedHeight="25" TL.SQTrackExpanded="0" MZ.TrackTargeted="0" PannerCurrentValue="0.5" PannerIsInverted="true" PannerStartKeyframe="-91445760000000000,0.5,0,0,0,0,0,0" PannerName="Balance" currentExplodedTrackIndex="1" totalExplodedTrackCount="2" premiereTrackType="Stereo">
									<enabled>TRUE</enabled>
									<locked>FALSE</locked>
									<outputchannelindex>2</outputchannelindex>
								</track>
							</audio>
						</media>
						<timecode>
							<rate>
								<timebase>30</timebase>
								<ntsc>TRUE</ntsc>
							</rate>
							<string>00:00:00:00</string>
							<frame>0</frame>
							<displayformat>NDF</displayformat>
						</timecode>
							<marker>
								<comment></comment>
								<name></name>
								<in>1878</in>
								<out>-1</out>
							</marker>
							<marker>
								<comment></comment>
								<name></name>
								<in>3751</in>
								<out>-1</out>
							</marker>
						<labels>
							<label2>Forest</label2>
						</labels>
						<logginginfo>
							<description></description>
							<scene></scene>
							<shottake></shottake>
							<lognote></lognote>
							<good></good>
							<originalvideofilename></originalvideofilename>
							<originalaudiofilename></originalaudiofilename>
						</logginginfo>
					</sequence>
					<sequence id="sequence-13" TL.SQAudioVisibleBase="0" TL.SQVideoVisibleBase="0" TL.SQVisibleBaseTime="0" TL.SQAVDividerPosition="0.5" TL.SQHideShyTracks="0" TL.SQHeaderWidth="236" TL.SQDataTrackViewControlState="0" Monitor.ProgramZoomOut="704972095027200" Monitor.ProgramZoomIn="0" TL.SQTimePerPixel="0.15575765165440608" AM.TrackVScrollPosition="0" AM.TrackScrollPosition="0" MZ.EditLine="754334380800" MZ.Sequence.PreviewFrameSizeHeight="1080" MZ.Sequence.PreviewFrameSizeWidth="1920" MZ.Sequence.AudioTimeDisplayFormat="200" MZ.Sequence.PreviewRenderingClassID="1297106761" MZ.Sequence.PreviewRenderingPresetCodec="1297107278" MZ.Sequence.PreviewRenderingPresetPath="EncoderPresets/SequencePreview/795454d9-d3c2-429d-9474-923ab13b7018/I-Frame Only MPEG.epr" MZ.Sequence.PreviewUseMaxRenderQuality="false" MZ.Sequence.PreviewUseMaxBitDepth="false" MZ.Sequence.EditingModeGUID="795454d9-d3c2-429d-9474-923ab13b7018" MZ.Sequence.VideoTimeDisplayFormat="103" MZ.WorkOutPoint="54278172748800" MZ.WorkInPoint="0" explodedTracks="true">
						<uuid>c0a365d6-fd72-4577-9088-ffe696a28c81</uuid>
						<duration>5020</duration>
						<rate>
							<timebase>30</timebase>
							<ntsc>TRUE</ntsc>
						</rate>
						<name>ATM_ALPINETV_3418 </name>
						<media>
							<video>
								<format>
									<samplecharacteristics>
										<rate>
											<timebase>30</timebase>
											<ntsc>TRUE</ntsc>
										</rate>
										<codec>
											<name>Apple ProRes 422</name>
											<appspecificdata>
												<appname>Final Cut Pro</appname>
												<appmanufacturer>Apple Inc.</appmanufacturer>
												<appversion>7.0</appversion>
												<data>
													<qtcodec>
														<codecname>Apple ProRes 422</codecname>
														<codectypename>Apple ProRes 422</codectypename>
														<codectypecode>apcn</codectypecode>
														<codecvendorcode>appl</codecvendorcode>
														<spatialquality>1024</spatialquality>
														<temporalquality>0</temporalquality>
														<keyframerate>0</keyframerate>
														<datarate>0</datarate>
													</qtcodec>
												</data>
											</appspecificdata>
										</codec>
										<width>1920</width>
										<height>1080</height>
										<anamorphic>FALSE</anamorphic>
										<pixelaspectratio>square</pixelaspectratio>
										<fielddominance>none</fielddominance>
										<colordepth>24</colordepth>
									</samplecharacteristics>
								</format>
								<track TL.SQTrackShy="0" TL.SQTrackExpandedHeight="25" TL.SQTrackExpanded="0" MZ.TrackTargeted="0">
									<clipitem id="clipitem-274">
										<masterclipid>masterclip-83</masterclipid>
										<name>Animal_paw prints in the snow_1</name>
										<enabled>TRUE</enabled>
										<duration>1242</duration>
										<rate>
											<timebase>30</timebase>
											<ntsc>TRUE</ntsc>
										</rate>
										<start>0</start>
										<end>1242</end>
										<in>0</in>
										<out>1242</out>
										<pproTicksIn>0</pproTicksIn>
										<pproTicksOut>10526778662400</pproTicksOut>
										<sequence id="sequence-14" TL.SQVisibleBaseTime="0" TL.SQTimePerPixel="0.31151530330881511" MZ.Sequence.PreviewFrameSizeHeight="1080" MZ.Sequence.PreviewFrameSizeWidth="1920" MZ.Sequence.AudioTimeDisplayFormat="200" MZ.Sequence.PreviewRenderingPresetCodec="1297107278" MZ.Sequence.PreviewRenderingPresetPath="EncoderPresets/SequencePreview/795454d9-d3c2-429d-9474-923ab13b7018/I-Frame Only MPEG.epr" MZ.Sequence.PreviewUseMaxRenderQuality="false" MZ.Sequence.PreviewUseMaxBitDepth="false" MZ.Sequence.EditingModeGUID="795454d9-d3c2-429d-9474-923ab13b7018" MZ.Sequence.VideoTimeDisplayFormat="103" MZ.WorkOutPoint="10526778662400" MZ.WorkInPoint="0">
											<duration>1242</duration>
											<rate>
												<timebase>30</timebase>
												<ntsc>TRUE</ntsc>
											</rate>
											<name>HAPPY_paw prints in the snow_1</name>
											<media>
												<video>
													<format>
														<samplecharacteristics>
															<rate>
																<timebase>30</timebase>
																<ntsc>TRUE</ntsc>
															</rate>
															<codec>
																<name>Apple ProRes 422</name>
																<appspecificdata>
																	<appname>Final Cut Pro</appname>
																	<appmanufacturer>Apple Inc.</appmanufacturer>
																	<appversion>7.0</appversion>
																	<data>
																		<qtcodec>
																			<codecname>Apple ProRes 422</codecname>
																			<codectypename>Apple ProRes 422</codectypename>
																			<codectypecode>apcn</codectypecode>
																			<codecvendorcode>appl</codecvendorcode>
																			<spatialquality>1024</spatialquality>
																			<temporalquality>0</temporalquality>
																			<keyframerate>0</keyframerate>
																			<datarate>0</datarate>
																		</qtcodec>
																	</data>
																</appspecificdata>
															</codec>
															<width>1920</width>
															<height>1080</height>
															<anamorphic>FALSE</anamorphic>
															<pixelaspectratio>square</pixelaspectratio>
															<fielddominance>none</fielddominance>
															<colordepth>24</colordepth>
														</samplecharacteristics>
													</format>
													<track TL.SQTrackExpandedHeight="25" TL.SQTrackExpanded="0" MZ.TrackTargeted="1">
														<clipitem id="clipitem-275">
															<masterclipid>masterclip-32</masterclipid>
															<name>563331_Trees Forest Snow Falling_By_Animedias_Artlist_HD.mp4</name>
															<enabled>TRUE</enabled>
															<duration>850</duration>
															<rate>
																<timebase>30</timebase>
																<ntsc>TRUE</ntsc>
															</rate>
															<start>0</start>
															<end>37</end>
															<in>0</in>
															<out>37</out>
															<pproTicksIn>0</pproTicksIn>
															<pproTicksOut>313599686400</pproTicksOut>
															<alphatype>none</alphatype>
															<file id="file-32"/>
															<filter>
																<effect>
																	<name>Distort</name>
																	<effectid>deformation</effectid>
																	<effectcategory>motion</effectcategory>
																	<effecttype>motion</effecttype>
																	<mediatype>video</mediatype>
																	<parameter authoringApp="PremierePro">
																		<parameterid>aspect</parameterid>
																		<name>Aspect</name>
																		<valuemin>-10000</valuemin>
																		<valuemax>10000</valuemax>
																		<value>-9.40171</value>
																	</parameter>
																</effect>
															</filter>
															<filter>
																<effect>
																	<name>Basic Motion</name>
																	<effectid>basic</effectid>
																	<effectcategory>motion</effectcategory>
																	<effecttype>motion</effecttype>
																	<mediatype>video</mediatype>
																	<parameter authoringApp="PremierePro">
																		<parameterid>scale</parameterid>
																		<name>Scale</name>
																		<value>109.402</value>
																	</parameter>
																</effect>
															</filter>
															<logginginfo>
																<description></description>
																<scene></scene>
																<shottake></shottake>
																<lognote></lognote>
																<good></good>
																<originalvideofilename></originalvideofilename>
																<originalaudiofilename></originalaudiofilename>
															</logginginfo>
															<colorinfo>
																<lut></lut>
																<lut1></lut1>
																<asc_sop></asc_sop>
																<asc_sat></asc_sat>
																<lut2></lut2>
															</colorinfo>
															<labels>
																<label2>Violet</label2>
															</labels>
														</clipitem>
														<clipitem id="clipitem-276">
															<masterclipid>masterclip-8</masterclipid>
															<name>264640_Dog Jumping Retriever Snowing_By_Orangebox_Pictures_Artlist_HD.mp4</name>
															<enabled>TRUE</enabled>
															<duration>288</duration>
															<rate>
																<timebase>30</timebase>
																<ntsc>TRUE</ntsc>
															</rate>
															<start>37</start>
															<end>80</end>
															<in>0</in>
															<out>43</out>
															<pproTicksIn>0</pproTicksIn>
															<pproTicksOut>364453689600</pproTicksOut>
															<alphatype>none</alphatype>
															<file id="file-8"/>
															<logginginfo>
																<description></description>
																<scene></scene>
																<shottake></shottake>
																<lognote></lognote>
																<good></good>
																<originalvideofilename></originalvideofilename>
																<originalaudiofilename></originalaudiofilename>
															</logginginfo>
															<colorinfo>
																<lut></lut>
																<lut1></lut1>
																<asc_sop></asc_sop>
																<asc_sat></asc_sat>
																<lut2></lut2>
															</colorinfo>
															<labels>
																<label2>Violet</label2>
															</labels>
														</clipitem>
														<clipitem id="clipitem-277">
															<masterclipid>masterclip-7</masterclipid>
															<name>264638_Dog White Snowing Retriever_By_Orangebox_Pictures_Artlist_HD.mp4</name>
															<enabled>TRUE</enabled>
															<duration>315</duration>
															<rate>
																<timebase>30</timebase>
																<ntsc>TRUE</ntsc>
															</rate>
															<start>80</start>
															<end>131</end>
															<in>0</in>
															<out>51</out>
															<pproTicksIn>0</pproTicksIn>
															<pproTicksOut>432259027200</pproTicksOut>
															<alphatype>none</alphatype>
															<file id="file-7"/>
															<logginginfo>
																<description></description>
																<scene></scene>
																<shottake></shottake>
																<lognote></lognote>
																<good></good>
																<originalvideofilename></originalvideofilename>
																<originalaudiofilename></originalaudiofilename>
															</logginginfo>
															<colorinfo>
																<lut></lut>
																<lut1></lut1>
																<asc_sop></asc_sop>
																<asc_sat></asc_sat>
																<lut2></lut2>
															</colorinfo>
															<labels>
																<label2>Violet</label2>
															</labels>
														</clipitem>
														<clipitem id="clipitem-278">
															<masterclipid>masterclip-24</masterclipid>
															<name>539575_Greenland Snow Dog Sledding Sled Dogs_By_Alpha_Visuals_Artlist_HD.mp4</name>
															<enabled>TRUE</enabled>
															<duration>276</duration>
															<rate>
																<timebase>30</timebase>
																<ntsc>TRUE</ntsc>
															</rate>
															<start>131</start>
															<end>169</end>
															<in>24</in>
															<out>62</out>
															<pproTicksIn>203416012800</pproTicksIn>
															<pproTicksOut>525491366400</pproTicksOut>
															<alphatype>none</alphatype>
															<file id="file-24"/>
															<logginginfo>
																<description></description>
																<scene></scene>
																<shottake></shottake>
																<lognote></lognote>
																<good></good>
																<originalvideofilename></originalvideofilename>
																<originalaudiofilename></originalaudiofilename>
															</logginginfo>
															<colorinfo>
																<lut></lut>
																<lut1></lut1>
																<asc_sop></asc_sop>
																<asc_sat></asc_sat>
																<lut2></lut2>
															</colorinfo>
															<labels>
																<label2>Violet</label2>
															</labels>
														</clipitem>
														<clipitem id="clipitem-279">
															<masterclipid>masterclip-22</masterclipid>
															<name>539539_Greenland Snow Dog Sledding Sled Dogs_By_Alpha_Visuals_Artlist_HD.mp4</name>
															<enabled>TRUE</enabled>
															<duration>472</duration>
															<rate>
																<timebase>30</timebase>
																<ntsc>TRUE</ntsc>
															</rate>
															<start>169</start>
															<end>215</end>
															<in>10</in>
															<out>56</out>
															<pproTicksIn>84756672000</pproTicksIn>
															<pproTicksOut>474637363200</pproTicksOut>
															<alphatype>none</alphatype>
															<file id="file-22"/>
															<logginginfo>
																<description></description>
																<scene></scene>
																<shottake></shottake>
																<lognote></lognote>
																<good></good>
																<originalvideofilename></originalvideofilename>
																<originalaudiofilename></originalaudiofilename>
															</logginginfo>
															<colorinfo>
																<lut></lut>
																<lut1></lut1>
																<asc_sop></asc_sop>
																<asc_sat></asc_sat>
																<lut2></lut2>
															</colorinfo>
															<labels>
																<label2>Violet</label2>
															</labels>
														</clipitem>
														<clipitem id="clipitem-280">
															<masterclipid>masterclip-21</masterclipid>
															<name>539526_Greenland Snow Dog Sledding Sled Dogs_By_Alpha_Visuals_Artlist_HD.mp4</name>
															<enabled>TRUE</enabled>
															<duration>206</duration>
															<rate>
																<timebase>30</timebase>
																<ntsc>TRUE</ntsc>
															</rate>
															<start>215</start>
															<end>268</end>
															<in>0</in>
															<out>53</out>
															<pproTicksIn>0</pproTicksIn>
															<pproTicksOut>449210361600</pproTicksOut>
															<alphatype>none</alphatype>
															<file id="file-21"/>
															<logginginfo>
																<description></description>
																<scene></scene>
																<shottake></shottake>
																<lognote></lognote>
																<good></good>
																<originalvideofilename></originalvideofilename>
																<originalaudiofilename></originalaudiofilename>
															</logginginfo>
															<colorinfo>
																<lut></lut>
																<lut1></lut1>
																<asc_sop></asc_sop>
																<asc_sat></asc_sat>
																<lut2></lut2>
															</colorinfo>
															<labels>
																<label2>Violet</label2>
															</labels>
														</clipitem>
														<clipitem id="clipitem-281">
															<masterclipid>masterclip-23</masterclipid>
															<name>539547_Greenland Snow Dog Sledding Sled Dogs_By_Alpha_Visuals_Artlist_HD.mp4</name>
															<enabled>TRUE</enabled>
															<duration>1040</duration>
															<rate>
																<timebase>30</timebase>
																<ntsc>TRUE</ntsc>
															</rate>
															<start>268</start>
															<end>307</end>
															<in>0</in>
															<out>39</out>
															<pproTicksIn>0</pproTicksIn>
															<pproTicksOut>330551020800</pproTicksOut>
															<alphatype>none</alphatype>
															<file id="file-23"/>
															<logginginfo>
																<description></description>
																<scene></scene>
																<shottake></shottake>
																<lognote></lognote>
																<good></good>
																<originalvideofilename></originalvideofilename>
																<originalaudiofilename></originalaudiofilename>
															</logginginfo>
															<colorinfo>
																<lut></lut>
																<lut1></lut1>
																<asc_sop></asc_sop>
																<asc_sat></asc_sat>
																<lut2></lut2>
															</colorinfo>
															<labels>
																<label2>Violet</label2>
															</labels>
														</clipitem>
														<clipitem id="clipitem-282">
															<masterclipid>masterclip-20</masterclipid>
															<name>539508_Greenland Dog Sledding Snow Men_By_Alpha_Visuals_Artlist_HD.mp4</name>
															<enabled>TRUE</enabled>
															<duration>206</duration>
															<rate>
																<timebase>30</timebase>
																<ntsc>TRUE</ntsc>
															</rate>
															<start>307</start>
															<end>347</end>
															<in>19</in>
															<out>59</out>
															<pproTicksIn>161037676800</pproTicksIn>
															<pproTicksOut>500064364800</pproTicksOut>
															<alphatype>none</alphatype>
															<file id="file-20"/>
															<filter>
																<effect>
																	<name>Distort</name>
																	<effectid>deformation</effectid>
																	<effectcategory>motion</effectcategory>
																	<effecttype>motion</effecttype>
																	<mediatype>video</mediatype>
																	<parameter authoringApp="PremierePro">
																		<parameterid>aspect</parameterid>
																		<name>Aspect</name>
																		<valuemin>-10000</valuemin>
																		<valuemax>10000</valuemax>
																		<value>-9.40171</value>
																	</parameter>
																</effect>
															</filter>
															<filter>
																<effect>
																	<name>Basic Motion</name>
																	<effectid>basic</effectid>
																	<effectcategory>motion</effectcategory>
																	<effecttype>motion</effecttype>
																	<mediatype>video</mediatype>
																	<parameter authoringApp="PremierePro">
																		<parameterid>scale</parameterid>
																		<name>Scale</name>
																		<value>109.402</value>
																	</parameter>
																</effect>
															</filter>
															<logginginfo>
																<description></description>
																<scene></scene>
																<shottake></shottake>
																<lognote></lognote>
																<good></good>
																<originalvideofilename></originalvideofilename>
																<originalaudiofilename></originalaudiofilename>
															</logginginfo>
															<colorinfo>
																<lut></lut>
																<lut1></lut1>
																<asc_sop></asc_sop>
																<asc_sat></asc_sat>
																<lut2></lut2>
															</colorinfo>
															<labels>
																<label2>Violet</label2>
															</labels>
														</clipitem>
														<clipitem id="clipitem-283">
															<masterclipid>masterclip-18</masterclipid>
															<name>441783_Dog Snow Terrier Mountains_By_Luca_Amhofer_Artlist_HD.mp4</name>
															<enabled>TRUE</enabled>
															<duration>287</duration>
															<rate>
																<timebase>30</timebase>
																<ntsc>TRUE</ntsc>
															</rate>
															<start>347</start>
															<end>426</end>
															<in>148</in>
															<out>227</out>
															<pproTicksIn>1254398745600</pproTicksIn>
															<pproTicksOut>1923976454400</pproTicksOut>
															<alphatype>none</alphatype>
															<file id="file-18"/>
															<logginginfo>
																<description></description>
																<scene></scene>
																<shottake></shottake>
																<lognote></lognote>
																<good></good>
																<originalvideofilename></originalvideofilename>
																<originalaudiofilename></originalaudiofilename>
															</logginginfo>
															<colorinfo>
																<lut></lut>
																<lut1></lut1>
																<asc_sop></asc_sop>
																<asc_sat></asc_sat>
																<lut2></lut2>
															</colorinfo>
															<labels>
																<label2>Violet</label2>
															</labels>
														</clipitem>
														<clipitem id="clipitem-284">
															<masterclipid>masterclip-13</masterclipid>
															<name>37882_Dog playing in the snow_By_Timothy_McGlinchey_Artlist_HD.mp4</name>
															<enabled>TRUE</enabled>
															<duration>186</duration>
															<rate>
																<timebase>30</timebase>
																<ntsc>TRUE</ntsc>
															</rate>
															<start>426</start>
															<end>503</end>
															<in>55</in>
															<out>132</out>
															<pproTicksIn>466161696000</pproTicksIn>
															<pproTicksOut>1118788070400</pproTicksOut>
															<alphatype>none</alphatype>
															<file id="file-13"/>
															<filter>
																<effect>
																	<name>Basic Motion</name>
																	<effectid>basic</effectid>
																	<effectcategory>motion</effectcategory>
																	<effecttype>motion</effecttype>
																	<mediatype>video</mediatype>
																	<pproBypass>false</pproBypass>
																	<parameter authoringApp="PremierePro">
																		<parameterid>scale</parameterid>
																		<name>Scale</name>
																		<valuemin>0</valuemin>
																		<valuemax>1000</valuemax>
																		<value>117</value>
																	</parameter>
																	<parameter authoringApp="PremierePro">
																		<parameterid>rotation</parameterid>
																		<name>Rotation</name>
																		<valuemin>-8640</valuemin>
																		<valuemax>8640</valuemax>
																		<value>0</value>
																	</parameter>
																	<parameter authoringApp="PremierePro">
																		<parameterid>center</parameterid>
																		<name>Center</name>
																		<value>
																			<horiz>0</horiz>
																			<vert>0</vert>
																		</value>
																	</parameter>
																	<parameter authoringApp="PremierePro">
																		<parameterid>centerOffset</parameterid>
																		<name>Anchor Point</name>
																		<value>
																			<horiz>0</horiz>
																			<vert>0</vert>
																		</value>
																	</parameter>
																	<parameter authoringApp="PremierePro">
																		<parameterid>antiflicker</parameterid>
																		<name>Anti-flicker Filter</name>
																		<valuemin>0.0</valuemin>
																		<valuemax>1.0</valuemax>
																		<value>0</value>
																	</parameter>
																</effect>
															</filter>
															<logginginfo>
																<description></description>
																<scene></scene>
																<shottake></shottake>
																<lognote></lognote>
																<good></good>
																<originalvideofilename></originalvideofilename>
																<originalaudiofilename></originalaudiofilename>
															</logginginfo>
															<colorinfo>
																<lut></lut>
																<lut1></lut1>
																<asc_sop></asc_sop>
																<asc_sat></asc_sat>
																<lut2></lut2>
															</colorinfo>
															<labels>
																<label2>Violet</label2>
															</labels>
														</clipitem>
														<clipitem id="clipitem-285">
															<masterclipid>masterclip-34</masterclipid>
															<name>(The Pollard Family)_It snowed in Texas!!!_rOzNjkJuWU0_YT.mp4</name>
															<enabled>TRUE</enabled>
															<duration>2470</duration>
															<rate>
																<timebase>30</timebase>
																<ntsc>TRUE</ntsc>
															</rate>
															<start>503</start>
															<end>591</end>
															<in>1986</in>
															<out>2074</out>
															<pproTicksIn>16832675059200</pproTicksIn>
															<pproTicksOut>17578533772800</pproTicksOut>
															<alphatype>none</alphatype>
															<file id="file-34"/>
															<logginginfo>
																<description></description>
																<scene></scene>
																<shottake></shottake>
																<lognote>https://www.youtube.com/watch?v=rOzNjkJuWU0</lognote>
																<good></good>
																<originalvideofilename></originalvideofilename>
																<originalaudiofilename></originalaudiofilename>
															</logginginfo>
															<colorinfo>
																<lut></lut>
																<lut1></lut1>
																<asc_sop></asc_sop>
																<asc_sat></asc_sat>
																<lut2></lut2>
															</colorinfo>
															<labels>
																<label2>Iris</label2>
															</labels>
														</clipitem>
														<clipitem id="clipitem-286">
															<masterclipid>masterclip-34</masterclipid>
															<name>(The Pollard Family)_It snowed in Texas!!!_rOzNjkJuWU0_YT.mp4</name>
															<enabled>TRUE</enabled>
															<duration>2470</duration>
															<rate>
																<timebase>30</timebase>
																<ntsc>TRUE</ntsc>
															</rate>
															<start>591</start>
															<end>653</end>
															<in>2130</in>
															<out>2192</out>
															<pproTicksIn>18053171136000</pproTicksIn>
															<pproTicksOut>18578662502400</pproTicksOut>
															<alphatype>none</alphatype>
															<file id="file-34"/>
															<logginginfo>
																<description></description>
																<scene></scene>
																<shottake></shottake>
																<lognote>https://www.youtube.com/watch?v=rOzNjkJuWU0</lognote>
																<good></good>
																<originalvideofilename></originalvideofilename>
																<originalaudiofilename></originalaudiofilename>
															</logginginfo>
															<colorinfo>
																<lut></lut>
																<lut1></lut1>
																<asc_sop></asc_sop>
																<asc_sat></asc_sat>
																<lut2></lut2>
															</colorinfo>
															<labels>
																<label2>Iris</label2>
															</labels>
														</clipitem>
														<clipitem id="clipitem-287">
															<masterclipid>masterclip-4</masterclipid>
															<name>49567_Dog carrying a stick runs through the snow_By_FILMCOVE_Artlist_HD.mp4</name>
															<enabled>TRUE</enabled>
															<duration>702</duration>
															<rate>
																<timebase>30</timebase>
																<ntsc>TRUE</ntsc>
															</rate>
															<start>653</start>
															<end>708</end>
															<in>0</in>
															<out>55</out>
															<pproTicksIn>0</pproTicksIn>
															<pproTicksOut>466161696000</pproTicksOut>
															<alphatype>none</alphatype>
															<file id="file-4"/>
															<logginginfo>
																<description></description>
																<scene></scene>
																<shottake></shottake>
																<lognote></lognote>
																<good></good>
																<originalvideofilename></originalvideofilename>
																<originalaudiofilename></originalaudiofilename>
															</logginginfo>
															<colorinfo>
																<lut></lut>
																<lut1></lut1>
																<asc_sop></asc_sop>
																<asc_sat></asc_sat>
																<lut2></lut2>
															</colorinfo>
															<labels>
																<label2>Iris</label2>
															</labels>
														</clipitem>
														<clipitem id="clipitem-288">
															<masterclipid>masterclip-11</masterclipid>
															<name>674635_Dog Golden Retriever Playing Snow_By_Untold_Creative_Artlist_HD.mp4</name>
															<enabled>TRUE</enabled>
															<duration>762</duration>
															<rate>
																<timebase>30</timebase>
																<ntsc>TRUE</ntsc>
															</rate>
															<start>708</start>
															<end>750</end>
															<in>63</in>
															<out>105</out>
															<pproTicksIn>533967033600</pproTicksIn>
															<pproTicksOut>889945056000</pproTicksOut>
															<alphatype>none</alphatype>
															<file id="file-11"/>
															<filter>
																<effect>
																	<name>Distort</name>
																	<effectid>deformation</effectid>
																	<effectcategory>motion</effectcategory>
																	<effecttype>motion</effecttype>
																	<mediatype>video</mediatype>
																	<parameter authoringApp="PremierePro">
																		<parameterid>aspect</parameterid>
																		<name>Aspect</name>
																		<valuemin>-10000</valuemin>
																		<valuemax>10000</valuemax>
																		<value>-9.40171</value>
																	</parameter>
																</effect>
															</filter>
															<filter>
																<effect>
																	<name>Basic Motion</name>
																	<effectid>basic</effectid>
																	<effectcategory>motion</effectcategory>
																	<effecttype>motion</effecttype>
																	<mediatype>video</mediatype>
																	<parameter authoringApp="PremierePro">
																		<parameterid>scale</parameterid>
																		<name>Scale</name>
																		<value>109.402</value>
																	</parameter>
																</effect>
															</filter>
															<logginginfo>
																<description></description>
																<scene></scene>
																<shottake></shottake>
																<lognote></lognote>
																<good></good>
																<originalvideofilename></originalvideofilename>
																<originalaudiofilename></originalaudiofilename>
															</logginginfo>
															<colorinfo>
																<lut></lut>
																<lut1></lut1>
																<asc_sop></asc_sop>
																<asc_sat></asc_sat>
																<lut2></lut2>
															</colorinfo>
															<labels>
																<label2>Violet</label2>
															</labels>
														</clipitem>
														<clipitem id="clipitem-289">
															<masterclipid>masterclip-19</masterclipid>
															<name>441802_Dog Hut Winter Snow_By_Luca_Amhofer_Artlist_HD.mp4</name>
															<enabled>TRUE</enabled>
															<duration>426</duration>
															<rate>
																<timebase>30</timebase>
																<ntsc>TRUE</ntsc>
															</rate>
															<start>750</start>
															<end>800</end>
															<in>104</in>
															<out>154</out>
															<pproTicksIn>881469388800</pproTicksIn>
															<pproTicksOut>1305252748800</pproTicksOut>
															<alphatype>none</alphatype>
															<file id="file-19"/>
															<logginginfo>
																<description></description>
																<scene></scene>
																<shottake></shottake>
																<lognote></lognote>
																<good></good>
																<originalvideofilename></originalvideofilename>
																<originalaudiofilename></originalaudiofilename>
															</logginginfo>
															<colorinfo>
																<lut></lut>
																<lut1></lut1>
																<asc_sop></asc_sop>
																<asc_sat></asc_sat>
																<lut2></lut2>
															</colorinfo>
															<labels>
																<label2>Violet</label2>
															</labels>
														</clipitem>
														<clipitem id="clipitem-290">
															<masterclipid>masterclip-12</masterclipid>
															<name>(ImadClicks)_First snowfall of my Dogs _ German Shepherd Dogs _ 🐕_QmdSEMMMdrI_YT.mp4</name>
															<enabled>TRUE</enabled>
															<duration>11237</duration>
															<rate>
																<timebase>30</timebase>
																<ntsc>TRUE</ntsc>
															</rate>
															<start>800</start>
															<end>832</end>
															<in>8656</in>
															<out>8688</out>
															<pproTicksIn>73365375283200</pproTicksIn>
															<pproTicksOut>73636596633600</pproTicksOut>
															<alphatype>none</alphatype>
															<file id="file-12"/>
															<filter>
																<effect>
																	<name>Basic Motion</name>
																	<effectid>basic</effectid>
																	<effectcategory>motion</effectcategory>
																	<effecttype>motion</effecttype>
																	<mediatype>video</mediatype>
																	<pproBypass>false</pproBypass>
																	<parameter authoringApp="PremierePro">
																		<parameterid>scale</parameterid>
																		<name>Scale</name>
																		<valuemin>0</valuemin>
																		<valuemax>1000</valuemax>
																		<value>116</value>
																	</parameter>
																	<parameter authoringApp="PremierePro">
																		<parameterid>rotation</parameterid>
																		<name>Rotation</name>
																		<valuemin>-8640</valuemin>
																		<valuemax>8640</valuemax>
																		<value>0</value>
																	</parameter>
																	<parameter authoringApp="PremierePro">
																		<parameterid>center</parameterid>
																		<name>Center</name>
																		<value>
																			<horiz>0</horiz>
																			<vert>0</vert>
																		</value>
																	</parameter>
																	<parameter authoringApp="PremierePro">
																		<parameterid>centerOffset</parameterid>
																		<name>Anchor Point</name>
																		<value>
																			<horiz>0</horiz>
																			<vert>0</vert>
																		</value>
																	</parameter>
																	<parameter authoringApp="PremierePro">
																		<parameterid>antiflicker</parameterid>
																		<name>Anti-flicker Filter</name>
																		<valuemin>0.0</valuemin>
																		<valuemax>1.0</valuemax>
																		<value>0</value>
																	</parameter>
																</effect>
															</filter>
															<logginginfo>
																<description></description>
																<scene></scene>
																<shottake></shottake>
																<lognote>https://www.youtube.com/watch?v=QmdSEMMMdrI</lognote>
																<good></good>
																<originalvideofilename></originalvideofilename>
																<originalaudiofilename></originalaudiofilename>
															</logginginfo>
															<colorinfo>
																<lut></lut>
																<lut1></lut1>
																<asc_sop></asc_sop>
																<asc_sat></asc_sat>
																<lut2></lut2>
															</colorinfo>
															<labels>
																<label2>Iris</label2>
															</labels>
														</clipitem>
														<clipitem id="clipitem-291">
															<masterclipid>masterclip-12</masterclipid>
															<name>(ImadClicks)_First snowfall of my Dogs _ German Shepherd Dogs _ 🐕_QmdSEMMMdrI_YT.mp4</name>
															<enabled>TRUE</enabled>
															<duration>11237</duration>
															<rate>
																<timebase>30</timebase>
																<ntsc>TRUE</ntsc>
															</rate>
															<start>832</start>
															<end>884</end>
															<in>8880</in>
															<out>8932</out>
															<pproTicksIn>75263924736000</pproTicksIn>
															<pproTicksOut>75704659430400</pproTicksOut>
															<alphatype>none</alphatype>
															<file id="file-12"/>
															<filter>
																<effect>
																	<name>Basic Motion</name>
																	<effectid>basic</effectid>
																	<effectcategory>motion</effectcategory>
																	<effecttype>motion</effecttype>
																	<mediatype>video</mediatype>
																	<pproBypass>false</pproBypass>
																	<parameter authoringApp="PremierePro">
																		<parameterid>scale</parameterid>
																		<name>Scale</name>
																		<valuemin>0</valuemin>
																		<valuemax>1000</valuemax>
																		<value>116</value>
																	</parameter>
																	<parameter authoringApp="PremierePro">
																		<parameterid>rotation</parameterid>
																		<name>Rotation</name>
																		<valuemin>-8640</valuemin>
																		<valuemax>8640</valuemax>
																		<value>0</value>
																	</parameter>
																	<parameter authoringApp="PremierePro">
																		<parameterid>center</parameterid>
																		<name>Center</name>
																		<value>
																			<horiz>0</horiz>
																			<vert>0</vert>
																		</value>
																	</parameter>
																	<parameter authoringApp="PremierePro">
																		<parameterid>centerOffset</parameterid>
																		<name>Anchor Point</name>
																		<value>
																			<horiz>0</horiz>
																			<vert>0</vert>
																		</value>
																	</parameter>
																	<parameter authoringApp="PremierePro">
																		<parameterid>antiflicker</parameterid>
																		<name>Anti-flicker Filter</name>
																		<valuemin>0.0</valuemin>
																		<valuemax>1.0</valuemax>
																		<value>0</value>
																	</parameter>
																</effect>
															</filter>
															<logginginfo>
																<description></description>
																<scene></scene>
																<shottake></shottake>
																<lognote>https://www.youtube.com/watch?v=QmdSEMMMdrI</lognote>
																<good></good>
																<originalvideofilename></originalvideofilename>
																<originalaudiofilename></originalaudiofilename>
															</logginginfo>
															<colorinfo>
																<lut></lut>
																<lut1></lut1>
																<asc_sop></asc_sop>
																<asc_sat></asc_sat>
																<lut2></lut2>
															</colorinfo>
															<labels>
																<label2>Iris</label2>
															</labels>
														</clipitem>
														<clipitem id="clipitem-292">
															<masterclipid>masterclip-12</masterclipid>
															<name>(ImadClicks)_First snowfall of my Dogs _ German Shepherd Dogs _ 🐕_QmdSEMMMdrI_YT.mp4</name>
															<enabled>TRUE</enabled>
															<duration>11237</duration>
															<rate>
																<timebase>30</timebase>
																<ntsc>TRUE</ntsc>
															</rate>
															<start>884</start>
															<end>940</end>
															<in>9263</in>
															<out>9319</out>
															<pproTicksIn>78510105273600</pproTicksIn>
															<pproTicksOut>78984742636800</pproTicksOut>
															<alphatype>none</alphatype>
															<file id="file-12"/>
															<filter>
																<effect>
																	<name>Basic Motion</name>
																	<effectid>basic</effectid>
																	<effectcategory>motion</effectcategory>
																	<effecttype>motion</effecttype>
																	<mediatype>video</mediatype>
																	<pproBypass>false</pproBypass>
																	<parameter authoringApp="PremierePro">
																		<parameterid>scale</parameterid>
																		<name>Scale</name>
																		<valuemin>0</valuemin>
																		<valuemax>1000</valuemax>
																		<value>116</value>
																	</parameter>
																	<parameter authoringApp="PremierePro">
																		<parameterid>rotation</parameterid>
																		<name>Rotation</name>
																		<valuemin>-8640</valuemin>
																		<valuemax>8640</valuemax>
																		<value>0</value>
																	</parameter>
																	<parameter authoringApp="PremierePro">
																		<parameterid>center</parameterid>
																		<name>Center</name>
																		<value>
																			<horiz>0</horiz>
																			<vert>0</vert>
																		</value>
																	</parameter>
																	<parameter authoringApp="PremierePro">
																		<parameterid>centerOffset</parameterid>
																		<name>Anchor Point</name>
																		<value>
																			<horiz>0</horiz>
																			<vert>0</vert>
																		</value>
																	</parameter>
																	<parameter authoringApp="PremierePro">
																		<parameterid>antiflicker</parameterid>
																		<name>Anti-flicker Filter</name>
																		<valuemin>0.0</valuemin>
																		<valuemax>1.0</valuemax>
																		<value>0</value>
																	</parameter>
																</effect>
															</filter>
															<logginginfo>
																<description></description>
																<scene></scene>
																<shottake></shottake>
																<lognote>https://www.youtube.com/watch?v=QmdSEMMMdrI</lognote>
																<good></good>
																<originalvideofilename></originalvideofilename>
																<originalaudiofilename></originalaudiofilename>
															</logginginfo>
															<colorinfo>
																<lut></lut>
																<lut1></lut1>
																<asc_sop></asc_sop>
																<asc_sat></asc_sat>
																<lut2></lut2>
															</colorinfo>
															<labels>
																<label2>Iris</label2>
															</labels>
														</clipitem>
														<clipitem id="clipitem-293">
															<masterclipid>masterclip-10</masterclipid>
															<name>387441_Snowing Puppy Dog Snow_By_FILMCOVE_Artlist_HD.mp4</name>
															<enabled>TRUE</enabled>
															<duration>642</duration>
															<rate>
																<timebase>30</timebase>
																<ntsc>TRUE</ntsc>
															</rate>
															<start>940</start>
															<end>975</end>
															<in>0</in>
															<out>35</out>
															<pproTicksIn>0</pproTicksIn>
															<pproTicksOut>296648352000</pproTicksOut>
															<alphatype>none</alphatype>
															<file id="file-10"/>
															<logginginfo>
																<description></description>
																<scene></scene>
																<shottake></shottake>
																<lognote></lognote>
																<good></good>
																<originalvideofilename></originalvideofilename>
																<originalaudiofilename></originalaudiofilename>
															</logginginfo>
															<colorinfo>
																<lut></lut>
																<lut1></lut1>
																<asc_sop></asc_sop>
																<asc_sat></asc_sat>
																<lut2></lut2>
															</colorinfo>
															<labels>
																<label2>Iris</label2>
															</labels>
														</clipitem>
														<clipitem id="clipitem-294">
															<masterclipid>masterclip-9</masterclipid>
															<name>387434_Puppy Dog Chewing Snowing_By_FILMCOVE_Artlist_HD.mp4</name>
															<enabled>TRUE</enabled>
															<duration>390</duration>
															<rate>
																<timebase>30</timebase>
																<ntsc>TRUE</ntsc>
															</rate>
															<start>975</start>
															<end>1011</end>
															<in>0</in>
															<out>36</out>
															<pproTicksIn>0</pproTicksIn>
															<pproTicksOut>305124019200</pproTicksOut>
															<alphatype>none</alphatype>
															<file id="file-9"/>
															<logginginfo>
																<description></description>
																<scene></scene>
																<shottake></shottake>
																<lognote></lognote>
																<good></good>
																<originalvideofilename></originalvideofilename>
																<originalaudiofilename></originalaudiofilename>
															</logginginfo>
															<colorinfo>
																<lut></lut>
																<lut1></lut1>
																<asc_sop></asc_sop>
																<asc_sat></asc_sat>
																<lut2></lut2>
															</colorinfo>
															<labels>
																<label2>Iris</label2>
															</labels>
														</clipitem>
														<clipitem id="clipitem-295">
															<masterclipid>masterclip-6</masterclipid>
															<name>95720_Little girl playing with her dog in the snow _By_Via_Films_Artlist_HD.mp4</name>
															<enabled>TRUE</enabled>
															<duration>541</duration>
															<rate>
																<timebase>30</timebase>
																<ntsc>TRUE</ntsc>
															</rate>
															<start>1011</start>
															<end>1112</end>
															<in>241</in>
															<out>342</out>
															<pproTicksIn>2042635795200</pproTicksIn>
															<pproTicksOut>2898678182400</pproTicksOut>
															<alphatype>none</alphatype>
															<file id="file-6"/>
															<logginginfo>
																<description></description>
																<scene></scene>
																<shottake></shottake>
																<lognote></lognote>
																<good></good>
																<originalvideofilename></originalvideofilename>
																<originalaudiofilename></originalaudiofilename>
															</logginginfo>
															<colorinfo>
																<lut></lut>
																<lut1></lut1>
																<asc_sop></asc_sop>
																<asc_sat></asc_sat>
																<lut2></lut2>
															</colorinfo>
															<labels>
																<label2>Violet</label2>
															</labels>
														</clipitem>
														<clipitem id="clipitem-296">
															<masterclipid>masterclip-5</masterclipid>
															<name>49570_Dog jumps up with ears flapping to catch the snowball _By_FILMCOVE_Artlist_HD 2.mp4</name>
															<enabled>TRUE</enabled>
															<duration>151</duration>
															<rate>
																<timebase>30</timebase>
																<ntsc>TRUE</ntsc>
															</rate>
															<start>1112</start>
															<end>1242</end>
															<in>21</in>
															<out>151</out>
															<pproTicksIn>177989011200</pproTicksIn>
															<pproTicksOut>1279825747200</pproTicksOut>
															<alphatype>none</alphatype>
															<file id="file-5"/>
															<logginginfo>
																<description></description>
																<scene></scene>
																<shottake></shottake>
																<lognote></lognote>
																<good></good>
																<originalvideofilename></originalvideofilename>
																<originalaudiofilename></originalaudiofilename>
															</logginginfo>
															<colorinfo>
																<lut></lut>
																<lut1></lut1>
																<asc_sop></asc_sop>
																<asc_sat></asc_sat>
																<lut2></lut2>
															</colorinfo>
															<labels>
																<label2>Iris</label2>
															</labels>
														</clipitem>
														<enabled>TRUE</enabled>
														<locked>FALSE</locked>
													</track>
													<track>
														<enabled>TRUE</enabled>
														<locked>FALSE</locked>
													</track>
													<track>
														<clipitem id="clipitem-297">
															<masterclipid>masterclip-63</masterclipid>
															<name>1080/AE Attribution.aep Copy 45</name>
															<enabled>TRUE</enabled>
															<duration>5844</duration>
															<rate>
																<timebase>30</timebase>
																<ntsc>TRUE</ntsc>
															</rate>
															<start>503</start>
															<end>653</end>
															<in>1443</in>
															<out>1593</out>
															<pproTicksIn>12230387769600</pproTicksIn>
															<pproTicksOut>13501737849600</pproTicksOut>
															<alphatype>straight</alphatype>
															<file id="file-63"/>
															<logginginfo>
																<description></description>
																<scene></scene>
																<shottake></shottake>
																<lognote></lognote>
																<good></good>
																<originalvideofilename></originalvideofilename>
																<originalaudiofilename></originalaudiofilename>
															</logginginfo>
															<colorinfo>
																<lut></lut>
																<lut1></lut1>
																<asc_sop></asc_sop>
																<asc_sat></asc_sat>
																<lut2></lut2>
															</colorinfo>
															<labels>
																<label2>Rose</label2>
															</labels>
														</clipitem>
														<clipitem id="clipitem-298">
															<masterclipid>masterclip-64</masterclipid>
															<name>1080/AE Attribution.aep Copy 46</name>
															<enabled>TRUE</enabled>
															<duration>5844</duration>
															<rate>
																<timebase>30</timebase>
																<ntsc>TRUE</ntsc>
															</rate>
															<start>800</start>
															<end>940</end>
															<in>1443</in>
															<out>1583</out>
															<pproTicksIn>12230387769600</pproTicksIn>
															<pproTicksOut>13416981177600</pproTicksOut>
															<alphatype>straight</alphatype>
															<file id="file-64"/>
															<logginginfo>
																<description></description>
																<scene></scene>
																<shottake></shottake>
																<lognote></lognote>
																<good></good>
																<originalvideofilename></originalvideofilename>
																<originalaudiofilename></originalaudiofilename>
															</logginginfo>
															<colorinfo>
																<lut></lut>
																<lut1></lut1>
																<asc_sop></asc_sop>
																<asc_sat></asc_sat>
																<lut2></lut2>
															</colorinfo>
															<labels>
																<label2>Rose</label2>
															</labels>
														</clipitem>
														<enabled>TRUE</enabled>
														<locked>FALSE</locked>
													</track>
												</video>
												<audio>
													<numOutputChannels>2</numOutputChannels>
													<format>
														<samplecharacteristics>
															<depth>16</depth>
															<samplerate>44100</samplerate>
														</samplecharacteristics>
													</format>
													<outputs>
														<group>
															<index>1</index>
															<numchannels>1</numchannels>
															<downmix>0</downmix>
															<channel>
																<index>1</index>
															</channel>
														</group>
														<group>
															<index>2</index>
															<numchannels>1</numchannels>
															<downmix>0</downmix>
															<channel>
																<index>2</index>
															</channel>
														</group>
													</outputs>
													<track TL.SQTrackExpandedHeight="25" TL.SQTrackExpanded="0" MZ.TrackTargeted="1" PannerCurrentValue="0.5" PannerIsInverted="true" PannerStartKeyframe="-91445760000000000,0.5,0,0,0,0,0,0" PannerName="Balance" currentExplodedTrackIndex="0" totalExplodedTrackCount="2" premiereTrackType="Stereo">
														<transitionitem>
															<start>0</start>
															<end>44</end>
															<pproTicksIn>0</pproTicksIn>
															<pproTicksOut>372929356800</pproTicksOut>
															<alignment>start-black</alignment>
															<cutPointTicks>0</cutPointTicks>
															<rate>
																<timebase>30</timebase>
																<ntsc>TRUE</ntsc>
															</rate>
															<effect>
																<name>Cross Fade (+3dB)</name>
																<effectid>KGAudioTransCrossFade3dB</effectid>
																<effecttype>transition</effecttype>
																<mediatype>audio</mediatype>
																<wipecode>0</wipecode>
																<wipeaccuracy>100</wipeaccuracy>
																<startratio>0</startratio>
																<endratio>1</endratio>
																<reverse>FALSE</reverse>
															</effect>
														</transitionitem>
														<clipitem id="clipitem-299" premiereChannelType="stereo">
															<masterclipid>masterclip-47</masterclipid>
															<name>Ben Winwood - The Journey.mp3</name>
															<enabled>TRUE</enabled>
															<duration>5394</duration>
															<rate>
																<timebase>30</timebase>
																<ntsc>TRUE</ntsc>
															</rate>
															<start>-1</start>
															<end>-1</end>
															<in>371</in>
															<out>1613</out>
															<pproTicksIn>3144472531200</pproTicksIn>
															<pproTicksOut>13671251193600</pproTicksOut>
															<file id="file-47"/>
															<sourcetrack>
																<mediatype>audio</mediatype>
																<trackindex>1</trackindex>
															</sourcetrack>
															<filter>
																<effect>
																	<name>Gain</name>
																	<effectid>{61756678, 4761696e, 4b657947}</effectid>
																	<effecttype>filter</effecttype>
																	<mediatype>audio</mediatype>
																	<parameter authoringApp="PremierePro">
																		<parameterid>Gain(dB)</parameterid>
																		<name>Gain(dB)</name>
																		<valuemin>-96</valuemin>
																		<valuemax>96</valuemax>
																		<value>-6</value>
																	</parameter>
																</effect>
															</filter>
															<link>
																<linkclipref>clipitem-299</linkclipref>
																<mediatype>audio</mediatype>
																<trackindex>1</trackindex>
																<clipindex>2</clipindex>
																<groupindex>1</groupindex>
															</link>
															<link>
																<linkclipref>clipitem-300</linkclipref>
																<mediatype>audio</mediatype>
																<trackindex>2</trackindex>
																<clipindex>2</clipindex>
																<groupindex>1</groupindex>
															</link>
															<logginginfo>
																<description></description>
																<scene></scene>
																<shottake></shottake>
																<lognote>All Rights Reserved to www.Art-list.io</lognote>
																<good></good>
																<originalvideofilename></originalvideofilename>
																<originalaudiofilename></originalaudiofilename>
															</logginginfo>
															<colorinfo>
																<lut></lut>
																<lut1></lut1>
																<asc_sop></asc_sop>
																<asc_sat></asc_sat>
																<lut2></lut2>
															</colorinfo>
															<labels>
																<label2>Caribbean</label2>
															</labels>
														</clipitem>
														<transitionitem>
															<start>1089</start>
															<end>1242</end>
															<pproTicksIn>9230001580800</pproTicksIn>
															<pproTicksOut>10526778662400</pproTicksOut>
															<alignment>end-black</alignment>
															<cutPointTicks>1296777081600</cutPointTicks>
															<rate>
																<timebase>30</timebase>
																<ntsc>TRUE</ntsc>
															</rate>
															<effect>
																<name>Cross Fade (+3dB)</name>
																<effectid>KGAudioTransCrossFade3dB</effectid>
																<effecttype>transition</effecttype>
																<mediatype>audio</mediatype>
																<wipecode>0</wipecode>
																<wipeaccuracy>100</wipeaccuracy>
																<startratio>0</startratio>
																<endratio>1</endratio>
																<reverse>FALSE</reverse>
															</effect>
														</transitionitem>
														<enabled>TRUE</enabled>
														<locked>FALSE</locked>
														<outputchannelindex>1</outputchannelindex>
													</track>
													<track TL.SQTrackExpandedHeight="25" TL.SQTrackExpanded="0" MZ.TrackTargeted="1" PannerCurrentValue="0.5" PannerIsInverted="true" PannerStartKeyframe="-91445760000000000,0.5,0,0,0,0,0,0" PannerName="Balance" currentExplodedTrackIndex="1" totalExplodedTrackCount="2" premiereTrackType="Stereo">
														<transitionitem>
															<start>0</start>
															<end>44</end>
															<pproTicksIn>0</pproTicksIn>
															<pproTicksOut>372929356800</pproTicksOut>
															<alignment>start-black</alignment>
															<cutPointTicks>0</cutPointTicks>
															<rate>
																<timebase>30</timebase>
																<ntsc>TRUE</ntsc>
															</rate>
															<effect>
																<name>Cross Fade (+3dB)</name>
																<effectid>KGAudioTransCrossFade3dB</effectid>
																<effecttype>transition</effecttype>
																<mediatype>audio</mediatype>
																<wipecode>0</wipecode>
																<wipeaccuracy>100</wipeaccuracy>
																<startratio>0</startratio>
																<endratio>1</endratio>
																<reverse>FALSE</reverse>
															</effect>
														</transitionitem>
														<clipitem id="clipitem-300" premiereChannelType="stereo">
															<masterclipid>masterclip-47</masterclipid>
															<name>Ben Winwood - The Journey.mp3</name>
															<enabled>TRUE</enabled>
															<duration>5394</duration>
															<rate>
																<timebase>30</timebase>
																<ntsc>TRUE</ntsc>
															</rate>
															<start>-1</start>
															<end>-1</end>
															<in>371</in>
															<out>1613</out>
															<pproTicksIn>3144472531200</pproTicksIn>
															<pproTicksOut>13671251193600</pproTicksOut>
															<file id="file-47"/>
															<sourcetrack>
																<mediatype>audio</mediatype>
																<trackindex>2</trackindex>
															</sourcetrack>
															<filter>
																<effect>
																	<name>Gain</name>
																	<effectid>{61756678, 4761696e, 4b657947}</effectid>
																	<effecttype>filter</effecttype>
																	<mediatype>audio</mediatype>
																	<parameter authoringApp="PremierePro">
																		<parameterid>Gain(dB)</parameterid>
																		<name>Gain(dB)</name>
																		<valuemin>-96</valuemin>
																		<valuemax>96</valuemax>
																		<value>-6</value>
																	</parameter>
																</effect>
															</filter>
															<link>
																<linkclipref>clipitem-299</linkclipref>
																<mediatype>audio</mediatype>
																<trackindex>1</trackindex>
																<clipindex>2</clipindex>
																<groupindex>1</groupindex>
															</link>
															<link>
																<linkclipref>clipitem-300</linkclipref>
																<mediatype>audio</mediatype>
																<trackindex>2</trackindex>
																<clipindex>2</clipindex>
																<groupindex>1</groupindex>
															</link>
															<logginginfo>
																<description></description>
																<scene></scene>
																<shottake></shottake>
																<lognote>All Rights Reserved to www.Art-list.io</lognote>
																<good></good>
																<originalvideofilename></originalvideofilename>
																<originalaudiofilename></originalaudiofilename>
															</logginginfo>
															<colorinfo>
																<lut></lut>
																<lut1></lut1>
																<asc_sop></asc_sop>
																<asc_sat></asc_sat>
																<lut2></lut2>
															</colorinfo>
															<labels>
																<label2>Caribbean</label2>
															</labels>
														</clipitem>
														<transitionitem>
															<start>1089</start>
															<end>1242</end>
															<pproTicksIn>9230001580800</pproTicksIn>
															<pproTicksOut>10526778662400</pproTicksOut>
															<alignment>end-black</alignment>
															<cutPointTicks>1296777081600</cutPointTicks>
															<rate>
																<timebase>30</timebase>
																<ntsc>TRUE</ntsc>
															</rate>
															<effect>
																<name>Cross Fade (+3dB)</name>
																<effectid>KGAudioTransCrossFade3dB</effectid>
																<effecttype>transition</effecttype>
																<mediatype>audio</mediatype>
																<wipecode>0</wipecode>
																<wipeaccuracy>100</wipeaccuracy>
																<startratio>0</startratio>
																<endratio>1</endratio>
																<reverse>FALSE</reverse>
															</effect>
														</transitionitem>
														<enabled>TRUE</enabled>
														<locked>FALSE</locked>
														<outputchannelindex>2</outputchannelindex>
													</track>
												</audio>
											</media>
											<timecode>
												<rate>
													<timebase>30</timebase>
													<ntsc>TRUE</ntsc>
												</rate>
												<string>00:00:00:00</string>
												<frame>0</frame>
												<displayformat>NDF</displayformat>
											</timecode>
											<logginginfo>
												<description></description>
												<scene></scene>
												<shottake></shottake>
												<lognote></lognote>
												<good></good>
												<originalvideofilename></originalvideofilename>
												<originalaudiofilename></originalaudiofilename>
											</logginginfo>
										</sequence>
										<link>
											<linkclipref>clipitem-274</linkclipref>
											<mediatype>video</mediatype>
											<trackindex>1</trackindex>
											<clipindex>1</clipindex>
										</link>
										<link>
											<linkclipref>clipitem-365</linkclipref>
											<mediatype>audio</mediatype>
											<trackindex>1</trackindex>
											<clipindex>1</clipindex>
											<groupindex>1</groupindex>
										</link>
										<link>
											<linkclipref>clipitem-369</linkclipref>
											<mediatype>audio</mediatype>
											<trackindex>2</trackindex>
											<clipindex>1</clipindex>
											<groupindex>1</groupindex>
										</link>
										<labels>
											<label2>Forest</label2>
										</labels>
									</clipitem>
									<clipitem id="clipitem-301">
										<masterclipid>masterclip-84</masterclipid>
										<name>DRONE_the vintage tunes of wilderness_1</name>
										<enabled>TRUE</enabled>
										<duration>1613</duration>
										<rate>
											<timebase>30</timebase>
											<ntsc>TRUE</ntsc>
										</rate>
										<start>1295</start>
										<end>2908</end>
										<in>0</in>
										<out>1613</out>
										<pproTicksIn>0</pproTicksIn>
										<pproTicksOut>13671251193600</pproTicksOut>
										<sequence id="sequence-15" TL.SQVisibleBaseTime="0" TL.SQTimePerPixel="0.31151530330881511" MZ.Sequence.PreviewFrameSizeHeight="1080" MZ.Sequence.PreviewFrameSizeWidth="1920" MZ.Sequence.AudioTimeDisplayFormat="200" MZ.Sequence.PreviewRenderingPresetCodec="1297107278" MZ.Sequence.PreviewRenderingPresetPath="EncoderPresets/SequencePreview/795454d9-d3c2-429d-9474-923ab13b7018/I-Frame Only MPEG.epr" MZ.Sequence.PreviewUseMaxRenderQuality="false" MZ.Sequence.PreviewUseMaxBitDepth="false" MZ.Sequence.EditingModeGUID="795454d9-d3c2-429d-9474-923ab13b7018" MZ.Sequence.VideoTimeDisplayFormat="103" MZ.WorkOutPoint="13671251193600" MZ.WorkInPoint="0">
											<duration>1613</duration>
											<rate>
												<timebase>30</timebase>
												<ntsc>TRUE</ntsc>
											</rate>
											<name>DRONE_the vintage tunes of wilderness_1</name>
											<media>
												<video>
													<format>
														<samplecharacteristics>
															<rate>
																<timebase>30</timebase>
																<ntsc>TRUE</ntsc>
															</rate>
															<codec>
																<name>Apple ProRes 422</name>
																<appspecificdata>
																	<appname>Final Cut Pro</appname>
																	<appmanufacturer>Apple Inc.</appmanufacturer>
																	<appversion>7.0</appversion>
																	<data>
																		<qtcodec>
																			<codecname>Apple ProRes 422</codecname>
																			<codectypename>Apple ProRes 422</codectypename>
																			<codectypecode>apcn</codectypecode>
																			<codecvendorcode>appl</codecvendorcode>
																			<spatialquality>1024</spatialquality>
																			<temporalquality>0</temporalquality>
																			<keyframerate>0</keyframerate>
																			<datarate>0</datarate>
																		</qtcodec>
																	</data>
																</appspecificdata>
															</codec>
															<width>1920</width>
															<height>1080</height>
															<anamorphic>FALSE</anamorphic>
															<pixelaspectratio>square</pixelaspectratio>
															<fielddominance>none</fielddominance>
															<colordepth>24</colordepth>
														</samplecharacteristics>
													</format>
													<track TL.SQTrackExpandedHeight="25" TL.SQTrackExpanded="0" MZ.TrackTargeted="1">
														<clipitem id="clipitem-302">
															<masterclipid>masterclip-33</masterclipid>
															<name>568198_Lake Bridge Mountains Scenic_By_Animedias_Artlist_HD.mp4</name>
															<enabled>TRUE</enabled>
															<duration>576</duration>
															<rate>
																<timebase>30</timebase>
																<ntsc>TRUE</ntsc>
															</rate>
															<start>0</start>
															<end>51</end>
															<in>0</in>
															<out>51</out>
															<pproTicksIn>0</pproTicksIn>
															<pproTicksOut>432259027200</pproTicksOut>
															<alphatype>none</alphatype>
															<file id="file-33"/>
															<logginginfo>
																<description></description>
																<scene></scene>
																<shottake></shottake>
																<lognote></lognote>
																<good></good>
																<originalvideofilename></originalvideofilename>
																<originalaudiofilename></originalaudiofilename>
															</logginginfo>
															<colorinfo>
																<lut></lut>
																<lut1></lut1>
																<asc_sop></asc_sop>
																<asc_sat></asc_sat>
																<lut2></lut2>
															</colorinfo>
															<labels>
																<label2>Violet</label2>
															</labels>
														</clipitem>
														<clipitem id="clipitem-303">
															<masterclipid>masterclip-38</masterclipid>
															<name>(Dennis Schmelz)_DJI Avata Camping Trip - The FPV Game Changer Drone_YKXeG9sbFRw_YT.mp4</name>
															<enabled>TRUE</enabled>
															<duration>4645</duration>
															<rate>
																<timebase>30</timebase>
																<ntsc>TRUE</ntsc>
															</rate>
															<start>51</start>
															<end>253</end>
															<in>565</in>
															<out>767</out>
															<pproTicksIn>4788751968000</pproTicksIn>
															<pproTicksOut>6500836742400</pproTicksOut>
															<alphatype>none</alphatype>
															<file id="file-38"/>
															<logginginfo>
																<description></description>
																<scene></scene>
																<shottake></shottake>
																<lognote>https://www.youtube.com/watch?v=YKXeG9sbFRw</lognote>
																<good></good>
																<originalvideofilename></originalvideofilename>
																<originalaudiofilename></originalaudiofilename>
															</logginginfo>
															<colorinfo>
																<lut></lut>
																<lut1></lut1>
																<asc_sop></asc_sop>
																<asc_sat></asc_sat>
																<lut2></lut2>
															</colorinfo>
															<labels>
																<label2>Iris</label2>
															</labels>
														</clipitem>
														<clipitem id="clipitem-304">
															<masterclipid>masterclip-16</masterclipid>
															<name>136137_Man playing music on a guitar  outside_By_Thomas_Gellert_Artlist_HD.mp4</name>
															<enabled>TRUE</enabled>
															<duration>170</duration>
															<rate>
																<timebase>30</timebase>
																<ntsc>TRUE</ntsc>
															</rate>
															<start>253</start>
															<end>286</end>
															<in>0</in>
															<out>33</out>
															<pproTicksIn>0</pproTicksIn>
															<pproTicksOut>279697017600</pproTicksOut>
															<alphatype>none</alphatype>
															<file id="file-16"/>
															<filter>
																<effect>
																	<name>Distort</name>
																	<effectid>deformation</effectid>
																	<effectcategory>motion</effectcategory>
																	<effecttype>motion</effecttype>
																	<mediatype>video</mediatype>
																	<parameter authoringApp="PremierePro">
																		<parameterid>aspect</parameterid>
																		<name>Aspect</name>
																		<valuemin>-10000</valuemin>
																		<valuemax>10000</valuemax>
																		<value>-33.3333</value>
																	</parameter>
																</effect>
															</filter>
															<filter>
																<effect>
																	<name>Basic Motion</name>
																	<effectid>basic</effectid>
																	<effectcategory>motion</effectcategory>
																	<effecttype>motion</effecttype>
																	<mediatype>video</mediatype>
																	<parameter authoringApp="PremierePro">
																		<parameterid>scale</parameterid>
																		<name>Scale</name>
																		<value>133.333</value>
																	</parameter>
																</effect>
															</filter>
															<logginginfo>
																<description></description>
																<scene></scene>
																<shottake></shottake>
																<lognote></lognote>
																<good></good>
																<originalvideofilename></originalvideofilename>
																<originalaudiofilename></originalaudiofilename>
															</logginginfo>
															<colorinfo>
																<lut></lut>
																<lut1></lut1>
																<asc_sop></asc_sop>
																<asc_sat></asc_sat>
																<lut2></lut2>
															</colorinfo>
														</clipitem>
														<clipitem id="clipitem-305">
															<masterclipid>masterclip-17</masterclipid>
															<name>136382_Man walking by trees in a thick forest while carrying a guitar _By_Thomas_Gellert_Artlist_HD.mp4</name>
															<enabled>TRUE</enabled>
															<duration>268</duration>
															<rate>
																<timebase>30</timebase>
																<ntsc>TRUE</ntsc>
															</rate>
															<start>286</start>
															<end>326</end>
															<in>223</in>
															<out>263</out>
															<pproTicksIn>1890073785600</pproTicksIn>
															<pproTicksOut>2229100473600</pproTicksOut>
															<alphatype>none</alphatype>
															<file id="file-17"/>
															<filter>
																<effect>
																	<name>Distort</name>
																	<effectid>deformation</effectid>
																	<effectcategory>motion</effectcategory>
																	<effecttype>motion</effecttype>
																	<mediatype>video</mediatype>
																	<parameter authoringApp="PremierePro">
																		<parameterid>aspect</parameterid>
																		<name>Aspect</name>
																		<valuemin>-10000</valuemin>
																		<valuemax>10000</valuemax>
																		<value>-33.3333</value>
																	</parameter>
																</effect>
															</filter>
															<filter>
																<effect>
																	<name>Basic Motion</name>
																	<effectid>basic</effectid>
																	<effectcategory>motion</effectcategory>
																	<effecttype>motion</effecttype>
																	<mediatype>video</mediatype>
																	<parameter authoringApp="PremierePro">
																		<parameterid>scale</parameterid>
																		<name>Scale</name>
																		<value>133.333</value>
																	</parameter>
																</effect>
															</filter>
															<logginginfo>
																<description></description>
																<scene></scene>
																<shottake></shottake>
																<lognote></lognote>
																<good></good>
																<originalvideofilename></originalvideofilename>
																<originalaudiofilename></originalaudiofilename>
															</logginginfo>
															<colorinfo>
																<lut></lut>
																<lut1></lut1>
																<asc_sop></asc_sop>
																<asc_sat></asc_sat>
																<lut2></lut2>
															</colorinfo>
														</clipitem>
														<clipitem id="clipitem-306">
															<masterclipid>masterclip-38</masterclipid>
															<name>(Dennis Schmelz)_DJI Avata Camping Trip - The FPV Game Changer Drone_YKXeG9sbFRw_YT.mp4</name>
															<enabled>TRUE</enabled>
															<duration>4645</duration>
															<rate>
																<timebase>30</timebase>
																<ntsc>TRUE</ntsc>
															</rate>
															<start>326</start>
															<end>452</end>
															<in>930</in>
															<out>1056</out>
															<pproTicksIn>7882370496000</pproTicksIn>
															<pproTicksOut>8950304563200</pproTicksOut>
															<alphatype>none</alphatype>
															<file id="file-38"/>
															<logginginfo>
																<description></description>
																<scene></scene>
																<shottake></shottake>
																<lognote>https://www.youtube.com/watch?v=YKXeG9sbFRw</lognote>
																<good></good>
																<originalvideofilename></originalvideofilename>
																<originalaudiofilename></originalaudiofilename>
															</logginginfo>
															<colorinfo>
																<lut></lut>
																<lut1></lut1>
																<asc_sop></asc_sop>
																<asc_sat></asc_sat>
																<lut2></lut2>
															</colorinfo>
															<labels>
																<label2>Iris</label2>
															</labels>
														</clipitem>
														<clipitem id="clipitem-307">
															<masterclipid>masterclip-15</masterclipid>
															<name>136111_Sun shining through the trees on a man with a guitar on his back_By_Thomas_Gellert_Artlist_HD.mp4</name>
															<enabled>TRUE</enabled>
															<duration>172</duration>
															<rate>
																<timebase>30</timebase>
																<ntsc>TRUE</ntsc>
															</rate>
															<start>452</start>
															<end>483</end>
															<in>49</in>
															<out>80</out>
															<pproTicksIn>415307692800</pproTicksIn>
															<pproTicksOut>678053376000</pproTicksOut>
															<alphatype>none</alphatype>
															<file id="file-15"/>
															<filter>
																<effect>
																	<name>Distort</name>
																	<effectid>deformation</effectid>
																	<effectcategory>motion</effectcategory>
																	<effecttype>motion</effecttype>
																	<mediatype>video</mediatype>
																	<parameter authoringApp="PremierePro">
																		<parameterid>aspect</parameterid>
																		<name>Aspect</name>
																		<valuemin>-10000</valuemin>
																		<valuemax>10000</valuemax>
																		<value>-33.3333</value>
																	</parameter>
																</effect>
															</filter>
															<filter>
																<effect>
																	<name>Basic Motion</name>
																	<effectid>basic</effectid>
																	<effectcategory>motion</effectcategory>
																	<effecttype>motion</effecttype>
																	<mediatype>video</mediatype>
																	<parameter authoringApp="PremierePro">
																		<parameterid>scale</parameterid>
																		<name>Scale</name>
																		<value>133.333</value>
																	</parameter>
																</effect>
															</filter>
															<logginginfo>
																<description></description>
																<scene></scene>
																<shottake></shottake>
																<lognote></lognote>
																<good></good>
																<originalvideofilename></originalvideofilename>
																<originalaudiofilename></originalaudiofilename>
															</logginginfo>
															<colorinfo>
																<lut></lut>
																<lut1></lut1>
																<asc_sop></asc_sop>
																<asc_sat></asc_sat>
																<lut2></lut2>
															</colorinfo>
														</clipitem>
														<clipitem id="clipitem-308">
															<masterclipid>masterclip-26</masterclipid>
															<name>568706_Flock Starlings Birds Flying_By_David_Alexander_Jervidal_Artlist_HD.mp4</name>
															<enabled>TRUE</enabled>
															<duration>872</duration>
															<rate>
																<timebase>30</timebase>
																<ntsc>TRUE</ntsc>
															</rate>
															<start>483</start>
															<end>526</end>
															<in>0</in>
															<out>43</out>
															<pproTicksIn>0</pproTicksIn>
															<pproTicksOut>364453689600</pproTicksOut>
															<alphatype>none</alphatype>
															<file id="file-26"/>
															<logginginfo>
																<description></description>
																<scene></scene>
																<shottake></shottake>
																<lognote></lognote>
																<good></good>
																<originalvideofilename></originalvideofilename>
																<originalaudiofilename></originalaudiofilename>
															</logginginfo>
															<colorinfo>
																<lut></lut>
																<lut1></lut1>
																<asc_sop></asc_sop>
																<asc_sat></asc_sat>
																<lut2></lut2>
															</colorinfo>
															<labels>
																<label2>Violet</label2>
															</labels>
														</clipitem>
														<clipitem id="clipitem-309">
															<masterclipid>masterclip-25</masterclipid>
															<name>568693_Birds Flock Starlings Flying_By_David_Alexander_Jervidal_Artlist_HD.mp4</name>
															<enabled>TRUE</enabled>
															<duration>589</duration>
															<rate>
																<timebase>30</timebase>
																<ntsc>TRUE</ntsc>
															</rate>
															<start>526</start>
															<end>562</end>
															<in>0</in>
															<out>36</out>
															<pproTicksIn>0</pproTicksIn>
															<pproTicksOut>305124019200</pproTicksOut>
															<alphatype>none</alphatype>
															<file id="file-25"/>
															<logginginfo>
																<description></description>
																<scene></scene>
																<shottake></shottake>
																<lognote></lognote>
																<good></good>
																<originalvideofilename></originalvideofilename>
																<originalaudiofilename></originalaudiofilename>
															</logginginfo>
															<colorinfo>
																<lut></lut>
																<lut1></lut1>
																<asc_sop></asc_sop>
																<asc_sat></asc_sat>
																<lut2></lut2>
															</colorinfo>
															<labels>
																<label2>Violet</label2>
															</labels>
														</clipitem>
														<clipitem id="clipitem-310">
															<masterclipid>masterclip-31</masterclipid>
															<name>503102_Lake Forest Alps Italy_By_ZoneCreative_Artlist_HD.mp4</name>
															<enabled>TRUE</enabled>
															<duration>121</duration>
															<rate>
																<timebase>30</timebase>
																<ntsc>TRUE</ntsc>
															</rate>
															<start>562</start>
															<end>608</end>
															<in>0</in>
															<out>46</out>
															<pproTicksIn>0</pproTicksIn>
															<pproTicksOut>389880691200</pproTicksOut>
															<alphatype>none</alphatype>
															<file id="file-31"/>
															<logginginfo>
																<description></description>
																<scene></scene>
																<shottake></shottake>
																<lognote></lognote>
																<good></good>
																<originalvideofilename></originalvideofilename>
																<originalaudiofilename></originalaudiofilename>
															</logginginfo>
															<colorinfo>
																<lut></lut>
																<lut1></lut1>
																<asc_sop></asc_sop>
																<asc_sat></asc_sat>
																<lut2></lut2>
															</colorinfo>
															<labels>
																<label2>Violet</label2>
															</labels>
														</clipitem>
														<clipitem id="clipitem-311">
															<masterclipid>masterclip-38</masterclipid>
															<name>(Dennis Schmelz)_DJI Avata Camping Trip - The FPV Game Changer Drone_YKXeG9sbFRw_YT.mp4</name>
															<enabled>TRUE</enabled>
															<duration>4645</duration>
															<rate>
																<timebase>30</timebase>
																<ntsc>TRUE</ntsc>
															</rate>
															<start>608</start>
															<end>660</end>
															<in>820</in>
															<out>872</out>
															<pproTicksIn>6950047104000</pproTicksIn>
															<pproTicksOut>7390781798400</pproTicksOut>
															<alphatype>none</alphatype>
															<file id="file-38"/>
															<logginginfo>
																<description></description>
																<scene></scene>
																<shottake></shottake>
																<lognote>https://www.youtube.com/watch?v=YKXeG9sbFRw</lognote>
																<good></good>
																<originalvideofilename></originalvideofilename>
																<originalaudiofilename></originalaudiofilename>
															</logginginfo>
															<colorinfo>
																<lut></lut>
																<lut1></lut1>
																<asc_sop></asc_sop>
																<asc_sat></asc_sat>
																<lut2></lut2>
															</colorinfo>
															<labels>
																<label2>Iris</label2>
															</labels>
														</clipitem>
														<clipitem id="clipitem-312">
															<masterclipid>masterclip-38</masterclipid>
															<name>(Dennis Schmelz)_DJI Avata Camping Trip - The FPV Game Changer Drone_YKXeG9sbFRw_YT.mp4</name>
															<enabled>TRUE</enabled>
															<duration>4645</duration>
															<rate>
																<timebase>30</timebase>
																<ntsc>TRUE</ntsc>
															</rate>
															<start>660</start>
															<end>717</end>
															<in>1311</in>
															<out>1368</out>
															<pproTicksIn>11111599699200</pproTicksIn>
															<pproTicksOut>11594712729600</pproTicksOut>
															<alphatype>none</alphatype>
															<file id="file-38"/>
															<logginginfo>
																<description></description>
																<scene></scene>
																<shottake></shottake>
																<lognote>https://www.youtube.com/watch?v=YKXeG9sbFRw</lognote>
																<good></good>
																<originalvideofilename></originalvideofilename>
																<originalaudiofilename></originalaudiofilename>
															</logginginfo>
															<colorinfo>
																<lut></lut>
																<lut1></lut1>
																<asc_sop></asc_sop>
																<asc_sat></asc_sat>
																<lut2></lut2>
															</colorinfo>
															<labels>
																<label2>Iris</label2>
															</labels>
														</clipitem>
														<clipitem id="clipitem-313">
															<masterclipid>masterclip-38</masterclipid>
															<name>(Dennis Schmelz)_DJI Avata Camping Trip - The FPV Game Changer Drone_YKXeG9sbFRw_YT.mp4</name>
															<enabled>TRUE</enabled>
															<duration>4645</duration>
															<rate>
																<timebase>30</timebase>
																<ntsc>TRUE</ntsc>
															</rate>
															<start>717</start>
															<end>802</end>
															<in>1437</in>
															<out>1522</out>
															<pproTicksIn>12179533766400</pproTicksIn>
															<pproTicksOut>12899965478400</pproTicksOut>
															<alphatype>none</alphatype>
															<file id="file-38"/>
															<logginginfo>
																<description></description>
																<scene></scene>
																<shottake></shottake>
																<lognote>https://www.youtube.com/watch?v=YKXeG9sbFRw</lognote>
																<good></good>
																<originalvideofilename></originalvideofilename>
																<originalaudiofilename></originalaudiofilename>
															</logginginfo>
															<colorinfo>
																<lut></lut>
																<lut1></lut1>
																<asc_sop></asc_sop>
																<asc_sat></asc_sat>
																<lut2></lut2>
															</colorinfo>
															<labels>
																<label2>Iris</label2>
															</labels>
														</clipitem>
														<clipitem id="clipitem-314">
															<masterclipid>masterclip-38</masterclipid>
															<name>(Dennis Schmelz)_DJI Avata Camping Trip - The FPV Game Changer Drone_YKXeG9sbFRw_YT.mp4</name>
															<enabled>TRUE</enabled>
															<duration>4645</duration>
															<rate>
																<timebase>30</timebase>
																<ntsc>TRUE</ntsc>
															</rate>
															<start>802</start>
															<end>879</end>
															<in>1600</in>
															<out>1677</out>
															<pproTicksIn>13561067520000</pproTicksIn>
															<pproTicksOut>14213693894400</pproTicksOut>
															<alphatype>none</alphatype>
															<file id="file-38"/>
															<logginginfo>
																<description></description>
																<scene></scene>
																<shottake></shottake>
																<lognote>https://www.youtube.com/watch?v=YKXeG9sbFRw</lognote>
																<good></good>
																<originalvideofilename></originalvideofilename>
																<originalaudiofilename></originalaudiofilename>
															</logginginfo>
															<colorinfo>
																<lut></lut>
																<lut1></lut1>
																<asc_sop></asc_sop>
																<asc_sat></asc_sat>
																<lut2></lut2>
															</colorinfo>
															<labels>
																<label2>Iris</label2>
															</labels>
														</clipitem>
														<clipitem id="clipitem-315">
															<masterclipid>masterclip-38</masterclipid>
															<name>(Dennis Schmelz)_DJI Avata Camping Trip - The FPV Game Changer Drone_YKXeG9sbFRw_YT.mp4</name>
															<enabled>TRUE</enabled>
															<duration>4645</duration>
															<rate>
																<timebase>30</timebase>
																<ntsc>TRUE</ntsc>
															</rate>
															<start>879</start>
															<end>930</end>
															<in>1745</in>
															<out>1796</out>
															<pproTicksIn>14790039264000</pproTicksIn>
															<pproTicksOut>15222298291200</pproTicksOut>
															<alphatype>none</alphatype>
															<file id="file-38"/>
															<logginginfo>
																<description></description>
																<scene></scene>
																<shottake></shottake>
																<lognote>https://www.youtube.com/watch?v=YKXeG9sbFRw</lognote>
																<good></good>
																<originalvideofilename></originalvideofilename>
																<originalaudiofilename></originalaudiofilename>
															</logginginfo>
															<colorinfo>
																<lut></lut>
																<lut1></lut1>
																<asc_sop></asc_sop>
																<asc_sat></asc_sat>
																<lut2></lut2>
															</colorinfo>
															<labels>
																<label2>Iris</label2>
															</labels>
														</clipitem>
														<clipitem id="clipitem-316">
															<masterclipid>masterclip-38</masterclipid>
															<name>(Dennis Schmelz)_DJI Avata Camping Trip - The FPV Game Changer Drone_YKXeG9sbFRw_YT.mp4</name>
															<enabled>TRUE</enabled>
															<duration>4645</duration>
															<rate>
																<timebase>30</timebase>
																<ntsc>TRUE</ntsc>
															</rate>
															<start>930</start>
															<end>1038</end>
															<in>1945</in>
															<out>2053</out>
															<pproTicksIn>16485172704000</pproTicksIn>
															<pproTicksOut>17400544761600</pproTicksOut>
															<alphatype>none</alphatype>
															<file id="file-38"/>
															<logginginfo>
																<description></description>
																<scene></scene>
																<shottake></shottake>
																<lognote>https://www.youtube.com/watch?v=YKXeG9sbFRw</lognote>
																<good></good>
																<originalvideofilename></originalvideofilename>
																<originalaudiofilename></originalaudiofilename>
															</logginginfo>
															<colorinfo>
																<lut></lut>
																<lut1></lut1>
																<asc_sop></asc_sop>
																<asc_sat></asc_sat>
																<lut2></lut2>
															</colorinfo>
															<labels>
																<label2>Iris</label2>
															</labels>
														</clipitem>
														<clipitem id="clipitem-317">
															<masterclipid>masterclip-38</masterclipid>
															<name>(Dennis Schmelz)_DJI Avata Camping Trip - The FPV Game Changer Drone_YKXeG9sbFRw_YT.mp4</name>
															<enabled>TRUE</enabled>
															<duration>4645</duration>
															<rate>
																<timebase>30</timebase>
																<ntsc>TRUE</ntsc>
															</rate>
															<start>1038</start>
															<end>1347</end>
															<in>2545</in>
															<out>2854</out>
															<pproTicksIn>21570573024000</pproTicksIn>
															<pproTicksOut>24189554188800</pproTicksOut>
															<alphatype>none</alphatype>
															<file id="file-38"/>
															<logginginfo>
																<description></description>
																<scene></scene>
																<shottake></shottake>
																<lognote>https://www.youtube.com/watch?v=YKXeG9sbFRw</lognote>
																<good></good>
																<originalvideofilename></originalvideofilename>
																<originalaudiofilename></originalaudiofilename>
															</logginginfo>
															<colorinfo>
																<lut></lut>
																<lut1></lut1>
																<asc_sop></asc_sop>
																<asc_sat></asc_sat>
																<lut2></lut2>
															</colorinfo>
															<labels>
																<label2>Iris</label2>
															</labels>
														</clipitem>
														<clipitem id="clipitem-318">
															<masterclipid>masterclip-38</masterclipid>
															<name>(Dennis Schmelz)_DJI Avata Camping Trip - The FPV Game Changer Drone_YKXeG9sbFRw_YT.mp4</name>
															<enabled>TRUE</enabled>
															<duration>4645</duration>
															<rate>
																<timebase>30</timebase>
																<ntsc>TRUE</ntsc>
															</rate>
															<start>1347</start>
															<end>1613</end>
															<in>3545</in>
															<out>3811</out>
															<pproTicksIn>30046240224000</pproTicksIn>
															<pproTicksOut>32300767699200</pproTicksOut>
															<alphatype>none</alphatype>
															<file id="file-38"/>
															<logginginfo>
																<description></description>
																<scene></scene>
																<shottake></shottake>
																<lognote>https://www.youtube.com/watch?v=YKXeG9sbFRw</lognote>
																<good></good>
																<originalvideofilename></originalvideofilename>
																<originalaudiofilename></originalaudiofilename>
															</logginginfo>
															<colorinfo>
																<lut></lut>
																<lut1></lut1>
																<asc_sop></asc_sop>
																<asc_sat></asc_sat>
																<lut2></lut2>
															</colorinfo>
															<labels>
																<label2>Iris</label2>
															</labels>
														</clipitem>
														<enabled>TRUE</enabled>
														<locked>FALSE</locked>
													</track>
													<track>
														<enabled>TRUE</enabled>
														<locked>FALSE</locked>
													</track>
													<track>
														<clipitem id="clipitem-319">
															<masterclipid>masterclip-65</masterclipid>
															<name>1080/AE Attribution.aep Copy 47</name>
															<enabled>TRUE</enabled>
															<duration>5844</duration>
															<rate>
																<timebase>30</timebase>
																<ntsc>TRUE</ntsc>
															</rate>
															<start>51</start>
															<end>253</end>
															<in>1494</in>
															<out>1696</out>
															<pproTicksIn>12662646796800</pproTicksIn>
															<pproTicksOut>14374731571200</pproTicksOut>
															<alphatype>straight</alphatype>
															<file id="file-65"/>
															<logginginfo>
																<description></description>
																<scene></scene>
																<shottake></shottake>
																<lognote></lognote>
																<good></good>
																<originalvideofilename></originalvideofilename>
																<originalaudiofilename></originalaudiofilename>
															</logginginfo>
															<colorinfo>
																<lut></lut>
																<lut1></lut1>
																<asc_sop></asc_sop>
																<asc_sat></asc_sat>
																<lut2></lut2>
															</colorinfo>
															<labels>
																<label2>Rose</label2>
															</labels>
														</clipitem>
														<clipitem id="clipitem-320">
															<masterclipid>masterclip-65</masterclipid>
															<name>1080/AE Attribution.aep Copy 47</name>
															<enabled>TRUE</enabled>
															<duration>5844</duration>
															<rate>
																<timebase>30</timebase>
																<ntsc>TRUE</ntsc>
															</rate>
															<start>326</start>
															<end>452</end>
															<in>1769</in>
															<out>1895</out>
															<pproTicksIn>14993455276800</pproTicksIn>
															<pproTicksOut>16061389344000</pproTicksOut>
															<alphatype>straight</alphatype>
															<file id="file-65"/>
															<logginginfo>
																<description></description>
																<scene></scene>
																<shottake></shottake>
																<lognote></lognote>
																<good></good>
																<originalvideofilename></originalvideofilename>
																<originalaudiofilename></originalaudiofilename>
															</logginginfo>
															<colorinfo>
																<lut></lut>
																<lut1></lut1>
																<asc_sop></asc_sop>
																<asc_sat></asc_sat>
																<lut2></lut2>
															</colorinfo>
															<labels>
																<label2>Rose</label2>
															</labels>
														</clipitem>
														<clipitem id="clipitem-321">
															<masterclipid>masterclip-65</masterclipid>
															<name>1080/AE Attribution.aep Copy 47</name>
															<enabled>TRUE</enabled>
															<duration>5844</duration>
															<rate>
																<timebase>30</timebase>
																<ntsc>TRUE</ntsc>
															</rate>
															<start>608</start>
															<end>1613</end>
															<in>2051</in>
															<out>3056</out>
															<pproTicksIn>17383593427200</pproTicksIn>
															<pproTicksOut>25901638963200</pproTicksOut>
															<alphatype>straight</alphatype>
															<file id="file-65"/>
															<logginginfo>
																<description></description>
																<scene></scene>
																<shottake></shottake>
																<lognote></lognote>
																<good></good>
																<originalvideofilename></originalvideofilename>
																<originalaudiofilename></originalaudiofilename>
															</logginginfo>
															<colorinfo>
																<lut></lut>
																<lut1></lut1>
																<asc_sop></asc_sop>
																<asc_sat></asc_sat>
																<lut2></lut2>
															</colorinfo>
															<labels>
																<label2>Rose</label2>
															</labels>
														</clipitem>
														<enabled>TRUE</enabled>
														<locked>FALSE</locked>
													</track>
												</video>
												<audio>
													<numOutputChannels>2</numOutputChannels>
													<format>
														<samplecharacteristics>
															<depth>16</depth>
															<samplerate>44100</samplerate>
														</samplecharacteristics>
													</format>
													<outputs>
														<group>
															<index>1</index>
															<numchannels>1</numchannels>
															<downmix>0</downmix>
															<channel>
																<index>1</index>
															</channel>
														</group>
														<group>
															<index>2</index>
															<numchannels>1</numchannels>
															<downmix>0</downmix>
															<channel>
																<index>2</index>
															</channel>
														</group>
													</outputs>
													<track TL.SQTrackExpandedHeight="25" TL.SQTrackExpanded="0" MZ.TrackTargeted="1" PannerCurrentValue="0.5" PannerIsInverted="true" PannerStartKeyframe="-91445760000000000,0.5,0,0,0,0,0,0" PannerName="Balance" currentExplodedTrackIndex="0" totalExplodedTrackCount="2" premiereTrackType="Stereo">
														<transitionitem>
															<start>0</start>
															<end>30</end>
															<pproTicksIn>0</pproTicksIn>
															<pproTicksOut>254270016000</pproTicksOut>
															<alignment>start-black</alignment>
															<cutPointTicks>0</cutPointTicks>
															<rate>
																<timebase>30</timebase>
																<ntsc>TRUE</ntsc>
															</rate>
															<effect>
																<name>Cross Fade (+3dB)</name>
																<effectid>KGAudioTransCrossFade3dB</effectid>
																<effecttype>transition</effecttype>
																<mediatype>audio</mediatype>
																<wipecode>0</wipecode>
																<wipeaccuracy>100</wipeaccuracy>
																<startratio>0</startratio>
																<endratio>1</endratio>
																<reverse>FALSE</reverse>
															</effect>
														</transitionitem>
														<clipitem id="clipitem-322" premiereChannelType="stereo">
															<masterclipid>masterclip-44</masterclipid>
															<name>ORKAS - On the Road - Instrumental Version.mp3</name>
															<enabled>TRUE</enabled>
															<duration>5119</duration>
															<rate>
																<timebase>30</timebase>
																<ntsc>TRUE</ntsc>
															</rate>
															<start>-1</start>
															<end>-1</end>
															<in>1549</in>
															<out>3162</out>
															<pproTicksIn>13128808492800</pproTicksIn>
															<pproTicksOut>26800059686400</pproTicksOut>
															<file id="file-44"/>
															<sourcetrack>
																<mediatype>audio</mediatype>
																<trackindex>1</trackindex>
															</sourcetrack>
															<filter>
																<effect>
																	<name>Gain</name>
																	<effectid>{61756678, 4761696e, 4b657947}</effectid>
																	<effecttype>filter</effecttype>
																	<mediatype>audio</mediatype>
																	<parameter authoringApp="PremierePro">
																		<parameterid>Gain(dB)</parameterid>
																		<name>Gain(dB)</name>
																		<valuemin>-96</valuemin>
																		<valuemax>96</valuemax>
																		<value>-6</value>
																	</parameter>
																</effect>
															</filter>
															<link>
																<linkclipref>clipitem-322</linkclipref>
																<mediatype>audio</mediatype>
																<trackindex>1</trackindex>
																<clipindex>2</clipindex>
																<groupindex>1</groupindex>
															</link>
															<link>
																<linkclipref>clipitem-323</linkclipref>
																<mediatype>audio</mediatype>
																<trackindex>2</trackindex>
																<clipindex>2</clipindex>
																<groupindex>1</groupindex>
															</link>
															<logginginfo>
																<description></description>
																<scene></scene>
																<shottake></shottake>
																<lognote></lognote>
																<good></good>
																<originalvideofilename></originalvideofilename>
																<originalaudiofilename></originalaudiofilename>
															</logginginfo>
															<colorinfo>
																<lut></lut>
																<lut1></lut1>
																<asc_sop></asc_sop>
																<asc_sat></asc_sat>
																<lut2></lut2>
															</colorinfo>
															<labels>
																<label2>Caribbean</label2>
															</labels>
														</clipitem>
														<transitionitem>
															<start>1420</start>
															<end>1613</end>
															<pproTicksIn>12035447424000</pproTicksIn>
															<pproTicksOut>13671251193600</pproTicksOut>
															<alignment>end-black</alignment>
															<cutPointTicks>1635803769600</cutPointTicks>
															<rate>
																<timebase>30</timebase>
																<ntsc>TRUE</ntsc>
															</rate>
															<effect>
																<name>Cross Fade (+3dB)</name>
																<effectid>KGAudioTransCrossFade3dB</effectid>
																<effecttype>transition</effecttype>
																<mediatype>audio</mediatype>
																<wipecode>0</wipecode>
																<wipeaccuracy>100</wipeaccuracy>
																<startratio>0</startratio>
																<endratio>1</endratio>
																<reverse>FALSE</reverse>
															</effect>
														</transitionitem>
														<enabled>TRUE</enabled>
														<locked>FALSE</locked>
														<outputchannelindex>1</outputchannelindex>
													</track>
													<track TL.SQTrackExpandedHeight="25" TL.SQTrackExpanded="0" MZ.TrackTargeted="1" PannerCurrentValue="0.5" PannerIsInverted="true" PannerStartKeyframe="-91445760000000000,0.5,0,0,0,0,0,0" PannerName="Balance" currentExplodedTrackIndex="1" totalExplodedTrackCount="2" premiereTrackType="Stereo">
														<transitionitem>
															<start>0</start>
															<end>30</end>
															<pproTicksIn>0</pproTicksIn>
															<pproTicksOut>254270016000</pproTicksOut>
															<alignment>start-black</alignment>
															<cutPointTicks>0</cutPointTicks>
															<rate>
																<timebase>30</timebase>
																<ntsc>TRUE</ntsc>
															</rate>
															<effect>
																<name>Cross Fade (+3dB)</name>
																<effectid>KGAudioTransCrossFade3dB</effectid>
																<effecttype>transition</effecttype>
																<mediatype>audio</mediatype>
																<wipecode>0</wipecode>
																<wipeaccuracy>100</wipeaccuracy>
																<startratio>0</startratio>
																<endratio>1</endratio>
																<reverse>FALSE</reverse>
															</effect>
														</transitionitem>
														<clipitem id="clipitem-323" premiereChannelType="stereo">
															<masterclipid>masterclip-44</masterclipid>
															<name>ORKAS - On the Road - Instrumental Version.mp3</name>
															<enabled>TRUE</enabled>
															<duration>5119</duration>
															<rate>
																<timebase>30</timebase>
																<ntsc>TRUE</ntsc>
															</rate>
															<start>-1</start>
															<end>-1</end>
															<in>1549</in>
															<out>3162</out>
															<pproTicksIn>13128808492800</pproTicksIn>
															<pproTicksOut>26800059686400</pproTicksOut>
															<file id="file-44"/>
															<sourcetrack>
																<mediatype>audio</mediatype>
																<trackindex>2</trackindex>
															</sourcetrack>
															<filter>
																<effect>
																	<name>Gain</name>
																	<effectid>{61756678, 4761696e, 4b657947}</effectid>
																	<effecttype>filter</effecttype>
																	<mediatype>audio</mediatype>
																	<parameter authoringApp="PremierePro">
																		<parameterid>Gain(dB)</parameterid>
																		<name>Gain(dB)</name>
																		<valuemin>-96</valuemin>
																		<valuemax>96</valuemax>
																		<value>-6</value>
																	</parameter>
																</effect>
															</filter>
															<link>
																<linkclipref>clipitem-322</linkclipref>
																<mediatype>audio</mediatype>
																<trackindex>1</trackindex>
																<clipindex>2</clipindex>
																<groupindex>1</groupindex>
															</link>
															<link>
																<linkclipref>clipitem-323</linkclipref>
																<mediatype>audio</mediatype>
																<trackindex>2</trackindex>
																<clipindex>2</clipindex>
																<groupindex>1</groupindex>
															</link>
															<logginginfo>
																<description></description>
																<scene></scene>
																<shottake></shottake>
																<lognote></lognote>
																<good></good>
																<originalvideofilename></originalvideofilename>
																<originalaudiofilename></originalaudiofilename>
															</logginginfo>
															<colorinfo>
																<lut></lut>
																<lut1></lut1>
																<asc_sop></asc_sop>
																<asc_sat></asc_sat>
																<lut2></lut2>
															</colorinfo>
															<labels>
																<label2>Caribbean</label2>
															</labels>
														</clipitem>
														<transitionitem>
															<start>1420</start>
															<end>1613</end>
															<pproTicksIn>12035447424000</pproTicksIn>
															<pproTicksOut>13671251193600</pproTicksOut>
															<alignment>end-black</alignment>
															<cutPointTicks>1635803769600</cutPointTicks>
															<rate>
																<timebase>30</timebase>
																<ntsc>TRUE</ntsc>
															</rate>
															<effect>
																<name>Cross Fade (+3dB)</name>
																<effectid>KGAudioTransCrossFade3dB</effectid>
																<effecttype>transition</effecttype>
																<mediatype>audio</mediatype>
																<wipecode>0</wipecode>
																<wipeaccuracy>100</wipeaccuracy>
																<startratio>0</startratio>
																<endratio>1</endratio>
																<reverse>FALSE</reverse>
															</effect>
														</transitionitem>
														<enabled>TRUE</enabled>
														<locked>FALSE</locked>
														<outputchannelindex>2</outputchannelindex>
													</track>
												</audio>
											</media>
											<timecode>
												<rate>
													<timebase>30</timebase>
													<ntsc>TRUE</ntsc>
												</rate>
												<string>00:00:00:00</string>
												<frame>0</frame>
												<displayformat>NDF</displayformat>
											</timecode>
											<logginginfo>
												<description></description>
												<scene></scene>
												<shottake></shottake>
												<lognote></lognote>
												<good></good>
												<originalvideofilename></originalvideofilename>
												<originalaudiofilename></originalaudiofilename>
											</logginginfo>
										</sequence>
										<link>
											<linkclipref>clipitem-301</linkclipref>
											<mediatype>video</mediatype>
											<trackindex>1</trackindex>
											<clipindex>2</clipindex>
										</link>
										<link>
											<linkclipref>clipitem-366</linkclipref>
											<mediatype>audio</mediatype>
											<trackindex>1</trackindex>
											<clipindex>2</clipindex>
											<groupindex>1</groupindex>
										</link>
										<link>
											<linkclipref>clipitem-370</linkclipref>
											<mediatype>audio</mediatype>
											<trackindex>2</trackindex>
											<clipindex>2</clipindex>
											<groupindex>1</groupindex>
										</link>
										<labels>
											<label2>Forest</label2>
										</labels>
									</clipitem>
									<clipitem id="clipitem-324">
										<masterclipid>masterclip-85</masterclipid>
										<name>AWE_american ski idol auditions_1</name>
										<enabled>TRUE</enabled>
										<duration>695</duration>
										<rate>
											<timebase>30</timebase>
											<ntsc>TRUE</ntsc>
										</rate>
										<start>2961</start>
										<end>3656</end>
										<in>0</in>
										<out>695</out>
										<pproTicksIn>0</pproTicksIn>
										<pproTicksOut>5890588704000</pproTicksOut>
										<sequence id="sequence-16" TL.SQAudioVisibleBase="0" TL.SQVideoVisibleBase="0" TL.SQVisibleBaseTime="0" TL.SQAVDividerPosition="0.5" TL.SQHideShyTracks="0" TL.SQHeaderWidth="236" Monitor.ProgramZoomOut="5890588704000" Monitor.ProgramZoomIn="0" TL.SQTimePerPixel="0.31151530330881511" MZ.EditLine="0" MZ.Sequence.PreviewFrameSizeHeight="1080" MZ.Sequence.PreviewFrameSizeWidth="1920" MZ.Sequence.AudioTimeDisplayFormat="200" MZ.Sequence.PreviewRenderingPresetCodec="1297107278" MZ.Sequence.PreviewRenderingPresetPath="EncoderPresets/SequencePreview/795454d9-d3c2-429d-9474-923ab13b7018/I-Frame Only MPEG.epr" MZ.Sequence.PreviewUseMaxRenderQuality="false" MZ.Sequence.PreviewUseMaxBitDepth="false" MZ.Sequence.EditingModeGUID="795454d9-d3c2-429d-9474-923ab13b7018" MZ.Sequence.VideoTimeDisplayFormat="103" MZ.WorkOutPoint="5890588704000" MZ.WorkInPoint="0">
											<duration>695</duration>
											<rate>
												<timebase>30</timebase>
												<ntsc>TRUE</ntsc>
											</rate>
											<name>AWE_American Ski Idol Audtions_1 </name>
											<media>
												<video>
													<format>
														<samplecharacteristics>
															<rate>
																<timebase>30</timebase>
																<ntsc>TRUE</ntsc>
															</rate>
															<codec>
																<name>Apple ProRes 422</name>
																<appspecificdata>
																	<appname>Final Cut Pro</appname>
																	<appmanufacturer>Apple Inc.</appmanufacturer>
																	<appversion>7.0</appversion>
																	<data>
																		<qtcodec>
																			<codecname>Apple ProRes 422</codecname>
																			<codectypename>Apple ProRes 422</codectypename>
																			<codectypecode>apcn</codectypecode>
																			<codecvendorcode>appl</codecvendorcode>
																			<spatialquality>1024</spatialquality>
																			<temporalquality>0</temporalquality>
																			<keyframerate>0</keyframerate>
																			<datarate>0</datarate>
																		</qtcodec>
																	</data>
																</appspecificdata>
															</codec>
															<width>1920</width>
															<height>1080</height>
															<anamorphic>FALSE</anamorphic>
															<pixelaspectratio>square</pixelaspectratio>
															<fielddominance>none</fielddominance>
															<colordepth>24</colordepth>
														</samplecharacteristics>
													</format>
													<track TL.SQTrackShy="0" TL.SQTrackExpandedHeight="25" TL.SQTrackExpanded="0" MZ.TrackTargeted="1">
														<clipitem id="clipitem-325">
															<masterclipid>masterclip-86</masterclipid>
															<name>Nested Sequence 41</name>
															<enabled>TRUE</enabled>
															<duration>789</duration>
															<rate>
																<timebase>30</timebase>
																<ntsc>TRUE</ntsc>
															</rate>
															<start>0</start>
															<end>225</end>
															<in>0</in>
															<out>225</out>
															<pproTicksIn>0</pproTicksIn>
															<pproTicksOut>1907025120000</pproTicksOut>
															<sequence id="sequence-17" TL.SQAudioVisibleBase="0" TL.SQVideoVisibleBase="0" TL.SQVisibleBaseTime="647849286000" TL.SQAVDividerPosition="0.5" TL.SQHideShyTracks="0" TL.SQHeaderWidth="236" Monitor.ProgramZoomOut="6687301420800" Monitor.ProgramZoomIn="0" TL.SQTimePerPixel="0.31151530330882099" MZ.EditLine="0" MZ.Sequence.PreviewFrameSizeHeight="1080" MZ.Sequence.PreviewFrameSizeWidth="1080" MZ.Sequence.AudioTimeDisplayFormat="200" MZ.Sequence.PreviewRenderingClassID="1297106761" MZ.Sequence.PreviewRenderingPresetCodec="1297107278" MZ.Sequence.PreviewRenderingPresetPath="EncoderPresets/SequencePreview/795454d9-d3c2-429d-9474-923ab13b7018/I-Frame Only MPEG.epr" MZ.Sequence.PreviewUseMaxRenderQuality="false" MZ.Sequence.PreviewUseMaxBitDepth="false" MZ.Sequence.EditingModeGUID="795454d9-d3c2-429d-9474-923ab13b7018" MZ.Sequence.VideoTimeDisplayFormat="103" MZ.WorkOutPoint="6687301420800" MZ.WorkInPoint="0">
																<duration>789</duration>
																<rate>
																	<timebase>30</timebase>
																	<ntsc>TRUE</ntsc>
																</rate>
																<name>Nested Sequence 41</name>
																<media>
																	<video>
																		<format>
																			<samplecharacteristics>
																				<rate>
																					<timebase>30</timebase>
																					<ntsc>TRUE</ntsc>
																				</rate>
																				<codec>
																					<name>Apple ProRes 422</name>
																					<appspecificdata>
																						<appname>Final Cut Pro</appname>
																						<appmanufacturer>Apple Inc.</appmanufacturer>
																						<appversion>7.0</appversion>
																						<data>
																							<qtcodec>
																								<codecname>Apple ProRes 422</codecname>
																								<codectypename>Apple ProRes 422</codectypename>
																								<codectypecode>apcn</codectypecode>
																								<codecvendorcode>appl</codecvendorcode>
																								<spatialquality>1024</spatialquality>
																								<temporalquality>0</temporalquality>
																								<keyframerate>0</keyframerate>
																								<datarate>0</datarate>
																							</qtcodec>
																						</data>
																					</appspecificdata>
																				</codec>
																				<width>1080</width>
																				<height>1080</height>
																				<anamorphic>FALSE</anamorphic>
																				<pixelaspectratio>square</pixelaspectratio>
																				<fielddominance>none</fielddominance>
																				<colordepth>24</colordepth>
																			</samplecharacteristics>
																		</format>
																		<track TL.SQTrackShy="0" TL.SQTrackExpandedHeight="25" TL.SQTrackExpanded="0" MZ.TrackTargeted="1">
																			<enabled>TRUE</enabled>
																			<locked>FALSE</locked>
																		</track>
																		<track TL.SQTrackShy="0" TL.SQTrackExpandedHeight="25" TL.SQTrackExpanded="0" MZ.TrackTargeted="0">
																			<clipitem id="clipitem-326">
																				<masterclipid>masterclip-37</masterclipid>
																				<name>(@connortrimble)_CdWupPdPnlN_IG.mp4</name>
																				<enabled>TRUE</enabled>
																				<duration>789</duration>
																				<rate>
																					<timebase>30</timebase>
																					<ntsc>TRUE</ntsc>
																				</rate>
																				<start>0</start>
																				<end>789</end>
																				<in>0</in>
																				<out>789</out>
																				<pproTicksIn>0</pproTicksIn>
																				<pproTicksOut>6687301420800</pproTicksOut>
																				<alphatype>none</alphatype>
																				<file id="file-37"/>
																				<filter>
																					<effect>
																						<name>Basic Motion</name>
																						<effectid>basic</effectid>
																						<effectcategory>motion</effectcategory>
																						<effecttype>motion</effecttype>
																						<mediatype>video</mediatype>
																						<pproBypass>false</pproBypass>
																						<parameter authoringApp="PremierePro">
																							<parameterid>scale</parameterid>
																							<name>Scale</name>
																							<valuemin>0</valuemin>
																							<valuemax>1000</valuemax>
																							<value>152</value>
																						</parameter>
																						<parameter authoringApp="PremierePro">
																							<parameterid>rotation</parameterid>
																							<name>Rotation</name>
																							<valuemin>-8640</valuemin>
																							<valuemax>8640</valuemax>
																							<value>0</value>
																						</parameter>
																						<parameter authoringApp="PremierePro">
																							<parameterid>center</parameterid>
																							<name>Center</name>
																							<value>
																								<horiz>0</horiz>
																								<vert>0</vert>
																							</value>
																						</parameter>
																						<parameter authoringApp="PremierePro">
																							<parameterid>centerOffset</parameterid>
																							<name>Anchor Point</name>
																							<value>
																								<horiz>0</horiz>
																								<vert>0</vert>
																							</value>
																						</parameter>
																						<parameter authoringApp="PremierePro">
																							<parameterid>antiflicker</parameterid>
																							<name>Anti-flicker Filter</name>
																							<valuemin>0.0</valuemin>
																							<valuemax>1.0</valuemax>
																							<value>0</value>
																						</parameter>
																					</effect>
																				</filter>
																				<link>
																					<linkclipref>clipitem-326</linkclipref>
																					<mediatype>video</mediatype>
																					<trackindex>2</trackindex>
																					<clipindex>1</clipindex>
																				</link>
																				<link>
																					<linkclipref>clipitem-327</linkclipref>
																					<mediatype>audio</mediatype>
																					<trackindex>1</trackindex>
																					<clipindex>1</clipindex>
																					<groupindex>1</groupindex>
																				</link>
																				<link>
																					<linkclipref>clipitem-328</linkclipref>
																					<mediatype>audio</mediatype>
																					<trackindex>2</trackindex>
																					<clipindex>1</clipindex>
																					<groupindex>1</groupindex>
																				</link>
																				<logginginfo>
																					<description></description>
																					<scene></scene>
																					<shottake></shottake>
																					<lognote></lognote>
																					<good></good>
																					<originalvideofilename></originalvideofilename>
																					<originalaudiofilename></originalaudiofilename>
																				</logginginfo>
																				<colorinfo>
																					<lut></lut>
																					<lut1></lut1>
																					<asc_sop></asc_sop>
																					<asc_sat></asc_sat>
																					<lut2></lut2>
																				</colorinfo>
																				<labels>
																					<label2>Iris</label2>
																				</labels>
																			</clipitem>
																			<enabled>TRUE</enabled>
																			<locked>FALSE</locked>
																		</track>
																	</video>
																	<audio>
																		<numOutputChannels>2</numOutputChannels>
																		<format>
																			<samplecharacteristics>
																				<depth>16</depth>
																				<samplerate>44100</samplerate>
																			</samplecharacteristics>
																		</format>
																		<outputs>
																			<group>
																				<index>1</index>
																				<numchannels>1</numchannels>
																				<downmix>0</downmix>
																				<channel>
																					<index>1</index>
																				</channel>
																			</group>
																			<group>
																				<index>2</index>
																				<numchannels>1</numchannels>
																				<downmix>0</downmix>
																				<channel>
																					<index>2</index>
																				</channel>
																			</group>
																		</outputs>
																		<track TL.SQTrackAudioKeyframeStyle="0" TL.SQTrackShy="0" TL.SQTrackExpandedHeight="25" TL.SQTrackExpanded="0" MZ.TrackTargeted="1" PannerCurrentValue="0.5" PannerIsInverted="true" PannerStartKeyframe="-91445760000000000,0.5,0,0,0,0,0,0" PannerName="Balance" currentExplodedTrackIndex="0" totalExplodedTrackCount="2" premiereTrackType="Stereo">
																			<clipitem id="clipitem-327" premiereChannelType="stereo">
																				<masterclipid>masterclip-37</masterclipid>
																				<name>(@connortrimble)_CdWupPdPnlN_IG.mp4</name>
																				<enabled>TRUE</enabled>
																				<duration>789</duration>
																				<rate>
																					<timebase>30</timebase>
																					<ntsc>TRUE</ntsc>
																				</rate>
																				<start>0</start>
																				<end>789</end>
																				<in>0</in>
																				<out>789</out>
																				<pproTicksIn>0</pproTicksIn>
																				<pproTicksOut>6687301420800</pproTicksOut>
																				<file id="file-37"/>
																				<sourcetrack>
																					<mediatype>audio</mediatype>
																					<trackindex>1</trackindex>
																				</sourcetrack>
																				<link>
																					<linkclipref>clipitem-326</linkclipref>
																					<mediatype>video</mediatype>
																					<trackindex>2</trackindex>
																					<clipindex>1</clipindex>
																				</link>
																				<link>
																					<linkclipref>clipitem-327</linkclipref>
																					<mediatype>audio</mediatype>
																					<trackindex>1</trackindex>
																					<clipindex>1</clipindex>
																					<groupindex>1</groupindex>
																				</link>
																				<link>
																					<linkclipref>clipitem-328</linkclipref>
																					<mediatype>audio</mediatype>
																					<trackindex>2</trackindex>
																					<clipindex>1</clipindex>
																					<groupindex>1</groupindex>
																				</link>
																				<logginginfo>
																					<description></description>
																					<scene></scene>
																					<shottake></shottake>
																					<lognote></lognote>
																					<good></good>
																					<originalvideofilename></originalvideofilename>
																					<originalaudiofilename></originalaudiofilename>
																				</logginginfo>
																				<colorinfo>
																					<lut></lut>
																					<lut1></lut1>
																					<asc_sop></asc_sop>
																					<asc_sat></asc_sat>
																					<lut2></lut2>
																				</colorinfo>
																				<labels>
																					<label2>Iris</label2>
																				</labels>
																			</clipitem>
																			<enabled>TRUE</enabled>
																			<locked>FALSE</locked>
																			<outputchannelindex>1</outputchannelindex>
																		</track>
																		<track TL.SQTrackAudioKeyframeStyle="0" TL.SQTrackShy="0" TL.SQTrackExpandedHeight="25" TL.SQTrackExpanded="0" MZ.TrackTargeted="1" PannerCurrentValue="0.5" PannerIsInverted="true" PannerStartKeyframe="-91445760000000000,0.5,0,0,0,0,0,0" PannerName="Balance" currentExplodedTrackIndex="1" totalExplodedTrackCount="2" premiereTrackType="Stereo">
																			<clipitem id="clipitem-328" premiereChannelType="stereo">
																				<masterclipid>masterclip-37</masterclipid>
																				<name>(@connortrimble)_CdWupPdPnlN_IG.mp4</name>
																				<enabled>TRUE</enabled>
																				<duration>789</duration>
																				<rate>
																					<timebase>30</timebase>
																					<ntsc>TRUE</ntsc>
																				</rate>
																				<start>0</start>
																				<end>789</end>
																				<in>0</in>
																				<out>789</out>
																				<pproTicksIn>0</pproTicksIn>
																				<pproTicksOut>6687301420800</pproTicksOut>
																				<file id="file-37"/>
																				<sourcetrack>
																					<mediatype>audio</mediatype>
																					<trackindex>2</trackindex>
																				</sourcetrack>
																				<link>
																					<linkclipref>clipitem-326</linkclipref>
																					<mediatype>video</mediatype>
																					<trackindex>2</trackindex>
																					<clipindex>1</clipindex>
																				</link>
																				<link>
																					<linkclipref>clipitem-327</linkclipref>
																					<mediatype>audio</mediatype>
																					<trackindex>1</trackindex>
																					<clipindex>1</clipindex>
																					<groupindex>1</groupindex>
																				</link>
																				<link>
																					<linkclipref>clipitem-328</linkclipref>
																					<mediatype>audio</mediatype>
																					<trackindex>2</trackindex>
																					<clipindex>1</clipindex>
																					<groupindex>1</groupindex>
																				</link>
																				<logginginfo>
																					<description></description>
																					<scene></scene>
																					<shottake></shottake>
																					<lognote></lognote>
																					<good></good>
																					<originalvideofilename></originalvideofilename>
																					<originalaudiofilename></originalaudiofilename>
																				</logginginfo>
																				<colorinfo>
																					<lut></lut>
																					<lut1></lut1>
																					<asc_sop></asc_sop>
																					<asc_sat></asc_sat>
																					<lut2></lut2>
																				</colorinfo>
																				<labels>
																					<label2>Iris</label2>
																				</labels>
																			</clipitem>
																			<enabled>TRUE</enabled>
																			<locked>FALSE</locked>
																			<outputchannelindex>2</outputchannelindex>
																		</track>
																	</audio>
																</media>
																<timecode>
																	<rate>
																		<timebase>30</timebase>
																		<ntsc>TRUE</ntsc>
																	</rate>
																	<string>00:00:00:00</string>
																	<frame>0</frame>
																	<displayformat>NDF</displayformat>
																</timecode>
																<logginginfo>
																	<description></description>
																	<scene></scene>
																	<shottake></shottake>
																	<lognote></lognote>
																	<good></good>
																	<originalvideofilename></originalvideofilename>
																	<originalaudiofilename></originalaudiofilename>
																</logginginfo>
															</sequence>
															<filter>
																<effect>
																	<name>Basic Motion</name>
																	<effectid>basic</effectid>
																	<effectcategory>motion</effectcategory>
																	<effecttype>motion</effecttype>
																	<mediatype>video</mediatype>
																	<pproBypass>false</pproBypass>
																	<parameter authoringApp="PremierePro">
																		<parameterid>scale</parameterid>
																		<name>Scale</name>
																		<valuemin>0</valuemin>
																		<valuemax>1000</valuemax>
																		<value>214</value>
																	</parameter>
																	<parameter authoringApp="PremierePro">
																		<parameterid>rotation</parameterid>
																		<name>Rotation</name>
																		<valuemin>-8640</valuemin>
																		<valuemax>8640</valuemax>
																		<value>0</value>
																	</parameter>
																	<parameter authoringApp="PremierePro">
																		<parameterid>center</parameterid>
																		<name>Center</name>
																		<value>
																			<horiz>-0.5</horiz>
																			<vert>-0.5</vert>
																		</value>
																	</parameter>
																	<parameter authoringApp="PremierePro">
																		<parameterid>centerOffset</parameterid>
																		<name>Anchor Point</name>
																		<value>
																			<horiz>0</horiz>
																			<vert>0</vert>
																		</value>
																	</parameter>
																	<parameter authoringApp="PremierePro">
																		<parameterid>antiflicker</parameterid>
																		<name>Anti-flicker Filter</name>
																		<valuemin>0.0</valuemin>
																		<valuemax>1.0</valuemax>
																		<value>0</value>
																	</parameter>
																</effect>
															</filter>
															<filter>
																<effect>
																	<name>Gaussian Blur</name>
																	<effectid>Gaussian Blur</effectid>
																	<effectcategory>Blur</effectcategory>
																	<effecttype>motion</effecttype>
																	<mediatype>video</mediatype>
																	<pproBypass>false</pproBypass>
																	<parameter authoringApp="PremierePro">
																		<parameterid>radius</parameterid>
																		<name>Radius</name>
																		<valuemin>0</valuemin>
																		<valuemax>100</valuemax>
																		<value>25</value>
																	</parameter>
																</effect>
															</filter>
															<labels>
																<label2>Forest</label2>
															</labels>
														</clipitem>
														<clipitem id="clipitem-329">
															<masterclipid>masterclip-86</masterclipid>
															<name>Nested Sequence 41</name>
															<enabled>TRUE</enabled>
															<duration>789</duration>
															<rate>
																<timebase>30</timebase>
																<ntsc>TRUE</ntsc>
															</rate>
															<start>225</start>
															<end>405</end>
															<in>254</in>
															<out>434</out>
															<pproTicksIn>2152819468800</pproTicksIn>
															<pproTicksOut>3678439564800</pproTicksOut>
															<sequence id="sequence-17"/>
															<filter>
																<effect>
																	<name>Basic Motion</name>
																	<effectid>basic</effectid>
																	<effectcategory>motion</effectcategory>
																	<effecttype>motion</effecttype>
																	<mediatype>video</mediatype>
																	<pproBypass>false</pproBypass>
																	<parameter authoringApp="PremierePro">
																		<parameterid>scale</parameterid>
																		<name>Scale</name>
																		<valuemin>0</valuemin>
																		<valuemax>1000</valuemax>
																		<value>205</value>
																	</parameter>
																	<parameter authoringApp="PremierePro">
																		<parameterid>rotation</parameterid>
																		<name>Rotation</name>
																		<valuemin>-8640</valuemin>
																		<valuemax>8640</valuemax>
																		<value>0</value>
																	</parameter>
																	<parameter authoringApp="PremierePro">
																		<parameterid>center</parameterid>
																		<name>Center</name>
																		<value>
																			<horiz>-0.5</horiz>
																			<vert>-0.5</vert>
																		</value>
																	</parameter>
																	<parameter authoringApp="PremierePro">
																		<parameterid>centerOffset</parameterid>
																		<name>Anchor Point</name>
																		<value>
																			<horiz>0</horiz>
																			<vert>0</vert>
																		</value>
																	</parameter>
																	<parameter authoringApp="PremierePro">
																		<parameterid>antiflicker</parameterid>
																		<name>Anti-flicker Filter</name>
																		<valuemin>0.0</valuemin>
																		<valuemax>1.0</valuemax>
																		<value>0</value>
																	</parameter>
																</effect>
															</filter>
															<filter>
																<effect>
																	<name>Gaussian Blur</name>
																	<effectid>Gaussian Blur</effectid>
																	<effectcategory>Blur</effectcategory>
																	<effecttype>motion</effecttype>
																	<mediatype>video</mediatype>
																	<pproBypass>false</pproBypass>
																	<parameter authoringApp="PremierePro">
																		<parameterid>radius</parameterid>
																		<name>Radius</name>
																		<valuemin>0</valuemin>
																		<valuemax>100</valuemax>
																		<value>25</value>
																	</parameter>
																</effect>
															</filter>
															<labels>
																<label2>Forest</label2>
															</labels>
														</clipitem>
														<clipitem id="clipitem-330">
															<masterclipid>masterclip-86</masterclipid>
															<name>Nested Sequence 41</name>
															<enabled>TRUE</enabled>
															<duration>789</duration>
															<rate>
																<timebase>30</timebase>
																<ntsc>TRUE</ntsc>
															</rate>
															<start>405</start>
															<end>695</end>
															<in>499</in>
															<out>789</out>
															<pproTicksIn>4229357932800</pproTicksIn>
															<pproTicksOut>6687301420800</pproTicksOut>
															<sequence id="sequence-17"/>
															<filter>
																<effect>
																	<name>Basic Motion</name>
																	<effectid>basic</effectid>
																	<effectcategory>motion</effectcategory>
																	<effecttype>motion</effecttype>
																	<mediatype>video</mediatype>
																	<pproBypass>false</pproBypass>
																	<parameter authoringApp="PremierePro">
																		<parameterid>scale</parameterid>
																		<name>Scale</name>
																		<valuemin>0</valuemin>
																		<valuemax>1000</valuemax>
																		<value>205</value>
																	</parameter>
																	<parameter authoringApp="PremierePro">
																		<parameterid>rotation</parameterid>
																		<name>Rotation</name>
																		<valuemin>-8640</valuemin>
																		<valuemax>8640</valuemax>
																		<value>0</value>
																	</parameter>
																	<parameter authoringApp="PremierePro">
																		<parameterid>center</parameterid>
																		<name>Center</name>
																		<value>
																			<horiz>-0.5</horiz>
																			<vert>-0.5</vert>
																		</value>
																	</parameter>
																	<parameter authoringApp="PremierePro">
																		<parameterid>centerOffset</parameterid>
																		<name>Anchor Point</name>
																		<value>
																			<horiz>0</horiz>
																			<vert>0</vert>
																		</value>
																	</parameter>
																	<parameter authoringApp="PremierePro">
																		<parameterid>antiflicker</parameterid>
																		<name>Anti-flicker Filter</name>
																		<valuemin>0.0</valuemin>
																		<valuemax>1.0</valuemax>
																		<value>0</value>
																	</parameter>
																</effect>
															</filter>
															<filter>
																<effect>
																	<name>Gaussian Blur</name>
																	<effectid>Gaussian Blur</effectid>
																	<effectcategory>Blur</effectcategory>
																	<effecttype>motion</effecttype>
																	<mediatype>video</mediatype>
																	<pproBypass>false</pproBypass>
																	<parameter authoringApp="PremierePro">
																		<parameterid>radius</parameterid>
																		<name>Radius</name>
																		<valuemin>0</valuemin>
																		<valuemax>100</valuemax>
																		<value>25</value>
																	</parameter>
																</effect>
															</filter>
															<labels>
																<label2>Forest</label2>
															</labels>
														</clipitem>
														<enabled>TRUE</enabled>
														<locked>FALSE</locked>
													</track>
													<track TL.SQTrackShy="0" TL.SQTrackExpandedHeight="25" TL.SQTrackExpanded="0" MZ.TrackTargeted="0">
														<clipitem id="clipitem-331">
															<masterclipid>masterclip-86</masterclipid>
															<name>Nested Sequence 41</name>
															<enabled>TRUE</enabled>
															<duration>789</duration>
															<rate>
																<timebase>30</timebase>
																<ntsc>TRUE</ntsc>
															</rate>
															<start>0</start>
															<end>225</end>
															<in>0</in>
															<out>225</out>
															<pproTicksIn>0</pproTicksIn>
															<pproTicksOut>1907025120000</pproTicksOut>
															<sequence id="sequence-17"/>
															<labels>
																<label2>Forest</label2>
															</labels>
														</clipitem>
														<clipitem id="clipitem-332">
															<masterclipid>masterclip-86</masterclipid>
															<name>Nested Sequence 41</name>
															<enabled>TRUE</enabled>
															<duration>789</duration>
															<rate>
																<timebase>30</timebase>
																<ntsc>TRUE</ntsc>
															</rate>
															<start>225</start>
															<end>405</end>
															<in>254</in>
															<out>434</out>
															<pproTicksIn>2152819468800</pproTicksIn>
															<pproTicksOut>3678439564800</pproTicksOut>
															<sequence id="sequence-17"/>
															<labels>
																<label2>Forest</label2>
															</labels>
														</clipitem>
														<clipitem id="clipitem-333">
															<masterclipid>masterclip-86</masterclipid>
															<name>Nested Sequence 41</name>
															<enabled>TRUE</enabled>
															<duration>789</duration>
															<rate>
																<timebase>30</timebase>
																<ntsc>TRUE</ntsc>
															</rate>
															<start>405</start>
															<end>695</end>
															<in>499</in>
															<out>789</out>
															<pproTicksIn>4229357932800</pproTicksIn>
															<pproTicksOut>6687301420800</pproTicksOut>
															<sequence id="sequence-17"/>
															<labels>
																<label2>Forest</label2>
															</labels>
														</clipitem>
														<enabled>TRUE</enabled>
														<locked>FALSE</locked>
													</track>
													<track TL.SQTrackShy="0" TL.SQTrackExpandedHeight="25" TL.SQTrackExpanded="0" MZ.TrackTargeted="0">
														<clipitem id="clipitem-334">
															<masterclipid>masterclip-67</masterclipid>
															<name>1080/AE Attribution.aep Copy 49</name>
															<enabled>TRUE</enabled>
															<duration>5844</duration>
															<rate>
																<timebase>30</timebase>
																<ntsc>TRUE</ntsc>
															</rate>
															<start>0</start>
															<end>695</end>
															<in>1443</in>
															<out>2138</out>
															<pproTicksIn>12230387769600</pproTicksIn>
															<pproTicksOut>18120976473600</pproTicksOut>
															<alphatype>straight</alphatype>
															<file id="file-67"/>
															<logginginfo>
																<description></description>
																<scene></scene>
																<shottake></shottake>
																<lognote></lognote>
																<good></good>
																<originalvideofilename></originalvideofilename>
																<originalaudiofilename></originalaudiofilename>
															</logginginfo>
															<colorinfo>
																<lut></lut>
																<lut1></lut1>
																<asc_sop></asc_sop>
																<asc_sat></asc_sat>
																<lut2></lut2>
															</colorinfo>
															<labels>
																<label2>Rose</label2>
															</labels>
														</clipitem>
														<enabled>TRUE</enabled>
														<locked>FALSE</locked>
													</track>
												</video>
												<audio>
													<numOutputChannels>2</numOutputChannels>
													<format>
														<samplecharacteristics>
															<depth>16</depth>
															<samplerate>44100</samplerate>
														</samplecharacteristics>
													</format>
													<outputs>
														<group>
															<index>1</index>
															<numchannels>1</numchannels>
															<downmix>0</downmix>
															<channel>
																<index>1</index>
															</channel>
														</group>
														<group>
															<index>2</index>
															<numchannels>1</numchannels>
															<downmix>0</downmix>
															<channel>
																<index>2</index>
															</channel>
														</group>
													</outputs>
													<track TL.SQTrackAudioKeyframeStyle="0" TL.SQTrackShy="0" TL.SQTrackExpandedHeight="25" TL.SQTrackExpanded="0" MZ.TrackTargeted="1" PannerCurrentValue="0.5" PannerIsInverted="true" PannerStartKeyframe="-91445760000000000,0.5,0,0,0,0,0,0" PannerName="Balance" currentExplodedTrackIndex="0" totalExplodedTrackCount="2" premiereTrackType="Stereo">
														<transitionitem>
															<start>0</start>
															<end>30</end>
															<pproTicksIn>0</pproTicksIn>
															<pproTicksOut>254270016000</pproTicksOut>
															<alignment>start-black</alignment>
															<cutPointTicks>0</cutPointTicks>
															<rate>
																<timebase>30</timebase>
																<ntsc>TRUE</ntsc>
															</rate>
															<effect>
																<name>Cross Fade (+3dB)</name>
																<effectid>KGAudioTransCrossFade3dB</effectid>
																<effecttype>transition</effecttype>
																<mediatype>audio</mediatype>
																<wipecode>0</wipecode>
																<wipeaccuracy>100</wipeaccuracy>
																<startratio>0</startratio>
																<endratio>1</endratio>
																<reverse>FALSE</reverse>
															</effect>
														</transitionitem>
														<clipitem id="clipitem-335" premiereChannelType="stereo">
															<masterclipid>masterclip-41</masterclipid>
															<name>ES_UCT - T-Shirts &amp; Sweats.mp3</name>
															<enabled>TRUE</enabled>
															<duration>5556</duration>
															<rate>
																<timebase>30</timebase>
																<ntsc>TRUE</ntsc>
															</rate>
															<start>-1</start>
															<end>-1</end>
															<in>665</in>
															<out>1360</out>
															<pproTicksIn>5636318688000</pproTicksIn>
															<pproTicksOut>11526907392000</pproTicksOut>
															<file id="file-41"/>
															<sourcetrack>
																<mediatype>audio</mediatype>
																<trackindex>1</trackindex>
															</sourcetrack>
															<filter>
																<effect>
																	<name>Gain</name>
																	<effectid>{61756678, 4761696e, 4b657947}</effectid>
																	<effecttype>filter</effecttype>
																	<mediatype>audio</mediatype>
																	<parameter authoringApp="PremierePro">
																		<parameterid>Gain(dB)</parameterid>
																		<name>Gain(dB)</name>
																		<valuemin>-96</valuemin>
																		<valuemax>96</valuemax>
																		<value>-6</value>
																	</parameter>
																</effect>
															</filter>
																<marker>
																	<comment></comment>
																	<name></name>
																	<in>682</in>
																	<out>-1</out>
																</marker>
																<marker>
																	<comment></comment>
																	<name></name>
																	<in>1424</in>
																	<out>-1</out>
																</marker>
															<link>
																<linkclipref>clipitem-335</linkclipref>
																<mediatype>audio</mediatype>
																<trackindex>1</trackindex>
																<clipindex>2</clipindex>
																<groupindex>1</groupindex>
															</link>
															<link>
																<linkclipref>clipitem-336</linkclipref>
																<mediatype>audio</mediatype>
																<trackindex>2</trackindex>
																<clipindex>2</clipindex>
																<groupindex>1</groupindex>
															</link>
															<logginginfo>
																<description></description>
																<scene></scene>
																<shottake></shottake>
																<lognote></lognote>
																<good></good>
																<originalvideofilename></originalvideofilename>
																<originalaudiofilename></originalaudiofilename>
															</logginginfo>
															<colorinfo>
																<lut></lut>
																<lut1></lut1>
																<asc_sop></asc_sop>
																<asc_sat></asc_sat>
																<lut2></lut2>
															</colorinfo>
															<labels>
																<label2>Caribbean</label2>
															</labels>
														</clipitem>
														<transitionitem>
															<start>569</start>
															<end>695</end>
															<pproTicksIn>4822654636800</pproTicksIn>
															<pproTicksOut>5890588704000</pproTicksOut>
															<alignment>end-black</alignment>
															<cutPointTicks>1067934067200</cutPointTicks>
															<rate>
																<timebase>30</timebase>
																<ntsc>TRUE</ntsc>
															</rate>
															<effect>
																<name>Cross Fade (+3dB)</name>
																<effectid>KGAudioTransCrossFade3dB</effectid>
																<effecttype>transition</effecttype>
																<mediatype>audio</mediatype>
																<wipecode>0</wipecode>
																<wipeaccuracy>100</wipeaccuracy>
																<startratio>0</startratio>
																<endratio>1</endratio>
																<reverse>FALSE</reverse>
															</effect>
														</transitionitem>
														<enabled>TRUE</enabled>
														<locked>FALSE</locked>
														<outputchannelindex>1</outputchannelindex>
													</track>
													<track TL.SQTrackAudioKeyframeStyle="0" TL.SQTrackShy="0" TL.SQTrackExpandedHeight="25" TL.SQTrackExpanded="0" MZ.TrackTargeted="1" PannerCurrentValue="0.5" PannerIsInverted="true" PannerStartKeyframe="-91445760000000000,0.5,0,0,0,0,0,0" PannerName="Balance" currentExplodedTrackIndex="1" totalExplodedTrackCount="2" premiereTrackType="Stereo">
														<transitionitem>
															<start>0</start>
															<end>30</end>
															<pproTicksIn>0</pproTicksIn>
															<pproTicksOut>254270016000</pproTicksOut>
															<alignment>start-black</alignment>
															<cutPointTicks>0</cutPointTicks>
															<rate>
																<timebase>30</timebase>
																<ntsc>TRUE</ntsc>
															</rate>
															<effect>
																<name>Cross Fade (+3dB)</name>
																<effectid>KGAudioTransCrossFade3dB</effectid>
																<effecttype>transition</effecttype>
																<mediatype>audio</mediatype>
																<wipecode>0</wipecode>
																<wipeaccuracy>100</wipeaccuracy>
																<startratio>0</startratio>
																<endratio>1</endratio>
																<reverse>FALSE</reverse>
															</effect>
														</transitionitem>
														<clipitem id="clipitem-336" premiereChannelType="stereo">
															<masterclipid>masterclip-41</masterclipid>
															<name>ES_UCT - T-Shirts &amp; Sweats.mp3</name>
															<enabled>TRUE</enabled>
															<duration>5556</duration>
															<rate>
																<timebase>30</timebase>
																<ntsc>TRUE</ntsc>
															</rate>
															<start>-1</start>
															<end>-1</end>
															<in>665</in>
															<out>1360</out>
															<pproTicksIn>5636318688000</pproTicksIn>
															<pproTicksOut>11526907392000</pproTicksOut>
															<file id="file-41"/>
															<sourcetrack>
																<mediatype>audio</mediatype>
																<trackindex>2</trackindex>
															</sourcetrack>
															<filter>
																<effect>
																	<name>Gain</name>
																	<effectid>{61756678, 4761696e, 4b657947}</effectid>
																	<effecttype>filter</effecttype>
																	<mediatype>audio</mediatype>
																	<parameter authoringApp="PremierePro">
																		<parameterid>Gain(dB)</parameterid>
																		<name>Gain(dB)</name>
																		<valuemin>-96</valuemin>
																		<valuemax>96</valuemax>
																		<value>-6</value>
																	</parameter>
																</effect>
															</filter>
																<marker>
																	<comment></comment>
																	<name></name>
																	<in>682</in>
																	<out>-1</out>
																</marker>
																<marker>
																	<comment></comment>
																	<name></name>
																	<in>1424</in>
																	<out>-1</out>
																</marker>
															<link>
																<linkclipref>clipitem-335</linkclipref>
																<mediatype>audio</mediatype>
																<trackindex>1</trackindex>
																<clipindex>2</clipindex>
																<groupindex>1</groupindex>
															</link>
															<link>
																<linkclipref>clipitem-336</linkclipref>
																<mediatype>audio</mediatype>
																<trackindex>2</trackindex>
																<clipindex>2</clipindex>
																<groupindex>1</groupindex>
															</link>
															<logginginfo>
																<description></description>
																<scene></scene>
																<shottake></shottake>
																<lognote></lognote>
																<good></good>
																<originalvideofilename></originalvideofilename>
																<originalaudiofilename></originalaudiofilename>
															</logginginfo>
															<colorinfo>
																<lut></lut>
																<lut1></lut1>
																<asc_sop></asc_sop>
																<asc_sat></asc_sat>
																<lut2></lut2>
															</colorinfo>
															<labels>
																<label2>Caribbean</label2>
															</labels>
														</clipitem>
														<transitionitem>
															<start>569</start>
															<end>695</end>
															<pproTicksIn>4822654636800</pproTicksIn>
															<pproTicksOut>5890588704000</pproTicksOut>
															<alignment>end-black</alignment>
															<cutPointTicks>1067934067200</cutPointTicks>
															<rate>
																<timebase>30</timebase>
																<ntsc>TRUE</ntsc>
															</rate>
															<effect>
																<name>Cross Fade (+3dB)</name>
																<effectid>KGAudioTransCrossFade3dB</effectid>
																<effecttype>transition</effecttype>
																<mediatype>audio</mediatype>
																<wipecode>0</wipecode>
																<wipeaccuracy>100</wipeaccuracy>
																<startratio>0</startratio>
																<endratio>1</endratio>
																<reverse>FALSE</reverse>
															</effect>
														</transitionitem>
														<enabled>TRUE</enabled>
														<locked>FALSE</locked>
														<outputchannelindex>2</outputchannelindex>
													</track>
												</audio>
											</media>
											<timecode>
												<rate>
													<timebase>30</timebase>
													<ntsc>TRUE</ntsc>
												</rate>
												<string>00:00:00:00</string>
												<frame>0</frame>
												<displayformat>NDF</displayformat>
											</timecode>
											<logginginfo>
												<description></description>
												<scene></scene>
												<shottake></shottake>
												<lognote></lognote>
												<good></good>
												<originalvideofilename></originalvideofilename>
												<originalaudiofilename></originalaudiofilename>
											</logginginfo>
										</sequence>
										<link>
											<linkclipref>clipitem-324</linkclipref>
											<mediatype>video</mediatype>
											<trackindex>1</trackindex>
											<clipindex>3</clipindex>
										</link>
										<link>
											<linkclipref>clipitem-367</linkclipref>
											<mediatype>audio</mediatype>
											<trackindex>1</trackindex>
											<clipindex>3</clipindex>
											<groupindex>1</groupindex>
										</link>
										<link>
											<linkclipref>clipitem-371</linkclipref>
											<mediatype>audio</mediatype>
											<trackindex>2</trackindex>
											<clipindex>3</clipindex>
											<groupindex>1</groupindex>
										</link>
										<labels>
											<label2>Forest</label2>
										</labels>
									</clipitem>
									<clipitem id="clipitem-337">
										<masterclipid>masterclip-87</masterclipid>
										<name>XTR_Kayaking with Dane Jackson. take notes! _1</name>
										<enabled>TRUE</enabled>
										<duration>1323</duration>
										<rate>
											<timebase>30</timebase>
											<ntsc>TRUE</ntsc>
										</rate>
										<start>3697</start>
										<end>5020</end>
										<in>0</in>
										<out>1323</out>
										<pproTicksIn>0</pproTicksIn>
										<pproTicksOut>11213307705600</pproTicksOut>
										<sequence id="sequence-18" TL.SQVisibleBaseTime="0" TL.SQTimePerPixel="0.31151530330881511" MZ.Sequence.PreviewFrameSizeHeight="1080" MZ.Sequence.PreviewFrameSizeWidth="1920" MZ.Sequence.AudioTimeDisplayFormat="200" MZ.Sequence.PreviewRenderingPresetCodec="1297107278" MZ.Sequence.PreviewRenderingPresetPath="EncoderPresets/SequencePreview/795454d9-d3c2-429d-9474-923ab13b7018/I-Frame Only MPEG.epr" MZ.Sequence.PreviewUseMaxRenderQuality="false" MZ.Sequence.PreviewUseMaxBitDepth="false" MZ.Sequence.EditingModeGUID="795454d9-d3c2-429d-9474-923ab13b7018" MZ.Sequence.VideoTimeDisplayFormat="103" MZ.WorkOutPoint="11213307705600" MZ.WorkInPoint="0">
											<duration>1323</duration>
											<rate>
												<timebase>30</timebase>
												<ntsc>TRUE</ntsc>
											</rate>
											<name>XTR_Kayaking with Dane Jackson. take notes! _1</name>
											<media>
												<video>
													<format>
														<samplecharacteristics>
															<rate>
																<timebase>30</timebase>
																<ntsc>TRUE</ntsc>
															</rate>
															<codec>
																<name>Apple ProRes 422</name>
																<appspecificdata>
																	<appname>Final Cut Pro</appname>
																	<appmanufacturer>Apple Inc.</appmanufacturer>
																	<appversion>7.0</appversion>
																	<data>
																		<qtcodec>
																			<codecname>Apple ProRes 422</codecname>
																			<codectypename>Apple ProRes 422</codectypename>
																			<codectypecode>apcn</codectypecode>
																			<codecvendorcode>appl</codecvendorcode>
																			<spatialquality>1024</spatialquality>
																			<temporalquality>0</temporalquality>
																			<keyframerate>0</keyframerate>
																			<datarate>0</datarate>
																		</qtcodec>
																	</data>
																</appspecificdata>
															</codec>
															<width>1920</width>
															<height>1080</height>
															<anamorphic>FALSE</anamorphic>
															<pixelaspectratio>square</pixelaspectratio>
															<fielddominance>none</fielddominance>
															<colordepth>24</colordepth>
														</samplecharacteristics>
													</format>
													<track TL.SQTrackExpandedHeight="25" TL.SQTrackExpanded="0" MZ.TrackTargeted="1">
														<clipitem id="clipitem-338">
															<masterclipid>masterclip-35</masterclipid>
															<name>(Dane Jackson)_DANE JACKSON 2022 HIGHLIGHT REEL_FQCoECFY548_YT.mp4</name>
															<enabled>TRUE</enabled>
															<duration>5129</duration>
															<rate>
																<timebase>30</timebase>
																<ntsc>TRUE</ntsc>
															</rate>
															<start>0</start>
															<end>350</end>
															<in>4477</in>
															<out>4827</out>
															<pproTicksIn>37945562054400</pproTicksIn>
															<pproTicksOut>40912045574400</pproTicksOut>
															<alphatype>none</alphatype>
															<file id="file-35"/>
															<logginginfo>
																<description></description>
																<scene></scene>
																<shottake></shottake>
																<lognote>https://www.youtube.com/watch?v=FQCoECFY548</lognote>
																<good></good>
																<originalvideofilename></originalvideofilename>
																<originalaudiofilename></originalaudiofilename>
															</logginginfo>
															<colorinfo>
																<lut></lut>
																<lut1></lut1>
																<asc_sop></asc_sop>
																<asc_sat></asc_sat>
																<lut2></lut2>
															</colorinfo>
															<labels>
																<label2>Iris</label2>
															</labels>
														</clipitem>
														<clipitem id="clipitem-339">
															<masterclipid>masterclip-35</masterclipid>
															<name>(Dane Jackson)_DANE JACKSON 2022 HIGHLIGHT REEL_FQCoECFY548_YT.mp4</name>
															<enabled>TRUE</enabled>
															<duration>5129</duration>
															<rate>
																<timebase>30</timebase>
																<ntsc>TRUE</ntsc>
															</rate>
															<start>350</start>
															<end>378</end>
															<in>615</in>
															<out>643</out>
															<pproTicksIn>5212535328000</pproTicksIn>
															<pproTicksOut>5449854009600</pproTicksOut>
															<alphatype>none</alphatype>
															<file id="file-35"/>
															<logginginfo>
																<description></description>
																<scene></scene>
																<shottake></shottake>
																<lognote>https://www.youtube.com/watch?v=FQCoECFY548</lognote>
																<good></good>
																<originalvideofilename></originalvideofilename>
																<originalaudiofilename></originalaudiofilename>
															</logginginfo>
															<colorinfo>
																<lut></lut>
																<lut1></lut1>
																<asc_sop></asc_sop>
																<asc_sat></asc_sat>
																<lut2></lut2>
															</colorinfo>
															<labels>
																<label2>Iris</label2>
															</labels>
														</clipitem>
														<clipitem id="clipitem-340">
															<masterclipid>masterclip-35</masterclipid>
															<name>(Dane Jackson)_DANE JACKSON 2022 HIGHLIGHT REEL_FQCoECFY548_YT.mp4</name>
															<enabled>TRUE</enabled>
															<duration>5129</duration>
															<rate>
																<timebase>30</timebase>
																<ntsc>TRUE</ntsc>
															</rate>
															<start>378</start>
															<end>484</end>
															<in>769</in>
															<out>875</out>
															<pproTicksIn>6517788076800</pproTicksIn>
															<pproTicksOut>7416208800000</pproTicksOut>
															<alphatype>none</alphatype>
															<file id="file-35"/>
															<logginginfo>
																<description></description>
																<scene></scene>
																<shottake></shottake>
																<lognote>https://www.youtube.com/watch?v=FQCoECFY548</lognote>
																<good></good>
																<originalvideofilename></originalvideofilename>
																<originalaudiofilename></originalaudiofilename>
															</logginginfo>
															<colorinfo>
																<lut></lut>
																<lut1></lut1>
																<asc_sop></asc_sop>
																<asc_sat></asc_sat>
																<lut2></lut2>
															</colorinfo>
															<labels>
																<label2>Iris</label2>
															</labels>
														</clipitem>
														<clipitem id="clipitem-341">
															<masterclipid>masterclip-35</masterclipid>
															<name>(Dane Jackson)_DANE JACKSON 2022 HIGHLIGHT REEL_FQCoECFY548_YT.mp4</name>
															<enabled>TRUE</enabled>
															<duration>5129</duration>
															<rate>
																<timebase>30</timebase>
																<ntsc>TRUE</ntsc>
															</rate>
															<start>484</start>
															<end>543</end>
															<in>1492</in>
															<out>1551</out>
															<pproTicksIn>12645695462400</pproTicksIn>
															<pproTicksOut>13145759827200</pproTicksOut>
															<alphatype>none</alphatype>
															<file id="file-35"/>
															<logginginfo>
																<description></description>
																<scene></scene>
																<shottake></shottake>
																<lognote>https://www.youtube.com/watch?v=FQCoECFY548</lognote>
																<good></good>
																<originalvideofilename></originalvideofilename>
																<originalaudiofilename></originalaudiofilename>
															</logginginfo>
															<colorinfo>
																<lut></lut>
																<lut1></lut1>
																<asc_sop></asc_sop>
																<asc_sat></asc_sat>
																<lut2></lut2>
															</colorinfo>
															<labels>
																<label2>Iris</label2>
															</labels>
														</clipitem>
														<clipitem id="clipitem-342">
															<masterclipid>masterclip-35</masterclipid>
															<name>(Dane Jackson)_DANE JACKSON 2022 HIGHLIGHT REEL_FQCoECFY548_YT.mp4</name>
															<enabled>TRUE</enabled>
															<duration>5129</duration>
															<rate>
																<timebase>30</timebase>
																<ntsc>TRUE</ntsc>
															</rate>
															<start>543</start>
															<end>588</end>
															<in>1264</in>
															<out>1309</out>
															<pproTicksIn>10713243340800</pproTicksIn>
															<pproTicksOut>11094648364800</pproTicksOut>
															<alphatype>none</alphatype>
															<file id="file-35"/>
															<logginginfo>
																<description></description>
																<scene></scene>
																<shottake></shottake>
																<lognote>https://www.youtube.com/watch?v=FQCoECFY548</lognote>
																<good></good>
																<originalvideofilename></originalvideofilename>
																<originalaudiofilename></originalaudiofilename>
															</logginginfo>
															<colorinfo>
																<lut></lut>
																<lut1></lut1>
																<asc_sop></asc_sop>
																<asc_sat></asc_sat>
																<lut2></lut2>
															</colorinfo>
															<labels>
																<label2>Iris</label2>
															</labels>
														</clipitem>
														<clipitem id="clipitem-343">
															<masterclipid>masterclip-35</masterclipid>
															<name>(Dane Jackson)_DANE JACKSON 2022 HIGHLIGHT REEL_FQCoECFY548_YT.mp4</name>
															<enabled>TRUE</enabled>
															<duration>5129</duration>
															<rate>
																<timebase>30</timebase>
																<ntsc>TRUE</ntsc>
															</rate>
															<start>588</start>
															<end>690</end>
															<in>4253</in>
															<out>4355</out>
															<pproTicksIn>36047012601600</pproTicksIn>
															<pproTicksOut>36911530656000</pproTicksOut>
															<alphatype>none</alphatype>
															<file id="file-35"/>
															<logginginfo>
																<description></description>
																<scene></scene>
																<shottake></shottake>
																<lognote>https://www.youtube.com/watch?v=FQCoECFY548</lognote>
																<good></good>
																<originalvideofilename></originalvideofilename>
																<originalaudiofilename></originalaudiofilename>
															</logginginfo>
															<colorinfo>
																<lut></lut>
																<lut1></lut1>
																<asc_sop></asc_sop>
																<asc_sat></asc_sat>
																<lut2></lut2>
															</colorinfo>
															<labels>
																<label2>Iris</label2>
															</labels>
														</clipitem>
														<clipitem id="clipitem-344">
															<masterclipid>masterclip-35</masterclipid>
															<name>(Dane Jackson)_DANE JACKSON 2022 HIGHLIGHT REEL_FQCoECFY548_YT.mp4</name>
															<enabled>TRUE</enabled>
															<duration>5129</duration>
															<rate>
																<timebase>30</timebase>
																<ntsc>TRUE</ntsc>
															</rate>
															<start>690</start>
															<end>801</end>
															<in>1616</in>
															<out>1727</out>
															<pproTicksIn>13696678195200</pproTicksIn>
															<pproTicksOut>14637477254400</pproTicksOut>
															<alphatype>none</alphatype>
															<file id="file-35"/>
															<logginginfo>
																<description></description>
																<scene></scene>
																<shottake></shottake>
																<lognote>https://www.youtube.com/watch?v=FQCoECFY548</lognote>
																<good></good>
																<originalvideofilename></originalvideofilename>
																<originalaudiofilename></originalaudiofilename>
															</logginginfo>
															<colorinfo>
																<lut></lut>
																<lut1></lut1>
																<asc_sop></asc_sop>
																<asc_sat></asc_sat>
																<lut2></lut2>
															</colorinfo>
															<labels>
																<label2>Iris</label2>
															</labels>
														</clipitem>
														<clipitem id="clipitem-345">
															<masterclipid>masterclip-35</masterclipid>
															<name>(Dane Jackson)_DANE JACKSON 2022 HIGHLIGHT REEL_FQCoECFY548_YT.mp4</name>
															<enabled>TRUE</enabled>
															<duration>5129</duration>
															<rate>
																<timebase>30</timebase>
																<ntsc>TRUE</ntsc>
															</rate>
															<start>801</start>
															<end>932</end>
															<in>2950</in>
															<out>3081</out>
															<pproTicksIn>25003218240000</pproTicksIn>
															<pproTicksOut>26113530643200</pproTicksOut>
															<alphatype>none</alphatype>
															<file id="file-35"/>
															<logginginfo>
																<description></description>
																<scene></scene>
																<shottake></shottake>
																<lognote>https://www.youtube.com/watch?v=FQCoECFY548</lognote>
																<good></good>
																<originalvideofilename></originalvideofilename>
																<originalaudiofilename></originalaudiofilename>
															</logginginfo>
															<colorinfo>
																<lut></lut>
																<lut1></lut1>
																<asc_sop></asc_sop>
																<asc_sat></asc_sat>
																<lut2></lut2>
															</colorinfo>
															<labels>
																<label2>Iris</label2>
															</labels>
														</clipitem>
														<clipitem id="clipitem-346">
															<masterclipid>masterclip-35</masterclipid>
															<name>(Dane Jackson)_DANE JACKSON 2022 HIGHLIGHT REEL_FQCoECFY548_YT.mp4</name>
															<enabled>TRUE</enabled>
															<duration>5129</duration>
															<rate>
																<timebase>30</timebase>
																<ntsc>TRUE</ntsc>
															</rate>
															<start>932</start>
															<end>984</end>
															<in>2159</in>
															<out>2211</out>
															<pproTicksIn>18298965484800</pproTicksIn>
															<pproTicksOut>18739700179200</pproTicksOut>
															<alphatype>none</alphatype>
															<file id="file-35"/>
															<logginginfo>
																<description></description>
																<scene></scene>
																<shottake></shottake>
																<lognote>https://www.youtube.com/watch?v=FQCoECFY548</lognote>
																<good></good>
																<originalvideofilename></originalvideofilename>
																<originalaudiofilename></originalaudiofilename>
															</logginginfo>
															<colorinfo>
																<lut></lut>
																<lut1></lut1>
																<asc_sop></asc_sop>
																<asc_sat></asc_sat>
																<lut2></lut2>
															</colorinfo>
															<labels>
																<label2>Iris</label2>
															</labels>
														</clipitem>
														<clipitem id="clipitem-347">
															<masterclipid>masterclip-35</masterclipid>
															<name>(Dane Jackson)_DANE JACKSON 2022 HIGHLIGHT REEL_FQCoECFY548_YT.mp4</name>
															<enabled>TRUE</enabled>
															<duration>5129</duration>
															<rate>
																<timebase>30</timebase>
																<ntsc>TRUE</ntsc>
															</rate>
															<start>984</start>
															<end>1021</end>
															<in>1070</in>
															<out>1107</out>
															<pproTicksIn>9068963904000</pproTicksIn>
															<pproTicksOut>9382563590400</pproTicksOut>
															<alphatype>none</alphatype>
															<file id="file-35"/>
															<logginginfo>
																<description></description>
																<scene></scene>
																<shottake></shottake>
																<lognote>https://www.youtube.com/watch?v=FQCoECFY548</lognote>
																<good></good>
																<originalvideofilename></originalvideofilename>
																<originalaudiofilename></originalaudiofilename>
															</logginginfo>
															<colorinfo>
																<lut></lut>
																<lut1></lut1>
																<asc_sop></asc_sop>
																<asc_sat></asc_sat>
																<lut2></lut2>
															</colorinfo>
															<labels>
																<label2>Iris</label2>
															</labels>
														</clipitem>
														<clipitem id="clipitem-348">
															<masterclipid>masterclip-35</masterclipid>
															<name>(Dane Jackson)_DANE JACKSON 2022 HIGHLIGHT REEL_FQCoECFY548_YT.mp4</name>
															<enabled>TRUE</enabled>
															<duration>5129</duration>
															<rate>
																<timebase>30</timebase>
																<ntsc>TRUE</ntsc>
															</rate>
															<start>1021</start>
															<end>1100</end>
															<in>1953</in>
															<out>2032</out>
															<pproTicksIn>16552978041600</pproTicksIn>
															<pproTicksOut>17222555750400</pproTicksOut>
															<alphatype>none</alphatype>
															<file id="file-35"/>
															<logginginfo>
																<description></description>
																<scene></scene>
																<shottake></shottake>
																<lognote>https://www.youtube.com/watch?v=FQCoECFY548</lognote>
																<good></good>
																<originalvideofilename></originalvideofilename>
																<originalaudiofilename></originalaudiofilename>
															</logginginfo>
															<colorinfo>
																<lut></lut>
																<lut1></lut1>
																<asc_sop></asc_sop>
																<asc_sat></asc_sat>
																<lut2></lut2>
															</colorinfo>
															<labels>
																<label2>Iris</label2>
															</labels>
														</clipitem>
														<clipitem id="clipitem-349">
															<masterclipid>masterclip-35</masterclipid>
															<name>(Dane Jackson)_DANE JACKSON 2022 HIGHLIGHT REEL_FQCoECFY548_YT.mp4</name>
															<enabled>TRUE</enabled>
															<duration>5129</duration>
															<rate>
																<timebase>30</timebase>
																<ntsc>TRUE</ntsc>
															</rate>
															<start>1100</start>
															<end>1154</end>
															<in>2279</in>
															<out>2333</out>
															<pproTicksIn>19316045548800</pproTicksIn>
															<pproTicksOut>19773731577600</pproTicksOut>
															<alphatype>none</alphatype>
															<file id="file-35"/>
															<logginginfo>
																<description></description>
																<scene></scene>
																<shottake></shottake>
																<lognote>https://www.youtube.com/watch?v=FQCoECFY548</lognote>
																<good></good>
																<originalvideofilename></originalvideofilename>
																<originalaudiofilename></originalaudiofilename>
															</logginginfo>
															<colorinfo>
																<lut></lut>
																<lut1></lut1>
																<asc_sop></asc_sop>
																<asc_sat></asc_sat>
																<lut2></lut2>
															</colorinfo>
															<labels>
																<label2>Iris</label2>
															</labels>
														</clipitem>
														<clipitem id="clipitem-350">
															<masterclipid>masterclip-35</masterclipid>
															<name>(Dane Jackson)_DANE JACKSON 2022 HIGHLIGHT REEL_FQCoECFY548_YT.mp4</name>
															<enabled>TRUE</enabled>
															<duration>5129</duration>
															<rate>
																<timebase>30</timebase>
																<ntsc>TRUE</ntsc>
															</rate>
															<start>1154</start>
															<end>1212</end>
															<in>2543</in>
															<out>2601</out>
															<pproTicksIn>21553621689600</pproTicksIn>
															<pproTicksOut>22045210387200</pproTicksOut>
															<alphatype>none</alphatype>
															<file id="file-35"/>
															<logginginfo>
																<description></description>
																<scene></scene>
																<shottake></shottake>
																<lognote>https://www.youtube.com/watch?v=FQCoECFY548</lognote>
																<good></good>
																<originalvideofilename></originalvideofilename>
																<originalaudiofilename></originalaudiofilename>
															</logginginfo>
															<colorinfo>
																<lut></lut>
																<lut1></lut1>
																<asc_sop></asc_sop>
																<asc_sat></asc_sat>
																<lut2></lut2>
															</colorinfo>
															<labels>
																<label2>Iris</label2>
															</labels>
														</clipitem>
														<clipitem id="clipitem-351">
															<masterclipid>masterclip-35</masterclipid>
															<name>(Dane Jackson)_DANE JACKSON 2022 HIGHLIGHT REEL_FQCoECFY548_YT.mp4</name>
															<enabled>TRUE</enabled>
															<duration>5129</duration>
															<rate>
																<timebase>30</timebase>
																<ntsc>TRUE</ntsc>
															</rate>
															<start>1212</start>
															<end>1323</end>
															<in>2833</in>
															<out>2944</out>
															<pproTicksIn>24011565177600</pproTicksIn>
															<pproTicksOut>24952364236800</pproTicksOut>
															<alphatype>none</alphatype>
															<file id="file-35"/>
															<logginginfo>
																<description></description>
																<scene></scene>
																<shottake></shottake>
																<lognote>https://www.youtube.com/watch?v=FQCoECFY548</lognote>
																<good></good>
																<originalvideofilename></originalvideofilename>
																<originalaudiofilename></originalaudiofilename>
															</logginginfo>
															<colorinfo>
																<lut></lut>
																<lut1></lut1>
																<asc_sop></asc_sop>
																<asc_sat></asc_sat>
																<lut2></lut2>
															</colorinfo>
															<labels>
																<label2>Iris</label2>
															</labels>
														</clipitem>
														<enabled>TRUE</enabled>
														<locked>FALSE</locked>
													</track>
													<track>
														<clipitem id="clipitem-352">
															<masterclipid>masterclip-66</masterclipid>
															<name>1080/AE Attribution.aep Copy 48</name>
															<enabled>TRUE</enabled>
															<duration>5844</duration>
															<rate>
																<timebase>30</timebase>
																<ntsc>TRUE</ntsc>
															</rate>
															<start>0</start>
															<end>1323</end>
															<in>1443</in>
															<out>2766</out>
															<pproTicksIn>12230387769600</pproTicksIn>
															<pproTicksOut>23443695475200</pproTicksOut>
															<alphatype>straight</alphatype>
															<file id="file-66"/>
															<logginginfo>
																<description></description>
																<scene></scene>
																<shottake></shottake>
																<lognote></lognote>
																<good></good>
																<originalvideofilename></originalvideofilename>
																<originalaudiofilename></originalaudiofilename>
															</logginginfo>
															<colorinfo>
																<lut></lut>
																<lut1></lut1>
																<asc_sop></asc_sop>
																<asc_sat></asc_sat>
																<lut2></lut2>
															</colorinfo>
															<labels>
																<label2>Rose</label2>
															</labels>
														</clipitem>
														<enabled>TRUE</enabled>
														<locked>FALSE</locked>
													</track>
												</video>
												<audio>
													<numOutputChannels>2</numOutputChannels>
													<format>
														<samplecharacteristics>
															<depth>16</depth>
															<samplerate>44100</samplerate>
														</samplecharacteristics>
													</format>
													<outputs>
														<group>
															<index>1</index>
															<numchannels>1</numchannels>
															<downmix>0</downmix>
															<channel>
																<index>1</index>
															</channel>
														</group>
														<group>
															<index>2</index>
															<numchannels>1</numchannels>
															<downmix>0</downmix>
															<channel>
																<index>2</index>
															</channel>
														</group>
													</outputs>
													<track TL.SQTrackExpandedHeight="25" TL.SQTrackExpanded="0" MZ.TrackTargeted="1" PannerCurrentValue="0.5" PannerIsInverted="true" PannerStartKeyframe="-91445760000000000,0.5,0,0,0,0,0,0" PannerName="Balance" currentExplodedTrackIndex="0" totalExplodedTrackCount="2" premiereTrackType="Stereo">
														<clipitem id="clipitem-353" premiereChannelType="stereo">
															<masterclipid>masterclip-43</masterclipid>
															<name>RocknStock - One Right Decision.mp3</name>
															<enabled>TRUE</enabled>
															<duration>4888</duration>
															<rate>
																<timebase>30</timebase>
																<ntsc>TRUE</ntsc>
															</rate>
															<start>0</start>
															<end>-1</end>
															<in>0</in>
															<out>1323</out>
															<pproTicksIn>0</pproTicksIn>
															<pproTicksOut>11213307705600</pproTicksOut>
															<file id="file-43"/>
															<sourcetrack>
																<mediatype>audio</mediatype>
																<trackindex>1</trackindex>
															</sourcetrack>
															<filter>
																<effect>
																	<name>Gain</name>
																	<effectid>{61756678, 4761696e, 4b657947}</effectid>
																	<effecttype>filter</effecttype>
																	<mediatype>audio</mediatype>
																	<parameter authoringApp="PremierePro">
																		<parameterid>Gain(dB)</parameterid>
																		<name>Gain(dB)</name>
																		<valuemin>-96</valuemin>
																		<valuemax>96</valuemax>
																		<value>-6</value>
																	</parameter>
																</effect>
															</filter>
															<link>
																<linkclipref>clipitem-353</linkclipref>
																<mediatype>audio</mediatype>
																<trackindex>1</trackindex>
																<clipindex>1</clipindex>
																<groupindex>1</groupindex>
															</link>
															<link>
																<linkclipref>clipitem-354</linkclipref>
																<mediatype>audio</mediatype>
																<trackindex>2</trackindex>
																<clipindex>1</clipindex>
																<groupindex>1</groupindex>
															</link>
															<logginginfo>
																<description></description>
																<scene></scene>
																<shottake></shottake>
																<lognote></lognote>
																<good></good>
																<originalvideofilename></originalvideofilename>
																<originalaudiofilename></originalaudiofilename>
															</logginginfo>
															<colorinfo>
																<lut></lut>
																<lut1></lut1>
																<asc_sop></asc_sop>
																<asc_sat></asc_sat>
																<lut2></lut2>
															</colorinfo>
														</clipitem>
														<transitionitem>
															<start>1246</start>
															<end>1323</end>
															<pproTicksIn>10560681331200</pproTicksIn>
															<pproTicksOut>11213307705600</pproTicksOut>
															<alignment>end-black</alignment>
															<cutPointTicks>652626374400</cutPointTicks>
															<rate>
																<timebase>30</timebase>
																<ntsc>TRUE</ntsc>
															</rate>
															<effect>
																<name>Cross Fade (+3dB)</name>
																<effectid>KGAudioTransCrossFade3dB</effectid>
																<effecttype>transition</effecttype>
																<mediatype>audio</mediatype>
																<wipecode>0</wipecode>
																<wipeaccuracy>100</wipeaccuracy>
																<startratio>0</startratio>
																<endratio>1</endratio>
																<reverse>FALSE</reverse>
															</effect>
														</transitionitem>
														<enabled>TRUE</enabled>
														<locked>FALSE</locked>
														<outputchannelindex>1</outputchannelindex>
													</track>
													<track TL.SQTrackExpandedHeight="25" TL.SQTrackExpanded="0" MZ.TrackTargeted="1" PannerCurrentValue="0.5" PannerIsInverted="true" PannerStartKeyframe="-91445760000000000,0.5,0,0,0,0,0,0" PannerName="Balance" currentExplodedTrackIndex="1" totalExplodedTrackCount="2" premiereTrackType="Stereo">
														<clipitem id="clipitem-354" premiereChannelType="stereo">
															<masterclipid>masterclip-43</masterclipid>
															<name>RocknStock - One Right Decision.mp3</name>
															<enabled>TRUE</enabled>
															<duration>4888</duration>
															<rate>
																<timebase>30</timebase>
																<ntsc>TRUE</ntsc>
															</rate>
															<start>0</start>
															<end>-1</end>
															<in>0</in>
															<out>1323</out>
															<pproTicksIn>0</pproTicksIn>
															<pproTicksOut>11213307705600</pproTicksOut>
															<file id="file-43"/>
															<sourcetrack>
																<mediatype>audio</mediatype>
																<trackindex>2</trackindex>
															</sourcetrack>
															<filter>
																<effect>
																	<name>Gain</name>
																	<effectid>{61756678, 4761696e, 4b657947}</effectid>
																	<effecttype>filter</effecttype>
																	<mediatype>audio</mediatype>
																	<parameter authoringApp="PremierePro">
																		<parameterid>Gain(dB)</parameterid>
																		<name>Gain(dB)</name>
																		<valuemin>-96</valuemin>
																		<valuemax>96</valuemax>
																		<value>-6</value>
																	</parameter>
																</effect>
															</filter>
															<link>
																<linkclipref>clipitem-353</linkclipref>
																<mediatype>audio</mediatype>
																<trackindex>1</trackindex>
																<clipindex>1</clipindex>
																<groupindex>1</groupindex>
															</link>
															<link>
																<linkclipref>clipitem-354</linkclipref>
																<mediatype>audio</mediatype>
																<trackindex>2</trackindex>
																<clipindex>1</clipindex>
																<groupindex>1</groupindex>
															</link>
															<logginginfo>
																<description></description>
																<scene></scene>
																<shottake></shottake>
																<lognote></lognote>
																<good></good>
																<originalvideofilename></originalvideofilename>
																<originalaudiofilename></originalaudiofilename>
															</logginginfo>
															<colorinfo>
																<lut></lut>
																<lut1></lut1>
																<asc_sop></asc_sop>
																<asc_sat></asc_sat>
																<lut2></lut2>
															</colorinfo>
														</clipitem>
														<transitionitem>
															<start>1246</start>
															<end>1323</end>
															<pproTicksIn>10560681331200</pproTicksIn>
															<pproTicksOut>11213307705600</pproTicksOut>
															<alignment>end-black</alignment>
															<cutPointTicks>652626374400</cutPointTicks>
															<rate>
																<timebase>30</timebase>
																<ntsc>TRUE</ntsc>
															</rate>
															<effect>
																<name>Cross Fade (+3dB)</name>
																<effectid>KGAudioTransCrossFade3dB</effectid>
																<effecttype>transition</effecttype>
																<mediatype>audio</mediatype>
																<wipecode>0</wipecode>
																<wipeaccuracy>100</wipeaccuracy>
																<startratio>0</startratio>
																<endratio>1</endratio>
																<reverse>FALSE</reverse>
															</effect>
														</transitionitem>
														<enabled>TRUE</enabled>
														<locked>FALSE</locked>
														<outputchannelindex>2</outputchannelindex>
													</track>
												</audio>
											</media>
											<timecode>
												<rate>
													<timebase>30</timebase>
													<ntsc>TRUE</ntsc>
												</rate>
												<string>00:00:00:00</string>
												<frame>0</frame>
												<displayformat>NDF</displayformat>
											</timecode>
											<logginginfo>
												<description></description>
												<scene></scene>
												<shottake></shottake>
												<lognote></lognote>
												<good></good>
												<originalvideofilename></originalvideofilename>
												<originalaudiofilename></originalaudiofilename>
											</logginginfo>
										</sequence>
										<link>
											<linkclipref>clipitem-337</linkclipref>
											<mediatype>video</mediatype>
											<trackindex>1</trackindex>
											<clipindex>4</clipindex>
										</link>
										<link>
											<linkclipref>clipitem-368</linkclipref>
											<mediatype>audio</mediatype>
											<trackindex>1</trackindex>
											<clipindex>4</clipindex>
											<groupindex>1</groupindex>
										</link>
										<link>
											<linkclipref>clipitem-372</linkclipref>
											<mediatype>audio</mediatype>
											<trackindex>2</trackindex>
											<clipindex>4</clipindex>
											<groupindex>1</groupindex>
										</link>
										<labels>
											<label2>Forest</label2>
										</labels>
									</clipitem>
									<enabled>TRUE</enabled>
									<locked>FALSE</locked>
								</track>
								<track TL.SQTrackShy="0" TL.SQTrackExpandedHeight="25" TL.SQTrackExpanded="0" MZ.TrackTargeted="0">
									<clipitem id="clipitem-355">
										<masterclipid>masterclip-88</masterclipid>
										<name>Alpine TV _ Main Lower Third/AlpineTV_LowerThird.aep</name>
										<enabled>TRUE</enabled>
										<duration>6750</duration>
										<rate>
											<timebase>30</timebase>
											<ntsc>TRUE</ntsc>
										</rate>
										<start>0</start>
										<end>1242</end>
										<in>0</in>
										<out>1242</out>
										<pproTicksIn>0</pproTicksIn>
										<pproTicksOut>10526778662400</pproTicksOut>
										<alphatype>straight</alphatype>
										<pixelaspectratio>square</pixelaspectratio>
										<anamorphic>FALSE</anamorphic>
										<file id="file-75">
											<name>Alpine TV _ Main Lower Third/AlpineTV_LowerThird.aep</name>
											<pathurl>file://localhost/Volumes/Charlie's%20Extra%20Space%20/1_Alpine%20TV_Projects%20/1_Alpine%20TV_Master%20Assets/Lower%20Third/AlpineTV_LowerThird.aep</pathurl>
											<rate>
												<timebase>30</timebase>
												<ntsc>TRUE</ntsc>
											</rate>
											<duration>6750</duration>
											<timecode>
												<rate>
													<timebase>30</timebase>
													<ntsc>TRUE</ntsc>
												</rate>
												<string>00:00:00:00</string>
												<frame>0</frame>
												<displayformat>NDF</displayformat>
											</timecode>
											<media>
												<video>
													<samplecharacteristics>
														<rate>
															<timebase>30</timebase>
															<ntsc>TRUE</ntsc>
														</rate>
														<width>1920</width>
														<height>1080</height>
														<anamorphic>FALSE</anamorphic>
														<pixelaspectratio>square</pixelaspectratio>
														<fielddominance>lower</fielddominance>
													</samplecharacteristics>
												</video>
											</media>
										</file>
										<logginginfo>
											<description></description>
											<scene></scene>
											<shottake></shottake>
											<lognote></lognote>
											<good></good>
											<originalvideofilename></originalvideofilename>
											<originalaudiofilename></originalaudiofilename>
										</logginginfo>
										<colorinfo>
											<lut></lut>
											<lut1></lut1>
											<asc_sop></asc_sop>
											<asc_sat></asc_sat>
											<lut2></lut2>
										</colorinfo>
										<labels>
											<label2>Violet</label2>
										</labels>
									</clipitem>
									<clipitem id="clipitem-356">
										<masterclipid>masterclip-89</masterclipid>
										<name>Alpine TV _ Main Lower Third/AlpineTV_LowerThird.aep</name>
										<enabled>TRUE</enabled>
										<duration>6750</duration>
										<rate>
											<timebase>30</timebase>
											<ntsc>TRUE</ntsc>
										</rate>
										<start>1295</start>
										<end>2908</end>
										<in>0</in>
										<out>1613</out>
										<pproTicksIn>0</pproTicksIn>
										<pproTicksOut>13671251193600</pproTicksOut>
										<alphatype>straight</alphatype>
										<pixelaspectratio>square</pixelaspectratio>
										<anamorphic>FALSE</anamorphic>
										<file id="file-76">
											<name>Alpine TV _ Main Lower Third/AlpineTV_LowerThird.aep</name>
											<pathurl>file://localhost/Volumes/Charlie's%20Extra%20Space%20/1_Alpine%20TV_Projects%20/1_Alpine%20TV_Master%20Assets/Lower%20Third/AlpineTV_LowerThird.aep</pathurl>
											<rate>
												<timebase>30</timebase>
												<ntsc>TRUE</ntsc>
											</rate>
											<duration>6750</duration>
											<timecode>
												<rate>
													<timebase>30</timebase>
													<ntsc>TRUE</ntsc>
												</rate>
												<string>00:00:00:00</string>
												<frame>0</frame>
												<displayformat>NDF</displayformat>
											</timecode>
											<media>
												<video>
													<samplecharacteristics>
														<rate>
															<timebase>30</timebase>
															<ntsc>TRUE</ntsc>
														</rate>
														<width>1920</width>
														<height>1080</height>
														<anamorphic>FALSE</anamorphic>
														<pixelaspectratio>square</pixelaspectratio>
														<fielddominance>lower</fielddominance>
													</samplecharacteristics>
												</video>
											</media>
										</file>
										<logginginfo>
											<description></description>
											<scene></scene>
											<shottake></shottake>
											<lognote></lognote>
											<good></good>
											<originalvideofilename></originalvideofilename>
											<originalaudiofilename></originalaudiofilename>
										</logginginfo>
										<colorinfo>
											<lut></lut>
											<lut1></lut1>
											<asc_sop></asc_sop>
											<asc_sat></asc_sat>
											<lut2></lut2>
										</colorinfo>
										<labels>
											<label2>Violet</label2>
										</labels>
									</clipitem>
									<clipitem id="clipitem-357">
										<masterclipid>masterclip-90</masterclipid>
										<name>Alpine TV _ Main Lower Third/AlpineTV_LowerThird.aep</name>
										<enabled>TRUE</enabled>
										<duration>6750</duration>
										<rate>
											<timebase>30</timebase>
											<ntsc>TRUE</ntsc>
										</rate>
										<start>2961</start>
										<end>3656</end>
										<in>0</in>
										<out>695</out>
										<pproTicksIn>0</pproTicksIn>
										<pproTicksOut>5890588704000</pproTicksOut>
										<alphatype>straight</alphatype>
										<pixelaspectratio>square</pixelaspectratio>
										<anamorphic>FALSE</anamorphic>
										<file id="file-77">
											<name>Alpine TV _ Main Lower Third/AlpineTV_LowerThird.aep</name>
											<pathurl>file://localhost/Volumes/Charlie's%20Extra%20Space%20/1_Alpine%20TV_Projects%20/1_Alpine%20TV_Master%20Assets/Lower%20Third/AlpineTV_LowerThird.aep</pathurl>
											<rate>
												<timebase>30</timebase>
												<ntsc>TRUE</ntsc>
											</rate>
											<duration>6750</duration>
											<timecode>
												<rate>
													<timebase>30</timebase>
													<ntsc>TRUE</ntsc>
												</rate>
												<string>00:00:00:00</string>
												<frame>0</frame>
												<displayformat>NDF</displayformat>
											</timecode>
											<media>
												<video>
													<samplecharacteristics>
														<rate>
															<timebase>30</timebase>
															<ntsc>TRUE</ntsc>
														</rate>
														<width>1920</width>
														<height>1080</height>
														<anamorphic>FALSE</anamorphic>
														<pixelaspectratio>square</pixelaspectratio>
														<fielddominance>lower</fielddominance>
													</samplecharacteristics>
												</video>
											</media>
										</file>
										<logginginfo>
											<description></description>
											<scene></scene>
											<shottake></shottake>
											<lognote></lognote>
											<good></good>
											<originalvideofilename></originalvideofilename>
											<originalaudiofilename></originalaudiofilename>
										</logginginfo>
										<colorinfo>
											<lut></lut>
											<lut1></lut1>
											<asc_sop></asc_sop>
											<asc_sat></asc_sat>
											<lut2></lut2>
										</colorinfo>
										<labels>
											<label2>Violet</label2>
										</labels>
									</clipitem>
									<clipitem id="clipitem-358">
										<masterclipid>masterclip-91</masterclipid>
										<name>Alpine TV _ Main Lower Third/AlpineTV_LowerThird.aep</name>
										<enabled>TRUE</enabled>
										<duration>6750</duration>
										<rate>
											<timebase>30</timebase>
											<ntsc>TRUE</ntsc>
										</rate>
										<start>3697</start>
										<end>5020</end>
										<in>0</in>
										<out>1323</out>
										<pproTicksIn>0</pproTicksIn>
										<pproTicksOut>11213307705600</pproTicksOut>
										<alphatype>straight</alphatype>
										<pixelaspectratio>square</pixelaspectratio>
										<anamorphic>FALSE</anamorphic>
										<file id="file-78">
											<name>Alpine TV _ Main Lower Third/AlpineTV_LowerThird.aep</name>
											<pathurl>file://localhost/Volumes/Charlie's%20Extra%20Space%20/1_Alpine%20TV_Projects%20/1_Alpine%20TV_Master%20Assets/Lower%20Third/AlpineTV_LowerThird.aep</pathurl>
											<rate>
												<timebase>30</timebase>
												<ntsc>TRUE</ntsc>
											</rate>
											<duration>6750</duration>
											<timecode>
												<rate>
													<timebase>30</timebase>
													<ntsc>TRUE</ntsc>
												</rate>
												<string>00:00:00:00</string>
												<frame>0</frame>
												<displayformat>NDF</displayformat>
											</timecode>
											<media>
												<video>
													<samplecharacteristics>
														<rate>
															<timebase>30</timebase>
															<ntsc>TRUE</ntsc>
														</rate>
														<width>1920</width>
														<height>1080</height>
														<anamorphic>FALSE</anamorphic>
														<pixelaspectratio>square</pixelaspectratio>
														<fielddominance>lower</fielddominance>
													</samplecharacteristics>
												</video>
											</media>
										</file>
										<logginginfo>
											<description></description>
											<scene></scene>
											<shottake></shottake>
											<lognote></lognote>
											<good></good>
											<originalvideofilename></originalvideofilename>
											<originalaudiofilename></originalaudiofilename>
										</logginginfo>
										<colorinfo>
											<lut></lut>
											<lut1></lut1>
											<asc_sop></asc_sop>
											<asc_sat></asc_sat>
											<lut2></lut2>
										</colorinfo>
										<labels>
											<label2>Violet</label2>
										</labels>
									</clipitem>
									<enabled>TRUE</enabled>
									<locked>FALSE</locked>
								</track>
								<track TL.SQTrackShy="0" TL.SQTrackExpandedHeight="25" TL.SQTrackExpanded="0" MZ.TrackTargeted="0">
									<clipitem id="clipitem-359">
										<masterclipid>masterclip-79</masterclipid>
										<name>ATM BUG LEFT</name>
										<enabled>TRUE</enabled>
										<duration>5460</duration>
										<rate>
											<timebase>30</timebase>
											<ntsc>TRUE</ntsc>
										</rate>
										<start>0</start>
										<end>5020</end>
										<in>0</in>
										<out>5020</out>
										<pproTicksIn>0</pproTicksIn>
										<pproTicksOut>42547849344000</pproTicksOut>
										<sequence id="sequence-7"/>
										<labels>
											<label2>Forest</label2>
										</labels>
									</clipitem>
									<enabled>TRUE</enabled>
									<locked>FALSE</locked>
								</track>
								<track TL.SQTrackShy="0" TL.SQTrackExpandedHeight="25" TL.SQTrackExpanded="0" MZ.TrackTargeted="0">
									<clipitem id="clipitem-360">
										<masterclipid>masterclip-80</masterclipid>
										<name>Trans 1 </name>
										<enabled>TRUE</enabled>
										<duration>117</duration>
										<rate>
											<timebase>30</timebase>
											<ntsc>TRUE</ntsc>
										</rate>
										<start>1218</start>
										<end>1335</end>
										<in>0</in>
										<out>117</out>
										<pproTicksIn>0</pproTicksIn>
										<pproTicksOut>991653062400</pproTicksOut>
										<sequence id="sequence-4"/>
										<link>
											<linkclipref>clipitem-360</linkclipref>
											<mediatype>video</mediatype>
											<trackindex>4</trackindex>
											<clipindex>1</clipindex>
										</link>
										<link>
											<linkclipref>clipitem-373</linkclipref>
											<mediatype>audio</mediatype>
											<trackindex>3</trackindex>
											<clipindex>1</clipindex>
											<groupindex>1</groupindex>
										</link>
										<link>
											<linkclipref>clipitem-377</linkclipref>
											<mediatype>audio</mediatype>
											<trackindex>4</trackindex>
											<clipindex>1</clipindex>
											<groupindex>1</groupindex>
										</link>
										<labels>
											<label2>Forest</label2>
										</labels>
									</clipitem>
									<clipitem id="clipitem-361">
										<masterclipid>masterclip-80</masterclipid>
										<name>Trans 1 </name>
										<enabled>TRUE</enabled>
										<duration>117</duration>
										<rate>
											<timebase>30</timebase>
											<ntsc>TRUE</ntsc>
										</rate>
										<start>2891</start>
										<end>3008</end>
										<in>0</in>
										<out>117</out>
										<pproTicksIn>0</pproTicksIn>
										<pproTicksOut>991653062400</pproTicksOut>
										<sequence id="sequence-4"/>
										<link>
											<linkclipref>clipitem-361</linkclipref>
											<mediatype>video</mediatype>
											<trackindex>4</trackindex>
											<clipindex>2</clipindex>
										</link>
										<link>
											<linkclipref>clipitem-374</linkclipref>
											<mediatype>audio</mediatype>
											<trackindex>3</trackindex>
											<clipindex>2</clipindex>
											<groupindex>1</groupindex>
										</link>
										<link>
											<linkclipref>clipitem-378</linkclipref>
											<mediatype>audio</mediatype>
											<trackindex>4</trackindex>
											<clipindex>2</clipindex>
											<groupindex>1</groupindex>
										</link>
										<labels>
											<label2>Forest</label2>
										</labels>
									</clipitem>
									<clipitem id="clipitem-362">
										<masterclipid>masterclip-81</masterclipid>
										<name>trans 2</name>
										<enabled>TRUE</enabled>
										<duration>77</duration>
										<rate>
											<timebase>30</timebase>
											<ntsc>TRUE</ntsc>
										</rate>
										<start>3637</start>
										<end>3714</end>
										<in>0</in>
										<out>77</out>
										<pproTicksIn>0</pproTicksIn>
										<pproTicksOut>652626374400</pproTicksOut>
										<sequence id="sequence-12"/>
										<link>
											<linkclipref>clipitem-362</linkclipref>
											<mediatype>video</mediatype>
											<trackindex>4</trackindex>
											<clipindex>3</clipindex>
										</link>
										<link>
											<linkclipref>clipitem-375</linkclipref>
											<mediatype>audio</mediatype>
											<trackindex>3</trackindex>
											<clipindex>3</clipindex>
											<groupindex>1</groupindex>
										</link>
										<link>
											<linkclipref>clipitem-379</linkclipref>
											<mediatype>audio</mediatype>
											<trackindex>4</trackindex>
											<clipindex>3</clipindex>
											<groupindex>1</groupindex>
										</link>
										<labels>
											<label2>Forest</label2>
										</labels>
									</clipitem>
									<clipitem id="clipitem-363">
										<masterclipid>masterclip-80</masterclipid>
										<name>Trans 1 </name>
										<enabled>TRUE</enabled>
										<duration>117</duration>
										<rate>
											<timebase>30</timebase>
											<ntsc>TRUE</ntsc>
										</rate>
										<start>5003</start>
										<end>5120</end>
										<in>0</in>
										<out>117</out>
										<pproTicksIn>0</pproTicksIn>
										<pproTicksOut>991653062400</pproTicksOut>
										<sequence id="sequence-4"/>
										<link>
											<linkclipref>clipitem-363</linkclipref>
											<mediatype>video</mediatype>
											<trackindex>4</trackindex>
											<clipindex>4</clipindex>
										</link>
										<link>
											<linkclipref>clipitem-376</linkclipref>
											<mediatype>audio</mediatype>
											<trackindex>3</trackindex>
											<clipindex>4</clipindex>
											<groupindex>1</groupindex>
										</link>
										<link>
											<linkclipref>clipitem-380</linkclipref>
											<mediatype>audio</mediatype>
											<trackindex>4</trackindex>
											<clipindex>4</clipindex>
											<groupindex>1</groupindex>
										</link>
										<labels>
											<label2>Forest</label2>
										</labels>
									</clipitem>
									<enabled>TRUE</enabled>
									<locked>FALSE</locked>
								</track>
								<track TL.SQTrackShy="0" TL.SQTrackExpandedHeight="25" TL.SQTrackExpanded="0" MZ.TrackTargeted="0">
									<enabled>TRUE</enabled>
									<locked>FALSE</locked>
								</track>
								<track TL.SQTrackShy="0" TL.SQTrackExpandedHeight="25" TL.SQTrackExpanded="0" MZ.TrackTargeted="0">
									<enabled>TRUE</enabled>
									<locked>FALSE</locked>
								</track>
								<track TL.SQTrackShy="0" TL.SQTrackExpandedHeight="25" TL.SQTrackExpanded="0" MZ.TrackTargeted="0">
									<clipitem id="clipitem-364">
										<masterclipid>masterclip-36</masterclipid>
										<name>(Dane Jackson)__Epic!!_ _ GREEN RACE 2022_zhPxinQkgE8_YT.mp4</name>
										<enabled>TRUE</enabled>
										<duration>29237</duration>
										<rate>
											<timebase>30</timebase>
											<ntsc>TRUE</ntsc>
										</rate>
										<start>53939</start>
										<end>83176</end>
										<in>0</in>
										<out>29237</out>
										<pproTicksIn>0</pproTicksIn>
										<pproTicksOut>247803081926400</pproTicksOut>
										<alphatype>none</alphatype>
										<file id="file-36"/>
										<logginginfo>
											<description></description>
											<scene></scene>
											<shottake></shottake>
											<lognote>https://www.youtube.com/watch?v=zhPxinQkgE8</lognote>
											<good></good>
											<originalvideofilename></originalvideofilename>
											<originalaudiofilename></originalaudiofilename>
										</logginginfo>
										<colorinfo>
											<lut></lut>
											<lut1></lut1>
											<asc_sop></asc_sop>
											<asc_sat></asc_sat>
											<lut2></lut2>
										</colorinfo>
										<labels>
											<label2>Iris</label2>
										</labels>
									</clipitem>
									<enabled>TRUE</enabled>
									<locked>FALSE</locked>
								</track>
								<track TL.SQTrackShy="0" TL.SQTrackExpandedHeight="25" TL.SQTrackExpanded="0" MZ.TrackTargeted="0">
									<enabled>TRUE</enabled>
									<locked>FALSE</locked>
								</track>
								<track TL.SQTrackShy="0" TL.SQTrackExpandedHeight="25" TL.SQTrackExpanded="0" MZ.TrackTargeted="0">
									<enabled>TRUE</enabled>
									<locked>FALSE</locked>
								</track>
								<track TL.SQTrackShy="0" TL.SQTrackExpandedHeight="25" TL.SQTrackExpanded="0" MZ.TrackTargeted="0">
									<enabled>TRUE</enabled>
									<locked>FALSE</locked>
								</track>
							</video>
							<audio>
								<numOutputChannels>2</numOutputChannels>
								<format>
									<samplecharacteristics>
										<depth>16</depth>
										<samplerate>44100</samplerate>
									</samplecharacteristics>
								</format>
								<outputs>
									<group>
										<index>1</index>
										<numchannels>1</numchannels>
										<downmix>0</downmix>
										<channel>
											<index>1</index>
										</channel>
									</group>
									<group>
										<index>2</index>
										<numchannels>1</numchannels>
										<downmix>0</downmix>
										<channel>
											<index>2</index>
										</channel>
									</group>
								</outputs>
								<track TL.SQTrackAudioKeyframeStyle="0" TL.SQTrackShy="0" TL.SQTrackExpandedHeight="25" TL.SQTrackExpanded="0" MZ.TrackTargeted="0" PannerCurrentValue="0.5" PannerIsInverted="true" PannerStartKeyframe="-91445760000000000,0.5,0,0,0,0,0,0" PannerName="Balance" currentExplodedTrackIndex="0" totalExplodedTrackCount="2" premiereTrackType="Stereo">
									<clipitem id="clipitem-365" premiereChannelType="stereo">
										<masterclipid>masterclip-83</masterclipid>
										<name>Animal_paw prints in the snow_1</name>
										<enabled>TRUE</enabled>
										<duration>1242</duration>
										<rate>
											<timebase>30</timebase>
											<ntsc>TRUE</ntsc>
										</rate>
										<start>0</start>
										<end>1242</end>
										<in>0</in>
										<out>1242</out>
										<pproTicksIn>0</pproTicksIn>
										<pproTicksOut>10526778662400</pproTicksOut>
										<sequence id="sequence-14"/>
										<sourcetrack>
											<mediatype>audio</mediatype>
											<trackindex>0</trackindex>
										</sourcetrack>
										<link>
											<linkclipref>clipitem-274</linkclipref>
											<mediatype>video</mediatype>
											<trackindex>1</trackindex>
											<clipindex>1</clipindex>
										</link>
										<link>
											<linkclipref>clipitem-365</linkclipref>
											<mediatype>audio</mediatype>
											<trackindex>1</trackindex>
											<clipindex>1</clipindex>
											<groupindex>1</groupindex>
										</link>
										<link>
											<linkclipref>clipitem-369</linkclipref>
											<mediatype>audio</mediatype>
											<trackindex>2</trackindex>
											<clipindex>1</clipindex>
											<groupindex>1</groupindex>
										</link>
										<labels>
											<label2>Forest</label2>
										</labels>
									</clipitem>
									<clipitem id="clipitem-366" premiereChannelType="stereo">
										<masterclipid>masterclip-84</masterclipid>
										<name>DRONE_the vintage tunes of wilderness_1</name>
										<enabled>TRUE</enabled>
										<duration>1613</duration>
										<rate>
											<timebase>30</timebase>
											<ntsc>TRUE</ntsc>
										</rate>
										<start>1295</start>
										<end>2908</end>
										<in>0</in>
										<out>1613</out>
										<pproTicksIn>0</pproTicksIn>
										<pproTicksOut>13671251193600</pproTicksOut>
										<sequence id="sequence-15"/>
										<sourcetrack>
											<mediatype>audio</mediatype>
											<trackindex>0</trackindex>
										</sourcetrack>
										<link>
											<linkclipref>clipitem-301</linkclipref>
											<mediatype>video</mediatype>
											<trackindex>1</trackindex>
											<clipindex>2</clipindex>
										</link>
										<link>
											<linkclipref>clipitem-366</linkclipref>
											<mediatype>audio</mediatype>
											<trackindex>1</trackindex>
											<clipindex>2</clipindex>
											<groupindex>1</groupindex>
										</link>
										<link>
											<linkclipref>clipitem-370</linkclipref>
											<mediatype>audio</mediatype>
											<trackindex>2</trackindex>
											<clipindex>2</clipindex>
											<groupindex>1</groupindex>
										</link>
										<labels>
											<label2>Forest</label2>
										</labels>
									</clipitem>
									<clipitem id="clipitem-367" premiereChannelType="stereo">
										<masterclipid>masterclip-85</masterclipid>
										<name>AWE_american ski idol auditions_1</name>
										<enabled>TRUE</enabled>
										<duration>695</duration>
										<rate>
											<timebase>30</timebase>
											<ntsc>TRUE</ntsc>
										</rate>
										<start>2961</start>
										<end>3656</end>
										<in>0</in>
										<out>695</out>
										<pproTicksIn>0</pproTicksIn>
										<pproTicksOut>5890588704000</pproTicksOut>
										<sequence id="sequence-16"/>
										<sourcetrack>
											<mediatype>audio</mediatype>
											<trackindex>0</trackindex>
										</sourcetrack>
										<link>
											<linkclipref>clipitem-324</linkclipref>
											<mediatype>video</mediatype>
											<trackindex>1</trackindex>
											<clipindex>3</clipindex>
										</link>
										<link>
											<linkclipref>clipitem-367</linkclipref>
											<mediatype>audio</mediatype>
											<trackindex>1</trackindex>
											<clipindex>3</clipindex>
											<groupindex>1</groupindex>
										</link>
										<link>
											<linkclipref>clipitem-371</linkclipref>
											<mediatype>audio</mediatype>
											<trackindex>2</trackindex>
											<clipindex>3</clipindex>
											<groupindex>1</groupindex>
										</link>
										<labels>
											<label2>Forest</label2>
										</labels>
									</clipitem>
									<clipitem id="clipitem-368" premiereChannelType="stereo">
										<masterclipid>masterclip-87</masterclipid>
										<name>XTR_Kayaking with Dane Jackson. take notes! _1</name>
										<enabled>TRUE</enabled>
										<duration>1323</duration>
										<rate>
											<timebase>30</timebase>
											<ntsc>TRUE</ntsc>
										</rate>
										<start>3697</start>
										<end>5020</end>
										<in>0</in>
										<out>1323</out>
										<pproTicksIn>0</pproTicksIn>
										<pproTicksOut>11213307705600</pproTicksOut>
										<sequence id="sequence-18"/>
										<sourcetrack>
											<mediatype>audio</mediatype>
											<trackindex>0</trackindex>
										</sourcetrack>
										<link>
											<linkclipref>clipitem-337</linkclipref>
											<mediatype>video</mediatype>
											<trackindex>1</trackindex>
											<clipindex>4</clipindex>
										</link>
										<link>
											<linkclipref>clipitem-368</linkclipref>
											<mediatype>audio</mediatype>
											<trackindex>1</trackindex>
											<clipindex>4</clipindex>
											<groupindex>1</groupindex>
										</link>
										<link>
											<linkclipref>clipitem-372</linkclipref>
											<mediatype>audio</mediatype>
											<trackindex>2</trackindex>
											<clipindex>4</clipindex>
											<groupindex>1</groupindex>
										</link>
										<labels>
											<label2>Forest</label2>
										</labels>
									</clipitem>
									<enabled>TRUE</enabled>
									<locked>FALSE</locked>
									<outputchannelindex>1</outputchannelindex>
								</track>
								<track TL.SQTrackAudioKeyframeStyle="0" TL.SQTrackShy="0" TL.SQTrackExpandedHeight="25" TL.SQTrackExpanded="0" MZ.TrackTargeted="0" PannerCurrentValue="0.5" PannerIsInverted="true" PannerStartKeyframe="-91445760000000000,0.5,0,0,0,0,0,0" PannerName="Balance" currentExplodedTrackIndex="1" totalExplodedTrackCount="2" premiereTrackType="Stereo">
									<clipitem id="clipitem-369" premiereChannelType="stereo">
										<masterclipid>masterclip-83</masterclipid>
										<name>Animal_paw prints in the snow_1</name>
										<enabled>TRUE</enabled>
										<duration>1242</duration>
										<rate>
											<timebase>30</timebase>
											<ntsc>TRUE</ntsc>
										</rate>
										<start>0</start>
										<end>1242</end>
										<in>0</in>
										<out>1242</out>
										<pproTicksIn>0</pproTicksIn>
										<pproTicksOut>10526778662400</pproTicksOut>
										<sequence id="sequence-14"/>
										<sourcetrack>
											<mediatype>audio</mediatype>
											<trackindex>1</trackindex>
										</sourcetrack>
										<link>
											<linkclipref>clipitem-274</linkclipref>
											<mediatype>video</mediatype>
											<trackindex>1</trackindex>
											<clipindex>1</clipindex>
										</link>
										<link>
											<linkclipref>clipitem-365</linkclipref>
											<mediatype>audio</mediatype>
											<trackindex>1</trackindex>
											<clipindex>1</clipindex>
											<groupindex>1</groupindex>
										</link>
										<link>
											<linkclipref>clipitem-369</linkclipref>
											<mediatype>audio</mediatype>
											<trackindex>2</trackindex>
											<clipindex>1</clipindex>
											<groupindex>1</groupindex>
										</link>
										<labels>
											<label2>Forest</label2>
										</labels>
									</clipitem>
									<clipitem id="clipitem-370" premiereChannelType="stereo">
										<masterclipid>masterclip-84</masterclipid>
										<name>DRONE_the vintage tunes of wilderness_1</name>
										<enabled>TRUE</enabled>
										<duration>1613</duration>
										<rate>
											<timebase>30</timebase>
											<ntsc>TRUE</ntsc>
										</rate>
										<start>1295</start>
										<end>2908</end>
										<in>0</in>
										<out>1613</out>
										<pproTicksIn>0</pproTicksIn>
										<pproTicksOut>13671251193600</pproTicksOut>
										<sequence id="sequence-15"/>
										<sourcetrack>
											<mediatype>audio</mediatype>
											<trackindex>1</trackindex>
										</sourcetrack>
										<link>
											<linkclipref>clipitem-301</linkclipref>
											<mediatype>video</mediatype>
											<trackindex>1</trackindex>
											<clipindex>2</clipindex>
										</link>
										<link>
											<linkclipref>clipitem-366</linkclipref>
											<mediatype>audio</mediatype>
											<trackindex>1</trackindex>
											<clipindex>2</clipindex>
											<groupindex>1</groupindex>
										</link>
										<link>
											<linkclipref>clipitem-370</linkclipref>
											<mediatype>audio</mediatype>
											<trackindex>2</trackindex>
											<clipindex>2</clipindex>
											<groupindex>1</groupindex>
										</link>
										<labels>
											<label2>Forest</label2>
										</labels>
									</clipitem>
									<clipitem id="clipitem-371" premiereChannelType="stereo">
										<masterclipid>masterclip-85</masterclipid>
										<name>AWE_american ski idol auditions_1</name>
										<enabled>TRUE</enabled>
										<duration>695</duration>
										<rate>
											<timebase>30</timebase>
											<ntsc>TRUE</ntsc>
										</rate>
										<start>2961</start>
										<end>3656</end>
										<in>0</in>
										<out>695</out>
										<pproTicksIn>0</pproTicksIn>
										<pproTicksOut>5890588704000</pproTicksOut>
										<sequence id="sequence-16"/>
										<sourcetrack>
											<mediatype>audio</mediatype>
											<trackindex>1</trackindex>
										</sourcetrack>
										<link>
											<linkclipref>clipitem-324</linkclipref>
											<mediatype>video</mediatype>
											<trackindex>1</trackindex>
											<clipindex>3</clipindex>
										</link>
										<link>
											<linkclipref>clipitem-367</linkclipref>
											<mediatype>audio</mediatype>
											<trackindex>1</trackindex>
											<clipindex>3</clipindex>
											<groupindex>1</groupindex>
										</link>
										<link>
											<linkclipref>clipitem-371</linkclipref>
											<mediatype>audio</mediatype>
											<trackindex>2</trackindex>
											<clipindex>3</clipindex>
											<groupindex>1</groupindex>
										</link>
										<labels>
											<label2>Forest</label2>
										</labels>
									</clipitem>
									<clipitem id="clipitem-372" premiereChannelType="stereo">
										<masterclipid>masterclip-87</masterclipid>
										<name>XTR_Kayaking with Dane Jackson. take notes! _1</name>
										<enabled>TRUE</enabled>
										<duration>1323</duration>
										<rate>
											<timebase>30</timebase>
											<ntsc>TRUE</ntsc>
										</rate>
										<start>3697</start>
										<end>5020</end>
										<in>0</in>
										<out>1323</out>
										<pproTicksIn>0</pproTicksIn>
										<pproTicksOut>11213307705600</pproTicksOut>
										<sequence id="sequence-18"/>
										<sourcetrack>
											<mediatype>audio</mediatype>
											<trackindex>1</trackindex>
										</sourcetrack>
										<link>
											<linkclipref>clipitem-337</linkclipref>
											<mediatype>video</mediatype>
											<trackindex>1</trackindex>
											<clipindex>4</clipindex>
										</link>
										<link>
											<linkclipref>clipitem-368</linkclipref>
											<mediatype>audio</mediatype>
											<trackindex>1</trackindex>
											<clipindex>4</clipindex>
											<groupindex>1</groupindex>
										</link>
										<link>
											<linkclipref>clipitem-372</linkclipref>
											<mediatype>audio</mediatype>
											<trackindex>2</trackindex>
											<clipindex>4</clipindex>
											<groupindex>1</groupindex>
										</link>
										<labels>
											<label2>Forest</label2>
										</labels>
									</clipitem>
									<enabled>TRUE</enabled>
									<locked>FALSE</locked>
									<outputchannelindex>2</outputchannelindex>
								</track>
								<track TL.SQTrackAudioKeyframeStyle="0" TL.SQTrackShy="0" TL.SQTrackExpandedHeight="25" TL.SQTrackExpanded="0" MZ.TrackTargeted="0" PannerCurrentValue="0.5" PannerIsInverted="true" PannerStartKeyframe="-91445760000000000,0.5,0,0,0,0,0,0" PannerName="Balance" currentExplodedTrackIndex="0" totalExplodedTrackCount="2" premiereTrackType="Stereo">
									<clipitem id="clipitem-373" premiereChannelType="stereo">
										<masterclipid>masterclip-80</masterclipid>
										<name>Trans 1 </name>
										<enabled>TRUE</enabled>
										<duration>117</duration>
										<rate>
											<timebase>30</timebase>
											<ntsc>TRUE</ntsc>
										</rate>
										<start>1218</start>
										<end>1335</end>
										<in>0</in>
										<out>117</out>
										<pproTicksIn>0</pproTicksIn>
										<pproTicksOut>991653062400</pproTicksOut>
										<sequence id="sequence-4"/>
										<sourcetrack>
											<mediatype>audio</mediatype>
											<trackindex>0</trackindex>
										</sourcetrack>
										<link>
											<linkclipref>clipitem-360</linkclipref>
											<mediatype>video</mediatype>
											<trackindex>4</trackindex>
											<clipindex>1</clipindex>
										</link>
										<link>
											<linkclipref>clipitem-373</linkclipref>
											<mediatype>audio</mediatype>
											<trackindex>3</trackindex>
											<clipindex>1</clipindex>
											<groupindex>1</groupindex>
										</link>
										<link>
											<linkclipref>clipitem-377</linkclipref>
											<mediatype>audio</mediatype>
											<trackindex>4</trackindex>
											<clipindex>1</clipindex>
											<groupindex>1</groupindex>
										</link>
										<labels>
											<label2>Forest</label2>
										</labels>
									</clipitem>
									<clipitem id="clipitem-374" premiereChannelType="stereo">
										<masterclipid>masterclip-80</masterclipid>
										<name>Trans 1 </name>
										<enabled>TRUE</enabled>
										<duration>117</duration>
										<rate>
											<timebase>30</timebase>
											<ntsc>TRUE</ntsc>
										</rate>
										<start>2891</start>
										<end>3008</end>
										<in>0</in>
										<out>117</out>
										<pproTicksIn>0</pproTicksIn>
										<pproTicksOut>991653062400</pproTicksOut>
										<sequence id="sequence-4"/>
										<sourcetrack>
											<mediatype>audio</mediatype>
											<trackindex>0</trackindex>
										</sourcetrack>
										<link>
											<linkclipref>clipitem-361</linkclipref>
											<mediatype>video</mediatype>
											<trackindex>4</trackindex>
											<clipindex>2</clipindex>
										</link>
										<link>
											<linkclipref>clipitem-374</linkclipref>
											<mediatype>audio</mediatype>
											<trackindex>3</trackindex>
											<clipindex>2</clipindex>
											<groupindex>1</groupindex>
										</link>
										<link>
											<linkclipref>clipitem-378</linkclipref>
											<mediatype>audio</mediatype>
											<trackindex>4</trackindex>
											<clipindex>2</clipindex>
											<groupindex>1</groupindex>
										</link>
										<labels>
											<label2>Forest</label2>
										</labels>
									</clipitem>
									<clipitem id="clipitem-375" premiereChannelType="stereo">
										<masterclipid>masterclip-81</masterclipid>
										<name>trans 2</name>
										<enabled>TRUE</enabled>
										<duration>77</duration>
										<rate>
											<timebase>30</timebase>
											<ntsc>TRUE</ntsc>
										</rate>
										<start>3637</start>
										<end>3714</end>
										<in>0</in>
										<out>77</out>
										<pproTicksIn>0</pproTicksIn>
										<pproTicksOut>652626374400</pproTicksOut>
										<sequence id="sequence-12"/>
										<sourcetrack>
											<mediatype>audio</mediatype>
											<trackindex>0</trackindex>
										</sourcetrack>
										<link>
											<linkclipref>clipitem-362</linkclipref>
											<mediatype>video</mediatype>
											<trackindex>4</trackindex>
											<clipindex>3</clipindex>
										</link>
										<link>
											<linkclipref>clipitem-375</linkclipref>
											<mediatype>audio</mediatype>
											<trackindex>3</trackindex>
											<clipindex>3</clipindex>
											<groupindex>1</groupindex>
										</link>
										<link>
											<linkclipref>clipitem-379</linkclipref>
											<mediatype>audio</mediatype>
											<trackindex>4</trackindex>
											<clipindex>3</clipindex>
											<groupindex>1</groupindex>
										</link>
										<labels>
											<label2>Forest</label2>
										</labels>
									</clipitem>
									<clipitem id="clipitem-376" premiereChannelType="stereo">
										<masterclipid>masterclip-80</masterclipid>
										<name>Trans 1 </name>
										<enabled>TRUE</enabled>
										<duration>117</duration>
										<rate>
											<timebase>30</timebase>
											<ntsc>TRUE</ntsc>
										</rate>
										<start>5003</start>
										<end>5120</end>
										<in>0</in>
										<out>117</out>
										<pproTicksIn>0</pproTicksIn>
										<pproTicksOut>991653062400</pproTicksOut>
										<sequence id="sequence-4"/>
										<sourcetrack>
											<mediatype>audio</mediatype>
											<trackindex>0</trackindex>
										</sourcetrack>
										<link>
											<linkclipref>clipitem-363</linkclipref>
											<mediatype>video</mediatype>
											<trackindex>4</trackindex>
											<clipindex>4</clipindex>
										</link>
										<link>
											<linkclipref>clipitem-376</linkclipref>
											<mediatype>audio</mediatype>
											<trackindex>3</trackindex>
											<clipindex>4</clipindex>
											<groupindex>1</groupindex>
										</link>
										<link>
											<linkclipref>clipitem-380</linkclipref>
											<mediatype>audio</mediatype>
											<trackindex>4</trackindex>
											<clipindex>4</clipindex>
											<groupindex>1</groupindex>
										</link>
										<labels>
											<label2>Forest</label2>
										</labels>
									</clipitem>
									<enabled>TRUE</enabled>
									<locked>FALSE</locked>
									<outputchannelindex>1</outputchannelindex>
								</track>
								<track TL.SQTrackAudioKeyframeStyle="0" TL.SQTrackShy="0" TL.SQTrackExpandedHeight="25" TL.SQTrackExpanded="0" MZ.TrackTargeted="0" PannerCurrentValue="0.5" PannerIsInverted="true" PannerStartKeyframe="-91445760000000000,0.5,0,0,0,0,0,0" PannerName="Balance" currentExplodedTrackIndex="1" totalExplodedTrackCount="2" premiereTrackType="Stereo">
									<clipitem id="clipitem-377" premiereChannelType="stereo">
										<masterclipid>masterclip-80</masterclipid>
										<name>Trans 1 </name>
										<enabled>TRUE</enabled>
										<duration>117</duration>
										<rate>
											<timebase>30</timebase>
											<ntsc>TRUE</ntsc>
										</rate>
										<start>1218</start>
										<end>1335</end>
										<in>0</in>
										<out>117</out>
										<pproTicksIn>0</pproTicksIn>
										<pproTicksOut>991653062400</pproTicksOut>
										<sequence id="sequence-4"/>
										<sourcetrack>
											<mediatype>audio</mediatype>
											<trackindex>1</trackindex>
										</sourcetrack>
										<link>
											<linkclipref>clipitem-360</linkclipref>
											<mediatype>video</mediatype>
											<trackindex>4</trackindex>
											<clipindex>1</clipindex>
										</link>
										<link>
											<linkclipref>clipitem-373</linkclipref>
											<mediatype>audio</mediatype>
											<trackindex>3</trackindex>
											<clipindex>1</clipindex>
											<groupindex>1</groupindex>
										</link>
										<link>
											<linkclipref>clipitem-377</linkclipref>
											<mediatype>audio</mediatype>
											<trackindex>4</trackindex>
											<clipindex>1</clipindex>
											<groupindex>1</groupindex>
										</link>
										<labels>
											<label2>Forest</label2>
										</labels>
									</clipitem>
									<clipitem id="clipitem-378" premiereChannelType="stereo">
										<masterclipid>masterclip-80</masterclipid>
										<name>Trans 1 </name>
										<enabled>TRUE</enabled>
										<duration>117</duration>
										<rate>
											<timebase>30</timebase>
											<ntsc>TRUE</ntsc>
										</rate>
										<start>2891</start>
										<end>3008</end>
										<in>0</in>
										<out>117</out>
										<pproTicksIn>0</pproTicksIn>
										<pproTicksOut>991653062400</pproTicksOut>
										<sequence id="sequence-4"/>
										<sourcetrack>
											<mediatype>audio</mediatype>
											<trackindex>1</trackindex>
										</sourcetrack>
										<link>
											<linkclipref>clipitem-361</linkclipref>
											<mediatype>video</mediatype>
											<trackindex>4</trackindex>
											<clipindex>2</clipindex>
										</link>
										<link>
											<linkclipref>clipitem-374</linkclipref>
											<mediatype>audio</mediatype>
											<trackindex>3</trackindex>
											<clipindex>2</clipindex>
											<groupindex>1</groupindex>
										</link>
										<link>
											<linkclipref>clipitem-378</linkclipref>
											<mediatype>audio</mediatype>
											<trackindex>4</trackindex>
											<clipindex>2</clipindex>
											<groupindex>1</groupindex>
										</link>
										<labels>
											<label2>Forest</label2>
										</labels>
									</clipitem>
									<clipitem id="clipitem-379" premiereChannelType="stereo">
										<masterclipid>masterclip-81</masterclipid>
										<name>trans 2</name>
										<enabled>TRUE</enabled>
										<duration>77</duration>
										<rate>
											<timebase>30</timebase>
											<ntsc>TRUE</ntsc>
										</rate>
										<start>3637</start>
										<end>3714</end>
										<in>0</in>
										<out>77</out>
										<pproTicksIn>0</pproTicksIn>
										<pproTicksOut>652626374400</pproTicksOut>
										<sequence id="sequence-12"/>
										<sourcetrack>
											<mediatype>audio</mediatype>
											<trackindex>1</trackindex>
										</sourcetrack>
										<link>
											<linkclipref>clipitem-362</linkclipref>
											<mediatype>video</mediatype>
											<trackindex>4</trackindex>
											<clipindex>3</clipindex>
										</link>
										<link>
											<linkclipref>clipitem-375</linkclipref>
											<mediatype>audio</mediatype>
											<trackindex>3</trackindex>
											<clipindex>3</clipindex>
											<groupindex>1</groupindex>
										</link>
										<link>
											<linkclipref>clipitem-379</linkclipref>
											<mediatype>audio</mediatype>
											<trackindex>4</trackindex>
											<clipindex>3</clipindex>
											<groupindex>1</groupindex>
										</link>
										<labels>
											<label2>Forest</label2>
										</labels>
									</clipitem>
									<clipitem id="clipitem-380" premiereChannelType="stereo">
										<masterclipid>masterclip-80</masterclipid>
										<name>Trans 1 </name>
										<enabled>TRUE</enabled>
										<duration>117</duration>
										<rate>
											<timebase>30</timebase>
											<ntsc>TRUE</ntsc>
										</rate>
										<start>5003</start>
										<end>5120</end>
										<in>0</in>
										<out>117</out>
										<pproTicksIn>0</pproTicksIn>
										<pproTicksOut>991653062400</pproTicksOut>
										<sequence id="sequence-4"/>
										<sourcetrack>
											<mediatype>audio</mediatype>
											<trackindex>1</trackindex>
										</sourcetrack>
										<link>
											<linkclipref>clipitem-363</linkclipref>
											<mediatype>video</mediatype>
											<trackindex>4</trackindex>
											<clipindex>4</clipindex>
										</link>
										<link>
											<linkclipref>clipitem-376</linkclipref>
											<mediatype>audio</mediatype>
											<trackindex>3</trackindex>
											<clipindex>4</clipindex>
											<groupindex>1</groupindex>
										</link>
										<link>
											<linkclipref>clipitem-380</linkclipref>
											<mediatype>audio</mediatype>
											<trackindex>4</trackindex>
											<clipindex>4</clipindex>
											<groupindex>1</groupindex>
										</link>
										<labels>
											<label2>Forest</label2>
										</labels>
									</clipitem>
									<enabled>TRUE</enabled>
									<locked>FALSE</locked>
									<outputchannelindex>2</outputchannelindex>
								</track>
								<track TL.SQTrackAudioKeyframeStyle="0" TL.SQTrackShy="0" TL.SQTrackExpandedHeight="25" TL.SQTrackExpanded="0" MZ.TrackTargeted="0" PannerCurrentValue="0.5" PannerIsInverted="true" PannerStartKeyframe="-91445760000000000,0.5,0,0,0,0,0,0" PannerName="Balance" currentExplodedTrackIndex="0" totalExplodedTrackCount="2" premiereTrackType="Stereo">
									<enabled>TRUE</enabled>
									<locked>FALSE</locked>
									<outputchannelindex>1</outputchannelindex>
								</track>
								<track TL.SQTrackAudioKeyframeStyle="0" TL.SQTrackShy="0" TL.SQTrackExpandedHeight="25" TL.SQTrackExpanded="0" MZ.TrackTargeted="0" PannerCurrentValue="0.5" PannerIsInverted="true" PannerStartKeyframe="-91445760000000000,0.5,0,0,0,0,0,0" PannerName="Balance" currentExplodedTrackIndex="1" totalExplodedTrackCount="2" premiereTrackType="Stereo">
									<enabled>TRUE</enabled>
									<locked>FALSE</locked>
									<outputchannelindex>2</outputchannelindex>
								</track>
								<track TL.SQTrackAudioKeyframeStyle="0" TL.SQTrackShy="0" TL.SQTrackExpandedHeight="25" TL.SQTrackExpanded="0" MZ.TrackTargeted="0" PannerCurrentValue="0.5" PannerIsInverted="true" PannerStartKeyframe="-91445760000000000,0.5,0,0,0,0,0,0" PannerName="Balance" currentExplodedTrackIndex="0" totalExplodedTrackCount="2" premiereTrackType="Stereo">
									<enabled>TRUE</enabled>
									<locked>FALSE</locked>
									<outputchannelindex>1</outputchannelindex>
								</track>
								<track TL.SQTrackAudioKeyframeStyle="0" TL.SQTrackShy="0" TL.SQTrackExpandedHeight="25" TL.SQTrackExpanded="0" MZ.TrackTargeted="0" PannerCurrentValue="0.5" PannerIsInverted="true" PannerStartKeyframe="-91445760000000000,0.5,0,0,0,0,0,0" PannerName="Balance" currentExplodedTrackIndex="1" totalExplodedTrackCount="2" premiereTrackType="Stereo">
									<enabled>TRUE</enabled>
									<locked>FALSE</locked>
									<outputchannelindex>2</outputchannelindex>
								</track>
								<track TL.SQTrackAudioKeyframeStyle="0" TL.SQTrackShy="0" TL.SQTrackExpandedHeight="25" TL.SQTrackExpanded="0" MZ.TrackTargeted="0" PannerCurrentValue="0.5" PannerIsInverted="true" PannerStartKeyframe="-91445760000000000,0.5,0,0,0,0,0,0" PannerName="Balance" currentExplodedTrackIndex="0" totalExplodedTrackCount="2" premiereTrackType="Stereo">
									<enabled>TRUE</enabled>
									<locked>FALSE</locked>
									<outputchannelindex>1</outputchannelindex>
								</track>
								<track TL.SQTrackAudioKeyframeStyle="0" TL.SQTrackShy="0" TL.SQTrackExpandedHeight="25" TL.SQTrackExpanded="0" MZ.TrackTargeted="0" PannerCurrentValue="0.5" PannerIsInverted="true" PannerStartKeyframe="-91445760000000000,0.5,0,0,0,0,0,0" PannerName="Balance" currentExplodedTrackIndex="1" totalExplodedTrackCount="2" premiereTrackType="Stereo">
									<enabled>TRUE</enabled>
									<locked>FALSE</locked>
									<outputchannelindex>2</outputchannelindex>
								</track>
								<track TL.SQTrackAudioKeyframeStyle="0" TL.SQTrackShy="0" TL.SQTrackExpandedHeight="25" TL.SQTrackExpanded="0" MZ.TrackTargeted="0" PannerCurrentValue="0.5" PannerIsInverted="true" PannerStartKeyframe="-91445760000000000,0.5,0,0,0,0,0,0" PannerName="Balance" currentExplodedTrackIndex="0" totalExplodedTrackCount="2" premiereTrackType="Stereo">
									<enabled>TRUE</enabled>
									<locked>FALSE</locked>
									<outputchannelindex>1</outputchannelindex>
								</track>
								<track TL.SQTrackAudioKeyframeStyle="0" TL.SQTrackShy="0" TL.SQTrackExpandedHeight="25" TL.SQTrackExpanded="0" MZ.TrackTargeted="0" PannerCurrentValue="0.5" PannerIsInverted="true" PannerStartKeyframe="-91445760000000000,0.5,0,0,0,0,0,0" PannerName="Balance" currentExplodedTrackIndex="1" totalExplodedTrackCount="2" premiereTrackType="Stereo">
									<enabled>TRUE</enabled>
									<locked>FALSE</locked>
									<outputchannelindex>2</outputchannelindex>
								</track>
								<track TL.SQTrackAudioKeyframeStyle="0" TL.SQTrackShy="0" TL.SQTrackExpandedHeight="25" TL.SQTrackExpanded="0" MZ.TrackTargeted="0" PannerCurrentValue="0.5" PannerIsInverted="true" PannerStartKeyframe="-91445760000000000,0.5,0,0,0,0,0,0" PannerName="Balance" currentExplodedTrackIndex="0" totalExplodedTrackCount="2" premiereTrackType="Stereo">
									<enabled>TRUE</enabled>
									<locked>FALSE</locked>
									<outputchannelindex>1</outputchannelindex>
								</track>
								<track TL.SQTrackAudioKeyframeStyle="0" TL.SQTrackShy="0" TL.SQTrackExpandedHeight="25" TL.SQTrackExpanded="0" MZ.TrackTargeted="0" PannerCurrentValue="0.5" PannerIsInverted="true" PannerStartKeyframe="-91445760000000000,0.5,0,0,0,0,0,0" PannerName="Balance" currentExplodedTrackIndex="1" totalExplodedTrackCount="2" premiereTrackType="Stereo">
									<enabled>TRUE</enabled>
									<locked>FALSE</locked>
									<outputchannelindex>2</outputchannelindex>
								</track>
								<track TL.SQTrackAudioKeyframeStyle="0" TL.SQTrackShy="0" TL.SQTrackExpandedHeight="25" TL.SQTrackExpanded="0" MZ.TrackTargeted="0" PannerCurrentValue="0.5" PannerIsInverted="true" PannerStartKeyframe="-91445760000000000,0.5,0,0,0,0,0,0" PannerName="Balance" currentExplodedTrackIndex="0" totalExplodedTrackCount="2" premiereTrackType="Stereo">
									<enabled>TRUE</enabled>
									<locked>FALSE</locked>
									<outputchannelindex>1</outputchannelindex>
								</track>
								<track TL.SQTrackAudioKeyframeStyle="0" TL.SQTrackShy="0" TL.SQTrackExpandedHeight="25" TL.SQTrackExpanded="0" MZ.TrackTargeted="0" PannerCurrentValue="0.5" PannerIsInverted="true" PannerStartKeyframe="-91445760000000000,0.5,0,0,0,0,0,0" PannerName="Balance" currentExplodedTrackIndex="1" totalExplodedTrackCount="2" premiereTrackType="Stereo">
									<enabled>TRUE</enabled>
									<locked>FALSE</locked>
									<outputchannelindex>2</outputchannelindex>
								</track>
							</audio>
						</media>
						<timecode>
							<rate>
								<timebase>30</timebase>
								<ntsc>TRUE</ntsc>
							</rate>
							<string>00:00:00:00</string>
							<frame>0</frame>
							<displayformat>NDF</displayformat>
						</timecode>
						<labels>
							<label2>Forest</label2>
						</labels>
						<logginginfo>
							<description></description>
							<scene></scene>
							<shottake></shottake>
							<lognote></lognote>
							<good></good>
							<originalvideofilename></originalvideofilename>
							<originalaudiofilename></originalaudiofilename>
						</logginginfo>
					</sequence>
				</children>
			</bin>
			<bin>
				<name>2_Lower 3rds </name>
				<labels>
					<label2>Mango</label2>
				</labels>
				<children>
					<clip id="masterclip-78" explodedTracks="true">
						<uuid>a831ef6e-8a21-47a0-beaf-eb7e7e7a79b8</uuid>
						<masterclipid>masterclip-78</masterclipid>
						<ismasterclip>TRUE</ismasterclip>
						<duration>6750</duration>
						<rate>
							<timebase>30</timebase>
							<ntsc>TRUE</ntsc>
						</rate>
						<out>1193</out>
						<name>Alpine TV _ Main Lower Third/AlpineTV_LowerThird.aep</name>
						<media>
							<video>
								<track>
									<clipitem id="clipitem-381">
										<masterclipid>masterclip-78</masterclipid>
										<name>Alpine TV _ Main Lower Third/AlpineTV_LowerThird.aep</name>
										<rate>
											<timebase>30</timebase>
											<ntsc>TRUE</ntsc>
										</rate>
										<alphatype>straight</alphatype>
										<file id="file-74"/>
									</clipitem>
								</track>
							</video>
						</media>
						<logginginfo>
							<description></description>
							<scene></scene>
							<shottake></shottake>
							<lognote></lognote>
							<good></good>
							<originalvideofilename></originalvideofilename>
							<originalaudiofilename></originalaudiofilename>
						</logginginfo>
						<colorinfo>
							<lut></lut>
							<lut1></lut1>
							<asc_sop></asc_sop>
							<asc_sat></asc_sat>
							<lut2></lut2>
						</colorinfo>
						<labels>
							<label2>Rose</label2>
						</labels>
					</clip>
					<clip id="masterclip-91" explodedTracks="true">
						<uuid>42d47623-424c-43e5-b9d3-898ae4246098</uuid>
						<masterclipid>masterclip-91</masterclipid>
						<ismasterclip>TRUE</ismasterclip>
						<duration>6750</duration>
						<rate>
							<timebase>30</timebase>
							<ntsc>TRUE</ntsc>
						</rate>
						<out>1323</out>
						<name>Alpine TV _ Main Lower Third/AlpineTV_LowerThird.aep</name>
						<media>
							<video>
								<track>
									<clipitem id="clipitem-382">
										<masterclipid>masterclip-91</masterclipid>
										<name>Alpine TV _ Main Lower Third/AlpineTV_LowerThird.aep</name>
										<rate>
											<timebase>30</timebase>
											<ntsc>TRUE</ntsc>
										</rate>
										<alphatype>straight</alphatype>
										<file id="file-78"/>
									</clipitem>
								</track>
							</video>
						</media>
						<logginginfo>
							<description></description>
							<scene></scene>
							<shottake></shottake>
							<lognote></lognote>
							<good></good>
							<originalvideofilename></originalvideofilename>
							<originalaudiofilename></originalaudiofilename>
						</logginginfo>
						<colorinfo>
							<lut></lut>
							<lut1></lut1>
							<asc_sop></asc_sop>
							<asc_sat></asc_sat>
							<lut2></lut2>
						</colorinfo>
						<labels>
							<label2>Rose</label2>
						</labels>
					</clip>
					<clip id="masterclip-88" explodedTracks="true">
						<uuid>535d305f-c313-4cd6-a7e0-e132170be893</uuid>
						<masterclipid>masterclip-88</masterclipid>
						<ismasterclip>TRUE</ismasterclip>
						<duration>6750</duration>
						<rate>
							<timebase>30</timebase>
							<ntsc>TRUE</ntsc>
						</rate>
						<out>1242</out>
						<name>Alpine TV _ Main Lower Third/AlpineTV_LowerThird.aep</name>
						<media>
							<video>
								<track>
									<clipitem id="clipitem-383">
										<masterclipid>masterclip-88</masterclipid>
										<name>Alpine TV _ Main Lower Third/AlpineTV_LowerThird.aep</name>
										<rate>
											<timebase>30</timebase>
											<ntsc>TRUE</ntsc>
										</rate>
										<alphatype>straight</alphatype>
										<file id="file-75"/>
									</clipitem>
								</track>
							</video>
						</media>
						<logginginfo>
							<description></description>
							<scene></scene>
							<shottake></shottake>
							<lognote></lognote>
							<good></good>
							<originalvideofilename></originalvideofilename>
							<originalaudiofilename></originalaudiofilename>
						</logginginfo>
						<colorinfo>
							<lut></lut>
							<lut1></lut1>
							<asc_sop></asc_sop>
							<asc_sat></asc_sat>
							<lut2></lut2>
						</colorinfo>
						<labels>
							<label2>Rose</label2>
						</labels>
					</clip>
					<clip id="masterclip-90" explodedTracks="true">
						<uuid>b7570576-c154-4e22-9895-180c960ebb22</uuid>
						<masterclipid>masterclip-90</masterclipid>
						<ismasterclip>TRUE</ismasterclip>
						<duration>6750</duration>
						<rate>
							<timebase>30</timebase>
							<ntsc>TRUE</ntsc>
						</rate>
						<out>695</out>
						<name>Alpine TV _ Main Lower Third/AlpineTV_LowerThird.aep</name>
						<media>
							<video>
								<track>
									<clipitem id="clipitem-384">
										<masterclipid>masterclip-90</masterclipid>
										<name>Alpine TV _ Main Lower Third/AlpineTV_LowerThird.aep</name>
										<rate>
											<timebase>30</timebase>
											<ntsc>TRUE</ntsc>
										</rate>
										<alphatype>straight</alphatype>
										<file id="file-77"/>
									</clipitem>
								</track>
							</video>
						</media>
						<logginginfo>
							<description></description>
							<scene></scene>
							<shottake></shottake>
							<lognote></lognote>
							<good></good>
							<originalvideofilename></originalvideofilename>
							<originalaudiofilename></originalaudiofilename>
						</logginginfo>
						<colorinfo>
							<lut></lut>
							<lut1></lut1>
							<asc_sop></asc_sop>
							<asc_sat></asc_sat>
							<lut2></lut2>
						</colorinfo>
						<labels>
							<label2>Rose</label2>
						</labels>
					</clip>
					<clip id="masterclip-89" explodedTracks="true">
						<uuid>58bcadb0-3d83-4eba-bd3f-45a2acc791f4</uuid>
						<masterclipid>masterclip-89</masterclipid>
						<ismasterclip>TRUE</ismasterclip>
						<duration>6750</duration>
						<rate>
							<timebase>30</timebase>
							<ntsc>TRUE</ntsc>
						</rate>
						<out>1613</out>
						<name>Alpine TV _ Main Lower Third/AlpineTV_LowerThird.aep</name>
						<media>
							<video>
								<track>
									<clipitem id="clipitem-385">
										<masterclipid>masterclip-89</masterclipid>
										<name>Alpine TV _ Main Lower Third/AlpineTV_LowerThird.aep</name>
										<rate>
											<timebase>30</timebase>
											<ntsc>TRUE</ntsc>
										</rate>
										<alphatype>straight</alphatype>
										<file id="file-76"/>
									</clipitem>
								</track>
							</video>
						</media>
						<logginginfo>
							<description></description>
							<scene></scene>
							<shottake></shottake>
							<lognote></lognote>
							<good></good>
							<originalvideofilename></originalvideofilename>
							<originalaudiofilename></originalaudiofilename>
						</logginginfo>
						<colorinfo>
							<lut></lut>
							<lut1></lut1>
							<asc_sop></asc_sop>
							<asc_sat></asc_sat>
							<lut2></lut2>
						</colorinfo>
						<labels>
							<label2>Rose</label2>
						</labels>
					</clip>
					<clip id="masterclip-77" explodedTracks="true">
						<uuid>1d4353ed-15db-48b9-b964-a8f1c9a0d661</uuid>
						<masterclipid>masterclip-77</masterclipid>
						<ismasterclip>TRUE</ismasterclip>
						<duration>6750</duration>
						<rate>
							<timebase>30</timebase>
							<ntsc>TRUE</ntsc>
						</rate>
						<out>2229</out>
						<name>Alpine TV _ Main Lower Third/AlpineTV_LowerThird.aep</name>
						<media>
							<video>
								<track>
									<clipitem id="clipitem-386">
										<masterclipid>masterclip-77</masterclipid>
										<name>Alpine TV _ Main Lower Third/AlpineTV_LowerThird.aep</name>
										<rate>
											<timebase>30</timebase>
											<ntsc>TRUE</ntsc>
										</rate>
										<alphatype>straight</alphatype>
										<file id="file-73"/>
									</clipitem>
								</track>
							</video>
						</media>
						<logginginfo>
							<description></description>
							<scene></scene>
							<shottake></shottake>
							<lognote></lognote>
							<good></good>
							<originalvideofilename></originalvideofilename>
							<originalaudiofilename></originalaudiofilename>
						</logginginfo>
						<colorinfo>
							<lut></lut>
							<lut1></lut1>
							<asc_sop></asc_sop>
							<asc_sat></asc_sat>
							<lut2></lut2>
						</colorinfo>
						<labels>
							<label2>Rose</label2>
						</labels>
					</clip>
					<clip id="masterclip-76" explodedTracks="true">
						<uuid>8a58bb27-b432-4ab9-bdb0-f0eee39f5cce</uuid>
						<masterclipid>masterclip-76</masterclipid>
						<ismasterclip>TRUE</ismasterclip>
						<duration>6750</duration>
						<rate>
							<timebase>30</timebase>
							<ntsc>TRUE</ntsc>
						</rate>
						<out>1944</out>
						<name>Alpine TV _ Main Lower Third/AlpineTV_LowerThird.aep</name>
						<media>
							<video>
								<track>
									<clipitem id="clipitem-387">
										<masterclipid>masterclip-76</masterclipid>
										<name>Alpine TV _ Main Lower Third/AlpineTV_LowerThird.aep</name>
										<rate>
											<timebase>30</timebase>
											<ntsc>TRUE</ntsc>
										</rate>
										<alphatype>straight</alphatype>
										<file id="file-72"/>
									</clipitem>
								</track>
							</video>
						</media>
						<logginginfo>
							<description></description>
							<scene></scene>
							<shottake></shottake>
							<lognote></lognote>
							<good></good>
							<originalvideofilename></originalvideofilename>
							<originalaudiofilename></originalaudiofilename>
						</logginginfo>
						<colorinfo>
							<lut></lut>
							<lut1></lut1>
							<asc_sop></asc_sop>
							<asc_sat></asc_sat>
							<lut2></lut2>
						</colorinfo>
						<labels>
							<label2>Rose</label2>
						</labels>
					</clip>
				</children>
			</bin>
			<bin>
				<name>3_Nest Sequences</name>
				<labels>
					<label2>Mango</label2>
				</labels>
				<children>
<sequence id="sequence-11"/>
<sequence id="sequence-9"/>
<sequence id="sequence-10"/>
<sequence id="sequence-14"/>
<sequence id="sequence-15"/>
<sequence id="sequence-18"/>
<sequence id="sequence-16"/>
				</children>
			</bin>
			<bin>
				<name>5_Transitions </name>
				<labels>
					<label2>Mango</label2>
				</labels>
				<children>
					<sequence id="sequence-19" TL.SQAudioVisibleBase="0" TL.SQVideoVisibleBase="0" TL.SQVisibleBaseTime="0" TL.SQAVDividerPosition="0.5" TL.SQHideShyTracks="0" TL.SQHeaderWidth="236" Monitor.ProgramZoomOut="652626374400" Monitor.ProgramZoomIn="0" TL.SQTimePerPixel="0.0072365974787411309" MZ.EditLine="186464678400" MZ.Sequence.PreviewFrameSizeHeight="1080" MZ.Sequence.PreviewFrameSizeWidth="1920" MZ.Sequence.AudioTimeDisplayFormat="200" MZ.Sequence.PreviewRenderingClassID="1297106761" MZ.Sequence.PreviewRenderingPresetCodec="1297107278" MZ.Sequence.PreviewRenderingPresetPath="EncoderPresets/SequencePreview/795454d9-d3c2-429d-9474-923ab13b7018/I-Frame Only MPEG.epr" MZ.Sequence.PreviewUseMaxRenderQuality="false" MZ.Sequence.PreviewUseMaxBitDepth="false" MZ.Sequence.EditingModeGUID="795454d9-d3c2-429d-9474-923ab13b7018" MZ.Sequence.VideoTimeDisplayFormat="103" MZ.WorkOutPoint="652626374400" MZ.WorkInPoint="0" explodedTracks="true">
						<uuid>bee72a2f-5f44-4024-802d-3945992cd34f</uuid>
						<duration>0</duration>
						<rate>
							<timebase>30</timebase>
							<ntsc>TRUE</ntsc>
						</rate>
						<name>03_Trans </name>
						<media>
							<video>
								<format>
									<samplecharacteristics>
										<rate>
											<timebase>30</timebase>
											<ntsc>TRUE</ntsc>
										</rate>
										<codec>
											<name>Apple ProRes 422</name>
											<appspecificdata>
												<appname>Final Cut Pro</appname>
												<appmanufacturer>Apple Inc.</appmanufacturer>
												<appversion>7.0</appversion>
												<data>
													<qtcodec>
														<codecname>Apple ProRes 422</codecname>
														<codectypename>Apple ProRes 422</codectypename>
														<codectypecode>apcn</codectypecode>
														<codecvendorcode>appl</codecvendorcode>
														<spatialquality>1024</spatialquality>
														<temporalquality>0</temporalquality>
														<keyframerate>0</keyframerate>
														<datarate>0</datarate>
													</qtcodec>
												</data>
											</appspecificdata>
										</codec>
										<width>1920</width>
										<height>1080</height>
										<anamorphic>FALSE</anamorphic>
										<pixelaspectratio>square</pixelaspectratio>
										<fielddominance>none</fielddominance>
										<colordepth>24</colordepth>
									</samplecharacteristics>
								</format>
								<track TL.SQTrackShy="0" TL.SQTrackExpandedHeight="25" TL.SQTrackExpanded="0" MZ.TrackTargeted="1">
									<enabled>TRUE</enabled>
									<locked>FALSE</locked>
								</track>
								<track TL.SQTrackShy="0" TL.SQTrackExpandedHeight="25" TL.SQTrackExpanded="0" MZ.TrackTargeted="0">
									<enabled>TRUE</enabled>
									<locked>FALSE</locked>
								</track>
								<track TL.SQTrackShy="0" TL.SQTrackExpandedHeight="25" TL.SQTrackExpanded="0" MZ.TrackTargeted="0">
									<enabled>TRUE</enabled>
									<locked>FALSE</locked>
								</track>
								<track TL.SQTrackShy="0" TL.SQTrackExpandedHeight="25" TL.SQTrackExpanded="0" MZ.TrackTargeted="0">
									<enabled>TRUE</enabled>
									<locked>FALSE</locked>
								</track>
								<track TL.SQTrackShy="0" TL.SQTrackExpandedHeight="25" TL.SQTrackExpanded="0" MZ.TrackTargeted="0">
									<enabled>TRUE</enabled>
									<locked>FALSE</locked>
								</track>
								<track TL.SQTrackShy="0" TL.SQTrackExpandedHeight="25" TL.SQTrackExpanded="0" MZ.TrackTargeted="0">
									<clipitem id="clipitem-388">
										<masterclipid>masterclip-70</masterclipid>
										<name>03_ALPINE_Trans.mov</name>
										<enabled>TRUE</enabled>
										<duration>77</duration>
										<rate>
											<timebase>30</timebase>
											<ntsc>TRUE</ntsc>
										</rate>
										<start>0</start>
										<end>77</end>
										<in>0</in>
										<out>77</out>
										<pproTicksIn>0</pproTicksIn>
										<pproTicksOut>652626374400</pproTicksOut>
										<alphatype>none</alphatype>
										<file id="file-69"/>
											<marker>
												<comment></comment>
												<name></name>
												<in>60</in>
												<out>-1</out>
											</marker>
											<marker>
												<comment></comment>
												<name></name>
												<in>19</in>
												<out>-1</out>
											</marker>
										<link>
											<linkclipref>clipitem-388</linkclipref>
											<mediatype>video</mediatype>
											<trackindex>6</trackindex>
											<clipindex>1</clipindex>
										</link>
										<link>
											<linkclipref>clipitem-389</linkclipref>
											<mediatype>audio</mediatype>
											<trackindex>3</trackindex>
											<clipindex>1</clipindex>
											<groupindex>1</groupindex>
										</link>
										<link>
											<linkclipref>clipitem-390</linkclipref>
											<mediatype>audio</mediatype>
											<trackindex>4</trackindex>
											<clipindex>1</clipindex>
											<groupindex>1</groupindex>
										</link>
										<logginginfo>
											<description></description>
											<scene></scene>
											<shottake></shottake>
											<lognote></lognote>
											<good></good>
											<originalvideofilename></originalvideofilename>
											<originalaudiofilename></originalaudiofilename>
										</logginginfo>
										<colorinfo>
											<lut></lut>
											<lut1></lut1>
											<asc_sop></asc_sop>
											<asc_sat></asc_sat>
											<lut2></lut2>
										</colorinfo>
										<labels>
											<label2>Iris</label2>
										</labels>
									</clipitem>
									<enabled>TRUE</enabled>
									<locked>FALSE</locked>
								</track>
							</video>
							<audio>
								<numOutputChannels>2</numOutputChannels>
								<format>
									<samplecharacteristics>
										<depth>16</depth>
										<samplerate>44100</samplerate>
									</samplecharacteristics>
								</format>
								<outputs>
									<group>
										<index>1</index>
										<numchannels>1</numchannels>
										<downmix>0</downmix>
										<channel>
											<index>1</index>
										</channel>
									</group>
									<group>
										<index>2</index>
										<numchannels>1</numchannels>
										<downmix>0</downmix>
										<channel>
											<index>2</index>
										</channel>
									</group>
								</outputs>
								<track TL.SQTrackAudioKeyframeStyle="0" TL.SQTrackShy="0" TL.SQTrackExpandedHeight="25" TL.SQTrackExpanded="0" MZ.TrackTargeted="1" PannerCurrentValue="0.5" PannerIsInverted="true" PannerStartKeyframe="-91445760000000000,0.5,0,0,0,0,0,0" PannerName="Balance" currentExplodedTrackIndex="0" totalExplodedTrackCount="2" premiereTrackType="Stereo">
									<enabled>TRUE</enabled>
									<locked>FALSE</locked>
									<outputchannelindex>1</outputchannelindex>
								</track>
								<track TL.SQTrackAudioKeyframeStyle="0" TL.SQTrackShy="0" TL.SQTrackExpandedHeight="25" TL.SQTrackExpanded="0" MZ.TrackTargeted="1" PannerCurrentValue="0.5" PannerIsInverted="true" PannerStartKeyframe="-91445760000000000,0.5,0,0,0,0,0,0" PannerName="Balance" currentExplodedTrackIndex="1" totalExplodedTrackCount="2" premiereTrackType="Stereo">
									<enabled>TRUE</enabled>
									<locked>FALSE</locked>
									<outputchannelindex>2</outputchannelindex>
								</track>
								<track TL.SQTrackAudioKeyframeStyle="0" TL.SQTrackShy="0" TL.SQTrackExpandedHeight="25" TL.SQTrackExpanded="0" MZ.TrackTargeted="0" PannerCurrentValue="0.5" PannerIsInverted="true" PannerStartKeyframe="-91445760000000000,0.5,0,0,0,0,0,0" PannerName="Balance" currentExplodedTrackIndex="0" totalExplodedTrackCount="2" premiereTrackType="Stereo">
									<clipitem id="clipitem-389" premiereChannelType="stereo">
										<masterclipid>masterclip-70</masterclipid>
										<name>03_ALPINE_Trans.mov</name>
										<enabled>TRUE</enabled>
										<duration>77</duration>
										<rate>
											<timebase>30</timebase>
											<ntsc>TRUE</ntsc>
										</rate>
										<start>0</start>
										<end>77</end>
										<in>0</in>
										<out>77</out>
										<pproTicksIn>0</pproTicksIn>
										<pproTicksOut>652626374400</pproTicksOut>
										<file id="file-69"/>
										<sourcetrack>
											<mediatype>audio</mediatype>
											<trackindex>1</trackindex>
										</sourcetrack>
										<filter>
											<effect>
												<name>Gain</name>
												<effectid>{61756678, 4761696e, 4b657947}</effectid>
												<effecttype>filter</effecttype>
												<mediatype>audio</mediatype>
												<parameter authoringApp="PremierePro">
													<parameterid>Gain(dB)</parameterid>
													<name>Gain(dB)</name>
													<valuemin>-96</valuemin>
													<valuemax>96</valuemax>
													<value>-4</value>
												</parameter>
											</effect>
										</filter>
											<marker>
												<comment></comment>
												<name></name>
												<in>60</in>
												<out>-1</out>
											</marker>
											<marker>
												<comment></comment>
												<name></name>
												<in>19</in>
												<out>-1</out>
											</marker>
										<link>
											<linkclipref>clipitem-388</linkclipref>
											<mediatype>video</mediatype>
											<trackindex>6</trackindex>
											<clipindex>1</clipindex>
										</link>
										<link>
											<linkclipref>clipitem-389</linkclipref>
											<mediatype>audio</mediatype>
											<trackindex>3</trackindex>
											<clipindex>1</clipindex>
											<groupindex>1</groupindex>
										</link>
										<link>
											<linkclipref>clipitem-390</linkclipref>
											<mediatype>audio</mediatype>
											<trackindex>4</trackindex>
											<clipindex>1</clipindex>
											<groupindex>1</groupindex>
										</link>
										<logginginfo>
											<description></description>
											<scene></scene>
											<shottake></shottake>
											<lognote></lognote>
											<good></good>
											<originalvideofilename></originalvideofilename>
											<originalaudiofilename></originalaudiofilename>
										</logginginfo>
										<colorinfo>
											<lut></lut>
											<lut1></lut1>
											<asc_sop></asc_sop>
											<asc_sat></asc_sat>
											<lut2></lut2>
										</colorinfo>
										<labels>
											<label2>Iris</label2>
										</labels>
									</clipitem>
									<enabled>TRUE</enabled>
									<locked>FALSE</locked>
									<outputchannelindex>1</outputchannelindex>
								</track>
								<track TL.SQTrackAudioKeyframeStyle="0" TL.SQTrackShy="0" TL.SQTrackExpandedHeight="25" TL.SQTrackExpanded="0" MZ.TrackTargeted="0" PannerCurrentValue="0.5" PannerIsInverted="true" PannerStartKeyframe="-91445760000000000,0.5,0,0,0,0,0,0" PannerName="Balance" currentExplodedTrackIndex="1" totalExplodedTrackCount="2" premiereTrackType="Stereo">
									<clipitem id="clipitem-390" premiereChannelType="stereo">
										<masterclipid>masterclip-70</masterclipid>
										<name>03_ALPINE_Trans.mov</name>
										<enabled>TRUE</enabled>
										<duration>77</duration>
										<rate>
											<timebase>30</timebase>
											<ntsc>TRUE</ntsc>
										</rate>
										<start>0</start>
										<end>77</end>
										<in>0</in>
										<out>77</out>
										<pproTicksIn>0</pproTicksIn>
										<pproTicksOut>652626374400</pproTicksOut>
										<file id="file-69"/>
										<sourcetrack>
											<mediatype>audio</mediatype>
											<trackindex>2</trackindex>
										</sourcetrack>
										<filter>
											<effect>
												<name>Gain</name>
												<effectid>{61756678, 4761696e, 4b657947}</effectid>
												<effecttype>filter</effecttype>
												<mediatype>audio</mediatype>
												<parameter authoringApp="PremierePro">
													<parameterid>Gain(dB)</parameterid>
													<name>Gain(dB)</name>
													<valuemin>-96</valuemin>
													<valuemax>96</valuemax>
													<value>-4</value>
												</parameter>
											</effect>
										</filter>
											<marker>
												<comment></comment>
												<name></name>
												<in>60</in>
												<out>-1</out>
											</marker>
											<marker>
												<comment></comment>
												<name></name>
												<in>19</in>
												<out>-1</out>
											</marker>
										<link>
											<linkclipref>clipitem-388</linkclipref>
											<mediatype>video</mediatype>
											<trackindex>6</trackindex>
											<clipindex>1</clipindex>
										</link>
										<link>
											<linkclipref>clipitem-389</linkclipref>
											<mediatype>audio</mediatype>
											<trackindex>3</trackindex>
											<clipindex>1</clipindex>
											<groupindex>1</groupindex>
										</link>
										<link>
											<linkclipref>clipitem-390</linkclipref>
											<mediatype>audio</mediatype>
											<trackindex>4</trackindex>
											<clipindex>1</clipindex>
											<groupindex>1</groupindex>
										</link>
										<logginginfo>
											<description></description>
											<scene></scene>
											<shottake></shottake>
											<lognote></lognote>
											<good></good>
											<originalvideofilename></originalvideofilename>
											<originalaudiofilename></originalaudiofilename>
										</logginginfo>
										<colorinfo>
											<lut></lut>
											<lut1></lut1>
											<asc_sop></asc_sop>
											<asc_sat></asc_sat>
											<lut2></lut2>
										</colorinfo>
										<labels>
											<label2>Iris</label2>
										</labels>
									</clipitem>
									<enabled>TRUE</enabled>
									<locked>FALSE</locked>
									<outputchannelindex>2</outputchannelindex>
								</track>
							</audio>
						</media>
						<timecode>
							<rate>
								<timebase>30</timebase>
								<ntsc>TRUE</ntsc>
							</rate>
							<string>00:00:00:00</string>
							<frame>0</frame>
							<displayformat>NDF</displayformat>
						</timecode>
						<labels>
							<label2>Forest</label2>
						</labels>
						<logginginfo>
							<description></description>
							<scene></scene>
							<shottake></shottake>
							<lognote></lognote>
							<good></good>
							<originalvideofilename></originalvideofilename>
							<originalaudiofilename></originalaudiofilename>
						</logginginfo>
					</sequence>
					<sequence id="sequence-20" TL.SQAudioVisibleBase="0" TL.SQVideoVisibleBase="0" TL.SQVisibleBaseTime="16399086946200" TL.SQAVDividerPosition="0.5" TL.SQHideShyTracks="0" TL.SQHeaderWidth="236" Monitor.ProgramZoomOut="991653062400" Monitor.ProgramZoomIn="0" TL.SQTimePerPixel="0.029594446524864666" MZ.EditLine="0" MZ.Sequence.PreviewFrameSizeHeight="1080" MZ.Sequence.PreviewFrameSizeWidth="1920" MZ.Sequence.AudioTimeDisplayFormat="200" MZ.Sequence.PreviewRenderingClassID="1297106761" MZ.Sequence.PreviewRenderingPresetCodec="1297107278" MZ.Sequence.PreviewRenderingPresetPath="EncoderPresets/SequencePreview/795454d9-d3c2-429d-9474-923ab13b7018/I-Frame Only MPEG.epr" MZ.Sequence.PreviewUseMaxRenderQuality="false" MZ.Sequence.PreviewUseMaxBitDepth="false" MZ.Sequence.EditingModeGUID="795454d9-d3c2-429d-9474-923ab13b7018" MZ.Sequence.VideoTimeDisplayFormat="103" MZ.WorkOutPoint="991653062400" MZ.WorkInPoint="0" explodedTracks="true">
						<uuid>938307f0-d431-4dcc-97f6-1c1cd5f84a72</uuid>
						<duration>0</duration>
						<rate>
							<timebase>30</timebase>
							<ntsc>TRUE</ntsc>
						</rate>
						<name>01_Trans </name>
						<media>
							<video>
								<format>
									<samplecharacteristics>
										<rate>
											<timebase>30</timebase>
											<ntsc>TRUE</ntsc>
										</rate>
										<codec>
											<name>Apple ProRes 422</name>
											<appspecificdata>
												<appname>Final Cut Pro</appname>
												<appmanufacturer>Apple Inc.</appmanufacturer>
												<appversion>7.0</appversion>
												<data>
													<qtcodec>
														<codecname>Apple ProRes 422</codecname>
														<codectypename>Apple ProRes 422</codectypename>
														<codectypecode>apcn</codectypecode>
														<codecvendorcode>appl</codecvendorcode>
														<spatialquality>1024</spatialquality>
														<temporalquality>0</temporalquality>
														<keyframerate>0</keyframerate>
														<datarate>0</datarate>
													</qtcodec>
												</data>
											</appspecificdata>
										</codec>
										<width>1920</width>
										<height>1080</height>
										<anamorphic>FALSE</anamorphic>
										<pixelaspectratio>square</pixelaspectratio>
										<fielddominance>none</fielddominance>
										<colordepth>24</colordepth>
									</samplecharacteristics>
								</format>
								<track TL.SQTrackShy="0" TL.SQTrackExpandedHeight="25" TL.SQTrackExpanded="0" MZ.TrackTargeted="1">
									<enabled>TRUE</enabled>
									<locked>FALSE</locked>
								</track>
								<track TL.SQTrackShy="0" TL.SQTrackExpandedHeight="25" TL.SQTrackExpanded="0" MZ.TrackTargeted="0">
									<enabled>TRUE</enabled>
									<locked>FALSE</locked>
								</track>
								<track TL.SQTrackShy="0" TL.SQTrackExpandedHeight="25" TL.SQTrackExpanded="0" MZ.TrackTargeted="0">
									<enabled>TRUE</enabled>
									<locked>FALSE</locked>
								</track>
								<track TL.SQTrackShy="0" TL.SQTrackExpandedHeight="25" TL.SQTrackExpanded="0" MZ.TrackTargeted="0">
									<enabled>TRUE</enabled>
									<locked>FALSE</locked>
								</track>
								<track TL.SQTrackShy="0" TL.SQTrackExpandedHeight="25" TL.SQTrackExpanded="0" MZ.TrackTargeted="0">
									<enabled>TRUE</enabled>
									<locked>FALSE</locked>
								</track>
								<track TL.SQTrackShy="0" TL.SQTrackExpandedHeight="25" TL.SQTrackExpanded="0" MZ.TrackTargeted="0">
									<clipitem id="clipitem-391">
										<masterclipid>masterclip-69</masterclipid>
										<name>01_ALPINE_Trans.mov</name>
										<enabled>TRUE</enabled>
										<duration>117</duration>
										<rate>
											<timebase>30</timebase>
											<ntsc>TRUE</ntsc>
										</rate>
										<start>0</start>
										<end>117</end>
										<in>0</in>
										<out>117</out>
										<pproTicksIn>0</pproTicksIn>
										<pproTicksOut>991653062400</pproTicksOut>
										<alphatype>none</alphatype>
										<file id="file-68"/>
											<marker>
												<comment></comment>
												<name></name>
												<in>17</in>
												<out>-1</out>
											</marker>
											<marker>
												<comment></comment>
												<name></name>
												<in>70</in>
												<out>-1</out>
											</marker>
										<link>
											<linkclipref>clipitem-391</linkclipref>
											<mediatype>video</mediatype>
											<trackindex>6</trackindex>
											<clipindex>1</clipindex>
										</link>
										<link>
											<linkclipref>clipitem-392</linkclipref>
											<mediatype>audio</mediatype>
											<trackindex>3</trackindex>
											<clipindex>1</clipindex>
											<groupindex>1</groupindex>
										</link>
										<link>
											<linkclipref>clipitem-393</linkclipref>
											<mediatype>audio</mediatype>
											<trackindex>4</trackindex>
											<clipindex>1</clipindex>
											<groupindex>1</groupindex>
										</link>
										<logginginfo>
											<description></description>
											<scene></scene>
											<shottake></shottake>
											<lognote></lognote>
											<good></good>
											<originalvideofilename></originalvideofilename>
											<originalaudiofilename></originalaudiofilename>
										</logginginfo>
										<colorinfo>
											<lut></lut>
											<lut1></lut1>
											<asc_sop></asc_sop>
											<asc_sat></asc_sat>
											<lut2></lut2>
										</colorinfo>
										<labels>
											<label2>Iris</label2>
										</labels>
									</clipitem>
									<enabled>TRUE</enabled>
									<locked>FALSE</locked>
								</track>
							</video>
							<audio>
								<numOutputChannels>2</numOutputChannels>
								<format>
									<samplecharacteristics>
										<depth>16</depth>
										<samplerate>44100</samplerate>
									</samplecharacteristics>
								</format>
								<outputs>
									<group>
										<index>1</index>
										<numchannels>1</numchannels>
										<downmix>0</downmix>
										<channel>
											<index>1</index>
										</channel>
									</group>
									<group>
										<index>2</index>
										<numchannels>1</numchannels>
										<downmix>0</downmix>
										<channel>
											<index>2</index>
										</channel>
									</group>
								</outputs>
								<track TL.SQTrackAudioKeyframeStyle="0" TL.SQTrackShy="0" TL.SQTrackExpandedHeight="25" TL.SQTrackExpanded="0" MZ.TrackTargeted="1" PannerCurrentValue="0.5" PannerIsInverted="true" PannerStartKeyframe="-91445760000000000,0.5,0,0,0,0,0,0" PannerName="Balance" currentExplodedTrackIndex="0" totalExplodedTrackCount="2" premiereTrackType="Stereo">
									<enabled>TRUE</enabled>
									<locked>FALSE</locked>
									<outputchannelindex>1</outputchannelindex>
								</track>
								<track TL.SQTrackAudioKeyframeStyle="0" TL.SQTrackShy="0" TL.SQTrackExpandedHeight="25" TL.SQTrackExpanded="0" MZ.TrackTargeted="1" PannerCurrentValue="0.5" PannerIsInverted="true" PannerStartKeyframe="-91445760000000000,0.5,0,0,0,0,0,0" PannerName="Balance" currentExplodedTrackIndex="1" totalExplodedTrackCount="2" premiereTrackType="Stereo">
									<enabled>TRUE</enabled>
									<locked>FALSE</locked>
									<outputchannelindex>2</outputchannelindex>
								</track>
								<track TL.SQTrackAudioKeyframeStyle="0" TL.SQTrackShy="0" TL.SQTrackExpandedHeight="25" TL.SQTrackExpanded="0" MZ.TrackTargeted="0" PannerCurrentValue="0.5" PannerIsInverted="true" PannerStartKeyframe="-91445760000000000,0.5,0,0,0,0,0,0" PannerName="Balance" currentExplodedTrackIndex="0" totalExplodedTrackCount="2" premiereTrackType="Stereo">
									<clipitem id="clipitem-392" premiereChannelType="stereo">
										<masterclipid>masterclip-69</masterclipid>
										<name>01_ALPINE_Trans.mov</name>
										<enabled>TRUE</enabled>
										<duration>117</duration>
										<rate>
											<timebase>30</timebase>
											<ntsc>TRUE</ntsc>
										</rate>
										<start>0</start>
										<end>117</end>
										<in>0</in>
										<out>117</out>
										<pproTicksIn>0</pproTicksIn>
										<pproTicksOut>991653062400</pproTicksOut>
										<file id="file-68"/>
										<sourcetrack>
											<mediatype>audio</mediatype>
											<trackindex>1</trackindex>
										</sourcetrack>
										<filter>
											<effect>
												<name>Gain</name>
												<effectid>{61756678, 4761696e, 4b657947}</effectid>
												<effecttype>filter</effecttype>
												<mediatype>audio</mediatype>
												<parameter authoringApp="PremierePro">
													<parameterid>Gain(dB)</parameterid>
													<name>Gain(dB)</name>
													<valuemin>-96</valuemin>
													<valuemax>96</valuemax>
													<value>-4</value>
												</parameter>
											</effect>
										</filter>
											<marker>
												<comment></comment>
												<name></name>
												<in>17</in>
												<out>-1</out>
											</marker>
											<marker>
												<comment></comment>
												<name></name>
												<in>70</in>
												<out>-1</out>
											</marker>
										<link>
											<linkclipref>clipitem-391</linkclipref>
											<mediatype>video</mediatype>
											<trackindex>6</trackindex>
											<clipindex>1</clipindex>
										</link>
										<link>
											<linkclipref>clipitem-392</linkclipref>
											<mediatype>audio</mediatype>
											<trackindex>3</trackindex>
											<clipindex>1</clipindex>
											<groupindex>1</groupindex>
										</link>
										<link>
											<linkclipref>clipitem-393</linkclipref>
											<mediatype>audio</mediatype>
											<trackindex>4</trackindex>
											<clipindex>1</clipindex>
											<groupindex>1</groupindex>
										</link>
										<logginginfo>
											<description></description>
											<scene></scene>
											<shottake></shottake>
											<lognote></lognote>
											<good></good>
											<originalvideofilename></originalvideofilename>
											<originalaudiofilename></originalaudiofilename>
										</logginginfo>
										<colorinfo>
											<lut></lut>
											<lut1></lut1>
											<asc_sop></asc_sop>
											<asc_sat></asc_sat>
											<lut2></lut2>
										</colorinfo>
										<labels>
											<label2>Iris</label2>
										</labels>
									</clipitem>
									<enabled>TRUE</enabled>
									<locked>FALSE</locked>
									<outputchannelindex>1</outputchannelindex>
								</track>
								<track TL.SQTrackAudioKeyframeStyle="0" TL.SQTrackShy="0" TL.SQTrackExpandedHeight="25" TL.SQTrackExpanded="0" MZ.TrackTargeted="0" PannerCurrentValue="0.5" PannerIsInverted="true" PannerStartKeyframe="-91445760000000000,0.5,0,0,0,0,0,0" PannerName="Balance" currentExplodedTrackIndex="1" totalExplodedTrackCount="2" premiereTrackType="Stereo">
									<clipitem id="clipitem-393" premiereChannelType="stereo">
										<masterclipid>masterclip-69</masterclipid>
										<name>01_ALPINE_Trans.mov</name>
										<enabled>TRUE</enabled>
										<duration>117</duration>
										<rate>
											<timebase>30</timebase>
											<ntsc>TRUE</ntsc>
										</rate>
										<start>0</start>
										<end>117</end>
										<in>0</in>
										<out>117</out>
										<pproTicksIn>0</pproTicksIn>
										<pproTicksOut>991653062400</pproTicksOut>
										<file id="file-68"/>
										<sourcetrack>
											<mediatype>audio</mediatype>
											<trackindex>2</trackindex>
										</sourcetrack>
										<filter>
											<effect>
												<name>Gain</name>
												<effectid>{61756678, 4761696e, 4b657947}</effectid>
												<effecttype>filter</effecttype>
												<mediatype>audio</mediatype>
												<parameter authoringApp="PremierePro">
													<parameterid>Gain(dB)</parameterid>
													<name>Gain(dB)</name>
													<valuemin>-96</valuemin>
													<valuemax>96</valuemax>
													<value>-4</value>
												</parameter>
											</effect>
										</filter>
											<marker>
												<comment></comment>
												<name></name>
												<in>17</in>
												<out>-1</out>
											</marker>
											<marker>
												<comment></comment>
												<name></name>
												<in>70</in>
												<out>-1</out>
											</marker>
										<link>
											<linkclipref>clipitem-391</linkclipref>
											<mediatype>video</mediatype>
											<trackindex>6</trackindex>
											<clipindex>1</clipindex>
										</link>
										<link>
											<linkclipref>clipitem-392</linkclipref>
											<mediatype>audio</mediatype>
											<trackindex>3</trackindex>
											<clipindex>1</clipindex>
											<groupindex>1</groupindex>
										</link>
										<link>
											<linkclipref>clipitem-393</linkclipref>
											<mediatype>audio</mediatype>
											<trackindex>4</trackindex>
											<clipindex>1</clipindex>
											<groupindex>1</groupindex>
										</link>
										<logginginfo>
											<description></description>
											<scene></scene>
											<shottake></shottake>
											<lognote></lognote>
											<good></good>
											<originalvideofilename></originalvideofilename>
											<originalaudiofilename></originalaudiofilename>
										</logginginfo>
										<colorinfo>
											<lut></lut>
											<lut1></lut1>
											<asc_sop></asc_sop>
											<asc_sat></asc_sat>
											<lut2></lut2>
										</colorinfo>
										<labels>
											<label2>Iris</label2>
										</labels>
									</clipitem>
									<enabled>TRUE</enabled>
									<locked>FALSE</locked>
									<outputchannelindex>2</outputchannelindex>
								</track>
							</audio>
						</media>
						<timecode>
							<rate>
								<timebase>30</timebase>
								<ntsc>TRUE</ntsc>
							</rate>
							<string>00:00:00:00</string>
							<frame>0</frame>
							<displayformat>NDF</displayformat>
						</timecode>
						<labels>
							<label2>Forest</label2>
						</labels>
						<logginginfo>
							<description></description>
							<scene></scene>
							<shottake></shottake>
							<lognote></lognote>
							<good></good>
							<originalvideofilename></originalvideofilename>
							<originalaudiofilename></originalaudiofilename>
						</logginginfo>
					</sequence>
					<sequence id="sequence-21" TL.SQAudioVisibleBase="0" TL.SQVideoVisibleBase="0" TL.SQVisibleBaseTime="0" TL.SQAVDividerPosition="0.5" TL.SQHideShyTracks="0" TL.SQHeaderWidth="236" Monitor.ProgramZoomOut="991653062400" Monitor.ProgramZoomIn="0" TL.SQTimePerPixel="0.23157111931976182" MZ.EditLine="0" MZ.Sequence.PreviewFrameSizeHeight="1080" MZ.Sequence.PreviewFrameSizeWidth="1920" MZ.Sequence.AudioTimeDisplayFormat="200" MZ.Sequence.PreviewRenderingClassID="1297106761" MZ.Sequence.PreviewRenderingPresetCodec="1297107278" MZ.Sequence.PreviewRenderingPresetPath="EncoderPresets/SequencePreview/795454d9-d3c2-429d-9474-923ab13b7018/I-Frame Only MPEG.epr" MZ.Sequence.PreviewUseMaxRenderQuality="false" MZ.Sequence.PreviewUseMaxBitDepth="false" MZ.Sequence.EditingModeGUID="795454d9-d3c2-429d-9474-923ab13b7018" MZ.Sequence.VideoTimeDisplayFormat="103" MZ.WorkOutPoint="991653062400" MZ.WorkInPoint="0" explodedTracks="true">
						<uuid>b2b5e698-c1c8-415a-9f58-5dc80fd2c17e</uuid>
						<duration>0</duration>
						<rate>
							<timebase>30</timebase>
							<ntsc>TRUE</ntsc>
						</rate>
						<name>01_Trans </name>
						<media>
							<video>
								<format>
									<samplecharacteristics>
										<rate>
											<timebase>30</timebase>
											<ntsc>TRUE</ntsc>
										</rate>
										<codec>
											<name>Apple ProRes 422</name>
											<appspecificdata>
												<appname>Final Cut Pro</appname>
												<appmanufacturer>Apple Inc.</appmanufacturer>
												<appversion>7.0</appversion>
												<data>
													<qtcodec>
														<codecname>Apple ProRes 422</codecname>
														<codectypename>Apple ProRes 422</codectypename>
														<codectypecode>apcn</codectypecode>
														<codecvendorcode>appl</codecvendorcode>
														<spatialquality>1024</spatialquality>
														<temporalquality>0</temporalquality>
														<keyframerate>0</keyframerate>
														<datarate>0</datarate>
													</qtcodec>
												</data>
											</appspecificdata>
										</codec>
										<width>1920</width>
										<height>1080</height>
										<anamorphic>FALSE</anamorphic>
										<pixelaspectratio>square</pixelaspectratio>
										<fielddominance>none</fielddominance>
										<colordepth>24</colordepth>
									</samplecharacteristics>
								</format>
								<track TL.SQTrackShy="0" TL.SQTrackExpandedHeight="25" TL.SQTrackExpanded="0" MZ.TrackTargeted="1">
									<enabled>TRUE</enabled>
									<locked>FALSE</locked>
								</track>
								<track TL.SQTrackShy="0" TL.SQTrackExpandedHeight="25" TL.SQTrackExpanded="0" MZ.TrackTargeted="0">
									<enabled>TRUE</enabled>
									<locked>FALSE</locked>
								</track>
								<track TL.SQTrackShy="0" TL.SQTrackExpandedHeight="25" TL.SQTrackExpanded="0" MZ.TrackTargeted="0">
									<enabled>TRUE</enabled>
									<locked>FALSE</locked>
								</track>
								<track TL.SQTrackShy="0" TL.SQTrackExpandedHeight="25" TL.SQTrackExpanded="0" MZ.TrackTargeted="0">
									<enabled>TRUE</enabled>
									<locked>FALSE</locked>
								</track>
								<track TL.SQTrackShy="0" TL.SQTrackExpandedHeight="25" TL.SQTrackExpanded="0" MZ.TrackTargeted="0">
									<enabled>TRUE</enabled>
									<locked>FALSE</locked>
								</track>
								<track TL.SQTrackShy="0" TL.SQTrackExpandedHeight="25" TL.SQTrackExpanded="0" MZ.TrackTargeted="0">
									<clipitem id="clipitem-394">
										<masterclipid>masterclip-69</masterclipid>
										<name>01_ALPINE_Trans.mov</name>
										<enabled>TRUE</enabled>
										<duration>117</duration>
										<rate>
											<timebase>30</timebase>
											<ntsc>TRUE</ntsc>
										</rate>
										<start>0</start>
										<end>117</end>
										<in>0</in>
										<out>117</out>
										<pproTicksIn>0</pproTicksIn>
										<pproTicksOut>991653062400</pproTicksOut>
										<alphatype>none</alphatype>
										<file id="file-68"/>
											<marker>
												<comment></comment>
												<name></name>
												<in>17</in>
												<out>-1</out>
											</marker>
											<marker>
												<comment></comment>
												<name></name>
												<in>70</in>
												<out>-1</out>
											</marker>
										<logginginfo>
											<description></description>
											<scene></scene>
											<shottake></shottake>
											<lognote></lognote>
											<good></good>
											<originalvideofilename></originalvideofilename>
											<originalaudiofilename></originalaudiofilename>
										</logginginfo>
										<colorinfo>
											<lut></lut>
											<lut1></lut1>
											<asc_sop></asc_sop>
											<asc_sat></asc_sat>
											<lut2></lut2>
										</colorinfo>
										<labels>
											<label2>Iris</label2>
										</labels>
									</clipitem>
									<enabled>TRUE</enabled>
									<locked>FALSE</locked>
								</track>
							</video>
							<audio>
								<numOutputChannels>2</numOutputChannels>
								<format>
									<samplecharacteristics>
										<depth>16</depth>
										<samplerate>44100</samplerate>
									</samplecharacteristics>
								</format>
								<outputs>
									<group>
										<index>1</index>
										<numchannels>1</numchannels>
										<downmix>0</downmix>
										<channel>
											<index>1</index>
										</channel>
									</group>
									<group>
										<index>2</index>
										<numchannels>1</numchannels>
										<downmix>0</downmix>
										<channel>
											<index>2</index>
										</channel>
									</group>
								</outputs>
								<track TL.SQTrackAudioKeyframeStyle="0" TL.SQTrackShy="0" TL.SQTrackExpandedHeight="25" TL.SQTrackExpanded="0" MZ.TrackTargeted="1" PannerCurrentValue="0.5" PannerIsInverted="true" PannerStartKeyframe="-91445760000000000,0.5,0,0,0,0,0,0" PannerName="Balance" currentExplodedTrackIndex="0" totalExplodedTrackCount="2" premiereTrackType="Stereo">
									<enabled>TRUE</enabled>
									<locked>FALSE</locked>
									<outputchannelindex>1</outputchannelindex>
								</track>
								<track TL.SQTrackAudioKeyframeStyle="0" TL.SQTrackShy="0" TL.SQTrackExpandedHeight="25" TL.SQTrackExpanded="0" MZ.TrackTargeted="1" PannerCurrentValue="0.5" PannerIsInverted="true" PannerStartKeyframe="-91445760000000000,0.5,0,0,0,0,0,0" PannerName="Balance" currentExplodedTrackIndex="1" totalExplodedTrackCount="2" premiereTrackType="Stereo">
									<enabled>TRUE</enabled>
									<locked>FALSE</locked>
									<outputchannelindex>2</outputchannelindex>
								</track>
								<track TL.SQTrackAudioKeyframeStyle="0" TL.SQTrackShy="0" TL.SQTrackExpandedHeight="25" TL.SQTrackExpanded="0" MZ.TrackTargeted="0" PannerCurrentValue="0.5" PannerIsInverted="true" PannerStartKeyframe="-91445760000000000,0.5,0,0,0,0,0,0" PannerName="Balance" currentExplodedTrackIndex="0" totalExplodedTrackCount="2" premiereTrackType="Stereo">
									<clipitem id="clipitem-395" premiereChannelType="stereo">
										<masterclipid>masterclip-69</masterclipid>
										<name>01_ALPINE_Trans.mov</name>
										<enabled>TRUE</enabled>
										<duration>117</duration>
										<rate>
											<timebase>30</timebase>
											<ntsc>TRUE</ntsc>
										</rate>
										<start>0</start>
										<end>117</end>
										<in>0</in>
										<out>117</out>
										<pproTicksIn>0</pproTicksIn>
										<pproTicksOut>991653062400</pproTicksOut>
										<file id="file-68"/>
										<sourcetrack>
											<mediatype>audio</mediatype>
											<trackindex>1</trackindex>
										</sourcetrack>
										<filter>
											<effect>
												<name>Gain</name>
												<effectid>{61756678, 4761696e, 4b657947}</effectid>
												<effecttype>filter</effecttype>
												<mediatype>audio</mediatype>
												<parameter authoringApp="PremierePro">
													<parameterid>Gain(dB)</parameterid>
													<name>Gain(dB)</name>
													<valuemin>-96</valuemin>
													<valuemax>96</valuemax>
													<value>-4</value>
												</parameter>
											</effect>
										</filter>
											<marker>
												<comment></comment>
												<name></name>
												<in>17</in>
												<out>-1</out>
											</marker>
											<marker>
												<comment></comment>
												<name></name>
												<in>70</in>
												<out>-1</out>
											</marker>
										<link>
											<linkclipref>clipitem-395</linkclipref>
											<mediatype>audio</mediatype>
											<trackindex>3</trackindex>
											<clipindex>1</clipindex>
											<groupindex>1</groupindex>
										</link>
										<link>
											<linkclipref>clipitem-396</linkclipref>
											<mediatype>audio</mediatype>
											<trackindex>4</trackindex>
											<clipindex>1</clipindex>
											<groupindex>1</groupindex>
										</link>
										<logginginfo>
											<description></description>
											<scene></scene>
											<shottake></shottake>
											<lognote></lognote>
											<good></good>
											<originalvideofilename></originalvideofilename>
											<originalaudiofilename></originalaudiofilename>
										</logginginfo>
										<colorinfo>
											<lut></lut>
											<lut1></lut1>
											<asc_sop></asc_sop>
											<asc_sat></asc_sat>
											<lut2></lut2>
										</colorinfo>
										<labels>
											<label2>Iris</label2>
										</labels>
									</clipitem>
									<enabled>TRUE</enabled>
									<locked>FALSE</locked>
									<outputchannelindex>1</outputchannelindex>
								</track>
								<track TL.SQTrackAudioKeyframeStyle="0" TL.SQTrackShy="0" TL.SQTrackExpandedHeight="25" TL.SQTrackExpanded="0" MZ.TrackTargeted="0" PannerCurrentValue="0.5" PannerIsInverted="true" PannerStartKeyframe="-91445760000000000,0.5,0,0,0,0,0,0" PannerName="Balance" currentExplodedTrackIndex="1" totalExplodedTrackCount="2" premiereTrackType="Stereo">
									<clipitem id="clipitem-396" premiereChannelType="stereo">
										<masterclipid>masterclip-69</masterclipid>
										<name>01_ALPINE_Trans.mov</name>
										<enabled>TRUE</enabled>
										<duration>117</duration>
										<rate>
											<timebase>30</timebase>
											<ntsc>TRUE</ntsc>
										</rate>
										<start>0</start>
										<end>117</end>
										<in>0</in>
										<out>117</out>
										<pproTicksIn>0</pproTicksIn>
										<pproTicksOut>991653062400</pproTicksOut>
										<file id="file-68"/>
										<sourcetrack>
											<mediatype>audio</mediatype>
											<trackindex>2</trackindex>
										</sourcetrack>
										<filter>
											<effect>
												<name>Gain</name>
												<effectid>{61756678, 4761696e, 4b657947}</effectid>
												<effecttype>filter</effecttype>
												<mediatype>audio</mediatype>
												<parameter authoringApp="PremierePro">
													<parameterid>Gain(dB)</parameterid>
													<name>Gain(dB)</name>
													<valuemin>-96</valuemin>
													<valuemax>96</valuemax>
													<value>-4</value>
												</parameter>
											</effect>
										</filter>
											<marker>
												<comment></comment>
												<name></name>
												<in>17</in>
												<out>-1</out>
											</marker>
											<marker>
												<comment></comment>
												<name></name>
												<in>70</in>
												<out>-1</out>
											</marker>
										<link>
											<linkclipref>clipitem-395</linkclipref>
											<mediatype>audio</mediatype>
											<trackindex>3</trackindex>
											<clipindex>1</clipindex>
											<groupindex>1</groupindex>
										</link>
										<link>
											<linkclipref>clipitem-396</linkclipref>
											<mediatype>audio</mediatype>
											<trackindex>4</trackindex>
											<clipindex>1</clipindex>
											<groupindex>1</groupindex>
										</link>
										<logginginfo>
											<description></description>
											<scene></scene>
											<shottake></shottake>
											<lognote></lognote>
											<good></good>
											<originalvideofilename></originalvideofilename>
											<originalaudiofilename></originalaudiofilename>
										</logginginfo>
										<colorinfo>
											<lut></lut>
											<lut1></lut1>
											<asc_sop></asc_sop>
											<asc_sat></asc_sat>
											<lut2></lut2>
										</colorinfo>
										<labels>
											<label2>Iris</label2>
										</labels>
									</clipitem>
									<enabled>TRUE</enabled>
									<locked>FALSE</locked>
									<outputchannelindex>2</outputchannelindex>
								</track>
							</audio>
						</media>
						<timecode>
							<rate>
								<timebase>30</timebase>
								<ntsc>TRUE</ntsc>
							</rate>
							<string>00:00:00:00</string>
							<frame>0</frame>
							<displayformat>NDF</displayformat>
						</timecode>
						<labels>
							<label2>Forest</label2>
						</labels>
						<logginginfo>
							<description></description>
							<scene></scene>
							<shottake></shottake>
							<lognote></lognote>
							<good></good>
							<originalvideofilename></originalvideofilename>
							<originalaudiofilename></originalaudiofilename>
						</logginginfo>
					</sequence>
					<clip id="masterclip-69" explodedTracks="true">
						<uuid>11e88feb-f631-4c5b-8627-8a0d09740509</uuid>
						<masterclipid>masterclip-69</masterclipid>
						<ismasterclip>TRUE</ismasterclip>
						<duration>117</duration>
						<rate>
							<timebase>30</timebase>
							<ntsc>TRUE</ntsc>
						</rate>
						<name>01_ALPINE_Trans.mov</name>
						<media>
							<video>
								<track>
									<clipitem id="clipitem-397">
										<masterclipid>masterclip-69</masterclipid>
										<name>01_ALPINE_Trans.mov</name>
										<rate>
											<timebase>30</timebase>
											<ntsc>TRUE</ntsc>
										</rate>
										<alphatype>none</alphatype>
										<file id="file-68"/>
										<link>
											<linkclipref>clipitem-397</linkclipref>
											<mediatype>video</mediatype>
											<trackindex>1</trackindex>
											<clipindex>1</clipindex>
										</link>
										<link>
											<linkclipref>clipitem-398</linkclipref>
											<mediatype>audio</mediatype>
											<trackindex>1</trackindex>
											<clipindex>1</clipindex>
											<groupindex>1</groupindex>
										</link>
										<link>
											<linkclipref>clipitem-399</linkclipref>
											<mediatype>audio</mediatype>
											<trackindex>2</trackindex>
											<clipindex>1</clipindex>
											<groupindex>1</groupindex>
										</link>
									</clipitem>
								</track>
							</video>
							<audio>
								<track>
									<clipitem id="clipitem-398">
										<masterclipid>masterclip-69</masterclipid>
										<name>01_ALPINE_Trans.mov</name>
										<rate>
											<timebase>30</timebase>
											<ntsc>TRUE</ntsc>
										</rate>
										<file id="file-68"/>
										<sourcetrack>
											<mediatype>audio</mediatype>
											<trackindex>1</trackindex>
										</sourcetrack>
										<link>
											<linkclipref>clipitem-397</linkclipref>
											<mediatype>video</mediatype>
											<trackindex>1</trackindex>
											<clipindex>1</clipindex>
										</link>
										<link>
											<linkclipref>clipitem-398</linkclipref>
											<mediatype>audio</mediatype>
											<trackindex>1</trackindex>
											<clipindex>1</clipindex>
											<groupindex>1</groupindex>
										</link>
										<link>
											<linkclipref>clipitem-399</linkclipref>
											<mediatype>audio</mediatype>
											<trackindex>2</trackindex>
											<clipindex>1</clipindex>
											<groupindex>1</groupindex>
										</link>
									</clipitem>
								</track>
								<track>
									<clipitem id="clipitem-399">
										<masterclipid>masterclip-69</masterclipid>
										<name>01_ALPINE_Trans.mov</name>
										<rate>
											<timebase>30</timebase>
											<ntsc>TRUE</ntsc>
										</rate>
										<file id="file-68"/>
										<sourcetrack>
											<mediatype>audio</mediatype>
											<trackindex>2</trackindex>
										</sourcetrack>
										<link>
											<linkclipref>clipitem-397</linkclipref>
											<mediatype>video</mediatype>
											<trackindex>1</trackindex>
											<clipindex>1</clipindex>
										</link>
										<link>
											<linkclipref>clipitem-398</linkclipref>
											<mediatype>audio</mediatype>
											<trackindex>1</trackindex>
											<clipindex>1</clipindex>
											<groupindex>1</groupindex>
										</link>
										<link>
											<linkclipref>clipitem-399</linkclipref>
											<mediatype>audio</mediatype>
											<trackindex>2</trackindex>
											<clipindex>1</clipindex>
											<groupindex>1</groupindex>
										</link>
									</clipitem>
								</track>
							</audio>
						</media>
							<marker>
								<comment></comment>
								<name></name>
								<in>17</in>
								<out>-1</out>
							</marker>
							<marker>
								<comment></comment>
								<name></name>
								<in>70</in>
								<out>-1</out>
							</marker>
						<logginginfo>
							<description></description>
							<scene></scene>
							<shottake></shottake>
							<lognote></lognote>
							<good></good>
							<originalvideofilename></originalvideofilename>
							<originalaudiofilename></originalaudiofilename>
						</logginginfo>
						<colorinfo>
							<lut></lut>
							<lut1></lut1>
							<asc_sop></asc_sop>
							<asc_sat></asc_sat>
							<lut2></lut2>
						</colorinfo>
						<labels>
							<label2>Iris</label2>
						</labels>
					</clip>
					<clip id="masterclip-70" explodedTracks="true">
						<uuid>39d96ec9-719d-432b-bd10-a6f52568a6de</uuid>
						<masterclipid>masterclip-70</masterclipid>
						<ismasterclip>TRUE</ismasterclip>
						<duration>77</duration>
						<rate>
							<timebase>30</timebase>
							<ntsc>TRUE</ntsc>
						</rate>
						<name>03_ALPINE_Trans.mov</name>
						<media>
							<video>
								<track>
									<clipitem id="clipitem-400">
										<masterclipid>masterclip-70</masterclipid>
										<name>03_ALPINE_Trans.mov</name>
										<rate>
											<timebase>30</timebase>
											<ntsc>TRUE</ntsc>
										</rate>
										<alphatype>none</alphatype>
										<file id="file-69"/>
										<link>
											<linkclipref>clipitem-400</linkclipref>
											<mediatype>video</mediatype>
											<trackindex>1</trackindex>
											<clipindex>1</clipindex>
										</link>
										<link>
											<linkclipref>clipitem-401</linkclipref>
											<mediatype>audio</mediatype>
											<trackindex>1</trackindex>
											<clipindex>1</clipindex>
											<groupindex>1</groupindex>
										</link>
										<link>
											<linkclipref>clipitem-402</linkclipref>
											<mediatype>audio</mediatype>
											<trackindex>2</trackindex>
											<clipindex>1</clipindex>
											<groupindex>1</groupindex>
										</link>
									</clipitem>
								</track>
							</video>
							<audio>
								<track>
									<clipitem id="clipitem-401">
										<masterclipid>masterclip-70</masterclipid>
										<name>03_ALPINE_Trans.mov</name>
										<rate>
											<timebase>30</timebase>
											<ntsc>TRUE</ntsc>
										</rate>
										<file id="file-69"/>
										<sourcetrack>
											<mediatype>audio</mediatype>
											<trackindex>1</trackindex>
										</sourcetrack>
										<link>
											<linkclipref>clipitem-400</linkclipref>
											<mediatype>video</mediatype>
											<trackindex>1</trackindex>
											<clipindex>1</clipindex>
										</link>
										<link>
											<linkclipref>clipitem-401</linkclipref>
											<mediatype>audio</mediatype>
											<trackindex>1</trackindex>
											<clipindex>1</clipindex>
											<groupindex>1</groupindex>
										</link>
										<link>
											<linkclipref>clipitem-402</linkclipref>
											<mediatype>audio</mediatype>
											<trackindex>2</trackindex>
											<clipindex>1</clipindex>
											<groupindex>1</groupindex>
										</link>
									</clipitem>
								</track>
								<track>
									<clipitem id="clipitem-402">
										<masterclipid>masterclip-70</masterclipid>
										<name>03_ALPINE_Trans.mov</name>
										<rate>
											<timebase>30</timebase>
											<ntsc>TRUE</ntsc>
										</rate>
										<file id="file-69"/>
										<sourcetrack>
											<mediatype>audio</mediatype>
											<trackindex>2</trackindex>
										</sourcetrack>
										<link>
											<linkclipref>clipitem-400</linkclipref>
											<mediatype>video</mediatype>
											<trackindex>1</trackindex>
											<clipindex>1</clipindex>
										</link>
										<link>
											<linkclipref>clipitem-401</linkclipref>
											<mediatype>audio</mediatype>
											<trackindex>1</trackindex>
											<clipindex>1</clipindex>
											<groupindex>1</groupindex>
										</link>
										<link>
											<linkclipref>clipitem-402</linkclipref>
											<mediatype>audio</mediatype>
											<trackindex>2</trackindex>
											<clipindex>1</clipindex>
											<groupindex>1</groupindex>
										</link>
									</clipitem>
								</track>
							</audio>
						</media>
							<marker>
								<comment></comment>
								<name></name>
								<in>60</in>
								<out>-1</out>
							</marker>
							<marker>
								<comment></comment>
								<name></name>
								<in>19</in>
								<out>-1</out>
							</marker>
						<logginginfo>
							<description></description>
							<scene></scene>
							<shottake></shottake>
							<lognote></lognote>
							<good></good>
							<originalvideofilename></originalvideofilename>
							<originalaudiofilename></originalaudiofilename>
						</logginginfo>
						<colorinfo>
							<lut></lut>
							<lut1></lut1>
							<asc_sop></asc_sop>
							<asc_sat></asc_sat>
							<lut2></lut2>
						</colorinfo>
						<labels>
							<label2>Iris</label2>
						</labels>
					</clip>
<sequence id="sequence-12"/>
				</children>
			</bin>
			<bin>
				<name>Backup</name>
				<labels>
					<label2>Mango</label2>
				</labels>
				<children>
					<sequence id="sequence-22" TL.SQAudioVisibleBase="0" TL.SQVideoVisibleBase="0" TL.SQVisibleBaseTime="0" TL.SQAVDividerPosition="0.5" TL.SQHideShyTracks="0" TL.SQHeaderWidth="236" Monitor.ProgramZoomOut="20299222944000" Monitor.ProgramZoomIn="0" TL.SQTimePerPixel="0.19389882762380986" MZ.EditLine="457686028800" MZ.Sequence.PreviewFrameSizeHeight="1080" MZ.Sequence.PreviewFrameSizeWidth="1920" MZ.Sequence.AudioTimeDisplayFormat="200" MZ.Sequence.PreviewRenderingClassID="1297106761" MZ.Sequence.PreviewRenderingPresetCodec="1297107278" MZ.Sequence.PreviewRenderingPresetPath="EncoderPresets/SequencePreview/795454d9-d3c2-429d-9474-923ab13b7018/I-Frame Only MPEG.epr" MZ.Sequence.PreviewUseMaxRenderQuality="false" MZ.Sequence.PreviewUseMaxBitDepth="false" MZ.Sequence.EditingModeGUID="795454d9-d3c2-429d-9474-923ab13b7018" MZ.Sequence.VideoTimeDisplayFormat="103" MZ.WorkOutPoint="20299222944000" MZ.WorkInPoint="0" explodedTracks="true">
						<uuid>2bf8cd66-f199-4f30-881c-c4b76905dbf4</uuid>
						<duration>0</duration>
						<rate>
							<timebase>30</timebase>
							<ntsc>TRUE</ntsc>
						</rate>
						<name>Nested Sequence 33</name>
						<media>
							<video>
								<format>
									<samplecharacteristics>
										<rate>
											<timebase>30</timebase>
											<ntsc>TRUE</ntsc>
										</rate>
										<codec>
											<name>Apple ProRes 422</name>
											<appspecificdata>
												<appname>Final Cut Pro</appname>
												<appmanufacturer>Apple Inc.</appmanufacturer>
												<appversion>7.0</appversion>
												<data>
													<qtcodec>
														<codecname>Apple ProRes 422</codecname>
														<codectypename>Apple ProRes 422</codectypename>
														<codectypecode>apcn</codectypecode>
														<codecvendorcode>appl</codecvendorcode>
														<spatialquality>1024</spatialquality>
														<temporalquality>0</temporalquality>
														<keyframerate>0</keyframerate>
														<datarate>0</datarate>
													</qtcodec>
												</data>
											</appspecificdata>
										</codec>
										<width>1920</width>
										<height>1080</height>
										<anamorphic>FALSE</anamorphic>
										<pixelaspectratio>square</pixelaspectratio>
										<fielddominance>none</fielddominance>
										<colordepth>24</colordepth>
									</samplecharacteristics>
								</format>
								<track TL.SQTrackShy="0" TL.SQTrackExpandedHeight="25" TL.SQTrackExpanded="0" MZ.TrackTargeted="1">
									<enabled>TRUE</enabled>
									<locked>FALSE</locked>
								</track>
								<track TL.SQTrackShy="0" TL.SQTrackExpandedHeight="25" TL.SQTrackExpanded="0" MZ.TrackTargeted="0">
									<enabled>TRUE</enabled>
									<locked>FALSE</locked>
								</track>
								<track TL.SQTrackShy="0" TL.SQTrackExpandedHeight="25" TL.SQTrackExpanded="0" MZ.TrackTargeted="0">
									<enabled>TRUE</enabled>
									<locked>FALSE</locked>
								</track>
								<track TL.SQTrackShy="0" TL.SQTrackExpandedHeight="25" TL.SQTrackExpanded="0" MZ.TrackTargeted="0">
									<enabled>TRUE</enabled>
									<locked>FALSE</locked>
								</track>
								<track TL.SQTrackShy="0" TL.SQTrackExpandedHeight="25" TL.SQTrackExpanded="0" MZ.TrackTargeted="0">
									<enabled>TRUE</enabled>
									<locked>FALSE</locked>
								</track>
								<track TL.SQTrackShy="0" TL.SQTrackExpandedHeight="25" TL.SQTrackExpanded="0" MZ.TrackTargeted="0">
									<enabled>TRUE</enabled>
									<locked>FALSE</locked>
								</track>
								<track TL.SQTrackShy="0" TL.SQTrackExpandedHeight="25" TL.SQTrackExpanded="0" MZ.TrackTargeted="0">
									<clipitem id="clipitem-403">
										<masterclipid>masterclip-71</masterclipid>
										<name>Logo_1080_People Are Awesome V2_Right.png</name>
										<enabled>TRUE</enabled>
										<duration>1294705</duration>
										<rate>
											<timebase>30</timebase>
											<ntsc>TRUE</ntsc>
										</rate>
										<start>0</start>
										<end>2395</end>
										<in>107892</in>
										<out>110287</out>
										<pproTicksIn>914456685542400</pproTicksIn>
										<pproTicksOut>934755908486400</pproTicksOut>
										<alphatype>straight</alphatype>
										<file id="file-70"/>
										<logginginfo>
											<description></description>
											<scene></scene>
											<shottake></shottake>
											<lognote></lognote>
											<good></good>
											<originalvideofilename></originalvideofilename>
											<originalaudiofilename></originalaudiofilename>
										</logginginfo>
										<colorinfo>
											<lut></lut>
											<lut1></lut1>
											<asc_sop></asc_sop>
											<asc_sat></asc_sat>
											<lut2></lut2>
										</colorinfo>
										<labels>
											<label2>Lavender</label2>
										</labels>
									</clipitem>
									<enabled>TRUE</enabled>
									<locked>FALSE</locked>
								</track>
								<track TL.SQTrackShy="0" TL.SQTrackExpandedHeight="25" TL.SQTrackExpanded="0" MZ.TrackTargeted="0">
									<clipitem id="clipitem-404">
										<masterclipid>masterclip-71</masterclipid>
										<name>Logo_1080_People Are Awesome V2_Right.png</name>
										<enabled>TRUE</enabled>
										<duration>1294705</duration>
										<rate>
											<timebase>30</timebase>
											<ntsc>TRUE</ntsc>
										</rate>
										<start>0</start>
										<end>2395</end>
										<in>107892</in>
										<out>110287</out>
										<pproTicksIn>914456685542400</pproTicksIn>
										<pproTicksOut>934755908486400</pproTicksOut>
										<alphatype>straight</alphatype>
										<file id="file-70"/>
										<logginginfo>
											<description></description>
											<scene></scene>
											<shottake></shottake>
											<lognote></lognote>
											<good></good>
											<originalvideofilename></originalvideofilename>
											<originalaudiofilename></originalaudiofilename>
										</logginginfo>
										<colorinfo>
											<lut></lut>
											<lut1></lut1>
											<asc_sop></asc_sop>
											<asc_sat></asc_sat>
											<lut2></lut2>
										</colorinfo>
										<labels>
											<label2>Lavender</label2>
										</labels>
									</clipitem>
									<enabled>TRUE</enabled>
									<locked>FALSE</locked>
								</track>
							</video>
							<audio>
								<numOutputChannels>2</numOutputChannels>
								<format>
									<samplecharacteristics>
										<depth>16</depth>
										<samplerate>44100</samplerate>
									</samplecharacteristics>
								</format>
								<outputs>
									<group>
										<index>1</index>
										<numchannels>1</numchannels>
										<downmix>0</downmix>
										<channel>
											<index>1</index>
										</channel>
									</group>
									<group>
										<index>2</index>
										<numchannels>1</numchannels>
										<downmix>0</downmix>
										<channel>
											<index>2</index>
										</channel>
									</group>
								</outputs>
								<track TL.SQTrackAudioKeyframeStyle="0" TL.SQTrackShy="0" TL.SQTrackExpandedHeight="25" TL.SQTrackExpanded="0" MZ.TrackTargeted="1" PannerCurrentValue="0.5" PannerIsInverted="true" PannerStartKeyframe="-91445760000000000,0.5,0,0,0,0,0,0" PannerName="Balance" currentExplodedTrackIndex="0" totalExplodedTrackCount="2" premiereTrackType="Stereo">
									<enabled>TRUE</enabled>
									<locked>FALSE</locked>
									<outputchannelindex>1</outputchannelindex>
								</track>
								<track TL.SQTrackAudioKeyframeStyle="0" TL.SQTrackShy="0" TL.SQTrackExpandedHeight="25" TL.SQTrackExpanded="0" MZ.TrackTargeted="1" PannerCurrentValue="0.5" PannerIsInverted="true" PannerStartKeyframe="-91445760000000000,0.5,0,0,0,0,0,0" PannerName="Balance" currentExplodedTrackIndex="1" totalExplodedTrackCount="2" premiereTrackType="Stereo">
									<enabled>TRUE</enabled>
									<locked>FALSE</locked>
									<outputchannelindex>2</outputchannelindex>
								</track>
							</audio>
						</media>
						<timecode>
							<rate>
								<timebase>30</timebase>
								<ntsc>TRUE</ntsc>
							</rate>
							<string>00:00:00:00</string>
							<frame>0</frame>
							<displayformat>NDF</displayformat>
						</timecode>
						<labels>
							<label2>Forest</label2>
						</labels>
						<logginginfo>
							<description></description>
							<scene></scene>
							<shottake></shottake>
							<lognote></lognote>
							<good></good>
							<originalvideofilename></originalvideofilename>
							<originalaudiofilename></originalaudiofilename>
						</logginginfo>
					</sequence>
					<sequence id="sequence-23" TL.SQAudioVisibleBase="0" TL.SQVideoVisibleBase="0" TL.SQVisibleBaseTime="0" TL.SQAVDividerPosition="0.5" TL.SQHideShyTracks="0" TL.SQHeaderWidth="236" Monitor.ProgramZoomOut="20739957638400" Monitor.ProgramZoomIn="0" TL.SQTimePerPixel="0.15030457422567955" MZ.EditLine="13442408179200" MZ.Sequence.PreviewFrameSizeHeight="1080" MZ.Sequence.PreviewFrameSizeWidth="1920" MZ.Sequence.AudioTimeDisplayFormat="200" MZ.Sequence.PreviewRenderingClassID="1297106761" MZ.Sequence.PreviewRenderingPresetCodec="1297107278" MZ.Sequence.PreviewRenderingPresetPath="EncoderPresets/SequencePreview/795454d9-d3c2-429d-9474-923ab13b7018/I-Frame Only MPEG.epr" MZ.Sequence.PreviewUseMaxRenderQuality="false" MZ.Sequence.PreviewUseMaxBitDepth="false" MZ.Sequence.EditingModeGUID="795454d9-d3c2-429d-9474-923ab13b7018" MZ.Sequence.VideoTimeDisplayFormat="103" MZ.WorkOutPoint="20739957638400" MZ.WorkInPoint="0" explodedTracks="true">
						<uuid>dc4bd0ff-3baf-4313-b4ae-185c3cc61540</uuid>
						<duration>2447</duration>
						<rate>
							<timebase>30</timebase>
							<ntsc>TRUE</ntsc>
						</rate>
						<name>JUKIN_today just snowed me down_1</name>
						<media>
							<video>
								<format>
									<samplecharacteristics>
										<rate>
											<timebase>30</timebase>
											<ntsc>TRUE</ntsc>
										</rate>
										<codec>
											<name>Apple ProRes 422</name>
											<appspecificdata>
												<appname>Final Cut Pro</appname>
												<appmanufacturer>Apple Inc.</appmanufacturer>
												<appversion>7.0</appversion>
												<data>
													<qtcodec>
														<codecname>Apple ProRes 422</codecname>
														<codectypename>Apple ProRes 422</codectypename>
														<codectypecode>apcn</codectypecode>
														<codecvendorcode>appl</codecvendorcode>
														<spatialquality>1024</spatialquality>
														<temporalquality>0</temporalquality>
														<keyframerate>0</keyframerate>
														<datarate>0</datarate>
													</qtcodec>
												</data>
											</appspecificdata>
										</codec>
										<width>1920</width>
										<height>1080</height>
										<anamorphic>FALSE</anamorphic>
										<pixelaspectratio>square</pixelaspectratio>
										<fielddominance>none</fielddominance>
										<colordepth>24</colordepth>
									</samplecharacteristics>
								</format>
								<track TL.SQTrackShy="0" TL.SQTrackExpandedHeight="25" TL.SQTrackExpanded="0" MZ.TrackTargeted="1">
									<clipitem id="clipitem-405">
										<masterclipid>masterclip-72</masterclipid>
										<name>(FailArmy)_On Thin Ice _ Epic Winter Moments &amp; Frozen Fails Compilation_wIduHgWJXig_YT.mp4</name>
										<enabled>TRUE</enabled>
										<duration>20982</duration>
										<rate>
											<timebase>30</timebase>
											<ntsc>TRUE</ntsc>
										</rate>
										<start>0</start>
										<end>220</end>
										<in>8181</in>
										<out>8401</out>
										<pproTicksIn>69339433363200</pproTicksIn>
										<pproTicksOut>71204080147200</pproTicksOut>
										<alphatype>none</alphatype>
										<file id="file-71"/>
										<link>
											<linkclipref>clipitem-405</linkclipref>
											<mediatype>video</mediatype>
											<trackindex>1</trackindex>
											<clipindex>1</clipindex>
										</link>
										<link>
											<linkclipref>clipitem-407</linkclipref>
											<mediatype>audio</mediatype>
											<trackindex>1</trackindex>
											<clipindex>1</clipindex>
											<groupindex>1</groupindex>
										</link>
										<link>
											<linkclipref>clipitem-409</linkclipref>
											<mediatype>audio</mediatype>
											<trackindex>2</trackindex>
											<clipindex>1</clipindex>
											<groupindex>1</groupindex>
										</link>
										<logginginfo>
											<description></description>
											<scene></scene>
											<shottake></shottake>
											<lognote>https://www.youtube.com/watch?v=wIduHgWJXig</lognote>
											<good></good>
											<originalvideofilename></originalvideofilename>
											<originalaudiofilename></originalaudiofilename>
										</logginginfo>
										<colorinfo>
											<lut></lut>
											<lut1></lut1>
											<asc_sop></asc_sop>
											<asc_sat></asc_sat>
											<lut2></lut2>
										</colorinfo>
										<labels>
											<label2>Iris</label2>
										</labels>
									</clipitem>
									<clipitem id="clipitem-406">
										<masterclipid>masterclip-72</masterclipid>
										<name>(FailArmy)_On Thin Ice _ Epic Winter Moments &amp; Frozen Fails Compilation_wIduHgWJXig_YT.mp4</name>
										<enabled>TRUE</enabled>
										<duration>20982</duration>
										<rate>
											<timebase>30</timebase>
											<ntsc>TRUE</ntsc>
										</rate>
										<start>2225</start>
										<end>2447</end>
										<in>18566</in>
										<out>18788</out>
										<pproTicksIn>157359237235200</pproTicksIn>
										<pproTicksOut>159240835353600</pproTicksOut>
										<alphatype>none</alphatype>
										<file id="file-71"/>
										<link>
											<linkclipref>clipitem-406</linkclipref>
											<mediatype>video</mediatype>
											<trackindex>1</trackindex>
											<clipindex>2</clipindex>
										</link>
										<link>
											<linkclipref>clipitem-408</linkclipref>
											<mediatype>audio</mediatype>
											<trackindex>1</trackindex>
											<clipindex>2</clipindex>
											<groupindex>1</groupindex>
										</link>
										<link>
											<linkclipref>clipitem-410</linkclipref>
											<mediatype>audio</mediatype>
											<trackindex>2</trackindex>
											<clipindex>2</clipindex>
											<groupindex>1</groupindex>
										</link>
										<logginginfo>
											<description></description>
											<scene></scene>
											<shottake></shottake>
											<lognote>https://www.youtube.com/watch?v=wIduHgWJXig</lognote>
											<good></good>
											<originalvideofilename></originalvideofilename>
											<originalaudiofilename></originalaudiofilename>
										</logginginfo>
										<colorinfo>
											<lut></lut>
											<lut1></lut1>
											<asc_sop></asc_sop>
											<asc_sat></asc_sat>
											<lut2></lut2>
										</colorinfo>
										<labels>
											<label2>Iris</label2>
										</labels>
									</clipitem>
									<enabled>TRUE</enabled>
									<locked>FALSE</locked>
								</track>
							</video>
							<audio>
								<numOutputChannels>2</numOutputChannels>
								<format>
									<samplecharacteristics>
										<depth>16</depth>
										<samplerate>44100</samplerate>
									</samplecharacteristics>
								</format>
								<outputs>
									<group>
										<index>1</index>
										<numchannels>1</numchannels>
										<downmix>0</downmix>
										<channel>
											<index>1</index>
										</channel>
									</group>
									<group>
										<index>2</index>
										<numchannels>1</numchannels>
										<downmix>0</downmix>
										<channel>
											<index>2</index>
										</channel>
									</group>
								</outputs>
								<track TL.SQTrackAudioKeyframeStyle="0" TL.SQTrackShy="0" TL.SQTrackExpandedHeight="25" TL.SQTrackExpanded="0" MZ.TrackTargeted="1" PannerCurrentValue="0.5" PannerIsInverted="true" PannerStartKeyframe="-91445760000000000,0.5,0,0,0,0,0,0" PannerName="Balance" currentExplodedTrackIndex="0" totalExplodedTrackCount="2" premiereTrackType="Stereo">
									<clipitem id="clipitem-407" premiereChannelType="stereo">
										<masterclipid>masterclip-72</masterclipid>
										<name>(FailArmy)_On Thin Ice _ Epic Winter Moments &amp; Frozen Fails Compilation_wIduHgWJXig_YT.mp4</name>
										<enabled>TRUE</enabled>
										<duration>20982</duration>
										<rate>
											<timebase>30</timebase>
											<ntsc>TRUE</ntsc>
										</rate>
										<start>0</start>
										<end>220</end>
										<in>8181</in>
										<out>8401</out>
										<pproTicksIn>69339433363200</pproTicksIn>
										<pproTicksOut>71204080147200</pproTicksOut>
										<file id="file-71"/>
										<sourcetrack>
											<mediatype>audio</mediatype>
											<trackindex>1</trackindex>
										</sourcetrack>
										<filter>
											<effect>
												<name>Gain</name>
												<effectid>{61756678, 4761696e, 4b657947}</effectid>
												<effecttype>filter</effecttype>
												<mediatype>audio</mediatype>
												<parameter authoringApp="PremierePro">
													<parameterid>Gain(dB)</parameterid>
													<name>Gain(dB)</name>
													<valuemin>-96</valuemin>
													<valuemax>96</valuemax>
													<value>-6</value>
												</parameter>
											</effect>
										</filter>
										<link>
											<linkclipref>clipitem-405</linkclipref>
											<mediatype>video</mediatype>
											<trackindex>1</trackindex>
											<clipindex>1</clipindex>
										</link>
										<link>
											<linkclipref>clipitem-407</linkclipref>
											<mediatype>audio</mediatype>
											<trackindex>1</trackindex>
											<clipindex>1</clipindex>
											<groupindex>1</groupindex>
										</link>
										<link>
											<linkclipref>clipitem-409</linkclipref>
											<mediatype>audio</mediatype>
											<trackindex>2</trackindex>
											<clipindex>1</clipindex>
											<groupindex>1</groupindex>
										</link>
										<logginginfo>
											<description></description>
											<scene></scene>
											<shottake></shottake>
											<lognote>https://www.youtube.com/watch?v=wIduHgWJXig</lognote>
											<good></good>
											<originalvideofilename></originalvideofilename>
											<originalaudiofilename></originalaudiofilename>
										</logginginfo>
										<colorinfo>
											<lut></lut>
											<lut1></lut1>
											<asc_sop></asc_sop>
											<asc_sat></asc_sat>
											<lut2></lut2>
										</colorinfo>
										<labels>
											<label2>Iris</label2>
										</labels>
									</clipitem>
									<clipitem id="clipitem-408" premiereChannelType="stereo">
										<masterclipid>masterclip-72</masterclipid>
										<name>(FailArmy)_On Thin Ice _ Epic Winter Moments &amp; Frozen Fails Compilation_wIduHgWJXig_YT.mp4</name>
										<enabled>TRUE</enabled>
										<duration>20982</duration>
										<rate>
											<timebase>30</timebase>
											<ntsc>TRUE</ntsc>
										</rate>
										<start>2225</start>
										<end>-1</end>
										<in>18566</in>
										<out>18788</out>
										<pproTicksIn>157359237235200</pproTicksIn>
										<pproTicksOut>159240835353600</pproTicksOut>
										<file id="file-71"/>
										<sourcetrack>
											<mediatype>audio</mediatype>
											<trackindex>1</trackindex>
										</sourcetrack>
										<filter>
											<effect>
												<name>Gain</name>
												<effectid>{61756678, 4761696e, 4b657947}</effectid>
												<effecttype>filter</effecttype>
												<mediatype>audio</mediatype>
												<parameter authoringApp="PremierePro">
													<parameterid>Gain(dB)</parameterid>
													<name>Gain(dB)</name>
													<valuemin>-96</valuemin>
													<valuemax>96</valuemax>
													<value>-6</value>
												</parameter>
											</effect>
										</filter>
										<link>
											<linkclipref>clipitem-406</linkclipref>
											<mediatype>video</mediatype>
											<trackindex>1</trackindex>
											<clipindex>2</clipindex>
										</link>
										<link>
											<linkclipref>clipitem-408</linkclipref>
											<mediatype>audio</mediatype>
											<trackindex>1</trackindex>
											<clipindex>2</clipindex>
											<groupindex>1</groupindex>
										</link>
										<link>
											<linkclipref>clipitem-410</linkclipref>
											<mediatype>audio</mediatype>
											<trackindex>2</trackindex>
											<clipindex>2</clipindex>
											<groupindex>1</groupindex>
										</link>
										<logginginfo>
											<description></description>
											<scene></scene>
											<shottake></shottake>
											<lognote>https://www.youtube.com/watch?v=wIduHgWJXig</lognote>
											<good></good>
											<originalvideofilename></originalvideofilename>
											<originalaudiofilename></originalaudiofilename>
										</logginginfo>
										<colorinfo>
											<lut></lut>
											<lut1></lut1>
											<asc_sop></asc_sop>
											<asc_sat></asc_sat>
											<lut2></lut2>
										</colorinfo>
										<labels>
											<label2>Iris</label2>
										</labels>
									</clipitem>
									<transitionitem>
										<start>2417</start>
										<end>2447</end>
										<pproTicksIn>20485687622400</pproTicksIn>
										<pproTicksOut>20739957638400</pproTicksOut>
										<alignment>end-black</alignment>
										<cutPointTicks>254270016000</cutPointTicks>
										<rate>
											<timebase>30</timebase>
											<ntsc>TRUE</ntsc>
										</rate>
										<effect>
											<name>Cross Fade (+3dB)</name>
											<effectid>KGAudioTransCrossFade3dB</effectid>
											<effecttype>transition</effecttype>
											<mediatype>audio</mediatype>
											<wipecode>0</wipecode>
											<wipeaccuracy>100</wipeaccuracy>
											<startratio>0</startratio>
											<endratio>1</endratio>
											<reverse>FALSE</reverse>
										</effect>
									</transitionitem>
									<enabled>TRUE</enabled>
									<locked>FALSE</locked>
									<outputchannelindex>1</outputchannelindex>
								</track>
								<track TL.SQTrackAudioKeyframeStyle="0" TL.SQTrackShy="0" TL.SQTrackExpandedHeight="25" TL.SQTrackExpanded="0" MZ.TrackTargeted="1" PannerCurrentValue="0.5" PannerIsInverted="true" PannerStartKeyframe="-91445760000000000,0.5,0,0,0,0,0,0" PannerName="Balance" currentExplodedTrackIndex="1" totalExplodedTrackCount="2" premiereTrackType="Stereo">
									<clipitem id="clipitem-409" premiereChannelType="stereo">
										<masterclipid>masterclip-72</masterclipid>
										<name>(FailArmy)_On Thin Ice _ Epic Winter Moments &amp; Frozen Fails Compilation_wIduHgWJXig_YT.mp4</name>
										<enabled>TRUE</enabled>
										<duration>20982</duration>
										<rate>
											<timebase>30</timebase>
											<ntsc>TRUE</ntsc>
										</rate>
										<start>0</start>
										<end>220</end>
										<in>8181</in>
										<out>8401</out>
										<pproTicksIn>69339433363200</pproTicksIn>
										<pproTicksOut>71204080147200</pproTicksOut>
										<file id="file-71"/>
										<sourcetrack>
											<mediatype>audio</mediatype>
											<trackindex>2</trackindex>
										</sourcetrack>
										<filter>
											<effect>
												<name>Gain</name>
												<effectid>{61756678, 4761696e, 4b657947}</effectid>
												<effecttype>filter</effecttype>
												<mediatype>audio</mediatype>
												<parameter authoringApp="PremierePro">
													<parameterid>Gain(dB)</parameterid>
													<name>Gain(dB)</name>
													<valuemin>-96</valuemin>
													<valuemax>96</valuemax>
													<value>-6</value>
												</parameter>
											</effect>
										</filter>
										<link>
											<linkclipref>clipitem-405</linkclipref>
											<mediatype>video</mediatype>
											<trackindex>1</trackindex>
											<clipindex>1</clipindex>
										</link>
										<link>
											<linkclipref>clipitem-407</linkclipref>
											<mediatype>audio</mediatype>
											<trackindex>1</trackindex>
											<clipindex>1</clipindex>
											<groupindex>1</groupindex>
										</link>
										<link>
											<linkclipref>clipitem-409</linkclipref>
											<mediatype>audio</mediatype>
											<trackindex>2</trackindex>
											<clipindex>1</clipindex>
											<groupindex>1</groupindex>
										</link>
										<logginginfo>
											<description></description>
											<scene></scene>
											<shottake></shottake>
											<lognote>https://www.youtube.com/watch?v=wIduHgWJXig</lognote>
											<good></good>
											<originalvideofilename></originalvideofilename>
											<originalaudiofilename></originalaudiofilename>
										</logginginfo>
										<colorinfo>
											<lut></lut>
											<lut1></lut1>
											<asc_sop></asc_sop>
											<asc_sat></asc_sat>
											<lut2></lut2>
										</colorinfo>
										<labels>
											<label2>Iris</label2>
										</labels>
									</clipitem>
									<clipitem id="clipitem-410" premiereChannelType="stereo">
										<masterclipid>masterclip-72</masterclipid>
										<name>(FailArmy)_On Thin Ice _ Epic Winter Moments &amp; Frozen Fails Compilation_wIduHgWJXig_YT.mp4</name>
										<enabled>TRUE</enabled>
										<duration>20982</duration>
										<rate>
											<timebase>30</timebase>
											<ntsc>TRUE</ntsc>
										</rate>
										<start>2225</start>
										<end>-1</end>
										<in>18566</in>
										<out>18788</out>
										<pproTicksIn>157359237235200</pproTicksIn>
										<pproTicksOut>159240835353600</pproTicksOut>
										<file id="file-71"/>
										<sourcetrack>
											<mediatype>audio</mediatype>
											<trackindex>2</trackindex>
										</sourcetrack>
										<filter>
											<effect>
												<name>Gain</name>
												<effectid>{61756678, 4761696e, 4b657947}</effectid>
												<effecttype>filter</effecttype>
												<mediatype>audio</mediatype>
												<parameter authoringApp="PremierePro">
													<parameterid>Gain(dB)</parameterid>
													<name>Gain(dB)</name>
													<valuemin>-96</valuemin>
													<valuemax>96</valuemax>
													<value>-6</value>
												</parameter>
											</effect>
										</filter>
										<link>
											<linkclipref>clipitem-406</linkclipref>
											<mediatype>video</mediatype>
											<trackindex>1</trackindex>
											<clipindex>2</clipindex>
										</link>
										<link>
											<linkclipref>clipitem-408</linkclipref>
											<mediatype>audio</mediatype>
											<trackindex>1</trackindex>
											<clipindex>2</clipindex>
											<groupindex>1</groupindex>
										</link>
										<link>
											<linkclipref>clipitem-410</linkclipref>
											<mediatype>audio</mediatype>
											<trackindex>2</trackindex>
											<clipindex>2</clipindex>
											<groupindex>1</groupindex>
										</link>
										<logginginfo>
											<description></description>
											<scene></scene>
											<shottake></shottake>
											<lognote>https://www.youtube.com/watch?v=wIduHgWJXig</lognote>
											<good></good>
											<originalvideofilename></originalvideofilename>
											<originalaudiofilename></originalaudiofilename>
										</logginginfo>
										<colorinfo>
											<lut></lut>
											<lut1></lut1>
											<asc_sop></asc_sop>
											<asc_sat></asc_sat>
											<lut2></lut2>
										</colorinfo>
										<labels>
											<label2>Iris</label2>
										</labels>
									</clipitem>
									<transitionitem>
										<start>2417</start>
										<end>2447</end>
										<pproTicksIn>20485687622400</pproTicksIn>
										<pproTicksOut>20739957638400</pproTicksOut>
										<alignment>end-black</alignment>
										<cutPointTicks>254270016000</cutPointTicks>
										<rate>
											<timebase>30</timebase>
											<ntsc>TRUE</ntsc>
										</rate>
										<effect>
											<name>Cross Fade (+3dB)</name>
											<effectid>KGAudioTransCrossFade3dB</effectid>
											<effecttype>transition</effecttype>
											<mediatype>audio</mediatype>
											<wipecode>0</wipecode>
											<wipeaccuracy>100</wipeaccuracy>
											<startratio>0</startratio>
											<endratio>1</endratio>
											<reverse>FALSE</reverse>
										</effect>
									</transitionitem>
									<enabled>TRUE</enabled>
									<locked>FALSE</locked>
									<outputchannelindex>2</outputchannelindex>
								</track>
								<track TL.SQTrackAudioKeyframeStyle="0" TL.SQTrackShy="0" TL.SQTrackExpandedHeight="25" TL.SQTrackExpanded="0" MZ.TrackTargeted="0" PannerCurrentValue="0.5" PannerIsInverted="true" PannerStartKeyframe="-91445760000000000,0.5,0,0,0,0,0,0" PannerName="Balance" currentExplodedTrackIndex="0" totalExplodedTrackCount="2" premiereTrackType="Stereo">
									<clipitem id="clipitem-411" premiereChannelType="stereo">
										<masterclipid>masterclip-40</masterclipid>
										<name>ES_Let's Bounce - Jules Gaia.wav</name>
										<enabled>TRUE</enabled>
										<duration>4174</duration>
										<rate>
											<timebase>30</timebase>
											<ntsc>TRUE</ntsc>
										</rate>
										<start>0</start>
										<end>-1</end>
										<in>0</in>
										<out>2439</out>
										<pproTicksIn>0</pproTicksIn>
										<pproTicksOut>20672152300800</pproTicksOut>
										<file id="file-40"/>
										<sourcetrack>
											<mediatype>audio</mediatype>
											<trackindex>1</trackindex>
										</sourcetrack>
										<filter>
											<effect>
												<name>Gain</name>
												<effectid>{61756678, 4761696e, 4b657947}</effectid>
												<effecttype>filter</effecttype>
												<mediatype>audio</mediatype>
												<parameter authoringApp="PremierePro">
													<parameterid>Gain(dB)</parameterid>
													<name>Gain(dB)</name>
													<valuemin>-96</valuemin>
													<valuemax>96</valuemax>
													<value>-12</value>
												</parameter>
											</effect>
										</filter>
										<link>
											<linkclipref>clipitem-411</linkclipref>
											<mediatype>audio</mediatype>
											<trackindex>3</trackindex>
											<clipindex>1</clipindex>
											<groupindex>1</groupindex>
										</link>
										<link>
											<linkclipref>clipitem-412</linkclipref>
											<mediatype>audio</mediatype>
											<trackindex>4</trackindex>
											<clipindex>1</clipindex>
											<groupindex>1</groupindex>
										</link>
										<logginginfo>
											<description></description>
											<scene></scene>
											<shottake></shottake>
											<lognote></lognote>
											<good></good>
											<originalvideofilename></originalvideofilename>
											<originalaudiofilename></originalaudiofilename>
										</logginginfo>
										<colorinfo>
											<lut></lut>
											<lut1></lut1>
											<asc_sop></asc_sop>
											<asc_sat></asc_sat>
											<lut2></lut2>
										</colorinfo>
										<labels>
											<label2>Caribbean</label2>
										</labels>
									</clipitem>
									<transitionitem>
										<start>2325</start>
										<end>2439</end>
										<pproTicksIn>19705926240000</pproTicksIn>
										<pproTicksOut>20672152300800</pproTicksOut>
										<alignment>end-black</alignment>
										<cutPointTicks>966226060800</cutPointTicks>
										<rate>
											<timebase>30</timebase>
											<ntsc>TRUE</ntsc>
										</rate>
										<effect>
											<name>Cross Fade (+3dB)</name>
											<effectid>KGAudioTransCrossFade3dB</effectid>
											<effecttype>transition</effecttype>
											<mediatype>audio</mediatype>
											<wipecode>0</wipecode>
											<wipeaccuracy>100</wipeaccuracy>
											<startratio>0</startratio>
											<endratio>1</endratio>
											<reverse>FALSE</reverse>
										</effect>
									</transitionitem>
									<enabled>TRUE</enabled>
									<locked>FALSE</locked>
									<outputchannelindex>1</outputchannelindex>
								</track>
								<track TL.SQTrackAudioKeyframeStyle="0" TL.SQTrackShy="0" TL.SQTrackExpandedHeight="25" TL.SQTrackExpanded="0" MZ.TrackTargeted="0" PannerCurrentValue="0.5" PannerIsInverted="true" PannerStartKeyframe="-91445760000000000,0.5,0,0,0,0,0,0" PannerName="Balance" currentExplodedTrackIndex="1" totalExplodedTrackCount="2" premiereTrackType="Stereo">
									<clipitem id="clipitem-412" premiereChannelType="stereo">
										<masterclipid>masterclip-40</masterclipid>
										<name>ES_Let's Bounce - Jules Gaia.wav</name>
										<enabled>TRUE</enabled>
										<duration>4174</duration>
										<rate>
											<timebase>30</timebase>
											<ntsc>TRUE</ntsc>
										</rate>
										<start>0</start>
										<end>-1</end>
										<in>0</in>
										<out>2439</out>
										<pproTicksIn>0</pproTicksIn>
										<pproTicksOut>20672152300800</pproTicksOut>
										<file id="file-40"/>
										<sourcetrack>
											<mediatype>audio</mediatype>
											<trackindex>2</trackindex>
										</sourcetrack>
										<filter>
											<effect>
												<name>Gain</name>
												<effectid>{61756678, 4761696e, 4b657947}</effectid>
												<effecttype>filter</effecttype>
												<mediatype>audio</mediatype>
												<parameter authoringApp="PremierePro">
													<parameterid>Gain(dB)</parameterid>
													<name>Gain(dB)</name>
													<valuemin>-96</valuemin>
													<valuemax>96</valuemax>
													<value>-12</value>
												</parameter>
											</effect>
										</filter>
										<link>
											<linkclipref>clipitem-411</linkclipref>
											<mediatype>audio</mediatype>
											<trackindex>3</trackindex>
											<clipindex>1</clipindex>
											<groupindex>1</groupindex>
										</link>
										<link>
											<linkclipref>clipitem-412</linkclipref>
											<mediatype>audio</mediatype>
											<trackindex>4</trackindex>
											<clipindex>1</clipindex>
											<groupindex>1</groupindex>
										</link>
										<logginginfo>
											<description></description>
											<scene></scene>
											<shottake></shottake>
											<lognote></lognote>
											<good></good>
											<originalvideofilename></originalvideofilename>
											<originalaudiofilename></originalaudiofilename>
										</logginginfo>
										<colorinfo>
											<lut></lut>
											<lut1></lut1>
											<asc_sop></asc_sop>
											<asc_sat></asc_sat>
											<lut2></lut2>
										</colorinfo>
										<labels>
											<label2>Caribbean</label2>
										</labels>
									</clipitem>
									<transitionitem>
										<start>2325</start>
										<end>2439</end>
										<pproTicksIn>19705926240000</pproTicksIn>
										<pproTicksOut>20672152300800</pproTicksOut>
										<alignment>end-black</alignment>
										<cutPointTicks>966226060800</cutPointTicks>
										<rate>
											<timebase>30</timebase>
											<ntsc>TRUE</ntsc>
										</rate>
										<effect>
											<name>Cross Fade (+3dB)</name>
											<effectid>KGAudioTransCrossFade3dB</effectid>
											<effecttype>transition</effecttype>
											<mediatype>audio</mediatype>
											<wipecode>0</wipecode>
											<wipeaccuracy>100</wipeaccuracy>
											<startratio>0</startratio>
											<endratio>1</endratio>
											<reverse>FALSE</reverse>
										</effect>
									</transitionitem>
									<enabled>TRUE</enabled>
									<locked>FALSE</locked>
									<outputchannelindex>2</outputchannelindex>
								</track>
							</audio>
						</media>
						<timecode>
							<rate>
								<timebase>30</timebase>
								<ntsc>TRUE</ntsc>
							</rate>
							<string>00:00:00:00</string>
							<frame>0</frame>
							<displayformat>NDF</displayformat>
						</timecode>
						<labels>
							<label2>Forest</label2>
						</labels>
						<logginginfo>
							<description></description>
							<scene></scene>
							<shottake></shottake>
							<lognote></lognote>
							<good></good>
							<originalvideofilename></originalvideofilename>
							<originalaudiofilename></originalaudiofilename>
						</logginginfo>
					</sequence>
<sequence id="sequence-17"/>
				</children>
			</bin>
		</children>
	</project>
</xmeml>
