<?xml version="1.0" encoding="UTF-8"?>
<!DOCTYPE xmeml>
<xmeml version="4">
	<project>
		<name>Crafty_3-20-2023</name>
		<children>
			<bin>
				<name>0_Final Sequences</name>
				<labels>
					<label2>Mango</label2>
				</labels>
				<children>
					<sequence id="sequence-1" TL.SQAudioVisibleBase="0" TL.SQVideoVisibleBase="0" TL.SQVisibleBaseTime="0" TL.SQAVDividerPosition="0.5" TL.SQHideShyTracks="0" TL.SQHeaderWidth="236" TL.SQDataTrackViewControlState="0" Monitor.ProgramZoomOut="45344819520000" Monitor.ProgramZoomIn="0" TL.SQTimePerPixel="0.17857783607793565" MZ.EditLine="0" MZ.Sequence.PreviewFrameSizeHeight="1080" MZ.Sequence.PreviewFrameSizeWidth="1920" MZ.Sequence.AudioTimeDisplayFormat="200" MZ.Sequence.PreviewRenderingClassID="1061109567" MZ.Sequence.PreviewRenderingPresetCodec="1634755443" MZ.Sequence.PreviewRenderingPresetPath="EncoderPresets/SequencePreview/35d109db-457b-43c1-9452-9cb7be9f121c/QuickTime.epr" MZ.Sequence.PreviewUseMaxRenderQuality="false" MZ.Sequence.PreviewUseMaxBitDepth="false" MZ.Sequence.EditingModeGUID="35d109db-457b-43c1-9452-9cb7be9f121c" MZ.Sequence.VideoTimeDisplayFormat="102" MZ.WorkOutPoint="15239249625600" MZ.WorkInPoint="0" explodedTracks="true">
						<uuid>66c2e583-742b-4399-a2f5-11c6f72b2974</uuid>
						<duration>5350</duration>
						<rate>
							<timebase>30</timebase>
							<ntsc>TRUE</ntsc>
						</rate>
						<name>ATM_CRAFTY_181</name>
						<media>
							<video>
								<format>
									<samplecharacteristics>
										<rate>
											<timebase>30</timebase>
											<ntsc>TRUE</ntsc>
										</rate>
										<codec>
											<name>Apple ProRes 422</name>
											<appspecificdata>
												<appname>Final Cut Pro</appname>
												<appmanufacturer>Apple Inc.</appmanufacturer>
												<appversion>7.0</appversion>
												<data>
													<qtcodec>
														<codecname>Apple ProRes 422</codecname>
														<codectypename>Apple ProRes 422</codectypename>
														<codectypecode>apcn</codectypecode>
														<codecvendorcode>appl</codecvendorcode>
														<spatialquality>1024</spatialquality>
														<temporalquality>0</temporalquality>
														<keyframerate>0</keyframerate>
														<datarate>0</datarate>
													</qtcodec>
												</data>
											</appspecificdata>
										</codec>
										<width>1920</width>
										<height>1080</height>
										<anamorphic>FALSE</anamorphic>
										<pixelaspectratio>square</pixelaspectratio>
										<fielddominance>none</fielddominance>
										<colordepth>24</colordepth>
									</samplecharacteristics>
								</format>
								<track TL.SQTrackShy="0" TL.SQTrackExpandedHeight="25" TL.SQTrackExpanded="0" MZ.TrackTargeted="1">
									<clipitem id="clipitem-1">
										<masterclipid>masterclip-1</masterclipid>
										<name>DIY_PEEPTHISSIGN_1.5</name>
										<enabled>TRUE</enabled>
										<duration>3870</duration>
										<rate>
											<timebase>30</timebase>
											<ntsc>TRUE</ntsc>
										</rate>
										<start>0</start>
										<end>2486</end>
										<in>0</in>
										<out>2486</out>
										<pproTicksIn>0</pproTicksIn>
										<pproTicksOut>21070508659200</pproTicksOut>
										<sequence id="sequence-2" TL.SQAudioVisibleBase="0" TL.SQVideoVisibleBase="0" TL.SQVisibleBaseTime="14387177723779" TL.SQAVDividerPosition="0.5" TL.SQHideShyTracks="0" TL.SQHeaderWidth="236" TL.SQDataTrackViewControlState="0" Monitor.ProgramZoomOut="21070508659200" Monitor.ProgramZoomIn="0" TL.SQTimePerPixel="0.034293138997182802" MZ.EditLine="16163097350400" MZ.Sequence.PreviewFrameSizeHeight="1080" MZ.Sequence.PreviewFrameSizeWidth="1920" MZ.Sequence.AudioTimeDisplayFormat="200" MZ.Sequence.PreviewRenderingClassID="1061109567" MZ.Sequence.PreviewRenderingPresetCodec="1634755443" MZ.Sequence.PreviewRenderingPresetPath="EncoderPresets/SequencePreview/35d109db-457b-43c1-9452-9cb7be9f121c/QuickTime.epr" MZ.Sequence.PreviewUseMaxRenderQuality="false" MZ.Sequence.PreviewUseMaxBitDepth="false" MZ.Sequence.EditingModeGUID="35d109db-457b-43c1-9452-9cb7be9f121c" MZ.Sequence.VideoTimeDisplayFormat="102" MZ.WorkOutPoint="25350720595200" MZ.WorkInPoint="0">
											<duration>2486</duration>
											<rate>
												<timebase>30</timebase>
												<ntsc>TRUE</ntsc>
											</rate>
											<name>DIY_PEEPTHISSIGN_1.5</name>
											<media>
												<video>
													<format>
														<samplecharacteristics>
															<rate>
																<timebase>30</timebase>
																<ntsc>TRUE</ntsc>
															</rate>
															<codec>
																<name>Apple ProRes 422</name>
																<appspecificdata>
																	<appname>Final Cut Pro</appname>
																	<appmanufacturer>Apple Inc.</appmanufacturer>
																	<appversion>7.0</appversion>
																	<data>
																		<qtcodec>
																			<codecname>Apple ProRes 422</codecname>
																			<codectypename>Apple ProRes 422</codectypename>
																			<codectypecode>apcn</codectypecode>
																			<codecvendorcode>appl</codecvendorcode>
																			<spatialquality>1024</spatialquality>
																			<temporalquality>0</temporalquality>
																			<keyframerate>0</keyframerate>
																			<datarate>0</datarate>
																		</qtcodec>
																	</data>
																</appspecificdata>
															</codec>
															<width>1920</width>
															<height>1080</height>
															<anamorphic>FALSE</anamorphic>
															<pixelaspectratio>square</pixelaspectratio>
															<fielddominance>none</fielddominance>
															<colordepth>24</colordepth>
														</samplecharacteristics>
													</format>
													<track TL.SQTrackShy="0" TL.SQTrackExpandedHeight="25" TL.SQTrackExpanded="0" MZ.TrackTargeted="1">
														<clipitem id="clipitem-2">
															<masterclipid>masterclip-2</masterclipid>
															<name>(The Crafty Quinn)_MUST TRY EASTER 2022 DOLLAR TREE DIYS _ EASTER 2022 DIY IDEAS _ BUDGET FRIENDLY_lYTTHAx5LcA_YT.mp4</name>
															<enabled>TRUE</enabled>
															<duration>18847</duration>
															<rate>
																<timebase>30</timebase>
																<ntsc>TRUE</ntsc>
															</rate>
															<start>0</start>
															<end>120</end>
															<in>3313</in>
															<out>3432</out>
															<pproTicksIn>45387197856000</pproTicksIn>
															<pproTicksOut>47031477292800</pproTicksOut>
															<alphatype>none</alphatype>
															<pixelaspectratio>square</pixelaspectratio>
															<anamorphic>FALSE</anamorphic>
															<file id="file-1">
																<name>(The Crafty Quinn)_MUST TRY EASTER 2022 DOLLAR TREE DIYS _ EASTER 2022 DIY IDEAS _ BUDGET FRIENDLY_lYTTHAx5LcA_YT.mp4</name>
																<pathurl>file://localhost/Volumes/CONTENT/VOD%20CONTENT%20ARCHIVE/O&amp;O%20Archive%202023/CRAFTY/03_March/Crafty_3-20-2023/3_Raw%20Files/Easter%20DIY'S%202/(The%20Crafty%20Quinn)_MUST%20TRY%20EASTER%202022%20DOLLAR%20TREE%20DIYS%20_%20EASTER%202022%20DIY%20IDEAS%20_%20BUDGET%20FRIENDLY_lYTTHAx5LcA_YT.mp4</pathurl>
																<rate>
																	<timebase>30</timebase>
																	<ntsc>TRUE</ntsc>
																</rate>
																<duration>30470</duration>
																<timecode>
																	<rate>
																		<timebase>30</timebase>
																		<ntsc>TRUE</ntsc>
																	</rate>
																	<string>00:00:00:00</string>
																	<frame>0</frame>
																	<displayformat>NDF</displayformat>
																</timecode>
																<media>
																	<video>
																		<samplecharacteristics>
																			<rate>
																				<timebase>30</timebase>
																				<ntsc>TRUE</ntsc>
																			</rate>
																			<width>1920</width>
																			<height>1080</height>
																			<anamorphic>FALSE</anamorphic>
																			<pixelaspectratio>square</pixelaspectratio>
																			<fielddominance>none</fielddominance>
																		</samplecharacteristics>
																	</video>
																	<audio>
																		<samplecharacteristics>
																			<depth>16</depth>
																			<samplerate>44100</samplerate>
																		</samplecharacteristics>
																		<channelcount>2</channelcount>
																	</audio>
																</media>
															</file>
															<filter>
																<effect>
																	<name>Basic Motion</name>
																	<effectid>basic</effectid>
																	<effectcategory>motion</effectcategory>
																	<effecttype>motion</effecttype>
																	<mediatype>video</mediatype>
																	<pproBypass>false</pproBypass>
																	<parameter authoringApp="PremierePro">
																		<parameterid>scale</parameterid>
																		<name>Scale</name>
																		<valuemin>0</valuemin>
																		<valuemax>1000</valuemax>
																		<value>339</value>
																	</parameter>
																	<parameter authoringApp="PremierePro">
																		<parameterid>rotation</parameterid>
																		<name>Rotation</name>
																		<valuemin>-8640</valuemin>
																		<valuemax>8640</valuemax>
																		<value>0</value>
																	</parameter>
																	<parameter authoringApp="PremierePro">
																		<parameterid>center</parameterid>
																		<name>Center</name>
																		<value>
																			<horiz>0</horiz>
																			<vert>0</vert>
																		</value>
																	</parameter>
																	<parameter authoringApp="PremierePro">
																		<parameterid>centerOffset</parameterid>
																		<name>Anchor Point</name>
																		<value>
																			<horiz>0</horiz>
																			<vert>0</vert>
																		</value>
																	</parameter>
																	<parameter authoringApp="PremierePro">
																		<parameterid>antiflicker</parameterid>
																		<name>Anti-flicker Filter</name>
																		<valuemin>0.0</valuemin>
																		<valuemax>1.0</valuemax>
																		<value>0</value>
																	</parameter>
																</effect>
															</filter>
															<filter>
																<effect>
																	<name>Gaussian Blur</name>
																	<effectid>Gaussian Blur</effectid>
																	<effectcategory>Blur</effectcategory>
																	<effecttype>motion</effecttype>
																	<mediatype>video</mediatype>
																	<pproBypass>false</pproBypass>
																	<parameter authoringApp="PremierePro">
																		<parameterid>radius</parameterid>
																		<name>Radius</name>
																		<valuemin>0</valuemin>
																		<valuemax>100</valuemax>
																		<value>25</value>
																	</parameter>
																</effect>
															</filter>
															<filter>
																<effect>
																	<name>Time Remap</name>
																	<effectid>timeremap</effectid>
																	<effectcategory>motion</effectcategory>
																	<effecttype>motion</effecttype>
																	<mediatype>video</mediatype>
																	<parameter authoringApp="PremierePro">
																		<parameterid>variablespeed</parameterid>
																		<name>variablespeed</name>
																		<valuemin>0</valuemin>
																		<valuemax>1</valuemax>
																		<value>0</value>
																	</parameter>
																	<parameter authoringApp="PremierePro">
																		<parameterid>speed</parameterid>
																		<name>speed</name>
																		<valuemin>-100000</valuemin>
																		<valuemax>100000</valuemax>
																		<value>161.667</value>
																	</parameter>
																	<parameter authoringApp="PremierePro">
																		<parameterid>reverse</parameterid>
																		<name>reverse</name>
																		<value>FALSE</value>
																	</parameter>
																	<parameter authoringApp="PremierePro">
																		<parameterid>frameblending</parameterid>
																		<name>frameblending</name>
																		<value>FALSE</value>
																	</parameter>
																	<parameter authoringApp="PremierePro">
																		<parameterid>graphdict</parameterid>
																		<name>graphdict</name>
																		<valuemin>0</valuemin>
																		<valuemax>30469</valuemax>
																		<value>0</value>
																		<keyframe>
																			<when>0</when>
																			<value>0</value>
																			<speedvirtualkf>TRUE</speedvirtualkf>
																			<speedkfstart>TRUE</speedkfstart>
																		</keyframe>
																		<keyframe>
																			<when>3313</when>
																			<value>5356</value>
																			<speedvirtualkf>TRUE</speedvirtualkf>
																			<speedkfin>TRUE</speedkfin>
																		</keyframe>
																		<keyframe>
																			<when>3432</when>
																			<value>5548</value>
																			<speedvirtualkf>TRUE</speedvirtualkf>
																			<speedkfout>TRUE</speedkfout>
																		</keyframe>
																		<keyframe>
																			<when>18847</when>
																			<value>30469</value>
																			<speedvirtualkf>TRUE</speedvirtualkf>
																			<speedkfend>TRUE</speedkfend>
																		</keyframe>
																		<interpolation>
																			<name>FCPCurve</name>
																		</interpolation>
																	</parameter>
																</effect>
															</filter>
															<logginginfo>
																<description></description>
																<scene></scene>
																<shottake></shottake>
																<lognote>https://www.youtube.com/watch?v=lYTTHAx5LcA</lognote>
																<good></good>
																<originalvideofilename></originalvideofilename>
																<originalaudiofilename></originalaudiofilename>
															</logginginfo>
															<colorinfo>
																<lut></lut>
																<lut1></lut1>
																<asc_sop></asc_sop>
																<asc_sat></asc_sat>
																<lut2></lut2>
															</colorinfo>
															<labels>
																<label2>Iris</label2>
															</labels>
														</clipitem>
														<clipitem id="clipitem-3">
															<masterclipid>masterclip-2</masterclipid>
															<name>(The Crafty Quinn)_MUST TRY EASTER 2022 DOLLAR TREE DIYS _ EASTER 2022 DIY IDEAS _ BUDGET FRIENDLY_lYTTHAx5LcA_YT.mp4</name>
															<enabled>TRUE</enabled>
															<duration>25716</duration>
															<rate>
																<timebase>30</timebase>
																<ntsc>TRUE</ntsc>
															</rate>
															<start>120</start>
															<end>397</end>
															<in>1112</in>
															<out>1388</out>
															<pproTicksIn>11157671594333</pproTicksIn>
															<pproTicksOut>13939354539473</pproTicksOut>
															<alphatype>none</alphatype>
															<file id="file-1"/>
															<filter>
																<effect>
																	<name>Time Remap</name>
																	<effectid>timeremap</effectid>
																	<effectcategory>motion</effectcategory>
																	<effecttype>motion</effecttype>
																	<mediatype>video</mediatype>
																	<parameter authoringApp="PremierePro">
																		<parameterid>variablespeed</parameterid>
																		<name>variablespeed</name>
																		<valuemin>0</valuemin>
																		<valuemax>1</valuemax>
																		<value>0</value>
																	</parameter>
																	<parameter authoringApp="PremierePro">
																		<parameterid>speed</parameterid>
																		<name>speed</name>
																		<valuemin>-100000</valuemin>
																		<valuemax>100000</valuemax>
																		<value>118.482</value>
																	</parameter>
																	<parameter authoringApp="PremierePro">
																		<parameterid>reverse</parameterid>
																		<name>reverse</name>
																		<value>FALSE</value>
																	</parameter>
																	<parameter authoringApp="PremierePro">
																		<parameterid>frameblending</parameterid>
																		<name>frameblending</name>
																		<value>FALSE</value>
																	</parameter>
																	<parameter authoringApp="PremierePro">
																		<parameterid>graphdict</parameterid>
																		<name>graphdict</name>
																		<valuemin>0</valuemin>
																		<valuemax>30468</valuemax>
																		<value>0</value>
																		<keyframe>
																			<when>0</when>
																			<value>0</value>
																			<speedvirtualkf>TRUE</speedvirtualkf>
																			<speedkfstart>TRUE</speedkfstart>
																		</keyframe>
																		<keyframe>
																			<when>1112</when>
																			<value>1317</value>
																			<speedvirtualkf>TRUE</speedvirtualkf>
																			<speedkfin>TRUE</speedkfin>
																		</keyframe>
																		<keyframe>
																			<when>1388</when>
																			<value>1644</value>
																			<speedvirtualkf>TRUE</speedvirtualkf>
																			<speedkfout>TRUE</speedkfout>
																		</keyframe>
																		<keyframe>
																			<when>25716</when>
																			<value>30468</value>
																			<speedvirtualkf>TRUE</speedvirtualkf>
																			<speedkfend>TRUE</speedkfend>
																		</keyframe>
																		<interpolation>
																			<name>FCPCurve</name>
																		</interpolation>
																	</parameter>
																</effect>
															</filter>
															<logginginfo>
																<description></description>
																<scene></scene>
																<shottake></shottake>
																<lognote>https://www.youtube.com/watch?v=lYTTHAx5LcA</lognote>
																<good></good>
																<originalvideofilename></originalvideofilename>
																<originalaudiofilename></originalaudiofilename>
															</logginginfo>
															<colorinfo>
																<lut></lut>
																<lut1></lut1>
																<asc_sop></asc_sop>
																<asc_sat></asc_sat>
																<lut2></lut2>
															</colorinfo>
															<labels>
																<label2>Iris</label2>
															</labels>
														</clipitem>
														<clipitem id="clipitem-4">
															<masterclipid>masterclip-2</masterclipid>
															<name>(The Crafty Quinn)_MUST TRY EASTER 2022 DOLLAR TREE DIYS _ EASTER 2022 DIY IDEAS _ BUDGET FRIENDLY_lYTTHAx5LcA_YT.mp4</name>
															<enabled>TRUE</enabled>
															<duration>25716</duration>
															<rate>
																<timebase>30</timebase>
																<ntsc>TRUE</ntsc>
															</rate>
															<start>397</start>
															<end>579</end>
															<in>1449</in>
															<out>1630</out>
															<pproTicksIn>14541885141307</pproTicksIn>
															<pproTicksOut>16369561300207</pproTicksOut>
															<alphatype>none</alphatype>
															<file id="file-1"/>
															<filter>
																<effect>
																	<name>Time Remap</name>
																	<effectid>timeremap</effectid>
																	<effectcategory>motion</effectcategory>
																	<effecttype>motion</effecttype>
																	<mediatype>video</mediatype>
																	<parameter authoringApp="PremierePro">
																		<parameterid>variablespeed</parameterid>
																		<name>variablespeed</name>
																		<valuemin>0</valuemin>
																		<valuemax>1</valuemax>
																		<value>0</value>
																	</parameter>
																	<parameter authoringApp="PremierePro">
																		<parameterid>speed</parameterid>
																		<name>speed</name>
																		<valuemin>-100000</valuemin>
																		<valuemax>100000</valuemax>
																		<value>118.482</value>
																	</parameter>
																	<parameter authoringApp="PremierePro">
																		<parameterid>reverse</parameterid>
																		<name>reverse</name>
																		<value>FALSE</value>
																	</parameter>
																	<parameter authoringApp="PremierePro">
																		<parameterid>frameblending</parameterid>
																		<name>frameblending</name>
																		<value>FALSE</value>
																	</parameter>
																	<parameter authoringApp="PremierePro">
																		<parameterid>graphdict</parameterid>
																		<name>graphdict</name>
																		<valuemin>0</valuemin>
																		<valuemax>30468</valuemax>
																		<value>0</value>
																		<keyframe>
																			<when>0</when>
																			<value>0</value>
																			<speedvirtualkf>TRUE</speedvirtualkf>
																			<speedkfstart>TRUE</speedkfstart>
																		</keyframe>
																		<keyframe>
																			<when>1449</when>
																			<value>1716</value>
																			<speedvirtualkf>TRUE</speedvirtualkf>
																			<speedkfin>TRUE</speedkfin>
																		</keyframe>
																		<keyframe>
																			<when>1630</when>
																			<value>1931</value>
																			<speedvirtualkf>TRUE</speedvirtualkf>
																			<speedkfout>TRUE</speedkfout>
																		</keyframe>
																		<keyframe>
																			<when>25716</when>
																			<value>30468</value>
																			<speedvirtualkf>TRUE</speedvirtualkf>
																			<speedkfend>TRUE</speedkfend>
																		</keyframe>
																		<interpolation>
																			<name>FCPCurve</name>
																		</interpolation>
																	</parameter>
																</effect>
															</filter>
															<logginginfo>
																<description></description>
																<scene></scene>
																<shottake></shottake>
																<lognote>https://www.youtube.com/watch?v=lYTTHAx5LcA</lognote>
																<good></good>
																<originalvideofilename></originalvideofilename>
																<originalaudiofilename></originalaudiofilename>
															</logginginfo>
															<colorinfo>
																<lut></lut>
																<lut1></lut1>
																<asc_sop></asc_sop>
																<asc_sat></asc_sat>
																<lut2></lut2>
															</colorinfo>
															<labels>
																<label2>Iris</label2>
															</labels>
														</clipitem>
														<clipitem id="clipitem-5">
															<masterclipid>masterclip-2</masterclipid>
															<name>(The Crafty Quinn)_MUST TRY EASTER 2022 DOLLAR TREE DIYS _ EASTER 2022 DIY IDEAS _ BUDGET FRIENDLY_lYTTHAx5LcA_YT.mp4</name>
															<enabled>TRUE</enabled>
															<duration>25716</duration>
															<rate>
																<timebase>30</timebase>
																<ntsc>TRUE</ntsc>
															</rate>
															<start>579</start>
															<end>967</end>
															<in>1859</in>
															<out>2246</out>
															<pproTicksIn>18659177587178</pproTicksIn>
															<pproTicksOut>22555542145717</pproTicksOut>
															<alphatype>none</alphatype>
															<file id="file-1"/>
															<filter>
																<effect>
																	<name>Time Remap</name>
																	<effectid>timeremap</effectid>
																	<effectcategory>motion</effectcategory>
																	<effecttype>motion</effecttype>
																	<mediatype>video</mediatype>
																	<parameter authoringApp="PremierePro">
																		<parameterid>variablespeed</parameterid>
																		<name>variablespeed</name>
																		<valuemin>0</valuemin>
																		<valuemax>1</valuemax>
																		<value>0</value>
																	</parameter>
																	<parameter authoringApp="PremierePro">
																		<parameterid>speed</parameterid>
																		<name>speed</name>
																		<valuemin>-100000</valuemin>
																		<valuemax>100000</valuemax>
																		<value>118.482</value>
																	</parameter>
																	<parameter authoringApp="PremierePro">
																		<parameterid>reverse</parameterid>
																		<name>reverse</name>
																		<value>FALSE</value>
																	</parameter>
																	<parameter authoringApp="PremierePro">
																		<parameterid>frameblending</parameterid>
																		<name>frameblending</name>
																		<value>FALSE</value>
																	</parameter>
																	<parameter authoringApp="PremierePro">
																		<parameterid>graphdict</parameterid>
																		<name>graphdict</name>
																		<valuemin>0</valuemin>
																		<valuemax>30468</valuemax>
																		<value>0</value>
																		<keyframe>
																			<when>0</when>
																			<value>0</value>
																			<speedvirtualkf>TRUE</speedvirtualkf>
																			<speedkfstart>TRUE</speedkfstart>
																		</keyframe>
																		<keyframe>
																			<when>1859</when>
																			<value>2202</value>
																			<speedvirtualkf>TRUE</speedvirtualkf>
																			<speedkfin>TRUE</speedkfin>
																		</keyframe>
																		<keyframe>
																			<when>2246</when>
																			<value>2661</value>
																			<speedvirtualkf>TRUE</speedvirtualkf>
																			<speedkfout>TRUE</speedkfout>
																		</keyframe>
																		<keyframe>
																			<when>25716</when>
																			<value>30468</value>
																			<speedvirtualkf>TRUE</speedvirtualkf>
																			<speedkfend>TRUE</speedkfend>
																		</keyframe>
																		<interpolation>
																			<name>FCPCurve</name>
																		</interpolation>
																	</parameter>
																</effect>
															</filter>
															<logginginfo>
																<description></description>
																<scene></scene>
																<shottake></shottake>
																<lognote>https://www.youtube.com/watch?v=lYTTHAx5LcA</lognote>
																<good></good>
																<originalvideofilename></originalvideofilename>
																<originalaudiofilename></originalaudiofilename>
															</logginginfo>
															<colorinfo>
																<lut></lut>
																<lut1></lut1>
																<asc_sop></asc_sop>
																<asc_sat></asc_sat>
																<lut2></lut2>
															</colorinfo>
															<labels>
																<label2>Iris</label2>
															</labels>
														</clipitem>
														<clipitem id="clipitem-6">
															<masterclipid>masterclip-2</masterclipid>
															<name>(The Crafty Quinn)_MUST TRY EASTER 2022 DOLLAR TREE DIYS _ EASTER 2022 DIY IDEAS _ BUDGET FRIENDLY_lYTTHAx5LcA_YT.mp4</name>
															<enabled>TRUE</enabled>
															<duration>25716</duration>
															<rate>
																<timebase>30</timebase>
																<ntsc>TRUE</ntsc>
															</rate>
															<start>967</start>
															<end>1541</end>
															<in>2452</in>
															<out>3025</out>
															<pproTicksIn>24614188368647</pproTicksIn>
															<pproTicksOut>30378397792876</pproTicksOut>
															<alphatype>none</alphatype>
															<file id="file-1"/>
															<filter>
																<effect>
																	<name>Time Remap</name>
																	<effectid>timeremap</effectid>
																	<effectcategory>motion</effectcategory>
																	<effecttype>motion</effecttype>
																	<mediatype>video</mediatype>
																	<parameter authoringApp="PremierePro">
																		<parameterid>variablespeed</parameterid>
																		<name>variablespeed</name>
																		<valuemin>0</valuemin>
																		<valuemax>1</valuemax>
																		<value>0</value>
																	</parameter>
																	<parameter authoringApp="PremierePro">
																		<parameterid>speed</parameterid>
																		<name>speed</name>
																		<valuemin>-100000</valuemin>
																		<valuemax>100000</valuemax>
																		<value>118.482</value>
																	</parameter>
																	<parameter authoringApp="PremierePro">
																		<parameterid>reverse</parameterid>
																		<name>reverse</name>
																		<value>FALSE</value>
																	</parameter>
																	<parameter authoringApp="PremierePro">
																		<parameterid>frameblending</parameterid>
																		<name>frameblending</name>
																		<value>FALSE</value>
																	</parameter>
																	<parameter authoringApp="PremierePro">
																		<parameterid>graphdict</parameterid>
																		<name>graphdict</name>
																		<valuemin>0</valuemin>
																		<valuemax>30468</valuemax>
																		<value>0</value>
																		<keyframe>
																			<when>0</when>
																			<value>0</value>
																			<speedvirtualkf>TRUE</speedvirtualkf>
																			<speedkfstart>TRUE</speedkfstart>
																		</keyframe>
																		<keyframe>
																			<when>2452</when>
																			<value>2905</value>
																			<speedvirtualkf>TRUE</speedvirtualkf>
																			<speedkfin>TRUE</speedkfin>
																		</keyframe>
																		<keyframe>
																			<when>3025</when>
																			<value>3584</value>
																			<speedvirtualkf>TRUE</speedvirtualkf>
																			<speedkfout>TRUE</speedkfout>
																		</keyframe>
																		<keyframe>
																			<when>25716</when>
																			<value>30468</value>
																			<speedvirtualkf>TRUE</speedvirtualkf>
																			<speedkfend>TRUE</speedkfend>
																		</keyframe>
																		<interpolation>
																			<name>FCPCurve</name>
																		</interpolation>
																	</parameter>
																</effect>
															</filter>
															<logginginfo>
																<description></description>
																<scene></scene>
																<shottake></shottake>
																<lognote>https://www.youtube.com/watch?v=lYTTHAx5LcA</lognote>
																<good></good>
																<originalvideofilename></originalvideofilename>
																<originalaudiofilename></originalaudiofilename>
															</logginginfo>
															<colorinfo>
																<lut></lut>
																<lut1></lut1>
																<asc_sop></asc_sop>
																<asc_sat></asc_sat>
																<lut2></lut2>
															</colorinfo>
															<labels>
																<label2>Iris</label2>
															</labels>
														</clipitem>
														<clipitem id="clipitem-7">
															<masterclipid>masterclip-2</masterclipid>
															<name>(The Crafty Quinn)_MUST TRY EASTER 2022 DOLLAR TREE DIYS _ EASTER 2022 DIY IDEAS _ BUDGET FRIENDLY_lYTTHAx5LcA_YT.mp4</name>
															<enabled>TRUE</enabled>
															<duration>25716</duration>
															<rate>
																<timebase>30</timebase>
																<ntsc>TRUE</ntsc>
															</rate>
															<start>1541</start>
															<end>1647</end>
															<in>3312</in>
															<out>3417</out>
															<pproTicksIn>33250460328284</pproTicksIn>
															<pproTicksOut>34314931058201</pproTicksOut>
															<alphatype>none</alphatype>
															<file id="file-1"/>
															<filter>
																<effect>
																	<name>Time Remap</name>
																	<effectid>timeremap</effectid>
																	<effectcategory>motion</effectcategory>
																	<effecttype>motion</effecttype>
																	<mediatype>video</mediatype>
																	<parameter authoringApp="PremierePro">
																		<parameterid>variablespeed</parameterid>
																		<name>variablespeed</name>
																		<valuemin>0</valuemin>
																		<valuemax>1</valuemax>
																		<value>0</value>
																	</parameter>
																	<parameter authoringApp="PremierePro">
																		<parameterid>speed</parameterid>
																		<name>speed</name>
																		<valuemin>-100000</valuemin>
																		<valuemax>100000</valuemax>
																		<value>118.482</value>
																	</parameter>
																	<parameter authoringApp="PremierePro">
																		<parameterid>reverse</parameterid>
																		<name>reverse</name>
																		<value>FALSE</value>
																	</parameter>
																	<parameter authoringApp="PremierePro">
																		<parameterid>frameblending</parameterid>
																		<name>frameblending</name>
																		<value>FALSE</value>
																	</parameter>
																	<parameter authoringApp="PremierePro">
																		<parameterid>graphdict</parameterid>
																		<name>graphdict</name>
																		<valuemin>0</valuemin>
																		<valuemax>30468</valuemax>
																		<value>0</value>
																		<keyframe>
																			<when>0</when>
																			<value>0</value>
																			<speedvirtualkf>TRUE</speedvirtualkf>
																			<speedkfstart>TRUE</speedkfstart>
																		</keyframe>
																		<keyframe>
																			<when>3312</when>
																			<value>3924</value>
																			<speedvirtualkf>TRUE</speedvirtualkf>
																			<speedkfin>TRUE</speedkfin>
																		</keyframe>
																		<keyframe>
																			<when>3417</when>
																			<value>4048</value>
																			<speedvirtualkf>TRUE</speedvirtualkf>
																			<speedkfout>TRUE</speedkfout>
																		</keyframe>
																		<keyframe>
																			<when>25716</when>
																			<value>30468</value>
																			<speedvirtualkf>TRUE</speedvirtualkf>
																			<speedkfend>TRUE</speedkfend>
																		</keyframe>
																		<interpolation>
																			<name>FCPCurve</name>
																		</interpolation>
																	</parameter>
																</effect>
															</filter>
															<logginginfo>
																<description></description>
																<scene></scene>
																<shottake></shottake>
																<lognote>https://www.youtube.com/watch?v=lYTTHAx5LcA</lognote>
																<good></good>
																<originalvideofilename></originalvideofilename>
																<originalaudiofilename></originalaudiofilename>
															</logginginfo>
															<colorinfo>
																<lut></lut>
																<lut1></lut1>
																<asc_sop></asc_sop>
																<asc_sat></asc_sat>
																<lut2></lut2>
															</colorinfo>
															<labels>
																<label2>Iris</label2>
															</labels>
														</clipitem>
														<clipitem id="clipitem-8">
															<masterclipid>masterclip-2</masterclipid>
															<name>(The Crafty Quinn)_MUST TRY EASTER 2022 DOLLAR TREE DIYS _ EASTER 2022 DIY IDEAS _ BUDGET FRIENDLY_lYTTHAx5LcA_YT.mp4</name>
															<enabled>TRUE</enabled>
															<duration>25716</duration>
															<rate>
																<timebase>30</timebase>
																<ntsc>TRUE</ntsc>
															</rate>
															<start>1647</start>
															<end>1886</end>
															<in>3512</in>
															<out>3750</out>
															<pproTicksIn>35258895667733</pproTicksIn>
															<pproTicksOut>37658975898386</pproTicksOut>
															<alphatype>none</alphatype>
															<file id="file-1"/>
															<filter>
																<effect>
																	<name>Time Remap</name>
																	<effectid>timeremap</effectid>
																	<effectcategory>motion</effectcategory>
																	<effecttype>motion</effecttype>
																	<mediatype>video</mediatype>
																	<parameter authoringApp="PremierePro">
																		<parameterid>variablespeed</parameterid>
																		<name>variablespeed</name>
																		<valuemin>0</valuemin>
																		<valuemax>1</valuemax>
																		<value>0</value>
																	</parameter>
																	<parameter authoringApp="PremierePro">
																		<parameterid>speed</parameterid>
																		<name>speed</name>
																		<valuemin>-100000</valuemin>
																		<valuemax>100000</valuemax>
																		<value>118.482</value>
																	</parameter>
																	<parameter authoringApp="PremierePro">
																		<parameterid>reverse</parameterid>
																		<name>reverse</name>
																		<value>FALSE</value>
																	</parameter>
																	<parameter authoringApp="PremierePro">
																		<parameterid>frameblending</parameterid>
																		<name>frameblending</name>
																		<value>FALSE</value>
																	</parameter>
																	<parameter authoringApp="PremierePro">
																		<parameterid>graphdict</parameterid>
																		<name>graphdict</name>
																		<valuemin>0</valuemin>
																		<valuemax>30468</valuemax>
																		<value>0</value>
																		<keyframe>
																			<when>0</when>
																			<value>0</value>
																			<speedvirtualkf>TRUE</speedvirtualkf>
																			<speedkfstart>TRUE</speedkfstart>
																		</keyframe>
																		<keyframe>
																			<when>3512</when>
																			<value>4161</value>
																			<speedvirtualkf>TRUE</speedvirtualkf>
																			<speedkfin>TRUE</speedkfin>
																		</keyframe>
																		<keyframe>
																			<when>3750</when>
																			<value>4443</value>
																			<speedvirtualkf>TRUE</speedvirtualkf>
																			<speedkfout>TRUE</speedkfout>
																		</keyframe>
																		<keyframe>
																			<when>25716</when>
																			<value>30468</value>
																			<speedvirtualkf>TRUE</speedvirtualkf>
																			<speedkfend>TRUE</speedkfend>
																		</keyframe>
																		<interpolation>
																			<name>FCPCurve</name>
																		</interpolation>
																	</parameter>
																</effect>
															</filter>
															<logginginfo>
																<description></description>
																<scene></scene>
																<shottake></shottake>
																<lognote>https://www.youtube.com/watch?v=lYTTHAx5LcA</lognote>
																<good></good>
																<originalvideofilename></originalvideofilename>
																<originalaudiofilename></originalaudiofilename>
															</logginginfo>
															<colorinfo>
																<lut></lut>
																<lut1></lut1>
																<asc_sop></asc_sop>
																<asc_sat></asc_sat>
																<lut2></lut2>
															</colorinfo>
															<labels>
																<label2>Iris</label2>
															</labels>
														</clipitem>
														<clipitem id="clipitem-9">
															<masterclipid>masterclip-2</masterclipid>
															<name>(The Crafty Quinn)_MUST TRY EASTER 2022 DOLLAR TREE DIYS _ EASTER 2022 DIY IDEAS _ BUDGET FRIENDLY_lYTTHAx5LcA_YT.mp4</name>
															<enabled>TRUE</enabled>
															<duration>25716</duration>
															<rate>
																<timebase>30</timebase>
																<ntsc>TRUE</ntsc>
															</rate>
															<start>1886</start>
															<end>2390</end>
															<in>3888</in>
															<out>4391</out>
															<pproTicksIn>39034754105898</pproTicksIn>
															<pproTicksOut>44096011161327</pproTicksOut>
															<alphatype>none</alphatype>
															<file id="file-1"/>
															<filter>
																<effect>
																	<name>Time Remap</name>
																	<effectid>timeremap</effectid>
																	<effectcategory>motion</effectcategory>
																	<effecttype>motion</effecttype>
																	<mediatype>video</mediatype>
																	<parameter authoringApp="PremierePro">
																		<parameterid>variablespeed</parameterid>
																		<name>variablespeed</name>
																		<valuemin>0</valuemin>
																		<valuemax>1</valuemax>
																		<value>0</value>
																	</parameter>
																	<parameter authoringApp="PremierePro">
																		<parameterid>speed</parameterid>
																		<name>speed</name>
																		<valuemin>-100000</valuemin>
																		<valuemax>100000</valuemax>
																		<value>118.482</value>
																	</parameter>
																	<parameter authoringApp="PremierePro">
																		<parameterid>reverse</parameterid>
																		<name>reverse</name>
																		<value>FALSE</value>
																	</parameter>
																	<parameter authoringApp="PremierePro">
																		<parameterid>frameblending</parameterid>
																		<name>frameblending</name>
																		<value>FALSE</value>
																	</parameter>
																	<parameter authoringApp="PremierePro">
																		<parameterid>graphdict</parameterid>
																		<name>graphdict</name>
																		<valuemin>0</valuemin>
																		<valuemax>30468</valuemax>
																		<value>0</value>
																		<keyframe>
																			<when>0</when>
																			<value>0</value>
																			<speedvirtualkf>TRUE</speedvirtualkf>
																			<speedkfstart>TRUE</speedkfstart>
																		</keyframe>
																		<keyframe>
																			<when>3888</when>
																			<value>4606</value>
																			<speedvirtualkf>TRUE</speedvirtualkf>
																			<speedkfin>TRUE</speedkfin>
																		</keyframe>
																		<keyframe>
																			<when>4391</when>
																			<value>5202</value>
																			<speedvirtualkf>TRUE</speedvirtualkf>
																			<speedkfout>TRUE</speedkfout>
																		</keyframe>
																		<keyframe>
																			<when>25716</when>
																			<value>30468</value>
																			<speedvirtualkf>TRUE</speedvirtualkf>
																			<speedkfend>TRUE</speedkfend>
																		</keyframe>
																		<interpolation>
																			<name>FCPCurve</name>
																		</interpolation>
																	</parameter>
																</effect>
															</filter>
															<logginginfo>
																<description></description>
																<scene></scene>
																<shottake></shottake>
																<lognote>https://www.youtube.com/watch?v=lYTTHAx5LcA</lognote>
																<good></good>
																<originalvideofilename></originalvideofilename>
																<originalaudiofilename></originalaudiofilename>
															</logginginfo>
															<colorinfo>
																<lut></lut>
																<lut1></lut1>
																<asc_sop></asc_sop>
																<asc_sat></asc_sat>
																<lut2></lut2>
															</colorinfo>
															<labels>
																<label2>Iris</label2>
															</labels>
														</clipitem>
														<clipitem id="clipitem-10">
															<masterclipid>masterclip-2</masterclipid>
															<name>(The Crafty Quinn)_MUST TRY EASTER 2022 DOLLAR TREE DIYS _ EASTER 2022 DIY IDEAS _ BUDGET FRIENDLY_lYTTHAx5LcA_YT.mp4</name>
															<enabled>TRUE</enabled>
															<duration>15077</duration>
															<rate>
																<timebase>30</timebase>
																<ntsc>TRUE</ntsc>
															</rate>
															<start>2390</start>
															<end>2486</end>
															<in>2650</in>
															<out>2745</out>
															<pproTicksIn>45387197856000</pproTicksIn>
															<pproTicksOut>47031477292800</pproTicksOut>
															<alphatype>none</alphatype>
															<file id="file-1"/>
															<filter>
																<effect>
																	<name>Basic Motion</name>
																	<effectid>basic</effectid>
																	<effectcategory>motion</effectcategory>
																	<effecttype>motion</effecttype>
																	<mediatype>video</mediatype>
																	<pproBypass>false</pproBypass>
																	<parameter authoringApp="PremierePro">
																		<parameterid>scale</parameterid>
																		<name>Scale</name>
																		<valuemin>0</valuemin>
																		<valuemax>1000</valuemax>
																		<value>339</value>
																	</parameter>
																	<parameter authoringApp="PremierePro">
																		<parameterid>rotation</parameterid>
																		<name>Rotation</name>
																		<valuemin>-8640</valuemin>
																		<valuemax>8640</valuemax>
																		<value>0</value>
																	</parameter>
																	<parameter authoringApp="PremierePro">
																		<parameterid>center</parameterid>
																		<name>Center</name>
																		<value>
																			<horiz>0</horiz>
																			<vert>0</vert>
																		</value>
																	</parameter>
																	<parameter authoringApp="PremierePro">
																		<parameterid>centerOffset</parameterid>
																		<name>Anchor Point</name>
																		<value>
																			<horiz>0</horiz>
																			<vert>0</vert>
																		</value>
																	</parameter>
																	<parameter authoringApp="PremierePro">
																		<parameterid>antiflicker</parameterid>
																		<name>Anti-flicker Filter</name>
																		<valuemin>0.0</valuemin>
																		<valuemax>1.0</valuemax>
																		<value>0</value>
																	</parameter>
																</effect>
															</filter>
															<filter>
																<effect>
																	<name>Gaussian Blur</name>
																	<effectid>Gaussian Blur</effectid>
																	<effectcategory>Blur</effectcategory>
																	<effecttype>motion</effecttype>
																	<mediatype>video</mediatype>
																	<pproBypass>false</pproBypass>
																	<parameter authoringApp="PremierePro">
																		<parameterid>radius</parameterid>
																		<name>Radius</name>
																		<valuemin>0</valuemin>
																		<valuemax>100</valuemax>
																		<value>25</value>
																	</parameter>
																</effect>
															</filter>
															<filter>
																<effect>
																	<name>Time Remap</name>
																	<effectid>timeremap</effectid>
																	<effectcategory>motion</effectcategory>
																	<effecttype>motion</effecttype>
																	<mediatype>video</mediatype>
																	<parameter authoringApp="PremierePro">
																		<parameterid>variablespeed</parameterid>
																		<name>variablespeed</name>
																		<valuemin>0</valuemin>
																		<valuemax>1</valuemax>
																		<value>0</value>
																	</parameter>
																	<parameter authoringApp="PremierePro">
																		<parameterid>speed</parameterid>
																		<name>speed</name>
																		<valuemin>-100000</valuemin>
																		<valuemax>100000</valuemax>
																		<value>202.083</value>
																	</parameter>
																	<parameter authoringApp="PremierePro">
																		<parameterid>reverse</parameterid>
																		<name>reverse</name>
																		<value>FALSE</value>
																	</parameter>
																	<parameter authoringApp="PremierePro">
																		<parameterid>frameblending</parameterid>
																		<name>frameblending</name>
																		<value>FALSE</value>
																	</parameter>
																	<parameter authoringApp="PremierePro">
																		<parameterid>graphdict</parameterid>
																		<name>graphdict</name>
																		<valuemin>0</valuemin>
																		<valuemax>30468</valuemax>
																		<value>0</value>
																		<keyframe>
																			<when>0</when>
																			<value>0</value>
																			<speedvirtualkf>TRUE</speedvirtualkf>
																			<speedkfstart>TRUE</speedkfstart>
																		</keyframe>
																		<keyframe>
																			<when>2650</when>
																			<value>5355</value>
																			<speedvirtualkf>TRUE</speedvirtualkf>
																			<speedkfin>TRUE</speedkfin>
																		</keyframe>
																		<keyframe>
																			<when>2745</when>
																			<value>5547</value>
																			<speedvirtualkf>TRUE</speedvirtualkf>
																			<speedkfout>TRUE</speedkfout>
																		</keyframe>
																		<keyframe>
																			<when>15077</when>
																			<value>30468</value>
																			<speedvirtualkf>TRUE</speedvirtualkf>
																			<speedkfend>TRUE</speedkfend>
																		</keyframe>
																		<interpolation>
																			<name>FCPCurve</name>
																		</interpolation>
																	</parameter>
																</effect>
															</filter>
															<logginginfo>
																<description></description>
																<scene></scene>
																<shottake></shottake>
																<lognote>https://www.youtube.com/watch?v=lYTTHAx5LcA</lognote>
																<good></good>
																<originalvideofilename></originalvideofilename>
																<originalaudiofilename></originalaudiofilename>
															</logginginfo>
															<colorinfo>
																<lut></lut>
																<lut1></lut1>
																<asc_sop></asc_sop>
																<asc_sat></asc_sat>
																<lut2></lut2>
															</colorinfo>
															<labels>
																<label2>Iris</label2>
															</labels>
														</clipitem>
														<enabled>TRUE</enabled>
														<locked>FALSE</locked>
													</track>
													<track TL.SQTrackShy="0" TL.SQTrackExpandedHeight="25" TL.SQTrackExpanded="0" MZ.TrackTargeted="0">
														<clipitem id="clipitem-11">
															<masterclipid>masterclip-2</masterclipid>
															<name>(The Crafty Quinn)_MUST TRY EASTER 2022 DOLLAR TREE DIYS _ EASTER 2022 DIY IDEAS _ BUDGET FRIENDLY_lYTTHAx5LcA_YT.mp4</name>
															<enabled>TRUE</enabled>
															<duration>18847</duration>
															<rate>
																<timebase>30</timebase>
																<ntsc>TRUE</ntsc>
															</rate>
															<start>0</start>
															<end>120</end>
															<in>3311</in>
															<out>3430</out>
															<pproTicksIn>45359793198719</pproTicksIn>
															<pproTicksOut>47004072635519</pproTicksOut>
															<alphatype>none</alphatype>
															<file id="file-1"/>
															<filter>
																<effect>
																	<name>Basic Motion</name>
																	<effectid>basic</effectid>
																	<effectcategory>motion</effectcategory>
																	<effecttype>motion</effecttype>
																	<mediatype>video</mediatype>
																	<pproBypass>false</pproBypass>
																	<parameter authoringApp="PremierePro">
																		<parameterid>scale</parameterid>
																		<name>Scale</name>
																		<valuemin>0</valuemin>
																		<valuemax>1000</valuemax>
																		<value>100</value>
																		<keyframe>
																			<when>3312</when>
																			<value>100</value>
																		</keyframe>
																		<keyframe>
																			<when>3431</when>
																			<value>105</value>
																		</keyframe>
																	</parameter>
																	<parameter authoringApp="PremierePro">
																		<parameterid>rotation</parameterid>
																		<name>Rotation</name>
																		<valuemin>-8640</valuemin>
																		<valuemax>8640</valuemax>
																		<value>0</value>
																	</parameter>
																	<parameter authoringApp="PremierePro">
																		<parameterid>center</parameterid>
																		<name>Center</name>
																		<value>
																			<horiz>0</horiz>
																			<vert>0</vert>
																		</value>
																	</parameter>
																	<parameter authoringApp="PremierePro">
																		<parameterid>centerOffset</parameterid>
																		<name>Anchor Point</name>
																		<value>
																			<horiz>0</horiz>
																			<vert>0</vert>
																		</value>
																	</parameter>
																	<parameter authoringApp="PremierePro">
																		<parameterid>antiflicker</parameterid>
																		<name>Anti-flicker Filter</name>
																		<valuemin>0.0</valuemin>
																		<valuemax>1.0</valuemax>
																		<value>0</value>
																	</parameter>
																</effect>
															</filter>
															<filter>
																<effect>
																	<name>Crop</name>
																	<effectid>crop</effectid>
																	<effectcategory>motion</effectcategory>
																	<effecttype>motion</effecttype>
																	<mediatype>video</mediatype>
																	<pproBypass>false</pproBypass>
																	<parameter authoringApp="PremierePro">
																		<parameterid>left</parameterid>
																		<name>left</name>
																		<valuemin>0</valuemin>
																		<valuemax>100</valuemax>
																		<value>31</value>
																	</parameter>
																	<parameter authoringApp="PremierePro">
																		<parameterid>right</parameterid>
																		<name>right</name>
																		<valuemin>0</valuemin>
																		<valuemax>100</valuemax>
																		<value>31</value>
																	</parameter>
																	<parameter authoringApp="PremierePro">
																		<parameterid>top</parameterid>
																		<name>top</name>
																		<valuemin>0</valuemin>
																		<valuemax>100</valuemax>
																		<value>0</value>
																	</parameter>
																	<parameter authoringApp="PremierePro">
																		<parameterid>bottom</parameterid>
																		<name>bottom</name>
																		<valuemin>0</valuemin>
																		<valuemax>100</valuemax>
																		<value>0</value>
																	</parameter>
																</effect>
															</filter>
															<filter>
																<effect>
																	<name>Time Remap</name>
																	<effectid>timeremap</effectid>
																	<effectcategory>motion</effectcategory>
																	<effecttype>motion</effecttype>
																	<mediatype>video</mediatype>
																	<parameter authoringApp="PremierePro">
																		<parameterid>variablespeed</parameterid>
																		<name>variablespeed</name>
																		<valuemin>0</valuemin>
																		<valuemax>1</valuemax>
																		<value>0</value>
																	</parameter>
																	<parameter authoringApp="PremierePro">
																		<parameterid>speed</parameterid>
																		<name>speed</name>
																		<valuemin>-100000</valuemin>
																		<valuemax>100000</valuemax>
																		<value>161.667</value>
																	</parameter>
																	<parameter authoringApp="PremierePro">
																		<parameterid>reverse</parameterid>
																		<name>reverse</name>
																		<value>FALSE</value>
																	</parameter>
																	<parameter authoringApp="PremierePro">
																		<parameterid>frameblending</parameterid>
																		<name>frameblending</name>
																		<value>FALSE</value>
																	</parameter>
																	<parameter authoringApp="PremierePro">
																		<parameterid>graphdict</parameterid>
																		<name>graphdict</name>
																		<valuemin>0</valuemin>
																		<valuemax>30469</valuemax>
																		<value>0</value>
																		<keyframe>
																			<when>0</when>
																			<value>0</value>
																			<speedvirtualkf>TRUE</speedvirtualkf>
																			<speedkfstart>TRUE</speedkfstart>
																		</keyframe>
																		<keyframe>
																			<when>3311</when>
																			<value>5352</value>
																			<speedvirtualkf>TRUE</speedvirtualkf>
																			<speedkfin>TRUE</speedkfin>
																		</keyframe>
																		<keyframe>
																			<when>3430</when>
																			<value>5545</value>
																			<speedvirtualkf>TRUE</speedvirtualkf>
																			<speedkfout>TRUE</speedkfout>
																		</keyframe>
																		<keyframe>
																			<when>18847</when>
																			<value>30469</value>
																			<speedvirtualkf>TRUE</speedvirtualkf>
																			<speedkfend>TRUE</speedkfend>
																		</keyframe>
																		<interpolation>
																			<name>FCPCurve</name>
																		</interpolation>
																	</parameter>
																</effect>
															</filter>
															<logginginfo>
																<description></description>
																<scene></scene>
																<shottake></shottake>
																<lognote>https://www.youtube.com/watch?v=lYTTHAx5LcA</lognote>
																<good></good>
																<originalvideofilename></originalvideofilename>
																<originalaudiofilename></originalaudiofilename>
															</logginginfo>
															<colorinfo>
																<lut></lut>
																<lut1></lut1>
																<asc_sop></asc_sop>
																<asc_sat></asc_sat>
																<lut2></lut2>
															</colorinfo>
															<labels>
																<label2>Iris</label2>
															</labels>
														</clipitem>
														<clipitem id="clipitem-12">
															<masterclipid>masterclip-2</masterclipid>
															<name>(The Crafty Quinn)_MUST TRY EASTER 2022 DOLLAR TREE DIYS _ EASTER 2022 DIY IDEAS _ BUDGET FRIENDLY_lYTTHAx5LcA_YT.mp4</name>
															<enabled>TRUE</enabled>
															<duration>15077</duration>
															<rate>
																<timebase>30</timebase>
																<ntsc>TRUE</ntsc>
															</rate>
															<start>2390</start>
															<end>2486</end>
															<in>2650</in>
															<out>2745</out>
															<pproTicksIn>45387197856000</pproTicksIn>
															<pproTicksOut>47031477292800</pproTicksOut>
															<alphatype>none</alphatype>
															<file id="file-1"/>
															<filter>
																<effect>
																	<name>Basic Motion</name>
																	<effectid>basic</effectid>
																	<effectcategory>motion</effectcategory>
																	<effecttype>motion</effecttype>
																	<mediatype>video</mediatype>
																	<pproBypass>false</pproBypass>
																	<parameter authoringApp="PremierePro">
																		<parameterid>scale</parameterid>
																		<name>Scale</name>
																		<valuemin>0</valuemin>
																		<valuemax>1000</valuemax>
																		<value>100</value>
																		<keyframe>
																			<when>2649</when>
																			<value>100</value>
																		</keyframe>
																		<keyframe>
																			<when>2745</when>
																			<value>105</value>
																		</keyframe>
																	</parameter>
																	<parameter authoringApp="PremierePro">
																		<parameterid>rotation</parameterid>
																		<name>Rotation</name>
																		<valuemin>-8640</valuemin>
																		<valuemax>8640</valuemax>
																		<value>0</value>
																	</parameter>
																	<parameter authoringApp="PremierePro">
																		<parameterid>center</parameterid>
																		<name>Center</name>
																		<value>
																			<horiz>0</horiz>
																			<vert>0</vert>
																		</value>
																	</parameter>
																	<parameter authoringApp="PremierePro">
																		<parameterid>centerOffset</parameterid>
																		<name>Anchor Point</name>
																		<value>
																			<horiz>0</horiz>
																			<vert>0</vert>
																		</value>
																	</parameter>
																	<parameter authoringApp="PremierePro">
																		<parameterid>antiflicker</parameterid>
																		<name>Anti-flicker Filter</name>
																		<valuemin>0.0</valuemin>
																		<valuemax>1.0</valuemax>
																		<value>0</value>
																	</parameter>
																</effect>
															</filter>
															<filter>
																<effect>
																	<name>Crop</name>
																	<effectid>crop</effectid>
																	<effectcategory>motion</effectcategory>
																	<effecttype>motion</effecttype>
																	<mediatype>video</mediatype>
																	<pproBypass>false</pproBypass>
																	<parameter authoringApp="PremierePro">
																		<parameterid>left</parameterid>
																		<name>left</name>
																		<valuemin>0</valuemin>
																		<valuemax>100</valuemax>
																		<value>31</value>
																	</parameter>
																	<parameter authoringApp="PremierePro">
																		<parameterid>right</parameterid>
																		<name>right</name>
																		<valuemin>0</valuemin>
																		<valuemax>100</valuemax>
																		<value>31</value>
																	</parameter>
																	<parameter authoringApp="PremierePro">
																		<parameterid>top</parameterid>
																		<name>top</name>
																		<valuemin>0</valuemin>
																		<valuemax>100</valuemax>
																		<value>0</value>
																	</parameter>
																	<parameter authoringApp="PremierePro">
																		<parameterid>bottom</parameterid>
																		<name>bottom</name>
																		<valuemin>0</valuemin>
																		<valuemax>100</valuemax>
																		<value>0</value>
																	</parameter>
																</effect>
															</filter>
															<filter>
																<effect>
																	<name>Time Remap</name>
																	<effectid>timeremap</effectid>
																	<effectcategory>motion</effectcategory>
																	<effecttype>motion</effecttype>
																	<mediatype>video</mediatype>
																	<parameter authoringApp="PremierePro">
																		<parameterid>variablespeed</parameterid>
																		<name>variablespeed</name>
																		<valuemin>0</valuemin>
																		<valuemax>1</valuemax>
																		<value>0</value>
																	</parameter>
																	<parameter authoringApp="PremierePro">
																		<parameterid>speed</parameterid>
																		<name>speed</name>
																		<valuemin>-100000</valuemin>
																		<valuemax>100000</valuemax>
																		<value>202.083</value>
																	</parameter>
																	<parameter authoringApp="PremierePro">
																		<parameterid>reverse</parameterid>
																		<name>reverse</name>
																		<value>FALSE</value>
																	</parameter>
																	<parameter authoringApp="PremierePro">
																		<parameterid>frameblending</parameterid>
																		<name>frameblending</name>
																		<value>FALSE</value>
																	</parameter>
																	<parameter authoringApp="PremierePro">
																		<parameterid>graphdict</parameterid>
																		<name>graphdict</name>
																		<valuemin>0</valuemin>
																		<valuemax>30468</valuemax>
																		<value>0</value>
																		<keyframe>
																			<when>0</when>
																			<value>0</value>
																			<speedvirtualkf>TRUE</speedvirtualkf>
																			<speedkfstart>TRUE</speedkfstart>
																		</keyframe>
																		<keyframe>
																			<when>2650</when>
																			<value>5355</value>
																			<speedvirtualkf>TRUE</speedvirtualkf>
																			<speedkfin>TRUE</speedkfin>
																		</keyframe>
																		<keyframe>
																			<when>2745</when>
																			<value>5547</value>
																			<speedvirtualkf>TRUE</speedvirtualkf>
																			<speedkfout>TRUE</speedkfout>
																		</keyframe>
																		<keyframe>
																			<when>15077</when>
																			<value>30468</value>
																			<speedvirtualkf>TRUE</speedvirtualkf>
																			<speedkfend>TRUE</speedkfend>
																		</keyframe>
																		<interpolation>
																			<name>FCPCurve</name>
																		</interpolation>
																	</parameter>
																</effect>
															</filter>
															<logginginfo>
																<description></description>
																<scene></scene>
																<shottake></shottake>
																<lognote>https://www.youtube.com/watch?v=lYTTHAx5LcA</lognote>
																<good></good>
																<originalvideofilename></originalvideofilename>
																<originalaudiofilename></originalaudiofilename>
															</logginginfo>
															<colorinfo>
																<lut></lut>
																<lut1></lut1>
																<asc_sop></asc_sop>
																<asc_sat></asc_sat>
																<lut2></lut2>
															</colorinfo>
															<labels>
																<label2>Iris</label2>
															</labels>
														</clipitem>
														<enabled>TRUE</enabled>
														<locked>FALSE</locked>
													</track>
													<track TL.SQTrackShy="0" TL.SQTrackExpandedHeight="25" TL.SQTrackExpanded="0" MZ.TrackTargeted="0">
														<clipitem id="clipitem-13">
															<masterclipid>masterclip-3</masterclipid>
															<name>THE CRAFTY QUINN</name>
															<enabled>TRUE</enabled>
															<duration>5844</duration>
															<rate>
																<timebase>30</timebase>
																<ntsc>TRUE</ntsc>
															</rate>
															<start>0</start>
															<end>2486</end>
															<in>0</in>
															<out>2486</out>
															<pproTicksIn>0</pproTicksIn>
															<pproTicksOut>21070508659200</pproTicksOut>
															<alphatype>straight</alphatype>
															<pixelaspectratio>square</pixelaspectratio>
															<anamorphic>FALSE</anamorphic>
															<file id="file-2">
																<name>1080/AE Attribution.aep</name>
																<pathurl>file://localhost/Volumes/ATM%20JR%202TB/Master%20Assets/AE%20Attribution.aep</pathurl>
																<rate>
																	<timebase>30</timebase>
																	<ntsc>TRUE</ntsc>
																</rate>
																<duration>5844</duration>
																<timecode>
																	<rate>
																		<timebase>30</timebase>
																		<ntsc>TRUE</ntsc>
																	</rate>
																	<string>00;00;00;00</string>
																	<frame>0</frame>
																	<displayformat>DF</displayformat>
																</timecode>
																<media>
																	<video>
																		<samplecharacteristics>
																			<rate>
																				<timebase>30</timebase>
																				<ntsc>TRUE</ntsc>
																			</rate>
																			<width>1920</width>
																			<height>1080</height>
																			<anamorphic>FALSE</anamorphic>
																			<pixelaspectratio>square</pixelaspectratio>
																			<fielddominance>lower</fielddominance>
																		</samplecharacteristics>
																	</video>
																</media>
															</file>
															<logginginfo>
																<description></description>
																<scene></scene>
																<shottake></shottake>
																<lognote></lognote>
																<good></good>
																<originalvideofilename></originalvideofilename>
																<originalaudiofilename></originalaudiofilename>
															</logginginfo>
															<colorinfo>
																<lut></lut>
																<lut1></lut1>
																<asc_sop></asc_sop>
																<asc_sat></asc_sat>
																<lut2></lut2>
															</colorinfo>
															<labels>
																<label2>Rose</label2>
															</labels>
														</clipitem>
														<enabled>TRUE</enabled>
														<locked>FALSE</locked>
													</track>
													<track TL.SQTrackShy="0" TL.SQTrackExpandedHeight="25" TL.SQTrackExpanded="0" MZ.TrackTargeted="0">
														<enabled>TRUE</enabled>
														<locked>FALSE</locked>
													</track>
												</video>
												<audio>
													<numOutputChannels>2</numOutputChannels>
													<format>
														<samplecharacteristics>
															<depth>16</depth>
															<samplerate>48000</samplerate>
														</samplecharacteristics>
													</format>
													<outputs>
														<group>
															<index>1</index>
															<numchannels>1</numchannels>
															<downmix>0</downmix>
															<channel>
																<index>1</index>
															</channel>
														</group>
														<group>
															<index>2</index>
															<numchannels>1</numchannels>
															<downmix>0</downmix>
															<channel>
																<index>2</index>
															</channel>
														</group>
													</outputs>
													<track TL.SQTrackAudioKeyframeStyle="0" TL.SQTrackShy="0" TL.SQTrackExpandedHeight="25" TL.SQTrackExpanded="0" MZ.TrackTargeted="1" PannerCurrentValue="0.5" PannerIsInverted="true" PannerStartKeyframe="-91445760000000000,0.5,0,0,0,0,0,0" PannerName="Balance" currentExplodedTrackIndex="0" totalExplodedTrackCount="2" premiereTrackType="Stereo">
														<enabled>TRUE</enabled>
														<locked>FALSE</locked>
														<outputchannelindex>1</outputchannelindex>
													</track>
													<track TL.SQTrackAudioKeyframeStyle="0" TL.SQTrackShy="0" TL.SQTrackExpandedHeight="25" TL.SQTrackExpanded="0" MZ.TrackTargeted="1" PannerCurrentValue="0.5" PannerIsInverted="true" PannerStartKeyframe="-91445760000000000,0.5,0,0,0,0,0,0" PannerName="Balance" currentExplodedTrackIndex="1" totalExplodedTrackCount="2" premiereTrackType="Stereo">
														<enabled>TRUE</enabled>
														<locked>FALSE</locked>
														<outputchannelindex>2</outputchannelindex>
													</track>
												</audio>
											</media>
											<timecode>
												<rate>
													<timebase>30</timebase>
													<ntsc>TRUE</ntsc>
												</rate>
												<string>00;00;00;00</string>
												<frame>0</frame>
												<displayformat>DF</displayformat>
											</timecode>
											<logginginfo>
												<description></description>
												<scene></scene>
												<shottake></shottake>
												<lognote></lognote>
												<good></good>
												<originalvideofilename></originalvideofilename>
												<originalaudiofilename></originalaudiofilename>
											</logginginfo>
										</sequence>
										<labels>
											<label2>Forest</label2>
										</labels>
									</clipitem>
									<clipitem id="clipitem-14">
										<masterclipid>masterclip-4</masterclipid>
										<name>ART_CHANGINGOFTHESEASONS_1.5</name>
										<enabled>TRUE</enabled>
										<duration>2709</duration>
										<rate>
											<timebase>30</timebase>
											<ntsc>TRUE</ntsc>
										</rate>
										<start>2554</start>
										<end>5263</end>
										<in>0</in>
										<out>2709</out>
										<pproTicksIn>0</pproTicksIn>
										<pproTicksOut>22960582444800</pproTicksOut>
										<sequence id="sequence-3" TL.SQAudioVisibleBase="0" TL.SQVideoVisibleBase="0" TL.SQVisibleBaseTime="12719988064086" TL.SQAVDividerPosition="0.5" TL.SQHideShyTracks="0" TL.SQHeaderWidth="236" Monitor.ProgramZoomOut="22960582444800" Monitor.ProgramZoomIn="0" TL.SQTimePerPixel="0.17022727362424001" MZ.EditLine="0" MZ.Sequence.PreviewFrameSizeHeight="1080" MZ.Sequence.PreviewFrameSizeWidth="1920" MZ.Sequence.AudioTimeDisplayFormat="200" MZ.Sequence.PreviewRenderingClassID="1061109567" MZ.Sequence.PreviewRenderingPresetCodec="1634755443" MZ.Sequence.PreviewRenderingPresetPath="EncoderPresets/SequencePreview/35d109db-457b-43c1-9452-9cb7be9f121c/QuickTime.epr" MZ.Sequence.PreviewUseMaxRenderQuality="false" MZ.Sequence.PreviewUseMaxBitDepth="false" MZ.Sequence.EditingModeGUID="35d109db-457b-43c1-9452-9cb7be9f121c" MZ.Sequence.VideoTimeDisplayFormat="102" MZ.WorkOutPoint="22960582444800" MZ.WorkInPoint="0">
											<duration>2709</duration>
											<rate>
												<timebase>30</timebase>
												<ntsc>TRUE</ntsc>
											</rate>
											<name>ART_CHANGINGOFTHESEASONS_1.5</name>
											<media>
												<video>
													<format>
														<samplecharacteristics>
															<rate>
																<timebase>30</timebase>
																<ntsc>TRUE</ntsc>
															</rate>
															<codec>
																<name>Apple ProRes 422</name>
																<appspecificdata>
																	<appname>Final Cut Pro</appname>
																	<appmanufacturer>Apple Inc.</appmanufacturer>
																	<appversion>7.0</appversion>
																	<data>
																		<qtcodec>
																			<codecname>Apple ProRes 422</codecname>
																			<codectypename>Apple ProRes 422</codectypename>
																			<codectypecode>apcn</codectypecode>
																			<codecvendorcode>appl</codecvendorcode>
																			<spatialquality>1024</spatialquality>
																			<temporalquality>0</temporalquality>
																			<keyframerate>0</keyframerate>
																			<datarate>0</datarate>
																		</qtcodec>
																	</data>
																</appspecificdata>
															</codec>
															<width>1920</width>
															<height>1080</height>
															<anamorphic>FALSE</anamorphic>
															<pixelaspectratio>square</pixelaspectratio>
															<fielddominance>none</fielddominance>
															<colordepth>24</colordepth>
														</samplecharacteristics>
													</format>
													<track TL.SQTrackShy="0" TL.SQTrackExpandedHeight="25" TL.SQTrackExpanded="0" MZ.TrackTargeted="1">
														<clipitem id="clipitem-15">
															<masterclipid>masterclip-5</masterclipid>
															<name>(Meandering Curiosity)_I made a Four Season Tree Diorama depicting the change over time_lOFFAtjVsOo_YT.mp4</name>
															<enabled>TRUE</enabled>
															<duration>5185</duration>
															<rate>
																<timebase>30</timebase>
																<ntsc>TRUE</ntsc>
															</rate>
															<start>0</start>
															<end>525</end>
															<in>155</in>
															<out>679</out>
															<pproTicksIn>3626332974440</pproTicksIn>
															<pproTicksOut>15914368220952</pproTicksOut>
															<alphatype>none</alphatype>
															<pixelaspectratio>square</pixelaspectratio>
															<anamorphic>FALSE</anamorphic>
															<file id="file-3">
																<name>(Meandering Curiosity)_I made a Four Season Tree Diorama depicting the change over time_lOFFAtjVsOo_YT.mp4</name>
																<pathurl>file://localhost/Volumes/CONTENT/VOD%20CONTENT%20ARCHIVE/O&amp;O%20Archive%202023/CRAFTY/03_March/Crafty_3-20-2023/3_Raw%20Files/tree%20seasons/(Meandering%20Curiosity)_I%20made%20a%20Four%20Season%20Tree%20Diorama%20depicting%20the%20change%20over%20time_lOFFAtjVsOo_YT.mp4</pathurl>
																<rate>
																	<timebase>24</timebase>
																	<ntsc>FALSE</ntsc>
																</rate>
																<duration>11467</duration>
																<timecode>
																	<rate>
																		<timebase>24</timebase>
																		<ntsc>FALSE</ntsc>
																	</rate>
																	<string>00:00:00:00</string>
																	<frame>0</frame>
																	<displayformat>NDF</displayformat>
																</timecode>
																<media>
																	<video>
																		<samplecharacteristics>
																			<rate>
																				<timebase>24</timebase>
																				<ntsc>FALSE</ntsc>
																			</rate>
																			<width>1920</width>
																			<height>1080</height>
																			<anamorphic>FALSE</anamorphic>
																			<pixelaspectratio>square</pixelaspectratio>
																			<fielddominance>none</fielddominance>
																		</samplecharacteristics>
																	</video>
																	<audio>
																		<samplecharacteristics>
																			<depth>16</depth>
																			<samplerate>44100</samplerate>
																		</samplecharacteristics>
																		<channelcount>2</channelcount>
																	</audio>
																</media>
															</file>
															<filter>
																<effect>
																	<name>Time Remap</name>
																	<effectid>timeremap</effectid>
																	<effectcategory>motion</effectcategory>
																	<effecttype>motion</effecttype>
																	<mediatype>video</mediatype>
																	<parameter authoringApp="PremierePro">
																		<parameterid>variablespeed</parameterid>
																		<name>variablespeed</name>
																		<valuemin>0</valuemin>
																		<valuemax>1</valuemax>
																		<value>0</value>
																	</parameter>
																	<parameter authoringApp="PremierePro">
																		<parameterid>speed</parameterid>
																		<name>speed</name>
																		<valuemin>-100000</valuemin>
																		<valuemax>100000</valuemax>
																		<value>276.153</value>
																	</parameter>
																	<parameter authoringApp="PremierePro">
																		<parameterid>reverse</parameterid>
																		<name>reverse</name>
																		<value>FALSE</value>
																	</parameter>
																	<parameter authoringApp="PremierePro">
																		<parameterid>frameblending</parameterid>
																		<name>frameblending</name>
																		<value>FALSE</value>
																	</parameter>
																	<parameter authoringApp="PremierePro">
																		<parameterid>graphdict</parameterid>
																		<name>graphdict</name>
																		<valuemin>0</valuemin>
																		<valuemax>14318</valuemax>
																		<value>0</value>
																		<keyframe>
																			<when>0</when>
																			<value>0</value>
																			<speedvirtualkf>TRUE</speedvirtualkf>
																			<speedkfstart>TRUE</speedkfstart>
																		</keyframe>
																		<keyframe>
																			<when>155</when>
																			<value>428</value>
																			<speedvirtualkf>TRUE</speedvirtualkf>
																			<speedkfin>TRUE</speedkfin>
																		</keyframe>
																		<keyframe>
																			<when>679</when>
																			<value>1875</value>
																			<speedvirtualkf>TRUE</speedvirtualkf>
																			<speedkfout>TRUE</speedkfout>
																		</keyframe>
																		<keyframe>
																			<when>5185</when>
																			<value>14318</value>
																			<speedvirtualkf>TRUE</speedvirtualkf>
																			<speedkfend>TRUE</speedkfend>
																		</keyframe>
																		<interpolation>
																			<name>FCPCurve</name>
																		</interpolation>
																	</parameter>
																</effect>
															</filter>
															<logginginfo>
																<description></description>
																<scene></scene>
																<shottake></shottake>
																<lognote>https://www.youtube.com/watch?v=lOFFAtjVsOo</lognote>
																<good></good>
																<originalvideofilename></originalvideofilename>
																<originalaudiofilename></originalaudiofilename>
															</logginginfo>
															<colorinfo>
																<lut></lut>
																<lut1></lut1>
																<asc_sop></asc_sop>
																<asc_sat></asc_sat>
																<lut2></lut2>
															</colorinfo>
															<labels>
																<label2>Iris</label2>
															</labels>
														</clipitem>
														<clipitem id="clipitem-16">
															<masterclipid>masterclip-5</masterclipid>
															<name>(Meandering Curiosity)_I made a Four Season Tree Diorama depicting the change over time_lOFFAtjVsOo_YT.mp4</name>
															<enabled>TRUE</enabled>
															<duration>5185</duration>
															<rate>
																<timebase>30</timebase>
																<ntsc>TRUE</ntsc>
															</rate>
															<start>525</start>
															<end>1045</end>
															<in>981</in>
															<out>1500</out>
															<pproTicksIn>22959508428943</pproTicksIn>
															<pproTicksOut>35130514768352</pproTicksOut>
															<alphatype>none</alphatype>
															<file id="file-3"/>
															<filter>
																<effect>
																	<name>Time Remap</name>
																	<effectid>timeremap</effectid>
																	<effectcategory>motion</effectcategory>
																	<effecttype>motion</effecttype>
																	<mediatype>video</mediatype>
																	<parameter authoringApp="PremierePro">
																		<parameterid>variablespeed</parameterid>
																		<name>variablespeed</name>
																		<valuemin>0</valuemin>
																		<valuemax>1</valuemax>
																		<value>0</value>
																	</parameter>
																	<parameter authoringApp="PremierePro">
																		<parameterid>speed</parameterid>
																		<name>speed</name>
																		<valuemin>-100000</valuemin>
																		<valuemax>100000</valuemax>
																		<value>276.153</value>
																	</parameter>
																	<parameter authoringApp="PremierePro">
																		<parameterid>reverse</parameterid>
																		<name>reverse</name>
																		<value>FALSE</value>
																	</parameter>
																	<parameter authoringApp="PremierePro">
																		<parameterid>frameblending</parameterid>
																		<name>frameblending</name>
																		<value>FALSE</value>
																	</parameter>
																	<parameter authoringApp="PremierePro">
																		<parameterid>graphdict</parameterid>
																		<name>graphdict</name>
																		<valuemin>0</valuemin>
																		<valuemax>14318</valuemax>
																		<value>0</value>
																		<keyframe>
																			<when>0</when>
																			<value>0</value>
																			<speedvirtualkf>TRUE</speedvirtualkf>
																			<speedkfstart>TRUE</speedkfstart>
																		</keyframe>
																		<keyframe>
																			<when>981</when>
																			<value>2709</value>
																			<speedvirtualkf>TRUE</speedvirtualkf>
																			<speedkfin>TRUE</speedkfin>
																		</keyframe>
																		<keyframe>
																			<when>1500</when>
																			<value>4142</value>
																			<speedvirtualkf>TRUE</speedvirtualkf>
																			<speedkfout>TRUE</speedkfout>
																		</keyframe>
																		<keyframe>
																			<when>5185</when>
																			<value>14318</value>
																			<speedvirtualkf>TRUE</speedvirtualkf>
																			<speedkfend>TRUE</speedkfend>
																		</keyframe>
																		<interpolation>
																			<name>FCPCurve</name>
																		</interpolation>
																	</parameter>
																</effect>
															</filter>
															<logginginfo>
																<description></description>
																<scene></scene>
																<shottake></shottake>
																<lognote>https://www.youtube.com/watch?v=lOFFAtjVsOo</lognote>
																<good></good>
																<originalvideofilename></originalvideofilename>
																<originalaudiofilename></originalaudiofilename>
															</logginginfo>
															<colorinfo>
																<lut></lut>
																<lut1></lut1>
																<asc_sop></asc_sop>
																<asc_sat></asc_sat>
																<lut2></lut2>
															</colorinfo>
															<labels>
																<label2>Iris</label2>
															</labels>
														</clipitem>
														<clipitem id="clipitem-17">
															<masterclipid>masterclip-5</masterclipid>
															<name>(Meandering Curiosity)_I made a Four Season Tree Diorama depicting the change over time_lOFFAtjVsOo_YT.mp4</name>
															<enabled>TRUE</enabled>
															<duration>5185</duration>
															<rate>
																<timebase>30</timebase>
																<ntsc>TRUE</ntsc>
															</rate>
															<start>1045</start>
															<end>1128</end>
															<in>2103</in>
															<out>2185</out>
															<pproTicksIn>49220795184342</pproTicksIn>
															<pproTicksOut>51163475042372</pproTicksOut>
															<alphatype>none</alphatype>
															<file id="file-3"/>
															<filter>
																<effect>
																	<name>Time Remap</name>
																	<effectid>timeremap</effectid>
																	<effectcategory>motion</effectcategory>
																	<effecttype>motion</effecttype>
																	<mediatype>video</mediatype>
																	<parameter authoringApp="PremierePro">
																		<parameterid>variablespeed</parameterid>
																		<name>variablespeed</name>
																		<valuemin>0</valuemin>
																		<valuemax>1</valuemax>
																		<value>0</value>
																	</parameter>
																	<parameter authoringApp="PremierePro">
																		<parameterid>speed</parameterid>
																		<name>speed</name>
																		<valuemin>-100000</valuemin>
																		<valuemax>100000</valuemax>
																		<value>276.153</value>
																	</parameter>
																	<parameter authoringApp="PremierePro">
																		<parameterid>reverse</parameterid>
																		<name>reverse</name>
																		<value>FALSE</value>
																	</parameter>
																	<parameter authoringApp="PremierePro">
																		<parameterid>frameblending</parameterid>
																		<name>frameblending</name>
																		<value>FALSE</value>
																	</parameter>
																	<parameter authoringApp="PremierePro">
																		<parameterid>graphdict</parameterid>
																		<name>graphdict</name>
																		<valuemin>0</valuemin>
																		<valuemax>14318</valuemax>
																		<value>0</value>
																		<keyframe>
																			<when>0</when>
																			<value>0</value>
																			<speedvirtualkf>TRUE</speedvirtualkf>
																			<speedkfstart>TRUE</speedkfstart>
																		</keyframe>
																		<keyframe>
																			<when>2103</when>
																			<value>5807</value>
																			<speedvirtualkf>TRUE</speedvirtualkf>
																			<speedkfin>TRUE</speedkfin>
																		</keyframe>
																		<keyframe>
																			<when>2185</when>
																			<value>6033</value>
																			<speedvirtualkf>TRUE</speedvirtualkf>
																			<speedkfout>TRUE</speedkfout>
																		</keyframe>
																		<keyframe>
																			<when>5185</when>
																			<value>14318</value>
																			<speedvirtualkf>TRUE</speedvirtualkf>
																			<speedkfend>TRUE</speedkfend>
																		</keyframe>
																		<interpolation>
																			<name>FCPCurve</name>
																		</interpolation>
																	</parameter>
																</effect>
															</filter>
															<logginginfo>
																<description></description>
																<scene></scene>
																<shottake></shottake>
																<lognote>https://www.youtube.com/watch?v=lOFFAtjVsOo</lognote>
																<good></good>
																<originalvideofilename></originalvideofilename>
																<originalaudiofilename></originalaudiofilename>
															</logginginfo>
															<colorinfo>
																<lut></lut>
																<lut1></lut1>
																<asc_sop></asc_sop>
																<asc_sat></asc_sat>
																<lut2></lut2>
															</colorinfo>
															<labels>
																<label2>Iris</label2>
															</labels>
														</clipitem>
														<clipitem id="clipitem-18">
															<masterclipid>masterclip-5</masterclipid>
															<name>(Meandering Curiosity)_I made a Four Season Tree Diorama depicting the change over time_lOFFAtjVsOo_YT.mp4</name>
															<enabled>TRUE</enabled>
															<duration>5185</duration>
															<rate>
																<timebase>30</timebase>
																<ntsc>TRUE</ntsc>
															</rate>
															<start>1128</start>
															<end>1485</end>
															<in>2573</in>
															<out>2929</out>
															<pproTicksIn>60221512452643</pproTicksIn>
															<pproTicksOut>68577376420283</pproTicksOut>
															<alphatype>none</alphatype>
															<file id="file-3"/>
															<filter>
																<effect>
																	<name>Time Remap</name>
																	<effectid>timeremap</effectid>
																	<effectcategory>motion</effectcategory>
																	<effecttype>motion</effecttype>
																	<mediatype>video</mediatype>
																	<parameter authoringApp="PremierePro">
																		<parameterid>variablespeed</parameterid>
																		<name>variablespeed</name>
																		<valuemin>0</valuemin>
																		<valuemax>1</valuemax>
																		<value>0</value>
																	</parameter>
																	<parameter authoringApp="PremierePro">
																		<parameterid>speed</parameterid>
																		<name>speed</name>
																		<valuemin>-100000</valuemin>
																		<valuemax>100000</valuemax>
																		<value>276.153</value>
																	</parameter>
																	<parameter authoringApp="PremierePro">
																		<parameterid>reverse</parameterid>
																		<name>reverse</name>
																		<value>FALSE</value>
																	</parameter>
																	<parameter authoringApp="PremierePro">
																		<parameterid>frameblending</parameterid>
																		<name>frameblending</name>
																		<value>FALSE</value>
																	</parameter>
																	<parameter authoringApp="PremierePro">
																		<parameterid>graphdict</parameterid>
																		<name>graphdict</name>
																		<valuemin>0</valuemin>
																		<valuemax>14318</valuemax>
																		<value>0</value>
																		<keyframe>
																			<when>0</when>
																			<value>0</value>
																			<speedvirtualkf>TRUE</speedvirtualkf>
																			<speedkfstart>TRUE</speedkfstart>
																		</keyframe>
																		<keyframe>
																			<when>2573</when>
																			<value>7105</value>
																			<speedvirtualkf>TRUE</speedvirtualkf>
																			<speedkfin>TRUE</speedkfin>
																		</keyframe>
																		<keyframe>
																			<when>2929</when>
																			<value>8088</value>
																			<speedvirtualkf>TRUE</speedvirtualkf>
																			<speedkfout>TRUE</speedkfout>
																		</keyframe>
																		<keyframe>
																			<when>5185</when>
																			<value>14318</value>
																			<speedvirtualkf>TRUE</speedvirtualkf>
																			<speedkfend>TRUE</speedkfend>
																		</keyframe>
																		<interpolation>
																			<name>FCPCurve</name>
																		</interpolation>
																	</parameter>
																</effect>
															</filter>
															<logginginfo>
																<description></description>
																<scene></scene>
																<shottake></shottake>
																<lognote>https://www.youtube.com/watch?v=lOFFAtjVsOo</lognote>
																<good></good>
																<originalvideofilename></originalvideofilename>
																<originalaudiofilename></originalaudiofilename>
															</logginginfo>
															<colorinfo>
																<lut></lut>
																<lut1></lut1>
																<asc_sop></asc_sop>
																<asc_sat></asc_sat>
																<lut2></lut2>
															</colorinfo>
															<labels>
																<label2>Iris</label2>
															</labels>
														</clipitem>
														<clipitem id="clipitem-19">
															<masterclipid>masterclip-5</masterclipid>
															<name>(Meandering Curiosity)_I made a Four Season Tree Diorama depicting the change over time_lOFFAtjVsOo_YT.mp4</name>
															<enabled>TRUE</enabled>
															<duration>5185</duration>
															<rate>
																<timebase>30</timebase>
																<ntsc>TRUE</ntsc>
															</rate>
															<start>1485</start>
															<end>1606</end>
															<in>3170</in>
															<out>3290</out>
															<pproTicksIn>74194763961526</pproTicksIn>
															<pproTicksOut>77026863513600</pproTicksOut>
															<alphatype>none</alphatype>
															<file id="file-3"/>
															<filter>
																<effect>
																	<name>Time Remap</name>
																	<effectid>timeremap</effectid>
																	<effectcategory>motion</effectcategory>
																	<effecttype>motion</effecttype>
																	<mediatype>video</mediatype>
																	<parameter authoringApp="PremierePro">
																		<parameterid>variablespeed</parameterid>
																		<name>variablespeed</name>
																		<valuemin>0</valuemin>
																		<valuemax>1</valuemax>
																		<value>0</value>
																	</parameter>
																	<parameter authoringApp="PremierePro">
																		<parameterid>speed</parameterid>
																		<name>speed</name>
																		<valuemin>-100000</valuemin>
																		<valuemax>100000</valuemax>
																		<value>276.153</value>
																	</parameter>
																	<parameter authoringApp="PremierePro">
																		<parameterid>reverse</parameterid>
																		<name>reverse</name>
																		<value>FALSE</value>
																	</parameter>
																	<parameter authoringApp="PremierePro">
																		<parameterid>frameblending</parameterid>
																		<name>frameblending</name>
																		<value>FALSE</value>
																	</parameter>
																	<parameter authoringApp="PremierePro">
																		<parameterid>graphdict</parameterid>
																		<name>graphdict</name>
																		<valuemin>0</valuemin>
																		<valuemax>14318</valuemax>
																		<value>0</value>
																		<keyframe>
																			<when>0</when>
																			<value>0</value>
																			<speedvirtualkf>TRUE</speedvirtualkf>
																			<speedkfstart>TRUE</speedkfstart>
																		</keyframe>
																		<keyframe>
																			<when>3170</when>
																			<value>8754</value>
																			<speedvirtualkf>TRUE</speedvirtualkf>
																			<speedkfin>TRUE</speedkfin>
																		</keyframe>
																		<keyframe>
																			<when>3290</when>
																			<value>9085</value>
																			<speedvirtualkf>TRUE</speedvirtualkf>
																			<speedkfout>TRUE</speedkfout>
																		</keyframe>
																		<keyframe>
																			<when>5185</when>
																			<value>14318</value>
																			<speedvirtualkf>TRUE</speedvirtualkf>
																			<speedkfend>TRUE</speedkfend>
																		</keyframe>
																		<interpolation>
																			<name>FCPCurve</name>
																		</interpolation>
																	</parameter>
																</effect>
															</filter>
															<logginginfo>
																<description></description>
																<scene></scene>
																<shottake></shottake>
																<lognote>https://www.youtube.com/watch?v=lOFFAtjVsOo</lognote>
																<good></good>
																<originalvideofilename></originalvideofilename>
																<originalaudiofilename></originalaudiofilename>
															</logginginfo>
															<colorinfo>
																<lut></lut>
																<lut1></lut1>
																<asc_sop></asc_sop>
																<asc_sat></asc_sat>
																<lut2></lut2>
															</colorinfo>
															<labels>
																<label2>Iris</label2>
															</labels>
														</clipitem>
														<clipitem id="clipitem-20">
															<masterclipid>masterclip-5</masterclipid>
															<name>(Meandering Curiosity)_I made a Four Season Tree Diorama depicting the change over time_lOFFAtjVsOo_YT.mp4</name>
															<enabled>TRUE</enabled>
															<duration>4091</duration>
															<rate>
																<timebase>30</timebase>
																<ntsc>TRUE</ntsc>
															</rate>
															<start>1606</start>
															<end>2477</end>
															<in>2741</in>
															<out>3611</out>
															<pproTicksIn>81273172780800</pproTicksIn>
															<pproTicksOut>107107006406400</pproTicksOut>
															<alphatype>none</alphatype>
															<file id="file-3"/>
															<filter>
																<effect>
																	<name>Time Remap</name>
																	<effectid>timeremap</effectid>
																	<effectcategory>motion</effectcategory>
																	<effecttype>motion</effecttype>
																	<mediatype>video</mediatype>
																	<parameter authoringApp="PremierePro">
																		<parameterid>variablespeed</parameterid>
																		<name>variablespeed</name>
																		<valuemin>0</valuemin>
																		<valuemax>1</valuemax>
																		<value>0</value>
																	</parameter>
																	<parameter authoringApp="PremierePro">
																		<parameterid>speed</parameterid>
																		<name>speed</name>
																		<valuemin>-100000</valuemin>
																		<valuemax>100000</valuemax>
																		<value>349.943</value>
																	</parameter>
																	<parameter authoringApp="PremierePro">
																		<parameterid>reverse</parameterid>
																		<name>reverse</name>
																		<value>FALSE</value>
																	</parameter>
																	<parameter authoringApp="PremierePro">
																		<parameterid>frameblending</parameterid>
																		<name>frameblending</name>
																		<value>FALSE</value>
																	</parameter>
																	<parameter authoringApp="PremierePro">
																		<parameterid>graphdict</parameterid>
																		<name>graphdict</name>
																		<valuemin>0</valuemin>
																		<valuemax>14316</valuemax>
																		<value>0</value>
																		<keyframe>
																			<when>0</when>
																			<value>0</value>
																			<speedvirtualkf>TRUE</speedvirtualkf>
																			<speedkfstart>TRUE</speedkfstart>
																		</keyframe>
																		<keyframe>
																			<when>2741</when>
																			<value>9591</value>
																			<speedvirtualkf>TRUE</speedvirtualkf>
																			<speedkfin>TRUE</speedkfin>
																		</keyframe>
																		<keyframe>
																			<when>3611</when>
																			<value>12636</value>
																			<speedvirtualkf>TRUE</speedvirtualkf>
																			<speedkfout>TRUE</speedkfout>
																		</keyframe>
																		<keyframe>
																			<when>4091</when>
																			<value>14316</value>
																			<speedvirtualkf>TRUE</speedvirtualkf>
																			<speedkfend>TRUE</speedkfend>
																		</keyframe>
																		<interpolation>
																			<name>FCPCurve</name>
																		</interpolation>
																	</parameter>
																</effect>
															</filter>
															<logginginfo>
																<description></description>
																<scene></scene>
																<shottake></shottake>
																<lognote>https://www.youtube.com/watch?v=lOFFAtjVsOo</lognote>
																<good></good>
																<originalvideofilename></originalvideofilename>
																<originalaudiofilename></originalaudiofilename>
															</logginginfo>
															<colorinfo>
																<lut></lut>
																<lut1></lut1>
																<asc_sop></asc_sop>
																<asc_sat></asc_sat>
																<lut2></lut2>
															</colorinfo>
															<labels>
																<label2>Iris</label2>
															</labels>
														</clipitem>
														<clipitem id="clipitem-21">
															<masterclipid>masterclip-5</masterclipid>
															<name>(Meandering Curiosity)_I made a Four Season Tree Diorama depicting the change over time_lOFFAtjVsOo_YT.mp4</name>
															<enabled>TRUE</enabled>
															<duration>14319</duration>
															<rate>
																<timebase>30</timebase>
																<ntsc>TRUE</ntsc>
															</rate>
															<start>2477</start>
															<end>2709</end>
															<in>13116</in>
															<out>13348</out>
															<pproTicksIn>111166850995200</pproTicksIn>
															<pproTicksOut>113133205785600</pproTicksOut>
															<alphatype>none</alphatype>
															<file id="file-3"/>
															<logginginfo>
																<description></description>
																<scene></scene>
																<shottake></shottake>
																<lognote>https://www.youtube.com/watch?v=lOFFAtjVsOo</lognote>
																<good></good>
																<originalvideofilename></originalvideofilename>
																<originalaudiofilename></originalaudiofilename>
															</logginginfo>
															<colorinfo>
																<lut></lut>
																<lut1></lut1>
																<asc_sop></asc_sop>
																<asc_sat></asc_sat>
																<lut2></lut2>
															</colorinfo>
															<labels>
																<label2>Iris</label2>
															</labels>
														</clipitem>
														<enabled>TRUE</enabled>
														<locked>FALSE</locked>
													</track>
													<track TL.SQTrackShy="0" TL.SQTrackExpandedHeight="25" TL.SQTrackExpanded="0" MZ.TrackTargeted="0">
														<clipitem id="clipitem-22">
															<masterclipid>masterclip-6</masterclipid>
															<name>MEANDERING CURIOUSITY</name>
															<enabled>TRUE</enabled>
															<duration>5844</duration>
															<rate>
																<timebase>30</timebase>
																<ntsc>TRUE</ntsc>
															</rate>
															<start>0</start>
															<end>2709</end>
															<in>0</in>
															<out>2709</out>
															<pproTicksIn>0</pproTicksIn>
															<pproTicksOut>22960582444800</pproTicksOut>
															<alphatype>straight</alphatype>
															<pixelaspectratio>square</pixelaspectratio>
															<anamorphic>FALSE</anamorphic>
															<file id="file-4">
																<name>1080/AE Attribution.aep</name>
																<pathurl>file://localhost/Volumes/ATM%20JR%202TB/Master%20Assets/AE%20Attribution.aep</pathurl>
																<rate>
																	<timebase>30</timebase>
																	<ntsc>TRUE</ntsc>
																</rate>
																<duration>5844</duration>
																<timecode>
																	<rate>
																		<timebase>30</timebase>
																		<ntsc>TRUE</ntsc>
																	</rate>
																	<string>00;00;00;00</string>
																	<frame>0</frame>
																	<displayformat>DF</displayformat>
																</timecode>
																<media>
																	<video>
																		<samplecharacteristics>
																			<rate>
																				<timebase>30</timebase>
																				<ntsc>TRUE</ntsc>
																			</rate>
																			<width>1920</width>
																			<height>1080</height>
																			<anamorphic>FALSE</anamorphic>
																			<pixelaspectratio>square</pixelaspectratio>
																			<fielddominance>lower</fielddominance>
																		</samplecharacteristics>
																	</video>
																</media>
															</file>
															<logginginfo>
																<description></description>
																<scene></scene>
																<shottake></shottake>
																<lognote></lognote>
																<good></good>
																<originalvideofilename></originalvideofilename>
																<originalaudiofilename></originalaudiofilename>
															</logginginfo>
															<colorinfo>
																<lut></lut>
																<lut1></lut1>
																<asc_sop></asc_sop>
																<asc_sat></asc_sat>
																<lut2></lut2>
															</colorinfo>
															<labels>
																<label2>Rose</label2>
															</labels>
														</clipitem>
														<enabled>TRUE</enabled>
														<locked>FALSE</locked>
													</track>
												</video>
												<audio>
													<numOutputChannels>2</numOutputChannels>
													<format>
														<samplecharacteristics>
															<depth>16</depth>
															<samplerate>48000</samplerate>
														</samplecharacteristics>
													</format>
													<outputs>
														<group>
															<index>1</index>
															<numchannels>1</numchannels>
															<downmix>0</downmix>
															<channel>
																<index>1</index>
															</channel>
														</group>
														<group>
															<index>2</index>
															<numchannels>1</numchannels>
															<downmix>0</downmix>
															<channel>
																<index>2</index>
															</channel>
														</group>
													</outputs>
													<track TL.SQTrackAudioKeyframeStyle="0" TL.SQTrackShy="0" TL.SQTrackExpandedHeight="25" TL.SQTrackExpanded="0" MZ.TrackTargeted="1" PannerCurrentValue="0.5" PannerIsInverted="true" PannerStartKeyframe="-91445760000000000,0.5,0,0,0,0,0,0" PannerName="Balance" currentExplodedTrackIndex="0" totalExplodedTrackCount="2" premiereTrackType="Stereo">
														<enabled>TRUE</enabled>
														<locked>FALSE</locked>
														<outputchannelindex>1</outputchannelindex>
													</track>
													<track TL.SQTrackAudioKeyframeStyle="0" TL.SQTrackShy="0" TL.SQTrackExpandedHeight="25" TL.SQTrackExpanded="0" MZ.TrackTargeted="1" PannerCurrentValue="0.5" PannerIsInverted="true" PannerStartKeyframe="-91445760000000000,0.5,0,0,0,0,0,0" PannerName="Balance" currentExplodedTrackIndex="1" totalExplodedTrackCount="2" premiereTrackType="Stereo">
														<enabled>TRUE</enabled>
														<locked>FALSE</locked>
														<outputchannelindex>2</outputchannelindex>
													</track>
												</audio>
											</media>
											<timecode>
												<rate>
													<timebase>30</timebase>
													<ntsc>TRUE</ntsc>
												</rate>
												<string>00;00;00;00</string>
												<frame>0</frame>
												<displayformat>DF</displayformat>
											</timecode>
											<logginginfo>
												<description></description>
												<scene></scene>
												<shottake></shottake>
												<lognote></lognote>
												<good></good>
												<originalvideofilename></originalvideofilename>
												<originalaudiofilename></originalaudiofilename>
											</logginginfo>
										</sequence>
										<labels>
											<label2>Forest</label2>
										</labels>
									</clipitem>
									<enabled>TRUE</enabled>
									<locked>FALSE</locked>
								</track>
								<track TL.SQTrackShy="0" TL.SQTrackExpandedHeight="25" TL.SQTrackExpanded="0" MZ.TrackTargeted="0">
									<clipitem id="clipitem-23">
										<masterclipid>masterclip-7</masterclipid>
										<name>PEEP THIS SIGN</name>
										<enabled>TRUE</enabled>
										<duration>5695</duration>
										<rate>
											<timebase>30</timebase>
											<ntsc>TRUE</ntsc>
										</rate>
										<start>0</start>
										<end>2486</end>
										<in>0</in>
										<out>2486</out>
										<pproTicksIn>0</pproTicksIn>
										<pproTicksOut>21070508659200</pproTicksOut>
										<alphatype>straight</alphatype>
										<pixelaspectratio>square</pixelaspectratio>
										<anamorphic>FALSE</anamorphic>
										<file id="file-5">
											<name>CRAFTY_L3RD_01_JL_V03/CRAFTY_L3RD_01_JL_V03.aep</name>
											<pathurl>file://localhost/Volumes/ATM%20JR%202TB/Master%20Assets/CRAFTY_L3RD_01_JL_V03%20folder/CRAFTY_L3RD_01_JL_V03.aep</pathurl>
											<rate>
												<timebase>30</timebase>
												<ntsc>FALSE</ntsc>
											</rate>
											<duration>5701</duration>
											<timecode>
												<rate>
													<timebase>30</timebase>
													<ntsc>FALSE</ntsc>
												</rate>
												<string>00:00:00:00</string>
												<frame>0</frame>
												<displayformat>NDF</displayformat>
											</timecode>
											<media>
												<video>
													<samplecharacteristics>
														<rate>
															<timebase>30</timebase>
															<ntsc>FALSE</ntsc>
														</rate>
														<width>1920</width>
														<height>1080</height>
														<anamorphic>FALSE</anamorphic>
														<pixelaspectratio>square</pixelaspectratio>
														<fielddominance>lower</fielddominance>
													</samplecharacteristics>
												</video>
											</media>
										</file>
										<logginginfo>
											<description></description>
											<scene></scene>
											<shottake></shottake>
											<lognote></lognote>
											<good></good>
											<originalvideofilename></originalvideofilename>
											<originalaudiofilename></originalaudiofilename>
										</logginginfo>
										<colorinfo>
											<lut></lut>
											<lut1></lut1>
											<asc_sop></asc_sop>
											<asc_sat></asc_sat>
											<lut2></lut2>
										</colorinfo>
										<labels>
											<label2>Rose</label2>
										</labels>
									</clipitem>
									<clipitem id="clipitem-24">
										<masterclipid>masterclip-8</masterclipid>
										<name>CHANGING OF THE SEASONS</name>
										<enabled>TRUE</enabled>
										<duration>5695</duration>
										<rate>
											<timebase>30</timebase>
											<ntsc>TRUE</ntsc>
										</rate>
										<start>2590</start>
										<end>5263</end>
										<in>0</in>
										<out>2673</out>
										<pproTicksIn>0</pproTicksIn>
										<pproTicksOut>22655458425600</pproTicksOut>
										<alphatype>straight</alphatype>
										<pixelaspectratio>square</pixelaspectratio>
										<anamorphic>FALSE</anamorphic>
										<file id="file-6">
											<name>CRAFTY_L3RD_01_JL_V03/CRAFTY_L3RD_01_JL_V03.aep</name>
											<pathurl>file://localhost/Volumes/ATM%20JR%202TB/Master%20Assets/CRAFTY_L3RD_01_JL_V03%20folder/CRAFTY_L3RD_01_JL_V03.aep</pathurl>
											<rate>
												<timebase>30</timebase>
												<ntsc>FALSE</ntsc>
											</rate>
											<duration>5701</duration>
											<timecode>
												<rate>
													<timebase>30</timebase>
													<ntsc>FALSE</ntsc>
												</rate>
												<string>00:00:00:00</string>
												<frame>0</frame>
												<displayformat>NDF</displayformat>
											</timecode>
											<media>
												<video>
													<samplecharacteristics>
														<rate>
															<timebase>30</timebase>
															<ntsc>FALSE</ntsc>
														</rate>
														<width>1920</width>
														<height>1080</height>
														<anamorphic>FALSE</anamorphic>
														<pixelaspectratio>square</pixelaspectratio>
														<fielddominance>lower</fielddominance>
													</samplecharacteristics>
												</video>
											</media>
										</file>
										<logginginfo>
											<description></description>
											<scene></scene>
											<shottake></shottake>
											<lognote></lognote>
											<good></good>
											<originalvideofilename></originalvideofilename>
											<originalaudiofilename></originalaudiofilename>
										</logginginfo>
										<colorinfo>
											<lut></lut>
											<lut1></lut1>
											<asc_sop></asc_sop>
											<asc_sat></asc_sat>
											<lut2></lut2>
										</colorinfo>
										<labels>
											<label2>Rose</label2>
										</labels>
									</clipitem>
									<enabled>TRUE</enabled>
									<locked>FALSE</locked>
								</track>
								<track TL.SQTrackShy="0" TL.SQTrackExpandedHeight="25" TL.SQTrackExpanded="0" MZ.TrackTargeted="0">
									<clipitem id="clipitem-25">
										<masterclipid>masterclip-9</masterclipid>
										<name>ATM_logo_channels_right-2 (3).png</name>
										<enabled>TRUE</enabled>
										<duration>1294705</duration>
										<rate>
											<timebase>30</timebase>
											<ntsc>TRUE</ntsc>
										</rate>
										<start>0</start>
										<end>5263</end>
										<in>106238</in>
										<out>111501</out>
										<pproTicksIn>900437931993600</pproTicksIn>
										<pproTicksOut>945045368467200</pproTicksOut>
										<alphatype>straight</alphatype>
										<pixelaspectratio>square</pixelaspectratio>
										<anamorphic>FALSE</anamorphic>
										<file id="file-7">
											<name>ATM_logo_channels_right-2 (3).png</name>
											<pathurl>file://localhost/Volumes/ATM%20JR%202TB/Master%20Assets/ATM_logo_channels_right-2%20(3).png</pathurl>
											<rate>
												<timebase>30</timebase>
												<ntsc>TRUE</ntsc>
											</rate>
											<timecode>
												<rate>
													<timebase>30</timebase>
													<ntsc>TRUE</ntsc>
												</rate>
												<string>00:00:00:00</string>
												<frame>0</frame>
												<displayformat>NDF</displayformat>
											</timecode>
											<media>
												<video>
													<samplecharacteristics>
														<rate>
															<timebase>30</timebase>
															<ntsc>TRUE</ntsc>
														</rate>
														<width>1920</width>
														<height>1080</height>
														<anamorphic>FALSE</anamorphic>
														<pixelaspectratio>square</pixelaspectratio>
														<fielddominance>none</fielddominance>
													</samplecharacteristics>
												</video>
											</media>
										</file>
										<logginginfo>
											<description></description>
											<scene></scene>
											<shottake></shottake>
											<lognote></lognote>
											<good></good>
											<originalvideofilename></originalvideofilename>
											<originalaudiofilename></originalaudiofilename>
										</logginginfo>
										<colorinfo>
											<lut></lut>
											<lut1></lut1>
											<asc_sop></asc_sop>
											<asc_sat></asc_sat>
											<lut2></lut2>
										</colorinfo>
										<labels>
											<label2>Lavender</label2>
										</labels>
									</clipitem>
									<enabled>TRUE</enabled>
									<locked>FALSE</locked>
								</track>
								<track TL.SQTrackShy="0" TL.SQTrackExpandedHeight="25" TL.SQTrackExpanded="0" MZ.TrackTargeted="0">
									<clipitem id="clipitem-26">
										<masterclipid>masterclip-10</masterclipid>
										<name>CRAFTY_TRAN01_JL_V01.mov</name>
										<enabled>TRUE</enabled>
										<duration>120</duration>
										<rate>
											<timebase>30</timebase>
											<ntsc>TRUE</ntsc>
										</rate>
										<start>2470</start>
										<end>2590</end>
										<in>0</in>
										<out>120</out>
										<pproTicksIn>0</pproTicksIn>
										<pproTicksOut>1017080064000</pproTicksOut>
										<alphatype>none</alphatype>
										<pixelaspectratio>square</pixelaspectratio>
										<anamorphic>FALSE</anamorphic>
										<file id="file-8">
											<name>CRAFTY_TRAN01_JL_V01.mov</name>
											<pathurl>file://localhost/Volumes/ATM%20JR%202TB/Master%20Assets/CRAFTY_TRAN01_JL_V01.mov</pathurl>
											<rate>
												<timebase>30</timebase>
												<ntsc>FALSE</ntsc>
											</rate>
											<duration>121</duration>
											<timecode>
												<rate>
													<timebase>30</timebase>
													<ntsc>FALSE</ntsc>
												</rate>
												<string>00:00:00:00</string>
												<frame>0</frame>
												<displayformat>NDF</displayformat>
											</timecode>
											<media>
												<video>
													<samplecharacteristics>
														<rate>
															<timebase>30</timebase>
															<ntsc>FALSE</ntsc>
														</rate>
														<width>1920</width>
														<height>1080</height>
														<anamorphic>FALSE</anamorphic>
														<pixelaspectratio>square</pixelaspectratio>
														<fielddominance>none</fielddominance>
													</samplecharacteristics>
												</video>
												<audio>
													<samplecharacteristics>
														<depth>16</depth>
														<samplerate>48000</samplerate>
													</samplecharacteristics>
													<channelcount>2</channelcount>
												</audio>
											</media>
										</file>
										<link>
											<linkclipref>clipitem-26</linkclipref>
											<mediatype>video</mediatype>
											<trackindex>4</trackindex>
											<clipindex>1</clipindex>
										</link>
										<link>
											<linkclipref>clipitem-28</linkclipref>
											<mediatype>audio</mediatype>
											<trackindex>1</trackindex>
											<clipindex>1</clipindex>
											<groupindex>1</groupindex>
										</link>
										<link>
											<linkclipref>clipitem-30</linkclipref>
											<mediatype>audio</mediatype>
											<trackindex>2</trackindex>
											<clipindex>1</clipindex>
											<groupindex>1</groupindex>
										</link>
										<logginginfo>
											<description></description>
											<scene></scene>
											<shottake></shottake>
											<lognote></lognote>
											<good></good>
											<originalvideofilename></originalvideofilename>
											<originalaudiofilename></originalaudiofilename>
										</logginginfo>
										<colorinfo>
											<lut></lut>
											<lut1></lut1>
											<asc_sop></asc_sop>
											<asc_sat></asc_sat>
											<lut2></lut2>
										</colorinfo>
										<labels>
											<label2>Iris</label2>
										</labels>
									</clipitem>
									<clipitem id="clipitem-27">
										<masterclipid>masterclip-11</masterclipid>
										<name>CRAFTY_TRAN02_JL_V01.mov</name>
										<enabled>TRUE</enabled>
										<duration>120</duration>
										<rate>
											<timebase>30</timebase>
											<ntsc>TRUE</ntsc>
										</rate>
										<start>5230</start>
										<end>5350</end>
										<in>0</in>
										<out>120</out>
										<pproTicksIn>0</pproTicksIn>
										<pproTicksOut>1017080064000</pproTicksOut>
										<alphatype>none</alphatype>
										<pixelaspectratio>square</pixelaspectratio>
										<anamorphic>FALSE</anamorphic>
										<file id="file-9">
											<name>CRAFTY_TRAN02_JL_V01.mov</name>
											<pathurl>file://localhost/Volumes/ATM%20JR%202TB/Master%20Assets/CRAFTY_TRAN02_JL_V01.mov</pathurl>
											<rate>
												<timebase>30</timebase>
												<ntsc>FALSE</ntsc>
											</rate>
											<duration>121</duration>
											<timecode>
												<rate>
													<timebase>30</timebase>
													<ntsc>FALSE</ntsc>
												</rate>
												<string>00:00:00:00</string>
												<frame>0</frame>
												<displayformat>NDF</displayformat>
											</timecode>
											<media>
												<video>
													<samplecharacteristics>
														<rate>
															<timebase>30</timebase>
															<ntsc>FALSE</ntsc>
														</rate>
														<width>1920</width>
														<height>1080</height>
														<anamorphic>FALSE</anamorphic>
														<pixelaspectratio>square</pixelaspectratio>
														<fielddominance>none</fielddominance>
													</samplecharacteristics>
												</video>
												<audio>
													<samplecharacteristics>
														<depth>16</depth>
														<samplerate>48000</samplerate>
													</samplecharacteristics>
													<channelcount>2</channelcount>
												</audio>
											</media>
										</file>
										<link>
											<linkclipref>clipitem-27</linkclipref>
											<mediatype>video</mediatype>
											<trackindex>4</trackindex>
											<clipindex>2</clipindex>
										</link>
										<link>
											<linkclipref>clipitem-29</linkclipref>
											<mediatype>audio</mediatype>
											<trackindex>1</trackindex>
											<clipindex>2</clipindex>
											<groupindex>1</groupindex>
										</link>
										<link>
											<linkclipref>clipitem-31</linkclipref>
											<mediatype>audio</mediatype>
											<trackindex>2</trackindex>
											<clipindex>2</clipindex>
											<groupindex>1</groupindex>
										</link>
										<logginginfo>
											<description></description>
											<scene></scene>
											<shottake></shottake>
											<lognote></lognote>
											<good></good>
											<originalvideofilename></originalvideofilename>
											<originalaudiofilename></originalaudiofilename>
										</logginginfo>
										<colorinfo>
											<lut></lut>
											<lut1></lut1>
											<asc_sop></asc_sop>
											<asc_sat></asc_sat>
											<lut2></lut2>
										</colorinfo>
										<labels>
											<label2>Iris</label2>
										</labels>
									</clipitem>
									<enabled>TRUE</enabled>
									<locked>FALSE</locked>
								</track>
								<track TL.SQTrackShy="0" TL.SQTrackExpandedHeight="25" TL.SQTrackExpanded="0" MZ.TrackTargeted="0">
									<enabled>TRUE</enabled>
									<locked>FALSE</locked>
								</track>
							</video>
							<audio>
								<numOutputChannels>2</numOutputChannels>
								<format>
									<samplecharacteristics>
										<depth>16</depth>
										<samplerate>48000</samplerate>
									</samplecharacteristics>
								</format>
								<outputs>
									<group>
										<index>1</index>
										<numchannels>1</numchannels>
										<downmix>0</downmix>
										<channel>
											<index>1</index>
										</channel>
									</group>
									<group>
										<index>2</index>
										<numchannels>1</numchannels>
										<downmix>0</downmix>
										<channel>
											<index>2</index>
										</channel>
									</group>
								</outputs>
								<track TL.SQTrackAudioKeyframeStyle="0" TL.SQTrackShy="0" TL.SQTrackExpandedHeight="52" TL.SQTrackExpanded="0" MZ.TrackTargeted="1" PannerCurrentValue="0.5" PannerIsInverted="true" PannerStartKeyframe="-91445760000000000,0.5,0,0,0,0,0,0" PannerName="Balance" currentExplodedTrackIndex="0" totalExplodedTrackCount="2" premiereTrackType="Stereo">
									<clipitem id="clipitem-28" premiereChannelType="stereo">
										<masterclipid>masterclip-10</masterclipid>
										<name>CRAFTY_TRAN01_JL_V01.mov</name>
										<enabled>TRUE</enabled>
										<duration>120</duration>
										<rate>
											<timebase>30</timebase>
											<ntsc>TRUE</ntsc>
										</rate>
										<start>2470</start>
										<end>2590</end>
										<in>0</in>
										<out>120</out>
										<pproTicksIn>0</pproTicksIn>
										<pproTicksOut>1017080064000</pproTicksOut>
										<file id="file-8"/>
										<sourcetrack>
											<mediatype>audio</mediatype>
											<trackindex>1</trackindex>
										</sourcetrack>
										<link>
											<linkclipref>clipitem-26</linkclipref>
											<mediatype>video</mediatype>
											<trackindex>4</trackindex>
											<clipindex>1</clipindex>
										</link>
										<link>
											<linkclipref>clipitem-28</linkclipref>
											<mediatype>audio</mediatype>
											<trackindex>1</trackindex>
											<clipindex>1</clipindex>
											<groupindex>1</groupindex>
										</link>
										<link>
											<linkclipref>clipitem-30</linkclipref>
											<mediatype>audio</mediatype>
											<trackindex>2</trackindex>
											<clipindex>1</clipindex>
											<groupindex>1</groupindex>
										</link>
										<logginginfo>
											<description></description>
											<scene></scene>
											<shottake></shottake>
											<lognote></lognote>
											<good></good>
											<originalvideofilename></originalvideofilename>
											<originalaudiofilename></originalaudiofilename>
										</logginginfo>
										<colorinfo>
											<lut></lut>
											<lut1></lut1>
											<asc_sop></asc_sop>
											<asc_sat></asc_sat>
											<lut2></lut2>
										</colorinfo>
										<labels>
											<label2>Iris</label2>
										</labels>
									</clipitem>
									<clipitem id="clipitem-29" premiereChannelType="stereo">
										<masterclipid>masterclip-11</masterclipid>
										<name>CRAFTY_TRAN02_JL_V01.mov</name>
										<enabled>TRUE</enabled>
										<duration>120</duration>
										<rate>
											<timebase>30</timebase>
											<ntsc>TRUE</ntsc>
										</rate>
										<start>5230</start>
										<end>5350</end>
										<in>0</in>
										<out>120</out>
										<pproTicksIn>0</pproTicksIn>
										<pproTicksOut>1017080064000</pproTicksOut>
										<file id="file-9"/>
										<sourcetrack>
											<mediatype>audio</mediatype>
											<trackindex>1</trackindex>
										</sourcetrack>
										<link>
											<linkclipref>clipitem-27</linkclipref>
											<mediatype>video</mediatype>
											<trackindex>4</trackindex>
											<clipindex>2</clipindex>
										</link>
										<link>
											<linkclipref>clipitem-29</linkclipref>
											<mediatype>audio</mediatype>
											<trackindex>1</trackindex>
											<clipindex>2</clipindex>
											<groupindex>1</groupindex>
										</link>
										<link>
											<linkclipref>clipitem-31</linkclipref>
											<mediatype>audio</mediatype>
											<trackindex>2</trackindex>
											<clipindex>2</clipindex>
											<groupindex>1</groupindex>
										</link>
										<logginginfo>
											<description></description>
											<scene></scene>
											<shottake></shottake>
											<lognote></lognote>
											<good></good>
											<originalvideofilename></originalvideofilename>
											<originalaudiofilename></originalaudiofilename>
										</logginginfo>
										<colorinfo>
											<lut></lut>
											<lut1></lut1>
											<asc_sop></asc_sop>
											<asc_sat></asc_sat>
											<lut2></lut2>
										</colorinfo>
										<labels>
											<label2>Iris</label2>
										</labels>
									</clipitem>
									<enabled>TRUE</enabled>
									<locked>FALSE</locked>
									<outputchannelindex>1</outputchannelindex>
								</track>
								<track TL.SQTrackAudioKeyframeStyle="0" TL.SQTrackShy="0" TL.SQTrackExpandedHeight="52" TL.SQTrackExpanded="0" MZ.TrackTargeted="1" PannerCurrentValue="0.5" PannerIsInverted="true" PannerStartKeyframe="-91445760000000000,0.5,0,0,0,0,0,0" PannerName="Balance" currentExplodedTrackIndex="1" totalExplodedTrackCount="2" premiereTrackType="Stereo">
									<clipitem id="clipitem-30" premiereChannelType="stereo">
										<masterclipid>masterclip-10</masterclipid>
										<name>CRAFTY_TRAN01_JL_V01.mov</name>
										<enabled>TRUE</enabled>
										<duration>120</duration>
										<rate>
											<timebase>30</timebase>
											<ntsc>TRUE</ntsc>
										</rate>
										<start>2470</start>
										<end>2590</end>
										<in>0</in>
										<out>120</out>
										<pproTicksIn>0</pproTicksIn>
										<pproTicksOut>1017080064000</pproTicksOut>
										<file id="file-8"/>
										<sourcetrack>
											<mediatype>audio</mediatype>
											<trackindex>2</trackindex>
										</sourcetrack>
										<link>
											<linkclipref>clipitem-26</linkclipref>
											<mediatype>video</mediatype>
											<trackindex>4</trackindex>
											<clipindex>1</clipindex>
										</link>
										<link>
											<linkclipref>clipitem-28</linkclipref>
											<mediatype>audio</mediatype>
											<trackindex>1</trackindex>
											<clipindex>1</clipindex>
											<groupindex>1</groupindex>
										</link>
										<link>
											<linkclipref>clipitem-30</linkclipref>
											<mediatype>audio</mediatype>
											<trackindex>2</trackindex>
											<clipindex>1</clipindex>
											<groupindex>1</groupindex>
										</link>
										<logginginfo>
											<description></description>
											<scene></scene>
											<shottake></shottake>
											<lognote></lognote>
											<good></good>
											<originalvideofilename></originalvideofilename>
											<originalaudiofilename></originalaudiofilename>
										</logginginfo>
										<colorinfo>
											<lut></lut>
											<lut1></lut1>
											<asc_sop></asc_sop>
											<asc_sat></asc_sat>
											<lut2></lut2>
										</colorinfo>
										<labels>
											<label2>Iris</label2>
										</labels>
									</clipitem>
									<clipitem id="clipitem-31" premiereChannelType="stereo">
										<masterclipid>masterclip-11</masterclipid>
										<name>CRAFTY_TRAN02_JL_V01.mov</name>
										<enabled>TRUE</enabled>
										<duration>120</duration>
										<rate>
											<timebase>30</timebase>
											<ntsc>TRUE</ntsc>
										</rate>
										<start>5230</start>
										<end>5350</end>
										<in>0</in>
										<out>120</out>
										<pproTicksIn>0</pproTicksIn>
										<pproTicksOut>1017080064000</pproTicksOut>
										<file id="file-9"/>
										<sourcetrack>
											<mediatype>audio</mediatype>
											<trackindex>2</trackindex>
										</sourcetrack>
										<link>
											<linkclipref>clipitem-27</linkclipref>
											<mediatype>video</mediatype>
											<trackindex>4</trackindex>
											<clipindex>2</clipindex>
										</link>
										<link>
											<linkclipref>clipitem-29</linkclipref>
											<mediatype>audio</mediatype>
											<trackindex>1</trackindex>
											<clipindex>2</clipindex>
											<groupindex>1</groupindex>
										</link>
										<link>
											<linkclipref>clipitem-31</linkclipref>
											<mediatype>audio</mediatype>
											<trackindex>2</trackindex>
											<clipindex>2</clipindex>
											<groupindex>1</groupindex>
										</link>
										<logginginfo>
											<description></description>
											<scene></scene>
											<shottake></shottake>
											<lognote></lognote>
											<good></good>
											<originalvideofilename></originalvideofilename>
											<originalaudiofilename></originalaudiofilename>
										</logginginfo>
										<colorinfo>
											<lut></lut>
											<lut1></lut1>
											<asc_sop></asc_sop>
											<asc_sat></asc_sat>
											<lut2></lut2>
										</colorinfo>
										<labels>
											<label2>Iris</label2>
										</labels>
									</clipitem>
									<enabled>TRUE</enabled>
									<locked>FALSE</locked>
									<outputchannelindex>2</outputchannelindex>
								</track>
								<track TL.SQTrackAudioKeyframeStyle="0" TL.SQTrackShy="0" TL.SQTrackExpandedHeight="52" TL.SQTrackExpanded="0" MZ.TrackTargeted="1" PannerCurrentValue="0.5" PannerIsInverted="true" PannerStartKeyframe="-91445760000000000,0.5,0,0,0,0,0,0" PannerName="Balance" currentExplodedTrackIndex="0" totalExplodedTrackCount="2" premiereTrackType="Stereo">
									<clipitem id="clipitem-32" premiereChannelType="stereo">
										<masterclipid>masterclip-12</masterclipid>
										<name>ES_Aerials - Guustavv.wav</name>
										<enabled>TRUE</enabled>
										<duration>3817</duration>
										<rate>
											<timebase>30</timebase>
											<ntsc>TRUE</ntsc>
										</rate>
										<start>0</start>
										<end>-1</end>
										<in>53</in>
										<out>2523</out>
										<pproTicksIn>449210361600</pproTicksIn>
										<pproTicksOut>21384108345600</pproTicksOut>
										<file id="file-10">
											<name>ES_Aerials - Guustavv.wav</name>
											<pathurl>file://localhost/Volumes/CONTENT/VOD%20CONTENT%20ARCHIVE/O&amp;O%20Archive%202023/CRAFTY/03_March/Crafty_3-20-2023/5_Music/ES_Aerials%20-%20Guustavv.wav</pathurl>
											<rate>
												<timebase>30</timebase>
												<ntsc>TRUE</ntsc>
											</rate>
											<duration>3817</duration>
											<timecode>
												<rate>
													<timebase>30</timebase>
													<ntsc>TRUE</ntsc>
												</rate>
												<string>06;50;31;17</string>
												<frame>738209</frame>
												<displayformat>DF</displayformat>
											</timecode>
											<media>
												<audio>
													<samplecharacteristics>
														<depth>16</depth>
														<samplerate>48000</samplerate>
													</samplecharacteristics>
													<channelcount>2</channelcount>
												</audio>
											</media>
										</file>
										<sourcetrack>
											<mediatype>audio</mediatype>
											<trackindex>1</trackindex>
										</sourcetrack>
										<filter>
											<effect>
												<name>Gain</name>
												<effectid>{61756678, 4761696e, 4b657947}</effectid>
												<effecttype>filter</effecttype>
												<mediatype>audio</mediatype>
												<parameter authoringApp="PremierePro">
													<parameterid>Gain(dB)</parameterid>
													<name>Gain(dB)</name>
													<valuemin>-96</valuemin>
													<valuemax>96</valuemax>
													<value>-6</value>
												</parameter>
											</effect>
										</filter>
										<filter>
											<effect>
												<name>Audio Levels</name>
												<effectid>audiolevels</effectid>
												<effectcategory>audiolevels</effectcategory>
												<effecttype>audiolevels</effecttype>
												<mediatype>audio</mediatype>
												<pproBypass>false</pproBypass>
												<parameter authoringApp="PremierePro">
													<parameterid>level</parameterid>
													<name>Level</name>
													<valuemin>0</valuemin>
													<valuemax>3.98109</valuemax>
													<value>1</value>
													<keyframe>
														<when>401</when>
														<value>1</value>
													</keyframe>
													<keyframe>
														<when>439</when>
														<value>0.106194</value>
													</keyframe>
												</parameter>
											</effect>
										</filter>
										<link>
											<linkclipref>clipitem-32</linkclipref>
											<mediatype>audio</mediatype>
											<trackindex>3</trackindex>
											<clipindex>1</clipindex>
											<groupindex>1</groupindex>
										</link>
										<link>
											<linkclipref>clipitem-34</linkclipref>
											<mediatype>audio</mediatype>
											<trackindex>4</trackindex>
											<clipindex>1</clipindex>
											<groupindex>1</groupindex>
										</link>
										<logginginfo>
											<description></description>
											<scene></scene>
											<shottake></shottake>
											<lognote></lognote>
											<good></good>
											<originalvideofilename></originalvideofilename>
											<originalaudiofilename></originalaudiofilename>
										</logginginfo>
										<colorinfo>
											<lut></lut>
											<lut1></lut1>
											<asc_sop></asc_sop>
											<asc_sat></asc_sat>
											<lut2></lut2>
										</colorinfo>
										<labels>
											<label2>Caribbean</label2>
										</labels>
									</clipitem>
									<transitionitem>
										<start>2350</start>
										<end>2470</end>
										<pproTicksIn>19917817920000</pproTicksIn>
										<pproTicksOut>20934897984000</pproTicksOut>
										<alignment>end-black</alignment>
										<cutPointTicks>1017080064000</cutPointTicks>
										<rate>
											<timebase>30</timebase>
											<ntsc>TRUE</ntsc>
										</rate>
										<effect>
											<name>Cross Fade (+3dB)</name>
											<effectid>KGAudioTransCrossFade3dB</effectid>
											<effecttype>transition</effecttype>
											<mediatype>audio</mediatype>
											<wipecode>0</wipecode>
											<wipeaccuracy>100</wipeaccuracy>
											<startratio>0</startratio>
											<endratio>1</endratio>
											<reverse>FALSE</reverse>
										</effect>
									</transitionitem>
									<clipitem id="clipitem-33" premiereChannelType="stereo">
										<masterclipid>masterclip-13</masterclipid>
										<name>ES_Caspius - Guustavv.wav</name>
										<enabled>TRUE</enabled>
										<duration>3641</duration>
										<rate>
											<timebase>30</timebase>
											<ntsc>TRUE</ntsc>
										</rate>
										<start>2590</start>
										<end>-1</end>
										<in>0</in>
										<out>2640</out>
										<pproTicksIn>0</pproTicksIn>
										<pproTicksOut>22375761408000</pproTicksOut>
										<file id="file-11">
											<name>ES_Caspius - Guustavv.wav</name>
											<pathurl>file://localhost/Volumes/CONTENT/VOD%20CONTENT%20ARCHIVE/O&amp;O%20Archive%202023/CRAFTY/03_March/Crafty_3-20-2023/5_Music/ES_Caspius%20-%20Guustavv.wav</pathurl>
											<rate>
												<timebase>30</timebase>
												<ntsc>TRUE</ntsc>
											</rate>
											<duration>3641</duration>
											<timecode>
												<rate>
													<timebase>30</timebase>
													<ntsc>TRUE</ntsc>
												</rate>
												<string>04;00;37;29</string>
												<frame>432707</frame>
												<displayformat>DF</displayformat>
											</timecode>
											<media>
												<audio>
													<samplecharacteristics>
														<depth>16</depth>
														<samplerate>48000</samplerate>
													</samplecharacteristics>
													<channelcount>2</channelcount>
												</audio>
											</media>
										</file>
										<sourcetrack>
											<mediatype>audio</mediatype>
											<trackindex>1</trackindex>
										</sourcetrack>
										<filter>
											<effect>
												<name>Gain</name>
												<effectid>{61756678, 4761696e, 4b657947}</effectid>
												<effecttype>filter</effecttype>
												<mediatype>audio</mediatype>
												<parameter authoringApp="PremierePro">
													<parameterid>Gain(dB)</parameterid>
													<name>Gain(dB)</name>
													<valuemin>-96</valuemin>
													<valuemax>96</valuemax>
													<value>-6</value>
												</parameter>
											</effect>
										</filter>
										<filter>
											<effect>
												<name>Audio Levels</name>
												<effectid>audiolevels</effectid>
												<effectcategory>audiolevels</effectcategory>
												<effecttype>audiolevels</effecttype>
												<mediatype>audio</mediatype>
												<pproBypass>false</pproBypass>
												<parameter authoringApp="PremierePro">
													<parameterid>level</parameterid>
													<name>Level</name>
													<valuemin>0</valuemin>
													<valuemax>3.98109</valuemax>
													<value>1</value>
													<keyframe>
														<when>187</when>
														<value>1</value>
													</keyframe>
													<keyframe>
														<when>251</when>
														<value>0.4253</value>
													</keyframe>
												</parameter>
											</effect>
										</filter>
										<link>
											<linkclipref>clipitem-33</linkclipref>
											<mediatype>audio</mediatype>
											<trackindex>3</trackindex>
											<clipindex>3</clipindex>
											<groupindex>1</groupindex>
										</link>
										<link>
											<linkclipref>clipitem-35</linkclipref>
											<mediatype>audio</mediatype>
											<trackindex>4</trackindex>
											<clipindex>3</clipindex>
											<groupindex>1</groupindex>
										</link>
										<logginginfo>
											<description></description>
											<scene></scene>
											<shottake></shottake>
											<lognote></lognote>
											<good></good>
											<originalvideofilename></originalvideofilename>
											<originalaudiofilename></originalaudiofilename>
										</logginginfo>
										<colorinfo>
											<lut></lut>
											<lut1></lut1>
											<asc_sop></asc_sop>
											<asc_sat></asc_sat>
											<lut2></lut2>
										</colorinfo>
										<labels>
											<label2>Caribbean</label2>
										</labels>
									</clipitem>
									<transitionitem>
										<start>5110</start>
										<end>5230</end>
										<pproTicksIn>43310659392000</pproTicksIn>
										<pproTicksOut>44327739456000</pproTicksOut>
										<alignment>end-black</alignment>
										<cutPointTicks>1017080064000</cutPointTicks>
										<rate>
											<timebase>30</timebase>
											<ntsc>TRUE</ntsc>
										</rate>
										<effect>
											<name>Cross Fade (+3dB)</name>
											<effectid>KGAudioTransCrossFade3dB</effectid>
											<effecttype>transition</effecttype>
											<mediatype>audio</mediatype>
											<wipecode>0</wipecode>
											<wipeaccuracy>100</wipeaccuracy>
											<startratio>0</startratio>
											<endratio>1</endratio>
											<reverse>FALSE</reverse>
										</effect>
									</transitionitem>
									<enabled>TRUE</enabled>
									<locked>FALSE</locked>
									<outputchannelindex>1</outputchannelindex>
								</track>
								<track TL.SQTrackAudioKeyframeStyle="0" TL.SQTrackShy="0" TL.SQTrackExpandedHeight="52" TL.SQTrackExpanded="0" MZ.TrackTargeted="1" PannerCurrentValue="0.5" PannerIsInverted="true" PannerStartKeyframe="-91445760000000000,0.5,0,0,0,0,0,0" PannerName="Balance" currentExplodedTrackIndex="1" totalExplodedTrackCount="2" premiereTrackType="Stereo">
									<clipitem id="clipitem-34" premiereChannelType="stereo">
										<masterclipid>masterclip-12</masterclipid>
										<name>ES_Aerials - Guustavv.wav</name>
										<enabled>TRUE</enabled>
										<duration>3817</duration>
										<rate>
											<timebase>30</timebase>
											<ntsc>TRUE</ntsc>
										</rate>
										<start>0</start>
										<end>-1</end>
										<in>53</in>
										<out>2523</out>
										<pproTicksIn>449210361600</pproTicksIn>
										<pproTicksOut>21384108345600</pproTicksOut>
										<file id="file-10"/>
										<sourcetrack>
											<mediatype>audio</mediatype>
											<trackindex>2</trackindex>
										</sourcetrack>
										<filter>
											<effect>
												<name>Gain</name>
												<effectid>{61756678, 4761696e, 4b657947}</effectid>
												<effecttype>filter</effecttype>
												<mediatype>audio</mediatype>
												<parameter authoringApp="PremierePro">
													<parameterid>Gain(dB)</parameterid>
													<name>Gain(dB)</name>
													<valuemin>-96</valuemin>
													<valuemax>96</valuemax>
													<value>-6</value>
												</parameter>
											</effect>
										</filter>
										<filter>
											<effect>
												<name>Audio Levels</name>
												<effectid>audiolevels</effectid>
												<effectcategory>audiolevels</effectcategory>
												<effecttype>audiolevels</effecttype>
												<mediatype>audio</mediatype>
												<pproBypass>false</pproBypass>
												<parameter authoringApp="PremierePro">
													<parameterid>level</parameterid>
													<name>Level</name>
													<valuemin>0</valuemin>
													<valuemax>3.98109</valuemax>
													<value>1</value>
													<keyframe>
														<when>401</when>
														<value>1</value>
													</keyframe>
													<keyframe>
														<when>439</when>
														<value>0.106194</value>
													</keyframe>
												</parameter>
											</effect>
										</filter>
										<link>
											<linkclipref>clipitem-32</linkclipref>
											<mediatype>audio</mediatype>
											<trackindex>3</trackindex>
											<clipindex>1</clipindex>
											<groupindex>1</groupindex>
										</link>
										<link>
											<linkclipref>clipitem-34</linkclipref>
											<mediatype>audio</mediatype>
											<trackindex>4</trackindex>
											<clipindex>1</clipindex>
											<groupindex>1</groupindex>
										</link>
										<logginginfo>
											<description></description>
											<scene></scene>
											<shottake></shottake>
											<lognote></lognote>
											<good></good>
											<originalvideofilename></originalvideofilename>
											<originalaudiofilename></originalaudiofilename>
										</logginginfo>
										<colorinfo>
											<lut></lut>
											<lut1></lut1>
											<asc_sop></asc_sop>
											<asc_sat></asc_sat>
											<lut2></lut2>
										</colorinfo>
										<labels>
											<label2>Caribbean</label2>
										</labels>
									</clipitem>
									<transitionitem>
										<start>2350</start>
										<end>2470</end>
										<pproTicksIn>19917817920000</pproTicksIn>
										<pproTicksOut>20934897984000</pproTicksOut>
										<alignment>end-black</alignment>
										<cutPointTicks>1017080064000</cutPointTicks>
										<rate>
											<timebase>30</timebase>
											<ntsc>TRUE</ntsc>
										</rate>
										<effect>
											<name>Cross Fade (+3dB)</name>
											<effectid>KGAudioTransCrossFade3dB</effectid>
											<effecttype>transition</effecttype>
											<mediatype>audio</mediatype>
											<wipecode>0</wipecode>
											<wipeaccuracy>100</wipeaccuracy>
											<startratio>0</startratio>
											<endratio>1</endratio>
											<reverse>FALSE</reverse>
										</effect>
									</transitionitem>
									<clipitem id="clipitem-35" premiereChannelType="stereo">
										<masterclipid>masterclip-13</masterclipid>
										<name>ES_Caspius - Guustavv.wav</name>
										<enabled>TRUE</enabled>
										<duration>3641</duration>
										<rate>
											<timebase>30</timebase>
											<ntsc>TRUE</ntsc>
										</rate>
										<start>2590</start>
										<end>-1</end>
										<in>0</in>
										<out>2640</out>
										<pproTicksIn>0</pproTicksIn>
										<pproTicksOut>22375761408000</pproTicksOut>
										<file id="file-11"/>
										<sourcetrack>
											<mediatype>audio</mediatype>
											<trackindex>2</trackindex>
										</sourcetrack>
										<filter>
											<effect>
												<name>Gain</name>
												<effectid>{61756678, 4761696e, 4b657947}</effectid>
												<effecttype>filter</effecttype>
												<mediatype>audio</mediatype>
												<parameter authoringApp="PremierePro">
													<parameterid>Gain(dB)</parameterid>
													<name>Gain(dB)</name>
													<valuemin>-96</valuemin>
													<valuemax>96</valuemax>
													<value>-6</value>
												</parameter>
											</effect>
										</filter>
										<filter>
											<effect>
												<name>Audio Levels</name>
												<effectid>audiolevels</effectid>
												<effectcategory>audiolevels</effectcategory>
												<effecttype>audiolevels</effecttype>
												<mediatype>audio</mediatype>
												<pproBypass>false</pproBypass>
												<parameter authoringApp="PremierePro">
													<parameterid>level</parameterid>
													<name>Level</name>
													<valuemin>0</valuemin>
													<valuemax>3.98109</valuemax>
													<value>1</value>
													<keyframe>
														<when>187</when>
														<value>1</value>
													</keyframe>
													<keyframe>
														<when>251</when>
														<value>0.4253</value>
													</keyframe>
												</parameter>
											</effect>
										</filter>
										<link>
											<linkclipref>clipitem-33</linkclipref>
											<mediatype>audio</mediatype>
											<trackindex>3</trackindex>
											<clipindex>3</clipindex>
											<groupindex>1</groupindex>
										</link>
										<link>
											<linkclipref>clipitem-35</linkclipref>
											<mediatype>audio</mediatype>
											<trackindex>4</trackindex>
											<clipindex>3</clipindex>
											<groupindex>1</groupindex>
										</link>
										<logginginfo>
											<description></description>
											<scene></scene>
											<shottake></shottake>
											<lognote></lognote>
											<good></good>
											<originalvideofilename></originalvideofilename>
											<originalaudiofilename></originalaudiofilename>
										</logginginfo>
										<colorinfo>
											<lut></lut>
											<lut1></lut1>
											<asc_sop></asc_sop>
											<asc_sat></asc_sat>
											<lut2></lut2>
										</colorinfo>
										<labels>
											<label2>Caribbean</label2>
										</labels>
									</clipitem>
									<transitionitem>
										<start>5110</start>
										<end>5230</end>
										<pproTicksIn>43310659392000</pproTicksIn>
										<pproTicksOut>44327739456000</pproTicksOut>
										<alignment>end-black</alignment>
										<cutPointTicks>1017080064000</cutPointTicks>
										<rate>
											<timebase>30</timebase>
											<ntsc>TRUE</ntsc>
										</rate>
										<effect>
											<name>Cross Fade (+3dB)</name>
											<effectid>KGAudioTransCrossFade3dB</effectid>
											<effecttype>transition</effecttype>
											<mediatype>audio</mediatype>
											<wipecode>0</wipecode>
											<wipeaccuracy>100</wipeaccuracy>
											<startratio>0</startratio>
											<endratio>1</endratio>
											<reverse>FALSE</reverse>
										</effect>
									</transitionitem>
									<enabled>TRUE</enabled>
									<locked>FALSE</locked>
									<outputchannelindex>2</outputchannelindex>
								</track>
								<track TL.SQTrackAudioKeyframeStyle="0" TL.SQTrackShy="0" TL.SQTrackExpandedHeight="52" TL.SQTrackExpanded="0" MZ.TrackTargeted="1" PannerCurrentValue="0.5" PannerIsInverted="true" PannerStartKeyframe="-91445760000000000,0.5,0,0,0,0,0,0" PannerName="Balance" currentExplodedTrackIndex="0" totalExplodedTrackCount="2" premiereTrackType="Stereo">
									<enabled>TRUE</enabled>
									<locked>FALSE</locked>
									<outputchannelindex>1</outputchannelindex>
								</track>
								<track TL.SQTrackAudioKeyframeStyle="0" TL.SQTrackShy="0" TL.SQTrackExpandedHeight="52" TL.SQTrackExpanded="0" MZ.TrackTargeted="1" PannerCurrentValue="0.5" PannerIsInverted="true" PannerStartKeyframe="-91445760000000000,0.5,0,0,0,0,0,0" PannerName="Balance" currentExplodedTrackIndex="1" totalExplodedTrackCount="2" premiereTrackType="Stereo">
									<enabled>TRUE</enabled>
									<locked>FALSE</locked>
									<outputchannelindex>2</outputchannelindex>
								</track>
								<track TL.SQTrackAudioKeyframeStyle="0" TL.SQTrackShy="0" TL.SQTrackExpandedHeight="52" TL.SQTrackExpanded="0" MZ.TrackTargeted="0" PannerCurrentValue="0.5" PannerIsInverted="true" PannerStartKeyframe="-91445760000000000,0.5,0,0,0,0,0,0" PannerName="Balance" currentExplodedTrackIndex="0" totalExplodedTrackCount="2" premiereTrackType="Stereo">
									<enabled>TRUE</enabled>
									<locked>FALSE</locked>
									<outputchannelindex>1</outputchannelindex>
								</track>
								<track TL.SQTrackAudioKeyframeStyle="0" TL.SQTrackShy="0" TL.SQTrackExpandedHeight="52" TL.SQTrackExpanded="0" MZ.TrackTargeted="0" PannerCurrentValue="0.5" PannerIsInverted="true" PannerStartKeyframe="-91445760000000000,0.5,0,0,0,0,0,0" PannerName="Balance" currentExplodedTrackIndex="1" totalExplodedTrackCount="2" premiereTrackType="Stereo">
									<enabled>TRUE</enabled>
									<locked>FALSE</locked>
									<outputchannelindex>2</outputchannelindex>
								</track>
							</audio>
						</media>
						<timecode>
							<rate>
								<timebase>30</timebase>
								<ntsc>TRUE</ntsc>
							</rate>
							<string>00;00;00;00</string>
							<frame>0</frame>
							<displayformat>DF</displayformat>
						</timecode>
						<labels>
							<label2>Forest</label2>
						</labels>
						<logginginfo>
							<description></description>
							<scene></scene>
							<shottake></shottake>
							<lognote></lognote>
							<good></good>
							<originalvideofilename></originalvideofilename>
							<originalaudiofilename></originalaudiofilename>
						</logginginfo>
					</sequence>
					<sequence id="sequence-4" TL.SQAudioVisibleBase="0" TL.SQVideoVisibleBase="0" TL.SQVisibleBaseTime="0" TL.SQAVDividerPosition="0.5" TL.SQHideShyTracks="0" TL.SQHeaderWidth="236" TL.SQDataTrackViewControlState="0" Monitor.ProgramZoomOut="48065508691200" Monitor.ProgramZoomIn="0" TL.SQTimePerPixel="0.2908820974253406" MZ.EditLine="47362028313600" MZ.Sequence.PreviewFrameSizeHeight="1080" MZ.Sequence.PreviewFrameSizeWidth="1920" MZ.Sequence.AudioTimeDisplayFormat="200" MZ.Sequence.PreviewRenderingClassID="1061109567" MZ.Sequence.PreviewRenderingPresetCodec="1634755443" MZ.Sequence.PreviewRenderingPresetPath="EncoderPresets/SequencePreview/35d109db-457b-43c1-9452-9cb7be9f121c/QuickTime.epr" MZ.Sequence.PreviewUseMaxRenderQuality="false" MZ.Sequence.PreviewUseMaxBitDepth="false" MZ.Sequence.EditingModeGUID="35d109db-457b-43c1-9452-9cb7be9f121c" MZ.Sequence.VideoTimeDisplayFormat="102" MZ.WorkOutPoint="15239249625600" MZ.WorkInPoint="0" explodedTracks="true">
						<uuid>854cd0a4-688d-413e-8f67-05958ad7b1e9</uuid>
						<duration>5671</duration>
						<rate>
							<timebase>30</timebase>
							<ntsc>TRUE</ntsc>
						</rate>
						<name>ATM_CRAFTY_182</name>
						<media>
							<video>
								<format>
									<samplecharacteristics>
										<rate>
											<timebase>30</timebase>
											<ntsc>TRUE</ntsc>
										</rate>
										<codec>
											<name>Apple ProRes 422</name>
											<appspecificdata>
												<appname>Final Cut Pro</appname>
												<appmanufacturer>Apple Inc.</appmanufacturer>
												<appversion>7.0</appversion>
												<data>
													<qtcodec>
														<codecname>Apple ProRes 422</codecname>
														<codectypename>Apple ProRes 422</codectypename>
														<codectypecode>apcn</codectypecode>
														<codecvendorcode>appl</codecvendorcode>
														<spatialquality>1024</spatialquality>
														<temporalquality>0</temporalquality>
														<keyframerate>0</keyframerate>
														<datarate>0</datarate>
													</qtcodec>
												</data>
											</appspecificdata>
										</codec>
										<width>1920</width>
										<height>1080</height>
										<anamorphic>FALSE</anamorphic>
										<pixelaspectratio>square</pixelaspectratio>
										<fielddominance>none</fielddominance>
										<colordepth>24</colordepth>
									</samplecharacteristics>
								</format>
								<track TL.SQTrackShy="0" TL.SQTrackExpandedHeight="25" TL.SQTrackExpanded="0" MZ.TrackTargeted="1">
									<clipitem id="clipitem-36">
										<masterclipid>masterclip-14</masterclipid>
										<name>ART_THESTING_1.5</name>
										<enabled>TRUE</enabled>
										<duration>2793</duration>
										<rate>
											<timebase>30</timebase>
											<ntsc>TRUE</ntsc>
										</rate>
										<start>0</start>
										<end>2793</end>
										<in>0</in>
										<out>2793</out>
										<pproTicksIn>0</pproTicksIn>
										<pproTicksOut>23672538489600</pproTicksOut>
										<sequence id="sequence-5" TL.SQAudioVisibleBase="0" TL.SQVideoVisibleBase="0" TL.SQVisibleBaseTime="0" TL.SQAVDividerPosition="0.5" TL.SQHideShyTracks="0" TL.SQHeaderWidth="236" Monitor.ProgramZoomOut="23672538489600" Monitor.ProgramZoomIn="0" TL.SQTimePerPixel="0.28211575720991366" MZ.EditLine="0" MZ.Sequence.PreviewFrameSizeHeight="1080" MZ.Sequence.PreviewFrameSizeWidth="1920" MZ.Sequence.AudioTimeDisplayFormat="200" MZ.Sequence.PreviewRenderingClassID="1061109567" MZ.Sequence.PreviewRenderingPresetCodec="1634755443" MZ.Sequence.PreviewRenderingPresetPath="EncoderPresets/SequencePreview/35d109db-457b-43c1-9452-9cb7be9f121c/QuickTime.epr" MZ.Sequence.PreviewUseMaxRenderQuality="false" MZ.Sequence.PreviewUseMaxBitDepth="false" MZ.Sequence.EditingModeGUID="35d109db-457b-43c1-9452-9cb7be9f121c" MZ.Sequence.VideoTimeDisplayFormat="102" MZ.WorkOutPoint="23672538489600" MZ.WorkInPoint="0">
											<duration>2793</duration>
											<rate>
												<timebase>30</timebase>
												<ntsc>TRUE</ntsc>
											</rate>
											<name>ART_THESTING_1.5</name>
											<media>
												<video>
													<format>
														<samplecharacteristics>
															<rate>
																<timebase>30</timebase>
																<ntsc>TRUE</ntsc>
															</rate>
															<codec>
																<name>Apple ProRes 422</name>
																<appspecificdata>
																	<appname>Final Cut Pro</appname>
																	<appmanufacturer>Apple Inc.</appmanufacturer>
																	<appversion>7.0</appversion>
																	<data>
																		<qtcodec>
																			<codecname>Apple ProRes 422</codecname>
																			<codectypename>Apple ProRes 422</codectypename>
																			<codectypecode>apcn</codectypecode>
																			<codecvendorcode>appl</codecvendorcode>
																			<spatialquality>1024</spatialquality>
																			<temporalquality>0</temporalquality>
																			<keyframerate>0</keyframerate>
																			<datarate>0</datarate>
																		</qtcodec>
																	</data>
																</appspecificdata>
															</codec>
															<width>1920</width>
															<height>1080</height>
															<anamorphic>FALSE</anamorphic>
															<pixelaspectratio>square</pixelaspectratio>
															<fielddominance>none</fielddominance>
															<colordepth>24</colordepth>
														</samplecharacteristics>
													</format>
													<track TL.SQTrackShy="0" TL.SQTrackExpandedHeight="25" TL.SQTrackExpanded="0" MZ.TrackTargeted="1">
														<clipitem id="clipitem-37">
															<masterclipid>masterclip-15</masterclipid>
															<name>(Studio TEAL)_Chain Pull Jellyfish!!! Must See!! Florescent Paint!! Black Light Surprise!!!_FxO7tI5-lNk_YT.mp4</name>
															<enabled>TRUE</enabled>
															<duration>2833</duration>
															<rate>
																<timebase>30</timebase>
																<ntsc>TRUE</ntsc>
															</rate>
															<start>0</start>
															<end>2511</end>
															<in>74</in>
															<out>2584</out>
															<pproTicksIn>5890588704000</pproTicksIn>
															<pproTicksOut>206128226304000</pproTicksOut>
															<alphatype>none</alphatype>
															<pixelaspectratio>square</pixelaspectratio>
															<anamorphic>FALSE</anamorphic>
															<file id="file-12">
																<name>(Studio TEAL)_Chain Pull Jellyfish!!! Must See!! Florescent Paint!! Black Light Surprise!!!_FxO7tI5-lNk_YT.mp4</name>
																<pathurl>file://localhost/Volumes/CONTENT/VOD%20CONTENT%20ARCHIVE/O&amp;O%20Archive%202023/CRAFTY/03_March/Crafty_3-20-2023/3_Raw%20Files/jellyfish%20painting/(Studio%20TEAL)_Chain%20Pull%20Jellyfish!!!%20Must%20See!!%20Florescent%20Paint!!%20Black%20Light%20Surprise!!!_FxO7tI5-lNk_YT.mp4</pathurl>
																<rate>
																	<timebase>30</timebase>
																	<ntsc>TRUE</ntsc>
																</rate>
																<duration>26661</duration>
																<timecode>
																	<rate>
																		<timebase>30</timebase>
																		<ntsc>TRUE</ntsc>
																	</rate>
																	<string>00:00:00:00</string>
																	<frame>0</frame>
																	<displayformat>NDF</displayformat>
																</timecode>
																<media>
																	<video>
																		<samplecharacteristics>
																			<rate>
																				<timebase>30</timebase>
																				<ntsc>TRUE</ntsc>
																			</rate>
																			<width>1920</width>
																			<height>1080</height>
																			<anamorphic>FALSE</anamorphic>
																			<pixelaspectratio>square</pixelaspectratio>
																			<fielddominance>none</fielddominance>
																		</samplecharacteristics>
																	</video>
																	<audio>
																		<samplecharacteristics>
																			<depth>16</depth>
																			<samplerate>44100</samplerate>
																		</samplecharacteristics>
																		<channelcount>2</channelcount>
																	</audio>
																</media>
															</file>
															<filter>
																<effect>
																	<name>Time Remap</name>
																	<effectid>timeremap</effectid>
																	<effectcategory>motion</effectcategory>
																	<effecttype>motion</effecttype>
																	<mediatype>video</mediatype>
																	<parameter authoringApp="PremierePro">
																		<parameterid>variablespeed</parameterid>
																		<name>variablespeed</name>
																		<valuemin>0</valuemin>
																		<valuemax>1</valuemax>
																		<value>0</value>
																	</parameter>
																	<parameter authoringApp="PremierePro">
																		<parameterid>speed</parameterid>
																		<name>speed</name>
																		<valuemin>-100000</valuemin>
																		<valuemax>100000</valuemax>
																		<value>940.86</value>
																	</parameter>
																	<parameter authoringApp="PremierePro">
																		<parameterid>reverse</parameterid>
																		<name>reverse</name>
																		<value>FALSE</value>
																	</parameter>
																	<parameter authoringApp="PremierePro">
																		<parameterid>frameblending</parameterid>
																		<name>frameblending</name>
																		<value>FALSE</value>
																	</parameter>
																	<parameter authoringApp="PremierePro">
																		<parameterid>graphdict</parameterid>
																		<name>graphdict</name>
																		<valuemin>0</valuemin>
																		<valuemax>26654</valuemax>
																		<value>0</value>
																		<keyframe>
																			<when>0</when>
																			<value>0</value>
																			<speedvirtualkf>TRUE</speedvirtualkf>
																			<speedkfstart>TRUE</speedkfstart>
																		</keyframe>
																		<keyframe>
																			<when>74</when>
																			<value>696</value>
																			<speedvirtualkf>TRUE</speedvirtualkf>
																			<speedkfin>TRUE</speedkfin>
																		</keyframe>
																		<keyframe>
																			<when>2584</when>
																			<value>24311</value>
																			<speedvirtualkf>TRUE</speedvirtualkf>
																			<speedkfout>TRUE</speedkfout>
																		</keyframe>
																		<keyframe>
																			<when>2833</when>
																			<value>26654</value>
																			<speedvirtualkf>TRUE</speedvirtualkf>
																			<speedkfend>TRUE</speedkfend>
																		</keyframe>
																		<interpolation>
																			<name>FCPCurve</name>
																		</interpolation>
																	</parameter>
																</effect>
															</filter>
															<logginginfo>
																<description></description>
																<scene></scene>
																<shottake></shottake>
																<lognote>https://www.youtube.com/watch?v=FxO7tI5-lNk</lognote>
																<good></good>
																<originalvideofilename></originalvideofilename>
																<originalaudiofilename></originalaudiofilename>
															</logginginfo>
															<colorinfo>
																<lut></lut>
																<lut1></lut1>
																<asc_sop></asc_sop>
																<asc_sat></asc_sat>
																<lut2></lut2>
															</colorinfo>
															<labels>
																<label2>Iris</label2>
															</labels>
														</clipitem>
														<clipitem id="clipitem-38">
															<masterclipid>masterclip-15</masterclipid>
															<name>(Studio TEAL)_Chain Pull Jellyfish!!! Must See!! Florescent Paint!! Black Light Surprise!!!_FxO7tI5-lNk_YT.mp4</name>
															<enabled>TRUE</enabled>
															<duration>16095</duration>
															<rate>
																<timebase>30</timebase>
																<ntsc>TRUE</ntsc>
															</rate>
															<start>2511</start>
															<end>2706</end>
															<in>14898</in>
															<out>15092</out>
															<pproTicksIn>209154039494400</pproTicksIn>
															<pproTicksOut>211891680000000</pproTicksOut>
															<alphatype>none</alphatype>
															<file id="file-12"/>
															<filter>
																<effect>
																	<name>Time Remap</name>
																	<effectid>timeremap</effectid>
																	<effectcategory>motion</effectcategory>
																	<effecttype>motion</effecttype>
																	<mediatype>video</mediatype>
																	<parameter authoringApp="PremierePro">
																		<parameterid>variablespeed</parameterid>
																		<name>variablespeed</name>
																		<valuemin>0</valuemin>
																		<valuemax>1</valuemax>
																		<value>0</value>
																	</parameter>
																	<parameter authoringApp="PremierePro">
																		<parameterid>speed</parameterid>
																		<name>speed</name>
																		<valuemin>-100000</valuemin>
																		<valuemax>100000</valuemax>
																		<value>165.641</value>
																	</parameter>
																	<parameter authoringApp="PremierePro">
																		<parameterid>reverse</parameterid>
																		<name>reverse</name>
																		<value>FALSE</value>
																	</parameter>
																	<parameter authoringApp="PremierePro">
																		<parameterid>frameblending</parameterid>
																		<name>frameblending</name>
																		<value>FALSE</value>
																	</parameter>
																	<parameter authoringApp="PremierePro">
																		<parameterid>graphdict</parameterid>
																		<name>graphdict</name>
																		<valuemin>0</valuemin>
																		<valuemax>26659</valuemax>
																		<value>0</value>
																		<keyframe>
																			<when>0</when>
																			<value>0</value>
																			<speedvirtualkf>TRUE</speedvirtualkf>
																			<speedkfstart>TRUE</speedkfstart>
																		</keyframe>
																		<keyframe>
																			<when>14898</when>
																			<value>24677</value>
																			<speedvirtualkf>TRUE</speedvirtualkf>
																			<speedkfin>TRUE</speedkfin>
																		</keyframe>
																		<keyframe>
																			<when>15092</when>
																			<value>24998</value>
																			<speedvirtualkf>TRUE</speedvirtualkf>
																			<speedkfout>TRUE</speedkfout>
																		</keyframe>
																		<keyframe>
																			<when>16095</when>
																			<value>26659</value>
																			<speedvirtualkf>TRUE</speedvirtualkf>
																			<speedkfend>TRUE</speedkfend>
																		</keyframe>
																		<interpolation>
																			<name>FCPCurve</name>
																		</interpolation>
																	</parameter>
																</effect>
															</filter>
															<logginginfo>
																<description></description>
																<scene></scene>
																<shottake></shottake>
																<lognote>https://www.youtube.com/watch?v=FxO7tI5-lNk</lognote>
																<good></good>
																<originalvideofilename></originalvideofilename>
																<originalaudiofilename></originalaudiofilename>
															</logginginfo>
															<colorinfo>
																<lut></lut>
																<lut1></lut1>
																<asc_sop></asc_sop>
																<asc_sat></asc_sat>
																<lut2></lut2>
															</colorinfo>
															<labels>
																<label2>Iris</label2>
															</labels>
														</clipitem>
														<clipitem id="clipitem-39">
															<masterclipid>masterclip-15</masterclipid>
															<name>(Studio TEAL)_Chain Pull Jellyfish!!! Must See!! Florescent Paint!! Black Light Surprise!!!_FxO7tI5-lNk_YT.mp4</name>
															<enabled>TRUE</enabled>
															<duration>26661</duration>
															<rate>
																<timebase>30</timebase>
																<ntsc>TRUE</ntsc>
															</rate>
															<start>2706</start>
															<end>2793</end>
															<in>25229</in>
															<out>25316</out>
															<pproTicksIn>213832607788800</pproTicksIn>
															<pproTicksOut>214569990835200</pproTicksOut>
															<alphatype>none</alphatype>
															<file id="file-12"/>
															<logginginfo>
																<description></description>
																<scene></scene>
																<shottake></shottake>
																<lognote>https://www.youtube.com/watch?v=FxO7tI5-lNk</lognote>
																<good></good>
																<originalvideofilename></originalvideofilename>
																<originalaudiofilename></originalaudiofilename>
															</logginginfo>
															<colorinfo>
																<lut></lut>
																<lut1></lut1>
																<asc_sop></asc_sop>
																<asc_sat></asc_sat>
																<lut2></lut2>
															</colorinfo>
															<labels>
																<label2>Iris</label2>
															</labels>
														</clipitem>
														<enabled>TRUE</enabled>
														<locked>FALSE</locked>
													</track>
													<track TL.SQTrackShy="0" TL.SQTrackExpandedHeight="25" TL.SQTrackExpanded="0" MZ.TrackTargeted="0">
														<clipitem id="clipitem-40">
															<masterclipid>masterclip-16</masterclipid>
															<name>STUDIO TEAL</name>
															<enabled>TRUE</enabled>
															<duration>5844</duration>
															<rate>
																<timebase>30</timebase>
																<ntsc>TRUE</ntsc>
															</rate>
															<start>0</start>
															<end>2793</end>
															<in>0</in>
															<out>2793</out>
															<pproTicksIn>0</pproTicksIn>
															<pproTicksOut>23672538489600</pproTicksOut>
															<alphatype>straight</alphatype>
															<pixelaspectratio>square</pixelaspectratio>
															<anamorphic>FALSE</anamorphic>
															<file id="file-13">
																<name>1080/AE Attribution.aep</name>
																<pathurl>file://localhost/Volumes/ATM%20JR%202TB/Master%20Assets/AE%20Attribution.aep</pathurl>
																<rate>
																	<timebase>30</timebase>
																	<ntsc>TRUE</ntsc>
																</rate>
																<duration>5844</duration>
																<timecode>
																	<rate>
																		<timebase>30</timebase>
																		<ntsc>TRUE</ntsc>
																	</rate>
																	<string>00;00;00;00</string>
																	<frame>0</frame>
																	<displayformat>DF</displayformat>
																</timecode>
																<media>
																	<video>
																		<samplecharacteristics>
																			<rate>
																				<timebase>30</timebase>
																				<ntsc>TRUE</ntsc>
																			</rate>
																			<width>1920</width>
																			<height>1080</height>
																			<anamorphic>FALSE</anamorphic>
																			<pixelaspectratio>square</pixelaspectratio>
																			<fielddominance>lower</fielddominance>
																		</samplecharacteristics>
																	</video>
																</media>
															</file>
															<logginginfo>
																<description></description>
																<scene></scene>
																<shottake></shottake>
																<lognote></lognote>
																<good></good>
																<originalvideofilename></originalvideofilename>
																<originalaudiofilename></originalaudiofilename>
															</logginginfo>
															<colorinfo>
																<lut></lut>
																<lut1></lut1>
																<asc_sop></asc_sop>
																<asc_sat></asc_sat>
																<lut2></lut2>
															</colorinfo>
															<labels>
																<label2>Rose</label2>
															</labels>
														</clipitem>
														<enabled>TRUE</enabled>
														<locked>FALSE</locked>
													</track>
												</video>
												<audio>
													<numOutputChannels>2</numOutputChannels>
													<format>
														<samplecharacteristics>
															<depth>16</depth>
															<samplerate>48000</samplerate>
														</samplecharacteristics>
													</format>
													<outputs>
														<group>
															<index>1</index>
															<numchannels>1</numchannels>
															<downmix>0</downmix>
															<channel>
																<index>1</index>
															</channel>
														</group>
														<group>
															<index>2</index>
															<numchannels>1</numchannels>
															<downmix>0</downmix>
															<channel>
																<index>2</index>
															</channel>
														</group>
													</outputs>
													<track TL.SQTrackAudioKeyframeStyle="0" TL.SQTrackShy="0" TL.SQTrackExpandedHeight="25" TL.SQTrackExpanded="0" MZ.TrackTargeted="1" PannerCurrentValue="0.5" PannerIsInverted="true" PannerStartKeyframe="-91445760000000000,0.5,0,0,0,0,0,0" PannerName="Balance" currentExplodedTrackIndex="0" totalExplodedTrackCount="2" premiereTrackType="Stereo">
														<enabled>TRUE</enabled>
														<locked>FALSE</locked>
														<outputchannelindex>1</outputchannelindex>
													</track>
													<track TL.SQTrackAudioKeyframeStyle="0" TL.SQTrackShy="0" TL.SQTrackExpandedHeight="25" TL.SQTrackExpanded="0" MZ.TrackTargeted="1" PannerCurrentValue="0.5" PannerIsInverted="true" PannerStartKeyframe="-91445760000000000,0.5,0,0,0,0,0,0" PannerName="Balance" currentExplodedTrackIndex="1" totalExplodedTrackCount="2" premiereTrackType="Stereo">
														<enabled>TRUE</enabled>
														<locked>FALSE</locked>
														<outputchannelindex>2</outputchannelindex>
													</track>
												</audio>
											</media>
											<timecode>
												<rate>
													<timebase>30</timebase>
													<ntsc>TRUE</ntsc>
												</rate>
												<string>00;00;00;00</string>
												<frame>0</frame>
												<displayformat>DF</displayformat>
											</timecode>
											<logginginfo>
												<description></description>
												<scene></scene>
												<shottake></shottake>
												<lognote></lognote>
												<good></good>
												<originalvideofilename></originalvideofilename>
												<originalaudiofilename></originalaudiofilename>
											</logginginfo>
										</sequence>
										<labels>
											<label2>Forest</label2>
										</labels>
									</clipitem>
									<clipitem id="clipitem-41">
										<masterclipid>masterclip-17</masterclipid>
										<name>BEAUTY_GRUNGYGLAM_1.5</name>
										<enabled>TRUE</enabled>
										<duration>2697</duration>
										<rate>
											<timebase>30</timebase>
											<ntsc>TRUE</ntsc>
										</rate>
										<start>2865</start>
										<end>5562</end>
										<in>0</in>
										<out>2697</out>
										<pproTicksIn>0</pproTicksIn>
										<pproTicksOut>22858874438400</pproTicksOut>
										<sequence id="sequence-6" TL.SQAudioVisibleBase="0" TL.SQVideoVisibleBase="0" TL.SQVisibleBaseTime="0" TL.SQAVDividerPosition="0.5" TL.SQHideShyTracks="0" TL.SQHeaderWidth="236" Monitor.ProgramZoomOut="22858874438400" Monitor.ProgramZoomIn="0" TL.SQTimePerPixel="0.27448367209397856" MZ.EditLine="0" MZ.Sequence.PreviewFrameSizeHeight="1080" MZ.Sequence.PreviewFrameSizeWidth="1920" MZ.Sequence.AudioTimeDisplayFormat="200" MZ.Sequence.PreviewRenderingClassID="1061109567" MZ.Sequence.PreviewRenderingPresetCodec="1634755443" MZ.Sequence.PreviewRenderingPresetPath="EncoderPresets/SequencePreview/35d109db-457b-43c1-9452-9cb7be9f121c/QuickTime.epr" MZ.Sequence.PreviewUseMaxRenderQuality="false" MZ.Sequence.PreviewUseMaxBitDepth="false" MZ.Sequence.EditingModeGUID="35d109db-457b-43c1-9452-9cb7be9f121c" MZ.Sequence.VideoTimeDisplayFormat="102" MZ.WorkOutPoint="22858874438400" MZ.WorkInPoint="0">
											<duration>2697</duration>
											<rate>
												<timebase>30</timebase>
												<ntsc>TRUE</ntsc>
											</rate>
											<name>BEAUTY_GRUNGYGLAM_1.5</name>
											<media>
												<video>
													<format>
														<samplecharacteristics>
															<rate>
																<timebase>30</timebase>
																<ntsc>TRUE</ntsc>
															</rate>
															<codec>
																<name>Apple ProRes 422</name>
																<appspecificdata>
																	<appname>Final Cut Pro</appname>
																	<appmanufacturer>Apple Inc.</appmanufacturer>
																	<appversion>7.0</appversion>
																	<data>
																		<qtcodec>
																			<codecname>Apple ProRes 422</codecname>
																			<codectypename>Apple ProRes 422</codectypename>
																			<codectypecode>apcn</codectypecode>
																			<codecvendorcode>appl</codecvendorcode>
																			<spatialquality>1024</spatialquality>
																			<temporalquality>0</temporalquality>
																			<keyframerate>0</keyframerate>
																			<datarate>0</datarate>
																		</qtcodec>
																	</data>
																</appspecificdata>
															</codec>
															<width>1920</width>
															<height>1080</height>
															<anamorphic>FALSE</anamorphic>
															<pixelaspectratio>square</pixelaspectratio>
															<fielddominance>none</fielddominance>
															<colordepth>24</colordepth>
														</samplecharacteristics>
													</format>
													<track TL.SQTrackShy="0" TL.SQTrackExpandedHeight="25" TL.SQTrackExpanded="0" MZ.TrackTargeted="1">
														<clipitem id="clipitem-42">
															<masterclipid>masterclip-18</masterclipid>
															<name>(Sydney Nicole Addams)_Rustic_Grunge Inspired Look _ Sydney Nicole_A2RngeLM0xQ_YT.mp4</name>
															<enabled>TRUE</enabled>
															<duration>5461</duration>
															<rate>
																<timebase>30</timebase>
																<ntsc>TRUE</ntsc>
															</rate>
															<start>0</start>
															<end>138</end>
															<in>367</in>
															<out>504</out>
															<pproTicksIn>4678568294400</pproTicksIn>
															<pproTicksOut>6441507072000</pproTicksOut>
															<alphatype>none</alphatype>
															<pixelaspectratio>square</pixelaspectratio>
															<anamorphic>FALSE</anamorphic>
															<file id="file-14">
																<name>(Sydney Nicole Addams)_Rustic_Grunge Inspired Look _ Sydney Nicole_A2RngeLM0xQ_YT.mp4</name>
																<pathurl>file://localhost/Volumes/CONTENT/VOD%20CONTENT%20ARCHIVE/O&amp;O%20Archive%202023/CRAFTY/03_March/Crafty_3-20-2023/3_Raw%20Files/grunge%20makeup%20look/(Sydney%20Nicole%20Addams)_Rustic_Grunge%20Inspired%20Look%20_%20Sydney%20Nicole_A2RngeLM0xQ_YT.mp4</pathurl>
																<rate>
																	<timebase>30</timebase>
																	<ntsc>TRUE</ntsc>
																</rate>
																<duration>8232</duration>
																<timecode>
																	<rate>
																		<timebase>30</timebase>
																		<ntsc>TRUE</ntsc>
																	</rate>
																	<string>00:00:00:00</string>
																	<frame>0</frame>
																	<displayformat>NDF</displayformat>
																</timecode>
																<media>
																	<video>
																		<samplecharacteristics>
																			<rate>
																				<timebase>30</timebase>
																				<ntsc>TRUE</ntsc>
																			</rate>
																			<width>1920</width>
																			<height>1080</height>
																			<anamorphic>FALSE</anamorphic>
																			<pixelaspectratio>square</pixelaspectratio>
																			<fielddominance>none</fielddominance>
																		</samplecharacteristics>
																	</video>
																	<audio>
																		<samplecharacteristics>
																			<depth>16</depth>
																			<samplerate>44100</samplerate>
																		</samplecharacteristics>
																		<channelcount>2</channelcount>
																	</audio>
																</media>
															</file>
															<filter>
																<effect>
																	<name>Time Remap</name>
																	<effectid>timeremap</effectid>
																	<effectcategory>motion</effectcategory>
																	<effecttype>motion</effecttype>
																	<mediatype>video</mediatype>
																	<parameter authoringApp="PremierePro">
																		<parameterid>variablespeed</parameterid>
																		<name>variablespeed</name>
																		<valuemin>0</valuemin>
																		<valuemax>1</valuemax>
																		<value>0</value>
																	</parameter>
																	<parameter authoringApp="PremierePro">
																		<parameterid>speed</parameterid>
																		<name>speed</name>
																		<valuemin>-100000</valuemin>
																		<valuemax>100000</valuemax>
																		<value>150.725</value>
																	</parameter>
																	<parameter authoringApp="PremierePro">
																		<parameterid>reverse</parameterid>
																		<name>reverse</name>
																		<value>FALSE</value>
																	</parameter>
																	<parameter authoringApp="PremierePro">
																		<parameterid>frameblending</parameterid>
																		<name>frameblending</name>
																		<value>FALSE</value>
																	</parameter>
																	<parameter authoringApp="PremierePro">
																		<parameterid>graphdict</parameterid>
																		<name>graphdict</name>
																		<valuemin>0</valuemin>
																		<valuemax>8231</valuemax>
																		<value>0</value>
																		<keyframe>
																			<when>0</when>
																			<value>0</value>
																			<speedvirtualkf>TRUE</speedvirtualkf>
																			<speedkfstart>TRUE</speedkfstart>
																		</keyframe>
																		<keyframe>
																			<when>367</when>
																			<value>553</value>
																			<speedvirtualkf>TRUE</speedvirtualkf>
																			<speedkfin>TRUE</speedkfin>
																		</keyframe>
																		<keyframe>
																			<when>504</when>
																			<value>759</value>
																			<speedvirtualkf>TRUE</speedvirtualkf>
																			<speedkfout>TRUE</speedkfout>
																		</keyframe>
																		<keyframe>
																			<when>5461</when>
																			<value>8231</value>
																			<speedvirtualkf>TRUE</speedvirtualkf>
																			<speedkfend>TRUE</speedkfend>
																		</keyframe>
																		<interpolation>
																			<name>FCPCurve</name>
																		</interpolation>
																	</parameter>
																</effect>
															</filter>
															<logginginfo>
																<description></description>
																<scene></scene>
																<shottake></shottake>
																<lognote>https://www.youtube.com/watch?v=A2RngeLM0xQ</lognote>
																<good></good>
																<originalvideofilename></originalvideofilename>
																<originalaudiofilename></originalaudiofilename>
															</logginginfo>
															<colorinfo>
																<lut></lut>
																<lut1></lut1>
																<asc_sop></asc_sop>
																<asc_sat></asc_sat>
																<lut2></lut2>
															</colorinfo>
															<labels>
																<label2>Iris</label2>
															</labels>
														</clipitem>
														<clipitem id="clipitem-43">
															<masterclipid>masterclip-18</masterclipid>
															<name>(Sydney Nicole Addams)_Rustic_Grunge Inspired Look _ Sydney Nicole_A2RngeLM0xQ_YT.mp4</name>
															<enabled>TRUE</enabled>
															<duration>7066</duration>
															<rate>
																<timebase>30</timebase>
																<ntsc>TRUE</ntsc>
															</rate>
															<start>138</start>
															<end>1611</end>
															<in>1019</in>
															<out>2491</out>
															<pproTicksIn>10052141299200</pproTicksIn>
															<pproTicksOut>24596386214400</pproTicksOut>
															<alphatype>none</alphatype>
															<file id="file-14"/>
															<filter>
																<effect>
																	<name>Time Remap</name>
																	<effectid>timeremap</effectid>
																	<effectcategory>motion</effectcategory>
																	<effecttype>motion</effecttype>
																	<mediatype>video</mediatype>
																	<parameter authoringApp="PremierePro">
																		<parameterid>variablespeed</parameterid>
																		<name>variablespeed</name>
																		<valuemin>0</valuemin>
																		<valuemax>1</valuemax>
																		<value>0</value>
																	</parameter>
																	<parameter authoringApp="PremierePro">
																		<parameterid>speed</parameterid>
																		<name>speed</name>
																		<valuemin>-100000</valuemin>
																		<valuemax>100000</valuemax>
																		<value>116.497</value>
																	</parameter>
																	<parameter authoringApp="PremierePro">
																		<parameterid>reverse</parameterid>
																		<name>reverse</name>
																		<value>FALSE</value>
																	</parameter>
																	<parameter authoringApp="PremierePro">
																		<parameterid>frameblending</parameterid>
																		<name>frameblending</name>
																		<value>FALSE</value>
																	</parameter>
																	<parameter authoringApp="PremierePro">
																		<parameterid>graphdict</parameterid>
																		<name>graphdict</name>
																		<valuemin>0</valuemin>
																		<valuemax>8231</valuemax>
																		<value>0</value>
																		<keyframe>
																			<when>0</when>
																			<value>0</value>
																			<speedvirtualkf>TRUE</speedvirtualkf>
																			<speedkfstart>TRUE</speedkfstart>
																		</keyframe>
																		<keyframe>
																			<when>1019</when>
																			<value>1187</value>
																			<speedvirtualkf>TRUE</speedvirtualkf>
																			<speedkfin>TRUE</speedkfin>
																		</keyframe>
																		<keyframe>
																			<when>2491</when>
																			<value>2901</value>
																			<speedvirtualkf>TRUE</speedvirtualkf>
																			<speedkfout>TRUE</speedkfout>
																		</keyframe>
																		<keyframe>
																			<when>7066</when>
																			<value>8231</value>
																			<speedvirtualkf>TRUE</speedvirtualkf>
																			<speedkfend>TRUE</speedkfend>
																		</keyframe>
																		<interpolation>
																			<name>FCPCurve</name>
																		</interpolation>
																	</parameter>
																</effect>
															</filter>
															<logginginfo>
																<description></description>
																<scene></scene>
																<shottake></shottake>
																<lognote>https://www.youtube.com/watch?v=A2RngeLM0xQ</lognote>
																<good></good>
																<originalvideofilename></originalvideofilename>
																<originalaudiofilename></originalaudiofilename>
															</logginginfo>
															<colorinfo>
																<lut></lut>
																<lut1></lut1>
																<asc_sop></asc_sop>
																<asc_sat></asc_sat>
																<lut2></lut2>
															</colorinfo>
															<labels>
																<label2>Iris</label2>
															</labels>
														</clipitem>
														<clipitem id="clipitem-44">
															<masterclipid>masterclip-18</masterclipid>
															<name>(Sydney Nicole Addams)_Rustic_Grunge Inspired Look _ Sydney Nicole_A2RngeLM0xQ_YT.mp4</name>
															<enabled>TRUE</enabled>
															<duration>8232</duration>
															<rate>
																<timebase>30</timebase>
																<ntsc>TRUE</ntsc>
															</rate>
															<start>1611</start>
															<end>1783</end>
															<in>3064</in>
															<out>3236</out>
															<pproTicksIn>25969444300800</pproTicksIn>
															<pproTicksOut>27427259059200</pproTicksOut>
															<alphatype>none</alphatype>
															<file id="file-14"/>
															<logginginfo>
																<description></description>
																<scene></scene>
																<shottake></shottake>
																<lognote>https://www.youtube.com/watch?v=A2RngeLM0xQ</lognote>
																<good></good>
																<originalvideofilename></originalvideofilename>
																<originalaudiofilename></originalaudiofilename>
															</logginginfo>
															<colorinfo>
																<lut></lut>
																<lut1></lut1>
																<asc_sop></asc_sop>
																<asc_sat></asc_sat>
																<lut2></lut2>
															</colorinfo>
															<labels>
																<label2>Iris</label2>
															</labels>
														</clipitem>
														<clipitem id="clipitem-45">
															<masterclipid>masterclip-18</masterclipid>
															<name>(Sydney Nicole Addams)_Rustic_Grunge Inspired Look _ Sydney Nicole_A2RngeLM0xQ_YT.mp4</name>
															<enabled>TRUE</enabled>
															<duration>8232</duration>
															<rate>
																<timebase>30</timebase>
																<ntsc>TRUE</ntsc>
															</rate>
															<start>1783</start>
															<end>1914</end>
															<in>3475</in>
															<out>3606</out>
															<pproTicksIn>29452943520000</pproTicksIn>
															<pproTicksOut>30563255923200</pproTicksOut>
															<alphatype>none</alphatype>
															<file id="file-14"/>
															<logginginfo>
																<description></description>
																<scene></scene>
																<shottake></shottake>
																<lognote>https://www.youtube.com/watch?v=A2RngeLM0xQ</lognote>
																<good></good>
																<originalvideofilename></originalvideofilename>
																<originalaudiofilename></originalaudiofilename>
															</logginginfo>
															<colorinfo>
																<lut></lut>
																<lut1></lut1>
																<asc_sop></asc_sop>
																<asc_sat></asc_sat>
																<lut2></lut2>
															</colorinfo>
															<labels>
																<label2>Iris</label2>
															</labels>
														</clipitem>
														<clipitem id="clipitem-46">
															<masterclipid>masterclip-18</masterclipid>
															<name>(Sydney Nicole Addams)_Rustic_Grunge Inspired Look _ Sydney Nicole_A2RngeLM0xQ_YT.mp4</name>
															<enabled>TRUE</enabled>
															<duration>8232</duration>
															<rate>
																<timebase>30</timebase>
																<ntsc>TRUE</ntsc>
															</rate>
															<start>1914</start>
															<end>1997</end>
															<in>4097</in>
															<out>4180</out>
															<pproTicksIn>34724808518400</pproTicksIn>
															<pproTicksOut>35428288896000</pproTicksOut>
															<alphatype>none</alphatype>
															<file id="file-14"/>
															<logginginfo>
																<description></description>
																<scene></scene>
																<shottake></shottake>
																<lognote>https://www.youtube.com/watch?v=A2RngeLM0xQ</lognote>
																<good></good>
																<originalvideofilename></originalvideofilename>
																<originalaudiofilename></originalaudiofilename>
															</logginginfo>
															<colorinfo>
																<lut></lut>
																<lut1></lut1>
																<asc_sop></asc_sop>
																<asc_sat></asc_sat>
																<lut2></lut2>
															</colorinfo>
															<labels>
																<label2>Iris</label2>
															</labels>
														</clipitem>
														<clipitem id="clipitem-47">
															<masterclipid>masterclip-18</masterclipid>
															<name>(Sydney Nicole Addams)_Rustic_Grunge Inspired Look _ Sydney Nicole_A2RngeLM0xQ_YT.mp4</name>
															<enabled>TRUE</enabled>
															<duration>8232</duration>
															<rate>
																<timebase>30</timebase>
																<ntsc>TRUE</ntsc>
															</rate>
															<start>1997</start>
															<end>2272</end>
															<in>4479</in>
															<out>4754</out>
															<pproTicksIn>37962513388800</pproTicksIn>
															<pproTicksOut>40293321868800</pproTicksOut>
															<alphatype>none</alphatype>
															<file id="file-14"/>
															<logginginfo>
																<description></description>
																<scene></scene>
																<shottake></shottake>
																<lognote>https://www.youtube.com/watch?v=A2RngeLM0xQ</lognote>
																<good></good>
																<originalvideofilename></originalvideofilename>
																<originalaudiofilename></originalaudiofilename>
															</logginginfo>
															<colorinfo>
																<lut></lut>
																<lut1></lut1>
																<asc_sop></asc_sop>
																<asc_sat></asc_sat>
																<lut2></lut2>
															</colorinfo>
															<labels>
																<label2>Iris</label2>
															</labels>
														</clipitem>
														<clipitem id="clipitem-48">
															<masterclipid>masterclip-18</masterclipid>
															<name>(Sydney Nicole Addams)_Rustic_Grunge Inspired Look _ Sydney Nicole_A2RngeLM0xQ_YT.mp4</name>
															<enabled>TRUE</enabled>
															<duration>8232</duration>
															<rate>
																<timebase>30</timebase>
																<ntsc>TRUE</ntsc>
															</rate>
															<start>2272</start>
															<end>2380</end>
															<in>4969</in>
															<out>5077</out>
															<pproTicksIn>42115590316800</pproTicksIn>
															<pproTicksOut>43030962374400</pproTicksOut>
															<alphatype>none</alphatype>
															<file id="file-14"/>
															<logginginfo>
																<description></description>
																<scene></scene>
																<shottake></shottake>
																<lognote>https://www.youtube.com/watch?v=A2RngeLM0xQ</lognote>
																<good></good>
																<originalvideofilename></originalvideofilename>
																<originalaudiofilename></originalaudiofilename>
															</logginginfo>
															<colorinfo>
																<lut></lut>
																<lut1></lut1>
																<asc_sop></asc_sop>
																<asc_sat></asc_sat>
																<lut2></lut2>
															</colorinfo>
															<labels>
																<label2>Iris</label2>
															</labels>
														</clipitem>
														<clipitem id="clipitem-49">
															<masterclipid>masterclip-18</masterclipid>
															<name>(Sydney Nicole Addams)_Rustic_Grunge Inspired Look _ Sydney Nicole_A2RngeLM0xQ_YT.mp4</name>
															<enabled>TRUE</enabled>
															<duration>8232</duration>
															<rate>
																<timebase>30</timebase>
																<ntsc>TRUE</ntsc>
															</rate>
															<start>2380</start>
															<end>2437</end>
															<in>6276</in>
															<out>6333</out>
															<pproTicksIn>53193287347200</pproTicksIn>
															<pproTicksOut>53676400377600</pproTicksOut>
															<alphatype>none</alphatype>
															<file id="file-14"/>
															<logginginfo>
																<description></description>
																<scene></scene>
																<shottake></shottake>
																<lognote>https://www.youtube.com/watch?v=A2RngeLM0xQ</lognote>
																<good></good>
																<originalvideofilename></originalvideofilename>
																<originalaudiofilename></originalaudiofilename>
															</logginginfo>
															<colorinfo>
																<lut></lut>
																<lut1></lut1>
																<asc_sop></asc_sop>
																<asc_sat></asc_sat>
																<lut2></lut2>
															</colorinfo>
															<labels>
																<label2>Iris</label2>
															</labels>
														</clipitem>
														<clipitem id="clipitem-50">
															<masterclipid>masterclip-18</masterclipid>
															<name>(Sydney Nicole Addams)_Rustic_Grunge Inspired Look _ Sydney Nicole_A2RngeLM0xQ_YT.mp4</name>
															<enabled>TRUE</enabled>
															<duration>8232</duration>
															<rate>
																<timebase>30</timebase>
																<ntsc>TRUE</ntsc>
															</rate>
															<start>2437</start>
															<end>2521</end>
															<in>6787</in>
															<out>6871</out>
															<pproTicksIn>57524353286400</pproTicksIn>
															<pproTicksOut>58236309331200</pproTicksOut>
															<alphatype>none</alphatype>
															<file id="file-14"/>
															<logginginfo>
																<description></description>
																<scene></scene>
																<shottake></shottake>
																<lognote>https://www.youtube.com/watch?v=A2RngeLM0xQ</lognote>
																<good></good>
																<originalvideofilename></originalvideofilename>
																<originalaudiofilename></originalaudiofilename>
															</logginginfo>
															<colorinfo>
																<lut></lut>
																<lut1></lut1>
																<asc_sop></asc_sop>
																<asc_sat></asc_sat>
																<lut2></lut2>
															</colorinfo>
															<labels>
																<label2>Iris</label2>
															</labels>
														</clipitem>
														<clipitem id="clipitem-51">
															<masterclipid>masterclip-18</masterclipid>
															<name>(Sydney Nicole Addams)_Rustic_Grunge Inspired Look _ Sydney Nicole_A2RngeLM0xQ_YT.mp4</name>
															<enabled>TRUE</enabled>
															<duration>8232</duration>
															<rate>
																<timebase>30</timebase>
																<ntsc>TRUE</ntsc>
															</rate>
															<start>2521</start>
															<end>2622</end>
															<in>7660</in>
															<out>7761</out>
															<pproTicksIn>64923610752000</pproTicksIn>
															<pproTicksOut>65779653139200</pproTicksOut>
															<alphatype>none</alphatype>
															<file id="file-14"/>
															<logginginfo>
																<description></description>
																<scene></scene>
																<shottake></shottake>
																<lognote>https://www.youtube.com/watch?v=A2RngeLM0xQ</lognote>
																<good></good>
																<originalvideofilename></originalvideofilename>
																<originalaudiofilename></originalaudiofilename>
															</logginginfo>
															<colorinfo>
																<lut></lut>
																<lut1></lut1>
																<asc_sop></asc_sop>
																<asc_sat></asc_sat>
																<lut2></lut2>
															</colorinfo>
															<labels>
																<label2>Iris</label2>
															</labels>
														</clipitem>
														<clipitem id="clipitem-52">
															<masterclipid>masterclip-18</masterclipid>
															<name>(Sydney Nicole Addams)_Rustic_Grunge Inspired Look _ Sydney Nicole_A2RngeLM0xQ_YT.mp4</name>
															<enabled>TRUE</enabled>
															<duration>8232</duration>
															<rate>
																<timebase>30</timebase>
																<ntsc>TRUE</ntsc>
															</rate>
															<start>2622</start>
															<end>2697</end>
															<in>7985</in>
															<out>8060</out>
															<pproTicksIn>67678202592000</pproTicksIn>
															<pproTicksOut>68313877632000</pproTicksOut>
															<alphatype>none</alphatype>
															<file id="file-14"/>
															<logginginfo>
																<description></description>
																<scene></scene>
																<shottake></shottake>
																<lognote>https://www.youtube.com/watch?v=A2RngeLM0xQ</lognote>
																<good></good>
																<originalvideofilename></originalvideofilename>
																<originalaudiofilename></originalaudiofilename>
															</logginginfo>
															<colorinfo>
																<lut></lut>
																<lut1></lut1>
																<asc_sop></asc_sop>
																<asc_sat></asc_sat>
																<lut2></lut2>
															</colorinfo>
															<labels>
																<label2>Iris</label2>
															</labels>
														</clipitem>
														<enabled>TRUE</enabled>
														<locked>FALSE</locked>
													</track>
													<track TL.SQTrackShy="0" TL.SQTrackExpandedHeight="25" TL.SQTrackExpanded="0" MZ.TrackTargeted="0">
														<clipitem id="clipitem-53">
															<masterclipid>masterclip-19</masterclipid>
															<name>SYDNEY NICOLE ADDAMS</name>
															<enabled>TRUE</enabled>
															<duration>5844</duration>
															<rate>
																<timebase>30</timebase>
																<ntsc>TRUE</ntsc>
															</rate>
															<start>0</start>
															<end>2697</end>
															<in>0</in>
															<out>2697</out>
															<pproTicksIn>0</pproTicksIn>
															<pproTicksOut>22858874438400</pproTicksOut>
															<alphatype>straight</alphatype>
															<pixelaspectratio>square</pixelaspectratio>
															<anamorphic>FALSE</anamorphic>
															<file id="file-15">
																<name>1080/AE Attribution.aep</name>
																<pathurl>file://localhost/Volumes/ATM%20JR%202TB/Master%20Assets/AE%20Attribution.aep</pathurl>
																<rate>
																	<timebase>30</timebase>
																	<ntsc>TRUE</ntsc>
																</rate>
																<duration>5844</duration>
																<timecode>
																	<rate>
																		<timebase>30</timebase>
																		<ntsc>TRUE</ntsc>
																	</rate>
																	<string>00;00;00;00</string>
																	<frame>0</frame>
																	<displayformat>DF</displayformat>
																</timecode>
																<media>
																	<video>
																		<samplecharacteristics>
																			<rate>
																				<timebase>30</timebase>
																				<ntsc>TRUE</ntsc>
																			</rate>
																			<width>1920</width>
																			<height>1080</height>
																			<anamorphic>FALSE</anamorphic>
																			<pixelaspectratio>square</pixelaspectratio>
																			<fielddominance>lower</fielddominance>
																		</samplecharacteristics>
																	</video>
																</media>
															</file>
															<logginginfo>
																<description></description>
																<scene></scene>
																<shottake></shottake>
																<lognote></lognote>
																<good></good>
																<originalvideofilename></originalvideofilename>
																<originalaudiofilename></originalaudiofilename>
															</logginginfo>
															<colorinfo>
																<lut></lut>
																<lut1></lut1>
																<asc_sop></asc_sop>
																<asc_sat></asc_sat>
																<lut2></lut2>
															</colorinfo>
															<labels>
																<label2>Rose</label2>
															</labels>
														</clipitem>
														<enabled>TRUE</enabled>
														<locked>FALSE</locked>
													</track>
												</video>
												<audio>
													<numOutputChannels>2</numOutputChannels>
													<format>
														<samplecharacteristics>
															<depth>16</depth>
															<samplerate>48000</samplerate>
														</samplecharacteristics>
													</format>
													<outputs>
														<group>
															<index>1</index>
															<numchannels>1</numchannels>
															<downmix>0</downmix>
															<channel>
																<index>1</index>
															</channel>
														</group>
														<group>
															<index>2</index>
															<numchannels>1</numchannels>
															<downmix>0</downmix>
															<channel>
																<index>2</index>
															</channel>
														</group>
													</outputs>
													<track TL.SQTrackAudioKeyframeStyle="0" TL.SQTrackShy="0" TL.SQTrackExpandedHeight="25" TL.SQTrackExpanded="0" MZ.TrackTargeted="1" PannerCurrentValue="0.5" PannerIsInverted="true" PannerStartKeyframe="-91445760000000000,0.5,0,0,0,0,0,0" PannerName="Balance" currentExplodedTrackIndex="0" totalExplodedTrackCount="2" premiereTrackType="Stereo">
														<enabled>TRUE</enabled>
														<locked>FALSE</locked>
														<outputchannelindex>1</outputchannelindex>
													</track>
													<track TL.SQTrackAudioKeyframeStyle="0" TL.SQTrackShy="0" TL.SQTrackExpandedHeight="25" TL.SQTrackExpanded="0" MZ.TrackTargeted="1" PannerCurrentValue="0.5" PannerIsInverted="true" PannerStartKeyframe="-91445760000000000,0.5,0,0,0,0,0,0" PannerName="Balance" currentExplodedTrackIndex="1" totalExplodedTrackCount="2" premiereTrackType="Stereo">
														<enabled>TRUE</enabled>
														<locked>FALSE</locked>
														<outputchannelindex>2</outputchannelindex>
													</track>
												</audio>
											</media>
											<timecode>
												<rate>
													<timebase>30</timebase>
													<ntsc>TRUE</ntsc>
												</rate>
												<string>00;00;00;00</string>
												<frame>0</frame>
												<displayformat>DF</displayformat>
											</timecode>
											<logginginfo>
												<description></description>
												<scene></scene>
												<shottake></shottake>
												<lognote></lognote>
												<good></good>
												<originalvideofilename></originalvideofilename>
												<originalaudiofilename></originalaudiofilename>
											</logginginfo>
										</sequence>
										<labels>
											<label2>Forest</label2>
										</labels>
									</clipitem>
									<enabled>TRUE</enabled>
									<locked>FALSE</locked>
								</track>
								<track TL.SQTrackShy="0" TL.SQTrackExpandedHeight="25" TL.SQTrackExpanded="0" MZ.TrackTargeted="0">
									<clipitem id="clipitem-54">
										<masterclipid>masterclip-20</masterclipid>
										<name>THE STING</name>
										<enabled>TRUE</enabled>
										<duration>5695</duration>
										<rate>
											<timebase>30</timebase>
											<ntsc>TRUE</ntsc>
										</rate>
										<start>0</start>
										<end>2793</end>
										<in>0</in>
										<out>2793</out>
										<pproTicksIn>0</pproTicksIn>
										<pproTicksOut>23672538489600</pproTicksOut>
										<alphatype>straight</alphatype>
										<pixelaspectratio>square</pixelaspectratio>
										<anamorphic>FALSE</anamorphic>
										<file id="file-16">
											<name>CRAFTY_L3RD_01_JL_V03/CRAFTY_L3RD_01_JL_V03.aep</name>
											<pathurl>file://localhost/Volumes/ATM%20JR%202TB/Master%20Assets/CRAFTY_L3RD_01_JL_V03%20folder/CRAFTY_L3RD_01_JL_V03.aep</pathurl>
											<rate>
												<timebase>30</timebase>
												<ntsc>FALSE</ntsc>
											</rate>
											<duration>5701</duration>
											<timecode>
												<rate>
													<timebase>30</timebase>
													<ntsc>FALSE</ntsc>
												</rate>
												<string>00:00:00:00</string>
												<frame>0</frame>
												<displayformat>NDF</displayformat>
											</timecode>
											<media>
												<video>
													<samplecharacteristics>
														<rate>
															<timebase>30</timebase>
															<ntsc>FALSE</ntsc>
														</rate>
														<width>1920</width>
														<height>1080</height>
														<anamorphic>FALSE</anamorphic>
														<pixelaspectratio>square</pixelaspectratio>
														<fielddominance>lower</fielddominance>
													</samplecharacteristics>
												</video>
											</media>
										</file>
										<logginginfo>
											<description></description>
											<scene></scene>
											<shottake></shottake>
											<lognote></lognote>
											<good></good>
											<originalvideofilename></originalvideofilename>
											<originalaudiofilename></originalaudiofilename>
										</logginginfo>
										<colorinfo>
											<lut></lut>
											<lut1></lut1>
											<asc_sop></asc_sop>
											<asc_sat></asc_sat>
											<lut2></lut2>
										</colorinfo>
										<labels>
											<label2>Rose</label2>
										</labels>
									</clipitem>
									<clipitem id="clipitem-55">
										<masterclipid>masterclip-21</masterclipid>
										<name>GRUNGY GLAM</name>
										<enabled>TRUE</enabled>
										<duration>5695</duration>
										<rate>
											<timebase>30</timebase>
											<ntsc>TRUE</ntsc>
										</rate>
										<start>2888</start>
										<end>5562</end>
										<in>0</in>
										<out>2674</out>
										<pproTicksIn>0</pproTicksIn>
										<pproTicksOut>22663934092800</pproTicksOut>
										<alphatype>straight</alphatype>
										<pixelaspectratio>square</pixelaspectratio>
										<anamorphic>FALSE</anamorphic>
										<file id="file-17">
											<name>CRAFTY_L3RD_01_JL_V03/CRAFTY_L3RD_01_JL_V03.aep</name>
											<pathurl>file://localhost/Volumes/ATM%20JR%202TB/Master%20Assets/CRAFTY_L3RD_01_JL_V03%20folder/CRAFTY_L3RD_01_JL_V03.aep</pathurl>
											<rate>
												<timebase>30</timebase>
												<ntsc>FALSE</ntsc>
											</rate>
											<duration>5701</duration>
											<timecode>
												<rate>
													<timebase>30</timebase>
													<ntsc>FALSE</ntsc>
												</rate>
												<string>00:00:00:00</string>
												<frame>0</frame>
												<displayformat>NDF</displayformat>
											</timecode>
											<media>
												<video>
													<samplecharacteristics>
														<rate>
															<timebase>30</timebase>
															<ntsc>FALSE</ntsc>
														</rate>
														<width>1920</width>
														<height>1080</height>
														<anamorphic>FALSE</anamorphic>
														<pixelaspectratio>square</pixelaspectratio>
														<fielddominance>lower</fielddominance>
													</samplecharacteristics>
												</video>
											</media>
										</file>
										<logginginfo>
											<description></description>
											<scene></scene>
											<shottake></shottake>
											<lognote></lognote>
											<good></good>
											<originalvideofilename></originalvideofilename>
											<originalaudiofilename></originalaudiofilename>
										</logginginfo>
										<colorinfo>
											<lut></lut>
											<lut1></lut1>
											<asc_sop></asc_sop>
											<asc_sat></asc_sat>
											<lut2></lut2>
										</colorinfo>
										<labels>
											<label2>Rose</label2>
										</labels>
									</clipitem>
									<enabled>TRUE</enabled>
									<locked>FALSE</locked>
								</track>
								<track TL.SQTrackShy="0" TL.SQTrackExpandedHeight="25" TL.SQTrackExpanded="0" MZ.TrackTargeted="0">
									<clipitem id="clipitem-56">
										<masterclipid>masterclip-9</masterclipid>
										<name>ATM_logo_channels_right-2 (3).png</name>
										<enabled>TRUE</enabled>
										<duration>1294705</duration>
										<rate>
											<timebase>30</timebase>
											<ntsc>TRUE</ntsc>
										</rate>
										<start>0</start>
										<end>5562</end>
										<in>107892</in>
										<out>113454</out>
										<pproTicksIn>914456685542400</pproTicksIn>
										<pproTicksOut>961598346508800</pproTicksOut>
										<alphatype>straight</alphatype>
										<file id="file-7"/>
										<logginginfo>
											<description></description>
											<scene></scene>
											<shottake></shottake>
											<lognote></lognote>
											<good></good>
											<originalvideofilename></originalvideofilename>
											<originalaudiofilename></originalaudiofilename>
										</logginginfo>
										<colorinfo>
											<lut></lut>
											<lut1></lut1>
											<asc_sop></asc_sop>
											<asc_sat></asc_sat>
											<lut2></lut2>
										</colorinfo>
										<labels>
											<label2>Lavender</label2>
										</labels>
									</clipitem>
									<enabled>TRUE</enabled>
									<locked>FALSE</locked>
								</track>
								<track TL.SQTrackShy="0" TL.SQTrackExpandedHeight="25" TL.SQTrackExpanded="0" MZ.TrackTargeted="0">
									<clipitem id="clipitem-57">
										<masterclipid>masterclip-22</masterclipid>
										<name>CRAFTY_TRAN03_JL_V01.mov</name>
										<enabled>TRUE</enabled>
										<duration>120</duration>
										<rate>
											<timebase>30</timebase>
											<ntsc>TRUE</ntsc>
										</rate>
										<start>2768</start>
										<end>2888</end>
										<in>0</in>
										<out>120</out>
										<pproTicksIn>0</pproTicksIn>
										<pproTicksOut>1017080064000</pproTicksOut>
										<alphatype>none</alphatype>
										<pixelaspectratio>square</pixelaspectratio>
										<anamorphic>FALSE</anamorphic>
										<file id="file-18">
											<name>CRAFTY_TRAN03_JL_V01.mov</name>
											<pathurl>file://localhost/Volumes/ATM%20JR%202TB/Master%20Assets/CRAFTY_TRAN03_JL_V01.mov</pathurl>
											<rate>
												<timebase>30</timebase>
												<ntsc>FALSE</ntsc>
											</rate>
											<duration>121</duration>
											<timecode>
												<rate>
													<timebase>30</timebase>
													<ntsc>FALSE</ntsc>
												</rate>
												<string>00:00:00:00</string>
												<frame>0</frame>
												<displayformat>NDF</displayformat>
											</timecode>
											<media>
												<video>
													<samplecharacteristics>
														<rate>
															<timebase>30</timebase>
															<ntsc>FALSE</ntsc>
														</rate>
														<width>1920</width>
														<height>1080</height>
														<anamorphic>FALSE</anamorphic>
														<pixelaspectratio>square</pixelaspectratio>
														<fielddominance>none</fielddominance>
													</samplecharacteristics>
												</video>
												<audio>
													<samplecharacteristics>
														<depth>16</depth>
														<samplerate>48000</samplerate>
													</samplecharacteristics>
													<channelcount>2</channelcount>
												</audio>
											</media>
										</file>
										<link>
											<linkclipref>clipitem-57</linkclipref>
											<mediatype>video</mediatype>
											<trackindex>4</trackindex>
											<clipindex>1</clipindex>
										</link>
										<link>
											<linkclipref>clipitem-59</linkclipref>
											<mediatype>audio</mediatype>
											<trackindex>1</trackindex>
											<clipindex>1</clipindex>
											<groupindex>1</groupindex>
										</link>
										<link>
											<linkclipref>clipitem-61</linkclipref>
											<mediatype>audio</mediatype>
											<trackindex>2</trackindex>
											<clipindex>1</clipindex>
											<groupindex>1</groupindex>
										</link>
										<logginginfo>
											<description></description>
											<scene></scene>
											<shottake></shottake>
											<lognote></lognote>
											<good></good>
											<originalvideofilename></originalvideofilename>
											<originalaudiofilename></originalaudiofilename>
										</logginginfo>
										<colorinfo>
											<lut></lut>
											<lut1></lut1>
											<asc_sop></asc_sop>
											<asc_sat></asc_sat>
											<lut2></lut2>
										</colorinfo>
										<labels>
											<label2>Iris</label2>
										</labels>
									</clipitem>
									<clipitem id="clipitem-58">
										<masterclipid>masterclip-10</masterclipid>
										<name>CRAFTY_TRAN01_JL_V01.mov</name>
										<enabled>TRUE</enabled>
										<duration>120</duration>
										<rate>
											<timebase>30</timebase>
											<ntsc>TRUE</ntsc>
										</rate>
										<start>5551</start>
										<end>5671</end>
										<in>0</in>
										<out>120</out>
										<pproTicksIn>0</pproTicksIn>
										<pproTicksOut>1017080064000</pproTicksOut>
										<alphatype>none</alphatype>
										<file id="file-8"/>
										<link>
											<linkclipref>clipitem-58</linkclipref>
											<mediatype>video</mediatype>
											<trackindex>4</trackindex>
											<clipindex>2</clipindex>
										</link>
										<link>
											<linkclipref>clipitem-60</linkclipref>
											<mediatype>audio</mediatype>
											<trackindex>1</trackindex>
											<clipindex>2</clipindex>
											<groupindex>1</groupindex>
										</link>
										<link>
											<linkclipref>clipitem-62</linkclipref>
											<mediatype>audio</mediatype>
											<trackindex>2</trackindex>
											<clipindex>2</clipindex>
											<groupindex>1</groupindex>
										</link>
										<logginginfo>
											<description></description>
											<scene></scene>
											<shottake></shottake>
											<lognote></lognote>
											<good></good>
											<originalvideofilename></originalvideofilename>
											<originalaudiofilename></originalaudiofilename>
										</logginginfo>
										<colorinfo>
											<lut></lut>
											<lut1></lut1>
											<asc_sop></asc_sop>
											<asc_sat></asc_sat>
											<lut2></lut2>
										</colorinfo>
										<labels>
											<label2>Iris</label2>
										</labels>
									</clipitem>
									<enabled>TRUE</enabled>
									<locked>FALSE</locked>
								</track>
							</video>
							<audio>
								<numOutputChannels>2</numOutputChannels>
								<format>
									<samplecharacteristics>
										<depth>16</depth>
										<samplerate>48000</samplerate>
									</samplecharacteristics>
								</format>
								<outputs>
									<group>
										<index>1</index>
										<numchannels>1</numchannels>
										<downmix>0</downmix>
										<channel>
											<index>1</index>
										</channel>
									</group>
									<group>
										<index>2</index>
										<numchannels>1</numchannels>
										<downmix>0</downmix>
										<channel>
											<index>2</index>
										</channel>
									</group>
								</outputs>
								<track TL.SQTrackAudioKeyframeStyle="0" TL.SQTrackShy="0" TL.SQTrackExpandedHeight="25" TL.SQTrackExpanded="0" MZ.TrackTargeted="1" PannerCurrentValue="0.5" PannerIsInverted="true" PannerStartKeyframe="-91445760000000000,0.5,0,0,0,0,0,0" PannerName="Balance" currentExplodedTrackIndex="0" totalExplodedTrackCount="2" premiereTrackType="Stereo">
									<clipitem id="clipitem-59" premiereChannelType="stereo">
										<masterclipid>masterclip-22</masterclipid>
										<name>CRAFTY_TRAN03_JL_V01.mov</name>
										<enabled>TRUE</enabled>
										<duration>120</duration>
										<rate>
											<timebase>30</timebase>
											<ntsc>TRUE</ntsc>
										</rate>
										<start>2768</start>
										<end>2888</end>
										<in>0</in>
										<out>120</out>
										<pproTicksIn>0</pproTicksIn>
										<pproTicksOut>1017080064000</pproTicksOut>
										<file id="file-18"/>
										<sourcetrack>
											<mediatype>audio</mediatype>
											<trackindex>1</trackindex>
										</sourcetrack>
										<link>
											<linkclipref>clipitem-57</linkclipref>
											<mediatype>video</mediatype>
											<trackindex>4</trackindex>
											<clipindex>1</clipindex>
										</link>
										<link>
											<linkclipref>clipitem-59</linkclipref>
											<mediatype>audio</mediatype>
											<trackindex>1</trackindex>
											<clipindex>1</clipindex>
											<groupindex>1</groupindex>
										</link>
										<link>
											<linkclipref>clipitem-61</linkclipref>
											<mediatype>audio</mediatype>
											<trackindex>2</trackindex>
											<clipindex>1</clipindex>
											<groupindex>1</groupindex>
										</link>
										<logginginfo>
											<description></description>
											<scene></scene>
											<shottake></shottake>
											<lognote></lognote>
											<good></good>
											<originalvideofilename></originalvideofilename>
											<originalaudiofilename></originalaudiofilename>
										</logginginfo>
										<colorinfo>
											<lut></lut>
											<lut1></lut1>
											<asc_sop></asc_sop>
											<asc_sat></asc_sat>
											<lut2></lut2>
										</colorinfo>
										<labels>
											<label2>Iris</label2>
										</labels>
									</clipitem>
									<clipitem id="clipitem-60" premiereChannelType="stereo">
										<masterclipid>masterclip-10</masterclipid>
										<name>CRAFTY_TRAN01_JL_V01.mov</name>
										<enabled>TRUE</enabled>
										<duration>120</duration>
										<rate>
											<timebase>30</timebase>
											<ntsc>TRUE</ntsc>
										</rate>
										<start>5551</start>
										<end>5671</end>
										<in>0</in>
										<out>120</out>
										<pproTicksIn>0</pproTicksIn>
										<pproTicksOut>1017080064000</pproTicksOut>
										<file id="file-8"/>
										<sourcetrack>
											<mediatype>audio</mediatype>
											<trackindex>1</trackindex>
										</sourcetrack>
										<link>
											<linkclipref>clipitem-58</linkclipref>
											<mediatype>video</mediatype>
											<trackindex>4</trackindex>
											<clipindex>2</clipindex>
										</link>
										<link>
											<linkclipref>clipitem-60</linkclipref>
											<mediatype>audio</mediatype>
											<trackindex>1</trackindex>
											<clipindex>2</clipindex>
											<groupindex>1</groupindex>
										</link>
										<link>
											<linkclipref>clipitem-62</linkclipref>
											<mediatype>audio</mediatype>
											<trackindex>2</trackindex>
											<clipindex>2</clipindex>
											<groupindex>1</groupindex>
										</link>
										<logginginfo>
											<description></description>
											<scene></scene>
											<shottake></shottake>
											<lognote></lognote>
											<good></good>
											<originalvideofilename></originalvideofilename>
											<originalaudiofilename></originalaudiofilename>
										</logginginfo>
										<colorinfo>
											<lut></lut>
											<lut1></lut1>
											<asc_sop></asc_sop>
											<asc_sat></asc_sat>
											<lut2></lut2>
										</colorinfo>
										<labels>
											<label2>Iris</label2>
										</labels>
									</clipitem>
									<enabled>TRUE</enabled>
									<locked>FALSE</locked>
									<outputchannelindex>1</outputchannelindex>
								</track>
								<track TL.SQTrackAudioKeyframeStyle="0" TL.SQTrackShy="0" TL.SQTrackExpandedHeight="25" TL.SQTrackExpanded="0" MZ.TrackTargeted="1" PannerCurrentValue="0.5" PannerIsInverted="true" PannerStartKeyframe="-91445760000000000,0.5,0,0,0,0,0,0" PannerName="Balance" currentExplodedTrackIndex="1" totalExplodedTrackCount="2" premiereTrackType="Stereo">
									<clipitem id="clipitem-61" premiereChannelType="stereo">
										<masterclipid>masterclip-22</masterclipid>
										<name>CRAFTY_TRAN03_JL_V01.mov</name>
										<enabled>TRUE</enabled>
										<duration>120</duration>
										<rate>
											<timebase>30</timebase>
											<ntsc>TRUE</ntsc>
										</rate>
										<start>2768</start>
										<end>2888</end>
										<in>0</in>
										<out>120</out>
										<pproTicksIn>0</pproTicksIn>
										<pproTicksOut>1017080064000</pproTicksOut>
										<file id="file-18"/>
										<sourcetrack>
											<mediatype>audio</mediatype>
											<trackindex>2</trackindex>
										</sourcetrack>
										<link>
											<linkclipref>clipitem-57</linkclipref>
											<mediatype>video</mediatype>
											<trackindex>4</trackindex>
											<clipindex>1</clipindex>
										</link>
										<link>
											<linkclipref>clipitem-59</linkclipref>
											<mediatype>audio</mediatype>
											<trackindex>1</trackindex>
											<clipindex>1</clipindex>
											<groupindex>1</groupindex>
										</link>
										<link>
											<linkclipref>clipitem-61</linkclipref>
											<mediatype>audio</mediatype>
											<trackindex>2</trackindex>
											<clipindex>1</clipindex>
											<groupindex>1</groupindex>
										</link>
										<logginginfo>
											<description></description>
											<scene></scene>
											<shottake></shottake>
											<lognote></lognote>
											<good></good>
											<originalvideofilename></originalvideofilename>
											<originalaudiofilename></originalaudiofilename>
										</logginginfo>
										<colorinfo>
											<lut></lut>
											<lut1></lut1>
											<asc_sop></asc_sop>
											<asc_sat></asc_sat>
											<lut2></lut2>
										</colorinfo>
										<labels>
											<label2>Iris</label2>
										</labels>
									</clipitem>
									<clipitem id="clipitem-62" premiereChannelType="stereo">
										<masterclipid>masterclip-10</masterclipid>
										<name>CRAFTY_TRAN01_JL_V01.mov</name>
										<enabled>TRUE</enabled>
										<duration>120</duration>
										<rate>
											<timebase>30</timebase>
											<ntsc>TRUE</ntsc>
										</rate>
										<start>5551</start>
										<end>5671</end>
										<in>0</in>
										<out>120</out>
										<pproTicksIn>0</pproTicksIn>
										<pproTicksOut>1017080064000</pproTicksOut>
										<file id="file-8"/>
										<sourcetrack>
											<mediatype>audio</mediatype>
											<trackindex>2</trackindex>
										</sourcetrack>
										<link>
											<linkclipref>clipitem-58</linkclipref>
											<mediatype>video</mediatype>
											<trackindex>4</trackindex>
											<clipindex>2</clipindex>
										</link>
										<link>
											<linkclipref>clipitem-60</linkclipref>
											<mediatype>audio</mediatype>
											<trackindex>1</trackindex>
											<clipindex>2</clipindex>
											<groupindex>1</groupindex>
										</link>
										<link>
											<linkclipref>clipitem-62</linkclipref>
											<mediatype>audio</mediatype>
											<trackindex>2</trackindex>
											<clipindex>2</clipindex>
											<groupindex>1</groupindex>
										</link>
										<logginginfo>
											<description></description>
											<scene></scene>
											<shottake></shottake>
											<lognote></lognote>
											<good></good>
											<originalvideofilename></originalvideofilename>
											<originalaudiofilename></originalaudiofilename>
										</logginginfo>
										<colorinfo>
											<lut></lut>
											<lut1></lut1>
											<asc_sop></asc_sop>
											<asc_sat></asc_sat>
											<lut2></lut2>
										</colorinfo>
										<labels>
											<label2>Iris</label2>
										</labels>
									</clipitem>
									<enabled>TRUE</enabled>
									<locked>FALSE</locked>
									<outputchannelindex>2</outputchannelindex>
								</track>
								<track TL.SQTrackAudioKeyframeStyle="0" TL.SQTrackShy="0" TL.SQTrackExpandedHeight="25" TL.SQTrackExpanded="0" MZ.TrackTargeted="1" PannerCurrentValue="0.5" PannerIsInverted="true" PannerStartKeyframe="-91445760000000000,0.5,0,0,0,0,0,0" PannerName="Balance" currentExplodedTrackIndex="0" totalExplodedTrackCount="2" premiereTrackType="Stereo">
									<clipitem id="clipitem-63" premiereChannelType="stereo">
										<masterclipid>masterclip-23</masterclipid>
										<name>ES_Coasting - Gregory David.wav</name>
										<enabled>TRUE</enabled>
										<duration>5194</duration>
										<rate>
											<timebase>30</timebase>
											<ntsc>TRUE</ntsc>
										</rate>
										<start>0</start>
										<end>-1</end>
										<in>0</in>
										<out>2768</out>
										<pproTicksIn>0</pproTicksIn>
										<pproTicksOut>23460646809600</pproTicksOut>
										<file id="file-19">
											<name>ES_Coasting - Gregory David.wav</name>
											<pathurl>file://localhost/Volumes/CONTENT/VOD%20CONTENT%20ARCHIVE/O&amp;O%20Archive%202023/CRAFTY/03_March/Crafty_3-20-2023/5_Music/ES_Coasting%20-%20Gregory%20David.wav</pathurl>
											<rate>
												<timebase>30</timebase>
												<ntsc>TRUE</ntsc>
											</rate>
											<duration>5194</duration>
											<timecode>
												<rate>
													<timebase>30</timebase>
													<ntsc>TRUE</ntsc>
												</rate>
												<string>03;26;34;00</string>
												<frame>371448</frame>
												<displayformat>DF</displayformat>
											</timecode>
											<media>
												<audio>
													<samplecharacteristics>
														<depth>16</depth>
														<samplerate>48000</samplerate>
													</samplecharacteristics>
													<channelcount>2</channelcount>
												</audio>
											</media>
										</file>
										<sourcetrack>
											<mediatype>audio</mediatype>
											<trackindex>1</trackindex>
										</sourcetrack>
										<filter>
											<effect>
												<name>Gain</name>
												<effectid>{61756678, 4761696e, 4b657947}</effectid>
												<effecttype>filter</effecttype>
												<mediatype>audio</mediatype>
												<parameter authoringApp="PremierePro">
													<parameterid>Gain(dB)</parameterid>
													<name>Gain(dB)</name>
													<valuemin>-96</valuemin>
													<valuemax>96</valuemax>
													<value>-6</value>
												</parameter>
											</effect>
										</filter>
										<link>
											<linkclipref>clipitem-63</linkclipref>
											<mediatype>audio</mediatype>
											<trackindex>3</trackindex>
											<clipindex>1</clipindex>
											<groupindex>1</groupindex>
										</link>
										<link>
											<linkclipref>clipitem-65</linkclipref>
											<mediatype>audio</mediatype>
											<trackindex>4</trackindex>
											<clipindex>1</clipindex>
											<groupindex>1</groupindex>
										</link>
										<logginginfo>
											<description></description>
											<scene></scene>
											<shottake></shottake>
											<lognote></lognote>
											<good></good>
											<originalvideofilename></originalvideofilename>
											<originalaudiofilename></originalaudiofilename>
										</logginginfo>
										<colorinfo>
											<lut></lut>
											<lut1></lut1>
											<asc_sop></asc_sop>
											<asc_sat></asc_sat>
											<lut2></lut2>
										</colorinfo>
										<labels>
											<label2>Caribbean</label2>
										</labels>
									</clipitem>
									<transitionitem>
										<start>2649</start>
										<end>2768</end>
										<pproTicksIn>22443567804000</pproTicksIn>
										<pproTicksOut>23460646809600</pproTicksOut>
										<alignment>end-black</alignment>
										<cutPointTicks>1017079005600</cutPointTicks>
										<rate>
											<timebase>30</timebase>
											<ntsc>TRUE</ntsc>
										</rate>
										<effect>
											<name>Cross Fade (+3dB)</name>
											<effectid>KGAudioTransCrossFade3dB</effectid>
											<effecttype>transition</effecttype>
											<mediatype>audio</mediatype>
											<wipecode>0</wipecode>
											<wipeaccuracy>100</wipeaccuracy>
											<startratio>0</startratio>
											<endratio>1</endratio>
											<reverse>FALSE</reverse>
										</effect>
									</transitionitem>
									<clipitem id="clipitem-64" premiereChannelType="stereo">
										<masterclipid>masterclip-24</masterclipid>
										<name>ES_Daydreaming About You While Drinking a Cup of Tea - baegel.wav</name>
										<enabled>TRUE</enabled>
										<duration>3711</duration>
										<rate>
											<timebase>30</timebase>
											<ntsc>TRUE</ntsc>
										</rate>
										<start>2888</start>
										<end>-1</end>
										<in>0</in>
										<out>2663</out>
										<pproTicksIn>0</pproTicksIn>
										<pproTicksOut>22570701753600</pproTicksOut>
										<file id="file-20">
											<name>ES_Daydreaming About You While Drinking a Cup of Tea - baegel.wav</name>
											<pathurl>file://localhost/Volumes/CONTENT/VOD%20CONTENT%20ARCHIVE/O&amp;O%20Archive%202023/CRAFTY/03_March/Crafty_3-20-2023/5_Music/ES_Daydreaming%20About%20You%20While%20Drinking%20a%20Cup%20of%20Tea%20-%20baegel.wav</pathurl>
											<rate>
												<timebase>30</timebase>
												<ntsc>TRUE</ntsc>
											</rate>
											<duration>3711</duration>
											<timecode>
												<rate>
													<timebase>30</timebase>
													<ntsc>TRUE</ntsc>
												</rate>
												<string>12;42;30;05</string>
												<frame>1371133</frame>
												<displayformat>DF</displayformat>
											</timecode>
											<media>
												<audio>
													<samplecharacteristics>
														<depth>16</depth>
														<samplerate>48000</samplerate>
													</samplecharacteristics>
													<channelcount>2</channelcount>
												</audio>
											</media>
										</file>
										<sourcetrack>
											<mediatype>audio</mediatype>
											<trackindex>1</trackindex>
										</sourcetrack>
										<filter>
											<effect>
												<name>Gain</name>
												<effectid>{61756678, 4761696e, 4b657947}</effectid>
												<effecttype>filter</effecttype>
												<mediatype>audio</mediatype>
												<parameter authoringApp="PremierePro">
													<parameterid>Gain(dB)</parameterid>
													<name>Gain(dB)</name>
													<valuemin>-96</valuemin>
													<valuemax>96</valuemax>
													<value>-6</value>
												</parameter>
											</effect>
										</filter>
										<link>
											<linkclipref>clipitem-64</linkclipref>
											<mediatype>audio</mediatype>
											<trackindex>3</trackindex>
											<clipindex>3</clipindex>
											<groupindex>1</groupindex>
										</link>
										<link>
											<linkclipref>clipitem-66</linkclipref>
											<mediatype>audio</mediatype>
											<trackindex>4</trackindex>
											<clipindex>3</clipindex>
											<groupindex>1</groupindex>
										</link>
										<logginginfo>
											<description></description>
											<scene></scene>
											<shottake></shottake>
											<lognote></lognote>
											<good></good>
											<originalvideofilename></originalvideofilename>
											<originalaudiofilename></originalaudiofilename>
										</logginginfo>
										<colorinfo>
											<lut></lut>
											<lut1></lut1>
											<asc_sop></asc_sop>
											<asc_sat></asc_sat>
											<lut2></lut2>
										</colorinfo>
										<labels>
											<label2>Caribbean</label2>
										</labels>
									</clipitem>
									<transitionitem>
										<start>5432</start>
										<end>5551</end>
										<pproTicksIn>46031350680000</pproTicksIn>
										<pproTicksOut>47048428627200</pproTicksOut>
										<alignment>end-black</alignment>
										<cutPointTicks>1017077947200</cutPointTicks>
										<rate>
											<timebase>30</timebase>
											<ntsc>TRUE</ntsc>
										</rate>
										<effect>
											<name>Cross Fade (+3dB)</name>
											<effectid>KGAudioTransCrossFade3dB</effectid>
											<effecttype>transition</effecttype>
											<mediatype>audio</mediatype>
											<wipecode>0</wipecode>
											<wipeaccuracy>100</wipeaccuracy>
											<startratio>0</startratio>
											<endratio>1</endratio>
											<reverse>FALSE</reverse>
										</effect>
									</transitionitem>
									<enabled>TRUE</enabled>
									<locked>FALSE</locked>
									<outputchannelindex>1</outputchannelindex>
								</track>
								<track TL.SQTrackAudioKeyframeStyle="0" TL.SQTrackShy="0" TL.SQTrackExpandedHeight="25" TL.SQTrackExpanded="0" MZ.TrackTargeted="1" PannerCurrentValue="0.5" PannerIsInverted="true" PannerStartKeyframe="-91445760000000000,0.5,0,0,0,0,0,0" PannerName="Balance" currentExplodedTrackIndex="1" totalExplodedTrackCount="2" premiereTrackType="Stereo">
									<clipitem id="clipitem-65" premiereChannelType="stereo">
										<masterclipid>masterclip-23</masterclipid>
										<name>ES_Coasting - Gregory David.wav</name>
										<enabled>TRUE</enabled>
										<duration>5194</duration>
										<rate>
											<timebase>30</timebase>
											<ntsc>TRUE</ntsc>
										</rate>
										<start>0</start>
										<end>-1</end>
										<in>0</in>
										<out>2768</out>
										<pproTicksIn>0</pproTicksIn>
										<pproTicksOut>23460646809600</pproTicksOut>
										<file id="file-19"/>
										<sourcetrack>
											<mediatype>audio</mediatype>
											<trackindex>2</trackindex>
										</sourcetrack>
										<filter>
											<effect>
												<name>Gain</name>
												<effectid>{61756678, 4761696e, 4b657947}</effectid>
												<effecttype>filter</effecttype>
												<mediatype>audio</mediatype>
												<parameter authoringApp="PremierePro">
													<parameterid>Gain(dB)</parameterid>
													<name>Gain(dB)</name>
													<valuemin>-96</valuemin>
													<valuemax>96</valuemax>
													<value>-6</value>
												</parameter>
											</effect>
										</filter>
										<link>
											<linkclipref>clipitem-63</linkclipref>
											<mediatype>audio</mediatype>
											<trackindex>3</trackindex>
											<clipindex>1</clipindex>
											<groupindex>1</groupindex>
										</link>
										<link>
											<linkclipref>clipitem-65</linkclipref>
											<mediatype>audio</mediatype>
											<trackindex>4</trackindex>
											<clipindex>1</clipindex>
											<groupindex>1</groupindex>
										</link>
										<logginginfo>
											<description></description>
											<scene></scene>
											<shottake></shottake>
											<lognote></lognote>
											<good></good>
											<originalvideofilename></originalvideofilename>
											<originalaudiofilename></originalaudiofilename>
										</logginginfo>
										<colorinfo>
											<lut></lut>
											<lut1></lut1>
											<asc_sop></asc_sop>
											<asc_sat></asc_sat>
											<lut2></lut2>
										</colorinfo>
										<labels>
											<label2>Caribbean</label2>
										</labels>
									</clipitem>
									<transitionitem>
										<start>2649</start>
										<end>2768</end>
										<pproTicksIn>22443567804000</pproTicksIn>
										<pproTicksOut>23460646809600</pproTicksOut>
										<alignment>end-black</alignment>
										<cutPointTicks>1017079005600</cutPointTicks>
										<rate>
											<timebase>30</timebase>
											<ntsc>TRUE</ntsc>
										</rate>
										<effect>
											<name>Cross Fade (+3dB)</name>
											<effectid>KGAudioTransCrossFade3dB</effectid>
											<effecttype>transition</effecttype>
											<mediatype>audio</mediatype>
											<wipecode>0</wipecode>
											<wipeaccuracy>100</wipeaccuracy>
											<startratio>0</startratio>
											<endratio>1</endratio>
											<reverse>FALSE</reverse>
										</effect>
									</transitionitem>
									<clipitem id="clipitem-66" premiereChannelType="stereo">
										<masterclipid>masterclip-24</masterclipid>
										<name>ES_Daydreaming About You While Drinking a Cup of Tea - baegel.wav</name>
										<enabled>TRUE</enabled>
										<duration>3711</duration>
										<rate>
											<timebase>30</timebase>
											<ntsc>TRUE</ntsc>
										</rate>
										<start>2888</start>
										<end>-1</end>
										<in>0</in>
										<out>2663</out>
										<pproTicksIn>0</pproTicksIn>
										<pproTicksOut>22570701753600</pproTicksOut>
										<file id="file-20"/>
										<sourcetrack>
											<mediatype>audio</mediatype>
											<trackindex>2</trackindex>
										</sourcetrack>
										<filter>
											<effect>
												<name>Gain</name>
												<effectid>{61756678, 4761696e, 4b657947}</effectid>
												<effecttype>filter</effecttype>
												<mediatype>audio</mediatype>
												<parameter authoringApp="PremierePro">
													<parameterid>Gain(dB)</parameterid>
													<name>Gain(dB)</name>
													<valuemin>-96</valuemin>
													<valuemax>96</valuemax>
													<value>-6</value>
												</parameter>
											</effect>
										</filter>
										<link>
											<linkclipref>clipitem-64</linkclipref>
											<mediatype>audio</mediatype>
											<trackindex>3</trackindex>
											<clipindex>3</clipindex>
											<groupindex>1</groupindex>
										</link>
										<link>
											<linkclipref>clipitem-66</linkclipref>
											<mediatype>audio</mediatype>
											<trackindex>4</trackindex>
											<clipindex>3</clipindex>
											<groupindex>1</groupindex>
										</link>
										<logginginfo>
											<description></description>
											<scene></scene>
											<shottake></shottake>
											<lognote></lognote>
											<good></good>
											<originalvideofilename></originalvideofilename>
											<originalaudiofilename></originalaudiofilename>
										</logginginfo>
										<colorinfo>
											<lut></lut>
											<lut1></lut1>
											<asc_sop></asc_sop>
											<asc_sat></asc_sat>
											<lut2></lut2>
										</colorinfo>
										<labels>
											<label2>Caribbean</label2>
										</labels>
									</clipitem>
									<transitionitem>
										<start>5432</start>
										<end>5551</end>
										<pproTicksIn>46031350680000</pproTicksIn>
										<pproTicksOut>47048428627200</pproTicksOut>
										<alignment>end-black</alignment>
										<cutPointTicks>1017077947200</cutPointTicks>
										<rate>
											<timebase>30</timebase>
											<ntsc>TRUE</ntsc>
										</rate>
										<effect>
											<name>Cross Fade (+3dB)</name>
											<effectid>KGAudioTransCrossFade3dB</effectid>
											<effecttype>transition</effecttype>
											<mediatype>audio</mediatype>
											<wipecode>0</wipecode>
											<wipeaccuracy>100</wipeaccuracy>
											<startratio>0</startratio>
											<endratio>1</endratio>
											<reverse>FALSE</reverse>
										</effect>
									</transitionitem>
									<enabled>TRUE</enabled>
									<locked>FALSE</locked>
									<outputchannelindex>2</outputchannelindex>
								</track>
								<track TL.SQTrackAudioKeyframeStyle="0" TL.SQTrackShy="0" TL.SQTrackExpandedHeight="25" TL.SQTrackExpanded="0" MZ.TrackTargeted="1" PannerCurrentValue="0.5" PannerIsInverted="true" PannerStartKeyframe="-91445760000000000,0.5,0,0,0,0,0,0" PannerName="Balance" currentExplodedTrackIndex="0" totalExplodedTrackCount="2" premiereTrackType="Stereo">
									<enabled>TRUE</enabled>
									<locked>FALSE</locked>
									<outputchannelindex>1</outputchannelindex>
								</track>
								<track TL.SQTrackAudioKeyframeStyle="0" TL.SQTrackShy="0" TL.SQTrackExpandedHeight="25" TL.SQTrackExpanded="0" MZ.TrackTargeted="1" PannerCurrentValue="0.5" PannerIsInverted="true" PannerStartKeyframe="-91445760000000000,0.5,0,0,0,0,0,0" PannerName="Balance" currentExplodedTrackIndex="1" totalExplodedTrackCount="2" premiereTrackType="Stereo">
									<enabled>TRUE</enabled>
									<locked>FALSE</locked>
									<outputchannelindex>2</outputchannelindex>
								</track>
								<track TL.SQTrackAudioKeyframeStyle="0" TL.SQTrackShy="0" TL.SQTrackExpandedHeight="25" TL.SQTrackExpanded="0" MZ.TrackTargeted="0" PannerCurrentValue="0.5" PannerIsInverted="true" PannerStartKeyframe="-91445760000000000,0.5,0,0,0,0,0,0" PannerName="Balance" currentExplodedTrackIndex="0" totalExplodedTrackCount="2" premiereTrackType="Stereo">
									<enabled>TRUE</enabled>
									<locked>FALSE</locked>
									<outputchannelindex>1</outputchannelindex>
								</track>
								<track TL.SQTrackAudioKeyframeStyle="0" TL.SQTrackShy="0" TL.SQTrackExpandedHeight="25" TL.SQTrackExpanded="0" MZ.TrackTargeted="0" PannerCurrentValue="0.5" PannerIsInverted="true" PannerStartKeyframe="-91445760000000000,0.5,0,0,0,0,0,0" PannerName="Balance" currentExplodedTrackIndex="1" totalExplodedTrackCount="2" premiereTrackType="Stereo">
									<enabled>TRUE</enabled>
									<locked>FALSE</locked>
									<outputchannelindex>2</outputchannelindex>
								</track>
							</audio>
						</media>
						<timecode>
							<rate>
								<timebase>30</timebase>
								<ntsc>TRUE</ntsc>
							</rate>
							<string>00;00;00;00</string>
							<frame>0</frame>
							<displayformat>DF</displayformat>
						</timecode>
						<labels>
							<label2>Forest</label2>
						</labels>
						<logginginfo>
							<description></description>
							<scene></scene>
							<shottake></shottake>
							<lognote></lognote>
							<good></good>
							<originalvideofilename></originalvideofilename>
							<originalaudiofilename></originalaudiofilename>
						</logginginfo>
					</sequence>
					<sequence id="sequence-7" TL.SQAudioVisibleBase="0" TL.SQVideoVisibleBase="0" TL.SQVisibleBaseTime="44372636364236" TL.SQAVDividerPosition="0.5" TL.SQHideShyTracks="0" TL.SQHeaderWidth="236" TL.SQDataTrackViewControlState="0" Monitor.ProgramZoomOut="47531541657600" Monitor.ProgramZoomIn="0" TL.SQTimePerPixel="0.04950070483290283" MZ.EditLine="8128164844800" MZ.Sequence.PreviewFrameSizeHeight="1080" MZ.Sequence.PreviewFrameSizeWidth="1920" MZ.Sequence.AudioTimeDisplayFormat="200" MZ.Sequence.PreviewRenderingClassID="1061109567" MZ.Sequence.PreviewRenderingPresetCodec="1634755443" MZ.Sequence.PreviewRenderingPresetPath="EncoderPresets/SequencePreview/35d109db-457b-43c1-9452-9cb7be9f121c/QuickTime.epr" MZ.Sequence.PreviewUseMaxRenderQuality="false" MZ.Sequence.PreviewUseMaxBitDepth="false" MZ.Sequence.EditingModeGUID="35d109db-457b-43c1-9452-9cb7be9f121c" MZ.Sequence.VideoTimeDisplayFormat="102" MZ.WorkOutPoint="331118890502400" MZ.WorkInPoint="132330591993600" explodedTracks="true">
						<uuid>edbef179-6574-4245-b6d8-3961a589ac62</uuid>
						<duration>5608</duration>
						<rate>
							<timebase>30</timebase>
							<ntsc>TRUE</ntsc>
						</rate>
						<name>ATM_CRAFTY_183</name>
						<media>
							<video>
								<format>
									<samplecharacteristics>
										<rate>
											<timebase>30</timebase>
											<ntsc>TRUE</ntsc>
										</rate>
										<codec>
											<name>Apple ProRes 422</name>
											<appspecificdata>
												<appname>Final Cut Pro</appname>
												<appmanufacturer>Apple Inc.</appmanufacturer>
												<appversion>7.0</appversion>
												<data>
													<qtcodec>
														<codecname>Apple ProRes 422</codecname>
														<codectypename>Apple ProRes 422</codectypename>
														<codectypecode>apcn</codectypecode>
														<codecvendorcode>appl</codecvendorcode>
														<spatialquality>1024</spatialquality>
														<temporalquality>0</temporalquality>
														<keyframerate>0</keyframerate>
														<datarate>0</datarate>
													</qtcodec>
												</data>
											</appspecificdata>
										</codec>
										<width>1920</width>
										<height>1080</height>
										<anamorphic>FALSE</anamorphic>
										<pixelaspectratio>square</pixelaspectratio>
										<fielddominance>none</fielddominance>
										<colordepth>24</colordepth>
									</samplecharacteristics>
								</format>
								<track TL.SQTrackShy="0" TL.SQTrackExpandedHeight="25" TL.SQTrackExpanded="0" MZ.TrackTargeted="1">
									<clipitem id="clipitem-67">
										<masterclipid>masterclip-25</masterclipid>
										<name>DIY_DIYSELFWATERINGGARDENBED_2.5</name>
										<enabled>TRUE</enabled>
										<duration>4292</duration>
										<rate>
											<timebase>30</timebase>
											<ntsc>TRUE</ntsc>
										</rate>
										<start>0</start>
										<end>4292</end>
										<in>0</in>
										<out>4292</out>
										<pproTicksIn>0</pproTicksIn>
										<pproTicksOut>36377563622400</pproTicksOut>
										<sequence id="sequence-8" TL.SQAudioVisibleBase="0" TL.SQVideoVisibleBase="0" TL.SQVisibleBaseTime="0" TL.SQAVDividerPosition="0.5" TL.SQHideShyTracks="0" TL.SQHeaderWidth="236" TL.SQDataTrackViewControlState="0" Monitor.ProgramZoomOut="36377563622400" Monitor.ProgramZoomIn="0" TL.SQTimePerPixel="0.12669229099492335" MZ.EditLine="12620268460800" MZ.Sequence.PreviewFrameSizeHeight="1080" MZ.Sequence.PreviewFrameSizeWidth="1920" MZ.Sequence.AudioTimeDisplayFormat="200" MZ.Sequence.PreviewRenderingClassID="1061109567" MZ.Sequence.PreviewRenderingPresetCodec="1634755443" MZ.Sequence.PreviewRenderingPresetPath="EncoderPresets/SequencePreview/35d109db-457b-43c1-9452-9cb7be9f121c/QuickTime.epr" MZ.Sequence.PreviewUseMaxRenderQuality="false" MZ.Sequence.PreviewUseMaxBitDepth="false" MZ.Sequence.EditingModeGUID="35d109db-457b-43c1-9452-9cb7be9f121c" MZ.Sequence.VideoTimeDisplayFormat="102" MZ.WorkOutPoint="36377563622400" MZ.WorkInPoint="0">
											<duration>4292</duration>
											<rate>
												<timebase>30</timebase>
												<ntsc>TRUE</ntsc>
											</rate>
											<name>DIY_DIYSELFWATERINGGARDENBED_2.5</name>
											<media>
												<video>
													<format>
														<samplecharacteristics>
															<rate>
																<timebase>30</timebase>
																<ntsc>TRUE</ntsc>
															</rate>
															<codec>
																<name>Apple ProRes 422</name>
																<appspecificdata>
																	<appname>Final Cut Pro</appname>
																	<appmanufacturer>Apple Inc.</appmanufacturer>
																	<appversion>7.0</appversion>
																	<data>
																		<qtcodec>
																			<codecname>Apple ProRes 422</codecname>
																			<codectypename>Apple ProRes 422</codectypename>
																			<codectypecode>apcn</codectypecode>
																			<codecvendorcode>appl</codecvendorcode>
																			<spatialquality>1024</spatialquality>
																			<temporalquality>0</temporalquality>
																			<keyframerate>0</keyframerate>
																			<datarate>0</datarate>
																		</qtcodec>
																	</data>
																</appspecificdata>
															</codec>
															<width>1920</width>
															<height>1080</height>
															<anamorphic>FALSE</anamorphic>
															<pixelaspectratio>square</pixelaspectratio>
															<fielddominance>none</fielddominance>
															<colordepth>24</colordepth>
														</samplecharacteristics>
													</format>
													<track TL.SQTrackShy="0" TL.SQTrackExpandedHeight="25" TL.SQTrackExpanded="0" MZ.TrackTargeted="1">
														<clipitem id="clipitem-68">
															<masterclipid>masterclip-26</masterclipid>
															<name>(Mr. Build It)_DIY Self Watering Raised Garden Bed_Dx6ejO5BzH4_YT.mp4</name>
															<enabled>TRUE</enabled>
															<duration>38284</duration>
															<rate>
																<timebase>30</timebase>
																<ntsc>TRUE</ntsc>
															</rate>
															<start>0</start>
															<end>90</end>
															<in>34640</in>
															<out>34729</out>
															<pproTicksIn>247921741267200</pproTicksIn>
															<pproTicksOut>248565891974400</pproTicksOut>
															<alphatype>none</alphatype>
															<pixelaspectratio>square</pixelaspectratio>
															<anamorphic>FALSE</anamorphic>
															<file id="file-21">
																<name>(Mr. Build It)_DIY Self Watering Raised Garden Bed_Dx6ejO5BzH4_YT.mp4</name>
																<pathurl>file://localhost/Volumes/CONTENT/VOD%20CONTENT%20ARCHIVE/O&amp;O%20Archive%202023/CRAFTY/03_March/Crafty_3-20-2023/3_Raw%20Files/raised%20garden%20bed/(Mr.%20Build%20It)_DIY%20Self%20Watering%20Raised%20Garden%20Bed_Dx6ejO5BzH4_YT.mp4</pathurl>
																<rate>
																	<timebase>30</timebase>
																	<ntsc>TRUE</ntsc>
																</rate>
																<duration>32329</duration>
																<timecode>
																	<rate>
																		<timebase>30</timebase>
																		<ntsc>TRUE</ntsc>
																	</rate>
																	<string>00:00:00:00</string>
																	<frame>0</frame>
																	<displayformat>NDF</displayformat>
																</timecode>
																<media>
																	<video>
																		<samplecharacteristics>
																			<rate>
																				<timebase>30</timebase>
																				<ntsc>TRUE</ntsc>
																			</rate>
																			<width>1920</width>
																			<height>1080</height>
																			<anamorphic>FALSE</anamorphic>
																			<pixelaspectratio>square</pixelaspectratio>
																			<fielddominance>none</fielddominance>
																		</samplecharacteristics>
																	</video>
																	<audio>
																		<samplecharacteristics>
																			<depth>16</depth>
																			<samplerate>44100</samplerate>
																		</samplecharacteristics>
																		<channelcount>2</channelcount>
																	</audio>
																</media>
															</file>
															<filter>
																<effect>
																	<name>Time Remap</name>
																	<effectid>timeremap</effectid>
																	<effectcategory>motion</effectcategory>
																	<effecttype>motion</effecttype>
																	<mediatype>video</mediatype>
																	<parameter authoringApp="PremierePro">
																		<parameterid>variablespeed</parameterid>
																		<name>variablespeed</name>
																		<valuemin>0</valuemin>
																		<valuemax>1</valuemax>
																		<value>0</value>
																	</parameter>
																	<parameter authoringApp="PremierePro">
																		<parameterid>speed</parameterid>
																		<name>speed</name>
																		<valuemin>-100000</valuemin>
																		<valuemax>100000</valuemax>
																		<value>84.4444</value>
																	</parameter>
																	<parameter authoringApp="PremierePro">
																		<parameterid>reverse</parameterid>
																		<name>reverse</name>
																		<value>FALSE</value>
																	</parameter>
																	<parameter authoringApp="PremierePro">
																		<parameterid>frameblending</parameterid>
																		<name>frameblending</name>
																		<value>FALSE</value>
																	</parameter>
																	<parameter authoringApp="PremierePro">
																		<parameterid>graphdict</parameterid>
																		<name>graphdict</name>
																		<valuemin>0</valuemin>
																		<valuemax>32328</valuemax>
																		<value>0</value>
																		<keyframe>
																			<when>0</when>
																			<value>0</value>
																			<speedvirtualkf>TRUE</speedvirtualkf>
																			<speedkfstart>TRUE</speedkfstart>
																		</keyframe>
																		<keyframe>
																			<when>34640</when>
																			<value>29251</value>
																			<speedvirtualkf>TRUE</speedvirtualkf>
																			<speedkfin>TRUE</speedkfin>
																		</keyframe>
																		<keyframe>
																			<when>34729</when>
																			<value>29326</value>
																			<speedvirtualkf>TRUE</speedvirtualkf>
																			<speedkfout>TRUE</speedkfout>
																		</keyframe>
																		<keyframe>
																			<when>38284</when>
																			<value>32328</value>
																			<speedvirtualkf>TRUE</speedvirtualkf>
																			<speedkfend>TRUE</speedkfend>
																		</keyframe>
																		<interpolation>
																			<name>FCPCurve</name>
																		</interpolation>
																	</parameter>
																</effect>
															</filter>
															<logginginfo>
																<description></description>
																<scene></scene>
																<shottake></shottake>
																<lognote>https://www.youtube.com/watch?v=Dx6ejO5BzH4</lognote>
																<good></good>
																<originalvideofilename></originalvideofilename>
																<originalaudiofilename></originalaudiofilename>
															</logginginfo>
															<colorinfo>
																<lut></lut>
																<lut1></lut1>
																<asc_sop></asc_sop>
																<asc_sat></asc_sat>
																<lut2></lut2>
															</colorinfo>
															<labels>
																<label2>Iris</label2>
															</labels>
														</clipitem>
														<clipitem id="clipitem-69">
															<masterclipid>masterclip-26</masterclipid>
															<name>(Mr. Build It)_DIY Self Watering Raised Garden Bed_Dx6ejO5BzH4_YT.mp4</name>
															<enabled>TRUE</enabled>
															<duration>26940</duration>
															<rate>
																<timebase>30</timebase>
																<ntsc>TRUE</ntsc>
															</rate>
															<start>90</start>
															<end>869</end>
															<in>5561</in>
															<out>6339</out>
															<pproTicksIn>56558127225600</pproTicksIn>
															<pproTicksOut>64481180924160</pproTicksOut>
															<alphatype>none</alphatype>
															<file id="file-21"/>
															<filter>
																<effect>
																	<name>Time Remap</name>
																	<effectid>timeremap</effectid>
																	<effectcategory>motion</effectcategory>
																	<effecttype>motion</effecttype>
																	<mediatype>video</mediatype>
																	<parameter authoringApp="PremierePro">
																		<parameterid>variablespeed</parameterid>
																		<name>variablespeed</name>
																		<valuemin>0</valuemin>
																		<valuemax>1</valuemax>
																		<value>0</value>
																	</parameter>
																	<parameter authoringApp="PremierePro">
																		<parameterid>speed</parameterid>
																		<name>speed</name>
																		<valuemin>-100000</valuemin>
																		<valuemax>100000</valuemax>
																		<value>120</value>
																	</parameter>
																	<parameter authoringApp="PremierePro">
																		<parameterid>reverse</parameterid>
																		<name>reverse</name>
																		<value>FALSE</value>
																	</parameter>
																	<parameter authoringApp="PremierePro">
																		<parameterid>frameblending</parameterid>
																		<name>frameblending</name>
																		<value>FALSE</value>
																	</parameter>
																	<parameter authoringApp="PremierePro">
																		<parameterid>graphdict</parameterid>
																		<name>graphdict</name>
																		<valuemin>0</valuemin>
																		<valuemax>32328</valuemax>
																		<value>0</value>
																		<keyframe>
																			<when>0</when>
																			<value>0</value>
																			<speedvirtualkf>TRUE</speedvirtualkf>
																			<speedkfstart>TRUE</speedkfstart>
																		</keyframe>
																		<keyframe>
																			<when>5561</when>
																			<value>6673</value>
																			<speedvirtualkf>TRUE</speedvirtualkf>
																			<speedkfin>TRUE</speedkfin>
																		</keyframe>
																		<keyframe>
																			<when>6339</when>
																			<value>7606</value>
																			<speedvirtualkf>TRUE</speedvirtualkf>
																			<speedkfout>TRUE</speedkfout>
																		</keyframe>
																		<keyframe>
																			<when>26940</when>
																			<value>32328</value>
																			<speedvirtualkf>TRUE</speedvirtualkf>
																			<speedkfend>TRUE</speedkfend>
																		</keyframe>
																		<interpolation>
																			<name>FCPCurve</name>
																		</interpolation>
																	</parameter>
																</effect>
															</filter>
															<logginginfo>
																<description></description>
																<scene></scene>
																<shottake></shottake>
																<lognote>https://www.youtube.com/watch?v=Dx6ejO5BzH4</lognote>
																<good></good>
																<originalvideofilename></originalvideofilename>
																<originalaudiofilename></originalaudiofilename>
															</logginginfo>
															<colorinfo>
																<lut></lut>
																<lut1></lut1>
																<asc_sop></asc_sop>
																<asc_sat></asc_sat>
																<lut2></lut2>
															</colorinfo>
															<labels>
																<label2>Iris</label2>
															</labels>
														</clipitem>
														<clipitem id="clipitem-70">
															<masterclipid>masterclip-26</masterclipid>
															<name>(Mr. Build It)_DIY Self Watering Raised Garden Bed_Dx6ejO5BzH4_YT.mp4</name>
															<enabled>TRUE</enabled>
															<duration>26940</duration>
															<rate>
																<timebase>30</timebase>
																<ntsc>TRUE</ntsc>
															</rate>
															<start>869</start>
															<end>951</end>
															<in>6814</in>
															<out>6895</out>
															<pproTicksIn>69297055027200</pproTicksIn>
															<pproTicksOut>70131060679680</pproTicksOut>
															<alphatype>none</alphatype>
															<file id="file-21"/>
															<filter>
																<effect>
																	<name>Time Remap</name>
																	<effectid>timeremap</effectid>
																	<effectcategory>motion</effectcategory>
																	<effecttype>motion</effecttype>
																	<mediatype>video</mediatype>
																	<parameter authoringApp="PremierePro">
																		<parameterid>variablespeed</parameterid>
																		<name>variablespeed</name>
																		<valuemin>0</valuemin>
																		<valuemax>1</valuemax>
																		<value>0</value>
																	</parameter>
																	<parameter authoringApp="PremierePro">
																		<parameterid>speed</parameterid>
																		<name>speed</name>
																		<valuemin>-100000</valuemin>
																		<valuemax>100000</valuemax>
																		<value>120</value>
																	</parameter>
																	<parameter authoringApp="PremierePro">
																		<parameterid>reverse</parameterid>
																		<name>reverse</name>
																		<value>FALSE</value>
																	</parameter>
																	<parameter authoringApp="PremierePro">
																		<parameterid>frameblending</parameterid>
																		<name>frameblending</name>
																		<value>FALSE</value>
																	</parameter>
																	<parameter authoringApp="PremierePro">
																		<parameterid>graphdict</parameterid>
																		<name>graphdict</name>
																		<valuemin>0</valuemin>
																		<valuemax>32328</valuemax>
																		<value>0</value>
																		<keyframe>
																			<when>0</when>
																			<value>0</value>
																			<speedvirtualkf>TRUE</speedvirtualkf>
																			<speedkfstart>TRUE</speedkfstart>
																		</keyframe>
																		<keyframe>
																			<when>6814</when>
																			<value>8176</value>
																			<speedvirtualkf>TRUE</speedvirtualkf>
																			<speedkfin>TRUE</speedkfin>
																		</keyframe>
																		<keyframe>
																			<when>6895</when>
																			<value>8274</value>
																			<speedvirtualkf>TRUE</speedvirtualkf>
																			<speedkfout>TRUE</speedkfout>
																		</keyframe>
																		<keyframe>
																			<when>26940</when>
																			<value>32328</value>
																			<speedvirtualkf>TRUE</speedvirtualkf>
																			<speedkfend>TRUE</speedkfend>
																		</keyframe>
																		<interpolation>
																			<name>FCPCurve</name>
																		</interpolation>
																	</parameter>
																</effect>
															</filter>
															<logginginfo>
																<description></description>
																<scene></scene>
																<shottake></shottake>
																<lognote>https://www.youtube.com/watch?v=Dx6ejO5BzH4</lognote>
																<good></good>
																<originalvideofilename></originalvideofilename>
																<originalaudiofilename></originalaudiofilename>
															</logginginfo>
															<colorinfo>
																<lut></lut>
																<lut1></lut1>
																<asc_sop></asc_sop>
																<asc_sat></asc_sat>
																<lut2></lut2>
															</colorinfo>
															<labels>
																<label2>Iris</label2>
															</labels>
														</clipitem>
														<clipitem id="clipitem-71">
															<masterclipid>masterclip-26</masterclipid>
															<name>(Mr. Build It)_DIY Self Watering Raised Garden Bed_Dx6ejO5BzH4_YT.mp4</name>
															<enabled>TRUE</enabled>
															<duration>27864</duration>
															<rate>
																<timebase>30</timebase>
																<ntsc>TRUE</ntsc>
															</rate>
															<start>951</start>
															<end>1464</end>
															<in>7178</in>
															<out>7690</out>
															<pproTicksIn>70580271041280</pproTicksIn>
															<pproTicksOut>75624988158720</pproTicksOut>
															<alphatype>none</alphatype>
															<file id="file-21"/>
															<filter>
																<effect>
																	<name>Time Remap</name>
																	<effectid>timeremap</effectid>
																	<effectcategory>motion</effectcategory>
																	<effecttype>motion</effecttype>
																	<mediatype>video</mediatype>
																	<parameter authoringApp="PremierePro">
																		<parameterid>variablespeed</parameterid>
																		<name>variablespeed</name>
																		<valuemin>0</valuemin>
																		<valuemax>1</valuemax>
																		<value>0</value>
																	</parameter>
																	<parameter authoringApp="PremierePro">
																		<parameterid>speed</parameterid>
																		<name>speed</name>
																		<valuemin>-100000</valuemin>
																		<valuemax>100000</valuemax>
																		<value>116.023</value>
																	</parameter>
																	<parameter authoringApp="PremierePro">
																		<parameterid>reverse</parameterid>
																		<name>reverse</name>
																		<value>FALSE</value>
																	</parameter>
																	<parameter authoringApp="PremierePro">
																		<parameterid>frameblending</parameterid>
																		<name>frameblending</name>
																		<value>FALSE</value>
																	</parameter>
																	<parameter authoringApp="PremierePro">
																		<parameterid>graphdict</parameterid>
																		<name>graphdict</name>
																		<valuemin>0</valuemin>
																		<valuemax>32328</valuemax>
																		<value>0</value>
																		<keyframe>
																			<when>0</when>
																			<value>0</value>
																			<speedvirtualkf>TRUE</speedvirtualkf>
																			<speedkfstart>TRUE</speedkfstart>
																		</keyframe>
																		<keyframe>
																			<when>7178</when>
																			<value>8328</value>
																			<speedvirtualkf>TRUE</speedvirtualkf>
																			<speedkfin>TRUE</speedkfin>
																		</keyframe>
																		<keyframe>
																			<when>7690</when>
																			<value>8922</value>
																			<speedvirtualkf>TRUE</speedvirtualkf>
																			<speedkfout>TRUE</speedkfout>
																		</keyframe>
																		<keyframe>
																			<when>27864</when>
																			<value>32328</value>
																			<speedvirtualkf>TRUE</speedvirtualkf>
																			<speedkfend>TRUE</speedkfend>
																		</keyframe>
																		<interpolation>
																			<name>FCPCurve</name>
																		</interpolation>
																	</parameter>
																</effect>
															</filter>
															<logginginfo>
																<description></description>
																<scene></scene>
																<shottake></shottake>
																<lognote>https://www.youtube.com/watch?v=Dx6ejO5BzH4</lognote>
																<good></good>
																<originalvideofilename></originalvideofilename>
																<originalaudiofilename></originalaudiofilename>
															</logginginfo>
															<colorinfo>
																<lut></lut>
																<lut1></lut1>
																<asc_sop></asc_sop>
																<asc_sat></asc_sat>
																<lut2></lut2>
															</colorinfo>
															<labels>
																<label2>Iris</label2>
															</labels>
														</clipitem>
														<clipitem id="clipitem-72">
															<masterclipid>masterclip-26</masterclipid>
															<name>(Mr. Build It)_DIY Self Watering Raised Garden Bed_Dx6ejO5BzH4_YT.mp4</name>
															<enabled>TRUE</enabled>
															<duration>26940</duration>
															<rate>
																<timebase>30</timebase>
																<ntsc>TRUE</ntsc>
															</rate>
															<start>1464</start>
															<end>1587</end>
															<in>8294</in>
															<out>8416</out>
															<pproTicksIn>84349839974400</pproTicksIn>
															<pproTicksOut>85600848453120</pproTicksOut>
															<alphatype>none</alphatype>
															<file id="file-21"/>
															<filter>
																<effect>
																	<name>Time Remap</name>
																	<effectid>timeremap</effectid>
																	<effectcategory>motion</effectcategory>
																	<effecttype>motion</effecttype>
																	<mediatype>video</mediatype>
																	<parameter authoringApp="PremierePro">
																		<parameterid>variablespeed</parameterid>
																		<name>variablespeed</name>
																		<valuemin>0</valuemin>
																		<valuemax>1</valuemax>
																		<value>0</value>
																	</parameter>
																	<parameter authoringApp="PremierePro">
																		<parameterid>speed</parameterid>
																		<name>speed</name>
																		<valuemin>-100000</valuemin>
																		<valuemax>100000</valuemax>
																		<value>120</value>
																	</parameter>
																	<parameter authoringApp="PremierePro">
																		<parameterid>reverse</parameterid>
																		<name>reverse</name>
																		<value>FALSE</value>
																	</parameter>
																	<parameter authoringApp="PremierePro">
																		<parameterid>frameblending</parameterid>
																		<name>frameblending</name>
																		<value>FALSE</value>
																	</parameter>
																	<parameter authoringApp="PremierePro">
																		<parameterid>graphdict</parameterid>
																		<name>graphdict</name>
																		<valuemin>0</valuemin>
																		<valuemax>32328</valuemax>
																		<value>0</value>
																		<keyframe>
																			<when>0</when>
																			<value>0</value>
																			<speedvirtualkf>TRUE</speedvirtualkf>
																			<speedkfstart>TRUE</speedkfstart>
																		</keyframe>
																		<keyframe>
																			<when>8294</when>
																			<value>9952</value>
																			<speedvirtualkf>TRUE</speedvirtualkf>
																			<speedkfin>TRUE</speedkfin>
																		</keyframe>
																		<keyframe>
																			<when>8416</when>
																			<value>10099</value>
																			<speedvirtualkf>TRUE</speedvirtualkf>
																			<speedkfout>TRUE</speedkfout>
																		</keyframe>
																		<keyframe>
																			<when>26940</when>
																			<value>32328</value>
																			<speedvirtualkf>TRUE</speedvirtualkf>
																			<speedkfend>TRUE</speedkfend>
																		</keyframe>
																		<interpolation>
																			<name>FCPCurve</name>
																		</interpolation>
																	</parameter>
																</effect>
															</filter>
															<logginginfo>
																<description></description>
																<scene></scene>
																<shottake></shottake>
																<lognote>https://www.youtube.com/watch?v=Dx6ejO5BzH4</lognote>
																<good></good>
																<originalvideofilename></originalvideofilename>
																<originalaudiofilename></originalaudiofilename>
															</logginginfo>
															<colorinfo>
																<lut></lut>
																<lut1></lut1>
																<asc_sop></asc_sop>
																<asc_sat></asc_sat>
																<lut2></lut2>
															</colorinfo>
															<labels>
																<label2>Iris</label2>
															</labels>
														</clipitem>
														<clipitem id="clipitem-73">
															<masterclipid>masterclip-26</masterclipid>
															<name>(Mr. Build It)_DIY Self Watering Raised Garden Bed_Dx6ejO5BzH4_YT.mp4</name>
															<enabled>TRUE</enabled>
															<duration>26940</duration>
															<rate>
																<timebase>30</timebase>
																<ntsc>TRUE</ntsc>
															</rate>
															<start>1587</start>
															<end>1801</end>
															<in>8931</in>
															<out>9144</out>
															<pproTicksIn>90833725382400</pproTicksIn>
															<pproTicksOut>93010276719360</pproTicksOut>
															<alphatype>none</alphatype>
															<file id="file-21"/>
															<filter>
																<effect>
																	<name>Time Remap</name>
																	<effectid>timeremap</effectid>
																	<effectcategory>motion</effectcategory>
																	<effecttype>motion</effecttype>
																	<mediatype>video</mediatype>
																	<parameter authoringApp="PremierePro">
																		<parameterid>variablespeed</parameterid>
																		<name>variablespeed</name>
																		<valuemin>0</valuemin>
																		<valuemax>1</valuemax>
																		<value>0</value>
																	</parameter>
																	<parameter authoringApp="PremierePro">
																		<parameterid>speed</parameterid>
																		<name>speed</name>
																		<valuemin>-100000</valuemin>
																		<valuemax>100000</valuemax>
																		<value>120</value>
																	</parameter>
																	<parameter authoringApp="PremierePro">
																		<parameterid>reverse</parameterid>
																		<name>reverse</name>
																		<value>FALSE</value>
																	</parameter>
																	<parameter authoringApp="PremierePro">
																		<parameterid>frameblending</parameterid>
																		<name>frameblending</name>
																		<value>FALSE</value>
																	</parameter>
																	<parameter authoringApp="PremierePro">
																		<parameterid>graphdict</parameterid>
																		<name>graphdict</name>
																		<valuemin>0</valuemin>
																		<valuemax>32328</valuemax>
																		<value>0</value>
																		<keyframe>
																			<when>0</when>
																			<value>0</value>
																			<speedvirtualkf>TRUE</speedvirtualkf>
																			<speedkfstart>TRUE</speedkfstart>
																		</keyframe>
																		<keyframe>
																			<when>8931</when>
																			<value>10717</value>
																			<speedvirtualkf>TRUE</speedvirtualkf>
																			<speedkfin>TRUE</speedkfin>
																		</keyframe>
																		<keyframe>
																			<when>9144</when>
																			<value>10972</value>
																			<speedvirtualkf>TRUE</speedvirtualkf>
																			<speedkfout>TRUE</speedkfout>
																		</keyframe>
																		<keyframe>
																			<when>26940</when>
																			<value>32328</value>
																			<speedvirtualkf>TRUE</speedvirtualkf>
																			<speedkfend>TRUE</speedkfend>
																		</keyframe>
																		<interpolation>
																			<name>FCPCurve</name>
																		</interpolation>
																	</parameter>
																</effect>
															</filter>
															<logginginfo>
																<description></description>
																<scene></scene>
																<shottake></shottake>
																<lognote>https://www.youtube.com/watch?v=Dx6ejO5BzH4</lognote>
																<good></good>
																<originalvideofilename></originalvideofilename>
																<originalaudiofilename></originalaudiofilename>
															</logginginfo>
															<colorinfo>
																<lut></lut>
																<lut1></lut1>
																<asc_sop></asc_sop>
																<asc_sat></asc_sat>
																<lut2></lut2>
															</colorinfo>
															<labels>
																<label2>Iris</label2>
															</labels>
														</clipitem>
														<clipitem id="clipitem-74">
															<masterclipid>masterclip-26</masterclipid>
															<name>(Mr. Build It)_DIY Self Watering Raised Garden Bed_Dx6ejO5BzH4_YT.mp4</name>
															<enabled>TRUE</enabled>
															<duration>26940</duration>
															<rate>
																<timebase>30</timebase>
																<ntsc>TRUE</ntsc>
															</rate>
															<start>1801</start>
															<end>2266</end>
															<in>10052</in>
															<out>10516</out>
															<pproTicksIn>102233497766400</pproTicksIn>
															<pproTicksOut>106962920064000</pproTicksOut>
															<alphatype>none</alphatype>
															<file id="file-21"/>
															<filter>
																<effect>
																	<name>Time Remap</name>
																	<effectid>timeremap</effectid>
																	<effectcategory>motion</effectcategory>
																	<effecttype>motion</effecttype>
																	<mediatype>video</mediatype>
																	<parameter authoringApp="PremierePro">
																		<parameterid>variablespeed</parameterid>
																		<name>variablespeed</name>
																		<valuemin>0</valuemin>
																		<valuemax>1</valuemax>
																		<value>0</value>
																	</parameter>
																	<parameter authoringApp="PremierePro">
																		<parameterid>speed</parameterid>
																		<name>speed</name>
																		<valuemin>-100000</valuemin>
																		<valuemax>100000</valuemax>
																		<value>120</value>
																	</parameter>
																	<parameter authoringApp="PremierePro">
																		<parameterid>reverse</parameterid>
																		<name>reverse</name>
																		<value>FALSE</value>
																	</parameter>
																	<parameter authoringApp="PremierePro">
																		<parameterid>frameblending</parameterid>
																		<name>frameblending</name>
																		<value>FALSE</value>
																	</parameter>
																	<parameter authoringApp="PremierePro">
																		<parameterid>graphdict</parameterid>
																		<name>graphdict</name>
																		<valuemin>0</valuemin>
																		<valuemax>32328</valuemax>
																		<value>0</value>
																		<keyframe>
																			<when>0</when>
																			<value>0</value>
																			<speedvirtualkf>TRUE</speedvirtualkf>
																			<speedkfstart>TRUE</speedkfstart>
																		</keyframe>
																		<keyframe>
																			<when>10052</when>
																			<value>12062</value>
																			<speedvirtualkf>TRUE</speedvirtualkf>
																			<speedkfin>TRUE</speedkfin>
																		</keyframe>
																		<keyframe>
																			<when>10516</when>
																			<value>12619</value>
																			<speedvirtualkf>TRUE</speedvirtualkf>
																			<speedkfout>TRUE</speedkfout>
																		</keyframe>
																		<keyframe>
																			<when>26940</when>
																			<value>32328</value>
																			<speedvirtualkf>TRUE</speedvirtualkf>
																			<speedkfend>TRUE</speedkfend>
																		</keyframe>
																		<interpolation>
																			<name>FCPCurve</name>
																		</interpolation>
																	</parameter>
																</effect>
															</filter>
															<logginginfo>
																<description></description>
																<scene></scene>
																<shottake></shottake>
																<lognote>https://www.youtube.com/watch?v=Dx6ejO5BzH4</lognote>
																<good></good>
																<originalvideofilename></originalvideofilename>
																<originalaudiofilename></originalaudiofilename>
															</logginginfo>
															<colorinfo>
																<lut></lut>
																<lut1></lut1>
																<asc_sop></asc_sop>
																<asc_sat></asc_sat>
																<lut2></lut2>
															</colorinfo>
															<labels>
																<label2>Iris</label2>
															</labels>
														</clipitem>
														<clipitem id="clipitem-75">
															<masterclipid>masterclip-26</masterclipid>
															<name>(Mr. Build It)_DIY Self Watering Raised Garden Bed_Dx6ejO5BzH4_YT.mp4</name>
															<enabled>TRUE</enabled>
															<duration>26940</duration>
															<rate>
																<timebase>30</timebase>
																<ntsc>TRUE</ntsc>
															</rate>
															<start>2266</start>
															<end>2490</end>
															<in>12477</in>
															<out>12700</out>
															<pproTicksIn>126897689318400</pproTicksIn>
															<pproTicksOut>129175948661760</pproTicksOut>
															<alphatype>none</alphatype>
															<file id="file-21"/>
															<filter>
																<effect>
																	<name>Time Remap</name>
																	<effectid>timeremap</effectid>
																	<effectcategory>motion</effectcategory>
																	<effecttype>motion</effecttype>
																	<mediatype>video</mediatype>
																	<parameter authoringApp="PremierePro">
																		<parameterid>variablespeed</parameterid>
																		<name>variablespeed</name>
																		<valuemin>0</valuemin>
																		<valuemax>1</valuemax>
																		<value>0</value>
																	</parameter>
																	<parameter authoringApp="PremierePro">
																		<parameterid>speed</parameterid>
																		<name>speed</name>
																		<valuemin>-100000</valuemin>
																		<valuemax>100000</valuemax>
																		<value>120</value>
																	</parameter>
																	<parameter authoringApp="PremierePro">
																		<parameterid>reverse</parameterid>
																		<name>reverse</name>
																		<value>FALSE</value>
																	</parameter>
																	<parameter authoringApp="PremierePro">
																		<parameterid>frameblending</parameterid>
																		<name>frameblending</name>
																		<value>FALSE</value>
																	</parameter>
																	<parameter authoringApp="PremierePro">
																		<parameterid>graphdict</parameterid>
																		<name>graphdict</name>
																		<valuemin>0</valuemin>
																		<valuemax>32328</valuemax>
																		<value>0</value>
																		<keyframe>
																			<when>0</when>
																			<value>0</value>
																			<speedvirtualkf>TRUE</speedvirtualkf>
																			<speedkfstart>TRUE</speedkfstart>
																		</keyframe>
																		<keyframe>
																			<when>12477</when>
																			<value>14972</value>
																			<speedvirtualkf>TRUE</speedvirtualkf>
																			<speedkfin>TRUE</speedkfin>
																		</keyframe>
																		<keyframe>
																			<when>12700</when>
																			<value>15240</value>
																			<speedvirtualkf>TRUE</speedvirtualkf>
																			<speedkfout>TRUE</speedkfout>
																		</keyframe>
																		<keyframe>
																			<when>26940</when>
																			<value>32328</value>
																			<speedvirtualkf>TRUE</speedvirtualkf>
																			<speedkfend>TRUE</speedkfend>
																		</keyframe>
																		<interpolation>
																			<name>FCPCurve</name>
																		</interpolation>
																	</parameter>
																</effect>
															</filter>
															<logginginfo>
																<description></description>
																<scene></scene>
																<shottake></shottake>
																<lognote>https://www.youtube.com/watch?v=Dx6ejO5BzH4</lognote>
																<good></good>
																<originalvideofilename></originalvideofilename>
																<originalaudiofilename></originalaudiofilename>
															</logginginfo>
															<colorinfo>
																<lut></lut>
																<lut1></lut1>
																<asc_sop></asc_sop>
																<asc_sat></asc_sat>
																<lut2></lut2>
															</colorinfo>
															<labels>
																<label2>Iris</label2>
															</labels>
														</clipitem>
														<clipitem id="clipitem-76">
															<masterclipid>masterclip-26</masterclipid>
															<name>(Mr. Build It)_DIY Self Watering Raised Garden Bed_Dx6ejO5BzH4_YT.mp4</name>
															<enabled>TRUE</enabled>
															<duration>26940</duration>
															<rate>
																<timebase>30</timebase>
																<ntsc>TRUE</ntsc>
															</rate>
															<start>2490</start>
															<end>2743</end>
															<in>17227</in>
															<out>17479</out>
															<pproTicksIn>175208992358400</pproTicksIn>
															<pproTicksOut>177782204920320</pproTicksOut>
															<alphatype>none</alphatype>
															<file id="file-21"/>
															<filter>
																<effect>
																	<name>Time Remap</name>
																	<effectid>timeremap</effectid>
																	<effectcategory>motion</effectcategory>
																	<effecttype>motion</effecttype>
																	<mediatype>video</mediatype>
																	<parameter authoringApp="PremierePro">
																		<parameterid>variablespeed</parameterid>
																		<name>variablespeed</name>
																		<valuemin>0</valuemin>
																		<valuemax>1</valuemax>
																		<value>0</value>
																	</parameter>
																	<parameter authoringApp="PremierePro">
																		<parameterid>speed</parameterid>
																		<name>speed</name>
																		<valuemin>-100000</valuemin>
																		<valuemax>100000</valuemax>
																		<value>120</value>
																	</parameter>
																	<parameter authoringApp="PremierePro">
																		<parameterid>reverse</parameterid>
																		<name>reverse</name>
																		<value>FALSE</value>
																	</parameter>
																	<parameter authoringApp="PremierePro">
																		<parameterid>frameblending</parameterid>
																		<name>frameblending</name>
																		<value>FALSE</value>
																	</parameter>
																	<parameter authoringApp="PremierePro">
																		<parameterid>graphdict</parameterid>
																		<name>graphdict</name>
																		<valuemin>0</valuemin>
																		<valuemax>32328</valuemax>
																		<value>0</value>
																		<keyframe>
																			<when>0</when>
																			<value>0</value>
																			<speedvirtualkf>TRUE</speedvirtualkf>
																			<speedkfstart>TRUE</speedkfstart>
																		</keyframe>
																		<keyframe>
																			<when>17227</when>
																			<value>20672</value>
																			<speedvirtualkf>TRUE</speedvirtualkf>
																			<speedkfin>TRUE</speedkfin>
																		</keyframe>
																		<keyframe>
																			<when>17479</when>
																			<value>20974</value>
																			<speedvirtualkf>TRUE</speedvirtualkf>
																			<speedkfout>TRUE</speedkfout>
																		</keyframe>
																		<keyframe>
																			<when>26940</when>
																			<value>32328</value>
																			<speedvirtualkf>TRUE</speedvirtualkf>
																			<speedkfend>TRUE</speedkfend>
																		</keyframe>
																		<interpolation>
																			<name>FCPCurve</name>
																		</interpolation>
																	</parameter>
																</effect>
															</filter>
															<logginginfo>
																<description></description>
																<scene></scene>
																<shottake></shottake>
																<lognote>https://www.youtube.com/watch?v=Dx6ejO5BzH4</lognote>
																<good></good>
																<originalvideofilename></originalvideofilename>
																<originalaudiofilename></originalaudiofilename>
															</logginginfo>
															<colorinfo>
																<lut></lut>
																<lut1></lut1>
																<asc_sop></asc_sop>
																<asc_sat></asc_sat>
																<lut2></lut2>
															</colorinfo>
															<labels>
																<label2>Iris</label2>
															</labels>
														</clipitem>
														<clipitem id="clipitem-77">
															<masterclipid>masterclip-26</masterclipid>
															<name>(Mr. Build It)_DIY Self Watering Raised Garden Bed_Dx6ejO5BzH4_YT.mp4</name>
															<enabled>TRUE</enabled>
															<duration>26940</duration>
															<rate>
																<timebase>30</timebase>
																<ntsc>TRUE</ntsc>
															</rate>
															<start>2743</start>
															<end>2969</end>
															<in>18748</in>
															<out>18973</out>
															<pproTicksIn>190677084998400</pproTicksIn>
															<pproTicksOut>192975685943040</pproTicksOut>
															<alphatype>none</alphatype>
															<file id="file-21"/>
															<filter>
																<effect>
																	<name>Time Remap</name>
																	<effectid>timeremap</effectid>
																	<effectcategory>motion</effectcategory>
																	<effecttype>motion</effecttype>
																	<mediatype>video</mediatype>
																	<parameter authoringApp="PremierePro">
																		<parameterid>variablespeed</parameterid>
																		<name>variablespeed</name>
																		<valuemin>0</valuemin>
																		<valuemax>1</valuemax>
																		<value>0</value>
																	</parameter>
																	<parameter authoringApp="PremierePro">
																		<parameterid>speed</parameterid>
																		<name>speed</name>
																		<valuemin>-100000</valuemin>
																		<valuemax>100000</valuemax>
																		<value>120</value>
																	</parameter>
																	<parameter authoringApp="PremierePro">
																		<parameterid>reverse</parameterid>
																		<name>reverse</name>
																		<value>FALSE</value>
																	</parameter>
																	<parameter authoringApp="PremierePro">
																		<parameterid>frameblending</parameterid>
																		<name>frameblending</name>
																		<value>FALSE</value>
																	</parameter>
																	<parameter authoringApp="PremierePro">
																		<parameterid>graphdict</parameterid>
																		<name>graphdict</name>
																		<valuemin>0</valuemin>
																		<valuemax>32328</valuemax>
																		<value>0</value>
																		<keyframe>
																			<when>0</when>
																			<value>0</value>
																			<speedvirtualkf>TRUE</speedvirtualkf>
																			<speedkfstart>TRUE</speedkfstart>
																		</keyframe>
																		<keyframe>
																			<when>18748</when>
																			<value>22497</value>
																			<speedvirtualkf>TRUE</speedvirtualkf>
																			<speedkfin>TRUE</speedkfin>
																		</keyframe>
																		<keyframe>
																			<when>18973</when>
																			<value>22767</value>
																			<speedvirtualkf>TRUE</speedvirtualkf>
																			<speedkfout>TRUE</speedkfout>
																		</keyframe>
																		<keyframe>
																			<when>26940</when>
																			<value>32328</value>
																			<speedvirtualkf>TRUE</speedvirtualkf>
																			<speedkfend>TRUE</speedkfend>
																		</keyframe>
																		<interpolation>
																			<name>FCPCurve</name>
																		</interpolation>
																	</parameter>
																</effect>
															</filter>
															<logginginfo>
																<description></description>
																<scene></scene>
																<shottake></shottake>
																<lognote>https://www.youtube.com/watch?v=Dx6ejO5BzH4</lognote>
																<good></good>
																<originalvideofilename></originalvideofilename>
																<originalaudiofilename></originalaudiofilename>
															</logginginfo>
															<colorinfo>
																<lut></lut>
																<lut1></lut1>
																<asc_sop></asc_sop>
																<asc_sat></asc_sat>
																<lut2></lut2>
															</colorinfo>
															<labels>
																<label2>Iris</label2>
															</labels>
														</clipitem>
														<clipitem id="clipitem-78">
															<masterclipid>masterclip-26</masterclipid>
															<name>(Mr. Build It)_DIY Self Watering Raised Garden Bed_Dx6ejO5BzH4_YT.mp4</name>
															<enabled>TRUE</enabled>
															<duration>26940</duration>
															<rate>
																<timebase>30</timebase>
																<ntsc>TRUE</ntsc>
															</rate>
															<start>2969</start>
															<end>3294</end>
															<in>20685</in>
															<out>21009</out>
															<pproTicksIn>210374535571200</pproTicksIn>
															<pproTicksOut>213680045779200</pproTicksOut>
															<alphatype>none</alphatype>
															<file id="file-21"/>
															<filter>
																<effect>
																	<name>Time Remap</name>
																	<effectid>timeremap</effectid>
																	<effectcategory>motion</effectcategory>
																	<effecttype>motion</effecttype>
																	<mediatype>video</mediatype>
																	<parameter authoringApp="PremierePro">
																		<parameterid>variablespeed</parameterid>
																		<name>variablespeed</name>
																		<valuemin>0</valuemin>
																		<valuemax>1</valuemax>
																		<value>0</value>
																	</parameter>
																	<parameter authoringApp="PremierePro">
																		<parameterid>speed</parameterid>
																		<name>speed</name>
																		<valuemin>-100000</valuemin>
																		<valuemax>100000</valuemax>
																		<value>120</value>
																	</parameter>
																	<parameter authoringApp="PremierePro">
																		<parameterid>reverse</parameterid>
																		<name>reverse</name>
																		<value>FALSE</value>
																	</parameter>
																	<parameter authoringApp="PremierePro">
																		<parameterid>frameblending</parameterid>
																		<name>frameblending</name>
																		<value>FALSE</value>
																	</parameter>
																	<parameter authoringApp="PremierePro">
																		<parameterid>graphdict</parameterid>
																		<name>graphdict</name>
																		<valuemin>0</valuemin>
																		<valuemax>32328</valuemax>
																		<value>0</value>
																		<keyframe>
																			<when>0</when>
																			<value>0</value>
																			<speedvirtualkf>TRUE</speedvirtualkf>
																			<speedkfstart>TRUE</speedkfstart>
																		</keyframe>
																		<keyframe>
																			<when>20685</when>
																			<value>24822</value>
																			<speedvirtualkf>TRUE</speedvirtualkf>
																			<speedkfin>TRUE</speedkfin>
																		</keyframe>
																		<keyframe>
																			<when>21009</when>
																			<value>25210</value>
																			<speedvirtualkf>TRUE</speedvirtualkf>
																			<speedkfout>TRUE</speedkfout>
																		</keyframe>
																		<keyframe>
																			<when>26940</when>
																			<value>32328</value>
																			<speedvirtualkf>TRUE</speedvirtualkf>
																			<speedkfend>TRUE</speedkfend>
																		</keyframe>
																		<interpolation>
																			<name>FCPCurve</name>
																		</interpolation>
																	</parameter>
																</effect>
															</filter>
															<logginginfo>
																<description></description>
																<scene></scene>
																<shottake></shottake>
																<lognote>https://www.youtube.com/watch?v=Dx6ejO5BzH4</lognote>
																<good></good>
																<originalvideofilename></originalvideofilename>
																<originalaudiofilename></originalaudiofilename>
															</logginginfo>
															<colorinfo>
																<lut></lut>
																<lut1></lut1>
																<asc_sop></asc_sop>
																<asc_sat></asc_sat>
																<lut2></lut2>
															</colorinfo>
															<labels>
																<label2>Iris</label2>
															</labels>
														</clipitem>
														<clipitem id="clipitem-79">
															<masterclipid>masterclip-26</masterclipid>
															<name>(Mr. Build It)_DIY Self Watering Raised Garden Bed_Dx6ejO5BzH4_YT.mp4</name>
															<enabled>TRUE</enabled>
															<duration>26940</duration>
															<rate>
																<timebase>30</timebase>
																<ntsc>TRUE</ntsc>
															</rate>
															<start>3294</start>
															<end>3678</end>
															<in>21557</in>
															<out>21940</out>
															<pproTicksIn>219248559129600</pproTicksIn>
															<pproTicksOut>223154146575360</pproTicksOut>
															<alphatype>none</alphatype>
															<file id="file-21"/>
															<filter>
																<effect>
																	<name>Time Remap</name>
																	<effectid>timeremap</effectid>
																	<effectcategory>motion</effectcategory>
																	<effecttype>motion</effecttype>
																	<mediatype>video</mediatype>
																	<parameter authoringApp="PremierePro">
																		<parameterid>variablespeed</parameterid>
																		<name>variablespeed</name>
																		<valuemin>0</valuemin>
																		<valuemax>1</valuemax>
																		<value>0</value>
																	</parameter>
																	<parameter authoringApp="PremierePro">
																		<parameterid>speed</parameterid>
																		<name>speed</name>
																		<valuemin>-100000</valuemin>
																		<valuemax>100000</valuemax>
																		<value>120</value>
																	</parameter>
																	<parameter authoringApp="PremierePro">
																		<parameterid>reverse</parameterid>
																		<name>reverse</name>
																		<value>FALSE</value>
																	</parameter>
																	<parameter authoringApp="PremierePro">
																		<parameterid>frameblending</parameterid>
																		<name>frameblending</name>
																		<value>FALSE</value>
																	</parameter>
																	<parameter authoringApp="PremierePro">
																		<parameterid>graphdict</parameterid>
																		<name>graphdict</name>
																		<valuemin>0</valuemin>
																		<valuemax>32328</valuemax>
																		<value>0</value>
																		<keyframe>
																			<when>0</when>
																			<value>0</value>
																			<speedvirtualkf>TRUE</speedvirtualkf>
																			<speedkfstart>TRUE</speedkfstart>
																		</keyframe>
																		<keyframe>
																			<when>21557</when>
																			<value>25868</value>
																			<speedvirtualkf>TRUE</speedvirtualkf>
																			<speedkfin>TRUE</speedkfin>
																		</keyframe>
																		<keyframe>
																			<when>21940</when>
																			<value>26328</value>
																			<speedvirtualkf>TRUE</speedvirtualkf>
																			<speedkfout>TRUE</speedkfout>
																		</keyframe>
																		<keyframe>
																			<when>26940</when>
																			<value>32328</value>
																			<speedvirtualkf>TRUE</speedvirtualkf>
																			<speedkfend>TRUE</speedkfend>
																		</keyframe>
																		<interpolation>
																			<name>FCPCurve</name>
																		</interpolation>
																	</parameter>
																</effect>
															</filter>
															<logginginfo>
																<description></description>
																<scene></scene>
																<shottake></shottake>
																<lognote>https://www.youtube.com/watch?v=Dx6ejO5BzH4</lognote>
																<good></good>
																<originalvideofilename></originalvideofilename>
																<originalaudiofilename></originalaudiofilename>
															</logginginfo>
															<colorinfo>
																<lut></lut>
																<lut1></lut1>
																<asc_sop></asc_sop>
																<asc_sat></asc_sat>
																<lut2></lut2>
															</colorinfo>
															<labels>
																<label2>Iris</label2>
															</labels>
														</clipitem>
														<clipitem id="clipitem-80">
															<masterclipid>masterclip-26</masterclipid>
															<name>(Mr. Build It)_DIY Self Watering Raised Garden Bed_Dx6ejO5BzH4_YT.mp4</name>
															<enabled>TRUE</enabled>
															<duration>26940</duration>
															<rate>
																<timebase>30</timebase>
																<ntsc>TRUE</ntsc>
															</rate>
															<start>3678</start>
															<end>4106</end>
															<in>22917</in>
															<out>23344</out>
															<pproTicksIn>233080848000000</pproTicksIn>
															<pproTicksOut>237433950673920</pproTicksOut>
															<alphatype>none</alphatype>
															<file id="file-21"/>
															<filter>
																<effect>
																	<name>Time Remap</name>
																	<effectid>timeremap</effectid>
																	<effectcategory>motion</effectcategory>
																	<effecttype>motion</effecttype>
																	<mediatype>video</mediatype>
																	<parameter authoringApp="PremierePro">
																		<parameterid>variablespeed</parameterid>
																		<name>variablespeed</name>
																		<valuemin>0</valuemin>
																		<valuemax>1</valuemax>
																		<value>0</value>
																	</parameter>
																	<parameter authoringApp="PremierePro">
																		<parameterid>speed</parameterid>
																		<name>speed</name>
																		<valuemin>-100000</valuemin>
																		<valuemax>100000</valuemax>
																		<value>120</value>
																	</parameter>
																	<parameter authoringApp="PremierePro">
																		<parameterid>reverse</parameterid>
																		<name>reverse</name>
																		<value>FALSE</value>
																	</parameter>
																	<parameter authoringApp="PremierePro">
																		<parameterid>frameblending</parameterid>
																		<name>frameblending</name>
																		<value>FALSE</value>
																	</parameter>
																	<parameter authoringApp="PremierePro">
																		<parameterid>graphdict</parameterid>
																		<name>graphdict</name>
																		<valuemin>0</valuemin>
																		<valuemax>32328</valuemax>
																		<value>0</value>
																		<keyframe>
																			<when>0</when>
																			<value>0</value>
																			<speedvirtualkf>TRUE</speedvirtualkf>
																			<speedkfstart>TRUE</speedkfstart>
																		</keyframe>
																		<keyframe>
																			<when>22917</when>
																			<value>27500</value>
																			<speedvirtualkf>TRUE</speedvirtualkf>
																			<speedkfin>TRUE</speedkfin>
																		</keyframe>
																		<keyframe>
																			<when>23344</when>
																			<value>28012</value>
																			<speedvirtualkf>TRUE</speedvirtualkf>
																			<speedkfout>TRUE</speedkfout>
																		</keyframe>
																		<keyframe>
																			<when>26940</when>
																			<value>32328</value>
																			<speedvirtualkf>TRUE</speedvirtualkf>
																			<speedkfend>TRUE</speedkfend>
																		</keyframe>
																		<interpolation>
																			<name>FCPCurve</name>
																		</interpolation>
																	</parameter>
																</effect>
															</filter>
															<logginginfo>
																<description></description>
																<scene></scene>
																<shottake></shottake>
																<lognote>https://www.youtube.com/watch?v=Dx6ejO5BzH4</lognote>
																<good></good>
																<originalvideofilename></originalvideofilename>
																<originalaudiofilename></originalaudiofilename>
															</logginginfo>
															<colorinfo>
																<lut></lut>
																<lut1></lut1>
																<asc_sop></asc_sop>
																<asc_sat></asc_sat>
																<lut2></lut2>
															</colorinfo>
															<labels>
																<label2>Iris</label2>
															</labels>
														</clipitem>
														<clipitem id="clipitem-81">
															<masterclipid>masterclip-26</masterclipid>
															<name>(Mr. Build It)_DIY Self Watering Raised Garden Bed_Dx6ejO5BzH4_YT.mp4</name>
															<enabled>TRUE</enabled>
															<duration>32329</duration>
															<rate>
																<timebase>30</timebase>
																<ntsc>TRUE</ntsc>
															</rate>
															<start>4106</start>
															<end>4179</end>
															<in>28316</in>
															<out>28389</out>
															<pproTicksIn>239996992435200</pproTicksIn>
															<pproTicksOut>240615716140800</pproTicksOut>
															<alphatype>none</alphatype>
															<file id="file-21"/>
															<logginginfo>
																<description></description>
																<scene></scene>
																<shottake></shottake>
																<lognote>https://www.youtube.com/watch?v=Dx6ejO5BzH4</lognote>
																<good></good>
																<originalvideofilename></originalvideofilename>
																<originalaudiofilename></originalaudiofilename>
															</logginginfo>
															<colorinfo>
																<lut></lut>
																<lut1></lut1>
																<asc_sop></asc_sop>
																<asc_sat></asc_sat>
																<lut2></lut2>
															</colorinfo>
															<labels>
																<label2>Iris</label2>
															</labels>
														</clipitem>
														<clipitem id="clipitem-82">
															<masterclipid>masterclip-26</masterclipid>
															<name>(Mr. Build It)_DIY Self Watering Raised Garden Bed_Dx6ejO5BzH4_YT.mp4</name>
															<enabled>TRUE</enabled>
															<duration>32329</duration>
															<rate>
																<timebase>30</timebase>
																<ntsc>TRUE</ntsc>
															</rate>
															<start>4179</start>
															<end>4292</end>
															<in>29341</in>
															<out>29454</out>
															<pproTicksIn>248684551315200</pproTicksIn>
															<pproTicksOut>249642301708800</pproTicksOut>
															<alphatype>none</alphatype>
															<file id="file-21"/>
															<logginginfo>
																<description></description>
																<scene></scene>
																<shottake></shottake>
																<lognote>https://www.youtube.com/watch?v=Dx6ejO5BzH4</lognote>
																<good></good>
																<originalvideofilename></originalvideofilename>
																<originalaudiofilename></originalaudiofilename>
															</logginginfo>
															<colorinfo>
																<lut></lut>
																<lut1></lut1>
																<asc_sop></asc_sop>
																<asc_sat></asc_sat>
																<lut2></lut2>
															</colorinfo>
															<labels>
																<label2>Iris</label2>
															</labels>
														</clipitem>
														<enabled>TRUE</enabled>
														<locked>FALSE</locked>
													</track>
													<track TL.SQTrackShy="0" TL.SQTrackExpandedHeight="25" TL.SQTrackExpanded="0" MZ.TrackTargeted="0">
														<clipitem id="clipitem-83">
															<masterclipid>masterclip-27</masterclipid>
															<name>MR. BUILD IT</name>
															<enabled>TRUE</enabled>
															<duration>5844</duration>
															<rate>
																<timebase>30</timebase>
																<ntsc>TRUE</ntsc>
															</rate>
															<start>0</start>
															<end>4292</end>
															<in>0</in>
															<out>4292</out>
															<pproTicksIn>0</pproTicksIn>
															<pproTicksOut>36377563622400</pproTicksOut>
															<alphatype>straight</alphatype>
															<pixelaspectratio>square</pixelaspectratio>
															<anamorphic>FALSE</anamorphic>
															<file id="file-22">
																<name>1080/AE Attribution.aep</name>
																<pathurl>file://localhost/Volumes/ATM%20JR%202TB/Master%20Assets/AE%20Attribution.aep</pathurl>
																<rate>
																	<timebase>30</timebase>
																	<ntsc>TRUE</ntsc>
																</rate>
																<duration>5844</duration>
																<timecode>
																	<rate>
																		<timebase>30</timebase>
																		<ntsc>TRUE</ntsc>
																	</rate>
																	<string>00;00;00;00</string>
																	<frame>0</frame>
																	<displayformat>DF</displayformat>
																</timecode>
																<media>
																	<video>
																		<samplecharacteristics>
																			<rate>
																				<timebase>30</timebase>
																				<ntsc>TRUE</ntsc>
																			</rate>
																			<width>1920</width>
																			<height>1080</height>
																			<anamorphic>FALSE</anamorphic>
																			<pixelaspectratio>square</pixelaspectratio>
																			<fielddominance>lower</fielddominance>
																		</samplecharacteristics>
																	</video>
																</media>
															</file>
															<logginginfo>
																<description></description>
																<scene></scene>
																<shottake></shottake>
																<lognote></lognote>
																<good></good>
																<originalvideofilename></originalvideofilename>
																<originalaudiofilename></originalaudiofilename>
															</logginginfo>
															<colorinfo>
																<lut></lut>
																<lut1></lut1>
																<asc_sop></asc_sop>
																<asc_sat></asc_sat>
																<lut2></lut2>
															</colorinfo>
															<labels>
																<label2>Rose</label2>
															</labels>
														</clipitem>
														<enabled>TRUE</enabled>
														<locked>FALSE</locked>
													</track>
													<track TL.SQTrackShy="0" TL.SQTrackExpandedHeight="25" TL.SQTrackExpanded="0" MZ.TrackTargeted="0">
														<enabled>TRUE</enabled>
														<locked>FALSE</locked>
													</track>
												</video>
												<audio>
													<numOutputChannels>2</numOutputChannels>
													<format>
														<samplecharacteristics>
															<depth>16</depth>
															<samplerate>48000</samplerate>
														</samplecharacteristics>
													</format>
													<outputs>
														<group>
															<index>1</index>
															<numchannels>1</numchannels>
															<downmix>0</downmix>
															<channel>
																<index>1</index>
															</channel>
														</group>
														<group>
															<index>2</index>
															<numchannels>1</numchannels>
															<downmix>0</downmix>
															<channel>
																<index>2</index>
															</channel>
														</group>
													</outputs>
													<track TL.SQTrackAudioKeyframeStyle="0" TL.SQTrackShy="0" TL.SQTrackExpandedHeight="25" TL.SQTrackExpanded="0" MZ.TrackTargeted="1" PannerCurrentValue="0.5" PannerIsInverted="true" PannerStartKeyframe="-91445760000000000,0.5,0,0,0,0,0,0" PannerName="Balance" currentExplodedTrackIndex="0" totalExplodedTrackCount="2" premiereTrackType="Stereo">
														<enabled>TRUE</enabled>
														<locked>FALSE</locked>
														<outputchannelindex>1</outputchannelindex>
													</track>
													<track TL.SQTrackAudioKeyframeStyle="0" TL.SQTrackShy="0" TL.SQTrackExpandedHeight="25" TL.SQTrackExpanded="0" MZ.TrackTargeted="1" PannerCurrentValue="0.5" PannerIsInverted="true" PannerStartKeyframe="-91445760000000000,0.5,0,0,0,0,0,0" PannerName="Balance" currentExplodedTrackIndex="1" totalExplodedTrackCount="2" premiereTrackType="Stereo">
														<enabled>TRUE</enabled>
														<locked>FALSE</locked>
														<outputchannelindex>2</outputchannelindex>
													</track>
												</audio>
											</media>
											<timecode>
												<rate>
													<timebase>30</timebase>
													<ntsc>TRUE</ntsc>
												</rate>
												<string>00;00;00;00</string>
												<frame>0</frame>
												<displayformat>DF</displayformat>
											</timecode>
											<logginginfo>
												<description></description>
												<scene></scene>
												<shottake></shottake>
												<lognote></lognote>
												<good></good>
												<originalvideofilename></originalvideofilename>
												<originalaudiofilename></originalaudiofilename>
											</logginginfo>
										</sequence>
										<labels>
											<label2>Forest</label2>
										</labels>
									</clipitem>
									<clipitem id="clipitem-84">
										<masterclipid>masterclip-28</masterclipid>
										<name>ART_THEWORDDEGREE_0.5</name>
										<enabled>TRUE</enabled>
										<duration>1219</duration>
										<rate>
											<timebase>30</timebase>
											<ntsc>TRUE</ntsc>
										</rate>
										<start>4383</start>
										<end>5488</end>
										<in>0</in>
										<out>1105</out>
										<pproTicksIn>0</pproTicksIn>
										<pproTicksOut>9365612256000</pproTicksOut>
										<sequence id="sequence-9" TL.SQAudioVisibleBase="0" TL.SQVideoVisibleBase="0" TL.SQVisibleBaseTime="7140004766797" TL.SQAVDividerPosition="0.5" TL.SQHideShyTracks="0" TL.SQHeaderWidth="236" TL.SQDataTrackViewControlState="0" Monitor.ProgramZoomOut="9365612256000" Monitor.ProgramZoomIn="0" TL.SQTimePerPixel="0.016411051814653282" MZ.EditLine="8687558880000" MZ.Sequence.PreviewFrameSizeHeight="1080" MZ.Sequence.PreviewFrameSizeWidth="1920" MZ.Sequence.AudioTimeDisplayFormat="200" MZ.Sequence.PreviewRenderingClassID="1061109567" MZ.Sequence.PreviewRenderingPresetCodec="1634755443" MZ.Sequence.PreviewRenderingPresetPath="EncoderPresets/SequencePreview/35d109db-457b-43c1-9452-9cb7be9f121c/QuickTime.epr" MZ.Sequence.PreviewUseMaxRenderQuality="false" MZ.Sequence.PreviewUseMaxBitDepth="false" MZ.Sequence.EditingModeGUID="35d109db-457b-43c1-9452-9cb7be9f121c" MZ.Sequence.VideoTimeDisplayFormat="102" MZ.WorkOutPoint="10365740985600" MZ.WorkInPoint="7144987449600">
											<duration>1105</duration>
											<rate>
												<timebase>30</timebase>
												<ntsc>TRUE</ntsc>
											</rate>
											<name>ART_THEWORDDEGREE_0.5</name>
											<media>
												<video>
													<format>
														<samplecharacteristics>
															<rate>
																<timebase>30</timebase>
																<ntsc>TRUE</ntsc>
															</rate>
															<codec>
																<name>Apple ProRes 422</name>
																<appspecificdata>
																	<appname>Final Cut Pro</appname>
																	<appmanufacturer>Apple Inc.</appmanufacturer>
																	<appversion>7.0</appversion>
																	<data>
																		<qtcodec>
																			<codecname>Apple ProRes 422</codecname>
																			<codectypename>Apple ProRes 422</codectypename>
																			<codectypecode>apcn</codectypecode>
																			<codecvendorcode>appl</codecvendorcode>
																			<spatialquality>1024</spatialquality>
																			<temporalquality>0</temporalquality>
																			<keyframerate>0</keyframerate>
																			<datarate>0</datarate>
																		</qtcodec>
																	</data>
																</appspecificdata>
															</codec>
															<width>1920</width>
															<height>1080</height>
															<anamorphic>FALSE</anamorphic>
															<pixelaspectratio>square</pixelaspectratio>
															<fielddominance>none</fielddominance>
															<colordepth>24</colordepth>
														</samplecharacteristics>
													</format>
													<track TL.SQTrackShy="0" TL.SQTrackExpandedHeight="25" TL.SQTrackExpanded="0" MZ.TrackTargeted="1">
														<clipitem id="clipitem-85">
															<masterclipid>masterclip-29</masterclipid>
															<name>(cooper_calligraphy)_BmJO-PMgkmG_IG.mp4</name>
															<enabled>TRUE</enabled>
															<duration>437</duration>
															<rate>
																<timebase>30</timebase>
																<ntsc>TRUE</ntsc>
															</rate>
															<start>0</start>
															<end>416</end>
															<in>0</in>
															<out>415</out>
															<pproTicksIn>0</pproTicksIn>
															<pproTicksOut>6309465098777</pproTicksOut>
															<alphatype>none</alphatype>
															<pixelaspectratio>square</pixelaspectratio>
															<anamorphic>FALSE</anamorphic>
															<file id="file-23">
																<name>(cooper_calligraphy)_BmJO-PMgkmG_IG.mp4</name>
																<pathurl>file://localhost/Volumes/CONTENT/VOD%20CONTENT%20ARCHIVE/O&amp;O%20Archive%202023/CRAFTY/03_March/Crafty_3-20-2023/3_Raw%20Files/calligraphy/(cooper_calligraphy)_BmJO-PMgkmG_IG.mp4</pathurl>
																<rate>
																	<timebase>30</timebase>
																	<ntsc>FALSE</ntsc>
																</rate>
																<duration>783</duration>
																<timecode>
																	<rate>
																		<timebase>30</timebase>
																		<ntsc>FALSE</ntsc>
																	</rate>
																	<string>00:00:00:00</string>
																	<frame>0</frame>
																	<displayformat>NDF</displayformat>
																</timecode>
																<media>
																	<video>
																		<samplecharacteristics>
																			<rate>
																				<timebase>30</timebase>
																				<ntsc>FALSE</ntsc>
																			</rate>
																			<width>640</width>
																			<height>800</height>
																			<anamorphic>FALSE</anamorphic>
																			<pixelaspectratio>square</pixelaspectratio>
																			<fielddominance>none</fielddominance>
																		</samplecharacteristics>
																	</video>
																</media>
															</file>
															<filter>
																<effect>
																	<name>Basic Motion</name>
																	<effectid>basic</effectid>
																	<effectcategory>motion</effectcategory>
																	<effecttype>motion</effecttype>
																	<mediatype>video</mediatype>
																	<pproBypass>false</pproBypass>
																	<parameter authoringApp="PremierePro">
																		<parameterid>scale</parameterid>
																		<name>Scale</name>
																		<valuemin>0</valuemin>
																		<valuemax>1000</valuemax>
																		<value>394</value>
																	</parameter>
																	<parameter authoringApp="PremierePro">
																		<parameterid>rotation</parameterid>
																		<name>Rotation</name>
																		<valuemin>-8640</valuemin>
																		<valuemax>8640</valuemax>
																		<value>0</value>
																	</parameter>
																	<parameter authoringApp="PremierePro">
																		<parameterid>center</parameterid>
																		<name>Center</name>
																		<value>
																			<horiz>0</horiz>
																			<vert>0</vert>
																		</value>
																	</parameter>
																	<parameter authoringApp="PremierePro">
																		<parameterid>centerOffset</parameterid>
																		<name>Anchor Point</name>
																		<value>
																			<horiz>0</horiz>
																			<vert>0</vert>
																		</value>
																	</parameter>
																	<parameter authoringApp="PremierePro">
																		<parameterid>antiflicker</parameterid>
																		<name>Anti-flicker Filter</name>
																		<valuemin>0.0</valuemin>
																		<valuemax>1.0</valuemax>
																		<value>0</value>
																	</parameter>
																</effect>
															</filter>
															<filter>
																<effect>
																	<name>Gaussian Blur</name>
																	<effectid>Gaussian Blur</effectid>
																	<effectcategory>Blur</effectcategory>
																	<effecttype>motion</effecttype>
																	<mediatype>video</mediatype>
																	<pproBypass>false</pproBypass>
																	<parameter authoringApp="PremierePro">
																		<parameterid>radius</parameterid>
																		<name>Radius</name>
																		<valuemin>0</valuemin>
																		<valuemax>100</valuemax>
																		<value>25</value>
																	</parameter>
																</effect>
															</filter>
															<filter>
																<effect>
																	<name>Time Remap</name>
																	<effectid>timeremap</effectid>
																	<effectcategory>motion</effectcategory>
																	<effecttype>motion</effecttype>
																	<mediatype>video</mediatype>
																	<parameter authoringApp="PremierePro">
																		<parameterid>variablespeed</parameterid>
																		<name>variablespeed</name>
																		<valuemin>0</valuemin>
																		<valuemax>1</valuemax>
																		<value>0</value>
																	</parameter>
																	<parameter authoringApp="PremierePro">
																		<parameterid>speed</parameterid>
																		<name>speed</name>
																		<valuemin>-100000</valuemin>
																		<valuemax>100000</valuemax>
																		<value>178.947</value>
																	</parameter>
																	<parameter authoringApp="PremierePro">
																		<parameterid>reverse</parameterid>
																		<name>reverse</name>
																		<value>FALSE</value>
																	</parameter>
																	<parameter authoringApp="PremierePro">
																		<parameterid>frameblending</parameterid>
																		<name>frameblending</name>
																		<value>FALSE</value>
																	</parameter>
																	<parameter authoringApp="PremierePro">
																		<parameterid>graphdict</parameterid>
																		<name>graphdict</name>
																		<valuemin>0</valuemin>
																		<valuemax>782</valuemax>
																		<value>0</value>
																		<keyframe>
																			<when>0</when>
																			<value>0</value>
																			<speedvirtualkf>TRUE</speedvirtualkf>
																			<speedkfin>TRUE</speedkfin>
																		</keyframe>
																		<keyframe>
																			<when>415</when>
																			<value>742</value>
																			<speedvirtualkf>TRUE</speedvirtualkf>
																			<speedkfout>TRUE</speedkfout>
																		</keyframe>
																		<keyframe>
																			<when>437</when>
																			<value>782</value>
																			<speedvirtualkf>TRUE</speedvirtualkf>
																			<speedkfend>TRUE</speedkfend>
																		</keyframe>
																		<interpolation>
																			<name>FCPCurve</name>
																		</interpolation>
																	</parameter>
																</effect>
															</filter>
															<logginginfo>
																<description></description>
																<scene></scene>
																<shottake></shottake>
																<lognote></lognote>
																<good></good>
																<originalvideofilename></originalvideofilename>
																<originalaudiofilename></originalaudiofilename>
															</logginginfo>
															<colorinfo>
																<lut></lut>
																<lut1></lut1>
																<asc_sop></asc_sop>
																<asc_sat></asc_sat>
																<lut2></lut2>
															</colorinfo>
															<labels>
																<label2>Violet</label2>
															</labels>
														</clipitem>
														<clipitem id="clipitem-86">
															<masterclipid>masterclip-30</masterclipid>
															<name>(esthersletters)_CCgnYe1HAPF_IG.mp4</name>
															<enabled>TRUE</enabled>
															<duration>887</duration>
															<rate>
																<timebase>30</timebase>
																<ntsc>TRUE</ntsc>
															</rate>
															<start>416</start>
															<end>501</end>
															<in>79</in>
															<out>163</out>
															<pproTicksIn>1213121023431</pproTicksIn>
															<pproTicksOut>2521181138080</pproTicksOut>
															<alphatype>none</alphatype>
															<pixelaspectratio>square</pixelaspectratio>
															<anamorphic>FALSE</anamorphic>
															<file id="file-24">
																<name>(esthersletters)_CCgnYe1HAPF_IG.mp4</name>
																<pathurl>file://localhost/Volumes/CONTENT/VOD%20CONTENT%20ARCHIVE/O&amp;O%20Archive%202023/CRAFTY/03_March/Crafty_3-20-2023/3_Raw%20Files/calligraphy/(esthersletters)_CCgnYe1HAPF_IG.mp4</pathurl>
																<rate>
																	<timebase>30</timebase>
																	<ntsc>FALSE</ntsc>
																</rate>
																<duration>1614</duration>
																<timecode>
																	<rate>
																		<timebase>30</timebase>
																		<ntsc>FALSE</ntsc>
																	</rate>
																	<string>00:00:00:00</string>
																	<frame>0</frame>
																	<displayformat>NDF</displayformat>
																</timecode>
																<media>
																	<video>
																		<samplecharacteristics>
																			<rate>
																				<timebase>30</timebase>
																				<ntsc>FALSE</ntsc>
																			</rate>
																			<width>720</width>
																			<height>720</height>
																			<anamorphic>FALSE</anamorphic>
																			<pixelaspectratio>square</pixelaspectratio>
																			<fielddominance>none</fielddominance>
																		</samplecharacteristics>
																	</video>
																</media>
															</file>
															<filter>
																<effect>
																	<name>Basic Motion</name>
																	<effectid>basic</effectid>
																	<effectcategory>motion</effectcategory>
																	<effecttype>motion</effecttype>
																	<mediatype>video</mediatype>
																	<pproBypass>false</pproBypass>
																	<parameter authoringApp="PremierePro">
																		<parameterid>scale</parameterid>
																		<name>Scale</name>
																		<valuemin>0</valuemin>
																		<valuemax>1000</valuemax>
																		<value>380</value>
																	</parameter>
																	<parameter authoringApp="PremierePro">
																		<parameterid>rotation</parameterid>
																		<name>Rotation</name>
																		<valuemin>-8640</valuemin>
																		<valuemax>8640</valuemax>
																		<value>0</value>
																	</parameter>
																	<parameter authoringApp="PremierePro">
																		<parameterid>center</parameterid>
																		<name>Center</name>
																		<value>
																			<horiz>0</horiz>
																			<vert>0</vert>
																		</value>
																	</parameter>
																	<parameter authoringApp="PremierePro">
																		<parameterid>centerOffset</parameterid>
																		<name>Anchor Point</name>
																		<value>
																			<horiz>0</horiz>
																			<vert>0</vert>
																		</value>
																	</parameter>
																	<parameter authoringApp="PremierePro">
																		<parameterid>antiflicker</parameterid>
																		<name>Anti-flicker Filter</name>
																		<valuemin>0.0</valuemin>
																		<valuemax>1.0</valuemax>
																		<value>0</value>
																	</parameter>
																</effect>
															</filter>
															<filter>
																<effect>
																	<name>Gaussian Blur</name>
																	<effectid>Gaussian Blur</effectid>
																	<effectcategory>Blur</effectcategory>
																	<effecttype>motion</effecttype>
																	<mediatype>video</mediatype>
																	<pproBypass>false</pproBypass>
																	<parameter authoringApp="PremierePro">
																		<parameterid>radius</parameterid>
																		<name>Radius</name>
																		<valuemin>0</valuemin>
																		<valuemax>100</valuemax>
																		<value>25</value>
																	</parameter>
																</effect>
															</filter>
															<filter>
																<effect>
																	<name>Time Remap</name>
																	<effectid>timeremap</effectid>
																	<effectcategory>motion</effectcategory>
																	<effecttype>motion</effecttype>
																	<mediatype>video</mediatype>
																	<parameter authoringApp="PremierePro">
																		<parameterid>variablespeed</parameterid>
																		<name>variablespeed</name>
																		<valuemin>0</valuemin>
																		<valuemax>1</valuemax>
																		<value>0</value>
																	</parameter>
																	<parameter authoringApp="PremierePro">
																		<parameterid>speed</parameterid>
																		<name>speed</name>
																		<valuemin>-100000</valuemin>
																		<valuemax>100000</valuemax>
																		<value>181.566</value>
																	</parameter>
																	<parameter authoringApp="PremierePro">
																		<parameterid>reverse</parameterid>
																		<name>reverse</name>
																		<value>FALSE</value>
																	</parameter>
																	<parameter authoringApp="PremierePro">
																		<parameterid>frameblending</parameterid>
																		<name>frameblending</name>
																		<value>FALSE</value>
																	</parameter>
																	<parameter authoringApp="PremierePro">
																		<parameterid>graphdict</parameterid>
																		<name>graphdict</name>
																		<valuemin>0</valuemin>
																		<valuemax>1610</valuemax>
																		<value>0</value>
																		<keyframe>
																			<when>0</when>
																			<value>0</value>
																			<speedvirtualkf>TRUE</speedvirtualkf>
																			<speedkfstart>TRUE</speedkfstart>
																		</keyframe>
																		<keyframe>
																			<when>79</when>
																			<value>143</value>
																			<speedvirtualkf>TRUE</speedvirtualkf>
																			<speedkfin>TRUE</speedkfin>
																		</keyframe>
																		<keyframe>
																			<when>163</when>
																			<value>295</value>
																			<speedvirtualkf>TRUE</speedvirtualkf>
																			<speedkfout>TRUE</speedkfout>
																		</keyframe>
																		<keyframe>
																			<when>887</when>
																			<value>1610</value>
																			<speedvirtualkf>TRUE</speedvirtualkf>
																			<speedkfend>TRUE</speedkfend>
																		</keyframe>
																		<interpolation>
																			<name>FCPCurve</name>
																		</interpolation>
																	</parameter>
																</effect>
															</filter>
															<logginginfo>
																<description></description>
																<scene></scene>
																<shottake></shottake>
																<lognote></lognote>
																<good></good>
																<originalvideofilename></originalvideofilename>
																<originalaudiofilename></originalaudiofilename>
															</logginginfo>
															<colorinfo>
																<lut></lut>
																<lut1></lut1>
																<asc_sop></asc_sop>
																<asc_sat></asc_sat>
																<lut2></lut2>
															</colorinfo>
															<labels>
																<label2>Lavender</label2>
															</labels>
														</clipitem>
														<clipitem id="clipitem-87">
															<masterclipid>masterclip-30</masterclipid>
															<name>(esthersletters)_CCgnYe1HAPF_IG.mp4</name>
															<enabled>TRUE</enabled>
															<duration>887</duration>
															<rate>
																<timebase>30</timebase>
																<ntsc>TRUE</ntsc>
															</rate>
															<start>501</start>
															<end>807</end>
															<in>185</in>
															<out>490</out>
															<pproTicksIn>2844348931109</pproTicksIn>
															<pproTicksOut>7553365343853</pproTicksOut>
															<alphatype>none</alphatype>
															<file id="file-24"/>
															<filter>
																<effect>
																	<name>Basic Motion</name>
																	<effectid>basic</effectid>
																	<effectcategory>motion</effectcategory>
																	<effecttype>motion</effecttype>
																	<mediatype>video</mediatype>
																	<pproBypass>false</pproBypass>
																	<parameter authoringApp="PremierePro">
																		<parameterid>scale</parameterid>
																		<name>Scale</name>
																		<valuemin>0</valuemin>
																		<valuemax>1000</valuemax>
																		<value>380</value>
																	</parameter>
																	<parameter authoringApp="PremierePro">
																		<parameterid>rotation</parameterid>
																		<name>Rotation</name>
																		<valuemin>-8640</valuemin>
																		<valuemax>8640</valuemax>
																		<value>0</value>
																	</parameter>
																	<parameter authoringApp="PremierePro">
																		<parameterid>center</parameterid>
																		<name>Center</name>
																		<value>
																			<horiz>0</horiz>
																			<vert>0</vert>
																		</value>
																	</parameter>
																	<parameter authoringApp="PremierePro">
																		<parameterid>centerOffset</parameterid>
																		<name>Anchor Point</name>
																		<value>
																			<horiz>0</horiz>
																			<vert>0</vert>
																		</value>
																	</parameter>
																	<parameter authoringApp="PremierePro">
																		<parameterid>antiflicker</parameterid>
																		<name>Anti-flicker Filter</name>
																		<valuemin>0.0</valuemin>
																		<valuemax>1.0</valuemax>
																		<value>0</value>
																	</parameter>
																</effect>
															</filter>
															<filter>
																<effect>
																	<name>Gaussian Blur</name>
																	<effectid>Gaussian Blur</effectid>
																	<effectcategory>Blur</effectcategory>
																	<effecttype>motion</effecttype>
																	<mediatype>video</mediatype>
																	<pproBypass>false</pproBypass>
																	<parameter authoringApp="PremierePro">
																		<parameterid>radius</parameterid>
																		<name>Radius</name>
																		<valuemin>0</valuemin>
																		<valuemax>100</valuemax>
																		<value>25</value>
																	</parameter>
																</effect>
															</filter>
															<filter>
																<effect>
																	<name>Time Remap</name>
																	<effectid>timeremap</effectid>
																	<effectcategory>motion</effectcategory>
																	<effecttype>motion</effecttype>
																	<mediatype>video</mediatype>
																	<parameter authoringApp="PremierePro">
																		<parameterid>variablespeed</parameterid>
																		<name>variablespeed</name>
																		<valuemin>0</valuemin>
																		<valuemax>1</valuemax>
																		<value>0</value>
																	</parameter>
																	<parameter authoringApp="PremierePro">
																		<parameterid>speed</parameterid>
																		<name>speed</name>
																		<valuemin>-100000</valuemin>
																		<valuemax>100000</valuemax>
																		<value>181.566</value>
																	</parameter>
																	<parameter authoringApp="PremierePro">
																		<parameterid>reverse</parameterid>
																		<name>reverse</name>
																		<value>FALSE</value>
																	</parameter>
																	<parameter authoringApp="PremierePro">
																		<parameterid>frameblending</parameterid>
																		<name>frameblending</name>
																		<value>FALSE</value>
																	</parameter>
																	<parameter authoringApp="PremierePro">
																		<parameterid>graphdict</parameterid>
																		<name>graphdict</name>
																		<valuemin>0</valuemin>
																		<valuemax>1610</valuemax>
																		<value>0</value>
																		<keyframe>
																			<when>0</when>
																			<value>0</value>
																			<speedvirtualkf>TRUE</speedvirtualkf>
																			<speedkfstart>TRUE</speedkfstart>
																		</keyframe>
																		<keyframe>
																			<when>185</when>
																			<value>335</value>
																			<speedvirtualkf>TRUE</speedvirtualkf>
																			<speedkfin>TRUE</speedkfin>
																		</keyframe>
																		<keyframe>
																			<when>490</when>
																			<value>889</value>
																			<speedvirtualkf>TRUE</speedvirtualkf>
																			<speedkfout>TRUE</speedkfout>
																		</keyframe>
																		<keyframe>
																			<when>887</when>
																			<value>1610</value>
																			<speedvirtualkf>TRUE</speedvirtualkf>
																			<speedkfend>TRUE</speedkfend>
																		</keyframe>
																		<interpolation>
																			<name>FCPCurve</name>
																		</interpolation>
																	</parameter>
																</effect>
															</filter>
															<logginginfo>
																<description></description>
																<scene></scene>
																<shottake></shottake>
																<lognote></lognote>
																<good></good>
																<originalvideofilename></originalvideofilename>
																<originalaudiofilename></originalaudiofilename>
															</logginginfo>
															<colorinfo>
																<lut></lut>
																<lut1></lut1>
																<asc_sop></asc_sop>
																<asc_sat></asc_sat>
																<lut2></lut2>
															</colorinfo>
															<labels>
																<label2>Lavender</label2>
															</labels>
														</clipitem>
														<clipitem id="clipitem-88">
															<masterclipid>masterclip-30</masterclipid>
															<name>(esthersletters)_CCgnYe1HAPF_IG.mp4</name>
															<enabled>TRUE</enabled>
															<duration>887</duration>
															<rate>
																<timebase>30</timebase>
																<ntsc>TRUE</ntsc>
															</rate>
															<start>807</start>
															<end>1013</end>
															<in>525</in>
															<out>730</out>
															<pproTicksIn>8076589389708</pproTicksIn>
															<pproTicksOut>11246711549926</pproTicksOut>
															<alphatype>none</alphatype>
															<file id="file-24"/>
															<filter>
																<effect>
																	<name>Basic Motion</name>
																	<effectid>basic</effectid>
																	<effectcategory>motion</effectcategory>
																	<effecttype>motion</effecttype>
																	<mediatype>video</mediatype>
																	<pproBypass>false</pproBypass>
																	<parameter authoringApp="PremierePro">
																		<parameterid>scale</parameterid>
																		<name>Scale</name>
																		<valuemin>0</valuemin>
																		<valuemax>1000</valuemax>
																		<value>380</value>
																	</parameter>
																	<parameter authoringApp="PremierePro">
																		<parameterid>rotation</parameterid>
																		<name>Rotation</name>
																		<valuemin>-8640</valuemin>
																		<valuemax>8640</valuemax>
																		<value>0</value>
																	</parameter>
																	<parameter authoringApp="PremierePro">
																		<parameterid>center</parameterid>
																		<name>Center</name>
																		<value>
																			<horiz>0</horiz>
																			<vert>0</vert>
																		</value>
																	</parameter>
																	<parameter authoringApp="PremierePro">
																		<parameterid>centerOffset</parameterid>
																		<name>Anchor Point</name>
																		<value>
																			<horiz>0</horiz>
																			<vert>0</vert>
																		</value>
																	</parameter>
																	<parameter authoringApp="PremierePro">
																		<parameterid>antiflicker</parameterid>
																		<name>Anti-flicker Filter</name>
																		<valuemin>0.0</valuemin>
																		<valuemax>1.0</valuemax>
																		<value>0</value>
																	</parameter>
																</effect>
															</filter>
															<filter>
																<effect>
																	<name>Gaussian Blur</name>
																	<effectid>Gaussian Blur</effectid>
																	<effectcategory>Blur</effectcategory>
																	<effecttype>motion</effecttype>
																	<mediatype>video</mediatype>
																	<pproBypass>false</pproBypass>
																	<parameter authoringApp="PremierePro">
																		<parameterid>radius</parameterid>
																		<name>Radius</name>
																		<valuemin>0</valuemin>
																		<valuemax>100</valuemax>
																		<value>25</value>
																	</parameter>
																</effect>
															</filter>
															<filter>
																<effect>
																	<name>Time Remap</name>
																	<effectid>timeremap</effectid>
																	<effectcategory>motion</effectcategory>
																	<effecttype>motion</effecttype>
																	<mediatype>video</mediatype>
																	<parameter authoringApp="PremierePro">
																		<parameterid>variablespeed</parameterid>
																		<name>variablespeed</name>
																		<valuemin>0</valuemin>
																		<valuemax>1</valuemax>
																		<value>0</value>
																	</parameter>
																	<parameter authoringApp="PremierePro">
																		<parameterid>speed</parameterid>
																		<name>speed</name>
																		<valuemin>-100000</valuemin>
																		<valuemax>100000</valuemax>
																		<value>181.566</value>
																	</parameter>
																	<parameter authoringApp="PremierePro">
																		<parameterid>reverse</parameterid>
																		<name>reverse</name>
																		<value>FALSE</value>
																	</parameter>
																	<parameter authoringApp="PremierePro">
																		<parameterid>frameblending</parameterid>
																		<name>frameblending</name>
																		<value>FALSE</value>
																	</parameter>
																	<parameter authoringApp="PremierePro">
																		<parameterid>graphdict</parameterid>
																		<name>graphdict</name>
																		<valuemin>0</valuemin>
																		<valuemax>1610</valuemax>
																		<value>0</value>
																		<keyframe>
																			<when>0</when>
																			<value>0</value>
																			<speedvirtualkf>TRUE</speedvirtualkf>
																			<speedkfstart>TRUE</speedkfstart>
																		</keyframe>
																		<keyframe>
																			<when>525</when>
																			<value>953</value>
																			<speedvirtualkf>TRUE</speedvirtualkf>
																			<speedkfin>TRUE</speedkfin>
																		</keyframe>
																		<keyframe>
																			<when>730</when>
																			<value>1325</value>
																			<speedvirtualkf>TRUE</speedvirtualkf>
																			<speedkfout>TRUE</speedkfout>
																		</keyframe>
																		<keyframe>
																			<when>887</when>
																			<value>1610</value>
																			<speedvirtualkf>TRUE</speedvirtualkf>
																			<speedkfend>TRUE</speedkfend>
																		</keyframe>
																		<interpolation>
																			<name>FCPCurve</name>
																		</interpolation>
																	</parameter>
																</effect>
															</filter>
															<logginginfo>
																<description></description>
																<scene></scene>
																<shottake></shottake>
																<lognote></lognote>
																<good></good>
																<originalvideofilename></originalvideofilename>
																<originalaudiofilename></originalaudiofilename>
															</logginginfo>
															<colorinfo>
																<lut></lut>
																<lut1></lut1>
																<asc_sop></asc_sop>
																<asc_sat></asc_sat>
																<lut2></lut2>
															</colorinfo>
															<labels>
																<label2>Lavender</label2>
															</labels>
														</clipitem>
														<clipitem id="clipitem-89">
															<masterclipid>masterclip-30</masterclipid>
															<name>(esthersletters)_CCgnYe1HAPF_IG.mp4</name>
															<enabled>TRUE</enabled>
															<duration>887</duration>
															<rate>
																<timebase>30</timebase>
																<ntsc>TRUE</ntsc>
															</rate>
															<start>1013</start>
															<end>1073</end>
															<in>785</in>
															<out>844</out>
															<pproTicksIn>12077714446278</pproTicksIn>
															<pproTicksOut>13001050997810</pproTicksOut>
															<alphatype>none</alphatype>
															<file id="file-24"/>
															<filter>
																<effect>
																	<name>Basic Motion</name>
																	<effectid>basic</effectid>
																	<effectcategory>motion</effectcategory>
																	<effecttype>motion</effecttype>
																	<mediatype>video</mediatype>
																	<pproBypass>false</pproBypass>
																	<parameter authoringApp="PremierePro">
																		<parameterid>scale</parameterid>
																		<name>Scale</name>
																		<valuemin>0</valuemin>
																		<valuemax>1000</valuemax>
																		<value>380</value>
																	</parameter>
																	<parameter authoringApp="PremierePro">
																		<parameterid>rotation</parameterid>
																		<name>Rotation</name>
																		<valuemin>-8640</valuemin>
																		<valuemax>8640</valuemax>
																		<value>0</value>
																	</parameter>
																	<parameter authoringApp="PremierePro">
																		<parameterid>center</parameterid>
																		<name>Center</name>
																		<value>
																			<horiz>0</horiz>
																			<vert>0</vert>
																		</value>
																	</parameter>
																	<parameter authoringApp="PremierePro">
																		<parameterid>centerOffset</parameterid>
																		<name>Anchor Point</name>
																		<value>
																			<horiz>0</horiz>
																			<vert>0</vert>
																		</value>
																	</parameter>
																	<parameter authoringApp="PremierePro">
																		<parameterid>antiflicker</parameterid>
																		<name>Anti-flicker Filter</name>
																		<valuemin>0.0</valuemin>
																		<valuemax>1.0</valuemax>
																		<value>0</value>
																	</parameter>
																</effect>
															</filter>
															<filter>
																<effect>
																	<name>Gaussian Blur</name>
																	<effectid>Gaussian Blur</effectid>
																	<effectcategory>Blur</effectcategory>
																	<effecttype>motion</effecttype>
																	<mediatype>video</mediatype>
																	<pproBypass>false</pproBypass>
																	<parameter authoringApp="PremierePro">
																		<parameterid>radius</parameterid>
																		<name>Radius</name>
																		<valuemin>0</valuemin>
																		<valuemax>100</valuemax>
																		<value>25</value>
																	</parameter>
																</effect>
															</filter>
															<filter>
																<effect>
																	<name>Time Remap</name>
																	<effectid>timeremap</effectid>
																	<effectcategory>motion</effectcategory>
																	<effecttype>motion</effecttype>
																	<mediatype>video</mediatype>
																	<parameter authoringApp="PremierePro">
																		<parameterid>variablespeed</parameterid>
																		<name>variablespeed</name>
																		<valuemin>0</valuemin>
																		<valuemax>1</valuemax>
																		<value>0</value>
																	</parameter>
																	<parameter authoringApp="PremierePro">
																		<parameterid>speed</parameterid>
																		<name>speed</name>
																		<valuemin>-100000</valuemin>
																		<valuemax>100000</valuemax>
																		<value>181.566</value>
																	</parameter>
																	<parameter authoringApp="PremierePro">
																		<parameterid>reverse</parameterid>
																		<name>reverse</name>
																		<value>FALSE</value>
																	</parameter>
																	<parameter authoringApp="PremierePro">
																		<parameterid>frameblending</parameterid>
																		<name>frameblending</name>
																		<value>FALSE</value>
																	</parameter>
																	<parameter authoringApp="PremierePro">
																		<parameterid>graphdict</parameterid>
																		<name>graphdict</name>
																		<valuemin>0</valuemin>
																		<valuemax>1610</valuemax>
																		<value>0</value>
																		<keyframe>
																			<when>0</when>
																			<value>0</value>
																			<speedvirtualkf>TRUE</speedvirtualkf>
																			<speedkfstart>TRUE</speedkfstart>
																		</keyframe>
																		<keyframe>
																			<when>785</when>
																			<value>1425</value>
																			<speedvirtualkf>TRUE</speedvirtualkf>
																			<speedkfin>TRUE</speedkfin>
																		</keyframe>
																		<keyframe>
																			<when>844</when>
																			<value>1532</value>
																			<speedvirtualkf>TRUE</speedvirtualkf>
																			<speedkfout>TRUE</speedkfout>
																		</keyframe>
																		<keyframe>
																			<when>887</when>
																			<value>1610</value>
																			<speedvirtualkf>TRUE</speedvirtualkf>
																			<speedkfend>TRUE</speedkfend>
																		</keyframe>
																		<interpolation>
																			<name>FCPCurve</name>
																		</interpolation>
																	</parameter>
																</effect>
															</filter>
															<logginginfo>
																<description></description>
																<scene></scene>
																<shottake></shottake>
																<lognote></lognote>
																<good></good>
																<originalvideofilename></originalvideofilename>
																<originalaudiofilename></originalaudiofilename>
															</logginginfo>
															<colorinfo>
																<lut></lut>
																<lut1></lut1>
																<asc_sop></asc_sop>
																<asc_sat></asc_sat>
																<lut2></lut2>
															</colorinfo>
															<labels>
																<label2>Lavender</label2>
															</labels>
														</clipitem>
														<clipitem id="clipitem-90">
															<masterclipid>masterclip-30</masterclipid>
															<name>(esthersletters)_CCgnYe1HAPF_IG.mp4</name>
															<enabled>TRUE</enabled>
															<duration>887</duration>
															<rate>
																<timebase>30</timebase>
																<ntsc>TRUE</ntsc>
															</rate>
															<start>1073</start>
															<end>1105</end>
															<in>856</in>
															<out>887</out>
															<pproTicksIn>13170329365576</pproTicksIn>
															<pproTicksOut>13662775526400</pproTicksOut>
															<alphatype>none</alphatype>
															<file id="file-24"/>
															<filter>
																<effect>
																	<name>Basic Motion</name>
																	<effectid>basic</effectid>
																	<effectcategory>motion</effectcategory>
																	<effecttype>motion</effecttype>
																	<mediatype>video</mediatype>
																	<pproBypass>false</pproBypass>
																	<parameter authoringApp="PremierePro">
																		<parameterid>scale</parameterid>
																		<name>Scale</name>
																		<valuemin>0</valuemin>
																		<valuemax>1000</valuemax>
																		<value>380</value>
																	</parameter>
																	<parameter authoringApp="PremierePro">
																		<parameterid>rotation</parameterid>
																		<name>Rotation</name>
																		<valuemin>-8640</valuemin>
																		<valuemax>8640</valuemax>
																		<value>0</value>
																	</parameter>
																	<parameter authoringApp="PremierePro">
																		<parameterid>center</parameterid>
																		<name>Center</name>
																		<value>
																			<horiz>0</horiz>
																			<vert>0</vert>
																		</value>
																	</parameter>
																	<parameter authoringApp="PremierePro">
																		<parameterid>centerOffset</parameterid>
																		<name>Anchor Point</name>
																		<value>
																			<horiz>0</horiz>
																			<vert>0</vert>
																		</value>
																	</parameter>
																	<parameter authoringApp="PremierePro">
																		<parameterid>antiflicker</parameterid>
																		<name>Anti-flicker Filter</name>
																		<valuemin>0.0</valuemin>
																		<valuemax>1.0</valuemax>
																		<value>0</value>
																	</parameter>
																</effect>
															</filter>
															<filter>
																<effect>
																	<name>Gaussian Blur</name>
																	<effectid>Gaussian Blur</effectid>
																	<effectcategory>Blur</effectcategory>
																	<effecttype>motion</effecttype>
																	<mediatype>video</mediatype>
																	<pproBypass>false</pproBypass>
																	<parameter authoringApp="PremierePro">
																		<parameterid>radius</parameterid>
																		<name>Radius</name>
																		<valuemin>0</valuemin>
																		<valuemax>100</valuemax>
																		<value>25</value>
																	</parameter>
																</effect>
															</filter>
															<filter>
																<effect>
																	<name>Time Remap</name>
																	<effectid>timeremap</effectid>
																	<effectcategory>motion</effectcategory>
																	<effecttype>motion</effecttype>
																	<mediatype>video</mediatype>
																	<parameter authoringApp="PremierePro">
																		<parameterid>variablespeed</parameterid>
																		<name>variablespeed</name>
																		<valuemin>0</valuemin>
																		<valuemax>1</valuemax>
																		<value>0</value>
																	</parameter>
																	<parameter authoringApp="PremierePro">
																		<parameterid>speed</parameterid>
																		<name>speed</name>
																		<valuemin>-100000</valuemin>
																		<valuemax>100000</valuemax>
																		<value>181.566</value>
																	</parameter>
																	<parameter authoringApp="PremierePro">
																		<parameterid>reverse</parameterid>
																		<name>reverse</name>
																		<value>FALSE</value>
																	</parameter>
																	<parameter authoringApp="PremierePro">
																		<parameterid>frameblending</parameterid>
																		<name>frameblending</name>
																		<value>FALSE</value>
																	</parameter>
																	<parameter authoringApp="PremierePro">
																		<parameterid>graphdict</parameterid>
																		<name>graphdict</name>
																		<valuemin>0</valuemin>
																		<valuemax>1610</valuemax>
																		<value>0</value>
																		<keyframe>
																			<when>0</when>
																			<value>0</value>
																			<speedvirtualkf>TRUE</speedvirtualkf>
																			<speedkfstart>TRUE</speedkfstart>
																		</keyframe>
																		<keyframe>
																			<when>856</when>
																			<value>1554</value>
																			<speedvirtualkf>TRUE</speedvirtualkf>
																			<speedkfin>TRUE</speedkfin>
																		</keyframe>
																		<keyframe>
																			<when>887</when>
																			<value>1610</value>
																			<speedvirtualkf>TRUE</speedvirtualkf>
																			<speedkfout>TRUE</speedkfout>
																		</keyframe>
																		<interpolation>
																			<name>FCPCurve</name>
																		</interpolation>
																	</parameter>
																</effect>
															</filter>
															<logginginfo>
																<description></description>
																<scene></scene>
																<shottake></shottake>
																<lognote></lognote>
																<good></good>
																<originalvideofilename></originalvideofilename>
																<originalaudiofilename></originalaudiofilename>
															</logginginfo>
															<colorinfo>
																<lut></lut>
																<lut1></lut1>
																<asc_sop></asc_sop>
																<asc_sat></asc_sat>
																<lut2></lut2>
															</colorinfo>
															<labels>
																<label2>Lavender</label2>
															</labels>
														</clipitem>
														<enabled>TRUE</enabled>
														<locked>FALSE</locked>
													</track>
													<track TL.SQTrackShy="0" TL.SQTrackExpandedHeight="25" TL.SQTrackExpanded="0" MZ.TrackTargeted="0">
														<clipitem id="clipitem-91">
															<masterclipid>masterclip-29</masterclipid>
															<name>(cooper_calligraphy)_BmJO-PMgkmG_IG.mp4</name>
															<enabled>TRUE</enabled>
															<duration>437</duration>
															<rate>
																<timebase>30</timebase>
																<ntsc>TRUE</ntsc>
															</rate>
															<start>0</start>
															<end>416</end>
															<in>0</in>
															<out>415</out>
															<pproTicksIn>0</pproTicksIn>
															<pproTicksOut>6309465098777</pproTicksOut>
															<alphatype>none</alphatype>
															<file id="file-23"/>
															<filter>
																<effect>
																	<name>Basic Motion</name>
																	<effectid>basic</effectid>
																	<effectcategory>motion</effectcategory>
																	<effecttype>motion</effecttype>
																	<mediatype>video</mediatype>
																	<pproBypass>false</pproBypass>
																	<parameter authoringApp="PremierePro">
																		<parameterid>scale</parameterid>
																		<name>Scale</name>
																		<valuemin>0</valuemin>
																		<valuemax>1000</valuemax>
																		<value>144</value>
																	</parameter>
																	<parameter authoringApp="PremierePro">
																		<parameterid>rotation</parameterid>
																		<name>Rotation</name>
																		<valuemin>-8640</valuemin>
																		<valuemax>8640</valuemax>
																		<value>0</value>
																	</parameter>
																	<parameter authoringApp="PremierePro">
																		<parameterid>center</parameterid>
																		<name>Center</name>
																		<value>
																			<horiz>0</horiz>
																			<vert>0</vert>
																		</value>
																	</parameter>
																	<parameter authoringApp="PremierePro">
																		<parameterid>centerOffset</parameterid>
																		<name>Anchor Point</name>
																		<value>
																			<horiz>0</horiz>
																			<vert>0</vert>
																		</value>
																	</parameter>
																	<parameter authoringApp="PremierePro">
																		<parameterid>antiflicker</parameterid>
																		<name>Anti-flicker Filter</name>
																		<valuemin>0.0</valuemin>
																		<valuemax>1.0</valuemax>
																		<value>0</value>
																	</parameter>
																</effect>
															</filter>
															<filter>
																<effect>
																	<name>Time Remap</name>
																	<effectid>timeremap</effectid>
																	<effectcategory>motion</effectcategory>
																	<effecttype>motion</effecttype>
																	<mediatype>video</mediatype>
																	<parameter authoringApp="PremierePro">
																		<parameterid>variablespeed</parameterid>
																		<name>variablespeed</name>
																		<valuemin>0</valuemin>
																		<valuemax>1</valuemax>
																		<value>0</value>
																	</parameter>
																	<parameter authoringApp="PremierePro">
																		<parameterid>speed</parameterid>
																		<name>speed</name>
																		<valuemin>-100000</valuemin>
																		<valuemax>100000</valuemax>
																		<value>178.947</value>
																	</parameter>
																	<parameter authoringApp="PremierePro">
																		<parameterid>reverse</parameterid>
																		<name>reverse</name>
																		<value>FALSE</value>
																	</parameter>
																	<parameter authoringApp="PremierePro">
																		<parameterid>frameblending</parameterid>
																		<name>frameblending</name>
																		<value>FALSE</value>
																	</parameter>
																	<parameter authoringApp="PremierePro">
																		<parameterid>graphdict</parameterid>
																		<name>graphdict</name>
																		<valuemin>0</valuemin>
																		<valuemax>782</valuemax>
																		<value>0</value>
																		<keyframe>
																			<when>0</when>
																			<value>0</value>
																			<speedvirtualkf>TRUE</speedvirtualkf>
																			<speedkfin>TRUE</speedkfin>
																		</keyframe>
																		<keyframe>
																			<when>415</when>
																			<value>742</value>
																			<speedvirtualkf>TRUE</speedvirtualkf>
																			<speedkfout>TRUE</speedkfout>
																		</keyframe>
																		<keyframe>
																			<when>437</when>
																			<value>782</value>
																			<speedvirtualkf>TRUE</speedvirtualkf>
																			<speedkfend>TRUE</speedkfend>
																		</keyframe>
																		<interpolation>
																			<name>FCPCurve</name>
																		</interpolation>
																	</parameter>
																</effect>
															</filter>
															<logginginfo>
																<description></description>
																<scene></scene>
																<shottake></shottake>
																<lognote></lognote>
																<good></good>
																<originalvideofilename></originalvideofilename>
																<originalaudiofilename></originalaudiofilename>
															</logginginfo>
															<colorinfo>
																<lut></lut>
																<lut1></lut1>
																<asc_sop></asc_sop>
																<asc_sat></asc_sat>
																<lut2></lut2>
															</colorinfo>
															<labels>
																<label2>Violet</label2>
															</labels>
														</clipitem>
														<clipitem id="clipitem-92">
															<masterclipid>masterclip-30</masterclipid>
															<name>(esthersletters)_CCgnYe1HAPF_IG.mp4</name>
															<enabled>TRUE</enabled>
															<duration>887</duration>
															<rate>
																<timebase>30</timebase>
																<ntsc>TRUE</ntsc>
															</rate>
															<start>416</start>
															<end>501</end>
															<in>79</in>
															<out>163</out>
															<pproTicksIn>1213121023431</pproTicksIn>
															<pproTicksOut>2521181138080</pproTicksOut>
															<alphatype>none</alphatype>
															<file id="file-24"/>
															<filter>
																<effect>
																	<name>Basic Motion</name>
																	<effectid>basic</effectid>
																	<effectcategory>motion</effectcategory>
																	<effecttype>motion</effecttype>
																	<mediatype>video</mediatype>
																	<pproBypass>false</pproBypass>
																	<parameter authoringApp="PremierePro">
																		<parameterid>scale</parameterid>
																		<name>Scale</name>
																		<valuemin>0</valuemin>
																		<valuemax>1000</valuemax>
																		<value>188</value>
																	</parameter>
																	<parameter authoringApp="PremierePro">
																		<parameterid>rotation</parameterid>
																		<name>Rotation</name>
																		<valuemin>-8640</valuemin>
																		<valuemax>8640</valuemax>
																		<value>0</value>
																	</parameter>
																	<parameter authoringApp="PremierePro">
																		<parameterid>center</parameterid>
																		<name>Center</name>
																		<value>
																			<horiz>0</horiz>
																			<vert>0</vert>
																		</value>
																	</parameter>
																	<parameter authoringApp="PremierePro">
																		<parameterid>centerOffset</parameterid>
																		<name>Anchor Point</name>
																		<value>
																			<horiz>0</horiz>
																			<vert>0</vert>
																		</value>
																	</parameter>
																	<parameter authoringApp="PremierePro">
																		<parameterid>antiflicker</parameterid>
																		<name>Anti-flicker Filter</name>
																		<valuemin>0.0</valuemin>
																		<valuemax>1.0</valuemax>
																		<value>0</value>
																	</parameter>
																</effect>
															</filter>
															<filter>
																<effect>
																	<name>Time Remap</name>
																	<effectid>timeremap</effectid>
																	<effectcategory>motion</effectcategory>
																	<effecttype>motion</effecttype>
																	<mediatype>video</mediatype>
																	<parameter authoringApp="PremierePro">
																		<parameterid>variablespeed</parameterid>
																		<name>variablespeed</name>
																		<valuemin>0</valuemin>
																		<valuemax>1</valuemax>
																		<value>0</value>
																	</parameter>
																	<parameter authoringApp="PremierePro">
																		<parameterid>speed</parameterid>
																		<name>speed</name>
																		<valuemin>-100000</valuemin>
																		<valuemax>100000</valuemax>
																		<value>181.566</value>
																	</parameter>
																	<parameter authoringApp="PremierePro">
																		<parameterid>reverse</parameterid>
																		<name>reverse</name>
																		<value>FALSE</value>
																	</parameter>
																	<parameter authoringApp="PremierePro">
																		<parameterid>frameblending</parameterid>
																		<name>frameblending</name>
																		<value>FALSE</value>
																	</parameter>
																	<parameter authoringApp="PremierePro">
																		<parameterid>graphdict</parameterid>
																		<name>graphdict</name>
																		<valuemin>0</valuemin>
																		<valuemax>1610</valuemax>
																		<value>0</value>
																		<keyframe>
																			<when>0</when>
																			<value>0</value>
																			<speedvirtualkf>TRUE</speedvirtualkf>
																			<speedkfstart>TRUE</speedkfstart>
																		</keyframe>
																		<keyframe>
																			<when>79</when>
																			<value>143</value>
																			<speedvirtualkf>TRUE</speedvirtualkf>
																			<speedkfin>TRUE</speedkfin>
																		</keyframe>
																		<keyframe>
																			<when>163</when>
																			<value>295</value>
																			<speedvirtualkf>TRUE</speedvirtualkf>
																			<speedkfout>TRUE</speedkfout>
																		</keyframe>
																		<keyframe>
																			<when>887</when>
																			<value>1610</value>
																			<speedvirtualkf>TRUE</speedvirtualkf>
																			<speedkfend>TRUE</speedkfend>
																		</keyframe>
																		<interpolation>
																			<name>FCPCurve</name>
																		</interpolation>
																	</parameter>
																</effect>
															</filter>
															<logginginfo>
																<description></description>
																<scene></scene>
																<shottake></shottake>
																<lognote></lognote>
																<good></good>
																<originalvideofilename></originalvideofilename>
																<originalaudiofilename></originalaudiofilename>
															</logginginfo>
															<colorinfo>
																<lut></lut>
																<lut1></lut1>
																<asc_sop></asc_sop>
																<asc_sat></asc_sat>
																<lut2></lut2>
															</colorinfo>
															<labels>
																<label2>Lavender</label2>
															</labels>
														</clipitem>
														<clipitem id="clipitem-93">
															<masterclipid>masterclip-30</masterclipid>
															<name>(esthersletters)_CCgnYe1HAPF_IG.mp4</name>
															<enabled>TRUE</enabled>
															<duration>887</duration>
															<rate>
																<timebase>30</timebase>
																<ntsc>TRUE</ntsc>
															</rate>
															<start>501</start>
															<end>807</end>
															<in>185</in>
															<out>490</out>
															<pproTicksIn>2844348931109</pproTicksIn>
															<pproTicksOut>7553365343853</pproTicksOut>
															<alphatype>none</alphatype>
															<file id="file-24"/>
															<filter>
																<effect>
																	<name>Basic Motion</name>
																	<effectid>basic</effectid>
																	<effectcategory>motion</effectcategory>
																	<effecttype>motion</effecttype>
																	<mediatype>video</mediatype>
																	<pproBypass>false</pproBypass>
																	<parameter authoringApp="PremierePro">
																		<parameterid>scale</parameterid>
																		<name>Scale</name>
																		<valuemin>0</valuemin>
																		<valuemax>1000</valuemax>
																		<value>188</value>
																	</parameter>
																	<parameter authoringApp="PremierePro">
																		<parameterid>rotation</parameterid>
																		<name>Rotation</name>
																		<valuemin>-8640</valuemin>
																		<valuemax>8640</valuemax>
																		<value>0</value>
																	</parameter>
																	<parameter authoringApp="PremierePro">
																		<parameterid>center</parameterid>
																		<name>Center</name>
																		<value>
																			<horiz>0</horiz>
																			<vert>0</vert>
																		</value>
																	</parameter>
																	<parameter authoringApp="PremierePro">
																		<parameterid>centerOffset</parameterid>
																		<name>Anchor Point</name>
																		<value>
																			<horiz>0</horiz>
																			<vert>0</vert>
																		</value>
																	</parameter>
																	<parameter authoringApp="PremierePro">
																		<parameterid>antiflicker</parameterid>
																		<name>Anti-flicker Filter</name>
																		<valuemin>0.0</valuemin>
																		<valuemax>1.0</valuemax>
																		<value>0</value>
																	</parameter>
																</effect>
															</filter>
															<filter>
																<effect>
																	<name>Time Remap</name>
																	<effectid>timeremap</effectid>
																	<effectcategory>motion</effectcategory>
																	<effecttype>motion</effecttype>
																	<mediatype>video</mediatype>
																	<parameter authoringApp="PremierePro">
																		<parameterid>variablespeed</parameterid>
																		<name>variablespeed</name>
																		<valuemin>0</valuemin>
																		<valuemax>1</valuemax>
																		<value>0</value>
																	</parameter>
																	<parameter authoringApp="PremierePro">
																		<parameterid>speed</parameterid>
																		<name>speed</name>
																		<valuemin>-100000</valuemin>
																		<valuemax>100000</valuemax>
																		<value>181.566</value>
																	</parameter>
																	<parameter authoringApp="PremierePro">
																		<parameterid>reverse</parameterid>
																		<name>reverse</name>
																		<value>FALSE</value>
																	</parameter>
																	<parameter authoringApp="PremierePro">
																		<parameterid>frameblending</parameterid>
																		<name>frameblending</name>
																		<value>FALSE</value>
																	</parameter>
																	<parameter authoringApp="PremierePro">
																		<parameterid>graphdict</parameterid>
																		<name>graphdict</name>
																		<valuemin>0</valuemin>
																		<valuemax>1610</valuemax>
																		<value>0</value>
																		<keyframe>
																			<when>0</when>
																			<value>0</value>
																			<speedvirtualkf>TRUE</speedvirtualkf>
																			<speedkfstart>TRUE</speedkfstart>
																		</keyframe>
																		<keyframe>
																			<when>185</when>
																			<value>335</value>
																			<speedvirtualkf>TRUE</speedvirtualkf>
																			<speedkfin>TRUE</speedkfin>
																		</keyframe>
																		<keyframe>
																			<when>490</when>
																			<value>889</value>
																			<speedvirtualkf>TRUE</speedvirtualkf>
																			<speedkfout>TRUE</speedkfout>
																		</keyframe>
																		<keyframe>
																			<when>887</when>
																			<value>1610</value>
																			<speedvirtualkf>TRUE</speedvirtualkf>
																			<speedkfend>TRUE</speedkfend>
																		</keyframe>
																		<interpolation>
																			<name>FCPCurve</name>
																		</interpolation>
																	</parameter>
																</effect>
															</filter>
															<logginginfo>
																<description></description>
																<scene></scene>
																<shottake></shottake>
																<lognote></lognote>
																<good></good>
																<originalvideofilename></originalvideofilename>
																<originalaudiofilename></originalaudiofilename>
															</logginginfo>
															<colorinfo>
																<lut></lut>
																<lut1></lut1>
																<asc_sop></asc_sop>
																<asc_sat></asc_sat>
																<lut2></lut2>
															</colorinfo>
															<labels>
																<label2>Lavender</label2>
															</labels>
														</clipitem>
														<clipitem id="clipitem-94">
															<masterclipid>masterclip-30</masterclipid>
															<name>(esthersletters)_CCgnYe1HAPF_IG.mp4</name>
															<enabled>TRUE</enabled>
															<duration>887</duration>
															<rate>
																<timebase>30</timebase>
																<ntsc>TRUE</ntsc>
															</rate>
															<start>807</start>
															<end>1013</end>
															<in>525</in>
															<out>730</out>
															<pproTicksIn>8076589389708</pproTicksIn>
															<pproTicksOut>11246711549926</pproTicksOut>
															<alphatype>none</alphatype>
															<file id="file-24"/>
															<filter>
																<effect>
																	<name>Basic Motion</name>
																	<effectid>basic</effectid>
																	<effectcategory>motion</effectcategory>
																	<effecttype>motion</effecttype>
																	<mediatype>video</mediatype>
																	<pproBypass>false</pproBypass>
																	<parameter authoringApp="PremierePro">
																		<parameterid>scale</parameterid>
																		<name>Scale</name>
																		<valuemin>0</valuemin>
																		<valuemax>1000</valuemax>
																		<value>188</value>
																	</parameter>
																	<parameter authoringApp="PremierePro">
																		<parameterid>rotation</parameterid>
																		<name>Rotation</name>
																		<valuemin>-8640</valuemin>
																		<valuemax>8640</valuemax>
																		<value>0</value>
																	</parameter>
																	<parameter authoringApp="PremierePro">
																		<parameterid>center</parameterid>
																		<name>Center</name>
																		<value>
																			<horiz>0</horiz>
																			<vert>0</vert>
																		</value>
																	</parameter>
																	<parameter authoringApp="PremierePro">
																		<parameterid>centerOffset</parameterid>
																		<name>Anchor Point</name>
																		<value>
																			<horiz>0</horiz>
																			<vert>0</vert>
																		</value>
																	</parameter>
																	<parameter authoringApp="PremierePro">
																		<parameterid>antiflicker</parameterid>
																		<name>Anti-flicker Filter</name>
																		<valuemin>0.0</valuemin>
																		<valuemax>1.0</valuemax>
																		<value>0</value>
																	</parameter>
																</effect>
															</filter>
															<filter>
																<effect>
																	<name>Time Remap</name>
																	<effectid>timeremap</effectid>
																	<effectcategory>motion</effectcategory>
																	<effecttype>motion</effecttype>
																	<mediatype>video</mediatype>
																	<parameter authoringApp="PremierePro">
																		<parameterid>variablespeed</parameterid>
																		<name>variablespeed</name>
																		<valuemin>0</valuemin>
																		<valuemax>1</valuemax>
																		<value>0</value>
																	</parameter>
																	<parameter authoringApp="PremierePro">
																		<parameterid>speed</parameterid>
																		<name>speed</name>
																		<valuemin>-100000</valuemin>
																		<valuemax>100000</valuemax>
																		<value>181.566</value>
																	</parameter>
																	<parameter authoringApp="PremierePro">
																		<parameterid>reverse</parameterid>
																		<name>reverse</name>
																		<value>FALSE</value>
																	</parameter>
																	<parameter authoringApp="PremierePro">
																		<parameterid>frameblending</parameterid>
																		<name>frameblending</name>
																		<value>FALSE</value>
																	</parameter>
																	<parameter authoringApp="PremierePro">
																		<parameterid>graphdict</parameterid>
																		<name>graphdict</name>
																		<valuemin>0</valuemin>
																		<valuemax>1610</valuemax>
																		<value>0</value>
																		<keyframe>
																			<when>0</when>
																			<value>0</value>
																			<speedvirtualkf>TRUE</speedvirtualkf>
																			<speedkfstart>TRUE</speedkfstart>
																		</keyframe>
																		<keyframe>
																			<when>525</when>
																			<value>953</value>
																			<speedvirtualkf>TRUE</speedvirtualkf>
																			<speedkfin>TRUE</speedkfin>
																		</keyframe>
																		<keyframe>
																			<when>730</when>
																			<value>1325</value>
																			<speedvirtualkf>TRUE</speedvirtualkf>
																			<speedkfout>TRUE</speedkfout>
																		</keyframe>
																		<keyframe>
																			<when>887</when>
																			<value>1610</value>
																			<speedvirtualkf>TRUE</speedvirtualkf>
																			<speedkfend>TRUE</speedkfend>
																		</keyframe>
																		<interpolation>
																			<name>FCPCurve</name>
																		</interpolation>
																	</parameter>
																</effect>
															</filter>
															<logginginfo>
																<description></description>
																<scene></scene>
																<shottake></shottake>
																<lognote></lognote>
																<good></good>
																<originalvideofilename></originalvideofilename>
																<originalaudiofilename></originalaudiofilename>
															</logginginfo>
															<colorinfo>
																<lut></lut>
																<lut1></lut1>
																<asc_sop></asc_sop>
																<asc_sat></asc_sat>
																<lut2></lut2>
															</colorinfo>
															<labels>
																<label2>Lavender</label2>
															</labels>
														</clipitem>
														<clipitem id="clipitem-95">
															<masterclipid>masterclip-30</masterclipid>
															<name>(esthersletters)_CCgnYe1HAPF_IG.mp4</name>
															<enabled>TRUE</enabled>
															<duration>887</duration>
															<rate>
																<timebase>30</timebase>
																<ntsc>TRUE</ntsc>
															</rate>
															<start>1013</start>
															<end>1073</end>
															<in>785</in>
															<out>844</out>
															<pproTicksIn>12077714446279</pproTicksIn>
															<pproTicksOut>13001050997810</pproTicksOut>
															<alphatype>none</alphatype>
															<file id="file-24"/>
															<filter>
																<effect>
																	<name>Basic Motion</name>
																	<effectid>basic</effectid>
																	<effectcategory>motion</effectcategory>
																	<effecttype>motion</effecttype>
																	<mediatype>video</mediatype>
																	<pproBypass>false</pproBypass>
																	<parameter authoringApp="PremierePro">
																		<parameterid>scale</parameterid>
																		<name>Scale</name>
																		<valuemin>0</valuemin>
																		<valuemax>1000</valuemax>
																		<value>188</value>
																	</parameter>
																	<parameter authoringApp="PremierePro">
																		<parameterid>rotation</parameterid>
																		<name>Rotation</name>
																		<valuemin>-8640</valuemin>
																		<valuemax>8640</valuemax>
																		<value>0</value>
																	</parameter>
																	<parameter authoringApp="PremierePro">
																		<parameterid>center</parameterid>
																		<name>Center</name>
																		<value>
																			<horiz>0</horiz>
																			<vert>0</vert>
																		</value>
																	</parameter>
																	<parameter authoringApp="PremierePro">
																		<parameterid>centerOffset</parameterid>
																		<name>Anchor Point</name>
																		<value>
																			<horiz>0</horiz>
																			<vert>0</vert>
																		</value>
																	</parameter>
																	<parameter authoringApp="PremierePro">
																		<parameterid>antiflicker</parameterid>
																		<name>Anti-flicker Filter</name>
																		<valuemin>0.0</valuemin>
																		<valuemax>1.0</valuemax>
																		<value>0</value>
																	</parameter>
																</effect>
															</filter>
															<filter>
																<effect>
																	<name>Time Remap</name>
																	<effectid>timeremap</effectid>
																	<effectcategory>motion</effectcategory>
																	<effecttype>motion</effecttype>
																	<mediatype>video</mediatype>
																	<parameter authoringApp="PremierePro">
																		<parameterid>variablespeed</parameterid>
																		<name>variablespeed</name>
																		<valuemin>0</valuemin>
																		<valuemax>1</valuemax>
																		<value>0</value>
																	</parameter>
																	<parameter authoringApp="PremierePro">
																		<parameterid>speed</parameterid>
																		<name>speed</name>
																		<valuemin>-100000</valuemin>
																		<valuemax>100000</valuemax>
																		<value>181.566</value>
																	</parameter>
																	<parameter authoringApp="PremierePro">
																		<parameterid>reverse</parameterid>
																		<name>reverse</name>
																		<value>FALSE</value>
																	</parameter>
																	<parameter authoringApp="PremierePro">
																		<parameterid>frameblending</parameterid>
																		<name>frameblending</name>
																		<value>FALSE</value>
																	</parameter>
																	<parameter authoringApp="PremierePro">
																		<parameterid>graphdict</parameterid>
																		<name>graphdict</name>
																		<valuemin>0</valuemin>
																		<valuemax>1610</valuemax>
																		<value>0</value>
																		<keyframe>
																			<when>0</when>
																			<value>0</value>
																			<speedvirtualkf>TRUE</speedvirtualkf>
																			<speedkfstart>TRUE</speedkfstart>
																		</keyframe>
																		<keyframe>
																			<when>785</when>
																			<value>1425</value>
																			<speedvirtualkf>TRUE</speedvirtualkf>
																			<speedkfin>TRUE</speedkfin>
																		</keyframe>
																		<keyframe>
																			<when>844</when>
																			<value>1532</value>
																			<speedvirtualkf>TRUE</speedvirtualkf>
																			<speedkfout>TRUE</speedkfout>
																		</keyframe>
																		<keyframe>
																			<when>887</when>
																			<value>1610</value>
																			<speedvirtualkf>TRUE</speedvirtualkf>
																			<speedkfend>TRUE</speedkfend>
																		</keyframe>
																		<interpolation>
																			<name>FCPCurve</name>
																		</interpolation>
																	</parameter>
																</effect>
															</filter>
															<logginginfo>
																<description></description>
																<scene></scene>
																<shottake></shottake>
																<lognote></lognote>
																<good></good>
																<originalvideofilename></originalvideofilename>
																<originalaudiofilename></originalaudiofilename>
															</logginginfo>
															<colorinfo>
																<lut></lut>
																<lut1></lut1>
																<asc_sop></asc_sop>
																<asc_sat></asc_sat>
																<lut2></lut2>
															</colorinfo>
															<labels>
																<label2>Lavender</label2>
															</labels>
														</clipitem>
														<clipitem id="clipitem-96">
															<masterclipid>masterclip-30</masterclipid>
															<name>(esthersletters)_CCgnYe1HAPF_IG.mp4</name>
															<enabled>TRUE</enabled>
															<duration>887</duration>
															<rate>
																<timebase>30</timebase>
																<ntsc>TRUE</ntsc>
															</rate>
															<start>1073</start>
															<end>1105</end>
															<in>856</in>
															<out>887</out>
															<pproTicksIn>13170329365576</pproTicksIn>
															<pproTicksOut>13662775526400</pproTicksOut>
															<alphatype>none</alphatype>
															<file id="file-24"/>
															<filter>
																<effect>
																	<name>Basic Motion</name>
																	<effectid>basic</effectid>
																	<effectcategory>motion</effectcategory>
																	<effecttype>motion</effecttype>
																	<mediatype>video</mediatype>
																	<pproBypass>false</pproBypass>
																	<parameter authoringApp="PremierePro">
																		<parameterid>scale</parameterid>
																		<name>Scale</name>
																		<valuemin>0</valuemin>
																		<valuemax>1000</valuemax>
																		<value>188</value>
																		<keyframe>
																			<when>855</when>
																			<value>188</value>
																		</keyframe>
																		<keyframe>
																			<when>886</when>
																			<value>193</value>
																		</keyframe>
																	</parameter>
																	<parameter authoringApp="PremierePro">
																		<parameterid>rotation</parameterid>
																		<name>Rotation</name>
																		<valuemin>-8640</valuemin>
																		<valuemax>8640</valuemax>
																		<value>0</value>
																	</parameter>
																	<parameter authoringApp="PremierePro">
																		<parameterid>center</parameterid>
																		<name>Center</name>
																		<value>
																			<horiz>0</horiz>
																			<vert>0</vert>
																		</value>
																	</parameter>
																	<parameter authoringApp="PremierePro">
																		<parameterid>centerOffset</parameterid>
																		<name>Anchor Point</name>
																		<value>
																			<horiz>0</horiz>
																			<vert>0</vert>
																		</value>
																	</parameter>
																	<parameter authoringApp="PremierePro">
																		<parameterid>antiflicker</parameterid>
																		<name>Anti-flicker Filter</name>
																		<valuemin>0.0</valuemin>
																		<valuemax>1.0</valuemax>
																		<value>0</value>
																	</parameter>
																</effect>
															</filter>
															<filter>
																<effect>
																	<name>Time Remap</name>
																	<effectid>timeremap</effectid>
																	<effectcategory>motion</effectcategory>
																	<effecttype>motion</effecttype>
																	<mediatype>video</mediatype>
																	<parameter authoringApp="PremierePro">
																		<parameterid>variablespeed</parameterid>
																		<name>variablespeed</name>
																		<valuemin>0</valuemin>
																		<valuemax>1</valuemax>
																		<value>0</value>
																	</parameter>
																	<parameter authoringApp="PremierePro">
																		<parameterid>speed</parameterid>
																		<name>speed</name>
																		<valuemin>-100000</valuemin>
																		<valuemax>100000</valuemax>
																		<value>181.566</value>
																	</parameter>
																	<parameter authoringApp="PremierePro">
																		<parameterid>reverse</parameterid>
																		<name>reverse</name>
																		<value>FALSE</value>
																	</parameter>
																	<parameter authoringApp="PremierePro">
																		<parameterid>frameblending</parameterid>
																		<name>frameblending</name>
																		<value>FALSE</value>
																	</parameter>
																	<parameter authoringApp="PremierePro">
																		<parameterid>graphdict</parameterid>
																		<name>graphdict</name>
																		<valuemin>0</valuemin>
																		<valuemax>1610</valuemax>
																		<value>0</value>
																		<keyframe>
																			<when>0</when>
																			<value>0</value>
																			<speedvirtualkf>TRUE</speedvirtualkf>
																			<speedkfstart>TRUE</speedkfstart>
																		</keyframe>
																		<keyframe>
																			<when>856</when>
																			<value>1554</value>
																			<speedvirtualkf>TRUE</speedvirtualkf>
																			<speedkfin>TRUE</speedkfin>
																		</keyframe>
																		<keyframe>
																			<when>887</when>
																			<value>1610</value>
																			<speedvirtualkf>TRUE</speedvirtualkf>
																			<speedkfout>TRUE</speedkfout>
																		</keyframe>
																		<interpolation>
																			<name>FCPCurve</name>
																		</interpolation>
																	</parameter>
																</effect>
															</filter>
															<logginginfo>
																<description></description>
																<scene></scene>
																<shottake></shottake>
																<lognote></lognote>
																<good></good>
																<originalvideofilename></originalvideofilename>
																<originalaudiofilename></originalaudiofilename>
															</logginginfo>
															<colorinfo>
																<lut></lut>
																<lut1></lut1>
																<asc_sop></asc_sop>
																<asc_sat></asc_sat>
																<lut2></lut2>
															</colorinfo>
															<labels>
																<label2>Lavender</label2>
															</labels>
														</clipitem>
														<enabled>TRUE</enabled>
														<locked>FALSE</locked>
													</track>
													<track TL.SQTrackShy="0" TL.SQTrackExpandedHeight="25" TL.SQTrackExpanded="0" MZ.TrackTargeted="0">
														<clipitem id="clipitem-97">
															<masterclipid>masterclip-31</masterclipid>
															<name>@COOPER_CALLIGRAPHY</name>
															<enabled>TRUE</enabled>
															<duration>4760</duration>
															<rate>
																<timebase>30</timebase>
																<ntsc>TRUE</ntsc>
															</rate>
															<start>0</start>
															<end>416</end>
															<in>0</in>
															<out>415</out>
															<pproTicksIn>0</pproTicksIn>
															<pproTicksOut>4328113740512</pproTicksOut>
															<alphatype>straight</alphatype>
															<pixelaspectratio>square</pixelaspectratio>
															<anamorphic>FALSE</anamorphic>
															<file id="file-25">
																<name>1080/AE Attribution.aep</name>
																<pathurl>file://localhost/Volumes/ATM%20JR%202TB/Master%20Assets/AE%20Attribution.aep</pathurl>
																<rate>
																	<timebase>30</timebase>
																	<ntsc>TRUE</ntsc>
																</rate>
																<duration>5844</duration>
																<timecode>
																	<rate>
																		<timebase>30</timebase>
																		<ntsc>TRUE</ntsc>
																	</rate>
																	<string>00;00;00;00</string>
																	<frame>0</frame>
																	<displayformat>DF</displayformat>
																</timecode>
																<media>
																	<video>
																		<samplecharacteristics>
																			<rate>
																				<timebase>30</timebase>
																				<ntsc>TRUE</ntsc>
																			</rate>
																			<width>1920</width>
																			<height>1080</height>
																			<anamorphic>FALSE</anamorphic>
																			<pixelaspectratio>square</pixelaspectratio>
																			<fielddominance>lower</fielddominance>
																		</samplecharacteristics>
																	</video>
																</media>
															</file>
															<filter>
																<effect>
																	<name>Time Remap</name>
																	<effectid>timeremap</effectid>
																	<effectcategory>motion</effectcategory>
																	<effecttype>motion</effecttype>
																	<mediatype>video</mediatype>
																	<parameter authoringApp="PremierePro">
																		<parameterid>variablespeed</parameterid>
																		<name>variablespeed</name>
																		<valuemin>0</valuemin>
																		<valuemax>1</valuemax>
																		<value>0</value>
																	</parameter>
																	<parameter authoringApp="PremierePro">
																		<parameterid>speed</parameterid>
																		<name>speed</name>
																		<valuemin>-100000</valuemin>
																		<valuemax>100000</valuemax>
																		<value>122.753</value>
																	</parameter>
																	<parameter authoringApp="PremierePro">
																		<parameterid>reverse</parameterid>
																		<name>reverse</name>
																		<value>FALSE</value>
																	</parameter>
																	<parameter authoringApp="PremierePro">
																		<parameterid>frameblending</parameterid>
																		<name>frameblending</name>
																		<value>FALSE</value>
																	</parameter>
																	<parameter authoringApp="PremierePro">
																		<parameterid>graphdict</parameterid>
																		<name>graphdict</name>
																		<valuemin>0</valuemin>
																		<valuemax>5843</valuemax>
																		<value>0</value>
																		<keyframe>
																			<when>0</when>
																			<value>0</value>
																			<speedvirtualkf>TRUE</speedvirtualkf>
																			<speedkfin>TRUE</speedkfin>
																		</keyframe>
																		<keyframe>
																			<when>415</when>
																			<value>509</value>
																			<speedvirtualkf>TRUE</speedvirtualkf>
																			<speedkfout>TRUE</speedkfout>
																		</keyframe>
																		<keyframe>
																			<when>4760</when>
																			<value>5843</value>
																			<speedvirtualkf>TRUE</speedvirtualkf>
																			<speedkfend>TRUE</speedkfend>
																		</keyframe>
																		<interpolation>
																			<name>FCPCurve</name>
																		</interpolation>
																	</parameter>
																</effect>
															</filter>
															<logginginfo>
																<description></description>
																<scene></scene>
																<shottake></shottake>
																<lognote></lognote>
																<good></good>
																<originalvideofilename></originalvideofilename>
																<originalaudiofilename></originalaudiofilename>
															</logginginfo>
															<colorinfo>
																<lut></lut>
																<lut1></lut1>
																<asc_sop></asc_sop>
																<asc_sat></asc_sat>
																<lut2></lut2>
															</colorinfo>
															<labels>
																<label2>Rose</label2>
															</labels>
														</clipitem>
														<clipitem id="clipitem-98">
															<masterclipid>masterclip-32</masterclipid>
															<name>@ESTHERSLETTERS</name>
															<enabled>TRUE</enabled>
															<duration>7345</duration>
															<rate>
																<timebase>30</timebase>
																<ntsc>TRUE</ntsc>
															</rate>
															<start>416</start>
															<end>1105</end>
															<in>0</in>
															<out>688</out>
															<pproTicksIn>0</pproTicksIn>
															<pproTicksOut>4646258865769</pproTicksOut>
															<alphatype>straight</alphatype>
															<pixelaspectratio>square</pixelaspectratio>
															<anamorphic>FALSE</anamorphic>
															<file id="file-26">
																<name>1080/AE Attribution.aep</name>
																<pathurl>file://localhost/Volumes/ATM%20JR%202TB/Master%20Assets/AE%20Attribution.aep</pathurl>
																<rate>
																	<timebase>30</timebase>
																	<ntsc>TRUE</ntsc>
																</rate>
																<duration>5844</duration>
																<timecode>
																	<rate>
																		<timebase>30</timebase>
																		<ntsc>TRUE</ntsc>
																	</rate>
																	<string>00;00;00;00</string>
																	<frame>0</frame>
																	<displayformat>DF</displayformat>
																</timecode>
																<media>
																	<video>
																		<samplecharacteristics>
																			<rate>
																				<timebase>30</timebase>
																				<ntsc>TRUE</ntsc>
																			</rate>
																			<width>1920</width>
																			<height>1080</height>
																			<anamorphic>FALSE</anamorphic>
																			<pixelaspectratio>square</pixelaspectratio>
																			<fielddominance>lower</fielddominance>
																		</samplecharacteristics>
																	</video>
																</media>
															</file>
															<filter>
																<effect>
																	<name>Time Remap</name>
																	<effectid>timeremap</effectid>
																	<effectcategory>motion</effectcategory>
																	<effecttype>motion</effecttype>
																	<mediatype>video</mediatype>
																	<parameter authoringApp="PremierePro">
																		<parameterid>variablespeed</parameterid>
																		<name>variablespeed</name>
																		<valuemin>0</valuemin>
																		<valuemax>1</valuemax>
																		<value>0</value>
																	</parameter>
																	<parameter authoringApp="PremierePro">
																		<parameterid>speed</parameterid>
																		<name>speed</name>
																		<valuemin>-100000</valuemin>
																		<valuemax>100000</valuemax>
																		<value>79.5628</value>
																	</parameter>
																	<parameter authoringApp="PremierePro">
																		<parameterid>reverse</parameterid>
																		<name>reverse</name>
																		<value>FALSE</value>
																	</parameter>
																	<parameter authoringApp="PremierePro">
																		<parameterid>frameblending</parameterid>
																		<name>frameblending</name>
																		<value>FALSE</value>
																	</parameter>
																	<parameter authoringApp="PremierePro">
																		<parameterid>graphdict</parameterid>
																		<name>graphdict</name>
																		<valuemin>0</valuemin>
																		<valuemax>5843</valuemax>
																		<value>0</value>
																		<keyframe>
																			<when>0</when>
																			<value>0</value>
																			<speedvirtualkf>TRUE</speedvirtualkf>
																			<speedkfin>TRUE</speedkfin>
																		</keyframe>
																		<keyframe>
																			<when>688</when>
																			<value>547</value>
																			<speedvirtualkf>TRUE</speedvirtualkf>
																			<speedkfout>TRUE</speedkfout>
																		</keyframe>
																		<keyframe>
																			<when>7345</when>
																			<value>5843</value>
																			<speedvirtualkf>TRUE</speedvirtualkf>
																			<speedkfend>TRUE</speedkfend>
																		</keyframe>
																		<interpolation>
																			<name>FCPCurve</name>
																		</interpolation>
																	</parameter>
																</effect>
															</filter>
															<logginginfo>
																<description></description>
																<scene></scene>
																<shottake></shottake>
																<lognote></lognote>
																<good></good>
																<originalvideofilename></originalvideofilename>
																<originalaudiofilename></originalaudiofilename>
															</logginginfo>
															<colorinfo>
																<lut></lut>
																<lut1></lut1>
																<asc_sop></asc_sop>
																<asc_sat></asc_sat>
																<lut2></lut2>
															</colorinfo>
															<labels>
																<label2>Rose</label2>
															</labels>
														</clipitem>
														<enabled>TRUE</enabled>
														<locked>FALSE</locked>
													</track>
													<track TL.SQTrackShy="0" TL.SQTrackExpandedHeight="25" TL.SQTrackExpanded="0" MZ.TrackTargeted="0">
														<enabled>TRUE</enabled>
														<locked>FALSE</locked>
													</track>
												</video>
												<audio>
													<numOutputChannels>2</numOutputChannels>
													<format>
														<samplecharacteristics>
															<depth>16</depth>
															<samplerate>48000</samplerate>
														</samplecharacteristics>
													</format>
													<outputs>
														<group>
															<index>1</index>
															<numchannels>1</numchannels>
															<downmix>0</downmix>
															<channel>
																<index>1</index>
															</channel>
														</group>
														<group>
															<index>2</index>
															<numchannels>1</numchannels>
															<downmix>0</downmix>
															<channel>
																<index>2</index>
															</channel>
														</group>
													</outputs>
													<track TL.SQTrackAudioKeyframeStyle="0" TL.SQTrackShy="0" TL.SQTrackExpandedHeight="25" TL.SQTrackExpanded="0" MZ.TrackTargeted="1" PannerCurrentValue="0.5" PannerIsInverted="true" PannerStartKeyframe="-91445760000000000,0.5,0,0,0,0,0,0" PannerName="Balance" currentExplodedTrackIndex="0" totalExplodedTrackCount="2" premiereTrackType="Stereo">
														<enabled>TRUE</enabled>
														<locked>FALSE</locked>
														<outputchannelindex>1</outputchannelindex>
													</track>
													<track TL.SQTrackAudioKeyframeStyle="0" TL.SQTrackShy="0" TL.SQTrackExpandedHeight="25" TL.SQTrackExpanded="0" MZ.TrackTargeted="1" PannerCurrentValue="0.5" PannerIsInverted="true" PannerStartKeyframe="-91445760000000000,0.5,0,0,0,0,0,0" PannerName="Balance" currentExplodedTrackIndex="1" totalExplodedTrackCount="2" premiereTrackType="Stereo">
														<enabled>TRUE</enabled>
														<locked>FALSE</locked>
														<outputchannelindex>2</outputchannelindex>
													</track>
												</audio>
											</media>
											<timecode>
												<rate>
													<timebase>30</timebase>
													<ntsc>TRUE</ntsc>
												</rate>
												<string>00;00;00;00</string>
												<frame>0</frame>
												<displayformat>DF</displayformat>
											</timecode>
											<logginginfo>
												<description></description>
												<scene></scene>
												<shottake></shottake>
												<lognote></lognote>
												<good></good>
												<originalvideofilename></originalvideofilename>
												<originalaudiofilename></originalaudiofilename>
											</logginginfo>
										</sequence>
										<labels>
											<label2>Forest</label2>
										</labels>
									</clipitem>
									<clipitem id="clipitem-99">
										<masterclipid>masterclip-33</masterclipid>
										<name>ATM_HouseAd_2023.mp4</name>
										<enabled>TRUE</enabled>
										<duration>120</duration>
										<rate>
											<timebase>30</timebase>
											<ntsc>TRUE</ntsc>
										</rate>
										<start>5488</start>
										<end>5608</end>
										<in>0</in>
										<out>120</out>
										<pproTicksIn>0</pproTicksIn>
										<pproTicksOut>1017080064000</pproTicksOut>
										<alphatype>none</alphatype>
										<pixelaspectratio>square</pixelaspectratio>
										<anamorphic>FALSE</anamorphic>
										<file id="file-27">
											<name>ATM_HouseAd_2023.mp4</name>
											<pathurl>file://localhost/Volumes/ATM%20JR%202TB/Master%20Assets/ATM_HouseAd_2023.mp4</pathurl>
											<rate>
												<timebase>30</timebase>
												<ntsc>TRUE</ntsc>
											</rate>
											<duration>120</duration>
											<timecode>
												<rate>
													<timebase>30</timebase>
													<ntsc>TRUE</ntsc>
												</rate>
												<string>00:00:00:00</string>
												<frame>0</frame>
												<displayformat>NDF</displayformat>
											</timecode>
											<media>
												<video>
													<samplecharacteristics>
														<rate>
															<timebase>30</timebase>
															<ntsc>TRUE</ntsc>
														</rate>
														<width>1920</width>
														<height>1080</height>
														<anamorphic>FALSE</anamorphic>
														<pixelaspectratio>square</pixelaspectratio>
														<fielddominance>none</fielddominance>
													</samplecharacteristics>
												</video>
												<audio>
													<samplecharacteristics>
														<depth>16</depth>
														<samplerate>32000</samplerate>
													</samplecharacteristics>
													<channelcount>2</channelcount>
												</audio>
											</media>
										</file>
										<link>
											<linkclipref>clipitem-99</linkclipref>
											<mediatype>video</mediatype>
											<trackindex>1</trackindex>
											<clipindex>3</clipindex>
										</link>
										<link>
											<linkclipref>clipitem-105</linkclipref>
											<mediatype>audio</mediatype>
											<trackindex>1</trackindex>
											<clipindex>2</clipindex>
											<groupindex>1</groupindex>
										</link>
										<link>
											<linkclipref>clipitem-107</linkclipref>
											<mediatype>audio</mediatype>
											<trackindex>2</trackindex>
											<clipindex>2</clipindex>
											<groupindex>1</groupindex>
										</link>
										<logginginfo>
											<description></description>
											<scene></scene>
											<shottake></shottake>
											<lognote></lognote>
											<good></good>
											<originalvideofilename></originalvideofilename>
											<originalaudiofilename></originalaudiofilename>
										</logginginfo>
										<colorinfo>
											<lut></lut>
											<lut1></lut1>
											<asc_sop></asc_sop>
											<asc_sat></asc_sat>
											<lut2></lut2>
										</colorinfo>
										<labels>
											<label2>Iris</label2>
										</labels>
									</clipitem>
									<enabled>TRUE</enabled>
									<locked>FALSE</locked>
								</track>
								<track TL.SQTrackShy="0" TL.SQTrackExpandedHeight="25" TL.SQTrackExpanded="0" MZ.TrackTargeted="0">
									<clipitem id="clipitem-100">
										<masterclipid>masterclip-34</masterclipid>
										<name>DIY SELF WATERING GARDEN BED</name>
										<enabled>TRUE</enabled>
										<duration>5695</duration>
										<rate>
											<timebase>30</timebase>
											<ntsc>TRUE</ntsc>
										</rate>
										<start>0</start>
										<end>4292</end>
										<in>0</in>
										<out>4292</out>
										<pproTicksIn>0</pproTicksIn>
										<pproTicksOut>36377563622400</pproTicksOut>
										<alphatype>straight</alphatype>
										<pixelaspectratio>square</pixelaspectratio>
										<anamorphic>FALSE</anamorphic>
										<file id="file-28">
											<name>CRAFTY_L3RD_01_JL_V03/CRAFTY_L3RD_01_JL_V03.aep</name>
											<pathurl>file://localhost/Volumes/ATM%20JR%202TB/Master%20Assets/CRAFTY_L3RD_01_JL_V03%20folder/CRAFTY_L3RD_01_JL_V03.aep</pathurl>
											<rate>
												<timebase>30</timebase>
												<ntsc>FALSE</ntsc>
											</rate>
											<duration>5701</duration>
											<timecode>
												<rate>
													<timebase>30</timebase>
													<ntsc>FALSE</ntsc>
												</rate>
												<string>00:00:00:00</string>
												<frame>0</frame>
												<displayformat>NDF</displayformat>
											</timecode>
											<media>
												<video>
													<samplecharacteristics>
														<rate>
															<timebase>30</timebase>
															<ntsc>FALSE</ntsc>
														</rate>
														<width>1920</width>
														<height>1080</height>
														<anamorphic>FALSE</anamorphic>
														<pixelaspectratio>square</pixelaspectratio>
														<fielddominance>lower</fielddominance>
													</samplecharacteristics>
												</video>
											</media>
										</file>
										<logginginfo>
											<description></description>
											<scene></scene>
											<shottake></shottake>
											<lognote></lognote>
											<good></good>
											<originalvideofilename></originalvideofilename>
											<originalaudiofilename></originalaudiofilename>
										</logginginfo>
										<colorinfo>
											<lut></lut>
											<lut1></lut1>
											<asc_sop></asc_sop>
											<asc_sat></asc_sat>
											<lut2></lut2>
										</colorinfo>
										<labels>
											<label2>Rose</label2>
										</labels>
									</clipitem>
									<clipitem id="clipitem-101">
										<masterclipid>masterclip-35</masterclipid>
										<name>THE WORD DEGREE</name>
										<enabled>TRUE</enabled>
										<duration>5695</duration>
										<rate>
											<timebase>30</timebase>
											<ntsc>TRUE</ntsc>
										</rate>
										<start>4394</start>
										<end>5488</end>
										<in>0</in>
										<out>1094</out>
										<pproTicksIn>0</pproTicksIn>
										<pproTicksOut>9272379916800</pproTicksOut>
										<alphatype>straight</alphatype>
										<pixelaspectratio>square</pixelaspectratio>
										<anamorphic>FALSE</anamorphic>
										<file id="file-29">
											<name>CRAFTY_L3RD_01_JL_V03/CRAFTY_L3RD_01_JL_V03.aep</name>
											<pathurl>file://localhost/Volumes/ATM%20JR%202TB/Master%20Assets/CRAFTY_L3RD_01_JL_V03%20folder/CRAFTY_L3RD_01_JL_V03.aep</pathurl>
											<rate>
												<timebase>30</timebase>
												<ntsc>FALSE</ntsc>
											</rate>
											<duration>5701</duration>
											<timecode>
												<rate>
													<timebase>30</timebase>
													<ntsc>FALSE</ntsc>
												</rate>
												<string>00:00:00:00</string>
												<frame>0</frame>
												<displayformat>NDF</displayformat>
											</timecode>
											<media>
												<video>
													<samplecharacteristics>
														<rate>
															<timebase>30</timebase>
															<ntsc>FALSE</ntsc>
														</rate>
														<width>1920</width>
														<height>1080</height>
														<anamorphic>FALSE</anamorphic>
														<pixelaspectratio>square</pixelaspectratio>
														<fielddominance>lower</fielddominance>
													</samplecharacteristics>
												</video>
											</media>
										</file>
										<logginginfo>
											<description></description>
											<scene></scene>
											<shottake></shottake>
											<lognote></lognote>
											<good></good>
											<originalvideofilename></originalvideofilename>
											<originalaudiofilename></originalaudiofilename>
										</logginginfo>
										<colorinfo>
											<lut></lut>
											<lut1></lut1>
											<asc_sop></asc_sop>
											<asc_sat></asc_sat>
											<lut2></lut2>
										</colorinfo>
										<labels>
											<label2>Rose</label2>
										</labels>
									</clipitem>
									<enabled>TRUE</enabled>
									<locked>FALSE</locked>
								</track>
								<track TL.SQTrackShy="0" TL.SQTrackExpandedHeight="25" TL.SQTrackExpanded="0" MZ.TrackTargeted="0">
									<clipitem id="clipitem-102">
										<masterclipid>masterclip-9</masterclipid>
										<name>ATM_logo_channels_right-2 (3).png</name>
										<enabled>TRUE</enabled>
										<duration>1294705</duration>
										<rate>
											<timebase>30</timebase>
											<ntsc>TRUE</ntsc>
										</rate>
										<start>0</start>
										<end>5488</end>
										<in>107892</in>
										<out>113380</out>
										<pproTicksIn>914456685542400</pproTicksIn>
										<pproTicksOut>960971147136000</pproTicksOut>
										<alphatype>straight</alphatype>
										<file id="file-7"/>
										<logginginfo>
											<description></description>
											<scene></scene>
											<shottake></shottake>
											<lognote></lognote>
											<good></good>
											<originalvideofilename></originalvideofilename>
											<originalaudiofilename></originalaudiofilename>
										</logginginfo>
										<colorinfo>
											<lut></lut>
											<lut1></lut1>
											<asc_sop></asc_sop>
											<asc_sat></asc_sat>
											<lut2></lut2>
										</colorinfo>
										<labels>
											<label2>Lavender</label2>
										</labels>
									</clipitem>
									<enabled>TRUE</enabled>
									<locked>FALSE</locked>
								</track>
								<track TL.SQTrackShy="0" TL.SQTrackExpandedHeight="25" TL.SQTrackExpanded="0" MZ.TrackTargeted="0">
									<clipitem id="clipitem-103">
										<masterclipid>masterclip-11</masterclipid>
										<name>CRAFTY_TRAN02_JL_V01.mov</name>
										<enabled>TRUE</enabled>
										<duration>120</duration>
										<rate>
											<timebase>30</timebase>
											<ntsc>TRUE</ntsc>
										</rate>
										<start>4274</start>
										<end>4394</end>
										<in>0</in>
										<out>120</out>
										<pproTicksIn>0</pproTicksIn>
										<pproTicksOut>1017080064000</pproTicksOut>
										<alphatype>none</alphatype>
										<file id="file-9"/>
										<link>
											<linkclipref>clipitem-103</linkclipref>
											<mediatype>video</mediatype>
											<trackindex>4</trackindex>
											<clipindex>1</clipindex>
										</link>
										<link>
											<linkclipref>clipitem-104</linkclipref>
											<mediatype>audio</mediatype>
											<trackindex>1</trackindex>
											<clipindex>1</clipindex>
											<groupindex>1</groupindex>
										</link>
										<link>
											<linkclipref>clipitem-106</linkclipref>
											<mediatype>audio</mediatype>
											<trackindex>2</trackindex>
											<clipindex>1</clipindex>
											<groupindex>1</groupindex>
										</link>
										<logginginfo>
											<description></description>
											<scene></scene>
											<shottake></shottake>
											<lognote></lognote>
											<good></good>
											<originalvideofilename></originalvideofilename>
											<originalaudiofilename></originalaudiofilename>
										</logginginfo>
										<colorinfo>
											<lut></lut>
											<lut1></lut1>
											<asc_sop></asc_sop>
											<asc_sat></asc_sat>
											<lut2></lut2>
										</colorinfo>
										<labels>
											<label2>Iris</label2>
										</labels>
									</clipitem>
									<enabled>TRUE</enabled>
									<locked>FALSE</locked>
								</track>
							</video>
							<audio>
								<numOutputChannels>2</numOutputChannels>
								<format>
									<samplecharacteristics>
										<depth>16</depth>
										<samplerate>48000</samplerate>
									</samplecharacteristics>
								</format>
								<outputs>
									<group>
										<index>1</index>
										<numchannels>1</numchannels>
										<downmix>0</downmix>
										<channel>
											<index>1</index>
										</channel>
									</group>
									<group>
										<index>2</index>
										<numchannels>1</numchannels>
										<downmix>0</downmix>
										<channel>
											<index>2</index>
										</channel>
									</group>
								</outputs>
								<track TL.SQTrackAudioKeyframeStyle="0" TL.SQTrackShy="0" TL.SQTrackExpandedHeight="25" TL.SQTrackExpanded="0" MZ.TrackTargeted="1" PannerCurrentValue="0.5" PannerIsInverted="true" PannerStartKeyframe="-91445760000000000,0.5,0,0,0,0,0,0" PannerName="Balance" currentExplodedTrackIndex="0" totalExplodedTrackCount="2" premiereTrackType="Stereo">
									<clipitem id="clipitem-104" premiereChannelType="stereo">
										<masterclipid>masterclip-11</masterclipid>
										<name>CRAFTY_TRAN02_JL_V01.mov</name>
										<enabled>TRUE</enabled>
										<duration>120</duration>
										<rate>
											<timebase>30</timebase>
											<ntsc>TRUE</ntsc>
										</rate>
										<start>4274</start>
										<end>4394</end>
										<in>0</in>
										<out>120</out>
										<pproTicksIn>0</pproTicksIn>
										<pproTicksOut>1017080064000</pproTicksOut>
										<file id="file-9"/>
										<sourcetrack>
											<mediatype>audio</mediatype>
											<trackindex>1</trackindex>
										</sourcetrack>
										<link>
											<linkclipref>clipitem-103</linkclipref>
											<mediatype>video</mediatype>
											<trackindex>4</trackindex>
											<clipindex>1</clipindex>
										</link>
										<link>
											<linkclipref>clipitem-104</linkclipref>
											<mediatype>audio</mediatype>
											<trackindex>1</trackindex>
											<clipindex>1</clipindex>
											<groupindex>1</groupindex>
										</link>
										<link>
											<linkclipref>clipitem-106</linkclipref>
											<mediatype>audio</mediatype>
											<trackindex>2</trackindex>
											<clipindex>1</clipindex>
											<groupindex>1</groupindex>
										</link>
										<logginginfo>
											<description></description>
											<scene></scene>
											<shottake></shottake>
											<lognote></lognote>
											<good></good>
											<originalvideofilename></originalvideofilename>
											<originalaudiofilename></originalaudiofilename>
										</logginginfo>
										<colorinfo>
											<lut></lut>
											<lut1></lut1>
											<asc_sop></asc_sop>
											<asc_sat></asc_sat>
											<lut2></lut2>
										</colorinfo>
										<labels>
											<label2>Iris</label2>
										</labels>
									</clipitem>
									<clipitem id="clipitem-105" premiereChannelType="stereo">
										<masterclipid>masterclip-33</masterclipid>
										<name>ATM_HouseAd_2023.mp4</name>
										<enabled>TRUE</enabled>
										<duration>120</duration>
										<rate>
											<timebase>30</timebase>
											<ntsc>TRUE</ntsc>
										</rate>
										<start>5488</start>
										<end>5608</end>
										<in>0</in>
										<out>120</out>
										<pproTicksIn>0</pproTicksIn>
										<pproTicksOut>1017080064000</pproTicksOut>
										<file id="file-27"/>
										<sourcetrack>
											<mediatype>audio</mediatype>
											<trackindex>1</trackindex>
										</sourcetrack>
										<link>
											<linkclipref>clipitem-99</linkclipref>
											<mediatype>video</mediatype>
											<trackindex>1</trackindex>
											<clipindex>3</clipindex>
										</link>
										<link>
											<linkclipref>clipitem-105</linkclipref>
											<mediatype>audio</mediatype>
											<trackindex>1</trackindex>
											<clipindex>2</clipindex>
											<groupindex>1</groupindex>
										</link>
										<link>
											<linkclipref>clipitem-107</linkclipref>
											<mediatype>audio</mediatype>
											<trackindex>2</trackindex>
											<clipindex>2</clipindex>
											<groupindex>1</groupindex>
										</link>
										<logginginfo>
											<description></description>
											<scene></scene>
											<shottake></shottake>
											<lognote></lognote>
											<good></good>
											<originalvideofilename></originalvideofilename>
											<originalaudiofilename></originalaudiofilename>
										</logginginfo>
										<colorinfo>
											<lut></lut>
											<lut1></lut1>
											<asc_sop></asc_sop>
											<asc_sat></asc_sat>
											<lut2></lut2>
										</colorinfo>
										<labels>
											<label2>Iris</label2>
										</labels>
									</clipitem>
									<enabled>TRUE</enabled>
									<locked>FALSE</locked>
									<outputchannelindex>1</outputchannelindex>
								</track>
								<track TL.SQTrackAudioKeyframeStyle="0" TL.SQTrackShy="0" TL.SQTrackExpandedHeight="25" TL.SQTrackExpanded="0" MZ.TrackTargeted="1" PannerCurrentValue="0.5" PannerIsInverted="true" PannerStartKeyframe="-91445760000000000,0.5,0,0,0,0,0,0" PannerName="Balance" currentExplodedTrackIndex="1" totalExplodedTrackCount="2" premiereTrackType="Stereo">
									<clipitem id="clipitem-106" premiereChannelType="stereo">
										<masterclipid>masterclip-11</masterclipid>
										<name>CRAFTY_TRAN02_JL_V01.mov</name>
										<enabled>TRUE</enabled>
										<duration>120</duration>
										<rate>
											<timebase>30</timebase>
											<ntsc>TRUE</ntsc>
										</rate>
										<start>4274</start>
										<end>4394</end>
										<in>0</in>
										<out>120</out>
										<pproTicksIn>0</pproTicksIn>
										<pproTicksOut>1017080064000</pproTicksOut>
										<file id="file-9"/>
										<sourcetrack>
											<mediatype>audio</mediatype>
											<trackindex>2</trackindex>
										</sourcetrack>
										<link>
											<linkclipref>clipitem-103</linkclipref>
											<mediatype>video</mediatype>
											<trackindex>4</trackindex>
											<clipindex>1</clipindex>
										</link>
										<link>
											<linkclipref>clipitem-104</linkclipref>
											<mediatype>audio</mediatype>
											<trackindex>1</trackindex>
											<clipindex>1</clipindex>
											<groupindex>1</groupindex>
										</link>
										<link>
											<linkclipref>clipitem-106</linkclipref>
											<mediatype>audio</mediatype>
											<trackindex>2</trackindex>
											<clipindex>1</clipindex>
											<groupindex>1</groupindex>
										</link>
										<logginginfo>
											<description></description>
											<scene></scene>
											<shottake></shottake>
											<lognote></lognote>
											<good></good>
											<originalvideofilename></originalvideofilename>
											<originalaudiofilename></originalaudiofilename>
										</logginginfo>
										<colorinfo>
											<lut></lut>
											<lut1></lut1>
											<asc_sop></asc_sop>
											<asc_sat></asc_sat>
											<lut2></lut2>
										</colorinfo>
										<labels>
											<label2>Iris</label2>
										</labels>
									</clipitem>
									<clipitem id="clipitem-107" premiereChannelType="stereo">
										<masterclipid>masterclip-33</masterclipid>
										<name>ATM_HouseAd_2023.mp4</name>
										<enabled>TRUE</enabled>
										<duration>120</duration>
										<rate>
											<timebase>30</timebase>
											<ntsc>TRUE</ntsc>
										</rate>
										<start>5488</start>
										<end>5608</end>
										<in>0</in>
										<out>120</out>
										<pproTicksIn>0</pproTicksIn>
										<pproTicksOut>1017080064000</pproTicksOut>
										<file id="file-27"/>
										<sourcetrack>
											<mediatype>audio</mediatype>
											<trackindex>2</trackindex>
										</sourcetrack>
										<link>
											<linkclipref>clipitem-99</linkclipref>
											<mediatype>video</mediatype>
											<trackindex>1</trackindex>
											<clipindex>3</clipindex>
										</link>
										<link>
											<linkclipref>clipitem-105</linkclipref>
											<mediatype>audio</mediatype>
											<trackindex>1</trackindex>
											<clipindex>2</clipindex>
											<groupindex>1</groupindex>
										</link>
										<link>
											<linkclipref>clipitem-107</linkclipref>
											<mediatype>audio</mediatype>
											<trackindex>2</trackindex>
											<clipindex>2</clipindex>
											<groupindex>1</groupindex>
										</link>
										<logginginfo>
											<description></description>
											<scene></scene>
											<shottake></shottake>
											<lognote></lognote>
											<good></good>
											<originalvideofilename></originalvideofilename>
											<originalaudiofilename></originalaudiofilename>
										</logginginfo>
										<colorinfo>
											<lut></lut>
											<lut1></lut1>
											<asc_sop></asc_sop>
											<asc_sat></asc_sat>
											<lut2></lut2>
										</colorinfo>
										<labels>
											<label2>Iris</label2>
										</labels>
									</clipitem>
									<enabled>TRUE</enabled>
									<locked>FALSE</locked>
									<outputchannelindex>2</outputchannelindex>
								</track>
								<track TL.SQTrackAudioKeyframeStyle="0" TL.SQTrackShy="0" TL.SQTrackExpandedHeight="25" TL.SQTrackExpanded="0" MZ.TrackTargeted="1" PannerCurrentValue="0.5" PannerIsInverted="true" PannerStartKeyframe="-91445760000000000,0.5,0,0,0,0,0,0" PannerName="Balance" currentExplodedTrackIndex="0" totalExplodedTrackCount="2" premiereTrackType="Stereo">
									<clipitem id="clipitem-108" premiereChannelType="stereo">
										<masterclipid>masterclip-36</masterclipid>
										<name>ES_Gualala (Waves) (Instrumental Version) - Pandaraps.wav</name>
										<enabled>TRUE</enabled>
										<duration>6212</duration>
										<rate>
											<timebase>30</timebase>
											<ntsc>TRUE</ntsc>
										</rate>
										<start>0</start>
										<end>-1</end>
										<in>87</in>
										<out>4361</out>
										<pproTicksIn>737383046400</pproTicksIn>
										<pproTicksOut>36962384659200</pproTicksOut>
										<file id="file-30">
											<name>ES_Gualala (Waves) (Instrumental Version) - Pandaraps.wav</name>
											<pathurl>file://localhost/Volumes/CONTENT/VOD%20CONTENT%20ARCHIVE/O&amp;O%20Archive%202023/CRAFTY/03_March/Crafty_3-20-2023/5_Music/ES_Gualala%20(Waves)%20(Instrumental%20Version)%20-%20Pandaraps.wav</pathurl>
											<rate>
												<timebase>30</timebase>
												<ntsc>TRUE</ntsc>
											</rate>
											<duration>6212</duration>
											<timecode>
												<rate>
													<timebase>30</timebase>
													<ntsc>TRUE</ntsc>
												</rate>
												<string>00;22;41;06</string>
												<frame>40796</frame>
												<displayformat>DF</displayformat>
											</timecode>
											<media>
												<audio>
													<samplecharacteristics>
														<depth>16</depth>
														<samplerate>48000</samplerate>
													</samplecharacteristics>
													<channelcount>2</channelcount>
												</audio>
											</media>
										</file>
										<sourcetrack>
											<mediatype>audio</mediatype>
											<trackindex>1</trackindex>
										</sourcetrack>
										<filter>
											<effect>
												<name>Gain</name>
												<effectid>{61756678, 4761696e, 4b657947}</effectid>
												<effecttype>filter</effecttype>
												<mediatype>audio</mediatype>
												<parameter authoringApp="PremierePro">
													<parameterid>Gain(dB)</parameterid>
													<name>Gain(dB)</name>
													<valuemin>-96</valuemin>
													<valuemax>96</valuemax>
													<value>-6</value>
												</parameter>
											</effect>
										</filter>
										<link>
											<linkclipref>clipitem-108</linkclipref>
											<mediatype>audio</mediatype>
											<trackindex>3</trackindex>
											<clipindex>1</clipindex>
											<groupindex>1</groupindex>
										</link>
										<link>
											<linkclipref>clipitem-110</linkclipref>
											<mediatype>audio</mediatype>
											<trackindex>4</trackindex>
											<clipindex>1</clipindex>
											<groupindex>1</groupindex>
										</link>
										<logginginfo>
											<description></description>
											<scene></scene>
											<shottake></shottake>
											<lognote></lognote>
											<good></good>
											<originalvideofilename></originalvideofilename>
											<originalaudiofilename></originalaudiofilename>
										</logginginfo>
										<colorinfo>
											<lut></lut>
											<lut1></lut1>
											<asc_sop></asc_sop>
											<asc_sat></asc_sat>
											<lut2></lut2>
										</colorinfo>
										<labels>
											<label2>Caribbean</label2>
										</labels>
									</clipitem>
									<transitionitem>
										<start>4154</start>
										<end>4274</end>
										<pproTicksIn>35207919432000</pproTicksIn>
										<pproTicksOut>36225001612800</pproTicksOut>
										<alignment>end-black</alignment>
										<cutPointTicks>1017082180800</cutPointTicks>
										<rate>
											<timebase>30</timebase>
											<ntsc>TRUE</ntsc>
										</rate>
										<effect>
											<name>Cross Fade (+3dB)</name>
											<effectid>KGAudioTransCrossFade3dB</effectid>
											<effecttype>transition</effecttype>
											<mediatype>audio</mediatype>
											<wipecode>0</wipecode>
											<wipeaccuracy>100</wipeaccuracy>
											<startratio>0</startratio>
											<endratio>1</endratio>
											<reverse>FALSE</reverse>
										</effect>
									</transitionitem>
									<clipitem id="clipitem-109" premiereChannelType="stereo">
										<masterclipid>masterclip-37</masterclipid>
										<name>ES_Distractions - Timothy Infinite.wav</name>
										<enabled>TRUE</enabled>
										<duration>4062</duration>
										<rate>
											<timebase>30</timebase>
											<ntsc>TRUE</ntsc>
										</rate>
										<start>4394</start>
										<end>-1</end>
										<in>0</in>
										<out>1094</out>
										<pproTicksIn>0</pproTicksIn>
										<pproTicksOut>9272379916800</pproTicksOut>
										<file id="file-31">
											<name>ES_Distractions - Timothy Infinite.wav</name>
											<pathurl>file://localhost/Volumes/CONTENT/VOD%20CONTENT%20ARCHIVE/O&amp;O%20Archive%202023/CRAFTY/03_March/Crafty_3-20-2023/5_Music/ES_Distractions%20-%20Timothy%20Infinite.wav</pathurl>
											<rate>
												<timebase>30</timebase>
												<ntsc>TRUE</ntsc>
											</rate>
											<duration>4062</duration>
											<timecode>
												<rate>
													<timebase>30</timebase>
													<ntsc>TRUE</ntsc>
												</rate>
												<string>03;58;24;01</string>
												<frame>428691</frame>
												<displayformat>DF</displayformat>
											</timecode>
											<media>
												<audio>
													<samplecharacteristics>
														<depth>16</depth>
														<samplerate>48000</samplerate>
													</samplecharacteristics>
													<channelcount>2</channelcount>
												</audio>
											</media>
										</file>
										<sourcetrack>
											<mediatype>audio</mediatype>
											<trackindex>1</trackindex>
										</sourcetrack>
										<filter>
											<effect>
												<name>Gain</name>
												<effectid>{61756678, 4761696e, 4b657947}</effectid>
												<effecttype>filter</effecttype>
												<mediatype>audio</mediatype>
												<parameter authoringApp="PremierePro">
													<parameterid>Gain(dB)</parameterid>
													<name>Gain(dB)</name>
													<valuemin>-96</valuemin>
													<valuemax>96</valuemax>
													<value>-6</value>
												</parameter>
											</effect>
										</filter>
										<link>
											<linkclipref>clipitem-109</linkclipref>
											<mediatype>audio</mediatype>
											<trackindex>3</trackindex>
											<clipindex>3</clipindex>
											<groupindex>1</groupindex>
										</link>
										<link>
											<linkclipref>clipitem-111</linkclipref>
											<mediatype>audio</mediatype>
											<trackindex>4</trackindex>
											<clipindex>3</clipindex>
											<groupindex>1</groupindex>
										</link>
										<logginginfo>
											<description></description>
											<scene></scene>
											<shottake></shottake>
											<lognote></lognote>
											<good></good>
											<originalvideofilename></originalvideofilename>
											<originalaudiofilename></originalaudiofilename>
										</logginginfo>
										<colorinfo>
											<lut></lut>
											<lut1></lut1>
											<asc_sop></asc_sop>
											<asc_sat></asc_sat>
											<lut2></lut2>
										</colorinfo>
										<labels>
											<label2>Caribbean</label2>
										</labels>
									</clipitem>
									<transitionitem>
										<start>5368</start>
										<end>5488</end>
										<pproTicksIn>45497379412800</pproTicksIn>
										<pproTicksOut>46514461593600</pproTicksOut>
										<alignment>end-black</alignment>
										<cutPointTicks>1017082180800</cutPointTicks>
										<rate>
											<timebase>30</timebase>
											<ntsc>TRUE</ntsc>
										</rate>
										<effect>
											<name>Cross Fade (+3dB)</name>
											<effectid>KGAudioTransCrossFade3dB</effectid>
											<effecttype>transition</effecttype>
											<mediatype>audio</mediatype>
											<wipecode>0</wipecode>
											<wipeaccuracy>100</wipeaccuracy>
											<startratio>0</startratio>
											<endratio>1</endratio>
											<reverse>FALSE</reverse>
										</effect>
									</transitionitem>
									<enabled>TRUE</enabled>
									<locked>FALSE</locked>
									<outputchannelindex>1</outputchannelindex>
								</track>
								<track TL.SQTrackAudioKeyframeStyle="0" TL.SQTrackShy="0" TL.SQTrackExpandedHeight="25" TL.SQTrackExpanded="0" MZ.TrackTargeted="1" PannerCurrentValue="0.5" PannerIsInverted="true" PannerStartKeyframe="-91445760000000000,0.5,0,0,0,0,0,0" PannerName="Balance" currentExplodedTrackIndex="1" totalExplodedTrackCount="2" premiereTrackType="Stereo">
									<clipitem id="clipitem-110" premiereChannelType="stereo">
										<masterclipid>masterclip-36</masterclipid>
										<name>ES_Gualala (Waves) (Instrumental Version) - Pandaraps.wav</name>
										<enabled>TRUE</enabled>
										<duration>6212</duration>
										<rate>
											<timebase>30</timebase>
											<ntsc>TRUE</ntsc>
										</rate>
										<start>0</start>
										<end>-1</end>
										<in>87</in>
										<out>4361</out>
										<pproTicksIn>737383046400</pproTicksIn>
										<pproTicksOut>36962384659200</pproTicksOut>
										<file id="file-30"/>
										<sourcetrack>
											<mediatype>audio</mediatype>
											<trackindex>2</trackindex>
										</sourcetrack>
										<filter>
											<effect>
												<name>Gain</name>
												<effectid>{61756678, 4761696e, 4b657947}</effectid>
												<effecttype>filter</effecttype>
												<mediatype>audio</mediatype>
												<parameter authoringApp="PremierePro">
													<parameterid>Gain(dB)</parameterid>
													<name>Gain(dB)</name>
													<valuemin>-96</valuemin>
													<valuemax>96</valuemax>
													<value>-6</value>
												</parameter>
											</effect>
										</filter>
										<link>
											<linkclipref>clipitem-108</linkclipref>
											<mediatype>audio</mediatype>
											<trackindex>3</trackindex>
											<clipindex>1</clipindex>
											<groupindex>1</groupindex>
										</link>
										<link>
											<linkclipref>clipitem-110</linkclipref>
											<mediatype>audio</mediatype>
											<trackindex>4</trackindex>
											<clipindex>1</clipindex>
											<groupindex>1</groupindex>
										</link>
										<logginginfo>
											<description></description>
											<scene></scene>
											<shottake></shottake>
											<lognote></lognote>
											<good></good>
											<originalvideofilename></originalvideofilename>
											<originalaudiofilename></originalaudiofilename>
										</logginginfo>
										<colorinfo>
											<lut></lut>
											<lut1></lut1>
											<asc_sop></asc_sop>
											<asc_sat></asc_sat>
											<lut2></lut2>
										</colorinfo>
										<labels>
											<label2>Caribbean</label2>
										</labels>
									</clipitem>
									<transitionitem>
										<start>4154</start>
										<end>4274</end>
										<pproTicksIn>35207919432000</pproTicksIn>
										<pproTicksOut>36225001612800</pproTicksOut>
										<alignment>end-black</alignment>
										<cutPointTicks>1017082180800</cutPointTicks>
										<rate>
											<timebase>30</timebase>
											<ntsc>TRUE</ntsc>
										</rate>
										<effect>
											<name>Cross Fade (+3dB)</name>
											<effectid>KGAudioTransCrossFade3dB</effectid>
											<effecttype>transition</effecttype>
											<mediatype>audio</mediatype>
											<wipecode>0</wipecode>
											<wipeaccuracy>100</wipeaccuracy>
											<startratio>0</startratio>
											<endratio>1</endratio>
											<reverse>FALSE</reverse>
										</effect>
									</transitionitem>
									<clipitem id="clipitem-111" premiereChannelType="stereo">
										<masterclipid>masterclip-37</masterclipid>
										<name>ES_Distractions - Timothy Infinite.wav</name>
										<enabled>TRUE</enabled>
										<duration>4062</duration>
										<rate>
											<timebase>30</timebase>
											<ntsc>TRUE</ntsc>
										</rate>
										<start>4394</start>
										<end>-1</end>
										<in>0</in>
										<out>1094</out>
										<pproTicksIn>0</pproTicksIn>
										<pproTicksOut>9272379916800</pproTicksOut>
										<file id="file-31"/>
										<sourcetrack>
											<mediatype>audio</mediatype>
											<trackindex>2</trackindex>
										</sourcetrack>
										<filter>
											<effect>
												<name>Gain</name>
												<effectid>{61756678, 4761696e, 4b657947}</effectid>
												<effecttype>filter</effecttype>
												<mediatype>audio</mediatype>
												<parameter authoringApp="PremierePro">
													<parameterid>Gain(dB)</parameterid>
													<name>Gain(dB)</name>
													<valuemin>-96</valuemin>
													<valuemax>96</valuemax>
													<value>-6</value>
												</parameter>
											</effect>
										</filter>
										<link>
											<linkclipref>clipitem-109</linkclipref>
											<mediatype>audio</mediatype>
											<trackindex>3</trackindex>
											<clipindex>3</clipindex>
											<groupindex>1</groupindex>
										</link>
										<link>
											<linkclipref>clipitem-111</linkclipref>
											<mediatype>audio</mediatype>
											<trackindex>4</trackindex>
											<clipindex>3</clipindex>
											<groupindex>1</groupindex>
										</link>
										<logginginfo>
											<description></description>
											<scene></scene>
											<shottake></shottake>
											<lognote></lognote>
											<good></good>
											<originalvideofilename></originalvideofilename>
											<originalaudiofilename></originalaudiofilename>
										</logginginfo>
										<colorinfo>
											<lut></lut>
											<lut1></lut1>
											<asc_sop></asc_sop>
											<asc_sat></asc_sat>
											<lut2></lut2>
										</colorinfo>
										<labels>
											<label2>Caribbean</label2>
										</labels>
									</clipitem>
									<transitionitem>
										<start>5368</start>
										<end>5488</end>
										<pproTicksIn>45497379412800</pproTicksIn>
										<pproTicksOut>46514461593600</pproTicksOut>
										<alignment>end-black</alignment>
										<cutPointTicks>1017082180800</cutPointTicks>
										<rate>
											<timebase>30</timebase>
											<ntsc>TRUE</ntsc>
										</rate>
										<effect>
											<name>Cross Fade (+3dB)</name>
											<effectid>KGAudioTransCrossFade3dB</effectid>
											<effecttype>transition</effecttype>
											<mediatype>audio</mediatype>
											<wipecode>0</wipecode>
											<wipeaccuracy>100</wipeaccuracy>
											<startratio>0</startratio>
											<endratio>1</endratio>
											<reverse>FALSE</reverse>
										</effect>
									</transitionitem>
									<enabled>TRUE</enabled>
									<locked>FALSE</locked>
									<outputchannelindex>2</outputchannelindex>
								</track>
								<track TL.SQTrackAudioKeyframeStyle="0" TL.SQTrackShy="0" TL.SQTrackExpandedHeight="25" TL.SQTrackExpanded="0" MZ.TrackTargeted="1" PannerCurrentValue="0.5" PannerIsInverted="true" PannerStartKeyframe="-91445760000000000,0.5,0,0,0,0,0,0" PannerName="Balance" currentExplodedTrackIndex="0" totalExplodedTrackCount="2" premiereTrackType="Stereo">
									<enabled>TRUE</enabled>
									<locked>FALSE</locked>
									<outputchannelindex>1</outputchannelindex>
								</track>
								<track TL.SQTrackAudioKeyframeStyle="0" TL.SQTrackShy="0" TL.SQTrackExpandedHeight="25" TL.SQTrackExpanded="0" MZ.TrackTargeted="1" PannerCurrentValue="0.5" PannerIsInverted="true" PannerStartKeyframe="-91445760000000000,0.5,0,0,0,0,0,0" PannerName="Balance" currentExplodedTrackIndex="1" totalExplodedTrackCount="2" premiereTrackType="Stereo">
									<enabled>TRUE</enabled>
									<locked>FALSE</locked>
									<outputchannelindex>2</outputchannelindex>
								</track>
								<track TL.SQTrackAudioKeyframeStyle="0" TL.SQTrackShy="0" TL.SQTrackExpandedHeight="25" TL.SQTrackExpanded="0" MZ.TrackTargeted="0" PannerCurrentValue="0.5" PannerIsInverted="true" PannerStartKeyframe="-91445760000000000,0.5,0,0,0,0,0,0" PannerName="Balance" currentExplodedTrackIndex="0" totalExplodedTrackCount="2" premiereTrackType="Stereo">
									<enabled>TRUE</enabled>
									<locked>FALSE</locked>
									<outputchannelindex>1</outputchannelindex>
								</track>
								<track TL.SQTrackAudioKeyframeStyle="0" TL.SQTrackShy="0" TL.SQTrackExpandedHeight="25" TL.SQTrackExpanded="0" MZ.TrackTargeted="0" PannerCurrentValue="0.5" PannerIsInverted="true" PannerStartKeyframe="-91445760000000000,0.5,0,0,0,0,0,0" PannerName="Balance" currentExplodedTrackIndex="1" totalExplodedTrackCount="2" premiereTrackType="Stereo">
									<enabled>TRUE</enabled>
									<locked>FALSE</locked>
									<outputchannelindex>2</outputchannelindex>
								</track>
							</audio>
						</media>
						<timecode>
							<rate>
								<timebase>30</timebase>
								<ntsc>TRUE</ntsc>
							</rate>
							<string>00;00;00;00</string>
							<frame>0</frame>
							<displayformat>DF</displayformat>
						</timecode>
						<labels>
							<label2>Forest</label2>
						</labels>
						<logginginfo>
							<description></description>
							<scene></scene>
							<shottake></shottake>
							<lognote></lognote>
							<good></good>
							<originalvideofilename></originalvideofilename>
							<originalaudiofilename></originalaudiofilename>
						</logginginfo>
					</sequence>
					<sequence id="sequence-10" TL.SQAudioVisibleBase="0" TL.SQVideoVisibleBase="0" TL.SQVisibleBaseTime="0" TL.SQAVDividerPosition="0.5" TL.SQHideShyTracks="0" TL.SQHeaderWidth="236" TL.SQDataTrackViewControlState="0" Monitor.ProgramZoomOut="46980623289600" Monitor.ProgramZoomIn="0" TL.SQTimePerPixel="0.18483278435386122" MZ.EditLine="46624645267200" MZ.Sequence.PreviewFrameSizeHeight="1080" MZ.Sequence.PreviewFrameSizeWidth="1920" MZ.Sequence.AudioTimeDisplayFormat="200" MZ.Sequence.PreviewRenderingClassID="1061109567" MZ.Sequence.PreviewRenderingPresetCodec="1634755443" MZ.Sequence.PreviewRenderingPresetPath="EncoderPresets/SequencePreview/35d109db-457b-43c1-9452-9cb7be9f121c/QuickTime.epr" MZ.Sequence.PreviewUseMaxRenderQuality="false" MZ.Sequence.PreviewUseMaxBitDepth="false" MZ.Sequence.EditingModeGUID="35d109db-457b-43c1-9452-9cb7be9f121c" MZ.Sequence.VideoTimeDisplayFormat="102" MZ.WorkOutPoint="15239249625600" MZ.WorkInPoint="0" explodedTracks="true">
						<uuid>9d83a849-554a-40ad-ba58-f2dae8c6486d</uuid>
						<duration>5543</duration>
						<rate>
							<timebase>30</timebase>
							<ntsc>TRUE</ntsc>
						</rate>
						<name>ATM_CRAFTY_184</name>
						<media>
							<video>
								<format>
									<samplecharacteristics>
										<rate>
											<timebase>30</timebase>
											<ntsc>TRUE</ntsc>
										</rate>
										<codec>
											<name>Apple ProRes 422</name>
											<appspecificdata>
												<appname>Final Cut Pro</appname>
												<appmanufacturer>Apple Inc.</appmanufacturer>
												<appversion>7.0</appversion>
												<data>
													<qtcodec>
														<codecname>Apple ProRes 422</codecname>
														<codectypename>Apple ProRes 422</codectypename>
														<codectypecode>apcn</codectypecode>
														<codecvendorcode>appl</codecvendorcode>
														<spatialquality>1024</spatialquality>
														<temporalquality>0</temporalquality>
														<keyframerate>0</keyframerate>
														<datarate>0</datarate>
													</qtcodec>
												</data>
											</appspecificdata>
										</codec>
										<width>1920</width>
										<height>1080</height>
										<anamorphic>FALSE</anamorphic>
										<pixelaspectratio>square</pixelaspectratio>
										<fielddominance>none</fielddominance>
										<colordepth>24</colordepth>
									</samplecharacteristics>
								</format>
								<track TL.SQTrackShy="0" TL.SQTrackExpandedHeight="25" TL.SQTrackExpanded="0" MZ.TrackTargeted="1">
									<clipitem id="clipitem-112">
										<masterclipid>masterclip-38</masterclipid>
										<name>DIY_CRAFTWITHTHEWIND_2</name>
										<enabled>TRUE</enabled>
										<duration>4685</duration>
										<rate>
											<timebase>30</timebase>
											<ntsc>TRUE</ntsc>
										</rate>
										<start>0</start>
										<end>3958</end>
										<in>0</in>
										<out>3958</out>
										<pproTicksIn>0</pproTicksIn>
										<pproTicksOut>33546690777600</pproTicksOut>
										<sequence id="sequence-11" TL.SQAudioVisibleBase="0" TL.SQVideoVisibleBase="0" TL.SQVisibleBaseTime="0" TL.SQAVDividerPosition="0.5" TL.SQHideShyTracks="0" TL.SQHeaderWidth="236" TL.SQDataTrackViewControlState="0" Monitor.ProgramZoomOut="33546690777600" Monitor.ProgramZoomIn="0" TL.SQTimePerPixel="0.20570852226856226" MZ.EditLine="220367347200" MZ.Sequence.PreviewFrameSizeHeight="1080" MZ.Sequence.PreviewFrameSizeWidth="1920" MZ.Sequence.AudioTimeDisplayFormat="200" MZ.Sequence.PreviewRenderingClassID="1061109567" MZ.Sequence.PreviewRenderingPresetCodec="1634755443" MZ.Sequence.PreviewRenderingPresetPath="EncoderPresets/SequencePreview/35d109db-457b-43c1-9452-9cb7be9f121c/QuickTime.epr" MZ.Sequence.PreviewUseMaxRenderQuality="false" MZ.Sequence.PreviewUseMaxBitDepth="false" MZ.Sequence.EditingModeGUID="35d109db-457b-43c1-9452-9cb7be9f121c" MZ.Sequence.VideoTimeDisplayFormat="102" MZ.WorkOutPoint="28546047129600" MZ.WorkInPoint="0">
											<duration>3958</duration>
											<rate>
												<timebase>30</timebase>
												<ntsc>TRUE</ntsc>
											</rate>
											<name>DIY_CRAFTWITHTHEWIND_2</name>
											<media>
												<video>
													<format>
														<samplecharacteristics>
															<rate>
																<timebase>30</timebase>
																<ntsc>TRUE</ntsc>
															</rate>
															<codec>
																<name>Apple ProRes 422</name>
																<appspecificdata>
																	<appname>Final Cut Pro</appname>
																	<appmanufacturer>Apple Inc.</appmanufacturer>
																	<appversion>7.0</appversion>
																	<data>
																		<qtcodec>
																			<codecname>Apple ProRes 422</codecname>
																			<codectypename>Apple ProRes 422</codectypename>
																			<codectypecode>apcn</codectypecode>
																			<codecvendorcode>appl</codecvendorcode>
																			<spatialquality>1024</spatialquality>
																			<temporalquality>0</temporalquality>
																			<keyframerate>0</keyframerate>
																			<datarate>0</datarate>
																		</qtcodec>
																	</data>
																</appspecificdata>
															</codec>
															<width>1920</width>
															<height>1080</height>
															<anamorphic>FALSE</anamorphic>
															<pixelaspectratio>square</pixelaspectratio>
															<fielddominance>none</fielddominance>
															<colordepth>24</colordepth>
														</samplecharacteristics>
													</format>
													<track TL.SQTrackShy="0" TL.SQTrackExpandedHeight="25" TL.SQTrackExpanded="0" MZ.TrackTargeted="1">
														<clipitem id="clipitem-113">
															<masterclipid>masterclip-39</masterclipid>
															<name>(Kiki DiY's)_Dollar Tree Galvanized Farmhouse Windmill _ Easy and Inexpensive Home Decor _ Oops I Did It Again_P5qLwgfe5zk_YT.mp4</name>
															<enabled>TRUE</enabled>
															<duration>16116</duration>
															<rate>
																<timebase>30</timebase>
																<ntsc>TRUE</ntsc>
															</rate>
															<start>0</start>
															<end>86</end>
															<in>14429</in>
															<out>14514</out>
															<pproTicksIn>166114601452800</pproTicksIn>
															<pproTicksOut>167104700642879</pproTicksOut>
															<alphatype>none</alphatype>
															<pixelaspectratio>square</pixelaspectratio>
															<anamorphic>FALSE</anamorphic>
															<file id="file-32">
																<name>(Kiki DiY's)_Dollar Tree Galvanized Farmhouse Windmill _ Easy and Inexpensive Home Decor _ Oops I Did It Again_P5qLwgfe5zk_YT.mp4</name>
																<pathurl>file://localhost/Volumes/CONTENT/VOD%20CONTENT%20ARCHIVE/O&amp;O%20Archive%202023/CRAFTY/03_March/Crafty_3-20-2023/3_Raw%20Files/windmill/(Kiki%20DiY's)_Dollar%20Tree%20Galvanized%20Farmhouse%20Windmill%20_%20Easy%20and%20Inexpensive%20Home%20Decor%20_%20Oops%20I%20Did%20It%20Again_P5qLwgfe5zk_YT.mp4</pathurl>
																<rate>
																	<timebase>30</timebase>
																	<ntsc>FALSE</ntsc>
																</rate>
																<duration>21914</duration>
																<timecode>
																	<rate>
																		<timebase>30</timebase>
																		<ntsc>FALSE</ntsc>
																	</rate>
																	<string>00:00:00:00</string>
																	<frame>0</frame>
																	<displayformat>NDF</displayformat>
																</timecode>
																<media>
																	<video>
																		<samplecharacteristics>
																			<rate>
																				<timebase>30</timebase>
																				<ntsc>FALSE</ntsc>
																			</rate>
																			<width>1920</width>
																			<height>1080</height>
																			<anamorphic>FALSE</anamorphic>
																			<pixelaspectratio>square</pixelaspectratio>
																			<fielddominance>none</fielddominance>
																		</samplecharacteristics>
																	</video>
																	<audio>
																		<samplecharacteristics>
																			<depth>16</depth>
																			<samplerate>44100</samplerate>
																		</samplecharacteristics>
																		<channelcount>2</channelcount>
																	</audio>
																</media>
															</file>
															<filter>
																<effect>
																	<name>Basic Motion</name>
																	<effectid>basic</effectid>
																	<effectcategory>motion</effectcategory>
																	<effecttype>motion</effecttype>
																	<mediatype>video</mediatype>
																	<pproBypass>false</pproBypass>
																	<parameter authoringApp="PremierePro">
																		<parameterid>scale</parameterid>
																		<name>Scale</name>
																		<valuemin>0</valuemin>
																		<valuemax>1000</valuemax>
																		<value>124</value>
																	</parameter>
																	<parameter authoringApp="PremierePro">
																		<parameterid>rotation</parameterid>
																		<name>Rotation</name>
																		<valuemin>-8640</valuemin>
																		<valuemax>8640</valuemax>
																		<value>0</value>
																	</parameter>
																	<parameter authoringApp="PremierePro">
																		<parameterid>center</parameterid>
																		<name>Center</name>
																		<value>
																			<horiz>0</horiz>
																			<vert>0</vert>
																		</value>
																	</parameter>
																	<parameter authoringApp="PremierePro">
																		<parameterid>centerOffset</parameterid>
																		<name>Anchor Point</name>
																		<value>
																			<horiz>0</horiz>
																			<vert>0</vert>
																		</value>
																	</parameter>
																	<parameter authoringApp="PremierePro">
																		<parameterid>antiflicker</parameterid>
																		<name>Anti-flicker Filter</name>
																		<valuemin>0.0</valuemin>
																		<valuemax>1.0</valuemax>
																		<value>0</value>
																	</parameter>
																</effect>
															</filter>
															<filter>
																<effect>
																	<name>Time Remap</name>
																	<effectid>timeremap</effectid>
																	<effectcategory>motion</effectcategory>
																	<effecttype>motion</effecttype>
																	<mediatype>video</mediatype>
																	<parameter authoringApp="PremierePro">
																		<parameterid>variablespeed</parameterid>
																		<name>variablespeed</name>
																		<valuemin>0</valuemin>
																		<valuemax>1</valuemax>
																		<value>0</value>
																	</parameter>
																	<parameter authoringApp="PremierePro">
																		<parameterid>speed</parameterid>
																		<name>speed</name>
																		<valuemin>-100000</valuemin>
																		<valuemax>100000</valuemax>
																		<value>135.833</value>
																	</parameter>
																	<parameter authoringApp="PremierePro">
																		<parameterid>reverse</parameterid>
																		<name>reverse</name>
																		<value>FALSE</value>
																	</parameter>
																	<parameter authoringApp="PremierePro">
																		<parameterid>frameblending</parameterid>
																		<name>frameblending</name>
																		<value>FALSE</value>
																	</parameter>
																	<parameter authoringApp="PremierePro">
																		<parameterid>graphdict</parameterid>
																		<name>graphdict</name>
																		<valuemin>0</valuemin>
																		<valuemax>21890</valuemax>
																		<value>0</value>
																		<keyframe>
																			<when>0</when>
																			<value>0</value>
																			<speedvirtualkf>TRUE</speedvirtualkf>
																			<speedkfstart>TRUE</speedkfstart>
																		</keyframe>
																		<keyframe>
																			<when>14429</when>
																			<value>19599</value>
																			<speedvirtualkf>TRUE</speedvirtualkf>
																			<speedkfin>TRUE</speedkfin>
																		</keyframe>
																		<keyframe>
																			<when>14514</when>
																			<value>19714</value>
																			<speedvirtualkf>TRUE</speedvirtualkf>
																			<speedkfout>TRUE</speedkfout>
																		</keyframe>
																		<keyframe>
																			<when>16116</when>
																			<value>21890</value>
																			<speedvirtualkf>TRUE</speedvirtualkf>
																			<speedkfend>TRUE</speedkfend>
																		</keyframe>
																		<interpolation>
																			<name>FCPCurve</name>
																		</interpolation>
																	</parameter>
																</effect>
															</filter>
															<logginginfo>
																<description></description>
																<scene></scene>
																<shottake></shottake>
																<lognote>https://www.youtube.com/watch?v=P5qLwgfe5zk</lognote>
																<good></good>
																<originalvideofilename></originalvideofilename>
																<originalaudiofilename></originalaudiofilename>
															</logginginfo>
															<colorinfo>
																<lut></lut>
																<lut1></lut1>
																<asc_sop></asc_sop>
																<asc_sat></asc_sat>
																<lut2></lut2>
															</colorinfo>
															<labels>
																<label2>Iris</label2>
															</labels>
														</clipitem>
														<clipitem id="clipitem-114">
															<masterclipid>masterclip-39</masterclipid>
															<name>(Kiki DiY's)_Dollar Tree Galvanized Farmhouse Windmill _ Easy and Inexpensive Home Decor _ Oops I Did It Again_P5qLwgfe5zk_YT.mp4</name>
															<enabled>TRUE</enabled>
															<duration>20607</duration>
															<rate>
																<timebase>30</timebase>
																<ntsc>TRUE</ntsc>
															</rate>
															<start>86</start>
															<end>459</end>
															<in>2279</in>
															<out>2651</out>
															<pproTicksIn>20513233540800</pproTicksIn>
															<pproTicksOut>23871716668800</pproTicksOut>
															<alphatype>none</alphatype>
															<file id="file-32"/>
															<filter>
																<effect>
																	<name>Basic Motion</name>
																	<effectid>basic</effectid>
																	<effectcategory>motion</effectcategory>
																	<effecttype>motion</effecttype>
																	<mediatype>video</mediatype>
																	<pproBypass>false</pproBypass>
																	<parameter authoringApp="PremierePro">
																		<parameterid>scale</parameterid>
																		<name>Scale</name>
																		<valuemin>0</valuemin>
																		<valuemax>1000</valuemax>
																		<value>124</value>
																	</parameter>
																	<parameter authoringApp="PremierePro">
																		<parameterid>rotation</parameterid>
																		<name>Rotation</name>
																		<valuemin>-8640</valuemin>
																		<valuemax>8640</valuemax>
																		<value>0</value>
																	</parameter>
																	<parameter authoringApp="PremierePro">
																		<parameterid>center</parameterid>
																		<name>Center</name>
																		<value>
																			<horiz>0</horiz>
																			<vert>0</vert>
																		</value>
																	</parameter>
																	<parameter authoringApp="PremierePro">
																		<parameterid>centerOffset</parameterid>
																		<name>Anchor Point</name>
																		<value>
																			<horiz>0</horiz>
																			<vert>0</vert>
																		</value>
																	</parameter>
																	<parameter authoringApp="PremierePro">
																		<parameterid>antiflicker</parameterid>
																		<name>Anti-flicker Filter</name>
																		<valuemin>0.0</valuemin>
																		<valuemax>1.0</valuemax>
																		<value>0</value>
																	</parameter>
																</effect>
															</filter>
															<filter>
																<effect>
																	<name>Time Remap</name>
																	<effectid>timeremap</effectid>
																	<effectcategory>motion</effectcategory>
																	<effecttype>motion</effecttype>
																	<mediatype>video</mediatype>
																	<parameter authoringApp="PremierePro">
																		<parameterid>variablespeed</parameterid>
																		<name>variablespeed</name>
																		<valuemin>0</valuemin>
																		<valuemax>1</valuemax>
																		<value>0</value>
																	</parameter>
																	<parameter authoringApp="PremierePro">
																		<parameterid>speed</parameterid>
																		<name>speed</name>
																		<valuemin>-100000</valuemin>
																		<valuemax>100000</valuemax>
																		<value>106.233</value>
																	</parameter>
																	<parameter authoringApp="PremierePro">
																		<parameterid>reverse</parameterid>
																		<name>reverse</name>
																		<value>FALSE</value>
																	</parameter>
																	<parameter authoringApp="PremierePro">
																		<parameterid>frameblending</parameterid>
																		<name>frameblending</name>
																		<value>FALSE</value>
																	</parameter>
																	<parameter authoringApp="PremierePro">
																		<parameterid>graphdict</parameterid>
																		<name>graphdict</name>
																		<valuemin>0</valuemin>
																		<valuemax>21891</valuemax>
																		<value>0</value>
																		<keyframe>
																			<when>0</when>
																			<value>0</value>
																			<speedvirtualkf>TRUE</speedvirtualkf>
																			<speedkfstart>TRUE</speedkfstart>
																		</keyframe>
																		<keyframe>
																			<when>2279</when>
																			<value>2421</value>
																			<speedvirtualkf>TRUE</speedvirtualkf>
																			<speedkfin>TRUE</speedkfin>
																		</keyframe>
																		<keyframe>
																			<when>2651</when>
																			<value>2816</value>
																			<speedvirtualkf>TRUE</speedvirtualkf>
																			<speedkfout>TRUE</speedkfout>
																		</keyframe>
																		<keyframe>
																			<when>20607</when>
																			<value>21891</value>
																			<speedvirtualkf>TRUE</speedvirtualkf>
																			<speedkfend>TRUE</speedkfend>
																		</keyframe>
																		<interpolation>
																			<name>FCPCurve</name>
																		</interpolation>
																	</parameter>
																</effect>
															</filter>
															<logginginfo>
																<description></description>
																<scene></scene>
																<shottake></shottake>
																<lognote>https://www.youtube.com/watch?v=P5qLwgfe5zk</lognote>
																<good></good>
																<originalvideofilename></originalvideofilename>
																<originalaudiofilename></originalaudiofilename>
															</logginginfo>
															<colorinfo>
																<lut></lut>
																<lut1></lut1>
																<asc_sop></asc_sop>
																<asc_sat></asc_sat>
																<lut2></lut2>
															</colorinfo>
															<labels>
																<label2>Iris</label2>
															</labels>
														</clipitem>
														<clipitem id="clipitem-115">
															<masterclipid>masterclip-39</masterclipid>
															<name>(Kiki DiY's)_Dollar Tree Galvanized Farmhouse Windmill _ Easy and Inexpensive Home Decor _ Oops I Did It Again_P5qLwgfe5zk_YT.mp4</name>
															<enabled>TRUE</enabled>
															<duration>19966</duration>
															<rate>
																<timebase>30</timebase>
																<ntsc>TRUE</ntsc>
															</rate>
															<start>459</start>
															<end>1330</end>
															<in>5558</in>
															<out>6428</out>
															<pproTicksIn>51650715916800</pproTicksIn>
															<pproTicksOut>59744978092800</pproTicksOut>
															<alphatype>none</alphatype>
															<file id="file-32"/>
															<filter>
																<effect>
																	<name>Basic Motion</name>
																	<effectid>basic</effectid>
																	<effectcategory>motion</effectcategory>
																	<effecttype>motion</effecttype>
																	<mediatype>video</mediatype>
																	<pproBypass>false</pproBypass>
																	<parameter authoringApp="PremierePro">
																		<parameterid>scale</parameterid>
																		<name>Scale</name>
																		<valuemin>0</valuemin>
																		<valuemax>1000</valuemax>
																		<value>124</value>
																	</parameter>
																	<parameter authoringApp="PremierePro">
																		<parameterid>rotation</parameterid>
																		<name>Rotation</name>
																		<valuemin>-8640</valuemin>
																		<valuemax>8640</valuemax>
																		<value>0</value>
																	</parameter>
																	<parameter authoringApp="PremierePro">
																		<parameterid>center</parameterid>
																		<name>Center</name>
																		<value>
																			<horiz>0</horiz>
																			<vert>0</vert>
																		</value>
																	</parameter>
																	<parameter authoringApp="PremierePro">
																		<parameterid>centerOffset</parameterid>
																		<name>Anchor Point</name>
																		<value>
																			<horiz>0</horiz>
																			<vert>0</vert>
																		</value>
																	</parameter>
																	<parameter authoringApp="PremierePro">
																		<parameterid>antiflicker</parameterid>
																		<name>Anti-flicker Filter</name>
																		<valuemin>0.0</valuemin>
																		<valuemax>1.0</valuemax>
																		<value>0</value>
																	</parameter>
																</effect>
															</filter>
															<filter>
																<effect>
																	<name>Time Remap</name>
																	<effectid>timeremap</effectid>
																	<effectcategory>motion</effectcategory>
																	<effecttype>motion</effecttype>
																	<mediatype>video</mediatype>
																	<parameter authoringApp="PremierePro">
																		<parameterid>variablespeed</parameterid>
																		<name>variablespeed</name>
																		<valuemin>0</valuemin>
																		<valuemax>1</valuemax>
																		<value>0</value>
																	</parameter>
																	<parameter authoringApp="PremierePro">
																		<parameterid>speed</parameterid>
																		<name>speed</name>
																		<valuemin>-100000</valuemin>
																		<valuemax>100000</valuemax>
																		<value>109.644</value>
																	</parameter>
																	<parameter authoringApp="PremierePro">
																		<parameterid>reverse</parameterid>
																		<name>reverse</name>
																		<value>FALSE</value>
																	</parameter>
																	<parameter authoringApp="PremierePro">
																		<parameterid>frameblending</parameterid>
																		<name>frameblending</name>
																		<value>FALSE</value>
																	</parameter>
																	<parameter authoringApp="PremierePro">
																		<parameterid>graphdict</parameterid>
																		<name>graphdict</name>
																		<valuemin>0</valuemin>
																		<valuemax>21891</valuemax>
																		<value>0</value>
																		<keyframe>
																			<when>0</when>
																			<value>0</value>
																			<speedvirtualkf>TRUE</speedvirtualkf>
																			<speedkfstart>TRUE</speedkfstart>
																		</keyframe>
																		<keyframe>
																			<when>5558</when>
																			<value>6094</value>
																			<speedvirtualkf>TRUE</speedvirtualkf>
																			<speedkfin>TRUE</speedkfin>
																		</keyframe>
																		<keyframe>
																			<when>6428</when>
																			<value>7047</value>
																			<speedvirtualkf>TRUE</speedvirtualkf>
																			<speedkfout>TRUE</speedkfout>
																		</keyframe>
																		<keyframe>
																			<when>19966</when>
																			<value>21891</value>
																			<speedvirtualkf>TRUE</speedvirtualkf>
																			<speedkfend>TRUE</speedkfend>
																		</keyframe>
																		<interpolation>
																			<name>FCPCurve</name>
																		</interpolation>
																	</parameter>
																</effect>
															</filter>
															<logginginfo>
																<description></description>
																<scene></scene>
																<shottake></shottake>
																<lognote>https://www.youtube.com/watch?v=P5qLwgfe5zk</lognote>
																<good></good>
																<originalvideofilename></originalvideofilename>
																<originalaudiofilename></originalaudiofilename>
															</logginginfo>
															<colorinfo>
																<lut></lut>
																<lut1></lut1>
																<asc_sop></asc_sop>
																<asc_sat></asc_sat>
																<lut2></lut2>
															</colorinfo>
															<labels>
																<label2>Iris</label2>
															</labels>
														</clipitem>
														<clipitem id="clipitem-116">
															<masterclipid>masterclip-39</masterclipid>
															<name>(Kiki DiY's)_Dollar Tree Galvanized Farmhouse Windmill _ Easy and Inexpensive Home Decor _ Oops I Did It Again_P5qLwgfe5zk_YT.mp4</name>
															<enabled>TRUE</enabled>
															<duration>21963</duration>
															<rate>
																<timebase>30</timebase>
																<ntsc>TRUE</ntsc>
															</rate>
															<start>1330</start>
															<end>1789</end>
															<in>8822</in>
															<out>9280</out>
															<pproTicksIn>74526541689600</pproTicksIn>
															<pproTicksOut>78404159433600</pproTicksOut>
															<alphatype>none</alphatype>
															<file id="file-32"/>
															<filter>
																<effect>
																	<name>Basic Motion</name>
																	<effectid>basic</effectid>
																	<effectcategory>motion</effectcategory>
																	<effecttype>motion</effecttype>
																	<mediatype>video</mediatype>
																	<pproBypass>false</pproBypass>
																	<parameter authoringApp="PremierePro">
																		<parameterid>scale</parameterid>
																		<name>Scale</name>
																		<valuemin>0</valuemin>
																		<valuemax>1000</valuemax>
																		<value>124</value>
																	</parameter>
																	<parameter authoringApp="PremierePro">
																		<parameterid>rotation</parameterid>
																		<name>Rotation</name>
																		<valuemin>-8640</valuemin>
																		<valuemax>8640</valuemax>
																		<value>0</value>
																	</parameter>
																	<parameter authoringApp="PremierePro">
																		<parameterid>center</parameterid>
																		<name>Center</name>
																		<value>
																			<horiz>0</horiz>
																			<vert>0</vert>
																		</value>
																	</parameter>
																	<parameter authoringApp="PremierePro">
																		<parameterid>centerOffset</parameterid>
																		<name>Anchor Point</name>
																		<value>
																			<horiz>0</horiz>
																			<vert>0</vert>
																		</value>
																	</parameter>
																	<parameter authoringApp="PremierePro">
																		<parameterid>antiflicker</parameterid>
																		<name>Anti-flicker Filter</name>
																		<valuemin>0.0</valuemin>
																		<valuemax>1.0</valuemax>
																		<value>0</value>
																	</parameter>
																</effect>
															</filter>
															<filter>
																<effect>
																	<name>Time Remap</name>
																	<effectid>timeremap</effectid>
																	<effectcategory>motion</effectcategory>
																	<effecttype>motion</effecttype>
																	<mediatype>video</mediatype>
																	<parameter authoringApp="PremierePro">
																		<parameterid>variablespeed</parameterid>
																		<name>variablespeed</name>
																		<valuemin>0</valuemin>
																		<valuemax>1</valuemax>
																		<value>0</value>
																	</parameter>
																	<parameter authoringApp="PremierePro">
																		<parameterid>speed</parameterid>
																		<name>speed</name>
																		<valuemin>-100000</valuemin>
																		<valuemax>100000</valuemax>
																		<value>99.6732</value>
																	</parameter>
																	<parameter authoringApp="PremierePro">
																		<parameterid>reverse</parameterid>
																		<name>reverse</name>
																		<value>FALSE</value>
																	</parameter>
																	<parameter authoringApp="PremierePro">
																		<parameterid>frameblending</parameterid>
																		<name>frameblending</name>
																		<value>FALSE</value>
																	</parameter>
																	<parameter authoringApp="PremierePro">
																		<parameterid>graphdict</parameterid>
																		<name>graphdict</name>
																		<valuemin>0</valuemin>
																		<valuemax>21891</valuemax>
																		<value>0</value>
																		<keyframe>
																			<when>0</when>
																			<value>0</value>
																			<speedvirtualkf>TRUE</speedvirtualkf>
																			<speedkfstart>TRUE</speedkfstart>
																		</keyframe>
																		<keyframe>
																			<when>8822</when>
																			<value>8793</value>
																			<speedvirtualkf>TRUE</speedvirtualkf>
																			<speedkfin>TRUE</speedkfin>
																		</keyframe>
																		<keyframe>
																			<when>9280</when>
																			<value>9249</value>
																			<speedvirtualkf>TRUE</speedvirtualkf>
																			<speedkfout>TRUE</speedkfout>
																		</keyframe>
																		<keyframe>
																			<when>21963</when>
																			<value>21891</value>
																			<speedvirtualkf>TRUE</speedvirtualkf>
																			<speedkfend>TRUE</speedkfend>
																		</keyframe>
																		<interpolation>
																			<name>FCPCurve</name>
																		</interpolation>
																	</parameter>
																</effect>
															</filter>
															<logginginfo>
																<description></description>
																<scene></scene>
																<shottake></shottake>
																<lognote>https://www.youtube.com/watch?v=P5qLwgfe5zk</lognote>
																<good></good>
																<originalvideofilename></originalvideofilename>
																<originalaudiofilename></originalaudiofilename>
															</logginginfo>
															<colorinfo>
																<lut></lut>
																<lut1></lut1>
																<asc_sop></asc_sop>
																<asc_sat></asc_sat>
																<lut2></lut2>
															</colorinfo>
															<labels>
																<label2>Iris</label2>
															</labels>
														</clipitem>
														<clipitem id="clipitem-117">
															<masterclipid>masterclip-39</masterclipid>
															<name>(Kiki DiY's)_Dollar Tree Galvanized Farmhouse Windmill _ Easy and Inexpensive Home Decor _ Oops I Did It Again_P5qLwgfe5zk_YT.mp4</name>
															<enabled>TRUE</enabled>
															<duration>21569</duration>
															<rate>
																<timebase>30</timebase>
																<ntsc>TRUE</ntsc>
															</rate>
															<start>1789</start>
															<end>2358</end>
															<in>10565</in>
															<out>11133</out>
															<pproTicksIn>90876103718400</pproTicksIn>
															<pproTicksOut>95770801526400</pproTicksOut>
															<alphatype>none</alphatype>
															<file id="file-32"/>
															<filter>
																<effect>
																	<name>Basic Motion</name>
																	<effectid>basic</effectid>
																	<effectcategory>motion</effectcategory>
																	<effecttype>motion</effecttype>
																	<mediatype>video</mediatype>
																	<pproBypass>false</pproBypass>
																	<parameter authoringApp="PremierePro">
																		<parameterid>scale</parameterid>
																		<name>Scale</name>
																		<valuemin>0</valuemin>
																		<valuemax>1000</valuemax>
																		<value>124</value>
																	</parameter>
																	<parameter authoringApp="PremierePro">
																		<parameterid>rotation</parameterid>
																		<name>Rotation</name>
																		<valuemin>-8640</valuemin>
																		<valuemax>8640</valuemax>
																		<value>0</value>
																	</parameter>
																	<parameter authoringApp="PremierePro">
																		<parameterid>center</parameterid>
																		<name>Center</name>
																		<value>
																			<horiz>0</horiz>
																			<vert>0</vert>
																		</value>
																	</parameter>
																	<parameter authoringApp="PremierePro">
																		<parameterid>centerOffset</parameterid>
																		<name>Anchor Point</name>
																		<value>
																			<horiz>0</horiz>
																			<vert>0</vert>
																		</value>
																	</parameter>
																	<parameter authoringApp="PremierePro">
																		<parameterid>antiflicker</parameterid>
																		<name>Anti-flicker Filter</name>
																		<valuemin>0.0</valuemin>
																		<valuemax>1.0</valuemax>
																		<value>0</value>
																	</parameter>
																</effect>
															</filter>
															<filter>
																<effect>
																	<name>Time Remap</name>
																	<effectid>timeremap</effectid>
																	<effectcategory>motion</effectcategory>
																	<effecttype>motion</effecttype>
																	<mediatype>video</mediatype>
																	<parameter authoringApp="PremierePro">
																		<parameterid>variablespeed</parameterid>
																		<name>variablespeed</name>
																		<valuemin>0</valuemin>
																		<valuemax>1</valuemax>
																		<value>0</value>
																	</parameter>
																	<parameter authoringApp="PremierePro">
																		<parameterid>speed</parameterid>
																		<name>speed</name>
																		<valuemin>-100000</valuemin>
																		<valuemax>100000</valuemax>
																		<value>101.494</value>
																	</parameter>
																	<parameter authoringApp="PremierePro">
																		<parameterid>reverse</parameterid>
																		<name>reverse</name>
																		<value>FALSE</value>
																	</parameter>
																	<parameter authoringApp="PremierePro">
																		<parameterid>frameblending</parameterid>
																		<name>frameblending</name>
																		<value>FALSE</value>
																	</parameter>
																	<parameter authoringApp="PremierePro">
																		<parameterid>graphdict</parameterid>
																		<name>graphdict</name>
																		<valuemin>0</valuemin>
																		<valuemax>21891</valuemax>
																		<value>0</value>
																		<keyframe>
																			<when>0</when>
																			<value>0</value>
																			<speedvirtualkf>TRUE</speedvirtualkf>
																			<speedkfstart>TRUE</speedkfstart>
																		</keyframe>
																		<keyframe>
																			<when>10565</when>
																			<value>10722</value>
																			<speedvirtualkf>TRUE</speedvirtualkf>
																			<speedkfin>TRUE</speedkfin>
																		</keyframe>
																		<keyframe>
																			<when>11133</when>
																			<value>11299</value>
																			<speedvirtualkf>TRUE</speedvirtualkf>
																			<speedkfout>TRUE</speedkfout>
																		</keyframe>
																		<keyframe>
																			<when>21569</when>
																			<value>21891</value>
																			<speedvirtualkf>TRUE</speedvirtualkf>
																			<speedkfend>TRUE</speedkfend>
																		</keyframe>
																		<interpolation>
																			<name>FCPCurve</name>
																		</interpolation>
																	</parameter>
																</effect>
															</filter>
															<logginginfo>
																<description></description>
																<scene></scene>
																<shottake></shottake>
																<lognote>https://www.youtube.com/watch?v=P5qLwgfe5zk</lognote>
																<good></good>
																<originalvideofilename></originalvideofilename>
																<originalaudiofilename></originalaudiofilename>
															</logginginfo>
															<colorinfo>
																<lut></lut>
																<lut1></lut1>
																<asc_sop></asc_sop>
																<asc_sat></asc_sat>
																<lut2></lut2>
															</colorinfo>
															<labels>
																<label2>Iris</label2>
															</labels>
														</clipitem>
														<clipitem id="clipitem-118">
															<masterclipid>masterclip-39</masterclipid>
															<name>(Kiki DiY's)_Dollar Tree Galvanized Farmhouse Windmill _ Easy and Inexpensive Home Decor _ Oops I Did It Again_P5qLwgfe5zk_YT.mp4</name>
															<enabled>TRUE</enabled>
															<duration>23367</duration>
															<rate>
																<timebase>30</timebase>
																<ntsc>TRUE</ntsc>
															</rate>
															<start>2358</start>
															<end>2837</end>
															<in>14163</in>
															<out>14641</out>
															<pproTicksIn>112459390243200</pproTicksIn>
															<pproTicksOut>116262845899200</pproTicksOut>
															<alphatype>none</alphatype>
															<file id="file-32"/>
															<filter>
																<effect>
																	<name>Basic Motion</name>
																	<effectid>basic</effectid>
																	<effectcategory>motion</effectcategory>
																	<effecttype>motion</effecttype>
																	<mediatype>video</mediatype>
																	<pproBypass>false</pproBypass>
																	<parameter authoringApp="PremierePro">
																		<parameterid>scale</parameterid>
																		<name>Scale</name>
																		<valuemin>0</valuemin>
																		<valuemax>1000</valuemax>
																		<value>124</value>
																	</parameter>
																	<parameter authoringApp="PremierePro">
																		<parameterid>rotation</parameterid>
																		<name>Rotation</name>
																		<valuemin>-8640</valuemin>
																		<valuemax>8640</valuemax>
																		<value>0</value>
																	</parameter>
																	<parameter authoringApp="PremierePro">
																		<parameterid>center</parameterid>
																		<name>Center</name>
																		<value>
																			<horiz>0</horiz>
																			<vert>0</vert>
																		</value>
																	</parameter>
																	<parameter authoringApp="PremierePro">
																		<parameterid>centerOffset</parameterid>
																		<name>Anchor Point</name>
																		<value>
																			<horiz>0</horiz>
																			<vert>0</vert>
																		</value>
																	</parameter>
																	<parameter authoringApp="PremierePro">
																		<parameterid>antiflicker</parameterid>
																		<name>Anti-flicker Filter</name>
																		<valuemin>0.0</valuemin>
																		<valuemax>1.0</valuemax>
																		<value>0</value>
																	</parameter>
																</effect>
															</filter>
															<filter>
																<effect>
																	<name>Time Remap</name>
																	<effectid>timeremap</effectid>
																	<effectcategory>motion</effectcategory>
																	<effecttype>motion</effecttype>
																	<mediatype>video</mediatype>
																	<parameter authoringApp="PremierePro">
																		<parameterid>variablespeed</parameterid>
																		<name>variablespeed</name>
																		<valuemin>0</valuemin>
																		<valuemax>1</valuemax>
																		<value>0</value>
																	</parameter>
																	<parameter authoringApp="PremierePro">
																		<parameterid>speed</parameterid>
																		<name>speed</name>
																		<valuemin>-100000</valuemin>
																		<valuemax>100000</valuemax>
																		<value>93.6848</value>
																	</parameter>
																	<parameter authoringApp="PremierePro">
																		<parameterid>reverse</parameterid>
																		<name>reverse</name>
																		<value>FALSE</value>
																	</parameter>
																	<parameter authoringApp="PremierePro">
																		<parameterid>frameblending</parameterid>
																		<name>frameblending</name>
																		<value>FALSE</value>
																	</parameter>
																	<parameter authoringApp="PremierePro">
																		<parameterid>graphdict</parameterid>
																		<name>graphdict</name>
																		<valuemin>0</valuemin>
																		<valuemax>21891</valuemax>
																		<value>0</value>
																		<keyframe>
																			<when>0</when>
																			<value>0</value>
																			<speedvirtualkf>TRUE</speedvirtualkf>
																			<speedkfstart>TRUE</speedkfstart>
																		</keyframe>
																		<keyframe>
																			<when>14163</when>
																			<value>13268</value>
																			<speedvirtualkf>TRUE</speedvirtualkf>
																			<speedkfin>TRUE</speedkfin>
																		</keyframe>
																		<keyframe>
																			<when>14641</when>
																			<value>13716</value>
																			<speedvirtualkf>TRUE</speedvirtualkf>
																			<speedkfout>TRUE</speedkfout>
																		</keyframe>
																		<keyframe>
																			<when>23367</when>
																			<value>21891</value>
																			<speedvirtualkf>TRUE</speedvirtualkf>
																			<speedkfend>TRUE</speedkfend>
																		</keyframe>
																		<interpolation>
																			<name>FCPCurve</name>
																		</interpolation>
																	</parameter>
																</effect>
															</filter>
															<logginginfo>
																<description></description>
																<scene></scene>
																<shottake></shottake>
																<lognote>https://www.youtube.com/watch?v=P5qLwgfe5zk</lognote>
																<good></good>
																<originalvideofilename></originalvideofilename>
																<originalaudiofilename></originalaudiofilename>
															</logginginfo>
															<colorinfo>
																<lut></lut>
																<lut1></lut1>
																<asc_sop></asc_sop>
																<asc_sat></asc_sat>
																<lut2></lut2>
															</colorinfo>
															<labels>
																<label2>Iris</label2>
															</labels>
														</clipitem>
														<clipitem id="clipitem-119">
															<masterclipid>masterclip-39</masterclipid>
															<name>(Kiki DiY's)_Dollar Tree Galvanized Farmhouse Windmill _ Easy and Inexpensive Home Decor _ Oops I Did It Again_P5qLwgfe5zk_YT.mp4</name>
															<enabled>TRUE</enabled>
															<duration>21188</duration>
															<rate>
																<timebase>30</timebase>
																<ntsc>TRUE</ntsc>
															</rate>
															<start>2837</start>
															<end>3454</end>
															<in>14296</in>
															<out>14912</out>
															<pproTicksIn>125185604544000</pproTicksIn>
															<pproTicksOut>130588842384000</pproTicksOut>
															<alphatype>none</alphatype>
															<file id="file-32"/>
															<filter>
																<effect>
																	<name>Basic Motion</name>
																	<effectid>basic</effectid>
																	<effectcategory>motion</effectcategory>
																	<effecttype>motion</effecttype>
																	<mediatype>video</mediatype>
																	<pproBypass>false</pproBypass>
																	<parameter authoringApp="PremierePro">
																		<parameterid>scale</parameterid>
																		<name>Scale</name>
																		<valuemin>0</valuemin>
																		<valuemax>1000</valuemax>
																		<value>124</value>
																	</parameter>
																	<parameter authoringApp="PremierePro">
																		<parameterid>rotation</parameterid>
																		<name>Rotation</name>
																		<valuemin>-8640</valuemin>
																		<valuemax>8640</valuemax>
																		<value>0</value>
																	</parameter>
																	<parameter authoringApp="PremierePro">
																		<parameterid>center</parameterid>
																		<name>Center</name>
																		<value>
																			<horiz>0</horiz>
																			<vert>0</vert>
																		</value>
																	</parameter>
																	<parameter authoringApp="PremierePro">
																		<parameterid>centerOffset</parameterid>
																		<name>Anchor Point</name>
																		<value>
																			<horiz>0</horiz>
																			<vert>0</vert>
																		</value>
																	</parameter>
																	<parameter authoringApp="PremierePro">
																		<parameterid>antiflicker</parameterid>
																		<name>Anti-flicker Filter</name>
																		<valuemin>0.0</valuemin>
																		<valuemax>1.0</valuemax>
																		<value>0</value>
																	</parameter>
																</effect>
															</filter>
															<filter>
																<effect>
																	<name>Time Remap</name>
																	<effectid>timeremap</effectid>
																	<effectcategory>motion</effectcategory>
																	<effecttype>motion</effecttype>
																	<mediatype>video</mediatype>
																	<parameter authoringApp="PremierePro">
																		<parameterid>variablespeed</parameterid>
																		<name>variablespeed</name>
																		<valuemin>0</valuemin>
																		<valuemax>1</valuemax>
																		<value>0</value>
																	</parameter>
																	<parameter authoringApp="PremierePro">
																		<parameterid>speed</parameterid>
																		<name>speed</name>
																		<valuemin>-100000</valuemin>
																		<valuemax>100000</valuemax>
																		<value>103.323</value>
																	</parameter>
																	<parameter authoringApp="PremierePro">
																		<parameterid>reverse</parameterid>
																		<name>reverse</name>
																		<value>FALSE</value>
																	</parameter>
																	<parameter authoringApp="PremierePro">
																		<parameterid>frameblending</parameterid>
																		<name>frameblending</name>
																		<value>FALSE</value>
																	</parameter>
																	<parameter authoringApp="PremierePro">
																		<parameterid>graphdict</parameterid>
																		<name>graphdict</name>
																		<valuemin>0</valuemin>
																		<valuemax>21891</valuemax>
																		<value>0</value>
																		<keyframe>
																			<when>0</when>
																			<value>0</value>
																			<speedvirtualkf>TRUE</speedvirtualkf>
																			<speedkfstart>TRUE</speedkfstart>
																		</keyframe>
																		<keyframe>
																			<when>14296</when>
																			<value>14770</value>
																			<speedvirtualkf>TRUE</speedvirtualkf>
																			<speedkfin>TRUE</speedkfin>
																		</keyframe>
																		<keyframe>
																			<when>14912</when>
																			<value>15407</value>
																			<speedvirtualkf>TRUE</speedvirtualkf>
																			<speedkfout>TRUE</speedkfout>
																		</keyframe>
																		<keyframe>
																			<when>21188</when>
																			<value>21891</value>
																			<speedvirtualkf>TRUE</speedvirtualkf>
																			<speedkfend>TRUE</speedkfend>
																		</keyframe>
																		<interpolation>
																			<name>FCPCurve</name>
																		</interpolation>
																	</parameter>
																</effect>
															</filter>
															<logginginfo>
																<description></description>
																<scene></scene>
																<shottake></shottake>
																<lognote>https://www.youtube.com/watch?v=P5qLwgfe5zk</lognote>
																<good></good>
																<originalvideofilename></originalvideofilename>
																<originalaudiofilename></originalaudiofilename>
															</logginginfo>
															<colorinfo>
																<lut></lut>
																<lut1></lut1>
																<asc_sop></asc_sop>
																<asc_sat></asc_sat>
																<lut2></lut2>
															</colorinfo>
															<labels>
																<label2>Iris</label2>
															</labels>
														</clipitem>
														<clipitem id="clipitem-120">
															<masterclipid>masterclip-39</masterclipid>
															<name>(Kiki DiY's)_Dollar Tree Galvanized Farmhouse Windmill _ Easy and Inexpensive Home Decor _ Oops I Did It Again_P5qLwgfe5zk_YT.mp4</name>
															<enabled>TRUE</enabled>
															<duration>17513</duration>
															<rate>
																<timebase>30</timebase>
																<ntsc>TRUE</ntsc>
															</rate>
															<start>3454</start>
															<end>3681</end>
															<in>12712</in>
															<out>12938</out>
															<pproTicksIn>134669876140800</pproTicksIn>
															<pproTicksOut>137074846708800</pproTicksOut>
															<alphatype>none</alphatype>
															<file id="file-32"/>
															<filter>
																<effect>
																	<name>Basic Motion</name>
																	<effectid>basic</effectid>
																	<effectcategory>motion</effectcategory>
																	<effecttype>motion</effecttype>
																	<mediatype>video</mediatype>
																	<pproBypass>false</pproBypass>
																	<parameter authoringApp="PremierePro">
																		<parameterid>scale</parameterid>
																		<name>Scale</name>
																		<valuemin>0</valuemin>
																		<valuemax>1000</valuemax>
																		<value>124</value>
																	</parameter>
																	<parameter authoringApp="PremierePro">
																		<parameterid>rotation</parameterid>
																		<name>Rotation</name>
																		<valuemin>-8640</valuemin>
																		<valuemax>8640</valuemax>
																		<value>0</value>
																	</parameter>
																	<parameter authoringApp="PremierePro">
																		<parameterid>center</parameterid>
																		<name>Center</name>
																		<value>
																			<horiz>0</horiz>
																			<vert>0</vert>
																		</value>
																	</parameter>
																	<parameter authoringApp="PremierePro">
																		<parameterid>centerOffset</parameterid>
																		<name>Anchor Point</name>
																		<value>
																			<horiz>0</horiz>
																			<vert>0</vert>
																		</value>
																	</parameter>
																	<parameter authoringApp="PremierePro">
																		<parameterid>antiflicker</parameterid>
																		<name>Anti-flicker Filter</name>
																		<valuemin>0.0</valuemin>
																		<valuemax>1.0</valuemax>
																		<value>0</value>
																	</parameter>
																</effect>
															</filter>
															<filter>
																<effect>
																	<name>Time Remap</name>
																	<effectid>timeremap</effectid>
																	<effectcategory>motion</effectcategory>
																	<effecttype>motion</effecttype>
																	<mediatype>video</mediatype>
																	<parameter authoringApp="PremierePro">
																		<parameterid>variablespeed</parameterid>
																		<name>variablespeed</name>
																		<valuemin>0</valuemin>
																		<valuemax>1</valuemax>
																		<value>0</value>
																	</parameter>
																	<parameter authoringApp="PremierePro">
																		<parameterid>speed</parameterid>
																		<name>speed</name>
																		<valuemin>-100000</valuemin>
																		<valuemax>100000</valuemax>
																		<value>125</value>
																	</parameter>
																	<parameter authoringApp="PremierePro">
																		<parameterid>reverse</parameterid>
																		<name>reverse</name>
																		<value>FALSE</value>
																	</parameter>
																	<parameter authoringApp="PremierePro">
																		<parameterid>frameblending</parameterid>
																		<name>frameblending</name>
																		<value>FALSE</value>
																	</parameter>
																	<parameter authoringApp="PremierePro">
																		<parameterid>graphdict</parameterid>
																		<name>graphdict</name>
																		<valuemin>0</valuemin>
																		<valuemax>21891</valuemax>
																		<value>0</value>
																		<keyframe>
																			<when>0</when>
																			<value>0</value>
																			<speedvirtualkf>TRUE</speedvirtualkf>
																			<speedkfstart>TRUE</speedkfstart>
																		</keyframe>
																		<keyframe>
																			<when>12712</when>
																			<value>15890</value>
																			<speedvirtualkf>TRUE</speedvirtualkf>
																			<speedkfin>TRUE</speedkfin>
																		</keyframe>
																		<keyframe>
																			<when>12938</when>
																			<value>16172</value>
																			<speedvirtualkf>TRUE</speedvirtualkf>
																			<speedkfout>TRUE</speedkfout>
																		</keyframe>
																		<keyframe>
																			<when>17513</when>
																			<value>21891</value>
																			<speedvirtualkf>TRUE</speedvirtualkf>
																			<speedkfend>TRUE</speedkfend>
																		</keyframe>
																		<interpolation>
																			<name>FCPCurve</name>
																		</interpolation>
																	</parameter>
																</effect>
															</filter>
															<logginginfo>
																<description></description>
																<scene></scene>
																<shottake></shottake>
																<lognote>https://www.youtube.com/watch?v=P5qLwgfe5zk</lognote>
																<good></good>
																<originalvideofilename></originalvideofilename>
																<originalaudiofilename></originalaudiofilename>
															</logginginfo>
															<colorinfo>
																<lut></lut>
																<lut1></lut1>
																<asc_sop></asc_sop>
																<asc_sat></asc_sat>
																<lut2></lut2>
															</colorinfo>
															<labels>
																<label2>Iris</label2>
															</labels>
														</clipitem>
														<clipitem id="clipitem-121">
															<masterclipid>masterclip-39</masterclipid>
															<name>(Kiki DiY's)_Dollar Tree Galvanized Farmhouse Windmill _ Easy and Inexpensive Home Decor _ Oops I Did It Again_P5qLwgfe5zk_YT.mp4</name>
															<enabled>TRUE</enabled>
															<duration>21892</duration>
															<rate>
																<timebase>30</timebase>
																<ntsc>TRUE</ntsc>
															</rate>
															<start>3681</start>
															<end>3881</end>
															<in>18111</in>
															<out>18311</out>
															<pproTicksIn>153502808659200</pproTicksIn>
															<pproTicksOut>155197942099200</pproTicksOut>
															<alphatype>none</alphatype>
															<file id="file-32"/>
															<filter>
																<effect>
																	<name>Basic Motion</name>
																	<effectid>basic</effectid>
																	<effectcategory>motion</effectcategory>
																	<effecttype>motion</effecttype>
																	<mediatype>video</mediatype>
																	<pproBypass>false</pproBypass>
																	<parameter authoringApp="PremierePro">
																		<parameterid>scale</parameterid>
																		<name>Scale</name>
																		<valuemin>0</valuemin>
																		<valuemax>1000</valuemax>
																		<value>124</value>
																	</parameter>
																	<parameter authoringApp="PremierePro">
																		<parameterid>rotation</parameterid>
																		<name>Rotation</name>
																		<valuemin>-8640</valuemin>
																		<valuemax>8640</valuemax>
																		<value>0</value>
																	</parameter>
																	<parameter authoringApp="PremierePro">
																		<parameterid>center</parameterid>
																		<name>Center</name>
																		<value>
																			<horiz>0</horiz>
																			<vert>0</vert>
																		</value>
																	</parameter>
																	<parameter authoringApp="PremierePro">
																		<parameterid>centerOffset</parameterid>
																		<name>Anchor Point</name>
																		<value>
																			<horiz>0</horiz>
																			<vert>0</vert>
																		</value>
																	</parameter>
																	<parameter authoringApp="PremierePro">
																		<parameterid>antiflicker</parameterid>
																		<name>Anti-flicker Filter</name>
																		<valuemin>0.0</valuemin>
																		<valuemax>1.0</valuemax>
																		<value>0</value>
																	</parameter>
																</effect>
															</filter>
															<logginginfo>
																<description></description>
																<scene></scene>
																<shottake></shottake>
																<lognote>https://www.youtube.com/watch?v=P5qLwgfe5zk</lognote>
																<good></good>
																<originalvideofilename></originalvideofilename>
																<originalaudiofilename></originalaudiofilename>
															</logginginfo>
															<colorinfo>
																<lut></lut>
																<lut1></lut1>
																<asc_sop></asc_sop>
																<asc_sat></asc_sat>
																<lut2></lut2>
															</colorinfo>
															<labels>
																<label2>Iris</label2>
															</labels>
														</clipitem>
														<clipitem id="clipitem-122">
															<masterclipid>masterclip-39</masterclipid>
															<name>(Kiki DiY's)_Dollar Tree Galvanized Farmhouse Windmill _ Easy and Inexpensive Home Decor _ Oops I Did It Again_P5qLwgfe5zk_YT.mp4</name>
															<enabled>TRUE</enabled>
															<duration>10341</duration>
															<rate>
																<timebase>30</timebase>
																<ntsc>TRUE</ntsc>
															</rate>
															<start>3881</start>
															<end>3958</end>
															<in>9259</in>
															<out>9335</out>
															<pproTicksIn>166114601452800</pproTicksIn>
															<pproTicksOut>167496135206400</pproTicksOut>
															<alphatype>none</alphatype>
															<file id="file-32"/>
															<filter>
																<effect>
																	<name>Basic Motion</name>
																	<effectid>basic</effectid>
																	<effectcategory>motion</effectcategory>
																	<effecttype>motion</effecttype>
																	<mediatype>video</mediatype>
																	<pproBypass>false</pproBypass>
																	<parameter authoringApp="PremierePro">
																		<parameterid>scale</parameterid>
																		<name>Scale</name>
																		<valuemin>0</valuemin>
																		<valuemax>1000</valuemax>
																		<value>124</value>
																	</parameter>
																	<parameter authoringApp="PremierePro">
																		<parameterid>rotation</parameterid>
																		<name>Rotation</name>
																		<valuemin>-8640</valuemin>
																		<valuemax>8640</valuemax>
																		<value>0</value>
																	</parameter>
																	<parameter authoringApp="PremierePro">
																		<parameterid>center</parameterid>
																		<name>Center</name>
																		<value>
																			<horiz>0</horiz>
																			<vert>0</vert>
																		</value>
																	</parameter>
																	<parameter authoringApp="PremierePro">
																		<parameterid>centerOffset</parameterid>
																		<name>Anchor Point</name>
																		<value>
																			<horiz>0</horiz>
																			<vert>0</vert>
																		</value>
																	</parameter>
																	<parameter authoringApp="PremierePro">
																		<parameterid>antiflicker</parameterid>
																		<name>Anti-flicker Filter</name>
																		<valuemin>0.0</valuemin>
																		<valuemax>1.0</valuemax>
																		<value>0</value>
																	</parameter>
																</effect>
															</filter>
															<filter>
																<effect>
																	<name>Time Remap</name>
																	<effectid>timeremap</effectid>
																	<effectcategory>motion</effectcategory>
																	<effecttype>motion</effecttype>
																	<mediatype>video</mediatype>
																	<parameter authoringApp="PremierePro">
																		<parameterid>variablespeed</parameterid>
																		<name>variablespeed</name>
																		<valuemin>0</valuemin>
																		<valuemax>1</valuemax>
																		<value>0</value>
																	</parameter>
																	<parameter authoringApp="PremierePro">
																		<parameterid>speed</parameterid>
																		<name>speed</name>
																		<valuemin>-100000</valuemin>
																		<valuemax>100000</valuemax>
																		<value>211.688</value>
																	</parameter>
																	<parameter authoringApp="PremierePro">
																		<parameterid>reverse</parameterid>
																		<name>reverse</name>
																		<value>FALSE</value>
																	</parameter>
																	<parameter authoringApp="PremierePro">
																		<parameterid>frameblending</parameterid>
																		<name>frameblending</name>
																		<value>FALSE</value>
																	</parameter>
																	<parameter authoringApp="PremierePro">
																		<parameterid>graphdict</parameterid>
																		<name>graphdict</name>
																		<valuemin>0</valuemin>
																		<valuemax>21890</valuemax>
																		<value>0</value>
																		<keyframe>
																			<when>0</when>
																			<value>0</value>
																			<speedvirtualkf>TRUE</speedvirtualkf>
																			<speedkfstart>TRUE</speedkfstart>
																		</keyframe>
																		<keyframe>
																			<when>9259</when>
																			<value>19600</value>
																			<speedvirtualkf>TRUE</speedvirtualkf>
																			<speedkfin>TRUE</speedkfin>
																		</keyframe>
																		<keyframe>
																			<when>9335</when>
																			<value>19761</value>
																			<speedvirtualkf>TRUE</speedvirtualkf>
																			<speedkfout>TRUE</speedkfout>
																		</keyframe>
																		<keyframe>
																			<when>10341</when>
																			<value>21890</value>
																			<speedvirtualkf>TRUE</speedvirtualkf>
																			<speedkfend>TRUE</speedkfend>
																		</keyframe>
																		<interpolation>
																			<name>FCPCurve</name>
																		</interpolation>
																	</parameter>
																</effect>
															</filter>
															<logginginfo>
																<description></description>
																<scene></scene>
																<shottake></shottake>
																<lognote>https://www.youtube.com/watch?v=P5qLwgfe5zk</lognote>
																<good></good>
																<originalvideofilename></originalvideofilename>
																<originalaudiofilename></originalaudiofilename>
															</logginginfo>
															<colorinfo>
																<lut></lut>
																<lut1></lut1>
																<asc_sop></asc_sop>
																<asc_sat></asc_sat>
																<lut2></lut2>
															</colorinfo>
															<labels>
																<label2>Iris</label2>
															</labels>
														</clipitem>
														<enabled>TRUE</enabled>
														<locked>FALSE</locked>
													</track>
													<track TL.SQTrackShy="0" TL.SQTrackExpandedHeight="25" TL.SQTrackExpanded="0" MZ.TrackTargeted="0">
														<clipitem id="clipitem-123">
															<masterclipid>masterclip-40</masterclipid>
															<name>KIKI'S DIY</name>
															<enabled>TRUE</enabled>
															<duration>5844</duration>
															<rate>
																<timebase>30</timebase>
																<ntsc>TRUE</ntsc>
															</rate>
															<start>0</start>
															<end>3958</end>
															<in>0</in>
															<out>3958</out>
															<pproTicksIn>0</pproTicksIn>
															<pproTicksOut>33546690777600</pproTicksOut>
															<alphatype>straight</alphatype>
															<pixelaspectratio>square</pixelaspectratio>
															<anamorphic>FALSE</anamorphic>
															<file id="file-33">
																<name>1080/AE Attribution.aep</name>
																<pathurl>file://localhost/Volumes/ATM%20JR%202TB/Master%20Assets/AE%20Attribution.aep</pathurl>
																<rate>
																	<timebase>30</timebase>
																	<ntsc>TRUE</ntsc>
																</rate>
																<duration>5844</duration>
																<timecode>
																	<rate>
																		<timebase>30</timebase>
																		<ntsc>TRUE</ntsc>
																	</rate>
																	<string>00;00;00;00</string>
																	<frame>0</frame>
																	<displayformat>DF</displayformat>
																</timecode>
																<media>
																	<video>
																		<samplecharacteristics>
																			<rate>
																				<timebase>30</timebase>
																				<ntsc>TRUE</ntsc>
																			</rate>
																			<width>1920</width>
																			<height>1080</height>
																			<anamorphic>FALSE</anamorphic>
																			<pixelaspectratio>square</pixelaspectratio>
																			<fielddominance>lower</fielddominance>
																		</samplecharacteristics>
																	</video>
																</media>
															</file>
															<logginginfo>
																<description></description>
																<scene></scene>
																<shottake></shottake>
																<lognote></lognote>
																<good></good>
																<originalvideofilename></originalvideofilename>
																<originalaudiofilename></originalaudiofilename>
															</logginginfo>
															<colorinfo>
																<lut></lut>
																<lut1></lut1>
																<asc_sop></asc_sop>
																<asc_sat></asc_sat>
																<lut2></lut2>
															</colorinfo>
															<labels>
																<label2>Rose</label2>
															</labels>
														</clipitem>
														<enabled>TRUE</enabled>
														<locked>FALSE</locked>
													</track>
													<track TL.SQTrackShy="0" TL.SQTrackExpandedHeight="25" TL.SQTrackExpanded="0" MZ.TrackTargeted="0">
														<enabled>TRUE</enabled>
														<locked>FALSE</locked>
													</track>
												</video>
												<audio>
													<numOutputChannels>2</numOutputChannels>
													<format>
														<samplecharacteristics>
															<depth>16</depth>
															<samplerate>48000</samplerate>
														</samplecharacteristics>
													</format>
													<outputs>
														<group>
															<index>1</index>
															<numchannels>1</numchannels>
															<downmix>0</downmix>
															<channel>
																<index>1</index>
															</channel>
														</group>
														<group>
															<index>2</index>
															<numchannels>1</numchannels>
															<downmix>0</downmix>
															<channel>
																<index>2</index>
															</channel>
														</group>
													</outputs>
													<track TL.SQTrackAudioKeyframeStyle="0" TL.SQTrackShy="0" TL.SQTrackExpandedHeight="25" TL.SQTrackExpanded="0" MZ.TrackTargeted="1" PannerCurrentValue="0.5" PannerIsInverted="true" PannerStartKeyframe="-91445760000000000,0.5,0,0,0,0,0,0" PannerName="Balance" currentExplodedTrackIndex="0" totalExplodedTrackCount="2" premiereTrackType="Stereo">
														<enabled>TRUE</enabled>
														<locked>FALSE</locked>
														<outputchannelindex>1</outputchannelindex>
													</track>
													<track TL.SQTrackAudioKeyframeStyle="0" TL.SQTrackShy="0" TL.SQTrackExpandedHeight="25" TL.SQTrackExpanded="0" MZ.TrackTargeted="1" PannerCurrentValue="0.5" PannerIsInverted="true" PannerStartKeyframe="-91445760000000000,0.5,0,0,0,0,0,0" PannerName="Balance" currentExplodedTrackIndex="1" totalExplodedTrackCount="2" premiereTrackType="Stereo">
														<enabled>TRUE</enabled>
														<locked>FALSE</locked>
														<outputchannelindex>2</outputchannelindex>
													</track>
												</audio>
											</media>
											<timecode>
												<rate>
													<timebase>30</timebase>
													<ntsc>TRUE</ntsc>
												</rate>
												<string>00;00;00;00</string>
												<frame>0</frame>
												<displayformat>DF</displayformat>
											</timecode>
											<logginginfo>
												<description></description>
												<scene></scene>
												<shottake></shottake>
												<lognote></lognote>
												<good></good>
												<originalvideofilename></originalvideofilename>
												<originalaudiofilename></originalaudiofilename>
											</logginginfo>
										</sequence>
										<labels>
											<label2>Forest</label2>
										</labels>
									</clipitem>
									<clipitem id="clipitem-124">
										<masterclipid>masterclip-41</masterclipid>
										<name>DIY_ROPEDIN_1</name>
										<enabled>TRUE</enabled>
										<duration>1401</duration>
										<rate>
											<timebase>30</timebase>
											<ntsc>TRUE</ntsc>
										</rate>
										<start>4037</start>
										<end>5438</end>
										<in>0</in>
										<out>1401</out>
										<pproTicksIn>0</pproTicksIn>
										<pproTicksOut>11874409747200</pproTicksOut>
										<sequence id="sequence-12" TL.SQAudioVisibleBase="0" TL.SQVideoVisibleBase="0" TL.SQVisibleBaseTime="0" TL.SQAVDividerPosition="0.5" TL.SQHideShyTracks="0" TL.SQHeaderWidth="236" Monitor.ProgramZoomOut="11874409747200" Monitor.ProgramZoomIn="0" TL.SQTimePerPixel="0.10272068732028185" MZ.EditLine="11637091065600" MZ.Sequence.PreviewFrameSizeHeight="1080" MZ.Sequence.PreviewFrameSizeWidth="1920" MZ.Sequence.AudioTimeDisplayFormat="200" MZ.Sequence.PreviewRenderingClassID="1061109567" MZ.Sequence.PreviewRenderingPresetCodec="1634755443" MZ.Sequence.PreviewRenderingPresetPath="EncoderPresets/SequencePreview/35d109db-457b-43c1-9452-9cb7be9f121c/QuickTime.epr" MZ.Sequence.PreviewUseMaxRenderQuality="false" MZ.Sequence.PreviewUseMaxBitDepth="false" MZ.Sequence.EditingModeGUID="35d109db-457b-43c1-9452-9cb7be9f121c" MZ.Sequence.VideoTimeDisplayFormat="102" MZ.WorkOutPoint="11874409747200" MZ.WorkInPoint="0">
											<duration>1401</duration>
											<rate>
												<timebase>30</timebase>
												<ntsc>TRUE</ntsc>
											</rate>
											<name>DIY_ROPEDIN_1</name>
											<media>
												<video>
													<format>
														<samplecharacteristics>
															<rate>
																<timebase>30</timebase>
																<ntsc>TRUE</ntsc>
															</rate>
															<codec>
																<name>Apple ProRes 422</name>
																<appspecificdata>
																	<appname>Final Cut Pro</appname>
																	<appmanufacturer>Apple Inc.</appmanufacturer>
																	<appversion>7.0</appversion>
																	<data>
																		<qtcodec>
																			<codecname>Apple ProRes 422</codecname>
																			<codectypename>Apple ProRes 422</codectypename>
																			<codectypecode>apcn</codectypecode>
																			<codecvendorcode>appl</codecvendorcode>
																			<spatialquality>1024</spatialquality>
																			<temporalquality>0</temporalquality>
																			<keyframerate>0</keyframerate>
																			<datarate>0</datarate>
																		</qtcodec>
																	</data>
																</appspecificdata>
															</codec>
															<width>1920</width>
															<height>1080</height>
															<anamorphic>FALSE</anamorphic>
															<pixelaspectratio>square</pixelaspectratio>
															<fielddominance>none</fielddominance>
															<colordepth>24</colordepth>
														</samplecharacteristics>
													</format>
													<track TL.SQTrackShy="0" TL.SQTrackExpandedHeight="25" TL.SQTrackExpanded="0" MZ.TrackTargeted="1">
														<clipitem id="clipitem-125">
															<masterclipid>masterclip-42</masterclipid>
															<name>(FaithHopeHome)_Dollar Tree Boho Tray DIY_cnGH79gi-c8_YT.mp4</name>
															<enabled>TRUE</enabled>
															<duration>1643</duration>
															<rate>
																<timebase>30</timebase>
																<ntsc>TRUE</ntsc>
															</rate>
															<start>0</start>
															<end>271</end>
															<in>0</in>
															<out>271</out>
															<pproTicksIn>0</pproTicksIn>
															<pproTicksOut>2296905811200</pproTicksOut>
															<alphatype>none</alphatype>
															<pixelaspectratio>square</pixelaspectratio>
															<anamorphic>FALSE</anamorphic>
															<file id="file-34">
																<name>(FaithHopeHome)_Dollar Tree Boho Tray DIY_cnGH79gi-c8_YT.mp4</name>
																<pathurl>file://localhost/Volumes/CONTENT/VOD%20CONTENT%20ARCHIVE/O&amp;O%20Archive%202023/CRAFTY/03_March/Crafty_3-20-2023/3_Raw%20Files/boho%20tray/(FaithHopeHome)_Dollar%20Tree%20Boho%20Tray%20DIY_cnGH79gi-c8_YT.mp4</pathurl>
																<rate>
																	<timebase>30</timebase>
																	<ntsc>FALSE</ntsc>
																</rate>
																<duration>1645</duration>
																<timecode>
																	<rate>
																		<timebase>30</timebase>
																		<ntsc>FALSE</ntsc>
																	</rate>
																	<string>00:00:00:00</string>
																	<frame>0</frame>
																	<displayformat>NDF</displayformat>
																</timecode>
																<media>
																	<video>
																		<samplecharacteristics>
																			<rate>
																				<timebase>30</timebase>
																				<ntsc>FALSE</ntsc>
																			</rate>
																			<width>1920</width>
																			<height>1080</height>
																			<anamorphic>FALSE</anamorphic>
																			<pixelaspectratio>square</pixelaspectratio>
																			<fielddominance>none</fielddominance>
																		</samplecharacteristics>
																	</video>
																	<audio>
																		<samplecharacteristics>
																			<depth>16</depth>
																			<samplerate>44100</samplerate>
																		</samplecharacteristics>
																		<channelcount>2</channelcount>
																	</audio>
																</media>
															</file>
															<filter>
																<effect>
																	<name>Basic Motion</name>
																	<effectid>basic</effectid>
																	<effectcategory>motion</effectcategory>
																	<effecttype>motion</effecttype>
																	<mediatype>video</mediatype>
																	<pproBypass>false</pproBypass>
																	<parameter authoringApp="PremierePro">
																		<parameterid>scale</parameterid>
																		<name>Scale</name>
																		<valuemin>0</valuemin>
																		<valuemax>1000</valuemax>
																		<value>426</value>
																	</parameter>
																	<parameter authoringApp="PremierePro">
																		<parameterid>rotation</parameterid>
																		<name>Rotation</name>
																		<valuemin>-8640</valuemin>
																		<valuemax>8640</valuemax>
																		<value>0</value>
																	</parameter>
																	<parameter authoringApp="PremierePro">
																		<parameterid>center</parameterid>
																		<name>Center</name>
																		<value>
																			<horiz>0</horiz>
																			<vert>0</vert>
																		</value>
																	</parameter>
																	<parameter authoringApp="PremierePro">
																		<parameterid>centerOffset</parameterid>
																		<name>Anchor Point</name>
																		<value>
																			<horiz>0</horiz>
																			<vert>0</vert>
																		</value>
																	</parameter>
																	<parameter authoringApp="PremierePro">
																		<parameterid>antiflicker</parameterid>
																		<name>Anti-flicker Filter</name>
																		<valuemin>0.0</valuemin>
																		<valuemax>1.0</valuemax>
																		<value>0</value>
																	</parameter>
																</effect>
															</filter>
															<filter>
																<effect>
																	<name>Gaussian Blur</name>
																	<effectid>Gaussian Blur</effectid>
																	<effectcategory>Blur</effectcategory>
																	<effecttype>motion</effecttype>
																	<mediatype>video</mediatype>
																	<pproBypass>false</pproBypass>
																	<parameter authoringApp="PremierePro">
																		<parameterid>radius</parameterid>
																		<name>Radius</name>
																		<valuemin>0</valuemin>
																		<valuemax>100</valuemax>
																		<value>25</value>
																	</parameter>
																</effect>
															</filter>
															<logginginfo>
																<description></description>
																<scene></scene>
																<shottake></shottake>
																<lognote>https://www.youtube.com/watch?v=cnGH79gi-c8</lognote>
																<good></good>
																<originalvideofilename></originalvideofilename>
																<originalaudiofilename></originalaudiofilename>
															</logginginfo>
															<colorinfo>
																<lut></lut>
																<lut1></lut1>
																<asc_sop></asc_sop>
																<asc_sat></asc_sat>
																<lut2></lut2>
															</colorinfo>
															<labels>
																<label2>Iris</label2>
															</labels>
														</clipitem>
														<clipitem id="clipitem-126">
															<masterclipid>masterclip-42</masterclipid>
															<name>(FaithHopeHome)_Dollar Tree Boho Tray DIY_cnGH79gi-c8_YT.mp4</name>
															<enabled>TRUE</enabled>
															<duration>1643</duration>
															<rate>
																<timebase>30</timebase>
																<ntsc>TRUE</ntsc>
															</rate>
															<start>271</start>
															<end>314</end>
															<in>351</in>
															<out>394</out>
															<pproTicksIn>2974959187200</pproTicksIn>
															<pproTicksOut>3339412876800</pproTicksOut>
															<alphatype>none</alphatype>
															<file id="file-34"/>
															<filter>
																<effect>
																	<name>Basic Motion</name>
																	<effectid>basic</effectid>
																	<effectcategory>motion</effectcategory>
																	<effecttype>motion</effecttype>
																	<mediatype>video</mediatype>
																	<pproBypass>false</pproBypass>
																	<parameter authoringApp="PremierePro">
																		<parameterid>scale</parameterid>
																		<name>Scale</name>
																		<valuemin>0</valuemin>
																		<valuemax>1000</valuemax>
																		<value>426</value>
																	</parameter>
																	<parameter authoringApp="PremierePro">
																		<parameterid>rotation</parameterid>
																		<name>Rotation</name>
																		<valuemin>-8640</valuemin>
																		<valuemax>8640</valuemax>
																		<value>0</value>
																	</parameter>
																	<parameter authoringApp="PremierePro">
																		<parameterid>center</parameterid>
																		<name>Center</name>
																		<value>
																			<horiz>0</horiz>
																			<vert>0</vert>
																		</value>
																	</parameter>
																	<parameter authoringApp="PremierePro">
																		<parameterid>centerOffset</parameterid>
																		<name>Anchor Point</name>
																		<value>
																			<horiz>0</horiz>
																			<vert>0</vert>
																		</value>
																	</parameter>
																	<parameter authoringApp="PremierePro">
																		<parameterid>antiflicker</parameterid>
																		<name>Anti-flicker Filter</name>
																		<valuemin>0.0</valuemin>
																		<valuemax>1.0</valuemax>
																		<value>0</value>
																	</parameter>
																</effect>
															</filter>
															<filter>
																<effect>
																	<name>Gaussian Blur</name>
																	<effectid>Gaussian Blur</effectid>
																	<effectcategory>Blur</effectcategory>
																	<effecttype>motion</effecttype>
																	<mediatype>video</mediatype>
																	<pproBypass>false</pproBypass>
																	<parameter authoringApp="PremierePro">
																		<parameterid>radius</parameterid>
																		<name>Radius</name>
																		<valuemin>0</valuemin>
																		<valuemax>100</valuemax>
																		<value>25</value>
																	</parameter>
																</effect>
															</filter>
															<logginginfo>
																<description></description>
																<scene></scene>
																<shottake></shottake>
																<lognote>https://www.youtube.com/watch?v=cnGH79gi-c8</lognote>
																<good></good>
																<originalvideofilename></originalvideofilename>
																<originalaudiofilename></originalaudiofilename>
															</logginginfo>
															<colorinfo>
																<lut></lut>
																<lut1></lut1>
																<asc_sop></asc_sop>
																<asc_sat></asc_sat>
																<lut2></lut2>
															</colorinfo>
															<labels>
																<label2>Iris</label2>
															</labels>
														</clipitem>
														<clipitem id="clipitem-127">
															<masterclipid>masterclip-42</masterclipid>
															<name>(FaithHopeHome)_Dollar Tree Boho Tray DIY_cnGH79gi-c8_YT.mp4</name>
															<enabled>TRUE</enabled>
															<duration>1643</duration>
															<rate>
																<timebase>30</timebase>
																<ntsc>TRUE</ntsc>
															</rate>
															<start>314</start>
															<end>1401</end>
															<in>419</in>
															<out>1506</out>
															<pproTicksIn>3551304556800</pproTicksIn>
															<pproTicksOut>12764354803200</pproTicksOut>
															<alphatype>none</alphatype>
															<file id="file-34"/>
															<filter>
																<effect>
																	<name>Basic Motion</name>
																	<effectid>basic</effectid>
																	<effectcategory>motion</effectcategory>
																	<effecttype>motion</effecttype>
																	<mediatype>video</mediatype>
																	<pproBypass>false</pproBypass>
																	<parameter authoringApp="PremierePro">
																		<parameterid>scale</parameterid>
																		<name>Scale</name>
																		<valuemin>0</valuemin>
																		<valuemax>1000</valuemax>
																		<value>426</value>
																	</parameter>
																	<parameter authoringApp="PremierePro">
																		<parameterid>rotation</parameterid>
																		<name>Rotation</name>
																		<valuemin>-8640</valuemin>
																		<valuemax>8640</valuemax>
																		<value>0</value>
																	</parameter>
																	<parameter authoringApp="PremierePro">
																		<parameterid>center</parameterid>
																		<name>Center</name>
																		<value>
																			<horiz>0</horiz>
																			<vert>0</vert>
																		</value>
																	</parameter>
																	<parameter authoringApp="PremierePro">
																		<parameterid>centerOffset</parameterid>
																		<name>Anchor Point</name>
																		<value>
																			<horiz>0</horiz>
																			<vert>0</vert>
																		</value>
																	</parameter>
																	<parameter authoringApp="PremierePro">
																		<parameterid>antiflicker</parameterid>
																		<name>Anti-flicker Filter</name>
																		<valuemin>0.0</valuemin>
																		<valuemax>1.0</valuemax>
																		<value>0</value>
																	</parameter>
																</effect>
															</filter>
															<filter>
																<effect>
																	<name>Gaussian Blur</name>
																	<effectid>Gaussian Blur</effectid>
																	<effectcategory>Blur</effectcategory>
																	<effecttype>motion</effecttype>
																	<mediatype>video</mediatype>
																	<pproBypass>false</pproBypass>
																	<parameter authoringApp="PremierePro">
																		<parameterid>radius</parameterid>
																		<name>Radius</name>
																		<valuemin>0</valuemin>
																		<valuemax>100</valuemax>
																		<value>25</value>
																	</parameter>
																</effect>
															</filter>
															<logginginfo>
																<description></description>
																<scene></scene>
																<shottake></shottake>
																<lognote>https://www.youtube.com/watch?v=cnGH79gi-c8</lognote>
																<good></good>
																<originalvideofilename></originalvideofilename>
																<originalaudiofilename></originalaudiofilename>
															</logginginfo>
															<colorinfo>
																<lut></lut>
																<lut1></lut1>
																<asc_sop></asc_sop>
																<asc_sat></asc_sat>
																<lut2></lut2>
															</colorinfo>
															<labels>
																<label2>Iris</label2>
															</labels>
														</clipitem>
														<enabled>TRUE</enabled>
														<locked>FALSE</locked>
													</track>
													<track TL.SQTrackShy="0" TL.SQTrackExpandedHeight="25" TL.SQTrackExpanded="0" MZ.TrackTargeted="0">
														<clipitem id="clipitem-128">
															<masterclipid>masterclip-42</masterclipid>
															<name>(FaithHopeHome)_Dollar Tree Boho Tray DIY_cnGH79gi-c8_YT.mp4</name>
															<enabled>TRUE</enabled>
															<duration>1643</duration>
															<rate>
																<timebase>30</timebase>
																<ntsc>TRUE</ntsc>
															</rate>
															<start>0</start>
															<end>271</end>
															<in>0</in>
															<out>271</out>
															<pproTicksIn>0</pproTicksIn>
															<pproTicksOut>2296905811200</pproTicksOut>
															<alphatype>none</alphatype>
															<file id="file-34"/>
															<filter>
																<effect>
																	<name>Basic Motion</name>
																	<effectid>basic</effectid>
																	<effectcategory>motion</effectcategory>
																	<effecttype>motion</effecttype>
																	<mediatype>video</mediatype>
																	<pproBypass>false</pproBypass>
																	<parameter authoringApp="PremierePro">
																		<parameterid>scale</parameterid>
																		<name>Scale</name>
																		<valuemin>0</valuemin>
																		<valuemax>1000</valuemax>
																		<value>177</value>
																	</parameter>
																	<parameter authoringApp="PremierePro">
																		<parameterid>rotation</parameterid>
																		<name>Rotation</name>
																		<valuemin>-8640</valuemin>
																		<valuemax>8640</valuemax>
																		<value>0</value>
																	</parameter>
																	<parameter authoringApp="PremierePro">
																		<parameterid>center</parameterid>
																		<name>Center</name>
																		<value>
																			<horiz>0</horiz>
																			<vert>0.112963</vert>
																		</value>
																	</parameter>
																	<parameter authoringApp="PremierePro">
																		<parameterid>centerOffset</parameterid>
																		<name>Anchor Point</name>
																		<value>
																			<horiz>0</horiz>
																			<vert>0</vert>
																		</value>
																	</parameter>
																	<parameter authoringApp="PremierePro">
																		<parameterid>antiflicker</parameterid>
																		<name>Anti-flicker Filter</name>
																		<valuemin>0.0</valuemin>
																		<valuemax>1.0</valuemax>
																		<value>0</value>
																	</parameter>
																</effect>
															</filter>
															<filter>
																<effect>
																	<name>Crop</name>
																	<effectid>crop</effectid>
																	<effectcategory>motion</effectcategory>
																	<effecttype>motion</effecttype>
																	<mediatype>video</mediatype>
																	<pproBypass>false</pproBypass>
																	<parameter authoringApp="PremierePro">
																		<parameterid>left</parameterid>
																		<name>left</name>
																		<valuemin>0</valuemin>
																		<valuemax>100</valuemax>
																		<value>34</value>
																	</parameter>
																	<parameter authoringApp="PremierePro">
																		<parameterid>right</parameterid>
																		<name>right</name>
																		<valuemin>0</valuemin>
																		<valuemax>100</valuemax>
																		<value>34</value>
																	</parameter>
																	<parameter authoringApp="PremierePro">
																		<parameterid>top</parameterid>
																		<name>top</name>
																		<valuemin>0</valuemin>
																		<valuemax>100</valuemax>
																		<value>0</value>
																	</parameter>
																	<parameter authoringApp="PremierePro">
																		<parameterid>bottom</parameterid>
																		<name>bottom</name>
																		<valuemin>0</valuemin>
																		<valuemax>100</valuemax>
																		<value>0</value>
																	</parameter>
																</effect>
															</filter>
															<logginginfo>
																<description></description>
																<scene></scene>
																<shottake></shottake>
																<lognote>https://www.youtube.com/watch?v=cnGH79gi-c8</lognote>
																<good></good>
																<originalvideofilename></originalvideofilename>
																<originalaudiofilename></originalaudiofilename>
															</logginginfo>
															<colorinfo>
																<lut></lut>
																<lut1></lut1>
																<asc_sop></asc_sop>
																<asc_sat></asc_sat>
																<lut2></lut2>
															</colorinfo>
															<labels>
																<label2>Iris</label2>
															</labels>
														</clipitem>
														<clipitem id="clipitem-129">
															<masterclipid>masterclip-42</masterclipid>
															<name>(FaithHopeHome)_Dollar Tree Boho Tray DIY_cnGH79gi-c8_YT.mp4</name>
															<enabled>TRUE</enabled>
															<duration>1643</duration>
															<rate>
																<timebase>30</timebase>
																<ntsc>TRUE</ntsc>
															</rate>
															<start>271</start>
															<end>314</end>
															<in>351</in>
															<out>394</out>
															<pproTicksIn>2974959187200</pproTicksIn>
															<pproTicksOut>3339412876800</pproTicksOut>
															<alphatype>none</alphatype>
															<file id="file-34"/>
															<filter>
																<effect>
																	<name>Basic Motion</name>
																	<effectid>basic</effectid>
																	<effectcategory>motion</effectcategory>
																	<effecttype>motion</effecttype>
																	<mediatype>video</mediatype>
																	<pproBypass>false</pproBypass>
																	<parameter authoringApp="PremierePro">
																		<parameterid>scale</parameterid>
																		<name>Scale</name>
																		<valuemin>0</valuemin>
																		<valuemax>1000</valuemax>
																		<value>177</value>
																	</parameter>
																	<parameter authoringApp="PremierePro">
																		<parameterid>rotation</parameterid>
																		<name>Rotation</name>
																		<valuemin>-8640</valuemin>
																		<valuemax>8640</valuemax>
																		<value>0</value>
																	</parameter>
																	<parameter authoringApp="PremierePro">
																		<parameterid>center</parameterid>
																		<name>Center</name>
																		<value>
																			<horiz>0</horiz>
																			<vert>0</vert>
																		</value>
																	</parameter>
																	<parameter authoringApp="PremierePro">
																		<parameterid>centerOffset</parameterid>
																		<name>Anchor Point</name>
																		<value>
																			<horiz>0</horiz>
																			<vert>0</vert>
																		</value>
																	</parameter>
																	<parameter authoringApp="PremierePro">
																		<parameterid>antiflicker</parameterid>
																		<name>Anti-flicker Filter</name>
																		<valuemin>0.0</valuemin>
																		<valuemax>1.0</valuemax>
																		<value>0</value>
																	</parameter>
																</effect>
															</filter>
															<filter>
																<effect>
																	<name>Crop</name>
																	<effectid>crop</effectid>
																	<effectcategory>motion</effectcategory>
																	<effecttype>motion</effecttype>
																	<mediatype>video</mediatype>
																	<pproBypass>false</pproBypass>
																	<parameter authoringApp="PremierePro">
																		<parameterid>left</parameterid>
																		<name>left</name>
																		<valuemin>0</valuemin>
																		<valuemax>100</valuemax>
																		<value>34</value>
																	</parameter>
																	<parameter authoringApp="PremierePro">
																		<parameterid>right</parameterid>
																		<name>right</name>
																		<valuemin>0</valuemin>
																		<valuemax>100</valuemax>
																		<value>34</value>
																	</parameter>
																	<parameter authoringApp="PremierePro">
																		<parameterid>top</parameterid>
																		<name>top</name>
																		<valuemin>0</valuemin>
																		<valuemax>100</valuemax>
																		<value>0</value>
																	</parameter>
																	<parameter authoringApp="PremierePro">
																		<parameterid>bottom</parameterid>
																		<name>bottom</name>
																		<valuemin>0</valuemin>
																		<valuemax>100</valuemax>
																		<value>0</value>
																	</parameter>
																</effect>
															</filter>
															<logginginfo>
																<description></description>
																<scene></scene>
																<shottake></shottake>
																<lognote>https://www.youtube.com/watch?v=cnGH79gi-c8</lognote>
																<good></good>
																<originalvideofilename></originalvideofilename>
																<originalaudiofilename></originalaudiofilename>
															</logginginfo>
															<colorinfo>
																<lut></lut>
																<lut1></lut1>
																<asc_sop></asc_sop>
																<asc_sat></asc_sat>
																<lut2></lut2>
															</colorinfo>
															<labels>
																<label2>Iris</label2>
															</labels>
														</clipitem>
														<clipitem id="clipitem-130">
															<masterclipid>masterclip-42</masterclipid>
															<name>(FaithHopeHome)_Dollar Tree Boho Tray DIY_cnGH79gi-c8_YT.mp4</name>
															<enabled>TRUE</enabled>
															<duration>1643</duration>
															<rate>
																<timebase>30</timebase>
																<ntsc>TRUE</ntsc>
															</rate>
															<start>314</start>
															<end>1401</end>
															<in>419</in>
															<out>1506</out>
															<pproTicksIn>3551304556800</pproTicksIn>
															<pproTicksOut>12764354803200</pproTicksOut>
															<alphatype>none</alphatype>
															<file id="file-34"/>
															<filter>
																<effect>
																	<name>Basic Motion</name>
																	<effectid>basic</effectid>
																	<effectcategory>motion</effectcategory>
																	<effecttype>motion</effecttype>
																	<mediatype>video</mediatype>
																	<pproBypass>false</pproBypass>
																	<parameter authoringApp="PremierePro">
																		<parameterid>scale</parameterid>
																		<name>Scale</name>
																		<valuemin>0</valuemin>
																		<valuemax>1000</valuemax>
																		<value>177</value>
																	</parameter>
																	<parameter authoringApp="PremierePro">
																		<parameterid>rotation</parameterid>
																		<name>Rotation</name>
																		<valuemin>-8640</valuemin>
																		<valuemax>8640</valuemax>
																		<value>0</value>
																	</parameter>
																	<parameter authoringApp="PremierePro">
																		<parameterid>center</parameterid>
																		<name>Center</name>
																		<value>
																			<horiz>0</horiz>
																			<vert>0</vert>
																		</value>
																	</parameter>
																	<parameter authoringApp="PremierePro">
																		<parameterid>centerOffset</parameterid>
																		<name>Anchor Point</name>
																		<value>
																			<horiz>0</horiz>
																			<vert>0</vert>
																		</value>
																	</parameter>
																	<parameter authoringApp="PremierePro">
																		<parameterid>antiflicker</parameterid>
																		<name>Anti-flicker Filter</name>
																		<valuemin>0.0</valuemin>
																		<valuemax>1.0</valuemax>
																		<value>0</value>
																	</parameter>
																</effect>
															</filter>
															<filter>
																<effect>
																	<name>Crop</name>
																	<effectid>crop</effectid>
																	<effectcategory>motion</effectcategory>
																	<effecttype>motion</effecttype>
																	<mediatype>video</mediatype>
																	<pproBypass>false</pproBypass>
																	<parameter authoringApp="PremierePro">
																		<parameterid>left</parameterid>
																		<name>left</name>
																		<valuemin>0</valuemin>
																		<valuemax>100</valuemax>
																		<value>34</value>
																	</parameter>
																	<parameter authoringApp="PremierePro">
																		<parameterid>right</parameterid>
																		<name>right</name>
																		<valuemin>0</valuemin>
																		<valuemax>100</valuemax>
																		<value>34</value>
																	</parameter>
																	<parameter authoringApp="PremierePro">
																		<parameterid>top</parameterid>
																		<name>top</name>
																		<valuemin>0</valuemin>
																		<valuemax>100</valuemax>
																		<value>0</value>
																	</parameter>
																	<parameter authoringApp="PremierePro">
																		<parameterid>bottom</parameterid>
																		<name>bottom</name>
																		<valuemin>0</valuemin>
																		<valuemax>100</valuemax>
																		<value>0</value>
																	</parameter>
																</effect>
															</filter>
															<logginginfo>
																<description></description>
																<scene></scene>
																<shottake></shottake>
																<lognote>https://www.youtube.com/watch?v=cnGH79gi-c8</lognote>
																<good></good>
																<originalvideofilename></originalvideofilename>
																<originalaudiofilename></originalaudiofilename>
															</logginginfo>
															<colorinfo>
																<lut></lut>
																<lut1></lut1>
																<asc_sop></asc_sop>
																<asc_sat></asc_sat>
																<lut2></lut2>
															</colorinfo>
															<labels>
																<label2>Iris</label2>
															</labels>
														</clipitem>
														<enabled>TRUE</enabled>
														<locked>FALSE</locked>
													</track>
													<track TL.SQTrackShy="0" TL.SQTrackExpandedHeight="25" TL.SQTrackExpanded="0" MZ.TrackTargeted="0">
														<clipitem id="clipitem-131">
															<masterclipid>masterclip-43</masterclipid>
															<name>@FAITHHOPEHOME</name>
															<enabled>TRUE</enabled>
															<duration>5844</duration>
															<rate>
																<timebase>30</timebase>
																<ntsc>TRUE</ntsc>
															</rate>
															<start>0</start>
															<end>1401</end>
															<in>0</in>
															<out>1401</out>
															<pproTicksIn>0</pproTicksIn>
															<pproTicksOut>11874409747200</pproTicksOut>
															<alphatype>straight</alphatype>
															<pixelaspectratio>square</pixelaspectratio>
															<anamorphic>FALSE</anamorphic>
															<file id="file-35">
																<name>1080/AE Attribution.aep</name>
																<pathurl>file://localhost/Volumes/ATM%20JR%202TB/Master%20Assets/AE%20Attribution.aep</pathurl>
																<rate>
																	<timebase>30</timebase>
																	<ntsc>TRUE</ntsc>
																</rate>
																<duration>5844</duration>
																<timecode>
																	<rate>
																		<timebase>30</timebase>
																		<ntsc>TRUE</ntsc>
																	</rate>
																	<string>00;00;00;00</string>
																	<frame>0</frame>
																	<displayformat>DF</displayformat>
																</timecode>
																<media>
																	<video>
																		<samplecharacteristics>
																			<rate>
																				<timebase>30</timebase>
																				<ntsc>TRUE</ntsc>
																			</rate>
																			<width>1920</width>
																			<height>1080</height>
																			<anamorphic>FALSE</anamorphic>
																			<pixelaspectratio>square</pixelaspectratio>
																			<fielddominance>lower</fielddominance>
																		</samplecharacteristics>
																	</video>
																</media>
															</file>
															<logginginfo>
																<description></description>
																<scene></scene>
																<shottake></shottake>
																<lognote></lognote>
																<good></good>
																<originalvideofilename></originalvideofilename>
																<originalaudiofilename></originalaudiofilename>
															</logginginfo>
															<colorinfo>
																<lut></lut>
																<lut1></lut1>
																<asc_sop></asc_sop>
																<asc_sat></asc_sat>
																<lut2></lut2>
															</colorinfo>
															<labels>
																<label2>Rose</label2>
															</labels>
														</clipitem>
														<enabled>TRUE</enabled>
														<locked>FALSE</locked>
													</track>
												</video>
												<audio>
													<numOutputChannels>2</numOutputChannels>
													<format>
														<samplecharacteristics>
															<depth>16</depth>
															<samplerate>48000</samplerate>
														</samplecharacteristics>
													</format>
													<outputs>
														<group>
															<index>1</index>
															<numchannels>1</numchannels>
															<downmix>0</downmix>
															<channel>
																<index>1</index>
															</channel>
														</group>
														<group>
															<index>2</index>
															<numchannels>1</numchannels>
															<downmix>0</downmix>
															<channel>
																<index>2</index>
															</channel>
														</group>
													</outputs>
													<track TL.SQTrackAudioKeyframeStyle="0" TL.SQTrackShy="0" TL.SQTrackExpandedHeight="25" TL.SQTrackExpanded="0" MZ.TrackTargeted="1" PannerCurrentValue="0.5" PannerIsInverted="true" PannerStartKeyframe="-91445760000000000,0.5,0,0,0,0,0,0" PannerName="Balance" currentExplodedTrackIndex="0" totalExplodedTrackCount="2" premiereTrackType="Stereo">
														<enabled>TRUE</enabled>
														<locked>FALSE</locked>
														<outputchannelindex>1</outputchannelindex>
													</track>
													<track TL.SQTrackAudioKeyframeStyle="0" TL.SQTrackShy="0" TL.SQTrackExpandedHeight="25" TL.SQTrackExpanded="0" MZ.TrackTargeted="1" PannerCurrentValue="0.5" PannerIsInverted="true" PannerStartKeyframe="-91445760000000000,0.5,0,0,0,0,0,0" PannerName="Balance" currentExplodedTrackIndex="1" totalExplodedTrackCount="2" premiereTrackType="Stereo">
														<enabled>TRUE</enabled>
														<locked>FALSE</locked>
														<outputchannelindex>2</outputchannelindex>
													</track>
												</audio>
											</media>
											<timecode>
												<rate>
													<timebase>30</timebase>
													<ntsc>TRUE</ntsc>
												</rate>
												<string>00;00;00;00</string>
												<frame>0</frame>
												<displayformat>DF</displayformat>
											</timecode>
											<logginginfo>
												<description></description>
												<scene></scene>
												<shottake></shottake>
												<lognote></lognote>
												<good></good>
												<originalvideofilename></originalvideofilename>
												<originalaudiofilename></originalaudiofilename>
											</logginginfo>
										</sequence>
										<labels>
											<label2>Forest</label2>
										</labels>
									</clipitem>
									<enabled>TRUE</enabled>
									<locked>FALSE</locked>
								</track>
								<track TL.SQTrackShy="0" TL.SQTrackExpandedHeight="25" TL.SQTrackExpanded="0" MZ.TrackTargeted="0">
									<clipitem id="clipitem-132">
										<masterclipid>masterclip-44</masterclipid>
										<name>CRAFT WITH THE WIND</name>
										<enabled>TRUE</enabled>
										<duration>5695</duration>
										<rate>
											<timebase>30</timebase>
											<ntsc>TRUE</ntsc>
										</rate>
										<start>0</start>
										<end>3958</end>
										<in>0</in>
										<out>3958</out>
										<pproTicksIn>0</pproTicksIn>
										<pproTicksOut>33546690777600</pproTicksOut>
										<alphatype>straight</alphatype>
										<pixelaspectratio>square</pixelaspectratio>
										<anamorphic>FALSE</anamorphic>
										<file id="file-36">
											<name>CRAFTY_L3RD_01_JL_V03/CRAFTY_L3RD_01_JL_V03.aep</name>
											<pathurl>file://localhost/Volumes/ATM%20JR%202TB/Master%20Assets/CRAFTY_L3RD_01_JL_V03%20folder/CRAFTY_L3RD_01_JL_V03.aep</pathurl>
											<rate>
												<timebase>30</timebase>
												<ntsc>FALSE</ntsc>
											</rate>
											<duration>5701</duration>
											<timecode>
												<rate>
													<timebase>30</timebase>
													<ntsc>FALSE</ntsc>
												</rate>
												<string>00:00:00:00</string>
												<frame>0</frame>
												<displayformat>NDF</displayformat>
											</timecode>
											<media>
												<video>
													<samplecharacteristics>
														<rate>
															<timebase>30</timebase>
															<ntsc>FALSE</ntsc>
														</rate>
														<width>1920</width>
														<height>1080</height>
														<anamorphic>FALSE</anamorphic>
														<pixelaspectratio>square</pixelaspectratio>
														<fielddominance>lower</fielddominance>
													</samplecharacteristics>
												</video>
											</media>
										</file>
										<logginginfo>
											<description></description>
											<scene></scene>
											<shottake></shottake>
											<lognote></lognote>
											<good></good>
											<originalvideofilename></originalvideofilename>
											<originalaudiofilename></originalaudiofilename>
										</logginginfo>
										<colorinfo>
											<lut></lut>
											<lut1></lut1>
											<asc_sop></asc_sop>
											<asc_sat></asc_sat>
											<lut2></lut2>
										</colorinfo>
										<labels>
											<label2>Rose</label2>
										</labels>
									</clipitem>
									<clipitem id="clipitem-133">
										<masterclipid>masterclip-45</masterclipid>
										<name>ROPED IN</name>
										<enabled>TRUE</enabled>
										<duration>5695</duration>
										<rate>
											<timebase>30</timebase>
											<ntsc>TRUE</ntsc>
										</rate>
										<start>4056</start>
										<end>5438</end>
										<in>0</in>
										<out>1382</out>
										<pproTicksIn>0</pproTicksIn>
										<pproTicksOut>11713372070400</pproTicksOut>
										<alphatype>straight</alphatype>
										<pixelaspectratio>square</pixelaspectratio>
										<anamorphic>FALSE</anamorphic>
										<file id="file-37">
											<name>CRAFTY_L3RD_01_JL_V03/CRAFTY_L3RD_01_JL_V03.aep</name>
											<pathurl>file://localhost/Volumes/ATM%20JR%202TB/Master%20Assets/CRAFTY_L3RD_01_JL_V03%20folder/CRAFTY_L3RD_01_JL_V03.aep</pathurl>
											<rate>
												<timebase>30</timebase>
												<ntsc>FALSE</ntsc>
											</rate>
											<duration>5701</duration>
											<timecode>
												<rate>
													<timebase>30</timebase>
													<ntsc>FALSE</ntsc>
												</rate>
												<string>00:00:00:00</string>
												<frame>0</frame>
												<displayformat>NDF</displayformat>
											</timecode>
											<media>
												<video>
													<samplecharacteristics>
														<rate>
															<timebase>30</timebase>
															<ntsc>FALSE</ntsc>
														</rate>
														<width>1920</width>
														<height>1080</height>
														<anamorphic>FALSE</anamorphic>
														<pixelaspectratio>square</pixelaspectratio>
														<fielddominance>lower</fielddominance>
													</samplecharacteristics>
												</video>
											</media>
										</file>
										<logginginfo>
											<description></description>
											<scene></scene>
											<shottake></shottake>
											<lognote></lognote>
											<good></good>
											<originalvideofilename></originalvideofilename>
											<originalaudiofilename></originalaudiofilename>
										</logginginfo>
										<colorinfo>
											<lut></lut>
											<lut1></lut1>
											<asc_sop></asc_sop>
											<asc_sat></asc_sat>
											<lut2></lut2>
										</colorinfo>
										<labels>
											<label2>Rose</label2>
										</labels>
									</clipitem>
									<enabled>TRUE</enabled>
									<locked>FALSE</locked>
								</track>
								<track TL.SQTrackShy="0" TL.SQTrackExpandedHeight="25" TL.SQTrackExpanded="0" MZ.TrackTargeted="0">
									<clipitem id="clipitem-134">
										<masterclipid>masterclip-9</masterclipid>
										<name>ATM_logo_channels_right-2 (3).png</name>
										<enabled>TRUE</enabled>
										<duration>1294705</duration>
										<rate>
											<timebase>30</timebase>
											<ntsc>TRUE</ntsc>
										</rate>
										<start>0</start>
										<end>5438</end>
										<in>107892</in>
										<out>113330</out>
										<pproTicksIn>914456685542400</pproTicksIn>
										<pproTicksOut>960547363776000</pproTicksOut>
										<alphatype>straight</alphatype>
										<file id="file-7"/>
										<logginginfo>
											<description></description>
											<scene></scene>
											<shottake></shottake>
											<lognote></lognote>
											<good></good>
											<originalvideofilename></originalvideofilename>
											<originalaudiofilename></originalaudiofilename>
										</logginginfo>
										<colorinfo>
											<lut></lut>
											<lut1></lut1>
											<asc_sop></asc_sop>
											<asc_sat></asc_sat>
											<lut2></lut2>
										</colorinfo>
										<labels>
											<label2>Lavender</label2>
										</labels>
									</clipitem>
									<enabled>TRUE</enabled>
									<locked>FALSE</locked>
								</track>
								<track TL.SQTrackShy="0" TL.SQTrackExpandedHeight="25" TL.SQTrackExpanded="0" MZ.TrackTargeted="0">
									<clipitem id="clipitem-135">
										<masterclipid>masterclip-22</masterclipid>
										<name>CRAFTY_TRAN03_JL_V01.mov</name>
										<enabled>TRUE</enabled>
										<duration>120</duration>
										<rate>
											<timebase>30</timebase>
											<ntsc>TRUE</ntsc>
										</rate>
										<start>3936</start>
										<end>4056</end>
										<in>0</in>
										<out>120</out>
										<pproTicksIn>0</pproTicksIn>
										<pproTicksOut>1017080064000</pproTicksOut>
										<alphatype>none</alphatype>
										<file id="file-18"/>
										<link>
											<linkclipref>clipitem-135</linkclipref>
											<mediatype>video</mediatype>
											<trackindex>4</trackindex>
											<clipindex>1</clipindex>
										</link>
										<link>
											<linkclipref>clipitem-137</linkclipref>
											<mediatype>audio</mediatype>
											<trackindex>1</trackindex>
											<clipindex>1</clipindex>
											<groupindex>1</groupindex>
										</link>
										<link>
											<linkclipref>clipitem-139</linkclipref>
											<mediatype>audio</mediatype>
											<trackindex>2</trackindex>
											<clipindex>1</clipindex>
											<groupindex>1</groupindex>
										</link>
										<logginginfo>
											<description></description>
											<scene></scene>
											<shottake></shottake>
											<lognote></lognote>
											<good></good>
											<originalvideofilename></originalvideofilename>
											<originalaudiofilename></originalaudiofilename>
										</logginginfo>
										<colorinfo>
											<lut></lut>
											<lut1></lut1>
											<asc_sop></asc_sop>
											<asc_sat></asc_sat>
											<lut2></lut2>
										</colorinfo>
										<labels>
											<label2>Iris</label2>
										</labels>
									</clipitem>
									<clipitem id="clipitem-136">
										<masterclipid>masterclip-10</masterclipid>
										<name>CRAFTY_TRAN01_JL_V01.mov</name>
										<enabled>TRUE</enabled>
										<duration>120</duration>
										<rate>
											<timebase>30</timebase>
											<ntsc>TRUE</ntsc>
										</rate>
										<start>5423</start>
										<end>5543</end>
										<in>0</in>
										<out>120</out>
										<pproTicksIn>0</pproTicksIn>
										<pproTicksOut>1017080064000</pproTicksOut>
										<alphatype>none</alphatype>
										<file id="file-8"/>
										<link>
											<linkclipref>clipitem-136</linkclipref>
											<mediatype>video</mediatype>
											<trackindex>4</trackindex>
											<clipindex>2</clipindex>
										</link>
										<link>
											<linkclipref>clipitem-138</linkclipref>
											<mediatype>audio</mediatype>
											<trackindex>1</trackindex>
											<clipindex>2</clipindex>
											<groupindex>1</groupindex>
										</link>
										<link>
											<linkclipref>clipitem-140</linkclipref>
											<mediatype>audio</mediatype>
											<trackindex>2</trackindex>
											<clipindex>2</clipindex>
											<groupindex>1</groupindex>
										</link>
										<logginginfo>
											<description></description>
											<scene></scene>
											<shottake></shottake>
											<lognote></lognote>
											<good></good>
											<originalvideofilename></originalvideofilename>
											<originalaudiofilename></originalaudiofilename>
										</logginginfo>
										<colorinfo>
											<lut></lut>
											<lut1></lut1>
											<asc_sop></asc_sop>
											<asc_sat></asc_sat>
											<lut2></lut2>
										</colorinfo>
										<labels>
											<label2>Iris</label2>
										</labels>
									</clipitem>
									<enabled>TRUE</enabled>
									<locked>FALSE</locked>
								</track>
							</video>
							<audio>
								<numOutputChannels>2</numOutputChannels>
								<format>
									<samplecharacteristics>
										<depth>16</depth>
										<samplerate>48000</samplerate>
									</samplecharacteristics>
								</format>
								<outputs>
									<group>
										<index>1</index>
										<numchannels>1</numchannels>
										<downmix>0</downmix>
										<channel>
											<index>1</index>
										</channel>
									</group>
									<group>
										<index>2</index>
										<numchannels>1</numchannels>
										<downmix>0</downmix>
										<channel>
											<index>2</index>
										</channel>
									</group>
								</outputs>
								<track TL.SQTrackAudioKeyframeStyle="0" TL.SQTrackShy="0" TL.SQTrackExpandedHeight="25" TL.SQTrackExpanded="0" MZ.TrackTargeted="1" PannerCurrentValue="0.5" PannerIsInverted="true" PannerStartKeyframe="-91445760000000000,0.5,0,0,0,0,0,0" PannerName="Balance" currentExplodedTrackIndex="0" totalExplodedTrackCount="2" premiereTrackType="Stereo">
									<clipitem id="clipitem-137" premiereChannelType="stereo">
										<masterclipid>masterclip-22</masterclipid>
										<name>CRAFTY_TRAN03_JL_V01.mov</name>
										<enabled>TRUE</enabled>
										<duration>120</duration>
										<rate>
											<timebase>30</timebase>
											<ntsc>TRUE</ntsc>
										</rate>
										<start>3936</start>
										<end>4056</end>
										<in>0</in>
										<out>120</out>
										<pproTicksIn>0</pproTicksIn>
										<pproTicksOut>1017080064000</pproTicksOut>
										<file id="file-18"/>
										<sourcetrack>
											<mediatype>audio</mediatype>
											<trackindex>1</trackindex>
										</sourcetrack>
										<link>
											<linkclipref>clipitem-135</linkclipref>
											<mediatype>video</mediatype>
											<trackindex>4</trackindex>
											<clipindex>1</clipindex>
										</link>
										<link>
											<linkclipref>clipitem-137</linkclipref>
											<mediatype>audio</mediatype>
											<trackindex>1</trackindex>
											<clipindex>1</clipindex>
											<groupindex>1</groupindex>
										</link>
										<link>
											<linkclipref>clipitem-139</linkclipref>
											<mediatype>audio</mediatype>
											<trackindex>2</trackindex>
											<clipindex>1</clipindex>
											<groupindex>1</groupindex>
										</link>
										<logginginfo>
											<description></description>
											<scene></scene>
											<shottake></shottake>
											<lognote></lognote>
											<good></good>
											<originalvideofilename></originalvideofilename>
											<originalaudiofilename></originalaudiofilename>
										</logginginfo>
										<colorinfo>
											<lut></lut>
											<lut1></lut1>
											<asc_sop></asc_sop>
											<asc_sat></asc_sat>
											<lut2></lut2>
										</colorinfo>
										<labels>
											<label2>Iris</label2>
										</labels>
									</clipitem>
									<clipitem id="clipitem-138" premiereChannelType="stereo">
										<masterclipid>masterclip-10</masterclipid>
										<name>CRAFTY_TRAN01_JL_V01.mov</name>
										<enabled>TRUE</enabled>
										<duration>120</duration>
										<rate>
											<timebase>30</timebase>
											<ntsc>TRUE</ntsc>
										</rate>
										<start>5423</start>
										<end>5543</end>
										<in>0</in>
										<out>120</out>
										<pproTicksIn>0</pproTicksIn>
										<pproTicksOut>1017080064000</pproTicksOut>
										<file id="file-8"/>
										<sourcetrack>
											<mediatype>audio</mediatype>
											<trackindex>1</trackindex>
										</sourcetrack>
										<link>
											<linkclipref>clipitem-136</linkclipref>
											<mediatype>video</mediatype>
											<trackindex>4</trackindex>
											<clipindex>2</clipindex>
										</link>
										<link>
											<linkclipref>clipitem-138</linkclipref>
											<mediatype>audio</mediatype>
											<trackindex>1</trackindex>
											<clipindex>2</clipindex>
											<groupindex>1</groupindex>
										</link>
										<link>
											<linkclipref>clipitem-140</linkclipref>
											<mediatype>audio</mediatype>
											<trackindex>2</trackindex>
											<clipindex>2</clipindex>
											<groupindex>1</groupindex>
										</link>
										<logginginfo>
											<description></description>
											<scene></scene>
											<shottake></shottake>
											<lognote></lognote>
											<good></good>
											<originalvideofilename></originalvideofilename>
											<originalaudiofilename></originalaudiofilename>
										</logginginfo>
										<colorinfo>
											<lut></lut>
											<lut1></lut1>
											<asc_sop></asc_sop>
											<asc_sat></asc_sat>
											<lut2></lut2>
										</colorinfo>
										<labels>
											<label2>Iris</label2>
										</labels>
									</clipitem>
									<enabled>TRUE</enabled>
									<locked>FALSE</locked>
									<outputchannelindex>1</outputchannelindex>
								</track>
								<track TL.SQTrackAudioKeyframeStyle="0" TL.SQTrackShy="0" TL.SQTrackExpandedHeight="25" TL.SQTrackExpanded="0" MZ.TrackTargeted="1" PannerCurrentValue="0.5" PannerIsInverted="true" PannerStartKeyframe="-91445760000000000,0.5,0,0,0,0,0,0" PannerName="Balance" currentExplodedTrackIndex="1" totalExplodedTrackCount="2" premiereTrackType="Stereo">
									<clipitem id="clipitem-139" premiereChannelType="stereo">
										<masterclipid>masterclip-22</masterclipid>
										<name>CRAFTY_TRAN03_JL_V01.mov</name>
										<enabled>TRUE</enabled>
										<duration>120</duration>
										<rate>
											<timebase>30</timebase>
											<ntsc>TRUE</ntsc>
										</rate>
										<start>3936</start>
										<end>4056</end>
										<in>0</in>
										<out>120</out>
										<pproTicksIn>0</pproTicksIn>
										<pproTicksOut>1017080064000</pproTicksOut>
										<file id="file-18"/>
										<sourcetrack>
											<mediatype>audio</mediatype>
											<trackindex>2</trackindex>
										</sourcetrack>
										<link>
											<linkclipref>clipitem-135</linkclipref>
											<mediatype>video</mediatype>
											<trackindex>4</trackindex>
											<clipindex>1</clipindex>
										</link>
										<link>
											<linkclipref>clipitem-137</linkclipref>
											<mediatype>audio</mediatype>
											<trackindex>1</trackindex>
											<clipindex>1</clipindex>
											<groupindex>1</groupindex>
										</link>
										<link>
											<linkclipref>clipitem-139</linkclipref>
											<mediatype>audio</mediatype>
											<trackindex>2</trackindex>
											<clipindex>1</clipindex>
											<groupindex>1</groupindex>
										</link>
										<logginginfo>
											<description></description>
											<scene></scene>
											<shottake></shottake>
											<lognote></lognote>
											<good></good>
											<originalvideofilename></originalvideofilename>
											<originalaudiofilename></originalaudiofilename>
										</logginginfo>
										<colorinfo>
											<lut></lut>
											<lut1></lut1>
											<asc_sop></asc_sop>
											<asc_sat></asc_sat>
											<lut2></lut2>
										</colorinfo>
										<labels>
											<label2>Iris</label2>
										</labels>
									</clipitem>
									<clipitem id="clipitem-140" premiereChannelType="stereo">
										<masterclipid>masterclip-10</masterclipid>
										<name>CRAFTY_TRAN01_JL_V01.mov</name>
										<enabled>TRUE</enabled>
										<duration>120</duration>
										<rate>
											<timebase>30</timebase>
											<ntsc>TRUE</ntsc>
										</rate>
										<start>5423</start>
										<end>5543</end>
										<in>0</in>
										<out>120</out>
										<pproTicksIn>0</pproTicksIn>
										<pproTicksOut>1017080064000</pproTicksOut>
										<file id="file-8"/>
										<sourcetrack>
											<mediatype>audio</mediatype>
											<trackindex>2</trackindex>
										</sourcetrack>
										<link>
											<linkclipref>clipitem-136</linkclipref>
											<mediatype>video</mediatype>
											<trackindex>4</trackindex>
											<clipindex>2</clipindex>
										</link>
										<link>
											<linkclipref>clipitem-138</linkclipref>
											<mediatype>audio</mediatype>
											<trackindex>1</trackindex>
											<clipindex>2</clipindex>
											<groupindex>1</groupindex>
										</link>
										<link>
											<linkclipref>clipitem-140</linkclipref>
											<mediatype>audio</mediatype>
											<trackindex>2</trackindex>
											<clipindex>2</clipindex>
											<groupindex>1</groupindex>
										</link>
										<logginginfo>
											<description></description>
											<scene></scene>
											<shottake></shottake>
											<lognote></lognote>
											<good></good>
											<originalvideofilename></originalvideofilename>
											<originalaudiofilename></originalaudiofilename>
										</logginginfo>
										<colorinfo>
											<lut></lut>
											<lut1></lut1>
											<asc_sop></asc_sop>
											<asc_sat></asc_sat>
											<lut2></lut2>
										</colorinfo>
										<labels>
											<label2>Iris</label2>
										</labels>
									</clipitem>
									<enabled>TRUE</enabled>
									<locked>FALSE</locked>
									<outputchannelindex>2</outputchannelindex>
								</track>
								<track TL.SQTrackAudioKeyframeStyle="0" TL.SQTrackShy="0" TL.SQTrackExpandedHeight="25" TL.SQTrackExpanded="0" MZ.TrackTargeted="1" PannerCurrentValue="0.5" PannerIsInverted="true" PannerStartKeyframe="-91445760000000000,0.5,0,0,0,0,0,0" PannerName="Balance" currentExplodedTrackIndex="0" totalExplodedTrackCount="2" premiereTrackType="Stereo">
									<clipitem id="clipitem-141" premiereChannelType="stereo">
										<masterclipid>masterclip-46</masterclipid>
										<name>ES_Memories of Fall - baegel.wav</name>
										<enabled>TRUE</enabled>
										<duration>4363</duration>
										<rate>
											<timebase>30</timebase>
											<ntsc>TRUE</ntsc>
										</rate>
										<start>0</start>
										<end>-1</end>
										<in>0</in>
										<out>3936</out>
										<pproTicksIn>0</pproTicksIn>
										<pproTicksOut>33360226099200</pproTicksOut>
										<file id="file-38">
											<name>ES_Memories of Fall - baegel.wav</name>
											<pathurl>file://localhost/Volumes/CONTENT/VOD%20CONTENT%20ARCHIVE/O&amp;O%20Archive%202023/CRAFTY/03_March/Crafty_3-20-2023/5_Music/ES_Memories%20of%20Fall%20-%20baegel.wav</pathurl>
											<rate>
												<timebase>30</timebase>
												<ntsc>TRUE</ntsc>
											</rate>
											<duration>4363</duration>
											<timecode>
												<rate>
													<timebase>30</timebase>
													<ntsc>TRUE</ntsc>
												</rate>
												<string>09;13;16;01</string>
												<frame>994885</frame>
												<displayformat>DF</displayformat>
											</timecode>
											<media>
												<audio>
													<samplecharacteristics>
														<depth>16</depth>
														<samplerate>48000</samplerate>
													</samplecharacteristics>
													<channelcount>2</channelcount>
												</audio>
											</media>
										</file>
										<sourcetrack>
											<mediatype>audio</mediatype>
											<trackindex>1</trackindex>
										</sourcetrack>
										<filter>
											<effect>
												<name>Gain</name>
												<effectid>{61756678, 4761696e, 4b657947}</effectid>
												<effecttype>filter</effecttype>
												<mediatype>audio</mediatype>
												<parameter authoringApp="PremierePro">
													<parameterid>Gain(dB)</parameterid>
													<name>Gain(dB)</name>
													<valuemin>-96</valuemin>
													<valuemax>96</valuemax>
													<value>-6</value>
												</parameter>
											</effect>
										</filter>
										<link>
											<linkclipref>clipitem-141</linkclipref>
											<mediatype>audio</mediatype>
											<trackindex>3</trackindex>
											<clipindex>1</clipindex>
											<groupindex>1</groupindex>
										</link>
										<link>
											<linkclipref>clipitem-143</linkclipref>
											<mediatype>audio</mediatype>
											<trackindex>4</trackindex>
											<clipindex>1</clipindex>
											<groupindex>1</groupindex>
										</link>
										<logginginfo>
											<description></description>
											<scene></scene>
											<shottake></shottake>
											<lognote></lognote>
											<good></good>
											<originalvideofilename></originalvideofilename>
											<originalaudiofilename></originalaudiofilename>
										</logginginfo>
										<colorinfo>
											<lut></lut>
											<lut1></lut1>
											<asc_sop></asc_sop>
											<asc_sat></asc_sat>
											<lut2></lut2>
										</colorinfo>
										<labels>
											<label2>Caribbean</label2>
										</labels>
									</clipitem>
									<transitionitem>
										<start>3817</start>
										<end>3936</end>
										<pproTicksIn>32343148152000</pproTicksIn>
										<pproTicksOut>33360226099200</pproTicksOut>
										<alignment>end-black</alignment>
										<cutPointTicks>1017077947200</cutPointTicks>
										<rate>
											<timebase>30</timebase>
											<ntsc>TRUE</ntsc>
										</rate>
										<effect>
											<name>Cross Fade (+3dB)</name>
											<effectid>KGAudioTransCrossFade3dB</effectid>
											<effecttype>transition</effecttype>
											<mediatype>audio</mediatype>
											<wipecode>0</wipecode>
											<wipeaccuracy>100</wipeaccuracy>
											<startratio>0</startratio>
											<endratio>1</endratio>
											<reverse>FALSE</reverse>
										</effect>
									</transitionitem>
									<clipitem id="clipitem-142" premiereChannelType="stereo">
										<masterclipid>masterclip-47</masterclipid>
										<name>ES_Linearity - Jobii.wav</name>
										<enabled>TRUE</enabled>
										<duration>3640</duration>
										<rate>
											<timebase>30</timebase>
											<ntsc>TRUE</ntsc>
										</rate>
										<start>4056</start>
										<end>-1</end>
										<in>0</in>
										<out>1367</out>
										<pproTicksIn>0</pproTicksIn>
										<pproTicksOut>11586237062400</pproTicksOut>
										<file id="file-39">
											<name>ES_Linearity - Jobii.wav</name>
											<pathurl>file://localhost/Volumes/CONTENT/VOD%20CONTENT%20ARCHIVE/O&amp;O%20Archive%202023/CRAFTY/03_March/Crafty_3-20-2023/5_Music/ES_Linearity%20-%20Jobii.wav</pathurl>
											<rate>
												<timebase>30</timebase>
												<ntsc>TRUE</ntsc>
											</rate>
											<duration>3640</duration>
											<timecode>
												<rate>
													<timebase>30</timebase>
													<ntsc>TRUE</ntsc>
												</rate>
												<string>06;55;20;01</string>
												<frame>746853</frame>
												<displayformat>DF</displayformat>
											</timecode>
											<media>
												<audio>
													<samplecharacteristics>
														<depth>16</depth>
														<samplerate>48000</samplerate>
													</samplecharacteristics>
													<channelcount>2</channelcount>
												</audio>
											</media>
										</file>
										<sourcetrack>
											<mediatype>audio</mediatype>
											<trackindex>1</trackindex>
										</sourcetrack>
										<filter>
											<effect>
												<name>Gain</name>
												<effectid>{61756678, 4761696e, 4b657947}</effectid>
												<effecttype>filter</effecttype>
												<mediatype>audio</mediatype>
												<parameter authoringApp="PremierePro">
													<parameterid>Gain(dB)</parameterid>
													<name>Gain(dB)</name>
													<valuemin>-96</valuemin>
													<valuemax>96</valuemax>
													<value>-6</value>
												</parameter>
											</effect>
										</filter>
										<link>
											<linkclipref>clipitem-142</linkclipref>
											<mediatype>audio</mediatype>
											<trackindex>3</trackindex>
											<clipindex>3</clipindex>
											<groupindex>1</groupindex>
										</link>
										<link>
											<linkclipref>clipitem-144</linkclipref>
											<mediatype>audio</mediatype>
											<trackindex>4</trackindex>
											<clipindex>3</clipindex>
											<groupindex>1</groupindex>
										</link>
										<logginginfo>
											<description></description>
											<scene></scene>
											<shottake></shottake>
											<lognote></lognote>
											<good></good>
											<originalvideofilename></originalvideofilename>
											<originalaudiofilename></originalaudiofilename>
										</logginginfo>
										<colorinfo>
											<lut></lut>
											<lut1></lut1>
											<asc_sop></asc_sop>
											<asc_sat></asc_sat>
											<lut2></lut2>
										</colorinfo>
										<labels>
											<label2>Caribbean</label2>
										</labels>
									</clipitem>
									<transitionitem>
										<start>5304</start>
										<end>5423</end>
										<pproTicksIn>44946464220000</pproTicksIn>
										<pproTicksOut>45963543225600</pproTicksOut>
										<alignment>end-black</alignment>
										<cutPointTicks>1017079005600</cutPointTicks>
										<rate>
											<timebase>30</timebase>
											<ntsc>TRUE</ntsc>
										</rate>
										<effect>
											<name>Cross Fade (+3dB)</name>
											<effectid>KGAudioTransCrossFade3dB</effectid>
											<effecttype>transition</effecttype>
											<mediatype>audio</mediatype>
											<wipecode>0</wipecode>
											<wipeaccuracy>100</wipeaccuracy>
											<startratio>0</startratio>
											<endratio>1</endratio>
											<reverse>FALSE</reverse>
										</effect>
									</transitionitem>
									<enabled>TRUE</enabled>
									<locked>FALSE</locked>
									<outputchannelindex>1</outputchannelindex>
								</track>
								<track TL.SQTrackAudioKeyframeStyle="0" TL.SQTrackShy="0" TL.SQTrackExpandedHeight="25" TL.SQTrackExpanded="0" MZ.TrackTargeted="1" PannerCurrentValue="0.5" PannerIsInverted="true" PannerStartKeyframe="-91445760000000000,0.5,0,0,0,0,0,0" PannerName="Balance" currentExplodedTrackIndex="1" totalExplodedTrackCount="2" premiereTrackType="Stereo">
									<clipitem id="clipitem-143" premiereChannelType="stereo">
										<masterclipid>masterclip-46</masterclipid>
										<name>ES_Memories of Fall - baegel.wav</name>
										<enabled>TRUE</enabled>
										<duration>4363</duration>
										<rate>
											<timebase>30</timebase>
											<ntsc>TRUE</ntsc>
										</rate>
										<start>0</start>
										<end>-1</end>
										<in>0</in>
										<out>3936</out>
										<pproTicksIn>0</pproTicksIn>
										<pproTicksOut>33360226099200</pproTicksOut>
										<file id="file-38"/>
										<sourcetrack>
											<mediatype>audio</mediatype>
											<trackindex>2</trackindex>
										</sourcetrack>
										<filter>
											<effect>
												<name>Gain</name>
												<effectid>{61756678, 4761696e, 4b657947}</effectid>
												<effecttype>filter</effecttype>
												<mediatype>audio</mediatype>
												<parameter authoringApp="PremierePro">
													<parameterid>Gain(dB)</parameterid>
													<name>Gain(dB)</name>
													<valuemin>-96</valuemin>
													<valuemax>96</valuemax>
													<value>-6</value>
												</parameter>
											</effect>
										</filter>
										<link>
											<linkclipref>clipitem-141</linkclipref>
											<mediatype>audio</mediatype>
											<trackindex>3</trackindex>
											<clipindex>1</clipindex>
											<groupindex>1</groupindex>
										</link>
										<link>
											<linkclipref>clipitem-143</linkclipref>
											<mediatype>audio</mediatype>
											<trackindex>4</trackindex>
											<clipindex>1</clipindex>
											<groupindex>1</groupindex>
										</link>
										<logginginfo>
											<description></description>
											<scene></scene>
											<shottake></shottake>
											<lognote></lognote>
											<good></good>
											<originalvideofilename></originalvideofilename>
											<originalaudiofilename></originalaudiofilename>
										</logginginfo>
										<colorinfo>
											<lut></lut>
											<lut1></lut1>
											<asc_sop></asc_sop>
											<asc_sat></asc_sat>
											<lut2></lut2>
										</colorinfo>
										<labels>
											<label2>Caribbean</label2>
										</labels>
									</clipitem>
									<transitionitem>
										<start>3817</start>
										<end>3936</end>
										<pproTicksIn>32343148152000</pproTicksIn>
										<pproTicksOut>33360226099200</pproTicksOut>
										<alignment>end-black</alignment>
										<cutPointTicks>1017077947200</cutPointTicks>
										<rate>
											<timebase>30</timebase>
											<ntsc>TRUE</ntsc>
										</rate>
										<effect>
											<name>Cross Fade (+3dB)</name>
											<effectid>KGAudioTransCrossFade3dB</effectid>
											<effecttype>transition</effecttype>
											<mediatype>audio</mediatype>
											<wipecode>0</wipecode>
											<wipeaccuracy>100</wipeaccuracy>
											<startratio>0</startratio>
											<endratio>1</endratio>
											<reverse>FALSE</reverse>
										</effect>
									</transitionitem>
									<clipitem id="clipitem-144" premiereChannelType="stereo">
										<masterclipid>masterclip-47</masterclipid>
										<name>ES_Linearity - Jobii.wav</name>
										<enabled>TRUE</enabled>
										<duration>3640</duration>
										<rate>
											<timebase>30</timebase>
											<ntsc>TRUE</ntsc>
										</rate>
										<start>4056</start>
										<end>-1</end>
										<in>0</in>
										<out>1367</out>
										<pproTicksIn>0</pproTicksIn>
										<pproTicksOut>11586237062400</pproTicksOut>
										<file id="file-39"/>
										<sourcetrack>
											<mediatype>audio</mediatype>
											<trackindex>2</trackindex>
										</sourcetrack>
										<filter>
											<effect>
												<name>Gain</name>
												<effectid>{61756678, 4761696e, 4b657947}</effectid>
												<effecttype>filter</effecttype>
												<mediatype>audio</mediatype>
												<parameter authoringApp="PremierePro">
													<parameterid>Gain(dB)</parameterid>
													<name>Gain(dB)</name>
													<valuemin>-96</valuemin>
													<valuemax>96</valuemax>
													<value>-6</value>
												</parameter>
											</effect>
										</filter>
										<link>
											<linkclipref>clipitem-142</linkclipref>
											<mediatype>audio</mediatype>
											<trackindex>3</trackindex>
											<clipindex>3</clipindex>
											<groupindex>1</groupindex>
										</link>
										<link>
											<linkclipref>clipitem-144</linkclipref>
											<mediatype>audio</mediatype>
											<trackindex>4</trackindex>
											<clipindex>3</clipindex>
											<groupindex>1</groupindex>
										</link>
										<logginginfo>
											<description></description>
											<scene></scene>
											<shottake></shottake>
											<lognote></lognote>
											<good></good>
											<originalvideofilename></originalvideofilename>
											<originalaudiofilename></originalaudiofilename>
										</logginginfo>
										<colorinfo>
											<lut></lut>
											<lut1></lut1>
											<asc_sop></asc_sop>
											<asc_sat></asc_sat>
											<lut2></lut2>
										</colorinfo>
										<labels>
											<label2>Caribbean</label2>
										</labels>
									</clipitem>
									<transitionitem>
										<start>5304</start>
										<end>5423</end>
										<pproTicksIn>44946464220000</pproTicksIn>
										<pproTicksOut>45963543225600</pproTicksOut>
										<alignment>end-black</alignment>
										<cutPointTicks>1017079005600</cutPointTicks>
										<rate>
											<timebase>30</timebase>
											<ntsc>TRUE</ntsc>
										</rate>
										<effect>
											<name>Cross Fade (+3dB)</name>
											<effectid>KGAudioTransCrossFade3dB</effectid>
											<effecttype>transition</effecttype>
											<mediatype>audio</mediatype>
											<wipecode>0</wipecode>
											<wipeaccuracy>100</wipeaccuracy>
											<startratio>0</startratio>
											<endratio>1</endratio>
											<reverse>FALSE</reverse>
										</effect>
									</transitionitem>
									<enabled>TRUE</enabled>
									<locked>FALSE</locked>
									<outputchannelindex>2</outputchannelindex>
								</track>
								<track TL.SQTrackAudioKeyframeStyle="0" TL.SQTrackShy="0" TL.SQTrackExpandedHeight="25" TL.SQTrackExpanded="0" MZ.TrackTargeted="1" PannerCurrentValue="0.5" PannerIsInverted="true" PannerStartKeyframe="-91445760000000000,0.5,0,0,0,0,0,0" PannerName="Balance" currentExplodedTrackIndex="0" totalExplodedTrackCount="2" premiereTrackType="Stereo">
									<enabled>TRUE</enabled>
									<locked>FALSE</locked>
									<outputchannelindex>1</outputchannelindex>
								</track>
								<track TL.SQTrackAudioKeyframeStyle="0" TL.SQTrackShy="0" TL.SQTrackExpandedHeight="25" TL.SQTrackExpanded="0" MZ.TrackTargeted="1" PannerCurrentValue="0.5" PannerIsInverted="true" PannerStartKeyframe="-91445760000000000,0.5,0,0,0,0,0,0" PannerName="Balance" currentExplodedTrackIndex="1" totalExplodedTrackCount="2" premiereTrackType="Stereo">
									<enabled>TRUE</enabled>
									<locked>FALSE</locked>
									<outputchannelindex>2</outputchannelindex>
								</track>
								<track TL.SQTrackAudioKeyframeStyle="0" TL.SQTrackShy="0" TL.SQTrackExpandedHeight="25" TL.SQTrackExpanded="0" MZ.TrackTargeted="0" PannerCurrentValue="0.5" PannerIsInverted="true" PannerStartKeyframe="-91445760000000000,0.5,0,0,0,0,0,0" PannerName="Balance" currentExplodedTrackIndex="0" totalExplodedTrackCount="2" premiereTrackType="Stereo">
									<enabled>TRUE</enabled>
									<locked>FALSE</locked>
									<outputchannelindex>1</outputchannelindex>
								</track>
								<track TL.SQTrackAudioKeyframeStyle="0" TL.SQTrackShy="0" TL.SQTrackExpandedHeight="25" TL.SQTrackExpanded="0" MZ.TrackTargeted="0" PannerCurrentValue="0.5" PannerIsInverted="true" PannerStartKeyframe="-91445760000000000,0.5,0,0,0,0,0,0" PannerName="Balance" currentExplodedTrackIndex="1" totalExplodedTrackCount="2" premiereTrackType="Stereo">
									<enabled>TRUE</enabled>
									<locked>FALSE</locked>
									<outputchannelindex>2</outputchannelindex>
								</track>
							</audio>
						</media>
						<timecode>
							<rate>
								<timebase>30</timebase>
								<ntsc>TRUE</ntsc>
							</rate>
							<string>00;00;00;00</string>
							<frame>0</frame>
							<displayformat>DF</displayformat>
						</timecode>
						<labels>
							<label2>Forest</label2>
						</labels>
						<logginginfo>
							<description></description>
							<scene></scene>
							<shottake></shottake>
							<lognote></lognote>
							<good></good>
							<originalvideofilename></originalvideofilename>
							<originalaudiofilename></originalaudiofilename>
						</logginginfo>
					</sequence>
					<sequence id="sequence-13" TL.SQAudioVisibleBase="0" TL.SQVideoVisibleBase="0" TL.SQVisibleBaseTime="0" TL.SQAVDividerPosition="0.5" TL.SQHideShyTracks="0" TL.SQHeaderWidth="236" TL.SQDataTrackViewControlState="0" Monitor.ProgramZoomOut="44683717478400" Monitor.ProgramZoomIn="0" TL.SQTimePerPixel="0.18656639566821276" MZ.EditLine="44404020460800" MZ.Sequence.PreviewFrameSizeHeight="1080" MZ.Sequence.PreviewFrameSizeWidth="1920" MZ.Sequence.AudioTimeDisplayFormat="200" MZ.Sequence.PreviewRenderingClassID="1061109567" MZ.Sequence.PreviewRenderingPresetCodec="1634755443" MZ.Sequence.PreviewRenderingPresetPath="EncoderPresets/SequencePreview/35d109db-457b-43c1-9452-9cb7be9f121c/QuickTime.epr" MZ.Sequence.PreviewUseMaxRenderQuality="false" MZ.Sequence.PreviewUseMaxBitDepth="false" MZ.Sequence.EditingModeGUID="35d109db-457b-43c1-9452-9cb7be9f121c" MZ.Sequence.VideoTimeDisplayFormat="102" MZ.WorkOutPoint="15239249625600" MZ.WorkInPoint="0" explodedTracks="true">
						<uuid>bafaedae-3db6-4bb5-89f1-cba1a65a750e</uuid>
						<duration>5272</duration>
						<rate>
							<timebase>30</timebase>
							<ntsc>TRUE</ntsc>
						</rate>
						<name>ATM_CRAFTY_185</name>
						<media>
							<video>
								<format>
									<samplecharacteristics>
										<rate>
											<timebase>30</timebase>
											<ntsc>TRUE</ntsc>
										</rate>
										<codec>
											<name>Apple ProRes 422</name>
											<appspecificdata>
												<appname>Final Cut Pro</appname>
												<appmanufacturer>Apple Inc.</appmanufacturer>
												<appversion>7.0</appversion>
												<data>
													<qtcodec>
														<codecname>Apple ProRes 422</codecname>
														<codectypename>Apple ProRes 422</codectypename>
														<codectypecode>apcn</codectypecode>
														<codecvendorcode>appl</codecvendorcode>
														<spatialquality>1024</spatialquality>
														<temporalquality>0</temporalquality>
														<keyframerate>0</keyframerate>
														<datarate>0</datarate>
													</qtcodec>
												</data>
											</appspecificdata>
										</codec>
										<width>1920</width>
										<height>1080</height>
										<anamorphic>FALSE</anamorphic>
										<pixelaspectratio>square</pixelaspectratio>
										<fielddominance>none</fielddominance>
										<colordepth>24</colordepth>
									</samplecharacteristics>
								</format>
								<track TL.SQTrackShy="0" TL.SQTrackExpandedHeight="25" TL.SQTrackExpanded="0" MZ.TrackTargeted="1">
									<clipitem id="clipitem-145">
										<masterclipid>masterclip-48</masterclipid>
										<name>DIY_BESTOFBTSDECOR_1.5</name>
										<enabled>TRUE</enabled>
										<duration>3406</duration>
										<rate>
											<timebase>30</timebase>
											<ntsc>TRUE</ntsc>
										</rate>
										<start>0</start>
										<end>2551</end>
										<in>0</in>
										<out>2551</out>
										<pproTicksIn>0</pproTicksIn>
										<pproTicksOut>21621427027200</pproTicksOut>
										<sequence id="sequence-14" TL.SQAudioVisibleBase="0" TL.SQVideoVisibleBase="0" TL.SQVisibleBaseTime="0" TL.SQAVDividerPosition="0.5" TL.SQHideShyTracks="0" TL.SQHeaderWidth="236" TL.SQDataTrackViewControlState="0" Monitor.ProgramZoomOut="21621427027200" Monitor.ProgramZoomIn="0" TL.SQTimePerPixel="0.21252172516977741" MZ.EditLine="19892390918400" MZ.Sequence.PreviewFrameSizeHeight="1080" MZ.Sequence.PreviewFrameSizeWidth="1920" MZ.Sequence.AudioTimeDisplayFormat="200" MZ.Sequence.PreviewRenderingClassID="1061109567" MZ.Sequence.PreviewRenderingPresetCodec="1634755443" MZ.Sequence.PreviewRenderingPresetPath="EncoderPresets/SequencePreview/35d109db-457b-43c1-9452-9cb7be9f121c/QuickTime.epr" MZ.Sequence.PreviewUseMaxRenderQuality="false" MZ.Sequence.PreviewUseMaxBitDepth="false" MZ.Sequence.EditingModeGUID="35d109db-457b-43c1-9452-9cb7be9f121c" MZ.Sequence.VideoTimeDisplayFormat="102" MZ.WorkOutPoint="28868122483200" MZ.WorkInPoint="0">
											<duration>2551</duration>
											<rate>
												<timebase>30</timebase>
												<ntsc>TRUE</ntsc>
											</rate>
											<name>DIY_BESTOFBTSDECOR_1.5</name>
											<media>
												<video>
													<format>
														<samplecharacteristics>
															<rate>
																<timebase>30</timebase>
																<ntsc>TRUE</ntsc>
															</rate>
															<codec>
																<name>Apple ProRes 422</name>
																<appspecificdata>
																	<appname>Final Cut Pro</appname>
																	<appmanufacturer>Apple Inc.</appmanufacturer>
																	<appversion>7.0</appversion>
																	<data>
																		<qtcodec>
																			<codecname>Apple ProRes 422</codecname>
																			<codectypename>Apple ProRes 422</codectypename>
																			<codectypecode>apcn</codectypecode>
																			<codecvendorcode>appl</codecvendorcode>
																			<spatialquality>1024</spatialquality>
																			<temporalquality>0</temporalquality>
																			<keyframerate>0</keyframerate>
																			<datarate>0</datarate>
																		</qtcodec>
																	</data>
																</appspecificdata>
															</codec>
															<width>1920</width>
															<height>1080</height>
															<anamorphic>FALSE</anamorphic>
															<pixelaspectratio>square</pixelaspectratio>
															<fielddominance>none</fielddominance>
															<colordepth>24</colordepth>
														</samplecharacteristics>
													</format>
													<track TL.SQTrackShy="0" TL.SQTrackExpandedHeight="25" TL.SQTrackExpanded="0" MZ.TrackTargeted="1">
														<clipitem id="clipitem-146">
															<masterclipid>masterclip-49</masterclipid>
															<name>(parul pawar)_4 DIY BTS ROOM DECOR 💜 DIY BTS Room Decor ✨Low Budget  #BTS_4Zk4j3BIpIM_YT.mp4</name>
															<enabled>TRUE</enabled>
															<duration>8671</duration>
															<rate>
																<timebase>30</timebase>
																<ntsc>TRUE</ntsc>
															</rate>
															<start>0</start>
															<end>541</end>
															<in>3749</in>
															<out>4289</out>
															<pproTicksIn>44226031449600</pproTicksIn>
															<pproTicksOut>50608208851200</pproTicksOut>
															<alphatype>none</alphatype>
															<pixelaspectratio>square</pixelaspectratio>
															<anamorphic>FALSE</anamorphic>
															<file id="file-40">
																<name>(parul pawar)_4 DIY BTS ROOM DECOR 💜 DIY BTS Room Decor ✨Low Budget  #BTS_4Zk4j3BIpIM_YT.mp4</name>
																<pathurl>file://localhost/Volumes/CONTENT/VOD%20CONTENT%20ARCHIVE/O&amp;O%20Archive%202023/CRAFTY/03_March/Crafty_3-20-2023/3_Raw%20Files/BTS%20fan%20decor/(parul%20pawar)_4%20DIY%20BTS%20ROOM%20DECOR%20%f0%9f%92%9c%20DIY%20BTS%20Room%20Decor%20%e2%9c%a8Low%20Budget%20%20#BTS_4Zk4j3BIpIM_YT.mp4</pathurl>
																<rate>
																	<timebase>25</timebase>
																	<ntsc>FALSE</ntsc>
																</rate>
																<duration>10069</duration>
																<timecode>
																	<rate>
																		<timebase>25</timebase>
																		<ntsc>FALSE</ntsc>
																	</rate>
																	<string>00:00:00:00</string>
																	<frame>0</frame>
																	<displayformat>NDF</displayformat>
																</timecode>
																<media>
																	<video>
																		<samplecharacteristics>
																			<rate>
																				<timebase>25</timebase>
																				<ntsc>FALSE</ntsc>
																			</rate>
																			<width>1280</width>
																			<height>720</height>
																			<anamorphic>FALSE</anamorphic>
																			<pixelaspectratio>square</pixelaspectratio>
																			<fielddominance>none</fielddominance>
																		</samplecharacteristics>
																	</video>
																	<audio>
																		<samplecharacteristics>
																			<depth>16</depth>
																			<samplerate>44100</samplerate>
																		</samplecharacteristics>
																		<channelcount>2</channelcount>
																	</audio>
																</media>
															</file>
															<filter>
																<effect>
																	<name>Basic Motion</name>
																	<effectid>basic</effectid>
																	<effectcategory>motion</effectcategory>
																	<effecttype>motion</effecttype>
																	<mediatype>video</mediatype>
																	<pproBypass>false</pproBypass>
																	<parameter authoringApp="PremierePro">
																		<parameterid>scale</parameterid>
																		<name>Scale</name>
																		<valuemin>0</valuemin>
																		<valuemax>1000</valuemax>
																		<value>158</value>
																	</parameter>
																	<parameter authoringApp="PremierePro">
																		<parameterid>rotation</parameterid>
																		<name>Rotation</name>
																		<valuemin>-8640</valuemin>
																		<valuemax>8640</valuemax>
																		<value>0</value>
																	</parameter>
																	<parameter authoringApp="PremierePro">
																		<parameterid>center</parameterid>
																		<name>Center</name>
																		<value>
																			<horiz>0</horiz>
																			<vert>0</vert>
																		</value>
																	</parameter>
																	<parameter authoringApp="PremierePro">
																		<parameterid>centerOffset</parameterid>
																		<name>Anchor Point</name>
																		<value>
																			<horiz>0</horiz>
																			<vert>0</vert>
																		</value>
																	</parameter>
																	<parameter authoringApp="PremierePro">
																		<parameterid>antiflicker</parameterid>
																		<name>Anti-flicker Filter</name>
																		<valuemin>0.0</valuemin>
																		<valuemax>1.0</valuemax>
																		<value>0</value>
																	</parameter>
																</effect>
															</filter>
															<filter>
																<effect>
																	<name>Time Remap</name>
																	<effectid>timeremap</effectid>
																	<effectcategory>motion</effectcategory>
																	<effecttype>motion</effecttype>
																	<mediatype>video</mediatype>
																	<parameter authoringApp="PremierePro">
																		<parameterid>variablespeed</parameterid>
																		<name>variablespeed</name>
																		<valuemin>0</valuemin>
																		<valuemax>1</valuemax>
																		<value>0</value>
																	</parameter>
																	<parameter authoringApp="PremierePro">
																		<parameterid>speed</parameterid>
																		<name>speed</name>
																		<valuemin>-100000</valuemin>
																		<valuemax>100000</valuemax>
																		<value>139.187</value>
																	</parameter>
																	<parameter authoringApp="PremierePro">
																		<parameterid>reverse</parameterid>
																		<name>reverse</name>
																		<value>FALSE</value>
																	</parameter>
																	<parameter authoringApp="PremierePro">
																		<parameterid>frameblending</parameterid>
																		<name>frameblending</name>
																		<value>FALSE</value>
																	</parameter>
																	<parameter authoringApp="PremierePro">
																		<parameterid>graphdict</parameterid>
																		<name>graphdict</name>
																		<valuemin>0</valuemin>
																		<valuemax>12068</valuemax>
																		<value>0</value>
																		<keyframe>
																			<when>0</when>
																			<value>0</value>
																			<speedvirtualkf>TRUE</speedvirtualkf>
																			<speedkfstart>TRUE</speedkfstart>
																		</keyframe>
																		<keyframe>
																			<when>3749</when>
																			<value>5218</value>
																			<speedvirtualkf>TRUE</speedvirtualkf>
																			<speedkfin>TRUE</speedkfin>
																		</keyframe>
																		<keyframe>
																			<when>4289</when>
																			<value>5969</value>
																			<speedvirtualkf>TRUE</speedvirtualkf>
																			<speedkfout>TRUE</speedkfout>
																		</keyframe>
																		<keyframe>
																			<when>8671</when>
																			<value>12068</value>
																			<speedvirtualkf>TRUE</speedvirtualkf>
																			<speedkfend>TRUE</speedkfend>
																		</keyframe>
																		<interpolation>
																			<name>FCPCurve</name>
																		</interpolation>
																	</parameter>
																</effect>
															</filter>
															<logginginfo>
																<description></description>
																<scene></scene>
																<shottake></shottake>
																<lognote></lognote>
																<good></good>
																<originalvideofilename></originalvideofilename>
																<originalaudiofilename></originalaudiofilename>
															</logginginfo>
															<colorinfo>
																<lut></lut>
																<lut1></lut1>
																<asc_sop></asc_sop>
																<asc_sat></asc_sat>
																<lut2></lut2>
															</colorinfo>
															<labels>
																<label2>Iris</label2>
															</labels>
														</clipitem>
														<clipitem id="clipitem-147">
															<masterclipid>masterclip-49</masterclipid>
															<name>(parul pawar)_4 DIY BTS ROOM DECOR 💜 DIY BTS Room Decor ✨Low Budget  #BTS_4Zk4j3BIpIM_YT.mp4</name>
															<enabled>TRUE</enabled>
															<duration>13142</duration>
															<rate>
																<timebase>30</timebase>
																<ntsc>TRUE</ntsc>
															</rate>
															<start>541</start>
															<end>737</end>
															<in>12536</in>
															<out>12731</out>
															<pproTicksIn>97571880806400</pproTicksIn>
															<pproTicksOut>99097500902400</pproTicksOut>
															<alphatype>none</alphatype>
															<file id="file-40"/>
															<filter>
																<effect>
																	<name>Basic Motion</name>
																	<effectid>basic</effectid>
																	<effectcategory>motion</effectcategory>
																	<effecttype>motion</effecttype>
																	<mediatype>video</mediatype>
																	<pproBypass>false</pproBypass>
																	<parameter authoringApp="PremierePro">
																		<parameterid>scale</parameterid>
																		<name>Scale</name>
																		<valuemin>0</valuemin>
																		<valuemax>1000</valuemax>
																		<value>171</value>
																	</parameter>
																	<parameter authoringApp="PremierePro">
																		<parameterid>rotation</parameterid>
																		<name>Rotation</name>
																		<valuemin>-8640</valuemin>
																		<valuemax>8640</valuemax>
																		<value>0</value>
																	</parameter>
																	<parameter authoringApp="PremierePro">
																		<parameterid>center</parameterid>
																		<name>Center</name>
																		<value>
																			<horiz>0.0734375</horiz>
																			<vert>0.0222222</vert>
																		</value>
																	</parameter>
																	<parameter authoringApp="PremierePro">
																		<parameterid>centerOffset</parameterid>
																		<name>Anchor Point</name>
																		<value>
																			<horiz>0</horiz>
																			<vert>0</vert>
																		</value>
																	</parameter>
																	<parameter authoringApp="PremierePro">
																		<parameterid>antiflicker</parameterid>
																		<name>Anti-flicker Filter</name>
																		<valuemin>0.0</valuemin>
																		<valuemax>1.0</valuemax>
																		<value>0</value>
																	</parameter>
																</effect>
															</filter>
															<filter>
																<effect>
																	<name>Time Remap</name>
																	<effectid>timeremap</effectid>
																	<effectcategory>motion</effectcategory>
																	<effecttype>motion</effecttype>
																	<mediatype>video</mediatype>
																	<parameter authoringApp="PremierePro">
																		<parameterid>variablespeed</parameterid>
																		<name>variablespeed</name>
																		<valuemin>0</valuemin>
																		<valuemax>1</valuemax>
																		<value>0</value>
																	</parameter>
																	<parameter authoringApp="PremierePro">
																		<parameterid>speed</parameterid>
																		<name>speed</name>
																		<valuemin>-100000</valuemin>
																		<valuemax>100000</valuemax>
																		<value>91.8367</value>
																	</parameter>
																	<parameter authoringApp="PremierePro">
																		<parameterid>reverse</parameterid>
																		<name>reverse</name>
																		<value>FALSE</value>
																	</parameter>
																	<parameter authoringApp="PremierePro">
																		<parameterid>frameblending</parameterid>
																		<name>frameblending</name>
																		<value>FALSE</value>
																	</parameter>
																	<parameter authoringApp="PremierePro">
																		<parameterid>graphdict</parameterid>
																		<name>graphdict</name>
																		<valuemin>0</valuemin>
																		<valuemax>12069</valuemax>
																		<value>0</value>
																		<keyframe>
																			<when>0</when>
																			<value>0</value>
																			<speedvirtualkf>TRUE</speedvirtualkf>
																			<speedkfstart>TRUE</speedkfstart>
																		</keyframe>
																		<keyframe>
																			<when>12536</when>
																			<value>11512</value>
																			<speedvirtualkf>TRUE</speedvirtualkf>
																			<speedkfin>TRUE</speedkfin>
																		</keyframe>
																		<keyframe>
																			<when>12731</when>
																			<value>11691</value>
																			<speedvirtualkf>TRUE</speedvirtualkf>
																			<speedkfout>TRUE</speedkfout>
																		</keyframe>
																		<keyframe>
																			<when>13142</when>
																			<value>12069</value>
																			<speedvirtualkf>TRUE</speedvirtualkf>
																			<speedkfend>TRUE</speedkfend>
																		</keyframe>
																		<interpolation>
																			<name>FCPCurve</name>
																		</interpolation>
																	</parameter>
																</effect>
															</filter>
															<logginginfo>
																<description></description>
																<scene></scene>
																<shottake></shottake>
																<lognote></lognote>
																<good></good>
																<originalvideofilename></originalvideofilename>
																<originalaudiofilename></originalaudiofilename>
															</logginginfo>
															<colorinfo>
																<lut></lut>
																<lut1></lut1>
																<asc_sop></asc_sop>
																<asc_sat></asc_sat>
																<lut2></lut2>
															</colorinfo>
															<labels>
																<label2>Iris</label2>
															</labels>
														</clipitem>
														<clipitem id="clipitem-148">
															<masterclipid>masterclip-49</masterclipid>
															<name>(parul pawar)_4 DIY BTS ROOM DECOR 💜 DIY BTS Room Decor ✨Low Budget  #BTS_4Zk4j3BIpIM_YT.mp4</name>
															<enabled>TRUE</enabled>
															<duration>8625</duration>
															<rate>
																<timebase>30</timebase>
																<ntsc>TRUE</ntsc>
															</rate>
															<start>737</start>
															<end>2347</end>
															<in>4660</in>
															<out>6269</out>
															<pproTicksIn>55261350144000</pproTicksIn>
															<pproTicksOut>74357028345600</pproTicksOut>
															<alphatype>none</alphatype>
															<file id="file-40"/>
															<filter>
																<effect>
																	<name>Basic Motion</name>
																	<effectid>basic</effectid>
																	<effectcategory>motion</effectcategory>
																	<effecttype>motion</effecttype>
																	<mediatype>video</mediatype>
																	<pproBypass>false</pproBypass>
																	<parameter authoringApp="PremierePro">
																		<parameterid>scale</parameterid>
																		<name>Scale</name>
																		<valuemin>0</valuemin>
																		<valuemax>1000</valuemax>
																		<value>158</value>
																	</parameter>
																	<parameter authoringApp="PremierePro">
																		<parameterid>rotation</parameterid>
																		<name>Rotation</name>
																		<valuemin>-8640</valuemin>
																		<valuemax>8640</valuemax>
																		<value>0</value>
																	</parameter>
																	<parameter authoringApp="PremierePro">
																		<parameterid>center</parameterid>
																		<name>Center</name>
																		<value>
																			<horiz>0</horiz>
																			<vert>0</vert>
																		</value>
																	</parameter>
																	<parameter authoringApp="PremierePro">
																		<parameterid>centerOffset</parameterid>
																		<name>Anchor Point</name>
																		<value>
																			<horiz>0</horiz>
																			<vert>0</vert>
																		</value>
																	</parameter>
																	<parameter authoringApp="PremierePro">
																		<parameterid>antiflicker</parameterid>
																		<name>Anti-flicker Filter</name>
																		<valuemin>0.0</valuemin>
																		<valuemax>1.0</valuemax>
																		<value>0</value>
																	</parameter>
																</effect>
															</filter>
															<filter>
																<effect>
																	<name>Time Remap</name>
																	<effectid>timeremap</effectid>
																	<effectcategory>motion</effectcategory>
																	<effecttype>motion</effecttype>
																	<mediatype>video</mediatype>
																	<parameter authoringApp="PremierePro">
																		<parameterid>variablespeed</parameterid>
																		<name>variablespeed</name>
																		<valuemin>0</valuemin>
																		<valuemax>1</valuemax>
																		<value>0</value>
																	</parameter>
																	<parameter authoringApp="PremierePro">
																		<parameterid>speed</parameterid>
																		<name>speed</name>
																		<valuemin>-100000</valuemin>
																		<valuemax>100000</valuemax>
																		<value>139.938</value>
																	</parameter>
																	<parameter authoringApp="PremierePro">
																		<parameterid>reverse</parameterid>
																		<name>reverse</name>
																		<value>FALSE</value>
																	</parameter>
																	<parameter authoringApp="PremierePro">
																		<parameterid>frameblending</parameterid>
																		<name>frameblending</name>
																		<value>FALSE</value>
																	</parameter>
																	<parameter authoringApp="PremierePro">
																		<parameterid>graphdict</parameterid>
																		<name>graphdict</name>
																		<valuemin>0</valuemin>
																		<valuemax>12069</valuemax>
																		<value>0</value>
																		<keyframe>
																			<when>0</when>
																			<value>0</value>
																			<speedvirtualkf>TRUE</speedvirtualkf>
																			<speedkfstart>TRUE</speedkfstart>
																		</keyframe>
																		<keyframe>
																			<when>4660</when>
																			<value>6521</value>
																			<speedvirtualkf>TRUE</speedvirtualkf>
																			<speedkfin>TRUE</speedkfin>
																		</keyframe>
																		<keyframe>
																			<when>6269</when>
																			<value>8772</value>
																			<speedvirtualkf>TRUE</speedvirtualkf>
																			<speedkfout>TRUE</speedkfout>
																		</keyframe>
																		<keyframe>
																			<when>8625</when>
																			<value>12069</value>
																			<speedvirtualkf>TRUE</speedvirtualkf>
																			<speedkfend>TRUE</speedkfend>
																		</keyframe>
																		<interpolation>
																			<name>FCPCurve</name>
																		</interpolation>
																	</parameter>
																</effect>
															</filter>
															<logginginfo>
																<description></description>
																<scene></scene>
																<shottake></shottake>
																<lognote></lognote>
																<good></good>
																<originalvideofilename></originalvideofilename>
																<originalaudiofilename></originalaudiofilename>
															</logginginfo>
															<colorinfo>
																<lut></lut>
																<lut1></lut1>
																<asc_sop></asc_sop>
																<asc_sat></asc_sat>
																<lut2></lut2>
															</colorinfo>
															<labels>
																<label2>Iris</label2>
															</labels>
														</clipitem>
														<clipitem id="clipitem-149">
															<masterclipid>masterclip-49</masterclipid>
															<name>(parul pawar)_4 DIY BTS ROOM DECOR 💜 DIY BTS Room Decor ✨Low Budget  #BTS_4Zk4j3BIpIM_YT.mp4</name>
															<enabled>TRUE</enabled>
															<duration>12070</duration>
															<rate>
																<timebase>30</timebase>
																<ntsc>TRUE</ntsc>
															</rate>
															<start>2347</start>
															<end>2551</end>
															<in>11708</in>
															<out>11912</out>
															<pproTicksIn>99233111577600</pproTicksIn>
															<pproTicksOut>100962147686400</pproTicksOut>
															<alphatype>none</alphatype>
															<file id="file-40"/>
															<filter>
																<effect>
																	<name>Basic Motion</name>
																	<effectid>basic</effectid>
																	<effectcategory>motion</effectcategory>
																	<effecttype>motion</effecttype>
																	<mediatype>video</mediatype>
																	<pproBypass>false</pproBypass>
																	<parameter authoringApp="PremierePro">
																		<parameterid>scale</parameterid>
																		<name>Scale</name>
																		<valuemin>0</valuemin>
																		<valuemax>1000</valuemax>
																		<value>171</value>
																	</parameter>
																	<parameter authoringApp="PremierePro">
																		<parameterid>rotation</parameterid>
																		<name>Rotation</name>
																		<valuemin>-8640</valuemin>
																		<valuemax>8640</valuemax>
																		<value>0</value>
																	</parameter>
																	<parameter authoringApp="PremierePro">
																		<parameterid>center</parameterid>
																		<name>Center</name>
																		<value>
																			<horiz>0.0734375</horiz>
																			<vert>0.0222222</vert>
																		</value>
																	</parameter>
																	<parameter authoringApp="PremierePro">
																		<parameterid>centerOffset</parameterid>
																		<name>Anchor Point</name>
																		<value>
																			<horiz>0</horiz>
																			<vert>0</vert>
																		</value>
																	</parameter>
																	<parameter authoringApp="PremierePro">
																		<parameterid>antiflicker</parameterid>
																		<name>Anti-flicker Filter</name>
																		<valuemin>0.0</valuemin>
																		<valuemax>1.0</valuemax>
																		<value>0</value>
																	</parameter>
																</effect>
															</filter>
															<logginginfo>
																<description></description>
																<scene></scene>
																<shottake></shottake>
																<lognote></lognote>
																<good></good>
																<originalvideofilename></originalvideofilename>
																<originalaudiofilename></originalaudiofilename>
															</logginginfo>
															<colorinfo>
																<lut></lut>
																<lut1></lut1>
																<asc_sop></asc_sop>
																<asc_sat></asc_sat>
																<lut2></lut2>
															</colorinfo>
															<labels>
																<label2>Iris</label2>
															</labels>
														</clipitem>
														<enabled>TRUE</enabled>
														<locked>FALSE</locked>
													</track>
													<track TL.SQTrackShy="0" TL.SQTrackExpandedHeight="25" TL.SQTrackExpanded="0" MZ.TrackTargeted="0">
														<clipitem id="clipitem-150">
															<masterclipid>masterclip-50</masterclipid>
															<name>Parul Pawar</name>
															<enabled>TRUE</enabled>
															<duration>5844</duration>
															<rate>
																<timebase>30</timebase>
																<ntsc>TRUE</ntsc>
															</rate>
															<start>0</start>
															<end>2551</end>
															<in>0</in>
															<out>2551</out>
															<pproTicksIn>0</pproTicksIn>
															<pproTicksOut>21621427027200</pproTicksOut>
															<alphatype>straight</alphatype>
															<pixelaspectratio>square</pixelaspectratio>
															<anamorphic>FALSE</anamorphic>
															<file id="file-41">
																<name>1080/AE Attribution.aep</name>
																<pathurl>file://localhost/Volumes/ATM%20JR%202TB/Master%20Assets/AE%20Attribution.aep</pathurl>
																<rate>
																	<timebase>30</timebase>
																	<ntsc>TRUE</ntsc>
																</rate>
																<duration>5844</duration>
																<timecode>
																	<rate>
																		<timebase>30</timebase>
																		<ntsc>TRUE</ntsc>
																	</rate>
																	<string>00;00;00;00</string>
																	<frame>0</frame>
																	<displayformat>DF</displayformat>
																</timecode>
																<media>
																	<video>
																		<samplecharacteristics>
																			<rate>
																				<timebase>30</timebase>
																				<ntsc>TRUE</ntsc>
																			</rate>
																			<width>1920</width>
																			<height>1080</height>
																			<anamorphic>FALSE</anamorphic>
																			<pixelaspectratio>square</pixelaspectratio>
																			<fielddominance>lower</fielddominance>
																		</samplecharacteristics>
																	</video>
																</media>
															</file>
															<logginginfo>
																<description></description>
																<scene></scene>
																<shottake></shottake>
																<lognote></lognote>
																<good></good>
																<originalvideofilename></originalvideofilename>
																<originalaudiofilename></originalaudiofilename>
															</logginginfo>
															<colorinfo>
																<lut></lut>
																<lut1></lut1>
																<asc_sop></asc_sop>
																<asc_sat></asc_sat>
																<lut2></lut2>
															</colorinfo>
															<labels>
																<label2>Rose</label2>
															</labels>
														</clipitem>
														<enabled>TRUE</enabled>
														<locked>FALSE</locked>
													</track>
													<track TL.SQTrackShy="0" TL.SQTrackExpandedHeight="25" TL.SQTrackExpanded="0" MZ.TrackTargeted="0">
														<enabled>TRUE</enabled>
														<locked>FALSE</locked>
													</track>
												</video>
												<audio>
													<numOutputChannels>2</numOutputChannels>
													<format>
														<samplecharacteristics>
															<depth>16</depth>
															<samplerate>48000</samplerate>
														</samplecharacteristics>
													</format>
													<outputs>
														<group>
															<index>1</index>
															<numchannels>1</numchannels>
															<downmix>0</downmix>
															<channel>
																<index>1</index>
															</channel>
														</group>
														<group>
															<index>2</index>
															<numchannels>1</numchannels>
															<downmix>0</downmix>
															<channel>
																<index>2</index>
															</channel>
														</group>
													</outputs>
													<track TL.SQTrackAudioKeyframeStyle="0" TL.SQTrackShy="0" TL.SQTrackExpandedHeight="25" TL.SQTrackExpanded="0" MZ.TrackTargeted="1" PannerCurrentValue="0.5" PannerIsInverted="true" PannerStartKeyframe="-91445760000000000,0.5,0,0,0,0,0,0" PannerName="Balance" currentExplodedTrackIndex="0" totalExplodedTrackCount="2" premiereTrackType="Stereo">
														<enabled>TRUE</enabled>
														<locked>FALSE</locked>
														<outputchannelindex>1</outputchannelindex>
													</track>
													<track TL.SQTrackAudioKeyframeStyle="0" TL.SQTrackShy="0" TL.SQTrackExpandedHeight="25" TL.SQTrackExpanded="0" MZ.TrackTargeted="1" PannerCurrentValue="0.5" PannerIsInverted="true" PannerStartKeyframe="-91445760000000000,0.5,0,0,0,0,0,0" PannerName="Balance" currentExplodedTrackIndex="1" totalExplodedTrackCount="2" premiereTrackType="Stereo">
														<enabled>TRUE</enabled>
														<locked>FALSE</locked>
														<outputchannelindex>2</outputchannelindex>
													</track>
												</audio>
											</media>
											<timecode>
												<rate>
													<timebase>30</timebase>
													<ntsc>TRUE</ntsc>
												</rate>
												<string>00;00;00;00</string>
												<frame>0</frame>
												<displayformat>DF</displayformat>
											</timecode>
											<logginginfo>
												<description></description>
												<scene></scene>
												<shottake></shottake>
												<lognote></lognote>
												<good></good>
												<originalvideofilename></originalvideofilename>
												<originalaudiofilename></originalaudiofilename>
											</logginginfo>
										</sequence>
										<labels>
											<label2>Forest</label2>
										</labels>
									</clipitem>
									<clipitem id="clipitem-151">
										<masterclipid>masterclip-51</masterclipid>
										<name>ART_ORANGEYOUGLAD?_1.5</name>
										<enabled>TRUE</enabled>
										<duration>2540</duration>
										<rate>
											<timebase>30</timebase>
											<ntsc>TRUE</ntsc>
										</rate>
										<start>2628</start>
										<end>5168</end>
										<in>0</in>
										<out>2540</out>
										<pproTicksIn>0</pproTicksIn>
										<pproTicksOut>21528194688000</pproTicksOut>
										<sequence id="sequence-15" TL.SQAudioVisibleBase="0" TL.SQVideoVisibleBase="0" TL.SQVisibleBaseTime="6942285847479" TL.SQAVDividerPosition="0.5" TL.SQHideShyTracks="0" TL.SQHeaderWidth="236" Monitor.ProgramZoomOut="21528194688000" Monitor.ProgramZoomIn="0" TL.SQTimePerPixel="0.18656639566821276" MZ.EditLine="0" MZ.Sequence.PreviewFrameSizeHeight="1080" MZ.Sequence.PreviewFrameSizeWidth="1920" MZ.Sequence.AudioTimeDisplayFormat="200" MZ.Sequence.PreviewRenderingClassID="1061109567" MZ.Sequence.PreviewRenderingPresetCodec="1634755443" MZ.Sequence.PreviewRenderingPresetPath="EncoderPresets/SequencePreview/35d109db-457b-43c1-9452-9cb7be9f121c/QuickTime.epr" MZ.Sequence.PreviewUseMaxRenderQuality="false" MZ.Sequence.PreviewUseMaxBitDepth="false" MZ.Sequence.EditingModeGUID="35d109db-457b-43c1-9452-9cb7be9f121c" MZ.Sequence.VideoTimeDisplayFormat="102" MZ.WorkOutPoint="21528194688000" MZ.WorkInPoint="0">
											<duration>2540</duration>
											<rate>
												<timebase>30</timebase>
												<ntsc>TRUE</ntsc>
											</rate>
											<name>ART_ORANGEYOUGLAD?_1.5</name>
											<media>
												<video>
													<format>
														<samplecharacteristics>
															<rate>
																<timebase>30</timebase>
																<ntsc>TRUE</ntsc>
															</rate>
															<codec>
																<name>Apple ProRes 422</name>
																<appspecificdata>
																	<appname>Final Cut Pro</appname>
																	<appmanufacturer>Apple Inc.</appmanufacturer>
																	<appversion>7.0</appversion>
																	<data>
																		<qtcodec>
																			<codecname>Apple ProRes 422</codecname>
																			<codectypename>Apple ProRes 422</codectypename>
																			<codectypecode>apcn</codectypecode>
																			<codecvendorcode>appl</codecvendorcode>
																			<spatialquality>1024</spatialquality>
																			<temporalquality>0</temporalquality>
																			<keyframerate>0</keyframerate>
																			<datarate>0</datarate>
																		</qtcodec>
																	</data>
																</appspecificdata>
															</codec>
															<width>1920</width>
															<height>1080</height>
															<anamorphic>FALSE</anamorphic>
															<pixelaspectratio>square</pixelaspectratio>
															<fielddominance>none</fielddominance>
															<colordepth>24</colordepth>
														</samplecharacteristics>
													</format>
													<track TL.SQTrackShy="0" TL.SQTrackExpandedHeight="25" TL.SQTrackExpanded="0" MZ.TrackTargeted="1">
														<clipitem id="clipitem-152">
															<masterclipid>masterclip-52</masterclipid>
															<name>(ADCArtAttack)_Coloring Using ONLY ORANGE _ DYING LIGHT 2_GDbZ2x1c2-w_YT.mp4</name>
															<enabled>TRUE</enabled>
															<duration>13475</duration>
															<rate>
																<timebase>30</timebase>
																<ntsc>TRUE</ntsc>
															</rate>
															<start>0</start>
															<end>449</end>
															<in>5319</in>
															<out>5768</out>
															<pproTicksIn>56352592296000</pproTicksIn>
															<pproTicksOut>61109560512000</pproTicksOut>
															<alphatype>none</alphatype>
															<pixelaspectratio>square</pixelaspectratio>
															<anamorphic>FALSE</anamorphic>
															<file id="file-42">
																<name>(ADCArtAttack)_Coloring Using ONLY ORANGE _ DYING LIGHT 2_GDbZ2x1c2-w_YT.mp4</name>
																<pathurl>file://localhost/Volumes/CONTENT/VOD%20CONTENT%20ARCHIVE/O&amp;O%20Archive%202023/CRAFTY/03_March/Crafty_3-20-2023/3_Raw%20Files/orange%20art/(ADCArtAttack)_Coloring%20Using%20ONLY%20ORANGE%20_%20DYING%20LIGHT%202_GDbZ2x1c2-w_YT.mp4</pathurl>
																<rate>
																	<timebase>50</timebase>
																	<ntsc>FALSE</ntsc>
																</rate>
																<duration>28102</duration>
																<timecode>
																	<rate>
																		<timebase>50</timebase>
																		<ntsc>FALSE</ntsc>
																	</rate>
																	<string>00:00:00:00</string>
																	<frame>0</frame>
																	<displayformat>NDF</displayformat>
																</timecode>
																<media>
																	<video>
																		<samplecharacteristics>
																			<rate>
																				<timebase>50</timebase>
																				<ntsc>FALSE</ntsc>
																			</rate>
																			<width>1920</width>
																			<height>1080</height>
																			<anamorphic>FALSE</anamorphic>
																			<pixelaspectratio>square</pixelaspectratio>
																			<fielddominance>none</fielddominance>
																		</samplecharacteristics>
																	</video>
																	<audio>
																		<samplecharacteristics>
																			<depth>16</depth>
																			<samplerate>44100</samplerate>
																		</samplecharacteristics>
																		<channelcount>2</channelcount>
																	</audio>
																</media>
															</file>
															<filter>
																<effect>
																	<name>Time Remap</name>
																	<effectid>timeremap</effectid>
																	<effectcategory>motion</effectcategory>
																	<effecttype>motion</effecttype>
																	<mediatype>video</mediatype>
																	<parameter authoringApp="PremierePro">
																		<parameterid>variablespeed</parameterid>
																		<name>variablespeed</name>
																		<valuemin>0</valuemin>
																		<valuemax>1</valuemax>
																		<value>0</value>
																	</parameter>
																	<parameter authoringApp="PremierePro">
																		<parameterid>speed</parameterid>
																		<name>speed</name>
																		<valuemin>-100000</valuemin>
																		<valuemax>100000</valuemax>
																		<value>125</value>
																	</parameter>
																	<parameter authoringApp="PremierePro">
																		<parameterid>reverse</parameterid>
																		<name>reverse</name>
																		<value>FALSE</value>
																	</parameter>
																	<parameter authoringApp="PremierePro">
																		<parameterid>frameblending</parameterid>
																		<name>frameblending</name>
																		<value>FALSE</value>
																	</parameter>
																	<parameter authoringApp="PremierePro">
																		<parameterid>graphdict</parameterid>
																		<name>graphdict</name>
																		<valuemin>0</valuemin>
																		<valuemax>16843</valuemax>
																		<value>0</value>
																		<keyframe>
																			<when>0</when>
																			<value>0</value>
																			<speedvirtualkf>TRUE</speedvirtualkf>
																			<speedkfstart>TRUE</speedkfstart>
																		</keyframe>
																		<keyframe>
																			<when>5319</when>
																			<value>6648</value>
																			<speedvirtualkf>TRUE</speedvirtualkf>
																			<speedkfin>TRUE</speedkfin>
																		</keyframe>
																		<keyframe>
																			<when>5768</when>
																			<value>7210</value>
																			<speedvirtualkf>TRUE</speedvirtualkf>
																			<speedkfout>TRUE</speedkfout>
																		</keyframe>
																		<keyframe>
																			<when>13475</when>
																			<value>16843</value>
																			<speedvirtualkf>TRUE</speedvirtualkf>
																			<speedkfend>TRUE</speedkfend>
																		</keyframe>
																		<interpolation>
																			<name>FCPCurve</name>
																		</interpolation>
																	</parameter>
																</effect>
															</filter>
															<logginginfo>
																<description></description>
																<scene></scene>
																<shottake></shottake>
																<lognote>https://www.youtube.com/watch?v=GDbZ2x1c2-w</lognote>
																<good></good>
																<originalvideofilename></originalvideofilename>
																<originalaudiofilename></originalaudiofilename>
															</logginginfo>
															<colorinfo>
																<lut></lut>
																<lut1></lut1>
																<asc_sop></asc_sop>
																<asc_sat></asc_sat>
																<lut2></lut2>
															</colorinfo>
															<labels>
																<label2>Iris</label2>
															</labels>
														</clipitem>
														<clipitem id="clipitem-153">
															<masterclipid>masterclip-52</masterclipid>
															<name>(ADCArtAttack)_Coloring Using ONLY ORANGE _ DYING LIGHT 2_GDbZ2x1c2-w_YT.mp4</name>
															<enabled>TRUE</enabled>
															<duration>13475</duration>
															<rate>
																<timebase>30</timebase>
																<ntsc>TRUE</ntsc>
															</rate>
															<start>449</start>
															<end>793</end>
															<in>7912</in>
															<out>8256</out>
															<pproTicksIn>83824348608000</pproTicksIn>
															<pproTicksOut>87468885504000</pproTicksOut>
															<alphatype>none</alphatype>
															<file id="file-42"/>
															<filter>
																<effect>
																	<name>Time Remap</name>
																	<effectid>timeremap</effectid>
																	<effectcategory>motion</effectcategory>
																	<effecttype>motion</effecttype>
																	<mediatype>video</mediatype>
																	<parameter authoringApp="PremierePro">
																		<parameterid>variablespeed</parameterid>
																		<name>variablespeed</name>
																		<valuemin>0</valuemin>
																		<valuemax>1</valuemax>
																		<value>0</value>
																	</parameter>
																	<parameter authoringApp="PremierePro">
																		<parameterid>speed</parameterid>
																		<name>speed</name>
																		<valuemin>-100000</valuemin>
																		<valuemax>100000</valuemax>
																		<value>125</value>
																	</parameter>
																	<parameter authoringApp="PremierePro">
																		<parameterid>reverse</parameterid>
																		<name>reverse</name>
																		<value>FALSE</value>
																	</parameter>
																	<parameter authoringApp="PremierePro">
																		<parameterid>frameblending</parameterid>
																		<name>frameblending</name>
																		<value>FALSE</value>
																	</parameter>
																	<parameter authoringApp="PremierePro">
																		<parameterid>graphdict</parameterid>
																		<name>graphdict</name>
																		<valuemin>0</valuemin>
																		<valuemax>16843</valuemax>
																		<value>0</value>
																		<keyframe>
																			<when>0</when>
																			<value>0</value>
																			<speedvirtualkf>TRUE</speedvirtualkf>
																			<speedkfstart>TRUE</speedkfstart>
																		</keyframe>
																		<keyframe>
																			<when>7912</when>
																			<value>9890</value>
																			<speedvirtualkf>TRUE</speedvirtualkf>
																			<speedkfin>TRUE</speedkfin>
																		</keyframe>
																		<keyframe>
																			<when>8256</when>
																			<value>10320</value>
																			<speedvirtualkf>TRUE</speedvirtualkf>
																			<speedkfout>TRUE</speedkfout>
																		</keyframe>
																		<keyframe>
																			<when>13475</when>
																			<value>16843</value>
																			<speedvirtualkf>TRUE</speedvirtualkf>
																			<speedkfend>TRUE</speedkfend>
																		</keyframe>
																		<interpolation>
																			<name>FCPCurve</name>
																		</interpolation>
																	</parameter>
																</effect>
															</filter>
															<logginginfo>
																<description></description>
																<scene></scene>
																<shottake></shottake>
																<lognote>https://www.youtube.com/watch?v=GDbZ2x1c2-w</lognote>
																<good></good>
																<originalvideofilename></originalvideofilename>
																<originalaudiofilename></originalaudiofilename>
															</logginginfo>
															<colorinfo>
																<lut></lut>
																<lut1></lut1>
																<asc_sop></asc_sop>
																<asc_sat></asc_sat>
																<lut2></lut2>
															</colorinfo>
															<labels>
																<label2>Iris</label2>
															</labels>
														</clipitem>
														<clipitem id="clipitem-154">
															<masterclipid>masterclip-52</masterclipid>
															<name>(ADCArtAttack)_Coloring Using ONLY ORANGE _ DYING LIGHT 2_GDbZ2x1c2-w_YT.mp4</name>
															<enabled>TRUE</enabled>
															<duration>13475</duration>
															<rate>
																<timebase>30</timebase>
																<ntsc>TRUE</ntsc>
															</rate>
															<start>793</start>
															<end>1274</end>
															<in>8771</in>
															<out>9252</out>
															<pproTicksIn>92925096264000</pproTicksIn>
															<pproTicksOut>98021091168000</pproTicksOut>
															<alphatype>none</alphatype>
															<file id="file-42"/>
															<filter>
																<effect>
																	<name>Time Remap</name>
																	<effectid>timeremap</effectid>
																	<effectcategory>motion</effectcategory>
																	<effecttype>motion</effecttype>
																	<mediatype>video</mediatype>
																	<parameter authoringApp="PremierePro">
																		<parameterid>variablespeed</parameterid>
																		<name>variablespeed</name>
																		<valuemin>0</valuemin>
																		<valuemax>1</valuemax>
																		<value>0</value>
																	</parameter>
																	<parameter authoringApp="PremierePro">
																		<parameterid>speed</parameterid>
																		<name>speed</name>
																		<valuemin>-100000</valuemin>
																		<valuemax>100000</valuemax>
																		<value>125</value>
																	</parameter>
																	<parameter authoringApp="PremierePro">
																		<parameterid>reverse</parameterid>
																		<name>reverse</name>
																		<value>FALSE</value>
																	</parameter>
																	<parameter authoringApp="PremierePro">
																		<parameterid>frameblending</parameterid>
																		<name>frameblending</name>
																		<value>FALSE</value>
																	</parameter>
																	<parameter authoringApp="PremierePro">
																		<parameterid>graphdict</parameterid>
																		<name>graphdict</name>
																		<valuemin>0</valuemin>
																		<valuemax>16843</valuemax>
																		<value>0</value>
																		<keyframe>
																			<when>0</when>
																			<value>0</value>
																			<speedvirtualkf>TRUE</speedvirtualkf>
																			<speedkfstart>TRUE</speedkfstart>
																		</keyframe>
																		<keyframe>
																			<when>8771</when>
																			<value>10963</value>
																			<speedvirtualkf>TRUE</speedvirtualkf>
																			<speedkfin>TRUE</speedkfin>
																		</keyframe>
																		<keyframe>
																			<when>9252</when>
																			<value>11565</value>
																			<speedvirtualkf>TRUE</speedvirtualkf>
																			<speedkfout>TRUE</speedkfout>
																		</keyframe>
																		<keyframe>
																			<when>13475</when>
																			<value>16843</value>
																			<speedvirtualkf>TRUE</speedvirtualkf>
																			<speedkfend>TRUE</speedkfend>
																		</keyframe>
																		<interpolation>
																			<name>FCPCurve</name>
																		</interpolation>
																	</parameter>
																</effect>
															</filter>
															<logginginfo>
																<description></description>
																<scene></scene>
																<shottake></shottake>
																<lognote>https://www.youtube.com/watch?v=GDbZ2x1c2-w</lognote>
																<good></good>
																<originalvideofilename></originalvideofilename>
																<originalaudiofilename></originalaudiofilename>
															</logginginfo>
															<colorinfo>
																<lut></lut>
																<lut1></lut1>
																<asc_sop></asc_sop>
																<asc_sat></asc_sat>
																<lut2></lut2>
															</colorinfo>
															<labels>
																<label2>Iris</label2>
															</labels>
														</clipitem>
														<clipitem id="clipitem-155">
															<masterclipid>masterclip-52</masterclipid>
															<name>(ADCArtAttack)_Coloring Using ONLY ORANGE _ DYING LIGHT 2_GDbZ2x1c2-w_YT.mp4</name>
															<enabled>TRUE</enabled>
															<duration>13475</duration>
															<rate>
																<timebase>30</timebase>
																<ntsc>TRUE</ntsc>
															</rate>
															<start>1274</start>
															<end>1726</end>
															<in>9438</in>
															<out>9890</out>
															<pproTicksIn>99991683792000</pproTicksIn>
															<pproTicksOut>104780435760000</pproTicksOut>
															<alphatype>none</alphatype>
															<file id="file-42"/>
															<filter>
																<effect>
																	<name>Time Remap</name>
																	<effectid>timeremap</effectid>
																	<effectcategory>motion</effectcategory>
																	<effecttype>motion</effecttype>
																	<mediatype>video</mediatype>
																	<parameter authoringApp="PremierePro">
																		<parameterid>variablespeed</parameterid>
																		<name>variablespeed</name>
																		<valuemin>0</valuemin>
																		<valuemax>1</valuemax>
																		<value>0</value>
																	</parameter>
																	<parameter authoringApp="PremierePro">
																		<parameterid>speed</parameterid>
																		<name>speed</name>
																		<valuemin>-100000</valuemin>
																		<valuemax>100000</valuemax>
																		<value>125</value>
																	</parameter>
																	<parameter authoringApp="PremierePro">
																		<parameterid>reverse</parameterid>
																		<name>reverse</name>
																		<value>FALSE</value>
																	</parameter>
																	<parameter authoringApp="PremierePro">
																		<parameterid>frameblending</parameterid>
																		<name>frameblending</name>
																		<value>FALSE</value>
																	</parameter>
																	<parameter authoringApp="PremierePro">
																		<parameterid>graphdict</parameterid>
																		<name>graphdict</name>
																		<valuemin>0</valuemin>
																		<valuemax>16843</valuemax>
																		<value>0</value>
																		<keyframe>
																			<when>0</when>
																			<value>0</value>
																			<speedvirtualkf>TRUE</speedvirtualkf>
																			<speedkfstart>TRUE</speedkfstart>
																		</keyframe>
																		<keyframe>
																			<when>9438</when>
																			<value>11797</value>
																			<speedvirtualkf>TRUE</speedvirtualkf>
																			<speedkfin>TRUE</speedkfin>
																		</keyframe>
																		<keyframe>
																			<when>9890</when>
																			<value>12362</value>
																			<speedvirtualkf>TRUE</speedvirtualkf>
																			<speedkfout>TRUE</speedkfout>
																		</keyframe>
																		<keyframe>
																			<when>13475</when>
																			<value>16843</value>
																			<speedvirtualkf>TRUE</speedvirtualkf>
																			<speedkfend>TRUE</speedkfend>
																		</keyframe>
																		<interpolation>
																			<name>FCPCurve</name>
																		</interpolation>
																	</parameter>
																</effect>
															</filter>
															<logginginfo>
																<description></description>
																<scene></scene>
																<shottake></shottake>
																<lognote>https://www.youtube.com/watch?v=GDbZ2x1c2-w</lognote>
																<good></good>
																<originalvideofilename></originalvideofilename>
																<originalaudiofilename></originalaudiofilename>
															</logginginfo>
															<colorinfo>
																<lut></lut>
																<lut1></lut1>
																<asc_sop></asc_sop>
																<asc_sat></asc_sat>
																<lut2></lut2>
															</colorinfo>
															<labels>
																<label2>Iris</label2>
															</labels>
														</clipitem>
														<clipitem id="clipitem-156">
															<masterclipid>masterclip-52</masterclipid>
															<name>(ADCArtAttack)_Coloring Using ONLY ORANGE _ DYING LIGHT 2_GDbZ2x1c2-w_YT.mp4</name>
															<enabled>TRUE</enabled>
															<duration>13475</duration>
															<rate>
																<timebase>30</timebase>
																<ntsc>TRUE</ntsc>
															</rate>
															<start>1726</start>
															<end>2065</end>
															<in>10391</in>
															<out>10729</out>
															<pproTicksIn>110081965593600</pproTicksIn>
															<pproTicksOut>113673529569600</pproTicksOut>
															<alphatype>none</alphatype>
															<file id="file-42"/>
															<filter>
																<effect>
																	<name>Time Remap</name>
																	<effectid>timeremap</effectid>
																	<effectcategory>motion</effectcategory>
																	<effecttype>motion</effecttype>
																	<mediatype>video</mediatype>
																	<parameter authoringApp="PremierePro">
																		<parameterid>variablespeed</parameterid>
																		<name>variablespeed</name>
																		<valuemin>0</valuemin>
																		<valuemax>1</valuemax>
																		<value>0</value>
																	</parameter>
																	<parameter authoringApp="PremierePro">
																		<parameterid>speed</parameterid>
																		<name>speed</name>
																		<valuemin>-100000</valuemin>
																		<valuemax>100000</valuemax>
																		<value>125</value>
																	</parameter>
																	<parameter authoringApp="PremierePro">
																		<parameterid>reverse</parameterid>
																		<name>reverse</name>
																		<value>FALSE</value>
																	</parameter>
																	<parameter authoringApp="PremierePro">
																		<parameterid>frameblending</parameterid>
																		<name>frameblending</name>
																		<value>FALSE</value>
																	</parameter>
																	<parameter authoringApp="PremierePro">
																		<parameterid>graphdict</parameterid>
																		<name>graphdict</name>
																		<valuemin>0</valuemin>
																		<valuemax>16843</valuemax>
																		<value>0</value>
																		<keyframe>
																			<when>0</when>
																			<value>0</value>
																			<speedvirtualkf>TRUE</speedvirtualkf>
																			<speedkfstart>TRUE</speedkfstart>
																		</keyframe>
																		<keyframe>
																			<when>10391</when>
																			<value>12988</value>
																			<speedvirtualkf>TRUE</speedvirtualkf>
																			<speedkfin>TRUE</speedkfin>
																		</keyframe>
																		<keyframe>
																			<when>10729</when>
																			<value>13411</value>
																			<speedvirtualkf>TRUE</speedvirtualkf>
																			<speedkfout>TRUE</speedkfout>
																		</keyframe>
																		<keyframe>
																			<when>13475</when>
																			<value>16843</value>
																			<speedvirtualkf>TRUE</speedvirtualkf>
																			<speedkfend>TRUE</speedkfend>
																		</keyframe>
																		<interpolation>
																			<name>FCPCurve</name>
																		</interpolation>
																	</parameter>
																</effect>
															</filter>
															<logginginfo>
																<description></description>
																<scene></scene>
																<shottake></shottake>
																<lognote>https://www.youtube.com/watch?v=GDbZ2x1c2-w</lognote>
																<good></good>
																<originalvideofilename></originalvideofilename>
																<originalaudiofilename></originalaudiofilename>
															</logginginfo>
															<colorinfo>
																<lut></lut>
																<lut1></lut1>
																<asc_sop></asc_sop>
																<asc_sat></asc_sat>
																<lut2></lut2>
															</colorinfo>
															<labels>
																<label2>Iris</label2>
															</labels>
														</clipitem>
														<clipitem id="clipitem-157">
															<masterclipid>masterclip-52</masterclipid>
															<name>(ADCArtAttack)_Coloring Using ONLY ORANGE _ DYING LIGHT 2_GDbZ2x1c2-w_YT.mp4</name>
															<enabled>TRUE</enabled>
															<duration>12080</duration>
															<rate>
																<timebase>30</timebase>
																<ntsc>TRUE</ntsc>
															</rate>
															<start>2065</start>
															<end>2344</end>
															<in>10105</in>
															<out>10383</out>
															<pproTicksIn>119405199513600</pproTicksIn>
															<pproTicksOut>122702234054400</pproTicksOut>
															<alphatype>none</alphatype>
															<file id="file-42"/>
															<filter>
																<effect>
																	<name>Time Remap</name>
																	<effectid>timeremap</effectid>
																	<effectcategory>motion</effectcategory>
																	<effecttype>motion</effecttype>
																	<mediatype>video</mediatype>
																	<parameter authoringApp="PremierePro">
																		<parameterid>variablespeed</parameterid>
																		<name>variablespeed</name>
																		<valuemin>0</valuemin>
																		<valuemax>1</valuemax>
																		<value>0</value>
																	</parameter>
																	<parameter authoringApp="PremierePro">
																		<parameterid>speed</parameterid>
																		<name>speed</name>
																		<valuemin>-100000</valuemin>
																		<valuemax>100000</valuemax>
																		<value>139.427</value>
																	</parameter>
																	<parameter authoringApp="PremierePro">
																		<parameterid>reverse</parameterid>
																		<name>reverse</name>
																		<value>FALSE</value>
																	</parameter>
																	<parameter authoringApp="PremierePro">
																		<parameterid>frameblending</parameterid>
																		<name>frameblending</name>
																		<value>FALSE</value>
																	</parameter>
																	<parameter authoringApp="PremierePro">
																		<parameterid>graphdict</parameterid>
																		<name>graphdict</name>
																		<valuemin>0</valuemin>
																		<valuemax>16842</valuemax>
																		<value>0</value>
																		<keyframe>
																			<when>0</when>
																			<value>0</value>
																			<speedvirtualkf>TRUE</speedvirtualkf>
																			<speedkfstart>TRUE</speedkfstart>
																		</keyframe>
																		<keyframe>
																			<when>10105</when>
																			<value>14089</value>
																			<speedvirtualkf>TRUE</speedvirtualkf>
																			<speedkfin>TRUE</speedkfin>
																		</keyframe>
																		<keyframe>
																			<when>10383</when>
																			<value>14476</value>
																			<speedvirtualkf>TRUE</speedvirtualkf>
																			<speedkfout>TRUE</speedkfout>
																		</keyframe>
																		<keyframe>
																			<when>12080</when>
																			<value>16842</value>
																			<speedvirtualkf>TRUE</speedvirtualkf>
																			<speedkfend>TRUE</speedkfend>
																		</keyframe>
																		<interpolation>
																			<name>FCPCurve</name>
																		</interpolation>
																	</parameter>
																</effect>
															</filter>
															<logginginfo>
																<description></description>
																<scene></scene>
																<shottake></shottake>
																<lognote>https://www.youtube.com/watch?v=GDbZ2x1c2-w</lognote>
																<good></good>
																<originalvideofilename></originalvideofilename>
																<originalaudiofilename></originalaudiofilename>
															</logginginfo>
															<colorinfo>
																<lut></lut>
																<lut1></lut1>
																<asc_sop></asc_sop>
																<asc_sat></asc_sat>
																<lut2></lut2>
															</colorinfo>
															<labels>
																<label2>Iris</label2>
															</labels>
														</clipitem>
														<clipitem id="clipitem-158">
															<masterclipid>masterclip-52</masterclipid>
															<name>(ADCArtAttack)_Coloring Using ONLY ORANGE _ DYING LIGHT 2_GDbZ2x1c2-w_YT.mp4</name>
															<enabled>TRUE</enabled>
															<duration>16844</duration>
															<rate>
																<timebase>30</timebase>
																<ntsc>TRUE</ntsc>
															</rate>
															<start>2344</start>
															<end>2416</end>
															<in>14534</in>
															<out>14606</out>
															<pproTicksIn>123185347084800</pproTicksIn>
															<pproTicksOut>123795595123200</pproTicksOut>
															<alphatype>none</alphatype>
															<file id="file-42"/>
															<logginginfo>
																<description></description>
																<scene></scene>
																<shottake></shottake>
																<lognote>https://www.youtube.com/watch?v=GDbZ2x1c2-w</lognote>
																<good></good>
																<originalvideofilename></originalvideofilename>
																<originalaudiofilename></originalaudiofilename>
															</logginginfo>
															<colorinfo>
																<lut></lut>
																<lut1></lut1>
																<asc_sop></asc_sop>
																<asc_sat></asc_sat>
																<lut2></lut2>
															</colorinfo>
															<labels>
																<label2>Iris</label2>
															</labels>
														</clipitem>
														<clipitem id="clipitem-159">
															<masterclipid>masterclip-52</masterclipid>
															<name>(ADCArtAttack)_Coloring Using ONLY ORANGE _ DYING LIGHT 2_GDbZ2x1c2-w_YT.mp4</name>
															<enabled>TRUE</enabled>
															<duration>16844</duration>
															<rate>
																<timebase>30</timebase>
																<ntsc>TRUE</ntsc>
															</rate>
															<start>2416</start>
															<end>2540</end>
															<in>14631</in>
															<out>14755</out>
															<pproTicksIn>124007486803200</pproTicksIn>
															<pproTicksOut>125058469536000</pproTicksOut>
															<alphatype>none</alphatype>
															<file id="file-42"/>
															<logginginfo>
																<description></description>
																<scene></scene>
																<shottake></shottake>
																<lognote>https://www.youtube.com/watch?v=GDbZ2x1c2-w</lognote>
																<good></good>
																<originalvideofilename></originalvideofilename>
																<originalaudiofilename></originalaudiofilename>
															</logginginfo>
															<colorinfo>
																<lut></lut>
																<lut1></lut1>
																<asc_sop></asc_sop>
																<asc_sat></asc_sat>
																<lut2></lut2>
															</colorinfo>
															<labels>
																<label2>Iris</label2>
															</labels>
														</clipitem>
														<enabled>TRUE</enabled>
														<locked>FALSE</locked>
													</track>
													<track TL.SQTrackShy="0" TL.SQTrackExpandedHeight="25" TL.SQTrackExpanded="0" MZ.TrackTargeted="0">
														<clipitem id="clipitem-160">
															<masterclipid>masterclip-53</masterclipid>
															<name>ADCARTATTACK</name>
															<enabled>TRUE</enabled>
															<duration>5844</duration>
															<rate>
																<timebase>30</timebase>
																<ntsc>TRUE</ntsc>
															</rate>
															<start>0</start>
															<end>2540</end>
															<in>0</in>
															<out>2540</out>
															<pproTicksIn>0</pproTicksIn>
															<pproTicksOut>21528194688000</pproTicksOut>
															<alphatype>straight</alphatype>
															<pixelaspectratio>square</pixelaspectratio>
															<anamorphic>FALSE</anamorphic>
															<file id="file-43">
																<name>1080/AE Attribution.aep</name>
																<pathurl>file://localhost/Volumes/ATM%20JR%202TB/Master%20Assets/AE%20Attribution.aep</pathurl>
																<rate>
																	<timebase>30</timebase>
																	<ntsc>TRUE</ntsc>
																</rate>
																<duration>5844</duration>
																<timecode>
																	<rate>
																		<timebase>30</timebase>
																		<ntsc>TRUE</ntsc>
																	</rate>
																	<string>00;00;00;00</string>
																	<frame>0</frame>
																	<displayformat>DF</displayformat>
																</timecode>
																<media>
																	<video>
																		<samplecharacteristics>
																			<rate>
																				<timebase>30</timebase>
																				<ntsc>TRUE</ntsc>
																			</rate>
																			<width>1920</width>
																			<height>1080</height>
																			<anamorphic>FALSE</anamorphic>
																			<pixelaspectratio>square</pixelaspectratio>
																			<fielddominance>lower</fielddominance>
																		</samplecharacteristics>
																	</video>
																</media>
															</file>
															<logginginfo>
																<description></description>
																<scene></scene>
																<shottake></shottake>
																<lognote></lognote>
																<good></good>
																<originalvideofilename></originalvideofilename>
																<originalaudiofilename></originalaudiofilename>
															</logginginfo>
															<colorinfo>
																<lut></lut>
																<lut1></lut1>
																<asc_sop></asc_sop>
																<asc_sat></asc_sat>
																<lut2></lut2>
															</colorinfo>
															<labels>
																<label2>Rose</label2>
															</labels>
														</clipitem>
														<enabled>TRUE</enabled>
														<locked>FALSE</locked>
													</track>
												</video>
												<audio>
													<numOutputChannels>2</numOutputChannels>
													<format>
														<samplecharacteristics>
															<depth>16</depth>
															<samplerate>48000</samplerate>
														</samplecharacteristics>
													</format>
													<outputs>
														<group>
															<index>1</index>
															<numchannels>1</numchannels>
															<downmix>0</downmix>
															<channel>
																<index>1</index>
															</channel>
														</group>
														<group>
															<index>2</index>
															<numchannels>1</numchannels>
															<downmix>0</downmix>
															<channel>
																<index>2</index>
															</channel>
														</group>
													</outputs>
													<track TL.SQTrackAudioKeyframeStyle="0" TL.SQTrackShy="0" TL.SQTrackExpandedHeight="25" TL.SQTrackExpanded="0" MZ.TrackTargeted="1" PannerCurrentValue="0.5" PannerIsInverted="true" PannerStartKeyframe="-91445760000000000,0.5,0,0,0,0,0,0" PannerName="Balance" currentExplodedTrackIndex="0" totalExplodedTrackCount="2" premiereTrackType="Stereo">
														<enabled>TRUE</enabled>
														<locked>FALSE</locked>
														<outputchannelindex>1</outputchannelindex>
													</track>
													<track TL.SQTrackAudioKeyframeStyle="0" TL.SQTrackShy="0" TL.SQTrackExpandedHeight="25" TL.SQTrackExpanded="0" MZ.TrackTargeted="1" PannerCurrentValue="0.5" PannerIsInverted="true" PannerStartKeyframe="-91445760000000000,0.5,0,0,0,0,0,0" PannerName="Balance" currentExplodedTrackIndex="1" totalExplodedTrackCount="2" premiereTrackType="Stereo">
														<enabled>TRUE</enabled>
														<locked>FALSE</locked>
														<outputchannelindex>2</outputchannelindex>
													</track>
												</audio>
											</media>
											<timecode>
												<rate>
													<timebase>30</timebase>
													<ntsc>TRUE</ntsc>
												</rate>
												<string>00;00;00;00</string>
												<frame>0</frame>
												<displayformat>DF</displayformat>
											</timecode>
											<logginginfo>
												<description></description>
												<scene></scene>
												<shottake></shottake>
												<lognote></lognote>
												<good></good>
												<originalvideofilename></originalvideofilename>
												<originalaudiofilename></originalaudiofilename>
											</logginginfo>
										</sequence>
										<labels>
											<label2>Forest</label2>
										</labels>
									</clipitem>
									<enabled>TRUE</enabled>
									<locked>FALSE</locked>
								</track>
								<track TL.SQTrackShy="0" TL.SQTrackExpandedHeight="25" TL.SQTrackExpanded="0" MZ.TrackTargeted="0">
									<clipitem id="clipitem-161">
										<masterclipid>masterclip-54</masterclipid>
										<name>BEST OF BTS DECOR</name>
										<enabled>TRUE</enabled>
										<duration>5695</duration>
										<rate>
											<timebase>30</timebase>
											<ntsc>TRUE</ntsc>
										</rate>
										<start>0</start>
										<end>2551</end>
										<in>0</in>
										<out>2551</out>
										<pproTicksIn>0</pproTicksIn>
										<pproTicksOut>21621427027200</pproTicksOut>
										<alphatype>straight</alphatype>
										<pixelaspectratio>square</pixelaspectratio>
										<anamorphic>FALSE</anamorphic>
										<file id="file-44">
											<name>CRAFTY_L3RD_01_JL_V03/CRAFTY_L3RD_01_JL_V03.aep</name>
											<pathurl>file://localhost/Volumes/ATM%20JR%202TB/Master%20Assets/CRAFTY_L3RD_01_JL_V03%20folder/CRAFTY_L3RD_01_JL_V03.aep</pathurl>
											<rate>
												<timebase>30</timebase>
												<ntsc>FALSE</ntsc>
											</rate>
											<duration>5701</duration>
											<timecode>
												<rate>
													<timebase>30</timebase>
													<ntsc>FALSE</ntsc>
												</rate>
												<string>00:00:00:00</string>
												<frame>0</frame>
												<displayformat>NDF</displayformat>
											</timecode>
											<media>
												<video>
													<samplecharacteristics>
														<rate>
															<timebase>30</timebase>
															<ntsc>FALSE</ntsc>
														</rate>
														<width>1920</width>
														<height>1080</height>
														<anamorphic>FALSE</anamorphic>
														<pixelaspectratio>square</pixelaspectratio>
														<fielddominance>lower</fielddominance>
													</samplecharacteristics>
												</video>
											</media>
										</file>
										<logginginfo>
											<description></description>
											<scene></scene>
											<shottake></shottake>
											<lognote></lognote>
											<good></good>
											<originalvideofilename></originalvideofilename>
											<originalaudiofilename></originalaudiofilename>
										</logginginfo>
										<colorinfo>
											<lut></lut>
											<lut1></lut1>
											<asc_sop></asc_sop>
											<asc_sat></asc_sat>
											<lut2></lut2>
										</colorinfo>
										<labels>
											<label2>Rose</label2>
										</labels>
									</clipitem>
									<clipitem id="clipitem-162">
										<masterclipid>masterclip-55</masterclipid>
										<name>ORANGE YOU GLAD?</name>
										<enabled>TRUE</enabled>
										<duration>5695</duration>
										<rate>
											<timebase>30</timebase>
											<ntsc>TRUE</ntsc>
										</rate>
										<start>2650</start>
										<end>5168</end>
										<in>0</in>
										<out>2518</out>
										<pproTicksIn>0</pproTicksIn>
										<pproTicksOut>21341730009600</pproTicksOut>
										<alphatype>straight</alphatype>
										<pixelaspectratio>square</pixelaspectratio>
										<anamorphic>FALSE</anamorphic>
										<file id="file-45">
											<name>CRAFTY_L3RD_01_JL_V03/CRAFTY_L3RD_01_JL_V03.aep</name>
											<pathurl>file://localhost/Volumes/ATM%20JR%202TB/Master%20Assets/CRAFTY_L3RD_01_JL_V03%20folder/CRAFTY_L3RD_01_JL_V03.aep</pathurl>
											<rate>
												<timebase>30</timebase>
												<ntsc>FALSE</ntsc>
											</rate>
											<duration>5701</duration>
											<timecode>
												<rate>
													<timebase>30</timebase>
													<ntsc>FALSE</ntsc>
												</rate>
												<string>00:00:00:00</string>
												<frame>0</frame>
												<displayformat>NDF</displayformat>
											</timecode>
											<media>
												<video>
													<samplecharacteristics>
														<rate>
															<timebase>30</timebase>
															<ntsc>FALSE</ntsc>
														</rate>
														<width>1920</width>
														<height>1080</height>
														<anamorphic>FALSE</anamorphic>
														<pixelaspectratio>square</pixelaspectratio>
														<fielddominance>lower</fielddominance>
													</samplecharacteristics>
												</video>
											</media>
										</file>
										<logginginfo>
											<description></description>
											<scene></scene>
											<shottake></shottake>
											<lognote></lognote>
											<good></good>
											<originalvideofilename></originalvideofilename>
											<originalaudiofilename></originalaudiofilename>
										</logginginfo>
										<colorinfo>
											<lut></lut>
											<lut1></lut1>
											<asc_sop></asc_sop>
											<asc_sat></asc_sat>
											<lut2></lut2>
										</colorinfo>
										<labels>
											<label2>Rose</label2>
										</labels>
									</clipitem>
									<enabled>TRUE</enabled>
									<locked>FALSE</locked>
								</track>
								<track TL.SQTrackShy="0" TL.SQTrackExpandedHeight="25" TL.SQTrackExpanded="0" MZ.TrackTargeted="0">
									<clipitem id="clipitem-163">
										<masterclipid>masterclip-9</masterclipid>
										<name>ATM_logo_channels_right-2 (3).png</name>
										<enabled>TRUE</enabled>
										<duration>1294705</duration>
										<rate>
											<timebase>30</timebase>
											<ntsc>TRUE</ntsc>
										</rate>
										<start>0</start>
										<end>5168</end>
										<in>107892</in>
										<out>113060</out>
										<pproTicksIn>914456685542400</pproTicksIn>
										<pproTicksOut>958258933632000</pproTicksOut>
										<alphatype>straight</alphatype>
										<file id="file-7"/>
										<logginginfo>
											<description></description>
											<scene></scene>
											<shottake></shottake>
											<lognote></lognote>
											<good></good>
											<originalvideofilename></originalvideofilename>
											<originalaudiofilename></originalaudiofilename>
										</logginginfo>
										<colorinfo>
											<lut></lut>
											<lut1></lut1>
											<asc_sop></asc_sop>
											<asc_sat></asc_sat>
											<lut2></lut2>
										</colorinfo>
										<labels>
											<label2>Lavender</label2>
										</labels>
									</clipitem>
									<enabled>TRUE</enabled>
									<locked>FALSE</locked>
								</track>
								<track TL.SQTrackShy="0" TL.SQTrackExpandedHeight="25" TL.SQTrackExpanded="0" MZ.TrackTargeted="0">
									<clipitem id="clipitem-164">
										<masterclipid>masterclip-11</masterclipid>
										<name>CRAFTY_TRAN02_JL_V01.mov</name>
										<enabled>TRUE</enabled>
										<duration>120</duration>
										<rate>
											<timebase>30</timebase>
											<ntsc>TRUE</ntsc>
										</rate>
										<start>2530</start>
										<end>2650</end>
										<in>0</in>
										<out>120</out>
										<pproTicksIn>0</pproTicksIn>
										<pproTicksOut>1017080064000</pproTicksOut>
										<alphatype>none</alphatype>
										<file id="file-9"/>
										<link>
											<linkclipref>clipitem-164</linkclipref>
											<mediatype>video</mediatype>
											<trackindex>4</trackindex>
											<clipindex>1</clipindex>
										</link>
										<link>
											<linkclipref>clipitem-166</linkclipref>
											<mediatype>audio</mediatype>
											<trackindex>1</trackindex>
											<clipindex>1</clipindex>
											<groupindex>1</groupindex>
										</link>
										<link>
											<linkclipref>clipitem-168</linkclipref>
											<mediatype>audio</mediatype>
											<trackindex>2</trackindex>
											<clipindex>1</clipindex>
											<groupindex>1</groupindex>
										</link>
										<logginginfo>
											<description></description>
											<scene></scene>
											<shottake></shottake>
											<lognote></lognote>
											<good></good>
											<originalvideofilename></originalvideofilename>
											<originalaudiofilename></originalaudiofilename>
										</logginginfo>
										<colorinfo>
											<lut></lut>
											<lut1></lut1>
											<asc_sop></asc_sop>
											<asc_sat></asc_sat>
											<lut2></lut2>
										</colorinfo>
										<labels>
											<label2>Iris</label2>
										</labels>
									</clipitem>
									<clipitem id="clipitem-165">
										<masterclipid>masterclip-22</masterclipid>
										<name>CRAFTY_TRAN03_JL_V01.mov</name>
										<enabled>TRUE</enabled>
										<duration>120</duration>
										<rate>
											<timebase>30</timebase>
											<ntsc>TRUE</ntsc>
										</rate>
										<start>5152</start>
										<end>5272</end>
										<in>0</in>
										<out>120</out>
										<pproTicksIn>0</pproTicksIn>
										<pproTicksOut>1017080064000</pproTicksOut>
										<alphatype>none</alphatype>
										<file id="file-18"/>
										<link>
											<linkclipref>clipitem-165</linkclipref>
											<mediatype>video</mediatype>
											<trackindex>4</trackindex>
											<clipindex>2</clipindex>
										</link>
										<link>
											<linkclipref>clipitem-167</linkclipref>
											<mediatype>audio</mediatype>
											<trackindex>1</trackindex>
											<clipindex>2</clipindex>
											<groupindex>1</groupindex>
										</link>
										<link>
											<linkclipref>clipitem-169</linkclipref>
											<mediatype>audio</mediatype>
											<trackindex>2</trackindex>
											<clipindex>2</clipindex>
											<groupindex>1</groupindex>
										</link>
										<logginginfo>
											<description></description>
											<scene></scene>
											<shottake></shottake>
											<lognote></lognote>
											<good></good>
											<originalvideofilename></originalvideofilename>
											<originalaudiofilename></originalaudiofilename>
										</logginginfo>
										<colorinfo>
											<lut></lut>
											<lut1></lut1>
											<asc_sop></asc_sop>
											<asc_sat></asc_sat>
											<lut2></lut2>
										</colorinfo>
										<labels>
											<label2>Iris</label2>
										</labels>
									</clipitem>
									<enabled>TRUE</enabled>
									<locked>FALSE</locked>
								</track>
								<track TL.SQTrackShy="0" TL.SQTrackExpandedHeight="25" TL.SQTrackExpanded="0" MZ.TrackTargeted="0">
									<enabled>TRUE</enabled>
									<locked>FALSE</locked>
								</track>
							</video>
							<audio>
								<numOutputChannels>2</numOutputChannels>
								<format>
									<samplecharacteristics>
										<depth>16</depth>
										<samplerate>48000</samplerate>
									</samplecharacteristics>
								</format>
								<outputs>
									<group>
										<index>1</index>
										<numchannels>1</numchannels>
										<downmix>0</downmix>
										<channel>
											<index>1</index>
										</channel>
									</group>
									<group>
										<index>2</index>
										<numchannels>1</numchannels>
										<downmix>0</downmix>
										<channel>
											<index>2</index>
										</channel>
									</group>
								</outputs>
								<track TL.SQTrackAudioKeyframeStyle="0" TL.SQTrackShy="0" TL.SQTrackExpandedHeight="25" TL.SQTrackExpanded="0" MZ.TrackTargeted="1" PannerCurrentValue="0.5" PannerIsInverted="true" PannerStartKeyframe="-91445760000000000,0.5,0,0,0,0,0,0" PannerName="Balance" currentExplodedTrackIndex="0" totalExplodedTrackCount="2" premiereTrackType="Stereo">
									<clipitem id="clipitem-166" premiereChannelType="stereo">
										<masterclipid>masterclip-11</masterclipid>
										<name>CRAFTY_TRAN02_JL_V01.mov</name>
										<enabled>TRUE</enabled>
										<duration>120</duration>
										<rate>
											<timebase>30</timebase>
											<ntsc>TRUE</ntsc>
										</rate>
										<start>2530</start>
										<end>2650</end>
										<in>0</in>
										<out>120</out>
										<pproTicksIn>0</pproTicksIn>
										<pproTicksOut>1017080064000</pproTicksOut>
										<file id="file-9"/>
										<sourcetrack>
											<mediatype>audio</mediatype>
											<trackindex>1</trackindex>
										</sourcetrack>
										<link>
											<linkclipref>clipitem-164</linkclipref>
											<mediatype>video</mediatype>
											<trackindex>4</trackindex>
											<clipindex>1</clipindex>
										</link>
										<link>
											<linkclipref>clipitem-166</linkclipref>
											<mediatype>audio</mediatype>
											<trackindex>1</trackindex>
											<clipindex>1</clipindex>
											<groupindex>1</groupindex>
										</link>
										<link>
											<linkclipref>clipitem-168</linkclipref>
											<mediatype>audio</mediatype>
											<trackindex>2</trackindex>
											<clipindex>1</clipindex>
											<groupindex>1</groupindex>
										</link>
										<logginginfo>
											<description></description>
											<scene></scene>
											<shottake></shottake>
											<lognote></lognote>
											<good></good>
											<originalvideofilename></originalvideofilename>
											<originalaudiofilename></originalaudiofilename>
										</logginginfo>
										<colorinfo>
											<lut></lut>
											<lut1></lut1>
											<asc_sop></asc_sop>
											<asc_sat></asc_sat>
											<lut2></lut2>
										</colorinfo>
										<labels>
											<label2>Iris</label2>
										</labels>
									</clipitem>
									<clipitem id="clipitem-167" premiereChannelType="stereo">
										<masterclipid>masterclip-22</masterclipid>
										<name>CRAFTY_TRAN03_JL_V01.mov</name>
										<enabled>TRUE</enabled>
										<duration>120</duration>
										<rate>
											<timebase>30</timebase>
											<ntsc>TRUE</ntsc>
										</rate>
										<start>5152</start>
										<end>5272</end>
										<in>0</in>
										<out>120</out>
										<pproTicksIn>0</pproTicksIn>
										<pproTicksOut>1017080064000</pproTicksOut>
										<file id="file-18"/>
										<sourcetrack>
											<mediatype>audio</mediatype>
											<trackindex>1</trackindex>
										</sourcetrack>
										<link>
											<linkclipref>clipitem-165</linkclipref>
											<mediatype>video</mediatype>
											<trackindex>4</trackindex>
											<clipindex>2</clipindex>
										</link>
										<link>
											<linkclipref>clipitem-167</linkclipref>
											<mediatype>audio</mediatype>
											<trackindex>1</trackindex>
											<clipindex>2</clipindex>
											<groupindex>1</groupindex>
										</link>
										<link>
											<linkclipref>clipitem-169</linkclipref>
											<mediatype>audio</mediatype>
											<trackindex>2</trackindex>
											<clipindex>2</clipindex>
											<groupindex>1</groupindex>
										</link>
										<logginginfo>
											<description></description>
											<scene></scene>
											<shottake></shottake>
											<lognote></lognote>
											<good></good>
											<originalvideofilename></originalvideofilename>
											<originalaudiofilename></originalaudiofilename>
										</logginginfo>
										<colorinfo>
											<lut></lut>
											<lut1></lut1>
											<asc_sop></asc_sop>
											<asc_sat></asc_sat>
											<lut2></lut2>
										</colorinfo>
										<labels>
											<label2>Iris</label2>
										</labels>
									</clipitem>
									<enabled>TRUE</enabled>
									<locked>FALSE</locked>
									<outputchannelindex>1</outputchannelindex>
								</track>
								<track TL.SQTrackAudioKeyframeStyle="0" TL.SQTrackShy="0" TL.SQTrackExpandedHeight="25" TL.SQTrackExpanded="0" MZ.TrackTargeted="1" PannerCurrentValue="0.5" PannerIsInverted="true" PannerStartKeyframe="-91445760000000000,0.5,0,0,0,0,0,0" PannerName="Balance" currentExplodedTrackIndex="1" totalExplodedTrackCount="2" premiereTrackType="Stereo">
									<clipitem id="clipitem-168" premiereChannelType="stereo">
										<masterclipid>masterclip-11</masterclipid>
										<name>CRAFTY_TRAN02_JL_V01.mov</name>
										<enabled>TRUE</enabled>
										<duration>120</duration>
										<rate>
											<timebase>30</timebase>
											<ntsc>TRUE</ntsc>
										</rate>
										<start>2530</start>
										<end>2650</end>
										<in>0</in>
										<out>120</out>
										<pproTicksIn>0</pproTicksIn>
										<pproTicksOut>1017080064000</pproTicksOut>
										<file id="file-9"/>
										<sourcetrack>
											<mediatype>audio</mediatype>
											<trackindex>2</trackindex>
										</sourcetrack>
										<link>
											<linkclipref>clipitem-164</linkclipref>
											<mediatype>video</mediatype>
											<trackindex>4</trackindex>
											<clipindex>1</clipindex>
										</link>
										<link>
											<linkclipref>clipitem-166</linkclipref>
											<mediatype>audio</mediatype>
											<trackindex>1</trackindex>
											<clipindex>1</clipindex>
											<groupindex>1</groupindex>
										</link>
										<link>
											<linkclipref>clipitem-168</linkclipref>
											<mediatype>audio</mediatype>
											<trackindex>2</trackindex>
											<clipindex>1</clipindex>
											<groupindex>1</groupindex>
										</link>
										<logginginfo>
											<description></description>
											<scene></scene>
											<shottake></shottake>
											<lognote></lognote>
											<good></good>
											<originalvideofilename></originalvideofilename>
											<originalaudiofilename></originalaudiofilename>
										</logginginfo>
										<colorinfo>
											<lut></lut>
											<lut1></lut1>
											<asc_sop></asc_sop>
											<asc_sat></asc_sat>
											<lut2></lut2>
										</colorinfo>
										<labels>
											<label2>Iris</label2>
										</labels>
									</clipitem>
									<clipitem id="clipitem-169" premiereChannelType="stereo">
										<masterclipid>masterclip-22</masterclipid>
										<name>CRAFTY_TRAN03_JL_V01.mov</name>
										<enabled>TRUE</enabled>
										<duration>120</duration>
										<rate>
											<timebase>30</timebase>
											<ntsc>TRUE</ntsc>
										</rate>
										<start>5152</start>
										<end>5272</end>
										<in>0</in>
										<out>120</out>
										<pproTicksIn>0</pproTicksIn>
										<pproTicksOut>1017080064000</pproTicksOut>
										<file id="file-18"/>
										<sourcetrack>
											<mediatype>audio</mediatype>
											<trackindex>2</trackindex>
										</sourcetrack>
										<link>
											<linkclipref>clipitem-165</linkclipref>
											<mediatype>video</mediatype>
											<trackindex>4</trackindex>
											<clipindex>2</clipindex>
										</link>
										<link>
											<linkclipref>clipitem-167</linkclipref>
											<mediatype>audio</mediatype>
											<trackindex>1</trackindex>
											<clipindex>2</clipindex>
											<groupindex>1</groupindex>
										</link>
										<link>
											<linkclipref>clipitem-169</linkclipref>
											<mediatype>audio</mediatype>
											<trackindex>2</trackindex>
											<clipindex>2</clipindex>
											<groupindex>1</groupindex>
										</link>
										<logginginfo>
											<description></description>
											<scene></scene>
											<shottake></shottake>
											<lognote></lognote>
											<good></good>
											<originalvideofilename></originalvideofilename>
											<originalaudiofilename></originalaudiofilename>
										</logginginfo>
										<colorinfo>
											<lut></lut>
											<lut1></lut1>
											<asc_sop></asc_sop>
											<asc_sat></asc_sat>
											<lut2></lut2>
										</colorinfo>
										<labels>
											<label2>Iris</label2>
										</labels>
									</clipitem>
									<enabled>TRUE</enabled>
									<locked>FALSE</locked>
									<outputchannelindex>2</outputchannelindex>
								</track>
								<track TL.SQTrackAudioKeyframeStyle="0" TL.SQTrackShy="0" TL.SQTrackExpandedHeight="25" TL.SQTrackExpanded="0" MZ.TrackTargeted="1" PannerCurrentValue="0.5" PannerIsInverted="true" PannerStartKeyframe="-91445760000000000,0.5,0,0,0,0,0,0" PannerName="Balance" currentExplodedTrackIndex="0" totalExplodedTrackCount="2" premiereTrackType="Stereo">
									<clipitem id="clipitem-170" premiereChannelType="stereo">
										<masterclipid>masterclip-56</masterclipid>
										<name>ES_Mystique - Dusty Decks.wav</name>
										<enabled>TRUE</enabled>
										<duration>4513</duration>
										<rate>
											<timebase>30</timebase>
											<ntsc>TRUE</ntsc>
										</rate>
										<start>0</start>
										<end>-1</end>
										<in>0</in>
										<out>2530</out>
										<pproTicksIn>0</pproTicksIn>
										<pproTicksOut>21443438016000</pproTicksOut>
										<file id="file-46">
											<name>ES_Mystique - Dusty Decks.wav</name>
											<pathurl>file://localhost/Volumes/CONTENT/VOD%20CONTENT%20ARCHIVE/O&amp;O%20Archive%202023/CRAFTY/03_March/Crafty_3-20-2023/5_Music/ES_Mystique%20-%20Dusty%20Decks.wav</pathurl>
											<rate>
												<timebase>30</timebase>
												<ntsc>TRUE</ntsc>
											</rate>
											<duration>4513</duration>
											<timecode>
												<rate>
													<timebase>30</timebase>
													<ntsc>TRUE</ntsc>
												</rate>
												<string>10;55;42;00</string>
												<frame>1179080</frame>
												<displayformat>DF</displayformat>
											</timecode>
											<media>
												<audio>
													<samplecharacteristics>
														<depth>16</depth>
														<samplerate>48000</samplerate>
													</samplecharacteristics>
													<channelcount>2</channelcount>
												</audio>
											</media>
										</file>
										<sourcetrack>
											<mediatype>audio</mediatype>
											<trackindex>1</trackindex>
										</sourcetrack>
										<filter>
											<effect>
												<name>Gain</name>
												<effectid>{61756678, 4761696e, 4b657947}</effectid>
												<effecttype>filter</effecttype>
												<mediatype>audio</mediatype>
												<parameter authoringApp="PremierePro">
													<parameterid>Gain(dB)</parameterid>
													<name>Gain(dB)</name>
													<valuemin>-96</valuemin>
													<valuemax>96</valuemax>
													<value>-6</value>
												</parameter>
											</effect>
										</filter>
										<link>
											<linkclipref>clipitem-170</linkclipref>
											<mediatype>audio</mediatype>
											<trackindex>3</trackindex>
											<clipindex>1</clipindex>
											<groupindex>1</groupindex>
										</link>
										<link>
											<linkclipref>clipitem-172</linkclipref>
											<mediatype>audio</mediatype>
											<trackindex>4</trackindex>
											<clipindex>1</clipindex>
											<groupindex>1</groupindex>
										</link>
										<logginginfo>
											<description></description>
											<scene></scene>
											<shottake></shottake>
											<lognote></lognote>
											<good></good>
											<originalvideofilename></originalvideofilename>
											<originalaudiofilename></originalaudiofilename>
										</logginginfo>
										<colorinfo>
											<lut></lut>
											<lut1></lut1>
											<asc_sop></asc_sop>
											<asc_sat></asc_sat>
											<lut2></lut2>
										</colorinfo>
										<labels>
											<label2>Caribbean</label2>
										</labels>
									</clipitem>
									<transitionitem>
										<start>2410</start>
										<end>2530</end>
										<pproTicksIn>20426357952000</pproTicksIn>
										<pproTicksOut>21443438016000</pproTicksOut>
										<alignment>end-black</alignment>
										<cutPointTicks>1017080064000</cutPointTicks>
										<rate>
											<timebase>30</timebase>
											<ntsc>TRUE</ntsc>
										</rate>
										<effect>
											<name>Cross Fade (+3dB)</name>
											<effectid>KGAudioTransCrossFade3dB</effectid>
											<effecttype>transition</effecttype>
											<mediatype>audio</mediatype>
											<wipecode>0</wipecode>
											<wipeaccuracy>100</wipeaccuracy>
											<startratio>0</startratio>
											<endratio>1</endratio>
											<reverse>FALSE</reverse>
										</effect>
									</transitionitem>
									<clipitem id="clipitem-171" premiereChannelType="stereo">
										<masterclipid>masterclip-57</masterclipid>
										<name>ES_No Ice - Dylan Sitts.wav</name>
										<enabled>TRUE</enabled>
										<duration>4128</duration>
										<rate>
											<timebase>30</timebase>
											<ntsc>TRUE</ntsc>
										</rate>
										<start>2650</start>
										<end>-1</end>
										<in>0</in>
										<out>2502</out>
										<pproTicksIn>0</pproTicksIn>
										<pproTicksOut>21206119334400</pproTicksOut>
										<file id="file-47">
											<name>ES_No Ice - Dylan Sitts.wav</name>
											<pathurl>file://localhost/Volumes/CONTENT/VOD%20CONTENT%20ARCHIVE/O&amp;O%20Archive%202023/CRAFTY/03_March/Crafty_3-20-2023/5_Music/ES_No%20Ice%20-%20Dylan%20Sitts.wav</pathurl>
											<rate>
												<timebase>30</timebase>
												<ntsc>TRUE</ntsc>
											</rate>
											<duration>4128</duration>
											<timecode>
												<rate>
													<timebase>30</timebase>
													<ntsc>TRUE</ntsc>
												</rate>
												<string>02;40;13;29</string>
												<frame>288131</frame>
												<displayformat>DF</displayformat>
											</timecode>
											<media>
												<audio>
													<samplecharacteristics>
														<depth>16</depth>
														<samplerate>48000</samplerate>
													</samplecharacteristics>
													<channelcount>2</channelcount>
												</audio>
											</media>
										</file>
										<sourcetrack>
											<mediatype>audio</mediatype>
											<trackindex>1</trackindex>
										</sourcetrack>
										<filter>
											<effect>
												<name>Gain</name>
												<effectid>{61756678, 4761696e, 4b657947}</effectid>
												<effecttype>filter</effecttype>
												<mediatype>audio</mediatype>
												<parameter authoringApp="PremierePro">
													<parameterid>Gain(dB)</parameterid>
													<name>Gain(dB)</name>
													<valuemin>-96</valuemin>
													<valuemax>96</valuemax>
													<value>-6</value>
												</parameter>
											</effect>
										</filter>
										<link>
											<linkclipref>clipitem-171</linkclipref>
											<mediatype>audio</mediatype>
											<trackindex>3</trackindex>
											<clipindex>3</clipindex>
											<groupindex>1</groupindex>
										</link>
										<link>
											<linkclipref>clipitem-173</linkclipref>
											<mediatype>audio</mediatype>
											<trackindex>4</trackindex>
											<clipindex>3</clipindex>
											<groupindex>1</groupindex>
										</link>
										<logginginfo>
											<description></description>
											<scene></scene>
											<shottake></shottake>
											<lognote></lognote>
											<good></good>
											<originalvideofilename></originalvideofilename>
											<originalaudiofilename></originalaudiofilename>
										</logginginfo>
										<colorinfo>
											<lut></lut>
											<lut1></lut1>
											<asc_sop></asc_sop>
											<asc_sat></asc_sat>
											<lut2></lut2>
										</colorinfo>
										<labels>
											<label2>Caribbean</label2>
										</labels>
									</clipitem>
									<transitionitem>
										<start>5032</start>
										<end>5152</end>
										<pproTicksIn>42649556292000</pproTicksIn>
										<pproTicksOut>43666637414400</pproTicksOut>
										<alignment>end-black</alignment>
										<cutPointTicks>1017081122400</cutPointTicks>
										<rate>
											<timebase>30</timebase>
											<ntsc>TRUE</ntsc>
										</rate>
										<effect>
											<name>Cross Fade (+3dB)</name>
											<effectid>KGAudioTransCrossFade3dB</effectid>
											<effecttype>transition</effecttype>
											<mediatype>audio</mediatype>
											<wipecode>0</wipecode>
											<wipeaccuracy>100</wipeaccuracy>
											<startratio>0</startratio>
											<endratio>1</endratio>
											<reverse>FALSE</reverse>
										</effect>
									</transitionitem>
									<enabled>TRUE</enabled>
									<locked>FALSE</locked>
									<outputchannelindex>1</outputchannelindex>
								</track>
								<track TL.SQTrackAudioKeyframeStyle="0" TL.SQTrackShy="0" TL.SQTrackExpandedHeight="25" TL.SQTrackExpanded="0" MZ.TrackTargeted="1" PannerCurrentValue="0.5" PannerIsInverted="true" PannerStartKeyframe="-91445760000000000,0.5,0,0,0,0,0,0" PannerName="Balance" currentExplodedTrackIndex="1" totalExplodedTrackCount="2" premiereTrackType="Stereo">
									<clipitem id="clipitem-172" premiereChannelType="stereo">
										<masterclipid>masterclip-56</masterclipid>
										<name>ES_Mystique - Dusty Decks.wav</name>
										<enabled>TRUE</enabled>
										<duration>4513</duration>
										<rate>
											<timebase>30</timebase>
											<ntsc>TRUE</ntsc>
										</rate>
										<start>0</start>
										<end>-1</end>
										<in>0</in>
										<out>2530</out>
										<pproTicksIn>0</pproTicksIn>
										<pproTicksOut>21443438016000</pproTicksOut>
										<file id="file-46"/>
										<sourcetrack>
											<mediatype>audio</mediatype>
											<trackindex>2</trackindex>
										</sourcetrack>
										<filter>
											<effect>
												<name>Gain</name>
												<effectid>{61756678, 4761696e, 4b657947}</effectid>
												<effecttype>filter</effecttype>
												<mediatype>audio</mediatype>
												<parameter authoringApp="PremierePro">
													<parameterid>Gain(dB)</parameterid>
													<name>Gain(dB)</name>
													<valuemin>-96</valuemin>
													<valuemax>96</valuemax>
													<value>-6</value>
												</parameter>
											</effect>
										</filter>
										<link>
											<linkclipref>clipitem-170</linkclipref>
											<mediatype>audio</mediatype>
											<trackindex>3</trackindex>
											<clipindex>1</clipindex>
											<groupindex>1</groupindex>
										</link>
										<link>
											<linkclipref>clipitem-172</linkclipref>
											<mediatype>audio</mediatype>
											<trackindex>4</trackindex>
											<clipindex>1</clipindex>
											<groupindex>1</groupindex>
										</link>
										<logginginfo>
											<description></description>
											<scene></scene>
											<shottake></shottake>
											<lognote></lognote>
											<good></good>
											<originalvideofilename></originalvideofilename>
											<originalaudiofilename></originalaudiofilename>
										</logginginfo>
										<colorinfo>
											<lut></lut>
											<lut1></lut1>
											<asc_sop></asc_sop>
											<asc_sat></asc_sat>
											<lut2></lut2>
										</colorinfo>
										<labels>
											<label2>Caribbean</label2>
										</labels>
									</clipitem>
									<transitionitem>
										<start>2410</start>
										<end>2530</end>
										<pproTicksIn>20426357952000</pproTicksIn>
										<pproTicksOut>21443438016000</pproTicksOut>
										<alignment>end-black</alignment>
										<cutPointTicks>1017080064000</cutPointTicks>
										<rate>
											<timebase>30</timebase>
											<ntsc>TRUE</ntsc>
										</rate>
										<effect>
											<name>Cross Fade (+3dB)</name>
											<effectid>KGAudioTransCrossFade3dB</effectid>
											<effecttype>transition</effecttype>
											<mediatype>audio</mediatype>
											<wipecode>0</wipecode>
											<wipeaccuracy>100</wipeaccuracy>
											<startratio>0</startratio>
											<endratio>1</endratio>
											<reverse>FALSE</reverse>
										</effect>
									</transitionitem>
									<clipitem id="clipitem-173" premiereChannelType="stereo">
										<masterclipid>masterclip-57</masterclipid>
										<name>ES_No Ice - Dylan Sitts.wav</name>
										<enabled>TRUE</enabled>
										<duration>4128</duration>
										<rate>
											<timebase>30</timebase>
											<ntsc>TRUE</ntsc>
										</rate>
										<start>2650</start>
										<end>-1</end>
										<in>0</in>
										<out>2502</out>
										<pproTicksIn>0</pproTicksIn>
										<pproTicksOut>21206119334400</pproTicksOut>
										<file id="file-47"/>
										<sourcetrack>
											<mediatype>audio</mediatype>
											<trackindex>2</trackindex>
										</sourcetrack>
										<filter>
											<effect>
												<name>Gain</name>
												<effectid>{61756678, 4761696e, 4b657947}</effectid>
												<effecttype>filter</effecttype>
												<mediatype>audio</mediatype>
												<parameter authoringApp="PremierePro">
													<parameterid>Gain(dB)</parameterid>
													<name>Gain(dB)</name>
													<valuemin>-96</valuemin>
													<valuemax>96</valuemax>
													<value>-6</value>
												</parameter>
											</effect>
										</filter>
										<link>
											<linkclipref>clipitem-171</linkclipref>
											<mediatype>audio</mediatype>
											<trackindex>3</trackindex>
											<clipindex>3</clipindex>
											<groupindex>1</groupindex>
										</link>
										<link>
											<linkclipref>clipitem-173</linkclipref>
											<mediatype>audio</mediatype>
											<trackindex>4</trackindex>
											<clipindex>3</clipindex>
											<groupindex>1</groupindex>
										</link>
										<logginginfo>
											<description></description>
											<scene></scene>
											<shottake></shottake>
											<lognote></lognote>
											<good></good>
											<originalvideofilename></originalvideofilename>
											<originalaudiofilename></originalaudiofilename>
										</logginginfo>
										<colorinfo>
											<lut></lut>
											<lut1></lut1>
											<asc_sop></asc_sop>
											<asc_sat></asc_sat>
											<lut2></lut2>
										</colorinfo>
										<labels>
											<label2>Caribbean</label2>
										</labels>
									</clipitem>
									<transitionitem>
										<start>5032</start>
										<end>5152</end>
										<pproTicksIn>42649556292000</pproTicksIn>
										<pproTicksOut>43666637414400</pproTicksOut>
										<alignment>end-black</alignment>
										<cutPointTicks>1017081122400</cutPointTicks>
										<rate>
											<timebase>30</timebase>
											<ntsc>TRUE</ntsc>
										</rate>
										<effect>
											<name>Cross Fade (+3dB)</name>
											<effectid>KGAudioTransCrossFade3dB</effectid>
											<effecttype>transition</effecttype>
											<mediatype>audio</mediatype>
											<wipecode>0</wipecode>
											<wipeaccuracy>100</wipeaccuracy>
											<startratio>0</startratio>
											<endratio>1</endratio>
											<reverse>FALSE</reverse>
										</effect>
									</transitionitem>
									<enabled>TRUE</enabled>
									<locked>FALSE</locked>
									<outputchannelindex>2</outputchannelindex>
								</track>
								<track TL.SQTrackAudioKeyframeStyle="0" TL.SQTrackShy="0" TL.SQTrackExpandedHeight="25" TL.SQTrackExpanded="0" MZ.TrackTargeted="1" PannerCurrentValue="0.5" PannerIsInverted="true" PannerStartKeyframe="-91445760000000000,0.5,0,0,0,0,0,0" PannerName="Balance" currentExplodedTrackIndex="0" totalExplodedTrackCount="2" premiereTrackType="Stereo">
									<enabled>TRUE</enabled>
									<locked>FALSE</locked>
									<outputchannelindex>1</outputchannelindex>
								</track>
								<track TL.SQTrackAudioKeyframeStyle="0" TL.SQTrackShy="0" TL.SQTrackExpandedHeight="25" TL.SQTrackExpanded="0" MZ.TrackTargeted="1" PannerCurrentValue="0.5" PannerIsInverted="true" PannerStartKeyframe="-91445760000000000,0.5,0,0,0,0,0,0" PannerName="Balance" currentExplodedTrackIndex="1" totalExplodedTrackCount="2" premiereTrackType="Stereo">
									<enabled>TRUE</enabled>
									<locked>FALSE</locked>
									<outputchannelindex>2</outputchannelindex>
								</track>
								<track TL.SQTrackAudioKeyframeStyle="0" TL.SQTrackShy="0" TL.SQTrackExpandedHeight="25" TL.SQTrackExpanded="0" MZ.TrackTargeted="0" PannerCurrentValue="0.5" PannerIsInverted="true" PannerStartKeyframe="-91445760000000000,0.5,0,0,0,0,0,0" PannerName="Balance" currentExplodedTrackIndex="0" totalExplodedTrackCount="2" premiereTrackType="Stereo">
									<enabled>TRUE</enabled>
									<locked>FALSE</locked>
									<outputchannelindex>1</outputchannelindex>
								</track>
								<track TL.SQTrackAudioKeyframeStyle="0" TL.SQTrackShy="0" TL.SQTrackExpandedHeight="25" TL.SQTrackExpanded="0" MZ.TrackTargeted="0" PannerCurrentValue="0.5" PannerIsInverted="true" PannerStartKeyframe="-91445760000000000,0.5,0,0,0,0,0,0" PannerName="Balance" currentExplodedTrackIndex="1" totalExplodedTrackCount="2" premiereTrackType="Stereo">
									<enabled>TRUE</enabled>
									<locked>FALSE</locked>
									<outputchannelindex>2</outputchannelindex>
								</track>
							</audio>
						</media>
						<timecode>
							<rate>
								<timebase>30</timebase>
								<ntsc>TRUE</ntsc>
							</rate>
							<string>00;00;00;00</string>
							<frame>0</frame>
							<displayformat>DF</displayformat>
						</timecode>
						<labels>
							<label2>Forest</label2>
						</labels>
						<logginginfo>
							<description></description>
							<scene></scene>
							<shottake></shottake>
							<lognote></lognote>
							<good></good>
							<originalvideofilename></originalvideofilename>
							<originalaudiofilename></originalaudiofilename>
						</logginginfo>
					</sequence>
					<sequence id="sequence-16" TL.SQAudioVisibleBase="0" TL.SQVideoVisibleBase="0" TL.SQVisibleBaseTime="0" TL.SQAVDividerPosition="0.5" TL.SQHideShyTracks="0" TL.SQHeaderWidth="236" TL.SQDataTrackViewControlState="0" Monitor.ProgramZoomOut="47684103667200" Monitor.ProgramZoomIn="0" TL.SQTimePerPixel="0.27621763635709962" MZ.EditLine="22596128755200" MZ.Sequence.PreviewFrameSizeHeight="1080" MZ.Sequence.PreviewFrameSizeWidth="1920" MZ.Sequence.AudioTimeDisplayFormat="200" MZ.Sequence.PreviewRenderingClassID="1061109567" MZ.Sequence.PreviewRenderingPresetCodec="1634755443" MZ.Sequence.PreviewRenderingPresetPath="EncoderPresets/SequencePreview/35d109db-457b-43c1-9452-9cb7be9f121c/QuickTime.epr" MZ.Sequence.PreviewUseMaxRenderQuality="false" MZ.Sequence.PreviewUseMaxBitDepth="false" MZ.Sequence.EditingModeGUID="35d109db-457b-43c1-9452-9cb7be9f121c" MZ.Sequence.VideoTimeDisplayFormat="102" MZ.WorkOutPoint="15239249625600" MZ.WorkInPoint="0" explodedTracks="true">
						<uuid>0c1f7cce-3b98-4b8d-8f90-0aee557d3268</uuid>
						<duration>5626</duration>
						<rate>
							<timebase>30</timebase>
							<ntsc>TRUE</ntsc>
						</rate>
						<name>ATM_CRAFTY_186</name>
						<media>
							<video>
								<format>
									<samplecharacteristics>
										<rate>
											<timebase>30</timebase>
											<ntsc>TRUE</ntsc>
										</rate>
										<codec>
											<name>Apple ProRes 422</name>
											<appspecificdata>
												<appname>Final Cut Pro</appname>
												<appmanufacturer>Apple Inc.</appmanufacturer>
												<appversion>7.0</appversion>
												<data>
													<qtcodec>
														<codecname>Apple ProRes 422</codecname>
														<codectypename>Apple ProRes 422</codectypename>
														<codectypecode>apcn</codectypecode>
														<codecvendorcode>appl</codecvendorcode>
														<spatialquality>1024</spatialquality>
														<temporalquality>0</temporalquality>
														<keyframerate>0</keyframerate>
														<datarate>0</datarate>
													</qtcodec>
												</data>
											</appspecificdata>
										</codec>
										<width>1920</width>
										<height>1080</height>
										<anamorphic>FALSE</anamorphic>
										<pixelaspectratio>square</pixelaspectratio>
										<fielddominance>none</fielddominance>
										<colordepth>24</colordepth>
									</samplecharacteristics>
								</format>
								<track TL.SQTrackShy="0" TL.SQTrackExpandedHeight="25" TL.SQTrackExpanded="0" MZ.TrackTargeted="1">
									<clipitem id="clipitem-174">
										<masterclipid>masterclip-58</masterclipid>
										<name>DIY_RISEANDSIGN_1.5</name>
										<enabled>TRUE</enabled>
										<duration>2833</duration>
										<rate>
											<timebase>30</timebase>
											<ntsc>TRUE</ntsc>
										</rate>
										<start>0</start>
										<end>2609</end>
										<in>0</in>
										<out>2609</out>
										<pproTicksIn>0</pproTicksIn>
										<pproTicksOut>22113015724800</pproTicksOut>
										<sequence id="sequence-17" TL.SQAudioVisibleBase="0" TL.SQVideoVisibleBase="0" TL.SQVisibleBaseTime="0" TL.SQAVDividerPosition="0.5" TL.SQHideShyTracks="0" TL.SQHeaderWidth="236" TL.SQDataTrackViewControlState="0" Monitor.ProgramZoomOut="22113015724800" Monitor.ProgramZoomIn="0" TL.SQTimePerPixel="0.1357627588090452" MZ.EditLine="533967033600" MZ.Sequence.PreviewFrameSizeHeight="1080" MZ.Sequence.PreviewFrameSizeWidth="1920" MZ.Sequence.AudioTimeDisplayFormat="200" MZ.Sequence.PreviewRenderingClassID="1061109567" MZ.Sequence.PreviewRenderingPresetCodec="1634755443" MZ.Sequence.PreviewRenderingPresetPath="EncoderPresets/SequencePreview/35d109db-457b-43c1-9452-9cb7be9f121c/QuickTime.epr" MZ.Sequence.PreviewUseMaxRenderQuality="false" MZ.Sequence.PreviewUseMaxBitDepth="false" MZ.Sequence.EditingModeGUID="35d109db-457b-43c1-9452-9cb7be9f121c" MZ.Sequence.VideoTimeDisplayFormat="102" MZ.WorkOutPoint="24011565177600" MZ.WorkInPoint="0">
											<duration>2609</duration>
											<rate>
												<timebase>30</timebase>
												<ntsc>TRUE</ntsc>
											</rate>
											<name>DIY_RISEANDSIGN_1.5</name>
											<media>
												<video>
													<format>
														<samplecharacteristics>
															<rate>
																<timebase>30</timebase>
																<ntsc>TRUE</ntsc>
															</rate>
															<codec>
																<name>Apple ProRes 422</name>
																<appspecificdata>
																	<appname>Final Cut Pro</appname>
																	<appmanufacturer>Apple Inc.</appmanufacturer>
																	<appversion>7.0</appversion>
																	<data>
																		<qtcodec>
																			<codecname>Apple ProRes 422</codecname>
																			<codectypename>Apple ProRes 422</codectypename>
																			<codectypecode>apcn</codectypecode>
																			<codecvendorcode>appl</codecvendorcode>
																			<spatialquality>1024</spatialquality>
																			<temporalquality>0</temporalquality>
																			<keyframerate>0</keyframerate>
																			<datarate>0</datarate>
																		</qtcodec>
																	</data>
																</appspecificdata>
															</codec>
															<width>1920</width>
															<height>1080</height>
															<anamorphic>FALSE</anamorphic>
															<pixelaspectratio>square</pixelaspectratio>
															<fielddominance>none</fielddominance>
															<colordepth>24</colordepth>
														</samplecharacteristics>
													</format>
													<track TL.SQTrackShy="0" TL.SQTrackExpandedHeight="25" TL.SQTrackExpanded="0" MZ.TrackTargeted="1">
														<clipitem id="clipitem-175">
															<masterclipid>masterclip-59</masterclipid>
															<name>(parul pawar)_WELCOME DOOR HANGER _ welcome craft ideas _ welcome wall hanging _ welcome board ideas_GoSJIJh9Ytw_YT.mp4</name>
															<enabled>TRUE</enabled>
															<duration>6430</duration>
															<rate>
																<timebase>30</timebase>
																<ntsc>TRUE</ntsc>
															</rate>
															<start>0</start>
															<end>24</end>
															<in>6120</in>
															<out>6144</out>
															<pproTicksIn>51871083264000</pproTicksIn>
															<pproTicksOut>52074499276800</pproTicksOut>
															<alphatype>none</alphatype>
															<pixelaspectratio>square</pixelaspectratio>
															<anamorphic>FALSE</anamorphic>
															<file id="file-48">
																<name>(parul pawar)_WELCOME DOOR HANGER _ welcome craft ideas _ welcome wall hanging _ welcome board ideas_GoSJIJh9Ytw_YT.mp4</name>
																<pathurl>file://localhost/Volumes/CONTENT/VOD%20CONTENT%20ARCHIVE/O&amp;O%20Archive%202023/CRAFTY/03_March/Crafty_3-20-2023/3_Raw%20Files/welcome%20sign/(parul%20pawar)_WELCOME%20DOOR%20HANGER%20_%20welcome%20craft%20ideas%20_%20welcome%20wall%20hanging%20_%20welcome%20board%20ideas_GoSJIJh9Ytw_YT.mp4</pathurl>
																<rate>
																	<timebase>25</timebase>
																	<ntsc>FALSE</ntsc>
																</rate>
																<duration>5364</duration>
																<timecode>
																	<rate>
																		<timebase>25</timebase>
																		<ntsc>FALSE</ntsc>
																	</rate>
																	<string>00:00:00:00</string>
																	<frame>0</frame>
																	<displayformat>NDF</displayformat>
																</timecode>
																<media>
																	<video>
																		<samplecharacteristics>
																			<rate>
																				<timebase>25</timebase>
																				<ntsc>FALSE</ntsc>
																			</rate>
																			<width>1920</width>
																			<height>1080</height>
																			<anamorphic>FALSE</anamorphic>
																			<pixelaspectratio>square</pixelaspectratio>
																			<fielddominance>none</fielddominance>
																		</samplecharacteristics>
																	</video>
																	<audio>
																		<samplecharacteristics>
																			<depth>16</depth>
																			<samplerate>44100</samplerate>
																		</samplecharacteristics>
																		<channelcount>2</channelcount>
																	</audio>
																</media>
															</file>
															<filter>
																<effect>
																	<name>Basic Motion</name>
																	<effectid>basic</effectid>
																	<effectcategory>motion</effectcategory>
																	<effecttype>motion</effecttype>
																	<mediatype>video</mediatype>
																	<pproBypass>false</pproBypass>
																	<parameter authoringApp="PremierePro">
																		<parameterid>scale</parameterid>
																		<name>Scale</name>
																		<valuemin>0</valuemin>
																		<valuemax>1000</valuemax>
																		<value>100</value>
																		<keyframe>
																			<when>6121</when>
																			<value>100</value>
																		</keyframe>
																		<keyframe>
																			<when>6144</when>
																			<value>105</value>
																		</keyframe>
																	</parameter>
																	<parameter authoringApp="PremierePro">
																		<parameterid>rotation</parameterid>
																		<name>Rotation</name>
																		<valuemin>-8640</valuemin>
																		<valuemax>8640</valuemax>
																		<value>0</value>
																	</parameter>
																	<parameter authoringApp="PremierePro">
																		<parameterid>center</parameterid>
																		<name>Center</name>
																		<value>
																			<horiz>0</horiz>
																			<vert>0</vert>
																		</value>
																	</parameter>
																	<parameter authoringApp="PremierePro">
																		<parameterid>centerOffset</parameterid>
																		<name>Anchor Point</name>
																		<value>
																			<horiz>0</horiz>
																			<vert>0</vert>
																		</value>
																	</parameter>
																	<parameter authoringApp="PremierePro">
																		<parameterid>antiflicker</parameterid>
																		<name>Anti-flicker Filter</name>
																		<valuemin>0.0</valuemin>
																		<valuemax>1.0</valuemax>
																		<value>0</value>
																	</parameter>
																</effect>
															</filter>
															<logginginfo>
																<description></description>
																<scene></scene>
																<shottake></shottake>
																<lognote>https://www.youtube.com/watch?v=GoSJIJh9Ytw</lognote>
																<good></good>
																<originalvideofilename></originalvideofilename>
																<originalaudiofilename></originalaudiofilename>
															</logginginfo>
															<colorinfo>
																<lut></lut>
																<lut1></lut1>
																<asc_sop></asc_sop>
																<asc_sat></asc_sat>
																<lut2></lut2>
															</colorinfo>
															<labels>
																<label2>Iris</label2>
															</labels>
														</clipitem>
														<clipitem id="clipitem-176">
															<masterclipid>masterclip-59</masterclipid>
															<name>(parul pawar)_WELCOME DOOR HANGER _ welcome craft ideas _ welcome wall hanging _ welcome board ideas_GoSJIJh9Ytw_YT.mp4</name>
															<enabled>TRUE</enabled>
															<duration>3892</duration>
															<rate>
																<timebase>30</timebase>
																<ntsc>TRUE</ntsc>
															</rate>
															<start>24</start>
															<end>130</end>
															<in>130</in>
															<out>235</out>
															<pproTicksIn>1810809576903</pproTicksIn>
															<pproTicksOut>3295001631692</pproTicksOut>
															<alphatype>none</alphatype>
															<file id="file-48"/>
															<filter>
																<effect>
																	<name>Time Remap</name>
																	<effectid>timeremap</effectid>
																	<effectcategory>motion</effectcategory>
																	<effecttype>motion</effecttype>
																	<mediatype>video</mediatype>
																	<parameter authoringApp="PremierePro">
																		<parameterid>variablespeed</parameterid>
																		<name>variablespeed</name>
																		<valuemin>0</valuemin>
																		<valuemax>1</valuemax>
																		<value>0</value>
																	</parameter>
																	<parameter authoringApp="PremierePro">
																		<parameterid>speed</parameterid>
																		<name>speed</name>
																		<valuemin>-100000</valuemin>
																		<valuemax>100000</valuemax>
																		<value>165.2</value>
																	</parameter>
																	<parameter authoringApp="PremierePro">
																		<parameterid>reverse</parameterid>
																		<name>reverse</name>
																		<value>FALSE</value>
																	</parameter>
																	<parameter authoringApp="PremierePro">
																		<parameterid>frameblending</parameterid>
																		<name>frameblending</name>
																		<value>FALSE</value>
																	</parameter>
																	<parameter authoringApp="PremierePro">
																		<parameterid>graphdict</parameterid>
																		<name>graphdict</name>
																		<valuemin>0</valuemin>
																		<valuemax>6429</valuemax>
																		<value>0</value>
																		<keyframe>
																			<when>0</when>
																			<value>0</value>
																			<speedvirtualkf>TRUE</speedvirtualkf>
																			<speedkfstart>TRUE</speedkfstart>
																		</keyframe>
																		<keyframe>
																			<when>130</when>
																			<value>214</value>
																			<speedvirtualkf>TRUE</speedvirtualkf>
																			<speedkfin>TRUE</speedkfin>
																		</keyframe>
																		<keyframe>
																			<when>235</when>
																			<value>388</value>
																			<speedvirtualkf>TRUE</speedvirtualkf>
																			<speedkfout>TRUE</speedkfout>
																		</keyframe>
																		<keyframe>
																			<when>3892</when>
																			<value>6429</value>
																			<speedvirtualkf>TRUE</speedvirtualkf>
																			<speedkfend>TRUE</speedkfend>
																		</keyframe>
																		<interpolation>
																			<name>FCPCurve</name>
																		</interpolation>
																	</parameter>
																</effect>
															</filter>
															<logginginfo>
																<description></description>
																<scene></scene>
																<shottake></shottake>
																<lognote>https://www.youtube.com/watch?v=GoSJIJh9Ytw</lognote>
																<good></good>
																<originalvideofilename></originalvideofilename>
																<originalaudiofilename></originalaudiofilename>
															</logginginfo>
															<colorinfo>
																<lut></lut>
																<lut1></lut1>
																<asc_sop></asc_sop>
																<asc_sat></asc_sat>
																<lut2></lut2>
															</colorinfo>
															<labels>
																<label2>Iris</label2>
															</labels>
														</clipitem>
														<clipitem id="clipitem-177">
															<masterclipid>masterclip-59</masterclipid>
															<name>(parul pawar)_WELCOME DOOR HANGER _ welcome craft ideas _ welcome wall hanging _ welcome board ideas_GoSJIJh9Ytw_YT.mp4</name>
															<enabled>TRUE</enabled>
															<duration>3892</duration>
															<rate>
																<timebase>30</timebase>
																<ntsc>TRUE</ntsc>
															</rate>
															<start>130</start>
															<end>187</end>
															<in>283</in>
															<out>339</out>
															<pproTicksIn>3953086788060</pproTicksIn>
															<pproTicksOut>4751190062807</pproTicksOut>
															<alphatype>none</alphatype>
															<file id="file-48"/>
															<filter>
																<effect>
																	<name>Time Remap</name>
																	<effectid>timeremap</effectid>
																	<effectcategory>motion</effectcategory>
																	<effecttype>motion</effecttype>
																	<mediatype>video</mediatype>
																	<parameter authoringApp="PremierePro">
																		<parameterid>variablespeed</parameterid>
																		<name>variablespeed</name>
																		<valuemin>0</valuemin>
																		<valuemax>1</valuemax>
																		<value>0</value>
																	</parameter>
																	<parameter authoringApp="PremierePro">
																		<parameterid>speed</parameterid>
																		<name>speed</name>
																		<valuemin>-100000</valuemin>
																		<valuemax>100000</valuemax>
																		<value>165.2</value>
																	</parameter>
																	<parameter authoringApp="PremierePro">
																		<parameterid>reverse</parameterid>
																		<name>reverse</name>
																		<value>FALSE</value>
																	</parameter>
																	<parameter authoringApp="PremierePro">
																		<parameterid>frameblending</parameterid>
																		<name>frameblending</name>
																		<value>FALSE</value>
																	</parameter>
																	<parameter authoringApp="PremierePro">
																		<parameterid>graphdict</parameterid>
																		<name>graphdict</name>
																		<valuemin>0</valuemin>
																		<valuemax>6429</valuemax>
																		<value>0</value>
																		<keyframe>
																			<when>0</when>
																			<value>0</value>
																			<speedvirtualkf>TRUE</speedvirtualkf>
																			<speedkfstart>TRUE</speedkfstart>
																		</keyframe>
																		<keyframe>
																			<when>283</when>
																			<value>467</value>
																			<speedvirtualkf>TRUE</speedvirtualkf>
																			<speedkfin>TRUE</speedkfin>
																		</keyframe>
																		<keyframe>
																			<when>339</when>
																			<value>560</value>
																			<speedvirtualkf>TRUE</speedvirtualkf>
																			<speedkfout>TRUE</speedkfout>
																		</keyframe>
																		<keyframe>
																			<when>3892</when>
																			<value>6429</value>
																			<speedvirtualkf>TRUE</speedvirtualkf>
																			<speedkfend>TRUE</speedkfend>
																		</keyframe>
																		<interpolation>
																			<name>FCPCurve</name>
																		</interpolation>
																	</parameter>
																</effect>
															</filter>
															<logginginfo>
																<description></description>
																<scene></scene>
																<shottake></shottake>
																<lognote>https://www.youtube.com/watch?v=GoSJIJh9Ytw</lognote>
																<good></good>
																<originalvideofilename></originalvideofilename>
																<originalaudiofilename></originalaudiofilename>
															</logginginfo>
															<colorinfo>
																<lut></lut>
																<lut1></lut1>
																<asc_sop></asc_sop>
																<asc_sat></asc_sat>
																<lut2></lut2>
															</colorinfo>
															<labels>
																<label2>Iris</label2>
															</labels>
														</clipitem>
														<clipitem id="clipitem-178">
															<masterclipid>masterclip-59</masterclipid>
															<name>(parul pawar)_WELCOME DOOR HANGER _ welcome craft ideas _ welcome wall hanging _ welcome board ideas_GoSJIJh9Ytw_YT.mp4</name>
															<enabled>TRUE</enabled>
															<duration>3892</duration>
															<rate>
																<timebase>30</timebase>
																<ntsc>TRUE</ntsc>
															</rate>
															<start>187</start>
															<end>732</end>
															<in>531</in>
															<out>1075</out>
															<pproTicksIn>7425536123791</pproTicksIn>
															<pproTicksOut>15056523575308</pproTicksOut>
															<alphatype>none</alphatype>
															<file id="file-48"/>
															<filter>
																<effect>
																	<name>Time Remap</name>
																	<effectid>timeremap</effectid>
																	<effectcategory>motion</effectcategory>
																	<effecttype>motion</effecttype>
																	<mediatype>video</mediatype>
																	<parameter authoringApp="PremierePro">
																		<parameterid>variablespeed</parameterid>
																		<name>variablespeed</name>
																		<valuemin>0</valuemin>
																		<valuemax>1</valuemax>
																		<value>0</value>
																	</parameter>
																	<parameter authoringApp="PremierePro">
																		<parameterid>speed</parameterid>
																		<name>speed</name>
																		<valuemin>-100000</valuemin>
																		<valuemax>100000</valuemax>
																		<value>165.2</value>
																	</parameter>
																	<parameter authoringApp="PremierePro">
																		<parameterid>reverse</parameterid>
																		<name>reverse</name>
																		<value>FALSE</value>
																	</parameter>
																	<parameter authoringApp="PremierePro">
																		<parameterid>frameblending</parameterid>
																		<name>frameblending</name>
																		<value>FALSE</value>
																	</parameter>
																	<parameter authoringApp="PremierePro">
																		<parameterid>graphdict</parameterid>
																		<name>graphdict</name>
																		<valuemin>0</valuemin>
																		<valuemax>6429</valuemax>
																		<value>0</value>
																		<keyframe>
																			<when>0</when>
																			<value>0</value>
																			<speedvirtualkf>TRUE</speedvirtualkf>
																			<speedkfstart>TRUE</speedkfstart>
																		</keyframe>
																		<keyframe>
																			<when>531</when>
																			<value>877</value>
																			<speedvirtualkf>TRUE</speedvirtualkf>
																			<speedkfin>TRUE</speedkfin>
																		</keyframe>
																		<keyframe>
																			<when>1075</when>
																			<value>1775</value>
																			<speedvirtualkf>TRUE</speedvirtualkf>
																			<speedkfout>TRUE</speedkfout>
																		</keyframe>
																		<keyframe>
																			<when>3892</when>
																			<value>6429</value>
																			<speedvirtualkf>TRUE</speedvirtualkf>
																			<speedkfend>TRUE</speedkfend>
																		</keyframe>
																		<interpolation>
																			<name>FCPCurve</name>
																		</interpolation>
																	</parameter>
																</effect>
															</filter>
															<logginginfo>
																<description></description>
																<scene></scene>
																<shottake></shottake>
																<lognote>https://www.youtube.com/watch?v=GoSJIJh9Ytw</lognote>
																<good></good>
																<originalvideofilename></originalvideofilename>
																<originalaudiofilename></originalaudiofilename>
															</logginginfo>
															<colorinfo>
																<lut></lut>
																<lut1></lut1>
																<asc_sop></asc_sop>
																<asc_sat></asc_sat>
																<lut2></lut2>
															</colorinfo>
															<labels>
																<label2>Iris</label2>
															</labels>
														</clipitem>
														<clipitem id="clipitem-179">
															<masterclipid>masterclip-59</masterclipid>
															<name>(parul pawar)_WELCOME DOOR HANGER _ welcome craft ideas _ welcome wall hanging _ welcome board ideas_GoSJIJh9Ytw_YT.mp4</name>
															<enabled>TRUE</enabled>
															<duration>3892</duration>
															<rate>
																<timebase>30</timebase>
																<ntsc>TRUE</ntsc>
															</rate>
															<start>732</start>
															<end>1510</end>
															<in>1121</in>
															<out>1898</out>
															<pproTicksIn>15686605107994</pproTicksIn>
															<pproTicksOut>26580014717685</pproTicksOut>
															<alphatype>none</alphatype>
															<file id="file-48"/>
															<filter>
																<effect>
																	<name>Time Remap</name>
																	<effectid>timeremap</effectid>
																	<effectcategory>motion</effectcategory>
																	<effecttype>motion</effecttype>
																	<mediatype>video</mediatype>
																	<parameter authoringApp="PremierePro">
																		<parameterid>variablespeed</parameterid>
																		<name>variablespeed</name>
																		<valuemin>0</valuemin>
																		<valuemax>1</valuemax>
																		<value>0</value>
																	</parameter>
																	<parameter authoringApp="PremierePro">
																		<parameterid>speed</parameterid>
																		<name>speed</name>
																		<valuemin>-100000</valuemin>
																		<valuemax>100000</valuemax>
																		<value>165.2</value>
																	</parameter>
																	<parameter authoringApp="PremierePro">
																		<parameterid>reverse</parameterid>
																		<name>reverse</name>
																		<value>FALSE</value>
																	</parameter>
																	<parameter authoringApp="PremierePro">
																		<parameterid>frameblending</parameterid>
																		<name>frameblending</name>
																		<value>FALSE</value>
																	</parameter>
																	<parameter authoringApp="PremierePro">
																		<parameterid>graphdict</parameterid>
																		<name>graphdict</name>
																		<valuemin>0</valuemin>
																		<valuemax>6429</valuemax>
																		<value>0</value>
																		<keyframe>
																			<when>0</when>
																			<value>0</value>
																			<speedvirtualkf>TRUE</speedvirtualkf>
																			<speedkfstart>TRUE</speedkfstart>
																		</keyframe>
																		<keyframe>
																			<when>1121</when>
																			<value>1851</value>
																			<speedvirtualkf>TRUE</speedvirtualkf>
																			<speedkfin>TRUE</speedkfin>
																		</keyframe>
																		<keyframe>
																			<when>1898</when>
																			<value>3135</value>
																			<speedvirtualkf>TRUE</speedvirtualkf>
																			<speedkfout>TRUE</speedkfout>
																		</keyframe>
																		<keyframe>
																			<when>3892</when>
																			<value>6429</value>
																			<speedvirtualkf>TRUE</speedvirtualkf>
																			<speedkfend>TRUE</speedkfend>
																		</keyframe>
																		<interpolation>
																			<name>FCPCurve</name>
																		</interpolation>
																	</parameter>
																</effect>
															</filter>
															<logginginfo>
																<description></description>
																<scene></scene>
																<shottake></shottake>
																<lognote>https://www.youtube.com/watch?v=GoSJIJh9Ytw</lognote>
																<good></good>
																<originalvideofilename></originalvideofilename>
																<originalaudiofilename></originalaudiofilename>
															</logginginfo>
															<colorinfo>
																<lut></lut>
																<lut1></lut1>
																<asc_sop></asc_sop>
																<asc_sat></asc_sat>
																<lut2></lut2>
															</colorinfo>
															<labels>
																<label2>Iris</label2>
															</labels>
														</clipitem>
														<clipitem id="clipitem-180">
															<masterclipid>masterclip-59</masterclipid>
															<name>(parul pawar)_WELCOME DOOR HANGER _ welcome craft ideas _ welcome wall hanging _ welcome board ideas_GoSJIJh9Ytw_YT.mp4</name>
															<enabled>TRUE</enabled>
															<duration>3892</duration>
															<rate>
																<timebase>30</timebase>
																<ntsc>TRUE</ntsc>
															</rate>
															<start>1510</start>
															<end>1868</end>
															<in>1996</in>
															<out>2353</out>
															<pproTicksIn>27938190465924</pproTicksIn>
															<pproTicksOut>32950839103810</pproTicksOut>
															<alphatype>none</alphatype>
															<file id="file-48"/>
															<filter>
																<effect>
																	<name>Time Remap</name>
																	<effectid>timeremap</effectid>
																	<effectcategory>motion</effectcategory>
																	<effecttype>motion</effecttype>
																	<mediatype>video</mediatype>
																	<parameter authoringApp="PremierePro">
																		<parameterid>variablespeed</parameterid>
																		<name>variablespeed</name>
																		<valuemin>0</valuemin>
																		<valuemax>1</valuemax>
																		<value>0</value>
																	</parameter>
																	<parameter authoringApp="PremierePro">
																		<parameterid>speed</parameterid>
																		<name>speed</name>
																		<valuemin>-100000</valuemin>
																		<valuemax>100000</valuemax>
																		<value>165.2</value>
																	</parameter>
																	<parameter authoringApp="PremierePro">
																		<parameterid>reverse</parameterid>
																		<name>reverse</name>
																		<value>FALSE</value>
																	</parameter>
																	<parameter authoringApp="PremierePro">
																		<parameterid>frameblending</parameterid>
																		<name>frameblending</name>
																		<value>FALSE</value>
																	</parameter>
																	<parameter authoringApp="PremierePro">
																		<parameterid>graphdict</parameterid>
																		<name>graphdict</name>
																		<valuemin>0</valuemin>
																		<valuemax>6429</valuemax>
																		<value>0</value>
																		<keyframe>
																			<when>0</when>
																			<value>0</value>
																			<speedvirtualkf>TRUE</speedvirtualkf>
																			<speedkfstart>TRUE</speedkfstart>
																		</keyframe>
																		<keyframe>
																			<when>1996</when>
																			<value>3297</value>
																			<speedvirtualkf>TRUE</speedvirtualkf>
																			<speedkfin>TRUE</speedkfin>
																		</keyframe>
																		<keyframe>
																			<when>2353</when>
																			<value>3887</value>
																			<speedvirtualkf>TRUE</speedvirtualkf>
																			<speedkfout>TRUE</speedkfout>
																		</keyframe>
																		<keyframe>
																			<when>3892</when>
																			<value>6429</value>
																			<speedvirtualkf>TRUE</speedvirtualkf>
																			<speedkfend>TRUE</speedkfend>
																		</keyframe>
																		<interpolation>
																			<name>FCPCurve</name>
																		</interpolation>
																	</parameter>
																</effect>
															</filter>
															<logginginfo>
																<description></description>
																<scene></scene>
																<shottake></shottake>
																<lognote>https://www.youtube.com/watch?v=GoSJIJh9Ytw</lognote>
																<good></good>
																<originalvideofilename></originalvideofilename>
																<originalaudiofilename></originalaudiofilename>
															</logginginfo>
															<colorinfo>
																<lut></lut>
																<lut1></lut1>
																<asc_sop></asc_sop>
																<asc_sat></asc_sat>
																<lut2></lut2>
															</colorinfo>
															<labels>
																<label2>Iris</label2>
															</labels>
														</clipitem>
														<clipitem id="clipitem-181">
															<masterclipid>masterclip-59</masterclipid>
															<name>(parul pawar)_WELCOME DOOR HANGER _ welcome craft ideas _ welcome wall hanging _ welcome board ideas_GoSJIJh9Ytw_YT.mp4</name>
															<enabled>TRUE</enabled>
															<duration>3892</duration>
															<rate>
																<timebase>30</timebase>
																<ntsc>TRUE</ntsc>
															</rate>
															<start>1868</start>
															<end>2384</end>
															<in>2590</in>
															<out>3105</out>
															<pproTicksIn>36255266697478</pproTicksIn>
															<pproTicksOut>43480201605713</pproTicksOut>
															<alphatype>none</alphatype>
															<file id="file-48"/>
															<filter>
																<effect>
																	<name>Time Remap</name>
																	<effectid>timeremap</effectid>
																	<effectcategory>motion</effectcategory>
																	<effecttype>motion</effecttype>
																	<mediatype>video</mediatype>
																	<parameter authoringApp="PremierePro">
																		<parameterid>variablespeed</parameterid>
																		<name>variablespeed</name>
																		<valuemin>0</valuemin>
																		<valuemax>1</valuemax>
																		<value>0</value>
																	</parameter>
																	<parameter authoringApp="PremierePro">
																		<parameterid>speed</parameterid>
																		<name>speed</name>
																		<valuemin>-100000</valuemin>
																		<valuemax>100000</valuemax>
																		<value>165.2</value>
																	</parameter>
																	<parameter authoringApp="PremierePro">
																		<parameterid>reverse</parameterid>
																		<name>reverse</name>
																		<value>FALSE</value>
																	</parameter>
																	<parameter authoringApp="PremierePro">
																		<parameterid>frameblending</parameterid>
																		<name>frameblending</name>
																		<value>FALSE</value>
																	</parameter>
																	<parameter authoringApp="PremierePro">
																		<parameterid>graphdict</parameterid>
																		<name>graphdict</name>
																		<valuemin>0</valuemin>
																		<valuemax>6429</valuemax>
																		<value>0</value>
																		<keyframe>
																			<when>0</when>
																			<value>0</value>
																			<speedvirtualkf>TRUE</speedvirtualkf>
																			<speedkfstart>TRUE</speedkfstart>
																		</keyframe>
																		<keyframe>
																			<when>2590</when>
																			<value>4278</value>
																			<speedvirtualkf>TRUE</speedvirtualkf>
																			<speedkfin>TRUE</speedkfin>
																		</keyframe>
																		<keyframe>
																			<when>3105</when>
																			<value>5129</value>
																			<speedvirtualkf>TRUE</speedvirtualkf>
																			<speedkfout>TRUE</speedkfout>
																		</keyframe>
																		<keyframe>
																			<when>3892</when>
																			<value>6429</value>
																			<speedvirtualkf>TRUE</speedvirtualkf>
																			<speedkfend>TRUE</speedkfend>
																		</keyframe>
																		<interpolation>
																			<name>FCPCurve</name>
																		</interpolation>
																	</parameter>
																</effect>
															</filter>
															<logginginfo>
																<description></description>
																<scene></scene>
																<shottake></shottake>
																<lognote>https://www.youtube.com/watch?v=GoSJIJh9Ytw</lognote>
																<good></good>
																<originalvideofilename></originalvideofilename>
																<originalaudiofilename></originalaudiofilename>
															</logginginfo>
															<colorinfo>
																<lut></lut>
																<lut1></lut1>
																<asc_sop></asc_sop>
																<asc_sat></asc_sat>
																<lut2></lut2>
															</colorinfo>
															<labels>
																<label2>Iris</label2>
															</labels>
														</clipitem>
														<clipitem id="clipitem-182">
															<masterclipid>masterclip-59</masterclipid>
															<name>(parul pawar)_WELCOME DOOR HANGER _ welcome craft ideas _ welcome wall hanging _ welcome board ideas_GoSJIJh9Ytw_YT.mp4</name>
															<enabled>TRUE</enabled>
															<duration>3892</duration>
															<rate>
																<timebase>30</timebase>
																<ntsc>TRUE</ntsc>
															</rate>
															<start>2384</start>
															<end>2453</end>
															<in>3330</in>
															<out>3398</out>
															<pproTicksIn>46616607457327</pproTicksIn>
															<pproTicksOut>47582732474142</pproTicksOut>
															<alphatype>none</alphatype>
															<file id="file-48"/>
															<filter>
																<effect>
																	<name>Time Remap</name>
																	<effectid>timeremap</effectid>
																	<effectcategory>motion</effectcategory>
																	<effecttype>motion</effecttype>
																	<mediatype>video</mediatype>
																	<parameter authoringApp="PremierePro">
																		<parameterid>variablespeed</parameterid>
																		<name>variablespeed</name>
																		<valuemin>0</valuemin>
																		<valuemax>1</valuemax>
																		<value>0</value>
																	</parameter>
																	<parameter authoringApp="PremierePro">
																		<parameterid>speed</parameterid>
																		<name>speed</name>
																		<valuemin>-100000</valuemin>
																		<valuemax>100000</valuemax>
																		<value>165.2</value>
																	</parameter>
																	<parameter authoringApp="PremierePro">
																		<parameterid>reverse</parameterid>
																		<name>reverse</name>
																		<value>FALSE</value>
																	</parameter>
																	<parameter authoringApp="PremierePro">
																		<parameterid>frameblending</parameterid>
																		<name>frameblending</name>
																		<value>FALSE</value>
																	</parameter>
																	<parameter authoringApp="PremierePro">
																		<parameterid>graphdict</parameterid>
																		<name>graphdict</name>
																		<valuemin>0</valuemin>
																		<valuemax>6429</valuemax>
																		<value>0</value>
																		<keyframe>
																			<when>0</when>
																			<value>0</value>
																			<speedvirtualkf>TRUE</speedvirtualkf>
																			<speedkfstart>TRUE</speedkfstart>
																		</keyframe>
																		<keyframe>
																			<when>3330</when>
																			<value>5501</value>
																			<speedvirtualkf>TRUE</speedvirtualkf>
																			<speedkfin>TRUE</speedkfin>
																		</keyframe>
																		<keyframe>
																			<when>3398</when>
																			<value>5613</value>
																			<speedvirtualkf>TRUE</speedvirtualkf>
																			<speedkfout>TRUE</speedkfout>
																		</keyframe>
																		<keyframe>
																			<when>3892</when>
																			<value>6429</value>
																			<speedvirtualkf>TRUE</speedvirtualkf>
																			<speedkfend>TRUE</speedkfend>
																		</keyframe>
																		<interpolation>
																			<name>FCPCurve</name>
																		</interpolation>
																	</parameter>
																</effect>
															</filter>
															<logginginfo>
																<description></description>
																<scene></scene>
																<shottake></shottake>
																<lognote>https://www.youtube.com/watch?v=GoSJIJh9Ytw</lognote>
																<good></good>
																<originalvideofilename></originalvideofilename>
																<originalaudiofilename></originalaudiofilename>
															</logginginfo>
															<colorinfo>
																<lut></lut>
																<lut1></lut1>
																<asc_sop></asc_sop>
																<asc_sat></asc_sat>
																<lut2></lut2>
															</colorinfo>
															<labels>
																<label2>Iris</label2>
															</labels>
														</clipitem>
														<clipitem id="clipitem-183">
															<masterclipid>masterclip-59</masterclipid>
															<name>(parul pawar)_WELCOME DOOR HANGER _ welcome craft ideas _ welcome wall hanging _ welcome board ideas_GoSJIJh9Ytw_YT.mp4</name>
															<enabled>TRUE</enabled>
															<duration>3892</duration>
															<rate>
																<timebase>30</timebase>
																<ntsc>TRUE</ntsc>
															</rate>
															<start>2453</start>
															<end>2585</end>
															<in>3497</in>
															<out>3628</out>
															<pproTicksIn>48954910034213</pproTicksIn>
															<pproTicksOut>50803149196800</pproTicksOut>
															<alphatype>none</alphatype>
															<file id="file-48"/>
															<filter>
																<effect>
																	<name>Time Remap</name>
																	<effectid>timeremap</effectid>
																	<effectcategory>motion</effectcategory>
																	<effecttype>motion</effecttype>
																	<mediatype>video</mediatype>
																	<parameter authoringApp="PremierePro">
																		<parameterid>variablespeed</parameterid>
																		<name>variablespeed</name>
																		<valuemin>0</valuemin>
																		<valuemax>1</valuemax>
																		<value>0</value>
																	</parameter>
																	<parameter authoringApp="PremierePro">
																		<parameterid>speed</parameterid>
																		<name>speed</name>
																		<valuemin>-100000</valuemin>
																		<valuemax>100000</valuemax>
																		<value>165.2</value>
																	</parameter>
																	<parameter authoringApp="PremierePro">
																		<parameterid>reverse</parameterid>
																		<name>reverse</name>
																		<value>FALSE</value>
																	</parameter>
																	<parameter authoringApp="PremierePro">
																		<parameterid>frameblending</parameterid>
																		<name>frameblending</name>
																		<value>FALSE</value>
																	</parameter>
																	<parameter authoringApp="PremierePro">
																		<parameterid>graphdict</parameterid>
																		<name>graphdict</name>
																		<valuemin>0</valuemin>
																		<valuemax>6429</valuemax>
																		<value>0</value>
																		<keyframe>
																			<when>0</when>
																			<value>0</value>
																			<speedvirtualkf>TRUE</speedvirtualkf>
																			<speedkfstart>TRUE</speedkfstart>
																		</keyframe>
																		<keyframe>
																			<when>3497</when>
																			<value>5777</value>
																			<speedvirtualkf>TRUE</speedvirtualkf>
																			<speedkfin>TRUE</speedkfin>
																		</keyframe>
																		<keyframe>
																			<when>3628</when>
																			<value>5993</value>
																			<speedvirtualkf>TRUE</speedvirtualkf>
																			<speedkfout>TRUE</speedkfout>
																		</keyframe>
																		<keyframe>
																			<when>3892</when>
																			<value>6429</value>
																			<speedvirtualkf>TRUE</speedvirtualkf>
																			<speedkfend>TRUE</speedkfend>
																		</keyframe>
																		<interpolation>
																			<name>FCPCurve</name>
																		</interpolation>
																	</parameter>
																</effect>
															</filter>
															<logginginfo>
																<description></description>
																<scene></scene>
																<shottake></shottake>
																<lognote>https://www.youtube.com/watch?v=GoSJIJh9Ytw</lognote>
																<good></good>
																<originalvideofilename></originalvideofilename>
																<originalaudiofilename></originalaudiofilename>
															</logginginfo>
															<colorinfo>
																<lut></lut>
																<lut1></lut1>
																<asc_sop></asc_sop>
																<asc_sat></asc_sat>
																<lut2></lut2>
															</colorinfo>
															<labels>
																<label2>Iris</label2>
															</labels>
														</clipitem>
														<clipitem id="clipitem-184">
															<masterclipid>masterclip-59</masterclipid>
															<name>(parul pawar)_WELCOME DOOR HANGER _ welcome craft ideas _ welcome wall hanging _ welcome board ideas_GoSJIJh9Ytw_YT.mp4</name>
															<enabled>TRUE</enabled>
															<duration>6430</duration>
															<rate>
																<timebase>30</timebase>
																<ntsc>TRUE</ntsc>
															</rate>
															<start>2585</start>
															<end>2609</end>
															<in>6120</in>
															<out>6144</out>
															<pproTicksIn>51871083264000</pproTicksIn>
															<pproTicksOut>52074499276800</pproTicksOut>
															<alphatype>none</alphatype>
															<file id="file-48"/>
															<filter>
																<effect>
																	<name>Basic Motion</name>
																	<effectid>basic</effectid>
																	<effectcategory>motion</effectcategory>
																	<effecttype>motion</effecttype>
																	<mediatype>video</mediatype>
																	<pproBypass>false</pproBypass>
																	<parameter authoringApp="PremierePro">
																		<parameterid>scale</parameterid>
																		<name>Scale</name>
																		<valuemin>0</valuemin>
																		<valuemax>1000</valuemax>
																		<value>100</value>
																		<keyframe>
																			<when>6121</when>
																			<value>100</value>
																		</keyframe>
																		<keyframe>
																			<when>6144</when>
																			<value>105</value>
																		</keyframe>
																	</parameter>
																	<parameter authoringApp="PremierePro">
																		<parameterid>rotation</parameterid>
																		<name>Rotation</name>
																		<valuemin>-8640</valuemin>
																		<valuemax>8640</valuemax>
																		<value>0</value>
																	</parameter>
																	<parameter authoringApp="PremierePro">
																		<parameterid>center</parameterid>
																		<name>Center</name>
																		<value>
																			<horiz>0</horiz>
																			<vert>0</vert>
																		</value>
																	</parameter>
																	<parameter authoringApp="PremierePro">
																		<parameterid>centerOffset</parameterid>
																		<name>Anchor Point</name>
																		<value>
																			<horiz>0</horiz>
																			<vert>0</vert>
																		</value>
																	</parameter>
																	<parameter authoringApp="PremierePro">
																		<parameterid>antiflicker</parameterid>
																		<name>Anti-flicker Filter</name>
																		<valuemin>0.0</valuemin>
																		<valuemax>1.0</valuemax>
																		<value>0</value>
																	</parameter>
																</effect>
															</filter>
															<logginginfo>
																<description></description>
																<scene></scene>
																<shottake></shottake>
																<lognote>https://www.youtube.com/watch?v=GoSJIJh9Ytw</lognote>
																<good></good>
																<originalvideofilename></originalvideofilename>
																<originalaudiofilename></originalaudiofilename>
															</logginginfo>
															<colorinfo>
																<lut></lut>
																<lut1></lut1>
																<asc_sop></asc_sop>
																<asc_sat></asc_sat>
																<lut2></lut2>
															</colorinfo>
															<labels>
																<label2>Iris</label2>
															</labels>
														</clipitem>
														<enabled>TRUE</enabled>
														<locked>FALSE</locked>
													</track>
													<track TL.SQTrackShy="0" TL.SQTrackExpandedHeight="25" TL.SQTrackExpanded="0" MZ.TrackTargeted="0">
														<clipitem id="clipitem-185">
															<masterclipid>masterclip-60</masterclipid>
															<name>parul pawar</name>
															<enabled>TRUE</enabled>
															<duration>5844</duration>
															<rate>
																<timebase>30</timebase>
																<ntsc>TRUE</ntsc>
															</rate>
															<start>0</start>
															<end>2609</end>
															<in>0</in>
															<out>2609</out>
															<pproTicksIn>0</pproTicksIn>
															<pproTicksOut>22113015724800</pproTicksOut>
															<alphatype>straight</alphatype>
															<pixelaspectratio>square</pixelaspectratio>
															<anamorphic>FALSE</anamorphic>
															<file id="file-49">
																<name>1080/AE Attribution.aep</name>
																<pathurl>file://localhost/Volumes/ATM%20JR%202TB/Master%20Assets/AE%20Attribution.aep</pathurl>
																<rate>
																	<timebase>30</timebase>
																	<ntsc>TRUE</ntsc>
																</rate>
																<duration>5844</duration>
																<timecode>
																	<rate>
																		<timebase>30</timebase>
																		<ntsc>TRUE</ntsc>
																	</rate>
																	<string>00;00;00;00</string>
																	<frame>0</frame>
																	<displayformat>DF</displayformat>
																</timecode>
																<media>
																	<video>
																		<samplecharacteristics>
																			<rate>
																				<timebase>30</timebase>
																				<ntsc>TRUE</ntsc>
																			</rate>
																			<width>1920</width>
																			<height>1080</height>
																			<anamorphic>FALSE</anamorphic>
																			<pixelaspectratio>square</pixelaspectratio>
																			<fielddominance>lower</fielddominance>
																		</samplecharacteristics>
																	</video>
																</media>
															</file>
															<logginginfo>
																<description></description>
																<scene></scene>
																<shottake></shottake>
																<lognote></lognote>
																<good></good>
																<originalvideofilename></originalvideofilename>
																<originalaudiofilename></originalaudiofilename>
															</logginginfo>
															<colorinfo>
																<lut></lut>
																<lut1></lut1>
																<asc_sop></asc_sop>
																<asc_sat></asc_sat>
																<lut2></lut2>
															</colorinfo>
															<labels>
																<label2>Rose</label2>
															</labels>
														</clipitem>
														<enabled>TRUE</enabled>
														<locked>FALSE</locked>
													</track>
													<track TL.SQTrackShy="0" TL.SQTrackExpandedHeight="25" TL.SQTrackExpanded="0" MZ.TrackTargeted="0">
														<enabled>TRUE</enabled>
														<locked>FALSE</locked>
													</track>
												</video>
												<audio>
													<numOutputChannels>2</numOutputChannels>
													<format>
														<samplecharacteristics>
															<depth>16</depth>
															<samplerate>48000</samplerate>
														</samplecharacteristics>
													</format>
													<outputs>
														<group>
															<index>1</index>
															<numchannels>1</numchannels>
															<downmix>0</downmix>
															<channel>
																<index>1</index>
															</channel>
														</group>
														<group>
															<index>2</index>
															<numchannels>1</numchannels>
															<downmix>0</downmix>
															<channel>
																<index>2</index>
															</channel>
														</group>
													</outputs>
													<track TL.SQTrackAudioKeyframeStyle="0" TL.SQTrackShy="0" TL.SQTrackExpandedHeight="25" TL.SQTrackExpanded="0" MZ.TrackTargeted="1" PannerCurrentValue="0.5" PannerIsInverted="true" PannerStartKeyframe="-91445760000000000,0.5,0,0,0,0,0,0" PannerName="Balance" currentExplodedTrackIndex="0" totalExplodedTrackCount="2" premiereTrackType="Stereo">
														<enabled>TRUE</enabled>
														<locked>FALSE</locked>
														<outputchannelindex>1</outputchannelindex>
													</track>
													<track TL.SQTrackAudioKeyframeStyle="0" TL.SQTrackShy="0" TL.SQTrackExpandedHeight="25" TL.SQTrackExpanded="0" MZ.TrackTargeted="1" PannerCurrentValue="0.5" PannerIsInverted="true" PannerStartKeyframe="-91445760000000000,0.5,0,0,0,0,0,0" PannerName="Balance" currentExplodedTrackIndex="1" totalExplodedTrackCount="2" premiereTrackType="Stereo">
														<enabled>TRUE</enabled>
														<locked>FALSE</locked>
														<outputchannelindex>2</outputchannelindex>
													</track>
												</audio>
											</media>
											<timecode>
												<rate>
													<timebase>30</timebase>
													<ntsc>TRUE</ntsc>
												</rate>
												<string>00;00;00;00</string>
												<frame>0</frame>
												<displayformat>DF</displayformat>
											</timecode>
											<logginginfo>
												<description></description>
												<scene></scene>
												<shottake></shottake>
												<lognote></lognote>
												<good></good>
												<originalvideofilename></originalvideofilename>
												<originalaudiofilename></originalaudiofilename>
											</logginginfo>
										</sequence>
										<labels>
											<label2>Forest</label2>
										</labels>
									</clipitem>
									<clipitem id="clipitem-186">
										<masterclipid>masterclip-61</masterclipid>
										<name>FASH_SERVINGBOOKS_1.5</name>
										<enabled>TRUE</enabled>
										<duration>2821</duration>
										<rate>
											<timebase>30</timebase>
											<ntsc>TRUE</ntsc>
										</rate>
										<start>2685</start>
										<end>5506</end>
										<in>0</in>
										<out>2821</out>
										<pproTicksIn>0</pproTicksIn>
										<pproTicksOut>23909857171200</pproTicksOut>
										<sequence id="sequence-18" TL.SQAudioVisibleBase="0" TL.SQVideoVisibleBase="0" TL.SQVisibleBaseTime="0" TL.SQAVDividerPosition="0.5" TL.SQHideShyTracks="0" TL.SQHeaderWidth="236" Monitor.ProgramZoomOut="23909857171200" Monitor.ProgramZoomIn="0" TL.SQTimePerPixel="0.14491848205655813" MZ.EditLine="0" MZ.Sequence.PreviewFrameSizeHeight="1080" MZ.Sequence.PreviewFrameSizeWidth="1920" MZ.Sequence.AudioTimeDisplayFormat="200" MZ.Sequence.PreviewRenderingClassID="1061109567" MZ.Sequence.PreviewRenderingPresetCodec="1634755443" MZ.Sequence.PreviewRenderingPresetPath="EncoderPresets/SequencePreview/35d109db-457b-43c1-9452-9cb7be9f121c/QuickTime.epr" MZ.Sequence.PreviewUseMaxRenderQuality="false" MZ.Sequence.PreviewUseMaxBitDepth="false" MZ.Sequence.EditingModeGUID="35d109db-457b-43c1-9452-9cb7be9f121c" MZ.Sequence.VideoTimeDisplayFormat="102" MZ.WorkOutPoint="23909857171200" MZ.WorkInPoint="0">
											<duration>2821</duration>
											<rate>
												<timebase>30</timebase>
												<ntsc>TRUE</ntsc>
											</rate>
											<name>FASH_SERVINGBOOKS_1.5</name>
											<media>
												<video>
													<format>
														<samplecharacteristics>
															<rate>
																<timebase>30</timebase>
																<ntsc>TRUE</ntsc>
															</rate>
															<codec>
																<name>Apple ProRes 422</name>
																<appspecificdata>
																	<appname>Final Cut Pro</appname>
																	<appmanufacturer>Apple Inc.</appmanufacturer>
																	<appversion>7.0</appversion>
																	<data>
																		<qtcodec>
																			<codecname>Apple ProRes 422</codecname>
																			<codectypename>Apple ProRes 422</codectypename>
																			<codectypecode>apcn</codectypecode>
																			<codecvendorcode>appl</codecvendorcode>
																			<spatialquality>1024</spatialquality>
																			<temporalquality>0</temporalquality>
																			<keyframerate>0</keyframerate>
																			<datarate>0</datarate>
																		</qtcodec>
																	</data>
																</appspecificdata>
															</codec>
															<width>1920</width>
															<height>1080</height>
															<anamorphic>FALSE</anamorphic>
															<pixelaspectratio>square</pixelaspectratio>
															<fielddominance>none</fielddominance>
															<colordepth>24</colordepth>
														</samplecharacteristics>
													</format>
													<track TL.SQTrackShy="0" TL.SQTrackExpandedHeight="25" TL.SQTrackExpanded="0" MZ.TrackTargeted="1">
														<clipitem id="clipitem-187">
															<masterclipid>masterclip-62</masterclipid>
															<name>(Rachel Maksy)_Making a Book Page Dress! _ _Walking Library_ Part One_5EYmnshBFJs_YT.mp4</name>
															<enabled>TRUE</enabled>
															<duration>51742</duration>
															<rate>
																<timebase>30</timebase>
																<ntsc>TRUE</ntsc>
															</rate>
															<start>0</start>
															<end>261</end>
															<in>13444</in>
															<out>13705</out>
															<pproTicksIn>113946869836800</pproTicksIn>
															<pproTicksOut>116159018976000</pproTicksOut>
															<alphatype>none</alphatype>
															<pixelaspectratio>square</pixelaspectratio>
															<anamorphic>FALSE</anamorphic>
															<file id="file-50">
																<name>(Rachel Maksy)_Making a Book Page Dress! _ _Walking Library_ Part One_5EYmnshBFJs_YT.mp4</name>
																<pathurl>file://localhost/Volumes/CONTENT/VOD%20CONTENT%20ARCHIVE/O&amp;O%20Archive%202023/CRAFTY/03_March/Crafty_3-20-2023/3_Raw%20Files/book%20page%20dress/(Rachel%20Maksy)_Making%20a%20Book%20Page%20Dress!%20_%20_Walking%20Library_%20Part%20One_5EYmnshBFJs_YT.mp4</pathurl>
																<rate>
																	<timebase>24</timebase>
																	<ntsc>TRUE</ntsc>
																</rate>
																<duration>41394</duration>
																<timecode>
																	<rate>
																		<timebase>24</timebase>
																		<ntsc>TRUE</ntsc>
																	</rate>
																	<string>00:00:00:00</string>
																	<frame>0</frame>
																	<displayformat>NDF</displayformat>
																</timecode>
																<media>
																	<video>
																		<samplecharacteristics>
																			<rate>
																				<timebase>24</timebase>
																				<ntsc>TRUE</ntsc>
																			</rate>
																			<width>1920</width>
																			<height>1080</height>
																			<anamorphic>FALSE</anamorphic>
																			<pixelaspectratio>square</pixelaspectratio>
																			<fielddominance>none</fielddominance>
																		</samplecharacteristics>
																	</video>
																	<audio>
																		<samplecharacteristics>
																			<depth>16</depth>
																			<samplerate>44100</samplerate>
																		</samplecharacteristics>
																		<channelcount>2</channelcount>
																	</audio>
																</media>
															</file>
															<logginginfo>
																<description></description>
																<scene></scene>
																<shottake></shottake>
																<lognote>https://www.youtube.com/watch?v=5EYmnshBFJs</lognote>
																<good></good>
																<originalvideofilename></originalvideofilename>
																<originalaudiofilename></originalaudiofilename>
															</logginginfo>
															<colorinfo>
																<lut></lut>
																<lut1></lut1>
																<asc_sop></asc_sop>
																<asc_sat></asc_sat>
																<lut2></lut2>
															</colorinfo>
															<labels>
																<label2>Iris</label2>
															</labels>
														</clipitem>
														<clipitem id="clipitem-188">
															<masterclipid>masterclip-62</masterclipid>
															<name>(Rachel Maksy)_Making a Book Page Dress! _ _Walking Library_ Part One_5EYmnshBFJs_YT.mp4</name>
															<enabled>TRUE</enabled>
															<duration>51742</duration>
															<rate>
																<timebase>30</timebase>
																<ntsc>TRUE</ntsc>
															</rate>
															<start>261</start>
															<end>465</end>
															<in>13821</in>
															<out>14025</out>
															<pproTicksIn>117142196371200</pproTicksIn>
															<pproTicksOut>118871232480000</pproTicksOut>
															<alphatype>none</alphatype>
															<file id="file-50"/>
															<logginginfo>
																<description></description>
																<scene></scene>
																<shottake></shottake>
																<lognote>https://www.youtube.com/watch?v=5EYmnshBFJs</lognote>
																<good></good>
																<originalvideofilename></originalvideofilename>
																<originalaudiofilename></originalaudiofilename>
															</logginginfo>
															<colorinfo>
																<lut></lut>
																<lut1></lut1>
																<asc_sop></asc_sop>
																<asc_sat></asc_sat>
																<lut2></lut2>
															</colorinfo>
															<labels>
																<label2>Iris</label2>
															</labels>
														</clipitem>
														<clipitem id="clipitem-189">
															<masterclipid>masterclip-62</masterclipid>
															<name>(Rachel Maksy)_Making a Book Page Dress! _ _Walking Library_ Part One_5EYmnshBFJs_YT.mp4</name>
															<enabled>TRUE</enabled>
															<duration>51742</duration>
															<rate>
																<timebase>30</timebase>
																<ntsc>TRUE</ntsc>
															</rate>
															<start>465</start>
															<end>627</end>
															<in>14184</in>
															<out>14346</out>
															<pproTicksIn>120218863564800</pproTicksIn>
															<pproTicksOut>121591921651200</pproTicksOut>
															<alphatype>none</alphatype>
															<file id="file-50"/>
															<logginginfo>
																<description></description>
																<scene></scene>
																<shottake></shottake>
																<lognote>https://www.youtube.com/watch?v=5EYmnshBFJs</lognote>
																<good></good>
																<originalvideofilename></originalvideofilename>
																<originalaudiofilename></originalaudiofilename>
															</logginginfo>
															<colorinfo>
																<lut></lut>
																<lut1></lut1>
																<asc_sop></asc_sop>
																<asc_sat></asc_sat>
																<lut2></lut2>
															</colorinfo>
															<labels>
																<label2>Iris</label2>
															</labels>
														</clipitem>
														<clipitem id="clipitem-190">
															<masterclipid>masterclip-62</masterclipid>
															<name>(Rachel Maksy)_Making a Book Page Dress! _ _Walking Library_ Part One_5EYmnshBFJs_YT.mp4</name>
															<enabled>TRUE</enabled>
															<duration>51742</duration>
															<rate>
																<timebase>30</timebase>
																<ntsc>TRUE</ntsc>
															</rate>
															<start>627</start>
															<end>1200</end>
															<in>17495</in>
															<out>18068</out>
															<pproTicksIn>148281797664000</pproTicksIn>
															<pproTicksOut>153138354969600</pproTicksOut>
															<alphatype>none</alphatype>
															<file id="file-50"/>
															<logginginfo>
																<description></description>
																<scene></scene>
																<shottake></shottake>
																<lognote>https://www.youtube.com/watch?v=5EYmnshBFJs</lognote>
																<good></good>
																<originalvideofilename></originalvideofilename>
																<originalaudiofilename></originalaudiofilename>
															</logginginfo>
															<colorinfo>
																<lut></lut>
																<lut1></lut1>
																<asc_sop></asc_sop>
																<asc_sat></asc_sat>
																<lut2></lut2>
															</colorinfo>
															<labels>
																<label2>Iris</label2>
															</labels>
														</clipitem>
														<clipitem id="clipitem-191">
															<masterclipid>masterclip-62</masterclipid>
															<name>(Rachel Maksy)_Making a Book Page Dress! _ _Walking Library_ Part One_5EYmnshBFJs_YT.mp4</name>
															<enabled>TRUE</enabled>
															<duration>51742</duration>
															<rate>
																<timebase>30</timebase>
																<ntsc>TRUE</ntsc>
															</rate>
															<start>1200</start>
															<end>1700</end>
															<in>24647</in>
															<out>25147</out>
															<pproTicksIn>208899769478400</pproTicksIn>
															<pproTicksOut>213137603078400</pproTicksOut>
															<alphatype>none</alphatype>
															<file id="file-50"/>
															<logginginfo>
																<description></description>
																<scene></scene>
																<shottake></shottake>
																<lognote>https://www.youtube.com/watch?v=5EYmnshBFJs</lognote>
																<good></good>
																<originalvideofilename></originalvideofilename>
																<originalaudiofilename></originalaudiofilename>
															</logginginfo>
															<colorinfo>
																<lut></lut>
																<lut1></lut1>
																<asc_sop></asc_sop>
																<asc_sat></asc_sat>
																<lut2></lut2>
															</colorinfo>
															<labels>
																<label2>Iris</label2>
															</labels>
														</clipitem>
														<clipitem id="clipitem-192">
															<masterclipid>masterclip-62</masterclipid>
															<name>(Rachel Maksy)_Making a Book Page Dress! _ _Walking Library_ Part One_5EYmnshBFJs_YT.mp4</name>
															<enabled>TRUE</enabled>
															<duration>51742</duration>
															<rate>
																<timebase>30</timebase>
																<ntsc>TRUE</ntsc>
															</rate>
															<start>1700</start>
															<end>1795</end>
															<in>30500</in>
															<out>30595</out>
															<pproTicksIn>258507849600000</pproTicksIn>
															<pproTicksOut>259313037984000</pproTicksOut>
															<alphatype>none</alphatype>
															<file id="file-50"/>
															<logginginfo>
																<description></description>
																<scene></scene>
																<shottake></shottake>
																<lognote>https://www.youtube.com/watch?v=5EYmnshBFJs</lognote>
																<good></good>
																<originalvideofilename></originalvideofilename>
																<originalaudiofilename></originalaudiofilename>
															</logginginfo>
															<colorinfo>
																<lut></lut>
																<lut1></lut1>
																<asc_sop></asc_sop>
																<asc_sat></asc_sat>
																<lut2></lut2>
															</colorinfo>
															<labels>
																<label2>Iris</label2>
															</labels>
														</clipitem>
														<clipitem id="clipitem-193">
															<masterclipid>masterclip-62</masterclipid>
															<name>(Rachel Maksy)_Making a Book Page Dress! _ _Walking Library_ Part One_5EYmnshBFJs_YT.mp4</name>
															<enabled>TRUE</enabled>
															<duration>51742</duration>
															<rate>
																<timebase>30</timebase>
																<ntsc>TRUE</ntsc>
															</rate>
															<start>1795</start>
															<end>2287</end>
															<in>38035</in>
															<out>38527</out>
															<pproTicksIn>322372001952000</pproTicksIn>
															<pproTicksOut>326542030214400</pproTicksOut>
															<alphatype>none</alphatype>
															<file id="file-50"/>
															<logginginfo>
																<description></description>
																<scene></scene>
																<shottake></shottake>
																<lognote>https://www.youtube.com/watch?v=5EYmnshBFJs</lognote>
																<good></good>
																<originalvideofilename></originalvideofilename>
																<originalaudiofilename></originalaudiofilename>
															</logginginfo>
															<colorinfo>
																<lut></lut>
																<lut1></lut1>
																<asc_sop></asc_sop>
																<asc_sat></asc_sat>
																<lut2></lut2>
															</colorinfo>
															<labels>
																<label2>Iris</label2>
															</labels>
														</clipitem>
														<clipitem id="clipitem-194">
															<masterclipid>masterclip-62</masterclipid>
															<name>(Rachel Maksy)_Making a Book Page Dress! _ _Walking Library_ Part One_5EYmnshBFJs_YT.mp4</name>
															<enabled>TRUE</enabled>
															<duration>51742</duration>
															<rate>
																<timebase>30</timebase>
																<ntsc>TRUE</ntsc>
															</rate>
															<start>2287</start>
															<end>2345</end>
															<in>38905</in>
															<out>38963</out>
															<pproTicksIn>329745832416000</pproTicksIn>
															<pproTicksOut>330237421113600</pproTicksOut>
															<alphatype>none</alphatype>
															<file id="file-50"/>
															<logginginfo>
																<description></description>
																<scene></scene>
																<shottake></shottake>
																<lognote>https://www.youtube.com/watch?v=5EYmnshBFJs</lognote>
																<good></good>
																<originalvideofilename></originalvideofilename>
																<originalaudiofilename></originalaudiofilename>
															</logginginfo>
															<colorinfo>
																<lut></lut>
																<lut1></lut1>
																<asc_sop></asc_sop>
																<asc_sat></asc_sat>
																<lut2></lut2>
															</colorinfo>
															<labels>
																<label2>Iris</label2>
															</labels>
														</clipitem>
														<clipitem id="clipitem-195">
															<masterclipid>masterclip-62</masterclipid>
															<name>(Rachel Maksy)_Making a Book Page Dress! _ _Walking Library_ Part One_5EYmnshBFJs_YT.mp4</name>
															<enabled>TRUE</enabled>
															<duration>51742</duration>
															<rate>
																<timebase>30</timebase>
																<ntsc>TRUE</ntsc>
															</rate>
															<start>2345</start>
															<end>2635</end>
															<in>44078</in>
															<out>44368</out>
															<pproTicksIn>373590458841600</pproTicksIn>
															<pproTicksOut>376048402329600</pproTicksOut>
															<alphatype>none</alphatype>
															<file id="file-50"/>
															<logginginfo>
																<description></description>
																<scene></scene>
																<shottake></shottake>
																<lognote>https://www.youtube.com/watch?v=5EYmnshBFJs</lognote>
																<good></good>
																<originalvideofilename></originalvideofilename>
																<originalaudiofilename></originalaudiofilename>
															</logginginfo>
															<colorinfo>
																<lut></lut>
																<lut1></lut1>
																<asc_sop></asc_sop>
																<asc_sat></asc_sat>
																<lut2></lut2>
															</colorinfo>
															<labels>
																<label2>Iris</label2>
															</labels>
														</clipitem>
														<clipitem id="clipitem-196">
															<masterclipid>masterclip-62</masterclipid>
															<name>(Rachel Maksy)_Making a Book Page Dress! _ _Walking Library_ Part One_5EYmnshBFJs_YT.mp4</name>
															<enabled>TRUE</enabled>
															<duration>51742</duration>
															<rate>
																<timebase>30</timebase>
																<ntsc>TRUE</ntsc>
															</rate>
															<start>2635</start>
															<end>2821</end>
															<in>44699</in>
															<out>44885</out>
															<pproTicksIn>378853848172800</pproTicksIn>
															<pproTicksOut>380430322272000</pproTicksOut>
															<alphatype>none</alphatype>
															<file id="file-50"/>
															<logginginfo>
																<description></description>
																<scene></scene>
																<shottake></shottake>
																<lognote>https://www.youtube.com/watch?v=5EYmnshBFJs</lognote>
																<good></good>
																<originalvideofilename></originalvideofilename>
																<originalaudiofilename></originalaudiofilename>
															</logginginfo>
															<colorinfo>
																<lut></lut>
																<lut1></lut1>
																<asc_sop></asc_sop>
																<asc_sat></asc_sat>
																<lut2></lut2>
															</colorinfo>
															<labels>
																<label2>Iris</label2>
															</labels>
														</clipitem>
														<enabled>TRUE</enabled>
														<locked>FALSE</locked>
													</track>
													<track TL.SQTrackShy="0" TL.SQTrackExpandedHeight="25" TL.SQTrackExpanded="0" MZ.TrackTargeted="0">
														<clipitem id="clipitem-197">
															<masterclipid>masterclip-63</masterclipid>
															<name>RACHEL MAKSY</name>
															<enabled>TRUE</enabled>
															<duration>5844</duration>
															<rate>
																<timebase>30</timebase>
																<ntsc>TRUE</ntsc>
															</rate>
															<start>0</start>
															<end>2821</end>
															<in>0</in>
															<out>2821</out>
															<pproTicksIn>0</pproTicksIn>
															<pproTicksOut>23909857171200</pproTicksOut>
															<alphatype>straight</alphatype>
															<pixelaspectratio>square</pixelaspectratio>
															<anamorphic>FALSE</anamorphic>
															<file id="file-51">
																<name>1080/AE Attribution.aep</name>
																<pathurl>file://localhost/Volumes/ATM%20JR%202TB/Master%20Assets/AE%20Attribution.aep</pathurl>
																<rate>
																	<timebase>30</timebase>
																	<ntsc>TRUE</ntsc>
																</rate>
																<duration>5844</duration>
																<timecode>
																	<rate>
																		<timebase>30</timebase>
																		<ntsc>TRUE</ntsc>
																	</rate>
																	<string>00;00;00;00</string>
																	<frame>0</frame>
																	<displayformat>DF</displayformat>
																</timecode>
																<media>
																	<video>
																		<samplecharacteristics>
																			<rate>
																				<timebase>30</timebase>
																				<ntsc>TRUE</ntsc>
																			</rate>
																			<width>1920</width>
																			<height>1080</height>
																			<anamorphic>FALSE</anamorphic>
																			<pixelaspectratio>square</pixelaspectratio>
																			<fielddominance>lower</fielddominance>
																		</samplecharacteristics>
																	</video>
																</media>
															</file>
															<logginginfo>
																<description></description>
																<scene></scene>
																<shottake></shottake>
																<lognote></lognote>
																<good></good>
																<originalvideofilename></originalvideofilename>
																<originalaudiofilename></originalaudiofilename>
															</logginginfo>
															<colorinfo>
																<lut></lut>
																<lut1></lut1>
																<asc_sop></asc_sop>
																<asc_sat></asc_sat>
																<lut2></lut2>
															</colorinfo>
															<labels>
																<label2>Rose</label2>
															</labels>
														</clipitem>
														<enabled>TRUE</enabled>
														<locked>FALSE</locked>
													</track>
												</video>
												<audio>
													<numOutputChannels>2</numOutputChannels>
													<format>
														<samplecharacteristics>
															<depth>16</depth>
															<samplerate>48000</samplerate>
														</samplecharacteristics>
													</format>
													<outputs>
														<group>
															<index>1</index>
															<numchannels>1</numchannels>
															<downmix>0</downmix>
															<channel>
																<index>1</index>
															</channel>
														</group>
														<group>
															<index>2</index>
															<numchannels>1</numchannels>
															<downmix>0</downmix>
															<channel>
																<index>2</index>
															</channel>
														</group>
													</outputs>
													<track TL.SQTrackAudioKeyframeStyle="0" TL.SQTrackShy="0" TL.SQTrackExpandedHeight="25" TL.SQTrackExpanded="0" MZ.TrackTargeted="1" PannerCurrentValue="0.5" PannerIsInverted="true" PannerStartKeyframe="-91445760000000000,0.5,0,0,0,0,0,0" PannerName="Balance" currentExplodedTrackIndex="0" totalExplodedTrackCount="2" premiereTrackType="Stereo">
														<enabled>TRUE</enabled>
														<locked>FALSE</locked>
														<outputchannelindex>1</outputchannelindex>
													</track>
													<track TL.SQTrackAudioKeyframeStyle="0" TL.SQTrackShy="0" TL.SQTrackExpandedHeight="25" TL.SQTrackExpanded="0" MZ.TrackTargeted="1" PannerCurrentValue="0.5" PannerIsInverted="true" PannerStartKeyframe="-91445760000000000,0.5,0,0,0,0,0,0" PannerName="Balance" currentExplodedTrackIndex="1" totalExplodedTrackCount="2" premiereTrackType="Stereo">
														<enabled>TRUE</enabled>
														<locked>FALSE</locked>
														<outputchannelindex>2</outputchannelindex>
													</track>
												</audio>
											</media>
											<timecode>
												<rate>
													<timebase>30</timebase>
													<ntsc>TRUE</ntsc>
												</rate>
												<string>00;00;00;00</string>
												<frame>0</frame>
												<displayformat>DF</displayformat>
											</timecode>
											<logginginfo>
												<description></description>
												<scene></scene>
												<shottake></shottake>
												<lognote></lognote>
												<good></good>
												<originalvideofilename></originalvideofilename>
												<originalaudiofilename></originalaudiofilename>
											</logginginfo>
										</sequence>
										<labels>
											<label2>Forest</label2>
										</labels>
									</clipitem>
									<clipitem id="clipitem-198">
										<masterclipid>masterclip-33</masterclipid>
										<name>ATM_HouseAd_2023.mp4</name>
										<enabled>TRUE</enabled>
										<duration>120</duration>
										<rate>
											<timebase>30</timebase>
											<ntsc>TRUE</ntsc>
										</rate>
										<start>5506</start>
										<end>5626</end>
										<in>0</in>
										<out>120</out>
										<pproTicksIn>0</pproTicksIn>
										<pproTicksOut>1017080064000</pproTicksOut>
										<alphatype>none</alphatype>
										<file id="file-27"/>
										<link>
											<linkclipref>clipitem-198</linkclipref>
											<mediatype>video</mediatype>
											<trackindex>1</trackindex>
											<clipindex>3</clipindex>
										</link>
										<link>
											<linkclipref>clipitem-204</linkclipref>
											<mediatype>audio</mediatype>
											<trackindex>1</trackindex>
											<clipindex>2</clipindex>
											<groupindex>1</groupindex>
										</link>
										<link>
											<linkclipref>clipitem-206</linkclipref>
											<mediatype>audio</mediatype>
											<trackindex>2</trackindex>
											<clipindex>2</clipindex>
											<groupindex>1</groupindex>
										</link>
										<logginginfo>
											<description></description>
											<scene></scene>
											<shottake></shottake>
											<lognote></lognote>
											<good></good>
											<originalvideofilename></originalvideofilename>
											<originalaudiofilename></originalaudiofilename>
										</logginginfo>
										<colorinfo>
											<lut></lut>
											<lut1></lut1>
											<asc_sop></asc_sop>
											<asc_sat></asc_sat>
											<lut2></lut2>
										</colorinfo>
										<labels>
											<label2>Iris</label2>
										</labels>
									</clipitem>
									<enabled>TRUE</enabled>
									<locked>FALSE</locked>
								</track>
								<track TL.SQTrackShy="0" TL.SQTrackExpandedHeight="25" TL.SQTrackExpanded="0" MZ.TrackTargeted="0">
									<clipitem id="clipitem-199">
										<masterclipid>masterclip-64</masterclipid>
										<name>RISE AND SIGN</name>
										<enabled>TRUE</enabled>
										<duration>5695</duration>
										<rate>
											<timebase>30</timebase>
											<ntsc>TRUE</ntsc>
										</rate>
										<start>0</start>
										<end>2609</end>
										<in>0</in>
										<out>2609</out>
										<pproTicksIn>0</pproTicksIn>
										<pproTicksOut>22113015724800</pproTicksOut>
										<alphatype>straight</alphatype>
										<pixelaspectratio>square</pixelaspectratio>
										<anamorphic>FALSE</anamorphic>
										<file id="file-52">
											<name>CRAFTY_L3RD_01_JL_V03/CRAFTY_L3RD_01_JL_V03.aep</name>
											<pathurl>file://localhost/Volumes/ATM%20JR%202TB/Master%20Assets/CRAFTY_L3RD_01_JL_V03%20folder/CRAFTY_L3RD_01_JL_V03.aep</pathurl>
											<rate>
												<timebase>30</timebase>
												<ntsc>FALSE</ntsc>
											</rate>
											<duration>5701</duration>
											<timecode>
												<rate>
													<timebase>30</timebase>
													<ntsc>FALSE</ntsc>
												</rate>
												<string>00:00:00:00</string>
												<frame>0</frame>
												<displayformat>NDF</displayformat>
											</timecode>
											<media>
												<video>
													<samplecharacteristics>
														<rate>
															<timebase>30</timebase>
															<ntsc>FALSE</ntsc>
														</rate>
														<width>1920</width>
														<height>1080</height>
														<anamorphic>FALSE</anamorphic>
														<pixelaspectratio>square</pixelaspectratio>
														<fielddominance>lower</fielddominance>
													</samplecharacteristics>
												</video>
											</media>
										</file>
										<logginginfo>
											<description></description>
											<scene></scene>
											<shottake></shottake>
											<lognote></lognote>
											<good></good>
											<originalvideofilename></originalvideofilename>
											<originalaudiofilename></originalaudiofilename>
										</logginginfo>
										<colorinfo>
											<lut></lut>
											<lut1></lut1>
											<asc_sop></asc_sop>
											<asc_sat></asc_sat>
											<lut2></lut2>
										</colorinfo>
										<labels>
											<label2>Rose</label2>
										</labels>
									</clipitem>
									<clipitem id="clipitem-200">
										<masterclipid>masterclip-65</masterclipid>
										<name>SERVING BOOKS</name>
										<enabled>TRUE</enabled>
										<duration>5695</duration>
										<rate>
											<timebase>30</timebase>
											<ntsc>TRUE</ntsc>
										</rate>
										<start>2706</start>
										<end>5506</end>
										<in>0</in>
										<out>2800</out>
										<pproTicksIn>0</pproTicksIn>
										<pproTicksOut>23731868160000</pproTicksOut>
										<alphatype>straight</alphatype>
										<pixelaspectratio>square</pixelaspectratio>
										<anamorphic>FALSE</anamorphic>
										<file id="file-53">
											<name>CRAFTY_L3RD_01_JL_V03/CRAFTY_L3RD_01_JL_V03.aep</name>
											<pathurl>file://localhost/Volumes/ATM%20JR%202TB/Master%20Assets/CRAFTY_L3RD_01_JL_V03%20folder/CRAFTY_L3RD_01_JL_V03.aep</pathurl>
											<rate>
												<timebase>30</timebase>
												<ntsc>FALSE</ntsc>
											</rate>
											<duration>5701</duration>
											<timecode>
												<rate>
													<timebase>30</timebase>
													<ntsc>FALSE</ntsc>
												</rate>
												<string>00:00:00:00</string>
												<frame>0</frame>
												<displayformat>NDF</displayformat>
											</timecode>
											<media>
												<video>
													<samplecharacteristics>
														<rate>
															<timebase>30</timebase>
															<ntsc>FALSE</ntsc>
														</rate>
														<width>1920</width>
														<height>1080</height>
														<anamorphic>FALSE</anamorphic>
														<pixelaspectratio>square</pixelaspectratio>
														<fielddominance>lower</fielddominance>
													</samplecharacteristics>
												</video>
											</media>
										</file>
										<logginginfo>
											<description></description>
											<scene></scene>
											<shottake></shottake>
											<lognote></lognote>
											<good></good>
											<originalvideofilename></originalvideofilename>
											<originalaudiofilename></originalaudiofilename>
										</logginginfo>
										<colorinfo>
											<lut></lut>
											<lut1></lut1>
											<asc_sop></asc_sop>
											<asc_sat></asc_sat>
											<lut2></lut2>
										</colorinfo>
										<labels>
											<label2>Rose</label2>
										</labels>
									</clipitem>
									<enabled>TRUE</enabled>
									<locked>FALSE</locked>
								</track>
								<track TL.SQTrackShy="0" TL.SQTrackExpandedHeight="25" TL.SQTrackExpanded="0" MZ.TrackTargeted="0">
									<clipitem id="clipitem-201">
										<masterclipid>masterclip-9</masterclipid>
										<name>ATM_logo_channels_right-2 (3).png</name>
										<enabled>TRUE</enabled>
										<duration>1294705</duration>
										<rate>
											<timebase>30</timebase>
											<ntsc>TRUE</ntsc>
										</rate>
										<start>0</start>
										<end>5506</end>
										<in>107892</in>
										<out>113398</out>
										<pproTicksIn>914456685542400</pproTicksIn>
										<pproTicksOut>961123709145600</pproTicksOut>
										<alphatype>straight</alphatype>
										<file id="file-7"/>
										<logginginfo>
											<description></description>
											<scene></scene>
											<shottake></shottake>
											<lognote></lognote>
											<good></good>
											<originalvideofilename></originalvideofilename>
											<originalaudiofilename></originalaudiofilename>
										</logginginfo>
										<colorinfo>
											<lut></lut>
											<lut1></lut1>
											<asc_sop></asc_sop>
											<asc_sat></asc_sat>
											<lut2></lut2>
										</colorinfo>
										<labels>
											<label2>Lavender</label2>
										</labels>
									</clipitem>
									<enabled>TRUE</enabled>
									<locked>FALSE</locked>
								</track>
								<track TL.SQTrackShy="0" TL.SQTrackExpandedHeight="25" TL.SQTrackExpanded="0" MZ.TrackTargeted="0">
									<clipitem id="clipitem-202">
										<masterclipid>masterclip-10</masterclipid>
										<name>CRAFTY_TRAN01_JL_V01.mov</name>
										<enabled>TRUE</enabled>
										<duration>120</duration>
										<rate>
											<timebase>30</timebase>
											<ntsc>TRUE</ntsc>
										</rate>
										<start>2586</start>
										<end>2706</end>
										<in>0</in>
										<out>120</out>
										<pproTicksIn>0</pproTicksIn>
										<pproTicksOut>1017080064000</pproTicksOut>
										<alphatype>none</alphatype>
										<file id="file-8"/>
										<link>
											<linkclipref>clipitem-202</linkclipref>
											<mediatype>video</mediatype>
											<trackindex>4</trackindex>
											<clipindex>1</clipindex>
										</link>
										<link>
											<linkclipref>clipitem-203</linkclipref>
											<mediatype>audio</mediatype>
											<trackindex>1</trackindex>
											<clipindex>1</clipindex>
											<groupindex>1</groupindex>
										</link>
										<link>
											<linkclipref>clipitem-205</linkclipref>
											<mediatype>audio</mediatype>
											<trackindex>2</trackindex>
											<clipindex>1</clipindex>
											<groupindex>1</groupindex>
										</link>
										<logginginfo>
											<description></description>
											<scene></scene>
											<shottake></shottake>
											<lognote></lognote>
											<good></good>
											<originalvideofilename></originalvideofilename>
											<originalaudiofilename></originalaudiofilename>
										</logginginfo>
										<colorinfo>
											<lut></lut>
											<lut1></lut1>
											<asc_sop></asc_sop>
											<asc_sat></asc_sat>
											<lut2></lut2>
										</colorinfo>
										<labels>
											<label2>Iris</label2>
										</labels>
									</clipitem>
									<enabled>TRUE</enabled>
									<locked>FALSE</locked>
								</track>
							</video>
							<audio>
								<numOutputChannels>2</numOutputChannels>
								<format>
									<samplecharacteristics>
										<depth>16</depth>
										<samplerate>48000</samplerate>
									</samplecharacteristics>
								</format>
								<outputs>
									<group>
										<index>1</index>
										<numchannels>1</numchannels>
										<downmix>0</downmix>
										<channel>
											<index>1</index>
										</channel>
									</group>
									<group>
										<index>2</index>
										<numchannels>1</numchannels>
										<downmix>0</downmix>
										<channel>
											<index>2</index>
										</channel>
									</group>
								</outputs>
								<track TL.SQTrackAudioKeyframeStyle="0" TL.SQTrackShy="0" TL.SQTrackExpandedHeight="79" TL.SQTrackExpanded="0" MZ.TrackTargeted="1" PannerCurrentValue="0.5" PannerIsInverted="true" PannerStartKeyframe="-91445760000000000,0.5,0,0,0,0,0,0" PannerName="Balance" currentExplodedTrackIndex="0" totalExplodedTrackCount="2" premiereTrackType="Stereo">
									<clipitem id="clipitem-203" premiereChannelType="stereo">
										<masterclipid>masterclip-10</masterclipid>
										<name>CRAFTY_TRAN01_JL_V01.mov</name>
										<enabled>TRUE</enabled>
										<duration>120</duration>
										<rate>
											<timebase>30</timebase>
											<ntsc>TRUE</ntsc>
										</rate>
										<start>2586</start>
										<end>2706</end>
										<in>0</in>
										<out>120</out>
										<pproTicksIn>0</pproTicksIn>
										<pproTicksOut>1017080064000</pproTicksOut>
										<file id="file-8"/>
										<sourcetrack>
											<mediatype>audio</mediatype>
											<trackindex>1</trackindex>
										</sourcetrack>
										<link>
											<linkclipref>clipitem-202</linkclipref>
											<mediatype>video</mediatype>
											<trackindex>4</trackindex>
											<clipindex>1</clipindex>
										</link>
										<link>
											<linkclipref>clipitem-203</linkclipref>
											<mediatype>audio</mediatype>
											<trackindex>1</trackindex>
											<clipindex>1</clipindex>
											<groupindex>1</groupindex>
										</link>
										<link>
											<linkclipref>clipitem-205</linkclipref>
											<mediatype>audio</mediatype>
											<trackindex>2</trackindex>
											<clipindex>1</clipindex>
											<groupindex>1</groupindex>
										</link>
										<logginginfo>
											<description></description>
											<scene></scene>
											<shottake></shottake>
											<lognote></lognote>
											<good></good>
											<originalvideofilename></originalvideofilename>
											<originalaudiofilename></originalaudiofilename>
										</logginginfo>
										<colorinfo>
											<lut></lut>
											<lut1></lut1>
											<asc_sop></asc_sop>
											<asc_sat></asc_sat>
											<lut2></lut2>
										</colorinfo>
										<labels>
											<label2>Iris</label2>
										</labels>
									</clipitem>
									<clipitem id="clipitem-204" premiereChannelType="stereo">
										<masterclipid>masterclip-33</masterclipid>
										<name>ATM_HouseAd_2023.mp4</name>
										<enabled>TRUE</enabled>
										<duration>120</duration>
										<rate>
											<timebase>30</timebase>
											<ntsc>TRUE</ntsc>
										</rate>
										<start>5506</start>
										<end>5626</end>
										<in>0</in>
										<out>120</out>
										<pproTicksIn>0</pproTicksIn>
										<pproTicksOut>1017080064000</pproTicksOut>
										<file id="file-27"/>
										<sourcetrack>
											<mediatype>audio</mediatype>
											<trackindex>1</trackindex>
										</sourcetrack>
										<link>
											<linkclipref>clipitem-198</linkclipref>
											<mediatype>video</mediatype>
											<trackindex>1</trackindex>
											<clipindex>3</clipindex>
										</link>
										<link>
											<linkclipref>clipitem-204</linkclipref>
											<mediatype>audio</mediatype>
											<trackindex>1</trackindex>
											<clipindex>2</clipindex>
											<groupindex>1</groupindex>
										</link>
										<link>
											<linkclipref>clipitem-206</linkclipref>
											<mediatype>audio</mediatype>
											<trackindex>2</trackindex>
											<clipindex>2</clipindex>
											<groupindex>1</groupindex>
										</link>
										<logginginfo>
											<description></description>
											<scene></scene>
											<shottake></shottake>
											<lognote></lognote>
											<good></good>
											<originalvideofilename></originalvideofilename>
											<originalaudiofilename></originalaudiofilename>
										</logginginfo>
										<colorinfo>
											<lut></lut>
											<lut1></lut1>
											<asc_sop></asc_sop>
											<asc_sat></asc_sat>
											<lut2></lut2>
										</colorinfo>
										<labels>
											<label2>Iris</label2>
										</labels>
									</clipitem>
									<enabled>TRUE</enabled>
									<locked>FALSE</locked>
									<outputchannelindex>1</outputchannelindex>
								</track>
								<track TL.SQTrackAudioKeyframeStyle="0" TL.SQTrackShy="0" TL.SQTrackExpandedHeight="79" TL.SQTrackExpanded="0" MZ.TrackTargeted="1" PannerCurrentValue="0.5" PannerIsInverted="true" PannerStartKeyframe="-91445760000000000,0.5,0,0,0,0,0,0" PannerName="Balance" currentExplodedTrackIndex="1" totalExplodedTrackCount="2" premiereTrackType="Stereo">
									<clipitem id="clipitem-205" premiereChannelType="stereo">
										<masterclipid>masterclip-10</masterclipid>
										<name>CRAFTY_TRAN01_JL_V01.mov</name>
										<enabled>TRUE</enabled>
										<duration>120</duration>
										<rate>
											<timebase>30</timebase>
											<ntsc>TRUE</ntsc>
										</rate>
										<start>2586</start>
										<end>2706</end>
										<in>0</in>
										<out>120</out>
										<pproTicksIn>0</pproTicksIn>
										<pproTicksOut>1017080064000</pproTicksOut>
										<file id="file-8"/>
										<sourcetrack>
											<mediatype>audio</mediatype>
											<trackindex>2</trackindex>
										</sourcetrack>
										<link>
											<linkclipref>clipitem-202</linkclipref>
											<mediatype>video</mediatype>
											<trackindex>4</trackindex>
											<clipindex>1</clipindex>
										</link>
										<link>
											<linkclipref>clipitem-203</linkclipref>
											<mediatype>audio</mediatype>
											<trackindex>1</trackindex>
											<clipindex>1</clipindex>
											<groupindex>1</groupindex>
										</link>
										<link>
											<linkclipref>clipitem-205</linkclipref>
											<mediatype>audio</mediatype>
											<trackindex>2</trackindex>
											<clipindex>1</clipindex>
											<groupindex>1</groupindex>
										</link>
										<logginginfo>
											<description></description>
											<scene></scene>
											<shottake></shottake>
											<lognote></lognote>
											<good></good>
											<originalvideofilename></originalvideofilename>
											<originalaudiofilename></originalaudiofilename>
										</logginginfo>
										<colorinfo>
											<lut></lut>
											<lut1></lut1>
											<asc_sop></asc_sop>
											<asc_sat></asc_sat>
											<lut2></lut2>
										</colorinfo>
										<labels>
											<label2>Iris</label2>
										</labels>
									</clipitem>
									<clipitem id="clipitem-206" premiereChannelType="stereo">
										<masterclipid>masterclip-33</masterclipid>
										<name>ATM_HouseAd_2023.mp4</name>
										<enabled>TRUE</enabled>
										<duration>120</duration>
										<rate>
											<timebase>30</timebase>
											<ntsc>TRUE</ntsc>
										</rate>
										<start>5506</start>
										<end>5626</end>
										<in>0</in>
										<out>120</out>
										<pproTicksIn>0</pproTicksIn>
										<pproTicksOut>1017080064000</pproTicksOut>
										<file id="file-27"/>
										<sourcetrack>
											<mediatype>audio</mediatype>
											<trackindex>2</trackindex>
										</sourcetrack>
										<link>
											<linkclipref>clipitem-198</linkclipref>
											<mediatype>video</mediatype>
											<trackindex>1</trackindex>
											<clipindex>3</clipindex>
										</link>
										<link>
											<linkclipref>clipitem-204</linkclipref>
											<mediatype>audio</mediatype>
											<trackindex>1</trackindex>
											<clipindex>2</clipindex>
											<groupindex>1</groupindex>
										</link>
										<link>
											<linkclipref>clipitem-206</linkclipref>
											<mediatype>audio</mediatype>
											<trackindex>2</trackindex>
											<clipindex>2</clipindex>
											<groupindex>1</groupindex>
										</link>
										<logginginfo>
											<description></description>
											<scene></scene>
											<shottake></shottake>
											<lognote></lognote>
											<good></good>
											<originalvideofilename></originalvideofilename>
											<originalaudiofilename></originalaudiofilename>
										</logginginfo>
										<colorinfo>
											<lut></lut>
											<lut1></lut1>
											<asc_sop></asc_sop>
											<asc_sat></asc_sat>
											<lut2></lut2>
										</colorinfo>
										<labels>
											<label2>Iris</label2>
										</labels>
									</clipitem>
									<enabled>TRUE</enabled>
									<locked>FALSE</locked>
									<outputchannelindex>2</outputchannelindex>
								</track>
								<track TL.SQTrackAudioKeyframeStyle="0" TL.SQTrackShy="0" TL.SQTrackExpandedHeight="79" TL.SQTrackExpanded="0" MZ.TrackTargeted="1" PannerCurrentValue="0.5" PannerIsInverted="true" PannerStartKeyframe="-91445760000000000,0.5,0,0,0,0,0,0" PannerName="Balance" currentExplodedTrackIndex="0" totalExplodedTrackCount="2" premiereTrackType="Stereo">
									<clipitem id="clipitem-207" premiereChannelType="stereo">
										<masterclipid>masterclip-66</masterclipid>
										<name>ES_Precious Stones - Auxjack.wav</name>
										<enabled>TRUE</enabled>
										<duration>3904</duration>
										<rate>
											<timebase>30</timebase>
											<ntsc>TRUE</ntsc>
										</rate>
										<start>0</start>
										<end>-1</end>
										<in>0</in>
										<out>2586</out>
										<pproTicksIn>0</pproTicksIn>
										<pproTicksOut>21918075379200</pproTicksOut>
										<file id="file-54">
											<name>ES_Precious Stones - Auxjack.wav</name>
											<pathurl>file://localhost/Volumes/CONTENT/VOD%20CONTENT%20ARCHIVE/O&amp;O%20Archive%202023/CRAFTY/03_March/Crafty_3-20-2023/5_Music/ES_Precious%20Stones%20-%20Auxjack.wav</pathurl>
											<rate>
												<timebase>30</timebase>
												<ntsc>TRUE</ntsc>
											</rate>
											<duration>3904</duration>
											<timecode>
												<rate>
													<timebase>30</timebase>
													<ntsc>TRUE</ntsc>
												</rate>
												<string>00;00;30;24</string>
												<frame>924</frame>
												<displayformat>DF</displayformat>
											</timecode>
											<media>
												<audio>
													<samplecharacteristics>
														<depth>16</depth>
														<samplerate>48000</samplerate>
													</samplecharacteristics>
													<channelcount>2</channelcount>
												</audio>
											</media>
										</file>
										<sourcetrack>
											<mediatype>audio</mediatype>
											<trackindex>1</trackindex>
										</sourcetrack>
										<filter>
											<effect>
												<name>Audio Levels</name>
												<effectid>audiolevels</effectid>
												<effectcategory>audiolevels</effectcategory>
												<effecttype>audiolevels</effecttype>
												<mediatype>audio</mediatype>
												<pproBypass>false</pproBypass>
												<parameter authoringApp="PremierePro">
													<parameterid>level</parameterid>
													<name>Level</name>
													<valuemin>0</valuemin>
													<valuemax>3.98109</valuemax>
													<value>0.668353</value>
													<keyframe>
														<when>364</when>
														<value>1</value>
													</keyframe>
													<keyframe>
														<when>480</when>
														<value>0.581827</value>
													</keyframe>
													<keyframe>
														<when>1192</when>
														<value>0.581827</value>
													</keyframe>
													<keyframe>
														<when>1316</when>
														<value>1</value>
													</keyframe>
													<keyframe>
														<when>1572</when>
														<value>1</value>
													</keyframe>
													<keyframe>
														<when>1655</when>
														<value>0.668353</value>
													</keyframe>
												</parameter>
											</effect>
										</filter>
										<link>
											<linkclipref>clipitem-207</linkclipref>
											<mediatype>audio</mediatype>
											<trackindex>3</trackindex>
											<clipindex>1</clipindex>
											<groupindex>1</groupindex>
										</link>
										<link>
											<linkclipref>clipitem-209</linkclipref>
											<mediatype>audio</mediatype>
											<trackindex>4</trackindex>
											<clipindex>1</clipindex>
											<groupindex>1</groupindex>
										</link>
										<logginginfo>
											<description></description>
											<scene></scene>
											<shottake></shottake>
											<lognote></lognote>
											<good></good>
											<originalvideofilename></originalvideofilename>
											<originalaudiofilename></originalaudiofilename>
										</logginginfo>
										<colorinfo>
											<lut></lut>
											<lut1></lut1>
											<asc_sop></asc_sop>
											<asc_sat></asc_sat>
											<lut2></lut2>
										</colorinfo>
										<labels>
											<label2>Caribbean</label2>
										</labels>
									</clipitem>
									<transitionitem>
										<start>2467</start>
										<end>2586</end>
										<pproTicksIn>20900997432000</pproTicksIn>
										<pproTicksOut>21918075379200</pproTicksOut>
										<alignment>end-black</alignment>
										<cutPointTicks>1017077947200</cutPointTicks>
										<rate>
											<timebase>30</timebase>
											<ntsc>TRUE</ntsc>
										</rate>
										<effect>
											<name>Cross Fade (+3dB)</name>
											<effectid>KGAudioTransCrossFade3dB</effectid>
											<effecttype>transition</effecttype>
											<mediatype>audio</mediatype>
											<wipecode>0</wipecode>
											<wipeaccuracy>100</wipeaccuracy>
											<startratio>0</startratio>
											<endratio>1</endratio>
											<reverse>FALSE</reverse>
										</effect>
									</transitionitem>
									<clipitem id="clipitem-208" premiereChannelType="stereo">
										<masterclipid>masterclip-67</masterclipid>
										<name>ES_Sage and Incense - Sarah, the Illstrumentalist.wav</name>
										<enabled>TRUE</enabled>
										<duration>4461</duration>
										<rate>
											<timebase>30</timebase>
											<ntsc>TRUE</ntsc>
										</rate>
										<start>2706</start>
										<end>-1</end>
										<in>0</in>
										<out>2800</out>
										<pproTicksIn>0</pproTicksIn>
										<pproTicksOut>23731868160000</pproTicksOut>
										<file id="file-55">
											<name>ES_Sage and Incense - Sarah, the Illstrumentalist.wav</name>
											<pathurl>file://localhost/Volumes/CONTENT/VOD%20CONTENT%20ARCHIVE/O&amp;O%20Archive%202023/CRAFTY/03_March/Crafty_3-20-2023/5_Music/ES_Sage%20and%20Incense%20-%20Sarah,%20the%20Illstrumentalist.wav</pathurl>
											<rate>
												<timebase>30</timebase>
												<ntsc>TRUE</ntsc>
											</rate>
											<duration>4461</duration>
											<timecode>
												<rate>
													<timebase>30</timebase>
													<ntsc>TRUE</ntsc>
												</rate>
												<string>07;01;39;29</string>
												<frame>758241</frame>
												<displayformat>DF</displayformat>
											</timecode>
											<media>
												<audio>
													<samplecharacteristics>
														<depth>16</depth>
														<samplerate>48000</samplerate>
													</samplecharacteristics>
													<channelcount>2</channelcount>
												</audio>
											</media>
										</file>
										<sourcetrack>
											<mediatype>audio</mediatype>
											<trackindex>1</trackindex>
										</sourcetrack>
										<filter>
											<effect>
												<name>Audio Levels</name>
												<effectid>audiolevels</effectid>
												<effectcategory>audiolevels</effectcategory>
												<effecttype>audiolevels</effecttype>
												<mediatype>audio</mediatype>
												<pproBypass>false</pproBypass>
												<parameter authoringApp="PremierePro">
													<parameterid>level</parameterid>
													<name>Level</name>
													<valuemin>0</valuemin>
													<valuemax>3.98109</valuemax>
													<value>1</value>
													<keyframe>
														<when>514</when>
														<value>1</value>
													</keyframe>
													<keyframe>
														<when>630</when>
														<value>0.464331</value>
													</keyframe>
												</parameter>
											</effect>
										</filter>
										<link>
											<linkclipref>clipitem-208</linkclipref>
											<mediatype>audio</mediatype>
											<trackindex>3</trackindex>
											<clipindex>3</clipindex>
											<groupindex>1</groupindex>
										</link>
										<link>
											<linkclipref>clipitem-210</linkclipref>
											<mediatype>audio</mediatype>
											<trackindex>4</trackindex>
											<clipindex>3</clipindex>
											<groupindex>1</groupindex>
										</link>
										<logginginfo>
											<description></description>
											<scene></scene>
											<shottake></shottake>
											<lognote></lognote>
											<good></good>
											<originalvideofilename></originalvideofilename>
											<originalaudiofilename></originalaudiofilename>
										</logginginfo>
										<colorinfo>
											<lut></lut>
											<lut1></lut1>
											<asc_sop></asc_sop>
											<asc_sat></asc_sat>
											<lut2></lut2>
										</colorinfo>
										<labels>
											<label2>Caribbean</label2>
										</labels>
									</clipitem>
									<transitionitem>
										<start>5387</start>
										<end>5506</end>
										<pproTicksIn>45649945656000</pproTicksIn>
										<pproTicksOut>46667023603200</pproTicksOut>
										<alignment>end-black</alignment>
										<cutPointTicks>1017077947200</cutPointTicks>
										<rate>
											<timebase>30</timebase>
											<ntsc>TRUE</ntsc>
										</rate>
										<effect>
											<name>Cross Fade (+3dB)</name>
											<effectid>KGAudioTransCrossFade3dB</effectid>
											<effecttype>transition</effecttype>
											<mediatype>audio</mediatype>
											<wipecode>0</wipecode>
											<wipeaccuracy>100</wipeaccuracy>
											<startratio>0</startratio>
											<endratio>1</endratio>
											<reverse>FALSE</reverse>
										</effect>
									</transitionitem>
									<enabled>TRUE</enabled>
									<locked>FALSE</locked>
									<outputchannelindex>1</outputchannelindex>
								</track>
								<track TL.SQTrackAudioKeyframeStyle="0" TL.SQTrackShy="0" TL.SQTrackExpandedHeight="79" TL.SQTrackExpanded="0" MZ.TrackTargeted="1" PannerCurrentValue="0.5" PannerIsInverted="true" PannerStartKeyframe="-91445760000000000,0.5,0,0,0,0,0,0" PannerName="Balance" currentExplodedTrackIndex="1" totalExplodedTrackCount="2" premiereTrackType="Stereo">
									<clipitem id="clipitem-209" premiereChannelType="stereo">
										<masterclipid>masterclip-66</masterclipid>
										<name>ES_Precious Stones - Auxjack.wav</name>
										<enabled>TRUE</enabled>
										<duration>3904</duration>
										<rate>
											<timebase>30</timebase>
											<ntsc>TRUE</ntsc>
										</rate>
										<start>0</start>
										<end>-1</end>
										<in>0</in>
										<out>2586</out>
										<pproTicksIn>0</pproTicksIn>
										<pproTicksOut>21918075379200</pproTicksOut>
										<file id="file-54"/>
										<sourcetrack>
											<mediatype>audio</mediatype>
											<trackindex>2</trackindex>
										</sourcetrack>
										<filter>
											<effect>
												<name>Audio Levels</name>
												<effectid>audiolevels</effectid>
												<effectcategory>audiolevels</effectcategory>
												<effecttype>audiolevels</effecttype>
												<mediatype>audio</mediatype>
												<pproBypass>false</pproBypass>
												<parameter authoringApp="PremierePro">
													<parameterid>level</parameterid>
													<name>Level</name>
													<valuemin>0</valuemin>
													<valuemax>3.98109</valuemax>
													<value>0.668353</value>
													<keyframe>
														<when>364</when>
														<value>1</value>
													</keyframe>
													<keyframe>
														<when>480</when>
														<value>0.581827</value>
													</keyframe>
													<keyframe>
														<when>1192</when>
														<value>0.581827</value>
													</keyframe>
													<keyframe>
														<when>1316</when>
														<value>1</value>
													</keyframe>
													<keyframe>
														<when>1572</when>
														<value>1</value>
													</keyframe>
													<keyframe>
														<when>1655</when>
														<value>0.668353</value>
													</keyframe>
												</parameter>
											</effect>
										</filter>
										<link>
											<linkclipref>clipitem-207</linkclipref>
											<mediatype>audio</mediatype>
											<trackindex>3</trackindex>
											<clipindex>1</clipindex>
											<groupindex>1</groupindex>
										</link>
										<link>
											<linkclipref>clipitem-209</linkclipref>
											<mediatype>audio</mediatype>
											<trackindex>4</trackindex>
											<clipindex>1</clipindex>
											<groupindex>1</groupindex>
										</link>
										<logginginfo>
											<description></description>
											<scene></scene>
											<shottake></shottake>
											<lognote></lognote>
											<good></good>
											<originalvideofilename></originalvideofilename>
											<originalaudiofilename></originalaudiofilename>
										</logginginfo>
										<colorinfo>
											<lut></lut>
											<lut1></lut1>
											<asc_sop></asc_sop>
											<asc_sat></asc_sat>
											<lut2></lut2>
										</colorinfo>
										<labels>
											<label2>Caribbean</label2>
										</labels>
									</clipitem>
									<transitionitem>
										<start>2467</start>
										<end>2586</end>
										<pproTicksIn>20900997432000</pproTicksIn>
										<pproTicksOut>21918075379200</pproTicksOut>
										<alignment>end-black</alignment>
										<cutPointTicks>1017077947200</cutPointTicks>
										<rate>
											<timebase>30</timebase>
											<ntsc>TRUE</ntsc>
										</rate>
										<effect>
											<name>Cross Fade (+3dB)</name>
											<effectid>KGAudioTransCrossFade3dB</effectid>
											<effecttype>transition</effecttype>
											<mediatype>audio</mediatype>
											<wipecode>0</wipecode>
											<wipeaccuracy>100</wipeaccuracy>
											<startratio>0</startratio>
											<endratio>1</endratio>
											<reverse>FALSE</reverse>
										</effect>
									</transitionitem>
									<clipitem id="clipitem-210" premiereChannelType="stereo">
										<masterclipid>masterclip-67</masterclipid>
										<name>ES_Sage and Incense - Sarah, the Illstrumentalist.wav</name>
										<enabled>TRUE</enabled>
										<duration>4461</duration>
										<rate>
											<timebase>30</timebase>
											<ntsc>TRUE</ntsc>
										</rate>
										<start>2706</start>
										<end>-1</end>
										<in>0</in>
										<out>2800</out>
										<pproTicksIn>0</pproTicksIn>
										<pproTicksOut>23731868160000</pproTicksOut>
										<file id="file-55"/>
										<sourcetrack>
											<mediatype>audio</mediatype>
											<trackindex>2</trackindex>
										</sourcetrack>
										<filter>
											<effect>
												<name>Audio Levels</name>
												<effectid>audiolevels</effectid>
												<effectcategory>audiolevels</effectcategory>
												<effecttype>audiolevels</effecttype>
												<mediatype>audio</mediatype>
												<pproBypass>false</pproBypass>
												<parameter authoringApp="PremierePro">
													<parameterid>level</parameterid>
													<name>Level</name>
													<valuemin>0</valuemin>
													<valuemax>3.98109</valuemax>
													<value>1</value>
													<keyframe>
														<when>514</when>
														<value>1</value>
													</keyframe>
													<keyframe>
														<when>630</when>
														<value>0.464331</value>
													</keyframe>
												</parameter>
											</effect>
										</filter>
										<link>
											<linkclipref>clipitem-208</linkclipref>
											<mediatype>audio</mediatype>
											<trackindex>3</trackindex>
											<clipindex>3</clipindex>
											<groupindex>1</groupindex>
										</link>
										<link>
											<linkclipref>clipitem-210</linkclipref>
											<mediatype>audio</mediatype>
											<trackindex>4</trackindex>
											<clipindex>3</clipindex>
											<groupindex>1</groupindex>
										</link>
										<logginginfo>
											<description></description>
											<scene></scene>
											<shottake></shottake>
											<lognote></lognote>
											<good></good>
											<originalvideofilename></originalvideofilename>
											<originalaudiofilename></originalaudiofilename>
										</logginginfo>
										<colorinfo>
											<lut></lut>
											<lut1></lut1>
											<asc_sop></asc_sop>
											<asc_sat></asc_sat>
											<lut2></lut2>
										</colorinfo>
										<labels>
											<label2>Caribbean</label2>
										</labels>
									</clipitem>
									<transitionitem>
										<start>5387</start>
										<end>5506</end>
										<pproTicksIn>45649945656000</pproTicksIn>
										<pproTicksOut>46667023603200</pproTicksOut>
										<alignment>end-black</alignment>
										<cutPointTicks>1017077947200</cutPointTicks>
										<rate>
											<timebase>30</timebase>
											<ntsc>TRUE</ntsc>
										</rate>
										<effect>
											<name>Cross Fade (+3dB)</name>
											<effectid>KGAudioTransCrossFade3dB</effectid>
											<effecttype>transition</effecttype>
											<mediatype>audio</mediatype>
											<wipecode>0</wipecode>
											<wipeaccuracy>100</wipeaccuracy>
											<startratio>0</startratio>
											<endratio>1</endratio>
											<reverse>FALSE</reverse>
										</effect>
									</transitionitem>
									<enabled>TRUE</enabled>
									<locked>FALSE</locked>
									<outputchannelindex>2</outputchannelindex>
								</track>
								<track TL.SQTrackAudioKeyframeStyle="0" TL.SQTrackShy="0" TL.SQTrackExpandedHeight="79" TL.SQTrackExpanded="0" MZ.TrackTargeted="1" PannerCurrentValue="0.5" PannerIsInverted="true" PannerStartKeyframe="-91445760000000000,0.5,0,0,0,0,0,0" PannerName="Balance" currentExplodedTrackIndex="0" totalExplodedTrackCount="2" premiereTrackType="Stereo">
									<enabled>TRUE</enabled>
									<locked>FALSE</locked>
									<outputchannelindex>1</outputchannelindex>
								</track>
								<track TL.SQTrackAudioKeyframeStyle="0" TL.SQTrackShy="0" TL.SQTrackExpandedHeight="79" TL.SQTrackExpanded="0" MZ.TrackTargeted="1" PannerCurrentValue="0.5" PannerIsInverted="true" PannerStartKeyframe="-91445760000000000,0.5,0,0,0,0,0,0" PannerName="Balance" currentExplodedTrackIndex="1" totalExplodedTrackCount="2" premiereTrackType="Stereo">
									<enabled>TRUE</enabled>
									<locked>FALSE</locked>
									<outputchannelindex>2</outputchannelindex>
								</track>
								<track TL.SQTrackAudioKeyframeStyle="0" TL.SQTrackShy="0" TL.SQTrackExpandedHeight="79" TL.SQTrackExpanded="0" MZ.TrackTargeted="0" PannerCurrentValue="0.5" PannerIsInverted="true" PannerStartKeyframe="-91445760000000000,0.5,0,0,0,0,0,0" PannerName="Balance" currentExplodedTrackIndex="0" totalExplodedTrackCount="2" premiereTrackType="Stereo">
									<enabled>TRUE</enabled>
									<locked>FALSE</locked>
									<outputchannelindex>1</outputchannelindex>
								</track>
								<track TL.SQTrackAudioKeyframeStyle="0" TL.SQTrackShy="0" TL.SQTrackExpandedHeight="79" TL.SQTrackExpanded="0" MZ.TrackTargeted="0" PannerCurrentValue="0.5" PannerIsInverted="true" PannerStartKeyframe="-91445760000000000,0.5,0,0,0,0,0,0" PannerName="Balance" currentExplodedTrackIndex="1" totalExplodedTrackCount="2" premiereTrackType="Stereo">
									<enabled>TRUE</enabled>
									<locked>FALSE</locked>
									<outputchannelindex>2</outputchannelindex>
								</track>
							</audio>
						</media>
						<timecode>
							<rate>
								<timebase>30</timebase>
								<ntsc>TRUE</ntsc>
							</rate>
							<string>00;00;00;00</string>
							<frame>0</frame>
							<displayformat>DF</displayformat>
						</timecode>
						<labels>
							<label2>Forest</label2>
						</labels>
						<logginginfo>
							<description></description>
							<scene></scene>
							<shottake></shottake>
							<lognote></lognote>
							<good></good>
							<originalvideofilename></originalvideofilename>
							<originalaudiofilename></originalaudiofilename>
						</logginginfo>
					</sequence>
					<sequence id="sequence-19" TL.SQAudioVisibleBase="0" TL.SQVideoVisibleBase="0" TL.SQVisibleBaseTime="0" TL.SQAVDividerPosition="0.5" TL.SQHideShyTracks="0" TL.SQHeaderWidth="236" TL.SQDataTrackViewControlState="0" Monitor.ProgramZoomOut="47472211987200" Monitor.ProgramZoomIn="0" TL.SQTimePerPixel="0.29888268195976386" MZ.EditLine="46768731609600" MZ.Sequence.PreviewFrameSizeHeight="1080" MZ.Sequence.PreviewFrameSizeWidth="1920" MZ.Sequence.AudioTimeDisplayFormat="200" MZ.Sequence.PreviewRenderingClassID="1061109567" MZ.Sequence.PreviewRenderingPresetCodec="1634755443" MZ.Sequence.PreviewRenderingPresetPath="EncoderPresets/SequencePreview/35d109db-457b-43c1-9452-9cb7be9f121c/QuickTime.epr" MZ.Sequence.PreviewUseMaxRenderQuality="false" MZ.Sequence.PreviewUseMaxBitDepth="false" MZ.Sequence.EditingModeGUID="35d109db-457b-43c1-9452-9cb7be9f121c" MZ.Sequence.VideoTimeDisplayFormat="102" MZ.WorkOutPoint="15239249625600" MZ.WorkInPoint="0" explodedTracks="true">
						<uuid>f4ddf65d-a7b6-4e80-ad3c-09211273adad</uuid>
						<duration>5601</duration>
						<rate>
							<timebase>30</timebase>
							<ntsc>TRUE</ntsc>
						</rate>
						<name>ATM_CRAFTY_187</name>
						<media>
							<video>
								<format>
									<samplecharacteristics>
										<rate>
											<timebase>30</timebase>
											<ntsc>TRUE</ntsc>
										</rate>
										<codec>
											<name>Apple ProRes 422</name>
											<appspecificdata>
												<appname>Final Cut Pro</appname>
												<appmanufacturer>Apple Inc.</appmanufacturer>
												<appversion>7.0</appversion>
												<data>
													<qtcodec>
														<codecname>Apple ProRes 422</codecname>
														<codectypename>Apple ProRes 422</codectypename>
														<codectypecode>apcn</codectypecode>
														<codecvendorcode>appl</codecvendorcode>
														<spatialquality>1024</spatialquality>
														<temporalquality>0</temporalquality>
														<keyframerate>0</keyframerate>
														<datarate>0</datarate>
													</qtcodec>
												</data>
											</appspecificdata>
										</codec>
										<width>1920</width>
										<height>1080</height>
										<anamorphic>FALSE</anamorphic>
										<pixelaspectratio>square</pixelaspectratio>
										<fielddominance>none</fielddominance>
										<colordepth>24</colordepth>
									</samplecharacteristics>
								</format>
								<track TL.SQTrackShy="0" TL.SQTrackExpandedHeight="25" TL.SQTrackExpanded="0" MZ.TrackTargeted="1">
									<clipitem id="clipitem-211">
										<masterclipid>masterclip-68</masterclipid>
										<name>DIY_ISLANDLIFE_2</name>
										<enabled>TRUE</enabled>
										<duration>3697</duration>
										<rate>
											<timebase>30</timebase>
											<ntsc>TRUE</ntsc>
										</rate>
										<start>0</start>
										<end>3681</end>
										<in>0</in>
										<out>3681</out>
										<pproTicksIn>0</pproTicksIn>
										<pproTicksOut>31198930963200</pproTicksOut>
										<sequence id="sequence-20" TL.SQAudioVisibleBase="0" TL.SQVideoVisibleBase="0" TL.SQVisibleBaseTime="0" TL.SQAVDividerPosition="0.5" TL.SQHideShyTracks="0" TL.SQHeaderWidth="236" TL.SQDataTrackViewControlState="0" Monitor.ProgramZoomOut="31198930963200" Monitor.ProgramZoomIn="0" TL.SQTimePerPixel="0.22552649398257613" MZ.EditLine="29410565184000" MZ.Sequence.PreviewFrameSizeHeight="1080" MZ.Sequence.PreviewFrameSizeWidth="1920" MZ.Sequence.AudioTimeDisplayFormat="200" MZ.Sequence.PreviewRenderingClassID="1061109567" MZ.Sequence.PreviewRenderingPresetCodec="1634755443" MZ.Sequence.PreviewRenderingPresetPath="EncoderPresets/SequencePreview/35d109db-457b-43c1-9452-9cb7be9f121c/QuickTime.epr" MZ.Sequence.PreviewUseMaxRenderQuality="false" MZ.Sequence.PreviewUseMaxBitDepth="false" MZ.Sequence.EditingModeGUID="35d109db-457b-43c1-9452-9cb7be9f121c" MZ.Sequence.VideoTimeDisplayFormat="102" MZ.WorkOutPoint="31198930963200" MZ.WorkInPoint="0">
											<duration>3681</duration>
											<rate>
												<timebase>30</timebase>
												<ntsc>TRUE</ntsc>
											</rate>
											<name>DIY_ISLANDLIFE_2</name>
											<media>
												<video>
													<format>
														<samplecharacteristics>
															<rate>
																<timebase>30</timebase>
																<ntsc>TRUE</ntsc>
															</rate>
															<codec>
																<name>Apple ProRes 422</name>
																<appspecificdata>
																	<appname>Final Cut Pro</appname>
																	<appmanufacturer>Apple Inc.</appmanufacturer>
																	<appversion>7.0</appversion>
																	<data>
																		<qtcodec>
																			<codecname>Apple ProRes 422</codecname>
																			<codectypename>Apple ProRes 422</codectypename>
																			<codectypecode>apcn</codectypecode>
																			<codecvendorcode>appl</codecvendorcode>
																			<spatialquality>1024</spatialquality>
																			<temporalquality>0</temporalquality>
																			<keyframerate>0</keyframerate>
																			<datarate>0</datarate>
																		</qtcodec>
																	</data>
																</appspecificdata>
															</codec>
															<width>1920</width>
															<height>1080</height>
															<anamorphic>FALSE</anamorphic>
															<pixelaspectratio>square</pixelaspectratio>
															<fielddominance>none</fielddominance>
															<colordepth>24</colordepth>
														</samplecharacteristics>
													</format>
													<track TL.SQTrackShy="0" TL.SQTrackExpandedHeight="25" TL.SQTrackExpanded="0" MZ.TrackTargeted="1">
														<clipitem id="clipitem-212">
															<masterclipid>masterclip-69</masterclipid>
															<name>(Desert DIY)_Trash to Treasure Kitchen Island Using Reclaimed Materials_uRkuWx6aGZw_YT.mp4</name>
															<enabled>TRUE</enabled>
															<duration>29751</duration>
															<rate>
																<timebase>30</timebase>
																<ntsc>TRUE</ntsc>
															</rate>
															<start>0</start>
															<end>211</end>
															<in>28555</in>
															<out>28765</out>
															<pproTicksIn>391476156486338</pproTicksIn>
															<pproTicksOut>394368904864262</pproTicksOut>
															<alphatype>none</alphatype>
															<pixelaspectratio>square</pixelaspectratio>
															<anamorphic>FALSE</anamorphic>
															<file id="file-56">
																<name>(Desert DIY)_Trash to Treasure Kitchen Island Using Reclaimed Materials_uRkuWx6aGZw_YT.mp4</name>
																<pathurl>file://localhost/Volumes/CONTENT/VOD%20CONTENT%20ARCHIVE/O&amp;O%20Archive%202023/CRAFTY/03_March/Crafty_3-20-2023/3_Raw%20Files/kitchen%20island/(Desert%20DIY)_Trash%20to%20Treasure%20Kitchen%20Island%20Using%20Reclaimed%20Materials_uRkuWx6aGZw_YT.mp4</pathurl>
																<rate>
																	<timebase>30</timebase>
																	<ntsc>TRUE</ntsc>
																</rate>
																<duration>48124</duration>
																<timecode>
																	<rate>
																		<timebase>30</timebase>
																		<ntsc>TRUE</ntsc>
																	</rate>
																	<string>00:00:00:00</string>
																	<frame>0</frame>
																	<displayformat>NDF</displayformat>
																</timecode>
																<media>
																	<video>
																		<samplecharacteristics>
																			<rate>
																				<timebase>30</timebase>
																				<ntsc>TRUE</ntsc>
																			</rate>
																			<width>1920</width>
																			<height>1080</height>
																			<anamorphic>FALSE</anamorphic>
																			<pixelaspectratio>square</pixelaspectratio>
																			<fielddominance>none</fielddominance>
																		</samplecharacteristics>
																	</video>
																	<audio>
																		<samplecharacteristics>
																			<depth>16</depth>
																			<samplerate>44100</samplerate>
																		</samplecharacteristics>
																		<channelcount>2</channelcount>
																	</audio>
																</media>
															</file>
															<filter>
																<effect>
																	<name>Time Remap</name>
																	<effectid>timeremap</effectid>
																	<effectcategory>motion</effectcategory>
																	<effecttype>motion</effecttype>
																	<mediatype>video</mediatype>
																	<parameter authoringApp="PremierePro">
																		<parameterid>variablespeed</parameterid>
																		<name>variablespeed</name>
																		<valuemin>0</valuemin>
																		<valuemax>1</valuemax>
																		<value>0</value>
																	</parameter>
																	<parameter authoringApp="PremierePro">
																		<parameterid>speed</parameterid>
																		<name>speed</name>
																		<valuemin>-100000</valuemin>
																		<valuemax>100000</valuemax>
																		<value>161.754</value>
																	</parameter>
																	<parameter authoringApp="PremierePro">
																		<parameterid>reverse</parameterid>
																		<name>reverse</name>
																		<value>FALSE</value>
																	</parameter>
																	<parameter authoringApp="PremierePro">
																		<parameterid>frameblending</parameterid>
																		<name>frameblending</name>
																		<value>FALSE</value>
																	</parameter>
																	<parameter authoringApp="PremierePro">
																		<parameterid>graphdict</parameterid>
																		<name>graphdict</name>
																		<valuemin>0</valuemin>
																		<valuemax>48123</valuemax>
																		<value>0</value>
																		<keyframe>
																			<when>0</when>
																			<value>0</value>
																			<speedvirtualkf>TRUE</speedvirtualkf>
																			<speedkfstart>TRUE</speedkfstart>
																		</keyframe>
																		<keyframe>
																			<when>28555</when>
																			<value>46188</value>
																			<speedvirtualkf>TRUE</speedvirtualkf>
																			<speedkfin>TRUE</speedkfin>
																		</keyframe>
																		<keyframe>
																			<when>28765</when>
																			<value>46528</value>
																			<speedvirtualkf>TRUE</speedvirtualkf>
																			<speedkfout>TRUE</speedkfout>
																		</keyframe>
																		<keyframe>
																			<when>29751</when>
																			<value>48123</value>
																			<speedvirtualkf>TRUE</speedvirtualkf>
																			<speedkfend>TRUE</speedkfend>
																		</keyframe>
																		<interpolation>
																			<name>FCPCurve</name>
																		</interpolation>
																	</parameter>
																</effect>
															</filter>
															<logginginfo>
																<description></description>
																<scene></scene>
																<shottake></shottake>
																<lognote>https://www.youtube.com/watch?v=uRkuWx6aGZw</lognote>
																<good></good>
																<originalvideofilename></originalvideofilename>
																<originalaudiofilename></originalaudiofilename>
															</logginginfo>
															<colorinfo>
																<lut></lut>
																<lut1></lut1>
																<asc_sop></asc_sop>
																<asc_sat></asc_sat>
																<lut2></lut2>
															</colorinfo>
															<labels>
																<label2>Iris</label2>
															</labels>
														</clipitem>
														<clipitem id="clipitem-213">
															<masterclipid>masterclip-69</masterclipid>
															<name>(Desert DIY)_Trash to Treasure Kitchen Island Using Reclaimed Materials_uRkuWx6aGZw_YT.mp4</name>
															<enabled>TRUE</enabled>
															<duration>32082</duration>
															<rate>
																<timebase>30</timebase>
																<ntsc>TRUE</ntsc>
															</rate>
															<start>211</start>
															<end>461</end>
															<in>8167</in>
															<out>8417</out>
															<pproTicksIn>103831161033600</pproTicksIn>
															<pproTicksOut>107009536233600</pproTicksOut>
															<alphatype>none</alphatype>
															<file id="file-56"/>
															<filter>
																<effect>
																	<name>Time Remap</name>
																	<effectid>timeremap</effectid>
																	<effectcategory>motion</effectcategory>
																	<effecttype>motion</effecttype>
																	<mediatype>video</mediatype>
																	<parameter authoringApp="PremierePro">
																		<parameterid>variablespeed</parameterid>
																		<name>variablespeed</name>
																		<valuemin>0</valuemin>
																		<valuemax>1</valuemax>
																		<value>0</value>
																	</parameter>
																	<parameter authoringApp="PremierePro">
																		<parameterid>speed</parameterid>
																		<name>speed</name>
																		<valuemin>-100000</valuemin>
																		<valuemax>100000</valuemax>
																		<value>150</value>
																	</parameter>
																	<parameter authoringApp="PremierePro">
																		<parameterid>reverse</parameterid>
																		<name>reverse</name>
																		<value>FALSE</value>
																	</parameter>
																	<parameter authoringApp="PremierePro">
																		<parameterid>frameblending</parameterid>
																		<name>frameblending</name>
																		<value>FALSE</value>
																	</parameter>
																	<parameter authoringApp="PremierePro">
																		<parameterid>graphdict</parameterid>
																		<name>graphdict</name>
																		<valuemin>0</valuemin>
																		<valuemax>48123</valuemax>
																		<value>0</value>
																		<keyframe>
																			<when>0</when>
																			<value>0</value>
																			<speedvirtualkf>TRUE</speedvirtualkf>
																			<speedkfstart>TRUE</speedkfstart>
																		</keyframe>
																		<keyframe>
																			<when>8167</when>
																			<value>12250</value>
																			<speedvirtualkf>TRUE</speedvirtualkf>
																			<speedkfin>TRUE</speedkfin>
																		</keyframe>
																		<keyframe>
																			<when>8417</when>
																			<value>12625</value>
																			<speedvirtualkf>TRUE</speedvirtualkf>
																			<speedkfout>TRUE</speedkfout>
																		</keyframe>
																		<keyframe>
																			<when>32082</when>
																			<value>48123</value>
																			<speedvirtualkf>TRUE</speedvirtualkf>
																			<speedkfend>TRUE</speedkfend>
																		</keyframe>
																		<interpolation>
																			<name>FCPCurve</name>
																		</interpolation>
																	</parameter>
																</effect>
															</filter>
															<logginginfo>
																<description></description>
																<scene></scene>
																<shottake></shottake>
																<lognote>https://www.youtube.com/watch?v=uRkuWx6aGZw</lognote>
																<good></good>
																<originalvideofilename></originalvideofilename>
																<originalaudiofilename></originalaudiofilename>
															</logginginfo>
															<colorinfo>
																<lut></lut>
																<lut1></lut1>
																<asc_sop></asc_sop>
																<asc_sat></asc_sat>
																<lut2></lut2>
															</colorinfo>
															<labels>
																<label2>Iris</label2>
															</labels>
														</clipitem>
														<clipitem id="clipitem-214">
															<masterclipid>masterclip-69</masterclipid>
															<name>(Desert DIY)_Trash to Treasure Kitchen Island Using Reclaimed Materials_uRkuWx6aGZw_YT.mp4</name>
															<enabled>TRUE</enabled>
															<duration>32082</duration>
															<rate>
																<timebase>30</timebase>
																<ntsc>TRUE</ntsc>
															</rate>
															<start>461</start>
															<end>696</end>
															<in>12932</in>
															<out>13167</out>
															<pproTicksIn>164410992345600</pproTicksIn>
															<pproTicksOut>167398665033600</pproTicksOut>
															<alphatype>none</alphatype>
															<file id="file-56"/>
															<filter>
																<effect>
																	<name>Time Remap</name>
																	<effectid>timeremap</effectid>
																	<effectcategory>motion</effectcategory>
																	<effecttype>motion</effecttype>
																	<mediatype>video</mediatype>
																	<parameter authoringApp="PremierePro">
																		<parameterid>variablespeed</parameterid>
																		<name>variablespeed</name>
																		<valuemin>0</valuemin>
																		<valuemax>1</valuemax>
																		<value>0</value>
																	</parameter>
																	<parameter authoringApp="PremierePro">
																		<parameterid>speed</parameterid>
																		<name>speed</name>
																		<valuemin>-100000</valuemin>
																		<valuemax>100000</valuemax>
																		<value>150</value>
																	</parameter>
																	<parameter authoringApp="PremierePro">
																		<parameterid>reverse</parameterid>
																		<name>reverse</name>
																		<value>FALSE</value>
																	</parameter>
																	<parameter authoringApp="PremierePro">
																		<parameterid>frameblending</parameterid>
																		<name>frameblending</name>
																		<value>FALSE</value>
																	</parameter>
																	<parameter authoringApp="PremierePro">
																		<parameterid>graphdict</parameterid>
																		<name>graphdict</name>
																		<valuemin>0</valuemin>
																		<valuemax>48123</valuemax>
																		<value>0</value>
																		<keyframe>
																			<when>0</when>
																			<value>0</value>
																			<speedvirtualkf>TRUE</speedvirtualkf>
																			<speedkfstart>TRUE</speedkfstart>
																		</keyframe>
																		<keyframe>
																			<when>12932</when>
																			<value>19398</value>
																			<speedvirtualkf>TRUE</speedvirtualkf>
																			<speedkfin>TRUE</speedkfin>
																		</keyframe>
																		<keyframe>
																			<when>13167</when>
																			<value>19750</value>
																			<speedvirtualkf>TRUE</speedvirtualkf>
																			<speedkfout>TRUE</speedkfout>
																		</keyframe>
																		<keyframe>
																			<when>32082</when>
																			<value>48123</value>
																			<speedvirtualkf>TRUE</speedvirtualkf>
																			<speedkfend>TRUE</speedkfend>
																		</keyframe>
																		<interpolation>
																			<name>FCPCurve</name>
																		</interpolation>
																	</parameter>
																</effect>
															</filter>
															<logginginfo>
																<description></description>
																<scene></scene>
																<shottake></shottake>
																<lognote>https://www.youtube.com/watch?v=uRkuWx6aGZw</lognote>
																<good></good>
																<originalvideofilename></originalvideofilename>
																<originalaudiofilename></originalaudiofilename>
															</logginginfo>
															<colorinfo>
																<lut></lut>
																<lut1></lut1>
																<asc_sop></asc_sop>
																<asc_sat></asc_sat>
																<lut2></lut2>
															</colorinfo>
															<labels>
																<label2>Iris</label2>
															</labels>
														</clipitem>
														<clipitem id="clipitem-215">
															<masterclipid>masterclip-69</masterclipid>
															<name>(Desert DIY)_Trash to Treasure Kitchen Island Using Reclaimed Materials_uRkuWx6aGZw_YT.mp4</name>
															<enabled>TRUE</enabled>
															<duration>32082</duration>
															<rate>
																<timebase>30</timebase>
																<ntsc>TRUE</ntsc>
															</rate>
															<start>696</start>
															<end>1397</end>
															<in>14338</in>
															<out>15039</out>
															<pproTicksIn>182286174470400</pproTicksIn>
															<pproTicksOut>191198338531200</pproTicksOut>
															<alphatype>none</alphatype>
															<file id="file-56"/>
															<filter>
																<effect>
																	<name>Time Remap</name>
																	<effectid>timeremap</effectid>
																	<effectcategory>motion</effectcategory>
																	<effecttype>motion</effecttype>
																	<mediatype>video</mediatype>
																	<parameter authoringApp="PremierePro">
																		<parameterid>variablespeed</parameterid>
																		<name>variablespeed</name>
																		<valuemin>0</valuemin>
																		<valuemax>1</valuemax>
																		<value>0</value>
																	</parameter>
																	<parameter authoringApp="PremierePro">
																		<parameterid>speed</parameterid>
																		<name>speed</name>
																		<valuemin>-100000</valuemin>
																		<valuemax>100000</valuemax>
																		<value>150</value>
																	</parameter>
																	<parameter authoringApp="PremierePro">
																		<parameterid>reverse</parameterid>
																		<name>reverse</name>
																		<value>FALSE</value>
																	</parameter>
																	<parameter authoringApp="PremierePro">
																		<parameterid>frameblending</parameterid>
																		<name>frameblending</name>
																		<value>FALSE</value>
																	</parameter>
																	<parameter authoringApp="PremierePro">
																		<parameterid>graphdict</parameterid>
																		<name>graphdict</name>
																		<valuemin>0</valuemin>
																		<valuemax>48123</valuemax>
																		<value>0</value>
																		<keyframe>
																			<when>0</when>
																			<value>0</value>
																			<speedvirtualkf>TRUE</speedvirtualkf>
																			<speedkfstart>TRUE</speedkfstart>
																		</keyframe>
																		<keyframe>
																			<when>14338</when>
																			<value>21507</value>
																			<speedvirtualkf>TRUE</speedvirtualkf>
																			<speedkfin>TRUE</speedkfin>
																		</keyframe>
																		<keyframe>
																			<when>15039</when>
																			<value>22558</value>
																			<speedvirtualkf>TRUE</speedvirtualkf>
																			<speedkfout>TRUE</speedkfout>
																		</keyframe>
																		<keyframe>
																			<when>32082</when>
																			<value>48123</value>
																			<speedvirtualkf>TRUE</speedvirtualkf>
																			<speedkfend>TRUE</speedkfend>
																		</keyframe>
																		<interpolation>
																			<name>FCPCurve</name>
																		</interpolation>
																	</parameter>
																</effect>
															</filter>
															<logginginfo>
																<description></description>
																<scene></scene>
																<shottake></shottake>
																<lognote>https://www.youtube.com/watch?v=uRkuWx6aGZw</lognote>
																<good></good>
																<originalvideofilename></originalvideofilename>
																<originalaudiofilename></originalaudiofilename>
															</logginginfo>
															<colorinfo>
																<lut></lut>
																<lut1></lut1>
																<asc_sop></asc_sop>
																<asc_sat></asc_sat>
																<lut2></lut2>
															</colorinfo>
															<labels>
																<label2>Iris</label2>
															</labels>
														</clipitem>
														<clipitem id="clipitem-216">
															<masterclipid>masterclip-69</masterclipid>
															<name>(Desert DIY)_Trash to Treasure Kitchen Island Using Reclaimed Materials_uRkuWx6aGZw_YT.mp4</name>
															<enabled>TRUE</enabled>
															<duration>32082</duration>
															<rate>
																<timebase>30</timebase>
																<ntsc>TRUE</ntsc>
															</rate>
															<start>1397</start>
															<end>1797</end>
															<in>15286</in>
															<out>15686</out>
															<pproTicksIn>194338573228800</pproTicksIn>
															<pproTicksOut>199423973548800</pproTicksOut>
															<alphatype>none</alphatype>
															<file id="file-56"/>
															<filter>
																<effect>
																	<name>Time Remap</name>
																	<effectid>timeremap</effectid>
																	<effectcategory>motion</effectcategory>
																	<effecttype>motion</effecttype>
																	<mediatype>video</mediatype>
																	<parameter authoringApp="PremierePro">
																		<parameterid>variablespeed</parameterid>
																		<name>variablespeed</name>
																		<valuemin>0</valuemin>
																		<valuemax>1</valuemax>
																		<value>0</value>
																	</parameter>
																	<parameter authoringApp="PremierePro">
																		<parameterid>speed</parameterid>
																		<name>speed</name>
																		<valuemin>-100000</valuemin>
																		<valuemax>100000</valuemax>
																		<value>150</value>
																	</parameter>
																	<parameter authoringApp="PremierePro">
																		<parameterid>reverse</parameterid>
																		<name>reverse</name>
																		<value>FALSE</value>
																	</parameter>
																	<parameter authoringApp="PremierePro">
																		<parameterid>frameblending</parameterid>
																		<name>frameblending</name>
																		<value>FALSE</value>
																	</parameter>
																	<parameter authoringApp="PremierePro">
																		<parameterid>graphdict</parameterid>
																		<name>graphdict</name>
																		<valuemin>0</valuemin>
																		<valuemax>48123</valuemax>
																		<value>0</value>
																		<keyframe>
																			<when>0</when>
																			<value>0</value>
																			<speedvirtualkf>TRUE</speedvirtualkf>
																			<speedkfstart>TRUE</speedkfstart>
																		</keyframe>
																		<keyframe>
																			<when>15286</when>
																			<value>22929</value>
																			<speedvirtualkf>TRUE</speedvirtualkf>
																			<speedkfin>TRUE</speedkfin>
																		</keyframe>
																		<keyframe>
																			<when>15686</when>
																			<value>23529</value>
																			<speedvirtualkf>TRUE</speedvirtualkf>
																			<speedkfout>TRUE</speedkfout>
																		</keyframe>
																		<keyframe>
																			<when>32082</when>
																			<value>48123</value>
																			<speedvirtualkf>TRUE</speedvirtualkf>
																			<speedkfend>TRUE</speedkfend>
																		</keyframe>
																		<interpolation>
																			<name>FCPCurve</name>
																		</interpolation>
																	</parameter>
																</effect>
															</filter>
															<logginginfo>
																<description></description>
																<scene></scene>
																<shottake></shottake>
																<lognote>https://www.youtube.com/watch?v=uRkuWx6aGZw</lognote>
																<good></good>
																<originalvideofilename></originalvideofilename>
																<originalaudiofilename></originalaudiofilename>
															</logginginfo>
															<colorinfo>
																<lut></lut>
																<lut1></lut1>
																<asc_sop></asc_sop>
																<asc_sat></asc_sat>
																<lut2></lut2>
															</colorinfo>
															<labels>
																<label2>Iris</label2>
															</labels>
														</clipitem>
														<clipitem id="clipitem-217">
															<masterclipid>masterclip-69</masterclipid>
															<name>(Desert DIY)_Trash to Treasure Kitchen Island Using Reclaimed Materials_uRkuWx6aGZw_YT.mp4</name>
															<enabled>TRUE</enabled>
															<duration>32082</duration>
															<rate>
																<timebase>30</timebase>
																<ntsc>TRUE</ntsc>
															</rate>
															<start>1797</start>
															<end>2229</end>
															<in>17918</in>
															<out>18349</out>
															<pproTicksIn>227792031667200</pproTicksIn>
															<pproTicksOut>233284264012800</pproTicksOut>
															<alphatype>none</alphatype>
															<file id="file-56"/>
															<filter>
																<effect>
																	<name>Time Remap</name>
																	<effectid>timeremap</effectid>
																	<effectcategory>motion</effectcategory>
																	<effecttype>motion</effecttype>
																	<mediatype>video</mediatype>
																	<parameter authoringApp="PremierePro">
																		<parameterid>variablespeed</parameterid>
																		<name>variablespeed</name>
																		<valuemin>0</valuemin>
																		<valuemax>1</valuemax>
																		<value>0</value>
																	</parameter>
																	<parameter authoringApp="PremierePro">
																		<parameterid>speed</parameterid>
																		<name>speed</name>
																		<valuemin>-100000</valuemin>
																		<valuemax>100000</valuemax>
																		<value>150</value>
																	</parameter>
																	<parameter authoringApp="PremierePro">
																		<parameterid>reverse</parameterid>
																		<name>reverse</name>
																		<value>FALSE</value>
																	</parameter>
																	<parameter authoringApp="PremierePro">
																		<parameterid>frameblending</parameterid>
																		<name>frameblending</name>
																		<value>FALSE</value>
																	</parameter>
																	<parameter authoringApp="PremierePro">
																		<parameterid>graphdict</parameterid>
																		<name>graphdict</name>
																		<valuemin>0</valuemin>
																		<valuemax>48123</valuemax>
																		<value>0</value>
																		<keyframe>
																			<when>0</when>
																			<value>0</value>
																			<speedvirtualkf>TRUE</speedvirtualkf>
																			<speedkfstart>TRUE</speedkfstart>
																		</keyframe>
																		<keyframe>
																			<when>17918</when>
																			<value>26877</value>
																			<speedvirtualkf>TRUE</speedvirtualkf>
																			<speedkfin>TRUE</speedkfin>
																		</keyframe>
																		<keyframe>
																			<when>18349</when>
																			<value>27523</value>
																			<speedvirtualkf>TRUE</speedvirtualkf>
																			<speedkfout>TRUE</speedkfout>
																		</keyframe>
																		<keyframe>
																			<when>32082</when>
																			<value>48123</value>
																			<speedvirtualkf>TRUE</speedvirtualkf>
																			<speedkfend>TRUE</speedkfend>
																		</keyframe>
																		<interpolation>
																			<name>FCPCurve</name>
																		</interpolation>
																	</parameter>
																</effect>
															</filter>
															<logginginfo>
																<description></description>
																<scene></scene>
																<shottake></shottake>
																<lognote>https://www.youtube.com/watch?v=uRkuWx6aGZw</lognote>
																<good></good>
																<originalvideofilename></originalvideofilename>
																<originalaudiofilename></originalaudiofilename>
															</logginginfo>
															<colorinfo>
																<lut></lut>
																<lut1></lut1>
																<asc_sop></asc_sop>
																<asc_sat></asc_sat>
																<lut2></lut2>
															</colorinfo>
															<labels>
																<label2>Iris</label2>
															</labels>
														</clipitem>
														<clipitem id="clipitem-218">
															<masterclipid>masterclip-69</masterclipid>
															<name>(Desert DIY)_Trash to Treasure Kitchen Island Using Reclaimed Materials_uRkuWx6aGZw_YT.mp4</name>
															<enabled>TRUE</enabled>
															<duration>32082</duration>
															<rate>
																<timebase>30</timebase>
																<ntsc>TRUE</ntsc>
															</rate>
															<start>2229</start>
															<end>2611</end>
															<in>23225</in>
															<out>23606</out>
															<pproTicksIn>295266818246400</pproTicksIn>
															<pproTicksOut>300123375552000</pproTicksOut>
															<alphatype>none</alphatype>
															<file id="file-56"/>
															<filter>
																<effect>
																	<name>Time Remap</name>
																	<effectid>timeremap</effectid>
																	<effectcategory>motion</effectcategory>
																	<effecttype>motion</effecttype>
																	<mediatype>video</mediatype>
																	<parameter authoringApp="PremierePro">
																		<parameterid>variablespeed</parameterid>
																		<name>variablespeed</name>
																		<valuemin>0</valuemin>
																		<valuemax>1</valuemax>
																		<value>0</value>
																	</parameter>
																	<parameter authoringApp="PremierePro">
																		<parameterid>speed</parameterid>
																		<name>speed</name>
																		<valuemin>-100000</valuemin>
																		<valuemax>100000</valuemax>
																		<value>150</value>
																	</parameter>
																	<parameter authoringApp="PremierePro">
																		<parameterid>reverse</parameterid>
																		<name>reverse</name>
																		<value>FALSE</value>
																	</parameter>
																	<parameter authoringApp="PremierePro">
																		<parameterid>frameblending</parameterid>
																		<name>frameblending</name>
																		<value>FALSE</value>
																	</parameter>
																	<parameter authoringApp="PremierePro">
																		<parameterid>graphdict</parameterid>
																		<name>graphdict</name>
																		<valuemin>0</valuemin>
																		<valuemax>48123</valuemax>
																		<value>0</value>
																		<keyframe>
																			<when>0</when>
																			<value>0</value>
																			<speedvirtualkf>TRUE</speedvirtualkf>
																			<speedkfstart>TRUE</speedkfstart>
																		</keyframe>
																		<keyframe>
																			<when>23225</when>
																			<value>34837</value>
																			<speedvirtualkf>TRUE</speedvirtualkf>
																			<speedkfin>TRUE</speedkfin>
																		</keyframe>
																		<keyframe>
																			<when>23606</when>
																			<value>35409</value>
																			<speedvirtualkf>TRUE</speedvirtualkf>
																			<speedkfout>TRUE</speedkfout>
																		</keyframe>
																		<keyframe>
																			<when>32082</when>
																			<value>48123</value>
																			<speedvirtualkf>TRUE</speedvirtualkf>
																			<speedkfend>TRUE</speedkfend>
																		</keyframe>
																		<interpolation>
																			<name>FCPCurve</name>
																		</interpolation>
																	</parameter>
																</effect>
															</filter>
															<logginginfo>
																<description></description>
																<scene></scene>
																<shottake></shottake>
																<lognote>https://www.youtube.com/watch?v=uRkuWx6aGZw</lognote>
																<good></good>
																<originalvideofilename></originalvideofilename>
																<originalaudiofilename></originalaudiofilename>
															</logginginfo>
															<colorinfo>
																<lut></lut>
																<lut1></lut1>
																<asc_sop></asc_sop>
																<asc_sat></asc_sat>
																<lut2></lut2>
															</colorinfo>
															<labels>
																<label2>Iris</label2>
															</labels>
														</clipitem>
														<clipitem id="clipitem-219">
															<masterclipid>masterclip-69</masterclipid>
															<name>(Desert DIY)_Trash to Treasure Kitchen Island Using Reclaimed Materials_uRkuWx6aGZw_YT.mp4</name>
															<enabled>TRUE</enabled>
															<duration>32082</duration>
															<rate>
																<timebase>30</timebase>
																<ntsc>TRUE</ntsc>
															</rate>
															<start>2611</start>
															<end>2919</end>
															<in>25522</in>
															<out>25829</out>
															<pproTicksIn>324469729584000</pproTicksIn>
															<pproTicksOut>328385487830400</pproTicksOut>
															<alphatype>none</alphatype>
															<file id="file-56"/>
															<filter>
																<effect>
																	<name>Time Remap</name>
																	<effectid>timeremap</effectid>
																	<effectcategory>motion</effectcategory>
																	<effecttype>motion</effecttype>
																	<mediatype>video</mediatype>
																	<parameter authoringApp="PremierePro">
																		<parameterid>variablespeed</parameterid>
																		<name>variablespeed</name>
																		<valuemin>0</valuemin>
																		<valuemax>1</valuemax>
																		<value>0</value>
																	</parameter>
																	<parameter authoringApp="PremierePro">
																		<parameterid>speed</parameterid>
																		<name>speed</name>
																		<valuemin>-100000</valuemin>
																		<valuemax>100000</valuemax>
																		<value>150</value>
																	</parameter>
																	<parameter authoringApp="PremierePro">
																		<parameterid>reverse</parameterid>
																		<name>reverse</name>
																		<value>FALSE</value>
																	</parameter>
																	<parameter authoringApp="PremierePro">
																		<parameterid>frameblending</parameterid>
																		<name>frameblending</name>
																		<value>FALSE</value>
																	</parameter>
																	<parameter authoringApp="PremierePro">
																		<parameterid>graphdict</parameterid>
																		<name>graphdict</name>
																		<valuemin>0</valuemin>
																		<valuemax>48123</valuemax>
																		<value>0</value>
																		<keyframe>
																			<when>0</when>
																			<value>0</value>
																			<speedvirtualkf>TRUE</speedvirtualkf>
																			<speedkfstart>TRUE</speedkfstart>
																		</keyframe>
																		<keyframe>
																			<when>25522</when>
																			<value>38283</value>
																			<speedvirtualkf>TRUE</speedvirtualkf>
																			<speedkfin>TRUE</speedkfin>
																		</keyframe>
																		<keyframe>
																			<when>25829</when>
																			<value>38743</value>
																			<speedvirtualkf>TRUE</speedvirtualkf>
																			<speedkfout>TRUE</speedkfout>
																		</keyframe>
																		<keyframe>
																			<when>32082</when>
																			<value>48123</value>
																			<speedvirtualkf>TRUE</speedvirtualkf>
																			<speedkfend>TRUE</speedkfend>
																		</keyframe>
																		<interpolation>
																			<name>FCPCurve</name>
																		</interpolation>
																	</parameter>
																</effect>
															</filter>
															<logginginfo>
																<description></description>
																<scene></scene>
																<shottake></shottake>
																<lognote>https://www.youtube.com/watch?v=uRkuWx6aGZw</lognote>
																<good></good>
																<originalvideofilename></originalvideofilename>
																<originalaudiofilename></originalaudiofilename>
															</logginginfo>
															<colorinfo>
																<lut></lut>
																<lut1></lut1>
																<asc_sop></asc_sop>
																<asc_sat></asc_sat>
																<lut2></lut2>
															</colorinfo>
															<labels>
																<label2>Iris</label2>
															</labels>
														</clipitem>
														<clipitem id="clipitem-220">
															<masterclipid>masterclip-69</masterclipid>
															<name>(Desert DIY)_Trash to Treasure Kitchen Island Using Reclaimed Materials_uRkuWx6aGZw_YT.mp4</name>
															<enabled>TRUE</enabled>
															<duration>32082</duration>
															<rate>
																<timebase>30</timebase>
																<ntsc>TRUE</ntsc>
															</rate>
															<start>2919</start>
															<end>3342</end>
															<in>26231</in>
															<out>26653</out>
															<pproTicksIn>333483601651200</pproTicksIn>
															<pproTicksOut>338861412489600</pproTicksOut>
															<alphatype>none</alphatype>
															<file id="file-56"/>
															<filter>
																<effect>
																	<name>Time Remap</name>
																	<effectid>timeremap</effectid>
																	<effectcategory>motion</effectcategory>
																	<effecttype>motion</effecttype>
																	<mediatype>video</mediatype>
																	<parameter authoringApp="PremierePro">
																		<parameterid>variablespeed</parameterid>
																		<name>variablespeed</name>
																		<valuemin>0</valuemin>
																		<valuemax>1</valuemax>
																		<value>0</value>
																	</parameter>
																	<parameter authoringApp="PremierePro">
																		<parameterid>speed</parameterid>
																		<name>speed</name>
																		<valuemin>-100000</valuemin>
																		<valuemax>100000</valuemax>
																		<value>150</value>
																	</parameter>
																	<parameter authoringApp="PremierePro">
																		<parameterid>reverse</parameterid>
																		<name>reverse</name>
																		<value>FALSE</value>
																	</parameter>
																	<parameter authoringApp="PremierePro">
																		<parameterid>frameblending</parameterid>
																		<name>frameblending</name>
																		<value>FALSE</value>
																	</parameter>
																	<parameter authoringApp="PremierePro">
																		<parameterid>graphdict</parameterid>
																		<name>graphdict</name>
																		<valuemin>0</valuemin>
																		<valuemax>48123</valuemax>
																		<value>0</value>
																		<keyframe>
																			<when>0</when>
																			<value>0</value>
																			<speedvirtualkf>TRUE</speedvirtualkf>
																			<speedkfstart>TRUE</speedkfstart>
																		</keyframe>
																		<keyframe>
																			<when>26231</when>
																			<value>39346</value>
																			<speedvirtualkf>TRUE</speedvirtualkf>
																			<speedkfin>TRUE</speedkfin>
																		</keyframe>
																		<keyframe>
																			<when>26653</when>
																			<value>39979</value>
																			<speedvirtualkf>TRUE</speedvirtualkf>
																			<speedkfout>TRUE</speedkfout>
																		</keyframe>
																		<keyframe>
																			<when>32082</when>
																			<value>48123</value>
																			<speedvirtualkf>TRUE</speedvirtualkf>
																			<speedkfend>TRUE</speedkfend>
																		</keyframe>
																		<interpolation>
																			<name>FCPCurve</name>
																		</interpolation>
																	</parameter>
																</effect>
															</filter>
															<logginginfo>
																<description></description>
																<scene></scene>
																<shottake></shottake>
																<lognote>https://www.youtube.com/watch?v=uRkuWx6aGZw</lognote>
																<good></good>
																<originalvideofilename></originalvideofilename>
																<originalaudiofilename></originalaudiofilename>
															</logginginfo>
															<colorinfo>
																<lut></lut>
																<lut1></lut1>
																<asc_sop></asc_sop>
																<asc_sat></asc_sat>
																<lut2></lut2>
															</colorinfo>
															<labels>
																<label2>Iris</label2>
															</labels>
														</clipitem>
														<clipitem id="clipitem-221">
															<masterclipid>masterclip-69</masterclipid>
															<name>(Desert DIY)_Trash to Treasure Kitchen Island Using Reclaimed Materials_uRkuWx6aGZw_YT.mp4</name>
															<enabled>TRUE</enabled>
															<duration>32082</duration>
															<rate>
																<timebase>30</timebase>
																<ntsc>TRUE</ntsc>
															</rate>
															<start>3342</start>
															<end>3462</end>
															<in>26770</in>
															<out>26889</out>
															<pproTicksIn>340336178582400</pproTicksIn>
															<pproTicksOut>341861798678400</pproTicksOut>
															<alphatype>none</alphatype>
															<file id="file-56"/>
															<filter>
																<effect>
																	<name>Time Remap</name>
																	<effectid>timeremap</effectid>
																	<effectcategory>motion</effectcategory>
																	<effecttype>motion</effecttype>
																	<mediatype>video</mediatype>
																	<parameter authoringApp="PremierePro">
																		<parameterid>variablespeed</parameterid>
																		<name>variablespeed</name>
																		<valuemin>0</valuemin>
																		<valuemax>1</valuemax>
																		<value>0</value>
																	</parameter>
																	<parameter authoringApp="PremierePro">
																		<parameterid>speed</parameterid>
																		<name>speed</name>
																		<valuemin>-100000</valuemin>
																		<valuemax>100000</valuemax>
																		<value>150</value>
																	</parameter>
																	<parameter authoringApp="PremierePro">
																		<parameterid>reverse</parameterid>
																		<name>reverse</name>
																		<value>FALSE</value>
																	</parameter>
																	<parameter authoringApp="PremierePro">
																		<parameterid>frameblending</parameterid>
																		<name>frameblending</name>
																		<value>FALSE</value>
																	</parameter>
																	<parameter authoringApp="PremierePro">
																		<parameterid>graphdict</parameterid>
																		<name>graphdict</name>
																		<valuemin>0</valuemin>
																		<valuemax>48123</valuemax>
																		<value>0</value>
																		<keyframe>
																			<when>0</when>
																			<value>0</value>
																			<speedvirtualkf>TRUE</speedvirtualkf>
																			<speedkfstart>TRUE</speedkfstart>
																		</keyframe>
																		<keyframe>
																			<when>26770</when>
																			<value>40155</value>
																			<speedvirtualkf>TRUE</speedvirtualkf>
																			<speedkfin>TRUE</speedkfin>
																		</keyframe>
																		<keyframe>
																			<when>26889</when>
																			<value>40333</value>
																			<speedvirtualkf>TRUE</speedvirtualkf>
																			<speedkfout>TRUE</speedkfout>
																		</keyframe>
																		<keyframe>
																			<when>32082</when>
																			<value>48123</value>
																			<speedvirtualkf>TRUE</speedvirtualkf>
																			<speedkfend>TRUE</speedkfend>
																		</keyframe>
																		<interpolation>
																			<name>FCPCurve</name>
																		</interpolation>
																	</parameter>
																</effect>
															</filter>
															<logginginfo>
																<description></description>
																<scene></scene>
																<shottake></shottake>
																<lognote>https://www.youtube.com/watch?v=uRkuWx6aGZw</lognote>
																<good></good>
																<originalvideofilename></originalvideofilename>
																<originalaudiofilename></originalaudiofilename>
															</logginginfo>
															<colorinfo>
																<lut></lut>
																<lut1></lut1>
																<asc_sop></asc_sop>
																<asc_sat></asc_sat>
																<lut2></lut2>
															</colorinfo>
															<labels>
																<label2>Iris</label2>
															</labels>
														</clipitem>
														<clipitem id="clipitem-222">
															<masterclipid>masterclip-69</masterclipid>
															<name>(Desert DIY)_Trash to Treasure Kitchen Island Using Reclaimed Materials_uRkuWx6aGZw_YT.mp4</name>
															<enabled>TRUE</enabled>
															<duration>33242</duration>
															<rate>
																<timebase>30</timebase>
																<ntsc>TRUE</ntsc>
															</rate>
															<start>3462</start>
															<end>3681</end>
															<in>31661</in>
															<out>31879</out>
															<pproTicksIn>388473730444800</pproTicksIn>
															<pproTicksOut>391160833203437</pproTicksOut>
															<alphatype>none</alphatype>
															<file id="file-56"/>
															<filter>
																<effect>
																	<name>Time Remap</name>
																	<effectid>timeremap</effectid>
																	<effectcategory>motion</effectcategory>
																	<effecttype>motion</effecttype>
																	<mediatype>video</mediatype>
																	<parameter authoringApp="PremierePro">
																		<parameterid>variablespeed</parameterid>
																		<name>variablespeed</name>
																		<valuemin>0</valuemin>
																		<valuemax>1</valuemax>
																		<value>0</value>
																	</parameter>
																	<parameter authoringApp="PremierePro">
																		<parameterid>speed</parameterid>
																		<name>speed</name>
																		<valuemin>-100000</valuemin>
																		<valuemax>100000</valuemax>
																		<value>144.766</value>
																	</parameter>
																	<parameter authoringApp="PremierePro">
																		<parameterid>reverse</parameterid>
																		<name>reverse</name>
																		<value>FALSE</value>
																	</parameter>
																	<parameter authoringApp="PremierePro">
																		<parameterid>frameblending</parameterid>
																		<name>frameblending</name>
																		<value>FALSE</value>
																	</parameter>
																	<parameter authoringApp="PremierePro">
																		<parameterid>graphdict</parameterid>
																		<name>graphdict</name>
																		<valuemin>0</valuemin>
																		<valuemax>48123</valuemax>
																		<value>0</value>
																		<keyframe>
																			<when>0</when>
																			<value>0</value>
																			<speedvirtualkf>TRUE</speedvirtualkf>
																			<speedkfstart>TRUE</speedkfstart>
																		</keyframe>
																		<keyframe>
																			<when>31661</when>
																			<value>45834</value>
																			<speedvirtualkf>TRUE</speedvirtualkf>
																			<speedkfin>TRUE</speedkfin>
																		</keyframe>
																		<keyframe>
																			<when>31879</when>
																			<value>46149</value>
																			<speedvirtualkf>TRUE</speedvirtualkf>
																			<speedkfout>TRUE</speedkfout>
																		</keyframe>
																		<keyframe>
																			<when>33242</when>
																			<value>48123</value>
																			<speedvirtualkf>TRUE</speedvirtualkf>
																			<speedkfend>TRUE</speedkfend>
																		</keyframe>
																		<interpolation>
																			<name>FCPCurve</name>
																		</interpolation>
																	</parameter>
																</effect>
															</filter>
															<logginginfo>
																<description></description>
																<scene></scene>
																<shottake></shottake>
																<lognote>https://www.youtube.com/watch?v=uRkuWx6aGZw</lognote>
																<good></good>
																<originalvideofilename></originalvideofilename>
																<originalaudiofilename></originalaudiofilename>
															</logginginfo>
															<colorinfo>
																<lut></lut>
																<lut1></lut1>
																<asc_sop></asc_sop>
																<asc_sat></asc_sat>
																<lut2></lut2>
															</colorinfo>
															<labels>
																<label2>Iris</label2>
															</labels>
														</clipitem>
														<enabled>TRUE</enabled>
														<locked>FALSE</locked>
													</track>
													<track TL.SQTrackShy="0" TL.SQTrackExpandedHeight="25" TL.SQTrackExpanded="0" MZ.TrackTargeted="0">
														<clipitem id="clipitem-223">
															<masterclipid>masterclip-70</masterclipid>
															<name>DESERT DIY</name>
															<enabled>TRUE</enabled>
															<duration>5844</duration>
															<rate>
																<timebase>30</timebase>
																<ntsc>TRUE</ntsc>
															</rate>
															<start>0</start>
															<end>3681</end>
															<in>0</in>
															<out>3681</out>
															<pproTicksIn>0</pproTicksIn>
															<pproTicksOut>31198930963200</pproTicksOut>
															<alphatype>straight</alphatype>
															<pixelaspectratio>square</pixelaspectratio>
															<anamorphic>FALSE</anamorphic>
															<file id="file-57">
																<name>1080/AE Attribution.aep</name>
																<pathurl>file://localhost/Volumes/ATM%20JR%202TB/Master%20Assets/AE%20Attribution.aep</pathurl>
																<rate>
																	<timebase>30</timebase>
																	<ntsc>TRUE</ntsc>
																</rate>
																<duration>5844</duration>
																<timecode>
																	<rate>
																		<timebase>30</timebase>
																		<ntsc>TRUE</ntsc>
																	</rate>
																	<string>00;00;00;00</string>
																	<frame>0</frame>
																	<displayformat>DF</displayformat>
																</timecode>
																<media>
																	<video>
																		<samplecharacteristics>
																			<rate>
																				<timebase>30</timebase>
																				<ntsc>TRUE</ntsc>
																			</rate>
																			<width>1920</width>
																			<height>1080</height>
																			<anamorphic>FALSE</anamorphic>
																			<pixelaspectratio>square</pixelaspectratio>
																			<fielddominance>lower</fielddominance>
																		</samplecharacteristics>
																	</video>
																</media>
															</file>
															<logginginfo>
																<description></description>
																<scene></scene>
																<shottake></shottake>
																<lognote></lognote>
																<good></good>
																<originalvideofilename></originalvideofilename>
																<originalaudiofilename></originalaudiofilename>
															</logginginfo>
															<colorinfo>
																<lut></lut>
																<lut1></lut1>
																<asc_sop></asc_sop>
																<asc_sat></asc_sat>
																<lut2></lut2>
															</colorinfo>
															<labels>
																<label2>Rose</label2>
															</labels>
														</clipitem>
														<enabled>TRUE</enabled>
														<locked>FALSE</locked>
													</track>
													<track TL.SQTrackShy="0" TL.SQTrackExpandedHeight="25" TL.SQTrackExpanded="0" MZ.TrackTargeted="0">
														<enabled>TRUE</enabled>
														<locked>FALSE</locked>
													</track>
												</video>
												<audio>
													<numOutputChannels>2</numOutputChannels>
													<format>
														<samplecharacteristics>
															<depth>16</depth>
															<samplerate>48000</samplerate>
														</samplecharacteristics>
													</format>
													<outputs>
														<group>
															<index>1</index>
															<numchannels>1</numchannels>
															<downmix>0</downmix>
															<channel>
																<index>1</index>
															</channel>
														</group>
														<group>
															<index>2</index>
															<numchannels>1</numchannels>
															<downmix>0</downmix>
															<channel>
																<index>2</index>
															</channel>
														</group>
													</outputs>
													<track TL.SQTrackAudioKeyframeStyle="0" TL.SQTrackShy="0" TL.SQTrackExpandedHeight="25" TL.SQTrackExpanded="0" MZ.TrackTargeted="1" PannerCurrentValue="0.5" PannerIsInverted="true" PannerStartKeyframe="-91445760000000000,0.5,0,0,0,0,0,0" PannerName="Balance" currentExplodedTrackIndex="0" totalExplodedTrackCount="2" premiereTrackType="Stereo">
														<enabled>TRUE</enabled>
														<locked>FALSE</locked>
														<outputchannelindex>1</outputchannelindex>
													</track>
													<track TL.SQTrackAudioKeyframeStyle="0" TL.SQTrackShy="0" TL.SQTrackExpandedHeight="25" TL.SQTrackExpanded="0" MZ.TrackTargeted="1" PannerCurrentValue="0.5" PannerIsInverted="true" PannerStartKeyframe="-91445760000000000,0.5,0,0,0,0,0,0" PannerName="Balance" currentExplodedTrackIndex="1" totalExplodedTrackCount="2" premiereTrackType="Stereo">
														<enabled>TRUE</enabled>
														<locked>FALSE</locked>
														<outputchannelindex>2</outputchannelindex>
													</track>
												</audio>
											</media>
											<timecode>
												<rate>
													<timebase>30</timebase>
													<ntsc>TRUE</ntsc>
												</rate>
												<string>00;00;00;00</string>
												<frame>0</frame>
												<displayformat>DF</displayformat>
											</timecode>
											<logginginfo>
												<description></description>
												<scene></scene>
												<shottake></shottake>
												<lognote></lognote>
												<good></good>
												<originalvideofilename></originalvideofilename>
												<originalaudiofilename></originalaudiofilename>
											</logginginfo>
										</sequence>
										<labels>
											<label2>Forest</label2>
										</labels>
									</clipitem>
									<clipitem id="clipitem-224">
										<masterclipid>masterclip-71</masterclipid>
										<name>ART_IFEELVINE_1</name>
										<enabled>TRUE</enabled>
										<duration>1764</duration>
										<rate>
											<timebase>30</timebase>
											<ntsc>TRUE</ntsc>
										</rate>
										<start>3740</start>
										<end>5504</end>
										<in>0</in>
										<out>1764</out>
										<pproTicksIn>0</pproTicksIn>
										<pproTicksOut>14951076940800</pproTicksOut>
										<sequence id="sequence-21" TL.SQAudioVisibleBase="0" TL.SQVideoVisibleBase="0" TL.SQVisibleBaseTime="23509675475044" TL.SQAVDividerPosition="0.5" TL.SQHideShyTracks="0" TL.SQHeaderWidth="236" Monitor.ProgramZoomOut="14951076940800" Monitor.ProgramZoomIn="0" TL.SQTimePerPixel="0.17642596384637546" MZ.EditLine="0" MZ.Sequence.PreviewFrameSizeHeight="1080" MZ.Sequence.PreviewFrameSizeWidth="1920" MZ.Sequence.AudioTimeDisplayFormat="200" MZ.Sequence.PreviewRenderingClassID="1061109567" MZ.Sequence.PreviewRenderingPresetCodec="1634755443" MZ.Sequence.PreviewRenderingPresetPath="EncoderPresets/SequencePreview/35d109db-457b-43c1-9452-9cb7be9f121c/QuickTime.epr" MZ.Sequence.PreviewUseMaxRenderQuality="false" MZ.Sequence.PreviewUseMaxBitDepth="false" MZ.Sequence.EditingModeGUID="35d109db-457b-43c1-9452-9cb7be9f121c" MZ.Sequence.VideoTimeDisplayFormat="102" MZ.WorkOutPoint="14951076940800" MZ.WorkInPoint="0">
											<duration>1764</duration>
											<rate>
												<timebase>30</timebase>
												<ntsc>TRUE</ntsc>
											</rate>
											<name>ART_IFEELVINE_1</name>
											<media>
												<video>
													<format>
														<samplecharacteristics>
															<rate>
																<timebase>30</timebase>
																<ntsc>TRUE</ntsc>
															</rate>
															<codec>
																<name>Apple ProRes 422</name>
																<appspecificdata>
																	<appname>Final Cut Pro</appname>
																	<appmanufacturer>Apple Inc.</appmanufacturer>
																	<appversion>7.0</appversion>
																	<data>
																		<qtcodec>
																			<codecname>Apple ProRes 422</codecname>
																			<codectypename>Apple ProRes 422</codectypename>
																			<codectypecode>apcn</codectypecode>
																			<codecvendorcode>appl</codecvendorcode>
																			<spatialquality>1024</spatialquality>
																			<temporalquality>0</temporalquality>
																			<keyframerate>0</keyframerate>
																			<datarate>0</datarate>
																		</qtcodec>
																	</data>
																</appspecificdata>
															</codec>
															<width>1920</width>
															<height>1080</height>
															<anamorphic>FALSE</anamorphic>
															<pixelaspectratio>square</pixelaspectratio>
															<fielddominance>none</fielddominance>
															<colordepth>24</colordepth>
														</samplecharacteristics>
													</format>
													<track TL.SQTrackShy="0" TL.SQTrackExpandedHeight="25" TL.SQTrackExpanded="0" MZ.TrackTargeted="1">
														<clipitem id="clipitem-225">
															<masterclipid>masterclip-72</masterclipid>
															<name>(Nicolas Abtan)_Short Acrylic Painting Time-Lapse - Hanging Ivy_0uQh92Dvaes_YT.mp4</name>
															<enabled>TRUE</enabled>
															<duration>1707</duration>
															<rate>
																<timebase>30</timebase>
																<ntsc>TRUE</ntsc>
															</rate>
															<start>0</start>
															<end>1463</end>
															<in>40</in>
															<out>1502</out>
															<pproTicksIn>2085014131200</pproTicksIn>
															<pproTicksOut>78747423955200</pproTicksOut>
															<alphatype>none</alphatype>
															<pixelaspectratio>square</pixelaspectratio>
															<anamorphic>FALSE</anamorphic>
															<file id="file-58">
																<name>(Nicolas Abtan)_Short Acrylic Painting Time-Lapse - Hanging Ivy_0uQh92Dvaes_YT.mp4</name>
																<pathurl>file://localhost/Volumes/CONTENT/VOD%20CONTENT%20ARCHIVE/O&amp;O%20Archive%202023/CRAFTY/03_March/Crafty_3-20-2023/3_Raw%20Files/vine%20painting/(Nicolas%20Abtan)_Short%20Acrylic%20Painting%20Time-Lapse%20-%20Hanging%20Ivy_0uQh92Dvaes_YT.mp4</pathurl>
																<rate>
																	<timebase>30</timebase>
																	<ntsc>TRUE</ntsc>
																</rate>
																<duration>10554</duration>
																<timecode>
																	<rate>
																		<timebase>30</timebase>
																		<ntsc>TRUE</ntsc>
																	</rate>
																	<string>00:00:00:00</string>
																	<frame>0</frame>
																	<displayformat>NDF</displayformat>
																</timecode>
																<media>
																	<video>
																		<samplecharacteristics>
																			<rate>
																				<timebase>30</timebase>
																				<ntsc>TRUE</ntsc>
																			</rate>
																			<width>1920</width>
																			<height>1080</height>
																			<anamorphic>FALSE</anamorphic>
																			<pixelaspectratio>square</pixelaspectratio>
																			<fielddominance>none</fielddominance>
																		</samplecharacteristics>
																	</video>
																	<audio>
																		<samplecharacteristics>
																			<depth>16</depth>
																			<samplerate>44100</samplerate>
																		</samplecharacteristics>
																		<channelcount>2</channelcount>
																	</audio>
																</media>
															</file>
															<filter>
																<effect>
																	<name>Time Remap</name>
																	<effectid>timeremap</effectid>
																	<effectcategory>motion</effectcategory>
																	<effecttype>motion</effecttype>
																	<mediatype>video</mediatype>
																	<parameter authoringApp="PremierePro">
																		<parameterid>variablespeed</parameterid>
																		<name>variablespeed</name>
																		<valuemin>0</valuemin>
																		<valuemax>1</valuemax>
																		<value>0</value>
																	</parameter>
																	<parameter authoringApp="PremierePro">
																		<parameterid>speed</parameterid>
																		<name>speed</name>
																		<valuemin>-100000</valuemin>
																		<valuemax>100000</valuemax>
																		<value>618.25</value>
																	</parameter>
																	<parameter authoringApp="PremierePro">
																		<parameterid>reverse</parameterid>
																		<name>reverse</name>
																		<value>FALSE</value>
																	</parameter>
																	<parameter authoringApp="PremierePro">
																		<parameterid>frameblending</parameterid>
																		<name>frameblending</name>
																		<value>FALSE</value>
																	</parameter>
																	<parameter authoringApp="PremierePro">
																		<parameterid>graphdict</parameterid>
																		<name>graphdict</name>
																		<valuemin>0</valuemin>
																		<valuemax>10553</valuemax>
																		<value>0</value>
																		<keyframe>
																			<when>0</when>
																			<value>0</value>
																			<speedvirtualkf>TRUE</speedvirtualkf>
																			<speedkfstart>TRUE</speedkfstart>
																		</keyframe>
																		<keyframe>
																			<when>40</when>
																			<value>247</value>
																			<speedvirtualkf>TRUE</speedvirtualkf>
																			<speedkfin>TRUE</speedkfin>
																		</keyframe>
																		<keyframe>
																			<when>1502</when>
																			<value>9286</value>
																			<speedvirtualkf>TRUE</speedvirtualkf>
																			<speedkfout>TRUE</speedkfout>
																		</keyframe>
																		<keyframe>
																			<when>1707</when>
																			<value>10553</value>
																			<speedvirtualkf>TRUE</speedvirtualkf>
																			<speedkfend>TRUE</speedkfend>
																		</keyframe>
																		<interpolation>
																			<name>FCPCurve</name>
																		</interpolation>
																	</parameter>
																</effect>
															</filter>
															<logginginfo>
																<description></description>
																<scene></scene>
																<shottake></shottake>
																<lognote>https://www.youtube.com/watch?v=0uQh92Dvaes</lognote>
																<good></good>
																<originalvideofilename></originalvideofilename>
																<originalaudiofilename></originalaudiofilename>
															</logginginfo>
															<colorinfo>
																<lut></lut>
																<lut1></lut1>
																<asc_sop></asc_sop>
																<asc_sat></asc_sat>
																<lut2></lut2>
															</colorinfo>
															<labels>
																<label2>Iris</label2>
															</labels>
														</clipitem>
														<clipitem id="clipitem-226">
															<masterclipid>masterclip-72</masterclipid>
															<name>(Nicolas Abtan)_Short Acrylic Painting Time-Lapse - Hanging Ivy_0uQh92Dvaes_YT.mp4</name>
															<enabled>TRUE</enabled>
															<duration>10554</duration>
															<rate>
																<timebase>30</timebase>
																<ntsc>TRUE</ntsc>
															</rate>
															<start>1463</start>
															<end>1764</end>
															<in>9906</in>
															<out>10207</out>
															<pproTicksIn>83959959283200</pproTicksIn>
															<pproTicksOut>86511135110400</pproTicksOut>
															<alphatype>none</alphatype>
															<file id="file-58"/>
															<logginginfo>
																<description></description>
																<scene></scene>
																<shottake></shottake>
																<lognote>https://www.youtube.com/watch?v=0uQh92Dvaes</lognote>
																<good></good>
																<originalvideofilename></originalvideofilename>
																<originalaudiofilename></originalaudiofilename>
															</logginginfo>
															<colorinfo>
																<lut></lut>
																<lut1></lut1>
																<asc_sop></asc_sop>
																<asc_sat></asc_sat>
																<lut2></lut2>
															</colorinfo>
															<labels>
																<label2>Iris</label2>
															</labels>
														</clipitem>
														<enabled>TRUE</enabled>
														<locked>FALSE</locked>
													</track>
													<track TL.SQTrackShy="0" TL.SQTrackExpandedHeight="25" TL.SQTrackExpanded="0" MZ.TrackTargeted="0">
														<clipitem id="clipitem-227">
															<masterclipid>masterclip-73</masterclipid>
															<name>NICOLAS ABTAN</name>
															<enabled>TRUE</enabled>
															<duration>5844</duration>
															<rate>
																<timebase>30</timebase>
																<ntsc>TRUE</ntsc>
															</rate>
															<start>0</start>
															<end>1764</end>
															<in>0</in>
															<out>1764</out>
															<pproTicksIn>0</pproTicksIn>
															<pproTicksOut>14951076940800</pproTicksOut>
															<alphatype>straight</alphatype>
															<pixelaspectratio>square</pixelaspectratio>
															<anamorphic>FALSE</anamorphic>
															<file id="file-59">
																<name>1080/AE Attribution.aep</name>
																<pathurl>file://localhost/Volumes/ATM%20JR%202TB/Master%20Assets/AE%20Attribution.aep</pathurl>
																<rate>
																	<timebase>30</timebase>
																	<ntsc>TRUE</ntsc>
																</rate>
																<duration>5844</duration>
																<timecode>
																	<rate>
																		<timebase>30</timebase>
																		<ntsc>TRUE</ntsc>
																	</rate>
																	<string>00;00;00;00</string>
																	<frame>0</frame>
																	<displayformat>DF</displayformat>
																</timecode>
																<media>
																	<video>
																		<samplecharacteristics>
																			<rate>
																				<timebase>30</timebase>
																				<ntsc>TRUE</ntsc>
																			</rate>
																			<width>1920</width>
																			<height>1080</height>
																			<anamorphic>FALSE</anamorphic>
																			<pixelaspectratio>square</pixelaspectratio>
																			<fielddominance>lower</fielddominance>
																		</samplecharacteristics>
																	</video>
																</media>
															</file>
															<logginginfo>
																<description></description>
																<scene></scene>
																<shottake></shottake>
																<lognote></lognote>
																<good></good>
																<originalvideofilename></originalvideofilename>
																<originalaudiofilename></originalaudiofilename>
															</logginginfo>
															<colorinfo>
																<lut></lut>
																<lut1></lut1>
																<asc_sop></asc_sop>
																<asc_sat></asc_sat>
																<lut2></lut2>
															</colorinfo>
															<labels>
																<label2>Rose</label2>
															</labels>
														</clipitem>
														<enabled>TRUE</enabled>
														<locked>FALSE</locked>
													</track>
												</video>
												<audio>
													<numOutputChannels>2</numOutputChannels>
													<format>
														<samplecharacteristics>
															<depth>16</depth>
															<samplerate>48000</samplerate>
														</samplecharacteristics>
													</format>
													<outputs>
														<group>
															<index>1</index>
															<numchannels>1</numchannels>
															<downmix>0</downmix>
															<channel>
																<index>1</index>
															</channel>
														</group>
														<group>
															<index>2</index>
															<numchannels>1</numchannels>
															<downmix>0</downmix>
															<channel>
																<index>2</index>
															</channel>
														</group>
													</outputs>
													<track TL.SQTrackAudioKeyframeStyle="0" TL.SQTrackShy="0" TL.SQTrackExpandedHeight="25" TL.SQTrackExpanded="0" MZ.TrackTargeted="1" PannerCurrentValue="0.5" PannerIsInverted="true" PannerStartKeyframe="-91445760000000000,0.5,0,0,0,0,0,0" PannerName="Balance" currentExplodedTrackIndex="0" totalExplodedTrackCount="2" premiereTrackType="Stereo">
														<enabled>TRUE</enabled>
														<locked>FALSE</locked>
														<outputchannelindex>1</outputchannelindex>
													</track>
													<track TL.SQTrackAudioKeyframeStyle="0" TL.SQTrackShy="0" TL.SQTrackExpandedHeight="25" TL.SQTrackExpanded="0" MZ.TrackTargeted="1" PannerCurrentValue="0.5" PannerIsInverted="true" PannerStartKeyframe="-91445760000000000,0.5,0,0,0,0,0,0" PannerName="Balance" currentExplodedTrackIndex="1" totalExplodedTrackCount="2" premiereTrackType="Stereo">
														<enabled>TRUE</enabled>
														<locked>FALSE</locked>
														<outputchannelindex>2</outputchannelindex>
													</track>
												</audio>
											</media>
											<timecode>
												<rate>
													<timebase>30</timebase>
													<ntsc>TRUE</ntsc>
												</rate>
												<string>00;00;00;00</string>
												<frame>0</frame>
												<displayformat>DF</displayformat>
											</timecode>
											<logginginfo>
												<description></description>
												<scene></scene>
												<shottake></shottake>
												<lognote></lognote>
												<good></good>
												<originalvideofilename></originalvideofilename>
												<originalaudiofilename></originalaudiofilename>
											</logginginfo>
										</sequence>
										<labels>
											<label2>Forest</label2>
										</labels>
									</clipitem>
									<enabled>TRUE</enabled>
									<locked>FALSE</locked>
								</track>
								<track TL.SQTrackShy="0" TL.SQTrackExpandedHeight="25" TL.SQTrackExpanded="0" MZ.TrackTargeted="0">
									<clipitem id="clipitem-228">
										<masterclipid>masterclip-74</masterclipid>
										<name>ISLAND LIFE</name>
										<enabled>TRUE</enabled>
										<duration>5695</duration>
										<rate>
											<timebase>30</timebase>
											<ntsc>TRUE</ntsc>
										</rate>
										<start>0</start>
										<end>3681</end>
										<in>0</in>
										<out>3681</out>
										<pproTicksIn>0</pproTicksIn>
										<pproTicksOut>31198930963200</pproTicksOut>
										<alphatype>straight</alphatype>
										<pixelaspectratio>square</pixelaspectratio>
										<anamorphic>FALSE</anamorphic>
										<file id="file-60">
											<name>CRAFTY_L3RD_01_JL_V03/CRAFTY_L3RD_01_JL_V03.aep</name>
											<pathurl>file://localhost/Volumes/ATM%20JR%202TB/Master%20Assets/CRAFTY_L3RD_01_JL_V03%20folder/CRAFTY_L3RD_01_JL_V03.aep</pathurl>
											<rate>
												<timebase>30</timebase>
												<ntsc>FALSE</ntsc>
											</rate>
											<duration>5701</duration>
											<timecode>
												<rate>
													<timebase>30</timebase>
													<ntsc>FALSE</ntsc>
												</rate>
												<string>00:00:00:00</string>
												<frame>0</frame>
												<displayformat>NDF</displayformat>
											</timecode>
											<media>
												<video>
													<samplecharacteristics>
														<rate>
															<timebase>30</timebase>
															<ntsc>FALSE</ntsc>
														</rate>
														<width>1920</width>
														<height>1080</height>
														<anamorphic>FALSE</anamorphic>
														<pixelaspectratio>square</pixelaspectratio>
														<fielddominance>lower</fielddominance>
													</samplecharacteristics>
												</video>
											</media>
										</file>
										<logginginfo>
											<description></description>
											<scene></scene>
											<shottake></shottake>
											<lognote></lognote>
											<good></good>
											<originalvideofilename></originalvideofilename>
											<originalaudiofilename></originalaudiofilename>
										</logginginfo>
										<colorinfo>
											<lut></lut>
											<lut1></lut1>
											<asc_sop></asc_sop>
											<asc_sat></asc_sat>
											<lut2></lut2>
										</colorinfo>
										<labels>
											<label2>Rose</label2>
										</labels>
									</clipitem>
									<clipitem id="clipitem-229">
										<masterclipid>masterclip-75</masterclipid>
										<name>I FEEL VINE</name>
										<enabled>TRUE</enabled>
										<duration>5695</duration>
										<rate>
											<timebase>30</timebase>
											<ntsc>TRUE</ntsc>
										</rate>
										<start>3772</start>
										<end>5504</end>
										<in>0</in>
										<out>1732</out>
										<pproTicksIn>0</pproTicksIn>
										<pproTicksOut>14679855590400</pproTicksOut>
										<alphatype>straight</alphatype>
										<pixelaspectratio>square</pixelaspectratio>
										<anamorphic>FALSE</anamorphic>
										<file id="file-61">
											<name>CRAFTY_L3RD_01_JL_V03/CRAFTY_L3RD_01_JL_V03.aep</name>
											<pathurl>file://localhost/Volumes/ATM%20JR%202TB/Master%20Assets/CRAFTY_L3RD_01_JL_V03%20folder/CRAFTY_L3RD_01_JL_V03.aep</pathurl>
											<rate>
												<timebase>30</timebase>
												<ntsc>FALSE</ntsc>
											</rate>
											<duration>5701</duration>
											<timecode>
												<rate>
													<timebase>30</timebase>
													<ntsc>FALSE</ntsc>
												</rate>
												<string>00:00:00:00</string>
												<frame>0</frame>
												<displayformat>NDF</displayformat>
											</timecode>
											<media>
												<video>
													<samplecharacteristics>
														<rate>
															<timebase>30</timebase>
															<ntsc>FALSE</ntsc>
														</rate>
														<width>1920</width>
														<height>1080</height>
														<anamorphic>FALSE</anamorphic>
														<pixelaspectratio>square</pixelaspectratio>
														<fielddominance>lower</fielddominance>
													</samplecharacteristics>
												</video>
											</media>
										</file>
										<logginginfo>
											<description></description>
											<scene></scene>
											<shottake></shottake>
											<lognote></lognote>
											<good></good>
											<originalvideofilename></originalvideofilename>
											<originalaudiofilename></originalaudiofilename>
										</logginginfo>
										<colorinfo>
											<lut></lut>
											<lut1></lut1>
											<asc_sop></asc_sop>
											<asc_sat></asc_sat>
											<lut2></lut2>
										</colorinfo>
										<labels>
											<label2>Rose</label2>
										</labels>
									</clipitem>
									<enabled>TRUE</enabled>
									<locked>FALSE</locked>
								</track>
								<track TL.SQTrackShy="0" TL.SQTrackExpandedHeight="25" TL.SQTrackExpanded="0" MZ.TrackTargeted="0">
									<clipitem id="clipitem-230">
										<masterclipid>masterclip-9</masterclipid>
										<name>ATM_logo_channels_right-2 (3).png</name>
										<enabled>TRUE</enabled>
										<duration>1294705</duration>
										<rate>
											<timebase>30</timebase>
											<ntsc>TRUE</ntsc>
										</rate>
										<start>0</start>
										<end>5504</end>
										<in>105065</in>
										<out>110569</out>
										<pproTicksIn>890495974368000</pproTicksIn>
										<pproTicksOut>937146046636800</pproTicksOut>
										<alphatype>straight</alphatype>
										<file id="file-7"/>
										<logginginfo>
											<description></description>
											<scene></scene>
											<shottake></shottake>
											<lognote></lognote>
											<good></good>
											<originalvideofilename></originalvideofilename>
											<originalaudiofilename></originalaudiofilename>
										</logginginfo>
										<colorinfo>
											<lut></lut>
											<lut1></lut1>
											<asc_sop></asc_sop>
											<asc_sat></asc_sat>
											<lut2></lut2>
										</colorinfo>
										<labels>
											<label2>Lavender</label2>
										</labels>
									</clipitem>
									<enabled>TRUE</enabled>
									<locked>FALSE</locked>
								</track>
								<track TL.SQTrackShy="0" TL.SQTrackExpandedHeight="25" TL.SQTrackExpanded="0" MZ.TrackTargeted="0">
									<clipitem id="clipitem-231">
										<masterclipid>masterclip-11</masterclipid>
										<name>CRAFTY_TRAN02_JL_V01.mov</name>
										<enabled>TRUE</enabled>
										<duration>120</duration>
										<rate>
											<timebase>30</timebase>
											<ntsc>TRUE</ntsc>
										</rate>
										<start>3652</start>
										<end>3772</end>
										<in>0</in>
										<out>120</out>
										<pproTicksIn>0</pproTicksIn>
										<pproTicksOut>1017080064000</pproTicksOut>
										<alphatype>none</alphatype>
										<file id="file-9"/>
										<link>
											<linkclipref>clipitem-231</linkclipref>
											<mediatype>video</mediatype>
											<trackindex>4</trackindex>
											<clipindex>1</clipindex>
										</link>
										<link>
											<linkclipref>clipitem-233</linkclipref>
											<mediatype>audio</mediatype>
											<trackindex>1</trackindex>
											<clipindex>1</clipindex>
											<groupindex>1</groupindex>
										</link>
										<link>
											<linkclipref>clipitem-235</linkclipref>
											<mediatype>audio</mediatype>
											<trackindex>2</trackindex>
											<clipindex>1</clipindex>
											<groupindex>1</groupindex>
										</link>
										<logginginfo>
											<description></description>
											<scene></scene>
											<shottake></shottake>
											<lognote></lognote>
											<good></good>
											<originalvideofilename></originalvideofilename>
											<originalaudiofilename></originalaudiofilename>
										</logginginfo>
										<colorinfo>
											<lut></lut>
											<lut1></lut1>
											<asc_sop></asc_sop>
											<asc_sat></asc_sat>
											<lut2></lut2>
										</colorinfo>
										<labels>
											<label2>Iris</label2>
										</labels>
									</clipitem>
									<clipitem id="clipitem-232">
										<masterclipid>masterclip-22</masterclipid>
										<name>CRAFTY_TRAN03_JL_V01.mov</name>
										<enabled>TRUE</enabled>
										<duration>120</duration>
										<rate>
											<timebase>30</timebase>
											<ntsc>TRUE</ntsc>
										</rate>
										<start>5481</start>
										<end>5601</end>
										<in>0</in>
										<out>120</out>
										<pproTicksIn>0</pproTicksIn>
										<pproTicksOut>1017080064000</pproTicksOut>
										<alphatype>none</alphatype>
										<file id="file-18"/>
										<link>
											<linkclipref>clipitem-232</linkclipref>
											<mediatype>video</mediatype>
											<trackindex>4</trackindex>
											<clipindex>2</clipindex>
										</link>
										<link>
											<linkclipref>clipitem-234</linkclipref>
											<mediatype>audio</mediatype>
											<trackindex>1</trackindex>
											<clipindex>2</clipindex>
											<groupindex>1</groupindex>
										</link>
										<link>
											<linkclipref>clipitem-236</linkclipref>
											<mediatype>audio</mediatype>
											<trackindex>2</trackindex>
											<clipindex>2</clipindex>
											<groupindex>1</groupindex>
										</link>
										<logginginfo>
											<description></description>
											<scene></scene>
											<shottake></shottake>
											<lognote></lognote>
											<good></good>
											<originalvideofilename></originalvideofilename>
											<originalaudiofilename></originalaudiofilename>
										</logginginfo>
										<colorinfo>
											<lut></lut>
											<lut1></lut1>
											<asc_sop></asc_sop>
											<asc_sat></asc_sat>
											<lut2></lut2>
										</colorinfo>
										<labels>
											<label2>Iris</label2>
										</labels>
									</clipitem>
									<enabled>TRUE</enabled>
									<locked>FALSE</locked>
								</track>
							</video>
							<audio>
								<numOutputChannels>2</numOutputChannels>
								<format>
									<samplecharacteristics>
										<depth>16</depth>
										<samplerate>48000</samplerate>
									</samplecharacteristics>
								</format>
								<outputs>
									<group>
										<index>1</index>
										<numchannels>1</numchannels>
										<downmix>0</downmix>
										<channel>
											<index>1</index>
										</channel>
									</group>
									<group>
										<index>2</index>
										<numchannels>1</numchannels>
										<downmix>0</downmix>
										<channel>
											<index>2</index>
										</channel>
									</group>
								</outputs>
								<track TL.SQTrackAudioKeyframeStyle="0" TL.SQTrackShy="0" TL.SQTrackExpandedHeight="25" TL.SQTrackExpanded="0" MZ.TrackTargeted="1" PannerCurrentValue="0.5" PannerIsInverted="true" PannerStartKeyframe="-91445760000000000,0.5,0,0,0,0,0,0" PannerName="Balance" currentExplodedTrackIndex="0" totalExplodedTrackCount="2" premiereTrackType="Stereo">
									<clipitem id="clipitem-233" premiereChannelType="stereo">
										<masterclipid>masterclip-11</masterclipid>
										<name>CRAFTY_TRAN02_JL_V01.mov</name>
										<enabled>TRUE</enabled>
										<duration>120</duration>
										<rate>
											<timebase>30</timebase>
											<ntsc>TRUE</ntsc>
										</rate>
										<start>3652</start>
										<end>3772</end>
										<in>0</in>
										<out>120</out>
										<pproTicksIn>0</pproTicksIn>
										<pproTicksOut>1017080064000</pproTicksOut>
										<file id="file-9"/>
										<sourcetrack>
											<mediatype>audio</mediatype>
											<trackindex>1</trackindex>
										</sourcetrack>
										<link>
											<linkclipref>clipitem-231</linkclipref>
											<mediatype>video</mediatype>
											<trackindex>4</trackindex>
											<clipindex>1</clipindex>
										</link>
										<link>
											<linkclipref>clipitem-233</linkclipref>
											<mediatype>audio</mediatype>
											<trackindex>1</trackindex>
											<clipindex>1</clipindex>
											<groupindex>1</groupindex>
										</link>
										<link>
											<linkclipref>clipitem-235</linkclipref>
											<mediatype>audio</mediatype>
											<trackindex>2</trackindex>
											<clipindex>1</clipindex>
											<groupindex>1</groupindex>
										</link>
										<logginginfo>
											<description></description>
											<scene></scene>
											<shottake></shottake>
											<lognote></lognote>
											<good></good>
											<originalvideofilename></originalvideofilename>
											<originalaudiofilename></originalaudiofilename>
										</logginginfo>
										<colorinfo>
											<lut></lut>
											<lut1></lut1>
											<asc_sop></asc_sop>
											<asc_sat></asc_sat>
											<lut2></lut2>
										</colorinfo>
										<labels>
											<label2>Iris</label2>
										</labels>
									</clipitem>
									<clipitem id="clipitem-234" premiereChannelType="stereo">
										<masterclipid>masterclip-22</masterclipid>
										<name>CRAFTY_TRAN03_JL_V01.mov</name>
										<enabled>TRUE</enabled>
										<duration>120</duration>
										<rate>
											<timebase>30</timebase>
											<ntsc>TRUE</ntsc>
										</rate>
										<start>5481</start>
										<end>5601</end>
										<in>0</in>
										<out>120</out>
										<pproTicksIn>0</pproTicksIn>
										<pproTicksOut>1017080064000</pproTicksOut>
										<file id="file-18"/>
										<sourcetrack>
											<mediatype>audio</mediatype>
											<trackindex>1</trackindex>
										</sourcetrack>
										<link>
											<linkclipref>clipitem-232</linkclipref>
											<mediatype>video</mediatype>
											<trackindex>4</trackindex>
											<clipindex>2</clipindex>
										</link>
										<link>
											<linkclipref>clipitem-234</linkclipref>
											<mediatype>audio</mediatype>
											<trackindex>1</trackindex>
											<clipindex>2</clipindex>
											<groupindex>1</groupindex>
										</link>
										<link>
											<linkclipref>clipitem-236</linkclipref>
											<mediatype>audio</mediatype>
											<trackindex>2</trackindex>
											<clipindex>2</clipindex>
											<groupindex>1</groupindex>
										</link>
										<logginginfo>
											<description></description>
											<scene></scene>
											<shottake></shottake>
											<lognote></lognote>
											<good></good>
											<originalvideofilename></originalvideofilename>
											<originalaudiofilename></originalaudiofilename>
										</logginginfo>
										<colorinfo>
											<lut></lut>
											<lut1></lut1>
											<asc_sop></asc_sop>
											<asc_sat></asc_sat>
											<lut2></lut2>
										</colorinfo>
										<labels>
											<label2>Iris</label2>
										</labels>
									</clipitem>
									<enabled>TRUE</enabled>
									<locked>FALSE</locked>
									<outputchannelindex>1</outputchannelindex>
								</track>
								<track TL.SQTrackAudioKeyframeStyle="0" TL.SQTrackShy="0" TL.SQTrackExpandedHeight="25" TL.SQTrackExpanded="0" MZ.TrackTargeted="1" PannerCurrentValue="0.5" PannerIsInverted="true" PannerStartKeyframe="-91445760000000000,0.5,0,0,0,0,0,0" PannerName="Balance" currentExplodedTrackIndex="1" totalExplodedTrackCount="2" premiereTrackType="Stereo">
									<clipitem id="clipitem-235" premiereChannelType="stereo">
										<masterclipid>masterclip-11</masterclipid>
										<name>CRAFTY_TRAN02_JL_V01.mov</name>
										<enabled>TRUE</enabled>
										<duration>120</duration>
										<rate>
											<timebase>30</timebase>
											<ntsc>TRUE</ntsc>
										</rate>
										<start>3652</start>
										<end>3772</end>
										<in>0</in>
										<out>120</out>
										<pproTicksIn>0</pproTicksIn>
										<pproTicksOut>1017080064000</pproTicksOut>
										<file id="file-9"/>
										<sourcetrack>
											<mediatype>audio</mediatype>
											<trackindex>2</trackindex>
										</sourcetrack>
										<link>
											<linkclipref>clipitem-231</linkclipref>
											<mediatype>video</mediatype>
											<trackindex>4</trackindex>
											<clipindex>1</clipindex>
										</link>
										<link>
											<linkclipref>clipitem-233</linkclipref>
											<mediatype>audio</mediatype>
											<trackindex>1</trackindex>
											<clipindex>1</clipindex>
											<groupindex>1</groupindex>
										</link>
										<link>
											<linkclipref>clipitem-235</linkclipref>
											<mediatype>audio</mediatype>
											<trackindex>2</trackindex>
											<clipindex>1</clipindex>
											<groupindex>1</groupindex>
										</link>
										<logginginfo>
											<description></description>
											<scene></scene>
											<shottake></shottake>
											<lognote></lognote>
											<good></good>
											<originalvideofilename></originalvideofilename>
											<originalaudiofilename></originalaudiofilename>
										</logginginfo>
										<colorinfo>
											<lut></lut>
											<lut1></lut1>
											<asc_sop></asc_sop>
											<asc_sat></asc_sat>
											<lut2></lut2>
										</colorinfo>
										<labels>
											<label2>Iris</label2>
										</labels>
									</clipitem>
									<clipitem id="clipitem-236" premiereChannelType="stereo">
										<masterclipid>masterclip-22</masterclipid>
										<name>CRAFTY_TRAN03_JL_V01.mov</name>
										<enabled>TRUE</enabled>
										<duration>120</duration>
										<rate>
											<timebase>30</timebase>
											<ntsc>TRUE</ntsc>
										</rate>
										<start>5481</start>
										<end>5601</end>
										<in>0</in>
										<out>120</out>
										<pproTicksIn>0</pproTicksIn>
										<pproTicksOut>1017080064000</pproTicksOut>
										<file id="file-18"/>
										<sourcetrack>
											<mediatype>audio</mediatype>
											<trackindex>2</trackindex>
										</sourcetrack>
										<link>
											<linkclipref>clipitem-232</linkclipref>
											<mediatype>video</mediatype>
											<trackindex>4</trackindex>
											<clipindex>2</clipindex>
										</link>
										<link>
											<linkclipref>clipitem-234</linkclipref>
											<mediatype>audio</mediatype>
											<trackindex>1</trackindex>
											<clipindex>2</clipindex>
											<groupindex>1</groupindex>
										</link>
										<link>
											<linkclipref>clipitem-236</linkclipref>
											<mediatype>audio</mediatype>
											<trackindex>2</trackindex>
											<clipindex>2</clipindex>
											<groupindex>1</groupindex>
										</link>
										<logginginfo>
											<description></description>
											<scene></scene>
											<shottake></shottake>
											<lognote></lognote>
											<good></good>
											<originalvideofilename></originalvideofilename>
											<originalaudiofilename></originalaudiofilename>
										</logginginfo>
										<colorinfo>
											<lut></lut>
											<lut1></lut1>
											<asc_sop></asc_sop>
											<asc_sat></asc_sat>
											<lut2></lut2>
										</colorinfo>
										<labels>
											<label2>Iris</label2>
										</labels>
									</clipitem>
									<enabled>TRUE</enabled>
									<locked>FALSE</locked>
									<outputchannelindex>2</outputchannelindex>
								</track>
								<track TL.SQTrackAudioKeyframeStyle="0" TL.SQTrackShy="0" TL.SQTrackExpandedHeight="25" TL.SQTrackExpanded="0" MZ.TrackTargeted="1" PannerCurrentValue="0.5" PannerIsInverted="true" PannerStartKeyframe="-91445760000000000,0.5,0,0,0,0,0,0" PannerName="Balance" currentExplodedTrackIndex="0" totalExplodedTrackCount="2" premiereTrackType="Stereo">
									<clipitem id="clipitem-237" premiereChannelType="stereo">
										<masterclipid>masterclip-76</masterclipid>
										<name>ES_Shooting Star (Make A Wish) - Matt Large.wav</name>
										<enabled>TRUE</enabled>
										<duration>6779</duration>
										<rate>
											<timebase>30</timebase>
											<ntsc>TRUE</ntsc>
										</rate>
										<start>0</start>
										<end>-1</end>
										<in>0</in>
										<out>3652</out>
										<pproTicksIn>0</pproTicksIn>
										<pproTicksOut>30953136614400</pproTicksOut>
										<file id="file-62">
											<name>ES_Shooting Star (Make A Wish) - Matt Large.wav</name>
											<pathurl>file://localhost/Volumes/CONTENT/VOD%20CONTENT%20ARCHIVE/O&amp;O%20Archive%202023/CRAFTY/03_March/Crafty_3-20-2023/5_Music/ES_Shooting%20Star%20(Make%20A%20Wish)%20-%20Matt%20Large.wav</pathurl>
											<rate>
												<timebase>30</timebase>
												<ntsc>TRUE</ntsc>
											</rate>
											<duration>6779</duration>
											<timecode>
												<rate>
													<timebase>30</timebase>
													<ntsc>TRUE</ntsc>
												</rate>
												<string>08;08;26;01</string>
												<frame>878301</frame>
												<displayformat>DF</displayformat>
											</timecode>
											<media>
												<audio>
													<samplecharacteristics>
														<depth>16</depth>
														<samplerate>48000</samplerate>
													</samplecharacteristics>
													<channelcount>2</channelcount>
												</audio>
											</media>
										</file>
										<sourcetrack>
											<mediatype>audio</mediatype>
											<trackindex>1</trackindex>
										</sourcetrack>
										<filter>
											<effect>
												<name>Gain</name>
												<effectid>{61756678, 4761696e, 4b657947}</effectid>
												<effecttype>filter</effecttype>
												<mediatype>audio</mediatype>
												<parameter authoringApp="PremierePro">
													<parameterid>Gain(dB)</parameterid>
													<name>Gain(dB)</name>
													<valuemin>-96</valuemin>
													<valuemax>96</valuemax>
													<value>-6</value>
												</parameter>
											</effect>
										</filter>
										<link>
											<linkclipref>clipitem-237</linkclipref>
											<mediatype>audio</mediatype>
											<trackindex>3</trackindex>
											<clipindex>1</clipindex>
											<groupindex>1</groupindex>
										</link>
										<link>
											<linkclipref>clipitem-239</linkclipref>
											<mediatype>audio</mediatype>
											<trackindex>4</trackindex>
											<clipindex>1</clipindex>
											<groupindex>1</groupindex>
										</link>
										<logginginfo>
											<description></description>
											<scene></scene>
											<shottake></shottake>
											<lognote></lognote>
											<good></good>
											<originalvideofilename></originalvideofilename>
											<originalaudiofilename></originalaudiofilename>
										</logginginfo>
										<colorinfo>
											<lut></lut>
											<lut1></lut1>
											<asc_sop></asc_sop>
											<asc_sat></asc_sat>
											<lut2></lut2>
										</colorinfo>
										<labels>
											<label2>Caribbean</label2>
										</labels>
									</clipitem>
									<transitionitem>
										<start>3532</start>
										<end>3652</end>
										<pproTicksIn>29936055492000</pproTicksIn>
										<pproTicksOut>30953136614400</pproTicksOut>
										<alignment>end-black</alignment>
										<cutPointTicks>1017081122400</cutPointTicks>
										<rate>
											<timebase>30</timebase>
											<ntsc>TRUE</ntsc>
										</rate>
										<effect>
											<name>Cross Fade (+3dB)</name>
											<effectid>KGAudioTransCrossFade3dB</effectid>
											<effecttype>transition</effecttype>
											<mediatype>audio</mediatype>
											<wipecode>0</wipecode>
											<wipeaccuracy>100</wipeaccuracy>
											<startratio>0</startratio>
											<endratio>1</endratio>
											<reverse>FALSE</reverse>
										</effect>
									</transitionitem>
									<clipitem id="clipitem-238" premiereChannelType="stereo">
										<masterclipid>masterclip-77</masterclipid>
										<name>ES_Sisel - Jobii.wav</name>
										<enabled>TRUE</enabled>
										<duration>4304</duration>
										<rate>
											<timebase>30</timebase>
											<ntsc>TRUE</ntsc>
										</rate>
										<start>3772</start>
										<end>-1</end>
										<in>0</in>
										<out>1709</out>
										<pproTicksIn>0</pproTicksIn>
										<pproTicksOut>14484915244800</pproTicksOut>
										<file id="file-63">
											<name>ES_Sisel - Jobii.wav</name>
											<pathurl>file://localhost/Volumes/CONTENT/VOD%20CONTENT%20ARCHIVE/O&amp;O%20Archive%202023/CRAFTY/03_March/Crafty_3-20-2023/5_Music/ES_Sisel%20-%20Jobii.wav</pathurl>
											<rate>
												<timebase>30</timebase>
												<ntsc>TRUE</ntsc>
											</rate>
											<duration>4304</duration>
											<timecode>
												<rate>
													<timebase>30</timebase>
													<ntsc>TRUE</ntsc>
												</rate>
												<string>03;34;39;29</string>
												<frame>386013</frame>
												<displayformat>DF</displayformat>
											</timecode>
											<media>
												<audio>
													<samplecharacteristics>
														<depth>16</depth>
														<samplerate>48000</samplerate>
													</samplecharacteristics>
													<channelcount>2</channelcount>
												</audio>
											</media>
										</file>
										<sourcetrack>
											<mediatype>audio</mediatype>
											<trackindex>1</trackindex>
										</sourcetrack>
										<filter>
											<effect>
												<name>Gain</name>
												<effectid>{61756678, 4761696e, 4b657947}</effectid>
												<effecttype>filter</effecttype>
												<mediatype>audio</mediatype>
												<parameter authoringApp="PremierePro">
													<parameterid>Gain(dB)</parameterid>
													<name>Gain(dB)</name>
													<valuemin>-96</valuemin>
													<valuemax>96</valuemax>
													<value>-6</value>
												</parameter>
											</effect>
										</filter>
										<link>
											<linkclipref>clipitem-238</linkclipref>
											<mediatype>audio</mediatype>
											<trackindex>3</trackindex>
											<clipindex>3</clipindex>
											<groupindex>1</groupindex>
										</link>
										<link>
											<linkclipref>clipitem-240</linkclipref>
											<mediatype>audio</mediatype>
											<trackindex>4</trackindex>
											<clipindex>3</clipindex>
											<groupindex>1</groupindex>
										</link>
										<logginginfo>
											<description></description>
											<scene></scene>
											<shottake></shottake>
											<lognote></lognote>
											<good></good>
											<originalvideofilename></originalvideofilename>
											<originalaudiofilename></originalaudiofilename>
										</logginginfo>
										<colorinfo>
											<lut></lut>
											<lut1></lut1>
											<asc_sop></asc_sop>
											<asc_sat></asc_sat>
											<lut2></lut2>
										</colorinfo>
										<labels>
											<label2>Caribbean</label2>
										</labels>
									</clipitem>
									<transitionitem>
										<start>5362</start>
										<end>5481</end>
										<pproTicksIn>45438053976000</pproTicksIn>
										<pproTicksOut>46455131923200</pproTicksOut>
										<alignment>end-black</alignment>
										<cutPointTicks>1017077947200</cutPointTicks>
										<rate>
											<timebase>30</timebase>
											<ntsc>TRUE</ntsc>
										</rate>
										<effect>
											<name>Cross Fade (+3dB)</name>
											<effectid>KGAudioTransCrossFade3dB</effectid>
											<effecttype>transition</effecttype>
											<mediatype>audio</mediatype>
											<wipecode>0</wipecode>
											<wipeaccuracy>100</wipeaccuracy>
											<startratio>0</startratio>
											<endratio>1</endratio>
											<reverse>FALSE</reverse>
										</effect>
									</transitionitem>
									<enabled>TRUE</enabled>
									<locked>FALSE</locked>
									<outputchannelindex>1</outputchannelindex>
								</track>
								<track TL.SQTrackAudioKeyframeStyle="0" TL.SQTrackShy="0" TL.SQTrackExpandedHeight="25" TL.SQTrackExpanded="0" MZ.TrackTargeted="1" PannerCurrentValue="0.5" PannerIsInverted="true" PannerStartKeyframe="-91445760000000000,0.5,0,0,0,0,0,0" PannerName="Balance" currentExplodedTrackIndex="1" totalExplodedTrackCount="2" premiereTrackType="Stereo">
									<clipitem id="clipitem-239" premiereChannelType="stereo">
										<masterclipid>masterclip-76</masterclipid>
										<name>ES_Shooting Star (Make A Wish) - Matt Large.wav</name>
										<enabled>TRUE</enabled>
										<duration>6779</duration>
										<rate>
											<timebase>30</timebase>
											<ntsc>TRUE</ntsc>
										</rate>
										<start>0</start>
										<end>-1</end>
										<in>0</in>
										<out>3652</out>
										<pproTicksIn>0</pproTicksIn>
										<pproTicksOut>30953136614400</pproTicksOut>
										<file id="file-62"/>
										<sourcetrack>
											<mediatype>audio</mediatype>
											<trackindex>2</trackindex>
										</sourcetrack>
										<filter>
											<effect>
												<name>Gain</name>
												<effectid>{61756678, 4761696e, 4b657947}</effectid>
												<effecttype>filter</effecttype>
												<mediatype>audio</mediatype>
												<parameter authoringApp="PremierePro">
													<parameterid>Gain(dB)</parameterid>
													<name>Gain(dB)</name>
													<valuemin>-96</valuemin>
													<valuemax>96</valuemax>
													<value>-6</value>
												</parameter>
											</effect>
										</filter>
										<link>
											<linkclipref>clipitem-237</linkclipref>
											<mediatype>audio</mediatype>
											<trackindex>3</trackindex>
											<clipindex>1</clipindex>
											<groupindex>1</groupindex>
										</link>
										<link>
											<linkclipref>clipitem-239</linkclipref>
											<mediatype>audio</mediatype>
											<trackindex>4</trackindex>
											<clipindex>1</clipindex>
											<groupindex>1</groupindex>
										</link>
										<logginginfo>
											<description></description>
											<scene></scene>
											<shottake></shottake>
											<lognote></lognote>
											<good></good>
											<originalvideofilename></originalvideofilename>
											<originalaudiofilename></originalaudiofilename>
										</logginginfo>
										<colorinfo>
											<lut></lut>
											<lut1></lut1>
											<asc_sop></asc_sop>
											<asc_sat></asc_sat>
											<lut2></lut2>
										</colorinfo>
										<labels>
											<label2>Caribbean</label2>
										</labels>
									</clipitem>
									<transitionitem>
										<start>3532</start>
										<end>3652</end>
										<pproTicksIn>29936055492000</pproTicksIn>
										<pproTicksOut>30953136614400</pproTicksOut>
										<alignment>end-black</alignment>
										<cutPointTicks>1017081122400</cutPointTicks>
										<rate>
											<timebase>30</timebase>
											<ntsc>TRUE</ntsc>
										</rate>
										<effect>
											<name>Cross Fade (+3dB)</name>
											<effectid>KGAudioTransCrossFade3dB</effectid>
											<effecttype>transition</effecttype>
											<mediatype>audio</mediatype>
											<wipecode>0</wipecode>
											<wipeaccuracy>100</wipeaccuracy>
											<startratio>0</startratio>
											<endratio>1</endratio>
											<reverse>FALSE</reverse>
										</effect>
									</transitionitem>
									<clipitem id="clipitem-240" premiereChannelType="stereo">
										<masterclipid>masterclip-77</masterclipid>
										<name>ES_Sisel - Jobii.wav</name>
										<enabled>TRUE</enabled>
										<duration>4304</duration>
										<rate>
											<timebase>30</timebase>
											<ntsc>TRUE</ntsc>
										</rate>
										<start>3772</start>
										<end>-1</end>
										<in>0</in>
										<out>1709</out>
										<pproTicksIn>0</pproTicksIn>
										<pproTicksOut>14484915244800</pproTicksOut>
										<file id="file-63"/>
										<sourcetrack>
											<mediatype>audio</mediatype>
											<trackindex>2</trackindex>
										</sourcetrack>
										<filter>
											<effect>
												<name>Gain</name>
												<effectid>{61756678, 4761696e, 4b657947}</effectid>
												<effecttype>filter</effecttype>
												<mediatype>audio</mediatype>
												<parameter authoringApp="PremierePro">
													<parameterid>Gain(dB)</parameterid>
													<name>Gain(dB)</name>
													<valuemin>-96</valuemin>
													<valuemax>96</valuemax>
													<value>-6</value>
												</parameter>
											</effect>
										</filter>
										<link>
											<linkclipref>clipitem-238</linkclipref>
											<mediatype>audio</mediatype>
											<trackindex>3</trackindex>
											<clipindex>3</clipindex>
											<groupindex>1</groupindex>
										</link>
										<link>
											<linkclipref>clipitem-240</linkclipref>
											<mediatype>audio</mediatype>
											<trackindex>4</trackindex>
											<clipindex>3</clipindex>
											<groupindex>1</groupindex>
										</link>
										<logginginfo>
											<description></description>
											<scene></scene>
											<shottake></shottake>
											<lognote></lognote>
											<good></good>
											<originalvideofilename></originalvideofilename>
											<originalaudiofilename></originalaudiofilename>
										</logginginfo>
										<colorinfo>
											<lut></lut>
											<lut1></lut1>
											<asc_sop></asc_sop>
											<asc_sat></asc_sat>
											<lut2></lut2>
										</colorinfo>
										<labels>
											<label2>Caribbean</label2>
										</labels>
									</clipitem>
									<transitionitem>
										<start>5362</start>
										<end>5481</end>
										<pproTicksIn>45438053976000</pproTicksIn>
										<pproTicksOut>46455131923200</pproTicksOut>
										<alignment>end-black</alignment>
										<cutPointTicks>1017077947200</cutPointTicks>
										<rate>
											<timebase>30</timebase>
											<ntsc>TRUE</ntsc>
										</rate>
										<effect>
											<name>Cross Fade (+3dB)</name>
											<effectid>KGAudioTransCrossFade3dB</effectid>
											<effecttype>transition</effecttype>
											<mediatype>audio</mediatype>
											<wipecode>0</wipecode>
											<wipeaccuracy>100</wipeaccuracy>
											<startratio>0</startratio>
											<endratio>1</endratio>
											<reverse>FALSE</reverse>
										</effect>
									</transitionitem>
									<enabled>TRUE</enabled>
									<locked>FALSE</locked>
									<outputchannelindex>2</outputchannelindex>
								</track>
								<track TL.SQTrackAudioKeyframeStyle="0" TL.SQTrackShy="0" TL.SQTrackExpandedHeight="25" TL.SQTrackExpanded="0" MZ.TrackTargeted="1" PannerCurrentValue="0.5" PannerIsInverted="true" PannerStartKeyframe="-91445760000000000,0.5,0,0,0,0,0,0" PannerName="Balance" currentExplodedTrackIndex="0" totalExplodedTrackCount="2" premiereTrackType="Stereo">
									<enabled>TRUE</enabled>
									<locked>FALSE</locked>
									<outputchannelindex>1</outputchannelindex>
								</track>
								<track TL.SQTrackAudioKeyframeStyle="0" TL.SQTrackShy="0" TL.SQTrackExpandedHeight="25" TL.SQTrackExpanded="0" MZ.TrackTargeted="1" PannerCurrentValue="0.5" PannerIsInverted="true" PannerStartKeyframe="-91445760000000000,0.5,0,0,0,0,0,0" PannerName="Balance" currentExplodedTrackIndex="1" totalExplodedTrackCount="2" premiereTrackType="Stereo">
									<enabled>TRUE</enabled>
									<locked>FALSE</locked>
									<outputchannelindex>2</outputchannelindex>
								</track>
								<track TL.SQTrackAudioKeyframeStyle="0" TL.SQTrackShy="0" TL.SQTrackExpandedHeight="25" TL.SQTrackExpanded="0" MZ.TrackTargeted="0" PannerCurrentValue="0.5" PannerIsInverted="true" PannerStartKeyframe="-91445760000000000,0.5,0,0,0,0,0,0" PannerName="Balance" currentExplodedTrackIndex="0" totalExplodedTrackCount="2" premiereTrackType="Stereo">
									<enabled>TRUE</enabled>
									<locked>FALSE</locked>
									<outputchannelindex>1</outputchannelindex>
								</track>
								<track TL.SQTrackAudioKeyframeStyle="0" TL.SQTrackShy="0" TL.SQTrackExpandedHeight="25" TL.SQTrackExpanded="0" MZ.TrackTargeted="0" PannerCurrentValue="0.5" PannerIsInverted="true" PannerStartKeyframe="-91445760000000000,0.5,0,0,0,0,0,0" PannerName="Balance" currentExplodedTrackIndex="1" totalExplodedTrackCount="2" premiereTrackType="Stereo">
									<enabled>TRUE</enabled>
									<locked>FALSE</locked>
									<outputchannelindex>2</outputchannelindex>
								</track>
							</audio>
						</media>
						<timecode>
							<rate>
								<timebase>30</timebase>
								<ntsc>TRUE</ntsc>
							</rate>
							<string>00;00;00;00</string>
							<frame>0</frame>
							<displayformat>DF</displayformat>
						</timecode>
						<labels>
							<label2>Forest</label2>
						</labels>
						<logginginfo>
							<description></description>
							<scene></scene>
							<shottake></shottake>
							<lognote></lognote>
							<good></good>
							<originalvideofilename></originalvideofilename>
							<originalaudiofilename></originalaudiofilename>
						</logginginfo>
					</sequence>
					<sequence id="sequence-22" TL.SQAudioVisibleBase="0" TL.SQVideoVisibleBase="0" TL.SQVisibleBaseTime="8437786531416" TL.SQAVDividerPosition="0.5" TL.SQHideShyTracks="0" TL.SQHeaderWidth="236" TL.SQDataTrackViewControlState="0" Monitor.ProgramZoomOut="47336601312000" Monitor.ProgramZoomIn="0" TL.SQTimePerPixel="0.11322759932977043" MZ.EditLine="30724293600000" MZ.Sequence.PreviewFrameSizeHeight="1080" MZ.Sequence.PreviewFrameSizeWidth="1920" MZ.Sequence.AudioTimeDisplayFormat="200" MZ.Sequence.PreviewRenderingClassID="1061109567" MZ.Sequence.PreviewRenderingPresetCodec="1634755443" MZ.Sequence.PreviewRenderingPresetPath="EncoderPresets/SequencePreview/35d109db-457b-43c1-9452-9cb7be9f121c/QuickTime.epr" MZ.Sequence.PreviewUseMaxRenderQuality="false" MZ.Sequence.PreviewUseMaxBitDepth="false" MZ.Sequence.EditingModeGUID="35d109db-457b-43c1-9452-9cb7be9f121c" MZ.Sequence.VideoTimeDisplayFormat="102" MZ.WorkOutPoint="15239249625600" MZ.WorkInPoint="0" explodedTracks="true">
						<uuid>2ad0a88f-fa74-453a-ab16-073dd1839da4</uuid>
						<duration>5585</duration>
						<rate>
							<timebase>30</timebase>
							<ntsc>TRUE</ntsc>
						</rate>
						<name>ATM_CRAFTY_188</name>
						<media>
							<video>
								<format>
									<samplecharacteristics>
										<rate>
											<timebase>30</timebase>
											<ntsc>TRUE</ntsc>
										</rate>
										<codec>
											<name>Apple ProRes 422</name>
											<appspecificdata>
												<appname>Final Cut Pro</appname>
												<appmanufacturer>Apple Inc.</appmanufacturer>
												<appversion>7.0</appversion>
												<data>
													<qtcodec>
														<codecname>Apple ProRes 422</codecname>
														<codectypename>Apple ProRes 422</codectypename>
														<codectypecode>apcn</codectypecode>
														<codecvendorcode>appl</codecvendorcode>
														<spatialquality>1024</spatialquality>
														<temporalquality>0</temporalquality>
														<keyframerate>0</keyframerate>
														<datarate>0</datarate>
													</qtcodec>
												</data>
											</appspecificdata>
										</codec>
										<width>1920</width>
										<height>1080</height>
										<anamorphic>FALSE</anamorphic>
										<pixelaspectratio>square</pixelaspectratio>
										<fielddominance>none</fielddominance>
										<colordepth>24</colordepth>
									</samplecharacteristics>
								</format>
								<track TL.SQTrackShy="0" TL.SQTrackExpandedHeight="25" TL.SQTrackExpanded="0" MZ.TrackTargeted="1">
									<clipitem id="clipitem-241">
										<masterclipid>masterclip-78</masterclipid>
										<name>DIY_PAPERORBASKET_2</name>
										<enabled>TRUE</enabled>
										<duration>3679</duration>
										<rate>
											<timebase>30</timebase>
											<ntsc>TRUE</ntsc>
										</rate>
										<start>0</start>
										<end>3524</end>
										<in>0</in>
										<out>3524</out>
										<pproTicksIn>0</pproTicksIn>
										<pproTicksOut>29868251212800</pproTicksOut>
										<sequence id="sequence-23" TL.SQAudioVisibleBase="0" TL.SQVideoVisibleBase="0" TL.SQVisibleBaseTime="0" TL.SQAVDividerPosition="0.5" TL.SQHideShyTracks="0" TL.SQHeaderWidth="236" TL.SQDataTrackViewControlState="0" Monitor.ProgramZoomOut="30249656236800" Monitor.ProgramZoomIn="0" TL.SQTimePerPixel="0.1686859015654894" MZ.EditLine="28707084806400" MZ.Sequence.PreviewFrameSizeHeight="1080" MZ.Sequence.PreviewFrameSizeWidth="1920" MZ.Sequence.AudioTimeDisplayFormat="200" MZ.Sequence.PreviewRenderingClassID="1061109567" MZ.Sequence.PreviewRenderingPresetCodec="1634755443" MZ.Sequence.PreviewRenderingPresetPath="EncoderPresets/SequencePreview/35d109db-457b-43c1-9452-9cb7be9f121c/QuickTime.epr" MZ.Sequence.PreviewUseMaxRenderQuality="false" MZ.Sequence.PreviewUseMaxBitDepth="false" MZ.Sequence.EditingModeGUID="35d109db-457b-43c1-9452-9cb7be9f121c" MZ.Sequence.VideoTimeDisplayFormat="102" MZ.WorkOutPoint="31181979628800" MZ.WorkInPoint="0">
											<duration>3569</duration>
											<rate>
												<timebase>30</timebase>
												<ntsc>TRUE</ntsc>
											</rate>
											<name>DIY_PAPERORBASKET_2</name>
											<media>
												<video>
													<format>
														<samplecharacteristics>
															<rate>
																<timebase>30</timebase>
																<ntsc>TRUE</ntsc>
															</rate>
															<codec>
																<name>Apple ProRes 422</name>
																<appspecificdata>
																	<appname>Final Cut Pro</appname>
																	<appmanufacturer>Apple Inc.</appmanufacturer>
																	<appversion>7.0</appversion>
																	<data>
																		<qtcodec>
																			<codecname>Apple ProRes 422</codecname>
																			<codectypename>Apple ProRes 422</codectypename>
																			<codectypecode>apcn</codectypecode>
																			<codecvendorcode>appl</codecvendorcode>
																			<spatialquality>1024</spatialquality>
																			<temporalquality>0</temporalquality>
																			<keyframerate>0</keyframerate>
																			<datarate>0</datarate>
																		</qtcodec>
																	</data>
																</appspecificdata>
															</codec>
															<width>1920</width>
															<height>1080</height>
															<anamorphic>FALSE</anamorphic>
															<pixelaspectratio>square</pixelaspectratio>
															<fielddominance>none</fielddominance>
															<colordepth>24</colordepth>
														</samplecharacteristics>
													</format>
													<track TL.SQTrackShy="0" TL.SQTrackExpandedHeight="25" TL.SQTrackExpanded="0" MZ.TrackTargeted="1">
														<clipitem id="clipitem-242">
															<masterclipid>masterclip-79</masterclipid>
															<name>(The Crafty Couple)_DIY Dollar Store Home Decor - Farmhouse DIY Tobacco Basket _NEW__BMdGqY_Ia7Q_YT.mp4</name>
															<enabled>TRUE</enabled>
															<duration>41745</duration>
															<rate>
																<timebase>30</timebase>
																<ntsc>TRUE</ntsc>
															</rate>
															<start>0</start>
															<end>96</end>
															<in>40778</in>
															<out>40873</out>
															<pproTicksIn>255609171417600</pproTicksIn>
															<pproTicksOut>256210943788800</pproTicksOut>
															<alphatype>none</alphatype>
															<pixelaspectratio>square</pixelaspectratio>
															<anamorphic>FALSE</anamorphic>
															<file id="file-64">
																<name>(The Crafty Couple)_DIY Dollar Store Home Decor - Farmhouse DIY Tobacco Basket _NEW__BMdGqY_Ia7Q_YT.mp4</name>
																<pathurl>file://localhost/Volumes/CONTENT/VOD%20CONTENT%20ARCHIVE/O&amp;O%20Archive%202023/CRAFTY/03_March/Crafty_3-20-2023/3_Raw%20Files/farmhouse%20basket/(The%20Crafty%20Couple)_DIY%20Dollar%20Store%20Home%20Decor%20-%20Farmhouse%20DIY%20Tobacco%20Basket%20_NEW__BMdGqY_Ia7Q_YT.mp4</pathurl>
																<rate>
																	<timebase>30</timebase>
																	<ntsc>TRUE</ntsc>
																</rate>
																<duration>30874</duration>
																<timecode>
																	<rate>
																		<timebase>30</timebase>
																		<ntsc>TRUE</ntsc>
																	</rate>
																	<string>00:00:00:00</string>
																	<frame>0</frame>
																	<displayformat>NDF</displayformat>
																</timecode>
																<media>
																	<video>
																		<samplecharacteristics>
																			<rate>
																				<timebase>30</timebase>
																				<ntsc>TRUE</ntsc>
																			</rate>
																			<width>1920</width>
																			<height>1080</height>
																			<anamorphic>FALSE</anamorphic>
																			<pixelaspectratio>square</pixelaspectratio>
																			<fielddominance>none</fielddominance>
																		</samplecharacteristics>
																	</video>
																	<audio>
																		<samplecharacteristics>
																			<depth>16</depth>
																			<samplerate>44100</samplerate>
																		</samplecharacteristics>
																		<channelcount>2</channelcount>
																	</audio>
																</media>
															</file>
															<filter>
																<effect>
																	<name>Time Remap</name>
																	<effectid>timeremap</effectid>
																	<effectcategory>motion</effectcategory>
																	<effecttype>motion</effecttype>
																	<mediatype>video</mediatype>
																	<parameter authoringApp="PremierePro">
																		<parameterid>variablespeed</parameterid>
																		<name>variablespeed</name>
																		<valuemin>0</valuemin>
																		<valuemax>1</valuemax>
																		<value>0</value>
																	</parameter>
																	<parameter authoringApp="PremierePro">
																		<parameterid>speed</parameterid>
																		<name>speed</name>
																		<valuemin>-100000</valuemin>
																		<valuemax>100000</valuemax>
																		<value>73.9583</value>
																	</parameter>
																	<parameter authoringApp="PremierePro">
																		<parameterid>reverse</parameterid>
																		<name>reverse</name>
																		<value>FALSE</value>
																	</parameter>
																	<parameter authoringApp="PremierePro">
																		<parameterid>frameblending</parameterid>
																		<name>frameblending</name>
																		<value>FALSE</value>
																	</parameter>
																	<parameter authoringApp="PremierePro">
																		<parameterid>graphdict</parameterid>
																		<name>graphdict</name>
																		<valuemin>0</valuemin>
																		<valuemax>30873</valuemax>
																		<value>0</value>
																		<keyframe>
																			<when>0</when>
																			<value>0</value>
																			<speedvirtualkf>TRUE</speedvirtualkf>
																			<speedkfstart>TRUE</speedkfstart>
																		</keyframe>
																		<keyframe>
																			<when>40778</when>
																			<value>30158</value>
																			<speedvirtualkf>TRUE</speedvirtualkf>
																			<speedkfin>TRUE</speedkfin>
																		</keyframe>
																		<keyframe>
																			<when>40873</when>
																			<value>30228</value>
																			<speedvirtualkf>TRUE</speedvirtualkf>
																			<speedkfout>TRUE</speedkfout>
																		</keyframe>
																		<keyframe>
																			<when>41745</when>
																			<value>30873</value>
																			<speedvirtualkf>TRUE</speedvirtualkf>
																			<speedkfend>TRUE</speedkfend>
																		</keyframe>
																		<interpolation>
																			<name>FCPCurve</name>
																		</interpolation>
																	</parameter>
																</effect>
															</filter>
															<logginginfo>
																<description></description>
																<scene></scene>
																<shottake></shottake>
																<lognote>https://www.youtube.com/watch?v=BMdGqY_Ia7Q</lognote>
																<good></good>
																<originalvideofilename></originalvideofilename>
																<originalaudiofilename></originalaudiofilename>
															</logginginfo>
															<colorinfo>
																<lut></lut>
																<lut1></lut1>
																<asc_sop></asc_sop>
																<asc_sat></asc_sat>
																<lut2></lut2>
															</colorinfo>
															<labels>
																<label2>Iris</label2>
															</labels>
														</clipitem>
														<clipitem id="clipitem-243">
															<masterclipid>masterclip-79</masterclipid>
															<name>(The Crafty Couple)_DIY Dollar Store Home Decor - Farmhouse DIY Tobacco Basket _NEW__BMdGqY_Ia7Q_YT.mp4</name>
															<enabled>TRUE</enabled>
															<duration>23749</duration>
															<rate>
																<timebase>30</timebase>
																<ntsc>TRUE</ntsc>
															</rate>
															<start>96</start>
															<end>490</end>
															<in>15885</in>
															<out>16278</out>
															<pproTicksIn>175022527680000</pproTicksIn>
															<pproTicksOut>179363764419840</pproTicksOut>
															<alphatype>none</alphatype>
															<file id="file-64"/>
															<filter>
																<effect>
																	<name>Time Remap</name>
																	<effectid>timeremap</effectid>
																	<effectcategory>motion</effectcategory>
																	<effecttype>motion</effecttype>
																	<mediatype>video</mediatype>
																	<parameter authoringApp="PremierePro">
																		<parameterid>variablespeed</parameterid>
																		<name>variablespeed</name>
																		<valuemin>0</valuemin>
																		<valuemax>1</valuemax>
																		<value>0</value>
																	</parameter>
																	<parameter authoringApp="PremierePro">
																		<parameterid>speed</parameterid>
																		<name>speed</name>
																		<valuemin>-100000</valuemin>
																		<valuemax>100000</valuemax>
																		<value>130</value>
																	</parameter>
																	<parameter authoringApp="PremierePro">
																		<parameterid>reverse</parameterid>
																		<name>reverse</name>
																		<value>FALSE</value>
																	</parameter>
																	<parameter authoringApp="PremierePro">
																		<parameterid>frameblending</parameterid>
																		<name>frameblending</name>
																		<value>FALSE</value>
																	</parameter>
																	<parameter authoringApp="PremierePro">
																		<parameterid>graphdict</parameterid>
																		<name>graphdict</name>
																		<valuemin>0</valuemin>
																		<valuemax>30873</valuemax>
																		<value>0</value>
																		<keyframe>
																			<when>0</when>
																			<value>0</value>
																			<speedvirtualkf>TRUE</speedvirtualkf>
																			<speedkfstart>TRUE</speedkfstart>
																		</keyframe>
																		<keyframe>
																			<when>15885</when>
																			<value>20650</value>
																			<speedvirtualkf>TRUE</speedvirtualkf>
																			<speedkfin>TRUE</speedkfin>
																		</keyframe>
																		<keyframe>
																			<when>16278</when>
																			<value>21161</value>
																			<speedvirtualkf>TRUE</speedvirtualkf>
																			<speedkfout>TRUE</speedkfout>
																		</keyframe>
																		<keyframe>
																			<when>23749</when>
																			<value>30873</value>
																			<speedvirtualkf>TRUE</speedvirtualkf>
																			<speedkfend>TRUE</speedkfend>
																		</keyframe>
																		<interpolation>
																			<name>FCPCurve</name>
																		</interpolation>
																	</parameter>
																</effect>
															</filter>
															<logginginfo>
																<description></description>
																<scene></scene>
																<shottake></shottake>
																<lognote>https://www.youtube.com/watch?v=BMdGqY_Ia7Q</lognote>
																<good></good>
																<originalvideofilename></originalvideofilename>
																<originalaudiofilename></originalaudiofilename>
															</logginginfo>
															<colorinfo>
																<lut></lut>
																<lut1></lut1>
																<asc_sop></asc_sop>
																<asc_sat></asc_sat>
																<lut2></lut2>
															</colorinfo>
															<labels>
																<label2>Iris</label2>
															</labels>
														</clipitem>
														<clipitem id="clipitem-244">
															<masterclipid>masterclip-79</masterclipid>
															<name>(The Crafty Couple)_DIY Dollar Store Home Decor - Farmhouse DIY Tobacco Basket _NEW__BMdGqY_Ia7Q_YT.mp4</name>
															<enabled>TRUE</enabled>
															<duration>23749</duration>
															<rate>
																<timebase>30</timebase>
																<ntsc>TRUE</ntsc>
															</rate>
															<start>490</start>
															<end>825</end>
															<in>16434</in>
															<out>16768</out>
															<pproTicksIn>181074154060800</pproTicksIn>
															<pproTicksOut>184765307126400</pproTicksOut>
															<alphatype>none</alphatype>
															<file id="file-64"/>
															<filter>
																<effect>
																	<name>Time Remap</name>
																	<effectid>timeremap</effectid>
																	<effectcategory>motion</effectcategory>
																	<effecttype>motion</effecttype>
																	<mediatype>video</mediatype>
																	<parameter authoringApp="PremierePro">
																		<parameterid>variablespeed</parameterid>
																		<name>variablespeed</name>
																		<valuemin>0</valuemin>
																		<valuemax>1</valuemax>
																		<value>0</value>
																	</parameter>
																	<parameter authoringApp="PremierePro">
																		<parameterid>speed</parameterid>
																		<name>speed</name>
																		<valuemin>-100000</valuemin>
																		<valuemax>100000</valuemax>
																		<value>130</value>
																	</parameter>
																	<parameter authoringApp="PremierePro">
																		<parameterid>reverse</parameterid>
																		<name>reverse</name>
																		<value>FALSE</value>
																	</parameter>
																	<parameter authoringApp="PremierePro">
																		<parameterid>frameblending</parameterid>
																		<name>frameblending</name>
																		<value>FALSE</value>
																	</parameter>
																	<parameter authoringApp="PremierePro">
																		<parameterid>graphdict</parameterid>
																		<name>graphdict</name>
																		<valuemin>0</valuemin>
																		<valuemax>30873</valuemax>
																		<value>0</value>
																		<keyframe>
																			<when>0</when>
																			<value>0</value>
																			<speedvirtualkf>TRUE</speedvirtualkf>
																			<speedkfstart>TRUE</speedkfstart>
																		</keyframe>
																		<keyframe>
																			<when>16434</when>
																			<value>21364</value>
																			<speedvirtualkf>TRUE</speedvirtualkf>
																			<speedkfin>TRUE</speedkfin>
																		</keyframe>
																		<keyframe>
																			<when>16768</when>
																			<value>21798</value>
																			<speedvirtualkf>TRUE</speedvirtualkf>
																			<speedkfout>TRUE</speedkfout>
																		</keyframe>
																		<keyframe>
																			<when>23749</when>
																			<value>30873</value>
																			<speedvirtualkf>TRUE</speedvirtualkf>
																			<speedkfend>TRUE</speedkfend>
																		</keyframe>
																		<interpolation>
																			<name>FCPCurve</name>
																		</interpolation>
																	</parameter>
																</effect>
															</filter>
															<logginginfo>
																<description></description>
																<scene></scene>
																<shottake></shottake>
																<lognote>https://www.youtube.com/watch?v=BMdGqY_Ia7Q</lognote>
																<good></good>
																<originalvideofilename></originalvideofilename>
																<originalaudiofilename></originalaudiofilename>
															</logginginfo>
															<colorinfo>
																<lut></lut>
																<lut1></lut1>
																<asc_sop></asc_sop>
																<asc_sat></asc_sat>
																<lut2></lut2>
															</colorinfo>
															<labels>
																<label2>Iris</label2>
															</labels>
														</clipitem>
														<clipitem id="clipitem-245">
															<masterclipid>masterclip-79</masterclipid>
															<name>(The Crafty Couple)_DIY Dollar Store Home Decor - Farmhouse DIY Tobacco Basket _NEW__BMdGqY_Ia7Q_YT.mp4</name>
															<enabled>TRUE</enabled>
															<duration>23749</duration>
															<rate>
																<timebase>30</timebase>
																<ntsc>TRUE</ntsc>
															</rate>
															<start>825</start>
															<end>1130</end>
															<in>17160</in>
															<out>17464</out>
															<pproTicksIn>189066708230400</pproTicksIn>
															<pproTicksOut>192427310275200</pproTicksOut>
															<alphatype>none</alphatype>
															<file id="file-64"/>
															<filter>
																<effect>
																	<name>Time Remap</name>
																	<effectid>timeremap</effectid>
																	<effectcategory>motion</effectcategory>
																	<effecttype>motion</effecttype>
																	<mediatype>video</mediatype>
																	<parameter authoringApp="PremierePro">
																		<parameterid>variablespeed</parameterid>
																		<name>variablespeed</name>
																		<valuemin>0</valuemin>
																		<valuemax>1</valuemax>
																		<value>0</value>
																	</parameter>
																	<parameter authoringApp="PremierePro">
																		<parameterid>speed</parameterid>
																		<name>speed</name>
																		<valuemin>-100000</valuemin>
																		<valuemax>100000</valuemax>
																		<value>130</value>
																	</parameter>
																	<parameter authoringApp="PremierePro">
																		<parameterid>reverse</parameterid>
																		<name>reverse</name>
																		<value>FALSE</value>
																	</parameter>
																	<parameter authoringApp="PremierePro">
																		<parameterid>frameblending</parameterid>
																		<name>frameblending</name>
																		<value>FALSE</value>
																	</parameter>
																	<parameter authoringApp="PremierePro">
																		<parameterid>graphdict</parameterid>
																		<name>graphdict</name>
																		<valuemin>0</valuemin>
																		<valuemax>30873</valuemax>
																		<value>0</value>
																		<keyframe>
																			<when>0</when>
																			<value>0</value>
																			<speedvirtualkf>TRUE</speedvirtualkf>
																			<speedkfstart>TRUE</speedkfstart>
																		</keyframe>
																		<keyframe>
																			<when>17160</when>
																			<value>22308</value>
																			<speedvirtualkf>TRUE</speedvirtualkf>
																			<speedkfin>TRUE</speedkfin>
																		</keyframe>
																		<keyframe>
																			<when>17464</when>
																			<value>22703</value>
																			<speedvirtualkf>TRUE</speedvirtualkf>
																			<speedkfout>TRUE</speedkfout>
																		</keyframe>
																		<keyframe>
																			<when>23749</when>
																			<value>30873</value>
																			<speedvirtualkf>TRUE</speedvirtualkf>
																			<speedkfend>TRUE</speedkfend>
																		</keyframe>
																		<interpolation>
																			<name>FCPCurve</name>
																		</interpolation>
																	</parameter>
																</effect>
															</filter>
															<logginginfo>
																<description></description>
																<scene></scene>
																<shottake></shottake>
																<lognote>https://www.youtube.com/watch?v=BMdGqY_Ia7Q</lognote>
																<good></good>
																<originalvideofilename></originalvideofilename>
																<originalaudiofilename></originalaudiofilename>
															</logginginfo>
															<colorinfo>
																<lut></lut>
																<lut1></lut1>
																<asc_sop></asc_sop>
																<asc_sat></asc_sat>
																<lut2></lut2>
															</colorinfo>
															<labels>
																<label2>Iris</label2>
															</labels>
														</clipitem>
														<clipitem id="clipitem-246">
															<masterclipid>masterclip-79</masterclipid>
															<name>(The Crafty Couple)_DIY Dollar Store Home Decor - Farmhouse DIY Tobacco Basket _NEW__BMdGqY_Ia7Q_YT.mp4</name>
															<enabled>TRUE</enabled>
															<duration>30874</duration>
															<rate>
																<timebase>30</timebase>
																<ntsc>TRUE</ntsc>
															</rate>
															<start>1130</start>
															<end>1193</end>
															<in>22777</in>
															<out>22840</out>
															<pproTicksIn>193050271814400</pproTicksIn>
															<pproTicksOut>193584238848000</pproTicksOut>
															<alphatype>none</alphatype>
															<file id="file-64"/>
															<logginginfo>
																<description></description>
																<scene></scene>
																<shottake></shottake>
																<lognote>https://www.youtube.com/watch?v=BMdGqY_Ia7Q</lognote>
																<good></good>
																<originalvideofilename></originalvideofilename>
																<originalaudiofilename></originalaudiofilename>
															</logginginfo>
															<colorinfo>
																<lut></lut>
																<lut1></lut1>
																<asc_sop></asc_sop>
																<asc_sat></asc_sat>
																<lut2></lut2>
															</colorinfo>
															<labels>
																<label2>Iris</label2>
															</labels>
														</clipitem>
														<clipitem id="clipitem-247">
															<masterclipid>masterclip-79</masterclipid>
															<name>(The Crafty Couple)_DIY Dollar Store Home Decor - Farmhouse DIY Tobacco Basket _NEW__BMdGqY_Ia7Q_YT.mp4</name>
															<enabled>TRUE</enabled>
															<duration>23749</duration>
															<rate>
																<timebase>30</timebase>
																<ntsc>TRUE</ntsc>
															</rate>
															<start>1193</start>
															<end>1518</end>
															<in>19242</in>
															<out>19566</out>
															<pproTicksIn>212010339340800</pproTicksIn>
															<pproTicksOut>215591308732800</pproTicksOut>
															<alphatype>none</alphatype>
															<file id="file-64"/>
															<filter>
																<effect>
																	<name>Time Remap</name>
																	<effectid>timeremap</effectid>
																	<effectcategory>motion</effectcategory>
																	<effecttype>motion</effecttype>
																	<mediatype>video</mediatype>
																	<parameter authoringApp="PremierePro">
																		<parameterid>variablespeed</parameterid>
																		<name>variablespeed</name>
																		<valuemin>0</valuemin>
																		<valuemax>1</valuemax>
																		<value>0</value>
																	</parameter>
																	<parameter authoringApp="PremierePro">
																		<parameterid>speed</parameterid>
																		<name>speed</name>
																		<valuemin>-100000</valuemin>
																		<valuemax>100000</valuemax>
																		<value>130</value>
																	</parameter>
																	<parameter authoringApp="PremierePro">
																		<parameterid>reverse</parameterid>
																		<name>reverse</name>
																		<value>FALSE</value>
																	</parameter>
																	<parameter authoringApp="PremierePro">
																		<parameterid>frameblending</parameterid>
																		<name>frameblending</name>
																		<value>FALSE</value>
																	</parameter>
																	<parameter authoringApp="PremierePro">
																		<parameterid>graphdict</parameterid>
																		<name>graphdict</name>
																		<valuemin>0</valuemin>
																		<valuemax>30873</valuemax>
																		<value>0</value>
																		<keyframe>
																			<when>0</when>
																			<value>0</value>
																			<speedvirtualkf>TRUE</speedvirtualkf>
																			<speedkfstart>TRUE</speedkfstart>
																		</keyframe>
																		<keyframe>
																			<when>19242</when>
																			<value>25014</value>
																			<speedvirtualkf>TRUE</speedvirtualkf>
																			<speedkfin>TRUE</speedkfin>
																		</keyframe>
																		<keyframe>
																			<when>19566</when>
																			<value>25435</value>
																			<speedvirtualkf>TRUE</speedvirtualkf>
																			<speedkfout>TRUE</speedkfout>
																		</keyframe>
																		<keyframe>
																			<when>23749</when>
																			<value>30873</value>
																			<speedvirtualkf>TRUE</speedvirtualkf>
																			<speedkfend>TRUE</speedkfend>
																		</keyframe>
																		<interpolation>
																			<name>FCPCurve</name>
																		</interpolation>
																	</parameter>
																</effect>
															</filter>
															<logginginfo>
																<description></description>
																<scene></scene>
																<shottake></shottake>
																<lognote>https://www.youtube.com/watch?v=BMdGqY_Ia7Q</lognote>
																<good></good>
																<originalvideofilename></originalvideofilename>
																<originalaudiofilename></originalaudiofilename>
															</logginginfo>
															<colorinfo>
																<lut></lut>
																<lut1></lut1>
																<asc_sop></asc_sop>
																<asc_sat></asc_sat>
																<lut2></lut2>
															</colorinfo>
															<labels>
																<label2>Iris</label2>
															</labels>
														</clipitem>
														<clipitem id="clipitem-248">
															<masterclipid>masterclip-79</masterclipid>
															<name>(The Crafty Couple)_DIY Dollar Store Home Decor - Farmhouse DIY Tobacco Basket _NEW__BMdGqY_Ia7Q_YT.mp4</name>
															<enabled>TRUE</enabled>
															<duration>23749</duration>
															<rate>
																<timebase>30</timebase>
																<ntsc>TRUE</ntsc>
															</rate>
															<start>1518</start>
															<end>2234</end>
															<in>19610</in>
															<out>20325</out>
															<pproTicksIn>216061708262400</pproTicksIn>
															<pproTicksOut>223950859292160</pproTicksOut>
															<alphatype>none</alphatype>
															<file id="file-64"/>
															<filter>
																<effect>
																	<name>Time Remap</name>
																	<effectid>timeremap</effectid>
																	<effectcategory>motion</effectcategory>
																	<effecttype>motion</effecttype>
																	<mediatype>video</mediatype>
																	<parameter authoringApp="PremierePro">
																		<parameterid>variablespeed</parameterid>
																		<name>variablespeed</name>
																		<valuemin>0</valuemin>
																		<valuemax>1</valuemax>
																		<value>0</value>
																	</parameter>
																	<parameter authoringApp="PremierePro">
																		<parameterid>speed</parameterid>
																		<name>speed</name>
																		<valuemin>-100000</valuemin>
																		<valuemax>100000</valuemax>
																		<value>130</value>
																	</parameter>
																	<parameter authoringApp="PremierePro">
																		<parameterid>reverse</parameterid>
																		<name>reverse</name>
																		<value>FALSE</value>
																	</parameter>
																	<parameter authoringApp="PremierePro">
																		<parameterid>frameblending</parameterid>
																		<name>frameblending</name>
																		<value>FALSE</value>
																	</parameter>
																	<parameter authoringApp="PremierePro">
																		<parameterid>graphdict</parameterid>
																		<name>graphdict</name>
																		<valuemin>0</valuemin>
																		<valuemax>30873</valuemax>
																		<value>0</value>
																		<keyframe>
																			<when>0</when>
																			<value>0</value>
																			<speedvirtualkf>TRUE</speedvirtualkf>
																			<speedkfstart>TRUE</speedkfstart>
																		</keyframe>
																		<keyframe>
																			<when>19610</when>
																			<value>25493</value>
																			<speedvirtualkf>TRUE</speedvirtualkf>
																			<speedkfin>TRUE</speedkfin>
																		</keyframe>
																		<keyframe>
																			<when>20325</when>
																			<value>26422</value>
																			<speedvirtualkf>TRUE</speedvirtualkf>
																			<speedkfout>TRUE</speedkfout>
																		</keyframe>
																		<keyframe>
																			<when>23749</when>
																			<value>30873</value>
																			<speedvirtualkf>TRUE</speedvirtualkf>
																			<speedkfend>TRUE</speedkfend>
																		</keyframe>
																		<interpolation>
																			<name>FCPCurve</name>
																		</interpolation>
																	</parameter>
																</effect>
															</filter>
															<logginginfo>
																<description></description>
																<scene></scene>
																<shottake></shottake>
																<lognote>https://www.youtube.com/watch?v=BMdGqY_Ia7Q</lognote>
																<good></good>
																<originalvideofilename></originalvideofilename>
																<originalaudiofilename></originalaudiofilename>
															</logginginfo>
															<colorinfo>
																<lut></lut>
																<lut1></lut1>
																<asc_sop></asc_sop>
																<asc_sat></asc_sat>
																<lut2></lut2>
															</colorinfo>
															<labels>
																<label2>Iris</label2>
															</labels>
														</clipitem>
														<clipitem id="clipitem-249">
															<masterclipid>masterclip-79</masterclipid>
															<name>(The Crafty Couple)_DIY Dollar Store Home Decor - Farmhouse DIY Tobacco Basket _NEW__BMdGqY_Ia7Q_YT.mp4</name>
															<enabled>TRUE</enabled>
															<duration>23749</duration>
															<rate>
																<timebase>30</timebase>
																<ntsc>TRUE</ntsc>
															</rate>
															<start>2234</start>
															<end>2652</end>
															<in>20387</in>
															<out>20804</out>
															<pproTicksIn>224630607801600</pproTicksIn>
															<pproTicksOut>229236285358080</pproTicksOut>
															<alphatype>none</alphatype>
															<file id="file-64"/>
															<filter>
																<effect>
																	<name>Time Remap</name>
																	<effectid>timeremap</effectid>
																	<effectcategory>motion</effectcategory>
																	<effecttype>motion</effecttype>
																	<mediatype>video</mediatype>
																	<parameter authoringApp="PremierePro">
																		<parameterid>variablespeed</parameterid>
																		<name>variablespeed</name>
																		<valuemin>0</valuemin>
																		<valuemax>1</valuemax>
																		<value>0</value>
																	</parameter>
																	<parameter authoringApp="PremierePro">
																		<parameterid>speed</parameterid>
																		<name>speed</name>
																		<valuemin>-100000</valuemin>
																		<valuemax>100000</valuemax>
																		<value>130</value>
																	</parameter>
																	<parameter authoringApp="PremierePro">
																		<parameterid>reverse</parameterid>
																		<name>reverse</name>
																		<value>FALSE</value>
																	</parameter>
																	<parameter authoringApp="PremierePro">
																		<parameterid>frameblending</parameterid>
																		<name>frameblending</name>
																		<value>FALSE</value>
																	</parameter>
																	<parameter authoringApp="PremierePro">
																		<parameterid>graphdict</parameterid>
																		<name>graphdict</name>
																		<valuemin>0</valuemin>
																		<valuemax>30873</valuemax>
																		<value>0</value>
																		<keyframe>
																			<when>0</when>
																			<value>0</value>
																			<speedvirtualkf>TRUE</speedvirtualkf>
																			<speedkfstart>TRUE</speedkfstart>
																		</keyframe>
																		<keyframe>
																			<when>20387</when>
																			<value>26503</value>
																			<speedvirtualkf>TRUE</speedvirtualkf>
																			<speedkfin>TRUE</speedkfin>
																		</keyframe>
																		<keyframe>
																			<when>20804</when>
																			<value>27045</value>
																			<speedvirtualkf>TRUE</speedvirtualkf>
																			<speedkfout>TRUE</speedkfout>
																		</keyframe>
																		<keyframe>
																			<when>23749</when>
																			<value>30873</value>
																			<speedvirtualkf>TRUE</speedvirtualkf>
																			<speedkfend>TRUE</speedkfend>
																		</keyframe>
																		<interpolation>
																			<name>FCPCurve</name>
																		</interpolation>
																	</parameter>
																</effect>
															</filter>
															<logginginfo>
																<description></description>
																<scene></scene>
																<shottake></shottake>
																<lognote>https://www.youtube.com/watch?v=BMdGqY_Ia7Q</lognote>
																<good></good>
																<originalvideofilename></originalvideofilename>
																<originalaudiofilename></originalaudiofilename>
															</logginginfo>
															<colorinfo>
																<lut></lut>
																<lut1></lut1>
																<asc_sop></asc_sop>
																<asc_sat></asc_sat>
																<lut2></lut2>
															</colorinfo>
															<labels>
																<label2>Iris</label2>
															</labels>
														</clipitem>
														<clipitem id="clipitem-250">
															<masterclipid>masterclip-79</masterclipid>
															<name>(The Crafty Couple)_DIY Dollar Store Home Decor - Farmhouse DIY Tobacco Basket _NEW__BMdGqY_Ia7Q_YT.mp4</name>
															<enabled>TRUE</enabled>
															<duration>23749</duration>
															<rate>
																<timebase>30</timebase>
																<ntsc>TRUE</ntsc>
															</rate>
															<start>2652</start>
															<end>3037</end>
															<in>20858</in>
															<out>21242</out>
															<pproTicksIn>229817716128000</pproTicksIn>
															<pproTicksOut>234059787561600</pproTicksOut>
															<alphatype>none</alphatype>
															<file id="file-64"/>
															<filter>
																<effect>
																	<name>Time Remap</name>
																	<effectid>timeremap</effectid>
																	<effectcategory>motion</effectcategory>
																	<effecttype>motion</effecttype>
																	<mediatype>video</mediatype>
																	<parameter authoringApp="PremierePro">
																		<parameterid>variablespeed</parameterid>
																		<name>variablespeed</name>
																		<valuemin>0</valuemin>
																		<valuemax>1</valuemax>
																		<value>0</value>
																	</parameter>
																	<parameter authoringApp="PremierePro">
																		<parameterid>speed</parameterid>
																		<name>speed</name>
																		<valuemin>-100000</valuemin>
																		<valuemax>100000</valuemax>
																		<value>130</value>
																	</parameter>
																	<parameter authoringApp="PremierePro">
																		<parameterid>reverse</parameterid>
																		<name>reverse</name>
																		<value>FALSE</value>
																	</parameter>
																	<parameter authoringApp="PremierePro">
																		<parameterid>frameblending</parameterid>
																		<name>frameblending</name>
																		<value>FALSE</value>
																	</parameter>
																	<parameter authoringApp="PremierePro">
																		<parameterid>graphdict</parameterid>
																		<name>graphdict</name>
																		<valuemin>0</valuemin>
																		<valuemax>30873</valuemax>
																		<value>0</value>
																		<keyframe>
																			<when>0</when>
																			<value>0</value>
																			<speedvirtualkf>TRUE</speedvirtualkf>
																			<speedkfstart>TRUE</speedkfstart>
																		</keyframe>
																		<keyframe>
																			<when>20858</when>
																			<value>27115</value>
																			<speedvirtualkf>TRUE</speedvirtualkf>
																			<speedkfin>TRUE</speedkfin>
																		</keyframe>
																		<keyframe>
																			<when>21242</when>
																			<value>27614</value>
																			<speedvirtualkf>TRUE</speedvirtualkf>
																			<speedkfout>TRUE</speedkfout>
																		</keyframe>
																		<keyframe>
																			<when>23749</when>
																			<value>30873</value>
																			<speedvirtualkf>TRUE</speedvirtualkf>
																			<speedkfend>TRUE</speedkfend>
																		</keyframe>
																		<interpolation>
																			<name>FCPCurve</name>
																		</interpolation>
																	</parameter>
																</effect>
															</filter>
															<logginginfo>
																<description></description>
																<scene></scene>
																<shottake></shottake>
																<lognote>https://www.youtube.com/watch?v=BMdGqY_Ia7Q</lognote>
																<good></good>
																<originalvideofilename></originalvideofilename>
																<originalaudiofilename></originalaudiofilename>
															</logginginfo>
															<colorinfo>
																<lut></lut>
																<lut1></lut1>
																<asc_sop></asc_sop>
																<asc_sat></asc_sat>
																<lut2></lut2>
															</colorinfo>
															<labels>
																<label2>Iris</label2>
															</labels>
														</clipitem>
														<clipitem id="clipitem-251">
															<masterclipid>masterclip-79</masterclipid>
															<name>(The Crafty Couple)_DIY Dollar Store Home Decor - Farmhouse DIY Tobacco Basket _NEW__BMdGqY_Ia7Q_YT.mp4</name>
															<enabled>TRUE</enabled>
															<duration>30874</duration>
															<rate>
																<timebase>30</timebase>
																<ntsc>TRUE</ntsc>
															</rate>
															<start>3037</start>
															<end>3117</end>
															<in>28667</in>
															<out>28747</out>
															<pproTicksIn>242971951622400</pproTicksIn>
															<pproTicksOut>243650004998400</pproTicksOut>
															<alphatype>none</alphatype>
															<file id="file-64"/>
															<logginginfo>
																<description></description>
																<scene></scene>
																<shottake></shottake>
																<lognote>https://www.youtube.com/watch?v=BMdGqY_Ia7Q</lognote>
																<good></good>
																<originalvideofilename></originalvideofilename>
																<originalaudiofilename></originalaudiofilename>
															</logginginfo>
															<colorinfo>
																<lut></lut>
																<lut1></lut1>
																<asc_sop></asc_sop>
																<asc_sat></asc_sat>
																<lut2></lut2>
															</colorinfo>
															<labels>
																<label2>Iris</label2>
															</labels>
														</clipitem>
														<clipitem id="clipitem-252">
															<masterclipid>masterclip-79</masterclipid>
															<name>(The Crafty Couple)_DIY Dollar Store Home Decor - Farmhouse DIY Tobacco Basket _NEW__BMdGqY_Ia7Q_YT.mp4</name>
															<enabled>TRUE</enabled>
															<duration>30874</duration>
															<rate>
																<timebase>30</timebase>
																<ntsc>TRUE</ntsc>
															</rate>
															<start>3117</start>
															<end>3387</end>
															<in>29313</in>
															<out>29583</out>
															<pproTicksIn>248447232633600</pproTicksIn>
															<pproTicksOut>250735662777600</pproTicksOut>
															<alphatype>none</alphatype>
															<file id="file-64"/>
															<logginginfo>
																<description></description>
																<scene></scene>
																<shottake></shottake>
																<lognote>https://www.youtube.com/watch?v=BMdGqY_Ia7Q</lognote>
																<good></good>
																<originalvideofilename></originalvideofilename>
																<originalaudiofilename></originalaudiofilename>
															</logginginfo>
															<colorinfo>
																<lut></lut>
																<lut1></lut1>
																<asc_sop></asc_sop>
																<asc_sat></asc_sat>
																<lut2></lut2>
															</colorinfo>
															<labels>
																<label2>Iris</label2>
															</labels>
														</clipitem>
														<clipitem id="clipitem-253">
															<masterclipid>masterclip-79</masterclipid>
															<name>(The Crafty Couple)_DIY Dollar Store Home Decor - Farmhouse DIY Tobacco Basket _NEW__BMdGqY_Ia7Q_YT.mp4</name>
															<enabled>TRUE</enabled>
															<duration>30874</duration>
															<rate>
																<timebase>30</timebase>
																<ntsc>TRUE</ntsc>
															</rate>
															<start>3387</start>
															<end>3569</end>
															<in>30254</in>
															<out>30436</out>
															<pproTicksIn>256422835468800</pproTicksIn>
															<pproTicksOut>257965406899200</pproTicksOut>
															<alphatype>none</alphatype>
															<file id="file-64"/>
															<logginginfo>
																<description></description>
																<scene></scene>
																<shottake></shottake>
																<lognote>https://www.youtube.com/watch?v=BMdGqY_Ia7Q</lognote>
																<good></good>
																<originalvideofilename></originalvideofilename>
																<originalaudiofilename></originalaudiofilename>
															</logginginfo>
															<colorinfo>
																<lut></lut>
																<lut1></lut1>
																<asc_sop></asc_sop>
																<asc_sat></asc_sat>
																<lut2></lut2>
															</colorinfo>
															<labels>
																<label2>Iris</label2>
															</labels>
														</clipitem>
														<enabled>TRUE</enabled>
														<locked>FALSE</locked>
													</track>
													<track TL.SQTrackShy="0" TL.SQTrackExpandedHeight="25" TL.SQTrackExpanded="0" MZ.TrackTargeted="0">
														<clipitem id="clipitem-254">
															<masterclipid>masterclip-80</masterclipid>
															<name>THE CRAFTY COUPLE</name>
															<enabled>TRUE</enabled>
															<duration>5844</duration>
															<rate>
																<timebase>30</timebase>
																<ntsc>TRUE</ntsc>
															</rate>
															<start>0</start>
															<end>3569</end>
															<in>0</in>
															<out>3569</out>
															<pproTicksIn>0</pproTicksIn>
															<pproTicksOut>30249656236800</pproTicksOut>
															<alphatype>straight</alphatype>
															<pixelaspectratio>square</pixelaspectratio>
															<anamorphic>FALSE</anamorphic>
															<file id="file-65">
																<name>1080/AE Attribution.aep</name>
																<pathurl>file://localhost/Volumes/ATM%20JR%202TB/Master%20Assets/AE%20Attribution.aep</pathurl>
																<rate>
																	<timebase>30</timebase>
																	<ntsc>TRUE</ntsc>
																</rate>
																<duration>5844</duration>
																<timecode>
																	<rate>
																		<timebase>30</timebase>
																		<ntsc>TRUE</ntsc>
																	</rate>
																	<string>00;00;00;00</string>
																	<frame>0</frame>
																	<displayformat>DF</displayformat>
																</timecode>
																<media>
																	<video>
																		<samplecharacteristics>
																			<rate>
																				<timebase>30</timebase>
																				<ntsc>TRUE</ntsc>
																			</rate>
																			<width>1920</width>
																			<height>1080</height>
																			<anamorphic>FALSE</anamorphic>
																			<pixelaspectratio>square</pixelaspectratio>
																			<fielddominance>lower</fielddominance>
																		</samplecharacteristics>
																	</video>
																</media>
															</file>
															<logginginfo>
																<description></description>
																<scene></scene>
																<shottake></shottake>
																<lognote></lognote>
																<good></good>
																<originalvideofilename></originalvideofilename>
																<originalaudiofilename></originalaudiofilename>
															</logginginfo>
															<colorinfo>
																<lut></lut>
																<lut1></lut1>
																<asc_sop></asc_sop>
																<asc_sat></asc_sat>
																<lut2></lut2>
															</colorinfo>
															<labels>
																<label2>Rose</label2>
															</labels>
														</clipitem>
														<enabled>TRUE</enabled>
														<locked>FALSE</locked>
													</track>
													<track TL.SQTrackShy="0" TL.SQTrackExpandedHeight="25" TL.SQTrackExpanded="0" MZ.TrackTargeted="0">
														<enabled>TRUE</enabled>
														<locked>FALSE</locked>
													</track>
												</video>
												<audio>
													<numOutputChannels>2</numOutputChannels>
													<format>
														<samplecharacteristics>
															<depth>16</depth>
															<samplerate>48000</samplerate>
														</samplecharacteristics>
													</format>
													<outputs>
														<group>
															<index>1</index>
															<numchannels>1</numchannels>
															<downmix>0</downmix>
															<channel>
																<index>1</index>
															</channel>
														</group>
														<group>
															<index>2</index>
															<numchannels>1</numchannels>
															<downmix>0</downmix>
															<channel>
																<index>2</index>
															</channel>
														</group>
													</outputs>
													<track TL.SQTrackAudioKeyframeStyle="0" TL.SQTrackShy="0" TL.SQTrackExpandedHeight="25" TL.SQTrackExpanded="0" MZ.TrackTargeted="1" PannerCurrentValue="0.5" PannerIsInverted="true" PannerStartKeyframe="-91445760000000000,0.5,0,0,0,0,0,0" PannerName="Balance" currentExplodedTrackIndex="0" totalExplodedTrackCount="2" premiereTrackType="Stereo">
														<enabled>TRUE</enabled>
														<locked>FALSE</locked>
														<outputchannelindex>1</outputchannelindex>
													</track>
													<track TL.SQTrackAudioKeyframeStyle="0" TL.SQTrackShy="0" TL.SQTrackExpandedHeight="25" TL.SQTrackExpanded="0" MZ.TrackTargeted="1" PannerCurrentValue="0.5" PannerIsInverted="true" PannerStartKeyframe="-91445760000000000,0.5,0,0,0,0,0,0" PannerName="Balance" currentExplodedTrackIndex="1" totalExplodedTrackCount="2" premiereTrackType="Stereo">
														<enabled>TRUE</enabled>
														<locked>FALSE</locked>
														<outputchannelindex>2</outputchannelindex>
													</track>
												</audio>
											</media>
											<timecode>
												<rate>
													<timebase>30</timebase>
													<ntsc>TRUE</ntsc>
												</rate>
												<string>00;00;00;00</string>
												<frame>0</frame>
												<displayformat>DF</displayformat>
											</timecode>
											<logginginfo>
												<description></description>
												<scene></scene>
												<shottake></shottake>
												<lognote></lognote>
												<good></good>
												<originalvideofilename></originalvideofilename>
												<originalaudiofilename></originalaudiofilename>
											</logginginfo>
										</sequence>
										<labels>
											<label2>Forest</label2>
										</labels>
									</clipitem>
									<clipitem id="clipitem-255">
										<masterclipid>masterclip-81</masterclipid>
										<name>BEAUTY_ PASSIONTWISTS_1</name>
										<enabled>TRUE</enabled>
										<duration>1901</duration>
										<rate>
											<timebase>30</timebase>
											<ntsc>TRUE</ntsc>
										</rate>
										<start>3588</start>
										<end>5489</end>
										<in>0</in>
										<out>1901</out>
										<pproTicksIn>0</pproTicksIn>
										<pproTicksOut>16112243347200</pproTicksOut>
										<sequence id="sequence-24" TL.SQAudioVisibleBase="0" TL.SQVideoVisibleBase="0" TL.SQVisibleBaseTime="0" TL.SQAVDividerPosition="0.5" TL.SQHideShyTracks="0" TL.SQHeaderWidth="236" Monitor.ProgramZoomOut="16112243347200" Monitor.ProgramZoomIn="0" TL.SQTimePerPixel="0.36289713945267638" MZ.EditLine="0" MZ.Sequence.PreviewFrameSizeHeight="1080" MZ.Sequence.PreviewFrameSizeWidth="1920" MZ.Sequence.AudioTimeDisplayFormat="200" MZ.Sequence.PreviewRenderingClassID="1061109567" MZ.Sequence.PreviewRenderingPresetCodec="1634755443" MZ.Sequence.PreviewRenderingPresetPath="EncoderPresets/SequencePreview/35d109db-457b-43c1-9452-9cb7be9f121c/QuickTime.epr" MZ.Sequence.PreviewUseMaxRenderQuality="false" MZ.Sequence.PreviewUseMaxBitDepth="false" MZ.Sequence.EditingModeGUID="35d109db-457b-43c1-9452-9cb7be9f121c" MZ.Sequence.VideoTimeDisplayFormat="102" MZ.WorkOutPoint="16112243347200" MZ.WorkInPoint="0">
											<duration>1901</duration>
											<rate>
												<timebase>30</timebase>
												<ntsc>TRUE</ntsc>
											</rate>
											<name>BEAUTY_PASSIONTWISTS_1</name>
											<media>
												<video>
													<format>
														<samplecharacteristics>
															<rate>
																<timebase>30</timebase>
																<ntsc>TRUE</ntsc>
															</rate>
															<codec>
																<name>Apple ProRes 422</name>
																<appspecificdata>
																	<appname>Final Cut Pro</appname>
																	<appmanufacturer>Apple Inc.</appmanufacturer>
																	<appversion>7.0</appversion>
																	<data>
																		<qtcodec>
																			<codecname>Apple ProRes 422</codecname>
																			<codectypename>Apple ProRes 422</codectypename>
																			<codectypecode>apcn</codectypecode>
																			<codecvendorcode>appl</codecvendorcode>
																			<spatialquality>1024</spatialquality>
																			<temporalquality>0</temporalquality>
																			<keyframerate>0</keyframerate>
																			<datarate>0</datarate>
																		</qtcodec>
																	</data>
																</appspecificdata>
															</codec>
															<width>1920</width>
															<height>1080</height>
															<anamorphic>FALSE</anamorphic>
															<pixelaspectratio>square</pixelaspectratio>
															<fielddominance>none</fielddominance>
															<colordepth>24</colordepth>
														</samplecharacteristics>
													</format>
													<track TL.SQTrackShy="0" TL.SQTrackExpandedHeight="25" TL.SQTrackExpanded="0" MZ.TrackTargeted="1">
														<clipitem id="clipitem-256">
															<masterclipid>masterclip-82</masterclipid>
															<name>(OnlyOneJess)_Super QUICK &amp; EASY Shoulder Length PASSION TWIST_YeiKVysjHLQ_YT.mp4</name>
															<enabled>TRUE</enabled>
															<duration>15123</duration>
															<rate>
																<timebase>30</timebase>
																<ntsc>TRUE</ntsc>
															</rate>
															<start>0</start>
															<end>235</end>
															<in>2241</in>
															<out>2476</out>
															<pproTicksIn>18993970195200</pproTicksIn>
															<pproTicksOut>20985751987200</pproTicksOut>
															<alphatype>none</alphatype>
															<pixelaspectratio>square</pixelaspectratio>
															<anamorphic>FALSE</anamorphic>
															<file id="file-66">
																<name>(OnlyOneJess)_Super QUICK &amp; EASY Shoulder Length PASSION TWIST_YeiKVysjHLQ_YT.mp4</name>
																<pathurl>file://localhost/Volumes/CONTENT/VOD%20CONTENT%20ARCHIVE/O&amp;O%20Archive%202023/CRAFTY/03_March/Crafty_3-20-2023/3_Raw%20Files/passion%20twist%20hair/(OnlyOneJess)_Super%20QUICK%20&amp;%20EASY%20Shoulder%20Length%20PASSION%20TWIST_YeiKVysjHLQ_YT.mp4</pathurl>
																<rate>
																	<timebase>24</timebase>
																	<ntsc>TRUE</ntsc>
																</rate>
																<duration>12099</duration>
																<timecode>
																	<rate>
																		<timebase>24</timebase>
																		<ntsc>TRUE</ntsc>
																	</rate>
																	<string>00:00:00:00</string>
																	<frame>0</frame>
																	<displayformat>NDF</displayformat>
																</timecode>
																<media>
																	<video>
																		<samplecharacteristics>
																			<rate>
																				<timebase>24</timebase>
																				<ntsc>TRUE</ntsc>
																			</rate>
																			<width>1920</width>
																			<height>1080</height>
																			<anamorphic>FALSE</anamorphic>
																			<pixelaspectratio>square</pixelaspectratio>
																			<fielddominance>none</fielddominance>
																		</samplecharacteristics>
																	</video>
																	<audio>
																		<samplecharacteristics>
																			<depth>16</depth>
																			<samplerate>44100</samplerate>
																		</samplecharacteristics>
																		<channelcount>2</channelcount>
																	</audio>
																</media>
															</file>
															<filter>
																<effect>
																	<name>Basic Motion</name>
																	<effectid>basic</effectid>
																	<effectcategory>motion</effectcategory>
																	<effecttype>motion</effecttype>
																	<mediatype>video</mediatype>
																	<pproBypass>false</pproBypass>
																	<parameter authoringApp="PremierePro">
																		<parameterid>scale</parameterid>
																		<name>Scale</name>
																		<valuemin>0</valuemin>
																		<valuemax>1000</valuemax>
																		<value>135</value>
																	</parameter>
																	<parameter authoringApp="PremierePro">
																		<parameterid>rotation</parameterid>
																		<name>Rotation</name>
																		<valuemin>-8640</valuemin>
																		<valuemax>8640</valuemax>
																		<value>0</value>
																	</parameter>
																	<parameter authoringApp="PremierePro">
																		<parameterid>center</parameterid>
																		<name>Center</name>
																		<value>
																			<horiz>0</horiz>
																			<vert>0</vert>
																		</value>
																	</parameter>
																	<parameter authoringApp="PremierePro">
																		<parameterid>centerOffset</parameterid>
																		<name>Anchor Point</name>
																		<value>
																			<horiz>0</horiz>
																			<vert>0</vert>
																		</value>
																	</parameter>
																	<parameter authoringApp="PremierePro">
																		<parameterid>antiflicker</parameterid>
																		<name>Anti-flicker Filter</name>
																		<valuemin>0.0</valuemin>
																		<valuemax>1.0</valuemax>
																		<value>0</value>
																	</parameter>
																</effect>
															</filter>
															<logginginfo>
																<description></description>
																<scene></scene>
																<shottake></shottake>
																<lognote>https://www.youtube.com/watch?v=YeiKVysjHLQ</lognote>
																<good></good>
																<originalvideofilename></originalvideofilename>
																<originalaudiofilename></originalaudiofilename>
															</logginginfo>
															<colorinfo>
																<lut></lut>
																<lut1></lut1>
																<asc_sop></asc_sop>
																<asc_sat></asc_sat>
																<lut2></lut2>
															</colorinfo>
															<labels>
																<label2>Iris</label2>
															</labels>
														</clipitem>
														<clipitem id="clipitem-257">
															<masterclipid>masterclip-82</masterclipid>
															<name>(OnlyOneJess)_Super QUICK &amp; EASY Shoulder Length PASSION TWIST_YeiKVysjHLQ_YT.mp4</name>
															<enabled>TRUE</enabled>
															<duration>15123</duration>
															<rate>
																<timebase>30</timebase>
																<ntsc>TRUE</ntsc>
															</rate>
															<start>235</start>
															<end>697</end>
															<in>2814</in>
															<out>3276</out>
															<pproTicksIn>23850527500800</pproTicksIn>
															<pproTicksOut>27766285747200</pproTicksOut>
															<alphatype>none</alphatype>
															<file id="file-66"/>
															<filter>
																<effect>
																	<name>Basic Motion</name>
																	<effectid>basic</effectid>
																	<effectcategory>motion</effectcategory>
																	<effecttype>motion</effecttype>
																	<mediatype>video</mediatype>
																	<pproBypass>false</pproBypass>
																	<parameter authoringApp="PremierePro">
																		<parameterid>scale</parameterid>
																		<name>Scale</name>
																		<valuemin>0</valuemin>
																		<valuemax>1000</valuemax>
																		<value>135</value>
																	</parameter>
																	<parameter authoringApp="PremierePro">
																		<parameterid>rotation</parameterid>
																		<name>Rotation</name>
																		<valuemin>-8640</valuemin>
																		<valuemax>8640</valuemax>
																		<value>0</value>
																	</parameter>
																	<parameter authoringApp="PremierePro">
																		<parameterid>center</parameterid>
																		<name>Center</name>
																		<value>
																			<horiz>0</horiz>
																			<vert>0</vert>
																		</value>
																	</parameter>
																	<parameter authoringApp="PremierePro">
																		<parameterid>centerOffset</parameterid>
																		<name>Anchor Point</name>
																		<value>
																			<horiz>0</horiz>
																			<vert>0</vert>
																		</value>
																	</parameter>
																	<parameter authoringApp="PremierePro">
																		<parameterid>antiflicker</parameterid>
																		<name>Anti-flicker Filter</name>
																		<valuemin>0.0</valuemin>
																		<valuemax>1.0</valuemax>
																		<value>0</value>
																	</parameter>
																</effect>
															</filter>
															<logginginfo>
																<description></description>
																<scene></scene>
																<shottake></shottake>
																<lognote>https://www.youtube.com/watch?v=YeiKVysjHLQ</lognote>
																<good></good>
																<originalvideofilename></originalvideofilename>
																<originalaudiofilename></originalaudiofilename>
															</logginginfo>
															<colorinfo>
																<lut></lut>
																<lut1></lut1>
																<asc_sop></asc_sop>
																<asc_sat></asc_sat>
																<lut2></lut2>
															</colorinfo>
															<labels>
																<label2>Iris</label2>
															</labels>
														</clipitem>
														<clipitem id="clipitem-258">
															<masterclipid>masterclip-82</masterclipid>
															<name>(OnlyOneJess)_Super QUICK &amp; EASY Shoulder Length PASSION TWIST_YeiKVysjHLQ_YT.mp4</name>
															<enabled>TRUE</enabled>
															<duration>15123</duration>
															<rate>
																<timebase>30</timebase>
																<ntsc>TRUE</ntsc>
															</rate>
															<start>697</start>
															<end>910</end>
															<in>9920</in>
															<out>10133</out>
															<pproTicksIn>84078618624000</pproTicksIn>
															<pproTicksOut>85883935737600</pproTicksOut>
															<alphatype>none</alphatype>
															<file id="file-66"/>
															<filter>
																<effect>
																	<name>Basic Motion</name>
																	<effectid>basic</effectid>
																	<effectcategory>motion</effectcategory>
																	<effecttype>motion</effecttype>
																	<mediatype>video</mediatype>
																	<pproBypass>false</pproBypass>
																	<parameter authoringApp="PremierePro">
																		<parameterid>scale</parameterid>
																		<name>Scale</name>
																		<valuemin>0</valuemin>
																		<valuemax>1000</valuemax>
																		<value>135</value>
																	</parameter>
																	<parameter authoringApp="PremierePro">
																		<parameterid>rotation</parameterid>
																		<name>Rotation</name>
																		<valuemin>-8640</valuemin>
																		<valuemax>8640</valuemax>
																		<value>0</value>
																	</parameter>
																	<parameter authoringApp="PremierePro">
																		<parameterid>center</parameterid>
																		<name>Center</name>
																		<value>
																			<horiz>0</horiz>
																			<vert>0</vert>
																		</value>
																	</parameter>
																	<parameter authoringApp="PremierePro">
																		<parameterid>centerOffset</parameterid>
																		<name>Anchor Point</name>
																		<value>
																			<horiz>0</horiz>
																			<vert>0</vert>
																		</value>
																	</parameter>
																	<parameter authoringApp="PremierePro">
																		<parameterid>antiflicker</parameterid>
																		<name>Anti-flicker Filter</name>
																		<valuemin>0.0</valuemin>
																		<valuemax>1.0</valuemax>
																		<value>0</value>
																	</parameter>
																</effect>
															</filter>
															<logginginfo>
																<description></description>
																<scene></scene>
																<shottake></shottake>
																<lognote>https://www.youtube.com/watch?v=YeiKVysjHLQ</lognote>
																<good></good>
																<originalvideofilename></originalvideofilename>
																<originalaudiofilename></originalaudiofilename>
															</logginginfo>
															<colorinfo>
																<lut></lut>
																<lut1></lut1>
																<asc_sop></asc_sop>
																<asc_sat></asc_sat>
																<lut2></lut2>
															</colorinfo>
															<labels>
																<label2>Iris</label2>
															</labels>
														</clipitem>
														<clipitem id="clipitem-259">
															<masterclipid>masterclip-82</masterclipid>
															<name>(OnlyOneJess)_Super QUICK &amp; EASY Shoulder Length PASSION TWIST_YeiKVysjHLQ_YT.mp4</name>
															<enabled>TRUE</enabled>
															<duration>15123</duration>
															<rate>
																<timebase>30</timebase>
																<ntsc>TRUE</ntsc>
															</rate>
															<start>910</start>
															<end>1584</end>
															<in>10405</in>
															<out>11079</out>
															<pproTicksIn>88189317216000</pproTicksIn>
															<pproTicksOut>93901916908800</pproTicksOut>
															<alphatype>none</alphatype>
															<file id="file-66"/>
															<filter>
																<effect>
																	<name>Basic Motion</name>
																	<effectid>basic</effectid>
																	<effectcategory>motion</effectcategory>
																	<effecttype>motion</effecttype>
																	<mediatype>video</mediatype>
																	<pproBypass>false</pproBypass>
																	<parameter authoringApp="PremierePro">
																		<parameterid>scale</parameterid>
																		<name>Scale</name>
																		<valuemin>0</valuemin>
																		<valuemax>1000</valuemax>
																		<value>135</value>
																	</parameter>
																	<parameter authoringApp="PremierePro">
																		<parameterid>rotation</parameterid>
																		<name>Rotation</name>
																		<valuemin>-8640</valuemin>
																		<valuemax>8640</valuemax>
																		<value>0</value>
																	</parameter>
																	<parameter authoringApp="PremierePro">
																		<parameterid>center</parameterid>
																		<name>Center</name>
																		<value>
																			<horiz>0</horiz>
																			<vert>0</vert>
																		</value>
																	</parameter>
																	<parameter authoringApp="PremierePro">
																		<parameterid>centerOffset</parameterid>
																		<name>Anchor Point</name>
																		<value>
																			<horiz>0</horiz>
																			<vert>0</vert>
																		</value>
																	</parameter>
																	<parameter authoringApp="PremierePro">
																		<parameterid>antiflicker</parameterid>
																		<name>Anti-flicker Filter</name>
																		<valuemin>0.0</valuemin>
																		<valuemax>1.0</valuemax>
																		<value>0</value>
																	</parameter>
																</effect>
															</filter>
															<logginginfo>
																<description></description>
																<scene></scene>
																<shottake></shottake>
																<lognote>https://www.youtube.com/watch?v=YeiKVysjHLQ</lognote>
																<good></good>
																<originalvideofilename></originalvideofilename>
																<originalaudiofilename></originalaudiofilename>
															</logginginfo>
															<colorinfo>
																<lut></lut>
																<lut1></lut1>
																<asc_sop></asc_sop>
																<asc_sat></asc_sat>
																<lut2></lut2>
															</colorinfo>
															<labels>
																<label2>Iris</label2>
															</labels>
														</clipitem>
														<clipitem id="clipitem-260">
															<masterclipid>masterclip-82</masterclipid>
															<name>(OnlyOneJess)_Super QUICK &amp; EASY Shoulder Length PASSION TWIST_YeiKVysjHLQ_YT.mp4</name>
															<enabled>TRUE</enabled>
															<duration>15123</duration>
															<rate>
																<timebase>30</timebase>
																<ntsc>TRUE</ntsc>
															</rate>
															<start>1584</start>
															<end>1710</end>
															<in>11340</in>
															<out>11466</out>
															<pproTicksIn>96114066048000</pproTicksIn>
															<pproTicksOut>97182000115200</pproTicksOut>
															<alphatype>none</alphatype>
															<file id="file-66"/>
															<filter>
																<effect>
																	<name>Basic Motion</name>
																	<effectid>basic</effectid>
																	<effectcategory>motion</effectcategory>
																	<effecttype>motion</effecttype>
																	<mediatype>video</mediatype>
																	<pproBypass>false</pproBypass>
																	<parameter authoringApp="PremierePro">
																		<parameterid>scale</parameterid>
																		<name>Scale</name>
																		<valuemin>0</valuemin>
																		<valuemax>1000</valuemax>
																		<value>135</value>
																	</parameter>
																	<parameter authoringApp="PremierePro">
																		<parameterid>rotation</parameterid>
																		<name>Rotation</name>
																		<valuemin>-8640</valuemin>
																		<valuemax>8640</valuemax>
																		<value>0</value>
																	</parameter>
																	<parameter authoringApp="PremierePro">
																		<parameterid>center</parameterid>
																		<name>Center</name>
																		<value>
																			<horiz>0</horiz>
																			<vert>0</vert>
																		</value>
																	</parameter>
																	<parameter authoringApp="PremierePro">
																		<parameterid>centerOffset</parameterid>
																		<name>Anchor Point</name>
																		<value>
																			<horiz>0</horiz>
																			<vert>0</vert>
																		</value>
																	</parameter>
																	<parameter authoringApp="PremierePro">
																		<parameterid>antiflicker</parameterid>
																		<name>Anti-flicker Filter</name>
																		<valuemin>0.0</valuemin>
																		<valuemax>1.0</valuemax>
																		<value>0</value>
																	</parameter>
																</effect>
															</filter>
															<logginginfo>
																<description></description>
																<scene></scene>
																<shottake></shottake>
																<lognote>https://www.youtube.com/watch?v=YeiKVysjHLQ</lognote>
																<good></good>
																<originalvideofilename></originalvideofilename>
																<originalaudiofilename></originalaudiofilename>
															</logginginfo>
															<colorinfo>
																<lut></lut>
																<lut1></lut1>
																<asc_sop></asc_sop>
																<asc_sat></asc_sat>
																<lut2></lut2>
															</colorinfo>
															<labels>
																<label2>Iris</label2>
															</labels>
														</clipitem>
														<clipitem id="clipitem-261">
															<masterclipid>masterclip-82</masterclipid>
															<name>(OnlyOneJess)_Super QUICK &amp; EASY Shoulder Length PASSION TWIST_YeiKVysjHLQ_YT.mp4</name>
															<enabled>TRUE</enabled>
															<duration>15123</duration>
															<rate>
																<timebase>30</timebase>
																<ntsc>TRUE</ntsc>
															</rate>
															<start>1710</start>
															<end>1901</end>
															<in>13842</in>
															<out>14033</out>
															<pproTicksIn>117320185382400</pproTicksIn>
															<pproTicksOut>118939037817600</pproTicksOut>
															<alphatype>none</alphatype>
															<file id="file-66"/>
															<filter>
																<effect>
																	<name>Basic Motion</name>
																	<effectid>basic</effectid>
																	<effectcategory>motion</effectcategory>
																	<effecttype>motion</effecttype>
																	<mediatype>video</mediatype>
																	<pproBypass>false</pproBypass>
																	<parameter authoringApp="PremierePro">
																		<parameterid>scale</parameterid>
																		<name>Scale</name>
																		<valuemin>0</valuemin>
																		<valuemax>1000</valuemax>
																		<value>135</value>
																	</parameter>
																	<parameter authoringApp="PremierePro">
																		<parameterid>rotation</parameterid>
																		<name>Rotation</name>
																		<valuemin>-8640</valuemin>
																		<valuemax>8640</valuemax>
																		<value>0</value>
																	</parameter>
																	<parameter authoringApp="PremierePro">
																		<parameterid>center</parameterid>
																		<name>Center</name>
																		<value>
																			<horiz>0</horiz>
																			<vert>0</vert>
																		</value>
																	</parameter>
																	<parameter authoringApp="PremierePro">
																		<parameterid>centerOffset</parameterid>
																		<name>Anchor Point</name>
																		<value>
																			<horiz>0</horiz>
																			<vert>0</vert>
																		</value>
																	</parameter>
																	<parameter authoringApp="PremierePro">
																		<parameterid>antiflicker</parameterid>
																		<name>Anti-flicker Filter</name>
																		<valuemin>0.0</valuemin>
																		<valuemax>1.0</valuemax>
																		<value>0</value>
																	</parameter>
																</effect>
															</filter>
															<logginginfo>
																<description></description>
																<scene></scene>
																<shottake></shottake>
																<lognote>https://www.youtube.com/watch?v=YeiKVysjHLQ</lognote>
																<good></good>
																<originalvideofilename></originalvideofilename>
																<originalaudiofilename></originalaudiofilename>
															</logginginfo>
															<colorinfo>
																<lut></lut>
																<lut1></lut1>
																<asc_sop></asc_sop>
																<asc_sat></asc_sat>
																<lut2></lut2>
															</colorinfo>
															<labels>
																<label2>Iris</label2>
															</labels>
														</clipitem>
														<enabled>TRUE</enabled>
														<locked>FALSE</locked>
													</track>
													<track TL.SQTrackShy="0" TL.SQTrackExpandedHeight="25" TL.SQTrackExpanded="0" MZ.TrackTargeted="0">
														<clipitem id="clipitem-262">
															<masterclipid>masterclip-83</masterclipid>
															<name>Only One Jess</name>
															<enabled>TRUE</enabled>
															<duration>5844</duration>
															<rate>
																<timebase>30</timebase>
																<ntsc>TRUE</ntsc>
															</rate>
															<start>0</start>
															<end>1901</end>
															<in>0</in>
															<out>1901</out>
															<pproTicksIn>0</pproTicksIn>
															<pproTicksOut>16112243347200</pproTicksOut>
															<alphatype>straight</alphatype>
															<pixelaspectratio>square</pixelaspectratio>
															<anamorphic>FALSE</anamorphic>
															<file id="file-67">
																<name>1080/AE Attribution.aep</name>
																<pathurl>file://localhost/Volumes/ATM%20JR%202TB/Master%20Assets/AE%20Attribution.aep</pathurl>
																<rate>
																	<timebase>30</timebase>
																	<ntsc>TRUE</ntsc>
																</rate>
																<duration>5844</duration>
																<timecode>
																	<rate>
																		<timebase>30</timebase>
																		<ntsc>TRUE</ntsc>
																	</rate>
																	<string>00;00;00;00</string>
																	<frame>0</frame>
																	<displayformat>DF</displayformat>
																</timecode>
																<media>
																	<video>
																		<samplecharacteristics>
																			<rate>
																				<timebase>30</timebase>
																				<ntsc>TRUE</ntsc>
																			</rate>
																			<width>1920</width>
																			<height>1080</height>
																			<anamorphic>FALSE</anamorphic>
																			<pixelaspectratio>square</pixelaspectratio>
																			<fielddominance>lower</fielddominance>
																		</samplecharacteristics>
																	</video>
																</media>
															</file>
															<logginginfo>
																<description></description>
																<scene></scene>
																<shottake></shottake>
																<lognote></lognote>
																<good></good>
																<originalvideofilename></originalvideofilename>
																<originalaudiofilename></originalaudiofilename>
															</logginginfo>
															<colorinfo>
																<lut></lut>
																<lut1></lut1>
																<asc_sop></asc_sop>
																<asc_sat></asc_sat>
																<lut2></lut2>
															</colorinfo>
															<labels>
																<label2>Rose</label2>
															</labels>
														</clipitem>
														<enabled>TRUE</enabled>
														<locked>FALSE</locked>
													</track>
												</video>
												<audio>
													<numOutputChannels>2</numOutputChannels>
													<format>
														<samplecharacteristics>
															<depth>16</depth>
															<samplerate>48000</samplerate>
														</samplecharacteristics>
													</format>
													<outputs>
														<group>
															<index>1</index>
															<numchannels>1</numchannels>
															<downmix>0</downmix>
															<channel>
																<index>1</index>
															</channel>
														</group>
														<group>
															<index>2</index>
															<numchannels>1</numchannels>
															<downmix>0</downmix>
															<channel>
																<index>2</index>
															</channel>
														</group>
													</outputs>
													<track TL.SQTrackAudioKeyframeStyle="0" TL.SQTrackShy="0" TL.SQTrackExpandedHeight="25" TL.SQTrackExpanded="0" MZ.TrackTargeted="1" PannerCurrentValue="0.5" PannerIsInverted="true" PannerStartKeyframe="-91445760000000000,0.5,0,0,0,0,0,0" PannerName="Balance" currentExplodedTrackIndex="0" totalExplodedTrackCount="2" premiereTrackType="Stereo">
														<enabled>TRUE</enabled>
														<locked>FALSE</locked>
														<outputchannelindex>1</outputchannelindex>
													</track>
													<track TL.SQTrackAudioKeyframeStyle="0" TL.SQTrackShy="0" TL.SQTrackExpandedHeight="25" TL.SQTrackExpanded="0" MZ.TrackTargeted="1" PannerCurrentValue="0.5" PannerIsInverted="true" PannerStartKeyframe="-91445760000000000,0.5,0,0,0,0,0,0" PannerName="Balance" currentExplodedTrackIndex="1" totalExplodedTrackCount="2" premiereTrackType="Stereo">
														<enabled>TRUE</enabled>
														<locked>FALSE</locked>
														<outputchannelindex>2</outputchannelindex>
													</track>
												</audio>
											</media>
											<timecode>
												<rate>
													<timebase>30</timebase>
													<ntsc>TRUE</ntsc>
												</rate>
												<string>00;00;00;00</string>
												<frame>0</frame>
												<displayformat>DF</displayformat>
											</timecode>
											<logginginfo>
												<description></description>
												<scene></scene>
												<shottake></shottake>
												<lognote></lognote>
												<good></good>
												<originalvideofilename></originalvideofilename>
												<originalaudiofilename></originalaudiofilename>
											</logginginfo>
										</sequence>
										<labels>
											<label2>Forest</label2>
										</labels>
									</clipitem>
									<enabled>TRUE</enabled>
									<locked>FALSE</locked>
								</track>
								<track TL.SQTrackShy="0" TL.SQTrackExpandedHeight="25" TL.SQTrackExpanded="0" MZ.TrackTargeted="0">
									<clipitem id="clipitem-263">
										<masterclipid>masterclip-84</masterclipid>
										<name>PAPER OR BASKET</name>
										<enabled>TRUE</enabled>
										<duration>5695</duration>
										<rate>
											<timebase>30</timebase>
											<ntsc>TRUE</ntsc>
										</rate>
										<start>0</start>
										<end>3524</end>
										<in>0</in>
										<out>3524</out>
										<pproTicksIn>0</pproTicksIn>
										<pproTicksOut>29868251212800</pproTicksOut>
										<alphatype>straight</alphatype>
										<pixelaspectratio>square</pixelaspectratio>
										<anamorphic>FALSE</anamorphic>
										<file id="file-68">
											<name>CRAFTY_L3RD_01_JL_V03/CRAFTY_L3RD_01_JL_V03.aep</name>
											<pathurl>file://localhost/Volumes/ATM%20JR%202TB/Master%20Assets/CRAFTY_L3RD_01_JL_V03%20folder/CRAFTY_L3RD_01_JL_V03.aep</pathurl>
											<rate>
												<timebase>30</timebase>
												<ntsc>FALSE</ntsc>
											</rate>
											<duration>5701</duration>
											<timecode>
												<rate>
													<timebase>30</timebase>
													<ntsc>FALSE</ntsc>
												</rate>
												<string>00:00:00:00</string>
												<frame>0</frame>
												<displayformat>NDF</displayformat>
											</timecode>
											<media>
												<video>
													<samplecharacteristics>
														<rate>
															<timebase>30</timebase>
															<ntsc>FALSE</ntsc>
														</rate>
														<width>1920</width>
														<height>1080</height>
														<anamorphic>FALSE</anamorphic>
														<pixelaspectratio>square</pixelaspectratio>
														<fielddominance>lower</fielddominance>
													</samplecharacteristics>
												</video>
											</media>
										</file>
										<logginginfo>
											<description></description>
											<scene></scene>
											<shottake></shottake>
											<lognote></lognote>
											<good></good>
											<originalvideofilename></originalvideofilename>
											<originalaudiofilename></originalaudiofilename>
										</logginginfo>
										<colorinfo>
											<lut></lut>
											<lut1></lut1>
											<asc_sop></asc_sop>
											<asc_sat></asc_sat>
											<lut2></lut2>
										</colorinfo>
										<labels>
											<label2>Rose</label2>
										</labels>
									</clipitem>
									<clipitem id="clipitem-264">
										<masterclipid>masterclip-85</masterclipid>
										<name>PASSION TWISTS</name>
										<enabled>TRUE</enabled>
										<duration>5695</duration>
										<rate>
											<timebase>30</timebase>
											<ntsc>TRUE</ntsc>
										</rate>
										<start>3610</start>
										<end>5489</end>
										<in>0</in>
										<out>1879</out>
										<pproTicksIn>0</pproTicksIn>
										<pproTicksOut>15925778668800</pproTicksOut>
										<alphatype>straight</alphatype>
										<pixelaspectratio>square</pixelaspectratio>
										<anamorphic>FALSE</anamorphic>
										<file id="file-69">
											<name>CRAFTY_L3RD_01_JL_V03/CRAFTY_L3RD_01_JL_V03.aep</name>
											<pathurl>file://localhost/Volumes/ATM%20JR%202TB/Master%20Assets/CRAFTY_L3RD_01_JL_V03%20folder/CRAFTY_L3RD_01_JL_V03.aep</pathurl>
											<rate>
												<timebase>30</timebase>
												<ntsc>FALSE</ntsc>
											</rate>
											<duration>5701</duration>
											<timecode>
												<rate>
													<timebase>30</timebase>
													<ntsc>FALSE</ntsc>
												</rate>
												<string>00:00:00:00</string>
												<frame>0</frame>
												<displayformat>NDF</displayformat>
											</timecode>
											<media>
												<video>
													<samplecharacteristics>
														<rate>
															<timebase>30</timebase>
															<ntsc>FALSE</ntsc>
														</rate>
														<width>1920</width>
														<height>1080</height>
														<anamorphic>FALSE</anamorphic>
														<pixelaspectratio>square</pixelaspectratio>
														<fielddominance>lower</fielddominance>
													</samplecharacteristics>
												</video>
											</media>
										</file>
										<logginginfo>
											<description></description>
											<scene></scene>
											<shottake></shottake>
											<lognote></lognote>
											<good></good>
											<originalvideofilename></originalvideofilename>
											<originalaudiofilename></originalaudiofilename>
										</logginginfo>
										<colorinfo>
											<lut></lut>
											<lut1></lut1>
											<asc_sop></asc_sop>
											<asc_sat></asc_sat>
											<lut2></lut2>
										</colorinfo>
										<labels>
											<label2>Rose</label2>
										</labels>
									</clipitem>
									<enabled>TRUE</enabled>
									<locked>FALSE</locked>
								</track>
								<track TL.SQTrackShy="0" TL.SQTrackExpandedHeight="25" TL.SQTrackExpanded="0" MZ.TrackTargeted="0">
									<clipitem id="clipitem-265">
										<masterclipid>masterclip-9</masterclipid>
										<name>ATM_logo_channels_right-2 (3).png</name>
										<enabled>TRUE</enabled>
										<duration>1294705</duration>
										<rate>
											<timebase>30</timebase>
											<ntsc>TRUE</ntsc>
										</rate>
										<start>0</start>
										<end>5489</end>
										<in>105143</in>
										<out>110632</out>
										<pproTicksIn>891157076409600</pproTicksIn>
										<pproTicksOut>937680013670400</pproTicksOut>
										<alphatype>straight</alphatype>
										<file id="file-7"/>
										<logginginfo>
											<description></description>
											<scene></scene>
											<shottake></shottake>
											<lognote></lognote>
											<good></good>
											<originalvideofilename></originalvideofilename>
											<originalaudiofilename></originalaudiofilename>
										</logginginfo>
										<colorinfo>
											<lut></lut>
											<lut1></lut1>
											<asc_sop></asc_sop>
											<asc_sat></asc_sat>
											<lut2></lut2>
										</colorinfo>
										<labels>
											<label2>Lavender</label2>
										</labels>
									</clipitem>
									<enabled>TRUE</enabled>
									<locked>FALSE</locked>
								</track>
								<track TL.SQTrackShy="0" TL.SQTrackExpandedHeight="25" TL.SQTrackExpanded="0" MZ.TrackTargeted="0">
									<clipitem id="clipitem-266">
										<masterclipid>masterclip-10</masterclipid>
										<name>CRAFTY_TRAN01_JL_V01.mov</name>
										<enabled>TRUE</enabled>
										<duration>120</duration>
										<rate>
											<timebase>30</timebase>
											<ntsc>TRUE</ntsc>
										</rate>
										<start>3490</start>
										<end>3610</end>
										<in>0</in>
										<out>120</out>
										<pproTicksIn>0</pproTicksIn>
										<pproTicksOut>1017080064000</pproTicksOut>
										<alphatype>none</alphatype>
										<file id="file-8"/>
										<link>
											<linkclipref>clipitem-266</linkclipref>
											<mediatype>video</mediatype>
											<trackindex>4</trackindex>
											<clipindex>1</clipindex>
										</link>
										<link>
											<linkclipref>clipitem-268</linkclipref>
											<mediatype>audio</mediatype>
											<trackindex>1</trackindex>
											<clipindex>1</clipindex>
											<groupindex>1</groupindex>
										</link>
										<link>
											<linkclipref>clipitem-270</linkclipref>
											<mediatype>audio</mediatype>
											<trackindex>2</trackindex>
											<clipindex>1</clipindex>
											<groupindex>1</groupindex>
										</link>
										<logginginfo>
											<description></description>
											<scene></scene>
											<shottake></shottake>
											<lognote></lognote>
											<good></good>
											<originalvideofilename></originalvideofilename>
											<originalaudiofilename></originalaudiofilename>
										</logginginfo>
										<colorinfo>
											<lut></lut>
											<lut1></lut1>
											<asc_sop></asc_sop>
											<asc_sat></asc_sat>
											<lut2></lut2>
										</colorinfo>
										<labels>
											<label2>Iris</label2>
										</labels>
									</clipitem>
									<clipitem id="clipitem-267">
										<masterclipid>masterclip-11</masterclipid>
										<name>CRAFTY_TRAN02_JL_V01.mov</name>
										<enabled>TRUE</enabled>
										<duration>120</duration>
										<rate>
											<timebase>30</timebase>
											<ntsc>TRUE</ntsc>
										</rate>
										<start>5465</start>
										<end>5585</end>
										<in>0</in>
										<out>120</out>
										<pproTicksIn>0</pproTicksIn>
										<pproTicksOut>1017080064000</pproTicksOut>
										<alphatype>none</alphatype>
										<file id="file-9"/>
										<link>
											<linkclipref>clipitem-267</linkclipref>
											<mediatype>video</mediatype>
											<trackindex>4</trackindex>
											<clipindex>2</clipindex>
										</link>
										<link>
											<linkclipref>clipitem-269</linkclipref>
											<mediatype>audio</mediatype>
											<trackindex>1</trackindex>
											<clipindex>2</clipindex>
											<groupindex>1</groupindex>
										</link>
										<link>
											<linkclipref>clipitem-271</linkclipref>
											<mediatype>audio</mediatype>
											<trackindex>2</trackindex>
											<clipindex>2</clipindex>
											<groupindex>1</groupindex>
										</link>
										<logginginfo>
											<description></description>
											<scene></scene>
											<shottake></shottake>
											<lognote></lognote>
											<good></good>
											<originalvideofilename></originalvideofilename>
											<originalaudiofilename></originalaudiofilename>
										</logginginfo>
										<colorinfo>
											<lut></lut>
											<lut1></lut1>
											<asc_sop></asc_sop>
											<asc_sat></asc_sat>
											<lut2></lut2>
										</colorinfo>
										<labels>
											<label2>Iris</label2>
										</labels>
									</clipitem>
									<enabled>TRUE</enabled>
									<locked>FALSE</locked>
								</track>
								<track TL.SQTrackShy="0" TL.SQTrackExpandedHeight="25" TL.SQTrackExpanded="0" MZ.TrackTargeted="0">
									<enabled>TRUE</enabled>
									<locked>FALSE</locked>
								</track>
							</video>
							<audio>
								<numOutputChannels>2</numOutputChannels>
								<format>
									<samplecharacteristics>
										<depth>16</depth>
										<samplerate>48000</samplerate>
									</samplecharacteristics>
								</format>
								<outputs>
									<group>
										<index>1</index>
										<numchannels>1</numchannels>
										<downmix>0</downmix>
										<channel>
											<index>1</index>
										</channel>
									</group>
									<group>
										<index>2</index>
										<numchannels>1</numchannels>
										<downmix>0</downmix>
										<channel>
											<index>2</index>
										</channel>
									</group>
								</outputs>
								<track TL.SQTrackAudioKeyframeStyle="0" TL.SQTrackShy="0" TL.SQTrackExpandedHeight="69" TL.SQTrackExpanded="0" MZ.TrackTargeted="1" PannerCurrentValue="0.5" PannerIsInverted="true" PannerStartKeyframe="-91445760000000000,0.5,0,0,0,0,0,0" PannerName="Balance" currentExplodedTrackIndex="0" totalExplodedTrackCount="2" premiereTrackType="Stereo">
									<clipitem id="clipitem-268" premiereChannelType="stereo">
										<masterclipid>masterclip-10</masterclipid>
										<name>CRAFTY_TRAN01_JL_V01.mov</name>
										<enabled>TRUE</enabled>
										<duration>120</duration>
										<rate>
											<timebase>30</timebase>
											<ntsc>TRUE</ntsc>
										</rate>
										<start>3490</start>
										<end>3610</end>
										<in>0</in>
										<out>120</out>
										<pproTicksIn>0</pproTicksIn>
										<pproTicksOut>1017080064000</pproTicksOut>
										<file id="file-8"/>
										<sourcetrack>
											<mediatype>audio</mediatype>
											<trackindex>1</trackindex>
										</sourcetrack>
										<link>
											<linkclipref>clipitem-266</linkclipref>
											<mediatype>video</mediatype>
											<trackindex>4</trackindex>
											<clipindex>1</clipindex>
										</link>
										<link>
											<linkclipref>clipitem-268</linkclipref>
											<mediatype>audio</mediatype>
											<trackindex>1</trackindex>
											<clipindex>1</clipindex>
											<groupindex>1</groupindex>
										</link>
										<link>
											<linkclipref>clipitem-270</linkclipref>
											<mediatype>audio</mediatype>
											<trackindex>2</trackindex>
											<clipindex>1</clipindex>
											<groupindex>1</groupindex>
										</link>
										<logginginfo>
											<description></description>
											<scene></scene>
											<shottake></shottake>
											<lognote></lognote>
											<good></good>
											<originalvideofilename></originalvideofilename>
											<originalaudiofilename></originalaudiofilename>
										</logginginfo>
										<colorinfo>
											<lut></lut>
											<lut1></lut1>
											<asc_sop></asc_sop>
											<asc_sat></asc_sat>
											<lut2></lut2>
										</colorinfo>
										<labels>
											<label2>Iris</label2>
										</labels>
									</clipitem>
									<clipitem id="clipitem-269" premiereChannelType="stereo">
										<masterclipid>masterclip-11</masterclipid>
										<name>CRAFTY_TRAN02_JL_V01.mov</name>
										<enabled>TRUE</enabled>
										<duration>120</duration>
										<rate>
											<timebase>30</timebase>
											<ntsc>TRUE</ntsc>
										</rate>
										<start>5465</start>
										<end>5585</end>
										<in>0</in>
										<out>120</out>
										<pproTicksIn>0</pproTicksIn>
										<pproTicksOut>1017080064000</pproTicksOut>
										<file id="file-9"/>
										<sourcetrack>
											<mediatype>audio</mediatype>
											<trackindex>1</trackindex>
										</sourcetrack>
										<link>
											<linkclipref>clipitem-267</linkclipref>
											<mediatype>video</mediatype>
											<trackindex>4</trackindex>
											<clipindex>2</clipindex>
										</link>
										<link>
											<linkclipref>clipitem-269</linkclipref>
											<mediatype>audio</mediatype>
											<trackindex>1</trackindex>
											<clipindex>2</clipindex>
											<groupindex>1</groupindex>
										</link>
										<link>
											<linkclipref>clipitem-271</linkclipref>
											<mediatype>audio</mediatype>
											<trackindex>2</trackindex>
											<clipindex>2</clipindex>
											<groupindex>1</groupindex>
										</link>
										<logginginfo>
											<description></description>
											<scene></scene>
											<shottake></shottake>
											<lognote></lognote>
											<good></good>
											<originalvideofilename></originalvideofilename>
											<originalaudiofilename></originalaudiofilename>
										</logginginfo>
										<colorinfo>
											<lut></lut>
											<lut1></lut1>
											<asc_sop></asc_sop>
											<asc_sat></asc_sat>
											<lut2></lut2>
										</colorinfo>
										<labels>
											<label2>Iris</label2>
										</labels>
									</clipitem>
									<enabled>TRUE</enabled>
									<locked>FALSE</locked>
									<outputchannelindex>1</outputchannelindex>
								</track>
								<track TL.SQTrackAudioKeyframeStyle="0" TL.SQTrackShy="0" TL.SQTrackExpandedHeight="69" TL.SQTrackExpanded="0" MZ.TrackTargeted="1" PannerCurrentValue="0.5" PannerIsInverted="true" PannerStartKeyframe="-91445760000000000,0.5,0,0,0,0,0,0" PannerName="Balance" currentExplodedTrackIndex="1" totalExplodedTrackCount="2" premiereTrackType="Stereo">
									<clipitem id="clipitem-270" premiereChannelType="stereo">
										<masterclipid>masterclip-10</masterclipid>
										<name>CRAFTY_TRAN01_JL_V01.mov</name>
										<enabled>TRUE</enabled>
										<duration>120</duration>
										<rate>
											<timebase>30</timebase>
											<ntsc>TRUE</ntsc>
										</rate>
										<start>3490</start>
										<end>3610</end>
										<in>0</in>
										<out>120</out>
										<pproTicksIn>0</pproTicksIn>
										<pproTicksOut>1017080064000</pproTicksOut>
										<file id="file-8"/>
										<sourcetrack>
											<mediatype>audio</mediatype>
											<trackindex>2</trackindex>
										</sourcetrack>
										<link>
											<linkclipref>clipitem-266</linkclipref>
											<mediatype>video</mediatype>
											<trackindex>4</trackindex>
											<clipindex>1</clipindex>
										</link>
										<link>
											<linkclipref>clipitem-268</linkclipref>
											<mediatype>audio</mediatype>
											<trackindex>1</trackindex>
											<clipindex>1</clipindex>
											<groupindex>1</groupindex>
										</link>
										<link>
											<linkclipref>clipitem-270</linkclipref>
											<mediatype>audio</mediatype>
											<trackindex>2</trackindex>
											<clipindex>1</clipindex>
											<groupindex>1</groupindex>
										</link>
										<logginginfo>
											<description></description>
											<scene></scene>
											<shottake></shottake>
											<lognote></lognote>
											<good></good>
											<originalvideofilename></originalvideofilename>
											<originalaudiofilename></originalaudiofilename>
										</logginginfo>
										<colorinfo>
											<lut></lut>
											<lut1></lut1>
											<asc_sop></asc_sop>
											<asc_sat></asc_sat>
											<lut2></lut2>
										</colorinfo>
										<labels>
											<label2>Iris</label2>
										</labels>
									</clipitem>
									<clipitem id="clipitem-271" premiereChannelType="stereo">
										<masterclipid>masterclip-11</masterclipid>
										<name>CRAFTY_TRAN02_JL_V01.mov</name>
										<enabled>TRUE</enabled>
										<duration>120</duration>
										<rate>
											<timebase>30</timebase>
											<ntsc>TRUE</ntsc>
										</rate>
										<start>5465</start>
										<end>5585</end>
										<in>0</in>
										<out>120</out>
										<pproTicksIn>0</pproTicksIn>
										<pproTicksOut>1017080064000</pproTicksOut>
										<file id="file-9"/>
										<sourcetrack>
											<mediatype>audio</mediatype>
											<trackindex>2</trackindex>
										</sourcetrack>
										<link>
											<linkclipref>clipitem-267</linkclipref>
											<mediatype>video</mediatype>
											<trackindex>4</trackindex>
											<clipindex>2</clipindex>
										</link>
										<link>
											<linkclipref>clipitem-269</linkclipref>
											<mediatype>audio</mediatype>
											<trackindex>1</trackindex>
											<clipindex>2</clipindex>
											<groupindex>1</groupindex>
										</link>
										<link>
											<linkclipref>clipitem-271</linkclipref>
											<mediatype>audio</mediatype>
											<trackindex>2</trackindex>
											<clipindex>2</clipindex>
											<groupindex>1</groupindex>
										</link>
										<logginginfo>
											<description></description>
											<scene></scene>
											<shottake></shottake>
											<lognote></lognote>
											<good></good>
											<originalvideofilename></originalvideofilename>
											<originalaudiofilename></originalaudiofilename>
										</logginginfo>
										<colorinfo>
											<lut></lut>
											<lut1></lut1>
											<asc_sop></asc_sop>
											<asc_sat></asc_sat>
											<lut2></lut2>
										</colorinfo>
										<labels>
											<label2>Iris</label2>
										</labels>
									</clipitem>
									<enabled>TRUE</enabled>
									<locked>FALSE</locked>
									<outputchannelindex>2</outputchannelindex>
								</track>
								<track TL.SQTrackAudioKeyframeStyle="0" TL.SQTrackShy="0" TL.SQTrackExpandedHeight="69" TL.SQTrackExpanded="0" MZ.TrackTargeted="1" PannerCurrentValue="0.5" PannerIsInverted="true" PannerStartKeyframe="-91445760000000000,0.5,0,0,0,0,0,0" PannerName="Balance" currentExplodedTrackIndex="0" totalExplodedTrackCount="2" premiereTrackType="Stereo">
									<clipitem id="clipitem-272" premiereChannelType="stereo">
										<masterclipid>masterclip-86</masterclipid>
										<name>ES_Smokes Creek - Gregory David.wav</name>
										<enabled>TRUE</enabled>
										<duration>4731</duration>
										<rate>
											<timebase>30</timebase>
											<ntsc>TRUE</ntsc>
										</rate>
										<start>0</start>
										<end>-1</end>
										<in>0</in>
										<out>3490</out>
										<pproTicksIn>0</pproTicksIn>
										<pproTicksOut>29580078528000</pproTicksOut>
										<file id="file-70">
											<name>ES_Smokes Creek - Gregory David.wav</name>
											<pathurl>file://localhost/Volumes/CONTENT/VOD%20CONTENT%20ARCHIVE/O&amp;O%20Archive%202023/CRAFTY/03_March/Crafty_3-20-2023/5_Music/ES_Smokes%20Creek%20-%20Gregory%20David.wav</pathurl>
											<rate>
												<timebase>30</timebase>
												<ntsc>TRUE</ntsc>
											</rate>
											<duration>4731</duration>
											<timecode>
												<rate>
													<timebase>30</timebase>
													<ntsc>TRUE</ntsc>
												</rate>
												<string>03;41;33;29</string>
												<frame>398421</frame>
												<displayformat>DF</displayformat>
											</timecode>
											<media>
												<audio>
													<samplecharacteristics>
														<depth>16</depth>
														<samplerate>48000</samplerate>
													</samplecharacteristics>
													<channelcount>2</channelcount>
												</audio>
											</media>
										</file>
										<sourcetrack>
											<mediatype>audio</mediatype>
											<trackindex>1</trackindex>
										</sourcetrack>
										<filter>
											<effect>
												<name>Gain</name>
												<effectid>{61756678, 4761696e, 4b657947}</effectid>
												<effecttype>filter</effecttype>
												<mediatype>audio</mediatype>
												<parameter authoringApp="PremierePro">
													<parameterid>Gain(dB)</parameterid>
													<name>Gain(dB)</name>
													<valuemin>-96</valuemin>
													<valuemax>96</valuemax>
													<value>-6</value>
												</parameter>
											</effect>
										</filter>
										<link>
											<linkclipref>clipitem-272</linkclipref>
											<mediatype>audio</mediatype>
											<trackindex>3</trackindex>
											<clipindex>1</clipindex>
											<groupindex>1</groupindex>
										</link>
										<link>
											<linkclipref>clipitem-274</linkclipref>
											<mediatype>audio</mediatype>
											<trackindex>4</trackindex>
											<clipindex>1</clipindex>
											<groupindex>1</groupindex>
										</link>
										<logginginfo>
											<description></description>
											<scene></scene>
											<shottake></shottake>
											<lognote></lognote>
											<good></good>
											<originalvideofilename></originalvideofilename>
											<originalaudiofilename></originalaudiofilename>
										</logginginfo>
										<colorinfo>
											<lut></lut>
											<lut1></lut1>
											<asc_sop></asc_sop>
											<asc_sat></asc_sat>
											<lut2></lut2>
										</colorinfo>
										<labels>
											<label2>Caribbean</label2>
										</labels>
									</clipitem>
									<transitionitem>
										<start>3370</start>
										<end>3490</end>
										<pproTicksIn>28562996347200</pproTicksIn>
										<pproTicksOut>29580078528000</pproTicksOut>
										<alignment>end-black</alignment>
										<cutPointTicks>1017082180800</cutPointTicks>
										<rate>
											<timebase>30</timebase>
											<ntsc>TRUE</ntsc>
										</rate>
										<effect>
											<name>Cross Fade (+3dB)</name>
											<effectid>KGAudioTransCrossFade3dB</effectid>
											<effecttype>transition</effecttype>
											<mediatype>audio</mediatype>
											<wipecode>0</wipecode>
											<wipeaccuracy>100</wipeaccuracy>
											<startratio>0</startratio>
											<endratio>1</endratio>
											<reverse>FALSE</reverse>
										</effect>
									</transitionitem>
									<clipitem id="clipitem-273" premiereChannelType="stereo">
										<masterclipid>masterclip-87</masterclipid>
										<name>ES_Snuggles - Timothy Infinite.wav</name>
										<enabled>TRUE</enabled>
										<duration>3479</duration>
										<rate>
											<timebase>30</timebase>
											<ntsc>TRUE</ntsc>
										</rate>
										<start>3610</start>
										<end>-1</end>
										<in>0</in>
										<out>1855</out>
										<pproTicksIn>0</pproTicksIn>
										<pproTicksOut>15722362656000</pproTicksOut>
										<file id="file-71">
											<name>ES_Snuggles - Timothy Infinite.wav</name>
											<pathurl>file://localhost/Volumes/CONTENT/VOD%20CONTENT%20ARCHIVE/O&amp;O%20Archive%202023/CRAFTY/03_March/Crafty_3-20-2023/5_Music/ES_Snuggles%20-%20Timothy%20Infinite.wav</pathurl>
											<rate>
												<timebase>30</timebase>
												<ntsc>TRUE</ntsc>
											</rate>
											<duration>3479</duration>
											<timecode>
												<rate>
													<timebase>30</timebase>
													<ntsc>TRUE</ntsc>
												</rate>
												<string>09;17;02;02</string>
												<frame>1001658</frame>
												<displayformat>DF</displayformat>
											</timecode>
											<media>
												<audio>
													<samplecharacteristics>
														<depth>16</depth>
														<samplerate>48000</samplerate>
													</samplecharacteristics>
													<channelcount>2</channelcount>
												</audio>
											</media>
										</file>
										<sourcetrack>
											<mediatype>audio</mediatype>
											<trackindex>1</trackindex>
										</sourcetrack>
										<filter>
											<effect>
												<name>Gain</name>
												<effectid>{61756678, 4761696e, 4b657947}</effectid>
												<effecttype>filter</effecttype>
												<mediatype>audio</mediatype>
												<parameter authoringApp="PremierePro">
													<parameterid>Gain(dB)</parameterid>
													<name>Gain(dB)</name>
													<valuemin>-96</valuemin>
													<valuemax>96</valuemax>
													<value>-6</value>
												</parameter>
											</effect>
										</filter>
										<filter>
											<effect>
												<name>Audio Levels</name>
												<effectid>audiolevels</effectid>
												<effectcategory>audiolevels</effectcategory>
												<effecttype>audiolevels</effecttype>
												<mediatype>audio</mediatype>
												<pproBypass>false</pproBypass>
												<parameter authoringApp="PremierePro">
													<parameterid>level</parameterid>
													<name>Level</name>
													<valuemin>0</valuemin>
													<valuemax>3.98109</valuemax>
													<value>2.69212</value>
													<keyframe>
														<when>73</when>
														<value>2.69212</value>
													</keyframe>
													<keyframe>
														<when>98</when>
														<value>1</value>
													</keyframe>
												</parameter>
											</effect>
										</filter>
										<link>
											<linkclipref>clipitem-273</linkclipref>
											<mediatype>audio</mediatype>
											<trackindex>3</trackindex>
											<clipindex>3</clipindex>
											<groupindex>1</groupindex>
										</link>
										<link>
											<linkclipref>clipitem-275</linkclipref>
											<mediatype>audio</mediatype>
											<trackindex>4</trackindex>
											<clipindex>3</clipindex>
											<groupindex>1</groupindex>
										</link>
										<logginginfo>
											<description></description>
											<scene></scene>
											<shottake></shottake>
											<lognote></lognote>
											<good></good>
											<originalvideofilename></originalvideofilename>
											<originalaudiofilename></originalaudiofilename>
										</logginginfo>
										<colorinfo>
											<lut></lut>
											<lut1></lut1>
											<asc_sop></asc_sop>
											<asc_sat></asc_sat>
											<lut2></lut2>
										</colorinfo>
										<labels>
											<label2>Caribbean</label2>
										</labels>
									</clipitem>
									<transitionitem>
										<start>5345</start>
										<end>5465</end>
										<pproTicksIn>45302441184000</pproTicksIn>
										<pproTicksOut>46319521248000</pproTicksOut>
										<alignment>end-black</alignment>
										<cutPointTicks>1017080064000</cutPointTicks>
										<rate>
											<timebase>30</timebase>
											<ntsc>TRUE</ntsc>
										</rate>
										<effect>
											<name>Cross Fade (+3dB)</name>
											<effectid>KGAudioTransCrossFade3dB</effectid>
											<effecttype>transition</effecttype>
											<mediatype>audio</mediatype>
											<wipecode>0</wipecode>
											<wipeaccuracy>100</wipeaccuracy>
											<startratio>0</startratio>
											<endratio>1</endratio>
											<reverse>FALSE</reverse>
										</effect>
									</transitionitem>
									<enabled>TRUE</enabled>
									<locked>FALSE</locked>
									<outputchannelindex>1</outputchannelindex>
								</track>
								<track TL.SQTrackAudioKeyframeStyle="0" TL.SQTrackShy="0" TL.SQTrackExpandedHeight="69" TL.SQTrackExpanded="0" MZ.TrackTargeted="1" PannerCurrentValue="0.5" PannerIsInverted="true" PannerStartKeyframe="-91445760000000000,0.5,0,0,0,0,0,0" PannerName="Balance" currentExplodedTrackIndex="1" totalExplodedTrackCount="2" premiereTrackType="Stereo">
									<clipitem id="clipitem-274" premiereChannelType="stereo">
										<masterclipid>masterclip-86</masterclipid>
										<name>ES_Smokes Creek - Gregory David.wav</name>
										<enabled>TRUE</enabled>
										<duration>4731</duration>
										<rate>
											<timebase>30</timebase>
											<ntsc>TRUE</ntsc>
										</rate>
										<start>0</start>
										<end>-1</end>
										<in>0</in>
										<out>3490</out>
										<pproTicksIn>0</pproTicksIn>
										<pproTicksOut>29580078528000</pproTicksOut>
										<file id="file-70"/>
										<sourcetrack>
											<mediatype>audio</mediatype>
											<trackindex>2</trackindex>
										</sourcetrack>
										<filter>
											<effect>
												<name>Gain</name>
												<effectid>{61756678, 4761696e, 4b657947}</effectid>
												<effecttype>filter</effecttype>
												<mediatype>audio</mediatype>
												<parameter authoringApp="PremierePro">
													<parameterid>Gain(dB)</parameterid>
													<name>Gain(dB)</name>
													<valuemin>-96</valuemin>
													<valuemax>96</valuemax>
													<value>-6</value>
												</parameter>
											</effect>
										</filter>
										<link>
											<linkclipref>clipitem-272</linkclipref>
											<mediatype>audio</mediatype>
											<trackindex>3</trackindex>
											<clipindex>1</clipindex>
											<groupindex>1</groupindex>
										</link>
										<link>
											<linkclipref>clipitem-274</linkclipref>
											<mediatype>audio</mediatype>
											<trackindex>4</trackindex>
											<clipindex>1</clipindex>
											<groupindex>1</groupindex>
										</link>
										<logginginfo>
											<description></description>
											<scene></scene>
											<shottake></shottake>
											<lognote></lognote>
											<good></good>
											<originalvideofilename></originalvideofilename>
											<originalaudiofilename></originalaudiofilename>
										</logginginfo>
										<colorinfo>
											<lut></lut>
											<lut1></lut1>
											<asc_sop></asc_sop>
											<asc_sat></asc_sat>
											<lut2></lut2>
										</colorinfo>
										<labels>
											<label2>Caribbean</label2>
										</labels>
									</clipitem>
									<transitionitem>
										<start>3370</start>
										<end>3490</end>
										<pproTicksIn>28562996347200</pproTicksIn>
										<pproTicksOut>29580078528000</pproTicksOut>
										<alignment>end-black</alignment>
										<cutPointTicks>1017082180800</cutPointTicks>
										<rate>
											<timebase>30</timebase>
											<ntsc>TRUE</ntsc>
										</rate>
										<effect>
											<name>Cross Fade (+3dB)</name>
											<effectid>KGAudioTransCrossFade3dB</effectid>
											<effecttype>transition</effecttype>
											<mediatype>audio</mediatype>
											<wipecode>0</wipecode>
											<wipeaccuracy>100</wipeaccuracy>
											<startratio>0</startratio>
											<endratio>1</endratio>
											<reverse>FALSE</reverse>
										</effect>
									</transitionitem>
									<clipitem id="clipitem-275" premiereChannelType="stereo">
										<masterclipid>masterclip-87</masterclipid>
										<name>ES_Snuggles - Timothy Infinite.wav</name>
										<enabled>TRUE</enabled>
										<duration>3479</duration>
										<rate>
											<timebase>30</timebase>
											<ntsc>TRUE</ntsc>
										</rate>
										<start>3610</start>
										<end>-1</end>
										<in>0</in>
										<out>1855</out>
										<pproTicksIn>0</pproTicksIn>
										<pproTicksOut>15722362656000</pproTicksOut>
										<file id="file-71"/>
										<sourcetrack>
											<mediatype>audio</mediatype>
											<trackindex>2</trackindex>
										</sourcetrack>
										<filter>
											<effect>
												<name>Gain</name>
												<effectid>{61756678, 4761696e, 4b657947}</effectid>
												<effecttype>filter</effecttype>
												<mediatype>audio</mediatype>
												<parameter authoringApp="PremierePro">
													<parameterid>Gain(dB)</parameterid>
													<name>Gain(dB)</name>
													<valuemin>-96</valuemin>
													<valuemax>96</valuemax>
													<value>-6</value>
												</parameter>
											</effect>
										</filter>
										<filter>
											<effect>
												<name>Audio Levels</name>
												<effectid>audiolevels</effectid>
												<effectcategory>audiolevels</effectcategory>
												<effecttype>audiolevels</effecttype>
												<mediatype>audio</mediatype>
												<pproBypass>false</pproBypass>
												<parameter authoringApp="PremierePro">
													<parameterid>level</parameterid>
													<name>Level</name>
													<valuemin>0</valuemin>
													<valuemax>3.98109</valuemax>
													<value>2.69212</value>
													<keyframe>
														<when>73</when>
														<value>2.69212</value>
													</keyframe>
													<keyframe>
														<when>98</when>
														<value>1</value>
													</keyframe>
												</parameter>
											</effect>
										</filter>
										<link>
											<linkclipref>clipitem-273</linkclipref>
											<mediatype>audio</mediatype>
											<trackindex>3</trackindex>
											<clipindex>3</clipindex>
											<groupindex>1</groupindex>
										</link>
										<link>
											<linkclipref>clipitem-275</linkclipref>
											<mediatype>audio</mediatype>
											<trackindex>4</trackindex>
											<clipindex>3</clipindex>
											<groupindex>1</groupindex>
										</link>
										<logginginfo>
											<description></description>
											<scene></scene>
											<shottake></shottake>
											<lognote></lognote>
											<good></good>
											<originalvideofilename></originalvideofilename>
											<originalaudiofilename></originalaudiofilename>
										</logginginfo>
										<colorinfo>
											<lut></lut>
											<lut1></lut1>
											<asc_sop></asc_sop>
											<asc_sat></asc_sat>
											<lut2></lut2>
										</colorinfo>
										<labels>
											<label2>Caribbean</label2>
										</labels>
									</clipitem>
									<transitionitem>
										<start>5345</start>
										<end>5465</end>
										<pproTicksIn>45302441184000</pproTicksIn>
										<pproTicksOut>46319521248000</pproTicksOut>
										<alignment>end-black</alignment>
										<cutPointTicks>1017080064000</cutPointTicks>
										<rate>
											<timebase>30</timebase>
											<ntsc>TRUE</ntsc>
										</rate>
										<effect>
											<name>Cross Fade (+3dB)</name>
											<effectid>KGAudioTransCrossFade3dB</effectid>
											<effecttype>transition</effecttype>
											<mediatype>audio</mediatype>
											<wipecode>0</wipecode>
											<wipeaccuracy>100</wipeaccuracy>
											<startratio>0</startratio>
											<endratio>1</endratio>
											<reverse>FALSE</reverse>
										</effect>
									</transitionitem>
									<enabled>TRUE</enabled>
									<locked>FALSE</locked>
									<outputchannelindex>2</outputchannelindex>
								</track>
								<track TL.SQTrackAudioKeyframeStyle="0" TL.SQTrackShy="0" TL.SQTrackExpandedHeight="69" TL.SQTrackExpanded="0" MZ.TrackTargeted="1" PannerCurrentValue="0.5" PannerIsInverted="true" PannerStartKeyframe="-91445760000000000,0.5,0,0,0,0,0,0" PannerName="Balance" currentExplodedTrackIndex="0" totalExplodedTrackCount="2" premiereTrackType="Stereo">
									<enabled>TRUE</enabled>
									<locked>FALSE</locked>
									<outputchannelindex>1</outputchannelindex>
								</track>
								<track TL.SQTrackAudioKeyframeStyle="0" TL.SQTrackShy="0" TL.SQTrackExpandedHeight="69" TL.SQTrackExpanded="0" MZ.TrackTargeted="1" PannerCurrentValue="0.5" PannerIsInverted="true" PannerStartKeyframe="-91445760000000000,0.5,0,0,0,0,0,0" PannerName="Balance" currentExplodedTrackIndex="1" totalExplodedTrackCount="2" premiereTrackType="Stereo">
									<enabled>TRUE</enabled>
									<locked>FALSE</locked>
									<outputchannelindex>2</outputchannelindex>
								</track>
								<track TL.SQTrackAudioKeyframeStyle="0" TL.SQTrackShy="0" TL.SQTrackExpandedHeight="69" TL.SQTrackExpanded="0" MZ.TrackTargeted="0" PannerCurrentValue="0.5" PannerIsInverted="true" PannerStartKeyframe="-91445760000000000,0.5,0,0,0,0,0,0" PannerName="Balance" currentExplodedTrackIndex="0" totalExplodedTrackCount="2" premiereTrackType="Stereo">
									<enabled>TRUE</enabled>
									<locked>FALSE</locked>
									<outputchannelindex>1</outputchannelindex>
								</track>
								<track TL.SQTrackAudioKeyframeStyle="0" TL.SQTrackShy="0" TL.SQTrackExpandedHeight="69" TL.SQTrackExpanded="0" MZ.TrackTargeted="0" PannerCurrentValue="0.5" PannerIsInverted="true" PannerStartKeyframe="-91445760000000000,0.5,0,0,0,0,0,0" PannerName="Balance" currentExplodedTrackIndex="1" totalExplodedTrackCount="2" premiereTrackType="Stereo">
									<enabled>TRUE</enabled>
									<locked>FALSE</locked>
									<outputchannelindex>2</outputchannelindex>
								</track>
							</audio>
						</media>
						<timecode>
							<rate>
								<timebase>30</timebase>
								<ntsc>TRUE</ntsc>
							</rate>
							<string>00;00;00;00</string>
							<frame>0</frame>
							<displayformat>DF</displayformat>
						</timecode>
						<labels>
							<label2>Forest</label2>
						</labels>
						<logginginfo>
							<description></description>
							<scene></scene>
							<shottake></shottake>
							<lognote></lognote>
							<good></good>
							<originalvideofilename></originalvideofilename>
							<originalaudiofilename></originalaudiofilename>
						</logginginfo>
					</sequence>
					<sequence id="sequence-25" TL.SQAudioVisibleBase="0" TL.SQVideoVisibleBase="0" TL.SQVisibleBaseTime="0" TL.SQAVDividerPosition="0.5" TL.SQHideShyTracks="0" TL.SQHeaderWidth="236" TL.SQDataTrackViewControlState="0" Monitor.ProgramZoomOut="43742918419200" Monitor.ProgramZoomIn="0" TL.SQTimePerPixel="0.2603283503411396" MZ.EditLine="31148076960000" MZ.Sequence.PreviewFrameSizeHeight="1080" MZ.Sequence.PreviewFrameSizeWidth="1920" MZ.Sequence.AudioTimeDisplayFormat="200" MZ.Sequence.PreviewRenderingClassID="1061109567" MZ.Sequence.PreviewRenderingPresetCodec="1634755443" MZ.Sequence.PreviewRenderingPresetPath="EncoderPresets/SequencePreview/35d109db-457b-43c1-9452-9cb7be9f121c/QuickTime.epr" MZ.Sequence.PreviewUseMaxRenderQuality="false" MZ.Sequence.PreviewUseMaxBitDepth="false" MZ.Sequence.EditingModeGUID="35d109db-457b-43c1-9452-9cb7be9f121c" MZ.Sequence.VideoTimeDisplayFormat="102" MZ.WorkOutPoint="15239249625600" MZ.WorkInPoint="0" explodedTracks="true">
						<uuid>86421aa2-6182-4f39-824d-9cf1fcd13176</uuid>
						<duration>5161</duration>
						<rate>
							<timebase>30</timebase>
							<ntsc>TRUE</ntsc>
						</rate>
						<name>ATM_CRAFTY_189</name>
						<media>
							<video>
								<format>
									<samplecharacteristics>
										<rate>
											<timebase>30</timebase>
											<ntsc>TRUE</ntsc>
										</rate>
										<codec>
											<name>Apple ProRes 422</name>
											<appspecificdata>
												<appname>Final Cut Pro</appname>
												<appmanufacturer>Apple Inc.</appmanufacturer>
												<appversion>7.0</appversion>
												<data>
													<qtcodec>
														<codecname>Apple ProRes 422</codecname>
														<codectypename>Apple ProRes 422</codectypename>
														<codectypecode>apcn</codectypecode>
														<codecvendorcode>appl</codecvendorcode>
														<spatialquality>1024</spatialquality>
														<temporalquality>0</temporalquality>
														<keyframerate>0</keyframerate>
														<datarate>0</datarate>
													</qtcodec>
												</data>
											</appspecificdata>
										</codec>
										<width>1920</width>
										<height>1080</height>
										<anamorphic>FALSE</anamorphic>
										<pixelaspectratio>square</pixelaspectratio>
										<fielddominance>none</fielddominance>
										<colordepth>24</colordepth>
									</samplecharacteristics>
								</format>
								<track TL.SQTrackShy="0" TL.SQTrackExpandedHeight="25" TL.SQTrackExpanded="0" MZ.TrackTargeted="1">
									<clipitem id="clipitem-276">
										<masterclipid>masterclip-88</masterclipid>
										<name>ART_THROWITINTHEMIX_2</name>
										<enabled>TRUE</enabled>
										<duration>3632</duration>
										<rate>
											<timebase>30</timebase>
											<ntsc>TRUE</ntsc>
										</rate>
										<start>0</start>
										<end>3632</end>
										<in>0</in>
										<out>3632</out>
										<pproTicksIn>0</pproTicksIn>
										<pproTicksOut>30783623270400</pproTicksOut>
										<sequence id="sequence-26" TL.SQAudioVisibleBase="0" TL.SQVideoVisibleBase="0" TL.SQVisibleBaseTime="0" TL.SQAVDividerPosition="0.5" TL.SQHideShyTracks="0" TL.SQHeaderWidth="236" Monitor.ProgramZoomOut="30783623270400" Monitor.ProgramZoomIn="0" TL.SQTimePerPixel="0.15688243567670246" MZ.EditLine="0" MZ.Sequence.PreviewFrameSizeHeight="1080" MZ.Sequence.PreviewFrameSizeWidth="1920" MZ.Sequence.AudioTimeDisplayFormat="200" MZ.Sequence.PreviewRenderingClassID="1061109567" MZ.Sequence.PreviewRenderingPresetCodec="1634755443" MZ.Sequence.PreviewRenderingPresetPath="EncoderPresets/SequencePreview/35d109db-457b-43c1-9452-9cb7be9f121c/QuickTime.epr" MZ.Sequence.PreviewUseMaxRenderQuality="false" MZ.Sequence.PreviewUseMaxBitDepth="false" MZ.Sequence.EditingModeGUID="35d109db-457b-43c1-9452-9cb7be9f121c" MZ.Sequence.VideoTimeDisplayFormat="102" MZ.WorkOutPoint="30783623270400" MZ.WorkInPoint="0">
											<duration>3632</duration>
											<rate>
												<timebase>30</timebase>
												<ntsc>TRUE</ntsc>
											</rate>
											<name>ART_THROWITINTHEMIX_2</name>
											<media>
												<video>
													<format>
														<samplecharacteristics>
															<rate>
																<timebase>30</timebase>
																<ntsc>TRUE</ntsc>
															</rate>
															<codec>
																<name>Apple ProRes 422</name>
																<appspecificdata>
																	<appname>Final Cut Pro</appname>
																	<appmanufacturer>Apple Inc.</appmanufacturer>
																	<appversion>7.0</appversion>
																	<data>
																		<qtcodec>
																			<codecname>Apple ProRes 422</codecname>
																			<codectypename>Apple ProRes 422</codectypename>
																			<codectypecode>apcn</codectypecode>
																			<codecvendorcode>appl</codecvendorcode>
																			<spatialquality>1024</spatialquality>
																			<temporalquality>0</temporalquality>
																			<keyframerate>0</keyframerate>
																			<datarate>0</datarate>
																		</qtcodec>
																	</data>
																</appspecificdata>
															</codec>
															<width>1920</width>
															<height>1080</height>
															<anamorphic>FALSE</anamorphic>
															<pixelaspectratio>square</pixelaspectratio>
															<fielddominance>none</fielddominance>
															<colordepth>24</colordepth>
														</samplecharacteristics>
													</format>
													<track TL.SQTrackShy="0" TL.SQTrackExpandedHeight="25" TL.SQTrackExpanded="0" MZ.TrackTargeted="1">
														<clipitem id="clipitem-277">
															<masterclipid>masterclip-89</masterclipid>
															<name>(Labedzki-Art)_FROZEN PAINT MIXING_ A GALAXY FAR AWAY_R36mkq7apCI_YT.mp4</name>
															<enabled>TRUE</enabled>
															<duration>4210</duration>
															<rate>
																<timebase>30</timebase>
																<ntsc>TRUE</ntsc>
															</rate>
															<start>0</start>
															<end>1043</end>
															<in>282</in>
															<out>1325</out>
															<pproTicksIn>2390138150400</pproTicksIn>
															<pproTicksOut>11230259040000</pproTicksOut>
															<alphatype>none</alphatype>
															<pixelaspectratio>square</pixelaspectratio>
															<anamorphic>FALSE</anamorphic>
															<file id="file-72">
																<name>(Labedzki-Art)_FROZEN PAINT MIXING_ A GALAXY FAR AWAY_R36mkq7apCI_YT.mp4</name>
																<pathurl>file://localhost/Volumes/CONTENT/VOD%20CONTENT%20ARCHIVE/O&amp;O%20Archive%202023/CRAFTY/03_March/Crafty_3-20-2023/3_Raw%20Files/paint%20mixing/(Labedzki-Art)_FROZEN%20PAINT%20MIXING_%20A%20GALAXY%20FAR%20AWAY_R36mkq7apCI_YT.mp4</pathurl>
																<rate>
																	<timebase>30</timebase>
																	<ntsc>FALSE</ntsc>
																</rate>
																<duration>4215</duration>
																<timecode>
																	<rate>
																		<timebase>30</timebase>
																		<ntsc>FALSE</ntsc>
																	</rate>
																	<string>00:00:00:00</string>
																	<frame>0</frame>
																	<displayformat>NDF</displayformat>
																</timecode>
																<media>
																	<video>
																		<samplecharacteristics>
																			<rate>
																				<timebase>30</timebase>
																				<ntsc>FALSE</ntsc>
																			</rate>
																			<width>1920</width>
																			<height>1080</height>
																			<anamorphic>FALSE</anamorphic>
																			<pixelaspectratio>square</pixelaspectratio>
																			<fielddominance>none</fielddominance>
																		</samplecharacteristics>
																	</video>
																	<audio>
																		<samplecharacteristics>
																			<depth>16</depth>
																			<samplerate>44100</samplerate>
																		</samplecharacteristics>
																		<channelcount>2</channelcount>
																	</audio>
																</media>
															</file>
															<logginginfo>
																<description>FROZEN PAINT MIXING: A GALAXY FAR AWAY</description>
																<scene></scene>
																<shottake></shottake>
																<lognote>https://www.youtube.com/watch?v=R36mkq7apCI</lognote>
																<good></good>
																<originalvideofilename></originalvideofilename>
																<originalaudiofilename></originalaudiofilename>
															</logginginfo>
															<colorinfo>
																<lut></lut>
																<lut1></lut1>
																<asc_sop></asc_sop>
																<asc_sat></asc_sat>
																<lut2></lut2>
															</colorinfo>
															<labels>
																<label2>Iris</label2>
															</labels>
														</clipitem>
														<clipitem id="clipitem-278">
															<masterclipid>masterclip-89</masterclipid>
															<name>(Labedzki-Art)_FROZEN PAINT MIXING_ A GALAXY FAR AWAY_R36mkq7apCI_YT.mp4</name>
															<enabled>TRUE</enabled>
															<duration>4210</duration>
															<rate>
																<timebase>30</timebase>
																<ntsc>TRUE</ntsc>
															</rate>
															<start>1043</start>
															<end>1464</end>
															<in>1427</in>
															<out>1848</out>
															<pproTicksIn>12094777094400</pproTicksIn>
															<pproTicksOut>15663032985600</pproTicksOut>
															<alphatype>none</alphatype>
															<file id="file-72"/>
															<logginginfo>
																<description>FROZEN PAINT MIXING: A GALAXY FAR AWAY</description>
																<scene></scene>
																<shottake></shottake>
																<lognote>https://www.youtube.com/watch?v=R36mkq7apCI</lognote>
																<good></good>
																<originalvideofilename></originalvideofilename>
																<originalaudiofilename></originalaudiofilename>
															</logginginfo>
															<colorinfo>
																<lut></lut>
																<lut1></lut1>
																<asc_sop></asc_sop>
																<asc_sat></asc_sat>
																<lut2></lut2>
															</colorinfo>
															<labels>
																<label2>Iris</label2>
															</labels>
														</clipitem>
														<clipitem id="clipitem-279">
															<masterclipid>masterclip-89</masterclipid>
															<name>(Labedzki-Art)_FROZEN PAINT MIXING_ A GALAXY FAR AWAY_R36mkq7apCI_YT.mp4</name>
															<enabled>TRUE</enabled>
															<duration>4210</duration>
															<rate>
																<timebase>30</timebase>
																<ntsc>TRUE</ntsc>
															</rate>
															<start>1464</start>
															<end>2686</end>
															<in>1895</in>
															<out>3117</out>
															<pproTicksIn>16061389344000</pproTicksIn>
															<pproTicksOut>26418654662400</pproTicksOut>
															<alphatype>none</alphatype>
															<file id="file-72"/>
															<logginginfo>
																<description>FROZEN PAINT MIXING: A GALAXY FAR AWAY</description>
																<scene></scene>
																<shottake></shottake>
																<lognote>https://www.youtube.com/watch?v=R36mkq7apCI</lognote>
																<good></good>
																<originalvideofilename></originalvideofilename>
																<originalaudiofilename></originalaudiofilename>
															</logginginfo>
															<colorinfo>
																<lut></lut>
																<lut1></lut1>
																<asc_sop></asc_sop>
																<asc_sat></asc_sat>
																<lut2></lut2>
															</colorinfo>
															<labels>
																<label2>Iris</label2>
															</labels>
														</clipitem>
														<clipitem id="clipitem-280">
															<masterclipid>masterclip-89</masterclipid>
															<name>(Labedzki-Art)_FROZEN PAINT MIXING_ A GALAXY FAR AWAY_R36mkq7apCI_YT.mp4</name>
															<enabled>TRUE</enabled>
															<duration>4210</duration>
															<rate>
																<timebase>30</timebase>
																<ntsc>TRUE</ntsc>
															</rate>
															<start>2686</start>
															<end>3632</end>
															<in>3214</in>
															<out>4160</out>
															<pproTicksIn>27240794380800</pproTicksIn>
															<pproTicksOut>35258775552000</pproTicksOut>
															<alphatype>none</alphatype>
															<file id="file-72"/>
															<logginginfo>
																<description>FROZEN PAINT MIXING: A GALAXY FAR AWAY</description>
																<scene></scene>
																<shottake></shottake>
																<lognote>https://www.youtube.com/watch?v=R36mkq7apCI</lognote>
																<good></good>
																<originalvideofilename></originalvideofilename>
																<originalaudiofilename></originalaudiofilename>
															</logginginfo>
															<colorinfo>
																<lut></lut>
																<lut1></lut1>
																<asc_sop></asc_sop>
																<asc_sat></asc_sat>
																<lut2></lut2>
															</colorinfo>
															<labels>
																<label2>Iris</label2>
															</labels>
														</clipitem>
														<enabled>TRUE</enabled>
														<locked>FALSE</locked>
													</track>
													<track TL.SQTrackShy="0" TL.SQTrackExpandedHeight="25" TL.SQTrackExpanded="0" MZ.TrackTargeted="0">
														<clipitem id="clipitem-281">
															<masterclipid>masterclip-90</masterclipid>
															<name>LABEDZKI-ART</name>
															<enabled>TRUE</enabled>
															<duration>5844</duration>
															<rate>
																<timebase>30</timebase>
																<ntsc>TRUE</ntsc>
															</rate>
															<start>0</start>
															<end>3632</end>
															<in>0</in>
															<out>3632</out>
															<pproTicksIn>0</pproTicksIn>
															<pproTicksOut>30783623270400</pproTicksOut>
															<alphatype>straight</alphatype>
															<pixelaspectratio>square</pixelaspectratio>
															<anamorphic>FALSE</anamorphic>
															<file id="file-73">
																<name>1080/AE Attribution.aep</name>
																<pathurl>file://localhost/Volumes/ATM%20JR%202TB/Master%20Assets/AE%20Attribution.aep</pathurl>
																<rate>
																	<timebase>30</timebase>
																	<ntsc>TRUE</ntsc>
																</rate>
																<duration>5844</duration>
																<timecode>
																	<rate>
																		<timebase>30</timebase>
																		<ntsc>TRUE</ntsc>
																	</rate>
																	<string>00;00;00;00</string>
																	<frame>0</frame>
																	<displayformat>DF</displayformat>
																</timecode>
																<media>
																	<video>
																		<samplecharacteristics>
																			<rate>
																				<timebase>30</timebase>
																				<ntsc>TRUE</ntsc>
																			</rate>
																			<width>1920</width>
																			<height>1080</height>
																			<anamorphic>FALSE</anamorphic>
																			<pixelaspectratio>square</pixelaspectratio>
																			<fielddominance>lower</fielddominance>
																		</samplecharacteristics>
																	</video>
																</media>
															</file>
															<logginginfo>
																<description></description>
																<scene></scene>
																<shottake></shottake>
																<lognote></lognote>
																<good></good>
																<originalvideofilename></originalvideofilename>
																<originalaudiofilename></originalaudiofilename>
															</logginginfo>
															<colorinfo>
																<lut></lut>
																<lut1></lut1>
																<asc_sop></asc_sop>
																<asc_sat></asc_sat>
																<lut2></lut2>
															</colorinfo>
															<labels>
																<label2>Rose</label2>
															</labels>
														</clipitem>
														<enabled>TRUE</enabled>
														<locked>FALSE</locked>
													</track>
												</video>
												<audio>
													<numOutputChannels>2</numOutputChannels>
													<format>
														<samplecharacteristics>
															<depth>16</depth>
															<samplerate>48000</samplerate>
														</samplecharacteristics>
													</format>
													<outputs>
														<group>
															<index>1</index>
															<numchannels>1</numchannels>
															<downmix>0</downmix>
															<channel>
																<index>1</index>
															</channel>
														</group>
														<group>
															<index>2</index>
															<numchannels>1</numchannels>
															<downmix>0</downmix>
															<channel>
																<index>2</index>
															</channel>
														</group>
													</outputs>
													<track TL.SQTrackAudioKeyframeStyle="0" TL.SQTrackShy="0" TL.SQTrackExpandedHeight="25" TL.SQTrackExpanded="0" MZ.TrackTargeted="1" PannerCurrentValue="0.5" PannerIsInverted="true" PannerStartKeyframe="-91445760000000000,0.5,0,0,0,0,0,0" PannerName="Balance" currentExplodedTrackIndex="0" totalExplodedTrackCount="2" premiereTrackType="Stereo">
														<enabled>TRUE</enabled>
														<locked>FALSE</locked>
														<outputchannelindex>1</outputchannelindex>
													</track>
													<track TL.SQTrackAudioKeyframeStyle="0" TL.SQTrackShy="0" TL.SQTrackExpandedHeight="25" TL.SQTrackExpanded="0" MZ.TrackTargeted="1" PannerCurrentValue="0.5" PannerIsInverted="true" PannerStartKeyframe="-91445760000000000,0.5,0,0,0,0,0,0" PannerName="Balance" currentExplodedTrackIndex="1" totalExplodedTrackCount="2" premiereTrackType="Stereo">
														<enabled>TRUE</enabled>
														<locked>FALSE</locked>
														<outputchannelindex>2</outputchannelindex>
													</track>
												</audio>
											</media>
											<timecode>
												<rate>
													<timebase>30</timebase>
													<ntsc>TRUE</ntsc>
												</rate>
												<string>00;00;00;00</string>
												<frame>0</frame>
												<displayformat>DF</displayformat>
											</timecode>
											<logginginfo>
												<description></description>
												<scene></scene>
												<shottake></shottake>
												<lognote></lognote>
												<good></good>
												<originalvideofilename></originalvideofilename>
												<originalaudiofilename></originalaudiofilename>
											</logginginfo>
										</sequence>
										<labels>
											<label2>Forest</label2>
										</labels>
									</clipitem>
									<clipitem id="clipitem-282">
										<masterclipid>masterclip-91</masterclipid>
										<name>DIY_SIMPLEHOMEDECOR_1</name>
										<enabled>TRUE</enabled>
										<duration>1335</duration>
										<rate>
											<timebase>30</timebase>
											<ntsc>TRUE</ntsc>
										</rate>
										<start>3706</start>
										<end>5041</end>
										<in>0</in>
										<out>1335</out>
										<pproTicksIn>0</pproTicksIn>
										<pproTicksOut>11315015712000</pproTicksOut>
										<sequence id="sequence-27" TL.SQAudioVisibleBase="0" TL.SQVideoVisibleBase="0" TL.SQVisibleBaseTime="0" TL.SQAVDividerPosition="0.5" TL.SQHideShyTracks="0" TL.SQHeaderWidth="236" Monitor.ProgramZoomOut="11315015712000" Monitor.ProgramZoomIn="0" TL.SQTimePerPixel="0.14361547288839227" MZ.EditLine="10035189964800" MZ.Sequence.PreviewFrameSizeHeight="1080" MZ.Sequence.PreviewFrameSizeWidth="1920" MZ.Sequence.AudioTimeDisplayFormat="200" MZ.Sequence.PreviewRenderingClassID="1061109567" MZ.Sequence.PreviewRenderingPresetCodec="1634755443" MZ.Sequence.PreviewRenderingPresetPath="EncoderPresets/SequencePreview/35d109db-457b-43c1-9452-9cb7be9f121c/QuickTime.epr" MZ.Sequence.PreviewUseMaxRenderQuality="false" MZ.Sequence.PreviewUseMaxBitDepth="false" MZ.Sequence.EditingModeGUID="35d109db-457b-43c1-9452-9cb7be9f121c" MZ.Sequence.VideoTimeDisplayFormat="102" MZ.WorkOutPoint="11315015712000" MZ.WorkInPoint="0">
											<duration>1335</duration>
											<rate>
												<timebase>30</timebase>
												<ntsc>TRUE</ntsc>
											</rate>
											<name>DIY_SIMPLEHOMEDECOR_1</name>
											<media>
												<video>
													<format>
														<samplecharacteristics>
															<rate>
																<timebase>30</timebase>
																<ntsc>TRUE</ntsc>
															</rate>
															<codec>
																<name>Apple ProRes 422</name>
																<appspecificdata>
																	<appname>Final Cut Pro</appname>
																	<appmanufacturer>Apple Inc.</appmanufacturer>
																	<appversion>7.0</appversion>
																	<data>
																		<qtcodec>
																			<codecname>Apple ProRes 422</codecname>
																			<codectypename>Apple ProRes 422</codectypename>
																			<codectypecode>apcn</codectypecode>
																			<codecvendorcode>appl</codecvendorcode>
																			<spatialquality>1024</spatialquality>
																			<temporalquality>0</temporalquality>
																			<keyframerate>0</keyframerate>
																			<datarate>0</datarate>
																		</qtcodec>
																	</data>
																</appspecificdata>
															</codec>
															<width>1920</width>
															<height>1080</height>
															<anamorphic>FALSE</anamorphic>
															<pixelaspectratio>square</pixelaspectratio>
															<fielddominance>none</fielddominance>
															<colordepth>24</colordepth>
														</samplecharacteristics>
													</format>
													<track TL.SQTrackShy="0" TL.SQTrackExpandedHeight="25" TL.SQTrackExpanded="0" MZ.TrackTargeted="1">
														<clipitem id="clipitem-283">
															<masterclipid>masterclip-92</masterclipid>
															<name>(The Crafty Couple)_SO EASY!! DIY Home Decor For Only A Few DOLLARS! Dollar Store DIY 2022 😮_uAp_7NEO0zc_YT.mp4</name>
															<enabled>TRUE</enabled>
															<duration>32110</duration>
															<rate>
																<timebase>30</timebase>
																<ntsc>TRUE</ntsc>
															</rate>
															<start>0</start>
															<end>66</end>
															<in>7915</in>
															<out>7981</out>
															<pproTicksIn>67084905888000</pproTicksIn>
															<pproTicksOut>67644299923200</pproTicksOut>
															<alphatype>none</alphatype>
															<pixelaspectratio>square</pixelaspectratio>
															<anamorphic>FALSE</anamorphic>
															<file id="file-74">
																<name>(The Crafty Couple)_SO EASY!! DIY Home Decor For Only A Few DOLLARS! Dollar Store DIY 2022 😮_uAp_7NEO0zc_YT.mp4</name>
																<pathurl>file://localhost/Volumes/CONTENT/VOD%20CONTENT%20ARCHIVE/O&amp;O%20Archive%202023/CRAFTY/03_March/Crafty_3-20-2023/3_Raw%20Files/wood%20diy's/(The%20Crafty%20Couple)_SO%20EASY!!%20DIY%20Home%20Decor%20For%20Only%20A%20Few%20DOLLARS!%20Dollar%20Store%20DIY%202022%20%f0%9f%98%ae_uAp_7NEO0zc_YT.mp4</pathurl>
																<rate>
																	<timebase>60</timebase>
																	<ntsc>TRUE</ntsc>
																</rate>
																<duration>64220</duration>
																<timecode>
																	<rate>
																		<timebase>60</timebase>
																		<ntsc>TRUE</ntsc>
																	</rate>
																	<string>00:00:00:00</string>
																	<frame>0</frame>
																	<displayformat>NDF</displayformat>
																</timecode>
																<media>
																	<video>
																		<samplecharacteristics>
																			<rate>
																				<timebase>60</timebase>
																				<ntsc>TRUE</ntsc>
																			</rate>
																			<width>1920</width>
																			<height>1080</height>
																			<anamorphic>FALSE</anamorphic>
																			<pixelaspectratio>square</pixelaspectratio>
																			<fielddominance>none</fielddominance>
																		</samplecharacteristics>
																	</video>
																	<audio>
																		<samplecharacteristics>
																			<depth>16</depth>
																			<samplerate>44100</samplerate>
																		</samplecharacteristics>
																		<channelcount>2</channelcount>
																	</audio>
																</media>
															</file>
															<logginginfo>
																<description></description>
																<scene></scene>
																<shottake></shottake>
																<lognote>https://www.youtube.com/watch?v=uAp_7NEO0zc</lognote>
																<good></good>
																<originalvideofilename></originalvideofilename>
																<originalaudiofilename></originalaudiofilename>
															</logginginfo>
															<colorinfo>
																<lut></lut>
																<lut1></lut1>
																<asc_sop></asc_sop>
																<asc_sat></asc_sat>
																<lut2></lut2>
															</colorinfo>
															<labels>
																<label2>Iris</label2>
															</labels>
														</clipitem>
														<clipitem id="clipitem-284">
															<masterclipid>masterclip-92</masterclipid>
															<name>(The Crafty Couple)_SO EASY!! DIY Home Decor For Only A Few DOLLARS! Dollar Store DIY 2022 😮_uAp_7NEO0zc_YT.mp4</name>
															<enabled>TRUE</enabled>
															<duration>32110</duration>
															<rate>
																<timebase>30</timebase>
																<ntsc>TRUE</ntsc>
															</rate>
															<start>66</start>
															<end>146</end>
															<in>9121</in>
															<out>9201</out>
															<pproTicksIn>77306560531200</pproTicksIn>
															<pproTicksOut>77984613907200</pproTicksOut>
															<alphatype>none</alphatype>
															<file id="file-74"/>
															<logginginfo>
																<description></description>
																<scene></scene>
																<shottake></shottake>
																<lognote>https://www.youtube.com/watch?v=uAp_7NEO0zc</lognote>
																<good></good>
																<originalvideofilename></originalvideofilename>
																<originalaudiofilename></originalaudiofilename>
															</logginginfo>
															<colorinfo>
																<lut></lut>
																<lut1></lut1>
																<asc_sop></asc_sop>
																<asc_sat></asc_sat>
																<lut2></lut2>
															</colorinfo>
															<labels>
																<label2>Iris</label2>
															</labels>
														</clipitem>
														<clipitem id="clipitem-285">
															<masterclipid>masterclip-92</masterclipid>
															<name>(The Crafty Couple)_SO EASY!! DIY Home Decor For Only A Few DOLLARS! Dollar Store DIY 2022 😮_uAp_7NEO0zc_YT.mp4</name>
															<enabled>TRUE</enabled>
															<duration>32110</duration>
															<rate>
																<timebase>30</timebase>
																<ntsc>TRUE</ntsc>
															</rate>
															<start>146</start>
															<end>275</end>
															<in>9230</in>
															<out>9359</out>
															<pproTicksIn>78230408256000</pproTicksIn>
															<pproTicksOut>79323769324800</pproTicksOut>
															<alphatype>none</alphatype>
															<file id="file-74"/>
															<logginginfo>
																<description></description>
																<scene></scene>
																<shottake></shottake>
																<lognote>https://www.youtube.com/watch?v=uAp_7NEO0zc</lognote>
																<good></good>
																<originalvideofilename></originalvideofilename>
																<originalaudiofilename></originalaudiofilename>
															</logginginfo>
															<colorinfo>
																<lut></lut>
																<lut1></lut1>
																<asc_sop></asc_sop>
																<asc_sat></asc_sat>
																<lut2></lut2>
															</colorinfo>
															<labels>
																<label2>Iris</label2>
															</labels>
														</clipitem>
														<clipitem id="clipitem-286">
															<masterclipid>masterclip-92</masterclipid>
															<name>(The Crafty Couple)_SO EASY!! DIY Home Decor For Only A Few DOLLARS! Dollar Store DIY 2022 😮_uAp_7NEO0zc_YT.mp4</name>
															<enabled>TRUE</enabled>
															<duration>32110</duration>
															<rate>
																<timebase>30</timebase>
																<ntsc>TRUE</ntsc>
															</rate>
															<start>275</start>
															<end>359</end>
															<in>9588</in>
															<out>9672</out>
															<pproTicksIn>81264697113600</pproTicksIn>
															<pproTicksOut>81976653158400</pproTicksOut>
															<alphatype>none</alphatype>
															<file id="file-74"/>
															<logginginfo>
																<description></description>
																<scene></scene>
																<shottake></shottake>
																<lognote>https://www.youtube.com/watch?v=uAp_7NEO0zc</lognote>
																<good></good>
																<originalvideofilename></originalvideofilename>
																<originalaudiofilename></originalaudiofilename>
															</logginginfo>
															<colorinfo>
																<lut></lut>
																<lut1></lut1>
																<asc_sop></asc_sop>
																<asc_sat></asc_sat>
																<lut2></lut2>
															</colorinfo>
															<labels>
																<label2>Iris</label2>
															</labels>
														</clipitem>
														<clipitem id="clipitem-287">
															<masterclipid>masterclip-92</masterclipid>
															<name>(The Crafty Couple)_SO EASY!! DIY Home Decor For Only A Few DOLLARS! Dollar Store DIY 2022 😮_uAp_7NEO0zc_YT.mp4</name>
															<enabled>TRUE</enabled>
															<duration>32110</duration>
															<rate>
																<timebase>30</timebase>
																<ntsc>TRUE</ntsc>
															</rate>
															<start>359</start>
															<end>456</end>
															<in>9948</in>
															<out>10045</out>
															<pproTicksIn>84315937305600</pproTicksIn>
															<pproTicksOut>85138077024000</pproTicksOut>
															<alphatype>none</alphatype>
															<file id="file-74"/>
															<logginginfo>
																<description></description>
																<scene></scene>
																<shottake></shottake>
																<lognote>https://www.youtube.com/watch?v=uAp_7NEO0zc</lognote>
																<good></good>
																<originalvideofilename></originalvideofilename>
																<originalaudiofilename></originalaudiofilename>
															</logginginfo>
															<colorinfo>
																<lut></lut>
																<lut1></lut1>
																<asc_sop></asc_sop>
																<asc_sat></asc_sat>
																<lut2></lut2>
															</colorinfo>
															<labels>
																<label2>Iris</label2>
															</labels>
														</clipitem>
														<clipitem id="clipitem-288">
															<masterclipid>masterclip-92</masterclipid>
															<name>(The Crafty Couple)_SO EASY!! DIY Home Decor For Only A Few DOLLARS! Dollar Store DIY 2022 😮_uAp_7NEO0zc_YT.mp4</name>
															<enabled>TRUE</enabled>
															<duration>32110</duration>
															<rate>
																<timebase>30</timebase>
																<ntsc>TRUE</ntsc>
															</rate>
															<start>456</start>
															<end>611</end>
															<in>10076</in>
															<out>10231</out>
															<pproTicksIn>85400822707200</pproTicksIn>
															<pproTicksOut>86714551123200</pproTicksOut>
															<alphatype>none</alphatype>
															<file id="file-74"/>
															<logginginfo>
																<description></description>
																<scene></scene>
																<shottake></shottake>
																<lognote>https://www.youtube.com/watch?v=uAp_7NEO0zc</lognote>
																<good></good>
																<originalvideofilename></originalvideofilename>
																<originalaudiofilename></originalaudiofilename>
															</logginginfo>
															<colorinfo>
																<lut></lut>
																<lut1></lut1>
																<asc_sop></asc_sop>
																<asc_sat></asc_sat>
																<lut2></lut2>
															</colorinfo>
															<labels>
																<label2>Iris</label2>
															</labels>
														</clipitem>
														<clipitem id="clipitem-289">
															<masterclipid>masterclip-92</masterclipid>
															<name>(The Crafty Couple)_SO EASY!! DIY Home Decor For Only A Few DOLLARS! Dollar Store DIY 2022 😮_uAp_7NEO0zc_YT.mp4</name>
															<enabled>TRUE</enabled>
															<duration>32110</duration>
															<rate>
																<timebase>30</timebase>
																<ntsc>TRUE</ntsc>
															</rate>
															<start>611</start>
															<end>839</end>
															<in>20787</in>
															<out>21015</out>
															<pproTicksIn>176183694086400</pproTicksIn>
															<pproTicksOut>178116146208000</pproTicksOut>
															<alphatype>none</alphatype>
															<file id="file-74"/>
															<logginginfo>
																<description></description>
																<scene></scene>
																<shottake></shottake>
																<lognote>https://www.youtube.com/watch?v=uAp_7NEO0zc</lognote>
																<good></good>
																<originalvideofilename></originalvideofilename>
																<originalaudiofilename></originalaudiofilename>
															</logginginfo>
															<colorinfo>
																<lut></lut>
																<lut1></lut1>
																<asc_sop></asc_sop>
																<asc_sat></asc_sat>
																<lut2></lut2>
															</colorinfo>
															<labels>
																<label2>Iris</label2>
															</labels>
														</clipitem>
														<clipitem id="clipitem-290">
															<masterclipid>masterclip-92</masterclipid>
															<name>(The Crafty Couple)_SO EASY!! DIY Home Decor For Only A Few DOLLARS! Dollar Store DIY 2022 😮_uAp_7NEO0zc_YT.mp4</name>
															<enabled>TRUE</enabled>
															<duration>32110</duration>
															<rate>
																<timebase>30</timebase>
																<ntsc>TRUE</ntsc>
															</rate>
															<start>839</start>
															<end>1057</end>
															<in>22335</in>
															<out>22553</out>
															<pproTicksIn>189304026912000</pproTicksIn>
															<pproTicksOut>191151722361600</pproTicksOut>
															<alphatype>none</alphatype>
															<file id="file-74"/>
															<logginginfo>
																<description></description>
																<scene></scene>
																<shottake></shottake>
																<lognote>https://www.youtube.com/watch?v=uAp_7NEO0zc</lognote>
																<good></good>
																<originalvideofilename></originalvideofilename>
																<originalaudiofilename></originalaudiofilename>
															</logginginfo>
															<colorinfo>
																<lut></lut>
																<lut1></lut1>
																<asc_sop></asc_sop>
																<asc_sat></asc_sat>
																<lut2></lut2>
															</colorinfo>
															<labels>
																<label2>Iris</label2>
															</labels>
														</clipitem>
														<clipitem id="clipitem-291">
															<masterclipid>masterclip-92</masterclipid>
															<name>(The Crafty Couple)_SO EASY!! DIY Home Decor For Only A Few DOLLARS! Dollar Store DIY 2022 😮_uAp_7NEO0zc_YT.mp4</name>
															<enabled>TRUE</enabled>
															<duration>32110</duration>
															<rate>
																<timebase>30</timebase>
																<ntsc>TRUE</ntsc>
															</rate>
															<start>1057</start>
															<end>1335</end>
															<in>22650</in>
															<out>22928</out>
															<pproTicksIn>191973862080000</pproTicksIn>
															<pproTicksOut>194330097561600</pproTicksOut>
															<alphatype>none</alphatype>
															<file id="file-74"/>
															<logginginfo>
																<description></description>
																<scene></scene>
																<shottake></shottake>
																<lognote>https://www.youtube.com/watch?v=uAp_7NEO0zc</lognote>
																<good></good>
																<originalvideofilename></originalvideofilename>
																<originalaudiofilename></originalaudiofilename>
															</logginginfo>
															<colorinfo>
																<lut></lut>
																<lut1></lut1>
																<asc_sop></asc_sop>
																<asc_sat></asc_sat>
																<lut2></lut2>
															</colorinfo>
															<labels>
																<label2>Iris</label2>
															</labels>
														</clipitem>
														<enabled>TRUE</enabled>
														<locked>FALSE</locked>
													</track>
													<track TL.SQTrackShy="0" TL.SQTrackExpandedHeight="25" TL.SQTrackExpanded="0" MZ.TrackTargeted="0">
														<clipitem id="clipitem-292">
															<masterclipid>masterclip-80</masterclipid>
															<name>THE CRAFTY COUPLE</name>
															<enabled>TRUE</enabled>
															<duration>5844</duration>
															<rate>
																<timebase>30</timebase>
																<ntsc>TRUE</ntsc>
															</rate>
															<start>0</start>
															<end>1335</end>
															<in>0</in>
															<out>1335</out>
															<pproTicksIn>0</pproTicksIn>
															<pproTicksOut>11315015712000</pproTicksOut>
															<alphatype>straight</alphatype>
															<file id="file-65"/>
															<logginginfo>
																<description></description>
																<scene></scene>
																<shottake></shottake>
																<lognote></lognote>
																<good></good>
																<originalvideofilename></originalvideofilename>
																<originalaudiofilename></originalaudiofilename>
															</logginginfo>
															<colorinfo>
																<lut></lut>
																<lut1></lut1>
																<asc_sop></asc_sop>
																<asc_sat></asc_sat>
																<lut2></lut2>
															</colorinfo>
															<labels>
																<label2>Rose</label2>
															</labels>
														</clipitem>
														<enabled>TRUE</enabled>
														<locked>FALSE</locked>
													</track>
												</video>
												<audio>
													<numOutputChannels>2</numOutputChannels>
													<format>
														<samplecharacteristics>
															<depth>16</depth>
															<samplerate>48000</samplerate>
														</samplecharacteristics>
													</format>
													<outputs>
														<group>
															<index>1</index>
															<numchannels>1</numchannels>
															<downmix>0</downmix>
															<channel>
																<index>1</index>
															</channel>
														</group>
														<group>
															<index>2</index>
															<numchannels>1</numchannels>
															<downmix>0</downmix>
															<channel>
																<index>2</index>
															</channel>
														</group>
													</outputs>
													<track TL.SQTrackAudioKeyframeStyle="0" TL.SQTrackShy="0" TL.SQTrackExpandedHeight="25" TL.SQTrackExpanded="0" MZ.TrackTargeted="1" PannerCurrentValue="0.5" PannerIsInverted="true" PannerStartKeyframe="-91445760000000000,0.5,0,0,0,0,0,0" PannerName="Balance" currentExplodedTrackIndex="0" totalExplodedTrackCount="2" premiereTrackType="Stereo">
														<enabled>TRUE</enabled>
														<locked>FALSE</locked>
														<outputchannelindex>1</outputchannelindex>
													</track>
													<track TL.SQTrackAudioKeyframeStyle="0" TL.SQTrackShy="0" TL.SQTrackExpandedHeight="25" TL.SQTrackExpanded="0" MZ.TrackTargeted="1" PannerCurrentValue="0.5" PannerIsInverted="true" PannerStartKeyframe="-91445760000000000,0.5,0,0,0,0,0,0" PannerName="Balance" currentExplodedTrackIndex="1" totalExplodedTrackCount="2" premiereTrackType="Stereo">
														<enabled>TRUE</enabled>
														<locked>FALSE</locked>
														<outputchannelindex>2</outputchannelindex>
													</track>
												</audio>
											</media>
											<timecode>
												<rate>
													<timebase>30</timebase>
													<ntsc>TRUE</ntsc>
												</rate>
												<string>00;00;00;00</string>
												<frame>0</frame>
												<displayformat>DF</displayformat>
											</timecode>
											<logginginfo>
												<description></description>
												<scene></scene>
												<shottake></shottake>
												<lognote></lognote>
												<good></good>
												<originalvideofilename></originalvideofilename>
												<originalaudiofilename></originalaudiofilename>
											</logginginfo>
										</sequence>
										<labels>
											<label2>Forest</label2>
										</labels>
									</clipitem>
									<clipitem id="clipitem-293">
										<masterclipid>masterclip-33</masterclipid>
										<name>ATM_HouseAd_2023.mp4</name>
										<enabled>TRUE</enabled>
										<duration>120</duration>
										<rate>
											<timebase>30</timebase>
											<ntsc>TRUE</ntsc>
										</rate>
										<start>5041</start>
										<end>5161</end>
										<in>0</in>
										<out>120</out>
										<pproTicksIn>0</pproTicksIn>
										<pproTicksOut>1017080064000</pproTicksOut>
										<alphatype>none</alphatype>
										<file id="file-27"/>
										<link>
											<linkclipref>clipitem-293</linkclipref>
											<mediatype>video</mediatype>
											<trackindex>1</trackindex>
											<clipindex>3</clipindex>
										</link>
										<link>
											<linkclipref>clipitem-299</linkclipref>
											<mediatype>audio</mediatype>
											<trackindex>1</trackindex>
											<clipindex>2</clipindex>
											<groupindex>1</groupindex>
										</link>
										<link>
											<linkclipref>clipitem-301</linkclipref>
											<mediatype>audio</mediatype>
											<trackindex>2</trackindex>
											<clipindex>2</clipindex>
											<groupindex>1</groupindex>
										</link>
										<logginginfo>
											<description></description>
											<scene></scene>
											<shottake></shottake>
											<lognote></lognote>
											<good></good>
											<originalvideofilename></originalvideofilename>
											<originalaudiofilename></originalaudiofilename>
										</logginginfo>
										<colorinfo>
											<lut></lut>
											<lut1></lut1>
											<asc_sop></asc_sop>
											<asc_sat></asc_sat>
											<lut2></lut2>
										</colorinfo>
										<labels>
											<label2>Iris</label2>
										</labels>
									</clipitem>
									<enabled>TRUE</enabled>
									<locked>FALSE</locked>
								</track>
								<track TL.SQTrackShy="0" TL.SQTrackExpandedHeight="25" TL.SQTrackExpanded="0" MZ.TrackTargeted="0">
									<clipitem id="clipitem-294">
										<masterclipid>masterclip-93</masterclipid>
										<name>THROW IT IN THE MIX</name>
										<enabled>TRUE</enabled>
										<duration>5695</duration>
										<rate>
											<timebase>30</timebase>
											<ntsc>TRUE</ntsc>
										</rate>
										<start>0</start>
										<end>3632</end>
										<in>0</in>
										<out>3632</out>
										<pproTicksIn>0</pproTicksIn>
										<pproTicksOut>30783623270400</pproTicksOut>
										<alphatype>straight</alphatype>
										<pixelaspectratio>square</pixelaspectratio>
										<anamorphic>FALSE</anamorphic>
										<file id="file-75">
											<name>CRAFTY_L3RD_01_JL_V03/CRAFTY_L3RD_01_JL_V03.aep</name>
											<pathurl>file://localhost/Volumes/ATM%20JR%202TB/Master%20Assets/CRAFTY_L3RD_01_JL_V03%20folder/CRAFTY_L3RD_01_JL_V03.aep</pathurl>
											<rate>
												<timebase>30</timebase>
												<ntsc>FALSE</ntsc>
											</rate>
											<duration>5701</duration>
											<timecode>
												<rate>
													<timebase>30</timebase>
													<ntsc>FALSE</ntsc>
												</rate>
												<string>00:00:00:00</string>
												<frame>0</frame>
												<displayformat>NDF</displayformat>
											</timecode>
											<media>
												<video>
													<samplecharacteristics>
														<rate>
															<timebase>30</timebase>
															<ntsc>FALSE</ntsc>
														</rate>
														<width>1920</width>
														<height>1080</height>
														<anamorphic>FALSE</anamorphic>
														<pixelaspectratio>square</pixelaspectratio>
														<fielddominance>lower</fielddominance>
													</samplecharacteristics>
												</video>
											</media>
										</file>
										<logginginfo>
											<description></description>
											<scene></scene>
											<shottake></shottake>
											<lognote></lognote>
											<good></good>
											<originalvideofilename></originalvideofilename>
											<originalaudiofilename></originalaudiofilename>
										</logginginfo>
										<colorinfo>
											<lut></lut>
											<lut1></lut1>
											<asc_sop></asc_sop>
											<asc_sat></asc_sat>
											<lut2></lut2>
										</colorinfo>
										<labels>
											<label2>Rose</label2>
										</labels>
									</clipitem>
									<clipitem id="clipitem-295">
										<masterclipid>masterclip-94</masterclipid>
										<name>SIMPLE HOME DECOR</name>
										<enabled>TRUE</enabled>
										<duration>5695</duration>
										<rate>
											<timebase>30</timebase>
											<ntsc>TRUE</ntsc>
										</rate>
										<start>3728</start>
										<end>5041</end>
										<in>0</in>
										<out>1313</out>
										<pproTicksIn>0</pproTicksIn>
										<pproTicksOut>11128551033600</pproTicksOut>
										<alphatype>straight</alphatype>
										<pixelaspectratio>square</pixelaspectratio>
										<anamorphic>FALSE</anamorphic>
										<file id="file-76">
											<name>CRAFTY_L3RD_01_JL_V03/CRAFTY_L3RD_01_JL_V03.aep</name>
											<pathurl>file://localhost/Volumes/ATM%20JR%202TB/Master%20Assets/CRAFTY_L3RD_01_JL_V03%20folder/CRAFTY_L3RD_01_JL_V03.aep</pathurl>
											<rate>
												<timebase>30</timebase>
												<ntsc>FALSE</ntsc>
											</rate>
											<duration>5701</duration>
											<timecode>
												<rate>
													<timebase>30</timebase>
													<ntsc>FALSE</ntsc>
												</rate>
												<string>00:00:00:00</string>
												<frame>0</frame>
												<displayformat>NDF</displayformat>
											</timecode>
											<media>
												<video>
													<samplecharacteristics>
														<rate>
															<timebase>30</timebase>
															<ntsc>FALSE</ntsc>
														</rate>
														<width>1920</width>
														<height>1080</height>
														<anamorphic>FALSE</anamorphic>
														<pixelaspectratio>square</pixelaspectratio>
														<fielddominance>lower</fielddominance>
													</samplecharacteristics>
												</video>
											</media>
										</file>
										<logginginfo>
											<description></description>
											<scene></scene>
											<shottake></shottake>
											<lognote></lognote>
											<good></good>
											<originalvideofilename></originalvideofilename>
											<originalaudiofilename></originalaudiofilename>
										</logginginfo>
										<colorinfo>
											<lut></lut>
											<lut1></lut1>
											<asc_sop></asc_sop>
											<asc_sat></asc_sat>
											<lut2></lut2>
										</colorinfo>
										<labels>
											<label2>Rose</label2>
										</labels>
									</clipitem>
									<enabled>TRUE</enabled>
									<locked>FALSE</locked>
								</track>
								<track TL.SQTrackShy="0" TL.SQTrackExpandedHeight="25" TL.SQTrackExpanded="0" MZ.TrackTargeted="0">
									<clipitem id="clipitem-296">
										<masterclipid>masterclip-9</masterclipid>
										<name>ATM_logo_channels_right-2 (3).png</name>
										<enabled>TRUE</enabled>
										<duration>1294705</duration>
										<rate>
											<timebase>30</timebase>
											<ntsc>TRUE</ntsc>
										</rate>
										<start>0</start>
										<end>5041</end>
										<in>104705</in>
										<out>109746</out>
										<pproTicksIn>887444734176000</pproTicksIn>
										<pproTicksOut>930170572531200</pproTicksOut>
										<alphatype>straight</alphatype>
										<file id="file-7"/>
										<logginginfo>
											<description></description>
											<scene></scene>
											<shottake></shottake>
											<lognote></lognote>
											<good></good>
											<originalvideofilename></originalvideofilename>
											<originalaudiofilename></originalaudiofilename>
										</logginginfo>
										<colorinfo>
											<lut></lut>
											<lut1></lut1>
											<asc_sop></asc_sop>
											<asc_sat></asc_sat>
											<lut2></lut2>
										</colorinfo>
										<labels>
											<label2>Lavender</label2>
										</labels>
									</clipitem>
									<enabled>TRUE</enabled>
									<locked>FALSE</locked>
								</track>
								<track TL.SQTrackShy="0" TL.SQTrackExpandedHeight="25" TL.SQTrackExpanded="0" MZ.TrackTargeted="0">
									<clipitem id="clipitem-297">
										<masterclipid>masterclip-10</masterclipid>
										<name>CRAFTY_TRAN01_JL_V01.mov</name>
										<enabled>TRUE</enabled>
										<duration>120</duration>
										<rate>
											<timebase>30</timebase>
											<ntsc>TRUE</ntsc>
										</rate>
										<start>3608</start>
										<end>3728</end>
										<in>0</in>
										<out>120</out>
										<pproTicksIn>0</pproTicksIn>
										<pproTicksOut>1017080064000</pproTicksOut>
										<alphatype>none</alphatype>
										<file id="file-8"/>
										<link>
											<linkclipref>clipitem-297</linkclipref>
											<mediatype>video</mediatype>
											<trackindex>4</trackindex>
											<clipindex>1</clipindex>
										</link>
										<link>
											<linkclipref>clipitem-298</linkclipref>
											<mediatype>audio</mediatype>
											<trackindex>1</trackindex>
											<clipindex>1</clipindex>
											<groupindex>1</groupindex>
										</link>
										<link>
											<linkclipref>clipitem-300</linkclipref>
											<mediatype>audio</mediatype>
											<trackindex>2</trackindex>
											<clipindex>1</clipindex>
											<groupindex>1</groupindex>
										</link>
										<logginginfo>
											<description></description>
											<scene></scene>
											<shottake></shottake>
											<lognote></lognote>
											<good></good>
											<originalvideofilename></originalvideofilename>
											<originalaudiofilename></originalaudiofilename>
										</logginginfo>
										<colorinfo>
											<lut></lut>
											<lut1></lut1>
											<asc_sop></asc_sop>
											<asc_sat></asc_sat>
											<lut2></lut2>
										</colorinfo>
										<labels>
											<label2>Iris</label2>
										</labels>
									</clipitem>
									<enabled>TRUE</enabled>
									<locked>FALSE</locked>
								</track>
							</video>
							<audio>
								<numOutputChannels>2</numOutputChannels>
								<format>
									<samplecharacteristics>
										<depth>16</depth>
										<samplerate>48000</samplerate>
									</samplecharacteristics>
								</format>
								<outputs>
									<group>
										<index>1</index>
										<numchannels>1</numchannels>
										<downmix>0</downmix>
										<channel>
											<index>1</index>
										</channel>
									</group>
									<group>
										<index>2</index>
										<numchannels>1</numchannels>
										<downmix>0</downmix>
										<channel>
											<index>2</index>
										</channel>
									</group>
								</outputs>
								<track TL.SQTrackAudioKeyframeStyle="0" TL.SQTrackShy="0" TL.SQTrackExpandedHeight="47" TL.SQTrackExpanded="0" MZ.TrackTargeted="1" PannerCurrentValue="0.5" PannerIsInverted="true" PannerStartKeyframe="-91445760000000000,0.5,0,0,0,0,0,0" PannerName="Balance" currentExplodedTrackIndex="0" totalExplodedTrackCount="2" premiereTrackType="Stereo">
									<clipitem id="clipitem-298" premiereChannelType="stereo">
										<masterclipid>masterclip-10</masterclipid>
										<name>CRAFTY_TRAN01_JL_V01.mov</name>
										<enabled>TRUE</enabled>
										<duration>120</duration>
										<rate>
											<timebase>30</timebase>
											<ntsc>TRUE</ntsc>
										</rate>
										<start>3608</start>
										<end>3728</end>
										<in>0</in>
										<out>120</out>
										<pproTicksIn>0</pproTicksIn>
										<pproTicksOut>1017080064000</pproTicksOut>
										<file id="file-8"/>
										<sourcetrack>
											<mediatype>audio</mediatype>
											<trackindex>1</trackindex>
										</sourcetrack>
										<link>
											<linkclipref>clipitem-297</linkclipref>
											<mediatype>video</mediatype>
											<trackindex>4</trackindex>
											<clipindex>1</clipindex>
										</link>
										<link>
											<linkclipref>clipitem-298</linkclipref>
											<mediatype>audio</mediatype>
											<trackindex>1</trackindex>
											<clipindex>1</clipindex>
											<groupindex>1</groupindex>
										</link>
										<link>
											<linkclipref>clipitem-300</linkclipref>
											<mediatype>audio</mediatype>
											<trackindex>2</trackindex>
											<clipindex>1</clipindex>
											<groupindex>1</groupindex>
										</link>
										<logginginfo>
											<description></description>
											<scene></scene>
											<shottake></shottake>
											<lognote></lognote>
											<good></good>
											<originalvideofilename></originalvideofilename>
											<originalaudiofilename></originalaudiofilename>
										</logginginfo>
										<colorinfo>
											<lut></lut>
											<lut1></lut1>
											<asc_sop></asc_sop>
											<asc_sat></asc_sat>
											<lut2></lut2>
										</colorinfo>
										<labels>
											<label2>Iris</label2>
										</labels>
									</clipitem>
									<clipitem id="clipitem-299" premiereChannelType="stereo">
										<masterclipid>masterclip-33</masterclipid>
										<name>ATM_HouseAd_2023.mp4</name>
										<enabled>TRUE</enabled>
										<duration>120</duration>
										<rate>
											<timebase>30</timebase>
											<ntsc>TRUE</ntsc>
										</rate>
										<start>5041</start>
										<end>5161</end>
										<in>0</in>
										<out>120</out>
										<pproTicksIn>0</pproTicksIn>
										<pproTicksOut>1017080064000</pproTicksOut>
										<file id="file-27"/>
										<sourcetrack>
											<mediatype>audio</mediatype>
											<trackindex>1</trackindex>
										</sourcetrack>
										<link>
											<linkclipref>clipitem-293</linkclipref>
											<mediatype>video</mediatype>
											<trackindex>1</trackindex>
											<clipindex>3</clipindex>
										</link>
										<link>
											<linkclipref>clipitem-299</linkclipref>
											<mediatype>audio</mediatype>
											<trackindex>1</trackindex>
											<clipindex>2</clipindex>
											<groupindex>1</groupindex>
										</link>
										<link>
											<linkclipref>clipitem-301</linkclipref>
											<mediatype>audio</mediatype>
											<trackindex>2</trackindex>
											<clipindex>2</clipindex>
											<groupindex>1</groupindex>
										</link>
										<logginginfo>
											<description></description>
											<scene></scene>
											<shottake></shottake>
											<lognote></lognote>
											<good></good>
											<originalvideofilename></originalvideofilename>
											<originalaudiofilename></originalaudiofilename>
										</logginginfo>
										<colorinfo>
											<lut></lut>
											<lut1></lut1>
											<asc_sop></asc_sop>
											<asc_sat></asc_sat>
											<lut2></lut2>
										</colorinfo>
										<labels>
											<label2>Iris</label2>
										</labels>
									</clipitem>
									<enabled>TRUE</enabled>
									<locked>FALSE</locked>
									<outputchannelindex>1</outputchannelindex>
								</track>
								<track TL.SQTrackAudioKeyframeStyle="0" TL.SQTrackShy="0" TL.SQTrackExpandedHeight="47" TL.SQTrackExpanded="0" MZ.TrackTargeted="1" PannerCurrentValue="0.5" PannerIsInverted="true" PannerStartKeyframe="-91445760000000000,0.5,0,0,0,0,0,0" PannerName="Balance" currentExplodedTrackIndex="1" totalExplodedTrackCount="2" premiereTrackType="Stereo">
									<clipitem id="clipitem-300" premiereChannelType="stereo">
										<masterclipid>masterclip-10</masterclipid>
										<name>CRAFTY_TRAN01_JL_V01.mov</name>
										<enabled>TRUE</enabled>
										<duration>120</duration>
										<rate>
											<timebase>30</timebase>
											<ntsc>TRUE</ntsc>
										</rate>
										<start>3608</start>
										<end>3728</end>
										<in>0</in>
										<out>120</out>
										<pproTicksIn>0</pproTicksIn>
										<pproTicksOut>1017080064000</pproTicksOut>
										<file id="file-8"/>
										<sourcetrack>
											<mediatype>audio</mediatype>
											<trackindex>2</trackindex>
										</sourcetrack>
										<link>
											<linkclipref>clipitem-297</linkclipref>
											<mediatype>video</mediatype>
											<trackindex>4</trackindex>
											<clipindex>1</clipindex>
										</link>
										<link>
											<linkclipref>clipitem-298</linkclipref>
											<mediatype>audio</mediatype>
											<trackindex>1</trackindex>
											<clipindex>1</clipindex>
											<groupindex>1</groupindex>
										</link>
										<link>
											<linkclipref>clipitem-300</linkclipref>
											<mediatype>audio</mediatype>
											<trackindex>2</trackindex>
											<clipindex>1</clipindex>
											<groupindex>1</groupindex>
										</link>
										<logginginfo>
											<description></description>
											<scene></scene>
											<shottake></shottake>
											<lognote></lognote>
											<good></good>
											<originalvideofilename></originalvideofilename>
											<originalaudiofilename></originalaudiofilename>
										</logginginfo>
										<colorinfo>
											<lut></lut>
											<lut1></lut1>
											<asc_sop></asc_sop>
											<asc_sat></asc_sat>
											<lut2></lut2>
										</colorinfo>
										<labels>
											<label2>Iris</label2>
										</labels>
									</clipitem>
									<clipitem id="clipitem-301" premiereChannelType="stereo">
										<masterclipid>masterclip-33</masterclipid>
										<name>ATM_HouseAd_2023.mp4</name>
										<enabled>TRUE</enabled>
										<duration>120</duration>
										<rate>
											<timebase>30</timebase>
											<ntsc>TRUE</ntsc>
										</rate>
										<start>5041</start>
										<end>5161</end>
										<in>0</in>
										<out>120</out>
										<pproTicksIn>0</pproTicksIn>
										<pproTicksOut>1017080064000</pproTicksOut>
										<file id="file-27"/>
										<sourcetrack>
											<mediatype>audio</mediatype>
											<trackindex>2</trackindex>
										</sourcetrack>
										<link>
											<linkclipref>clipitem-293</linkclipref>
											<mediatype>video</mediatype>
											<trackindex>1</trackindex>
											<clipindex>3</clipindex>
										</link>
										<link>
											<linkclipref>clipitem-299</linkclipref>
											<mediatype>audio</mediatype>
											<trackindex>1</trackindex>
											<clipindex>2</clipindex>
											<groupindex>1</groupindex>
										</link>
										<link>
											<linkclipref>clipitem-301</linkclipref>
											<mediatype>audio</mediatype>
											<trackindex>2</trackindex>
											<clipindex>2</clipindex>
											<groupindex>1</groupindex>
										</link>
										<logginginfo>
											<description></description>
											<scene></scene>
											<shottake></shottake>
											<lognote></lognote>
											<good></good>
											<originalvideofilename></originalvideofilename>
											<originalaudiofilename></originalaudiofilename>
										</logginginfo>
										<colorinfo>
											<lut></lut>
											<lut1></lut1>
											<asc_sop></asc_sop>
											<asc_sat></asc_sat>
											<lut2></lut2>
										</colorinfo>
										<labels>
											<label2>Iris</label2>
										</labels>
									</clipitem>
									<enabled>TRUE</enabled>
									<locked>FALSE</locked>
									<outputchannelindex>2</outputchannelindex>
								</track>
								<track TL.SQTrackAudioKeyframeStyle="0" TL.SQTrackShy="0" TL.SQTrackExpandedHeight="47" TL.SQTrackExpanded="0" MZ.TrackTargeted="1" PannerCurrentValue="0.5" PannerIsInverted="true" PannerStartKeyframe="-91445760000000000,0.5,0,0,0,0,0,0" PannerName="Balance" currentExplodedTrackIndex="0" totalExplodedTrackCount="2" premiereTrackType="Stereo">
									<clipitem id="clipitem-302" premiereChannelType="stereo">
										<masterclipid>masterclip-95</masterclipid>
										<name>ES_Soul Single Serenade - Dusty Decks.wav</name>
										<enabled>TRUE</enabled>
										<duration>4422</duration>
										<rate>
											<timebase>30</timebase>
											<ntsc>TRUE</ntsc>
										</rate>
										<start>0</start>
										<end>-1</end>
										<in>0</in>
										<out>3608</out>
										<pproTicksIn>0</pproTicksIn>
										<pproTicksOut>30580207257600</pproTicksOut>
										<file id="file-77">
											<name>ES_Soul Single Serenade - Dusty Decks.wav</name>
											<pathurl>file://localhost/Volumes/CONTENT/VOD%20CONTENT%20ARCHIVE/O&amp;O%20Archive%202023/CRAFTY/03_March/Crafty_3-20-2023/5_Music/ES_Soul%20Single%20Serenade%20-%20Dusty%20Decks.wav</pathurl>
											<rate>
												<timebase>30</timebase>
												<ntsc>TRUE</ntsc>
											</rate>
											<duration>4422</duration>
											<timecode>
												<rate>
													<timebase>30</timebase>
													<ntsc>TRUE</ntsc>
												</rate>
												<string>01;16;52;13</string>
												<frame>138235</frame>
												<displayformat>DF</displayformat>
											</timecode>
											<media>
												<audio>
													<samplecharacteristics>
														<depth>16</depth>
														<samplerate>48000</samplerate>
													</samplecharacteristics>
													<channelcount>2</channelcount>
												</audio>
											</media>
										</file>
										<sourcetrack>
											<mediatype>audio</mediatype>
											<trackindex>1</trackindex>
										</sourcetrack>
										<filter>
											<effect>
												<name>Gain</name>
												<effectid>{61756678, 4761696e, 4b657947}</effectid>
												<effecttype>filter</effecttype>
												<mediatype>audio</mediatype>
												<parameter authoringApp="PremierePro">
													<parameterid>Gain(dB)</parameterid>
													<name>Gain(dB)</name>
													<valuemin>-96</valuemin>
													<valuemax>96</valuemax>
													<value>-6</value>
												</parameter>
											</effect>
										</filter>
										<link>
											<linkclipref>clipitem-302</linkclipref>
											<mediatype>audio</mediatype>
											<trackindex>3</trackindex>
											<clipindex>1</clipindex>
											<groupindex>1</groupindex>
										</link>
										<link>
											<linkclipref>clipitem-304</linkclipref>
											<mediatype>audio</mediatype>
											<trackindex>4</trackindex>
											<clipindex>1</clipindex>
											<groupindex>1</groupindex>
										</link>
										<logginginfo>
											<description></description>
											<scene></scene>
											<shottake></shottake>
											<lognote></lognote>
											<good></good>
											<originalvideofilename></originalvideofilename>
											<originalaudiofilename></originalaudiofilename>
										</logginginfo>
										<colorinfo>
											<lut></lut>
											<lut1></lut1>
											<asc_sop></asc_sop>
											<asc_sat></asc_sat>
											<lut2></lut2>
										</colorinfo>
										<labels>
											<label2>Caribbean</label2>
										</labels>
									</clipitem>
									<transitionitem>
										<start>3489</start>
										<end>3608</end>
										<pproTicksIn>29563128252000</pproTicksIn>
										<pproTicksOut>30580207257600</pproTicksOut>
										<alignment>end-black</alignment>
										<cutPointTicks>1017079005600</cutPointTicks>
										<rate>
											<timebase>30</timebase>
											<ntsc>TRUE</ntsc>
										</rate>
										<effect>
											<name>Cross Fade (+3dB)</name>
											<effectid>KGAudioTransCrossFade3dB</effectid>
											<effecttype>transition</effecttype>
											<mediatype>audio</mediatype>
											<wipecode>0</wipecode>
											<wipeaccuracy>100</wipeaccuracy>
											<startratio>0</startratio>
											<endratio>1</endratio>
											<reverse>FALSE</reverse>
										</effect>
									</transitionitem>
									<clipitem id="clipitem-303" premiereChannelType="stereo">
										<masterclipid>masterclip-96</masterclipid>
										<name>ES_Sunset Boulevard - baegel.wav</name>
										<enabled>TRUE</enabled>
										<duration>3596</duration>
										<rate>
											<timebase>30</timebase>
											<ntsc>TRUE</ntsc>
										</rate>
										<start>3728</start>
										<end>-1</end>
										<in>0</in>
										<out>1313</out>
										<pproTicksIn>0</pproTicksIn>
										<pproTicksOut>11128551033600</pproTicksOut>
										<file id="file-78">
											<name>ES_Sunset Boulevard - baegel.wav</name>
											<pathurl>file://localhost/Volumes/CONTENT/VOD%20CONTENT%20ARCHIVE/O&amp;O%20Archive%202023/CRAFTY/03_March/Crafty_3-20-2023/5_Music/ES_Sunset%20Boulevard%20-%20baegel.wav</pathurl>
											<rate>
												<timebase>30</timebase>
												<ntsc>TRUE</ntsc>
											</rate>
											<duration>3596</duration>
											<timecode>
												<rate>
													<timebase>30</timebase>
													<ntsc>TRUE</ntsc>
												</rate>
												<string>09;21;45;29</string>
												<frame>1010169</frame>
												<displayformat>DF</displayformat>
											</timecode>
											<media>
												<audio>
													<samplecharacteristics>
														<depth>16</depth>
														<samplerate>48000</samplerate>
													</samplecharacteristics>
													<channelcount>2</channelcount>
												</audio>
											</media>
										</file>
										<sourcetrack>
											<mediatype>audio</mediatype>
											<trackindex>1</trackindex>
										</sourcetrack>
										<filter>
											<effect>
												<name>Gain</name>
												<effectid>{61756678, 4761696e, 4b657947}</effectid>
												<effecttype>filter</effecttype>
												<mediatype>audio</mediatype>
												<parameter authoringApp="PremierePro">
													<parameterid>Gain(dB)</parameterid>
													<name>Gain(dB)</name>
													<valuemin>-96</valuemin>
													<valuemax>96</valuemax>
													<value>-6</value>
												</parameter>
											</effect>
										</filter>
										<link>
											<linkclipref>clipitem-303</linkclipref>
											<mediatype>audio</mediatype>
											<trackindex>3</trackindex>
											<clipindex>3</clipindex>
											<groupindex>1</groupindex>
										</link>
										<link>
											<linkclipref>clipitem-305</linkclipref>
											<mediatype>audio</mediatype>
											<trackindex>4</trackindex>
											<clipindex>3</clipindex>
											<groupindex>1</groupindex>
										</link>
										<logginginfo>
											<description></description>
											<scene></scene>
											<shottake></shottake>
											<lognote></lognote>
											<good></good>
											<originalvideofilename></originalvideofilename>
											<originalaudiofilename></originalaudiofilename>
										</logginginfo>
										<colorinfo>
											<lut></lut>
											<lut1></lut1>
											<asc_sop></asc_sop>
											<asc_sat></asc_sat>
											<lut2></lut2>
										</colorinfo>
										<labels>
											<label2>Caribbean</label2>
										</labels>
									</clipitem>
									<transitionitem>
										<start>4922</start>
										<end>5041</end>
										<pproTicksIn>41708760408000</pproTicksIn>
										<pproTicksOut>42725838355200</pproTicksOut>
										<alignment>end-black</alignment>
										<cutPointTicks>1017077947200</cutPointTicks>
										<rate>
											<timebase>30</timebase>
											<ntsc>TRUE</ntsc>
										</rate>
										<effect>
											<name>Cross Fade (+3dB)</name>
											<effectid>KGAudioTransCrossFade3dB</effectid>
											<effecttype>transition</effecttype>
											<mediatype>audio</mediatype>
											<wipecode>0</wipecode>
											<wipeaccuracy>100</wipeaccuracy>
											<startratio>0</startratio>
											<endratio>1</endratio>
											<reverse>FALSE</reverse>
										</effect>
									</transitionitem>
									<enabled>TRUE</enabled>
									<locked>FALSE</locked>
									<outputchannelindex>1</outputchannelindex>
								</track>
								<track TL.SQTrackAudioKeyframeStyle="0" TL.SQTrackShy="0" TL.SQTrackExpandedHeight="47" TL.SQTrackExpanded="0" MZ.TrackTargeted="1" PannerCurrentValue="0.5" PannerIsInverted="true" PannerStartKeyframe="-91445760000000000,0.5,0,0,0,0,0,0" PannerName="Balance" currentExplodedTrackIndex="1" totalExplodedTrackCount="2" premiereTrackType="Stereo">
									<clipitem id="clipitem-304" premiereChannelType="stereo">
										<masterclipid>masterclip-95</masterclipid>
										<name>ES_Soul Single Serenade - Dusty Decks.wav</name>
										<enabled>TRUE</enabled>
										<duration>4422</duration>
										<rate>
											<timebase>30</timebase>
											<ntsc>TRUE</ntsc>
										</rate>
										<start>0</start>
										<end>-1</end>
										<in>0</in>
										<out>3608</out>
										<pproTicksIn>0</pproTicksIn>
										<pproTicksOut>30580207257600</pproTicksOut>
										<file id="file-77"/>
										<sourcetrack>
											<mediatype>audio</mediatype>
											<trackindex>2</trackindex>
										</sourcetrack>
										<filter>
											<effect>
												<name>Gain</name>
												<effectid>{61756678, 4761696e, 4b657947}</effectid>
												<effecttype>filter</effecttype>
												<mediatype>audio</mediatype>
												<parameter authoringApp="PremierePro">
													<parameterid>Gain(dB)</parameterid>
													<name>Gain(dB)</name>
													<valuemin>-96</valuemin>
													<valuemax>96</valuemax>
													<value>-6</value>
												</parameter>
											</effect>
										</filter>
										<link>
											<linkclipref>clipitem-302</linkclipref>
											<mediatype>audio</mediatype>
											<trackindex>3</trackindex>
											<clipindex>1</clipindex>
											<groupindex>1</groupindex>
										</link>
										<link>
											<linkclipref>clipitem-304</linkclipref>
											<mediatype>audio</mediatype>
											<trackindex>4</trackindex>
											<clipindex>1</clipindex>
											<groupindex>1</groupindex>
										</link>
										<logginginfo>
											<description></description>
											<scene></scene>
											<shottake></shottake>
											<lognote></lognote>
											<good></good>
											<originalvideofilename></originalvideofilename>
											<originalaudiofilename></originalaudiofilename>
										</logginginfo>
										<colorinfo>
											<lut></lut>
											<lut1></lut1>
											<asc_sop></asc_sop>
											<asc_sat></asc_sat>
											<lut2></lut2>
										</colorinfo>
										<labels>
											<label2>Caribbean</label2>
										</labels>
									</clipitem>
									<transitionitem>
										<start>3489</start>
										<end>3608</end>
										<pproTicksIn>29563128252000</pproTicksIn>
										<pproTicksOut>30580207257600</pproTicksOut>
										<alignment>end-black</alignment>
										<cutPointTicks>1017079005600</cutPointTicks>
										<rate>
											<timebase>30</timebase>
											<ntsc>TRUE</ntsc>
										</rate>
										<effect>
											<name>Cross Fade (+3dB)</name>
											<effectid>KGAudioTransCrossFade3dB</effectid>
											<effecttype>transition</effecttype>
											<mediatype>audio</mediatype>
											<wipecode>0</wipecode>
											<wipeaccuracy>100</wipeaccuracy>
											<startratio>0</startratio>
											<endratio>1</endratio>
											<reverse>FALSE</reverse>
										</effect>
									</transitionitem>
									<clipitem id="clipitem-305" premiereChannelType="stereo">
										<masterclipid>masterclip-96</masterclipid>
										<name>ES_Sunset Boulevard - baegel.wav</name>
										<enabled>TRUE</enabled>
										<duration>3596</duration>
										<rate>
											<timebase>30</timebase>
											<ntsc>TRUE</ntsc>
										</rate>
										<start>3728</start>
										<end>-1</end>
										<in>0</in>
										<out>1313</out>
										<pproTicksIn>0</pproTicksIn>
										<pproTicksOut>11128551033600</pproTicksOut>
										<file id="file-78"/>
										<sourcetrack>
											<mediatype>audio</mediatype>
											<trackindex>2</trackindex>
										</sourcetrack>
										<filter>
											<effect>
												<name>Gain</name>
												<effectid>{61756678, 4761696e, 4b657947}</effectid>
												<effecttype>filter</effecttype>
												<mediatype>audio</mediatype>
												<parameter authoringApp="PremierePro">
													<parameterid>Gain(dB)</parameterid>
													<name>Gain(dB)</name>
													<valuemin>-96</valuemin>
													<valuemax>96</valuemax>
													<value>-6</value>
												</parameter>
											</effect>
										</filter>
										<link>
											<linkclipref>clipitem-303</linkclipref>
											<mediatype>audio</mediatype>
											<trackindex>3</trackindex>
											<clipindex>3</clipindex>
											<groupindex>1</groupindex>
										</link>
										<link>
											<linkclipref>clipitem-305</linkclipref>
											<mediatype>audio</mediatype>
											<trackindex>4</trackindex>
											<clipindex>3</clipindex>
											<groupindex>1</groupindex>
										</link>
										<logginginfo>
											<description></description>
											<scene></scene>
											<shottake></shottake>
											<lognote></lognote>
											<good></good>
											<originalvideofilename></originalvideofilename>
											<originalaudiofilename></originalaudiofilename>
										</logginginfo>
										<colorinfo>
											<lut></lut>
											<lut1></lut1>
											<asc_sop></asc_sop>
											<asc_sat></asc_sat>
											<lut2></lut2>
										</colorinfo>
										<labels>
											<label2>Caribbean</label2>
										</labels>
									</clipitem>
									<transitionitem>
										<start>4922</start>
										<end>5041</end>
										<pproTicksIn>41708760408000</pproTicksIn>
										<pproTicksOut>42725838355200</pproTicksOut>
										<alignment>end-black</alignment>
										<cutPointTicks>1017077947200</cutPointTicks>
										<rate>
											<timebase>30</timebase>
											<ntsc>TRUE</ntsc>
										</rate>
										<effect>
											<name>Cross Fade (+3dB)</name>
											<effectid>KGAudioTransCrossFade3dB</effectid>
											<effecttype>transition</effecttype>
											<mediatype>audio</mediatype>
											<wipecode>0</wipecode>
											<wipeaccuracy>100</wipeaccuracy>
											<startratio>0</startratio>
											<endratio>1</endratio>
											<reverse>FALSE</reverse>
										</effect>
									</transitionitem>
									<enabled>TRUE</enabled>
									<locked>FALSE</locked>
									<outputchannelindex>2</outputchannelindex>
								</track>
								<track TL.SQTrackAudioKeyframeStyle="0" TL.SQTrackShy="0" TL.SQTrackExpandedHeight="47" TL.SQTrackExpanded="0" MZ.TrackTargeted="1" PannerCurrentValue="0.5" PannerIsInverted="true" PannerStartKeyframe="-91445760000000000,0.5,0,0,0,0,0,0" PannerName="Balance" currentExplodedTrackIndex="0" totalExplodedTrackCount="2" premiereTrackType="Stereo">
									<enabled>TRUE</enabled>
									<locked>FALSE</locked>
									<outputchannelindex>1</outputchannelindex>
								</track>
								<track TL.SQTrackAudioKeyframeStyle="0" TL.SQTrackShy="0" TL.SQTrackExpandedHeight="47" TL.SQTrackExpanded="0" MZ.TrackTargeted="1" PannerCurrentValue="0.5" PannerIsInverted="true" PannerStartKeyframe="-91445760000000000,0.5,0,0,0,0,0,0" PannerName="Balance" currentExplodedTrackIndex="1" totalExplodedTrackCount="2" premiereTrackType="Stereo">
									<enabled>TRUE</enabled>
									<locked>FALSE</locked>
									<outputchannelindex>2</outputchannelindex>
								</track>
								<track TL.SQTrackAudioKeyframeStyle="0" TL.SQTrackShy="0" TL.SQTrackExpandedHeight="21" TL.SQTrackExpanded="0" MZ.TrackTargeted="0" PannerCurrentValue="0.5" PannerIsInverted="true" PannerStartKeyframe="-91445760000000000,0.5,0,0,0,0,0,0" PannerName="Balance" currentExplodedTrackIndex="0" totalExplodedTrackCount="2" premiereTrackType="Stereo">
									<enabled>TRUE</enabled>
									<locked>FALSE</locked>
									<outputchannelindex>1</outputchannelindex>
								</track>
								<track TL.SQTrackAudioKeyframeStyle="0" TL.SQTrackShy="0" TL.SQTrackExpandedHeight="21" TL.SQTrackExpanded="0" MZ.TrackTargeted="0" PannerCurrentValue="0.5" PannerIsInverted="true" PannerStartKeyframe="-91445760000000000,0.5,0,0,0,0,0,0" PannerName="Balance" currentExplodedTrackIndex="1" totalExplodedTrackCount="2" premiereTrackType="Stereo">
									<enabled>TRUE</enabled>
									<locked>FALSE</locked>
									<outputchannelindex>2</outputchannelindex>
								</track>
							</audio>
						</media>
						<timecode>
							<rate>
								<timebase>30</timebase>
								<ntsc>TRUE</ntsc>
							</rate>
							<string>00;00;00;00</string>
							<frame>0</frame>
							<displayformat>DF</displayformat>
						</timecode>
						<labels>
							<label2>Forest</label2>
						</labels>
						<logginginfo>
							<description></description>
							<scene></scene>
							<shottake></shottake>
							<lognote></lognote>
							<good></good>
							<originalvideofilename></originalvideofilename>
							<originalaudiofilename></originalaudiofilename>
						</logginginfo>
					</sequence>
					<sequence id="sequence-28" TL.SQAudioVisibleBase="0" TL.SQVideoVisibleBase="0" TL.SQVisibleBaseTime="0" TL.SQAVDividerPosition="0.5" TL.SQHideShyTracks="0" TL.SQHeaderWidth="236" TL.SQDataTrackViewControlState="0" Monitor.ProgramZoomOut="44717620147200" Monitor.ProgramZoomIn="0" TL.SQTimePerPixel="0.21836879738483719" MZ.EditLine="44319263788800" MZ.Sequence.PreviewFrameSizeHeight="1080" MZ.Sequence.PreviewFrameSizeWidth="1920" MZ.Sequence.AudioTimeDisplayFormat="200" MZ.Sequence.PreviewRenderingClassID="1061109567" MZ.Sequence.PreviewRenderingPresetCodec="1634755443" MZ.Sequence.PreviewRenderingPresetPath="EncoderPresets/SequencePreview/35d109db-457b-43c1-9452-9cb7be9f121c/QuickTime.epr" MZ.Sequence.PreviewUseMaxRenderQuality="false" MZ.Sequence.PreviewUseMaxBitDepth="false" MZ.Sequence.EditingModeGUID="35d109db-457b-43c1-9452-9cb7be9f121c" MZ.Sequence.VideoTimeDisplayFormat="102" MZ.WorkOutPoint="15239249625600" MZ.WorkInPoint="0" explodedTracks="true">
						<uuid>379b8a03-c570-4d21-b1cd-3decf9e79548</uuid>
						<duration>5276</duration>
						<rate>
							<timebase>30</timebase>
							<ntsc>TRUE</ntsc>
						</rate>
						<name>ATM_CRAFTY_190</name>
						<media>
							<video>
								<format>
									<samplecharacteristics>
										<rate>
											<timebase>30</timebase>
											<ntsc>TRUE</ntsc>
										</rate>
										<codec>
											<name>Apple ProRes 422</name>
											<appspecificdata>
												<appname>Final Cut Pro</appname>
												<appmanufacturer>Apple Inc.</appmanufacturer>
												<appversion>7.0</appversion>
												<data>
													<qtcodec>
														<codecname>Apple ProRes 422</codecname>
														<codectypename>Apple ProRes 422</codectypename>
														<codectypecode>apcn</codectypecode>
														<codecvendorcode>appl</codecvendorcode>
														<spatialquality>1024</spatialquality>
														<temporalquality>0</temporalquality>
														<keyframerate>0</keyframerate>
														<datarate>0</datarate>
													</qtcodec>
												</data>
											</appspecificdata>
										</codec>
										<width>1920</width>
										<height>1080</height>
										<anamorphic>FALSE</anamorphic>
										<pixelaspectratio>square</pixelaspectratio>
										<fielddominance>none</fielddominance>
										<colordepth>24</colordepth>
									</samplecharacteristics>
								</format>
								<track TL.SQTrackShy="0" TL.SQTrackExpandedHeight="25" TL.SQTrackExpanded="0" MZ.TrackTargeted="1">
									<clipitem id="clipitem-306">
										<masterclipid>masterclip-97</masterclipid>
										<name>DIY_IT'SALWAYSBUNNY_1.5</name>
										<enabled>TRUE</enabled>
										<duration>2571</duration>
										<rate>
											<timebase>30</timebase>
											<ntsc>TRUE</ntsc>
										</rate>
										<start>0</start>
										<end>2571</end>
										<in>0</in>
										<out>2571</out>
										<pproTicksIn>0</pproTicksIn>
										<pproTicksOut>21790940371200</pproTicksOut>
										<sequence id="sequence-29" TL.SQAudioVisibleBase="0" TL.SQVideoVisibleBase="0" TL.SQVisibleBaseTime="0" TL.SQAVDividerPosition="0.5" TL.SQHideShyTracks="0" TL.SQHeaderWidth="236" TL.SQDataTrackViewControlState="0" Monitor.ProgramZoomOut="21790940371200" Monitor.ProgramZoomIn="0" TL.SQTimePerPixel="0.10455525468210289" MZ.EditLine="20578919961600" MZ.Sequence.PreviewFrameSizeHeight="1080" MZ.Sequence.PreviewFrameSizeWidth="1920" MZ.Sequence.AudioTimeDisplayFormat="200" MZ.Sequence.PreviewRenderingClassID="1061109567" MZ.Sequence.PreviewRenderingPresetCodec="1634755443" MZ.Sequence.PreviewRenderingPresetPath="EncoderPresets/SequencePreview/35d109db-457b-43c1-9452-9cb7be9f121c/QuickTime.epr" MZ.Sequence.PreviewUseMaxRenderQuality="false" MZ.Sequence.PreviewUseMaxBitDepth="false" MZ.Sequence.EditingModeGUID="35d109db-457b-43c1-9452-9cb7be9f121c" MZ.Sequence.VideoTimeDisplayFormat="102" MZ.WorkOutPoint="21790940371200" MZ.WorkInPoint="0">
											<duration>2571</duration>
											<rate>
												<timebase>30</timebase>
												<ntsc>TRUE</ntsc>
											</rate>
											<name>DIY_IT'SALWAYSBUNNY_1.5</name>
											<media>
												<video>
													<format>
														<samplecharacteristics>
															<rate>
																<timebase>30</timebase>
																<ntsc>TRUE</ntsc>
															</rate>
															<codec>
																<name>Apple ProRes 422</name>
																<appspecificdata>
																	<appname>Final Cut Pro</appname>
																	<appmanufacturer>Apple Inc.</appmanufacturer>
																	<appversion>7.0</appversion>
																	<data>
																		<qtcodec>
																			<codecname>Apple ProRes 422</codecname>
																			<codectypename>Apple ProRes 422</codectypename>
																			<codectypecode>apcn</codectypecode>
																			<codecvendorcode>appl</codecvendorcode>
																			<spatialquality>1024</spatialquality>
																			<temporalquality>0</temporalquality>
																			<keyframerate>0</keyframerate>
																			<datarate>0</datarate>
																		</qtcodec>
																	</data>
																</appspecificdata>
															</codec>
															<width>1920</width>
															<height>1080</height>
															<anamorphic>FALSE</anamorphic>
															<pixelaspectratio>square</pixelaspectratio>
															<fielddominance>none</fielddominance>
															<colordepth>24</colordepth>
														</samplecharacteristics>
													</format>
													<track TL.SQTrackShy="0" TL.SQTrackExpandedHeight="25" TL.SQTrackExpanded="0" MZ.TrackTargeted="1">
														<clipitem id="clipitem-307">
															<masterclipid>masterclip-98</masterclipid>
															<name>(Coffee N Crafting)_BEST SPRING &amp; EASTER Diy's of 2022~Dollar Tree Diy's~Rustic Farmhouse~_mtnS88FpEvI_YT.mp4</name>
															<enabled>TRUE</enabled>
															<duration>65840</duration>
															<rate>
																<timebase>30</timebase>
																<ntsc>TRUE</ntsc>
															</rate>
															<start>0</start>
															<end>150</end>
															<in>34647</in>
															<out>34796</out>
															<pproTicksIn>279951287616000</pproTicksIn>
															<pproTicksOut>281163308025600</pproTicksOut>
															<alphatype>none</alphatype>
															<pixelaspectratio>square</pixelaspectratio>
															<anamorphic>FALSE</anamorphic>
															<file id="file-79">
																<name>(Coffee N Crafting)_BEST SPRING &amp; EASTER Diy's of 2022~Dollar Tree Diy's~Rustic Farmhouse~_mtnS88FpEvI_YT.mp4</name>
																<pathurl>file://localhost/Volumes/CONTENT/VOD%20CONTENT%20ARCHIVE/O&amp;O%20Archive%202023/CRAFTY/03_March/Crafty_3-20-2023/3_Raw%20Files/Easter%20DIY'S/(Coffee%20N%20Crafting)_BEST%20SPRING%20&amp;%20EASTER%20Diy's%20of%202022~Dollar%20Tree%20Diy's~Rustic%20Farmhouse~_mtnS88FpEvI_YT.mp4</pathurl>
																<rate>
																	<timebase>30</timebase>
																	<ntsc>FALSE</ntsc>
																</rate>
																<duration>62831</duration>
																<timecode>
																	<rate>
																		<timebase>30</timebase>
																		<ntsc>FALSE</ntsc>
																	</rate>
																	<string>00:00:00:00</string>
																	<frame>0</frame>
																	<displayformat>NDF</displayformat>
																</timecode>
																<media>
																	<video>
																		<samplecharacteristics>
																			<rate>
																				<timebase>30</timebase>
																				<ntsc>FALSE</ntsc>
																			</rate>
																			<width>1920</width>
																			<height>1080</height>
																			<anamorphic>FALSE</anamorphic>
																			<pixelaspectratio>square</pixelaspectratio>
																			<fielddominance>none</fielddominance>
																		</samplecharacteristics>
																	</video>
																	<audio>
																		<samplecharacteristics>
																			<depth>16</depth>
																			<samplerate>44100</samplerate>
																		</samplecharacteristics>
																		<channelcount>2</channelcount>
																	</audio>
																</media>
															</file>
															<filter>
																<effect>
																	<name>Time Remap</name>
																	<effectid>timeremap</effectid>
																	<effectcategory>motion</effectcategory>
																	<effecttype>motion</effecttype>
																	<mediatype>video</mediatype>
																	<parameter authoringApp="PremierePro">
																		<parameterid>variablespeed</parameterid>
																		<name>variablespeed</name>
																		<valuemin>0</valuemin>
																		<valuemax>1</valuemax>
																		<value>0</value>
																	</parameter>
																	<parameter authoringApp="PremierePro">
																		<parameterid>speed</parameterid>
																		<name>speed</name>
																		<valuemin>-100000</valuemin>
																		<valuemax>100000</valuemax>
																		<value>95.3333</value>
																	</parameter>
																	<parameter authoringApp="PremierePro">
																		<parameterid>reverse</parameterid>
																		<name>reverse</name>
																		<value>FALSE</value>
																	</parameter>
																	<parameter authoringApp="PremierePro">
																		<parameterid>frameblending</parameterid>
																		<name>frameblending</name>
																		<value>FALSE</value>
																	</parameter>
																	<parameter authoringApp="PremierePro">
																		<parameterid>graphdict</parameterid>
																		<name>graphdict</name>
																		<valuemin>0</valuemin>
																		<valuemax>62767</valuemax>
																		<value>0</value>
																		<keyframe>
																			<when>0</when>
																			<value>0</value>
																			<speedvirtualkf>TRUE</speedvirtualkf>
																			<speedkfstart>TRUE</speedkfstart>
																		</keyframe>
																		<keyframe>
																			<when>34647</when>
																			<value>33030</value>
																			<speedvirtualkf>TRUE</speedvirtualkf>
																			<speedkfin>TRUE</speedkfin>
																		</keyframe>
																		<keyframe>
																			<when>34796</when>
																			<value>33172</value>
																			<speedvirtualkf>TRUE</speedvirtualkf>
																			<speedkfout>TRUE</speedkfout>
																		</keyframe>
																		<keyframe>
																			<when>65840</when>
																			<value>62767</value>
																			<speedvirtualkf>TRUE</speedvirtualkf>
																			<speedkfend>TRUE</speedkfend>
																		</keyframe>
																		<interpolation>
																			<name>FCPCurve</name>
																		</interpolation>
																	</parameter>
																</effect>
															</filter>
															<logginginfo>
																<description></description>
																<scene></scene>
																<shottake></shottake>
																<lognote>https://www.youtube.com/watch?v=mtnS88FpEvI</lognote>
																<good></good>
																<originalvideofilename></originalvideofilename>
																<originalaudiofilename></originalaudiofilename>
															</logginginfo>
															<colorinfo>
																<lut></lut>
																<lut1></lut1>
																<asc_sop></asc_sop>
																<asc_sat></asc_sat>
																<lut2></lut2>
															</colorinfo>
															<labels>
																<label2>Iris</label2>
															</labels>
														</clipitem>
														<clipitem id="clipitem-308">
															<masterclipid>masterclip-98</masterclipid>
															<name>(Coffee N Crafting)_BEST SPRING &amp; EASTER Diy's of 2022~Dollar Tree Diy's~Rustic Farmhouse~_mtnS88FpEvI_YT.mp4</name>
															<enabled>TRUE</enabled>
															<duration>62768</duration>
															<rate>
																<timebase>30</timebase>
																<ntsc>TRUE</ntsc>
															</rate>
															<start>150</start>
															<end>690</end>
															<in>7431</in>
															<out>7971</out>
															<pproTicksIn>62982682963200</pproTicksIn>
															<pproTicksOut>67559543251200</pproTicksOut>
															<alphatype>none</alphatype>
															<file id="file-79"/>
															<logginginfo>
																<description></description>
																<scene></scene>
																<shottake></shottake>
																<lognote>https://www.youtube.com/watch?v=mtnS88FpEvI</lognote>
																<good></good>
																<originalvideofilename></originalvideofilename>
																<originalaudiofilename></originalaudiofilename>
															</logginginfo>
															<colorinfo>
																<lut></lut>
																<lut1></lut1>
																<asc_sop></asc_sop>
																<asc_sat></asc_sat>
																<lut2></lut2>
															</colorinfo>
															<labels>
																<label2>Iris</label2>
															</labels>
														</clipitem>
														<clipitem id="clipitem-309">
															<masterclipid>masterclip-98</masterclipid>
															<name>(Coffee N Crafting)_BEST SPRING &amp; EASTER Diy's of 2022~Dollar Tree Diy's~Rustic Farmhouse~_mtnS88FpEvI_YT.mp4</name>
															<enabled>TRUE</enabled>
															<duration>62768</duration>
															<rate>
																<timebase>30</timebase>
																<ntsc>TRUE</ntsc>
															</rate>
															<start>690</start>
															<end>977</end>
															<in>8245</in>
															<out>8532</out>
															<pproTicksIn>69881876064000</pproTicksIn>
															<pproTicksOut>72314392550400</pproTicksOut>
															<alphatype>none</alphatype>
															<file id="file-79"/>
															<logginginfo>
																<description></description>
																<scene></scene>
																<shottake></shottake>
																<lognote>https://www.youtube.com/watch?v=mtnS88FpEvI</lognote>
																<good></good>
																<originalvideofilename></originalvideofilename>
																<originalaudiofilename></originalaudiofilename>
															</logginginfo>
															<colorinfo>
																<lut></lut>
																<lut1></lut1>
																<asc_sop></asc_sop>
																<asc_sat></asc_sat>
																<lut2></lut2>
															</colorinfo>
															<labels>
																<label2>Iris</label2>
															</labels>
														</clipitem>
														<clipitem id="clipitem-310">
															<masterclipid>masterclip-98</masterclipid>
															<name>(Coffee N Crafting)_BEST SPRING &amp; EASTER Diy's of 2022~Dollar Tree Diy's~Rustic Farmhouse~_mtnS88FpEvI_YT.mp4</name>
															<enabled>TRUE</enabled>
															<duration>62768</duration>
															<rate>
																<timebase>30</timebase>
																<ntsc>TRUE</ntsc>
															</rate>
															<start>977</start>
															<end>1182</end>
															<in>9093</in>
															<out>9298</out>
															<pproTicksIn>77069241849600</pproTicksIn>
															<pproTicksOut>78806753625600</pproTicksOut>
															<alphatype>none</alphatype>
															<file id="file-79"/>
															<logginginfo>
																<description></description>
																<scene></scene>
																<shottake></shottake>
																<lognote>https://www.youtube.com/watch?v=mtnS88FpEvI</lognote>
																<good></good>
																<originalvideofilename></originalvideofilename>
																<originalaudiofilename></originalaudiofilename>
															</logginginfo>
															<colorinfo>
																<lut></lut>
																<lut1></lut1>
																<asc_sop></asc_sop>
																<asc_sat></asc_sat>
																<lut2></lut2>
															</colorinfo>
															<labels>
																<label2>Iris</label2>
															</labels>
														</clipitem>
														<clipitem id="clipitem-311">
															<masterclipid>masterclip-98</masterclipid>
															<name>(Coffee N Crafting)_BEST SPRING &amp; EASTER Diy's of 2022~Dollar Tree Diy's~Rustic Farmhouse~_mtnS88FpEvI_YT.mp4</name>
															<enabled>TRUE</enabled>
															<duration>62768</duration>
															<rate>
																<timebase>30</timebase>
																<ntsc>TRUE</ntsc>
															</rate>
															<start>1182</start>
															<end>1443</end>
															<in>9611</in>
															<out>9872</out>
															<pproTicksIn>81459637459200</pproTicksIn>
															<pproTicksOut>83671786598400</pproTicksOut>
															<alphatype>none</alphatype>
															<file id="file-79"/>
															<logginginfo>
																<description></description>
																<scene></scene>
																<shottake></shottake>
																<lognote>https://www.youtube.com/watch?v=mtnS88FpEvI</lognote>
																<good></good>
																<originalvideofilename></originalvideofilename>
																<originalaudiofilename></originalaudiofilename>
															</logginginfo>
															<colorinfo>
																<lut></lut>
																<lut1></lut1>
																<asc_sop></asc_sop>
																<asc_sat></asc_sat>
																<lut2></lut2>
															</colorinfo>
															<labels>
																<label2>Iris</label2>
															</labels>
														</clipitem>
														<clipitem id="clipitem-312">
															<masterclipid>masterclip-98</masterclipid>
															<name>(Coffee N Crafting)_BEST SPRING &amp; EASTER Diy's of 2022~Dollar Tree Diy's~Rustic Farmhouse~_mtnS88FpEvI_YT.mp4</name>
															<enabled>TRUE</enabled>
															<duration>62768</duration>
															<rate>
																<timebase>30</timebase>
																<ntsc>TRUE</ntsc>
															</rate>
															<start>1443</start>
															<end>1744</end>
															<in>10146</in>
															<out>10447</out>
															<pproTicksIn>85994119411200</pproTicksIn>
															<pproTicksOut>88545295238400</pproTicksOut>
															<alphatype>none</alphatype>
															<file id="file-79"/>
															<logginginfo>
																<description></description>
																<scene></scene>
																<shottake></shottake>
																<lognote>https://www.youtube.com/watch?v=mtnS88FpEvI</lognote>
																<good></good>
																<originalvideofilename></originalvideofilename>
																<originalaudiofilename></originalaudiofilename>
															</logginginfo>
															<colorinfo>
																<lut></lut>
																<lut1></lut1>
																<asc_sop></asc_sop>
																<asc_sat></asc_sat>
																<lut2></lut2>
															</colorinfo>
															<labels>
																<label2>Iris</label2>
															</labels>
														</clipitem>
														<clipitem id="clipitem-313">
															<masterclipid>masterclip-98</masterclipid>
															<name>(Coffee N Crafting)_BEST SPRING &amp; EASTER Diy's of 2022~Dollar Tree Diy's~Rustic Farmhouse~_mtnS88FpEvI_YT.mp4</name>
															<enabled>TRUE</enabled>
															<duration>62768</duration>
															<rate>
																<timebase>30</timebase>
																<ntsc>TRUE</ntsc>
															</rate>
															<start>1744</start>
															<end>2428</end>
															<in>10611</in>
															<out>11295</out>
															<pproTicksIn>89935304659200</pproTicksIn>
															<pproTicksOut>95732661024000</pproTicksOut>
															<alphatype>none</alphatype>
															<file id="file-79"/>
															<logginginfo>
																<description></description>
																<scene></scene>
																<shottake></shottake>
																<lognote>https://www.youtube.com/watch?v=mtnS88FpEvI</lognote>
																<good></good>
																<originalvideofilename></originalvideofilename>
																<originalaudiofilename></originalaudiofilename>
															</logginginfo>
															<colorinfo>
																<lut></lut>
																<lut1></lut1>
																<asc_sop></asc_sop>
																<asc_sat></asc_sat>
																<lut2></lut2>
															</colorinfo>
															<labels>
																<label2>Iris</label2>
															</labels>
														</clipitem>
														<clipitem id="clipitem-314">
															<masterclipid>masterclip-98</masterclipid>
															<name>(Coffee N Crafting)_BEST SPRING &amp; EASTER Diy's of 2022~Dollar Tree Diy's~Rustic Farmhouse~_mtnS88FpEvI_YT.mp4</name>
															<enabled>TRUE</enabled>
															<duration>62768</duration>
															<rate>
																<timebase>30</timebase>
																<ntsc>TRUE</ntsc>
															</rate>
															<start>2428</start>
															<end>2571</end>
															<in>33030</in>
															<out>33173</out>
															<pproTicksIn>279951287616000</pproTicksIn>
															<pproTicksOut>281163308025600</pproTicksOut>
															<alphatype>none</alphatype>
															<file id="file-79"/>
															<logginginfo>
																<description></description>
																<scene></scene>
																<shottake></shottake>
																<lognote>https://www.youtube.com/watch?v=mtnS88FpEvI</lognote>
																<good></good>
																<originalvideofilename></originalvideofilename>
																<originalaudiofilename></originalaudiofilename>
															</logginginfo>
															<colorinfo>
																<lut></lut>
																<lut1></lut1>
																<asc_sop></asc_sop>
																<asc_sat></asc_sat>
																<lut2></lut2>
															</colorinfo>
															<labels>
																<label2>Iris</label2>
															</labels>
														</clipitem>
														<enabled>TRUE</enabled>
														<locked>FALSE</locked>
													</track>
													<track TL.SQTrackShy="0" TL.SQTrackExpandedHeight="25" TL.SQTrackExpanded="0" MZ.TrackTargeted="0">
														<clipitem id="clipitem-315">
															<masterclipid>masterclip-99</masterclipid>
															<name>COFFEE N CRAFTING</name>
															<enabled>TRUE</enabled>
															<duration>5844</duration>
															<rate>
																<timebase>30</timebase>
																<ntsc>TRUE</ntsc>
															</rate>
															<start>0</start>
															<end>2571</end>
															<in>0</in>
															<out>2571</out>
															<pproTicksIn>0</pproTicksIn>
															<pproTicksOut>21790940371200</pproTicksOut>
															<alphatype>straight</alphatype>
															<pixelaspectratio>square</pixelaspectratio>
															<anamorphic>FALSE</anamorphic>
															<file id="file-80">
																<name>1080/AE Attribution.aep</name>
																<pathurl>file://localhost/Volumes/ATM%20JR%202TB/Master%20Assets/AE%20Attribution.aep</pathurl>
																<rate>
																	<timebase>30</timebase>
																	<ntsc>TRUE</ntsc>
																</rate>
																<duration>5844</duration>
																<timecode>
																	<rate>
																		<timebase>30</timebase>
																		<ntsc>TRUE</ntsc>
																	</rate>
																	<string>00;00;00;00</string>
																	<frame>0</frame>
																	<displayformat>DF</displayformat>
																</timecode>
																<media>
																	<video>
																		<samplecharacteristics>
																			<rate>
																				<timebase>30</timebase>
																				<ntsc>TRUE</ntsc>
																			</rate>
																			<width>1920</width>
																			<height>1080</height>
																			<anamorphic>FALSE</anamorphic>
																			<pixelaspectratio>square</pixelaspectratio>
																			<fielddominance>lower</fielddominance>
																		</samplecharacteristics>
																	</video>
																</media>
															</file>
															<logginginfo>
																<description></description>
																<scene></scene>
																<shottake></shottake>
																<lognote></lognote>
																<good></good>
																<originalvideofilename></originalvideofilename>
																<originalaudiofilename></originalaudiofilename>
															</logginginfo>
															<colorinfo>
																<lut></lut>
																<lut1></lut1>
																<asc_sop></asc_sop>
																<asc_sat></asc_sat>
																<lut2></lut2>
															</colorinfo>
															<labels>
																<label2>Rose</label2>
															</labels>
														</clipitem>
														<enabled>TRUE</enabled>
														<locked>FALSE</locked>
													</track>
													<track TL.SQTrackShy="0" TL.SQTrackExpandedHeight="25" TL.SQTrackExpanded="0" MZ.TrackTargeted="0">
														<enabled>TRUE</enabled>
														<locked>FALSE</locked>
													</track>
												</video>
												<audio>
													<numOutputChannels>2</numOutputChannels>
													<format>
														<samplecharacteristics>
															<depth>16</depth>
															<samplerate>48000</samplerate>
														</samplecharacteristics>
													</format>
													<outputs>
														<group>
															<index>1</index>
															<numchannels>1</numchannels>
															<downmix>0</downmix>
															<channel>
																<index>1</index>
															</channel>
														</group>
														<group>
															<index>2</index>
															<numchannels>1</numchannels>
															<downmix>0</downmix>
															<channel>
																<index>2</index>
															</channel>
														</group>
													</outputs>
													<track TL.SQTrackAudioKeyframeStyle="0" TL.SQTrackShy="0" TL.SQTrackExpandedHeight="25" TL.SQTrackExpanded="0" MZ.TrackTargeted="1" PannerCurrentValue="0.5" PannerIsInverted="true" PannerStartKeyframe="-91445760000000000,0.5,0,0,0,0,0,0" PannerName="Balance" currentExplodedTrackIndex="0" totalExplodedTrackCount="2" premiereTrackType="Stereo">
														<enabled>TRUE</enabled>
														<locked>FALSE</locked>
														<outputchannelindex>1</outputchannelindex>
													</track>
													<track TL.SQTrackAudioKeyframeStyle="0" TL.SQTrackShy="0" TL.SQTrackExpandedHeight="25" TL.SQTrackExpanded="0" MZ.TrackTargeted="1" PannerCurrentValue="0.5" PannerIsInverted="true" PannerStartKeyframe="-91445760000000000,0.5,0,0,0,0,0,0" PannerName="Balance" currentExplodedTrackIndex="1" totalExplodedTrackCount="2" premiereTrackType="Stereo">
														<enabled>TRUE</enabled>
														<locked>FALSE</locked>
														<outputchannelindex>2</outputchannelindex>
													</track>
												</audio>
											</media>
											<timecode>
												<rate>
													<timebase>30</timebase>
													<ntsc>TRUE</ntsc>
												</rate>
												<string>00;00;00;00</string>
												<frame>0</frame>
												<displayformat>DF</displayformat>
											</timecode>
											<logginginfo>
												<description></description>
												<scene></scene>
												<shottake></shottake>
												<lognote></lognote>
												<good></good>
												<originalvideofilename></originalvideofilename>
												<originalaudiofilename></originalaudiofilename>
											</logginginfo>
										</sequence>
										<labels>
											<label2>Forest</label2>
										</labels>
									</clipitem>
									<clipitem id="clipitem-316">
										<masterclipid>masterclip-100</masterclipid>
										<name>BEAUTY_MIDNIGHTSINSPIREDMAKEUP_1.5</name>
										<enabled>TRUE</enabled>
										<duration>2530</duration>
										<rate>
											<timebase>30</timebase>
											<ntsc>TRUE</ntsc>
										</rate>
										<start>2642</start>
										<end>5172</end>
										<in>0</in>
										<out>2530</out>
										<pproTicksIn>0</pproTicksIn>
										<pproTicksOut>21443438016000</pproTicksOut>
										<sequence id="sequence-30" TL.SQAudioVisibleBase="0" TL.SQVideoVisibleBase="0" TL.SQVisibleBaseTime="8135419911829" TL.SQAVDividerPosition="0.5" TL.SQHideShyTracks="0" TL.SQHeaderWidth="236" Monitor.ProgramZoomOut="21443438016000" Monitor.ProgramZoomIn="0" TL.SQTimePerPixel="0.21565386567291056" MZ.EditLine="0" MZ.Sequence.PreviewFrameSizeHeight="1080" MZ.Sequence.PreviewFrameSizeWidth="1920" MZ.Sequence.AudioTimeDisplayFormat="200" MZ.Sequence.PreviewRenderingClassID="1061109567" MZ.Sequence.PreviewRenderingPresetCodec="1634755443" MZ.Sequence.PreviewRenderingPresetPath="EncoderPresets/SequencePreview/35d109db-457b-43c1-9452-9cb7be9f121c/QuickTime.epr" MZ.Sequence.PreviewUseMaxRenderQuality="false" MZ.Sequence.PreviewUseMaxBitDepth="false" MZ.Sequence.EditingModeGUID="35d109db-457b-43c1-9452-9cb7be9f121c" MZ.Sequence.VideoTimeDisplayFormat="102" MZ.WorkOutPoint="21443438016000" MZ.WorkInPoint="0">
											<duration>2530</duration>
											<rate>
												<timebase>30</timebase>
												<ntsc>TRUE</ntsc>
											</rate>
											<name>BEAUTY_MIDNIGHTSINSPIREDMAKEUP_1.5</name>
											<media>
												<video>
													<format>
														<samplecharacteristics>
															<rate>
																<timebase>30</timebase>
																<ntsc>TRUE</ntsc>
															</rate>
															<codec>
																<name>Apple ProRes 422</name>
																<appspecificdata>
																	<appname>Final Cut Pro</appname>
																	<appmanufacturer>Apple Inc.</appmanufacturer>
																	<appversion>7.0</appversion>
																	<data>
																		<qtcodec>
																			<codecname>Apple ProRes 422</codecname>
																			<codectypename>Apple ProRes 422</codectypename>
																			<codectypecode>apcn</codectypecode>
																			<codecvendorcode>appl</codecvendorcode>
																			<spatialquality>1024</spatialquality>
																			<temporalquality>0</temporalquality>
																			<keyframerate>0</keyframerate>
																			<datarate>0</datarate>
																		</qtcodec>
																	</data>
																</appspecificdata>
															</codec>
															<width>1920</width>
															<height>1080</height>
															<anamorphic>FALSE</anamorphic>
															<pixelaspectratio>square</pixelaspectratio>
															<fielddominance>none</fielddominance>
															<colordepth>24</colordepth>
														</samplecharacteristics>
													</format>
													<track TL.SQTrackShy="0" TL.SQTrackExpandedHeight="25" TL.SQTrackExpanded="0" MZ.TrackTargeted="1">
														<clipitem id="clipitem-317">
															<masterclipid>masterclip-101</masterclipid>
															<name>(AverageJo)_Taylor Swift Midnights Album Inspired Makeup Tutorial_ll7C7IpC8Us_YT.mp4</name>
															<enabled>TRUE</enabled>
															<duration>9896</duration>
															<rate>
																<timebase>30</timebase>
																<ntsc>TRUE</ntsc>
															</rate>
															<start>0</start>
															<end>369</end>
															<in>817</in>
															<out>1186</out>
															<pproTicksIn>6924620102400</pproTicksIn>
															<pproTicksOut>10052141299200</pproTicksOut>
															<alphatype>none</alphatype>
															<pixelaspectratio>square</pixelaspectratio>
															<anamorphic>FALSE</anamorphic>
															<file id="file-81">
																<name>(AverageJo)_Taylor Swift Midnights Album Inspired Makeup Tutorial_ll7C7IpC8Us_YT.mp4</name>
																<pathurl>file://localhost/Volumes/CONTENT/VOD%20CONTENT%20ARCHIVE/O&amp;O%20Archive%202023/CRAFTY/03_March/Crafty_3-20-2023/3_Raw%20Files/midnights%20inspired%20makeup/(AverageJo)_Taylor%20Swift%20Midnights%20Album%20Inspired%20Makeup%20Tutorial_ll7C7IpC8Us_YT.mp4</pathurl>
																<rate>
																	<timebase>30</timebase>
																	<ntsc>TRUE</ntsc>
																</rate>
																<duration>9896</duration>
																<timecode>
																	<rate>
																		<timebase>30</timebase>
																		<ntsc>TRUE</ntsc>
																	</rate>
																	<string>00:00:00:00</string>
																	<frame>0</frame>
																	<displayformat>NDF</displayformat>
																</timecode>
																<media>
																	<video>
																		<samplecharacteristics>
																			<rate>
																				<timebase>30</timebase>
																				<ntsc>TRUE</ntsc>
																			</rate>
																			<width>1920</width>
																			<height>1080</height>
																			<anamorphic>FALSE</anamorphic>
																			<pixelaspectratio>square</pixelaspectratio>
																			<fielddominance>none</fielddominance>
																		</samplecharacteristics>
																	</video>
																	<audio>
																		<samplecharacteristics>
																			<depth>16</depth>
																			<samplerate>44100</samplerate>
																		</samplecharacteristics>
																		<channelcount>2</channelcount>
																	</audio>
																</media>
															</file>
															<logginginfo>
																<description></description>
																<scene></scene>
																<shottake></shottake>
																<lognote>https://www.youtube.com/watch?v=ll7C7IpC8Us</lognote>
																<good></good>
																<originalvideofilename></originalvideofilename>
																<originalaudiofilename></originalaudiofilename>
															</logginginfo>
															<colorinfo>
																<lut></lut>
																<lut1></lut1>
																<asc_sop></asc_sop>
																<asc_sat></asc_sat>
																<lut2></lut2>
															</colorinfo>
															<labels>
																<label2>Iris</label2>
															</labels>
														</clipitem>
														<clipitem id="clipitem-318">
															<masterclipid>masterclip-101</masterclipid>
															<name>(AverageJo)_Taylor Swift Midnights Album Inspired Makeup Tutorial_ll7C7IpC8Us_YT.mp4</name>
															<enabled>TRUE</enabled>
															<duration>9896</duration>
															<rate>
																<timebase>30</timebase>
																<ntsc>TRUE</ntsc>
															</rate>
															<start>369</start>
															<end>781</end>
															<in>2118</in>
															<out>2530</out>
															<pproTicksIn>17951463129600</pproTicksIn>
															<pproTicksOut>21443438016000</pproTicksOut>
															<alphatype>none</alphatype>
															<file id="file-81"/>
															<logginginfo>
																<description></description>
																<scene></scene>
																<shottake></shottake>
																<lognote>https://www.youtube.com/watch?v=ll7C7IpC8Us</lognote>
																<good></good>
																<originalvideofilename></originalvideofilename>
																<originalaudiofilename></originalaudiofilename>
															</logginginfo>
															<colorinfo>
																<lut></lut>
																<lut1></lut1>
																<asc_sop></asc_sop>
																<asc_sat></asc_sat>
																<lut2></lut2>
															</colorinfo>
															<labels>
																<label2>Iris</label2>
															</labels>
														</clipitem>
														<clipitem id="clipitem-319">
															<masterclipid>masterclip-101</masterclipid>
															<name>(AverageJo)_Taylor Swift Midnights Album Inspired Makeup Tutorial_ll7C7IpC8Us_YT.mp4</name>
															<enabled>TRUE</enabled>
															<duration>9896</duration>
															<rate>
																<timebase>30</timebase>
																<ntsc>TRUE</ntsc>
															</rate>
															<start>781</start>
															<end>1115</end>
															<in>3525</in>
															<out>3859</out>
															<pproTicksIn>29876726880000</pproTicksIn>
															<pproTicksOut>32707599724800</pproTicksOut>
															<alphatype>none</alphatype>
															<file id="file-81"/>
															<logginginfo>
																<description></description>
																<scene></scene>
																<shottake></shottake>
																<lognote>https://www.youtube.com/watch?v=ll7C7IpC8Us</lognote>
																<good></good>
																<originalvideofilename></originalvideofilename>
																<originalaudiofilename></originalaudiofilename>
															</logginginfo>
															<colorinfo>
																<lut></lut>
																<lut1></lut1>
																<asc_sop></asc_sop>
																<asc_sat></asc_sat>
																<lut2></lut2>
															</colorinfo>
															<labels>
																<label2>Iris</label2>
															</labels>
														</clipitem>
														<clipitem id="clipitem-320">
															<masterclipid>masterclip-101</masterclipid>
															<name>(AverageJo)_Taylor Swift Midnights Album Inspired Makeup Tutorial_ll7C7IpC8Us_YT.mp4</name>
															<enabled>TRUE</enabled>
															<duration>9896</duration>
															<rate>
																<timebase>30</timebase>
																<ntsc>TRUE</ntsc>
															</rate>
															<start>1115</start>
															<end>1337</end>
															<in>4056</in>
															<out>4278</out>
															<pproTicksIn>34377306163200</pproTicksIn>
															<pproTicksOut>36258904281600</pproTicksOut>
															<alphatype>none</alphatype>
															<file id="file-81"/>
															<logginginfo>
																<description></description>
																<scene></scene>
																<shottake></shottake>
																<lognote>https://www.youtube.com/watch?v=ll7C7IpC8Us</lognote>
																<good></good>
																<originalvideofilename></originalvideofilename>
																<originalaudiofilename></originalaudiofilename>
															</logginginfo>
															<colorinfo>
																<lut></lut>
																<lut1></lut1>
																<asc_sop></asc_sop>
																<asc_sat></asc_sat>
																<lut2></lut2>
															</colorinfo>
															<labels>
																<label2>Iris</label2>
															</labels>
														</clipitem>
														<clipitem id="clipitem-321">
															<masterclipid>masterclip-101</masterclipid>
															<name>(AverageJo)_Taylor Swift Midnights Album Inspired Makeup Tutorial_ll7C7IpC8Us_YT.mp4</name>
															<enabled>TRUE</enabled>
															<duration>9896</duration>
															<rate>
																<timebase>30</timebase>
																<ntsc>TRUE</ntsc>
															</rate>
															<start>1337</start>
															<end>1407</end>
															<in>4632</in>
															<out>4702</out>
															<pproTicksIn>39259290470400</pproTicksIn>
															<pproTicksOut>39852587174400</pproTicksOut>
															<alphatype>none</alphatype>
															<file id="file-81"/>
															<logginginfo>
																<description></description>
																<scene></scene>
																<shottake></shottake>
																<lognote>https://www.youtube.com/watch?v=ll7C7IpC8Us</lognote>
																<good></good>
																<originalvideofilename></originalvideofilename>
																<originalaudiofilename></originalaudiofilename>
															</logginginfo>
															<colorinfo>
																<lut></lut>
																<lut1></lut1>
																<asc_sop></asc_sop>
																<asc_sat></asc_sat>
																<lut2></lut2>
															</colorinfo>
															<labels>
																<label2>Iris</label2>
															</labels>
														</clipitem>
														<clipitem id="clipitem-322">
															<masterclipid>masterclip-101</masterclipid>
															<name>(AverageJo)_Taylor Swift Midnights Album Inspired Makeup Tutorial_ll7C7IpC8Us_YT.mp4</name>
															<enabled>TRUE</enabled>
															<duration>9896</duration>
															<rate>
																<timebase>30</timebase>
																<ntsc>TRUE</ntsc>
															</rate>
															<start>1407</start>
															<end>1509</end>
															<in>6236</in>
															<out>6338</out>
															<pproTicksIn>52854260659200</pproTicksIn>
															<pproTicksOut>53718778713600</pproTicksOut>
															<alphatype>none</alphatype>
															<file id="file-81"/>
															<logginginfo>
																<description></description>
																<scene></scene>
																<shottake></shottake>
																<lognote>https://www.youtube.com/watch?v=ll7C7IpC8Us</lognote>
																<good></good>
																<originalvideofilename></originalvideofilename>
																<originalaudiofilename></originalaudiofilename>
															</logginginfo>
															<colorinfo>
																<lut></lut>
																<lut1></lut1>
																<asc_sop></asc_sop>
																<asc_sat></asc_sat>
																<lut2></lut2>
															</colorinfo>
															<labels>
																<label2>Iris</label2>
															</labels>
														</clipitem>
														<clipitem id="clipitem-323">
															<masterclipid>masterclip-101</masterclipid>
															<name>(AverageJo)_Taylor Swift Midnights Album Inspired Makeup Tutorial_ll7C7IpC8Us_YT.mp4</name>
															<enabled>TRUE</enabled>
															<duration>9896</duration>
															<rate>
																<timebase>30</timebase>
																<ntsc>TRUE</ntsc>
															</rate>
															<start>1509</start>
															<end>1717</end>
															<in>6582</in>
															<out>6790</out>
															<pproTicksIn>55786841510400</pproTicksIn>
															<pproTicksOut>57549780288000</pproTicksOut>
															<alphatype>none</alphatype>
															<file id="file-81"/>
															<logginginfo>
																<description></description>
																<scene></scene>
																<shottake></shottake>
																<lognote>https://www.youtube.com/watch?v=ll7C7IpC8Us</lognote>
																<good></good>
																<originalvideofilename></originalvideofilename>
																<originalaudiofilename></originalaudiofilename>
															</logginginfo>
															<colorinfo>
																<lut></lut>
																<lut1></lut1>
																<asc_sop></asc_sop>
																<asc_sat></asc_sat>
																<lut2></lut2>
															</colorinfo>
															<labels>
																<label2>Iris</label2>
															</labels>
														</clipitem>
														<clipitem id="clipitem-324">
															<masterclipid>masterclip-101</masterclipid>
															<name>(AverageJo)_Taylor Swift Midnights Album Inspired Makeup Tutorial_ll7C7IpC8Us_YT.mp4</name>
															<enabled>TRUE</enabled>
															<duration>9896</duration>
															<rate>
																<timebase>30</timebase>
																<ntsc>TRUE</ntsc>
															</rate>
															<start>1717</start>
															<end>1859</end>
															<in>7282</in>
															<out>7424</out>
															<pproTicksIn>61719808550400</pproTicksIn>
															<pproTicksOut>62923353292800</pproTicksOut>
															<alphatype>none</alphatype>
															<file id="file-81"/>
															<logginginfo>
																<description></description>
																<scene></scene>
																<shottake></shottake>
																<lognote>https://www.youtube.com/watch?v=ll7C7IpC8Us</lognote>
																<good></good>
																<originalvideofilename></originalvideofilename>
																<originalaudiofilename></originalaudiofilename>
															</logginginfo>
															<colorinfo>
																<lut></lut>
																<lut1></lut1>
																<asc_sop></asc_sop>
																<asc_sat></asc_sat>
																<lut2></lut2>
															</colorinfo>
															<labels>
																<label2>Iris</label2>
															</labels>
														</clipitem>
														<clipitem id="clipitem-325">
															<masterclipid>masterclip-101</masterclipid>
															<name>(AverageJo)_Taylor Swift Midnights Album Inspired Makeup Tutorial_ll7C7IpC8Us_YT.mp4</name>
															<enabled>TRUE</enabled>
															<duration>9896</duration>
															<rate>
																<timebase>30</timebase>
																<ntsc>TRUE</ntsc>
															</rate>
															<start>1859</start>
															<end>2011</end>
															<in>7526</in>
															<out>7678</out>
															<pproTicksIn>63787871347200</pproTicksIn>
															<pproTicksOut>65076172761600</pproTicksOut>
															<alphatype>none</alphatype>
															<file id="file-81"/>
															<logginginfo>
																<description></description>
																<scene></scene>
																<shottake></shottake>
																<lognote>https://www.youtube.com/watch?v=ll7C7IpC8Us</lognote>
																<good></good>
																<originalvideofilename></originalvideofilename>
																<originalaudiofilename></originalaudiofilename>
															</logginginfo>
															<colorinfo>
																<lut></lut>
																<lut1></lut1>
																<asc_sop></asc_sop>
																<asc_sat></asc_sat>
																<lut2></lut2>
															</colorinfo>
															<labels>
																<label2>Iris</label2>
															</labels>
														</clipitem>
														<clipitem id="clipitem-326">
															<masterclipid>masterclip-101</masterclipid>
															<name>(AverageJo)_Taylor Swift Midnights Album Inspired Makeup Tutorial_ll7C7IpC8Us_YT.mp4</name>
															<enabled>TRUE</enabled>
															<duration>9896</duration>
															<rate>
																<timebase>30</timebase>
																<ntsc>TRUE</ntsc>
															</rate>
															<start>2011</start>
															<end>2451</end>
															<in>8445</in>
															<out>8885</out>
															<pproTicksIn>71577009504000</pproTicksIn>
															<pproTicksOut>75306303072000</pproTicksOut>
															<alphatype>none</alphatype>
															<file id="file-81"/>
															<logginginfo>
																<description></description>
																<scene></scene>
																<shottake></shottake>
																<lognote>https://www.youtube.com/watch?v=ll7C7IpC8Us</lognote>
																<good></good>
																<originalvideofilename></originalvideofilename>
																<originalaudiofilename></originalaudiofilename>
															</logginginfo>
															<colorinfo>
																<lut></lut>
																<lut1></lut1>
																<asc_sop></asc_sop>
																<asc_sat></asc_sat>
																<lut2></lut2>
															</colorinfo>
															<labels>
																<label2>Iris</label2>
															</labels>
														</clipitem>
														<clipitem id="clipitem-327">
															<masterclipid>masterclip-101</masterclipid>
															<name>(AverageJo)_Taylor Swift Midnights Album Inspired Makeup Tutorial_ll7C7IpC8Us_YT.mp4</name>
															<enabled>TRUE</enabled>
															<duration>9896</duration>
															<rate>
																<timebase>30</timebase>
																<ntsc>TRUE</ntsc>
															</rate>
															<start>2451</start>
															<end>2530</end>
															<in>9306</in>
															<out>9385</out>
															<pproTicksIn>78874558963200</pproTicksIn>
															<pproTicksOut>79544136672000</pproTicksOut>
															<alphatype>none</alphatype>
															<file id="file-81"/>
															<logginginfo>
																<description></description>
																<scene></scene>
																<shottake></shottake>
																<lognote>https://www.youtube.com/watch?v=ll7C7IpC8Us</lognote>
																<good></good>
																<originalvideofilename></originalvideofilename>
																<originalaudiofilename></originalaudiofilename>
															</logginginfo>
															<colorinfo>
																<lut></lut>
																<lut1></lut1>
																<asc_sop></asc_sop>
																<asc_sat></asc_sat>
																<lut2></lut2>
															</colorinfo>
															<labels>
																<label2>Iris</label2>
															</labels>
														</clipitem>
														<enabled>TRUE</enabled>
														<locked>FALSE</locked>
													</track>
													<track TL.SQTrackShy="0" TL.SQTrackExpandedHeight="25" TL.SQTrackExpanded="0" MZ.TrackTargeted="0">
														<clipitem id="clipitem-328">
															<masterclipid>masterclip-102</masterclipid>
															<name>AverageJo</name>
															<enabled>TRUE</enabled>
															<duration>5844</duration>
															<rate>
																<timebase>30</timebase>
																<ntsc>TRUE</ntsc>
															</rate>
															<start>0</start>
															<end>2530</end>
															<in>0</in>
															<out>2530</out>
															<pproTicksIn>0</pproTicksIn>
															<pproTicksOut>21443438016000</pproTicksOut>
															<alphatype>straight</alphatype>
															<pixelaspectratio>square</pixelaspectratio>
															<anamorphic>FALSE</anamorphic>
															<file id="file-82">
																<name>1080/AE Attribution.aep</name>
																<pathurl>file://localhost/Volumes/ATM%20JR%202TB/Master%20Assets/AE%20Attribution.aep</pathurl>
																<rate>
																	<timebase>30</timebase>
																	<ntsc>TRUE</ntsc>
																</rate>
																<duration>5844</duration>
																<timecode>
																	<rate>
																		<timebase>30</timebase>
																		<ntsc>TRUE</ntsc>
																	</rate>
																	<string>00;00;00;00</string>
																	<frame>0</frame>
																	<displayformat>DF</displayformat>
																</timecode>
																<media>
																	<video>
																		<samplecharacteristics>
																			<rate>
																				<timebase>30</timebase>
																				<ntsc>TRUE</ntsc>
																			</rate>
																			<width>1920</width>
																			<height>1080</height>
																			<anamorphic>FALSE</anamorphic>
																			<pixelaspectratio>square</pixelaspectratio>
																			<fielddominance>lower</fielddominance>
																		</samplecharacteristics>
																	</video>
																</media>
															</file>
															<logginginfo>
																<description></description>
																<scene></scene>
																<shottake></shottake>
																<lognote></lognote>
																<good></good>
																<originalvideofilename></originalvideofilename>
																<originalaudiofilename></originalaudiofilename>
															</logginginfo>
															<colorinfo>
																<lut></lut>
																<lut1></lut1>
																<asc_sop></asc_sop>
																<asc_sat></asc_sat>
																<lut2></lut2>
															</colorinfo>
															<labels>
																<label2>Rose</label2>
															</labels>
														</clipitem>
														<enabled>TRUE</enabled>
														<locked>FALSE</locked>
													</track>
												</video>
												<audio>
													<numOutputChannels>2</numOutputChannels>
													<format>
														<samplecharacteristics>
															<depth>16</depth>
															<samplerate>48000</samplerate>
														</samplecharacteristics>
													</format>
													<outputs>
														<group>
															<index>1</index>
															<numchannels>1</numchannels>
															<downmix>0</downmix>
															<channel>
																<index>1</index>
															</channel>
														</group>
														<group>
															<index>2</index>
															<numchannels>1</numchannels>
															<downmix>0</downmix>
															<channel>
																<index>2</index>
															</channel>
														</group>
													</outputs>
													<track TL.SQTrackAudioKeyframeStyle="0" TL.SQTrackShy="0" TL.SQTrackExpandedHeight="25" TL.SQTrackExpanded="0" MZ.TrackTargeted="1" PannerCurrentValue="0.5" PannerIsInverted="true" PannerStartKeyframe="-91445760000000000,0.5,0,0,0,0,0,0" PannerName="Balance" currentExplodedTrackIndex="0" totalExplodedTrackCount="2" premiereTrackType="Stereo">
														<enabled>TRUE</enabled>
														<locked>FALSE</locked>
														<outputchannelindex>1</outputchannelindex>
													</track>
													<track TL.SQTrackAudioKeyframeStyle="0" TL.SQTrackShy="0" TL.SQTrackExpandedHeight="25" TL.SQTrackExpanded="0" MZ.TrackTargeted="1" PannerCurrentValue="0.5" PannerIsInverted="true" PannerStartKeyframe="-91445760000000000,0.5,0,0,0,0,0,0" PannerName="Balance" currentExplodedTrackIndex="1" totalExplodedTrackCount="2" premiereTrackType="Stereo">
														<enabled>TRUE</enabled>
														<locked>FALSE</locked>
														<outputchannelindex>2</outputchannelindex>
													</track>
												</audio>
											</media>
											<timecode>
												<rate>
													<timebase>30</timebase>
													<ntsc>TRUE</ntsc>
												</rate>
												<string>00;00;00;00</string>
												<frame>0</frame>
												<displayformat>DF</displayformat>
											</timecode>
											<logginginfo>
												<description></description>
												<scene></scene>
												<shottake></shottake>
												<lognote></lognote>
												<good></good>
												<originalvideofilename></originalvideofilename>
												<originalaudiofilename></originalaudiofilename>
											</logginginfo>
										</sequence>
										<labels>
											<label2>Forest</label2>
										</labels>
									</clipitem>
									<enabled>TRUE</enabled>
									<locked>FALSE</locked>
								</track>
								<track TL.SQTrackShy="0" TL.SQTrackExpandedHeight="25" TL.SQTrackExpanded="0" MZ.TrackTargeted="0">
									<clipitem id="clipitem-329">
										<masterclipid>masterclip-103</masterclipid>
										<name>IT'S ALWAYS BUNNY</name>
										<enabled>TRUE</enabled>
										<duration>5695</duration>
										<rate>
											<timebase>30</timebase>
											<ntsc>TRUE</ntsc>
										</rate>
										<start>0</start>
										<end>2571</end>
										<in>0</in>
										<out>2571</out>
										<pproTicksIn>0</pproTicksIn>
										<pproTicksOut>21790940371200</pproTicksOut>
										<alphatype>straight</alphatype>
										<pixelaspectratio>square</pixelaspectratio>
										<anamorphic>FALSE</anamorphic>
										<file id="file-83">
											<name>CRAFTY_L3RD_01_JL_V03/CRAFTY_L3RD_01_JL_V03.aep</name>
											<pathurl>file://localhost/Volumes/ATM%20JR%202TB/Master%20Assets/CRAFTY_L3RD_01_JL_V03%20folder/CRAFTY_L3RD_01_JL_V03.aep</pathurl>
											<rate>
												<timebase>30</timebase>
												<ntsc>FALSE</ntsc>
											</rate>
											<duration>5701</duration>
											<timecode>
												<rate>
													<timebase>30</timebase>
													<ntsc>FALSE</ntsc>
												</rate>
												<string>00:00:00:00</string>
												<frame>0</frame>
												<displayformat>NDF</displayformat>
											</timecode>
											<media>
												<video>
													<samplecharacteristics>
														<rate>
															<timebase>30</timebase>
															<ntsc>FALSE</ntsc>
														</rate>
														<width>1920</width>
														<height>1080</height>
														<anamorphic>FALSE</anamorphic>
														<pixelaspectratio>square</pixelaspectratio>
														<fielddominance>lower</fielddominance>
													</samplecharacteristics>
												</video>
											</media>
										</file>
										<logginginfo>
											<description></description>
											<scene></scene>
											<shottake></shottake>
											<lognote></lognote>
											<good></good>
											<originalvideofilename></originalvideofilename>
											<originalaudiofilename></originalaudiofilename>
										</logginginfo>
										<colorinfo>
											<lut></lut>
											<lut1></lut1>
											<asc_sop></asc_sop>
											<asc_sat></asc_sat>
											<lut2></lut2>
										</colorinfo>
										<labels>
											<label2>Rose</label2>
										</labels>
									</clipitem>
									<clipitem id="clipitem-330">
										<masterclipid>masterclip-104</masterclipid>
										<name>MIDNIGHTS INSPIRED MAKEUP</name>
										<enabled>TRUE</enabled>
										<duration>5695</duration>
										<rate>
											<timebase>30</timebase>
											<ntsc>TRUE</ntsc>
										</rate>
										<start>2661</start>
										<end>5172</end>
										<in>0</in>
										<out>2511</out>
										<pproTicksIn>0</pproTicksIn>
										<pproTicksOut>21282400339200</pproTicksOut>
										<alphatype>straight</alphatype>
										<pixelaspectratio>square</pixelaspectratio>
										<anamorphic>FALSE</anamorphic>
										<file id="file-84">
											<name>CRAFTY_L3RD_01_JL_V03/CRAFTY_L3RD_01_JL_V03.aep</name>
											<pathurl>file://localhost/Volumes/ATM%20JR%202TB/Master%20Assets/CRAFTY_L3RD_01_JL_V03%20folder/CRAFTY_L3RD_01_JL_V03.aep</pathurl>
											<rate>
												<timebase>30</timebase>
												<ntsc>FALSE</ntsc>
											</rate>
											<duration>5701</duration>
											<timecode>
												<rate>
													<timebase>30</timebase>
													<ntsc>FALSE</ntsc>
												</rate>
												<string>00:00:00:00</string>
												<frame>0</frame>
												<displayformat>NDF</displayformat>
											</timecode>
											<media>
												<video>
													<samplecharacteristics>
														<rate>
															<timebase>30</timebase>
															<ntsc>FALSE</ntsc>
														</rate>
														<width>1920</width>
														<height>1080</height>
														<anamorphic>FALSE</anamorphic>
														<pixelaspectratio>square</pixelaspectratio>
														<fielddominance>lower</fielddominance>
													</samplecharacteristics>
												</video>
											</media>
										</file>
										<logginginfo>
											<description></description>
											<scene></scene>
											<shottake></shottake>
											<lognote></lognote>
											<good></good>
											<originalvideofilename></originalvideofilename>
											<originalaudiofilename></originalaudiofilename>
										</logginginfo>
										<colorinfo>
											<lut></lut>
											<lut1></lut1>
											<asc_sop></asc_sop>
											<asc_sat></asc_sat>
											<lut2></lut2>
										</colorinfo>
										<labels>
											<label2>Rose</label2>
										</labels>
									</clipitem>
									<enabled>TRUE</enabled>
									<locked>FALSE</locked>
								</track>
								<track TL.SQTrackShy="0" TL.SQTrackExpandedHeight="25" TL.SQTrackExpanded="0" MZ.TrackTargeted="0">
									<clipitem id="clipitem-331">
										<masterclipid>masterclip-9</masterclipid>
										<name>ATM_logo_channels_right-2 (3).png</name>
										<enabled>TRUE</enabled>
										<duration>1294705</duration>
										<rate>
											<timebase>30</timebase>
											<ntsc>TRUE</ntsc>
										</rate>
										<start>0</start>
										<end>5172</end>
										<in>106650</in>
										<out>111822</out>
										<pproTicksIn>903929906880000</pproTicksIn>
										<pproTicksOut>947766057638400</pproTicksOut>
										<alphatype>straight</alphatype>
										<file id="file-7"/>
										<logginginfo>
											<description></description>
											<scene></scene>
											<shottake></shottake>
											<lognote></lognote>
											<good></good>
											<originalvideofilename></originalvideofilename>
											<originalaudiofilename></originalaudiofilename>
										</logginginfo>
										<colorinfo>
											<lut></lut>
											<lut1></lut1>
											<asc_sop></asc_sop>
											<asc_sat></asc_sat>
											<lut2></lut2>
										</colorinfo>
										<labels>
											<label2>Lavender</label2>
										</labels>
									</clipitem>
									<enabled>TRUE</enabled>
									<locked>FALSE</locked>
								</track>
								<track TL.SQTrackShy="0" TL.SQTrackExpandedHeight="25" TL.SQTrackExpanded="0" MZ.TrackTargeted="0">
									<clipitem id="clipitem-332">
										<masterclipid>masterclip-11</masterclipid>
										<name>CRAFTY_TRAN02_JL_V01.mov</name>
										<enabled>TRUE</enabled>
										<duration>120</duration>
										<rate>
											<timebase>30</timebase>
											<ntsc>TRUE</ntsc>
										</rate>
										<start>2541</start>
										<end>2661</end>
										<in>0</in>
										<out>120</out>
										<pproTicksIn>0</pproTicksIn>
										<pproTicksOut>1017080064000</pproTicksOut>
										<alphatype>none</alphatype>
										<file id="file-9"/>
										<link>
											<linkclipref>clipitem-332</linkclipref>
											<mediatype>video</mediatype>
											<trackindex>4</trackindex>
											<clipindex>1</clipindex>
										</link>
										<link>
											<linkclipref>clipitem-334</linkclipref>
											<mediatype>audio</mediatype>
											<trackindex>1</trackindex>
											<clipindex>1</clipindex>
											<groupindex>1</groupindex>
										</link>
										<link>
											<linkclipref>clipitem-336</linkclipref>
											<mediatype>audio</mediatype>
											<trackindex>2</trackindex>
											<clipindex>1</clipindex>
											<groupindex>1</groupindex>
										</link>
										<logginginfo>
											<description></description>
											<scene></scene>
											<shottake></shottake>
											<lognote></lognote>
											<good></good>
											<originalvideofilename></originalvideofilename>
											<originalaudiofilename></originalaudiofilename>
										</logginginfo>
										<colorinfo>
											<lut></lut>
											<lut1></lut1>
											<asc_sop></asc_sop>
											<asc_sat></asc_sat>
											<lut2></lut2>
										</colorinfo>
										<labels>
											<label2>Iris</label2>
										</labels>
									</clipitem>
									<clipitem id="clipitem-333">
										<masterclipid>masterclip-22</masterclipid>
										<name>CRAFTY_TRAN03_JL_V01.mov</name>
										<enabled>TRUE</enabled>
										<duration>120</duration>
										<rate>
											<timebase>30</timebase>
											<ntsc>TRUE</ntsc>
										</rate>
										<start>5156</start>
										<end>5276</end>
										<in>0</in>
										<out>120</out>
										<pproTicksIn>0</pproTicksIn>
										<pproTicksOut>1017080064000</pproTicksOut>
										<alphatype>none</alphatype>
										<file id="file-18"/>
										<link>
											<linkclipref>clipitem-333</linkclipref>
											<mediatype>video</mediatype>
											<trackindex>4</trackindex>
											<clipindex>2</clipindex>
										</link>
										<link>
											<linkclipref>clipitem-335</linkclipref>
											<mediatype>audio</mediatype>
											<trackindex>1</trackindex>
											<clipindex>2</clipindex>
											<groupindex>1</groupindex>
										</link>
										<link>
											<linkclipref>clipitem-337</linkclipref>
											<mediatype>audio</mediatype>
											<trackindex>2</trackindex>
											<clipindex>2</clipindex>
											<groupindex>1</groupindex>
										</link>
										<logginginfo>
											<description></description>
											<scene></scene>
											<shottake></shottake>
											<lognote></lognote>
											<good></good>
											<originalvideofilename></originalvideofilename>
											<originalaudiofilename></originalaudiofilename>
										</logginginfo>
										<colorinfo>
											<lut></lut>
											<lut1></lut1>
											<asc_sop></asc_sop>
											<asc_sat></asc_sat>
											<lut2></lut2>
										</colorinfo>
										<labels>
											<label2>Iris</label2>
										</labels>
									</clipitem>
									<enabled>TRUE</enabled>
									<locked>FALSE</locked>
								</track>
							</video>
							<audio>
								<numOutputChannels>2</numOutputChannels>
								<format>
									<samplecharacteristics>
										<depth>16</depth>
										<samplerate>48000</samplerate>
									</samplecharacteristics>
								</format>
								<outputs>
									<group>
										<index>1</index>
										<numchannels>1</numchannels>
										<downmix>0</downmix>
										<channel>
											<index>1</index>
										</channel>
									</group>
									<group>
										<index>2</index>
										<numchannels>1</numchannels>
										<downmix>0</downmix>
										<channel>
											<index>2</index>
										</channel>
									</group>
								</outputs>
								<track TL.SQTrackAudioKeyframeStyle="0" TL.SQTrackShy="0" TL.SQTrackExpandedHeight="25" TL.SQTrackExpanded="0" MZ.TrackTargeted="1" PannerCurrentValue="0.5" PannerIsInverted="true" PannerStartKeyframe="-91445760000000000,0.5,0,0,0,0,0,0" PannerName="Balance" currentExplodedTrackIndex="0" totalExplodedTrackCount="2" premiereTrackType="Stereo">
									<clipitem id="clipitem-334" premiereChannelType="stereo">
										<masterclipid>masterclip-11</masterclipid>
										<name>CRAFTY_TRAN02_JL_V01.mov</name>
										<enabled>TRUE</enabled>
										<duration>120</duration>
										<rate>
											<timebase>30</timebase>
											<ntsc>TRUE</ntsc>
										</rate>
										<start>2541</start>
										<end>2661</end>
										<in>0</in>
										<out>120</out>
										<pproTicksIn>0</pproTicksIn>
										<pproTicksOut>1017080064000</pproTicksOut>
										<file id="file-9"/>
										<sourcetrack>
											<mediatype>audio</mediatype>
											<trackindex>1</trackindex>
										</sourcetrack>
										<link>
											<linkclipref>clipitem-332</linkclipref>
											<mediatype>video</mediatype>
											<trackindex>4</trackindex>
											<clipindex>1</clipindex>
										</link>
										<link>
											<linkclipref>clipitem-334</linkclipref>
											<mediatype>audio</mediatype>
											<trackindex>1</trackindex>
											<clipindex>1</clipindex>
											<groupindex>1</groupindex>
										</link>
										<link>
											<linkclipref>clipitem-336</linkclipref>
											<mediatype>audio</mediatype>
											<trackindex>2</trackindex>
											<clipindex>1</clipindex>
											<groupindex>1</groupindex>
										</link>
										<logginginfo>
											<description></description>
											<scene></scene>
											<shottake></shottake>
											<lognote></lognote>
											<good></good>
											<originalvideofilename></originalvideofilename>
											<originalaudiofilename></originalaudiofilename>
										</logginginfo>
										<colorinfo>
											<lut></lut>
											<lut1></lut1>
											<asc_sop></asc_sop>
											<asc_sat></asc_sat>
											<lut2></lut2>
										</colorinfo>
										<labels>
											<label2>Iris</label2>
										</labels>
									</clipitem>
									<clipitem id="clipitem-335" premiereChannelType="stereo">
										<masterclipid>masterclip-22</masterclipid>
										<name>CRAFTY_TRAN03_JL_V01.mov</name>
										<enabled>TRUE</enabled>
										<duration>120</duration>
										<rate>
											<timebase>30</timebase>
											<ntsc>TRUE</ntsc>
										</rate>
										<start>5156</start>
										<end>5276</end>
										<in>0</in>
										<out>120</out>
										<pproTicksIn>0</pproTicksIn>
										<pproTicksOut>1017080064000</pproTicksOut>
										<file id="file-18"/>
										<sourcetrack>
											<mediatype>audio</mediatype>
											<trackindex>1</trackindex>
										</sourcetrack>
										<link>
											<linkclipref>clipitem-333</linkclipref>
											<mediatype>video</mediatype>
											<trackindex>4</trackindex>
											<clipindex>2</clipindex>
										</link>
										<link>
											<linkclipref>clipitem-335</linkclipref>
											<mediatype>audio</mediatype>
											<trackindex>1</trackindex>
											<clipindex>2</clipindex>
											<groupindex>1</groupindex>
										</link>
										<link>
											<linkclipref>clipitem-337</linkclipref>
											<mediatype>audio</mediatype>
											<trackindex>2</trackindex>
											<clipindex>2</clipindex>
											<groupindex>1</groupindex>
										</link>
										<logginginfo>
											<description></description>
											<scene></scene>
											<shottake></shottake>
											<lognote></lognote>
											<good></good>
											<originalvideofilename></originalvideofilename>
											<originalaudiofilename></originalaudiofilename>
										</logginginfo>
										<colorinfo>
											<lut></lut>
											<lut1></lut1>
											<asc_sop></asc_sop>
											<asc_sat></asc_sat>
											<lut2></lut2>
										</colorinfo>
										<labels>
											<label2>Iris</label2>
										</labels>
									</clipitem>
									<enabled>TRUE</enabled>
									<locked>FALSE</locked>
									<outputchannelindex>1</outputchannelindex>
								</track>
								<track TL.SQTrackAudioKeyframeStyle="0" TL.SQTrackShy="0" TL.SQTrackExpandedHeight="25" TL.SQTrackExpanded="0" MZ.TrackTargeted="1" PannerCurrentValue="0.5" PannerIsInverted="true" PannerStartKeyframe="-91445760000000000,0.5,0,0,0,0,0,0" PannerName="Balance" currentExplodedTrackIndex="1" totalExplodedTrackCount="2" premiereTrackType="Stereo">
									<clipitem id="clipitem-336" premiereChannelType="stereo">
										<masterclipid>masterclip-11</masterclipid>
										<name>CRAFTY_TRAN02_JL_V01.mov</name>
										<enabled>TRUE</enabled>
										<duration>120</duration>
										<rate>
											<timebase>30</timebase>
											<ntsc>TRUE</ntsc>
										</rate>
										<start>2541</start>
										<end>2661</end>
										<in>0</in>
										<out>120</out>
										<pproTicksIn>0</pproTicksIn>
										<pproTicksOut>1017080064000</pproTicksOut>
										<file id="file-9"/>
										<sourcetrack>
											<mediatype>audio</mediatype>
											<trackindex>2</trackindex>
										</sourcetrack>
										<link>
											<linkclipref>clipitem-332</linkclipref>
											<mediatype>video</mediatype>
											<trackindex>4</trackindex>
											<clipindex>1</clipindex>
										</link>
										<link>
											<linkclipref>clipitem-334</linkclipref>
											<mediatype>audio</mediatype>
											<trackindex>1</trackindex>
											<clipindex>1</clipindex>
											<groupindex>1</groupindex>
										</link>
										<link>
											<linkclipref>clipitem-336</linkclipref>
											<mediatype>audio</mediatype>
											<trackindex>2</trackindex>
											<clipindex>1</clipindex>
											<groupindex>1</groupindex>
										</link>
										<logginginfo>
											<description></description>
											<scene></scene>
											<shottake></shottake>
											<lognote></lognote>
											<good></good>
											<originalvideofilename></originalvideofilename>
											<originalaudiofilename></originalaudiofilename>
										</logginginfo>
										<colorinfo>
											<lut></lut>
											<lut1></lut1>
											<asc_sop></asc_sop>
											<asc_sat></asc_sat>
											<lut2></lut2>
										</colorinfo>
										<labels>
											<label2>Iris</label2>
										</labels>
									</clipitem>
									<clipitem id="clipitem-337" premiereChannelType="stereo">
										<masterclipid>masterclip-22</masterclipid>
										<name>CRAFTY_TRAN03_JL_V01.mov</name>
										<enabled>TRUE</enabled>
										<duration>120</duration>
										<rate>
											<timebase>30</timebase>
											<ntsc>TRUE</ntsc>
										</rate>
										<start>5156</start>
										<end>5276</end>
										<in>0</in>
										<out>120</out>
										<pproTicksIn>0</pproTicksIn>
										<pproTicksOut>1017080064000</pproTicksOut>
										<file id="file-18"/>
										<sourcetrack>
											<mediatype>audio</mediatype>
											<trackindex>2</trackindex>
										</sourcetrack>
										<link>
											<linkclipref>clipitem-333</linkclipref>
											<mediatype>video</mediatype>
											<trackindex>4</trackindex>
											<clipindex>2</clipindex>
										</link>
										<link>
											<linkclipref>clipitem-335</linkclipref>
											<mediatype>audio</mediatype>
											<trackindex>1</trackindex>
											<clipindex>2</clipindex>
											<groupindex>1</groupindex>
										</link>
										<link>
											<linkclipref>clipitem-337</linkclipref>
											<mediatype>audio</mediatype>
											<trackindex>2</trackindex>
											<clipindex>2</clipindex>
											<groupindex>1</groupindex>
										</link>
										<logginginfo>
											<description></description>
											<scene></scene>
											<shottake></shottake>
											<lognote></lognote>
											<good></good>
											<originalvideofilename></originalvideofilename>
											<originalaudiofilename></originalaudiofilename>
										</logginginfo>
										<colorinfo>
											<lut></lut>
											<lut1></lut1>
											<asc_sop></asc_sop>
											<asc_sat></asc_sat>
											<lut2></lut2>
										</colorinfo>
										<labels>
											<label2>Iris</label2>
										</labels>
									</clipitem>
									<enabled>TRUE</enabled>
									<locked>FALSE</locked>
									<outputchannelindex>2</outputchannelindex>
								</track>
								<track TL.SQTrackAudioKeyframeStyle="0" TL.SQTrackShy="0" TL.SQTrackExpandedHeight="25" TL.SQTrackExpanded="0" MZ.TrackTargeted="1" PannerCurrentValue="0.5" PannerIsInverted="true" PannerStartKeyframe="-91445760000000000,0.5,0,0,0,0,0,0" PannerName="Balance" currentExplodedTrackIndex="0" totalExplodedTrackCount="2" premiereTrackType="Stereo">
									<clipitem id="clipitem-338" premiereChannelType="stereo">
										<masterclipid>masterclip-105</masterclipid>
										<name>ES_Water under the Bridge - Matt Large.wav</name>
										<enabled>TRUE</enabled>
										<duration>6212</duration>
										<rate>
											<timebase>30</timebase>
											<ntsc>TRUE</ntsc>
										</rate>
										<start>0</start>
										<end>-1</end>
										<in>0</in>
										<out>2541</out>
										<pproTicksIn>0</pproTicksIn>
										<pproTicksOut>21536670355200</pproTicksOut>
										<file id="file-85">
											<name>ES_Water under the Bridge - Matt Large.wav</name>
											<pathurl>file://localhost/Volumes/CONTENT/VOD%20CONTENT%20ARCHIVE/O&amp;O%20Archive%202023/CRAFTY/03_March/Crafty_3-20-2023/5_Music/ES_Water%20under%20the%20Bridge%20-%20Matt%20Large.wav</pathurl>
											<rate>
												<timebase>30</timebase>
												<ntsc>TRUE</ntsc>
											</rate>
											<duration>6212</duration>
											<timecode>
												<rate>
													<timebase>30</timebase>
													<ntsc>TRUE</ntsc>
												</rate>
												<string>04;39;56;00</string>
												<frame>503376</frame>
												<displayformat>DF</displayformat>
											</timecode>
											<media>
												<audio>
													<samplecharacteristics>
														<depth>16</depth>
														<samplerate>48000</samplerate>
													</samplecharacteristics>
													<channelcount>2</channelcount>
												</audio>
											</media>
										</file>
										<sourcetrack>
											<mediatype>audio</mediatype>
											<trackindex>1</trackindex>
										</sourcetrack>
										<filter>
											<effect>
												<name>Gain</name>
												<effectid>{61756678, 4761696e, 4b657947}</effectid>
												<effecttype>filter</effecttype>
												<mediatype>audio</mediatype>
												<parameter authoringApp="PremierePro">
													<parameterid>Gain(dB)</parameterid>
													<name>Gain(dB)</name>
													<valuemin>-96</valuemin>
													<valuemax>96</valuemax>
													<value>-6</value>
												</parameter>
											</effect>
										</filter>
										<link>
											<linkclipref>clipitem-338</linkclipref>
											<mediatype>audio</mediatype>
											<trackindex>3</trackindex>
											<clipindex>1</clipindex>
											<groupindex>1</groupindex>
										</link>
										<link>
											<linkclipref>clipitem-340</linkclipref>
											<mediatype>audio</mediatype>
											<trackindex>4</trackindex>
											<clipindex>1</clipindex>
											<groupindex>1</groupindex>
										</link>
										<logginginfo>
											<description></description>
											<scene></scene>
											<shottake></shottake>
											<lognote></lognote>
											<good></good>
											<originalvideofilename></originalvideofilename>
											<originalaudiofilename></originalaudiofilename>
										</logginginfo>
										<colorinfo>
											<lut></lut>
											<lut1></lut1>
											<asc_sop></asc_sop>
											<asc_sat></asc_sat>
											<lut2></lut2>
										</colorinfo>
										<labels>
											<label2>Caribbean</label2>
										</labels>
									</clipitem>
									<transitionitem>
										<start>2422</start>
										<end>2541</end>
										<pproTicksIn>20519592408000</pproTicksIn>
										<pproTicksOut>21536670355200</pproTicksOut>
										<alignment>end-black</alignment>
										<cutPointTicks>1017077947200</cutPointTicks>
										<rate>
											<timebase>30</timebase>
											<ntsc>TRUE</ntsc>
										</rate>
										<effect>
											<name>Cross Fade (+3dB)</name>
											<effectid>KGAudioTransCrossFade3dB</effectid>
											<effecttype>transition</effecttype>
											<mediatype>audio</mediatype>
											<wipecode>0</wipecode>
											<wipeaccuracy>100</wipeaccuracy>
											<startratio>0</startratio>
											<endratio>1</endratio>
											<reverse>FALSE</reverse>
										</effect>
									</transitionitem>
									<clipitem id="clipitem-339" premiereChannelType="stereo">
										<masterclipid>masterclip-106</masterclipid>
										<name>ES_Wizzle - Guustavv.wav</name>
										<enabled>TRUE</enabled>
										<duration>4204</duration>
										<rate>
											<timebase>30</timebase>
											<ntsc>TRUE</ntsc>
										</rate>
										<start>2661</start>
										<end>-1</end>
										<in>0</in>
										<out>2495</out>
										<pproTicksIn>0</pproTicksIn>
										<pproTicksOut>21146789664000</pproTicksOut>
										<file id="file-86">
											<name>ES_Wizzle - Guustavv.wav</name>
											<pathurl>file://localhost/Volumes/CONTENT/VOD%20CONTENT%20ARCHIVE/O&amp;O%20Archive%202023/CRAFTY/03_March/Crafty_3-20-2023/5_Music/ES_Wizzle%20-%20Guustavv.wav</pathurl>
											<rate>
												<timebase>30</timebase>
												<ntsc>TRUE</ntsc>
											</rate>
											<duration>4204</duration>
											<timecode>
												<rate>
													<timebase>30</timebase>
													<ntsc>TRUE</ntsc>
												</rate>
												<string>07;04;38;00</string>
												<frame>763576</frame>
												<displayformat>DF</displayformat>
											</timecode>
											<media>
												<audio>
													<samplecharacteristics>
														<depth>16</depth>
														<samplerate>48000</samplerate>
													</samplecharacteristics>
													<channelcount>2</channelcount>
												</audio>
											</media>
										</file>
										<sourcetrack>
											<mediatype>audio</mediatype>
											<trackindex>1</trackindex>
										</sourcetrack>
										<filter>
											<effect>
												<name>Gain</name>
												<effectid>{61756678, 4761696e, 4b657947}</effectid>
												<effecttype>filter</effecttype>
												<mediatype>audio</mediatype>
												<parameter authoringApp="PremierePro">
													<parameterid>Gain(dB)</parameterid>
													<name>Gain(dB)</name>
													<valuemin>-96</valuemin>
													<valuemax>96</valuemax>
													<value>-6</value>
												</parameter>
											</effect>
										</filter>
										<link>
											<linkclipref>clipitem-339</linkclipref>
											<mediatype>audio</mediatype>
											<trackindex>3</trackindex>
											<clipindex>3</clipindex>
											<groupindex>1</groupindex>
										</link>
										<link>
											<linkclipref>clipitem-341</linkclipref>
											<mediatype>audio</mediatype>
											<trackindex>4</trackindex>
											<clipindex>3</clipindex>
											<groupindex>1</groupindex>
										</link>
										<logginginfo>
											<description></description>
											<scene></scene>
											<shottake></shottake>
											<lognote></lognote>
											<good></good>
											<originalvideofilename></originalvideofilename>
											<originalaudiofilename></originalaudiofilename>
										</logginginfo>
										<colorinfo>
											<lut></lut>
											<lut1></lut1>
											<asc_sop></asc_sop>
											<asc_sat></asc_sat>
											<lut2></lut2>
										</colorinfo>
										<labels>
											<label2>Caribbean</label2>
										</labels>
									</clipitem>
									<transitionitem>
										<start>5037</start>
										<end>5156</end>
										<pproTicksIn>42683462136000</pproTicksIn>
										<pproTicksOut>43700540083200</pproTicksOut>
										<alignment>end-black</alignment>
										<cutPointTicks>1017077947200</cutPointTicks>
										<rate>
											<timebase>30</timebase>
											<ntsc>TRUE</ntsc>
										</rate>
										<effect>
											<name>Cross Fade (+3dB)</name>
											<effectid>KGAudioTransCrossFade3dB</effectid>
											<effecttype>transition</effecttype>
											<mediatype>audio</mediatype>
											<wipecode>0</wipecode>
											<wipeaccuracy>100</wipeaccuracy>
											<startratio>0</startratio>
											<endratio>1</endratio>
											<reverse>FALSE</reverse>
										</effect>
									</transitionitem>
									<enabled>TRUE</enabled>
									<locked>FALSE</locked>
									<outputchannelindex>1</outputchannelindex>
								</track>
								<track TL.SQTrackAudioKeyframeStyle="0" TL.SQTrackShy="0" TL.SQTrackExpandedHeight="25" TL.SQTrackExpanded="0" MZ.TrackTargeted="1" PannerCurrentValue="0.5" PannerIsInverted="true" PannerStartKeyframe="-91445760000000000,0.5,0,0,0,0,0,0" PannerName="Balance" currentExplodedTrackIndex="1" totalExplodedTrackCount="2" premiereTrackType="Stereo">
									<clipitem id="clipitem-340" premiereChannelType="stereo">
										<masterclipid>masterclip-105</masterclipid>
										<name>ES_Water under the Bridge - Matt Large.wav</name>
										<enabled>TRUE</enabled>
										<duration>6212</duration>
										<rate>
											<timebase>30</timebase>
											<ntsc>TRUE</ntsc>
										</rate>
										<start>0</start>
										<end>-1</end>
										<in>0</in>
										<out>2541</out>
										<pproTicksIn>0</pproTicksIn>
										<pproTicksOut>21536670355200</pproTicksOut>
										<file id="file-85"/>
										<sourcetrack>
											<mediatype>audio</mediatype>
											<trackindex>2</trackindex>
										</sourcetrack>
										<filter>
											<effect>
												<name>Gain</name>
												<effectid>{61756678, 4761696e, 4b657947}</effectid>
												<effecttype>filter</effecttype>
												<mediatype>audio</mediatype>
												<parameter authoringApp="PremierePro">
													<parameterid>Gain(dB)</parameterid>
													<name>Gain(dB)</name>
													<valuemin>-96</valuemin>
													<valuemax>96</valuemax>
													<value>-6</value>
												</parameter>
											</effect>
										</filter>
										<link>
											<linkclipref>clipitem-338</linkclipref>
											<mediatype>audio</mediatype>
											<trackindex>3</trackindex>
											<clipindex>1</clipindex>
											<groupindex>1</groupindex>
										</link>
										<link>
											<linkclipref>clipitem-340</linkclipref>
											<mediatype>audio</mediatype>
											<trackindex>4</trackindex>
											<clipindex>1</clipindex>
											<groupindex>1</groupindex>
										</link>
										<logginginfo>
											<description></description>
											<scene></scene>
											<shottake></shottake>
											<lognote></lognote>
											<good></good>
											<originalvideofilename></originalvideofilename>
											<originalaudiofilename></originalaudiofilename>
										</logginginfo>
										<colorinfo>
											<lut></lut>
											<lut1></lut1>
											<asc_sop></asc_sop>
											<asc_sat></asc_sat>
											<lut2></lut2>
										</colorinfo>
										<labels>
											<label2>Caribbean</label2>
										</labels>
									</clipitem>
									<transitionitem>
										<start>2422</start>
										<end>2541</end>
										<pproTicksIn>20519592408000</pproTicksIn>
										<pproTicksOut>21536670355200</pproTicksOut>
										<alignment>end-black</alignment>
										<cutPointTicks>1017077947200</cutPointTicks>
										<rate>
											<timebase>30</timebase>
											<ntsc>TRUE</ntsc>
										</rate>
										<effect>
											<name>Cross Fade (+3dB)</name>
											<effectid>KGAudioTransCrossFade3dB</effectid>
											<effecttype>transition</effecttype>
											<mediatype>audio</mediatype>
											<wipecode>0</wipecode>
											<wipeaccuracy>100</wipeaccuracy>
											<startratio>0</startratio>
											<endratio>1</endratio>
											<reverse>FALSE</reverse>
										</effect>
									</transitionitem>
									<clipitem id="clipitem-341" premiereChannelType="stereo">
										<masterclipid>masterclip-106</masterclipid>
										<name>ES_Wizzle - Guustavv.wav</name>
										<enabled>TRUE</enabled>
										<duration>4204</duration>
										<rate>
											<timebase>30</timebase>
											<ntsc>TRUE</ntsc>
										</rate>
										<start>2661</start>
										<end>-1</end>
										<in>0</in>
										<out>2495</out>
										<pproTicksIn>0</pproTicksIn>
										<pproTicksOut>21146789664000</pproTicksOut>
										<file id="file-86"/>
										<sourcetrack>
											<mediatype>audio</mediatype>
											<trackindex>2</trackindex>
										</sourcetrack>
										<filter>
											<effect>
												<name>Gain</name>
												<effectid>{61756678, 4761696e, 4b657947}</effectid>
												<effecttype>filter</effecttype>
												<mediatype>audio</mediatype>
												<parameter authoringApp="PremierePro">
													<parameterid>Gain(dB)</parameterid>
													<name>Gain(dB)</name>
													<valuemin>-96</valuemin>
													<valuemax>96</valuemax>
													<value>-6</value>
												</parameter>
											</effect>
										</filter>
										<link>
											<linkclipref>clipitem-339</linkclipref>
											<mediatype>audio</mediatype>
											<trackindex>3</trackindex>
											<clipindex>3</clipindex>
											<groupindex>1</groupindex>
										</link>
										<link>
											<linkclipref>clipitem-341</linkclipref>
											<mediatype>audio</mediatype>
											<trackindex>4</trackindex>
											<clipindex>3</clipindex>
											<groupindex>1</groupindex>
										</link>
										<logginginfo>
											<description></description>
											<scene></scene>
											<shottake></shottake>
											<lognote></lognote>
											<good></good>
											<originalvideofilename></originalvideofilename>
											<originalaudiofilename></originalaudiofilename>
										</logginginfo>
										<colorinfo>
											<lut></lut>
											<lut1></lut1>
											<asc_sop></asc_sop>
											<asc_sat></asc_sat>
											<lut2></lut2>
										</colorinfo>
										<labels>
											<label2>Caribbean</label2>
										</labels>
									</clipitem>
									<transitionitem>
										<start>5037</start>
										<end>5156</end>
										<pproTicksIn>42683462136000</pproTicksIn>
										<pproTicksOut>43700540083200</pproTicksOut>
										<alignment>end-black</alignment>
										<cutPointTicks>1017077947200</cutPointTicks>
										<rate>
											<timebase>30</timebase>
											<ntsc>TRUE</ntsc>
										</rate>
										<effect>
											<name>Cross Fade (+3dB)</name>
											<effectid>KGAudioTransCrossFade3dB</effectid>
											<effecttype>transition</effecttype>
											<mediatype>audio</mediatype>
											<wipecode>0</wipecode>
											<wipeaccuracy>100</wipeaccuracy>
											<startratio>0</startratio>
											<endratio>1</endratio>
											<reverse>FALSE</reverse>
										</effect>
									</transitionitem>
									<enabled>TRUE</enabled>
									<locked>FALSE</locked>
									<outputchannelindex>2</outputchannelindex>
								</track>
								<track TL.SQTrackAudioKeyframeStyle="0" TL.SQTrackShy="0" TL.SQTrackExpandedHeight="25" TL.SQTrackExpanded="0" MZ.TrackTargeted="1" PannerCurrentValue="0.5" PannerIsInverted="true" PannerStartKeyframe="-91445760000000000,0.5,0,0,0,0,0,0" PannerName="Balance" currentExplodedTrackIndex="0" totalExplodedTrackCount="2" premiereTrackType="Stereo">
									<enabled>TRUE</enabled>
									<locked>FALSE</locked>
									<outputchannelindex>1</outputchannelindex>
								</track>
								<track TL.SQTrackAudioKeyframeStyle="0" TL.SQTrackShy="0" TL.SQTrackExpandedHeight="25" TL.SQTrackExpanded="0" MZ.TrackTargeted="1" PannerCurrentValue="0.5" PannerIsInverted="true" PannerStartKeyframe="-91445760000000000,0.5,0,0,0,0,0,0" PannerName="Balance" currentExplodedTrackIndex="1" totalExplodedTrackCount="2" premiereTrackType="Stereo">
									<enabled>TRUE</enabled>
									<locked>FALSE</locked>
									<outputchannelindex>2</outputchannelindex>
								</track>
								<track TL.SQTrackAudioKeyframeStyle="0" TL.SQTrackShy="0" TL.SQTrackExpandedHeight="25" TL.SQTrackExpanded="0" MZ.TrackTargeted="0" PannerCurrentValue="0.5" PannerIsInverted="true" PannerStartKeyframe="-91445760000000000,0.5,0,0,0,0,0,0" PannerName="Balance" currentExplodedTrackIndex="0" totalExplodedTrackCount="2" premiereTrackType="Stereo">
									<enabled>TRUE</enabled>
									<locked>FALSE</locked>
									<outputchannelindex>1</outputchannelindex>
								</track>
								<track TL.SQTrackAudioKeyframeStyle="0" TL.SQTrackShy="0" TL.SQTrackExpandedHeight="25" TL.SQTrackExpanded="0" MZ.TrackTargeted="0" PannerCurrentValue="0.5" PannerIsInverted="true" PannerStartKeyframe="-91445760000000000,0.5,0,0,0,0,0,0" PannerName="Balance" currentExplodedTrackIndex="1" totalExplodedTrackCount="2" premiereTrackType="Stereo">
									<enabled>TRUE</enabled>
									<locked>FALSE</locked>
									<outputchannelindex>2</outputchannelindex>
								</track>
							</audio>
						</media>
						<timecode>
							<rate>
								<timebase>30</timebase>
								<ntsc>TRUE</ntsc>
							</rate>
							<string>00;00;00;00</string>
							<frame>0</frame>
							<displayformat>DF</displayformat>
						</timecode>
						<labels>
							<label2>Forest</label2>
						</labels>
						<logginginfo>
							<description></description>
							<scene></scene>
							<shottake></shottake>
							<lognote></lognote>
							<good></good>
							<originalvideofilename></originalvideofilename>
							<originalaudiofilename></originalaudiofilename>
						</logginginfo>
					</sequence>
				</children>
			</bin>
			<bin>
				<name>1_Raw Footage</name>
				<labels>
					<label2>Mango</label2>
				</labels>
				<children>
					<bin>
						<name>calligraphy</name>
						<labels>
							<label2>Mango</label2>
						</labels>
						<children>
							<clip id="masterclip-29" explodedTracks="true">
								<uuid>87530e27-68d5-4a5c-9491-61801c9cecd8</uuid>
								<masterclipid>masterclip-29</masterclipid>
								<ismasterclip>TRUE</ismasterclip>
								<duration>783</duration>
								<rate>
									<timebase>30</timebase>
									<ntsc>FALSE</ntsc>
								</rate>
								<name>(cooper_calligraphy)_BmJO-PMgkmG_IG.mp4</name>
								<media>
									<video>
										<track>
											<clipitem id="clipitem-342">
												<masterclipid>masterclip-29</masterclipid>
												<name>(cooper_calligraphy)_BmJO-PMgkmG_IG.mp4</name>
												<rate>
													<timebase>30</timebase>
													<ntsc>FALSE</ntsc>
												</rate>
												<alphatype>none</alphatype>
												<file id="file-23"/>
											</clipitem>
										</track>
									</video>
								</media>
								<logginginfo>
									<description></description>
									<scene></scene>
									<shottake></shottake>
									<lognote></lognote>
									<good></good>
									<originalvideofilename></originalvideofilename>
									<originalaudiofilename></originalaudiofilename>
								</logginginfo>
								<colorinfo>
									<lut></lut>
									<lut1></lut1>
									<asc_sop></asc_sop>
									<asc_sat></asc_sat>
									<lut2></lut2>
								</colorinfo>
								<labels>
									<label2>Violet</label2>
								</labels>
							</clip>
							<clip id="masterclip-30" explodedTracks="true">
								<uuid>507dcfd7-d545-4a67-8d71-56183c15daeb</uuid>
								<masterclipid>masterclip-30</masterclipid>
								<ismasterclip>TRUE</ismasterclip>
								<duration>1614</duration>
								<rate>
									<timebase>30</timebase>
									<ntsc>FALSE</ntsc>
								</rate>
								<name>(esthersletters)_CCgnYe1HAPF_IG.mp4</name>
								<media>
									<video>
										<track>
											<clipitem id="clipitem-343">
												<masterclipid>masterclip-30</masterclipid>
												<name>(esthersletters)_CCgnYe1HAPF_IG.mp4</name>
												<rate>
													<timebase>30</timebase>
													<ntsc>FALSE</ntsc>
												</rate>
												<alphatype>none</alphatype>
												<file id="file-24"/>
											</clipitem>
										</track>
									</video>
								</media>
								<logginginfo>
									<description></description>
									<scene></scene>
									<shottake></shottake>
									<lognote></lognote>
									<good></good>
									<originalvideofilename></originalvideofilename>
									<originalaudiofilename></originalaudiofilename>
								</logginginfo>
								<colorinfo>
									<lut></lut>
									<lut1></lut1>
									<asc_sop></asc_sop>
									<asc_sat></asc_sat>
									<lut2></lut2>
								</colorinfo>
								<labels>
									<label2>Violet</label2>
								</labels>
							</clip>
						</children>
					</bin>
					<bin>
						<name>passion twist hair</name>
						<labels>
							<label2>Mango</label2>
						</labels>
						<children>
							<clip id="masterclip-82" explodedTracks="true">
								<uuid>b2d64adc-1fa3-4e3a-bd1c-bd3298c4dd6f</uuid>
								<masterclipid>masterclip-82</masterclipid>
								<ismasterclip>TRUE</ismasterclip>
								<duration>12099</duration>
								<rate>
									<timebase>24</timebase>
									<ntsc>TRUE</ntsc>
								</rate>
								<name>(OnlyOneJess)_Super QUICK &amp; EASY Shoulder Length PASSION TWIST_YeiKVysjHLQ_YT.mp4</name>
								<media>
									<video>
										<track>
											<clipitem id="clipitem-344">
												<masterclipid>masterclip-82</masterclipid>
												<name>(OnlyOneJess)_Super QUICK &amp; EASY Shoulder Length PASSION TWIST_YeiKVysjHLQ_YT.mp4</name>
												<rate>
													<timebase>24</timebase>
													<ntsc>TRUE</ntsc>
												</rate>
												<alphatype>none</alphatype>
												<file id="file-66"/>
												<link>
													<linkclipref>clipitem-344</linkclipref>
													<mediatype>video</mediatype>
													<trackindex>1</trackindex>
													<clipindex>1</clipindex>
												</link>
												<link>
													<linkclipref>clipitem-345</linkclipref>
													<mediatype>audio</mediatype>
													<trackindex>1</trackindex>
													<clipindex>1</clipindex>
													<groupindex>1</groupindex>
												</link>
												<link>
													<linkclipref>clipitem-346</linkclipref>
													<mediatype>audio</mediatype>
													<trackindex>2</trackindex>
													<clipindex>1</clipindex>
													<groupindex>1</groupindex>
												</link>
											</clipitem>
										</track>
									</video>
									<audio>
										<track>
											<clipitem id="clipitem-345">
												<masterclipid>masterclip-82</masterclipid>
												<name>(OnlyOneJess)_Super QUICK &amp; EASY Shoulder Length PASSION TWIST_YeiKVysjHLQ_YT.mp4</name>
												<rate>
													<timebase>24</timebase>
													<ntsc>TRUE</ntsc>
												</rate>
												<file id="file-66"/>
												<sourcetrack>
													<mediatype>audio</mediatype>
													<trackindex>1</trackindex>
												</sourcetrack>
												<link>
													<linkclipref>clipitem-344</linkclipref>
													<mediatype>video</mediatype>
													<trackindex>1</trackindex>
													<clipindex>1</clipindex>
												</link>
												<link>
													<linkclipref>clipitem-345</linkclipref>
													<mediatype>audio</mediatype>
													<trackindex>1</trackindex>
													<clipindex>1</clipindex>
													<groupindex>1</groupindex>
												</link>
												<link>
													<linkclipref>clipitem-346</linkclipref>
													<mediatype>audio</mediatype>
													<trackindex>2</trackindex>
													<clipindex>1</clipindex>
													<groupindex>1</groupindex>
												</link>
											</clipitem>
										</track>
										<track>
											<clipitem id="clipitem-346">
												<masterclipid>masterclip-82</masterclipid>
												<name>(OnlyOneJess)_Super QUICK &amp; EASY Shoulder Length PASSION TWIST_YeiKVysjHLQ_YT.mp4</name>
												<rate>
													<timebase>24</timebase>
													<ntsc>TRUE</ntsc>
												</rate>
												<file id="file-66"/>
												<sourcetrack>
													<mediatype>audio</mediatype>
													<trackindex>2</trackindex>
												</sourcetrack>
												<link>
													<linkclipref>clipitem-344</linkclipref>
													<mediatype>video</mediatype>
													<trackindex>1</trackindex>
													<clipindex>1</clipindex>
												</link>
												<link>
													<linkclipref>clipitem-345</linkclipref>
													<mediatype>audio</mediatype>
													<trackindex>1</trackindex>
													<clipindex>1</clipindex>
													<groupindex>1</groupindex>
												</link>
												<link>
													<linkclipref>clipitem-346</linkclipref>
													<mediatype>audio</mediatype>
													<trackindex>2</trackindex>
													<clipindex>1</clipindex>
													<groupindex>1</groupindex>
												</link>
											</clipitem>
										</track>
									</audio>
								</media>
								<logginginfo>
									<description></description>
									<scene></scene>
									<shottake></shottake>
									<lognote>https://www.youtube.com/watch?v=YeiKVysjHLQ</lognote>
									<good></good>
									<originalvideofilename></originalvideofilename>
									<originalaudiofilename></originalaudiofilename>
								</logginginfo>
								<colorinfo>
									<lut></lut>
									<lut1></lut1>
									<asc_sop></asc_sop>
									<asc_sat></asc_sat>
									<lut2></lut2>
								</colorinfo>
								<labels>
									<label2>Iris</label2>
								</labels>
							</clip>
						</children>
					</bin>
					<bin>
						<name>book dress</name>
						<labels>
							<label2>Mango</label2>
						</labels>
						<children>
							<clip id="masterclip-62" explodedTracks="true">
								<uuid>221fa371-99df-47ec-965c-b8a7f9b4eced</uuid>
								<masterclipid>masterclip-62</masterclipid>
								<ismasterclip>TRUE</ismasterclip>
								<duration>41394</duration>
								<rate>
									<timebase>24</timebase>
									<ntsc>TRUE</ntsc>
								</rate>
								<name>(Rachel Maksy)_Making a Book Page Dress! _ _Walking Library_ Part One_5EYmnshBFJs_YT.mp4</name>
								<media>
									<video>
										<track>
											<clipitem id="clipitem-347">
												<masterclipid>masterclip-62</masterclipid>
												<name>(Rachel Maksy)_Making a Book Page Dress! _ _Walking Library_ Part One_5EYmnshBFJs_YT.mp4</name>
												<rate>
													<timebase>24</timebase>
													<ntsc>TRUE</ntsc>
												</rate>
												<alphatype>none</alphatype>
												<file id="file-50"/>
												<link>
													<linkclipref>clipitem-347</linkclipref>
													<mediatype>video</mediatype>
													<trackindex>1</trackindex>
													<clipindex>1</clipindex>
												</link>
												<link>
													<linkclipref>clipitem-348</linkclipref>
													<mediatype>audio</mediatype>
													<trackindex>1</trackindex>
													<clipindex>1</clipindex>
													<groupindex>1</groupindex>
												</link>
												<link>
													<linkclipref>clipitem-349</linkclipref>
													<mediatype>audio</mediatype>
													<trackindex>2</trackindex>
													<clipindex>1</clipindex>
													<groupindex>1</groupindex>
												</link>
											</clipitem>
										</track>
									</video>
									<audio>
										<track>
											<clipitem id="clipitem-348">
												<masterclipid>masterclip-62</masterclipid>
												<name>(Rachel Maksy)_Making a Book Page Dress! _ _Walking Library_ Part One_5EYmnshBFJs_YT.mp4</name>
												<rate>
													<timebase>24</timebase>
													<ntsc>TRUE</ntsc>
												</rate>
												<file id="file-50"/>
												<sourcetrack>
													<mediatype>audio</mediatype>
													<trackindex>1</trackindex>
												</sourcetrack>
												<link>
													<linkclipref>clipitem-347</linkclipref>
													<mediatype>video</mediatype>
													<trackindex>1</trackindex>
													<clipindex>1</clipindex>
												</link>
												<link>
													<linkclipref>clipitem-348</linkclipref>
													<mediatype>audio</mediatype>
													<trackindex>1</trackindex>
													<clipindex>1</clipindex>
													<groupindex>1</groupindex>
												</link>
												<link>
													<linkclipref>clipitem-349</linkclipref>
													<mediatype>audio</mediatype>
													<trackindex>2</trackindex>
													<clipindex>1</clipindex>
													<groupindex>1</groupindex>
												</link>
											</clipitem>
										</track>
										<track>
											<clipitem id="clipitem-349">
												<masterclipid>masterclip-62</masterclipid>
												<name>(Rachel Maksy)_Making a Book Page Dress! _ _Walking Library_ Part One_5EYmnshBFJs_YT.mp4</name>
												<rate>
													<timebase>24</timebase>
													<ntsc>TRUE</ntsc>
												</rate>
												<file id="file-50"/>
												<sourcetrack>
													<mediatype>audio</mediatype>
													<trackindex>2</trackindex>
												</sourcetrack>
												<link>
													<linkclipref>clipitem-347</linkclipref>
													<mediatype>video</mediatype>
													<trackindex>1</trackindex>
													<clipindex>1</clipindex>
												</link>
												<link>
													<linkclipref>clipitem-348</linkclipref>
													<mediatype>audio</mediatype>
													<trackindex>1</trackindex>
													<clipindex>1</clipindex>
													<groupindex>1</groupindex>
												</link>
												<link>
													<linkclipref>clipitem-349</linkclipref>
													<mediatype>audio</mediatype>
													<trackindex>2</trackindex>
													<clipindex>1</clipindex>
													<groupindex>1</groupindex>
												</link>
											</clipitem>
										</track>
									</audio>
								</media>
								<logginginfo>
									<description></description>
									<scene></scene>
									<shottake></shottake>
									<lognote>https://www.youtube.com/watch?v=5EYmnshBFJs</lognote>
									<good></good>
									<originalvideofilename></originalvideofilename>
									<originalaudiofilename></originalaudiofilename>
								</logginginfo>
								<colorinfo>
									<lut></lut>
									<lut1></lut1>
									<asc_sop></asc_sop>
									<asc_sat></asc_sat>
									<lut2></lut2>
								</colorinfo>
								<labels>
									<label2>Iris</label2>
								</labels>
							</clip>
						</children>
					</bin>
					<bin>
						<name>tree diorama</name>
						<labels>
							<label2>Mango</label2>
						</labels>
						<children>
							<clip id="masterclip-5" explodedTracks="true">
								<uuid>b7e5c5fd-15b4-4b26-80ab-4176bd3c1c17</uuid>
								<masterclipid>masterclip-5</masterclipid>
								<ismasterclip>TRUE</ismasterclip>
								<duration>11467</duration>
								<rate>
									<timebase>24</timebase>
									<ntsc>FALSE</ntsc>
								</rate>
								<name>(Meandering Curiosity)_I made a Four Season Tree Diorama depicting the change over time_lOFFAtjVsOo_YT.mp4</name>
								<media>
									<video>
										<track>
											<clipitem id="clipitem-350">
												<masterclipid>masterclip-5</masterclipid>
												<name>(Meandering Curiosity)_I made a Four Season Tree Diorama depicting the change over time_lOFFAtjVsOo_YT.mp4</name>
												<rate>
													<timebase>24</timebase>
													<ntsc>FALSE</ntsc>
												</rate>
												<alphatype>none</alphatype>
												<file id="file-3"/>
												<link>
													<linkclipref>clipitem-350</linkclipref>
													<mediatype>video</mediatype>
													<trackindex>1</trackindex>
													<clipindex>1</clipindex>
												</link>
												<link>
													<linkclipref>clipitem-351</linkclipref>
													<mediatype>audio</mediatype>
													<trackindex>1</trackindex>
													<clipindex>1</clipindex>
													<groupindex>1</groupindex>
												</link>
												<link>
													<linkclipref>clipitem-352</linkclipref>
													<mediatype>audio</mediatype>
													<trackindex>2</trackindex>
													<clipindex>1</clipindex>
													<groupindex>1</groupindex>
												</link>
											</clipitem>
										</track>
									</video>
									<audio>
										<track>
											<clipitem id="clipitem-351">
												<masterclipid>masterclip-5</masterclipid>
												<name>(Meandering Curiosity)_I made a Four Season Tree Diorama depicting the change over time_lOFFAtjVsOo_YT.mp4</name>
												<rate>
													<timebase>24</timebase>
													<ntsc>FALSE</ntsc>
												</rate>
												<file id="file-3"/>
												<sourcetrack>
													<mediatype>audio</mediatype>
													<trackindex>1</trackindex>
												</sourcetrack>
												<link>
													<linkclipref>clipitem-350</linkclipref>
													<mediatype>video</mediatype>
													<trackindex>1</trackindex>
													<clipindex>1</clipindex>
												</link>
												<link>
													<linkclipref>clipitem-351</linkclipref>
													<mediatype>audio</mediatype>
													<trackindex>1</trackindex>
													<clipindex>1</clipindex>
													<groupindex>1</groupindex>
												</link>
												<link>
													<linkclipref>clipitem-352</linkclipref>
													<mediatype>audio</mediatype>
													<trackindex>2</trackindex>
													<clipindex>1</clipindex>
													<groupindex>1</groupindex>
												</link>
											</clipitem>
										</track>
										<track>
											<clipitem id="clipitem-352">
												<masterclipid>masterclip-5</masterclipid>
												<name>(Meandering Curiosity)_I made a Four Season Tree Diorama depicting the change over time_lOFFAtjVsOo_YT.mp4</name>
												<rate>
													<timebase>24</timebase>
													<ntsc>FALSE</ntsc>
												</rate>
												<file id="file-3"/>
												<sourcetrack>
													<mediatype>audio</mediatype>
													<trackindex>2</trackindex>
												</sourcetrack>
												<link>
													<linkclipref>clipitem-350</linkclipref>
													<mediatype>video</mediatype>
													<trackindex>1</trackindex>
													<clipindex>1</clipindex>
												</link>
												<link>
													<linkclipref>clipitem-351</linkclipref>
													<mediatype>audio</mediatype>
													<trackindex>1</trackindex>
													<clipindex>1</clipindex>
													<groupindex>1</groupindex>
												</link>
												<link>
													<linkclipref>clipitem-352</linkclipref>
													<mediatype>audio</mediatype>
													<trackindex>2</trackindex>
													<clipindex>1</clipindex>
													<groupindex>1</groupindex>
												</link>
											</clipitem>
										</track>
									</audio>
								</media>
								<logginginfo>
									<description></description>
									<scene></scene>
									<shottake></shottake>
									<lognote>https://www.youtube.com/watch?v=lOFFAtjVsOo</lognote>
									<good></good>
									<originalvideofilename></originalvideofilename>
									<originalaudiofilename></originalaudiofilename>
								</logginginfo>
								<colorinfo>
									<lut></lut>
									<lut1></lut1>
									<asc_sop></asc_sop>
									<asc_sat></asc_sat>
									<lut2></lut2>
								</colorinfo>
								<labels>
									<label2>Iris</label2>
								</labels>
							</clip>
						</children>
					</bin>
					<bin>
						<name>BTS decor</name>
						<labels>
							<label2>Mango</label2>
						</labels>
						<children>
							<clip id="masterclip-49" explodedTracks="true">
								<uuid>93b7bc44-9c4c-4bf4-b155-2d8a833df9bc</uuid>
								<masterclipid>masterclip-49</masterclipid>
								<ismasterclip>TRUE</ismasterclip>
								<duration>10069</duration>
								<rate>
									<timebase>25</timebase>
									<ntsc>FALSE</ntsc>
								</rate>
								<name>(parul pawar)_4 DIY BTS ROOM DECOR 💜 DIY BTS Room Decor ✨Low Budget  #BTS_4Zk4j3BIpIM_YT.mp4</name>
								<media>
									<video>
										<track>
											<clipitem id="clipitem-353">
												<masterclipid>masterclip-49</masterclipid>
												<name>(parul pawar)_4 DIY BTS ROOM DECOR 💜 DIY BTS Room Decor ✨Low Budget  #BTS_4Zk4j3BIpIM_YT.mp4</name>
												<rate>
													<timebase>25</timebase>
													<ntsc>FALSE</ntsc>
												</rate>
												<alphatype>none</alphatype>
												<file id="file-40"/>
												<link>
													<linkclipref>clipitem-353</linkclipref>
													<mediatype>video</mediatype>
													<trackindex>1</trackindex>
													<clipindex>1</clipindex>
												</link>
												<link>
													<linkclipref>clipitem-354</linkclipref>
													<mediatype>audio</mediatype>
													<trackindex>1</trackindex>
													<clipindex>1</clipindex>
													<groupindex>1</groupindex>
												</link>
												<link>
													<linkclipref>clipitem-355</linkclipref>
													<mediatype>audio</mediatype>
													<trackindex>2</trackindex>
													<clipindex>1</clipindex>
													<groupindex>1</groupindex>
												</link>
											</clipitem>
										</track>
									</video>
									<audio>
										<track>
											<clipitem id="clipitem-354">
												<masterclipid>masterclip-49</masterclipid>
												<name>(parul pawar)_4 DIY BTS ROOM DECOR 💜 DIY BTS Room Decor ✨Low Budget  #BTS_4Zk4j3BIpIM_YT.mp4</name>
												<rate>
													<timebase>25</timebase>
													<ntsc>FALSE</ntsc>
												</rate>
												<file id="file-40"/>
												<sourcetrack>
													<mediatype>audio</mediatype>
													<trackindex>1</trackindex>
												</sourcetrack>
												<link>
													<linkclipref>clipitem-353</linkclipref>
													<mediatype>video</mediatype>
													<trackindex>1</trackindex>
													<clipindex>1</clipindex>
												</link>
												<link>
													<linkclipref>clipitem-354</linkclipref>
													<mediatype>audio</mediatype>
													<trackindex>1</trackindex>
													<clipindex>1</clipindex>
													<groupindex>1</groupindex>
												</link>
												<link>
													<linkclipref>clipitem-355</linkclipref>
													<mediatype>audio</mediatype>
													<trackindex>2</trackindex>
													<clipindex>1</clipindex>
													<groupindex>1</groupindex>
												</link>
											</clipitem>
										</track>
										<track>
											<clipitem id="clipitem-355">
												<masterclipid>masterclip-49</masterclipid>
												<name>(parul pawar)_4 DIY BTS ROOM DECOR 💜 DIY BTS Room Decor ✨Low Budget  #BTS_4Zk4j3BIpIM_YT.mp4</name>
												<rate>
													<timebase>25</timebase>
													<ntsc>FALSE</ntsc>
												</rate>
												<file id="file-40"/>
												<sourcetrack>
													<mediatype>audio</mediatype>
													<trackindex>2</trackindex>
												</sourcetrack>
												<link>
													<linkclipref>clipitem-353</linkclipref>
													<mediatype>video</mediatype>
													<trackindex>1</trackindex>
													<clipindex>1</clipindex>
												</link>
												<link>
													<linkclipref>clipitem-354</linkclipref>
													<mediatype>audio</mediatype>
													<trackindex>1</trackindex>
													<clipindex>1</clipindex>
													<groupindex>1</groupindex>
												</link>
												<link>
													<linkclipref>clipitem-355</linkclipref>
													<mediatype>audio</mediatype>
													<trackindex>2</trackindex>
													<clipindex>1</clipindex>
													<groupindex>1</groupindex>
												</link>
											</clipitem>
										</track>
									</audio>
								</media>
								<logginginfo>
									<description></description>
									<scene></scene>
									<shottake></shottake>
									<lognote></lognote>
									<good></good>
									<originalvideofilename></originalvideofilename>
									<originalaudiofilename></originalaudiofilename>
								</logginginfo>
								<colorinfo>
									<lut></lut>
									<lut1></lut1>
									<asc_sop></asc_sop>
									<asc_sat></asc_sat>
									<lut2></lut2>
								</colorinfo>
								<labels>
									<label2>Iris</label2>
								</labels>
							</clip>
						</children>
					</bin>
					<bin>
						<name>welcome sign</name>
						<labels>
							<label2>Mango</label2>
						</labels>
						<children>
							<clip id="masterclip-59" explodedTracks="true">
								<uuid>a7da951c-c514-44c1-b980-daac49585e01</uuid>
								<masterclipid>masterclip-59</masterclipid>
								<ismasterclip>TRUE</ismasterclip>
								<duration>5364</duration>
								<rate>
									<timebase>25</timebase>
									<ntsc>FALSE</ntsc>
								</rate>
								<name>(parul pawar)_WELCOME DOOR HANGER _ welcome craft ideas _ welcome wall hanging _ welcome board ideas_GoSJIJh9Ytw_YT.mp4</name>
								<media>
									<video>
										<track>
											<clipitem id="clipitem-356">
												<masterclipid>masterclip-59</masterclipid>
												<name>(parul pawar)_WELCOME DOOR HANGER _ welcome craft ideas _ welcome wall hanging _ welcome board ideas_GoSJIJh9Ytw_YT.mp4</name>
												<rate>
													<timebase>25</timebase>
													<ntsc>FALSE</ntsc>
												</rate>
												<alphatype>none</alphatype>
												<file id="file-48"/>
												<link>
													<linkclipref>clipitem-356</linkclipref>
													<mediatype>video</mediatype>
													<trackindex>1</trackindex>
													<clipindex>1</clipindex>
												</link>
												<link>
													<linkclipref>clipitem-357</linkclipref>
													<mediatype>audio</mediatype>
													<trackindex>1</trackindex>
													<clipindex>1</clipindex>
													<groupindex>1</groupindex>
												</link>
												<link>
													<linkclipref>clipitem-358</linkclipref>
													<mediatype>audio</mediatype>
													<trackindex>2</trackindex>
													<clipindex>1</clipindex>
													<groupindex>1</groupindex>
												</link>
											</clipitem>
										</track>
									</video>
									<audio>
										<track>
											<clipitem id="clipitem-357">
												<masterclipid>masterclip-59</masterclipid>
												<name>(parul pawar)_WELCOME DOOR HANGER _ welcome craft ideas _ welcome wall hanging _ welcome board ideas_GoSJIJh9Ytw_YT.mp4</name>
												<rate>
													<timebase>25</timebase>
													<ntsc>FALSE</ntsc>
												</rate>
												<file id="file-48"/>
												<sourcetrack>
													<mediatype>audio</mediatype>
													<trackindex>1</trackindex>
												</sourcetrack>
												<link>
													<linkclipref>clipitem-356</linkclipref>
													<mediatype>video</mediatype>
													<trackindex>1</trackindex>
													<clipindex>1</clipindex>
												</link>
												<link>
													<linkclipref>clipitem-357</linkclipref>
													<mediatype>audio</mediatype>
													<trackindex>1</trackindex>
													<clipindex>1</clipindex>
													<groupindex>1</groupindex>
												</link>
												<link>
													<linkclipref>clipitem-358</linkclipref>
													<mediatype>audio</mediatype>
													<trackindex>2</trackindex>
													<clipindex>1</clipindex>
													<groupindex>1</groupindex>
												</link>
											</clipitem>
										</track>
										<track>
											<clipitem id="clipitem-358">
												<masterclipid>masterclip-59</masterclipid>
												<name>(parul pawar)_WELCOME DOOR HANGER _ welcome craft ideas _ welcome wall hanging _ welcome board ideas_GoSJIJh9Ytw_YT.mp4</name>
												<rate>
													<timebase>25</timebase>
													<ntsc>FALSE</ntsc>
												</rate>
												<file id="file-48"/>
												<sourcetrack>
													<mediatype>audio</mediatype>
													<trackindex>2</trackindex>
												</sourcetrack>
												<link>
													<linkclipref>clipitem-356</linkclipref>
													<mediatype>video</mediatype>
													<trackindex>1</trackindex>
													<clipindex>1</clipindex>
												</link>
												<link>
													<linkclipref>clipitem-357</linkclipref>
													<mediatype>audio</mediatype>
													<trackindex>1</trackindex>
													<clipindex>1</clipindex>
													<groupindex>1</groupindex>
												</link>
												<link>
													<linkclipref>clipitem-358</linkclipref>
													<mediatype>audio</mediatype>
													<trackindex>2</trackindex>
													<clipindex>1</clipindex>
													<groupindex>1</groupindex>
												</link>
											</clipitem>
										</track>
									</audio>
								</media>
								<logginginfo>
									<description></description>
									<scene></scene>
									<shottake></shottake>
									<lognote>https://www.youtube.com/watch?v=GoSJIJh9Ytw</lognote>
									<good></good>
									<originalvideofilename></originalvideofilename>
									<originalaudiofilename></originalaudiofilename>
								</logginginfo>
								<colorinfo>
									<lut></lut>
									<lut1></lut1>
									<asc_sop></asc_sop>
									<asc_sat></asc_sat>
									<lut2></lut2>
								</colorinfo>
								<labels>
									<label2>Iris</label2>
								</labels>
							</clip>
						</children>
					</bin>
					<bin>
						<name>midnights inspired makeup</name>
						<labels>
							<label2>Mango</label2>
						</labels>
						<children>
							<clip id="masterclip-101" explodedTracks="true">
								<uuid>c690bd74-0279-4086-9835-bc0bf2e6694a</uuid>
								<masterclipid>masterclip-101</masterclipid>
								<ismasterclip>TRUE</ismasterclip>
								<duration>9896</duration>
								<rate>
									<timebase>30</timebase>
									<ntsc>TRUE</ntsc>
								</rate>
								<name>(AverageJo)_Taylor Swift Midnights Album Inspired Makeup Tutorial_ll7C7IpC8Us_YT.mp4</name>
								<media>
									<video>
										<track>
											<clipitem id="clipitem-359">
												<masterclipid>masterclip-101</masterclipid>
												<name>(AverageJo)_Taylor Swift Midnights Album Inspired Makeup Tutorial_ll7C7IpC8Us_YT.mp4</name>
												<rate>
													<timebase>30</timebase>
													<ntsc>TRUE</ntsc>
												</rate>
												<alphatype>none</alphatype>
												<file id="file-81"/>
												<link>
													<linkclipref>clipitem-359</linkclipref>
													<mediatype>video</mediatype>
													<trackindex>1</trackindex>
													<clipindex>1</clipindex>
												</link>
												<link>
													<linkclipref>clipitem-360</linkclipref>
													<mediatype>audio</mediatype>
													<trackindex>1</trackindex>
													<clipindex>1</clipindex>
													<groupindex>1</groupindex>
												</link>
												<link>
													<linkclipref>clipitem-361</linkclipref>
													<mediatype>audio</mediatype>
													<trackindex>2</trackindex>
													<clipindex>1</clipindex>
													<groupindex>1</groupindex>
												</link>
											</clipitem>
										</track>
									</video>
									<audio>
										<track>
											<clipitem id="clipitem-360">
												<masterclipid>masterclip-101</masterclipid>
												<name>(AverageJo)_Taylor Swift Midnights Album Inspired Makeup Tutorial_ll7C7IpC8Us_YT.mp4</name>
												<rate>
													<timebase>30</timebase>
													<ntsc>TRUE</ntsc>
												</rate>
												<file id="file-81"/>
												<sourcetrack>
													<mediatype>audio</mediatype>
													<trackindex>1</trackindex>
												</sourcetrack>
												<link>
													<linkclipref>clipitem-359</linkclipref>
													<mediatype>video</mediatype>
													<trackindex>1</trackindex>
													<clipindex>1</clipindex>
												</link>
												<link>
													<linkclipref>clipitem-360</linkclipref>
													<mediatype>audio</mediatype>
													<trackindex>1</trackindex>
													<clipindex>1</clipindex>
													<groupindex>1</groupindex>
												</link>
												<link>
													<linkclipref>clipitem-361</linkclipref>
													<mediatype>audio</mediatype>
													<trackindex>2</trackindex>
													<clipindex>1</clipindex>
													<groupindex>1</groupindex>
												</link>
											</clipitem>
										</track>
										<track>
											<clipitem id="clipitem-361">
												<masterclipid>masterclip-101</masterclipid>
												<name>(AverageJo)_Taylor Swift Midnights Album Inspired Makeup Tutorial_ll7C7IpC8Us_YT.mp4</name>
												<rate>
													<timebase>30</timebase>
													<ntsc>TRUE</ntsc>
												</rate>
												<file id="file-81"/>
												<sourcetrack>
													<mediatype>audio</mediatype>
													<trackindex>2</trackindex>
												</sourcetrack>
												<link>
													<linkclipref>clipitem-359</linkclipref>
													<mediatype>video</mediatype>
													<trackindex>1</trackindex>
													<clipindex>1</clipindex>
												</link>
												<link>
													<linkclipref>clipitem-360</linkclipref>
													<mediatype>audio</mediatype>
													<trackindex>1</trackindex>
													<clipindex>1</clipindex>
													<groupindex>1</groupindex>
												</link>
												<link>
													<linkclipref>clipitem-361</linkclipref>
													<mediatype>audio</mediatype>
													<trackindex>2</trackindex>
													<clipindex>1</clipindex>
													<groupindex>1</groupindex>
												</link>
											</clipitem>
										</track>
									</audio>
								</media>
								<logginginfo>
									<description></description>
									<scene></scene>
									<shottake></shottake>
									<lognote>https://www.youtube.com/watch?v=ll7C7IpC8Us</lognote>
									<good></good>
									<originalvideofilename></originalvideofilename>
									<originalaudiofilename></originalaudiofilename>
								</logginginfo>
								<colorinfo>
									<lut></lut>
									<lut1></lut1>
									<asc_sop></asc_sop>
									<asc_sat></asc_sat>
									<lut2></lut2>
								</colorinfo>
								<labels>
									<label2>Iris</label2>
								</labels>
							</clip>
						</children>
					</bin>
					<bin>
						<name>kitchen island</name>
						<labels>
							<label2>Mango</label2>
						</labels>
						<children>
							<clip id="masterclip-69" explodedTracks="true">
								<uuid>80a68101-cf44-47f0-990c-8afd8582bed1</uuid>
								<masterclipid>masterclip-69</masterclipid>
								<ismasterclip>TRUE</ismasterclip>
								<duration>48124</duration>
								<rate>
									<timebase>30</timebase>
									<ntsc>TRUE</ntsc>
								</rate>
								<name>(Desert DIY)_Trash to Treasure Kitchen Island Using Reclaimed Materials_uRkuWx6aGZw_YT.mp4</name>
								<media>
									<video>
										<track>
											<clipitem id="clipitem-362">
												<masterclipid>masterclip-69</masterclipid>
												<name>(Desert DIY)_Trash to Treasure Kitchen Island Using Reclaimed Materials_uRkuWx6aGZw_YT.mp4</name>
												<rate>
													<timebase>30</timebase>
													<ntsc>TRUE</ntsc>
												</rate>
												<alphatype>none</alphatype>
												<file id="file-56"/>
												<link>
													<linkclipref>clipitem-362</linkclipref>
													<mediatype>video</mediatype>
													<trackindex>1</trackindex>
													<clipindex>1</clipindex>
												</link>
												<link>
													<linkclipref>clipitem-363</linkclipref>
													<mediatype>audio</mediatype>
													<trackindex>1</trackindex>
													<clipindex>1</clipindex>
													<groupindex>1</groupindex>
												</link>
												<link>
													<linkclipref>clipitem-364</linkclipref>
													<mediatype>audio</mediatype>
													<trackindex>2</trackindex>
													<clipindex>1</clipindex>
													<groupindex>1</groupindex>
												</link>
											</clipitem>
										</track>
									</video>
									<audio>
										<track>
											<clipitem id="clipitem-363">
												<masterclipid>masterclip-69</masterclipid>
												<name>(Desert DIY)_Trash to Treasure Kitchen Island Using Reclaimed Materials_uRkuWx6aGZw_YT.mp4</name>
												<rate>
													<timebase>30</timebase>
													<ntsc>TRUE</ntsc>
												</rate>
												<file id="file-56"/>
												<sourcetrack>
													<mediatype>audio</mediatype>
													<trackindex>1</trackindex>
												</sourcetrack>
												<link>
													<linkclipref>clipitem-362</linkclipref>
													<mediatype>video</mediatype>
													<trackindex>1</trackindex>
													<clipindex>1</clipindex>
												</link>
												<link>
													<linkclipref>clipitem-363</linkclipref>
													<mediatype>audio</mediatype>
													<trackindex>1</trackindex>
													<clipindex>1</clipindex>
													<groupindex>1</groupindex>
												</link>
												<link>
													<linkclipref>clipitem-364</linkclipref>
													<mediatype>audio</mediatype>
													<trackindex>2</trackindex>
													<clipindex>1</clipindex>
													<groupindex>1</groupindex>
												</link>
											</clipitem>
										</track>
										<track>
											<clipitem id="clipitem-364">
												<masterclipid>masterclip-69</masterclipid>
												<name>(Desert DIY)_Trash to Treasure Kitchen Island Using Reclaimed Materials_uRkuWx6aGZw_YT.mp4</name>
												<rate>
													<timebase>30</timebase>
													<ntsc>TRUE</ntsc>
												</rate>
												<file id="file-56"/>
												<sourcetrack>
													<mediatype>audio</mediatype>
													<trackindex>2</trackindex>
												</sourcetrack>
												<link>
													<linkclipref>clipitem-362</linkclipref>
													<mediatype>video</mediatype>
													<trackindex>1</trackindex>
													<clipindex>1</clipindex>
												</link>
												<link>
													<linkclipref>clipitem-363</linkclipref>
													<mediatype>audio</mediatype>
													<trackindex>1</trackindex>
													<clipindex>1</clipindex>
													<groupindex>1</groupindex>
												</link>
												<link>
													<linkclipref>clipitem-364</linkclipref>
													<mediatype>audio</mediatype>
													<trackindex>2</trackindex>
													<clipindex>1</clipindex>
													<groupindex>1</groupindex>
												</link>
											</clipitem>
										</track>
									</audio>
								</media>
								<logginginfo>
									<description></description>
									<scene></scene>
									<shottake></shottake>
									<lognote>https://www.youtube.com/watch?v=uRkuWx6aGZw</lognote>
									<good></good>
									<originalvideofilename></originalvideofilename>
									<originalaudiofilename></originalaudiofilename>
								</logginginfo>
								<colorinfo>
									<lut></lut>
									<lut1></lut1>
									<asc_sop></asc_sop>
									<asc_sat></asc_sat>
									<lut2></lut2>
								</colorinfo>
								<labels>
									<label2>Iris</label2>
								</labels>
							</clip>
						</children>
					</bin>
					<bin>
						<name>raised garden bed</name>
						<labels>
							<label2>Mango</label2>
						</labels>
						<children>
							<clip id="masterclip-26" explodedTracks="true">
								<uuid>a4300331-ed75-4fbf-bddf-82eefc150902</uuid>
								<masterclipid>masterclip-26</masterclipid>
								<ismasterclip>TRUE</ismasterclip>
								<duration>32329</duration>
								<rate>
									<timebase>30</timebase>
									<ntsc>TRUE</ntsc>
								</rate>
								<name>(Mr. Build It)_DIY Self Watering Raised Garden Bed_Dx6ejO5BzH4_YT.mp4</name>
								<media>
									<video>
										<track>
											<clipitem id="clipitem-365">
												<masterclipid>masterclip-26</masterclipid>
												<name>(Mr. Build It)_DIY Self Watering Raised Garden Bed_Dx6ejO5BzH4_YT.mp4</name>
												<rate>
													<timebase>30</timebase>
													<ntsc>TRUE</ntsc>
												</rate>
												<alphatype>none</alphatype>
												<file id="file-21"/>
												<link>
													<linkclipref>clipitem-365</linkclipref>
													<mediatype>video</mediatype>
													<trackindex>1</trackindex>
													<clipindex>1</clipindex>
												</link>
												<link>
													<linkclipref>clipitem-366</linkclipref>
													<mediatype>audio</mediatype>
													<trackindex>1</trackindex>
													<clipindex>1</clipindex>
													<groupindex>1</groupindex>
												</link>
												<link>
													<linkclipref>clipitem-367</linkclipref>
													<mediatype>audio</mediatype>
													<trackindex>2</trackindex>
													<clipindex>1</clipindex>
													<groupindex>1</groupindex>
												</link>
											</clipitem>
										</track>
									</video>
									<audio>
										<track>
											<clipitem id="clipitem-366">
												<masterclipid>masterclip-26</masterclipid>
												<name>(Mr. Build It)_DIY Self Watering Raised Garden Bed_Dx6ejO5BzH4_YT.mp4</name>
												<rate>
													<timebase>30</timebase>
													<ntsc>TRUE</ntsc>
												</rate>
												<file id="file-21"/>
												<sourcetrack>
													<mediatype>audio</mediatype>
													<trackindex>1</trackindex>
												</sourcetrack>
												<link>
													<linkclipref>clipitem-365</linkclipref>
													<mediatype>video</mediatype>
													<trackindex>1</trackindex>
													<clipindex>1</clipindex>
												</link>
												<link>
													<linkclipref>clipitem-366</linkclipref>
													<mediatype>audio</mediatype>
													<trackindex>1</trackindex>
													<clipindex>1</clipindex>
													<groupindex>1</groupindex>
												</link>
												<link>
													<linkclipref>clipitem-367</linkclipref>
													<mediatype>audio</mediatype>
													<trackindex>2</trackindex>
													<clipindex>1</clipindex>
													<groupindex>1</groupindex>
												</link>
											</clipitem>
										</track>
										<track>
											<clipitem id="clipitem-367">
												<masterclipid>masterclip-26</masterclipid>
												<name>(Mr. Build It)_DIY Self Watering Raised Garden Bed_Dx6ejO5BzH4_YT.mp4</name>
												<rate>
													<timebase>30</timebase>
													<ntsc>TRUE</ntsc>
												</rate>
												<file id="file-21"/>
												<sourcetrack>
													<mediatype>audio</mediatype>
													<trackindex>2</trackindex>
												</sourcetrack>
												<link>
													<linkclipref>clipitem-365</linkclipref>
													<mediatype>video</mediatype>
													<trackindex>1</trackindex>
													<clipindex>1</clipindex>
												</link>
												<link>
													<linkclipref>clipitem-366</linkclipref>
													<mediatype>audio</mediatype>
													<trackindex>1</trackindex>
													<clipindex>1</clipindex>
													<groupindex>1</groupindex>
												</link>
												<link>
													<linkclipref>clipitem-367</linkclipref>
													<mediatype>audio</mediatype>
													<trackindex>2</trackindex>
													<clipindex>1</clipindex>
													<groupindex>1</groupindex>
												</link>
											</clipitem>
										</track>
									</audio>
								</media>
								<logginginfo>
									<description></description>
									<scene></scene>
									<shottake></shottake>
									<lognote>https://www.youtube.com/watch?v=Dx6ejO5BzH4</lognote>
									<good></good>
									<originalvideofilename></originalvideofilename>
									<originalaudiofilename></originalaudiofilename>
								</logginginfo>
								<colorinfo>
									<lut></lut>
									<lut1></lut1>
									<asc_sop></asc_sop>
									<asc_sat></asc_sat>
									<lut2></lut2>
								</colorinfo>
								<labels>
									<label2>Iris</label2>
								</labels>
							</clip>
						</children>
					</bin>
					<bin>
						<name>vine painting</name>
						<labels>
							<label2>Mango</label2>
						</labels>
						<children>
							<clip id="masterclip-72" explodedTracks="true">
								<uuid>04720e8f-469a-43db-b49c-c7b50502d2b1</uuid>
								<masterclipid>masterclip-72</masterclipid>
								<ismasterclip>TRUE</ismasterclip>
								<duration>10554</duration>
								<rate>
									<timebase>30</timebase>
									<ntsc>TRUE</ntsc>
								</rate>
								<name>(Nicolas Abtan)_Short Acrylic Painting Time-Lapse - Hanging Ivy_0uQh92Dvaes_YT.mp4</name>
								<media>
									<video>
										<track>
											<clipitem id="clipitem-368">
												<masterclipid>masterclip-72</masterclipid>
												<name>(Nicolas Abtan)_Short Acrylic Painting Time-Lapse - Hanging Ivy_0uQh92Dvaes_YT.mp4</name>
												<rate>
													<timebase>30</timebase>
													<ntsc>TRUE</ntsc>
												</rate>
												<alphatype>none</alphatype>
												<file id="file-58"/>
												<link>
													<linkclipref>clipitem-368</linkclipref>
													<mediatype>video</mediatype>
													<trackindex>1</trackindex>
													<clipindex>1</clipindex>
												</link>
												<link>
													<linkclipref>clipitem-369</linkclipref>
													<mediatype>audio</mediatype>
													<trackindex>1</trackindex>
													<clipindex>1</clipindex>
													<groupindex>1</groupindex>
												</link>
												<link>
													<linkclipref>clipitem-370</linkclipref>
													<mediatype>audio</mediatype>
													<trackindex>2</trackindex>
													<clipindex>1</clipindex>
													<groupindex>1</groupindex>
												</link>
											</clipitem>
										</track>
									</video>
									<audio>
										<track>
											<clipitem id="clipitem-369">
												<masterclipid>masterclip-72</masterclipid>
												<name>(Nicolas Abtan)_Short Acrylic Painting Time-Lapse - Hanging Ivy_0uQh92Dvaes_YT.mp4</name>
												<rate>
													<timebase>30</timebase>
													<ntsc>TRUE</ntsc>
												</rate>
												<file id="file-58"/>
												<sourcetrack>
													<mediatype>audio</mediatype>
													<trackindex>1</trackindex>
												</sourcetrack>
												<link>
													<linkclipref>clipitem-368</linkclipref>
													<mediatype>video</mediatype>
													<trackindex>1</trackindex>
													<clipindex>1</clipindex>
												</link>
												<link>
													<linkclipref>clipitem-369</linkclipref>
													<mediatype>audio</mediatype>
													<trackindex>1</trackindex>
													<clipindex>1</clipindex>
													<groupindex>1</groupindex>
												</link>
												<link>
													<linkclipref>clipitem-370</linkclipref>
													<mediatype>audio</mediatype>
													<trackindex>2</trackindex>
													<clipindex>1</clipindex>
													<groupindex>1</groupindex>
												</link>
											</clipitem>
										</track>
										<track>
											<clipitem id="clipitem-370">
												<masterclipid>masterclip-72</masterclipid>
												<name>(Nicolas Abtan)_Short Acrylic Painting Time-Lapse - Hanging Ivy_0uQh92Dvaes_YT.mp4</name>
												<rate>
													<timebase>30</timebase>
													<ntsc>TRUE</ntsc>
												</rate>
												<file id="file-58"/>
												<sourcetrack>
													<mediatype>audio</mediatype>
													<trackindex>2</trackindex>
												</sourcetrack>
												<link>
													<linkclipref>clipitem-368</linkclipref>
													<mediatype>video</mediatype>
													<trackindex>1</trackindex>
													<clipindex>1</clipindex>
												</link>
												<link>
													<linkclipref>clipitem-369</linkclipref>
													<mediatype>audio</mediatype>
													<trackindex>1</trackindex>
													<clipindex>1</clipindex>
													<groupindex>1</groupindex>
												</link>
												<link>
													<linkclipref>clipitem-370</linkclipref>
													<mediatype>audio</mediatype>
													<trackindex>2</trackindex>
													<clipindex>1</clipindex>
													<groupindex>1</groupindex>
												</link>
											</clipitem>
										</track>
									</audio>
								</media>
								<logginginfo>
									<description></description>
									<scene></scene>
									<shottake></shottake>
									<lognote>https://www.youtube.com/watch?v=0uQh92Dvaes</lognote>
									<good></good>
									<originalvideofilename></originalvideofilename>
									<originalaudiofilename></originalaudiofilename>
								</logginginfo>
								<colorinfo>
									<lut></lut>
									<lut1></lut1>
									<asc_sop></asc_sop>
									<asc_sat></asc_sat>
									<lut2></lut2>
								</colorinfo>
								<labels>
									<label2>Iris</label2>
								</labels>
							</clip>
						</children>
					</bin>
					<bin>
						<name>jellyfish art</name>
						<labels>
							<label2>Mango</label2>
						</labels>
						<children>
							<clip id="masterclip-15" explodedTracks="true">
								<uuid>eb89d1e7-87ad-4982-be29-e2c2a9800f07</uuid>
								<masterclipid>masterclip-15</masterclipid>
								<ismasterclip>TRUE</ismasterclip>
								<duration>26661</duration>
								<rate>
									<timebase>30</timebase>
									<ntsc>TRUE</ntsc>
								</rate>
								<name>(Studio TEAL)_Chain Pull Jellyfish!!! Must See!! Florescent Paint!! Black Light Surprise!!!_FxO7tI5-lNk_YT.mp4</name>
								<media>
									<video>
										<track>
											<clipitem id="clipitem-371">
												<masterclipid>masterclip-15</masterclipid>
												<name>(Studio TEAL)_Chain Pull Jellyfish!!! Must See!! Florescent Paint!! Black Light Surprise!!!_FxO7tI5-lNk_YT.mp4</name>
												<rate>
													<timebase>30</timebase>
													<ntsc>TRUE</ntsc>
												</rate>
												<alphatype>none</alphatype>
												<file id="file-12"/>
												<link>
													<linkclipref>clipitem-371</linkclipref>
													<mediatype>video</mediatype>
													<trackindex>1</trackindex>
													<clipindex>1</clipindex>
												</link>
												<link>
													<linkclipref>clipitem-372</linkclipref>
													<mediatype>audio</mediatype>
													<trackindex>1</trackindex>
													<clipindex>1</clipindex>
													<groupindex>1</groupindex>
												</link>
												<link>
													<linkclipref>clipitem-373</linkclipref>
													<mediatype>audio</mediatype>
													<trackindex>2</trackindex>
													<clipindex>1</clipindex>
													<groupindex>1</groupindex>
												</link>
											</clipitem>
										</track>
									</video>
									<audio>
										<track>
											<clipitem id="clipitem-372">
												<masterclipid>masterclip-15</masterclipid>
												<name>(Studio TEAL)_Chain Pull Jellyfish!!! Must See!! Florescent Paint!! Black Light Surprise!!!_FxO7tI5-lNk_YT.mp4</name>
												<rate>
													<timebase>30</timebase>
													<ntsc>TRUE</ntsc>
												</rate>
												<file id="file-12"/>
												<sourcetrack>
													<mediatype>audio</mediatype>
													<trackindex>1</trackindex>
												</sourcetrack>
												<link>
													<linkclipref>clipitem-371</linkclipref>
													<mediatype>video</mediatype>
													<trackindex>1</trackindex>
													<clipindex>1</clipindex>
												</link>
												<link>
													<linkclipref>clipitem-372</linkclipref>
													<mediatype>audio</mediatype>
													<trackindex>1</trackindex>
													<clipindex>1</clipindex>
													<groupindex>1</groupindex>
												</link>
												<link>
													<linkclipref>clipitem-373</linkclipref>
													<mediatype>audio</mediatype>
													<trackindex>2</trackindex>
													<clipindex>1</clipindex>
													<groupindex>1</groupindex>
												</link>
											</clipitem>
										</track>
										<track>
											<clipitem id="clipitem-373">
												<masterclipid>masterclip-15</masterclipid>
												<name>(Studio TEAL)_Chain Pull Jellyfish!!! Must See!! Florescent Paint!! Black Light Surprise!!!_FxO7tI5-lNk_YT.mp4</name>
												<rate>
													<timebase>30</timebase>
													<ntsc>TRUE</ntsc>
												</rate>
												<file id="file-12"/>
												<sourcetrack>
													<mediatype>audio</mediatype>
													<trackindex>2</trackindex>
												</sourcetrack>
												<link>
													<linkclipref>clipitem-371</linkclipref>
													<mediatype>video</mediatype>
													<trackindex>1</trackindex>
													<clipindex>1</clipindex>
												</link>
												<link>
													<linkclipref>clipitem-372</linkclipref>
													<mediatype>audio</mediatype>
													<trackindex>1</trackindex>
													<clipindex>1</clipindex>
													<groupindex>1</groupindex>
												</link>
												<link>
													<linkclipref>clipitem-373</linkclipref>
													<mediatype>audio</mediatype>
													<trackindex>2</trackindex>
													<clipindex>1</clipindex>
													<groupindex>1</groupindex>
												</link>
											</clipitem>
										</track>
									</audio>
								</media>
								<logginginfo>
									<description></description>
									<scene></scene>
									<shottake></shottake>
									<lognote>https://www.youtube.com/watch?v=FxO7tI5-lNk</lognote>
									<good></good>
									<originalvideofilename></originalvideofilename>
									<originalaudiofilename></originalaudiofilename>
								</logginginfo>
								<colorinfo>
									<lut></lut>
									<lut1></lut1>
									<asc_sop></asc_sop>
									<asc_sat></asc_sat>
									<lut2></lut2>
								</colorinfo>
								<labels>
									<label2>Iris</label2>
								</labels>
							</clip>
						</children>
					</bin>
					<bin>
						<name>grunge makeup</name>
						<labels>
							<label2>Mango</label2>
						</labels>
						<children>
							<clip id="masterclip-18" explodedTracks="true">
								<uuid>4409a27b-577e-45d9-a6fe-d7508bd68579</uuid>
								<masterclipid>masterclip-18</masterclipid>
								<ismasterclip>TRUE</ismasterclip>
								<duration>8232</duration>
								<rate>
									<timebase>30</timebase>
									<ntsc>TRUE</ntsc>
								</rate>
								<name>(Sydney Nicole Addams)_Rustic_Grunge Inspired Look _ Sydney Nicole_A2RngeLM0xQ_YT.mp4</name>
								<media>
									<video>
										<track>
											<clipitem id="clipitem-374">
												<masterclipid>masterclip-18</masterclipid>
												<name>(Sydney Nicole Addams)_Rustic_Grunge Inspired Look _ Sydney Nicole_A2RngeLM0xQ_YT.mp4</name>
												<rate>
													<timebase>30</timebase>
													<ntsc>TRUE</ntsc>
												</rate>
												<alphatype>none</alphatype>
												<file id="file-14"/>
												<link>
													<linkclipref>clipitem-374</linkclipref>
													<mediatype>video</mediatype>
													<trackindex>1</trackindex>
													<clipindex>1</clipindex>
												</link>
												<link>
													<linkclipref>clipitem-375</linkclipref>
													<mediatype>audio</mediatype>
													<trackindex>1</trackindex>
													<clipindex>1</clipindex>
													<groupindex>1</groupindex>
												</link>
												<link>
													<linkclipref>clipitem-376</linkclipref>
													<mediatype>audio</mediatype>
													<trackindex>2</trackindex>
													<clipindex>1</clipindex>
													<groupindex>1</groupindex>
												</link>
											</clipitem>
										</track>
									</video>
									<audio>
										<track>
											<clipitem id="clipitem-375">
												<masterclipid>masterclip-18</masterclipid>
												<name>(Sydney Nicole Addams)_Rustic_Grunge Inspired Look _ Sydney Nicole_A2RngeLM0xQ_YT.mp4</name>
												<rate>
													<timebase>30</timebase>
													<ntsc>TRUE</ntsc>
												</rate>
												<file id="file-14"/>
												<sourcetrack>
													<mediatype>audio</mediatype>
													<trackindex>1</trackindex>
												</sourcetrack>
												<link>
													<linkclipref>clipitem-374</linkclipref>
													<mediatype>video</mediatype>
													<trackindex>1</trackindex>
													<clipindex>1</clipindex>
												</link>
												<link>
													<linkclipref>clipitem-375</linkclipref>
													<mediatype>audio</mediatype>
													<trackindex>1</trackindex>
													<clipindex>1</clipindex>
													<groupindex>1</groupindex>
												</link>
												<link>
													<linkclipref>clipitem-376</linkclipref>
													<mediatype>audio</mediatype>
													<trackindex>2</trackindex>
													<clipindex>1</clipindex>
													<groupindex>1</groupindex>
												</link>
											</clipitem>
										</track>
										<track>
											<clipitem id="clipitem-376">
												<masterclipid>masterclip-18</masterclipid>
												<name>(Sydney Nicole Addams)_Rustic_Grunge Inspired Look _ Sydney Nicole_A2RngeLM0xQ_YT.mp4</name>
												<rate>
													<timebase>30</timebase>
													<ntsc>TRUE</ntsc>
												</rate>
												<file id="file-14"/>
												<sourcetrack>
													<mediatype>audio</mediatype>
													<trackindex>2</trackindex>
												</sourcetrack>
												<link>
													<linkclipref>clipitem-374</linkclipref>
													<mediatype>video</mediatype>
													<trackindex>1</trackindex>
													<clipindex>1</clipindex>
												</link>
												<link>
													<linkclipref>clipitem-375</linkclipref>
													<mediatype>audio</mediatype>
													<trackindex>1</trackindex>
													<clipindex>1</clipindex>
													<groupindex>1</groupindex>
												</link>
												<link>
													<linkclipref>clipitem-376</linkclipref>
													<mediatype>audio</mediatype>
													<trackindex>2</trackindex>
													<clipindex>1</clipindex>
													<groupindex>1</groupindex>
												</link>
											</clipitem>
										</track>
									</audio>
								</media>
								<logginginfo>
									<description></description>
									<scene></scene>
									<shottake></shottake>
									<lognote>https://www.youtube.com/watch?v=A2RngeLM0xQ</lognote>
									<good></good>
									<originalvideofilename></originalvideofilename>
									<originalaudiofilename></originalaudiofilename>
								</logginginfo>
								<colorinfo>
									<lut></lut>
									<lut1></lut1>
									<asc_sop></asc_sop>
									<asc_sat></asc_sat>
									<lut2></lut2>
								</colorinfo>
								<labels>
									<label2>Iris</label2>
								</labels>
							</clip>
						</children>
					</bin>
					<bin>
						<name>farmhouse basket</name>
						<labels>
							<label2>Mango</label2>
						</labels>
						<children>
							<clip id="masterclip-79" explodedTracks="true">
								<uuid>aed8fea4-1af2-4b45-b909-b7f3c947bea4</uuid>
								<masterclipid>masterclip-79</masterclipid>
								<ismasterclip>TRUE</ismasterclip>
								<duration>30874</duration>
								<rate>
									<timebase>30</timebase>
									<ntsc>TRUE</ntsc>
								</rate>
								<name>(The Crafty Couple)_DIY Dollar Store Home Decor - Farmhouse DIY Tobacco Basket _NEW__BMdGqY_Ia7Q_YT.mp4</name>
								<media>
									<video>
										<track>
											<clipitem id="clipitem-377">
												<masterclipid>masterclip-79</masterclipid>
												<name>(The Crafty Couple)_DIY Dollar Store Home Decor - Farmhouse DIY Tobacco Basket _NEW__BMdGqY_Ia7Q_YT.mp4</name>
												<rate>
													<timebase>30</timebase>
													<ntsc>TRUE</ntsc>
												</rate>
												<alphatype>none</alphatype>
												<file id="file-64"/>
												<link>
													<linkclipref>clipitem-377</linkclipref>
													<mediatype>video</mediatype>
													<trackindex>1</trackindex>
													<clipindex>1</clipindex>
												</link>
												<link>
													<linkclipref>clipitem-378</linkclipref>
													<mediatype>audio</mediatype>
													<trackindex>1</trackindex>
													<clipindex>1</clipindex>
													<groupindex>1</groupindex>
												</link>
												<link>
													<linkclipref>clipitem-379</linkclipref>
													<mediatype>audio</mediatype>
													<trackindex>2</trackindex>
													<clipindex>1</clipindex>
													<groupindex>1</groupindex>
												</link>
											</clipitem>
										</track>
									</video>
									<audio>
										<track>
											<clipitem id="clipitem-378">
												<masterclipid>masterclip-79</masterclipid>
												<name>(The Crafty Couple)_DIY Dollar Store Home Decor - Farmhouse DIY Tobacco Basket _NEW__BMdGqY_Ia7Q_YT.mp4</name>
												<rate>
													<timebase>30</timebase>
													<ntsc>TRUE</ntsc>
												</rate>
												<file id="file-64"/>
												<sourcetrack>
													<mediatype>audio</mediatype>
													<trackindex>1</trackindex>
												</sourcetrack>
												<link>
													<linkclipref>clipitem-377</linkclipref>
													<mediatype>video</mediatype>
													<trackindex>1</trackindex>
													<clipindex>1</clipindex>
												</link>
												<link>
													<linkclipref>clipitem-378</linkclipref>
													<mediatype>audio</mediatype>
													<trackindex>1</trackindex>
													<clipindex>1</clipindex>
													<groupindex>1</groupindex>
												</link>
												<link>
													<linkclipref>clipitem-379</linkclipref>
													<mediatype>audio</mediatype>
													<trackindex>2</trackindex>
													<clipindex>1</clipindex>
													<groupindex>1</groupindex>
												</link>
											</clipitem>
										</track>
										<track>
											<clipitem id="clipitem-379">
												<masterclipid>masterclip-79</masterclipid>
												<name>(The Crafty Couple)_DIY Dollar Store Home Decor - Farmhouse DIY Tobacco Basket _NEW__BMdGqY_Ia7Q_YT.mp4</name>
												<rate>
													<timebase>30</timebase>
													<ntsc>TRUE</ntsc>
												</rate>
												<file id="file-64"/>
												<sourcetrack>
													<mediatype>audio</mediatype>
													<trackindex>2</trackindex>
												</sourcetrack>
												<link>
													<linkclipref>clipitem-377</linkclipref>
													<mediatype>video</mediatype>
													<trackindex>1</trackindex>
													<clipindex>1</clipindex>
												</link>
												<link>
													<linkclipref>clipitem-378</linkclipref>
													<mediatype>audio</mediatype>
													<trackindex>1</trackindex>
													<clipindex>1</clipindex>
													<groupindex>1</groupindex>
												</link>
												<link>
													<linkclipref>clipitem-379</linkclipref>
													<mediatype>audio</mediatype>
													<trackindex>2</trackindex>
													<clipindex>1</clipindex>
													<groupindex>1</groupindex>
												</link>
											</clipitem>
										</track>
									</audio>
								</media>
								<logginginfo>
									<description></description>
									<scene></scene>
									<shottake></shottake>
									<lognote>https://www.youtube.com/watch?v=BMdGqY_Ia7Q</lognote>
									<good></good>
									<originalvideofilename></originalvideofilename>
									<originalaudiofilename></originalaudiofilename>
								</logginginfo>
								<colorinfo>
									<lut></lut>
									<lut1></lut1>
									<asc_sop></asc_sop>
									<asc_sat></asc_sat>
									<lut2></lut2>
								</colorinfo>
								<labels>
									<label2>Iris</label2>
								</labels>
							</clip>
						</children>
					</bin>
					<bin>
						<name>easter decor</name>
						<labels>
							<label2>Mango</label2>
						</labels>
						<children>
							<clip id="masterclip-2" explodedTracks="true">
								<uuid>d4006f35-f5db-45c2-8d03-1d2b324f56f2</uuid>
								<masterclipid>masterclip-2</masterclipid>
								<ismasterclip>TRUE</ismasterclip>
								<duration>30470</duration>
								<rate>
									<timebase>30</timebase>
									<ntsc>TRUE</ntsc>
								</rate>
								<name>(The Crafty Quinn)_MUST TRY EASTER 2022 DOLLAR TREE DIYS _ EASTER 2022 DIY IDEAS _ BUDGET FRIENDLY_lYTTHAx5LcA_YT.mp4</name>
								<media>
									<video>
										<track>
											<clipitem id="clipitem-380">
												<masterclipid>masterclip-2</masterclipid>
												<name>(The Crafty Quinn)_MUST TRY EASTER 2022 DOLLAR TREE DIYS _ EASTER 2022 DIY IDEAS _ BUDGET FRIENDLY_lYTTHAx5LcA_YT.mp4</name>
												<rate>
													<timebase>30</timebase>
													<ntsc>TRUE</ntsc>
												</rate>
												<alphatype>none</alphatype>
												<file id="file-1"/>
												<link>
													<linkclipref>clipitem-380</linkclipref>
													<mediatype>video</mediatype>
													<trackindex>1</trackindex>
													<clipindex>1</clipindex>
												</link>
												<link>
													<linkclipref>clipitem-381</linkclipref>
													<mediatype>audio</mediatype>
													<trackindex>1</trackindex>
													<clipindex>1</clipindex>
													<groupindex>1</groupindex>
												</link>
												<link>
													<linkclipref>clipitem-382</linkclipref>
													<mediatype>audio</mediatype>
													<trackindex>2</trackindex>
													<clipindex>1</clipindex>
													<groupindex>1</groupindex>
												</link>
											</clipitem>
										</track>
									</video>
									<audio>
										<track>
											<clipitem id="clipitem-381">
												<masterclipid>masterclip-2</masterclipid>
												<name>(The Crafty Quinn)_MUST TRY EASTER 2022 DOLLAR TREE DIYS _ EASTER 2022 DIY IDEAS _ BUDGET FRIENDLY_lYTTHAx5LcA_YT.mp4</name>
												<rate>
													<timebase>30</timebase>
													<ntsc>TRUE</ntsc>
												</rate>
												<file id="file-1"/>
												<sourcetrack>
													<mediatype>audio</mediatype>
													<trackindex>1</trackindex>
												</sourcetrack>
												<link>
													<linkclipref>clipitem-380</linkclipref>
													<mediatype>video</mediatype>
													<trackindex>1</trackindex>
													<clipindex>1</clipindex>
												</link>
												<link>
													<linkclipref>clipitem-381</linkclipref>
													<mediatype>audio</mediatype>
													<trackindex>1</trackindex>
													<clipindex>1</clipindex>
													<groupindex>1</groupindex>
												</link>
												<link>
													<linkclipref>clipitem-382</linkclipref>
													<mediatype>audio</mediatype>
													<trackindex>2</trackindex>
													<clipindex>1</clipindex>
													<groupindex>1</groupindex>
												</link>
											</clipitem>
										</track>
										<track>
											<clipitem id="clipitem-382">
												<masterclipid>masterclip-2</masterclipid>
												<name>(The Crafty Quinn)_MUST TRY EASTER 2022 DOLLAR TREE DIYS _ EASTER 2022 DIY IDEAS _ BUDGET FRIENDLY_lYTTHAx5LcA_YT.mp4</name>
												<rate>
													<timebase>30</timebase>
													<ntsc>TRUE</ntsc>
												</rate>
												<file id="file-1"/>
												<sourcetrack>
													<mediatype>audio</mediatype>
													<trackindex>2</trackindex>
												</sourcetrack>
												<link>
													<linkclipref>clipitem-380</linkclipref>
													<mediatype>video</mediatype>
													<trackindex>1</trackindex>
													<clipindex>1</clipindex>
												</link>
												<link>
													<linkclipref>clipitem-381</linkclipref>
													<mediatype>audio</mediatype>
													<trackindex>1</trackindex>
													<clipindex>1</clipindex>
													<groupindex>1</groupindex>
												</link>
												<link>
													<linkclipref>clipitem-382</linkclipref>
													<mediatype>audio</mediatype>
													<trackindex>2</trackindex>
													<clipindex>1</clipindex>
													<groupindex>1</groupindex>
												</link>
											</clipitem>
										</track>
									</audio>
								</media>
								<logginginfo>
									<description></description>
									<scene></scene>
									<shottake></shottake>
									<lognote>https://www.youtube.com/watch?v=lYTTHAx5LcA</lognote>
									<good></good>
									<originalvideofilename></originalvideofilename>
									<originalaudiofilename></originalaudiofilename>
								</logginginfo>
								<colorinfo>
									<lut></lut>
									<lut1></lut1>
									<asc_sop></asc_sop>
									<asc_sat></asc_sat>
									<lut2></lut2>
								</colorinfo>
								<labels>
									<label2>Iris</label2>
								</labels>
							</clip>
						</children>
					</bin>
					<bin>
						<name>easter decor 2</name>
						<labels>
							<label2>Mango</label2>
						</labels>
						<children>
							<clip id="masterclip-98" explodedTracks="true">
								<uuid>019c5c91-799a-424c-bc31-3416adc2f938</uuid>
								<masterclipid>masterclip-98</masterclipid>
								<ismasterclip>TRUE</ismasterclip>
								<duration>62831</duration>
								<rate>
									<timebase>30</timebase>
									<ntsc>FALSE</ntsc>
								</rate>
								<name>(Coffee N Crafting)_BEST SPRING &amp; EASTER Diy's of 2022~Dollar Tree Diy's~Rustic Farmhouse~_mtnS88FpEvI_YT.mp4</name>
								<media>
									<video>
										<track>
											<clipitem id="clipitem-383">
												<masterclipid>masterclip-98</masterclipid>
												<name>(Coffee N Crafting)_BEST SPRING &amp; EASTER Diy's of 2022~Dollar Tree Diy's~Rustic Farmhouse~_mtnS88FpEvI_YT.mp4</name>
												<rate>
													<timebase>30</timebase>
													<ntsc>FALSE</ntsc>
												</rate>
												<alphatype>none</alphatype>
												<file id="file-79"/>
												<link>
													<linkclipref>clipitem-383</linkclipref>
													<mediatype>video</mediatype>
													<trackindex>1</trackindex>
													<clipindex>1</clipindex>
												</link>
												<link>
													<linkclipref>clipitem-384</linkclipref>
													<mediatype>audio</mediatype>
													<trackindex>1</trackindex>
													<clipindex>1</clipindex>
													<groupindex>1</groupindex>
												</link>
												<link>
													<linkclipref>clipitem-385</linkclipref>
													<mediatype>audio</mediatype>
													<trackindex>2</trackindex>
													<clipindex>1</clipindex>
													<groupindex>1</groupindex>
												</link>
											</clipitem>
										</track>
									</video>
									<audio>
										<track>
											<clipitem id="clipitem-384">
												<masterclipid>masterclip-98</masterclipid>
												<name>(Coffee N Crafting)_BEST SPRING &amp; EASTER Diy's of 2022~Dollar Tree Diy's~Rustic Farmhouse~_mtnS88FpEvI_YT.mp4</name>
												<rate>
													<timebase>30</timebase>
													<ntsc>FALSE</ntsc>
												</rate>
												<file id="file-79"/>
												<sourcetrack>
													<mediatype>audio</mediatype>
													<trackindex>1</trackindex>
												</sourcetrack>
												<link>
													<linkclipref>clipitem-383</linkclipref>
													<mediatype>video</mediatype>
													<trackindex>1</trackindex>
													<clipindex>1</clipindex>
												</link>
												<link>
													<linkclipref>clipitem-384</linkclipref>
													<mediatype>audio</mediatype>
													<trackindex>1</trackindex>
													<clipindex>1</clipindex>
													<groupindex>1</groupindex>
												</link>
												<link>
													<linkclipref>clipitem-385</linkclipref>
													<mediatype>audio</mediatype>
													<trackindex>2</trackindex>
													<clipindex>1</clipindex>
													<groupindex>1</groupindex>
												</link>
											</clipitem>
										</track>
										<track>
											<clipitem id="clipitem-385">
												<masterclipid>masterclip-98</masterclipid>
												<name>(Coffee N Crafting)_BEST SPRING &amp; EASTER Diy's of 2022~Dollar Tree Diy's~Rustic Farmhouse~_mtnS88FpEvI_YT.mp4</name>
												<rate>
													<timebase>30</timebase>
													<ntsc>FALSE</ntsc>
												</rate>
												<file id="file-79"/>
												<sourcetrack>
													<mediatype>audio</mediatype>
													<trackindex>2</trackindex>
												</sourcetrack>
												<link>
													<linkclipref>clipitem-383</linkclipref>
													<mediatype>video</mediatype>
													<trackindex>1</trackindex>
													<clipindex>1</clipindex>
												</link>
												<link>
													<linkclipref>clipitem-384</linkclipref>
													<mediatype>audio</mediatype>
													<trackindex>1</trackindex>
													<clipindex>1</clipindex>
													<groupindex>1</groupindex>
												</link>
												<link>
													<linkclipref>clipitem-385</linkclipref>
													<mediatype>audio</mediatype>
													<trackindex>2</trackindex>
													<clipindex>1</clipindex>
													<groupindex>1</groupindex>
												</link>
											</clipitem>
										</track>
									</audio>
								</media>
								<logginginfo>
									<description></description>
									<scene></scene>
									<shottake></shottake>
									<lognote>https://www.youtube.com/watch?v=mtnS88FpEvI</lognote>
									<good></good>
									<originalvideofilename></originalvideofilename>
									<originalaudiofilename></originalaudiofilename>
								</logginginfo>
								<colorinfo>
									<lut></lut>
									<lut1></lut1>
									<asc_sop></asc_sop>
									<asc_sat></asc_sat>
									<lut2></lut2>
								</colorinfo>
								<labels>
									<label2>Iris</label2>
								</labels>
							</clip>
						</children>
					</bin>
					<bin>
						<name>boho tray</name>
						<labels>
							<label2>Mango</label2>
						</labels>
						<children>
							<clip id="masterclip-42" explodedTracks="true">
								<uuid>bc896bf7-3942-473a-8f7a-c5e2f696a116</uuid>
								<masterclipid>masterclip-42</masterclipid>
								<ismasterclip>TRUE</ismasterclip>
								<duration>1645</duration>
								<rate>
									<timebase>30</timebase>
									<ntsc>FALSE</ntsc>
								</rate>
								<name>(FaithHopeHome)_Dollar Tree Boho Tray DIY_cnGH79gi-c8_YT.mp4</name>
								<media>
									<video>
										<track>
											<clipitem id="clipitem-386">
												<masterclipid>masterclip-42</masterclipid>
												<name>(FaithHopeHome)_Dollar Tree Boho Tray DIY_cnGH79gi-c8_YT.mp4</name>
												<rate>
													<timebase>30</timebase>
													<ntsc>FALSE</ntsc>
												</rate>
												<alphatype>none</alphatype>
												<file id="file-34"/>
												<link>
													<linkclipref>clipitem-386</linkclipref>
													<mediatype>video</mediatype>
													<trackindex>1</trackindex>
													<clipindex>1</clipindex>
												</link>
												<link>
													<linkclipref>clipitem-387</linkclipref>
													<mediatype>audio</mediatype>
													<trackindex>1</trackindex>
													<clipindex>1</clipindex>
													<groupindex>1</groupindex>
												</link>
												<link>
													<linkclipref>clipitem-388</linkclipref>
													<mediatype>audio</mediatype>
													<trackindex>2</trackindex>
													<clipindex>1</clipindex>
													<groupindex>1</groupindex>
												</link>
											</clipitem>
										</track>
									</video>
									<audio>
										<track>
											<clipitem id="clipitem-387">
												<masterclipid>masterclip-42</masterclipid>
												<name>(FaithHopeHome)_Dollar Tree Boho Tray DIY_cnGH79gi-c8_YT.mp4</name>
												<rate>
													<timebase>30</timebase>
													<ntsc>FALSE</ntsc>
												</rate>
												<file id="file-34"/>
												<sourcetrack>
													<mediatype>audio</mediatype>
													<trackindex>1</trackindex>
												</sourcetrack>
												<link>
													<linkclipref>clipitem-386</linkclipref>
													<mediatype>video</mediatype>
													<trackindex>1</trackindex>
													<clipindex>1</clipindex>
												</link>
												<link>
													<linkclipref>clipitem-387</linkclipref>
													<mediatype>audio</mediatype>
													<trackindex>1</trackindex>
													<clipindex>1</clipindex>
													<groupindex>1</groupindex>
												</link>
												<link>
													<linkclipref>clipitem-388</linkclipref>
													<mediatype>audio</mediatype>
													<trackindex>2</trackindex>
													<clipindex>1</clipindex>
													<groupindex>1</groupindex>
												</link>
											</clipitem>
										</track>
										<track>
											<clipitem id="clipitem-388">
												<masterclipid>masterclip-42</masterclipid>
												<name>(FaithHopeHome)_Dollar Tree Boho Tray DIY_cnGH79gi-c8_YT.mp4</name>
												<rate>
													<timebase>30</timebase>
													<ntsc>FALSE</ntsc>
												</rate>
												<file id="file-34"/>
												<sourcetrack>
													<mediatype>audio</mediatype>
													<trackindex>2</trackindex>
												</sourcetrack>
												<link>
													<linkclipref>clipitem-386</linkclipref>
													<mediatype>video</mediatype>
													<trackindex>1</trackindex>
													<clipindex>1</clipindex>
												</link>
												<link>
													<linkclipref>clipitem-387</linkclipref>
													<mediatype>audio</mediatype>
													<trackindex>1</trackindex>
													<clipindex>1</clipindex>
													<groupindex>1</groupindex>
												</link>
												<link>
													<linkclipref>clipitem-388</linkclipref>
													<mediatype>audio</mediatype>
													<trackindex>2</trackindex>
													<clipindex>1</clipindex>
													<groupindex>1</groupindex>
												</link>
											</clipitem>
										</track>
									</audio>
								</media>
								<logginginfo>
									<description></description>
									<scene></scene>
									<shottake></shottake>
									<lognote>https://www.youtube.com/watch?v=cnGH79gi-c8</lognote>
									<good></good>
									<originalvideofilename></originalvideofilename>
									<originalaudiofilename></originalaudiofilename>
								</logginginfo>
								<colorinfo>
									<lut></lut>
									<lut1></lut1>
									<asc_sop></asc_sop>
									<asc_sat></asc_sat>
									<lut2></lut2>
								</colorinfo>
								<labels>
									<label2>Iris</label2>
								</labels>
							</clip>
						</children>
					</bin>
					<bin>
						<name>farmhouse windmill</name>
						<labels>
							<label2>Mango</label2>
						</labels>
						<children>
							<clip id="masterclip-39" explodedTracks="true">
								<uuid>28a50589-9d5f-4537-a871-f9a33a8c53af</uuid>
								<masterclipid>masterclip-39</masterclipid>
								<ismasterclip>TRUE</ismasterclip>
								<duration>21914</duration>
								<rate>
									<timebase>30</timebase>
									<ntsc>FALSE</ntsc>
								</rate>
								<name>(Kiki DiY's)_Dollar Tree Galvanized Farmhouse Windmill _ Easy and Inexpensive Home Decor _ Oops I Did It Again_P5qLwgfe5zk_YT.mp4</name>
								<media>
									<video>
										<track>
											<clipitem id="clipitem-389">
												<masterclipid>masterclip-39</masterclipid>
												<name>(Kiki DiY's)_Dollar Tree Galvanized Farmhouse Windmill _ Easy and Inexpensive Home Decor _ Oops I Did It Again_P5qLwgfe5zk_YT.mp4</name>
												<rate>
													<timebase>30</timebase>
													<ntsc>FALSE</ntsc>
												</rate>
												<alphatype>none</alphatype>
												<file id="file-32"/>
												<link>
													<linkclipref>clipitem-389</linkclipref>
													<mediatype>video</mediatype>
													<trackindex>1</trackindex>
													<clipindex>1</clipindex>
												</link>
												<link>
													<linkclipref>clipitem-390</linkclipref>
													<mediatype>audio</mediatype>
													<trackindex>1</trackindex>
													<clipindex>1</clipindex>
													<groupindex>1</groupindex>
												</link>
												<link>
													<linkclipref>clipitem-391</linkclipref>
													<mediatype>audio</mediatype>
													<trackindex>2</trackindex>
													<clipindex>1</clipindex>
													<groupindex>1</groupindex>
												</link>
											</clipitem>
										</track>
									</video>
									<audio>
										<track>
											<clipitem id="clipitem-390">
												<masterclipid>masterclip-39</masterclipid>
												<name>(Kiki DiY's)_Dollar Tree Galvanized Farmhouse Windmill _ Easy and Inexpensive Home Decor _ Oops I Did It Again_P5qLwgfe5zk_YT.mp4</name>
												<rate>
													<timebase>30</timebase>
													<ntsc>FALSE</ntsc>
												</rate>
												<file id="file-32"/>
												<sourcetrack>
													<mediatype>audio</mediatype>
													<trackindex>1</trackindex>
												</sourcetrack>
												<link>
													<linkclipref>clipitem-389</linkclipref>
													<mediatype>video</mediatype>
													<trackindex>1</trackindex>
													<clipindex>1</clipindex>
												</link>
												<link>
													<linkclipref>clipitem-390</linkclipref>
													<mediatype>audio</mediatype>
													<trackindex>1</trackindex>
													<clipindex>1</clipindex>
													<groupindex>1</groupindex>
												</link>
												<link>
													<linkclipref>clipitem-391</linkclipref>
													<mediatype>audio</mediatype>
													<trackindex>2</trackindex>
													<clipindex>1</clipindex>
													<groupindex>1</groupindex>
												</link>
											</clipitem>
										</track>
										<track>
											<clipitem id="clipitem-391">
												<masterclipid>masterclip-39</masterclipid>
												<name>(Kiki DiY's)_Dollar Tree Galvanized Farmhouse Windmill _ Easy and Inexpensive Home Decor _ Oops I Did It Again_P5qLwgfe5zk_YT.mp4</name>
												<rate>
													<timebase>30</timebase>
													<ntsc>FALSE</ntsc>
												</rate>
												<file id="file-32"/>
												<sourcetrack>
													<mediatype>audio</mediatype>
													<trackindex>2</trackindex>
												</sourcetrack>
												<link>
													<linkclipref>clipitem-389</linkclipref>
													<mediatype>video</mediatype>
													<trackindex>1</trackindex>
													<clipindex>1</clipindex>
												</link>
												<link>
													<linkclipref>clipitem-390</linkclipref>
													<mediatype>audio</mediatype>
													<trackindex>1</trackindex>
													<clipindex>1</clipindex>
													<groupindex>1</groupindex>
												</link>
												<link>
													<linkclipref>clipitem-391</linkclipref>
													<mediatype>audio</mediatype>
													<trackindex>2</trackindex>
													<clipindex>1</clipindex>
													<groupindex>1</groupindex>
												</link>
											</clipitem>
										</track>
									</audio>
								</media>
								<logginginfo>
									<description></description>
									<scene></scene>
									<shottake></shottake>
									<lognote>https://www.youtube.com/watch?v=P5qLwgfe5zk</lognote>
									<good></good>
									<originalvideofilename></originalvideofilename>
									<originalaudiofilename></originalaudiofilename>
								</logginginfo>
								<colorinfo>
									<lut></lut>
									<lut1></lut1>
									<asc_sop></asc_sop>
									<asc_sat></asc_sat>
									<lut2></lut2>
								</colorinfo>
								<labels>
									<label2>Iris</label2>
								</labels>
							</clip>
						</children>
					</bin>
					<bin>
						<name>paint mixing</name>
						<labels>
							<label2>Mango</label2>
						</labels>
						<children>
							<clip id="masterclip-89" explodedTracks="true">
								<uuid>162ff3da-de8f-4472-95e7-0990f58ca1d8</uuid>
								<masterclipid>masterclip-89</masterclipid>
								<ismasterclip>TRUE</ismasterclip>
								<duration>4215</duration>
								<rate>
									<timebase>30</timebase>
									<ntsc>FALSE</ntsc>
								</rate>
								<name>(Labedzki-Art)_FROZEN PAINT MIXING_ A GALAXY FAR AWAY_R36mkq7apCI_YT.mp4</name>
								<media>
									<video>
										<track>
											<clipitem id="clipitem-392">
												<masterclipid>masterclip-89</masterclipid>
												<name>(Labedzki-Art)_FROZEN PAINT MIXING_ A GALAXY FAR AWAY_R36mkq7apCI_YT.mp4</name>
												<rate>
													<timebase>30</timebase>
													<ntsc>FALSE</ntsc>
												</rate>
												<alphatype>none</alphatype>
												<file id="file-72"/>
												<link>
													<linkclipref>clipitem-392</linkclipref>
													<mediatype>video</mediatype>
													<trackindex>1</trackindex>
													<clipindex>1</clipindex>
												</link>
												<link>
													<linkclipref>clipitem-393</linkclipref>
													<mediatype>audio</mediatype>
													<trackindex>1</trackindex>
													<clipindex>1</clipindex>
													<groupindex>1</groupindex>
												</link>
												<link>
													<linkclipref>clipitem-394</linkclipref>
													<mediatype>audio</mediatype>
													<trackindex>2</trackindex>
													<clipindex>1</clipindex>
													<groupindex>1</groupindex>
												</link>
											</clipitem>
										</track>
									</video>
									<audio>
										<track>
											<clipitem id="clipitem-393">
												<masterclipid>masterclip-89</masterclipid>
												<name>(Labedzki-Art)_FROZEN PAINT MIXING_ A GALAXY FAR AWAY_R36mkq7apCI_YT.mp4</name>
												<rate>
													<timebase>30</timebase>
													<ntsc>FALSE</ntsc>
												</rate>
												<file id="file-72"/>
												<sourcetrack>
													<mediatype>audio</mediatype>
													<trackindex>1</trackindex>
												</sourcetrack>
												<link>
													<linkclipref>clipitem-392</linkclipref>
													<mediatype>video</mediatype>
													<trackindex>1</trackindex>
													<clipindex>1</clipindex>
												</link>
												<link>
													<linkclipref>clipitem-393</linkclipref>
													<mediatype>audio</mediatype>
													<trackindex>1</trackindex>
													<clipindex>1</clipindex>
													<groupindex>1</groupindex>
												</link>
												<link>
													<linkclipref>clipitem-394</linkclipref>
													<mediatype>audio</mediatype>
													<trackindex>2</trackindex>
													<clipindex>1</clipindex>
													<groupindex>1</groupindex>
												</link>
											</clipitem>
										</track>
										<track>
											<clipitem id="clipitem-394">
												<masterclipid>masterclip-89</masterclipid>
												<name>(Labedzki-Art)_FROZEN PAINT MIXING_ A GALAXY FAR AWAY_R36mkq7apCI_YT.mp4</name>
												<rate>
													<timebase>30</timebase>
													<ntsc>FALSE</ntsc>
												</rate>
												<file id="file-72"/>
												<sourcetrack>
													<mediatype>audio</mediatype>
													<trackindex>2</trackindex>
												</sourcetrack>
												<link>
													<linkclipref>clipitem-392</linkclipref>
													<mediatype>video</mediatype>
													<trackindex>1</trackindex>
													<clipindex>1</clipindex>
												</link>
												<link>
													<linkclipref>clipitem-393</linkclipref>
													<mediatype>audio</mediatype>
													<trackindex>1</trackindex>
													<clipindex>1</clipindex>
													<groupindex>1</groupindex>
												</link>
												<link>
													<linkclipref>clipitem-394</linkclipref>
													<mediatype>audio</mediatype>
													<trackindex>2</trackindex>
													<clipindex>1</clipindex>
													<groupindex>1</groupindex>
												</link>
											</clipitem>
										</track>
									</audio>
								</media>
								<logginginfo>
									<description>FROZEN PAINT MIXING: A GALAXY FAR AWAY</description>
									<scene></scene>
									<shottake></shottake>
									<lognote>https://www.youtube.com/watch?v=R36mkq7apCI</lognote>
									<good></good>
									<originalvideofilename></originalvideofilename>
									<originalaudiofilename></originalaudiofilename>
								</logginginfo>
								<colorinfo>
									<lut></lut>
									<lut1></lut1>
									<asc_sop></asc_sop>
									<asc_sat></asc_sat>
									<lut2></lut2>
								</colorinfo>
								<labels>
									<label2>Iris</label2>
								</labels>
							</clip>
						</children>
					</bin>
					<bin>
						<name>orange drawing</name>
						<labels>
							<label2>Mango</label2>
						</labels>
						<children>
							<clip id="masterclip-52" explodedTracks="true">
								<uuid>2d9fdd7c-74e5-4302-a06d-3563114604b7</uuid>
								<masterclipid>masterclip-52</masterclipid>
								<ismasterclip>TRUE</ismasterclip>
								<duration>28102</duration>
								<rate>
									<timebase>50</timebase>
									<ntsc>FALSE</ntsc>
								</rate>
								<name>(ADCArtAttack)_Coloring Using ONLY ORANGE _ DYING LIGHT 2_GDbZ2x1c2-w_YT.mp4</name>
								<media>
									<video>
										<track>
											<clipitem id="clipitem-395">
												<masterclipid>masterclip-52</masterclipid>
												<name>(ADCArtAttack)_Coloring Using ONLY ORANGE _ DYING LIGHT 2_GDbZ2x1c2-w_YT.mp4</name>
												<rate>
													<timebase>50</timebase>
													<ntsc>FALSE</ntsc>
												</rate>
												<alphatype>none</alphatype>
												<file id="file-42"/>
												<link>
													<linkclipref>clipitem-395</linkclipref>
													<mediatype>video</mediatype>
													<trackindex>1</trackindex>
													<clipindex>1</clipindex>
												</link>
												<link>
													<linkclipref>clipitem-396</linkclipref>
													<mediatype>audio</mediatype>
													<trackindex>1</trackindex>
													<clipindex>1</clipindex>
													<groupindex>1</groupindex>
												</link>
												<link>
													<linkclipref>clipitem-397</linkclipref>
													<mediatype>audio</mediatype>
													<trackindex>2</trackindex>
													<clipindex>1</clipindex>
													<groupindex>1</groupindex>
												</link>
											</clipitem>
										</track>
									</video>
									<audio>
										<track>
											<clipitem id="clipitem-396">
												<masterclipid>masterclip-52</masterclipid>
												<name>(ADCArtAttack)_Coloring Using ONLY ORANGE _ DYING LIGHT 2_GDbZ2x1c2-w_YT.mp4</name>
												<rate>
													<timebase>50</timebase>
													<ntsc>FALSE</ntsc>
												</rate>
												<file id="file-42"/>
												<sourcetrack>
													<mediatype>audio</mediatype>
													<trackindex>1</trackindex>
												</sourcetrack>
												<link>
													<linkclipref>clipitem-395</linkclipref>
													<mediatype>video</mediatype>
													<trackindex>1</trackindex>
													<clipindex>1</clipindex>
												</link>
												<link>
													<linkclipref>clipitem-396</linkclipref>
													<mediatype>audio</mediatype>
													<trackindex>1</trackindex>
													<clipindex>1</clipindex>
													<groupindex>1</groupindex>
												</link>
												<link>
													<linkclipref>clipitem-397</linkclipref>
													<mediatype>audio</mediatype>
													<trackindex>2</trackindex>
													<clipindex>1</clipindex>
													<groupindex>1</groupindex>
												</link>
											</clipitem>
										</track>
										<track>
											<clipitem id="clipitem-397">
												<masterclipid>masterclip-52</masterclipid>
												<name>(ADCArtAttack)_Coloring Using ONLY ORANGE _ DYING LIGHT 2_GDbZ2x1c2-w_YT.mp4</name>
												<rate>
													<timebase>50</timebase>
													<ntsc>FALSE</ntsc>
												</rate>
												<file id="file-42"/>
												<sourcetrack>
													<mediatype>audio</mediatype>
													<trackindex>2</trackindex>
												</sourcetrack>
												<link>
													<linkclipref>clipitem-395</linkclipref>
													<mediatype>video</mediatype>
													<trackindex>1</trackindex>
													<clipindex>1</clipindex>
												</link>
												<link>
													<linkclipref>clipitem-396</linkclipref>
													<mediatype>audio</mediatype>
													<trackindex>1</trackindex>
													<clipindex>1</clipindex>
													<groupindex>1</groupindex>
												</link>
												<link>
													<linkclipref>clipitem-397</linkclipref>
													<mediatype>audio</mediatype>
													<trackindex>2</trackindex>
													<clipindex>1</clipindex>
													<groupindex>1</groupindex>
												</link>
											</clipitem>
										</track>
									</audio>
								</media>
								<logginginfo>
									<description></description>
									<scene></scene>
									<shottake></shottake>
									<lognote>https://www.youtube.com/watch?v=GDbZ2x1c2-w</lognote>
									<good></good>
									<originalvideofilename></originalvideofilename>
									<originalaudiofilename></originalaudiofilename>
								</logginginfo>
								<colorinfo>
									<lut></lut>
									<lut1></lut1>
									<asc_sop></asc_sop>
									<asc_sat></asc_sat>
									<lut2></lut2>
								</colorinfo>
								<labels>
									<label2>Iris</label2>
								</labels>
							</clip>
						</children>
					</bin>
					<bin>
						<name>diy decor</name>
						<labels>
							<label2>Mango</label2>
						</labels>
						<children>
							<clip id="masterclip-92" explodedTracks="true">
								<uuid>6469ac3c-325c-452b-81c6-3cd2277e04ab</uuid>
								<masterclipid>masterclip-92</masterclipid>
								<ismasterclip>TRUE</ismasterclip>
								<duration>64220</duration>
								<rate>
									<timebase>60</timebase>
									<ntsc>TRUE</ntsc>
								</rate>
								<name>(The Crafty Couple)_SO EASY!! DIY Home Decor For Only A Few DOLLARS! Dollar Store DIY 2022 😮_uAp_7NEO0zc_YT.mp4</name>
								<media>
									<video>
										<track>
											<clipitem id="clipitem-398">
												<masterclipid>masterclip-92</masterclipid>
												<name>(The Crafty Couple)_SO EASY!! DIY Home Decor For Only A Few DOLLARS! Dollar Store DIY 2022 😮_uAp_7NEO0zc_YT.mp4</name>
												<rate>
													<timebase>60</timebase>
													<ntsc>TRUE</ntsc>
												</rate>
												<alphatype>none</alphatype>
												<file id="file-74"/>
												<link>
													<linkclipref>clipitem-398</linkclipref>
													<mediatype>video</mediatype>
													<trackindex>1</trackindex>
													<clipindex>1</clipindex>
												</link>
												<link>
													<linkclipref>clipitem-399</linkclipref>
													<mediatype>audio</mediatype>
													<trackindex>1</trackindex>
													<clipindex>1</clipindex>
													<groupindex>1</groupindex>
												</link>
												<link>
													<linkclipref>clipitem-400</linkclipref>
													<mediatype>audio</mediatype>
													<trackindex>2</trackindex>
													<clipindex>1</clipindex>
													<groupindex>1</groupindex>
												</link>
											</clipitem>
										</track>
									</video>
									<audio>
										<track>
											<clipitem id="clipitem-399">
												<masterclipid>masterclip-92</masterclipid>
												<name>(The Crafty Couple)_SO EASY!! DIY Home Decor For Only A Few DOLLARS! Dollar Store DIY 2022 😮_uAp_7NEO0zc_YT.mp4</name>
												<rate>
													<timebase>60</timebase>
													<ntsc>TRUE</ntsc>
												</rate>
												<file id="file-74"/>
												<sourcetrack>
													<mediatype>audio</mediatype>
													<trackindex>1</trackindex>
												</sourcetrack>
												<link>
													<linkclipref>clipitem-398</linkclipref>
													<mediatype>video</mediatype>
													<trackindex>1</trackindex>
													<clipindex>1</clipindex>
												</link>
												<link>
													<linkclipref>clipitem-399</linkclipref>
													<mediatype>audio</mediatype>
													<trackindex>1</trackindex>
													<clipindex>1</clipindex>
													<groupindex>1</groupindex>
												</link>
												<link>
													<linkclipref>clipitem-400</linkclipref>
													<mediatype>audio</mediatype>
													<trackindex>2</trackindex>
													<clipindex>1</clipindex>
													<groupindex>1</groupindex>
												</link>
											</clipitem>
										</track>
										<track>
											<clipitem id="clipitem-400">
												<masterclipid>masterclip-92</masterclipid>
												<name>(The Crafty Couple)_SO EASY!! DIY Home Decor For Only A Few DOLLARS! Dollar Store DIY 2022 😮_uAp_7NEO0zc_YT.mp4</name>
												<rate>
													<timebase>60</timebase>
													<ntsc>TRUE</ntsc>
												</rate>
												<file id="file-74"/>
												<sourcetrack>
													<mediatype>audio</mediatype>
													<trackindex>2</trackindex>
												</sourcetrack>
												<link>
													<linkclipref>clipitem-398</linkclipref>
													<mediatype>video</mediatype>
													<trackindex>1</trackindex>
													<clipindex>1</clipindex>
												</link>
												<link>
													<linkclipref>clipitem-399</linkclipref>
													<mediatype>audio</mediatype>
													<trackindex>1</trackindex>
													<clipindex>1</clipindex>
													<groupindex>1</groupindex>
												</link>
												<link>
													<linkclipref>clipitem-400</linkclipref>
													<mediatype>audio</mediatype>
													<trackindex>2</trackindex>
													<clipindex>1</clipindex>
													<groupindex>1</groupindex>
												</link>
											</clipitem>
										</track>
									</audio>
								</media>
								<logginginfo>
									<description></description>
									<scene></scene>
									<shottake></shottake>
									<lognote>https://www.youtube.com/watch?v=uAp_7NEO0zc</lognote>
									<good></good>
									<originalvideofilename></originalvideofilename>
									<originalaudiofilename></originalaudiofilename>
								</logginginfo>
								<colorinfo>
									<lut></lut>
									<lut1></lut1>
									<asc_sop></asc_sop>
									<asc_sat></asc_sat>
									<lut2></lut2>
								</colorinfo>
								<labels>
									<label2>Iris</label2>
								</labels>
							</clip>
						</children>
					</bin>
				</children>
			</bin>
			<bin>
				<name>2_Lower Thirds</name>
				<labels>
					<label2>Mango</label2>
				</labels>
				<children>
					<bin>
						<name>used</name>
						<labels>
							<label2>Mango</label2>
						</labels>
						<children>
							<clip id="masterclip-7" explodedTracks="true">
								<uuid>7ed9b382-1507-4ef8-bfec-efedfa36d532</uuid>
								<masterclipid>masterclip-7</masterclipid>
								<ismasterclip>TRUE</ismasterclip>
								<duration>5701</duration>
								<rate>
									<timebase>30</timebase>
									<ntsc>FALSE</ntsc>
								</rate>
								<name>PEEP THIS SIGN</name>
								<media>
									<video>
										<track>
											<clipitem id="clipitem-401">
												<masterclipid>masterclip-7</masterclipid>
												<name>PEEP THIS SIGN</name>
												<rate>
													<timebase>30</timebase>
													<ntsc>FALSE</ntsc>
												</rate>
												<alphatype>straight</alphatype>
												<file id="file-5"/>
											</clipitem>
										</track>
									</video>
								</media>
								<logginginfo>
									<description></description>
									<scene></scene>
									<shottake></shottake>
									<lognote></lognote>
									<good></good>
									<originalvideofilename></originalvideofilename>
									<originalaudiofilename></originalaudiofilename>
								</logginginfo>
								<colorinfo>
									<lut></lut>
									<lut1></lut1>
									<asc_sop></asc_sop>
									<asc_sat></asc_sat>
									<lut2></lut2>
								</colorinfo>
								<labels>
									<label2>Rose</label2>
								</labels>
							</clip>
							<clip id="masterclip-8" explodedTracks="true">
								<uuid>8f537585-7d03-44ea-8758-a1d857e7e109</uuid>
								<masterclipid>masterclip-8</masterclipid>
								<ismasterclip>TRUE</ismasterclip>
								<duration>5701</duration>
								<rate>
									<timebase>30</timebase>
									<ntsc>FALSE</ntsc>
								</rate>
								<name>CHANGING OF THE SEASONS</name>
								<media>
									<video>
										<track>
											<clipitem id="clipitem-402">
												<masterclipid>masterclip-8</masterclipid>
												<name>CHANGING OF THE SEASONS</name>
												<rate>
													<timebase>30</timebase>
													<ntsc>FALSE</ntsc>
												</rate>
												<alphatype>straight</alphatype>
												<file id="file-6"/>
											</clipitem>
										</track>
									</video>
								</media>
								<logginginfo>
									<description></description>
									<scene></scene>
									<shottake></shottake>
									<lognote></lognote>
									<good></good>
									<originalvideofilename></originalvideofilename>
									<originalaudiofilename></originalaudiofilename>
								</logginginfo>
								<colorinfo>
									<lut></lut>
									<lut1></lut1>
									<asc_sop></asc_sop>
									<asc_sat></asc_sat>
									<lut2></lut2>
								</colorinfo>
								<labels>
									<label2>Rose</label2>
								</labels>
							</clip>
							<clip id="masterclip-20" explodedTracks="true">
								<uuid>018004ce-b49d-480f-91b0-fd2c8dd9d5f5</uuid>
								<masterclipid>masterclip-20</masterclipid>
								<ismasterclip>TRUE</ismasterclip>
								<duration>5701</duration>
								<rate>
									<timebase>30</timebase>
									<ntsc>FALSE</ntsc>
								</rate>
								<name>THE STING</name>
								<media>
									<video>
										<track>
											<clipitem id="clipitem-403">
												<masterclipid>masterclip-20</masterclipid>
												<name>THE STING</name>
												<rate>
													<timebase>30</timebase>
													<ntsc>FALSE</ntsc>
												</rate>
												<alphatype>straight</alphatype>
												<file id="file-16"/>
											</clipitem>
										</track>
									</video>
								</media>
								<logginginfo>
									<description></description>
									<scene></scene>
									<shottake></shottake>
									<lognote></lognote>
									<good></good>
									<originalvideofilename></originalvideofilename>
									<originalaudiofilename></originalaudiofilename>
								</logginginfo>
								<colorinfo>
									<lut></lut>
									<lut1></lut1>
									<asc_sop></asc_sop>
									<asc_sat></asc_sat>
									<lut2></lut2>
								</colorinfo>
								<labels>
									<label2>Rose</label2>
								</labels>
							</clip>
							<clip id="masterclip-21" explodedTracks="true">
								<uuid>c331233f-9ba0-47d4-b909-790ff9e0e16c</uuid>
								<masterclipid>masterclip-21</masterclipid>
								<ismasterclip>TRUE</ismasterclip>
								<duration>5701</duration>
								<rate>
									<timebase>30</timebase>
									<ntsc>FALSE</ntsc>
								</rate>
								<name>GRUNGY GLAM</name>
								<media>
									<video>
										<track>
											<clipitem id="clipitem-404">
												<masterclipid>masterclip-21</masterclipid>
												<name>GRUNGY GLAM</name>
												<rate>
													<timebase>30</timebase>
													<ntsc>FALSE</ntsc>
												</rate>
												<alphatype>straight</alphatype>
												<file id="file-17"/>
											</clipitem>
										</track>
									</video>
								</media>
								<logginginfo>
									<description></description>
									<scene></scene>
									<shottake></shottake>
									<lognote></lognote>
									<good></good>
									<originalvideofilename></originalvideofilename>
									<originalaudiofilename></originalaudiofilename>
								</logginginfo>
								<colorinfo>
									<lut></lut>
									<lut1></lut1>
									<asc_sop></asc_sop>
									<asc_sat></asc_sat>
									<lut2></lut2>
								</colorinfo>
								<labels>
									<label2>Rose</label2>
								</labels>
							</clip>
							<clip id="masterclip-34" explodedTracks="true">
								<uuid>a7488521-5de4-42d0-825b-e46f5b0479c7</uuid>
								<masterclipid>masterclip-34</masterclipid>
								<ismasterclip>TRUE</ismasterclip>
								<duration>5701</duration>
								<rate>
									<timebase>30</timebase>
									<ntsc>FALSE</ntsc>
								</rate>
								<name>DIY SELF WATERING GARDEN BED</name>
								<media>
									<video>
										<track>
											<clipitem id="clipitem-405">
												<masterclipid>masterclip-34</masterclipid>
												<name>DIY SELF WATERING GARDEN BED</name>
												<rate>
													<timebase>30</timebase>
													<ntsc>FALSE</ntsc>
												</rate>
												<alphatype>straight</alphatype>
												<file id="file-28"/>
											</clipitem>
										</track>
									</video>
								</media>
								<logginginfo>
									<description></description>
									<scene></scene>
									<shottake></shottake>
									<lognote></lognote>
									<good></good>
									<originalvideofilename></originalvideofilename>
									<originalaudiofilename></originalaudiofilename>
								</logginginfo>
								<colorinfo>
									<lut></lut>
									<lut1></lut1>
									<asc_sop></asc_sop>
									<asc_sat></asc_sat>
									<lut2></lut2>
								</colorinfo>
								<labels>
									<label2>Rose</label2>
								</labels>
							</clip>
							<clip id="masterclip-35" explodedTracks="true">
								<uuid>cfc95ccb-7c24-4008-a0a5-97b6e4524e03</uuid>
								<masterclipid>masterclip-35</masterclipid>
								<ismasterclip>TRUE</ismasterclip>
								<duration>5701</duration>
								<rate>
									<timebase>30</timebase>
									<ntsc>FALSE</ntsc>
								</rate>
								<name>THE WORD DEGREE</name>
								<media>
									<video>
										<track>
											<clipitem id="clipitem-406">
												<masterclipid>masterclip-35</masterclipid>
												<name>THE WORD DEGREE</name>
												<rate>
													<timebase>30</timebase>
													<ntsc>FALSE</ntsc>
												</rate>
												<alphatype>straight</alphatype>
												<file id="file-29"/>
											</clipitem>
										</track>
									</video>
								</media>
								<logginginfo>
									<description></description>
									<scene></scene>
									<shottake></shottake>
									<lognote></lognote>
									<good></good>
									<originalvideofilename></originalvideofilename>
									<originalaudiofilename></originalaudiofilename>
								</logginginfo>
								<colorinfo>
									<lut></lut>
									<lut1></lut1>
									<asc_sop></asc_sop>
									<asc_sat></asc_sat>
									<lut2></lut2>
								</colorinfo>
								<labels>
									<label2>Rose</label2>
								</labels>
							</clip>
							<clip id="masterclip-44" explodedTracks="true">
								<uuid>e6503062-da79-40b2-89fa-f7fea4d5d0b6</uuid>
								<masterclipid>masterclip-44</masterclipid>
								<ismasterclip>TRUE</ismasterclip>
								<duration>5701</duration>
								<rate>
									<timebase>30</timebase>
									<ntsc>FALSE</ntsc>
								</rate>
								<name>CRAFT WITH THE WIND</name>
								<media>
									<video>
										<track>
											<clipitem id="clipitem-407">
												<masterclipid>masterclip-44</masterclipid>
												<name>CRAFT WITH THE WIND</name>
												<rate>
													<timebase>30</timebase>
													<ntsc>FALSE</ntsc>
												</rate>
												<alphatype>straight</alphatype>
												<file id="file-36"/>
											</clipitem>
										</track>
									</video>
								</media>
								<logginginfo>
									<description></description>
									<scene></scene>
									<shottake></shottake>
									<lognote></lognote>
									<good></good>
									<originalvideofilename></originalvideofilename>
									<originalaudiofilename></originalaudiofilename>
								</logginginfo>
								<colorinfo>
									<lut></lut>
									<lut1></lut1>
									<asc_sop></asc_sop>
									<asc_sat></asc_sat>
									<lut2></lut2>
								</colorinfo>
								<labels>
									<label2>Rose</label2>
								</labels>
							</clip>
							<clip id="masterclip-45" explodedTracks="true">
								<uuid>fd7c49fa-6f3a-4e8f-9cc9-6de353c39808</uuid>
								<masterclipid>masterclip-45</masterclipid>
								<ismasterclip>TRUE</ismasterclip>
								<duration>5701</duration>
								<rate>
									<timebase>30</timebase>
									<ntsc>FALSE</ntsc>
								</rate>
								<name>ROPED IN</name>
								<media>
									<video>
										<track>
											<clipitem id="clipitem-408">
												<masterclipid>masterclip-45</masterclipid>
												<name>ROPED IN</name>
												<rate>
													<timebase>30</timebase>
													<ntsc>FALSE</ntsc>
												</rate>
												<alphatype>straight</alphatype>
												<file id="file-37"/>
											</clipitem>
										</track>
									</video>
								</media>
								<logginginfo>
									<description></description>
									<scene></scene>
									<shottake></shottake>
									<lognote></lognote>
									<good></good>
									<originalvideofilename></originalvideofilename>
									<originalaudiofilename></originalaudiofilename>
								</logginginfo>
								<colorinfo>
									<lut></lut>
									<lut1></lut1>
									<asc_sop></asc_sop>
									<asc_sat></asc_sat>
									<lut2></lut2>
								</colorinfo>
								<labels>
									<label2>Rose</label2>
								</labels>
							</clip>
							<clip id="masterclip-54" explodedTracks="true">
								<uuid>2a6ea447-0e46-409e-96e9-d42dd5d8e1ac</uuid>
								<masterclipid>masterclip-54</masterclipid>
								<ismasterclip>TRUE</ismasterclip>
								<duration>5701</duration>
								<rate>
									<timebase>30</timebase>
									<ntsc>FALSE</ntsc>
								</rate>
								<name>BEST OF BTS DECOR</name>
								<media>
									<video>
										<track>
											<clipitem id="clipitem-409">
												<masterclipid>masterclip-54</masterclipid>
												<name>BEST OF BTS DECOR</name>
												<rate>
													<timebase>30</timebase>
													<ntsc>FALSE</ntsc>
												</rate>
												<alphatype>straight</alphatype>
												<file id="file-44"/>
											</clipitem>
										</track>
									</video>
								</media>
								<logginginfo>
									<description></description>
									<scene></scene>
									<shottake></shottake>
									<lognote></lognote>
									<good></good>
									<originalvideofilename></originalvideofilename>
									<originalaudiofilename></originalaudiofilename>
								</logginginfo>
								<colorinfo>
									<lut></lut>
									<lut1></lut1>
									<asc_sop></asc_sop>
									<asc_sat></asc_sat>
									<lut2></lut2>
								</colorinfo>
								<labels>
									<label2>Rose</label2>
								</labels>
							</clip>
							<clip id="masterclip-55" explodedTracks="true">
								<uuid>eecf53da-dfca-412d-bcee-3dcf8f682313</uuid>
								<masterclipid>masterclip-55</masterclipid>
								<ismasterclip>TRUE</ismasterclip>
								<duration>5701</duration>
								<rate>
									<timebase>30</timebase>
									<ntsc>FALSE</ntsc>
								</rate>
								<name>ORANGE YOU GLAD?</name>
								<media>
									<video>
										<track>
											<clipitem id="clipitem-410">
												<masterclipid>masterclip-55</masterclipid>
												<name>ORANGE YOU GLAD?</name>
												<rate>
													<timebase>30</timebase>
													<ntsc>FALSE</ntsc>
												</rate>
												<alphatype>straight</alphatype>
												<file id="file-45"/>
											</clipitem>
										</track>
									</video>
								</media>
								<logginginfo>
									<description></description>
									<scene></scene>
									<shottake></shottake>
									<lognote></lognote>
									<good></good>
									<originalvideofilename></originalvideofilename>
									<originalaudiofilename></originalaudiofilename>
								</logginginfo>
								<colorinfo>
									<lut></lut>
									<lut1></lut1>
									<asc_sop></asc_sop>
									<asc_sat></asc_sat>
									<lut2></lut2>
								</colorinfo>
								<labels>
									<label2>Rose</label2>
								</labels>
							</clip>
							<clip id="masterclip-64" explodedTracks="true">
								<uuid>76d1072d-abeb-49e9-b3d0-550830c2633b</uuid>
								<masterclipid>masterclip-64</masterclipid>
								<ismasterclip>TRUE</ismasterclip>
								<duration>5701</duration>
								<rate>
									<timebase>30</timebase>
									<ntsc>FALSE</ntsc>
								</rate>
								<name>RISE AND SIGN</name>
								<media>
									<video>
										<track>
											<clipitem id="clipitem-411">
												<masterclipid>masterclip-64</masterclipid>
												<name>RISE AND SIGN</name>
												<rate>
													<timebase>30</timebase>
													<ntsc>FALSE</ntsc>
												</rate>
												<alphatype>straight</alphatype>
												<file id="file-52"/>
											</clipitem>
										</track>
									</video>
								</media>
								<logginginfo>
									<description></description>
									<scene></scene>
									<shottake></shottake>
									<lognote></lognote>
									<good></good>
									<originalvideofilename></originalvideofilename>
									<originalaudiofilename></originalaudiofilename>
								</logginginfo>
								<colorinfo>
									<lut></lut>
									<lut1></lut1>
									<asc_sop></asc_sop>
									<asc_sat></asc_sat>
									<lut2></lut2>
								</colorinfo>
								<labels>
									<label2>Rose</label2>
								</labels>
							</clip>
							<clip id="masterclip-65" explodedTracks="true">
								<uuid>27c28aa2-19dd-4a3e-8ecf-9342c1f0a950</uuid>
								<masterclipid>masterclip-65</masterclipid>
								<ismasterclip>TRUE</ismasterclip>
								<duration>5701</duration>
								<rate>
									<timebase>30</timebase>
									<ntsc>FALSE</ntsc>
								</rate>
								<out>2802</out>
								<name>SERVING BOOKS</name>
								<media>
									<video>
										<track>
											<clipitem id="clipitem-412">
												<masterclipid>masterclip-65</masterclipid>
												<name>SERVING BOOKS</name>
												<rate>
													<timebase>30</timebase>
													<ntsc>FALSE</ntsc>
												</rate>
												<alphatype>straight</alphatype>
												<file id="file-53"/>
											</clipitem>
										</track>
									</video>
								</media>
								<logginginfo>
									<description></description>
									<scene></scene>
									<shottake></shottake>
									<lognote></lognote>
									<good></good>
									<originalvideofilename></originalvideofilename>
									<originalaudiofilename></originalaudiofilename>
								</logginginfo>
								<colorinfo>
									<lut></lut>
									<lut1></lut1>
									<asc_sop></asc_sop>
									<asc_sat></asc_sat>
									<lut2></lut2>
								</colorinfo>
								<labels>
									<label2>Rose</label2>
								</labels>
							</clip>
							<clip id="masterclip-74" explodedTracks="true">
								<uuid>ea75a094-5866-4a82-a4ce-031ac73164aa</uuid>
								<masterclipid>masterclip-74</masterclipid>
								<ismasterclip>TRUE</ismasterclip>
								<duration>5701</duration>
								<rate>
									<timebase>30</timebase>
									<ntsc>FALSE</ntsc>
								</rate>
								<name>ISLAND LIFE</name>
								<media>
									<video>
										<track>
											<clipitem id="clipitem-413">
												<masterclipid>masterclip-74</masterclipid>
												<name>ISLAND LIFE</name>
												<rate>
													<timebase>30</timebase>
													<ntsc>FALSE</ntsc>
												</rate>
												<alphatype>straight</alphatype>
												<file id="file-60"/>
											</clipitem>
										</track>
									</video>
								</media>
								<logginginfo>
									<description></description>
									<scene></scene>
									<shottake></shottake>
									<lognote></lognote>
									<good></good>
									<originalvideofilename></originalvideofilename>
									<originalaudiofilename></originalaudiofilename>
								</logginginfo>
								<colorinfo>
									<lut></lut>
									<lut1></lut1>
									<asc_sop></asc_sop>
									<asc_sat></asc_sat>
									<lut2></lut2>
								</colorinfo>
								<labels>
									<label2>Rose</label2>
								</labels>
							</clip>
							<clip id="masterclip-75" explodedTracks="true">
								<uuid>12662418-b706-4c6f-97a9-b061513697dd</uuid>
								<masterclipid>masterclip-75</masterclipid>
								<ismasterclip>TRUE</ismasterclip>
								<duration>5701</duration>
								<rate>
									<timebase>30</timebase>
									<ntsc>FALSE</ntsc>
								</rate>
								<out>1733</out>
								<name>I FEEL VINE</name>
								<media>
									<video>
										<track>
											<clipitem id="clipitem-414">
												<masterclipid>masterclip-75</masterclipid>
												<name>I FEEL VINE</name>
												<rate>
													<timebase>30</timebase>
													<ntsc>FALSE</ntsc>
												</rate>
												<alphatype>straight</alphatype>
												<file id="file-61"/>
											</clipitem>
										</track>
									</video>
								</media>
								<logginginfo>
									<description></description>
									<scene></scene>
									<shottake></shottake>
									<lognote></lognote>
									<good></good>
									<originalvideofilename></originalvideofilename>
									<originalaudiofilename></originalaudiofilename>
								</logginginfo>
								<colorinfo>
									<lut></lut>
									<lut1></lut1>
									<asc_sop></asc_sop>
									<asc_sat></asc_sat>
									<lut2></lut2>
								</colorinfo>
								<labels>
									<label2>Rose</label2>
								</labels>
							</clip>
							<clip id="masterclip-84" explodedTracks="true">
								<uuid>2e7ca591-0220-44fa-9de0-1f307d5e1b45</uuid>
								<masterclipid>masterclip-84</masterclipid>
								<ismasterclip>TRUE</ismasterclip>
								<duration>5701</duration>
								<rate>
									<timebase>30</timebase>
									<ntsc>FALSE</ntsc>
								</rate>
								<out>3527</out>
								<name>PAPERORBASKET</name>
								<media>
									<video>
										<track>
											<clipitem id="clipitem-415">
												<masterclipid>masterclip-84</masterclipid>
												<name>PAPERORBASKET</name>
												<rate>
													<timebase>30</timebase>
													<ntsc>FALSE</ntsc>
												</rate>
												<alphatype>straight</alphatype>
												<file id="file-68"/>
											</clipitem>
										</track>
									</video>
								</media>
								<logginginfo>
									<description></description>
									<scene></scene>
									<shottake></shottake>
									<lognote></lognote>
									<good></good>
									<originalvideofilename></originalvideofilename>
									<originalaudiofilename></originalaudiofilename>
								</logginginfo>
								<colorinfo>
									<lut></lut>
									<lut1></lut1>
									<asc_sop></asc_sop>
									<asc_sat></asc_sat>
									<lut2></lut2>
								</colorinfo>
								<labels>
									<label2>Rose</label2>
								</labels>
							</clip>
							<clip id="masterclip-85" explodedTracks="true">
								<uuid>b5c283a8-1772-4aea-bdbc-c8ebb669adfd</uuid>
								<masterclipid>masterclip-85</masterclipid>
								<ismasterclip>TRUE</ismasterclip>
								<duration>5701</duration>
								<rate>
									<timebase>30</timebase>
									<ntsc>FALSE</ntsc>
								</rate>
								<out>1880</out>
								<name>PASSION TWISTS</name>
								<media>
									<video>
										<track>
											<clipitem id="clipitem-416">
												<masterclipid>masterclip-85</masterclipid>
												<name>PASSION TWISTS</name>
												<rate>
													<timebase>30</timebase>
													<ntsc>FALSE</ntsc>
												</rate>
												<alphatype>straight</alphatype>
												<file id="file-69"/>
											</clipitem>
										</track>
									</video>
								</media>
								<logginginfo>
									<description></description>
									<scene></scene>
									<shottake></shottake>
									<lognote></lognote>
									<good></good>
									<originalvideofilename></originalvideofilename>
									<originalaudiofilename></originalaudiofilename>
								</logginginfo>
								<colorinfo>
									<lut></lut>
									<lut1></lut1>
									<asc_sop></asc_sop>
									<asc_sat></asc_sat>
									<lut2></lut2>
								</colorinfo>
								<labels>
									<label2>Rose</label2>
								</labels>
							</clip>
							<clip id="masterclip-93" explodedTracks="true">
								<uuid>354c56ef-c5c8-4790-960a-70663613341b</uuid>
								<masterclipid>masterclip-93</masterclipid>
								<ismasterclip>TRUE</ismasterclip>
								<duration>5701</duration>
								<rate>
									<timebase>30</timebase>
									<ntsc>FALSE</ntsc>
								</rate>
								<name>THROW IT IN THE MIX</name>
								<media>
									<video>
										<track>
											<clipitem id="clipitem-417">
												<masterclipid>masterclip-93</masterclipid>
												<name>THROW IT IN THE MIX</name>
												<rate>
													<timebase>30</timebase>
													<ntsc>FALSE</ntsc>
												</rate>
												<alphatype>straight</alphatype>
												<file id="file-75"/>
											</clipitem>
										</track>
									</video>
								</media>
								<logginginfo>
									<description></description>
									<scene></scene>
									<shottake></shottake>
									<lognote></lognote>
									<good></good>
									<originalvideofilename></originalvideofilename>
									<originalaudiofilename></originalaudiofilename>
								</logginginfo>
								<colorinfo>
									<lut></lut>
									<lut1></lut1>
									<asc_sop></asc_sop>
									<asc_sat></asc_sat>
									<lut2></lut2>
								</colorinfo>
								<labels>
									<label2>Rose</label2>
								</labels>
							</clip>
							<clip id="masterclip-94" explodedTracks="true">
								<uuid>850885f6-3617-4d60-a8b2-bde0542b631b</uuid>
								<masterclipid>masterclip-94</masterclipid>
								<ismasterclip>TRUE</ismasterclip>
								<duration>5701</duration>
								<rate>
									<timebase>30</timebase>
									<ntsc>FALSE</ntsc>
								</rate>
								<name>SIMPLE HOME DECOR</name>
								<media>
									<video>
										<track>
											<clipitem id="clipitem-418">
												<masterclipid>masterclip-94</masterclipid>
												<name>SIMPLE HOME DECOR</name>
												<rate>
													<timebase>30</timebase>
													<ntsc>FALSE</ntsc>
												</rate>
												<alphatype>straight</alphatype>
												<file id="file-76"/>
											</clipitem>
										</track>
									</video>
								</media>
								<logginginfo>
									<description></description>
									<scene></scene>
									<shottake></shottake>
									<lognote></lognote>
									<good></good>
									<originalvideofilename></originalvideofilename>
									<originalaudiofilename></originalaudiofilename>
								</logginginfo>
								<colorinfo>
									<lut></lut>
									<lut1></lut1>
									<asc_sop></asc_sop>
									<asc_sat></asc_sat>
									<lut2></lut2>
								</colorinfo>
								<labels>
									<label2>Rose</label2>
								</labels>
							</clip>
							<clip id="masterclip-103" explodedTracks="true">
								<uuid>4e52d6fa-b4f8-4300-a695-aac1094780fa</uuid>
								<masterclipid>masterclip-103</masterclipid>
								<ismasterclip>TRUE</ismasterclip>
								<duration>5701</duration>
								<rate>
									<timebase>30</timebase>
									<ntsc>FALSE</ntsc>
								</rate>
								<name>IT'S ALWAYS BUNNY</name>
								<media>
									<video>
										<track>
											<clipitem id="clipitem-419">
												<masterclipid>masterclip-103</masterclipid>
												<name>IT'S ALWAYS BUNNY</name>
												<rate>
													<timebase>30</timebase>
													<ntsc>FALSE</ntsc>
												</rate>
												<alphatype>straight</alphatype>
												<file id="file-83"/>
											</clipitem>
										</track>
									</video>
								</media>
								<logginginfo>
									<description></description>
									<scene></scene>
									<shottake></shottake>
									<lognote></lognote>
									<good></good>
									<originalvideofilename></originalvideofilename>
									<originalaudiofilename></originalaudiofilename>
								</logginginfo>
								<colorinfo>
									<lut></lut>
									<lut1></lut1>
									<asc_sop></asc_sop>
									<asc_sat></asc_sat>
									<lut2></lut2>
								</colorinfo>
								<labels>
									<label2>Rose</label2>
								</labels>
							</clip>
							<clip id="masterclip-104" explodedTracks="true">
								<uuid>d1604e5e-1f4d-43aa-a80d-b9a80658300e</uuid>
								<masterclipid>masterclip-104</masterclipid>
								<ismasterclip>TRUE</ismasterclip>
								<duration>5701</duration>
								<rate>
									<timebase>30</timebase>
									<ntsc>FALSE</ntsc>
								</rate>
								<out>2513</out>
								<name>MIDNIGHTS INSPIRED MAKEUP</name>
								<media>
									<video>
										<track>
											<clipitem id="clipitem-420">
												<masterclipid>masterclip-104</masterclipid>
												<name>MIDNIGHTS INSPIRED MAKEUP</name>
												<rate>
													<timebase>30</timebase>
													<ntsc>FALSE</ntsc>
												</rate>
												<alphatype>straight</alphatype>
												<file id="file-84"/>
											</clipitem>
										</track>
									</video>
								</media>
								<logginginfo>
									<description></description>
									<scene></scene>
									<shottake></shottake>
									<lognote></lognote>
									<good></good>
									<originalvideofilename></originalvideofilename>
									<originalaudiofilename></originalaudiofilename>
								</logginginfo>
								<colorinfo>
									<lut></lut>
									<lut1></lut1>
									<asc_sop></asc_sop>
									<asc_sat></asc_sat>
									<lut2></lut2>
								</colorinfo>
								<labels>
									<label2>Rose</label2>
								</labels>
							</clip>
						</children>
					</bin>
					<clip id="masterclip-107" explodedTracks="true">
						<uuid>bd4edcad-c229-4a00-9ec8-93865a8646e8</uuid>
						<masterclipid>masterclip-107</masterclipid>
						<ismasterclip>TRUE</ismasterclip>
						<duration>5701</duration>
						<rate>
							<timebase>30</timebase>
							<ntsc>FALSE</ntsc>
						</rate>
						<name>L3 TEMPLATE</name>
						<media>
							<video>
								<track>
									<clipitem id="clipitem-421">
										<masterclipid>masterclip-107</masterclipid>
										<name>L3 TEMPLATE</name>
										<rate>
											<timebase>30</timebase>
											<ntsc>FALSE</ntsc>
										</rate>
										<alphatype>straight</alphatype>
										<pixelaspectratio>square</pixelaspectratio>
										<anamorphic>FALSE</anamorphic>
										<file id="file-87">
											<name>CRAFTY_L3RD_01_JL_V03/CRAFTY_L3RD_01_JL_V03.aep</name>
											<pathurl>file://localhost/Volumes/ATM%20JR%202TB/Master%20Assets/CRAFTY_L3RD_01_JL_V03%20folder/CRAFTY_L3RD_01_JL_V03.aep</pathurl>
											<rate>
												<timebase>30</timebase>
												<ntsc>FALSE</ntsc>
											</rate>
											<duration>5701</duration>
											<timecode>
												<rate>
													<timebase>30</timebase>
													<ntsc>FALSE</ntsc>
												</rate>
												<string>00:00:00:00</string>
												<frame>0</frame>
												<displayformat>NDF</displayformat>
											</timecode>
											<media>
												<video>
													<samplecharacteristics>
														<rate>
															<timebase>30</timebase>
															<ntsc>FALSE</ntsc>
														</rate>
														<width>1920</width>
														<height>1080</height>
														<anamorphic>FALSE</anamorphic>
														<pixelaspectratio>square</pixelaspectratio>
														<fielddominance>lower</fielddominance>
													</samplecharacteristics>
												</video>
											</media>
										</file>
									</clipitem>
								</track>
							</video>
						</media>
						<logginginfo>
							<description></description>
							<scene></scene>
							<shottake></shottake>
							<lognote></lognote>
							<good></good>
							<originalvideofilename></originalvideofilename>
							<originalaudiofilename></originalaudiofilename>
						</logginginfo>
						<colorinfo>
							<lut></lut>
							<lut1></lut1>
							<asc_sop></asc_sop>
							<asc_sat></asc_sat>
							<lut2></lut2>
						</colorinfo>
						<labels>
							<label2>Rose</label2>
						</labels>
					</clip>
				</children>
			</bin>
			<bin>
				<name>3_Nest Sequences</name>
				<labels>
					<label2>Mango</label2>
				</labels>
				<children>
<sequence id="sequence-2"/>
<sequence id="sequence-3"/>
<sequence id="sequence-5"/>
<sequence id="sequence-6"/>
<sequence id="sequence-8"/>
<sequence id="sequence-9"/>
<sequence id="sequence-11"/>
<sequence id="sequence-12"/>
<sequence id="sequence-14"/>
<sequence id="sequence-15"/>
<sequence id="sequence-17"/>
<sequence id="sequence-18"/>
<sequence id="sequence-20"/>
<sequence id="sequence-21"/>
<sequence id="sequence-23"/>
<sequence id="sequence-24"/>
<sequence id="sequence-26"/>
<sequence id="sequence-27"/>
<sequence id="sequence-29"/>
<sequence id="sequence-30"/>
				</children>
			</bin>
			<bin>
				<name>4_Template Assets</name>
				<labels>
					<label2>Mango</label2>
				</labels>
				<children>
					<bin>
						<name>used</name>
						<labels>
							<label2>Mango</label2>
						</labels>
						<children>
							<clip id="masterclip-3" explodedTracks="true">
								<uuid>158de6a5-08d5-4462-913f-a11145570521</uuid>
								<masterclipid>masterclip-3</masterclipid>
								<ismasterclip>TRUE</ismasterclip>
								<duration>5844</duration>
								<rate>
									<timebase>30</timebase>
									<ntsc>TRUE</ntsc>
								</rate>
								<name>THE CRAFTY QUINN</name>
								<media>
									<video>
										<track>
											<clipitem id="clipitem-422">
												<masterclipid>masterclip-3</masterclipid>
												<name>THE CRAFTY QUINN</name>
												<rate>
													<timebase>30</timebase>
													<ntsc>TRUE</ntsc>
												</rate>
												<alphatype>straight</alphatype>
												<file id="file-2"/>
											</clipitem>
										</track>
									</video>
								</media>
								<logginginfo>
									<description></description>
									<scene></scene>
									<shottake></shottake>
									<lognote></lognote>
									<good></good>
									<originalvideofilename></originalvideofilename>
									<originalaudiofilename></originalaudiofilename>
								</logginginfo>
								<colorinfo>
									<lut></lut>
									<lut1></lut1>
									<asc_sop></asc_sop>
									<asc_sat></asc_sat>
									<lut2></lut2>
								</colorinfo>
								<labels>
									<label2>Rose</label2>
								</labels>
							</clip>
							<clip id="masterclip-6" explodedTracks="true">
								<uuid>fb852d9e-a1cb-49d7-a088-19631dbc1d54</uuid>
								<masterclipid>masterclip-6</masterclipid>
								<ismasterclip>TRUE</ismasterclip>
								<duration>5844</duration>
								<rate>
									<timebase>30</timebase>
									<ntsc>TRUE</ntsc>
								</rate>
								<name>MEANDERING CURIOUSITY</name>
								<media>
									<video>
										<track>
											<clipitem id="clipitem-423">
												<masterclipid>masterclip-6</masterclipid>
												<name>MEANDERING CURIOUSITY</name>
												<rate>
													<timebase>30</timebase>
													<ntsc>TRUE</ntsc>
												</rate>
												<alphatype>straight</alphatype>
												<file id="file-4"/>
											</clipitem>
										</track>
									</video>
								</media>
								<logginginfo>
									<description></description>
									<scene></scene>
									<shottake></shottake>
									<lognote></lognote>
									<good></good>
									<originalvideofilename></originalvideofilename>
									<originalaudiofilename></originalaudiofilename>
								</logginginfo>
								<colorinfo>
									<lut></lut>
									<lut1></lut1>
									<asc_sop></asc_sop>
									<asc_sat></asc_sat>
									<lut2></lut2>
								</colorinfo>
								<labels>
									<label2>Rose</label2>
								</labels>
							</clip>
							<clip id="masterclip-16" explodedTracks="true">
								<uuid>a32a0645-5b8a-4b04-bb05-7b0d6b495095</uuid>
								<masterclipid>masterclip-16</masterclipid>
								<ismasterclip>TRUE</ismasterclip>
								<duration>5844</duration>
								<rate>
									<timebase>30</timebase>
									<ntsc>TRUE</ntsc>
								</rate>
								<name>STUDIO TEAL</name>
								<media>
									<video>
										<track>
											<clipitem id="clipitem-424">
												<masterclipid>masterclip-16</masterclipid>
												<name>STUDIO TEAL</name>
												<rate>
													<timebase>30</timebase>
													<ntsc>TRUE</ntsc>
												</rate>
												<alphatype>straight</alphatype>
												<file id="file-13"/>
											</clipitem>
										</track>
									</video>
								</media>
								<logginginfo>
									<description></description>
									<scene></scene>
									<shottake></shottake>
									<lognote></lognote>
									<good></good>
									<originalvideofilename></originalvideofilename>
									<originalaudiofilename></originalaudiofilename>
								</logginginfo>
								<colorinfo>
									<lut></lut>
									<lut1></lut1>
									<asc_sop></asc_sop>
									<asc_sat></asc_sat>
									<lut2></lut2>
								</colorinfo>
								<labels>
									<label2>Rose</label2>
								</labels>
							</clip>
							<clip id="masterclip-19" explodedTracks="true">
								<uuid>bedac3a5-0ac6-4bfe-a06a-f6d68c3cfb9d</uuid>
								<masterclipid>masterclip-19</masterclipid>
								<ismasterclip>TRUE</ismasterclip>
								<duration>5844</duration>
								<rate>
									<timebase>30</timebase>
									<ntsc>TRUE</ntsc>
								</rate>
								<name>SYDNEY NICOLE ADDAMS</name>
								<media>
									<video>
										<track>
											<clipitem id="clipitem-425">
												<masterclipid>masterclip-19</masterclipid>
												<name>SYDNEY NICOLE ADDAMS</name>
												<rate>
													<timebase>30</timebase>
													<ntsc>TRUE</ntsc>
												</rate>
												<alphatype>straight</alphatype>
												<file id="file-15"/>
											</clipitem>
										</track>
									</video>
								</media>
								<logginginfo>
									<description></description>
									<scene></scene>
									<shottake></shottake>
									<lognote></lognote>
									<good></good>
									<originalvideofilename></originalvideofilename>
									<originalaudiofilename></originalaudiofilename>
								</logginginfo>
								<colorinfo>
									<lut></lut>
									<lut1></lut1>
									<asc_sop></asc_sop>
									<asc_sat></asc_sat>
									<lut2></lut2>
								</colorinfo>
								<labels>
									<label2>Rose</label2>
								</labels>
							</clip>
							<clip id="masterclip-27" explodedTracks="true">
								<uuid>9898822b-a819-469a-873b-a1d5293622a4</uuid>
								<masterclipid>masterclip-27</masterclipid>
								<ismasterclip>TRUE</ismasterclip>
								<duration>5844</duration>
								<rate>
									<timebase>30</timebase>
									<ntsc>TRUE</ntsc>
								</rate>
								<name>MR. BUILD IT</name>
								<media>
									<video>
										<track>
											<clipitem id="clipitem-426">
												<masterclipid>masterclip-27</masterclipid>
												<name>MR. BUILD IT</name>
												<rate>
													<timebase>30</timebase>
													<ntsc>TRUE</ntsc>
												</rate>
												<alphatype>straight</alphatype>
												<file id="file-22"/>
											</clipitem>
										</track>
									</video>
								</media>
								<logginginfo>
									<description></description>
									<scene></scene>
									<shottake></shottake>
									<lognote></lognote>
									<good></good>
									<originalvideofilename></originalvideofilename>
									<originalaudiofilename></originalaudiofilename>
								</logginginfo>
								<colorinfo>
									<lut></lut>
									<lut1></lut1>
									<asc_sop></asc_sop>
									<asc_sat></asc_sat>
									<lut2></lut2>
								</colorinfo>
								<labels>
									<label2>Rose</label2>
								</labels>
							</clip>
							<clip id="masterclip-31" explodedTracks="true">
								<uuid>a3c9a788-8570-42f5-998b-d2e4de0771c0</uuid>
								<masterclipid>masterclip-31</masterclipid>
								<ismasterclip>TRUE</ismasterclip>
								<duration>5844</duration>
								<rate>
									<timebase>30</timebase>
									<ntsc>TRUE</ntsc>
								</rate>
								<name>@COOPER_CALLIGRAPHY</name>
								<media>
									<video>
										<track>
											<clipitem id="clipitem-427">
												<masterclipid>masterclip-31</masterclipid>
												<name>@COOPER_CALLIGRAPHY</name>
												<rate>
													<timebase>30</timebase>
													<ntsc>TRUE</ntsc>
												</rate>
												<alphatype>straight</alphatype>
												<file id="file-25"/>
											</clipitem>
										</track>
									</video>
								</media>
								<logginginfo>
									<description></description>
									<scene></scene>
									<shottake></shottake>
									<lognote></lognote>
									<good></good>
									<originalvideofilename></originalvideofilename>
									<originalaudiofilename></originalaudiofilename>
								</logginginfo>
								<colorinfo>
									<lut></lut>
									<lut1></lut1>
									<asc_sop></asc_sop>
									<asc_sat></asc_sat>
									<lut2></lut2>
								</colorinfo>
								<labels>
									<label2>Rose</label2>
								</labels>
							</clip>
							<clip id="masterclip-32" explodedTracks="true">
								<uuid>740c5787-b443-4d4e-8c32-956df3e9136e</uuid>
								<masterclipid>masterclip-32</masterclipid>
								<ismasterclip>TRUE</ismasterclip>
								<duration>5844</duration>
								<rate>
									<timebase>30</timebase>
									<ntsc>TRUE</ntsc>
								</rate>
								<name>@ESTHERSLETTERS</name>
								<media>
									<video>
										<track>
											<clipitem id="clipitem-428">
												<masterclipid>masterclip-32</masterclipid>
												<name>@ESTHERSLETTERS</name>
												<rate>
													<timebase>30</timebase>
													<ntsc>TRUE</ntsc>
												</rate>
												<alphatype>straight</alphatype>
												<file id="file-26"/>
											</clipitem>
										</track>
									</video>
								</media>
								<logginginfo>
									<description></description>
									<scene></scene>
									<shottake></shottake>
									<lognote></lognote>
									<good></good>
									<originalvideofilename></originalvideofilename>
									<originalaudiofilename></originalaudiofilename>
								</logginginfo>
								<colorinfo>
									<lut></lut>
									<lut1></lut1>
									<asc_sop></asc_sop>
									<asc_sat></asc_sat>
									<lut2></lut2>
								</colorinfo>
								<labels>
									<label2>Rose</label2>
								</labels>
							</clip>
							<clip id="masterclip-40" explodedTracks="true">
								<uuid>942d67d2-a372-4f07-9ce0-21a830ee20ed</uuid>
								<masterclipid>masterclip-40</masterclipid>
								<ismasterclip>TRUE</ismasterclip>
								<duration>5844</duration>
								<rate>
									<timebase>30</timebase>
									<ntsc>TRUE</ntsc>
								</rate>
								<name>KIKI'S DIY</name>
								<media>
									<video>
										<track>
											<clipitem id="clipitem-429">
												<masterclipid>masterclip-40</masterclipid>
												<name>KIKI'S DIY</name>
												<rate>
													<timebase>30</timebase>
													<ntsc>TRUE</ntsc>
												</rate>
												<alphatype>straight</alphatype>
												<file id="file-33"/>
											</clipitem>
										</track>
									</video>
								</media>
								<logginginfo>
									<description></description>
									<scene></scene>
									<shottake></shottake>
									<lognote></lognote>
									<good></good>
									<originalvideofilename></originalvideofilename>
									<originalaudiofilename></originalaudiofilename>
								</logginginfo>
								<colorinfo>
									<lut></lut>
									<lut1></lut1>
									<asc_sop></asc_sop>
									<asc_sat></asc_sat>
									<lut2></lut2>
								</colorinfo>
								<labels>
									<label2>Rose</label2>
								</labels>
							</clip>
							<clip id="masterclip-43" explodedTracks="true">
								<uuid>35e54ebb-a3df-4b4d-889a-2f3c70660b6b</uuid>
								<masterclipid>masterclip-43</masterclipid>
								<ismasterclip>TRUE</ismasterclip>
								<duration>5844</duration>
								<rate>
									<timebase>30</timebase>
									<ntsc>TRUE</ntsc>
								</rate>
								<name>@FAITHHOPEHOME</name>
								<media>
									<video>
										<track>
											<clipitem id="clipitem-430">
												<masterclipid>masterclip-43</masterclipid>
												<name>@FAITHHOPEHOME</name>
												<rate>
													<timebase>30</timebase>
													<ntsc>TRUE</ntsc>
												</rate>
												<alphatype>straight</alphatype>
												<file id="file-35"/>
											</clipitem>
										</track>
									</video>
								</media>
								<logginginfo>
									<description></description>
									<scene></scene>
									<shottake></shottake>
									<lognote></lognote>
									<good></good>
									<originalvideofilename></originalvideofilename>
									<originalaudiofilename></originalaudiofilename>
								</logginginfo>
								<colorinfo>
									<lut></lut>
									<lut1></lut1>
									<asc_sop></asc_sop>
									<asc_sat></asc_sat>
									<lut2></lut2>
								</colorinfo>
								<labels>
									<label2>Rose</label2>
								</labels>
							</clip>
							<clip id="masterclip-50" explodedTracks="true">
								<uuid>8a4c59c6-9b31-4c7e-a093-55d838e8b3bd</uuid>
								<masterclipid>masterclip-50</masterclipid>
								<ismasterclip>TRUE</ismasterclip>
								<duration>5844</duration>
								<rate>
									<timebase>30</timebase>
									<ntsc>TRUE</ntsc>
								</rate>
								<name>Parul Pawar</name>
								<media>
									<video>
										<track>
											<clipitem id="clipitem-431">
												<masterclipid>masterclip-50</masterclipid>
												<name>Parul Pawar</name>
												<rate>
													<timebase>30</timebase>
													<ntsc>TRUE</ntsc>
												</rate>
												<alphatype>straight</alphatype>
												<file id="file-41"/>
											</clipitem>
										</track>
									</video>
								</media>
								<logginginfo>
									<description></description>
									<scene></scene>
									<shottake></shottake>
									<lognote></lognote>
									<good></good>
									<originalvideofilename></originalvideofilename>
									<originalaudiofilename></originalaudiofilename>
								</logginginfo>
								<colorinfo>
									<lut></lut>
									<lut1></lut1>
									<asc_sop></asc_sop>
									<asc_sat></asc_sat>
									<lut2></lut2>
								</colorinfo>
								<labels>
									<label2>Rose</label2>
								</labels>
							</clip>
							<clip id="masterclip-53" explodedTracks="true">
								<uuid>d63d09ca-20e3-421e-a442-f03bca869d18</uuid>
								<masterclipid>masterclip-53</masterclipid>
								<ismasterclip>TRUE</ismasterclip>
								<duration>5844</duration>
								<rate>
									<timebase>30</timebase>
									<ntsc>TRUE</ntsc>
								</rate>
								<name>ADCARTATTACK</name>
								<media>
									<video>
										<track>
											<clipitem id="clipitem-432">
												<masterclipid>masterclip-53</masterclipid>
												<name>ADCARTATTACK</name>
												<rate>
													<timebase>30</timebase>
													<ntsc>TRUE</ntsc>
												</rate>
												<alphatype>straight</alphatype>
												<file id="file-43"/>
											</clipitem>
										</track>
									</video>
								</media>
								<logginginfo>
									<description></description>
									<scene></scene>
									<shottake></shottake>
									<lognote></lognote>
									<good></good>
									<originalvideofilename></originalvideofilename>
									<originalaudiofilename></originalaudiofilename>
								</logginginfo>
								<colorinfo>
									<lut></lut>
									<lut1></lut1>
									<asc_sop></asc_sop>
									<asc_sat></asc_sat>
									<lut2></lut2>
								</colorinfo>
								<labels>
									<label2>Rose</label2>
								</labels>
							</clip>
							<clip id="masterclip-60" explodedTracks="true">
								<uuid>b59bac66-36d0-47ac-b2fc-332c07c22aa8</uuid>
								<masterclipid>masterclip-60</masterclipid>
								<ismasterclip>TRUE</ismasterclip>
								<duration>5844</duration>
								<rate>
									<timebase>30</timebase>
									<ntsc>TRUE</ntsc>
								</rate>
								<name>parul pawar</name>
								<media>
									<video>
										<track>
											<clipitem id="clipitem-433">
												<masterclipid>masterclip-60</masterclipid>
												<name>parul pawar</name>
												<rate>
													<timebase>30</timebase>
													<ntsc>TRUE</ntsc>
												</rate>
												<alphatype>straight</alphatype>
												<file id="file-49"/>
											</clipitem>
										</track>
									</video>
								</media>
								<logginginfo>
									<description></description>
									<scene></scene>
									<shottake></shottake>
									<lognote></lognote>
									<good></good>
									<originalvideofilename></originalvideofilename>
									<originalaudiofilename></originalaudiofilename>
								</logginginfo>
								<colorinfo>
									<lut></lut>
									<lut1></lut1>
									<asc_sop></asc_sop>
									<asc_sat></asc_sat>
									<lut2></lut2>
								</colorinfo>
								<labels>
									<label2>Rose</label2>
								</labels>
							</clip>
							<clip id="masterclip-63" explodedTracks="true">
								<uuid>153f28cb-ebe1-4535-8c2c-ce64171a48f6</uuid>
								<masterclipid>masterclip-63</masterclipid>
								<ismasterclip>TRUE</ismasterclip>
								<duration>5844</duration>
								<rate>
									<timebase>30</timebase>
									<ntsc>TRUE</ntsc>
								</rate>
								<name>RACHEL MAKSY</name>
								<media>
									<video>
										<track>
											<clipitem id="clipitem-434">
												<masterclipid>masterclip-63</masterclipid>
												<name>RACHEL MAKSY</name>
												<rate>
													<timebase>30</timebase>
													<ntsc>TRUE</ntsc>
												</rate>
												<alphatype>straight</alphatype>
												<file id="file-51"/>
											</clipitem>
										</track>
									</video>
								</media>
								<logginginfo>
									<description></description>
									<scene></scene>
									<shottake></shottake>
									<lognote></lognote>
									<good></good>
									<originalvideofilename></originalvideofilename>
									<originalaudiofilename></originalaudiofilename>
								</logginginfo>
								<colorinfo>
									<lut></lut>
									<lut1></lut1>
									<asc_sop></asc_sop>
									<asc_sat></asc_sat>
									<lut2></lut2>
								</colorinfo>
								<labels>
									<label2>Rose</label2>
								</labels>
							</clip>
							<clip id="masterclip-70" explodedTracks="true">
								<uuid>9449dd10-ae27-47d5-811a-3e5da79784d2</uuid>
								<masterclipid>masterclip-70</masterclipid>
								<ismasterclip>TRUE</ismasterclip>
								<duration>5844</duration>
								<rate>
									<timebase>30</timebase>
									<ntsc>TRUE</ntsc>
								</rate>
								<name>DESERT DIY</name>
								<media>
									<video>
										<track>
											<clipitem id="clipitem-435">
												<masterclipid>masterclip-70</masterclipid>
												<name>DESERT DIY</name>
												<rate>
													<timebase>30</timebase>
													<ntsc>TRUE</ntsc>
												</rate>
												<alphatype>straight</alphatype>
												<file id="file-57"/>
											</clipitem>
										</track>
									</video>
								</media>
								<logginginfo>
									<description></description>
									<scene></scene>
									<shottake></shottake>
									<lognote></lognote>
									<good></good>
									<originalvideofilename></originalvideofilename>
									<originalaudiofilename></originalaudiofilename>
								</logginginfo>
								<colorinfo>
									<lut></lut>
									<lut1></lut1>
									<asc_sop></asc_sop>
									<asc_sat></asc_sat>
									<lut2></lut2>
								</colorinfo>
								<labels>
									<label2>Rose</label2>
								</labels>
							</clip>
							<clip id="masterclip-73" explodedTracks="true">
								<uuid>204d6fd7-5675-4795-8c66-2c0d65cf59d2</uuid>
								<masterclipid>masterclip-73</masterclipid>
								<ismasterclip>TRUE</ismasterclip>
								<duration>5844</duration>
								<rate>
									<timebase>30</timebase>
									<ntsc>TRUE</ntsc>
								</rate>
								<name>NICOLAS ABTAN</name>
								<media>
									<video>
										<track>
											<clipitem id="clipitem-436">
												<masterclipid>masterclip-73</masterclipid>
												<name>NICOLAS ABTAN</name>
												<rate>
													<timebase>30</timebase>
													<ntsc>TRUE</ntsc>
												</rate>
												<alphatype>straight</alphatype>
												<file id="file-59"/>
											</clipitem>
										</track>
									</video>
								</media>
								<logginginfo>
									<description></description>
									<scene></scene>
									<shottake></shottake>
									<lognote></lognote>
									<good></good>
									<originalvideofilename></originalvideofilename>
									<originalaudiofilename></originalaudiofilename>
								</logginginfo>
								<colorinfo>
									<lut></lut>
									<lut1></lut1>
									<asc_sop></asc_sop>
									<asc_sat></asc_sat>
									<lut2></lut2>
								</colorinfo>
								<labels>
									<label2>Rose</label2>
								</labels>
							</clip>
							<clip id="masterclip-80" explodedTracks="true">
								<uuid>152aafce-1974-4273-b94b-e9a221ae7301</uuid>
								<masterclipid>masterclip-80</masterclipid>
								<ismasterclip>TRUE</ismasterclip>
								<duration>5844</duration>
								<rate>
									<timebase>30</timebase>
									<ntsc>TRUE</ntsc>
								</rate>
								<name>THE CRAFTY COUPLE</name>
								<media>
									<video>
										<track>
											<clipitem id="clipitem-437">
												<masterclipid>masterclip-80</masterclipid>
												<name>THE CRAFTY COUPLE</name>
												<rate>
													<timebase>30</timebase>
													<ntsc>TRUE</ntsc>
												</rate>
												<alphatype>straight</alphatype>
												<file id="file-65"/>
											</clipitem>
										</track>
									</video>
								</media>
								<logginginfo>
									<description></description>
									<scene></scene>
									<shottake></shottake>
									<lognote></lognote>
									<good></good>
									<originalvideofilename></originalvideofilename>
									<originalaudiofilename></originalaudiofilename>
								</logginginfo>
								<colorinfo>
									<lut></lut>
									<lut1></lut1>
									<asc_sop></asc_sop>
									<asc_sat></asc_sat>
									<lut2></lut2>
								</colorinfo>
								<labels>
									<label2>Rose</label2>
								</labels>
							</clip>
							<clip id="masterclip-83" explodedTracks="true">
								<uuid>c15b22ae-a2d0-411a-a36c-d4e238d215d0</uuid>
								<masterclipid>masterclip-83</masterclipid>
								<ismasterclip>TRUE</ismasterclip>
								<duration>5844</duration>
								<rate>
									<timebase>30</timebase>
									<ntsc>TRUE</ntsc>
								</rate>
								<name>Only One Jess</name>
								<media>
									<video>
										<track>
											<clipitem id="clipitem-438">
												<masterclipid>masterclip-83</masterclipid>
												<name>Only One Jess</name>
												<rate>
													<timebase>30</timebase>
													<ntsc>TRUE</ntsc>
												</rate>
												<alphatype>straight</alphatype>
												<file id="file-67"/>
											</clipitem>
										</track>
									</video>
								</media>
								<logginginfo>
									<description></description>
									<scene></scene>
									<shottake></shottake>
									<lognote></lognote>
									<good></good>
									<originalvideofilename></originalvideofilename>
									<originalaudiofilename></originalaudiofilename>
								</logginginfo>
								<colorinfo>
									<lut></lut>
									<lut1></lut1>
									<asc_sop></asc_sop>
									<asc_sat></asc_sat>
									<lut2></lut2>
								</colorinfo>
								<labels>
									<label2>Rose</label2>
								</labels>
							</clip>
							<clip id="masterclip-90" explodedTracks="true">
								<uuid>0afe5d55-610a-4f7c-b7ea-1251c79b29a8</uuid>
								<masterclipid>masterclip-90</masterclipid>
								<ismasterclip>TRUE</ismasterclip>
								<duration>5844</duration>
								<rate>
									<timebase>30</timebase>
									<ntsc>TRUE</ntsc>
								</rate>
								<name>LABEDZKI-ART</name>
								<media>
									<video>
										<track>
											<clipitem id="clipitem-439">
												<masterclipid>masterclip-90</masterclipid>
												<name>LABEDZKI-ART</name>
												<rate>
													<timebase>30</timebase>
													<ntsc>TRUE</ntsc>
												</rate>
												<alphatype>straight</alphatype>
												<file id="file-73"/>
											</clipitem>
										</track>
									</video>
								</media>
								<logginginfo>
									<description></description>
									<scene></scene>
									<shottake></shottake>
									<lognote></lognote>
									<good></good>
									<originalvideofilename></originalvideofilename>
									<originalaudiofilename></originalaudiofilename>
								</logginginfo>
								<colorinfo>
									<lut></lut>
									<lut1></lut1>
									<asc_sop></asc_sop>
									<asc_sat></asc_sat>
									<lut2></lut2>
								</colorinfo>
								<labels>
									<label2>Rose</label2>
								</labels>
							</clip>
							<clip id="masterclip-99" explodedTracks="true">
								<uuid>3324a3fd-ace0-4211-8225-9ddef2f08b09</uuid>
								<masterclipid>masterclip-99</masterclipid>
								<ismasterclip>TRUE</ismasterclip>
								<duration>5844</duration>
								<rate>
									<timebase>30</timebase>
									<ntsc>TRUE</ntsc>
								</rate>
								<name>COFFEE N CRAFTING</name>
								<media>
									<video>
										<track>
											<clipitem id="clipitem-440">
												<masterclipid>masterclip-99</masterclipid>
												<name>COFFEE N CRAFTING</name>
												<rate>
													<timebase>30</timebase>
													<ntsc>TRUE</ntsc>
												</rate>
												<alphatype>straight</alphatype>
												<file id="file-80"/>
											</clipitem>
										</track>
									</video>
								</media>
								<logginginfo>
									<description></description>
									<scene></scene>
									<shottake></shottake>
									<lognote></lognote>
									<good></good>
									<originalvideofilename></originalvideofilename>
									<originalaudiofilename></originalaudiofilename>
								</logginginfo>
								<colorinfo>
									<lut></lut>
									<lut1></lut1>
									<asc_sop></asc_sop>
									<asc_sat></asc_sat>
									<lut2></lut2>
								</colorinfo>
								<labels>
									<label2>Rose</label2>
								</labels>
							</clip>
							<clip id="masterclip-102" explodedTracks="true">
								<uuid>a3303c69-51ca-4649-95b6-9b56ec4e4384</uuid>
								<masterclipid>masterclip-102</masterclipid>
								<ismasterclip>TRUE</ismasterclip>
								<duration>5844</duration>
								<rate>
									<timebase>30</timebase>
									<ntsc>TRUE</ntsc>
								</rate>
								<name>AverageJo</name>
								<media>
									<video>
										<track>
											<clipitem id="clipitem-441">
												<masterclipid>masterclip-102</masterclipid>
												<name>AverageJo</name>
												<rate>
													<timebase>30</timebase>
													<ntsc>TRUE</ntsc>
												</rate>
												<alphatype>straight</alphatype>
												<file id="file-82"/>
											</clipitem>
										</track>
									</video>
								</media>
								<logginginfo>
									<description></description>
									<scene></scene>
									<shottake></shottake>
									<lognote></lognote>
									<good></good>
									<originalvideofilename></originalvideofilename>
									<originalaudiofilename></originalaudiofilename>
								</logginginfo>
								<colorinfo>
									<lut></lut>
									<lut1></lut1>
									<asc_sop></asc_sop>
									<asc_sat></asc_sat>
									<lut2></lut2>
								</colorinfo>
								<labels>
									<label2>Rose</label2>
								</labels>
							</clip>
						</children>
					</bin>
					<clip id="masterclip-108" explodedTracks="true">
						<uuid>14cbf11b-38e8-468a-9c02-3279faf58923</uuid>
						<masterclipid>masterclip-108</masterclipid>
						<ismasterclip>TRUE</ismasterclip>
						<duration>5844</duration>
						<rate>
							<timebase>30</timebase>
							<ntsc>TRUE</ntsc>
						</rate>
						<name>TEMPL@TE</name>
						<media>
							<video>
								<track>
									<clipitem id="clipitem-442">
										<masterclipid>masterclip-108</masterclipid>
										<name>TEMPL@TE</name>
										<rate>
											<timebase>30</timebase>
											<ntsc>TRUE</ntsc>
										</rate>
										<alphatype>straight</alphatype>
										<pixelaspectratio>square</pixelaspectratio>
										<anamorphic>FALSE</anamorphic>
										<file id="file-88">
											<name>1080/AE Attribution.aep</name>
											<pathurl>file://localhost/Volumes/ATM%20JR%202TB/Master%20Assets/AE%20Attribution.aep</pathurl>
											<rate>
												<timebase>30</timebase>
												<ntsc>TRUE</ntsc>
											</rate>
											<duration>5844</duration>
											<timecode>
												<rate>
													<timebase>30</timebase>
													<ntsc>TRUE</ntsc>
												</rate>
												<string>00;00;00;00</string>
												<frame>0</frame>
												<displayformat>DF</displayformat>
											</timecode>
											<media>
												<video>
													<samplecharacteristics>
														<rate>
															<timebase>30</timebase>
															<ntsc>TRUE</ntsc>
														</rate>
														<width>1920</width>
														<height>1080</height>
														<anamorphic>FALSE</anamorphic>
														<pixelaspectratio>square</pixelaspectratio>
														<fielddominance>lower</fielddominance>
													</samplecharacteristics>
												</video>
											</media>
										</file>
									</clipitem>
								</track>
							</video>
						</media>
						<logginginfo>
							<description></description>
							<scene></scene>
							<shottake></shottake>
							<lognote></lognote>
							<good></good>
							<originalvideofilename></originalvideofilename>
							<originalaudiofilename></originalaudiofilename>
						</logginginfo>
						<colorinfo>
							<lut></lut>
							<lut1></lut1>
							<asc_sop></asc_sop>
							<asc_sat></asc_sat>
							<lut2></lut2>
						</colorinfo>
						<labels>
							<label2>Rose</label2>
						</labels>
					</clip>
				</children>
			</bin>
			<bin>
				<name>5_Transitions</name>
				<labels>
					<label2>Mango</label2>
				</labels>
				<children>
					<clip id="masterclip-33" explodedTracks="true">
						<uuid>609037c8-820b-4f55-bb55-0f3dd59b60ac</uuid>
						<masterclipid>masterclip-33</masterclipid>
						<ismasterclip>TRUE</ismasterclip>
						<duration>120</duration>
						<rate>
							<timebase>30</timebase>
							<ntsc>TRUE</ntsc>
						</rate>
						<name>ATM_HouseAd_2023.mp4</name>
						<media>
							<video>
								<track>
									<clipitem id="clipitem-443">
										<masterclipid>masterclip-33</masterclipid>
										<name>ATM_HouseAd_2023.mp4</name>
										<rate>
											<timebase>30</timebase>
											<ntsc>TRUE</ntsc>
										</rate>
										<alphatype>none</alphatype>
										<file id="file-27"/>
										<link>
											<linkclipref>clipitem-443</linkclipref>
											<mediatype>video</mediatype>
											<trackindex>1</trackindex>
											<clipindex>1</clipindex>
										</link>
										<link>
											<linkclipref>clipitem-444</linkclipref>
											<mediatype>audio</mediatype>
											<trackindex>1</trackindex>
											<clipindex>1</clipindex>
											<groupindex>1</groupindex>
										</link>
										<link>
											<linkclipref>clipitem-445</linkclipref>
											<mediatype>audio</mediatype>
											<trackindex>2</trackindex>
											<clipindex>1</clipindex>
											<groupindex>1</groupindex>
										</link>
									</clipitem>
								</track>
							</video>
							<audio>
								<track>
									<clipitem id="clipitem-444">
										<masterclipid>masterclip-33</masterclipid>
										<name>ATM_HouseAd_2023.mp4</name>
										<rate>
											<timebase>30</timebase>
											<ntsc>TRUE</ntsc>
										</rate>
										<file id="file-27"/>
										<sourcetrack>
											<mediatype>audio</mediatype>
											<trackindex>1</trackindex>
										</sourcetrack>
										<link>
											<linkclipref>clipitem-443</linkclipref>
											<mediatype>video</mediatype>
											<trackindex>1</trackindex>
											<clipindex>1</clipindex>
										</link>
										<link>
											<linkclipref>clipitem-444</linkclipref>
											<mediatype>audio</mediatype>
											<trackindex>1</trackindex>
											<clipindex>1</clipindex>
											<groupindex>1</groupindex>
										</link>
										<link>
											<linkclipref>clipitem-445</linkclipref>
											<mediatype>audio</mediatype>
											<trackindex>2</trackindex>
											<clipindex>1</clipindex>
											<groupindex>1</groupindex>
										</link>
									</clipitem>
								</track>
								<track>
									<clipitem id="clipitem-445">
										<masterclipid>masterclip-33</masterclipid>
										<name>ATM_HouseAd_2023.mp4</name>
										<rate>
											<timebase>30</timebase>
											<ntsc>TRUE</ntsc>
										</rate>
										<file id="file-27"/>
										<sourcetrack>
											<mediatype>audio</mediatype>
											<trackindex>2</trackindex>
										</sourcetrack>
										<link>
											<linkclipref>clipitem-443</linkclipref>
											<mediatype>video</mediatype>
											<trackindex>1</trackindex>
											<clipindex>1</clipindex>
										</link>
										<link>
											<linkclipref>clipitem-444</linkclipref>
											<mediatype>audio</mediatype>
											<trackindex>1</trackindex>
											<clipindex>1</clipindex>
											<groupindex>1</groupindex>
										</link>
										<link>
											<linkclipref>clipitem-445</linkclipref>
											<mediatype>audio</mediatype>
											<trackindex>2</trackindex>
											<clipindex>1</clipindex>
											<groupindex>1</groupindex>
										</link>
									</clipitem>
								</track>
							</audio>
						</media>
						<logginginfo>
							<description></description>
							<scene></scene>
							<shottake></shottake>
							<lognote></lognote>
							<good></good>
							<originalvideofilename></originalvideofilename>
							<originalaudiofilename></originalaudiofilename>
						</logginginfo>
						<colorinfo>
							<lut></lut>
							<lut1></lut1>
							<asc_sop></asc_sop>
							<asc_sat></asc_sat>
							<lut2></lut2>
						</colorinfo>
						<labels>
							<label2>Iris</label2>
						</labels>
					</clip>
					<clip id="masterclip-9" explodedTracks="true">
						<uuid>ab4b84b9-7e98-4d74-ae62-80569e0af7b1</uuid>
						<masterclipid>masterclip-9</masterclipid>
						<ismasterclip>TRUE</ismasterclip>
						<duration>150</duration>
						<rate>
							<timebase>30</timebase>
							<ntsc>TRUE</ntsc>
						</rate>
						<in>0</in>
						<out>149</out>
						<name>ATM_logo_channels_right-2 (3).png</name>
						<media>
							<video>
								<track>
									<clipitem id="clipitem-446">
										<masterclipid>masterclip-9</masterclipid>
										<name>ATM_logo_channels_right-2 (3).png</name>
										<rate>
											<timebase>30</timebase>
											<ntsc>TRUE</ntsc>
										</rate>
										<alphatype>straight</alphatype>
										<file id="file-7"/>
									</clipitem>
								</track>
							</video>
						</media>
						<logginginfo>
							<description></description>
							<scene></scene>
							<shottake></shottake>
							<lognote></lognote>
							<good></good>
							<originalvideofilename></originalvideofilename>
							<originalaudiofilename></originalaudiofilename>
						</logginginfo>
						<colorinfo>
							<lut></lut>
							<lut1></lut1>
							<asc_sop></asc_sop>
							<asc_sat></asc_sat>
							<lut2></lut2>
						</colorinfo>
						<labels>
							<label2>Lavender</label2>
						</labels>
					</clip>
					<clip id="masterclip-10" explodedTracks="true">
						<uuid>2ccaff7d-1e29-41bb-9f41-7c895383e067</uuid>
						<masterclipid>masterclip-10</masterclipid>
						<ismasterclip>TRUE</ismasterclip>
						<duration>121</duration>
						<rate>
							<timebase>30</timebase>
							<ntsc>FALSE</ntsc>
						</rate>
						<name>CRAFTY_TRAN01_JL_V01.mov</name>
						<media>
							<video>
								<track>
									<clipitem id="clipitem-447">
										<masterclipid>masterclip-10</masterclipid>
										<name>CRAFTY_TRAN01_JL_V01.mov</name>
										<rate>
											<timebase>30</timebase>
											<ntsc>FALSE</ntsc>
										</rate>
										<alphatype>none</alphatype>
										<file id="file-8"/>
										<link>
											<linkclipref>clipitem-447</linkclipref>
											<mediatype>video</mediatype>
											<trackindex>1</trackindex>
											<clipindex>1</clipindex>
										</link>
										<link>
											<linkclipref>clipitem-448</linkclipref>
											<mediatype>audio</mediatype>
											<trackindex>1</trackindex>
											<clipindex>1</clipindex>
											<groupindex>1</groupindex>
										</link>
										<link>
											<linkclipref>clipitem-449</linkclipref>
											<mediatype>audio</mediatype>
											<trackindex>2</trackindex>
											<clipindex>1</clipindex>
											<groupindex>1</groupindex>
										</link>
									</clipitem>
								</track>
							</video>
							<audio>
								<track>
									<clipitem id="clipitem-448">
										<masterclipid>masterclip-10</masterclipid>
										<name>CRAFTY_TRAN01_JL_V01.mov</name>
										<rate>
											<timebase>30</timebase>
											<ntsc>FALSE</ntsc>
										</rate>
										<file id="file-8"/>
										<sourcetrack>
											<mediatype>audio</mediatype>
											<trackindex>1</trackindex>
										</sourcetrack>
										<link>
											<linkclipref>clipitem-447</linkclipref>
											<mediatype>video</mediatype>
											<trackindex>1</trackindex>
											<clipindex>1</clipindex>
										</link>
										<link>
											<linkclipref>clipitem-448</linkclipref>
											<mediatype>audio</mediatype>
											<trackindex>1</trackindex>
											<clipindex>1</clipindex>
											<groupindex>1</groupindex>
										</link>
										<link>
											<linkclipref>clipitem-449</linkclipref>
											<mediatype>audio</mediatype>
											<trackindex>2</trackindex>
											<clipindex>1</clipindex>
											<groupindex>1</groupindex>
										</link>
									</clipitem>
								</track>
								<track>
									<clipitem id="clipitem-449">
										<masterclipid>masterclip-10</masterclipid>
										<name>CRAFTY_TRAN01_JL_V01.mov</name>
										<rate>
											<timebase>30</timebase>
											<ntsc>FALSE</ntsc>
										</rate>
										<file id="file-8"/>
										<sourcetrack>
											<mediatype>audio</mediatype>
											<trackindex>2</trackindex>
										</sourcetrack>
										<link>
											<linkclipref>clipitem-447</linkclipref>
											<mediatype>video</mediatype>
											<trackindex>1</trackindex>
											<clipindex>1</clipindex>
										</link>
										<link>
											<linkclipref>clipitem-448</linkclipref>
											<mediatype>audio</mediatype>
											<trackindex>1</trackindex>
											<clipindex>1</clipindex>
											<groupindex>1</groupindex>
										</link>
										<link>
											<linkclipref>clipitem-449</linkclipref>
											<mediatype>audio</mediatype>
											<trackindex>2</trackindex>
											<clipindex>1</clipindex>
											<groupindex>1</groupindex>
										</link>
									</clipitem>
								</track>
							</audio>
						</media>
						<logginginfo>
							<description></description>
							<scene></scene>
							<shottake></shottake>
							<lognote></lognote>
							<good></good>
							<originalvideofilename></originalvideofilename>
							<originalaudiofilename></originalaudiofilename>
						</logginginfo>
						<colorinfo>
							<lut></lut>
							<lut1></lut1>
							<asc_sop></asc_sop>
							<asc_sat></asc_sat>
							<lut2></lut2>
						</colorinfo>
						<labels>
							<label2>Iris</label2>
						</labels>
					</clip>
					<clip id="masterclip-11" explodedTracks="true">
						<uuid>1d91cbf0-c768-4078-8a17-e59cde5db63b</uuid>
						<masterclipid>masterclip-11</masterclipid>
						<ismasterclip>TRUE</ismasterclip>
						<duration>121</duration>
						<rate>
							<timebase>30</timebase>
							<ntsc>FALSE</ntsc>
						</rate>
						<name>CRAFTY_TRAN02_JL_V01.mov</name>
						<media>
							<video>
								<track>
									<clipitem id="clipitem-450">
										<masterclipid>masterclip-11</masterclipid>
										<name>CRAFTY_TRAN02_JL_V01.mov</name>
										<rate>
											<timebase>30</timebase>
											<ntsc>FALSE</ntsc>
										</rate>
										<alphatype>none</alphatype>
										<file id="file-9"/>
										<link>
											<linkclipref>clipitem-450</linkclipref>
											<mediatype>video</mediatype>
											<trackindex>1</trackindex>
											<clipindex>1</clipindex>
										</link>
										<link>
											<linkclipref>clipitem-451</linkclipref>
											<mediatype>audio</mediatype>
											<trackindex>1</trackindex>
											<clipindex>1</clipindex>
											<groupindex>1</groupindex>
										</link>
										<link>
											<linkclipref>clipitem-452</linkclipref>
											<mediatype>audio</mediatype>
											<trackindex>2</trackindex>
											<clipindex>1</clipindex>
											<groupindex>1</groupindex>
										</link>
									</clipitem>
								</track>
							</video>
							<audio>
								<track>
									<clipitem id="clipitem-451">
										<masterclipid>masterclip-11</masterclipid>
										<name>CRAFTY_TRAN02_JL_V01.mov</name>
										<rate>
											<timebase>30</timebase>
											<ntsc>FALSE</ntsc>
										</rate>
										<file id="file-9"/>
										<sourcetrack>
											<mediatype>audio</mediatype>
											<trackindex>1</trackindex>
										</sourcetrack>
										<link>
											<linkclipref>clipitem-450</linkclipref>
											<mediatype>video</mediatype>
											<trackindex>1</trackindex>
											<clipindex>1</clipindex>
										</link>
										<link>
											<linkclipref>clipitem-451</linkclipref>
											<mediatype>audio</mediatype>
											<trackindex>1</trackindex>
											<clipindex>1</clipindex>
											<groupindex>1</groupindex>
										</link>
										<link>
											<linkclipref>clipitem-452</linkclipref>
											<mediatype>audio</mediatype>
											<trackindex>2</trackindex>
											<clipindex>1</clipindex>
											<groupindex>1</groupindex>
										</link>
									</clipitem>
								</track>
								<track>
									<clipitem id="clipitem-452">
										<masterclipid>masterclip-11</masterclipid>
										<name>CRAFTY_TRAN02_JL_V01.mov</name>
										<rate>
											<timebase>30</timebase>
											<ntsc>FALSE</ntsc>
										</rate>
										<file id="file-9"/>
										<sourcetrack>
											<mediatype>audio</mediatype>
											<trackindex>2</trackindex>
										</sourcetrack>
										<link>
											<linkclipref>clipitem-450</linkclipref>
											<mediatype>video</mediatype>
											<trackindex>1</trackindex>
											<clipindex>1</clipindex>
										</link>
										<link>
											<linkclipref>clipitem-451</linkclipref>
											<mediatype>audio</mediatype>
											<trackindex>1</trackindex>
											<clipindex>1</clipindex>
											<groupindex>1</groupindex>
										</link>
										<link>
											<linkclipref>clipitem-452</linkclipref>
											<mediatype>audio</mediatype>
											<trackindex>2</trackindex>
											<clipindex>1</clipindex>
											<groupindex>1</groupindex>
										</link>
									</clipitem>
								</track>
							</audio>
						</media>
						<logginginfo>
							<description></description>
							<scene></scene>
							<shottake></shottake>
							<lognote></lognote>
							<good></good>
							<originalvideofilename></originalvideofilename>
							<originalaudiofilename></originalaudiofilename>
						</logginginfo>
						<colorinfo>
							<lut></lut>
							<lut1></lut1>
							<asc_sop></asc_sop>
							<asc_sat></asc_sat>
							<lut2></lut2>
						</colorinfo>
						<labels>
							<label2>Iris</label2>
						</labels>
					</clip>
					<clip id="masterclip-22" explodedTracks="true">
						<uuid>71933a04-79a2-455e-a2b9-8d4f09600849</uuid>
						<masterclipid>masterclip-22</masterclipid>
						<ismasterclip>TRUE</ismasterclip>
						<duration>121</duration>
						<rate>
							<timebase>30</timebase>
							<ntsc>FALSE</ntsc>
						</rate>
						<name>CRAFTY_TRAN03_JL_V01.mov</name>
						<media>
							<video>
								<track>
									<clipitem id="clipitem-453">
										<masterclipid>masterclip-22</masterclipid>
										<name>CRAFTY_TRAN03_JL_V01.mov</name>
										<rate>
											<timebase>30</timebase>
											<ntsc>FALSE</ntsc>
										</rate>
										<alphatype>none</alphatype>
										<file id="file-18"/>
										<link>
											<linkclipref>clipitem-453</linkclipref>
											<mediatype>video</mediatype>
											<trackindex>1</trackindex>
											<clipindex>1</clipindex>
										</link>
										<link>
											<linkclipref>clipitem-454</linkclipref>
											<mediatype>audio</mediatype>
											<trackindex>1</trackindex>
											<clipindex>1</clipindex>
											<groupindex>1</groupindex>
										</link>
										<link>
											<linkclipref>clipitem-455</linkclipref>
											<mediatype>audio</mediatype>
											<trackindex>2</trackindex>
											<clipindex>1</clipindex>
											<groupindex>1</groupindex>
										</link>
									</clipitem>
								</track>
							</video>
							<audio>
								<track>
									<clipitem id="clipitem-454">
										<masterclipid>masterclip-22</masterclipid>
										<name>CRAFTY_TRAN03_JL_V01.mov</name>
										<rate>
											<timebase>30</timebase>
											<ntsc>FALSE</ntsc>
										</rate>
										<file id="file-18"/>
										<sourcetrack>
											<mediatype>audio</mediatype>
											<trackindex>1</trackindex>
										</sourcetrack>
										<link>
											<linkclipref>clipitem-453</linkclipref>
											<mediatype>video</mediatype>
											<trackindex>1</trackindex>
											<clipindex>1</clipindex>
										</link>
										<link>
											<linkclipref>clipitem-454</linkclipref>
											<mediatype>audio</mediatype>
											<trackindex>1</trackindex>
											<clipindex>1</clipindex>
											<groupindex>1</groupindex>
										</link>
										<link>
											<linkclipref>clipitem-455</linkclipref>
											<mediatype>audio</mediatype>
											<trackindex>2</trackindex>
											<clipindex>1</clipindex>
											<groupindex>1</groupindex>
										</link>
									</clipitem>
								</track>
								<track>
									<clipitem id="clipitem-455">
										<masterclipid>masterclip-22</masterclipid>
										<name>CRAFTY_TRAN03_JL_V01.mov</name>
										<rate>
											<timebase>30</timebase>
											<ntsc>FALSE</ntsc>
										</rate>
										<file id="file-18"/>
										<sourcetrack>
											<mediatype>audio</mediatype>
											<trackindex>2</trackindex>
										</sourcetrack>
										<link>
											<linkclipref>clipitem-453</linkclipref>
											<mediatype>video</mediatype>
											<trackindex>1</trackindex>
											<clipindex>1</clipindex>
										</link>
										<link>
											<linkclipref>clipitem-454</linkclipref>
											<mediatype>audio</mediatype>
											<trackindex>1</trackindex>
											<clipindex>1</clipindex>
											<groupindex>1</groupindex>
										</link>
										<link>
											<linkclipref>clipitem-455</linkclipref>
											<mediatype>audio</mediatype>
											<trackindex>2</trackindex>
											<clipindex>1</clipindex>
											<groupindex>1</groupindex>
										</link>
									</clipitem>
								</track>
							</audio>
						</media>
						<logginginfo>
							<description></description>
							<scene></scene>
							<shottake></shottake>
							<lognote></lognote>
							<good></good>
							<originalvideofilename></originalvideofilename>
							<originalaudiofilename></originalaudiofilename>
						</logginginfo>
						<colorinfo>
							<lut></lut>
							<lut1></lut1>
							<asc_sop></asc_sop>
							<asc_sat></asc_sat>
							<lut2></lut2>
						</colorinfo>
						<labels>
							<label2>Iris</label2>
						</labels>
					</clip>
				</children>
			</bin>
			<bin>
				<name>6_Music</name>
				<labels>
					<label2>Mango</label2>
				</labels>
				<children>
					<bin>
						<name>used</name>
						<labels>
							<label2>Mango</label2>
						</labels>
						<children>
							<clip id="masterclip-12" explodedTracks="true">
								<uuid>0634a1dd-65a5-4781-9db0-3228253a3cca</uuid>
								<masterclipid>masterclip-12</masterclipid>
								<ismasterclip>TRUE</ismasterclip>
								<duration>3817</duration>
								<rate>
									<timebase>30</timebase>
									<ntsc>TRUE</ntsc>
								</rate>
								<name>ES_Aerials - Guustavv.wav</name>
								<media>
									<audio>
										<track>
											<clipitem id="clipitem-456">
												<masterclipid>masterclip-12</masterclipid>
												<name>ES_Aerials - Guustavv.wav</name>
												<rate>
													<timebase>30</timebase>
													<ntsc>TRUE</ntsc>
												</rate>
												<file id="file-10"/>
												<sourcetrack>
													<mediatype>audio</mediatype>
													<trackindex>1</trackindex>
												</sourcetrack>
												<link>
													<linkclipref>clipitem-456</linkclipref>
													<mediatype>audio</mediatype>
													<trackindex>1</trackindex>
													<clipindex>1</clipindex>
													<groupindex>1</groupindex>
												</link>
												<link>
													<linkclipref>clipitem-457</linkclipref>
													<mediatype>audio</mediatype>
													<trackindex>2</trackindex>
													<clipindex>1</clipindex>
													<groupindex>1</groupindex>
												</link>
											</clipitem>
										</track>
										<track>
											<clipitem id="clipitem-457">
												<masterclipid>masterclip-12</masterclipid>
												<name>ES_Aerials - Guustavv.wav</name>
												<rate>
													<timebase>30</timebase>
													<ntsc>TRUE</ntsc>
												</rate>
												<file id="file-10"/>
												<sourcetrack>
													<mediatype>audio</mediatype>
													<trackindex>2</trackindex>
												</sourcetrack>
												<link>
													<linkclipref>clipitem-456</linkclipref>
													<mediatype>audio</mediatype>
													<trackindex>1</trackindex>
													<clipindex>1</clipindex>
													<groupindex>1</groupindex>
												</link>
												<link>
													<linkclipref>clipitem-457</linkclipref>
													<mediatype>audio</mediatype>
													<trackindex>2</trackindex>
													<clipindex>1</clipindex>
													<groupindex>1</groupindex>
												</link>
											</clipitem>
										</track>
									</audio>
								</media>
								<logginginfo>
									<description></description>
									<scene></scene>
									<shottake></shottake>
									<lognote></lognote>
									<good></good>
									<originalvideofilename></originalvideofilename>
									<originalaudiofilename></originalaudiofilename>
								</logginginfo>
								<colorinfo>
									<lut></lut>
									<lut1></lut1>
									<asc_sop></asc_sop>
									<asc_sat></asc_sat>
									<lut2></lut2>
								</colorinfo>
								<labels>
									<label2>Caribbean</label2>
								</labels>
							</clip>
							<clip id="masterclip-13" explodedTracks="true">
								<uuid>900bf87d-89f6-464b-840a-7a196c74a182</uuid>
								<masterclipid>masterclip-13</masterclipid>
								<ismasterclip>TRUE</ismasterclip>
								<duration>3641</duration>
								<rate>
									<timebase>30</timebase>
									<ntsc>TRUE</ntsc>
								</rate>
								<name>ES_Caspius - Guustavv.wav</name>
								<media>
									<audio>
										<track>
											<clipitem id="clipitem-458">
												<masterclipid>masterclip-13</masterclipid>
												<name>ES_Caspius - Guustavv.wav</name>
												<rate>
													<timebase>30</timebase>
													<ntsc>TRUE</ntsc>
												</rate>
												<file id="file-11"/>
												<sourcetrack>
													<mediatype>audio</mediatype>
													<trackindex>1</trackindex>
												</sourcetrack>
												<link>
													<linkclipref>clipitem-458</linkclipref>
													<mediatype>audio</mediatype>
													<trackindex>1</trackindex>
													<clipindex>1</clipindex>
													<groupindex>1</groupindex>
												</link>
												<link>
													<linkclipref>clipitem-459</linkclipref>
													<mediatype>audio</mediatype>
													<trackindex>2</trackindex>
													<clipindex>1</clipindex>
													<groupindex>1</groupindex>
												</link>
											</clipitem>
										</track>
										<track>
											<clipitem id="clipitem-459">
												<masterclipid>masterclip-13</masterclipid>
												<name>ES_Caspius - Guustavv.wav</name>
												<rate>
													<timebase>30</timebase>
													<ntsc>TRUE</ntsc>
												</rate>
												<file id="file-11"/>
												<sourcetrack>
													<mediatype>audio</mediatype>
													<trackindex>2</trackindex>
												</sourcetrack>
												<link>
													<linkclipref>clipitem-458</linkclipref>
													<mediatype>audio</mediatype>
													<trackindex>1</trackindex>
													<clipindex>1</clipindex>
													<groupindex>1</groupindex>
												</link>
												<link>
													<linkclipref>clipitem-459</linkclipref>
													<mediatype>audio</mediatype>
													<trackindex>2</trackindex>
													<clipindex>1</clipindex>
													<groupindex>1</groupindex>
												</link>
											</clipitem>
										</track>
									</audio>
								</media>
								<logginginfo>
									<description></description>
									<scene></scene>
									<shottake></shottake>
									<lognote></lognote>
									<good></good>
									<originalvideofilename></originalvideofilename>
									<originalaudiofilename></originalaudiofilename>
								</logginginfo>
								<colorinfo>
									<lut></lut>
									<lut1></lut1>
									<asc_sop></asc_sop>
									<asc_sat></asc_sat>
									<lut2></lut2>
								</colorinfo>
								<labels>
									<label2>Caribbean</label2>
								</labels>
							</clip>
							<clip id="masterclip-24" explodedTracks="true">
								<uuid>97b48fdc-c0a7-44f9-9418-f6239d0ad30f</uuid>
								<masterclipid>masterclip-24</masterclipid>
								<ismasterclip>TRUE</ismasterclip>
								<duration>3711</duration>
								<rate>
									<timebase>30</timebase>
									<ntsc>TRUE</ntsc>
								</rate>
								<name>ES_Daydreaming About You While Drinking a Cup of Tea - baegel.wav</name>
								<media>
									<audio>
										<track>
											<clipitem id="clipitem-460">
												<masterclipid>masterclip-24</masterclipid>
												<name>ES_Daydreaming About You While Drinking a Cup of Tea - baegel.wav</name>
												<rate>
													<timebase>30</timebase>
													<ntsc>TRUE</ntsc>
												</rate>
												<file id="file-20"/>
												<sourcetrack>
													<mediatype>audio</mediatype>
													<trackindex>1</trackindex>
												</sourcetrack>
												<link>
													<linkclipref>clipitem-460</linkclipref>
													<mediatype>audio</mediatype>
													<trackindex>1</trackindex>
													<clipindex>1</clipindex>
													<groupindex>1</groupindex>
												</link>
												<link>
													<linkclipref>clipitem-461</linkclipref>
													<mediatype>audio</mediatype>
													<trackindex>2</trackindex>
													<clipindex>1</clipindex>
													<groupindex>1</groupindex>
												</link>
											</clipitem>
										</track>
										<track>
											<clipitem id="clipitem-461">
												<masterclipid>masterclip-24</masterclipid>
												<name>ES_Daydreaming About You While Drinking a Cup of Tea - baegel.wav</name>
												<rate>
													<timebase>30</timebase>
													<ntsc>TRUE</ntsc>
												</rate>
												<file id="file-20"/>
												<sourcetrack>
													<mediatype>audio</mediatype>
													<trackindex>2</trackindex>
												</sourcetrack>
												<link>
													<linkclipref>clipitem-460</linkclipref>
													<mediatype>audio</mediatype>
													<trackindex>1</trackindex>
													<clipindex>1</clipindex>
													<groupindex>1</groupindex>
												</link>
												<link>
													<linkclipref>clipitem-461</linkclipref>
													<mediatype>audio</mediatype>
													<trackindex>2</trackindex>
													<clipindex>1</clipindex>
													<groupindex>1</groupindex>
												</link>
											</clipitem>
										</track>
									</audio>
								</media>
								<logginginfo>
									<description></description>
									<scene></scene>
									<shottake></shottake>
									<lognote></lognote>
									<good></good>
									<originalvideofilename></originalvideofilename>
									<originalaudiofilename></originalaudiofilename>
								</logginginfo>
								<colorinfo>
									<lut></lut>
									<lut1></lut1>
									<asc_sop></asc_sop>
									<asc_sat></asc_sat>
									<lut2></lut2>
								</colorinfo>
								<labels>
									<label2>Caribbean</label2>
								</labels>
							</clip>
							<clip id="masterclip-23" explodedTracks="true">
								<uuid>d70c06cb-2213-4811-ac01-754ed2cc2681</uuid>
								<masterclipid>masterclip-23</masterclipid>
								<ismasterclip>TRUE</ismasterclip>
								<duration>5194</duration>
								<rate>
									<timebase>30</timebase>
									<ntsc>TRUE</ntsc>
								</rate>
								<name>ES_Coasting - Gregory David.wav</name>
								<media>
									<audio>
										<track>
											<clipitem id="clipitem-462">
												<masterclipid>masterclip-23</masterclipid>
												<name>ES_Coasting - Gregory David.wav</name>
												<rate>
													<timebase>30</timebase>
													<ntsc>TRUE</ntsc>
												</rate>
												<file id="file-19"/>
												<sourcetrack>
													<mediatype>audio</mediatype>
													<trackindex>1</trackindex>
												</sourcetrack>
												<link>
													<linkclipref>clipitem-462</linkclipref>
													<mediatype>audio</mediatype>
													<trackindex>1</trackindex>
													<clipindex>1</clipindex>
													<groupindex>1</groupindex>
												</link>
												<link>
													<linkclipref>clipitem-463</linkclipref>
													<mediatype>audio</mediatype>
													<trackindex>2</trackindex>
													<clipindex>1</clipindex>
													<groupindex>1</groupindex>
												</link>
											</clipitem>
										</track>
										<track>
											<clipitem id="clipitem-463">
												<masterclipid>masterclip-23</masterclipid>
												<name>ES_Coasting - Gregory David.wav</name>
												<rate>
													<timebase>30</timebase>
													<ntsc>TRUE</ntsc>
												</rate>
												<file id="file-19"/>
												<sourcetrack>
													<mediatype>audio</mediatype>
													<trackindex>2</trackindex>
												</sourcetrack>
												<link>
													<linkclipref>clipitem-462</linkclipref>
													<mediatype>audio</mediatype>
													<trackindex>1</trackindex>
													<clipindex>1</clipindex>
													<groupindex>1</groupindex>
												</link>
												<link>
													<linkclipref>clipitem-463</linkclipref>
													<mediatype>audio</mediatype>
													<trackindex>2</trackindex>
													<clipindex>1</clipindex>
													<groupindex>1</groupindex>
												</link>
											</clipitem>
										</track>
									</audio>
								</media>
								<logginginfo>
									<description></description>
									<scene></scene>
									<shottake></shottake>
									<lognote></lognote>
									<good></good>
									<originalvideofilename></originalvideofilename>
									<originalaudiofilename></originalaudiofilename>
								</logginginfo>
								<colorinfo>
									<lut></lut>
									<lut1></lut1>
									<asc_sop></asc_sop>
									<asc_sat></asc_sat>
									<lut2></lut2>
								</colorinfo>
								<labels>
									<label2>Caribbean</label2>
								</labels>
							</clip>
							<clip id="masterclip-36" explodedTracks="true">
								<uuid>062db786-88b1-4f6f-89e0-33c6889b36ab</uuid>
								<masterclipid>masterclip-36</masterclipid>
								<ismasterclip>TRUE</ismasterclip>
								<duration>6212</duration>
								<rate>
									<timebase>30</timebase>
									<ntsc>TRUE</ntsc>
								</rate>
								<name>ES_Gualala (Waves) (Instrumental Version) - Pandaraps.wav</name>
								<media>
									<audio>
										<track>
											<clipitem id="clipitem-464">
												<masterclipid>masterclip-36</masterclipid>
												<name>ES_Gualala (Waves) (Instrumental Version) - Pandaraps.wav</name>
												<rate>
													<timebase>30</timebase>
													<ntsc>TRUE</ntsc>
												</rate>
												<file id="file-30"/>
												<sourcetrack>
													<mediatype>audio</mediatype>
													<trackindex>1</trackindex>
												</sourcetrack>
												<link>
													<linkclipref>clipitem-464</linkclipref>
													<mediatype>audio</mediatype>
													<trackindex>1</trackindex>
													<clipindex>1</clipindex>
													<groupindex>1</groupindex>
												</link>
												<link>
													<linkclipref>clipitem-465</linkclipref>
													<mediatype>audio</mediatype>
													<trackindex>2</trackindex>
													<clipindex>1</clipindex>
													<groupindex>1</groupindex>
												</link>
											</clipitem>
										</track>
										<track>
											<clipitem id="clipitem-465">
												<masterclipid>masterclip-36</masterclipid>
												<name>ES_Gualala (Waves) (Instrumental Version) - Pandaraps.wav</name>
												<rate>
													<timebase>30</timebase>
													<ntsc>TRUE</ntsc>
												</rate>
												<file id="file-30"/>
												<sourcetrack>
													<mediatype>audio</mediatype>
													<trackindex>2</trackindex>
												</sourcetrack>
												<link>
													<linkclipref>clipitem-464</linkclipref>
													<mediatype>audio</mediatype>
													<trackindex>1</trackindex>
													<clipindex>1</clipindex>
													<groupindex>1</groupindex>
												</link>
												<link>
													<linkclipref>clipitem-465</linkclipref>
													<mediatype>audio</mediatype>
													<trackindex>2</trackindex>
													<clipindex>1</clipindex>
													<groupindex>1</groupindex>
												</link>
											</clipitem>
										</track>
									</audio>
								</media>
								<logginginfo>
									<description></description>
									<scene></scene>
									<shottake></shottake>
									<lognote></lognote>
									<good></good>
									<originalvideofilename></originalvideofilename>
									<originalaudiofilename></originalaudiofilename>
								</logginginfo>
								<colorinfo>
									<lut></lut>
									<lut1></lut1>
									<asc_sop></asc_sop>
									<asc_sat></asc_sat>
									<lut2></lut2>
								</colorinfo>
								<labels>
									<label2>Caribbean</label2>
								</labels>
							</clip>
							<clip id="masterclip-37" explodedTracks="true">
								<uuid>c7067a49-5f22-4ad5-9ad5-ff58f637d13a</uuid>
								<masterclipid>masterclip-37</masterclipid>
								<ismasterclip>TRUE</ismasterclip>
								<duration>4062</duration>
								<rate>
									<timebase>30</timebase>
									<ntsc>TRUE</ntsc>
								</rate>
								<name>ES_Distractions - Timothy Infinite.wav</name>
								<media>
									<audio>
										<track>
											<clipitem id="clipitem-466">
												<masterclipid>masterclip-37</masterclipid>
												<name>ES_Distractions - Timothy Infinite.wav</name>
												<rate>
													<timebase>30</timebase>
													<ntsc>TRUE</ntsc>
												</rate>
												<file id="file-31"/>
												<sourcetrack>
													<mediatype>audio</mediatype>
													<trackindex>1</trackindex>
												</sourcetrack>
												<link>
													<linkclipref>clipitem-466</linkclipref>
													<mediatype>audio</mediatype>
													<trackindex>1</trackindex>
													<clipindex>1</clipindex>
													<groupindex>1</groupindex>
												</link>
												<link>
													<linkclipref>clipitem-467</linkclipref>
													<mediatype>audio</mediatype>
													<trackindex>2</trackindex>
													<clipindex>1</clipindex>
													<groupindex>1</groupindex>
												</link>
											</clipitem>
										</track>
										<track>
											<clipitem id="clipitem-467">
												<masterclipid>masterclip-37</masterclipid>
												<name>ES_Distractions - Timothy Infinite.wav</name>
												<rate>
													<timebase>30</timebase>
													<ntsc>TRUE</ntsc>
												</rate>
												<file id="file-31"/>
												<sourcetrack>
													<mediatype>audio</mediatype>
													<trackindex>2</trackindex>
												</sourcetrack>
												<link>
													<linkclipref>clipitem-466</linkclipref>
													<mediatype>audio</mediatype>
													<trackindex>1</trackindex>
													<clipindex>1</clipindex>
													<groupindex>1</groupindex>
												</link>
												<link>
													<linkclipref>clipitem-467</linkclipref>
													<mediatype>audio</mediatype>
													<trackindex>2</trackindex>
													<clipindex>1</clipindex>
													<groupindex>1</groupindex>
												</link>
											</clipitem>
										</track>
									</audio>
								</media>
								<logginginfo>
									<description></description>
									<scene></scene>
									<shottake></shottake>
									<lognote></lognote>
									<good></good>
									<originalvideofilename></originalvideofilename>
									<originalaudiofilename></originalaudiofilename>
								</logginginfo>
								<colorinfo>
									<lut></lut>
									<lut1></lut1>
									<asc_sop></asc_sop>
									<asc_sat></asc_sat>
									<lut2></lut2>
								</colorinfo>
								<labels>
									<label2>Caribbean</label2>
								</labels>
							</clip>
							<clip id="masterclip-46" explodedTracks="true">
								<uuid>7a67ff13-3c1d-4686-b2ea-28c0be10bb48</uuid>
								<masterclipid>masterclip-46</masterclipid>
								<ismasterclip>TRUE</ismasterclip>
								<duration>4363</duration>
								<rate>
									<timebase>30</timebase>
									<ntsc>TRUE</ntsc>
								</rate>
								<name>ES_Memories of Fall - baegel.wav</name>
								<media>
									<audio>
										<track>
											<clipitem id="clipitem-468">
												<masterclipid>masterclip-46</masterclipid>
												<name>ES_Memories of Fall - baegel.wav</name>
												<rate>
													<timebase>30</timebase>
													<ntsc>TRUE</ntsc>
												</rate>
												<file id="file-38"/>
												<sourcetrack>
													<mediatype>audio</mediatype>
													<trackindex>1</trackindex>
												</sourcetrack>
												<link>
													<linkclipref>clipitem-468</linkclipref>
													<mediatype>audio</mediatype>
													<trackindex>1</trackindex>
													<clipindex>1</clipindex>
													<groupindex>1</groupindex>
												</link>
												<link>
													<linkclipref>clipitem-469</linkclipref>
													<mediatype>audio</mediatype>
													<trackindex>2</trackindex>
													<clipindex>1</clipindex>
													<groupindex>1</groupindex>
												</link>
											</clipitem>
										</track>
										<track>
											<clipitem id="clipitem-469">
												<masterclipid>masterclip-46</masterclipid>
												<name>ES_Memories of Fall - baegel.wav</name>
												<rate>
													<timebase>30</timebase>
													<ntsc>TRUE</ntsc>
												</rate>
												<file id="file-38"/>
												<sourcetrack>
													<mediatype>audio</mediatype>
													<trackindex>2</trackindex>
												</sourcetrack>
												<link>
													<linkclipref>clipitem-468</linkclipref>
													<mediatype>audio</mediatype>
													<trackindex>1</trackindex>
													<clipindex>1</clipindex>
													<groupindex>1</groupindex>
												</link>
												<link>
													<linkclipref>clipitem-469</linkclipref>
													<mediatype>audio</mediatype>
													<trackindex>2</trackindex>
													<clipindex>1</clipindex>
													<groupindex>1</groupindex>
												</link>
											</clipitem>
										</track>
									</audio>
								</media>
								<logginginfo>
									<description></description>
									<scene></scene>
									<shottake></shottake>
									<lognote></lognote>
									<good></good>
									<originalvideofilename></originalvideofilename>
									<originalaudiofilename></originalaudiofilename>
								</logginginfo>
								<colorinfo>
									<lut></lut>
									<lut1></lut1>
									<asc_sop></asc_sop>
									<asc_sat></asc_sat>
									<lut2></lut2>
								</colorinfo>
								<labels>
									<label2>Caribbean</label2>
								</labels>
							</clip>
							<clip id="masterclip-47" explodedTracks="true">
								<uuid>2b2507ce-65fe-440a-b090-da8edad5198b</uuid>
								<masterclipid>masterclip-47</masterclipid>
								<ismasterclip>TRUE</ismasterclip>
								<duration>3640</duration>
								<rate>
									<timebase>30</timebase>
									<ntsc>TRUE</ntsc>
								</rate>
								<name>ES_Linearity - Jobii.wav</name>
								<media>
									<audio>
										<track>
											<clipitem id="clipitem-470">
												<masterclipid>masterclip-47</masterclipid>
												<name>ES_Linearity - Jobii.wav</name>
												<rate>
													<timebase>30</timebase>
													<ntsc>TRUE</ntsc>
												</rate>
												<file id="file-39"/>
												<sourcetrack>
													<mediatype>audio</mediatype>
													<trackindex>1</trackindex>
												</sourcetrack>
												<link>
													<linkclipref>clipitem-470</linkclipref>
													<mediatype>audio</mediatype>
													<trackindex>1</trackindex>
													<clipindex>1</clipindex>
													<groupindex>1</groupindex>
												</link>
												<link>
													<linkclipref>clipitem-471</linkclipref>
													<mediatype>audio</mediatype>
													<trackindex>2</trackindex>
													<clipindex>1</clipindex>
													<groupindex>1</groupindex>
												</link>
											</clipitem>
										</track>
										<track>
											<clipitem id="clipitem-471">
												<masterclipid>masterclip-47</masterclipid>
												<name>ES_Linearity - Jobii.wav</name>
												<rate>
													<timebase>30</timebase>
													<ntsc>TRUE</ntsc>
												</rate>
												<file id="file-39"/>
												<sourcetrack>
													<mediatype>audio</mediatype>
													<trackindex>2</trackindex>
												</sourcetrack>
												<link>
													<linkclipref>clipitem-470</linkclipref>
													<mediatype>audio</mediatype>
													<trackindex>1</trackindex>
													<clipindex>1</clipindex>
													<groupindex>1</groupindex>
												</link>
												<link>
													<linkclipref>clipitem-471</linkclipref>
													<mediatype>audio</mediatype>
													<trackindex>2</trackindex>
													<clipindex>1</clipindex>
													<groupindex>1</groupindex>
												</link>
											</clipitem>
										</track>
									</audio>
								</media>
								<logginginfo>
									<description></description>
									<scene></scene>
									<shottake></shottake>
									<lognote></lognote>
									<good></good>
									<originalvideofilename></originalvideofilename>
									<originalaudiofilename></originalaudiofilename>
								</logginginfo>
								<colorinfo>
									<lut></lut>
									<lut1></lut1>
									<asc_sop></asc_sop>
									<asc_sat></asc_sat>
									<lut2></lut2>
								</colorinfo>
								<labels>
									<label2>Caribbean</label2>
								</labels>
							</clip>
							<clip id="masterclip-57" explodedTracks="true">
								<uuid>34c0de55-2b92-48ba-9fc9-2dd592405bfd</uuid>
								<masterclipid>masterclip-57</masterclipid>
								<ismasterclip>TRUE</ismasterclip>
								<duration>4128</duration>
								<rate>
									<timebase>30</timebase>
									<ntsc>TRUE</ntsc>
								</rate>
								<name>ES_No Ice - Dylan Sitts.wav</name>
								<media>
									<audio>
										<track>
											<clipitem id="clipitem-472">
												<masterclipid>masterclip-57</masterclipid>
												<name>ES_No Ice - Dylan Sitts.wav</name>
												<rate>
													<timebase>30</timebase>
													<ntsc>TRUE</ntsc>
												</rate>
												<file id="file-47"/>
												<sourcetrack>
													<mediatype>audio</mediatype>
													<trackindex>1</trackindex>
												</sourcetrack>
												<link>
													<linkclipref>clipitem-472</linkclipref>
													<mediatype>audio</mediatype>
													<trackindex>1</trackindex>
													<clipindex>1</clipindex>
													<groupindex>1</groupindex>
												</link>
												<link>
													<linkclipref>clipitem-473</linkclipref>
													<mediatype>audio</mediatype>
													<trackindex>2</trackindex>
													<clipindex>1</clipindex>
													<groupindex>1</groupindex>
												</link>
											</clipitem>
										</track>
										<track>
											<clipitem id="clipitem-473">
												<masterclipid>masterclip-57</masterclipid>
												<name>ES_No Ice - Dylan Sitts.wav</name>
												<rate>
													<timebase>30</timebase>
													<ntsc>TRUE</ntsc>
												</rate>
												<file id="file-47"/>
												<sourcetrack>
													<mediatype>audio</mediatype>
													<trackindex>2</trackindex>
												</sourcetrack>
												<link>
													<linkclipref>clipitem-472</linkclipref>
													<mediatype>audio</mediatype>
													<trackindex>1</trackindex>
													<clipindex>1</clipindex>
													<groupindex>1</groupindex>
												</link>
												<link>
													<linkclipref>clipitem-473</linkclipref>
													<mediatype>audio</mediatype>
													<trackindex>2</trackindex>
													<clipindex>1</clipindex>
													<groupindex>1</groupindex>
												</link>
											</clipitem>
										</track>
									</audio>
								</media>
								<logginginfo>
									<description></description>
									<scene></scene>
									<shottake></shottake>
									<lognote></lognote>
									<good></good>
									<originalvideofilename></originalvideofilename>
									<originalaudiofilename></originalaudiofilename>
								</logginginfo>
								<colorinfo>
									<lut></lut>
									<lut1></lut1>
									<asc_sop></asc_sop>
									<asc_sat></asc_sat>
									<lut2></lut2>
								</colorinfo>
								<labels>
									<label2>Caribbean</label2>
								</labels>
							</clip>
							<clip id="masterclip-56" explodedTracks="true">
								<uuid>911ae766-808a-42fa-8ca7-9100beac7630</uuid>
								<masterclipid>masterclip-56</masterclipid>
								<ismasterclip>TRUE</ismasterclip>
								<duration>4513</duration>
								<rate>
									<timebase>30</timebase>
									<ntsc>TRUE</ntsc>
								</rate>
								<name>ES_Mystique - Dusty Decks.wav</name>
								<media>
									<audio>
										<track>
											<clipitem id="clipitem-474">
												<masterclipid>masterclip-56</masterclipid>
												<name>ES_Mystique - Dusty Decks.wav</name>
												<rate>
													<timebase>30</timebase>
													<ntsc>TRUE</ntsc>
												</rate>
												<file id="file-46"/>
												<sourcetrack>
													<mediatype>audio</mediatype>
													<trackindex>1</trackindex>
												</sourcetrack>
												<link>
													<linkclipref>clipitem-474</linkclipref>
													<mediatype>audio</mediatype>
													<trackindex>1</trackindex>
													<clipindex>1</clipindex>
													<groupindex>1</groupindex>
												</link>
												<link>
													<linkclipref>clipitem-475</linkclipref>
													<mediatype>audio</mediatype>
													<trackindex>2</trackindex>
													<clipindex>1</clipindex>
													<groupindex>1</groupindex>
												</link>
											</clipitem>
										</track>
										<track>
											<clipitem id="clipitem-475">
												<masterclipid>masterclip-56</masterclipid>
												<name>ES_Mystique - Dusty Decks.wav</name>
												<rate>
													<timebase>30</timebase>
													<ntsc>TRUE</ntsc>
												</rate>
												<file id="file-46"/>
												<sourcetrack>
													<mediatype>audio</mediatype>
													<trackindex>2</trackindex>
												</sourcetrack>
												<link>
													<linkclipref>clipitem-474</linkclipref>
													<mediatype>audio</mediatype>
													<trackindex>1</trackindex>
													<clipindex>1</clipindex>
													<groupindex>1</groupindex>
												</link>
												<link>
													<linkclipref>clipitem-475</linkclipref>
													<mediatype>audio</mediatype>
													<trackindex>2</trackindex>
													<clipindex>1</clipindex>
													<groupindex>1</groupindex>
												</link>
											</clipitem>
										</track>
									</audio>
								</media>
								<logginginfo>
									<description></description>
									<scene></scene>
									<shottake></shottake>
									<lognote></lognote>
									<good></good>
									<originalvideofilename></originalvideofilename>
									<originalaudiofilename></originalaudiofilename>
								</logginginfo>
								<colorinfo>
									<lut></lut>
									<lut1></lut1>
									<asc_sop></asc_sop>
									<asc_sat></asc_sat>
									<lut2></lut2>
								</colorinfo>
								<labels>
									<label2>Caribbean</label2>
								</labels>
							</clip>
							<clip id="masterclip-67" explodedTracks="true">
								<uuid>4880623c-c795-4ec6-87b4-d26580f2a700</uuid>
								<masterclipid>masterclip-67</masterclipid>
								<ismasterclip>TRUE</ismasterclip>
								<duration>4461</duration>
								<rate>
									<timebase>30</timebase>
									<ntsc>TRUE</ntsc>
								</rate>
								<name>ES_Sage and Incense - Sarah, the Illstrumentalist.wav</name>
								<media>
									<audio>
										<track>
											<clipitem id="clipitem-476">
												<masterclipid>masterclip-67</masterclipid>
												<name>ES_Sage and Incense - Sarah, the Illstrumentalist.wav</name>
												<rate>
													<timebase>30</timebase>
													<ntsc>TRUE</ntsc>
												</rate>
												<file id="file-55"/>
												<sourcetrack>
													<mediatype>audio</mediatype>
													<trackindex>1</trackindex>
												</sourcetrack>
												<link>
													<linkclipref>clipitem-476</linkclipref>
													<mediatype>audio</mediatype>
													<trackindex>1</trackindex>
													<clipindex>1</clipindex>
													<groupindex>1</groupindex>
												</link>
												<link>
													<linkclipref>clipitem-477</linkclipref>
													<mediatype>audio</mediatype>
													<trackindex>2</trackindex>
													<clipindex>1</clipindex>
													<groupindex>1</groupindex>
												</link>
											</clipitem>
										</track>
										<track>
											<clipitem id="clipitem-477">
												<masterclipid>masterclip-67</masterclipid>
												<name>ES_Sage and Incense - Sarah, the Illstrumentalist.wav</name>
												<rate>
													<timebase>30</timebase>
													<ntsc>TRUE</ntsc>
												</rate>
												<file id="file-55"/>
												<sourcetrack>
													<mediatype>audio</mediatype>
													<trackindex>2</trackindex>
												</sourcetrack>
												<link>
													<linkclipref>clipitem-476</linkclipref>
													<mediatype>audio</mediatype>
													<trackindex>1</trackindex>
													<clipindex>1</clipindex>
													<groupindex>1</groupindex>
												</link>
												<link>
													<linkclipref>clipitem-477</linkclipref>
													<mediatype>audio</mediatype>
													<trackindex>2</trackindex>
													<clipindex>1</clipindex>
													<groupindex>1</groupindex>
												</link>
											</clipitem>
										</track>
									</audio>
								</media>
								<logginginfo>
									<description></description>
									<scene></scene>
									<shottake></shottake>
									<lognote></lognote>
									<good></good>
									<originalvideofilename></originalvideofilename>
									<originalaudiofilename></originalaudiofilename>
								</logginginfo>
								<colorinfo>
									<lut></lut>
									<lut1></lut1>
									<asc_sop></asc_sop>
									<asc_sat></asc_sat>
									<lut2></lut2>
								</colorinfo>
								<labels>
									<label2>Caribbean</label2>
								</labels>
							</clip>
							<clip id="masterclip-66" explodedTracks="true">
								<uuid>6c0d0fa5-ec2d-4e12-9176-77ab8cf5c1c2</uuid>
								<masterclipid>masterclip-66</masterclipid>
								<ismasterclip>TRUE</ismasterclip>
								<duration>3904</duration>
								<rate>
									<timebase>30</timebase>
									<ntsc>TRUE</ntsc>
								</rate>
								<name>ES_Precious Stones - Auxjack.wav</name>
								<media>
									<audio>
										<track>
											<clipitem id="clipitem-478">
												<masterclipid>masterclip-66</masterclipid>
												<name>ES_Precious Stones - Auxjack.wav</name>
												<rate>
													<timebase>30</timebase>
													<ntsc>TRUE</ntsc>
												</rate>
												<file id="file-54"/>
												<sourcetrack>
													<mediatype>audio</mediatype>
													<trackindex>1</trackindex>
												</sourcetrack>
												<link>
													<linkclipref>clipitem-478</linkclipref>
													<mediatype>audio</mediatype>
													<trackindex>1</trackindex>
													<clipindex>1</clipindex>
													<groupindex>1</groupindex>
												</link>
												<link>
													<linkclipref>clipitem-479</linkclipref>
													<mediatype>audio</mediatype>
													<trackindex>2</trackindex>
													<clipindex>1</clipindex>
													<groupindex>1</groupindex>
												</link>
											</clipitem>
										</track>
										<track>
											<clipitem id="clipitem-479">
												<masterclipid>masterclip-66</masterclipid>
												<name>ES_Precious Stones - Auxjack.wav</name>
												<rate>
													<timebase>30</timebase>
													<ntsc>TRUE</ntsc>
												</rate>
												<file id="file-54"/>
												<sourcetrack>
													<mediatype>audio</mediatype>
													<trackindex>2</trackindex>
												</sourcetrack>
												<link>
													<linkclipref>clipitem-478</linkclipref>
													<mediatype>audio</mediatype>
													<trackindex>1</trackindex>
													<clipindex>1</clipindex>
													<groupindex>1</groupindex>
												</link>
												<link>
													<linkclipref>clipitem-479</linkclipref>
													<mediatype>audio</mediatype>
													<trackindex>2</trackindex>
													<clipindex>1</clipindex>
													<groupindex>1</groupindex>
												</link>
											</clipitem>
										</track>
									</audio>
								</media>
								<logginginfo>
									<description></description>
									<scene></scene>
									<shottake></shottake>
									<lognote></lognote>
									<good></good>
									<originalvideofilename></originalvideofilename>
									<originalaudiofilename></originalaudiofilename>
								</logginginfo>
								<colorinfo>
									<lut></lut>
									<lut1></lut1>
									<asc_sop></asc_sop>
									<asc_sat></asc_sat>
									<lut2></lut2>
								</colorinfo>
								<labels>
									<label2>Caribbean</label2>
								</labels>
							</clip>
							<clip id="masterclip-77" explodedTracks="true">
								<uuid>83195821-c4fc-44b5-9bd1-393666bdfaa2</uuid>
								<masterclipid>masterclip-77</masterclipid>
								<ismasterclip>TRUE</ismasterclip>
								<duration>4304</duration>
								<rate>
									<timebase>30</timebase>
									<ntsc>TRUE</ntsc>
								</rate>
								<name>ES_Sisel - Jobii.wav</name>
								<media>
									<audio>
										<track>
											<clipitem id="clipitem-480">
												<masterclipid>masterclip-77</masterclipid>
												<name>ES_Sisel - Jobii.wav</name>
												<rate>
													<timebase>30</timebase>
													<ntsc>TRUE</ntsc>
												</rate>
												<file id="file-63"/>
												<sourcetrack>
													<mediatype>audio</mediatype>
													<trackindex>1</trackindex>
												</sourcetrack>
												<link>
													<linkclipref>clipitem-480</linkclipref>
													<mediatype>audio</mediatype>
													<trackindex>1</trackindex>
													<clipindex>1</clipindex>
													<groupindex>1</groupindex>
												</link>
												<link>
													<linkclipref>clipitem-481</linkclipref>
													<mediatype>audio</mediatype>
													<trackindex>2</trackindex>
													<clipindex>1</clipindex>
													<groupindex>1</groupindex>
												</link>
											</clipitem>
										</track>
										<track>
											<clipitem id="clipitem-481">
												<masterclipid>masterclip-77</masterclipid>
												<name>ES_Sisel - Jobii.wav</name>
												<rate>
													<timebase>30</timebase>
													<ntsc>TRUE</ntsc>
												</rate>
												<file id="file-63"/>
												<sourcetrack>
													<mediatype>audio</mediatype>
													<trackindex>2</trackindex>
												</sourcetrack>
												<link>
													<linkclipref>clipitem-480</linkclipref>
													<mediatype>audio</mediatype>
													<trackindex>1</trackindex>
													<clipindex>1</clipindex>
													<groupindex>1</groupindex>
												</link>
												<link>
													<linkclipref>clipitem-481</linkclipref>
													<mediatype>audio</mediatype>
													<trackindex>2</trackindex>
													<clipindex>1</clipindex>
													<groupindex>1</groupindex>
												</link>
											</clipitem>
										</track>
									</audio>
								</media>
								<logginginfo>
									<description></description>
									<scene></scene>
									<shottake></shottake>
									<lognote></lognote>
									<good></good>
									<originalvideofilename></originalvideofilename>
									<originalaudiofilename></originalaudiofilename>
								</logginginfo>
								<colorinfo>
									<lut></lut>
									<lut1></lut1>
									<asc_sop></asc_sop>
									<asc_sat></asc_sat>
									<lut2></lut2>
								</colorinfo>
								<labels>
									<label2>Caribbean</label2>
								</labels>
							</clip>
							<clip id="masterclip-76" explodedTracks="true">
								<uuid>8830f472-4efd-424b-a5cb-06d62a788ee9</uuid>
								<masterclipid>masterclip-76</masterclipid>
								<ismasterclip>TRUE</ismasterclip>
								<duration>6779</duration>
								<rate>
									<timebase>30</timebase>
									<ntsc>TRUE</ntsc>
								</rate>
								<name>ES_Shooting Star (Make A Wish) - Matt Large.wav</name>
								<media>
									<audio>
										<track>
											<clipitem id="clipitem-482">
												<masterclipid>masterclip-76</masterclipid>
												<name>ES_Shooting Star (Make A Wish) - Matt Large.wav</name>
												<rate>
													<timebase>30</timebase>
													<ntsc>TRUE</ntsc>
												</rate>
												<file id="file-62"/>
												<sourcetrack>
													<mediatype>audio</mediatype>
													<trackindex>1</trackindex>
												</sourcetrack>
												<link>
													<linkclipref>clipitem-482</linkclipref>
													<mediatype>audio</mediatype>
													<trackindex>1</trackindex>
													<clipindex>1</clipindex>
													<groupindex>1</groupindex>
												</link>
												<link>
													<linkclipref>clipitem-483</linkclipref>
													<mediatype>audio</mediatype>
													<trackindex>2</trackindex>
													<clipindex>1</clipindex>
													<groupindex>1</groupindex>
												</link>
											</clipitem>
										</track>
										<track>
											<clipitem id="clipitem-483">
												<masterclipid>masterclip-76</masterclipid>
												<name>ES_Shooting Star (Make A Wish) - Matt Large.wav</name>
												<rate>
													<timebase>30</timebase>
													<ntsc>TRUE</ntsc>
												</rate>
												<file id="file-62"/>
												<sourcetrack>
													<mediatype>audio</mediatype>
													<trackindex>2</trackindex>
												</sourcetrack>
												<link>
													<linkclipref>clipitem-482</linkclipref>
													<mediatype>audio</mediatype>
													<trackindex>1</trackindex>
													<clipindex>1</clipindex>
													<groupindex>1</groupindex>
												</link>
												<link>
													<linkclipref>clipitem-483</linkclipref>
													<mediatype>audio</mediatype>
													<trackindex>2</trackindex>
													<clipindex>1</clipindex>
													<groupindex>1</groupindex>
												</link>
											</clipitem>
										</track>
									</audio>
								</media>
								<logginginfo>
									<description></description>
									<scene></scene>
									<shottake></shottake>
									<lognote></lognote>
									<good></good>
									<originalvideofilename></originalvideofilename>
									<originalaudiofilename></originalaudiofilename>
								</logginginfo>
								<colorinfo>
									<lut></lut>
									<lut1></lut1>
									<asc_sop></asc_sop>
									<asc_sat></asc_sat>
									<lut2></lut2>
								</colorinfo>
								<labels>
									<label2>Caribbean</label2>
								</labels>
							</clip>
							<clip id="masterclip-87" explodedTracks="true">
								<uuid>b8497413-342b-4e44-b74e-f0b18ff702f0</uuid>
								<masterclipid>masterclip-87</masterclipid>
								<ismasterclip>TRUE</ismasterclip>
								<duration>3479</duration>
								<rate>
									<timebase>30</timebase>
									<ntsc>TRUE</ntsc>
								</rate>
								<name>ES_Snuggles - Timothy Infinite.wav</name>
								<media>
									<audio>
										<track>
											<clipitem id="clipitem-484">
												<masterclipid>masterclip-87</masterclipid>
												<name>ES_Snuggles - Timothy Infinite.wav</name>
												<rate>
													<timebase>30</timebase>
													<ntsc>TRUE</ntsc>
												</rate>
												<file id="file-71"/>
												<sourcetrack>
													<mediatype>audio</mediatype>
													<trackindex>1</trackindex>
												</sourcetrack>
												<link>
													<linkclipref>clipitem-484</linkclipref>
													<mediatype>audio</mediatype>
													<trackindex>1</trackindex>
													<clipindex>1</clipindex>
													<groupindex>1</groupindex>
												</link>
												<link>
													<linkclipref>clipitem-485</linkclipref>
													<mediatype>audio</mediatype>
													<trackindex>2</trackindex>
													<clipindex>1</clipindex>
													<groupindex>1</groupindex>
												</link>
											</clipitem>
										</track>
										<track>
											<clipitem id="clipitem-485">
												<masterclipid>masterclip-87</masterclipid>
												<name>ES_Snuggles - Timothy Infinite.wav</name>
												<rate>
													<timebase>30</timebase>
													<ntsc>TRUE</ntsc>
												</rate>
												<file id="file-71"/>
												<sourcetrack>
													<mediatype>audio</mediatype>
													<trackindex>2</trackindex>
												</sourcetrack>
												<link>
													<linkclipref>clipitem-484</linkclipref>
													<mediatype>audio</mediatype>
													<trackindex>1</trackindex>
													<clipindex>1</clipindex>
													<groupindex>1</groupindex>
												</link>
												<link>
													<linkclipref>clipitem-485</linkclipref>
													<mediatype>audio</mediatype>
													<trackindex>2</trackindex>
													<clipindex>1</clipindex>
													<groupindex>1</groupindex>
												</link>
											</clipitem>
										</track>
									</audio>
								</media>
								<logginginfo>
									<description></description>
									<scene></scene>
									<shottake></shottake>
									<lognote></lognote>
									<good></good>
									<originalvideofilename></originalvideofilename>
									<originalaudiofilename></originalaudiofilename>
								</logginginfo>
								<colorinfo>
									<lut></lut>
									<lut1></lut1>
									<asc_sop></asc_sop>
									<asc_sat></asc_sat>
									<lut2></lut2>
								</colorinfo>
								<labels>
									<label2>Caribbean</label2>
								</labels>
							</clip>
							<clip id="masterclip-86" explodedTracks="true">
								<uuid>0ce049f8-5f4c-4794-b70b-343b88532e98</uuid>
								<masterclipid>masterclip-86</masterclipid>
								<ismasterclip>TRUE</ismasterclip>
								<duration>4731</duration>
								<rate>
									<timebase>30</timebase>
									<ntsc>TRUE</ntsc>
								</rate>
								<name>ES_Smokes Creek - Gregory David.wav</name>
								<media>
									<audio>
										<track>
											<clipitem id="clipitem-486">
												<masterclipid>masterclip-86</masterclipid>
												<name>ES_Smokes Creek - Gregory David.wav</name>
												<rate>
													<timebase>30</timebase>
													<ntsc>TRUE</ntsc>
												</rate>
												<file id="file-70"/>
												<sourcetrack>
													<mediatype>audio</mediatype>
													<trackindex>1</trackindex>
												</sourcetrack>
												<link>
													<linkclipref>clipitem-486</linkclipref>
													<mediatype>audio</mediatype>
													<trackindex>1</trackindex>
													<clipindex>1</clipindex>
													<groupindex>1</groupindex>
												</link>
												<link>
													<linkclipref>clipitem-487</linkclipref>
													<mediatype>audio</mediatype>
													<trackindex>2</trackindex>
													<clipindex>1</clipindex>
													<groupindex>1</groupindex>
												</link>
											</clipitem>
										</track>
										<track>
											<clipitem id="clipitem-487">
												<masterclipid>masterclip-86</masterclipid>
												<name>ES_Smokes Creek - Gregory David.wav</name>
												<rate>
													<timebase>30</timebase>
													<ntsc>TRUE</ntsc>
												</rate>
												<file id="file-70"/>
												<sourcetrack>
													<mediatype>audio</mediatype>
													<trackindex>2</trackindex>
												</sourcetrack>
												<link>
													<linkclipref>clipitem-486</linkclipref>
													<mediatype>audio</mediatype>
													<trackindex>1</trackindex>
													<clipindex>1</clipindex>
													<groupindex>1</groupindex>
												</link>
												<link>
													<linkclipref>clipitem-487</linkclipref>
													<mediatype>audio</mediatype>
													<trackindex>2</trackindex>
													<clipindex>1</clipindex>
													<groupindex>1</groupindex>
												</link>
											</clipitem>
										</track>
									</audio>
								</media>
								<logginginfo>
									<description></description>
									<scene></scene>
									<shottake></shottake>
									<lognote></lognote>
									<good></good>
									<originalvideofilename></originalvideofilename>
									<originalaudiofilename></originalaudiofilename>
								</logginginfo>
								<colorinfo>
									<lut></lut>
									<lut1></lut1>
									<asc_sop></asc_sop>
									<asc_sat></asc_sat>
									<lut2></lut2>
								</colorinfo>
								<labels>
									<label2>Caribbean</label2>
								</labels>
							</clip>
							<clip id="masterclip-96" explodedTracks="true">
								<uuid>e5847220-bca3-4714-981f-80591ba9f188</uuid>
								<masterclipid>masterclip-96</masterclipid>
								<ismasterclip>TRUE</ismasterclip>
								<duration>3596</duration>
								<rate>
									<timebase>30</timebase>
									<ntsc>TRUE</ntsc>
								</rate>
								<name>ES_Sunset Boulevard - baegel.wav</name>
								<media>
									<audio>
										<track>
											<clipitem id="clipitem-488">
												<masterclipid>masterclip-96</masterclipid>
												<name>ES_Sunset Boulevard - baegel.wav</name>
												<rate>
													<timebase>30</timebase>
													<ntsc>TRUE</ntsc>
												</rate>
												<file id="file-78"/>
												<sourcetrack>
													<mediatype>audio</mediatype>
													<trackindex>1</trackindex>
												</sourcetrack>
												<link>
													<linkclipref>clipitem-488</linkclipref>
													<mediatype>audio</mediatype>
													<trackindex>1</trackindex>
													<clipindex>1</clipindex>
													<groupindex>1</groupindex>
												</link>
												<link>
													<linkclipref>clipitem-489</linkclipref>
													<mediatype>audio</mediatype>
													<trackindex>2</trackindex>
													<clipindex>1</clipindex>
													<groupindex>1</groupindex>
												</link>
											</clipitem>
										</track>
										<track>
											<clipitem id="clipitem-489">
												<masterclipid>masterclip-96</masterclipid>
												<name>ES_Sunset Boulevard - baegel.wav</name>
												<rate>
													<timebase>30</timebase>
													<ntsc>TRUE</ntsc>
												</rate>
												<file id="file-78"/>
												<sourcetrack>
													<mediatype>audio</mediatype>
													<trackindex>2</trackindex>
												</sourcetrack>
												<link>
													<linkclipref>clipitem-488</linkclipref>
													<mediatype>audio</mediatype>
													<trackindex>1</trackindex>
													<clipindex>1</clipindex>
													<groupindex>1</groupindex>
												</link>
												<link>
													<linkclipref>clipitem-489</linkclipref>
													<mediatype>audio</mediatype>
													<trackindex>2</trackindex>
													<clipindex>1</clipindex>
													<groupindex>1</groupindex>
												</link>
											</clipitem>
										</track>
									</audio>
								</media>
								<logginginfo>
									<description></description>
									<scene></scene>
									<shottake></shottake>
									<lognote></lognote>
									<good></good>
									<originalvideofilename></originalvideofilename>
									<originalaudiofilename></originalaudiofilename>
								</logginginfo>
								<colorinfo>
									<lut></lut>
									<lut1></lut1>
									<asc_sop></asc_sop>
									<asc_sat></asc_sat>
									<lut2></lut2>
								</colorinfo>
								<labels>
									<label2>Caribbean</label2>
								</labels>
							</clip>
							<clip id="masterclip-95" explodedTracks="true">
								<uuid>59c2db53-f5fe-4da8-9083-777761a11733</uuid>
								<masterclipid>masterclip-95</masterclipid>
								<ismasterclip>TRUE</ismasterclip>
								<duration>4422</duration>
								<rate>
									<timebase>30</timebase>
									<ntsc>TRUE</ntsc>
								</rate>
								<name>ES_Soul Single Serenade - Dusty Decks.wav</name>
								<media>
									<audio>
										<track>
											<clipitem id="clipitem-490">
												<masterclipid>masterclip-95</masterclipid>
												<name>ES_Soul Single Serenade - Dusty Decks.wav</name>
												<rate>
													<timebase>30</timebase>
													<ntsc>TRUE</ntsc>
												</rate>
												<file id="file-77"/>
												<sourcetrack>
													<mediatype>audio</mediatype>
													<trackindex>1</trackindex>
												</sourcetrack>
												<link>
													<linkclipref>clipitem-490</linkclipref>
													<mediatype>audio</mediatype>
													<trackindex>1</trackindex>
													<clipindex>1</clipindex>
													<groupindex>1</groupindex>
												</link>
												<link>
													<linkclipref>clipitem-491</linkclipref>
													<mediatype>audio</mediatype>
													<trackindex>2</trackindex>
													<clipindex>1</clipindex>
													<groupindex>1</groupindex>
												</link>
											</clipitem>
										</track>
										<track>
											<clipitem id="clipitem-491">
												<masterclipid>masterclip-95</masterclipid>
												<name>ES_Soul Single Serenade - Dusty Decks.wav</name>
												<rate>
													<timebase>30</timebase>
													<ntsc>TRUE</ntsc>
												</rate>
												<file id="file-77"/>
												<sourcetrack>
													<mediatype>audio</mediatype>
													<trackindex>2</trackindex>
												</sourcetrack>
												<link>
													<linkclipref>clipitem-490</linkclipref>
													<mediatype>audio</mediatype>
													<trackindex>1</trackindex>
													<clipindex>1</clipindex>
													<groupindex>1</groupindex>
												</link>
												<link>
													<linkclipref>clipitem-491</linkclipref>
													<mediatype>audio</mediatype>
													<trackindex>2</trackindex>
													<clipindex>1</clipindex>
													<groupindex>1</groupindex>
												</link>
											</clipitem>
										</track>
									</audio>
								</media>
								<logginginfo>
									<description></description>
									<scene></scene>
									<shottake></shottake>
									<lognote></lognote>
									<good></good>
									<originalvideofilename></originalvideofilename>
									<originalaudiofilename></originalaudiofilename>
								</logginginfo>
								<colorinfo>
									<lut></lut>
									<lut1></lut1>
									<asc_sop></asc_sop>
									<asc_sat></asc_sat>
									<lut2></lut2>
								</colorinfo>
								<labels>
									<label2>Caribbean</label2>
								</labels>
							</clip>
							<clip id="masterclip-106" explodedTracks="true">
								<uuid>a2c1c5f1-740f-4eb8-b883-8fdb87f2f367</uuid>
								<masterclipid>masterclip-106</masterclipid>
								<ismasterclip>TRUE</ismasterclip>
								<duration>4204</duration>
								<rate>
									<timebase>30</timebase>
									<ntsc>TRUE</ntsc>
								</rate>
								<name>ES_Wizzle - Guustavv.wav</name>
								<media>
									<audio>
										<track>
											<clipitem id="clipitem-492">
												<masterclipid>masterclip-106</masterclipid>
												<name>ES_Wizzle - Guustavv.wav</name>
												<rate>
													<timebase>30</timebase>
													<ntsc>TRUE</ntsc>
												</rate>
												<file id="file-86"/>
												<sourcetrack>
													<mediatype>audio</mediatype>
													<trackindex>1</trackindex>
												</sourcetrack>
												<link>
													<linkclipref>clipitem-492</linkclipref>
													<mediatype>audio</mediatype>
													<trackindex>1</trackindex>
													<clipindex>1</clipindex>
													<groupindex>1</groupindex>
												</link>
												<link>
													<linkclipref>clipitem-493</linkclipref>
													<mediatype>audio</mediatype>
													<trackindex>2</trackindex>
													<clipindex>1</clipindex>
													<groupindex>1</groupindex>
												</link>
											</clipitem>
										</track>
										<track>
											<clipitem id="clipitem-493">
												<masterclipid>masterclip-106</masterclipid>
												<name>ES_Wizzle - Guustavv.wav</name>
												<rate>
													<timebase>30</timebase>
													<ntsc>TRUE</ntsc>
												</rate>
												<file id="file-86"/>
												<sourcetrack>
													<mediatype>audio</mediatype>
													<trackindex>2</trackindex>
												</sourcetrack>
												<link>
													<linkclipref>clipitem-492</linkclipref>
													<mediatype>audio</mediatype>
													<trackindex>1</trackindex>
													<clipindex>1</clipindex>
													<groupindex>1</groupindex>
												</link>
												<link>
													<linkclipref>clipitem-493</linkclipref>
													<mediatype>audio</mediatype>
													<trackindex>2</trackindex>
													<clipindex>1</clipindex>
													<groupindex>1</groupindex>
												</link>
											</clipitem>
										</track>
									</audio>
								</media>
								<logginginfo>
									<description></description>
									<scene></scene>
									<shottake></shottake>
									<lognote></lognote>
									<good></good>
									<originalvideofilename></originalvideofilename>
									<originalaudiofilename></originalaudiofilename>
								</logginginfo>
								<colorinfo>
									<lut></lut>
									<lut1></lut1>
									<asc_sop></asc_sop>
									<asc_sat></asc_sat>
									<lut2></lut2>
								</colorinfo>
								<labels>
									<label2>Caribbean</label2>
								</labels>
							</clip>
							<clip id="masterclip-105" explodedTracks="true">
								<uuid>9ff20b70-ee07-444a-a1d9-5208cc127ffe</uuid>
								<masterclipid>masterclip-105</masterclipid>
								<ismasterclip>TRUE</ismasterclip>
								<duration>6212</duration>
								<rate>
									<timebase>30</timebase>
									<ntsc>TRUE</ntsc>
								</rate>
								<name>ES_Water under the Bridge - Matt Large.wav</name>
								<media>
									<audio>
										<track>
											<clipitem id="clipitem-494">
												<masterclipid>masterclip-105</masterclipid>
												<name>ES_Water under the Bridge - Matt Large.wav</name>
												<rate>
													<timebase>30</timebase>
													<ntsc>TRUE</ntsc>
												</rate>
												<file id="file-85"/>
												<sourcetrack>
													<mediatype>audio</mediatype>
													<trackindex>1</trackindex>
												</sourcetrack>
												<link>
													<linkclipref>clipitem-494</linkclipref>
													<mediatype>audio</mediatype>
													<trackindex>1</trackindex>
													<clipindex>1</clipindex>
													<groupindex>1</groupindex>
												</link>
												<link>
													<linkclipref>clipitem-495</linkclipref>
													<mediatype>audio</mediatype>
													<trackindex>2</trackindex>
													<clipindex>1</clipindex>
													<groupindex>1</groupindex>
												</link>
											</clipitem>
										</track>
										<track>
											<clipitem id="clipitem-495">
												<masterclipid>masterclip-105</masterclipid>
												<name>ES_Water under the Bridge - Matt Large.wav</name>
												<rate>
													<timebase>30</timebase>
													<ntsc>TRUE</ntsc>
												</rate>
												<file id="file-85"/>
												<sourcetrack>
													<mediatype>audio</mediatype>
													<trackindex>2</trackindex>
												</sourcetrack>
												<link>
													<linkclipref>clipitem-494</linkclipref>
													<mediatype>audio</mediatype>
													<trackindex>1</trackindex>
													<clipindex>1</clipindex>
													<groupindex>1</groupindex>
												</link>
												<link>
													<linkclipref>clipitem-495</linkclipref>
													<mediatype>audio</mediatype>
													<trackindex>2</trackindex>
													<clipindex>1</clipindex>
													<groupindex>1</groupindex>
												</link>
											</clipitem>
										</track>
									</audio>
								</media>
								<logginginfo>
									<description></description>
									<scene></scene>
									<shottake></shottake>
									<lognote></lognote>
									<good></good>
									<originalvideofilename></originalvideofilename>
									<originalaudiofilename></originalaudiofilename>
								</logginginfo>
								<colorinfo>
									<lut></lut>
									<lut1></lut1>
									<asc_sop></asc_sop>
									<asc_sat></asc_sat>
									<lut2></lut2>
								</colorinfo>
								<labels>
									<label2>Caribbean</label2>
								</labels>
							</clip>
						</children>
					</bin>
				</children>
			</bin>
		</children>
	</project>
</xmeml>
