<?xml version="1.0" encoding="UTF-8"?>
<!DOCTYPE xmeml>
<xmeml version="4">
	<project>
		<name>Crafty_6-19-2023</name>
		<children>
			<bin>
				<name>0_Final Sequences</name>
				<labels>
					<label2>Mango</label2>
				</labels>
				<children>
					<sequence id="sequence-17" TL.SQAudioVisibleBase="0" TL.SQVideoVisibleBase="0" TL.SQVisibleBaseTime="44863945510168" TL.SQAVDividerPosition="0.5" TL.SQHideShyTracks="0" TL.SQHeaderWidth="236" TL.SQDataTrackViewControlState="0" Monitor.ProgramZoomOut="46522937260800" Monitor.ProgramZoomIn="0" TL.SQTimePerPixel="0.017646583610386575" MZ.EditLine="46522937260800" MZ.Sequence.PreviewFrameSizeHeight="1080" MZ.Sequence.PreviewFrameSizeWidth="1920" MZ.Sequence.AudioTimeDisplayFormat="200" MZ.Sequence.PreviewRenderingClassID="1061109567" MZ.Sequence.PreviewRenderingPresetCodec="1634755443" MZ.Sequence.PreviewRenderingPresetPath="EncoderPresets/SequencePreview/35d109db-457b-43c1-9452-9cb7be9f121c/QuickTime.epr" MZ.Sequence.PreviewUseMaxRenderQuality="false" MZ.Sequence.PreviewUseMaxBitDepth="false" MZ.Sequence.EditingModeGUID="35d109db-457b-43c1-9452-9cb7be9f121c" MZ.Sequence.VideoTimeDisplayFormat="102" MZ.WorkOutPoint="15239249625600" MZ.WorkInPoint="0" explodedTracks="true">
						<uuid>3cfa009e-4874-4ef9-9677-fdbfef1d31a3</uuid>
						<duration>5401</duration>
						<rate>
							<timebase>30</timebase>
							<ntsc>TRUE</ntsc>
						</rate>
						<name>ATM_CRAFTY_301</name>
						<media>
							<video>
								<format>
									<samplecharacteristics>
										<rate>
											<timebase>30</timebase>
											<ntsc>TRUE</ntsc>
										</rate>
										<codec>
											<name>Apple ProRes 422</name>
											<appspecificdata>
												<appname>Final Cut Pro</appname>
												<appmanufacturer>Apple Inc.</appmanufacturer>
												<appversion>7.0</appversion>
												<data>
													<qtcodec>
														<codecname>Apple ProRes 422</codecname>
														<codectypename>Apple ProRes 422</codectypename>
														<codectypecode>apcn</codectypecode>
														<codecvendorcode>appl</codecvendorcode>
														<spatialquality>1024</spatialquality>
														<temporalquality>0</temporalquality>
														<keyframerate>0</keyframerate>
														<datarate>0</datarate>
													</qtcodec>
												</data>
											</appspecificdata>
										</codec>
										<width>1920</width>
										<height>1080</height>
										<anamorphic>FALSE</anamorphic>
										<pixelaspectratio>square</pixelaspectratio>
										<fielddominance>none</fielddominance>
										<colordepth>24</colordepth>
									</samplecharacteristics>
								</format>
								<track TL.SQTrackShy="0" TL.SQTrackExpandedHeight="25" TL.SQTrackExpanded="0" MZ.TrackTargeted="1">
									<clipitem id="clipitem-261">
										<masterclipid>masterclip-89</masterclipid>
										<name>DIY_PETALTOTHEMETAL_2</name>
										<enabled>TRUE</enabled>
										<duration>3347</duration>
										<rate>
											<timebase>30</timebase>
											<ntsc>TRUE</ntsc>
										</rate>
										<start>0</start>
										<end>3078</end>
										<in>0</in>
										<out>3078</out>
										<pproTicksIn>0</pproTicksIn>
										<pproTicksOut>26088103641600</pproTicksOut>
										<sequence id="sequence-18" TL.SQAudioVisibleBase="0" TL.SQVideoVisibleBase="0" TL.SQVisibleBaseTime="0" TL.SQAVDividerPosition="0.5" TL.SQHideShyTracks="0" TL.SQHeaderWidth="236" Monitor.ProgramZoomOut="26088103641600" Monitor.ProgramZoomIn="0" TL.SQTimePerPixel="0.16598294521334311" MZ.EditLine="9501222931200" MZ.Sequence.PreviewFrameSizeHeight="1080" MZ.Sequence.PreviewFrameSizeWidth="1920" MZ.Sequence.AudioTimeDisplayFormat="200" MZ.Sequence.PreviewRenderingClassID="1061109567" MZ.Sequence.PreviewRenderingPresetCodec="1634755443" MZ.Sequence.PreviewRenderingPresetPath="EncoderPresets/SequencePreview/35d109db-457b-43c1-9452-9cb7be9f121c/QuickTime.epr" MZ.Sequence.PreviewUseMaxRenderQuality="false" MZ.Sequence.PreviewUseMaxBitDepth="false" MZ.Sequence.EditingModeGUID="35d109db-457b-43c1-9452-9cb7be9f121c" MZ.Sequence.VideoTimeDisplayFormat="102" MZ.WorkOutPoint="28368058118400" MZ.WorkInPoint="0">
											<duration>3078</duration>
											<rate>
												<timebase>30</timebase>
												<ntsc>TRUE</ntsc>
											</rate>
											<name>DIY_PETALTOTHEMETAL_2</name>
											<media>
												<video>
													<format>
														<samplecharacteristics>
															<rate>
																<timebase>30</timebase>
																<ntsc>TRUE</ntsc>
															</rate>
															<codec>
																<name>Apple ProRes 422</name>
																<appspecificdata>
																	<appname>Final Cut Pro</appname>
																	<appmanufacturer>Apple Inc.</appmanufacturer>
																	<appversion>7.0</appversion>
																	<data>
																		<qtcodec>
																			<codecname>Apple ProRes 422</codecname>
																			<codectypename>Apple ProRes 422</codectypename>
																			<codectypecode>apcn</codectypecode>
																			<codecvendorcode>appl</codecvendorcode>
																			<spatialquality>1024</spatialquality>
																			<temporalquality>0</temporalquality>
																			<keyframerate>0</keyframerate>
																			<datarate>0</datarate>
																		</qtcodec>
																	</data>
																</appspecificdata>
															</codec>
															<width>1920</width>
															<height>1080</height>
															<anamorphic>FALSE</anamorphic>
															<pixelaspectratio>square</pixelaspectratio>
															<fielddominance>none</fielddominance>
															<colordepth>24</colordepth>
														</samplecharacteristics>
													</format>
													<track TL.SQTrackShy="0" TL.SQTrackExpandedHeight="25" TL.SQTrackExpanded="0" MZ.TrackTargeted="1">
														<clipitem id="clipitem-262">
															<masterclipid>masterclip-90</masterclipid>
															<name>(parul pawar)_Nylon stocking flowers tutorial _ How to make nylon stocking flower step by step__P_AlaNT5Gg_YT.mp4</name>
															<enabled>TRUE</enabled>
															<duration>4162</duration>
															<rate>
																<timebase>30</timebase>
																<ntsc>TRUE</ntsc>
															</rate>
															<start>0</start>
															<end>115</end>
															<in>436</in>
															<out>551</out>
															<pproTicksIn>3695390899200</pproTicksIn>
															<pproTicksOut>4670092627200</pproTicksOut>
															<alphatype>none</alphatype>
															<pixelaspectratio>square</pixelaspectratio>
															<anamorphic>FALSE</anamorphic>
															<file id="file-78">
																<name>(parul pawar)_Nylon stocking flowers tutorial _ How to make nylon stocking flower step by step__P_AlaNT5Gg_YT.mp4</name>
																<pathurl>file://localhost/Volumes/ATM%20JR%202TB/Crafty/2023/06_June/Crafty_6-19-23/3_Raw%20Footage/flowers/(parul%20pawar)_Nylon%20stocking%20flowers%20tutorial%20_%20How%20to%20make%20nylon%20stocking%20flower%20step%20by%20step__P_AlaNT5Gg_YT.mp4</pathurl>
																<rate>
																	<timebase>25</timebase>
																	<ntsc>FALSE</ntsc>
																</rate>
																<duration>3472</duration>
																<timecode>
																	<rate>
																		<timebase>25</timebase>
																		<ntsc>FALSE</ntsc>
																	</rate>
																	<string>00:00:00:00</string>
																	<frame>0</frame>
																	<displayformat>NDF</displayformat>
																</timecode>
																<media>
																	<video>
																		<samplecharacteristics>
																			<rate>
																				<timebase>25</timebase>
																				<ntsc>FALSE</ntsc>
																			</rate>
																			<width>1920</width>
																			<height>1080</height>
																			<anamorphic>FALSE</anamorphic>
																			<pixelaspectratio>square</pixelaspectratio>
																			<fielddominance>none</fielddominance>
																		</samplecharacteristics>
																	</video>
																	<audio>
																		<samplecharacteristics>
																			<depth>16</depth>
																			<samplerate>44100</samplerate>
																		</samplecharacteristics>
																		<channelcount>2</channelcount>
																	</audio>
																</media>
															</file>
															<filter>
																<effect>
																	<name>Basic Motion</name>
																	<effectid>basic</effectid>
																	<effectcategory>motion</effectcategory>
																	<effecttype>motion</effecttype>
																	<mediatype>video</mediatype>
																	<pproBypass>false</pproBypass>
																	<parameter authoringApp="PremierePro">
																		<parameterid>scale</parameterid>
																		<name>Scale</name>
																		<valuemin>0</valuemin>
																		<valuemax>1000</valuemax>
																		<value>105</value>
																	</parameter>
																	<parameter authoringApp="PremierePro">
																		<parameterid>rotation</parameterid>
																		<name>Rotation</name>
																		<valuemin>-8640</valuemin>
																		<valuemax>8640</valuemax>
																		<value>0</value>
																	</parameter>
																	<parameter authoringApp="PremierePro">
																		<parameterid>center</parameterid>
																		<name>Center</name>
																		<value>
																			<horiz>0</horiz>
																			<vert>0</vert>
																		</value>
																	</parameter>
																	<parameter authoringApp="PremierePro">
																		<parameterid>centerOffset</parameterid>
																		<name>Anchor Point</name>
																		<value>
																			<horiz>0</horiz>
																			<vert>0</vert>
																		</value>
																	</parameter>
																	<parameter authoringApp="PremierePro">
																		<parameterid>antiflicker</parameterid>
																		<name>Anti-flicker Filter</name>
																		<valuemin>0.0</valuemin>
																		<valuemax>1.0</valuemax>
																		<value>0</value>
																	</parameter>
																</effect>
															</filter>
															<logginginfo>
																<description></description>
																<scene></scene>
																<shottake></shottake>
																<lognote>https://www.youtube.com/watch?v=_P_AlaNT5Gg</lognote>
																<good></good>
																<originalvideofilename></originalvideofilename>
																<originalaudiofilename></originalaudiofilename>
															</logginginfo>
															<colorinfo>
																<lut></lut>
																<lut1></lut1>
																<asc_sop></asc_sop>
																<asc_sat></asc_sat>
																<lut2></lut2>
															</colorinfo>
															<labels>
																<label2>Iris</label2>
															</labels>
														</clipitem>
														<clipitem id="clipitem-263">
															<masterclipid>masterclip-90</masterclipid>
															<name>(parul pawar)_Nylon stocking flowers tutorial _ How to make nylon stocking flower step by step__P_AlaNT5Gg_YT.mp4</name>
															<enabled>TRUE</enabled>
															<duration>4162</duration>
															<rate>
																<timebase>30</timebase>
																<ntsc>TRUE</ntsc>
															</rate>
															<start>115</start>
															<end>279</end>
															<in>626</in>
															<out>790</out>
															<pproTicksIn>5305767667200</pproTicksIn>
															<pproTicksOut>6695777088000</pproTicksOut>
															<alphatype>none</alphatype>
															<file id="file-78"/>
															<filter>
																<effect>
																	<name>Basic Motion</name>
																	<effectid>basic</effectid>
																	<effectcategory>motion</effectcategory>
																	<effecttype>motion</effecttype>
																	<mediatype>video</mediatype>
																	<pproBypass>false</pproBypass>
																	<parameter authoringApp="PremierePro">
																		<parameterid>scale</parameterid>
																		<name>Scale</name>
																		<valuemin>0</valuemin>
																		<valuemax>1000</valuemax>
																		<value>105</value>
																	</parameter>
																	<parameter authoringApp="PremierePro">
																		<parameterid>rotation</parameterid>
																		<name>Rotation</name>
																		<valuemin>-8640</valuemin>
																		<valuemax>8640</valuemax>
																		<value>0</value>
																	</parameter>
																	<parameter authoringApp="PremierePro">
																		<parameterid>center</parameterid>
																		<name>Center</name>
																		<value>
																			<horiz>0</horiz>
																			<vert>0</vert>
																		</value>
																	</parameter>
																	<parameter authoringApp="PremierePro">
																		<parameterid>centerOffset</parameterid>
																		<name>Anchor Point</name>
																		<value>
																			<horiz>0</horiz>
																			<vert>0</vert>
																		</value>
																	</parameter>
																	<parameter authoringApp="PremierePro">
																		<parameterid>antiflicker</parameterid>
																		<name>Anti-flicker Filter</name>
																		<valuemin>0.0</valuemin>
																		<valuemax>1.0</valuemax>
																		<value>0</value>
																	</parameter>
																</effect>
															</filter>
															<logginginfo>
																<description></description>
																<scene></scene>
																<shottake></shottake>
																<lognote>https://www.youtube.com/watch?v=_P_AlaNT5Gg</lognote>
																<good></good>
																<originalvideofilename></originalvideofilename>
																<originalaudiofilename></originalaudiofilename>
															</logginginfo>
															<colorinfo>
																<lut></lut>
																<lut1></lut1>
																<asc_sop></asc_sop>
																<asc_sat></asc_sat>
																<lut2></lut2>
															</colorinfo>
															<labels>
																<label2>Iris</label2>
															</labels>
														</clipitem>
														<clipitem id="clipitem-264">
															<masterclipid>masterclip-90</masterclipid>
															<name>(parul pawar)_Nylon stocking flowers tutorial _ How to make nylon stocking flower step by step__P_AlaNT5Gg_YT.mp4</name>
															<enabled>TRUE</enabled>
															<duration>4162</duration>
															<rate>
																<timebase>30</timebase>
																<ntsc>TRUE</ntsc>
															</rate>
															<start>279</start>
															<end>467</end>
															<in>2428</in>
															<out>2616</out>
															<pproTicksIn>20578919961600</pproTicksIn>
															<pproTicksOut>22172345395200</pproTicksOut>
															<alphatype>none</alphatype>
															<file id="file-78"/>
															<filter>
																<effect>
																	<name>Basic Motion</name>
																	<effectid>basic</effectid>
																	<effectcategory>motion</effectcategory>
																	<effecttype>motion</effecttype>
																	<mediatype>video</mediatype>
																	<pproBypass>false</pproBypass>
																	<parameter authoringApp="PremierePro">
																		<parameterid>scale</parameterid>
																		<name>Scale</name>
																		<valuemin>0</valuemin>
																		<valuemax>1000</valuemax>
																		<value>105</value>
																	</parameter>
																	<parameter authoringApp="PremierePro">
																		<parameterid>rotation</parameterid>
																		<name>Rotation</name>
																		<valuemin>-8640</valuemin>
																		<valuemax>8640</valuemax>
																		<value>0</value>
																	</parameter>
																	<parameter authoringApp="PremierePro">
																		<parameterid>center</parameterid>
																		<name>Center</name>
																		<value>
																			<horiz>0</horiz>
																			<vert>0</vert>
																		</value>
																	</parameter>
																	<parameter authoringApp="PremierePro">
																		<parameterid>centerOffset</parameterid>
																		<name>Anchor Point</name>
																		<value>
																			<horiz>0</horiz>
																			<vert>0</vert>
																		</value>
																	</parameter>
																	<parameter authoringApp="PremierePro">
																		<parameterid>antiflicker</parameterid>
																		<name>Anti-flicker Filter</name>
																		<valuemin>0.0</valuemin>
																		<valuemax>1.0</valuemax>
																		<value>0</value>
																	</parameter>
																</effect>
															</filter>
															<logginginfo>
																<description></description>
																<scene></scene>
																<shottake></shottake>
																<lognote>https://www.youtube.com/watch?v=_P_AlaNT5Gg</lognote>
																<good></good>
																<originalvideofilename></originalvideofilename>
																<originalaudiofilename></originalaudiofilename>
															</logginginfo>
															<colorinfo>
																<lut></lut>
																<lut1></lut1>
																<asc_sop></asc_sop>
																<asc_sat></asc_sat>
																<lut2></lut2>
															</colorinfo>
															<labels>
																<label2>Iris</label2>
															</labels>
														</clipitem>
														<clipitem id="clipitem-265">
															<masterclipid>masterclip-90</masterclipid>
															<name>(parul pawar)_Nylon stocking flowers tutorial _ How to make nylon stocking flower step by step__P_AlaNT5Gg_YT.mp4</name>
															<enabled>TRUE</enabled>
															<duration>4162</duration>
															<rate>
																<timebase>30</timebase>
																<ntsc>TRUE</ntsc>
															</rate>
															<start>467</start>
															<end>655</end>
															<in>3265</in>
															<out>3453</out>
															<pproTicksIn>27673053408000</pproTicksIn>
															<pproTicksOut>29266478841600</pproTicksOut>
															<alphatype>none</alphatype>
															<file id="file-78"/>
															<filter>
																<effect>
																	<name>Basic Motion</name>
																	<effectid>basic</effectid>
																	<effectcategory>motion</effectcategory>
																	<effecttype>motion</effecttype>
																	<mediatype>video</mediatype>
																	<pproBypass>false</pproBypass>
																	<parameter authoringApp="PremierePro">
																		<parameterid>scale</parameterid>
																		<name>Scale</name>
																		<valuemin>0</valuemin>
																		<valuemax>1000</valuemax>
																		<value>105</value>
																	</parameter>
																	<parameter authoringApp="PremierePro">
																		<parameterid>rotation</parameterid>
																		<name>Rotation</name>
																		<valuemin>-8640</valuemin>
																		<valuemax>8640</valuemax>
																		<value>0</value>
																	</parameter>
																	<parameter authoringApp="PremierePro">
																		<parameterid>center</parameterid>
																		<name>Center</name>
																		<value>
																			<horiz>0</horiz>
																			<vert>0</vert>
																		</value>
																	</parameter>
																	<parameter authoringApp="PremierePro">
																		<parameterid>centerOffset</parameterid>
																		<name>Anchor Point</name>
																		<value>
																			<horiz>0</horiz>
																			<vert>0</vert>
																		</value>
																	</parameter>
																	<parameter authoringApp="PremierePro">
																		<parameterid>antiflicker</parameterid>
																		<name>Anti-flicker Filter</name>
																		<valuemin>0.0</valuemin>
																		<valuemax>1.0</valuemax>
																		<value>0</value>
																	</parameter>
																</effect>
															</filter>
															<logginginfo>
																<description></description>
																<scene></scene>
																<shottake></shottake>
																<lognote>https://www.youtube.com/watch?v=_P_AlaNT5Gg</lognote>
																<good></good>
																<originalvideofilename></originalvideofilename>
																<originalaudiofilename></originalaudiofilename>
															</logginginfo>
															<colorinfo>
																<lut></lut>
																<lut1></lut1>
																<asc_sop></asc_sop>
																<asc_sat></asc_sat>
																<lut2></lut2>
															</colorinfo>
															<labels>
																<label2>Iris</label2>
															</labels>
														</clipitem>
														<clipitem id="clipitem-266">
															<masterclipid>masterclip-90</masterclipid>
															<name>(parul pawar)_Nylon stocking flowers tutorial _ How to make nylon stocking flower step by step__P_AlaNT5Gg_YT.mp4</name>
															<enabled>TRUE</enabled>
															<duration>4162</duration>
															<rate>
																<timebase>30</timebase>
																<ntsc>TRUE</ntsc>
															</rate>
															<start>655</start>
															<end>764</end>
															<in>3701</in>
															<out>3810</out>
															<pproTicksIn>31368444307200</pproTicksIn>
															<pproTicksOut>32292292032000</pproTicksOut>
															<alphatype>none</alphatype>
															<file id="file-78"/>
															<filter>
																<effect>
																	<name>Basic Motion</name>
																	<effectid>basic</effectid>
																	<effectcategory>motion</effectcategory>
																	<effecttype>motion</effecttype>
																	<mediatype>video</mediatype>
																	<pproBypass>false</pproBypass>
																	<parameter authoringApp="PremierePro">
																		<parameterid>scale</parameterid>
																		<name>Scale</name>
																		<valuemin>0</valuemin>
																		<valuemax>1000</valuemax>
																		<value>105</value>
																	</parameter>
																	<parameter authoringApp="PremierePro">
																		<parameterid>rotation</parameterid>
																		<name>Rotation</name>
																		<valuemin>-8640</valuemin>
																		<valuemax>8640</valuemax>
																		<value>0</value>
																	</parameter>
																	<parameter authoringApp="PremierePro">
																		<parameterid>center</parameterid>
																		<name>Center</name>
																		<value>
																			<horiz>0</horiz>
																			<vert>0</vert>
																		</value>
																	</parameter>
																	<parameter authoringApp="PremierePro">
																		<parameterid>centerOffset</parameterid>
																		<name>Anchor Point</name>
																		<value>
																			<horiz>0</horiz>
																			<vert>0</vert>
																		</value>
																	</parameter>
																	<parameter authoringApp="PremierePro">
																		<parameterid>antiflicker</parameterid>
																		<name>Anti-flicker Filter</name>
																		<valuemin>0.0</valuemin>
																		<valuemax>1.0</valuemax>
																		<value>0</value>
																	</parameter>
																</effect>
															</filter>
															<logginginfo>
																<description></description>
																<scene></scene>
																<shottake></shottake>
																<lognote>https://www.youtube.com/watch?v=_P_AlaNT5Gg</lognote>
																<good></good>
																<originalvideofilename></originalvideofilename>
																<originalaudiofilename></originalaudiofilename>
															</logginginfo>
															<colorinfo>
																<lut></lut>
																<lut1></lut1>
																<asc_sop></asc_sop>
																<asc_sat></asc_sat>
																<lut2></lut2>
															</colorinfo>
															<labels>
																<label2>Iris</label2>
															</labels>
														</clipitem>
														<clipitem id="clipitem-267">
															<masterclipid>masterclip-91</masterclipid>
															<name>(LARYSSA MEIRA)_Easy DIY Faux Blooming Tree _ Affordable DIY Decoration _ DIY Spring Home Decor_-nJejooos74_YT.mp4</name>
															<enabled>TRUE</enabled>
															<duration>10230</duration>
															<rate>
																<timebase>30</timebase>
																<ntsc>TRUE</ntsc>
															</rate>
															<start>764</start>
															<end>955</end>
															<in>3915</in>
															<out>4106</out>
															<pproTicksIn>33182237088000</pproTicksIn>
															<pproTicksOut>34801089523200</pproTicksOut>
															<alphatype>none</alphatype>
															<pixelaspectratio>square</pixelaspectratio>
															<anamorphic>FALSE</anamorphic>
															<file id="file-79">
																<name>(LARYSSA MEIRA)_Easy DIY Faux Blooming Tree _ Affordable DIY Decoration _ DIY Spring Home Decor_-nJejooos74_YT.mp4</name>
																<pathurl>file://localhost/Volumes/ATM%20JR%202TB/Crafty/2023/06_June/Crafty_6-19-23/3_Raw%20Footage/flowers/(LARYSSA%20MEIRA)_Easy%20DIY%20Faux%20Blooming%20Tree%20_%20Affordable%20DIY%20Decoration%20_%20DIY%20Spring%20Home%20Decor_-nJejooos74_YT.mp4</pathurl>
																<rate>
																	<timebase>60</timebase>
																	<ntsc>FALSE</ntsc>
																</rate>
																<duration>20481</duration>
																<timecode>
																	<rate>
																		<timebase>60</timebase>
																		<ntsc>FALSE</ntsc>
																	</rate>
																	<string>00:00:00:00</string>
																	<frame>0</frame>
																	<displayformat>NDF</displayformat>
																</timecode>
																<media>
																	<video>
																		<samplecharacteristics>
																			<rate>
																				<timebase>60</timebase>
																				<ntsc>FALSE</ntsc>
																			</rate>
																			<width>1920</width>
																			<height>1080</height>
																			<anamorphic>FALSE</anamorphic>
																			<pixelaspectratio>square</pixelaspectratio>
																			<fielddominance>none</fielddominance>
																		</samplecharacteristics>
																	</video>
																	<audio>
																		<samplecharacteristics>
																			<depth>16</depth>
																			<samplerate>44100</samplerate>
																		</samplecharacteristics>
																		<channelcount>2</channelcount>
																	</audio>
																</media>
															</file>
															<filter>
																<effect>
																	<name>Basic Motion</name>
																	<effectid>basic</effectid>
																	<effectcategory>motion</effectcategory>
																	<effecttype>motion</effecttype>
																	<mediatype>video</mediatype>
																	<pproBypass>false</pproBypass>
																	<parameter authoringApp="PremierePro">
																		<parameterid>scale</parameterid>
																		<name>Scale</name>
																		<valuemin>0</valuemin>
																		<valuemax>1000</valuemax>
																		<value>105</value>
																	</parameter>
																	<parameter authoringApp="PremierePro">
																		<parameterid>rotation</parameterid>
																		<name>Rotation</name>
																		<valuemin>-8640</valuemin>
																		<valuemax>8640</valuemax>
																		<value>0</value>
																	</parameter>
																	<parameter authoringApp="PremierePro">
																		<parameterid>center</parameterid>
																		<name>Center</name>
																		<value>
																			<horiz>0</horiz>
																			<vert>0</vert>
																		</value>
																	</parameter>
																	<parameter authoringApp="PremierePro">
																		<parameterid>centerOffset</parameterid>
																		<name>Anchor Point</name>
																		<value>
																			<horiz>0</horiz>
																			<vert>0</vert>
																		</value>
																	</parameter>
																	<parameter authoringApp="PremierePro">
																		<parameterid>antiflicker</parameterid>
																		<name>Anti-flicker Filter</name>
																		<valuemin>0.0</valuemin>
																		<valuemax>1.0</valuemax>
																		<value>0</value>
																	</parameter>
																</effect>
															</filter>
															<logginginfo>
																<description></description>
																<scene></scene>
																<shottake></shottake>
																<lognote>https://www.youtube.com/watch?v=-nJejooos74</lognote>
																<good></good>
																<originalvideofilename></originalvideofilename>
																<originalaudiofilename></originalaudiofilename>
															</logginginfo>
															<colorinfo>
																<lut></lut>
																<lut1></lut1>
																<asc_sop></asc_sop>
																<asc_sat></asc_sat>
																<lut2></lut2>
															</colorinfo>
															<labels>
																<label2>Caribbean</label2>
															</labels>
														</clipitem>
														<clipitem id="clipitem-268">
															<masterclipid>masterclip-91</masterclipid>
															<name>(LARYSSA MEIRA)_Easy DIY Faux Blooming Tree _ Affordable DIY Decoration _ DIY Spring Home Decor_-nJejooos74_YT.mp4</name>
															<enabled>TRUE</enabled>
															<duration>10230</duration>
															<rate>
																<timebase>30</timebase>
																<ntsc>TRUE</ntsc>
															</rate>
															<start>955</start>
															<end>1298</end>
															<in>5647</in>
															<out>5990</out>
															<pproTicksIn>47862092678400</pproTicksIn>
															<pproTicksOut>50769246528000</pproTicksOut>
															<alphatype>none</alphatype>
															<file id="file-79"/>
															<filter>
																<effect>
																	<name>Basic Motion</name>
																	<effectid>basic</effectid>
																	<effectcategory>motion</effectcategory>
																	<effecttype>motion</effecttype>
																	<mediatype>video</mediatype>
																	<pproBypass>false</pproBypass>
																	<parameter authoringApp="PremierePro">
																		<parameterid>scale</parameterid>
																		<name>Scale</name>
																		<valuemin>0</valuemin>
																		<valuemax>1000</valuemax>
																		<value>105</value>
																	</parameter>
																	<parameter authoringApp="PremierePro">
																		<parameterid>rotation</parameterid>
																		<name>Rotation</name>
																		<valuemin>-8640</valuemin>
																		<valuemax>8640</valuemax>
																		<value>0</value>
																	</parameter>
																	<parameter authoringApp="PremierePro">
																		<parameterid>center</parameterid>
																		<name>Center</name>
																		<value>
																			<horiz>0</horiz>
																			<vert>0</vert>
																		</value>
																	</parameter>
																	<parameter authoringApp="PremierePro">
																		<parameterid>centerOffset</parameterid>
																		<name>Anchor Point</name>
																		<value>
																			<horiz>0</horiz>
																			<vert>0</vert>
																		</value>
																	</parameter>
																	<parameter authoringApp="PremierePro">
																		<parameterid>antiflicker</parameterid>
																		<name>Anti-flicker Filter</name>
																		<valuemin>0.0</valuemin>
																		<valuemax>1.0</valuemax>
																		<value>0</value>
																	</parameter>
																</effect>
															</filter>
															<logginginfo>
																<description></description>
																<scene></scene>
																<shottake></shottake>
																<lognote>https://www.youtube.com/watch?v=-nJejooos74</lognote>
																<good></good>
																<originalvideofilename></originalvideofilename>
																<originalaudiofilename></originalaudiofilename>
															</logginginfo>
															<colorinfo>
																<lut></lut>
																<lut1></lut1>
																<asc_sop></asc_sop>
																<asc_sat></asc_sat>
																<lut2></lut2>
															</colorinfo>
															<labels>
																<label2>Caribbean</label2>
															</labels>
														</clipitem>
														<clipitem id="clipitem-269">
															<masterclipid>masterclip-91</masterclipid>
															<name>(LARYSSA MEIRA)_Easy DIY Faux Blooming Tree _ Affordable DIY Decoration _ DIY Spring Home Decor_-nJejooos74_YT.mp4</name>
															<enabled>TRUE</enabled>
															<duration>10230</duration>
															<rate>
																<timebase>30</timebase>
																<ntsc>TRUE</ntsc>
															</rate>
															<start>1298</start>
															<end>1528</end>
															<in>7331</in>
															<out>7561</out>
															<pproTicksIn>62135116243200</pproTicksIn>
															<pproTicksOut>64084519699200</pproTicksOut>
															<alphatype>none</alphatype>
															<file id="file-79"/>
															<filter>
																<effect>
																	<name>Basic Motion</name>
																	<effectid>basic</effectid>
																	<effectcategory>motion</effectcategory>
																	<effecttype>motion</effecttype>
																	<mediatype>video</mediatype>
																	<pproBypass>false</pproBypass>
																	<parameter authoringApp="PremierePro">
																		<parameterid>scale</parameterid>
																		<name>Scale</name>
																		<valuemin>0</valuemin>
																		<valuemax>1000</valuemax>
																		<value>105</value>
																	</parameter>
																	<parameter authoringApp="PremierePro">
																		<parameterid>rotation</parameterid>
																		<name>Rotation</name>
																		<valuemin>-8640</valuemin>
																		<valuemax>8640</valuemax>
																		<value>0</value>
																	</parameter>
																	<parameter authoringApp="PremierePro">
																		<parameterid>center</parameterid>
																		<name>Center</name>
																		<value>
																			<horiz>0</horiz>
																			<vert>0</vert>
																		</value>
																	</parameter>
																	<parameter authoringApp="PremierePro">
																		<parameterid>centerOffset</parameterid>
																		<name>Anchor Point</name>
																		<value>
																			<horiz>0</horiz>
																			<vert>0</vert>
																		</value>
																	</parameter>
																	<parameter authoringApp="PremierePro">
																		<parameterid>antiflicker</parameterid>
																		<name>Anti-flicker Filter</name>
																		<valuemin>0.0</valuemin>
																		<valuemax>1.0</valuemax>
																		<value>0</value>
																	</parameter>
																</effect>
															</filter>
															<logginginfo>
																<description></description>
																<scene></scene>
																<shottake></shottake>
																<lognote>https://www.youtube.com/watch?v=-nJejooos74</lognote>
																<good></good>
																<originalvideofilename></originalvideofilename>
																<originalaudiofilename></originalaudiofilename>
															</logginginfo>
															<colorinfo>
																<lut></lut>
																<lut1></lut1>
																<asc_sop></asc_sop>
																<asc_sat></asc_sat>
																<lut2></lut2>
															</colorinfo>
															<labels>
																<label2>Caribbean</label2>
															</labels>
														</clipitem>
														<clipitem id="clipitem-270">
															<masterclipid>masterclip-91</masterclipid>
															<name>(LARYSSA MEIRA)_Easy DIY Faux Blooming Tree _ Affordable DIY Decoration _ DIY Spring Home Decor_-nJejooos74_YT.mp4</name>
															<enabled>TRUE</enabled>
															<duration>10230</duration>
															<rate>
																<timebase>30</timebase>
																<ntsc>TRUE</ntsc>
															</rate>
															<start>1528</start>
															<end>2005</end>
															<in>9615</in>
															<out>10092</out>
															<pproTicksIn>81493540128000</pproTicksIn>
															<pproTicksOut>85536433382400</pproTicksOut>
															<alphatype>none</alphatype>
															<file id="file-79"/>
															<filter>
																<effect>
																	<name>Basic Motion</name>
																	<effectid>basic</effectid>
																	<effectcategory>motion</effectcategory>
																	<effecttype>motion</effecttype>
																	<mediatype>video</mediatype>
																	<pproBypass>false</pproBypass>
																	<parameter authoringApp="PremierePro">
																		<parameterid>scale</parameterid>
																		<name>Scale</name>
																		<valuemin>0</valuemin>
																		<valuemax>1000</valuemax>
																		<value>105</value>
																	</parameter>
																	<parameter authoringApp="PremierePro">
																		<parameterid>rotation</parameterid>
																		<name>Rotation</name>
																		<valuemin>-8640</valuemin>
																		<valuemax>8640</valuemax>
																		<value>0</value>
																	</parameter>
																	<parameter authoringApp="PremierePro">
																		<parameterid>center</parameterid>
																		<name>Center</name>
																		<value>
																			<horiz>0</horiz>
																			<vert>0</vert>
																		</value>
																	</parameter>
																	<parameter authoringApp="PremierePro">
																		<parameterid>centerOffset</parameterid>
																		<name>Anchor Point</name>
																		<value>
																			<horiz>0</horiz>
																			<vert>0</vert>
																		</value>
																	</parameter>
																	<parameter authoringApp="PremierePro">
																		<parameterid>antiflicker</parameterid>
																		<name>Anti-flicker Filter</name>
																		<valuemin>0.0</valuemin>
																		<valuemax>1.0</valuemax>
																		<value>0</value>
																	</parameter>
																</effect>
															</filter>
															<logginginfo>
																<description></description>
																<scene></scene>
																<shottake></shottake>
																<lognote>https://www.youtube.com/watch?v=-nJejooos74</lognote>
																<good></good>
																<originalvideofilename></originalvideofilename>
																<originalaudiofilename></originalaudiofilename>
															</logginginfo>
															<colorinfo>
																<lut></lut>
																<lut1></lut1>
																<asc_sop></asc_sop>
																<asc_sat></asc_sat>
																<lut2></lut2>
															</colorinfo>
															<labels>
																<label2>Caribbean</label2>
															</labels>
														</clipitem>
														<clipitem id="clipitem-271">
															<masterclipid>masterclip-92</masterclipid>
															<name>(parul pawar)_Nylon stocking flowers tutorial _ How to make nylon stocking flower step by step_Qz9ZYqujq_U_YT.mp4</name>
															<enabled>TRUE</enabled>
															<duration>4464</duration>
															<rate>
																<timebase>30</timebase>
																<ntsc>TRUE</ntsc>
															</rate>
															<start>2005</start>
															<end>2229</end>
															<in>149</in>
															<out>373</out>
															<pproTicksIn>1262874412800</pproTicksIn>
															<pproTicksOut>3161423865600</pproTicksOut>
															<alphatype>none</alphatype>
															<pixelaspectratio>square</pixelaspectratio>
															<anamorphic>FALSE</anamorphic>
															<file id="file-80">
																<name>(parul pawar)_Nylon stocking flowers tutorial _ How to make nylon stocking flower step by step_Qz9ZYqujq_U_YT.mp4</name>
																<pathurl>file://localhost/Volumes/ATM%20JR%202TB/Crafty/2023/06_June/Crafty_6-19-23/3_Raw%20Footage/flowers/(parul%20pawar)_Nylon%20stocking%20flowers%20tutorial%20_%20How%20to%20make%20nylon%20stocking%20flower%20step%20by%20step_Qz9ZYqujq_U_YT.mp4</pathurl>
																<rate>
																	<timebase>25</timebase>
																	<ntsc>FALSE</ntsc>
																</rate>
																<duration>3724</duration>
																<timecode>
																	<rate>
																		<timebase>25</timebase>
																		<ntsc>FALSE</ntsc>
																	</rate>
																	<string>00:00:00:00</string>
																	<frame>0</frame>
																	<displayformat>NDF</displayformat>
																</timecode>
																<media>
																	<video>
																		<samplecharacteristics>
																			<rate>
																				<timebase>25</timebase>
																				<ntsc>FALSE</ntsc>
																			</rate>
																			<width>1920</width>
																			<height>1080</height>
																			<anamorphic>FALSE</anamorphic>
																			<pixelaspectratio>square</pixelaspectratio>
																			<fielddominance>none</fielddominance>
																		</samplecharacteristics>
																	</video>
																	<audio>
																		<samplecharacteristics>
																			<depth>16</depth>
																			<samplerate>44100</samplerate>
																		</samplecharacteristics>
																		<channelcount>2</channelcount>
																	</audio>
																</media>
															</file>
															<filter>
																<effect>
																	<name>Basic Motion</name>
																	<effectid>basic</effectid>
																	<effectcategory>motion</effectcategory>
																	<effecttype>motion</effecttype>
																	<mediatype>video</mediatype>
																	<pproBypass>false</pproBypass>
																	<parameter authoringApp="PremierePro">
																		<parameterid>scale</parameterid>
																		<name>Scale</name>
																		<valuemin>0</valuemin>
																		<valuemax>1000</valuemax>
																		<value>105</value>
																	</parameter>
																	<parameter authoringApp="PremierePro">
																		<parameterid>rotation</parameterid>
																		<name>Rotation</name>
																		<valuemin>-8640</valuemin>
																		<valuemax>8640</valuemax>
																		<value>0</value>
																	</parameter>
																	<parameter authoringApp="PremierePro">
																		<parameterid>center</parameterid>
																		<name>Center</name>
																		<value>
																			<horiz>0</horiz>
																			<vert>0</vert>
																		</value>
																	</parameter>
																	<parameter authoringApp="PremierePro">
																		<parameterid>centerOffset</parameterid>
																		<name>Anchor Point</name>
																		<value>
																			<horiz>0</horiz>
																			<vert>0</vert>
																		</value>
																	</parameter>
																	<parameter authoringApp="PremierePro">
																		<parameterid>antiflicker</parameterid>
																		<name>Anti-flicker Filter</name>
																		<valuemin>0.0</valuemin>
																		<valuemax>1.0</valuemax>
																		<value>0</value>
																	</parameter>
																</effect>
															</filter>
															<logginginfo>
																<description></description>
																<scene></scene>
																<shottake></shottake>
																<lognote>https://www.youtube.com/watch?v=Qz9ZYqujq_U</lognote>
																<good></good>
																<originalvideofilename></originalvideofilename>
																<originalaudiofilename></originalaudiofilename>
															</logginginfo>
															<colorinfo>
																<lut></lut>
																<lut1></lut1>
																<asc_sop></asc_sop>
																<asc_sat></asc_sat>
																<lut2></lut2>
															</colorinfo>
															<labels>
																<label2>Violet</label2>
															</labels>
														</clipitem>
														<clipitem id="clipitem-272">
															<masterclipid>masterclip-92</masterclipid>
															<name>(parul pawar)_Nylon stocking flowers tutorial _ How to make nylon stocking flower step by step_Qz9ZYqujq_U_YT.mp4</name>
															<enabled>TRUE</enabled>
															<duration>4464</duration>
															<rate>
																<timebase>30</timebase>
																<ntsc>TRUE</ntsc>
															</rate>
															<start>2229</start>
															<end>2404</end>
															<in>701</in>
															<out>876</out>
															<pproTicksIn>5941442707200</pproTicksIn>
															<pproTicksOut>7424684467200</pproTicksOut>
															<alphatype>none</alphatype>
															<file id="file-80"/>
															<filter>
																<effect>
																	<name>Basic Motion</name>
																	<effectid>basic</effectid>
																	<effectcategory>motion</effectcategory>
																	<effecttype>motion</effecttype>
																	<mediatype>video</mediatype>
																	<pproBypass>false</pproBypass>
																	<parameter authoringApp="PremierePro">
																		<parameterid>scale</parameterid>
																		<name>Scale</name>
																		<valuemin>0</valuemin>
																		<valuemax>1000</valuemax>
																		<value>105</value>
																	</parameter>
																	<parameter authoringApp="PremierePro">
																		<parameterid>rotation</parameterid>
																		<name>Rotation</name>
																		<valuemin>-8640</valuemin>
																		<valuemax>8640</valuemax>
																		<value>0</value>
																	</parameter>
																	<parameter authoringApp="PremierePro">
																		<parameterid>center</parameterid>
																		<name>Center</name>
																		<value>
																			<horiz>0</horiz>
																			<vert>0</vert>
																		</value>
																	</parameter>
																	<parameter authoringApp="PremierePro">
																		<parameterid>centerOffset</parameterid>
																		<name>Anchor Point</name>
																		<value>
																			<horiz>0</horiz>
																			<vert>0</vert>
																		</value>
																	</parameter>
																	<parameter authoringApp="PremierePro">
																		<parameterid>antiflicker</parameterid>
																		<name>Anti-flicker Filter</name>
																		<valuemin>0.0</valuemin>
																		<valuemax>1.0</valuemax>
																		<value>0</value>
																	</parameter>
																</effect>
															</filter>
															<logginginfo>
																<description></description>
																<scene></scene>
																<shottake></shottake>
																<lognote>https://www.youtube.com/watch?v=Qz9ZYqujq_U</lognote>
																<good></good>
																<originalvideofilename></originalvideofilename>
																<originalaudiofilename></originalaudiofilename>
															</logginginfo>
															<colorinfo>
																<lut></lut>
																<lut1></lut1>
																<asc_sop></asc_sop>
																<asc_sat></asc_sat>
																<lut2></lut2>
															</colorinfo>
															<labels>
																<label2>Violet</label2>
															</labels>
														</clipitem>
														<clipitem id="clipitem-273">
															<masterclipid>masterclip-92</masterclipid>
															<name>(parul pawar)_Nylon stocking flowers tutorial _ How to make nylon stocking flower step by step_Qz9ZYqujq_U_YT.mp4</name>
															<enabled>TRUE</enabled>
															<duration>2993</duration>
															<rate>
																<timebase>30</timebase>
																<ntsc>TRUE</ntsc>
															</rate>
															<start>2404</start>
															<end>2738</end>
															<in>1015</in>
															<out>1348</out>
															<pproTicksIn>12815208806400</pproTicksIn>
															<pproTicksOut>17036091072000</pproTicksOut>
															<alphatype>none</alphatype>
															<file id="file-80"/>
															<filter>
																<effect>
																	<name>Basic Motion</name>
																	<effectid>basic</effectid>
																	<effectcategory>motion</effectcategory>
																	<effecttype>motion</effecttype>
																	<mediatype>video</mediatype>
																	<pproBypass>false</pproBypass>
																	<parameter authoringApp="PremierePro">
																		<parameterid>scale</parameterid>
																		<name>Scale</name>
																		<valuemin>0</valuemin>
																		<valuemax>1000</valuemax>
																		<value>105</value>
																	</parameter>
																	<parameter authoringApp="PremierePro">
																		<parameterid>rotation</parameterid>
																		<name>Rotation</name>
																		<valuemin>-8640</valuemin>
																		<valuemax>8640</valuemax>
																		<value>0</value>
																	</parameter>
																	<parameter authoringApp="PremierePro">
																		<parameterid>center</parameterid>
																		<name>Center</name>
																		<value>
																			<horiz>0</horiz>
																			<vert>0</vert>
																		</value>
																	</parameter>
																	<parameter authoringApp="PremierePro">
																		<parameterid>centerOffset</parameterid>
																		<name>Anchor Point</name>
																		<value>
																			<horiz>0</horiz>
																			<vert>0</vert>
																		</value>
																	</parameter>
																	<parameter authoringApp="PremierePro">
																		<parameterid>antiflicker</parameterid>
																		<name>Anti-flicker Filter</name>
																		<valuemin>0.0</valuemin>
																		<valuemax>1.0</valuemax>
																		<value>0</value>
																	</parameter>
																</effect>
															</filter>
															<filter>
																<effect>
																	<name>Time Remap</name>
																	<effectid>timeremap</effectid>
																	<effectcategory>motion</effectcategory>
																	<effecttype>motion</effecttype>
																	<mediatype>video</mediatype>
																	<parameter authoringApp="PremierePro">
																		<parameterid>variablespeed</parameterid>
																		<name>variablespeed</name>
																		<valuemin>0</valuemin>
																		<valuemax>1</valuemax>
																		<value>0</value>
																	</parameter>
																	<parameter authoringApp="PremierePro">
																		<parameterid>speed</parameterid>
																		<name>speed</name>
																		<valuemin>-100000</valuemin>
																		<valuemax>100000</valuemax>
																		<value>149.102</value>
																	</parameter>
																	<parameter authoringApp="PremierePro">
																		<parameterid>reverse</parameterid>
																		<name>reverse</name>
																		<value>FALSE</value>
																	</parameter>
																	<parameter authoringApp="PremierePro">
																		<parameterid>frameblending</parameterid>
																		<name>frameblending</name>
																		<value>FALSE</value>
																	</parameter>
																	<parameter authoringApp="PremierePro">
																		<parameterid>graphdict</parameterid>
																		<name>graphdict</name>
																		<valuemin>0</valuemin>
																		<valuemax>4462</valuemax>
																		<value>0</value>
																		<keyframe>
																			<when>0</when>
																			<value>0</value>
																			<speedvirtualkf>TRUE</speedvirtualkf>
																			<speedkfstart>TRUE</speedkfstart>
																		</keyframe>
																		<keyframe>
																			<when>1015</when>
																			<value>1513</value>
																			<speedvirtualkf>TRUE</speedvirtualkf>
																			<speedkfin>TRUE</speedkfin>
																		</keyframe>
																		<keyframe>
																			<when>1348</when>
																			<value>2009</value>
																			<speedvirtualkf>TRUE</speedvirtualkf>
																			<speedkfout>TRUE</speedkfout>
																		</keyframe>
																		<keyframe>
																			<when>2993</when>
																			<value>4462</value>
																			<speedvirtualkf>TRUE</speedvirtualkf>
																			<speedkfend>TRUE</speedkfend>
																		</keyframe>
																		<interpolation>
																			<name>FCPCurve</name>
																		</interpolation>
																	</parameter>
																</effect>
															</filter>
															<logginginfo>
																<description></description>
																<scene></scene>
																<shottake></shottake>
																<lognote>https://www.youtube.com/watch?v=Qz9ZYqujq_U</lognote>
																<good></good>
																<originalvideofilename></originalvideofilename>
																<originalaudiofilename></originalaudiofilename>
															</logginginfo>
															<colorinfo>
																<lut></lut>
																<lut1></lut1>
																<asc_sop></asc_sop>
																<asc_sat></asc_sat>
																<lut2></lut2>
															</colorinfo>
															<labels>
																<label2>Violet</label2>
															</labels>
														</clipitem>
														<clipitem id="clipitem-274">
															<masterclipid>masterclip-92</masterclipid>
															<name>(parul pawar)_Nylon stocking flowers tutorial _ How to make nylon stocking flower step by step_Qz9ZYqujq_U_YT.mp4</name>
															<enabled>TRUE</enabled>
															<duration>4464</duration>
															<rate>
																<timebase>30</timebase>
																<ntsc>TRUE</ntsc>
															</rate>
															<start>2738</start>
															<end>2959</end>
															<in>3723</in>
															<out>3944</out>
															<pproTicksIn>31554908985600</pproTicksIn>
															<pproTicksOut>33428031436800</pproTicksOut>
															<alphatype>none</alphatype>
															<file id="file-80"/>
															<filter>
																<effect>
																	<name>Basic Motion</name>
																	<effectid>basic</effectid>
																	<effectcategory>motion</effectcategory>
																	<effecttype>motion</effecttype>
																	<mediatype>video</mediatype>
																	<pproBypass>false</pproBypass>
																	<parameter authoringApp="PremierePro">
																		<parameterid>scale</parameterid>
																		<name>Scale</name>
																		<valuemin>0</valuemin>
																		<valuemax>1000</valuemax>
																		<value>105</value>
																	</parameter>
																	<parameter authoringApp="PremierePro">
																		<parameterid>rotation</parameterid>
																		<name>Rotation</name>
																		<valuemin>-8640</valuemin>
																		<valuemax>8640</valuemax>
																		<value>0</value>
																	</parameter>
																	<parameter authoringApp="PremierePro">
																		<parameterid>center</parameterid>
																		<name>Center</name>
																		<value>
																			<horiz>0</horiz>
																			<vert>0</vert>
																		</value>
																	</parameter>
																	<parameter authoringApp="PremierePro">
																		<parameterid>centerOffset</parameterid>
																		<name>Anchor Point</name>
																		<value>
																			<horiz>0</horiz>
																			<vert>0</vert>
																		</value>
																	</parameter>
																	<parameter authoringApp="PremierePro">
																		<parameterid>antiflicker</parameterid>
																		<name>Anti-flicker Filter</name>
																		<valuemin>0.0</valuemin>
																		<valuemax>1.0</valuemax>
																		<value>0</value>
																	</parameter>
																</effect>
															</filter>
															<logginginfo>
																<description></description>
																<scene></scene>
																<shottake></shottake>
																<lognote>https://www.youtube.com/watch?v=Qz9ZYqujq_U</lognote>
																<good></good>
																<originalvideofilename></originalvideofilename>
																<originalaudiofilename></originalaudiofilename>
															</logginginfo>
															<colorinfo>
																<lut></lut>
																<lut1></lut1>
																<asc_sop></asc_sop>
																<asc_sat></asc_sat>
																<lut2></lut2>
															</colorinfo>
															<labels>
																<label2>Violet</label2>
															</labels>
														</clipitem>
														<clipitem id="clipitem-275">
															<masterclipid>masterclip-92</masterclipid>
															<name>(parul pawar)_Nylon stocking flowers tutorial _ How to make nylon stocking flower step by step_Qz9ZYqujq_U_YT.mp4</name>
															<enabled>TRUE</enabled>
															<duration>4464</duration>
															<rate>
																<timebase>30</timebase>
																<ntsc>TRUE</ntsc>
															</rate>
															<start>2959</start>
															<end>3078</end>
															<in>4113</in>
															<out>4232</out>
															<pproTicksIn>34860419193600</pproTicksIn>
															<pproTicksOut>35869023590400</pproTicksOut>
															<alphatype>none</alphatype>
															<file id="file-80"/>
															<filter>
																<effect>
																	<name>Basic Motion</name>
																	<effectid>basic</effectid>
																	<effectcategory>motion</effectcategory>
																	<effecttype>motion</effecttype>
																	<mediatype>video</mediatype>
																	<pproBypass>false</pproBypass>
																	<parameter authoringApp="PremierePro">
																		<parameterid>scale</parameterid>
																		<name>Scale</name>
																		<valuemin>0</valuemin>
																		<valuemax>1000</valuemax>
																		<value>105</value>
																	</parameter>
																	<parameter authoringApp="PremierePro">
																		<parameterid>rotation</parameterid>
																		<name>Rotation</name>
																		<valuemin>-8640</valuemin>
																		<valuemax>8640</valuemax>
																		<value>0</value>
																	</parameter>
																	<parameter authoringApp="PremierePro">
																		<parameterid>center</parameterid>
																		<name>Center</name>
																		<value>
																			<horiz>0</horiz>
																			<vert>0</vert>
																		</value>
																	</parameter>
																	<parameter authoringApp="PremierePro">
																		<parameterid>centerOffset</parameterid>
																		<name>Anchor Point</name>
																		<value>
																			<horiz>0</horiz>
																			<vert>0</vert>
																		</value>
																	</parameter>
																	<parameter authoringApp="PremierePro">
																		<parameterid>antiflicker</parameterid>
																		<name>Anti-flicker Filter</name>
																		<valuemin>0.0</valuemin>
																		<valuemax>1.0</valuemax>
																		<value>0</value>
																	</parameter>
																</effect>
															</filter>
															<logginginfo>
																<description></description>
																<scene></scene>
																<shottake></shottake>
																<lognote>https://www.youtube.com/watch?v=Qz9ZYqujq_U</lognote>
																<good></good>
																<originalvideofilename></originalvideofilename>
																<originalaudiofilename></originalaudiofilename>
															</logginginfo>
															<colorinfo>
																<lut></lut>
																<lut1></lut1>
																<asc_sop></asc_sop>
																<asc_sat></asc_sat>
																<lut2></lut2>
															</colorinfo>
															<labels>
																<label2>Violet</label2>
															</labels>
														</clipitem>
														<enabled>TRUE</enabled>
														<locked>FALSE</locked>
													</track>
													<track TL.SQTrackShy="0" TL.SQTrackExpandedHeight="25" TL.SQTrackExpanded="0" MZ.TrackTargeted="0">
														<clipitem id="clipitem-276">
															<masterclipid>masterclip-93</masterclipid>
															<name>parul pawar</name>
															<enabled>TRUE</enabled>
															<duration>5844</duration>
															<rate>
																<timebase>30</timebase>
																<ntsc>TRUE</ntsc>
															</rate>
															<start>0</start>
															<end>764</end>
															<in>0</in>
															<out>764</out>
															<pproTicksIn>0</pproTicksIn>
															<pproTicksOut>6475409740800</pproTicksOut>
															<alphatype>straight</alphatype>
															<pixelaspectratio>square</pixelaspectratio>
															<anamorphic>FALSE</anamorphic>
															<file id="file-81">
																<name>1080/AE Attribution.aep</name>
																<pathurl>file://localhost/Volumes/ATM%20JR%202TB/Crafty/Master%20Assets%20/Attribution/AE%20Attribution.aep</pathurl>
																<rate>
																	<timebase>30</timebase>
																	<ntsc>TRUE</ntsc>
																</rate>
																<duration>5844</duration>
																<timecode>
																	<rate>
																		<timebase>30</timebase>
																		<ntsc>TRUE</ntsc>
																	</rate>
																	<string>00;00;00;00</string>
																	<frame>0</frame>
																	<displayformat>DF</displayformat>
																</timecode>
																<media>
																	<video>
																		<samplecharacteristics>
																			<rate>
																				<timebase>30</timebase>
																				<ntsc>TRUE</ntsc>
																			</rate>
																			<width>1920</width>
																			<height>1080</height>
																			<anamorphic>FALSE</anamorphic>
																			<pixelaspectratio>square</pixelaspectratio>
																			<fielddominance>lower</fielddominance>
																		</samplecharacteristics>
																	</video>
																</media>
															</file>
															<logginginfo>
																<description></description>
																<scene></scene>
																<shottake></shottake>
																<lognote></lognote>
																<good></good>
																<originalvideofilename></originalvideofilename>
																<originalaudiofilename></originalaudiofilename>
															</logginginfo>
															<colorinfo>
																<lut></lut>
																<lut1></lut1>
																<asc_sop></asc_sop>
																<asc_sat></asc_sat>
																<lut2></lut2>
															</colorinfo>
															<labels>
																<label2>Rose</label2>
															</labels>
														</clipitem>
														<clipitem id="clipitem-277">
															<masterclipid>masterclip-94</masterclipid>
															<name>laryssa meira</name>
															<enabled>TRUE</enabled>
															<duration>5844</duration>
															<rate>
																<timebase>30</timebase>
																<ntsc>TRUE</ntsc>
															</rate>
															<start>764</start>
															<end>2005</end>
															<in>0</in>
															<out>1241</out>
															<pproTicksIn>0</pproTicksIn>
															<pproTicksOut>10518302995200</pproTicksOut>
															<alphatype>straight</alphatype>
															<pixelaspectratio>square</pixelaspectratio>
															<anamorphic>FALSE</anamorphic>
															<file id="file-82">
																<name>1080/AE Attribution.aep</name>
																<pathurl>file://localhost/Volumes/ATM%20JR%202TB/Crafty/Master%20Assets%20/Attribution/AE%20Attribution.aep</pathurl>
																<rate>
																	<timebase>30</timebase>
																	<ntsc>TRUE</ntsc>
																</rate>
																<duration>5844</duration>
																<timecode>
																	<rate>
																		<timebase>30</timebase>
																		<ntsc>TRUE</ntsc>
																	</rate>
																	<string>00;00;00;00</string>
																	<frame>0</frame>
																	<displayformat>DF</displayformat>
																</timecode>
																<media>
																	<video>
																		<samplecharacteristics>
																			<rate>
																				<timebase>30</timebase>
																				<ntsc>TRUE</ntsc>
																			</rate>
																			<width>1920</width>
																			<height>1080</height>
																			<anamorphic>FALSE</anamorphic>
																			<pixelaspectratio>square</pixelaspectratio>
																			<fielddominance>lower</fielddominance>
																		</samplecharacteristics>
																	</video>
																</media>
															</file>
															<logginginfo>
																<description></description>
																<scene></scene>
																<shottake></shottake>
																<lognote></lognote>
																<good></good>
																<originalvideofilename></originalvideofilename>
																<originalaudiofilename></originalaudiofilename>
															</logginginfo>
															<colorinfo>
																<lut></lut>
																<lut1></lut1>
																<asc_sop></asc_sop>
																<asc_sat></asc_sat>
																<lut2></lut2>
															</colorinfo>
															<labels>
																<label2>Rose</label2>
															</labels>
														</clipitem>
														<clipitem id="clipitem-278">
															<masterclipid>masterclip-93</masterclipid>
															<name>parul pawar</name>
															<enabled>TRUE</enabled>
															<duration>5844</duration>
															<rate>
																<timebase>30</timebase>
																<ntsc>TRUE</ntsc>
															</rate>
															<start>2005</start>
															<end>3078</end>
															<in>2274</in>
															<out>3347</out>
															<pproTicksIn>19273667212800</pproTicksIn>
															<pproTicksOut>28368058118400</pproTicksOut>
															<alphatype>straight</alphatype>
															<file id="file-81"/>
															<logginginfo>
																<description></description>
																<scene></scene>
																<shottake></shottake>
																<lognote></lognote>
																<good></good>
																<originalvideofilename></originalvideofilename>
																<originalaudiofilename></originalaudiofilename>
															</logginginfo>
															<colorinfo>
																<lut></lut>
																<lut1></lut1>
																<asc_sop></asc_sop>
																<asc_sat></asc_sat>
																<lut2></lut2>
															</colorinfo>
															<labels>
																<label2>Rose</label2>
															</labels>
														</clipitem>
														<enabled>TRUE</enabled>
														<locked>FALSE</locked>
													</track>
												</video>
												<audio>
													<numOutputChannels>2</numOutputChannels>
													<format>
														<samplecharacteristics>
															<depth>16</depth>
															<samplerate>48000</samplerate>
														</samplecharacteristics>
													</format>
													<outputs>
														<group>
															<index>1</index>
															<numchannels>1</numchannels>
															<downmix>0</downmix>
															<channel>
																<index>1</index>
															</channel>
														</group>
														<group>
															<index>2</index>
															<numchannels>1</numchannels>
															<downmix>0</downmix>
															<channel>
																<index>2</index>
															</channel>
														</group>
													</outputs>
													<track TL.SQTrackAudioKeyframeStyle="0" TL.SQTrackShy="0" TL.SQTrackExpandedHeight="25" TL.SQTrackExpanded="0" MZ.TrackTargeted="1" PannerCurrentValue="0.5" PannerIsInverted="true" PannerStartKeyframe="-91445760000000000,0.5,0,0,0,0,0,0" PannerName="Balance" currentExplodedTrackIndex="0" totalExplodedTrackCount="2" premiereTrackType="Stereo">
														<clipitem id="clipitem-279" premiereChannelType="stereo">
															<masterclipid>masterclip-95</masterclipid>
															<name>ES_Cambodia Rain - SINY.wav</name>
															<enabled>TRUE</enabled>
															<duration>4429</duration>
															<rate>
																<timebase>30</timebase>
																<ntsc>TRUE</ntsc>
															</rate>
															<start>0</start>
															<end>-1</end>
															<in>0</in>
															<out>3078</out>
															<pproTicksIn>0</pproTicksIn>
															<pproTicksOut>26088103641600</pproTicksOut>
															<file id="file-83">
																<name>ES_Cambodia Rain - SINY.wav</name>
																<pathurl>file://localhost/Volumes/ATM%20JR%202TB/Crafty/2023/06_June/Crafty_6-19-23/5_Music/ES_Cambodia%20Rain%20-%20SINY.wav</pathurl>
																<rate>
																	<timebase>30</timebase>
																	<ntsc>TRUE</ntsc>
																</rate>
																<duration>4429</duration>
																<timecode>
																	<rate>
																		<timebase>30</timebase>
																		<ntsc>TRUE</ntsc>
																	</rate>
																	<string>00;14;27;02</string>
																	<frame>25986</frame>
																	<displayformat>DF</displayformat>
																</timecode>
																<media>
																	<audio>
																		<samplecharacteristics>
																			<depth>16</depth>
																			<samplerate>48000</samplerate>
																		</samplecharacteristics>
																		<channelcount>2</channelcount>
																	</audio>
																</media>
															</file>
															<sourcetrack>
																<mediatype>audio</mediatype>
																<trackindex>1</trackindex>
															</sourcetrack>
															<filter>
																<effect>
																	<name>Gain</name>
																	<effectid>{61756678, 4761696e, 4b657947}</effectid>
																	<effecttype>filter</effecttype>
																	<mediatype>audio</mediatype>
																	<parameter authoringApp="PremierePro">
																		<parameterid>Gain(dB)</parameterid>
																		<name>Gain(dB)</name>
																		<valuemin>-96</valuemin>
																		<valuemax>96</valuemax>
																		<value>-8</value>
																	</parameter>
																</effect>
															</filter>
															<link>
																<linkclipref>clipitem-279</linkclipref>
																<mediatype>audio</mediatype>
																<trackindex>1</trackindex>
																<clipindex>1</clipindex>
																<groupindex>1</groupindex>
															</link>
															<link>
																<linkclipref>clipitem-280</linkclipref>
																<mediatype>audio</mediatype>
																<trackindex>2</trackindex>
																<clipindex>1</clipindex>
																<groupindex>1</groupindex>
															</link>
															<logginginfo>
																<description></description>
																<scene></scene>
																<shottake></shottake>
																<lognote></lognote>
																<good></good>
																<originalvideofilename></originalvideofilename>
																<originalaudiofilename></originalaudiofilename>
															</logginginfo>
															<colorinfo>
																<lut></lut>
																<lut1></lut1>
																<asc_sop></asc_sop>
																<asc_sat></asc_sat>
																<lut2></lut2>
															</colorinfo>
															<labels>
																<label2>Caribbean</label2>
															</labels>
														</clipitem>
														<transitionitem>
															<start>2843</start>
															<end>3078</end>
															<pproTicksIn>24096321849600</pproTicksIn>
															<pproTicksOut>26088103641600</pproTicksOut>
															<alignment>end-black</alignment>
															<cutPointTicks>1991781792000</cutPointTicks>
															<rate>
																<timebase>30</timebase>
																<ntsc>TRUE</ntsc>
															</rate>
															<effect>
																<name>Cross Fade (+3dB)</name>
																<effectid>KGAudioTransCrossFade3dB</effectid>
																<effecttype>transition</effecttype>
																<mediatype>audio</mediatype>
																<wipecode>0</wipecode>
																<wipeaccuracy>100</wipeaccuracy>
																<startratio>0</startratio>
																<endratio>1</endratio>
																<reverse>FALSE</reverse>
															</effect>
														</transitionitem>
														<enabled>TRUE</enabled>
														<locked>FALSE</locked>
														<outputchannelindex>1</outputchannelindex>
													</track>
													<track TL.SQTrackAudioKeyframeStyle="0" TL.SQTrackShy="0" TL.SQTrackExpandedHeight="25" TL.SQTrackExpanded="0" MZ.TrackTargeted="1" PannerCurrentValue="0.5" PannerIsInverted="true" PannerStartKeyframe="-91445760000000000,0.5,0,0,0,0,0,0" PannerName="Balance" currentExplodedTrackIndex="1" totalExplodedTrackCount="2" premiereTrackType="Stereo">
														<clipitem id="clipitem-280" premiereChannelType="stereo">
															<masterclipid>masterclip-95</masterclipid>
															<name>ES_Cambodia Rain - SINY.wav</name>
															<enabled>TRUE</enabled>
															<duration>4429</duration>
															<rate>
																<timebase>30</timebase>
																<ntsc>TRUE</ntsc>
															</rate>
															<start>0</start>
															<end>-1</end>
															<in>0</in>
															<out>3078</out>
															<pproTicksIn>0</pproTicksIn>
															<pproTicksOut>26088103641600</pproTicksOut>
															<file id="file-83"/>
															<sourcetrack>
																<mediatype>audio</mediatype>
																<trackindex>2</trackindex>
															</sourcetrack>
															<filter>
																<effect>
																	<name>Gain</name>
																	<effectid>{61756678, 4761696e, 4b657947}</effectid>
																	<effecttype>filter</effecttype>
																	<mediatype>audio</mediatype>
																	<parameter authoringApp="PremierePro">
																		<parameterid>Gain(dB)</parameterid>
																		<name>Gain(dB)</name>
																		<valuemin>-96</valuemin>
																		<valuemax>96</valuemax>
																		<value>-8</value>
																	</parameter>
																</effect>
															</filter>
															<link>
																<linkclipref>clipitem-279</linkclipref>
																<mediatype>audio</mediatype>
																<trackindex>1</trackindex>
																<clipindex>1</clipindex>
																<groupindex>1</groupindex>
															</link>
															<link>
																<linkclipref>clipitem-280</linkclipref>
																<mediatype>audio</mediatype>
																<trackindex>2</trackindex>
																<clipindex>1</clipindex>
																<groupindex>1</groupindex>
															</link>
															<logginginfo>
																<description></description>
																<scene></scene>
																<shottake></shottake>
																<lognote></lognote>
																<good></good>
																<originalvideofilename></originalvideofilename>
																<originalaudiofilename></originalaudiofilename>
															</logginginfo>
															<colorinfo>
																<lut></lut>
																<lut1></lut1>
																<asc_sop></asc_sop>
																<asc_sat></asc_sat>
																<lut2></lut2>
															</colorinfo>
															<labels>
																<label2>Caribbean</label2>
															</labels>
														</clipitem>
														<transitionitem>
															<start>2843</start>
															<end>3078</end>
															<pproTicksIn>24096321849600</pproTicksIn>
															<pproTicksOut>26088103641600</pproTicksOut>
															<alignment>end-black</alignment>
															<cutPointTicks>1991781792000</cutPointTicks>
															<rate>
																<timebase>30</timebase>
																<ntsc>TRUE</ntsc>
															</rate>
															<effect>
																<name>Cross Fade (+3dB)</name>
																<effectid>KGAudioTransCrossFade3dB</effectid>
																<effecttype>transition</effecttype>
																<mediatype>audio</mediatype>
																<wipecode>0</wipecode>
																<wipeaccuracy>100</wipeaccuracy>
																<startratio>0</startratio>
																<endratio>1</endratio>
																<reverse>FALSE</reverse>
															</effect>
														</transitionitem>
														<enabled>TRUE</enabled>
														<locked>FALSE</locked>
														<outputchannelindex>2</outputchannelindex>
													</track>
												</audio>
											</media>
											<timecode>
												<rate>
													<timebase>30</timebase>
													<ntsc>TRUE</ntsc>
												</rate>
												<string>00;00;00;00</string>
												<frame>0</frame>
												<displayformat>DF</displayformat>
											</timecode>
											<logginginfo>
												<description></description>
												<scene></scene>
												<shottake></shottake>
												<lognote></lognote>
												<good></good>
												<originalvideofilename></originalvideofilename>
												<originalaudiofilename></originalaudiofilename>
											</logginginfo>
										</sequence>
										<link>
											<linkclipref>clipitem-261</linkclipref>
											<mediatype>video</mediatype>
											<trackindex>1</trackindex>
											<clipindex>1</clipindex>
										</link>
										<link>
											<linkclipref>clipitem-297</linkclipref>
											<mediatype>audio</mediatype>
											<trackindex>1</trackindex>
											<clipindex>1</clipindex>
											<groupindex>1</groupindex>
										</link>
										<link>
											<linkclipref>clipitem-299</linkclipref>
											<mediatype>audio</mediatype>
											<trackindex>2</trackindex>
											<clipindex>1</clipindex>
											<groupindex>1</groupindex>
										</link>
										<labels>
											<label2>Forest</label2>
										</labels>
									</clipitem>
									<clipitem id="clipitem-281">
										<masterclipid>masterclip-96</masterclipid>
										<name>DIY_HOWTOTILEATABLE_1</name>
										<enabled>TRUE</enabled>
										<duration>2284</duration>
										<rate>
											<timebase>30</timebase>
											<ntsc>TRUE</ntsc>
										</rate>
										<start>3138</start>
										<end>5401</end>
										<in>0</in>
										<out>2263</out>
										<pproTicksIn>0</pproTicksIn>
										<pproTicksOut>19180434873600</pproTicksOut>
										<sequence id="sequence-19" TL.SQAudioVisibleBase="0" TL.SQVideoVisibleBase="0" TL.SQVisibleBaseTime="0" TL.SQAVDividerPosition="0.5" TL.SQHideShyTracks="0" TL.SQHeaderWidth="236" Monitor.ProgramZoomOut="19180434873600" Monitor.ProgramZoomIn="0" TL.SQTimePerPixel="0.072468369690274662" MZ.EditLine="19180434873600" MZ.Sequence.PreviewFrameSizeHeight="1080" MZ.Sequence.PreviewFrameSizeWidth="1920" MZ.Sequence.AudioTimeDisplayFormat="200" MZ.Sequence.PreviewRenderingClassID="1061109567" MZ.Sequence.PreviewRenderingPresetCodec="1634755443" MZ.Sequence.PreviewRenderingPresetPath="EncoderPresets/SequencePreview/35d109db-457b-43c1-9452-9cb7be9f121c/QuickTime.epr" MZ.Sequence.PreviewUseMaxRenderQuality="false" MZ.Sequence.PreviewUseMaxBitDepth="false" MZ.Sequence.EditingModeGUID="35d109db-457b-43c1-9452-9cb7be9f121c" MZ.Sequence.VideoTimeDisplayFormat="102" MZ.WorkOutPoint="19358423884800" MZ.WorkInPoint="0">
											<duration>2263</duration>
											<rate>
												<timebase>30</timebase>
												<ntsc>TRUE</ntsc>
											</rate>
											<name>DIY_HOWTOTILEATABLE_1</name>
											<media>
												<video>
													<format>
														<samplecharacteristics>
															<rate>
																<timebase>30</timebase>
																<ntsc>TRUE</ntsc>
															</rate>
															<codec>
																<name>Apple ProRes 422</name>
																<appspecificdata>
																	<appname>Final Cut Pro</appname>
																	<appmanufacturer>Apple Inc.</appmanufacturer>
																	<appversion>7.0</appversion>
																	<data>
																		<qtcodec>
																			<codecname>Apple ProRes 422</codecname>
																			<codectypename>Apple ProRes 422</codectypename>
																			<codectypecode>apcn</codectypecode>
																			<codecvendorcode>appl</codecvendorcode>
																			<spatialquality>1024</spatialquality>
																			<temporalquality>0</temporalquality>
																			<keyframerate>0</keyframerate>
																			<datarate>0</datarate>
																		</qtcodec>
																	</data>
																</appspecificdata>
															</codec>
															<width>1920</width>
															<height>1080</height>
															<anamorphic>FALSE</anamorphic>
															<pixelaspectratio>square</pixelaspectratio>
															<fielddominance>none</fielddominance>
															<colordepth>24</colordepth>
														</samplecharacteristics>
													</format>
													<track TL.SQTrackShy="0" TL.SQTrackExpandedHeight="25" TL.SQTrackExpanded="0" MZ.TrackTargeted="1">
														<clipitem id="clipitem-282">
															<masterclipid>masterclip-97</masterclipid>
															<name>(Shmoxd)_How to TILE a TABLE DIY_npywnrxuvrs_YT.mp4</name>
															<enabled>TRUE</enabled>
															<duration>27155</duration>
															<rate>
																<timebase>30</timebase>
																<ntsc>TRUE</ntsc>
															</rate>
															<start>0</start>
															<end>109</end>
															<in>791</in>
															<out>900</out>
															<pproTicksIn>6704252755200</pproTicksIn>
															<pproTicksOut>7628100480000</pproTicksOut>
															<alphatype>none</alphatype>
															<pixelaspectratio>square</pixelaspectratio>
															<anamorphic>FALSE</anamorphic>
															<file id="file-84">
																<name>(Shmoxd)_How to TILE a TABLE DIY_npywnrxuvrs_YT.mp4</name>
																<pathurl>file://localhost/Volumes/ATM%20JR%202TB/Crafty/2023/06_June/Crafty_6-19-23/3_Raw%20Footage/how%20to%20tile%20a%20table/(Shmoxd)_How%20to%20TILE%20a%20TABLE%20DIY_npywnrxuvrs_YT.mp4</pathurl>
																<rate>
																	<timebase>30</timebase>
																	<ntsc>TRUE</ntsc>
																</rate>
																<duration>27155</duration>
																<timecode>
																	<rate>
																		<timebase>30</timebase>
																		<ntsc>TRUE</ntsc>
																	</rate>
																	<string>00:00:00:00</string>
																	<frame>0</frame>
																	<displayformat>NDF</displayformat>
																</timecode>
																<media>
																	<video>
																		<samplecharacteristics>
																			<rate>
																				<timebase>30</timebase>
																				<ntsc>TRUE</ntsc>
																			</rate>
																			<width>1920</width>
																			<height>1080</height>
																			<anamorphic>FALSE</anamorphic>
																			<pixelaspectratio>square</pixelaspectratio>
																			<fielddominance>none</fielddominance>
																		</samplecharacteristics>
																	</video>
																	<audio>
																		<samplecharacteristics>
																			<depth>16</depth>
																			<samplerate>44100</samplerate>
																		</samplecharacteristics>
																		<channelcount>2</channelcount>
																	</audio>
																</media>
															</file>
															<logginginfo>
																<description></description>
																<scene></scene>
																<shottake></shottake>
																<lognote>https://www.youtube.com/watch?v=npywnrxuvrs</lognote>
																<good></good>
																<originalvideofilename></originalvideofilename>
																<originalaudiofilename></originalaudiofilename>
															</logginginfo>
															<colorinfo>
																<lut></lut>
																<lut1></lut1>
																<asc_sop></asc_sop>
																<asc_sat></asc_sat>
																<lut2></lut2>
															</colorinfo>
															<labels>
																<label2>Iris</label2>
															</labels>
														</clipitem>
														<clipitem id="clipitem-283">
															<masterclipid>masterclip-97</masterclipid>
															<name>(Shmoxd)_How to TILE a TABLE DIY_npywnrxuvrs_YT.mp4</name>
															<enabled>TRUE</enabled>
															<duration>27155</duration>
															<rate>
																<timebase>30</timebase>
																<ntsc>TRUE</ntsc>
															</rate>
															<start>109</start>
															<end>643</end>
															<in>1719</in>
															<out>2253</out>
															<pproTicksIn>14569671916800</pproTicksIn>
															<pproTicksOut>19095678201600</pproTicksOut>
															<alphatype>none</alphatype>
															<file id="file-84"/>
															<logginginfo>
																<description></description>
																<scene></scene>
																<shottake></shottake>
																<lognote>https://www.youtube.com/watch?v=npywnrxuvrs</lognote>
																<good></good>
																<originalvideofilename></originalvideofilename>
																<originalaudiofilename></originalaudiofilename>
															</logginginfo>
															<colorinfo>
																<lut></lut>
																<lut1></lut1>
																<asc_sop></asc_sop>
																<asc_sat></asc_sat>
																<lut2></lut2>
															</colorinfo>
															<labels>
																<label2>Iris</label2>
															</labels>
														</clipitem>
														<clipitem id="clipitem-284">
															<masterclipid>masterclip-97</masterclipid>
															<name>(Shmoxd)_How to TILE a TABLE DIY_npywnrxuvrs_YT.mp4</name>
															<enabled>TRUE</enabled>
															<duration>27155</duration>
															<rate>
																<timebase>30</timebase>
																<ntsc>TRUE</ntsc>
															</rate>
															<start>643</start>
															<end>787</end>
															<in>4774</in>
															<out>4918</out>
															<pproTicksIn>40462835212800</pproTicksIn>
															<pproTicksOut>41683331289600</pproTicksOut>
															<alphatype>none</alphatype>
															<file id="file-84"/>
															<logginginfo>
																<description></description>
																<scene></scene>
																<shottake></shottake>
																<lognote>https://www.youtube.com/watch?v=npywnrxuvrs</lognote>
																<good></good>
																<originalvideofilename></originalvideofilename>
																<originalaudiofilename></originalaudiofilename>
															</logginginfo>
															<colorinfo>
																<lut></lut>
																<lut1></lut1>
																<asc_sop></asc_sop>
																<asc_sat></asc_sat>
																<lut2></lut2>
															</colorinfo>
															<labels>
																<label2>Iris</label2>
															</labels>
														</clipitem>
														<clipitem id="clipitem-285">
															<masterclipid>masterclip-97</masterclipid>
															<name>(Shmoxd)_How to TILE a TABLE DIY_npywnrxuvrs_YT.mp4</name>
															<enabled>TRUE</enabled>
															<duration>27155</duration>
															<rate>
																<timebase>30</timebase>
																<ntsc>TRUE</ntsc>
															</rate>
															<start>787</start>
															<end>1147</end>
															<in>5558</in>
															<out>5918</out>
															<pproTicksIn>47107758297600</pproTicksIn>
															<pproTicksOut>50158998489600</pproTicksOut>
															<alphatype>none</alphatype>
															<file id="file-84"/>
															<logginginfo>
																<description></description>
																<scene></scene>
																<shottake></shottake>
																<lognote>https://www.youtube.com/watch?v=npywnrxuvrs</lognote>
																<good></good>
																<originalvideofilename></originalvideofilename>
																<originalaudiofilename></originalaudiofilename>
															</logginginfo>
															<colorinfo>
																<lut></lut>
																<lut1></lut1>
																<asc_sop></asc_sop>
																<asc_sat></asc_sat>
																<lut2></lut2>
															</colorinfo>
															<labels>
																<label2>Iris</label2>
															</labels>
														</clipitem>
														<clipitem id="clipitem-286">
															<masterclipid>masterclip-97</masterclipid>
															<name>(Shmoxd)_How to TILE a TABLE DIY_npywnrxuvrs_YT.mp4</name>
															<enabled>TRUE</enabled>
															<duration>27155</duration>
															<rate>
																<timebase>30</timebase>
																<ntsc>TRUE</ntsc>
															</rate>
															<start>1147</start>
															<end>1809</end>
															<in>19714</in>
															<out>20376</out>
															<pproTicksIn>167089303180800</pproTicksIn>
															<pproTicksOut>172700194867200</pproTicksOut>
															<alphatype>none</alphatype>
															<file id="file-84"/>
															<logginginfo>
																<description></description>
																<scene></scene>
																<shottake></shottake>
																<lognote>https://www.youtube.com/watch?v=npywnrxuvrs</lognote>
																<good></good>
																<originalvideofilename></originalvideofilename>
																<originalaudiofilename></originalaudiofilename>
															</logginginfo>
															<colorinfo>
																<lut></lut>
																<lut1></lut1>
																<asc_sop></asc_sop>
																<asc_sat></asc_sat>
																<lut2></lut2>
															</colorinfo>
															<labels>
																<label2>Iris</label2>
															</labels>
														</clipitem>
														<clipitem id="clipitem-287">
															<masterclipid>masterclip-97</masterclipid>
															<name>(Shmoxd)_How to TILE a TABLE DIY_npywnrxuvrs_YT.mp4</name>
															<enabled>TRUE</enabled>
															<duration>27155</duration>
															<rate>
																<timebase>30</timebase>
																<ntsc>TRUE</ntsc>
															</rate>
															<start>1809</start>
															<end>2123</end>
															<in>25864</in>
															<out>26178</out>
															<pproTicksIn>219214656460800</pproTicksIn>
															<pproTicksOut>221876015961600</pproTicksOut>
															<alphatype>none</alphatype>
															<file id="file-84"/>
															<logginginfo>
																<description></description>
																<scene></scene>
																<shottake></shottake>
																<lognote>https://www.youtube.com/watch?v=npywnrxuvrs</lognote>
																<good></good>
																<originalvideofilename></originalvideofilename>
																<originalaudiofilename></originalaudiofilename>
															</logginginfo>
															<colorinfo>
																<lut></lut>
																<lut1></lut1>
																<asc_sop></asc_sop>
																<asc_sat></asc_sat>
																<lut2></lut2>
															</colorinfo>
															<labels>
																<label2>Iris</label2>
															</labels>
														</clipitem>
														<clipitem id="clipitem-288">
															<masterclipid>masterclip-97</masterclipid>
															<name>(Shmoxd)_How to TILE a TABLE DIY_npywnrxuvrs_YT.mp4</name>
															<enabled>TRUE</enabled>
															<duration>27155</duration>
															<rate>
																<timebase>30</timebase>
																<ntsc>TRUE</ntsc>
															</rate>
															<start>2123</start>
															<end>2263</end>
															<in>26252</in>
															<out>26392</out>
															<pproTicksIn>222503215334400</pproTicksIn>
															<pproTicksOut>223689808742400</pproTicksOut>
															<alphatype>none</alphatype>
															<file id="file-84"/>
															<logginginfo>
																<description></description>
																<scene></scene>
																<shottake></shottake>
																<lognote>https://www.youtube.com/watch?v=npywnrxuvrs</lognote>
																<good></good>
																<originalvideofilename></originalvideofilename>
																<originalaudiofilename></originalaudiofilename>
															</logginginfo>
															<colorinfo>
																<lut></lut>
																<lut1></lut1>
																<asc_sop></asc_sop>
																<asc_sat></asc_sat>
																<lut2></lut2>
															</colorinfo>
															<labels>
																<label2>Iris</label2>
															</labels>
														</clipitem>
														<enabled>TRUE</enabled>
														<locked>FALSE</locked>
													</track>
													<track TL.SQTrackShy="0" TL.SQTrackExpandedHeight="25" TL.SQTrackExpanded="0" MZ.TrackTargeted="0">
														<clipitem id="clipitem-289">
															<masterclipid>masterclip-98</masterclipid>
															<name>SHMOXD</name>
															<enabled>TRUE</enabled>
															<duration>5844</duration>
															<rate>
																<timebase>30</timebase>
																<ntsc>TRUE</ntsc>
															</rate>
															<start>0</start>
															<end>2263</end>
															<in>0</in>
															<out>2263</out>
															<pproTicksIn>0</pproTicksIn>
															<pproTicksOut>19180434873600</pproTicksOut>
															<alphatype>straight</alphatype>
															<pixelaspectratio>square</pixelaspectratio>
															<anamorphic>FALSE</anamorphic>
															<file id="file-85">
																<name>1080/AE Attribution.aep</name>
																<pathurl>file://localhost/Volumes/ATM%20JR%202TB/Crafty/Master%20Assets%20/Attribution/AE%20Attribution.aep</pathurl>
																<rate>
																	<timebase>30</timebase>
																	<ntsc>TRUE</ntsc>
																</rate>
																<duration>5844</duration>
																<timecode>
																	<rate>
																		<timebase>30</timebase>
																		<ntsc>TRUE</ntsc>
																	</rate>
																	<string>00;00;00;00</string>
																	<frame>0</frame>
																	<displayformat>DF</displayformat>
																</timecode>
																<media>
																	<video>
																		<samplecharacteristics>
																			<rate>
																				<timebase>30</timebase>
																				<ntsc>TRUE</ntsc>
																			</rate>
																			<width>1920</width>
																			<height>1080</height>
																			<anamorphic>FALSE</anamorphic>
																			<pixelaspectratio>square</pixelaspectratio>
																			<fielddominance>lower</fielddominance>
																		</samplecharacteristics>
																	</video>
																</media>
															</file>
															<logginginfo>
																<description></description>
																<scene></scene>
																<shottake></shottake>
																<lognote></lognote>
																<good></good>
																<originalvideofilename></originalvideofilename>
																<originalaudiofilename></originalaudiofilename>
															</logginginfo>
															<colorinfo>
																<lut></lut>
																<lut1></lut1>
																<asc_sop></asc_sop>
																<asc_sat></asc_sat>
																<lut2></lut2>
															</colorinfo>
															<labels>
																<label2>Rose</label2>
															</labels>
														</clipitem>
														<enabled>TRUE</enabled>
														<locked>FALSE</locked>
													</track>
												</video>
												<audio>
													<numOutputChannels>2</numOutputChannels>
													<format>
														<samplecharacteristics>
															<depth>16</depth>
															<samplerate>48000</samplerate>
														</samplecharacteristics>
													</format>
													<outputs>
														<group>
															<index>1</index>
															<numchannels>1</numchannels>
															<downmix>0</downmix>
															<channel>
																<index>1</index>
															</channel>
														</group>
														<group>
															<index>2</index>
															<numchannels>1</numchannels>
															<downmix>0</downmix>
															<channel>
																<index>2</index>
															</channel>
														</group>
													</outputs>
													<track TL.SQTrackAudioKeyframeStyle="0" TL.SQTrackShy="0" TL.SQTrackExpandedHeight="25" TL.SQTrackExpanded="0" MZ.TrackTargeted="1" PannerCurrentValue="0.5" PannerIsInverted="true" PannerStartKeyframe="-91445760000000000,0.5,0,0,0,0,0,0" PannerName="Balance" currentExplodedTrackIndex="0" totalExplodedTrackCount="2" premiereTrackType="Stereo">
														<clipitem id="clipitem-290" premiereChannelType="stereo">
															<masterclipid>masterclip-99</masterclipid>
															<name>ES_Depths - Guustavv.wav</name>
															<enabled>TRUE</enabled>
															<duration>4146</duration>
															<rate>
																<timebase>30</timebase>
																<ntsc>TRUE</ntsc>
															</rate>
															<start>0</start>
															<end>-1</end>
															<in>0</in>
															<out>2263</out>
															<pproTicksIn>0</pproTicksIn>
															<pproTicksOut>19180434873600</pproTicksOut>
															<file id="file-86">
																<name>ES_Depths - Guustavv.wav</name>
																<pathurl>file://localhost/Volumes/ATM%20JR%202TB/Crafty/2023/06_June/Crafty_6-19-23/5_Music/ES_Depths%20-%20Guustavv.wav</pathurl>
																<rate>
																	<timebase>30</timebase>
																	<ntsc>TRUE</ntsc>
																</rate>
																<duration>4146</duration>
																<timecode>
																	<rate>
																		<timebase>30</timebase>
																		<ntsc>TRUE</ntsc>
																	</rate>
																	<string>00;00;00;00</string>
																	<frame>0</frame>
																	<displayformat>DF</displayformat>
																</timecode>
																<media>
																	<audio>
																		<samplecharacteristics>
																			<depth>16</depth>
																			<samplerate>48000</samplerate>
																		</samplecharacteristics>
																		<channelcount>2</channelcount>
																	</audio>
																</media>
															</file>
															<sourcetrack>
																<mediatype>audio</mediatype>
																<trackindex>1</trackindex>
															</sourcetrack>
															<filter>
																<effect>
																	<name>Gain</name>
																	<effectid>{61756678, 4761696e, 4b657947}</effectid>
																	<effecttype>filter</effecttype>
																	<mediatype>audio</mediatype>
																	<parameter authoringApp="PremierePro">
																		<parameterid>Gain(dB)</parameterid>
																		<name>Gain(dB)</name>
																		<valuemin>-96</valuemin>
																		<valuemax>96</valuemax>
																		<value>-8</value>
																	</parameter>
																</effect>
															</filter>
															<link>
																<linkclipref>clipitem-290</linkclipref>
																<mediatype>audio</mediatype>
																<trackindex>1</trackindex>
																<clipindex>1</clipindex>
																<groupindex>1</groupindex>
															</link>
															<link>
																<linkclipref>clipitem-291</linkclipref>
																<mediatype>audio</mediatype>
																<trackindex>2</trackindex>
																<clipindex>1</clipindex>
																<groupindex>1</groupindex>
															</link>
															<logginginfo>
																<description></description>
																<scene></scene>
																<shottake></shottake>
																<lognote></lognote>
																<good></good>
																<originalvideofilename></originalvideofilename>
																<originalaudiofilename></originalaudiofilename>
															</logginginfo>
															<colorinfo>
																<lut></lut>
																<lut1></lut1>
																<asc_sop></asc_sop>
																<asc_sat></asc_sat>
																<lut2></lut2>
															</colorinfo>
															<labels>
																<label2>Caribbean</label2>
															</labels>
														</clipitem>
														<transitionitem>
															<start>2119</start>
															<end>2263</end>
															<pproTicksIn>17959938796800</pproTicksIn>
															<pproTicksOut>19180434873600</pproTicksOut>
															<alignment>end-black</alignment>
															<cutPointTicks>1220496076800</cutPointTicks>
															<rate>
																<timebase>30</timebase>
																<ntsc>TRUE</ntsc>
															</rate>
															<effect>
																<name>Cross Fade (+3dB)</name>
																<effectid>KGAudioTransCrossFade3dB</effectid>
																<effecttype>transition</effecttype>
																<mediatype>audio</mediatype>
																<wipecode>0</wipecode>
																<wipeaccuracy>100</wipeaccuracy>
																<startratio>0</startratio>
																<endratio>1</endratio>
																<reverse>FALSE</reverse>
															</effect>
														</transitionitem>
														<enabled>TRUE</enabled>
														<locked>FALSE</locked>
														<outputchannelindex>1</outputchannelindex>
													</track>
													<track TL.SQTrackAudioKeyframeStyle="0" TL.SQTrackShy="0" TL.SQTrackExpandedHeight="25" TL.SQTrackExpanded="0" MZ.TrackTargeted="1" PannerCurrentValue="0.5" PannerIsInverted="true" PannerStartKeyframe="-91445760000000000,0.5,0,0,0,0,0,0" PannerName="Balance" currentExplodedTrackIndex="1" totalExplodedTrackCount="2" premiereTrackType="Stereo">
														<clipitem id="clipitem-291" premiereChannelType="stereo">
															<masterclipid>masterclip-99</masterclipid>
															<name>ES_Depths - Guustavv.wav</name>
															<enabled>TRUE</enabled>
															<duration>4146</duration>
															<rate>
																<timebase>30</timebase>
																<ntsc>TRUE</ntsc>
															</rate>
															<start>0</start>
															<end>-1</end>
															<in>0</in>
															<out>2263</out>
															<pproTicksIn>0</pproTicksIn>
															<pproTicksOut>19180434873600</pproTicksOut>
															<file id="file-86"/>
															<sourcetrack>
																<mediatype>audio</mediatype>
																<trackindex>2</trackindex>
															</sourcetrack>
															<filter>
																<effect>
																	<name>Gain</name>
																	<effectid>{61756678, 4761696e, 4b657947}</effectid>
																	<effecttype>filter</effecttype>
																	<mediatype>audio</mediatype>
																	<parameter authoringApp="PremierePro">
																		<parameterid>Gain(dB)</parameterid>
																		<name>Gain(dB)</name>
																		<valuemin>-96</valuemin>
																		<valuemax>96</valuemax>
																		<value>-8</value>
																	</parameter>
																</effect>
															</filter>
															<link>
																<linkclipref>clipitem-290</linkclipref>
																<mediatype>audio</mediatype>
																<trackindex>1</trackindex>
																<clipindex>1</clipindex>
																<groupindex>1</groupindex>
															</link>
															<link>
																<linkclipref>clipitem-291</linkclipref>
																<mediatype>audio</mediatype>
																<trackindex>2</trackindex>
																<clipindex>1</clipindex>
																<groupindex>1</groupindex>
															</link>
															<logginginfo>
																<description></description>
																<scene></scene>
																<shottake></shottake>
																<lognote></lognote>
																<good></good>
																<originalvideofilename></originalvideofilename>
																<originalaudiofilename></originalaudiofilename>
															</logginginfo>
															<colorinfo>
																<lut></lut>
																<lut1></lut1>
																<asc_sop></asc_sop>
																<asc_sat></asc_sat>
																<lut2></lut2>
															</colorinfo>
															<labels>
																<label2>Caribbean</label2>
															</labels>
														</clipitem>
														<transitionitem>
															<start>2119</start>
															<end>2263</end>
															<pproTicksIn>17959938796800</pproTicksIn>
															<pproTicksOut>19180434873600</pproTicksOut>
															<alignment>end-black</alignment>
															<cutPointTicks>1220496076800</cutPointTicks>
															<rate>
																<timebase>30</timebase>
																<ntsc>TRUE</ntsc>
															</rate>
															<effect>
																<name>Cross Fade (+3dB)</name>
																<effectid>KGAudioTransCrossFade3dB</effectid>
																<effecttype>transition</effecttype>
																<mediatype>audio</mediatype>
																<wipecode>0</wipecode>
																<wipeaccuracy>100</wipeaccuracy>
																<startratio>0</startratio>
																<endratio>1</endratio>
																<reverse>FALSE</reverse>
															</effect>
														</transitionitem>
														<enabled>TRUE</enabled>
														<locked>FALSE</locked>
														<outputchannelindex>2</outputchannelindex>
													</track>
												</audio>
											</media>
											<timecode>
												<rate>
													<timebase>30</timebase>
													<ntsc>TRUE</ntsc>
												</rate>
												<string>00;00;00;00</string>
												<frame>0</frame>
												<displayformat>DF</displayformat>
											</timecode>
											<logginginfo>
												<description></description>
												<scene></scene>
												<shottake></shottake>
												<lognote></lognote>
												<good></good>
												<originalvideofilename></originalvideofilename>
												<originalaudiofilename></originalaudiofilename>
											</logginginfo>
										</sequence>
										<link>
											<linkclipref>clipitem-281</linkclipref>
											<mediatype>video</mediatype>
											<trackindex>1</trackindex>
											<clipindex>2</clipindex>
										</link>
										<link>
											<linkclipref>clipitem-298</linkclipref>
											<mediatype>audio</mediatype>
											<trackindex>1</trackindex>
											<clipindex>2</clipindex>
											<groupindex>1</groupindex>
										</link>
										<link>
											<linkclipref>clipitem-300</linkclipref>
											<mediatype>audio</mediatype>
											<trackindex>2</trackindex>
											<clipindex>2</clipindex>
											<groupindex>1</groupindex>
										</link>
										<labels>
											<label2>Forest</label2>
										</labels>
									</clipitem>
									<enabled>TRUE</enabled>
									<locked>FALSE</locked>
								</track>
								<track TL.SQTrackShy="0" TL.SQTrackExpandedHeight="25" TL.SQTrackExpanded="0" MZ.TrackTargeted="0">
									<clipitem id="clipitem-292">
										<masterclipid>masterclip-100</masterclipid>
										<name>PETAL TO THE METAL</name>
										<enabled>TRUE</enabled>
										<duration>5695</duration>
										<rate>
											<timebase>30</timebase>
											<ntsc>TRUE</ntsc>
										</rate>
										<start>0</start>
										<end>3078</end>
										<in>0</in>
										<out>3078</out>
										<pproTicksIn>0</pproTicksIn>
										<pproTicksOut>26088103641600</pproTicksOut>
										<alphatype>straight</alphatype>
										<pixelaspectratio>square</pixelaspectratio>
										<anamorphic>FALSE</anamorphic>
										<file id="file-87">
											<name>CRAFTY_L3RD_01_JL_V03/CRAFTY_L3RD_01_JL_V03.aep</name>
											<pathurl>file://localhost/Volumes/ATM%20JR%202TB/Crafty/Master%20Assets%20/Lower%20Thirds/CRAFTY_L3RD_01_JL_V03.aep</pathurl>
											<rate>
												<timebase>30</timebase>
												<ntsc>FALSE</ntsc>
											</rate>
											<duration>5701</duration>
											<timecode>
												<rate>
													<timebase>30</timebase>
													<ntsc>FALSE</ntsc>
												</rate>
												<string>00:00:00:00</string>
												<frame>0</frame>
												<displayformat>NDF</displayformat>
											</timecode>
											<media>
												<video>
													<samplecharacteristics>
														<rate>
															<timebase>30</timebase>
															<ntsc>FALSE</ntsc>
														</rate>
														<width>1920</width>
														<height>1080</height>
														<anamorphic>FALSE</anamorphic>
														<pixelaspectratio>square</pixelaspectratio>
														<fielddominance>lower</fielddominance>
													</samplecharacteristics>
												</video>
											</media>
										</file>
										<logginginfo>
											<description></description>
											<scene></scene>
											<shottake></shottake>
											<lognote></lognote>
											<good></good>
											<originalvideofilename></originalvideofilename>
											<originalaudiofilename></originalaudiofilename>
										</logginginfo>
										<colorinfo>
											<lut></lut>
											<lut1></lut1>
											<asc_sop></asc_sop>
											<asc_sat></asc_sat>
											<lut2></lut2>
										</colorinfo>
										<labels>
											<label2>Rose</label2>
										</labels>
									</clipitem>
									<clipitem id="clipitem-293">
										<masterclipid>masterclip-101</masterclipid>
										<name>HOW TO TILE A TABLE</name>
										<enabled>TRUE</enabled>
										<duration>5695</duration>
										<rate>
											<timebase>30</timebase>
											<ntsc>TRUE</ntsc>
										</rate>
										<start>3157</start>
										<end>5403</end>
										<in>0</in>
										<out>2246</out>
										<pproTicksIn>0</pproTicksIn>
										<pproTicksOut>19036348531200</pproTicksOut>
										<alphatype>straight</alphatype>
										<pixelaspectratio>square</pixelaspectratio>
										<anamorphic>FALSE</anamorphic>
										<file id="file-88">
											<name>CRAFTY_L3RD_01_JL_V03/CRAFTY_L3RD_01_JL_V03.aep</name>
											<pathurl>file://localhost/Volumes/ATM%20JR%202TB/Crafty/Master%20Assets%20/Lower%20Thirds/CRAFTY_L3RD_01_JL_V03.aep</pathurl>
											<rate>
												<timebase>30</timebase>
												<ntsc>FALSE</ntsc>
											</rate>
											<duration>5701</duration>
											<timecode>
												<rate>
													<timebase>30</timebase>
													<ntsc>FALSE</ntsc>
												</rate>
												<string>00:00:00:00</string>
												<frame>0</frame>
												<displayformat>NDF</displayformat>
											</timecode>
											<media>
												<video>
													<samplecharacteristics>
														<rate>
															<timebase>30</timebase>
															<ntsc>FALSE</ntsc>
														</rate>
														<width>1920</width>
														<height>1080</height>
														<anamorphic>FALSE</anamorphic>
														<pixelaspectratio>square</pixelaspectratio>
														<fielddominance>lower</fielddominance>
													</samplecharacteristics>
												</video>
											</media>
										</file>
										<logginginfo>
											<description></description>
											<scene></scene>
											<shottake></shottake>
											<lognote></lognote>
											<good></good>
											<originalvideofilename></originalvideofilename>
											<originalaudiofilename></originalaudiofilename>
										</logginginfo>
										<colorinfo>
											<lut></lut>
											<lut1></lut1>
											<asc_sop></asc_sop>
											<asc_sat></asc_sat>
											<lut2></lut2>
										</colorinfo>
										<labels>
											<label2>Rose</label2>
										</labels>
									</clipitem>
									<enabled>TRUE</enabled>
									<locked>FALSE</locked>
								</track>
								<track TL.SQTrackShy="0" TL.SQTrackExpandedHeight="25" TL.SQTrackExpanded="0" MZ.TrackTargeted="0">
									<clipitem id="clipitem-294">
										<masterclipid>masterclip-102</masterclipid>
										<name>ATM_logo_channels_right-2 (3).png</name>
										<enabled>TRUE</enabled>
										<duration>1294705</duration>
										<rate>
											<timebase>30</timebase>
											<ntsc>TRUE</ntsc>
										</rate>
										<start>0</start>
										<end>5403</end>
										<in>107892</in>
										<out>113295</out>
										<pproTicksIn>914456685542400</pproTicksIn>
										<pproTicksOut>960250715424000</pproTicksOut>
										<alphatype>straight</alphatype>
										<pixelaspectratio>square</pixelaspectratio>
										<anamorphic>FALSE</anamorphic>
										<file id="file-89">
											<name>ATM_logo_channels_right-2 (3).png</name>
											<pathurl>file://localhost/Volumes/ATM%20JR%202TB/Crafty/2023/06_June/Crafty_6-19-23/5_Music/../../../../Master%20Assets%20/Transitions/ATM_logo_channels_right-2%20(3).png</pathurl>
											<rate>
												<timebase>30</timebase>
												<ntsc>TRUE</ntsc>
											</rate>
											<timecode>
												<rate>
													<timebase>30</timebase>
													<ntsc>TRUE</ntsc>
												</rate>
												<string>00:00:00:00</string>
												<frame>0</frame>
												<displayformat>NDF</displayformat>
											</timecode>
											<media>
												<video>
													<samplecharacteristics>
														<rate>
															<timebase>30</timebase>
															<ntsc>TRUE</ntsc>
														</rate>
														<width>1920</width>
														<height>1080</height>
														<anamorphic>FALSE</anamorphic>
														<pixelaspectratio>square</pixelaspectratio>
														<fielddominance>none</fielddominance>
													</samplecharacteristics>
												</video>
											</media>
										</file>
										<logginginfo>
											<description></description>
											<scene></scene>
											<shottake></shottake>
											<lognote></lognote>
											<good></good>
											<originalvideofilename></originalvideofilename>
											<originalaudiofilename></originalaudiofilename>
										</logginginfo>
										<colorinfo>
											<lut></lut>
											<lut1></lut1>
											<asc_sop></asc_sop>
											<asc_sat></asc_sat>
											<lut2></lut2>
										</colorinfo>
										<labels>
											<label2>Lavender</label2>
										</labels>
									</clipitem>
									<enabled>TRUE</enabled>
									<locked>FALSE</locked>
								</track>
								<track TL.SQTrackShy="0" TL.SQTrackExpandedHeight="25" TL.SQTrackExpanded="0" MZ.TrackTargeted="0">
									<clipitem id="clipitem-295">
										<masterclipid>masterclip-103</masterclipid>
										<name>CRAFTY_TRAN02_JL_V01.mov</name>
										<enabled>TRUE</enabled>
										<duration>120</duration>
										<rate>
											<timebase>30</timebase>
											<ntsc>TRUE</ntsc>
										</rate>
										<start>3037</start>
										<end>3157</end>
										<in>0</in>
										<out>120</out>
										<pproTicksIn>0</pproTicksIn>
										<pproTicksOut>1017080064000</pproTicksOut>
										<alphatype>none</alphatype>
										<pixelaspectratio>square</pixelaspectratio>
										<anamorphic>FALSE</anamorphic>
										<file id="file-90">
											<name>CRAFTY_TRAN02_JL_V01.mov</name>
											<pathurl>file://localhost/Volumes/ATM%20JR%202TB/Crafty/2023/06_June/Crafty_6-19-23/5_Music/../../../../Master%20Assets%20/Transitions/CRAFTY_TRAN02_JL_V01.mov</pathurl>
											<rate>
												<timebase>30</timebase>
												<ntsc>FALSE</ntsc>
											</rate>
											<duration>121</duration>
											<timecode>
												<rate>
													<timebase>30</timebase>
													<ntsc>FALSE</ntsc>
												</rate>
												<string>00:00:00:00</string>
												<frame>0</frame>
												<displayformat>NDF</displayformat>
											</timecode>
											<media>
												<video>
													<samplecharacteristics>
														<rate>
															<timebase>30</timebase>
															<ntsc>FALSE</ntsc>
														</rate>
														<width>1920</width>
														<height>1080</height>
														<anamorphic>FALSE</anamorphic>
														<pixelaspectratio>square</pixelaspectratio>
														<fielddominance>none</fielddominance>
													</samplecharacteristics>
												</video>
												<audio>
													<samplecharacteristics>
														<depth>16</depth>
														<samplerate>48000</samplerate>
													</samplecharacteristics>
													<channelcount>2</channelcount>
												</audio>
											</media>
										</file>
										<link>
											<linkclipref>clipitem-295</linkclipref>
											<mediatype>video</mediatype>
											<trackindex>4</trackindex>
											<clipindex>1</clipindex>
										</link>
										<link>
											<linkclipref>clipitem-301</linkclipref>
											<mediatype>audio</mediatype>
											<trackindex>3</trackindex>
											<clipindex>1</clipindex>
											<groupindex>1</groupindex>
										</link>
										<link>
											<linkclipref>clipitem-303</linkclipref>
											<mediatype>audio</mediatype>
											<trackindex>4</trackindex>
											<clipindex>1</clipindex>
											<groupindex>1</groupindex>
										</link>
										<logginginfo>
											<description></description>
											<scene></scene>
											<shottake></shottake>
											<lognote></lognote>
											<good></good>
											<originalvideofilename></originalvideofilename>
											<originalaudiofilename></originalaudiofilename>
										</logginginfo>
										<colorinfo>
											<lut></lut>
											<lut1></lut1>
											<asc_sop></asc_sop>
											<asc_sat></asc_sat>
											<lut2></lut2>
										</colorinfo>
										<labels>
											<label2>Iris</label2>
										</labels>
									</clipitem>
									<clipitem id="clipitem-296">
										<masterclipid>masterclip-104</masterclipid>
										<name>CRAFTY_TRAN03_JL_V01.mov</name>
										<enabled>TRUE</enabled>
										<duration>120</duration>
										<rate>
											<timebase>30</timebase>
											<ntsc>TRUE</ntsc>
										</rate>
										<start>5369</start>
										<end>5489</end>
										<in>0</in>
										<out>120</out>
										<pproTicksIn>0</pproTicksIn>
										<pproTicksOut>1017080064000</pproTicksOut>
										<alphatype>none</alphatype>
										<pixelaspectratio>square</pixelaspectratio>
										<anamorphic>FALSE</anamorphic>
										<file id="file-91">
											<name>CRAFTY_TRAN03_JL_V01.mov</name>
											<pathurl>file://localhost/Volumes/ATM%20JR%202TB/Crafty/2023/06_June/Crafty_6-19-23/5_Music/../../../../Master%20Assets%20/Transitions/CRAFTY_TRAN03_JL_V01.mov</pathurl>
											<rate>
												<timebase>30</timebase>
												<ntsc>FALSE</ntsc>
											</rate>
											<duration>121</duration>
											<timecode>
												<rate>
													<timebase>30</timebase>
													<ntsc>FALSE</ntsc>
												</rate>
												<string>00:00:00:00</string>
												<frame>0</frame>
												<displayformat>NDF</displayformat>
											</timecode>
											<media>
												<video>
													<samplecharacteristics>
														<rate>
															<timebase>30</timebase>
															<ntsc>FALSE</ntsc>
														</rate>
														<width>1920</width>
														<height>1080</height>
														<anamorphic>FALSE</anamorphic>
														<pixelaspectratio>square</pixelaspectratio>
														<fielddominance>none</fielddominance>
													</samplecharacteristics>
												</video>
												<audio>
													<samplecharacteristics>
														<depth>16</depth>
														<samplerate>48000</samplerate>
													</samplecharacteristics>
													<channelcount>2</channelcount>
												</audio>
											</media>
										</file>
										<link>
											<linkclipref>clipitem-296</linkclipref>
											<mediatype>video</mediatype>
											<trackindex>4</trackindex>
											<clipindex>2</clipindex>
										</link>
										<link>
											<linkclipref>clipitem-302</linkclipref>
											<mediatype>audio</mediatype>
											<trackindex>3</trackindex>
											<clipindex>3</clipindex>
											<groupindex>1</groupindex>
										</link>
										<link>
											<linkclipref>clipitem-304</linkclipref>
											<mediatype>audio</mediatype>
											<trackindex>4</trackindex>
											<clipindex>3</clipindex>
											<groupindex>1</groupindex>
										</link>
										<logginginfo>
											<description></description>
											<scene></scene>
											<shottake></shottake>
											<lognote></lognote>
											<good></good>
											<originalvideofilename></originalvideofilename>
											<originalaudiofilename></originalaudiofilename>
										</logginginfo>
										<colorinfo>
											<lut></lut>
											<lut1></lut1>
											<asc_sop></asc_sop>
											<asc_sat></asc_sat>
											<lut2></lut2>
										</colorinfo>
										<labels>
											<label2>Iris</label2>
										</labels>
									</clipitem>
									<enabled>TRUE</enabled>
									<locked>FALSE</locked>
								</track>
							</video>
							<audio>
								<numOutputChannels>2</numOutputChannels>
								<format>
									<samplecharacteristics>
										<depth>16</depth>
										<samplerate>48000</samplerate>
									</samplecharacteristics>
								</format>
								<outputs>
									<group>
										<index>1</index>
										<numchannels>1</numchannels>
										<downmix>0</downmix>
										<channel>
											<index>1</index>
										</channel>
									</group>
									<group>
										<index>2</index>
										<numchannels>1</numchannels>
										<downmix>0</downmix>
										<channel>
											<index>2</index>
										</channel>
									</group>
								</outputs>
								<track TL.SQTrackAudioKeyframeStyle="0" TL.SQTrackShy="0" TL.SQTrackExpandedHeight="93" TL.SQTrackExpanded="0" MZ.TrackTargeted="1" PannerCurrentValue="0.5" PannerIsInverted="true" PannerStartKeyframe="-91445760000000000,0.5,0,0,0,0,0,0" PannerName="Balance" currentExplodedTrackIndex="0" totalExplodedTrackCount="2" premiereTrackType="Stereo">
									<clipitem id="clipitem-297" premiereChannelType="stereo">
										<masterclipid>masterclip-89</masterclipid>
										<name>DIY_PETALTOTHEMETAL_2</name>
										<enabled>TRUE</enabled>
										<duration>3347</duration>
										<rate>
											<timebase>30</timebase>
											<ntsc>TRUE</ntsc>
										</rate>
										<start>0</start>
										<end>3078</end>
										<in>0</in>
										<out>3078</out>
										<pproTicksIn>0</pproTicksIn>
										<pproTicksOut>26088103641600</pproTicksOut>
										<sequence id="sequence-18"/>
										<sourcetrack>
											<mediatype>audio</mediatype>
											<trackindex>0</trackindex>
										</sourcetrack>
										<link>
											<linkclipref>clipitem-261</linkclipref>
											<mediatype>video</mediatype>
											<trackindex>1</trackindex>
											<clipindex>1</clipindex>
										</link>
										<link>
											<linkclipref>clipitem-297</linkclipref>
											<mediatype>audio</mediatype>
											<trackindex>1</trackindex>
											<clipindex>1</clipindex>
											<groupindex>1</groupindex>
										</link>
										<link>
											<linkclipref>clipitem-299</linkclipref>
											<mediatype>audio</mediatype>
											<trackindex>2</trackindex>
											<clipindex>1</clipindex>
											<groupindex>1</groupindex>
										</link>
										<labels>
											<label2>Forest</label2>
										</labels>
									</clipitem>
									<clipitem id="clipitem-298" premiereChannelType="stereo">
										<masterclipid>masterclip-96</masterclipid>
										<name>DIY_HOWTOTILEATABLE_1</name>
										<enabled>TRUE</enabled>
										<duration>2284</duration>
										<rate>
											<timebase>30</timebase>
											<ntsc>TRUE</ntsc>
										</rate>
										<start>3138</start>
										<end>5401</end>
										<in>0</in>
										<out>2263</out>
										<pproTicksIn>0</pproTicksIn>
										<pproTicksOut>19180434873600</pproTicksOut>
										<sequence id="sequence-19"/>
										<sourcetrack>
											<mediatype>audio</mediatype>
											<trackindex>0</trackindex>
										</sourcetrack>
										<link>
											<linkclipref>clipitem-281</linkclipref>
											<mediatype>video</mediatype>
											<trackindex>1</trackindex>
											<clipindex>2</clipindex>
										</link>
										<link>
											<linkclipref>clipitem-298</linkclipref>
											<mediatype>audio</mediatype>
											<trackindex>1</trackindex>
											<clipindex>2</clipindex>
											<groupindex>1</groupindex>
										</link>
										<link>
											<linkclipref>clipitem-300</linkclipref>
											<mediatype>audio</mediatype>
											<trackindex>2</trackindex>
											<clipindex>2</clipindex>
											<groupindex>1</groupindex>
										</link>
										<labels>
											<label2>Forest</label2>
										</labels>
									</clipitem>
									<enabled>TRUE</enabled>
									<locked>FALSE</locked>
									<outputchannelindex>1</outputchannelindex>
								</track>
								<track TL.SQTrackAudioKeyframeStyle="0" TL.SQTrackShy="0" TL.SQTrackExpandedHeight="93" TL.SQTrackExpanded="0" MZ.TrackTargeted="1" PannerCurrentValue="0.5" PannerIsInverted="true" PannerStartKeyframe="-91445760000000000,0.5,0,0,0,0,0,0" PannerName="Balance" currentExplodedTrackIndex="1" totalExplodedTrackCount="2" premiereTrackType="Stereo">
									<clipitem id="clipitem-299" premiereChannelType="stereo">
										<masterclipid>masterclip-89</masterclipid>
										<name>DIY_PETALTOTHEMETAL_2</name>
										<enabled>TRUE</enabled>
										<duration>3347</duration>
										<rate>
											<timebase>30</timebase>
											<ntsc>TRUE</ntsc>
										</rate>
										<start>0</start>
										<end>3078</end>
										<in>0</in>
										<out>3078</out>
										<pproTicksIn>0</pproTicksIn>
										<pproTicksOut>26088103641600</pproTicksOut>
										<sequence id="sequence-18"/>
										<sourcetrack>
											<mediatype>audio</mediatype>
											<trackindex>1</trackindex>
										</sourcetrack>
										<link>
											<linkclipref>clipitem-261</linkclipref>
											<mediatype>video</mediatype>
											<trackindex>1</trackindex>
											<clipindex>1</clipindex>
										</link>
										<link>
											<linkclipref>clipitem-297</linkclipref>
											<mediatype>audio</mediatype>
											<trackindex>1</trackindex>
											<clipindex>1</clipindex>
											<groupindex>1</groupindex>
										</link>
										<link>
											<linkclipref>clipitem-299</linkclipref>
											<mediatype>audio</mediatype>
											<trackindex>2</trackindex>
											<clipindex>1</clipindex>
											<groupindex>1</groupindex>
										</link>
										<labels>
											<label2>Forest</label2>
										</labels>
									</clipitem>
									<clipitem id="clipitem-300" premiereChannelType="stereo">
										<masterclipid>masterclip-96</masterclipid>
										<name>DIY_HOWTOTILEATABLE_1</name>
										<enabled>TRUE</enabled>
										<duration>2284</duration>
										<rate>
											<timebase>30</timebase>
											<ntsc>TRUE</ntsc>
										</rate>
										<start>3138</start>
										<end>5401</end>
										<in>0</in>
										<out>2263</out>
										<pproTicksIn>0</pproTicksIn>
										<pproTicksOut>19180434873600</pproTicksOut>
										<sequence id="sequence-19"/>
										<sourcetrack>
											<mediatype>audio</mediatype>
											<trackindex>1</trackindex>
										</sourcetrack>
										<link>
											<linkclipref>clipitem-281</linkclipref>
											<mediatype>video</mediatype>
											<trackindex>1</trackindex>
											<clipindex>2</clipindex>
										</link>
										<link>
											<linkclipref>clipitem-298</linkclipref>
											<mediatype>audio</mediatype>
											<trackindex>1</trackindex>
											<clipindex>2</clipindex>
											<groupindex>1</groupindex>
										</link>
										<link>
											<linkclipref>clipitem-300</linkclipref>
											<mediatype>audio</mediatype>
											<trackindex>2</trackindex>
											<clipindex>2</clipindex>
											<groupindex>1</groupindex>
										</link>
										<labels>
											<label2>Forest</label2>
										</labels>
									</clipitem>
									<enabled>TRUE</enabled>
									<locked>FALSE</locked>
									<outputchannelindex>2</outputchannelindex>
								</track>
								<track TL.SQTrackAudioKeyframeStyle="0" TL.SQTrackShy="0" TL.SQTrackExpandedHeight="93" TL.SQTrackExpanded="0" MZ.TrackTargeted="1" PannerCurrentValue="0.5" PannerIsInverted="true" PannerStartKeyframe="-91445760000000000,0.5,0,0,0,0,0,0" PannerName="Balance" currentExplodedTrackIndex="0" totalExplodedTrackCount="2" premiereTrackType="Stereo">
									<clipitem id="clipitem-301" premiereChannelType="stereo">
										<masterclipid>masterclip-103</masterclipid>
										<name>CRAFTY_TRAN02_JL_V01.mov</name>
										<enabled>TRUE</enabled>
										<duration>120</duration>
										<rate>
											<timebase>30</timebase>
											<ntsc>TRUE</ntsc>
										</rate>
										<start>3037</start>
										<end>-1</end>
										<in>0</in>
										<out>120</out>
										<pproTicksIn>0</pproTicksIn>
										<pproTicksOut>1017080064000</pproTicksOut>
										<file id="file-90"/>
										<sourcetrack>
											<mediatype>audio</mediatype>
											<trackindex>1</trackindex>
										</sourcetrack>
										<link>
											<linkclipref>clipitem-295</linkclipref>
											<mediatype>video</mediatype>
											<trackindex>4</trackindex>
											<clipindex>1</clipindex>
										</link>
										<link>
											<linkclipref>clipitem-301</linkclipref>
											<mediatype>audio</mediatype>
											<trackindex>3</trackindex>
											<clipindex>1</clipindex>
											<groupindex>1</groupindex>
										</link>
										<link>
											<linkclipref>clipitem-303</linkclipref>
											<mediatype>audio</mediatype>
											<trackindex>4</trackindex>
											<clipindex>1</clipindex>
											<groupindex>1</groupindex>
										</link>
										<logginginfo>
											<description></description>
											<scene></scene>
											<shottake></shottake>
											<lognote></lognote>
											<good></good>
											<originalvideofilename></originalvideofilename>
											<originalaudiofilename></originalaudiofilename>
										</logginginfo>
										<colorinfo>
											<lut></lut>
											<lut1></lut1>
											<asc_sop></asc_sop>
											<asc_sat></asc_sat>
											<lut2></lut2>
										</colorinfo>
										<labels>
											<label2>Iris</label2>
										</labels>
									</clipitem>
									<transitionitem>
										<start>3152</start>
										<end>3157</end>
										<pproTicksIn>26715301956000</pproTicksIn>
										<pproTicksOut>26757681350400</pproTicksOut>
										<alignment>end-black</alignment>
										<cutPointTicks>42379394400</cutPointTicks>
										<rate>
											<timebase>30</timebase>
											<ntsc>TRUE</ntsc>
										</rate>
										<effect>
											<name>Cross Fade ( 0dB)</name>
											<effectid>KGAudioTransCrossFade0dB</effectid>
											<effecttype>transition</effecttype>
											<mediatype>audio</mediatype>
											<wipecode>0</wipecode>
											<wipeaccuracy>100</wipeaccuracy>
											<startratio>0</startratio>
											<endratio>1</endratio>
											<reverse>FALSE</reverse>
										</effect>
									</transitionitem>
									<clipitem id="clipitem-302" premiereChannelType="stereo">
										<masterclipid>masterclip-104</masterclipid>
										<name>CRAFTY_TRAN03_JL_V01.mov</name>
										<enabled>TRUE</enabled>
										<duration>120</duration>
										<rate>
											<timebase>30</timebase>
											<ntsc>TRUE</ntsc>
										</rate>
										<start>5369</start>
										<end>-1</end>
										<in>0</in>
										<out>120</out>
										<pproTicksIn>0</pproTicksIn>
										<pproTicksOut>1017080064000</pproTicksOut>
										<file id="file-91"/>
										<sourcetrack>
											<mediatype>audio</mediatype>
											<trackindex>1</trackindex>
										</sourcetrack>
										<link>
											<linkclipref>clipitem-296</linkclipref>
											<mediatype>video</mediatype>
											<trackindex>4</trackindex>
											<clipindex>2</clipindex>
										</link>
										<link>
											<linkclipref>clipitem-302</linkclipref>
											<mediatype>audio</mediatype>
											<trackindex>3</trackindex>
											<clipindex>3</clipindex>
											<groupindex>1</groupindex>
										</link>
										<link>
											<linkclipref>clipitem-304</linkclipref>
											<mediatype>audio</mediatype>
											<trackindex>4</trackindex>
											<clipindex>3</clipindex>
											<groupindex>1</groupindex>
										</link>
										<logginginfo>
											<description></description>
											<scene></scene>
											<shottake></shottake>
											<lognote></lognote>
											<good></good>
											<originalvideofilename></originalvideofilename>
											<originalaudiofilename></originalaudiofilename>
										</logginginfo>
										<colorinfo>
											<lut></lut>
											<lut1></lut1>
											<asc_sop></asc_sop>
											<asc_sat></asc_sat>
											<lut2></lut2>
										</colorinfo>
										<labels>
											<label2>Iris</label2>
										</labels>
									</clipitem>
									<transitionitem>
										<start>5484</start>
										<end>5489</end>
										<pproTicksIn>46480558924800</pproTicksIn>
										<pproTicksOut>46522937260800</pproTicksOut>
										<alignment>end-black</alignment>
										<cutPointTicks>42378336000</cutPointTicks>
										<rate>
											<timebase>30</timebase>
											<ntsc>TRUE</ntsc>
										</rate>
										<effect>
											<name>Cross Fade ( 0dB)</name>
											<effectid>KGAudioTransCrossFade0dB</effectid>
											<effecttype>transition</effecttype>
											<mediatype>audio</mediatype>
											<wipecode>0</wipecode>
											<wipeaccuracy>100</wipeaccuracy>
											<startratio>0</startratio>
											<endratio>1</endratio>
											<reverse>FALSE</reverse>
										</effect>
									</transitionitem>
									<enabled>TRUE</enabled>
									<locked>FALSE</locked>
									<outputchannelindex>1</outputchannelindex>
								</track>
								<track TL.SQTrackAudioKeyframeStyle="0" TL.SQTrackShy="0" TL.SQTrackExpandedHeight="93" TL.SQTrackExpanded="0" MZ.TrackTargeted="1" PannerCurrentValue="0.5" PannerIsInverted="true" PannerStartKeyframe="-91445760000000000,0.5,0,0,0,0,0,0" PannerName="Balance" currentExplodedTrackIndex="1" totalExplodedTrackCount="2" premiereTrackType="Stereo">
									<clipitem id="clipitem-303" premiereChannelType="stereo">
										<masterclipid>masterclip-103</masterclipid>
										<name>CRAFTY_TRAN02_JL_V01.mov</name>
										<enabled>TRUE</enabled>
										<duration>120</duration>
										<rate>
											<timebase>30</timebase>
											<ntsc>TRUE</ntsc>
										</rate>
										<start>3037</start>
										<end>-1</end>
										<in>0</in>
										<out>120</out>
										<pproTicksIn>0</pproTicksIn>
										<pproTicksOut>1017080064000</pproTicksOut>
										<file id="file-90"/>
										<sourcetrack>
											<mediatype>audio</mediatype>
											<trackindex>2</trackindex>
										</sourcetrack>
										<link>
											<linkclipref>clipitem-295</linkclipref>
											<mediatype>video</mediatype>
											<trackindex>4</trackindex>
											<clipindex>1</clipindex>
										</link>
										<link>
											<linkclipref>clipitem-301</linkclipref>
											<mediatype>audio</mediatype>
											<trackindex>3</trackindex>
											<clipindex>1</clipindex>
											<groupindex>1</groupindex>
										</link>
										<link>
											<linkclipref>clipitem-303</linkclipref>
											<mediatype>audio</mediatype>
											<trackindex>4</trackindex>
											<clipindex>1</clipindex>
											<groupindex>1</groupindex>
										</link>
										<logginginfo>
											<description></description>
											<scene></scene>
											<shottake></shottake>
											<lognote></lognote>
											<good></good>
											<originalvideofilename></originalvideofilename>
											<originalaudiofilename></originalaudiofilename>
										</logginginfo>
										<colorinfo>
											<lut></lut>
											<lut1></lut1>
											<asc_sop></asc_sop>
											<asc_sat></asc_sat>
											<lut2></lut2>
										</colorinfo>
										<labels>
											<label2>Iris</label2>
										</labels>
									</clipitem>
									<transitionitem>
										<start>3152</start>
										<end>3157</end>
										<pproTicksIn>26715301956000</pproTicksIn>
										<pproTicksOut>26757681350400</pproTicksOut>
										<alignment>end-black</alignment>
										<cutPointTicks>42379394400</cutPointTicks>
										<rate>
											<timebase>30</timebase>
											<ntsc>TRUE</ntsc>
										</rate>
										<effect>
											<name>Cross Fade ( 0dB)</name>
											<effectid>KGAudioTransCrossFade0dB</effectid>
											<effecttype>transition</effecttype>
											<mediatype>audio</mediatype>
											<wipecode>0</wipecode>
											<wipeaccuracy>100</wipeaccuracy>
											<startratio>0</startratio>
											<endratio>1</endratio>
											<reverse>FALSE</reverse>
										</effect>
									</transitionitem>
									<clipitem id="clipitem-304" premiereChannelType="stereo">
										<masterclipid>masterclip-104</masterclipid>
										<name>CRAFTY_TRAN03_JL_V01.mov</name>
										<enabled>TRUE</enabled>
										<duration>120</duration>
										<rate>
											<timebase>30</timebase>
											<ntsc>TRUE</ntsc>
										</rate>
										<start>5369</start>
										<end>-1</end>
										<in>0</in>
										<out>120</out>
										<pproTicksIn>0</pproTicksIn>
										<pproTicksOut>1017080064000</pproTicksOut>
										<file id="file-91"/>
										<sourcetrack>
											<mediatype>audio</mediatype>
											<trackindex>2</trackindex>
										</sourcetrack>
										<link>
											<linkclipref>clipitem-296</linkclipref>
											<mediatype>video</mediatype>
											<trackindex>4</trackindex>
											<clipindex>2</clipindex>
										</link>
										<link>
											<linkclipref>clipitem-302</linkclipref>
											<mediatype>audio</mediatype>
											<trackindex>3</trackindex>
											<clipindex>3</clipindex>
											<groupindex>1</groupindex>
										</link>
										<link>
											<linkclipref>clipitem-304</linkclipref>
											<mediatype>audio</mediatype>
											<trackindex>4</trackindex>
											<clipindex>3</clipindex>
											<groupindex>1</groupindex>
										</link>
										<logginginfo>
											<description></description>
											<scene></scene>
											<shottake></shottake>
											<lognote></lognote>
											<good></good>
											<originalvideofilename></originalvideofilename>
											<originalaudiofilename></originalaudiofilename>
										</logginginfo>
										<colorinfo>
											<lut></lut>
											<lut1></lut1>
											<asc_sop></asc_sop>
											<asc_sat></asc_sat>
											<lut2></lut2>
										</colorinfo>
										<labels>
											<label2>Iris</label2>
										</labels>
									</clipitem>
									<transitionitem>
										<start>5484</start>
										<end>5489</end>
										<pproTicksIn>46480558924800</pproTicksIn>
										<pproTicksOut>46522937260800</pproTicksOut>
										<alignment>end-black</alignment>
										<cutPointTicks>42378336000</cutPointTicks>
										<rate>
											<timebase>30</timebase>
											<ntsc>TRUE</ntsc>
										</rate>
										<effect>
											<name>Cross Fade ( 0dB)</name>
											<effectid>KGAudioTransCrossFade0dB</effectid>
											<effecttype>transition</effecttype>
											<mediatype>audio</mediatype>
											<wipecode>0</wipecode>
											<wipeaccuracy>100</wipeaccuracy>
											<startratio>0</startratio>
											<endratio>1</endratio>
											<reverse>FALSE</reverse>
										</effect>
									</transitionitem>
									<enabled>TRUE</enabled>
									<locked>FALSE</locked>
									<outputchannelindex>2</outputchannelindex>
								</track>
								<track TL.SQTrackAudioKeyframeStyle="0" TL.SQTrackShy="0" TL.SQTrackExpandedHeight="93" TL.SQTrackExpanded="0" MZ.TrackTargeted="1" PannerCurrentValue="0.5" PannerIsInverted="true" PannerStartKeyframe="-91445760000000000,0.5,0,0,0,0,0,0" PannerName="Balance" currentExplodedTrackIndex="0" totalExplodedTrackCount="2" premiereTrackType="Stereo">
									<enabled>TRUE</enabled>
									<locked>FALSE</locked>
									<outputchannelindex>1</outputchannelindex>
								</track>
								<track TL.SQTrackAudioKeyframeStyle="0" TL.SQTrackShy="0" TL.SQTrackExpandedHeight="93" TL.SQTrackExpanded="0" MZ.TrackTargeted="1" PannerCurrentValue="0.5" PannerIsInverted="true" PannerStartKeyframe="-91445760000000000,0.5,0,0,0,0,0,0" PannerName="Balance" currentExplodedTrackIndex="1" totalExplodedTrackCount="2" premiereTrackType="Stereo">
									<enabled>TRUE</enabled>
									<locked>FALSE</locked>
									<outputchannelindex>2</outputchannelindex>
								</track>
								<track TL.SQTrackAudioKeyframeStyle="0" TL.SQTrackShy="0" TL.SQTrackExpandedHeight="25" TL.SQTrackExpanded="0" MZ.TrackTargeted="0" PannerCurrentValue="0.5" PannerIsInverted="true" PannerStartKeyframe="-91445760000000000,0.5,0,0,0,0,0,0" PannerName="Balance" currentExplodedTrackIndex="0" totalExplodedTrackCount="2" premiereTrackType="Stereo">
									<enabled>TRUE</enabled>
									<locked>FALSE</locked>
									<outputchannelindex>1</outputchannelindex>
								</track>
								<track TL.SQTrackAudioKeyframeStyle="0" TL.SQTrackShy="0" TL.SQTrackExpandedHeight="25" TL.SQTrackExpanded="0" MZ.TrackTargeted="0" PannerCurrentValue="0.5" PannerIsInverted="true" PannerStartKeyframe="-91445760000000000,0.5,0,0,0,0,0,0" PannerName="Balance" currentExplodedTrackIndex="1" totalExplodedTrackCount="2" premiereTrackType="Stereo">
									<enabled>TRUE</enabled>
									<locked>FALSE</locked>
									<outputchannelindex>2</outputchannelindex>
								</track>
							</audio>
						</media>
						<timecode>
							<rate>
								<timebase>30</timebase>
								<ntsc>TRUE</ntsc>
							</rate>
							<string>00;00;00;00</string>
							<frame>0</frame>
							<displayformat>DF</displayformat>
						</timecode>
						<labels>
							<label2>Forest</label2>
						</labels>
						<logginginfo>
							<description></description>
							<scene></scene>
							<shottake></shottake>
							<lognote></lognote>
							<good></good>
							<originalvideofilename></originalvideofilename>
							<originalaudiofilename></originalaudiofilename>
						</logginginfo>
					</sequence>
					<sequence id="sequence-20" TL.SQAudioVisibleBase="0" TL.SQVideoVisibleBase="0" TL.SQVisibleBaseTime="0" TL.SQAVDividerPosition="0.5" TL.SQHideShyTracks="0" TL.SQHeaderWidth="236" TL.SQDataTrackViewControlState="0" Monitor.ProgramZoomOut="47472211987200" Monitor.ProgramZoomIn="0" TL.SQTimePerPixel="0.29152292427561899" MZ.EditLine="39547463155200" MZ.Sequence.PreviewFrameSizeHeight="1080" MZ.Sequence.PreviewFrameSizeWidth="1920" MZ.Sequence.AudioTimeDisplayFormat="200" MZ.Sequence.PreviewRenderingClassID="1061109567" MZ.Sequence.PreviewRenderingPresetCodec="1634755443" MZ.Sequence.PreviewRenderingPresetPath="EncoderPresets/SequencePreview/35d109db-457b-43c1-9452-9cb7be9f121c/QuickTime.epr" MZ.Sequence.PreviewUseMaxRenderQuality="false" MZ.Sequence.PreviewUseMaxBitDepth="false" MZ.Sequence.EditingModeGUID="35d109db-457b-43c1-9452-9cb7be9f121c" MZ.Sequence.VideoTimeDisplayFormat="102" MZ.WorkOutPoint="15239249625600" MZ.WorkInPoint="0" explodedTracks="true">
						<uuid>e863a3ee-1e91-4863-b916-9beaa6064970</uuid>
						<duration>5502</duration>
						<rate>
							<timebase>30</timebase>
							<ntsc>TRUE</ntsc>
						</rate>
						<name>ATM_CRAFTY_302</name>
						<media>
							<video>
								<format>
									<samplecharacteristics>
										<rate>
											<timebase>30</timebase>
											<ntsc>TRUE</ntsc>
										</rate>
										<codec>
											<name>Apple ProRes 422</name>
											<appspecificdata>
												<appname>Final Cut Pro</appname>
												<appmanufacturer>Apple Inc.</appmanufacturer>
												<appversion>7.0</appversion>
												<data>
													<qtcodec>
														<codecname>Apple ProRes 422</codecname>
														<codectypename>Apple ProRes 422</codectypename>
														<codectypecode>apcn</codectypecode>
														<codecvendorcode>appl</codecvendorcode>
														<spatialquality>1024</spatialquality>
														<temporalquality>0</temporalquality>
														<keyframerate>0</keyframerate>
														<datarate>0</datarate>
													</qtcodec>
												</data>
											</appspecificdata>
										</codec>
										<width>1920</width>
										<height>1080</height>
										<anamorphic>FALSE</anamorphic>
										<pixelaspectratio>square</pixelaspectratio>
										<fielddominance>none</fielddominance>
										<colordepth>24</colordepth>
									</samplecharacteristics>
								</format>
								<track TL.SQTrackShy="0" TL.SQTrackExpandedHeight="25" TL.SQTrackExpanded="0" MZ.TrackTargeted="1">
									<clipitem id="clipitem-305">
										<masterclipid>masterclip-105</masterclipid>
										<name>FASH_CUTECROCHETEDDRESS_1</name>
										<enabled>TRUE</enabled>
										<duration>1678</duration>
										<rate>
											<timebase>30</timebase>
											<ntsc>TRUE</ntsc>
										</rate>
										<start>0</start>
										<end>1678</end>
										<in>0</in>
										<out>1678</out>
										<pproTicksIn>0</pproTicksIn>
										<pproTicksOut>14222169561600</pproTicksOut>
										<sequence id="sequence-21" TL.SQAudioVisibleBase="0" TL.SQVideoVisibleBase="0" TL.SQVisibleBaseTime="0" TL.SQAVDividerPosition="0.5" TL.SQHideShyTracks="0" TL.SQHeaderWidth="236" Monitor.ProgramZoomOut="14222169561600" Monitor.ProgramZoomIn="0" TL.SQTimePerPixel="0.12802188256950728" MZ.EditLine="0" MZ.Sequence.PreviewFrameSizeHeight="1080" MZ.Sequence.PreviewFrameSizeWidth="1920" MZ.Sequence.AudioTimeDisplayFormat="200" MZ.Sequence.PreviewRenderingClassID="1061109567" MZ.Sequence.PreviewRenderingPresetCodec="1634755443" MZ.Sequence.PreviewRenderingPresetPath="EncoderPresets/SequencePreview/35d109db-457b-43c1-9452-9cb7be9f121c/QuickTime.epr" MZ.Sequence.PreviewUseMaxRenderQuality="false" MZ.Sequence.PreviewUseMaxBitDepth="false" MZ.Sequence.EditingModeGUID="35d109db-457b-43c1-9452-9cb7be9f121c" MZ.Sequence.VideoTimeDisplayFormat="102" MZ.WorkOutPoint="14222169561600" MZ.WorkInPoint="0">
											<duration>1678</duration>
											<rate>
												<timebase>30</timebase>
												<ntsc>TRUE</ntsc>
											</rate>
											<name>FASH_CUTECROCHETEDDRESS_1</name>
											<media>
												<video>
													<format>
														<samplecharacteristics>
															<rate>
																<timebase>30</timebase>
																<ntsc>TRUE</ntsc>
															</rate>
															<codec>
																<name>Apple ProRes 422</name>
																<appspecificdata>
																	<appname>Final Cut Pro</appname>
																	<appmanufacturer>Apple Inc.</appmanufacturer>
																	<appversion>7.0</appversion>
																	<data>
																		<qtcodec>
																			<codecname>Apple ProRes 422</codecname>
																			<codectypename>Apple ProRes 422</codectypename>
																			<codectypecode>apcn</codectypecode>
																			<codecvendorcode>appl</codecvendorcode>
																			<spatialquality>1024</spatialquality>
																			<temporalquality>0</temporalquality>
																			<keyframerate>0</keyframerate>
																			<datarate>0</datarate>
																		</qtcodec>
																	</data>
																</appspecificdata>
															</codec>
															<width>1920</width>
															<height>1080</height>
															<anamorphic>FALSE</anamorphic>
															<pixelaspectratio>square</pixelaspectratio>
															<fielddominance>none</fielddominance>
															<colordepth>24</colordepth>
														</samplecharacteristics>
													</format>
													<track TL.SQTrackShy="0" TL.SQTrackExpandedHeight="25" TL.SQTrackExpanded="0" MZ.TrackTargeted="1">
														<clipitem id="clipitem-306">
															<masterclipid>masterclip-106</masterclipid>
															<name>(Lily Foubisou)_I made a met gala outfit with a KNITTING MACHINE _ sentro knitting machine tutorial_nh5GgVUyreY_YT.mp4</name>
															<enabled>TRUE</enabled>
															<duration>23096</duration>
															<rate>
																<timebase>30</timebase>
																<ntsc>TRUE</ntsc>
															</rate>
															<start>0</start>
															<end>352</end>
															<in>4055</in>
															<out>4407</out>
															<pproTicksIn>34368830496000</pproTicksIn>
															<pproTicksOut>37352265350400</pproTicksOut>
															<alphatype>none</alphatype>
															<pixelaspectratio>square</pixelaspectratio>
															<anamorphic>FALSE</anamorphic>
															<file id="file-92">
																<name>(Lily Foubisou)_I made a met gala outfit with a KNITTING MACHINE _ sentro knitting machine tutorial_nh5GgVUyreY_YT.mp4</name>
																<pathurl>file://localhost/Volumes/ATM%20JR%202TB/Crafty/2023/06_June/Crafty_6-19-23/3_Raw%20Footage/crochet%20dress/(Lily%20Foubisou)_I%20made%20a%20met%20gala%20outfit%20with%20a%20KNITTING%20MACHINE%20_%20sentro%20knitting%20machine%20tutorial_nh5GgVUyreY_YT.mp4</pathurl>
																<rate>
																	<timebase>30</timebase>
																	<ntsc>TRUE</ntsc>
																</rate>
																<duration>23096</duration>
																<timecode>
																	<rate>
																		<timebase>30</timebase>
																		<ntsc>TRUE</ntsc>
																	</rate>
																	<string>00:00:00:00</string>
																	<frame>0</frame>
																	<displayformat>NDF</displayformat>
																</timecode>
																<media>
																	<video>
																		<samplecharacteristics>
																			<rate>
																				<timebase>30</timebase>
																				<ntsc>TRUE</ntsc>
																			</rate>
																			<width>1920</width>
																			<height>1080</height>
																			<anamorphic>FALSE</anamorphic>
																			<pixelaspectratio>square</pixelaspectratio>
																			<fielddominance>none</fielddominance>
																		</samplecharacteristics>
																	</video>
																	<audio>
																		<samplecharacteristics>
																			<depth>16</depth>
																			<samplerate>44100</samplerate>
																		</samplecharacteristics>
																		<channelcount>2</channelcount>
																	</audio>
																</media>
															</file>
															<logginginfo>
																<description></description>
																<scene></scene>
																<shottake></shottake>
																<lognote>https://www.youtube.com/watch?v=nh5GgVUyreY</lognote>
																<good></good>
																<originalvideofilename></originalvideofilename>
																<originalaudiofilename></originalaudiofilename>
															</logginginfo>
															<colorinfo>
																<lut></lut>
																<lut1></lut1>
																<asc_sop></asc_sop>
																<asc_sat></asc_sat>
																<lut2></lut2>
															</colorinfo>
															<labels>
																<label2>Iris</label2>
															</labels>
														</clipitem>
														<clipitem id="clipitem-307">
															<masterclipid>masterclip-106</masterclipid>
															<name>(Lily Foubisou)_I made a met gala outfit with a KNITTING MACHINE _ sentro knitting machine tutorial_nh5GgVUyreY_YT.mp4</name>
															<enabled>TRUE</enabled>
															<duration>23096</duration>
															<rate>
																<timebase>30</timebase>
																<ntsc>TRUE</ntsc>
															</rate>
															<start>352</start>
															<end>478</end>
															<in>7252</in>
															<out>7378</out>
															<pproTicksIn>61465538534400</pproTicksIn>
															<pproTicksOut>62533472601600</pproTicksOut>
															<alphatype>none</alphatype>
															<file id="file-92"/>
															<logginginfo>
																<description></description>
																<scene></scene>
																<shottake></shottake>
																<lognote>https://www.youtube.com/watch?v=nh5GgVUyreY</lognote>
																<good></good>
																<originalvideofilename></originalvideofilename>
																<originalaudiofilename></originalaudiofilename>
															</logginginfo>
															<colorinfo>
																<lut></lut>
																<lut1></lut1>
																<asc_sop></asc_sop>
																<asc_sat></asc_sat>
																<lut2></lut2>
															</colorinfo>
															<labels>
																<label2>Iris</label2>
															</labels>
														</clipitem>
														<clipitem id="clipitem-308">
															<masterclipid>masterclip-106</masterclipid>
															<name>(Lily Foubisou)_I made a met gala outfit with a KNITTING MACHINE _ sentro knitting machine tutorial_nh5GgVUyreY_YT.mp4</name>
															<enabled>TRUE</enabled>
															<duration>23096</duration>
															<rate>
																<timebase>30</timebase>
																<ntsc>TRUE</ntsc>
															</rate>
															<start>478</start>
															<end>609</end>
															<in>8734</in>
															<out>8865</out>
															<pproTicksIn>74026477324800</pproTicksIn>
															<pproTicksOut>75136789728000</pproTicksOut>
															<alphatype>none</alphatype>
															<file id="file-92"/>
															<logginginfo>
																<description></description>
																<scene></scene>
																<shottake></shottake>
																<lognote>https://www.youtube.com/watch?v=nh5GgVUyreY</lognote>
																<good></good>
																<originalvideofilename></originalvideofilename>
																<originalaudiofilename></originalaudiofilename>
															</logginginfo>
															<colorinfo>
																<lut></lut>
																<lut1></lut1>
																<asc_sop></asc_sop>
																<asc_sat></asc_sat>
																<lut2></lut2>
															</colorinfo>
															<labels>
																<label2>Iris</label2>
															</labels>
														</clipitem>
														<clipitem id="clipitem-309">
															<masterclipid>masterclip-106</masterclipid>
															<name>(Lily Foubisou)_I made a met gala outfit with a KNITTING MACHINE _ sentro knitting machine tutorial_nh5GgVUyreY_YT.mp4</name>
															<enabled>TRUE</enabled>
															<duration>23096</duration>
															<rate>
																<timebase>30</timebase>
																<ntsc>TRUE</ntsc>
															</rate>
															<start>609</start>
															<end>949</end>
															<in>10185</in>
															<out>10525</out>
															<pproTicksIn>86324670432000</pproTicksIn>
															<pproTicksOut>89206397280000</pproTicksOut>
															<alphatype>none</alphatype>
															<file id="file-92"/>
															<logginginfo>
																<description></description>
																<scene></scene>
																<shottake></shottake>
																<lognote>https://www.youtube.com/watch?v=nh5GgVUyreY</lognote>
																<good></good>
																<originalvideofilename></originalvideofilename>
																<originalaudiofilename></originalaudiofilename>
															</logginginfo>
															<colorinfo>
																<lut></lut>
																<lut1></lut1>
																<asc_sop></asc_sop>
																<asc_sat></asc_sat>
																<lut2></lut2>
															</colorinfo>
															<labels>
																<label2>Iris</label2>
															</labels>
														</clipitem>
														<clipitem id="clipitem-310">
															<masterclipid>masterclip-106</masterclipid>
															<name>(Lily Foubisou)_I made a met gala outfit with a KNITTING MACHINE _ sentro knitting machine tutorial_nh5GgVUyreY_YT.mp4</name>
															<enabled>TRUE</enabled>
															<duration>23096</duration>
															<rate>
																<timebase>30</timebase>
																<ntsc>TRUE</ntsc>
															</rate>
															<start>949</start>
															<end>1144</end>
															<in>13818</in>
															<out>14013</out>
															<pproTicksIn>117116769369600</pproTicksIn>
															<pproTicksOut>118769524473600</pproTicksOut>
															<alphatype>none</alphatype>
															<file id="file-92"/>
															<logginginfo>
																<description></description>
																<scene></scene>
																<shottake></shottake>
																<lognote>https://www.youtube.com/watch?v=nh5GgVUyreY</lognote>
																<good></good>
																<originalvideofilename></originalvideofilename>
																<originalaudiofilename></originalaudiofilename>
															</logginginfo>
															<colorinfo>
																<lut></lut>
																<lut1></lut1>
																<asc_sop></asc_sop>
																<asc_sat></asc_sat>
																<lut2></lut2>
															</colorinfo>
															<labels>
																<label2>Iris</label2>
															</labels>
														</clipitem>
														<clipitem id="clipitem-311">
															<masterclipid>masterclip-106</masterclipid>
															<name>(Lily Foubisou)_I made a met gala outfit with a KNITTING MACHINE _ sentro knitting machine tutorial_nh5GgVUyreY_YT.mp4</name>
															<enabled>TRUE</enabled>
															<duration>23096</duration>
															<rate>
																<timebase>30</timebase>
																<ntsc>TRUE</ntsc>
															</rate>
															<start>1144</start>
															<end>1539</end>
															<in>17516</in>
															<out>17911</out>
															<pproTicksIn>148459786675200</pproTicksIn>
															<pproTicksOut>151807675219200</pproTicksOut>
															<alphatype>none</alphatype>
															<file id="file-92"/>
															<logginginfo>
																<description></description>
																<scene></scene>
																<shottake></shottake>
																<lognote>https://www.youtube.com/watch?v=nh5GgVUyreY</lognote>
																<good></good>
																<originalvideofilename></originalvideofilename>
																<originalaudiofilename></originalaudiofilename>
															</logginginfo>
															<colorinfo>
																<lut></lut>
																<lut1></lut1>
																<asc_sop></asc_sop>
																<asc_sat></asc_sat>
																<lut2></lut2>
															</colorinfo>
															<labels>
																<label2>Iris</label2>
															</labels>
														</clipitem>
														<clipitem id="clipitem-312">
															<masterclipid>masterclip-106</masterclipid>
															<name>(Lily Foubisou)_I made a met gala outfit with a KNITTING MACHINE _ sentro knitting machine tutorial_nh5GgVUyreY_YT.mp4</name>
															<enabled>TRUE</enabled>
															<duration>23096</duration>
															<rate>
																<timebase>30</timebase>
																<ntsc>TRUE</ntsc>
															</rate>
															<start>1539</start>
															<end>1678</end>
															<in>20770</in>
															<out>20909</out>
															<pproTicksIn>176039607744000</pproTicksIn>
															<pproTicksOut>177217725484800</pproTicksOut>
															<alphatype>none</alphatype>
															<file id="file-92"/>
															<logginginfo>
																<description></description>
																<scene></scene>
																<shottake></shottake>
																<lognote>https://www.youtube.com/watch?v=nh5GgVUyreY</lognote>
																<good></good>
																<originalvideofilename></originalvideofilename>
																<originalaudiofilename></originalaudiofilename>
															</logginginfo>
															<colorinfo>
																<lut></lut>
																<lut1></lut1>
																<asc_sop></asc_sop>
																<asc_sat></asc_sat>
																<lut2></lut2>
															</colorinfo>
															<labels>
																<label2>Iris</label2>
															</labels>
														</clipitem>
														<enabled>TRUE</enabled>
														<locked>FALSE</locked>
													</track>
													<track TL.SQTrackShy="0" TL.SQTrackExpandedHeight="25" TL.SQTrackExpanded="0" MZ.TrackTargeted="0">
														<clipitem id="clipitem-313">
															<masterclipid>masterclip-107</masterclipid>
															<name>lily foubisou</name>
															<enabled>TRUE</enabled>
															<duration>5844</duration>
															<rate>
																<timebase>30</timebase>
																<ntsc>TRUE</ntsc>
															</rate>
															<start>0</start>
															<end>1678</end>
															<in>0</in>
															<out>1678</out>
															<pproTicksIn>0</pproTicksIn>
															<pproTicksOut>14222169561600</pproTicksOut>
															<alphatype>straight</alphatype>
															<pixelaspectratio>square</pixelaspectratio>
															<anamorphic>FALSE</anamorphic>
															<file id="file-93">
																<name>1080/AE Attribution.aep</name>
																<pathurl>file://localhost/Volumes/ATM%20JR%202TB/Crafty/Master%20Assets%20/Attribution/AE%20Attribution.aep</pathurl>
																<rate>
																	<timebase>30</timebase>
																	<ntsc>TRUE</ntsc>
																</rate>
																<duration>5844</duration>
																<timecode>
																	<rate>
																		<timebase>30</timebase>
																		<ntsc>TRUE</ntsc>
																	</rate>
																	<string>00;00;00;00</string>
																	<frame>0</frame>
																	<displayformat>DF</displayformat>
																</timecode>
																<media>
																	<video>
																		<samplecharacteristics>
																			<rate>
																				<timebase>30</timebase>
																				<ntsc>TRUE</ntsc>
																			</rate>
																			<width>1920</width>
																			<height>1080</height>
																			<anamorphic>FALSE</anamorphic>
																			<pixelaspectratio>square</pixelaspectratio>
																			<fielddominance>lower</fielddominance>
																		</samplecharacteristics>
																	</video>
																</media>
															</file>
															<logginginfo>
																<description></description>
																<scene></scene>
																<shottake></shottake>
																<lognote></lognote>
																<good></good>
																<originalvideofilename></originalvideofilename>
																<originalaudiofilename></originalaudiofilename>
															</logginginfo>
															<colorinfo>
																<lut></lut>
																<lut1></lut1>
																<asc_sop></asc_sop>
																<asc_sat></asc_sat>
																<lut2></lut2>
															</colorinfo>
															<labels>
																<label2>Rose</label2>
															</labels>
														</clipitem>
														<enabled>TRUE</enabled>
														<locked>FALSE</locked>
													</track>
												</video>
												<audio>
													<numOutputChannels>2</numOutputChannels>
													<format>
														<samplecharacteristics>
															<depth>16</depth>
															<samplerate>48000</samplerate>
														</samplecharacteristics>
													</format>
													<outputs>
														<group>
															<index>1</index>
															<numchannels>1</numchannels>
															<downmix>0</downmix>
															<channel>
																<index>1</index>
															</channel>
														</group>
														<group>
															<index>2</index>
															<numchannels>1</numchannels>
															<downmix>0</downmix>
															<channel>
																<index>2</index>
															</channel>
														</group>
													</outputs>
													<track TL.SQTrackAudioKeyframeStyle="0" TL.SQTrackShy="0" TL.SQTrackExpandedHeight="25" TL.SQTrackExpanded="0" MZ.TrackTargeted="1" PannerCurrentValue="0.5" PannerIsInverted="true" PannerStartKeyframe="-91445760000000000,0.5,0,0,0,0,0,0" PannerName="Balance" currentExplodedTrackIndex="0" totalExplodedTrackCount="2" premiereTrackType="Stereo">
														<clipitem id="clipitem-314" premiereChannelType="stereo">
															<masterclipid>masterclip-108</masterclipid>
															<name>ES_Don't Take It So Personal - Sarah, the Illstrumentalist.wav</name>
															<enabled>TRUE</enabled>
															<duration>5514</duration>
															<rate>
																<timebase>30</timebase>
																<ntsc>TRUE</ntsc>
															</rate>
															<start>0</start>
															<end>-1</end>
															<in>0</in>
															<out>1678</out>
															<pproTicksIn>0</pproTicksIn>
															<pproTicksOut>14222169561600</pproTicksOut>
															<file id="file-94">
																<name>ES_Don't Take It So Personal - Sarah, the Illstrumentalist.wav</name>
																<pathurl>file://localhost/Volumes/ATM%20JR%202TB/Crafty/2023/06_June/Crafty_6-19-23/5_Music/ES_Don't%20Take%20It%20So%20Personal%20-%20Sarah,%20the%20Illstrumentalist.wav</pathurl>
																<rate>
																	<timebase>30</timebase>
																	<ntsc>TRUE</ntsc>
																</rate>
																<duration>5514</duration>
																<timecode>
																	<rate>
																		<timebase>30</timebase>
																		<ntsc>TRUE</ntsc>
																	</rate>
																	<string>02;42;22;00</string>
																	<frame>291968</frame>
																	<displayformat>DF</displayformat>
																</timecode>
																<media>
																	<audio>
																		<samplecharacteristics>
																			<depth>16</depth>
																			<samplerate>48000</samplerate>
																		</samplecharacteristics>
																		<channelcount>2</channelcount>
																	</audio>
																</media>
															</file>
															<sourcetrack>
																<mediatype>audio</mediatype>
																<trackindex>1</trackindex>
															</sourcetrack>
															<filter>
																<effect>
																	<name>Gain</name>
																	<effectid>{61756678, 4761696e, 4b657947}</effectid>
																	<effecttype>filter</effecttype>
																	<mediatype>audio</mediatype>
																	<parameter authoringApp="PremierePro">
																		<parameterid>Gain(dB)</parameterid>
																		<name>Gain(dB)</name>
																		<valuemin>-96</valuemin>
																		<valuemax>96</valuemax>
																		<value>-8</value>
																	</parameter>
																</effect>
															</filter>
															<link>
																<linkclipref>clipitem-314</linkclipref>
																<mediatype>audio</mediatype>
																<trackindex>1</trackindex>
																<clipindex>1</clipindex>
																<groupindex>1</groupindex>
															</link>
															<link>
																<linkclipref>clipitem-315</linkclipref>
																<mediatype>audio</mediatype>
																<trackindex>2</trackindex>
																<clipindex>1</clipindex>
																<groupindex>1</groupindex>
															</link>
															<logginginfo>
																<description></description>
																<scene></scene>
																<shottake></shottake>
																<lognote></lognote>
																<good></good>
																<originalvideofilename></originalvideofilename>
																<originalaudiofilename></originalaudiofilename>
															</logginginfo>
															<colorinfo>
																<lut></lut>
																<lut1></lut1>
																<asc_sop></asc_sop>
																<asc_sat></asc_sat>
																<lut2></lut2>
															</colorinfo>
															<labels>
																<label2>Caribbean</label2>
															</labels>
														</clipitem>
														<transitionitem>
															<start>1618</start>
															<end>1678</end>
															<pproTicksIn>13713629529600</pproTicksIn>
															<pproTicksOut>14222169561600</pproTicksOut>
															<alignment>end-black</alignment>
															<cutPointTicks>508540032000</cutPointTicks>
															<rate>
																<timebase>30</timebase>
																<ntsc>TRUE</ntsc>
															</rate>
															<effect>
																<name>Cross Fade (+3dB)</name>
																<effectid>KGAudioTransCrossFade3dB</effectid>
																<effecttype>transition</effecttype>
																<mediatype>audio</mediatype>
																<wipecode>0</wipecode>
																<wipeaccuracy>100</wipeaccuracy>
																<startratio>0</startratio>
																<endratio>1</endratio>
																<reverse>FALSE</reverse>
															</effect>
														</transitionitem>
														<enabled>TRUE</enabled>
														<locked>FALSE</locked>
														<outputchannelindex>1</outputchannelindex>
													</track>
													<track TL.SQTrackAudioKeyframeStyle="0" TL.SQTrackShy="0" TL.SQTrackExpandedHeight="25" TL.SQTrackExpanded="0" MZ.TrackTargeted="1" PannerCurrentValue="0.5" PannerIsInverted="true" PannerStartKeyframe="-91445760000000000,0.5,0,0,0,0,0,0" PannerName="Balance" currentExplodedTrackIndex="1" totalExplodedTrackCount="2" premiereTrackType="Stereo">
														<clipitem id="clipitem-315" premiereChannelType="stereo">
															<masterclipid>masterclip-108</masterclipid>
															<name>ES_Don't Take It So Personal - Sarah, the Illstrumentalist.wav</name>
															<enabled>TRUE</enabled>
															<duration>5514</duration>
															<rate>
																<timebase>30</timebase>
																<ntsc>TRUE</ntsc>
															</rate>
															<start>0</start>
															<end>-1</end>
															<in>0</in>
															<out>1678</out>
															<pproTicksIn>0</pproTicksIn>
															<pproTicksOut>14222169561600</pproTicksOut>
															<file id="file-94"/>
															<sourcetrack>
																<mediatype>audio</mediatype>
																<trackindex>2</trackindex>
															</sourcetrack>
															<filter>
																<effect>
																	<name>Gain</name>
																	<effectid>{61756678, 4761696e, 4b657947}</effectid>
																	<effecttype>filter</effecttype>
																	<mediatype>audio</mediatype>
																	<parameter authoringApp="PremierePro">
																		<parameterid>Gain(dB)</parameterid>
																		<name>Gain(dB)</name>
																		<valuemin>-96</valuemin>
																		<valuemax>96</valuemax>
																		<value>-8</value>
																	</parameter>
																</effect>
															</filter>
															<link>
																<linkclipref>clipitem-314</linkclipref>
																<mediatype>audio</mediatype>
																<trackindex>1</trackindex>
																<clipindex>1</clipindex>
																<groupindex>1</groupindex>
															</link>
															<link>
																<linkclipref>clipitem-315</linkclipref>
																<mediatype>audio</mediatype>
																<trackindex>2</trackindex>
																<clipindex>1</clipindex>
																<groupindex>1</groupindex>
															</link>
															<logginginfo>
																<description></description>
																<scene></scene>
																<shottake></shottake>
																<lognote></lognote>
																<good></good>
																<originalvideofilename></originalvideofilename>
																<originalaudiofilename></originalaudiofilename>
															</logginginfo>
															<colorinfo>
																<lut></lut>
																<lut1></lut1>
																<asc_sop></asc_sop>
																<asc_sat></asc_sat>
																<lut2></lut2>
															</colorinfo>
															<labels>
																<label2>Caribbean</label2>
															</labels>
														</clipitem>
														<transitionitem>
															<start>1618</start>
															<end>1678</end>
															<pproTicksIn>13713629529600</pproTicksIn>
															<pproTicksOut>14222169561600</pproTicksOut>
															<alignment>end-black</alignment>
															<cutPointTicks>508540032000</cutPointTicks>
															<rate>
																<timebase>30</timebase>
																<ntsc>TRUE</ntsc>
															</rate>
															<effect>
																<name>Cross Fade (+3dB)</name>
																<effectid>KGAudioTransCrossFade3dB</effectid>
																<effecttype>transition</effecttype>
																<mediatype>audio</mediatype>
																<wipecode>0</wipecode>
																<wipeaccuracy>100</wipeaccuracy>
																<startratio>0</startratio>
																<endratio>1</endratio>
																<reverse>FALSE</reverse>
															</effect>
														</transitionitem>
														<enabled>TRUE</enabled>
														<locked>FALSE</locked>
														<outputchannelindex>2</outputchannelindex>
													</track>
												</audio>
											</media>
											<timecode>
												<rate>
													<timebase>30</timebase>
													<ntsc>TRUE</ntsc>
												</rate>
												<string>00;00;00;00</string>
												<frame>0</frame>
												<displayformat>DF</displayformat>
											</timecode>
											<logginginfo>
												<description></description>
												<scene></scene>
												<shottake></shottake>
												<lognote></lognote>
												<good></good>
												<originalvideofilename></originalvideofilename>
												<originalaudiofilename></originalaudiofilename>
											</logginginfo>
										</sequence>
										<link>
											<linkclipref>clipitem-305</linkclipref>
											<mediatype>video</mediatype>
											<trackindex>1</trackindex>
											<clipindex>1</clipindex>
										</link>
										<link>
											<linkclipref>clipitem-333</linkclipref>
											<mediatype>audio</mediatype>
											<trackindex>1</trackindex>
											<clipindex>1</clipindex>
											<groupindex>1</groupindex>
										</link>
										<link>
											<linkclipref>clipitem-335</linkclipref>
											<mediatype>audio</mediatype>
											<trackindex>2</trackindex>
											<clipindex>1</clipindex>
											<groupindex>1</groupindex>
										</link>
										<labels>
											<label2>Forest</label2>
										</labels>
									</clipitem>
									<clipitem id="clipitem-316">
										<masterclipid>masterclip-109</masterclipid>
										<name>ART_HOUSEOFGLASS_2</name>
										<enabled>TRUE</enabled>
										<duration>5725</duration>
										<rate>
											<timebase>30</timebase>
											<ntsc>TRUE</ntsc>
										</rate>
										<start>1762</start>
										<end>5502</end>
										<in>0</in>
										<out>3740</out>
										<pproTicksIn>0</pproTicksIn>
										<pproTicksOut>31698995328000</pproTicksOut>
										<sequence id="sequence-22" TL.SQAudioVisibleBase="0" TL.SQVideoVisibleBase="0" TL.SQVisibleBaseTime="0" TL.SQAVDividerPosition="0.5" TL.SQHideShyTracks="0" TL.SQHeaderWidth="236" TL.SQDataTrackViewControlState="0" Monitor.ProgramZoomOut="31698995328000" Monitor.ProgramZoomIn="0" TL.SQTimePerPixel="0.30332489728376477" MZ.EditLine="6161810054400" MZ.Sequence.PreviewFrameSizeHeight="1080" MZ.Sequence.PreviewFrameSizeWidth="1920" MZ.Sequence.AudioTimeDisplayFormat="200" MZ.Sequence.PreviewRenderingClassID="1061109567" MZ.Sequence.PreviewRenderingPresetCodec="1634755443" MZ.Sequence.PreviewRenderingPresetPath="EncoderPresets/SequencePreview/35d109db-457b-43c1-9452-9cb7be9f121c/QuickTime.epr" MZ.Sequence.PreviewUseMaxRenderQuality="false" MZ.Sequence.PreviewUseMaxBitDepth="false" MZ.Sequence.EditingModeGUID="35d109db-457b-43c1-9452-9cb7be9f121c" MZ.Sequence.VideoTimeDisplayFormat="102" MZ.WorkOutPoint="31698995328000" MZ.WorkInPoint="0">
											<duration>3740</duration>
											<rate>
												<timebase>30</timebase>
												<ntsc>TRUE</ntsc>
											</rate>
											<name>ART_HOUSEOFGLASS_2</name>
											<media>
												<video>
													<format>
														<samplecharacteristics>
															<rate>
																<timebase>30</timebase>
																<ntsc>TRUE</ntsc>
															</rate>
															<codec>
																<name>Apple ProRes 422</name>
																<appspecificdata>
																	<appname>Final Cut Pro</appname>
																	<appmanufacturer>Apple Inc.</appmanufacturer>
																	<appversion>7.0</appversion>
																	<data>
																		<qtcodec>
																			<codecname>Apple ProRes 422</codecname>
																			<codectypename>Apple ProRes 422</codectypename>
																			<codectypecode>apcn</codectypecode>
																			<codecvendorcode>appl</codecvendorcode>
																			<spatialquality>1024</spatialquality>
																			<temporalquality>0</temporalquality>
																			<keyframerate>0</keyframerate>
																			<datarate>0</datarate>
																		</qtcodec>
																	</data>
																</appspecificdata>
															</codec>
															<width>1920</width>
															<height>1080</height>
															<anamorphic>FALSE</anamorphic>
															<pixelaspectratio>square</pixelaspectratio>
															<fielddominance>none</fielddominance>
															<colordepth>24</colordepth>
														</samplecharacteristics>
													</format>
													<track TL.SQTrackShy="0" TL.SQTrackExpandedHeight="25" TL.SQTrackExpanded="0" MZ.TrackTargeted="1">
														<clipitem id="clipitem-317">
															<masterclipid>masterclip-110</masterclipid>
															<name>(alteredlightdesign)_CfEjq7cDzeJ_IG.mp4</name>
															<enabled>TRUE</enabled>
															<duration>599</duration>
															<rate>
																<timebase>30</timebase>
																<ntsc>TRUE</ntsc>
															</rate>
															<start>0</start>
															<end>599</end>
															<in>0</in>
															<out>599</out>
															<pproTicksIn>0</pproTicksIn>
															<pproTicksOut>5076924652800</pproTicksOut>
															<alphatype>none</alphatype>
															<pixelaspectratio>square</pixelaspectratio>
															<anamorphic>FALSE</anamorphic>
															<file id="file-95">
																<name>(alteredlightdesign)_CfEjq7cDzeJ_IG.mp4</name>
																<pathurl>file://localhost/Volumes/ATM%20JR%202TB/Crafty/2023/06_June/Crafty_6-19-23/3_Raw%20Footage/stained%20glass/./(alteredlightdesign)_CfEjq7cDzeJ_IG.mp4</pathurl>
																<rate>
																	<timebase>30</timebase>
																	<ntsc>FALSE</ntsc>
																</rate>
																<duration>600</duration>
																<timecode>
																	<rate>
																		<timebase>30</timebase>
																		<ntsc>FALSE</ntsc>
																	</rate>
																	<string>00:00:00:00</string>
																	<frame>0</frame>
																	<displayformat>NDF</displayformat>
																</timecode>
																<media>
																	<video>
																		<samplecharacteristics>
																			<rate>
																				<timebase>30</timebase>
																				<ntsc>FALSE</ntsc>
																			</rate>
																			<width>720</width>
																			<height>1280</height>
																			<anamorphic>FALSE</anamorphic>
																			<pixelaspectratio>square</pixelaspectratio>
																			<fielddominance>none</fielddominance>
																		</samplecharacteristics>
																	</video>
																	<audio>
																		<samplecharacteristics>
																			<depth>16</depth>
																			<samplerate>44100</samplerate>
																		</samplecharacteristics>
																		<channelcount>2</channelcount>
																	</audio>
																</media>
															</file>
															<filter>
																<effect>
																	<name>Basic Motion</name>
																	<effectid>basic</effectid>
																	<effectcategory>motion</effectcategory>
																	<effecttype>motion</effecttype>
																	<mediatype>video</mediatype>
																	<pproBypass>false</pproBypass>
																	<parameter authoringApp="PremierePro">
																		<parameterid>scale</parameterid>
																		<name>Scale</name>
																		<valuemin>0</valuemin>
																		<valuemax>1000</valuemax>
																		<value>300</value>
																	</parameter>
																	<parameter authoringApp="PremierePro">
																		<parameterid>rotation</parameterid>
																		<name>Rotation</name>
																		<valuemin>-8640</valuemin>
																		<valuemax>8640</valuemax>
																		<value>0</value>
																	</parameter>
																	<parameter authoringApp="PremierePro">
																		<parameterid>center</parameterid>
																		<name>Center</name>
																		<value>
																			<horiz>0</horiz>
																			<vert>0</vert>
																		</value>
																	</parameter>
																	<parameter authoringApp="PremierePro">
																		<parameterid>centerOffset</parameterid>
																		<name>Anchor Point</name>
																		<value>
																			<horiz>0</horiz>
																			<vert>0</vert>
																		</value>
																	</parameter>
																	<parameter authoringApp="PremierePro">
																		<parameterid>antiflicker</parameterid>
																		<name>Anti-flicker Filter</name>
																		<valuemin>0.0</valuemin>
																		<valuemax>1.0</valuemax>
																		<value>0</value>
																	</parameter>
																</effect>
															</filter>
															<filter>
																<effect>
																	<name>Gaussian Blur</name>
																	<effectid>Gaussian Blur</effectid>
																	<effectcategory>Blur</effectcategory>
																	<effecttype>motion</effecttype>
																	<mediatype>video</mediatype>
																	<pproBypass>false</pproBypass>
																	<parameter authoringApp="PremierePro">
																		<parameterid>radius</parameterid>
																		<name>Radius</name>
																		<valuemin>0</valuemin>
																		<valuemax>100</valuemax>
																		<value>150</value>
																	</parameter>
																</effect>
															</filter>
															<logginginfo>
																<description></description>
																<scene></scene>
																<shottake></shottake>
																<lognote></lognote>
																<good></good>
																<originalvideofilename></originalvideofilename>
																<originalaudiofilename></originalaudiofilename>
															</logginginfo>
															<colorinfo>
																<lut></lut>
																<lut1></lut1>
																<asc_sop></asc_sop>
																<asc_sat></asc_sat>
																<lut2></lut2>
															</colorinfo>
															<labels>
																<label2>Violet</label2>
															</labels>
														</clipitem>
														<clipitem id="clipitem-318">
															<masterclipid>masterclip-111</masterclipid>
															<name>(alteredlightdesign)_CW4VG6KDo9P_IG.mp4</name>
															<enabled>TRUE</enabled>
															<duration>825</duration>
															<rate>
																<timebase>30</timebase>
																<ntsc>TRUE</ntsc>
															</rate>
															<start>599</start>
															<end>1424</end>
															<in>0</in>
															<out>825</out>
															<pproTicksIn>0</pproTicksIn>
															<pproTicksOut>6992425440000</pproTicksOut>
															<alphatype>none</alphatype>
															<pixelaspectratio>square</pixelaspectratio>
															<anamorphic>FALSE</anamorphic>
															<file id="file-96">
																<name>(alteredlightdesign)_CW4VG6KDo9P_IG.mp4</name>
																<pathurl>file://localhost/Volumes/ATM%20JR%202TB/Crafty/2023/06_June/Crafty_6-19-23/3_Raw%20Footage/stained%20glass/(alteredlightdesign)_CW4VG6KDo9P_IG.mp4</pathurl>
																<rate>
																	<timebase>30</timebase>
																	<ntsc>FALSE</ntsc>
																</rate>
																<duration>826</duration>
																<timecode>
																	<rate>
																		<timebase>30</timebase>
																		<ntsc>FALSE</ntsc>
																	</rate>
																	<string>00:00:00:00</string>
																	<frame>0</frame>
																	<displayformat>NDF</displayformat>
																</timecode>
																<media>
																	<video>
																		<samplecharacteristics>
																			<rate>
																				<timebase>30</timebase>
																				<ntsc>FALSE</ntsc>
																			</rate>
																			<width>720</width>
																			<height>1280</height>
																			<anamorphic>FALSE</anamorphic>
																			<pixelaspectratio>square</pixelaspectratio>
																			<fielddominance>none</fielddominance>
																		</samplecharacteristics>
																	</video>
																	<audio>
																		<samplecharacteristics>
																			<depth>16</depth>
																			<samplerate>44100</samplerate>
																		</samplecharacteristics>
																		<channelcount>2</channelcount>
																	</audio>
																</media>
															</file>
															<filter>
																<effect>
																	<name>Basic Motion</name>
																	<effectid>basic</effectid>
																	<effectcategory>motion</effectcategory>
																	<effecttype>motion</effecttype>
																	<mediatype>video</mediatype>
																	<pproBypass>false</pproBypass>
																	<parameter authoringApp="PremierePro">
																		<parameterid>scale</parameterid>
																		<name>Scale</name>
																		<valuemin>0</valuemin>
																		<valuemax>1000</valuemax>
																		<value>474</value>
																	</parameter>
																	<parameter authoringApp="PremierePro">
																		<parameterid>rotation</parameterid>
																		<name>Rotation</name>
																		<valuemin>-8640</valuemin>
																		<valuemax>8640</valuemax>
																		<value>0</value>
																	</parameter>
																	<parameter authoringApp="PremierePro">
																		<parameterid>center</parameterid>
																		<name>Center</name>
																		<value>
																			<horiz>0</horiz>
																			<vert>0</vert>
																		</value>
																	</parameter>
																	<parameter authoringApp="PremierePro">
																		<parameterid>centerOffset</parameterid>
																		<name>Anchor Point</name>
																		<value>
																			<horiz>0</horiz>
																			<vert>0</vert>
																		</value>
																	</parameter>
																	<parameter authoringApp="PremierePro">
																		<parameterid>antiflicker</parameterid>
																		<name>Anti-flicker Filter</name>
																		<valuemin>0.0</valuemin>
																		<valuemax>1.0</valuemax>
																		<value>0</value>
																	</parameter>
																</effect>
															</filter>
															<filter>
																<effect>
																	<name>Gaussian Blur</name>
																	<effectid>Gaussian Blur</effectid>
																	<effectcategory>Blur</effectcategory>
																	<effecttype>motion</effecttype>
																	<mediatype>video</mediatype>
																	<pproBypass>false</pproBypass>
																	<parameter authoringApp="PremierePro">
																		<parameterid>radius</parameterid>
																		<name>Radius</name>
																		<valuemin>0</valuemin>
																		<valuemax>100</valuemax>
																		<value>150</value>
																	</parameter>
																</effect>
															</filter>
															<logginginfo>
																<description></description>
																<scene></scene>
																<shottake></shottake>
																<lognote></lognote>
																<good></good>
																<originalvideofilename></originalvideofilename>
																<originalaudiofilename></originalaudiofilename>
															</logginginfo>
															<colorinfo>
																<lut></lut>
																<lut1></lut1>
																<asc_sop></asc_sop>
																<asc_sat></asc_sat>
																<lut2></lut2>
															</colorinfo>
															<labels>
																<label2>Iris</label2>
															</labels>
														</clipitem>
														<clipitem id="clipitem-319">
															<masterclipid>masterclip-112</masterclipid>
															<name>(alteredlightdesign)_CfcLWuhj4Pa_IG.mp4</name>
															<enabled>TRUE</enabled>
															<duration>2697</duration>
															<rate>
																<timebase>30</timebase>
																<ntsc>TRUE</ntsc>
															</rate>
															<start>1424</start>
															<end>3383</end>
															<in>0</in>
															<out>1959</out>
															<pproTicksIn>0</pproTicksIn>
															<pproTicksOut>16603832044800</pproTicksOut>
															<alphatype>none</alphatype>
															<pixelaspectratio>square</pixelaspectratio>
															<anamorphic>FALSE</anamorphic>
															<file id="file-97">
																<name>(alteredlightdesign)_CfcLWuhj4Pa_IG.mp4</name>
																<pathurl>file://localhost/Volumes/ATM%20JR%202TB/Crafty/2023/06_June/Crafty_6-19-23/3_Raw%20Footage/stained%20glass/./(alteredlightdesign)_CfcLWuhj4Pa_IG.mp4</pathurl>
																<rate>
																	<timebase>30</timebase>
																	<ntsc>FALSE</ntsc>
																</rate>
																<duration>2700</duration>
																<timecode>
																	<rate>
																		<timebase>30</timebase>
																		<ntsc>FALSE</ntsc>
																	</rate>
																	<string>00:00:00:00</string>
																	<frame>0</frame>
																	<displayformat>NDF</displayformat>
																</timecode>
																<media>
																	<video>
																		<samplecharacteristics>
																			<rate>
																				<timebase>30</timebase>
																				<ntsc>FALSE</ntsc>
																			</rate>
																			<width>576</width>
																			<height>1024</height>
																			<anamorphic>FALSE</anamorphic>
																			<pixelaspectratio>square</pixelaspectratio>
																			<fielddominance>none</fielddominance>
																		</samplecharacteristics>
																	</video>
																	<audio>
																		<samplecharacteristics>
																			<depth>16</depth>
																			<samplerate>44100</samplerate>
																		</samplecharacteristics>
																		<channelcount>2</channelcount>
																	</audio>
																</media>
															</file>
															<filter>
																<effect>
																	<name>Basic Motion</name>
																	<effectid>basic</effectid>
																	<effectcategory>motion</effectcategory>
																	<effecttype>motion</effecttype>
																	<mediatype>video</mediatype>
																	<pproBypass>false</pproBypass>
																	<parameter authoringApp="PremierePro">
																		<parameterid>scale</parameterid>
																		<name>Scale</name>
																		<valuemin>0</valuemin>
																		<valuemax>1000</valuemax>
																		<value>474</value>
																	</parameter>
																	<parameter authoringApp="PremierePro">
																		<parameterid>rotation</parameterid>
																		<name>Rotation</name>
																		<valuemin>-8640</valuemin>
																		<valuemax>8640</valuemax>
																		<value>0</value>
																	</parameter>
																	<parameter authoringApp="PremierePro">
																		<parameterid>center</parameterid>
																		<name>Center</name>
																		<value>
																			<horiz>0</horiz>
																			<vert>0</vert>
																		</value>
																	</parameter>
																	<parameter authoringApp="PremierePro">
																		<parameterid>centerOffset</parameterid>
																		<name>Anchor Point</name>
																		<value>
																			<horiz>0</horiz>
																			<vert>0</vert>
																		</value>
																	</parameter>
																	<parameter authoringApp="PremierePro">
																		<parameterid>antiflicker</parameterid>
																		<name>Anti-flicker Filter</name>
																		<valuemin>0.0</valuemin>
																		<valuemax>1.0</valuemax>
																		<value>0</value>
																	</parameter>
																</effect>
															</filter>
															<filter>
																<effect>
																	<name>Gaussian Blur</name>
																	<effectid>Gaussian Blur</effectid>
																	<effectcategory>Blur</effectcategory>
																	<effecttype>motion</effecttype>
																	<mediatype>video</mediatype>
																	<pproBypass>false</pproBypass>
																	<parameter authoringApp="PremierePro">
																		<parameterid>radius</parameterid>
																		<name>Radius</name>
																		<valuemin>0</valuemin>
																		<valuemax>100</valuemax>
																		<value>150</value>
																	</parameter>
																</effect>
															</filter>
															<logginginfo>
																<description></description>
																<scene></scene>
																<shottake></shottake>
																<lognote></lognote>
																<good></good>
																<originalvideofilename></originalvideofilename>
																<originalaudiofilename></originalaudiofilename>
															</logginginfo>
															<colorinfo>
																<lut></lut>
																<lut1></lut1>
																<asc_sop></asc_sop>
																<asc_sat></asc_sat>
																<lut2></lut2>
															</colorinfo>
															<labels>
																<label2>Caribbean</label2>
															</labels>
														</clipitem>
														<clipitem id="clipitem-320">
															<masterclipid>masterclip-112</masterclipid>
															<name>(alteredlightdesign)_CfcLWuhj4Pa_IG.mp4</name>
															<enabled>TRUE</enabled>
															<duration>2697</duration>
															<rate>
																<timebase>30</timebase>
																<ntsc>TRUE</ntsc>
															</rate>
															<start>3383</start>
															<end>3740</end>
															<in>2132</in>
															<out>2489</out>
															<pproTicksIn>18070122470400</pproTicksIn>
															<pproTicksOut>21095935660800</pproTicksOut>
															<alphatype>none</alphatype>
															<file id="file-97"/>
															<filter>
																<effect>
																	<name>Basic Motion</name>
																	<effectid>basic</effectid>
																	<effectcategory>motion</effectcategory>
																	<effecttype>motion</effecttype>
																	<mediatype>video</mediatype>
																	<pproBypass>false</pproBypass>
																	<parameter authoringApp="PremierePro">
																		<parameterid>scale</parameterid>
																		<name>Scale</name>
																		<valuemin>0</valuemin>
																		<valuemax>1000</valuemax>
																		<value>474</value>
																	</parameter>
																	<parameter authoringApp="PremierePro">
																		<parameterid>rotation</parameterid>
																		<name>Rotation</name>
																		<valuemin>-8640</valuemin>
																		<valuemax>8640</valuemax>
																		<value>0</value>
																	</parameter>
																	<parameter authoringApp="PremierePro">
																		<parameterid>center</parameterid>
																		<name>Center</name>
																		<value>
																			<horiz>0</horiz>
																			<vert>0</vert>
																		</value>
																	</parameter>
																	<parameter authoringApp="PremierePro">
																		<parameterid>centerOffset</parameterid>
																		<name>Anchor Point</name>
																		<value>
																			<horiz>0</horiz>
																			<vert>0</vert>
																		</value>
																	</parameter>
																	<parameter authoringApp="PremierePro">
																		<parameterid>antiflicker</parameterid>
																		<name>Anti-flicker Filter</name>
																		<valuemin>0.0</valuemin>
																		<valuemax>1.0</valuemax>
																		<value>0</value>
																	</parameter>
																</effect>
															</filter>
															<filter>
																<effect>
																	<name>Gaussian Blur</name>
																	<effectid>Gaussian Blur</effectid>
																	<effectcategory>Blur</effectcategory>
																	<effecttype>motion</effecttype>
																	<mediatype>video</mediatype>
																	<pproBypass>false</pproBypass>
																	<parameter authoringApp="PremierePro">
																		<parameterid>radius</parameterid>
																		<name>Radius</name>
																		<valuemin>0</valuemin>
																		<valuemax>100</valuemax>
																		<value>150</value>
																	</parameter>
																</effect>
															</filter>
															<logginginfo>
																<description></description>
																<scene></scene>
																<shottake></shottake>
																<lognote></lognote>
																<good></good>
																<originalvideofilename></originalvideofilename>
																<originalaudiofilename></originalaudiofilename>
															</logginginfo>
															<colorinfo>
																<lut></lut>
																<lut1></lut1>
																<asc_sop></asc_sop>
																<asc_sat></asc_sat>
																<lut2></lut2>
															</colorinfo>
															<labels>
																<label2>Caribbean</label2>
															</labels>
														</clipitem>
														<enabled>TRUE</enabled>
														<locked>FALSE</locked>
													</track>
													<track TL.SQTrackShy="0" TL.SQTrackExpandedHeight="25" TL.SQTrackExpanded="0" MZ.TrackTargeted="0">
														<clipitem id="clipitem-321">
															<masterclipid>masterclip-110</masterclipid>
															<name>(alteredlightdesign)_CfEjq7cDzeJ_IG.mp4</name>
															<enabled>TRUE</enabled>
															<duration>599</duration>
															<rate>
																<timebase>30</timebase>
																<ntsc>TRUE</ntsc>
															</rate>
															<start>0</start>
															<end>599</end>
															<in>0</in>
															<out>599</out>
															<pproTicksIn>0</pproTicksIn>
															<pproTicksOut>5076924652800</pproTicksOut>
															<alphatype>none</alphatype>
															<file id="file-95"/>
															<filter>
																<effect>
																	<name>Basic Motion</name>
																	<effectid>basic</effectid>
																	<effectcategory>motion</effectcategory>
																	<effecttype>motion</effecttype>
																	<mediatype>video</mediatype>
																	<pproBypass>false</pproBypass>
																	<parameter authoringApp="PremierePro">
																		<parameterid>scale</parameterid>
																		<name>Scale</name>
																		<valuemin>0</valuemin>
																		<valuemax>1000</valuemax>
																		<value>84.375</value>
																	</parameter>
																	<parameter authoringApp="PremierePro">
																		<parameterid>rotation</parameterid>
																		<name>Rotation</name>
																		<valuemin>-8640</valuemin>
																		<valuemax>8640</valuemax>
																		<value>0</value>
																	</parameter>
																	<parameter authoringApp="PremierePro">
																		<parameterid>center</parameterid>
																		<name>Center</name>
																		<value>
																			<horiz>0</horiz>
																			<vert>0</vert>
																		</value>
																	</parameter>
																	<parameter authoringApp="PremierePro">
																		<parameterid>centerOffset</parameterid>
																		<name>Anchor Point</name>
																		<value>
																			<horiz>0</horiz>
																			<vert>0</vert>
																		</value>
																	</parameter>
																	<parameter authoringApp="PremierePro">
																		<parameterid>antiflicker</parameterid>
																		<name>Anti-flicker Filter</name>
																		<valuemin>0.0</valuemin>
																		<valuemax>1.0</valuemax>
																		<value>0</value>
																	</parameter>
																</effect>
															</filter>
															<logginginfo>
																<description></description>
																<scene></scene>
																<shottake></shottake>
																<lognote></lognote>
																<good></good>
																<originalvideofilename></originalvideofilename>
																<originalaudiofilename></originalaudiofilename>
															</logginginfo>
															<colorinfo>
																<lut></lut>
																<lut1></lut1>
																<asc_sop></asc_sop>
																<asc_sat></asc_sat>
																<lut2></lut2>
															</colorinfo>
															<labels>
																<label2>Violet</label2>
															</labels>
														</clipitem>
														<clipitem id="clipitem-322">
															<masterclipid>masterclip-111</masterclipid>
															<name>(alteredlightdesign)_CW4VG6KDo9P_IG.mp4</name>
															<enabled>TRUE</enabled>
															<duration>825</duration>
															<rate>
																<timebase>30</timebase>
																<ntsc>TRUE</ntsc>
															</rate>
															<start>599</start>
															<end>1424</end>
															<in>0</in>
															<out>825</out>
															<pproTicksIn>0</pproTicksIn>
															<pproTicksOut>6992425440000</pproTicksOut>
															<alphatype>none</alphatype>
															<file id="file-96"/>
															<filter>
																<effect>
																	<name>Basic Motion</name>
																	<effectid>basic</effectid>
																	<effectcategory>motion</effectcategory>
																	<effecttype>motion</effecttype>
																	<mediatype>video</mediatype>
																	<pproBypass>false</pproBypass>
																	<parameter authoringApp="PremierePro">
																		<parameterid>scale</parameterid>
																		<name>Scale</name>
																		<valuemin>0</valuemin>
																		<valuemax>1000</valuemax>
																		<value>84.375</value>
																	</parameter>
																	<parameter authoringApp="PremierePro">
																		<parameterid>rotation</parameterid>
																		<name>Rotation</name>
																		<valuemin>-8640</valuemin>
																		<valuemax>8640</valuemax>
																		<value>0</value>
																	</parameter>
																	<parameter authoringApp="PremierePro">
																		<parameterid>center</parameterid>
																		<name>Center</name>
																		<value>
																			<horiz>0</horiz>
																			<vert>0</vert>
																		</value>
																	</parameter>
																	<parameter authoringApp="PremierePro">
																		<parameterid>centerOffset</parameterid>
																		<name>Anchor Point</name>
																		<value>
																			<horiz>0</horiz>
																			<vert>0</vert>
																		</value>
																	</parameter>
																	<parameter authoringApp="PremierePro">
																		<parameterid>antiflicker</parameterid>
																		<name>Anti-flicker Filter</name>
																		<valuemin>0.0</valuemin>
																		<valuemax>1.0</valuemax>
																		<value>0</value>
																	</parameter>
																</effect>
															</filter>
															<logginginfo>
																<description></description>
																<scene></scene>
																<shottake></shottake>
																<lognote></lognote>
																<good></good>
																<originalvideofilename></originalvideofilename>
																<originalaudiofilename></originalaudiofilename>
															</logginginfo>
															<colorinfo>
																<lut></lut>
																<lut1></lut1>
																<asc_sop></asc_sop>
																<asc_sat></asc_sat>
																<lut2></lut2>
															</colorinfo>
															<labels>
																<label2>Iris</label2>
															</labels>
														</clipitem>
														<clipitem id="clipitem-323">
															<masterclipid>masterclip-112</masterclipid>
															<name>(alteredlightdesign)_CfcLWuhj4Pa_IG.mp4</name>
															<enabled>TRUE</enabled>
															<duration>2697</duration>
															<rate>
																<timebase>30</timebase>
																<ntsc>TRUE</ntsc>
															</rate>
															<start>1424</start>
															<end>3383</end>
															<in>0</in>
															<out>1959</out>
															<pproTicksIn>0</pproTicksIn>
															<pproTicksOut>16603832044800</pproTicksOut>
															<alphatype>none</alphatype>
															<file id="file-97"/>
															<filter>
																<effect>
																	<name>Basic Motion</name>
																	<effectid>basic</effectid>
																	<effectcategory>motion</effectcategory>
																	<effecttype>motion</effecttype>
																	<mediatype>video</mediatype>
																	<pproBypass>false</pproBypass>
																	<parameter authoringApp="PremierePro">
																		<parameterid>scale</parameterid>
																		<name>Scale</name>
																		<valuemin>0</valuemin>
																		<valuemax>1000</valuemax>
																		<value>105.469</value>
																	</parameter>
																	<parameter authoringApp="PremierePro">
																		<parameterid>rotation</parameterid>
																		<name>Rotation</name>
																		<valuemin>-8640</valuemin>
																		<valuemax>8640</valuemax>
																		<value>0</value>
																	</parameter>
																	<parameter authoringApp="PremierePro">
																		<parameterid>center</parameterid>
																		<name>Center</name>
																		<value>
																			<horiz>0</horiz>
																			<vert>0</vert>
																		</value>
																	</parameter>
																	<parameter authoringApp="PremierePro">
																		<parameterid>centerOffset</parameterid>
																		<name>Anchor Point</name>
																		<value>
																			<horiz>0</horiz>
																			<vert>0</vert>
																		</value>
																	</parameter>
																	<parameter authoringApp="PremierePro">
																		<parameterid>antiflicker</parameterid>
																		<name>Anti-flicker Filter</name>
																		<valuemin>0.0</valuemin>
																		<valuemax>1.0</valuemax>
																		<value>0</value>
																	</parameter>
																</effect>
															</filter>
															<logginginfo>
																<description></description>
																<scene></scene>
																<shottake></shottake>
																<lognote></lognote>
																<good></good>
																<originalvideofilename></originalvideofilename>
																<originalaudiofilename></originalaudiofilename>
															</logginginfo>
															<colorinfo>
																<lut></lut>
																<lut1></lut1>
																<asc_sop></asc_sop>
																<asc_sat></asc_sat>
																<lut2></lut2>
															</colorinfo>
															<labels>
																<label2>Caribbean</label2>
															</labels>
														</clipitem>
														<clipitem id="clipitem-324">
															<masterclipid>masterclip-112</masterclipid>
															<name>(alteredlightdesign)_CfcLWuhj4Pa_IG.mp4</name>
															<enabled>TRUE</enabled>
															<duration>2697</duration>
															<rate>
																<timebase>30</timebase>
																<ntsc>TRUE</ntsc>
															</rate>
															<start>3383</start>
															<end>3740</end>
															<in>2132</in>
															<out>2489</out>
															<pproTicksIn>18070122470400</pproTicksIn>
															<pproTicksOut>21095935660800</pproTicksOut>
															<alphatype>none</alphatype>
															<file id="file-97"/>
															<filter>
																<effect>
																	<name>Basic Motion</name>
																	<effectid>basic</effectid>
																	<effectcategory>motion</effectcategory>
																	<effecttype>motion</effecttype>
																	<mediatype>video</mediatype>
																	<pproBypass>false</pproBypass>
																	<parameter authoringApp="PremierePro">
																		<parameterid>scale</parameterid>
																		<name>Scale</name>
																		<valuemin>0</valuemin>
																		<valuemax>1000</valuemax>
																		<value>105.469</value>
																	</parameter>
																	<parameter authoringApp="PremierePro">
																		<parameterid>rotation</parameterid>
																		<name>Rotation</name>
																		<valuemin>-8640</valuemin>
																		<valuemax>8640</valuemax>
																		<value>0</value>
																	</parameter>
																	<parameter authoringApp="PremierePro">
																		<parameterid>center</parameterid>
																		<name>Center</name>
																		<value>
																			<horiz>0</horiz>
																			<vert>0</vert>
																		</value>
																	</parameter>
																	<parameter authoringApp="PremierePro">
																		<parameterid>centerOffset</parameterid>
																		<name>Anchor Point</name>
																		<value>
																			<horiz>0</horiz>
																			<vert>0</vert>
																		</value>
																	</parameter>
																	<parameter authoringApp="PremierePro">
																		<parameterid>antiflicker</parameterid>
																		<name>Anti-flicker Filter</name>
																		<valuemin>0.0</valuemin>
																		<valuemax>1.0</valuemax>
																		<value>0</value>
																	</parameter>
																</effect>
															</filter>
															<logginginfo>
																<description></description>
																<scene></scene>
																<shottake></shottake>
																<lognote></lognote>
																<good></good>
																<originalvideofilename></originalvideofilename>
																<originalaudiofilename></originalaudiofilename>
															</logginginfo>
															<colorinfo>
																<lut></lut>
																<lut1></lut1>
																<asc_sop></asc_sop>
																<asc_sat></asc_sat>
																<lut2></lut2>
															</colorinfo>
															<labels>
																<label2>Caribbean</label2>
															</labels>
														</clipitem>
														<enabled>TRUE</enabled>
														<locked>FALSE</locked>
													</track>
													<track TL.SQTrackShy="0" TL.SQTrackExpandedHeight="25" TL.SQTrackExpanded="0" MZ.TrackTargeted="0">
														<clipitem id="clipitem-325">
															<masterclipid>masterclip-113</masterclipid>
															<name>@alteredlightdesign</name>
															<enabled>TRUE</enabled>
															<duration>5844</duration>
															<rate>
																<timebase>30</timebase>
																<ntsc>TRUE</ntsc>
															</rate>
															<start>0</start>
															<end>3740</end>
															<in>0</in>
															<out>3740</out>
															<pproTicksIn>0</pproTicksIn>
															<pproTicksOut>31698995328000</pproTicksOut>
															<alphatype>straight</alphatype>
															<pixelaspectratio>square</pixelaspectratio>
															<anamorphic>FALSE</anamorphic>
															<file id="file-98">
																<name>1080/AE Attribution.aep</name>
																<pathurl>file://localhost/Volumes/ATM%20JR%202TB/Crafty/Master%20Assets%20/Attribution/AE%20Attribution.aep</pathurl>
																<rate>
																	<timebase>30</timebase>
																	<ntsc>TRUE</ntsc>
																</rate>
																<duration>5844</duration>
																<timecode>
																	<rate>
																		<timebase>30</timebase>
																		<ntsc>TRUE</ntsc>
																	</rate>
																	<string>00;00;00;00</string>
																	<frame>0</frame>
																	<displayformat>DF</displayformat>
																</timecode>
																<media>
																	<video>
																		<samplecharacteristics>
																			<rate>
																				<timebase>30</timebase>
																				<ntsc>TRUE</ntsc>
																			</rate>
																			<width>1920</width>
																			<height>1080</height>
																			<anamorphic>FALSE</anamorphic>
																			<pixelaspectratio>square</pixelaspectratio>
																			<fielddominance>lower</fielddominance>
																		</samplecharacteristics>
																	</video>
																</media>
															</file>
															<logginginfo>
																<description></description>
																<scene></scene>
																<shottake></shottake>
																<lognote></lognote>
																<good></good>
																<originalvideofilename></originalvideofilename>
																<originalaudiofilename></originalaudiofilename>
															</logginginfo>
															<colorinfo>
																<lut></lut>
																<lut1></lut1>
																<asc_sop></asc_sop>
																<asc_sat></asc_sat>
																<lut2></lut2>
															</colorinfo>
															<labels>
																<label2>Rose</label2>
															</labels>
														</clipitem>
														<enabled>TRUE</enabled>
														<locked>FALSE</locked>
													</track>
												</video>
												<audio>
													<numOutputChannels>2</numOutputChannels>
													<format>
														<samplecharacteristics>
															<depth>16</depth>
															<samplerate>48000</samplerate>
														</samplecharacteristics>
													</format>
													<outputs>
														<group>
															<index>1</index>
															<numchannels>1</numchannels>
															<downmix>0</downmix>
															<channel>
																<index>1</index>
															</channel>
														</group>
														<group>
															<index>2</index>
															<numchannels>1</numchannels>
															<downmix>0</downmix>
															<channel>
																<index>2</index>
															</channel>
														</group>
													</outputs>
													<track TL.SQTrackAudioKeyframeStyle="0" TL.SQTrackShy="0" TL.SQTrackExpandedHeight="25" TL.SQTrackExpanded="0" MZ.TrackTargeted="1" PannerCurrentValue="0.5" PannerIsInverted="true" PannerStartKeyframe="-91445760000000000,0.5,0,0,0,0,0,0" PannerName="Balance" currentExplodedTrackIndex="0" totalExplodedTrackCount="2" premiereTrackType="Stereo">
														<clipitem id="clipitem-326" premiereChannelType="stereo">
															<masterclipid>masterclip-114</masterclipid>
															<name>ES_Drizzle in Da Hizzle - Daniel Fridell.wav</name>
															<enabled>TRUE</enabled>
															<duration>5675</duration>
															<rate>
																<timebase>30</timebase>
																<ntsc>TRUE</ntsc>
															</rate>
															<start>0</start>
															<end>-1</end>
															<in>0</in>
															<out>3740</out>
															<pproTicksIn>0</pproTicksIn>
															<pproTicksOut>31698995328000</pproTicksOut>
															<file id="file-99">
																<name>ES_Drizzle in Da Hizzle - Daniel Fridell.wav</name>
																<pathurl>file://localhost/Volumes/ATM%20JR%202TB/Crafty/2023/06_June/Crafty_6-19-23/5_Music/ES_Drizzle%20in%20Da%20Hizzle%20-%20Daniel%20Fridell.wav</pathurl>
																<rate>
																	<timebase>30</timebase>
																	<ntsc>TRUE</ntsc>
																</rate>
																<duration>5675</duration>
																<timecode>
																	<rate>
																		<timebase>30</timebase>
																		<ntsc>TRUE</ntsc>
																	</rate>
																	<string>08;02;45;29</string>
																	<frame>868111</frame>
																	<displayformat>DF</displayformat>
																</timecode>
																<media>
																	<audio>
																		<samplecharacteristics>
																			<depth>16</depth>
																			<samplerate>48000</samplerate>
																		</samplecharacteristics>
																		<channelcount>2</channelcount>
																	</audio>
																</media>
															</file>
															<sourcetrack>
																<mediatype>audio</mediatype>
																<trackindex>1</trackindex>
															</sourcetrack>
															<filter>
																<effect>
																	<name>Gain</name>
																	<effectid>{61756678, 4761696e, 4b657947}</effectid>
																	<effecttype>filter</effecttype>
																	<mediatype>audio</mediatype>
																	<parameter authoringApp="PremierePro">
																		<parameterid>Gain(dB)</parameterid>
																		<name>Gain(dB)</name>
																		<valuemin>-96</valuemin>
																		<valuemax>96</valuemax>
																		<value>-8</value>
																	</parameter>
																</effect>
															</filter>
															<link>
																<linkclipref>clipitem-326</linkclipref>
																<mediatype>audio</mediatype>
																<trackindex>1</trackindex>
																<clipindex>1</clipindex>
																<groupindex>1</groupindex>
															</link>
															<link>
																<linkclipref>clipitem-327</linkclipref>
																<mediatype>audio</mediatype>
																<trackindex>2</trackindex>
																<clipindex>1</clipindex>
																<groupindex>1</groupindex>
															</link>
															<logginginfo>
																<description></description>
																<scene></scene>
																<shottake></shottake>
																<lognote></lognote>
																<good></good>
																<originalvideofilename></originalvideofilename>
																<originalaudiofilename></originalaudiofilename>
															</logginginfo>
															<colorinfo>
																<lut></lut>
																<lut1></lut1>
																<asc_sop></asc_sop>
																<asc_sat></asc_sat>
																<lut2></lut2>
															</colorinfo>
															<labels>
																<label2>Caribbean</label2>
															</labels>
														</clipitem>
														<transitionitem>
															<start>3650</start>
															<end>3740</end>
															<pproTicksIn>30936185280000</pproTicksIn>
															<pproTicksOut>31698995328000</pproTicksOut>
															<alignment>end-black</alignment>
															<cutPointTicks>762810048000</cutPointTicks>
															<rate>
																<timebase>30</timebase>
																<ntsc>TRUE</ntsc>
															</rate>
															<effect>
																<name>Cross Fade (+3dB)</name>
																<effectid>KGAudioTransCrossFade3dB</effectid>
																<effecttype>transition</effecttype>
																<mediatype>audio</mediatype>
																<wipecode>0</wipecode>
																<wipeaccuracy>100</wipeaccuracy>
																<startratio>0</startratio>
																<endratio>1</endratio>
																<reverse>FALSE</reverse>
															</effect>
														</transitionitem>
														<enabled>TRUE</enabled>
														<locked>FALSE</locked>
														<outputchannelindex>1</outputchannelindex>
													</track>
													<track TL.SQTrackAudioKeyframeStyle="0" TL.SQTrackShy="0" TL.SQTrackExpandedHeight="25" TL.SQTrackExpanded="0" MZ.TrackTargeted="1" PannerCurrentValue="0.5" PannerIsInverted="true" PannerStartKeyframe="-91445760000000000,0.5,0,0,0,0,0,0" PannerName="Balance" currentExplodedTrackIndex="1" totalExplodedTrackCount="2" premiereTrackType="Stereo">
														<clipitem id="clipitem-327" premiereChannelType="stereo">
															<masterclipid>masterclip-114</masterclipid>
															<name>ES_Drizzle in Da Hizzle - Daniel Fridell.wav</name>
															<enabled>TRUE</enabled>
															<duration>5675</duration>
															<rate>
																<timebase>30</timebase>
																<ntsc>TRUE</ntsc>
															</rate>
															<start>0</start>
															<end>-1</end>
															<in>0</in>
															<out>3740</out>
															<pproTicksIn>0</pproTicksIn>
															<pproTicksOut>31698995328000</pproTicksOut>
															<file id="file-99"/>
															<sourcetrack>
																<mediatype>audio</mediatype>
																<trackindex>2</trackindex>
															</sourcetrack>
															<filter>
																<effect>
																	<name>Gain</name>
																	<effectid>{61756678, 4761696e, 4b657947}</effectid>
																	<effecttype>filter</effecttype>
																	<mediatype>audio</mediatype>
																	<parameter authoringApp="PremierePro">
																		<parameterid>Gain(dB)</parameterid>
																		<name>Gain(dB)</name>
																		<valuemin>-96</valuemin>
																		<valuemax>96</valuemax>
																		<value>-8</value>
																	</parameter>
																</effect>
															</filter>
															<link>
																<linkclipref>clipitem-326</linkclipref>
																<mediatype>audio</mediatype>
																<trackindex>1</trackindex>
																<clipindex>1</clipindex>
																<groupindex>1</groupindex>
															</link>
															<link>
																<linkclipref>clipitem-327</linkclipref>
																<mediatype>audio</mediatype>
																<trackindex>2</trackindex>
																<clipindex>1</clipindex>
																<groupindex>1</groupindex>
															</link>
															<logginginfo>
																<description></description>
																<scene></scene>
																<shottake></shottake>
																<lognote></lognote>
																<good></good>
																<originalvideofilename></originalvideofilename>
																<originalaudiofilename></originalaudiofilename>
															</logginginfo>
															<colorinfo>
																<lut></lut>
																<lut1></lut1>
																<asc_sop></asc_sop>
																<asc_sat></asc_sat>
																<lut2></lut2>
															</colorinfo>
															<labels>
																<label2>Caribbean</label2>
															</labels>
														</clipitem>
														<transitionitem>
															<start>3650</start>
															<end>3740</end>
															<pproTicksIn>30936185280000</pproTicksIn>
															<pproTicksOut>31698995328000</pproTicksOut>
															<alignment>end-black</alignment>
															<cutPointTicks>762810048000</cutPointTicks>
															<rate>
																<timebase>30</timebase>
																<ntsc>TRUE</ntsc>
															</rate>
															<effect>
																<name>Cross Fade (+3dB)</name>
																<effectid>KGAudioTransCrossFade3dB</effectid>
																<effecttype>transition</effecttype>
																<mediatype>audio</mediatype>
																<wipecode>0</wipecode>
																<wipeaccuracy>100</wipeaccuracy>
																<startratio>0</startratio>
																<endratio>1</endratio>
																<reverse>FALSE</reverse>
															</effect>
														</transitionitem>
														<enabled>TRUE</enabled>
														<locked>FALSE</locked>
														<outputchannelindex>2</outputchannelindex>
													</track>
													<track TL.SQTrackAudioKeyframeStyle="0" TL.SQTrackShy="0" TL.SQTrackExpandedHeight="25" TL.SQTrackExpanded="0" MZ.TrackTargeted="0" PannerCurrentValue="0.5" PannerIsInverted="true" PannerStartKeyframe="-91445760000000000,0.5,0,0,0,0,0,0" PannerName="Balance" currentExplodedTrackIndex="0" totalExplodedTrackCount="2" premiereTrackType="Stereo">
														<enabled>TRUE</enabled>
														<locked>FALSE</locked>
														<outputchannelindex>1</outputchannelindex>
													</track>
													<track TL.SQTrackAudioKeyframeStyle="0" TL.SQTrackShy="0" TL.SQTrackExpandedHeight="25" TL.SQTrackExpanded="0" MZ.TrackTargeted="0" PannerCurrentValue="0.5" PannerIsInverted="true" PannerStartKeyframe="-91445760000000000,0.5,0,0,0,0,0,0" PannerName="Balance" currentExplodedTrackIndex="1" totalExplodedTrackCount="2" premiereTrackType="Stereo">
														<enabled>TRUE</enabled>
														<locked>FALSE</locked>
														<outputchannelindex>2</outputchannelindex>
													</track>
												</audio>
											</media>
											<timecode>
												<rate>
													<timebase>30</timebase>
													<ntsc>TRUE</ntsc>
												</rate>
												<string>00;00;00;00</string>
												<frame>0</frame>
												<displayformat>DF</displayformat>
											</timecode>
											<logginginfo>
												<description></description>
												<scene></scene>
												<shottake></shottake>
												<lognote></lognote>
												<good></good>
												<originalvideofilename></originalvideofilename>
												<originalaudiofilename></originalaudiofilename>
											</logginginfo>
										</sequence>
										<link>
											<linkclipref>clipitem-316</linkclipref>
											<mediatype>video</mediatype>
											<trackindex>1</trackindex>
											<clipindex>2</clipindex>
										</link>
										<link>
											<linkclipref>clipitem-334</linkclipref>
											<mediatype>audio</mediatype>
											<trackindex>1</trackindex>
											<clipindex>2</clipindex>
											<groupindex>1</groupindex>
										</link>
										<link>
											<linkclipref>clipitem-336</linkclipref>
											<mediatype>audio</mediatype>
											<trackindex>2</trackindex>
											<clipindex>2</clipindex>
											<groupindex>1</groupindex>
										</link>
										<labels>
											<label2>Forest</label2>
										</labels>
									</clipitem>
									<enabled>TRUE</enabled>
									<locked>FALSE</locked>
								</track>
								<track TL.SQTrackShy="0" TL.SQTrackExpandedHeight="25" TL.SQTrackExpanded="0" MZ.TrackTargeted="0">
									<clipitem id="clipitem-328">
										<masterclipid>masterclip-115</masterclipid>
										<name>CUTE CROCHETED DRESS</name>
										<enabled>TRUE</enabled>
										<duration>5695</duration>
										<rate>
											<timebase>30</timebase>
											<ntsc>TRUE</ntsc>
										</rate>
										<start>0</start>
										<end>1678</end>
										<in>0</in>
										<out>1678</out>
										<pproTicksIn>0</pproTicksIn>
										<pproTicksOut>14222169561600</pproTicksOut>
										<alphatype>straight</alphatype>
										<pixelaspectratio>square</pixelaspectratio>
										<anamorphic>FALSE</anamorphic>
										<file id="file-100">
											<name>CRAFTY_L3RD_01_JL_V03/CRAFTY_L3RD_01_JL_V03.aep</name>
											<pathurl>file://localhost/Volumes/ATM%20JR%202TB/Crafty/Master%20Assets%20/Lower%20Thirds/CRAFTY_L3RD_01_JL_V03.aep</pathurl>
											<rate>
												<timebase>30</timebase>
												<ntsc>FALSE</ntsc>
											</rate>
											<duration>5701</duration>
											<timecode>
												<rate>
													<timebase>30</timebase>
													<ntsc>FALSE</ntsc>
												</rate>
												<string>00:00:00:00</string>
												<frame>0</frame>
												<displayformat>NDF</displayformat>
											</timecode>
											<media>
												<video>
													<samplecharacteristics>
														<rate>
															<timebase>30</timebase>
															<ntsc>FALSE</ntsc>
														</rate>
														<width>1920</width>
														<height>1080</height>
														<anamorphic>FALSE</anamorphic>
														<pixelaspectratio>square</pixelaspectratio>
														<fielddominance>lower</fielddominance>
													</samplecharacteristics>
												</video>
											</media>
										</file>
										<logginginfo>
											<description></description>
											<scene></scene>
											<shottake></shottake>
											<lognote></lognote>
											<good></good>
											<originalvideofilename></originalvideofilename>
											<originalaudiofilename></originalaudiofilename>
										</logginginfo>
										<colorinfo>
											<lut></lut>
											<lut1></lut1>
											<asc_sop></asc_sop>
											<asc_sat></asc_sat>
											<lut2></lut2>
										</colorinfo>
										<labels>
											<label2>Rose</label2>
										</labels>
									</clipitem>
									<clipitem id="clipitem-329">
										<masterclipid>masterclip-116</masterclipid>
										<name>HOUSE OF GLASS</name>
										<enabled>TRUE</enabled>
										<duration>5695</duration>
										<rate>
											<timebase>30</timebase>
											<ntsc>TRUE</ntsc>
										</rate>
										<start>1775</start>
										<end>5481</end>
										<in>0</in>
										<out>3706</out>
										<pproTicksIn>0</pproTicksIn>
										<pproTicksOut>31410822643200</pproTicksOut>
										<alphatype>straight</alphatype>
										<pixelaspectratio>square</pixelaspectratio>
										<anamorphic>FALSE</anamorphic>
										<file id="file-101">
											<name>CRAFTY_L3RD_01_JL_V03/CRAFTY_L3RD_01_JL_V03.aep</name>
											<pathurl>file://localhost/Volumes/ATM%20JR%202TB/Crafty/Master%20Assets%20/Lower%20Thirds/CRAFTY_L3RD_01_JL_V03.aep</pathurl>
											<rate>
												<timebase>30</timebase>
												<ntsc>FALSE</ntsc>
											</rate>
											<duration>5701</duration>
											<timecode>
												<rate>
													<timebase>30</timebase>
													<ntsc>FALSE</ntsc>
												</rate>
												<string>00:00:00:00</string>
												<frame>0</frame>
												<displayformat>NDF</displayformat>
											</timecode>
											<media>
												<video>
													<samplecharacteristics>
														<rate>
															<timebase>30</timebase>
															<ntsc>FALSE</ntsc>
														</rate>
														<width>1920</width>
														<height>1080</height>
														<anamorphic>FALSE</anamorphic>
														<pixelaspectratio>square</pixelaspectratio>
														<fielddominance>lower</fielddominance>
													</samplecharacteristics>
												</video>
											</media>
										</file>
										<logginginfo>
											<description></description>
											<scene></scene>
											<shottake></shottake>
											<lognote></lognote>
											<good></good>
											<originalvideofilename></originalvideofilename>
											<originalaudiofilename></originalaudiofilename>
										</logginginfo>
										<colorinfo>
											<lut></lut>
											<lut1></lut1>
											<asc_sop></asc_sop>
											<asc_sat></asc_sat>
											<lut2></lut2>
										</colorinfo>
										<labels>
											<label2>Rose</label2>
										</labels>
									</clipitem>
									<enabled>TRUE</enabled>
									<locked>FALSE</locked>
								</track>
								<track TL.SQTrackShy="0" TL.SQTrackExpandedHeight="25" TL.SQTrackExpanded="0" MZ.TrackTargeted="0">
									<clipitem id="clipitem-330">
										<masterclipid>masterclip-102</masterclipid>
										<name>ATM_logo_channels_right-2 (3).png</name>
										<enabled>TRUE</enabled>
										<duration>1294705</duration>
										<rate>
											<timebase>30</timebase>
											<ntsc>TRUE</ntsc>
										</rate>
										<start>0</start>
										<end>5502</end>
										<in>107892</in>
										<out>113394</out>
										<pproTicksIn>914456685542400</pproTicksIn>
										<pproTicksOut>961089806476800</pproTicksOut>
										<alphatype>straight</alphatype>
										<file id="file-89"/>
										<logginginfo>
											<description></description>
											<scene></scene>
											<shottake></shottake>
											<lognote></lognote>
											<good></good>
											<originalvideofilename></originalvideofilename>
											<originalaudiofilename></originalaudiofilename>
										</logginginfo>
										<colorinfo>
											<lut></lut>
											<lut1></lut1>
											<asc_sop></asc_sop>
											<asc_sat></asc_sat>
											<lut2></lut2>
										</colorinfo>
										<labels>
											<label2>Lavender</label2>
										</labels>
									</clipitem>
									<enabled>TRUE</enabled>
									<locked>FALSE</locked>
								</track>
								<track TL.SQTrackShy="0" TL.SQTrackExpandedHeight="25" TL.SQTrackExpanded="0" MZ.TrackTargeted="0">
									<clipitem id="clipitem-331">
										<masterclipid>masterclip-104</masterclipid>
										<name>CRAFTY_TRAN03_JL_V01.mov</name>
										<enabled>TRUE</enabled>
										<duration>120</duration>
										<rate>
											<timebase>30</timebase>
											<ntsc>TRUE</ntsc>
										</rate>
										<start>1655</start>
										<end>1775</end>
										<in>0</in>
										<out>120</out>
										<pproTicksIn>0</pproTicksIn>
										<pproTicksOut>1017080064000</pproTicksOut>
										<alphatype>none</alphatype>
										<file id="file-91"/>
										<link>
											<linkclipref>clipitem-331</linkclipref>
											<mediatype>video</mediatype>
											<trackindex>4</trackindex>
											<clipindex>1</clipindex>
										</link>
										<link>
											<linkclipref>clipitem-337</linkclipref>
											<mediatype>audio</mediatype>
											<trackindex>3</trackindex>
											<clipindex>1</clipindex>
											<groupindex>1</groupindex>
										</link>
										<link>
											<linkclipref>clipitem-339</linkclipref>
											<mediatype>audio</mediatype>
											<trackindex>4</trackindex>
											<clipindex>1</clipindex>
											<groupindex>1</groupindex>
										</link>
										<logginginfo>
											<description></description>
											<scene></scene>
											<shottake></shottake>
											<lognote></lognote>
											<good></good>
											<originalvideofilename></originalvideofilename>
											<originalaudiofilename></originalaudiofilename>
										</logginginfo>
										<colorinfo>
											<lut></lut>
											<lut1></lut1>
											<asc_sop></asc_sop>
											<asc_sat></asc_sat>
											<lut2></lut2>
										</colorinfo>
										<labels>
											<label2>Iris</label2>
										</labels>
									</clipitem>
									<clipitem id="clipitem-332">
										<masterclipid>masterclip-117</masterclipid>
										<name>CRAFTY_TRAN01_JL_V01.mov</name>
										<enabled>TRUE</enabled>
										<duration>120</duration>
										<rate>
											<timebase>30</timebase>
											<ntsc>TRUE</ntsc>
										</rate>
										<start>5481</start>
										<end>5601</end>
										<in>0</in>
										<out>120</out>
										<pproTicksIn>0</pproTicksIn>
										<pproTicksOut>1017080064000</pproTicksOut>
										<alphatype>none</alphatype>
										<pixelaspectratio>square</pixelaspectratio>
										<anamorphic>FALSE</anamorphic>
										<file id="file-102">
											<name>CRAFTY_TRAN01_JL_V01.mov</name>
											<pathurl>file://localhost/Volumes/ATM%20JR%202TB/Crafty/2023/06_June/Crafty_6-19-23/5_Music/../../../../Master%20Assets%20/Transitions/CRAFTY_TRAN01_JL_V01.mov</pathurl>
											<rate>
												<timebase>30</timebase>
												<ntsc>FALSE</ntsc>
											</rate>
											<duration>121</duration>
											<timecode>
												<rate>
													<timebase>30</timebase>
													<ntsc>FALSE</ntsc>
												</rate>
												<string>00:00:00:00</string>
												<frame>0</frame>
												<displayformat>NDF</displayformat>
											</timecode>
											<media>
												<video>
													<samplecharacteristics>
														<rate>
															<timebase>30</timebase>
															<ntsc>FALSE</ntsc>
														</rate>
														<width>1920</width>
														<height>1080</height>
														<anamorphic>FALSE</anamorphic>
														<pixelaspectratio>square</pixelaspectratio>
														<fielddominance>none</fielddominance>
													</samplecharacteristics>
												</video>
												<audio>
													<samplecharacteristics>
														<depth>16</depth>
														<samplerate>48000</samplerate>
													</samplecharacteristics>
													<channelcount>2</channelcount>
												</audio>
											</media>
										</file>
										<link>
											<linkclipref>clipitem-332</linkclipref>
											<mediatype>video</mediatype>
											<trackindex>4</trackindex>
											<clipindex>2</clipindex>
										</link>
										<link>
											<linkclipref>clipitem-338</linkclipref>
											<mediatype>audio</mediatype>
											<trackindex>3</trackindex>
											<clipindex>2</clipindex>
											<groupindex>1</groupindex>
										</link>
										<link>
											<linkclipref>clipitem-340</linkclipref>
											<mediatype>audio</mediatype>
											<trackindex>4</trackindex>
											<clipindex>2</clipindex>
											<groupindex>1</groupindex>
										</link>
										<logginginfo>
											<description></description>
											<scene></scene>
											<shottake></shottake>
											<lognote></lognote>
											<good></good>
											<originalvideofilename></originalvideofilename>
											<originalaudiofilename></originalaudiofilename>
										</logginginfo>
										<colorinfo>
											<lut></lut>
											<lut1></lut1>
											<asc_sop></asc_sop>
											<asc_sat></asc_sat>
											<lut2></lut2>
										</colorinfo>
										<labels>
											<label2>Iris</label2>
										</labels>
									</clipitem>
									<enabled>TRUE</enabled>
									<locked>FALSE</locked>
								</track>
							</video>
							<audio>
								<numOutputChannels>2</numOutputChannels>
								<format>
									<samplecharacteristics>
										<depth>16</depth>
										<samplerate>48000</samplerate>
									</samplecharacteristics>
								</format>
								<outputs>
									<group>
										<index>1</index>
										<numchannels>1</numchannels>
										<downmix>0</downmix>
										<channel>
											<index>1</index>
										</channel>
									</group>
									<group>
										<index>2</index>
										<numchannels>1</numchannels>
										<downmix>0</downmix>
										<channel>
											<index>2</index>
										</channel>
									</group>
								</outputs>
								<track TL.SQTrackAudioKeyframeStyle="0" TL.SQTrackShy="0" TL.SQTrackExpandedHeight="54" TL.SQTrackExpanded="0" MZ.TrackTargeted="1" PannerCurrentValue="0.5" PannerIsInverted="true" PannerStartKeyframe="-91445760000000000,0.5,0,0,0,0,0,0" PannerName="Balance" currentExplodedTrackIndex="0" totalExplodedTrackCount="2" premiereTrackType="Stereo">
									<clipitem id="clipitem-333" premiereChannelType="stereo">
										<masterclipid>masterclip-105</masterclipid>
										<name>FASH_CUTECROCHETEDDRESS_1</name>
										<enabled>TRUE</enabled>
										<duration>1678</duration>
										<rate>
											<timebase>30</timebase>
											<ntsc>TRUE</ntsc>
										</rate>
										<start>0</start>
										<end>1678</end>
										<in>0</in>
										<out>1678</out>
										<pproTicksIn>0</pproTicksIn>
										<pproTicksOut>14222169561600</pproTicksOut>
										<sequence id="sequence-21"/>
										<sourcetrack>
											<mediatype>audio</mediatype>
											<trackindex>0</trackindex>
										</sourcetrack>
										<link>
											<linkclipref>clipitem-305</linkclipref>
											<mediatype>video</mediatype>
											<trackindex>1</trackindex>
											<clipindex>1</clipindex>
										</link>
										<link>
											<linkclipref>clipitem-333</linkclipref>
											<mediatype>audio</mediatype>
											<trackindex>1</trackindex>
											<clipindex>1</clipindex>
											<groupindex>1</groupindex>
										</link>
										<link>
											<linkclipref>clipitem-335</linkclipref>
											<mediatype>audio</mediatype>
											<trackindex>2</trackindex>
											<clipindex>1</clipindex>
											<groupindex>1</groupindex>
										</link>
										<labels>
											<label2>Forest</label2>
										</labels>
									</clipitem>
									<clipitem id="clipitem-334" premiereChannelType="stereo">
										<masterclipid>masterclip-109</masterclipid>
										<name>ART_HOUSEOFGLASS_2</name>
										<enabled>TRUE</enabled>
										<duration>5725</duration>
										<rate>
											<timebase>30</timebase>
											<ntsc>TRUE</ntsc>
										</rate>
										<start>1762</start>
										<end>5502</end>
										<in>0</in>
										<out>3740</out>
										<pproTicksIn>0</pproTicksIn>
										<pproTicksOut>31698995328000</pproTicksOut>
										<sequence id="sequence-22"/>
										<sourcetrack>
											<mediatype>audio</mediatype>
											<trackindex>0</trackindex>
										</sourcetrack>
										<link>
											<linkclipref>clipitem-316</linkclipref>
											<mediatype>video</mediatype>
											<trackindex>1</trackindex>
											<clipindex>2</clipindex>
										</link>
										<link>
											<linkclipref>clipitem-334</linkclipref>
											<mediatype>audio</mediatype>
											<trackindex>1</trackindex>
											<clipindex>2</clipindex>
											<groupindex>1</groupindex>
										</link>
										<link>
											<linkclipref>clipitem-336</linkclipref>
											<mediatype>audio</mediatype>
											<trackindex>2</trackindex>
											<clipindex>2</clipindex>
											<groupindex>1</groupindex>
										</link>
										<labels>
											<label2>Forest</label2>
										</labels>
									</clipitem>
									<enabled>TRUE</enabled>
									<locked>FALSE</locked>
									<outputchannelindex>1</outputchannelindex>
								</track>
								<track TL.SQTrackAudioKeyframeStyle="0" TL.SQTrackShy="0" TL.SQTrackExpandedHeight="54" TL.SQTrackExpanded="0" MZ.TrackTargeted="1" PannerCurrentValue="0.5" PannerIsInverted="true" PannerStartKeyframe="-91445760000000000,0.5,0,0,0,0,0,0" PannerName="Balance" currentExplodedTrackIndex="1" totalExplodedTrackCount="2" premiereTrackType="Stereo">
									<clipitem id="clipitem-335" premiereChannelType="stereo">
										<masterclipid>masterclip-105</masterclipid>
										<name>FASH_CUTECROCHETEDDRESS_1</name>
										<enabled>TRUE</enabled>
										<duration>1678</duration>
										<rate>
											<timebase>30</timebase>
											<ntsc>TRUE</ntsc>
										</rate>
										<start>0</start>
										<end>1678</end>
										<in>0</in>
										<out>1678</out>
										<pproTicksIn>0</pproTicksIn>
										<pproTicksOut>14222169561600</pproTicksOut>
										<sequence id="sequence-21"/>
										<sourcetrack>
											<mediatype>audio</mediatype>
											<trackindex>1</trackindex>
										</sourcetrack>
										<link>
											<linkclipref>clipitem-305</linkclipref>
											<mediatype>video</mediatype>
											<trackindex>1</trackindex>
											<clipindex>1</clipindex>
										</link>
										<link>
											<linkclipref>clipitem-333</linkclipref>
											<mediatype>audio</mediatype>
											<trackindex>1</trackindex>
											<clipindex>1</clipindex>
											<groupindex>1</groupindex>
										</link>
										<link>
											<linkclipref>clipitem-335</linkclipref>
											<mediatype>audio</mediatype>
											<trackindex>2</trackindex>
											<clipindex>1</clipindex>
											<groupindex>1</groupindex>
										</link>
										<labels>
											<label2>Forest</label2>
										</labels>
									</clipitem>
									<clipitem id="clipitem-336" premiereChannelType="stereo">
										<masterclipid>masterclip-109</masterclipid>
										<name>ART_HOUSEOFGLASS_2</name>
										<enabled>TRUE</enabled>
										<duration>5725</duration>
										<rate>
											<timebase>30</timebase>
											<ntsc>TRUE</ntsc>
										</rate>
										<start>1762</start>
										<end>5502</end>
										<in>0</in>
										<out>3740</out>
										<pproTicksIn>0</pproTicksIn>
										<pproTicksOut>31698995328000</pproTicksOut>
										<sequence id="sequence-22"/>
										<sourcetrack>
											<mediatype>audio</mediatype>
											<trackindex>1</trackindex>
										</sourcetrack>
										<link>
											<linkclipref>clipitem-316</linkclipref>
											<mediatype>video</mediatype>
											<trackindex>1</trackindex>
											<clipindex>2</clipindex>
										</link>
										<link>
											<linkclipref>clipitem-334</linkclipref>
											<mediatype>audio</mediatype>
											<trackindex>1</trackindex>
											<clipindex>2</clipindex>
											<groupindex>1</groupindex>
										</link>
										<link>
											<linkclipref>clipitem-336</linkclipref>
											<mediatype>audio</mediatype>
											<trackindex>2</trackindex>
											<clipindex>2</clipindex>
											<groupindex>1</groupindex>
										</link>
										<labels>
											<label2>Forest</label2>
										</labels>
									</clipitem>
									<enabled>TRUE</enabled>
									<locked>FALSE</locked>
									<outputchannelindex>2</outputchannelindex>
								</track>
								<track TL.SQTrackAudioKeyframeStyle="0" TL.SQTrackShy="0" TL.SQTrackExpandedHeight="54" TL.SQTrackExpanded="0" MZ.TrackTargeted="1" PannerCurrentValue="0.5" PannerIsInverted="true" PannerStartKeyframe="-91445760000000000,0.5,0,0,0,0,0,0" PannerName="Balance" currentExplodedTrackIndex="0" totalExplodedTrackCount="2" premiereTrackType="Stereo">
									<clipitem id="clipitem-337" premiereChannelType="stereo">
										<masterclipid>masterclip-104</masterclipid>
										<name>CRAFTY_TRAN03_JL_V01.mov</name>
										<enabled>TRUE</enabled>
										<duration>120</duration>
										<rate>
											<timebase>30</timebase>
											<ntsc>TRUE</ntsc>
										</rate>
										<start>1655</start>
										<end>1775</end>
										<in>0</in>
										<out>120</out>
										<pproTicksIn>0</pproTicksIn>
										<pproTicksOut>1017080064000</pproTicksOut>
										<file id="file-91"/>
										<sourcetrack>
											<mediatype>audio</mediatype>
											<trackindex>1</trackindex>
										</sourcetrack>
										<link>
											<linkclipref>clipitem-331</linkclipref>
											<mediatype>video</mediatype>
											<trackindex>4</trackindex>
											<clipindex>1</clipindex>
										</link>
										<link>
											<linkclipref>clipitem-337</linkclipref>
											<mediatype>audio</mediatype>
											<trackindex>3</trackindex>
											<clipindex>1</clipindex>
											<groupindex>1</groupindex>
										</link>
										<link>
											<linkclipref>clipitem-339</linkclipref>
											<mediatype>audio</mediatype>
											<trackindex>4</trackindex>
											<clipindex>1</clipindex>
											<groupindex>1</groupindex>
										</link>
										<logginginfo>
											<description></description>
											<scene></scene>
											<shottake></shottake>
											<lognote></lognote>
											<good></good>
											<originalvideofilename></originalvideofilename>
											<originalaudiofilename></originalaudiofilename>
										</logginginfo>
										<colorinfo>
											<lut></lut>
											<lut1></lut1>
											<asc_sop></asc_sop>
											<asc_sat></asc_sat>
											<lut2></lut2>
										</colorinfo>
										<labels>
											<label2>Iris</label2>
										</labels>
									</clipitem>
									<clipitem id="clipitem-338" premiereChannelType="stereo">
										<masterclipid>masterclip-117</masterclipid>
										<name>CRAFTY_TRAN01_JL_V01.mov</name>
										<enabled>TRUE</enabled>
										<duration>120</duration>
										<rate>
											<timebase>30</timebase>
											<ntsc>TRUE</ntsc>
										</rate>
										<start>5481</start>
										<end>5601</end>
										<in>0</in>
										<out>120</out>
										<pproTicksIn>0</pproTicksIn>
										<pproTicksOut>1017080064000</pproTicksOut>
										<file id="file-102"/>
										<sourcetrack>
											<mediatype>audio</mediatype>
											<trackindex>1</trackindex>
										</sourcetrack>
										<link>
											<linkclipref>clipitem-332</linkclipref>
											<mediatype>video</mediatype>
											<trackindex>4</trackindex>
											<clipindex>2</clipindex>
										</link>
										<link>
											<linkclipref>clipitem-338</linkclipref>
											<mediatype>audio</mediatype>
											<trackindex>3</trackindex>
											<clipindex>2</clipindex>
											<groupindex>1</groupindex>
										</link>
										<link>
											<linkclipref>clipitem-340</linkclipref>
											<mediatype>audio</mediatype>
											<trackindex>4</trackindex>
											<clipindex>2</clipindex>
											<groupindex>1</groupindex>
										</link>
										<logginginfo>
											<description></description>
											<scene></scene>
											<shottake></shottake>
											<lognote></lognote>
											<good></good>
											<originalvideofilename></originalvideofilename>
											<originalaudiofilename></originalaudiofilename>
										</logginginfo>
										<colorinfo>
											<lut></lut>
											<lut1></lut1>
											<asc_sop></asc_sop>
											<asc_sat></asc_sat>
											<lut2></lut2>
										</colorinfo>
										<labels>
											<label2>Iris</label2>
										</labels>
									</clipitem>
									<enabled>TRUE</enabled>
									<locked>FALSE</locked>
									<outputchannelindex>1</outputchannelindex>
								</track>
								<track TL.SQTrackAudioKeyframeStyle="0" TL.SQTrackShy="0" TL.SQTrackExpandedHeight="54" TL.SQTrackExpanded="0" MZ.TrackTargeted="1" PannerCurrentValue="0.5" PannerIsInverted="true" PannerStartKeyframe="-91445760000000000,0.5,0,0,0,0,0,0" PannerName="Balance" currentExplodedTrackIndex="1" totalExplodedTrackCount="2" premiereTrackType="Stereo">
									<clipitem id="clipitem-339" premiereChannelType="stereo">
										<masterclipid>masterclip-104</masterclipid>
										<name>CRAFTY_TRAN03_JL_V01.mov</name>
										<enabled>TRUE</enabled>
										<duration>120</duration>
										<rate>
											<timebase>30</timebase>
											<ntsc>TRUE</ntsc>
										</rate>
										<start>1655</start>
										<end>1775</end>
										<in>0</in>
										<out>120</out>
										<pproTicksIn>0</pproTicksIn>
										<pproTicksOut>1017080064000</pproTicksOut>
										<file id="file-91"/>
										<sourcetrack>
											<mediatype>audio</mediatype>
											<trackindex>2</trackindex>
										</sourcetrack>
										<link>
											<linkclipref>clipitem-331</linkclipref>
											<mediatype>video</mediatype>
											<trackindex>4</trackindex>
											<clipindex>1</clipindex>
										</link>
										<link>
											<linkclipref>clipitem-337</linkclipref>
											<mediatype>audio</mediatype>
											<trackindex>3</trackindex>
											<clipindex>1</clipindex>
											<groupindex>1</groupindex>
										</link>
										<link>
											<linkclipref>clipitem-339</linkclipref>
											<mediatype>audio</mediatype>
											<trackindex>4</trackindex>
											<clipindex>1</clipindex>
											<groupindex>1</groupindex>
										</link>
										<logginginfo>
											<description></description>
											<scene></scene>
											<shottake></shottake>
											<lognote></lognote>
											<good></good>
											<originalvideofilename></originalvideofilename>
											<originalaudiofilename></originalaudiofilename>
										</logginginfo>
										<colorinfo>
											<lut></lut>
											<lut1></lut1>
											<asc_sop></asc_sop>
											<asc_sat></asc_sat>
											<lut2></lut2>
										</colorinfo>
										<labels>
											<label2>Iris</label2>
										</labels>
									</clipitem>
									<clipitem id="clipitem-340" premiereChannelType="stereo">
										<masterclipid>masterclip-117</masterclipid>
										<name>CRAFTY_TRAN01_JL_V01.mov</name>
										<enabled>TRUE</enabled>
										<duration>120</duration>
										<rate>
											<timebase>30</timebase>
											<ntsc>TRUE</ntsc>
										</rate>
										<start>5481</start>
										<end>5601</end>
										<in>0</in>
										<out>120</out>
										<pproTicksIn>0</pproTicksIn>
										<pproTicksOut>1017080064000</pproTicksOut>
										<file id="file-102"/>
										<sourcetrack>
											<mediatype>audio</mediatype>
											<trackindex>2</trackindex>
										</sourcetrack>
										<link>
											<linkclipref>clipitem-332</linkclipref>
											<mediatype>video</mediatype>
											<trackindex>4</trackindex>
											<clipindex>2</clipindex>
										</link>
										<link>
											<linkclipref>clipitem-338</linkclipref>
											<mediatype>audio</mediatype>
											<trackindex>3</trackindex>
											<clipindex>2</clipindex>
											<groupindex>1</groupindex>
										</link>
										<link>
											<linkclipref>clipitem-340</linkclipref>
											<mediatype>audio</mediatype>
											<trackindex>4</trackindex>
											<clipindex>2</clipindex>
											<groupindex>1</groupindex>
										</link>
										<logginginfo>
											<description></description>
											<scene></scene>
											<shottake></shottake>
											<lognote></lognote>
											<good></good>
											<originalvideofilename></originalvideofilename>
											<originalaudiofilename></originalaudiofilename>
										</logginginfo>
										<colorinfo>
											<lut></lut>
											<lut1></lut1>
											<asc_sop></asc_sop>
											<asc_sat></asc_sat>
											<lut2></lut2>
										</colorinfo>
										<labels>
											<label2>Iris</label2>
										</labels>
									</clipitem>
									<enabled>TRUE</enabled>
									<locked>FALSE</locked>
									<outputchannelindex>2</outputchannelindex>
								</track>
								<track TL.SQTrackAudioKeyframeStyle="0" TL.SQTrackShy="0" TL.SQTrackExpandedHeight="54" TL.SQTrackExpanded="0" MZ.TrackTargeted="1" PannerCurrentValue="0.5" PannerIsInverted="true" PannerStartKeyframe="-91445760000000000,0.5,0,0,0,0,0,0" PannerName="Balance" currentExplodedTrackIndex="0" totalExplodedTrackCount="2" premiereTrackType="Stereo">
									<enabled>TRUE</enabled>
									<locked>FALSE</locked>
									<outputchannelindex>1</outputchannelindex>
								</track>
								<track TL.SQTrackAudioKeyframeStyle="0" TL.SQTrackShy="0" TL.SQTrackExpandedHeight="54" TL.SQTrackExpanded="0" MZ.TrackTargeted="1" PannerCurrentValue="0.5" PannerIsInverted="true" PannerStartKeyframe="-91445760000000000,0.5,0,0,0,0,0,0" PannerName="Balance" currentExplodedTrackIndex="1" totalExplodedTrackCount="2" premiereTrackType="Stereo">
									<enabled>TRUE</enabled>
									<locked>FALSE</locked>
									<outputchannelindex>2</outputchannelindex>
								</track>
								<track TL.SQTrackAudioKeyframeStyle="0" TL.SQTrackShy="0" TL.SQTrackExpandedHeight="25" TL.SQTrackExpanded="0" MZ.TrackTargeted="0" PannerCurrentValue="0.5" PannerIsInverted="true" PannerStartKeyframe="-91445760000000000,0.5,0,0,0,0,0,0" PannerName="Balance" currentExplodedTrackIndex="0" totalExplodedTrackCount="2" premiereTrackType="Stereo">
									<enabled>TRUE</enabled>
									<locked>FALSE</locked>
									<outputchannelindex>1</outputchannelindex>
								</track>
								<track TL.SQTrackAudioKeyframeStyle="0" TL.SQTrackShy="0" TL.SQTrackExpandedHeight="25" TL.SQTrackExpanded="0" MZ.TrackTargeted="0" PannerCurrentValue="0.5" PannerIsInverted="true" PannerStartKeyframe="-91445760000000000,0.5,0,0,0,0,0,0" PannerName="Balance" currentExplodedTrackIndex="1" totalExplodedTrackCount="2" premiereTrackType="Stereo">
									<enabled>TRUE</enabled>
									<locked>FALSE</locked>
									<outputchannelindex>2</outputchannelindex>
								</track>
							</audio>
						</media>
						<timecode>
							<rate>
								<timebase>30</timebase>
								<ntsc>TRUE</ntsc>
							</rate>
							<string>00;00;00;00</string>
							<frame>0</frame>
							<displayformat>DF</displayformat>
						</timecode>
						<labels>
							<label2>Forest</label2>
						</labels>
						<logginginfo>
							<description></description>
							<scene></scene>
							<shottake></shottake>
							<lognote></lognote>
							<good></good>
							<originalvideofilename></originalvideofilename>
							<originalaudiofilename></originalaudiofilename>
						</logginginfo>
					</sequence>
					<sequence id="sequence-23" TL.SQAudioVisibleBase="0" TL.SQVideoVisibleBase="0" TL.SQVisibleBaseTime="0" TL.SQAVDividerPosition="0.5" TL.SQHideShyTracks="0" TL.SQHeaderWidth="236" TL.SQDataTrackViewControlState="0" Monitor.ProgramZoomOut="48040081689600" Monitor.ProgramZoomIn="0" TL.SQTimePerPixel="0.2139720399118355" MZ.EditLine="46361899584000" MZ.Sequence.PreviewFrameSizeHeight="1080" MZ.Sequence.PreviewFrameSizeWidth="1920" MZ.Sequence.AudioTimeDisplayFormat="200" MZ.Sequence.PreviewRenderingClassID="1061109567" MZ.Sequence.PreviewRenderingPresetCodec="1634755443" MZ.Sequence.PreviewRenderingPresetPath="EncoderPresets/SequencePreview/35d109db-457b-43c1-9452-9cb7be9f121c/QuickTime.epr" MZ.Sequence.PreviewUseMaxRenderQuality="false" MZ.Sequence.PreviewUseMaxBitDepth="false" MZ.Sequence.EditingModeGUID="35d109db-457b-43c1-9452-9cb7be9f121c" MZ.Sequence.VideoTimeDisplayFormat="102" MZ.WorkOutPoint="15239249625600" MZ.WorkInPoint="0" explodedTracks="true">
						<uuid>f00e10c1-8a94-483e-9851-e0419e35c5c5</uuid>
						<duration>5668</duration>
						<rate>
							<timebase>30</timebase>
							<ntsc>TRUE</ntsc>
						</rate>
						<name>ATM_CRAFTY_303</name>
						<media>
							<video>
								<format>
									<samplecharacteristics>
										<rate>
											<timebase>30</timebase>
											<ntsc>TRUE</ntsc>
										</rate>
										<codec>
											<name>Apple ProRes 422</name>
											<appspecificdata>
												<appname>Final Cut Pro</appname>
												<appmanufacturer>Apple Inc.</appmanufacturer>
												<appversion>7.0</appversion>
												<data>
													<qtcodec>
														<codecname>Apple ProRes 422</codecname>
														<codectypename>Apple ProRes 422</codectypename>
														<codectypecode>apcn</codectypecode>
														<codecvendorcode>appl</codecvendorcode>
														<spatialquality>1024</spatialquality>
														<temporalquality>0</temporalquality>
														<keyframerate>0</keyframerate>
														<datarate>0</datarate>
													</qtcodec>
												</data>
											</appspecificdata>
										</codec>
										<width>1920</width>
										<height>1080</height>
										<anamorphic>FALSE</anamorphic>
										<pixelaspectratio>square</pixelaspectratio>
										<fielddominance>none</fielddominance>
										<colordepth>24</colordepth>
									</samplecharacteristics>
								</format>
								<track TL.SQTrackShy="0" TL.SQTrackExpandedHeight="25" TL.SQTrackExpanded="0" MZ.TrackTargeted="1">
									<clipitem id="clipitem-341">
										<masterclipid>masterclip-118</masterclipid>
										<name>BEAUTY_BEGINNERWIGINSTALL_1</name>
										<enabled>TRUE</enabled>
										<duration>2556</duration>
										<rate>
											<timebase>30</timebase>
											<ntsc>TRUE</ntsc>
										</rate>
										<start>0</start>
										<end>2126</end>
										<in>0</in>
										<out>2126</out>
										<pproTicksIn>0</pproTicksIn>
										<pproTicksOut>18019268467200</pproTicksOut>
										<sequence id="sequence-24" TL.SQAudioVisibleBase="0" TL.SQVideoVisibleBase="0" TL.SQVisibleBaseTime="0" TL.SQAVDividerPosition="0.5" TL.SQHideShyTracks="0" TL.SQHeaderWidth="236" Monitor.ProgramZoomOut="18019268467200" Monitor.ProgramZoomIn="0" TL.SQTimePerPixel="0.27581796244610296" MZ.EditLine="0" MZ.Sequence.PreviewFrameSizeHeight="1080" MZ.Sequence.PreviewFrameSizeWidth="1920" MZ.Sequence.AudioTimeDisplayFormat="200" MZ.Sequence.PreviewRenderingClassID="1061109567" MZ.Sequence.PreviewRenderingPresetCodec="1634755443" MZ.Sequence.PreviewRenderingPresetPath="EncoderPresets/SequencePreview/35d109db-457b-43c1-9452-9cb7be9f121c/QuickTime.epr" MZ.Sequence.PreviewUseMaxRenderQuality="false" MZ.Sequence.PreviewUseMaxBitDepth="false" MZ.Sequence.EditingModeGUID="35d109db-457b-43c1-9452-9cb7be9f121c" MZ.Sequence.VideoTimeDisplayFormat="102" MZ.WorkOutPoint="21663805363200" MZ.WorkInPoint="0">
											<duration>2126</duration>
											<rate>
												<timebase>30</timebase>
												<ntsc>TRUE</ntsc>
											</rate>
											<name>BEAUTY_BEGINNERWIGINSTALL_1</name>
											<media>
												<video>
													<format>
														<samplecharacteristics>
															<rate>
																<timebase>30</timebase>
																<ntsc>TRUE</ntsc>
															</rate>
															<codec>
																<name>Apple ProRes 422</name>
																<appspecificdata>
																	<appname>Final Cut Pro</appname>
																	<appmanufacturer>Apple Inc.</appmanufacturer>
																	<appversion>7.0</appversion>
																	<data>
																		<qtcodec>
																			<codecname>Apple ProRes 422</codecname>
																			<codectypename>Apple ProRes 422</codectypename>
																			<codectypecode>apcn</codectypecode>
																			<codecvendorcode>appl</codecvendorcode>
																			<spatialquality>1024</spatialquality>
																			<temporalquality>0</temporalquality>
																			<keyframerate>0</keyframerate>
																			<datarate>0</datarate>
																		</qtcodec>
																	</data>
																</appspecificdata>
															</codec>
															<width>1920</width>
															<height>1080</height>
															<anamorphic>FALSE</anamorphic>
															<pixelaspectratio>square</pixelaspectratio>
															<fielddominance>none</fielddominance>
															<colordepth>24</colordepth>
														</samplecharacteristics>
													</format>
													<track TL.SQTrackShy="0" TL.SQTrackExpandedHeight="25" TL.SQTrackExpanded="0" MZ.TrackTargeted="1">
														<clipitem id="clipitem-342">
															<masterclipid>masterclip-119</masterclipid>
															<name>(OnlyOneJess)_OMG!! EFFORTLESS BEGINNER WIG Wear and GO _ NEW 4.5_x6_ GLUELESS Pre Cut + PRE PLUCKED _  Junoda_ca-fuhk4Jvs_YT.mp4</name>
															<enabled>TRUE</enabled>
															<duration>8640</duration>
															<rate>
																<timebase>30</timebase>
																<ntsc>TRUE</ntsc>
															</rate>
															<start>0</start>
															<end>456</end>
															<in>1895</in>
															<out>2350</out>
															<pproTicksIn>20706054969600</pproTicksIn>
															<pproTicksOut>25689747283200</pproTicksOut>
															<alphatype>none</alphatype>
															<pixelaspectratio>square</pixelaspectratio>
															<anamorphic>FALSE</anamorphic>
															<file id="file-103">
																<name>(OnlyOneJess)_OMG!! EFFORTLESS BEGINNER WIG Wear and GO _ NEW 4.5_x6_ GLUELESS Pre Cut + PRE PLUCKED _  Junoda_ca-fuhk4Jvs_YT.mp4</name>
																<pathurl>file://localhost/Volumes/ATM%20JR%202TB/Crafty/2023/06_June/Crafty_6-19-23/3_Raw%20Footage/wig%20install/(OnlyOneJess)_OMG!!%20EFFORTLESS%20BEGINNER%20WIG%20Wear%20and%20GO%20_%20NEW%204.5_x6_%20GLUELESS%20Pre%20Cut%20+%20PRE%20PLUCKED%20_%20%20Junoda_ca-fuhk4Jvs_YT.mp4</pathurl>
																<rate>
																	<timebase>24</timebase>
																	<ntsc>TRUE</ntsc>
																</rate>
																<duration>8914</duration>
																<timecode>
																	<rate>
																		<timebase>24</timebase>
																		<ntsc>TRUE</ntsc>
																	</rate>
																	<string>00:00:00:00</string>
																	<frame>0</frame>
																	<displayformat>NDF</displayformat>
																</timecode>
																<media>
																	<video>
																		<samplecharacteristics>
																			<rate>
																				<timebase>24</timebase>
																				<ntsc>TRUE</ntsc>
																			</rate>
																			<width>1920</width>
																			<height>1080</height>
																			<anamorphic>FALSE</anamorphic>
																			<pixelaspectratio>square</pixelaspectratio>
																			<fielddominance>none</fielddominance>
																		</samplecharacteristics>
																	</video>
																	<audio>
																		<samplecharacteristics>
																			<depth>16</depth>
																			<samplerate>44100</samplerate>
																		</samplecharacteristics>
																		<channelcount>2</channelcount>
																	</audio>
																</media>
															</file>
															<filter>
																<effect>
																	<name>Time Remap</name>
																	<effectid>timeremap</effectid>
																	<effectcategory>motion</effectcategory>
																	<effecttype>motion</effecttype>
																	<mediatype>video</mediatype>
																	<parameter authoringApp="PremierePro">
																		<parameterid>variablespeed</parameterid>
																		<name>variablespeed</name>
																		<valuemin>0</valuemin>
																		<valuemax>1</valuemax>
																		<value>0</value>
																	</parameter>
																	<parameter authoringApp="PremierePro">
																		<parameterid>speed</parameterid>
																		<name>speed</name>
																		<valuemin>-100000</valuemin>
																		<valuemax>100000</valuemax>
																		<value>128.947</value>
																	</parameter>
																	<parameter authoringApp="PremierePro">
																		<parameterid>reverse</parameterid>
																		<name>reverse</name>
																		<value>FALSE</value>
																	</parameter>
																	<parameter authoringApp="PremierePro">
																		<parameterid>frameblending</parameterid>
																		<name>frameblending</name>
																		<value>FALSE</value>
																	</parameter>
																	<parameter authoringApp="PremierePro">
																		<parameterid>graphdict</parameterid>
																		<name>graphdict</name>
																		<valuemin>0</valuemin>
																		<valuemax>11141</valuemax>
																		<value>0</value>
																		<keyframe>
																			<when>0</when>
																			<value>0</value>
																			<speedvirtualkf>TRUE</speedvirtualkf>
																			<speedkfstart>TRUE</speedkfstart>
																		</keyframe>
																		<keyframe>
																			<when>1895</when>
																			<value>2443</value>
																			<speedvirtualkf>TRUE</speedvirtualkf>
																			<speedkfin>TRUE</speedkfin>
																		</keyframe>
																		<keyframe>
																			<when>2350</when>
																			<value>3030</value>
																			<speedvirtualkf>TRUE</speedvirtualkf>
																			<speedkfout>TRUE</speedkfout>
																		</keyframe>
																		<keyframe>
																			<when>8640</when>
																			<value>11141</value>
																			<speedvirtualkf>TRUE</speedvirtualkf>
																			<speedkfend>TRUE</speedkfend>
																		</keyframe>
																		<interpolation>
																			<name>FCPCurve</name>
																		</interpolation>
																	</parameter>
																</effect>
															</filter>
															<logginginfo>
																<description></description>
																<scene></scene>
																<shottake></shottake>
																<lognote>https://www.youtube.com/watch?v=ca-fuhk4Jvs</lognote>
																<good></good>
																<originalvideofilename></originalvideofilename>
																<originalaudiofilename></originalaudiofilename>
															</logginginfo>
															<colorinfo>
																<lut></lut>
																<lut1></lut1>
																<asc_sop></asc_sop>
																<asc_sat></asc_sat>
																<lut2></lut2>
															</colorinfo>
															<labels>
																<label2>Iris</label2>
															</labels>
														</clipitem>
														<clipitem id="clipitem-343">
															<masterclipid>masterclip-119</masterclipid>
															<name>(OnlyOneJess)_OMG!! EFFORTLESS BEGINNER WIG Wear and GO _ NEW 4.5_x6_ GLUELESS Pre Cut + PRE PLUCKED _  Junoda_ca-fuhk4Jvs_YT.mp4</name>
															<enabled>TRUE</enabled>
															<duration>8991</duration>
															<rate>
																<timebase>30</timebase>
																<ntsc>TRUE</ntsc>
															</rate>
															<start>456</start>
															<end>870</end>
															<in>4490</in>
															<out>4903</out>
															<pproTicksIn>47150136633600</pproTicksIn>
															<pproTicksOut>51498153907200</pproTicksOut>
															<alphatype>none</alphatype>
															<file id="file-103"/>
															<filter>
																<effect>
																	<name>Time Remap</name>
																	<effectid>timeremap</effectid>
																	<effectcategory>motion</effectcategory>
																	<effecttype>motion</effecttype>
																	<mediatype>video</mediatype>
																	<parameter authoringApp="PremierePro">
																		<parameterid>variablespeed</parameterid>
																		<name>variablespeed</name>
																		<valuemin>0</valuemin>
																		<valuemax>1</valuemax>
																		<value>0</value>
																	</parameter>
																	<parameter authoringApp="PremierePro">
																		<parameterid>speed</parameterid>
																		<name>speed</name>
																		<valuemin>-100000</valuemin>
																		<valuemax>100000</valuemax>
																		<value>123.913</value>
																	</parameter>
																	<parameter authoringApp="PremierePro">
																		<parameterid>reverse</parameterid>
																		<name>reverse</name>
																		<value>FALSE</value>
																	</parameter>
																	<parameter authoringApp="PremierePro">
																		<parameterid>frameblending</parameterid>
																		<name>frameblending</name>
																		<value>FALSE</value>
																	</parameter>
																	<parameter authoringApp="PremierePro">
																		<parameterid>graphdict</parameterid>
																		<name>graphdict</name>
																		<valuemin>0</valuemin>
																		<valuemax>11141</valuemax>
																		<value>0</value>
																		<keyframe>
																			<when>0</when>
																			<value>0</value>
																			<speedvirtualkf>TRUE</speedvirtualkf>
																			<speedkfstart>TRUE</speedkfstart>
																		</keyframe>
																		<keyframe>
																			<when>4490</when>
																			<value>5563</value>
																			<speedvirtualkf>TRUE</speedvirtualkf>
																			<speedkfin>TRUE</speedkfin>
																		</keyframe>
																		<keyframe>
																			<when>4903</when>
																			<value>6075</value>
																			<speedvirtualkf>TRUE</speedvirtualkf>
																			<speedkfout>TRUE</speedkfout>
																		</keyframe>
																		<keyframe>
																			<when>8991</when>
																			<value>11141</value>
																			<speedvirtualkf>TRUE</speedvirtualkf>
																			<speedkfend>TRUE</speedkfend>
																		</keyframe>
																		<interpolation>
																			<name>FCPCurve</name>
																		</interpolation>
																	</parameter>
																</effect>
															</filter>
															<logginginfo>
																<description></description>
																<scene></scene>
																<shottake></shottake>
																<lognote>https://www.youtube.com/watch?v=ca-fuhk4Jvs</lognote>
																<good></good>
																<originalvideofilename></originalvideofilename>
																<originalaudiofilename></originalaudiofilename>
															</logginginfo>
															<colorinfo>
																<lut></lut>
																<lut1></lut1>
																<asc_sop></asc_sop>
																<asc_sat></asc_sat>
																<lut2></lut2>
															</colorinfo>
															<labels>
																<label2>Iris</label2>
															</labels>
														</clipitem>
														<clipitem id="clipitem-344">
															<masterclipid>masterclip-119</masterclipid>
															<name>(OnlyOneJess)_OMG!! EFFORTLESS BEGINNER WIG Wear and GO _ NEW 4.5_x6_ GLUELESS Pre Cut + PRE PLUCKED _  Junoda_ca-fuhk4Jvs_YT.mp4</name>
															<enabled>TRUE</enabled>
															<duration>9210</duration>
															<rate>
																<timebase>30</timebase>
																<ntsc>TRUE</ntsc>
															</rate>
															<start>870</start>
															<end>1423</end>
															<in>5192</in>
															<out>5744</out>
															<pproTicksIn>53235665683200</pproTicksIn>
															<pproTicksOut>58905887040000</pproTicksOut>
															<alphatype>none</alphatype>
															<file id="file-103"/>
															<filter>
																<effect>
																	<name>Time Remap</name>
																	<effectid>timeremap</effectid>
																	<effectcategory>motion</effectcategory>
																	<effecttype>motion</effecttype>
																	<mediatype>video</mediatype>
																	<parameter authoringApp="PremierePro">
																		<parameterid>variablespeed</parameterid>
																		<name>variablespeed</name>
																		<valuemin>0</valuemin>
																		<valuemax>1</valuemax>
																		<value>0</value>
																	</parameter>
																	<parameter authoringApp="PremierePro">
																		<parameterid>speed</parameterid>
																		<name>speed</name>
																		<valuemin>-100000</valuemin>
																		<valuemax>100000</valuemax>
																		<value>120.976</value>
																	</parameter>
																	<parameter authoringApp="PremierePro">
																		<parameterid>reverse</parameterid>
																		<name>reverse</name>
																		<value>FALSE</value>
																	</parameter>
																	<parameter authoringApp="PremierePro">
																		<parameterid>frameblending</parameterid>
																		<name>frameblending</name>
																		<value>FALSE</value>
																	</parameter>
																	<parameter authoringApp="PremierePro">
																		<parameterid>graphdict</parameterid>
																		<name>graphdict</name>
																		<valuemin>0</valuemin>
																		<valuemax>11141</valuemax>
																		<value>0</value>
																		<keyframe>
																			<when>0</when>
																			<value>0</value>
																			<speedvirtualkf>TRUE</speedvirtualkf>
																			<speedkfstart>TRUE</speedkfstart>
																		</keyframe>
																		<keyframe>
																			<when>5192</when>
																			<value>6281</value>
																			<speedvirtualkf>TRUE</speedvirtualkf>
																			<speedkfin>TRUE</speedkfin>
																		</keyframe>
																		<keyframe>
																			<when>5744</when>
																			<value>6948</value>
																			<speedvirtualkf>TRUE</speedvirtualkf>
																			<speedkfout>TRUE</speedkfout>
																		</keyframe>
																		<keyframe>
																			<when>9210</when>
																			<value>11141</value>
																			<speedvirtualkf>TRUE</speedvirtualkf>
																			<speedkfend>TRUE</speedkfend>
																		</keyframe>
																		<interpolation>
																			<name>FCPCurve</name>
																		</interpolation>
																	</parameter>
																</effect>
															</filter>
															<logginginfo>
																<description></description>
																<scene></scene>
																<shottake></shottake>
																<lognote>https://www.youtube.com/watch?v=ca-fuhk4Jvs</lognote>
																<good></good>
																<originalvideofilename></originalvideofilename>
																<originalaudiofilename></originalaudiofilename>
															</logginginfo>
															<colorinfo>
																<lut></lut>
																<lut1></lut1>
																<asc_sop></asc_sop>
																<asc_sat></asc_sat>
																<lut2></lut2>
															</colorinfo>
															<labels>
																<label2>Iris</label2>
															</labels>
														</clipitem>
														<clipitem id="clipitem-345">
															<masterclipid>masterclip-119</masterclipid>
															<name>(OnlyOneJess)_OMG!! EFFORTLESS BEGINNER WIG Wear and GO _ NEW 4.5_x6_ GLUELESS Pre Cut + PRE PLUCKED _  Junoda_ca-fuhk4Jvs_YT.mp4</name>
															<enabled>TRUE</enabled>
															<duration>8414</duration>
															<rate>
																<timebase>30</timebase>
																<ntsc>TRUE</ntsc>
															</rate>
															<start>1423</start>
															<end>1679</end>
															<in>5767</in>
															<out>6022</out>
															<pproTicksIn>64720194739200</pproTicksIn>
															<pproTicksOut>67593445920000</pproTicksOut>
															<alphatype>none</alphatype>
															<file id="file-103"/>
															<filter>
																<effect>
																	<name>Time Remap</name>
																	<effectid>timeremap</effectid>
																	<effectcategory>motion</effectcategory>
																	<effecttype>motion</effecttype>
																	<mediatype>video</mediatype>
																	<parameter authoringApp="PremierePro">
																		<parameterid>variablespeed</parameterid>
																		<name>variablespeed</name>
																		<valuemin>0</valuemin>
																		<valuemax>1</valuemax>
																		<value>0</value>
																	</parameter>
																	<parameter authoringApp="PremierePro">
																		<parameterid>speed</parameterid>
																		<name>speed</name>
																		<valuemin>-100000</valuemin>
																		<valuemax>100000</valuemax>
																		<value>132.422</value>
																	</parameter>
																	<parameter authoringApp="PremierePro">
																		<parameterid>reverse</parameterid>
																		<name>reverse</name>
																		<value>FALSE</value>
																	</parameter>
																	<parameter authoringApp="PremierePro">
																		<parameterid>frameblending</parameterid>
																		<name>frameblending</name>
																		<value>FALSE</value>
																	</parameter>
																	<parameter authoringApp="PremierePro">
																		<parameterid>graphdict</parameterid>
																		<name>graphdict</name>
																		<valuemin>0</valuemin>
																		<valuemax>11141</valuemax>
																		<value>0</value>
																		<keyframe>
																			<when>0</when>
																			<value>0</value>
																			<speedvirtualkf>TRUE</speedvirtualkf>
																			<speedkfstart>TRUE</speedkfstart>
																		</keyframe>
																		<keyframe>
																			<when>5767</when>
																			<value>7636</value>
																			<speedvirtualkf>TRUE</speedvirtualkf>
																			<speedkfin>TRUE</speedkfin>
																		</keyframe>
																		<keyframe>
																			<when>6022</when>
																			<value>7974</value>
																			<speedvirtualkf>TRUE</speedvirtualkf>
																			<speedkfout>TRUE</speedkfout>
																		</keyframe>
																		<keyframe>
																			<when>8414</when>
																			<value>11141</value>
																			<speedvirtualkf>TRUE</speedvirtualkf>
																			<speedkfend>TRUE</speedkfend>
																		</keyframe>
																		<interpolation>
																			<name>FCPCurve</name>
																		</interpolation>
																	</parameter>
																</effect>
															</filter>
															<logginginfo>
																<description></description>
																<scene></scene>
																<shottake></shottake>
																<lognote>https://www.youtube.com/watch?v=ca-fuhk4Jvs</lognote>
																<good></good>
																<originalvideofilename></originalvideofilename>
																<originalaudiofilename></originalaudiofilename>
															</logginginfo>
															<colorinfo>
																<lut></lut>
																<lut1></lut1>
																<asc_sop></asc_sop>
																<asc_sat></asc_sat>
																<lut2></lut2>
															</colorinfo>
															<labels>
																<label2>Iris</label2>
															</labels>
														</clipitem>
														<clipitem id="clipitem-346">
															<masterclipid>masterclip-119</masterclipid>
															<name>(OnlyOneJess)_OMG!! EFFORTLESS BEGINNER WIG Wear and GO _ NEW 4.5_x6_ GLUELESS Pre Cut + PRE PLUCKED _  Junoda_ca-fuhk4Jvs_YT.mp4</name>
															<enabled>TRUE</enabled>
															<duration>11142</duration>
															<rate>
																<timebase>30</timebase>
																<ntsc>TRUE</ntsc>
															</rate>
															<start>1679</start>
															<end>2126</end>
															<in>10094</in>
															<out>10541</out>
															<pproTicksIn>85553384716800</pproTicksIn>
															<pproTicksOut>89342007955200</pproTicksOut>
															<alphatype>none</alphatype>
															<file id="file-103"/>
															<filter>
																<effect>
																	<name>Basic Motion</name>
																	<effectid>basic</effectid>
																	<effectcategory>motion</effectcategory>
																	<effecttype>motion</effecttype>
																	<mediatype>video</mediatype>
																	<pproBypass>false</pproBypass>
																	<parameter authoringApp="PremierePro">
																		<parameterid>scale</parameterid>
																		<name>Scale</name>
																		<valuemin>0</valuemin>
																		<valuemax>1000</valuemax>
																		<value>134</value>
																	</parameter>
																	<parameter authoringApp="PremierePro">
																		<parameterid>rotation</parameterid>
																		<name>Rotation</name>
																		<valuemin>-8640</valuemin>
																		<valuemax>8640</valuemax>
																		<value>0</value>
																	</parameter>
																	<parameter authoringApp="PremierePro">
																		<parameterid>center</parameterid>
																		<name>Center</name>
																		<value>
																			<horiz>0</horiz>
																			<vert>0.0796296</vert>
																		</value>
																	</parameter>
																	<parameter authoringApp="PremierePro">
																		<parameterid>centerOffset</parameterid>
																		<name>Anchor Point</name>
																		<value>
																			<horiz>0</horiz>
																			<vert>0</vert>
																		</value>
																	</parameter>
																	<parameter authoringApp="PremierePro">
																		<parameterid>antiflicker</parameterid>
																		<name>Anti-flicker Filter</name>
																		<valuemin>0.0</valuemin>
																		<valuemax>1.0</valuemax>
																		<value>0</value>
																	</parameter>
																</effect>
															</filter>
															<logginginfo>
																<description></description>
																<scene></scene>
																<shottake></shottake>
																<lognote>https://www.youtube.com/watch?v=ca-fuhk4Jvs</lognote>
																<good></good>
																<originalvideofilename></originalvideofilename>
																<originalaudiofilename></originalaudiofilename>
															</logginginfo>
															<colorinfo>
																<lut></lut>
																<lut1></lut1>
																<asc_sop></asc_sop>
																<asc_sat></asc_sat>
																<lut2></lut2>
															</colorinfo>
															<labels>
																<label2>Iris</label2>
															</labels>
														</clipitem>
														<enabled>TRUE</enabled>
														<locked>FALSE</locked>
													</track>
													<track TL.SQTrackShy="0" TL.SQTrackExpandedHeight="25" TL.SQTrackExpanded="0" MZ.TrackTargeted="0">
														<clipitem id="clipitem-347">
															<masterclipid>masterclip-120</masterclipid>
															<name>onlyonejess</name>
															<enabled>TRUE</enabled>
															<duration>5844</duration>
															<rate>
																<timebase>30</timebase>
																<ntsc>TRUE</ntsc>
															</rate>
															<start>0</start>
															<end>2126</end>
															<in>0</in>
															<out>2126</out>
															<pproTicksIn>0</pproTicksIn>
															<pproTicksOut>18019268467200</pproTicksOut>
															<alphatype>straight</alphatype>
															<pixelaspectratio>square</pixelaspectratio>
															<anamorphic>FALSE</anamorphic>
															<file id="file-104">
																<name>1080/AE Attribution.aep</name>
																<pathurl>file://localhost/Volumes/ATM%20JR%202TB/Crafty/Master%20Assets%20/Attribution/AE%20Attribution.aep</pathurl>
																<rate>
																	<timebase>30</timebase>
																	<ntsc>TRUE</ntsc>
																</rate>
																<duration>5844</duration>
																<timecode>
																	<rate>
																		<timebase>30</timebase>
																		<ntsc>TRUE</ntsc>
																	</rate>
																	<string>00;00;00;00</string>
																	<frame>0</frame>
																	<displayformat>DF</displayformat>
																</timecode>
																<media>
																	<video>
																		<samplecharacteristics>
																			<rate>
																				<timebase>30</timebase>
																				<ntsc>TRUE</ntsc>
																			</rate>
																			<width>1920</width>
																			<height>1080</height>
																			<anamorphic>FALSE</anamorphic>
																			<pixelaspectratio>square</pixelaspectratio>
																			<fielddominance>lower</fielddominance>
																		</samplecharacteristics>
																	</video>
																</media>
															</file>
															<logginginfo>
																<description></description>
																<scene></scene>
																<shottake></shottake>
																<lognote></lognote>
																<good></good>
																<originalvideofilename></originalvideofilename>
																<originalaudiofilename></originalaudiofilename>
															</logginginfo>
															<colorinfo>
																<lut></lut>
																<lut1></lut1>
																<asc_sop></asc_sop>
																<asc_sat></asc_sat>
																<lut2></lut2>
															</colorinfo>
															<labels>
																<label2>Rose</label2>
															</labels>
														</clipitem>
														<enabled>TRUE</enabled>
														<locked>FALSE</locked>
													</track>
												</video>
												<audio>
													<numOutputChannels>2</numOutputChannels>
													<format>
														<samplecharacteristics>
															<depth>16</depth>
															<samplerate>48000</samplerate>
														</samplecharacteristics>
													</format>
													<outputs>
														<group>
															<index>1</index>
															<numchannels>1</numchannels>
															<downmix>0</downmix>
															<channel>
																<index>1</index>
															</channel>
														</group>
														<group>
															<index>2</index>
															<numchannels>1</numchannels>
															<downmix>0</downmix>
															<channel>
																<index>2</index>
															</channel>
														</group>
													</outputs>
													<track TL.SQTrackAudioKeyframeStyle="0" TL.SQTrackShy="0" TL.SQTrackExpandedHeight="25" TL.SQTrackExpanded="0" MZ.TrackTargeted="1" PannerCurrentValue="0.5" PannerIsInverted="true" PannerStartKeyframe="-91445760000000000,0.5,0,0,0,0,0,0" PannerName="Balance" currentExplodedTrackIndex="0" totalExplodedTrackCount="2" premiereTrackType="Stereo">
														<clipitem id="clipitem-348" premiereChannelType="stereo">
															<masterclipid>masterclip-121</masterclipid>
															<name>ES_Everything's Better With You - Sarah, the Illstrumentalist.wav</name>
															<enabled>TRUE</enabled>
															<duration>3801</duration>
															<rate>
																<timebase>30</timebase>
																<ntsc>TRUE</ntsc>
															</rate>
															<start>0</start>
															<end>-1</end>
															<in>0</in>
															<out>2126</out>
															<pproTicksIn>0</pproTicksIn>
															<pproTicksOut>18019268467200</pproTicksOut>
															<file id="file-105">
																<name>ES_Everything's Better With You - Sarah, the Illstrumentalist.wav</name>
																<pathurl>file://localhost/Volumes/ATM%20JR%202TB/Crafty/2023/06_June/Crafty_6-19-23/5_Music/ES_Everything's%20Better%20With%20You%20-%20Sarah,%20the%20Illstrumentalist.wav</pathurl>
																<rate>
																	<timebase>30</timebase>
																	<ntsc>TRUE</ntsc>
																</rate>
																<duration>3801</duration>
																<timecode>
																	<rate>
																		<timebase>30</timebase>
																		<ntsc>TRUE</ntsc>
																	</rate>
																	<string>05;32;35;29</string>
																	<frame>598081</frame>
																	<displayformat>DF</displayformat>
																</timecode>
																<media>
																	<audio>
																		<samplecharacteristics>
																			<depth>16</depth>
																			<samplerate>48000</samplerate>
																		</samplecharacteristics>
																		<channelcount>2</channelcount>
																	</audio>
																</media>
															</file>
															<sourcetrack>
																<mediatype>audio</mediatype>
																<trackindex>1</trackindex>
															</sourcetrack>
															<filter>
																<effect>
																	<name>Gain</name>
																	<effectid>{61756678, 4761696e, 4b657947}</effectid>
																	<effecttype>filter</effecttype>
																	<mediatype>audio</mediatype>
																	<parameter authoringApp="PremierePro">
																		<parameterid>Gain(dB)</parameterid>
																		<name>Gain(dB)</name>
																		<valuemin>-96</valuemin>
																		<valuemax>96</valuemax>
																		<value>-8</value>
																	</parameter>
																</effect>
															</filter>
															<link>
																<linkclipref>clipitem-348</linkclipref>
																<mediatype>audio</mediatype>
																<trackindex>1</trackindex>
																<clipindex>1</clipindex>
																<groupindex>1</groupindex>
															</link>
															<link>
																<linkclipref>clipitem-349</linkclipref>
																<mediatype>audio</mediatype>
																<trackindex>2</trackindex>
																<clipindex>1</clipindex>
																<groupindex>1</groupindex>
															</link>
															<logginginfo>
																<description></description>
																<scene></scene>
																<shottake></shottake>
																<lognote></lognote>
																<good></good>
																<originalvideofilename></originalvideofilename>
																<originalaudiofilename></originalaudiofilename>
															</logginginfo>
															<colorinfo>
																<lut></lut>
																<lut1></lut1>
																<asc_sop></asc_sop>
																<asc_sat></asc_sat>
																<lut2></lut2>
															</colorinfo>
															<labels>
																<label2>Caribbean</label2>
															</labels>
														</clipitem>
														<transitionitem>
															<start>2036</start>
															<end>2126</end>
															<pproTicksIn>17256458419200</pproTicksIn>
															<pproTicksOut>18019268467200</pproTicksOut>
															<alignment>end-black</alignment>
															<cutPointTicks>762810048000</cutPointTicks>
															<rate>
																<timebase>30</timebase>
																<ntsc>TRUE</ntsc>
															</rate>
															<effect>
																<name>Cross Fade (+3dB)</name>
																<effectid>KGAudioTransCrossFade3dB</effectid>
																<effecttype>transition</effecttype>
																<mediatype>audio</mediatype>
																<wipecode>0</wipecode>
																<wipeaccuracy>100</wipeaccuracy>
																<startratio>0</startratio>
																<endratio>1</endratio>
																<reverse>FALSE</reverse>
															</effect>
														</transitionitem>
														<enabled>TRUE</enabled>
														<locked>FALSE</locked>
														<outputchannelindex>1</outputchannelindex>
													</track>
													<track TL.SQTrackAudioKeyframeStyle="0" TL.SQTrackShy="0" TL.SQTrackExpandedHeight="25" TL.SQTrackExpanded="0" MZ.TrackTargeted="1" PannerCurrentValue="0.5" PannerIsInverted="true" PannerStartKeyframe="-91445760000000000,0.5,0,0,0,0,0,0" PannerName="Balance" currentExplodedTrackIndex="1" totalExplodedTrackCount="2" premiereTrackType="Stereo">
														<clipitem id="clipitem-349" premiereChannelType="stereo">
															<masterclipid>masterclip-121</masterclipid>
															<name>ES_Everything's Better With You - Sarah, the Illstrumentalist.wav</name>
															<enabled>TRUE</enabled>
															<duration>3801</duration>
															<rate>
																<timebase>30</timebase>
																<ntsc>TRUE</ntsc>
															</rate>
															<start>0</start>
															<end>-1</end>
															<in>0</in>
															<out>2126</out>
															<pproTicksIn>0</pproTicksIn>
															<pproTicksOut>18019268467200</pproTicksOut>
															<file id="file-105"/>
															<sourcetrack>
																<mediatype>audio</mediatype>
																<trackindex>2</trackindex>
															</sourcetrack>
															<filter>
																<effect>
																	<name>Gain</name>
																	<effectid>{61756678, 4761696e, 4b657947}</effectid>
																	<effecttype>filter</effecttype>
																	<mediatype>audio</mediatype>
																	<parameter authoringApp="PremierePro">
																		<parameterid>Gain(dB)</parameterid>
																		<name>Gain(dB)</name>
																		<valuemin>-96</valuemin>
																		<valuemax>96</valuemax>
																		<value>-8</value>
																	</parameter>
																</effect>
															</filter>
															<link>
																<linkclipref>clipitem-348</linkclipref>
																<mediatype>audio</mediatype>
																<trackindex>1</trackindex>
																<clipindex>1</clipindex>
																<groupindex>1</groupindex>
															</link>
															<link>
																<linkclipref>clipitem-349</linkclipref>
																<mediatype>audio</mediatype>
																<trackindex>2</trackindex>
																<clipindex>1</clipindex>
																<groupindex>1</groupindex>
															</link>
															<logginginfo>
																<description></description>
																<scene></scene>
																<shottake></shottake>
																<lognote></lognote>
																<good></good>
																<originalvideofilename></originalvideofilename>
																<originalaudiofilename></originalaudiofilename>
															</logginginfo>
															<colorinfo>
																<lut></lut>
																<lut1></lut1>
																<asc_sop></asc_sop>
																<asc_sat></asc_sat>
																<lut2></lut2>
															</colorinfo>
															<labels>
																<label2>Caribbean</label2>
															</labels>
														</clipitem>
														<transitionitem>
															<start>2036</start>
															<end>2126</end>
															<pproTicksIn>17256458419200</pproTicksIn>
															<pproTicksOut>18019268467200</pproTicksOut>
															<alignment>end-black</alignment>
															<cutPointTicks>762810048000</cutPointTicks>
															<rate>
																<timebase>30</timebase>
																<ntsc>TRUE</ntsc>
															</rate>
															<effect>
																<name>Cross Fade (+3dB)</name>
																<effectid>KGAudioTransCrossFade3dB</effectid>
																<effecttype>transition</effecttype>
																<mediatype>audio</mediatype>
																<wipecode>0</wipecode>
																<wipeaccuracy>100</wipeaccuracy>
																<startratio>0</startratio>
																<endratio>1</endratio>
																<reverse>FALSE</reverse>
															</effect>
														</transitionitem>
														<enabled>TRUE</enabled>
														<locked>FALSE</locked>
														<outputchannelindex>2</outputchannelindex>
													</track>
												</audio>
											</media>
											<timecode>
												<rate>
													<timebase>30</timebase>
													<ntsc>TRUE</ntsc>
												</rate>
												<string>00;00;00;00</string>
												<frame>0</frame>
												<displayformat>DF</displayformat>
											</timecode>
											<logginginfo>
												<description></description>
												<scene></scene>
												<shottake></shottake>
												<lognote></lognote>
												<good></good>
												<originalvideofilename></originalvideofilename>
												<originalaudiofilename></originalaudiofilename>
											</logginginfo>
										</sequence>
										<link>
											<linkclipref>clipitem-341</linkclipref>
											<mediatype>video</mediatype>
											<trackindex>1</trackindex>
											<clipindex>1</clipindex>
										</link>
										<link>
											<linkclipref>clipitem-368</linkclipref>
											<mediatype>audio</mediatype>
											<trackindex>1</trackindex>
											<clipindex>1</clipindex>
											<groupindex>1</groupindex>
										</link>
										<link>
											<linkclipref>clipitem-371</linkclipref>
											<mediatype>audio</mediatype>
											<trackindex>2</trackindex>
											<clipindex>1</clipindex>
											<groupindex>1</groupindex>
										</link>
										<labels>
											<label2>Forest</label2>
										</labels>
									</clipitem>
									<clipitem id="clipitem-350">
										<masterclipid>masterclip-122</masterclipid>
										<name>diy_minicafe_2</name>
										<enabled>TRUE</enabled>
										<duration>3162</duration>
										<rate>
											<timebase>30</timebase>
											<ntsc>TRUE</ntsc>
										</rate>
										<start>2207</start>
										<end>5369</end>
										<in>0</in>
										<out>3162</out>
										<pproTicksIn>0</pproTicksIn>
										<pproTicksOut>26800059686400</pproTicksOut>
										<sequence id="sequence-25" TL.SQAudioVisibleBase="0" TL.SQVideoVisibleBase="0" TL.SQVisibleBaseTime="0" TL.SQAVDividerPosition="0.5" TL.SQHideShyTracks="0" TL.SQHeaderWidth="236" Monitor.ProgramZoomOut="26800059686400" Monitor.ProgramZoomIn="0" TL.SQTimePerPixel="0.2139720399118355" MZ.EditLine="0" MZ.Sequence.PreviewFrameSizeHeight="1080" MZ.Sequence.PreviewFrameSizeWidth="1920" MZ.Sequence.AudioTimeDisplayFormat="200" MZ.Sequence.PreviewRenderingClassID="1061109567" MZ.Sequence.PreviewRenderingPresetCodec="1634755443" MZ.Sequence.PreviewRenderingPresetPath="EncoderPresets/SequencePreview/35d109db-457b-43c1-9452-9cb7be9f121c/QuickTime.epr" MZ.Sequence.PreviewUseMaxRenderQuality="false" MZ.Sequence.PreviewUseMaxBitDepth="false" MZ.Sequence.EditingModeGUID="35d109db-457b-43c1-9452-9cb7be9f121c" MZ.Sequence.VideoTimeDisplayFormat="102" MZ.WorkOutPoint="26800059686400" MZ.WorkInPoint="0">
											<duration>3162</duration>
											<rate>
												<timebase>30</timebase>
												<ntsc>TRUE</ntsc>
											</rate>
											<name>DIY_MINICAFE_2</name>
											<media>
												<video>
													<format>
														<samplecharacteristics>
															<rate>
																<timebase>30</timebase>
																<ntsc>TRUE</ntsc>
															</rate>
															<codec>
																<name>Apple ProRes 422</name>
																<appspecificdata>
																	<appname>Final Cut Pro</appname>
																	<appmanufacturer>Apple Inc.</appmanufacturer>
																	<appversion>7.0</appversion>
																	<data>
																		<qtcodec>
																			<codecname>Apple ProRes 422</codecname>
																			<codectypename>Apple ProRes 422</codectypename>
																			<codectypecode>apcn</codectypecode>
																			<codecvendorcode>appl</codecvendorcode>
																			<spatialquality>1024</spatialquality>
																			<temporalquality>0</temporalquality>
																			<keyframerate>0</keyframerate>
																			<datarate>0</datarate>
																		</qtcodec>
																	</data>
																</appspecificdata>
															</codec>
															<width>1920</width>
															<height>1080</height>
															<anamorphic>FALSE</anamorphic>
															<pixelaspectratio>square</pixelaspectratio>
															<fielddominance>none</fielddominance>
															<colordepth>24</colordepth>
														</samplecharacteristics>
													</format>
													<track TL.SQTrackShy="0" TL.SQTrackExpandedHeight="25" TL.SQTrackExpanded="0" MZ.TrackTargeted="1">
														<clipitem id="clipitem-351">
															<masterclipid>masterclip-123</masterclipid>
															<name>(SweetMiniDollHouse)_Miniature jug and cups💚Miniature kitchen💗_umhYPe_8CEI_YT.mp4</name>
															<enabled>TRUE</enabled>
															<duration>3808</duration>
															<rate>
																<timebase>30</timebase>
																<ntsc>TRUE</ntsc>
															</rate>
															<start>0</start>
															<end>259</end>
															<in>270</in>
															<out>528</out>
															<pproTicksIn>3297034540800</pproTicksIn>
															<pproTicksOut>6466934073600</pproTicksOut>
															<alphatype>none</alphatype>
															<pixelaspectratio>square</pixelaspectratio>
															<anamorphic>FALSE</anamorphic>
															<file id="file-106">
																<name>(SweetMiniDollHouse)_Miniature jug and cups💚Miniature kitchen💗_umhYPe_8CEI_YT.mp4</name>
																<pathurl>file://localhost/Volumes/ATM%20JR%202TB/Crafty/2023/06_June/Crafty_6-19-23/3_Raw%20Footage/mini%20cafe/(SweetMiniDollHouse)_Miniature%20jug%20and%20cups%f0%9f%92%9aMiniature%20kitchen%f0%9f%92%97_umhYPe_8CEI_YT.mp4</pathurl>
																<rate>
																	<timebase>30</timebase>
																	<ntsc>TRUE</ntsc>
																</rate>
																<duration>5499</duration>
																<timecode>
																	<rate>
																		<timebase>30</timebase>
																		<ntsc>TRUE</ntsc>
																	</rate>
																	<string>00:00:00:00</string>
																	<frame>0</frame>
																	<displayformat>NDF</displayformat>
																</timecode>
																<media>
																	<video>
																		<samplecharacteristics>
																			<rate>
																				<timebase>30</timebase>
																				<ntsc>TRUE</ntsc>
																			</rate>
																			<width>1920</width>
																			<height>1080</height>
																			<anamorphic>FALSE</anamorphic>
																			<pixelaspectratio>square</pixelaspectratio>
																			<fielddominance>none</fielddominance>
																		</samplecharacteristics>
																	</video>
																	<audio>
																		<samplecharacteristics>
																			<depth>16</depth>
																			<samplerate>44100</samplerate>
																		</samplecharacteristics>
																		<channelcount>2</channelcount>
																	</audio>
																</media>
															</file>
															<filter>
																<effect>
																	<name>Time Remap</name>
																	<effectid>timeremap</effectid>
																	<effectcategory>motion</effectcategory>
																	<effecttype>motion</effecttype>
																	<mediatype>video</mediatype>
																	<parameter authoringApp="PremierePro">
																		<parameterid>variablespeed</parameterid>
																		<name>variablespeed</name>
																		<valuemin>0</valuemin>
																		<valuemax>1</valuemax>
																		<value>0</value>
																	</parameter>
																	<parameter authoringApp="PremierePro">
																		<parameterid>speed</parameterid>
																		<name>speed</name>
																		<valuemin>-100000</valuemin>
																		<valuemax>100000</valuemax>
																		<value>144.402</value>
																	</parameter>
																	<parameter authoringApp="PremierePro">
																		<parameterid>reverse</parameterid>
																		<name>reverse</name>
																		<value>FALSE</value>
																	</parameter>
																	<parameter authoringApp="PremierePro">
																		<parameterid>frameblending</parameterid>
																		<name>frameblending</name>
																		<value>FALSE</value>
																	</parameter>
																	<parameter authoringApp="PremierePro">
																		<parameterid>graphdict</parameterid>
																		<name>graphdict</name>
																		<valuemin>0</valuemin>
																		<valuemax>5498</valuemax>
																		<value>0</value>
																		<keyframe>
																			<when>0</when>
																			<value>0</value>
																			<speedvirtualkf>TRUE</speedvirtualkf>
																			<speedkfstart>TRUE</speedkfstart>
																		</keyframe>
																		<keyframe>
																			<when>270</when>
																			<value>389</value>
																			<speedvirtualkf>TRUE</speedvirtualkf>
																			<speedkfin>TRUE</speedkfin>
																		</keyframe>
																		<keyframe>
																			<when>528</when>
																			<value>762</value>
																			<speedvirtualkf>TRUE</speedvirtualkf>
																			<speedkfout>TRUE</speedkfout>
																		</keyframe>
																		<keyframe>
																			<when>3808</when>
																			<value>5498</value>
																			<speedvirtualkf>TRUE</speedvirtualkf>
																			<speedkfend>TRUE</speedkfend>
																		</keyframe>
																		<interpolation>
																			<name>FCPCurve</name>
																		</interpolation>
																	</parameter>
																</effect>
															</filter>
															<logginginfo>
																<description></description>
																<scene></scene>
																<shottake></shottake>
																<lognote>https://www.youtube.com/watch?v=umhYPe_8CEI</lognote>
																<good></good>
																<originalvideofilename></originalvideofilename>
																<originalaudiofilename></originalaudiofilename>
															</logginginfo>
															<colorinfo>
																<lut></lut>
																<lut1></lut1>
																<asc_sop></asc_sop>
																<asc_sat></asc_sat>
																<lut2></lut2>
															</colorinfo>
															<labels>
																<label2>Iris</label2>
															</labels>
														</clipitem>
														<clipitem id="clipitem-352">
															<masterclipid>masterclip-123</masterclipid>
															<name>(SweetMiniDollHouse)_Miniature jug and cups💚Miniature kitchen💗_umhYPe_8CEI_YT.mp4</name>
															<enabled>TRUE</enabled>
															<duration>3575</duration>
															<rate>
																<timebase>30</timebase>
																<ntsc>TRUE</ntsc>
															</rate>
															<start>259</start>
															<end>378</end>
															<in>815</in>
															<out>933</out>
															<pproTicksIn>10620011001600</pproTicksIn>
															<pproTicksOut>12171058099200</pproTicksOut>
															<alphatype>none</alphatype>
															<file id="file-106"/>
															<filter>
																<effect>
																	<name>Basic Motion</name>
																	<effectid>basic</effectid>
																	<effectcategory>motion</effectcategory>
																	<effecttype>motion</effecttype>
																	<mediatype>video</mediatype>
																	<pproBypass>false</pproBypass>
																	<parameter authoringApp="PremierePro">
																		<parameterid>scale</parameterid>
																		<name>Scale</name>
																		<valuemin>0</valuemin>
																		<valuemax>1000</valuemax>
																		<value>129</value>
																	</parameter>
																	<parameter authoringApp="PremierePro">
																		<parameterid>rotation</parameterid>
																		<name>Rotation</name>
																		<valuemin>-8640</valuemin>
																		<valuemax>8640</valuemax>
																		<value>0</value>
																	</parameter>
																	<parameter authoringApp="PremierePro">
																		<parameterid>center</parameterid>
																		<name>Center</name>
																		<value>
																			<horiz>0</horiz>
																			<vert>0</vert>
																		</value>
																	</parameter>
																	<parameter authoringApp="PremierePro">
																		<parameterid>centerOffset</parameterid>
																		<name>Anchor Point</name>
																		<value>
																			<horiz>0</horiz>
																			<vert>0</vert>
																		</value>
																	</parameter>
																	<parameter authoringApp="PremierePro">
																		<parameterid>antiflicker</parameterid>
																		<name>Anti-flicker Filter</name>
																		<valuemin>0.0</valuemin>
																		<valuemax>1.0</valuemax>
																		<value>0</value>
																	</parameter>
																</effect>
															</filter>
															<filter>
																<effect>
																	<name>Time Remap</name>
																	<effectid>timeremap</effectid>
																	<effectcategory>motion</effectcategory>
																	<effecttype>motion</effecttype>
																	<mediatype>video</mediatype>
																	<parameter authoringApp="PremierePro">
																		<parameterid>variablespeed</parameterid>
																		<name>variablespeed</name>
																		<valuemin>0</valuemin>
																		<valuemax>1</valuemax>
																		<value>0</value>
																	</parameter>
																	<parameter authoringApp="PremierePro">
																		<parameterid>speed</parameterid>
																		<name>speed</name>
																		<valuemin>-100000</valuemin>
																		<valuemax>100000</valuemax>
																		<value>153.782</value>
																	</parameter>
																	<parameter authoringApp="PremierePro">
																		<parameterid>reverse</parameterid>
																		<name>reverse</name>
																		<value>FALSE</value>
																	</parameter>
																	<parameter authoringApp="PremierePro">
																		<parameterid>frameblending</parameterid>
																		<name>frameblending</name>
																		<value>FALSE</value>
																	</parameter>
																	<parameter authoringApp="PremierePro">
																		<parameterid>graphdict</parameterid>
																		<name>graphdict</name>
																		<valuemin>0</valuemin>
																		<valuemax>5497</valuemax>
																		<value>0</value>
																		<keyframe>
																			<when>0</when>
																			<value>0</value>
																			<speedvirtualkf>TRUE</speedvirtualkf>
																			<speedkfstart>TRUE</speedkfstart>
																		</keyframe>
																		<keyframe>
																			<when>815</when>
																			<value>1253</value>
																			<speedvirtualkf>TRUE</speedvirtualkf>
																			<speedkfin>TRUE</speedkfin>
																		</keyframe>
																		<keyframe>
																			<when>933</when>
																			<value>1434</value>
																			<speedvirtualkf>TRUE</speedvirtualkf>
																			<speedkfout>TRUE</speedkfout>
																		</keyframe>
																		<keyframe>
																			<when>3575</when>
																			<value>5497</value>
																			<speedvirtualkf>TRUE</speedvirtualkf>
																			<speedkfend>TRUE</speedkfend>
																		</keyframe>
																		<interpolation>
																			<name>FCPCurve</name>
																		</interpolation>
																	</parameter>
																</effect>
															</filter>
															<logginginfo>
																<description></description>
																<scene></scene>
																<shottake></shottake>
																<lognote>https://www.youtube.com/watch?v=umhYPe_8CEI</lognote>
																<good></good>
																<originalvideofilename></originalvideofilename>
																<originalaudiofilename></originalaudiofilename>
															</logginginfo>
															<colorinfo>
																<lut></lut>
																<lut1></lut1>
																<asc_sop></asc_sop>
																<asc_sat></asc_sat>
																<lut2></lut2>
															</colorinfo>
															<labels>
																<label2>Iris</label2>
															</labels>
														</clipitem>
														<clipitem id="clipitem-353">
															<masterclipid>masterclip-123</masterclipid>
															<name>(SweetMiniDollHouse)_Miniature jug and cups💚Miniature kitchen💗_umhYPe_8CEI_YT.mp4</name>
															<enabled>TRUE</enabled>
															<duration>3862</duration>
															<rate>
																<timebase>30</timebase>
																<ntsc>TRUE</ntsc>
															</rate>
															<start>378</start>
															<end>831</end>
															<in>1671</in>
															<out>2123</out>
															<pproTicksIn>20155136601600</pproTicksIn>
															<pproTicksOut>25621941945600</pproTicksOut>
															<alphatype>none</alphatype>
															<file id="file-106"/>
															<filter>
																<effect>
																	<name>Time Remap</name>
																	<effectid>timeremap</effectid>
																	<effectcategory>motion</effectcategory>
																	<effecttype>motion</effecttype>
																	<mediatype>video</mediatype>
																	<parameter authoringApp="PremierePro">
																		<parameterid>variablespeed</parameterid>
																		<name>variablespeed</name>
																		<valuemin>0</valuemin>
																		<valuemax>1</valuemax>
																		<value>0</value>
																	</parameter>
																	<parameter authoringApp="PremierePro">
																		<parameterid>speed</parameterid>
																		<name>speed</name>
																		<valuemin>-100000</valuemin>
																		<valuemax>100000</valuemax>
																		<value>142.384</value>
																	</parameter>
																	<parameter authoringApp="PremierePro">
																		<parameterid>reverse</parameterid>
																		<name>reverse</name>
																		<value>FALSE</value>
																	</parameter>
																	<parameter authoringApp="PremierePro">
																		<parameterid>frameblending</parameterid>
																		<name>frameblending</name>
																		<value>FALSE</value>
																	</parameter>
																	<parameter authoringApp="PremierePro">
																		<parameterid>graphdict</parameterid>
																		<name>graphdict</name>
																		<valuemin>0</valuemin>
																		<valuemax>5498</valuemax>
																		<value>0</value>
																		<keyframe>
																			<when>0</when>
																			<value>0</value>
																			<speedvirtualkf>TRUE</speedvirtualkf>
																			<speedkfstart>TRUE</speedkfstart>
																		</keyframe>
																		<keyframe>
																			<when>1671</when>
																			<value>2379</value>
																			<speedvirtualkf>TRUE</speedvirtualkf>
																			<speedkfin>TRUE</speedkfin>
																		</keyframe>
																		<keyframe>
																			<when>2123</when>
																			<value>3022</value>
																			<speedvirtualkf>TRUE</speedvirtualkf>
																			<speedkfout>TRUE</speedkfout>
																		</keyframe>
																		<keyframe>
																			<when>3862</when>
																			<value>5498</value>
																			<speedvirtualkf>TRUE</speedvirtualkf>
																			<speedkfend>TRUE</speedkfend>
																		</keyframe>
																		<interpolation>
																			<name>FCPCurve</name>
																		</interpolation>
																	</parameter>
																</effect>
															</filter>
															<logginginfo>
																<description></description>
																<scene></scene>
																<shottake></shottake>
																<lognote>https://www.youtube.com/watch?v=umhYPe_8CEI</lognote>
																<good></good>
																<originalvideofilename></originalvideofilename>
																<originalaudiofilename></originalaudiofilename>
															</logginginfo>
															<colorinfo>
																<lut></lut>
																<lut1></lut1>
																<asc_sop></asc_sop>
																<asc_sat></asc_sat>
																<lut2></lut2>
															</colorinfo>
															<labels>
																<label2>Iris</label2>
															</labels>
														</clipitem>
														<clipitem id="clipitem-354">
															<masterclipid>masterclip-123</masterclipid>
															<name>(SweetMiniDollHouse)_Miniature jug and cups💚Miniature kitchen💗_umhYPe_8CEI_YT.mp4</name>
															<enabled>TRUE</enabled>
															<duration>5499</duration>
															<rate>
																<timebase>30</timebase>
																<ntsc>TRUE</ntsc>
															</rate>
															<start>831</start>
															<end>1021</end>
															<in>5174</in>
															<out>5364</out>
															<pproTicksIn>43853102092800</pproTicksIn>
															<pproTicksOut>45463478860800</pproTicksOut>
															<alphatype>none</alphatype>
															<file id="file-106"/>
															<logginginfo>
																<description></description>
																<scene></scene>
																<shottake></shottake>
																<lognote>https://www.youtube.com/watch?v=umhYPe_8CEI</lognote>
																<good></good>
																<originalvideofilename></originalvideofilename>
																<originalaudiofilename></originalaudiofilename>
															</logginginfo>
															<colorinfo>
																<lut></lut>
																<lut1></lut1>
																<asc_sop></asc_sop>
																<asc_sat></asc_sat>
																<lut2></lut2>
															</colorinfo>
															<labels>
																<label2>Iris</label2>
															</labels>
														</clipitem>
														<clipitem id="clipitem-355">
															<masterclipid>masterclip-124</masterclipid>
															<name>(SweetMiniDollHouse)_Miniature kitchen_ sandwiches with jam🍒_dSfy-GDFxK4_YT.mp4</name>
															<enabled>TRUE</enabled>
															<duration>2515</duration>
															<rate>
																<timebase>30</timebase>
																<ntsc>TRUE</ntsc>
															</rate>
															<start>1021</start>
															<end>1474</end>
															<in>206</in>
															<out>658</out>
															<pproTicksIn>4020021236535</pproTicksIn>
															<pproTicksOut>12883014144000</pproTicksOut>
															<alphatype>none</alphatype>
															<pixelaspectratio>square</pixelaspectratio>
															<anamorphic>FALSE</anamorphic>
															<file id="file-107">
																<name>(SweetMiniDollHouse)_Miniature kitchen_ sandwiches with jam🍒_dSfy-GDFxK4_YT.mp4</name>
																<pathurl>file://localhost/Volumes/ATM%20JR%202TB/Crafty/2023/06_June/Crafty_6-19-23/3_Raw%20Footage/mini%20cafe/(SweetMiniDollHouse)_Miniature%20kitchen_%20sandwiches%20with%20jam%f0%9f%8d%92_dSfy-GDFxK4_YT.mp4</pathurl>
																<rate>
																	<timebase>30</timebase>
																	<ntsc>TRUE</ntsc>
																</rate>
																<duration>5806</duration>
																<timecode>
																	<rate>
																		<timebase>30</timebase>
																		<ntsc>TRUE</ntsc>
																	</rate>
																	<string>00:00:00:00</string>
																	<frame>0</frame>
																	<displayformat>NDF</displayformat>
																</timecode>
																<media>
																	<video>
																		<samplecharacteristics>
																			<rate>
																				<timebase>30</timebase>
																				<ntsc>TRUE</ntsc>
																			</rate>
																			<width>1920</width>
																			<height>1080</height>
																			<anamorphic>FALSE</anamorphic>
																			<pixelaspectratio>square</pixelaspectratio>
																			<fielddominance>none</fielddominance>
																		</samplecharacteristics>
																	</video>
																	<audio>
																		<samplecharacteristics>
																			<depth>16</depth>
																			<samplerate>44100</samplerate>
																		</samplecharacteristics>
																		<channelcount>2</channelcount>
																	</audio>
																</media>
															</file>
															<filter>
																<effect>
																	<name>Time Remap</name>
																	<effectid>timeremap</effectid>
																	<effectcategory>motion</effectcategory>
																	<effecttype>motion</effecttype>
																	<mediatype>video</mediatype>
																	<parameter authoringApp="PremierePro">
																		<parameterid>variablespeed</parameterid>
																		<name>variablespeed</name>
																		<valuemin>0</valuemin>
																		<valuemax>1</valuemax>
																		<value>0</value>
																	</parameter>
																	<parameter authoringApp="PremierePro">
																		<parameterid>speed</parameterid>
																		<name>speed</name>
																		<valuemin>-100000</valuemin>
																		<valuemax>100000</valuemax>
																		<value>230.839</value>
																	</parameter>
																	<parameter authoringApp="PremierePro">
																		<parameterid>reverse</parameterid>
																		<name>reverse</name>
																		<value>FALSE</value>
																	</parameter>
																	<parameter authoringApp="PremierePro">
																		<parameterid>frameblending</parameterid>
																		<name>frameblending</name>
																		<value>FALSE</value>
																	</parameter>
																	<parameter authoringApp="PremierePro">
																		<parameterid>graphdict</parameterid>
																		<name>graphdict</name>
																		<valuemin>0</valuemin>
																		<valuemax>5805</valuemax>
																		<value>0</value>
																		<keyframe>
																			<when>0</when>
																			<value>0</value>
																			<speedvirtualkf>TRUE</speedvirtualkf>
																			<speedkfstart>TRUE</speedkfstart>
																		</keyframe>
																		<keyframe>
																			<when>206</when>
																			<value>475</value>
																			<speedvirtualkf>TRUE</speedvirtualkf>
																			<speedkfin>TRUE</speedkfin>
																		</keyframe>
																		<keyframe>
																			<when>658</when>
																			<value>1518</value>
																			<speedvirtualkf>TRUE</speedvirtualkf>
																			<speedkfout>TRUE</speedkfout>
																		</keyframe>
																		<keyframe>
																			<when>2515</when>
																			<value>5805</value>
																			<speedvirtualkf>TRUE</speedvirtualkf>
																			<speedkfend>TRUE</speedkfend>
																		</keyframe>
																		<interpolation>
																			<name>FCPCurve</name>
																		</interpolation>
																	</parameter>
																</effect>
															</filter>
															<logginginfo>
																<description></description>
																<scene></scene>
																<shottake></shottake>
																<lognote>https://www.youtube.com/watch?v=dSfy-GDFxK4</lognote>
																<good></good>
																<originalvideofilename></originalvideofilename>
																<originalaudiofilename></originalaudiofilename>
															</logginginfo>
															<colorinfo>
																<lut></lut>
																<lut1></lut1>
																<asc_sop></asc_sop>
																<asc_sat></asc_sat>
																<lut2></lut2>
															</colorinfo>
															<labels>
																<label2>Violet</label2>
															</labels>
														</clipitem>
														<clipitem id="clipitem-356">
															<masterclipid>masterclip-124</masterclipid>
															<name>(SweetMiniDollHouse)_Miniature kitchen_ sandwiches with jam🍒_dSfy-GDFxK4_YT.mp4</name>
															<enabled>TRUE</enabled>
															<duration>2865</duration>
															<rate>
																<timebase>30</timebase>
																<ntsc>TRUE</ntsc>
															</rate>
															<start>1474</start>
															<end>1973</end>
															<in>1019</in>
															<out>1517</out>
															<pproTicksIn>17485301433600</pproTicksIn>
															<pproTicksOut>26054200972800</pproTicksOut>
															<alphatype>none</alphatype>
															<file id="file-107"/>
															<filter>
																<effect>
																	<name>Time Remap</name>
																	<effectid>timeremap</effectid>
																	<effectcategory>motion</effectcategory>
																	<effecttype>motion</effecttype>
																	<mediatype>video</mediatype>
																	<parameter authoringApp="PremierePro">
																		<parameterid>variablespeed</parameterid>
																		<name>variablespeed</name>
																		<valuemin>0</valuemin>
																		<valuemax>1</valuemax>
																		<value>0</value>
																	</parameter>
																	<parameter authoringApp="PremierePro">
																		<parameterid>speed</parameterid>
																		<name>speed</name>
																		<valuemin>-100000</valuemin>
																		<valuemax>100000</valuemax>
																		<value>202.605</value>
																	</parameter>
																	<parameter authoringApp="PremierePro">
																		<parameterid>reverse</parameterid>
																		<name>reverse</name>
																		<value>FALSE</value>
																	</parameter>
																	<parameter authoringApp="PremierePro">
																		<parameterid>frameblending</parameterid>
																		<name>frameblending</name>
																		<value>FALSE</value>
																	</parameter>
																	<parameter authoringApp="PremierePro">
																		<parameterid>graphdict</parameterid>
																		<name>graphdict</name>
																		<valuemin>0</valuemin>
																		<valuemax>5804</valuemax>
																		<value>0</value>
																		<keyframe>
																			<when>0</when>
																			<value>0</value>
																			<speedvirtualkf>TRUE</speedvirtualkf>
																			<speedkfstart>TRUE</speedkfstart>
																		</keyframe>
																		<keyframe>
																			<when>1019</when>
																			<value>2064</value>
																			<speedvirtualkf>TRUE</speedvirtualkf>
																			<speedkfin>TRUE</speedkfin>
																		</keyframe>
																		<keyframe>
																			<when>1517</when>
																			<value>3073</value>
																			<speedvirtualkf>TRUE</speedvirtualkf>
																			<speedkfout>TRUE</speedkfout>
																		</keyframe>
																		<keyframe>
																			<when>2865</when>
																			<value>5804</value>
																			<speedvirtualkf>TRUE</speedvirtualkf>
																			<speedkfend>TRUE</speedkfend>
																		</keyframe>
																		<interpolation>
																			<name>FCPCurve</name>
																		</interpolation>
																	</parameter>
																</effect>
															</filter>
															<logginginfo>
																<description></description>
																<scene></scene>
																<shottake></shottake>
																<lognote>https://www.youtube.com/watch?v=dSfy-GDFxK4</lognote>
																<good></good>
																<originalvideofilename></originalvideofilename>
																<originalaudiofilename></originalaudiofilename>
															</logginginfo>
															<colorinfo>
																<lut></lut>
																<lut1></lut1>
																<asc_sop></asc_sop>
																<asc_sat></asc_sat>
																<lut2></lut2>
															</colorinfo>
															<labels>
																<label2>Violet</label2>
															</labels>
														</clipitem>
														<clipitem id="clipitem-357">
															<masterclipid>masterclip-124</masterclipid>
															<name>(SweetMiniDollHouse)_Miniature kitchen_ sandwiches with jam🍒_dSfy-GDFxK4_YT.mp4</name>
															<enabled>TRUE</enabled>
															<duration>5806</duration>
															<rate>
																<timebase>30</timebase>
																<ntsc>TRUE</ntsc>
															</rate>
															<start>1973</start>
															<end>2376</end>
															<in>5260</in>
															<out>5663</out>
															<pproTicksIn>44582009472000</pproTicksIn>
															<pproTicksOut>47997703353600</pproTicksOut>
															<alphatype>none</alphatype>
															<file id="file-107"/>
															<logginginfo>
																<description></description>
																<scene></scene>
																<shottake></shottake>
																<lognote>https://www.youtube.com/watch?v=dSfy-GDFxK4</lognote>
																<good></good>
																<originalvideofilename></originalvideofilename>
																<originalaudiofilename></originalaudiofilename>
															</logginginfo>
															<colorinfo>
																<lut></lut>
																<lut1></lut1>
																<asc_sop></asc_sop>
																<asc_sat></asc_sat>
																<lut2></lut2>
															</colorinfo>
															<labels>
																<label2>Violet</label2>
															</labels>
														</clipitem>
														<clipitem id="clipitem-358">
															<masterclipid>masterclip-125</masterclipid>
															<name>(SweetMiniDollHouse)_Miniature pastries🥐_qtZhVsDPpZc_YT.mp4</name>
															<enabled>TRUE</enabled>
															<duration>4043</duration>
															<rate>
																<timebase>30</timebase>
																<ntsc>TRUE</ntsc>
															</rate>
															<start>2376</start>
															<end>2895</end>
															<in>287</in>
															<out>805</out>
															<pproTicksIn>3271607539200</pproTicksIn>
															<pproTicksOut>9196098912000</pproTicksOut>
															<alphatype>none</alphatype>
															<pixelaspectratio>square</pixelaspectratio>
															<anamorphic>FALSE</anamorphic>
															<file id="file-108">
																<name>(SweetMiniDollHouse)_Miniature pastries🥐_qtZhVsDPpZc_YT.mp4</name>
																<pathurl>file://localhost/Volumes/ATM%20JR%202TB/Crafty/2023/06_June/Crafty_6-19-23/3_Raw%20Footage/mini%20cafe/(SweetMiniDollHouse)_Miniature%20pastries%f0%9f%a5%90_qtZhVsDPpZc_YT.mp4</pathurl>
																<rate>
																	<timebase>30</timebase>
																	<ntsc>TRUE</ntsc>
																</rate>
																<duration>5446</duration>
																<timecode>
																	<rate>
																		<timebase>30</timebase>
																		<ntsc>TRUE</ntsc>
																	</rate>
																	<string>00:00:00:00</string>
																	<frame>0</frame>
																	<displayformat>NDF</displayformat>
																</timecode>
																<media>
																	<video>
																		<samplecharacteristics>
																			<rate>
																				<timebase>30</timebase>
																				<ntsc>TRUE</ntsc>
																			</rate>
																			<width>1920</width>
																			<height>1080</height>
																			<anamorphic>FALSE</anamorphic>
																			<pixelaspectratio>square</pixelaspectratio>
																			<fielddominance>none</fielddominance>
																		</samplecharacteristics>
																	</video>
																	<audio>
																		<samplecharacteristics>
																			<depth>16</depth>
																			<samplerate>44100</samplerate>
																		</samplecharacteristics>
																		<channelcount>2</channelcount>
																	</audio>
																</media>
															</file>
															<filter>
																<effect>
																	<name>Time Remap</name>
																	<effectid>timeremap</effectid>
																	<effectcategory>motion</effectcategory>
																	<effecttype>motion</effecttype>
																	<mediatype>video</mediatype>
																	<parameter authoringApp="PremierePro">
																		<parameterid>variablespeed</parameterid>
																		<name>variablespeed</name>
																		<valuemin>0</valuemin>
																		<valuemax>1</valuemax>
																		<value>0</value>
																	</parameter>
																	<parameter authoringApp="PremierePro">
																		<parameterid>speed</parameterid>
																		<name>speed</name>
																		<valuemin>-100000</valuemin>
																		<valuemax>100000</valuemax>
																		<value>134.682</value>
																	</parameter>
																	<parameter authoringApp="PremierePro">
																		<parameterid>reverse</parameterid>
																		<name>reverse</name>
																		<value>FALSE</value>
																	</parameter>
																	<parameter authoringApp="PremierePro">
																		<parameterid>frameblending</parameterid>
																		<name>frameblending</name>
																		<value>FALSE</value>
																	</parameter>
																	<parameter authoringApp="PremierePro">
																		<parameterid>graphdict</parameterid>
																		<name>graphdict</name>
																		<valuemin>0</valuemin>
																		<valuemax>5445</valuemax>
																		<value>0</value>
																		<keyframe>
																			<when>0</when>
																			<value>0</value>
																			<speedvirtualkf>TRUE</speedvirtualkf>
																			<speedkfstart>TRUE</speedkfstart>
																		</keyframe>
																		<keyframe>
																			<when>287</when>
																			<value>386</value>
																			<speedvirtualkf>TRUE</speedvirtualkf>
																			<speedkfin>TRUE</speedkfin>
																		</keyframe>
																		<keyframe>
																			<when>805</when>
																			<value>1084</value>
																			<speedvirtualkf>TRUE</speedvirtualkf>
																			<speedkfout>TRUE</speedkfout>
																		</keyframe>
																		<keyframe>
																			<when>4043</when>
																			<value>5445</value>
																			<speedvirtualkf>TRUE</speedvirtualkf>
																			<speedkfend>TRUE</speedkfend>
																		</keyframe>
																		<interpolation>
																			<name>FCPCurve</name>
																		</interpolation>
																	</parameter>
																</effect>
															</filter>
															<logginginfo>
																<description></description>
																<scene></scene>
																<shottake></shottake>
																<lognote>https://www.youtube.com/watch?v=qtZhVsDPpZc</lognote>
																<good></good>
																<originalvideofilename></originalvideofilename>
																<originalaudiofilename></originalaudiofilename>
															</logginginfo>
															<colorinfo>
																<lut></lut>
																<lut1></lut1>
																<asc_sop></asc_sop>
																<asc_sat></asc_sat>
																<lut2></lut2>
															</colorinfo>
															<labels>
																<label2>Caribbean</label2>
															</labels>
														</clipitem>
														<clipitem id="clipitem-359">
															<masterclipid>masterclip-125</masterclipid>
															<name>(SweetMiniDollHouse)_Miniature pastries🥐_qtZhVsDPpZc_YT.mp4</name>
															<enabled>TRUE</enabled>
															<duration>5446</duration>
															<rate>
																<timebase>30</timebase>
																<ntsc>TRUE</ntsc>
															</rate>
															<start>2895</start>
															<end>3162</end>
															<in>5179</in>
															<out>5446</out>
															<pproTicksIn>43895480428800</pproTicksIn>
															<pproTicksOut>46158483571200</pproTicksOut>
															<alphatype>none</alphatype>
															<file id="file-108"/>
															<logginginfo>
																<description></description>
																<scene></scene>
																<shottake></shottake>
																<lognote>https://www.youtube.com/watch?v=qtZhVsDPpZc</lognote>
																<good></good>
																<originalvideofilename></originalvideofilename>
																<originalaudiofilename></originalaudiofilename>
															</logginginfo>
															<colorinfo>
																<lut></lut>
																<lut1></lut1>
																<asc_sop></asc_sop>
																<asc_sat></asc_sat>
																<lut2></lut2>
															</colorinfo>
															<labels>
																<label2>Caribbean</label2>
															</labels>
														</clipitem>
														<enabled>TRUE</enabled>
														<locked>FALSE</locked>
													</track>
													<track TL.SQTrackShy="0" TL.SQTrackExpandedHeight="25" TL.SQTrackExpanded="0" MZ.TrackTargeted="0">
														<clipitem id="clipitem-360">
															<masterclipid>masterclip-126</masterclipid>
															<name>SWEETMINIDOLLHOUSE</name>
															<enabled>TRUE</enabled>
															<duration>5844</duration>
															<rate>
																<timebase>30</timebase>
																<ntsc>TRUE</ntsc>
															</rate>
															<start>0</start>
															<end>3162</end>
															<in>0</in>
															<out>3162</out>
															<pproTicksIn>0</pproTicksIn>
															<pproTicksOut>26800059686400</pproTicksOut>
															<alphatype>straight</alphatype>
															<pixelaspectratio>square</pixelaspectratio>
															<anamorphic>FALSE</anamorphic>
															<file id="file-109">
																<name>1080/AE Attribution.aep</name>
																<pathurl>file://localhost/Volumes/ATM%20JR%202TB/Crafty/Master%20Assets%20/Attribution/AE%20Attribution.aep</pathurl>
																<rate>
																	<timebase>30</timebase>
																	<ntsc>TRUE</ntsc>
																</rate>
																<duration>5844</duration>
																<timecode>
																	<rate>
																		<timebase>30</timebase>
																		<ntsc>TRUE</ntsc>
																	</rate>
																	<string>00;00;00;00</string>
																	<frame>0</frame>
																	<displayformat>DF</displayformat>
																</timecode>
																<media>
																	<video>
																		<samplecharacteristics>
																			<rate>
																				<timebase>30</timebase>
																				<ntsc>TRUE</ntsc>
																			</rate>
																			<width>1920</width>
																			<height>1080</height>
																			<anamorphic>FALSE</anamorphic>
																			<pixelaspectratio>square</pixelaspectratio>
																			<fielddominance>lower</fielddominance>
																		</samplecharacteristics>
																	</video>
																</media>
															</file>
															<logginginfo>
																<description></description>
																<scene></scene>
																<shottake></shottake>
																<lognote></lognote>
																<good></good>
																<originalvideofilename></originalvideofilename>
																<originalaudiofilename></originalaudiofilename>
															</logginginfo>
															<colorinfo>
																<lut></lut>
																<lut1></lut1>
																<asc_sop></asc_sop>
																<asc_sat></asc_sat>
																<lut2></lut2>
															</colorinfo>
															<labels>
																<label2>Rose</label2>
															</labels>
														</clipitem>
														<enabled>TRUE</enabled>
														<locked>FALSE</locked>
													</track>
												</video>
												<audio>
													<numOutputChannels>2</numOutputChannels>
													<format>
														<samplecharacteristics>
															<depth>16</depth>
															<samplerate>48000</samplerate>
														</samplecharacteristics>
													</format>
													<outputs>
														<group>
															<index>1</index>
															<numchannels>1</numchannels>
															<downmix>0</downmix>
															<channel>
																<index>1</index>
															</channel>
														</group>
														<group>
															<index>2</index>
															<numchannels>1</numchannels>
															<downmix>0</downmix>
															<channel>
																<index>2</index>
															</channel>
														</group>
													</outputs>
													<track TL.SQTrackAudioKeyframeStyle="0" TL.SQTrackShy="0" TL.SQTrackExpandedHeight="25" TL.SQTrackExpanded="0" MZ.TrackTargeted="1" PannerCurrentValue="0.5" PannerIsInverted="true" PannerStartKeyframe="-91445760000000000,0.5,0,0,0,0,0,0" PannerName="Balance" currentExplodedTrackIndex="0" totalExplodedTrackCount="2" premiereTrackType="Stereo">
														<clipitem id="clipitem-361" premiereChannelType="stereo">
															<masterclipid>masterclip-127</masterclipid>
															<name>ES_Float - [ocean jams].wav</name>
															<enabled>TRUE</enabled>
															<duration>3729</duration>
															<rate>
																<timebase>30</timebase>
																<ntsc>TRUE</ntsc>
															</rate>
															<start>0</start>
															<end>-1</end>
															<in>0</in>
															<out>3162</out>
															<pproTicksIn>0</pproTicksIn>
															<pproTicksOut>26800059686400</pproTicksOut>
															<file id="file-110">
																<name>ES_Float - [ocean jams].wav</name>
																<pathurl>file://localhost/Volumes/ATM%20JR%202TB/Crafty/2023/06_June/Crafty_6-19-23/5_Music/ES_Float%20-%20[ocean%20jams].wav</pathurl>
																<rate>
																	<timebase>30</timebase>
																	<ntsc>TRUE</ntsc>
																</rate>
																<duration>3729</duration>
																<timecode>
																	<rate>
																		<timebase>30</timebase>
																		<ntsc>TRUE</ntsc>
																	</rate>
																	<string>01;38;49;01</string>
																	<frame>177693</frame>
																	<displayformat>DF</displayformat>
																</timecode>
																<media>
																	<audio>
																		<samplecharacteristics>
																			<depth>16</depth>
																			<samplerate>48000</samplerate>
																		</samplecharacteristics>
																		<channelcount>2</channelcount>
																	</audio>
																</media>
															</file>
															<sourcetrack>
																<mediatype>audio</mediatype>
																<trackindex>1</trackindex>
															</sourcetrack>
															<filter>
																<effect>
																	<name>Gain</name>
																	<effectid>{61756678, 4761696e, 4b657947}</effectid>
																	<effecttype>filter</effecttype>
																	<mediatype>audio</mediatype>
																	<parameter authoringApp="PremierePro">
																		<parameterid>Gain(dB)</parameterid>
																		<name>Gain(dB)</name>
																		<valuemin>-96</valuemin>
																		<valuemax>96</valuemax>
																		<value>-8</value>
																	</parameter>
																</effect>
															</filter>
															<link>
																<linkclipref>clipitem-361</linkclipref>
																<mediatype>audio</mediatype>
																<trackindex>1</trackindex>
																<clipindex>1</clipindex>
																<groupindex>1</groupindex>
															</link>
															<link>
																<linkclipref>clipitem-362</linkclipref>
																<mediatype>audio</mediatype>
																<trackindex>2</trackindex>
																<clipindex>1</clipindex>
																<groupindex>1</groupindex>
															</link>
															<logginginfo>
																<description></description>
																<scene></scene>
																<shottake></shottake>
																<lognote></lognote>
																<good></good>
																<originalvideofilename></originalvideofilename>
																<originalaudiofilename></originalaudiofilename>
															</logginginfo>
															<colorinfo>
																<lut></lut>
																<lut1></lut1>
																<asc_sop></asc_sop>
																<asc_sat></asc_sat>
																<lut2></lut2>
															</colorinfo>
															<labels>
																<label2>Caribbean</label2>
															</labels>
														</clipitem>
														<transitionitem>
															<start>3072</start>
															<end>3162</end>
															<pproTicksIn>26037249638400</pproTicksIn>
															<pproTicksOut>26800059686400</pproTicksOut>
															<alignment>end-black</alignment>
															<cutPointTicks>762810048000</cutPointTicks>
															<rate>
																<timebase>30</timebase>
																<ntsc>TRUE</ntsc>
															</rate>
															<effect>
																<name>Cross Fade (+3dB)</name>
																<effectid>KGAudioTransCrossFade3dB</effectid>
																<effecttype>transition</effecttype>
																<mediatype>audio</mediatype>
																<wipecode>0</wipecode>
																<wipeaccuracy>100</wipeaccuracy>
																<startratio>0</startratio>
																<endratio>1</endratio>
																<reverse>FALSE</reverse>
															</effect>
														</transitionitem>
														<enabled>TRUE</enabled>
														<locked>FALSE</locked>
														<outputchannelindex>1</outputchannelindex>
													</track>
													<track TL.SQTrackAudioKeyframeStyle="0" TL.SQTrackShy="0" TL.SQTrackExpandedHeight="25" TL.SQTrackExpanded="0" MZ.TrackTargeted="1" PannerCurrentValue="0.5" PannerIsInverted="true" PannerStartKeyframe="-91445760000000000,0.5,0,0,0,0,0,0" PannerName="Balance" currentExplodedTrackIndex="1" totalExplodedTrackCount="2" premiereTrackType="Stereo">
														<clipitem id="clipitem-362" premiereChannelType="stereo">
															<masterclipid>masterclip-127</masterclipid>
															<name>ES_Float - [ocean jams].wav</name>
															<enabled>TRUE</enabled>
															<duration>3729</duration>
															<rate>
																<timebase>30</timebase>
																<ntsc>TRUE</ntsc>
															</rate>
															<start>0</start>
															<end>-1</end>
															<in>0</in>
															<out>3162</out>
															<pproTicksIn>0</pproTicksIn>
															<pproTicksOut>26800059686400</pproTicksOut>
															<file id="file-110"/>
															<sourcetrack>
																<mediatype>audio</mediatype>
																<trackindex>2</trackindex>
															</sourcetrack>
															<filter>
																<effect>
																	<name>Gain</name>
																	<effectid>{61756678, 4761696e, 4b657947}</effectid>
																	<effecttype>filter</effecttype>
																	<mediatype>audio</mediatype>
																	<parameter authoringApp="PremierePro">
																		<parameterid>Gain(dB)</parameterid>
																		<name>Gain(dB)</name>
																		<valuemin>-96</valuemin>
																		<valuemax>96</valuemax>
																		<value>-8</value>
																	</parameter>
																</effect>
															</filter>
															<link>
																<linkclipref>clipitem-361</linkclipref>
																<mediatype>audio</mediatype>
																<trackindex>1</trackindex>
																<clipindex>1</clipindex>
																<groupindex>1</groupindex>
															</link>
															<link>
																<linkclipref>clipitem-362</linkclipref>
																<mediatype>audio</mediatype>
																<trackindex>2</trackindex>
																<clipindex>1</clipindex>
																<groupindex>1</groupindex>
															</link>
															<logginginfo>
																<description></description>
																<scene></scene>
																<shottake></shottake>
																<lognote></lognote>
																<good></good>
																<originalvideofilename></originalvideofilename>
																<originalaudiofilename></originalaudiofilename>
															</logginginfo>
															<colorinfo>
																<lut></lut>
																<lut1></lut1>
																<asc_sop></asc_sop>
																<asc_sat></asc_sat>
																<lut2></lut2>
															</colorinfo>
															<labels>
																<label2>Caribbean</label2>
															</labels>
														</clipitem>
														<transitionitem>
															<start>3072</start>
															<end>3162</end>
															<pproTicksIn>26037249638400</pproTicksIn>
															<pproTicksOut>26800059686400</pproTicksOut>
															<alignment>end-black</alignment>
															<cutPointTicks>762810048000</cutPointTicks>
															<rate>
																<timebase>30</timebase>
																<ntsc>TRUE</ntsc>
															</rate>
															<effect>
																<name>Cross Fade (+3dB)</name>
																<effectid>KGAudioTransCrossFade3dB</effectid>
																<effecttype>transition</effecttype>
																<mediatype>audio</mediatype>
																<wipecode>0</wipecode>
																<wipeaccuracy>100</wipeaccuracy>
																<startratio>0</startratio>
																<endratio>1</endratio>
																<reverse>FALSE</reverse>
															</effect>
														</transitionitem>
														<enabled>TRUE</enabled>
														<locked>FALSE</locked>
														<outputchannelindex>2</outputchannelindex>
													</track>
												</audio>
											</media>
											<timecode>
												<rate>
													<timebase>30</timebase>
													<ntsc>TRUE</ntsc>
												</rate>
												<string>00;00;00;00</string>
												<frame>0</frame>
												<displayformat>DF</displayformat>
											</timecode>
											<logginginfo>
												<description></description>
												<scene></scene>
												<shottake></shottake>
												<lognote></lognote>
												<good></good>
												<originalvideofilename></originalvideofilename>
												<originalaudiofilename></originalaudiofilename>
											</logginginfo>
										</sequence>
										<link>
											<linkclipref>clipitem-350</linkclipref>
											<mediatype>video</mediatype>
											<trackindex>1</trackindex>
											<clipindex>2</clipindex>
										</link>
										<link>
											<linkclipref>clipitem-369</linkclipref>
											<mediatype>audio</mediatype>
											<trackindex>1</trackindex>
											<clipindex>2</clipindex>
											<groupindex>1</groupindex>
										</link>
										<link>
											<linkclipref>clipitem-372</linkclipref>
											<mediatype>audio</mediatype>
											<trackindex>2</trackindex>
											<clipindex>2</clipindex>
											<groupindex>1</groupindex>
										</link>
										<labels>
											<label2>Forest</label2>
										</labels>
									</clipitem>
									<clipitem id="clipitem-363">
										<masterclipid>masterclip-128</masterclipid>
										<name>ATM_YouAreWatching.mp4</name>
										<enabled>TRUE</enabled>
										<duration>299</duration>
										<rate>
											<timebase>30</timebase>
											<ntsc>TRUE</ntsc>
										</rate>
										<start>5369</start>
										<end>5668</end>
										<in>0</in>
										<out>299</out>
										<pproTicksIn>0</pproTicksIn>
										<pproTicksOut>2534224492800</pproTicksOut>
										<alphatype>none</alphatype>
										<pixelaspectratio>square</pixelaspectratio>
										<anamorphic>FALSE</anamorphic>
										<file id="file-111">
											<name>ATM_YouAreWatching.mp4</name>
											<pathurl>file://localhost/Volumes/ATM%20JR%202TB/Crafty/2023/06_June/Crafty_6-19-23/5_Music/../../../../Master%20Assets%20/Transitions/ATM_YouAreWatching.mp4</pathurl>
											<rate>
												<timebase>30</timebase>
												<ntsc>FALSE</ntsc>
											</rate>
											<duration>300</duration>
											<timecode>
												<rate>
													<timebase>30</timebase>
													<ntsc>FALSE</ntsc>
												</rate>
												<string>00:00:00:00</string>
												<frame>0</frame>
												<displayformat>NDF</displayformat>
											</timecode>
											<media>
												<video>
													<samplecharacteristics>
														<rate>
															<timebase>30</timebase>
															<ntsc>FALSE</ntsc>
														</rate>
														<width>1920</width>
														<height>1080</height>
														<anamorphic>FALSE</anamorphic>
														<pixelaspectratio>square</pixelaspectratio>
														<fielddominance>none</fielddominance>
													</samplecharacteristics>
												</video>
												<audio>
													<samplecharacteristics>
														<depth>16</depth>
														<samplerate>48000</samplerate>
													</samplecharacteristics>
													<channelcount>2</channelcount>
												</audio>
											</media>
										</file>
										<link>
											<linkclipref>clipitem-363</linkclipref>
											<mediatype>video</mediatype>
											<trackindex>1</trackindex>
											<clipindex>3</clipindex>
										</link>
										<link>
											<linkclipref>clipitem-370</linkclipref>
											<mediatype>audio</mediatype>
											<trackindex>1</trackindex>
											<clipindex>3</clipindex>
											<groupindex>1</groupindex>
										</link>
										<link>
											<linkclipref>clipitem-373</linkclipref>
											<mediatype>audio</mediatype>
											<trackindex>2</trackindex>
											<clipindex>3</clipindex>
											<groupindex>1</groupindex>
										</link>
										<logginginfo>
											<description></description>
											<scene></scene>
											<shottake></shottake>
											<lognote></lognote>
											<good></good>
											<originalvideofilename></originalvideofilename>
											<originalaudiofilename></originalaudiofilename>
										</logginginfo>
										<colorinfo>
											<lut></lut>
											<lut1></lut1>
											<asc_sop></asc_sop>
											<asc_sat></asc_sat>
											<lut2></lut2>
										</colorinfo>
										<labels>
											<label2>Iris</label2>
										</labels>
									</clipitem>
									<enabled>TRUE</enabled>
									<locked>FALSE</locked>
								</track>
								<track TL.SQTrackShy="0" TL.SQTrackExpandedHeight="25" TL.SQTrackExpanded="0" MZ.TrackTargeted="0">
									<clipitem id="clipitem-364">
										<masterclipid>masterclip-129</masterclipid>
										<name>BEGINNER WIG INSTALL</name>
										<enabled>TRUE</enabled>
										<duration>5695</duration>
										<rate>
											<timebase>30</timebase>
											<ntsc>TRUE</ntsc>
										</rate>
										<start>0</start>
										<end>2126</end>
										<in>0</in>
										<out>2126</out>
										<pproTicksIn>0</pproTicksIn>
										<pproTicksOut>18019268467200</pproTicksOut>
										<alphatype>straight</alphatype>
										<pixelaspectratio>square</pixelaspectratio>
										<anamorphic>FALSE</anamorphic>
										<file id="file-112">
											<name>CRAFTY_L3RD_01_JL_V03/CRAFTY_L3RD_01_JL_V03.aep</name>
											<pathurl>file://localhost/Volumes/ATM%20JR%202TB/Crafty/Master%20Assets%20/Lower%20Thirds/CRAFTY_L3RD_01_JL_V03.aep</pathurl>
											<rate>
												<timebase>30</timebase>
												<ntsc>FALSE</ntsc>
											</rate>
											<duration>5701</duration>
											<timecode>
												<rate>
													<timebase>30</timebase>
													<ntsc>FALSE</ntsc>
												</rate>
												<string>00:00:00:00</string>
												<frame>0</frame>
												<displayformat>NDF</displayformat>
											</timecode>
											<media>
												<video>
													<samplecharacteristics>
														<rate>
															<timebase>30</timebase>
															<ntsc>FALSE</ntsc>
														</rate>
														<width>1920</width>
														<height>1080</height>
														<anamorphic>FALSE</anamorphic>
														<pixelaspectratio>square</pixelaspectratio>
														<fielddominance>lower</fielddominance>
													</samplecharacteristics>
												</video>
											</media>
										</file>
										<logginginfo>
											<description></description>
											<scene></scene>
											<shottake></shottake>
											<lognote></lognote>
											<good></good>
											<originalvideofilename></originalvideofilename>
											<originalaudiofilename></originalaudiofilename>
										</logginginfo>
										<colorinfo>
											<lut></lut>
											<lut1></lut1>
											<asc_sop></asc_sop>
											<asc_sat></asc_sat>
											<lut2></lut2>
										</colorinfo>
										<labels>
											<label2>Rose</label2>
										</labels>
									</clipitem>
									<clipitem id="clipitem-365">
										<masterclipid>masterclip-130</masterclipid>
										<name>MINI CAFE</name>
										<enabled>TRUE</enabled>
										<duration>5695</duration>
										<rate>
											<timebase>30</timebase>
											<ntsc>TRUE</ntsc>
										</rate>
										<start>2223</start>
										<end>5369</end>
										<in>0</in>
										<out>3146</out>
										<pproTicksIn>0</pproTicksIn>
										<pproTicksOut>26664449011200</pproTicksOut>
										<alphatype>straight</alphatype>
										<pixelaspectratio>square</pixelaspectratio>
										<anamorphic>FALSE</anamorphic>
										<file id="file-113">
											<name>CRAFTY_L3RD_01_JL_V03/CRAFTY_L3RD_01_JL_V03.aep</name>
											<pathurl>file://localhost/Volumes/ATM%20JR%202TB/Crafty/Master%20Assets%20/Lower%20Thirds/CRAFTY_L3RD_01_JL_V03.aep</pathurl>
											<rate>
												<timebase>30</timebase>
												<ntsc>FALSE</ntsc>
											</rate>
											<duration>5701</duration>
											<timecode>
												<rate>
													<timebase>30</timebase>
													<ntsc>FALSE</ntsc>
												</rate>
												<string>00:00:00:00</string>
												<frame>0</frame>
												<displayformat>NDF</displayformat>
											</timecode>
											<media>
												<video>
													<samplecharacteristics>
														<rate>
															<timebase>30</timebase>
															<ntsc>FALSE</ntsc>
														</rate>
														<width>1920</width>
														<height>1080</height>
														<anamorphic>FALSE</anamorphic>
														<pixelaspectratio>square</pixelaspectratio>
														<fielddominance>lower</fielddominance>
													</samplecharacteristics>
												</video>
											</media>
										</file>
										<logginginfo>
											<description></description>
											<scene></scene>
											<shottake></shottake>
											<lognote></lognote>
											<good></good>
											<originalvideofilename></originalvideofilename>
											<originalaudiofilename></originalaudiofilename>
										</logginginfo>
										<colorinfo>
											<lut></lut>
											<lut1></lut1>
											<asc_sop></asc_sop>
											<asc_sat></asc_sat>
											<lut2></lut2>
										</colorinfo>
										<labels>
											<label2>Rose</label2>
										</labels>
									</clipitem>
									<enabled>TRUE</enabled>
									<locked>FALSE</locked>
								</track>
								<track TL.SQTrackShy="0" TL.SQTrackExpandedHeight="25" TL.SQTrackExpanded="0" MZ.TrackTargeted="0">
									<clipitem id="clipitem-366">
										<masterclipid>masterclip-102</masterclipid>
										<name>ATM_logo_channels_right-2 (3).png</name>
										<enabled>TRUE</enabled>
										<duration>1294705</duration>
										<rate>
											<timebase>30</timebase>
											<ntsc>TRUE</ntsc>
										</rate>
										<start>0</start>
										<end>5369</end>
										<in>107892</in>
										<out>113261</out>
										<pproTicksIn>914456685542400</pproTicksIn>
										<pproTicksOut>959962542739200</pproTicksOut>
										<alphatype>straight</alphatype>
										<file id="file-89"/>
										<logginginfo>
											<description></description>
											<scene></scene>
											<shottake></shottake>
											<lognote></lognote>
											<good></good>
											<originalvideofilename></originalvideofilename>
											<originalaudiofilename></originalaudiofilename>
										</logginginfo>
										<colorinfo>
											<lut></lut>
											<lut1></lut1>
											<asc_sop></asc_sop>
											<asc_sat></asc_sat>
											<lut2></lut2>
										</colorinfo>
										<labels>
											<label2>Lavender</label2>
										</labels>
									</clipitem>
									<enabled>TRUE</enabled>
									<locked>FALSE</locked>
								</track>
								<track TL.SQTrackShy="0" TL.SQTrackExpandedHeight="25" TL.SQTrackExpanded="0" MZ.TrackTargeted="0">
									<clipitem id="clipitem-367">
										<masterclipid>masterclip-103</masterclipid>
										<name>CRAFTY_TRAN02_JL_V01.mov</name>
										<enabled>TRUE</enabled>
										<duration>120</duration>
										<rate>
											<timebase>30</timebase>
											<ntsc>TRUE</ntsc>
										</rate>
										<start>2103</start>
										<end>2223</end>
										<in>0</in>
										<out>120</out>
										<pproTicksIn>0</pproTicksIn>
										<pproTicksOut>1017080064000</pproTicksOut>
										<alphatype>none</alphatype>
										<file id="file-90"/>
										<link>
											<linkclipref>clipitem-367</linkclipref>
											<mediatype>video</mediatype>
											<trackindex>4</trackindex>
											<clipindex>1</clipindex>
										</link>
										<link>
											<linkclipref>clipitem-374</linkclipref>
											<mediatype>audio</mediatype>
											<trackindex>3</trackindex>
											<clipindex>1</clipindex>
											<groupindex>1</groupindex>
										</link>
										<link>
											<linkclipref>clipitem-375</linkclipref>
											<mediatype>audio</mediatype>
											<trackindex>4</trackindex>
											<clipindex>1</clipindex>
											<groupindex>1</groupindex>
										</link>
										<logginginfo>
											<description></description>
											<scene></scene>
											<shottake></shottake>
											<lognote></lognote>
											<good></good>
											<originalvideofilename></originalvideofilename>
											<originalaudiofilename></originalaudiofilename>
										</logginginfo>
										<colorinfo>
											<lut></lut>
											<lut1></lut1>
											<asc_sop></asc_sop>
											<asc_sat></asc_sat>
											<lut2></lut2>
										</colorinfo>
										<labels>
											<label2>Iris</label2>
										</labels>
									</clipitem>
									<enabled>TRUE</enabled>
									<locked>FALSE</locked>
								</track>
							</video>
							<audio>
								<numOutputChannels>2</numOutputChannels>
								<format>
									<samplecharacteristics>
										<depth>16</depth>
										<samplerate>48000</samplerate>
									</samplecharacteristics>
								</format>
								<outputs>
									<group>
										<index>1</index>
										<numchannels>1</numchannels>
										<downmix>0</downmix>
										<channel>
											<index>1</index>
										</channel>
									</group>
									<group>
										<index>2</index>
										<numchannels>1</numchannels>
										<downmix>0</downmix>
										<channel>
											<index>2</index>
										</channel>
									</group>
								</outputs>
								<track TL.SQTrackAudioKeyframeStyle="0" TL.SQTrackShy="0" TL.SQTrackExpandedHeight="65" TL.SQTrackExpanded="0" MZ.TrackTargeted="1" PannerCurrentValue="0.5" PannerIsInverted="true" PannerStartKeyframe="-91445760000000000,0.5,0,0,0,0,0,0" PannerName="Balance" currentExplodedTrackIndex="0" totalExplodedTrackCount="2" premiereTrackType="Stereo">
									<clipitem id="clipitem-368" premiereChannelType="stereo">
										<masterclipid>masterclip-118</masterclipid>
										<name>BEAUTY_BEGINNERWIGINSTALL_1</name>
										<enabled>TRUE</enabled>
										<duration>2556</duration>
										<rate>
											<timebase>30</timebase>
											<ntsc>TRUE</ntsc>
										</rate>
										<start>0</start>
										<end>2126</end>
										<in>0</in>
										<out>2126</out>
										<pproTicksIn>0</pproTicksIn>
										<pproTicksOut>18019268467200</pproTicksOut>
										<sequence id="sequence-24"/>
										<sourcetrack>
											<mediatype>audio</mediatype>
											<trackindex>0</trackindex>
										</sourcetrack>
										<link>
											<linkclipref>clipitem-341</linkclipref>
											<mediatype>video</mediatype>
											<trackindex>1</trackindex>
											<clipindex>1</clipindex>
										</link>
										<link>
											<linkclipref>clipitem-368</linkclipref>
											<mediatype>audio</mediatype>
											<trackindex>1</trackindex>
											<clipindex>1</clipindex>
											<groupindex>1</groupindex>
										</link>
										<link>
											<linkclipref>clipitem-371</linkclipref>
											<mediatype>audio</mediatype>
											<trackindex>2</trackindex>
											<clipindex>1</clipindex>
											<groupindex>1</groupindex>
										</link>
										<labels>
											<label2>Forest</label2>
										</labels>
									</clipitem>
									<clipitem id="clipitem-369" premiereChannelType="stereo">
										<masterclipid>masterclip-122</masterclipid>
										<name>diy_minicafe_2</name>
										<enabled>TRUE</enabled>
										<duration>3162</duration>
										<rate>
											<timebase>30</timebase>
											<ntsc>TRUE</ntsc>
										</rate>
										<start>2207</start>
										<end>5369</end>
										<in>0</in>
										<out>3162</out>
										<pproTicksIn>0</pproTicksIn>
										<pproTicksOut>26800059686400</pproTicksOut>
										<sequence id="sequence-25"/>
										<sourcetrack>
											<mediatype>audio</mediatype>
											<trackindex>0</trackindex>
										</sourcetrack>
										<link>
											<linkclipref>clipitem-350</linkclipref>
											<mediatype>video</mediatype>
											<trackindex>1</trackindex>
											<clipindex>2</clipindex>
										</link>
										<link>
											<linkclipref>clipitem-369</linkclipref>
											<mediatype>audio</mediatype>
											<trackindex>1</trackindex>
											<clipindex>2</clipindex>
											<groupindex>1</groupindex>
										</link>
										<link>
											<linkclipref>clipitem-372</linkclipref>
											<mediatype>audio</mediatype>
											<trackindex>2</trackindex>
											<clipindex>2</clipindex>
											<groupindex>1</groupindex>
										</link>
										<labels>
											<label2>Forest</label2>
										</labels>
									</clipitem>
									<clipitem id="clipitem-370" premiereChannelType="stereo">
										<masterclipid>masterclip-128</masterclipid>
										<name>ATM_YouAreWatching.mp4</name>
										<enabled>TRUE</enabled>
										<duration>299</duration>
										<rate>
											<timebase>30</timebase>
											<ntsc>TRUE</ntsc>
										</rate>
										<start>5369</start>
										<end>5668</end>
										<in>0</in>
										<out>299</out>
										<pproTicksIn>0</pproTicksIn>
										<pproTicksOut>2534224492800</pproTicksOut>
										<file id="file-111"/>
										<sourcetrack>
											<mediatype>audio</mediatype>
											<trackindex>1</trackindex>
										</sourcetrack>
										<filter>
											<effect>
												<name>Gain</name>
												<effectid>{61756678, 4761696e, 4b657947}</effectid>
												<effecttype>filter</effecttype>
												<mediatype>audio</mediatype>
												<parameter authoringApp="PremierePro">
													<parameterid>Gain(dB)</parameterid>
													<name>Gain(dB)</name>
													<valuemin>-96</valuemin>
													<valuemax>96</valuemax>
													<value>-8</value>
												</parameter>
											</effect>
										</filter>
										<link>
											<linkclipref>clipitem-363</linkclipref>
											<mediatype>video</mediatype>
											<trackindex>1</trackindex>
											<clipindex>3</clipindex>
										</link>
										<link>
											<linkclipref>clipitem-370</linkclipref>
											<mediatype>audio</mediatype>
											<trackindex>1</trackindex>
											<clipindex>3</clipindex>
											<groupindex>1</groupindex>
										</link>
										<link>
											<linkclipref>clipitem-373</linkclipref>
											<mediatype>audio</mediatype>
											<trackindex>2</trackindex>
											<clipindex>3</clipindex>
											<groupindex>1</groupindex>
										</link>
										<logginginfo>
											<description></description>
											<scene></scene>
											<shottake></shottake>
											<lognote></lognote>
											<good></good>
											<originalvideofilename></originalvideofilename>
											<originalaudiofilename></originalaudiofilename>
										</logginginfo>
										<colorinfo>
											<lut></lut>
											<lut1></lut1>
											<asc_sop></asc_sop>
											<asc_sat></asc_sat>
											<lut2></lut2>
										</colorinfo>
										<labels>
											<label2>Iris</label2>
										</labels>
									</clipitem>
									<enabled>TRUE</enabled>
									<locked>FALSE</locked>
									<outputchannelindex>1</outputchannelindex>
								</track>
								<track TL.SQTrackAudioKeyframeStyle="0" TL.SQTrackShy="0" TL.SQTrackExpandedHeight="65" TL.SQTrackExpanded="0" MZ.TrackTargeted="1" PannerCurrentValue="0.5" PannerIsInverted="true" PannerStartKeyframe="-91445760000000000,0.5,0,0,0,0,0,0" PannerName="Balance" currentExplodedTrackIndex="1" totalExplodedTrackCount="2" premiereTrackType="Stereo">
									<clipitem id="clipitem-371" premiereChannelType="stereo">
										<masterclipid>masterclip-118</masterclipid>
										<name>BEAUTY_BEGINNERWIGINSTALL_1</name>
										<enabled>TRUE</enabled>
										<duration>2556</duration>
										<rate>
											<timebase>30</timebase>
											<ntsc>TRUE</ntsc>
										</rate>
										<start>0</start>
										<end>2126</end>
										<in>0</in>
										<out>2126</out>
										<pproTicksIn>0</pproTicksIn>
										<pproTicksOut>18019268467200</pproTicksOut>
										<sequence id="sequence-24"/>
										<sourcetrack>
											<mediatype>audio</mediatype>
											<trackindex>1</trackindex>
										</sourcetrack>
										<link>
											<linkclipref>clipitem-341</linkclipref>
											<mediatype>video</mediatype>
											<trackindex>1</trackindex>
											<clipindex>1</clipindex>
										</link>
										<link>
											<linkclipref>clipitem-368</linkclipref>
											<mediatype>audio</mediatype>
											<trackindex>1</trackindex>
											<clipindex>1</clipindex>
											<groupindex>1</groupindex>
										</link>
										<link>
											<linkclipref>clipitem-371</linkclipref>
											<mediatype>audio</mediatype>
											<trackindex>2</trackindex>
											<clipindex>1</clipindex>
											<groupindex>1</groupindex>
										</link>
										<labels>
											<label2>Forest</label2>
										</labels>
									</clipitem>
									<clipitem id="clipitem-372" premiereChannelType="stereo">
										<masterclipid>masterclip-122</masterclipid>
										<name>diy_minicafe_2</name>
										<enabled>TRUE</enabled>
										<duration>3162</duration>
										<rate>
											<timebase>30</timebase>
											<ntsc>TRUE</ntsc>
										</rate>
										<start>2207</start>
										<end>5369</end>
										<in>0</in>
										<out>3162</out>
										<pproTicksIn>0</pproTicksIn>
										<pproTicksOut>26800059686400</pproTicksOut>
										<sequence id="sequence-25"/>
										<sourcetrack>
											<mediatype>audio</mediatype>
											<trackindex>1</trackindex>
										</sourcetrack>
										<link>
											<linkclipref>clipitem-350</linkclipref>
											<mediatype>video</mediatype>
											<trackindex>1</trackindex>
											<clipindex>2</clipindex>
										</link>
										<link>
											<linkclipref>clipitem-369</linkclipref>
											<mediatype>audio</mediatype>
											<trackindex>1</trackindex>
											<clipindex>2</clipindex>
											<groupindex>1</groupindex>
										</link>
										<link>
											<linkclipref>clipitem-372</linkclipref>
											<mediatype>audio</mediatype>
											<trackindex>2</trackindex>
											<clipindex>2</clipindex>
											<groupindex>1</groupindex>
										</link>
										<labels>
											<label2>Forest</label2>
										</labels>
									</clipitem>
									<clipitem id="clipitem-373" premiereChannelType="stereo">
										<masterclipid>masterclip-128</masterclipid>
										<name>ATM_YouAreWatching.mp4</name>
										<enabled>TRUE</enabled>
										<duration>299</duration>
										<rate>
											<timebase>30</timebase>
											<ntsc>TRUE</ntsc>
										</rate>
										<start>5369</start>
										<end>5668</end>
										<in>0</in>
										<out>299</out>
										<pproTicksIn>0</pproTicksIn>
										<pproTicksOut>2534224492800</pproTicksOut>
										<file id="file-111"/>
										<sourcetrack>
											<mediatype>audio</mediatype>
											<trackindex>2</trackindex>
										</sourcetrack>
										<filter>
											<effect>
												<name>Gain</name>
												<effectid>{61756678, 4761696e, 4b657947}</effectid>
												<effecttype>filter</effecttype>
												<mediatype>audio</mediatype>
												<parameter authoringApp="PremierePro">
													<parameterid>Gain(dB)</parameterid>
													<name>Gain(dB)</name>
													<valuemin>-96</valuemin>
													<valuemax>96</valuemax>
													<value>-8</value>
												</parameter>
											</effect>
										</filter>
										<link>
											<linkclipref>clipitem-363</linkclipref>
											<mediatype>video</mediatype>
											<trackindex>1</trackindex>
											<clipindex>3</clipindex>
										</link>
										<link>
											<linkclipref>clipitem-370</linkclipref>
											<mediatype>audio</mediatype>
											<trackindex>1</trackindex>
											<clipindex>3</clipindex>
											<groupindex>1</groupindex>
										</link>
										<link>
											<linkclipref>clipitem-373</linkclipref>
											<mediatype>audio</mediatype>
											<trackindex>2</trackindex>
											<clipindex>3</clipindex>
											<groupindex>1</groupindex>
										</link>
										<logginginfo>
											<description></description>
											<scene></scene>
											<shottake></shottake>
											<lognote></lognote>
											<good></good>
											<originalvideofilename></originalvideofilename>
											<originalaudiofilename></originalaudiofilename>
										</logginginfo>
										<colorinfo>
											<lut></lut>
											<lut1></lut1>
											<asc_sop></asc_sop>
											<asc_sat></asc_sat>
											<lut2></lut2>
										</colorinfo>
										<labels>
											<label2>Iris</label2>
										</labels>
									</clipitem>
									<enabled>TRUE</enabled>
									<locked>FALSE</locked>
									<outputchannelindex>2</outputchannelindex>
								</track>
								<track TL.SQTrackAudioKeyframeStyle="0" TL.SQTrackShy="0" TL.SQTrackExpandedHeight="65" TL.SQTrackExpanded="0" MZ.TrackTargeted="1" PannerCurrentValue="0.5" PannerIsInverted="true" PannerStartKeyframe="-91445760000000000,0.5,0,0,0,0,0,0" PannerName="Balance" currentExplodedTrackIndex="0" totalExplodedTrackCount="2" premiereTrackType="Stereo">
									<clipitem id="clipitem-374" premiereChannelType="stereo">
										<masterclipid>masterclip-103</masterclipid>
										<name>CRAFTY_TRAN02_JL_V01.mov</name>
										<enabled>TRUE</enabled>
										<duration>120</duration>
										<rate>
											<timebase>30</timebase>
											<ntsc>TRUE</ntsc>
										</rate>
										<start>2103</start>
										<end>2223</end>
										<in>0</in>
										<out>120</out>
										<pproTicksIn>0</pproTicksIn>
										<pproTicksOut>1017080064000</pproTicksOut>
										<file id="file-90"/>
										<sourcetrack>
											<mediatype>audio</mediatype>
											<trackindex>1</trackindex>
										</sourcetrack>
										<link>
											<linkclipref>clipitem-367</linkclipref>
											<mediatype>video</mediatype>
											<trackindex>4</trackindex>
											<clipindex>1</clipindex>
										</link>
										<link>
											<linkclipref>clipitem-374</linkclipref>
											<mediatype>audio</mediatype>
											<trackindex>3</trackindex>
											<clipindex>1</clipindex>
											<groupindex>1</groupindex>
										</link>
										<link>
											<linkclipref>clipitem-375</linkclipref>
											<mediatype>audio</mediatype>
											<trackindex>4</trackindex>
											<clipindex>1</clipindex>
											<groupindex>1</groupindex>
										</link>
										<logginginfo>
											<description></description>
											<scene></scene>
											<shottake></shottake>
											<lognote></lognote>
											<good></good>
											<originalvideofilename></originalvideofilename>
											<originalaudiofilename></originalaudiofilename>
										</logginginfo>
										<colorinfo>
											<lut></lut>
											<lut1></lut1>
											<asc_sop></asc_sop>
											<asc_sat></asc_sat>
											<lut2></lut2>
										</colorinfo>
										<labels>
											<label2>Iris</label2>
										</labels>
									</clipitem>
									<enabled>TRUE</enabled>
									<locked>FALSE</locked>
									<outputchannelindex>1</outputchannelindex>
								</track>
								<track TL.SQTrackAudioKeyframeStyle="0" TL.SQTrackShy="0" TL.SQTrackExpandedHeight="65" TL.SQTrackExpanded="0" MZ.TrackTargeted="1" PannerCurrentValue="0.5" PannerIsInverted="true" PannerStartKeyframe="-91445760000000000,0.5,0,0,0,0,0,0" PannerName="Balance" currentExplodedTrackIndex="1" totalExplodedTrackCount="2" premiereTrackType="Stereo">
									<clipitem id="clipitem-375" premiereChannelType="stereo">
										<masterclipid>masterclip-103</masterclipid>
										<name>CRAFTY_TRAN02_JL_V01.mov</name>
										<enabled>TRUE</enabled>
										<duration>120</duration>
										<rate>
											<timebase>30</timebase>
											<ntsc>TRUE</ntsc>
										</rate>
										<start>2103</start>
										<end>2223</end>
										<in>0</in>
										<out>120</out>
										<pproTicksIn>0</pproTicksIn>
										<pproTicksOut>1017080064000</pproTicksOut>
										<file id="file-90"/>
										<sourcetrack>
											<mediatype>audio</mediatype>
											<trackindex>2</trackindex>
										</sourcetrack>
										<link>
											<linkclipref>clipitem-367</linkclipref>
											<mediatype>video</mediatype>
											<trackindex>4</trackindex>
											<clipindex>1</clipindex>
										</link>
										<link>
											<linkclipref>clipitem-374</linkclipref>
											<mediatype>audio</mediatype>
											<trackindex>3</trackindex>
											<clipindex>1</clipindex>
											<groupindex>1</groupindex>
										</link>
										<link>
											<linkclipref>clipitem-375</linkclipref>
											<mediatype>audio</mediatype>
											<trackindex>4</trackindex>
											<clipindex>1</clipindex>
											<groupindex>1</groupindex>
										</link>
										<logginginfo>
											<description></description>
											<scene></scene>
											<shottake></shottake>
											<lognote></lognote>
											<good></good>
											<originalvideofilename></originalvideofilename>
											<originalaudiofilename></originalaudiofilename>
										</logginginfo>
										<colorinfo>
											<lut></lut>
											<lut1></lut1>
											<asc_sop></asc_sop>
											<asc_sat></asc_sat>
											<lut2></lut2>
										</colorinfo>
										<labels>
											<label2>Iris</label2>
										</labels>
									</clipitem>
									<enabled>TRUE</enabled>
									<locked>FALSE</locked>
									<outputchannelindex>2</outputchannelindex>
								</track>
								<track TL.SQTrackAudioKeyframeStyle="0" TL.SQTrackShy="0" TL.SQTrackExpandedHeight="65" TL.SQTrackExpanded="0" MZ.TrackTargeted="1" PannerCurrentValue="0.5" PannerIsInverted="true" PannerStartKeyframe="-91445760000000000,0.5,0,0,0,0,0,0" PannerName="Balance" currentExplodedTrackIndex="0" totalExplodedTrackCount="2" premiereTrackType="Stereo">
									<enabled>TRUE</enabled>
									<locked>FALSE</locked>
									<outputchannelindex>1</outputchannelindex>
								</track>
								<track TL.SQTrackAudioKeyframeStyle="0" TL.SQTrackShy="0" TL.SQTrackExpandedHeight="65" TL.SQTrackExpanded="0" MZ.TrackTargeted="1" PannerCurrentValue="0.5" PannerIsInverted="true" PannerStartKeyframe="-91445760000000000,0.5,0,0,0,0,0,0" PannerName="Balance" currentExplodedTrackIndex="1" totalExplodedTrackCount="2" premiereTrackType="Stereo">
									<enabled>TRUE</enabled>
									<locked>FALSE</locked>
									<outputchannelindex>2</outputchannelindex>
								</track>
								<track TL.SQTrackAudioKeyframeStyle="0" TL.SQTrackShy="0" TL.SQTrackExpandedHeight="25" TL.SQTrackExpanded="0" MZ.TrackTargeted="0" PannerCurrentValue="0.5" PannerIsInverted="true" PannerStartKeyframe="-91445760000000000,0.5,0,0,0,0,0,0" PannerName="Balance" currentExplodedTrackIndex="0" totalExplodedTrackCount="2" premiereTrackType="Stereo">
									<enabled>TRUE</enabled>
									<locked>FALSE</locked>
									<outputchannelindex>1</outputchannelindex>
								</track>
								<track TL.SQTrackAudioKeyframeStyle="0" TL.SQTrackShy="0" TL.SQTrackExpandedHeight="25" TL.SQTrackExpanded="0" MZ.TrackTargeted="0" PannerCurrentValue="0.5" PannerIsInverted="true" PannerStartKeyframe="-91445760000000000,0.5,0,0,0,0,0,0" PannerName="Balance" currentExplodedTrackIndex="1" totalExplodedTrackCount="2" premiereTrackType="Stereo">
									<enabled>TRUE</enabled>
									<locked>FALSE</locked>
									<outputchannelindex>2</outputchannelindex>
								</track>
							</audio>
						</media>
						<timecode>
							<rate>
								<timebase>30</timebase>
								<ntsc>TRUE</ntsc>
							</rate>
							<string>00;00;00;00</string>
							<frame>0</frame>
							<displayformat>DF</displayformat>
						</timecode>
						<labels>
							<label2>Forest</label2>
						</labels>
						<logginginfo>
							<description></description>
							<scene></scene>
							<shottake></shottake>
							<lognote></lognote>
							<good></good>
							<originalvideofilename></originalvideofilename>
							<originalaudiofilename></originalaudiofilename>
						</logginginfo>
					</sequence>
					<sequence id="sequence-26" TL.SQAudioVisibleBase="0" TL.SQVideoVisibleBase="0" TL.SQVisibleBaseTime="21248274240105" TL.SQAVDividerPosition="0.5" TL.SQHideShyTracks="0" TL.SQHeaderWidth="236" TL.SQDataTrackViewControlState="0" Monitor.ProgramZoomOut="46183910572800" Monitor.ProgramZoomIn="0" TL.SQTimePerPixel="0.043890394878903539" MZ.EditLine="27622199404800" MZ.Sequence.PreviewFrameSizeHeight="1080" MZ.Sequence.PreviewFrameSizeWidth="1920" MZ.Sequence.AudioTimeDisplayFormat="200" MZ.Sequence.PreviewRenderingClassID="1061109567" MZ.Sequence.PreviewRenderingPresetCodec="1634755443" MZ.Sequence.PreviewRenderingPresetPath="EncoderPresets/SequencePreview/35d109db-457b-43c1-9452-9cb7be9f121c/QuickTime.epr" MZ.Sequence.PreviewUseMaxRenderQuality="false" MZ.Sequence.PreviewUseMaxBitDepth="false" MZ.Sequence.EditingModeGUID="35d109db-457b-43c1-9452-9cb7be9f121c" MZ.Sequence.VideoTimeDisplayFormat="102" MZ.WorkOutPoint="15239249625600" MZ.WorkInPoint="0" explodedTracks="true">
						<uuid>14d46931-dc2a-4dcd-9746-f40a60a4f5c4</uuid>
						<duration>5360</duration>
						<rate>
							<timebase>30</timebase>
							<ntsc>TRUE</ntsc>
						</rate>
						<name>ATM_CRAFTY_304</name>
						<media>
							<video>
								<format>
									<samplecharacteristics>
										<rate>
											<timebase>30</timebase>
											<ntsc>TRUE</ntsc>
										</rate>
										<codec>
											<name>Apple ProRes 422</name>
											<appspecificdata>
												<appname>Final Cut Pro</appname>
												<appmanufacturer>Apple Inc.</appmanufacturer>
												<appversion>7.0</appversion>
												<data>
													<qtcodec>
														<codecname>Apple ProRes 422</codecname>
														<codectypename>Apple ProRes 422</codectypename>
														<codectypecode>apcn</codectypecode>
														<codecvendorcode>appl</codecvendorcode>
														<spatialquality>1024</spatialquality>
														<temporalquality>0</temporalquality>
														<keyframerate>0</keyframerate>
														<datarate>0</datarate>
													</qtcodec>
												</data>
											</appspecificdata>
										</codec>
										<width>1920</width>
										<height>1080</height>
										<anamorphic>FALSE</anamorphic>
										<pixelaspectratio>square</pixelaspectratio>
										<fielddominance>none</fielddominance>
										<colordepth>24</colordepth>
									</samplecharacteristics>
								</format>
								<track TL.SQTrackShy="0" TL.SQTrackExpandedHeight="25" TL.SQTrackExpanded="0" MZ.TrackTargeted="1">
									<clipitem id="clipitem-376">
										<masterclipid>masterclip-131</masterclipid>
										<name>DIY_SIMPLE&amp;SOUTHERNPORCHDECOR_2</name>
										<enabled>TRUE</enabled>
										<duration>3537</duration>
										<rate>
											<timebase>30</timebase>
											<ntsc>TRUE</ntsc>
										</rate>
										<start>0</start>
										<end>3224</end>
										<in>0</in>
										<out>3224</out>
										<pproTicksIn>0</pproTicksIn>
										<pproTicksOut>27325551052800</pproTicksOut>
										<sequence id="sequence-27" TL.SQAudioVisibleBase="0" TL.SQVideoVisibleBase="0" TL.SQVisibleBaseTime="0" TL.SQAVDividerPosition="0.5" TL.SQHideShyTracks="0" TL.SQHeaderWidth="236" Monitor.ProgramZoomOut="28478241792000" Monitor.ProgramZoomIn="0" TL.SQTimePerPixel="0.13907307693938989" MZ.EditLine="27706956076800" MZ.Sequence.PreviewFrameSizeHeight="1080" MZ.Sequence.PreviewFrameSizeWidth="1920" MZ.Sequence.AudioTimeDisplayFormat="200" MZ.Sequence.PreviewRenderingClassID="1061109567" MZ.Sequence.PreviewRenderingPresetCodec="1634755443" MZ.Sequence.PreviewRenderingPresetPath="EncoderPresets/SequencePreview/35d109db-457b-43c1-9452-9cb7be9f121c/QuickTime.epr" MZ.Sequence.PreviewUseMaxRenderQuality="false" MZ.Sequence.PreviewUseMaxBitDepth="false" MZ.Sequence.EditingModeGUID="35d109db-457b-43c1-9452-9cb7be9f121c" MZ.Sequence.VideoTimeDisplayFormat="102" MZ.WorkOutPoint="29978434886400" MZ.WorkInPoint="0">
											<duration>3360</duration>
											<rate>
												<timebase>30</timebase>
												<ntsc>TRUE</ntsc>
											</rate>
											<name>DIY_SIMPLE&amp;SOUTHERNPORCHDECOR_2</name>
											<media>
												<video>
													<format>
														<samplecharacteristics>
															<rate>
																<timebase>30</timebase>
																<ntsc>TRUE</ntsc>
															</rate>
															<codec>
																<name>Apple ProRes 422</name>
																<appspecificdata>
																	<appname>Final Cut Pro</appname>
																	<appmanufacturer>Apple Inc.</appmanufacturer>
																	<appversion>7.0</appversion>
																	<data>
																		<qtcodec>
																			<codecname>Apple ProRes 422</codecname>
																			<codectypename>Apple ProRes 422</codectypename>
																			<codectypecode>apcn</codectypecode>
																			<codecvendorcode>appl</codecvendorcode>
																			<spatialquality>1024</spatialquality>
																			<temporalquality>0</temporalquality>
																			<keyframerate>0</keyframerate>
																			<datarate>0</datarate>
																		</qtcodec>
																	</data>
																</appspecificdata>
															</codec>
															<width>1920</width>
															<height>1080</height>
															<anamorphic>FALSE</anamorphic>
															<pixelaspectratio>square</pixelaspectratio>
															<fielddominance>none</fielddominance>
															<colordepth>24</colordepth>
														</samplecharacteristics>
													</format>
													<track TL.SQTrackShy="0" TL.SQTrackExpandedHeight="25" TL.SQTrackExpanded="0" MZ.TrackTargeted="1">
														<clipitem id="clipitem-377">
															<masterclipid>masterclip-132</masterclipid>
															<name>(Coffee N Crafting)_4 HIGH END FRONT PORCH SUMMER DECOR DIYS~DOLLAR TREE DIYS~TEMU DIYS_ch8rh0JvVKo_YT.mp4</name>
															<enabled>TRUE</enabled>
															<duration>32298</duration>
															<rate>
																<timebase>30</timebase>
																<ntsc>TRUE</ntsc>
															</rate>
															<start>0</start>
															<end>126</end>
															<in>1201</in>
															<out>1326</out>
															<pproTicksIn>12721976467200</pproTicksIn>
															<pproTicksOut>14056894051200</pproTicksOut>
															<alphatype>none</alphatype>
															<pixelaspectratio>square</pixelaspectratio>
															<anamorphic>FALSE</anamorphic>
															<file id="file-114">
																<name>(Coffee N Crafting)_4 HIGH END FRONT PORCH SUMMER DECOR DIYS~DOLLAR TREE DIYS~TEMU DIYS_ch8rh0JvVKo_YT.mp4</name>
																<pathurl>file://localhost/Volumes/ATM%20JR%202TB/Crafty/2023/06_June/Crafty_6-19-23/3_Raw%20Footage/porch%20decor/(Coffee%20N%20Crafting)_4%20HIGH%20END%20FRONT%20PORCH%20SUMMER%20DECOR%20DIYS~DOLLAR%20TREE%20DIYS~TEMU%20DIYS_ch8rh0JvVKo_YT.mp4</pathurl>
																<rate>
																	<timebase>60</timebase>
																	<ntsc>FALSE</ntsc>
																</rate>
																<duration>80827</duration>
																<timecode>
																	<rate>
																		<timebase>60</timebase>
																		<ntsc>FALSE</ntsc>
																	</rate>
																	<string>00:00:00:00</string>
																	<frame>0</frame>
																	<displayformat>NDF</displayformat>
																</timecode>
																<media>
																	<video>
																		<samplecharacteristics>
																			<rate>
																				<timebase>60</timebase>
																				<ntsc>FALSE</ntsc>
																			</rate>
																			<width>1920</width>
																			<height>1080</height>
																			<anamorphic>FALSE</anamorphic>
																			<pixelaspectratio>square</pixelaspectratio>
																			<fielddominance>none</fielddominance>
																		</samplecharacteristics>
																	</video>
																	<audio>
																		<samplecharacteristics>
																			<depth>16</depth>
																			<samplerate>44100</samplerate>
																		</samplecharacteristics>
																		<channelcount>2</channelcount>
																	</audio>
																</media>
															</file>
															<filter>
																<effect>
																	<name>Time Remap</name>
																	<effectid>timeremap</effectid>
																	<effectcategory>motion</effectcategory>
																	<effecttype>motion</effecttype>
																	<mediatype>video</mediatype>
																	<parameter authoringApp="PremierePro">
																		<parameterid>variablespeed</parameterid>
																		<name>variablespeed</name>
																		<valuemin>0</valuemin>
																		<valuemax>1</valuemax>
																		<value>0</value>
																	</parameter>
																	<parameter authoringApp="PremierePro">
																		<parameterid>speed</parameterid>
																		<name>speed</name>
																		<valuemin>-100000</valuemin>
																		<valuemax>100000</valuemax>
																		<value>125</value>
																	</parameter>
																	<parameter authoringApp="PremierePro">
																		<parameterid>reverse</parameterid>
																		<name>reverse</name>
																		<value>FALSE</value>
																	</parameter>
																	<parameter authoringApp="PremierePro">
																		<parameterid>frameblending</parameterid>
																		<name>frameblending</name>
																		<value>FALSE</value>
																	</parameter>
																	<parameter authoringApp="PremierePro">
																		<parameterid>graphdict</parameterid>
																		<name>graphdict</name>
																		<valuemin>0</valuemin>
																		<valuemax>40372</valuemax>
																		<value>0</value>
																		<keyframe>
																			<when>0</when>
																			<value>0</value>
																			<speedvirtualkf>TRUE</speedvirtualkf>
																			<speedkfstart>TRUE</speedkfstart>
																		</keyframe>
																		<keyframe>
																			<when>1201</when>
																			<value>1501</value>
																			<speedvirtualkf>TRUE</speedvirtualkf>
																			<speedkfin>TRUE</speedkfin>
																		</keyframe>
																		<keyframe>
																			<when>1326</when>
																			<value>1657</value>
																			<speedvirtualkf>TRUE</speedvirtualkf>
																			<speedkfout>TRUE</speedkfout>
																		</keyframe>
																		<keyframe>
																			<when>32298</when>
																			<value>40372</value>
																			<speedvirtualkf>TRUE</speedvirtualkf>
																			<speedkfend>TRUE</speedkfend>
																		</keyframe>
																		<interpolation>
																			<name>FCPCurve</name>
																		</interpolation>
																	</parameter>
																</effect>
															</filter>
															<logginginfo>
																<description></description>
																<scene></scene>
																<shottake></shottake>
																<lognote>https://www.youtube.com/watch?v=ch8rh0JvVKo</lognote>
																<good></good>
																<originalvideofilename></originalvideofilename>
																<originalaudiofilename></originalaudiofilename>
															</logginginfo>
															<colorinfo>
																<lut></lut>
																<lut1></lut1>
																<asc_sop></asc_sop>
																<asc_sat></asc_sat>
																<lut2></lut2>
															</colorinfo>
															<labels>
																<label2>Iris</label2>
															</labels>
														</clipitem>
														<clipitem id="clipitem-378">
															<masterclipid>masterclip-132</masterclipid>
															<name>(Coffee N Crafting)_4 HIGH END FRONT PORCH SUMMER DECOR DIYS~DOLLAR TREE DIYS~TEMU DIYS_ch8rh0JvVKo_YT.mp4</name>
															<enabled>TRUE</enabled>
															<duration>21234</duration>
															<rate>
																<timebase>30</timebase>
																<ntsc>TRUE</ntsc>
															</rate>
															<start>126</start>
															<end>435</end>
															<in>1367</in>
															<out>1675</out>
															<pproTicksIn>22019783385600</pproTicksIn>
															<pproTicksOut>26999237865600</pproTicksOut>
															<alphatype>none</alphatype>
															<file id="file-114"/>
															<filter>
																<effect>
																	<name>Time Remap</name>
																	<effectid>timeremap</effectid>
																	<effectcategory>motion</effectcategory>
																	<effecttype>motion</effecttype>
																	<mediatype>video</mediatype>
																	<parameter authoringApp="PremierePro">
																		<parameterid>variablespeed</parameterid>
																		<name>variablespeed</name>
																		<valuemin>0</valuemin>
																		<valuemax>1</valuemax>
																		<value>0</value>
																	</parameter>
																	<parameter authoringApp="PremierePro">
																		<parameterid>speed</parameterid>
																		<name>speed</name>
																		<valuemin>-100000</valuemin>
																		<valuemax>100000</valuemax>
																		<value>190.129</value>
																	</parameter>
																	<parameter authoringApp="PremierePro">
																		<parameterid>reverse</parameterid>
																		<name>reverse</name>
																		<value>FALSE</value>
																	</parameter>
																	<parameter authoringApp="PremierePro">
																		<parameterid>frameblending</parameterid>
																		<name>frameblending</name>
																		<value>FALSE</value>
																	</parameter>
																	<parameter authoringApp="PremierePro">
																		<parameterid>graphdict</parameterid>
																		<name>graphdict</name>
																		<valuemin>0</valuemin>
																		<valuemax>40372</valuemax>
																		<value>0</value>
																		<keyframe>
																			<when>0</when>
																			<value>0</value>
																			<speedvirtualkf>TRUE</speedvirtualkf>
																			<speedkfstart>TRUE</speedkfstart>
																		</keyframe>
																		<keyframe>
																			<when>1367</when>
																			<value>2599</value>
																			<speedvirtualkf>TRUE</speedvirtualkf>
																			<speedkfin>TRUE</speedkfin>
																		</keyframe>
																		<keyframe>
																			<when>1675</when>
																			<value>3184</value>
																			<speedvirtualkf>TRUE</speedvirtualkf>
																			<speedkfout>TRUE</speedkfout>
																		</keyframe>
																		<keyframe>
																			<when>21234</when>
																			<value>40372</value>
																			<speedvirtualkf>TRUE</speedvirtualkf>
																			<speedkfend>TRUE</speedkfend>
																		</keyframe>
																		<interpolation>
																			<name>FCPCurve</name>
																		</interpolation>
																	</parameter>
																</effect>
															</filter>
															<logginginfo>
																<description></description>
																<scene></scene>
																<shottake></shottake>
																<lognote>https://www.youtube.com/watch?v=ch8rh0JvVKo</lognote>
																<good></good>
																<originalvideofilename></originalvideofilename>
																<originalaudiofilename></originalaudiofilename>
															</logginginfo>
															<colorinfo>
																<lut></lut>
																<lut1></lut1>
																<asc_sop></asc_sop>
																<asc_sat></asc_sat>
																<lut2></lut2>
															</colorinfo>
															<labels>
																<label2>Iris</label2>
															</labels>
														</clipitem>
														<clipitem id="clipitem-379">
															<masterclipid>masterclip-132</masterclipid>
															<name>(Coffee N Crafting)_4 HIGH END FRONT PORCH SUMMER DECOR DIYS~DOLLAR TREE DIYS~TEMU DIYS_ch8rh0JvVKo_YT.mp4</name>
															<enabled>TRUE</enabled>
															<duration>32298</duration>
															<rate>
																<timebase>30</timebase>
																<ntsc>TRUE</ntsc>
															</rate>
															<start>435</start>
															<end>650</end>
															<in>2837</in>
															<out>3051</out>
															<pproTicksIn>30054715891200</pproTicksIn>
															<pproTicksOut>32332551451200</pproTicksOut>
															<alphatype>none</alphatype>
															<file id="file-114"/>
															<filter>
																<effect>
																	<name>Time Remap</name>
																	<effectid>timeremap</effectid>
																	<effectcategory>motion</effectcategory>
																	<effecttype>motion</effecttype>
																	<mediatype>video</mediatype>
																	<parameter authoringApp="PremierePro">
																		<parameterid>variablespeed</parameterid>
																		<name>variablespeed</name>
																		<valuemin>0</valuemin>
																		<valuemax>1</valuemax>
																		<value>0</value>
																	</parameter>
																	<parameter authoringApp="PremierePro">
																		<parameterid>speed</parameterid>
																		<name>speed</name>
																		<valuemin>-100000</valuemin>
																		<valuemax>100000</valuemax>
																		<value>125</value>
																	</parameter>
																	<parameter authoringApp="PremierePro">
																		<parameterid>reverse</parameterid>
																		<name>reverse</name>
																		<value>FALSE</value>
																	</parameter>
																	<parameter authoringApp="PremierePro">
																		<parameterid>frameblending</parameterid>
																		<name>frameblending</name>
																		<value>FALSE</value>
																	</parameter>
																	<parameter authoringApp="PremierePro">
																		<parameterid>graphdict</parameterid>
																		<name>graphdict</name>
																		<valuemin>0</valuemin>
																		<valuemax>40372</valuemax>
																		<value>0</value>
																		<keyframe>
																			<when>0</when>
																			<value>0</value>
																			<speedvirtualkf>TRUE</speedvirtualkf>
																			<speedkfstart>TRUE</speedkfstart>
																		</keyframe>
																		<keyframe>
																			<when>2837</when>
																			<value>3546</value>
																			<speedvirtualkf>TRUE</speedvirtualkf>
																			<speedkfin>TRUE</speedkfin>
																		</keyframe>
																		<keyframe>
																			<when>3051</when>
																			<value>3813</value>
																			<speedvirtualkf>TRUE</speedvirtualkf>
																			<speedkfout>TRUE</speedkfout>
																		</keyframe>
																		<keyframe>
																			<when>32298</when>
																			<value>40372</value>
																			<speedvirtualkf>TRUE</speedvirtualkf>
																			<speedkfend>TRUE</speedkfend>
																		</keyframe>
																		<interpolation>
																			<name>FCPCurve</name>
																		</interpolation>
																	</parameter>
																</effect>
															</filter>
															<logginginfo>
																<description></description>
																<scene></scene>
																<shottake></shottake>
																<lognote>https://www.youtube.com/watch?v=ch8rh0JvVKo</lognote>
																<good></good>
																<originalvideofilename></originalvideofilename>
																<originalaudiofilename></originalaudiofilename>
															</logginginfo>
															<colorinfo>
																<lut></lut>
																<lut1></lut1>
																<asc_sop></asc_sop>
																<asc_sat></asc_sat>
																<lut2></lut2>
															</colorinfo>
															<labels>
																<label2>Iris</label2>
															</labels>
														</clipitem>
														<clipitem id="clipitem-380">
															<masterclipid>masterclip-132</masterclipid>
															<name>(Coffee N Crafting)_4 HIGH END FRONT PORCH SUMMER DECOR DIYS~DOLLAR TREE DIYS~TEMU DIYS_ch8rh0JvVKo_YT.mp4</name>
															<enabled>TRUE</enabled>
															<duration>32298</duration>
															<rate>
																<timebase>30</timebase>
																<ntsc>TRUE</ntsc>
															</rate>
															<start>650</start>
															<end>846</end>
															<in>4404</in>
															<out>4599</out>
															<pproTicksIn>46650072268800</pproTicksIn>
															<pproTicksOut>48726610732800</pproTicksOut>
															<alphatype>none</alphatype>
															<file id="file-114"/>
															<filter>
																<effect>
																	<name>Time Remap</name>
																	<effectid>timeremap</effectid>
																	<effectcategory>motion</effectcategory>
																	<effecttype>motion</effecttype>
																	<mediatype>video</mediatype>
																	<parameter authoringApp="PremierePro">
																		<parameterid>variablespeed</parameterid>
																		<name>variablespeed</name>
																		<valuemin>0</valuemin>
																		<valuemax>1</valuemax>
																		<value>0</value>
																	</parameter>
																	<parameter authoringApp="PremierePro">
																		<parameterid>speed</parameterid>
																		<name>speed</name>
																		<valuemin>-100000</valuemin>
																		<valuemax>100000</valuemax>
																		<value>125</value>
																	</parameter>
																	<parameter authoringApp="PremierePro">
																		<parameterid>reverse</parameterid>
																		<name>reverse</name>
																		<value>FALSE</value>
																	</parameter>
																	<parameter authoringApp="PremierePro">
																		<parameterid>frameblending</parameterid>
																		<name>frameblending</name>
																		<value>FALSE</value>
																	</parameter>
																	<parameter authoringApp="PremierePro">
																		<parameterid>graphdict</parameterid>
																		<name>graphdict</name>
																		<valuemin>0</valuemin>
																		<valuemax>40372</valuemax>
																		<value>0</value>
																		<keyframe>
																			<when>0</when>
																			<value>0</value>
																			<speedvirtualkf>TRUE</speedvirtualkf>
																			<speedkfstart>TRUE</speedkfstart>
																		</keyframe>
																		<keyframe>
																			<when>4404</when>
																			<value>5505</value>
																			<speedvirtualkf>TRUE</speedvirtualkf>
																			<speedkfin>TRUE</speedkfin>
																		</keyframe>
																		<keyframe>
																			<when>4599</when>
																			<value>5748</value>
																			<speedvirtualkf>TRUE</speedvirtualkf>
																			<speedkfout>TRUE</speedkfout>
																		</keyframe>
																		<keyframe>
																			<when>32298</when>
																			<value>40372</value>
																			<speedvirtualkf>TRUE</speedvirtualkf>
																			<speedkfend>TRUE</speedkfend>
																		</keyframe>
																		<interpolation>
																			<name>FCPCurve</name>
																		</interpolation>
																	</parameter>
																</effect>
															</filter>
															<logginginfo>
																<description></description>
																<scene></scene>
																<shottake></shottake>
																<lognote>https://www.youtube.com/watch?v=ch8rh0JvVKo</lognote>
																<good></good>
																<originalvideofilename></originalvideofilename>
																<originalaudiofilename></originalaudiofilename>
															</logginginfo>
															<colorinfo>
																<lut></lut>
																<lut1></lut1>
																<asc_sop></asc_sop>
																<asc_sat></asc_sat>
																<lut2></lut2>
															</colorinfo>
															<labels>
																<label2>Iris</label2>
															</labels>
														</clipitem>
														<clipitem id="clipitem-381">
															<masterclipid>masterclip-132</masterclipid>
															<name>(Coffee N Crafting)_4 HIGH END FRONT PORCH SUMMER DECOR DIYS~DOLLAR TREE DIYS~TEMU DIYS_ch8rh0JvVKo_YT.mp4</name>
															<enabled>TRUE</enabled>
															<duration>40373</duration>
															<rate>
																<timebase>30</timebase>
																<ntsc>TRUE</ntsc>
															</rate>
															<start>846</start>
															<end>917</end>
															<in>7646</in>
															<out>7717</out>
															<pproTicksIn>64804951411200</pproTicksIn>
															<pproTicksOut>65406723782400</pproTicksOut>
															<alphatype>none</alphatype>
															<file id="file-114"/>
															<filter>
																<effect>
																	<name>Basic Motion</name>
																	<effectid>basic</effectid>
																	<effectcategory>motion</effectcategory>
																	<effecttype>motion</effecttype>
																	<mediatype>video</mediatype>
																	<pproBypass>false</pproBypass>
																	<parameter authoringApp="PremierePro">
																		<parameterid>scale</parameterid>
																		<name>Scale</name>
																		<valuemin>0</valuemin>
																		<valuemax>1000</valuemax>
																		<value>300</value>
																	</parameter>
																	<parameter authoringApp="PremierePro">
																		<parameterid>rotation</parameterid>
																		<name>Rotation</name>
																		<valuemin>-8640</valuemin>
																		<valuemax>8640</valuemax>
																		<value>0</value>
																	</parameter>
																	<parameter authoringApp="PremierePro">
																		<parameterid>center</parameterid>
																		<name>Center</name>
																		<value>
																			<horiz>0</horiz>
																			<vert>0</vert>
																		</value>
																	</parameter>
																	<parameter authoringApp="PremierePro">
																		<parameterid>centerOffset</parameterid>
																		<name>Anchor Point</name>
																		<value>
																			<horiz>0</horiz>
																			<vert>0</vert>
																		</value>
																	</parameter>
																	<parameter authoringApp="PremierePro">
																		<parameterid>antiflicker</parameterid>
																		<name>Anti-flicker Filter</name>
																		<valuemin>0.0</valuemin>
																		<valuemax>1.0</valuemax>
																		<value>0</value>
																	</parameter>
																</effect>
															</filter>
															<filter>
																<effect>
																	<name>Gaussian Blur</name>
																	<effectid>Gaussian Blur</effectid>
																	<effectcategory>Blur</effectcategory>
																	<effecttype>motion</effecttype>
																	<mediatype>video</mediatype>
																	<pproBypass>false</pproBypass>
																	<parameter authoringApp="PremierePro">
																		<parameterid>radius</parameterid>
																		<name>Radius</name>
																		<valuemin>0</valuemin>
																		<valuemax>100</valuemax>
																		<value>150</value>
																	</parameter>
																</effect>
															</filter>
															<logginginfo>
																<description></description>
																<scene></scene>
																<shottake></shottake>
																<lognote>https://www.youtube.com/watch?v=ch8rh0JvVKo</lognote>
																<good></good>
																<originalvideofilename></originalvideofilename>
																<originalaudiofilename></originalaudiofilename>
															</logginginfo>
															<colorinfo>
																<lut></lut>
																<lut1></lut1>
																<asc_sop></asc_sop>
																<asc_sat></asc_sat>
																<lut2></lut2>
															</colorinfo>
															<labels>
																<label2>Iris</label2>
															</labels>
														</clipitem>
														<clipitem id="clipitem-382">
															<masterclipid>masterclip-132</masterclipid>
															<name>(Coffee N Crafting)_4 HIGH END FRONT PORCH SUMMER DECOR DIYS~DOLLAR TREE DIYS~TEMU DIYS_ch8rh0JvVKo_YT.mp4</name>
															<enabled>TRUE</enabled>
															<duration>40373</duration>
															<rate>
																<timebase>30</timebase>
																<ntsc>TRUE</ntsc>
															</rate>
															<start>917</start>
															<end>990</end>
															<in>7787</in>
															<out>7860</out>
															<pproTicksIn>66000020486400</pproTicksIn>
															<pproTicksOut>66618744192000</pproTicksOut>
															<alphatype>none</alphatype>
															<file id="file-114"/>
															<filter>
																<effect>
																	<name>Basic Motion</name>
																	<effectid>basic</effectid>
																	<effectcategory>motion</effectcategory>
																	<effecttype>motion</effecttype>
																	<mediatype>video</mediatype>
																	<pproBypass>false</pproBypass>
																	<parameter authoringApp="PremierePro">
																		<parameterid>scale</parameterid>
																		<name>Scale</name>
																		<valuemin>0</valuemin>
																		<valuemax>1000</valuemax>
																		<value>300</value>
																	</parameter>
																	<parameter authoringApp="PremierePro">
																		<parameterid>rotation</parameterid>
																		<name>Rotation</name>
																		<valuemin>-8640</valuemin>
																		<valuemax>8640</valuemax>
																		<value>0</value>
																	</parameter>
																	<parameter authoringApp="PremierePro">
																		<parameterid>center</parameterid>
																		<name>Center</name>
																		<value>
																			<horiz>0</horiz>
																			<vert>0</vert>
																		</value>
																	</parameter>
																	<parameter authoringApp="PremierePro">
																		<parameterid>centerOffset</parameterid>
																		<name>Anchor Point</name>
																		<value>
																			<horiz>0</horiz>
																			<vert>0</vert>
																		</value>
																	</parameter>
																	<parameter authoringApp="PremierePro">
																		<parameterid>antiflicker</parameterid>
																		<name>Anti-flicker Filter</name>
																		<valuemin>0.0</valuemin>
																		<valuemax>1.0</valuemax>
																		<value>0</value>
																	</parameter>
																</effect>
															</filter>
															<filter>
																<effect>
																	<name>Gaussian Blur</name>
																	<effectid>Gaussian Blur</effectid>
																	<effectcategory>Blur</effectcategory>
																	<effecttype>motion</effecttype>
																	<mediatype>video</mediatype>
																	<pproBypass>false</pproBypass>
																	<parameter authoringApp="PremierePro">
																		<parameterid>radius</parameterid>
																		<name>Radius</name>
																		<valuemin>0</valuemin>
																		<valuemax>100</valuemax>
																		<value>150</value>
																	</parameter>
																</effect>
															</filter>
															<logginginfo>
																<description></description>
																<scene></scene>
																<shottake></shottake>
																<lognote>https://www.youtube.com/watch?v=ch8rh0JvVKo</lognote>
																<good></good>
																<originalvideofilename></originalvideofilename>
																<originalaudiofilename></originalaudiofilename>
															</logginginfo>
															<colorinfo>
																<lut></lut>
																<lut1></lut1>
																<asc_sop></asc_sop>
																<asc_sat></asc_sat>
																<lut2></lut2>
															</colorinfo>
															<labels>
																<label2>Iris</label2>
															</labels>
														</clipitem>
														<clipitem id="clipitem-383">
															<masterclipid>masterclip-132</masterclipid>
															<name>(Coffee N Crafting)_4 HIGH END FRONT PORCH SUMMER DECOR DIYS~DOLLAR TREE DIYS~TEMU DIYS_ch8rh0JvVKo_YT.mp4</name>
															<enabled>TRUE</enabled>
															<duration>26661</duration>
															<rate>
																<timebase>30</timebase>
																<ntsc>TRUE</ntsc>
															</rate>
															<start>990</start>
															<end>1305</end>
															<in>5744</in>
															<out>6058</out>
															<pproTicksIn>73721353305600</pproTicksIn>
															<pproTicksOut>77764246560000</pproTicksOut>
															<alphatype>none</alphatype>
															<file id="file-114"/>
															<filter>
																<effect>
																	<name>Time Remap</name>
																	<effectid>timeremap</effectid>
																	<effectcategory>motion</effectcategory>
																	<effecttype>motion</effecttype>
																	<mediatype>video</mediatype>
																	<parameter authoringApp="PremierePro">
																		<parameterid>variablespeed</parameterid>
																		<name>variablespeed</name>
																		<valuemin>0</valuemin>
																		<valuemax>1</valuemax>
																		<value>0</value>
																	</parameter>
																	<parameter authoringApp="PremierePro">
																		<parameterid>speed</parameterid>
																		<name>speed</name>
																		<valuemin>-100000</valuemin>
																		<valuemax>100000</valuemax>
																		<value>151.429</value>
																	</parameter>
																	<parameter authoringApp="PremierePro">
																		<parameterid>reverse</parameterid>
																		<name>reverse</name>
																		<value>FALSE</value>
																	</parameter>
																	<parameter authoringApp="PremierePro">
																		<parameterid>frameblending</parameterid>
																		<name>frameblending</name>
																		<value>FALSE</value>
																	</parameter>
																	<parameter authoringApp="PremierePro">
																		<parameterid>graphdict</parameterid>
																		<name>graphdict</name>
																		<valuemin>0</valuemin>
																		<valuemax>40372</valuemax>
																		<value>0</value>
																		<keyframe>
																			<when>0</when>
																			<value>0</value>
																			<speedvirtualkf>TRUE</speedvirtualkf>
																			<speedkfstart>TRUE</speedkfstart>
																		</keyframe>
																		<keyframe>
																			<when>5744</when>
																			<value>8698</value>
																			<speedvirtualkf>TRUE</speedvirtualkf>
																			<speedkfin>TRUE</speedkfin>
																		</keyframe>
																		<keyframe>
																			<when>6058</when>
																			<value>9173</value>
																			<speedvirtualkf>TRUE</speedvirtualkf>
																			<speedkfout>TRUE</speedkfout>
																		</keyframe>
																		<keyframe>
																			<when>26661</when>
																			<value>40372</value>
																			<speedvirtualkf>TRUE</speedvirtualkf>
																			<speedkfend>TRUE</speedkfend>
																		</keyframe>
																		<interpolation>
																			<name>FCPCurve</name>
																		</interpolation>
																	</parameter>
																</effect>
															</filter>
															<logginginfo>
																<description></description>
																<scene></scene>
																<shottake></shottake>
																<lognote>https://www.youtube.com/watch?v=ch8rh0JvVKo</lognote>
																<good></good>
																<originalvideofilename></originalvideofilename>
																<originalaudiofilename></originalaudiofilename>
															</logginginfo>
															<colorinfo>
																<lut></lut>
																<lut1></lut1>
																<asc_sop></asc_sop>
																<asc_sat></asc_sat>
																<lut2></lut2>
															</colorinfo>
															<labels>
																<label2>Violet</label2>
															</labels>
														</clipitem>
														<clipitem id="clipitem-384">
															<masterclipid>masterclip-132</masterclipid>
															<name>(Coffee N Crafting)_4 HIGH END FRONT PORCH SUMMER DECOR DIYS~DOLLAR TREE DIYS~TEMU DIYS_ch8rh0JvVKo_YT.mp4</name>
															<enabled>TRUE</enabled>
															<duration>40373</duration>
															<rate>
																<timebase>30</timebase>
																<ntsc>TRUE</ntsc>
															</rate>
															<start>1305</start>
															<end>1443</end>
															<in>12717</in>
															<out>12855</out>
															<pproTicksIn>107785059782400</pproTicksIn>
															<pproTicksOut>108954701856000</pproTicksOut>
															<alphatype>none</alphatype>
															<file id="file-114"/>
															<logginginfo>
																<description></description>
																<scene></scene>
																<shottake></shottake>
																<lognote>https://www.youtube.com/watch?v=ch8rh0JvVKo</lognote>
																<good></good>
																<originalvideofilename></originalvideofilename>
																<originalaudiofilename></originalaudiofilename>
															</logginginfo>
															<colorinfo>
																<lut></lut>
																<lut1></lut1>
																<asc_sop></asc_sop>
																<asc_sat></asc_sat>
																<lut2></lut2>
															</colorinfo>
															<labels>
																<label2>Violet</label2>
															</labels>
														</clipitem>
														<clipitem id="clipitem-385">
															<masterclipid>masterclip-132</masterclipid>
															<name>(Coffee N Crafting)_4 HIGH END FRONT PORCH SUMMER DECOR DIYS~DOLLAR TREE DIYS~TEMU DIYS_ch8rh0JvVKo_YT.mp4</name>
															<enabled>TRUE</enabled>
															<duration>27972</duration>
															<rate>
																<timebase>30</timebase>
																<ntsc>TRUE</ntsc>
															</rate>
															<start>1443</start>
															<end>1743</end>
															<in>9959</in>
															<out>10258</out>
															<pproTicksIn>121820764665600</pproTicksIn>
															<pproTicksOut>125490728563200</pproTicksOut>
															<alphatype>none</alphatype>
															<file id="file-114"/>
															<filter>
																<effect>
																	<name>Time Remap</name>
																	<effectid>timeremap</effectid>
																	<effectcategory>motion</effectcategory>
																	<effecttype>motion</effecttype>
																	<mediatype>video</mediatype>
																	<parameter authoringApp="PremierePro">
																		<parameterid>variablespeed</parameterid>
																		<name>variablespeed</name>
																		<valuemin>0</valuemin>
																		<valuemax>1</valuemax>
																		<value>0</value>
																	</parameter>
																	<parameter authoringApp="PremierePro">
																		<parameterid>speed</parameterid>
																		<name>speed</name>
																		<valuemin>-100000</valuemin>
																		<valuemax>100000</valuemax>
																		<value>144.333</value>
																	</parameter>
																	<parameter authoringApp="PremierePro">
																		<parameterid>reverse</parameterid>
																		<name>reverse</name>
																		<value>FALSE</value>
																	</parameter>
																	<parameter authoringApp="PremierePro">
																		<parameterid>frameblending</parameterid>
																		<name>frameblending</name>
																		<value>FALSE</value>
																	</parameter>
																	<parameter authoringApp="PremierePro">
																		<parameterid>graphdict</parameterid>
																		<name>graphdict</name>
																		<valuemin>0</valuemin>
																		<valuemax>40372</valuemax>
																		<value>0</value>
																		<keyframe>
																			<when>0</when>
																			<value>0</value>
																			<speedvirtualkf>TRUE</speedvirtualkf>
																			<speedkfstart>TRUE</speedkfstart>
																		</keyframe>
																		<keyframe>
																			<when>9959</when>
																			<value>14374</value>
																			<speedvirtualkf>TRUE</speedvirtualkf>
																			<speedkfin>TRUE</speedkfin>
																		</keyframe>
																		<keyframe>
																			<when>10258</when>
																			<value>14805</value>
																			<speedvirtualkf>TRUE</speedvirtualkf>
																			<speedkfout>TRUE</speedkfout>
																		</keyframe>
																		<keyframe>
																			<when>27972</when>
																			<value>40372</value>
																			<speedvirtualkf>TRUE</speedvirtualkf>
																			<speedkfend>TRUE</speedkfend>
																		</keyframe>
																		<interpolation>
																			<name>FCPCurve</name>
																		</interpolation>
																	</parameter>
																</effect>
															</filter>
															<logginginfo>
																<description></description>
																<scene></scene>
																<shottake></shottake>
																<lognote>https://www.youtube.com/watch?v=ch8rh0JvVKo</lognote>
																<good></good>
																<originalvideofilename></originalvideofilename>
																<originalaudiofilename></originalaudiofilename>
															</logginginfo>
															<colorinfo>
																<lut></lut>
																<lut1></lut1>
																<asc_sop></asc_sop>
																<asc_sat></asc_sat>
																<lut2></lut2>
															</colorinfo>
															<labels>
																<label2>Violet</label2>
															</labels>
														</clipitem>
														<clipitem id="clipitem-386">
															<masterclipid>masterclip-132</masterclipid>
															<name>(Coffee N Crafting)_4 HIGH END FRONT PORCH SUMMER DECOR DIYS~DOLLAR TREE DIYS~TEMU DIYS_ch8rh0JvVKo_YT.mp4</name>
															<enabled>TRUE</enabled>
															<duration>40373</duration>
															<rate>
																<timebase>30</timebase>
																<ntsc>TRUE</ntsc>
															</rate>
															<start>1743</start>
															<end>1819</end>
															<in>17992</in>
															<out>18068</out>
															<pproTicksIn>152494204262400</pproTicksIn>
															<pproTicksOut>153138354969600</pproTicksOut>
															<alphatype>none</alphatype>
															<file id="file-114"/>
															<logginginfo>
																<description></description>
																<scene></scene>
																<shottake></shottake>
																<lognote>https://www.youtube.com/watch?v=ch8rh0JvVKo</lognote>
																<good></good>
																<originalvideofilename></originalvideofilename>
																<originalaudiofilename></originalaudiofilename>
															</logginginfo>
															<colorinfo>
																<lut></lut>
																<lut1></lut1>
																<asc_sop></asc_sop>
																<asc_sat></asc_sat>
																<lut2></lut2>
															</colorinfo>
															<labels>
																<label2>Violet</label2>
															</labels>
														</clipitem>
														<clipitem id="clipitem-387">
															<masterclipid>masterclip-132</masterclipid>
															<name>(Coffee N Crafting)_4 HIGH END FRONT PORCH SUMMER DECOR DIYS~DOLLAR TREE DIYS~TEMU DIYS_ch8rh0JvVKo_YT.mp4</name>
															<enabled>TRUE</enabled>
															<duration>40373</duration>
															<rate>
																<timebase>30</timebase>
																<ntsc>TRUE</ntsc>
															</rate>
															<start>1819</start>
															<end>1899</end>
															<in>18435</in>
															<out>18515</out>
															<pproTicksIn>156248924832000</pproTicksIn>
															<pproTicksOut>156926978208000</pproTicksOut>
															<alphatype>none</alphatype>
															<file id="file-114"/>
															<filter>
																<effect>
																	<name>Basic Motion</name>
																	<effectid>basic</effectid>
																	<effectcategory>motion</effectcategory>
																	<effecttype>motion</effecttype>
																	<mediatype>video</mediatype>
																	<pproBypass>false</pproBypass>
																	<parameter authoringApp="PremierePro">
																		<parameterid>scale</parameterid>
																		<name>Scale</name>
																		<valuemin>0</valuemin>
																		<valuemax>1000</valuemax>
																		<value>125</value>
																	</parameter>
																	<parameter authoringApp="PremierePro">
																		<parameterid>rotation</parameterid>
																		<name>Rotation</name>
																		<valuemin>-8640</valuemin>
																		<valuemax>8640</valuemax>
																		<value>0</value>
																	</parameter>
																	<parameter authoringApp="PremierePro">
																		<parameterid>center</parameterid>
																		<name>Center</name>
																		<value>
																			<horiz>0</horiz>
																			<vert>0</vert>
																		</value>
																	</parameter>
																	<parameter authoringApp="PremierePro">
																		<parameterid>centerOffset</parameterid>
																		<name>Anchor Point</name>
																		<value>
																			<horiz>0</horiz>
																			<vert>0</vert>
																		</value>
																	</parameter>
																	<parameter authoringApp="PremierePro">
																		<parameterid>antiflicker</parameterid>
																		<name>Anti-flicker Filter</name>
																		<valuemin>0.0</valuemin>
																		<valuemax>1.0</valuemax>
																		<value>0</value>
																	</parameter>
																</effect>
															</filter>
															<logginginfo>
																<description></description>
																<scene></scene>
																<shottake></shottake>
																<lognote>https://www.youtube.com/watch?v=ch8rh0JvVKo</lognote>
																<good></good>
																<originalvideofilename></originalvideofilename>
																<originalaudiofilename></originalaudiofilename>
															</logginginfo>
															<colorinfo>
																<lut></lut>
																<lut1></lut1>
																<asc_sop></asc_sop>
																<asc_sat></asc_sat>
																<lut2></lut2>
															</colorinfo>
															<labels>
																<label2>Violet</label2>
															</labels>
														</clipitem>
														<clipitem id="clipitem-388">
															<masterclipid>masterclip-132</masterclipid>
															<name>(Coffee N Crafting)_4 HIGH END FRONT PORCH SUMMER DECOR DIYS~DOLLAR TREE DIYS~TEMU DIYS_ch8rh0JvVKo_YT.mp4</name>
															<enabled>TRUE</enabled>
															<duration>32298</duration>
															<rate>
																<timebase>30</timebase>
																<ntsc>TRUE</ntsc>
															</rate>
															<start>1899</start>
															<end>2336</end>
															<in>20368</in>
															<out>20804</out>
															<pproTicksIn>215782011244800</pproTicksIn>
															<pproTicksOut>220411844452800</pproTicksOut>
															<alphatype>none</alphatype>
															<file id="file-114"/>
															<filter>
																<effect>
																	<name>Time Remap</name>
																	<effectid>timeremap</effectid>
																	<effectcategory>motion</effectcategory>
																	<effecttype>motion</effecttype>
																	<mediatype>video</mediatype>
																	<parameter authoringApp="PremierePro">
																		<parameterid>variablespeed</parameterid>
																		<name>variablespeed</name>
																		<valuemin>0</valuemin>
																		<valuemax>1</valuemax>
																		<value>0</value>
																	</parameter>
																	<parameter authoringApp="PremierePro">
																		<parameterid>speed</parameterid>
																		<name>speed</name>
																		<valuemin>-100000</valuemin>
																		<valuemax>100000</valuemax>
																		<value>125</value>
																	</parameter>
																	<parameter authoringApp="PremierePro">
																		<parameterid>reverse</parameterid>
																		<name>reverse</name>
																		<value>FALSE</value>
																	</parameter>
																	<parameter authoringApp="PremierePro">
																		<parameterid>frameblending</parameterid>
																		<name>frameblending</name>
																		<value>FALSE</value>
																	</parameter>
																	<parameter authoringApp="PremierePro">
																		<parameterid>graphdict</parameterid>
																		<name>graphdict</name>
																		<valuemin>0</valuemin>
																		<valuemax>40372</valuemax>
																		<value>0</value>
																		<keyframe>
																			<when>0</when>
																			<value>0</value>
																			<speedvirtualkf>TRUE</speedvirtualkf>
																			<speedkfstart>TRUE</speedkfstart>
																		</keyframe>
																		<keyframe>
																			<when>20368</when>
																			<value>25460</value>
																			<speedvirtualkf>TRUE</speedvirtualkf>
																			<speedkfin>TRUE</speedkfin>
																		</keyframe>
																		<keyframe>
																			<when>20804</when>
																			<value>26005</value>
																			<speedvirtualkf>TRUE</speedvirtualkf>
																			<speedkfout>TRUE</speedkfout>
																		</keyframe>
																		<keyframe>
																			<when>32298</when>
																			<value>40372</value>
																			<speedvirtualkf>TRUE</speedvirtualkf>
																			<speedkfend>TRUE</speedkfend>
																		</keyframe>
																		<interpolation>
																			<name>FCPCurve</name>
																		</interpolation>
																	</parameter>
																</effect>
															</filter>
															<logginginfo>
																<description></description>
																<scene></scene>
																<shottake></shottake>
																<lognote>https://www.youtube.com/watch?v=ch8rh0JvVKo</lognote>
																<good></good>
																<originalvideofilename></originalvideofilename>
																<originalaudiofilename></originalaudiofilename>
															</logginginfo>
															<colorinfo>
																<lut></lut>
																<lut1></lut1>
																<asc_sop></asc_sop>
																<asc_sat></asc_sat>
																<lut2></lut2>
															</colorinfo>
															<labels>
																<label2>Caribbean</label2>
															</labels>
														</clipitem>
														<clipitem id="clipitem-389">
															<masterclipid>masterclip-132</masterclipid>
															<name>(Coffee N Crafting)_4 HIGH END FRONT PORCH SUMMER DECOR DIYS~DOLLAR TREE DIYS~TEMU DIYS_ch8rh0JvVKo_YT.mp4</name>
															<enabled>TRUE</enabled>
															<duration>37296</duration>
															<rate>
																<timebase>30</timebase>
																<ntsc>TRUE</ntsc>
															</rate>
															<start>2336</start>
															<end>2724</end>
															<in>25053</in>
															<out>25440</out>
															<pproTicksIn>229851618796800</pproTicksIn>
															<pproTicksOut>233411399020800</pproTicksOut>
															<alphatype>none</alphatype>
															<file id="file-114"/>
															<filter>
																<effect>
																	<name>Time Remap</name>
																	<effectid>timeremap</effectid>
																	<effectcategory>motion</effectcategory>
																	<effecttype>motion</effecttype>
																	<mediatype>video</mediatype>
																	<parameter authoringApp="PremierePro">
																		<parameterid>variablespeed</parameterid>
																		<name>variablespeed</name>
																		<valuemin>0</valuemin>
																		<valuemax>1</valuemax>
																		<value>0</value>
																	</parameter>
																	<parameter authoringApp="PremierePro">
																		<parameterid>speed</parameterid>
																		<name>speed</name>
																		<valuemin>-100000</valuemin>
																		<valuemax>100000</valuemax>
																		<value>108.247</value>
																	</parameter>
																	<parameter authoringApp="PremierePro">
																		<parameterid>reverse</parameterid>
																		<name>reverse</name>
																		<value>FALSE</value>
																	</parameter>
																	<parameter authoringApp="PremierePro">
																		<parameterid>frameblending</parameterid>
																		<name>frameblending</name>
																		<value>FALSE</value>
																	</parameter>
																	<parameter authoringApp="PremierePro">
																		<parameterid>graphdict</parameterid>
																		<name>graphdict</name>
																		<valuemin>0</valuemin>
																		<valuemax>40371</valuemax>
																		<value>0</value>
																		<keyframe>
																			<when>0</when>
																			<value>0</value>
																			<speedvirtualkf>TRUE</speedvirtualkf>
																			<speedkfstart>TRUE</speedkfstart>
																		</keyframe>
																		<keyframe>
																			<when>25053</when>
																			<value>27119</value>
																			<speedvirtualkf>TRUE</speedvirtualkf>
																			<speedkfin>TRUE</speedkfin>
																		</keyframe>
																		<keyframe>
																			<when>25440</when>
																			<value>27538</value>
																			<speedvirtualkf>TRUE</speedvirtualkf>
																			<speedkfout>TRUE</speedkfout>
																		</keyframe>
																		<keyframe>
																			<when>37296</when>
																			<value>40371</value>
																			<speedvirtualkf>TRUE</speedvirtualkf>
																			<speedkfend>TRUE</speedkfend>
																		</keyframe>
																		<interpolation>
																			<name>FCPCurve</name>
																		</interpolation>
																	</parameter>
																</effect>
															</filter>
															<logginginfo>
																<description></description>
																<scene></scene>
																<shottake></shottake>
																<lognote>https://www.youtube.com/watch?v=ch8rh0JvVKo</lognote>
																<good></good>
																<originalvideofilename></originalvideofilename>
																<originalaudiofilename></originalaudiofilename>
															</logginginfo>
															<colorinfo>
																<lut></lut>
																<lut1></lut1>
																<asc_sop></asc_sop>
																<asc_sat></asc_sat>
																<lut2></lut2>
															</colorinfo>
															<labels>
																<label2>Caribbean</label2>
															</labels>
														</clipitem>
														<clipitem id="clipitem-390">
															<masterclipid>masterclip-132</masterclipid>
															<name>(Coffee N Crafting)_4 HIGH END FRONT PORCH SUMMER DECOR DIYS~DOLLAR TREE DIYS~TEMU DIYS_ch8rh0JvVKo_YT.mp4</name>
															<enabled>TRUE</enabled>
															<duration>36965</duration>
															<rate>
																<timebase>30</timebase>
																<ntsc>TRUE</ntsc>
															</rate>
															<start>2724</start>
															<end>3025</end>
															<in>26318</in>
															<out>26618</out>
															<pproTicksIn>243624577996800</pproTicksIn>
															<pproTicksOut>246410953588800</pproTicksOut>
															<alphatype>none</alphatype>
															<file id="file-114"/>
															<filter>
																<effect>
																	<name>Time Remap</name>
																	<effectid>timeremap</effectid>
																	<effectcategory>motion</effectcategory>
																	<effecttype>motion</effecttype>
																	<mediatype>video</mediatype>
																	<parameter authoringApp="PremierePro">
																		<parameterid>variablespeed</parameterid>
																		<name>variablespeed</name>
																		<valuemin>0</valuemin>
																		<valuemax>1</valuemax>
																		<value>0</value>
																	</parameter>
																	<parameter authoringApp="PremierePro">
																		<parameterid>speed</parameterid>
																		<name>speed</name>
																		<valuemin>-100000</valuemin>
																		<valuemax>100000</valuemax>
																		<value>109.219</value>
																	</parameter>
																	<parameter authoringApp="PremierePro">
																		<parameterid>reverse</parameterid>
																		<name>reverse</name>
																		<value>FALSE</value>
																	</parameter>
																	<parameter authoringApp="PremierePro">
																		<parameterid>frameblending</parameterid>
																		<name>frameblending</name>
																		<value>FALSE</value>
																	</parameter>
																	<parameter authoringApp="PremierePro">
																		<parameterid>graphdict</parameterid>
																		<name>graphdict</name>
																		<valuemin>0</valuemin>
																		<valuemax>40372</valuemax>
																		<value>0</value>
																		<keyframe>
																			<when>0</when>
																			<value>0</value>
																			<speedvirtualkf>TRUE</speedvirtualkf>
																			<speedkfstart>TRUE</speedkfstart>
																		</keyframe>
																		<keyframe>
																			<when>26318</when>
																			<value>28744</value>
																			<speedvirtualkf>TRUE</speedvirtualkf>
																			<speedkfin>TRUE</speedkfin>
																		</keyframe>
																		<keyframe>
																			<when>26618</when>
																			<value>29071</value>
																			<speedvirtualkf>TRUE</speedvirtualkf>
																			<speedkfout>TRUE</speedkfout>
																		</keyframe>
																		<keyframe>
																			<when>36965</when>
																			<value>40372</value>
																			<speedvirtualkf>TRUE</speedvirtualkf>
																			<speedkfend>TRUE</speedkfend>
																		</keyframe>
																		<interpolation>
																			<name>FCPCurve</name>
																		</interpolation>
																	</parameter>
																</effect>
															</filter>
															<logginginfo>
																<description></description>
																<scene></scene>
																<shottake></shottake>
																<lognote>https://www.youtube.com/watch?v=ch8rh0JvVKo</lognote>
																<good></good>
																<originalvideofilename></originalvideofilename>
																<originalaudiofilename></originalaudiofilename>
															</logginginfo>
															<colorinfo>
																<lut></lut>
																<lut1></lut1>
																<asc_sop></asc_sop>
																<asc_sat></asc_sat>
																<lut2></lut2>
															</colorinfo>
															<labels>
																<label2>Caribbean</label2>
															</labels>
														</clipitem>
														<clipitem id="clipitem-391">
															<masterclipid>masterclip-132</masterclipid>
															<name>(Coffee N Crafting)_4 HIGH END FRONT PORCH SUMMER DECOR DIYS~DOLLAR TREE DIYS~TEMU DIYS_ch8rh0JvVKo_YT.mp4</name>
															<enabled>TRUE</enabled>
															<duration>42009</duration>
															<rate>
																<timebase>30</timebase>
																<ntsc>TRUE</ntsc>
															</rate>
															<start>3025</start>
															<end>3224</end>
															<in>39054</in>
															<out>39252</out>
															<pproTicksIn>318117217017600</pproTicksIn>
															<pproTicksOut>319738188369600</pproTicksOut>
															<alphatype>none</alphatype>
															<file id="file-114"/>
															<filter>
																<effect>
																	<name>Time Remap</name>
																	<effectid>timeremap</effectid>
																	<effectcategory>motion</effectcategory>
																	<effecttype>motion</effecttype>
																	<mediatype>video</mediatype>
																	<parameter authoringApp="PremierePro">
																		<parameterid>variablespeed</parameterid>
																		<name>variablespeed</name>
																		<valuemin>0</valuemin>
																		<valuemax>1</valuemax>
																		<value>0</value>
																	</parameter>
																	<parameter authoringApp="PremierePro">
																		<parameterid>speed</parameterid>
																		<name>speed</name>
																		<valuemin>-100000</valuemin>
																		<valuemax>100000</valuemax>
																		<value>96.1055</value>
																	</parameter>
																	<parameter authoringApp="PremierePro">
																		<parameterid>reverse</parameterid>
																		<name>reverse</name>
																		<value>FALSE</value>
																	</parameter>
																	<parameter authoringApp="PremierePro">
																		<parameterid>frameblending</parameterid>
																		<name>frameblending</name>
																		<value>FALSE</value>
																	</parameter>
																	<parameter authoringApp="PremierePro">
																		<parameterid>graphdict</parameterid>
																		<name>graphdict</name>
																		<valuemin>0</valuemin>
																		<valuemax>40372</valuemax>
																		<value>0</value>
																		<keyframe>
																			<when>0</when>
																			<value>0</value>
																			<speedvirtualkf>TRUE</speedvirtualkf>
																			<speedkfstart>TRUE</speedkfstart>
																		</keyframe>
																		<keyframe>
																			<when>39054</when>
																			<value>37533</value>
																			<speedvirtualkf>TRUE</speedvirtualkf>
																			<speedkfin>TRUE</speedkfin>
																		</keyframe>
																		<keyframe>
																			<when>39252</when>
																			<value>37723</value>
																			<speedvirtualkf>TRUE</speedvirtualkf>
																			<speedkfout>TRUE</speedkfout>
																		</keyframe>
																		<keyframe>
																			<when>42009</when>
																			<value>40372</value>
																			<speedvirtualkf>TRUE</speedvirtualkf>
																			<speedkfend>TRUE</speedkfend>
																		</keyframe>
																		<interpolation>
																			<name>FCPCurve</name>
																		</interpolation>
																	</parameter>
																</effect>
															</filter>
															<logginginfo>
																<description></description>
																<scene></scene>
																<shottake></shottake>
																<lognote>https://www.youtube.com/watch?v=ch8rh0JvVKo</lognote>
																<good></good>
																<originalvideofilename></originalvideofilename>
																<originalaudiofilename></originalaudiofilename>
															</logginginfo>
															<colorinfo>
																<lut></lut>
																<lut1></lut1>
																<asc_sop></asc_sop>
																<asc_sat></asc_sat>
																<lut2></lut2>
															</colorinfo>
															<labels>
																<label2>Caribbean</label2>
															</labels>
														</clipitem>
														<clipitem id="clipitem-392">
															<masterclipid>masterclip-132</masterclipid>
															<name>(Coffee N Crafting)_4 HIGH END FRONT PORCH SUMMER DECOR DIYS~DOLLAR TREE DIYS~TEMU DIYS_ch8rh0JvVKo_YT.mp4</name>
															<enabled>TRUE</enabled>
															<duration>65180</duration>
															<rate>
																<timebase>30</timebase>
																<ntsc>TRUE</ntsc>
															</rate>
															<start>3224</start>
															<end>3360</end>
															<in>64195</in>
															<out>64330</out>
															<pproTicksIn>337009479206400</pproTicksIn>
															<pproTicksOut>337723459291127</pproTicksOut>
															<alphatype>none</alphatype>
															<file id="file-114"/>
															<filter>
																<effect>
																	<name>Basic Motion</name>
																	<effectid>basic</effectid>
																	<effectcategory>motion</effectcategory>
																	<effecttype>motion</effecttype>
																	<mediatype>video</mediatype>
																	<pproBypass>false</pproBypass>
																	<parameter authoringApp="PremierePro">
																		<parameterid>scale</parameterid>
																		<name>Scale</name>
																		<valuemin>0</valuemin>
																		<valuemax>1000</valuemax>
																		<value>300</value>
																	</parameter>
																	<parameter authoringApp="PremierePro">
																		<parameterid>rotation</parameterid>
																		<name>Rotation</name>
																		<valuemin>-8640</valuemin>
																		<valuemax>8640</valuemax>
																		<value>0</value>
																	</parameter>
																	<parameter authoringApp="PremierePro">
																		<parameterid>center</parameterid>
																		<name>Center</name>
																		<value>
																			<horiz>0</horiz>
																			<vert>0</vert>
																		</value>
																	</parameter>
																	<parameter authoringApp="PremierePro">
																		<parameterid>centerOffset</parameterid>
																		<name>Anchor Point</name>
																		<value>
																			<horiz>0</horiz>
																			<vert>0</vert>
																		</value>
																	</parameter>
																	<parameter authoringApp="PremierePro">
																		<parameterid>antiflicker</parameterid>
																		<name>Anti-flicker Filter</name>
																		<valuemin>0.0</valuemin>
																		<valuemax>1.0</valuemax>
																		<value>0</value>
																	</parameter>
																</effect>
															</filter>
															<filter>
																<effect>
																	<name>Gaussian Blur</name>
																	<effectid>Gaussian Blur</effectid>
																	<effectcategory>Blur</effectcategory>
																	<effecttype>motion</effecttype>
																	<mediatype>video</mediatype>
																	<pproBypass>false</pproBypass>
																	<parameter authoringApp="PremierePro">
																		<parameterid>radius</parameterid>
																		<name>Radius</name>
																		<valuemin>0</valuemin>
																		<valuemax>100</valuemax>
																		<value>150</value>
																	</parameter>
																</effect>
															</filter>
															<filter>
																<effect>
																	<name>Time Remap</name>
																	<effectid>timeremap</effectid>
																	<effectcategory>motion</effectcategory>
																	<effecttype>motion</effecttype>
																	<mediatype>video</mediatype>
																	<parameter authoringApp="PremierePro">
																		<parameterid>variablespeed</parameterid>
																		<name>variablespeed</name>
																		<valuemin>0</valuemin>
																		<valuemax>1</valuemax>
																		<value>0</value>
																	</parameter>
																	<parameter authoringApp="PremierePro">
																		<parameterid>speed</parameterid>
																		<name>speed</name>
																		<valuemin>-100000</valuemin>
																		<valuemax>100000</valuemax>
																		<value>61.9403</value>
																	</parameter>
																	<parameter authoringApp="PremierePro">
																		<parameterid>reverse</parameterid>
																		<name>reverse</name>
																		<value>FALSE</value>
																	</parameter>
																	<parameter authoringApp="PremierePro">
																		<parameterid>frameblending</parameterid>
																		<name>frameblending</name>
																		<value>FALSE</value>
																	</parameter>
																	<parameter authoringApp="PremierePro">
																		<parameterid>graphdict</parameterid>
																		<name>graphdict</name>
																		<valuemin>0</valuemin>
																		<valuemax>40372</valuemax>
																		<value>0</value>
																		<keyframe>
																			<when>0</when>
																			<value>0</value>
																			<speedvirtualkf>TRUE</speedvirtualkf>
																			<speedkfstart>TRUE</speedkfstart>
																		</keyframe>
																		<keyframe>
																			<when>64195</when>
																			<value>39762</value>
																			<speedvirtualkf>TRUE</speedvirtualkf>
																			<speedkfin>TRUE</speedkfin>
																		</keyframe>
																		<keyframe>
																			<when>64330</when>
																			<value>39846</value>
																			<speedvirtualkf>TRUE</speedvirtualkf>
																			<speedkfout>TRUE</speedkfout>
																		</keyframe>
																		<keyframe>
																			<when>65180</when>
																			<value>40372</value>
																			<speedvirtualkf>TRUE</speedvirtualkf>
																			<speedkfend>TRUE</speedkfend>
																		</keyframe>
																		<interpolation>
																			<name>FCPCurve</name>
																		</interpolation>
																	</parameter>
																</effect>
															</filter>
															<logginginfo>
																<description></description>
																<scene></scene>
																<shottake></shottake>
																<lognote>https://www.youtube.com/watch?v=ch8rh0JvVKo</lognote>
																<good></good>
																<originalvideofilename></originalvideofilename>
																<originalaudiofilename></originalaudiofilename>
															</logginginfo>
															<colorinfo>
																<lut></lut>
																<lut1></lut1>
																<asc_sop></asc_sop>
																<asc_sat></asc_sat>
																<lut2></lut2>
															</colorinfo>
															<labels>
																<label2>Caribbean</label2>
															</labels>
														</clipitem>
														<enabled>TRUE</enabled>
														<locked>FALSE</locked>
													</track>
													<track TL.SQTrackShy="0" TL.SQTrackExpandedHeight="25" TL.SQTrackExpanded="0" MZ.TrackTargeted="0">
														<clipitem id="clipitem-393">
															<masterclipid>masterclip-132</masterclipid>
															<name>(Coffee N Crafting)_4 HIGH END FRONT PORCH SUMMER DECOR DIYS~DOLLAR TREE DIYS~TEMU DIYS_ch8rh0JvVKo_YT.mp4</name>
															<enabled>TRUE</enabled>
															<duration>40373</duration>
															<rate>
																<timebase>30</timebase>
																<ntsc>TRUE</ntsc>
															</rate>
															<start>846</start>
															<end>917</end>
															<in>7646</in>
															<out>7717</out>
															<pproTicksIn>64804951411200</pproTicksIn>
															<pproTicksOut>65406723782400</pproTicksOut>
															<alphatype>none</alphatype>
															<file id="file-114"/>
															<filter>
																<effect>
																	<name>Crop</name>
																	<effectid>crop</effectid>
																	<effectcategory>motion</effectcategory>
																	<effecttype>motion</effecttype>
																	<mediatype>video</mediatype>
																	<pproBypass>false</pproBypass>
																	<parameter authoringApp="PremierePro">
																		<parameterid>left</parameterid>
																		<name>left</name>
																		<valuemin>0</valuemin>
																		<valuemax>100</valuemax>
																		<value>15</value>
																	</parameter>
																	<parameter authoringApp="PremierePro">
																		<parameterid>right</parameterid>
																		<name>right</name>
																		<valuemin>0</valuemin>
																		<valuemax>100</valuemax>
																		<value>15</value>
																	</parameter>
																	<parameter authoringApp="PremierePro">
																		<parameterid>top</parameterid>
																		<name>top</name>
																		<valuemin>0</valuemin>
																		<valuemax>100</valuemax>
																		<value>0</value>
																	</parameter>
																	<parameter authoringApp="PremierePro">
																		<parameterid>bottom</parameterid>
																		<name>bottom</name>
																		<valuemin>0</valuemin>
																		<valuemax>100</valuemax>
																		<value>0</value>
																	</parameter>
																</effect>
															</filter>
															<logginginfo>
																<description></description>
																<scene></scene>
																<shottake></shottake>
																<lognote>https://www.youtube.com/watch?v=ch8rh0JvVKo</lognote>
																<good></good>
																<originalvideofilename></originalvideofilename>
																<originalaudiofilename></originalaudiofilename>
															</logginginfo>
															<colorinfo>
																<lut></lut>
																<lut1></lut1>
																<asc_sop></asc_sop>
																<asc_sat></asc_sat>
																<lut2></lut2>
															</colorinfo>
															<labels>
																<label2>Iris</label2>
															</labels>
														</clipitem>
														<clipitem id="clipitem-394">
															<masterclipid>masterclip-132</masterclipid>
															<name>(Coffee N Crafting)_4 HIGH END FRONT PORCH SUMMER DECOR DIYS~DOLLAR TREE DIYS~TEMU DIYS_ch8rh0JvVKo_YT.mp4</name>
															<enabled>TRUE</enabled>
															<duration>40373</duration>
															<rate>
																<timebase>30</timebase>
																<ntsc>TRUE</ntsc>
															</rate>
															<start>917</start>
															<end>990</end>
															<in>7787</in>
															<out>7860</out>
															<pproTicksIn>66000020486400</pproTicksIn>
															<pproTicksOut>66618744192000</pproTicksOut>
															<alphatype>none</alphatype>
															<file id="file-114"/>
															<filter>
																<effect>
																	<name>Crop</name>
																	<effectid>crop</effectid>
																	<effectcategory>motion</effectcategory>
																	<effecttype>motion</effecttype>
																	<mediatype>video</mediatype>
																	<pproBypass>false</pproBypass>
																	<parameter authoringApp="PremierePro">
																		<parameterid>left</parameterid>
																		<name>left</name>
																		<valuemin>0</valuemin>
																		<valuemax>100</valuemax>
																		<value>26</value>
																	</parameter>
																	<parameter authoringApp="PremierePro">
																		<parameterid>right</parameterid>
																		<name>right</name>
																		<valuemin>0</valuemin>
																		<valuemax>100</valuemax>
																		<value>26</value>
																	</parameter>
																	<parameter authoringApp="PremierePro">
																		<parameterid>top</parameterid>
																		<name>top</name>
																		<valuemin>0</valuemin>
																		<valuemax>100</valuemax>
																		<value>0</value>
																	</parameter>
																	<parameter authoringApp="PremierePro">
																		<parameterid>bottom</parameterid>
																		<name>bottom</name>
																		<valuemin>0</valuemin>
																		<valuemax>100</valuemax>
																		<value>0</value>
																	</parameter>
																</effect>
															</filter>
															<logginginfo>
																<description></description>
																<scene></scene>
																<shottake></shottake>
																<lognote>https://www.youtube.com/watch?v=ch8rh0JvVKo</lognote>
																<good></good>
																<originalvideofilename></originalvideofilename>
																<originalaudiofilename></originalaudiofilename>
															</logginginfo>
															<colorinfo>
																<lut></lut>
																<lut1></lut1>
																<asc_sop></asc_sop>
																<asc_sat></asc_sat>
																<lut2></lut2>
															</colorinfo>
															<labels>
																<label2>Iris</label2>
															</labels>
														</clipitem>
														<clipitem id="clipitem-395">
															<masterclipid>masterclip-132</masterclipid>
															<name>(Coffee N Crafting)_4 HIGH END FRONT PORCH SUMMER DECOR DIYS~DOLLAR TREE DIYS~TEMU DIYS_ch8rh0JvVKo_YT.mp4</name>
															<enabled>TRUE</enabled>
															<duration>65180</duration>
															<rate>
																<timebase>30</timebase>
																<ntsc>TRUE</ntsc>
															</rate>
															<start>3224</start>
															<end>3360</end>
															<in>64195</in>
															<out>64330</out>
															<pproTicksIn>337009479206400</pproTicksIn>
															<pproTicksOut>337723459291127</pproTicksOut>
															<alphatype>none</alphatype>
															<file id="file-114"/>
															<filter>
																<effect>
																	<name>Crop</name>
																	<effectid>crop</effectid>
																	<effectcategory>motion</effectcategory>
																	<effecttype>motion</effecttype>
																	<mediatype>video</mediatype>
																	<pproBypass>false</pproBypass>
																	<parameter authoringApp="PremierePro">
																		<parameterid>left</parameterid>
																		<name>left</name>
																		<valuemin>0</valuemin>
																		<valuemax>100</valuemax>
																		<value>27</value>
																	</parameter>
																	<parameter authoringApp="PremierePro">
																		<parameterid>right</parameterid>
																		<name>right</name>
																		<valuemin>0</valuemin>
																		<valuemax>100</valuemax>
																		<value>27</value>
																	</parameter>
																	<parameter authoringApp="PremierePro">
																		<parameterid>top</parameterid>
																		<name>top</name>
																		<valuemin>0</valuemin>
																		<valuemax>100</valuemax>
																		<value>0</value>
																	</parameter>
																	<parameter authoringApp="PremierePro">
																		<parameterid>bottom</parameterid>
																		<name>bottom</name>
																		<valuemin>0</valuemin>
																		<valuemax>100</valuemax>
																		<value>0</value>
																	</parameter>
																</effect>
															</filter>
															<filter>
																<effect>
																	<name>Time Remap</name>
																	<effectid>timeremap</effectid>
																	<effectcategory>motion</effectcategory>
																	<effecttype>motion</effecttype>
																	<mediatype>video</mediatype>
																	<parameter authoringApp="PremierePro">
																		<parameterid>variablespeed</parameterid>
																		<name>variablespeed</name>
																		<valuemin>0</valuemin>
																		<valuemax>1</valuemax>
																		<value>0</value>
																	</parameter>
																	<parameter authoringApp="PremierePro">
																		<parameterid>speed</parameterid>
																		<name>speed</name>
																		<valuemin>-100000</valuemin>
																		<valuemax>100000</valuemax>
																		<value>61.9403</value>
																	</parameter>
																	<parameter authoringApp="PremierePro">
																		<parameterid>reverse</parameterid>
																		<name>reverse</name>
																		<value>FALSE</value>
																	</parameter>
																	<parameter authoringApp="PremierePro">
																		<parameterid>frameblending</parameterid>
																		<name>frameblending</name>
																		<value>FALSE</value>
																	</parameter>
																	<parameter authoringApp="PremierePro">
																		<parameterid>graphdict</parameterid>
																		<name>graphdict</name>
																		<valuemin>0</valuemin>
																		<valuemax>40372</valuemax>
																		<value>0</value>
																		<keyframe>
																			<when>0</when>
																			<value>0</value>
																			<speedvirtualkf>TRUE</speedvirtualkf>
																			<speedkfstart>TRUE</speedkfstart>
																		</keyframe>
																		<keyframe>
																			<when>64195</when>
																			<value>39762</value>
																			<speedvirtualkf>TRUE</speedvirtualkf>
																			<speedkfin>TRUE</speedkfin>
																		</keyframe>
																		<keyframe>
																			<when>64330</when>
																			<value>39846</value>
																			<speedvirtualkf>TRUE</speedvirtualkf>
																			<speedkfout>TRUE</speedkfout>
																		</keyframe>
																		<keyframe>
																			<when>65180</when>
																			<value>40372</value>
																			<speedvirtualkf>TRUE</speedvirtualkf>
																			<speedkfend>TRUE</speedkfend>
																		</keyframe>
																		<interpolation>
																			<name>FCPCurve</name>
																		</interpolation>
																	</parameter>
																</effect>
															</filter>
															<logginginfo>
																<description></description>
																<scene></scene>
																<shottake></shottake>
																<lognote>https://www.youtube.com/watch?v=ch8rh0JvVKo</lognote>
																<good></good>
																<originalvideofilename></originalvideofilename>
																<originalaudiofilename></originalaudiofilename>
															</logginginfo>
															<colorinfo>
																<lut></lut>
																<lut1></lut1>
																<asc_sop></asc_sop>
																<asc_sat></asc_sat>
																<lut2></lut2>
															</colorinfo>
															<labels>
																<label2>Caribbean</label2>
															</labels>
														</clipitem>
														<enabled>TRUE</enabled>
														<locked>FALSE</locked>
													</track>
													<track TL.SQTrackShy="0" TL.SQTrackExpandedHeight="25" TL.SQTrackExpanded="0" MZ.TrackTargeted="0">
														<clipitem id="clipitem-396">
															<masterclipid>masterclip-133</masterclipid>
															<name>coffee n crafting</name>
															<enabled>TRUE</enabled>
															<duration>5844</duration>
															<rate>
																<timebase>30</timebase>
																<ntsc>TRUE</ntsc>
															</rate>
															<start>0</start>
															<end>3360</end>
															<in>0</in>
															<out>3360</out>
															<pproTicksIn>0</pproTicksIn>
															<pproTicksOut>28478241792000</pproTicksOut>
															<alphatype>straight</alphatype>
															<pixelaspectratio>square</pixelaspectratio>
															<anamorphic>FALSE</anamorphic>
															<file id="file-115">
																<name>1080/AE Attribution.aep</name>
																<pathurl>file://localhost/Volumes/ATM%20JR%202TB/Crafty/Master%20Assets%20/Attribution/AE%20Attribution.aep</pathurl>
																<rate>
																	<timebase>30</timebase>
																	<ntsc>TRUE</ntsc>
																</rate>
																<duration>5844</duration>
																<timecode>
																	<rate>
																		<timebase>30</timebase>
																		<ntsc>TRUE</ntsc>
																	</rate>
																	<string>00;00;00;00</string>
																	<frame>0</frame>
																	<displayformat>DF</displayformat>
																</timecode>
																<media>
																	<video>
																		<samplecharacteristics>
																			<rate>
																				<timebase>30</timebase>
																				<ntsc>TRUE</ntsc>
																			</rate>
																			<width>1920</width>
																			<height>1080</height>
																			<anamorphic>FALSE</anamorphic>
																			<pixelaspectratio>square</pixelaspectratio>
																			<fielddominance>lower</fielddominance>
																		</samplecharacteristics>
																	</video>
																</media>
															</file>
															<logginginfo>
																<description></description>
																<scene></scene>
																<shottake></shottake>
																<lognote></lognote>
																<good></good>
																<originalvideofilename></originalvideofilename>
																<originalaudiofilename></originalaudiofilename>
															</logginginfo>
															<colorinfo>
																<lut></lut>
																<lut1></lut1>
																<asc_sop></asc_sop>
																<asc_sat></asc_sat>
																<lut2></lut2>
															</colorinfo>
															<labels>
																<label2>Rose</label2>
															</labels>
														</clipitem>
														<enabled>TRUE</enabled>
														<locked>FALSE</locked>
													</track>
												</video>
												<audio>
													<numOutputChannels>2</numOutputChannels>
													<format>
														<samplecharacteristics>
															<depth>16</depth>
															<samplerate>48000</samplerate>
														</samplecharacteristics>
													</format>
													<outputs>
														<group>
															<index>1</index>
															<numchannels>1</numchannels>
															<downmix>0</downmix>
															<channel>
																<index>1</index>
															</channel>
														</group>
														<group>
															<index>2</index>
															<numchannels>1</numchannels>
															<downmix>0</downmix>
															<channel>
																<index>2</index>
															</channel>
														</group>
													</outputs>
													<track TL.SQTrackAudioKeyframeStyle="0" TL.SQTrackShy="0" TL.SQTrackExpandedHeight="135" TL.SQTrackExpanded="0" MZ.TrackTargeted="1" PannerCurrentValue="0.5" PannerIsInverted="true" PannerStartKeyframe="-91445760000000000,0.5,0,0,0,0,0,0" PannerName="Balance" currentExplodedTrackIndex="0" totalExplodedTrackCount="2" premiereTrackType="Stereo">
														<clipitem id="clipitem-397" premiereChannelType="stereo">
															<masterclipid>masterclip-134</masterclipid>
															<name>ES_Just Maintaining - Sarah, the Illstrumentalist.wav</name>
															<enabled>TRUE</enabled>
															<duration>4057</duration>
															<rate>
																<timebase>30</timebase>
																<ntsc>TRUE</ntsc>
															</rate>
															<start>0</start>
															<end>-1</end>
															<in>0</in>
															<out>3260</out>
															<pproTicksIn>0</pproTicksIn>
															<pproTicksOut>27630675072000</pproTicksOut>
															<file id="file-116">
																<name>ES_Just Maintaining - Sarah, the Illstrumentalist.wav</name>
																<pathurl>file://localhost/Volumes/ATM%20JR%202TB/Crafty/2023/06_June/Crafty_6-19-23/5_Music/ES_Just%20Maintaining%20-%20Sarah,%20the%20Illstrumentalist.wav</pathurl>
																<rate>
																	<timebase>30</timebase>
																	<ntsc>TRUE</ntsc>
																</rate>
																<duration>4057</duration>
																<timecode>
																	<rate>
																		<timebase>30</timebase>
																		<ntsc>TRUE</ntsc>
																	</rate>
																	<string>06;18;42;01</string>
																	<frame>680979</frame>
																	<displayformat>DF</displayformat>
																</timecode>
																<media>
																	<audio>
																		<samplecharacteristics>
																			<depth>16</depth>
																			<samplerate>48000</samplerate>
																		</samplecharacteristics>
																		<channelcount>2</channelcount>
																	</audio>
																</media>
															</file>
															<sourcetrack>
																<mediatype>audio</mediatype>
																<trackindex>1</trackindex>
															</sourcetrack>
															<filter>
																<effect>
																	<name>Gain</name>
																	<effectid>{61756678, 4761696e, 4b657947}</effectid>
																	<effecttype>filter</effecttype>
																	<mediatype>audio</mediatype>
																	<parameter authoringApp="PremierePro">
																		<parameterid>Gain(dB)</parameterid>
																		<name>Gain(dB)</name>
																		<valuemin>-96</valuemin>
																		<valuemax>96</valuemax>
																		<value>-8</value>
																	</parameter>
																</effect>
															</filter>
															<link>
																<linkclipref>clipitem-397</linkclipref>
																<mediatype>audio</mediatype>
																<trackindex>1</trackindex>
																<clipindex>1</clipindex>
																<groupindex>1</groupindex>
															</link>
															<link>
																<linkclipref>clipitem-398</linkclipref>
																<mediatype>audio</mediatype>
																<trackindex>2</trackindex>
																<clipindex>1</clipindex>
																<groupindex>1</groupindex>
															</link>
															<logginginfo>
																<description></description>
																<scene></scene>
																<shottake></shottake>
																<lognote></lognote>
																<good></good>
																<originalvideofilename></originalvideofilename>
																<originalaudiofilename></originalaudiofilename>
															</logginginfo>
															<colorinfo>
																<lut></lut>
																<lut1></lut1>
																<asc_sop></asc_sop>
																<asc_sat></asc_sat>
																<lut2></lut2>
															</colorinfo>
															<labels>
																<label2>Caribbean</label2>
															</labels>
														</clipitem>
														<transitionitem>
															<start>2898</start>
															<end>3260</end>
															<pproTicksIn>24562483545600</pproTicksIn>
															<pproTicksOut>27630675072000</pproTicksOut>
															<alignment>end-black</alignment>
															<cutPointTicks>3068191526400</cutPointTicks>
															<rate>
																<timebase>30</timebase>
																<ntsc>TRUE</ntsc>
															</rate>
															<effect>
																<name>Cross Fade (+3dB)</name>
																<effectid>KGAudioTransCrossFade3dB</effectid>
																<effecttype>transition</effecttype>
																<mediatype>audio</mediatype>
																<wipecode>0</wipecode>
																<wipeaccuracy>100</wipeaccuracy>
																<startratio>0</startratio>
																<endratio>1</endratio>
																<reverse>FALSE</reverse>
															</effect>
														</transitionitem>
														<enabled>TRUE</enabled>
														<locked>FALSE</locked>
														<outputchannelindex>1</outputchannelindex>
													</track>
													<track TL.SQTrackAudioKeyframeStyle="0" TL.SQTrackShy="0" TL.SQTrackExpandedHeight="135" TL.SQTrackExpanded="0" MZ.TrackTargeted="1" PannerCurrentValue="0.5" PannerIsInverted="true" PannerStartKeyframe="-91445760000000000,0.5,0,0,0,0,0,0" PannerName="Balance" currentExplodedTrackIndex="1" totalExplodedTrackCount="2" premiereTrackType="Stereo">
														<clipitem id="clipitem-398" premiereChannelType="stereo">
															<masterclipid>masterclip-134</masterclipid>
															<name>ES_Just Maintaining - Sarah, the Illstrumentalist.wav</name>
															<enabled>TRUE</enabled>
															<duration>4057</duration>
															<rate>
																<timebase>30</timebase>
																<ntsc>TRUE</ntsc>
															</rate>
															<start>0</start>
															<end>-1</end>
															<in>0</in>
															<out>3260</out>
															<pproTicksIn>0</pproTicksIn>
															<pproTicksOut>27630675072000</pproTicksOut>
															<file id="file-116"/>
															<sourcetrack>
																<mediatype>audio</mediatype>
																<trackindex>2</trackindex>
															</sourcetrack>
															<filter>
																<effect>
																	<name>Gain</name>
																	<effectid>{61756678, 4761696e, 4b657947}</effectid>
																	<effecttype>filter</effecttype>
																	<mediatype>audio</mediatype>
																	<parameter authoringApp="PremierePro">
																		<parameterid>Gain(dB)</parameterid>
																		<name>Gain(dB)</name>
																		<valuemin>-96</valuemin>
																		<valuemax>96</valuemax>
																		<value>-8</value>
																	</parameter>
																</effect>
															</filter>
															<link>
																<linkclipref>clipitem-397</linkclipref>
																<mediatype>audio</mediatype>
																<trackindex>1</trackindex>
																<clipindex>1</clipindex>
																<groupindex>1</groupindex>
															</link>
															<link>
																<linkclipref>clipitem-398</linkclipref>
																<mediatype>audio</mediatype>
																<trackindex>2</trackindex>
																<clipindex>1</clipindex>
																<groupindex>1</groupindex>
															</link>
															<logginginfo>
																<description></description>
																<scene></scene>
																<shottake></shottake>
																<lognote></lognote>
																<good></good>
																<originalvideofilename></originalvideofilename>
																<originalaudiofilename></originalaudiofilename>
															</logginginfo>
															<colorinfo>
																<lut></lut>
																<lut1></lut1>
																<asc_sop></asc_sop>
																<asc_sat></asc_sat>
																<lut2></lut2>
															</colorinfo>
															<labels>
																<label2>Caribbean</label2>
															</labels>
														</clipitem>
														<transitionitem>
															<start>2898</start>
															<end>3260</end>
															<pproTicksIn>24562483545600</pproTicksIn>
															<pproTicksOut>27630675072000</pproTicksOut>
															<alignment>end-black</alignment>
															<cutPointTicks>3068191526400</cutPointTicks>
															<rate>
																<timebase>30</timebase>
																<ntsc>TRUE</ntsc>
															</rate>
															<effect>
																<name>Cross Fade (+3dB)</name>
																<effectid>KGAudioTransCrossFade3dB</effectid>
																<effecttype>transition</effecttype>
																<mediatype>audio</mediatype>
																<wipecode>0</wipecode>
																<wipeaccuracy>100</wipeaccuracy>
																<startratio>0</startratio>
																<endratio>1</endratio>
																<reverse>FALSE</reverse>
															</effect>
														</transitionitem>
														<enabled>TRUE</enabled>
														<locked>FALSE</locked>
														<outputchannelindex>2</outputchannelindex>
													</track>
												</audio>
											</media>
											<timecode>
												<rate>
													<timebase>30</timebase>
													<ntsc>TRUE</ntsc>
												</rate>
												<string>00;00;00;00</string>
												<frame>0</frame>
												<displayformat>DF</displayformat>
											</timecode>
											<logginginfo>
												<description></description>
												<scene></scene>
												<shottake></shottake>
												<lognote></lognote>
												<good></good>
												<originalvideofilename></originalvideofilename>
												<originalaudiofilename></originalaudiofilename>
											</logginginfo>
										</sequence>
										<link>
											<linkclipref>clipitem-376</linkclipref>
											<mediatype>video</mediatype>
											<trackindex>1</trackindex>
											<clipindex>1</clipindex>
										</link>
										<link>
											<linkclipref>clipitem-414</linkclipref>
											<mediatype>audio</mediatype>
											<trackindex>1</trackindex>
											<clipindex>1</clipindex>
											<groupindex>1</groupindex>
										</link>
										<link>
											<linkclipref>clipitem-416</linkclipref>
											<mediatype>audio</mediatype>
											<trackindex>2</trackindex>
											<clipindex>1</clipindex>
											<groupindex>1</groupindex>
										</link>
										<labels>
											<label2>Forest</label2>
										</labels>
									</clipitem>
									<clipitem id="clipitem-399">
										<masterclipid>masterclip-135</masterclipid>
										<name>ART_SAMEPAINTING,DIFFERENTSTYLES_1</name>
										<enabled>TRUE</enabled>
										<duration>2280</duration>
										<rate>
											<timebase>30</timebase>
											<ntsc>TRUE</ntsc>
										</rate>
										<start>3296</start>
										<end>5360</end>
										<in>0</in>
										<out>2064</out>
										<pproTicksIn>0</pproTicksIn>
										<pproTicksOut>17493777100800</pproTicksOut>
										<sequence id="sequence-28" TL.SQAudioVisibleBase="0" TL.SQVideoVisibleBase="0" TL.SQVisibleBaseTime="0" TL.SQAVDividerPosition="0.5" TL.SQHideShyTracks="0" TL.SQHeaderWidth="236" Monitor.ProgramZoomOut="17493777100800" Monitor.ProgramZoomIn="0" TL.SQTimePerPixel="0.18975077747390723" MZ.EditLine="1830744115200" MZ.Sequence.PreviewFrameSizeHeight="1080" MZ.Sequence.PreviewFrameSizeWidth="1920" MZ.Sequence.AudioTimeDisplayFormat="200" MZ.Sequence.PreviewRenderingClassID="1061109567" MZ.Sequence.PreviewRenderingPresetCodec="1634755443" MZ.Sequence.PreviewRenderingPresetPath="EncoderPresets/SequencePreview/35d109db-457b-43c1-9452-9cb7be9f121c/QuickTime.epr" MZ.Sequence.PreviewUseMaxRenderQuality="false" MZ.Sequence.PreviewUseMaxBitDepth="false" MZ.Sequence.EditingModeGUID="35d109db-457b-43c1-9452-9cb7be9f121c" MZ.Sequence.VideoTimeDisplayFormat="102" MZ.WorkOutPoint="19324521216000" MZ.WorkInPoint="0">
											<duration>2064</duration>
											<rate>
												<timebase>30</timebase>
												<ntsc>TRUE</ntsc>
											</rate>
											<name>ART_SAMEPAINTING,DIFFERENTSTYLES_1</name>
											<media>
												<video>
													<format>
														<samplecharacteristics>
															<rate>
																<timebase>30</timebase>
																<ntsc>TRUE</ntsc>
															</rate>
															<codec>
																<name>Apple ProRes 422</name>
																<appspecificdata>
																	<appname>Final Cut Pro</appname>
																	<appmanufacturer>Apple Inc.</appmanufacturer>
																	<appversion>7.0</appversion>
																	<data>
																		<qtcodec>
																			<codecname>Apple ProRes 422</codecname>
																			<codectypename>Apple ProRes 422</codectypename>
																			<codectypecode>apcn</codectypecode>
																			<codecvendorcode>appl</codecvendorcode>
																			<spatialquality>1024</spatialquality>
																			<temporalquality>0</temporalquality>
																			<keyframerate>0</keyframerate>
																			<datarate>0</datarate>
																		</qtcodec>
																	</data>
																</appspecificdata>
															</codec>
															<width>1920</width>
															<height>1080</height>
															<anamorphic>FALSE</anamorphic>
															<pixelaspectratio>square</pixelaspectratio>
															<fielddominance>none</fielddominance>
															<colordepth>24</colordepth>
														</samplecharacteristics>
													</format>
													<track TL.SQTrackShy="0" TL.SQTrackExpandedHeight="25" TL.SQTrackExpanded="0" MZ.TrackTargeted="1">
														<clipitem id="clipitem-400">
															<masterclipid>masterclip-136</masterclipid>
															<name>(Shmoxd)_How to draw_ LINE VALUE COLOR!!!_x5iDohKd-VI_YT.mp4</name>
															<enabled>TRUE</enabled>
															<duration>15019</duration>
															<rate>
																<timebase>30</timebase>
																<ntsc>TRUE</ntsc>
															</rate>
															<start>0</start>
															<end>219</end>
															<in>3864</in>
															<out>4082</out>
															<pproTicksIn>41332497120396</pproTicksIn>
															<pproTicksOut>43675113081600</pproTicksOut>
															<alphatype>none</alphatype>
															<pixelaspectratio>square</pixelaspectratio>
															<anamorphic>FALSE</anamorphic>
															<file id="file-117">
																<name>(Shmoxd)_How to draw_ LINE VALUE COLOR!!!_x5iDohKd-VI_YT.mp4</name>
																<pathurl>file://localhost/Volumes/ATM%20JR%202TB/Crafty/2023/06_June/Crafty_6-19-23/3_Raw%20Footage/how%20to%20draw/(Shmoxd)_How%20to%20draw_%20LINE%20VALUE%20COLOR!!!_x5iDohKd-VI_YT.mp4</pathurl>
																<rate>
																	<timebase>30</timebase>
																	<ntsc>TRUE</ntsc>
																</rate>
																<duration>18956</duration>
																<timecode>
																	<rate>
																		<timebase>30</timebase>
																		<ntsc>TRUE</ntsc>
																	</rate>
																	<string>00:00:00:00</string>
																	<frame>0</frame>
																	<displayformat>NDF</displayformat>
																</timecode>
																<media>
																	<video>
																		<samplecharacteristics>
																			<rate>
																				<timebase>30</timebase>
																				<ntsc>TRUE</ntsc>
																			</rate>
																			<width>1920</width>
																			<height>1080</height>
																			<anamorphic>FALSE</anamorphic>
																			<pixelaspectratio>square</pixelaspectratio>
																			<fielddominance>none</fielddominance>
																		</samplecharacteristics>
																	</video>
																	<audio>
																		<samplecharacteristics>
																			<depth>16</depth>
																			<samplerate>44100</samplerate>
																		</samplecharacteristics>
																		<channelcount>2</channelcount>
																	</audio>
																</media>
															</file>
															<filter>
																<effect>
																	<name>Time Remap</name>
																	<effectid>timeremap</effectid>
																	<effectcategory>motion</effectcategory>
																	<effecttype>motion</effecttype>
																	<mediatype>video</mediatype>
																	<parameter authoringApp="PremierePro">
																		<parameterid>variablespeed</parameterid>
																		<name>variablespeed</name>
																		<valuemin>0</valuemin>
																		<valuemax>1</valuemax>
																		<value>0</value>
																	</parameter>
																	<parameter authoringApp="PremierePro">
																		<parameterid>speed</parameterid>
																		<name>speed</name>
																		<valuemin>-100000</valuemin>
																		<valuemax>100000</valuemax>
																		<value>126.207</value>
																	</parameter>
																	<parameter authoringApp="PremierePro">
																		<parameterid>reverse</parameterid>
																		<name>reverse</name>
																		<value>FALSE</value>
																	</parameter>
																	<parameter authoringApp="PremierePro">
																		<parameterid>frameblending</parameterid>
																		<name>frameblending</name>
																		<value>FALSE</value>
																	</parameter>
																	<parameter authoringApp="PremierePro">
																		<parameterid>graphdict</parameterid>
																		<name>graphdict</name>
																		<valuemin>0</valuemin>
																		<valuemax>18955</valuemax>
																		<value>0</value>
																		<keyframe>
																			<when>0</when>
																			<value>0</value>
																			<speedvirtualkf>TRUE</speedvirtualkf>
																			<speedkfstart>TRUE</speedkfstart>
																		</keyframe>
																		<keyframe>
																			<when>3864</when>
																			<value>4876</value>
																			<speedvirtualkf>TRUE</speedvirtualkf>
																			<speedkfin>TRUE</speedkfin>
																		</keyframe>
																		<keyframe>
																			<when>4082</when>
																			<value>5151</value>
																			<speedvirtualkf>TRUE</speedvirtualkf>
																			<speedkfout>TRUE</speedkfout>
																		</keyframe>
																		<keyframe>
																			<when>15019</when>
																			<value>18955</value>
																			<speedvirtualkf>TRUE</speedvirtualkf>
																			<speedkfend>TRUE</speedkfend>
																		</keyframe>
																		<interpolation>
																			<name>FCPCurve</name>
																		</interpolation>
																	</parameter>
																</effect>
															</filter>
															<logginginfo>
																<description></description>
																<scene></scene>
																<shottake></shottake>
																<lognote>https://www.youtube.com/watch?v=x5iDohKd-VI</lognote>
																<good></good>
																<originalvideofilename></originalvideofilename>
																<originalaudiofilename></originalaudiofilename>
															</logginginfo>
															<colorinfo>
																<lut></lut>
																<lut1></lut1>
																<asc_sop></asc_sop>
																<asc_sat></asc_sat>
																<lut2></lut2>
															</colorinfo>
															<labels>
																<label2>Iris</label2>
															</labels>
														</clipitem>
														<clipitem id="clipitem-401">
															<masterclipid>masterclip-136</masterclipid>
															<name>(Shmoxd)_How to draw_ LINE VALUE COLOR!!!_x5iDohKd-VI_YT.mp4</name>
															<enabled>TRUE</enabled>
															<duration>14085</duration>
															<rate>
																<timebase>30</timebase>
																<ntsc>TRUE</ntsc>
															</rate>
															<start>219</start>
															<end>783</end>
															<in>5178</in>
															<out>5741</out>
															<pproTicksIn>59049973382400</pproTicksIn>
															<pproTicksOut>65483004787200</pproTicksOut>
															<alphatype>none</alphatype>
															<file id="file-117"/>
															<filter>
																<effect>
																	<name>Time Remap</name>
																	<effectid>timeremap</effectid>
																	<effectcategory>motion</effectcategory>
																	<effecttype>motion</effecttype>
																	<mediatype>video</mediatype>
																	<parameter authoringApp="PremierePro">
																		<parameterid>variablespeed</parameterid>
																		<name>variablespeed</name>
																		<valuemin>0</valuemin>
																		<valuemax>1</valuemax>
																		<value>0</value>
																	</parameter>
																	<parameter authoringApp="PremierePro">
																		<parameterid>speed</parameterid>
																		<name>speed</name>
																		<valuemin>-100000</valuemin>
																		<valuemax>100000</valuemax>
																		<value>134.574</value>
																	</parameter>
																	<parameter authoringApp="PremierePro">
																		<parameterid>reverse</parameterid>
																		<name>reverse</name>
																		<value>FALSE</value>
																	</parameter>
																	<parameter authoringApp="PremierePro">
																		<parameterid>frameblending</parameterid>
																		<name>frameblending</name>
																		<value>FALSE</value>
																	</parameter>
																	<parameter authoringApp="PremierePro">
																		<parameterid>graphdict</parameterid>
																		<name>graphdict</name>
																		<valuemin>0</valuemin>
																		<valuemax>18954</valuemax>
																		<value>0</value>
																		<keyframe>
																			<when>0</when>
																			<value>0</value>
																			<speedvirtualkf>TRUE</speedvirtualkf>
																			<speedkfstart>TRUE</speedkfstart>
																		</keyframe>
																		<keyframe>
																			<when>5178</when>
																			<value>6968</value>
																			<speedvirtualkf>TRUE</speedvirtualkf>
																			<speedkfin>TRUE</speedkfin>
																		</keyframe>
																		<keyframe>
																			<when>5741</when>
																			<value>7725</value>
																			<speedvirtualkf>TRUE</speedvirtualkf>
																			<speedkfout>TRUE</speedkfout>
																		</keyframe>
																		<keyframe>
																			<when>14085</when>
																			<value>18954</value>
																			<speedvirtualkf>TRUE</speedvirtualkf>
																			<speedkfend>TRUE</speedkfend>
																		</keyframe>
																		<interpolation>
																			<name>FCPCurve</name>
																		</interpolation>
																	</parameter>
																</effect>
															</filter>
															<logginginfo>
																<description></description>
																<scene></scene>
																<shottake></shottake>
																<lognote>https://www.youtube.com/watch?v=x5iDohKd-VI</lognote>
																<good></good>
																<originalvideofilename></originalvideofilename>
																<originalaudiofilename></originalaudiofilename>
															</logginginfo>
															<colorinfo>
																<lut></lut>
																<lut1></lut1>
																<asc_sop></asc_sop>
																<asc_sat></asc_sat>
																<lut2></lut2>
															</colorinfo>
															<labels>
																<label2>Iris</label2>
															</labels>
														</clipitem>
														<clipitem id="clipitem-402">
															<masterclipid>masterclip-136</masterclipid>
															<name>(Shmoxd)_How to draw_ LINE VALUE COLOR!!!_x5iDohKd-VI_YT.mp4</name>
															<enabled>TRUE</enabled>
															<duration>17822</duration>
															<rate>
																<timebase>30</timebase>
																<ntsc>TRUE</ntsc>
															</rate>
															<start>783</start>
															<end>1129</end>
															<in>11451</in>
															<out>11796</out>
															<pproTicksIn>103225150828800</pproTicksIn>
															<pproTicksOut>106344196358400</pproTicksOut>
															<alphatype>none</alphatype>
															<file id="file-117"/>
															<filter>
																<effect>
																	<name>Time Remap</name>
																	<effectid>timeremap</effectid>
																	<effectcategory>motion</effectcategory>
																	<effecttype>motion</effecttype>
																	<mediatype>video</mediatype>
																	<parameter authoringApp="PremierePro">
																		<parameterid>variablespeed</parameterid>
																		<name>variablespeed</name>
																		<valuemin>0</valuemin>
																		<valuemax>1</valuemax>
																		<value>0</value>
																	</parameter>
																	<parameter authoringApp="PremierePro">
																		<parameterid>speed</parameterid>
																		<name>speed</name>
																		<valuemin>-100000</valuemin>
																		<valuemax>100000</valuemax>
																		<value>106.358</value>
																	</parameter>
																	<parameter authoringApp="PremierePro">
																		<parameterid>reverse</parameterid>
																		<name>reverse</name>
																		<value>FALSE</value>
																	</parameter>
																	<parameter authoringApp="PremierePro">
																		<parameterid>frameblending</parameterid>
																		<name>frameblending</name>
																		<value>FALSE</value>
																	</parameter>
																	<parameter authoringApp="PremierePro">
																		<parameterid>graphdict</parameterid>
																		<name>graphdict</name>
																		<valuemin>0</valuemin>
																		<valuemax>18955</valuemax>
																		<value>0</value>
																		<keyframe>
																			<when>0</when>
																			<value>0</value>
																			<speedvirtualkf>TRUE</speedvirtualkf>
																			<speedkfstart>TRUE</speedkfstart>
																		</keyframe>
																		<keyframe>
																			<when>11451</when>
																			<value>12179</value>
																			<speedvirtualkf>TRUE</speedvirtualkf>
																			<speedkfin>TRUE</speedkfin>
																		</keyframe>
																		<keyframe>
																			<when>11796</when>
																			<value>12546</value>
																			<speedvirtualkf>TRUE</speedvirtualkf>
																			<speedkfout>TRUE</speedkfout>
																		</keyframe>
																		<keyframe>
																			<when>17822</when>
																			<value>18955</value>
																			<speedvirtualkf>TRUE</speedvirtualkf>
																			<speedkfend>TRUE</speedkfend>
																		</keyframe>
																		<interpolation>
																			<name>FCPCurve</name>
																		</interpolation>
																	</parameter>
																</effect>
															</filter>
															<logginginfo>
																<description></description>
																<scene></scene>
																<shottake></shottake>
																<lognote>https://www.youtube.com/watch?v=x5iDohKd-VI</lognote>
																<good></good>
																<originalvideofilename></originalvideofilename>
																<originalaudiofilename></originalaudiofilename>
															</logginginfo>
															<colorinfo>
																<lut></lut>
																<lut1></lut1>
																<asc_sop></asc_sop>
																<asc_sat></asc_sat>
																<lut2></lut2>
															</colorinfo>
															<labels>
																<label2>Iris</label2>
															</labels>
														</clipitem>
														<clipitem id="clipitem-403">
															<masterclipid>masterclip-136</masterclipid>
															<name>(Shmoxd)_How to draw_ LINE VALUE COLOR!!!_x5iDohKd-VI_YT.mp4</name>
															<enabled>TRUE</enabled>
															<duration>13096</duration>
															<rate>
																<timebase>30</timebase>
																<ntsc>TRUE</ntsc>
															</rate>
															<start>1129</start>
															<end>1399</end>
															<in>9548</in>
															<out>9817</out>
															<pproTicksIn>117125245036800</pproTicksIn>
															<pproTicksOut>120437581285496</pproTicksOut>
															<alphatype>none</alphatype>
															<file id="file-117"/>
															<filter>
																<effect>
																	<name>Time Remap</name>
																	<effectid>timeremap</effectid>
																	<effectcategory>motion</effectcategory>
																	<effecttype>motion</effecttype>
																	<mediatype>video</mediatype>
																	<parameter authoringApp="PremierePro">
																		<parameterid>variablespeed</parameterid>
																		<name>variablespeed</name>
																		<valuemin>0</valuemin>
																		<valuemax>1</valuemax>
																		<value>0</value>
																	</parameter>
																	<parameter authoringApp="PremierePro">
																		<parameterid>speed</parameterid>
																		<name>speed</name>
																		<valuemin>-100000</valuemin>
																		<valuemax>100000</valuemax>
																		<value>144.743</value>
																	</parameter>
																	<parameter authoringApp="PremierePro">
																		<parameterid>reverse</parameterid>
																		<name>reverse</name>
																		<value>FALSE</value>
																	</parameter>
																	<parameter authoringApp="PremierePro">
																		<parameterid>frameblending</parameterid>
																		<name>frameblending</name>
																		<value>FALSE</value>
																	</parameter>
																	<parameter authoringApp="PremierePro">
																		<parameterid>graphdict</parameterid>
																		<name>graphdict</name>
																		<valuemin>0</valuemin>
																		<valuemax>18955</valuemax>
																		<value>0</value>
																		<keyframe>
																			<when>0</when>
																			<value>0</value>
																			<speedvirtualkf>TRUE</speedvirtualkf>
																			<speedkfstart>TRUE</speedkfstart>
																		</keyframe>
																		<keyframe>
																			<when>9548</when>
																			<value>13820</value>
																			<speedvirtualkf>TRUE</speedvirtualkf>
																			<speedkfin>TRUE</speedkfin>
																		</keyframe>
																		<keyframe>
																			<when>9817</when>
																			<value>14209</value>
																			<speedvirtualkf>TRUE</speedvirtualkf>
																			<speedkfout>TRUE</speedkfout>
																		</keyframe>
																		<keyframe>
																			<when>13096</when>
																			<value>18955</value>
																			<speedvirtualkf>TRUE</speedvirtualkf>
																			<speedkfend>TRUE</speedkfend>
																		</keyframe>
																		<interpolation>
																			<name>FCPCurve</name>
																		</interpolation>
																	</parameter>
																</effect>
															</filter>
															<logginginfo>
																<description></description>
																<scene></scene>
																<shottake></shottake>
																<lognote>https://www.youtube.com/watch?v=x5iDohKd-VI</lognote>
																<good></good>
																<originalvideofilename></originalvideofilename>
																<originalaudiofilename></originalaudiofilename>
															</logginginfo>
															<colorinfo>
																<lut></lut>
																<lut1></lut1>
																<asc_sop></asc_sop>
																<asc_sat></asc_sat>
																<lut2></lut2>
															</colorinfo>
															<labels>
																<label2>Iris</label2>
															</labels>
														</clipitem>
														<clipitem id="clipitem-404">
															<masterclipid>masterclip-136</masterclipid>
															<name>(Shmoxd)_How to draw_ LINE VALUE COLOR!!!_x5iDohKd-VI_YT.mp4</name>
															<enabled>TRUE</enabled>
															<duration>17926</duration>
															<rate>
																<timebase>30</timebase>
																<ntsc>TRUE</ntsc>
															</rate>
															<start>1399</start>
															<end>1608</end>
															<in>14965</in>
															<out>15173</out>
															<pproTicksIn>134118957772800</pproTicksIn>
															<pproTicksOut>135992080224000</pproTicksOut>
															<alphatype>none</alphatype>
															<file id="file-117"/>
															<filter>
																<effect>
																	<name>Time Remap</name>
																	<effectid>timeremap</effectid>
																	<effectcategory>motion</effectcategory>
																	<effecttype>motion</effecttype>
																	<mediatype>video</mediatype>
																	<parameter authoringApp="PremierePro">
																		<parameterid>variablespeed</parameterid>
																		<name>variablespeed</name>
																		<valuemin>0</valuemin>
																		<valuemax>1</valuemax>
																		<value>0</value>
																	</parameter>
																	<parameter authoringApp="PremierePro">
																		<parameterid>speed</parameterid>
																		<name>speed</name>
																		<valuemin>-100000</valuemin>
																		<valuemax>100000</valuemax>
																		<value>105.742</value>
																	</parameter>
																	<parameter authoringApp="PremierePro">
																		<parameterid>reverse</parameterid>
																		<name>reverse</name>
																		<value>FALSE</value>
																	</parameter>
																	<parameter authoringApp="PremierePro">
																		<parameterid>frameblending</parameterid>
																		<name>frameblending</name>
																		<value>FALSE</value>
																	</parameter>
																	<parameter authoringApp="PremierePro">
																		<parameterid>graphdict</parameterid>
																		<name>graphdict</name>
																		<valuemin>0</valuemin>
																		<valuemax>18955</valuemax>
																		<value>0</value>
																		<keyframe>
																			<when>0</when>
																			<value>0</value>
																			<speedvirtualkf>TRUE</speedvirtualkf>
																			<speedkfstart>TRUE</speedkfstart>
																		</keyframe>
																		<keyframe>
																			<when>14965</when>
																			<value>15824</value>
																			<speedvirtualkf>TRUE</speedvirtualkf>
																			<speedkfin>TRUE</speedkfin>
																		</keyframe>
																		<keyframe>
																			<when>15173</when>
																			<value>16044</value>
																			<speedvirtualkf>TRUE</speedvirtualkf>
																			<speedkfout>TRUE</speedkfout>
																		</keyframe>
																		<keyframe>
																			<when>17926</when>
																			<value>18955</value>
																			<speedvirtualkf>TRUE</speedvirtualkf>
																			<speedkfend>TRUE</speedkfend>
																		</keyframe>
																		<interpolation>
																			<name>FCPCurve</name>
																		</interpolation>
																	</parameter>
																</effect>
															</filter>
															<logginginfo>
																<description></description>
																<scene></scene>
																<shottake></shottake>
																<lognote>https://www.youtube.com/watch?v=x5iDohKd-VI</lognote>
																<good></good>
																<originalvideofilename></originalvideofilename>
																<originalaudiofilename></originalaudiofilename>
															</logginginfo>
															<colorinfo>
																<lut></lut>
																<lut1></lut1>
																<asc_sop></asc_sop>
																<asc_sat></asc_sat>
																<lut2></lut2>
															</colorinfo>
															<labels>
																<label2>Iris</label2>
															</labels>
														</clipitem>
														<clipitem id="clipitem-405">
															<masterclipid>masterclip-136</masterclipid>
															<name>(Shmoxd)_How to draw_ LINE VALUE COLOR!!!_x5iDohKd-VI_YT.mp4</name>
															<enabled>TRUE</enabled>
															<duration>11988</duration>
															<rate>
																<timebase>30</timebase>
																<ntsc>TRUE</ntsc>
															</rate>
															<start>1608</start>
															<end>2064</end>
															<in>10907</in>
															<out>11362</out>
															<pproTicksIn>146162880864000</pproTicksIn>
															<pproTicksOut>152273836915200</pproTicksOut>
															<alphatype>none</alphatype>
															<file id="file-117"/>
															<filter>
																<effect>
																	<name>Time Remap</name>
																	<effectid>timeremap</effectid>
																	<effectcategory>motion</effectcategory>
																	<effecttype>motion</effecttype>
																	<mediatype>video</mediatype>
																	<parameter authoringApp="PremierePro">
																		<parameterid>variablespeed</parameterid>
																		<name>variablespeed</name>
																		<valuemin>0</valuemin>
																		<valuemax>1</valuemax>
																		<value>0</value>
																	</parameter>
																	<parameter authoringApp="PremierePro">
																		<parameterid>speed</parameterid>
																		<name>speed</name>
																		<valuemin>-100000</valuemin>
																		<valuemax>100000</valuemax>
																		<value>158.114</value>
																	</parameter>
																	<parameter authoringApp="PremierePro">
																		<parameterid>reverse</parameterid>
																		<name>reverse</name>
																		<value>FALSE</value>
																	</parameter>
																	<parameter authoringApp="PremierePro">
																		<parameterid>frameblending</parameterid>
																		<name>frameblending</name>
																		<value>FALSE</value>
																	</parameter>
																	<parameter authoringApp="PremierePro">
																		<parameterid>graphdict</parameterid>
																		<name>graphdict</name>
																		<valuemin>0</valuemin>
																		<valuemax>18954</valuemax>
																		<value>0</value>
																		<keyframe>
																			<when>0</when>
																			<value>0</value>
																			<speedvirtualkf>TRUE</speedvirtualkf>
																			<speedkfstart>TRUE</speedkfstart>
																		</keyframe>
																		<keyframe>
																			<when>10907</when>
																			<value>17245</value>
																			<speedvirtualkf>TRUE</speedvirtualkf>
																			<speedkfin>TRUE</speedkfin>
																		</keyframe>
																		<keyframe>
																			<when>11362</when>
																			<value>17964</value>
																			<speedvirtualkf>TRUE</speedvirtualkf>
																			<speedkfout>TRUE</speedkfout>
																		</keyframe>
																		<keyframe>
																			<when>11988</when>
																			<value>18954</value>
																			<speedvirtualkf>TRUE</speedvirtualkf>
																			<speedkfend>TRUE</speedkfend>
																		</keyframe>
																		<interpolation>
																			<name>FCPCurve</name>
																		</interpolation>
																	</parameter>
																</effect>
															</filter>
															<logginginfo>
																<description></description>
																<scene></scene>
																<shottake></shottake>
																<lognote>https://www.youtube.com/watch?v=x5iDohKd-VI</lognote>
																<good></good>
																<originalvideofilename></originalvideofilename>
																<originalaudiofilename></originalaudiofilename>
															</logginginfo>
															<colorinfo>
																<lut></lut>
																<lut1></lut1>
																<asc_sop></asc_sop>
																<asc_sat></asc_sat>
																<lut2></lut2>
															</colorinfo>
															<labels>
																<label2>Iris</label2>
															</labels>
														</clipitem>
														<enabled>TRUE</enabled>
														<locked>FALSE</locked>
													</track>
													<track TL.SQTrackShy="0" TL.SQTrackExpandedHeight="25" TL.SQTrackExpanded="0" MZ.TrackTargeted="0">
														<clipitem id="clipitem-406">
															<masterclipid>masterclip-137</masterclipid>
															<name>SHMOXD</name>
															<enabled>TRUE</enabled>
															<duration>5844</duration>
															<rate>
																<timebase>30</timebase>
																<ntsc>TRUE</ntsc>
															</rate>
															<start>0</start>
															<end>2064</end>
															<in>216</in>
															<out>2280</out>
															<pproTicksIn>1830744115200</pproTicksIn>
															<pproTicksOut>19324521216000</pproTicksOut>
															<alphatype>straight</alphatype>
															<pixelaspectratio>square</pixelaspectratio>
															<anamorphic>FALSE</anamorphic>
															<file id="file-118">
																<name>1080/AE Attribution.aep</name>
																<pathurl>file://localhost/Volumes/ATM%20JR%202TB/Crafty/Master%20Assets%20/Attribution/AE%20Attribution.aep</pathurl>
																<rate>
																	<timebase>30</timebase>
																	<ntsc>TRUE</ntsc>
																</rate>
																<duration>5844</duration>
																<timecode>
																	<rate>
																		<timebase>30</timebase>
																		<ntsc>TRUE</ntsc>
																	</rate>
																	<string>00;00;00;00</string>
																	<frame>0</frame>
																	<displayformat>DF</displayformat>
																</timecode>
																<media>
																	<video>
																		<samplecharacteristics>
																			<rate>
																				<timebase>30</timebase>
																				<ntsc>TRUE</ntsc>
																			</rate>
																			<width>1920</width>
																			<height>1080</height>
																			<anamorphic>FALSE</anamorphic>
																			<pixelaspectratio>square</pixelaspectratio>
																			<fielddominance>lower</fielddominance>
																		</samplecharacteristics>
																	</video>
																</media>
															</file>
															<logginginfo>
																<description></description>
																<scene></scene>
																<shottake></shottake>
																<lognote></lognote>
																<good></good>
																<originalvideofilename></originalvideofilename>
																<originalaudiofilename></originalaudiofilename>
															</logginginfo>
															<colorinfo>
																<lut></lut>
																<lut1></lut1>
																<asc_sop></asc_sop>
																<asc_sat></asc_sat>
																<lut2></lut2>
															</colorinfo>
															<labels>
																<label2>Rose</label2>
															</labels>
														</clipitem>
														<enabled>TRUE</enabled>
														<locked>FALSE</locked>
													</track>
												</video>
												<audio>
													<numOutputChannels>2</numOutputChannels>
													<format>
														<samplecharacteristics>
															<depth>16</depth>
															<samplerate>48000</samplerate>
														</samplecharacteristics>
													</format>
													<outputs>
														<group>
															<index>1</index>
															<numchannels>1</numchannels>
															<downmix>0</downmix>
															<channel>
																<index>1</index>
															</channel>
														</group>
														<group>
															<index>2</index>
															<numchannels>1</numchannels>
															<downmix>0</downmix>
															<channel>
																<index>2</index>
															</channel>
														</group>
													</outputs>
													<track TL.SQTrackAudioKeyframeStyle="0" TL.SQTrackShy="0" TL.SQTrackExpandedHeight="25" TL.SQTrackExpanded="0" MZ.TrackTargeted="1" PannerCurrentValue="0.5" PannerIsInverted="true" PannerStartKeyframe="-91445760000000000,0.5,0,0,0,0,0,0" PannerName="Balance" currentExplodedTrackIndex="0" totalExplodedTrackCount="2" premiereTrackType="Stereo">
														<transitionitem>
															<start>0</start>
															<end>30</end>
															<pproTicksIn>0</pproTicksIn>
															<pproTicksOut>254270016000</pproTicksOut>
															<alignment>start-black</alignment>
															<cutPointTicks>0</cutPointTicks>
															<rate>
																<timebase>30</timebase>
																<ntsc>TRUE</ntsc>
															</rate>
															<effect>
																<name>Cross Fade (+3dB)</name>
																<effectid>KGAudioTransCrossFade3dB</effectid>
																<effecttype>transition</effecttype>
																<mediatype>audio</mediatype>
																<wipecode>0</wipecode>
																<wipeaccuracy>100</wipeaccuracy>
																<startratio>0</startratio>
																<endratio>1</endratio>
																<reverse>FALSE</reverse>
															</effect>
														</transitionitem>
														<clipitem id="clipitem-407" premiereChannelType="stereo">
															<masterclipid>masterclip-138</masterclipid>
															<name>ES_Laidback - Osoku.wav</name>
															<enabled>TRUE</enabled>
															<duration>5345</duration>
															<rate>
																<timebase>30</timebase>
																<ntsc>TRUE</ntsc>
															</rate>
															<start>-1</start>
															<end>-1</end>
															<in>0</in>
															<out>2064</out>
															<pproTicksIn>0</pproTicksIn>
															<pproTicksOut>17493777100800</pproTicksOut>
															<file id="file-119">
																<name>ES_Laidback - Osoku.wav</name>
																<pathurl>file://localhost/Volumes/ATM%20JR%202TB/Crafty/2023/06_June/Crafty_6-19-23/5_Music/ES_Laidback%20-%20Osoku.wav</pathurl>
																<rate>
																	<timebase>30</timebase>
																	<ntsc>TRUE</ntsc>
																</rate>
																<duration>5345</duration>
																<timecode>
																	<rate>
																		<timebase>30</timebase>
																		<ntsc>TRUE</ntsc>
																	</rate>
																	<string>05;36;16;01</string>
																	<frame>604675</frame>
																	<displayformat>DF</displayformat>
																</timecode>
																<media>
																	<audio>
																		<samplecharacteristics>
																			<depth>16</depth>
																			<samplerate>48000</samplerate>
																		</samplecharacteristics>
																		<channelcount>2</channelcount>
																	</audio>
																</media>
															</file>
															<sourcetrack>
																<mediatype>audio</mediatype>
																<trackindex>1</trackindex>
															</sourcetrack>
															<filter>
																<effect>
																	<name>Gain</name>
																	<effectid>{61756678, 4761696e, 4b657947}</effectid>
																	<effecttype>filter</effecttype>
																	<mediatype>audio</mediatype>
																	<parameter authoringApp="PremierePro">
																		<parameterid>Gain(dB)</parameterid>
																		<name>Gain(dB)</name>
																		<valuemin>-96</valuemin>
																		<valuemax>96</valuemax>
																		<value>-8</value>
																	</parameter>
																</effect>
															</filter>
															<filter>
																<effect>
																	<name>Audio Levels</name>
																	<effectid>audiolevels</effectid>
																	<effectcategory>audiolevels</effectcategory>
																	<effecttype>audiolevels</effecttype>
																	<mediatype>audio</mediatype>
																	<pproBypass>false</pproBypass>
																	<parameter authoringApp="PremierePro">
																		<parameterid>level</parameterid>
																		<name>Level</name>
																		<valuemin>0</valuemin>
																		<valuemax>3.98109</valuemax>
																		<value>1.40641</value>
																		<keyframe>
																			<when>341</when>
																			<value>1.40641</value>
																		</keyframe>
																		<keyframe>
																			<when>426</when>
																			<value>1</value>
																		</keyframe>
																		<keyframe>
																			<when>1745</when>
																			<value>1</value>
																		</keyframe>
																		<keyframe>
																			<when>1802</when>
																			<value>1.6294</value>
																		</keyframe>
																		<keyframe>
																			<when>2087</when>
																			<value>1.6294</value>
																		</keyframe>
																		<keyframe>
																			<when>2132</when>
																			<value>1</value>
																		</keyframe>
																	</parameter>
																</effect>
															</filter>
															<link>
																<linkclipref>clipitem-407</linkclipref>
																<mediatype>audio</mediatype>
																<trackindex>1</trackindex>
																<clipindex>2</clipindex>
																<groupindex>1</groupindex>
															</link>
															<link>
																<linkclipref>clipitem-408</linkclipref>
																<mediatype>audio</mediatype>
																<trackindex>2</trackindex>
																<clipindex>2</clipindex>
																<groupindex>1</groupindex>
															</link>
															<logginginfo>
																<description></description>
																<scene></scene>
																<shottake></shottake>
																<lognote></lognote>
																<good></good>
																<originalvideofilename></originalvideofilename>
																<originalaudiofilename></originalaudiofilename>
															</logginginfo>
															<colorinfo>
																<lut></lut>
																<lut1></lut1>
																<asc_sop></asc_sop>
																<asc_sat></asc_sat>
																<lut2></lut2>
															</colorinfo>
															<labels>
																<label2>Caribbean</label2>
															</labels>
														</clipitem>
														<transitionitem>
															<start>1974</start>
															<end>2064</end>
															<pproTicksIn>16730967052800</pproTicksIn>
															<pproTicksOut>17493777100800</pproTicksOut>
															<alignment>end-black</alignment>
															<cutPointTicks>762810048000</cutPointTicks>
															<rate>
																<timebase>30</timebase>
																<ntsc>TRUE</ntsc>
															</rate>
															<effect>
																<name>Cross Fade (+3dB)</name>
																<effectid>KGAudioTransCrossFade3dB</effectid>
																<effecttype>transition</effecttype>
																<mediatype>audio</mediatype>
																<wipecode>0</wipecode>
																<wipeaccuracy>100</wipeaccuracy>
																<startratio>0</startratio>
																<endratio>1</endratio>
																<reverse>FALSE</reverse>
															</effect>
														</transitionitem>
														<enabled>TRUE</enabled>
														<locked>FALSE</locked>
														<outputchannelindex>1</outputchannelindex>
													</track>
													<track TL.SQTrackAudioKeyframeStyle="0" TL.SQTrackShy="0" TL.SQTrackExpandedHeight="25" TL.SQTrackExpanded="0" MZ.TrackTargeted="1" PannerCurrentValue="0.5" PannerIsInverted="true" PannerStartKeyframe="-91445760000000000,0.5,0,0,0,0,0,0" PannerName="Balance" currentExplodedTrackIndex="1" totalExplodedTrackCount="2" premiereTrackType="Stereo">
														<transitionitem>
															<start>0</start>
															<end>30</end>
															<pproTicksIn>0</pproTicksIn>
															<pproTicksOut>254270016000</pproTicksOut>
															<alignment>start-black</alignment>
															<cutPointTicks>0</cutPointTicks>
															<rate>
																<timebase>30</timebase>
																<ntsc>TRUE</ntsc>
															</rate>
															<effect>
																<name>Cross Fade (+3dB)</name>
																<effectid>KGAudioTransCrossFade3dB</effectid>
																<effecttype>transition</effecttype>
																<mediatype>audio</mediatype>
																<wipecode>0</wipecode>
																<wipeaccuracy>100</wipeaccuracy>
																<startratio>0</startratio>
																<endratio>1</endratio>
																<reverse>FALSE</reverse>
															</effect>
														</transitionitem>
														<clipitem id="clipitem-408" premiereChannelType="stereo">
															<masterclipid>masterclip-138</masterclipid>
															<name>ES_Laidback - Osoku.wav</name>
															<enabled>TRUE</enabled>
															<duration>5345</duration>
															<rate>
																<timebase>30</timebase>
																<ntsc>TRUE</ntsc>
															</rate>
															<start>-1</start>
															<end>-1</end>
															<in>0</in>
															<out>2064</out>
															<pproTicksIn>0</pproTicksIn>
															<pproTicksOut>17493777100800</pproTicksOut>
															<file id="file-119"/>
															<sourcetrack>
																<mediatype>audio</mediatype>
																<trackindex>2</trackindex>
															</sourcetrack>
															<filter>
																<effect>
																	<name>Gain</name>
																	<effectid>{61756678, 4761696e, 4b657947}</effectid>
																	<effecttype>filter</effecttype>
																	<mediatype>audio</mediatype>
																	<parameter authoringApp="PremierePro">
																		<parameterid>Gain(dB)</parameterid>
																		<name>Gain(dB)</name>
																		<valuemin>-96</valuemin>
																		<valuemax>96</valuemax>
																		<value>-8</value>
																	</parameter>
																</effect>
															</filter>
															<filter>
																<effect>
																	<name>Audio Levels</name>
																	<effectid>audiolevels</effectid>
																	<effectcategory>audiolevels</effectcategory>
																	<effecttype>audiolevels</effecttype>
																	<mediatype>audio</mediatype>
																	<pproBypass>false</pproBypass>
																	<parameter authoringApp="PremierePro">
																		<parameterid>level</parameterid>
																		<name>Level</name>
																		<valuemin>0</valuemin>
																		<valuemax>3.98109</valuemax>
																		<value>1.40641</value>
																		<keyframe>
																			<when>341</when>
																			<value>1.40641</value>
																		</keyframe>
																		<keyframe>
																			<when>426</when>
																			<value>1</value>
																		</keyframe>
																		<keyframe>
																			<when>1745</when>
																			<value>1</value>
																		</keyframe>
																		<keyframe>
																			<when>1802</when>
																			<value>1.6294</value>
																		</keyframe>
																		<keyframe>
																			<when>2087</when>
																			<value>1.6294</value>
																		</keyframe>
																		<keyframe>
																			<when>2132</when>
																			<value>1</value>
																		</keyframe>
																	</parameter>
																</effect>
															</filter>
															<link>
																<linkclipref>clipitem-407</linkclipref>
																<mediatype>audio</mediatype>
																<trackindex>1</trackindex>
																<clipindex>2</clipindex>
																<groupindex>1</groupindex>
															</link>
															<link>
																<linkclipref>clipitem-408</linkclipref>
																<mediatype>audio</mediatype>
																<trackindex>2</trackindex>
																<clipindex>2</clipindex>
																<groupindex>1</groupindex>
															</link>
															<logginginfo>
																<description></description>
																<scene></scene>
																<shottake></shottake>
																<lognote></lognote>
																<good></good>
																<originalvideofilename></originalvideofilename>
																<originalaudiofilename></originalaudiofilename>
															</logginginfo>
															<colorinfo>
																<lut></lut>
																<lut1></lut1>
																<asc_sop></asc_sop>
																<asc_sat></asc_sat>
																<lut2></lut2>
															</colorinfo>
															<labels>
																<label2>Caribbean</label2>
															</labels>
														</clipitem>
														<transitionitem>
															<start>1974</start>
															<end>2064</end>
															<pproTicksIn>16730967052800</pproTicksIn>
															<pproTicksOut>17493777100800</pproTicksOut>
															<alignment>end-black</alignment>
															<cutPointTicks>762810048000</cutPointTicks>
															<rate>
																<timebase>30</timebase>
																<ntsc>TRUE</ntsc>
															</rate>
															<effect>
																<name>Cross Fade (+3dB)</name>
																<effectid>KGAudioTransCrossFade3dB</effectid>
																<effecttype>transition</effecttype>
																<mediatype>audio</mediatype>
																<wipecode>0</wipecode>
																<wipeaccuracy>100</wipeaccuracy>
																<startratio>0</startratio>
																<endratio>1</endratio>
																<reverse>FALSE</reverse>
															</effect>
														</transitionitem>
														<enabled>TRUE</enabled>
														<locked>FALSE</locked>
														<outputchannelindex>2</outputchannelindex>
													</track>
												</audio>
											</media>
											<timecode>
												<rate>
													<timebase>30</timebase>
													<ntsc>TRUE</ntsc>
												</rate>
												<string>00;00;00;00</string>
												<frame>0</frame>
												<displayformat>DF</displayformat>
											</timecode>
											<logginginfo>
												<description></description>
												<scene></scene>
												<shottake></shottake>
												<lognote></lognote>
												<good></good>
												<originalvideofilename></originalvideofilename>
												<originalaudiofilename></originalaudiofilename>
											</logginginfo>
										</sequence>
										<link>
											<linkclipref>clipitem-399</linkclipref>
											<mediatype>video</mediatype>
											<trackindex>1</trackindex>
											<clipindex>2</clipindex>
										</link>
										<link>
											<linkclipref>clipitem-415</linkclipref>
											<mediatype>audio</mediatype>
											<trackindex>1</trackindex>
											<clipindex>2</clipindex>
											<groupindex>1</groupindex>
										</link>
										<link>
											<linkclipref>clipitem-417</linkclipref>
											<mediatype>audio</mediatype>
											<trackindex>2</trackindex>
											<clipindex>2</clipindex>
											<groupindex>1</groupindex>
										</link>
										<labels>
											<label2>Forest</label2>
										</labels>
									</clipitem>
									<enabled>TRUE</enabled>
									<locked>FALSE</locked>
								</track>
								<track TL.SQTrackShy="0" TL.SQTrackExpandedHeight="25" TL.SQTrackExpanded="0" MZ.TrackTargeted="0">
									<clipitem id="clipitem-409">
										<masterclipid>masterclip-139</masterclipid>
										<name>SIMPLE &amp; SOUTHERN PORCH DECOR</name>
										<enabled>TRUE</enabled>
										<duration>5695</duration>
										<rate>
											<timebase>30</timebase>
											<ntsc>TRUE</ntsc>
										</rate>
										<start>0</start>
										<end>3224</end>
										<in>0</in>
										<out>3224</out>
										<pproTicksIn>0</pproTicksIn>
										<pproTicksOut>27325551052800</pproTicksOut>
										<alphatype>straight</alphatype>
										<pixelaspectratio>square</pixelaspectratio>
										<anamorphic>FALSE</anamorphic>
										<file id="file-120">
											<name>CRAFTY_L3RD_01_JL_V03/CRAFTY_L3RD_01_JL_V03.aep</name>
											<pathurl>file://localhost/Volumes/ATM%20JR%202TB/Crafty/Master%20Assets%20/Lower%20Thirds/CRAFTY_L3RD_01_JL_V03.aep</pathurl>
											<rate>
												<timebase>30</timebase>
												<ntsc>FALSE</ntsc>
											</rate>
											<duration>5701</duration>
											<timecode>
												<rate>
													<timebase>30</timebase>
													<ntsc>FALSE</ntsc>
												</rate>
												<string>00:00:00:00</string>
												<frame>0</frame>
												<displayformat>NDF</displayformat>
											</timecode>
											<media>
												<video>
													<samplecharacteristics>
														<rate>
															<timebase>30</timebase>
															<ntsc>FALSE</ntsc>
														</rate>
														<width>1920</width>
														<height>1080</height>
														<anamorphic>FALSE</anamorphic>
														<pixelaspectratio>square</pixelaspectratio>
														<fielddominance>lower</fielddominance>
													</samplecharacteristics>
												</video>
											</media>
										</file>
										<logginginfo>
											<description></description>
											<scene></scene>
											<shottake></shottake>
											<lognote></lognote>
											<good></good>
											<originalvideofilename></originalvideofilename>
											<originalaudiofilename></originalaudiofilename>
										</logginginfo>
										<colorinfo>
											<lut></lut>
											<lut1></lut1>
											<asc_sop></asc_sop>
											<asc_sat></asc_sat>
											<lut2></lut2>
										</colorinfo>
										<labels>
											<label2>Rose</label2>
										</labels>
									</clipitem>
									<clipitem id="clipitem-410">
										<masterclipid>masterclip-140</masterclipid>
										<name>SAME PAINTING, DIFFERENT STYLES</name>
										<enabled>TRUE</enabled>
										<duration>5695</duration>
										<rate>
											<timebase>30</timebase>
											<ntsc>TRUE</ntsc>
										</rate>
										<start>3316</start>
										<end>5360</end>
										<in>0</in>
										<out>2044</out>
										<pproTicksIn>0</pproTicksIn>
										<pproTicksOut>17324263756800</pproTicksOut>
										<alphatype>straight</alphatype>
										<pixelaspectratio>square</pixelaspectratio>
										<anamorphic>FALSE</anamorphic>
										<file id="file-121">
											<name>CRAFTY_L3RD_01_JL_V03/CRAFTY_L3RD_01_JL_V03.aep</name>
											<pathurl>file://localhost/Volumes/ATM%20JR%202TB/Crafty/Master%20Assets%20/Lower%20Thirds/CRAFTY_L3RD_01_JL_V03.aep</pathurl>
											<rate>
												<timebase>30</timebase>
												<ntsc>FALSE</ntsc>
											</rate>
											<duration>5701</duration>
											<timecode>
												<rate>
													<timebase>30</timebase>
													<ntsc>FALSE</ntsc>
												</rate>
												<string>00:00:00:00</string>
												<frame>0</frame>
												<displayformat>NDF</displayformat>
											</timecode>
											<media>
												<video>
													<samplecharacteristics>
														<rate>
															<timebase>30</timebase>
															<ntsc>FALSE</ntsc>
														</rate>
														<width>1920</width>
														<height>1080</height>
														<anamorphic>FALSE</anamorphic>
														<pixelaspectratio>square</pixelaspectratio>
														<fielddominance>lower</fielddominance>
													</samplecharacteristics>
												</video>
											</media>
										</file>
										<logginginfo>
											<description></description>
											<scene></scene>
											<shottake></shottake>
											<lognote></lognote>
											<good></good>
											<originalvideofilename></originalvideofilename>
											<originalaudiofilename></originalaudiofilename>
										</logginginfo>
										<colorinfo>
											<lut></lut>
											<lut1></lut1>
											<asc_sop></asc_sop>
											<asc_sat></asc_sat>
											<lut2></lut2>
										</colorinfo>
										<labels>
											<label2>Rose</label2>
										</labels>
									</clipitem>
									<enabled>TRUE</enabled>
									<locked>FALSE</locked>
								</track>
								<track TL.SQTrackShy="0" TL.SQTrackExpandedHeight="25" TL.SQTrackExpanded="0" MZ.TrackTargeted="0">
									<clipitem id="clipitem-411">
										<masterclipid>masterclip-102</masterclipid>
										<name>ATM_logo_channels_right-2 (3).png</name>
										<enabled>TRUE</enabled>
										<duration>1294705</duration>
										<rate>
											<timebase>30</timebase>
											<ntsc>TRUE</ntsc>
										</rate>
										<start>0</start>
										<end>5360</end>
										<in>107892</in>
										<out>113252</out>
										<pproTicksIn>914456685542400</pproTicksIn>
										<pproTicksOut>959886261734400</pproTicksOut>
										<alphatype>straight</alphatype>
										<file id="file-89"/>
										<logginginfo>
											<description></description>
											<scene></scene>
											<shottake></shottake>
											<lognote></lognote>
											<good></good>
											<originalvideofilename></originalvideofilename>
											<originalaudiofilename></originalaudiofilename>
										</logginginfo>
										<colorinfo>
											<lut></lut>
											<lut1></lut1>
											<asc_sop></asc_sop>
											<asc_sat></asc_sat>
											<lut2></lut2>
										</colorinfo>
										<labels>
											<label2>Lavender</label2>
										</labels>
									</clipitem>
									<enabled>TRUE</enabled>
									<locked>FALSE</locked>
								</track>
								<track TL.SQTrackShy="0" TL.SQTrackExpandedHeight="25" TL.SQTrackExpanded="0" MZ.TrackTargeted="0">
									<clipitem id="clipitem-412">
										<masterclipid>masterclip-104</masterclipid>
										<name>CRAFTY_TRAN03_JL_V01.mov</name>
										<enabled>TRUE</enabled>
										<duration>120</duration>
										<rate>
											<timebase>30</timebase>
											<ntsc>TRUE</ntsc>
										</rate>
										<start>3196</start>
										<end>3316</end>
										<in>0</in>
										<out>120</out>
										<pproTicksIn>0</pproTicksIn>
										<pproTicksOut>1017080064000</pproTicksOut>
										<alphatype>none</alphatype>
										<file id="file-91"/>
										<link>
											<linkclipref>clipitem-412</linkclipref>
											<mediatype>video</mediatype>
											<trackindex>4</trackindex>
											<clipindex>1</clipindex>
										</link>
										<link>
											<linkclipref>clipitem-418</linkclipref>
											<mediatype>audio</mediatype>
											<trackindex>3</trackindex>
											<clipindex>1</clipindex>
											<groupindex>1</groupindex>
										</link>
										<link>
											<linkclipref>clipitem-420</linkclipref>
											<mediatype>audio</mediatype>
											<trackindex>4</trackindex>
											<clipindex>1</clipindex>
											<groupindex>1</groupindex>
										</link>
										<logginginfo>
											<description></description>
											<scene></scene>
											<shottake></shottake>
											<lognote></lognote>
											<good></good>
											<originalvideofilename></originalvideofilename>
											<originalaudiofilename></originalaudiofilename>
										</logginginfo>
										<colorinfo>
											<lut></lut>
											<lut1></lut1>
											<asc_sop></asc_sop>
											<asc_sat></asc_sat>
											<lut2></lut2>
										</colorinfo>
										<labels>
											<label2>Iris</label2>
										</labels>
									</clipitem>
									<clipitem id="clipitem-413">
										<masterclipid>masterclip-117</masterclipid>
										<name>CRAFTY_TRAN01_JL_V01.mov</name>
										<enabled>TRUE</enabled>
										<duration>120</duration>
										<rate>
											<timebase>30</timebase>
											<ntsc>TRUE</ntsc>
										</rate>
										<start>5329</start>
										<end>5449</end>
										<in>0</in>
										<out>120</out>
										<pproTicksIn>0</pproTicksIn>
										<pproTicksOut>1017080064000</pproTicksOut>
										<alphatype>none</alphatype>
										<file id="file-102"/>
										<link>
											<linkclipref>clipitem-413</linkclipref>
											<mediatype>video</mediatype>
											<trackindex>4</trackindex>
											<clipindex>2</clipindex>
										</link>
										<link>
											<linkclipref>clipitem-419</linkclipref>
											<mediatype>audio</mediatype>
											<trackindex>3</trackindex>
											<clipindex>2</clipindex>
											<groupindex>1</groupindex>
										</link>
										<link>
											<linkclipref>clipitem-421</linkclipref>
											<mediatype>audio</mediatype>
											<trackindex>4</trackindex>
											<clipindex>2</clipindex>
											<groupindex>1</groupindex>
										</link>
										<logginginfo>
											<description></description>
											<scene></scene>
											<shottake></shottake>
											<lognote></lognote>
											<good></good>
											<originalvideofilename></originalvideofilename>
											<originalaudiofilename></originalaudiofilename>
										</logginginfo>
										<colorinfo>
											<lut></lut>
											<lut1></lut1>
											<asc_sop></asc_sop>
											<asc_sat></asc_sat>
											<lut2></lut2>
										</colorinfo>
										<labels>
											<label2>Iris</label2>
										</labels>
									</clipitem>
									<enabled>TRUE</enabled>
									<locked>FALSE</locked>
								</track>
							</video>
							<audio>
								<numOutputChannels>2</numOutputChannels>
								<format>
									<samplecharacteristics>
										<depth>16</depth>
										<samplerate>48000</samplerate>
									</samplecharacteristics>
								</format>
								<outputs>
									<group>
										<index>1</index>
										<numchannels>1</numchannels>
										<downmix>0</downmix>
										<channel>
											<index>1</index>
										</channel>
									</group>
									<group>
										<index>2</index>
										<numchannels>1</numchannels>
										<downmix>0</downmix>
										<channel>
											<index>2</index>
										</channel>
									</group>
								</outputs>
								<track TL.SQTrackAudioKeyframeStyle="0" TL.SQTrackShy="0" TL.SQTrackExpandedHeight="130" TL.SQTrackExpanded="0" MZ.TrackTargeted="1" PannerCurrentValue="0.5" PannerIsInverted="true" PannerStartKeyframe="-91445760000000000,0.5,0,0,0,0,0,0" PannerName="Balance" currentExplodedTrackIndex="0" totalExplodedTrackCount="2" premiereTrackType="Stereo">
									<clipitem id="clipitem-414" premiereChannelType="stereo">
										<masterclipid>masterclip-131</masterclipid>
										<name>DIY_SIMPLE&amp;SOUTHERNPORCHDECOR_2</name>
										<enabled>TRUE</enabled>
										<duration>3537</duration>
										<rate>
											<timebase>30</timebase>
											<ntsc>TRUE</ntsc>
										</rate>
										<start>0</start>
										<end>3224</end>
										<in>0</in>
										<out>3224</out>
										<pproTicksIn>0</pproTicksIn>
										<pproTicksOut>27325551052800</pproTicksOut>
										<sequence id="sequence-27"/>
										<sourcetrack>
											<mediatype>audio</mediatype>
											<trackindex>0</trackindex>
										</sourcetrack>
										<link>
											<linkclipref>clipitem-376</linkclipref>
											<mediatype>video</mediatype>
											<trackindex>1</trackindex>
											<clipindex>1</clipindex>
										</link>
										<link>
											<linkclipref>clipitem-414</linkclipref>
											<mediatype>audio</mediatype>
											<trackindex>1</trackindex>
											<clipindex>1</clipindex>
											<groupindex>1</groupindex>
										</link>
										<link>
											<linkclipref>clipitem-416</linkclipref>
											<mediatype>audio</mediatype>
											<trackindex>2</trackindex>
											<clipindex>1</clipindex>
											<groupindex>1</groupindex>
										</link>
										<labels>
											<label2>Forest</label2>
										</labels>
									</clipitem>
									<clipitem id="clipitem-415" premiereChannelType="stereo">
										<masterclipid>masterclip-135</masterclipid>
										<name>ART_SAMEPAINTING,DIFFERENTSTYLES_1</name>
										<enabled>TRUE</enabled>
										<duration>2280</duration>
										<rate>
											<timebase>30</timebase>
											<ntsc>TRUE</ntsc>
										</rate>
										<start>3296</start>
										<end>5360</end>
										<in>0</in>
										<out>2064</out>
										<pproTicksIn>0</pproTicksIn>
										<pproTicksOut>17493777100800</pproTicksOut>
										<sequence id="sequence-28"/>
										<sourcetrack>
											<mediatype>audio</mediatype>
											<trackindex>0</trackindex>
										</sourcetrack>
										<link>
											<linkclipref>clipitem-399</linkclipref>
											<mediatype>video</mediatype>
											<trackindex>1</trackindex>
											<clipindex>2</clipindex>
										</link>
										<link>
											<linkclipref>clipitem-415</linkclipref>
											<mediatype>audio</mediatype>
											<trackindex>1</trackindex>
											<clipindex>2</clipindex>
											<groupindex>1</groupindex>
										</link>
										<link>
											<linkclipref>clipitem-417</linkclipref>
											<mediatype>audio</mediatype>
											<trackindex>2</trackindex>
											<clipindex>2</clipindex>
											<groupindex>1</groupindex>
										</link>
										<labels>
											<label2>Forest</label2>
										</labels>
									</clipitem>
									<enabled>TRUE</enabled>
									<locked>FALSE</locked>
									<outputchannelindex>1</outputchannelindex>
								</track>
								<track TL.SQTrackAudioKeyframeStyle="0" TL.SQTrackShy="0" TL.SQTrackExpandedHeight="130" TL.SQTrackExpanded="0" MZ.TrackTargeted="1" PannerCurrentValue="0.5" PannerIsInverted="true" PannerStartKeyframe="-91445760000000000,0.5,0,0,0,0,0,0" PannerName="Balance" currentExplodedTrackIndex="1" totalExplodedTrackCount="2" premiereTrackType="Stereo">
									<clipitem id="clipitem-416" premiereChannelType="stereo">
										<masterclipid>masterclip-131</masterclipid>
										<name>DIY_SIMPLE&amp;SOUTHERNPORCHDECOR_2</name>
										<enabled>TRUE</enabled>
										<duration>3537</duration>
										<rate>
											<timebase>30</timebase>
											<ntsc>TRUE</ntsc>
										</rate>
										<start>0</start>
										<end>3224</end>
										<in>0</in>
										<out>3224</out>
										<pproTicksIn>0</pproTicksIn>
										<pproTicksOut>27325551052800</pproTicksOut>
										<sequence id="sequence-27"/>
										<sourcetrack>
											<mediatype>audio</mediatype>
											<trackindex>1</trackindex>
										</sourcetrack>
										<link>
											<linkclipref>clipitem-376</linkclipref>
											<mediatype>video</mediatype>
											<trackindex>1</trackindex>
											<clipindex>1</clipindex>
										</link>
										<link>
											<linkclipref>clipitem-414</linkclipref>
											<mediatype>audio</mediatype>
											<trackindex>1</trackindex>
											<clipindex>1</clipindex>
											<groupindex>1</groupindex>
										</link>
										<link>
											<linkclipref>clipitem-416</linkclipref>
											<mediatype>audio</mediatype>
											<trackindex>2</trackindex>
											<clipindex>1</clipindex>
											<groupindex>1</groupindex>
										</link>
										<labels>
											<label2>Forest</label2>
										</labels>
									</clipitem>
									<clipitem id="clipitem-417" premiereChannelType="stereo">
										<masterclipid>masterclip-135</masterclipid>
										<name>ART_SAMEPAINTING,DIFFERENTSTYLES_1</name>
										<enabled>TRUE</enabled>
										<duration>2280</duration>
										<rate>
											<timebase>30</timebase>
											<ntsc>TRUE</ntsc>
										</rate>
										<start>3296</start>
										<end>5360</end>
										<in>0</in>
										<out>2064</out>
										<pproTicksIn>0</pproTicksIn>
										<pproTicksOut>17493777100800</pproTicksOut>
										<sequence id="sequence-28"/>
										<sourcetrack>
											<mediatype>audio</mediatype>
											<trackindex>1</trackindex>
										</sourcetrack>
										<link>
											<linkclipref>clipitem-399</linkclipref>
											<mediatype>video</mediatype>
											<trackindex>1</trackindex>
											<clipindex>2</clipindex>
										</link>
										<link>
											<linkclipref>clipitem-415</linkclipref>
											<mediatype>audio</mediatype>
											<trackindex>1</trackindex>
											<clipindex>2</clipindex>
											<groupindex>1</groupindex>
										</link>
										<link>
											<linkclipref>clipitem-417</linkclipref>
											<mediatype>audio</mediatype>
											<trackindex>2</trackindex>
											<clipindex>2</clipindex>
											<groupindex>1</groupindex>
										</link>
										<labels>
											<label2>Forest</label2>
										</labels>
									</clipitem>
									<enabled>TRUE</enabled>
									<locked>FALSE</locked>
									<outputchannelindex>2</outputchannelindex>
								</track>
								<track TL.SQTrackAudioKeyframeStyle="0" TL.SQTrackShy="0" TL.SQTrackExpandedHeight="130" TL.SQTrackExpanded="0" MZ.TrackTargeted="1" PannerCurrentValue="0.5" PannerIsInverted="true" PannerStartKeyframe="-91445760000000000,0.5,0,0,0,0,0,0" PannerName="Balance" currentExplodedTrackIndex="0" totalExplodedTrackCount="2" premiereTrackType="Stereo">
									<clipitem id="clipitem-418" premiereChannelType="stereo">
										<masterclipid>masterclip-104</masterclipid>
										<name>CRAFTY_TRAN03_JL_V01.mov</name>
										<enabled>TRUE</enabled>
										<duration>120</duration>
										<rate>
											<timebase>30</timebase>
											<ntsc>TRUE</ntsc>
										</rate>
										<start>3196</start>
										<end>3316</end>
										<in>0</in>
										<out>120</out>
										<pproTicksIn>0</pproTicksIn>
										<pproTicksOut>1017080064000</pproTicksOut>
										<file id="file-91"/>
										<sourcetrack>
											<mediatype>audio</mediatype>
											<trackindex>1</trackindex>
										</sourcetrack>
										<link>
											<linkclipref>clipitem-412</linkclipref>
											<mediatype>video</mediatype>
											<trackindex>4</trackindex>
											<clipindex>1</clipindex>
										</link>
										<link>
											<linkclipref>clipitem-418</linkclipref>
											<mediatype>audio</mediatype>
											<trackindex>3</trackindex>
											<clipindex>1</clipindex>
											<groupindex>1</groupindex>
										</link>
										<link>
											<linkclipref>clipitem-420</linkclipref>
											<mediatype>audio</mediatype>
											<trackindex>4</trackindex>
											<clipindex>1</clipindex>
											<groupindex>1</groupindex>
										</link>
										<logginginfo>
											<description></description>
											<scene></scene>
											<shottake></shottake>
											<lognote></lognote>
											<good></good>
											<originalvideofilename></originalvideofilename>
											<originalaudiofilename></originalaudiofilename>
										</logginginfo>
										<colorinfo>
											<lut></lut>
											<lut1></lut1>
											<asc_sop></asc_sop>
											<asc_sat></asc_sat>
											<lut2></lut2>
										</colorinfo>
										<labels>
											<label2>Iris</label2>
										</labels>
									</clipitem>
									<clipitem id="clipitem-419" premiereChannelType="stereo">
										<masterclipid>masterclip-117</masterclipid>
										<name>CRAFTY_TRAN01_JL_V01.mov</name>
										<enabled>TRUE</enabled>
										<duration>120</duration>
										<rate>
											<timebase>30</timebase>
											<ntsc>TRUE</ntsc>
										</rate>
										<start>5329</start>
										<end>5449</end>
										<in>0</in>
										<out>120</out>
										<pproTicksIn>0</pproTicksIn>
										<pproTicksOut>1017080064000</pproTicksOut>
										<file id="file-102"/>
										<sourcetrack>
											<mediatype>audio</mediatype>
											<trackindex>1</trackindex>
										</sourcetrack>
										<link>
											<linkclipref>clipitem-413</linkclipref>
											<mediatype>video</mediatype>
											<trackindex>4</trackindex>
											<clipindex>2</clipindex>
										</link>
										<link>
											<linkclipref>clipitem-419</linkclipref>
											<mediatype>audio</mediatype>
											<trackindex>3</trackindex>
											<clipindex>2</clipindex>
											<groupindex>1</groupindex>
										</link>
										<link>
											<linkclipref>clipitem-421</linkclipref>
											<mediatype>audio</mediatype>
											<trackindex>4</trackindex>
											<clipindex>2</clipindex>
											<groupindex>1</groupindex>
										</link>
										<logginginfo>
											<description></description>
											<scene></scene>
											<shottake></shottake>
											<lognote></lognote>
											<good></good>
											<originalvideofilename></originalvideofilename>
											<originalaudiofilename></originalaudiofilename>
										</logginginfo>
										<colorinfo>
											<lut></lut>
											<lut1></lut1>
											<asc_sop></asc_sop>
											<asc_sat></asc_sat>
											<lut2></lut2>
										</colorinfo>
										<labels>
											<label2>Iris</label2>
										</labels>
									</clipitem>
									<enabled>TRUE</enabled>
									<locked>FALSE</locked>
									<outputchannelindex>1</outputchannelindex>
								</track>
								<track TL.SQTrackAudioKeyframeStyle="0" TL.SQTrackShy="0" TL.SQTrackExpandedHeight="130" TL.SQTrackExpanded="0" MZ.TrackTargeted="1" PannerCurrentValue="0.5" PannerIsInverted="true" PannerStartKeyframe="-91445760000000000,0.5,0,0,0,0,0,0" PannerName="Balance" currentExplodedTrackIndex="1" totalExplodedTrackCount="2" premiereTrackType="Stereo">
									<clipitem id="clipitem-420" premiereChannelType="stereo">
										<masterclipid>masterclip-104</masterclipid>
										<name>CRAFTY_TRAN03_JL_V01.mov</name>
										<enabled>TRUE</enabled>
										<duration>120</duration>
										<rate>
											<timebase>30</timebase>
											<ntsc>TRUE</ntsc>
										</rate>
										<start>3196</start>
										<end>3316</end>
										<in>0</in>
										<out>120</out>
										<pproTicksIn>0</pproTicksIn>
										<pproTicksOut>1017080064000</pproTicksOut>
										<file id="file-91"/>
										<sourcetrack>
											<mediatype>audio</mediatype>
											<trackindex>2</trackindex>
										</sourcetrack>
										<link>
											<linkclipref>clipitem-412</linkclipref>
											<mediatype>video</mediatype>
											<trackindex>4</trackindex>
											<clipindex>1</clipindex>
										</link>
										<link>
											<linkclipref>clipitem-418</linkclipref>
											<mediatype>audio</mediatype>
											<trackindex>3</trackindex>
											<clipindex>1</clipindex>
											<groupindex>1</groupindex>
										</link>
										<link>
											<linkclipref>clipitem-420</linkclipref>
											<mediatype>audio</mediatype>
											<trackindex>4</trackindex>
											<clipindex>1</clipindex>
											<groupindex>1</groupindex>
										</link>
										<logginginfo>
											<description></description>
											<scene></scene>
											<shottake></shottake>
											<lognote></lognote>
											<good></good>
											<originalvideofilename></originalvideofilename>
											<originalaudiofilename></originalaudiofilename>
										</logginginfo>
										<colorinfo>
											<lut></lut>
											<lut1></lut1>
											<asc_sop></asc_sop>
											<asc_sat></asc_sat>
											<lut2></lut2>
										</colorinfo>
										<labels>
											<label2>Iris</label2>
										</labels>
									</clipitem>
									<clipitem id="clipitem-421" premiereChannelType="stereo">
										<masterclipid>masterclip-117</masterclipid>
										<name>CRAFTY_TRAN01_JL_V01.mov</name>
										<enabled>TRUE</enabled>
										<duration>120</duration>
										<rate>
											<timebase>30</timebase>
											<ntsc>TRUE</ntsc>
										</rate>
										<start>5329</start>
										<end>5449</end>
										<in>0</in>
										<out>120</out>
										<pproTicksIn>0</pproTicksIn>
										<pproTicksOut>1017080064000</pproTicksOut>
										<file id="file-102"/>
										<sourcetrack>
											<mediatype>audio</mediatype>
											<trackindex>2</trackindex>
										</sourcetrack>
										<link>
											<linkclipref>clipitem-413</linkclipref>
											<mediatype>video</mediatype>
											<trackindex>4</trackindex>
											<clipindex>2</clipindex>
										</link>
										<link>
											<linkclipref>clipitem-419</linkclipref>
											<mediatype>audio</mediatype>
											<trackindex>3</trackindex>
											<clipindex>2</clipindex>
											<groupindex>1</groupindex>
										</link>
										<link>
											<linkclipref>clipitem-421</linkclipref>
											<mediatype>audio</mediatype>
											<trackindex>4</trackindex>
											<clipindex>2</clipindex>
											<groupindex>1</groupindex>
										</link>
										<logginginfo>
											<description></description>
											<scene></scene>
											<shottake></shottake>
											<lognote></lognote>
											<good></good>
											<originalvideofilename></originalvideofilename>
											<originalaudiofilename></originalaudiofilename>
										</logginginfo>
										<colorinfo>
											<lut></lut>
											<lut1></lut1>
											<asc_sop></asc_sop>
											<asc_sat></asc_sat>
											<lut2></lut2>
										</colorinfo>
										<labels>
											<label2>Iris</label2>
										</labels>
									</clipitem>
									<enabled>TRUE</enabled>
									<locked>FALSE</locked>
									<outputchannelindex>2</outputchannelindex>
								</track>
								<track TL.SQTrackAudioKeyframeStyle="0" TL.SQTrackShy="0" TL.SQTrackExpandedHeight="130" TL.SQTrackExpanded="0" MZ.TrackTargeted="1" PannerCurrentValue="0.5" PannerIsInverted="true" PannerStartKeyframe="-91445760000000000,0.5,0,0,0,0,0,0" PannerName="Balance" currentExplodedTrackIndex="0" totalExplodedTrackCount="2" premiereTrackType="Stereo">
									<enabled>TRUE</enabled>
									<locked>FALSE</locked>
									<outputchannelindex>1</outputchannelindex>
								</track>
								<track TL.SQTrackAudioKeyframeStyle="0" TL.SQTrackShy="0" TL.SQTrackExpandedHeight="130" TL.SQTrackExpanded="0" MZ.TrackTargeted="1" PannerCurrentValue="0.5" PannerIsInverted="true" PannerStartKeyframe="-91445760000000000,0.5,0,0,0,0,0,0" PannerName="Balance" currentExplodedTrackIndex="1" totalExplodedTrackCount="2" premiereTrackType="Stereo">
									<enabled>TRUE</enabled>
									<locked>FALSE</locked>
									<outputchannelindex>2</outputchannelindex>
								</track>
								<track TL.SQTrackAudioKeyframeStyle="0" TL.SQTrackShy="0" TL.SQTrackExpandedHeight="25" TL.SQTrackExpanded="0" MZ.TrackTargeted="0" PannerCurrentValue="0.5" PannerIsInverted="true" PannerStartKeyframe="-91445760000000000,0.5,0,0,0,0,0,0" PannerName="Balance" currentExplodedTrackIndex="0" totalExplodedTrackCount="2" premiereTrackType="Stereo">
									<enabled>TRUE</enabled>
									<locked>FALSE</locked>
									<outputchannelindex>1</outputchannelindex>
								</track>
								<track TL.SQTrackAudioKeyframeStyle="0" TL.SQTrackShy="0" TL.SQTrackExpandedHeight="25" TL.SQTrackExpanded="0" MZ.TrackTargeted="0" PannerCurrentValue="0.5" PannerIsInverted="true" PannerStartKeyframe="-91445760000000000,0.5,0,0,0,0,0,0" PannerName="Balance" currentExplodedTrackIndex="1" totalExplodedTrackCount="2" premiereTrackType="Stereo">
									<enabled>TRUE</enabled>
									<locked>FALSE</locked>
									<outputchannelindex>2</outputchannelindex>
								</track>
							</audio>
						</media>
						<timecode>
							<rate>
								<timebase>30</timebase>
								<ntsc>TRUE</ntsc>
							</rate>
							<string>00;00;00;00</string>
							<frame>0</frame>
							<displayformat>DF</displayformat>
						</timecode>
						<labels>
							<label2>Forest</label2>
						</labels>
						<logginginfo>
							<description></description>
							<scene></scene>
							<shottake></shottake>
							<lognote></lognote>
							<good></good>
							<originalvideofilename></originalvideofilename>
							<originalaudiofilename></originalaudiofilename>
						</logginginfo>
					</sequence>
					<sequence id="sequence-29" TL.SQAudioVisibleBase="0" TL.SQVideoVisibleBase="0" TL.SQVisibleBaseTime="0" TL.SQAVDividerPosition="0.5" TL.SQHideShyTracks="0" TL.SQHeaderWidth="236" TL.SQDataTrackViewControlState="0" Monitor.ProgramZoomOut="43920907430400" Monitor.ProgramZoomIn="0" TL.SQTimePerPixel="0.12968577954305963" AM.TrackVScrollPosition="0" AM.TrackScrollPosition="0" MZ.EditLine="474637363200" MZ.Sequence.PreviewFrameSizeHeight="1080" MZ.Sequence.PreviewFrameSizeWidth="1920" MZ.Sequence.AudioTimeDisplayFormat="200" MZ.Sequence.PreviewRenderingClassID="1061109567" MZ.Sequence.PreviewRenderingPresetCodec="1634755443" MZ.Sequence.PreviewRenderingPresetPath="EncoderPresets/SequencePreview/35d109db-457b-43c1-9452-9cb7be9f121c/QuickTime.epr" MZ.Sequence.PreviewUseMaxRenderQuality="false" MZ.Sequence.PreviewUseMaxBitDepth="false" MZ.Sequence.EditingModeGUID="35d109db-457b-43c1-9452-9cb7be9f121c" MZ.Sequence.VideoTimeDisplayFormat="102" MZ.WorkOutPoint="15239249625600" MZ.WorkInPoint="0" explodedTracks="true">
						<uuid>cddaee9d-8e4a-423a-9627-fa50a01186a9</uuid>
						<duration>5098</duration>
						<rate>
							<timebase>30</timebase>
							<ntsc>TRUE</ntsc>
						</rate>
						<name>ATM_CRAFTY_305</name>
						<media>
							<video>
								<format>
									<samplecharacteristics>
										<rate>
											<timebase>30</timebase>
											<ntsc>TRUE</ntsc>
										</rate>
										<codec>
											<name>Apple ProRes 422</name>
											<appspecificdata>
												<appname>Final Cut Pro</appname>
												<appmanufacturer>Apple Inc.</appmanufacturer>
												<appversion>7.0</appversion>
												<data>
													<qtcodec>
														<codecname>Apple ProRes 422</codecname>
														<codectypename>Apple ProRes 422</codectypename>
														<codectypecode>apcn</codectypecode>
														<codecvendorcode>appl</codecvendorcode>
														<spatialquality>1024</spatialquality>
														<temporalquality>0</temporalquality>
														<keyframerate>0</keyframerate>
														<datarate>0</datarate>
													</qtcodec>
												</data>
											</appspecificdata>
										</codec>
										<width>1920</width>
										<height>1080</height>
										<anamorphic>FALSE</anamorphic>
										<pixelaspectratio>square</pixelaspectratio>
										<fielddominance>none</fielddominance>
										<colordepth>24</colordepth>
									</samplecharacteristics>
								</format>
								<track TL.SQTrackShy="0" TL.SQTrackExpandedHeight="25" TL.SQTrackExpanded="0" MZ.TrackTargeted="1">
									<clipitem id="clipitem-422">
										<masterclipid>masterclip-141</masterclipid>
										<name>DIY_DON'TTALKTOMEUNTILI'VEHADMYCOFFEETABLE_1.5</name>
										<enabled>TRUE</enabled>
										<duration>2963</duration>
										<rate>
											<timebase>30</timebase>
											<ntsc>TRUE</ntsc>
										</rate>
										<start>0</start>
										<end>2574</end>
										<in>0</in>
										<out>2574</out>
										<pproTicksIn>0</pproTicksIn>
										<pproTicksOut>21816367372800</pproTicksOut>
										<sequence id="sequence-30" TL.SQAudioVisibleBase="0" TL.SQVideoVisibleBase="0" TL.SQVisibleBaseTime="0" TL.SQAVDividerPosition="0.5" TL.SQHideShyTracks="0" TL.SQHeaderWidth="236" Monitor.ProgramZoomOut="22155394060800" Monitor.ProgramZoomIn="0" TL.SQTimePerPixel="0.14126867126220785" MZ.EditLine="21392584012800" MZ.Sequence.PreviewFrameSizeHeight="1080" MZ.Sequence.PreviewFrameSizeWidth="1920" MZ.Sequence.AudioTimeDisplayFormat="200" MZ.Sequence.PreviewRenderingClassID="1061109567" MZ.Sequence.PreviewRenderingPresetCodec="1634755443" MZ.Sequence.PreviewRenderingPresetPath="EncoderPresets/SequencePreview/35d109db-457b-43c1-9452-9cb7be9f121c/QuickTime.epr" MZ.Sequence.PreviewUseMaxRenderQuality="false" MZ.Sequence.PreviewUseMaxBitDepth="false" MZ.Sequence.EditingModeGUID="35d109db-457b-43c1-9452-9cb7be9f121c" MZ.Sequence.VideoTimeDisplayFormat="102" MZ.WorkOutPoint="20782335974400" MZ.WorkInPoint="0">
											<duration>2614</duration>
											<rate>
												<timebase>30</timebase>
												<ntsc>TRUE</ntsc>
											</rate>
											<name>DIY_DON'TTALKTOMEUNTILI'VEHADMYCOFFEETABLE_1.5</name>
											<media>
												<video>
													<format>
														<samplecharacteristics>
															<rate>
																<timebase>30</timebase>
																<ntsc>TRUE</ntsc>
															</rate>
															<codec>
																<name>Apple ProRes 422</name>
																<appspecificdata>
																	<appname>Final Cut Pro</appname>
																	<appmanufacturer>Apple Inc.</appmanufacturer>
																	<appversion>7.0</appversion>
																	<data>
																		<qtcodec>
																			<codecname>Apple ProRes 422</codecname>
																			<codectypename>Apple ProRes 422</codectypename>
																			<codectypecode>apcn</codectypecode>
																			<codecvendorcode>appl</codecvendorcode>
																			<spatialquality>1024</spatialquality>
																			<temporalquality>0</temporalquality>
																			<keyframerate>0</keyframerate>
																			<datarate>0</datarate>
																		</qtcodec>
																	</data>
																</appspecificdata>
															</codec>
															<width>1920</width>
															<height>1080</height>
															<anamorphic>FALSE</anamorphic>
															<pixelaspectratio>square</pixelaspectratio>
															<fielddominance>none</fielddominance>
															<colordepth>24</colordepth>
														</samplecharacteristics>
													</format>
													<track TL.SQTrackShy="0" TL.SQTrackExpandedHeight="25" TL.SQTrackExpanded="0" MZ.TrackTargeted="1">
														<clipitem id="clipitem-423">
															<masterclipid>masterclip-142</masterclipid>
															<name>(Refined Nature of Santa Fe)_Restoring Our Outdoor Coffee Table (How To)_Mi2e7kv4PS0_YT.mp4</name>
															<enabled>TRUE</enabled>
															<duration>7519</duration>
															<rate>
																<timebase>30</timebase>
																<ntsc>TRUE</ntsc>
															</rate>
															<start>0</start>
															<end>401</end>
															<in>594</in>
															<out>995</out>
															<pproTicksIn>5034546316800</pproTicksIn>
															<pproTicksOut>8433288864000</pproTicksOut>
															<alphatype>none</alphatype>
															<pixelaspectratio>square</pixelaspectratio>
															<anamorphic>FALSE</anamorphic>
															<file id="file-122">
																<name>(Refined Nature of Santa Fe)_Restoring Our Outdoor Coffee Table (How To)_Mi2e7kv4PS0_YT.mp4</name>
																<pathurl>file://localhost/Volumes/ATM%20JR%202TB/Crafty/2023/06_June/Crafty_6-19-23/3_Raw%20Footage/restore%20coffee%20table/(Refined%20Nature%20of%20Santa%20Fe)_Restoring%20Our%20Outdoor%20Coffee%20Table%20(How%20To)_Mi2e7kv4PS0_YT.mp4</pathurl>
																<rate>
																	<timebase>60</timebase>
																	<ntsc>FALSE</ntsc>
																</rate>
																<duration>15055</duration>
																<timecode>
																	<rate>
																		<timebase>60</timebase>
																		<ntsc>FALSE</ntsc>
																	</rate>
																	<string>00:00:00:00</string>
																	<frame>0</frame>
																	<displayformat>NDF</displayformat>
																</timecode>
																<media>
																	<video>
																		<samplecharacteristics>
																			<rate>
																				<timebase>60</timebase>
																				<ntsc>FALSE</ntsc>
																			</rate>
																			<width>1920</width>
																			<height>1080</height>
																			<anamorphic>FALSE</anamorphic>
																			<pixelaspectratio>square</pixelaspectratio>
																			<fielddominance>none</fielddominance>
																		</samplecharacteristics>
																	</video>
																	<audio>
																		<samplecharacteristics>
																			<depth>16</depth>
																			<samplerate>44100</samplerate>
																		</samplecharacteristics>
																		<channelcount>2</channelcount>
																	</audio>
																</media>
															</file>
															<logginginfo>
																<description></description>
																<scene></scene>
																<shottake></shottake>
																<lognote>https://www.youtube.com/watch?v=Mi2e7kv4PS0</lognote>
																<good></good>
																<originalvideofilename></originalvideofilename>
																<originalaudiofilename></originalaudiofilename>
															</logginginfo>
															<colorinfo>
																<lut></lut>
																<lut1></lut1>
																<asc_sop></asc_sop>
																<asc_sat></asc_sat>
																<lut2></lut2>
															</colorinfo>
															<labels>
																<label2>Iris</label2>
															</labels>
														</clipitem>
														<clipitem id="clipitem-424">
															<masterclipid>masterclip-142</masterclipid>
															<name>(Refined Nature of Santa Fe)_Restoring Our Outdoor Coffee Table (How To)_Mi2e7kv4PS0_YT.mp4</name>
															<enabled>TRUE</enabled>
															<duration>7519</duration>
															<rate>
																<timebase>30</timebase>
																<ntsc>TRUE</ntsc>
															</rate>
															<start>401</start>
															<end>1338</end>
															<in>2585</in>
															<out>3522</out>
															<pproTicksIn>21909599712000</pproTicksIn>
															<pproTicksOut>29851299878400</pproTicksOut>
															<alphatype>none</alphatype>
															<file id="file-122"/>
															<logginginfo>
																<description></description>
																<scene></scene>
																<shottake></shottake>
																<lognote>https://www.youtube.com/watch?v=Mi2e7kv4PS0</lognote>
																<good></good>
																<originalvideofilename></originalvideofilename>
																<originalaudiofilename></originalaudiofilename>
															</logginginfo>
															<colorinfo>
																<lut></lut>
																<lut1></lut1>
																<asc_sop></asc_sop>
																<asc_sat></asc_sat>
																<lut2></lut2>
															</colorinfo>
															<labels>
																<label2>Iris</label2>
															</labels>
														</clipitem>
														<clipitem id="clipitem-425">
															<masterclipid>masterclip-142</masterclipid>
															<name>(Refined Nature of Santa Fe)_Restoring Our Outdoor Coffee Table (How To)_Mi2e7kv4PS0_YT.mp4</name>
															<enabled>TRUE</enabled>
															<duration>7519</duration>
															<rate>
																<timebase>30</timebase>
																<ntsc>TRUE</ntsc>
															</rate>
															<start>1338</start>
															<end>1672</end>
															<in>5007</in>
															<out>5341</out>
															<pproTicksIn>42437665670400</pproTicksIn>
															<pproTicksOut>45268538515200</pproTicksOut>
															<alphatype>none</alphatype>
															<file id="file-122"/>
															<logginginfo>
																<description></description>
																<scene></scene>
																<shottake></shottake>
																<lognote>https://www.youtube.com/watch?v=Mi2e7kv4PS0</lognote>
																<good></good>
																<originalvideofilename></originalvideofilename>
																<originalaudiofilename></originalaudiofilename>
															</logginginfo>
															<colorinfo>
																<lut></lut>
																<lut1></lut1>
																<asc_sop></asc_sop>
																<asc_sat></asc_sat>
																<lut2></lut2>
															</colorinfo>
															<labels>
																<label2>Iris</label2>
															</labels>
														</clipitem>
														<clipitem id="clipitem-426">
															<masterclipid>masterclip-142</masterclipid>
															<name>(Refined Nature of Santa Fe)_Restoring Our Outdoor Coffee Table (How To)_Mi2e7kv4PS0_YT.mp4</name>
															<enabled>TRUE</enabled>
															<duration>7519</duration>
															<rate>
																<timebase>30</timebase>
																<ntsc>TRUE</ntsc>
															</rate>
															<start>1672</start>
															<end>2614</end>
															<in>5888</in>
															<out>6830</out>
															<pproTicksIn>49904728473600</pproTicksIn>
															<pproTicksOut>57888806976000</pproTicksOut>
															<alphatype>none</alphatype>
															<file id="file-122"/>
															<logginginfo>
																<description></description>
																<scene></scene>
																<shottake></shottake>
																<lognote>https://www.youtube.com/watch?v=Mi2e7kv4PS0</lognote>
																<good></good>
																<originalvideofilename></originalvideofilename>
																<originalaudiofilename></originalaudiofilename>
															</logginginfo>
															<colorinfo>
																<lut></lut>
																<lut1></lut1>
																<asc_sop></asc_sop>
																<asc_sat></asc_sat>
																<lut2></lut2>
															</colorinfo>
															<labels>
																<label2>Iris</label2>
															</labels>
														</clipitem>
														<enabled>TRUE</enabled>
														<locked>FALSE</locked>
													</track>
													<track TL.SQTrackShy="0" TL.SQTrackExpandedHeight="25" TL.SQTrackExpanded="0" MZ.TrackTargeted="0">
														<clipitem id="clipitem-427">
															<masterclipid>masterclip-143</masterclipid>
															<name>refined nature of sante fe</name>
															<enabled>TRUE</enabled>
															<duration>5844</duration>
															<rate>
																<timebase>30</timebase>
																<ntsc>TRUE</ntsc>
															</rate>
															<start>0</start>
															<end>2614</end>
															<in>0</in>
															<out>2614</out>
															<pproTicksIn>0</pproTicksIn>
															<pproTicksOut>22155394060800</pproTicksOut>
															<alphatype>straight</alphatype>
															<pixelaspectratio>square</pixelaspectratio>
															<anamorphic>FALSE</anamorphic>
															<file id="file-123">
																<name>1080/AE Attribution.aep</name>
																<pathurl>file://localhost/Volumes/ATM%20JR%202TB/Crafty/Master%20Assets%20/Attribution/AE%20Attribution.aep</pathurl>
																<rate>
																	<timebase>30</timebase>
																	<ntsc>TRUE</ntsc>
																</rate>
																<duration>5844</duration>
																<timecode>
																	<rate>
																		<timebase>30</timebase>
																		<ntsc>TRUE</ntsc>
																	</rate>
																	<string>00;00;00;00</string>
																	<frame>0</frame>
																	<displayformat>DF</displayformat>
																</timecode>
																<media>
																	<video>
																		<samplecharacteristics>
																			<rate>
																				<timebase>30</timebase>
																				<ntsc>TRUE</ntsc>
																			</rate>
																			<width>1920</width>
																			<height>1080</height>
																			<anamorphic>FALSE</anamorphic>
																			<pixelaspectratio>square</pixelaspectratio>
																			<fielddominance>lower</fielddominance>
																		</samplecharacteristics>
																	</video>
																</media>
															</file>
															<logginginfo>
																<description></description>
																<scene></scene>
																<shottake></shottake>
																<lognote></lognote>
																<good></good>
																<originalvideofilename></originalvideofilename>
																<originalaudiofilename></originalaudiofilename>
															</logginginfo>
															<colorinfo>
																<lut></lut>
																<lut1></lut1>
																<asc_sop></asc_sop>
																<asc_sat></asc_sat>
																<lut2></lut2>
															</colorinfo>
															<labels>
																<label2>Rose</label2>
															</labels>
														</clipitem>
														<enabled>TRUE</enabled>
														<locked>FALSE</locked>
													</track>
												</video>
												<audio>
													<numOutputChannels>2</numOutputChannels>
													<format>
														<samplecharacteristics>
															<depth>16</depth>
															<samplerate>48000</samplerate>
														</samplecharacteristics>
													</format>
													<outputs>
														<group>
															<index>1</index>
															<numchannels>1</numchannels>
															<downmix>0</downmix>
															<channel>
																<index>1</index>
															</channel>
														</group>
														<group>
															<index>2</index>
															<numchannels>1</numchannels>
															<downmix>0</downmix>
															<channel>
																<index>2</index>
															</channel>
														</group>
													</outputs>
													<track TL.SQTrackAudioKeyframeStyle="0" TL.SQTrackShy="0" TL.SQTrackExpandedHeight="25" TL.SQTrackExpanded="0" MZ.TrackTargeted="1" PannerCurrentValue="0.5" PannerIsInverted="true" PannerStartKeyframe="-91445760000000000,0.5,0,0,0,0,0,0" PannerName="Balance" currentExplodedTrackIndex="0" totalExplodedTrackCount="2" premiereTrackType="Stereo">
														<clipitem id="clipitem-428" premiereChannelType="stereo">
															<masterclipid>masterclip-144</masterclipid>
															<name>ES_Neopolitin - Guustavv.wav</name>
															<enabled>TRUE</enabled>
															<duration>4449</duration>
															<rate>
																<timebase>30</timebase>
																<ntsc>TRUE</ntsc>
															</rate>
															<start>0</start>
															<end>-1</end>
															<in>0</in>
															<out>2567</out>
															<pproTicksIn>0</pproTicksIn>
															<pproTicksOut>21757037702400</pproTicksOut>
															<file id="file-124">
																<name>ES_Neopolitin - Guustavv.wav</name>
																<pathurl>file://localhost/Volumes/ATM%20JR%202TB/Crafty/2023/06_June/Crafty_6-19-23/5_Music/ES_Neopolitin%20-%20Guustavv.wav</pathurl>
																<rate>
																	<timebase>30</timebase>
																	<ntsc>TRUE</ntsc>
																</rate>
																<duration>4449</duration>
																<timecode>
																	<rate>
																		<timebase>30</timebase>
																		<ntsc>TRUE</ntsc>
																	</rate>
																	<string>01;36;32;00</string>
																	<frame>173586</frame>
																	<displayformat>DF</displayformat>
																</timecode>
																<media>
																	<audio>
																		<samplecharacteristics>
																			<depth>16</depth>
																			<samplerate>48000</samplerate>
																		</samplecharacteristics>
																		<channelcount>2</channelcount>
																	</audio>
																</media>
															</file>
															<sourcetrack>
																<mediatype>audio</mediatype>
																<trackindex>1</trackindex>
															</sourcetrack>
															<filter>
																<effect>
																	<name>Gain</name>
																	<effectid>{61756678, 4761696e, 4b657947}</effectid>
																	<effecttype>filter</effecttype>
																	<mediatype>audio</mediatype>
																	<parameter authoringApp="PremierePro">
																		<parameterid>Gain(dB)</parameterid>
																		<name>Gain(dB)</name>
																		<valuemin>-96</valuemin>
																		<valuemax>96</valuemax>
																		<value>-8</value>
																	</parameter>
																</effect>
															</filter>
															<link>
																<linkclipref>clipitem-428</linkclipref>
																<mediatype>audio</mediatype>
																<trackindex>1</trackindex>
																<clipindex>1</clipindex>
																<groupindex>1</groupindex>
															</link>
															<link>
																<linkclipref>clipitem-429</linkclipref>
																<mediatype>audio</mediatype>
																<trackindex>2</trackindex>
																<clipindex>1</clipindex>
																<groupindex>1</groupindex>
															</link>
															<logginginfo>
																<description></description>
																<scene></scene>
																<shottake></shottake>
																<lognote></lognote>
																<good></good>
																<originalvideofilename></originalvideofilename>
																<originalaudiofilename></originalaudiofilename>
															</logginginfo>
															<colorinfo>
																<lut></lut>
																<lut1></lut1>
																<asc_sop></asc_sop>
																<asc_sat></asc_sat>
																<lut2></lut2>
															</colorinfo>
															<labels>
																<label2>Caribbean</label2>
															</labels>
														</clipitem>
														<transitionitem>
															<start>2477</start>
															<end>2567</end>
															<pproTicksIn>20994227654400</pproTicksIn>
															<pproTicksOut>21757037702400</pproTicksOut>
															<alignment>end-black</alignment>
															<cutPointTicks>762810048000</cutPointTicks>
															<rate>
																<timebase>30</timebase>
																<ntsc>TRUE</ntsc>
															</rate>
															<effect>
																<name>Cross Fade (+3dB)</name>
																<effectid>KGAudioTransCrossFade3dB</effectid>
																<effecttype>transition</effecttype>
																<mediatype>audio</mediatype>
																<wipecode>0</wipecode>
																<wipeaccuracy>100</wipeaccuracy>
																<startratio>0</startratio>
																<endratio>1</endratio>
																<reverse>FALSE</reverse>
															</effect>
														</transitionitem>
														<enabled>TRUE</enabled>
														<locked>FALSE</locked>
														<outputchannelindex>1</outputchannelindex>
													</track>
													<track TL.SQTrackAudioKeyframeStyle="0" TL.SQTrackShy="0" TL.SQTrackExpandedHeight="25" TL.SQTrackExpanded="0" MZ.TrackTargeted="1" PannerCurrentValue="0.5" PannerIsInverted="true" PannerStartKeyframe="-91445760000000000,0.5,0,0,0,0,0,0" PannerName="Balance" currentExplodedTrackIndex="1" totalExplodedTrackCount="2" premiereTrackType="Stereo">
														<clipitem id="clipitem-429" premiereChannelType="stereo">
															<masterclipid>masterclip-144</masterclipid>
															<name>ES_Neopolitin - Guustavv.wav</name>
															<enabled>TRUE</enabled>
															<duration>4449</duration>
															<rate>
																<timebase>30</timebase>
																<ntsc>TRUE</ntsc>
															</rate>
															<start>0</start>
															<end>-1</end>
															<in>0</in>
															<out>2567</out>
															<pproTicksIn>0</pproTicksIn>
															<pproTicksOut>21757037702400</pproTicksOut>
															<file id="file-124"/>
															<sourcetrack>
																<mediatype>audio</mediatype>
																<trackindex>2</trackindex>
															</sourcetrack>
															<filter>
																<effect>
																	<name>Gain</name>
																	<effectid>{61756678, 4761696e, 4b657947}</effectid>
																	<effecttype>filter</effecttype>
																	<mediatype>audio</mediatype>
																	<parameter authoringApp="PremierePro">
																		<parameterid>Gain(dB)</parameterid>
																		<name>Gain(dB)</name>
																		<valuemin>-96</valuemin>
																		<valuemax>96</valuemax>
																		<value>-8</value>
																	</parameter>
																</effect>
															</filter>
															<link>
																<linkclipref>clipitem-428</linkclipref>
																<mediatype>audio</mediatype>
																<trackindex>1</trackindex>
																<clipindex>1</clipindex>
																<groupindex>1</groupindex>
															</link>
															<link>
																<linkclipref>clipitem-429</linkclipref>
																<mediatype>audio</mediatype>
																<trackindex>2</trackindex>
																<clipindex>1</clipindex>
																<groupindex>1</groupindex>
															</link>
															<logginginfo>
																<description></description>
																<scene></scene>
																<shottake></shottake>
																<lognote></lognote>
																<good></good>
																<originalvideofilename></originalvideofilename>
																<originalaudiofilename></originalaudiofilename>
															</logginginfo>
															<colorinfo>
																<lut></lut>
																<lut1></lut1>
																<asc_sop></asc_sop>
																<asc_sat></asc_sat>
																<lut2></lut2>
															</colorinfo>
															<labels>
																<label2>Caribbean</label2>
															</labels>
														</clipitem>
														<transitionitem>
															<start>2477</start>
															<end>2567</end>
															<pproTicksIn>20994227654400</pproTicksIn>
															<pproTicksOut>21757037702400</pproTicksOut>
															<alignment>end-black</alignment>
															<cutPointTicks>762810048000</cutPointTicks>
															<rate>
																<timebase>30</timebase>
																<ntsc>TRUE</ntsc>
															</rate>
															<effect>
																<name>Cross Fade (+3dB)</name>
																<effectid>KGAudioTransCrossFade3dB</effectid>
																<effecttype>transition</effecttype>
																<mediatype>audio</mediatype>
																<wipecode>0</wipecode>
																<wipeaccuracy>100</wipeaccuracy>
																<startratio>0</startratio>
																<endratio>1</endratio>
																<reverse>FALSE</reverse>
															</effect>
														</transitionitem>
														<enabled>TRUE</enabled>
														<locked>FALSE</locked>
														<outputchannelindex>2</outputchannelindex>
													</track>
												</audio>
											</media>
											<timecode>
												<rate>
													<timebase>30</timebase>
													<ntsc>TRUE</ntsc>
												</rate>
												<string>00;00;00;00</string>
												<frame>0</frame>
												<displayformat>DF</displayformat>
											</timecode>
											<logginginfo>
												<description></description>
												<scene></scene>
												<shottake></shottake>
												<lognote></lognote>
												<good></good>
												<originalvideofilename></originalvideofilename>
												<originalaudiofilename></originalaudiofilename>
											</logginginfo>
										</sequence>
										<link>
											<linkclipref>clipitem-422</linkclipref>
											<mediatype>video</mediatype>
											<trackindex>1</trackindex>
											<clipindex>1</clipindex>
										</link>
										<link>
											<linkclipref>clipitem-446</linkclipref>
											<mediatype>audio</mediatype>
											<trackindex>1</trackindex>
											<clipindex>1</clipindex>
											<groupindex>1</groupindex>
										</link>
										<link>
											<linkclipref>clipitem-448</linkclipref>
											<mediatype>audio</mediatype>
											<trackindex>2</trackindex>
											<clipindex>1</clipindex>
											<groupindex>1</groupindex>
										</link>
										<labels>
											<label2>Forest</label2>
										</labels>
									</clipitem>
									<clipitem id="clipitem-430">
										<masterclipid>masterclip-145</masterclipid>
										<name>ART_MASKONMASKOFF_1.5</name>
										<enabled>TRUE</enabled>
										<duration>2441</duration>
										<rate>
											<timebase>30</timebase>
											<ntsc>TRUE</ntsc>
										</rate>
										<start>2657</start>
										<end>5098</end>
										<in>0</in>
										<out>2441</out>
										<pproTicksIn>0</pproTicksIn>
										<pproTicksOut>20689103635200</pproTicksOut>
										<sequence id="sequence-31" TL.SQAudioVisibleBase="0" TL.SQVideoVisibleBase="0" TL.SQVisibleBaseTime="10733321906349" TL.SQAVDividerPosition="0.5" TL.SQHideShyTracks="0" TL.SQHeaderWidth="236" TL.SQDataTrackViewControlState="0" Monitor.ProgramZoomOut="20689103635200" Monitor.ProgramZoomIn="0" TL.SQTimePerPixel="0.06375204958944973" MZ.EditLine="20451784953600" MZ.Sequence.PreviewFrameSizeHeight="1080" MZ.Sequence.PreviewFrameSizeWidth="1920" MZ.Sequence.AudioTimeDisplayFormat="200" MZ.Sequence.PreviewRenderingClassID="1061109567" MZ.Sequence.PreviewRenderingPresetCodec="1634755443" MZ.Sequence.PreviewRenderingPresetPath="EncoderPresets/SequencePreview/35d109db-457b-43c1-9452-9cb7be9f121c/QuickTime.epr" MZ.Sequence.PreviewUseMaxRenderQuality="false" MZ.Sequence.PreviewUseMaxBitDepth="false" MZ.Sequence.EditingModeGUID="35d109db-457b-43c1-9452-9cb7be9f121c" MZ.Sequence.VideoTimeDisplayFormat="102" MZ.WorkOutPoint="20019525926400" MZ.WorkInPoint="0">
											<duration>2441</duration>
											<rate>
												<timebase>30</timebase>
												<ntsc>TRUE</ntsc>
											</rate>
											<name>ART_MASKONMASKOFF_1.5</name>
											<media>
												<video>
													<format>
														<samplecharacteristics>
															<rate>
																<timebase>30</timebase>
																<ntsc>TRUE</ntsc>
															</rate>
															<codec>
																<name>Apple ProRes 422</name>
																<appspecificdata>
																	<appname>Final Cut Pro</appname>
																	<appmanufacturer>Apple Inc.</appmanufacturer>
																	<appversion>7.0</appversion>
																	<data>
																		<qtcodec>
																			<codecname>Apple ProRes 422</codecname>
																			<codectypename>Apple ProRes 422</codectypename>
																			<codectypecode>apcn</codectypecode>
																			<codecvendorcode>appl</codecvendorcode>
																			<spatialquality>1024</spatialquality>
																			<temporalquality>0</temporalquality>
																			<keyframerate>0</keyframerate>
																			<datarate>0</datarate>
																		</qtcodec>
																	</data>
																</appspecificdata>
															</codec>
															<width>1920</width>
															<height>1080</height>
															<anamorphic>FALSE</anamorphic>
															<pixelaspectratio>square</pixelaspectratio>
															<fielddominance>none</fielddominance>
															<colordepth>24</colordepth>
														</samplecharacteristics>
													</format>
													<track TL.SQTrackShy="0" TL.SQTrackExpandedHeight="25" TL.SQTrackExpanded="0" MZ.TrackTargeted="1">
														<clipitem id="clipitem-431">
															<masterclipid>masterclip-146</masterclipid>
															<name>(ADCArtAttack)_I customised a 3D PRINTED FACE... it was AMAZING_gjah6uAZnb0_YT.mp4</name>
															<enabled>TRUE</enabled>
															<duration>14660</duration>
															<rate>
																<timebase>30</timebase>
																<ntsc>TRUE</ntsc>
															</rate>
															<start>0</start>
															<end>60</end>
															<in>6906</in>
															<out>6966</out>
															<pproTicksIn>58532957683200</pproTicksIn>
															<pproTicksOut>59041497715200</pproTicksOut>
															<alphatype>none</alphatype>
															<pixelaspectratio>square</pixelaspectratio>
															<anamorphic>FALSE</anamorphic>
															<file id="file-125">
																<name>(ADCArtAttack)_I customised a 3D PRINTED FACE... it was AMAZING_gjah6uAZnb0_YT.mp4</name>
																<pathurl>file://localhost/Volumes/ATM%20JR%202TB/Crafty/2023/06_June/Crafty_6-19-23/3_Raw%20Footage/mask%20painting/(ADCArtAttack)_I%20customised%20a%203D%20PRINTED%20FACE...%20it%20was%20AMAZING_gjah6uAZnb0_YT.mp4</pathurl>
																<rate>
																	<timebase>50</timebase>
																	<ntsc>FALSE</ntsc>
																</rate>
																<duration>24458</duration>
																<timecode>
																	<rate>
																		<timebase>50</timebase>
																		<ntsc>FALSE</ntsc>
																	</rate>
																	<string>00:00:00:00</string>
																	<frame>0</frame>
																	<displayformat>NDF</displayformat>
																</timecode>
																<media>
																	<video>
																		<samplecharacteristics>
																			<rate>
																				<timebase>50</timebase>
																				<ntsc>FALSE</ntsc>
																			</rate>
																			<width>1920</width>
																			<height>1080</height>
																			<anamorphic>FALSE</anamorphic>
																			<pixelaspectratio>square</pixelaspectratio>
																			<fielddominance>none</fielddominance>
																		</samplecharacteristics>
																	</video>
																	<audio>
																		<samplecharacteristics>
																			<depth>16</depth>
																			<samplerate>44100</samplerate>
																		</samplecharacteristics>
																		<channelcount>2</channelcount>
																	</audio>
																</media>
															</file>
															<logginginfo>
																<description></description>
																<scene></scene>
																<shottake></shottake>
																<lognote>https://www.youtube.com/watch?v=gjah6uAZnb0</lognote>
																<good></good>
																<originalvideofilename></originalvideofilename>
																<originalaudiofilename></originalaudiofilename>
															</logginginfo>
															<colorinfo>
																<lut></lut>
																<lut1></lut1>
																<asc_sop></asc_sop>
																<asc_sat></asc_sat>
																<lut2></lut2>
															</colorinfo>
															<labels>
																<label2>Iris</label2>
															</labels>
														</clipitem>
														<clipitem id="clipitem-432">
															<masterclipid>masterclip-146</masterclipid>
															<name>(ADCArtAttack)_I customised a 3D PRINTED FACE... it was AMAZING_gjah6uAZnb0_YT.mp4</name>
															<enabled>TRUE</enabled>
															<duration>14660</duration>
															<rate>
																<timebase>30</timebase>
																<ntsc>TRUE</ntsc>
															</rate>
															<start>60</start>
															<end>294</end>
															<in>7862</in>
															<out>8096</out>
															<pproTicksIn>66635695526400</pproTicksIn>
															<pproTicksOut>68619001651200</pproTicksOut>
															<alphatype>none</alphatype>
															<file id="file-125"/>
															<logginginfo>
																<description></description>
																<scene></scene>
																<shottake></shottake>
																<lognote>https://www.youtube.com/watch?v=gjah6uAZnb0</lognote>
																<good></good>
																<originalvideofilename></originalvideofilename>
																<originalaudiofilename></originalaudiofilename>
															</logginginfo>
															<colorinfo>
																<lut></lut>
																<lut1></lut1>
																<asc_sop></asc_sop>
																<asc_sat></asc_sat>
																<lut2></lut2>
															</colorinfo>
															<labels>
																<label2>Iris</label2>
															</labels>
														</clipitem>
														<clipitem id="clipitem-433">
															<masterclipid>masterclip-146</masterclipid>
															<name>(ADCArtAttack)_I customised a 3D PRINTED FACE... it was AMAZING_gjah6uAZnb0_YT.mp4</name>
															<enabled>TRUE</enabled>
															<duration>14660</duration>
															<rate>
																<timebase>30</timebase>
																<ntsc>TRUE</ntsc>
															</rate>
															<start>294</start>
															<end>446</end>
															<in>8738</in>
															<out>8890</out>
															<pproTicksIn>74060379993600</pproTicksIn>
															<pproTicksOut>75348681408000</pproTicksOut>
															<alphatype>none</alphatype>
															<file id="file-125"/>
															<logginginfo>
																<description></description>
																<scene></scene>
																<shottake></shottake>
																<lognote>https://www.youtube.com/watch?v=gjah6uAZnb0</lognote>
																<good></good>
																<originalvideofilename></originalvideofilename>
																<originalaudiofilename></originalaudiofilename>
															</logginginfo>
															<colorinfo>
																<lut></lut>
																<lut1></lut1>
																<asc_sop></asc_sop>
																<asc_sat></asc_sat>
																<lut2></lut2>
															</colorinfo>
															<labels>
																<label2>Iris</label2>
															</labels>
														</clipitem>
														<clipitem id="clipitem-434">
															<masterclipid>masterclip-146</masterclipid>
															<name>(ADCArtAttack)_I customised a 3D PRINTED FACE... it was AMAZING_gjah6uAZnb0_YT.mp4</name>
															<enabled>TRUE</enabled>
															<duration>14660</duration>
															<rate>
																<timebase>30</timebase>
																<ntsc>TRUE</ntsc>
															</rate>
															<start>446</start>
															<end>761</end>
															<in>9233</in>
															<out>9548</out>
															<pproTicksIn>78255835257600</pproTicksIn>
															<pproTicksOut>80925670425600</pproTicksOut>
															<alphatype>none</alphatype>
															<file id="file-125"/>
															<logginginfo>
																<description></description>
																<scene></scene>
																<shottake></shottake>
																<lognote>https://www.youtube.com/watch?v=gjah6uAZnb0</lognote>
																<good></good>
																<originalvideofilename></originalvideofilename>
																<originalaudiofilename></originalaudiofilename>
															</logginginfo>
															<colorinfo>
																<lut></lut>
																<lut1></lut1>
																<asc_sop></asc_sop>
																<asc_sat></asc_sat>
																<lut2></lut2>
															</colorinfo>
															<labels>
																<label2>Iris</label2>
															</labels>
														</clipitem>
														<clipitem id="clipitem-435">
															<masterclipid>masterclip-146</masterclipid>
															<name>(ADCArtAttack)_I customised a 3D PRINTED FACE... it was AMAZING_gjah6uAZnb0_YT.mp4</name>
															<enabled>TRUE</enabled>
															<duration>14660</duration>
															<rate>
																<timebase>30</timebase>
																<ntsc>TRUE</ntsc>
															</rate>
															<start>761</start>
															<end>1337</end>
															<in>10088</in>
															<out>10664</out>
															<pproTicksIn>85502530713600</pproTicksIn>
															<pproTicksOut>90384515020800</pproTicksOut>
															<alphatype>none</alphatype>
															<file id="file-125"/>
															<logginginfo>
																<description></description>
																<scene></scene>
																<shottake></shottake>
																<lognote>https://www.youtube.com/watch?v=gjah6uAZnb0</lognote>
																<good></good>
																<originalvideofilename></originalvideofilename>
																<originalaudiofilename></originalaudiofilename>
															</logginginfo>
															<colorinfo>
																<lut></lut>
																<lut1></lut1>
																<asc_sop></asc_sop>
																<asc_sat></asc_sat>
																<lut2></lut2>
															</colorinfo>
															<labels>
																<label2>Iris</label2>
															</labels>
														</clipitem>
														<clipitem id="clipitem-436">
															<masterclipid>masterclip-146</masterclipid>
															<name>(ADCArtAttack)_I customised a 3D PRINTED FACE... it was AMAZING_gjah6uAZnb0_YT.mp4</name>
															<enabled>TRUE</enabled>
															<duration>14660</duration>
															<rate>
																<timebase>30</timebase>
																<ntsc>TRUE</ntsc>
															</rate>
															<start>1337</start>
															<end>1713</end>
															<in>11225</in>
															<out>11601</out>
															<pproTicksIn>95139364320000</pproTicksIn>
															<pproTicksOut>98326215187200</pproTicksOut>
															<alphatype>none</alphatype>
															<file id="file-125"/>
															<logginginfo>
																<description></description>
																<scene></scene>
																<shottake></shottake>
																<lognote>https://www.youtube.com/watch?v=gjah6uAZnb0</lognote>
																<good></good>
																<originalvideofilename></originalvideofilename>
																<originalaudiofilename></originalaudiofilename>
															</logginginfo>
															<colorinfo>
																<lut></lut>
																<lut1></lut1>
																<asc_sop></asc_sop>
																<asc_sat></asc_sat>
																<lut2></lut2>
															</colorinfo>
															<labels>
																<label2>Iris</label2>
															</labels>
														</clipitem>
														<clipitem id="clipitem-437">
															<masterclipid>masterclip-146</masterclipid>
															<name>(ADCArtAttack)_I customised a 3D PRINTED FACE... it was AMAZING_gjah6uAZnb0_YT.mp4</name>
															<enabled>TRUE</enabled>
															<duration>14660</duration>
															<rate>
																<timebase>30</timebase>
																<ntsc>TRUE</ntsc>
															</rate>
															<start>1713</start>
															<end>2441</end>
															<in>11862</in>
															<out>12590</out>
															<pproTicksIn>100538364326400</pproTicksIn>
															<pproTicksOut>106708650048000</pproTicksOut>
															<alphatype>none</alphatype>
															<file id="file-125"/>
															<logginginfo>
																<description></description>
																<scene></scene>
																<shottake></shottake>
																<lognote>https://www.youtube.com/watch?v=gjah6uAZnb0</lognote>
																<good></good>
																<originalvideofilename></originalvideofilename>
																<originalaudiofilename></originalaudiofilename>
															</logginginfo>
															<colorinfo>
																<lut></lut>
																<lut1></lut1>
																<asc_sop></asc_sop>
																<asc_sat></asc_sat>
																<lut2></lut2>
															</colorinfo>
															<labels>
																<label2>Iris</label2>
															</labels>
														</clipitem>
														<enabled>TRUE</enabled>
														<locked>FALSE</locked>
													</track>
													<track TL.SQTrackShy="0" TL.SQTrackExpandedHeight="25" TL.SQTrackExpanded="0" MZ.TrackTargeted="0">
														<clipitem id="clipitem-438">
															<masterclipid>masterclip-147</masterclipid>
															<name>ADCARTATTACK</name>
															<enabled>TRUE</enabled>
															<duration>5844</duration>
															<rate>
																<timebase>30</timebase>
																<ntsc>TRUE</ntsc>
															</rate>
															<start>0</start>
															<end>2441</end>
															<in>0</in>
															<out>2441</out>
															<pproTicksIn>0</pproTicksIn>
															<pproTicksOut>20689103635200</pproTicksOut>
															<alphatype>straight</alphatype>
															<pixelaspectratio>square</pixelaspectratio>
															<anamorphic>FALSE</anamorphic>
															<file id="file-126">
																<name>1080/AE Attribution.aep</name>
																<pathurl>file://localhost/Volumes/ATM%20JR%202TB/Crafty/Master%20Assets%20/Attribution/AE%20Attribution.aep</pathurl>
																<rate>
																	<timebase>30</timebase>
																	<ntsc>TRUE</ntsc>
																</rate>
																<duration>5844</duration>
																<timecode>
																	<rate>
																		<timebase>30</timebase>
																		<ntsc>TRUE</ntsc>
																	</rate>
																	<string>00;00;00;00</string>
																	<frame>0</frame>
																	<displayformat>DF</displayformat>
																</timecode>
																<media>
																	<video>
																		<samplecharacteristics>
																			<rate>
																				<timebase>30</timebase>
																				<ntsc>TRUE</ntsc>
																			</rate>
																			<width>1920</width>
																			<height>1080</height>
																			<anamorphic>FALSE</anamorphic>
																			<pixelaspectratio>square</pixelaspectratio>
																			<fielddominance>lower</fielddominance>
																		</samplecharacteristics>
																	</video>
																</media>
															</file>
															<logginginfo>
																<description></description>
																<scene></scene>
																<shottake></shottake>
																<lognote></lognote>
																<good></good>
																<originalvideofilename></originalvideofilename>
																<originalaudiofilename></originalaudiofilename>
															</logginginfo>
															<colorinfo>
																<lut></lut>
																<lut1></lut1>
																<asc_sop></asc_sop>
																<asc_sat></asc_sat>
																<lut2></lut2>
															</colorinfo>
															<labels>
																<label2>Rose</label2>
															</labels>
														</clipitem>
														<enabled>TRUE</enabled>
														<locked>FALSE</locked>
													</track>
													<track TL.SQTrackShy="0" TL.SQTrackExpandedHeight="25" TL.SQTrackExpanded="0" MZ.TrackTargeted="0">
														<enabled>TRUE</enabled>
														<locked>FALSE</locked>
													</track>
												</video>
												<audio>
													<numOutputChannels>2</numOutputChannels>
													<format>
														<samplecharacteristics>
															<depth>16</depth>
															<samplerate>48000</samplerate>
														</samplecharacteristics>
													</format>
													<outputs>
														<group>
															<index>1</index>
															<numchannels>1</numchannels>
															<downmix>0</downmix>
															<channel>
																<index>1</index>
															</channel>
														</group>
														<group>
															<index>2</index>
															<numchannels>1</numchannels>
															<downmix>0</downmix>
															<channel>
																<index>2</index>
															</channel>
														</group>
													</outputs>
													<track TL.SQTrackAudioKeyframeStyle="0" TL.SQTrackShy="0" TL.SQTrackExpandedHeight="25" TL.SQTrackExpanded="0" MZ.TrackTargeted="1" PannerCurrentValue="0.5" PannerIsInverted="true" PannerStartKeyframe="-91445760000000000,0.5,0,0,0,0,0,0" PannerName="Balance" currentExplodedTrackIndex="0" totalExplodedTrackCount="2" premiereTrackType="Stereo">
														<clipitem id="clipitem-439" premiereChannelType="stereo">
															<masterclipid>masterclip-148</masterclipid>
															<name>ES_Odyssey - [ocean jams].wav</name>
															<enabled>TRUE</enabled>
															<duration>3986</duration>
															<rate>
																<timebase>30</timebase>
																<ntsc>TRUE</ntsc>
															</rate>
															<start>0</start>
															<end>-1</end>
															<in>0</in>
															<out>2413</out>
															<pproTicksIn>0</pproTicksIn>
															<pproTicksOut>20451784953600</pproTicksOut>
															<file id="file-127">
																<name>ES_Odyssey - [ocean jams].wav</name>
																<pathurl>file://localhost/Volumes/ATM%20JR%202TB/Crafty/2023/06_June/Crafty_6-19-23/5_Music/ES_Odyssey%20-%20[ocean%20jams].wav</pathurl>
																<rate>
																	<timebase>30</timebase>
																	<ntsc>TRUE</ntsc>
																</rate>
																<duration>3986</duration>
																<timecode>
																	<rate>
																		<timebase>30</timebase>
																		<ntsc>TRUE</ntsc>
																	</rate>
																	<string>01;54;35;29</string>
																	<frame>206073</frame>
																	<displayformat>DF</displayformat>
																</timecode>
																<media>
																	<audio>
																		<samplecharacteristics>
																			<depth>16</depth>
																			<samplerate>48000</samplerate>
																		</samplecharacteristics>
																		<channelcount>2</channelcount>
																	</audio>
																</media>
															</file>
															<sourcetrack>
																<mediatype>audio</mediatype>
																<trackindex>1</trackindex>
															</sourcetrack>
															<filter>
																<effect>
																	<name>Gain</name>
																	<effectid>{61756678, 4761696e, 4b657947}</effectid>
																	<effecttype>filter</effecttype>
																	<mediatype>audio</mediatype>
																	<parameter authoringApp="PremierePro">
																		<parameterid>Gain(dB)</parameterid>
																		<name>Gain(dB)</name>
																		<valuemin>-96</valuemin>
																		<valuemax>96</valuemax>
																		<value>-8</value>
																	</parameter>
																</effect>
															</filter>
															<filter>
																<effect>
																	<name>Audio Levels</name>
																	<effectid>audiolevels</effectid>
																	<effectcategory>audiolevels</effectcategory>
																	<effecttype>audiolevels</effecttype>
																	<mediatype>audio</mediatype>
																	<pproBypass>false</pproBypass>
																	<parameter authoringApp="PremierePro">
																		<parameterid>level</parameterid>
																		<name>Level</name>
																		<valuemin>0</valuemin>
																		<valuemax>3.98109</valuemax>
																		<value>1.32958</value>
																		<keyframe>
																			<when>281</when>
																			<value>1.32958</value>
																		</keyframe>
																		<keyframe>
																			<when>398</when>
																			<value>1</value>
																		</keyframe>
																	</parameter>
																</effect>
															</filter>
															<link>
																<linkclipref>clipitem-439</linkclipref>
																<mediatype>audio</mediatype>
																<trackindex>1</trackindex>
																<clipindex>1</clipindex>
																<groupindex>1</groupindex>
															</link>
															<link>
																<linkclipref>clipitem-440</linkclipref>
																<mediatype>audio</mediatype>
																<trackindex>2</trackindex>
																<clipindex>1</clipindex>
																<groupindex>1</groupindex>
															</link>
															<logginginfo>
																<description></description>
																<scene></scene>
																<shottake></shottake>
																<lognote></lognote>
																<good></good>
																<originalvideofilename></originalvideofilename>
																<originalaudiofilename></originalaudiofilename>
															</logginginfo>
															<colorinfo>
																<lut></lut>
																<lut1></lut1>
																<asc_sop></asc_sop>
																<asc_sat></asc_sat>
																<lut2></lut2>
															</colorinfo>
															<labels>
																<label2>Caribbean</label2>
															</labels>
														</clipitem>
														<transitionitem>
															<start>2323</start>
															<end>2413</end>
															<pproTicksIn>19688974905600</pproTicksIn>
															<pproTicksOut>20451784953600</pproTicksOut>
															<alignment>end-black</alignment>
															<cutPointTicks>762810048000</cutPointTicks>
															<rate>
																<timebase>30</timebase>
																<ntsc>TRUE</ntsc>
															</rate>
															<effect>
																<name>Cross Fade (+3dB)</name>
																<effectid>KGAudioTransCrossFade3dB</effectid>
																<effecttype>transition</effecttype>
																<mediatype>audio</mediatype>
																<wipecode>0</wipecode>
																<wipeaccuracy>100</wipeaccuracy>
																<startratio>0</startratio>
																<endratio>1</endratio>
																<reverse>FALSE</reverse>
															</effect>
														</transitionitem>
														<enabled>TRUE</enabled>
														<locked>FALSE</locked>
														<outputchannelindex>1</outputchannelindex>
													</track>
													<track TL.SQTrackAudioKeyframeStyle="0" TL.SQTrackShy="0" TL.SQTrackExpandedHeight="25" TL.SQTrackExpanded="0" MZ.TrackTargeted="1" PannerCurrentValue="0.5" PannerIsInverted="true" PannerStartKeyframe="-91445760000000000,0.5,0,0,0,0,0,0" PannerName="Balance" currentExplodedTrackIndex="1" totalExplodedTrackCount="2" premiereTrackType="Stereo">
														<clipitem id="clipitem-440" premiereChannelType="stereo">
															<masterclipid>masterclip-148</masterclipid>
															<name>ES_Odyssey - [ocean jams].wav</name>
															<enabled>TRUE</enabled>
															<duration>3986</duration>
															<rate>
																<timebase>30</timebase>
																<ntsc>TRUE</ntsc>
															</rate>
															<start>0</start>
															<end>-1</end>
															<in>0</in>
															<out>2413</out>
															<pproTicksIn>0</pproTicksIn>
															<pproTicksOut>20451784953600</pproTicksOut>
															<file id="file-127"/>
															<sourcetrack>
																<mediatype>audio</mediatype>
																<trackindex>2</trackindex>
															</sourcetrack>
															<filter>
																<effect>
																	<name>Gain</name>
																	<effectid>{61756678, 4761696e, 4b657947}</effectid>
																	<effecttype>filter</effecttype>
																	<mediatype>audio</mediatype>
																	<parameter authoringApp="PremierePro">
																		<parameterid>Gain(dB)</parameterid>
																		<name>Gain(dB)</name>
																		<valuemin>-96</valuemin>
																		<valuemax>96</valuemax>
																		<value>-8</value>
																	</parameter>
																</effect>
															</filter>
															<filter>
																<effect>
																	<name>Audio Levels</name>
																	<effectid>audiolevels</effectid>
																	<effectcategory>audiolevels</effectcategory>
																	<effecttype>audiolevels</effecttype>
																	<mediatype>audio</mediatype>
																	<pproBypass>false</pproBypass>
																	<parameter authoringApp="PremierePro">
																		<parameterid>level</parameterid>
																		<name>Level</name>
																		<valuemin>0</valuemin>
																		<valuemax>3.98109</valuemax>
																		<value>1.32958</value>
																		<keyframe>
																			<when>281</when>
																			<value>1.32958</value>
																		</keyframe>
																		<keyframe>
																			<when>398</when>
																			<value>1</value>
																		</keyframe>
																	</parameter>
																</effect>
															</filter>
															<link>
																<linkclipref>clipitem-439</linkclipref>
																<mediatype>audio</mediatype>
																<trackindex>1</trackindex>
																<clipindex>1</clipindex>
																<groupindex>1</groupindex>
															</link>
															<link>
																<linkclipref>clipitem-440</linkclipref>
																<mediatype>audio</mediatype>
																<trackindex>2</trackindex>
																<clipindex>1</clipindex>
																<groupindex>1</groupindex>
															</link>
															<logginginfo>
																<description></description>
																<scene></scene>
																<shottake></shottake>
																<lognote></lognote>
																<good></good>
																<originalvideofilename></originalvideofilename>
																<originalaudiofilename></originalaudiofilename>
															</logginginfo>
															<colorinfo>
																<lut></lut>
																<lut1></lut1>
																<asc_sop></asc_sop>
																<asc_sat></asc_sat>
																<lut2></lut2>
															</colorinfo>
															<labels>
																<label2>Caribbean</label2>
															</labels>
														</clipitem>
														<transitionitem>
															<start>2323</start>
															<end>2413</end>
															<pproTicksIn>19688974905600</pproTicksIn>
															<pproTicksOut>20451784953600</pproTicksOut>
															<alignment>end-black</alignment>
															<cutPointTicks>762810048000</cutPointTicks>
															<rate>
																<timebase>30</timebase>
																<ntsc>TRUE</ntsc>
															</rate>
															<effect>
																<name>Cross Fade (+3dB)</name>
																<effectid>KGAudioTransCrossFade3dB</effectid>
																<effecttype>transition</effecttype>
																<mediatype>audio</mediatype>
																<wipecode>0</wipecode>
																<wipeaccuracy>100</wipeaccuracy>
																<startratio>0</startratio>
																<endratio>1</endratio>
																<reverse>FALSE</reverse>
															</effect>
														</transitionitem>
														<enabled>TRUE</enabled>
														<locked>FALSE</locked>
														<outputchannelindex>2</outputchannelindex>
													</track>
												</audio>
											</media>
											<timecode>
												<rate>
													<timebase>30</timebase>
													<ntsc>TRUE</ntsc>
												</rate>
												<string>00;00;00;00</string>
												<frame>0</frame>
												<displayformat>DF</displayformat>
											</timecode>
											<logginginfo>
												<description></description>
												<scene></scene>
												<shottake></shottake>
												<lognote></lognote>
												<good></good>
												<originalvideofilename></originalvideofilename>
												<originalaudiofilename></originalaudiofilename>
											</logginginfo>
										</sequence>
										<link>
											<linkclipref>clipitem-430</linkclipref>
											<mediatype>video</mediatype>
											<trackindex>1</trackindex>
											<clipindex>2</clipindex>
										</link>
										<link>
											<linkclipref>clipitem-447</linkclipref>
											<mediatype>audio</mediatype>
											<trackindex>1</trackindex>
											<clipindex>2</clipindex>
											<groupindex>1</groupindex>
										</link>
										<link>
											<linkclipref>clipitem-449</linkclipref>
											<mediatype>audio</mediatype>
											<trackindex>2</trackindex>
											<clipindex>2</clipindex>
											<groupindex>1</groupindex>
										</link>
										<labels>
											<label2>Forest</label2>
										</labels>
									</clipitem>
									<enabled>TRUE</enabled>
									<locked>FALSE</locked>
								</track>
								<track TL.SQTrackShy="0" TL.SQTrackExpandedHeight="25" TL.SQTrackExpanded="0" MZ.TrackTargeted="0">
									<clipitem id="clipitem-441">
										<masterclipid>masterclip-149</masterclipid>
										<name>DON'T TALK TO ME UNTIL I'VE HAD MY COFFEE TABLE</name>
										<enabled>TRUE</enabled>
										<duration>5695</duration>
										<rate>
											<timebase>30</timebase>
											<ntsc>TRUE</ntsc>
										</rate>
										<start>0</start>
										<end>2574</end>
										<in>0</in>
										<out>2574</out>
										<pproTicksIn>0</pproTicksIn>
										<pproTicksOut>21816367372800</pproTicksOut>
										<alphatype>straight</alphatype>
										<pixelaspectratio>square</pixelaspectratio>
										<anamorphic>FALSE</anamorphic>
										<file id="file-128">
											<name>CRAFTY_L3RD_01_JL_V03/CRAFTY_L3RD_01_JL_V03.aep</name>
											<pathurl>file://localhost/Volumes/ATM%20JR%202TB/Crafty/Master%20Assets%20/Lower%20Thirds/CRAFTY_L3RD_01_JL_V03.aep</pathurl>
											<rate>
												<timebase>30</timebase>
												<ntsc>FALSE</ntsc>
											</rate>
											<duration>5701</duration>
											<timecode>
												<rate>
													<timebase>30</timebase>
													<ntsc>FALSE</ntsc>
												</rate>
												<string>00:00:00:00</string>
												<frame>0</frame>
												<displayformat>NDF</displayformat>
											</timecode>
											<media>
												<video>
													<samplecharacteristics>
														<rate>
															<timebase>30</timebase>
															<ntsc>FALSE</ntsc>
														</rate>
														<width>1920</width>
														<height>1080</height>
														<anamorphic>FALSE</anamorphic>
														<pixelaspectratio>square</pixelaspectratio>
														<fielddominance>lower</fielddominance>
													</samplecharacteristics>
												</video>
											</media>
										</file>
										<logginginfo>
											<description></description>
											<scene></scene>
											<shottake></shottake>
											<lognote></lognote>
											<good></good>
											<originalvideofilename></originalvideofilename>
											<originalaudiofilename></originalaudiofilename>
										</logginginfo>
										<colorinfo>
											<lut></lut>
											<lut1></lut1>
											<asc_sop></asc_sop>
											<asc_sat></asc_sat>
											<lut2></lut2>
										</colorinfo>
										<labels>
											<label2>Rose</label2>
										</labels>
									</clipitem>
									<clipitem id="clipitem-442">
										<masterclipid>masterclip-150</masterclipid>
										<name>MASK ON, MASK OFF</name>
										<enabled>TRUE</enabled>
										<duration>5695</duration>
										<rate>
											<timebase>30</timebase>
											<ntsc>TRUE</ntsc>
										</rate>
										<start>2667</start>
										<end>5098</end>
										<in>0</in>
										<out>2431</out>
										<pproTicksIn>0</pproTicksIn>
										<pproTicksOut>20604346963200</pproTicksOut>
										<alphatype>straight</alphatype>
										<pixelaspectratio>square</pixelaspectratio>
										<anamorphic>FALSE</anamorphic>
										<file id="file-129">
											<name>CRAFTY_L3RD_01_JL_V03/CRAFTY_L3RD_01_JL_V03.aep</name>
											<pathurl>file://localhost/Volumes/ATM%20JR%202TB/Crafty/Master%20Assets%20/Lower%20Thirds/CRAFTY_L3RD_01_JL_V03.aep</pathurl>
											<rate>
												<timebase>30</timebase>
												<ntsc>FALSE</ntsc>
											</rate>
											<duration>5701</duration>
											<timecode>
												<rate>
													<timebase>30</timebase>
													<ntsc>FALSE</ntsc>
												</rate>
												<string>00:00:00:00</string>
												<frame>0</frame>
												<displayformat>NDF</displayformat>
											</timecode>
											<media>
												<video>
													<samplecharacteristics>
														<rate>
															<timebase>30</timebase>
															<ntsc>FALSE</ntsc>
														</rate>
														<width>1920</width>
														<height>1080</height>
														<anamorphic>FALSE</anamorphic>
														<pixelaspectratio>square</pixelaspectratio>
														<fielddominance>lower</fielddominance>
													</samplecharacteristics>
												</video>
											</media>
										</file>
										<logginginfo>
											<description></description>
											<scene></scene>
											<shottake></shottake>
											<lognote></lognote>
											<good></good>
											<originalvideofilename></originalvideofilename>
											<originalaudiofilename></originalaudiofilename>
										</logginginfo>
										<colorinfo>
											<lut></lut>
											<lut1></lut1>
											<asc_sop></asc_sop>
											<asc_sat></asc_sat>
											<lut2></lut2>
										</colorinfo>
										<labels>
											<label2>Rose</label2>
										</labels>
									</clipitem>
									<enabled>TRUE</enabled>
									<locked>FALSE</locked>
								</track>
								<track TL.SQTrackShy="0" TL.SQTrackExpandedHeight="25" TL.SQTrackExpanded="0" MZ.TrackTargeted="0">
									<clipitem id="clipitem-443">
										<masterclipid>masterclip-102</masterclipid>
										<name>ATM_logo_channels_right-2 (3).png</name>
										<enabled>TRUE</enabled>
										<duration>1294705</duration>
										<rate>
											<timebase>30</timebase>
											<ntsc>TRUE</ntsc>
										</rate>
										<start>0</start>
										<end>5098</end>
										<in>107892</in>
										<out>112990</out>
										<pproTicksIn>914456685542400</pproTicksIn>
										<pproTicksOut>957665636928000</pproTicksOut>
										<alphatype>straight</alphatype>
										<file id="file-89"/>
										<logginginfo>
											<description></description>
											<scene></scene>
											<shottake></shottake>
											<lognote></lognote>
											<good></good>
											<originalvideofilename></originalvideofilename>
											<originalaudiofilename></originalaudiofilename>
										</logginginfo>
										<colorinfo>
											<lut></lut>
											<lut1></lut1>
											<asc_sop></asc_sop>
											<asc_sat></asc_sat>
											<lut2></lut2>
										</colorinfo>
										<labels>
											<label2>Lavender</label2>
										</labels>
									</clipitem>
									<enabled>TRUE</enabled>
									<locked>FALSE</locked>
								</track>
								<track TL.SQTrackShy="0" TL.SQTrackExpandedHeight="25" TL.SQTrackExpanded="0" MZ.TrackTargeted="0">
									<clipitem id="clipitem-444">
										<masterclipid>masterclip-103</masterclipid>
										<name>CRAFTY_TRAN02_JL_V01.mov</name>
										<enabled>TRUE</enabled>
										<duration>120</duration>
										<rate>
											<timebase>30</timebase>
											<ntsc>TRUE</ntsc>
										</rate>
										<start>2547</start>
										<end>2667</end>
										<in>0</in>
										<out>120</out>
										<pproTicksIn>0</pproTicksIn>
										<pproTicksOut>1017080064000</pproTicksOut>
										<alphatype>none</alphatype>
										<file id="file-90"/>
										<link>
											<linkclipref>clipitem-444</linkclipref>
											<mediatype>video</mediatype>
											<trackindex>4</trackindex>
											<clipindex>1</clipindex>
										</link>
										<link>
											<linkclipref>clipitem-450</linkclipref>
											<mediatype>audio</mediatype>
											<trackindex>3</trackindex>
											<clipindex>1</clipindex>
											<groupindex>1</groupindex>
										</link>
										<link>
											<linkclipref>clipitem-452</linkclipref>
											<mediatype>audio</mediatype>
											<trackindex>4</trackindex>
											<clipindex>1</clipindex>
											<groupindex>1</groupindex>
										</link>
										<logginginfo>
											<description></description>
											<scene></scene>
											<shottake></shottake>
											<lognote></lognote>
											<good></good>
											<originalvideofilename></originalvideofilename>
											<originalaudiofilename></originalaudiofilename>
										</logginginfo>
										<colorinfo>
											<lut></lut>
											<lut1></lut1>
											<asc_sop></asc_sop>
											<asc_sat></asc_sat>
											<lut2></lut2>
										</colorinfo>
										<labels>
											<label2>Iris</label2>
										</labels>
									</clipitem>
									<clipitem id="clipitem-445">
										<masterclipid>masterclip-104</masterclipid>
										<name>CRAFTY_TRAN03_JL_V01.mov</name>
										<enabled>TRUE</enabled>
										<duration>120</duration>
										<rate>
											<timebase>30</timebase>
											<ntsc>TRUE</ntsc>
										</rate>
										<start>5062</start>
										<end>5182</end>
										<in>0</in>
										<out>120</out>
										<pproTicksIn>0</pproTicksIn>
										<pproTicksOut>1017080064000</pproTicksOut>
										<alphatype>none</alphatype>
										<file id="file-91"/>
										<link>
											<linkclipref>clipitem-445</linkclipref>
											<mediatype>video</mediatype>
											<trackindex>4</trackindex>
											<clipindex>2</clipindex>
										</link>
										<link>
											<linkclipref>clipitem-451</linkclipref>
											<mediatype>audio</mediatype>
											<trackindex>3</trackindex>
											<clipindex>2</clipindex>
											<groupindex>1</groupindex>
										</link>
										<link>
											<linkclipref>clipitem-453</linkclipref>
											<mediatype>audio</mediatype>
											<trackindex>4</trackindex>
											<clipindex>2</clipindex>
											<groupindex>1</groupindex>
										</link>
										<logginginfo>
											<description></description>
											<scene></scene>
											<shottake></shottake>
											<lognote></lognote>
											<good></good>
											<originalvideofilename></originalvideofilename>
											<originalaudiofilename></originalaudiofilename>
										</logginginfo>
										<colorinfo>
											<lut></lut>
											<lut1></lut1>
											<asc_sop></asc_sop>
											<asc_sat></asc_sat>
											<lut2></lut2>
										</colorinfo>
										<labels>
											<label2>Iris</label2>
										</labels>
									</clipitem>
									<enabled>TRUE</enabled>
									<locked>FALSE</locked>
								</track>
							</video>
							<audio>
								<numOutputChannels>2</numOutputChannels>
								<format>
									<samplecharacteristics>
										<depth>16</depth>
										<samplerate>48000</samplerate>
									</samplecharacteristics>
								</format>
								<outputs>
									<group>
										<index>1</index>
										<numchannels>1</numchannels>
										<downmix>0</downmix>
										<channel>
											<index>1</index>
										</channel>
									</group>
									<group>
										<index>2</index>
										<numchannels>1</numchannels>
										<downmix>0</downmix>
										<channel>
											<index>2</index>
										</channel>
									</group>
								</outputs>
								<track TL.SQTrackAudioKeyframeStyle="0" TL.SQTrackShy="0" TL.SQTrackExpandedHeight="146" TL.SQTrackExpanded="0" MZ.TrackTargeted="1" PannerCurrentValue="0.5" PannerIsInverted="true" PannerStartKeyframe="-91445760000000000,0.5,0,0,0,0,0,0" PannerName="Balance" currentExplodedTrackIndex="0" totalExplodedTrackCount="2" premiereTrackType="Stereo">
									<clipitem id="clipitem-446" premiereChannelType="stereo">
										<masterclipid>masterclip-141</masterclipid>
										<name>DIY_DON'TTALKTOMEUNTILI'VEHADMYCOFFEETABLE_1.5</name>
										<enabled>TRUE</enabled>
										<duration>2963</duration>
										<rate>
											<timebase>30</timebase>
											<ntsc>TRUE</ntsc>
										</rate>
										<start>0</start>
										<end>2574</end>
										<in>0</in>
										<out>2574</out>
										<pproTicksIn>0</pproTicksIn>
										<pproTicksOut>21816367372800</pproTicksOut>
										<sequence id="sequence-30"/>
										<sourcetrack>
											<mediatype>audio</mediatype>
											<trackindex>0</trackindex>
										</sourcetrack>
										<link>
											<linkclipref>clipitem-422</linkclipref>
											<mediatype>video</mediatype>
											<trackindex>1</trackindex>
											<clipindex>1</clipindex>
										</link>
										<link>
											<linkclipref>clipitem-446</linkclipref>
											<mediatype>audio</mediatype>
											<trackindex>1</trackindex>
											<clipindex>1</clipindex>
											<groupindex>1</groupindex>
										</link>
										<link>
											<linkclipref>clipitem-448</linkclipref>
											<mediatype>audio</mediatype>
											<trackindex>2</trackindex>
											<clipindex>1</clipindex>
											<groupindex>1</groupindex>
										</link>
										<labels>
											<label2>Forest</label2>
										</labels>
									</clipitem>
									<clipitem id="clipitem-447" premiereChannelType="stereo">
										<masterclipid>masterclip-145</masterclipid>
										<name>ART_MASKONMASKOFF_1.5</name>
										<enabled>TRUE</enabled>
										<duration>2441</duration>
										<rate>
											<timebase>30</timebase>
											<ntsc>TRUE</ntsc>
										</rate>
										<start>2657</start>
										<end>5098</end>
										<in>0</in>
										<out>2441</out>
										<pproTicksIn>0</pproTicksIn>
										<pproTicksOut>20689103635200</pproTicksOut>
										<sequence id="sequence-31"/>
										<sourcetrack>
											<mediatype>audio</mediatype>
											<trackindex>0</trackindex>
										</sourcetrack>
										<link>
											<linkclipref>clipitem-430</linkclipref>
											<mediatype>video</mediatype>
											<trackindex>1</trackindex>
											<clipindex>2</clipindex>
										</link>
										<link>
											<linkclipref>clipitem-447</linkclipref>
											<mediatype>audio</mediatype>
											<trackindex>1</trackindex>
											<clipindex>2</clipindex>
											<groupindex>1</groupindex>
										</link>
										<link>
											<linkclipref>clipitem-449</linkclipref>
											<mediatype>audio</mediatype>
											<trackindex>2</trackindex>
											<clipindex>2</clipindex>
											<groupindex>1</groupindex>
										</link>
										<labels>
											<label2>Forest</label2>
										</labels>
									</clipitem>
									<enabled>TRUE</enabled>
									<locked>FALSE</locked>
									<outputchannelindex>1</outputchannelindex>
								</track>
								<track TL.SQTrackAudioKeyframeStyle="0" TL.SQTrackShy="0" TL.SQTrackExpandedHeight="146" TL.SQTrackExpanded="0" MZ.TrackTargeted="1" PannerCurrentValue="0.5" PannerIsInverted="true" PannerStartKeyframe="-91445760000000000,0.5,0,0,0,0,0,0" PannerName="Balance" currentExplodedTrackIndex="1" totalExplodedTrackCount="2" premiereTrackType="Stereo">
									<clipitem id="clipitem-448" premiereChannelType="stereo">
										<masterclipid>masterclip-141</masterclipid>
										<name>DIY_DON'TTALKTOMEUNTILI'VEHADMYCOFFEETABLE_1.5</name>
										<enabled>TRUE</enabled>
										<duration>2963</duration>
										<rate>
											<timebase>30</timebase>
											<ntsc>TRUE</ntsc>
										</rate>
										<start>0</start>
										<end>2574</end>
										<in>0</in>
										<out>2574</out>
										<pproTicksIn>0</pproTicksIn>
										<pproTicksOut>21816367372800</pproTicksOut>
										<sequence id="sequence-30"/>
										<sourcetrack>
											<mediatype>audio</mediatype>
											<trackindex>1</trackindex>
										</sourcetrack>
										<link>
											<linkclipref>clipitem-422</linkclipref>
											<mediatype>video</mediatype>
											<trackindex>1</trackindex>
											<clipindex>1</clipindex>
										</link>
										<link>
											<linkclipref>clipitem-446</linkclipref>
											<mediatype>audio</mediatype>
											<trackindex>1</trackindex>
											<clipindex>1</clipindex>
											<groupindex>1</groupindex>
										</link>
										<link>
											<linkclipref>clipitem-448</linkclipref>
											<mediatype>audio</mediatype>
											<trackindex>2</trackindex>
											<clipindex>1</clipindex>
											<groupindex>1</groupindex>
										</link>
										<labels>
											<label2>Forest</label2>
										</labels>
									</clipitem>
									<clipitem id="clipitem-449" premiereChannelType="stereo">
										<masterclipid>masterclip-145</masterclipid>
										<name>ART_MASKONMASKOFF_1.5</name>
										<enabled>TRUE</enabled>
										<duration>2441</duration>
										<rate>
											<timebase>30</timebase>
											<ntsc>TRUE</ntsc>
										</rate>
										<start>2657</start>
										<end>5098</end>
										<in>0</in>
										<out>2441</out>
										<pproTicksIn>0</pproTicksIn>
										<pproTicksOut>20689103635200</pproTicksOut>
										<sequence id="sequence-31"/>
										<sourcetrack>
											<mediatype>audio</mediatype>
											<trackindex>1</trackindex>
										</sourcetrack>
										<link>
											<linkclipref>clipitem-430</linkclipref>
											<mediatype>video</mediatype>
											<trackindex>1</trackindex>
											<clipindex>2</clipindex>
										</link>
										<link>
											<linkclipref>clipitem-447</linkclipref>
											<mediatype>audio</mediatype>
											<trackindex>1</trackindex>
											<clipindex>2</clipindex>
											<groupindex>1</groupindex>
										</link>
										<link>
											<linkclipref>clipitem-449</linkclipref>
											<mediatype>audio</mediatype>
											<trackindex>2</trackindex>
											<clipindex>2</clipindex>
											<groupindex>1</groupindex>
										</link>
										<labels>
											<label2>Forest</label2>
										</labels>
									</clipitem>
									<enabled>TRUE</enabled>
									<locked>FALSE</locked>
									<outputchannelindex>2</outputchannelindex>
								</track>
								<track TL.SQTrackAudioKeyframeStyle="0" TL.SQTrackShy="0" TL.SQTrackExpandedHeight="146" TL.SQTrackExpanded="0" MZ.TrackTargeted="1" PannerCurrentValue="0.5" PannerIsInverted="true" PannerStartKeyframe="-91445760000000000,0.5,0,0,0,0,0,0" PannerName="Balance" currentExplodedTrackIndex="0" totalExplodedTrackCount="2" premiereTrackType="Stereo">
									<clipitem id="clipitem-450" premiereChannelType="stereo">
										<masterclipid>masterclip-103</masterclipid>
										<name>CRAFTY_TRAN02_JL_V01.mov</name>
										<enabled>TRUE</enabled>
										<duration>120</duration>
										<rate>
											<timebase>30</timebase>
											<ntsc>TRUE</ntsc>
										</rate>
										<start>2547</start>
										<end>2667</end>
										<in>0</in>
										<out>120</out>
										<pproTicksIn>0</pproTicksIn>
										<pproTicksOut>1017080064000</pproTicksOut>
										<file id="file-90"/>
										<sourcetrack>
											<mediatype>audio</mediatype>
											<trackindex>1</trackindex>
										</sourcetrack>
										<link>
											<linkclipref>clipitem-444</linkclipref>
											<mediatype>video</mediatype>
											<trackindex>4</trackindex>
											<clipindex>1</clipindex>
										</link>
										<link>
											<linkclipref>clipitem-450</linkclipref>
											<mediatype>audio</mediatype>
											<trackindex>3</trackindex>
											<clipindex>1</clipindex>
											<groupindex>1</groupindex>
										</link>
										<link>
											<linkclipref>clipitem-452</linkclipref>
											<mediatype>audio</mediatype>
											<trackindex>4</trackindex>
											<clipindex>1</clipindex>
											<groupindex>1</groupindex>
										</link>
										<logginginfo>
											<description></description>
											<scene></scene>
											<shottake></shottake>
											<lognote></lognote>
											<good></good>
											<originalvideofilename></originalvideofilename>
											<originalaudiofilename></originalaudiofilename>
										</logginginfo>
										<colorinfo>
											<lut></lut>
											<lut1></lut1>
											<asc_sop></asc_sop>
											<asc_sat></asc_sat>
											<lut2></lut2>
										</colorinfo>
										<labels>
											<label2>Iris</label2>
										</labels>
									</clipitem>
									<clipitem id="clipitem-451" premiereChannelType="stereo">
										<masterclipid>masterclip-104</masterclipid>
										<name>CRAFTY_TRAN03_JL_V01.mov</name>
										<enabled>TRUE</enabled>
										<duration>120</duration>
										<rate>
											<timebase>30</timebase>
											<ntsc>TRUE</ntsc>
										</rate>
										<start>5062</start>
										<end>5182</end>
										<in>0</in>
										<out>120</out>
										<pproTicksIn>0</pproTicksIn>
										<pproTicksOut>1017080064000</pproTicksOut>
										<file id="file-91"/>
										<sourcetrack>
											<mediatype>audio</mediatype>
											<trackindex>1</trackindex>
										</sourcetrack>
										<link>
											<linkclipref>clipitem-445</linkclipref>
											<mediatype>video</mediatype>
											<trackindex>4</trackindex>
											<clipindex>2</clipindex>
										</link>
										<link>
											<linkclipref>clipitem-451</linkclipref>
											<mediatype>audio</mediatype>
											<trackindex>3</trackindex>
											<clipindex>2</clipindex>
											<groupindex>1</groupindex>
										</link>
										<link>
											<linkclipref>clipitem-453</linkclipref>
											<mediatype>audio</mediatype>
											<trackindex>4</trackindex>
											<clipindex>2</clipindex>
											<groupindex>1</groupindex>
										</link>
										<logginginfo>
											<description></description>
											<scene></scene>
											<shottake></shottake>
											<lognote></lognote>
											<good></good>
											<originalvideofilename></originalvideofilename>
											<originalaudiofilename></originalaudiofilename>
										</logginginfo>
										<colorinfo>
											<lut></lut>
											<lut1></lut1>
											<asc_sop></asc_sop>
											<asc_sat></asc_sat>
											<lut2></lut2>
										</colorinfo>
										<labels>
											<label2>Iris</label2>
										</labels>
									</clipitem>
									<enabled>TRUE</enabled>
									<locked>FALSE</locked>
									<outputchannelindex>1</outputchannelindex>
								</track>
								<track TL.SQTrackAudioKeyframeStyle="0" TL.SQTrackShy="0" TL.SQTrackExpandedHeight="146" TL.SQTrackExpanded="0" MZ.TrackTargeted="1" PannerCurrentValue="0.5" PannerIsInverted="true" PannerStartKeyframe="-91445760000000000,0.5,0,0,0,0,0,0" PannerName="Balance" currentExplodedTrackIndex="1" totalExplodedTrackCount="2" premiereTrackType="Stereo">
									<clipitem id="clipitem-452" premiereChannelType="stereo">
										<masterclipid>masterclip-103</masterclipid>
										<name>CRAFTY_TRAN02_JL_V01.mov</name>
										<enabled>TRUE</enabled>
										<duration>120</duration>
										<rate>
											<timebase>30</timebase>
											<ntsc>TRUE</ntsc>
										</rate>
										<start>2547</start>
										<end>2667</end>
										<in>0</in>
										<out>120</out>
										<pproTicksIn>0</pproTicksIn>
										<pproTicksOut>1017080064000</pproTicksOut>
										<file id="file-90"/>
										<sourcetrack>
											<mediatype>audio</mediatype>
											<trackindex>2</trackindex>
										</sourcetrack>
										<link>
											<linkclipref>clipitem-444</linkclipref>
											<mediatype>video</mediatype>
											<trackindex>4</trackindex>
											<clipindex>1</clipindex>
										</link>
										<link>
											<linkclipref>clipitem-450</linkclipref>
											<mediatype>audio</mediatype>
											<trackindex>3</trackindex>
											<clipindex>1</clipindex>
											<groupindex>1</groupindex>
										</link>
										<link>
											<linkclipref>clipitem-452</linkclipref>
											<mediatype>audio</mediatype>
											<trackindex>4</trackindex>
											<clipindex>1</clipindex>
											<groupindex>1</groupindex>
										</link>
										<logginginfo>
											<description></description>
											<scene></scene>
											<shottake></shottake>
											<lognote></lognote>
											<good></good>
											<originalvideofilename></originalvideofilename>
											<originalaudiofilename></originalaudiofilename>
										</logginginfo>
										<colorinfo>
											<lut></lut>
											<lut1></lut1>
											<asc_sop></asc_sop>
											<asc_sat></asc_sat>
											<lut2></lut2>
										</colorinfo>
										<labels>
											<label2>Iris</label2>
										</labels>
									</clipitem>
									<clipitem id="clipitem-453" premiereChannelType="stereo">
										<masterclipid>masterclip-104</masterclipid>
										<name>CRAFTY_TRAN03_JL_V01.mov</name>
										<enabled>TRUE</enabled>
										<duration>120</duration>
										<rate>
											<timebase>30</timebase>
											<ntsc>TRUE</ntsc>
										</rate>
										<start>5062</start>
										<end>5182</end>
										<in>0</in>
										<out>120</out>
										<pproTicksIn>0</pproTicksIn>
										<pproTicksOut>1017080064000</pproTicksOut>
										<file id="file-91"/>
										<sourcetrack>
											<mediatype>audio</mediatype>
											<trackindex>2</trackindex>
										</sourcetrack>
										<link>
											<linkclipref>clipitem-445</linkclipref>
											<mediatype>video</mediatype>
											<trackindex>4</trackindex>
											<clipindex>2</clipindex>
										</link>
										<link>
											<linkclipref>clipitem-451</linkclipref>
											<mediatype>audio</mediatype>
											<trackindex>3</trackindex>
											<clipindex>2</clipindex>
											<groupindex>1</groupindex>
										</link>
										<link>
											<linkclipref>clipitem-453</linkclipref>
											<mediatype>audio</mediatype>
											<trackindex>4</trackindex>
											<clipindex>2</clipindex>
											<groupindex>1</groupindex>
										</link>
										<logginginfo>
											<description></description>
											<scene></scene>
											<shottake></shottake>
											<lognote></lognote>
											<good></good>
											<originalvideofilename></originalvideofilename>
											<originalaudiofilename></originalaudiofilename>
										</logginginfo>
										<colorinfo>
											<lut></lut>
											<lut1></lut1>
											<asc_sop></asc_sop>
											<asc_sat></asc_sat>
											<lut2></lut2>
										</colorinfo>
										<labels>
											<label2>Iris</label2>
										</labels>
									</clipitem>
									<enabled>TRUE</enabled>
									<locked>FALSE</locked>
									<outputchannelindex>2</outputchannelindex>
								</track>
								<track TL.SQTrackAudioKeyframeStyle="0" TL.SQTrackShy="0" TL.SQTrackExpandedHeight="146" TL.SQTrackExpanded="0" MZ.TrackTargeted="1" PannerCurrentValue="0.5" PannerIsInverted="true" PannerStartKeyframe="-91445760000000000,0.5,0,0,0,0,0,0" PannerName="Balance" currentExplodedTrackIndex="0" totalExplodedTrackCount="2" premiereTrackType="Stereo">
									<enabled>TRUE</enabled>
									<locked>FALSE</locked>
									<outputchannelindex>1</outputchannelindex>
								</track>
								<track TL.SQTrackAudioKeyframeStyle="0" TL.SQTrackShy="0" TL.SQTrackExpandedHeight="146" TL.SQTrackExpanded="0" MZ.TrackTargeted="1" PannerCurrentValue="0.5" PannerIsInverted="true" PannerStartKeyframe="-91445760000000000,0.5,0,0,0,0,0,0" PannerName="Balance" currentExplodedTrackIndex="1" totalExplodedTrackCount="2" premiereTrackType="Stereo">
									<enabled>TRUE</enabled>
									<locked>FALSE</locked>
									<outputchannelindex>2</outputchannelindex>
								</track>
								<track TL.SQTrackAudioKeyframeStyle="0" TL.SQTrackShy="0" TL.SQTrackExpandedHeight="25" TL.SQTrackExpanded="0" MZ.TrackTargeted="0" PannerCurrentValue="0.5" PannerIsInverted="true" PannerStartKeyframe="-91445760000000000,0.5,0,0,0,0,0,0" PannerName="Balance" currentExplodedTrackIndex="0" totalExplodedTrackCount="2" premiereTrackType="Stereo">
									<enabled>TRUE</enabled>
									<locked>FALSE</locked>
									<outputchannelindex>1</outputchannelindex>
								</track>
								<track TL.SQTrackAudioKeyframeStyle="0" TL.SQTrackShy="0" TL.SQTrackExpandedHeight="25" TL.SQTrackExpanded="0" MZ.TrackTargeted="0" PannerCurrentValue="0.5" PannerIsInverted="true" PannerStartKeyframe="-91445760000000000,0.5,0,0,0,0,0,0" PannerName="Balance" currentExplodedTrackIndex="1" totalExplodedTrackCount="2" premiereTrackType="Stereo">
									<enabled>TRUE</enabled>
									<locked>FALSE</locked>
									<outputchannelindex>2</outputchannelindex>
								</track>
							</audio>
						</media>
						<timecode>
							<rate>
								<timebase>30</timebase>
								<ntsc>TRUE</ntsc>
							</rate>
							<string>00;00;00;00</string>
							<frame>0</frame>
							<displayformat>DF</displayformat>
						</timecode>
						<labels>
							<label2>Forest</label2>
						</labels>
						<logginginfo>
							<description></description>
							<scene></scene>
							<shottake></shottake>
							<lognote></lognote>
							<good></good>
							<originalvideofilename></originalvideofilename>
							<originalaudiofilename></originalaudiofilename>
						</logginginfo>
					</sequence>
					<sequence id="sequence-32" TL.SQAudioVisibleBase="0" TL.SQVideoVisibleBase="0" TL.SQVisibleBaseTime="0" TL.SQAVDividerPosition="0.5" TL.SQHideShyTracks="0" TL.SQHeaderWidth="236" TL.SQDataTrackViewControlState="0" Monitor.ProgramZoomOut="48048557356800" Monitor.ProgramZoomIn="0" TL.SQTimePerPixel="0.35878250343997947" MZ.EditLine="47387455315200" MZ.Sequence.PreviewFrameSizeHeight="1080" MZ.Sequence.PreviewFrameSizeWidth="1920" MZ.Sequence.AudioTimeDisplayFormat="200" MZ.Sequence.PreviewRenderingClassID="1061109567" MZ.Sequence.PreviewRenderingPresetCodec="1634755443" MZ.Sequence.PreviewRenderingPresetPath="EncoderPresets/SequencePreview/35d109db-457b-43c1-9452-9cb7be9f121c/QuickTime.epr" MZ.Sequence.PreviewUseMaxRenderQuality="false" MZ.Sequence.PreviewUseMaxBitDepth="false" MZ.Sequence.EditingModeGUID="35d109db-457b-43c1-9452-9cb7be9f121c" MZ.Sequence.VideoTimeDisplayFormat="102" MZ.WorkOutPoint="15239249625600" MZ.WorkInPoint="0" explodedTracks="true">
						<uuid>f6b6e1c4-2ee3-4ad0-8f6a-da6974f99fb9</uuid>
						<duration>5669</duration>
						<rate>
							<timebase>30</timebase>
							<ntsc>TRUE</ntsc>
						</rate>
						<name>ATM_CRAFTY_306</name>
						<media>
							<video>
								<format>
									<samplecharacteristics>
										<rate>
											<timebase>30</timebase>
											<ntsc>TRUE</ntsc>
										</rate>
										<codec>
											<name>Apple ProRes 422</name>
											<appspecificdata>
												<appname>Final Cut Pro</appname>
												<appmanufacturer>Apple Inc.</appmanufacturer>
												<appversion>7.0</appversion>
												<data>
													<qtcodec>
														<codecname>Apple ProRes 422</codecname>
														<codectypename>Apple ProRes 422</codectypename>
														<codectypecode>apcn</codectypecode>
														<codecvendorcode>appl</codecvendorcode>
														<spatialquality>1024</spatialquality>
														<temporalquality>0</temporalquality>
														<keyframerate>0</keyframerate>
														<datarate>0</datarate>
													</qtcodec>
												</data>
											</appspecificdata>
										</codec>
										<width>1920</width>
										<height>1080</height>
										<anamorphic>FALSE</anamorphic>
										<pixelaspectratio>square</pixelaspectratio>
										<fielddominance>none</fielddominance>
										<colordepth>24</colordepth>
									</samplecharacteristics>
								</format>
								<track TL.SQTrackShy="0" TL.SQTrackExpandedHeight="25" TL.SQTrackExpanded="0" MZ.TrackTargeted="1">
									<clipitem id="clipitem-454">
										<masterclipid>masterclip-151</masterclipid>
										<name>DIY_CROCHETEDCABANACLUTCH_1</name>
										<enabled>TRUE</enabled>
										<duration>2053</duration>
										<rate>
											<timebase>30</timebase>
											<ntsc>TRUE</ntsc>
										</rate>
										<start>0</start>
										<end>1731</end>
										<in>0</in>
										<out>1731</out>
										<pproTicksIn>0</pproTicksIn>
										<pproTicksOut>14671379923200</pproTicksOut>
										<sequence id="sequence-33" TL.SQAudioVisibleBase="0" TL.SQVideoVisibleBase="0" TL.SQVisibleBaseTime="0" TL.SQAVDividerPosition="0.5" TL.SQHideShyTracks="0" TL.SQHeaderWidth="236" Monitor.ProgramZoomOut="14671379923200" Monitor.ProgramZoomIn="0" TL.SQTimePerPixel="0.17831439705613397" MZ.EditLine="0" MZ.Sequence.PreviewFrameSizeHeight="1080" MZ.Sequence.PreviewFrameSizeWidth="1920" MZ.Sequence.AudioTimeDisplayFormat="200" MZ.Sequence.PreviewRenderingClassID="1061109567" MZ.Sequence.PreviewRenderingPresetCodec="1634755443" MZ.Sequence.PreviewRenderingPresetPath="EncoderPresets/SequencePreview/35d109db-457b-43c1-9452-9cb7be9f121c/QuickTime.epr" MZ.Sequence.PreviewUseMaxRenderQuality="false" MZ.Sequence.PreviewUseMaxBitDepth="false" MZ.Sequence.EditingModeGUID="35d109db-457b-43c1-9452-9cb7be9f121c" MZ.Sequence.VideoTimeDisplayFormat="102" MZ.WorkOutPoint="17400544761600" MZ.WorkInPoint="0">
											<duration>1731</duration>
											<rate>
												<timebase>30</timebase>
												<ntsc>TRUE</ntsc>
											</rate>
											<name>DIY_CROCHETEDCABANACLUTCH_1</name>
											<media>
												<video>
													<format>
														<samplecharacteristics>
															<rate>
																<timebase>30</timebase>
																<ntsc>TRUE</ntsc>
															</rate>
															<codec>
																<name>Apple ProRes 422</name>
																<appspecificdata>
																	<appname>Final Cut Pro</appname>
																	<appmanufacturer>Apple Inc.</appmanufacturer>
																	<appversion>7.0</appversion>
																	<data>
																		<qtcodec>
																			<codecname>Apple ProRes 422</codecname>
																			<codectypename>Apple ProRes 422</codectypename>
																			<codectypecode>apcn</codectypecode>
																			<codecvendorcode>appl</codecvendorcode>
																			<spatialquality>1024</spatialquality>
																			<temporalquality>0</temporalquality>
																			<keyframerate>0</keyframerate>
																			<datarate>0</datarate>
																		</qtcodec>
																	</data>
																</appspecificdata>
															</codec>
															<width>1920</width>
															<height>1080</height>
															<anamorphic>FALSE</anamorphic>
															<pixelaspectratio>square</pixelaspectratio>
															<fielddominance>none</fielddominance>
															<colordepth>24</colordepth>
														</samplecharacteristics>
													</format>
													<track TL.SQTrackShy="0" TL.SQTrackExpandedHeight="25" TL.SQTrackExpanded="0" MZ.TrackTargeted="1">
														<clipitem id="clipitem-455">
															<masterclipid>masterclip-152</masterclipid>
															<name>(Day’s Crochet)_The Cabana Clutch~ crochet boho summer clutch bag_X7wPdwX7veo_YT.mp4</name>
															<enabled>TRUE</enabled>
															<duration>52253</duration>
															<rate>
																<timebase>30</timebase>
																<ntsc>TRUE</ntsc>
															</rate>
															<start>0</start>
															<end>298</end>
															<in>2119</in>
															<out>2416</out>
															<pproTicksIn>22113015724800</pproTicksIn>
															<pproTicksOut>25223585587200</pproTicksOut>
															<alphatype>none</alphatype>
															<pixelaspectratio>square</pixelaspectratio>
															<anamorphic>FALSE</anamorphic>
															<file id="file-130">
																<name>(Day’s Crochet)_The Cabana Clutch~ crochet boho summer clutch bag_X7wPdwX7veo_YT.mp4</name>
																<pathurl>file://localhost/Volumes/ATM%20JR%202TB/Crafty/2023/06_June/Crafty_6-19-23/3_Raw%20Footage/crochet%20clutch/(Day%e2%80%99s%20Crochet)_The%20Cabana%20Clutch~%20crochet%20boho%20summer%20clutch%20bag_X7wPdwX7veo_YT.mp4</pathurl>
																<rate>
																	<timebase>30</timebase>
																	<ntsc>FALSE</ntsc>
																</rate>
																<duration>64418</duration>
																<timecode>
																	<rate>
																		<timebase>30</timebase>
																		<ntsc>FALSE</ntsc>
																	</rate>
																	<string>00:00:00:00</string>
																	<frame>0</frame>
																	<displayformat>NDF</displayformat>
																</timecode>
																<media>
																	<video>
																		<samplecharacteristics>
																			<rate>
																				<timebase>30</timebase>
																				<ntsc>FALSE</ntsc>
																			</rate>
																			<width>1920</width>
																			<height>1080</height>
																			<anamorphic>FALSE</anamorphic>
																			<pixelaspectratio>square</pixelaspectratio>
																			<fielddominance>none</fielddominance>
																		</samplecharacteristics>
																	</video>
																	<audio>
																		<samplecharacteristics>
																			<depth>16</depth>
																			<samplerate>44100</samplerate>
																		</samplecharacteristics>
																		<channelcount>2</channelcount>
																	</audio>
																</media>
															</file>
															<filter>
																<effect>
																	<name>Basic Motion</name>
																	<effectid>basic</effectid>
																	<effectcategory>motion</effectcategory>
																	<effecttype>motion</effecttype>
																	<mediatype>video</mediatype>
																	<pproBypass>false</pproBypass>
																	<parameter authoringApp="PremierePro">
																		<parameterid>scale</parameterid>
																		<name>Scale</name>
																		<valuemin>0</valuemin>
																		<valuemax>1000</valuemax>
																		<value>128</value>
																	</parameter>
																	<parameter authoringApp="PremierePro">
																		<parameterid>rotation</parameterid>
																		<name>Rotation</name>
																		<valuemin>-8640</valuemin>
																		<valuemax>8640</valuemax>
																		<value>0</value>
																	</parameter>
																	<parameter authoringApp="PremierePro">
																		<parameterid>center</parameterid>
																		<name>Center</name>
																		<value>
																			<horiz>0</horiz>
																			<vert>0</vert>
																		</value>
																	</parameter>
																	<parameter authoringApp="PremierePro">
																		<parameterid>centerOffset</parameterid>
																		<name>Anchor Point</name>
																		<value>
																			<horiz>0</horiz>
																			<vert>0</vert>
																		</value>
																	</parameter>
																	<parameter authoringApp="PremierePro">
																		<parameterid>antiflicker</parameterid>
																		<name>Anti-flicker Filter</name>
																		<valuemin>0.0</valuemin>
																		<valuemax>1.0</valuemax>
																		<value>0</value>
																	</parameter>
																</effect>
															</filter>
															<filter>
																<effect>
																	<name>Time Remap</name>
																	<effectid>timeremap</effectid>
																	<effectcategory>motion</effectcategory>
																	<effecttype>motion</effecttype>
																	<mediatype>video</mediatype>
																	<parameter authoringApp="PremierePro">
																		<parameterid>variablespeed</parameterid>
																		<name>variablespeed</name>
																		<valuemin>0</valuemin>
																		<valuemax>1</valuemax>
																		<value>0</value>
																	</parameter>
																	<parameter authoringApp="PremierePro">
																		<parameterid>speed</parameterid>
																		<name>speed</name>
																		<valuemin>-100000</valuemin>
																		<valuemax>100000</valuemax>
																		<value>123.154</value>
																	</parameter>
																	<parameter authoringApp="PremierePro">
																		<parameterid>reverse</parameterid>
																		<name>reverse</name>
																		<value>FALSE</value>
																	</parameter>
																	<parameter authoringApp="PremierePro">
																		<parameterid>frameblending</parameterid>
																		<name>frameblending</name>
																		<value>FALSE</value>
																	</parameter>
																	<parameter authoringApp="PremierePro">
																		<parameterid>graphdict</parameterid>
																		<name>graphdict</name>
																		<valuemin>0</valuemin>
																		<valuemax>64351</valuemax>
																		<value>0</value>
																		<keyframe>
																			<when>0</when>
																			<value>0</value>
																			<speedvirtualkf>TRUE</speedvirtualkf>
																			<speedkfstart>TRUE</speedkfstart>
																		</keyframe>
																		<keyframe>
																			<when>2119</when>
																			<value>2609</value>
																			<speedvirtualkf>TRUE</speedvirtualkf>
																			<speedkfin>TRUE</speedkfin>
																		</keyframe>
																		<keyframe>
																			<when>2416</when>
																			<value>2975</value>
																			<speedvirtualkf>TRUE</speedvirtualkf>
																			<speedkfout>TRUE</speedkfout>
																		</keyframe>
																		<keyframe>
																			<when>52253</when>
																			<value>64351</value>
																			<speedvirtualkf>TRUE</speedvirtualkf>
																			<speedkfend>TRUE</speedkfend>
																		</keyframe>
																		<interpolation>
																			<name>FCPCurve</name>
																		</interpolation>
																	</parameter>
																</effect>
															</filter>
															<logginginfo>
																<description></description>
																<scene></scene>
																<shottake></shottake>
																<lognote>https://www.youtube.com/watch?v=X7wPdwX7veo</lognote>
																<good></good>
																<originalvideofilename></originalvideofilename>
																<originalaudiofilename></originalaudiofilename>
															</logginginfo>
															<colorinfo>
																<lut></lut>
																<lut1></lut1>
																<asc_sop></asc_sop>
																<asc_sat></asc_sat>
																<lut2></lut2>
															</colorinfo>
															<labels>
																<label2>Iris</label2>
															</labels>
														</clipitem>
														<clipitem id="clipitem-456">
															<masterclipid>masterclip-152</masterclipid>
															<name>(Day’s Crochet)_The Cabana Clutch~ crochet boho summer clutch bag_X7wPdwX7veo_YT.mp4</name>
															<enabled>TRUE</enabled>
															<duration>51947</duration>
															<rate>
																<timebase>30</timebase>
																<ntsc>TRUE</ntsc>
															</rate>
															<start>298</start>
															<end>566</end>
															<in>12589</in>
															<out>12856</out>
															<pproTicksIn>132178029984000</pproTicksIn>
															<pproTicksOut>134991951494400</pproTicksOut>
															<alphatype>none</alphatype>
															<file id="file-130"/>
															<filter>
																<effect>
																	<name>Basic Motion</name>
																	<effectid>basic</effectid>
																	<effectcategory>motion</effectcategory>
																	<effecttype>motion</effecttype>
																	<mediatype>video</mediatype>
																	<pproBypass>false</pproBypass>
																	<parameter authoringApp="PremierePro">
																		<parameterid>scale</parameterid>
																		<name>Scale</name>
																		<valuemin>0</valuemin>
																		<valuemax>1000</valuemax>
																		<value>128</value>
																	</parameter>
																	<parameter authoringApp="PremierePro">
																		<parameterid>rotation</parameterid>
																		<name>Rotation</name>
																		<valuemin>-8640</valuemin>
																		<valuemax>8640</valuemax>
																		<value>0</value>
																	</parameter>
																	<parameter authoringApp="PremierePro">
																		<parameterid>center</parameterid>
																		<name>Center</name>
																		<value>
																			<horiz>0</horiz>
																			<vert>0</vert>
																		</value>
																	</parameter>
																	<parameter authoringApp="PremierePro">
																		<parameterid>centerOffset</parameterid>
																		<name>Anchor Point</name>
																		<value>
																			<horiz>0</horiz>
																			<vert>0</vert>
																		</value>
																	</parameter>
																	<parameter authoringApp="PremierePro">
																		<parameterid>antiflicker</parameterid>
																		<name>Anti-flicker Filter</name>
																		<valuemin>0.0</valuemin>
																		<valuemax>1.0</valuemax>
																		<value>0</value>
																	</parameter>
																</effect>
															</filter>
															<filter>
																<effect>
																	<name>Time Remap</name>
																	<effectid>timeremap</effectid>
																	<effectcategory>motion</effectcategory>
																	<effecttype>motion</effecttype>
																	<mediatype>video</mediatype>
																	<parameter authoringApp="PremierePro">
																		<parameterid>variablespeed</parameterid>
																		<name>variablespeed</name>
																		<valuemin>0</valuemin>
																		<valuemax>1</valuemax>
																		<value>0</value>
																	</parameter>
																	<parameter authoringApp="PremierePro">
																		<parameterid>speed</parameterid>
																		<name>speed</name>
																		<valuemin>-100000</valuemin>
																		<valuemax>100000</valuemax>
																		<value>123.881</value>
																	</parameter>
																	<parameter authoringApp="PremierePro">
																		<parameterid>reverse</parameterid>
																		<name>reverse</name>
																		<value>FALSE</value>
																	</parameter>
																	<parameter authoringApp="PremierePro">
																		<parameterid>frameblending</parameterid>
																		<name>frameblending</name>
																		<value>FALSE</value>
																	</parameter>
																	<parameter authoringApp="PremierePro">
																		<parameterid>graphdict</parameterid>
																		<name>graphdict</name>
																		<valuemin>0</valuemin>
																		<valuemax>64352</valuemax>
																		<value>0</value>
																		<keyframe>
																			<when>0</when>
																			<value>0</value>
																			<speedvirtualkf>TRUE</speedvirtualkf>
																			<speedkfstart>TRUE</speedkfstart>
																		</keyframe>
																		<keyframe>
																			<when>12589</when>
																			<value>15595</value>
																			<speedvirtualkf>TRUE</speedvirtualkf>
																			<speedkfin>TRUE</speedkfin>
																		</keyframe>
																		<keyframe>
																			<when>12856</when>
																			<value>15926</value>
																			<speedvirtualkf>TRUE</speedvirtualkf>
																			<speedkfout>TRUE</speedkfout>
																		</keyframe>
																		<keyframe>
																			<when>51947</when>
																			<value>64352</value>
																			<speedvirtualkf>TRUE</speedvirtualkf>
																			<speedkfend>TRUE</speedkfend>
																		</keyframe>
																		<interpolation>
																			<name>FCPCurve</name>
																		</interpolation>
																	</parameter>
																</effect>
															</filter>
															<logginginfo>
																<description></description>
																<scene></scene>
																<shottake></shottake>
																<lognote>https://www.youtube.com/watch?v=X7wPdwX7veo</lognote>
																<good></good>
																<originalvideofilename></originalvideofilename>
																<originalaudiofilename></originalaudiofilename>
															</logginginfo>
															<colorinfo>
																<lut></lut>
																<lut1></lut1>
																<asc_sop></asc_sop>
																<asc_sat></asc_sat>
																<lut2></lut2>
															</colorinfo>
															<labels>
																<label2>Iris</label2>
															</labels>
														</clipitem>
														<clipitem id="clipitem-457">
															<masterclipid>masterclip-152</masterclipid>
															<name>(Day’s Crochet)_The Cabana Clutch~ crochet boho summer clutch bag_X7wPdwX7veo_YT.mp4</name>
															<enabled>TRUE</enabled>
															<duration>53104</duration>
															<rate>
																<timebase>30</timebase>
																<ntsc>TRUE</ntsc>
															</rate>
															<start>566</start>
															<end>769</end>
															<in>30226</in>
															<out>30428</out>
															<pproTicksIn>310446738201600</pproTicksIn>
															<pproTicksOut>312531752332800</pproTicksOut>
															<alphatype>none</alphatype>
															<file id="file-130"/>
															<filter>
																<effect>
																	<name>Basic Motion</name>
																	<effectid>basic</effectid>
																	<effectcategory>motion</effectcategory>
																	<effecttype>motion</effecttype>
																	<mediatype>video</mediatype>
																	<pproBypass>false</pproBypass>
																	<parameter authoringApp="PremierePro">
																		<parameterid>scale</parameterid>
																		<name>Scale</name>
																		<valuemin>0</valuemin>
																		<valuemax>1000</valuemax>
																		<value>134</value>
																	</parameter>
																	<parameter authoringApp="PremierePro">
																		<parameterid>rotation</parameterid>
																		<name>Rotation</name>
																		<valuemin>-8640</valuemin>
																		<valuemax>8640</valuemax>
																		<value>0</value>
																	</parameter>
																	<parameter authoringApp="PremierePro">
																		<parameterid>center</parameterid>
																		<name>Center</name>
																		<value>
																			<horiz>0</horiz>
																			<vert>0</vert>
																		</value>
																	</parameter>
																	<parameter authoringApp="PremierePro">
																		<parameterid>centerOffset</parameterid>
																		<name>Anchor Point</name>
																		<value>
																			<horiz>0</horiz>
																			<vert>0</vert>
																		</value>
																	</parameter>
																	<parameter authoringApp="PremierePro">
																		<parameterid>antiflicker</parameterid>
																		<name>Anti-flicker Filter</name>
																		<valuemin>0.0</valuemin>
																		<valuemax>1.0</valuemax>
																		<value>0</value>
																	</parameter>
																</effect>
															</filter>
															<filter>
																<effect>
																	<name>Time Remap</name>
																	<effectid>timeremap</effectid>
																	<effectcategory>motion</effectcategory>
																	<effecttype>motion</effecttype>
																	<mediatype>video</mediatype>
																	<parameter authoringApp="PremierePro">
																		<parameterid>variablespeed</parameterid>
																		<name>variablespeed</name>
																		<valuemin>0</valuemin>
																		<valuemax>1</valuemax>
																		<value>0</value>
																	</parameter>
																	<parameter authoringApp="PremierePro">
																		<parameterid>speed</parameterid>
																		<name>speed</name>
																		<valuemin>-100000</valuemin>
																		<valuemax>100000</valuemax>
																		<value>121.182</value>
																	</parameter>
																	<parameter authoringApp="PremierePro">
																		<parameterid>reverse</parameterid>
																		<name>reverse</name>
																		<value>FALSE</value>
																	</parameter>
																	<parameter authoringApp="PremierePro">
																		<parameterid>frameblending</parameterid>
																		<name>frameblending</name>
																		<value>FALSE</value>
																	</parameter>
																	<parameter authoringApp="PremierePro">
																		<parameterid>graphdict</parameterid>
																		<name>graphdict</name>
																		<valuemin>0</valuemin>
																		<valuemax>64352</valuemax>
																		<value>0</value>
																		<keyframe>
																			<when>0</when>
																			<value>0</value>
																			<speedvirtualkf>TRUE</speedvirtualkf>
																			<speedkfstart>TRUE</speedkfstart>
																		</keyframe>
																		<keyframe>
																			<when>30226</when>
																			<value>36628</value>
																			<speedvirtualkf>TRUE</speedvirtualkf>
																			<speedkfin>TRUE</speedkfin>
																		</keyframe>
																		<keyframe>
																			<when>30428</when>
																			<value>36873</value>
																			<speedvirtualkf>TRUE</speedvirtualkf>
																			<speedkfout>TRUE</speedkfout>
																		</keyframe>
																		<keyframe>
																			<when>53104</when>
																			<value>64352</value>
																			<speedvirtualkf>TRUE</speedvirtualkf>
																			<speedkfend>TRUE</speedkfend>
																		</keyframe>
																		<interpolation>
																			<name>FCPCurve</name>
																		</interpolation>
																	</parameter>
																</effect>
															</filter>
															<logginginfo>
																<description></description>
																<scene></scene>
																<shottake></shottake>
																<lognote>https://www.youtube.com/watch?v=X7wPdwX7veo</lognote>
																<good></good>
																<originalvideofilename></originalvideofilename>
																<originalaudiofilename></originalaudiofilename>
															</logginginfo>
															<colorinfo>
																<lut></lut>
																<lut1></lut1>
																<asc_sop></asc_sop>
																<asc_sat></asc_sat>
																<lut2></lut2>
															</colorinfo>
															<labels>
																<label2>Iris</label2>
															</labels>
														</clipitem>
														<clipitem id="clipitem-458">
															<masterclipid>masterclip-152</masterclipid>
															<name>(Day’s Crochet)_The Cabana Clutch~ crochet boho summer clutch bag_X7wPdwX7veo_YT.mp4</name>
															<enabled>TRUE</enabled>
															<duration>55048</duration>
															<rate>
																<timebase>30</timebase>
																<ntsc>TRUE</ntsc>
															</rate>
															<start>769</start>
															<end>1053</end>
															<in>41249</in>
															<out>41532</out>
															<pproTicksIn>408696672384000</pproTicksIn>
															<pproTicksOut>411510593894400</pproTicksOut>
															<alphatype>none</alphatype>
															<file id="file-130"/>
															<filter>
																<effect>
																	<name>Basic Motion</name>
																	<effectid>basic</effectid>
																	<effectcategory>motion</effectcategory>
																	<effecttype>motion</effecttype>
																	<mediatype>video</mediatype>
																	<pproBypass>false</pproBypass>
																	<parameter authoringApp="PremierePro">
																		<parameterid>scale</parameterid>
																		<name>Scale</name>
																		<valuemin>0</valuemin>
																		<valuemax>1000</valuemax>
																		<value>128</value>
																	</parameter>
																	<parameter authoringApp="PremierePro">
																		<parameterid>rotation</parameterid>
																		<name>Rotation</name>
																		<valuemin>-8640</valuemin>
																		<valuemax>8640</valuemax>
																		<value>0</value>
																	</parameter>
																	<parameter authoringApp="PremierePro">
																		<parameterid>center</parameterid>
																		<name>Center</name>
																		<value>
																			<horiz>0</horiz>
																			<vert>0</vert>
																		</value>
																	</parameter>
																	<parameter authoringApp="PremierePro">
																		<parameterid>centerOffset</parameterid>
																		<name>Anchor Point</name>
																		<value>
																			<horiz>0</horiz>
																			<vert>0</vert>
																		</value>
																	</parameter>
																	<parameter authoringApp="PremierePro">
																		<parameterid>antiflicker</parameterid>
																		<name>Anti-flicker Filter</name>
																		<valuemin>0.0</valuemin>
																		<valuemax>1.0</valuemax>
																		<value>0</value>
																	</parameter>
																</effect>
															</filter>
															<filter>
																<effect>
																	<name>Time Remap</name>
																	<effectid>timeremap</effectid>
																	<effectcategory>motion</effectcategory>
																	<effecttype>motion</effecttype>
																	<mediatype>video</mediatype>
																	<parameter authoringApp="PremierePro">
																		<parameterid>variablespeed</parameterid>
																		<name>variablespeed</name>
																		<valuemin>0</valuemin>
																		<valuemax>1</valuemax>
																		<value>0</value>
																	</parameter>
																	<parameter authoringApp="PremierePro">
																		<parameterid>speed</parameterid>
																		<name>speed</name>
																		<valuemin>-100000</valuemin>
																		<valuemax>100000</valuemax>
																		<value>116.901</value>
																	</parameter>
																	<parameter authoringApp="PremierePro">
																		<parameterid>reverse</parameterid>
																		<name>reverse</name>
																		<value>FALSE</value>
																	</parameter>
																	<parameter authoringApp="PremierePro">
																		<parameterid>frameblending</parameterid>
																		<name>frameblending</name>
																		<value>FALSE</value>
																	</parameter>
																	<parameter authoringApp="PremierePro">
																		<parameterid>graphdict</parameterid>
																		<name>graphdict</name>
																		<valuemin>0</valuemin>
																		<valuemax>64351</valuemax>
																		<value>0</value>
																		<keyframe>
																			<when>0</when>
																			<value>0</value>
																			<speedvirtualkf>TRUE</speedvirtualkf>
																			<speedkfstart>TRUE</speedkfstart>
																		</keyframe>
																		<keyframe>
																			<when>41249</when>
																			<value>48220</value>
																			<speedvirtualkf>TRUE</speedvirtualkf>
																			<speedkfin>TRUE</speedkfin>
																		</keyframe>
																		<keyframe>
																			<when>41532</when>
																			<value>48551</value>
																			<speedvirtualkf>TRUE</speedvirtualkf>
																			<speedkfout>TRUE</speedkfout>
																		</keyframe>
																		<keyframe>
																			<when>55048</when>
																			<value>64351</value>
																			<speedvirtualkf>TRUE</speedvirtualkf>
																			<speedkfend>TRUE</speedkfend>
																		</keyframe>
																		<interpolation>
																			<name>FCPCurve</name>
																		</interpolation>
																	</parameter>
																</effect>
															</filter>
															<logginginfo>
																<description></description>
																<scene></scene>
																<shottake></shottake>
																<lognote>https://www.youtube.com/watch?v=X7wPdwX7veo</lognote>
																<good></good>
																<originalvideofilename></originalvideofilename>
																<originalaudiofilename></originalaudiofilename>
															</logginginfo>
															<colorinfo>
																<lut></lut>
																<lut1></lut1>
																<asc_sop></asc_sop>
																<asc_sat></asc_sat>
																<lut2></lut2>
															</colorinfo>
															<labels>
																<label2>Iris</label2>
															</labels>
														</clipitem>
														<clipitem id="clipitem-459">
															<masterclipid>masterclip-152</masterclipid>
															<name>(Day’s Crochet)_The Cabana Clutch~ crochet boho summer clutch bag_X7wPdwX7veo_YT.mp4</name>
															<enabled>TRUE</enabled>
															<duration>53456</duration>
															<rate>
																<timebase>30</timebase>
																<ntsc>TRUE</ntsc>
															</rate>
															<start>1053</start>
															<end>1313</end>
															<in>47045</in>
															<out>47304</out>
															<pproTicksIn>480010936204800</pproTicksIn>
															<pproTicksOut>482663820038400</pproTicksOut>
															<alphatype>none</alphatype>
															<file id="file-130"/>
															<filter>
																<effect>
																	<name>Basic Motion</name>
																	<effectid>basic</effectid>
																	<effectcategory>motion</effectcategory>
																	<effecttype>motion</effecttype>
																	<mediatype>video</mediatype>
																	<pproBypass>false</pproBypass>
																	<parameter authoringApp="PremierePro">
																		<parameterid>scale</parameterid>
																		<name>Scale</name>
																		<valuemin>0</valuemin>
																		<valuemax>1000</valuemax>
																		<value>135</value>
																	</parameter>
																	<parameter authoringApp="PremierePro">
																		<parameterid>rotation</parameterid>
																		<name>Rotation</name>
																		<valuemin>-8640</valuemin>
																		<valuemax>8640</valuemax>
																		<value>0</value>
																	</parameter>
																	<parameter authoringApp="PremierePro">
																		<parameterid>center</parameterid>
																		<name>Center</name>
																		<value>
																			<horiz>0</horiz>
																			<vert>0</vert>
																		</value>
																	</parameter>
																	<parameter authoringApp="PremierePro">
																		<parameterid>centerOffset</parameterid>
																		<name>Anchor Point</name>
																		<value>
																			<horiz>0</horiz>
																			<vert>0</vert>
																		</value>
																	</parameter>
																	<parameter authoringApp="PremierePro">
																		<parameterid>antiflicker</parameterid>
																		<name>Anti-flicker Filter</name>
																		<valuemin>0.0</valuemin>
																		<valuemax>1.0</valuemax>
																		<value>0</value>
																	</parameter>
																</effect>
															</filter>
															<filter>
																<effect>
																	<name>Time Remap</name>
																	<effectid>timeremap</effectid>
																	<effectcategory>motion</effectcategory>
																	<effecttype>motion</effecttype>
																	<mediatype>video</mediatype>
																	<parameter authoringApp="PremierePro">
																		<parameterid>variablespeed</parameterid>
																		<name>variablespeed</name>
																		<valuemin>0</valuemin>
																		<valuemax>1</valuemax>
																		<value>0</value>
																	</parameter>
																	<parameter authoringApp="PremierePro">
																		<parameterid>speed</parameterid>
																		<name>speed</name>
																		<valuemin>-100000</valuemin>
																		<valuemax>100000</valuemax>
																		<value>120.385</value>
																	</parameter>
																	<parameter authoringApp="PremierePro">
																		<parameterid>reverse</parameterid>
																		<name>reverse</name>
																		<value>FALSE</value>
																	</parameter>
																	<parameter authoringApp="PremierePro">
																		<parameterid>frameblending</parameterid>
																		<name>frameblending</name>
																		<value>FALSE</value>
																	</parameter>
																	<parameter authoringApp="PremierePro">
																		<parameterid>graphdict</parameterid>
																		<name>graphdict</name>
																		<valuemin>0</valuemin>
																		<valuemax>64352</valuemax>
																		<value>0</value>
																		<keyframe>
																			<when>0</when>
																			<value>0</value>
																			<speedvirtualkf>TRUE</speedvirtualkf>
																			<speedkfstart>TRUE</speedkfstart>
																		</keyframe>
																		<keyframe>
																			<when>47045</when>
																			<value>56634</value>
																			<speedvirtualkf>TRUE</speedvirtualkf>
																			<speedkfin>TRUE</speedkfin>
																		</keyframe>
																		<keyframe>
																			<when>47304</when>
																			<value>56946</value>
																			<speedvirtualkf>TRUE</speedvirtualkf>
																			<speedkfout>TRUE</speedkfout>
																		</keyframe>
																		<keyframe>
																			<when>53456</when>
																			<value>64352</value>
																			<speedvirtualkf>TRUE</speedvirtualkf>
																			<speedkfend>TRUE</speedkfend>
																		</keyframe>
																		<interpolation>
																			<name>FCPCurve</name>
																		</interpolation>
																	</parameter>
																</effect>
															</filter>
															<logginginfo>
																<description></description>
																<scene></scene>
																<shottake></shottake>
																<lognote>https://www.youtube.com/watch?v=X7wPdwX7veo</lognote>
																<good></good>
																<originalvideofilename></originalvideofilename>
																<originalaudiofilename></originalaudiofilename>
															</logginginfo>
															<colorinfo>
																<lut></lut>
																<lut1></lut1>
																<asc_sop></asc_sop>
																<asc_sat></asc_sat>
																<lut2></lut2>
															</colorinfo>
															<labels>
																<label2>Iris</label2>
															</labels>
														</clipitem>
														<clipitem id="clipitem-460">
															<masterclipid>masterclip-152</masterclipid>
															<name>(Day’s Crochet)_The Cabana Clutch~ crochet boho summer clutch bag_X7wPdwX7veo_YT.mp4</name>
															<enabled>TRUE</enabled>
															<duration>64353</duration>
															<rate>
																<timebase>30</timebase>
																<ntsc>TRUE</ntsc>
															</rate>
															<start>1313</start>
															<end>1472</end>
															<in>57306</in>
															<out>57465</out>
															<pproTicksIn>485706584563200</pproTicksIn>
															<pproTicksOut>487054215648000</pproTicksOut>
															<alphatype>none</alphatype>
															<file id="file-130"/>
															<filter>
																<effect>
																	<name>Basic Motion</name>
																	<effectid>basic</effectid>
																	<effectcategory>motion</effectcategory>
																	<effecttype>motion</effecttype>
																	<mediatype>video</mediatype>
																	<pproBypass>false</pproBypass>
																	<parameter authoringApp="PremierePro">
																		<parameterid>scale</parameterid>
																		<name>Scale</name>
																		<valuemin>0</valuemin>
																		<valuemax>1000</valuemax>
																		<value>135</value>
																	</parameter>
																	<parameter authoringApp="PremierePro">
																		<parameterid>rotation</parameterid>
																		<name>Rotation</name>
																		<valuemin>-8640</valuemin>
																		<valuemax>8640</valuemax>
																		<value>0</value>
																	</parameter>
																	<parameter authoringApp="PremierePro">
																		<parameterid>center</parameterid>
																		<name>Center</name>
																		<value>
																			<horiz>0</horiz>
																			<vert>0</vert>
																		</value>
																	</parameter>
																	<parameter authoringApp="PremierePro">
																		<parameterid>centerOffset</parameterid>
																		<name>Anchor Point</name>
																		<value>
																			<horiz>0</horiz>
																			<vert>0</vert>
																		</value>
																	</parameter>
																	<parameter authoringApp="PremierePro">
																		<parameterid>antiflicker</parameterid>
																		<name>Anti-flicker Filter</name>
																		<valuemin>0.0</valuemin>
																		<valuemax>1.0</valuemax>
																		<value>0</value>
																	</parameter>
																</effect>
															</filter>
															<logginginfo>
																<description></description>
																<scene></scene>
																<shottake></shottake>
																<lognote>https://www.youtube.com/watch?v=X7wPdwX7veo</lognote>
																<good></good>
																<originalvideofilename></originalvideofilename>
																<originalaudiofilename></originalaudiofilename>
															</logginginfo>
															<colorinfo>
																<lut></lut>
																<lut1></lut1>
																<asc_sop></asc_sop>
																<asc_sat></asc_sat>
																<lut2></lut2>
															</colorinfo>
															<labels>
																<label2>Iris</label2>
															</labels>
														</clipitem>
														<clipitem id="clipitem-461">
															<masterclipid>masterclip-152</masterclipid>
															<name>(Day’s Crochet)_The Cabana Clutch~ crochet boho summer clutch bag_X7wPdwX7veo_YT.mp4</name>
															<enabled>TRUE</enabled>
															<duration>64353</duration>
															<rate>
																<timebase>30</timebase>
																<ntsc>TRUE</ntsc>
															</rate>
															<start>1472</start>
															<end>1590</end>
															<in>62321</in>
															<out>62439</out>
															<pproTicksIn>528212055571200</pproTicksIn>
															<pproTicksOut>529212184300800</pproTicksOut>
															<alphatype>none</alphatype>
															<file id="file-130"/>
															<filter>
																<effect>
																	<name>Basic Motion</name>
																	<effectid>basic</effectid>
																	<effectcategory>motion</effectcategory>
																	<effecttype>motion</effecttype>
																	<mediatype>video</mediatype>
																	<pproBypass>false</pproBypass>
																	<parameter authoringApp="PremierePro">
																		<parameterid>scale</parameterid>
																		<name>Scale</name>
																		<valuemin>0</valuemin>
																		<valuemax>1000</valuemax>
																		<value>128</value>
																	</parameter>
																	<parameter authoringApp="PremierePro">
																		<parameterid>rotation</parameterid>
																		<name>Rotation</name>
																		<valuemin>-8640</valuemin>
																		<valuemax>8640</valuemax>
																		<value>0</value>
																	</parameter>
																	<parameter authoringApp="PremierePro">
																		<parameterid>center</parameterid>
																		<name>Center</name>
																		<value>
																			<horiz>0</horiz>
																			<vert>0</vert>
																		</value>
																	</parameter>
																	<parameter authoringApp="PremierePro">
																		<parameterid>centerOffset</parameterid>
																		<name>Anchor Point</name>
																		<value>
																			<horiz>0</horiz>
																			<vert>0</vert>
																		</value>
																	</parameter>
																	<parameter authoringApp="PremierePro">
																		<parameterid>antiflicker</parameterid>
																		<name>Anti-flicker Filter</name>
																		<valuemin>0.0</valuemin>
																		<valuemax>1.0</valuemax>
																		<value>0</value>
																	</parameter>
																</effect>
															</filter>
															<logginginfo>
																<description></description>
																<scene></scene>
																<shottake></shottake>
																<lognote>https://www.youtube.com/watch?v=X7wPdwX7veo</lognote>
																<good></good>
																<originalvideofilename></originalvideofilename>
																<originalaudiofilename></originalaudiofilename>
															</logginginfo>
															<colorinfo>
																<lut></lut>
																<lut1></lut1>
																<asc_sop></asc_sop>
																<asc_sat></asc_sat>
																<lut2></lut2>
															</colorinfo>
															<labels>
																<label2>Iris</label2>
															</labels>
														</clipitem>
														<clipitem id="clipitem-462">
															<masterclipid>masterclip-152</masterclipid>
															<name>(Day’s Crochet)_The Cabana Clutch~ crochet boho summer clutch bag_X7wPdwX7veo_YT.mp4</name>
															<enabled>TRUE</enabled>
															<duration>114562</duration>
															<rate>
																<timebase>30</timebase>
																<ntsc>TRUE</ntsc>
															</rate>
															<start>1590</start>
															<end>1731</end>
															<in>113265</in>
															<out>113405</out>
															<pproTicksIn>539255849932800</pproTicksIn>
															<pproTicksOut>539927154166399</pproTicksOut>
															<alphatype>none</alphatype>
															<file id="file-130"/>
															<filter>
																<effect>
																	<name>Basic Motion</name>
																	<effectid>basic</effectid>
																	<effectcategory>motion</effectcategory>
																	<effecttype>motion</effecttype>
																	<mediatype>video</mediatype>
																	<pproBypass>false</pproBypass>
																	<parameter authoringApp="PremierePro">
																		<parameterid>scale</parameterid>
																		<name>Scale</name>
																		<valuemin>0</valuemin>
																		<valuemax>1000</valuemax>
																		<value>128</value>
																		<keyframe>
																			<when>113264</when>
																			<value>128</value>
																		</keyframe>
																		<keyframe>
																			<when>113423</when>
																			<value>138</value>
																		</keyframe>
																	</parameter>
																	<parameter authoringApp="PremierePro">
																		<parameterid>rotation</parameterid>
																		<name>Rotation</name>
																		<valuemin>-8640</valuemin>
																		<valuemax>8640</valuemax>
																		<value>0</value>
																	</parameter>
																	<parameter authoringApp="PremierePro">
																		<parameterid>center</parameterid>
																		<name>Center</name>
																		<value>
																			<horiz>0</horiz>
																			<vert>0</vert>
																		</value>
																	</parameter>
																	<parameter authoringApp="PremierePro">
																		<parameterid>centerOffset</parameterid>
																		<name>Anchor Point</name>
																		<value>
																			<horiz>0</horiz>
																			<vert>0</vert>
																		</value>
																	</parameter>
																	<parameter authoringApp="PremierePro">
																		<parameterid>antiflicker</parameterid>
																		<name>Anti-flicker Filter</name>
																		<valuemin>0.0</valuemin>
																		<valuemax>1.0</valuemax>
																		<value>0</value>
																	</parameter>
																</effect>
															</filter>
															<filter>
																<effect>
																	<name>Time Remap</name>
																	<effectid>timeremap</effectid>
																	<effectcategory>motion</effectcategory>
																	<effecttype>motion</effecttype>
																	<mediatype>video</mediatype>
																	<parameter authoringApp="PremierePro">
																		<parameterid>variablespeed</parameterid>
																		<name>variablespeed</name>
																		<valuemin>0</valuemin>
																		<valuemax>1</valuemax>
																		<value>0</value>
																	</parameter>
																	<parameter authoringApp="PremierePro">
																		<parameterid>speed</parameterid>
																		<name>speed</name>
																		<valuemin>-100000</valuemin>
																		<valuemax>100000</valuemax>
																		<value>56.1728</value>
																	</parameter>
																	<parameter authoringApp="PremierePro">
																		<parameterid>reverse</parameterid>
																		<name>reverse</name>
																		<value>FALSE</value>
																	</parameter>
																	<parameter authoringApp="PremierePro">
																		<parameterid>frameblending</parameterid>
																		<name>frameblending</name>
																		<value>FALSE</value>
																	</parameter>
																	<parameter authoringApp="PremierePro">
																		<parameterid>graphdict</parameterid>
																		<name>graphdict</name>
																		<valuemin>0</valuemin>
																		<valuemax>64352</valuemax>
																		<value>0</value>
																		<keyframe>
																			<when>0</when>
																			<value>0</value>
																			<speedvirtualkf>TRUE</speedvirtualkf>
																			<speedkfstart>TRUE</speedkfstart>
																		</keyframe>
																		<keyframe>
																			<when>113265</when>
																			<value>63624</value>
																			<speedvirtualkf>TRUE</speedvirtualkf>
																			<speedkfin>TRUE</speedkfin>
																		</keyframe>
																		<keyframe>
																			<when>113405</when>
																			<value>63702</value>
																			<speedvirtualkf>TRUE</speedvirtualkf>
																			<speedkfout>TRUE</speedkfout>
																		</keyframe>
																		<keyframe>
																			<when>114562</when>
																			<value>64352</value>
																			<speedvirtualkf>TRUE</speedvirtualkf>
																			<speedkfend>TRUE</speedkfend>
																		</keyframe>
																		<interpolation>
																			<name>FCPCurve</name>
																		</interpolation>
																	</parameter>
																</effect>
															</filter>
															<logginginfo>
																<description></description>
																<scene></scene>
																<shottake></shottake>
																<lognote>https://www.youtube.com/watch?v=X7wPdwX7veo</lognote>
																<good></good>
																<originalvideofilename></originalvideofilename>
																<originalaudiofilename></originalaudiofilename>
															</logginginfo>
															<colorinfo>
																<lut></lut>
																<lut1></lut1>
																<asc_sop></asc_sop>
																<asc_sat></asc_sat>
																<lut2></lut2>
															</colorinfo>
															<labels>
																<label2>Iris</label2>
															</labels>
														</clipitem>
														<enabled>TRUE</enabled>
														<locked>FALSE</locked>
													</track>
													<track TL.SQTrackShy="0" TL.SQTrackExpandedHeight="25" TL.SQTrackExpanded="0" MZ.TrackTargeted="0">
														<clipitem id="clipitem-463">
															<masterclipid>masterclip-153</masterclipid>
															<name>day's crochet</name>
															<enabled>TRUE</enabled>
															<duration>5844</duration>
															<rate>
																<timebase>30</timebase>
																<ntsc>TRUE</ntsc>
															</rate>
															<start>0</start>
															<end>1731</end>
															<in>0</in>
															<out>1731</out>
															<pproTicksIn>0</pproTicksIn>
															<pproTicksOut>14671379923200</pproTicksOut>
															<alphatype>straight</alphatype>
															<pixelaspectratio>square</pixelaspectratio>
															<anamorphic>FALSE</anamorphic>
															<file id="file-131">
																<name>1080/AE Attribution.aep</name>
																<pathurl>file://localhost/Volumes/ATM%20JR%202TB/Crafty/Master%20Assets%20/Attribution/AE%20Attribution.aep</pathurl>
																<rate>
																	<timebase>30</timebase>
																	<ntsc>TRUE</ntsc>
																</rate>
																<duration>5844</duration>
																<timecode>
																	<rate>
																		<timebase>30</timebase>
																		<ntsc>TRUE</ntsc>
																	</rate>
																	<string>00;00;00;00</string>
																	<frame>0</frame>
																	<displayformat>DF</displayformat>
																</timecode>
																<media>
																	<video>
																		<samplecharacteristics>
																			<rate>
																				<timebase>30</timebase>
																				<ntsc>TRUE</ntsc>
																			</rate>
																			<width>1920</width>
																			<height>1080</height>
																			<anamorphic>FALSE</anamorphic>
																			<pixelaspectratio>square</pixelaspectratio>
																			<fielddominance>lower</fielddominance>
																		</samplecharacteristics>
																	</video>
																</media>
															</file>
															<logginginfo>
																<description></description>
																<scene></scene>
																<shottake></shottake>
																<lognote></lognote>
																<good></good>
																<originalvideofilename></originalvideofilename>
																<originalaudiofilename></originalaudiofilename>
															</logginginfo>
															<colorinfo>
																<lut></lut>
																<lut1></lut1>
																<asc_sop></asc_sop>
																<asc_sat></asc_sat>
																<lut2></lut2>
															</colorinfo>
															<labels>
																<label2>Rose</label2>
															</labels>
														</clipitem>
														<enabled>TRUE</enabled>
														<locked>FALSE</locked>
													</track>
												</video>
												<audio>
													<numOutputChannels>2</numOutputChannels>
													<format>
														<samplecharacteristics>
															<depth>16</depth>
															<samplerate>48000</samplerate>
														</samplecharacteristics>
													</format>
													<outputs>
														<group>
															<index>1</index>
															<numchannels>1</numchannels>
															<downmix>0</downmix>
															<channel>
																<index>1</index>
															</channel>
														</group>
														<group>
															<index>2</index>
															<numchannels>1</numchannels>
															<downmix>0</downmix>
															<channel>
																<index>2</index>
															</channel>
														</group>
													</outputs>
													<track TL.SQTrackAudioKeyframeStyle="0" TL.SQTrackShy="0" TL.SQTrackExpandedHeight="25" TL.SQTrackExpanded="0" MZ.TrackTargeted="1" PannerCurrentValue="0.5" PannerIsInverted="true" PannerStartKeyframe="-91445760000000000,0.5,0,0,0,0,0,0" PannerName="Balance" currentExplodedTrackIndex="0" totalExplodedTrackCount="2" premiereTrackType="Stereo">
														<clipitem id="clipitem-464" premiereChannelType="stereo">
															<masterclipid>masterclip-154</masterclipid>
															<name>ES_Palm Trees - Justnormal.wav</name>
															<enabled>TRUE</enabled>
															<duration>3252</duration>
															<rate>
																<timebase>30</timebase>
																<ntsc>TRUE</ntsc>
															</rate>
															<start>0</start>
															<end>-1</end>
															<in>0</in>
															<out>1731</out>
															<pproTicksIn>0</pproTicksIn>
															<pproTicksOut>14671379923200</pproTicksOut>
															<file id="file-132">
																<name>ES_Palm Trees - Justnormal.wav</name>
																<pathurl>file://localhost/Volumes/ATM%20JR%202TB/Crafty/2023/06_June/Crafty_6-19-23/5_Music/ES_Palm%20Trees%20-%20Justnormal.wav</pathurl>
																<rate>
																	<timebase>30</timebase>
																	<ntsc>TRUE</ntsc>
																</rate>
																<duration>3252</duration>
																<timecode>
																	<rate>
																		<timebase>30</timebase>
																		<ntsc>TRUE</ntsc>
																	</rate>
																	<string>01;58;18;01</string>
																	<frame>212727</frame>
																	<displayformat>DF</displayformat>
																</timecode>
																<media>
																	<audio>
																		<samplecharacteristics>
																			<depth>16</depth>
																			<samplerate>48000</samplerate>
																		</samplecharacteristics>
																		<channelcount>2</channelcount>
																	</audio>
																</media>
															</file>
															<sourcetrack>
																<mediatype>audio</mediatype>
																<trackindex>1</trackindex>
															</sourcetrack>
															<filter>
																<effect>
																	<name>Gain</name>
																	<effectid>{61756678, 4761696e, 4b657947}</effectid>
																	<effecttype>filter</effecttype>
																	<mediatype>audio</mediatype>
																	<parameter authoringApp="PremierePro">
																		<parameterid>Gain(dB)</parameterid>
																		<name>Gain(dB)</name>
																		<valuemin>-96</valuemin>
																		<valuemax>96</valuemax>
																		<value>-8</value>
																	</parameter>
																</effect>
															</filter>
															<link>
																<linkclipref>clipitem-464</linkclipref>
																<mediatype>audio</mediatype>
																<trackindex>1</trackindex>
																<clipindex>1</clipindex>
																<groupindex>1</groupindex>
															</link>
															<link>
																<linkclipref>clipitem-465</linkclipref>
																<mediatype>audio</mediatype>
																<trackindex>2</trackindex>
																<clipindex>1</clipindex>
																<groupindex>1</groupindex>
															</link>
															<logginginfo>
																<description></description>
																<scene></scene>
																<shottake></shottake>
																<lognote></lognote>
																<good></good>
																<originalvideofilename></originalvideofilename>
																<originalaudiofilename></originalaudiofilename>
															</logginginfo>
															<colorinfo>
																<lut></lut>
																<lut1></lut1>
																<asc_sop></asc_sop>
																<asc_sat></asc_sat>
																<lut2></lut2>
															</colorinfo>
															<labels>
																<label2>Caribbean</label2>
															</labels>
														</clipitem>
														<transitionitem>
															<start>1642</start>
															<end>1731</end>
															<pproTicksIn>13908571992000</pproTicksIn>
															<pproTicksOut>14671379923200</pproTicksOut>
															<alignment>end-black</alignment>
															<cutPointTicks>762807931200</cutPointTicks>
															<rate>
																<timebase>30</timebase>
																<ntsc>TRUE</ntsc>
															</rate>
															<effect>
																<name>Cross Fade (+3dB)</name>
																<effectid>KGAudioTransCrossFade3dB</effectid>
																<effecttype>transition</effecttype>
																<mediatype>audio</mediatype>
																<wipecode>0</wipecode>
																<wipeaccuracy>100</wipeaccuracy>
																<startratio>0</startratio>
																<endratio>1</endratio>
																<reverse>FALSE</reverse>
															</effect>
														</transitionitem>
														<enabled>TRUE</enabled>
														<locked>FALSE</locked>
														<outputchannelindex>1</outputchannelindex>
													</track>
													<track TL.SQTrackAudioKeyframeStyle="0" TL.SQTrackShy="0" TL.SQTrackExpandedHeight="25" TL.SQTrackExpanded="0" MZ.TrackTargeted="1" PannerCurrentValue="0.5" PannerIsInverted="true" PannerStartKeyframe="-91445760000000000,0.5,0,0,0,0,0,0" PannerName="Balance" currentExplodedTrackIndex="1" totalExplodedTrackCount="2" premiereTrackType="Stereo">
														<clipitem id="clipitem-465" premiereChannelType="stereo">
															<masterclipid>masterclip-154</masterclipid>
															<name>ES_Palm Trees - Justnormal.wav</name>
															<enabled>TRUE</enabled>
															<duration>3252</duration>
															<rate>
																<timebase>30</timebase>
																<ntsc>TRUE</ntsc>
															</rate>
															<start>0</start>
															<end>-1</end>
															<in>0</in>
															<out>1731</out>
															<pproTicksIn>0</pproTicksIn>
															<pproTicksOut>14671379923200</pproTicksOut>
															<file id="file-132"/>
															<sourcetrack>
																<mediatype>audio</mediatype>
																<trackindex>2</trackindex>
															</sourcetrack>
															<filter>
																<effect>
																	<name>Gain</name>
																	<effectid>{61756678, 4761696e, 4b657947}</effectid>
																	<effecttype>filter</effecttype>
																	<mediatype>audio</mediatype>
																	<parameter authoringApp="PremierePro">
																		<parameterid>Gain(dB)</parameterid>
																		<name>Gain(dB)</name>
																		<valuemin>-96</valuemin>
																		<valuemax>96</valuemax>
																		<value>-8</value>
																	</parameter>
																</effect>
															</filter>
															<link>
																<linkclipref>clipitem-464</linkclipref>
																<mediatype>audio</mediatype>
																<trackindex>1</trackindex>
																<clipindex>1</clipindex>
																<groupindex>1</groupindex>
															</link>
															<link>
																<linkclipref>clipitem-465</linkclipref>
																<mediatype>audio</mediatype>
																<trackindex>2</trackindex>
																<clipindex>1</clipindex>
																<groupindex>1</groupindex>
															</link>
															<logginginfo>
																<description></description>
																<scene></scene>
																<shottake></shottake>
																<lognote></lognote>
																<good></good>
																<originalvideofilename></originalvideofilename>
																<originalaudiofilename></originalaudiofilename>
															</logginginfo>
															<colorinfo>
																<lut></lut>
																<lut1></lut1>
																<asc_sop></asc_sop>
																<asc_sat></asc_sat>
																<lut2></lut2>
															</colorinfo>
															<labels>
																<label2>Caribbean</label2>
															</labels>
														</clipitem>
														<transitionitem>
															<start>1642</start>
															<end>1731</end>
															<pproTicksIn>13908571992000</pproTicksIn>
															<pproTicksOut>14671379923200</pproTicksOut>
															<alignment>end-black</alignment>
															<cutPointTicks>762807931200</cutPointTicks>
															<rate>
																<timebase>30</timebase>
																<ntsc>TRUE</ntsc>
															</rate>
															<effect>
																<name>Cross Fade (+3dB)</name>
																<effectid>KGAudioTransCrossFade3dB</effectid>
																<effecttype>transition</effecttype>
																<mediatype>audio</mediatype>
																<wipecode>0</wipecode>
																<wipeaccuracy>100</wipeaccuracy>
																<startratio>0</startratio>
																<endratio>1</endratio>
																<reverse>FALSE</reverse>
															</effect>
														</transitionitem>
														<enabled>TRUE</enabled>
														<locked>FALSE</locked>
														<outputchannelindex>2</outputchannelindex>
													</track>
												</audio>
											</media>
											<timecode>
												<rate>
													<timebase>30</timebase>
													<ntsc>TRUE</ntsc>
												</rate>
												<string>00;00;00;00</string>
												<frame>0</frame>
												<displayformat>DF</displayformat>
											</timecode>
											<logginginfo>
												<description></description>
												<scene></scene>
												<shottake></shottake>
												<lognote></lognote>
												<good></good>
												<originalvideofilename></originalvideofilename>
												<originalaudiofilename></originalaudiofilename>
											</logginginfo>
										</sequence>
										<link>
											<linkclipref>clipitem-454</linkclipref>
											<mediatype>video</mediatype>
											<trackindex>1</trackindex>
											<clipindex>1</clipindex>
										</link>
										<link>
											<linkclipref>clipitem-490</linkclipref>
											<mediatype>audio</mediatype>
											<trackindex>1</trackindex>
											<clipindex>1</clipindex>
											<groupindex>1</groupindex>
										</link>
										<link>
											<linkclipref>clipitem-493</linkclipref>
											<mediatype>audio</mediatype>
											<trackindex>2</trackindex>
											<clipindex>1</clipindex>
											<groupindex>1</groupindex>
										</link>
										<labels>
											<label2>Forest</label2>
										</labels>
									</clipitem>
									<clipitem id="clipitem-466">
										<masterclipid>masterclip-155</masterclipid>
										<name>DIY_NIGHTLIGHTFRIGHT_2</name>
										<enabled>TRUE</enabled>
										<duration>3671</duration>
										<rate>
											<timebase>30</timebase>
											<ntsc>TRUE</ntsc>
										</rate>
										<start>1815</start>
										<end>5430</end>
										<in>0</in>
										<out>3615</out>
										<pproTicksIn>0</pproTicksIn>
										<pproTicksOut>30639536928000</pproTicksOut>
										<sequence id="sequence-34" TL.SQAudioVisibleBase="0" TL.SQVideoVisibleBase="0" TL.SQVisibleBaseTime="0" TL.SQAVDividerPosition="0.5" TL.SQHideShyTracks="0" TL.SQHeaderWidth="236" Monitor.ProgramZoomOut="30639536928000" Monitor.ProgramZoomIn="0" TL.SQTimePerPixel="0.24768734252765973" MZ.EditLine="30639536928000" MZ.Sequence.PreviewFrameSizeHeight="1080" MZ.Sequence.PreviewFrameSizeWidth="1920" MZ.Sequence.AudioTimeDisplayFormat="200" MZ.Sequence.PreviewRenderingClassID="1061109567" MZ.Sequence.PreviewRenderingPresetCodec="1634755443" MZ.Sequence.PreviewRenderingPresetPath="EncoderPresets/SequencePreview/35d109db-457b-43c1-9452-9cb7be9f121c/QuickTime.epr" MZ.Sequence.PreviewUseMaxRenderQuality="false" MZ.Sequence.PreviewUseMaxBitDepth="false" MZ.Sequence.EditingModeGUID="35d109db-457b-43c1-9452-9cb7be9f121c" MZ.Sequence.VideoTimeDisplayFormat="102" MZ.WorkOutPoint="31114174291200" MZ.WorkInPoint="0">
											<duration>3615</duration>
											<rate>
												<timebase>30</timebase>
												<ntsc>TRUE</ntsc>
											</rate>
											<name>DIY_NIGHTLIGHTFRIGHT_2</name>
											<media>
												<video>
													<format>
														<samplecharacteristics>
															<rate>
																<timebase>30</timebase>
																<ntsc>TRUE</ntsc>
															</rate>
															<codec>
																<name>Apple ProRes 422</name>
																<appspecificdata>
																	<appname>Final Cut Pro</appname>
																	<appmanufacturer>Apple Inc.</appmanufacturer>
																	<appversion>7.0</appversion>
																	<data>
																		<qtcodec>
																			<codecname>Apple ProRes 422</codecname>
																			<codectypename>Apple ProRes 422</codectypename>
																			<codectypecode>apcn</codectypecode>
																			<codecvendorcode>appl</codecvendorcode>
																			<spatialquality>1024</spatialquality>
																			<temporalquality>0</temporalquality>
																			<keyframerate>0</keyframerate>
																			<datarate>0</datarate>
																		</qtcodec>
																	</data>
																</appspecificdata>
															</codec>
															<width>1920</width>
															<height>1080</height>
															<anamorphic>FALSE</anamorphic>
															<pixelaspectratio>square</pixelaspectratio>
															<fielddominance>none</fielddominance>
															<colordepth>24</colordepth>
														</samplecharacteristics>
													</format>
													<track TL.SQTrackShy="0" TL.SQTrackExpandedHeight="25" TL.SQTrackExpanded="0" MZ.TrackTargeted="1">
														<clipitem id="clipitem-467">
															<masterclipid>masterclip-156</masterclipid>
															<name>(Andy Elliott Craft &amp; Creations)_DIY Neon Cement Lamp_zLA5sGmSlts_YT.mp4</name>
															<enabled>TRUE</enabled>
															<duration>10904</duration>
															<rate>
																<timebase>30</timebase>
																<ntsc>TRUE</ntsc>
															</rate>
															<start>0</start>
															<end>354</end>
															<in>969</in>
															<out>1323</out>
															<pproTicksIn>8212921516800</pproTicksIn>
															<pproTicksOut>11213307705600</pproTicksOut>
															<alphatype>none</alphatype>
															<pixelaspectratio>square</pixelaspectratio>
															<anamorphic>FALSE</anamorphic>
															<file id="file-133">
																<name>(Andy Elliott Craft &amp; Creations)_DIY Neon Cement Lamp_zLA5sGmSlts_YT.mp4</name>
																<pathurl>file://localhost/Volumes/ATM%20JR%202TB/Crafty/2023/06_June/Crafty_6-19-23/3_Raw%20Footage/lamps/(Andy%20Elliott%20Craft%20&amp;%20Creations)_DIY%20Neon%20Cement%20Lamp_zLA5sGmSlts_YT.mp4</pathurl>
																<rate>
																	<timebase>25</timebase>
																	<ntsc>FALSE</ntsc>
																</rate>
																<duration>9096</duration>
																<timecode>
																	<rate>
																		<timebase>25</timebase>
																		<ntsc>FALSE</ntsc>
																	</rate>
																	<string>00:00:00:00</string>
																	<frame>0</frame>
																	<displayformat>NDF</displayformat>
																</timecode>
																<media>
																	<video>
																		<samplecharacteristics>
																			<rate>
																				<timebase>25</timebase>
																				<ntsc>FALSE</ntsc>
																			</rate>
																			<width>1280</width>
																			<height>720</height>
																			<anamorphic>FALSE</anamorphic>
																			<pixelaspectratio>square</pixelaspectratio>
																			<fielddominance>none</fielddominance>
																		</samplecharacteristics>
																	</video>
																	<audio>
																		<samplecharacteristics>
																			<depth>16</depth>
																			<samplerate>44100</samplerate>
																		</samplecharacteristics>
																		<channelcount>2</channelcount>
																	</audio>
																</media>
															</file>
															<filter>
																<effect>
																	<name>Basic Motion</name>
																	<effectid>basic</effectid>
																	<effectcategory>motion</effectcategory>
																	<effecttype>motion</effecttype>
																	<mediatype>video</mediatype>
																	<pproBypass>false</pproBypass>
																	<parameter authoringApp="PremierePro">
																		<parameterid>scale</parameterid>
																		<name>Scale</name>
																		<valuemin>0</valuemin>
																		<valuemax>1000</valuemax>
																		<value>150</value>
																	</parameter>
																	<parameter authoringApp="PremierePro">
																		<parameterid>rotation</parameterid>
																		<name>Rotation</name>
																		<valuemin>-8640</valuemin>
																		<valuemax>8640</valuemax>
																		<value>0</value>
																	</parameter>
																	<parameter authoringApp="PremierePro">
																		<parameterid>center</parameterid>
																		<name>Center</name>
																		<value>
																			<horiz>0</horiz>
																			<vert>0</vert>
																		</value>
																	</parameter>
																	<parameter authoringApp="PremierePro">
																		<parameterid>centerOffset</parameterid>
																		<name>Anchor Point</name>
																		<value>
																			<horiz>0</horiz>
																			<vert>0</vert>
																		</value>
																	</parameter>
																	<parameter authoringApp="PremierePro">
																		<parameterid>antiflicker</parameterid>
																		<name>Anti-flicker Filter</name>
																		<valuemin>0.0</valuemin>
																		<valuemax>1.0</valuemax>
																		<value>0</value>
																	</parameter>
																</effect>
															</filter>
															<logginginfo>
																<description>andy_elliott_</description>
																<scene></scene>
																<shottake></shottake>
																<lognote></lognote>
																<good></good>
																<originalvideofilename></originalvideofilename>
																<originalaudiofilename></originalaudiofilename>
															</logginginfo>
															<colorinfo>
																<lut></lut>
																<lut1></lut1>
																<asc_sop></asc_sop>
																<asc_sat></asc_sat>
																<lut2></lut2>
															</colorinfo>
															<labels>
																<label2>Iris</label2>
															</labels>
														</clipitem>
														<clipitem id="clipitem-468">
															<masterclipid>masterclip-156</masterclipid>
															<name>(Andy Elliott Craft &amp; Creations)_DIY Neon Cement Lamp_zLA5sGmSlts_YT.mp4</name>
															<enabled>TRUE</enabled>
															<duration>10904</duration>
															<rate>
																<timebase>30</timebase>
																<ntsc>TRUE</ntsc>
															</rate>
															<start>354</start>
															<end>662</end>
															<in>3509</in>
															<out>3817</out>
															<pproTicksIn>29741116204800</pproTicksIn>
															<pproTicksOut>32351621702400</pproTicksOut>
															<alphatype>none</alphatype>
															<file id="file-133"/>
															<filter>
																<effect>
																	<name>Basic Motion</name>
																	<effectid>basic</effectid>
																	<effectcategory>motion</effectcategory>
																	<effecttype>motion</effecttype>
																	<mediatype>video</mediatype>
																	<pproBypass>false</pproBypass>
																	<parameter authoringApp="PremierePro">
																		<parameterid>scale</parameterid>
																		<name>Scale</name>
																		<valuemin>0</valuemin>
																		<valuemax>1000</valuemax>
																		<value>150</value>
																	</parameter>
																	<parameter authoringApp="PremierePro">
																		<parameterid>rotation</parameterid>
																		<name>Rotation</name>
																		<valuemin>-8640</valuemin>
																		<valuemax>8640</valuemax>
																		<value>0</value>
																	</parameter>
																	<parameter authoringApp="PremierePro">
																		<parameterid>center</parameterid>
																		<name>Center</name>
																		<value>
																			<horiz>0</horiz>
																			<vert>0</vert>
																		</value>
																	</parameter>
																	<parameter authoringApp="PremierePro">
																		<parameterid>centerOffset</parameterid>
																		<name>Anchor Point</name>
																		<value>
																			<horiz>0</horiz>
																			<vert>0</vert>
																		</value>
																	</parameter>
																	<parameter authoringApp="PremierePro">
																		<parameterid>antiflicker</parameterid>
																		<name>Anti-flicker Filter</name>
																		<valuemin>0.0</valuemin>
																		<valuemax>1.0</valuemax>
																		<value>0</value>
																	</parameter>
																</effect>
															</filter>
															<logginginfo>
																<description>andy_elliott_</description>
																<scene></scene>
																<shottake></shottake>
																<lognote></lognote>
																<good></good>
																<originalvideofilename></originalvideofilename>
																<originalaudiofilename></originalaudiofilename>
															</logginginfo>
															<colorinfo>
																<lut></lut>
																<lut1></lut1>
																<asc_sop></asc_sop>
																<asc_sat></asc_sat>
																<lut2></lut2>
															</colorinfo>
															<labels>
																<label2>Iris</label2>
															</labels>
														</clipitem>
														<clipitem id="clipitem-469">
															<masterclipid>masterclip-156</masterclipid>
															<name>(Andy Elliott Craft &amp; Creations)_DIY Neon Cement Lamp_zLA5sGmSlts_YT.mp4</name>
															<enabled>TRUE</enabled>
															<duration>10904</duration>
															<rate>
																<timebase>30</timebase>
																<ntsc>TRUE</ntsc>
															</rate>
															<start>662</start>
															<end>827</end>
															<in>6204</in>
															<out>6369</out>
															<pproTicksIn>52583039308800</pproTicksIn>
															<pproTicksOut>53981524396800</pproTicksOut>
															<alphatype>none</alphatype>
															<file id="file-133"/>
															<filter>
																<effect>
																	<name>Basic Motion</name>
																	<effectid>basic</effectid>
																	<effectcategory>motion</effectcategory>
																	<effecttype>motion</effecttype>
																	<mediatype>video</mediatype>
																	<pproBypass>false</pproBypass>
																	<parameter authoringApp="PremierePro">
																		<parameterid>scale</parameterid>
																		<name>Scale</name>
																		<valuemin>0</valuemin>
																		<valuemax>1000</valuemax>
																		<value>150</value>
																	</parameter>
																	<parameter authoringApp="PremierePro">
																		<parameterid>rotation</parameterid>
																		<name>Rotation</name>
																		<valuemin>-8640</valuemin>
																		<valuemax>8640</valuemax>
																		<value>0</value>
																	</parameter>
																	<parameter authoringApp="PremierePro">
																		<parameterid>center</parameterid>
																		<name>Center</name>
																		<value>
																			<horiz>0</horiz>
																			<vert>0</vert>
																		</value>
																	</parameter>
																	<parameter authoringApp="PremierePro">
																		<parameterid>centerOffset</parameterid>
																		<name>Anchor Point</name>
																		<value>
																			<horiz>0</horiz>
																			<vert>0</vert>
																		</value>
																	</parameter>
																	<parameter authoringApp="PremierePro">
																		<parameterid>antiflicker</parameterid>
																		<name>Anti-flicker Filter</name>
																		<valuemin>0.0</valuemin>
																		<valuemax>1.0</valuemax>
																		<value>0</value>
																	</parameter>
																</effect>
															</filter>
															<logginginfo>
																<description>andy_elliott_</description>
																<scene></scene>
																<shottake></shottake>
																<lognote></lognote>
																<good></good>
																<originalvideofilename></originalvideofilename>
																<originalaudiofilename></originalaudiofilename>
															</logginginfo>
															<colorinfo>
																<lut></lut>
																<lut1></lut1>
																<asc_sop></asc_sop>
																<asc_sat></asc_sat>
																<lut2></lut2>
															</colorinfo>
															<labels>
																<label2>Iris</label2>
															</labels>
														</clipitem>
														<clipitem id="clipitem-470">
															<masterclipid>masterclip-156</masterclipid>
															<name>(Andy Elliott Craft &amp; Creations)_DIY Neon Cement Lamp_zLA5sGmSlts_YT.mp4</name>
															<enabled>TRUE</enabled>
															<duration>10904</duration>
															<rate>
																<timebase>30</timebase>
																<ntsc>TRUE</ntsc>
															</rate>
															<start>827</start>
															<end>966</end>
															<in>6969</in>
															<out>7108</out>
															<pproTicksIn>59066924716800</pproTicksIn>
															<pproTicksOut>60245042457600</pproTicksOut>
															<alphatype>none</alphatype>
															<file id="file-133"/>
															<filter>
																<effect>
																	<name>Basic Motion</name>
																	<effectid>basic</effectid>
																	<effectcategory>motion</effectcategory>
																	<effecttype>motion</effecttype>
																	<mediatype>video</mediatype>
																	<pproBypass>false</pproBypass>
																	<parameter authoringApp="PremierePro">
																		<parameterid>scale</parameterid>
																		<name>Scale</name>
																		<valuemin>0</valuemin>
																		<valuemax>1000</valuemax>
																		<value>150</value>
																	</parameter>
																	<parameter authoringApp="PremierePro">
																		<parameterid>rotation</parameterid>
																		<name>Rotation</name>
																		<valuemin>-8640</valuemin>
																		<valuemax>8640</valuemax>
																		<value>0</value>
																	</parameter>
																	<parameter authoringApp="PremierePro">
																		<parameterid>center</parameterid>
																		<name>Center</name>
																		<value>
																			<horiz>0</horiz>
																			<vert>0</vert>
																		</value>
																	</parameter>
																	<parameter authoringApp="PremierePro">
																		<parameterid>centerOffset</parameterid>
																		<name>Anchor Point</name>
																		<value>
																			<horiz>0</horiz>
																			<vert>0</vert>
																		</value>
																	</parameter>
																	<parameter authoringApp="PremierePro">
																		<parameterid>antiflicker</parameterid>
																		<name>Anti-flicker Filter</name>
																		<valuemin>0.0</valuemin>
																		<valuemax>1.0</valuemax>
																		<value>0</value>
																	</parameter>
																</effect>
															</filter>
															<logginginfo>
																<description>andy_elliott_</description>
																<scene></scene>
																<shottake></shottake>
																<lognote></lognote>
																<good></good>
																<originalvideofilename></originalvideofilename>
																<originalaudiofilename></originalaudiofilename>
															</logginginfo>
															<colorinfo>
																<lut></lut>
																<lut1></lut1>
																<asc_sop></asc_sop>
																<asc_sat></asc_sat>
																<lut2></lut2>
															</colorinfo>
															<labels>
																<label2>Iris</label2>
															</labels>
														</clipitem>
														<clipitem id="clipitem-471">
															<masterclipid>masterclip-156</masterclipid>
															<name>(Andy Elliott Craft &amp; Creations)_DIY Neon Cement Lamp_zLA5sGmSlts_YT.mp4</name>
															<enabled>TRUE</enabled>
															<duration>10904</duration>
															<rate>
																<timebase>30</timebase>
																<ntsc>TRUE</ntsc>
															</rate>
															<start>966</start>
															<end>1412</end>
															<in>7862</in>
															<out>8308</out>
															<pproTicksIn>66635695526400</pproTicksIn>
															<pproTicksOut>70415843097600</pproTicksOut>
															<alphatype>none</alphatype>
															<file id="file-133"/>
															<filter>
																<effect>
																	<name>Basic Motion</name>
																	<effectid>basic</effectid>
																	<effectcategory>motion</effectcategory>
																	<effecttype>motion</effecttype>
																	<mediatype>video</mediatype>
																	<pproBypass>false</pproBypass>
																	<parameter authoringApp="PremierePro">
																		<parameterid>scale</parameterid>
																		<name>Scale</name>
																		<valuemin>0</valuemin>
																		<valuemax>1000</valuemax>
																		<value>150</value>
																	</parameter>
																	<parameter authoringApp="PremierePro">
																		<parameterid>rotation</parameterid>
																		<name>Rotation</name>
																		<valuemin>-8640</valuemin>
																		<valuemax>8640</valuemax>
																		<value>0</value>
																	</parameter>
																	<parameter authoringApp="PremierePro">
																		<parameterid>center</parameterid>
																		<name>Center</name>
																		<value>
																			<horiz>0</horiz>
																			<vert>0</vert>
																		</value>
																	</parameter>
																	<parameter authoringApp="PremierePro">
																		<parameterid>centerOffset</parameterid>
																		<name>Anchor Point</name>
																		<value>
																			<horiz>0</horiz>
																			<vert>0</vert>
																		</value>
																	</parameter>
																	<parameter authoringApp="PremierePro">
																		<parameterid>antiflicker</parameterid>
																		<name>Anti-flicker Filter</name>
																		<valuemin>0.0</valuemin>
																		<valuemax>1.0</valuemax>
																		<value>0</value>
																	</parameter>
																</effect>
															</filter>
															<logginginfo>
																<description>andy_elliott_</description>
																<scene></scene>
																<shottake></shottake>
																<lognote></lognote>
																<good></good>
																<originalvideofilename></originalvideofilename>
																<originalaudiofilename></originalaudiofilename>
															</logginginfo>
															<colorinfo>
																<lut></lut>
																<lut1></lut1>
																<asc_sop></asc_sop>
																<asc_sat></asc_sat>
																<lut2></lut2>
															</colorinfo>
															<labels>
																<label2>Iris</label2>
															</labels>
														</clipitem>
														<clipitem id="clipitem-472">
															<masterclipid>masterclip-156</masterclipid>
															<name>(Andy Elliott Craft &amp; Creations)_DIY Neon Cement Lamp_zLA5sGmSlts_YT.mp4</name>
															<enabled>TRUE</enabled>
															<duration>10904</duration>
															<rate>
																<timebase>30</timebase>
																<ntsc>TRUE</ntsc>
															</rate>
															<start>1412</start>
															<end>1628</end>
															<in>9900</in>
															<out>10116</out>
															<pproTicksIn>83909105280000</pproTicksIn>
															<pproTicksOut>85739849395200</pproTicksOut>
															<alphatype>none</alphatype>
															<file id="file-133"/>
															<filter>
																<effect>
																	<name>Basic Motion</name>
																	<effectid>basic</effectid>
																	<effectcategory>motion</effectcategory>
																	<effecttype>motion</effecttype>
																	<mediatype>video</mediatype>
																	<pproBypass>false</pproBypass>
																	<parameter authoringApp="PremierePro">
																		<parameterid>scale</parameterid>
																		<name>Scale</name>
																		<valuemin>0</valuemin>
																		<valuemax>1000</valuemax>
																		<value>150</value>
																	</parameter>
																	<parameter authoringApp="PremierePro">
																		<parameterid>rotation</parameterid>
																		<name>Rotation</name>
																		<valuemin>-8640</valuemin>
																		<valuemax>8640</valuemax>
																		<value>0</value>
																	</parameter>
																	<parameter authoringApp="PremierePro">
																		<parameterid>center</parameterid>
																		<name>Center</name>
																		<value>
																			<horiz>0</horiz>
																			<vert>0</vert>
																		</value>
																	</parameter>
																	<parameter authoringApp="PremierePro">
																		<parameterid>centerOffset</parameterid>
																		<name>Anchor Point</name>
																		<value>
																			<horiz>0</horiz>
																			<vert>0</vert>
																		</value>
																	</parameter>
																	<parameter authoringApp="PremierePro">
																		<parameterid>antiflicker</parameterid>
																		<name>Anti-flicker Filter</name>
																		<valuemin>0.0</valuemin>
																		<valuemax>1.0</valuemax>
																		<value>0</value>
																	</parameter>
																</effect>
															</filter>
															<logginginfo>
																<description>andy_elliott_</description>
																<scene></scene>
																<shottake></shottake>
																<lognote></lognote>
																<good></good>
																<originalvideofilename></originalvideofilename>
																<originalaudiofilename></originalaudiofilename>
															</logginginfo>
															<colorinfo>
																<lut></lut>
																<lut1></lut1>
																<asc_sop></asc_sop>
																<asc_sat></asc_sat>
																<lut2></lut2>
															</colorinfo>
															<labels>
																<label2>Iris</label2>
															</labels>
														</clipitem>
														<clipitem id="clipitem-473">
															<masterclipid>masterclip-157</masterclipid>
															<name>(kary_diy)_7032752613783457071.mp4</name>
															<enabled>TRUE</enabled>
															<duration>1051</duration>
															<rate>
																<timebase>30</timebase>
																<ntsc>TRUE</ntsc>
															</rate>
															<start>1628</start>
															<end>2040</end>
															<in>469</in>
															<out>881</out>
															<pproTicksIn>3975087916800</pproTicksIn>
															<pproTicksOut>7467062803200</pproTicksOut>
															<alphatype>none</alphatype>
															<pixelaspectratio>square</pixelaspectratio>
															<anamorphic>FALSE</anamorphic>
															<file id="file-134">
																<name>(kary_diy)_7032752613783457071_TT.mp4</name>
																<pathurl>file://localhost/Volumes/ATM%20JR%202TB/Crafty/2023/06_June/Crafty_6-19-23/3_Raw%20Footage/lamps/(kary_diy)_7032752613783457071_TT.mp4</pathurl>
																<rate>
																	<timebase>30</timebase>
																	<ntsc>FALSE</ntsc>
																</rate>
																<duration>1053</duration>
																<timecode>
																	<rate>
																		<timebase>30</timebase>
																		<ntsc>FALSE</ntsc>
																	</rate>
																	<string>00:00:00:00</string>
																	<frame>0</frame>
																	<displayformat>NDF</displayformat>
																</timecode>
																<media>
																	<video>
																		<samplecharacteristics>
																			<rate>
																				<timebase>30</timebase>
																				<ntsc>FALSE</ntsc>
																			</rate>
																			<width>576</width>
																			<height>1024</height>
																			<anamorphic>FALSE</anamorphic>
																			<pixelaspectratio>square</pixelaspectratio>
																			<fielddominance>none</fielddominance>
																		</samplecharacteristics>
																	</video>
																	<audio>
																		<samplecharacteristics>
																			<depth>16</depth>
																			<samplerate>44100</samplerate>
																		</samplecharacteristics>
																		<channelcount>2</channelcount>
																	</audio>
																</media>
															</file>
															<filter>
																<effect>
																	<name>Basic Motion</name>
																	<effectid>basic</effectid>
																	<effectcategory>motion</effectcategory>
																	<effecttype>motion</effecttype>
																	<mediatype>video</mediatype>
																	<pproBypass>false</pproBypass>
																	<parameter authoringApp="PremierePro">
																		<parameterid>scale</parameterid>
																		<name>Scale</name>
																		<valuemin>0</valuemin>
																		<valuemax>1000</valuemax>
																		<value>484</value>
																	</parameter>
																	<parameter authoringApp="PremierePro">
																		<parameterid>rotation</parameterid>
																		<name>Rotation</name>
																		<valuemin>-8640</valuemin>
																		<valuemax>8640</valuemax>
																		<value>0</value>
																	</parameter>
																	<parameter authoringApp="PremierePro">
																		<parameterid>center</parameterid>
																		<name>Center</name>
																		<value>
																			<horiz>0</horiz>
																			<vert>0</vert>
																		</value>
																	</parameter>
																	<parameter authoringApp="PremierePro">
																		<parameterid>centerOffset</parameterid>
																		<name>Anchor Point</name>
																		<value>
																			<horiz>0</horiz>
																			<vert>0</vert>
																		</value>
																	</parameter>
																	<parameter authoringApp="PremierePro">
																		<parameterid>antiflicker</parameterid>
																		<name>Anti-flicker Filter</name>
																		<valuemin>0.0</valuemin>
																		<valuemax>1.0</valuemax>
																		<value>0</value>
																	</parameter>
																</effect>
															</filter>
															<filter>
																<effect>
																	<name>Gaussian Blur</name>
																	<effectid>Gaussian Blur</effectid>
																	<effectcategory>Blur</effectcategory>
																	<effecttype>motion</effecttype>
																	<mediatype>video</mediatype>
																	<pproBypass>false</pproBypass>
																	<parameter authoringApp="PremierePro">
																		<parameterid>radius</parameterid>
																		<name>Radius</name>
																		<valuemin>0</valuemin>
																		<valuemax>100</valuemax>
																		<value>150</value>
																	</parameter>
																</effect>
															</filter>
															<logginginfo>
																<description></description>
																<scene></scene>
																<shottake></shottake>
																<lognote></lognote>
																<good></good>
																<originalvideofilename></originalvideofilename>
																<originalaudiofilename></originalaudiofilename>
															</logginginfo>
															<colorinfo>
																<lut></lut>
																<lut1></lut1>
																<asc_sop></asc_sop>
																<asc_sat></asc_sat>
																<lut2></lut2>
															</colorinfo>
															<labels>
																<label2>Violet</label2>
															</labels>
														</clipitem>
														<clipitem id="clipitem-474">
															<masterclipid>masterclip-157</masterclipid>
															<name>(kary_diy)_7032752613783457071.mp4</name>
															<enabled>TRUE</enabled>
															<duration>1051</duration>
															<rate>
																<timebase>30</timebase>
																<ntsc>TRUE</ntsc>
															</rate>
															<start>2040</start>
															<end>2178</end>
															<in>913</in>
															<out>1051</out>
															<pproTicksIn>7738284153600</pproTicksIn>
															<pproTicksOut>8907926227200</pproTicksOut>
															<alphatype>none</alphatype>
															<file id="file-134"/>
															<filter>
																<effect>
																	<name>Basic Motion</name>
																	<effectid>basic</effectid>
																	<effectcategory>motion</effectcategory>
																	<effecttype>motion</effecttype>
																	<mediatype>video</mediatype>
																	<pproBypass>false</pproBypass>
																	<parameter authoringApp="PremierePro">
																		<parameterid>scale</parameterid>
																		<name>Scale</name>
																		<valuemin>0</valuemin>
																		<valuemax>1000</valuemax>
																		<value>426</value>
																	</parameter>
																	<parameter authoringApp="PremierePro">
																		<parameterid>rotation</parameterid>
																		<name>Rotation</name>
																		<valuemin>-8640</valuemin>
																		<valuemax>8640</valuemax>
																		<value>0</value>
																	</parameter>
																	<parameter authoringApp="PremierePro">
																		<parameterid>center</parameterid>
																		<name>Center</name>
																		<value>
																			<horiz>0</horiz>
																			<vert>0</vert>
																		</value>
																	</parameter>
																	<parameter authoringApp="PremierePro">
																		<parameterid>centerOffset</parameterid>
																		<name>Anchor Point</name>
																		<value>
																			<horiz>0</horiz>
																			<vert>0</vert>
																		</value>
																	</parameter>
																	<parameter authoringApp="PremierePro">
																		<parameterid>antiflicker</parameterid>
																		<name>Anti-flicker Filter</name>
																		<valuemin>0.0</valuemin>
																		<valuemax>1.0</valuemax>
																		<value>0</value>
																	</parameter>
																</effect>
															</filter>
															<filter>
																<effect>
																	<name>Gaussian Blur</name>
																	<effectid>Gaussian Blur</effectid>
																	<effectcategory>Blur</effectcategory>
																	<effecttype>motion</effecttype>
																	<mediatype>video</mediatype>
																	<pproBypass>false</pproBypass>
																	<parameter authoringApp="PremierePro">
																		<parameterid>radius</parameterid>
																		<name>Radius</name>
																		<valuemin>0</valuemin>
																		<valuemax>100</valuemax>
																		<value>150</value>
																	</parameter>
																</effect>
															</filter>
															<logginginfo>
																<description></description>
																<scene></scene>
																<shottake></shottake>
																<lognote></lognote>
																<good></good>
																<originalvideofilename></originalvideofilename>
																<originalaudiofilename></originalaudiofilename>
															</logginginfo>
															<colorinfo>
																<lut></lut>
																<lut1></lut1>
																<asc_sop></asc_sop>
																<asc_sat></asc_sat>
																<lut2></lut2>
															</colorinfo>
															<labels>
																<label2>Violet</label2>
															</labels>
														</clipitem>
														<clipitem id="clipitem-475">
															<masterclipid>masterclip-158</masterclipid>
															<name>(Andy Elliott Craft &amp; Creations)_Simple Halloween UV Lava Lamp!_TYaWWunIOXE_YT.mp4</name>
															<enabled>TRUE</enabled>
															<duration>4674</duration>
															<rate>
																<timebase>30</timebase>
																<ntsc>TRUE</ntsc>
															</rate>
															<start>2178</start>
															<end>2736</end>
															<in>1369</in>
															<out>1927</out>
															<pproTicksIn>11603188396800</pproTicksIn>
															<pproTicksOut>16332610694400</pproTicksOut>
															<alphatype>none</alphatype>
															<pixelaspectratio>square</pixelaspectratio>
															<anamorphic>FALSE</anamorphic>
															<file id="file-135">
																<name>(Andy Elliott Craft &amp; Creations)_Simple Halloween UV Lava Lamp!_TYaWWunIOXE_YT.mp4</name>
																<pathurl>file://localhost/Volumes/ATM%20JR%202TB/Crafty/2023/06_June/Crafty_6-19-23/3_Raw%20Footage/lamps/(Andy%20Elliott%20Craft%20&amp;%20Creations)_Simple%20Halloween%20UV%20Lava%20Lamp!_TYaWWunIOXE_YT.mp4</pathurl>
																<rate>
																	<timebase>30</timebase>
																	<ntsc>TRUE</ntsc>
																</rate>
																<duration>4674</duration>
																<timecode>
																	<rate>
																		<timebase>30</timebase>
																		<ntsc>TRUE</ntsc>
																	</rate>
																	<string>00:00:00:00</string>
																	<frame>0</frame>
																	<displayformat>NDF</displayformat>
																</timecode>
																<media>
																	<video>
																		<samplecharacteristics>
																			<rate>
																				<timebase>30</timebase>
																				<ntsc>TRUE</ntsc>
																			</rate>
																			<width>1920</width>
																			<height>1080</height>
																			<anamorphic>FALSE</anamorphic>
																			<pixelaspectratio>square</pixelaspectratio>
																			<fielddominance>none</fielddominance>
																		</samplecharacteristics>
																	</video>
																	<audio>
																		<samplecharacteristics>
																			<depth>16</depth>
																			<samplerate>44100</samplerate>
																		</samplecharacteristics>
																		<channelcount>2</channelcount>
																	</audio>
																</media>
															</file>
															<logginginfo>
																<description>Simple Halloween UV Lava Lamp!&#10;andy_elliott_</description>
																<scene></scene>
																<shottake></shottake>
																<lognote>https://www.youtube.com/watch?v=TYaWWunIOXE</lognote>
																<good></good>
																<originalvideofilename></originalvideofilename>
																<originalaudiofilename></originalaudiofilename>
															</logginginfo>
															<colorinfo>
																<lut></lut>
																<lut1></lut1>
																<asc_sop></asc_sop>
																<asc_sat></asc_sat>
																<lut2></lut2>
															</colorinfo>
															<labels>
																<label2>Lavender</label2>
															</labels>
														</clipitem>
														<clipitem id="clipitem-476">
															<masterclipid>masterclip-158</masterclipid>
															<name>(Andy Elliott Craft &amp; Creations)_Simple Halloween UV Lava Lamp!_TYaWWunIOXE_YT.mp4</name>
															<enabled>TRUE</enabled>
															<duration>4674</duration>
															<rate>
																<timebase>30</timebase>
																<ntsc>TRUE</ntsc>
															</rate>
															<start>2736</start>
															<end>2972</end>
															<in>2302</in>
															<out>2538</out>
															<pproTicksIn>19510985894400</pproTicksIn>
															<pproTicksOut>21511243353600</pproTicksOut>
															<alphatype>none</alphatype>
															<file id="file-135"/>
															<logginginfo>
																<description>Simple Halloween UV Lava Lamp!&#10;andy_elliott_</description>
																<scene></scene>
																<shottake></shottake>
																<lognote>https://www.youtube.com/watch?v=TYaWWunIOXE</lognote>
																<good></good>
																<originalvideofilename></originalvideofilename>
																<originalaudiofilename></originalaudiofilename>
															</logginginfo>
															<colorinfo>
																<lut></lut>
																<lut1></lut1>
																<asc_sop></asc_sop>
																<asc_sat></asc_sat>
																<lut2></lut2>
															</colorinfo>
															<labels>
																<label2>Lavender</label2>
															</labels>
														</clipitem>
														<clipitem id="clipitem-477">
															<masterclipid>masterclip-158</masterclipid>
															<name>(Andy Elliott Craft &amp; Creations)_Simple Halloween UV Lava Lamp!_TYaWWunIOXE_YT.mp4</name>
															<enabled>TRUE</enabled>
															<duration>4674</duration>
															<rate>
																<timebase>30</timebase>
																<ntsc>TRUE</ntsc>
															</rate>
															<start>2972</start>
															<end>3615</end>
															<in>2795</in>
															<out>3438</out>
															<pproTicksIn>23689489824000</pproTicksIn>
															<pproTicksOut>29139343833600</pproTicksOut>
															<alphatype>none</alphatype>
															<file id="file-135"/>
															<logginginfo>
																<description>Simple Halloween UV Lava Lamp!&#10;andy_elliott_</description>
																<scene></scene>
																<shottake></shottake>
																<lognote>https://www.youtube.com/watch?v=TYaWWunIOXE</lognote>
																<good></good>
																<originalvideofilename></originalvideofilename>
																<originalaudiofilename></originalaudiofilename>
															</logginginfo>
															<colorinfo>
																<lut></lut>
																<lut1></lut1>
																<asc_sop></asc_sop>
																<asc_sat></asc_sat>
																<lut2></lut2>
															</colorinfo>
															<labels>
																<label2>Lavender</label2>
															</labels>
														</clipitem>
														<enabled>TRUE</enabled>
														<locked>FALSE</locked>
													</track>
													<track TL.SQTrackShy="0" TL.SQTrackExpandedHeight="25" TL.SQTrackExpanded="0" MZ.TrackTargeted="0">
														<clipitem id="clipitem-478">
															<masterclipid>masterclip-157</masterclipid>
															<name>(kary_diy)_7032752613783457071.mp4</name>
															<enabled>TRUE</enabled>
															<duration>1051</duration>
															<rate>
																<timebase>30</timebase>
																<ntsc>TRUE</ntsc>
															</rate>
															<start>1628</start>
															<end>2040</end>
															<in>469</in>
															<out>881</out>
															<pproTicksIn>3975087916800</pproTicksIn>
															<pproTicksOut>7467062803200</pproTicksOut>
															<alphatype>none</alphatype>
															<file id="file-134"/>
															<filter>
																<effect>
																	<name>Basic Motion</name>
																	<effectid>basic</effectid>
																	<effectcategory>motion</effectcategory>
																	<effecttype>motion</effecttype>
																	<mediatype>video</mediatype>
																	<pproBypass>false</pproBypass>
																	<parameter authoringApp="PremierePro">
																		<parameterid>scale</parameterid>
																		<name>Scale</name>
																		<valuemin>0</valuemin>
																		<valuemax>1000</valuemax>
																		<value>105.469</value>
																	</parameter>
																	<parameter authoringApp="PremierePro">
																		<parameterid>rotation</parameterid>
																		<name>Rotation</name>
																		<valuemin>-8640</valuemin>
																		<valuemax>8640</valuemax>
																		<value>0</value>
																	</parameter>
																	<parameter authoringApp="PremierePro">
																		<parameterid>center</parameterid>
																		<name>Center</name>
																		<value>
																			<horiz>0</horiz>
																			<vert>0</vert>
																		</value>
																	</parameter>
																	<parameter authoringApp="PremierePro">
																		<parameterid>centerOffset</parameterid>
																		<name>Anchor Point</name>
																		<value>
																			<horiz>0</horiz>
																			<vert>0</vert>
																		</value>
																	</parameter>
																	<parameter authoringApp="PremierePro">
																		<parameterid>antiflicker</parameterid>
																		<name>Anti-flicker Filter</name>
																		<valuemin>0.0</valuemin>
																		<valuemax>1.0</valuemax>
																		<value>0</value>
																	</parameter>
																</effect>
															</filter>
															<logginginfo>
																<description></description>
																<scene></scene>
																<shottake></shottake>
																<lognote></lognote>
																<good></good>
																<originalvideofilename></originalvideofilename>
																<originalaudiofilename></originalaudiofilename>
															</logginginfo>
															<colorinfo>
																<lut></lut>
																<lut1></lut1>
																<asc_sop></asc_sop>
																<asc_sat></asc_sat>
																<lut2></lut2>
															</colorinfo>
															<labels>
																<label2>Violet</label2>
															</labels>
														</clipitem>
														<clipitem id="clipitem-479">
															<masterclipid>masterclip-157</masterclipid>
															<name>(kary_diy)_7032752613783457071.mp4</name>
															<enabled>TRUE</enabled>
															<duration>1051</duration>
															<rate>
																<timebase>30</timebase>
																<ntsc>TRUE</ntsc>
															</rate>
															<start>2040</start>
															<end>2178</end>
															<in>913</in>
															<out>1051</out>
															<pproTicksIn>7738284153600</pproTicksIn>
															<pproTicksOut>8907926227200</pproTicksOut>
															<alphatype>none</alphatype>
															<file id="file-134"/>
															<filter>
																<effect>
																	<name>Basic Motion</name>
																	<effectid>basic</effectid>
																	<effectcategory>motion</effectcategory>
																	<effecttype>motion</effecttype>
																	<mediatype>video</mediatype>
																	<pproBypass>false</pproBypass>
																	<parameter authoringApp="PremierePro">
																		<parameterid>scale</parameterid>
																		<name>Scale</name>
																		<valuemin>0</valuemin>
																		<valuemax>1000</valuemax>
																		<value>105.469</value>
																	</parameter>
																	<parameter authoringApp="PremierePro">
																		<parameterid>rotation</parameterid>
																		<name>Rotation</name>
																		<valuemin>-8640</valuemin>
																		<valuemax>8640</valuemax>
																		<value>0</value>
																	</parameter>
																	<parameter authoringApp="PremierePro">
																		<parameterid>center</parameterid>
																		<name>Center</name>
																		<value>
																			<horiz>0</horiz>
																			<vert>0</vert>
																		</value>
																	</parameter>
																	<parameter authoringApp="PremierePro">
																		<parameterid>centerOffset</parameterid>
																		<name>Anchor Point</name>
																		<value>
																			<horiz>0</horiz>
																			<vert>0</vert>
																		</value>
																	</parameter>
																	<parameter authoringApp="PremierePro">
																		<parameterid>antiflicker</parameterid>
																		<name>Anti-flicker Filter</name>
																		<valuemin>0.0</valuemin>
																		<valuemax>1.0</valuemax>
																		<value>0</value>
																	</parameter>
																</effect>
															</filter>
															<logginginfo>
																<description></description>
																<scene></scene>
																<shottake></shottake>
																<lognote></lognote>
																<good></good>
																<originalvideofilename></originalvideofilename>
																<originalaudiofilename></originalaudiofilename>
															</logginginfo>
															<colorinfo>
																<lut></lut>
																<lut1></lut1>
																<asc_sop></asc_sop>
																<asc_sat></asc_sat>
																<lut2></lut2>
															</colorinfo>
															<labels>
																<label2>Violet</label2>
															</labels>
														</clipitem>
														<enabled>TRUE</enabled>
														<locked>FALSE</locked>
													</track>
													<track TL.SQTrackShy="0" TL.SQTrackExpandedHeight="25" TL.SQTrackExpanded="0" MZ.TrackTargeted="0">
														<clipitem id="clipitem-480">
															<masterclipid>masterclip-159</masterclipid>
															<name>andy elliliott craft &amp; creations</name>
															<enabled>TRUE</enabled>
															<duration>5844</duration>
															<rate>
																<timebase>30</timebase>
																<ntsc>TRUE</ntsc>
															</rate>
															<start>0</start>
															<end>1628</end>
															<in>0</in>
															<out>1628</out>
															<pproTicksIn>0</pproTicksIn>
															<pproTicksOut>13798386201600</pproTicksOut>
															<alphatype>straight</alphatype>
															<pixelaspectratio>square</pixelaspectratio>
															<anamorphic>FALSE</anamorphic>
															<file id="file-136">
																<name>1080/AE Attribution.aep</name>
																<pathurl>file://localhost/Volumes/ATM%20JR%202TB/Crafty/Master%20Assets%20/Attribution/AE%20Attribution.aep</pathurl>
																<rate>
																	<timebase>30</timebase>
																	<ntsc>TRUE</ntsc>
																</rate>
																<duration>5844</duration>
																<timecode>
																	<rate>
																		<timebase>30</timebase>
																		<ntsc>TRUE</ntsc>
																	</rate>
																	<string>00;00;00;00</string>
																	<frame>0</frame>
																	<displayformat>DF</displayformat>
																</timecode>
																<media>
																	<video>
																		<samplecharacteristics>
																			<rate>
																				<timebase>30</timebase>
																				<ntsc>TRUE</ntsc>
																			</rate>
																			<width>1920</width>
																			<height>1080</height>
																			<anamorphic>FALSE</anamorphic>
																			<pixelaspectratio>square</pixelaspectratio>
																			<fielddominance>lower</fielddominance>
																		</samplecharacteristics>
																	</video>
																</media>
															</file>
															<logginginfo>
																<description></description>
																<scene></scene>
																<shottake></shottake>
																<lognote></lognote>
																<good></good>
																<originalvideofilename></originalvideofilename>
																<originalaudiofilename></originalaudiofilename>
															</logginginfo>
															<colorinfo>
																<lut></lut>
																<lut1></lut1>
																<asc_sop></asc_sop>
																<asc_sat></asc_sat>
																<lut2></lut2>
															</colorinfo>
															<labels>
																<label2>Rose</label2>
															</labels>
														</clipitem>
														<clipitem id="clipitem-481">
															<masterclipid>masterclip-159</masterclipid>
															<name>andy elliliott craft &amp; creations</name>
															<enabled>TRUE</enabled>
															<duration>5844</duration>
															<rate>
																<timebase>30</timebase>
																<ntsc>TRUE</ntsc>
															</rate>
															<start>2178</start>
															<end>3615</end>
															<in>2178</in>
															<out>3615</out>
															<pproTicksIn>18460003161600</pproTicksIn>
															<pproTicksOut>30639536928000</pproTicksOut>
															<alphatype>straight</alphatype>
															<file id="file-136"/>
															<logginginfo>
																<description></description>
																<scene></scene>
																<shottake></shottake>
																<lognote></lognote>
																<good></good>
																<originalvideofilename></originalvideofilename>
																<originalaudiofilename></originalaudiofilename>
															</logginginfo>
															<colorinfo>
																<lut></lut>
																<lut1></lut1>
																<asc_sop></asc_sop>
																<asc_sat></asc_sat>
																<lut2></lut2>
															</colorinfo>
															<labels>
																<label2>Rose</label2>
															</labels>
														</clipitem>
														<enabled>TRUE</enabled>
														<locked>FALSE</locked>
													</track>
													<track TL.SQTrackShy="0" TL.SQTrackExpandedHeight="25" TL.SQTrackExpanded="0" MZ.TrackTargeted="0">
														<clipitem id="clipitem-482">
															<masterclipid>masterclip-160</masterclipid>
															<name>@kary_diy</name>
															<enabled>TRUE</enabled>
															<duration>5844</duration>
															<rate>
																<timebase>30</timebase>
																<ntsc>TRUE</ntsc>
															</rate>
															<start>1628</start>
															<end>2178</end>
															<in>0</in>
															<out>550</out>
															<pproTicksIn>0</pproTicksIn>
															<pproTicksOut>4661616960000</pproTicksOut>
															<alphatype>straight</alphatype>
															<pixelaspectratio>square</pixelaspectratio>
															<anamorphic>FALSE</anamorphic>
															<file id="file-137">
																<name>1080/AE Attribution.aep</name>
																<pathurl>file://localhost/Volumes/ATM%20JR%202TB/Crafty/Master%20Assets%20/Attribution/AE%20Attribution.aep</pathurl>
																<rate>
																	<timebase>30</timebase>
																	<ntsc>TRUE</ntsc>
																</rate>
																<duration>5844</duration>
																<timecode>
																	<rate>
																		<timebase>30</timebase>
																		<ntsc>TRUE</ntsc>
																	</rate>
																	<string>00;00;00;00</string>
																	<frame>0</frame>
																	<displayformat>DF</displayformat>
																</timecode>
																<media>
																	<video>
																		<samplecharacteristics>
																			<rate>
																				<timebase>30</timebase>
																				<ntsc>TRUE</ntsc>
																			</rate>
																			<width>1920</width>
																			<height>1080</height>
																			<anamorphic>FALSE</anamorphic>
																			<pixelaspectratio>square</pixelaspectratio>
																			<fielddominance>lower</fielddominance>
																		</samplecharacteristics>
																	</video>
																</media>
															</file>
															<logginginfo>
																<description></description>
																<scene></scene>
																<shottake></shottake>
																<lognote></lognote>
																<good></good>
																<originalvideofilename></originalvideofilename>
																<originalaudiofilename></originalaudiofilename>
															</logginginfo>
															<colorinfo>
																<lut></lut>
																<lut1></lut1>
																<asc_sop></asc_sop>
																<asc_sat></asc_sat>
																<lut2></lut2>
															</colorinfo>
															<labels>
																<label2>Rose</label2>
															</labels>
														</clipitem>
														<enabled>TRUE</enabled>
														<locked>FALSE</locked>
													</track>
												</video>
												<audio>
													<numOutputChannels>2</numOutputChannels>
													<format>
														<samplecharacteristics>
															<depth>16</depth>
															<samplerate>48000</samplerate>
														</samplecharacteristics>
													</format>
													<outputs>
														<group>
															<index>1</index>
															<numchannels>1</numchannels>
															<downmix>0</downmix>
															<channel>
																<index>1</index>
															</channel>
														</group>
														<group>
															<index>2</index>
															<numchannels>1</numchannels>
															<downmix>0</downmix>
															<channel>
																<index>2</index>
															</channel>
														</group>
													</outputs>
													<track TL.SQTrackAudioKeyframeStyle="0" TL.SQTrackShy="0" TL.SQTrackExpandedHeight="25" TL.SQTrackExpanded="0" MZ.TrackTargeted="1" PannerCurrentValue="0.5" PannerIsInverted="true" PannerStartKeyframe="-91445760000000000,0.5,0,0,0,0,0,0" PannerName="Balance" currentExplodedTrackIndex="0" totalExplodedTrackCount="2" premiereTrackType="Stereo">
														<clipitem id="clipitem-483" premiereChannelType="stereo">
															<masterclipid>masterclip-161</masterclipid>
															<name>ES_Purple Rhombus - Guustavv.wav</name>
															<enabled>TRUE</enabled>
															<duration>4115</duration>
															<rate>
																<timebase>30</timebase>
																<ntsc>TRUE</ntsc>
															</rate>
															<start>0</start>
															<end>-1</end>
															<in>0</in>
															<out>3615</out>
															<pproTicksIn>0</pproTicksIn>
															<pproTicksOut>30639536928000</pproTicksOut>
															<file id="file-138">
																<name>ES_Purple Rhombus - Guustavv.wav</name>
																<pathurl>file://localhost/Volumes/ATM%20JR%202TB/Crafty/2023/06_June/Crafty_6-19-23/5_Music/ES_Purple%20Rhombus%20-%20Guustavv.wav</pathurl>
																<rate>
																	<timebase>30</timebase>
																	<ntsc>TRUE</ntsc>
																</rate>
																<duration>4115</duration>
																<timecode>
																	<rate>
																		<timebase>30</timebase>
																		<ntsc>TRUE</ntsc>
																	</rate>
																	<string>10;56;10;02</string>
																	<frame>1179920</frame>
																	<displayformat>DF</displayformat>
																</timecode>
																<media>
																	<audio>
																		<samplecharacteristics>
																			<depth>16</depth>
																			<samplerate>48000</samplerate>
																		</samplecharacteristics>
																		<channelcount>2</channelcount>
																	</audio>
																</media>
															</file>
															<sourcetrack>
																<mediatype>audio</mediatype>
																<trackindex>1</trackindex>
															</sourcetrack>
															<filter>
																<effect>
																	<name>Gain</name>
																	<effectid>{61756678, 4761696e, 4b657947}</effectid>
																	<effecttype>filter</effecttype>
																	<mediatype>audio</mediatype>
																	<parameter authoringApp="PremierePro">
																		<parameterid>Gain(dB)</parameterid>
																		<name>Gain(dB)</name>
																		<valuemin>-96</valuemin>
																		<valuemax>96</valuemax>
																		<value>-8</value>
																	</parameter>
																</effect>
															</filter>
															<link>
																<linkclipref>clipitem-483</linkclipref>
																<mediatype>audio</mediatype>
																<trackindex>1</trackindex>
																<clipindex>1</clipindex>
																<groupindex>1</groupindex>
															</link>
															<link>
																<linkclipref>clipitem-484</linkclipref>
																<mediatype>audio</mediatype>
																<trackindex>2</trackindex>
																<clipindex>1</clipindex>
																<groupindex>1</groupindex>
															</link>
															<logginginfo>
																<description></description>
																<scene></scene>
																<shottake></shottake>
																<lognote></lognote>
																<good></good>
																<originalvideofilename></originalvideofilename>
																<originalaudiofilename></originalaudiofilename>
															</logginginfo>
															<colorinfo>
																<lut></lut>
																<lut1></lut1>
																<asc_sop></asc_sop>
																<asc_sat></asc_sat>
																<lut2></lut2>
															</colorinfo>
															<labels>
																<label2>Caribbean</label2>
															</labels>
														</clipitem>
														<transitionitem>
															<start>3525</start>
															<end>3615</end>
															<pproTicksIn>29876726880000</pproTicksIn>
															<pproTicksOut>30639536928000</pproTicksOut>
															<alignment>end-black</alignment>
															<cutPointTicks>762810048000</cutPointTicks>
															<rate>
																<timebase>30</timebase>
																<ntsc>TRUE</ntsc>
															</rate>
															<effect>
																<name>Cross Fade (+3dB)</name>
																<effectid>KGAudioTransCrossFade3dB</effectid>
																<effecttype>transition</effecttype>
																<mediatype>audio</mediatype>
																<wipecode>0</wipecode>
																<wipeaccuracy>100</wipeaccuracy>
																<startratio>0</startratio>
																<endratio>1</endratio>
																<reverse>FALSE</reverse>
															</effect>
														</transitionitem>
														<enabled>TRUE</enabled>
														<locked>FALSE</locked>
														<outputchannelindex>1</outputchannelindex>
													</track>
													<track TL.SQTrackAudioKeyframeStyle="0" TL.SQTrackShy="0" TL.SQTrackExpandedHeight="25" TL.SQTrackExpanded="0" MZ.TrackTargeted="1" PannerCurrentValue="0.5" PannerIsInverted="true" PannerStartKeyframe="-91445760000000000,0.5,0,0,0,0,0,0" PannerName="Balance" currentExplodedTrackIndex="1" totalExplodedTrackCount="2" premiereTrackType="Stereo">
														<clipitem id="clipitem-484" premiereChannelType="stereo">
															<masterclipid>masterclip-161</masterclipid>
															<name>ES_Purple Rhombus - Guustavv.wav</name>
															<enabled>TRUE</enabled>
															<duration>4115</duration>
															<rate>
																<timebase>30</timebase>
																<ntsc>TRUE</ntsc>
															</rate>
															<start>0</start>
															<end>-1</end>
															<in>0</in>
															<out>3615</out>
															<pproTicksIn>0</pproTicksIn>
															<pproTicksOut>30639536928000</pproTicksOut>
															<file id="file-138"/>
															<sourcetrack>
																<mediatype>audio</mediatype>
																<trackindex>2</trackindex>
															</sourcetrack>
															<filter>
																<effect>
																	<name>Gain</name>
																	<effectid>{61756678, 4761696e, 4b657947}</effectid>
																	<effecttype>filter</effecttype>
																	<mediatype>audio</mediatype>
																	<parameter authoringApp="PremierePro">
																		<parameterid>Gain(dB)</parameterid>
																		<name>Gain(dB)</name>
																		<valuemin>-96</valuemin>
																		<valuemax>96</valuemax>
																		<value>-8</value>
																	</parameter>
																</effect>
															</filter>
															<link>
																<linkclipref>clipitem-483</linkclipref>
																<mediatype>audio</mediatype>
																<trackindex>1</trackindex>
																<clipindex>1</clipindex>
																<groupindex>1</groupindex>
															</link>
															<link>
																<linkclipref>clipitem-484</linkclipref>
																<mediatype>audio</mediatype>
																<trackindex>2</trackindex>
																<clipindex>1</clipindex>
																<groupindex>1</groupindex>
															</link>
															<logginginfo>
																<description></description>
																<scene></scene>
																<shottake></shottake>
																<lognote></lognote>
																<good></good>
																<originalvideofilename></originalvideofilename>
																<originalaudiofilename></originalaudiofilename>
															</logginginfo>
															<colorinfo>
																<lut></lut>
																<lut1></lut1>
																<asc_sop></asc_sop>
																<asc_sat></asc_sat>
																<lut2></lut2>
															</colorinfo>
															<labels>
																<label2>Caribbean</label2>
															</labels>
														</clipitem>
														<transitionitem>
															<start>3525</start>
															<end>3615</end>
															<pproTicksIn>29876726880000</pproTicksIn>
															<pproTicksOut>30639536928000</pproTicksOut>
															<alignment>end-black</alignment>
															<cutPointTicks>762810048000</cutPointTicks>
															<rate>
																<timebase>30</timebase>
																<ntsc>TRUE</ntsc>
															</rate>
															<effect>
																<name>Cross Fade (+3dB)</name>
																<effectid>KGAudioTransCrossFade3dB</effectid>
																<effecttype>transition</effecttype>
																<mediatype>audio</mediatype>
																<wipecode>0</wipecode>
																<wipeaccuracy>100</wipeaccuracy>
																<startratio>0</startratio>
																<endratio>1</endratio>
																<reverse>FALSE</reverse>
															</effect>
														</transitionitem>
														<enabled>TRUE</enabled>
														<locked>FALSE</locked>
														<outputchannelindex>2</outputchannelindex>
													</track>
												</audio>
											</media>
											<timecode>
												<rate>
													<timebase>30</timebase>
													<ntsc>TRUE</ntsc>
												</rate>
												<string>00;00;00;00</string>
												<frame>0</frame>
												<displayformat>DF</displayformat>
											</timecode>
											<logginginfo>
												<description></description>
												<scene></scene>
												<shottake></shottake>
												<lognote></lognote>
												<good></good>
												<originalvideofilename></originalvideofilename>
												<originalaudiofilename></originalaudiofilename>
											</logginginfo>
										</sequence>
										<link>
											<linkclipref>clipitem-466</linkclipref>
											<mediatype>video</mediatype>
											<trackindex>1</trackindex>
											<clipindex>2</clipindex>
										</link>
										<link>
											<linkclipref>clipitem-491</linkclipref>
											<mediatype>audio</mediatype>
											<trackindex>1</trackindex>
											<clipindex>2</clipindex>
											<groupindex>1</groupindex>
										</link>
										<link>
											<linkclipref>clipitem-494</linkclipref>
											<mediatype>audio</mediatype>
											<trackindex>2</trackindex>
											<clipindex>2</clipindex>
											<groupindex>1</groupindex>
										</link>
										<labels>
											<label2>Forest</label2>
										</labels>
									</clipitem>
									<clipitem id="clipitem-485">
										<masterclipid>masterclip-162</masterclipid>
										<name>ATM_HouseAd_2023_V2.mp4</name>
										<enabled>TRUE</enabled>
										<duration>239</duration>
										<rate>
											<timebase>30</timebase>
											<ntsc>TRUE</ntsc>
										</rate>
										<start>5430</start>
										<end>5669</end>
										<in>0</in>
										<out>239</out>
										<pproTicksIn>0</pproTicksIn>
										<pproTicksOut>2025684460800</pproTicksOut>
										<alphatype>none</alphatype>
										<pixelaspectratio>square</pixelaspectratio>
										<anamorphic>FALSE</anamorphic>
										<file id="file-139">
											<name>ATM_HouseAd_2023_V2.mp4</name>
											<pathurl>file://localhost/Volumes/ATM%20JR%202TB/Crafty/2023/06_June/Crafty_6-19-23/5_Music/../../../../Master%20Assets%20/Transitions/ATM_HouseAd_2023_V2.mp4</pathurl>
											<rate>
												<timebase>30</timebase>
												<ntsc>FALSE</ntsc>
											</rate>
											<duration>240</duration>
											<timecode>
												<rate>
													<timebase>30</timebase>
													<ntsc>FALSE</ntsc>
												</rate>
												<string>00:00:00:00</string>
												<frame>0</frame>
												<displayformat>NDF</displayformat>
											</timecode>
											<media>
												<video>
													<samplecharacteristics>
														<rate>
															<timebase>30</timebase>
															<ntsc>FALSE</ntsc>
														</rate>
														<width>1920</width>
														<height>1080</height>
														<anamorphic>FALSE</anamorphic>
														<pixelaspectratio>square</pixelaspectratio>
														<fielddominance>none</fielddominance>
													</samplecharacteristics>
												</video>
												<audio>
													<samplecharacteristics>
														<depth>16</depth>
														<samplerate>48000</samplerate>
													</samplecharacteristics>
													<channelcount>2</channelcount>
												</audio>
											</media>
										</file>
										<link>
											<linkclipref>clipitem-485</linkclipref>
											<mediatype>video</mediatype>
											<trackindex>1</trackindex>
											<clipindex>3</clipindex>
										</link>
										<link>
											<linkclipref>clipitem-492</linkclipref>
											<mediatype>audio</mediatype>
											<trackindex>1</trackindex>
											<clipindex>3</clipindex>
											<groupindex>1</groupindex>
										</link>
										<link>
											<linkclipref>clipitem-495</linkclipref>
											<mediatype>audio</mediatype>
											<trackindex>2</trackindex>
											<clipindex>3</clipindex>
											<groupindex>1</groupindex>
										</link>
										<logginginfo>
											<description></description>
											<scene></scene>
											<shottake></shottake>
											<lognote></lognote>
											<good></good>
											<originalvideofilename></originalvideofilename>
											<originalaudiofilename></originalaudiofilename>
										</logginginfo>
										<colorinfo>
											<lut></lut>
											<lut1></lut1>
											<asc_sop></asc_sop>
											<asc_sat></asc_sat>
											<lut2></lut2>
										</colorinfo>
										<labels>
											<label2>Iris</label2>
										</labels>
									</clipitem>
									<enabled>TRUE</enabled>
									<locked>FALSE</locked>
								</track>
								<track TL.SQTrackShy="0" TL.SQTrackExpandedHeight="25" TL.SQTrackExpanded="0" MZ.TrackTargeted="0">
									<clipitem id="clipitem-486">
										<masterclipid>masterclip-163</masterclipid>
										<name>CROCHETED CABANA CLUTCH</name>
										<enabled>TRUE</enabled>
										<duration>5695</duration>
										<rate>
											<timebase>30</timebase>
											<ntsc>TRUE</ntsc>
										</rate>
										<start>0</start>
										<end>1716</end>
										<in>0</in>
										<out>1716</out>
										<pproTicksIn>0</pproTicksIn>
										<pproTicksOut>14544244915200</pproTicksOut>
										<alphatype>straight</alphatype>
										<pixelaspectratio>square</pixelaspectratio>
										<anamorphic>FALSE</anamorphic>
										<file id="file-140">
											<name>CRAFTY_L3RD_01_JL_V03/CRAFTY_L3RD_01_JL_V03.aep</name>
											<pathurl>file://localhost/Volumes/ATM%20JR%202TB/Crafty/Master%20Assets%20/Lower%20Thirds/CRAFTY_L3RD_01_JL_V03.aep</pathurl>
											<rate>
												<timebase>30</timebase>
												<ntsc>FALSE</ntsc>
											</rate>
											<duration>5701</duration>
											<timecode>
												<rate>
													<timebase>30</timebase>
													<ntsc>FALSE</ntsc>
												</rate>
												<string>00:00:00:00</string>
												<frame>0</frame>
												<displayformat>NDF</displayformat>
											</timecode>
											<media>
												<video>
													<samplecharacteristics>
														<rate>
															<timebase>30</timebase>
															<ntsc>FALSE</ntsc>
														</rate>
														<width>1920</width>
														<height>1080</height>
														<anamorphic>FALSE</anamorphic>
														<pixelaspectratio>square</pixelaspectratio>
														<fielddominance>lower</fielddominance>
													</samplecharacteristics>
												</video>
											</media>
										</file>
										<logginginfo>
											<description></description>
											<scene></scene>
											<shottake></shottake>
											<lognote></lognote>
											<good></good>
											<originalvideofilename></originalvideofilename>
											<originalaudiofilename></originalaudiofilename>
										</logginginfo>
										<colorinfo>
											<lut></lut>
											<lut1></lut1>
											<asc_sop></asc_sop>
											<asc_sat></asc_sat>
											<lut2></lut2>
										</colorinfo>
										<labels>
											<label2>Rose</label2>
										</labels>
									</clipitem>
									<clipitem id="clipitem-487">
										<masterclipid>masterclip-164</masterclipid>
										<name>NIGHT FLIGHT FRIGHT</name>
										<enabled>TRUE</enabled>
										<duration>5695</duration>
										<rate>
											<timebase>30</timebase>
											<ntsc>TRUE</ntsc>
										</rate>
										<start>1836</start>
										<end>5430</end>
										<in>0</in>
										<out>3594</out>
										<pproTicksIn>0</pproTicksIn>
										<pproTicksOut>30461547916800</pproTicksOut>
										<alphatype>straight</alphatype>
										<pixelaspectratio>square</pixelaspectratio>
										<anamorphic>FALSE</anamorphic>
										<file id="file-141">
											<name>CRAFTY_L3RD_01_JL_V03/CRAFTY_L3RD_01_JL_V03.aep</name>
											<pathurl>file://localhost/Volumes/ATM%20JR%202TB/Crafty/Master%20Assets%20/Lower%20Thirds/CRAFTY_L3RD_01_JL_V03.aep</pathurl>
											<rate>
												<timebase>30</timebase>
												<ntsc>FALSE</ntsc>
											</rate>
											<duration>5701</duration>
											<timecode>
												<rate>
													<timebase>30</timebase>
													<ntsc>FALSE</ntsc>
												</rate>
												<string>00:00:00:00</string>
												<frame>0</frame>
												<displayformat>NDF</displayformat>
											</timecode>
											<media>
												<video>
													<samplecharacteristics>
														<rate>
															<timebase>30</timebase>
															<ntsc>FALSE</ntsc>
														</rate>
														<width>1920</width>
														<height>1080</height>
														<anamorphic>FALSE</anamorphic>
														<pixelaspectratio>square</pixelaspectratio>
														<fielddominance>lower</fielddominance>
													</samplecharacteristics>
												</video>
											</media>
										</file>
										<logginginfo>
											<description></description>
											<scene></scene>
											<shottake></shottake>
											<lognote></lognote>
											<good></good>
											<originalvideofilename></originalvideofilename>
											<originalaudiofilename></originalaudiofilename>
										</logginginfo>
										<colorinfo>
											<lut></lut>
											<lut1></lut1>
											<asc_sop></asc_sop>
											<asc_sat></asc_sat>
											<lut2></lut2>
										</colorinfo>
										<labels>
											<label2>Rose</label2>
										</labels>
									</clipitem>
									<enabled>TRUE</enabled>
									<locked>FALSE</locked>
								</track>
								<track TL.SQTrackShy="0" TL.SQTrackExpandedHeight="25" TL.SQTrackExpanded="0" MZ.TrackTargeted="0">
									<clipitem id="clipitem-488">
										<masterclipid>masterclip-102</masterclipid>
										<name>ATM_logo_channels_right-2 (3).png</name>
										<enabled>TRUE</enabled>
										<duration>1294705</duration>
										<rate>
											<timebase>30</timebase>
											<ntsc>TRUE</ntsc>
										</rate>
										<start>0</start>
										<end>5430</end>
										<in>107892</in>
										<out>113322</out>
										<pproTicksIn>914456685542400</pproTicksIn>
										<pproTicksOut>960479558438400</pproTicksOut>
										<alphatype>straight</alphatype>
										<file id="file-89"/>
										<logginginfo>
											<description></description>
											<scene></scene>
											<shottake></shottake>
											<lognote></lognote>
											<good></good>
											<originalvideofilename></originalvideofilename>
											<originalaudiofilename></originalaudiofilename>
										</logginginfo>
										<colorinfo>
											<lut></lut>
											<lut1></lut1>
											<asc_sop></asc_sop>
											<asc_sat></asc_sat>
											<lut2></lut2>
										</colorinfo>
										<labels>
											<label2>Lavender</label2>
										</labels>
									</clipitem>
									<enabled>TRUE</enabled>
									<locked>FALSE</locked>
								</track>
								<track TL.SQTrackShy="0" TL.SQTrackExpandedHeight="25" TL.SQTrackExpanded="0" MZ.TrackTargeted="0">
									<clipitem id="clipitem-489">
										<masterclipid>masterclip-117</masterclipid>
										<name>CRAFTY_TRAN01_JL_V01.mov</name>
										<enabled>TRUE</enabled>
										<duration>120</duration>
										<rate>
											<timebase>30</timebase>
											<ntsc>TRUE</ntsc>
										</rate>
										<start>1716</start>
										<end>1836</end>
										<in>0</in>
										<out>120</out>
										<pproTicksIn>0</pproTicksIn>
										<pproTicksOut>1017080064000</pproTicksOut>
										<alphatype>none</alphatype>
										<file id="file-102"/>
										<link>
											<linkclipref>clipitem-489</linkclipref>
											<mediatype>video</mediatype>
											<trackindex>4</trackindex>
											<clipindex>1</clipindex>
										</link>
										<link>
											<linkclipref>clipitem-496</linkclipref>
											<mediatype>audio</mediatype>
											<trackindex>3</trackindex>
											<clipindex>1</clipindex>
											<groupindex>1</groupindex>
										</link>
										<link>
											<linkclipref>clipitem-497</linkclipref>
											<mediatype>audio</mediatype>
											<trackindex>4</trackindex>
											<clipindex>1</clipindex>
											<groupindex>1</groupindex>
										</link>
										<logginginfo>
											<description></description>
											<scene></scene>
											<shottake></shottake>
											<lognote></lognote>
											<good></good>
											<originalvideofilename></originalvideofilename>
											<originalaudiofilename></originalaudiofilename>
										</logginginfo>
										<colorinfo>
											<lut></lut>
											<lut1></lut1>
											<asc_sop></asc_sop>
											<asc_sat></asc_sat>
											<lut2></lut2>
										</colorinfo>
										<labels>
											<label2>Iris</label2>
										</labels>
									</clipitem>
									<enabled>TRUE</enabled>
									<locked>FALSE</locked>
								</track>
							</video>
							<audio>
								<numOutputChannels>2</numOutputChannels>
								<format>
									<samplecharacteristics>
										<depth>16</depth>
										<samplerate>48000</samplerate>
									</samplecharacteristics>
								</format>
								<outputs>
									<group>
										<index>1</index>
										<numchannels>1</numchannels>
										<downmix>0</downmix>
										<channel>
											<index>1</index>
										</channel>
									</group>
									<group>
										<index>2</index>
										<numchannels>1</numchannels>
										<downmix>0</downmix>
										<channel>
											<index>2</index>
										</channel>
									</group>
								</outputs>
								<track TL.SQTrackAudioKeyframeStyle="0" TL.SQTrackShy="0" TL.SQTrackExpandedHeight="75" TL.SQTrackExpanded="0" MZ.TrackTargeted="1" PannerCurrentValue="0.5" PannerIsInverted="true" PannerStartKeyframe="-91445760000000000,0.5,0,0,0,0,0,0" PannerName="Balance" currentExplodedTrackIndex="0" totalExplodedTrackCount="2" premiereTrackType="Stereo">
									<clipitem id="clipitem-490" premiereChannelType="stereo">
										<masterclipid>masterclip-151</masterclipid>
										<name>DIY_CROCHETEDCABANACLUTCH_1</name>
										<enabled>TRUE</enabled>
										<duration>2053</duration>
										<rate>
											<timebase>30</timebase>
											<ntsc>TRUE</ntsc>
										</rate>
										<start>0</start>
										<end>1731</end>
										<in>0</in>
										<out>1731</out>
										<pproTicksIn>0</pproTicksIn>
										<pproTicksOut>14671379923200</pproTicksOut>
										<sequence id="sequence-33"/>
										<sourcetrack>
											<mediatype>audio</mediatype>
											<trackindex>0</trackindex>
										</sourcetrack>
										<link>
											<linkclipref>clipitem-454</linkclipref>
											<mediatype>video</mediatype>
											<trackindex>1</trackindex>
											<clipindex>1</clipindex>
										</link>
										<link>
											<linkclipref>clipitem-490</linkclipref>
											<mediatype>audio</mediatype>
											<trackindex>1</trackindex>
											<clipindex>1</clipindex>
											<groupindex>1</groupindex>
										</link>
										<link>
											<linkclipref>clipitem-493</linkclipref>
											<mediatype>audio</mediatype>
											<trackindex>2</trackindex>
											<clipindex>1</clipindex>
											<groupindex>1</groupindex>
										</link>
										<labels>
											<label2>Forest</label2>
										</labels>
									</clipitem>
									<clipitem id="clipitem-491" premiereChannelType="stereo">
										<masterclipid>masterclip-155</masterclipid>
										<name>DIY_NIGHTLIGHTFRIGHT_2</name>
										<enabled>TRUE</enabled>
										<duration>3671</duration>
										<rate>
											<timebase>30</timebase>
											<ntsc>TRUE</ntsc>
										</rate>
										<start>1815</start>
										<end>5430</end>
										<in>0</in>
										<out>3615</out>
										<pproTicksIn>0</pproTicksIn>
										<pproTicksOut>30639536928000</pproTicksOut>
										<sequence id="sequence-34"/>
										<sourcetrack>
											<mediatype>audio</mediatype>
											<trackindex>0</trackindex>
										</sourcetrack>
										<link>
											<linkclipref>clipitem-466</linkclipref>
											<mediatype>video</mediatype>
											<trackindex>1</trackindex>
											<clipindex>2</clipindex>
										</link>
										<link>
											<linkclipref>clipitem-491</linkclipref>
											<mediatype>audio</mediatype>
											<trackindex>1</trackindex>
											<clipindex>2</clipindex>
											<groupindex>1</groupindex>
										</link>
										<link>
											<linkclipref>clipitem-494</linkclipref>
											<mediatype>audio</mediatype>
											<trackindex>2</trackindex>
											<clipindex>2</clipindex>
											<groupindex>1</groupindex>
										</link>
										<labels>
											<label2>Forest</label2>
										</labels>
									</clipitem>
									<clipitem id="clipitem-492" premiereChannelType="stereo">
										<masterclipid>masterclip-162</masterclipid>
										<name>ATM_HouseAd_2023_V2.mp4</name>
										<enabled>TRUE</enabled>
										<duration>239</duration>
										<rate>
											<timebase>30</timebase>
											<ntsc>TRUE</ntsc>
										</rate>
										<start>5430</start>
										<end>5669</end>
										<in>0</in>
										<out>239</out>
										<pproTicksIn>0</pproTicksIn>
										<pproTicksOut>2025684460800</pproTicksOut>
										<file id="file-139"/>
										<sourcetrack>
											<mediatype>audio</mediatype>
											<trackindex>1</trackindex>
										</sourcetrack>
										<filter>
											<effect>
												<name>Gain</name>
												<effectid>{61756678, 4761696e, 4b657947}</effectid>
												<effecttype>filter</effecttype>
												<mediatype>audio</mediatype>
												<parameter authoringApp="PremierePro">
													<parameterid>Gain(dB)</parameterid>
													<name>Gain(dB)</name>
													<valuemin>-96</valuemin>
													<valuemax>96</valuemax>
													<value>-8</value>
												</parameter>
											</effect>
										</filter>
										<link>
											<linkclipref>clipitem-485</linkclipref>
											<mediatype>video</mediatype>
											<trackindex>1</trackindex>
											<clipindex>3</clipindex>
										</link>
										<link>
											<linkclipref>clipitem-492</linkclipref>
											<mediatype>audio</mediatype>
											<trackindex>1</trackindex>
											<clipindex>3</clipindex>
											<groupindex>1</groupindex>
										</link>
										<link>
											<linkclipref>clipitem-495</linkclipref>
											<mediatype>audio</mediatype>
											<trackindex>2</trackindex>
											<clipindex>3</clipindex>
											<groupindex>1</groupindex>
										</link>
										<logginginfo>
											<description></description>
											<scene></scene>
											<shottake></shottake>
											<lognote></lognote>
											<good></good>
											<originalvideofilename></originalvideofilename>
											<originalaudiofilename></originalaudiofilename>
										</logginginfo>
										<colorinfo>
											<lut></lut>
											<lut1></lut1>
											<asc_sop></asc_sop>
											<asc_sat></asc_sat>
											<lut2></lut2>
										</colorinfo>
										<labels>
											<label2>Iris</label2>
										</labels>
									</clipitem>
									<enabled>TRUE</enabled>
									<locked>FALSE</locked>
									<outputchannelindex>1</outputchannelindex>
								</track>
								<track TL.SQTrackAudioKeyframeStyle="0" TL.SQTrackShy="0" TL.SQTrackExpandedHeight="75" TL.SQTrackExpanded="0" MZ.TrackTargeted="1" PannerCurrentValue="0.5" PannerIsInverted="true" PannerStartKeyframe="-91445760000000000,0.5,0,0,0,0,0,0" PannerName="Balance" currentExplodedTrackIndex="1" totalExplodedTrackCount="2" premiereTrackType="Stereo">
									<clipitem id="clipitem-493" premiereChannelType="stereo">
										<masterclipid>masterclip-151</masterclipid>
										<name>DIY_CROCHETEDCABANACLUTCH_1</name>
										<enabled>TRUE</enabled>
										<duration>2053</duration>
										<rate>
											<timebase>30</timebase>
											<ntsc>TRUE</ntsc>
										</rate>
										<start>0</start>
										<end>1731</end>
										<in>0</in>
										<out>1731</out>
										<pproTicksIn>0</pproTicksIn>
										<pproTicksOut>14671379923200</pproTicksOut>
										<sequence id="sequence-33"/>
										<sourcetrack>
											<mediatype>audio</mediatype>
											<trackindex>1</trackindex>
										</sourcetrack>
										<link>
											<linkclipref>clipitem-454</linkclipref>
											<mediatype>video</mediatype>
											<trackindex>1</trackindex>
											<clipindex>1</clipindex>
										</link>
										<link>
											<linkclipref>clipitem-490</linkclipref>
											<mediatype>audio</mediatype>
											<trackindex>1</trackindex>
											<clipindex>1</clipindex>
											<groupindex>1</groupindex>
										</link>
										<link>
											<linkclipref>clipitem-493</linkclipref>
											<mediatype>audio</mediatype>
											<trackindex>2</trackindex>
											<clipindex>1</clipindex>
											<groupindex>1</groupindex>
										</link>
										<labels>
											<label2>Forest</label2>
										</labels>
									</clipitem>
									<clipitem id="clipitem-494" premiereChannelType="stereo">
										<masterclipid>masterclip-155</masterclipid>
										<name>DIY_NIGHTLIGHTFRIGHT_2</name>
										<enabled>TRUE</enabled>
										<duration>3671</duration>
										<rate>
											<timebase>30</timebase>
											<ntsc>TRUE</ntsc>
										</rate>
										<start>1815</start>
										<end>5430</end>
										<in>0</in>
										<out>3615</out>
										<pproTicksIn>0</pproTicksIn>
										<pproTicksOut>30639536928000</pproTicksOut>
										<sequence id="sequence-34"/>
										<sourcetrack>
											<mediatype>audio</mediatype>
											<trackindex>1</trackindex>
										</sourcetrack>
										<link>
											<linkclipref>clipitem-466</linkclipref>
											<mediatype>video</mediatype>
											<trackindex>1</trackindex>
											<clipindex>2</clipindex>
										</link>
										<link>
											<linkclipref>clipitem-491</linkclipref>
											<mediatype>audio</mediatype>
											<trackindex>1</trackindex>
											<clipindex>2</clipindex>
											<groupindex>1</groupindex>
										</link>
										<link>
											<linkclipref>clipitem-494</linkclipref>
											<mediatype>audio</mediatype>
											<trackindex>2</trackindex>
											<clipindex>2</clipindex>
											<groupindex>1</groupindex>
										</link>
										<labels>
											<label2>Forest</label2>
										</labels>
									</clipitem>
									<clipitem id="clipitem-495" premiereChannelType="stereo">
										<masterclipid>masterclip-162</masterclipid>
										<name>ATM_HouseAd_2023_V2.mp4</name>
										<enabled>TRUE</enabled>
										<duration>239</duration>
										<rate>
											<timebase>30</timebase>
											<ntsc>TRUE</ntsc>
										</rate>
										<start>5430</start>
										<end>5669</end>
										<in>0</in>
										<out>239</out>
										<pproTicksIn>0</pproTicksIn>
										<pproTicksOut>2025684460800</pproTicksOut>
										<file id="file-139"/>
										<sourcetrack>
											<mediatype>audio</mediatype>
											<trackindex>2</trackindex>
										</sourcetrack>
										<filter>
											<effect>
												<name>Gain</name>
												<effectid>{61756678, 4761696e, 4b657947}</effectid>
												<effecttype>filter</effecttype>
												<mediatype>audio</mediatype>
												<parameter authoringApp="PremierePro">
													<parameterid>Gain(dB)</parameterid>
													<name>Gain(dB)</name>
													<valuemin>-96</valuemin>
													<valuemax>96</valuemax>
													<value>-8</value>
												</parameter>
											</effect>
										</filter>
										<link>
											<linkclipref>clipitem-485</linkclipref>
											<mediatype>video</mediatype>
											<trackindex>1</trackindex>
											<clipindex>3</clipindex>
										</link>
										<link>
											<linkclipref>clipitem-492</linkclipref>
											<mediatype>audio</mediatype>
											<trackindex>1</trackindex>
											<clipindex>3</clipindex>
											<groupindex>1</groupindex>
										</link>
										<link>
											<linkclipref>clipitem-495</linkclipref>
											<mediatype>audio</mediatype>
											<trackindex>2</trackindex>
											<clipindex>3</clipindex>
											<groupindex>1</groupindex>
										</link>
										<logginginfo>
											<description></description>
											<scene></scene>
											<shottake></shottake>
											<lognote></lognote>
											<good></good>
											<originalvideofilename></originalvideofilename>
											<originalaudiofilename></originalaudiofilename>
										</logginginfo>
										<colorinfo>
											<lut></lut>
											<lut1></lut1>
											<asc_sop></asc_sop>
											<asc_sat></asc_sat>
											<lut2></lut2>
										</colorinfo>
										<labels>
											<label2>Iris</label2>
										</labels>
									</clipitem>
									<enabled>TRUE</enabled>
									<locked>FALSE</locked>
									<outputchannelindex>2</outputchannelindex>
								</track>
								<track TL.SQTrackAudioKeyframeStyle="0" TL.SQTrackShy="0" TL.SQTrackExpandedHeight="75" TL.SQTrackExpanded="0" MZ.TrackTargeted="1" PannerCurrentValue="0.5" PannerIsInverted="true" PannerStartKeyframe="-91445760000000000,0.5,0,0,0,0,0,0" PannerName="Balance" currentExplodedTrackIndex="0" totalExplodedTrackCount="2" premiereTrackType="Stereo">
									<clipitem id="clipitem-496" premiereChannelType="stereo">
										<masterclipid>masterclip-117</masterclipid>
										<name>CRAFTY_TRAN01_JL_V01.mov</name>
										<enabled>TRUE</enabled>
										<duration>120</duration>
										<rate>
											<timebase>30</timebase>
											<ntsc>TRUE</ntsc>
										</rate>
										<start>1716</start>
										<end>1836</end>
										<in>0</in>
										<out>120</out>
										<pproTicksIn>0</pproTicksIn>
										<pproTicksOut>1017080064000</pproTicksOut>
										<file id="file-102"/>
										<sourcetrack>
											<mediatype>audio</mediatype>
											<trackindex>1</trackindex>
										</sourcetrack>
										<link>
											<linkclipref>clipitem-489</linkclipref>
											<mediatype>video</mediatype>
											<trackindex>4</trackindex>
											<clipindex>1</clipindex>
										</link>
										<link>
											<linkclipref>clipitem-496</linkclipref>
											<mediatype>audio</mediatype>
											<trackindex>3</trackindex>
											<clipindex>1</clipindex>
											<groupindex>1</groupindex>
										</link>
										<link>
											<linkclipref>clipitem-497</linkclipref>
											<mediatype>audio</mediatype>
											<trackindex>4</trackindex>
											<clipindex>1</clipindex>
											<groupindex>1</groupindex>
										</link>
										<logginginfo>
											<description></description>
											<scene></scene>
											<shottake></shottake>
											<lognote></lognote>
											<good></good>
											<originalvideofilename></originalvideofilename>
											<originalaudiofilename></originalaudiofilename>
										</logginginfo>
										<colorinfo>
											<lut></lut>
											<lut1></lut1>
											<asc_sop></asc_sop>
											<asc_sat></asc_sat>
											<lut2></lut2>
										</colorinfo>
										<labels>
											<label2>Iris</label2>
										</labels>
									</clipitem>
									<enabled>TRUE</enabled>
									<locked>FALSE</locked>
									<outputchannelindex>1</outputchannelindex>
								</track>
								<track TL.SQTrackAudioKeyframeStyle="0" TL.SQTrackShy="0" TL.SQTrackExpandedHeight="75" TL.SQTrackExpanded="0" MZ.TrackTargeted="1" PannerCurrentValue="0.5" PannerIsInverted="true" PannerStartKeyframe="-91445760000000000,0.5,0,0,0,0,0,0" PannerName="Balance" currentExplodedTrackIndex="1" totalExplodedTrackCount="2" premiereTrackType="Stereo">
									<clipitem id="clipitem-497" premiereChannelType="stereo">
										<masterclipid>masterclip-117</masterclipid>
										<name>CRAFTY_TRAN01_JL_V01.mov</name>
										<enabled>TRUE</enabled>
										<duration>120</duration>
										<rate>
											<timebase>30</timebase>
											<ntsc>TRUE</ntsc>
										</rate>
										<start>1716</start>
										<end>1836</end>
										<in>0</in>
										<out>120</out>
										<pproTicksIn>0</pproTicksIn>
										<pproTicksOut>1017080064000</pproTicksOut>
										<file id="file-102"/>
										<sourcetrack>
											<mediatype>audio</mediatype>
											<trackindex>2</trackindex>
										</sourcetrack>
										<link>
											<linkclipref>clipitem-489</linkclipref>
											<mediatype>video</mediatype>
											<trackindex>4</trackindex>
											<clipindex>1</clipindex>
										</link>
										<link>
											<linkclipref>clipitem-496</linkclipref>
											<mediatype>audio</mediatype>
											<trackindex>3</trackindex>
											<clipindex>1</clipindex>
											<groupindex>1</groupindex>
										</link>
										<link>
											<linkclipref>clipitem-497</linkclipref>
											<mediatype>audio</mediatype>
											<trackindex>4</trackindex>
											<clipindex>1</clipindex>
											<groupindex>1</groupindex>
										</link>
										<logginginfo>
											<description></description>
											<scene></scene>
											<shottake></shottake>
											<lognote></lognote>
											<good></good>
											<originalvideofilename></originalvideofilename>
											<originalaudiofilename></originalaudiofilename>
										</logginginfo>
										<colorinfo>
											<lut></lut>
											<lut1></lut1>
											<asc_sop></asc_sop>
											<asc_sat></asc_sat>
											<lut2></lut2>
										</colorinfo>
										<labels>
											<label2>Iris</label2>
										</labels>
									</clipitem>
									<enabled>TRUE</enabled>
									<locked>FALSE</locked>
									<outputchannelindex>2</outputchannelindex>
								</track>
								<track TL.SQTrackAudioKeyframeStyle="0" TL.SQTrackShy="0" TL.SQTrackExpandedHeight="75" TL.SQTrackExpanded="0" MZ.TrackTargeted="1" PannerCurrentValue="0.5" PannerIsInverted="true" PannerStartKeyframe="-91445760000000000,0.5,0,0,0,0,0,0" PannerName="Balance" currentExplodedTrackIndex="0" totalExplodedTrackCount="2" premiereTrackType="Stereo">
									<enabled>TRUE</enabled>
									<locked>FALSE</locked>
									<outputchannelindex>1</outputchannelindex>
								</track>
								<track TL.SQTrackAudioKeyframeStyle="0" TL.SQTrackShy="0" TL.SQTrackExpandedHeight="75" TL.SQTrackExpanded="0" MZ.TrackTargeted="1" PannerCurrentValue="0.5" PannerIsInverted="true" PannerStartKeyframe="-91445760000000000,0.5,0,0,0,0,0,0" PannerName="Balance" currentExplodedTrackIndex="1" totalExplodedTrackCount="2" premiereTrackType="Stereo">
									<enabled>TRUE</enabled>
									<locked>FALSE</locked>
									<outputchannelindex>2</outputchannelindex>
								</track>
								<track TL.SQTrackAudioKeyframeStyle="0" TL.SQTrackShy="0" TL.SQTrackExpandedHeight="25" TL.SQTrackExpanded="0" MZ.TrackTargeted="0" PannerCurrentValue="0.5" PannerIsInverted="true" PannerStartKeyframe="-91445760000000000,0.5,0,0,0,0,0,0" PannerName="Balance" currentExplodedTrackIndex="0" totalExplodedTrackCount="2" premiereTrackType="Stereo">
									<enabled>TRUE</enabled>
									<locked>FALSE</locked>
									<outputchannelindex>1</outputchannelindex>
								</track>
								<track TL.SQTrackAudioKeyframeStyle="0" TL.SQTrackShy="0" TL.SQTrackExpandedHeight="25" TL.SQTrackExpanded="0" MZ.TrackTargeted="0" PannerCurrentValue="0.5" PannerIsInverted="true" PannerStartKeyframe="-91445760000000000,0.5,0,0,0,0,0,0" PannerName="Balance" currentExplodedTrackIndex="1" totalExplodedTrackCount="2" premiereTrackType="Stereo">
									<enabled>TRUE</enabled>
									<locked>FALSE</locked>
									<outputchannelindex>2</outputchannelindex>
								</track>
							</audio>
						</media>
						<timecode>
							<rate>
								<timebase>30</timebase>
								<ntsc>TRUE</ntsc>
							</rate>
							<string>00;00;00;00</string>
							<frame>0</frame>
							<displayformat>DF</displayformat>
						</timecode>
						<labels>
							<label2>Forest</label2>
						</labels>
						<logginginfo>
							<description></description>
							<scene></scene>
							<shottake></shottake>
							<lognote></lognote>
							<good></good>
							<originalvideofilename></originalvideofilename>
							<originalaudiofilename></originalaudiofilename>
						</logginginfo>
					</sequence>
					<sequence id="sequence-35" TL.SQAudioVisibleBase="45" TL.SQVideoVisibleBase="0" TL.SQVisibleBaseTime="0" TL.SQAVDividerPosition="0.5" TL.SQHideShyTracks="0" TL.SQHeaderWidth="236" TL.SQDataTrackViewControlState="0" Monitor.ProgramZoomOut="44098896441600" Monitor.ProgramZoomIn="0" TL.SQTimePerPixel="0.38820843602395172" MZ.EditLine="43488648403200" MZ.Sequence.PreviewFrameSizeHeight="1080" MZ.Sequence.PreviewFrameSizeWidth="1920" MZ.Sequence.AudioTimeDisplayFormat="200" MZ.Sequence.PreviewRenderingClassID="1061109567" MZ.Sequence.PreviewRenderingPresetCodec="1634755443" MZ.Sequence.PreviewRenderingPresetPath="EncoderPresets/SequencePreview/35d109db-457b-43c1-9452-9cb7be9f121c/QuickTime.epr" MZ.Sequence.PreviewUseMaxRenderQuality="false" MZ.Sequence.PreviewUseMaxBitDepth="false" MZ.Sequence.EditingModeGUID="35d109db-457b-43c1-9452-9cb7be9f121c" MZ.Sequence.VideoTimeDisplayFormat="102" MZ.WorkOutPoint="15239249625600" MZ.WorkInPoint="0" explodedTracks="true">
						<uuid>fc754a58-cd04-4f10-bedf-e959c5d45410</uuid>
						<duration>5114</duration>
						<rate>
							<timebase>30</timebase>
							<ntsc>TRUE</ntsc>
						</rate>
						<name>ATM_CRAFTY_307</name>
						<media>
							<video>
								<format>
									<samplecharacteristics>
										<rate>
											<timebase>30</timebase>
											<ntsc>TRUE</ntsc>
										</rate>
										<codec>
											<name>Apple ProRes 422</name>
											<appspecificdata>
												<appname>Final Cut Pro</appname>
												<appmanufacturer>Apple Inc.</appmanufacturer>
												<appversion>7.0</appversion>
												<data>
													<qtcodec>
														<codecname>Apple ProRes 422</codecname>
														<codectypename>Apple ProRes 422</codectypename>
														<codectypecode>apcn</codectypecode>
														<codecvendorcode>appl</codecvendorcode>
														<spatialquality>1024</spatialquality>
														<temporalquality>0</temporalquality>
														<keyframerate>0</keyframerate>
														<datarate>0</datarate>
													</qtcodec>
												</data>
											</appspecificdata>
										</codec>
										<width>1920</width>
										<height>1080</height>
										<anamorphic>FALSE</anamorphic>
										<pixelaspectratio>square</pixelaspectratio>
										<fielddominance>none</fielddominance>
										<colordepth>24</colordepth>
									</samplecharacteristics>
								</format>
								<track TL.SQTrackShy="0" TL.SQTrackExpandedHeight="25" TL.SQTrackExpanded="0" MZ.TrackTargeted="1">
									<clipitem id="clipitem-498">
										<masterclipid>masterclip-165</masterclipid>
										<name>BEAUTY_SOFRESHANDSOCLEAN_1.5</name>
										<enabled>TRUE</enabled>
										<duration>2378</duration>
										<rate>
											<timebase>30</timebase>
											<ntsc>TRUE</ntsc>
										</rate>
										<start>0</start>
										<end>2378</end>
										<in>0</in>
										<out>2378</out>
										<pproTicksIn>0</pproTicksIn>
										<pproTicksOut>20155136601600</pproTicksOut>
										<sequence id="sequence-36" TL.SQAudioVisibleBase="0" TL.SQVideoVisibleBase="0" TL.SQVisibleBaseTime="0" TL.SQAVDividerPosition="0.5" TL.SQHideShyTracks="0" TL.SQHeaderWidth="236" Monitor.ProgramZoomOut="20155136601600" Monitor.ProgramZoomIn="0" TL.SQTimePerPixel="0.22888966752235906" MZ.EditLine="0" MZ.Sequence.PreviewFrameSizeHeight="1080" MZ.Sequence.PreviewFrameSizeWidth="1920" MZ.Sequence.AudioTimeDisplayFormat="200" MZ.Sequence.PreviewRenderingClassID="1061109567" MZ.Sequence.PreviewRenderingPresetCodec="1634755443" MZ.Sequence.PreviewRenderingPresetPath="EncoderPresets/SequencePreview/35d109db-457b-43c1-9452-9cb7be9f121c/QuickTime.epr" MZ.Sequence.PreviewUseMaxRenderQuality="false" MZ.Sequence.PreviewUseMaxBitDepth="false" MZ.Sequence.EditingModeGUID="35d109db-457b-43c1-9452-9cb7be9f121c" MZ.Sequence.VideoTimeDisplayFormat="102" MZ.WorkOutPoint="20155136601600" MZ.WorkInPoint="0">
											<duration>2378</duration>
											<rate>
												<timebase>30</timebase>
												<ntsc>TRUE</ntsc>
											</rate>
											<name>BEAUTY_SOFRESHANDSOCLEAN_1.5</name>
											<media>
												<video>
													<format>
														<samplecharacteristics>
															<rate>
																<timebase>30</timebase>
																<ntsc>TRUE</ntsc>
															</rate>
															<codec>
																<name>Apple ProRes 422</name>
																<appspecificdata>
																	<appname>Final Cut Pro</appname>
																	<appmanufacturer>Apple Inc.</appmanufacturer>
																	<appversion>7.0</appversion>
																	<data>
																		<qtcodec>
																			<codecname>Apple ProRes 422</codecname>
																			<codectypename>Apple ProRes 422</codectypename>
																			<codectypecode>apcn</codectypecode>
																			<codecvendorcode>appl</codecvendorcode>
																			<spatialquality>1024</spatialquality>
																			<temporalquality>0</temporalquality>
																			<keyframerate>0</keyframerate>
																			<datarate>0</datarate>
																		</qtcodec>
																	</data>
																</appspecificdata>
															</codec>
															<width>1920</width>
															<height>1080</height>
															<anamorphic>FALSE</anamorphic>
															<pixelaspectratio>square</pixelaspectratio>
															<fielddominance>none</fielddominance>
															<colordepth>24</colordepth>
														</samplecharacteristics>
													</format>
													<track TL.SQTrackShy="0" TL.SQTrackExpandedHeight="25" TL.SQTrackExpanded="0" MZ.TrackTargeted="1">
														<clipitem id="clipitem-499">
															<masterclipid>masterclip-166</masterclipid>
															<name>(Agno black red)_REALISTIC SPIDER 🕷 transformação em cabelo 😱_i3W_dCvfCGg_YT.mp4</name>
															<enabled>TRUE</enabled>
															<duration>15689</duration>
															<rate>
																<timebase>30</timebase>
																<ntsc>TRUE</ntsc>
															</rate>
															<start>0</start>
															<end>269</end>
															<in>1251</in>
															<out>1520</out>
															<pproTicksIn>10603059667200</pproTicksIn>
															<pproTicksOut>12883014144000</pproTicksOut>
															<alphatype>none</alphatype>
															<pixelaspectratio>square</pixelaspectratio>
															<anamorphic>FALSE</anamorphic>
															<file id="file-142">
																<name>(Agno black red)_REALISTIC SPIDER 🕷 transformação em cabelo 😱_i3W_dCvfCGg_YT.mp4</name>
																<pathurl>file://localhost/Volumes/ATM%20JR%202TB/Crafty/2023/06_June/Crafty_6-19-23/3_Raw%20Footage/barber/(Agno%20black%20red)_REALISTIC%20SPIDER%20%f0%9f%95%b7%20transformac%cc%a7a%cc%83o%20em%20cabelo%20%f0%9f%98%b1_i3W_dCvfCGg_YT.mp4</pathurl>
																<rate>
																	<timebase>30</timebase>
																	<ntsc>TRUE</ntsc>
																</rate>
																<duration>15689</duration>
																<timecode>
																	<rate>
																		<timebase>30</timebase>
																		<ntsc>TRUE</ntsc>
																	</rate>
																	<string>00:00:00:00</string>
																	<frame>0</frame>
																	<displayformat>NDF</displayformat>
																</timecode>
																<media>
																	<video>
																		<samplecharacteristics>
																			<rate>
																				<timebase>30</timebase>
																				<ntsc>TRUE</ntsc>
																			</rate>
																			<width>1920</width>
																			<height>1080</height>
																			<anamorphic>FALSE</anamorphic>
																			<pixelaspectratio>square</pixelaspectratio>
																			<fielddominance>none</fielddominance>
																		</samplecharacteristics>
																	</video>
																	<audio>
																		<samplecharacteristics>
																			<depth>16</depth>
																			<samplerate>44100</samplerate>
																		</samplecharacteristics>
																		<channelcount>2</channelcount>
																	</audio>
																</media>
															</file>
															<logginginfo>
																<description></description>
																<scene></scene>
																<shottake></shottake>
																<lognote>https://www.youtube.com/watch?v=i3W_dCvfCGg</lognote>
																<good></good>
																<originalvideofilename></originalvideofilename>
																<originalaudiofilename></originalaudiofilename>
															</logginginfo>
															<colorinfo>
																<lut></lut>
																<lut1></lut1>
																<asc_sop></asc_sop>
																<asc_sat></asc_sat>
																<lut2></lut2>
															</colorinfo>
															<labels>
																<label2>Iris</label2>
															</labels>
														</clipitem>
														<clipitem id="clipitem-500">
															<masterclipid>masterclip-166</masterclipid>
															<name>(Agno black red)_REALISTIC SPIDER 🕷 transformação em cabelo 😱_i3W_dCvfCGg_YT.mp4</name>
															<enabled>TRUE</enabled>
															<duration>15689</duration>
															<rate>
																<timebase>30</timebase>
																<ntsc>TRUE</ntsc>
															</rate>
															<start>269</start>
															<end>443</end>
															<in>4368</in>
															<out>4542</out>
															<pproTicksIn>37021714329600</pproTicksIn>
															<pproTicksOut>38496480422400</pproTicksOut>
															<alphatype>none</alphatype>
															<file id="file-142"/>
															<logginginfo>
																<description></description>
																<scene></scene>
																<shottake></shottake>
																<lognote>https://www.youtube.com/watch?v=i3W_dCvfCGg</lognote>
																<good></good>
																<originalvideofilename></originalvideofilename>
																<originalaudiofilename></originalaudiofilename>
															</logginginfo>
															<colorinfo>
																<lut></lut>
																<lut1></lut1>
																<asc_sop></asc_sop>
																<asc_sat></asc_sat>
																<lut2></lut2>
															</colorinfo>
															<labels>
																<label2>Iris</label2>
															</labels>
														</clipitem>
														<clipitem id="clipitem-501">
															<masterclipid>masterclip-166</masterclipid>
															<name>(Agno black red)_REALISTIC SPIDER 🕷 transformação em cabelo 😱_i3W_dCvfCGg_YT.mp4</name>
															<enabled>TRUE</enabled>
															<duration>15689</duration>
															<rate>
																<timebase>30</timebase>
																<ntsc>TRUE</ntsc>
															</rate>
															<start>443</start>
															<end>756</end>
															<in>12303</in>
															<out>12616</out>
															<pproTicksIn>104276133561600</pproTicksIn>
															<pproTicksOut>106929017395200</pproTicksOut>
															<alphatype>none</alphatype>
															<file id="file-142"/>
															<logginginfo>
																<description></description>
																<scene></scene>
																<shottake></shottake>
																<lognote>https://www.youtube.com/watch?v=i3W_dCvfCGg</lognote>
																<good></good>
																<originalvideofilename></originalvideofilename>
																<originalaudiofilename></originalaudiofilename>
															</logginginfo>
															<colorinfo>
																<lut></lut>
																<lut1></lut1>
																<asc_sop></asc_sop>
																<asc_sat></asc_sat>
																<lut2></lut2>
															</colorinfo>
															<labels>
																<label2>Iris</label2>
															</labels>
														</clipitem>
														<clipitem id="clipitem-502">
															<masterclipid>masterclip-166</masterclipid>
															<name>(Agno black red)_REALISTIC SPIDER 🕷 transformação em cabelo 😱_i3W_dCvfCGg_YT.mp4</name>
															<enabled>TRUE</enabled>
															<duration>15689</duration>
															<rate>
																<timebase>30</timebase>
																<ntsc>TRUE</ntsc>
															</rate>
															<start>756</start>
															<end>998</end>
															<in>15289</in>
															<out>15531</out>
															<pproTicksIn>129584475820800</pproTicksIn>
															<pproTicksOut>131635587283200</pproTicksOut>
															<alphatype>none</alphatype>
															<file id="file-142"/>
															<logginginfo>
																<description></description>
																<scene></scene>
																<shottake></shottake>
																<lognote>https://www.youtube.com/watch?v=i3W_dCvfCGg</lognote>
																<good></good>
																<originalvideofilename></originalvideofilename>
																<originalaudiofilename></originalaudiofilename>
															</logginginfo>
															<colorinfo>
																<lut></lut>
																<lut1></lut1>
																<asc_sop></asc_sop>
																<asc_sat></asc_sat>
																<lut2></lut2>
															</colorinfo>
															<labels>
																<label2>Iris</label2>
															</labels>
														</clipitem>
														<clipitem id="clipitem-503">
															<masterclipid>masterclip-167</masterclipid>
															<name>(Wavykid Kev)_Fixing Some Pushback😳_ur5lnIMoATM_YT.mp4</name>
															<enabled>TRUE</enabled>
															<duration>1055</duration>
															<rate>
																<timebase>30</timebase>
																<ntsc>TRUE</ntsc>
															</rate>
															<start>998</start>
															<end>1983</end>
															<in>0</in>
															<out>985</out>
															<pproTicksIn>0</pproTicksIn>
															<pproTicksOut>8348532192000</pproTicksOut>
															<alphatype>none</alphatype>
															<pixelaspectratio>square</pixelaspectratio>
															<anamorphic>FALSE</anamorphic>
															<file id="file-143">
																<name>(Wavykid Kev)_Fixing Some Pushback😳_ur5lnIMoATM_YT.mp4</name>
																<pathurl>file://localhost/Volumes/ATM%20JR%202TB/Crafty/2023/06_June/Crafty_6-19-23/3_Raw%20Footage/barber/(Wavykid%20Kev)_Fixing%20Some%20Pushback%f0%9f%98%b3_ur5lnIMoATM_YT.mp4</pathurl>
																<rate>
																	<timebase>30</timebase>
																	<ntsc>FALSE</ntsc>
																</rate>
																<duration>1057</duration>
																<timecode>
																	<rate>
																		<timebase>30</timebase>
																		<ntsc>FALSE</ntsc>
																	</rate>
																	<string>00:00:00:00</string>
																	<frame>0</frame>
																	<displayformat>NDF</displayformat>
																</timecode>
																<media>
																	<video>
																		<samplecharacteristics>
																			<rate>
																				<timebase>30</timebase>
																				<ntsc>FALSE</ntsc>
																			</rate>
																			<width>720</width>
																			<height>1280</height>
																			<anamorphic>FALSE</anamorphic>
																			<pixelaspectratio>square</pixelaspectratio>
																			<fielddominance>none</fielddominance>
																		</samplecharacteristics>
																	</video>
																	<audio>
																		<samplecharacteristics>
																			<depth>16</depth>
																			<samplerate>44100</samplerate>
																		</samplecharacteristics>
																		<channelcount>2</channelcount>
																	</audio>
																</media>
															</file>
															<filter>
																<effect>
																	<name>Basic Motion</name>
																	<effectid>basic</effectid>
																	<effectcategory>motion</effectcategory>
																	<effecttype>motion</effecttype>
																	<mediatype>video</mediatype>
																	<pproBypass>false</pproBypass>
																	<parameter authoringApp="PremierePro">
																		<parameterid>scale</parameterid>
																		<name>Scale</name>
																		<valuemin>0</valuemin>
																		<valuemax>1000</valuemax>
																		<value>300</value>
																	</parameter>
																	<parameter authoringApp="PremierePro">
																		<parameterid>rotation</parameterid>
																		<name>Rotation</name>
																		<valuemin>-8640</valuemin>
																		<valuemax>8640</valuemax>
																		<value>0</value>
																	</parameter>
																	<parameter authoringApp="PremierePro">
																		<parameterid>center</parameterid>
																		<name>Center</name>
																		<value>
																			<horiz>0</horiz>
																			<vert>0</vert>
																		</value>
																	</parameter>
																	<parameter authoringApp="PremierePro">
																		<parameterid>centerOffset</parameterid>
																		<name>Anchor Point</name>
																		<value>
																			<horiz>0</horiz>
																			<vert>0</vert>
																		</value>
																	</parameter>
																	<parameter authoringApp="PremierePro">
																		<parameterid>antiflicker</parameterid>
																		<name>Anti-flicker Filter</name>
																		<valuemin>0.0</valuemin>
																		<valuemax>1.0</valuemax>
																		<value>0</value>
																	</parameter>
																</effect>
															</filter>
															<filter>
																<effect>
																	<name>Gaussian Blur</name>
																	<effectid>Gaussian Blur</effectid>
																	<effectcategory>Blur</effectcategory>
																	<effecttype>motion</effecttype>
																	<mediatype>video</mediatype>
																	<pproBypass>false</pproBypass>
																	<parameter authoringApp="PremierePro">
																		<parameterid>radius</parameterid>
																		<name>Radius</name>
																		<valuemin>0</valuemin>
																		<valuemax>100</valuemax>
																		<value>150</value>
																	</parameter>
																</effect>
															</filter>
															<logginginfo>
																<description></description>
																<scene></scene>
																<shottake></shottake>
																<lognote></lognote>
																<good></good>
																<originalvideofilename></originalvideofilename>
																<originalaudiofilename></originalaudiofilename>
															</logginginfo>
															<colorinfo>
																<lut></lut>
																<lut1></lut1>
																<asc_sop></asc_sop>
																<asc_sat></asc_sat>
																<lut2></lut2>
															</colorinfo>
															<labels>
																<label2>Caribbean</label2>
															</labels>
														</clipitem>
														<clipitem id="clipitem-504">
															<masterclipid>masterclip-168</masterclipid>
															<name>(Wavykid Kev)_This Client Gets FREE HAIRCUTS FOR LIFE! Here’s Why…_jqGh-LLNd7E_YT.mp4</name>
															<enabled>TRUE</enabled>
															<duration>1477</duration>
															<rate>
																<timebase>30</timebase>
																<ntsc>TRUE</ntsc>
															</rate>
															<start>1983</start>
															<end>2378</end>
															<in>891</in>
															<out>1286</out>
															<pproTicksIn>7551819475200</pproTicksIn>
															<pproTicksOut>10899708019200</pproTicksOut>
															<alphatype>none</alphatype>
															<pixelaspectratio>square</pixelaspectratio>
															<anamorphic>FALSE</anamorphic>
															<file id="file-144">
																<name>(Wavykid Kev)_This Client Gets FREE HAIRCUTS FOR LIFE! Here’s Why…_jqGh-LLNd7E_YT.mp4</name>
																<pathurl>file://localhost/Volumes/ATM%20JR%202TB/Crafty/2023/06_June/Crafty_6-19-23/3_Raw%20Footage/barber/(Wavykid%20Kev)_This%20Client%20Gets%20FREE%20HAIRCUTS%20FOR%20LIFE!%20Here%e2%80%99s%20Why%e2%80%a6_jqGh-LLNd7E_YT.mp4</pathurl>
																<rate>
																	<timebase>30</timebase>
																	<ntsc>FALSE</ntsc>
																</rate>
																<duration>1479</duration>
																<timecode>
																	<rate>
																		<timebase>30</timebase>
																		<ntsc>FALSE</ntsc>
																	</rate>
																	<string>00:00:00:00</string>
																	<frame>0</frame>
																	<displayformat>NDF</displayformat>
																</timecode>
																<media>
																	<video>
																		<samplecharacteristics>
																			<rate>
																				<timebase>30</timebase>
																				<ntsc>FALSE</ntsc>
																			</rate>
																			<width>720</width>
																			<height>1280</height>
																			<anamorphic>FALSE</anamorphic>
																			<pixelaspectratio>square</pixelaspectratio>
																			<fielddominance>none</fielddominance>
																		</samplecharacteristics>
																	</video>
																	<audio>
																		<samplecharacteristics>
																			<depth>16</depth>
																			<samplerate>44100</samplerate>
																		</samplecharacteristics>
																		<channelcount>2</channelcount>
																	</audio>
																</media>
															</file>
															<filter>
																<effect>
																	<name>Basic Motion</name>
																	<effectid>basic</effectid>
																	<effectcategory>motion</effectcategory>
																	<effecttype>motion</effecttype>
																	<mediatype>video</mediatype>
																	<pproBypass>false</pproBypass>
																	<parameter authoringApp="PremierePro">
																		<parameterid>scale</parameterid>
																		<name>Scale</name>
																		<valuemin>0</valuemin>
																		<valuemax>1000</valuemax>
																		<value>300</value>
																	</parameter>
																	<parameter authoringApp="PremierePro">
																		<parameterid>rotation</parameterid>
																		<name>Rotation</name>
																		<valuemin>-8640</valuemin>
																		<valuemax>8640</valuemax>
																		<value>0</value>
																	</parameter>
																	<parameter authoringApp="PremierePro">
																		<parameterid>center</parameterid>
																		<name>Center</name>
																		<value>
																			<horiz>0</horiz>
																			<vert>0</vert>
																		</value>
																	</parameter>
																	<parameter authoringApp="PremierePro">
																		<parameterid>centerOffset</parameterid>
																		<name>Anchor Point</name>
																		<value>
																			<horiz>0</horiz>
																			<vert>0</vert>
																		</value>
																	</parameter>
																	<parameter authoringApp="PremierePro">
																		<parameterid>antiflicker</parameterid>
																		<name>Anti-flicker Filter</name>
																		<valuemin>0.0</valuemin>
																		<valuemax>1.0</valuemax>
																		<value>0</value>
																	</parameter>
																</effect>
															</filter>
															<filter>
																<effect>
																	<name>Gaussian Blur</name>
																	<effectid>Gaussian Blur</effectid>
																	<effectcategory>Blur</effectcategory>
																	<effecttype>motion</effecttype>
																	<mediatype>video</mediatype>
																	<pproBypass>false</pproBypass>
																	<parameter authoringApp="PremierePro">
																		<parameterid>radius</parameterid>
																		<name>Radius</name>
																		<valuemin>0</valuemin>
																		<valuemax>100</valuemax>
																		<value>150</value>
																	</parameter>
																</effect>
															</filter>
															<logginginfo>
																<description></description>
																<scene></scene>
																<shottake></shottake>
																<lognote></lognote>
																<good></good>
																<originalvideofilename></originalvideofilename>
																<originalaudiofilename></originalaudiofilename>
															</logginginfo>
															<colorinfo>
																<lut></lut>
																<lut1></lut1>
																<asc_sop></asc_sop>
																<asc_sat></asc_sat>
																<lut2></lut2>
															</colorinfo>
															<labels>
																<label2>Violet</label2>
															</labels>
														</clipitem>
														<enabled>TRUE</enabled>
														<locked>FALSE</locked>
													</track>
													<track TL.SQTrackShy="0" TL.SQTrackExpandedHeight="25" TL.SQTrackExpanded="0" MZ.TrackTargeted="0">
														<clipitem id="clipitem-505">
															<masterclipid>masterclip-167</masterclipid>
															<name>(Wavykid Kev)_Fixing Some Pushback😳_ur5lnIMoATM_YT.mp4</name>
															<enabled>TRUE</enabled>
															<duration>1055</duration>
															<rate>
																<timebase>30</timebase>
																<ntsc>TRUE</ntsc>
															</rate>
															<start>998</start>
															<end>1983</end>
															<in>0</in>
															<out>985</out>
															<pproTicksIn>0</pproTicksIn>
															<pproTicksOut>8348532192000</pproTicksOut>
															<alphatype>none</alphatype>
															<file id="file-143"/>
															<filter>
																<effect>
																	<name>Basic Motion</name>
																	<effectid>basic</effectid>
																	<effectcategory>motion</effectcategory>
																	<effecttype>motion</effecttype>
																	<mediatype>video</mediatype>
																	<pproBypass>false</pproBypass>
																	<parameter authoringApp="PremierePro">
																		<parameterid>scale</parameterid>
																		<name>Scale</name>
																		<valuemin>0</valuemin>
																		<valuemax>1000</valuemax>
																		<value>84.375</value>
																	</parameter>
																	<parameter authoringApp="PremierePro">
																		<parameterid>rotation</parameterid>
																		<name>Rotation</name>
																		<valuemin>-8640</valuemin>
																		<valuemax>8640</valuemax>
																		<value>0</value>
																	</parameter>
																	<parameter authoringApp="PremierePro">
																		<parameterid>center</parameterid>
																		<name>Center</name>
																		<value>
																			<horiz>0</horiz>
																			<vert>0</vert>
																		</value>
																	</parameter>
																	<parameter authoringApp="PremierePro">
																		<parameterid>centerOffset</parameterid>
																		<name>Anchor Point</name>
																		<value>
																			<horiz>0</horiz>
																			<vert>0</vert>
																		</value>
																	</parameter>
																	<parameter authoringApp="PremierePro">
																		<parameterid>antiflicker</parameterid>
																		<name>Anti-flicker Filter</name>
																		<valuemin>0.0</valuemin>
																		<valuemax>1.0</valuemax>
																		<value>0</value>
																	</parameter>
																</effect>
															</filter>
															<logginginfo>
																<description></description>
																<scene></scene>
																<shottake></shottake>
																<lognote></lognote>
																<good></good>
																<originalvideofilename></originalvideofilename>
																<originalaudiofilename></originalaudiofilename>
															</logginginfo>
															<colorinfo>
																<lut></lut>
																<lut1></lut1>
																<asc_sop></asc_sop>
																<asc_sat></asc_sat>
																<lut2></lut2>
															</colorinfo>
															<labels>
																<label2>Caribbean</label2>
															</labels>
														</clipitem>
														<clipitem id="clipitem-506">
															<masterclipid>masterclip-168</masterclipid>
															<name>(Wavykid Kev)_This Client Gets FREE HAIRCUTS FOR LIFE! Here’s Why…_jqGh-LLNd7E_YT.mp4</name>
															<enabled>TRUE</enabled>
															<duration>1477</duration>
															<rate>
																<timebase>30</timebase>
																<ntsc>TRUE</ntsc>
															</rate>
															<start>1983</start>
															<end>2378</end>
															<in>891</in>
															<out>1286</out>
															<pproTicksIn>7551819475200</pproTicksIn>
															<pproTicksOut>10899708019200</pproTicksOut>
															<alphatype>none</alphatype>
															<file id="file-144"/>
															<filter>
																<effect>
																	<name>Basic Motion</name>
																	<effectid>basic</effectid>
																	<effectcategory>motion</effectcategory>
																	<effecttype>motion</effecttype>
																	<mediatype>video</mediatype>
																	<pproBypass>false</pproBypass>
																	<parameter authoringApp="PremierePro">
																		<parameterid>scale</parameterid>
																		<name>Scale</name>
																		<valuemin>0</valuemin>
																		<valuemax>1000</valuemax>
																		<value>110.375</value>
																	</parameter>
																	<parameter authoringApp="PremierePro">
																		<parameterid>rotation</parameterid>
																		<name>Rotation</name>
																		<valuemin>-8640</valuemin>
																		<valuemax>8640</valuemax>
																		<value>0</value>
																	</parameter>
																	<parameter authoringApp="PremierePro">
																		<parameterid>center</parameterid>
																		<name>Center</name>
																		<value>
																			<horiz>0</horiz>
																			<vert>0</vert>
																		</value>
																	</parameter>
																	<parameter authoringApp="PremierePro">
																		<parameterid>centerOffset</parameterid>
																		<name>Anchor Point</name>
																		<value>
																			<horiz>0</horiz>
																			<vert>0</vert>
																		</value>
																	</parameter>
																	<parameter authoringApp="PremierePro">
																		<parameterid>antiflicker</parameterid>
																		<name>Anti-flicker Filter</name>
																		<valuemin>0.0</valuemin>
																		<valuemax>1.0</valuemax>
																		<value>0</value>
																	</parameter>
																</effect>
															</filter>
															<logginginfo>
																<description></description>
																<scene></scene>
																<shottake></shottake>
																<lognote></lognote>
																<good></good>
																<originalvideofilename></originalvideofilename>
																<originalaudiofilename></originalaudiofilename>
															</logginginfo>
															<colorinfo>
																<lut></lut>
																<lut1></lut1>
																<asc_sop></asc_sop>
																<asc_sat></asc_sat>
																<lut2></lut2>
															</colorinfo>
															<labels>
																<label2>Violet</label2>
															</labels>
														</clipitem>
														<enabled>TRUE</enabled>
														<locked>FALSE</locked>
													</track>
													<track TL.SQTrackShy="0" TL.SQTrackExpandedHeight="25" TL.SQTrackExpanded="0" MZ.TrackTargeted="0">
														<clipitem id="clipitem-507">
															<masterclipid>masterclip-169</masterclipid>
															<name>agno black red</name>
															<enabled>TRUE</enabled>
															<duration>5844</duration>
															<rate>
																<timebase>30</timebase>
																<ntsc>TRUE</ntsc>
															</rate>
															<start>0</start>
															<end>998</end>
															<in>0</in>
															<out>998</out>
															<pproTicksIn>0</pproTicksIn>
															<pproTicksOut>8458715865600</pproTicksOut>
															<alphatype>straight</alphatype>
															<pixelaspectratio>square</pixelaspectratio>
															<anamorphic>FALSE</anamorphic>
															<file id="file-145">
																<name>1080/AE Attribution.aep</name>
																<pathurl>file://localhost/Volumes/ATM%20JR%202TB/Crafty/Master%20Assets%20/Attribution/AE%20Attribution.aep</pathurl>
																<rate>
																	<timebase>30</timebase>
																	<ntsc>TRUE</ntsc>
																</rate>
																<duration>5844</duration>
																<timecode>
																	<rate>
																		<timebase>30</timebase>
																		<ntsc>TRUE</ntsc>
																	</rate>
																	<string>00;00;00;00</string>
																	<frame>0</frame>
																	<displayformat>DF</displayformat>
																</timecode>
																<media>
																	<video>
																		<samplecharacteristics>
																			<rate>
																				<timebase>30</timebase>
																				<ntsc>TRUE</ntsc>
																			</rate>
																			<width>1920</width>
																			<height>1080</height>
																			<anamorphic>FALSE</anamorphic>
																			<pixelaspectratio>square</pixelaspectratio>
																			<fielddominance>lower</fielddominance>
																		</samplecharacteristics>
																	</video>
																</media>
															</file>
															<logginginfo>
																<description></description>
																<scene></scene>
																<shottake></shottake>
																<lognote></lognote>
																<good></good>
																<originalvideofilename></originalvideofilename>
																<originalaudiofilename></originalaudiofilename>
															</logginginfo>
															<colorinfo>
																<lut></lut>
																<lut1></lut1>
																<asc_sop></asc_sop>
																<asc_sat></asc_sat>
																<lut2></lut2>
															</colorinfo>
															<labels>
																<label2>Rose</label2>
															</labels>
														</clipitem>
														<clipitem id="clipitem-508">
															<masterclipid>masterclip-170</masterclipid>
															<name>wavykid kev</name>
															<enabled>TRUE</enabled>
															<duration>5844</duration>
															<rate>
																<timebase>30</timebase>
																<ntsc>TRUE</ntsc>
															</rate>
															<start>998</start>
															<end>2378</end>
															<in>0</in>
															<out>1380</out>
															<pproTicksIn>0</pproTicksIn>
															<pproTicksOut>11696420736000</pproTicksOut>
															<alphatype>straight</alphatype>
															<pixelaspectratio>square</pixelaspectratio>
															<anamorphic>FALSE</anamorphic>
															<file id="file-146">
																<name>1080/AE Attribution.aep</name>
																<pathurl>file://localhost/Volumes/ATM%20JR%202TB/Crafty/Master%20Assets%20/Attribution/AE%20Attribution.aep</pathurl>
																<rate>
																	<timebase>30</timebase>
																	<ntsc>TRUE</ntsc>
																</rate>
																<duration>5844</duration>
																<timecode>
																	<rate>
																		<timebase>30</timebase>
																		<ntsc>TRUE</ntsc>
																	</rate>
																	<string>00;00;00;00</string>
																	<frame>0</frame>
																	<displayformat>DF</displayformat>
																</timecode>
																<media>
																	<video>
																		<samplecharacteristics>
																			<rate>
																				<timebase>30</timebase>
																				<ntsc>TRUE</ntsc>
																			</rate>
																			<width>1920</width>
																			<height>1080</height>
																			<anamorphic>FALSE</anamorphic>
																			<pixelaspectratio>square</pixelaspectratio>
																			<fielddominance>lower</fielddominance>
																		</samplecharacteristics>
																	</video>
																</media>
															</file>
															<logginginfo>
																<description></description>
																<scene></scene>
																<shottake></shottake>
																<lognote></lognote>
																<good></good>
																<originalvideofilename></originalvideofilename>
																<originalaudiofilename></originalaudiofilename>
															</logginginfo>
															<colorinfo>
																<lut></lut>
																<lut1></lut1>
																<asc_sop></asc_sop>
																<asc_sat></asc_sat>
																<lut2></lut2>
															</colorinfo>
															<labels>
																<label2>Rose</label2>
															</labels>
														</clipitem>
														<enabled>TRUE</enabled>
														<locked>FALSE</locked>
													</track>
												</video>
												<audio>
													<numOutputChannels>2</numOutputChannels>
													<format>
														<samplecharacteristics>
															<depth>16</depth>
															<samplerate>48000</samplerate>
														</samplecharacteristics>
													</format>
													<outputs>
														<group>
															<index>1</index>
															<numchannels>1</numchannels>
															<downmix>0</downmix>
															<channel>
																<index>1</index>
															</channel>
														</group>
														<group>
															<index>2</index>
															<numchannels>1</numchannels>
															<downmix>0</downmix>
															<channel>
																<index>2</index>
															</channel>
														</group>
													</outputs>
													<track TL.SQTrackAudioKeyframeStyle="0" TL.SQTrackShy="0" TL.SQTrackExpandedHeight="25" TL.SQTrackExpanded="0" MZ.TrackTargeted="1" PannerCurrentValue="0.5" PannerIsInverted="true" PannerStartKeyframe="-91445760000000000,0.5,0,0,0,0,0,0" PannerName="Balance" currentExplodedTrackIndex="0" totalExplodedTrackCount="2" premiereTrackType="Stereo">
														<clipitem id="clipitem-509" premiereChannelType="stereo">
															<masterclipid>masterclip-171</masterclipid>
															<name>ES_Quixotic - Jobii.wav</name>
															<enabled>TRUE</enabled>
															<duration>3566</duration>
															<rate>
																<timebase>30</timebase>
																<ntsc>TRUE</ntsc>
															</rate>
															<start>0</start>
															<end>-1</end>
															<in>0</in>
															<out>2378</out>
															<pproTicksIn>0</pproTicksIn>
															<pproTicksOut>20155136601600</pproTicksOut>
															<file id="file-147">
																<name>ES_Quixotic - Jobii.wav</name>
																<pathurl>file://localhost/Volumes/ATM%20JR%202TB/Crafty/2023/06_June/Crafty_6-19-23/5_Music/ES_Quixotic%20-%20Jobii.wav</pathurl>
																<rate>
																	<timebase>30</timebase>
																	<ntsc>TRUE</ntsc>
																</rate>
																<duration>3566</duration>
																<timecode>
																	<rate>
																		<timebase>30</timebase>
																		<ntsc>TRUE</ntsc>
																	</rate>
																	<string>07;19;32;01</string>
																	<frame>790369</frame>
																	<displayformat>DF</displayformat>
																</timecode>
																<media>
																	<audio>
																		<samplecharacteristics>
																			<depth>16</depth>
																			<samplerate>48000</samplerate>
																		</samplecharacteristics>
																		<channelcount>2</channelcount>
																	</audio>
																</media>
															</file>
															<sourcetrack>
																<mediatype>audio</mediatype>
																<trackindex>1</trackindex>
															</sourcetrack>
															<filter>
																<effect>
																	<name>Gain</name>
																	<effectid>{61756678, 4761696e, 4b657947}</effectid>
																	<effecttype>filter</effecttype>
																	<mediatype>audio</mediatype>
																	<parameter authoringApp="PremierePro">
																		<parameterid>Gain(dB)</parameterid>
																		<name>Gain(dB)</name>
																		<valuemin>-96</valuemin>
																		<valuemax>96</valuemax>
																		<value>-8</value>
																	</parameter>
																</effect>
															</filter>
															<filter>
																<effect>
																	<name>Audio Levels</name>
																	<effectid>audiolevels</effectid>
																	<effectcategory>audiolevels</effectcategory>
																	<effecttype>audiolevels</effecttype>
																	<mediatype>audio</mediatype>
																	<pproBypass>false</pproBypass>
																	<parameter authoringApp="PremierePro">
																		<parameterid>level</parameterid>
																		<name>Level</name>
																		<valuemin>0</valuemin>
																		<valuemax>3.98109</valuemax>
																		<value>0.651753</value>
																	</parameter>
																</effect>
															</filter>
															<link>
																<linkclipref>clipitem-509</linkclipref>
																<mediatype>audio</mediatype>
																<trackindex>1</trackindex>
																<clipindex>1</clipindex>
																<groupindex>1</groupindex>
															</link>
															<link>
																<linkclipref>clipitem-510</linkclipref>
																<mediatype>audio</mediatype>
																<trackindex>2</trackindex>
																<clipindex>1</clipindex>
																<groupindex>1</groupindex>
															</link>
															<logginginfo>
																<description></description>
																<scene></scene>
																<shottake></shottake>
																<lognote></lognote>
																<good></good>
																<originalvideofilename></originalvideofilename>
																<originalaudiofilename></originalaudiofilename>
															</logginginfo>
															<colorinfo>
																<lut></lut>
																<lut1></lut1>
																<asc_sop></asc_sop>
																<asc_sat></asc_sat>
																<lut2></lut2>
															</colorinfo>
															<labels>
																<label2>Caribbean</label2>
															</labels>
														</clipitem>
														<transitionitem>
															<start>2288</start>
															<end>2378</end>
															<pproTicksIn>19392326553600</pproTicksIn>
															<pproTicksOut>20155136601600</pproTicksOut>
															<alignment>end-black</alignment>
															<cutPointTicks>762810048000</cutPointTicks>
															<rate>
																<timebase>30</timebase>
																<ntsc>TRUE</ntsc>
															</rate>
															<effect>
																<name>Cross Fade (+3dB)</name>
																<effectid>KGAudioTransCrossFade3dB</effectid>
																<effecttype>transition</effecttype>
																<mediatype>audio</mediatype>
																<wipecode>0</wipecode>
																<wipeaccuracy>100</wipeaccuracy>
																<startratio>0</startratio>
																<endratio>1</endratio>
																<reverse>FALSE</reverse>
															</effect>
														</transitionitem>
														<enabled>TRUE</enabled>
														<locked>FALSE</locked>
														<outputchannelindex>1</outputchannelindex>
													</track>
													<track TL.SQTrackAudioKeyframeStyle="0" TL.SQTrackShy="0" TL.SQTrackExpandedHeight="25" TL.SQTrackExpanded="0" MZ.TrackTargeted="1" PannerCurrentValue="0.5" PannerIsInverted="true" PannerStartKeyframe="-91445760000000000,0.5,0,0,0,0,0,0" PannerName="Balance" currentExplodedTrackIndex="1" totalExplodedTrackCount="2" premiereTrackType="Stereo">
														<clipitem id="clipitem-510" premiereChannelType="stereo">
															<masterclipid>masterclip-171</masterclipid>
															<name>ES_Quixotic - Jobii.wav</name>
															<enabled>TRUE</enabled>
															<duration>3566</duration>
															<rate>
																<timebase>30</timebase>
																<ntsc>TRUE</ntsc>
															</rate>
															<start>0</start>
															<end>-1</end>
															<in>0</in>
															<out>2378</out>
															<pproTicksIn>0</pproTicksIn>
															<pproTicksOut>20155136601600</pproTicksOut>
															<file id="file-147"/>
															<sourcetrack>
																<mediatype>audio</mediatype>
																<trackindex>2</trackindex>
															</sourcetrack>
															<filter>
																<effect>
																	<name>Gain</name>
																	<effectid>{61756678, 4761696e, 4b657947}</effectid>
																	<effecttype>filter</effecttype>
																	<mediatype>audio</mediatype>
																	<parameter authoringApp="PremierePro">
																		<parameterid>Gain(dB)</parameterid>
																		<name>Gain(dB)</name>
																		<valuemin>-96</valuemin>
																		<valuemax>96</valuemax>
																		<value>-8</value>
																	</parameter>
																</effect>
															</filter>
															<filter>
																<effect>
																	<name>Audio Levels</name>
																	<effectid>audiolevels</effectid>
																	<effectcategory>audiolevels</effectcategory>
																	<effecttype>audiolevels</effecttype>
																	<mediatype>audio</mediatype>
																	<pproBypass>false</pproBypass>
																	<parameter authoringApp="PremierePro">
																		<parameterid>level</parameterid>
																		<name>Level</name>
																		<valuemin>0</valuemin>
																		<valuemax>3.98109</valuemax>
																		<value>0.651753</value>
																	</parameter>
																</effect>
															</filter>
															<link>
																<linkclipref>clipitem-509</linkclipref>
																<mediatype>audio</mediatype>
																<trackindex>1</trackindex>
																<clipindex>1</clipindex>
																<groupindex>1</groupindex>
															</link>
															<link>
																<linkclipref>clipitem-510</linkclipref>
																<mediatype>audio</mediatype>
																<trackindex>2</trackindex>
																<clipindex>1</clipindex>
																<groupindex>1</groupindex>
															</link>
															<logginginfo>
																<description></description>
																<scene></scene>
																<shottake></shottake>
																<lognote></lognote>
																<good></good>
																<originalvideofilename></originalvideofilename>
																<originalaudiofilename></originalaudiofilename>
															</logginginfo>
															<colorinfo>
																<lut></lut>
																<lut1></lut1>
																<asc_sop></asc_sop>
																<asc_sat></asc_sat>
																<lut2></lut2>
															</colorinfo>
															<labels>
																<label2>Caribbean</label2>
															</labels>
														</clipitem>
														<transitionitem>
															<start>2288</start>
															<end>2378</end>
															<pproTicksIn>19392326553600</pproTicksIn>
															<pproTicksOut>20155136601600</pproTicksOut>
															<alignment>end-black</alignment>
															<cutPointTicks>762810048000</cutPointTicks>
															<rate>
																<timebase>30</timebase>
																<ntsc>TRUE</ntsc>
															</rate>
															<effect>
																<name>Cross Fade (+3dB)</name>
																<effectid>KGAudioTransCrossFade3dB</effectid>
																<effecttype>transition</effecttype>
																<mediatype>audio</mediatype>
																<wipecode>0</wipecode>
																<wipeaccuracy>100</wipeaccuracy>
																<startratio>0</startratio>
																<endratio>1</endratio>
																<reverse>FALSE</reverse>
															</effect>
														</transitionitem>
														<enabled>TRUE</enabled>
														<locked>FALSE</locked>
														<outputchannelindex>2</outputchannelindex>
													</track>
												</audio>
											</media>
											<timecode>
												<rate>
													<timebase>30</timebase>
													<ntsc>TRUE</ntsc>
												</rate>
												<string>00;00;00;00</string>
												<frame>0</frame>
												<displayformat>DF</displayformat>
											</timecode>
											<logginginfo>
												<description></description>
												<scene></scene>
												<shottake></shottake>
												<lognote></lognote>
												<good></good>
												<originalvideofilename></originalvideofilename>
												<originalaudiofilename></originalaudiofilename>
											</logginginfo>
										</sequence>
										<link>
											<linkclipref>clipitem-498</linkclipref>
											<mediatype>video</mediatype>
											<trackindex>1</trackindex>
											<clipindex>1</clipindex>
										</link>
										<link>
											<linkclipref>clipitem-526</linkclipref>
											<mediatype>audio</mediatype>
											<trackindex>1</trackindex>
											<clipindex>1</clipindex>
											<groupindex>1</groupindex>
										</link>
										<link>
											<linkclipref>clipitem-528</linkclipref>
											<mediatype>audio</mediatype>
											<trackindex>2</trackindex>
											<clipindex>1</clipindex>
											<groupindex>1</groupindex>
										</link>
										<labels>
											<label2>Forest</label2>
										</labels>
									</clipitem>
									<clipitem id="clipitem-511">
										<masterclipid>masterclip-172</masterclipid>
										<name>FASH_THATHASANICERINGTOIT_1.5</name>
										<enabled>TRUE</enabled>
										<duration>2650</duration>
										<rate>
											<timebase>30</timebase>
											<ntsc>TRUE</ntsc>
										</rate>
										<start>2464</start>
										<end>5114</end>
										<in>0</in>
										<out>2650</out>
										<pproTicksIn>0</pproTicksIn>
										<pproTicksOut>22460518080000</pproTicksOut>
										<sequence id="sequence-37" TL.SQAudioVisibleBase="0" TL.SQVideoVisibleBase="0" TL.SQVisibleBaseTime="13293517973245" TL.SQAVDividerPosition="0.5" TL.SQHideShyTracks="0" TL.SQHeaderWidth="236" Monitor.ProgramZoomOut="22460518080000" Monitor.ProgramZoomIn="0" TL.SQTimePerPixel="0.1465928358548044" MZ.EditLine="0" MZ.Sequence.PreviewFrameSizeHeight="1080" MZ.Sequence.PreviewFrameSizeWidth="1920" MZ.Sequence.AudioTimeDisplayFormat="200" MZ.Sequence.PreviewRenderingClassID="1061109567" MZ.Sequence.PreviewRenderingPresetCodec="1634755443" MZ.Sequence.PreviewRenderingPresetPath="EncoderPresets/SequencePreview/35d109db-457b-43c1-9452-9cb7be9f121c/QuickTime.epr" MZ.Sequence.PreviewUseMaxRenderQuality="false" MZ.Sequence.PreviewUseMaxBitDepth="false" MZ.Sequence.EditingModeGUID="35d109db-457b-43c1-9452-9cb7be9f121c" MZ.Sequence.VideoTimeDisplayFormat="102" MZ.WorkOutPoint="22460518080000" MZ.WorkInPoint="0">
											<duration>2650</duration>
											<rate>
												<timebase>30</timebase>
												<ntsc>TRUE</ntsc>
											</rate>
											<name>FASH_THATHASANICERINGTOIT_1.5</name>
											<media>
												<video>
													<format>
														<samplecharacteristics>
															<rate>
																<timebase>30</timebase>
																<ntsc>TRUE</ntsc>
															</rate>
															<codec>
																<name>Apple ProRes 422</name>
																<appspecificdata>
																	<appname>Final Cut Pro</appname>
																	<appmanufacturer>Apple Inc.</appmanufacturer>
																	<appversion>7.0</appversion>
																	<data>
																		<qtcodec>
																			<codecname>Apple ProRes 422</codecname>
																			<codectypename>Apple ProRes 422</codectypename>
																			<codectypecode>apcn</codectypecode>
																			<codecvendorcode>appl</codecvendorcode>
																			<spatialquality>1024</spatialquality>
																			<temporalquality>0</temporalquality>
																			<keyframerate>0</keyframerate>
																			<datarate>0</datarate>
																		</qtcodec>
																	</data>
																</appspecificdata>
															</codec>
															<width>1920</width>
															<height>1080</height>
															<anamorphic>FALSE</anamorphic>
															<pixelaspectratio>square</pixelaspectratio>
															<fielddominance>none</fielddominance>
															<colordepth>24</colordepth>
														</samplecharacteristics>
													</format>
													<track TL.SQTrackShy="0" TL.SQTrackExpandedHeight="25" TL.SQTrackExpanded="0" MZ.TrackTargeted="1">
														<clipitem id="clipitem-512">
															<masterclipid>masterclip-173</masterclipid>
															<name>(Shmoxd)_HOW TO Inlay Flowers in a Ring (BUT WAIT! THERE'S MORE!)_EfvuBODvBb0_YT.mp4</name>
															<enabled>TRUE</enabled>
															<duration>24924</duration>
															<rate>
																<timebase>30</timebase>
																<ntsc>TRUE</ntsc>
															</rate>
															<start>0</start>
															<end>488</end>
															<in>3118</in>
															<out>3606</out>
															<pproTicksIn>26427130329600</pproTicksIn>
															<pproTicksOut>30563255923200</pproTicksOut>
															<alphatype>none</alphatype>
															<pixelaspectratio>square</pixelaspectratio>
															<anamorphic>FALSE</anamorphic>
															<file id="file-148">
																<name>(Shmoxd)_HOW TO Inlay Flowers in a Ring (BUT WAIT! THERE'S MORE!)_EfvuBODvBb0_YT.mp4</name>
																<pathurl>file://localhost/Volumes/ATM%20JR%202TB/Crafty/2023/06_June/Crafty_6-19-23/3_Raw%20Footage/resin%20ring/(Shmoxd)_HOW%20TO%20Inlay%20Flowers%20in%20a%20Ring%20(BUT%20WAIT!%20THERE'S%20MORE!)_EfvuBODvBb0_YT.mp4</pathurl>
																<rate>
																	<timebase>30</timebase>
																	<ntsc>FALSE</ntsc>
																</rate>
																<duration>24949</duration>
																<timecode>
																	<rate>
																		<timebase>30</timebase>
																		<ntsc>FALSE</ntsc>
																	</rate>
																	<string>00:00:00:00</string>
																	<frame>0</frame>
																	<displayformat>NDF</displayformat>
																</timecode>
																<media>
																	<video>
																		<samplecharacteristics>
																			<rate>
																				<timebase>30</timebase>
																				<ntsc>FALSE</ntsc>
																			</rate>
																			<width>1920</width>
																			<height>1080</height>
																			<anamorphic>FALSE</anamorphic>
																			<pixelaspectratio>square</pixelaspectratio>
																			<fielddominance>none</fielddominance>
																		</samplecharacteristics>
																	</video>
																	<audio>
																		<samplecharacteristics>
																			<depth>16</depth>
																			<samplerate>44100</samplerate>
																		</samplecharacteristics>
																		<channelcount>2</channelcount>
																	</audio>
																</media>
															</file>
															<logginginfo>
																<description></description>
																<scene></scene>
																<shottake></shottake>
																<lognote>https://www.youtube.com/watch?v=EfvuBODvBb0</lognote>
																<good></good>
																<originalvideofilename></originalvideofilename>
																<originalaudiofilename></originalaudiofilename>
															</logginginfo>
															<colorinfo>
																<lut></lut>
																<lut1></lut1>
																<asc_sop></asc_sop>
																<asc_sat></asc_sat>
																<lut2></lut2>
															</colorinfo>
															<labels>
																<label2>Iris</label2>
															</labels>
														</clipitem>
														<clipitem id="clipitem-513">
															<masterclipid>masterclip-173</masterclipid>
															<name>(Shmoxd)_HOW TO Inlay Flowers in a Ring (BUT WAIT! THERE'S MORE!)_EfvuBODvBb0_YT.mp4</name>
															<enabled>TRUE</enabled>
															<duration>24924</duration>
															<rate>
																<timebase>30</timebase>
																<ntsc>TRUE</ntsc>
															</rate>
															<start>488</start>
															<end>641</end>
															<in>3963</in>
															<out>4116</out>
															<pproTicksIn>33589069113600</pproTicksIn>
															<pproTicksOut>34885846195200</pproTicksOut>
															<alphatype>none</alphatype>
															<file id="file-148"/>
															<logginginfo>
																<description></description>
																<scene></scene>
																<shottake></shottake>
																<lognote>https://www.youtube.com/watch?v=EfvuBODvBb0</lognote>
																<good></good>
																<originalvideofilename></originalvideofilename>
																<originalaudiofilename></originalaudiofilename>
															</logginginfo>
															<colorinfo>
																<lut></lut>
																<lut1></lut1>
																<asc_sop></asc_sop>
																<asc_sat></asc_sat>
																<lut2></lut2>
															</colorinfo>
															<labels>
																<label2>Iris</label2>
															</labels>
														</clipitem>
														<clipitem id="clipitem-514">
															<masterclipid>masterclip-173</masterclipid>
															<name>(Shmoxd)_HOW TO Inlay Flowers in a Ring (BUT WAIT! THERE'S MORE!)_EfvuBODvBb0_YT.mp4</name>
															<enabled>TRUE</enabled>
															<duration>24924</duration>
															<rate>
																<timebase>30</timebase>
																<ntsc>TRUE</ntsc>
															</rate>
															<start>641</start>
															<end>942</end>
															<in>7144</in>
															<out>7445</out>
															<pproTicksIn>60550166476800</pproTicksIn>
															<pproTicksOut>63101342304000</pproTicksOut>
															<alphatype>none</alphatype>
															<file id="file-148"/>
															<logginginfo>
																<description></description>
																<scene></scene>
																<shottake></shottake>
																<lognote>https://www.youtube.com/watch?v=EfvuBODvBb0</lognote>
																<good></good>
																<originalvideofilename></originalvideofilename>
																<originalaudiofilename></originalaudiofilename>
															</logginginfo>
															<colorinfo>
																<lut></lut>
																<lut1></lut1>
																<asc_sop></asc_sop>
																<asc_sat></asc_sat>
																<lut2></lut2>
															</colorinfo>
															<labels>
																<label2>Iris</label2>
															</labels>
														</clipitem>
														<clipitem id="clipitem-515">
															<masterclipid>masterclip-173</masterclipid>
															<name>(Shmoxd)_HOW TO Inlay Flowers in a Ring (BUT WAIT! THERE'S MORE!)_EfvuBODvBb0_YT.mp4</name>
															<enabled>TRUE</enabled>
															<duration>24924</duration>
															<rate>
																<timebase>30</timebase>
																<ntsc>TRUE</ntsc>
															</rate>
															<start>942</start>
															<end>1148</end>
															<in>7895</in>
															<out>8101</out>
															<pproTicksIn>66915392544000</pproTicksIn>
															<pproTicksOut>68661379987200</pproTicksOut>
															<alphatype>none</alphatype>
															<file id="file-148"/>
															<logginginfo>
																<description></description>
																<scene></scene>
																<shottake></shottake>
																<lognote>https://www.youtube.com/watch?v=EfvuBODvBb0</lognote>
																<good></good>
																<originalvideofilename></originalvideofilename>
																<originalaudiofilename></originalaudiofilename>
															</logginginfo>
															<colorinfo>
																<lut></lut>
																<lut1></lut1>
																<asc_sop></asc_sop>
																<asc_sat></asc_sat>
																<lut2></lut2>
															</colorinfo>
															<labels>
																<label2>Iris</label2>
															</labels>
														</clipitem>
														<clipitem id="clipitem-516">
															<masterclipid>masterclip-173</masterclipid>
															<name>(Shmoxd)_HOW TO Inlay Flowers in a Ring (BUT WAIT! THERE'S MORE!)_EfvuBODvBb0_YT.mp4</name>
															<enabled>TRUE</enabled>
															<duration>24924</duration>
															<rate>
																<timebase>30</timebase>
																<ntsc>TRUE</ntsc>
															</rate>
															<start>1148</start>
															<end>1956</end>
															<in>8450</in>
															<out>9258</out>
															<pproTicksIn>71619387840000</pproTicksIn>
															<pproTicksOut>78467726937600</pproTicksOut>
															<alphatype>none</alphatype>
															<file id="file-148"/>
															<logginginfo>
																<description></description>
																<scene></scene>
																<shottake></shottake>
																<lognote>https://www.youtube.com/watch?v=EfvuBODvBb0</lognote>
																<good></good>
																<originalvideofilename></originalvideofilename>
																<originalaudiofilename></originalaudiofilename>
															</logginginfo>
															<colorinfo>
																<lut></lut>
																<lut1></lut1>
																<asc_sop></asc_sop>
																<asc_sat></asc_sat>
																<lut2></lut2>
															</colorinfo>
															<labels>
																<label2>Iris</label2>
															</labels>
														</clipitem>
														<clipitem id="clipitem-517">
															<masterclipid>masterclip-173</masterclipid>
															<name>(Shmoxd)_HOW TO Inlay Flowers in a Ring (BUT WAIT! THERE'S MORE!)_EfvuBODvBb0_YT.mp4</name>
															<enabled>TRUE</enabled>
															<duration>24924</duration>
															<rate>
																<timebase>30</timebase>
																<ntsc>TRUE</ntsc>
															</rate>
															<start>1956</start>
															<end>2650</end>
															<in>21205</in>
															<out>21899</out>
															<pproTicksIn>179726522976000</pproTicksIn>
															<pproTicksOut>185608636012800</pproTicksOut>
															<alphatype>none</alphatype>
															<file id="file-148"/>
															<logginginfo>
																<description></description>
																<scene></scene>
																<shottake></shottake>
																<lognote>https://www.youtube.com/watch?v=EfvuBODvBb0</lognote>
																<good></good>
																<originalvideofilename></originalvideofilename>
																<originalaudiofilename></originalaudiofilename>
															</logginginfo>
															<colorinfo>
																<lut></lut>
																<lut1></lut1>
																<asc_sop></asc_sop>
																<asc_sat></asc_sat>
																<lut2></lut2>
															</colorinfo>
															<labels>
																<label2>Iris</label2>
															</labels>
														</clipitem>
														<enabled>TRUE</enabled>
														<locked>FALSE</locked>
													</track>
													<track TL.SQTrackShy="0" TL.SQTrackExpandedHeight="25" TL.SQTrackExpanded="0" MZ.TrackTargeted="0">
														<clipitem id="clipitem-518">
															<masterclipid>masterclip-174</masterclipid>
															<name>SHMOXD</name>
															<enabled>TRUE</enabled>
															<duration>5844</duration>
															<rate>
																<timebase>30</timebase>
																<ntsc>TRUE</ntsc>
															</rate>
															<start>0</start>
															<end>2650</end>
															<in>0</in>
															<out>2650</out>
															<pproTicksIn>0</pproTicksIn>
															<pproTicksOut>22460518080000</pproTicksOut>
															<alphatype>straight</alphatype>
															<pixelaspectratio>square</pixelaspectratio>
															<anamorphic>FALSE</anamorphic>
															<file id="file-149">
																<name>1080/AE Attribution.aep</name>
																<pathurl>file://localhost/Volumes/ATM%20JR%202TB/Crafty/Master%20Assets%20/Attribution/AE%20Attribution.aep</pathurl>
																<rate>
																	<timebase>30</timebase>
																	<ntsc>TRUE</ntsc>
																</rate>
																<duration>5844</duration>
																<timecode>
																	<rate>
																		<timebase>30</timebase>
																		<ntsc>TRUE</ntsc>
																	</rate>
																	<string>00;00;00;00</string>
																	<frame>0</frame>
																	<displayformat>DF</displayformat>
																</timecode>
																<media>
																	<video>
																		<samplecharacteristics>
																			<rate>
																				<timebase>30</timebase>
																				<ntsc>TRUE</ntsc>
																			</rate>
																			<width>1920</width>
																			<height>1080</height>
																			<anamorphic>FALSE</anamorphic>
																			<pixelaspectratio>square</pixelaspectratio>
																			<fielddominance>lower</fielddominance>
																		</samplecharacteristics>
																	</video>
																</media>
															</file>
															<logginginfo>
																<description></description>
																<scene></scene>
																<shottake></shottake>
																<lognote></lognote>
																<good></good>
																<originalvideofilename></originalvideofilename>
																<originalaudiofilename></originalaudiofilename>
															</logginginfo>
															<colorinfo>
																<lut></lut>
																<lut1></lut1>
																<asc_sop></asc_sop>
																<asc_sat></asc_sat>
																<lut2></lut2>
															</colorinfo>
															<labels>
																<label2>Rose</label2>
															</labels>
														</clipitem>
														<enabled>TRUE</enabled>
														<locked>FALSE</locked>
													</track>
												</video>
												<audio>
													<numOutputChannels>2</numOutputChannels>
													<format>
														<samplecharacteristics>
															<depth>16</depth>
															<samplerate>48000</samplerate>
														</samplecharacteristics>
													</format>
													<outputs>
														<group>
															<index>1</index>
															<numchannels>1</numchannels>
															<downmix>0</downmix>
															<channel>
																<index>1</index>
															</channel>
														</group>
														<group>
															<index>2</index>
															<numchannels>1</numchannels>
															<downmix>0</downmix>
															<channel>
																<index>2</index>
															</channel>
														</group>
													</outputs>
													<track TL.SQTrackAudioKeyframeStyle="0" TL.SQTrackShy="0" TL.SQTrackExpandedHeight="25" TL.SQTrackExpanded="0" MZ.TrackTargeted="1" PannerCurrentValue="0.5" PannerIsInverted="true" PannerStartKeyframe="-91445760000000000,0.5,0,0,0,0,0,0" PannerName="Balance" currentExplodedTrackIndex="0" totalExplodedTrackCount="2" premiereTrackType="Stereo">
														<clipitem id="clipitem-519" premiereChannelType="stereo">
															<masterclipid>masterclip-175</masterclipid>
															<name>ES_Shinigami - SINY.wav</name>
															<enabled>TRUE</enabled>
															<duration>4018</duration>
															<rate>
																<timebase>30</timebase>
																<ntsc>TRUE</ntsc>
															</rate>
															<start>0</start>
															<end>-1</end>
															<in>0</in>
															<out>2650</out>
															<pproTicksIn>0</pproTicksIn>
															<pproTicksOut>22460518080000</pproTicksOut>
															<file id="file-150">
																<name>ES_Shinigami - SINY.wav</name>
																<pathurl>file://localhost/Volumes/ATM%20JR%202TB/Crafty/2023/06_June/Crafty_6-19-23/5_Music/ES_Shinigami%20-%20SINY.wav</pathurl>
																<rate>
																	<timebase>30</timebase>
																	<ntsc>TRUE</ntsc>
																</rate>
																<duration>4018</duration>
																<timecode>
																	<rate>
																		<timebase>30</timebase>
																		<ntsc>TRUE</ntsc>
																	</rate>
																	<string>01;48;03;02</string>
																	<frame>194296</frame>
																	<displayformat>DF</displayformat>
																</timecode>
																<media>
																	<audio>
																		<samplecharacteristics>
																			<depth>16</depth>
																			<samplerate>48000</samplerate>
																		</samplecharacteristics>
																		<channelcount>2</channelcount>
																	</audio>
																</media>
															</file>
															<sourcetrack>
																<mediatype>audio</mediatype>
																<trackindex>1</trackindex>
															</sourcetrack>
															<filter>
																<effect>
																	<name>Gain</name>
																	<effectid>{61756678, 4761696e, 4b657947}</effectid>
																	<effecttype>filter</effecttype>
																	<mediatype>audio</mediatype>
																	<parameter authoringApp="PremierePro">
																		<parameterid>Gain(dB)</parameterid>
																		<name>Gain(dB)</name>
																		<valuemin>-96</valuemin>
																		<valuemax>96</valuemax>
																		<value>-10</value>
																	</parameter>
																</effect>
															</filter>
															<link>
																<linkclipref>clipitem-519</linkclipref>
																<mediatype>audio</mediatype>
																<trackindex>1</trackindex>
																<clipindex>1</clipindex>
																<groupindex>1</groupindex>
															</link>
															<link>
																<linkclipref>clipitem-520</linkclipref>
																<mediatype>audio</mediatype>
																<trackindex>2</trackindex>
																<clipindex>1</clipindex>
																<groupindex>1</groupindex>
															</link>
															<logginginfo>
																<description></description>
																<scene></scene>
																<shottake></shottake>
																<lognote></lognote>
																<good></good>
																<originalvideofilename></originalvideofilename>
																<originalaudiofilename></originalaudiofilename>
															</logginginfo>
															<colorinfo>
																<lut></lut>
																<lut1></lut1>
																<asc_sop></asc_sop>
																<asc_sat></asc_sat>
																<lut2></lut2>
															</colorinfo>
															<labels>
																<label2>Caribbean</label2>
															</labels>
														</clipitem>
														<transitionitem>
															<start>2560</start>
															<end>2650</end>
															<pproTicksIn>21697708032000</pproTicksIn>
															<pproTicksOut>22460518080000</pproTicksOut>
															<alignment>end-black</alignment>
															<cutPointTicks>762810048000</cutPointTicks>
															<rate>
																<timebase>30</timebase>
																<ntsc>TRUE</ntsc>
															</rate>
															<effect>
																<name>Cross Fade (+3dB)</name>
																<effectid>KGAudioTransCrossFade3dB</effectid>
																<effecttype>transition</effecttype>
																<mediatype>audio</mediatype>
																<wipecode>0</wipecode>
																<wipeaccuracy>100</wipeaccuracy>
																<startratio>0</startratio>
																<endratio>1</endratio>
																<reverse>FALSE</reverse>
															</effect>
														</transitionitem>
														<enabled>TRUE</enabled>
														<locked>FALSE</locked>
														<outputchannelindex>1</outputchannelindex>
													</track>
													<track TL.SQTrackAudioKeyframeStyle="0" TL.SQTrackShy="0" TL.SQTrackExpandedHeight="25" TL.SQTrackExpanded="0" MZ.TrackTargeted="1" PannerCurrentValue="0.5" PannerIsInverted="true" PannerStartKeyframe="-91445760000000000,0.5,0,0,0,0,0,0" PannerName="Balance" currentExplodedTrackIndex="1" totalExplodedTrackCount="2" premiereTrackType="Stereo">
														<clipitem id="clipitem-520" premiereChannelType="stereo">
															<masterclipid>masterclip-175</masterclipid>
															<name>ES_Shinigami - SINY.wav</name>
															<enabled>TRUE</enabled>
															<duration>4018</duration>
															<rate>
																<timebase>30</timebase>
																<ntsc>TRUE</ntsc>
															</rate>
															<start>0</start>
															<end>-1</end>
															<in>0</in>
															<out>2650</out>
															<pproTicksIn>0</pproTicksIn>
															<pproTicksOut>22460518080000</pproTicksOut>
															<file id="file-150"/>
															<sourcetrack>
																<mediatype>audio</mediatype>
																<trackindex>2</trackindex>
															</sourcetrack>
															<filter>
																<effect>
																	<name>Gain</name>
																	<effectid>{61756678, 4761696e, 4b657947}</effectid>
																	<effecttype>filter</effecttype>
																	<mediatype>audio</mediatype>
																	<parameter authoringApp="PremierePro">
																		<parameterid>Gain(dB)</parameterid>
																		<name>Gain(dB)</name>
																		<valuemin>-96</valuemin>
																		<valuemax>96</valuemax>
																		<value>-10</value>
																	</parameter>
																</effect>
															</filter>
															<link>
																<linkclipref>clipitem-519</linkclipref>
																<mediatype>audio</mediatype>
																<trackindex>1</trackindex>
																<clipindex>1</clipindex>
																<groupindex>1</groupindex>
															</link>
															<link>
																<linkclipref>clipitem-520</linkclipref>
																<mediatype>audio</mediatype>
																<trackindex>2</trackindex>
																<clipindex>1</clipindex>
																<groupindex>1</groupindex>
															</link>
															<logginginfo>
																<description></description>
																<scene></scene>
																<shottake></shottake>
																<lognote></lognote>
																<good></good>
																<originalvideofilename></originalvideofilename>
																<originalaudiofilename></originalaudiofilename>
															</logginginfo>
															<colorinfo>
																<lut></lut>
																<lut1></lut1>
																<asc_sop></asc_sop>
																<asc_sat></asc_sat>
																<lut2></lut2>
															</colorinfo>
															<labels>
																<label2>Caribbean</label2>
															</labels>
														</clipitem>
														<transitionitem>
															<start>2560</start>
															<end>2650</end>
															<pproTicksIn>21697708032000</pproTicksIn>
															<pproTicksOut>22460518080000</pproTicksOut>
															<alignment>end-black</alignment>
															<cutPointTicks>762810048000</cutPointTicks>
															<rate>
																<timebase>30</timebase>
																<ntsc>TRUE</ntsc>
															</rate>
															<effect>
																<name>Cross Fade (+3dB)</name>
																<effectid>KGAudioTransCrossFade3dB</effectid>
																<effecttype>transition</effecttype>
																<mediatype>audio</mediatype>
																<wipecode>0</wipecode>
																<wipeaccuracy>100</wipeaccuracy>
																<startratio>0</startratio>
																<endratio>1</endratio>
																<reverse>FALSE</reverse>
															</effect>
														</transitionitem>
														<enabled>TRUE</enabled>
														<locked>FALSE</locked>
														<outputchannelindex>2</outputchannelindex>
													</track>
												</audio>
											</media>
											<timecode>
												<rate>
													<timebase>30</timebase>
													<ntsc>TRUE</ntsc>
												</rate>
												<string>00;00;00;00</string>
												<frame>0</frame>
												<displayformat>DF</displayformat>
											</timecode>
											<logginginfo>
												<description></description>
												<scene></scene>
												<shottake></shottake>
												<lognote></lognote>
												<good></good>
												<originalvideofilename></originalvideofilename>
												<originalaudiofilename></originalaudiofilename>
											</logginginfo>
										</sequence>
										<link>
											<linkclipref>clipitem-511</linkclipref>
											<mediatype>video</mediatype>
											<trackindex>1</trackindex>
											<clipindex>2</clipindex>
										</link>
										<link>
											<linkclipref>clipitem-527</linkclipref>
											<mediatype>audio</mediatype>
											<trackindex>1</trackindex>
											<clipindex>2</clipindex>
											<groupindex>1</groupindex>
										</link>
										<link>
											<linkclipref>clipitem-529</linkclipref>
											<mediatype>audio</mediatype>
											<trackindex>2</trackindex>
											<clipindex>2</clipindex>
											<groupindex>1</groupindex>
										</link>
										<labels>
											<label2>Forest</label2>
										</labels>
									</clipitem>
									<enabled>TRUE</enabled>
									<locked>FALSE</locked>
								</track>
								<track TL.SQTrackShy="0" TL.SQTrackExpandedHeight="25" TL.SQTrackExpanded="0" MZ.TrackTargeted="0">
									<clipitem id="clipitem-521">
										<masterclipid>masterclip-176</masterclipid>
										<name>SO FRESH AND SO CLEAN</name>
										<enabled>TRUE</enabled>
										<duration>5695</duration>
										<rate>
											<timebase>30</timebase>
											<ntsc>TRUE</ntsc>
										</rate>
										<start>0</start>
										<end>2378</end>
										<in>0</in>
										<out>2378</out>
										<pproTicksIn>0</pproTicksIn>
										<pproTicksOut>20155136601600</pproTicksOut>
										<alphatype>straight</alphatype>
										<pixelaspectratio>square</pixelaspectratio>
										<anamorphic>FALSE</anamorphic>
										<file id="file-151">
											<name>CRAFTY_L3RD_01_JL_V03/CRAFTY_L3RD_01_JL_V03.aep</name>
											<pathurl>file://localhost/Volumes/ATM%20JR%202TB/Crafty/Master%20Assets%20/Lower%20Thirds/CRAFTY_L3RD_01_JL_V03.aep</pathurl>
											<rate>
												<timebase>30</timebase>
												<ntsc>FALSE</ntsc>
											</rate>
											<duration>5701</duration>
											<timecode>
												<rate>
													<timebase>30</timebase>
													<ntsc>FALSE</ntsc>
												</rate>
												<string>00:00:00:00</string>
												<frame>0</frame>
												<displayformat>NDF</displayformat>
											</timecode>
											<media>
												<video>
													<samplecharacteristics>
														<rate>
															<timebase>30</timebase>
															<ntsc>FALSE</ntsc>
														</rate>
														<width>1920</width>
														<height>1080</height>
														<anamorphic>FALSE</anamorphic>
														<pixelaspectratio>square</pixelaspectratio>
														<fielddominance>lower</fielddominance>
													</samplecharacteristics>
												</video>
											</media>
										</file>
										<logginginfo>
											<description></description>
											<scene></scene>
											<shottake></shottake>
											<lognote></lognote>
											<good></good>
											<originalvideofilename></originalvideofilename>
											<originalaudiofilename></originalaudiofilename>
										</logginginfo>
										<colorinfo>
											<lut></lut>
											<lut1></lut1>
											<asc_sop></asc_sop>
											<asc_sat></asc_sat>
											<lut2></lut2>
										</colorinfo>
										<labels>
											<label2>Rose</label2>
										</labels>
									</clipitem>
									<clipitem id="clipitem-522">
										<masterclipid>masterclip-177</masterclipid>
										<name>THAT HAS A NICE RING TO IT</name>
										<enabled>TRUE</enabled>
										<duration>5695</duration>
										<rate>
											<timebase>30</timebase>
											<ntsc>TRUE</ntsc>
										</rate>
										<start>2475</start>
										<end>5114</end>
										<in>0</in>
										<out>2639</out>
										<pproTicksIn>0</pproTicksIn>
										<pproTicksOut>22367285740800</pproTicksOut>
										<alphatype>straight</alphatype>
										<pixelaspectratio>square</pixelaspectratio>
										<anamorphic>FALSE</anamorphic>
										<file id="file-152">
											<name>CRAFTY_L3RD_01_JL_V03/CRAFTY_L3RD_01_JL_V03.aep</name>
											<pathurl>file://localhost/Volumes/ATM%20JR%202TB/Crafty/Master%20Assets%20/Lower%20Thirds/CRAFTY_L3RD_01_JL_V03.aep</pathurl>
											<rate>
												<timebase>30</timebase>
												<ntsc>FALSE</ntsc>
											</rate>
											<duration>5701</duration>
											<timecode>
												<rate>
													<timebase>30</timebase>
													<ntsc>FALSE</ntsc>
												</rate>
												<string>00:00:00:00</string>
												<frame>0</frame>
												<displayformat>NDF</displayformat>
											</timecode>
											<media>
												<video>
													<samplecharacteristics>
														<rate>
															<timebase>30</timebase>
															<ntsc>FALSE</ntsc>
														</rate>
														<width>1920</width>
														<height>1080</height>
														<anamorphic>FALSE</anamorphic>
														<pixelaspectratio>square</pixelaspectratio>
														<fielddominance>lower</fielddominance>
													</samplecharacteristics>
												</video>
											</media>
										</file>
										<logginginfo>
											<description></description>
											<scene></scene>
											<shottake></shottake>
											<lognote></lognote>
											<good></good>
											<originalvideofilename></originalvideofilename>
											<originalaudiofilename></originalaudiofilename>
										</logginginfo>
										<colorinfo>
											<lut></lut>
											<lut1></lut1>
											<asc_sop></asc_sop>
											<asc_sat></asc_sat>
											<lut2></lut2>
										</colorinfo>
										<labels>
											<label2>Rose</label2>
										</labels>
									</clipitem>
									<enabled>TRUE</enabled>
									<locked>FALSE</locked>
								</track>
								<track TL.SQTrackShy="0" TL.SQTrackExpandedHeight="25" TL.SQTrackExpanded="0" MZ.TrackTargeted="0">
									<clipitem id="clipitem-523">
										<masterclipid>masterclip-102</masterclipid>
										<name>ATM_logo_channels_right-2 (3).png</name>
										<enabled>TRUE</enabled>
										<duration>1294705</duration>
										<rate>
											<timebase>30</timebase>
											<ntsc>TRUE</ntsc>
										</rate>
										<start>0</start>
										<end>5114</end>
										<in>107892</in>
										<out>113006</out>
										<pproTicksIn>914456685542400</pproTicksIn>
										<pproTicksOut>957801247603200</pproTicksOut>
										<alphatype>straight</alphatype>
										<file id="file-89"/>
										<logginginfo>
											<description></description>
											<scene></scene>
											<shottake></shottake>
											<lognote></lognote>
											<good></good>
											<originalvideofilename></originalvideofilename>
											<originalaudiofilename></originalaudiofilename>
										</logginginfo>
										<colorinfo>
											<lut></lut>
											<lut1></lut1>
											<asc_sop></asc_sop>
											<asc_sat></asc_sat>
											<lut2></lut2>
										</colorinfo>
										<labels>
											<label2>Lavender</label2>
										</labels>
									</clipitem>
									<enabled>TRUE</enabled>
									<locked>FALSE</locked>
								</track>
								<track TL.SQTrackShy="0" TL.SQTrackExpandedHeight="25" TL.SQTrackExpanded="0" MZ.TrackTargeted="0">
									<clipitem id="clipitem-524">
										<masterclipid>masterclip-103</masterclipid>
										<name>CRAFTY_TRAN02_JL_V01.mov</name>
										<enabled>TRUE</enabled>
										<duration>120</duration>
										<rate>
											<timebase>30</timebase>
											<ntsc>TRUE</ntsc>
										</rate>
										<start>2355</start>
										<end>2475</end>
										<in>0</in>
										<out>120</out>
										<pproTicksIn>0</pproTicksIn>
										<pproTicksOut>1017080064000</pproTicksOut>
										<alphatype>none</alphatype>
										<file id="file-90"/>
										<link>
											<linkclipref>clipitem-524</linkclipref>
											<mediatype>video</mediatype>
											<trackindex>4</trackindex>
											<clipindex>1</clipindex>
										</link>
										<link>
											<linkclipref>clipitem-530</linkclipref>
											<mediatype>audio</mediatype>
											<trackindex>3</trackindex>
											<clipindex>1</clipindex>
											<groupindex>1</groupindex>
										</link>
										<link>
											<linkclipref>clipitem-532</linkclipref>
											<mediatype>audio</mediatype>
											<trackindex>4</trackindex>
											<clipindex>1</clipindex>
											<groupindex>1</groupindex>
										</link>
										<logginginfo>
											<description></description>
											<scene></scene>
											<shottake></shottake>
											<lognote></lognote>
											<good></good>
											<originalvideofilename></originalvideofilename>
											<originalaudiofilename></originalaudiofilename>
										</logginginfo>
										<colorinfo>
											<lut></lut>
											<lut1></lut1>
											<asc_sop></asc_sop>
											<asc_sat></asc_sat>
											<lut2></lut2>
										</colorinfo>
										<labels>
											<label2>Iris</label2>
										</labels>
									</clipitem>
									<clipitem id="clipitem-525">
										<masterclipid>masterclip-104</masterclipid>
										<name>CRAFTY_TRAN03_JL_V01.mov</name>
										<enabled>TRUE</enabled>
										<duration>120</duration>
										<rate>
											<timebase>30</timebase>
											<ntsc>TRUE</ntsc>
										</rate>
										<start>5083</start>
										<end>5203</end>
										<in>0</in>
										<out>120</out>
										<pproTicksIn>0</pproTicksIn>
										<pproTicksOut>1017080064000</pproTicksOut>
										<alphatype>none</alphatype>
										<file id="file-91"/>
										<link>
											<linkclipref>clipitem-525</linkclipref>
											<mediatype>video</mediatype>
											<trackindex>4</trackindex>
											<clipindex>2</clipindex>
										</link>
										<link>
											<linkclipref>clipitem-531</linkclipref>
											<mediatype>audio</mediatype>
											<trackindex>3</trackindex>
											<clipindex>2</clipindex>
											<groupindex>1</groupindex>
										</link>
										<link>
											<linkclipref>clipitem-533</linkclipref>
											<mediatype>audio</mediatype>
											<trackindex>4</trackindex>
											<clipindex>2</clipindex>
											<groupindex>1</groupindex>
										</link>
										<logginginfo>
											<description></description>
											<scene></scene>
											<shottake></shottake>
											<lognote></lognote>
											<good></good>
											<originalvideofilename></originalvideofilename>
											<originalaudiofilename></originalaudiofilename>
										</logginginfo>
										<colorinfo>
											<lut></lut>
											<lut1></lut1>
											<asc_sop></asc_sop>
											<asc_sat></asc_sat>
											<lut2></lut2>
										</colorinfo>
										<labels>
											<label2>Iris</label2>
										</labels>
									</clipitem>
									<enabled>TRUE</enabled>
									<locked>FALSE</locked>
								</track>
							</video>
							<audio>
								<numOutputChannels>2</numOutputChannels>
								<format>
									<samplecharacteristics>
										<depth>16</depth>
										<samplerate>48000</samplerate>
									</samplecharacteristics>
								</format>
								<outputs>
									<group>
										<index>1</index>
										<numchannels>1</numchannels>
										<downmix>0</downmix>
										<channel>
											<index>1</index>
										</channel>
									</group>
									<group>
										<index>2</index>
										<numchannels>1</numchannels>
										<downmix>0</downmix>
										<channel>
											<index>2</index>
										</channel>
									</group>
								</outputs>
								<track TL.SQTrackAudioKeyframeStyle="0" TL.SQTrackShy="0" TL.SQTrackExpandedHeight="104" TL.SQTrackExpanded="0" MZ.TrackTargeted="1" PannerCurrentValue="0.5" PannerIsInverted="true" PannerStartKeyframe="-91445760000000000,0.5,0,0,0,0,0,0" PannerName="Balance" currentExplodedTrackIndex="0" totalExplodedTrackCount="2" premiereTrackType="Stereo">
									<clipitem id="clipitem-526" premiereChannelType="stereo">
										<masterclipid>masterclip-165</masterclipid>
										<name>BEAUTY_SOFRESHANDSOCLEAN_1.5</name>
										<enabled>TRUE</enabled>
										<duration>2378</duration>
										<rate>
											<timebase>30</timebase>
											<ntsc>TRUE</ntsc>
										</rate>
										<start>0</start>
										<end>2378</end>
										<in>0</in>
										<out>2378</out>
										<pproTicksIn>0</pproTicksIn>
										<pproTicksOut>20155136601600</pproTicksOut>
										<sequence id="sequence-36"/>
										<sourcetrack>
											<mediatype>audio</mediatype>
											<trackindex>0</trackindex>
										</sourcetrack>
										<link>
											<linkclipref>clipitem-498</linkclipref>
											<mediatype>video</mediatype>
											<trackindex>1</trackindex>
											<clipindex>1</clipindex>
										</link>
										<link>
											<linkclipref>clipitem-526</linkclipref>
											<mediatype>audio</mediatype>
											<trackindex>1</trackindex>
											<clipindex>1</clipindex>
											<groupindex>1</groupindex>
										</link>
										<link>
											<linkclipref>clipitem-528</linkclipref>
											<mediatype>audio</mediatype>
											<trackindex>2</trackindex>
											<clipindex>1</clipindex>
											<groupindex>1</groupindex>
										</link>
										<labels>
											<label2>Forest</label2>
										</labels>
									</clipitem>
									<clipitem id="clipitem-527" premiereChannelType="stereo">
										<masterclipid>masterclip-172</masterclipid>
										<name>FASH_THATHASANICERINGTOIT_1.5</name>
										<enabled>TRUE</enabled>
										<duration>2650</duration>
										<rate>
											<timebase>30</timebase>
											<ntsc>TRUE</ntsc>
										</rate>
										<start>2464</start>
										<end>5114</end>
										<in>0</in>
										<out>2650</out>
										<pproTicksIn>0</pproTicksIn>
										<pproTicksOut>22460518080000</pproTicksOut>
										<sequence id="sequence-37"/>
										<sourcetrack>
											<mediatype>audio</mediatype>
											<trackindex>0</trackindex>
										</sourcetrack>
										<link>
											<linkclipref>clipitem-511</linkclipref>
											<mediatype>video</mediatype>
											<trackindex>1</trackindex>
											<clipindex>2</clipindex>
										</link>
										<link>
											<linkclipref>clipitem-527</linkclipref>
											<mediatype>audio</mediatype>
											<trackindex>1</trackindex>
											<clipindex>2</clipindex>
											<groupindex>1</groupindex>
										</link>
										<link>
											<linkclipref>clipitem-529</linkclipref>
											<mediatype>audio</mediatype>
											<trackindex>2</trackindex>
											<clipindex>2</clipindex>
											<groupindex>1</groupindex>
										</link>
										<labels>
											<label2>Forest</label2>
										</labels>
									</clipitem>
									<enabled>TRUE</enabled>
									<locked>FALSE</locked>
									<outputchannelindex>1</outputchannelindex>
								</track>
								<track TL.SQTrackAudioKeyframeStyle="0" TL.SQTrackShy="0" TL.SQTrackExpandedHeight="104" TL.SQTrackExpanded="0" MZ.TrackTargeted="1" PannerCurrentValue="0.5" PannerIsInverted="true" PannerStartKeyframe="-91445760000000000,0.5,0,0,0,0,0,0" PannerName="Balance" currentExplodedTrackIndex="1" totalExplodedTrackCount="2" premiereTrackType="Stereo">
									<clipitem id="clipitem-528" premiereChannelType="stereo">
										<masterclipid>masterclip-165</masterclipid>
										<name>BEAUTY_SOFRESHANDSOCLEAN_1.5</name>
										<enabled>TRUE</enabled>
										<duration>2378</duration>
										<rate>
											<timebase>30</timebase>
											<ntsc>TRUE</ntsc>
										</rate>
										<start>0</start>
										<end>2378</end>
										<in>0</in>
										<out>2378</out>
										<pproTicksIn>0</pproTicksIn>
										<pproTicksOut>20155136601600</pproTicksOut>
										<sequence id="sequence-36"/>
										<sourcetrack>
											<mediatype>audio</mediatype>
											<trackindex>1</trackindex>
										</sourcetrack>
										<link>
											<linkclipref>clipitem-498</linkclipref>
											<mediatype>video</mediatype>
											<trackindex>1</trackindex>
											<clipindex>1</clipindex>
										</link>
										<link>
											<linkclipref>clipitem-526</linkclipref>
											<mediatype>audio</mediatype>
											<trackindex>1</trackindex>
											<clipindex>1</clipindex>
											<groupindex>1</groupindex>
										</link>
										<link>
											<linkclipref>clipitem-528</linkclipref>
											<mediatype>audio</mediatype>
											<trackindex>2</trackindex>
											<clipindex>1</clipindex>
											<groupindex>1</groupindex>
										</link>
										<labels>
											<label2>Forest</label2>
										</labels>
									</clipitem>
									<clipitem id="clipitem-529" premiereChannelType="stereo">
										<masterclipid>masterclip-172</masterclipid>
										<name>FASH_THATHASANICERINGTOIT_1.5</name>
										<enabled>TRUE</enabled>
										<duration>2650</duration>
										<rate>
											<timebase>30</timebase>
											<ntsc>TRUE</ntsc>
										</rate>
										<start>2464</start>
										<end>5114</end>
										<in>0</in>
										<out>2650</out>
										<pproTicksIn>0</pproTicksIn>
										<pproTicksOut>22460518080000</pproTicksOut>
										<sequence id="sequence-37"/>
										<sourcetrack>
											<mediatype>audio</mediatype>
											<trackindex>1</trackindex>
										</sourcetrack>
										<link>
											<linkclipref>clipitem-511</linkclipref>
											<mediatype>video</mediatype>
											<trackindex>1</trackindex>
											<clipindex>2</clipindex>
										</link>
										<link>
											<linkclipref>clipitem-527</linkclipref>
											<mediatype>audio</mediatype>
											<trackindex>1</trackindex>
											<clipindex>2</clipindex>
											<groupindex>1</groupindex>
										</link>
										<link>
											<linkclipref>clipitem-529</linkclipref>
											<mediatype>audio</mediatype>
											<trackindex>2</trackindex>
											<clipindex>2</clipindex>
											<groupindex>1</groupindex>
										</link>
										<labels>
											<label2>Forest</label2>
										</labels>
									</clipitem>
									<enabled>TRUE</enabled>
									<locked>FALSE</locked>
									<outputchannelindex>2</outputchannelindex>
								</track>
								<track TL.SQTrackAudioKeyframeStyle="0" TL.SQTrackShy="0" TL.SQTrackExpandedHeight="104" TL.SQTrackExpanded="0" MZ.TrackTargeted="1" PannerCurrentValue="0.5" PannerIsInverted="true" PannerStartKeyframe="-91445760000000000,0.5,0,0,0,0,0,0" PannerName="Balance" currentExplodedTrackIndex="0" totalExplodedTrackCount="2" premiereTrackType="Stereo">
									<clipitem id="clipitem-530" premiereChannelType="stereo">
										<masterclipid>masterclip-103</masterclipid>
										<name>CRAFTY_TRAN02_JL_V01.mov</name>
										<enabled>TRUE</enabled>
										<duration>120</duration>
										<rate>
											<timebase>30</timebase>
											<ntsc>TRUE</ntsc>
										</rate>
										<start>2355</start>
										<end>2475</end>
										<in>0</in>
										<out>120</out>
										<pproTicksIn>0</pproTicksIn>
										<pproTicksOut>1017080064000</pproTicksOut>
										<file id="file-90"/>
										<sourcetrack>
											<mediatype>audio</mediatype>
											<trackindex>1</trackindex>
										</sourcetrack>
										<link>
											<linkclipref>clipitem-524</linkclipref>
											<mediatype>video</mediatype>
											<trackindex>4</trackindex>
											<clipindex>1</clipindex>
										</link>
										<link>
											<linkclipref>clipitem-530</linkclipref>
											<mediatype>audio</mediatype>
											<trackindex>3</trackindex>
											<clipindex>1</clipindex>
											<groupindex>1</groupindex>
										</link>
										<link>
											<linkclipref>clipitem-532</linkclipref>
											<mediatype>audio</mediatype>
											<trackindex>4</trackindex>
											<clipindex>1</clipindex>
											<groupindex>1</groupindex>
										</link>
										<logginginfo>
											<description></description>
											<scene></scene>
											<shottake></shottake>
											<lognote></lognote>
											<good></good>
											<originalvideofilename></originalvideofilename>
											<originalaudiofilename></originalaudiofilename>
										</logginginfo>
										<colorinfo>
											<lut></lut>
											<lut1></lut1>
											<asc_sop></asc_sop>
											<asc_sat></asc_sat>
											<lut2></lut2>
										</colorinfo>
										<labels>
											<label2>Iris</label2>
										</labels>
									</clipitem>
									<clipitem id="clipitem-531" premiereChannelType="stereo">
										<masterclipid>masterclip-104</masterclipid>
										<name>CRAFTY_TRAN03_JL_V01.mov</name>
										<enabled>TRUE</enabled>
										<duration>120</duration>
										<rate>
											<timebase>30</timebase>
											<ntsc>TRUE</ntsc>
										</rate>
										<start>5083</start>
										<end>5203</end>
										<in>0</in>
										<out>120</out>
										<pproTicksIn>0</pproTicksIn>
										<pproTicksOut>1017080064000</pproTicksOut>
										<file id="file-91"/>
										<sourcetrack>
											<mediatype>audio</mediatype>
											<trackindex>1</trackindex>
										</sourcetrack>
										<link>
											<linkclipref>clipitem-525</linkclipref>
											<mediatype>video</mediatype>
											<trackindex>4</trackindex>
											<clipindex>2</clipindex>
										</link>
										<link>
											<linkclipref>clipitem-531</linkclipref>
											<mediatype>audio</mediatype>
											<trackindex>3</trackindex>
											<clipindex>2</clipindex>
											<groupindex>1</groupindex>
										</link>
										<link>
											<linkclipref>clipitem-533</linkclipref>
											<mediatype>audio</mediatype>
											<trackindex>4</trackindex>
											<clipindex>2</clipindex>
											<groupindex>1</groupindex>
										</link>
										<logginginfo>
											<description></description>
											<scene></scene>
											<shottake></shottake>
											<lognote></lognote>
											<good></good>
											<originalvideofilename></originalvideofilename>
											<originalaudiofilename></originalaudiofilename>
										</logginginfo>
										<colorinfo>
											<lut></lut>
											<lut1></lut1>
											<asc_sop></asc_sop>
											<asc_sat></asc_sat>
											<lut2></lut2>
										</colorinfo>
										<labels>
											<label2>Iris</label2>
										</labels>
									</clipitem>
									<enabled>TRUE</enabled>
									<locked>FALSE</locked>
									<outputchannelindex>1</outputchannelindex>
								</track>
								<track TL.SQTrackAudioKeyframeStyle="0" TL.SQTrackShy="0" TL.SQTrackExpandedHeight="104" TL.SQTrackExpanded="0" MZ.TrackTargeted="1" PannerCurrentValue="0.5" PannerIsInverted="true" PannerStartKeyframe="-91445760000000000,0.5,0,0,0,0,0,0" PannerName="Balance" currentExplodedTrackIndex="1" totalExplodedTrackCount="2" premiereTrackType="Stereo">
									<clipitem id="clipitem-532" premiereChannelType="stereo">
										<masterclipid>masterclip-103</masterclipid>
										<name>CRAFTY_TRAN02_JL_V01.mov</name>
										<enabled>TRUE</enabled>
										<duration>120</duration>
										<rate>
											<timebase>30</timebase>
											<ntsc>TRUE</ntsc>
										</rate>
										<start>2355</start>
										<end>2475</end>
										<in>0</in>
										<out>120</out>
										<pproTicksIn>0</pproTicksIn>
										<pproTicksOut>1017080064000</pproTicksOut>
										<file id="file-90"/>
										<sourcetrack>
											<mediatype>audio</mediatype>
											<trackindex>2</trackindex>
										</sourcetrack>
										<link>
											<linkclipref>clipitem-524</linkclipref>
											<mediatype>video</mediatype>
											<trackindex>4</trackindex>
											<clipindex>1</clipindex>
										</link>
										<link>
											<linkclipref>clipitem-530</linkclipref>
											<mediatype>audio</mediatype>
											<trackindex>3</trackindex>
											<clipindex>1</clipindex>
											<groupindex>1</groupindex>
										</link>
										<link>
											<linkclipref>clipitem-532</linkclipref>
											<mediatype>audio</mediatype>
											<trackindex>4</trackindex>
											<clipindex>1</clipindex>
											<groupindex>1</groupindex>
										</link>
										<logginginfo>
											<description></description>
											<scene></scene>
											<shottake></shottake>
											<lognote></lognote>
											<good></good>
											<originalvideofilename></originalvideofilename>
											<originalaudiofilename></originalaudiofilename>
										</logginginfo>
										<colorinfo>
											<lut></lut>
											<lut1></lut1>
											<asc_sop></asc_sop>
											<asc_sat></asc_sat>
											<lut2></lut2>
										</colorinfo>
										<labels>
											<label2>Iris</label2>
										</labels>
									</clipitem>
									<clipitem id="clipitem-533" premiereChannelType="stereo">
										<masterclipid>masterclip-104</masterclipid>
										<name>CRAFTY_TRAN03_JL_V01.mov</name>
										<enabled>TRUE</enabled>
										<duration>120</duration>
										<rate>
											<timebase>30</timebase>
											<ntsc>TRUE</ntsc>
										</rate>
										<start>5083</start>
										<end>5203</end>
										<in>0</in>
										<out>120</out>
										<pproTicksIn>0</pproTicksIn>
										<pproTicksOut>1017080064000</pproTicksOut>
										<file id="file-91"/>
										<sourcetrack>
											<mediatype>audio</mediatype>
											<trackindex>2</trackindex>
										</sourcetrack>
										<link>
											<linkclipref>clipitem-525</linkclipref>
											<mediatype>video</mediatype>
											<trackindex>4</trackindex>
											<clipindex>2</clipindex>
										</link>
										<link>
											<linkclipref>clipitem-531</linkclipref>
											<mediatype>audio</mediatype>
											<trackindex>3</trackindex>
											<clipindex>2</clipindex>
											<groupindex>1</groupindex>
										</link>
										<link>
											<linkclipref>clipitem-533</linkclipref>
											<mediatype>audio</mediatype>
											<trackindex>4</trackindex>
											<clipindex>2</clipindex>
											<groupindex>1</groupindex>
										</link>
										<logginginfo>
											<description></description>
											<scene></scene>
											<shottake></shottake>
											<lognote></lognote>
											<good></good>
											<originalvideofilename></originalvideofilename>
											<originalaudiofilename></originalaudiofilename>
										</logginginfo>
										<colorinfo>
											<lut></lut>
											<lut1></lut1>
											<asc_sop></asc_sop>
											<asc_sat></asc_sat>
											<lut2></lut2>
										</colorinfo>
										<labels>
											<label2>Iris</label2>
										</labels>
									</clipitem>
									<enabled>TRUE</enabled>
									<locked>FALSE</locked>
									<outputchannelindex>2</outputchannelindex>
								</track>
								<track TL.SQTrackAudioKeyframeStyle="0" TL.SQTrackShy="0" TL.SQTrackExpandedHeight="104" TL.SQTrackExpanded="0" MZ.TrackTargeted="1" PannerCurrentValue="0.5" PannerIsInverted="true" PannerStartKeyframe="-91445760000000000,0.5,0,0,0,0,0,0" PannerName="Balance" currentExplodedTrackIndex="0" totalExplodedTrackCount="2" premiereTrackType="Stereo">
									<enabled>TRUE</enabled>
									<locked>FALSE</locked>
									<outputchannelindex>1</outputchannelindex>
								</track>
								<track TL.SQTrackAudioKeyframeStyle="0" TL.SQTrackShy="0" TL.SQTrackExpandedHeight="104" TL.SQTrackExpanded="0" MZ.TrackTargeted="1" PannerCurrentValue="0.5" PannerIsInverted="true" PannerStartKeyframe="-91445760000000000,0.5,0,0,0,0,0,0" PannerName="Balance" currentExplodedTrackIndex="1" totalExplodedTrackCount="2" premiereTrackType="Stereo">
									<enabled>TRUE</enabled>
									<locked>FALSE</locked>
									<outputchannelindex>2</outputchannelindex>
								</track>
								<track TL.SQTrackAudioKeyframeStyle="0" TL.SQTrackShy="0" TL.SQTrackExpandedHeight="25" TL.SQTrackExpanded="0" MZ.TrackTargeted="0" PannerCurrentValue="0.5" PannerIsInverted="true" PannerStartKeyframe="-91445760000000000,0.5,0,0,0,0,0,0" PannerName="Balance" currentExplodedTrackIndex="0" totalExplodedTrackCount="2" premiereTrackType="Stereo">
									<enabled>TRUE</enabled>
									<locked>FALSE</locked>
									<outputchannelindex>1</outputchannelindex>
								</track>
								<track TL.SQTrackAudioKeyframeStyle="0" TL.SQTrackShy="0" TL.SQTrackExpandedHeight="25" TL.SQTrackExpanded="0" MZ.TrackTargeted="0" PannerCurrentValue="0.5" PannerIsInverted="true" PannerStartKeyframe="-91445760000000000,0.5,0,0,0,0,0,0" PannerName="Balance" currentExplodedTrackIndex="1" totalExplodedTrackCount="2" premiereTrackType="Stereo">
									<enabled>TRUE</enabled>
									<locked>FALSE</locked>
									<outputchannelindex>2</outputchannelindex>
								</track>
							</audio>
						</media>
						<timecode>
							<rate>
								<timebase>30</timebase>
								<ntsc>TRUE</ntsc>
							</rate>
							<string>00;00;00;00</string>
							<frame>0</frame>
							<displayformat>DF</displayformat>
						</timecode>
						<labels>
							<label2>Forest</label2>
						</labels>
						<logginginfo>
							<description></description>
							<scene></scene>
							<shottake></shottake>
							<lognote></lognote>
							<good></good>
							<originalvideofilename></originalvideofilename>
							<originalaudiofilename></originalaudiofilename>
						</logginginfo>
					</sequence>
					<sequence id="sequence-38" TL.SQAudioVisibleBase="0" TL.SQVideoVisibleBase="0" TL.SQVisibleBaseTime="0" TL.SQAVDividerPosition="0.5" TL.SQHideShyTracks="0" TL.SQHeaderWidth="236" TL.SQDataTrackViewControlState="0" Monitor.ProgramZoomOut="47929898016000" Monitor.ProgramZoomIn="0" TL.SQTimePerPixel="0.42506968693190622" MZ.EditLine="47073855628800" MZ.Sequence.PreviewFrameSizeHeight="1080" MZ.Sequence.PreviewFrameSizeWidth="1920" MZ.Sequence.AudioTimeDisplayFormat="200" MZ.Sequence.PreviewRenderingClassID="1061109567" MZ.Sequence.PreviewRenderingPresetCodec="1634755443" MZ.Sequence.PreviewRenderingPresetPath="EncoderPresets/SequencePreview/35d109db-457b-43c1-9452-9cb7be9f121c/QuickTime.epr" MZ.Sequence.PreviewUseMaxRenderQuality="false" MZ.Sequence.PreviewUseMaxBitDepth="false" MZ.Sequence.EditingModeGUID="35d109db-457b-43c1-9452-9cb7be9f121c" MZ.Sequence.VideoTimeDisplayFormat="102" MZ.WorkOutPoint="15239249625600" MZ.WorkInPoint="0" explodedTracks="true">
						<uuid>68d8d04e-82dc-47e9-8497-725260ea3a02</uuid>
						<duration>5549</duration>
						<rate>
							<timebase>30</timebase>
							<ntsc>TRUE</ntsc>
						</rate>
						<name>ATM_CRAFTY_308</name>
						<media>
							<video>
								<format>
									<samplecharacteristics>
										<rate>
											<timebase>30</timebase>
											<ntsc>TRUE</ntsc>
										</rate>
										<codec>
											<name>Apple ProRes 422</name>
											<appspecificdata>
												<appname>Final Cut Pro</appname>
												<appmanufacturer>Apple Inc.</appmanufacturer>
												<appversion>7.0</appversion>
												<data>
													<qtcodec>
														<codecname>Apple ProRes 422</codecname>
														<codectypename>Apple ProRes 422</codectypename>
														<codectypecode>apcn</codectypecode>
														<codecvendorcode>appl</codecvendorcode>
														<spatialquality>1024</spatialquality>
														<temporalquality>0</temporalquality>
														<keyframerate>0</keyframerate>
														<datarate>0</datarate>
													</qtcodec>
												</data>
											</appspecificdata>
										</codec>
										<width>1920</width>
										<height>1080</height>
										<anamorphic>FALSE</anamorphic>
										<pixelaspectratio>square</pixelaspectratio>
										<fielddominance>none</fielddominance>
										<colordepth>24</colordepth>
									</samplecharacteristics>
								</format>
								<track TL.SQTrackShy="0" TL.SQTrackExpandedHeight="25" TL.SQTrackExpanded="0" MZ.TrackTargeted="1">
									<clipitem id="clipitem-534">
										<masterclipid>masterclip-178</masterclipid>
										<name>ART_ASCUTEASARUG_2</name>
										<enabled>TRUE</enabled>
										<duration>3806</duration>
										<rate>
											<timebase>30</timebase>
											<ntsc>TRUE</ntsc>
										</rate>
										<start>0</start>
										<end>3122</end>
										<in>0</in>
										<out>3122</out>
										<pproTicksIn>0</pproTicksIn>
										<pproTicksOut>26461032998400</pproTicksOut>
										<sequence id="sequence-39" TL.SQAudioVisibleBase="0" TL.SQVideoVisibleBase="0" TL.SQVisibleBaseTime="0" TL.SQAVDividerPosition="0.5" TL.SQHideShyTracks="0" TL.SQHeaderWidth="236" Monitor.ProgramZoomOut="26817011020800" Monitor.ProgramZoomIn="0" TL.SQTimePerPixel="0.19888154611915931" MZ.EditLine="7500965472000" MZ.Sequence.PreviewFrameSizeHeight="1080" MZ.Sequence.PreviewFrameSizeWidth="1920" MZ.Sequence.AudioTimeDisplayFormat="200" MZ.Sequence.PreviewRenderingClassID="1061109567" MZ.Sequence.PreviewRenderingPresetCodec="1634755443" MZ.Sequence.PreviewRenderingPresetPath="EncoderPresets/SequencePreview/35d109db-457b-43c1-9452-9cb7be9f121c/QuickTime.epr" MZ.Sequence.PreviewUseMaxRenderQuality="false" MZ.Sequence.PreviewUseMaxBitDepth="false" MZ.Sequence.EditingModeGUID="35d109db-457b-43c1-9452-9cb7be9f121c" MZ.Sequence.VideoTimeDisplayFormat="102" MZ.WorkOutPoint="32258389363200" MZ.WorkInPoint="0">
											<duration>3164</duration>
											<rate>
												<timebase>30</timebase>
												<ntsc>TRUE</ntsc>
											</rate>
											<name>ART_ASCUTEASARUG_2</name>
											<media>
												<video>
													<format>
														<samplecharacteristics>
															<rate>
																<timebase>30</timebase>
																<ntsc>TRUE</ntsc>
															</rate>
															<codec>
																<name>Apple ProRes 422</name>
																<appspecificdata>
																	<appname>Final Cut Pro</appname>
																	<appmanufacturer>Apple Inc.</appmanufacturer>
																	<appversion>7.0</appversion>
																	<data>
																		<qtcodec>
																			<codecname>Apple ProRes 422</codecname>
																			<codectypename>Apple ProRes 422</codectypename>
																			<codectypecode>apcn</codectypecode>
																			<codecvendorcode>appl</codecvendorcode>
																			<spatialquality>1024</spatialquality>
																			<temporalquality>0</temporalquality>
																			<keyframerate>0</keyframerate>
																			<datarate>0</datarate>
																		</qtcodec>
																	</data>
																</appspecificdata>
															</codec>
															<width>1920</width>
															<height>1080</height>
															<anamorphic>FALSE</anamorphic>
															<pixelaspectratio>square</pixelaspectratio>
															<fielddominance>none</fielddominance>
															<colordepth>24</colordepth>
														</samplecharacteristics>
													</format>
													<track TL.SQTrackShy="0" TL.SQTrackExpandedHeight="25" TL.SQTrackExpanded="0" MZ.TrackTargeted="1">
														<clipitem id="clipitem-535">
															<masterclipid>masterclip-179</masterclipid>
															<name>(Carpetnerd)_#fyp #yuyuhakusho #anime #asmr_YW1w6rd2qhA_YT.mp4</name>
															<enabled>TRUE</enabled>
															<duration>1792</duration>
															<rate>
																<timebase>30</timebase>
																<ntsc>TRUE</ntsc>
															</rate>
															<start>0</start>
															<end>240</end>
															<in>263</in>
															<out>503</out>
															<pproTicksIn>2229100473600</pproTicksIn>
															<pproTicksOut>4263260601600</pproTicksOut>
															<alphatype>none</alphatype>
															<pixelaspectratio>square</pixelaspectratio>
															<anamorphic>FALSE</anamorphic>
															<file id="file-153">
																<name>(Carpetnerd)_#fyp #yuyuhakusho #anime #asmr_YW1w6rd2qhA_YT.mp4</name>
																<pathurl>file://localhost/Volumes/ATM%20JR%202TB/Crafty/2023/06_June/Crafty_6-19-23/3_Raw%20Footage/anime%20rug/(Carpetnerd)_#fyp%20#yuyuhakusho%20#anime%20#asmr_YW1w6rd2qhA_YT.mp4</pathurl>
																<rate>
																	<timebase>24</timebase>
																	<ntsc>FALSE</ntsc>
																</rate>
																<duration>1488</duration>
																<timecode>
																	<rate>
																		<timebase>24</timebase>
																		<ntsc>FALSE</ntsc>
																	</rate>
																	<string>00:00:00:00</string>
																	<frame>0</frame>
																	<displayformat>NDF</displayformat>
																</timecode>
																<media>
																	<video>
																		<samplecharacteristics>
																			<rate>
																				<timebase>24</timebase>
																				<ntsc>FALSE</ntsc>
																			</rate>
																			<width>1080</width>
																			<height>1920</height>
																			<anamorphic>FALSE</anamorphic>
																			<pixelaspectratio>square</pixelaspectratio>
																			<fielddominance>none</fielddominance>
																		</samplecharacteristics>
																	</video>
																	<audio>
																		<samplecharacteristics>
																			<depth>16</depth>
																			<samplerate>44100</samplerate>
																		</samplecharacteristics>
																		<channelcount>2</channelcount>
																	</audio>
																</media>
															</file>
															<filter>
																<effect>
																	<name>Basic Motion</name>
																	<effectid>basic</effectid>
																	<effectcategory>motion</effectcategory>
																	<effecttype>motion</effecttype>
																	<mediatype>video</mediatype>
																	<pproBypass>false</pproBypass>
																	<parameter authoringApp="PremierePro">
																		<parameterid>scale</parameterid>
																		<name>Scale</name>
																		<valuemin>0</valuemin>
																		<valuemax>1000</valuemax>
																		<value>300</value>
																	</parameter>
																	<parameter authoringApp="PremierePro">
																		<parameterid>rotation</parameterid>
																		<name>Rotation</name>
																		<valuemin>-8640</valuemin>
																		<valuemax>8640</valuemax>
																		<value>0</value>
																	</parameter>
																	<parameter authoringApp="PremierePro">
																		<parameterid>center</parameterid>
																		<name>Center</name>
																		<value>
																			<horiz>0</horiz>
																			<vert>0</vert>
																		</value>
																	</parameter>
																	<parameter authoringApp="PremierePro">
																		<parameterid>centerOffset</parameterid>
																		<name>Anchor Point</name>
																		<value>
																			<horiz>0</horiz>
																			<vert>0</vert>
																		</value>
																	</parameter>
																	<parameter authoringApp="PremierePro">
																		<parameterid>antiflicker</parameterid>
																		<name>Anti-flicker Filter</name>
																		<valuemin>0.0</valuemin>
																		<valuemax>1.0</valuemax>
																		<value>0</value>
																	</parameter>
																</effect>
															</filter>
															<filter>
																<effect>
																	<name>Gaussian Blur</name>
																	<effectid>Gaussian Blur</effectid>
																	<effectcategory>Blur</effectcategory>
																	<effecttype>motion</effecttype>
																	<mediatype>video</mediatype>
																	<pproBypass>false</pproBypass>
																	<parameter authoringApp="PremierePro">
																		<parameterid>radius</parameterid>
																		<name>Radius</name>
																		<valuemin>0</valuemin>
																		<valuemax>100</valuemax>
																		<value>150</value>
																	</parameter>
																</effect>
															</filter>
															<logginginfo>
																<description></description>
																<scene></scene>
																<shottake></shottake>
																<lognote>https://www.youtube.com/watch?v=YW1w6rd2qhA</lognote>
																<good></good>
																<originalvideofilename></originalvideofilename>
																<originalaudiofilename></originalaudiofilename>
															</logginginfo>
															<colorinfo>
																<lut></lut>
																<lut1></lut1>
																<asc_sop></asc_sop>
																<asc_sat></asc_sat>
																<lut2></lut2>
															</colorinfo>
															<labels>
																<label2>Violet</label2>
															</labels>
														</clipitem>
														<clipitem id="clipitem-536">
															<masterclipid>masterclip-179</masterclipid>
															<name>(Carpetnerd)_#fyp #yuyuhakusho #anime #asmr_YW1w6rd2qhA_YT.mp4</name>
															<enabled>TRUE</enabled>
															<duration>1792</duration>
															<rate>
																<timebase>30</timebase>
																<ntsc>TRUE</ntsc>
															</rate>
															<start>240</start>
															<end>510</end>
															<in>1082</in>
															<out>1352</out>
															<pproTicksIn>9170671910400</pproTicksIn>
															<pproTicksOut>11459102054400</pproTicksOut>
															<alphatype>none</alphatype>
															<file id="file-153"/>
															<filter>
																<effect>
																	<name>Basic Motion</name>
																	<effectid>basic</effectid>
																	<effectcategory>motion</effectcategory>
																	<effecttype>motion</effecttype>
																	<mediatype>video</mediatype>
																	<pproBypass>false</pproBypass>
																	<parameter authoringApp="PremierePro">
																		<parameterid>scale</parameterid>
																		<name>Scale</name>
																		<valuemin>0</valuemin>
																		<valuemax>1000</valuemax>
																		<value>300</value>
																	</parameter>
																	<parameter authoringApp="PremierePro">
																		<parameterid>rotation</parameterid>
																		<name>Rotation</name>
																		<valuemin>-8640</valuemin>
																		<valuemax>8640</valuemax>
																		<value>0</value>
																	</parameter>
																	<parameter authoringApp="PremierePro">
																		<parameterid>center</parameterid>
																		<name>Center</name>
																		<value>
																			<horiz>0</horiz>
																			<vert>0</vert>
																		</value>
																	</parameter>
																	<parameter authoringApp="PremierePro">
																		<parameterid>centerOffset</parameterid>
																		<name>Anchor Point</name>
																		<value>
																			<horiz>0</horiz>
																			<vert>0</vert>
																		</value>
																	</parameter>
																	<parameter authoringApp="PremierePro">
																		<parameterid>antiflicker</parameterid>
																		<name>Anti-flicker Filter</name>
																		<valuemin>0.0</valuemin>
																		<valuemax>1.0</valuemax>
																		<value>0</value>
																	</parameter>
																</effect>
															</filter>
															<filter>
																<effect>
																	<name>Gaussian Blur</name>
																	<effectid>Gaussian Blur</effectid>
																	<effectcategory>Blur</effectcategory>
																	<effecttype>motion</effecttype>
																	<mediatype>video</mediatype>
																	<pproBypass>false</pproBypass>
																	<parameter authoringApp="PremierePro">
																		<parameterid>radius</parameterid>
																		<name>Radius</name>
																		<valuemin>0</valuemin>
																		<valuemax>100</valuemax>
																		<value>150</value>
																	</parameter>
																</effect>
															</filter>
															<logginginfo>
																<description></description>
																<scene></scene>
																<shottake></shottake>
																<lognote>https://www.youtube.com/watch?v=YW1w6rd2qhA</lognote>
																<good></good>
																<originalvideofilename></originalvideofilename>
																<originalaudiofilename></originalaudiofilename>
															</logginginfo>
															<colorinfo>
																<lut></lut>
																<lut1></lut1>
																<asc_sop></asc_sop>
																<asc_sat></asc_sat>
																<lut2></lut2>
															</colorinfo>
															<labels>
																<label2>Violet</label2>
															</labels>
														</clipitem>
														<clipitem id="clipitem-537">
															<masterclipid>masterclip-179</masterclipid>
															<name>(Carpetnerd)_#fyp #yuyuhakusho #anime #asmr_YW1w6rd2qhA_YT.mp4</name>
															<enabled>TRUE</enabled>
															<duration>1792</duration>
															<rate>
																<timebase>30</timebase>
																<ntsc>TRUE</ntsc>
															</rate>
															<start>510</start>
															<end>849</end>
															<in>1453</in>
															<out>1792</out>
															<pproTicksIn>12315144441600</pproTicksIn>
															<pproTicksOut>15188395622400</pproTicksOut>
															<alphatype>none</alphatype>
															<file id="file-153"/>
															<filter>
																<effect>
																	<name>Basic Motion</name>
																	<effectid>basic</effectid>
																	<effectcategory>motion</effectcategory>
																	<effecttype>motion</effecttype>
																	<mediatype>video</mediatype>
																	<pproBypass>false</pproBypass>
																	<parameter authoringApp="PremierePro">
																		<parameterid>scale</parameterid>
																		<name>Scale</name>
																		<valuemin>0</valuemin>
																		<valuemax>1000</valuemax>
																		<value>300</value>
																	</parameter>
																	<parameter authoringApp="PremierePro">
																		<parameterid>rotation</parameterid>
																		<name>Rotation</name>
																		<valuemin>-8640</valuemin>
																		<valuemax>8640</valuemax>
																		<value>0</value>
																	</parameter>
																	<parameter authoringApp="PremierePro">
																		<parameterid>center</parameterid>
																		<name>Center</name>
																		<value>
																			<horiz>0</horiz>
																			<vert>0</vert>
																		</value>
																	</parameter>
																	<parameter authoringApp="PremierePro">
																		<parameterid>centerOffset</parameterid>
																		<name>Anchor Point</name>
																		<value>
																			<horiz>0</horiz>
																			<vert>0</vert>
																		</value>
																	</parameter>
																	<parameter authoringApp="PremierePro">
																		<parameterid>antiflicker</parameterid>
																		<name>Anti-flicker Filter</name>
																		<valuemin>0.0</valuemin>
																		<valuemax>1.0</valuemax>
																		<value>0</value>
																	</parameter>
																</effect>
															</filter>
															<filter>
																<effect>
																	<name>Gaussian Blur</name>
																	<effectid>Gaussian Blur</effectid>
																	<effectcategory>Blur</effectcategory>
																	<effecttype>motion</effecttype>
																	<mediatype>video</mediatype>
																	<pproBypass>false</pproBypass>
																	<parameter authoringApp="PremierePro">
																		<parameterid>radius</parameterid>
																		<name>Radius</name>
																		<valuemin>0</valuemin>
																		<valuemax>100</valuemax>
																		<value>150</value>
																	</parameter>
																</effect>
															</filter>
															<logginginfo>
																<description></description>
																<scene></scene>
																<shottake></shottake>
																<lognote>https://www.youtube.com/watch?v=YW1w6rd2qhA</lognote>
																<good></good>
																<originalvideofilename></originalvideofilename>
																<originalaudiofilename></originalaudiofilename>
															</logginginfo>
															<colorinfo>
																<lut></lut>
																<lut1></lut1>
																<asc_sop></asc_sop>
																<asc_sat></asc_sat>
																<lut2></lut2>
															</colorinfo>
															<labels>
																<label2>Violet</label2>
															</labels>
														</clipitem>
														<clipitem id="clipitem-538">
															<masterclipid>masterclip-180</masterclipid>
															<name>(Carpetnerd)_Gengar asmr tufting vid #asmr #rug #diy #gengar #pokemon #nintendo_g_MDgEC4OPA_YT.mp4</name>
															<enabled>TRUE</enabled>
															<duration>732</duration>
															<rate>
																<timebase>30</timebase>
																<ntsc>TRUE</ntsc>
															</rate>
															<start>849</start>
															<end>1247</end>
															<in>231</in>
															<out>629</out>
															<pproTicksIn>1957879123200</pproTicksIn>
															<pproTicksOut>5331194668800</pproTicksOut>
															<alphatype>none</alphatype>
															<pixelaspectratio>square</pixelaspectratio>
															<anamorphic>FALSE</anamorphic>
															<file id="file-154">
																<name>(Carpetnerd)_Gengar asmr tufting vid #asmr #rug #diy #gengar #pokemon #nintendo_g_MDgEC4OPA_YT.mp4</name>
																<pathurl>file://localhost/Volumes/ATM%20JR%202TB/Crafty/2023/06_June/Crafty_6-19-23/3_Raw%20Footage/anime%20rug/(Carpetnerd)_Gengar%20asmr%20tufting%20vid%20#asmr%20#rug%20#diy%20#gengar%20#pokemon%20#nintendo_g_MDgEC4OPA_YT.mp4</pathurl>
																<rate>
																	<timebase>30</timebase>
																	<ntsc>FALSE</ntsc>
																</rate>
																<duration>733</duration>
																<timecode>
																	<rate>
																		<timebase>30</timebase>
																		<ntsc>FALSE</ntsc>
																	</rate>
																	<string>00:00:00:00</string>
																	<frame>0</frame>
																	<displayformat>NDF</displayformat>
																</timecode>
																<media>
																	<video>
																		<samplecharacteristics>
																			<rate>
																				<timebase>30</timebase>
																				<ntsc>FALSE</ntsc>
																			</rate>
																			<width>720</width>
																			<height>1280</height>
																			<anamorphic>FALSE</anamorphic>
																			<pixelaspectratio>square</pixelaspectratio>
																			<fielddominance>none</fielddominance>
																		</samplecharacteristics>
																	</video>
																	<audio>
																		<samplecharacteristics>
																			<depth>16</depth>
																			<samplerate>44100</samplerate>
																		</samplecharacteristics>
																		<channelcount>2</channelcount>
																	</audio>
																</media>
															</file>
															<filter>
																<effect>
																	<name>Basic Motion</name>
																	<effectid>basic</effectid>
																	<effectcategory>motion</effectcategory>
																	<effecttype>motion</effecttype>
																	<mediatype>video</mediatype>
																	<pproBypass>false</pproBypass>
																	<parameter authoringApp="PremierePro">
																		<parameterid>scale</parameterid>
																		<name>Scale</name>
																		<valuemin>0</valuemin>
																		<valuemax>1000</valuemax>
																		<value>300</value>
																	</parameter>
																	<parameter authoringApp="PremierePro">
																		<parameterid>rotation</parameterid>
																		<name>Rotation</name>
																		<valuemin>-8640</valuemin>
																		<valuemax>8640</valuemax>
																		<value>0</value>
																	</parameter>
																	<parameter authoringApp="PremierePro">
																		<parameterid>center</parameterid>
																		<name>Center</name>
																		<value>
																			<horiz>0</horiz>
																			<vert>0</vert>
																		</value>
																	</parameter>
																	<parameter authoringApp="PremierePro">
																		<parameterid>centerOffset</parameterid>
																		<name>Anchor Point</name>
																		<value>
																			<horiz>0</horiz>
																			<vert>0</vert>
																		</value>
																	</parameter>
																	<parameter authoringApp="PremierePro">
																		<parameterid>antiflicker</parameterid>
																		<name>Anti-flicker Filter</name>
																		<valuemin>0.0</valuemin>
																		<valuemax>1.0</valuemax>
																		<value>0</value>
																	</parameter>
																</effect>
															</filter>
															<filter>
																<effect>
																	<name>Gaussian Blur</name>
																	<effectid>Gaussian Blur</effectid>
																	<effectcategory>Blur</effectcategory>
																	<effecttype>motion</effecttype>
																	<mediatype>video</mediatype>
																	<pproBypass>false</pproBypass>
																	<parameter authoringApp="PremierePro">
																		<parameterid>radius</parameterid>
																		<name>Radius</name>
																		<valuemin>0</valuemin>
																		<valuemax>100</valuemax>
																		<value>150</value>
																	</parameter>
																</effect>
															</filter>
															<logginginfo>
																<description></description>
																<scene></scene>
																<shottake></shottake>
																<lognote></lognote>
																<good></good>
																<originalvideofilename></originalvideofilename>
																<originalaudiofilename></originalaudiofilename>
															</logginginfo>
															<colorinfo>
																<lut></lut>
																<lut1></lut1>
																<asc_sop></asc_sop>
																<asc_sat></asc_sat>
																<lut2></lut2>
															</colorinfo>
															<labels>
																<label2>Iris</label2>
															</labels>
														</clipitem>
														<clipitem id="clipitem-539">
															<masterclipid>masterclip-181</masterclipid>
															<name>(Carpetnerd)_#gengar #pokemon #nintendo #rug #craft #diy #anime #pokemongo_Nj39PfEE2uU_YT.mp4</name>
															<enabled>TRUE</enabled>
															<duration>1671</duration>
															<rate>
																<timebase>30</timebase>
																<ntsc>TRUE</ntsc>
															</rate>
															<start>1247</start>
															<end>1776</end>
															<in>177</in>
															<out>706</out>
															<pproTicksIn>1500193094400</pproTicksIn>
															<pproTicksOut>5983821043200</pproTicksOut>
															<alphatype>none</alphatype>
															<pixelaspectratio>square</pixelaspectratio>
															<anamorphic>FALSE</anamorphic>
															<file id="file-155">
																<name>(Carpetnerd)_#gengar #pokemon #nintendo #rug #craft #diy #anime #pokemongo_Nj39PfEE2uU_YT.mp4</name>
																<pathurl>file://localhost/Volumes/ATM%20JR%202TB/Crafty/2023/06_June/Crafty_6-19-23/3_Raw%20Footage/anime%20rug/(Carpetnerd)_#gengar%20#pokemon%20#nintendo%20#rug%20#craft%20#diy%20#anime%20#pokemongo_Nj39PfEE2uU_YT.mp4</pathurl>
																<rate>
																	<timebase>30</timebase>
																	<ntsc>FALSE</ntsc>
																</rate>
																<duration>1673</duration>
																<timecode>
																	<rate>
																		<timebase>30</timebase>
																		<ntsc>FALSE</ntsc>
																	</rate>
																	<string>00:00:00:00</string>
																	<frame>0</frame>
																	<displayformat>NDF</displayformat>
																</timecode>
																<media>
																	<video>
																		<samplecharacteristics>
																			<rate>
																				<timebase>30</timebase>
																				<ntsc>FALSE</ntsc>
																			</rate>
																			<width>720</width>
																			<height>1280</height>
																			<anamorphic>FALSE</anamorphic>
																			<pixelaspectratio>square</pixelaspectratio>
																			<fielddominance>none</fielddominance>
																		</samplecharacteristics>
																	</video>
																	<audio>
																		<samplecharacteristics>
																			<depth>16</depth>
																			<samplerate>44100</samplerate>
																		</samplecharacteristics>
																		<channelcount>2</channelcount>
																	</audio>
																</media>
															</file>
															<filter>
																<effect>
																	<name>Basic Motion</name>
																	<effectid>basic</effectid>
																	<effectcategory>motion</effectcategory>
																	<effecttype>motion</effecttype>
																	<mediatype>video</mediatype>
																	<pproBypass>false</pproBypass>
																	<parameter authoringApp="PremierePro">
																		<parameterid>scale</parameterid>
																		<name>Scale</name>
																		<valuemin>0</valuemin>
																		<valuemax>1000</valuemax>
																		<value>300</value>
																	</parameter>
																	<parameter authoringApp="PremierePro">
																		<parameterid>rotation</parameterid>
																		<name>Rotation</name>
																		<valuemin>-8640</valuemin>
																		<valuemax>8640</valuemax>
																		<value>0</value>
																	</parameter>
																	<parameter authoringApp="PremierePro">
																		<parameterid>center</parameterid>
																		<name>Center</name>
																		<value>
																			<horiz>0</horiz>
																			<vert>0</vert>
																		</value>
																	</parameter>
																	<parameter authoringApp="PremierePro">
																		<parameterid>centerOffset</parameterid>
																		<name>Anchor Point</name>
																		<value>
																			<horiz>0</horiz>
																			<vert>0</vert>
																		</value>
																	</parameter>
																	<parameter authoringApp="PremierePro">
																		<parameterid>antiflicker</parameterid>
																		<name>Anti-flicker Filter</name>
																		<valuemin>0.0</valuemin>
																		<valuemax>1.0</valuemax>
																		<value>0</value>
																	</parameter>
																</effect>
															</filter>
															<filter>
																<effect>
																	<name>Gaussian Blur</name>
																	<effectid>Gaussian Blur</effectid>
																	<effectcategory>Blur</effectcategory>
																	<effecttype>motion</effecttype>
																	<mediatype>video</mediatype>
																	<pproBypass>false</pproBypass>
																	<parameter authoringApp="PremierePro">
																		<parameterid>radius</parameterid>
																		<name>Radius</name>
																		<valuemin>0</valuemin>
																		<valuemax>100</valuemax>
																		<value>150</value>
																	</parameter>
																</effect>
															</filter>
															<logginginfo>
																<description></description>
																<scene></scene>
																<shottake></shottake>
																<lognote></lognote>
																<good></good>
																<originalvideofilename></originalvideofilename>
																<originalaudiofilename></originalaudiofilename>
															</logginginfo>
															<colorinfo>
																<lut></lut>
																<lut1></lut1>
																<asc_sop></asc_sop>
																<asc_sat></asc_sat>
																<lut2></lut2>
															</colorinfo>
															<labels>
																<label2>Iris</label2>
															</labels>
														</clipitem>
														<clipitem id="clipitem-540">
															<masterclipid>masterclip-181</masterclipid>
															<name>(Carpetnerd)_#gengar #pokemon #nintendo #rug #craft #diy #anime #pokemongo_Nj39PfEE2uU_YT.mp4</name>
															<enabled>TRUE</enabled>
															<duration>1671</duration>
															<rate>
																<timebase>30</timebase>
																<ntsc>TRUE</ntsc>
															</rate>
															<start>1776</start>
															<end>2043</end>
															<in>1404</in>
															<out>1671</out>
															<pproTicksIn>11899836748800</pproTicksIn>
															<pproTicksOut>14162839891200</pproTicksOut>
															<alphatype>none</alphatype>
															<file id="file-155"/>
															<filter>
																<effect>
																	<name>Basic Motion</name>
																	<effectid>basic</effectid>
																	<effectcategory>motion</effectcategory>
																	<effecttype>motion</effecttype>
																	<mediatype>video</mediatype>
																	<pproBypass>false</pproBypass>
																	<parameter authoringApp="PremierePro">
																		<parameterid>scale</parameterid>
																		<name>Scale</name>
																		<valuemin>0</valuemin>
																		<valuemax>1000</valuemax>
																		<value>300</value>
																	</parameter>
																	<parameter authoringApp="PremierePro">
																		<parameterid>rotation</parameterid>
																		<name>Rotation</name>
																		<valuemin>-8640</valuemin>
																		<valuemax>8640</valuemax>
																		<value>0</value>
																	</parameter>
																	<parameter authoringApp="PremierePro">
																		<parameterid>center</parameterid>
																		<name>Center</name>
																		<value>
																			<horiz>0</horiz>
																			<vert>0</vert>
																		</value>
																	</parameter>
																	<parameter authoringApp="PremierePro">
																		<parameterid>centerOffset</parameterid>
																		<name>Anchor Point</name>
																		<value>
																			<horiz>0</horiz>
																			<vert>0</vert>
																		</value>
																	</parameter>
																	<parameter authoringApp="PremierePro">
																		<parameterid>antiflicker</parameterid>
																		<name>Anti-flicker Filter</name>
																		<valuemin>0.0</valuemin>
																		<valuemax>1.0</valuemax>
																		<value>0</value>
																	</parameter>
																</effect>
															</filter>
															<filter>
																<effect>
																	<name>Gaussian Blur</name>
																	<effectid>Gaussian Blur</effectid>
																	<effectcategory>Blur</effectcategory>
																	<effecttype>motion</effecttype>
																	<mediatype>video</mediatype>
																	<pproBypass>false</pproBypass>
																	<parameter authoringApp="PremierePro">
																		<parameterid>radius</parameterid>
																		<name>Radius</name>
																		<valuemin>0</valuemin>
																		<valuemax>100</valuemax>
																		<value>150</value>
																	</parameter>
																</effect>
															</filter>
															<logginginfo>
																<description></description>
																<scene></scene>
																<shottake></shottake>
																<lognote></lognote>
																<good></good>
																<originalvideofilename></originalvideofilename>
																<originalaudiofilename></originalaudiofilename>
															</logginginfo>
															<colorinfo>
																<lut></lut>
																<lut1></lut1>
																<asc_sop></asc_sop>
																<asc_sat></asc_sat>
																<lut2></lut2>
															</colorinfo>
															<labels>
																<label2>Iris</label2>
															</labels>
														</clipitem>
														<clipitem id="clipitem-541">
															<masterclipid>masterclip-182</masterclipid>
															<name>(Carpetnerd)_#fyp #asmr #rug #diy #anime #dragonballsuper #ultrainstinct #goku_QSkIAqy9opg_YT.mp4</name>
															<enabled>TRUE</enabled>
															<duration>1344</duration>
															<rate>
																<timebase>30</timebase>
																<ntsc>TRUE</ntsc>
															</rate>
															<start>2043</start>
															<end>2979</end>
															<in>94</in>
															<out>1030</out>
															<pproTicksIn>796712716800</pproTicksIn>
															<pproTicksOut>8729937216000</pproTicksOut>
															<alphatype>none</alphatype>
															<pixelaspectratio>square</pixelaspectratio>
															<anamorphic>FALSE</anamorphic>
															<file id="file-156">
																<name>(Carpetnerd)_#fyp #asmr #rug #diy #anime #dragonballsuper #ultrainstinct #goku_QSkIAqy9opg_YT.mp4</name>
																<pathurl>file://localhost/Volumes/ATM%20JR%202TB/Crafty/2023/06_June/Crafty_6-19-23/3_Raw%20Footage/anime%20rug/(Carpetnerd)_#fyp%20#asmr%20#rug%20#diy%20#anime%20#dragonballsuper%20#ultrainstinct%20#goku_QSkIAqy9opg_YT.mp4</pathurl>
																<rate>
																	<timebase>27</timebase>
																	<ntsc>FALSE</ntsc>
																</rate>
																<duration>1211</duration>
																<timecode>
																	<rate>
																		<timebase>27</timebase>
																		<ntsc>FALSE</ntsc>
																	</rate>
																	<string>00:00:00:00</string>
																	<frame>0</frame>
																	<displayformat>NDF</displayformat>
																</timecode>
																<media>
																	<video>
																		<samplecharacteristics>
																			<rate>
																				<timebase>27</timebase>
																				<ntsc>FALSE</ntsc>
																			</rate>
																			<width>1080</width>
																			<height>1920</height>
																			<anamorphic>FALSE</anamorphic>
																			<pixelaspectratio>square</pixelaspectratio>
																			<fielddominance>none</fielddominance>
																		</samplecharacteristics>
																	</video>
																	<audio>
																		<samplecharacteristics>
																			<depth>16</depth>
																			<samplerate>44100</samplerate>
																		</samplecharacteristics>
																		<channelcount>2</channelcount>
																	</audio>
																</media>
															</file>
															<filter>
																<effect>
																	<name>Basic Motion</name>
																	<effectid>basic</effectid>
																	<effectcategory>motion</effectcategory>
																	<effecttype>motion</effecttype>
																	<mediatype>video</mediatype>
																	<pproBypass>false</pproBypass>
																	<parameter authoringApp="PremierePro">
																		<parameterid>scale</parameterid>
																		<name>Scale</name>
																		<valuemin>0</valuemin>
																		<valuemax>1000</valuemax>
																		<value>300</value>
																	</parameter>
																	<parameter authoringApp="PremierePro">
																		<parameterid>rotation</parameterid>
																		<name>Rotation</name>
																		<valuemin>-8640</valuemin>
																		<valuemax>8640</valuemax>
																		<value>0</value>
																	</parameter>
																	<parameter authoringApp="PremierePro">
																		<parameterid>center</parameterid>
																		<name>Center</name>
																		<value>
																			<horiz>0</horiz>
																			<vert>0</vert>
																		</value>
																	</parameter>
																	<parameter authoringApp="PremierePro">
																		<parameterid>centerOffset</parameterid>
																		<name>Anchor Point</name>
																		<value>
																			<horiz>0</horiz>
																			<vert>0</vert>
																		</value>
																	</parameter>
																	<parameter authoringApp="PremierePro">
																		<parameterid>antiflicker</parameterid>
																		<name>Anti-flicker Filter</name>
																		<valuemin>0.0</valuemin>
																		<valuemax>1.0</valuemax>
																		<value>0</value>
																	</parameter>
																</effect>
															</filter>
															<filter>
																<effect>
																	<name>Gaussian Blur</name>
																	<effectid>Gaussian Blur</effectid>
																	<effectcategory>Blur</effectcategory>
																	<effecttype>motion</effecttype>
																	<mediatype>video</mediatype>
																	<pproBypass>false</pproBypass>
																	<parameter authoringApp="PremierePro">
																		<parameterid>radius</parameterid>
																		<name>Radius</name>
																		<valuemin>0</valuemin>
																		<valuemax>100</valuemax>
																		<value>150</value>
																	</parameter>
																</effect>
															</filter>
															<logginginfo>
																<description></description>
																<scene></scene>
																<shottake></shottake>
																<lognote>https://www.youtube.com/watch?v=QSkIAqy9opg</lognote>
																<good></good>
																<originalvideofilename></originalvideofilename>
																<originalaudiofilename></originalaudiofilename>
															</logginginfo>
															<colorinfo>
																<lut></lut>
																<lut1></lut1>
																<asc_sop></asc_sop>
																<asc_sat></asc_sat>
																<lut2></lut2>
															</colorinfo>
															<labels>
																<label2>Cerulean</label2>
															</labels>
														</clipitem>
														<clipitem id="clipitem-542">
															<masterclipid>masterclip-182</masterclipid>
															<name>(Carpetnerd)_#fyp #asmr #rug #diy #anime #dragonballsuper #ultrainstinct #goku_QSkIAqy9opg_YT.mp4</name>
															<enabled>TRUE</enabled>
															<duration>1344</duration>
															<rate>
																<timebase>30</timebase>
																<ntsc>TRUE</ntsc>
															</rate>
															<start>2979</start>
															<end>3164</end>
															<in>1056</in>
															<out>1241</out>
															<pproTicksIn>8950304563200</pproTicksIn>
															<pproTicksOut>10518302995200</pproTicksOut>
															<alphatype>none</alphatype>
															<file id="file-156"/>
															<filter>
																<effect>
																	<name>Basic Motion</name>
																	<effectid>basic</effectid>
																	<effectcategory>motion</effectcategory>
																	<effecttype>motion</effecttype>
																	<mediatype>video</mediatype>
																	<pproBypass>false</pproBypass>
																	<parameter authoringApp="PremierePro">
																		<parameterid>scale</parameterid>
																		<name>Scale</name>
																		<valuemin>0</valuemin>
																		<valuemax>1000</valuemax>
																		<value>300</value>
																	</parameter>
																	<parameter authoringApp="PremierePro">
																		<parameterid>rotation</parameterid>
																		<name>Rotation</name>
																		<valuemin>-8640</valuemin>
																		<valuemax>8640</valuemax>
																		<value>0</value>
																	</parameter>
																	<parameter authoringApp="PremierePro">
																		<parameterid>center</parameterid>
																		<name>Center</name>
																		<value>
																			<horiz>0</horiz>
																			<vert>0</vert>
																		</value>
																	</parameter>
																	<parameter authoringApp="PremierePro">
																		<parameterid>centerOffset</parameterid>
																		<name>Anchor Point</name>
																		<value>
																			<horiz>0</horiz>
																			<vert>0</vert>
																		</value>
																	</parameter>
																	<parameter authoringApp="PremierePro">
																		<parameterid>antiflicker</parameterid>
																		<name>Anti-flicker Filter</name>
																		<valuemin>0.0</valuemin>
																		<valuemax>1.0</valuemax>
																		<value>0</value>
																	</parameter>
																</effect>
															</filter>
															<filter>
																<effect>
																	<name>Gaussian Blur</name>
																	<effectid>Gaussian Blur</effectid>
																	<effectcategory>Blur</effectcategory>
																	<effecttype>motion</effecttype>
																	<mediatype>video</mediatype>
																	<pproBypass>false</pproBypass>
																	<parameter authoringApp="PremierePro">
																		<parameterid>radius</parameterid>
																		<name>Radius</name>
																		<valuemin>0</valuemin>
																		<valuemax>100</valuemax>
																		<value>150</value>
																	</parameter>
																</effect>
															</filter>
															<logginginfo>
																<description></description>
																<scene></scene>
																<shottake></shottake>
																<lognote>https://www.youtube.com/watch?v=QSkIAqy9opg</lognote>
																<good></good>
																<originalvideofilename></originalvideofilename>
																<originalaudiofilename></originalaudiofilename>
															</logginginfo>
															<colorinfo>
																<lut></lut>
																<lut1></lut1>
																<asc_sop></asc_sop>
																<asc_sat></asc_sat>
																<lut2></lut2>
															</colorinfo>
															<labels>
																<label2>Cerulean</label2>
															</labels>
														</clipitem>
														<enabled>TRUE</enabled>
														<locked>FALSE</locked>
													</track>
													<track TL.SQTrackShy="0" TL.SQTrackExpandedHeight="25" TL.SQTrackExpanded="0" MZ.TrackTargeted="0">
														<clipitem id="clipitem-543">
															<masterclipid>masterclip-179</masterclipid>
															<name>(Carpetnerd)_#fyp #yuyuhakusho #anime #asmr_YW1w6rd2qhA_YT.mp4</name>
															<enabled>TRUE</enabled>
															<duration>1792</duration>
															<rate>
																<timebase>30</timebase>
																<ntsc>TRUE</ntsc>
															</rate>
															<start>0</start>
															<end>240</end>
															<in>263</in>
															<out>503</out>
															<pproTicksIn>2229100473600</pproTicksIn>
															<pproTicksOut>4263260601600</pproTicksOut>
															<alphatype>none</alphatype>
															<file id="file-153"/>
															<filter>
																<effect>
																	<name>Basic Motion</name>
																	<effectid>basic</effectid>
																	<effectcategory>motion</effectcategory>
																	<effecttype>motion</effecttype>
																	<mediatype>video</mediatype>
																	<pproBypass>false</pproBypass>
																	<parameter authoringApp="PremierePro">
																		<parameterid>scale</parameterid>
																		<name>Scale</name>
																		<valuemin>0</valuemin>
																		<valuemax>1000</valuemax>
																		<value>56.25</value>
																	</parameter>
																	<parameter authoringApp="PremierePro">
																		<parameterid>rotation</parameterid>
																		<name>Rotation</name>
																		<valuemin>-8640</valuemin>
																		<valuemax>8640</valuemax>
																		<value>0</value>
																	</parameter>
																	<parameter authoringApp="PremierePro">
																		<parameterid>center</parameterid>
																		<name>Center</name>
																		<value>
																			<horiz>0</horiz>
																			<vert>0</vert>
																		</value>
																	</parameter>
																	<parameter authoringApp="PremierePro">
																		<parameterid>centerOffset</parameterid>
																		<name>Anchor Point</name>
																		<value>
																			<horiz>0</horiz>
																			<vert>0</vert>
																		</value>
																	</parameter>
																	<parameter authoringApp="PremierePro">
																		<parameterid>antiflicker</parameterid>
																		<name>Anti-flicker Filter</name>
																		<valuemin>0.0</valuemin>
																		<valuemax>1.0</valuemax>
																		<value>0</value>
																	</parameter>
																</effect>
															</filter>
															<link>
																<linkclipref>clipitem-543</linkclipref>
																<mediatype>video</mediatype>
																<trackindex>2</trackindex>
																<clipindex>1</clipindex>
															</link>
															<link>
																<linkclipref>clipitem-552</linkclipref>
																<mediatype>audio</mediatype>
																<trackindex>1</trackindex>
																<clipindex>2</clipindex>
																<groupindex>1</groupindex>
															</link>
															<link>
																<linkclipref>clipitem-558</linkclipref>
																<mediatype>audio</mediatype>
																<trackindex>2</trackindex>
																<clipindex>2</clipindex>
																<groupindex>1</groupindex>
															</link>
															<logginginfo>
																<description></description>
																<scene></scene>
																<shottake></shottake>
																<lognote>https://www.youtube.com/watch?v=YW1w6rd2qhA</lognote>
																<good></good>
																<originalvideofilename></originalvideofilename>
																<originalaudiofilename></originalaudiofilename>
															</logginginfo>
															<colorinfo>
																<lut></lut>
																<lut1></lut1>
																<asc_sop></asc_sop>
																<asc_sat></asc_sat>
																<lut2></lut2>
															</colorinfo>
															<labels>
																<label2>Violet</label2>
															</labels>
														</clipitem>
														<clipitem id="clipitem-544">
															<masterclipid>masterclip-179</masterclipid>
															<name>(Carpetnerd)_#fyp #yuyuhakusho #anime #asmr_YW1w6rd2qhA_YT.mp4</name>
															<enabled>TRUE</enabled>
															<duration>1792</duration>
															<rate>
																<timebase>30</timebase>
																<ntsc>TRUE</ntsc>
															</rate>
															<start>240</start>
															<end>510</end>
															<in>1082</in>
															<out>1352</out>
															<pproTicksIn>9170671910400</pproTicksIn>
															<pproTicksOut>11459102054400</pproTicksOut>
															<alphatype>none</alphatype>
															<file id="file-153"/>
															<filter>
																<effect>
																	<name>Basic Motion</name>
																	<effectid>basic</effectid>
																	<effectcategory>motion</effectcategory>
																	<effecttype>motion</effecttype>
																	<mediatype>video</mediatype>
																	<pproBypass>false</pproBypass>
																	<parameter authoringApp="PremierePro">
																		<parameterid>scale</parameterid>
																		<name>Scale</name>
																		<valuemin>0</valuemin>
																		<valuemax>1000</valuemax>
																		<value>56.25</value>
																	</parameter>
																	<parameter authoringApp="PremierePro">
																		<parameterid>rotation</parameterid>
																		<name>Rotation</name>
																		<valuemin>-8640</valuemin>
																		<valuemax>8640</valuemax>
																		<value>0</value>
																	</parameter>
																	<parameter authoringApp="PremierePro">
																		<parameterid>center</parameterid>
																		<name>Center</name>
																		<value>
																			<horiz>0</horiz>
																			<vert>0</vert>
																		</value>
																	</parameter>
																	<parameter authoringApp="PremierePro">
																		<parameterid>centerOffset</parameterid>
																		<name>Anchor Point</name>
																		<value>
																			<horiz>0</horiz>
																			<vert>0</vert>
																		</value>
																	</parameter>
																	<parameter authoringApp="PremierePro">
																		<parameterid>antiflicker</parameterid>
																		<name>Anti-flicker Filter</name>
																		<valuemin>0.0</valuemin>
																		<valuemax>1.0</valuemax>
																		<value>0</value>
																	</parameter>
																</effect>
															</filter>
															<link>
																<linkclipref>clipitem-544</linkclipref>
																<mediatype>video</mediatype>
																<trackindex>2</trackindex>
																<clipindex>2</clipindex>
															</link>
															<link>
																<linkclipref>clipitem-553</linkclipref>
																<mediatype>audio</mediatype>
																<trackindex>1</trackindex>
																<clipindex>4</clipindex>
																<groupindex>1</groupindex>
															</link>
															<link>
																<linkclipref>clipitem-559</linkclipref>
																<mediatype>audio</mediatype>
																<trackindex>2</trackindex>
																<clipindex>4</clipindex>
																<groupindex>1</groupindex>
															</link>
															<logginginfo>
																<description></description>
																<scene></scene>
																<shottake></shottake>
																<lognote>https://www.youtube.com/watch?v=YW1w6rd2qhA</lognote>
																<good></good>
																<originalvideofilename></originalvideofilename>
																<originalaudiofilename></originalaudiofilename>
															</logginginfo>
															<colorinfo>
																<lut></lut>
																<lut1></lut1>
																<asc_sop></asc_sop>
																<asc_sat></asc_sat>
																<lut2></lut2>
															</colorinfo>
															<labels>
																<label2>Violet</label2>
															</labels>
														</clipitem>
														<clipitem id="clipitem-545">
															<masterclipid>masterclip-179</masterclipid>
															<name>(Carpetnerd)_#fyp #yuyuhakusho #anime #asmr_YW1w6rd2qhA_YT.mp4</name>
															<enabled>TRUE</enabled>
															<duration>1792</duration>
															<rate>
																<timebase>30</timebase>
																<ntsc>TRUE</ntsc>
															</rate>
															<start>510</start>
															<end>849</end>
															<in>1453</in>
															<out>1792</out>
															<pproTicksIn>12315144441600</pproTicksIn>
															<pproTicksOut>15188395622400</pproTicksOut>
															<alphatype>none</alphatype>
															<file id="file-153"/>
															<filter>
																<effect>
																	<name>Basic Motion</name>
																	<effectid>basic</effectid>
																	<effectcategory>motion</effectcategory>
																	<effecttype>motion</effecttype>
																	<mediatype>video</mediatype>
																	<pproBypass>false</pproBypass>
																	<parameter authoringApp="PremierePro">
																		<parameterid>scale</parameterid>
																		<name>Scale</name>
																		<valuemin>0</valuemin>
																		<valuemax>1000</valuemax>
																		<value>56.25</value>
																	</parameter>
																	<parameter authoringApp="PremierePro">
																		<parameterid>rotation</parameterid>
																		<name>Rotation</name>
																		<valuemin>-8640</valuemin>
																		<valuemax>8640</valuemax>
																		<value>0</value>
																	</parameter>
																	<parameter authoringApp="PremierePro">
																		<parameterid>center</parameterid>
																		<name>Center</name>
																		<value>
																			<horiz>0</horiz>
																			<vert>0</vert>
																		</value>
																	</parameter>
																	<parameter authoringApp="PremierePro">
																		<parameterid>centerOffset</parameterid>
																		<name>Anchor Point</name>
																		<value>
																			<horiz>0</horiz>
																			<vert>0</vert>
																		</value>
																	</parameter>
																	<parameter authoringApp="PremierePro">
																		<parameterid>antiflicker</parameterid>
																		<name>Anti-flicker Filter</name>
																		<valuemin>0.0</valuemin>
																		<valuemax>1.0</valuemax>
																		<value>0</value>
																	</parameter>
																</effect>
															</filter>
															<logginginfo>
																<description></description>
																<scene></scene>
																<shottake></shottake>
																<lognote>https://www.youtube.com/watch?v=YW1w6rd2qhA</lognote>
																<good></good>
																<originalvideofilename></originalvideofilename>
																<originalaudiofilename></originalaudiofilename>
															</logginginfo>
															<colorinfo>
																<lut></lut>
																<lut1></lut1>
																<asc_sop></asc_sop>
																<asc_sat></asc_sat>
																<lut2></lut2>
															</colorinfo>
															<labels>
																<label2>Violet</label2>
															</labels>
														</clipitem>
														<clipitem id="clipitem-546">
															<masterclipid>masterclip-180</masterclipid>
															<name>(Carpetnerd)_Gengar asmr tufting vid #asmr #rug #diy #gengar #pokemon #nintendo_g_MDgEC4OPA_YT.mp4</name>
															<enabled>TRUE</enabled>
															<duration>732</duration>
															<rate>
																<timebase>30</timebase>
																<ntsc>TRUE</ntsc>
															</rate>
															<start>849</start>
															<end>1247</end>
															<in>231</in>
															<out>629</out>
															<pproTicksIn>1957879123200</pproTicksIn>
															<pproTicksOut>5331194668800</pproTicksOut>
															<alphatype>none</alphatype>
															<file id="file-154"/>
															<filter>
																<effect>
																	<name>Basic Motion</name>
																	<effectid>basic</effectid>
																	<effectcategory>motion</effectcategory>
																	<effecttype>motion</effecttype>
																	<mediatype>video</mediatype>
																	<pproBypass>false</pproBypass>
																	<parameter authoringApp="PremierePro">
																		<parameterid>scale</parameterid>
																		<name>Scale</name>
																		<valuemin>0</valuemin>
																		<valuemax>1000</valuemax>
																		<value>84.375</value>
																	</parameter>
																	<parameter authoringApp="PremierePro">
																		<parameterid>rotation</parameterid>
																		<name>Rotation</name>
																		<valuemin>-8640</valuemin>
																		<valuemax>8640</valuemax>
																		<value>0</value>
																	</parameter>
																	<parameter authoringApp="PremierePro">
																		<parameterid>center</parameterid>
																		<name>Center</name>
																		<value>
																			<horiz>0</horiz>
																			<vert>0</vert>
																		</value>
																	</parameter>
																	<parameter authoringApp="PremierePro">
																		<parameterid>centerOffset</parameterid>
																		<name>Anchor Point</name>
																		<value>
																			<horiz>0</horiz>
																			<vert>0</vert>
																		</value>
																	</parameter>
																	<parameter authoringApp="PremierePro">
																		<parameterid>antiflicker</parameterid>
																		<name>Anti-flicker Filter</name>
																		<valuemin>0.0</valuemin>
																		<valuemax>1.0</valuemax>
																		<value>0</value>
																	</parameter>
																</effect>
															</filter>
															<link>
																<linkclipref>clipitem-546</linkclipref>
																<mediatype>video</mediatype>
																<trackindex>2</trackindex>
																<clipindex>4</clipindex>
															</link>
															<link>
																<linkclipref>clipitem-554</linkclipref>
																<mediatype>audio</mediatype>
																<trackindex>1</trackindex>
																<clipindex>7</clipindex>
																<groupindex>1</groupindex>
															</link>
															<link>
																<linkclipref>clipitem-560</linkclipref>
																<mediatype>audio</mediatype>
																<trackindex>2</trackindex>
																<clipindex>7</clipindex>
																<groupindex>1</groupindex>
															</link>
															<logginginfo>
																<description></description>
																<scene></scene>
																<shottake></shottake>
																<lognote></lognote>
																<good></good>
																<originalvideofilename></originalvideofilename>
																<originalaudiofilename></originalaudiofilename>
															</logginginfo>
															<colorinfo>
																<lut></lut>
																<lut1></lut1>
																<asc_sop></asc_sop>
																<asc_sat></asc_sat>
																<lut2></lut2>
															</colorinfo>
															<labels>
																<label2>Iris</label2>
															</labels>
														</clipitem>
														<clipitem id="clipitem-547">
															<masterclipid>masterclip-181</masterclipid>
															<name>(Carpetnerd)_#gengar #pokemon #nintendo #rug #craft #diy #anime #pokemongo_Nj39PfEE2uU_YT.mp4</name>
															<enabled>TRUE</enabled>
															<duration>1671</duration>
															<rate>
																<timebase>30</timebase>
																<ntsc>TRUE</ntsc>
															</rate>
															<start>1247</start>
															<end>1776</end>
															<in>177</in>
															<out>706</out>
															<pproTicksIn>1500193094400</pproTicksIn>
															<pproTicksOut>5983821043200</pproTicksOut>
															<alphatype>none</alphatype>
															<file id="file-155"/>
															<filter>
																<effect>
																	<name>Basic Motion</name>
																	<effectid>basic</effectid>
																	<effectcategory>motion</effectcategory>
																	<effecttype>motion</effecttype>
																	<mediatype>video</mediatype>
																	<pproBypass>false</pproBypass>
																	<parameter authoringApp="PremierePro">
																		<parameterid>scale</parameterid>
																		<name>Scale</name>
																		<valuemin>0</valuemin>
																		<valuemax>1000</valuemax>
																		<value>84.375</value>
																	</parameter>
																	<parameter authoringApp="PremierePro">
																		<parameterid>rotation</parameterid>
																		<name>Rotation</name>
																		<valuemin>-8640</valuemin>
																		<valuemax>8640</valuemax>
																		<value>0</value>
																	</parameter>
																	<parameter authoringApp="PremierePro">
																		<parameterid>center</parameterid>
																		<name>Center</name>
																		<value>
																			<horiz>0</horiz>
																			<vert>0</vert>
																		</value>
																	</parameter>
																	<parameter authoringApp="PremierePro">
																		<parameterid>centerOffset</parameterid>
																		<name>Anchor Point</name>
																		<value>
																			<horiz>0</horiz>
																			<vert>0</vert>
																		</value>
																	</parameter>
																	<parameter authoringApp="PremierePro">
																		<parameterid>antiflicker</parameterid>
																		<name>Anti-flicker Filter</name>
																		<valuemin>0.0</valuemin>
																		<valuemax>1.0</valuemax>
																		<value>0</value>
																	</parameter>
																</effect>
															</filter>
															<link>
																<linkclipref>clipitem-547</linkclipref>
																<mediatype>video</mediatype>
																<trackindex>2</trackindex>
																<clipindex>5</clipindex>
															</link>
															<link>
																<linkclipref>clipitem-555</linkclipref>
																<mediatype>audio</mediatype>
																<trackindex>1</trackindex>
																<clipindex>9</clipindex>
																<groupindex>1</groupindex>
															</link>
															<link>
																<linkclipref>clipitem-561</linkclipref>
																<mediatype>audio</mediatype>
																<trackindex>2</trackindex>
																<clipindex>9</clipindex>
																<groupindex>1</groupindex>
															</link>
															<logginginfo>
																<description></description>
																<scene></scene>
																<shottake></shottake>
																<lognote></lognote>
																<good></good>
																<originalvideofilename></originalvideofilename>
																<originalaudiofilename></originalaudiofilename>
															</logginginfo>
															<colorinfo>
																<lut></lut>
																<lut1></lut1>
																<asc_sop></asc_sop>
																<asc_sat></asc_sat>
																<lut2></lut2>
															</colorinfo>
															<labels>
																<label2>Iris</label2>
															</labels>
														</clipitem>
														<clipitem id="clipitem-548">
															<masterclipid>masterclip-181</masterclipid>
															<name>(Carpetnerd)_#gengar #pokemon #nintendo #rug #craft #diy #anime #pokemongo_Nj39PfEE2uU_YT.mp4</name>
															<enabled>TRUE</enabled>
															<duration>1671</duration>
															<rate>
																<timebase>30</timebase>
																<ntsc>TRUE</ntsc>
															</rate>
															<start>1776</start>
															<end>2043</end>
															<in>1404</in>
															<out>1671</out>
															<pproTicksIn>11899836748800</pproTicksIn>
															<pproTicksOut>14162839891200</pproTicksOut>
															<alphatype>none</alphatype>
															<file id="file-155"/>
															<filter>
																<effect>
																	<name>Basic Motion</name>
																	<effectid>basic</effectid>
																	<effectcategory>motion</effectcategory>
																	<effecttype>motion</effecttype>
																	<mediatype>video</mediatype>
																	<pproBypass>false</pproBypass>
																	<parameter authoringApp="PremierePro">
																		<parameterid>scale</parameterid>
																		<name>Scale</name>
																		<valuemin>0</valuemin>
																		<valuemax>1000</valuemax>
																		<value>84.375</value>
																	</parameter>
																	<parameter authoringApp="PremierePro">
																		<parameterid>rotation</parameterid>
																		<name>Rotation</name>
																		<valuemin>-8640</valuemin>
																		<valuemax>8640</valuemax>
																		<value>0</value>
																	</parameter>
																	<parameter authoringApp="PremierePro">
																		<parameterid>center</parameterid>
																		<name>Center</name>
																		<value>
																			<horiz>0</horiz>
																			<vert>0</vert>
																		</value>
																	</parameter>
																	<parameter authoringApp="PremierePro">
																		<parameterid>centerOffset</parameterid>
																		<name>Anchor Point</name>
																		<value>
																			<horiz>0</horiz>
																			<vert>0</vert>
																		</value>
																	</parameter>
																	<parameter authoringApp="PremierePro">
																		<parameterid>antiflicker</parameterid>
																		<name>Anti-flicker Filter</name>
																		<valuemin>0.0</valuemin>
																		<valuemax>1.0</valuemax>
																		<value>0</value>
																	</parameter>
																</effect>
															</filter>
															<logginginfo>
																<description></description>
																<scene></scene>
																<shottake></shottake>
																<lognote></lognote>
																<good></good>
																<originalvideofilename></originalvideofilename>
																<originalaudiofilename></originalaudiofilename>
															</logginginfo>
															<colorinfo>
																<lut></lut>
																<lut1></lut1>
																<asc_sop></asc_sop>
																<asc_sat></asc_sat>
																<lut2></lut2>
															</colorinfo>
															<labels>
																<label2>Iris</label2>
															</labels>
														</clipitem>
														<clipitem id="clipitem-549">
															<masterclipid>masterclip-182</masterclipid>
															<name>(Carpetnerd)_#fyp #asmr #rug #diy #anime #dragonballsuper #ultrainstinct #goku_QSkIAqy9opg_YT.mp4</name>
															<enabled>TRUE</enabled>
															<duration>1344</duration>
															<rate>
																<timebase>30</timebase>
																<ntsc>TRUE</ntsc>
															</rate>
															<start>2043</start>
															<end>2979</end>
															<in>94</in>
															<out>1030</out>
															<pproTicksIn>796712716800</pproTicksIn>
															<pproTicksOut>8729937216000</pproTicksOut>
															<alphatype>none</alphatype>
															<file id="file-156"/>
															<filter>
																<effect>
																	<name>Basic Motion</name>
																	<effectid>basic</effectid>
																	<effectcategory>motion</effectcategory>
																	<effecttype>motion</effecttype>
																	<mediatype>video</mediatype>
																	<pproBypass>false</pproBypass>
																	<parameter authoringApp="PremierePro">
																		<parameterid>scale</parameterid>
																		<name>Scale</name>
																		<valuemin>0</valuemin>
																		<valuemax>1000</valuemax>
																		<value>56.25</value>
																	</parameter>
																	<parameter authoringApp="PremierePro">
																		<parameterid>rotation</parameterid>
																		<name>Rotation</name>
																		<valuemin>-8640</valuemin>
																		<valuemax>8640</valuemax>
																		<value>0</value>
																	</parameter>
																	<parameter authoringApp="PremierePro">
																		<parameterid>center</parameterid>
																		<name>Center</name>
																		<value>
																			<horiz>0</horiz>
																			<vert>0</vert>
																		</value>
																	</parameter>
																	<parameter authoringApp="PremierePro">
																		<parameterid>centerOffset</parameterid>
																		<name>Anchor Point</name>
																		<value>
																			<horiz>0</horiz>
																			<vert>0</vert>
																		</value>
																	</parameter>
																	<parameter authoringApp="PremierePro">
																		<parameterid>antiflicker</parameterid>
																		<name>Anti-flicker Filter</name>
																		<valuemin>0.0</valuemin>
																		<valuemax>1.0</valuemax>
																		<value>0</value>
																	</parameter>
																</effect>
															</filter>
															<link>
																<linkclipref>clipitem-549</linkclipref>
																<mediatype>video</mediatype>
																<trackindex>2</trackindex>
																<clipindex>7</clipindex>
															</link>
															<link>
																<linkclipref>clipitem-556</linkclipref>
																<mediatype>audio</mediatype>
																<trackindex>1</trackindex>
																<clipindex>12</clipindex>
																<groupindex>1</groupindex>
															</link>
															<link>
																<linkclipref>clipitem-562</linkclipref>
																<mediatype>audio</mediatype>
																<trackindex>2</trackindex>
																<clipindex>12</clipindex>
																<groupindex>1</groupindex>
															</link>
															<logginginfo>
																<description></description>
																<scene></scene>
																<shottake></shottake>
																<lognote>https://www.youtube.com/watch?v=QSkIAqy9opg</lognote>
																<good></good>
																<originalvideofilename></originalvideofilename>
																<originalaudiofilename></originalaudiofilename>
															</logginginfo>
															<colorinfo>
																<lut></lut>
																<lut1></lut1>
																<asc_sop></asc_sop>
																<asc_sat></asc_sat>
																<lut2></lut2>
															</colorinfo>
															<labels>
																<label2>Cerulean</label2>
															</labels>
														</clipitem>
														<clipitem id="clipitem-550">
															<masterclipid>masterclip-182</masterclipid>
															<name>(Carpetnerd)_#fyp #asmr #rug #diy #anime #dragonballsuper #ultrainstinct #goku_QSkIAqy9opg_YT.mp4</name>
															<enabled>TRUE</enabled>
															<duration>1344</duration>
															<rate>
																<timebase>30</timebase>
																<ntsc>TRUE</ntsc>
															</rate>
															<start>2979</start>
															<end>3164</end>
															<in>1056</in>
															<out>1241</out>
															<pproTicksIn>8950304563200</pproTicksIn>
															<pproTicksOut>10518302995200</pproTicksOut>
															<alphatype>none</alphatype>
															<file id="file-156"/>
															<filter>
																<effect>
																	<name>Basic Motion</name>
																	<effectid>basic</effectid>
																	<effectcategory>motion</effectcategory>
																	<effecttype>motion</effecttype>
																	<mediatype>video</mediatype>
																	<pproBypass>false</pproBypass>
																	<parameter authoringApp="PremierePro">
																		<parameterid>scale</parameterid>
																		<name>Scale</name>
																		<valuemin>0</valuemin>
																		<valuemax>1000</valuemax>
																		<value>56.25</value>
																	</parameter>
																	<parameter authoringApp="PremierePro">
																		<parameterid>rotation</parameterid>
																		<name>Rotation</name>
																		<valuemin>-8640</valuemin>
																		<valuemax>8640</valuemax>
																		<value>0</value>
																	</parameter>
																	<parameter authoringApp="PremierePro">
																		<parameterid>center</parameterid>
																		<name>Center</name>
																		<value>
																			<horiz>0</horiz>
																			<vert>0</vert>
																		</value>
																	</parameter>
																	<parameter authoringApp="PremierePro">
																		<parameterid>centerOffset</parameterid>
																		<name>Anchor Point</name>
																		<value>
																			<horiz>0</horiz>
																			<vert>0</vert>
																		</value>
																	</parameter>
																	<parameter authoringApp="PremierePro">
																		<parameterid>antiflicker</parameterid>
																		<name>Anti-flicker Filter</name>
																		<valuemin>0.0</valuemin>
																		<valuemax>1.0</valuemax>
																		<value>0</value>
																	</parameter>
																</effect>
															</filter>
															<link>
																<linkclipref>clipitem-550</linkclipref>
																<mediatype>video</mediatype>
																<trackindex>2</trackindex>
																<clipindex>8</clipindex>
															</link>
															<link>
																<linkclipref>clipitem-557</linkclipref>
																<mediatype>audio</mediatype>
																<trackindex>1</trackindex>
																<clipindex>14</clipindex>
																<groupindex>1</groupindex>
															</link>
															<link>
																<linkclipref>clipitem-563</linkclipref>
																<mediatype>audio</mediatype>
																<trackindex>2</trackindex>
																<clipindex>14</clipindex>
																<groupindex>1</groupindex>
															</link>
															<logginginfo>
																<description></description>
																<scene></scene>
																<shottake></shottake>
																<lognote>https://www.youtube.com/watch?v=QSkIAqy9opg</lognote>
																<good></good>
																<originalvideofilename></originalvideofilename>
																<originalaudiofilename></originalaudiofilename>
															</logginginfo>
															<colorinfo>
																<lut></lut>
																<lut1></lut1>
																<asc_sop></asc_sop>
																<asc_sat></asc_sat>
																<lut2></lut2>
															</colorinfo>
															<labels>
																<label2>Cerulean</label2>
															</labels>
														</clipitem>
														<enabled>TRUE</enabled>
														<locked>FALSE</locked>
													</track>
													<track TL.SQTrackShy="0" TL.SQTrackExpandedHeight="25" TL.SQTrackExpanded="0" MZ.TrackTargeted="0">
														<clipitem id="clipitem-551">
															<masterclipid>masterclip-183</masterclipid>
															<name>@Carpetnerd</name>
															<enabled>TRUE</enabled>
															<duration>5844</duration>
															<rate>
																<timebase>30</timebase>
																<ntsc>TRUE</ntsc>
															</rate>
															<start>0</start>
															<end>3164</end>
															<in>0</in>
															<out>3164</out>
															<pproTicksIn>0</pproTicksIn>
															<pproTicksOut>26817011020800</pproTicksOut>
															<alphatype>straight</alphatype>
															<pixelaspectratio>square</pixelaspectratio>
															<anamorphic>FALSE</anamorphic>
															<file id="file-157">
																<name>1080/AE Attribution.aep</name>
																<pathurl>file://localhost/Volumes/ATM%20JR%202TB/Crafty/Master%20Assets%20/Attribution/AE%20Attribution.aep</pathurl>
																<rate>
																	<timebase>30</timebase>
																	<ntsc>TRUE</ntsc>
																</rate>
																<duration>5844</duration>
																<timecode>
																	<rate>
																		<timebase>30</timebase>
																		<ntsc>TRUE</ntsc>
																	</rate>
																	<string>00;00;00;00</string>
																	<frame>0</frame>
																	<displayformat>DF</displayformat>
																</timecode>
																<media>
																	<video>
																		<samplecharacteristics>
																			<rate>
																				<timebase>30</timebase>
																				<ntsc>TRUE</ntsc>
																			</rate>
																			<width>1920</width>
																			<height>1080</height>
																			<anamorphic>FALSE</anamorphic>
																			<pixelaspectratio>square</pixelaspectratio>
																			<fielddominance>lower</fielddominance>
																		</samplecharacteristics>
																	</video>
																</media>
															</file>
															<logginginfo>
																<description></description>
																<scene></scene>
																<shottake></shottake>
																<lognote></lognote>
																<good></good>
																<originalvideofilename></originalvideofilename>
																<originalaudiofilename></originalaudiofilename>
															</logginginfo>
															<colorinfo>
																<lut></lut>
																<lut1></lut1>
																<asc_sop></asc_sop>
																<asc_sat></asc_sat>
																<lut2></lut2>
															</colorinfo>
															<labels>
																<label2>Rose</label2>
															</labels>
														</clipitem>
														<enabled>TRUE</enabled>
														<locked>FALSE</locked>
													</track>
												</video>
												<audio>
													<numOutputChannels>2</numOutputChannels>
													<format>
														<samplecharacteristics>
															<depth>16</depth>
															<samplerate>48000</samplerate>
														</samplecharacteristics>
													</format>
													<outputs>
														<group>
															<index>1</index>
															<numchannels>1</numchannels>
															<downmix>0</downmix>
															<channel>
																<index>1</index>
															</channel>
														</group>
														<group>
															<index>2</index>
															<numchannels>1</numchannels>
															<downmix>0</downmix>
															<channel>
																<index>2</index>
															</channel>
														</group>
													</outputs>
													<track TL.SQTrackAudioKeyframeStyle="0" TL.SQTrackShy="0" TL.SQTrackExpandedHeight="85" TL.SQTrackExpanded="0" MZ.TrackTargeted="1" PannerCurrentValue="0.5" PannerIsInverted="true" PannerStartKeyframe="-91445760000000000,0.5,0,0,0,0,0,0" PannerName="Balance" currentExplodedTrackIndex="0" totalExplodedTrackCount="2" premiereTrackType="Stereo">
														<transitionitem>
															<start>0</start>
															<end>30</end>
															<pproTicksIn>0</pproTicksIn>
															<pproTicksOut>254270016000</pproTicksOut>
															<alignment>start-black</alignment>
															<cutPointTicks>0</cutPointTicks>
															<rate>
																<timebase>30</timebase>
																<ntsc>TRUE</ntsc>
															</rate>
															<effect>
																<name>Cross Fade (+3dB)</name>
																<effectid>KGAudioTransCrossFade3dB</effectid>
																<effecttype>transition</effecttype>
																<mediatype>audio</mediatype>
																<wipecode>0</wipecode>
																<wipeaccuracy>100</wipeaccuracy>
																<startratio>0</startratio>
																<endratio>1</endratio>
																<reverse>FALSE</reverse>
															</effect>
														</transitionitem>
														<clipitem id="clipitem-552" premiereChannelType="stereo">
															<masterclipid>masterclip-179</masterclipid>
															<name>(Carpetnerd)_#fyp #yuyuhakusho #anime #asmr_YW1w6rd2qhA_YT.mp4</name>
															<enabled>TRUE</enabled>
															<duration>1792</duration>
															<rate>
																<timebase>30</timebase>
																<ntsc>TRUE</ntsc>
															</rate>
															<start>-1</start>
															<end>-1</end>
															<in>263</in>
															<out>518</out>
															<pproTicksIn>2229100473600</pproTicksIn>
															<pproTicksOut>4390395609600</pproTicksOut>
															<file id="file-153"/>
															<sourcetrack>
																<mediatype>audio</mediatype>
																<trackindex>1</trackindex>
															</sourcetrack>
															<filter>
																<effect>
																	<name>Gain</name>
																	<effectid>{61756678, 4761696e, 4b657947}</effectid>
																	<effecttype>filter</effecttype>
																	<mediatype>audio</mediatype>
																	<parameter authoringApp="PremierePro">
																		<parameterid>Gain(dB)</parameterid>
																		<name>Gain(dB)</name>
																		<valuemin>-96</valuemin>
																		<valuemax>96</valuemax>
																		<value>-6</value>
																	</parameter>
																</effect>
															</filter>
															<filter>
																<effect>
																	<name>Audio Levels</name>
																	<effectid>audiolevels</effectid>
																	<effectcategory>audiolevels</effectcategory>
																	<effecttype>audiolevels</effecttype>
																	<mediatype>audio</mediatype>
																	<pproBypass>false</pproBypass>
																	<parameter authoringApp="PremierePro">
																		<parameterid>level</parameterid>
																		<name>Level</name>
																		<valuemin>0</valuemin>
																		<valuemax>3.98109</valuemax>
																		<value>0.514498</value>
																	</parameter>
																</effect>
															</filter>
															<link>
																<linkclipref>clipitem-543</linkclipref>
																<mediatype>video</mediatype>
																<trackindex>2</trackindex>
																<clipindex>1</clipindex>
															</link>
															<link>
																<linkclipref>clipitem-552</linkclipref>
																<mediatype>audio</mediatype>
																<trackindex>1</trackindex>
																<clipindex>2</clipindex>
																<groupindex>1</groupindex>
															</link>
															<link>
																<linkclipref>clipitem-558</linkclipref>
																<mediatype>audio</mediatype>
																<trackindex>2</trackindex>
																<clipindex>2</clipindex>
																<groupindex>1</groupindex>
															</link>
															<logginginfo>
																<description></description>
																<scene></scene>
																<shottake></shottake>
																<lognote>https://www.youtube.com/watch?v=YW1w6rd2qhA</lognote>
																<good></good>
																<originalvideofilename></originalvideofilename>
																<originalaudiofilename></originalaudiofilename>
															</logginginfo>
															<colorinfo>
																<lut></lut>
																<lut1></lut1>
																<asc_sop></asc_sop>
																<asc_sat></asc_sat>
																<lut2></lut2>
															</colorinfo>
															<labels>
																<label2>Violet</label2>
															</labels>
														</clipitem>
														<transitionitem>
															<start>225</start>
															<end>255</end>
															<pproTicksIn>1907025120000</pproTicksIn>
															<pproTicksOut>2161295136000</pproTicksOut>
															<alignment>center</alignment>
															<cutPointTicks>127135008000</cutPointTicks>
															<rate>
																<timebase>30</timebase>
																<ntsc>TRUE</ntsc>
															</rate>
															<effect>
																<name>Cross Fade (+3dB)</name>
																<effectid>KGAudioTransCrossFade3dB</effectid>
																<effecttype>transition</effecttype>
																<mediatype>audio</mediatype>
																<wipecode>0</wipecode>
																<wipeaccuracy>100</wipeaccuracy>
																<startratio>0</startratio>
																<endratio>1</endratio>
																<reverse>FALSE</reverse>
															</effect>
														</transitionitem>
														<clipitem id="clipitem-553" premiereChannelType="stereo">
															<masterclipid>masterclip-179</masterclipid>
															<name>(Carpetnerd)_#fyp #yuyuhakusho #anime #asmr_YW1w6rd2qhA_YT.mp4</name>
															<enabled>TRUE</enabled>
															<duration>1792</duration>
															<rate>
																<timebase>30</timebase>
																<ntsc>TRUE</ntsc>
															</rate>
															<start>-1</start>
															<end>-1</end>
															<in>1067</in>
															<out>1352</out>
															<pproTicksIn>9043536902400</pproTicksIn>
															<pproTicksOut>11459102054400</pproTicksOut>
															<file id="file-153"/>
															<sourcetrack>
																<mediatype>audio</mediatype>
																<trackindex>1</trackindex>
															</sourcetrack>
															<filter>
																<effect>
																	<name>Gain</name>
																	<effectid>{61756678, 4761696e, 4b657947}</effectid>
																	<effecttype>filter</effecttype>
																	<mediatype>audio</mediatype>
																	<parameter authoringApp="PremierePro">
																		<parameterid>Gain(dB)</parameterid>
																		<name>Gain(dB)</name>
																		<valuemin>-96</valuemin>
																		<valuemax>96</valuemax>
																		<value>-6</value>
																	</parameter>
																</effect>
															</filter>
															<link>
																<linkclipref>clipitem-544</linkclipref>
																<mediatype>video</mediatype>
																<trackindex>2</trackindex>
																<clipindex>2</clipindex>
															</link>
															<link>
																<linkclipref>clipitem-553</linkclipref>
																<mediatype>audio</mediatype>
																<trackindex>1</trackindex>
																<clipindex>4</clipindex>
																<groupindex>1</groupindex>
															</link>
															<link>
																<linkclipref>clipitem-559</linkclipref>
																<mediatype>audio</mediatype>
																<trackindex>2</trackindex>
																<clipindex>4</clipindex>
																<groupindex>1</groupindex>
															</link>
															<logginginfo>
																<description></description>
																<scene></scene>
																<shottake></shottake>
																<lognote>https://www.youtube.com/watch?v=YW1w6rd2qhA</lognote>
																<good></good>
																<originalvideofilename></originalvideofilename>
																<originalaudiofilename></originalaudiofilename>
															</logginginfo>
															<colorinfo>
																<lut></lut>
																<lut1></lut1>
																<asc_sop></asc_sop>
																<asc_sat></asc_sat>
																<lut2></lut2>
															</colorinfo>
															<labels>
																<label2>Violet</label2>
															</labels>
														</clipitem>
														<transitionitem>
															<start>480</start>
															<end>510</end>
															<pproTicksIn>4068320256000</pproTicksIn>
															<pproTicksOut>4322590272000</pproTicksOut>
															<alignment>end-black</alignment>
															<cutPointTicks>254270016000</cutPointTicks>
															<rate>
																<timebase>30</timebase>
																<ntsc>TRUE</ntsc>
															</rate>
															<effect>
																<name>Cross Fade (+3dB)</name>
																<effectid>KGAudioTransCrossFade3dB</effectid>
																<effecttype>transition</effecttype>
																<mediatype>audio</mediatype>
																<wipecode>0</wipecode>
																<wipeaccuracy>100</wipeaccuracy>
																<startratio>0</startratio>
																<endratio>1</endratio>
																<reverse>FALSE</reverse>
															</effect>
														</transitionitem>
														<transitionitem>
															<start>849</start>
															<end>879</end>
															<pproTicksIn>7195841452800</pproTicksIn>
															<pproTicksOut>7450111468800</pproTicksOut>
															<alignment>start-black</alignment>
															<cutPointTicks>0</cutPointTicks>
															<rate>
																<timebase>30</timebase>
																<ntsc>TRUE</ntsc>
															</rate>
															<effect>
																<name>Cross Fade (+3dB)</name>
																<effectid>KGAudioTransCrossFade3dB</effectid>
																<effecttype>transition</effecttype>
																<mediatype>audio</mediatype>
																<wipecode>0</wipecode>
																<wipeaccuracy>100</wipeaccuracy>
																<startratio>0</startratio>
																<endratio>1</endratio>
																<reverse>FALSE</reverse>
															</effect>
														</transitionitem>
														<clipitem id="clipitem-554" premiereChannelType="stereo">
															<masterclipid>masterclip-180</masterclipid>
															<name>(Carpetnerd)_Gengar asmr tufting vid #asmr #rug #diy #gengar #pokemon #nintendo_g_MDgEC4OPA_YT.mp4</name>
															<enabled>TRUE</enabled>
															<duration>732</duration>
															<rate>
																<timebase>30</timebase>
																<ntsc>TRUE</ntsc>
															</rate>
															<start>-1</start>
															<end>1247</end>
															<in>231</in>
															<out>629</out>
															<pproTicksIn>1957879123200</pproTicksIn>
															<pproTicksOut>5331194668800</pproTicksOut>
															<file id="file-154"/>
															<sourcetrack>
																<mediatype>audio</mediatype>
																<trackindex>1</trackindex>
															</sourcetrack>
															<filter>
																<effect>
																	<name>Gain</name>
																	<effectid>{61756678, 4761696e, 4b657947}</effectid>
																	<effecttype>filter</effecttype>
																	<mediatype>audio</mediatype>
																	<parameter authoringApp="PremierePro">
																		<parameterid>Gain(dB)</parameterid>
																		<name>Gain(dB)</name>
																		<valuemin>-96</valuemin>
																		<valuemax>96</valuemax>
																		<value>-6</value>
																	</parameter>
																</effect>
															</filter>
															<filter>
																<effect>
																	<name>Audio Levels</name>
																	<effectid>audiolevels</effectid>
																	<effectcategory>audiolevels</effectcategory>
																	<effecttype>audiolevels</effecttype>
																	<mediatype>audio</mediatype>
																	<pproBypass>false</pproBypass>
																	<parameter authoringApp="PremierePro">
																		<parameterid>level</parameterid>
																		<name>Level</name>
																		<valuemin>0</valuemin>
																		<valuemax>3.98109</valuemax>
																		<value>0.313918</value>
																	</parameter>
																</effect>
															</filter>
															<link>
																<linkclipref>clipitem-546</linkclipref>
																<mediatype>video</mediatype>
																<trackindex>2</trackindex>
																<clipindex>4</clipindex>
															</link>
															<link>
																<linkclipref>clipitem-554</linkclipref>
																<mediatype>audio</mediatype>
																<trackindex>1</trackindex>
																<clipindex>7</clipindex>
																<groupindex>1</groupindex>
															</link>
															<link>
																<linkclipref>clipitem-560</linkclipref>
																<mediatype>audio</mediatype>
																<trackindex>2</trackindex>
																<clipindex>7</clipindex>
																<groupindex>1</groupindex>
															</link>
															<logginginfo>
																<description></description>
																<scene></scene>
																<shottake></shottake>
																<lognote></lognote>
																<good></good>
																<originalvideofilename></originalvideofilename>
																<originalaudiofilename></originalaudiofilename>
															</logginginfo>
															<colorinfo>
																<lut></lut>
																<lut1></lut1>
																<asc_sop></asc_sop>
																<asc_sat></asc_sat>
																<lut2></lut2>
															</colorinfo>
															<labels>
																<label2>Iris</label2>
															</labels>
														</clipitem>
														<transitionitem>
															<start>1247</start>
															<end>1277</end>
															<pproTicksIn>10569156998400</pproTicksIn>
															<pproTicksOut>10823427014400</pproTicksOut>
															<alignment>start-black</alignment>
															<cutPointTicks>0</cutPointTicks>
															<rate>
																<timebase>30</timebase>
																<ntsc>TRUE</ntsc>
															</rate>
															<effect>
																<name>Cross Fade (+3dB)</name>
																<effectid>KGAudioTransCrossFade3dB</effectid>
																<effecttype>transition</effecttype>
																<mediatype>audio</mediatype>
																<wipecode>0</wipecode>
																<wipeaccuracy>100</wipeaccuracy>
																<startratio>0</startratio>
																<endratio>1</endratio>
																<reverse>FALSE</reverse>
															</effect>
														</transitionitem>
														<clipitem id="clipitem-555" premiereChannelType="stereo">
															<masterclipid>masterclip-181</masterclipid>
															<name>(Carpetnerd)_#gengar #pokemon #nintendo #rug #craft #diy #anime #pokemongo_Nj39PfEE2uU_YT.mp4</name>
															<enabled>TRUE</enabled>
															<duration>1671</duration>
															<rate>
																<timebase>30</timebase>
																<ntsc>TRUE</ntsc>
															</rate>
															<start>-1</start>
															<end>-1</end>
															<in>177</in>
															<out>706</out>
															<pproTicksIn>1500193094400</pproTicksIn>
															<pproTicksOut>5983821043200</pproTicksOut>
															<file id="file-155"/>
															<sourcetrack>
																<mediatype>audio</mediatype>
																<trackindex>1</trackindex>
															</sourcetrack>
															<filter>
																<effect>
																	<name>Gain</name>
																	<effectid>{61756678, 4761696e, 4b657947}</effectid>
																	<effecttype>filter</effecttype>
																	<mediatype>audio</mediatype>
																	<parameter authoringApp="PremierePro">
																		<parameterid>Gain(dB)</parameterid>
																		<name>Gain(dB)</name>
																		<valuemin>-96</valuemin>
																		<valuemax>96</valuemax>
																		<value>-6</value>
																	</parameter>
																</effect>
															</filter>
															<filter>
																<effect>
																	<name>Audio Levels</name>
																	<effectid>audiolevels</effectid>
																	<effectcategory>audiolevels</effectcategory>
																	<effecttype>audiolevels</effecttype>
																	<mediatype>audio</mediatype>
																	<pproBypass>false</pproBypass>
																	<parameter authoringApp="PremierePro">
																		<parameterid>level</parameterid>
																		<name>Level</name>
																		<valuemin>0</valuemin>
																		<valuemax>3.98109</valuemax>
																		<value>0.829053</value>
																	</parameter>
																</effect>
															</filter>
															<link>
																<linkclipref>clipitem-547</linkclipref>
																<mediatype>video</mediatype>
																<trackindex>2</trackindex>
																<clipindex>5</clipindex>
															</link>
															<link>
																<linkclipref>clipitem-555</linkclipref>
																<mediatype>audio</mediatype>
																<trackindex>1</trackindex>
																<clipindex>9</clipindex>
																<groupindex>1</groupindex>
															</link>
															<link>
																<linkclipref>clipitem-561</linkclipref>
																<mediatype>audio</mediatype>
																<trackindex>2</trackindex>
																<clipindex>9</clipindex>
																<groupindex>1</groupindex>
															</link>
															<logginginfo>
																<description></description>
																<scene></scene>
																<shottake></shottake>
																<lognote></lognote>
																<good></good>
																<originalvideofilename></originalvideofilename>
																<originalaudiofilename></originalaudiofilename>
															</logginginfo>
															<colorinfo>
																<lut></lut>
																<lut1></lut1>
																<asc_sop></asc_sop>
																<asc_sat></asc_sat>
																<lut2></lut2>
															</colorinfo>
															<labels>
																<label2>Iris</label2>
															</labels>
														</clipitem>
														<transitionitem>
															<start>1746</start>
															<end>1776</end>
															<pproTicksIn>14798514931200</pproTicksIn>
															<pproTicksOut>15052784947200</pproTicksOut>
															<alignment>end-black</alignment>
															<cutPointTicks>254270016000</cutPointTicks>
															<rate>
																<timebase>30</timebase>
																<ntsc>TRUE</ntsc>
															</rate>
															<effect>
																<name>Cross Fade (+3dB)</name>
																<effectid>KGAudioTransCrossFade3dB</effectid>
																<effecttype>transition</effecttype>
																<mediatype>audio</mediatype>
																<wipecode>0</wipecode>
																<wipeaccuracy>100</wipeaccuracy>
																<startratio>0</startratio>
																<endratio>1</endratio>
																<reverse>FALSE</reverse>
															</effect>
														</transitionitem>
														<transitionitem>
															<start>2043</start>
															<end>2073</end>
															<pproTicksIn>17315788089600</pproTicksIn>
															<pproTicksOut>17570058105600</pproTicksOut>
															<alignment>start-black</alignment>
															<cutPointTicks>0</cutPointTicks>
															<rate>
																<timebase>30</timebase>
																<ntsc>TRUE</ntsc>
															</rate>
															<effect>
																<name>Cross Fade (+3dB)</name>
																<effectid>KGAudioTransCrossFade3dB</effectid>
																<effecttype>transition</effecttype>
																<mediatype>audio</mediatype>
																<wipecode>0</wipecode>
																<wipeaccuracy>100</wipeaccuracy>
																<startratio>0</startratio>
																<endratio>1</endratio>
																<reverse>FALSE</reverse>
															</effect>
														</transitionitem>
														<clipitem id="clipitem-556" premiereChannelType="stereo">
															<masterclipid>masterclip-182</masterclipid>
															<name>(Carpetnerd)_#fyp #asmr #rug #diy #anime #dragonballsuper #ultrainstinct #goku_QSkIAqy9opg_YT.mp4</name>
															<enabled>TRUE</enabled>
															<duration>1344</duration>
															<rate>
																<timebase>30</timebase>
																<ntsc>TRUE</ntsc>
															</rate>
															<start>-1</start>
															<end>-1</end>
															<in>94</in>
															<out>1045</out>
															<pproTicksIn>796712716800</pproTicksIn>
															<pproTicksOut>8857072224000</pproTicksOut>
															<file id="file-156"/>
															<sourcetrack>
																<mediatype>audio</mediatype>
																<trackindex>1</trackindex>
															</sourcetrack>
															<filter>
																<effect>
																	<name>Gain</name>
																	<effectid>{61756678, 4761696e, 4b657947}</effectid>
																	<effecttype>filter</effecttype>
																	<mediatype>audio</mediatype>
																	<parameter authoringApp="PremierePro">
																		<parameterid>Gain(dB)</parameterid>
																		<name>Gain(dB)</name>
																		<valuemin>-96</valuemin>
																		<valuemax>96</valuemax>
																		<value>-6</value>
																	</parameter>
																</effect>
															</filter>
															<filter>
																<effect>
																	<name>Audio Levels</name>
																	<effectid>audiolevels</effectid>
																	<effectcategory>audiolevels</effectcategory>
																	<effecttype>audiolevels</effecttype>
																	<mediatype>audio</mediatype>
																	<pproBypass>false</pproBypass>
																	<parameter authoringApp="PremierePro">
																		<parameterid>level</parameterid>
																		<name>Level</name>
																		<valuemin>0</valuemin>
																		<valuemax>3.98109</valuemax>
																		<value>1</value>
																		<keyframe>
																			<when>414</when>
																			<value>0.280257</value>
																		</keyframe>
																		<keyframe>
																			<when>464</when>
																			<value>1</value>
																		</keyframe>
																	</parameter>
																</effect>
															</filter>
															<link>
																<linkclipref>clipitem-549</linkclipref>
																<mediatype>video</mediatype>
																<trackindex>2</trackindex>
																<clipindex>7</clipindex>
															</link>
															<link>
																<linkclipref>clipitem-556</linkclipref>
																<mediatype>audio</mediatype>
																<trackindex>1</trackindex>
																<clipindex>12</clipindex>
																<groupindex>1</groupindex>
															</link>
															<link>
																<linkclipref>clipitem-562</linkclipref>
																<mediatype>audio</mediatype>
																<trackindex>2</trackindex>
																<clipindex>12</clipindex>
																<groupindex>1</groupindex>
															</link>
															<logginginfo>
																<description></description>
																<scene></scene>
																<shottake></shottake>
																<lognote>https://www.youtube.com/watch?v=QSkIAqy9opg</lognote>
																<good></good>
																<originalvideofilename></originalvideofilename>
																<originalaudiofilename></originalaudiofilename>
															</logginginfo>
															<colorinfo>
																<lut></lut>
																<lut1></lut1>
																<asc_sop></asc_sop>
																<asc_sat></asc_sat>
																<lut2></lut2>
															</colorinfo>
															<labels>
																<label2>Cerulean</label2>
															</labels>
														</clipitem>
														<transitionitem>
															<start>2964</start>
															<end>2994</end>
															<pproTicksIn>25121877580800</pproTicksIn>
															<pproTicksOut>25376147596800</pproTicksOut>
															<alignment>center</alignment>
															<cutPointTicks>127135008000</cutPointTicks>
															<rate>
																<timebase>30</timebase>
																<ntsc>TRUE</ntsc>
															</rate>
															<effect>
																<name>Cross Fade (+3dB)</name>
																<effectid>KGAudioTransCrossFade3dB</effectid>
																<effecttype>transition</effecttype>
																<mediatype>audio</mediatype>
																<wipecode>0</wipecode>
																<wipeaccuracy>100</wipeaccuracy>
																<startratio>0</startratio>
																<endratio>1</endratio>
																<reverse>FALSE</reverse>
															</effect>
														</transitionitem>
														<clipitem id="clipitem-557" premiereChannelType="stereo">
															<masterclipid>masterclip-182</masterclipid>
															<name>(Carpetnerd)_#fyp #asmr #rug #diy #anime #dragonballsuper #ultrainstinct #goku_QSkIAqy9opg_YT.mp4</name>
															<enabled>TRUE</enabled>
															<duration>1344</duration>
															<rate>
																<timebase>30</timebase>
																<ntsc>TRUE</ntsc>
															</rate>
															<start>-1</start>
															<end>3164</end>
															<in>1041</in>
															<out>1241</out>
															<pproTicksIn>8823169555200</pproTicksIn>
															<pproTicksOut>10518302995200</pproTicksOut>
															<file id="file-156"/>
															<sourcetrack>
																<mediatype>audio</mediatype>
																<trackindex>1</trackindex>
															</sourcetrack>
															<filter>
																<effect>
																	<name>Gain</name>
																	<effectid>{61756678, 4761696e, 4b657947}</effectid>
																	<effecttype>filter</effecttype>
																	<mediatype>audio</mediatype>
																	<parameter authoringApp="PremierePro">
																		<parameterid>Gain(dB)</parameterid>
																		<name>Gain(dB)</name>
																		<valuemin>-96</valuemin>
																		<valuemax>96</valuemax>
																		<value>-6</value>
																	</parameter>
																</effect>
															</filter>
															<link>
																<linkclipref>clipitem-550</linkclipref>
																<mediatype>video</mediatype>
																<trackindex>2</trackindex>
																<clipindex>8</clipindex>
															</link>
															<link>
																<linkclipref>clipitem-557</linkclipref>
																<mediatype>audio</mediatype>
																<trackindex>1</trackindex>
																<clipindex>14</clipindex>
																<groupindex>1</groupindex>
															</link>
															<link>
																<linkclipref>clipitem-563</linkclipref>
																<mediatype>audio</mediatype>
																<trackindex>2</trackindex>
																<clipindex>14</clipindex>
																<groupindex>1</groupindex>
															</link>
															<logginginfo>
																<description></description>
																<scene></scene>
																<shottake></shottake>
																<lognote>https://www.youtube.com/watch?v=QSkIAqy9opg</lognote>
																<good></good>
																<originalvideofilename></originalvideofilename>
																<originalaudiofilename></originalaudiofilename>
															</logginginfo>
															<colorinfo>
																<lut></lut>
																<lut1></lut1>
																<asc_sop></asc_sop>
																<asc_sat></asc_sat>
																<lut2></lut2>
															</colorinfo>
															<labels>
																<label2>Cerulean</label2>
															</labels>
														</clipitem>
														<enabled>TRUE</enabled>
														<locked>FALSE</locked>
														<outputchannelindex>1</outputchannelindex>
													</track>
													<track TL.SQTrackAudioKeyframeStyle="0" TL.SQTrackShy="0" TL.SQTrackExpandedHeight="85" TL.SQTrackExpanded="0" MZ.TrackTargeted="1" PannerCurrentValue="0.5" PannerIsInverted="true" PannerStartKeyframe="-91445760000000000,0.5,0,0,0,0,0,0" PannerName="Balance" currentExplodedTrackIndex="1" totalExplodedTrackCount="2" premiereTrackType="Stereo">
														<transitionitem>
															<start>0</start>
															<end>30</end>
															<pproTicksIn>0</pproTicksIn>
															<pproTicksOut>254270016000</pproTicksOut>
															<alignment>start-black</alignment>
															<cutPointTicks>0</cutPointTicks>
															<rate>
																<timebase>30</timebase>
																<ntsc>TRUE</ntsc>
															</rate>
															<effect>
																<name>Cross Fade (+3dB)</name>
																<effectid>KGAudioTransCrossFade3dB</effectid>
																<effecttype>transition</effecttype>
																<mediatype>audio</mediatype>
																<wipecode>0</wipecode>
																<wipeaccuracy>100</wipeaccuracy>
																<startratio>0</startratio>
																<endratio>1</endratio>
																<reverse>FALSE</reverse>
															</effect>
														</transitionitem>
														<clipitem id="clipitem-558" premiereChannelType="stereo">
															<masterclipid>masterclip-179</masterclipid>
															<name>(Carpetnerd)_#fyp #yuyuhakusho #anime #asmr_YW1w6rd2qhA_YT.mp4</name>
															<enabled>TRUE</enabled>
															<duration>1792</duration>
															<rate>
																<timebase>30</timebase>
																<ntsc>TRUE</ntsc>
															</rate>
															<start>-1</start>
															<end>-1</end>
															<in>263</in>
															<out>518</out>
															<pproTicksIn>2229100473600</pproTicksIn>
															<pproTicksOut>4390395609600</pproTicksOut>
															<file id="file-153"/>
															<sourcetrack>
																<mediatype>audio</mediatype>
																<trackindex>2</trackindex>
															</sourcetrack>
															<filter>
																<effect>
																	<name>Gain</name>
																	<effectid>{61756678, 4761696e, 4b657947}</effectid>
																	<effecttype>filter</effecttype>
																	<mediatype>audio</mediatype>
																	<parameter authoringApp="PremierePro">
																		<parameterid>Gain(dB)</parameterid>
																		<name>Gain(dB)</name>
																		<valuemin>-96</valuemin>
																		<valuemax>96</valuemax>
																		<value>-6</value>
																	</parameter>
																</effect>
															</filter>
															<filter>
																<effect>
																	<name>Audio Levels</name>
																	<effectid>audiolevels</effectid>
																	<effectcategory>audiolevels</effectcategory>
																	<effecttype>audiolevels</effecttype>
																	<mediatype>audio</mediatype>
																	<pproBypass>false</pproBypass>
																	<parameter authoringApp="PremierePro">
																		<parameterid>level</parameterid>
																		<name>Level</name>
																		<valuemin>0</valuemin>
																		<valuemax>3.98109</valuemax>
																		<value>0.514498</value>
																	</parameter>
																</effect>
															</filter>
															<link>
																<linkclipref>clipitem-543</linkclipref>
																<mediatype>video</mediatype>
																<trackindex>2</trackindex>
																<clipindex>1</clipindex>
															</link>
															<link>
																<linkclipref>clipitem-552</linkclipref>
																<mediatype>audio</mediatype>
																<trackindex>1</trackindex>
																<clipindex>2</clipindex>
																<groupindex>1</groupindex>
															</link>
															<link>
																<linkclipref>clipitem-558</linkclipref>
																<mediatype>audio</mediatype>
																<trackindex>2</trackindex>
																<clipindex>2</clipindex>
																<groupindex>1</groupindex>
															</link>
															<logginginfo>
																<description></description>
																<scene></scene>
																<shottake></shottake>
																<lognote>https://www.youtube.com/watch?v=YW1w6rd2qhA</lognote>
																<good></good>
																<originalvideofilename></originalvideofilename>
																<originalaudiofilename></originalaudiofilename>
															</logginginfo>
															<colorinfo>
																<lut></lut>
																<lut1></lut1>
																<asc_sop></asc_sop>
																<asc_sat></asc_sat>
																<lut2></lut2>
															</colorinfo>
															<labels>
																<label2>Violet</label2>
															</labels>
														</clipitem>
														<transitionitem>
															<start>225</start>
															<end>255</end>
															<pproTicksIn>1907025120000</pproTicksIn>
															<pproTicksOut>2161295136000</pproTicksOut>
															<alignment>center</alignment>
															<cutPointTicks>127135008000</cutPointTicks>
															<rate>
																<timebase>30</timebase>
																<ntsc>TRUE</ntsc>
															</rate>
															<effect>
																<name>Cross Fade (+3dB)</name>
																<effectid>KGAudioTransCrossFade3dB</effectid>
																<effecttype>transition</effecttype>
																<mediatype>audio</mediatype>
																<wipecode>0</wipecode>
																<wipeaccuracy>100</wipeaccuracy>
																<startratio>0</startratio>
																<endratio>1</endratio>
																<reverse>FALSE</reverse>
															</effect>
														</transitionitem>
														<clipitem id="clipitem-559" premiereChannelType="stereo">
															<masterclipid>masterclip-179</masterclipid>
															<name>(Carpetnerd)_#fyp #yuyuhakusho #anime #asmr_YW1w6rd2qhA_YT.mp4</name>
															<enabled>TRUE</enabled>
															<duration>1792</duration>
															<rate>
																<timebase>30</timebase>
																<ntsc>TRUE</ntsc>
															</rate>
															<start>-1</start>
															<end>-1</end>
															<in>1067</in>
															<out>1352</out>
															<pproTicksIn>9043536902400</pproTicksIn>
															<pproTicksOut>11459102054400</pproTicksOut>
															<file id="file-153"/>
															<sourcetrack>
																<mediatype>audio</mediatype>
																<trackindex>2</trackindex>
															</sourcetrack>
															<filter>
																<effect>
																	<name>Gain</name>
																	<effectid>{61756678, 4761696e, 4b657947}</effectid>
																	<effecttype>filter</effecttype>
																	<mediatype>audio</mediatype>
																	<parameter authoringApp="PremierePro">
																		<parameterid>Gain(dB)</parameterid>
																		<name>Gain(dB)</name>
																		<valuemin>-96</valuemin>
																		<valuemax>96</valuemax>
																		<value>-6</value>
																	</parameter>
																</effect>
															</filter>
															<link>
																<linkclipref>clipitem-544</linkclipref>
																<mediatype>video</mediatype>
																<trackindex>2</trackindex>
																<clipindex>2</clipindex>
															</link>
															<link>
																<linkclipref>clipitem-553</linkclipref>
																<mediatype>audio</mediatype>
																<trackindex>1</trackindex>
																<clipindex>4</clipindex>
																<groupindex>1</groupindex>
															</link>
															<link>
																<linkclipref>clipitem-559</linkclipref>
																<mediatype>audio</mediatype>
																<trackindex>2</trackindex>
																<clipindex>4</clipindex>
																<groupindex>1</groupindex>
															</link>
															<logginginfo>
																<description></description>
																<scene></scene>
																<shottake></shottake>
																<lognote>https://www.youtube.com/watch?v=YW1w6rd2qhA</lognote>
																<good></good>
																<originalvideofilename></originalvideofilename>
																<originalaudiofilename></originalaudiofilename>
															</logginginfo>
															<colorinfo>
																<lut></lut>
																<lut1></lut1>
																<asc_sop></asc_sop>
																<asc_sat></asc_sat>
																<lut2></lut2>
															</colorinfo>
															<labels>
																<label2>Violet</label2>
															</labels>
														</clipitem>
														<transitionitem>
															<start>480</start>
															<end>510</end>
															<pproTicksIn>4068320256000</pproTicksIn>
															<pproTicksOut>4322590272000</pproTicksOut>
															<alignment>end-black</alignment>
															<cutPointTicks>254270016000</cutPointTicks>
															<rate>
																<timebase>30</timebase>
																<ntsc>TRUE</ntsc>
															</rate>
															<effect>
																<name>Cross Fade (+3dB)</name>
																<effectid>KGAudioTransCrossFade3dB</effectid>
																<effecttype>transition</effecttype>
																<mediatype>audio</mediatype>
																<wipecode>0</wipecode>
																<wipeaccuracy>100</wipeaccuracy>
																<startratio>0</startratio>
																<endratio>1</endratio>
																<reverse>FALSE</reverse>
															</effect>
														</transitionitem>
														<transitionitem>
															<start>849</start>
															<end>879</end>
															<pproTicksIn>7195841452800</pproTicksIn>
															<pproTicksOut>7450111468800</pproTicksOut>
															<alignment>start-black</alignment>
															<cutPointTicks>0</cutPointTicks>
															<rate>
																<timebase>30</timebase>
																<ntsc>TRUE</ntsc>
															</rate>
															<effect>
																<name>Cross Fade (+3dB)</name>
																<effectid>KGAudioTransCrossFade3dB</effectid>
																<effecttype>transition</effecttype>
																<mediatype>audio</mediatype>
																<wipecode>0</wipecode>
																<wipeaccuracy>100</wipeaccuracy>
																<startratio>0</startratio>
																<endratio>1</endratio>
																<reverse>FALSE</reverse>
															</effect>
														</transitionitem>
														<clipitem id="clipitem-560" premiereChannelType="stereo">
															<masterclipid>masterclip-180</masterclipid>
															<name>(Carpetnerd)_Gengar asmr tufting vid #asmr #rug #diy #gengar #pokemon #nintendo_g_MDgEC4OPA_YT.mp4</name>
															<enabled>TRUE</enabled>
															<duration>732</duration>
															<rate>
																<timebase>30</timebase>
																<ntsc>TRUE</ntsc>
															</rate>
															<start>-1</start>
															<end>1247</end>
															<in>231</in>
															<out>629</out>
															<pproTicksIn>1957879123200</pproTicksIn>
															<pproTicksOut>5331194668800</pproTicksOut>
															<file id="file-154"/>
															<sourcetrack>
																<mediatype>audio</mediatype>
																<trackindex>2</trackindex>
															</sourcetrack>
															<filter>
																<effect>
																	<name>Gain</name>
																	<effectid>{61756678, 4761696e, 4b657947}</effectid>
																	<effecttype>filter</effecttype>
																	<mediatype>audio</mediatype>
																	<parameter authoringApp="PremierePro">
																		<parameterid>Gain(dB)</parameterid>
																		<name>Gain(dB)</name>
																		<valuemin>-96</valuemin>
																		<valuemax>96</valuemax>
																		<value>-6</value>
																	</parameter>
																</effect>
															</filter>
															<filter>
																<effect>
																	<name>Audio Levels</name>
																	<effectid>audiolevels</effectid>
																	<effectcategory>audiolevels</effectcategory>
																	<effecttype>audiolevels</effecttype>
																	<mediatype>audio</mediatype>
																	<pproBypass>false</pproBypass>
																	<parameter authoringApp="PremierePro">
																		<parameterid>level</parameterid>
																		<name>Level</name>
																		<valuemin>0</valuemin>
																		<valuemax>3.98109</valuemax>
																		<value>0.313918</value>
																	</parameter>
																</effect>
															</filter>
															<link>
																<linkclipref>clipitem-546</linkclipref>
																<mediatype>video</mediatype>
																<trackindex>2</trackindex>
																<clipindex>4</clipindex>
															</link>
															<link>
																<linkclipref>clipitem-554</linkclipref>
																<mediatype>audio</mediatype>
																<trackindex>1</trackindex>
																<clipindex>7</clipindex>
																<groupindex>1</groupindex>
															</link>
															<link>
																<linkclipref>clipitem-560</linkclipref>
																<mediatype>audio</mediatype>
																<trackindex>2</trackindex>
																<clipindex>7</clipindex>
																<groupindex>1</groupindex>
															</link>
															<logginginfo>
																<description></description>
																<scene></scene>
																<shottake></shottake>
																<lognote></lognote>
																<good></good>
																<originalvideofilename></originalvideofilename>
																<originalaudiofilename></originalaudiofilename>
															</logginginfo>
															<colorinfo>
																<lut></lut>
																<lut1></lut1>
																<asc_sop></asc_sop>
																<asc_sat></asc_sat>
																<lut2></lut2>
															</colorinfo>
															<labels>
																<label2>Iris</label2>
															</labels>
														</clipitem>
														<transitionitem>
															<start>1247</start>
															<end>1277</end>
															<pproTicksIn>10569156998400</pproTicksIn>
															<pproTicksOut>10823427014400</pproTicksOut>
															<alignment>start-black</alignment>
															<cutPointTicks>0</cutPointTicks>
															<rate>
																<timebase>30</timebase>
																<ntsc>TRUE</ntsc>
															</rate>
															<effect>
																<name>Cross Fade (+3dB)</name>
																<effectid>KGAudioTransCrossFade3dB</effectid>
																<effecttype>transition</effecttype>
																<mediatype>audio</mediatype>
																<wipecode>0</wipecode>
																<wipeaccuracy>100</wipeaccuracy>
																<startratio>0</startratio>
																<endratio>1</endratio>
																<reverse>FALSE</reverse>
															</effect>
														</transitionitem>
														<clipitem id="clipitem-561" premiereChannelType="stereo">
															<masterclipid>masterclip-181</masterclipid>
															<name>(Carpetnerd)_#gengar #pokemon #nintendo #rug #craft #diy #anime #pokemongo_Nj39PfEE2uU_YT.mp4</name>
															<enabled>TRUE</enabled>
															<duration>1671</duration>
															<rate>
																<timebase>30</timebase>
																<ntsc>TRUE</ntsc>
															</rate>
															<start>-1</start>
															<end>-1</end>
															<in>177</in>
															<out>706</out>
															<pproTicksIn>1500193094400</pproTicksIn>
															<pproTicksOut>5983821043200</pproTicksOut>
															<file id="file-155"/>
															<sourcetrack>
																<mediatype>audio</mediatype>
																<trackindex>2</trackindex>
															</sourcetrack>
															<filter>
																<effect>
																	<name>Gain</name>
																	<effectid>{61756678, 4761696e, 4b657947}</effectid>
																	<effecttype>filter</effecttype>
																	<mediatype>audio</mediatype>
																	<parameter authoringApp="PremierePro">
																		<parameterid>Gain(dB)</parameterid>
																		<name>Gain(dB)</name>
																		<valuemin>-96</valuemin>
																		<valuemax>96</valuemax>
																		<value>-6</value>
																	</parameter>
																</effect>
															</filter>
															<filter>
																<effect>
																	<name>Audio Levels</name>
																	<effectid>audiolevels</effectid>
																	<effectcategory>audiolevels</effectcategory>
																	<effecttype>audiolevels</effecttype>
																	<mediatype>audio</mediatype>
																	<pproBypass>false</pproBypass>
																	<parameter authoringApp="PremierePro">
																		<parameterid>level</parameterid>
																		<name>Level</name>
																		<valuemin>0</valuemin>
																		<valuemax>3.98109</valuemax>
																		<value>0.829053</value>
																	</parameter>
																</effect>
															</filter>
															<link>
																<linkclipref>clipitem-547</linkclipref>
																<mediatype>video</mediatype>
																<trackindex>2</trackindex>
																<clipindex>5</clipindex>
															</link>
															<link>
																<linkclipref>clipitem-555</linkclipref>
																<mediatype>audio</mediatype>
																<trackindex>1</trackindex>
																<clipindex>9</clipindex>
																<groupindex>1</groupindex>
															</link>
															<link>
																<linkclipref>clipitem-561</linkclipref>
																<mediatype>audio</mediatype>
																<trackindex>2</trackindex>
																<clipindex>9</clipindex>
																<groupindex>1</groupindex>
															</link>
															<logginginfo>
																<description></description>
																<scene></scene>
																<shottake></shottake>
																<lognote></lognote>
																<good></good>
																<originalvideofilename></originalvideofilename>
																<originalaudiofilename></originalaudiofilename>
															</logginginfo>
															<colorinfo>
																<lut></lut>
																<lut1></lut1>
																<asc_sop></asc_sop>
																<asc_sat></asc_sat>
																<lut2></lut2>
															</colorinfo>
															<labels>
																<label2>Iris</label2>
															</labels>
														</clipitem>
														<transitionitem>
															<start>1746</start>
															<end>1776</end>
															<pproTicksIn>14798514931200</pproTicksIn>
															<pproTicksOut>15052784947200</pproTicksOut>
															<alignment>end-black</alignment>
															<cutPointTicks>254270016000</cutPointTicks>
															<rate>
																<timebase>30</timebase>
																<ntsc>TRUE</ntsc>
															</rate>
															<effect>
																<name>Cross Fade (+3dB)</name>
																<effectid>KGAudioTransCrossFade3dB</effectid>
																<effecttype>transition</effecttype>
																<mediatype>audio</mediatype>
																<wipecode>0</wipecode>
																<wipeaccuracy>100</wipeaccuracy>
																<startratio>0</startratio>
																<endratio>1</endratio>
																<reverse>FALSE</reverse>
															</effect>
														</transitionitem>
														<transitionitem>
															<start>2043</start>
															<end>2073</end>
															<pproTicksIn>17315788089600</pproTicksIn>
															<pproTicksOut>17570058105600</pproTicksOut>
															<alignment>start-black</alignment>
															<cutPointTicks>0</cutPointTicks>
															<rate>
																<timebase>30</timebase>
																<ntsc>TRUE</ntsc>
															</rate>
															<effect>
																<name>Cross Fade (+3dB)</name>
																<effectid>KGAudioTransCrossFade3dB</effectid>
																<effecttype>transition</effecttype>
																<mediatype>audio</mediatype>
																<wipecode>0</wipecode>
																<wipeaccuracy>100</wipeaccuracy>
																<startratio>0</startratio>
																<endratio>1</endratio>
																<reverse>FALSE</reverse>
															</effect>
														</transitionitem>
														<clipitem id="clipitem-562" premiereChannelType="stereo">
															<masterclipid>masterclip-182</masterclipid>
															<name>(Carpetnerd)_#fyp #asmr #rug #diy #anime #dragonballsuper #ultrainstinct #goku_QSkIAqy9opg_YT.mp4</name>
															<enabled>TRUE</enabled>
															<duration>1344</duration>
															<rate>
																<timebase>30</timebase>
																<ntsc>TRUE</ntsc>
															</rate>
															<start>-1</start>
															<end>-1</end>
															<in>94</in>
															<out>1045</out>
															<pproTicksIn>796712716800</pproTicksIn>
															<pproTicksOut>8857072224000</pproTicksOut>
															<file id="file-156"/>
															<sourcetrack>
																<mediatype>audio</mediatype>
																<trackindex>2</trackindex>
															</sourcetrack>
															<filter>
																<effect>
																	<name>Gain</name>
																	<effectid>{61756678, 4761696e, 4b657947}</effectid>
																	<effecttype>filter</effecttype>
																	<mediatype>audio</mediatype>
																	<parameter authoringApp="PremierePro">
																		<parameterid>Gain(dB)</parameterid>
																		<name>Gain(dB)</name>
																		<valuemin>-96</valuemin>
																		<valuemax>96</valuemax>
																		<value>-6</value>
																	</parameter>
																</effect>
															</filter>
															<filter>
																<effect>
																	<name>Audio Levels</name>
																	<effectid>audiolevels</effectid>
																	<effectcategory>audiolevels</effectcategory>
																	<effecttype>audiolevels</effecttype>
																	<mediatype>audio</mediatype>
																	<pproBypass>false</pproBypass>
																	<parameter authoringApp="PremierePro">
																		<parameterid>level</parameterid>
																		<name>Level</name>
																		<valuemin>0</valuemin>
																		<valuemax>3.98109</valuemax>
																		<value>1</value>
																		<keyframe>
																			<when>414</when>
																			<value>0.280257</value>
																		</keyframe>
																		<keyframe>
																			<when>464</when>
																			<value>1</value>
																		</keyframe>
																	</parameter>
																</effect>
															</filter>
															<link>
																<linkclipref>clipitem-549</linkclipref>
																<mediatype>video</mediatype>
																<trackindex>2</trackindex>
																<clipindex>7</clipindex>
															</link>
															<link>
																<linkclipref>clipitem-556</linkclipref>
																<mediatype>audio</mediatype>
																<trackindex>1</trackindex>
																<clipindex>12</clipindex>
																<groupindex>1</groupindex>
															</link>
															<link>
																<linkclipref>clipitem-562</linkclipref>
																<mediatype>audio</mediatype>
																<trackindex>2</trackindex>
																<clipindex>12</clipindex>
																<groupindex>1</groupindex>
															</link>
															<logginginfo>
																<description></description>
																<scene></scene>
																<shottake></shottake>
																<lognote>https://www.youtube.com/watch?v=QSkIAqy9opg</lognote>
																<good></good>
																<originalvideofilename></originalvideofilename>
																<originalaudiofilename></originalaudiofilename>
															</logginginfo>
															<colorinfo>
																<lut></lut>
																<lut1></lut1>
																<asc_sop></asc_sop>
																<asc_sat></asc_sat>
																<lut2></lut2>
															</colorinfo>
															<labels>
																<label2>Cerulean</label2>
															</labels>
														</clipitem>
														<transitionitem>
															<start>2964</start>
															<end>2994</end>
															<pproTicksIn>25121877580800</pproTicksIn>
															<pproTicksOut>25376147596800</pproTicksOut>
															<alignment>center</alignment>
															<cutPointTicks>127135008000</cutPointTicks>
															<rate>
																<timebase>30</timebase>
																<ntsc>TRUE</ntsc>
															</rate>
															<effect>
																<name>Cross Fade (+3dB)</name>
																<effectid>KGAudioTransCrossFade3dB</effectid>
																<effecttype>transition</effecttype>
																<mediatype>audio</mediatype>
																<wipecode>0</wipecode>
																<wipeaccuracy>100</wipeaccuracy>
																<startratio>0</startratio>
																<endratio>1</endratio>
																<reverse>FALSE</reverse>
															</effect>
														</transitionitem>
														<clipitem id="clipitem-563" premiereChannelType="stereo">
															<masterclipid>masterclip-182</masterclipid>
															<name>(Carpetnerd)_#fyp #asmr #rug #diy #anime #dragonballsuper #ultrainstinct #goku_QSkIAqy9opg_YT.mp4</name>
															<enabled>TRUE</enabled>
															<duration>1344</duration>
															<rate>
																<timebase>30</timebase>
																<ntsc>TRUE</ntsc>
															</rate>
															<start>-1</start>
															<end>3164</end>
															<in>1041</in>
															<out>1241</out>
															<pproTicksIn>8823169555200</pproTicksIn>
															<pproTicksOut>10518302995200</pproTicksOut>
															<file id="file-156"/>
															<sourcetrack>
																<mediatype>audio</mediatype>
																<trackindex>2</trackindex>
															</sourcetrack>
															<filter>
																<effect>
																	<name>Gain</name>
																	<effectid>{61756678, 4761696e, 4b657947}</effectid>
																	<effecttype>filter</effecttype>
																	<mediatype>audio</mediatype>
																	<parameter authoringApp="PremierePro">
																		<parameterid>Gain(dB)</parameterid>
																		<name>Gain(dB)</name>
																		<valuemin>-96</valuemin>
																		<valuemax>96</valuemax>
																		<value>-6</value>
																	</parameter>
																</effect>
															</filter>
															<link>
																<linkclipref>clipitem-550</linkclipref>
																<mediatype>video</mediatype>
																<trackindex>2</trackindex>
																<clipindex>8</clipindex>
															</link>
															<link>
																<linkclipref>clipitem-557</linkclipref>
																<mediatype>audio</mediatype>
																<trackindex>1</trackindex>
																<clipindex>14</clipindex>
																<groupindex>1</groupindex>
															</link>
															<link>
																<linkclipref>clipitem-563</linkclipref>
																<mediatype>audio</mediatype>
																<trackindex>2</trackindex>
																<clipindex>14</clipindex>
																<groupindex>1</groupindex>
															</link>
															<logginginfo>
																<description></description>
																<scene></scene>
																<shottake></shottake>
																<lognote>https://www.youtube.com/watch?v=QSkIAqy9opg</lognote>
																<good></good>
																<originalvideofilename></originalvideofilename>
																<originalaudiofilename></originalaudiofilename>
															</logginginfo>
															<colorinfo>
																<lut></lut>
																<lut1></lut1>
																<asc_sop></asc_sop>
																<asc_sat></asc_sat>
																<lut2></lut2>
															</colorinfo>
															<labels>
																<label2>Cerulean</label2>
															</labels>
														</clipitem>
														<enabled>TRUE</enabled>
														<locked>FALSE</locked>
														<outputchannelindex>2</outputchannelindex>
													</track>
													<track TL.SQTrackAudioKeyframeStyle="0" TL.SQTrackShy="0" TL.SQTrackExpandedHeight="85" TL.SQTrackExpanded="0" MZ.TrackTargeted="0" PannerCurrentValue="0.5" PannerIsInverted="true" PannerStartKeyframe="-91445760000000000,0.5,0,0,0,0,0,0" PannerName="Balance" currentExplodedTrackIndex="0" totalExplodedTrackCount="2" premiereTrackType="Stereo">
														<clipitem id="clipitem-564" premiereChannelType="stereo">
															<masterclipid>masterclip-184</masterclipid>
															<name>ES_Slipping Away - Guustavv.wav</name>
															<enabled>TRUE</enabled>
															<duration>5214</duration>
															<rate>
																<timebase>30</timebase>
																<ntsc>TRUE</ntsc>
															</rate>
															<start>0</start>
															<end>-1</end>
															<in>0</in>
															<out>3164</out>
															<pproTicksIn>0</pproTicksIn>
															<pproTicksOut>26817011020800</pproTicksOut>
															<file id="file-158">
																<name>ES_Slipping Away - Guustavv.wav</name>
																<pathurl>file://localhost/Volumes/ATM%20JR%202TB/Crafty/2023/06_June/Crafty_6-19-23/5_Music/ES_Slipping%20Away%20-%20Guustavv.wav</pathurl>
																<rate>
																	<timebase>30</timebase>
																	<ntsc>TRUE</ntsc>
																</rate>
																<duration>5214</duration>
																<timecode>
																	<rate>
																		<timebase>30</timebase>
																		<ntsc>TRUE</ntsc>
																	</rate>
																	<string>02;07;16;01</string>
																	<frame>228851</frame>
																	<displayformat>DF</displayformat>
																</timecode>
																<media>
																	<audio>
																		<samplecharacteristics>
																			<depth>16</depth>
																			<samplerate>48000</samplerate>
																		</samplecharacteristics>
																		<channelcount>2</channelcount>
																	</audio>
																</media>
															</file>
															<sourcetrack>
																<mediatype>audio</mediatype>
																<trackindex>1</trackindex>
															</sourcetrack>
															<filter>
																<effect>
																	<name>Gain</name>
																	<effectid>{61756678, 4761696e, 4b657947}</effectid>
																	<effecttype>filter</effecttype>
																	<mediatype>audio</mediatype>
																	<parameter authoringApp="PremierePro">
																		<parameterid>Gain(dB)</parameterid>
																		<name>Gain(dB)</name>
																		<valuemin>-96</valuemin>
																		<valuemax>96</valuemax>
																		<value>-8</value>
																	</parameter>
																</effect>
															</filter>
															<filter>
																<effect>
																	<name>Audio Levels</name>
																	<effectid>audiolevels</effectid>
																	<effectcategory>audiolevels</effectcategory>
																	<effecttype>audiolevels</effecttype>
																	<mediatype>audio</mediatype>
																	<pproBypass>false</pproBypass>
																	<parameter authoringApp="PremierePro">
																		<parameterid>level</parameterid>
																		<name>Level</name>
																		<valuemin>0</valuemin>
																		<valuemax>3.98109</valuemax>
																		<value>0.561226</value>
																		<keyframe>
																			<when>451</when>
																			<value>0.561226</value>
																		</keyframe>
																		<keyframe>
																			<when>497</when>
																			<value>0.952486</value>
																		</keyframe>
																		<keyframe>
																			<when>830</when>
																			<value>0.952486</value>
																		</keyframe>
																		<keyframe>
																			<when>914</when>
																			<value>0.561226</value>
																		</keyframe>
																		<keyframe>
																			<when>1754</when>
																			<value>0.561226</value>
																		</keyframe>
																		<keyframe>
																			<when>1781</when>
																			<value>0.831714</value>
																		</keyframe>
																		<keyframe>
																			<when>2028</when>
																			<value>0.831714</value>
																		</keyframe>
																		<keyframe>
																			<when>2059</when>
																			<value>0.561226</value>
																		</keyframe>
																	</parameter>
																</effect>
															</filter>
															<link>
																<linkclipref>clipitem-564</linkclipref>
																<mediatype>audio</mediatype>
																<trackindex>3</trackindex>
																<clipindex>1</clipindex>
																<groupindex>1</groupindex>
															</link>
															<link>
																<linkclipref>clipitem-565</linkclipref>
																<mediatype>audio</mediatype>
																<trackindex>4</trackindex>
																<clipindex>1</clipindex>
																<groupindex>1</groupindex>
															</link>
															<logginginfo>
																<description></description>
																<scene></scene>
																<shottake></shottake>
																<lognote></lognote>
																<good></good>
																<originalvideofilename></originalvideofilename>
																<originalaudiofilename></originalaudiofilename>
															</logginginfo>
															<colorinfo>
																<lut></lut>
																<lut1></lut1>
																<asc_sop></asc_sop>
																<asc_sat></asc_sat>
																<lut2></lut2>
															</colorinfo>
															<labels>
																<label2>Caribbean</label2>
															</labels>
														</clipitem>
														<transitionitem>
															<start>3044</start>
															<end>3164</end>
															<pproTicksIn>25799930956800</pproTicksIn>
															<pproTicksOut>26817011020800</pproTicksOut>
															<alignment>end-black</alignment>
															<cutPointTicks>1017080064000</cutPointTicks>
															<rate>
																<timebase>30</timebase>
																<ntsc>TRUE</ntsc>
															</rate>
															<effect>
																<name>Cross Fade (+3dB)</name>
																<effectid>KGAudioTransCrossFade3dB</effectid>
																<effecttype>transition</effecttype>
																<mediatype>audio</mediatype>
																<wipecode>0</wipecode>
																<wipeaccuracy>100</wipeaccuracy>
																<startratio>0</startratio>
																<endratio>1</endratio>
																<reverse>FALSE</reverse>
															</effect>
														</transitionitem>
														<enabled>TRUE</enabled>
														<locked>FALSE</locked>
														<outputchannelindex>1</outputchannelindex>
													</track>
													<track TL.SQTrackAudioKeyframeStyle="0" TL.SQTrackShy="0" TL.SQTrackExpandedHeight="85" TL.SQTrackExpanded="0" MZ.TrackTargeted="0" PannerCurrentValue="0.5" PannerIsInverted="true" PannerStartKeyframe="-91445760000000000,0.5,0,0,0,0,0,0" PannerName="Balance" currentExplodedTrackIndex="1" totalExplodedTrackCount="2" premiereTrackType="Stereo">
														<clipitem id="clipitem-565" premiereChannelType="stereo">
															<masterclipid>masterclip-184</masterclipid>
															<name>ES_Slipping Away - Guustavv.wav</name>
															<enabled>TRUE</enabled>
															<duration>5214</duration>
															<rate>
																<timebase>30</timebase>
																<ntsc>TRUE</ntsc>
															</rate>
															<start>0</start>
															<end>-1</end>
															<in>0</in>
															<out>3164</out>
															<pproTicksIn>0</pproTicksIn>
															<pproTicksOut>26817011020800</pproTicksOut>
															<file id="file-158"/>
															<sourcetrack>
																<mediatype>audio</mediatype>
																<trackindex>2</trackindex>
															</sourcetrack>
															<filter>
																<effect>
																	<name>Gain</name>
																	<effectid>{61756678, 4761696e, 4b657947}</effectid>
																	<effecttype>filter</effecttype>
																	<mediatype>audio</mediatype>
																	<parameter authoringApp="PremierePro">
																		<parameterid>Gain(dB)</parameterid>
																		<name>Gain(dB)</name>
																		<valuemin>-96</valuemin>
																		<valuemax>96</valuemax>
																		<value>-8</value>
																	</parameter>
																</effect>
															</filter>
															<filter>
																<effect>
																	<name>Audio Levels</name>
																	<effectid>audiolevels</effectid>
																	<effectcategory>audiolevels</effectcategory>
																	<effecttype>audiolevels</effecttype>
																	<mediatype>audio</mediatype>
																	<pproBypass>false</pproBypass>
																	<parameter authoringApp="PremierePro">
																		<parameterid>level</parameterid>
																		<name>Level</name>
																		<valuemin>0</valuemin>
																		<valuemax>3.98109</valuemax>
																		<value>0.561226</value>
																		<keyframe>
																			<when>451</when>
																			<value>0.561226</value>
																		</keyframe>
																		<keyframe>
																			<when>497</when>
																			<value>0.952486</value>
																		</keyframe>
																		<keyframe>
																			<when>830</when>
																			<value>0.952486</value>
																		</keyframe>
																		<keyframe>
																			<when>914</when>
																			<value>0.561226</value>
																		</keyframe>
																		<keyframe>
																			<when>1754</when>
																			<value>0.561226</value>
																		</keyframe>
																		<keyframe>
																			<when>1781</when>
																			<value>0.831714</value>
																		</keyframe>
																		<keyframe>
																			<when>2028</when>
																			<value>0.831714</value>
																		</keyframe>
																		<keyframe>
																			<when>2059</when>
																			<value>0.561226</value>
																		</keyframe>
																	</parameter>
																</effect>
															</filter>
															<link>
																<linkclipref>clipitem-564</linkclipref>
																<mediatype>audio</mediatype>
																<trackindex>3</trackindex>
																<clipindex>1</clipindex>
																<groupindex>1</groupindex>
															</link>
															<link>
																<linkclipref>clipitem-565</linkclipref>
																<mediatype>audio</mediatype>
																<trackindex>4</trackindex>
																<clipindex>1</clipindex>
																<groupindex>1</groupindex>
															</link>
															<logginginfo>
																<description></description>
																<scene></scene>
																<shottake></shottake>
																<lognote></lognote>
																<good></good>
																<originalvideofilename></originalvideofilename>
																<originalaudiofilename></originalaudiofilename>
															</logginginfo>
															<colorinfo>
																<lut></lut>
																<lut1></lut1>
																<asc_sop></asc_sop>
																<asc_sat></asc_sat>
																<lut2></lut2>
															</colorinfo>
															<labels>
																<label2>Caribbean</label2>
															</labels>
														</clipitem>
														<transitionitem>
															<start>3044</start>
															<end>3164</end>
															<pproTicksIn>25799930956800</pproTicksIn>
															<pproTicksOut>26817011020800</pproTicksOut>
															<alignment>end-black</alignment>
															<cutPointTicks>1017080064000</cutPointTicks>
															<rate>
																<timebase>30</timebase>
																<ntsc>TRUE</ntsc>
															</rate>
															<effect>
																<name>Cross Fade (+3dB)</name>
																<effectid>KGAudioTransCrossFade3dB</effectid>
																<effecttype>transition</effecttype>
																<mediatype>audio</mediatype>
																<wipecode>0</wipecode>
																<wipeaccuracy>100</wipeaccuracy>
																<startratio>0</startratio>
																<endratio>1</endratio>
																<reverse>FALSE</reverse>
															</effect>
														</transitionitem>
														<enabled>TRUE</enabled>
														<locked>FALSE</locked>
														<outputchannelindex>2</outputchannelindex>
													</track>
												</audio>
											</media>
											<timecode>
												<rate>
													<timebase>30</timebase>
													<ntsc>TRUE</ntsc>
												</rate>
												<string>00;00;00;00</string>
												<frame>0</frame>
												<displayformat>DF</displayformat>
											</timecode>
											<logginginfo>
												<description></description>
												<scene></scene>
												<shottake></shottake>
												<lognote></lognote>
												<good></good>
												<originalvideofilename></originalvideofilename>
												<originalaudiofilename></originalaudiofilename>
											</logginginfo>
											<filter>
												<effect>
													<name>Audio Levels</name>
													<effectid>audiolevels</effectid>
													<effectcategory>audiolevels</effectcategory>
													<effecttype>audiolevels</effecttype>
													<mediatype>audio</mediatype>
													<parameter authoringApp="PremierePro">
														<parameterid>level</parameterid>
														<name>Level</name>
														<valuemin>0</valuemin>
														<valuemax>3.98109</valuemax>
														<value>1.65556</value>
													</parameter>
												</effect>
											</filter>
										</sequence>
										<link>
											<linkclipref>clipitem-534</linkclipref>
											<mediatype>video</mediatype>
											<trackindex>1</trackindex>
											<clipindex>1</clipindex>
										</link>
										<link>
											<linkclipref>clipitem-587</linkclipref>
											<mediatype>audio</mediatype>
											<trackindex>1</trackindex>
											<clipindex>1</clipindex>
											<groupindex>1</groupindex>
										</link>
										<link>
											<linkclipref>clipitem-589</linkclipref>
											<mediatype>audio</mediatype>
											<trackindex>2</trackindex>
											<clipindex>1</clipindex>
											<groupindex>1</groupindex>
										</link>
										<labels>
											<label2>Forest</label2>
										</labels>
									</clipitem>
									<clipitem id="clipitem-566">
										<masterclipid>masterclip-185</masterclipid>
										<name>DIY_LIVEORDIY_1</name>
										<enabled>TRUE</enabled>
										<duration>2432</duration>
										<rate>
											<timebase>30</timebase>
											<ntsc>TRUE</ntsc>
										</rate>
										<start>3202</start>
										<end>5549</end>
										<in>0</in>
										<out>2347</out>
										<pproTicksIn>0</pproTicksIn>
										<pproTicksOut>19892390918400</pproTicksOut>
										<sequence id="sequence-40" TL.SQAudioVisibleBase="0" TL.SQVideoVisibleBase="0" TL.SQVisibleBaseTime="12341609403323" TL.SQAVDividerPosition="0.5" TL.SQHideShyTracks="0" TL.SQHeaderWidth="236" Monitor.ProgramZoomOut="19892390918400" Monitor.ProgramZoomIn="0" TL.SQTimePerPixel="0.080776874156036127" MZ.EditLine="432259027200" MZ.Sequence.PreviewFrameSizeHeight="1080" MZ.Sequence.PreviewFrameSizeWidth="1920" MZ.Sequence.AudioTimeDisplayFormat="200" MZ.Sequence.PreviewRenderingClassID="1061109567" MZ.Sequence.PreviewRenderingPresetCodec="1634755443" MZ.Sequence.PreviewRenderingPresetPath="EncoderPresets/SequencePreview/35d109db-457b-43c1-9452-9cb7be9f121c/QuickTime.epr" MZ.Sequence.PreviewUseMaxRenderQuality="false" MZ.Sequence.PreviewUseMaxBitDepth="false" MZ.Sequence.EditingModeGUID="35d109db-457b-43c1-9452-9cb7be9f121c" MZ.Sequence.VideoTimeDisplayFormat="102" MZ.WorkOutPoint="20612822630400" MZ.WorkInPoint="0">
											<duration>2347</duration>
											<rate>
												<timebase>30</timebase>
												<ntsc>TRUE</ntsc>
											</rate>
											<name>DIY_LIVEORDIY_1</name>
											<media>
												<video>
													<format>
														<samplecharacteristics>
															<rate>
																<timebase>30</timebase>
																<ntsc>TRUE</ntsc>
															</rate>
															<codec>
																<name>Apple ProRes 422</name>
																<appspecificdata>
																	<appname>Final Cut Pro</appname>
																	<appmanufacturer>Apple Inc.</appmanufacturer>
																	<appversion>7.0</appversion>
																	<data>
																		<qtcodec>
																			<codecname>Apple ProRes 422</codecname>
																			<codectypename>Apple ProRes 422</codectypename>
																			<codectypecode>apcn</codectypecode>
																			<codecvendorcode>appl</codecvendorcode>
																			<spatialquality>1024</spatialquality>
																			<temporalquality>0</temporalquality>
																			<keyframerate>0</keyframerate>
																			<datarate>0</datarate>
																		</qtcodec>
																	</data>
																</appspecificdata>
															</codec>
															<width>1920</width>
															<height>1080</height>
															<anamorphic>FALSE</anamorphic>
															<pixelaspectratio>square</pixelaspectratio>
															<fielddominance>none</fielddominance>
															<colordepth>24</colordepth>
														</samplecharacteristics>
													</format>
													<track TL.SQTrackShy="0" TL.SQTrackExpandedHeight="25" TL.SQTrackExpanded="0" MZ.TrackTargeted="1">
														<clipitem id="clipitem-567">
															<masterclipid>masterclip-186</masterclipid>
															<name>(Living to DIY with Rachel Metz)_DIY STUDIO BEDROOM MAKEOVER + EASY DIY WALL DECOR_WcyiwkUXOt8_YT.mp4</name>
															<enabled>TRUE</enabled>
															<duration>21990</duration>
															<rate>
																<timebase>30</timebase>
																<ntsc>TRUE</ntsc>
															</rate>
															<start>0</start>
															<end>155</end>
															<in>6336</in>
															<out>6490</out>
															<pproTicksIn>86097021173536</pproTicksIn>
															<pproTicksOut>88203304056469</pproTicksOut>
															<alphatype>none</alphatype>
															<pixelaspectratio>square</pixelaspectratio>
															<anamorphic>FALSE</anamorphic>
															<file id="file-159">
																<name>(Living to DIY with Rachel Metz)_DIY STUDIO BEDROOM MAKEOVER + EASY DIY WALL DECOR_WcyiwkUXOt8_YT.mp4</name>
																<pathurl>file://localhost/Volumes/ATM%20JR%202TB/Crafty/2023/06_June/Crafty_6-19-23/3_Raw%20Footage/wall%20decor/(Living%20to%20DIY%20with%20Rachel%20Metz)_DIY%20STUDIO%20BEDROOM%20MAKEOVER%20+%20EASY%20DIY%20WALL%20DECOR_WcyiwkUXOt8_YT.mp4</pathurl>
																<rate>
																	<timebase>24</timebase>
																	<ntsc>TRUE</ntsc>
																</rate>
																<duration>28206</duration>
																<timecode>
																	<rate>
																		<timebase>24</timebase>
																		<ntsc>TRUE</ntsc>
																	</rate>
																	<string>00:00:00:00</string>
																	<frame>0</frame>
																	<displayformat>NDF</displayformat>
																</timecode>
																<media>
																	<video>
																		<samplecharacteristics>
																			<rate>
																				<timebase>24</timebase>
																				<ntsc>TRUE</ntsc>
																			</rate>
																			<width>1920</width>
																			<height>1080</height>
																			<anamorphic>FALSE</anamorphic>
																			<pixelaspectratio>square</pixelaspectratio>
																			<fielddominance>none</fielddominance>
																		</samplecharacteristics>
																	</video>
																	<audio>
																		<samplecharacteristics>
																			<depth>16</depth>
																			<samplerate>44100</samplerate>
																		</samplecharacteristics>
																		<channelcount>2</channelcount>
																	</audio>
																</media>
															</file>
															<filter>
																<effect>
																	<name>Time Remap</name>
																	<effectid>timeremap</effectid>
																	<effectcategory>motion</effectcategory>
																	<effecttype>motion</effecttype>
																	<mediatype>video</mediatype>
																	<parameter authoringApp="PremierePro">
																		<parameterid>variablespeed</parameterid>
																		<name>variablespeed</name>
																		<valuemin>0</valuemin>
																		<valuemax>1</valuemax>
																		<value>0</value>
																	</parameter>
																	<parameter authoringApp="PremierePro">
																		<parameterid>speed</parameterid>
																		<name>speed</name>
																		<valuemin>-100000</valuemin>
																		<valuemax>100000</valuemax>
																		<value>160.329</value>
																	</parameter>
																	<parameter authoringApp="PremierePro">
																		<parameterid>reverse</parameterid>
																		<name>reverse</name>
																		<value>FALSE</value>
																	</parameter>
																	<parameter authoringApp="PremierePro">
																		<parameterid>frameblending</parameterid>
																		<name>frameblending</name>
																		<value>FALSE</value>
																	</parameter>
																	<parameter authoringApp="PremierePro">
																		<parameterid>graphdict</parameterid>
																		<name>graphdict</name>
																		<valuemin>0</valuemin>
																		<valuemax>35256</valuemax>
																		<value>0</value>
																		<keyframe>
																			<when>0</when>
																			<value>0</value>
																			<speedvirtualkf>TRUE</speedvirtualkf>
																			<speedkfstart>TRUE</speedkfstart>
																		</keyframe>
																		<keyframe>
																			<when>6336</when>
																			<value>10158</value>
																			<speedvirtualkf>TRUE</speedvirtualkf>
																			<speedkfin>TRUE</speedkfin>
																		</keyframe>
																		<keyframe>
																			<when>6490</when>
																			<value>10405</value>
																			<speedvirtualkf>TRUE</speedvirtualkf>
																			<speedkfout>TRUE</speedkfout>
																		</keyframe>
																		<keyframe>
																			<when>21990</when>
																			<value>35256</value>
																			<speedvirtualkf>TRUE</speedvirtualkf>
																			<speedkfend>TRUE</speedkfend>
																		</keyframe>
																		<interpolation>
																			<name>FCPCurve</name>
																		</interpolation>
																	</parameter>
																</effect>
															</filter>
															<logginginfo>
																<description></description>
																<scene></scene>
																<shottake></shottake>
																<lognote>https://www.youtube.com/watch?v=WcyiwkUXOt8</lognote>
																<good></good>
																<originalvideofilename></originalvideofilename>
																<originalaudiofilename></originalaudiofilename>
															</logginginfo>
															<colorinfo>
																<lut></lut>
																<lut1></lut1>
																<asc_sop></asc_sop>
																<asc_sat></asc_sat>
																<lut2></lut2>
															</colorinfo>
															<labels>
																<label2>Iris</label2>
															</labels>
														</clipitem>
														<clipitem id="clipitem-568">
															<masterclipid>masterclip-186</masterclipid>
															<name>(Living to DIY with Rachel Metz)_DIY STUDIO BEDROOM MAKEOVER + EASY DIY WALL DECOR_WcyiwkUXOt8_YT.mp4</name>
															<enabled>TRUE</enabled>
															<duration>21990</duration>
															<rate>
																<timebase>30</timebase>
																<ntsc>TRUE</ntsc>
															</rate>
															<start>155</start>
															<end>311</end>
															<in>6576</in>
															<out>6731</out>
															<pproTicksIn>89358362411618</pproTicksIn>
															<pproTicksOut>91478234216380</pproTicksOut>
															<alphatype>none</alphatype>
															<file id="file-159"/>
															<filter>
																<effect>
																	<name>Time Remap</name>
																	<effectid>timeremap</effectid>
																	<effectcategory>motion</effectcategory>
																	<effecttype>motion</effecttype>
																	<mediatype>video</mediatype>
																	<parameter authoringApp="PremierePro">
																		<parameterid>variablespeed</parameterid>
																		<name>variablespeed</name>
																		<valuemin>0</valuemin>
																		<valuemax>1</valuemax>
																		<value>0</value>
																	</parameter>
																	<parameter authoringApp="PremierePro">
																		<parameterid>speed</parameterid>
																		<name>speed</name>
																		<valuemin>-100000</valuemin>
																		<valuemax>100000</valuemax>
																		<value>160.329</value>
																	</parameter>
																	<parameter authoringApp="PremierePro">
																		<parameterid>reverse</parameterid>
																		<name>reverse</name>
																		<value>FALSE</value>
																	</parameter>
																	<parameter authoringApp="PremierePro">
																		<parameterid>frameblending</parameterid>
																		<name>frameblending</name>
																		<value>FALSE</value>
																	</parameter>
																	<parameter authoringApp="PremierePro">
																		<parameterid>graphdict</parameterid>
																		<name>graphdict</name>
																		<valuemin>0</valuemin>
																		<valuemax>35256</valuemax>
																		<value>0</value>
																		<keyframe>
																			<when>0</when>
																			<value>0</value>
																			<speedvirtualkf>TRUE</speedvirtualkf>
																			<speedkfstart>TRUE</speedkfstart>
																		</keyframe>
																		<keyframe>
																			<when>6576</when>
																			<value>10543</value>
																			<speedvirtualkf>TRUE</speedvirtualkf>
																			<speedkfin>TRUE</speedkfin>
																		</keyframe>
																		<keyframe>
																			<when>6731</when>
																			<value>10791</value>
																			<speedvirtualkf>TRUE</speedvirtualkf>
																			<speedkfout>TRUE</speedkfout>
																		</keyframe>
																		<keyframe>
																			<when>21990</when>
																			<value>35256</value>
																			<speedvirtualkf>TRUE</speedvirtualkf>
																			<speedkfend>TRUE</speedkfend>
																		</keyframe>
																		<interpolation>
																			<name>FCPCurve</name>
																		</interpolation>
																	</parameter>
																</effect>
															</filter>
															<logginginfo>
																<description></description>
																<scene></scene>
																<shottake></shottake>
																<lognote>https://www.youtube.com/watch?v=WcyiwkUXOt8</lognote>
																<good></good>
																<originalvideofilename></originalvideofilename>
																<originalaudiofilename></originalaudiofilename>
															</logginginfo>
															<colorinfo>
																<lut></lut>
																<lut1></lut1>
																<asc_sop></asc_sop>
																<asc_sat></asc_sat>
																<lut2></lut2>
															</colorinfo>
															<labels>
																<label2>Iris</label2>
															</labels>
														</clipitem>
														<clipitem id="clipitem-569">
															<masterclipid>masterclip-186</masterclipid>
															<name>(Living to DIY with Rachel Metz)_DIY STUDIO BEDROOM MAKEOVER + EASY DIY WALL DECOR_WcyiwkUXOt8_YT.mp4</name>
															<enabled>TRUE</enabled>
															<duration>21990</duration>
															<rate>
																<timebase>30</timebase>
																<ntsc>TRUE</ntsc>
															</rate>
															<start>311</start>
															<end>668</end>
															<in>8690</in>
															<out>9046</out>
															<pproTicksIn>118085343150412</pproTicksIn>
															<pproTicksOut>122936588242072</pproTicksOut>
															<alphatype>none</alphatype>
															<file id="file-159"/>
															<filter>
																<effect>
																	<name>Time Remap</name>
																	<effectid>timeremap</effectid>
																	<effectcategory>motion</effectcategory>
																	<effecttype>motion</effecttype>
																	<mediatype>video</mediatype>
																	<parameter authoringApp="PremierePro">
																		<parameterid>variablespeed</parameterid>
																		<name>variablespeed</name>
																		<valuemin>0</valuemin>
																		<valuemax>1</valuemax>
																		<value>0</value>
																	</parameter>
																	<parameter authoringApp="PremierePro">
																		<parameterid>speed</parameterid>
																		<name>speed</name>
																		<valuemin>-100000</valuemin>
																		<valuemax>100000</valuemax>
																		<value>160.329</value>
																	</parameter>
																	<parameter authoringApp="PremierePro">
																		<parameterid>reverse</parameterid>
																		<name>reverse</name>
																		<value>FALSE</value>
																	</parameter>
																	<parameter authoringApp="PremierePro">
																		<parameterid>frameblending</parameterid>
																		<name>frameblending</name>
																		<value>FALSE</value>
																	</parameter>
																	<parameter authoringApp="PremierePro">
																		<parameterid>graphdict</parameterid>
																		<name>graphdict</name>
																		<valuemin>0</valuemin>
																		<valuemax>35256</valuemax>
																		<value>0</value>
																		<keyframe>
																			<when>0</when>
																			<value>0</value>
																			<speedvirtualkf>TRUE</speedvirtualkf>
																			<speedkfstart>TRUE</speedkfstart>
																		</keyframe>
																		<keyframe>
																			<when>8690</when>
																			<value>13932</value>
																			<speedvirtualkf>TRUE</speedvirtualkf>
																			<speedkfin>TRUE</speedkfin>
																		</keyframe>
																		<keyframe>
																			<when>9046</when>
																			<value>14503</value>
																			<speedvirtualkf>TRUE</speedvirtualkf>
																			<speedkfout>TRUE</speedkfout>
																		</keyframe>
																		<keyframe>
																			<when>21990</when>
																			<value>35256</value>
																			<speedvirtualkf>TRUE</speedvirtualkf>
																			<speedkfend>TRUE</speedkfend>
																		</keyframe>
																		<interpolation>
																			<name>FCPCurve</name>
																		</interpolation>
																	</parameter>
																</effect>
															</filter>
															<logginginfo>
																<description></description>
																<scene></scene>
																<shottake></shottake>
																<lognote>https://www.youtube.com/watch?v=WcyiwkUXOt8</lognote>
																<good></good>
																<originalvideofilename></originalvideofilename>
																<originalaudiofilename></originalaudiofilename>
															</logginginfo>
															<colorinfo>
																<lut></lut>
																<lut1></lut1>
																<asc_sop></asc_sop>
																<asc_sat></asc_sat>
																<lut2></lut2>
															</colorinfo>
															<labels>
																<label2>Iris</label2>
															</labels>
														</clipitem>
														<clipitem id="clipitem-570">
															<masterclipid>masterclip-186</masterclipid>
															<name>(Living to DIY with Rachel Metz)_DIY STUDIO BEDROOM MAKEOVER + EASY DIY WALL DECOR_WcyiwkUXOt8_YT.mp4</name>
															<enabled>TRUE</enabled>
															<duration>35257</duration>
															<rate>
																<timebase>30</timebase>
																<ntsc>TRUE</ntsc>
															</rate>
															<start>668</start>
															<end>734</end>
															<in>33235</in>
															<out>33301</out>
															<pproTicksIn>281688799392000</pproTicksIn>
															<pproTicksOut>282248193427200</pproTicksOut>
															<alphatype>none</alphatype>
															<file id="file-159"/>
															<logginginfo>
																<description></description>
																<scene></scene>
																<shottake></shottake>
																<lognote>https://www.youtube.com/watch?v=WcyiwkUXOt8</lognote>
																<good></good>
																<originalvideofilename></originalvideofilename>
																<originalaudiofilename></originalaudiofilename>
															</logginginfo>
															<colorinfo>
																<lut></lut>
																<lut1></lut1>
																<asc_sop></asc_sop>
																<asc_sat></asc_sat>
																<lut2></lut2>
															</colorinfo>
															<labels>
																<label2>Iris</label2>
															</labels>
														</clipitem>
														<clipitem id="clipitem-571">
															<masterclipid>masterclip-186</masterclipid>
															<name>(Living to DIY with Rachel Metz)_DIY STUDIO BEDROOM MAKEOVER + EASY DIY WALL DECOR_WcyiwkUXOt8_YT.mp4</name>
															<enabled>TRUE</enabled>
															<duration>35257</duration>
															<rate>
																<timebase>30</timebase>
																<ntsc>TRUE</ntsc>
															</rate>
															<start>734</start>
															<end>795</end>
															<in>32851</in>
															<out>32912</out>
															<pproTicksIn>278434143187200</pproTicksIn>
															<pproTicksOut>278951158886400</pproTicksOut>
															<alphatype>none</alphatype>
															<file id="file-159"/>
															<logginginfo>
																<description></description>
																<scene></scene>
																<shottake></shottake>
																<lognote>https://www.youtube.com/watch?v=WcyiwkUXOt8</lognote>
																<good></good>
																<originalvideofilename></originalvideofilename>
																<originalaudiofilename></originalaudiofilename>
															</logginginfo>
															<colorinfo>
																<lut></lut>
																<lut1></lut1>
																<asc_sop></asc_sop>
																<asc_sat></asc_sat>
																<lut2></lut2>
															</colorinfo>
															<labels>
																<label2>Iris</label2>
															</labels>
														</clipitem>
														<clipitem id="clipitem-572">
															<masterclipid>masterclip-186</masterclipid>
															<name>(Living to DIY with Rachel Metz)_DIY STUDIO BEDROOM MAKEOVER + EASY DIY WALL DECOR_WcyiwkUXOt8_YT.mp4</name>
															<enabled>TRUE</enabled>
															<duration>19790</duration>
															<rate>
																<timebase>30</timebase>
																<ntsc>TRUE</ntsc>
															</rate>
															<start>795</start>
															<end>1002</end>
															<in>10075</in>
															<out>10281</out>
															<pproTicksIn>152119004203928</pproTicksIn>
															<pproTicksOut>155244612911353</pproTicksOut>
															<alphatype>none</alphatype>
															<file id="file-159"/>
															<filter>
																<effect>
																	<name>Time Remap</name>
																	<effectid>timeremap</effectid>
																	<effectcategory>motion</effectcategory>
																	<effecttype>motion</effecttype>
																	<mediatype>video</mediatype>
																	<parameter authoringApp="PremierePro">
																		<parameterid>variablespeed</parameterid>
																		<name>variablespeed</name>
																		<valuemin>0</valuemin>
																		<valuemax>1</valuemax>
																		<value>0</value>
																	</parameter>
																	<parameter authoringApp="PremierePro">
																		<parameterid>speed</parameterid>
																		<name>speed</name>
																		<valuemin>-100000</valuemin>
																		<valuemax>100000</valuemax>
																		<value>178.152</value>
																	</parameter>
																	<parameter authoringApp="PremierePro">
																		<parameterid>reverse</parameterid>
																		<name>reverse</name>
																		<value>FALSE</value>
																	</parameter>
																	<parameter authoringApp="PremierePro">
																		<parameterid>frameblending</parameterid>
																		<name>frameblending</name>
																		<value>FALSE</value>
																	</parameter>
																	<parameter authoringApp="PremierePro">
																		<parameterid>graphdict</parameterid>
																		<name>graphdict</name>
																		<valuemin>0</valuemin>
																		<valuemax>35256</valuemax>
																		<value>0</value>
																		<keyframe>
																			<when>0</when>
																			<value>0</value>
																			<speedvirtualkf>TRUE</speedvirtualkf>
																			<speedkfstart>TRUE</speedkfstart>
																		</keyframe>
																		<keyframe>
																			<when>10075</when>
																			<value>17948</value>
																			<speedvirtualkf>TRUE</speedvirtualkf>
																			<speedkfin>TRUE</speedkfin>
																		</keyframe>
																		<keyframe>
																			<when>10281</when>
																			<value>18315</value>
																			<speedvirtualkf>TRUE</speedvirtualkf>
																			<speedkfout>TRUE</speedkfout>
																		</keyframe>
																		<keyframe>
																			<when>19790</when>
																			<value>35256</value>
																			<speedvirtualkf>TRUE</speedvirtualkf>
																			<speedkfend>TRUE</speedkfend>
																		</keyframe>
																		<interpolation>
																			<name>FCPCurve</name>
																		</interpolation>
																	</parameter>
																</effect>
															</filter>
															<logginginfo>
																<description></description>
																<scene></scene>
																<shottake></shottake>
																<lognote>https://www.youtube.com/watch?v=WcyiwkUXOt8</lognote>
																<good></good>
																<originalvideofilename></originalvideofilename>
																<originalaudiofilename></originalaudiofilename>
															</logginginfo>
															<colorinfo>
																<lut></lut>
																<lut1></lut1>
																<asc_sop></asc_sop>
																<asc_sat></asc_sat>
																<lut2></lut2>
															</colorinfo>
															<labels>
																<label2>Iris</label2>
															</labels>
														</clipitem>
														<clipitem id="clipitem-573">
															<masterclipid>masterclip-186</masterclipid>
															<name>(Living to DIY with Rachel Metz)_DIY STUDIO BEDROOM MAKEOVER + EASY DIY WALL DECOR_WcyiwkUXOt8_YT.mp4</name>
															<enabled>TRUE</enabled>
															<duration>19790</duration>
															<rate>
																<timebase>30</timebase>
																<ntsc>TRUE</ntsc>
															</rate>
															<start>1002</start>
															<end>1481</end>
															<in>10497</in>
															<out>10975</out>
															<pproTicksIn>158491018090560</pproTicksIn>
															<pproTicksOut>165723706838661</pproTicksOut>
															<alphatype>none</alphatype>
															<file id="file-159"/>
															<filter>
																<effect>
																	<name>Time Remap</name>
																	<effectid>timeremap</effectid>
																	<effectcategory>motion</effectcategory>
																	<effecttype>motion</effecttype>
																	<mediatype>video</mediatype>
																	<parameter authoringApp="PremierePro">
																		<parameterid>variablespeed</parameterid>
																		<name>variablespeed</name>
																		<valuemin>0</valuemin>
																		<valuemax>1</valuemax>
																		<value>0</value>
																	</parameter>
																	<parameter authoringApp="PremierePro">
																		<parameterid>speed</parameterid>
																		<name>speed</name>
																		<valuemin>-100000</valuemin>
																		<valuemax>100000</valuemax>
																		<value>178.152</value>
																	</parameter>
																	<parameter authoringApp="PremierePro">
																		<parameterid>reverse</parameterid>
																		<name>reverse</name>
																		<value>FALSE</value>
																	</parameter>
																	<parameter authoringApp="PremierePro">
																		<parameterid>frameblending</parameterid>
																		<name>frameblending</name>
																		<value>FALSE</value>
																	</parameter>
																	<parameter authoringApp="PremierePro">
																		<parameterid>graphdict</parameterid>
																		<name>graphdict</name>
																		<valuemin>0</valuemin>
																		<valuemax>35256</valuemax>
																		<value>0</value>
																		<keyframe>
																			<when>0</when>
																			<value>0</value>
																			<speedvirtualkf>TRUE</speedvirtualkf>
																			<speedkfstart>TRUE</speedkfstart>
																		</keyframe>
																		<keyframe>
																			<when>10497</when>
																			<value>18700</value>
																			<speedvirtualkf>TRUE</speedvirtualkf>
																			<speedkfin>TRUE</speedkfin>
																		</keyframe>
																		<keyframe>
																			<when>10975</when>
																			<value>19552</value>
																			<speedvirtualkf>TRUE</speedvirtualkf>
																			<speedkfout>TRUE</speedkfout>
																		</keyframe>
																		<keyframe>
																			<when>19790</when>
																			<value>35256</value>
																			<speedvirtualkf>TRUE</speedvirtualkf>
																			<speedkfend>TRUE</speedkfend>
																		</keyframe>
																		<interpolation>
																			<name>FCPCurve</name>
																		</interpolation>
																	</parameter>
																</effect>
															</filter>
															<logginginfo>
																<description></description>
																<scene></scene>
																<shottake></shottake>
																<lognote>https://www.youtube.com/watch?v=WcyiwkUXOt8</lognote>
																<good></good>
																<originalvideofilename></originalvideofilename>
																<originalaudiofilename></originalaudiofilename>
															</logginginfo>
															<colorinfo>
																<lut></lut>
																<lut1></lut1>
																<asc_sop></asc_sop>
																<asc_sat></asc_sat>
																<lut2></lut2>
															</colorinfo>
															<labels>
																<label2>Iris</label2>
															</labels>
														</clipitem>
														<clipitem id="clipitem-574">
															<masterclipid>masterclip-186</masterclipid>
															<name>(Living to DIY with Rachel Metz)_DIY STUDIO BEDROOM MAKEOVER + EASY DIY WALL DECOR_WcyiwkUXOt8_YT.mp4</name>
															<enabled>TRUE</enabled>
															<duration>35257</duration>
															<rate>
																<timebase>30</timebase>
																<ntsc>TRUE</ntsc>
															</rate>
															<start>1481</start>
															<end>1644</end>
															<in>32927</in>
															<out>33090</out>
															<pproTicksIn>279078293894400</pproTicksIn>
															<pproTicksOut>280459827648000</pproTicksOut>
															<alphatype>none</alphatype>
															<file id="file-159"/>
															<logginginfo>
																<description></description>
																<scene></scene>
																<shottake></shottake>
																<lognote>https://www.youtube.com/watch?v=WcyiwkUXOt8</lognote>
																<good></good>
																<originalvideofilename></originalvideofilename>
																<originalaudiofilename></originalaudiofilename>
															</logginginfo>
															<colorinfo>
																<lut></lut>
																<lut1></lut1>
																<asc_sop></asc_sop>
																<asc_sat></asc_sat>
																<lut2></lut2>
															</colorinfo>
															<labels>
																<label2>Iris</label2>
															</labels>
														</clipitem>
														<clipitem id="clipitem-575">
															<masterclipid>masterclip-186</masterclipid>
															<name>(Living to DIY with Rachel Metz)_DIY STUDIO BEDROOM MAKEOVER + EASY DIY WALL DECOR_WcyiwkUXOt8_YT.mp4</name>
															<enabled>TRUE</enabled>
															<duration>35257</duration>
															<rate>
																<timebase>30</timebase>
																<ntsc>TRUE</ntsc>
															</rate>
															<start>1644</start>
															<end>1919</end>
															<in>22723</in>
															<out>22998</out>
															<pproTicksIn>192592585785600</pproTicksIn>
															<pproTicksOut>194923394265600</pproTicksOut>
															<alphatype>none</alphatype>
															<file id="file-159"/>
															<logginginfo>
																<description></description>
																<scene></scene>
																<shottake></shottake>
																<lognote>https://www.youtube.com/watch?v=WcyiwkUXOt8</lognote>
																<good></good>
																<originalvideofilename></originalvideofilename>
																<originalaudiofilename></originalaudiofilename>
															</logginginfo>
															<colorinfo>
																<lut></lut>
																<lut1></lut1>
																<asc_sop></asc_sop>
																<asc_sat></asc_sat>
																<lut2></lut2>
															</colorinfo>
															<labels>
																<label2>Iris</label2>
															</labels>
														</clipitem>
														<clipitem id="clipitem-576">
															<masterclipid>masterclip-186</masterclipid>
															<name>(Living to DIY with Rachel Metz)_DIY STUDIO BEDROOM MAKEOVER + EASY DIY WALL DECOR_WcyiwkUXOt8_YT.mp4</name>
															<enabled>TRUE</enabled>
															<duration>35257</duration>
															<rate>
																<timebase>30</timebase>
																<ntsc>TRUE</ntsc>
															</rate>
															<start>1919</start>
															<end>2162</end>
															<in>24576</in>
															<out>24819</out>
															<pproTicksIn>208297997107200</pproTicksIn>
															<pproTicksOut>210357584236800</pproTicksOut>
															<alphatype>none</alphatype>
															<file id="file-159"/>
															<logginginfo>
																<description></description>
																<scene></scene>
																<shottake></shottake>
																<lognote>https://www.youtube.com/watch?v=WcyiwkUXOt8</lognote>
																<good></good>
																<originalvideofilename></originalvideofilename>
																<originalaudiofilename></originalaudiofilename>
															</logginginfo>
															<colorinfo>
																<lut></lut>
																<lut1></lut1>
																<asc_sop></asc_sop>
																<asc_sat></asc_sat>
																<lut2></lut2>
															</colorinfo>
															<labels>
																<label2>Iris</label2>
															</labels>
														</clipitem>
														<clipitem id="clipitem-577">
															<masterclipid>masterclip-186</masterclipid>
															<name>(Living to DIY with Rachel Metz)_DIY STUDIO BEDROOM MAKEOVER + EASY DIY WALL DECOR_WcyiwkUXOt8_YT.mp4</name>
															<enabled>TRUE</enabled>
															<duration>35257</duration>
															<rate>
																<timebase>30</timebase>
																<ntsc>TRUE</ntsc>
															</rate>
															<start>2162</start>
															<end>2232</end>
															<in>32205</in>
															<out>32275</out>
															<pproTicksIn>272958862176000</pproTicksIn>
															<pproTicksOut>273552158880000</pproTicksOut>
															<alphatype>none</alphatype>
															<file id="file-159"/>
															<logginginfo>
																<description></description>
																<scene></scene>
																<shottake></shottake>
																<lognote>https://www.youtube.com/watch?v=WcyiwkUXOt8</lognote>
																<good></good>
																<originalvideofilename></originalvideofilename>
																<originalaudiofilename></originalaudiofilename>
															</logginginfo>
															<colorinfo>
																<lut></lut>
																<lut1></lut1>
																<asc_sop></asc_sop>
																<asc_sat></asc_sat>
																<lut2></lut2>
															</colorinfo>
															<labels>
																<label2>Iris</label2>
															</labels>
														</clipitem>
														<clipitem id="clipitem-578">
															<masterclipid>masterclip-186</masterclipid>
															<name>(Living to DIY with Rachel Metz)_DIY STUDIO BEDROOM MAKEOVER + EASY DIY WALL DECOR_WcyiwkUXOt8_YT.mp4</name>
															<enabled>TRUE</enabled>
															<duration>35257</duration>
															<rate>
																<timebase>30</timebase>
																<ntsc>TRUE</ntsc>
															</rate>
															<start>2232</start>
															<end>2347</end>
															<in>33107</in>
															<out>33222</out>
															<pproTicksIn>280603913990400</pproTicksIn>
															<pproTicksOut>281578615718400</pproTicksOut>
															<alphatype>none</alphatype>
															<file id="file-159"/>
															<logginginfo>
																<description></description>
																<scene></scene>
																<shottake></shottake>
																<lognote>https://www.youtube.com/watch?v=WcyiwkUXOt8</lognote>
																<good></good>
																<originalvideofilename></originalvideofilename>
																<originalaudiofilename></originalaudiofilename>
															</logginginfo>
															<colorinfo>
																<lut></lut>
																<lut1></lut1>
																<asc_sop></asc_sop>
																<asc_sat></asc_sat>
																<lut2></lut2>
															</colorinfo>
															<labels>
																<label2>Iris</label2>
															</labels>
														</clipitem>
														<enabled>TRUE</enabled>
														<locked>FALSE</locked>
													</track>
													<track TL.SQTrackShy="0" TL.SQTrackExpandedHeight="25" TL.SQTrackExpanded="0" MZ.TrackTargeted="0">
														<clipitem id="clipitem-579">
															<masterclipid>masterclip-187</masterclipid>
															<name>LIVING TO DIY WITH RACHEL METZ</name>
															<enabled>TRUE</enabled>
															<duration>5844</duration>
															<rate>
																<timebase>30</timebase>
																<ntsc>TRUE</ntsc>
															</rate>
															<start>0</start>
															<end>2347</end>
															<in>0</in>
															<out>2347</out>
															<pproTicksIn>0</pproTicksIn>
															<pproTicksOut>19892390918400</pproTicksOut>
															<alphatype>straight</alphatype>
															<pixelaspectratio>square</pixelaspectratio>
															<anamorphic>FALSE</anamorphic>
															<file id="file-160">
																<name>1080/AE Attribution.aep</name>
																<pathurl>file://localhost/Volumes/ATM%20JR%202TB/Crafty/Master%20Assets%20/Attribution/AE%20Attribution.aep</pathurl>
																<rate>
																	<timebase>30</timebase>
																	<ntsc>TRUE</ntsc>
																</rate>
																<duration>5844</duration>
																<timecode>
																	<rate>
																		<timebase>30</timebase>
																		<ntsc>TRUE</ntsc>
																	</rate>
																	<string>00;00;00;00</string>
																	<frame>0</frame>
																	<displayformat>DF</displayformat>
																</timecode>
																<media>
																	<video>
																		<samplecharacteristics>
																			<rate>
																				<timebase>30</timebase>
																				<ntsc>TRUE</ntsc>
																			</rate>
																			<width>1920</width>
																			<height>1080</height>
																			<anamorphic>FALSE</anamorphic>
																			<pixelaspectratio>square</pixelaspectratio>
																			<fielddominance>lower</fielddominance>
																		</samplecharacteristics>
																	</video>
																</media>
															</file>
															<logginginfo>
																<description></description>
																<scene></scene>
																<shottake></shottake>
																<lognote></lognote>
																<good></good>
																<originalvideofilename></originalvideofilename>
																<originalaudiofilename></originalaudiofilename>
															</logginginfo>
															<colorinfo>
																<lut></lut>
																<lut1></lut1>
																<asc_sop></asc_sop>
																<asc_sat></asc_sat>
																<lut2></lut2>
															</colorinfo>
															<labels>
																<label2>Rose</label2>
															</labels>
														</clipitem>
														<enabled>TRUE</enabled>
														<locked>FALSE</locked>
													</track>
												</video>
												<audio>
													<numOutputChannels>2</numOutputChannels>
													<format>
														<samplecharacteristics>
															<depth>16</depth>
															<samplerate>48000</samplerate>
														</samplecharacteristics>
													</format>
													<outputs>
														<group>
															<index>1</index>
															<numchannels>1</numchannels>
															<downmix>0</downmix>
															<channel>
																<index>1</index>
															</channel>
														</group>
														<group>
															<index>2</index>
															<numchannels>1</numchannels>
															<downmix>0</downmix>
															<channel>
																<index>2</index>
															</channel>
														</group>
													</outputs>
													<track TL.SQTrackAudioKeyframeStyle="0" TL.SQTrackShy="0" TL.SQTrackExpandedHeight="25" TL.SQTrackExpanded="0" MZ.TrackTargeted="1" PannerCurrentValue="0.5" PannerIsInverted="true" PannerStartKeyframe="-91445760000000000,0.5,0,0,0,0,0,0" PannerName="Balance" currentExplodedTrackIndex="0" totalExplodedTrackCount="2" premiereTrackType="Stereo">
														<clipitem id="clipitem-580" premiereChannelType="stereo">
															<masterclipid>masterclip-188</masterclipid>
															<name>ES_Still Here Waiting - Justnormal.wav</name>
															<enabled>TRUE</enabled>
															<duration>4435</duration>
															<rate>
																<timebase>30</timebase>
																<ntsc>TRUE</ntsc>
															</rate>
															<start>0</start>
															<end>-1</end>
															<in>0</in>
															<out>2347</out>
															<pproTicksIn>0</pproTicksIn>
															<pproTicksOut>19892390918400</pproTicksOut>
															<file id="file-161">
																<name>ES_Still Here Waiting - Justnormal.wav</name>
																<pathurl>file://localhost/Volumes/ATM%20JR%202TB/Crafty/2023/06_June/Crafty_6-19-23/5_Music/ES_Still%20Here%20Waiting%20-%20Justnormal.wav</pathurl>
																<rate>
																	<timebase>30</timebase>
																	<ntsc>TRUE</ntsc>
																</rate>
																<duration>4435</duration>
																<timecode>
																	<rate>
																		<timebase>30</timebase>
																		<ntsc>TRUE</ntsc>
																	</rate>
																	<string>01;14;18;00</string>
																	<frame>133606</frame>
																	<displayformat>DF</displayformat>
																</timecode>
																<media>
																	<audio>
																		<samplecharacteristics>
																			<depth>16</depth>
																			<samplerate>48000</samplerate>
																		</samplecharacteristics>
																		<channelcount>2</channelcount>
																	</audio>
																</media>
															</file>
															<sourcetrack>
																<mediatype>audio</mediatype>
																<trackindex>1</trackindex>
															</sourcetrack>
															<filter>
																<effect>
																	<name>Gain</name>
																	<effectid>{61756678, 4761696e, 4b657947}</effectid>
																	<effecttype>filter</effecttype>
																	<mediatype>audio</mediatype>
																	<parameter authoringApp="PremierePro">
																		<parameterid>Gain(dB)</parameterid>
																		<name>Gain(dB)</name>
																		<valuemin>-96</valuemin>
																		<valuemax>96</valuemax>
																		<value>-8</value>
																	</parameter>
																</effect>
															</filter>
															<link>
																<linkclipref>clipitem-580</linkclipref>
																<mediatype>audio</mediatype>
																<trackindex>1</trackindex>
																<clipindex>1</clipindex>
																<groupindex>1</groupindex>
															</link>
															<link>
																<linkclipref>clipitem-581</linkclipref>
																<mediatype>audio</mediatype>
																<trackindex>2</trackindex>
																<clipindex>1</clipindex>
																<groupindex>1</groupindex>
															</link>
															<logginginfo>
																<description></description>
																<scene></scene>
																<shottake></shottake>
																<lognote></lognote>
																<good></good>
																<originalvideofilename></originalvideofilename>
																<originalaudiofilename></originalaudiofilename>
															</logginginfo>
															<colorinfo>
																<lut></lut>
																<lut1></lut1>
																<asc_sop></asc_sop>
																<asc_sat></asc_sat>
																<lut2></lut2>
															</colorinfo>
															<labels>
																<label2>Caribbean</label2>
															</labels>
														</clipitem>
														<transitionitem>
															<start>2257</start>
															<end>2347</end>
															<pproTicksIn>19129580870400</pproTicksIn>
															<pproTicksOut>19892390918400</pproTicksOut>
															<alignment>end-black</alignment>
															<cutPointTicks>762810048000</cutPointTicks>
															<rate>
																<timebase>30</timebase>
																<ntsc>TRUE</ntsc>
															</rate>
															<effect>
																<name>Cross Fade (+3dB)</name>
																<effectid>KGAudioTransCrossFade3dB</effectid>
																<effecttype>transition</effecttype>
																<mediatype>audio</mediatype>
																<wipecode>0</wipecode>
																<wipeaccuracy>100</wipeaccuracy>
																<startratio>0</startratio>
																<endratio>1</endratio>
																<reverse>FALSE</reverse>
															</effect>
														</transitionitem>
														<enabled>TRUE</enabled>
														<locked>FALSE</locked>
														<outputchannelindex>1</outputchannelindex>
													</track>
													<track TL.SQTrackAudioKeyframeStyle="0" TL.SQTrackShy="0" TL.SQTrackExpandedHeight="25" TL.SQTrackExpanded="0" MZ.TrackTargeted="1" PannerCurrentValue="0.5" PannerIsInverted="true" PannerStartKeyframe="-91445760000000000,0.5,0,0,0,0,0,0" PannerName="Balance" currentExplodedTrackIndex="1" totalExplodedTrackCount="2" premiereTrackType="Stereo">
														<clipitem id="clipitem-581" premiereChannelType="stereo">
															<masterclipid>masterclip-188</masterclipid>
															<name>ES_Still Here Waiting - Justnormal.wav</name>
															<enabled>TRUE</enabled>
															<duration>4435</duration>
															<rate>
																<timebase>30</timebase>
																<ntsc>TRUE</ntsc>
															</rate>
															<start>0</start>
															<end>-1</end>
															<in>0</in>
															<out>2347</out>
															<pproTicksIn>0</pproTicksIn>
															<pproTicksOut>19892390918400</pproTicksOut>
															<file id="file-161"/>
															<sourcetrack>
																<mediatype>audio</mediatype>
																<trackindex>2</trackindex>
															</sourcetrack>
															<filter>
																<effect>
																	<name>Gain</name>
																	<effectid>{61756678, 4761696e, 4b657947}</effectid>
																	<effecttype>filter</effecttype>
																	<mediatype>audio</mediatype>
																	<parameter authoringApp="PremierePro">
																		<parameterid>Gain(dB)</parameterid>
																		<name>Gain(dB)</name>
																		<valuemin>-96</valuemin>
																		<valuemax>96</valuemax>
																		<value>-8</value>
																	</parameter>
																</effect>
															</filter>
															<link>
																<linkclipref>clipitem-580</linkclipref>
																<mediatype>audio</mediatype>
																<trackindex>1</trackindex>
																<clipindex>1</clipindex>
																<groupindex>1</groupindex>
															</link>
															<link>
																<linkclipref>clipitem-581</linkclipref>
																<mediatype>audio</mediatype>
																<trackindex>2</trackindex>
																<clipindex>1</clipindex>
																<groupindex>1</groupindex>
															</link>
															<logginginfo>
																<description></description>
																<scene></scene>
																<shottake></shottake>
																<lognote></lognote>
																<good></good>
																<originalvideofilename></originalvideofilename>
																<originalaudiofilename></originalaudiofilename>
															</logginginfo>
															<colorinfo>
																<lut></lut>
																<lut1></lut1>
																<asc_sop></asc_sop>
																<asc_sat></asc_sat>
																<lut2></lut2>
															</colorinfo>
															<labels>
																<label2>Caribbean</label2>
															</labels>
														</clipitem>
														<transitionitem>
															<start>2257</start>
															<end>2347</end>
															<pproTicksIn>19129580870400</pproTicksIn>
															<pproTicksOut>19892390918400</pproTicksOut>
															<alignment>end-black</alignment>
															<cutPointTicks>762810048000</cutPointTicks>
															<rate>
																<timebase>30</timebase>
																<ntsc>TRUE</ntsc>
															</rate>
															<effect>
																<name>Cross Fade (+3dB)</name>
																<effectid>KGAudioTransCrossFade3dB</effectid>
																<effecttype>transition</effecttype>
																<mediatype>audio</mediatype>
																<wipecode>0</wipecode>
																<wipeaccuracy>100</wipeaccuracy>
																<startratio>0</startratio>
																<endratio>1</endratio>
																<reverse>FALSE</reverse>
															</effect>
														</transitionitem>
														<enabled>TRUE</enabled>
														<locked>FALSE</locked>
														<outputchannelindex>2</outputchannelindex>
													</track>
												</audio>
											</media>
											<timecode>
												<rate>
													<timebase>30</timebase>
													<ntsc>TRUE</ntsc>
												</rate>
												<string>00;00;00;00</string>
												<frame>0</frame>
												<displayformat>DF</displayformat>
											</timecode>
											<logginginfo>
												<description></description>
												<scene></scene>
												<shottake></shottake>
												<lognote></lognote>
												<good></good>
												<originalvideofilename></originalvideofilename>
												<originalaudiofilename></originalaudiofilename>
											</logginginfo>
										</sequence>
										<link>
											<linkclipref>clipitem-566</linkclipref>
											<mediatype>video</mediatype>
											<trackindex>1</trackindex>
											<clipindex>2</clipindex>
										</link>
										<link>
											<linkclipref>clipitem-588</linkclipref>
											<mediatype>audio</mediatype>
											<trackindex>1</trackindex>
											<clipindex>2</clipindex>
											<groupindex>1</groupindex>
										</link>
										<link>
											<linkclipref>clipitem-590</linkclipref>
											<mediatype>audio</mediatype>
											<trackindex>2</trackindex>
											<clipindex>2</clipindex>
											<groupindex>1</groupindex>
										</link>
										<labels>
											<label2>Forest</label2>
										</labels>
									</clipitem>
									<enabled>TRUE</enabled>
									<locked>FALSE</locked>
								</track>
								<track TL.SQTrackShy="0" TL.SQTrackExpandedHeight="25" TL.SQTrackExpanded="0" MZ.TrackTargeted="0">
									<clipitem id="clipitem-582">
										<masterclipid>masterclip-189</masterclipid>
										<name>AS CUTE AS A RUG</name>
										<enabled>TRUE</enabled>
										<duration>5695</duration>
										<rate>
											<timebase>30</timebase>
											<ntsc>TRUE</ntsc>
										</rate>
										<start>0</start>
										<end>3122</end>
										<in>0</in>
										<out>3122</out>
										<pproTicksIn>0</pproTicksIn>
										<pproTicksOut>26461032998400</pproTicksOut>
										<alphatype>straight</alphatype>
										<pixelaspectratio>square</pixelaspectratio>
										<anamorphic>FALSE</anamorphic>
										<file id="file-162">
											<name>CRAFTY_L3RD_01_JL_V03/CRAFTY_L3RD_01_JL_V03.aep</name>
											<pathurl>file://localhost/Volumes/ATM%20JR%202TB/Crafty/Master%20Assets%20/Lower%20Thirds/CRAFTY_L3RD_01_JL_V03.aep</pathurl>
											<rate>
												<timebase>30</timebase>
												<ntsc>FALSE</ntsc>
											</rate>
											<duration>5701</duration>
											<timecode>
												<rate>
													<timebase>30</timebase>
													<ntsc>FALSE</ntsc>
												</rate>
												<string>00:00:00:00</string>
												<frame>0</frame>
												<displayformat>NDF</displayformat>
											</timecode>
											<media>
												<video>
													<samplecharacteristics>
														<rate>
															<timebase>30</timebase>
															<ntsc>FALSE</ntsc>
														</rate>
														<width>1920</width>
														<height>1080</height>
														<anamorphic>FALSE</anamorphic>
														<pixelaspectratio>square</pixelaspectratio>
														<fielddominance>lower</fielddominance>
													</samplecharacteristics>
												</video>
											</media>
										</file>
										<logginginfo>
											<description></description>
											<scene></scene>
											<shottake></shottake>
											<lognote></lognote>
											<good></good>
											<originalvideofilename></originalvideofilename>
											<originalaudiofilename></originalaudiofilename>
										</logginginfo>
										<colorinfo>
											<lut></lut>
											<lut1></lut1>
											<asc_sop></asc_sop>
											<asc_sat></asc_sat>
											<lut2></lut2>
										</colorinfo>
										<labels>
											<label2>Rose</label2>
										</labels>
									</clipitem>
									<clipitem id="clipitem-583">
										<masterclipid>masterclip-190</masterclipid>
										<name>LIVE OR DIY</name>
										<enabled>TRUE</enabled>
										<duration>5695</duration>
										<rate>
											<timebase>30</timebase>
											<ntsc>TRUE</ntsc>
										</rate>
										<start>3223</start>
										<end>5549</end>
										<in>0</in>
										<out>2326</out>
										<pproTicksIn>0</pproTicksIn>
										<pproTicksOut>19714401907200</pproTicksOut>
										<alphatype>straight</alphatype>
										<pixelaspectratio>square</pixelaspectratio>
										<anamorphic>FALSE</anamorphic>
										<file id="file-163">
											<name>CRAFTY_L3RD_01_JL_V03/CRAFTY_L3RD_01_JL_V03.aep</name>
											<pathurl>file://localhost/Volumes/ATM%20JR%202TB/Crafty/Master%20Assets%20/Lower%20Thirds/CRAFTY_L3RD_01_JL_V03.aep</pathurl>
											<rate>
												<timebase>30</timebase>
												<ntsc>FALSE</ntsc>
											</rate>
											<duration>5701</duration>
											<timecode>
												<rate>
													<timebase>30</timebase>
													<ntsc>FALSE</ntsc>
												</rate>
												<string>00:00:00:00</string>
												<frame>0</frame>
												<displayformat>NDF</displayformat>
											</timecode>
											<media>
												<video>
													<samplecharacteristics>
														<rate>
															<timebase>30</timebase>
															<ntsc>FALSE</ntsc>
														</rate>
														<width>1920</width>
														<height>1080</height>
														<anamorphic>FALSE</anamorphic>
														<pixelaspectratio>square</pixelaspectratio>
														<fielddominance>lower</fielddominance>
													</samplecharacteristics>
												</video>
											</media>
										</file>
										<logginginfo>
											<description></description>
											<scene></scene>
											<shottake></shottake>
											<lognote></lognote>
											<good></good>
											<originalvideofilename></originalvideofilename>
											<originalaudiofilename></originalaudiofilename>
										</logginginfo>
										<colorinfo>
											<lut></lut>
											<lut1></lut1>
											<asc_sop></asc_sop>
											<asc_sat></asc_sat>
											<lut2></lut2>
										</colorinfo>
										<labels>
											<label2>Rose</label2>
										</labels>
									</clipitem>
									<enabled>TRUE</enabled>
									<locked>FALSE</locked>
								</track>
								<track TL.SQTrackShy="0" TL.SQTrackExpandedHeight="25" TL.SQTrackExpanded="0" MZ.TrackTargeted="0">
									<clipitem id="clipitem-584">
										<masterclipid>masterclip-102</masterclipid>
										<name>ATM_logo_channels_right-2 (3).png</name>
										<enabled>TRUE</enabled>
										<duration>1294705</duration>
										<rate>
											<timebase>30</timebase>
											<ntsc>TRUE</ntsc>
										</rate>
										<start>0</start>
										<end>5549</end>
										<in>107892</in>
										<out>113441</out>
										<pproTicksIn>914456685542400</pproTicksIn>
										<pproTicksOut>961488162835200</pproTicksOut>
										<alphatype>straight</alphatype>
										<file id="file-89"/>
										<logginginfo>
											<description></description>
											<scene></scene>
											<shottake></shottake>
											<lognote></lognote>
											<good></good>
											<originalvideofilename></originalvideofilename>
											<originalaudiofilename></originalaudiofilename>
										</logginginfo>
										<colorinfo>
											<lut></lut>
											<lut1></lut1>
											<asc_sop></asc_sop>
											<asc_sat></asc_sat>
											<lut2></lut2>
										</colorinfo>
										<labels>
											<label2>Lavender</label2>
										</labels>
									</clipitem>
									<enabled>TRUE</enabled>
									<locked>FALSE</locked>
								</track>
								<track TL.SQTrackShy="0" TL.SQTrackExpandedHeight="25" TL.SQTrackExpanded="0" MZ.TrackTargeted="0">
									<clipitem id="clipitem-585">
										<masterclipid>masterclip-117</masterclipid>
										<name>CRAFTY_TRAN01_JL_V01.mov</name>
										<enabled>TRUE</enabled>
										<duration>120</duration>
										<rate>
											<timebase>30</timebase>
											<ntsc>TRUE</ntsc>
										</rate>
										<start>3103</start>
										<end>3223</end>
										<in>0</in>
										<out>120</out>
										<pproTicksIn>0</pproTicksIn>
										<pproTicksOut>1017080064000</pproTicksOut>
										<alphatype>none</alphatype>
										<file id="file-102"/>
										<link>
											<linkclipref>clipitem-585</linkclipref>
											<mediatype>video</mediatype>
											<trackindex>4</trackindex>
											<clipindex>1</clipindex>
										</link>
										<link>
											<linkclipref>clipitem-591</linkclipref>
											<mediatype>audio</mediatype>
											<trackindex>3</trackindex>
											<clipindex>1</clipindex>
											<groupindex>1</groupindex>
										</link>
										<link>
											<linkclipref>clipitem-593</linkclipref>
											<mediatype>audio</mediatype>
											<trackindex>4</trackindex>
											<clipindex>1</clipindex>
											<groupindex>1</groupindex>
										</link>
										<logginginfo>
											<description></description>
											<scene></scene>
											<shottake></shottake>
											<lognote></lognote>
											<good></good>
											<originalvideofilename></originalvideofilename>
											<originalaudiofilename></originalaudiofilename>
										</logginginfo>
										<colorinfo>
											<lut></lut>
											<lut1></lut1>
											<asc_sop></asc_sop>
											<asc_sat></asc_sat>
											<lut2></lut2>
										</colorinfo>
										<labels>
											<label2>Iris</label2>
										</labels>
									</clipitem>
									<clipitem id="clipitem-586">
										<masterclipid>masterclip-103</masterclipid>
										<name>CRAFTY_TRAN02_JL_V01.mov</name>
										<enabled>TRUE</enabled>
										<duration>120</duration>
										<rate>
											<timebase>30</timebase>
											<ntsc>TRUE</ntsc>
										</rate>
										<start>5535</start>
										<end>5655</end>
										<in>0</in>
										<out>120</out>
										<pproTicksIn>0</pproTicksIn>
										<pproTicksOut>1017080064000</pproTicksOut>
										<alphatype>none</alphatype>
										<file id="file-90"/>
										<link>
											<linkclipref>clipitem-586</linkclipref>
											<mediatype>video</mediatype>
											<trackindex>4</trackindex>
											<clipindex>2</clipindex>
										</link>
										<link>
											<linkclipref>clipitem-592</linkclipref>
											<mediatype>audio</mediatype>
											<trackindex>3</trackindex>
											<clipindex>2</clipindex>
											<groupindex>1</groupindex>
										</link>
										<link>
											<linkclipref>clipitem-594</linkclipref>
											<mediatype>audio</mediatype>
											<trackindex>4</trackindex>
											<clipindex>2</clipindex>
											<groupindex>1</groupindex>
										</link>
										<logginginfo>
											<description></description>
											<scene></scene>
											<shottake></shottake>
											<lognote></lognote>
											<good></good>
											<originalvideofilename></originalvideofilename>
											<originalaudiofilename></originalaudiofilename>
										</logginginfo>
										<colorinfo>
											<lut></lut>
											<lut1></lut1>
											<asc_sop></asc_sop>
											<asc_sat></asc_sat>
											<lut2></lut2>
										</colorinfo>
										<labels>
											<label2>Iris</label2>
										</labels>
									</clipitem>
									<enabled>TRUE</enabled>
									<locked>FALSE</locked>
								</track>
							</video>
							<audio>
								<numOutputChannels>2</numOutputChannels>
								<format>
									<samplecharacteristics>
										<depth>16</depth>
										<samplerate>48000</samplerate>
									</samplecharacteristics>
								</format>
								<outputs>
									<group>
										<index>1</index>
										<numchannels>1</numchannels>
										<downmix>0</downmix>
										<channel>
											<index>1</index>
										</channel>
									</group>
									<group>
										<index>2</index>
										<numchannels>1</numchannels>
										<downmix>0</downmix>
										<channel>
											<index>2</index>
										</channel>
									</group>
								</outputs>
								<track TL.SQTrackAudioKeyframeStyle="0" TL.SQTrackShy="0" TL.SQTrackExpandedHeight="70" TL.SQTrackExpanded="0" MZ.TrackTargeted="1" PannerCurrentValue="0.5" PannerIsInverted="true" PannerStartKeyframe="-91445760000000000,0.5,0,0,0,0,0,0" PannerName="Balance" currentExplodedTrackIndex="0" totalExplodedTrackCount="2" premiereTrackType="Stereo">
									<clipitem id="clipitem-587" premiereChannelType="stereo">
										<masterclipid>masterclip-178</masterclipid>
										<name>ART_ASCUTEASARUG_2</name>
										<enabled>TRUE</enabled>
										<duration>3806</duration>
										<rate>
											<timebase>30</timebase>
											<ntsc>TRUE</ntsc>
										</rate>
										<start>0</start>
										<end>3122</end>
										<in>0</in>
										<out>3122</out>
										<pproTicksIn>0</pproTicksIn>
										<pproTicksOut>26461032998400</pproTicksOut>
										<sequence id="sequence-39"/>
										<sourcetrack>
											<mediatype>audio</mediatype>
											<trackindex>0</trackindex>
										</sourcetrack>
										<link>
											<linkclipref>clipitem-534</linkclipref>
											<mediatype>video</mediatype>
											<trackindex>1</trackindex>
											<clipindex>1</clipindex>
										</link>
										<link>
											<linkclipref>clipitem-587</linkclipref>
											<mediatype>audio</mediatype>
											<trackindex>1</trackindex>
											<clipindex>1</clipindex>
											<groupindex>1</groupindex>
										</link>
										<link>
											<linkclipref>clipitem-589</linkclipref>
											<mediatype>audio</mediatype>
											<trackindex>2</trackindex>
											<clipindex>1</clipindex>
											<groupindex>1</groupindex>
										</link>
										<labels>
											<label2>Forest</label2>
										</labels>
									</clipitem>
									<clipitem id="clipitem-588" premiereChannelType="stereo">
										<masterclipid>masterclip-185</masterclipid>
										<name>DIY_LIVEORDIY_1</name>
										<enabled>TRUE</enabled>
										<duration>2432</duration>
										<rate>
											<timebase>30</timebase>
											<ntsc>TRUE</ntsc>
										</rate>
										<start>3202</start>
										<end>5549</end>
										<in>0</in>
										<out>2347</out>
										<pproTicksIn>0</pproTicksIn>
										<pproTicksOut>19892390918400</pproTicksOut>
										<sequence id="sequence-40"/>
										<sourcetrack>
											<mediatype>audio</mediatype>
											<trackindex>0</trackindex>
										</sourcetrack>
										<link>
											<linkclipref>clipitem-566</linkclipref>
											<mediatype>video</mediatype>
											<trackindex>1</trackindex>
											<clipindex>2</clipindex>
										</link>
										<link>
											<linkclipref>clipitem-588</linkclipref>
											<mediatype>audio</mediatype>
											<trackindex>1</trackindex>
											<clipindex>2</clipindex>
											<groupindex>1</groupindex>
										</link>
										<link>
											<linkclipref>clipitem-590</linkclipref>
											<mediatype>audio</mediatype>
											<trackindex>2</trackindex>
											<clipindex>2</clipindex>
											<groupindex>1</groupindex>
										</link>
										<labels>
											<label2>Forest</label2>
										</labels>
									</clipitem>
									<enabled>TRUE</enabled>
									<locked>FALSE</locked>
									<outputchannelindex>1</outputchannelindex>
								</track>
								<track TL.SQTrackAudioKeyframeStyle="0" TL.SQTrackShy="0" TL.SQTrackExpandedHeight="70" TL.SQTrackExpanded="0" MZ.TrackTargeted="1" PannerCurrentValue="0.5" PannerIsInverted="true" PannerStartKeyframe="-91445760000000000,0.5,0,0,0,0,0,0" PannerName="Balance" currentExplodedTrackIndex="1" totalExplodedTrackCount="2" premiereTrackType="Stereo">
									<clipitem id="clipitem-589" premiereChannelType="stereo">
										<masterclipid>masterclip-178</masterclipid>
										<name>ART_ASCUTEASARUG_2</name>
										<enabled>TRUE</enabled>
										<duration>3806</duration>
										<rate>
											<timebase>30</timebase>
											<ntsc>TRUE</ntsc>
										</rate>
										<start>0</start>
										<end>3122</end>
										<in>0</in>
										<out>3122</out>
										<pproTicksIn>0</pproTicksIn>
										<pproTicksOut>26461032998400</pproTicksOut>
										<sequence id="sequence-39"/>
										<sourcetrack>
											<mediatype>audio</mediatype>
											<trackindex>1</trackindex>
										</sourcetrack>
										<link>
											<linkclipref>clipitem-534</linkclipref>
											<mediatype>video</mediatype>
											<trackindex>1</trackindex>
											<clipindex>1</clipindex>
										</link>
										<link>
											<linkclipref>clipitem-587</linkclipref>
											<mediatype>audio</mediatype>
											<trackindex>1</trackindex>
											<clipindex>1</clipindex>
											<groupindex>1</groupindex>
										</link>
										<link>
											<linkclipref>clipitem-589</linkclipref>
											<mediatype>audio</mediatype>
											<trackindex>2</trackindex>
											<clipindex>1</clipindex>
											<groupindex>1</groupindex>
										</link>
										<labels>
											<label2>Forest</label2>
										</labels>
									</clipitem>
									<clipitem id="clipitem-590" premiereChannelType="stereo">
										<masterclipid>masterclip-185</masterclipid>
										<name>DIY_LIVEORDIY_1</name>
										<enabled>TRUE</enabled>
										<duration>2432</duration>
										<rate>
											<timebase>30</timebase>
											<ntsc>TRUE</ntsc>
										</rate>
										<start>3202</start>
										<end>5549</end>
										<in>0</in>
										<out>2347</out>
										<pproTicksIn>0</pproTicksIn>
										<pproTicksOut>19892390918400</pproTicksOut>
										<sequence id="sequence-40"/>
										<sourcetrack>
											<mediatype>audio</mediatype>
											<trackindex>1</trackindex>
										</sourcetrack>
										<link>
											<linkclipref>clipitem-566</linkclipref>
											<mediatype>video</mediatype>
											<trackindex>1</trackindex>
											<clipindex>2</clipindex>
										</link>
										<link>
											<linkclipref>clipitem-588</linkclipref>
											<mediatype>audio</mediatype>
											<trackindex>1</trackindex>
											<clipindex>2</clipindex>
											<groupindex>1</groupindex>
										</link>
										<link>
											<linkclipref>clipitem-590</linkclipref>
											<mediatype>audio</mediatype>
											<trackindex>2</trackindex>
											<clipindex>2</clipindex>
											<groupindex>1</groupindex>
										</link>
										<labels>
											<label2>Forest</label2>
										</labels>
									</clipitem>
									<enabled>TRUE</enabled>
									<locked>FALSE</locked>
									<outputchannelindex>2</outputchannelindex>
								</track>
								<track TL.SQTrackAudioKeyframeStyle="0" TL.SQTrackShy="0" TL.SQTrackExpandedHeight="70" TL.SQTrackExpanded="0" MZ.TrackTargeted="1" PannerCurrentValue="0.5" PannerIsInverted="true" PannerStartKeyframe="-91445760000000000,0.5,0,0,0,0,0,0" PannerName="Balance" currentExplodedTrackIndex="0" totalExplodedTrackCount="2" premiereTrackType="Stereo">
									<clipitem id="clipitem-591" premiereChannelType="stereo">
										<masterclipid>masterclip-117</masterclipid>
										<name>CRAFTY_TRAN01_JL_V01.mov</name>
										<enabled>TRUE</enabled>
										<duration>120</duration>
										<rate>
											<timebase>30</timebase>
											<ntsc>TRUE</ntsc>
										</rate>
										<start>3103</start>
										<end>3223</end>
										<in>0</in>
										<out>120</out>
										<pproTicksIn>0</pproTicksIn>
										<pproTicksOut>1017080064000</pproTicksOut>
										<file id="file-102"/>
										<sourcetrack>
											<mediatype>audio</mediatype>
											<trackindex>1</trackindex>
										</sourcetrack>
										<link>
											<linkclipref>clipitem-585</linkclipref>
											<mediatype>video</mediatype>
											<trackindex>4</trackindex>
											<clipindex>1</clipindex>
										</link>
										<link>
											<linkclipref>clipitem-591</linkclipref>
											<mediatype>audio</mediatype>
											<trackindex>3</trackindex>
											<clipindex>1</clipindex>
											<groupindex>1</groupindex>
										</link>
										<link>
											<linkclipref>clipitem-593</linkclipref>
											<mediatype>audio</mediatype>
											<trackindex>4</trackindex>
											<clipindex>1</clipindex>
											<groupindex>1</groupindex>
										</link>
										<logginginfo>
											<description></description>
											<scene></scene>
											<shottake></shottake>
											<lognote></lognote>
											<good></good>
											<originalvideofilename></originalvideofilename>
											<originalaudiofilename></originalaudiofilename>
										</logginginfo>
										<colorinfo>
											<lut></lut>
											<lut1></lut1>
											<asc_sop></asc_sop>
											<asc_sat></asc_sat>
											<lut2></lut2>
										</colorinfo>
										<labels>
											<label2>Iris</label2>
										</labels>
									</clipitem>
									<clipitem id="clipitem-592" premiereChannelType="stereo">
										<masterclipid>masterclip-103</masterclipid>
										<name>CRAFTY_TRAN02_JL_V01.mov</name>
										<enabled>TRUE</enabled>
										<duration>120</duration>
										<rate>
											<timebase>30</timebase>
											<ntsc>TRUE</ntsc>
										</rate>
										<start>5535</start>
										<end>5655</end>
										<in>0</in>
										<out>120</out>
										<pproTicksIn>0</pproTicksIn>
										<pproTicksOut>1017080064000</pproTicksOut>
										<file id="file-90"/>
										<sourcetrack>
											<mediatype>audio</mediatype>
											<trackindex>1</trackindex>
										</sourcetrack>
										<link>
											<linkclipref>clipitem-586</linkclipref>
											<mediatype>video</mediatype>
											<trackindex>4</trackindex>
											<clipindex>2</clipindex>
										</link>
										<link>
											<linkclipref>clipitem-592</linkclipref>
											<mediatype>audio</mediatype>
											<trackindex>3</trackindex>
											<clipindex>2</clipindex>
											<groupindex>1</groupindex>
										</link>
										<link>
											<linkclipref>clipitem-594</linkclipref>
											<mediatype>audio</mediatype>
											<trackindex>4</trackindex>
											<clipindex>2</clipindex>
											<groupindex>1</groupindex>
										</link>
										<logginginfo>
											<description></description>
											<scene></scene>
											<shottake></shottake>
											<lognote></lognote>
											<good></good>
											<originalvideofilename></originalvideofilename>
											<originalaudiofilename></originalaudiofilename>
										</logginginfo>
										<colorinfo>
											<lut></lut>
											<lut1></lut1>
											<asc_sop></asc_sop>
											<asc_sat></asc_sat>
											<lut2></lut2>
										</colorinfo>
										<labels>
											<label2>Iris</label2>
										</labels>
									</clipitem>
									<enabled>TRUE</enabled>
									<locked>FALSE</locked>
									<outputchannelindex>1</outputchannelindex>
								</track>
								<track TL.SQTrackAudioKeyframeStyle="0" TL.SQTrackShy="0" TL.SQTrackExpandedHeight="70" TL.SQTrackExpanded="0" MZ.TrackTargeted="1" PannerCurrentValue="0.5" PannerIsInverted="true" PannerStartKeyframe="-91445760000000000,0.5,0,0,0,0,0,0" PannerName="Balance" currentExplodedTrackIndex="1" totalExplodedTrackCount="2" premiereTrackType="Stereo">
									<clipitem id="clipitem-593" premiereChannelType="stereo">
										<masterclipid>masterclip-117</masterclipid>
										<name>CRAFTY_TRAN01_JL_V01.mov</name>
										<enabled>TRUE</enabled>
										<duration>120</duration>
										<rate>
											<timebase>30</timebase>
											<ntsc>TRUE</ntsc>
										</rate>
										<start>3103</start>
										<end>3223</end>
										<in>0</in>
										<out>120</out>
										<pproTicksIn>0</pproTicksIn>
										<pproTicksOut>1017080064000</pproTicksOut>
										<file id="file-102"/>
										<sourcetrack>
											<mediatype>audio</mediatype>
											<trackindex>2</trackindex>
										</sourcetrack>
										<link>
											<linkclipref>clipitem-585</linkclipref>
											<mediatype>video</mediatype>
											<trackindex>4</trackindex>
											<clipindex>1</clipindex>
										</link>
										<link>
											<linkclipref>clipitem-591</linkclipref>
											<mediatype>audio</mediatype>
											<trackindex>3</trackindex>
											<clipindex>1</clipindex>
											<groupindex>1</groupindex>
										</link>
										<link>
											<linkclipref>clipitem-593</linkclipref>
											<mediatype>audio</mediatype>
											<trackindex>4</trackindex>
											<clipindex>1</clipindex>
											<groupindex>1</groupindex>
										</link>
										<logginginfo>
											<description></description>
											<scene></scene>
											<shottake></shottake>
											<lognote></lognote>
											<good></good>
											<originalvideofilename></originalvideofilename>
											<originalaudiofilename></originalaudiofilename>
										</logginginfo>
										<colorinfo>
											<lut></lut>
											<lut1></lut1>
											<asc_sop></asc_sop>
											<asc_sat></asc_sat>
											<lut2></lut2>
										</colorinfo>
										<labels>
											<label2>Iris</label2>
										</labels>
									</clipitem>
									<clipitem id="clipitem-594" premiereChannelType="stereo">
										<masterclipid>masterclip-103</masterclipid>
										<name>CRAFTY_TRAN02_JL_V01.mov</name>
										<enabled>TRUE</enabled>
										<duration>120</duration>
										<rate>
											<timebase>30</timebase>
											<ntsc>TRUE</ntsc>
										</rate>
										<start>5535</start>
										<end>5655</end>
										<in>0</in>
										<out>120</out>
										<pproTicksIn>0</pproTicksIn>
										<pproTicksOut>1017080064000</pproTicksOut>
										<file id="file-90"/>
										<sourcetrack>
											<mediatype>audio</mediatype>
											<trackindex>2</trackindex>
										</sourcetrack>
										<link>
											<linkclipref>clipitem-586</linkclipref>
											<mediatype>video</mediatype>
											<trackindex>4</trackindex>
											<clipindex>2</clipindex>
										</link>
										<link>
											<linkclipref>clipitem-592</linkclipref>
											<mediatype>audio</mediatype>
											<trackindex>3</trackindex>
											<clipindex>2</clipindex>
											<groupindex>1</groupindex>
										</link>
										<link>
											<linkclipref>clipitem-594</linkclipref>
											<mediatype>audio</mediatype>
											<trackindex>4</trackindex>
											<clipindex>2</clipindex>
											<groupindex>1</groupindex>
										</link>
										<logginginfo>
											<description></description>
											<scene></scene>
											<shottake></shottake>
											<lognote></lognote>
											<good></good>
											<originalvideofilename></originalvideofilename>
											<originalaudiofilename></originalaudiofilename>
										</logginginfo>
										<colorinfo>
											<lut></lut>
											<lut1></lut1>
											<asc_sop></asc_sop>
											<asc_sat></asc_sat>
											<lut2></lut2>
										</colorinfo>
										<labels>
											<label2>Iris</label2>
										</labels>
									</clipitem>
									<enabled>TRUE</enabled>
									<locked>FALSE</locked>
									<outputchannelindex>2</outputchannelindex>
								</track>
								<track TL.SQTrackAudioKeyframeStyle="0" TL.SQTrackShy="0" TL.SQTrackExpandedHeight="70" TL.SQTrackExpanded="0" MZ.TrackTargeted="1" PannerCurrentValue="0.5" PannerIsInverted="true" PannerStartKeyframe="-91445760000000000,0.5,0,0,0,0,0,0" PannerName="Balance" currentExplodedTrackIndex="0" totalExplodedTrackCount="2" premiereTrackType="Stereo">
									<enabled>TRUE</enabled>
									<locked>FALSE</locked>
									<outputchannelindex>1</outputchannelindex>
								</track>
								<track TL.SQTrackAudioKeyframeStyle="0" TL.SQTrackShy="0" TL.SQTrackExpandedHeight="70" TL.SQTrackExpanded="0" MZ.TrackTargeted="1" PannerCurrentValue="0.5" PannerIsInverted="true" PannerStartKeyframe="-91445760000000000,0.5,0,0,0,0,0,0" PannerName="Balance" currentExplodedTrackIndex="1" totalExplodedTrackCount="2" premiereTrackType="Stereo">
									<enabled>TRUE</enabled>
									<locked>FALSE</locked>
									<outputchannelindex>2</outputchannelindex>
								</track>
								<track TL.SQTrackAudioKeyframeStyle="0" TL.SQTrackShy="0" TL.SQTrackExpandedHeight="25" TL.SQTrackExpanded="0" MZ.TrackTargeted="0" PannerCurrentValue="0.5" PannerIsInverted="true" PannerStartKeyframe="-91445760000000000,0.5,0,0,0,0,0,0" PannerName="Balance" currentExplodedTrackIndex="0" totalExplodedTrackCount="2" premiereTrackType="Stereo">
									<enabled>TRUE</enabled>
									<locked>FALSE</locked>
									<outputchannelindex>1</outputchannelindex>
								</track>
								<track TL.SQTrackAudioKeyframeStyle="0" TL.SQTrackShy="0" TL.SQTrackExpandedHeight="25" TL.SQTrackExpanded="0" MZ.TrackTargeted="0" PannerCurrentValue="0.5" PannerIsInverted="true" PannerStartKeyframe="-91445760000000000,0.5,0,0,0,0,0,0" PannerName="Balance" currentExplodedTrackIndex="1" totalExplodedTrackCount="2" premiereTrackType="Stereo">
									<enabled>TRUE</enabled>
									<locked>FALSE</locked>
									<outputchannelindex>2</outputchannelindex>
								</track>
							</audio>
						</media>
						<timecode>
							<rate>
								<timebase>30</timebase>
								<ntsc>TRUE</ntsc>
							</rate>
							<string>00;00;00;00</string>
							<frame>0</frame>
							<displayformat>DF</displayformat>
						</timecode>
						<labels>
							<label2>Forest</label2>
						</labels>
						<logginginfo>
							<description></description>
							<scene></scene>
							<shottake></shottake>
							<lognote></lognote>
							<good></good>
							<originalvideofilename></originalvideofilename>
							<originalaudiofilename></originalaudiofilename>
						</logginginfo>
					</sequence>
					<sequence id="sequence-41" TL.SQAudioVisibleBase="0" TL.SQVideoVisibleBase="0" TL.SQVisibleBaseTime="0" TL.SQAVDividerPosition="0.5" TL.SQHideShyTracks="0" TL.SQHeaderWidth="236" TL.SQDataTrackViewControlState="0" Monitor.ProgramZoomOut="46997574624000" Monitor.ProgramZoomIn="0" TL.SQTimePerPixel="0.34525854576026449" MZ.EditLine="17188653081600" MZ.Sequence.PreviewFrameSizeHeight="1080" MZ.Sequence.PreviewFrameSizeWidth="1920" MZ.Sequence.AudioTimeDisplayFormat="200" MZ.Sequence.PreviewRenderingClassID="1061109567" MZ.Sequence.PreviewRenderingPresetCodec="1634755443" MZ.Sequence.PreviewRenderingPresetPath="EncoderPresets/SequencePreview/35d109db-457b-43c1-9452-9cb7be9f121c/QuickTime.epr" MZ.Sequence.PreviewUseMaxRenderQuality="false" MZ.Sequence.PreviewUseMaxBitDepth="false" MZ.Sequence.EditingModeGUID="35d109db-457b-43c1-9452-9cb7be9f121c" MZ.Sequence.VideoTimeDisplayFormat="102" MZ.WorkOutPoint="15239249625600" MZ.WorkInPoint="0" explodedTracks="true">
						<uuid>34a8fb51-0efb-4bf2-b2e0-3008494b9740</uuid>
						<duration>5545</duration>
						<rate>
							<timebase>30</timebase>
							<ntsc>TRUE</ntsc>
						</rate>
						<name>ATM_CRAFTY_309</name>
						<media>
							<video>
								<format>
									<samplecharacteristics>
										<rate>
											<timebase>30</timebase>
											<ntsc>TRUE</ntsc>
										</rate>
										<codec>
											<name>Apple ProRes 422</name>
											<appspecificdata>
												<appname>Final Cut Pro</appname>
												<appmanufacturer>Apple Inc.</appmanufacturer>
												<appversion>7.0</appversion>
												<data>
													<qtcodec>
														<codecname>Apple ProRes 422</codecname>
														<codectypename>Apple ProRes 422</codectypename>
														<codectypecode>apcn</codectypecode>
														<codecvendorcode>appl</codecvendorcode>
														<spatialquality>1024</spatialquality>
														<temporalquality>0</temporalquality>
														<keyframerate>0</keyframerate>
														<datarate>0</datarate>
													</qtcodec>
												</data>
											</appspecificdata>
										</codec>
										<width>1920</width>
										<height>1080</height>
										<anamorphic>FALSE</anamorphic>
										<pixelaspectratio>square</pixelaspectratio>
										<fielddominance>none</fielddominance>
										<colordepth>24</colordepth>
									</samplecharacteristics>
								</format>
								<track TL.SQTrackShy="0" TL.SQTrackExpandedHeight="25" TL.SQTrackExpanded="0" MZ.TrackTargeted="1">
									<clipitem id="clipitem-595">
										<masterclipid>masterclip-191</masterclipid>
										<name>DIY_HOWTOANTIQUEAMIRROR_1</name>
										<enabled>TRUE</enabled>
										<duration>2000</duration>
										<rate>
											<timebase>30</timebase>
											<ntsc>TRUE</ntsc>
										</rate>
										<start>0</start>
										<end>2000</end>
										<in>0</in>
										<out>2000</out>
										<pproTicksIn>0</pproTicksIn>
										<pproTicksOut>16951334400000</pproTicksOut>
										<sequence id="sequence-42" TL.SQAudioVisibleBase="0" TL.SQVideoVisibleBase="0" TL.SQVisibleBaseTime="0" TL.SQAVDividerPosition="0.5" TL.SQHideShyTracks="0" TL.SQHeaderWidth="236" Monitor.ProgramZoomOut="16951334400000" Monitor.ProgramZoomIn="0" TL.SQTimePerPixel="0.073989908444483346" MZ.EditLine="14586623251200" MZ.Sequence.PreviewFrameSizeHeight="1080" MZ.Sequence.PreviewFrameSizeWidth="1920" MZ.Sequence.AudioTimeDisplayFormat="200" MZ.Sequence.PreviewRenderingClassID="1061109567" MZ.Sequence.PreviewRenderingPresetCodec="1634755443" MZ.Sequence.PreviewRenderingPresetPath="EncoderPresets/SequencePreview/35d109db-457b-43c1-9452-9cb7be9f121c/QuickTime.epr" MZ.Sequence.PreviewUseMaxRenderQuality="false" MZ.Sequence.PreviewUseMaxBitDepth="false" MZ.Sequence.EditingModeGUID="35d109db-457b-43c1-9452-9cb7be9f121c" MZ.Sequence.VideoTimeDisplayFormat="102" MZ.WorkOutPoint="16951334400000" MZ.WorkInPoint="0">
											<duration>2000</duration>
											<rate>
												<timebase>30</timebase>
												<ntsc>TRUE</ntsc>
											</rate>
											<name>DIY_HOWTOANTIQUEAMIRROR_1</name>
											<media>
												<video>
													<format>
														<samplecharacteristics>
															<rate>
																<timebase>30</timebase>
																<ntsc>TRUE</ntsc>
															</rate>
															<codec>
																<name>Apple ProRes 422</name>
																<appspecificdata>
																	<appname>Final Cut Pro</appname>
																	<appmanufacturer>Apple Inc.</appmanufacturer>
																	<appversion>7.0</appversion>
																	<data>
																		<qtcodec>
																			<codecname>Apple ProRes 422</codecname>
																			<codectypename>Apple ProRes 422</codectypename>
																			<codectypecode>apcn</codectypecode>
																			<codecvendorcode>appl</codecvendorcode>
																			<spatialquality>1024</spatialquality>
																			<temporalquality>0</temporalquality>
																			<keyframerate>0</keyframerate>
																			<datarate>0</datarate>
																		</qtcodec>
																	</data>
																</appspecificdata>
															</codec>
															<width>1920</width>
															<height>1080</height>
															<anamorphic>FALSE</anamorphic>
															<pixelaspectratio>square</pixelaspectratio>
															<fielddominance>none</fielddominance>
															<colordepth>24</colordepth>
														</samplecharacteristics>
													</format>
													<track TL.SQTrackShy="0" TL.SQTrackExpandedHeight="25" TL.SQTrackExpanded="0" MZ.TrackTargeted="1">
														<clipitem id="clipitem-596">
															<masterclipid>masterclip-192</masterclipid>
															<name>(Shmoxd)_How To Antique a Mirror_GrWXxQ1X6VU_YT.mp4</name>
															<enabled>TRUE</enabled>
															<duration>12047</duration>
															<rate>
																<timebase>30</timebase>
																<ntsc>TRUE</ntsc>
															</rate>
															<start>0</start>
															<end>1644</end>
															<in>7555</in>
															<out>9199</out>
															<pproTicksIn>64033665696000</pproTicksIn>
															<pproTicksOut>77967662572800</pproTicksOut>
															<alphatype>none</alphatype>
															<pixelaspectratio>square</pixelaspectratio>
															<anamorphic>FALSE</anamorphic>
															<file id="file-164">
																<name>(Shmoxd)_How To Antique a Mirror_GrWXxQ1X6VU_YT.mp4</name>
																<pathurl>file://localhost/Volumes/ATM%20JR%202TB/Crafty/2023/06_June/Crafty_6-19-23/3_Raw%20Footage/how%20to%20antique%20a%20mirror/(Shmoxd)_How%20To%20Antique%20a%20Mirror_GrWXxQ1X6VU_YT.mp4</pathurl>
																<rate>
																	<timebase>30</timebase>
																	<ntsc>FALSE</ntsc>
																</rate>
																<duration>12060</duration>
																<timecode>
																	<rate>
																		<timebase>30</timebase>
																		<ntsc>FALSE</ntsc>
																	</rate>
																	<string>00:00:00:00</string>
																	<frame>0</frame>
																	<displayformat>NDF</displayformat>
																</timecode>
																<media>
																	<video>
																		<samplecharacteristics>
																			<rate>
																				<timebase>30</timebase>
																				<ntsc>FALSE</ntsc>
																			</rate>
																			<width>1920</width>
																			<height>1080</height>
																			<anamorphic>FALSE</anamorphic>
																			<pixelaspectratio>square</pixelaspectratio>
																			<fielddominance>none</fielddominance>
																		</samplecharacteristics>
																	</video>
																	<audio>
																		<samplecharacteristics>
																			<depth>16</depth>
																			<samplerate>44100</samplerate>
																		</samplecharacteristics>
																		<channelcount>2</channelcount>
																	</audio>
																</media>
															</file>
															<logginginfo>
																<description></description>
																<scene></scene>
																<shottake></shottake>
																<lognote>https://www.youtube.com/watch?v=GrWXxQ1X6VU</lognote>
																<good></good>
																<originalvideofilename></originalvideofilename>
																<originalaudiofilename></originalaudiofilename>
															</logginginfo>
															<colorinfo>
																<lut></lut>
																<lut1></lut1>
																<asc_sop></asc_sop>
																<asc_sat></asc_sat>
																<lut2></lut2>
															</colorinfo>
															<labels>
																<label2>Iris</label2>
															</labels>
														</clipitem>
														<clipitem id="clipitem-597">
															<masterclipid>masterclip-192</masterclipid>
															<name>(Shmoxd)_How To Antique a Mirror_GrWXxQ1X6VU_YT.mp4</name>
															<enabled>TRUE</enabled>
															<duration>12047</duration>
															<rate>
																<timebase>30</timebase>
																<ntsc>TRUE</ntsc>
															</rate>
															<start>1644</start>
															<end>2000</end>
															<in>10176</in>
															<out>10532</out>
															<pproTicksIn>86248389427200</pproTicksIn>
															<pproTicksOut>89265726950400</pproTicksOut>
															<alphatype>none</alphatype>
															<file id="file-164"/>
															<logginginfo>
																<description></description>
																<scene></scene>
																<shottake></shottake>
																<lognote>https://www.youtube.com/watch?v=GrWXxQ1X6VU</lognote>
																<good></good>
																<originalvideofilename></originalvideofilename>
																<originalaudiofilename></originalaudiofilename>
															</logginginfo>
															<colorinfo>
																<lut></lut>
																<lut1></lut1>
																<asc_sop></asc_sop>
																<asc_sat></asc_sat>
																<lut2></lut2>
															</colorinfo>
															<labels>
																<label2>Iris</label2>
															</labels>
														</clipitem>
														<enabled>TRUE</enabled>
														<locked>FALSE</locked>
													</track>
													<track TL.SQTrackShy="0" TL.SQTrackExpandedHeight="25" TL.SQTrackExpanded="0" MZ.TrackTargeted="0">
														<clipitem id="clipitem-598">
															<masterclipid>masterclip-137</masterclipid>
															<name>SHMOXD</name>
															<enabled>TRUE</enabled>
															<duration>5844</duration>
															<rate>
																<timebase>30</timebase>
																<ntsc>TRUE</ntsc>
															</rate>
															<start>0</start>
															<end>2000</end>
															<in>0</in>
															<out>2000</out>
															<pproTicksIn>0</pproTicksIn>
															<pproTicksOut>16951334400000</pproTicksOut>
															<alphatype>straight</alphatype>
															<file id="file-118"/>
															<logginginfo>
																<description></description>
																<scene></scene>
																<shottake></shottake>
																<lognote></lognote>
																<good></good>
																<originalvideofilename></originalvideofilename>
																<originalaudiofilename></originalaudiofilename>
															</logginginfo>
															<colorinfo>
																<lut></lut>
																<lut1></lut1>
																<asc_sop></asc_sop>
																<asc_sat></asc_sat>
																<lut2></lut2>
															</colorinfo>
															<labels>
																<label2>Rose</label2>
															</labels>
														</clipitem>
														<enabled>TRUE</enabled>
														<locked>FALSE</locked>
													</track>
												</video>
												<audio>
													<numOutputChannels>2</numOutputChannels>
													<format>
														<samplecharacteristics>
															<depth>16</depth>
															<samplerate>48000</samplerate>
														</samplecharacteristics>
													</format>
													<outputs>
														<group>
															<index>1</index>
															<numchannels>1</numchannels>
															<downmix>0</downmix>
															<channel>
																<index>1</index>
															</channel>
														</group>
														<group>
															<index>2</index>
															<numchannels>1</numchannels>
															<downmix>0</downmix>
															<channel>
																<index>2</index>
															</channel>
														</group>
													</outputs>
													<track TL.SQTrackAudioKeyframeStyle="0" TL.SQTrackShy="0" TL.SQTrackExpandedHeight="113" TL.SQTrackExpanded="0" MZ.TrackTargeted="1" PannerCurrentValue="0.5" PannerIsInverted="true" PannerStartKeyframe="-91445760000000000,0.5,0,0,0,0,0,0" PannerName="Balance" currentExplodedTrackIndex="0" totalExplodedTrackCount="2" premiereTrackType="Stereo">
														<transitionitem>
															<start>0</start>
															<end>30</end>
															<pproTicksIn>0</pproTicksIn>
															<pproTicksOut>254270016000</pproTicksOut>
															<alignment>start-black</alignment>
															<cutPointTicks>0</cutPointTicks>
															<rate>
																<timebase>30</timebase>
																<ntsc>TRUE</ntsc>
															</rate>
															<effect>
																<name>Cross Fade (+3dB)</name>
																<effectid>KGAudioTransCrossFade3dB</effectid>
																<effecttype>transition</effecttype>
																<mediatype>audio</mediatype>
																<wipecode>0</wipecode>
																<wipeaccuracy>100</wipeaccuracy>
																<startratio>0</startratio>
																<endratio>1</endratio>
																<reverse>FALSE</reverse>
															</effect>
														</transitionitem>
														<clipitem id="clipitem-599" premiereChannelType="stereo">
															<masterclipid>masterclip-193</masterclipid>
															<name>ES_Summer Is Here - Justnormal.wav</name>
															<enabled>TRUE</enabled>
															<duration>3596</duration>
															<rate>
																<timebase>30</timebase>
																<ntsc>TRUE</ntsc>
															</rate>
															<start>-1</start>
															<end>-1</end>
															<in>223</in>
															<out>1855</out>
															<pproTicksIn>1890073785600</pproTicksIn>
															<pproTicksOut>15722362656000</pproTicksOut>
															<file id="file-165">
																<name>ES_Summer Is Here - Justnormal.wav</name>
																<pathurl>file://localhost/Volumes/ATM%20JR%202TB/Crafty/2023/06_June/Crafty_6-19-23/5_Music/ES_Summer%20Is%20Here%20-%20Justnormal.wav</pathurl>
																<rate>
																	<timebase>30</timebase>
																	<ntsc>TRUE</ntsc>
																</rate>
																<duration>3596</duration>
																<timecode>
																	<rate>
																		<timebase>30</timebase>
																		<ntsc>TRUE</ntsc>
																	</rate>
																	<string>01;17;26;00</string>
																	<frame>139240</frame>
																	<displayformat>DF</displayformat>
																</timecode>
																<media>
																	<audio>
																		<samplecharacteristics>
																			<depth>16</depth>
																			<samplerate>48000</samplerate>
																		</samplecharacteristics>
																		<channelcount>2</channelcount>
																	</audio>
																</media>
															</file>
															<sourcetrack>
																<mediatype>audio</mediatype>
																<trackindex>1</trackindex>
															</sourcetrack>
															<filter>
																<effect>
																	<name>Gain</name>
																	<effectid>{61756678, 4761696e, 4b657947}</effectid>
																	<effecttype>filter</effecttype>
																	<mediatype>audio</mediatype>
																	<parameter authoringApp="PremierePro">
																		<parameterid>Gain(dB)</parameterid>
																		<name>Gain(dB)</name>
																		<valuemin>-96</valuemin>
																		<valuemax>96</valuemax>
																		<value>-8</value>
																	</parameter>
																</effect>
															</filter>
															<filter>
																<effect>
																	<name>Audio Levels</name>
																	<effectid>audiolevels</effectid>
																	<effectcategory>audiolevels</effectcategory>
																	<effecttype>audiolevels</effecttype>
																	<mediatype>audio</mediatype>
																	<pproBypass>false</pproBypass>
																	<parameter authoringApp="PremierePro">
																		<parameterid>level</parameterid>
																		<name>Level</name>
																		<valuemin>0</valuemin>
																		<valuemax>3.98109</valuemax>
																		<value>1.38297</value>
																		<keyframe>
																			<when>161</when>
																			<value>1.38297</value>
																		</keyframe>
																	</parameter>
																</effect>
															</filter>
															<link>
																<linkclipref>clipitem-599</linkclipref>
																<mediatype>audio</mediatype>
																<trackindex>1</trackindex>
																<clipindex>2</clipindex>
																<groupindex>1</groupindex>
															</link>
															<link>
																<linkclipref>clipitem-601</linkclipref>
																<mediatype>audio</mediatype>
																<trackindex>2</trackindex>
																<clipindex>2</clipindex>
																<groupindex>1</groupindex>
															</link>
															<logginginfo>
																<description></description>
																<scene></scene>
																<shottake></shottake>
																<lognote></lognote>
																<good></good>
																<originalvideofilename></originalvideofilename>
																<originalaudiofilename></originalaudiofilename>
															</logginginfo>
															<colorinfo>
																<lut></lut>
																<lut1></lut1>
																<asc_sop></asc_sop>
																<asc_sat></asc_sat>
																<lut2></lut2>
															</colorinfo>
															<labels>
																<label2>Caribbean</label2>
															</labels>
														</clipitem>
														<transitionitem>
															<start>1602</start>
															<end>1632</end>
															<pproTicksIn>13578018854400</pproTicksIn>
															<pproTicksOut>13832288870400</pproTicksOut>
															<alignment>center</alignment>
															<cutPointTicks>127135008000</cutPointTicks>
															<rate>
																<timebase>30</timebase>
																<ntsc>TRUE</ntsc>
															</rate>
															<effect>
																<name>Cross Fade (+3dB)</name>
																<effectid>KGAudioTransCrossFade3dB</effectid>
																<effecttype>transition</effecttype>
																<mediatype>audio</mediatype>
																<wipecode>0</wipecode>
																<wipeaccuracy>100</wipeaccuracy>
																<startratio>0</startratio>
																<endratio>1</endratio>
																<reverse>FALSE</reverse>
															</effect>
														</transitionitem>
														<clipitem id="clipitem-600" premiereChannelType="stereo">
															<masterclipid>masterclip-193</masterclipid>
															<name>ES_Summer Is Here - Justnormal.wav</name>
															<enabled>TRUE</enabled>
															<duration>3596</duration>
															<rate>
																<timebase>30</timebase>
																<ntsc>TRUE</ntsc>
															</rate>
															<start>-1</start>
															<end>-1</end>
															<in>1955</in>
															<out>2353</out>
															<pproTicksIn>16569929376000</pproTicksIn>
															<pproTicksOut>19943244921600</pproTicksOut>
															<file id="file-165"/>
															<sourcetrack>
																<mediatype>audio</mediatype>
																<trackindex>1</trackindex>
															</sourcetrack>
															<filter>
																<effect>
																	<name>Gain</name>
																	<effectid>{61756678, 4761696e, 4b657947}</effectid>
																	<effecttype>filter</effecttype>
																	<mediatype>audio</mediatype>
																	<parameter authoringApp="PremierePro">
																		<parameterid>Gain(dB)</parameterid>
																		<name>Gain(dB)</name>
																		<valuemin>-96</valuemin>
																		<valuemax>96</valuemax>
																		<value>-8</value>
																	</parameter>
																</effect>
															</filter>
															<filter>
																<effect>
																	<name>Audio Levels</name>
																	<effectid>audiolevels</effectid>
																	<effectcategory>audiolevels</effectcategory>
																	<effecttype>audiolevels</effecttype>
																	<mediatype>audio</mediatype>
																	<pproBypass>false</pproBypass>
																	<parameter authoringApp="PremierePro">
																		<parameterid>level</parameterid>
																		<name>Level</name>
																		<valuemin>0</valuemin>
																		<valuemax>3.98109</valuemax>
																		<value>1.38297</value>
																		<keyframe>
																			<when>161</when>
																			<value>1.38297</value>
																		</keyframe>
																	</parameter>
																</effect>
															</filter>
															<link>
																<linkclipref>clipitem-600</linkclipref>
																<mediatype>audio</mediatype>
																<trackindex>1</trackindex>
																<clipindex>4</clipindex>
																<groupindex>1</groupindex>
															</link>
															<link>
																<linkclipref>clipitem-602</linkclipref>
																<mediatype>audio</mediatype>
																<trackindex>2</trackindex>
																<clipindex>4</clipindex>
																<groupindex>1</groupindex>
															</link>
															<logginginfo>
																<description></description>
																<scene></scene>
																<shottake></shottake>
																<lognote></lognote>
																<good></good>
																<originalvideofilename></originalvideofilename>
																<originalaudiofilename></originalaudiofilename>
															</logginginfo>
															<colorinfo>
																<lut></lut>
																<lut1></lut1>
																<asc_sop></asc_sop>
																<asc_sat></asc_sat>
																<lut2></lut2>
															</colorinfo>
															<labels>
																<label2>Caribbean</label2>
															</labels>
														</clipitem>
														<transitionitem>
															<start>1880</start>
															<end>2000</end>
															<pproTicksIn>15934254336000</pproTicksIn>
															<pproTicksOut>16951334400000</pproTicksOut>
															<alignment>end-black</alignment>
															<cutPointTicks>1017080064000</cutPointTicks>
															<rate>
																<timebase>30</timebase>
																<ntsc>TRUE</ntsc>
															</rate>
															<effect>
																<name>Cross Fade (+3dB)</name>
																<effectid>KGAudioTransCrossFade3dB</effectid>
																<effecttype>transition</effecttype>
																<mediatype>audio</mediatype>
																<wipecode>0</wipecode>
																<wipeaccuracy>100</wipeaccuracy>
																<startratio>0</startratio>
																<endratio>1</endratio>
																<reverse>FALSE</reverse>
															</effect>
														</transitionitem>
														<enabled>TRUE</enabled>
														<locked>FALSE</locked>
														<outputchannelindex>1</outputchannelindex>
													</track>
													<track TL.SQTrackAudioKeyframeStyle="0" TL.SQTrackShy="0" TL.SQTrackExpandedHeight="113" TL.SQTrackExpanded="0" MZ.TrackTargeted="1" PannerCurrentValue="0.5" PannerIsInverted="true" PannerStartKeyframe="-91445760000000000,0.5,0,0,0,0,0,0" PannerName="Balance" currentExplodedTrackIndex="1" totalExplodedTrackCount="2" premiereTrackType="Stereo">
														<transitionitem>
															<start>0</start>
															<end>30</end>
															<pproTicksIn>0</pproTicksIn>
															<pproTicksOut>254270016000</pproTicksOut>
															<alignment>start-black</alignment>
															<cutPointTicks>0</cutPointTicks>
															<rate>
																<timebase>30</timebase>
																<ntsc>TRUE</ntsc>
															</rate>
															<effect>
																<name>Cross Fade (+3dB)</name>
																<effectid>KGAudioTransCrossFade3dB</effectid>
																<effecttype>transition</effecttype>
																<mediatype>audio</mediatype>
																<wipecode>0</wipecode>
																<wipeaccuracy>100</wipeaccuracy>
																<startratio>0</startratio>
																<endratio>1</endratio>
																<reverse>FALSE</reverse>
															</effect>
														</transitionitem>
														<clipitem id="clipitem-601" premiereChannelType="stereo">
															<masterclipid>masterclip-193</masterclipid>
															<name>ES_Summer Is Here - Justnormal.wav</name>
															<enabled>TRUE</enabled>
															<duration>3596</duration>
															<rate>
																<timebase>30</timebase>
																<ntsc>TRUE</ntsc>
															</rate>
															<start>-1</start>
															<end>-1</end>
															<in>223</in>
															<out>1855</out>
															<pproTicksIn>1890073785600</pproTicksIn>
															<pproTicksOut>15722362656000</pproTicksOut>
															<file id="file-165"/>
															<sourcetrack>
																<mediatype>audio</mediatype>
																<trackindex>2</trackindex>
															</sourcetrack>
															<filter>
																<effect>
																	<name>Gain</name>
																	<effectid>{61756678, 4761696e, 4b657947}</effectid>
																	<effecttype>filter</effecttype>
																	<mediatype>audio</mediatype>
																	<parameter authoringApp="PremierePro">
																		<parameterid>Gain(dB)</parameterid>
																		<name>Gain(dB)</name>
																		<valuemin>-96</valuemin>
																		<valuemax>96</valuemax>
																		<value>-8</value>
																	</parameter>
																</effect>
															</filter>
															<filter>
																<effect>
																	<name>Audio Levels</name>
																	<effectid>audiolevels</effectid>
																	<effectcategory>audiolevels</effectcategory>
																	<effecttype>audiolevels</effecttype>
																	<mediatype>audio</mediatype>
																	<pproBypass>false</pproBypass>
																	<parameter authoringApp="PremierePro">
																		<parameterid>level</parameterid>
																		<name>Level</name>
																		<valuemin>0</valuemin>
																		<valuemax>3.98109</valuemax>
																		<value>1.38297</value>
																		<keyframe>
																			<when>161</when>
																			<value>1.38297</value>
																		</keyframe>
																	</parameter>
																</effect>
															</filter>
															<link>
																<linkclipref>clipitem-599</linkclipref>
																<mediatype>audio</mediatype>
																<trackindex>1</trackindex>
																<clipindex>2</clipindex>
																<groupindex>1</groupindex>
															</link>
															<link>
																<linkclipref>clipitem-601</linkclipref>
																<mediatype>audio</mediatype>
																<trackindex>2</trackindex>
																<clipindex>2</clipindex>
																<groupindex>1</groupindex>
															</link>
															<logginginfo>
																<description></description>
																<scene></scene>
																<shottake></shottake>
																<lognote></lognote>
																<good></good>
																<originalvideofilename></originalvideofilename>
																<originalaudiofilename></originalaudiofilename>
															</logginginfo>
															<colorinfo>
																<lut></lut>
																<lut1></lut1>
																<asc_sop></asc_sop>
																<asc_sat></asc_sat>
																<lut2></lut2>
															</colorinfo>
															<labels>
																<label2>Caribbean</label2>
															</labels>
														</clipitem>
														<transitionitem>
															<start>1602</start>
															<end>1632</end>
															<pproTicksIn>13578018854400</pproTicksIn>
															<pproTicksOut>13832288870400</pproTicksOut>
															<alignment>center</alignment>
															<cutPointTicks>127135008000</cutPointTicks>
															<rate>
																<timebase>30</timebase>
																<ntsc>TRUE</ntsc>
															</rate>
															<effect>
																<name>Cross Fade (+3dB)</name>
																<effectid>KGAudioTransCrossFade3dB</effectid>
																<effecttype>transition</effecttype>
																<mediatype>audio</mediatype>
																<wipecode>0</wipecode>
																<wipeaccuracy>100</wipeaccuracy>
																<startratio>0</startratio>
																<endratio>1</endratio>
																<reverse>FALSE</reverse>
															</effect>
														</transitionitem>
														<clipitem id="clipitem-602" premiereChannelType="stereo">
															<masterclipid>masterclip-193</masterclipid>
															<name>ES_Summer Is Here - Justnormal.wav</name>
															<enabled>TRUE</enabled>
															<duration>3596</duration>
															<rate>
																<timebase>30</timebase>
																<ntsc>TRUE</ntsc>
															</rate>
															<start>-1</start>
															<end>-1</end>
															<in>1955</in>
															<out>2353</out>
															<pproTicksIn>16569929376000</pproTicksIn>
															<pproTicksOut>19943244921600</pproTicksOut>
															<file id="file-165"/>
															<sourcetrack>
																<mediatype>audio</mediatype>
																<trackindex>2</trackindex>
															</sourcetrack>
															<filter>
																<effect>
																	<name>Gain</name>
																	<effectid>{61756678, 4761696e, 4b657947}</effectid>
																	<effecttype>filter</effecttype>
																	<mediatype>audio</mediatype>
																	<parameter authoringApp="PremierePro">
																		<parameterid>Gain(dB)</parameterid>
																		<name>Gain(dB)</name>
																		<valuemin>-96</valuemin>
																		<valuemax>96</valuemax>
																		<value>-8</value>
																	</parameter>
																</effect>
															</filter>
															<filter>
																<effect>
																	<name>Audio Levels</name>
																	<effectid>audiolevels</effectid>
																	<effectcategory>audiolevels</effectcategory>
																	<effecttype>audiolevels</effecttype>
																	<mediatype>audio</mediatype>
																	<pproBypass>false</pproBypass>
																	<parameter authoringApp="PremierePro">
																		<parameterid>level</parameterid>
																		<name>Level</name>
																		<valuemin>0</valuemin>
																		<valuemax>3.98109</valuemax>
																		<value>1.38297</value>
																		<keyframe>
																			<when>161</when>
																			<value>1.38297</value>
																		</keyframe>
																	</parameter>
																</effect>
															</filter>
															<link>
																<linkclipref>clipitem-600</linkclipref>
																<mediatype>audio</mediatype>
																<trackindex>1</trackindex>
																<clipindex>4</clipindex>
																<groupindex>1</groupindex>
															</link>
															<link>
																<linkclipref>clipitem-602</linkclipref>
																<mediatype>audio</mediatype>
																<trackindex>2</trackindex>
																<clipindex>4</clipindex>
																<groupindex>1</groupindex>
															</link>
															<logginginfo>
																<description></description>
																<scene></scene>
																<shottake></shottake>
																<lognote></lognote>
																<good></good>
																<originalvideofilename></originalvideofilename>
																<originalaudiofilename></originalaudiofilename>
															</logginginfo>
															<colorinfo>
																<lut></lut>
																<lut1></lut1>
																<asc_sop></asc_sop>
																<asc_sat></asc_sat>
																<lut2></lut2>
															</colorinfo>
															<labels>
																<label2>Caribbean</label2>
															</labels>
														</clipitem>
														<transitionitem>
															<start>1880</start>
															<end>2000</end>
															<pproTicksIn>15934254336000</pproTicksIn>
															<pproTicksOut>16951334400000</pproTicksOut>
															<alignment>end-black</alignment>
															<cutPointTicks>1017080064000</cutPointTicks>
															<rate>
																<timebase>30</timebase>
																<ntsc>TRUE</ntsc>
															</rate>
															<effect>
																<name>Cross Fade (+3dB)</name>
																<effectid>KGAudioTransCrossFade3dB</effectid>
																<effecttype>transition</effecttype>
																<mediatype>audio</mediatype>
																<wipecode>0</wipecode>
																<wipeaccuracy>100</wipeaccuracy>
																<startratio>0</startratio>
																<endratio>1</endratio>
																<reverse>FALSE</reverse>
															</effect>
														</transitionitem>
														<enabled>TRUE</enabled>
														<locked>FALSE</locked>
														<outputchannelindex>2</outputchannelindex>
													</track>
												</audio>
											</media>
											<timecode>
												<rate>
													<timebase>30</timebase>
													<ntsc>TRUE</ntsc>
												</rate>
												<string>00;00;00;00</string>
												<frame>0</frame>
												<displayformat>DF</displayformat>
											</timecode>
											<logginginfo>
												<description></description>
												<scene></scene>
												<shottake></shottake>
												<lognote></lognote>
												<good></good>
												<originalvideofilename></originalvideofilename>
												<originalaudiofilename></originalaudiofilename>
											</logginginfo>
										</sequence>
										<link>
											<linkclipref>clipitem-595</linkclipref>
											<mediatype>video</mediatype>
											<trackindex>1</trackindex>
											<clipindex>1</clipindex>
										</link>
										<link>
											<linkclipref>clipitem-632</linkclipref>
											<mediatype>audio</mediatype>
											<trackindex>1</trackindex>
											<clipindex>1</clipindex>
											<groupindex>1</groupindex>
										</link>
										<link>
											<linkclipref>clipitem-635</linkclipref>
											<mediatype>audio</mediatype>
											<trackindex>2</trackindex>
											<clipindex>1</clipindex>
											<groupindex>1</groupindex>
										</link>
										<labels>
											<label2>Forest</label2>
										</labels>
									</clipitem>
									<clipitem id="clipitem-603">
										<masterclipid>masterclip-194</masterclipid>
										<name>ART_RESINWONDERSOFTHEWORLD_2</name>
										<enabled>TRUE</enabled>
										<duration>3397</duration>
										<rate>
											<timebase>30</timebase>
											<ntsc>TRUE</ntsc>
										</rate>
										<start>2100</start>
										<end>5246</end>
										<in>0</in>
										<out>3146</out>
										<pproTicksIn>0</pproTicksIn>
										<pproTicksOut>26664449011200</pproTicksOut>
										<sequence id="sequence-43" TL.SQAudioVisibleBase="0" TL.SQVideoVisibleBase="0" TL.SQVisibleBaseTime="12055971612965" TL.SQAVDividerPosition="0.5" TL.SQHideShyTracks="0" TL.SQHeaderWidth="236" Monitor.ProgramZoomOut="26732254348800" Monitor.ProgramZoomIn="0" TL.SQTimePerPixel="0.071064345380081051" MZ.EditLine="533967033600" MZ.Sequence.PreviewFrameSizeHeight="1080" MZ.Sequence.PreviewFrameSizeWidth="1920" MZ.Sequence.AudioTimeDisplayFormat="200" MZ.Sequence.PreviewRenderingClassID="1061109567" MZ.Sequence.PreviewRenderingPresetCodec="1634755443" MZ.Sequence.PreviewRenderingPresetPath="EncoderPresets/SequencePreview/35d109db-457b-43c1-9452-9cb7be9f121c/QuickTime.epr" MZ.Sequence.PreviewUseMaxRenderQuality="false" MZ.Sequence.PreviewUseMaxBitDepth="false" MZ.Sequence.EditingModeGUID="35d109db-457b-43c1-9452-9cb7be9f121c" MZ.Sequence.VideoTimeDisplayFormat="102" MZ.WorkOutPoint="28791841478400" MZ.WorkInPoint="0">
											<duration>3154</duration>
											<rate>
												<timebase>30</timebase>
												<ntsc>TRUE</ntsc>
											</rate>
											<name>ART_RESINWONDERSOFTHEWORLD_2</name>
											<media>
												<video>
													<format>
														<samplecharacteristics>
															<rate>
																<timebase>30</timebase>
																<ntsc>TRUE</ntsc>
															</rate>
															<codec>
																<name>Apple ProRes 422</name>
																<appspecificdata>
																	<appname>Final Cut Pro</appname>
																	<appmanufacturer>Apple Inc.</appmanufacturer>
																	<appversion>7.0</appversion>
																	<data>
																		<qtcodec>
																			<codecname>Apple ProRes 422</codecname>
																			<codectypename>Apple ProRes 422</codectypename>
																			<codectypecode>apcn</codectypecode>
																			<codecvendorcode>appl</codecvendorcode>
																			<spatialquality>1024</spatialquality>
																			<temporalquality>0</temporalquality>
																			<keyframerate>0</keyframerate>
																			<datarate>0</datarate>
																		</qtcodec>
																	</data>
																</appspecificdata>
															</codec>
															<width>1920</width>
															<height>1080</height>
															<anamorphic>FALSE</anamorphic>
															<pixelaspectratio>square</pixelaspectratio>
															<fielddominance>none</fielddominance>
															<colordepth>24</colordepth>
														</samplecharacteristics>
													</format>
													<track TL.SQTrackShy="0" TL.SQTrackExpandedHeight="25" TL.SQTrackExpanded="0" MZ.TrackTargeted="1">
														<clipitem id="clipitem-604">
															<masterclipid>masterclip-195</masterclipid>
															<name>(cinethia)_Resin jar with sprinkles! #resin #resinpour #resinart #functionalart #usefulgadgets #resinpro_qVYulUAEL34_YT.mp4</name>
															<enabled>TRUE</enabled>
															<duration>873</duration>
															<rate>
																<timebase>30</timebase>
																<ntsc>TRUE</ntsc>
															</rate>
															<start>0</start>
															<end>873</end>
															<in>0</in>
															<out>873</out>
															<pproTicksIn>0</pproTicksIn>
															<pproTicksOut>7399257465600</pproTicksOut>
															<alphatype>none</alphatype>
															<pixelaspectratio>square</pixelaspectratio>
															<anamorphic>FALSE</anamorphic>
															<file id="file-166">
																<name>(cinethia)_Resin jar with sprinkles! #resin #resinpour #resinart #functionalart #usefulgadgets #resinpro_qVYulUAEL34_YT.mp4</name>
																<pathurl>file://localhost/Volumes/ATM%20JR%202TB/Crafty/2023/06_June/Crafty_6-19-23/3_Raw%20Footage/resin/(cinethia)_Resin%20jar%20with%20sprinkles!%20#resin%20#resinpour%20#resinart%20#functionalart%20#usefulgadgets%20#resinpro_qVYulUAEL34_YT.mp4</pathurl>
																<rate>
																	<timebase>30</timebase>
																	<ntsc>FALSE</ntsc>
																</rate>
																<duration>874</duration>
																<timecode>
																	<rate>
																		<timebase>30</timebase>
																		<ntsc>FALSE</ntsc>
																	</rate>
																	<string>00:00:00:00</string>
																	<frame>0</frame>
																	<displayformat>NDF</displayformat>
																</timecode>
																<media>
																	<video>
																		<samplecharacteristics>
																			<rate>
																				<timebase>30</timebase>
																				<ntsc>FALSE</ntsc>
																			</rate>
																			<width>720</width>
																			<height>1280</height>
																			<anamorphic>FALSE</anamorphic>
																			<pixelaspectratio>square</pixelaspectratio>
																			<fielddominance>none</fielddominance>
																		</samplecharacteristics>
																	</video>
																	<audio>
																		<samplecharacteristics>
																			<depth>16</depth>
																			<samplerate>44100</samplerate>
																		</samplecharacteristics>
																		<channelcount>2</channelcount>
																	</audio>
																</media>
															</file>
															<filter>
																<effect>
																	<name>Basic Motion</name>
																	<effectid>basic</effectid>
																	<effectcategory>motion</effectcategory>
																	<effecttype>motion</effecttype>
																	<mediatype>video</mediatype>
																	<pproBypass>false</pproBypass>
																	<parameter authoringApp="PremierePro">
																		<parameterid>scale</parameterid>
																		<name>Scale</name>
																		<valuemin>0</valuemin>
																		<valuemax>1000</valuemax>
																		<value>300</value>
																	</parameter>
																	<parameter authoringApp="PremierePro">
																		<parameterid>rotation</parameterid>
																		<name>Rotation</name>
																		<valuemin>-8640</valuemin>
																		<valuemax>8640</valuemax>
																		<value>0</value>
																	</parameter>
																	<parameter authoringApp="PremierePro">
																		<parameterid>center</parameterid>
																		<name>Center</name>
																		<value>
																			<horiz>0</horiz>
																			<vert>0</vert>
																		</value>
																	</parameter>
																	<parameter authoringApp="PremierePro">
																		<parameterid>centerOffset</parameterid>
																		<name>Anchor Point</name>
																		<value>
																			<horiz>0</horiz>
																			<vert>0</vert>
																		</value>
																	</parameter>
																	<parameter authoringApp="PremierePro">
																		<parameterid>antiflicker</parameterid>
																		<name>Anti-flicker Filter</name>
																		<valuemin>0.0</valuemin>
																		<valuemax>1.0</valuemax>
																		<value>0</value>
																	</parameter>
																</effect>
															</filter>
															<filter>
																<effect>
																	<name>Gaussian Blur</name>
																	<effectid>Gaussian Blur</effectid>
																	<effectcategory>Blur</effectcategory>
																	<effecttype>motion</effecttype>
																	<mediatype>video</mediatype>
																	<pproBypass>false</pproBypass>
																	<parameter authoringApp="PremierePro">
																		<parameterid>radius</parameterid>
																		<name>Radius</name>
																		<valuemin>0</valuemin>
																		<valuemax>100</valuemax>
																		<value>150</value>
																	</parameter>
																</effect>
															</filter>
															<logginginfo>
																<description></description>
																<scene></scene>
																<shottake></shottake>
																<lognote></lognote>
																<good></good>
																<originalvideofilename></originalvideofilename>
																<originalaudiofilename></originalaudiofilename>
															</logginginfo>
															<colorinfo>
																<lut></lut>
																<lut1></lut1>
																<asc_sop></asc_sop>
																<asc_sat></asc_sat>
																<lut2></lut2>
															</colorinfo>
															<labels>
																<label2>Violet</label2>
															</labels>
														</clipitem>
														<clipitem id="clipitem-605">
															<masterclipid>masterclip-196</masterclipid>
															<name>(kellyybellyy62)_CC_Yz8JnzB9_IG.mp4</name>
															<enabled>TRUE</enabled>
															<duration>2992</duration>
															<rate>
																<timebase>30</timebase>
																<ntsc>TRUE</ntsc>
															</rate>
															<start>873</start>
															<end>1293</end>
															<in>0</in>
															<out>420</out>
															<pproTicksIn>0</pproTicksIn>
															<pproTicksOut>3559780224000</pproTicksOut>
															<alphatype>none</alphatype>
															<pixelaspectratio>square</pixelaspectratio>
															<anamorphic>FALSE</anamorphic>
															<file id="file-167">
																<name>(kellyybellyy62)_CC_Yz8JnzB9_IG.mp4</name>
																<pathurl>file://localhost/Volumes/ATM%20JR%202TB/Crafty/2023/06_June/Crafty_6-19-23/3_Raw%20Footage/resin/(kellyybellyy62)_CC_Yz8JnzB9_IG.mp4</pathurl>
																<rate>
																	<timebase>30</timebase>
																	<ntsc>FALSE</ntsc>
																</rate>
																<duration>2995</duration>
																<timecode>
																	<rate>
																		<timebase>30</timebase>
																		<ntsc>FALSE</ntsc>
																	</rate>
																	<string>00:00:00:00</string>
																	<frame>0</frame>
																	<displayformat>NDF</displayformat>
																</timecode>
																<media>
																	<video>
																		<samplecharacteristics>
																			<rate>
																				<timebase>30</timebase>
																				<ntsc>FALSE</ntsc>
																			</rate>
																			<width>720</width>
																			<height>1280</height>
																			<anamorphic>FALSE</anamorphic>
																			<pixelaspectratio>square</pixelaspectratio>
																			<fielddominance>none</fielddominance>
																		</samplecharacteristics>
																	</video>
																	<audio>
																		<samplecharacteristics>
																			<depth>16</depth>
																			<samplerate>44100</samplerate>
																		</samplecharacteristics>
																		<channelcount>2</channelcount>
																	</audio>
																</media>
															</file>
															<filter>
																<effect>
																	<name>Basic Motion</name>
																	<effectid>basic</effectid>
																	<effectcategory>motion</effectcategory>
																	<effecttype>motion</effecttype>
																	<mediatype>video</mediatype>
																	<pproBypass>false</pproBypass>
																	<parameter authoringApp="PremierePro">
																		<parameterid>scale</parameterid>
																		<name>Scale</name>
																		<valuemin>0</valuemin>
																		<valuemax>1000</valuemax>
																		<value>300</value>
																	</parameter>
																	<parameter authoringApp="PremierePro">
																		<parameterid>rotation</parameterid>
																		<name>Rotation</name>
																		<valuemin>-8640</valuemin>
																		<valuemax>8640</valuemax>
																		<value>0</value>
																	</parameter>
																	<parameter authoringApp="PremierePro">
																		<parameterid>center</parameterid>
																		<name>Center</name>
																		<value>
																			<horiz>0</horiz>
																			<vert>0</vert>
																		</value>
																	</parameter>
																	<parameter authoringApp="PremierePro">
																		<parameterid>centerOffset</parameterid>
																		<name>Anchor Point</name>
																		<value>
																			<horiz>0</horiz>
																			<vert>0</vert>
																		</value>
																	</parameter>
																	<parameter authoringApp="PremierePro">
																		<parameterid>antiflicker</parameterid>
																		<name>Anti-flicker Filter</name>
																		<valuemin>0.0</valuemin>
																		<valuemax>1.0</valuemax>
																		<value>0</value>
																	</parameter>
																</effect>
															</filter>
															<filter>
																<effect>
																	<name>Gaussian Blur</name>
																	<effectid>Gaussian Blur</effectid>
																	<effectcategory>Blur</effectcategory>
																	<effecttype>motion</effecttype>
																	<mediatype>video</mediatype>
																	<pproBypass>false</pproBypass>
																	<parameter authoringApp="PremierePro">
																		<parameterid>radius</parameterid>
																		<name>Radius</name>
																		<valuemin>0</valuemin>
																		<valuemax>100</valuemax>
																		<value>150</value>
																	</parameter>
																</effect>
															</filter>
															<logginginfo>
																<description></description>
																<scene></scene>
																<shottake></shottake>
																<lognote></lognote>
																<good></good>
																<originalvideofilename></originalvideofilename>
																<originalaudiofilename></originalaudiofilename>
															</logginginfo>
															<colorinfo>
																<lut></lut>
																<lut1></lut1>
																<asc_sop></asc_sop>
																<asc_sat></asc_sat>
																<lut2></lut2>
															</colorinfo>
															<labels>
																<label2>Iris</label2>
															</labels>
														</clipitem>
														<clipitem id="clipitem-606">
															<masterclipid>masterclip-196</masterclipid>
															<name>(kellyybellyy62)_CC_Yz8JnzB9_IG.mp4</name>
															<enabled>TRUE</enabled>
															<duration>2992</duration>
															<rate>
																<timebase>30</timebase>
																<ntsc>TRUE</ntsc>
															</rate>
															<start>1293</start>
															<end>1771</end>
															<in>1641</in>
															<out>2119</out>
															<pproTicksIn>13908569875200</pproTicksIn>
															<pproTicksOut>17959938796800</pproTicksOut>
															<alphatype>none</alphatype>
															<file id="file-167"/>
															<filter>
																<effect>
																	<name>Basic Motion</name>
																	<effectid>basic</effectid>
																	<effectcategory>motion</effectcategory>
																	<effecttype>motion</effecttype>
																	<mediatype>video</mediatype>
																	<pproBypass>false</pproBypass>
																	<parameter authoringApp="PremierePro">
																		<parameterid>scale</parameterid>
																		<name>Scale</name>
																		<valuemin>0</valuemin>
																		<valuemax>1000</valuemax>
																		<value>300</value>
																	</parameter>
																	<parameter authoringApp="PremierePro">
																		<parameterid>rotation</parameterid>
																		<name>Rotation</name>
																		<valuemin>-8640</valuemin>
																		<valuemax>8640</valuemax>
																		<value>0</value>
																	</parameter>
																	<parameter authoringApp="PremierePro">
																		<parameterid>center</parameterid>
																		<name>Center</name>
																		<value>
																			<horiz>0</horiz>
																			<vert>0</vert>
																		</value>
																	</parameter>
																	<parameter authoringApp="PremierePro">
																		<parameterid>centerOffset</parameterid>
																		<name>Anchor Point</name>
																		<value>
																			<horiz>0</horiz>
																			<vert>0</vert>
																		</value>
																	</parameter>
																	<parameter authoringApp="PremierePro">
																		<parameterid>antiflicker</parameterid>
																		<name>Anti-flicker Filter</name>
																		<valuemin>0.0</valuemin>
																		<valuemax>1.0</valuemax>
																		<value>0</value>
																	</parameter>
																</effect>
															</filter>
															<filter>
																<effect>
																	<name>Gaussian Blur</name>
																	<effectid>Gaussian Blur</effectid>
																	<effectcategory>Blur</effectcategory>
																	<effecttype>motion</effecttype>
																	<mediatype>video</mediatype>
																	<pproBypass>false</pproBypass>
																	<parameter authoringApp="PremierePro">
																		<parameterid>radius</parameterid>
																		<name>Radius</name>
																		<valuemin>0</valuemin>
																		<valuemax>100</valuemax>
																		<value>150</value>
																	</parameter>
																</effect>
															</filter>
															<logginginfo>
																<description></description>
																<scene></scene>
																<shottake></shottake>
																<lognote></lognote>
																<good></good>
																<originalvideofilename></originalvideofilename>
																<originalaudiofilename></originalaudiofilename>
															</logginginfo>
															<colorinfo>
																<lut></lut>
																<lut1></lut1>
																<asc_sop></asc_sop>
																<asc_sat></asc_sat>
																<lut2></lut2>
															</colorinfo>
															<labels>
																<label2>Iris</label2>
															</labels>
														</clipitem>
														<clipitem id="clipitem-607">
															<masterclipid>masterclip-196</masterclipid>
															<name>(kellyybellyy62)_CC_Yz8JnzB9_IG.mp4</name>
															<enabled>TRUE</enabled>
															<duration>2992</duration>
															<rate>
																<timebase>30</timebase>
																<ntsc>TRUE</ntsc>
															</rate>
															<start>1771</start>
															<end>2055</end>
															<in>2205</in>
															<out>2489</out>
															<pproTicksIn>18688846176000</pproTicksIn>
															<pproTicksOut>21095935660800</pproTicksOut>
															<alphatype>none</alphatype>
															<file id="file-167"/>
															<filter>
																<effect>
																	<name>Basic Motion</name>
																	<effectid>basic</effectid>
																	<effectcategory>motion</effectcategory>
																	<effecttype>motion</effecttype>
																	<mediatype>video</mediatype>
																	<pproBypass>false</pproBypass>
																	<parameter authoringApp="PremierePro">
																		<parameterid>scale</parameterid>
																		<name>Scale</name>
																		<valuemin>0</valuemin>
																		<valuemax>1000</valuemax>
																		<value>300</value>
																	</parameter>
																	<parameter authoringApp="PremierePro">
																		<parameterid>rotation</parameterid>
																		<name>Rotation</name>
																		<valuemin>-8640</valuemin>
																		<valuemax>8640</valuemax>
																		<value>0</value>
																	</parameter>
																	<parameter authoringApp="PremierePro">
																		<parameterid>center</parameterid>
																		<name>Center</name>
																		<value>
																			<horiz>0</horiz>
																			<vert>0</vert>
																		</value>
																	</parameter>
																	<parameter authoringApp="PremierePro">
																		<parameterid>centerOffset</parameterid>
																		<name>Anchor Point</name>
																		<value>
																			<horiz>0</horiz>
																			<vert>0</vert>
																		</value>
																	</parameter>
																	<parameter authoringApp="PremierePro">
																		<parameterid>antiflicker</parameterid>
																		<name>Anti-flicker Filter</name>
																		<valuemin>0.0</valuemin>
																		<valuemax>1.0</valuemax>
																		<value>0</value>
																	</parameter>
																</effect>
															</filter>
															<filter>
																<effect>
																	<name>Gaussian Blur</name>
																	<effectid>Gaussian Blur</effectid>
																	<effectcategory>Blur</effectcategory>
																	<effecttype>motion</effecttype>
																	<mediatype>video</mediatype>
																	<pproBypass>false</pproBypass>
																	<parameter authoringApp="PremierePro">
																		<parameterid>radius</parameterid>
																		<name>Radius</name>
																		<valuemin>0</valuemin>
																		<valuemax>100</valuemax>
																		<value>150</value>
																	</parameter>
																</effect>
															</filter>
															<logginginfo>
																<description></description>
																<scene></scene>
																<shottake></shottake>
																<lognote></lognote>
																<good></good>
																<originalvideofilename></originalvideofilename>
																<originalaudiofilename></originalaudiofilename>
															</logginginfo>
															<colorinfo>
																<lut></lut>
																<lut1></lut1>
																<asc_sop></asc_sop>
																<asc_sat></asc_sat>
																<lut2></lut2>
															</colorinfo>
															<labels>
																<label2>Iris</label2>
															</labels>
														</clipitem>
														<clipitem id="clipitem-608">
															<masterclipid>masterclip-197</masterclipid>
															<name>(cinethia)_Resin cat with flower face_UdizfUsyf6w_YT.mp4</name>
															<enabled>TRUE</enabled>
															<duration>296</duration>
															<rate>
																<timebase>30</timebase>
																<ntsc>TRUE</ntsc>
															</rate>
															<start>2055</start>
															<end>2351</end>
															<in>0</in>
															<out>296</out>
															<pproTicksIn>0</pproTicksIn>
															<pproTicksOut>2508797491200</pproTicksOut>
															<alphatype>none</alphatype>
															<pixelaspectratio>square</pixelaspectratio>
															<anamorphic>FALSE</anamorphic>
															<file id="file-168">
																<name>(cinethia)_Resin cat with flower face_UdizfUsyf6w_YT.mp4</name>
																<pathurl>file://localhost/Volumes/ATM%20JR%202TB/Crafty/2023/06_June/Crafty_6-19-23/3_Raw%20Footage/resin/(cinethia)_Resin%20cat%20with%20flower%20face_UdizfUsyf6w_YT.mp4</pathurl>
																<rate>
																	<timebase>59</timebase>
																	<ntsc>FALSE</ntsc>
																</rate>
																<duration>591</duration>
																<timecode>
																	<rate>
																		<timebase>59</timebase>
																		<ntsc>FALSE</ntsc>
																	</rate>
																	<string>00:00:00:00</string>
																	<frame>0</frame>
																	<displayformat>NDF</displayformat>
																</timecode>
																<media>
																	<video>
																		<samplecharacteristics>
																			<rate>
																				<timebase>59</timebase>
																				<ntsc>FALSE</ntsc>
																			</rate>
																			<width>608</width>
																			<height>1080</height>
																			<anamorphic>FALSE</anamorphic>
																			<pixelaspectratio>square</pixelaspectratio>
																			<fielddominance>none</fielddominance>
																		</samplecharacteristics>
																	</video>
																	<audio>
																		<samplecharacteristics>
																			<depth>16</depth>
																			<samplerate>44100</samplerate>
																		</samplecharacteristics>
																		<channelcount>2</channelcount>
																	</audio>
																</media>
															</file>
															<filter>
																<effect>
																	<name>Basic Motion</name>
																	<effectid>basic</effectid>
																	<effectcategory>motion</effectcategory>
																	<effecttype>motion</effecttype>
																	<mediatype>video</mediatype>
																	<pproBypass>false</pproBypass>
																	<parameter authoringApp="PremierePro">
																		<parameterid>scale</parameterid>
																		<name>Scale</name>
																		<valuemin>0</valuemin>
																		<valuemax>1000</valuemax>
																		<value>379</value>
																	</parameter>
																	<parameter authoringApp="PremierePro">
																		<parameterid>rotation</parameterid>
																		<name>Rotation</name>
																		<valuemin>-8640</valuemin>
																		<valuemax>8640</valuemax>
																		<value>0</value>
																	</parameter>
																	<parameter authoringApp="PremierePro">
																		<parameterid>center</parameterid>
																		<name>Center</name>
																		<value>
																			<horiz>0</horiz>
																			<vert>0</vert>
																		</value>
																	</parameter>
																	<parameter authoringApp="PremierePro">
																		<parameterid>centerOffset</parameterid>
																		<name>Anchor Point</name>
																		<value>
																			<horiz>0</horiz>
																			<vert>0</vert>
																		</value>
																	</parameter>
																	<parameter authoringApp="PremierePro">
																		<parameterid>antiflicker</parameterid>
																		<name>Anti-flicker Filter</name>
																		<valuemin>0.0</valuemin>
																		<valuemax>1.0</valuemax>
																		<value>0</value>
																	</parameter>
																</effect>
															</filter>
															<filter>
																<effect>
																	<name>Gaussian Blur</name>
																	<effectid>Gaussian Blur</effectid>
																	<effectcategory>Blur</effectcategory>
																	<effecttype>motion</effecttype>
																	<mediatype>video</mediatype>
																	<pproBypass>false</pproBypass>
																	<parameter authoringApp="PremierePro">
																		<parameterid>radius</parameterid>
																		<name>Radius</name>
																		<valuemin>0</valuemin>
																		<valuemax>100</valuemax>
																		<value>150</value>
																	</parameter>
																</effect>
															</filter>
															<logginginfo>
																<description>Resin cat with flower face</description>
																<scene></scene>
																<shottake></shottake>
																<lognote>https://www.youtube.com/watch?v=UdizfUsyf6w</lognote>
																<good></good>
																<originalvideofilename></originalvideofilename>
																<originalaudiofilename></originalaudiofilename>
															</logginginfo>
															<colorinfo>
																<lut></lut>
																<lut1></lut1>
																<asc_sop></asc_sop>
																<asc_sat></asc_sat>
																<lut2></lut2>
															</colorinfo>
															<labels>
																<label2>Caribbean</label2>
															</labels>
														</clipitem>
														<clipitem id="clipitem-609">
															<masterclipid>masterclip-198</masterclipid>
															<name>(cinethia)_Creating a floral resin ashtray_T59_rjokrW0_YT.mp4</name>
															<enabled>TRUE</enabled>
															<duration>6521</duration>
															<rate>
																<timebase>30</timebase>
																<ntsc>TRUE</ntsc>
															</rate>
															<start>2351</start>
															<end>2396</end>
															<in>567</in>
															<out>611</out>
															<pproTicksIn>8789266886400</pproTicksIn>
															<pproTicksOut>9487614113442</pproTicksOut>
															<alphatype>none</alphatype>
															<pixelaspectratio>square</pixelaspectratio>
															<anamorphic>FALSE</anamorphic>
															<file id="file-169">
																<name>(cinethia)_Creating a floral resin ashtray_T59_rjokrW0_YT.mp4</name>
																<pathurl>file://localhost/Volumes/ATM%20JR%202TB/Crafty/2023/06_June/Crafty_6-19-23/3_Raw%20Footage/resin/(cinethia)_Creating%20a%20floral%20resin%20ashtray_T59_rjokrW0_YT.mp4</pathurl>
																<rate>
																	<timebase>60</timebase>
																	<ntsc>FALSE</ntsc>
																</rate>
																<duration>23905</duration>
																<timecode>
																	<rate>
																		<timebase>60</timebase>
																		<ntsc>FALSE</ntsc>
																	</rate>
																	<string>00:00:00:00</string>
																	<frame>0</frame>
																	<displayformat>NDF</displayformat>
																</timecode>
																<media>
																	<video>
																		<samplecharacteristics>
																			<rate>
																				<timebase>60</timebase>
																				<ntsc>FALSE</ntsc>
																			</rate>
																			<width>608</width>
																			<height>1080</height>
																			<anamorphic>FALSE</anamorphic>
																			<pixelaspectratio>square</pixelaspectratio>
																			<fielddominance>none</fielddominance>
																		</samplecharacteristics>
																	</video>
																	<audio>
																		<samplecharacteristics>
																			<depth>16</depth>
																			<samplerate>44100</samplerate>
																		</samplecharacteristics>
																		<channelcount>2</channelcount>
																	</audio>
																</media>
															</file>
															<filter>
																<effect>
																	<name>Basic Motion</name>
																	<effectid>basic</effectid>
																	<effectcategory>motion</effectcategory>
																	<effecttype>motion</effecttype>
																	<mediatype>video</mediatype>
																	<pproBypass>false</pproBypass>
																	<parameter authoringApp="PremierePro">
																		<parameterid>scale</parameterid>
																		<name>Scale</name>
																		<valuemin>0</valuemin>
																		<valuemax>1000</valuemax>
																		<value>379</value>
																	</parameter>
																	<parameter authoringApp="PremierePro">
																		<parameterid>rotation</parameterid>
																		<name>Rotation</name>
																		<valuemin>-8640</valuemin>
																		<valuemax>8640</valuemax>
																		<value>0</value>
																	</parameter>
																	<parameter authoringApp="PremierePro">
																		<parameterid>center</parameterid>
																		<name>Center</name>
																		<value>
																			<horiz>0</horiz>
																			<vert>0</vert>
																		</value>
																	</parameter>
																	<parameter authoringApp="PremierePro">
																		<parameterid>centerOffset</parameterid>
																		<name>Anchor Point</name>
																		<value>
																			<horiz>0</horiz>
																			<vert>0</vert>
																		</value>
																	</parameter>
																	<parameter authoringApp="PremierePro">
																		<parameterid>antiflicker</parameterid>
																		<name>Anti-flicker Filter</name>
																		<valuemin>0.0</valuemin>
																		<valuemax>1.0</valuemax>
																		<value>0</value>
																	</parameter>
																</effect>
															</filter>
															<filter>
																<effect>
																	<name>Gaussian Blur</name>
																	<effectid>Gaussian Blur</effectid>
																	<effectcategory>Blur</effectcategory>
																	<effecttype>motion</effecttype>
																	<mediatype>video</mediatype>
																	<pproBypass>false</pproBypass>
																	<parameter authoringApp="PremierePro">
																		<parameterid>radius</parameterid>
																		<name>Radius</name>
																		<valuemin>0</valuemin>
																		<valuemax>100</valuemax>
																		<value>150</value>
																	</parameter>
																</effect>
															</filter>
															<filter>
																<effect>
																	<name>Time Remap</name>
																	<effectid>timeremap</effectid>
																	<effectcategory>motion</effectcategory>
																	<effecttype>motion</effecttype>
																	<mediatype>video</mediatype>
																	<parameter authoringApp="PremierePro">
																		<parameterid>variablespeed</parameterid>
																		<name>variablespeed</name>
																		<valuemin>0</valuemin>
																		<valuemax>1</valuemax>
																		<value>0</value>
																	</parameter>
																	<parameter authoringApp="PremierePro">
																		<parameterid>speed</parameterid>
																		<name>speed</name>
																		<valuemin>-100000</valuemin>
																		<valuemax>100000</valuemax>
																		<value>183.099</value>
																	</parameter>
																	<parameter authoringApp="PremierePro">
																		<parameterid>reverse</parameterid>
																		<name>reverse</name>
																		<value>FALSE</value>
																	</parameter>
																	<parameter authoringApp="PremierePro">
																		<parameterid>frameblending</parameterid>
																		<name>frameblending</name>
																		<value>FALSE</value>
																	</parameter>
																	<parameter authoringApp="PremierePro">
																		<parameterid>graphdict</parameterid>
																		<name>graphdict</name>
																		<valuemin>0</valuemin>
																		<valuemax>11939</valuemax>
																		<value>0</value>
																		<keyframe>
																			<when>0</when>
																			<value>0</value>
																			<speedvirtualkf>TRUE</speedvirtualkf>
																			<speedkfstart>TRUE</speedkfstart>
																		</keyframe>
																		<keyframe>
																			<when>567</when>
																			<value>1038</value>
																			<speedvirtualkf>TRUE</speedvirtualkf>
																			<speedkfin>TRUE</speedkfin>
																		</keyframe>
																		<keyframe>
																			<when>611</when>
																			<value>1118</value>
																			<speedvirtualkf>TRUE</speedvirtualkf>
																			<speedkfout>TRUE</speedkfout>
																		</keyframe>
																		<keyframe>
																			<when>6521</when>
																			<value>11939</value>
																			<speedvirtualkf>TRUE</speedvirtualkf>
																			<speedkfend>TRUE</speedkfend>
																		</keyframe>
																		<interpolation>
																			<name>FCPCurve</name>
																		</interpolation>
																	</parameter>
																</effect>
															</filter>
															<logginginfo>
																<description>Creating a floral resin ashtray</description>
																<scene></scene>
																<shottake></shottake>
																<lognote>https://www.youtube.com/watch?v=T59_rjokrW0</lognote>
																<good></good>
																<originalvideofilename></originalvideofilename>
																<originalaudiofilename></originalaudiofilename>
															</logginginfo>
															<colorinfo>
																<lut></lut>
																<lut1></lut1>
																<asc_sop></asc_sop>
																<asc_sat></asc_sat>
																<lut2></lut2>
															</colorinfo>
															<labels>
																<label2>Purple</label2>
															</labels>
														</clipitem>
														<clipitem id="clipitem-610">
															<masterclipid>masterclip-198</masterclipid>
															<name>(cinethia)_Creating a floral resin ashtray_T59_rjokrW0_YT.mp4</name>
															<enabled>TRUE</enabled>
															<duration>6521</duration>
															<rate>
																<timebase>30</timebase>
																<ntsc>TRUE</ntsc>
															</rate>
															<start>2396</start>
															<end>2482</end>
															<in>765</in>
															<out>850</out>
															<pproTicksIn>11861994685384</pproTicksIn>
															<pproTicksOut>13196613830400</pproTicksOut>
															<alphatype>none</alphatype>
															<file id="file-169"/>
															<filter>
																<effect>
																	<name>Basic Motion</name>
																	<effectid>basic</effectid>
																	<effectcategory>motion</effectcategory>
																	<effecttype>motion</effecttype>
																	<mediatype>video</mediatype>
																	<pproBypass>false</pproBypass>
																	<parameter authoringApp="PremierePro">
																		<parameterid>scale</parameterid>
																		<name>Scale</name>
																		<valuemin>0</valuemin>
																		<valuemax>1000</valuemax>
																		<value>379</value>
																	</parameter>
																	<parameter authoringApp="PremierePro">
																		<parameterid>rotation</parameterid>
																		<name>Rotation</name>
																		<valuemin>-8640</valuemin>
																		<valuemax>8640</valuemax>
																		<value>0</value>
																	</parameter>
																	<parameter authoringApp="PremierePro">
																		<parameterid>center</parameterid>
																		<name>Center</name>
																		<value>
																			<horiz>0</horiz>
																			<vert>0</vert>
																		</value>
																	</parameter>
																	<parameter authoringApp="PremierePro">
																		<parameterid>centerOffset</parameterid>
																		<name>Anchor Point</name>
																		<value>
																			<horiz>0</horiz>
																			<vert>0</vert>
																		</value>
																	</parameter>
																	<parameter authoringApp="PremierePro">
																		<parameterid>antiflicker</parameterid>
																		<name>Anti-flicker Filter</name>
																		<valuemin>0.0</valuemin>
																		<valuemax>1.0</valuemax>
																		<value>0</value>
																	</parameter>
																</effect>
															</filter>
															<filter>
																<effect>
																	<name>Gaussian Blur</name>
																	<effectid>Gaussian Blur</effectid>
																	<effectcategory>Blur</effectcategory>
																	<effecttype>motion</effecttype>
																	<mediatype>video</mediatype>
																	<pproBypass>false</pproBypass>
																	<parameter authoringApp="PremierePro">
																		<parameterid>radius</parameterid>
																		<name>Radius</name>
																		<valuemin>0</valuemin>
																		<valuemax>100</valuemax>
																		<value>150</value>
																	</parameter>
																</effect>
															</filter>
															<filter>
																<effect>
																	<name>Time Remap</name>
																	<effectid>timeremap</effectid>
																	<effectcategory>motion</effectcategory>
																	<effecttype>motion</effecttype>
																	<mediatype>video</mediatype>
																	<parameter authoringApp="PremierePro">
																		<parameterid>variablespeed</parameterid>
																		<name>variablespeed</name>
																		<valuemin>0</valuemin>
																		<valuemax>1</valuemax>
																		<value>0</value>
																	</parameter>
																	<parameter authoringApp="PremierePro">
																		<parameterid>speed</parameterid>
																		<name>speed</name>
																		<valuemin>-100000</valuemin>
																		<valuemax>100000</valuemax>
																		<value>183.099</value>
																	</parameter>
																	<parameter authoringApp="PremierePro">
																		<parameterid>reverse</parameterid>
																		<name>reverse</name>
																		<value>FALSE</value>
																	</parameter>
																	<parameter authoringApp="PremierePro">
																		<parameterid>frameblending</parameterid>
																		<name>frameblending</name>
																		<value>FALSE</value>
																	</parameter>
																	<parameter authoringApp="PremierePro">
																		<parameterid>graphdict</parameterid>
																		<name>graphdict</name>
																		<valuemin>0</valuemin>
																		<valuemax>11939</valuemax>
																		<value>0</value>
																		<keyframe>
																			<when>0</when>
																			<value>0</value>
																			<speedvirtualkf>TRUE</speedvirtualkf>
																			<speedkfstart>TRUE</speedkfstart>
																		</keyframe>
																		<keyframe>
																			<when>765</when>
																			<value>1400</value>
																			<speedvirtualkf>TRUE</speedvirtualkf>
																			<speedkfin>TRUE</speedkfin>
																		</keyframe>
																		<keyframe>
																			<when>850</when>
																			<value>1556</value>
																			<speedvirtualkf>TRUE</speedvirtualkf>
																			<speedkfout>TRUE</speedkfout>
																		</keyframe>
																		<keyframe>
																			<when>6521</when>
																			<value>11939</value>
																			<speedvirtualkf>TRUE</speedvirtualkf>
																			<speedkfend>TRUE</speedkfend>
																		</keyframe>
																		<interpolation>
																			<name>FCPCurve</name>
																		</interpolation>
																	</parameter>
																</effect>
															</filter>
															<logginginfo>
																<description>Creating a floral resin ashtray</description>
																<scene></scene>
																<shottake></shottake>
																<lognote>https://www.youtube.com/watch?v=T59_rjokrW0</lognote>
																<good></good>
																<originalvideofilename></originalvideofilename>
																<originalaudiofilename></originalaudiofilename>
															</logginginfo>
															<colorinfo>
																<lut></lut>
																<lut1></lut1>
																<asc_sop></asc_sop>
																<asc_sat></asc_sat>
																<lut2></lut2>
															</colorinfo>
															<labels>
																<label2>Purple</label2>
															</labels>
														</clipitem>
														<clipitem id="clipitem-611">
															<masterclipid>masterclip-198</masterclipid>
															<name>(cinethia)_Creating a floral resin ashtray_T59_rjokrW0_YT.mp4</name>
															<enabled>TRUE</enabled>
															<duration>6571</duration>
															<rate>
																<timebase>30</timebase>
																<ntsc>TRUE</ntsc>
															</rate>
															<start>2482</start>
															<end>2724</end>
															<in>2348</in>
															<out>2589</out>
															<pproTicksIn>36148720608000</pproTicksIn>
															<pproTicksOut>39875244898593</pproTicksOut>
															<alphatype>none</alphatype>
															<file id="file-169"/>
															<filter>
																<effect>
																	<name>Basic Motion</name>
																	<effectid>basic</effectid>
																	<effectcategory>motion</effectcategory>
																	<effecttype>motion</effecttype>
																	<mediatype>video</mediatype>
																	<pproBypass>false</pproBypass>
																	<parameter authoringApp="PremierePro">
																		<parameterid>scale</parameterid>
																		<name>Scale</name>
																		<valuemin>0</valuemin>
																		<valuemax>1000</valuemax>
																		<value>379</value>
																	</parameter>
																	<parameter authoringApp="PremierePro">
																		<parameterid>rotation</parameterid>
																		<name>Rotation</name>
																		<valuemin>-8640</valuemin>
																		<valuemax>8640</valuemax>
																		<value>0</value>
																	</parameter>
																	<parameter authoringApp="PremierePro">
																		<parameterid>center</parameterid>
																		<name>Center</name>
																		<value>
																			<horiz>0</horiz>
																			<vert>0</vert>
																		</value>
																	</parameter>
																	<parameter authoringApp="PremierePro">
																		<parameterid>centerOffset</parameterid>
																		<name>Anchor Point</name>
																		<value>
																			<horiz>0</horiz>
																			<vert>0</vert>
																		</value>
																	</parameter>
																	<parameter authoringApp="PremierePro">
																		<parameterid>antiflicker</parameterid>
																		<name>Anti-flicker Filter</name>
																		<valuemin>0.0</valuemin>
																		<valuemax>1.0</valuemax>
																		<value>0</value>
																	</parameter>
																</effect>
															</filter>
															<filter>
																<effect>
																	<name>Gaussian Blur</name>
																	<effectid>Gaussian Blur</effectid>
																	<effectcategory>Blur</effectcategory>
																	<effecttype>motion</effecttype>
																	<mediatype>video</mediatype>
																	<pproBypass>false</pproBypass>
																	<parameter authoringApp="PremierePro">
																		<parameterid>radius</parameterid>
																		<name>Radius</name>
																		<valuemin>0</valuemin>
																		<valuemax>100</valuemax>
																		<value>150</value>
																	</parameter>
																</effect>
															</filter>
															<filter>
																<effect>
																	<name>Gaussian Blur</name>
																	<effectid>Gaussian Blur</effectid>
																	<effectcategory>Blur</effectcategory>
																	<effecttype>motion</effecttype>
																	<mediatype>video</mediatype>
																	<pproBypass>false</pproBypass>
																	<parameter authoringApp="PremierePro">
																		<parameterid>radius</parameterid>
																		<name>Radius</name>
																		<valuemin>0</valuemin>
																		<valuemax>100</valuemax>
																		<value>150</value>
																	</parameter>
																</effect>
															</filter>
															<filter>
																<effect>
																	<name>Time Remap</name>
																	<effectid>timeremap</effectid>
																	<effectcategory>motion</effectcategory>
																	<effecttype>motion</effecttype>
																	<mediatype>video</mediatype>
																	<parameter authoringApp="PremierePro">
																		<parameterid>variablespeed</parameterid>
																		<name>variablespeed</name>
																		<valuemin>0</valuemin>
																		<valuemax>1</valuemax>
																		<value>0</value>
																	</parameter>
																	<parameter authoringApp="PremierePro">
																		<parameterid>speed</parameterid>
																		<name>speed</name>
																		<valuemin>-100000</valuemin>
																		<valuemax>100000</valuemax>
																		<value>181.683</value>
																	</parameter>
																	<parameter authoringApp="PremierePro">
																		<parameterid>reverse</parameterid>
																		<name>reverse</name>
																		<value>FALSE</value>
																	</parameter>
																	<parameter authoringApp="PremierePro">
																		<parameterid>frameblending</parameterid>
																		<name>frameblending</name>
																		<value>FALSE</value>
																	</parameter>
																	<parameter authoringApp="PremierePro">
																		<parameterid>graphdict</parameterid>
																		<name>graphdict</name>
																		<valuemin>0</valuemin>
																		<valuemax>11938</valuemax>
																		<value>0</value>
																		<keyframe>
																			<when>0</when>
																			<value>0</value>
																			<speedvirtualkf>TRUE</speedvirtualkf>
																			<speedkfstart>TRUE</speedkfstart>
																		</keyframe>
																		<keyframe>
																			<when>2348</when>
																			<value>4265</value>
																			<speedvirtualkf>TRUE</speedvirtualkf>
																			<speedkfin>TRUE</speedkfin>
																		</keyframe>
																		<keyframe>
																			<when>2589</when>
																			<value>4703</value>
																			<speedvirtualkf>TRUE</speedvirtualkf>
																			<speedkfout>TRUE</speedkfout>
																		</keyframe>
																		<keyframe>
																			<when>6571</when>
																			<value>11938</value>
																			<speedvirtualkf>TRUE</speedvirtualkf>
																			<speedkfend>TRUE</speedkfend>
																		</keyframe>
																		<interpolation>
																			<name>FCPCurve</name>
																		</interpolation>
																	</parameter>
																</effect>
															</filter>
															<logginginfo>
																<description>Creating a floral resin ashtray</description>
																<scene></scene>
																<shottake></shottake>
																<lognote>https://www.youtube.com/watch?v=T59_rjokrW0</lognote>
																<good></good>
																<originalvideofilename></originalvideofilename>
																<originalaudiofilename></originalaudiofilename>
															</logginginfo>
															<colorinfo>
																<lut></lut>
																<lut1></lut1>
																<asc_sop></asc_sop>
																<asc_sat></asc_sat>
																<lut2></lut2>
															</colorinfo>
															<labels>
																<label2>Purple</label2>
															</labels>
														</clipitem>
														<clipitem id="clipitem-612">
															<masterclipid>masterclip-198</masterclipid>
															<name>(cinethia)_Creating a floral resin ashtray_T59_rjokrW0_YT.mp4</name>
															<enabled>TRUE</enabled>
															<duration>11940</duration>
															<rate>
																<timebase>30</timebase>
																<ntsc>TRUE</ntsc>
															</rate>
															<start>2724</start>
															<end>3154</end>
															<in>11044</in>
															<out>11474</out>
															<pproTicksIn>93605268556800</pproTicksIn>
															<pproTicksOut>97249805452800</pproTicksOut>
															<alphatype>none</alphatype>
															<file id="file-169"/>
															<filter>
																<effect>
																	<name>Basic Motion</name>
																	<effectid>basic</effectid>
																	<effectcategory>motion</effectcategory>
																	<effecttype>motion</effecttype>
																	<mediatype>video</mediatype>
																	<pproBypass>false</pproBypass>
																	<parameter authoringApp="PremierePro">
																		<parameterid>scale</parameterid>
																		<name>Scale</name>
																		<valuemin>0</valuemin>
																		<valuemax>1000</valuemax>
																		<value>379</value>
																	</parameter>
																	<parameter authoringApp="PremierePro">
																		<parameterid>rotation</parameterid>
																		<name>Rotation</name>
																		<valuemin>-8640</valuemin>
																		<valuemax>8640</valuemax>
																		<value>0</value>
																	</parameter>
																	<parameter authoringApp="PremierePro">
																		<parameterid>center</parameterid>
																		<name>Center</name>
																		<value>
																			<horiz>0</horiz>
																			<vert>0</vert>
																		</value>
																	</parameter>
																	<parameter authoringApp="PremierePro">
																		<parameterid>centerOffset</parameterid>
																		<name>Anchor Point</name>
																		<value>
																			<horiz>0</horiz>
																			<vert>0</vert>
																		</value>
																	</parameter>
																	<parameter authoringApp="PremierePro">
																		<parameterid>antiflicker</parameterid>
																		<name>Anti-flicker Filter</name>
																		<valuemin>0.0</valuemin>
																		<valuemax>1.0</valuemax>
																		<value>0</value>
																	</parameter>
																</effect>
															</filter>
															<filter>
																<effect>
																	<name>Gaussian Blur</name>
																	<effectid>Gaussian Blur</effectid>
																	<effectcategory>Blur</effectcategory>
																	<effecttype>motion</effecttype>
																	<mediatype>video</mediatype>
																	<pproBypass>false</pproBypass>
																	<parameter authoringApp="PremierePro">
																		<parameterid>radius</parameterid>
																		<name>Radius</name>
																		<valuemin>0</valuemin>
																		<valuemax>100</valuemax>
																		<value>150</value>
																	</parameter>
																</effect>
															</filter>
															<filter>
																<effect>
																	<name>Gaussian Blur</name>
																	<effectid>Gaussian Blur</effectid>
																	<effectcategory>Blur</effectcategory>
																	<effecttype>motion</effecttype>
																	<mediatype>video</mediatype>
																	<pproBypass>false</pproBypass>
																	<parameter authoringApp="PremierePro">
																		<parameterid>radius</parameterid>
																		<name>Radius</name>
																		<valuemin>0</valuemin>
																		<valuemax>100</valuemax>
																		<value>150</value>
																	</parameter>
																</effect>
															</filter>
															<logginginfo>
																<description>Creating a floral resin ashtray</description>
																<scene></scene>
																<shottake></shottake>
																<lognote>https://www.youtube.com/watch?v=T59_rjokrW0</lognote>
																<good></good>
																<originalvideofilename></originalvideofilename>
																<originalaudiofilename></originalaudiofilename>
															</logginginfo>
															<colorinfo>
																<lut></lut>
																<lut1></lut1>
																<asc_sop></asc_sop>
																<asc_sat></asc_sat>
																<lut2></lut2>
															</colorinfo>
															<labels>
																<label2>Purple</label2>
															</labels>
														</clipitem>
														<enabled>TRUE</enabled>
														<locked>FALSE</locked>
													</track>
													<track TL.SQTrackShy="0" TL.SQTrackExpandedHeight="25" TL.SQTrackExpanded="0" MZ.TrackTargeted="0">
														<clipitem id="clipitem-613">
															<masterclipid>masterclip-195</masterclipid>
															<name>(cinethia)_Resin jar with sprinkles! #resin #resinpour #resinart #functionalart #usefulgadgets #resinpro_qVYulUAEL34_YT.mp4</name>
															<enabled>TRUE</enabled>
															<duration>873</duration>
															<rate>
																<timebase>30</timebase>
																<ntsc>TRUE</ntsc>
															</rate>
															<start>0</start>
															<end>873</end>
															<in>0</in>
															<out>873</out>
															<pproTicksIn>0</pproTicksIn>
															<pproTicksOut>7399257465600</pproTicksOut>
															<alphatype>none</alphatype>
															<file id="file-166"/>
															<filter>
																<effect>
																	<name>Basic Motion</name>
																	<effectid>basic</effectid>
																	<effectcategory>motion</effectcategory>
																	<effecttype>motion</effecttype>
																	<mediatype>video</mediatype>
																	<pproBypass>false</pproBypass>
																	<parameter authoringApp="PremierePro">
																		<parameterid>scale</parameterid>
																		<name>Scale</name>
																		<valuemin>0</valuemin>
																		<valuemax>1000</valuemax>
																		<value>84.375</value>
																	</parameter>
																	<parameter authoringApp="PremierePro">
																		<parameterid>rotation</parameterid>
																		<name>Rotation</name>
																		<valuemin>-8640</valuemin>
																		<valuemax>8640</valuemax>
																		<value>0</value>
																	</parameter>
																	<parameter authoringApp="PremierePro">
																		<parameterid>center</parameterid>
																		<name>Center</name>
																		<value>
																			<horiz>0</horiz>
																			<vert>0</vert>
																		</value>
																	</parameter>
																	<parameter authoringApp="PremierePro">
																		<parameterid>centerOffset</parameterid>
																		<name>Anchor Point</name>
																		<value>
																			<horiz>0</horiz>
																			<vert>0</vert>
																		</value>
																	</parameter>
																	<parameter authoringApp="PremierePro">
																		<parameterid>antiflicker</parameterid>
																		<name>Anti-flicker Filter</name>
																		<valuemin>0.0</valuemin>
																		<valuemax>1.0</valuemax>
																		<value>0</value>
																	</parameter>
																</effect>
															</filter>
															<logginginfo>
																<description></description>
																<scene></scene>
																<shottake></shottake>
																<lognote></lognote>
																<good></good>
																<originalvideofilename></originalvideofilename>
																<originalaudiofilename></originalaudiofilename>
															</logginginfo>
															<colorinfo>
																<lut></lut>
																<lut1></lut1>
																<asc_sop></asc_sop>
																<asc_sat></asc_sat>
																<lut2></lut2>
															</colorinfo>
															<labels>
																<label2>Violet</label2>
															</labels>
														</clipitem>
														<clipitem id="clipitem-614">
															<masterclipid>masterclip-196</masterclipid>
															<name>(kellyybellyy62)_CC_Yz8JnzB9_IG.mp4</name>
															<enabled>TRUE</enabled>
															<duration>2992</duration>
															<rate>
																<timebase>30</timebase>
																<ntsc>TRUE</ntsc>
															</rate>
															<start>873</start>
															<end>1293</end>
															<in>0</in>
															<out>420</out>
															<pproTicksIn>0</pproTicksIn>
															<pproTicksOut>3559780224000</pproTicksOut>
															<alphatype>none</alphatype>
															<file id="file-167"/>
															<filter>
																<effect>
																	<name>Basic Motion</name>
																	<effectid>basic</effectid>
																	<effectcategory>motion</effectcategory>
																	<effecttype>motion</effecttype>
																	<mediatype>video</mediatype>
																	<pproBypass>false</pproBypass>
																	<parameter authoringApp="PremierePro">
																		<parameterid>scale</parameterid>
																		<name>Scale</name>
																		<valuemin>0</valuemin>
																		<valuemax>1000</valuemax>
																		<value>84.375</value>
																	</parameter>
																	<parameter authoringApp="PremierePro">
																		<parameterid>rotation</parameterid>
																		<name>Rotation</name>
																		<valuemin>-8640</valuemin>
																		<valuemax>8640</valuemax>
																		<value>0</value>
																	</parameter>
																	<parameter authoringApp="PremierePro">
																		<parameterid>center</parameterid>
																		<name>Center</name>
																		<value>
																			<horiz>0</horiz>
																			<vert>0</vert>
																		</value>
																	</parameter>
																	<parameter authoringApp="PremierePro">
																		<parameterid>centerOffset</parameterid>
																		<name>Anchor Point</name>
																		<value>
																			<horiz>0</horiz>
																			<vert>0</vert>
																		</value>
																	</parameter>
																	<parameter authoringApp="PremierePro">
																		<parameterid>antiflicker</parameterid>
																		<name>Anti-flicker Filter</name>
																		<valuemin>0.0</valuemin>
																		<valuemax>1.0</valuemax>
																		<value>0</value>
																	</parameter>
																</effect>
															</filter>
															<logginginfo>
																<description></description>
																<scene></scene>
																<shottake></shottake>
																<lognote></lognote>
																<good></good>
																<originalvideofilename></originalvideofilename>
																<originalaudiofilename></originalaudiofilename>
															</logginginfo>
															<colorinfo>
																<lut></lut>
																<lut1></lut1>
																<asc_sop></asc_sop>
																<asc_sat></asc_sat>
																<lut2></lut2>
															</colorinfo>
															<labels>
																<label2>Iris</label2>
															</labels>
														</clipitem>
														<clipitem id="clipitem-615">
															<masterclipid>masterclip-196</masterclipid>
															<name>(kellyybellyy62)_CC_Yz8JnzB9_IG.mp4</name>
															<enabled>TRUE</enabled>
															<duration>2992</duration>
															<rate>
																<timebase>30</timebase>
																<ntsc>TRUE</ntsc>
															</rate>
															<start>1293</start>
															<end>1771</end>
															<in>1641</in>
															<out>2119</out>
															<pproTicksIn>13908569875200</pproTicksIn>
															<pproTicksOut>17959938796800</pproTicksOut>
															<alphatype>none</alphatype>
															<file id="file-167"/>
															<filter>
																<effect>
																	<name>Basic Motion</name>
																	<effectid>basic</effectid>
																	<effectcategory>motion</effectcategory>
																	<effecttype>motion</effecttype>
																	<mediatype>video</mediatype>
																	<pproBypass>false</pproBypass>
																	<parameter authoringApp="PremierePro">
																		<parameterid>scale</parameterid>
																		<name>Scale</name>
																		<valuemin>0</valuemin>
																		<valuemax>1000</valuemax>
																		<value>84.375</value>
																	</parameter>
																	<parameter authoringApp="PremierePro">
																		<parameterid>rotation</parameterid>
																		<name>Rotation</name>
																		<valuemin>-8640</valuemin>
																		<valuemax>8640</valuemax>
																		<value>0</value>
																	</parameter>
																	<parameter authoringApp="PremierePro">
																		<parameterid>center</parameterid>
																		<name>Center</name>
																		<value>
																			<horiz>0</horiz>
																			<vert>0</vert>
																		</value>
																	</parameter>
																	<parameter authoringApp="PremierePro">
																		<parameterid>centerOffset</parameterid>
																		<name>Anchor Point</name>
																		<value>
																			<horiz>0</horiz>
																			<vert>0</vert>
																		</value>
																	</parameter>
																	<parameter authoringApp="PremierePro">
																		<parameterid>antiflicker</parameterid>
																		<name>Anti-flicker Filter</name>
																		<valuemin>0.0</valuemin>
																		<valuemax>1.0</valuemax>
																		<value>0</value>
																	</parameter>
																</effect>
															</filter>
															<logginginfo>
																<description></description>
																<scene></scene>
																<shottake></shottake>
																<lognote></lognote>
																<good></good>
																<originalvideofilename></originalvideofilename>
																<originalaudiofilename></originalaudiofilename>
															</logginginfo>
															<colorinfo>
																<lut></lut>
																<lut1></lut1>
																<asc_sop></asc_sop>
																<asc_sat></asc_sat>
																<lut2></lut2>
															</colorinfo>
															<labels>
																<label2>Iris</label2>
															</labels>
														</clipitem>
														<clipitem id="clipitem-616">
															<masterclipid>masterclip-196</masterclipid>
															<name>(kellyybellyy62)_CC_Yz8JnzB9_IG.mp4</name>
															<enabled>TRUE</enabled>
															<duration>2992</duration>
															<rate>
																<timebase>30</timebase>
																<ntsc>TRUE</ntsc>
															</rate>
															<start>1771</start>
															<end>2055</end>
															<in>2205</in>
															<out>2489</out>
															<pproTicksIn>18688846176000</pproTicksIn>
															<pproTicksOut>21095935660800</pproTicksOut>
															<alphatype>none</alphatype>
															<file id="file-167"/>
															<filter>
																<effect>
																	<name>Basic Motion</name>
																	<effectid>basic</effectid>
																	<effectcategory>motion</effectcategory>
																	<effecttype>motion</effecttype>
																	<mediatype>video</mediatype>
																	<pproBypass>false</pproBypass>
																	<parameter authoringApp="PremierePro">
																		<parameterid>scale</parameterid>
																		<name>Scale</name>
																		<valuemin>0</valuemin>
																		<valuemax>1000</valuemax>
																		<value>84.375</value>
																	</parameter>
																	<parameter authoringApp="PremierePro">
																		<parameterid>rotation</parameterid>
																		<name>Rotation</name>
																		<valuemin>-8640</valuemin>
																		<valuemax>8640</valuemax>
																		<value>0</value>
																	</parameter>
																	<parameter authoringApp="PremierePro">
																		<parameterid>center</parameterid>
																		<name>Center</name>
																		<value>
																			<horiz>0</horiz>
																			<vert>0</vert>
																		</value>
																	</parameter>
																	<parameter authoringApp="PremierePro">
																		<parameterid>centerOffset</parameterid>
																		<name>Anchor Point</name>
																		<value>
																			<horiz>0</horiz>
																			<vert>0</vert>
																		</value>
																	</parameter>
																	<parameter authoringApp="PremierePro">
																		<parameterid>antiflicker</parameterid>
																		<name>Anti-flicker Filter</name>
																		<valuemin>0.0</valuemin>
																		<valuemax>1.0</valuemax>
																		<value>0</value>
																	</parameter>
																</effect>
															</filter>
															<logginginfo>
																<description></description>
																<scene></scene>
																<shottake></shottake>
																<lognote></lognote>
																<good></good>
																<originalvideofilename></originalvideofilename>
																<originalaudiofilename></originalaudiofilename>
															</logginginfo>
															<colorinfo>
																<lut></lut>
																<lut1></lut1>
																<asc_sop></asc_sop>
																<asc_sat></asc_sat>
																<lut2></lut2>
															</colorinfo>
															<labels>
																<label2>Iris</label2>
															</labels>
														</clipitem>
														<clipitem id="clipitem-617">
															<masterclipid>masterclip-197</masterclipid>
															<name>(cinethia)_Resin cat with flower face_UdizfUsyf6w_YT.mp4</name>
															<enabled>TRUE</enabled>
															<duration>296</duration>
															<rate>
																<timebase>30</timebase>
																<ntsc>TRUE</ntsc>
															</rate>
															<start>2055</start>
															<end>2351</end>
															<in>0</in>
															<out>296</out>
															<pproTicksIn>0</pproTicksIn>
															<pproTicksOut>2508797491200</pproTicksOut>
															<alphatype>none</alphatype>
															<file id="file-168"/>
															<logginginfo>
																<description>Resin cat with flower face</description>
																<scene></scene>
																<shottake></shottake>
																<lognote>https://www.youtube.com/watch?v=UdizfUsyf6w</lognote>
																<good></good>
																<originalvideofilename></originalvideofilename>
																<originalaudiofilename></originalaudiofilename>
															</logginginfo>
															<colorinfo>
																<lut></lut>
																<lut1></lut1>
																<asc_sop></asc_sop>
																<asc_sat></asc_sat>
																<lut2></lut2>
															</colorinfo>
															<labels>
																<label2>Caribbean</label2>
															</labels>
														</clipitem>
														<clipitem id="clipitem-618">
															<masterclipid>masterclip-198</masterclipid>
															<name>(cinethia)_Creating a floral resin ashtray_T59_rjokrW0_YT.mp4</name>
															<enabled>TRUE</enabled>
															<duration>6521</duration>
															<rate>
																<timebase>30</timebase>
																<ntsc>TRUE</ntsc>
															</rate>
															<start>2351</start>
															<end>2396</end>
															<in>567</in>
															<out>611</out>
															<pproTicksIn>8789266886400</pproTicksIn>
															<pproTicksOut>9487614113442</pproTicksOut>
															<alphatype>none</alphatype>
															<file id="file-169"/>
															<filter>
																<effect>
																	<name>Time Remap</name>
																	<effectid>timeremap</effectid>
																	<effectcategory>motion</effectcategory>
																	<effecttype>motion</effecttype>
																	<mediatype>video</mediatype>
																	<parameter authoringApp="PremierePro">
																		<parameterid>variablespeed</parameterid>
																		<name>variablespeed</name>
																		<valuemin>0</valuemin>
																		<valuemax>1</valuemax>
																		<value>0</value>
																	</parameter>
																	<parameter authoringApp="PremierePro">
																		<parameterid>speed</parameterid>
																		<name>speed</name>
																		<valuemin>-100000</valuemin>
																		<valuemax>100000</valuemax>
																		<value>183.099</value>
																	</parameter>
																	<parameter authoringApp="PremierePro">
																		<parameterid>reverse</parameterid>
																		<name>reverse</name>
																		<value>FALSE</value>
																	</parameter>
																	<parameter authoringApp="PremierePro">
																		<parameterid>frameblending</parameterid>
																		<name>frameblending</name>
																		<value>FALSE</value>
																	</parameter>
																	<parameter authoringApp="PremierePro">
																		<parameterid>graphdict</parameterid>
																		<name>graphdict</name>
																		<valuemin>0</valuemin>
																		<valuemax>11939</valuemax>
																		<value>0</value>
																		<keyframe>
																			<when>0</when>
																			<value>0</value>
																			<speedvirtualkf>TRUE</speedvirtualkf>
																			<speedkfstart>TRUE</speedkfstart>
																		</keyframe>
																		<keyframe>
																			<when>567</when>
																			<value>1038</value>
																			<speedvirtualkf>TRUE</speedvirtualkf>
																			<speedkfin>TRUE</speedkfin>
																		</keyframe>
																		<keyframe>
																			<when>611</when>
																			<value>1118</value>
																			<speedvirtualkf>TRUE</speedvirtualkf>
																			<speedkfout>TRUE</speedkfout>
																		</keyframe>
																		<keyframe>
																			<when>6521</when>
																			<value>11939</value>
																			<speedvirtualkf>TRUE</speedvirtualkf>
																			<speedkfend>TRUE</speedkfend>
																		</keyframe>
																		<interpolation>
																			<name>FCPCurve</name>
																		</interpolation>
																	</parameter>
																</effect>
															</filter>
															<logginginfo>
																<description>Creating a floral resin ashtray</description>
																<scene></scene>
																<shottake></shottake>
																<lognote>https://www.youtube.com/watch?v=T59_rjokrW0</lognote>
																<good></good>
																<originalvideofilename></originalvideofilename>
																<originalaudiofilename></originalaudiofilename>
															</logginginfo>
															<colorinfo>
																<lut></lut>
																<lut1></lut1>
																<asc_sop></asc_sop>
																<asc_sat></asc_sat>
																<lut2></lut2>
															</colorinfo>
															<labels>
																<label2>Purple</label2>
															</labels>
														</clipitem>
														<clipitem id="clipitem-619">
															<masterclipid>masterclip-198</masterclipid>
															<name>(cinethia)_Creating a floral resin ashtray_T59_rjokrW0_YT.mp4</name>
															<enabled>TRUE</enabled>
															<duration>6521</duration>
															<rate>
																<timebase>30</timebase>
																<ntsc>TRUE</ntsc>
															</rate>
															<start>2396</start>
															<end>2482</end>
															<in>765</in>
															<out>850</out>
															<pproTicksIn>11861994685384</pproTicksIn>
															<pproTicksOut>13196613830400</pproTicksOut>
															<alphatype>none</alphatype>
															<file id="file-169"/>
															<filter>
																<effect>
																	<name>Time Remap</name>
																	<effectid>timeremap</effectid>
																	<effectcategory>motion</effectcategory>
																	<effecttype>motion</effecttype>
																	<mediatype>video</mediatype>
																	<parameter authoringApp="PremierePro">
																		<parameterid>variablespeed</parameterid>
																		<name>variablespeed</name>
																		<valuemin>0</valuemin>
																		<valuemax>1</valuemax>
																		<value>0</value>
																	</parameter>
																	<parameter authoringApp="PremierePro">
																		<parameterid>speed</parameterid>
																		<name>speed</name>
																		<valuemin>-100000</valuemin>
																		<valuemax>100000</valuemax>
																		<value>183.099</value>
																	</parameter>
																	<parameter authoringApp="PremierePro">
																		<parameterid>reverse</parameterid>
																		<name>reverse</name>
																		<value>FALSE</value>
																	</parameter>
																	<parameter authoringApp="PremierePro">
																		<parameterid>frameblending</parameterid>
																		<name>frameblending</name>
																		<value>FALSE</value>
																	</parameter>
																	<parameter authoringApp="PremierePro">
																		<parameterid>graphdict</parameterid>
																		<name>graphdict</name>
																		<valuemin>0</valuemin>
																		<valuemax>11939</valuemax>
																		<value>0</value>
																		<keyframe>
																			<when>0</when>
																			<value>0</value>
																			<speedvirtualkf>TRUE</speedvirtualkf>
																			<speedkfstart>TRUE</speedkfstart>
																		</keyframe>
																		<keyframe>
																			<when>765</when>
																			<value>1400</value>
																			<speedvirtualkf>TRUE</speedvirtualkf>
																			<speedkfin>TRUE</speedkfin>
																		</keyframe>
																		<keyframe>
																			<when>850</when>
																			<value>1556</value>
																			<speedvirtualkf>TRUE</speedvirtualkf>
																			<speedkfout>TRUE</speedkfout>
																		</keyframe>
																		<keyframe>
																			<when>6521</when>
																			<value>11939</value>
																			<speedvirtualkf>TRUE</speedvirtualkf>
																			<speedkfend>TRUE</speedkfend>
																		</keyframe>
																		<interpolation>
																			<name>FCPCurve</name>
																		</interpolation>
																	</parameter>
																</effect>
															</filter>
															<logginginfo>
																<description>Creating a floral resin ashtray</description>
																<scene></scene>
																<shottake></shottake>
																<lognote>https://www.youtube.com/watch?v=T59_rjokrW0</lognote>
																<good></good>
																<originalvideofilename></originalvideofilename>
																<originalaudiofilename></originalaudiofilename>
															</logginginfo>
															<colorinfo>
																<lut></lut>
																<lut1></lut1>
																<asc_sop></asc_sop>
																<asc_sat></asc_sat>
																<lut2></lut2>
															</colorinfo>
															<labels>
																<label2>Purple</label2>
															</labels>
														</clipitem>
														<clipitem id="clipitem-620">
															<masterclipid>masterclip-198</masterclipid>
															<name>(cinethia)_Creating a floral resin ashtray_T59_rjokrW0_YT.mp4</name>
															<enabled>TRUE</enabled>
															<duration>6571</duration>
															<rate>
																<timebase>30</timebase>
																<ntsc>TRUE</ntsc>
															</rate>
															<start>2482</start>
															<end>2724</end>
															<in>2348</in>
															<out>2589</out>
															<pproTicksIn>36148720608000</pproTicksIn>
															<pproTicksOut>39875244898597</pproTicksOut>
															<alphatype>none</alphatype>
															<file id="file-169"/>
															<filter>
																<effect>
																	<name>Time Remap</name>
																	<effectid>timeremap</effectid>
																	<effectcategory>motion</effectcategory>
																	<effecttype>motion</effecttype>
																	<mediatype>video</mediatype>
																	<parameter authoringApp="PremierePro">
																		<parameterid>variablespeed</parameterid>
																		<name>variablespeed</name>
																		<valuemin>0</valuemin>
																		<valuemax>1</valuemax>
																		<value>0</value>
																	</parameter>
																	<parameter authoringApp="PremierePro">
																		<parameterid>speed</parameterid>
																		<name>speed</name>
																		<valuemin>-100000</valuemin>
																		<valuemax>100000</valuemax>
																		<value>181.683</value>
																	</parameter>
																	<parameter authoringApp="PremierePro">
																		<parameterid>reverse</parameterid>
																		<name>reverse</name>
																		<value>FALSE</value>
																	</parameter>
																	<parameter authoringApp="PremierePro">
																		<parameterid>frameblending</parameterid>
																		<name>frameblending</name>
																		<value>FALSE</value>
																	</parameter>
																	<parameter authoringApp="PremierePro">
																		<parameterid>graphdict</parameterid>
																		<name>graphdict</name>
																		<valuemin>0</valuemin>
																		<valuemax>11938</valuemax>
																		<value>0</value>
																		<keyframe>
																			<when>0</when>
																			<value>0</value>
																			<speedvirtualkf>TRUE</speedvirtualkf>
																			<speedkfstart>TRUE</speedkfstart>
																		</keyframe>
																		<keyframe>
																			<when>2348</when>
																			<value>4265</value>
																			<speedvirtualkf>TRUE</speedvirtualkf>
																			<speedkfin>TRUE</speedkfin>
																		</keyframe>
																		<keyframe>
																			<when>2589</when>
																			<value>4703</value>
																			<speedvirtualkf>TRUE</speedvirtualkf>
																			<speedkfout>TRUE</speedkfout>
																		</keyframe>
																		<keyframe>
																			<when>6571</when>
																			<value>11938</value>
																			<speedvirtualkf>TRUE</speedvirtualkf>
																			<speedkfend>TRUE</speedkfend>
																		</keyframe>
																		<interpolation>
																			<name>FCPCurve</name>
																		</interpolation>
																	</parameter>
																</effect>
															</filter>
															<logginginfo>
																<description>Creating a floral resin ashtray</description>
																<scene></scene>
																<shottake></shottake>
																<lognote>https://www.youtube.com/watch?v=T59_rjokrW0</lognote>
																<good></good>
																<originalvideofilename></originalvideofilename>
																<originalaudiofilename></originalaudiofilename>
															</logginginfo>
															<colorinfo>
																<lut></lut>
																<lut1></lut1>
																<asc_sop></asc_sop>
																<asc_sat></asc_sat>
																<lut2></lut2>
															</colorinfo>
															<labels>
																<label2>Purple</label2>
															</labels>
														</clipitem>
														<clipitem id="clipitem-621">
															<masterclipid>masterclip-198</masterclipid>
															<name>(cinethia)_Creating a floral resin ashtray_T59_rjokrW0_YT.mp4</name>
															<enabled>TRUE</enabled>
															<duration>11940</duration>
															<rate>
																<timebase>30</timebase>
																<ntsc>TRUE</ntsc>
															</rate>
															<start>2724</start>
															<end>3154</end>
															<in>11044</in>
															<out>11474</out>
															<pproTicksIn>93605268556800</pproTicksIn>
															<pproTicksOut>97249805452800</pproTicksOut>
															<alphatype>none</alphatype>
															<file id="file-169"/>
															<logginginfo>
																<description>Creating a floral resin ashtray</description>
																<scene></scene>
																<shottake></shottake>
																<lognote>https://www.youtube.com/watch?v=T59_rjokrW0</lognote>
																<good></good>
																<originalvideofilename></originalvideofilename>
																<originalaudiofilename></originalaudiofilename>
															</logginginfo>
															<colorinfo>
																<lut></lut>
																<lut1></lut1>
																<asc_sop></asc_sop>
																<asc_sat></asc_sat>
																<lut2></lut2>
															</colorinfo>
															<labels>
																<label2>Purple</label2>
															</labels>
														</clipitem>
														<enabled>TRUE</enabled>
														<locked>FALSE</locked>
													</track>
													<track TL.SQTrackShy="0" TL.SQTrackExpandedHeight="25" TL.SQTrackExpanded="0" MZ.TrackTargeted="0">
														<clipitem id="clipitem-622">
															<masterclipid>masterclip-199</masterclipid>
															<name>@Cinethia</name>
															<enabled>TRUE</enabled>
															<duration>5844</duration>
															<rate>
																<timebase>30</timebase>
																<ntsc>TRUE</ntsc>
															</rate>
															<start>0</start>
															<end>873</end>
															<in>0</in>
															<out>873</out>
															<pproTicksIn>0</pproTicksIn>
															<pproTicksOut>7399257465600</pproTicksOut>
															<alphatype>straight</alphatype>
															<pixelaspectratio>square</pixelaspectratio>
															<anamorphic>FALSE</anamorphic>
															<file id="file-170">
																<name>1080/AE Attribution.aep</name>
																<pathurl>file://localhost/Volumes/ATM%20JR%202TB/Crafty/Master%20Assets%20/Attribution/AE%20Attribution.aep</pathurl>
																<rate>
																	<timebase>30</timebase>
																	<ntsc>TRUE</ntsc>
																</rate>
																<duration>5844</duration>
																<timecode>
																	<rate>
																		<timebase>30</timebase>
																		<ntsc>TRUE</ntsc>
																	</rate>
																	<string>00;00;00;00</string>
																	<frame>0</frame>
																	<displayformat>DF</displayformat>
																</timecode>
																<media>
																	<video>
																		<samplecharacteristics>
																			<rate>
																				<timebase>30</timebase>
																				<ntsc>TRUE</ntsc>
																			</rate>
																			<width>1920</width>
																			<height>1080</height>
																			<anamorphic>FALSE</anamorphic>
																			<pixelaspectratio>square</pixelaspectratio>
																			<fielddominance>lower</fielddominance>
																		</samplecharacteristics>
																	</video>
																</media>
															</file>
															<logginginfo>
																<description></description>
																<scene></scene>
																<shottake></shottake>
																<lognote></lognote>
																<good></good>
																<originalvideofilename></originalvideofilename>
																<originalaudiofilename></originalaudiofilename>
															</logginginfo>
															<colorinfo>
																<lut></lut>
																<lut1></lut1>
																<asc_sop></asc_sop>
																<asc_sat></asc_sat>
																<lut2></lut2>
															</colorinfo>
															<labels>
																<label2>Rose</label2>
															</labels>
														</clipitem>
														<clipitem id="clipitem-623">
															<masterclipid>masterclip-200</masterclipid>
															<name>@kellyybellyy62</name>
															<enabled>TRUE</enabled>
															<duration>5844</duration>
															<rate>
																<timebase>30</timebase>
																<ntsc>TRUE</ntsc>
															</rate>
															<start>873</start>
															<end>2055</end>
															<in>0</in>
															<out>1182</out>
															<pproTicksIn>0</pproTicksIn>
															<pproTicksOut>10018238630400</pproTicksOut>
															<alphatype>straight</alphatype>
															<pixelaspectratio>square</pixelaspectratio>
															<anamorphic>FALSE</anamorphic>
															<file id="file-171">
																<name>1080/AE Attribution.aep</name>
																<pathurl>file://localhost/Volumes/ATM%20JR%202TB/Crafty/Master%20Assets%20/Attribution/AE%20Attribution.aep</pathurl>
																<rate>
																	<timebase>30</timebase>
																	<ntsc>TRUE</ntsc>
																</rate>
																<duration>5844</duration>
																<timecode>
																	<rate>
																		<timebase>30</timebase>
																		<ntsc>TRUE</ntsc>
																	</rate>
																	<string>00;00;00;00</string>
																	<frame>0</frame>
																	<displayformat>DF</displayformat>
																</timecode>
																<media>
																	<video>
																		<samplecharacteristics>
																			<rate>
																				<timebase>30</timebase>
																				<ntsc>TRUE</ntsc>
																			</rate>
																			<width>1920</width>
																			<height>1080</height>
																			<anamorphic>FALSE</anamorphic>
																			<pixelaspectratio>square</pixelaspectratio>
																			<fielddominance>lower</fielddominance>
																		</samplecharacteristics>
																	</video>
																</media>
															</file>
															<logginginfo>
																<description></description>
																<scene></scene>
																<shottake></shottake>
																<lognote></lognote>
																<good></good>
																<originalvideofilename></originalvideofilename>
																<originalaudiofilename></originalaudiofilename>
															</logginginfo>
															<colorinfo>
																<lut></lut>
																<lut1></lut1>
																<asc_sop></asc_sop>
																<asc_sat></asc_sat>
																<lut2></lut2>
															</colorinfo>
															<labels>
																<label2>Rose</label2>
															</labels>
														</clipitem>
														<clipitem id="clipitem-624">
															<masterclipid>masterclip-199</masterclipid>
															<name>@Cinethia</name>
															<enabled>TRUE</enabled>
															<duration>5844</duration>
															<rate>
																<timebase>30</timebase>
																<ntsc>TRUE</ntsc>
															</rate>
															<start>2055</start>
															<end>3154</end>
															<in>2055</in>
															<out>3154</out>
															<pproTicksIn>17417496096000</pproTicksIn>
															<pproTicksOut>26732254348800</pproTicksOut>
															<alphatype>straight</alphatype>
															<file id="file-170"/>
															<logginginfo>
																<description></description>
																<scene></scene>
																<shottake></shottake>
																<lognote></lognote>
																<good></good>
																<originalvideofilename></originalvideofilename>
																<originalaudiofilename></originalaudiofilename>
															</logginginfo>
															<colorinfo>
																<lut></lut>
																<lut1></lut1>
																<asc_sop></asc_sop>
																<asc_sat></asc_sat>
																<lut2></lut2>
															</colorinfo>
															<labels>
																<label2>Rose</label2>
															</labels>
														</clipitem>
														<enabled>TRUE</enabled>
														<locked>FALSE</locked>
													</track>
												</video>
												<audio>
													<numOutputChannels>2</numOutputChannels>
													<format>
														<samplecharacteristics>
															<depth>16</depth>
															<samplerate>48000</samplerate>
														</samplecharacteristics>
													</format>
													<outputs>
														<group>
															<index>1</index>
															<numchannels>1</numchannels>
															<downmix>0</downmix>
															<channel>
																<index>1</index>
															</channel>
														</group>
														<group>
															<index>2</index>
															<numchannels>1</numchannels>
															<downmix>0</downmix>
															<channel>
																<index>2</index>
															</channel>
														</group>
													</outputs>
													<track TL.SQTrackAudioKeyframeStyle="0" TL.SQTrackShy="0" TL.SQTrackExpandedHeight="25" TL.SQTrackExpanded="0" MZ.TrackTargeted="1" PannerCurrentValue="0.5" PannerIsInverted="true" PannerStartKeyframe="-91445760000000000,0.5,0,0,0,0,0,0" PannerName="Balance" currentExplodedTrackIndex="0" totalExplodedTrackCount="2" premiereTrackType="Stereo">
														<clipitem id="clipitem-625" premiereChannelType="stereo">
															<masterclipid>masterclip-201</masterclipid>
															<name>ES_Walk Around Lake Johnson - Sarah, the Illstrumentalist.wav</name>
															<enabled>TRUE</enabled>
															<duration>3913</duration>
															<rate>
																<timebase>30</timebase>
																<ntsc>TRUE</ntsc>
															</rate>
															<start>0</start>
															<end>-1</end>
															<in>0</in>
															<out>3154</out>
															<pproTicksIn>0</pproTicksIn>
															<pproTicksOut>26732254348800</pproTicksOut>
															<file id="file-172">
																<name>ES_Walk Around Lake Johnson - Sarah, the Illstrumentalist.wav</name>
																<pathurl>file://localhost/Volumes/ATM%20JR%202TB/Crafty/2023/06_June/Crafty_6-19-23/5_Music/ES_Walk%20Around%20Lake%20Johnson%20-%20Sarah,%20the%20Illstrumentalist.wav</pathurl>
																<rate>
																	<timebase>30</timebase>
																	<ntsc>TRUE</ntsc>
																</rate>
																<duration>3913</duration>
																<timecode>
																	<rate>
																		<timebase>30</timebase>
																		<ntsc>TRUE</ntsc>
																	</rate>
																	<string>11;13;54;00</string>
																	<frame>1211808</frame>
																	<displayformat>DF</displayformat>
																</timecode>
																<media>
																	<audio>
																		<samplecharacteristics>
																			<depth>16</depth>
																			<samplerate>48000</samplerate>
																		</samplecharacteristics>
																		<channelcount>2</channelcount>
																	</audio>
																</media>
															</file>
															<sourcetrack>
																<mediatype>audio</mediatype>
																<trackindex>1</trackindex>
															</sourcetrack>
															<filter>
																<effect>
																	<name>Gain</name>
																	<effectid>{61756678, 4761696e, 4b657947}</effectid>
																	<effecttype>filter</effecttype>
																	<mediatype>audio</mediatype>
																	<parameter authoringApp="PremierePro">
																		<parameterid>Gain(dB)</parameterid>
																		<name>Gain(dB)</name>
																		<valuemin>-96</valuemin>
																		<valuemax>96</valuemax>
																		<value>-10</value>
																	</parameter>
																</effect>
															</filter>
															<link>
																<linkclipref>clipitem-625</linkclipref>
																<mediatype>audio</mediatype>
																<trackindex>1</trackindex>
																<clipindex>1</clipindex>
																<groupindex>1</groupindex>
															</link>
															<link>
																<linkclipref>clipitem-626</linkclipref>
																<mediatype>audio</mediatype>
																<trackindex>2</trackindex>
																<clipindex>1</clipindex>
																<groupindex>1</groupindex>
															</link>
															<logginginfo>
																<description></description>
																<scene></scene>
																<shottake></shottake>
																<lognote></lognote>
																<good></good>
																<originalvideofilename></originalvideofilename>
																<originalaudiofilename></originalaudiofilename>
															</logginginfo>
															<colorinfo>
																<lut></lut>
																<lut1></lut1>
																<asc_sop></asc_sop>
																<asc_sat></asc_sat>
																<lut2></lut2>
															</colorinfo>
															<labels>
																<label2>Caribbean</label2>
															</labels>
														</clipitem>
														<transitionitem>
															<start>3064</start>
															<end>3154</end>
															<pproTicksIn>25969444300800</pproTicksIn>
															<pproTicksOut>26732254348800</pproTicksOut>
															<alignment>end-black</alignment>
															<cutPointTicks>762810048000</cutPointTicks>
															<rate>
																<timebase>30</timebase>
																<ntsc>TRUE</ntsc>
															</rate>
															<effect>
																<name>Cross Fade (+3dB)</name>
																<effectid>KGAudioTransCrossFade3dB</effectid>
																<effecttype>transition</effecttype>
																<mediatype>audio</mediatype>
																<wipecode>0</wipecode>
																<wipeaccuracy>100</wipeaccuracy>
																<startratio>0</startratio>
																<endratio>1</endratio>
																<reverse>FALSE</reverse>
															</effect>
														</transitionitem>
														<enabled>TRUE</enabled>
														<locked>FALSE</locked>
														<outputchannelindex>1</outputchannelindex>
													</track>
													<track TL.SQTrackAudioKeyframeStyle="0" TL.SQTrackShy="0" TL.SQTrackExpandedHeight="25" TL.SQTrackExpanded="0" MZ.TrackTargeted="1" PannerCurrentValue="0.5" PannerIsInverted="true" PannerStartKeyframe="-91445760000000000,0.5,0,0,0,0,0,0" PannerName="Balance" currentExplodedTrackIndex="1" totalExplodedTrackCount="2" premiereTrackType="Stereo">
														<clipitem id="clipitem-626" premiereChannelType="stereo">
															<masterclipid>masterclip-201</masterclipid>
															<name>ES_Walk Around Lake Johnson - Sarah, the Illstrumentalist.wav</name>
															<enabled>TRUE</enabled>
															<duration>3913</duration>
															<rate>
																<timebase>30</timebase>
																<ntsc>TRUE</ntsc>
															</rate>
															<start>0</start>
															<end>-1</end>
															<in>0</in>
															<out>3154</out>
															<pproTicksIn>0</pproTicksIn>
															<pproTicksOut>26732254348800</pproTicksOut>
															<file id="file-172"/>
															<sourcetrack>
																<mediatype>audio</mediatype>
																<trackindex>2</trackindex>
															</sourcetrack>
															<filter>
																<effect>
																	<name>Gain</name>
																	<effectid>{61756678, 4761696e, 4b657947}</effectid>
																	<effecttype>filter</effecttype>
																	<mediatype>audio</mediatype>
																	<parameter authoringApp="PremierePro">
																		<parameterid>Gain(dB)</parameterid>
																		<name>Gain(dB)</name>
																		<valuemin>-96</valuemin>
																		<valuemax>96</valuemax>
																		<value>-10</value>
																	</parameter>
																</effect>
															</filter>
															<link>
																<linkclipref>clipitem-625</linkclipref>
																<mediatype>audio</mediatype>
																<trackindex>1</trackindex>
																<clipindex>1</clipindex>
																<groupindex>1</groupindex>
															</link>
															<link>
																<linkclipref>clipitem-626</linkclipref>
																<mediatype>audio</mediatype>
																<trackindex>2</trackindex>
																<clipindex>1</clipindex>
																<groupindex>1</groupindex>
															</link>
															<logginginfo>
																<description></description>
																<scene></scene>
																<shottake></shottake>
																<lognote></lognote>
																<good></good>
																<originalvideofilename></originalvideofilename>
																<originalaudiofilename></originalaudiofilename>
															</logginginfo>
															<colorinfo>
																<lut></lut>
																<lut1></lut1>
																<asc_sop></asc_sop>
																<asc_sat></asc_sat>
																<lut2></lut2>
															</colorinfo>
															<labels>
																<label2>Caribbean</label2>
															</labels>
														</clipitem>
														<transitionitem>
															<start>3064</start>
															<end>3154</end>
															<pproTicksIn>25969444300800</pproTicksIn>
															<pproTicksOut>26732254348800</pproTicksOut>
															<alignment>end-black</alignment>
															<cutPointTicks>762810048000</cutPointTicks>
															<rate>
																<timebase>30</timebase>
																<ntsc>TRUE</ntsc>
															</rate>
															<effect>
																<name>Cross Fade (+3dB)</name>
																<effectid>KGAudioTransCrossFade3dB</effectid>
																<effecttype>transition</effecttype>
																<mediatype>audio</mediatype>
																<wipecode>0</wipecode>
																<wipeaccuracy>100</wipeaccuracy>
																<startratio>0</startratio>
																<endratio>1</endratio>
																<reverse>FALSE</reverse>
															</effect>
														</transitionitem>
														<enabled>TRUE</enabled>
														<locked>FALSE</locked>
														<outputchannelindex>2</outputchannelindex>
													</track>
												</audio>
											</media>
											<timecode>
												<rate>
													<timebase>30</timebase>
													<ntsc>TRUE</ntsc>
												</rate>
												<string>00;00;00;00</string>
												<frame>0</frame>
												<displayformat>DF</displayformat>
											</timecode>
											<logginginfo>
												<description></description>
												<scene></scene>
												<shottake></shottake>
												<lognote></lognote>
												<good></good>
												<originalvideofilename></originalvideofilename>
												<originalaudiofilename></originalaudiofilename>
											</logginginfo>
										</sequence>
										<link>
											<linkclipref>clipitem-603</linkclipref>
											<mediatype>video</mediatype>
											<trackindex>1</trackindex>
											<clipindex>2</clipindex>
										</link>
										<link>
											<linkclipref>clipitem-633</linkclipref>
											<mediatype>audio</mediatype>
											<trackindex>1</trackindex>
											<clipindex>2</clipindex>
											<groupindex>1</groupindex>
										</link>
										<link>
											<linkclipref>clipitem-636</linkclipref>
											<mediatype>audio</mediatype>
											<trackindex>2</trackindex>
											<clipindex>2</clipindex>
											<groupindex>1</groupindex>
										</link>
										<labels>
											<label2>Forest</label2>
										</labels>
									</clipitem>
									<clipitem id="clipitem-627">
										<masterclipid>masterclip-128</masterclipid>
										<name>ATM_YouAreWatching.mp4</name>
										<enabled>TRUE</enabled>
										<duration>299</duration>
										<rate>
											<timebase>30</timebase>
											<ntsc>TRUE</ntsc>
										</rate>
										<start>5246</start>
										<end>5545</end>
										<in>0</in>
										<out>299</out>
										<pproTicksIn>0</pproTicksIn>
										<pproTicksOut>2534224492800</pproTicksOut>
										<alphatype>none</alphatype>
										<file id="file-111"/>
										<link>
											<linkclipref>clipitem-627</linkclipref>
											<mediatype>video</mediatype>
											<trackindex>1</trackindex>
											<clipindex>3</clipindex>
										</link>
										<link>
											<linkclipref>clipitem-634</linkclipref>
											<mediatype>audio</mediatype>
											<trackindex>1</trackindex>
											<clipindex>3</clipindex>
											<groupindex>1</groupindex>
										</link>
										<link>
											<linkclipref>clipitem-637</linkclipref>
											<mediatype>audio</mediatype>
											<trackindex>2</trackindex>
											<clipindex>3</clipindex>
											<groupindex>1</groupindex>
										</link>
										<logginginfo>
											<description></description>
											<scene></scene>
											<shottake></shottake>
											<lognote></lognote>
											<good></good>
											<originalvideofilename></originalvideofilename>
											<originalaudiofilename></originalaudiofilename>
										</logginginfo>
										<colorinfo>
											<lut></lut>
											<lut1></lut1>
											<asc_sop></asc_sop>
											<asc_sat></asc_sat>
											<lut2></lut2>
										</colorinfo>
										<labels>
											<label2>Iris</label2>
										</labels>
									</clipitem>
									<enabled>TRUE</enabled>
									<locked>FALSE</locked>
								</track>
								<track TL.SQTrackShy="0" TL.SQTrackExpandedHeight="25" TL.SQTrackExpanded="0" MZ.TrackTargeted="0">
									<clipitem id="clipitem-628">
										<masterclipid>masterclip-202</masterclipid>
										<name>HOW TO ANTIQUE A MIRROR</name>
										<enabled>TRUE</enabled>
										<duration>5695</duration>
										<rate>
											<timebase>30</timebase>
											<ntsc>TRUE</ntsc>
										</rate>
										<start>0</start>
										<end>2000</end>
										<in>0</in>
										<out>2000</out>
										<pproTicksIn>0</pproTicksIn>
										<pproTicksOut>16951334400000</pproTicksOut>
										<alphatype>straight</alphatype>
										<pixelaspectratio>square</pixelaspectratio>
										<anamorphic>FALSE</anamorphic>
										<file id="file-173">
											<name>CRAFTY_L3RD_01_JL_V03/CRAFTY_L3RD_01_JL_V03.aep</name>
											<pathurl>file://localhost/Volumes/ATM%20JR%202TB/Crafty/Master%20Assets%20/Lower%20Thirds/CRAFTY_L3RD_01_JL_V03.aep</pathurl>
											<rate>
												<timebase>30</timebase>
												<ntsc>FALSE</ntsc>
											</rate>
											<duration>5701</duration>
											<timecode>
												<rate>
													<timebase>30</timebase>
													<ntsc>FALSE</ntsc>
												</rate>
												<string>00:00:00:00</string>
												<frame>0</frame>
												<displayformat>NDF</displayformat>
											</timecode>
											<media>
												<video>
													<samplecharacteristics>
														<rate>
															<timebase>30</timebase>
															<ntsc>FALSE</ntsc>
														</rate>
														<width>1920</width>
														<height>1080</height>
														<anamorphic>FALSE</anamorphic>
														<pixelaspectratio>square</pixelaspectratio>
														<fielddominance>lower</fielddominance>
													</samplecharacteristics>
												</video>
											</media>
										</file>
										<logginginfo>
											<description></description>
											<scene></scene>
											<shottake></shottake>
											<lognote></lognote>
											<good></good>
											<originalvideofilename></originalvideofilename>
											<originalaudiofilename></originalaudiofilename>
										</logginginfo>
										<colorinfo>
											<lut></lut>
											<lut1></lut1>
											<asc_sop></asc_sop>
											<asc_sat></asc_sat>
											<lut2></lut2>
										</colorinfo>
										<labels>
											<label2>Rose</label2>
										</labels>
									</clipitem>
									<clipitem id="clipitem-629">
										<masterclipid>masterclip-203</masterclipid>
										<name>RESIN WONDERS OF THE WORLD</name>
										<enabled>TRUE</enabled>
										<duration>5695</duration>
										<rate>
											<timebase>30</timebase>
											<ntsc>TRUE</ntsc>
										</rate>
										<start>2109</start>
										<end>5246</end>
										<in>0</in>
										<out>3137</out>
										<pproTicksIn>0</pproTicksIn>
										<pproTicksOut>26588168006400</pproTicksOut>
										<alphatype>straight</alphatype>
										<pixelaspectratio>square</pixelaspectratio>
										<anamorphic>FALSE</anamorphic>
										<file id="file-174">
											<name>CRAFTY_L3RD_01_JL_V03/CRAFTY_L3RD_01_JL_V03.aep</name>
											<pathurl>file://localhost/Volumes/ATM%20JR%202TB/Crafty/Master%20Assets%20/Lower%20Thirds/CRAFTY_L3RD_01_JL_V03.aep</pathurl>
											<rate>
												<timebase>30</timebase>
												<ntsc>FALSE</ntsc>
											</rate>
											<duration>5701</duration>
											<timecode>
												<rate>
													<timebase>30</timebase>
													<ntsc>FALSE</ntsc>
												</rate>
												<string>00:00:00:00</string>
												<frame>0</frame>
												<displayformat>NDF</displayformat>
											</timecode>
											<media>
												<video>
													<samplecharacteristics>
														<rate>
															<timebase>30</timebase>
															<ntsc>FALSE</ntsc>
														</rate>
														<width>1920</width>
														<height>1080</height>
														<anamorphic>FALSE</anamorphic>
														<pixelaspectratio>square</pixelaspectratio>
														<fielddominance>lower</fielddominance>
													</samplecharacteristics>
												</video>
											</media>
										</file>
										<logginginfo>
											<description></description>
											<scene></scene>
											<shottake></shottake>
											<lognote></lognote>
											<good></good>
											<originalvideofilename></originalvideofilename>
											<originalaudiofilename></originalaudiofilename>
										</logginginfo>
										<colorinfo>
											<lut></lut>
											<lut1></lut1>
											<asc_sop></asc_sop>
											<asc_sat></asc_sat>
											<lut2></lut2>
										</colorinfo>
										<labels>
											<label2>Rose</label2>
										</labels>
									</clipitem>
									<enabled>TRUE</enabled>
									<locked>FALSE</locked>
								</track>
								<track TL.SQTrackShy="0" TL.SQTrackExpandedHeight="25" TL.SQTrackExpanded="0" MZ.TrackTargeted="0">
									<clipitem id="clipitem-630">
										<masterclipid>masterclip-102</masterclipid>
										<name>ATM_logo_channels_right-2 (3).png</name>
										<enabled>TRUE</enabled>
										<duration>1294705</duration>
										<rate>
											<timebase>30</timebase>
											<ntsc>TRUE</ntsc>
										</rate>
										<start>0</start>
										<end>5246</end>
										<in>107892</in>
										<out>113138</out>
										<pproTicksIn>914456685542400</pproTicksIn>
										<pproTicksOut>958920035673600</pproTicksOut>
										<alphatype>straight</alphatype>
										<file id="file-89"/>
										<logginginfo>
											<description></description>
											<scene></scene>
											<shottake></shottake>
											<lognote></lognote>
											<good></good>
											<originalvideofilename></originalvideofilename>
											<originalaudiofilename></originalaudiofilename>
										</logginginfo>
										<colorinfo>
											<lut></lut>
											<lut1></lut1>
											<asc_sop></asc_sop>
											<asc_sat></asc_sat>
											<lut2></lut2>
										</colorinfo>
										<labels>
											<label2>Lavender</label2>
										</labels>
									</clipitem>
									<enabled>TRUE</enabled>
									<locked>FALSE</locked>
								</track>
								<track TL.SQTrackShy="0" TL.SQTrackExpandedHeight="25" TL.SQTrackExpanded="0" MZ.TrackTargeted="0">
									<clipitem id="clipitem-631">
										<masterclipid>masterclip-104</masterclipid>
										<name>CRAFTY_TRAN03_JL_V01.mov</name>
										<enabled>TRUE</enabled>
										<duration>120</duration>
										<rate>
											<timebase>30</timebase>
											<ntsc>TRUE</ntsc>
										</rate>
										<start>1989</start>
										<end>2109</end>
										<in>0</in>
										<out>120</out>
										<pproTicksIn>0</pproTicksIn>
										<pproTicksOut>1017080064000</pproTicksOut>
										<alphatype>none</alphatype>
										<file id="file-91"/>
										<link>
											<linkclipref>clipitem-631</linkclipref>
											<mediatype>video</mediatype>
											<trackindex>4</trackindex>
											<clipindex>1</clipindex>
										</link>
										<link>
											<linkclipref>clipitem-638</linkclipref>
											<mediatype>audio</mediatype>
											<trackindex>3</trackindex>
											<clipindex>1</clipindex>
											<groupindex>1</groupindex>
										</link>
										<link>
											<linkclipref>clipitem-639</linkclipref>
											<mediatype>audio</mediatype>
											<trackindex>4</trackindex>
											<clipindex>1</clipindex>
											<groupindex>1</groupindex>
										</link>
										<logginginfo>
											<description></description>
											<scene></scene>
											<shottake></shottake>
											<lognote></lognote>
											<good></good>
											<originalvideofilename></originalvideofilename>
											<originalaudiofilename></originalaudiofilename>
										</logginginfo>
										<colorinfo>
											<lut></lut>
											<lut1></lut1>
											<asc_sop></asc_sop>
											<asc_sat></asc_sat>
											<lut2></lut2>
										</colorinfo>
										<labels>
											<label2>Iris</label2>
										</labels>
									</clipitem>
									<enabled>TRUE</enabled>
									<locked>FALSE</locked>
								</track>
							</video>
							<audio>
								<numOutputChannels>2</numOutputChannels>
								<format>
									<samplecharacteristics>
										<depth>16</depth>
										<samplerate>48000</samplerate>
									</samplecharacteristics>
								</format>
								<outputs>
									<group>
										<index>1</index>
										<numchannels>1</numchannels>
										<downmix>0</downmix>
										<channel>
											<index>1</index>
										</channel>
									</group>
									<group>
										<index>2</index>
										<numchannels>1</numchannels>
										<downmix>0</downmix>
										<channel>
											<index>2</index>
										</channel>
									</group>
								</outputs>
								<track TL.SQTrackAudioKeyframeStyle="0" TL.SQTrackShy="0" TL.SQTrackExpandedHeight="83" TL.SQTrackExpanded="0" MZ.TrackTargeted="1" PannerCurrentValue="0.5" PannerIsInverted="true" PannerStartKeyframe="-91445760000000000,0.5,0,0,0,0,0,0" PannerName="Balance" currentExplodedTrackIndex="0" totalExplodedTrackCount="2" premiereTrackType="Stereo">
									<clipitem id="clipitem-632" premiereChannelType="stereo">
										<masterclipid>masterclip-191</masterclipid>
										<name>DIY_HOWTOANTIQUEAMIRROR_1</name>
										<enabled>TRUE</enabled>
										<duration>2000</duration>
										<rate>
											<timebase>30</timebase>
											<ntsc>TRUE</ntsc>
										</rate>
										<start>0</start>
										<end>2000</end>
										<in>0</in>
										<out>2000</out>
										<pproTicksIn>0</pproTicksIn>
										<pproTicksOut>16951334400000</pproTicksOut>
										<sequence id="sequence-42"/>
										<sourcetrack>
											<mediatype>audio</mediatype>
											<trackindex>0</trackindex>
										</sourcetrack>
										<link>
											<linkclipref>clipitem-595</linkclipref>
											<mediatype>video</mediatype>
											<trackindex>1</trackindex>
											<clipindex>1</clipindex>
										</link>
										<link>
											<linkclipref>clipitem-632</linkclipref>
											<mediatype>audio</mediatype>
											<trackindex>1</trackindex>
											<clipindex>1</clipindex>
											<groupindex>1</groupindex>
										</link>
										<link>
											<linkclipref>clipitem-635</linkclipref>
											<mediatype>audio</mediatype>
											<trackindex>2</trackindex>
											<clipindex>1</clipindex>
											<groupindex>1</groupindex>
										</link>
										<labels>
											<label2>Forest</label2>
										</labels>
									</clipitem>
									<clipitem id="clipitem-633" premiereChannelType="stereo">
										<masterclipid>masterclip-194</masterclipid>
										<name>ART_RESINWONDERSOFTHEWORLD_2</name>
										<enabled>TRUE</enabled>
										<duration>3397</duration>
										<rate>
											<timebase>30</timebase>
											<ntsc>TRUE</ntsc>
										</rate>
										<start>2100</start>
										<end>5246</end>
										<in>0</in>
										<out>3146</out>
										<pproTicksIn>0</pproTicksIn>
										<pproTicksOut>26664449011200</pproTicksOut>
										<sequence id="sequence-43"/>
										<sourcetrack>
											<mediatype>audio</mediatype>
											<trackindex>0</trackindex>
										</sourcetrack>
										<link>
											<linkclipref>clipitem-603</linkclipref>
											<mediatype>video</mediatype>
											<trackindex>1</trackindex>
											<clipindex>2</clipindex>
										</link>
										<link>
											<linkclipref>clipitem-633</linkclipref>
											<mediatype>audio</mediatype>
											<trackindex>1</trackindex>
											<clipindex>2</clipindex>
											<groupindex>1</groupindex>
										</link>
										<link>
											<linkclipref>clipitem-636</linkclipref>
											<mediatype>audio</mediatype>
											<trackindex>2</trackindex>
											<clipindex>2</clipindex>
											<groupindex>1</groupindex>
										</link>
										<labels>
											<label2>Forest</label2>
										</labels>
									</clipitem>
									<clipitem id="clipitem-634" premiereChannelType="stereo">
										<masterclipid>masterclip-128</masterclipid>
										<name>ATM_YouAreWatching.mp4</name>
										<enabled>TRUE</enabled>
										<duration>299</duration>
										<rate>
											<timebase>30</timebase>
											<ntsc>TRUE</ntsc>
										</rate>
										<start>5246</start>
										<end>5545</end>
										<in>0</in>
										<out>299</out>
										<pproTicksIn>0</pproTicksIn>
										<pproTicksOut>2534224492800</pproTicksOut>
										<file id="file-111"/>
										<sourcetrack>
											<mediatype>audio</mediatype>
											<trackindex>1</trackindex>
										</sourcetrack>
										<filter>
											<effect>
												<name>Gain</name>
												<effectid>{61756678, 4761696e, 4b657947}</effectid>
												<effecttype>filter</effecttype>
												<mediatype>audio</mediatype>
												<parameter authoringApp="PremierePro">
													<parameterid>Gain(dB)</parameterid>
													<name>Gain(dB)</name>
													<valuemin>-96</valuemin>
													<valuemax>96</valuemax>
													<value>-8</value>
												</parameter>
											</effect>
										</filter>
										<link>
											<linkclipref>clipitem-627</linkclipref>
											<mediatype>video</mediatype>
											<trackindex>1</trackindex>
											<clipindex>3</clipindex>
										</link>
										<link>
											<linkclipref>clipitem-634</linkclipref>
											<mediatype>audio</mediatype>
											<trackindex>1</trackindex>
											<clipindex>3</clipindex>
											<groupindex>1</groupindex>
										</link>
										<link>
											<linkclipref>clipitem-637</linkclipref>
											<mediatype>audio</mediatype>
											<trackindex>2</trackindex>
											<clipindex>3</clipindex>
											<groupindex>1</groupindex>
										</link>
										<logginginfo>
											<description></description>
											<scene></scene>
											<shottake></shottake>
											<lognote></lognote>
											<good></good>
											<originalvideofilename></originalvideofilename>
											<originalaudiofilename></originalaudiofilename>
										</logginginfo>
										<colorinfo>
											<lut></lut>
											<lut1></lut1>
											<asc_sop></asc_sop>
											<asc_sat></asc_sat>
											<lut2></lut2>
										</colorinfo>
										<labels>
											<label2>Iris</label2>
										</labels>
									</clipitem>
									<enabled>TRUE</enabled>
									<locked>FALSE</locked>
									<outputchannelindex>1</outputchannelindex>
								</track>
								<track TL.SQTrackAudioKeyframeStyle="0" TL.SQTrackShy="0" TL.SQTrackExpandedHeight="83" TL.SQTrackExpanded="0" MZ.TrackTargeted="1" PannerCurrentValue="0.5" PannerIsInverted="true" PannerStartKeyframe="-91445760000000000,0.5,0,0,0,0,0,0" PannerName="Balance" currentExplodedTrackIndex="1" totalExplodedTrackCount="2" premiereTrackType="Stereo">
									<clipitem id="clipitem-635" premiereChannelType="stereo">
										<masterclipid>masterclip-191</masterclipid>
										<name>DIY_HOWTOANTIQUEAMIRROR_1</name>
										<enabled>TRUE</enabled>
										<duration>2000</duration>
										<rate>
											<timebase>30</timebase>
											<ntsc>TRUE</ntsc>
										</rate>
										<start>0</start>
										<end>2000</end>
										<in>0</in>
										<out>2000</out>
										<pproTicksIn>0</pproTicksIn>
										<pproTicksOut>16951334400000</pproTicksOut>
										<sequence id="sequence-42"/>
										<sourcetrack>
											<mediatype>audio</mediatype>
											<trackindex>1</trackindex>
										</sourcetrack>
										<link>
											<linkclipref>clipitem-595</linkclipref>
											<mediatype>video</mediatype>
											<trackindex>1</trackindex>
											<clipindex>1</clipindex>
										</link>
										<link>
											<linkclipref>clipitem-632</linkclipref>
											<mediatype>audio</mediatype>
											<trackindex>1</trackindex>
											<clipindex>1</clipindex>
											<groupindex>1</groupindex>
										</link>
										<link>
											<linkclipref>clipitem-635</linkclipref>
											<mediatype>audio</mediatype>
											<trackindex>2</trackindex>
											<clipindex>1</clipindex>
											<groupindex>1</groupindex>
										</link>
										<labels>
											<label2>Forest</label2>
										</labels>
									</clipitem>
									<clipitem id="clipitem-636" premiereChannelType="stereo">
										<masterclipid>masterclip-194</masterclipid>
										<name>ART_RESINWONDERSOFTHEWORLD_2</name>
										<enabled>TRUE</enabled>
										<duration>3397</duration>
										<rate>
											<timebase>30</timebase>
											<ntsc>TRUE</ntsc>
										</rate>
										<start>2100</start>
										<end>5246</end>
										<in>0</in>
										<out>3146</out>
										<pproTicksIn>0</pproTicksIn>
										<pproTicksOut>26664449011200</pproTicksOut>
										<sequence id="sequence-43"/>
										<sourcetrack>
											<mediatype>audio</mediatype>
											<trackindex>1</trackindex>
										</sourcetrack>
										<link>
											<linkclipref>clipitem-603</linkclipref>
											<mediatype>video</mediatype>
											<trackindex>1</trackindex>
											<clipindex>2</clipindex>
										</link>
										<link>
											<linkclipref>clipitem-633</linkclipref>
											<mediatype>audio</mediatype>
											<trackindex>1</trackindex>
											<clipindex>2</clipindex>
											<groupindex>1</groupindex>
										</link>
										<link>
											<linkclipref>clipitem-636</linkclipref>
											<mediatype>audio</mediatype>
											<trackindex>2</trackindex>
											<clipindex>2</clipindex>
											<groupindex>1</groupindex>
										</link>
										<labels>
											<label2>Forest</label2>
										</labels>
									</clipitem>
									<clipitem id="clipitem-637" premiereChannelType="stereo">
										<masterclipid>masterclip-128</masterclipid>
										<name>ATM_YouAreWatching.mp4</name>
										<enabled>TRUE</enabled>
										<duration>299</duration>
										<rate>
											<timebase>30</timebase>
											<ntsc>TRUE</ntsc>
										</rate>
										<start>5246</start>
										<end>5545</end>
										<in>0</in>
										<out>299</out>
										<pproTicksIn>0</pproTicksIn>
										<pproTicksOut>2534224492800</pproTicksOut>
										<file id="file-111"/>
										<sourcetrack>
											<mediatype>audio</mediatype>
											<trackindex>2</trackindex>
										</sourcetrack>
										<filter>
											<effect>
												<name>Gain</name>
												<effectid>{61756678, 4761696e, 4b657947}</effectid>
												<effecttype>filter</effecttype>
												<mediatype>audio</mediatype>
												<parameter authoringApp="PremierePro">
													<parameterid>Gain(dB)</parameterid>
													<name>Gain(dB)</name>
													<valuemin>-96</valuemin>
													<valuemax>96</valuemax>
													<value>-8</value>
												</parameter>
											</effect>
										</filter>
										<link>
											<linkclipref>clipitem-627</linkclipref>
											<mediatype>video</mediatype>
											<trackindex>1</trackindex>
											<clipindex>3</clipindex>
										</link>
										<link>
											<linkclipref>clipitem-634</linkclipref>
											<mediatype>audio</mediatype>
											<trackindex>1</trackindex>
											<clipindex>3</clipindex>
											<groupindex>1</groupindex>
										</link>
										<link>
											<linkclipref>clipitem-637</linkclipref>
											<mediatype>audio</mediatype>
											<trackindex>2</trackindex>
											<clipindex>3</clipindex>
											<groupindex>1</groupindex>
										</link>
										<logginginfo>
											<description></description>
											<scene></scene>
											<shottake></shottake>
											<lognote></lognote>
											<good></good>
											<originalvideofilename></originalvideofilename>
											<originalaudiofilename></originalaudiofilename>
										</logginginfo>
										<colorinfo>
											<lut></lut>
											<lut1></lut1>
											<asc_sop></asc_sop>
											<asc_sat></asc_sat>
											<lut2></lut2>
										</colorinfo>
										<labels>
											<label2>Iris</label2>
										</labels>
									</clipitem>
									<enabled>TRUE</enabled>
									<locked>FALSE</locked>
									<outputchannelindex>2</outputchannelindex>
								</track>
								<track TL.SQTrackAudioKeyframeStyle="0" TL.SQTrackShy="0" TL.SQTrackExpandedHeight="83" TL.SQTrackExpanded="0" MZ.TrackTargeted="1" PannerCurrentValue="0.5" PannerIsInverted="true" PannerStartKeyframe="-91445760000000000,0.5,0,0,0,0,0,0" PannerName="Balance" currentExplodedTrackIndex="0" totalExplodedTrackCount="2" premiereTrackType="Stereo">
									<clipitem id="clipitem-638" premiereChannelType="stereo">
										<masterclipid>masterclip-104</masterclipid>
										<name>CRAFTY_TRAN03_JL_V01.mov</name>
										<enabled>TRUE</enabled>
										<duration>120</duration>
										<rate>
											<timebase>30</timebase>
											<ntsc>TRUE</ntsc>
										</rate>
										<start>1989</start>
										<end>2109</end>
										<in>0</in>
										<out>120</out>
										<pproTicksIn>0</pproTicksIn>
										<pproTicksOut>1017080064000</pproTicksOut>
										<file id="file-91"/>
										<sourcetrack>
											<mediatype>audio</mediatype>
											<trackindex>1</trackindex>
										</sourcetrack>
										<link>
											<linkclipref>clipitem-631</linkclipref>
											<mediatype>video</mediatype>
											<trackindex>4</trackindex>
											<clipindex>1</clipindex>
										</link>
										<link>
											<linkclipref>clipitem-638</linkclipref>
											<mediatype>audio</mediatype>
											<trackindex>3</trackindex>
											<clipindex>1</clipindex>
											<groupindex>1</groupindex>
										</link>
										<link>
											<linkclipref>clipitem-639</linkclipref>
											<mediatype>audio</mediatype>
											<trackindex>4</trackindex>
											<clipindex>1</clipindex>
											<groupindex>1</groupindex>
										</link>
										<logginginfo>
											<description></description>
											<scene></scene>
											<shottake></shottake>
											<lognote></lognote>
											<good></good>
											<originalvideofilename></originalvideofilename>
											<originalaudiofilename></originalaudiofilename>
										</logginginfo>
										<colorinfo>
											<lut></lut>
											<lut1></lut1>
											<asc_sop></asc_sop>
											<asc_sat></asc_sat>
											<lut2></lut2>
										</colorinfo>
										<labels>
											<label2>Iris</label2>
										</labels>
									</clipitem>
									<enabled>TRUE</enabled>
									<locked>FALSE</locked>
									<outputchannelindex>1</outputchannelindex>
								</track>
								<track TL.SQTrackAudioKeyframeStyle="0" TL.SQTrackShy="0" TL.SQTrackExpandedHeight="83" TL.SQTrackExpanded="0" MZ.TrackTargeted="1" PannerCurrentValue="0.5" PannerIsInverted="true" PannerStartKeyframe="-91445760000000000,0.5,0,0,0,0,0,0" PannerName="Balance" currentExplodedTrackIndex="1" totalExplodedTrackCount="2" premiereTrackType="Stereo">
									<clipitem id="clipitem-639" premiereChannelType="stereo">
										<masterclipid>masterclip-104</masterclipid>
										<name>CRAFTY_TRAN03_JL_V01.mov</name>
										<enabled>TRUE</enabled>
										<duration>120</duration>
										<rate>
											<timebase>30</timebase>
											<ntsc>TRUE</ntsc>
										</rate>
										<start>1989</start>
										<end>2109</end>
										<in>0</in>
										<out>120</out>
										<pproTicksIn>0</pproTicksIn>
										<pproTicksOut>1017080064000</pproTicksOut>
										<file id="file-91"/>
										<sourcetrack>
											<mediatype>audio</mediatype>
											<trackindex>2</trackindex>
										</sourcetrack>
										<link>
											<linkclipref>clipitem-631</linkclipref>
											<mediatype>video</mediatype>
											<trackindex>4</trackindex>
											<clipindex>1</clipindex>
										</link>
										<link>
											<linkclipref>clipitem-638</linkclipref>
											<mediatype>audio</mediatype>
											<trackindex>3</trackindex>
											<clipindex>1</clipindex>
											<groupindex>1</groupindex>
										</link>
										<link>
											<linkclipref>clipitem-639</linkclipref>
											<mediatype>audio</mediatype>
											<trackindex>4</trackindex>
											<clipindex>1</clipindex>
											<groupindex>1</groupindex>
										</link>
										<logginginfo>
											<description></description>
											<scene></scene>
											<shottake></shottake>
											<lognote></lognote>
											<good></good>
											<originalvideofilename></originalvideofilename>
											<originalaudiofilename></originalaudiofilename>
										</logginginfo>
										<colorinfo>
											<lut></lut>
											<lut1></lut1>
											<asc_sop></asc_sop>
											<asc_sat></asc_sat>
											<lut2></lut2>
										</colorinfo>
										<labels>
											<label2>Iris</label2>
										</labels>
									</clipitem>
									<enabled>TRUE</enabled>
									<locked>FALSE</locked>
									<outputchannelindex>2</outputchannelindex>
								</track>
								<track TL.SQTrackAudioKeyframeStyle="0" TL.SQTrackShy="0" TL.SQTrackExpandedHeight="83" TL.SQTrackExpanded="0" MZ.TrackTargeted="1" PannerCurrentValue="0.5" PannerIsInverted="true" PannerStartKeyframe="-91445760000000000,0.5,0,0,0,0,0,0" PannerName="Balance" currentExplodedTrackIndex="0" totalExplodedTrackCount="2" premiereTrackType="Stereo">
									<enabled>TRUE</enabled>
									<locked>FALSE</locked>
									<outputchannelindex>1</outputchannelindex>
								</track>
								<track TL.SQTrackAudioKeyframeStyle="0" TL.SQTrackShy="0" TL.SQTrackExpandedHeight="83" TL.SQTrackExpanded="0" MZ.TrackTargeted="1" PannerCurrentValue="0.5" PannerIsInverted="true" PannerStartKeyframe="-91445760000000000,0.5,0,0,0,0,0,0" PannerName="Balance" currentExplodedTrackIndex="1" totalExplodedTrackCount="2" premiereTrackType="Stereo">
									<enabled>TRUE</enabled>
									<locked>FALSE</locked>
									<outputchannelindex>2</outputchannelindex>
								</track>
								<track TL.SQTrackAudioKeyframeStyle="0" TL.SQTrackShy="0" TL.SQTrackExpandedHeight="83" TL.SQTrackExpanded="0" MZ.TrackTargeted="0" PannerCurrentValue="0.5" PannerIsInverted="true" PannerStartKeyframe="-91445760000000000,0.5,0,0,0,0,0,0" PannerName="Balance" currentExplodedTrackIndex="0" totalExplodedTrackCount="2" premiereTrackType="Stereo">
									<enabled>TRUE</enabled>
									<locked>FALSE</locked>
									<outputchannelindex>1</outputchannelindex>
								</track>
								<track TL.SQTrackAudioKeyframeStyle="0" TL.SQTrackShy="0" TL.SQTrackExpandedHeight="83" TL.SQTrackExpanded="0" MZ.TrackTargeted="0" PannerCurrentValue="0.5" PannerIsInverted="true" PannerStartKeyframe="-91445760000000000,0.5,0,0,0,0,0,0" PannerName="Balance" currentExplodedTrackIndex="1" totalExplodedTrackCount="2" premiereTrackType="Stereo">
									<enabled>TRUE</enabled>
									<locked>FALSE</locked>
									<outputchannelindex>2</outputchannelindex>
								</track>
							</audio>
						</media>
						<timecode>
							<rate>
								<timebase>30</timebase>
								<ntsc>TRUE</ntsc>
							</rate>
							<string>00;00;00;00</string>
							<frame>0</frame>
							<displayformat>DF</displayformat>
						</timecode>
						<labels>
							<label2>Forest</label2>
						</labels>
						<logginginfo>
							<description></description>
							<scene></scene>
							<shottake></shottake>
							<lognote></lognote>
							<good></good>
							<originalvideofilename></originalvideofilename>
							<originalaudiofilename></originalaudiofilename>
						</logginginfo>
					</sequence>
					<sequence id="sequence-44" TL.SQAudioVisibleBase="0" TL.SQVideoVisibleBase="0" TL.SQVisibleBaseTime="0" TL.SQAVDividerPosition="0.5" TL.SQHideShyTracks="0" TL.SQHeaderWidth="236" TL.SQDataTrackViewControlState="0" Monitor.ProgramZoomOut="46599218265600" Monitor.ProgramZoomIn="0" TL.SQTimePerPixel="0.45776232849737014" MZ.EditLine="4653141292800" MZ.Sequence.PreviewFrameSizeHeight="1080" MZ.Sequence.PreviewFrameSizeWidth="1920" MZ.Sequence.AudioTimeDisplayFormat="200" MZ.Sequence.PreviewRenderingClassID="1061109567" MZ.Sequence.PreviewRenderingPresetCodec="1634755443" MZ.Sequence.PreviewRenderingPresetPath="EncoderPresets/SequencePreview/35d109db-457b-43c1-9452-9cb7be9f121c/QuickTime.epr" MZ.Sequence.PreviewUseMaxRenderQuality="false" MZ.Sequence.PreviewUseMaxBitDepth="false" MZ.Sequence.EditingModeGUID="35d109db-457b-43c1-9452-9cb7be9f121c" MZ.Sequence.VideoTimeDisplayFormat="102" MZ.WorkOutPoint="15239249625600" MZ.WorkInPoint="0" explodedTracks="true">
						<uuid>7011717a-ecbb-4278-9c4b-51c1dc26b405</uuid>
						<duration>5396</duration>
						<rate>
							<timebase>30</timebase>
							<ntsc>TRUE</ntsc>
						</rate>
						<name>ATM_CRAFTY_310</name>
						<media>
							<video>
								<format>
									<samplecharacteristics>
										<rate>
											<timebase>30</timebase>
											<ntsc>TRUE</ntsc>
										</rate>
										<codec>
											<name>Apple ProRes 422</name>
											<appspecificdata>
												<appname>Final Cut Pro</appname>
												<appmanufacturer>Apple Inc.</appmanufacturer>
												<appversion>7.0</appversion>
												<data>
													<qtcodec>
														<codecname>Apple ProRes 422</codecname>
														<codectypename>Apple ProRes 422</codectypename>
														<codectypecode>apcn</codectypecode>
														<codecvendorcode>appl</codecvendorcode>
														<spatialquality>1024</spatialquality>
														<temporalquality>0</temporalquality>
														<keyframerate>0</keyframerate>
														<datarate>0</datarate>
													</qtcodec>
												</data>
											</appspecificdata>
										</codec>
										<width>1920</width>
										<height>1080</height>
										<anamorphic>FALSE</anamorphic>
										<pixelaspectratio>square</pixelaspectratio>
										<fielddominance>none</fielddominance>
										<colordepth>24</colordepth>
									</samplecharacteristics>
								</format>
								<track TL.SQTrackShy="0" TL.SQTrackExpandedHeight="25" TL.SQTrackExpanded="0" MZ.TrackTargeted="1">
									<clipitem id="clipitem-640">
										<masterclipid>masterclip-204</masterclipid>
										<name>BEAUTY_SUMMERMAKEUP_1</name>
										<enabled>TRUE</enabled>
										<duration>2116</duration>
										<rate>
											<timebase>30</timebase>
											<ntsc>TRUE</ntsc>
										</rate>
										<start>0</start>
										<end>2116</end>
										<in>0</in>
										<out>2116</out>
										<pproTicksIn>0</pproTicksIn>
										<pproTicksOut>17934511795200</pproTicksOut>
										<sequence id="sequence-45" TL.SQAudioVisibleBase="0" TL.SQVideoVisibleBase="0" TL.SQVisibleBaseTime="0" TL.SQAVDividerPosition="0.5" TL.SQHideShyTracks="0" TL.SQHeaderWidth="236" Monitor.ProgramZoomOut="17934511795200" Monitor.ProgramZoomIn="0" TL.SQTimePerPixel="0.10158692875781586" MZ.EditLine="11721847737600" MZ.Sequence.PreviewFrameSizeHeight="1080" MZ.Sequence.PreviewFrameSizeWidth="1920" MZ.Sequence.AudioTimeDisplayFormat="200" MZ.Sequence.PreviewRenderingClassID="1061109567" MZ.Sequence.PreviewRenderingPresetCodec="1634755443" MZ.Sequence.PreviewRenderingPresetPath="EncoderPresets/SequencePreview/35d109db-457b-43c1-9452-9cb7be9f121c/QuickTime.epr" MZ.Sequence.PreviewUseMaxRenderQuality="false" MZ.Sequence.PreviewUseMaxBitDepth="false" MZ.Sequence.EditingModeGUID="35d109db-457b-43c1-9452-9cb7be9f121c" MZ.Sequence.VideoTimeDisplayFormat="102" MZ.WorkOutPoint="17934511795200" MZ.WorkInPoint="0">
											<duration>2116</duration>
											<rate>
												<timebase>30</timebase>
												<ntsc>TRUE</ntsc>
											</rate>
											<name>BEAUTY_SUMMERMAKEUP_1</name>
											<media>
												<video>
													<format>
														<samplecharacteristics>
															<rate>
																<timebase>30</timebase>
																<ntsc>TRUE</ntsc>
															</rate>
															<codec>
																<name>Apple ProRes 422</name>
																<appspecificdata>
																	<appname>Final Cut Pro</appname>
																	<appmanufacturer>Apple Inc.</appmanufacturer>
																	<appversion>7.0</appversion>
																	<data>
																		<qtcodec>
																			<codecname>Apple ProRes 422</codecname>
																			<codectypename>Apple ProRes 422</codectypename>
																			<codectypecode>apcn</codectypecode>
																			<codecvendorcode>appl</codecvendorcode>
																			<spatialquality>1024</spatialquality>
																			<temporalquality>0</temporalquality>
																			<keyframerate>0</keyframerate>
																			<datarate>0</datarate>
																		</qtcodec>
																	</data>
																</appspecificdata>
															</codec>
															<width>1920</width>
															<height>1080</height>
															<anamorphic>FALSE</anamorphic>
															<pixelaspectratio>square</pixelaspectratio>
															<fielddominance>none</fielddominance>
															<colordepth>24</colordepth>
														</samplecharacteristics>
													</format>
													<track TL.SQTrackShy="0" TL.SQTrackExpandedHeight="25" TL.SQTrackExpanded="0" MZ.TrackTargeted="1">
														<clipitem id="clipitem-641">
															<masterclipid>masterclip-205</masterclipid>
															<name>(klaudiasyd)_CgzeHUcDmYQ_IG.mp4</name>
															<enabled>TRUE</enabled>
															<duration>569</duration>
															<rate>
																<timebase>30</timebase>
																<ntsc>TRUE</ntsc>
															</rate>
															<start>0</start>
															<end>569</end>
															<in>0</in>
															<out>569</out>
															<pproTicksIn>0</pproTicksIn>
															<pproTicksOut>4822654636800</pproTicksOut>
															<alphatype>none</alphatype>
															<pixelaspectratio>square</pixelaspectratio>
															<anamorphic>FALSE</anamorphic>
															<file id="file-175">
																<name>(klaudiasyd)_CgzeHUcDmYQ_IG.mp4</name>
																<pathurl>file://localhost/Volumes/ATM%20JR%202TB/Crafty/2023/06_June/Crafty_6-19-23/3_Raw%20Footage/nails/../natural%20makeup/(klaudiasyd)_CgzeHUcDmYQ_IG.mp4</pathurl>
																<rate>
																	<timebase>30</timebase>
																	<ntsc>FALSE</ntsc>
																</rate>
																<duration>570</duration>
																<timecode>
																	<rate>
																		<timebase>30</timebase>
																		<ntsc>FALSE</ntsc>
																	</rate>
																	<string>00:00:00:00</string>
																	<frame>0</frame>
																	<displayformat>NDF</displayformat>
																</timecode>
																<media>
																	<video>
																		<samplecharacteristics>
																			<rate>
																				<timebase>30</timebase>
																				<ntsc>FALSE</ntsc>
																			</rate>
																			<width>540</width>
																			<height>960</height>
																			<anamorphic>FALSE</anamorphic>
																			<pixelaspectratio>square</pixelaspectratio>
																			<fielddominance>none</fielddominance>
																		</samplecharacteristics>
																	</video>
																	<audio>
																		<samplecharacteristics>
																			<depth>16</depth>
																			<samplerate>44100</samplerate>
																		</samplecharacteristics>
																		<channelcount>2</channelcount>
																	</audio>
																</media>
															</file>
															<filter>
																<effect>
																	<name>Basic Motion</name>
																	<effectid>basic</effectid>
																	<effectcategory>motion</effectcategory>
																	<effecttype>motion</effecttype>
																	<mediatype>video</mediatype>
																	<pproBypass>false</pproBypass>
																	<parameter authoringApp="PremierePro">
																		<parameterid>scale</parameterid>
																		<name>Scale</name>
																		<valuemin>0</valuemin>
																		<valuemax>1000</valuemax>
																		<value>600</value>
																	</parameter>
																	<parameter authoringApp="PremierePro">
																		<parameterid>rotation</parameterid>
																		<name>Rotation</name>
																		<valuemin>-8640</valuemin>
																		<valuemax>8640</valuemax>
																		<value>0</value>
																	</parameter>
																	<parameter authoringApp="PremierePro">
																		<parameterid>center</parameterid>
																		<name>Center</name>
																		<value>
																			<horiz>0</horiz>
																			<vert>0</vert>
																		</value>
																	</parameter>
																	<parameter authoringApp="PremierePro">
																		<parameterid>centerOffset</parameterid>
																		<name>Anchor Point</name>
																		<value>
																			<horiz>0</horiz>
																			<vert>0</vert>
																		</value>
																	</parameter>
																	<parameter authoringApp="PremierePro">
																		<parameterid>antiflicker</parameterid>
																		<name>Anti-flicker Filter</name>
																		<valuemin>0.0</valuemin>
																		<valuemax>1.0</valuemax>
																		<value>0</value>
																	</parameter>
																</effect>
															</filter>
															<filter>
																<effect>
																	<name>Gaussian Blur</name>
																	<effectid>Gaussian Blur</effectid>
																	<effectcategory>Blur</effectcategory>
																	<effecttype>motion</effecttype>
																	<mediatype>video</mediatype>
																	<pproBypass>false</pproBypass>
																	<parameter authoringApp="PremierePro">
																		<parameterid>radius</parameterid>
																		<name>Radius</name>
																		<valuemin>0</valuemin>
																		<valuemax>100</valuemax>
																		<value>150</value>
																	</parameter>
																</effect>
															</filter>
															<logginginfo>
																<description></description>
																<scene></scene>
																<shottake></shottake>
																<lognote></lognote>
																<good></good>
																<originalvideofilename></originalvideofilename>
																<originalaudiofilename></originalaudiofilename>
															</logginginfo>
															<colorinfo>
																<lut></lut>
																<lut1></lut1>
																<asc_sop></asc_sop>
																<asc_sat></asc_sat>
																<lut2></lut2>
															</colorinfo>
															<labels>
																<label2>Iris</label2>
															</labels>
														</clipitem>
														<clipitem id="clipitem-642">
															<masterclipid>masterclip-206</masterclipid>
															<name>(myriamxn)_Ce1kbvqpIwV_IG.mp4</name>
															<enabled>TRUE</enabled>
															<duration>1418</duration>
															<rate>
																<timebase>30</timebase>
																<ntsc>TRUE</ntsc>
															</rate>
															<start>569</start>
															<end>1207</end>
															<in>135</in>
															<out>773</out>
															<pproTicksIn>1144215072000</pproTicksIn>
															<pproTicksOut>6551690745600</pproTicksOut>
															<alphatype>none</alphatype>
															<pixelaspectratio>square</pixelaspectratio>
															<anamorphic>FALSE</anamorphic>
															<file id="file-176">
																<name>(myriamxn)_Ce1kbvqpIwV_IG.mp4</name>
																<pathurl>file://localhost/Volumes/ATM%20JR%202TB/Crafty/2023/06_June/Crafty_6-19-23/3_Raw%20Footage/nails/../natural%20makeup/(myriamxn)_Ce1kbvqpIwV_IG.mp4</pathurl>
																<rate>
																	<timebase>30</timebase>
																	<ntsc>FALSE</ntsc>
																</rate>
																<duration>1420</duration>
																<timecode>
																	<rate>
																		<timebase>30</timebase>
																		<ntsc>FALSE</ntsc>
																	</rate>
																	<string>00:00:00:00</string>
																	<frame>0</frame>
																	<displayformat>NDF</displayformat>
																</timecode>
																<media>
																	<video>
																		<samplecharacteristics>
																			<rate>
																				<timebase>30</timebase>
																				<ntsc>FALSE</ntsc>
																			</rate>
																			<width>720</width>
																			<height>1280</height>
																			<anamorphic>FALSE</anamorphic>
																			<pixelaspectratio>square</pixelaspectratio>
																			<fielddominance>none</fielddominance>
																		</samplecharacteristics>
																	</video>
																	<audio>
																		<samplecharacteristics>
																			<depth>16</depth>
																			<samplerate>44100</samplerate>
																		</samplecharacteristics>
																		<channelcount>2</channelcount>
																	</audio>
																</media>
															</file>
															<filter>
																<effect>
																	<name>Basic Motion</name>
																	<effectid>basic</effectid>
																	<effectcategory>motion</effectcategory>
																	<effecttype>motion</effecttype>
																	<mediatype>video</mediatype>
																	<pproBypass>false</pproBypass>
																	<parameter authoringApp="PremierePro">
																		<parameterid>scale</parameterid>
																		<name>Scale</name>
																		<valuemin>0</valuemin>
																		<valuemax>1000</valuemax>
																		<value>300</value>
																	</parameter>
																	<parameter authoringApp="PremierePro">
																		<parameterid>rotation</parameterid>
																		<name>Rotation</name>
																		<valuemin>-8640</valuemin>
																		<valuemax>8640</valuemax>
																		<value>0</value>
																	</parameter>
																	<parameter authoringApp="PremierePro">
																		<parameterid>center</parameterid>
																		<name>Center</name>
																		<value>
																			<horiz>0</horiz>
																			<vert>0</vert>
																		</value>
																	</parameter>
																	<parameter authoringApp="PremierePro">
																		<parameterid>centerOffset</parameterid>
																		<name>Anchor Point</name>
																		<value>
																			<horiz>0</horiz>
																			<vert>0</vert>
																		</value>
																	</parameter>
																	<parameter authoringApp="PremierePro">
																		<parameterid>antiflicker</parameterid>
																		<name>Anti-flicker Filter</name>
																		<valuemin>0.0</valuemin>
																		<valuemax>1.0</valuemax>
																		<value>0</value>
																	</parameter>
																</effect>
															</filter>
															<filter>
																<effect>
																	<name>Gaussian Blur</name>
																	<effectid>Gaussian Blur</effectid>
																	<effectcategory>Blur</effectcategory>
																	<effecttype>motion</effecttype>
																	<mediatype>video</mediatype>
																	<pproBypass>false</pproBypass>
																	<parameter authoringApp="PremierePro">
																		<parameterid>radius</parameterid>
																		<name>Radius</name>
																		<valuemin>0</valuemin>
																		<valuemax>100</valuemax>
																		<value>150</value>
																	</parameter>
																</effect>
															</filter>
															<logginginfo>
																<description></description>
																<scene></scene>
																<shottake></shottake>
																<lognote></lognote>
																<good></good>
																<originalvideofilename></originalvideofilename>
																<originalaudiofilename></originalaudiofilename>
															</logginginfo>
															<colorinfo>
																<lut></lut>
																<lut1></lut1>
																<asc_sop></asc_sop>
																<asc_sat></asc_sat>
																<lut2></lut2>
															</colorinfo>
															<labels>
																<label2>Caribbean</label2>
															</labels>
														</clipitem>
														<clipitem id="clipitem-643">
															<masterclipid>masterclip-206</masterclipid>
															<name>(myriamxn)_Ce1kbvqpIwV_IG.mp4</name>
															<enabled>TRUE</enabled>
															<duration>1418</duration>
															<rate>
																<timebase>30</timebase>
																<ntsc>TRUE</ntsc>
															</rate>
															<start>1207</start>
															<end>1228</end>
															<in>952</in>
															<out>973</out>
															<pproTicksIn>8068835174400</pproTicksIn>
															<pproTicksOut>8246824185600</pproTicksOut>
															<alphatype>none</alphatype>
															<file id="file-176"/>
															<filter>
																<effect>
																	<name>Basic Motion</name>
																	<effectid>basic</effectid>
																	<effectcategory>motion</effectcategory>
																	<effecttype>motion</effecttype>
																	<mediatype>video</mediatype>
																	<pproBypass>false</pproBypass>
																	<parameter authoringApp="PremierePro">
																		<parameterid>scale</parameterid>
																		<name>Scale</name>
																		<valuemin>0</valuemin>
																		<valuemax>1000</valuemax>
																		<value>300</value>
																	</parameter>
																	<parameter authoringApp="PremierePro">
																		<parameterid>rotation</parameterid>
																		<name>Rotation</name>
																		<valuemin>-8640</valuemin>
																		<valuemax>8640</valuemax>
																		<value>0</value>
																	</parameter>
																	<parameter authoringApp="PremierePro">
																		<parameterid>center</parameterid>
																		<name>Center</name>
																		<value>
																			<horiz>0</horiz>
																			<vert>0</vert>
																		</value>
																	</parameter>
																	<parameter authoringApp="PremierePro">
																		<parameterid>centerOffset</parameterid>
																		<name>Anchor Point</name>
																		<value>
																			<horiz>0</horiz>
																			<vert>0</vert>
																		</value>
																	</parameter>
																	<parameter authoringApp="PremierePro">
																		<parameterid>antiflicker</parameterid>
																		<name>Anti-flicker Filter</name>
																		<valuemin>0.0</valuemin>
																		<valuemax>1.0</valuemax>
																		<value>0</value>
																	</parameter>
																</effect>
															</filter>
															<filter>
																<effect>
																	<name>Gaussian Blur</name>
																	<effectid>Gaussian Blur</effectid>
																	<effectcategory>Blur</effectcategory>
																	<effecttype>motion</effecttype>
																	<mediatype>video</mediatype>
																	<pproBypass>false</pproBypass>
																	<parameter authoringApp="PremierePro">
																		<parameterid>radius</parameterid>
																		<name>Radius</name>
																		<valuemin>0</valuemin>
																		<valuemax>100</valuemax>
																		<value>150</value>
																	</parameter>
																</effect>
															</filter>
															<logginginfo>
																<description></description>
																<scene></scene>
																<shottake></shottake>
																<lognote></lognote>
																<good></good>
																<originalvideofilename></originalvideofilename>
																<originalaudiofilename></originalaudiofilename>
															</logginginfo>
															<colorinfo>
																<lut></lut>
																<lut1></lut1>
																<asc_sop></asc_sop>
																<asc_sat></asc_sat>
																<lut2></lut2>
															</colorinfo>
															<labels>
																<label2>Caribbean</label2>
															</labels>
														</clipitem>
														<clipitem id="clipitem-644">
															<masterclipid>masterclip-206</masterclipid>
															<name>(myriamxn)_Ce1kbvqpIwV_IG.mp4</name>
															<enabled>TRUE</enabled>
															<duration>1418</duration>
															<rate>
																<timebase>30</timebase>
																<ntsc>TRUE</ntsc>
															</rate>
															<start>1228</start>
															<end>1421</end>
															<in>1013</in>
															<out>1206</out>
															<pproTicksIn>8585850873600</pproTicksIn>
															<pproTicksOut>10221654643200</pproTicksOut>
															<alphatype>none</alphatype>
															<file id="file-176"/>
															<filter>
																<effect>
																	<name>Basic Motion</name>
																	<effectid>basic</effectid>
																	<effectcategory>motion</effectcategory>
																	<effecttype>motion</effecttype>
																	<mediatype>video</mediatype>
																	<pproBypass>false</pproBypass>
																	<parameter authoringApp="PremierePro">
																		<parameterid>scale</parameterid>
																		<name>Scale</name>
																		<valuemin>0</valuemin>
																		<valuemax>1000</valuemax>
																		<value>300</value>
																	</parameter>
																	<parameter authoringApp="PremierePro">
																		<parameterid>rotation</parameterid>
																		<name>Rotation</name>
																		<valuemin>-8640</valuemin>
																		<valuemax>8640</valuemax>
																		<value>0</value>
																	</parameter>
																	<parameter authoringApp="PremierePro">
																		<parameterid>center</parameterid>
																		<name>Center</name>
																		<value>
																			<horiz>0</horiz>
																			<vert>0</vert>
																		</value>
																	</parameter>
																	<parameter authoringApp="PremierePro">
																		<parameterid>centerOffset</parameterid>
																		<name>Anchor Point</name>
																		<value>
																			<horiz>0</horiz>
																			<vert>0</vert>
																		</value>
																	</parameter>
																	<parameter authoringApp="PremierePro">
																		<parameterid>antiflicker</parameterid>
																		<name>Anti-flicker Filter</name>
																		<valuemin>0.0</valuemin>
																		<valuemax>1.0</valuemax>
																		<value>0</value>
																	</parameter>
																</effect>
															</filter>
															<filter>
																<effect>
																	<name>Gaussian Blur</name>
																	<effectid>Gaussian Blur</effectid>
																	<effectcategory>Blur</effectcategory>
																	<effecttype>motion</effecttype>
																	<mediatype>video</mediatype>
																	<pproBypass>false</pproBypass>
																	<parameter authoringApp="PremierePro">
																		<parameterid>radius</parameterid>
																		<name>Radius</name>
																		<valuemin>0</valuemin>
																		<valuemax>100</valuemax>
																		<value>150</value>
																	</parameter>
																</effect>
															</filter>
															<logginginfo>
																<description></description>
																<scene></scene>
																<shottake></shottake>
																<lognote></lognote>
																<good></good>
																<originalvideofilename></originalvideofilename>
																<originalaudiofilename></originalaudiofilename>
															</logginginfo>
															<colorinfo>
																<lut></lut>
																<lut1></lut1>
																<asc_sop></asc_sop>
																<asc_sat></asc_sat>
																<lut2></lut2>
															</colorinfo>
															<labels>
																<label2>Caribbean</label2>
															</labels>
														</clipitem>
														<clipitem id="clipitem-645">
															<masterclipid>masterclip-207</masterclipid>
															<name>(estertaniaj)_CViZTempGRx_IG.mp4</name>
															<enabled>TRUE</enabled>
															<duration>1104</duration>
															<rate>
																<timebase>30</timebase>
																<ntsc>TRUE</ntsc>
															</rate>
															<start>1421</start>
															<end>2116</end>
															<in>409</in>
															<out>1104</out>
															<pproTicksIn>3466547884800</pproTicksIn>
															<pproTicksOut>9357136588800</pproTicksOut>
															<alphatype>none</alphatype>
															<pixelaspectratio>square</pixelaspectratio>
															<anamorphic>FALSE</anamorphic>
															<file id="file-177">
																<name>(estertaniaj)_CViZTempGRx_IG.mp4</name>
																<pathurl>file://localhost/Volumes/ATM%20JR%202TB/Crafty/2023/06_June/Crafty_6-19-23/3_Raw%20Footage/natural%20makeup/(estertaniaj)_CViZTempGRx_IG.mp4</pathurl>
																<rate>
																	<timebase>30</timebase>
																	<ntsc>FALSE</ntsc>
																</rate>
																<duration>1106</duration>
																<timecode>
																	<rate>
																		<timebase>30</timebase>
																		<ntsc>FALSE</ntsc>
																	</rate>
																	<string>00:00:00:00</string>
																	<frame>0</frame>
																	<displayformat>NDF</displayformat>
																</timecode>
																<media>
																	<video>
																		<samplecharacteristics>
																			<rate>
																				<timebase>30</timebase>
																				<ntsc>FALSE</ntsc>
																			</rate>
																			<width>576</width>
																			<height>1024</height>
																			<anamorphic>FALSE</anamorphic>
																			<pixelaspectratio>square</pixelaspectratio>
																			<fielddominance>none</fielddominance>
																		</samplecharacteristics>
																	</video>
																	<audio>
																		<samplecharacteristics>
																			<depth>16</depth>
																			<samplerate>44100</samplerate>
																		</samplecharacteristics>
																		<channelcount>1</channelcount>
																		<audiochannel>
																			<sourcechannel>1</sourcechannel>
																		</audiochannel>
																	</audio>
																</media>
															</file>
															<filter>
																<effect>
																	<name>Basic Motion</name>
																	<effectid>basic</effectid>
																	<effectcategory>motion</effectcategory>
																	<effecttype>motion</effecttype>
																	<mediatype>video</mediatype>
																	<pproBypass>false</pproBypass>
																	<parameter authoringApp="PremierePro">
																		<parameterid>scale</parameterid>
																		<name>Scale</name>
																		<valuemin>0</valuemin>
																		<valuemax>1000</valuemax>
																		<value>424</value>
																	</parameter>
																	<parameter authoringApp="PremierePro">
																		<parameterid>rotation</parameterid>
																		<name>Rotation</name>
																		<valuemin>-8640</valuemin>
																		<valuemax>8640</valuemax>
																		<value>0</value>
																	</parameter>
																	<parameter authoringApp="PremierePro">
																		<parameterid>center</parameterid>
																		<name>Center</name>
																		<value>
																			<horiz>0</horiz>
																			<vert>0</vert>
																		</value>
																	</parameter>
																	<parameter authoringApp="PremierePro">
																		<parameterid>centerOffset</parameterid>
																		<name>Anchor Point</name>
																		<value>
																			<horiz>0</horiz>
																			<vert>0</vert>
																		</value>
																	</parameter>
																	<parameter authoringApp="PremierePro">
																		<parameterid>antiflicker</parameterid>
																		<name>Anti-flicker Filter</name>
																		<valuemin>0.0</valuemin>
																		<valuemax>1.0</valuemax>
																		<value>0</value>
																	</parameter>
																</effect>
															</filter>
															<filter>
																<effect>
																	<name>Gaussian Blur</name>
																	<effectid>Gaussian Blur</effectid>
																	<effectcategory>Blur</effectcategory>
																	<effecttype>motion</effecttype>
																	<mediatype>video</mediatype>
																	<pproBypass>false</pproBypass>
																	<parameter authoringApp="PremierePro">
																		<parameterid>radius</parameterid>
																		<name>Radius</name>
																		<valuemin>0</valuemin>
																		<valuemax>100</valuemax>
																		<value>150</value>
																	</parameter>
																</effect>
															</filter>
															<logginginfo>
																<description></description>
																<scene></scene>
																<shottake></shottake>
																<lognote></lognote>
																<good></good>
																<originalvideofilename></originalvideofilename>
																<originalaudiofilename></originalaudiofilename>
															</logginginfo>
															<colorinfo>
																<lut></lut>
																<lut1></lut1>
																<asc_sop></asc_sop>
																<asc_sat></asc_sat>
																<lut2></lut2>
															</colorinfo>
															<labels>
																<label2>Mango</label2>
															</labels>
														</clipitem>
														<enabled>TRUE</enabled>
														<locked>FALSE</locked>
													</track>
													<track TL.SQTrackShy="0" TL.SQTrackExpandedHeight="25" TL.SQTrackExpanded="0" MZ.TrackTargeted="0">
														<clipitem id="clipitem-646">
															<masterclipid>masterclip-205</masterclipid>
															<name>(klaudiasyd)_CgzeHUcDmYQ_IG.mp4</name>
															<enabled>TRUE</enabled>
															<duration>569</duration>
															<rate>
																<timebase>30</timebase>
																<ntsc>TRUE</ntsc>
															</rate>
															<start>0</start>
															<end>569</end>
															<in>0</in>
															<out>569</out>
															<pproTicksIn>0</pproTicksIn>
															<pproTicksOut>4822654636800</pproTicksOut>
															<alphatype>none</alphatype>
															<file id="file-175"/>
															<filter>
																<effect>
																	<name>Basic Motion</name>
																	<effectid>basic</effectid>
																	<effectcategory>motion</effectcategory>
																	<effecttype>motion</effecttype>
																	<mediatype>video</mediatype>
																	<pproBypass>false</pproBypass>
																	<parameter authoringApp="PremierePro">
																		<parameterid>scale</parameterid>
																		<name>Scale</name>
																		<valuemin>0</valuemin>
																		<valuemax>1000</valuemax>
																		<value>112.5</value>
																	</parameter>
																	<parameter authoringApp="PremierePro">
																		<parameterid>rotation</parameterid>
																		<name>Rotation</name>
																		<valuemin>-8640</valuemin>
																		<valuemax>8640</valuemax>
																		<value>0</value>
																	</parameter>
																	<parameter authoringApp="PremierePro">
																		<parameterid>center</parameterid>
																		<name>Center</name>
																		<value>
																			<horiz>0</horiz>
																			<vert>0</vert>
																		</value>
																	</parameter>
																	<parameter authoringApp="PremierePro">
																		<parameterid>centerOffset</parameterid>
																		<name>Anchor Point</name>
																		<value>
																			<horiz>0</horiz>
																			<vert>0</vert>
																		</value>
																	</parameter>
																	<parameter authoringApp="PremierePro">
																		<parameterid>antiflicker</parameterid>
																		<name>Anti-flicker Filter</name>
																		<valuemin>0.0</valuemin>
																		<valuemax>1.0</valuemax>
																		<value>0</value>
																	</parameter>
																</effect>
															</filter>
															<logginginfo>
																<description></description>
																<scene></scene>
																<shottake></shottake>
																<lognote></lognote>
																<good></good>
																<originalvideofilename></originalvideofilename>
																<originalaudiofilename></originalaudiofilename>
															</logginginfo>
															<colorinfo>
																<lut></lut>
																<lut1></lut1>
																<asc_sop></asc_sop>
																<asc_sat></asc_sat>
																<lut2></lut2>
															</colorinfo>
															<labels>
																<label2>Iris</label2>
															</labels>
														</clipitem>
														<clipitem id="clipitem-647">
															<masterclipid>masterclip-206</masterclipid>
															<name>(myriamxn)_Ce1kbvqpIwV_IG.mp4</name>
															<enabled>TRUE</enabled>
															<duration>1418</duration>
															<rate>
																<timebase>30</timebase>
																<ntsc>TRUE</ntsc>
															</rate>
															<start>569</start>
															<end>1207</end>
															<in>135</in>
															<out>773</out>
															<pproTicksIn>1144215072000</pproTicksIn>
															<pproTicksOut>6551690745600</pproTicksOut>
															<alphatype>none</alphatype>
															<file id="file-176"/>
															<filter>
																<effect>
																	<name>Basic Motion</name>
																	<effectid>basic</effectid>
																	<effectcategory>motion</effectcategory>
																	<effecttype>motion</effecttype>
																	<mediatype>video</mediatype>
																	<pproBypass>false</pproBypass>
																	<parameter authoringApp="PremierePro">
																		<parameterid>scale</parameterid>
																		<name>Scale</name>
																		<valuemin>0</valuemin>
																		<valuemax>1000</valuemax>
																		<value>84.375</value>
																	</parameter>
																	<parameter authoringApp="PremierePro">
																		<parameterid>rotation</parameterid>
																		<name>Rotation</name>
																		<valuemin>-8640</valuemin>
																		<valuemax>8640</valuemax>
																		<value>0</value>
																	</parameter>
																	<parameter authoringApp="PremierePro">
																		<parameterid>center</parameterid>
																		<name>Center</name>
																		<value>
																			<horiz>0</horiz>
																			<vert>0</vert>
																		</value>
																	</parameter>
																	<parameter authoringApp="PremierePro">
																		<parameterid>centerOffset</parameterid>
																		<name>Anchor Point</name>
																		<value>
																			<horiz>0</horiz>
																			<vert>0</vert>
																		</value>
																	</parameter>
																	<parameter authoringApp="PremierePro">
																		<parameterid>antiflicker</parameterid>
																		<name>Anti-flicker Filter</name>
																		<valuemin>0.0</valuemin>
																		<valuemax>1.0</valuemax>
																		<value>0</value>
																	</parameter>
																</effect>
															</filter>
															<filter>
																<effect>
																	<name>Crop</name>
																	<effectid>crop</effectid>
																	<effectcategory>motion</effectcategory>
																	<effecttype>motion</effecttype>
																	<mediatype>video</mediatype>
																	<pproBypass>false</pproBypass>
																	<parameter authoringApp="PremierePro">
																		<parameterid>left</parameterid>
																		<name>left</name>
																		<valuemin>0</valuemin>
																		<valuemax>100</valuemax>
																		<value>3</value>
																	</parameter>
																	<parameter authoringApp="PremierePro">
																		<parameterid>right</parameterid>
																		<name>right</name>
																		<valuemin>0</valuemin>
																		<valuemax>100</valuemax>
																		<value>3</value>
																	</parameter>
																	<parameter authoringApp="PremierePro">
																		<parameterid>top</parameterid>
																		<name>top</name>
																		<valuemin>0</valuemin>
																		<valuemax>100</valuemax>
																		<value>0</value>
																	</parameter>
																	<parameter authoringApp="PremierePro">
																		<parameterid>bottom</parameterid>
																		<name>bottom</name>
																		<valuemin>0</valuemin>
																		<valuemax>100</valuemax>
																		<value>0</value>
																	</parameter>
																</effect>
															</filter>
															<logginginfo>
																<description></description>
																<scene></scene>
																<shottake></shottake>
																<lognote></lognote>
																<good></good>
																<originalvideofilename></originalvideofilename>
																<originalaudiofilename></originalaudiofilename>
															</logginginfo>
															<colorinfo>
																<lut></lut>
																<lut1></lut1>
																<asc_sop></asc_sop>
																<asc_sat></asc_sat>
																<lut2></lut2>
															</colorinfo>
															<labels>
																<label2>Caribbean</label2>
															</labels>
														</clipitem>
														<clipitem id="clipitem-648">
															<masterclipid>masterclip-206</masterclipid>
															<name>(myriamxn)_Ce1kbvqpIwV_IG.mp4</name>
															<enabled>TRUE</enabled>
															<duration>1418</duration>
															<rate>
																<timebase>30</timebase>
																<ntsc>TRUE</ntsc>
															</rate>
															<start>1207</start>
															<end>1228</end>
															<in>952</in>
															<out>973</out>
															<pproTicksIn>8068835174400</pproTicksIn>
															<pproTicksOut>8246824185600</pproTicksOut>
															<alphatype>none</alphatype>
															<file id="file-176"/>
															<filter>
																<effect>
																	<name>Basic Motion</name>
																	<effectid>basic</effectid>
																	<effectcategory>motion</effectcategory>
																	<effecttype>motion</effecttype>
																	<mediatype>video</mediatype>
																	<pproBypass>false</pproBypass>
																	<parameter authoringApp="PremierePro">
																		<parameterid>scale</parameterid>
																		<name>Scale</name>
																		<valuemin>0</valuemin>
																		<valuemax>1000</valuemax>
																		<value>84.375</value>
																	</parameter>
																	<parameter authoringApp="PremierePro">
																		<parameterid>rotation</parameterid>
																		<name>Rotation</name>
																		<valuemin>-8640</valuemin>
																		<valuemax>8640</valuemax>
																		<value>0</value>
																	</parameter>
																	<parameter authoringApp="PremierePro">
																		<parameterid>center</parameterid>
																		<name>Center</name>
																		<value>
																			<horiz>0</horiz>
																			<vert>0</vert>
																		</value>
																	</parameter>
																	<parameter authoringApp="PremierePro">
																		<parameterid>centerOffset</parameterid>
																		<name>Anchor Point</name>
																		<value>
																			<horiz>0</horiz>
																			<vert>0</vert>
																		</value>
																	</parameter>
																	<parameter authoringApp="PremierePro">
																		<parameterid>antiflicker</parameterid>
																		<name>Anti-flicker Filter</name>
																		<valuemin>0.0</valuemin>
																		<valuemax>1.0</valuemax>
																		<value>0</value>
																	</parameter>
																</effect>
															</filter>
															<filter>
																<effect>
																	<name>Crop</name>
																	<effectid>crop</effectid>
																	<effectcategory>motion</effectcategory>
																	<effecttype>motion</effecttype>
																	<mediatype>video</mediatype>
																	<pproBypass>false</pproBypass>
																	<parameter authoringApp="PremierePro">
																		<parameterid>left</parameterid>
																		<name>left</name>
																		<valuemin>0</valuemin>
																		<valuemax>100</valuemax>
																		<value>3</value>
																	</parameter>
																	<parameter authoringApp="PremierePro">
																		<parameterid>right</parameterid>
																		<name>right</name>
																		<valuemin>0</valuemin>
																		<valuemax>100</valuemax>
																		<value>3</value>
																	</parameter>
																	<parameter authoringApp="PremierePro">
																		<parameterid>top</parameterid>
																		<name>top</name>
																		<valuemin>0</valuemin>
																		<valuemax>100</valuemax>
																		<value>0</value>
																	</parameter>
																	<parameter authoringApp="PremierePro">
																		<parameterid>bottom</parameterid>
																		<name>bottom</name>
																		<valuemin>0</valuemin>
																		<valuemax>100</valuemax>
																		<value>0</value>
																	</parameter>
																</effect>
															</filter>
															<logginginfo>
																<description></description>
																<scene></scene>
																<shottake></shottake>
																<lognote></lognote>
																<good></good>
																<originalvideofilename></originalvideofilename>
																<originalaudiofilename></originalaudiofilename>
															</logginginfo>
															<colorinfo>
																<lut></lut>
																<lut1></lut1>
																<asc_sop></asc_sop>
																<asc_sat></asc_sat>
																<lut2></lut2>
															</colorinfo>
															<labels>
																<label2>Caribbean</label2>
															</labels>
														</clipitem>
														<clipitem id="clipitem-649">
															<masterclipid>masterclip-206</masterclipid>
															<name>(myriamxn)_Ce1kbvqpIwV_IG.mp4</name>
															<enabled>TRUE</enabled>
															<duration>1418</duration>
															<rate>
																<timebase>30</timebase>
																<ntsc>TRUE</ntsc>
															</rate>
															<start>1228</start>
															<end>1421</end>
															<in>1013</in>
															<out>1206</out>
															<pproTicksIn>8585850873600</pproTicksIn>
															<pproTicksOut>10221654643200</pproTicksOut>
															<alphatype>none</alphatype>
															<file id="file-176"/>
															<filter>
																<effect>
																	<name>Basic Motion</name>
																	<effectid>basic</effectid>
																	<effectcategory>motion</effectcategory>
																	<effecttype>motion</effecttype>
																	<mediatype>video</mediatype>
																	<pproBypass>false</pproBypass>
																	<parameter authoringApp="PremierePro">
																		<parameterid>scale</parameterid>
																		<name>Scale</name>
																		<valuemin>0</valuemin>
																		<valuemax>1000</valuemax>
																		<value>84.375</value>
																	</parameter>
																	<parameter authoringApp="PremierePro">
																		<parameterid>rotation</parameterid>
																		<name>Rotation</name>
																		<valuemin>-8640</valuemin>
																		<valuemax>8640</valuemax>
																		<value>0</value>
																	</parameter>
																	<parameter authoringApp="PremierePro">
																		<parameterid>center</parameterid>
																		<name>Center</name>
																		<value>
																			<horiz>0</horiz>
																			<vert>0</vert>
																		</value>
																	</parameter>
																	<parameter authoringApp="PremierePro">
																		<parameterid>centerOffset</parameterid>
																		<name>Anchor Point</name>
																		<value>
																			<horiz>0</horiz>
																			<vert>0</vert>
																		</value>
																	</parameter>
																	<parameter authoringApp="PremierePro">
																		<parameterid>antiflicker</parameterid>
																		<name>Anti-flicker Filter</name>
																		<valuemin>0.0</valuemin>
																		<valuemax>1.0</valuemax>
																		<value>0</value>
																	</parameter>
																</effect>
															</filter>
															<filter>
																<effect>
																	<name>Crop</name>
																	<effectid>crop</effectid>
																	<effectcategory>motion</effectcategory>
																	<effecttype>motion</effecttype>
																	<mediatype>video</mediatype>
																	<pproBypass>false</pproBypass>
																	<parameter authoringApp="PremierePro">
																		<parameterid>left</parameterid>
																		<name>left</name>
																		<valuemin>0</valuemin>
																		<valuemax>100</valuemax>
																		<value>3</value>
																	</parameter>
																	<parameter authoringApp="PremierePro">
																		<parameterid>right</parameterid>
																		<name>right</name>
																		<valuemin>0</valuemin>
																		<valuemax>100</valuemax>
																		<value>3</value>
																	</parameter>
																	<parameter authoringApp="PremierePro">
																		<parameterid>top</parameterid>
																		<name>top</name>
																		<valuemin>0</valuemin>
																		<valuemax>100</valuemax>
																		<value>0</value>
																	</parameter>
																	<parameter authoringApp="PremierePro">
																		<parameterid>bottom</parameterid>
																		<name>bottom</name>
																		<valuemin>0</valuemin>
																		<valuemax>100</valuemax>
																		<value>0</value>
																	</parameter>
																</effect>
															</filter>
															<logginginfo>
																<description></description>
																<scene></scene>
																<shottake></shottake>
																<lognote></lognote>
																<good></good>
																<originalvideofilename></originalvideofilename>
																<originalaudiofilename></originalaudiofilename>
															</logginginfo>
															<colorinfo>
																<lut></lut>
																<lut1></lut1>
																<asc_sop></asc_sop>
																<asc_sat></asc_sat>
																<lut2></lut2>
															</colorinfo>
															<labels>
																<label2>Caribbean</label2>
															</labels>
														</clipitem>
														<clipitem id="clipitem-650">
															<masterclipid>masterclip-207</masterclipid>
															<name>(estertaniaj)_CViZTempGRx_IG.mp4</name>
															<enabled>TRUE</enabled>
															<duration>1104</duration>
															<rate>
																<timebase>30</timebase>
																<ntsc>TRUE</ntsc>
															</rate>
															<start>1421</start>
															<end>2116</end>
															<in>409</in>
															<out>1104</out>
															<pproTicksIn>3466547884800</pproTicksIn>
															<pproTicksOut>9357136588800</pproTicksOut>
															<alphatype>none</alphatype>
															<file id="file-177"/>
															<filter>
																<effect>
																	<name>Basic Motion</name>
																	<effectid>basic</effectid>
																	<effectcategory>motion</effectcategory>
																	<effecttype>motion</effecttype>
																	<mediatype>video</mediatype>
																	<pproBypass>false</pproBypass>
																	<parameter authoringApp="PremierePro">
																		<parameterid>scale</parameterid>
																		<name>Scale</name>
																		<valuemin>0</valuemin>
																		<valuemax>1000</valuemax>
																		<value>105.469</value>
																	</parameter>
																	<parameter authoringApp="PremierePro">
																		<parameterid>rotation</parameterid>
																		<name>Rotation</name>
																		<valuemin>-8640</valuemin>
																		<valuemax>8640</valuemax>
																		<value>0</value>
																	</parameter>
																	<parameter authoringApp="PremierePro">
																		<parameterid>center</parameterid>
																		<name>Center</name>
																		<value>
																			<horiz>0</horiz>
																			<vert>0</vert>
																		</value>
																	</parameter>
																	<parameter authoringApp="PremierePro">
																		<parameterid>centerOffset</parameterid>
																		<name>Anchor Point</name>
																		<value>
																			<horiz>0</horiz>
																			<vert>0</vert>
																		</value>
																	</parameter>
																	<parameter authoringApp="PremierePro">
																		<parameterid>antiflicker</parameterid>
																		<name>Anti-flicker Filter</name>
																		<valuemin>0.0</valuemin>
																		<valuemax>1.0</valuemax>
																		<value>0</value>
																	</parameter>
																</effect>
															</filter>
															<logginginfo>
																<description></description>
																<scene></scene>
																<shottake></shottake>
																<lognote></lognote>
																<good></good>
																<originalvideofilename></originalvideofilename>
																<originalaudiofilename></originalaudiofilename>
															</logginginfo>
															<colorinfo>
																<lut></lut>
																<lut1></lut1>
																<asc_sop></asc_sop>
																<asc_sat></asc_sat>
																<lut2></lut2>
															</colorinfo>
															<labels>
																<label2>Mango</label2>
															</labels>
														</clipitem>
														<enabled>TRUE</enabled>
														<locked>FALSE</locked>
													</track>
													<track TL.SQTrackShy="0" TL.SQTrackExpandedHeight="25" TL.SQTrackExpanded="0" MZ.TrackTargeted="0">
														<clipitem id="clipitem-651">
															<masterclipid>masterclip-208</masterclipid>
															<name>@klaudiasyd</name>
															<enabled>TRUE</enabled>
															<duration>5844</duration>
															<rate>
																<timebase>30</timebase>
																<ntsc>TRUE</ntsc>
															</rate>
															<start>0</start>
															<end>569</end>
															<in>0</in>
															<out>569</out>
															<pproTicksIn>0</pproTicksIn>
															<pproTicksOut>4822654636800</pproTicksOut>
															<alphatype>straight</alphatype>
															<pixelaspectratio>square</pixelaspectratio>
															<anamorphic>FALSE</anamorphic>
															<file id="file-178">
																<name>1080/AE Attribution.aep</name>
																<pathurl>file://localhost/Volumes/ATM%20JR%202TB/Crafty/Master%20Assets%20/Attribution/AE%20Attribution.aep</pathurl>
																<rate>
																	<timebase>30</timebase>
																	<ntsc>TRUE</ntsc>
																</rate>
																<duration>5844</duration>
																<timecode>
																	<rate>
																		<timebase>30</timebase>
																		<ntsc>TRUE</ntsc>
																	</rate>
																	<string>00;00;00;00</string>
																	<frame>0</frame>
																	<displayformat>DF</displayformat>
																</timecode>
																<media>
																	<video>
																		<samplecharacteristics>
																			<rate>
																				<timebase>30</timebase>
																				<ntsc>TRUE</ntsc>
																			</rate>
																			<width>1920</width>
																			<height>1080</height>
																			<anamorphic>FALSE</anamorphic>
																			<pixelaspectratio>square</pixelaspectratio>
																			<fielddominance>lower</fielddominance>
																		</samplecharacteristics>
																	</video>
																</media>
															</file>
															<logginginfo>
																<description></description>
																<scene></scene>
																<shottake></shottake>
																<lognote></lognote>
																<good></good>
																<originalvideofilename></originalvideofilename>
																<originalaudiofilename></originalaudiofilename>
															</logginginfo>
															<colorinfo>
																<lut></lut>
																<lut1></lut1>
																<asc_sop></asc_sop>
																<asc_sat></asc_sat>
																<lut2></lut2>
															</colorinfo>
															<labels>
																<label2>Rose</label2>
															</labels>
														</clipitem>
														<clipitem id="clipitem-652">
															<masterclipid>masterclip-209</masterclipid>
															<name>@myriamxn</name>
															<enabled>TRUE</enabled>
															<duration>5844</duration>
															<rate>
																<timebase>30</timebase>
																<ntsc>TRUE</ntsc>
															</rate>
															<start>569</start>
															<end>1421</end>
															<in>0</in>
															<out>852</out>
															<pproTicksIn>0</pproTicksIn>
															<pproTicksOut>7221268454400</pproTicksOut>
															<alphatype>straight</alphatype>
															<pixelaspectratio>square</pixelaspectratio>
															<anamorphic>FALSE</anamorphic>
															<file id="file-179">
																<name>1080/AE Attribution.aep</name>
																<pathurl>file://localhost/Volumes/ATM%20JR%202TB/Crafty/Master%20Assets%20/Attribution/AE%20Attribution.aep</pathurl>
																<rate>
																	<timebase>30</timebase>
																	<ntsc>TRUE</ntsc>
																</rate>
																<duration>5844</duration>
																<timecode>
																	<rate>
																		<timebase>30</timebase>
																		<ntsc>TRUE</ntsc>
																	</rate>
																	<string>00;00;00;00</string>
																	<frame>0</frame>
																	<displayformat>DF</displayformat>
																</timecode>
																<media>
																	<video>
																		<samplecharacteristics>
																			<rate>
																				<timebase>30</timebase>
																				<ntsc>TRUE</ntsc>
																			</rate>
																			<width>1920</width>
																			<height>1080</height>
																			<anamorphic>FALSE</anamorphic>
																			<pixelaspectratio>square</pixelaspectratio>
																			<fielddominance>lower</fielddominance>
																		</samplecharacteristics>
																	</video>
																</media>
															</file>
															<logginginfo>
																<description></description>
																<scene></scene>
																<shottake></shottake>
																<lognote></lognote>
																<good></good>
																<originalvideofilename></originalvideofilename>
																<originalaudiofilename></originalaudiofilename>
															</logginginfo>
															<colorinfo>
																<lut></lut>
																<lut1></lut1>
																<asc_sop></asc_sop>
																<asc_sat></asc_sat>
																<lut2></lut2>
															</colorinfo>
															<labels>
																<label2>Rose</label2>
															</labels>
														</clipitem>
														<clipitem id="clipitem-653">
															<masterclipid>masterclip-210</masterclipid>
															<name>@estertaniaj</name>
															<enabled>TRUE</enabled>
															<duration>5844</duration>
															<rate>
																<timebase>30</timebase>
																<ntsc>TRUE</ntsc>
															</rate>
															<start>1421</start>
															<end>2116</end>
															<in>0</in>
															<out>695</out>
															<pproTicksIn>0</pproTicksIn>
															<pproTicksOut>5890588704000</pproTicksOut>
															<alphatype>straight</alphatype>
															<pixelaspectratio>square</pixelaspectratio>
															<anamorphic>FALSE</anamorphic>
															<file id="file-180">
																<name>1080/AE Attribution.aep</name>
																<pathurl>file://localhost/Volumes/ATM%20JR%202TB/Crafty/Master%20Assets%20/Attribution/AE%20Attribution.aep</pathurl>
																<rate>
																	<timebase>30</timebase>
																	<ntsc>TRUE</ntsc>
																</rate>
																<duration>5844</duration>
																<timecode>
																	<rate>
																		<timebase>30</timebase>
																		<ntsc>TRUE</ntsc>
																	</rate>
																	<string>00;00;00;00</string>
																	<frame>0</frame>
																	<displayformat>DF</displayformat>
																</timecode>
																<media>
																	<video>
																		<samplecharacteristics>
																			<rate>
																				<timebase>30</timebase>
																				<ntsc>TRUE</ntsc>
																			</rate>
																			<width>1920</width>
																			<height>1080</height>
																			<anamorphic>FALSE</anamorphic>
																			<pixelaspectratio>square</pixelaspectratio>
																			<fielddominance>lower</fielddominance>
																		</samplecharacteristics>
																	</video>
																</media>
															</file>
															<logginginfo>
																<description></description>
																<scene></scene>
																<shottake></shottake>
																<lognote></lognote>
																<good></good>
																<originalvideofilename></originalvideofilename>
																<originalaudiofilename></originalaudiofilename>
															</logginginfo>
															<colorinfo>
																<lut></lut>
																<lut1></lut1>
																<asc_sop></asc_sop>
																<asc_sat></asc_sat>
																<lut2></lut2>
															</colorinfo>
															<labels>
																<label2>Rose</label2>
															</labels>
														</clipitem>
														<enabled>TRUE</enabled>
														<locked>FALSE</locked>
													</track>
												</video>
												<audio>
													<numOutputChannels>2</numOutputChannels>
													<format>
														<samplecharacteristics>
															<depth>16</depth>
															<samplerate>48000</samplerate>
														</samplecharacteristics>
													</format>
													<outputs>
														<group>
															<index>1</index>
															<numchannels>1</numchannels>
															<downmix>0</downmix>
															<channel>
																<index>1</index>
															</channel>
														</group>
														<group>
															<index>2</index>
															<numchannels>1</numchannels>
															<downmix>0</downmix>
															<channel>
																<index>2</index>
															</channel>
														</group>
													</outputs>
													<track TL.SQTrackAudioKeyframeStyle="0" TL.SQTrackShy="0" TL.SQTrackExpandedHeight="25" TL.SQTrackExpanded="0" MZ.TrackTargeted="1" PannerCurrentValue="0.5" PannerIsInverted="true" PannerStartKeyframe="-91445760000000000,0.5,0,0,0,0,0,0" PannerName="Balance" currentExplodedTrackIndex="0" totalExplodedTrackCount="2" premiereTrackType="Stereo">
														<clipitem id="clipitem-654" premiereChannelType="stereo">
															<masterclipid>masterclip-211</masterclipid>
															<name>ES_The Rain Is Sad - SINY.wav</name>
															<enabled>TRUE</enabled>
															<duration>3092</duration>
															<rate>
																<timebase>30</timebase>
																<ntsc>TRUE</ntsc>
															</rate>
															<start>0</start>
															<end>-1</end>
															<in>0</in>
															<out>2116</out>
															<pproTicksIn>0</pproTicksIn>
															<pproTicksOut>17934511795200</pproTicksOut>
															<file id="file-181">
																<name>ES_The Rain Is Sad - SINY.wav</name>
																<pathurl>file://localhost/Volumes/ATM%20JR%202TB/Crafty/2023/06_June/Crafty_6-19-23/5_Music/ES_The%20Rain%20Is%20Sad%20-%20SINY.wav</pathurl>
																<rate>
																	<timebase>30</timebase>
																	<ntsc>TRUE</ntsc>
																</rate>
																<duration>3092</duration>
																<timecode>
																	<rate>
																		<timebase>30</timebase>
																		<ntsc>TRUE</ntsc>
																	</rate>
																	<string>00;37;04;13</string>
																	<frame>66665</frame>
																	<displayformat>DF</displayformat>
																</timecode>
																<media>
																	<audio>
																		<samplecharacteristics>
																			<depth>16</depth>
																			<samplerate>48000</samplerate>
																		</samplecharacteristics>
																		<channelcount>2</channelcount>
																	</audio>
																</media>
															</file>
															<sourcetrack>
																<mediatype>audio</mediatype>
																<trackindex>1</trackindex>
															</sourcetrack>
															<filter>
																<effect>
																	<name>Gain</name>
																	<effectid>{61756678, 4761696e, 4b657947}</effectid>
																	<effecttype>filter</effecttype>
																	<mediatype>audio</mediatype>
																	<parameter authoringApp="PremierePro">
																		<parameterid>Gain(dB)</parameterid>
																		<name>Gain(dB)</name>
																		<valuemin>-96</valuemin>
																		<valuemax>96</valuemax>
																		<value>-8</value>
																	</parameter>
																</effect>
															</filter>
															<filter>
																<effect>
																	<name>Audio Levels</name>
																	<effectid>audiolevels</effectid>
																	<effectcategory>audiolevels</effectcategory>
																	<effecttype>audiolevels</effecttype>
																	<mediatype>audio</mediatype>
																	<pproBypass>false</pproBypass>
																	<parameter authoringApp="PremierePro">
																		<parameterid>level</parameterid>
																		<name>Level</name>
																		<valuemin>0</valuemin>
																		<valuemax>3.98109</valuemax>
																		<value>1.45781</value>
																	</parameter>
																</effect>
															</filter>
															<link>
																<linkclipref>clipitem-654</linkclipref>
																<mediatype>audio</mediatype>
																<trackindex>1</trackindex>
																<clipindex>1</clipindex>
																<groupindex>1</groupindex>
															</link>
															<link>
																<linkclipref>clipitem-655</linkclipref>
																<mediatype>audio</mediatype>
																<trackindex>2</trackindex>
																<clipindex>1</clipindex>
																<groupindex>1</groupindex>
															</link>
															<logginginfo>
																<description></description>
																<scene></scene>
																<shottake></shottake>
																<lognote></lognote>
																<good></good>
																<originalvideofilename></originalvideofilename>
																<originalaudiofilename></originalaudiofilename>
															</logginginfo>
															<colorinfo>
																<lut></lut>
																<lut1></lut1>
																<asc_sop></asc_sop>
																<asc_sat></asc_sat>
																<lut2></lut2>
															</colorinfo>
															<labels>
																<label2>Caribbean</label2>
															</labels>
														</clipitem>
														<transitionitem>
															<start>2026</start>
															<end>2116</end>
															<pproTicksIn>17171701747200</pproTicksIn>
															<pproTicksOut>17934511795200</pproTicksOut>
															<alignment>end-black</alignment>
															<cutPointTicks>762810048000</cutPointTicks>
															<rate>
																<timebase>30</timebase>
																<ntsc>TRUE</ntsc>
															</rate>
															<effect>
																<name>Cross Fade (+3dB)</name>
																<effectid>KGAudioTransCrossFade3dB</effectid>
																<effecttype>transition</effecttype>
																<mediatype>audio</mediatype>
																<wipecode>0</wipecode>
																<wipeaccuracy>100</wipeaccuracy>
																<startratio>0</startratio>
																<endratio>1</endratio>
																<reverse>FALSE</reverse>
															</effect>
														</transitionitem>
														<enabled>TRUE</enabled>
														<locked>FALSE</locked>
														<outputchannelindex>1</outputchannelindex>
													</track>
													<track TL.SQTrackAudioKeyframeStyle="0" TL.SQTrackShy="0" TL.SQTrackExpandedHeight="25" TL.SQTrackExpanded="0" MZ.TrackTargeted="1" PannerCurrentValue="0.5" PannerIsInverted="true" PannerStartKeyframe="-91445760000000000,0.5,0,0,0,0,0,0" PannerName="Balance" currentExplodedTrackIndex="1" totalExplodedTrackCount="2" premiereTrackType="Stereo">
														<clipitem id="clipitem-655" premiereChannelType="stereo">
															<masterclipid>masterclip-211</masterclipid>
															<name>ES_The Rain Is Sad - SINY.wav</name>
															<enabled>TRUE</enabled>
															<duration>3092</duration>
															<rate>
																<timebase>30</timebase>
																<ntsc>TRUE</ntsc>
															</rate>
															<start>0</start>
															<end>-1</end>
															<in>0</in>
															<out>2116</out>
															<pproTicksIn>0</pproTicksIn>
															<pproTicksOut>17934511795200</pproTicksOut>
															<file id="file-181"/>
															<sourcetrack>
																<mediatype>audio</mediatype>
																<trackindex>2</trackindex>
															</sourcetrack>
															<filter>
																<effect>
																	<name>Gain</name>
																	<effectid>{61756678, 4761696e, 4b657947}</effectid>
																	<effecttype>filter</effecttype>
																	<mediatype>audio</mediatype>
																	<parameter authoringApp="PremierePro">
																		<parameterid>Gain(dB)</parameterid>
																		<name>Gain(dB)</name>
																		<valuemin>-96</valuemin>
																		<valuemax>96</valuemax>
																		<value>-8</value>
																	</parameter>
																</effect>
															</filter>
															<filter>
																<effect>
																	<name>Audio Levels</name>
																	<effectid>audiolevels</effectid>
																	<effectcategory>audiolevels</effectcategory>
																	<effecttype>audiolevels</effecttype>
																	<mediatype>audio</mediatype>
																	<pproBypass>false</pproBypass>
																	<parameter authoringApp="PremierePro">
																		<parameterid>level</parameterid>
																		<name>Level</name>
																		<valuemin>0</valuemin>
																		<valuemax>3.98109</valuemax>
																		<value>1.45781</value>
																	</parameter>
																</effect>
															</filter>
															<link>
																<linkclipref>clipitem-654</linkclipref>
																<mediatype>audio</mediatype>
																<trackindex>1</trackindex>
																<clipindex>1</clipindex>
																<groupindex>1</groupindex>
															</link>
															<link>
																<linkclipref>clipitem-655</linkclipref>
																<mediatype>audio</mediatype>
																<trackindex>2</trackindex>
																<clipindex>1</clipindex>
																<groupindex>1</groupindex>
															</link>
															<logginginfo>
																<description></description>
																<scene></scene>
																<shottake></shottake>
																<lognote></lognote>
																<good></good>
																<originalvideofilename></originalvideofilename>
																<originalaudiofilename></originalaudiofilename>
															</logginginfo>
															<colorinfo>
																<lut></lut>
																<lut1></lut1>
																<asc_sop></asc_sop>
																<asc_sat></asc_sat>
																<lut2></lut2>
															</colorinfo>
															<labels>
																<label2>Caribbean</label2>
															</labels>
														</clipitem>
														<transitionitem>
															<start>2026</start>
															<end>2116</end>
															<pproTicksIn>17171701747200</pproTicksIn>
															<pproTicksOut>17934511795200</pproTicksOut>
															<alignment>end-black</alignment>
															<cutPointTicks>762810048000</cutPointTicks>
															<rate>
																<timebase>30</timebase>
																<ntsc>TRUE</ntsc>
															</rate>
															<effect>
																<name>Cross Fade (+3dB)</name>
																<effectid>KGAudioTransCrossFade3dB</effectid>
																<effecttype>transition</effecttype>
																<mediatype>audio</mediatype>
																<wipecode>0</wipecode>
																<wipeaccuracy>100</wipeaccuracy>
																<startratio>0</startratio>
																<endratio>1</endratio>
																<reverse>FALSE</reverse>
															</effect>
														</transitionitem>
														<enabled>TRUE</enabled>
														<locked>FALSE</locked>
														<outputchannelindex>2</outputchannelindex>
													</track>
												</audio>
											</media>
											<timecode>
												<rate>
													<timebase>30</timebase>
													<ntsc>TRUE</ntsc>
												</rate>
												<string>00;00;00;00</string>
												<frame>0</frame>
												<displayformat>DF</displayformat>
											</timecode>
											<logginginfo>
												<description></description>
												<scene></scene>
												<shottake></shottake>
												<lognote></lognote>
												<good></good>
												<originalvideofilename></originalvideofilename>
												<originalaudiofilename></originalaudiofilename>
											</logginginfo>
										</sequence>
										<link>
											<linkclipref>clipitem-640</linkclipref>
											<mediatype>video</mediatype>
											<trackindex>1</trackindex>
											<clipindex>1</clipindex>
										</link>
										<link>
											<linkclipref>clipitem-679</linkclipref>
											<mediatype>audio</mediatype>
											<trackindex>1</trackindex>
											<clipindex>1</clipindex>
											<groupindex>1</groupindex>
										</link>
										<link>
											<linkclipref>clipitem-681</linkclipref>
											<mediatype>audio</mediatype>
											<trackindex>2</trackindex>
											<clipindex>1</clipindex>
											<groupindex>1</groupindex>
										</link>
										<labels>
											<label2>Forest</label2>
										</labels>
									</clipitem>
									<clipitem id="clipitem-656">
										<masterclipid>masterclip-212</masterclipid>
										<name>BEAUTY_PERFECTLYPINKNAILS_2</name>
										<enabled>TRUE</enabled>
										<duration>3207</duration>
										<rate>
											<timebase>30</timebase>
											<ntsc>TRUE</ntsc>
										</rate>
										<start>2189</start>
										<end>5396</end>
										<in>0</in>
										<out>3207</out>
										<pproTicksIn>0</pproTicksIn>
										<pproTicksOut>27181464710400</pproTicksOut>
										<sequence id="sequence-46" TL.SQAudioVisibleBase="0" TL.SQVideoVisibleBase="0" TL.SQVisibleBaseTime="16543631817970" TL.SQAVDividerPosition="0.5" TL.SQHideShyTracks="0" TL.SQHeaderWidth="236" Monitor.ProgramZoomOut="27181464710400" Monitor.ProgramZoomIn="0" TL.SQTimePerPixel="0.084591887902758497" MZ.EditLine="27172989043200" MZ.Sequence.PreviewFrameSizeHeight="1080" MZ.Sequence.PreviewFrameSizeWidth="1920" MZ.Sequence.AudioTimeDisplayFormat="200" MZ.Sequence.PreviewRenderingClassID="1061109567" MZ.Sequence.PreviewRenderingPresetCodec="1634755443" MZ.Sequence.PreviewRenderingPresetPath="EncoderPresets/SequencePreview/35d109db-457b-43c1-9452-9cb7be9f121c/QuickTime.epr" MZ.Sequence.PreviewUseMaxRenderQuality="false" MZ.Sequence.PreviewUseMaxBitDepth="false" MZ.Sequence.EditingModeGUID="35d109db-457b-43c1-9452-9cb7be9f121c" MZ.Sequence.VideoTimeDisplayFormat="102" MZ.WorkOutPoint="26435605996800" MZ.WorkInPoint="0">
											<duration>3207</duration>
											<rate>
												<timebase>30</timebase>
												<ntsc>TRUE</ntsc>
											</rate>
											<name>BEAUTY_PERFECTLYPINKNAILS_2</name>
											<media>
												<video>
													<format>
														<samplecharacteristics>
															<rate>
																<timebase>30</timebase>
																<ntsc>TRUE</ntsc>
															</rate>
															<codec>
																<name>Apple ProRes 422</name>
																<appspecificdata>
																	<appname>Final Cut Pro</appname>
																	<appmanufacturer>Apple Inc.</appmanufacturer>
																	<appversion>7.0</appversion>
																	<data>
																		<qtcodec>
																			<codecname>Apple ProRes 422</codecname>
																			<codectypename>Apple ProRes 422</codectypename>
																			<codectypecode>apcn</codectypecode>
																			<codecvendorcode>appl</codecvendorcode>
																			<spatialquality>1024</spatialquality>
																			<temporalquality>0</temporalquality>
																			<keyframerate>0</keyframerate>
																			<datarate>0</datarate>
																		</qtcodec>
																	</data>
																</appspecificdata>
															</codec>
															<width>1920</width>
															<height>1080</height>
															<anamorphic>FALSE</anamorphic>
															<pixelaspectratio>square</pixelaspectratio>
															<fielddominance>none</fielddominance>
															<colordepth>24</colordepth>
														</samplecharacteristics>
													</format>
													<track TL.SQTrackShy="0" TL.SQTrackExpandedHeight="25" TL.SQTrackExpanded="0" MZ.TrackTargeted="1">
														<clipitem id="clipitem-657">
															<masterclipid>masterclip-213</masterclipid>
															<name>(zacrylics)_7032407171988049158_TT.mp4</name>
															<enabled>TRUE</enabled>
															<duration>705</duration>
															<rate>
																<timebase>30</timebase>
																<ntsc>TRUE</ntsc>
															</rate>
															<start>0</start>
															<end>426</end>
															<in>0</in>
															<out>426</out>
															<pproTicksIn>0</pproTicksIn>
															<pproTicksOut>3610634227200</pproTicksOut>
															<alphatype>none</alphatype>
															<pixelaspectratio>square</pixelaspectratio>
															<anamorphic>FALSE</anamorphic>
															<file id="file-182">
																<name>(zacrylics)_7032407171988049158_TT.mp4</name>
																<pathurl>file://localhost/Volumes/ATM%20JR%202TB/Crafty/2023/06_June/Crafty_6-19-23/3_Raw%20Footage/nails/(zacrylics)_7032407171988049158_TT.mp4</pathurl>
																<rate>
																	<timebase>30</timebase>
																	<ntsc>FALSE</ntsc>
																</rate>
																<duration>706</duration>
																<timecode>
																	<rate>
																		<timebase>30</timebase>
																		<ntsc>FALSE</ntsc>
																	</rate>
																	<string>00:00:00:00</string>
																	<frame>0</frame>
																	<displayformat>NDF</displayformat>
																</timecode>
																<media>
																	<video>
																		<samplecharacteristics>
																			<rate>
																				<timebase>30</timebase>
																				<ntsc>FALSE</ntsc>
																			</rate>
																			<width>576</width>
																			<height>1024</height>
																			<anamorphic>FALSE</anamorphic>
																			<pixelaspectratio>square</pixelaspectratio>
																			<fielddominance>none</fielddominance>
																		</samplecharacteristics>
																	</video>
																	<audio>
																		<samplecharacteristics>
																			<depth>16</depth>
																			<samplerate>44100</samplerate>
																		</samplecharacteristics>
																		<channelcount>2</channelcount>
																	</audio>
																</media>
															</file>
															<filter>
																<effect>
																	<name>Basic Motion</name>
																	<effectid>basic</effectid>
																	<effectcategory>motion</effectcategory>
																	<effecttype>motion</effecttype>
																	<mediatype>video</mediatype>
																	<pproBypass>false</pproBypass>
																	<parameter authoringApp="PremierePro">
																		<parameterid>scale</parameterid>
																		<name>Scale</name>
																		<valuemin>0</valuemin>
																		<valuemax>1000</valuemax>
																		<value>409</value>
																	</parameter>
																	<parameter authoringApp="PremierePro">
																		<parameterid>rotation</parameterid>
																		<name>Rotation</name>
																		<valuemin>-8640</valuemin>
																		<valuemax>8640</valuemax>
																		<value>0</value>
																	</parameter>
																	<parameter authoringApp="PremierePro">
																		<parameterid>center</parameterid>
																		<name>Center</name>
																		<value>
																			<horiz>0</horiz>
																			<vert>0</vert>
																		</value>
																	</parameter>
																	<parameter authoringApp="PremierePro">
																		<parameterid>centerOffset</parameterid>
																		<name>Anchor Point</name>
																		<value>
																			<horiz>0</horiz>
																			<vert>0</vert>
																		</value>
																	</parameter>
																	<parameter authoringApp="PremierePro">
																		<parameterid>antiflicker</parameterid>
																		<name>Anti-flicker Filter</name>
																		<valuemin>0.0</valuemin>
																		<valuemax>1.0</valuemax>
																		<value>0</value>
																	</parameter>
																</effect>
															</filter>
															<filter>
																<effect>
																	<name>Gaussian Blur</name>
																	<effectid>Gaussian Blur</effectid>
																	<effectcategory>Blur</effectcategory>
																	<effecttype>motion</effecttype>
																	<mediatype>video</mediatype>
																	<pproBypass>false</pproBypass>
																	<parameter authoringApp="PremierePro">
																		<parameterid>radius</parameterid>
																		<name>Radius</name>
																		<valuemin>0</valuemin>
																		<valuemax>100</valuemax>
																		<value>150</value>
																	</parameter>
																</effect>
															</filter>
															<logginginfo>
																<description></description>
																<scene></scene>
																<shottake></shottake>
																<lognote></lognote>
																<good></good>
																<originalvideofilename></originalvideofilename>
																<originalaudiofilename></originalaudiofilename>
															</logginginfo>
															<colorinfo>
																<lut></lut>
																<lut1></lut1>
																<asc_sop></asc_sop>
																<asc_sat></asc_sat>
																<lut2></lut2>
															</colorinfo>
															<labels>
																<label2>Iris</label2>
															</labels>
														</clipitem>
														<clipitem id="clipitem-658">
															<masterclipid>masterclip-213</masterclipid>
															<name>(zacrylics)_7032407171988049158_TT.mp4</name>
															<enabled>TRUE</enabled>
															<duration>705</duration>
															<rate>
																<timebase>30</timebase>
																<ntsc>TRUE</ntsc>
															</rate>
															<start>426</start>
															<end>563</end>
															<in>462</in>
															<out>599</out>
															<pproTicksIn>3915758246400</pproTicksIn>
															<pproTicksOut>5076924652800</pproTicksOut>
															<alphatype>none</alphatype>
															<file id="file-182"/>
															<filter>
																<effect>
																	<name>Basic Motion</name>
																	<effectid>basic</effectid>
																	<effectcategory>motion</effectcategory>
																	<effecttype>motion</effecttype>
																	<mediatype>video</mediatype>
																	<pproBypass>false</pproBypass>
																	<parameter authoringApp="PremierePro">
																		<parameterid>scale</parameterid>
																		<name>Scale</name>
																		<valuemin>0</valuemin>
																		<valuemax>1000</valuemax>
																		<value>409</value>
																	</parameter>
																	<parameter authoringApp="PremierePro">
																		<parameterid>rotation</parameterid>
																		<name>Rotation</name>
																		<valuemin>-8640</valuemin>
																		<valuemax>8640</valuemax>
																		<value>0</value>
																	</parameter>
																	<parameter authoringApp="PremierePro">
																		<parameterid>center</parameterid>
																		<name>Center</name>
																		<value>
																			<horiz>0</horiz>
																			<vert>0</vert>
																		</value>
																	</parameter>
																	<parameter authoringApp="PremierePro">
																		<parameterid>centerOffset</parameterid>
																		<name>Anchor Point</name>
																		<value>
																			<horiz>0</horiz>
																			<vert>0</vert>
																		</value>
																	</parameter>
																	<parameter authoringApp="PremierePro">
																		<parameterid>antiflicker</parameterid>
																		<name>Anti-flicker Filter</name>
																		<valuemin>0.0</valuemin>
																		<valuemax>1.0</valuemax>
																		<value>0</value>
																	</parameter>
																</effect>
															</filter>
															<filter>
																<effect>
																	<name>Gaussian Blur</name>
																	<effectid>Gaussian Blur</effectid>
																	<effectcategory>Blur</effectcategory>
																	<effecttype>motion</effecttype>
																	<mediatype>video</mediatype>
																	<pproBypass>false</pproBypass>
																	<parameter authoringApp="PremierePro">
																		<parameterid>radius</parameterid>
																		<name>Radius</name>
																		<valuemin>0</valuemin>
																		<valuemax>100</valuemax>
																		<value>150</value>
																	</parameter>
																</effect>
															</filter>
															<logginginfo>
																<description></description>
																<scene></scene>
																<shottake></shottake>
																<lognote></lognote>
																<good></good>
																<originalvideofilename></originalvideofilename>
																<originalaudiofilename></originalaudiofilename>
															</logginginfo>
															<colorinfo>
																<lut></lut>
																<lut1></lut1>
																<asc_sop></asc_sop>
																<asc_sat></asc_sat>
																<lut2></lut2>
															</colorinfo>
															<labels>
																<label2>Iris</label2>
															</labels>
														</clipitem>
														<clipitem id="clipitem-659">
															<masterclipid>masterclip-214</masterclipid>
															<name>(heluviee)_Cd8uBGFlD7U_IG.mp4</name>
															<enabled>TRUE</enabled>
															<duration>843</duration>
															<rate>
																<timebase>30</timebase>
																<ntsc>TRUE</ntsc>
															</rate>
															<start>563</start>
															<end>1406</end>
															<in>0</in>
															<out>843</out>
															<pproTicksIn>0</pproTicksIn>
															<pproTicksOut>7144987449600</pproTicksOut>
															<alphatype>none</alphatype>
															<pixelaspectratio>square</pixelaspectratio>
															<anamorphic>FALSE</anamorphic>
															<file id="file-183">
																<name>(heluviee)_Cd8uBGFlD7U_IG.mp4</name>
																<pathurl>file://localhost/Volumes/ATM%20JR%202TB/Crafty/2023/06_June/Crafty_6-19-23/3_Raw%20Footage/nails/(heluviee)_Cd8uBGFlD7U_IG.mp4</pathurl>
																<rate>
																	<timebase>30</timebase>
																	<ntsc>FALSE</ntsc>
																</rate>
																<duration>844</duration>
																<timecode>
																	<rate>
																		<timebase>30</timebase>
																		<ntsc>FALSE</ntsc>
																	</rate>
																	<string>00:00:00:00</string>
																	<frame>0</frame>
																	<displayformat>NDF</displayformat>
																</timecode>
																<media>
																	<video>
																		<samplecharacteristics>
																			<rate>
																				<timebase>30</timebase>
																				<ntsc>FALSE</ntsc>
																			</rate>
																			<width>720</width>
																			<height>1280</height>
																			<anamorphic>FALSE</anamorphic>
																			<pixelaspectratio>square</pixelaspectratio>
																			<fielddominance>none</fielddominance>
																		</samplecharacteristics>
																	</video>
																	<audio>
																		<samplecharacteristics>
																			<depth>16</depth>
																			<samplerate>44100</samplerate>
																		</samplecharacteristics>
																		<channelcount>2</channelcount>
																	</audio>
																</media>
															</file>
															<filter>
																<effect>
																	<name>Basic Motion</name>
																	<effectid>basic</effectid>
																	<effectcategory>motion</effectcategory>
																	<effecttype>motion</effecttype>
																	<mediatype>video</mediatype>
																	<pproBypass>false</pproBypass>
																	<parameter authoringApp="PremierePro">
																		<parameterid>scale</parameterid>
																		<name>Scale</name>
																		<valuemin>0</valuemin>
																		<valuemax>1000</valuemax>
																		<value>300</value>
																	</parameter>
																	<parameter authoringApp="PremierePro">
																		<parameterid>rotation</parameterid>
																		<name>Rotation</name>
																		<valuemin>-8640</valuemin>
																		<valuemax>8640</valuemax>
																		<value>0</value>
																	</parameter>
																	<parameter authoringApp="PremierePro">
																		<parameterid>center</parameterid>
																		<name>Center</name>
																		<value>
																			<horiz>0</horiz>
																			<vert>0</vert>
																		</value>
																	</parameter>
																	<parameter authoringApp="PremierePro">
																		<parameterid>centerOffset</parameterid>
																		<name>Anchor Point</name>
																		<value>
																			<horiz>0</horiz>
																			<vert>0</vert>
																		</value>
																	</parameter>
																	<parameter authoringApp="PremierePro">
																		<parameterid>antiflicker</parameterid>
																		<name>Anti-flicker Filter</name>
																		<valuemin>0.0</valuemin>
																		<valuemax>1.0</valuemax>
																		<value>0</value>
																	</parameter>
																</effect>
															</filter>
															<filter>
																<effect>
																	<name>Gaussian Blur</name>
																	<effectid>Gaussian Blur</effectid>
																	<effectcategory>Blur</effectcategory>
																	<effecttype>motion</effecttype>
																	<mediatype>video</mediatype>
																	<pproBypass>false</pproBypass>
																	<parameter authoringApp="PremierePro">
																		<parameterid>radius</parameterid>
																		<name>Radius</name>
																		<valuemin>0</valuemin>
																		<valuemax>100</valuemax>
																		<value>150</value>
																	</parameter>
																</effect>
															</filter>
															<logginginfo>
																<description></description>
																<scene></scene>
																<shottake></shottake>
																<lognote></lognote>
																<good></good>
																<originalvideofilename></originalvideofilename>
																<originalaudiofilename></originalaudiofilename>
															</logginginfo>
															<colorinfo>
																<lut></lut>
																<lut1></lut1>
																<asc_sop></asc_sop>
																<asc_sat></asc_sat>
																<lut2></lut2>
															</colorinfo>
															<labels>
																<label2>Violet</label2>
															</labels>
														</clipitem>
														<clipitem id="clipitem-660">
															<masterclipid>masterclip-215</masterclipid>
															<name>(zacrylics)_7072821589133282565_TT.mp4</name>
															<enabled>TRUE</enabled>
															<duration>1442</duration>
															<rate>
																<timebase>30</timebase>
																<ntsc>TRUE</ntsc>
															</rate>
															<start>1406</start>
															<end>1513</end>
															<in>200</in>
															<out>307</out>
															<pproTicksIn>1695133440000</pproTicksIn>
															<pproTicksOut>2602029830400</pproTicksOut>
															<alphatype>none</alphatype>
															<pixelaspectratio>square</pixelaspectratio>
															<anamorphic>FALSE</anamorphic>
															<file id="file-184">
																<name>(zacrylics)_7072821589133282565_TT.mp4</name>
																<pathurl>file://localhost/Volumes/ATM%20JR%202TB/Crafty/2023/06_June/Crafty_6-19-23/3_Raw%20Footage/nails/(zacrylics)_7072821589133282565_TT.mp4</pathurl>
																<rate>
																	<timebase>30</timebase>
																	<ntsc>FALSE</ntsc>
																</rate>
																<duration>1444</duration>
																<timecode>
																	<rate>
																		<timebase>30</timebase>
																		<ntsc>FALSE</ntsc>
																	</rate>
																	<string>00:00:00:00</string>
																	<frame>0</frame>
																	<displayformat>NDF</displayformat>
																</timecode>
																<media>
																	<video>
																		<samplecharacteristics>
																			<rate>
																				<timebase>30</timebase>
																				<ntsc>FALSE</ntsc>
																			</rate>
																			<width>576</width>
																			<height>1024</height>
																			<anamorphic>FALSE</anamorphic>
																			<pixelaspectratio>square</pixelaspectratio>
																			<fielddominance>none</fielddominance>
																		</samplecharacteristics>
																	</video>
																	<audio>
																		<samplecharacteristics>
																			<depth>16</depth>
																			<samplerate>44100</samplerate>
																		</samplecharacteristics>
																		<channelcount>2</channelcount>
																	</audio>
																</media>
															</file>
															<filter>
																<effect>
																	<name>Basic Motion</name>
																	<effectid>basic</effectid>
																	<effectcategory>motion</effectcategory>
																	<effecttype>motion</effecttype>
																	<mediatype>video</mediatype>
																	<pproBypass>false</pproBypass>
																	<parameter authoringApp="PremierePro">
																		<parameterid>scale</parameterid>
																		<name>Scale</name>
																		<valuemin>0</valuemin>
																		<valuemax>1000</valuemax>
																		<value>431</value>
																	</parameter>
																	<parameter authoringApp="PremierePro">
																		<parameterid>rotation</parameterid>
																		<name>Rotation</name>
																		<valuemin>-8640</valuemin>
																		<valuemax>8640</valuemax>
																		<value>0</value>
																	</parameter>
																	<parameter authoringApp="PremierePro">
																		<parameterid>center</parameterid>
																		<name>Center</name>
																		<value>
																			<horiz>0</horiz>
																			<vert>0</vert>
																		</value>
																	</parameter>
																	<parameter authoringApp="PremierePro">
																		<parameterid>centerOffset</parameterid>
																		<name>Anchor Point</name>
																		<value>
																			<horiz>0</horiz>
																			<vert>0</vert>
																		</value>
																	</parameter>
																	<parameter authoringApp="PremierePro">
																		<parameterid>antiflicker</parameterid>
																		<name>Anti-flicker Filter</name>
																		<valuemin>0.0</valuemin>
																		<valuemax>1.0</valuemax>
																		<value>0</value>
																	</parameter>
																</effect>
															</filter>
															<filter>
																<effect>
																	<name>Gaussian Blur</name>
																	<effectid>Gaussian Blur</effectid>
																	<effectcategory>Blur</effectcategory>
																	<effecttype>motion</effecttype>
																	<mediatype>video</mediatype>
																	<pproBypass>false</pproBypass>
																	<parameter authoringApp="PremierePro">
																		<parameterid>radius</parameterid>
																		<name>Radius</name>
																		<valuemin>0</valuemin>
																		<valuemax>100</valuemax>
																		<value>150</value>
																	</parameter>
																</effect>
															</filter>
															<logginginfo>
																<description></description>
																<scene></scene>
																<shottake></shottake>
																<lognote></lognote>
																<good></good>
																<originalvideofilename></originalvideofilename>
																<originalaudiofilename></originalaudiofilename>
															</logginginfo>
															<colorinfo>
																<lut></lut>
																<lut1></lut1>
																<asc_sop></asc_sop>
																<asc_sat></asc_sat>
																<lut2></lut2>
															</colorinfo>
															<labels>
																<label2>Caribbean</label2>
															</labels>
														</clipitem>
														<clipitem id="clipitem-661">
															<masterclipid>masterclip-215</masterclipid>
															<name>(zacrylics)_7072821589133282565_TT.mp4</name>
															<enabled>TRUE</enabled>
															<duration>1442</duration>
															<rate>
																<timebase>30</timebase>
																<ntsc>TRUE</ntsc>
															</rate>
															<start>1513</start>
															<end>2470</end>
															<in>485</in>
															<out>1442</out>
															<pproTicksIn>4110698592000</pproTicksIn>
															<pproTicksOut>12221912102400</pproTicksOut>
															<alphatype>none</alphatype>
															<file id="file-184"/>
															<filter>
																<effect>
																	<name>Basic Motion</name>
																	<effectid>basic</effectid>
																	<effectcategory>motion</effectcategory>
																	<effecttype>motion</effecttype>
																	<mediatype>video</mediatype>
																	<pproBypass>false</pproBypass>
																	<parameter authoringApp="PremierePro">
																		<parameterid>scale</parameterid>
																		<name>Scale</name>
																		<valuemin>0</valuemin>
																		<valuemax>1000</valuemax>
																		<value>431</value>
																	</parameter>
																	<parameter authoringApp="PremierePro">
																		<parameterid>rotation</parameterid>
																		<name>Rotation</name>
																		<valuemin>-8640</valuemin>
																		<valuemax>8640</valuemax>
																		<value>0</value>
																	</parameter>
																	<parameter authoringApp="PremierePro">
																		<parameterid>center</parameterid>
																		<name>Center</name>
																		<value>
																			<horiz>0</horiz>
																			<vert>0</vert>
																		</value>
																	</parameter>
																	<parameter authoringApp="PremierePro">
																		<parameterid>centerOffset</parameterid>
																		<name>Anchor Point</name>
																		<value>
																			<horiz>0</horiz>
																			<vert>0</vert>
																		</value>
																	</parameter>
																	<parameter authoringApp="PremierePro">
																		<parameterid>antiflicker</parameterid>
																		<name>Anti-flicker Filter</name>
																		<valuemin>0.0</valuemin>
																		<valuemax>1.0</valuemax>
																		<value>0</value>
																	</parameter>
																</effect>
															</filter>
															<filter>
																<effect>
																	<name>Gaussian Blur</name>
																	<effectid>Gaussian Blur</effectid>
																	<effectcategory>Blur</effectcategory>
																	<effecttype>motion</effecttype>
																	<mediatype>video</mediatype>
																	<pproBypass>false</pproBypass>
																	<parameter authoringApp="PremierePro">
																		<parameterid>radius</parameterid>
																		<name>Radius</name>
																		<valuemin>0</valuemin>
																		<valuemax>100</valuemax>
																		<value>150</value>
																	</parameter>
																</effect>
															</filter>
															<logginginfo>
																<description></description>
																<scene></scene>
																<shottake></shottake>
																<lognote></lognote>
																<good></good>
																<originalvideofilename></originalvideofilename>
																<originalaudiofilename></originalaudiofilename>
															</logginginfo>
															<colorinfo>
																<lut></lut>
																<lut1></lut1>
																<asc_sop></asc_sop>
																<asc_sat></asc_sat>
																<lut2></lut2>
															</colorinfo>
															<labels>
																<label2>Caribbean</label2>
															</labels>
														</clipitem>
														<clipitem id="clipitem-662">
															<masterclipid>masterclip-216</masterclipid>
															<name>(zacrylics)_6946671653380197637_TT.mp4</name>
															<enabled>TRUE</enabled>
															<duration>737</duration>
															<rate>
																<timebase>30</timebase>
																<ntsc>TRUE</ntsc>
															</rate>
															<start>2470</start>
															<end>3207</end>
															<in>0</in>
															<out>737</out>
															<pproTicksIn>0</pproTicksIn>
															<pproTicksOut>6246566726400</pproTicksOut>
															<alphatype>none</alphatype>
															<pixelaspectratio>square</pixelaspectratio>
															<anamorphic>FALSE</anamorphic>
															<file id="file-185">
																<name>(zacrylics)_6946671653380197637_TT.mp4</name>
																<pathurl>file://localhost/Volumes/ATM%20JR%202TB/Crafty/2023/06_June/Crafty_6-19-23/3_Raw%20Footage/nails/(zacrylics)_6946671653380197637_TT.mp4</pathurl>
																<rate>
																	<timebase>30</timebase>
																	<ntsc>FALSE</ntsc>
																</rate>
																<duration>738</duration>
																<timecode>
																	<rate>
																		<timebase>30</timebase>
																		<ntsc>FALSE</ntsc>
																	</rate>
																	<string>00:00:00:00</string>
																	<frame>0</frame>
																	<displayformat>NDF</displayformat>
																</timecode>
																<media>
																	<video>
																		<samplecharacteristics>
																			<rate>
																				<timebase>30</timebase>
																				<ntsc>FALSE</ntsc>
																			</rate>
																			<width>576</width>
																			<height>1024</height>
																			<anamorphic>FALSE</anamorphic>
																			<pixelaspectratio>square</pixelaspectratio>
																			<fielddominance>none</fielddominance>
																		</samplecharacteristics>
																	</video>
																	<audio>
																		<samplecharacteristics>
																			<depth>16</depth>
																			<samplerate>44100</samplerate>
																		</samplecharacteristics>
																		<channelcount>2</channelcount>
																	</audio>
																</media>
															</file>
															<filter>
																<effect>
																	<name>Basic Motion</name>
																	<effectid>basic</effectid>
																	<effectcategory>motion</effectcategory>
																	<effecttype>motion</effecttype>
																	<mediatype>video</mediatype>
																	<pproBypass>false</pproBypass>
																	<parameter authoringApp="PremierePro">
																		<parameterid>scale</parameterid>
																		<name>Scale</name>
																		<valuemin>0</valuemin>
																		<valuemax>1000</valuemax>
																		<value>431</value>
																	</parameter>
																	<parameter authoringApp="PremierePro">
																		<parameterid>rotation</parameterid>
																		<name>Rotation</name>
																		<valuemin>-8640</valuemin>
																		<valuemax>8640</valuemax>
																		<value>0</value>
																	</parameter>
																	<parameter authoringApp="PremierePro">
																		<parameterid>center</parameterid>
																		<name>Center</name>
																		<value>
																			<horiz>0</horiz>
																			<vert>0</vert>
																		</value>
																	</parameter>
																	<parameter authoringApp="PremierePro">
																		<parameterid>centerOffset</parameterid>
																		<name>Anchor Point</name>
																		<value>
																			<horiz>0</horiz>
																			<vert>0</vert>
																		</value>
																	</parameter>
																	<parameter authoringApp="PremierePro">
																		<parameterid>antiflicker</parameterid>
																		<name>Anti-flicker Filter</name>
																		<valuemin>0.0</valuemin>
																		<valuemax>1.0</valuemax>
																		<value>0</value>
																	</parameter>
																</effect>
															</filter>
															<filter>
																<effect>
																	<name>Gaussian Blur</name>
																	<effectid>Gaussian Blur</effectid>
																	<effectcategory>Blur</effectcategory>
																	<effecttype>motion</effecttype>
																	<mediatype>video</mediatype>
																	<pproBypass>false</pproBypass>
																	<parameter authoringApp="PremierePro">
																		<parameterid>radius</parameterid>
																		<name>Radius</name>
																		<valuemin>0</valuemin>
																		<valuemax>100</valuemax>
																		<value>150</value>
																	</parameter>
																</effect>
															</filter>
															<logginginfo>
																<description></description>
																<scene></scene>
																<shottake></shottake>
																<lognote></lognote>
																<good></good>
																<originalvideofilename></originalvideofilename>
																<originalaudiofilename></originalaudiofilename>
															</logginginfo>
															<colorinfo>
																<lut></lut>
																<lut1></lut1>
																<asc_sop></asc_sop>
																<asc_sat></asc_sat>
																<lut2></lut2>
															</colorinfo>
															<labels>
																<label2>Cerulean</label2>
															</labels>
														</clipitem>
														<enabled>TRUE</enabled>
														<locked>FALSE</locked>
													</track>
													<track TL.SQTrackShy="0" TL.SQTrackExpandedHeight="25" TL.SQTrackExpanded="0" MZ.TrackTargeted="0">
														<clipitem id="clipitem-663">
															<masterclipid>masterclip-213</masterclipid>
															<name>(zacrylics)_7032407171988049158_TT.mp4</name>
															<enabled>TRUE</enabled>
															<duration>705</duration>
															<rate>
																<timebase>30</timebase>
																<ntsc>TRUE</ntsc>
															</rate>
															<start>0</start>
															<end>426</end>
															<in>0</in>
															<out>426</out>
															<pproTicksIn>0</pproTicksIn>
															<pproTicksOut>3610634227200</pproTicksOut>
															<alphatype>none</alphatype>
															<file id="file-182"/>
															<filter>
																<effect>
																	<name>Basic Motion</name>
																	<effectid>basic</effectid>
																	<effectcategory>motion</effectcategory>
																	<effecttype>motion</effecttype>
																	<mediatype>video</mediatype>
																	<pproBypass>false</pproBypass>
																	<parameter authoringApp="PremierePro">
																		<parameterid>scale</parameterid>
																		<name>Scale</name>
																		<valuemin>0</valuemin>
																		<valuemax>1000</valuemax>
																		<value>105.469</value>
																	</parameter>
																	<parameter authoringApp="PremierePro">
																		<parameterid>rotation</parameterid>
																		<name>Rotation</name>
																		<valuemin>-8640</valuemin>
																		<valuemax>8640</valuemax>
																		<value>0</value>
																	</parameter>
																	<parameter authoringApp="PremierePro">
																		<parameterid>center</parameterid>
																		<name>Center</name>
																		<value>
																			<horiz>0</horiz>
																			<vert>0</vert>
																		</value>
																	</parameter>
																	<parameter authoringApp="PremierePro">
																		<parameterid>centerOffset</parameterid>
																		<name>Anchor Point</name>
																		<value>
																			<horiz>0</horiz>
																			<vert>0</vert>
																		</value>
																	</parameter>
																	<parameter authoringApp="PremierePro">
																		<parameterid>antiflicker</parameterid>
																		<name>Anti-flicker Filter</name>
																		<valuemin>0.0</valuemin>
																		<valuemax>1.0</valuemax>
																		<value>0</value>
																	</parameter>
																</effect>
															</filter>
															<logginginfo>
																<description></description>
																<scene></scene>
																<shottake></shottake>
																<lognote></lognote>
																<good></good>
																<originalvideofilename></originalvideofilename>
																<originalaudiofilename></originalaudiofilename>
															</logginginfo>
															<colorinfo>
																<lut></lut>
																<lut1></lut1>
																<asc_sop></asc_sop>
																<asc_sat></asc_sat>
																<lut2></lut2>
															</colorinfo>
															<labels>
																<label2>Iris</label2>
															</labels>
														</clipitem>
														<clipitem id="clipitem-664">
															<masterclipid>masterclip-213</masterclipid>
															<name>(zacrylics)_7032407171988049158_TT.mp4</name>
															<enabled>TRUE</enabled>
															<duration>705</duration>
															<rate>
																<timebase>30</timebase>
																<ntsc>TRUE</ntsc>
															</rate>
															<start>426</start>
															<end>563</end>
															<in>462</in>
															<out>599</out>
															<pproTicksIn>3915758246400</pproTicksIn>
															<pproTicksOut>5076924652800</pproTicksOut>
															<alphatype>none</alphatype>
															<file id="file-182"/>
															<filter>
																<effect>
																	<name>Basic Motion</name>
																	<effectid>basic</effectid>
																	<effectcategory>motion</effectcategory>
																	<effecttype>motion</effecttype>
																	<mediatype>video</mediatype>
																	<pproBypass>false</pproBypass>
																	<parameter authoringApp="PremierePro">
																		<parameterid>scale</parameterid>
																		<name>Scale</name>
																		<valuemin>0</valuemin>
																		<valuemax>1000</valuemax>
																		<value>105.469</value>
																	</parameter>
																	<parameter authoringApp="PremierePro">
																		<parameterid>rotation</parameterid>
																		<name>Rotation</name>
																		<valuemin>-8640</valuemin>
																		<valuemax>8640</valuemax>
																		<value>0</value>
																	</parameter>
																	<parameter authoringApp="PremierePro">
																		<parameterid>center</parameterid>
																		<name>Center</name>
																		<value>
																			<horiz>0</horiz>
																			<vert>0</vert>
																		</value>
																	</parameter>
																	<parameter authoringApp="PremierePro">
																		<parameterid>centerOffset</parameterid>
																		<name>Anchor Point</name>
																		<value>
																			<horiz>0</horiz>
																			<vert>0</vert>
																		</value>
																	</parameter>
																	<parameter authoringApp="PremierePro">
																		<parameterid>antiflicker</parameterid>
																		<name>Anti-flicker Filter</name>
																		<valuemin>0.0</valuemin>
																		<valuemax>1.0</valuemax>
																		<value>0</value>
																	</parameter>
																</effect>
															</filter>
															<logginginfo>
																<description></description>
																<scene></scene>
																<shottake></shottake>
																<lognote></lognote>
																<good></good>
																<originalvideofilename></originalvideofilename>
																<originalaudiofilename></originalaudiofilename>
															</logginginfo>
															<colorinfo>
																<lut></lut>
																<lut1></lut1>
																<asc_sop></asc_sop>
																<asc_sat></asc_sat>
																<lut2></lut2>
															</colorinfo>
															<labels>
																<label2>Iris</label2>
															</labels>
														</clipitem>
														<clipitem id="clipitem-665">
															<masterclipid>masterclip-214</masterclipid>
															<name>(heluviee)_Cd8uBGFlD7U_IG.mp4</name>
															<enabled>TRUE</enabled>
															<duration>843</duration>
															<rate>
																<timebase>30</timebase>
																<ntsc>TRUE</ntsc>
															</rate>
															<start>563</start>
															<end>1406</end>
															<in>0</in>
															<out>843</out>
															<pproTicksIn>0</pproTicksIn>
															<pproTicksOut>7144987449600</pproTicksOut>
															<alphatype>none</alphatype>
															<file id="file-183"/>
															<filter>
																<effect>
																	<name>Basic Motion</name>
																	<effectid>basic</effectid>
																	<effectcategory>motion</effectcategory>
																	<effecttype>motion</effecttype>
																	<mediatype>video</mediatype>
																	<pproBypass>false</pproBypass>
																	<parameter authoringApp="PremierePro">
																		<parameterid>scale</parameterid>
																		<name>Scale</name>
																		<valuemin>0</valuemin>
																		<valuemax>1000</valuemax>
																		<value>84.375</value>
																	</parameter>
																	<parameter authoringApp="PremierePro">
																		<parameterid>rotation</parameterid>
																		<name>Rotation</name>
																		<valuemin>-8640</valuemin>
																		<valuemax>8640</valuemax>
																		<value>0</value>
																	</parameter>
																	<parameter authoringApp="PremierePro">
																		<parameterid>center</parameterid>
																		<name>Center</name>
																		<value>
																			<horiz>0</horiz>
																			<vert>0</vert>
																		</value>
																	</parameter>
																	<parameter authoringApp="PremierePro">
																		<parameterid>centerOffset</parameterid>
																		<name>Anchor Point</name>
																		<value>
																			<horiz>0</horiz>
																			<vert>0</vert>
																		</value>
																	</parameter>
																	<parameter authoringApp="PremierePro">
																		<parameterid>antiflicker</parameterid>
																		<name>Anti-flicker Filter</name>
																		<valuemin>0.0</valuemin>
																		<valuemax>1.0</valuemax>
																		<value>0</value>
																	</parameter>
																</effect>
															</filter>
															<logginginfo>
																<description></description>
																<scene></scene>
																<shottake></shottake>
																<lognote></lognote>
																<good></good>
																<originalvideofilename></originalvideofilename>
																<originalaudiofilename></originalaudiofilename>
															</logginginfo>
															<colorinfo>
																<lut></lut>
																<lut1></lut1>
																<asc_sop></asc_sop>
																<asc_sat></asc_sat>
																<lut2></lut2>
															</colorinfo>
															<labels>
																<label2>Violet</label2>
															</labels>
														</clipitem>
														<clipitem id="clipitem-666">
															<masterclipid>masterclip-215</masterclipid>
															<name>(zacrylics)_7072821589133282565_TT.mp4</name>
															<enabled>TRUE</enabled>
															<duration>1442</duration>
															<rate>
																<timebase>30</timebase>
																<ntsc>TRUE</ntsc>
															</rate>
															<start>1406</start>
															<end>1513</end>
															<in>200</in>
															<out>307</out>
															<pproTicksIn>1695133440000</pproTicksIn>
															<pproTicksOut>2602029830400</pproTicksOut>
															<alphatype>none</alphatype>
															<file id="file-184"/>
															<filter>
																<effect>
																	<name>Basic Motion</name>
																	<effectid>basic</effectid>
																	<effectcategory>motion</effectcategory>
																	<effecttype>motion</effecttype>
																	<mediatype>video</mediatype>
																	<pproBypass>false</pproBypass>
																	<parameter authoringApp="PremierePro">
																		<parameterid>scale</parameterid>
																		<name>Scale</name>
																		<valuemin>0</valuemin>
																		<valuemax>1000</valuemax>
																		<value>105.469</value>
																	</parameter>
																	<parameter authoringApp="PremierePro">
																		<parameterid>rotation</parameterid>
																		<name>Rotation</name>
																		<valuemin>-8640</valuemin>
																		<valuemax>8640</valuemax>
																		<value>0</value>
																	</parameter>
																	<parameter authoringApp="PremierePro">
																		<parameterid>center</parameterid>
																		<name>Center</name>
																		<value>
																			<horiz>0</horiz>
																			<vert>0</vert>
																		</value>
																	</parameter>
																	<parameter authoringApp="PremierePro">
																		<parameterid>centerOffset</parameterid>
																		<name>Anchor Point</name>
																		<value>
																			<horiz>0</horiz>
																			<vert>0</vert>
																		</value>
																	</parameter>
																	<parameter authoringApp="PremierePro">
																		<parameterid>antiflicker</parameterid>
																		<name>Anti-flicker Filter</name>
																		<valuemin>0.0</valuemin>
																		<valuemax>1.0</valuemax>
																		<value>0</value>
																	</parameter>
																</effect>
															</filter>
															<logginginfo>
																<description></description>
																<scene></scene>
																<shottake></shottake>
																<lognote></lognote>
																<good></good>
																<originalvideofilename></originalvideofilename>
																<originalaudiofilename></originalaudiofilename>
															</logginginfo>
															<colorinfo>
																<lut></lut>
																<lut1></lut1>
																<asc_sop></asc_sop>
																<asc_sat></asc_sat>
																<lut2></lut2>
															</colorinfo>
															<labels>
																<label2>Caribbean</label2>
															</labels>
														</clipitem>
														<clipitem id="clipitem-667">
															<masterclipid>masterclip-215</masterclipid>
															<name>(zacrylics)_7072821589133282565_TT.mp4</name>
															<enabled>TRUE</enabled>
															<duration>1442</duration>
															<rate>
																<timebase>30</timebase>
																<ntsc>TRUE</ntsc>
															</rate>
															<start>1513</start>
															<end>2470</end>
															<in>485</in>
															<out>1442</out>
															<pproTicksIn>4110698592000</pproTicksIn>
															<pproTicksOut>12221912102400</pproTicksOut>
															<alphatype>none</alphatype>
															<file id="file-184"/>
															<filter>
																<effect>
																	<name>Basic Motion</name>
																	<effectid>basic</effectid>
																	<effectcategory>motion</effectcategory>
																	<effecttype>motion</effecttype>
																	<mediatype>video</mediatype>
																	<pproBypass>false</pproBypass>
																	<parameter authoringApp="PremierePro">
																		<parameterid>scale</parameterid>
																		<name>Scale</name>
																		<valuemin>0</valuemin>
																		<valuemax>1000</valuemax>
																		<value>105.469</value>
																	</parameter>
																	<parameter authoringApp="PremierePro">
																		<parameterid>rotation</parameterid>
																		<name>Rotation</name>
																		<valuemin>-8640</valuemin>
																		<valuemax>8640</valuemax>
																		<value>0</value>
																	</parameter>
																	<parameter authoringApp="PremierePro">
																		<parameterid>center</parameterid>
																		<name>Center</name>
																		<value>
																			<horiz>0</horiz>
																			<vert>0</vert>
																		</value>
																	</parameter>
																	<parameter authoringApp="PremierePro">
																		<parameterid>centerOffset</parameterid>
																		<name>Anchor Point</name>
																		<value>
																			<horiz>0</horiz>
																			<vert>0</vert>
																		</value>
																	</parameter>
																	<parameter authoringApp="PremierePro">
																		<parameterid>antiflicker</parameterid>
																		<name>Anti-flicker Filter</name>
																		<valuemin>0.0</valuemin>
																		<valuemax>1.0</valuemax>
																		<value>0</value>
																	</parameter>
																</effect>
															</filter>
															<logginginfo>
																<description></description>
																<scene></scene>
																<shottake></shottake>
																<lognote></lognote>
																<good></good>
																<originalvideofilename></originalvideofilename>
																<originalaudiofilename></originalaudiofilename>
															</logginginfo>
															<colorinfo>
																<lut></lut>
																<lut1></lut1>
																<asc_sop></asc_sop>
																<asc_sat></asc_sat>
																<lut2></lut2>
															</colorinfo>
															<labels>
																<label2>Caribbean</label2>
															</labels>
														</clipitem>
														<clipitem id="clipitem-668">
															<masterclipid>masterclip-216</masterclipid>
															<name>(zacrylics)_6946671653380197637_TT.mp4</name>
															<enabled>TRUE</enabled>
															<duration>737</duration>
															<rate>
																<timebase>30</timebase>
																<ntsc>TRUE</ntsc>
															</rate>
															<start>2470</start>
															<end>3207</end>
															<in>0</in>
															<out>737</out>
															<pproTicksIn>0</pproTicksIn>
															<pproTicksOut>6246566726400</pproTicksOut>
															<alphatype>none</alphatype>
															<file id="file-185"/>
															<filter>
																<effect>
																	<name>Basic Motion</name>
																	<effectid>basic</effectid>
																	<effectcategory>motion</effectcategory>
																	<effecttype>motion</effecttype>
																	<mediatype>video</mediatype>
																	<pproBypass>false</pproBypass>
																	<parameter authoringApp="PremierePro">
																		<parameterid>scale</parameterid>
																		<name>Scale</name>
																		<valuemin>0</valuemin>
																		<valuemax>1000</valuemax>
																		<value>105.469</value>
																	</parameter>
																	<parameter authoringApp="PremierePro">
																		<parameterid>rotation</parameterid>
																		<name>Rotation</name>
																		<valuemin>-8640</valuemin>
																		<valuemax>8640</valuemax>
																		<value>0</value>
																	</parameter>
																	<parameter authoringApp="PremierePro">
																		<parameterid>center</parameterid>
																		<name>Center</name>
																		<value>
																			<horiz>0</horiz>
																			<vert>0</vert>
																		</value>
																	</parameter>
																	<parameter authoringApp="PremierePro">
																		<parameterid>centerOffset</parameterid>
																		<name>Anchor Point</name>
																		<value>
																			<horiz>0</horiz>
																			<vert>0</vert>
																		</value>
																	</parameter>
																	<parameter authoringApp="PremierePro">
																		<parameterid>antiflicker</parameterid>
																		<name>Anti-flicker Filter</name>
																		<valuemin>0.0</valuemin>
																		<valuemax>1.0</valuemax>
																		<value>0</value>
																	</parameter>
																</effect>
															</filter>
															<logginginfo>
																<description></description>
																<scene></scene>
																<shottake></shottake>
																<lognote></lognote>
																<good></good>
																<originalvideofilename></originalvideofilename>
																<originalaudiofilename></originalaudiofilename>
															</logginginfo>
															<colorinfo>
																<lut></lut>
																<lut1></lut1>
																<asc_sop></asc_sop>
																<asc_sat></asc_sat>
																<lut2></lut2>
															</colorinfo>
															<labels>
																<label2>Cerulean</label2>
															</labels>
														</clipitem>
														<enabled>TRUE</enabled>
														<locked>FALSE</locked>
													</track>
													<track TL.SQTrackShy="0" TL.SQTrackExpandedHeight="25" TL.SQTrackExpanded="0" MZ.TrackTargeted="0">
														<clipitem id="clipitem-669">
															<masterclipid>masterclip-217</masterclipid>
															<name>@ZACRYLICS</name>
															<enabled>TRUE</enabled>
															<duration>5844</duration>
															<rate>
																<timebase>30</timebase>
																<ntsc>TRUE</ntsc>
															</rate>
															<start>0</start>
															<end>563</end>
															<in>0</in>
															<out>563</out>
															<pproTicksIn>0</pproTicksIn>
															<pproTicksOut>4771800633600</pproTicksOut>
															<alphatype>straight</alphatype>
															<pixelaspectratio>square</pixelaspectratio>
															<anamorphic>FALSE</anamorphic>
															<file id="file-186">
																<name>1080/AE Attribution.aep</name>
																<pathurl>file://localhost/Volumes/ATM%20JR%202TB/Crafty/Master%20Assets%20/Attribution/AE%20Attribution.aep</pathurl>
																<rate>
																	<timebase>30</timebase>
																	<ntsc>TRUE</ntsc>
																</rate>
																<duration>5844</duration>
																<timecode>
																	<rate>
																		<timebase>30</timebase>
																		<ntsc>TRUE</ntsc>
																	</rate>
																	<string>00;00;00;00</string>
																	<frame>0</frame>
																	<displayformat>DF</displayformat>
																</timecode>
																<media>
																	<video>
																		<samplecharacteristics>
																			<rate>
																				<timebase>30</timebase>
																				<ntsc>TRUE</ntsc>
																			</rate>
																			<width>1920</width>
																			<height>1080</height>
																			<anamorphic>FALSE</anamorphic>
																			<pixelaspectratio>square</pixelaspectratio>
																			<fielddominance>lower</fielddominance>
																		</samplecharacteristics>
																	</video>
																</media>
															</file>
															<logginginfo>
																<description></description>
																<scene></scene>
																<shottake></shottake>
																<lognote></lognote>
																<good></good>
																<originalvideofilename></originalvideofilename>
																<originalaudiofilename></originalaudiofilename>
															</logginginfo>
															<colorinfo>
																<lut></lut>
																<lut1></lut1>
																<asc_sop></asc_sop>
																<asc_sat></asc_sat>
																<lut2></lut2>
															</colorinfo>
															<labels>
																<label2>Rose</label2>
															</labels>
														</clipitem>
														<clipitem id="clipitem-670">
															<masterclipid>masterclip-218</masterclipid>
															<name>@HELUVIEE</name>
															<enabled>TRUE</enabled>
															<duration>5844</duration>
															<rate>
																<timebase>30</timebase>
																<ntsc>TRUE</ntsc>
															</rate>
															<start>563</start>
															<end>1406</end>
															<in>0</in>
															<out>843</out>
															<pproTicksIn>0</pproTicksIn>
															<pproTicksOut>7144987449600</pproTicksOut>
															<alphatype>straight</alphatype>
															<pixelaspectratio>square</pixelaspectratio>
															<anamorphic>FALSE</anamorphic>
															<file id="file-187">
																<name>1080/AE Attribution.aep</name>
																<pathurl>file://localhost/Volumes/ATM%20JR%202TB/Crafty/Master%20Assets%20/Attribution/AE%20Attribution.aep</pathurl>
																<rate>
																	<timebase>30</timebase>
																	<ntsc>TRUE</ntsc>
																</rate>
																<duration>5844</duration>
																<timecode>
																	<rate>
																		<timebase>30</timebase>
																		<ntsc>TRUE</ntsc>
																	</rate>
																	<string>00;00;00;00</string>
																	<frame>0</frame>
																	<displayformat>DF</displayformat>
																</timecode>
																<media>
																	<video>
																		<samplecharacteristics>
																			<rate>
																				<timebase>30</timebase>
																				<ntsc>TRUE</ntsc>
																			</rate>
																			<width>1920</width>
																			<height>1080</height>
																			<anamorphic>FALSE</anamorphic>
																			<pixelaspectratio>square</pixelaspectratio>
																			<fielddominance>lower</fielddominance>
																		</samplecharacteristics>
																	</video>
																</media>
															</file>
															<logginginfo>
																<description></description>
																<scene></scene>
																<shottake></shottake>
																<lognote></lognote>
																<good></good>
																<originalvideofilename></originalvideofilename>
																<originalaudiofilename></originalaudiofilename>
															</logginginfo>
															<colorinfo>
																<lut></lut>
																<lut1></lut1>
																<asc_sop></asc_sop>
																<asc_sat></asc_sat>
																<lut2></lut2>
															</colorinfo>
															<labels>
																<label2>Rose</label2>
															</labels>
														</clipitem>
														<clipitem id="clipitem-671">
															<masterclipid>masterclip-217</masterclipid>
															<name>@ZACRYLICS</name>
															<enabled>TRUE</enabled>
															<duration>5844</duration>
															<rate>
																<timebase>30</timebase>
																<ntsc>TRUE</ntsc>
															</rate>
															<start>1406</start>
															<end>3207</end>
															<in>1406</in>
															<out>3207</out>
															<pproTicksIn>11916788083200</pproTicksIn>
															<pproTicksOut>27181464710400</pproTicksOut>
															<alphatype>straight</alphatype>
															<file id="file-186"/>
															<logginginfo>
																<description></description>
																<scene></scene>
																<shottake></shottake>
																<lognote></lognote>
																<good></good>
																<originalvideofilename></originalvideofilename>
																<originalaudiofilename></originalaudiofilename>
															</logginginfo>
															<colorinfo>
																<lut></lut>
																<lut1></lut1>
																<asc_sop></asc_sop>
																<asc_sat></asc_sat>
																<lut2></lut2>
															</colorinfo>
															<labels>
																<label2>Rose</label2>
															</labels>
														</clipitem>
														<enabled>TRUE</enabled>
														<locked>FALSE</locked>
													</track>
												</video>
												<audio>
													<numOutputChannels>2</numOutputChannels>
													<format>
														<samplecharacteristics>
															<depth>16</depth>
															<samplerate>48000</samplerate>
														</samplecharacteristics>
													</format>
													<outputs>
														<group>
															<index>1</index>
															<numchannels>1</numchannels>
															<downmix>0</downmix>
															<channel>
																<index>1</index>
															</channel>
														</group>
														<group>
															<index>2</index>
															<numchannels>1</numchannels>
															<downmix>0</downmix>
															<channel>
																<index>2</index>
															</channel>
														</group>
													</outputs>
													<track TL.SQTrackAudioKeyframeStyle="0" TL.SQTrackShy="0" TL.SQTrackExpandedHeight="25" TL.SQTrackExpanded="0" MZ.TrackTargeted="1" PannerCurrentValue="0.5" PannerIsInverted="true" PannerStartKeyframe="-91445760000000000,0.5,0,0,0,0,0,0" PannerName="Balance" currentExplodedTrackIndex="0" totalExplodedTrackCount="2" premiereTrackType="Stereo">
														<clipitem id="clipitem-672" premiereChannelType="stereo">
															<masterclipid>masterclip-219</masterclipid>
															<name>ES_Way of the Walk - Dusty Decks.wav</name>
															<enabled>TRUE</enabled>
															<duration>4058</duration>
															<rate>
																<timebase>30</timebase>
																<ntsc>TRUE</ntsc>
															</rate>
															<start>0</start>
															<end>-1</end>
															<in>0</in>
															<out>3207</out>
															<pproTicksIn>0</pproTicksIn>
															<pproTicksOut>27181464710400</pproTicksOut>
															<file id="file-188">
																<name>ES_Way of the Walk - Dusty Decks.wav</name>
																<pathurl>file://localhost/Volumes/ATM%20JR%202TB/Crafty/2023/06_June/Crafty_6-19-23/5_Music/ES_Way%20of%20the%20Walk%20-%20Dusty%20Decks.wav</pathurl>
																<rate>
																	<timebase>30</timebase>
																	<ntsc>TRUE</ntsc>
																</rate>
																<duration>4058</duration>
																<timecode>
																	<rate>
																		<timebase>30</timebase>
																		<ntsc>TRUE</ntsc>
																	</rate>
																	<string>01;56;16;00</string>
																	<frame>209070</frame>
																	<displayformat>DF</displayformat>
																</timecode>
																<media>
																	<audio>
																		<samplecharacteristics>
																			<depth>16</depth>
																			<samplerate>48000</samplerate>
																		</samplecharacteristics>
																		<channelcount>2</channelcount>
																	</audio>
																</media>
															</file>
															<sourcetrack>
																<mediatype>audio</mediatype>
																<trackindex>1</trackindex>
															</sourcetrack>
															<filter>
																<effect>
																	<name>Gain</name>
																	<effectid>{61756678, 4761696e, 4b657947}</effectid>
																	<effecttype>filter</effecttype>
																	<mediatype>audio</mediatype>
																	<parameter authoringApp="PremierePro">
																		<parameterid>Gain(dB)</parameterid>
																		<name>Gain(dB)</name>
																		<valuemin>-96</valuemin>
																		<valuemax>96</valuemax>
																		<value>-8</value>
																	</parameter>
																</effect>
															</filter>
															<link>
																<linkclipref>clipitem-672</linkclipref>
																<mediatype>audio</mediatype>
																<trackindex>1</trackindex>
																<clipindex>1</clipindex>
																<groupindex>1</groupindex>
															</link>
															<link>
																<linkclipref>clipitem-673</linkclipref>
																<mediatype>audio</mediatype>
																<trackindex>2</trackindex>
																<clipindex>1</clipindex>
																<groupindex>1</groupindex>
															</link>
															<logginginfo>
																<description></description>
																<scene></scene>
																<shottake></shottake>
																<lognote></lognote>
																<good></good>
																<originalvideofilename></originalvideofilename>
																<originalaudiofilename></originalaudiofilename>
															</logginginfo>
															<colorinfo>
																<lut></lut>
																<lut1></lut1>
																<asc_sop></asc_sop>
																<asc_sat></asc_sat>
																<lut2></lut2>
															</colorinfo>
															<labels>
																<label2>Caribbean</label2>
															</labels>
														</clipitem>
														<transitionitem>
															<start>3117</start>
															<end>3207</end>
															<pproTicksIn>26418654662400</pproTicksIn>
															<pproTicksOut>27181464710400</pproTicksOut>
															<alignment>end-black</alignment>
															<cutPointTicks>762810048000</cutPointTicks>
															<rate>
																<timebase>30</timebase>
																<ntsc>TRUE</ntsc>
															</rate>
															<effect>
																<name>Cross Fade (+3dB)</name>
																<effectid>KGAudioTransCrossFade3dB</effectid>
																<effecttype>transition</effecttype>
																<mediatype>audio</mediatype>
																<wipecode>0</wipecode>
																<wipeaccuracy>100</wipeaccuracy>
																<startratio>0</startratio>
																<endratio>1</endratio>
																<reverse>FALSE</reverse>
															</effect>
														</transitionitem>
														<enabled>TRUE</enabled>
														<locked>FALSE</locked>
														<outputchannelindex>1</outputchannelindex>
													</track>
													<track TL.SQTrackAudioKeyframeStyle="0" TL.SQTrackShy="0" TL.SQTrackExpandedHeight="25" TL.SQTrackExpanded="0" MZ.TrackTargeted="1" PannerCurrentValue="0.5" PannerIsInverted="true" PannerStartKeyframe="-91445760000000000,0.5,0,0,0,0,0,0" PannerName="Balance" currentExplodedTrackIndex="1" totalExplodedTrackCount="2" premiereTrackType="Stereo">
														<clipitem id="clipitem-673" premiereChannelType="stereo">
															<masterclipid>masterclip-219</masterclipid>
															<name>ES_Way of the Walk - Dusty Decks.wav</name>
															<enabled>TRUE</enabled>
															<duration>4058</duration>
															<rate>
																<timebase>30</timebase>
																<ntsc>TRUE</ntsc>
															</rate>
															<start>0</start>
															<end>-1</end>
															<in>0</in>
															<out>3207</out>
															<pproTicksIn>0</pproTicksIn>
															<pproTicksOut>27181464710400</pproTicksOut>
															<file id="file-188"/>
															<sourcetrack>
																<mediatype>audio</mediatype>
																<trackindex>2</trackindex>
															</sourcetrack>
															<filter>
																<effect>
																	<name>Gain</name>
																	<effectid>{61756678, 4761696e, 4b657947}</effectid>
																	<effecttype>filter</effecttype>
																	<mediatype>audio</mediatype>
																	<parameter authoringApp="PremierePro">
																		<parameterid>Gain(dB)</parameterid>
																		<name>Gain(dB)</name>
																		<valuemin>-96</valuemin>
																		<valuemax>96</valuemax>
																		<value>-8</value>
																	</parameter>
																</effect>
															</filter>
															<link>
																<linkclipref>clipitem-672</linkclipref>
																<mediatype>audio</mediatype>
																<trackindex>1</trackindex>
																<clipindex>1</clipindex>
																<groupindex>1</groupindex>
															</link>
															<link>
																<linkclipref>clipitem-673</linkclipref>
																<mediatype>audio</mediatype>
																<trackindex>2</trackindex>
																<clipindex>1</clipindex>
																<groupindex>1</groupindex>
															</link>
															<logginginfo>
																<description></description>
																<scene></scene>
																<shottake></shottake>
																<lognote></lognote>
																<good></good>
																<originalvideofilename></originalvideofilename>
																<originalaudiofilename></originalaudiofilename>
															</logginginfo>
															<colorinfo>
																<lut></lut>
																<lut1></lut1>
																<asc_sop></asc_sop>
																<asc_sat></asc_sat>
																<lut2></lut2>
															</colorinfo>
															<labels>
																<label2>Caribbean</label2>
															</labels>
														</clipitem>
														<transitionitem>
															<start>3117</start>
															<end>3207</end>
															<pproTicksIn>26418654662400</pproTicksIn>
															<pproTicksOut>27181464710400</pproTicksOut>
															<alignment>end-black</alignment>
															<cutPointTicks>762810048000</cutPointTicks>
															<rate>
																<timebase>30</timebase>
																<ntsc>TRUE</ntsc>
															</rate>
															<effect>
																<name>Cross Fade (+3dB)</name>
																<effectid>KGAudioTransCrossFade3dB</effectid>
																<effecttype>transition</effecttype>
																<mediatype>audio</mediatype>
																<wipecode>0</wipecode>
																<wipeaccuracy>100</wipeaccuracy>
																<startratio>0</startratio>
																<endratio>1</endratio>
																<reverse>FALSE</reverse>
															</effect>
														</transitionitem>
														<enabled>TRUE</enabled>
														<locked>FALSE</locked>
														<outputchannelindex>2</outputchannelindex>
													</track>
												</audio>
											</media>
											<timecode>
												<rate>
													<timebase>30</timebase>
													<ntsc>TRUE</ntsc>
												</rate>
												<string>00;00;00;00</string>
												<frame>0</frame>
												<displayformat>DF</displayformat>
											</timecode>
											<logginginfo>
												<description></description>
												<scene></scene>
												<shottake></shottake>
												<lognote></lognote>
												<good></good>
												<originalvideofilename></originalvideofilename>
												<originalaudiofilename></originalaudiofilename>
											</logginginfo>
										</sequence>
										<link>
											<linkclipref>clipitem-656</linkclipref>
											<mediatype>video</mediatype>
											<trackindex>1</trackindex>
											<clipindex>2</clipindex>
										</link>
										<link>
											<linkclipref>clipitem-680</linkclipref>
											<mediatype>audio</mediatype>
											<trackindex>1</trackindex>
											<clipindex>2</clipindex>
											<groupindex>1</groupindex>
										</link>
										<link>
											<linkclipref>clipitem-682</linkclipref>
											<mediatype>audio</mediatype>
											<trackindex>2</trackindex>
											<clipindex>2</clipindex>
											<groupindex>1</groupindex>
										</link>
										<labels>
											<label2>Forest</label2>
										</labels>
									</clipitem>
									<enabled>TRUE</enabled>
									<locked>FALSE</locked>
								</track>
								<track TL.SQTrackShy="0" TL.SQTrackExpandedHeight="25" TL.SQTrackExpanded="0" MZ.TrackTargeted="0">
									<clipitem id="clipitem-674">
										<masterclipid>masterclip-220</masterclipid>
										<name>SUMMER MAKEUP</name>
										<enabled>TRUE</enabled>
										<duration>5695</duration>
										<rate>
											<timebase>30</timebase>
											<ntsc>TRUE</ntsc>
										</rate>
										<start>0</start>
										<end>2116</end>
										<in>0</in>
										<out>2116</out>
										<pproTicksIn>0</pproTicksIn>
										<pproTicksOut>17934511795200</pproTicksOut>
										<alphatype>straight</alphatype>
										<pixelaspectratio>square</pixelaspectratio>
										<anamorphic>FALSE</anamorphic>
										<file id="file-189">
											<name>CRAFTY_L3RD_01_JL_V03/CRAFTY_L3RD_01_JL_V03.aep</name>
											<pathurl>file://localhost/Volumes/ATM%20JR%202TB/Crafty/Master%20Assets%20/Lower%20Thirds/CRAFTY_L3RD_01_JL_V03.aep</pathurl>
											<rate>
												<timebase>30</timebase>
												<ntsc>FALSE</ntsc>
											</rate>
											<duration>5701</duration>
											<timecode>
												<rate>
													<timebase>30</timebase>
													<ntsc>FALSE</ntsc>
												</rate>
												<string>00:00:00:00</string>
												<frame>0</frame>
												<displayformat>NDF</displayformat>
											</timecode>
											<media>
												<video>
													<samplecharacteristics>
														<rate>
															<timebase>30</timebase>
															<ntsc>FALSE</ntsc>
														</rate>
														<width>1920</width>
														<height>1080</height>
														<anamorphic>FALSE</anamorphic>
														<pixelaspectratio>square</pixelaspectratio>
														<fielddominance>lower</fielddominance>
													</samplecharacteristics>
												</video>
											</media>
										</file>
										<logginginfo>
											<description></description>
											<scene></scene>
											<shottake></shottake>
											<lognote></lognote>
											<good></good>
											<originalvideofilename></originalvideofilename>
											<originalaudiofilename></originalaudiofilename>
										</logginginfo>
										<colorinfo>
											<lut></lut>
											<lut1></lut1>
											<asc_sop></asc_sop>
											<asc_sat></asc_sat>
											<lut2></lut2>
										</colorinfo>
										<labels>
											<label2>Rose</label2>
										</labels>
									</clipitem>
									<clipitem id="clipitem-675">
										<masterclipid>masterclip-221</masterclipid>
										<name>PERFECTLY PINK NAILS</name>
										<enabled>TRUE</enabled>
										<duration>5695</duration>
										<rate>
											<timebase>30</timebase>
											<ntsc>TRUE</ntsc>
										</rate>
										<start>2211</start>
										<end>5396</end>
										<in>0</in>
										<out>3185</out>
										<pproTicksIn>0</pproTicksIn>
										<pproTicksOut>26995000032000</pproTicksOut>
										<alphatype>straight</alphatype>
										<pixelaspectratio>square</pixelaspectratio>
										<anamorphic>FALSE</anamorphic>
										<file id="file-190">
											<name>CRAFTY_L3RD_01_JL_V03/CRAFTY_L3RD_01_JL_V03.aep</name>
											<pathurl>file://localhost/Volumes/ATM%20JR%202TB/Crafty/Master%20Assets%20/Lower%20Thirds/CRAFTY_L3RD_01_JL_V03.aep</pathurl>
											<rate>
												<timebase>30</timebase>
												<ntsc>FALSE</ntsc>
											</rate>
											<duration>5701</duration>
											<timecode>
												<rate>
													<timebase>30</timebase>
													<ntsc>FALSE</ntsc>
												</rate>
												<string>00:00:00:00</string>
												<frame>0</frame>
												<displayformat>NDF</displayformat>
											</timecode>
											<media>
												<video>
													<samplecharacteristics>
														<rate>
															<timebase>30</timebase>
															<ntsc>FALSE</ntsc>
														</rate>
														<width>1920</width>
														<height>1080</height>
														<anamorphic>FALSE</anamorphic>
														<pixelaspectratio>square</pixelaspectratio>
														<fielddominance>lower</fielddominance>
													</samplecharacteristics>
												</video>
											</media>
										</file>
										<logginginfo>
											<description></description>
											<scene></scene>
											<shottake></shottake>
											<lognote></lognote>
											<good></good>
											<originalvideofilename></originalvideofilename>
											<originalaudiofilename></originalaudiofilename>
										</logginginfo>
										<colorinfo>
											<lut></lut>
											<lut1></lut1>
											<asc_sop></asc_sop>
											<asc_sat></asc_sat>
											<lut2></lut2>
										</colorinfo>
										<labels>
											<label2>Rose</label2>
										</labels>
									</clipitem>
									<enabled>TRUE</enabled>
									<locked>FALSE</locked>
								</track>
								<track TL.SQTrackShy="0" TL.SQTrackExpandedHeight="25" TL.SQTrackExpanded="0" MZ.TrackTargeted="0">
									<clipitem id="clipitem-676">
										<masterclipid>masterclip-102</masterclipid>
										<name>ATM_logo_channels_right-2 (3).png</name>
										<enabled>TRUE</enabled>
										<duration>1294705</duration>
										<rate>
											<timebase>30</timebase>
											<ntsc>TRUE</ntsc>
										</rate>
										<start>0</start>
										<end>5396</end>
										<in>107892</in>
										<out>113288</out>
										<pproTicksIn>914456685542400</pproTicksIn>
										<pproTicksOut>960191385753600</pproTicksOut>
										<alphatype>straight</alphatype>
										<file id="file-89"/>
										<logginginfo>
											<description></description>
											<scene></scene>
											<shottake></shottake>
											<lognote></lognote>
											<good></good>
											<originalvideofilename></originalvideofilename>
											<originalaudiofilename></originalaudiofilename>
										</logginginfo>
										<colorinfo>
											<lut></lut>
											<lut1></lut1>
											<asc_sop></asc_sop>
											<asc_sat></asc_sat>
											<lut2></lut2>
										</colorinfo>
										<labels>
											<label2>Lavender</label2>
										</labels>
									</clipitem>
									<enabled>TRUE</enabled>
									<locked>FALSE</locked>
								</track>
								<track TL.SQTrackShy="0" TL.SQTrackExpandedHeight="25" TL.SQTrackExpanded="0" MZ.TrackTargeted="0">
									<clipitem id="clipitem-677">
										<masterclipid>masterclip-117</masterclipid>
										<name>CRAFTY_TRAN01_JL_V01.mov</name>
										<enabled>TRUE</enabled>
										<duration>120</duration>
										<rate>
											<timebase>30</timebase>
											<ntsc>TRUE</ntsc>
										</rate>
										<start>2091</start>
										<end>2211</end>
										<in>0</in>
										<out>120</out>
										<pproTicksIn>0</pproTicksIn>
										<pproTicksOut>1017080064000</pproTicksOut>
										<alphatype>none</alphatype>
										<file id="file-102"/>
										<link>
											<linkclipref>clipitem-677</linkclipref>
											<mediatype>video</mediatype>
											<trackindex>4</trackindex>
											<clipindex>1</clipindex>
										</link>
										<link>
											<linkclipref>clipitem-683</linkclipref>
											<mediatype>audio</mediatype>
											<trackindex>3</trackindex>
											<clipindex>1</clipindex>
											<groupindex>1</groupindex>
										</link>
										<link>
											<linkclipref>clipitem-685</linkclipref>
											<mediatype>audio</mediatype>
											<trackindex>4</trackindex>
											<clipindex>1</clipindex>
											<groupindex>1</groupindex>
										</link>
										<logginginfo>
											<description></description>
											<scene></scene>
											<shottake></shottake>
											<lognote></lognote>
											<good></good>
											<originalvideofilename></originalvideofilename>
											<originalaudiofilename></originalaudiofilename>
										</logginginfo>
										<colorinfo>
											<lut></lut>
											<lut1></lut1>
											<asc_sop></asc_sop>
											<asc_sat></asc_sat>
											<lut2></lut2>
										</colorinfo>
										<labels>
											<label2>Iris</label2>
										</labels>
									</clipitem>
									<clipitem id="clipitem-678">
										<masterclipid>masterclip-103</masterclipid>
										<name>CRAFTY_TRAN02_JL_V01.mov</name>
										<enabled>TRUE</enabled>
										<duration>120</duration>
										<rate>
											<timebase>30</timebase>
											<ntsc>TRUE</ntsc>
										</rate>
										<start>5378</start>
										<end>5498</end>
										<in>0</in>
										<out>120</out>
										<pproTicksIn>0</pproTicksIn>
										<pproTicksOut>1017080064000</pproTicksOut>
										<alphatype>none</alphatype>
										<file id="file-90"/>
										<link>
											<linkclipref>clipitem-678</linkclipref>
											<mediatype>video</mediatype>
											<trackindex>4</trackindex>
											<clipindex>2</clipindex>
										</link>
										<link>
											<linkclipref>clipitem-684</linkclipref>
											<mediatype>audio</mediatype>
											<trackindex>3</trackindex>
											<clipindex>2</clipindex>
											<groupindex>1</groupindex>
										</link>
										<link>
											<linkclipref>clipitem-686</linkclipref>
											<mediatype>audio</mediatype>
											<trackindex>4</trackindex>
											<clipindex>2</clipindex>
											<groupindex>1</groupindex>
										</link>
										<logginginfo>
											<description></description>
											<scene></scene>
											<shottake></shottake>
											<lognote></lognote>
											<good></good>
											<originalvideofilename></originalvideofilename>
											<originalaudiofilename></originalaudiofilename>
										</logginginfo>
										<colorinfo>
											<lut></lut>
											<lut1></lut1>
											<asc_sop></asc_sop>
											<asc_sat></asc_sat>
											<lut2></lut2>
										</colorinfo>
										<labels>
											<label2>Iris</label2>
										</labels>
									</clipitem>
									<enabled>TRUE</enabled>
									<locked>FALSE</locked>
								</track>
							</video>
							<audio>
								<numOutputChannels>2</numOutputChannels>
								<format>
									<samplecharacteristics>
										<depth>16</depth>
										<samplerate>48000</samplerate>
									</samplecharacteristics>
								</format>
								<outputs>
									<group>
										<index>1</index>
										<numchannels>1</numchannels>
										<downmix>0</downmix>
										<channel>
											<index>1</index>
										</channel>
									</group>
									<group>
										<index>2</index>
										<numchannels>1</numchannels>
										<downmix>0</downmix>
										<channel>
											<index>2</index>
										</channel>
									</group>
								</outputs>
								<track TL.SQTrackAudioKeyframeStyle="0" TL.SQTrackShy="0" TL.SQTrackExpandedHeight="82" TL.SQTrackExpanded="0" MZ.TrackTargeted="1" PannerCurrentValue="0.5" PannerIsInverted="true" PannerStartKeyframe="-91445760000000000,0.5,0,0,0,0,0,0" PannerName="Balance" currentExplodedTrackIndex="0" totalExplodedTrackCount="2" premiereTrackType="Stereo">
									<clipitem id="clipitem-679" premiereChannelType="stereo">
										<masterclipid>masterclip-204</masterclipid>
										<name>BEAUTY_SUMMERMAKEUP_1</name>
										<enabled>TRUE</enabled>
										<duration>2116</duration>
										<rate>
											<timebase>30</timebase>
											<ntsc>TRUE</ntsc>
										</rate>
										<start>0</start>
										<end>2116</end>
										<in>0</in>
										<out>2116</out>
										<pproTicksIn>0</pproTicksIn>
										<pproTicksOut>17934511795200</pproTicksOut>
										<sequence id="sequence-45"/>
										<sourcetrack>
											<mediatype>audio</mediatype>
											<trackindex>0</trackindex>
										</sourcetrack>
										<link>
											<linkclipref>clipitem-640</linkclipref>
											<mediatype>video</mediatype>
											<trackindex>1</trackindex>
											<clipindex>1</clipindex>
										</link>
										<link>
											<linkclipref>clipitem-679</linkclipref>
											<mediatype>audio</mediatype>
											<trackindex>1</trackindex>
											<clipindex>1</clipindex>
											<groupindex>1</groupindex>
										</link>
										<link>
											<linkclipref>clipitem-681</linkclipref>
											<mediatype>audio</mediatype>
											<trackindex>2</trackindex>
											<clipindex>1</clipindex>
											<groupindex>1</groupindex>
										</link>
										<labels>
											<label2>Forest</label2>
										</labels>
									</clipitem>
									<clipitem id="clipitem-680" premiereChannelType="stereo">
										<masterclipid>masterclip-212</masterclipid>
										<name>BEAUTY_PERFECTLYPINKNAILS_2</name>
										<enabled>TRUE</enabled>
										<duration>3207</duration>
										<rate>
											<timebase>30</timebase>
											<ntsc>TRUE</ntsc>
										</rate>
										<start>2189</start>
										<end>5396</end>
										<in>0</in>
										<out>3207</out>
										<pproTicksIn>0</pproTicksIn>
										<pproTicksOut>27181464710400</pproTicksOut>
										<sequence id="sequence-46"/>
										<sourcetrack>
											<mediatype>audio</mediatype>
											<trackindex>0</trackindex>
										</sourcetrack>
										<link>
											<linkclipref>clipitem-656</linkclipref>
											<mediatype>video</mediatype>
											<trackindex>1</trackindex>
											<clipindex>2</clipindex>
										</link>
										<link>
											<linkclipref>clipitem-680</linkclipref>
											<mediatype>audio</mediatype>
											<trackindex>1</trackindex>
											<clipindex>2</clipindex>
											<groupindex>1</groupindex>
										</link>
										<link>
											<linkclipref>clipitem-682</linkclipref>
											<mediatype>audio</mediatype>
											<trackindex>2</trackindex>
											<clipindex>2</clipindex>
											<groupindex>1</groupindex>
										</link>
										<labels>
											<label2>Forest</label2>
										</labels>
									</clipitem>
									<enabled>TRUE</enabled>
									<locked>FALSE</locked>
									<outputchannelindex>1</outputchannelindex>
								</track>
								<track TL.SQTrackAudioKeyframeStyle="0" TL.SQTrackShy="0" TL.SQTrackExpandedHeight="82" TL.SQTrackExpanded="0" MZ.TrackTargeted="1" PannerCurrentValue="0.5" PannerIsInverted="true" PannerStartKeyframe="-91445760000000000,0.5,0,0,0,0,0,0" PannerName="Balance" currentExplodedTrackIndex="1" totalExplodedTrackCount="2" premiereTrackType="Stereo">
									<clipitem id="clipitem-681" premiereChannelType="stereo">
										<masterclipid>masterclip-204</masterclipid>
										<name>BEAUTY_SUMMERMAKEUP_1</name>
										<enabled>TRUE</enabled>
										<duration>2116</duration>
										<rate>
											<timebase>30</timebase>
											<ntsc>TRUE</ntsc>
										</rate>
										<start>0</start>
										<end>2116</end>
										<in>0</in>
										<out>2116</out>
										<pproTicksIn>0</pproTicksIn>
										<pproTicksOut>17934511795200</pproTicksOut>
										<sequence id="sequence-45"/>
										<sourcetrack>
											<mediatype>audio</mediatype>
											<trackindex>1</trackindex>
										</sourcetrack>
										<link>
											<linkclipref>clipitem-640</linkclipref>
											<mediatype>video</mediatype>
											<trackindex>1</trackindex>
											<clipindex>1</clipindex>
										</link>
										<link>
											<linkclipref>clipitem-679</linkclipref>
											<mediatype>audio</mediatype>
											<trackindex>1</trackindex>
											<clipindex>1</clipindex>
											<groupindex>1</groupindex>
										</link>
										<link>
											<linkclipref>clipitem-681</linkclipref>
											<mediatype>audio</mediatype>
											<trackindex>2</trackindex>
											<clipindex>1</clipindex>
											<groupindex>1</groupindex>
										</link>
										<labels>
											<label2>Forest</label2>
										</labels>
									</clipitem>
									<clipitem id="clipitem-682" premiereChannelType="stereo">
										<masterclipid>masterclip-212</masterclipid>
										<name>BEAUTY_PERFECTLYPINKNAILS_2</name>
										<enabled>TRUE</enabled>
										<duration>3207</duration>
										<rate>
											<timebase>30</timebase>
											<ntsc>TRUE</ntsc>
										</rate>
										<start>2189</start>
										<end>5396</end>
										<in>0</in>
										<out>3207</out>
										<pproTicksIn>0</pproTicksIn>
										<pproTicksOut>27181464710400</pproTicksOut>
										<sequence id="sequence-46"/>
										<sourcetrack>
											<mediatype>audio</mediatype>
											<trackindex>1</trackindex>
										</sourcetrack>
										<link>
											<linkclipref>clipitem-656</linkclipref>
											<mediatype>video</mediatype>
											<trackindex>1</trackindex>
											<clipindex>2</clipindex>
										</link>
										<link>
											<linkclipref>clipitem-680</linkclipref>
											<mediatype>audio</mediatype>
											<trackindex>1</trackindex>
											<clipindex>2</clipindex>
											<groupindex>1</groupindex>
										</link>
										<link>
											<linkclipref>clipitem-682</linkclipref>
											<mediatype>audio</mediatype>
											<trackindex>2</trackindex>
											<clipindex>2</clipindex>
											<groupindex>1</groupindex>
										</link>
										<labels>
											<label2>Forest</label2>
										</labels>
									</clipitem>
									<enabled>TRUE</enabled>
									<locked>FALSE</locked>
									<outputchannelindex>2</outputchannelindex>
								</track>
								<track TL.SQTrackAudioKeyframeStyle="0" TL.SQTrackShy="0" TL.SQTrackExpandedHeight="82" TL.SQTrackExpanded="0" MZ.TrackTargeted="1" PannerCurrentValue="0.5" PannerIsInverted="true" PannerStartKeyframe="-91445760000000000,0.5,0,0,0,0,0,0" PannerName="Balance" currentExplodedTrackIndex="0" totalExplodedTrackCount="2" premiereTrackType="Stereo">
									<clipitem id="clipitem-683" premiereChannelType="stereo">
										<masterclipid>masterclip-117</masterclipid>
										<name>CRAFTY_TRAN01_JL_V01.mov</name>
										<enabled>TRUE</enabled>
										<duration>120</duration>
										<rate>
											<timebase>30</timebase>
											<ntsc>TRUE</ntsc>
										</rate>
										<start>2091</start>
										<end>2211</end>
										<in>0</in>
										<out>120</out>
										<pproTicksIn>0</pproTicksIn>
										<pproTicksOut>1017080064000</pproTicksOut>
										<file id="file-102"/>
										<sourcetrack>
											<mediatype>audio</mediatype>
											<trackindex>1</trackindex>
										</sourcetrack>
										<link>
											<linkclipref>clipitem-677</linkclipref>
											<mediatype>video</mediatype>
											<trackindex>4</trackindex>
											<clipindex>1</clipindex>
										</link>
										<link>
											<linkclipref>clipitem-683</linkclipref>
											<mediatype>audio</mediatype>
											<trackindex>3</trackindex>
											<clipindex>1</clipindex>
											<groupindex>1</groupindex>
										</link>
										<link>
											<linkclipref>clipitem-685</linkclipref>
											<mediatype>audio</mediatype>
											<trackindex>4</trackindex>
											<clipindex>1</clipindex>
											<groupindex>1</groupindex>
										</link>
										<logginginfo>
											<description></description>
											<scene></scene>
											<shottake></shottake>
											<lognote></lognote>
											<good></good>
											<originalvideofilename></originalvideofilename>
											<originalaudiofilename></originalaudiofilename>
										</logginginfo>
										<colorinfo>
											<lut></lut>
											<lut1></lut1>
											<asc_sop></asc_sop>
											<asc_sat></asc_sat>
											<lut2></lut2>
										</colorinfo>
										<labels>
											<label2>Iris</label2>
										</labels>
									</clipitem>
									<clipitem id="clipitem-684" premiereChannelType="stereo">
										<masterclipid>masterclip-103</masterclipid>
										<name>CRAFTY_TRAN02_JL_V01.mov</name>
										<enabled>TRUE</enabled>
										<duration>120</duration>
										<rate>
											<timebase>30</timebase>
											<ntsc>TRUE</ntsc>
										</rate>
										<start>5378</start>
										<end>5498</end>
										<in>0</in>
										<out>120</out>
										<pproTicksIn>0</pproTicksIn>
										<pproTicksOut>1017080064000</pproTicksOut>
										<file id="file-90"/>
										<sourcetrack>
											<mediatype>audio</mediatype>
											<trackindex>1</trackindex>
										</sourcetrack>
										<link>
											<linkclipref>clipitem-678</linkclipref>
											<mediatype>video</mediatype>
											<trackindex>4</trackindex>
											<clipindex>2</clipindex>
										</link>
										<link>
											<linkclipref>clipitem-684</linkclipref>
											<mediatype>audio</mediatype>
											<trackindex>3</trackindex>
											<clipindex>2</clipindex>
											<groupindex>1</groupindex>
										</link>
										<link>
											<linkclipref>clipitem-686</linkclipref>
											<mediatype>audio</mediatype>
											<trackindex>4</trackindex>
											<clipindex>2</clipindex>
											<groupindex>1</groupindex>
										</link>
										<logginginfo>
											<description></description>
											<scene></scene>
											<shottake></shottake>
											<lognote></lognote>
											<good></good>
											<originalvideofilename></originalvideofilename>
											<originalaudiofilename></originalaudiofilename>
										</logginginfo>
										<colorinfo>
											<lut></lut>
											<lut1></lut1>
											<asc_sop></asc_sop>
											<asc_sat></asc_sat>
											<lut2></lut2>
										</colorinfo>
										<labels>
											<label2>Iris</label2>
										</labels>
									</clipitem>
									<enabled>TRUE</enabled>
									<locked>FALSE</locked>
									<outputchannelindex>1</outputchannelindex>
								</track>
								<track TL.SQTrackAudioKeyframeStyle="0" TL.SQTrackShy="0" TL.SQTrackExpandedHeight="82" TL.SQTrackExpanded="0" MZ.TrackTargeted="1" PannerCurrentValue="0.5" PannerIsInverted="true" PannerStartKeyframe="-91445760000000000,0.5,0,0,0,0,0,0" PannerName="Balance" currentExplodedTrackIndex="1" totalExplodedTrackCount="2" premiereTrackType="Stereo">
									<clipitem id="clipitem-685" premiereChannelType="stereo">
										<masterclipid>masterclip-117</masterclipid>
										<name>CRAFTY_TRAN01_JL_V01.mov</name>
										<enabled>TRUE</enabled>
										<duration>120</duration>
										<rate>
											<timebase>30</timebase>
											<ntsc>TRUE</ntsc>
										</rate>
										<start>2091</start>
										<end>2211</end>
										<in>0</in>
										<out>120</out>
										<pproTicksIn>0</pproTicksIn>
										<pproTicksOut>1017080064000</pproTicksOut>
										<file id="file-102"/>
										<sourcetrack>
											<mediatype>audio</mediatype>
											<trackindex>2</trackindex>
										</sourcetrack>
										<link>
											<linkclipref>clipitem-677</linkclipref>
											<mediatype>video</mediatype>
											<trackindex>4</trackindex>
											<clipindex>1</clipindex>
										</link>
										<link>
											<linkclipref>clipitem-683</linkclipref>
											<mediatype>audio</mediatype>
											<trackindex>3</trackindex>
											<clipindex>1</clipindex>
											<groupindex>1</groupindex>
										</link>
										<link>
											<linkclipref>clipitem-685</linkclipref>
											<mediatype>audio</mediatype>
											<trackindex>4</trackindex>
											<clipindex>1</clipindex>
											<groupindex>1</groupindex>
										</link>
										<logginginfo>
											<description></description>
											<scene></scene>
											<shottake></shottake>
											<lognote></lognote>
											<good></good>
											<originalvideofilename></originalvideofilename>
											<originalaudiofilename></originalaudiofilename>
										</logginginfo>
										<colorinfo>
											<lut></lut>
											<lut1></lut1>
											<asc_sop></asc_sop>
											<asc_sat></asc_sat>
											<lut2></lut2>
										</colorinfo>
										<labels>
											<label2>Iris</label2>
										</labels>
									</clipitem>
									<clipitem id="clipitem-686" premiereChannelType="stereo">
										<masterclipid>masterclip-103</masterclipid>
										<name>CRAFTY_TRAN02_JL_V01.mov</name>
										<enabled>TRUE</enabled>
										<duration>120</duration>
										<rate>
											<timebase>30</timebase>
											<ntsc>TRUE</ntsc>
										</rate>
										<start>5378</start>
										<end>5498</end>
										<in>0</in>
										<out>120</out>
										<pproTicksIn>0</pproTicksIn>
										<pproTicksOut>1017080064000</pproTicksOut>
										<file id="file-90"/>
										<sourcetrack>
											<mediatype>audio</mediatype>
											<trackindex>2</trackindex>
										</sourcetrack>
										<link>
											<linkclipref>clipitem-678</linkclipref>
											<mediatype>video</mediatype>
											<trackindex>4</trackindex>
											<clipindex>2</clipindex>
										</link>
										<link>
											<linkclipref>clipitem-684</linkclipref>
											<mediatype>audio</mediatype>
											<trackindex>3</trackindex>
											<clipindex>2</clipindex>
											<groupindex>1</groupindex>
										</link>
										<link>
											<linkclipref>clipitem-686</linkclipref>
											<mediatype>audio</mediatype>
											<trackindex>4</trackindex>
											<clipindex>2</clipindex>
											<groupindex>1</groupindex>
										</link>
										<logginginfo>
											<description></description>
											<scene></scene>
											<shottake></shottake>
											<lognote></lognote>
											<good></good>
											<originalvideofilename></originalvideofilename>
											<originalaudiofilename></originalaudiofilename>
										</logginginfo>
										<colorinfo>
											<lut></lut>
											<lut1></lut1>
											<asc_sop></asc_sop>
											<asc_sat></asc_sat>
											<lut2></lut2>
										</colorinfo>
										<labels>
											<label2>Iris</label2>
										</labels>
									</clipitem>
									<enabled>TRUE</enabled>
									<locked>FALSE</locked>
									<outputchannelindex>2</outputchannelindex>
								</track>
								<track TL.SQTrackAudioKeyframeStyle="0" TL.SQTrackShy="0" TL.SQTrackExpandedHeight="82" TL.SQTrackExpanded="0" MZ.TrackTargeted="1" PannerCurrentValue="0.5" PannerIsInverted="true" PannerStartKeyframe="-91445760000000000,0.5,0,0,0,0,0,0" PannerName="Balance" currentExplodedTrackIndex="0" totalExplodedTrackCount="2" premiereTrackType="Stereo">
									<enabled>TRUE</enabled>
									<locked>FALSE</locked>
									<outputchannelindex>1</outputchannelindex>
								</track>
								<track TL.SQTrackAudioKeyframeStyle="0" TL.SQTrackShy="0" TL.SQTrackExpandedHeight="82" TL.SQTrackExpanded="0" MZ.TrackTargeted="1" PannerCurrentValue="0.5" PannerIsInverted="true" PannerStartKeyframe="-91445760000000000,0.5,0,0,0,0,0,0" PannerName="Balance" currentExplodedTrackIndex="1" totalExplodedTrackCount="2" premiereTrackType="Stereo">
									<enabled>TRUE</enabled>
									<locked>FALSE</locked>
									<outputchannelindex>2</outputchannelindex>
								</track>
								<track TL.SQTrackAudioKeyframeStyle="0" TL.SQTrackShy="0" TL.SQTrackExpandedHeight="25" TL.SQTrackExpanded="0" MZ.TrackTargeted="0" PannerCurrentValue="0.5" PannerIsInverted="true" PannerStartKeyframe="-91445760000000000,0.5,0,0,0,0,0,0" PannerName="Balance" currentExplodedTrackIndex="0" totalExplodedTrackCount="2" premiereTrackType="Stereo">
									<enabled>TRUE</enabled>
									<locked>FALSE</locked>
									<outputchannelindex>1</outputchannelindex>
								</track>
								<track TL.SQTrackAudioKeyframeStyle="0" TL.SQTrackShy="0" TL.SQTrackExpandedHeight="25" TL.SQTrackExpanded="0" MZ.TrackTargeted="0" PannerCurrentValue="0.5" PannerIsInverted="true" PannerStartKeyframe="-91445760000000000,0.5,0,0,0,0,0,0" PannerName="Balance" currentExplodedTrackIndex="1" totalExplodedTrackCount="2" premiereTrackType="Stereo">
									<enabled>TRUE</enabled>
									<locked>FALSE</locked>
									<outputchannelindex>2</outputchannelindex>
								</track>
							</audio>
						</media>
						<timecode>
							<rate>
								<timebase>30</timebase>
								<ntsc>TRUE</ntsc>
							</rate>
							<string>00;00;00;00</string>
							<frame>0</frame>
							<displayformat>DF</displayformat>
						</timecode>
						<labels>
							<label2>Forest</label2>
						</labels>
						<logginginfo>
							<description></description>
							<scene></scene>
							<shottake></shottake>
							<lognote></lognote>
							<good></good>
							<originalvideofilename></originalvideofilename>
							<originalaudiofilename></originalaudiofilename>
						</logginginfo>
					</sequence>
				</children>
			</bin>
			<bin>
				<name>1_Raw Footage</name>
				<labels>
					<label2>Mango</label2>
				</labels>
				<children>
					<bin>
						<name>anime rug</name>
						<labels>
							<label2>Mango</label2>
						</labels>
						<children>
							<clip id="masterclip-179" explodedTracks="true">
								<uuid>0ebf8daa-e739-49b2-83ab-c058c6a068e6</uuid>
								<masterclipid>masterclip-179</masterclipid>
								<ismasterclip>TRUE</ismasterclip>
								<duration>1488</duration>
								<rate>
									<timebase>24</timebase>
									<ntsc>FALSE</ntsc>
								</rate>
								<name>(Carpetnerd)_#fyp #yuyuhakusho #anime #asmr_YW1w6rd2qhA_YT.mp4</name>
								<media>
									<video>
										<track>
											<clipitem id="clipitem-687">
												<masterclipid>masterclip-179</masterclipid>
												<name>(Carpetnerd)_#fyp #yuyuhakusho #anime #asmr_YW1w6rd2qhA_YT.mp4</name>
												<rate>
													<timebase>24</timebase>
													<ntsc>FALSE</ntsc>
												</rate>
												<alphatype>none</alphatype>
												<file id="file-153"/>
												<link>
													<linkclipref>clipitem-687</linkclipref>
													<mediatype>video</mediatype>
													<trackindex>1</trackindex>
													<clipindex>1</clipindex>
												</link>
												<link>
													<linkclipref>clipitem-688</linkclipref>
													<mediatype>audio</mediatype>
													<trackindex>1</trackindex>
													<clipindex>1</clipindex>
													<groupindex>1</groupindex>
												</link>
												<link>
													<linkclipref>clipitem-689</linkclipref>
													<mediatype>audio</mediatype>
													<trackindex>2</trackindex>
													<clipindex>1</clipindex>
													<groupindex>1</groupindex>
												</link>
											</clipitem>
										</track>
									</video>
									<audio>
										<track>
											<clipitem id="clipitem-688">
												<masterclipid>masterclip-179</masterclipid>
												<name>(Carpetnerd)_#fyp #yuyuhakusho #anime #asmr_YW1w6rd2qhA_YT.mp4</name>
												<rate>
													<timebase>24</timebase>
													<ntsc>FALSE</ntsc>
												</rate>
												<file id="file-153"/>
												<sourcetrack>
													<mediatype>audio</mediatype>
													<trackindex>1</trackindex>
												</sourcetrack>
												<link>
													<linkclipref>clipitem-687</linkclipref>
													<mediatype>video</mediatype>
													<trackindex>1</trackindex>
													<clipindex>1</clipindex>
												</link>
												<link>
													<linkclipref>clipitem-688</linkclipref>
													<mediatype>audio</mediatype>
													<trackindex>1</trackindex>
													<clipindex>1</clipindex>
													<groupindex>1</groupindex>
												</link>
												<link>
													<linkclipref>clipitem-689</linkclipref>
													<mediatype>audio</mediatype>
													<trackindex>2</trackindex>
													<clipindex>1</clipindex>
													<groupindex>1</groupindex>
												</link>
											</clipitem>
										</track>
										<track>
											<clipitem id="clipitem-689">
												<masterclipid>masterclip-179</masterclipid>
												<name>(Carpetnerd)_#fyp #yuyuhakusho #anime #asmr_YW1w6rd2qhA_YT.mp4</name>
												<rate>
													<timebase>24</timebase>
													<ntsc>FALSE</ntsc>
												</rate>
												<file id="file-153"/>
												<sourcetrack>
													<mediatype>audio</mediatype>
													<trackindex>2</trackindex>
												</sourcetrack>
												<link>
													<linkclipref>clipitem-687</linkclipref>
													<mediatype>video</mediatype>
													<trackindex>1</trackindex>
													<clipindex>1</clipindex>
												</link>
												<link>
													<linkclipref>clipitem-688</linkclipref>
													<mediatype>audio</mediatype>
													<trackindex>1</trackindex>
													<clipindex>1</clipindex>
													<groupindex>1</groupindex>
												</link>
												<link>
													<linkclipref>clipitem-689</linkclipref>
													<mediatype>audio</mediatype>
													<trackindex>2</trackindex>
													<clipindex>1</clipindex>
													<groupindex>1</groupindex>
												</link>
											</clipitem>
										</track>
									</audio>
								</media>
								<logginginfo>
									<description></description>
									<scene></scene>
									<shottake></shottake>
									<lognote>https://www.youtube.com/watch?v=YW1w6rd2qhA</lognote>
									<good></good>
									<originalvideofilename></originalvideofilename>
									<originalaudiofilename></originalaudiofilename>
								</logginginfo>
								<colorinfo>
									<lut></lut>
									<lut1></lut1>
									<asc_sop></asc_sop>
									<asc_sat></asc_sat>
									<lut2></lut2>
								</colorinfo>
								<labels>
									<label2>Iris</label2>
								</labels>
							</clip>
							<clip id="masterclip-181" explodedTracks="true">
								<uuid>0c5e880b-469a-41d2-8bea-f512500d9304</uuid>
								<masterclipid>masterclip-181</masterclipid>
								<ismasterclip>TRUE</ismasterclip>
								<duration>1673</duration>
								<rate>
									<timebase>30</timebase>
									<ntsc>FALSE</ntsc>
								</rate>
								<name>(Carpetnerd)_#gengar #pokemon #nintendo #rug #craft #diy #anime #pokemongo_Nj39PfEE2uU_YT.mp4</name>
								<media>
									<video>
										<track>
											<clipitem id="clipitem-690">
												<masterclipid>masterclip-181</masterclipid>
												<name>(Carpetnerd)_#gengar #pokemon #nintendo #rug #craft #diy #anime #pokemongo_Nj39PfEE2uU_YT.mp4</name>
												<rate>
													<timebase>30</timebase>
													<ntsc>FALSE</ntsc>
												</rate>
												<alphatype>none</alphatype>
												<file id="file-155"/>
												<link>
													<linkclipref>clipitem-690</linkclipref>
													<mediatype>video</mediatype>
													<trackindex>1</trackindex>
													<clipindex>1</clipindex>
												</link>
												<link>
													<linkclipref>clipitem-691</linkclipref>
													<mediatype>audio</mediatype>
													<trackindex>1</trackindex>
													<clipindex>1</clipindex>
													<groupindex>1</groupindex>
												</link>
												<link>
													<linkclipref>clipitem-692</linkclipref>
													<mediatype>audio</mediatype>
													<trackindex>2</trackindex>
													<clipindex>1</clipindex>
													<groupindex>1</groupindex>
												</link>
											</clipitem>
										</track>
									</video>
									<audio>
										<track>
											<clipitem id="clipitem-691">
												<masterclipid>masterclip-181</masterclipid>
												<name>(Carpetnerd)_#gengar #pokemon #nintendo #rug #craft #diy #anime #pokemongo_Nj39PfEE2uU_YT.mp4</name>
												<rate>
													<timebase>30</timebase>
													<ntsc>FALSE</ntsc>
												</rate>
												<file id="file-155"/>
												<sourcetrack>
													<mediatype>audio</mediatype>
													<trackindex>1</trackindex>
												</sourcetrack>
												<link>
													<linkclipref>clipitem-690</linkclipref>
													<mediatype>video</mediatype>
													<trackindex>1</trackindex>
													<clipindex>1</clipindex>
												</link>
												<link>
													<linkclipref>clipitem-691</linkclipref>
													<mediatype>audio</mediatype>
													<trackindex>1</trackindex>
													<clipindex>1</clipindex>
													<groupindex>1</groupindex>
												</link>
												<link>
													<linkclipref>clipitem-692</linkclipref>
													<mediatype>audio</mediatype>
													<trackindex>2</trackindex>
													<clipindex>1</clipindex>
													<groupindex>1</groupindex>
												</link>
											</clipitem>
										</track>
										<track>
											<clipitem id="clipitem-692">
												<masterclipid>masterclip-181</masterclipid>
												<name>(Carpetnerd)_#gengar #pokemon #nintendo #rug #craft #diy #anime #pokemongo_Nj39PfEE2uU_YT.mp4</name>
												<rate>
													<timebase>30</timebase>
													<ntsc>FALSE</ntsc>
												</rate>
												<file id="file-155"/>
												<sourcetrack>
													<mediatype>audio</mediatype>
													<trackindex>2</trackindex>
												</sourcetrack>
												<link>
													<linkclipref>clipitem-690</linkclipref>
													<mediatype>video</mediatype>
													<trackindex>1</trackindex>
													<clipindex>1</clipindex>
												</link>
												<link>
													<linkclipref>clipitem-691</linkclipref>
													<mediatype>audio</mediatype>
													<trackindex>1</trackindex>
													<clipindex>1</clipindex>
													<groupindex>1</groupindex>
												</link>
												<link>
													<linkclipref>clipitem-692</linkclipref>
													<mediatype>audio</mediatype>
													<trackindex>2</trackindex>
													<clipindex>1</clipindex>
													<groupindex>1</groupindex>
												</link>
											</clipitem>
										</track>
									</audio>
								</media>
								<logginginfo>
									<description></description>
									<scene></scene>
									<shottake></shottake>
									<lognote></lognote>
									<good></good>
									<originalvideofilename></originalvideofilename>
									<originalaudiofilename></originalaudiofilename>
								</logginginfo>
								<colorinfo>
									<lut></lut>
									<lut1></lut1>
									<asc_sop></asc_sop>
									<asc_sat></asc_sat>
									<lut2></lut2>
								</colorinfo>
								<labels>
									<label2>Iris</label2>
								</labels>
							</clip>
							<clip id="masterclip-180" explodedTracks="true">
								<uuid>0a44a4f1-1e63-4f54-9334-6d846046250f</uuid>
								<masterclipid>masterclip-180</masterclipid>
								<ismasterclip>TRUE</ismasterclip>
								<duration>733</duration>
								<rate>
									<timebase>30</timebase>
									<ntsc>FALSE</ntsc>
								</rate>
								<name>(Carpetnerd)_Gengar asmr tufting vid #asmr #rug #diy #gengar #pokemon #nintendo_g_MDgEC4OPA_YT.mp4</name>
								<media>
									<video>
										<track>
											<clipitem id="clipitem-693">
												<masterclipid>masterclip-180</masterclipid>
												<name>(Carpetnerd)_Gengar asmr tufting vid #asmr #rug #diy #gengar #pokemon #nintendo_g_MDgEC4OPA_YT.mp4</name>
												<rate>
													<timebase>30</timebase>
													<ntsc>FALSE</ntsc>
												</rate>
												<alphatype>none</alphatype>
												<file id="file-154"/>
												<link>
													<linkclipref>clipitem-693</linkclipref>
													<mediatype>video</mediatype>
													<trackindex>1</trackindex>
													<clipindex>1</clipindex>
												</link>
												<link>
													<linkclipref>clipitem-694</linkclipref>
													<mediatype>audio</mediatype>
													<trackindex>1</trackindex>
													<clipindex>1</clipindex>
													<groupindex>1</groupindex>
												</link>
												<link>
													<linkclipref>clipitem-695</linkclipref>
													<mediatype>audio</mediatype>
													<trackindex>2</trackindex>
													<clipindex>1</clipindex>
													<groupindex>1</groupindex>
												</link>
											</clipitem>
										</track>
									</video>
									<audio>
										<track>
											<clipitem id="clipitem-694">
												<masterclipid>masterclip-180</masterclipid>
												<name>(Carpetnerd)_Gengar asmr tufting vid #asmr #rug #diy #gengar #pokemon #nintendo_g_MDgEC4OPA_YT.mp4</name>
												<rate>
													<timebase>30</timebase>
													<ntsc>FALSE</ntsc>
												</rate>
												<file id="file-154"/>
												<sourcetrack>
													<mediatype>audio</mediatype>
													<trackindex>1</trackindex>
												</sourcetrack>
												<link>
													<linkclipref>clipitem-693</linkclipref>
													<mediatype>video</mediatype>
													<trackindex>1</trackindex>
													<clipindex>1</clipindex>
												</link>
												<link>
													<linkclipref>clipitem-694</linkclipref>
													<mediatype>audio</mediatype>
													<trackindex>1</trackindex>
													<clipindex>1</clipindex>
													<groupindex>1</groupindex>
												</link>
												<link>
													<linkclipref>clipitem-695</linkclipref>
													<mediatype>audio</mediatype>
													<trackindex>2</trackindex>
													<clipindex>1</clipindex>
													<groupindex>1</groupindex>
												</link>
											</clipitem>
										</track>
										<track>
											<clipitem id="clipitem-695">
												<masterclipid>masterclip-180</masterclipid>
												<name>(Carpetnerd)_Gengar asmr tufting vid #asmr #rug #diy #gengar #pokemon #nintendo_g_MDgEC4OPA_YT.mp4</name>
												<rate>
													<timebase>30</timebase>
													<ntsc>FALSE</ntsc>
												</rate>
												<file id="file-154"/>
												<sourcetrack>
													<mediatype>audio</mediatype>
													<trackindex>2</trackindex>
												</sourcetrack>
												<link>
													<linkclipref>clipitem-693</linkclipref>
													<mediatype>video</mediatype>
													<trackindex>1</trackindex>
													<clipindex>1</clipindex>
												</link>
												<link>
													<linkclipref>clipitem-694</linkclipref>
													<mediatype>audio</mediatype>
													<trackindex>1</trackindex>
													<clipindex>1</clipindex>
													<groupindex>1</groupindex>
												</link>
												<link>
													<linkclipref>clipitem-695</linkclipref>
													<mediatype>audio</mediatype>
													<trackindex>2</trackindex>
													<clipindex>1</clipindex>
													<groupindex>1</groupindex>
												</link>
											</clipitem>
										</track>
									</audio>
								</media>
								<logginginfo>
									<description></description>
									<scene></scene>
									<shottake></shottake>
									<lognote></lognote>
									<good></good>
									<originalvideofilename></originalvideofilename>
									<originalaudiofilename></originalaudiofilename>
								</logginginfo>
								<colorinfo>
									<lut></lut>
									<lut1></lut1>
									<asc_sop></asc_sop>
									<asc_sat></asc_sat>
									<lut2></lut2>
								</colorinfo>
								<labels>
									<label2>Iris</label2>
								</labels>
							</clip>
							<clip id="masterclip-182" explodedTracks="true">
								<uuid>96b9c990-9188-4b65-9ca7-6deb35813cf2</uuid>
								<masterclipid>masterclip-182</masterclipid>
								<ismasterclip>TRUE</ismasterclip>
								<duration>1211</duration>
								<rate>
									<timebase>27</timebase>
									<ntsc>FALSE</ntsc>
								</rate>
								<name>(Carpetnerd)_#fyp #asmr #rug #diy #anime #dragonballsuper #ultrainstinct #goku_QSkIAqy9opg_YT.mp4</name>
								<media>
									<video>
										<track>
											<clipitem id="clipitem-696">
												<masterclipid>masterclip-182</masterclipid>
												<name>(Carpetnerd)_#fyp #asmr #rug #diy #anime #dragonballsuper #ultrainstinct #goku_QSkIAqy9opg_YT.mp4</name>
												<rate>
													<timebase>27</timebase>
													<ntsc>FALSE</ntsc>
												</rate>
												<alphatype>none</alphatype>
												<file id="file-156"/>
												<link>
													<linkclipref>clipitem-696</linkclipref>
													<mediatype>video</mediatype>
													<trackindex>1</trackindex>
													<clipindex>1</clipindex>
												</link>
												<link>
													<linkclipref>clipitem-697</linkclipref>
													<mediatype>audio</mediatype>
													<trackindex>1</trackindex>
													<clipindex>1</clipindex>
													<groupindex>1</groupindex>
												</link>
												<link>
													<linkclipref>clipitem-698</linkclipref>
													<mediatype>audio</mediatype>
													<trackindex>2</trackindex>
													<clipindex>1</clipindex>
													<groupindex>1</groupindex>
												</link>
											</clipitem>
										</track>
									</video>
									<audio>
										<track>
											<clipitem id="clipitem-697">
												<masterclipid>masterclip-182</masterclipid>
												<name>(Carpetnerd)_#fyp #asmr #rug #diy #anime #dragonballsuper #ultrainstinct #goku_QSkIAqy9opg_YT.mp4</name>
												<rate>
													<timebase>27</timebase>
													<ntsc>FALSE</ntsc>
												</rate>
												<file id="file-156"/>
												<sourcetrack>
													<mediatype>audio</mediatype>
													<trackindex>1</trackindex>
												</sourcetrack>
												<link>
													<linkclipref>clipitem-696</linkclipref>
													<mediatype>video</mediatype>
													<trackindex>1</trackindex>
													<clipindex>1</clipindex>
												</link>
												<link>
													<linkclipref>clipitem-697</linkclipref>
													<mediatype>audio</mediatype>
													<trackindex>1</trackindex>
													<clipindex>1</clipindex>
													<groupindex>1</groupindex>
												</link>
												<link>
													<linkclipref>clipitem-698</linkclipref>
													<mediatype>audio</mediatype>
													<trackindex>2</trackindex>
													<clipindex>1</clipindex>
													<groupindex>1</groupindex>
												</link>
											</clipitem>
										</track>
										<track>
											<clipitem id="clipitem-698">
												<masterclipid>masterclip-182</masterclipid>
												<name>(Carpetnerd)_#fyp #asmr #rug #diy #anime #dragonballsuper #ultrainstinct #goku_QSkIAqy9opg_YT.mp4</name>
												<rate>
													<timebase>27</timebase>
													<ntsc>FALSE</ntsc>
												</rate>
												<file id="file-156"/>
												<sourcetrack>
													<mediatype>audio</mediatype>
													<trackindex>2</trackindex>
												</sourcetrack>
												<link>
													<linkclipref>clipitem-696</linkclipref>
													<mediatype>video</mediatype>
													<trackindex>1</trackindex>
													<clipindex>1</clipindex>
												</link>
												<link>
													<linkclipref>clipitem-697</linkclipref>
													<mediatype>audio</mediatype>
													<trackindex>1</trackindex>
													<clipindex>1</clipindex>
													<groupindex>1</groupindex>
												</link>
												<link>
													<linkclipref>clipitem-698</linkclipref>
													<mediatype>audio</mediatype>
													<trackindex>2</trackindex>
													<clipindex>1</clipindex>
													<groupindex>1</groupindex>
												</link>
											</clipitem>
										</track>
									</audio>
								</media>
								<logginginfo>
									<description></description>
									<scene></scene>
									<shottake></shottake>
									<lognote>https://www.youtube.com/watch?v=QSkIAqy9opg</lognote>
									<good></good>
									<originalvideofilename></originalvideofilename>
									<originalaudiofilename></originalaudiofilename>
								</logginginfo>
								<colorinfo>
									<lut></lut>
									<lut1></lut1>
									<asc_sop></asc_sop>
									<asc_sat></asc_sat>
									<lut2></lut2>
								</colorinfo>
								<labels>
									<label2>Iris</label2>
								</labels>
							</clip>
						</children>
					</bin>
					<bin>
						<name>barber</name>
						<labels>
							<label2>Mango</label2>
						</labels>
						<children>
							<clip id="masterclip-166" explodedTracks="true">
								<uuid>ee8c374e-0378-4a9d-b61e-0eb62c6d4fc9</uuid>
								<masterclipid>masterclip-166</masterclipid>
								<ismasterclip>TRUE</ismasterclip>
								<duration>15689</duration>
								<rate>
									<timebase>30</timebase>
									<ntsc>TRUE</ntsc>
								</rate>
								<name>(Agno black red)_REALISTIC SPIDER 🕷 transformação em cabelo 😱_i3W_dCvfCGg_YT.mp4</name>
								<media>
									<video>
										<track>
											<clipitem id="clipitem-699">
												<masterclipid>masterclip-166</masterclipid>
												<name>(Agno black red)_REALISTIC SPIDER 🕷 transformação em cabelo 😱_i3W_dCvfCGg_YT.mp4</name>
												<rate>
													<timebase>30</timebase>
													<ntsc>TRUE</ntsc>
												</rate>
												<alphatype>none</alphatype>
												<file id="file-142"/>
												<link>
													<linkclipref>clipitem-699</linkclipref>
													<mediatype>video</mediatype>
													<trackindex>1</trackindex>
													<clipindex>1</clipindex>
												</link>
												<link>
													<linkclipref>clipitem-700</linkclipref>
													<mediatype>audio</mediatype>
													<trackindex>1</trackindex>
													<clipindex>1</clipindex>
													<groupindex>1</groupindex>
												</link>
												<link>
													<linkclipref>clipitem-701</linkclipref>
													<mediatype>audio</mediatype>
													<trackindex>2</trackindex>
													<clipindex>1</clipindex>
													<groupindex>1</groupindex>
												</link>
											</clipitem>
										</track>
									</video>
									<audio>
										<track>
											<clipitem id="clipitem-700">
												<masterclipid>masterclip-166</masterclipid>
												<name>(Agno black red)_REALISTIC SPIDER 🕷 transformação em cabelo 😱_i3W_dCvfCGg_YT.mp4</name>
												<rate>
													<timebase>30</timebase>
													<ntsc>TRUE</ntsc>
												</rate>
												<file id="file-142"/>
												<sourcetrack>
													<mediatype>audio</mediatype>
													<trackindex>1</trackindex>
												</sourcetrack>
												<link>
													<linkclipref>clipitem-699</linkclipref>
													<mediatype>video</mediatype>
													<trackindex>1</trackindex>
													<clipindex>1</clipindex>
												</link>
												<link>
													<linkclipref>clipitem-700</linkclipref>
													<mediatype>audio</mediatype>
													<trackindex>1</trackindex>
													<clipindex>1</clipindex>
													<groupindex>1</groupindex>
												</link>
												<link>
													<linkclipref>clipitem-701</linkclipref>
													<mediatype>audio</mediatype>
													<trackindex>2</trackindex>
													<clipindex>1</clipindex>
													<groupindex>1</groupindex>
												</link>
											</clipitem>
										</track>
										<track>
											<clipitem id="clipitem-701">
												<masterclipid>masterclip-166</masterclipid>
												<name>(Agno black red)_REALISTIC SPIDER 🕷 transformação em cabelo 😱_i3W_dCvfCGg_YT.mp4</name>
												<rate>
													<timebase>30</timebase>
													<ntsc>TRUE</ntsc>
												</rate>
												<file id="file-142"/>
												<sourcetrack>
													<mediatype>audio</mediatype>
													<trackindex>2</trackindex>
												</sourcetrack>
												<link>
													<linkclipref>clipitem-699</linkclipref>
													<mediatype>video</mediatype>
													<trackindex>1</trackindex>
													<clipindex>1</clipindex>
												</link>
												<link>
													<linkclipref>clipitem-700</linkclipref>
													<mediatype>audio</mediatype>
													<trackindex>1</trackindex>
													<clipindex>1</clipindex>
													<groupindex>1</groupindex>
												</link>
												<link>
													<linkclipref>clipitem-701</linkclipref>
													<mediatype>audio</mediatype>
													<trackindex>2</trackindex>
													<clipindex>1</clipindex>
													<groupindex>1</groupindex>
												</link>
											</clipitem>
										</track>
									</audio>
								</media>
								<logginginfo>
									<description></description>
									<scene></scene>
									<shottake></shottake>
									<lognote>https://www.youtube.com/watch?v=i3W_dCvfCGg</lognote>
									<good></good>
									<originalvideofilename></originalvideofilename>
									<originalaudiofilename></originalaudiofilename>
								</logginginfo>
								<colorinfo>
									<lut></lut>
									<lut1></lut1>
									<asc_sop></asc_sop>
									<asc_sat></asc_sat>
									<lut2></lut2>
								</colorinfo>
								<labels>
									<label2>Iris</label2>
								</labels>
							</clip>
							<clip id="masterclip-167" explodedTracks="true">
								<uuid>f5b6ce6a-139d-4405-a526-ad04485ded6a</uuid>
								<masterclipid>masterclip-167</masterclipid>
								<ismasterclip>TRUE</ismasterclip>
								<duration>1057</duration>
								<rate>
									<timebase>30</timebase>
									<ntsc>FALSE</ntsc>
								</rate>
								<name>(Wavykid Kev)_Fixing Some Pushback😳_ur5lnIMoATM_YT.mp4</name>
								<media>
									<video>
										<track>
											<clipitem id="clipitem-702">
												<masterclipid>masterclip-167</masterclipid>
												<name>(Wavykid Kev)_Fixing Some Pushback😳_ur5lnIMoATM_YT.mp4</name>
												<rate>
													<timebase>30</timebase>
													<ntsc>FALSE</ntsc>
												</rate>
												<alphatype>none</alphatype>
												<file id="file-143"/>
												<link>
													<linkclipref>clipitem-702</linkclipref>
													<mediatype>video</mediatype>
													<trackindex>1</trackindex>
													<clipindex>1</clipindex>
												</link>
												<link>
													<linkclipref>clipitem-703</linkclipref>
													<mediatype>audio</mediatype>
													<trackindex>1</trackindex>
													<clipindex>1</clipindex>
													<groupindex>1</groupindex>
												</link>
												<link>
													<linkclipref>clipitem-704</linkclipref>
													<mediatype>audio</mediatype>
													<trackindex>2</trackindex>
													<clipindex>1</clipindex>
													<groupindex>1</groupindex>
												</link>
											</clipitem>
										</track>
									</video>
									<audio>
										<track>
											<clipitem id="clipitem-703">
												<masterclipid>masterclip-167</masterclipid>
												<name>(Wavykid Kev)_Fixing Some Pushback😳_ur5lnIMoATM_YT.mp4</name>
												<rate>
													<timebase>30</timebase>
													<ntsc>FALSE</ntsc>
												</rate>
												<file id="file-143"/>
												<sourcetrack>
													<mediatype>audio</mediatype>
													<trackindex>1</trackindex>
												</sourcetrack>
												<link>
													<linkclipref>clipitem-702</linkclipref>
													<mediatype>video</mediatype>
													<trackindex>1</trackindex>
													<clipindex>1</clipindex>
												</link>
												<link>
													<linkclipref>clipitem-703</linkclipref>
													<mediatype>audio</mediatype>
													<trackindex>1</trackindex>
													<clipindex>1</clipindex>
													<groupindex>1</groupindex>
												</link>
												<link>
													<linkclipref>clipitem-704</linkclipref>
													<mediatype>audio</mediatype>
													<trackindex>2</trackindex>
													<clipindex>1</clipindex>
													<groupindex>1</groupindex>
												</link>
											</clipitem>
										</track>
										<track>
											<clipitem id="clipitem-704">
												<masterclipid>masterclip-167</masterclipid>
												<name>(Wavykid Kev)_Fixing Some Pushback😳_ur5lnIMoATM_YT.mp4</name>
												<rate>
													<timebase>30</timebase>
													<ntsc>FALSE</ntsc>
												</rate>
												<file id="file-143"/>
												<sourcetrack>
													<mediatype>audio</mediatype>
													<trackindex>2</trackindex>
												</sourcetrack>
												<link>
													<linkclipref>clipitem-702</linkclipref>
													<mediatype>video</mediatype>
													<trackindex>1</trackindex>
													<clipindex>1</clipindex>
												</link>
												<link>
													<linkclipref>clipitem-703</linkclipref>
													<mediatype>audio</mediatype>
													<trackindex>1</trackindex>
													<clipindex>1</clipindex>
													<groupindex>1</groupindex>
												</link>
												<link>
													<linkclipref>clipitem-704</linkclipref>
													<mediatype>audio</mediatype>
													<trackindex>2</trackindex>
													<clipindex>1</clipindex>
													<groupindex>1</groupindex>
												</link>
											</clipitem>
										</track>
									</audio>
								</media>
								<logginginfo>
									<description></description>
									<scene></scene>
									<shottake></shottake>
									<lognote></lognote>
									<good></good>
									<originalvideofilename></originalvideofilename>
									<originalaudiofilename></originalaudiofilename>
								</logginginfo>
								<colorinfo>
									<lut></lut>
									<lut1></lut1>
									<asc_sop></asc_sop>
									<asc_sat></asc_sat>
									<lut2></lut2>
								</colorinfo>
								<labels>
									<label2>Iris</label2>
								</labels>
							</clip>
							<clip id="masterclip-168" explodedTracks="true">
								<uuid>f2bcb8b3-c521-4aa5-8ccd-a9559a090f28</uuid>
								<masterclipid>masterclip-168</masterclipid>
								<ismasterclip>TRUE</ismasterclip>
								<duration>1479</duration>
								<rate>
									<timebase>30</timebase>
									<ntsc>FALSE</ntsc>
								</rate>
								<name>(Wavykid Kev)_This Client Gets FREE HAIRCUTS FOR LIFE! Here’s Why…_jqGh-LLNd7E_YT.mp4</name>
								<media>
									<video>
										<track>
											<clipitem id="clipitem-705">
												<masterclipid>masterclip-168</masterclipid>
												<name>(Wavykid Kev)_This Client Gets FREE HAIRCUTS FOR LIFE! Here’s Why…_jqGh-LLNd7E_YT.mp4</name>
												<rate>
													<timebase>30</timebase>
													<ntsc>FALSE</ntsc>
												</rate>
												<alphatype>none</alphatype>
												<file id="file-144"/>
												<link>
													<linkclipref>clipitem-705</linkclipref>
													<mediatype>video</mediatype>
													<trackindex>1</trackindex>
													<clipindex>1</clipindex>
												</link>
												<link>
													<linkclipref>clipitem-706</linkclipref>
													<mediatype>audio</mediatype>
													<trackindex>1</trackindex>
													<clipindex>1</clipindex>
													<groupindex>1</groupindex>
												</link>
												<link>
													<linkclipref>clipitem-707</linkclipref>
													<mediatype>audio</mediatype>
													<trackindex>2</trackindex>
													<clipindex>1</clipindex>
													<groupindex>1</groupindex>
												</link>
											</clipitem>
										</track>
									</video>
									<audio>
										<track>
											<clipitem id="clipitem-706">
												<masterclipid>masterclip-168</masterclipid>
												<name>(Wavykid Kev)_This Client Gets FREE HAIRCUTS FOR LIFE! Here’s Why…_jqGh-LLNd7E_YT.mp4</name>
												<rate>
													<timebase>30</timebase>
													<ntsc>FALSE</ntsc>
												</rate>
												<file id="file-144"/>
												<sourcetrack>
													<mediatype>audio</mediatype>
													<trackindex>1</trackindex>
												</sourcetrack>
												<link>
													<linkclipref>clipitem-705</linkclipref>
													<mediatype>video</mediatype>
													<trackindex>1</trackindex>
													<clipindex>1</clipindex>
												</link>
												<link>
													<linkclipref>clipitem-706</linkclipref>
													<mediatype>audio</mediatype>
													<trackindex>1</trackindex>
													<clipindex>1</clipindex>
													<groupindex>1</groupindex>
												</link>
												<link>
													<linkclipref>clipitem-707</linkclipref>
													<mediatype>audio</mediatype>
													<trackindex>2</trackindex>
													<clipindex>1</clipindex>
													<groupindex>1</groupindex>
												</link>
											</clipitem>
										</track>
										<track>
											<clipitem id="clipitem-707">
												<masterclipid>masterclip-168</masterclipid>
												<name>(Wavykid Kev)_This Client Gets FREE HAIRCUTS FOR LIFE! Here’s Why…_jqGh-LLNd7E_YT.mp4</name>
												<rate>
													<timebase>30</timebase>
													<ntsc>FALSE</ntsc>
												</rate>
												<file id="file-144"/>
												<sourcetrack>
													<mediatype>audio</mediatype>
													<trackindex>2</trackindex>
												</sourcetrack>
												<link>
													<linkclipref>clipitem-705</linkclipref>
													<mediatype>video</mediatype>
													<trackindex>1</trackindex>
													<clipindex>1</clipindex>
												</link>
												<link>
													<linkclipref>clipitem-706</linkclipref>
													<mediatype>audio</mediatype>
													<trackindex>1</trackindex>
													<clipindex>1</clipindex>
													<groupindex>1</groupindex>
												</link>
												<link>
													<linkclipref>clipitem-707</linkclipref>
													<mediatype>audio</mediatype>
													<trackindex>2</trackindex>
													<clipindex>1</clipindex>
													<groupindex>1</groupindex>
												</link>
											</clipitem>
										</track>
									</audio>
								</media>
								<logginginfo>
									<description></description>
									<scene></scene>
									<shottake></shottake>
									<lognote></lognote>
									<good></good>
									<originalvideofilename></originalvideofilename>
									<originalaudiofilename></originalaudiofilename>
								</logginginfo>
								<colorinfo>
									<lut></lut>
									<lut1></lut1>
									<asc_sop></asc_sop>
									<asc_sat></asc_sat>
									<lut2></lut2>
								</colorinfo>
								<labels>
									<label2>Iris</label2>
								</labels>
							</clip>
						</children>
					</bin>
					<bin>
						<name>flowers</name>
						<labels>
							<label2>Mango</label2>
						</labels>
						<children>
							<clip id="masterclip-91" explodedTracks="true">
								<uuid>48ab668e-0fd1-4a96-a588-ccc23439b120</uuid>
								<masterclipid>masterclip-91</masterclipid>
								<ismasterclip>TRUE</ismasterclip>
								<duration>20481</duration>
								<rate>
									<timebase>60</timebase>
									<ntsc>FALSE</ntsc>
								</rate>
								<name>(LARYSSA MEIRA)_Easy DIY Faux Blooming Tree _ Affordable DIY Decoration _ DIY Spring Home Decor_-nJejooos74_YT.mp4</name>
								<media>
									<video>
										<track>
											<clipitem id="clipitem-708">
												<masterclipid>masterclip-91</masterclipid>
												<name>(LARYSSA MEIRA)_Easy DIY Faux Blooming Tree _ Affordable DIY Decoration _ DIY Spring Home Decor_-nJejooos74_YT.mp4</name>
												<rate>
													<timebase>60</timebase>
													<ntsc>FALSE</ntsc>
												</rate>
												<alphatype>none</alphatype>
												<file id="file-79"/>
												<link>
													<linkclipref>clipitem-708</linkclipref>
													<mediatype>video</mediatype>
													<trackindex>1</trackindex>
													<clipindex>1</clipindex>
												</link>
												<link>
													<linkclipref>clipitem-709</linkclipref>
													<mediatype>audio</mediatype>
													<trackindex>1</trackindex>
													<clipindex>1</clipindex>
													<groupindex>1</groupindex>
												</link>
												<link>
													<linkclipref>clipitem-710</linkclipref>
													<mediatype>audio</mediatype>
													<trackindex>2</trackindex>
													<clipindex>1</clipindex>
													<groupindex>1</groupindex>
												</link>
											</clipitem>
										</track>
									</video>
									<audio>
										<track>
											<clipitem id="clipitem-709">
												<masterclipid>masterclip-91</masterclipid>
												<name>(LARYSSA MEIRA)_Easy DIY Faux Blooming Tree _ Affordable DIY Decoration _ DIY Spring Home Decor_-nJejooos74_YT.mp4</name>
												<rate>
													<timebase>60</timebase>
													<ntsc>FALSE</ntsc>
												</rate>
												<file id="file-79"/>
												<sourcetrack>
													<mediatype>audio</mediatype>
													<trackindex>1</trackindex>
												</sourcetrack>
												<link>
													<linkclipref>clipitem-708</linkclipref>
													<mediatype>video</mediatype>
													<trackindex>1</trackindex>
													<clipindex>1</clipindex>
												</link>
												<link>
													<linkclipref>clipitem-709</linkclipref>
													<mediatype>audio</mediatype>
													<trackindex>1</trackindex>
													<clipindex>1</clipindex>
													<groupindex>1</groupindex>
												</link>
												<link>
													<linkclipref>clipitem-710</linkclipref>
													<mediatype>audio</mediatype>
													<trackindex>2</trackindex>
													<clipindex>1</clipindex>
													<groupindex>1</groupindex>
												</link>
											</clipitem>
										</track>
										<track>
											<clipitem id="clipitem-710">
												<masterclipid>masterclip-91</masterclipid>
												<name>(LARYSSA MEIRA)_Easy DIY Faux Blooming Tree _ Affordable DIY Decoration _ DIY Spring Home Decor_-nJejooos74_YT.mp4</name>
												<rate>
													<timebase>60</timebase>
													<ntsc>FALSE</ntsc>
												</rate>
												<file id="file-79"/>
												<sourcetrack>
													<mediatype>audio</mediatype>
													<trackindex>2</trackindex>
												</sourcetrack>
												<link>
													<linkclipref>clipitem-708</linkclipref>
													<mediatype>video</mediatype>
													<trackindex>1</trackindex>
													<clipindex>1</clipindex>
												</link>
												<link>
													<linkclipref>clipitem-709</linkclipref>
													<mediatype>audio</mediatype>
													<trackindex>1</trackindex>
													<clipindex>1</clipindex>
													<groupindex>1</groupindex>
												</link>
												<link>
													<linkclipref>clipitem-710</linkclipref>
													<mediatype>audio</mediatype>
													<trackindex>2</trackindex>
													<clipindex>1</clipindex>
													<groupindex>1</groupindex>
												</link>
											</clipitem>
										</track>
									</audio>
								</media>
								<logginginfo>
									<description></description>
									<scene></scene>
									<shottake></shottake>
									<lognote>https://www.youtube.com/watch?v=-nJejooos74</lognote>
									<good></good>
									<originalvideofilename></originalvideofilename>
									<originalaudiofilename></originalaudiofilename>
								</logginginfo>
								<colorinfo>
									<lut></lut>
									<lut1></lut1>
									<asc_sop></asc_sop>
									<asc_sat></asc_sat>
									<lut2></lut2>
								</colorinfo>
								<labels>
									<label2>Iris</label2>
								</labels>
							</clip>
							<clip id="masterclip-92" explodedTracks="true">
								<uuid>cbf75751-a463-4d32-8db1-d55676185cf1</uuid>
								<masterclipid>masterclip-92</masterclipid>
								<ismasterclip>TRUE</ismasterclip>
								<duration>3724</duration>
								<rate>
									<timebase>25</timebase>
									<ntsc>FALSE</ntsc>
								</rate>
								<name>(parul pawar)_Nylon stocking flowers tutorial _ How to make nylon stocking flower step by step_Qz9ZYqujq_U_YT.mp4</name>
								<media>
									<video>
										<track>
											<clipitem id="clipitem-711">
												<masterclipid>masterclip-92</masterclipid>
												<name>(parul pawar)_Nylon stocking flowers tutorial _ How to make nylon stocking flower step by step_Qz9ZYqujq_U_YT.mp4</name>
												<rate>
													<timebase>25</timebase>
													<ntsc>FALSE</ntsc>
												</rate>
												<alphatype>none</alphatype>
												<file id="file-80"/>
												<link>
													<linkclipref>clipitem-711</linkclipref>
													<mediatype>video</mediatype>
													<trackindex>1</trackindex>
													<clipindex>1</clipindex>
												</link>
												<link>
													<linkclipref>clipitem-712</linkclipref>
													<mediatype>audio</mediatype>
													<trackindex>1</trackindex>
													<clipindex>1</clipindex>
													<groupindex>1</groupindex>
												</link>
												<link>
													<linkclipref>clipitem-713</linkclipref>
													<mediatype>audio</mediatype>
													<trackindex>2</trackindex>
													<clipindex>1</clipindex>
													<groupindex>1</groupindex>
												</link>
											</clipitem>
										</track>
									</video>
									<audio>
										<track>
											<clipitem id="clipitem-712">
												<masterclipid>masterclip-92</masterclipid>
												<name>(parul pawar)_Nylon stocking flowers tutorial _ How to make nylon stocking flower step by step_Qz9ZYqujq_U_YT.mp4</name>
												<rate>
													<timebase>25</timebase>
													<ntsc>FALSE</ntsc>
												</rate>
												<file id="file-80"/>
												<sourcetrack>
													<mediatype>audio</mediatype>
													<trackindex>1</trackindex>
												</sourcetrack>
												<link>
													<linkclipref>clipitem-711</linkclipref>
													<mediatype>video</mediatype>
													<trackindex>1</trackindex>
													<clipindex>1</clipindex>
												</link>
												<link>
													<linkclipref>clipitem-712</linkclipref>
													<mediatype>audio</mediatype>
													<trackindex>1</trackindex>
													<clipindex>1</clipindex>
													<groupindex>1</groupindex>
												</link>
												<link>
													<linkclipref>clipitem-713</linkclipref>
													<mediatype>audio</mediatype>
													<trackindex>2</trackindex>
													<clipindex>1</clipindex>
													<groupindex>1</groupindex>
												</link>
											</clipitem>
										</track>
										<track>
											<clipitem id="clipitem-713">
												<masterclipid>masterclip-92</masterclipid>
												<name>(parul pawar)_Nylon stocking flowers tutorial _ How to make nylon stocking flower step by step_Qz9ZYqujq_U_YT.mp4</name>
												<rate>
													<timebase>25</timebase>
													<ntsc>FALSE</ntsc>
												</rate>
												<file id="file-80"/>
												<sourcetrack>
													<mediatype>audio</mediatype>
													<trackindex>2</trackindex>
												</sourcetrack>
												<link>
													<linkclipref>clipitem-711</linkclipref>
													<mediatype>video</mediatype>
													<trackindex>1</trackindex>
													<clipindex>1</clipindex>
												</link>
												<link>
													<linkclipref>clipitem-712</linkclipref>
													<mediatype>audio</mediatype>
													<trackindex>1</trackindex>
													<clipindex>1</clipindex>
													<groupindex>1</groupindex>
												</link>
												<link>
													<linkclipref>clipitem-713</linkclipref>
													<mediatype>audio</mediatype>
													<trackindex>2</trackindex>
													<clipindex>1</clipindex>
													<groupindex>1</groupindex>
												</link>
											</clipitem>
										</track>
									</audio>
								</media>
								<logginginfo>
									<description></description>
									<scene></scene>
									<shottake></shottake>
									<lognote>https://www.youtube.com/watch?v=Qz9ZYqujq_U</lognote>
									<good></good>
									<originalvideofilename></originalvideofilename>
									<originalaudiofilename></originalaudiofilename>
								</logginginfo>
								<colorinfo>
									<lut></lut>
									<lut1></lut1>
									<asc_sop></asc_sop>
									<asc_sat></asc_sat>
									<lut2></lut2>
								</colorinfo>
								<labels>
									<label2>Iris</label2>
								</labels>
							</clip>
							<clip id="masterclip-90" explodedTracks="true">
								<uuid>6f9f71e3-0a6e-440c-a9ab-f62ce2ac7208</uuid>
								<masterclipid>masterclip-90</masterclipid>
								<ismasterclip>TRUE</ismasterclip>
								<duration>3472</duration>
								<rate>
									<timebase>25</timebase>
									<ntsc>FALSE</ntsc>
								</rate>
								<name>(parul pawar)_Nylon stocking flowers tutorial _ How to make nylon stocking flower step by step__P_AlaNT5Gg_YT.mp4</name>
								<media>
									<video>
										<track>
											<clipitem id="clipitem-714">
												<masterclipid>masterclip-90</masterclipid>
												<name>(parul pawar)_Nylon stocking flowers tutorial _ How to make nylon stocking flower step by step__P_AlaNT5Gg_YT.mp4</name>
												<rate>
													<timebase>25</timebase>
													<ntsc>FALSE</ntsc>
												</rate>
												<alphatype>none</alphatype>
												<file id="file-78"/>
												<link>
													<linkclipref>clipitem-714</linkclipref>
													<mediatype>video</mediatype>
													<trackindex>1</trackindex>
													<clipindex>1</clipindex>
												</link>
												<link>
													<linkclipref>clipitem-715</linkclipref>
													<mediatype>audio</mediatype>
													<trackindex>1</trackindex>
													<clipindex>1</clipindex>
													<groupindex>1</groupindex>
												</link>
												<link>
													<linkclipref>clipitem-716</linkclipref>
													<mediatype>audio</mediatype>
													<trackindex>2</trackindex>
													<clipindex>1</clipindex>
													<groupindex>1</groupindex>
												</link>
											</clipitem>
										</track>
									</video>
									<audio>
										<track>
											<clipitem id="clipitem-715">
												<masterclipid>masterclip-90</masterclipid>
												<name>(parul pawar)_Nylon stocking flowers tutorial _ How to make nylon stocking flower step by step__P_AlaNT5Gg_YT.mp4</name>
												<rate>
													<timebase>25</timebase>
													<ntsc>FALSE</ntsc>
												</rate>
												<file id="file-78"/>
												<sourcetrack>
													<mediatype>audio</mediatype>
													<trackindex>1</trackindex>
												</sourcetrack>
												<link>
													<linkclipref>clipitem-714</linkclipref>
													<mediatype>video</mediatype>
													<trackindex>1</trackindex>
													<clipindex>1</clipindex>
												</link>
												<link>
													<linkclipref>clipitem-715</linkclipref>
													<mediatype>audio</mediatype>
													<trackindex>1</trackindex>
													<clipindex>1</clipindex>
													<groupindex>1</groupindex>
												</link>
												<link>
													<linkclipref>clipitem-716</linkclipref>
													<mediatype>audio</mediatype>
													<trackindex>2</trackindex>
													<clipindex>1</clipindex>
													<groupindex>1</groupindex>
												</link>
											</clipitem>
										</track>
										<track>
											<clipitem id="clipitem-716">
												<masterclipid>masterclip-90</masterclipid>
												<name>(parul pawar)_Nylon stocking flowers tutorial _ How to make nylon stocking flower step by step__P_AlaNT5Gg_YT.mp4</name>
												<rate>
													<timebase>25</timebase>
													<ntsc>FALSE</ntsc>
												</rate>
												<file id="file-78"/>
												<sourcetrack>
													<mediatype>audio</mediatype>
													<trackindex>2</trackindex>
												</sourcetrack>
												<link>
													<linkclipref>clipitem-714</linkclipref>
													<mediatype>video</mediatype>
													<trackindex>1</trackindex>
													<clipindex>1</clipindex>
												</link>
												<link>
													<linkclipref>clipitem-715</linkclipref>
													<mediatype>audio</mediatype>
													<trackindex>1</trackindex>
													<clipindex>1</clipindex>
													<groupindex>1</groupindex>
												</link>
												<link>
													<linkclipref>clipitem-716</linkclipref>
													<mediatype>audio</mediatype>
													<trackindex>2</trackindex>
													<clipindex>1</clipindex>
													<groupindex>1</groupindex>
												</link>
											</clipitem>
										</track>
									</audio>
								</media>
								<logginginfo>
									<description></description>
									<scene></scene>
									<shottake></shottake>
									<lognote>https://www.youtube.com/watch?v=_P_AlaNT5Gg</lognote>
									<good></good>
									<originalvideofilename></originalvideofilename>
									<originalaudiofilename></originalaudiofilename>
								</logginginfo>
								<colorinfo>
									<lut></lut>
									<lut1></lut1>
									<asc_sop></asc_sop>
									<asc_sat></asc_sat>
									<lut2></lut2>
								</colorinfo>
								<labels>
									<label2>Iris</label2>
								</labels>
							</clip>
						</children>
					</bin>
					<bin>
						<name>mini cafe</name>
						<labels>
							<label2>Mango</label2>
						</labels>
						<children>
							<clip id="masterclip-123" explodedTracks="true">
								<uuid>cc679903-6460-470e-921f-aca5e15a8ee9</uuid>
								<masterclipid>masterclip-123</masterclipid>
								<ismasterclip>TRUE</ismasterclip>
								<duration>5499</duration>
								<rate>
									<timebase>30</timebase>
									<ntsc>TRUE</ntsc>
								</rate>
								<name>(SweetMiniDollHouse)_Miniature jug and cups💚Miniature kitchen💗_umhYPe_8CEI_YT.mp4</name>
								<media>
									<video>
										<track>
											<clipitem id="clipitem-717">
												<masterclipid>masterclip-123</masterclipid>
												<name>(SweetMiniDollHouse)_Miniature jug and cups💚Miniature kitchen💗_umhYPe_8CEI_YT.mp4</name>
												<rate>
													<timebase>30</timebase>
													<ntsc>TRUE</ntsc>
												</rate>
												<alphatype>none</alphatype>
												<file id="file-106"/>
												<link>
													<linkclipref>clipitem-717</linkclipref>
													<mediatype>video</mediatype>
													<trackindex>1</trackindex>
													<clipindex>1</clipindex>
												</link>
												<link>
													<linkclipref>clipitem-718</linkclipref>
													<mediatype>audio</mediatype>
													<trackindex>1</trackindex>
													<clipindex>1</clipindex>
													<groupindex>1</groupindex>
												</link>
												<link>
													<linkclipref>clipitem-719</linkclipref>
													<mediatype>audio</mediatype>
													<trackindex>2</trackindex>
													<clipindex>1</clipindex>
													<groupindex>1</groupindex>
												</link>
											</clipitem>
										</track>
									</video>
									<audio>
										<track>
											<clipitem id="clipitem-718">
												<masterclipid>masterclip-123</masterclipid>
												<name>(SweetMiniDollHouse)_Miniature jug and cups💚Miniature kitchen💗_umhYPe_8CEI_YT.mp4</name>
												<rate>
													<timebase>30</timebase>
													<ntsc>TRUE</ntsc>
												</rate>
												<file id="file-106"/>
												<sourcetrack>
													<mediatype>audio</mediatype>
													<trackindex>1</trackindex>
												</sourcetrack>
												<link>
													<linkclipref>clipitem-717</linkclipref>
													<mediatype>video</mediatype>
													<trackindex>1</trackindex>
													<clipindex>1</clipindex>
												</link>
												<link>
													<linkclipref>clipitem-718</linkclipref>
													<mediatype>audio</mediatype>
													<trackindex>1</trackindex>
													<clipindex>1</clipindex>
													<groupindex>1</groupindex>
												</link>
												<link>
													<linkclipref>clipitem-719</linkclipref>
													<mediatype>audio</mediatype>
													<trackindex>2</trackindex>
													<clipindex>1</clipindex>
													<groupindex>1</groupindex>
												</link>
											</clipitem>
										</track>
										<track>
											<clipitem id="clipitem-719">
												<masterclipid>masterclip-123</masterclipid>
												<name>(SweetMiniDollHouse)_Miniature jug and cups💚Miniature kitchen💗_umhYPe_8CEI_YT.mp4</name>
												<rate>
													<timebase>30</timebase>
													<ntsc>TRUE</ntsc>
												</rate>
												<file id="file-106"/>
												<sourcetrack>
													<mediatype>audio</mediatype>
													<trackindex>2</trackindex>
												</sourcetrack>
												<link>
													<linkclipref>clipitem-717</linkclipref>
													<mediatype>video</mediatype>
													<trackindex>1</trackindex>
													<clipindex>1</clipindex>
												</link>
												<link>
													<linkclipref>clipitem-718</linkclipref>
													<mediatype>audio</mediatype>
													<trackindex>1</trackindex>
													<clipindex>1</clipindex>
													<groupindex>1</groupindex>
												</link>
												<link>
													<linkclipref>clipitem-719</linkclipref>
													<mediatype>audio</mediatype>
													<trackindex>2</trackindex>
													<clipindex>1</clipindex>
													<groupindex>1</groupindex>
												</link>
											</clipitem>
										</track>
									</audio>
								</media>
								<logginginfo>
									<description></description>
									<scene></scene>
									<shottake></shottake>
									<lognote>https://www.youtube.com/watch?v=umhYPe_8CEI</lognote>
									<good></good>
									<originalvideofilename></originalvideofilename>
									<originalaudiofilename></originalaudiofilename>
								</logginginfo>
								<colorinfo>
									<lut></lut>
									<lut1></lut1>
									<asc_sop></asc_sop>
									<asc_sat></asc_sat>
									<lut2></lut2>
								</colorinfo>
								<labels>
									<label2>Iris</label2>
								</labels>
							</clip>
							<clip id="masterclip-124" explodedTracks="true">
								<uuid>8cc10aaf-a7e6-4e88-aa08-406fdd86d4f5</uuid>
								<masterclipid>masterclip-124</masterclipid>
								<ismasterclip>TRUE</ismasterclip>
								<duration>5806</duration>
								<rate>
									<timebase>30</timebase>
									<ntsc>TRUE</ntsc>
								</rate>
								<name>(SweetMiniDollHouse)_Miniature kitchen_ sandwiches with jam🍒_dSfy-GDFxK4_YT.mp4</name>
								<media>
									<video>
										<track>
											<clipitem id="clipitem-720">
												<masterclipid>masterclip-124</masterclipid>
												<name>(SweetMiniDollHouse)_Miniature kitchen_ sandwiches with jam🍒_dSfy-GDFxK4_YT.mp4</name>
												<rate>
													<timebase>30</timebase>
													<ntsc>TRUE</ntsc>
												</rate>
												<alphatype>none</alphatype>
												<file id="file-107"/>
												<link>
													<linkclipref>clipitem-720</linkclipref>
													<mediatype>video</mediatype>
													<trackindex>1</trackindex>
													<clipindex>1</clipindex>
												</link>
												<link>
													<linkclipref>clipitem-721</linkclipref>
													<mediatype>audio</mediatype>
													<trackindex>1</trackindex>
													<clipindex>1</clipindex>
													<groupindex>1</groupindex>
												</link>
												<link>
													<linkclipref>clipitem-722</linkclipref>
													<mediatype>audio</mediatype>
													<trackindex>2</trackindex>
													<clipindex>1</clipindex>
													<groupindex>1</groupindex>
												</link>
											</clipitem>
										</track>
									</video>
									<audio>
										<track>
											<clipitem id="clipitem-721">
												<masterclipid>masterclip-124</masterclipid>
												<name>(SweetMiniDollHouse)_Miniature kitchen_ sandwiches with jam🍒_dSfy-GDFxK4_YT.mp4</name>
												<rate>
													<timebase>30</timebase>
													<ntsc>TRUE</ntsc>
												</rate>
												<file id="file-107"/>
												<sourcetrack>
													<mediatype>audio</mediatype>
													<trackindex>1</trackindex>
												</sourcetrack>
												<link>
													<linkclipref>clipitem-720</linkclipref>
													<mediatype>video</mediatype>
													<trackindex>1</trackindex>
													<clipindex>1</clipindex>
												</link>
												<link>
													<linkclipref>clipitem-721</linkclipref>
													<mediatype>audio</mediatype>
													<trackindex>1</trackindex>
													<clipindex>1</clipindex>
													<groupindex>1</groupindex>
												</link>
												<link>
													<linkclipref>clipitem-722</linkclipref>
													<mediatype>audio</mediatype>
													<trackindex>2</trackindex>
													<clipindex>1</clipindex>
													<groupindex>1</groupindex>
												</link>
											</clipitem>
										</track>
										<track>
											<clipitem id="clipitem-722">
												<masterclipid>masterclip-124</masterclipid>
												<name>(SweetMiniDollHouse)_Miniature kitchen_ sandwiches with jam🍒_dSfy-GDFxK4_YT.mp4</name>
												<rate>
													<timebase>30</timebase>
													<ntsc>TRUE</ntsc>
												</rate>
												<file id="file-107"/>
												<sourcetrack>
													<mediatype>audio</mediatype>
													<trackindex>2</trackindex>
												</sourcetrack>
												<link>
													<linkclipref>clipitem-720</linkclipref>
													<mediatype>video</mediatype>
													<trackindex>1</trackindex>
													<clipindex>1</clipindex>
												</link>
												<link>
													<linkclipref>clipitem-721</linkclipref>
													<mediatype>audio</mediatype>
													<trackindex>1</trackindex>
													<clipindex>1</clipindex>
													<groupindex>1</groupindex>
												</link>
												<link>
													<linkclipref>clipitem-722</linkclipref>
													<mediatype>audio</mediatype>
													<trackindex>2</trackindex>
													<clipindex>1</clipindex>
													<groupindex>1</groupindex>
												</link>
											</clipitem>
										</track>
									</audio>
								</media>
								<logginginfo>
									<description></description>
									<scene></scene>
									<shottake></shottake>
									<lognote>https://www.youtube.com/watch?v=dSfy-GDFxK4</lognote>
									<good></good>
									<originalvideofilename></originalvideofilename>
									<originalaudiofilename></originalaudiofilename>
								</logginginfo>
								<colorinfo>
									<lut></lut>
									<lut1></lut1>
									<asc_sop></asc_sop>
									<asc_sat></asc_sat>
									<lut2></lut2>
								</colorinfo>
								<labels>
									<label2>Iris</label2>
								</labels>
							</clip>
							<clip id="masterclip-125" explodedTracks="true">
								<uuid>6a529f50-bcb6-465d-82be-12050821dcaa</uuid>
								<masterclipid>masterclip-125</masterclipid>
								<ismasterclip>TRUE</ismasterclip>
								<duration>5446</duration>
								<rate>
									<timebase>30</timebase>
									<ntsc>TRUE</ntsc>
								</rate>
								<name>(SweetMiniDollHouse)_Miniature pastries🥐_qtZhVsDPpZc_YT.mp4</name>
								<media>
									<video>
										<track>
											<clipitem id="clipitem-723">
												<masterclipid>masterclip-125</masterclipid>
												<name>(SweetMiniDollHouse)_Miniature pastries🥐_qtZhVsDPpZc_YT.mp4</name>
												<rate>
													<timebase>30</timebase>
													<ntsc>TRUE</ntsc>
												</rate>
												<alphatype>none</alphatype>
												<file id="file-108"/>
												<link>
													<linkclipref>clipitem-723</linkclipref>
													<mediatype>video</mediatype>
													<trackindex>1</trackindex>
													<clipindex>1</clipindex>
												</link>
												<link>
													<linkclipref>clipitem-724</linkclipref>
													<mediatype>audio</mediatype>
													<trackindex>1</trackindex>
													<clipindex>1</clipindex>
													<groupindex>1</groupindex>
												</link>
												<link>
													<linkclipref>clipitem-725</linkclipref>
													<mediatype>audio</mediatype>
													<trackindex>2</trackindex>
													<clipindex>1</clipindex>
													<groupindex>1</groupindex>
												</link>
											</clipitem>
										</track>
									</video>
									<audio>
										<track>
											<clipitem id="clipitem-724">
												<masterclipid>masterclip-125</masterclipid>
												<name>(SweetMiniDollHouse)_Miniature pastries🥐_qtZhVsDPpZc_YT.mp4</name>
												<rate>
													<timebase>30</timebase>
													<ntsc>TRUE</ntsc>
												</rate>
												<file id="file-108"/>
												<sourcetrack>
													<mediatype>audio</mediatype>
													<trackindex>1</trackindex>
												</sourcetrack>
												<link>
													<linkclipref>clipitem-723</linkclipref>
													<mediatype>video</mediatype>
													<trackindex>1</trackindex>
													<clipindex>1</clipindex>
												</link>
												<link>
													<linkclipref>clipitem-724</linkclipref>
													<mediatype>audio</mediatype>
													<trackindex>1</trackindex>
													<clipindex>1</clipindex>
													<groupindex>1</groupindex>
												</link>
												<link>
													<linkclipref>clipitem-725</linkclipref>
													<mediatype>audio</mediatype>
													<trackindex>2</trackindex>
													<clipindex>1</clipindex>
													<groupindex>1</groupindex>
												</link>
											</clipitem>
										</track>
										<track>
											<clipitem id="clipitem-725">
												<masterclipid>masterclip-125</masterclipid>
												<name>(SweetMiniDollHouse)_Miniature pastries🥐_qtZhVsDPpZc_YT.mp4</name>
												<rate>
													<timebase>30</timebase>
													<ntsc>TRUE</ntsc>
												</rate>
												<file id="file-108"/>
												<sourcetrack>
													<mediatype>audio</mediatype>
													<trackindex>2</trackindex>
												</sourcetrack>
												<link>
													<linkclipref>clipitem-723</linkclipref>
													<mediatype>video</mediatype>
													<trackindex>1</trackindex>
													<clipindex>1</clipindex>
												</link>
												<link>
													<linkclipref>clipitem-724</linkclipref>
													<mediatype>audio</mediatype>
													<trackindex>1</trackindex>
													<clipindex>1</clipindex>
													<groupindex>1</groupindex>
												</link>
												<link>
													<linkclipref>clipitem-725</linkclipref>
													<mediatype>audio</mediatype>
													<trackindex>2</trackindex>
													<clipindex>1</clipindex>
													<groupindex>1</groupindex>
												</link>
											</clipitem>
										</track>
									</audio>
								</media>
								<logginginfo>
									<description></description>
									<scene></scene>
									<shottake></shottake>
									<lognote>https://www.youtube.com/watch?v=qtZhVsDPpZc</lognote>
									<good></good>
									<originalvideofilename></originalvideofilename>
									<originalaudiofilename></originalaudiofilename>
								</logginginfo>
								<colorinfo>
									<lut></lut>
									<lut1></lut1>
									<asc_sop></asc_sop>
									<asc_sat></asc_sat>
									<lut2></lut2>
								</colorinfo>
								<labels>
									<label2>Iris</label2>
								</labels>
							</clip>
						</children>
					</bin>
					<bin>
						<name>nails</name>
						<labels>
							<label2>Mango</label2>
						</labels>
						<children>
							<clip id="masterclip-214" explodedTracks="true">
								<uuid>1cb622c5-d385-4589-bd24-e5e2d2983dfa</uuid>
								<masterclipid>masterclip-214</masterclipid>
								<ismasterclip>TRUE</ismasterclip>
								<duration>844</duration>
								<rate>
									<timebase>30</timebase>
									<ntsc>FALSE</ntsc>
								</rate>
								<name>(heluviee)_Cd8uBGFlD7U_IG.mp4</name>
								<media>
									<video>
										<track>
											<clipitem id="clipitem-726">
												<masterclipid>masterclip-214</masterclipid>
												<name>(heluviee)_Cd8uBGFlD7U_IG.mp4</name>
												<rate>
													<timebase>30</timebase>
													<ntsc>FALSE</ntsc>
												</rate>
												<alphatype>none</alphatype>
												<file id="file-183"/>
												<link>
													<linkclipref>clipitem-726</linkclipref>
													<mediatype>video</mediatype>
													<trackindex>1</trackindex>
													<clipindex>1</clipindex>
												</link>
												<link>
													<linkclipref>clipitem-727</linkclipref>
													<mediatype>audio</mediatype>
													<trackindex>1</trackindex>
													<clipindex>1</clipindex>
													<groupindex>1</groupindex>
												</link>
												<link>
													<linkclipref>clipitem-728</linkclipref>
													<mediatype>audio</mediatype>
													<trackindex>2</trackindex>
													<clipindex>1</clipindex>
													<groupindex>1</groupindex>
												</link>
											</clipitem>
										</track>
									</video>
									<audio>
										<track>
											<clipitem id="clipitem-727">
												<masterclipid>masterclip-214</masterclipid>
												<name>(heluviee)_Cd8uBGFlD7U_IG.mp4</name>
												<rate>
													<timebase>30</timebase>
													<ntsc>FALSE</ntsc>
												</rate>
												<file id="file-183"/>
												<sourcetrack>
													<mediatype>audio</mediatype>
													<trackindex>1</trackindex>
												</sourcetrack>
												<link>
													<linkclipref>clipitem-726</linkclipref>
													<mediatype>video</mediatype>
													<trackindex>1</trackindex>
													<clipindex>1</clipindex>
												</link>
												<link>
													<linkclipref>clipitem-727</linkclipref>
													<mediatype>audio</mediatype>
													<trackindex>1</trackindex>
													<clipindex>1</clipindex>
													<groupindex>1</groupindex>
												</link>
												<link>
													<linkclipref>clipitem-728</linkclipref>
													<mediatype>audio</mediatype>
													<trackindex>2</trackindex>
													<clipindex>1</clipindex>
													<groupindex>1</groupindex>
												</link>
											</clipitem>
										</track>
										<track>
											<clipitem id="clipitem-728">
												<masterclipid>masterclip-214</masterclipid>
												<name>(heluviee)_Cd8uBGFlD7U_IG.mp4</name>
												<rate>
													<timebase>30</timebase>
													<ntsc>FALSE</ntsc>
												</rate>
												<file id="file-183"/>
												<sourcetrack>
													<mediatype>audio</mediatype>
													<trackindex>2</trackindex>
												</sourcetrack>
												<link>
													<linkclipref>clipitem-726</linkclipref>
													<mediatype>video</mediatype>
													<trackindex>1</trackindex>
													<clipindex>1</clipindex>
												</link>
												<link>
													<linkclipref>clipitem-727</linkclipref>
													<mediatype>audio</mediatype>
													<trackindex>1</trackindex>
													<clipindex>1</clipindex>
													<groupindex>1</groupindex>
												</link>
												<link>
													<linkclipref>clipitem-728</linkclipref>
													<mediatype>audio</mediatype>
													<trackindex>2</trackindex>
													<clipindex>1</clipindex>
													<groupindex>1</groupindex>
												</link>
											</clipitem>
										</track>
									</audio>
								</media>
								<logginginfo>
									<description></description>
									<scene></scene>
									<shottake></shottake>
									<lognote></lognote>
									<good></good>
									<originalvideofilename></originalvideofilename>
									<originalaudiofilename></originalaudiofilename>
								</logginginfo>
								<colorinfo>
									<lut></lut>
									<lut1></lut1>
									<asc_sop></asc_sop>
									<asc_sat></asc_sat>
									<lut2></lut2>
								</colorinfo>
								<labels>
									<label2>Iris</label2>
								</labels>
							</clip>
							<clip id="masterclip-213" explodedTracks="true">
								<uuid>c2d9f28a-3e7d-4e1f-923c-f01e6697e265</uuid>
								<masterclipid>masterclip-213</masterclipid>
								<ismasterclip>TRUE</ismasterclip>
								<duration>706</duration>
								<rate>
									<timebase>30</timebase>
									<ntsc>FALSE</ntsc>
								</rate>
								<name>(zacrylics)_7032407171988049158_TT.mp4</name>
								<media>
									<video>
										<track>
											<clipitem id="clipitem-729">
												<masterclipid>masterclip-213</masterclipid>
												<name>(zacrylics)_7032407171988049158_TT.mp4</name>
												<rate>
													<timebase>30</timebase>
													<ntsc>FALSE</ntsc>
												</rate>
												<alphatype>none</alphatype>
												<file id="file-182"/>
												<link>
													<linkclipref>clipitem-729</linkclipref>
													<mediatype>video</mediatype>
													<trackindex>1</trackindex>
													<clipindex>1</clipindex>
												</link>
												<link>
													<linkclipref>clipitem-730</linkclipref>
													<mediatype>audio</mediatype>
													<trackindex>1</trackindex>
													<clipindex>1</clipindex>
													<groupindex>1</groupindex>
												</link>
												<link>
													<linkclipref>clipitem-731</linkclipref>
													<mediatype>audio</mediatype>
													<trackindex>2</trackindex>
													<clipindex>1</clipindex>
													<groupindex>1</groupindex>
												</link>
											</clipitem>
										</track>
									</video>
									<audio>
										<track>
											<clipitem id="clipitem-730">
												<masterclipid>masterclip-213</masterclipid>
												<name>(zacrylics)_7032407171988049158_TT.mp4</name>
												<rate>
													<timebase>30</timebase>
													<ntsc>FALSE</ntsc>
												</rate>
												<file id="file-182"/>
												<sourcetrack>
													<mediatype>audio</mediatype>
													<trackindex>1</trackindex>
												</sourcetrack>
												<link>
													<linkclipref>clipitem-729</linkclipref>
													<mediatype>video</mediatype>
													<trackindex>1</trackindex>
													<clipindex>1</clipindex>
												</link>
												<link>
													<linkclipref>clipitem-730</linkclipref>
													<mediatype>audio</mediatype>
													<trackindex>1</trackindex>
													<clipindex>1</clipindex>
													<groupindex>1</groupindex>
												</link>
												<link>
													<linkclipref>clipitem-731</linkclipref>
													<mediatype>audio</mediatype>
													<trackindex>2</trackindex>
													<clipindex>1</clipindex>
													<groupindex>1</groupindex>
												</link>
											</clipitem>
										</track>
										<track>
											<clipitem id="clipitem-731">
												<masterclipid>masterclip-213</masterclipid>
												<name>(zacrylics)_7032407171988049158_TT.mp4</name>
												<rate>
													<timebase>30</timebase>
													<ntsc>FALSE</ntsc>
												</rate>
												<file id="file-182"/>
												<sourcetrack>
													<mediatype>audio</mediatype>
													<trackindex>2</trackindex>
												</sourcetrack>
												<link>
													<linkclipref>clipitem-729</linkclipref>
													<mediatype>video</mediatype>
													<trackindex>1</trackindex>
													<clipindex>1</clipindex>
												</link>
												<link>
													<linkclipref>clipitem-730</linkclipref>
													<mediatype>audio</mediatype>
													<trackindex>1</trackindex>
													<clipindex>1</clipindex>
													<groupindex>1</groupindex>
												</link>
												<link>
													<linkclipref>clipitem-731</linkclipref>
													<mediatype>audio</mediatype>
													<trackindex>2</trackindex>
													<clipindex>1</clipindex>
													<groupindex>1</groupindex>
												</link>
											</clipitem>
										</track>
									</audio>
								</media>
								<logginginfo>
									<description></description>
									<scene></scene>
									<shottake></shottake>
									<lognote></lognote>
									<good></good>
									<originalvideofilename></originalvideofilename>
									<originalaudiofilename></originalaudiofilename>
								</logginginfo>
								<colorinfo>
									<lut></lut>
									<lut1></lut1>
									<asc_sop></asc_sop>
									<asc_sat></asc_sat>
									<lut2></lut2>
								</colorinfo>
								<labels>
									<label2>Iris</label2>
								</labels>
							</clip>
							<clip id="masterclip-215" explodedTracks="true">
								<uuid>c8e124e4-3bc4-455a-b3d2-1a8a03d97b7b</uuid>
								<masterclipid>masterclip-215</masterclipid>
								<ismasterclip>TRUE</ismasterclip>
								<duration>1444</duration>
								<rate>
									<timebase>30</timebase>
									<ntsc>FALSE</ntsc>
								</rate>
								<name>(zacrylics)_7072821589133282565_TT.mp4</name>
								<media>
									<video>
										<track>
											<clipitem id="clipitem-732">
												<masterclipid>masterclip-215</masterclipid>
												<name>(zacrylics)_7072821589133282565_TT.mp4</name>
												<rate>
													<timebase>30</timebase>
													<ntsc>FALSE</ntsc>
												</rate>
												<alphatype>none</alphatype>
												<file id="file-184"/>
												<link>
													<linkclipref>clipitem-732</linkclipref>
													<mediatype>video</mediatype>
													<trackindex>1</trackindex>
													<clipindex>1</clipindex>
												</link>
												<link>
													<linkclipref>clipitem-733</linkclipref>
													<mediatype>audio</mediatype>
													<trackindex>1</trackindex>
													<clipindex>1</clipindex>
													<groupindex>1</groupindex>
												</link>
												<link>
													<linkclipref>clipitem-734</linkclipref>
													<mediatype>audio</mediatype>
													<trackindex>2</trackindex>
													<clipindex>1</clipindex>
													<groupindex>1</groupindex>
												</link>
											</clipitem>
										</track>
									</video>
									<audio>
										<track>
											<clipitem id="clipitem-733">
												<masterclipid>masterclip-215</masterclipid>
												<name>(zacrylics)_7072821589133282565_TT.mp4</name>
												<rate>
													<timebase>30</timebase>
													<ntsc>FALSE</ntsc>
												</rate>
												<file id="file-184"/>
												<sourcetrack>
													<mediatype>audio</mediatype>
													<trackindex>1</trackindex>
												</sourcetrack>
												<link>
													<linkclipref>clipitem-732</linkclipref>
													<mediatype>video</mediatype>
													<trackindex>1</trackindex>
													<clipindex>1</clipindex>
												</link>
												<link>
													<linkclipref>clipitem-733</linkclipref>
													<mediatype>audio</mediatype>
													<trackindex>1</trackindex>
													<clipindex>1</clipindex>
													<groupindex>1</groupindex>
												</link>
												<link>
													<linkclipref>clipitem-734</linkclipref>
													<mediatype>audio</mediatype>
													<trackindex>2</trackindex>
													<clipindex>1</clipindex>
													<groupindex>1</groupindex>
												</link>
											</clipitem>
										</track>
										<track>
											<clipitem id="clipitem-734">
												<masterclipid>masterclip-215</masterclipid>
												<name>(zacrylics)_7072821589133282565_TT.mp4</name>
												<rate>
													<timebase>30</timebase>
													<ntsc>FALSE</ntsc>
												</rate>
												<file id="file-184"/>
												<sourcetrack>
													<mediatype>audio</mediatype>
													<trackindex>2</trackindex>
												</sourcetrack>
												<link>
													<linkclipref>clipitem-732</linkclipref>
													<mediatype>video</mediatype>
													<trackindex>1</trackindex>
													<clipindex>1</clipindex>
												</link>
												<link>
													<linkclipref>clipitem-733</linkclipref>
													<mediatype>audio</mediatype>
													<trackindex>1</trackindex>
													<clipindex>1</clipindex>
													<groupindex>1</groupindex>
												</link>
												<link>
													<linkclipref>clipitem-734</linkclipref>
													<mediatype>audio</mediatype>
													<trackindex>2</trackindex>
													<clipindex>1</clipindex>
													<groupindex>1</groupindex>
												</link>
											</clipitem>
										</track>
									</audio>
								</media>
								<logginginfo>
									<description></description>
									<scene></scene>
									<shottake></shottake>
									<lognote></lognote>
									<good></good>
									<originalvideofilename></originalvideofilename>
									<originalaudiofilename></originalaudiofilename>
								</logginginfo>
								<colorinfo>
									<lut></lut>
									<lut1></lut1>
									<asc_sop></asc_sop>
									<asc_sat></asc_sat>
									<lut2></lut2>
								</colorinfo>
								<labels>
									<label2>Iris</label2>
								</labels>
							</clip>
							<clip id="masterclip-216" explodedTracks="true">
								<uuid>497c5411-9364-46e7-adc5-0f4dc6ab4d05</uuid>
								<masterclipid>masterclip-216</masterclipid>
								<ismasterclip>TRUE</ismasterclip>
								<duration>738</duration>
								<rate>
									<timebase>30</timebase>
									<ntsc>FALSE</ntsc>
								</rate>
								<name>(zacrylics)_6946671653380197637_TT.mp4</name>
								<media>
									<video>
										<track>
											<clipitem id="clipitem-735">
												<masterclipid>masterclip-216</masterclipid>
												<name>(zacrylics)_6946671653380197637_TT.mp4</name>
												<rate>
													<timebase>30</timebase>
													<ntsc>FALSE</ntsc>
												</rate>
												<alphatype>none</alphatype>
												<file id="file-185"/>
												<link>
													<linkclipref>clipitem-735</linkclipref>
													<mediatype>video</mediatype>
													<trackindex>1</trackindex>
													<clipindex>1</clipindex>
												</link>
												<link>
													<linkclipref>clipitem-736</linkclipref>
													<mediatype>audio</mediatype>
													<trackindex>1</trackindex>
													<clipindex>1</clipindex>
													<groupindex>1</groupindex>
												</link>
												<link>
													<linkclipref>clipitem-737</linkclipref>
													<mediatype>audio</mediatype>
													<trackindex>2</trackindex>
													<clipindex>1</clipindex>
													<groupindex>1</groupindex>
												</link>
											</clipitem>
										</track>
									</video>
									<audio>
										<track>
											<clipitem id="clipitem-736">
												<masterclipid>masterclip-216</masterclipid>
												<name>(zacrylics)_6946671653380197637_TT.mp4</name>
												<rate>
													<timebase>30</timebase>
													<ntsc>FALSE</ntsc>
												</rate>
												<file id="file-185"/>
												<sourcetrack>
													<mediatype>audio</mediatype>
													<trackindex>1</trackindex>
												</sourcetrack>
												<link>
													<linkclipref>clipitem-735</linkclipref>
													<mediatype>video</mediatype>
													<trackindex>1</trackindex>
													<clipindex>1</clipindex>
												</link>
												<link>
													<linkclipref>clipitem-736</linkclipref>
													<mediatype>audio</mediatype>
													<trackindex>1</trackindex>
													<clipindex>1</clipindex>
													<groupindex>1</groupindex>
												</link>
												<link>
													<linkclipref>clipitem-737</linkclipref>
													<mediatype>audio</mediatype>
													<trackindex>2</trackindex>
													<clipindex>1</clipindex>
													<groupindex>1</groupindex>
												</link>
											</clipitem>
										</track>
										<track>
											<clipitem id="clipitem-737">
												<masterclipid>masterclip-216</masterclipid>
												<name>(zacrylics)_6946671653380197637_TT.mp4</name>
												<rate>
													<timebase>30</timebase>
													<ntsc>FALSE</ntsc>
												</rate>
												<file id="file-185"/>
												<sourcetrack>
													<mediatype>audio</mediatype>
													<trackindex>2</trackindex>
												</sourcetrack>
												<link>
													<linkclipref>clipitem-735</linkclipref>
													<mediatype>video</mediatype>
													<trackindex>1</trackindex>
													<clipindex>1</clipindex>
												</link>
												<link>
													<linkclipref>clipitem-736</linkclipref>
													<mediatype>audio</mediatype>
													<trackindex>1</trackindex>
													<clipindex>1</clipindex>
													<groupindex>1</groupindex>
												</link>
												<link>
													<linkclipref>clipitem-737</linkclipref>
													<mediatype>audio</mediatype>
													<trackindex>2</trackindex>
													<clipindex>1</clipindex>
													<groupindex>1</groupindex>
												</link>
											</clipitem>
										</track>
									</audio>
								</media>
								<logginginfo>
									<description></description>
									<scene></scene>
									<shottake></shottake>
									<lognote></lognote>
									<good></good>
									<originalvideofilename></originalvideofilename>
									<originalaudiofilename></originalaudiofilename>
								</logginginfo>
								<colorinfo>
									<lut></lut>
									<lut1></lut1>
									<asc_sop></asc_sop>
									<asc_sat></asc_sat>
									<lut2></lut2>
								</colorinfo>
								<labels>
									<label2>Iris</label2>
								</labels>
							</clip>
						</children>
					</bin>
					<bin>
						<name>natural makeup</name>
						<labels>
							<label2>Mango</label2>
						</labels>
						<children>
							<clip id="masterclip-205" explodedTracks="true">
								<uuid>dd758d0f-9004-4f43-b171-e9f9d9c90b1d</uuid>
								<masterclipid>masterclip-205</masterclipid>
								<ismasterclip>TRUE</ismasterclip>
								<duration>570</duration>
								<rate>
									<timebase>30</timebase>
									<ntsc>FALSE</ntsc>
								</rate>
								<name>(klaudiasyd)_CgzeHUcDmYQ_IG.mp4</name>
								<media>
									<video>
										<track>
											<clipitem id="clipitem-738">
												<masterclipid>masterclip-205</masterclipid>
												<name>(klaudiasyd)_CgzeHUcDmYQ_IG.mp4</name>
												<rate>
													<timebase>30</timebase>
													<ntsc>FALSE</ntsc>
												</rate>
												<alphatype>none</alphatype>
												<file id="file-175"/>
												<link>
													<linkclipref>clipitem-738</linkclipref>
													<mediatype>video</mediatype>
													<trackindex>1</trackindex>
													<clipindex>1</clipindex>
												</link>
												<link>
													<linkclipref>clipitem-739</linkclipref>
													<mediatype>audio</mediatype>
													<trackindex>1</trackindex>
													<clipindex>1</clipindex>
													<groupindex>1</groupindex>
												</link>
												<link>
													<linkclipref>clipitem-740</linkclipref>
													<mediatype>audio</mediatype>
													<trackindex>2</trackindex>
													<clipindex>1</clipindex>
													<groupindex>1</groupindex>
												</link>
											</clipitem>
										</track>
									</video>
									<audio>
										<track>
											<clipitem id="clipitem-739">
												<masterclipid>masterclip-205</masterclipid>
												<name>(klaudiasyd)_CgzeHUcDmYQ_IG.mp4</name>
												<rate>
													<timebase>30</timebase>
													<ntsc>FALSE</ntsc>
												</rate>
												<file id="file-175"/>
												<sourcetrack>
													<mediatype>audio</mediatype>
													<trackindex>1</trackindex>
												</sourcetrack>
												<link>
													<linkclipref>clipitem-738</linkclipref>
													<mediatype>video</mediatype>
													<trackindex>1</trackindex>
													<clipindex>1</clipindex>
												</link>
												<link>
													<linkclipref>clipitem-739</linkclipref>
													<mediatype>audio</mediatype>
													<trackindex>1</trackindex>
													<clipindex>1</clipindex>
													<groupindex>1</groupindex>
												</link>
												<link>
													<linkclipref>clipitem-740</linkclipref>
													<mediatype>audio</mediatype>
													<trackindex>2</trackindex>
													<clipindex>1</clipindex>
													<groupindex>1</groupindex>
												</link>
											</clipitem>
										</track>
										<track>
											<clipitem id="clipitem-740">
												<masterclipid>masterclip-205</masterclipid>
												<name>(klaudiasyd)_CgzeHUcDmYQ_IG.mp4</name>
												<rate>
													<timebase>30</timebase>
													<ntsc>FALSE</ntsc>
												</rate>
												<file id="file-175"/>
												<sourcetrack>
													<mediatype>audio</mediatype>
													<trackindex>2</trackindex>
												</sourcetrack>
												<link>
													<linkclipref>clipitem-738</linkclipref>
													<mediatype>video</mediatype>
													<trackindex>1</trackindex>
													<clipindex>1</clipindex>
												</link>
												<link>
													<linkclipref>clipitem-739</linkclipref>
													<mediatype>audio</mediatype>
													<trackindex>1</trackindex>
													<clipindex>1</clipindex>
													<groupindex>1</groupindex>
												</link>
												<link>
													<linkclipref>clipitem-740</linkclipref>
													<mediatype>audio</mediatype>
													<trackindex>2</trackindex>
													<clipindex>1</clipindex>
													<groupindex>1</groupindex>
												</link>
											</clipitem>
										</track>
									</audio>
								</media>
								<logginginfo>
									<description></description>
									<scene></scene>
									<shottake></shottake>
									<lognote></lognote>
									<good></good>
									<originalvideofilename></originalvideofilename>
									<originalaudiofilename></originalaudiofilename>
								</logginginfo>
								<colorinfo>
									<lut></lut>
									<lut1></lut1>
									<asc_sop></asc_sop>
									<asc_sat></asc_sat>
									<lut2></lut2>
								</colorinfo>
								<labels>
									<label2>Iris</label2>
								</labels>
							</clip>
							<clip id="masterclip-206" explodedTracks="true">
								<uuid>7c5aebf6-ee8d-4a79-95a5-7a7661dc03e5</uuid>
								<masterclipid>masterclip-206</masterclipid>
								<ismasterclip>TRUE</ismasterclip>
								<duration>1420</duration>
								<rate>
									<timebase>30</timebase>
									<ntsc>FALSE</ntsc>
								</rate>
								<name>(myriamxn)_Ce1kbvqpIwV_IG.mp4</name>
								<media>
									<video>
										<track>
											<clipitem id="clipitem-741">
												<masterclipid>masterclip-206</masterclipid>
												<name>(myriamxn)_Ce1kbvqpIwV_IG.mp4</name>
												<rate>
													<timebase>30</timebase>
													<ntsc>FALSE</ntsc>
												</rate>
												<alphatype>none</alphatype>
												<file id="file-176"/>
												<link>
													<linkclipref>clipitem-741</linkclipref>
													<mediatype>video</mediatype>
													<trackindex>1</trackindex>
													<clipindex>1</clipindex>
												</link>
												<link>
													<linkclipref>clipitem-742</linkclipref>
													<mediatype>audio</mediatype>
													<trackindex>1</trackindex>
													<clipindex>1</clipindex>
													<groupindex>1</groupindex>
												</link>
												<link>
													<linkclipref>clipitem-743</linkclipref>
													<mediatype>audio</mediatype>
													<trackindex>2</trackindex>
													<clipindex>1</clipindex>
													<groupindex>1</groupindex>
												</link>
											</clipitem>
										</track>
									</video>
									<audio>
										<track>
											<clipitem id="clipitem-742">
												<masterclipid>masterclip-206</masterclipid>
												<name>(myriamxn)_Ce1kbvqpIwV_IG.mp4</name>
												<rate>
													<timebase>30</timebase>
													<ntsc>FALSE</ntsc>
												</rate>
												<file id="file-176"/>
												<sourcetrack>
													<mediatype>audio</mediatype>
													<trackindex>1</trackindex>
												</sourcetrack>
												<link>
													<linkclipref>clipitem-741</linkclipref>
													<mediatype>video</mediatype>
													<trackindex>1</trackindex>
													<clipindex>1</clipindex>
												</link>
												<link>
													<linkclipref>clipitem-742</linkclipref>
													<mediatype>audio</mediatype>
													<trackindex>1</trackindex>
													<clipindex>1</clipindex>
													<groupindex>1</groupindex>
												</link>
												<link>
													<linkclipref>clipitem-743</linkclipref>
													<mediatype>audio</mediatype>
													<trackindex>2</trackindex>
													<clipindex>1</clipindex>
													<groupindex>1</groupindex>
												</link>
											</clipitem>
										</track>
										<track>
											<clipitem id="clipitem-743">
												<masterclipid>masterclip-206</masterclipid>
												<name>(myriamxn)_Ce1kbvqpIwV_IG.mp4</name>
												<rate>
													<timebase>30</timebase>
													<ntsc>FALSE</ntsc>
												</rate>
												<file id="file-176"/>
												<sourcetrack>
													<mediatype>audio</mediatype>
													<trackindex>2</trackindex>
												</sourcetrack>
												<link>
													<linkclipref>clipitem-741</linkclipref>
													<mediatype>video</mediatype>
													<trackindex>1</trackindex>
													<clipindex>1</clipindex>
												</link>
												<link>
													<linkclipref>clipitem-742</linkclipref>
													<mediatype>audio</mediatype>
													<trackindex>1</trackindex>
													<clipindex>1</clipindex>
													<groupindex>1</groupindex>
												</link>
												<link>
													<linkclipref>clipitem-743</linkclipref>
													<mediatype>audio</mediatype>
													<trackindex>2</trackindex>
													<clipindex>1</clipindex>
													<groupindex>1</groupindex>
												</link>
											</clipitem>
										</track>
									</audio>
								</media>
								<logginginfo>
									<description></description>
									<scene></scene>
									<shottake></shottake>
									<lognote></lognote>
									<good></good>
									<originalvideofilename></originalvideofilename>
									<originalaudiofilename></originalaudiofilename>
								</logginginfo>
								<colorinfo>
									<lut></lut>
									<lut1></lut1>
									<asc_sop></asc_sop>
									<asc_sat></asc_sat>
									<lut2></lut2>
								</colorinfo>
								<labels>
									<label2>Iris</label2>
								</labels>
							</clip>
							<clip id="masterclip-207" explodedTracks="true">
								<uuid>82639a42-e22d-4bd7-9548-61700ccb2807</uuid>
								<masterclipid>masterclip-207</masterclipid>
								<ismasterclip>TRUE</ismasterclip>
								<duration>1106</duration>
								<rate>
									<timebase>30</timebase>
									<ntsc>FALSE</ntsc>
								</rate>
								<name>(estertaniaj)_CViZTempGRx_IG.mp4</name>
								<media>
									<video>
										<track>
											<clipitem id="clipitem-744">
												<masterclipid>masterclip-207</masterclipid>
												<name>(estertaniaj)_CViZTempGRx_IG.mp4</name>
												<rate>
													<timebase>30</timebase>
													<ntsc>FALSE</ntsc>
												</rate>
												<alphatype>none</alphatype>
												<file id="file-177"/>
												<link>
													<linkclipref>clipitem-744</linkclipref>
													<mediatype>video</mediatype>
													<trackindex>1</trackindex>
													<clipindex>1</clipindex>
												</link>
												<link>
													<linkclipref>clipitem-745</linkclipref>
													<mediatype>audio</mediatype>
													<trackindex>1</trackindex>
													<clipindex>1</clipindex>
												</link>
											</clipitem>
										</track>
									</video>
									<audio>
										<track>
											<clipitem id="clipitem-745">
												<masterclipid>masterclip-207</masterclipid>
												<name>(estertaniaj)_CViZTempGRx_IG.mp4</name>
												<rate>
													<timebase>30</timebase>
													<ntsc>FALSE</ntsc>
												</rate>
												<file id="file-177"/>
												<sourcetrack>
													<mediatype>audio</mediatype>
													<trackindex>1</trackindex>
												</sourcetrack>
												<link>
													<linkclipref>clipitem-744</linkclipref>
													<mediatype>video</mediatype>
													<trackindex>1</trackindex>
													<clipindex>1</clipindex>
												</link>
												<link>
													<linkclipref>clipitem-745</linkclipref>
													<mediatype>audio</mediatype>
													<trackindex>1</trackindex>
													<clipindex>1</clipindex>
												</link>
											</clipitem>
										</track>
									</audio>
								</media>
								<logginginfo>
									<description></description>
									<scene></scene>
									<shottake></shottake>
									<lognote></lognote>
									<good></good>
									<originalvideofilename></originalvideofilename>
									<originalaudiofilename></originalaudiofilename>
								</logginginfo>
								<colorinfo>
									<lut></lut>
									<lut1></lut1>
									<asc_sop></asc_sop>
									<asc_sat></asc_sat>
									<lut2></lut2>
								</colorinfo>
								<labels>
									<label2>Iris</label2>
								</labels>
							</clip>
						</children>
					</bin>
					<bin>
						<name>coffee table restoration</name>
						<labels>
							<label2>Mango</label2>
						</labels>
						<children>
							<clip id="masterclip-142" explodedTracks="true">
								<uuid>01408ad9-a6ed-479b-899b-63015e4eeb05</uuid>
								<masterclipid>masterclip-142</masterclipid>
								<ismasterclip>TRUE</ismasterclip>
								<duration>15055</duration>
								<rate>
									<timebase>60</timebase>
									<ntsc>FALSE</ntsc>
								</rate>
								<name>(Refined Nature of Santa Fe)_Restoring Our Outdoor Coffee Table (How To)_Mi2e7kv4PS0_YT.mp4</name>
								<media>
									<video>
										<track>
											<clipitem id="clipitem-746">
												<masterclipid>masterclip-142</masterclipid>
												<name>(Refined Nature of Santa Fe)_Restoring Our Outdoor Coffee Table (How To)_Mi2e7kv4PS0_YT.mp4</name>
												<rate>
													<timebase>60</timebase>
													<ntsc>FALSE</ntsc>
												</rate>
												<alphatype>none</alphatype>
												<file id="file-122"/>
												<link>
													<linkclipref>clipitem-746</linkclipref>
													<mediatype>video</mediatype>
													<trackindex>1</trackindex>
													<clipindex>1</clipindex>
												</link>
												<link>
													<linkclipref>clipitem-747</linkclipref>
													<mediatype>audio</mediatype>
													<trackindex>1</trackindex>
													<clipindex>1</clipindex>
													<groupindex>1</groupindex>
												</link>
												<link>
													<linkclipref>clipitem-748</linkclipref>
													<mediatype>audio</mediatype>
													<trackindex>2</trackindex>
													<clipindex>1</clipindex>
													<groupindex>1</groupindex>
												</link>
											</clipitem>
										</track>
									</video>
									<audio>
										<track>
											<clipitem id="clipitem-747">
												<masterclipid>masterclip-142</masterclipid>
												<name>(Refined Nature of Santa Fe)_Restoring Our Outdoor Coffee Table (How To)_Mi2e7kv4PS0_YT.mp4</name>
												<rate>
													<timebase>60</timebase>
													<ntsc>FALSE</ntsc>
												</rate>
												<file id="file-122"/>
												<sourcetrack>
													<mediatype>audio</mediatype>
													<trackindex>1</trackindex>
												</sourcetrack>
												<link>
													<linkclipref>clipitem-746</linkclipref>
													<mediatype>video</mediatype>
													<trackindex>1</trackindex>
													<clipindex>1</clipindex>
												</link>
												<link>
													<linkclipref>clipitem-747</linkclipref>
													<mediatype>audio</mediatype>
													<trackindex>1</trackindex>
													<clipindex>1</clipindex>
													<groupindex>1</groupindex>
												</link>
												<link>
													<linkclipref>clipitem-748</linkclipref>
													<mediatype>audio</mediatype>
													<trackindex>2</trackindex>
													<clipindex>1</clipindex>
													<groupindex>1</groupindex>
												</link>
											</clipitem>
										</track>
										<track>
											<clipitem id="clipitem-748">
												<masterclipid>masterclip-142</masterclipid>
												<name>(Refined Nature of Santa Fe)_Restoring Our Outdoor Coffee Table (How To)_Mi2e7kv4PS0_YT.mp4</name>
												<rate>
													<timebase>60</timebase>
													<ntsc>FALSE</ntsc>
												</rate>
												<file id="file-122"/>
												<sourcetrack>
													<mediatype>audio</mediatype>
													<trackindex>2</trackindex>
												</sourcetrack>
												<link>
													<linkclipref>clipitem-746</linkclipref>
													<mediatype>video</mediatype>
													<trackindex>1</trackindex>
													<clipindex>1</clipindex>
												</link>
												<link>
													<linkclipref>clipitem-747</linkclipref>
													<mediatype>audio</mediatype>
													<trackindex>1</trackindex>
													<clipindex>1</clipindex>
													<groupindex>1</groupindex>
												</link>
												<link>
													<linkclipref>clipitem-748</linkclipref>
													<mediatype>audio</mediatype>
													<trackindex>2</trackindex>
													<clipindex>1</clipindex>
													<groupindex>1</groupindex>
												</link>
											</clipitem>
										</track>
									</audio>
								</media>
								<logginginfo>
									<description></description>
									<scene></scene>
									<shottake></shottake>
									<lognote>https://www.youtube.com/watch?v=Mi2e7kv4PS0</lognote>
									<good></good>
									<originalvideofilename></originalvideofilename>
									<originalaudiofilename></originalaudiofilename>
								</logginginfo>
								<colorinfo>
									<lut></lut>
									<lut1></lut1>
									<asc_sop></asc_sop>
									<asc_sat></asc_sat>
									<lut2></lut2>
								</colorinfo>
								<labels>
									<label2>Iris</label2>
								</labels>
							</clip>
						</children>
					</bin>
					<bin>
						<name>wig install</name>
						<labels>
							<label2>Mango</label2>
						</labels>
						<children>
							<clip id="masterclip-119" explodedTracks="true">
								<uuid>602f6caa-b7d2-422f-9294-7500d25d083d</uuid>
								<masterclipid>masterclip-119</masterclipid>
								<ismasterclip>TRUE</ismasterclip>
								<duration>8914</duration>
								<rate>
									<timebase>24</timebase>
									<ntsc>TRUE</ntsc>
								</rate>
								<name>(OnlyOneJess)_OMG!! EFFORTLESS BEGINNER WIG Wear and GO _ NEW 4.5_x6_ GLUELESS Pre Cut + PRE PLUCKED _  Junoda_ca-fuhk4Jvs_YT.mp4</name>
								<media>
									<video>
										<track>
											<clipitem id="clipitem-749">
												<masterclipid>masterclip-119</masterclipid>
												<name>(OnlyOneJess)_OMG!! EFFORTLESS BEGINNER WIG Wear and GO _ NEW 4.5_x6_ GLUELESS Pre Cut + PRE PLUCKED _  Junoda_ca-fuhk4Jvs_YT.mp4</name>
												<rate>
													<timebase>24</timebase>
													<ntsc>TRUE</ntsc>
												</rate>
												<alphatype>none</alphatype>
												<file id="file-103"/>
												<link>
													<linkclipref>clipitem-749</linkclipref>
													<mediatype>video</mediatype>
													<trackindex>1</trackindex>
													<clipindex>1</clipindex>
												</link>
												<link>
													<linkclipref>clipitem-750</linkclipref>
													<mediatype>audio</mediatype>
													<trackindex>1</trackindex>
													<clipindex>1</clipindex>
													<groupindex>1</groupindex>
												</link>
												<link>
													<linkclipref>clipitem-751</linkclipref>
													<mediatype>audio</mediatype>
													<trackindex>2</trackindex>
													<clipindex>1</clipindex>
													<groupindex>1</groupindex>
												</link>
											</clipitem>
										</track>
									</video>
									<audio>
										<track>
											<clipitem id="clipitem-750">
												<masterclipid>masterclip-119</masterclipid>
												<name>(OnlyOneJess)_OMG!! EFFORTLESS BEGINNER WIG Wear and GO _ NEW 4.5_x6_ GLUELESS Pre Cut + PRE PLUCKED _  Junoda_ca-fuhk4Jvs_YT.mp4</name>
												<rate>
													<timebase>24</timebase>
													<ntsc>TRUE</ntsc>
												</rate>
												<file id="file-103"/>
												<sourcetrack>
													<mediatype>audio</mediatype>
													<trackindex>1</trackindex>
												</sourcetrack>
												<link>
													<linkclipref>clipitem-749</linkclipref>
													<mediatype>video</mediatype>
													<trackindex>1</trackindex>
													<clipindex>1</clipindex>
												</link>
												<link>
													<linkclipref>clipitem-750</linkclipref>
													<mediatype>audio</mediatype>
													<trackindex>1</trackindex>
													<clipindex>1</clipindex>
													<groupindex>1</groupindex>
												</link>
												<link>
													<linkclipref>clipitem-751</linkclipref>
													<mediatype>audio</mediatype>
													<trackindex>2</trackindex>
													<clipindex>1</clipindex>
													<groupindex>1</groupindex>
												</link>
											</clipitem>
										</track>
										<track>
											<clipitem id="clipitem-751">
												<masterclipid>masterclip-119</masterclipid>
												<name>(OnlyOneJess)_OMG!! EFFORTLESS BEGINNER WIG Wear and GO _ NEW 4.5_x6_ GLUELESS Pre Cut + PRE PLUCKED _  Junoda_ca-fuhk4Jvs_YT.mp4</name>
												<rate>
													<timebase>24</timebase>
													<ntsc>TRUE</ntsc>
												</rate>
												<file id="file-103"/>
												<sourcetrack>
													<mediatype>audio</mediatype>
													<trackindex>2</trackindex>
												</sourcetrack>
												<link>
													<linkclipref>clipitem-749</linkclipref>
													<mediatype>video</mediatype>
													<trackindex>1</trackindex>
													<clipindex>1</clipindex>
												</link>
												<link>
													<linkclipref>clipitem-750</linkclipref>
													<mediatype>audio</mediatype>
													<trackindex>1</trackindex>
													<clipindex>1</clipindex>
													<groupindex>1</groupindex>
												</link>
												<link>
													<linkclipref>clipitem-751</linkclipref>
													<mediatype>audio</mediatype>
													<trackindex>2</trackindex>
													<clipindex>1</clipindex>
													<groupindex>1</groupindex>
												</link>
											</clipitem>
										</track>
									</audio>
								</media>
								<logginginfo>
									<description></description>
									<scene></scene>
									<shottake></shottake>
									<lognote>https://www.youtube.com/watch?v=ca-fuhk4Jvs</lognote>
									<good></good>
									<originalvideofilename></originalvideofilename>
									<originalaudiofilename></originalaudiofilename>
								</logginginfo>
								<colorinfo>
									<lut></lut>
									<lut1></lut1>
									<asc_sop></asc_sop>
									<asc_sat></asc_sat>
									<lut2></lut2>
								</colorinfo>
								<labels>
									<label2>Iris</label2>
								</labels>
							</clip>
						</children>
					</bin>
					<bin>
						<name>stained glass</name>
						<labels>
							<label2>Mango</label2>
						</labels>
						<children>
							<clip id="masterclip-112" explodedTracks="true">
								<uuid>4d346317-a227-43a4-8692-324f384f9481</uuid>
								<masterclipid>masterclip-112</masterclipid>
								<ismasterclip>TRUE</ismasterclip>
								<duration>2700</duration>
								<rate>
									<timebase>30</timebase>
									<ntsc>FALSE</ntsc>
								</rate>
								<name>(alteredlightdesign)_CfcLWuhj4Pa_IG.mp4</name>
								<media>
									<video>
										<track>
											<clipitem id="clipitem-752">
												<masterclipid>masterclip-112</masterclipid>
												<name>(alteredlightdesign)_CfcLWuhj4Pa_IG.mp4</name>
												<rate>
													<timebase>30</timebase>
													<ntsc>FALSE</ntsc>
												</rate>
												<alphatype>none</alphatype>
												<file id="file-97"/>
												<link>
													<linkclipref>clipitem-752</linkclipref>
													<mediatype>video</mediatype>
													<trackindex>1</trackindex>
													<clipindex>1</clipindex>
												</link>
												<link>
													<linkclipref>clipitem-753</linkclipref>
													<mediatype>audio</mediatype>
													<trackindex>1</trackindex>
													<clipindex>1</clipindex>
													<groupindex>1</groupindex>
												</link>
												<link>
													<linkclipref>clipitem-754</linkclipref>
													<mediatype>audio</mediatype>
													<trackindex>2</trackindex>
													<clipindex>1</clipindex>
													<groupindex>1</groupindex>
												</link>
											</clipitem>
										</track>
									</video>
									<audio>
										<track>
											<clipitem id="clipitem-753">
												<masterclipid>masterclip-112</masterclipid>
												<name>(alteredlightdesign)_CfcLWuhj4Pa_IG.mp4</name>
												<rate>
													<timebase>30</timebase>
													<ntsc>FALSE</ntsc>
												</rate>
												<file id="file-97"/>
												<sourcetrack>
													<mediatype>audio</mediatype>
													<trackindex>1</trackindex>
												</sourcetrack>
												<link>
													<linkclipref>clipitem-752</linkclipref>
													<mediatype>video</mediatype>
													<trackindex>1</trackindex>
													<clipindex>1</clipindex>
												</link>
												<link>
													<linkclipref>clipitem-753</linkclipref>
													<mediatype>audio</mediatype>
													<trackindex>1</trackindex>
													<clipindex>1</clipindex>
													<groupindex>1</groupindex>
												</link>
												<link>
													<linkclipref>clipitem-754</linkclipref>
													<mediatype>audio</mediatype>
													<trackindex>2</trackindex>
													<clipindex>1</clipindex>
													<groupindex>1</groupindex>
												</link>
											</clipitem>
										</track>
										<track>
											<clipitem id="clipitem-754">
												<masterclipid>masterclip-112</masterclipid>
												<name>(alteredlightdesign)_CfcLWuhj4Pa_IG.mp4</name>
												<rate>
													<timebase>30</timebase>
													<ntsc>FALSE</ntsc>
												</rate>
												<file id="file-97"/>
												<sourcetrack>
													<mediatype>audio</mediatype>
													<trackindex>2</trackindex>
												</sourcetrack>
												<link>
													<linkclipref>clipitem-752</linkclipref>
													<mediatype>video</mediatype>
													<trackindex>1</trackindex>
													<clipindex>1</clipindex>
												</link>
												<link>
													<linkclipref>clipitem-753</linkclipref>
													<mediatype>audio</mediatype>
													<trackindex>1</trackindex>
													<clipindex>1</clipindex>
													<groupindex>1</groupindex>
												</link>
												<link>
													<linkclipref>clipitem-754</linkclipref>
													<mediatype>audio</mediatype>
													<trackindex>2</trackindex>
													<clipindex>1</clipindex>
													<groupindex>1</groupindex>
												</link>
											</clipitem>
										</track>
									</audio>
								</media>
								<logginginfo>
									<description></description>
									<scene></scene>
									<shottake></shottake>
									<lognote></lognote>
									<good></good>
									<originalvideofilename></originalvideofilename>
									<originalaudiofilename></originalaudiofilename>
								</logginginfo>
								<colorinfo>
									<lut></lut>
									<lut1></lut1>
									<asc_sop></asc_sop>
									<asc_sat></asc_sat>
									<lut2></lut2>
								</colorinfo>
								<labels>
									<label2>Iris</label2>
								</labels>
							</clip>
							<clip id="masterclip-110" explodedTracks="true">
								<uuid>d4ed1aa9-6cfb-422e-8886-cb2b12280aea</uuid>
								<masterclipid>masterclip-110</masterclipid>
								<ismasterclip>TRUE</ismasterclip>
								<duration>600</duration>
								<rate>
									<timebase>30</timebase>
									<ntsc>FALSE</ntsc>
								</rate>
								<name>(alteredlightdesign)_CfEjq7cDzeJ_IG.mp4</name>
								<media>
									<video>
										<track>
											<clipitem id="clipitem-755">
												<masterclipid>masterclip-110</masterclipid>
												<name>(alteredlightdesign)_CfEjq7cDzeJ_IG.mp4</name>
												<rate>
													<timebase>30</timebase>
													<ntsc>FALSE</ntsc>
												</rate>
												<alphatype>none</alphatype>
												<file id="file-95"/>
												<link>
													<linkclipref>clipitem-755</linkclipref>
													<mediatype>video</mediatype>
													<trackindex>1</trackindex>
													<clipindex>1</clipindex>
												</link>
												<link>
													<linkclipref>clipitem-756</linkclipref>
													<mediatype>audio</mediatype>
													<trackindex>1</trackindex>
													<clipindex>1</clipindex>
													<groupindex>1</groupindex>
												</link>
												<link>
													<linkclipref>clipitem-757</linkclipref>
													<mediatype>audio</mediatype>
													<trackindex>2</trackindex>
													<clipindex>1</clipindex>
													<groupindex>1</groupindex>
												</link>
											</clipitem>
										</track>
									</video>
									<audio>
										<track>
											<clipitem id="clipitem-756">
												<masterclipid>masterclip-110</masterclipid>
												<name>(alteredlightdesign)_CfEjq7cDzeJ_IG.mp4</name>
												<rate>
													<timebase>30</timebase>
													<ntsc>FALSE</ntsc>
												</rate>
												<file id="file-95"/>
												<sourcetrack>
													<mediatype>audio</mediatype>
													<trackindex>1</trackindex>
												</sourcetrack>
												<link>
													<linkclipref>clipitem-755</linkclipref>
													<mediatype>video</mediatype>
													<trackindex>1</trackindex>
													<clipindex>1</clipindex>
												</link>
												<link>
													<linkclipref>clipitem-756</linkclipref>
													<mediatype>audio</mediatype>
													<trackindex>1</trackindex>
													<clipindex>1</clipindex>
													<groupindex>1</groupindex>
												</link>
												<link>
													<linkclipref>clipitem-757</linkclipref>
													<mediatype>audio</mediatype>
													<trackindex>2</trackindex>
													<clipindex>1</clipindex>
													<groupindex>1</groupindex>
												</link>
											</clipitem>
										</track>
										<track>
											<clipitem id="clipitem-757">
												<masterclipid>masterclip-110</masterclipid>
												<name>(alteredlightdesign)_CfEjq7cDzeJ_IG.mp4</name>
												<rate>
													<timebase>30</timebase>
													<ntsc>FALSE</ntsc>
												</rate>
												<file id="file-95"/>
												<sourcetrack>
													<mediatype>audio</mediatype>
													<trackindex>2</trackindex>
												</sourcetrack>
												<link>
													<linkclipref>clipitem-755</linkclipref>
													<mediatype>video</mediatype>
													<trackindex>1</trackindex>
													<clipindex>1</clipindex>
												</link>
												<link>
													<linkclipref>clipitem-756</linkclipref>
													<mediatype>audio</mediatype>
													<trackindex>1</trackindex>
													<clipindex>1</clipindex>
													<groupindex>1</groupindex>
												</link>
												<link>
													<linkclipref>clipitem-757</linkclipref>
													<mediatype>audio</mediatype>
													<trackindex>2</trackindex>
													<clipindex>1</clipindex>
													<groupindex>1</groupindex>
												</link>
											</clipitem>
										</track>
									</audio>
								</media>
								<logginginfo>
									<description></description>
									<scene></scene>
									<shottake></shottake>
									<lognote></lognote>
									<good></good>
									<originalvideofilename></originalvideofilename>
									<originalaudiofilename></originalaudiofilename>
								</logginginfo>
								<colorinfo>
									<lut></lut>
									<lut1></lut1>
									<asc_sop></asc_sop>
									<asc_sat></asc_sat>
									<lut2></lut2>
								</colorinfo>
								<labels>
									<label2>Iris</label2>
								</labels>
							</clip>
							<clip id="masterclip-111" explodedTracks="true">
								<uuid>d64c0bb0-9cf5-45d9-8e9c-6a43bab87b81</uuid>
								<masterclipid>masterclip-111</masterclipid>
								<ismasterclip>TRUE</ismasterclip>
								<duration>826</duration>
								<rate>
									<timebase>30</timebase>
									<ntsc>FALSE</ntsc>
								</rate>
								<name>(alteredlightdesign)_CW4VG6KDo9P_IG.mp4</name>
								<media>
									<video>
										<track>
											<clipitem id="clipitem-758">
												<masterclipid>masterclip-111</masterclipid>
												<name>(alteredlightdesign)_CW4VG6KDo9P_IG.mp4</name>
												<rate>
													<timebase>30</timebase>
													<ntsc>FALSE</ntsc>
												</rate>
												<alphatype>none</alphatype>
												<file id="file-96"/>
												<link>
													<linkclipref>clipitem-758</linkclipref>
													<mediatype>video</mediatype>
													<trackindex>1</trackindex>
													<clipindex>1</clipindex>
												</link>
												<link>
													<linkclipref>clipitem-759</linkclipref>
													<mediatype>audio</mediatype>
													<trackindex>1</trackindex>
													<clipindex>1</clipindex>
													<groupindex>1</groupindex>
												</link>
												<link>
													<linkclipref>clipitem-760</linkclipref>
													<mediatype>audio</mediatype>
													<trackindex>2</trackindex>
													<clipindex>1</clipindex>
													<groupindex>1</groupindex>
												</link>
											</clipitem>
										</track>
									</video>
									<audio>
										<track>
											<clipitem id="clipitem-759">
												<masterclipid>masterclip-111</masterclipid>
												<name>(alteredlightdesign)_CW4VG6KDo9P_IG.mp4</name>
												<rate>
													<timebase>30</timebase>
													<ntsc>FALSE</ntsc>
												</rate>
												<file id="file-96"/>
												<sourcetrack>
													<mediatype>audio</mediatype>
													<trackindex>1</trackindex>
												</sourcetrack>
												<link>
													<linkclipref>clipitem-758</linkclipref>
													<mediatype>video</mediatype>
													<trackindex>1</trackindex>
													<clipindex>1</clipindex>
												</link>
												<link>
													<linkclipref>clipitem-759</linkclipref>
													<mediatype>audio</mediatype>
													<trackindex>1</trackindex>
													<clipindex>1</clipindex>
													<groupindex>1</groupindex>
												</link>
												<link>
													<linkclipref>clipitem-760</linkclipref>
													<mediatype>audio</mediatype>
													<trackindex>2</trackindex>
													<clipindex>1</clipindex>
													<groupindex>1</groupindex>
												</link>
											</clipitem>
										</track>
										<track>
											<clipitem id="clipitem-760">
												<masterclipid>masterclip-111</masterclipid>
												<name>(alteredlightdesign)_CW4VG6KDo9P_IG.mp4</name>
												<rate>
													<timebase>30</timebase>
													<ntsc>FALSE</ntsc>
												</rate>
												<file id="file-96"/>
												<sourcetrack>
													<mediatype>audio</mediatype>
													<trackindex>2</trackindex>
												</sourcetrack>
												<link>
													<linkclipref>clipitem-758</linkclipref>
													<mediatype>video</mediatype>
													<trackindex>1</trackindex>
													<clipindex>1</clipindex>
												</link>
												<link>
													<linkclipref>clipitem-759</linkclipref>
													<mediatype>audio</mediatype>
													<trackindex>1</trackindex>
													<clipindex>1</clipindex>
													<groupindex>1</groupindex>
												</link>
												<link>
													<linkclipref>clipitem-760</linkclipref>
													<mediatype>audio</mediatype>
													<trackindex>2</trackindex>
													<clipindex>1</clipindex>
													<groupindex>1</groupindex>
												</link>
											</clipitem>
										</track>
									</audio>
								</media>
								<logginginfo>
									<description></description>
									<scene></scene>
									<shottake></shottake>
									<lognote></lognote>
									<good></good>
									<originalvideofilename></originalvideofilename>
									<originalaudiofilename></originalaudiofilename>
								</logginginfo>
								<colorinfo>
									<lut></lut>
									<lut1></lut1>
									<asc_sop></asc_sop>
									<asc_sat></asc_sat>
									<lut2></lut2>
								</colorinfo>
								<labels>
									<label2>Iris</label2>
								</labels>
							</clip>
						</children>
					</bin>
					<bin>
						<name>crochet dress</name>
						<labels>
							<label2>Mango</label2>
						</labels>
						<children>
							<clip id="masterclip-106" explodedTracks="true">
								<uuid>eaf0e794-bc5d-4984-baee-377c0c2ca29b</uuid>
								<masterclipid>masterclip-106</masterclipid>
								<ismasterclip>TRUE</ismasterclip>
								<duration>23096</duration>
								<rate>
									<timebase>30</timebase>
									<ntsc>TRUE</ntsc>
								</rate>
								<name>(Lily Foubisou)_I made a met gala outfit with a KNITTING MACHINE _ sentro knitting machine tutorial_nh5GgVUyreY_YT.mp4</name>
								<media>
									<video>
										<track>
											<clipitem id="clipitem-761">
												<masterclipid>masterclip-106</masterclipid>
												<name>(Lily Foubisou)_I made a met gala outfit with a KNITTING MACHINE _ sentro knitting machine tutorial_nh5GgVUyreY_YT.mp4</name>
												<rate>
													<timebase>30</timebase>
													<ntsc>TRUE</ntsc>
												</rate>
												<alphatype>none</alphatype>
												<file id="file-92"/>
												<link>
													<linkclipref>clipitem-761</linkclipref>
													<mediatype>video</mediatype>
													<trackindex>1</trackindex>
													<clipindex>1</clipindex>
												</link>
												<link>
													<linkclipref>clipitem-762</linkclipref>
													<mediatype>audio</mediatype>
													<trackindex>1</trackindex>
													<clipindex>1</clipindex>
													<groupindex>1</groupindex>
												</link>
												<link>
													<linkclipref>clipitem-763</linkclipref>
													<mediatype>audio</mediatype>
													<trackindex>2</trackindex>
													<clipindex>1</clipindex>
													<groupindex>1</groupindex>
												</link>
											</clipitem>
										</track>
									</video>
									<audio>
										<track>
											<clipitem id="clipitem-762">
												<masterclipid>masterclip-106</masterclipid>
												<name>(Lily Foubisou)_I made a met gala outfit with a KNITTING MACHINE _ sentro knitting machine tutorial_nh5GgVUyreY_YT.mp4</name>
												<rate>
													<timebase>30</timebase>
													<ntsc>TRUE</ntsc>
												</rate>
												<file id="file-92"/>
												<sourcetrack>
													<mediatype>audio</mediatype>
													<trackindex>1</trackindex>
												</sourcetrack>
												<link>
													<linkclipref>clipitem-761</linkclipref>
													<mediatype>video</mediatype>
													<trackindex>1</trackindex>
													<clipindex>1</clipindex>
												</link>
												<link>
													<linkclipref>clipitem-762</linkclipref>
													<mediatype>audio</mediatype>
													<trackindex>1</trackindex>
													<clipindex>1</clipindex>
													<groupindex>1</groupindex>
												</link>
												<link>
													<linkclipref>clipitem-763</linkclipref>
													<mediatype>audio</mediatype>
													<trackindex>2</trackindex>
													<clipindex>1</clipindex>
													<groupindex>1</groupindex>
												</link>
											</clipitem>
										</track>
										<track>
											<clipitem id="clipitem-763">
												<masterclipid>masterclip-106</masterclipid>
												<name>(Lily Foubisou)_I made a met gala outfit with a KNITTING MACHINE _ sentro knitting machine tutorial_nh5GgVUyreY_YT.mp4</name>
												<rate>
													<timebase>30</timebase>
													<ntsc>TRUE</ntsc>
												</rate>
												<file id="file-92"/>
												<sourcetrack>
													<mediatype>audio</mediatype>
													<trackindex>2</trackindex>
												</sourcetrack>
												<link>
													<linkclipref>clipitem-761</linkclipref>
													<mediatype>video</mediatype>
													<trackindex>1</trackindex>
													<clipindex>1</clipindex>
												</link>
												<link>
													<linkclipref>clipitem-762</linkclipref>
													<mediatype>audio</mediatype>
													<trackindex>1</trackindex>
													<clipindex>1</clipindex>
													<groupindex>1</groupindex>
												</link>
												<link>
													<linkclipref>clipitem-763</linkclipref>
													<mediatype>audio</mediatype>
													<trackindex>2</trackindex>
													<clipindex>1</clipindex>
													<groupindex>1</groupindex>
												</link>
											</clipitem>
										</track>
									</audio>
								</media>
								<logginginfo>
									<description></description>
									<scene></scene>
									<shottake></shottake>
									<lognote>https://www.youtube.com/watch?v=nh5GgVUyreY</lognote>
									<good></good>
									<originalvideofilename></originalvideofilename>
									<originalaudiofilename></originalaudiofilename>
								</logginginfo>
								<colorinfo>
									<lut></lut>
									<lut1></lut1>
									<asc_sop></asc_sop>
									<asc_sat></asc_sat>
									<lut2></lut2>
								</colorinfo>
								<labels>
									<label2>Iris</label2>
								</labels>
							</clip>
						</children>
					</bin>
					<bin>
						<name>how to draw</name>
						<labels>
							<label2>Mango</label2>
						</labels>
						<children>
							<clip id="masterclip-136" explodedTracks="true">
								<uuid>9bfd56a4-4a22-4b58-ad78-a97c9735b9c3</uuid>
								<masterclipid>masterclip-136</masterclipid>
								<ismasterclip>TRUE</ismasterclip>
								<duration>18956</duration>
								<rate>
									<timebase>30</timebase>
									<ntsc>TRUE</ntsc>
								</rate>
								<name>(Shmoxd)_How to draw_ LINE VALUE COLOR!!!_x5iDohKd-VI_YT.mp4</name>
								<media>
									<video>
										<track>
											<clipitem id="clipitem-764">
												<masterclipid>masterclip-136</masterclipid>
												<name>(Shmoxd)_How to draw_ LINE VALUE COLOR!!!_x5iDohKd-VI_YT.mp4</name>
												<rate>
													<timebase>30</timebase>
													<ntsc>TRUE</ntsc>
												</rate>
												<alphatype>none</alphatype>
												<file id="file-117"/>
												<link>
													<linkclipref>clipitem-764</linkclipref>
													<mediatype>video</mediatype>
													<trackindex>1</trackindex>
													<clipindex>1</clipindex>
												</link>
												<link>
													<linkclipref>clipitem-765</linkclipref>
													<mediatype>audio</mediatype>
													<trackindex>1</trackindex>
													<clipindex>1</clipindex>
													<groupindex>1</groupindex>
												</link>
												<link>
													<linkclipref>clipitem-766</linkclipref>
													<mediatype>audio</mediatype>
													<trackindex>2</trackindex>
													<clipindex>1</clipindex>
													<groupindex>1</groupindex>
												</link>
											</clipitem>
										</track>
									</video>
									<audio>
										<track>
											<clipitem id="clipitem-765">
												<masterclipid>masterclip-136</masterclipid>
												<name>(Shmoxd)_How to draw_ LINE VALUE COLOR!!!_x5iDohKd-VI_YT.mp4</name>
												<rate>
													<timebase>30</timebase>
													<ntsc>TRUE</ntsc>
												</rate>
												<file id="file-117"/>
												<sourcetrack>
													<mediatype>audio</mediatype>
													<trackindex>1</trackindex>
												</sourcetrack>
												<link>
													<linkclipref>clipitem-764</linkclipref>
													<mediatype>video</mediatype>
													<trackindex>1</trackindex>
													<clipindex>1</clipindex>
												</link>
												<link>
													<linkclipref>clipitem-765</linkclipref>
													<mediatype>audio</mediatype>
													<trackindex>1</trackindex>
													<clipindex>1</clipindex>
													<groupindex>1</groupindex>
												</link>
												<link>
													<linkclipref>clipitem-766</linkclipref>
													<mediatype>audio</mediatype>
													<trackindex>2</trackindex>
													<clipindex>1</clipindex>
													<groupindex>1</groupindex>
												</link>
											</clipitem>
										</track>
										<track>
											<clipitem id="clipitem-766">
												<masterclipid>masterclip-136</masterclipid>
												<name>(Shmoxd)_How to draw_ LINE VALUE COLOR!!!_x5iDohKd-VI_YT.mp4</name>
												<rate>
													<timebase>30</timebase>
													<ntsc>TRUE</ntsc>
												</rate>
												<file id="file-117"/>
												<sourcetrack>
													<mediatype>audio</mediatype>
													<trackindex>2</trackindex>
												</sourcetrack>
												<link>
													<linkclipref>clipitem-764</linkclipref>
													<mediatype>video</mediatype>
													<trackindex>1</trackindex>
													<clipindex>1</clipindex>
												</link>
												<link>
													<linkclipref>clipitem-765</linkclipref>
													<mediatype>audio</mediatype>
													<trackindex>1</trackindex>
													<clipindex>1</clipindex>
													<groupindex>1</groupindex>
												</link>
												<link>
													<linkclipref>clipitem-766</linkclipref>
													<mediatype>audio</mediatype>
													<trackindex>2</trackindex>
													<clipindex>1</clipindex>
													<groupindex>1</groupindex>
												</link>
											</clipitem>
										</track>
									</audio>
								</media>
								<logginginfo>
									<description></description>
									<scene></scene>
									<shottake></shottake>
									<lognote>https://www.youtube.com/watch?v=x5iDohKd-VI</lognote>
									<good></good>
									<originalvideofilename></originalvideofilename>
									<originalaudiofilename></originalaudiofilename>
								</logginginfo>
								<colorinfo>
									<lut></lut>
									<lut1></lut1>
									<asc_sop></asc_sop>
									<asc_sat></asc_sat>
									<lut2></lut2>
								</colorinfo>
								<labels>
									<label2>Iris</label2>
								</labels>
							</clip>
						</children>
					</bin>
					<bin>
						<name>how to tile a table</name>
						<labels>
							<label2>Mango</label2>
						</labels>
						<children>
							<clip id="masterclip-97" explodedTracks="true">
								<uuid>661d00db-7b9b-44f3-a4c3-d2187d5ac30a</uuid>
								<masterclipid>masterclip-97</masterclipid>
								<ismasterclip>TRUE</ismasterclip>
								<duration>27155</duration>
								<rate>
									<timebase>30</timebase>
									<ntsc>TRUE</ntsc>
								</rate>
								<name>(Shmoxd)_How to TILE a TABLE DIY_npywnrxuvrs_YT.mp4</name>
								<media>
									<video>
										<track>
											<clipitem id="clipitem-767">
												<masterclipid>masterclip-97</masterclipid>
												<name>(Shmoxd)_How to TILE a TABLE DIY_npywnrxuvrs_YT.mp4</name>
												<rate>
													<timebase>30</timebase>
													<ntsc>TRUE</ntsc>
												</rate>
												<alphatype>none</alphatype>
												<file id="file-84"/>
												<link>
													<linkclipref>clipitem-767</linkclipref>
													<mediatype>video</mediatype>
													<trackindex>1</trackindex>
													<clipindex>1</clipindex>
												</link>
												<link>
													<linkclipref>clipitem-768</linkclipref>
													<mediatype>audio</mediatype>
													<trackindex>1</trackindex>
													<clipindex>1</clipindex>
													<groupindex>1</groupindex>
												</link>
												<link>
													<linkclipref>clipitem-769</linkclipref>
													<mediatype>audio</mediatype>
													<trackindex>2</trackindex>
													<clipindex>1</clipindex>
													<groupindex>1</groupindex>
												</link>
											</clipitem>
										</track>
									</video>
									<audio>
										<track>
											<clipitem id="clipitem-768">
												<masterclipid>masterclip-97</masterclipid>
												<name>(Shmoxd)_How to TILE a TABLE DIY_npywnrxuvrs_YT.mp4</name>
												<rate>
													<timebase>30</timebase>
													<ntsc>TRUE</ntsc>
												</rate>
												<file id="file-84"/>
												<sourcetrack>
													<mediatype>audio</mediatype>
													<trackindex>1</trackindex>
												</sourcetrack>
												<link>
													<linkclipref>clipitem-767</linkclipref>
													<mediatype>video</mediatype>
													<trackindex>1</trackindex>
													<clipindex>1</clipindex>
												</link>
												<link>
													<linkclipref>clipitem-768</linkclipref>
													<mediatype>audio</mediatype>
													<trackindex>1</trackindex>
													<clipindex>1</clipindex>
													<groupindex>1</groupindex>
												</link>
												<link>
													<linkclipref>clipitem-769</linkclipref>
													<mediatype>audio</mediatype>
													<trackindex>2</trackindex>
													<clipindex>1</clipindex>
													<groupindex>1</groupindex>
												</link>
											</clipitem>
										</track>
										<track>
											<clipitem id="clipitem-769">
												<masterclipid>masterclip-97</masterclipid>
												<name>(Shmoxd)_How to TILE a TABLE DIY_npywnrxuvrs_YT.mp4</name>
												<rate>
													<timebase>30</timebase>
													<ntsc>TRUE</ntsc>
												</rate>
												<file id="file-84"/>
												<sourcetrack>
													<mediatype>audio</mediatype>
													<trackindex>2</trackindex>
												</sourcetrack>
												<link>
													<linkclipref>clipitem-767</linkclipref>
													<mediatype>video</mediatype>
													<trackindex>1</trackindex>
													<clipindex>1</clipindex>
												</link>
												<link>
													<linkclipref>clipitem-768</linkclipref>
													<mediatype>audio</mediatype>
													<trackindex>1</trackindex>
													<clipindex>1</clipindex>
													<groupindex>1</groupindex>
												</link>
												<link>
													<linkclipref>clipitem-769</linkclipref>
													<mediatype>audio</mediatype>
													<trackindex>2</trackindex>
													<clipindex>1</clipindex>
													<groupindex>1</groupindex>
												</link>
											</clipitem>
										</track>
									</audio>
								</media>
								<logginginfo>
									<description></description>
									<scene></scene>
									<shottake></shottake>
									<lognote>https://www.youtube.com/watch?v=npywnrxuvrs</lognote>
									<good></good>
									<originalvideofilename></originalvideofilename>
									<originalaudiofilename></originalaudiofilename>
								</logginginfo>
								<colorinfo>
									<lut></lut>
									<lut1></lut1>
									<asc_sop></asc_sop>
									<asc_sat></asc_sat>
									<lut2></lut2>
								</colorinfo>
								<labels>
									<label2>Iris</label2>
								</labels>
							</clip>
						</children>
					</bin>
					<bin>
						<name>crochet clutch</name>
						<labels>
							<label2>Mango</label2>
						</labels>
						<children>
							<clip id="masterclip-152" explodedTracks="true">
								<uuid>512165b5-632f-4fed-b2d9-5e78b5834e59</uuid>
								<masterclipid>masterclip-152</masterclipid>
								<ismasterclip>TRUE</ismasterclip>
								<duration>64418</duration>
								<rate>
									<timebase>30</timebase>
									<ntsc>FALSE</ntsc>
								</rate>
								<name>(Day’s Crochet)_The Cabana Clutch~ crochet boho summer clutch bag_X7wPdwX7veo_YT.mp4</name>
								<media>
									<video>
										<track>
											<clipitem id="clipitem-770">
												<masterclipid>masterclip-152</masterclipid>
												<name>(Day’s Crochet)_The Cabana Clutch~ crochet boho summer clutch bag_X7wPdwX7veo_YT.mp4</name>
												<rate>
													<timebase>30</timebase>
													<ntsc>FALSE</ntsc>
												</rate>
												<alphatype>none</alphatype>
												<file id="file-130"/>
												<link>
													<linkclipref>clipitem-770</linkclipref>
													<mediatype>video</mediatype>
													<trackindex>1</trackindex>
													<clipindex>1</clipindex>
												</link>
												<link>
													<linkclipref>clipitem-771</linkclipref>
													<mediatype>audio</mediatype>
													<trackindex>1</trackindex>
													<clipindex>1</clipindex>
													<groupindex>1</groupindex>
												</link>
												<link>
													<linkclipref>clipitem-772</linkclipref>
													<mediatype>audio</mediatype>
													<trackindex>2</trackindex>
													<clipindex>1</clipindex>
													<groupindex>1</groupindex>
												</link>
											</clipitem>
										</track>
									</video>
									<audio>
										<track>
											<clipitem id="clipitem-771">
												<masterclipid>masterclip-152</masterclipid>
												<name>(Day’s Crochet)_The Cabana Clutch~ crochet boho summer clutch bag_X7wPdwX7veo_YT.mp4</name>
												<rate>
													<timebase>30</timebase>
													<ntsc>FALSE</ntsc>
												</rate>
												<file id="file-130"/>
												<sourcetrack>
													<mediatype>audio</mediatype>
													<trackindex>1</trackindex>
												</sourcetrack>
												<link>
													<linkclipref>clipitem-770</linkclipref>
													<mediatype>video</mediatype>
													<trackindex>1</trackindex>
													<clipindex>1</clipindex>
												</link>
												<link>
													<linkclipref>clipitem-771</linkclipref>
													<mediatype>audio</mediatype>
													<trackindex>1</trackindex>
													<clipindex>1</clipindex>
													<groupindex>1</groupindex>
												</link>
												<link>
													<linkclipref>clipitem-772</linkclipref>
													<mediatype>audio</mediatype>
													<trackindex>2</trackindex>
													<clipindex>1</clipindex>
													<groupindex>1</groupindex>
												</link>
											</clipitem>
										</track>
										<track>
											<clipitem id="clipitem-772">
												<masterclipid>masterclip-152</masterclipid>
												<name>(Day’s Crochet)_The Cabana Clutch~ crochet boho summer clutch bag_X7wPdwX7veo_YT.mp4</name>
												<rate>
													<timebase>30</timebase>
													<ntsc>FALSE</ntsc>
												</rate>
												<file id="file-130"/>
												<sourcetrack>
													<mediatype>audio</mediatype>
													<trackindex>2</trackindex>
												</sourcetrack>
												<link>
													<linkclipref>clipitem-770</linkclipref>
													<mediatype>video</mediatype>
													<trackindex>1</trackindex>
													<clipindex>1</clipindex>
												</link>
												<link>
													<linkclipref>clipitem-771</linkclipref>
													<mediatype>audio</mediatype>
													<trackindex>1</trackindex>
													<clipindex>1</clipindex>
													<groupindex>1</groupindex>
												</link>
												<link>
													<linkclipref>clipitem-772</linkclipref>
													<mediatype>audio</mediatype>
													<trackindex>2</trackindex>
													<clipindex>1</clipindex>
													<groupindex>1</groupindex>
												</link>
											</clipitem>
										</track>
									</audio>
								</media>
								<logginginfo>
									<description></description>
									<scene></scene>
									<shottake></shottake>
									<lognote>https://www.youtube.com/watch?v=X7wPdwX7veo</lognote>
									<good></good>
									<originalvideofilename></originalvideofilename>
									<originalaudiofilename></originalaudiofilename>
								</logginginfo>
								<colorinfo>
									<lut></lut>
									<lut1></lut1>
									<asc_sop></asc_sop>
									<asc_sat></asc_sat>
									<lut2></lut2>
								</colorinfo>
								<labels>
									<label2>Iris</label2>
								</labels>
							</clip>
						</children>
					</bin>
					<bin>
						<name>how to antique a mirror</name>
						<labels>
							<label2>Mango</label2>
						</labels>
						<children>
							<clip id="masterclip-192" explodedTracks="true">
								<uuid>1171e5d4-f8d7-48b6-b83c-fc297f5383b6</uuid>
								<masterclipid>masterclip-192</masterclipid>
								<ismasterclip>TRUE</ismasterclip>
								<duration>12060</duration>
								<rate>
									<timebase>30</timebase>
									<ntsc>FALSE</ntsc>
								</rate>
								<name>(Shmoxd)_How To Antique a Mirror_GrWXxQ1X6VU_YT.mp4</name>
								<media>
									<video>
										<track>
											<clipitem id="clipitem-773">
												<masterclipid>masterclip-192</masterclipid>
												<name>(Shmoxd)_How To Antique a Mirror_GrWXxQ1X6VU_YT.mp4</name>
												<rate>
													<timebase>30</timebase>
													<ntsc>FALSE</ntsc>
												</rate>
												<alphatype>none</alphatype>
												<file id="file-164"/>
												<link>
													<linkclipref>clipitem-773</linkclipref>
													<mediatype>video</mediatype>
													<trackindex>1</trackindex>
													<clipindex>1</clipindex>
												</link>
												<link>
													<linkclipref>clipitem-774</linkclipref>
													<mediatype>audio</mediatype>
													<trackindex>1</trackindex>
													<clipindex>1</clipindex>
													<groupindex>1</groupindex>
												</link>
												<link>
													<linkclipref>clipitem-775</linkclipref>
													<mediatype>audio</mediatype>
													<trackindex>2</trackindex>
													<clipindex>1</clipindex>
													<groupindex>1</groupindex>
												</link>
											</clipitem>
										</track>
									</video>
									<audio>
										<track>
											<clipitem id="clipitem-774">
												<masterclipid>masterclip-192</masterclipid>
												<name>(Shmoxd)_How To Antique a Mirror_GrWXxQ1X6VU_YT.mp4</name>
												<rate>
													<timebase>30</timebase>
													<ntsc>FALSE</ntsc>
												</rate>
												<file id="file-164"/>
												<sourcetrack>
													<mediatype>audio</mediatype>
													<trackindex>1</trackindex>
												</sourcetrack>
												<link>
													<linkclipref>clipitem-773</linkclipref>
													<mediatype>video</mediatype>
													<trackindex>1</trackindex>
													<clipindex>1</clipindex>
												</link>
												<link>
													<linkclipref>clipitem-774</linkclipref>
													<mediatype>audio</mediatype>
													<trackindex>1</trackindex>
													<clipindex>1</clipindex>
													<groupindex>1</groupindex>
												</link>
												<link>
													<linkclipref>clipitem-775</linkclipref>
													<mediatype>audio</mediatype>
													<trackindex>2</trackindex>
													<clipindex>1</clipindex>
													<groupindex>1</groupindex>
												</link>
											</clipitem>
										</track>
										<track>
											<clipitem id="clipitem-775">
												<masterclipid>masterclip-192</masterclipid>
												<name>(Shmoxd)_How To Antique a Mirror_GrWXxQ1X6VU_YT.mp4</name>
												<rate>
													<timebase>30</timebase>
													<ntsc>FALSE</ntsc>
												</rate>
												<file id="file-164"/>
												<sourcetrack>
													<mediatype>audio</mediatype>
													<trackindex>2</trackindex>
												</sourcetrack>
												<link>
													<linkclipref>clipitem-773</linkclipref>
													<mediatype>video</mediatype>
													<trackindex>1</trackindex>
													<clipindex>1</clipindex>
												</link>
												<link>
													<linkclipref>clipitem-774</linkclipref>
													<mediatype>audio</mediatype>
													<trackindex>1</trackindex>
													<clipindex>1</clipindex>
													<groupindex>1</groupindex>
												</link>
												<link>
													<linkclipref>clipitem-775</linkclipref>
													<mediatype>audio</mediatype>
													<trackindex>2</trackindex>
													<clipindex>1</clipindex>
													<groupindex>1</groupindex>
												</link>
											</clipitem>
										</track>
									</audio>
								</media>
								<logginginfo>
									<description></description>
									<scene></scene>
									<shottake></shottake>
									<lognote>https://www.youtube.com/watch?v=GrWXxQ1X6VU</lognote>
									<good></good>
									<originalvideofilename></originalvideofilename>
									<originalaudiofilename></originalaudiofilename>
								</logginginfo>
								<colorinfo>
									<lut></lut>
									<lut1></lut1>
									<asc_sop></asc_sop>
									<asc_sat></asc_sat>
									<lut2></lut2>
								</colorinfo>
								<labels>
									<label2>Iris</label2>
								</labels>
							</clip>
						</children>
					</bin>
					<bin>
						<name>flower ring</name>
						<labels>
							<label2>Mango</label2>
						</labels>
						<children>
							<clip id="masterclip-173" explodedTracks="true">
								<uuid>755916cc-da60-429a-b200-caddddd72532</uuid>
								<masterclipid>masterclip-173</masterclipid>
								<ismasterclip>TRUE</ismasterclip>
								<duration>24949</duration>
								<rate>
									<timebase>30</timebase>
									<ntsc>FALSE</ntsc>
								</rate>
								<name>(Shmoxd)_HOW TO Inlay Flowers in a Ring (BUT WAIT! THERE'S MORE!)_EfvuBODvBb0_YT.mp4</name>
								<media>
									<video>
										<track>
											<clipitem id="clipitem-776">
												<masterclipid>masterclip-173</masterclipid>
												<name>(Shmoxd)_HOW TO Inlay Flowers in a Ring (BUT WAIT! THERE'S MORE!)_EfvuBODvBb0_YT.mp4</name>
												<rate>
													<timebase>30</timebase>
													<ntsc>FALSE</ntsc>
												</rate>
												<alphatype>none</alphatype>
												<file id="file-148"/>
												<link>
													<linkclipref>clipitem-776</linkclipref>
													<mediatype>video</mediatype>
													<trackindex>1</trackindex>
													<clipindex>1</clipindex>
												</link>
												<link>
													<linkclipref>clipitem-777</linkclipref>
													<mediatype>audio</mediatype>
													<trackindex>1</trackindex>
													<clipindex>1</clipindex>
													<groupindex>1</groupindex>
												</link>
												<link>
													<linkclipref>clipitem-778</linkclipref>
													<mediatype>audio</mediatype>
													<trackindex>2</trackindex>
													<clipindex>1</clipindex>
													<groupindex>1</groupindex>
												</link>
											</clipitem>
										</track>
									</video>
									<audio>
										<track>
											<clipitem id="clipitem-777">
												<masterclipid>masterclip-173</masterclipid>
												<name>(Shmoxd)_HOW TO Inlay Flowers in a Ring (BUT WAIT! THERE'S MORE!)_EfvuBODvBb0_YT.mp4</name>
												<rate>
													<timebase>30</timebase>
													<ntsc>FALSE</ntsc>
												</rate>
												<file id="file-148"/>
												<sourcetrack>
													<mediatype>audio</mediatype>
													<trackindex>1</trackindex>
												</sourcetrack>
												<link>
													<linkclipref>clipitem-776</linkclipref>
													<mediatype>video</mediatype>
													<trackindex>1</trackindex>
													<clipindex>1</clipindex>
												</link>
												<link>
													<linkclipref>clipitem-777</linkclipref>
													<mediatype>audio</mediatype>
													<trackindex>1</trackindex>
													<clipindex>1</clipindex>
													<groupindex>1</groupindex>
												</link>
												<link>
													<linkclipref>clipitem-778</linkclipref>
													<mediatype>audio</mediatype>
													<trackindex>2</trackindex>
													<clipindex>1</clipindex>
													<groupindex>1</groupindex>
												</link>
											</clipitem>
										</track>
										<track>
											<clipitem id="clipitem-778">
												<masterclipid>masterclip-173</masterclipid>
												<name>(Shmoxd)_HOW TO Inlay Flowers in a Ring (BUT WAIT! THERE'S MORE!)_EfvuBODvBb0_YT.mp4</name>
												<rate>
													<timebase>30</timebase>
													<ntsc>FALSE</ntsc>
												</rate>
												<file id="file-148"/>
												<sourcetrack>
													<mediatype>audio</mediatype>
													<trackindex>2</trackindex>
												</sourcetrack>
												<link>
													<linkclipref>clipitem-776</linkclipref>
													<mediatype>video</mediatype>
													<trackindex>1</trackindex>
													<clipindex>1</clipindex>
												</link>
												<link>
													<linkclipref>clipitem-777</linkclipref>
													<mediatype>audio</mediatype>
													<trackindex>1</trackindex>
													<clipindex>1</clipindex>
													<groupindex>1</groupindex>
												</link>
												<link>
													<linkclipref>clipitem-778</linkclipref>
													<mediatype>audio</mediatype>
													<trackindex>2</trackindex>
													<clipindex>1</clipindex>
													<groupindex>1</groupindex>
												</link>
											</clipitem>
										</track>
									</audio>
								</media>
								<logginginfo>
									<description></description>
									<scene></scene>
									<shottake></shottake>
									<lognote>https://www.youtube.com/watch?v=EfvuBODvBb0</lognote>
									<good></good>
									<originalvideofilename></originalvideofilename>
									<originalaudiofilename></originalaudiofilename>
								</logginginfo>
								<colorinfo>
									<lut></lut>
									<lut1></lut1>
									<asc_sop></asc_sop>
									<asc_sat></asc_sat>
									<lut2></lut2>
								</colorinfo>
								<labels>
									<label2>Iris</label2>
								</labels>
							</clip>
						</children>
					</bin>
					<bin>
						<name>3d printed mask</name>
						<labels>
							<label2>Mango</label2>
						</labels>
						<children>
							<clip id="masterclip-146" explodedTracks="true">
								<uuid>2709a33a-9911-483c-b3ef-3aeb27fabae6</uuid>
								<masterclipid>masterclip-146</masterclipid>
								<ismasterclip>TRUE</ismasterclip>
								<duration>24458</duration>
								<rate>
									<timebase>50</timebase>
									<ntsc>FALSE</ntsc>
								</rate>
								<name>(ADCArtAttack)_I customised a 3D PRINTED FACE... it was AMAZING_gjah6uAZnb0_YT.mp4</name>
								<media>
									<video>
										<track>
											<clipitem id="clipitem-779">
												<masterclipid>masterclip-146</masterclipid>
												<name>(ADCArtAttack)_I customised a 3D PRINTED FACE... it was AMAZING_gjah6uAZnb0_YT.mp4</name>
												<rate>
													<timebase>50</timebase>
													<ntsc>FALSE</ntsc>
												</rate>
												<alphatype>none</alphatype>
												<file id="file-125"/>
												<link>
													<linkclipref>clipitem-779</linkclipref>
													<mediatype>video</mediatype>
													<trackindex>1</trackindex>
													<clipindex>1</clipindex>
												</link>
												<link>
													<linkclipref>clipitem-780</linkclipref>
													<mediatype>audio</mediatype>
													<trackindex>1</trackindex>
													<clipindex>1</clipindex>
													<groupindex>1</groupindex>
												</link>
												<link>
													<linkclipref>clipitem-781</linkclipref>
													<mediatype>audio</mediatype>
													<trackindex>2</trackindex>
													<clipindex>1</clipindex>
													<groupindex>1</groupindex>
												</link>
											</clipitem>
										</track>
									</video>
									<audio>
										<track>
											<clipitem id="clipitem-780">
												<masterclipid>masterclip-146</masterclipid>
												<name>(ADCArtAttack)_I customised a 3D PRINTED FACE... it was AMAZING_gjah6uAZnb0_YT.mp4</name>
												<rate>
													<timebase>50</timebase>
													<ntsc>FALSE</ntsc>
												</rate>
												<file id="file-125"/>
												<sourcetrack>
													<mediatype>audio</mediatype>
													<trackindex>1</trackindex>
												</sourcetrack>
												<link>
													<linkclipref>clipitem-779</linkclipref>
													<mediatype>video</mediatype>
													<trackindex>1</trackindex>
													<clipindex>1</clipindex>
												</link>
												<link>
													<linkclipref>clipitem-780</linkclipref>
													<mediatype>audio</mediatype>
													<trackindex>1</trackindex>
													<clipindex>1</clipindex>
													<groupindex>1</groupindex>
												</link>
												<link>
													<linkclipref>clipitem-781</linkclipref>
													<mediatype>audio</mediatype>
													<trackindex>2</trackindex>
													<clipindex>1</clipindex>
													<groupindex>1</groupindex>
												</link>
											</clipitem>
										</track>
										<track>
											<clipitem id="clipitem-781">
												<masterclipid>masterclip-146</masterclipid>
												<name>(ADCArtAttack)_I customised a 3D PRINTED FACE... it was AMAZING_gjah6uAZnb0_YT.mp4</name>
												<rate>
													<timebase>50</timebase>
													<ntsc>FALSE</ntsc>
												</rate>
												<file id="file-125"/>
												<sourcetrack>
													<mediatype>audio</mediatype>
													<trackindex>2</trackindex>
												</sourcetrack>
												<link>
													<linkclipref>clipitem-779</linkclipref>
													<mediatype>video</mediatype>
													<trackindex>1</trackindex>
													<clipindex>1</clipindex>
												</link>
												<link>
													<linkclipref>clipitem-780</linkclipref>
													<mediatype>audio</mediatype>
													<trackindex>1</trackindex>
													<clipindex>1</clipindex>
													<groupindex>1</groupindex>
												</link>
												<link>
													<linkclipref>clipitem-781</linkclipref>
													<mediatype>audio</mediatype>
													<trackindex>2</trackindex>
													<clipindex>1</clipindex>
													<groupindex>1</groupindex>
												</link>
											</clipitem>
										</track>
									</audio>
								</media>
								<logginginfo>
									<description></description>
									<scene></scene>
									<shottake></shottake>
									<lognote>https://www.youtube.com/watch?v=gjah6uAZnb0</lognote>
									<good></good>
									<originalvideofilename></originalvideofilename>
									<originalaudiofilename></originalaudiofilename>
								</logginginfo>
								<colorinfo>
									<lut></lut>
									<lut1></lut1>
									<asc_sop></asc_sop>
									<asc_sat></asc_sat>
									<lut2></lut2>
								</colorinfo>
								<labels>
									<label2>Iris</label2>
								</labels>
							</clip>
						</children>
					</bin>
					<bin>
						<name>porch decor</name>
						<labels>
							<label2>Mango</label2>
						</labels>
						<children>
							<clip id="masterclip-132" explodedTracks="true">
								<uuid>7e6e2e04-cfe8-4a44-9402-fedf41334b29</uuid>
								<masterclipid>masterclip-132</masterclipid>
								<ismasterclip>TRUE</ismasterclip>
								<duration>80827</duration>
								<rate>
									<timebase>60</timebase>
									<ntsc>FALSE</ntsc>
								</rate>
								<name>(Coffee N Crafting)_4 HIGH END FRONT PORCH SUMMER DECOR DIYS~DOLLAR TREE DIYS~TEMU DIYS_ch8rh0JvVKo_YT.mp4</name>
								<media>
									<video>
										<track>
											<clipitem id="clipitem-782">
												<masterclipid>masterclip-132</masterclipid>
												<name>(Coffee N Crafting)_4 HIGH END FRONT PORCH SUMMER DECOR DIYS~DOLLAR TREE DIYS~TEMU DIYS_ch8rh0JvVKo_YT.mp4</name>
												<rate>
													<timebase>60</timebase>
													<ntsc>FALSE</ntsc>
												</rate>
												<alphatype>none</alphatype>
												<file id="file-114"/>
												<link>
													<linkclipref>clipitem-782</linkclipref>
													<mediatype>video</mediatype>
													<trackindex>1</trackindex>
													<clipindex>1</clipindex>
												</link>
												<link>
													<linkclipref>clipitem-783</linkclipref>
													<mediatype>audio</mediatype>
													<trackindex>1</trackindex>
													<clipindex>1</clipindex>
													<groupindex>1</groupindex>
												</link>
												<link>
													<linkclipref>clipitem-784</linkclipref>
													<mediatype>audio</mediatype>
													<trackindex>2</trackindex>
													<clipindex>1</clipindex>
													<groupindex>1</groupindex>
												</link>
											</clipitem>
										</track>
									</video>
									<audio>
										<track>
											<clipitem id="clipitem-783">
												<masterclipid>masterclip-132</masterclipid>
												<name>(Coffee N Crafting)_4 HIGH END FRONT PORCH SUMMER DECOR DIYS~DOLLAR TREE DIYS~TEMU DIYS_ch8rh0JvVKo_YT.mp4</name>
												<rate>
													<timebase>60</timebase>
													<ntsc>FALSE</ntsc>
												</rate>
												<file id="file-114"/>
												<sourcetrack>
													<mediatype>audio</mediatype>
													<trackindex>1</trackindex>
												</sourcetrack>
												<link>
													<linkclipref>clipitem-782</linkclipref>
													<mediatype>video</mediatype>
													<trackindex>1</trackindex>
													<clipindex>1</clipindex>
												</link>
												<link>
													<linkclipref>clipitem-783</linkclipref>
													<mediatype>audio</mediatype>
													<trackindex>1</trackindex>
													<clipindex>1</clipindex>
													<groupindex>1</groupindex>
												</link>
												<link>
													<linkclipref>clipitem-784</linkclipref>
													<mediatype>audio</mediatype>
													<trackindex>2</trackindex>
													<clipindex>1</clipindex>
													<groupindex>1</groupindex>
												</link>
											</clipitem>
										</track>
										<track>
											<clipitem id="clipitem-784">
												<masterclipid>masterclip-132</masterclipid>
												<name>(Coffee N Crafting)_4 HIGH END FRONT PORCH SUMMER DECOR DIYS~DOLLAR TREE DIYS~TEMU DIYS_ch8rh0JvVKo_YT.mp4</name>
												<rate>
													<timebase>60</timebase>
													<ntsc>FALSE</ntsc>
												</rate>
												<file id="file-114"/>
												<sourcetrack>
													<mediatype>audio</mediatype>
													<trackindex>2</trackindex>
												</sourcetrack>
												<link>
													<linkclipref>clipitem-782</linkclipref>
													<mediatype>video</mediatype>
													<trackindex>1</trackindex>
													<clipindex>1</clipindex>
												</link>
												<link>
													<linkclipref>clipitem-783</linkclipref>
													<mediatype>audio</mediatype>
													<trackindex>1</trackindex>
													<clipindex>1</clipindex>
													<groupindex>1</groupindex>
												</link>
												<link>
													<linkclipref>clipitem-784</linkclipref>
													<mediatype>audio</mediatype>
													<trackindex>2</trackindex>
													<clipindex>1</clipindex>
													<groupindex>1</groupindex>
												</link>
											</clipitem>
										</track>
									</audio>
								</media>
								<logginginfo>
									<description></description>
									<scene></scene>
									<shottake></shottake>
									<lognote>https://www.youtube.com/watch?v=ch8rh0JvVKo</lognote>
									<good></good>
									<originalvideofilename></originalvideofilename>
									<originalaudiofilename></originalaudiofilename>
								</logginginfo>
								<colorinfo>
									<lut></lut>
									<lut1></lut1>
									<asc_sop></asc_sop>
									<asc_sat></asc_sat>
									<lut2></lut2>
								</colorinfo>
								<labels>
									<label2>Iris</label2>
								</labels>
							</clip>
						</children>
					</bin>
					<bin>
						<name>wall decor</name>
						<labels>
							<label2>Mango</label2>
						</labels>
						<children>
							<clip id="masterclip-186" explodedTracks="true">
								<uuid>0eadf216-79a1-467b-90a8-f7918f4c184b</uuid>
								<masterclipid>masterclip-186</masterclipid>
								<ismasterclip>TRUE</ismasterclip>
								<duration>28206</duration>
								<rate>
									<timebase>24</timebase>
									<ntsc>TRUE</ntsc>
								</rate>
								<name>(Living to DIY with Rachel Metz)_DIY STUDIO BEDROOM MAKEOVER + EASY DIY WALL DECOR_WcyiwkUXOt8_YT.mp4</name>
								<media>
									<video>
										<track>
											<clipitem id="clipitem-785">
												<masterclipid>masterclip-186</masterclipid>
												<name>(Living to DIY with Rachel Metz)_DIY STUDIO BEDROOM MAKEOVER + EASY DIY WALL DECOR_WcyiwkUXOt8_YT.mp4</name>
												<rate>
													<timebase>24</timebase>
													<ntsc>TRUE</ntsc>
												</rate>
												<alphatype>none</alphatype>
												<file id="file-159"/>
												<link>
													<linkclipref>clipitem-785</linkclipref>
													<mediatype>video</mediatype>
													<trackindex>1</trackindex>
													<clipindex>1</clipindex>
												</link>
												<link>
													<linkclipref>clipitem-786</linkclipref>
													<mediatype>audio</mediatype>
													<trackindex>1</trackindex>
													<clipindex>1</clipindex>
													<groupindex>1</groupindex>
												</link>
												<link>
													<linkclipref>clipitem-787</linkclipref>
													<mediatype>audio</mediatype>
													<trackindex>2</trackindex>
													<clipindex>1</clipindex>
													<groupindex>1</groupindex>
												</link>
											</clipitem>
										</track>
									</video>
									<audio>
										<track>
											<clipitem id="clipitem-786">
												<masterclipid>masterclip-186</masterclipid>
												<name>(Living to DIY with Rachel Metz)_DIY STUDIO BEDROOM MAKEOVER + EASY DIY WALL DECOR_WcyiwkUXOt8_YT.mp4</name>
												<rate>
													<timebase>24</timebase>
													<ntsc>TRUE</ntsc>
												</rate>
												<file id="file-159"/>
												<sourcetrack>
													<mediatype>audio</mediatype>
													<trackindex>1</trackindex>
												</sourcetrack>
												<link>
													<linkclipref>clipitem-785</linkclipref>
													<mediatype>video</mediatype>
													<trackindex>1</trackindex>
													<clipindex>1</clipindex>
												</link>
												<link>
													<linkclipref>clipitem-786</linkclipref>
													<mediatype>audio</mediatype>
													<trackindex>1</trackindex>
													<clipindex>1</clipindex>
													<groupindex>1</groupindex>
												</link>
												<link>
													<linkclipref>clipitem-787</linkclipref>
													<mediatype>audio</mediatype>
													<trackindex>2</trackindex>
													<clipindex>1</clipindex>
													<groupindex>1</groupindex>
												</link>
											</clipitem>
										</track>
										<track>
											<clipitem id="clipitem-787">
												<masterclipid>masterclip-186</masterclipid>
												<name>(Living to DIY with Rachel Metz)_DIY STUDIO BEDROOM MAKEOVER + EASY DIY WALL DECOR_WcyiwkUXOt8_YT.mp4</name>
												<rate>
													<timebase>24</timebase>
													<ntsc>TRUE</ntsc>
												</rate>
												<file id="file-159"/>
												<sourcetrack>
													<mediatype>audio</mediatype>
													<trackindex>2</trackindex>
												</sourcetrack>
												<link>
													<linkclipref>clipitem-785</linkclipref>
													<mediatype>video</mediatype>
													<trackindex>1</trackindex>
													<clipindex>1</clipindex>
												</link>
												<link>
													<linkclipref>clipitem-786</linkclipref>
													<mediatype>audio</mediatype>
													<trackindex>1</trackindex>
													<clipindex>1</clipindex>
													<groupindex>1</groupindex>
												</link>
												<link>
													<linkclipref>clipitem-787</linkclipref>
													<mediatype>audio</mediatype>
													<trackindex>2</trackindex>
													<clipindex>1</clipindex>
													<groupindex>1</groupindex>
												</link>
											</clipitem>
										</track>
									</audio>
								</media>
								<logginginfo>
									<description></description>
									<scene></scene>
									<shottake></shottake>
									<lognote>https://www.youtube.com/watch?v=WcyiwkUXOt8</lognote>
									<good></good>
									<originalvideofilename></originalvideofilename>
									<originalaudiofilename></originalaudiofilename>
								</logginginfo>
								<colorinfo>
									<lut></lut>
									<lut1></lut1>
									<asc_sop></asc_sop>
									<asc_sat></asc_sat>
									<lut2></lut2>
								</colorinfo>
								<labels>
									<label2>Iris</label2>
								</labels>
							</clip>
						</children>
					</bin>
					<bin>
						<name>lamps</name>
						<labels>
							<label2>Mango</label2>
						</labels>
						<children>
							<clip id="masterclip-156" explodedTracks="true">
								<uuid>03497504-3f86-4f7a-a422-58f93c0d95fb</uuid>
								<masterclipid>masterclip-156</masterclipid>
								<ismasterclip>TRUE</ismasterclip>
								<duration>9096</duration>
								<rate>
									<timebase>25</timebase>
									<ntsc>FALSE</ntsc>
								</rate>
								<name>(Andy Elliott Craft &amp; Creations)_DIY Neon Cement Lamp_zLA5sGmSlts_YT.mp4</name>
								<media>
									<video>
										<track>
											<clipitem id="clipitem-788">
												<masterclipid>masterclip-156</masterclipid>
												<name>(Andy Elliott Craft &amp; Creations)_DIY Neon Cement Lamp_zLA5sGmSlts_YT.mp4</name>
												<rate>
													<timebase>25</timebase>
													<ntsc>FALSE</ntsc>
												</rate>
												<alphatype>none</alphatype>
												<file id="file-133"/>
												<link>
													<linkclipref>clipitem-788</linkclipref>
													<mediatype>video</mediatype>
													<trackindex>1</trackindex>
													<clipindex>1</clipindex>
												</link>
												<link>
													<linkclipref>clipitem-789</linkclipref>
													<mediatype>audio</mediatype>
													<trackindex>1</trackindex>
													<clipindex>1</clipindex>
													<groupindex>1</groupindex>
												</link>
												<link>
													<linkclipref>clipitem-790</linkclipref>
													<mediatype>audio</mediatype>
													<trackindex>2</trackindex>
													<clipindex>1</clipindex>
													<groupindex>1</groupindex>
												</link>
											</clipitem>
										</track>
									</video>
									<audio>
										<track>
											<clipitem id="clipitem-789">
												<masterclipid>masterclip-156</masterclipid>
												<name>(Andy Elliott Craft &amp; Creations)_DIY Neon Cement Lamp_zLA5sGmSlts_YT.mp4</name>
												<rate>
													<timebase>25</timebase>
													<ntsc>FALSE</ntsc>
												</rate>
												<file id="file-133"/>
												<sourcetrack>
													<mediatype>audio</mediatype>
													<trackindex>1</trackindex>
												</sourcetrack>
												<link>
													<linkclipref>clipitem-788</linkclipref>
													<mediatype>video</mediatype>
													<trackindex>1</trackindex>
													<clipindex>1</clipindex>
												</link>
												<link>
													<linkclipref>clipitem-789</linkclipref>
													<mediatype>audio</mediatype>
													<trackindex>1</trackindex>
													<clipindex>1</clipindex>
													<groupindex>1</groupindex>
												</link>
												<link>
													<linkclipref>clipitem-790</linkclipref>
													<mediatype>audio</mediatype>
													<trackindex>2</trackindex>
													<clipindex>1</clipindex>
													<groupindex>1</groupindex>
												</link>
											</clipitem>
										</track>
										<track>
											<clipitem id="clipitem-790">
												<masterclipid>masterclip-156</masterclipid>
												<name>(Andy Elliott Craft &amp; Creations)_DIY Neon Cement Lamp_zLA5sGmSlts_YT.mp4</name>
												<rate>
													<timebase>25</timebase>
													<ntsc>FALSE</ntsc>
												</rate>
												<file id="file-133"/>
												<sourcetrack>
													<mediatype>audio</mediatype>
													<trackindex>2</trackindex>
												</sourcetrack>
												<link>
													<linkclipref>clipitem-788</linkclipref>
													<mediatype>video</mediatype>
													<trackindex>1</trackindex>
													<clipindex>1</clipindex>
												</link>
												<link>
													<linkclipref>clipitem-789</linkclipref>
													<mediatype>audio</mediatype>
													<trackindex>1</trackindex>
													<clipindex>1</clipindex>
													<groupindex>1</groupindex>
												</link>
												<link>
													<linkclipref>clipitem-790</linkclipref>
													<mediatype>audio</mediatype>
													<trackindex>2</trackindex>
													<clipindex>1</clipindex>
													<groupindex>1</groupindex>
												</link>
											</clipitem>
										</track>
									</audio>
								</media>
								<logginginfo>
									<description>andy_elliott_</description>
									<scene></scene>
									<shottake></shottake>
									<lognote></lognote>
									<good></good>
									<originalvideofilename></originalvideofilename>
									<originalaudiofilename></originalaudiofilename>
								</logginginfo>
								<colorinfo>
									<lut></lut>
									<lut1></lut1>
									<asc_sop></asc_sop>
									<asc_sat></asc_sat>
									<lut2></lut2>
								</colorinfo>
								<labels>
									<label2>Iris</label2>
								</labels>
							</clip>
							<clip id="masterclip-158" explodedTracks="true">
								<uuid>b3d59fbf-824f-4e64-aa27-6bf9b8949114</uuid>
								<masterclipid>masterclip-158</masterclipid>
								<ismasterclip>TRUE</ismasterclip>
								<duration>4674</duration>
								<rate>
									<timebase>30</timebase>
									<ntsc>TRUE</ntsc>
								</rate>
								<name>(Andy Elliott Craft &amp; Creations)_Simple Halloween UV Lava Lamp!_TYaWWunIOXE_YT.mp4</name>
								<media>
									<video>
										<track>
											<clipitem id="clipitem-791">
												<masterclipid>masterclip-158</masterclipid>
												<name>(Andy Elliott Craft &amp; Creations)_Simple Halloween UV Lava Lamp!_TYaWWunIOXE_YT.mp4</name>
												<rate>
													<timebase>30</timebase>
													<ntsc>TRUE</ntsc>
												</rate>
												<alphatype>none</alphatype>
												<file id="file-135"/>
												<link>
													<linkclipref>clipitem-791</linkclipref>
													<mediatype>video</mediatype>
													<trackindex>1</trackindex>
													<clipindex>1</clipindex>
												</link>
												<link>
													<linkclipref>clipitem-792</linkclipref>
													<mediatype>audio</mediatype>
													<trackindex>1</trackindex>
													<clipindex>1</clipindex>
													<groupindex>1</groupindex>
												</link>
												<link>
													<linkclipref>clipitem-793</linkclipref>
													<mediatype>audio</mediatype>
													<trackindex>2</trackindex>
													<clipindex>1</clipindex>
													<groupindex>1</groupindex>
												</link>
											</clipitem>
										</track>
									</video>
									<audio>
										<track>
											<clipitem id="clipitem-792">
												<masterclipid>masterclip-158</masterclipid>
												<name>(Andy Elliott Craft &amp; Creations)_Simple Halloween UV Lava Lamp!_TYaWWunIOXE_YT.mp4</name>
												<rate>
													<timebase>30</timebase>
													<ntsc>TRUE</ntsc>
												</rate>
												<file id="file-135"/>
												<sourcetrack>
													<mediatype>audio</mediatype>
													<trackindex>1</trackindex>
												</sourcetrack>
												<link>
													<linkclipref>clipitem-791</linkclipref>
													<mediatype>video</mediatype>
													<trackindex>1</trackindex>
													<clipindex>1</clipindex>
												</link>
												<link>
													<linkclipref>clipitem-792</linkclipref>
													<mediatype>audio</mediatype>
													<trackindex>1</trackindex>
													<clipindex>1</clipindex>
													<groupindex>1</groupindex>
												</link>
												<link>
													<linkclipref>clipitem-793</linkclipref>
													<mediatype>audio</mediatype>
													<trackindex>2</trackindex>
													<clipindex>1</clipindex>
													<groupindex>1</groupindex>
												</link>
											</clipitem>
										</track>
										<track>
											<clipitem id="clipitem-793">
												<masterclipid>masterclip-158</masterclipid>
												<name>(Andy Elliott Craft &amp; Creations)_Simple Halloween UV Lava Lamp!_TYaWWunIOXE_YT.mp4</name>
												<rate>
													<timebase>30</timebase>
													<ntsc>TRUE</ntsc>
												</rate>
												<file id="file-135"/>
												<sourcetrack>
													<mediatype>audio</mediatype>
													<trackindex>2</trackindex>
												</sourcetrack>
												<link>
													<linkclipref>clipitem-791</linkclipref>
													<mediatype>video</mediatype>
													<trackindex>1</trackindex>
													<clipindex>1</clipindex>
												</link>
												<link>
													<linkclipref>clipitem-792</linkclipref>
													<mediatype>audio</mediatype>
													<trackindex>1</trackindex>
													<clipindex>1</clipindex>
													<groupindex>1</groupindex>
												</link>
												<link>
													<linkclipref>clipitem-793</linkclipref>
													<mediatype>audio</mediatype>
													<trackindex>2</trackindex>
													<clipindex>1</clipindex>
													<groupindex>1</groupindex>
												</link>
											</clipitem>
										</track>
									</audio>
								</media>
								<logginginfo>
									<description>Simple Halloween UV Lava Lamp!&#10;andy_elliott_</description>
									<scene></scene>
									<shottake></shottake>
									<lognote>https://www.youtube.com/watch?v=TYaWWunIOXE</lognote>
									<good></good>
									<originalvideofilename></originalvideofilename>
									<originalaudiofilename></originalaudiofilename>
								</logginginfo>
								<colorinfo>
									<lut></lut>
									<lut1></lut1>
									<asc_sop></asc_sop>
									<asc_sat></asc_sat>
									<lut2></lut2>
								</colorinfo>
								<labels>
									<label2>Iris</label2>
								</labels>
							</clip>
							<clip id="masterclip-157" explodedTracks="true">
								<uuid>42b0da5a-d771-42db-8d72-bb4ea3e0d7fb</uuid>
								<masterclipid>masterclip-157</masterclipid>
								<ismasterclip>TRUE</ismasterclip>
								<duration>1053</duration>
								<rate>
									<timebase>30</timebase>
									<ntsc>FALSE</ntsc>
								</rate>
								<name>(kary_diy)_7032752613783457071.mp4</name>
								<media>
									<video>
										<track>
											<clipitem id="clipitem-794">
												<masterclipid>masterclip-157</masterclipid>
												<name>(kary_diy)_7032752613783457071.mp4</name>
												<rate>
													<timebase>30</timebase>
													<ntsc>FALSE</ntsc>
												</rate>
												<alphatype>none</alphatype>
												<file id="file-134"/>
												<link>
													<linkclipref>clipitem-794</linkclipref>
													<mediatype>video</mediatype>
													<trackindex>1</trackindex>
													<clipindex>1</clipindex>
												</link>
												<link>
													<linkclipref>clipitem-795</linkclipref>
													<mediatype>audio</mediatype>
													<trackindex>1</trackindex>
													<clipindex>1</clipindex>
													<groupindex>1</groupindex>
												</link>
												<link>
													<linkclipref>clipitem-796</linkclipref>
													<mediatype>audio</mediatype>
													<trackindex>2</trackindex>
													<clipindex>1</clipindex>
													<groupindex>1</groupindex>
												</link>
											</clipitem>
										</track>
									</video>
									<audio>
										<track>
											<clipitem id="clipitem-795">
												<masterclipid>masterclip-157</masterclipid>
												<name>(kary_diy)_7032752613783457071.mp4</name>
												<rate>
													<timebase>30</timebase>
													<ntsc>FALSE</ntsc>
												</rate>
												<file id="file-134"/>
												<sourcetrack>
													<mediatype>audio</mediatype>
													<trackindex>1</trackindex>
												</sourcetrack>
												<link>
													<linkclipref>clipitem-794</linkclipref>
													<mediatype>video</mediatype>
													<trackindex>1</trackindex>
													<clipindex>1</clipindex>
												</link>
												<link>
													<linkclipref>clipitem-795</linkclipref>
													<mediatype>audio</mediatype>
													<trackindex>1</trackindex>
													<clipindex>1</clipindex>
													<groupindex>1</groupindex>
												</link>
												<link>
													<linkclipref>clipitem-796</linkclipref>
													<mediatype>audio</mediatype>
													<trackindex>2</trackindex>
													<clipindex>1</clipindex>
													<groupindex>1</groupindex>
												</link>
											</clipitem>
										</track>
										<track>
											<clipitem id="clipitem-796">
												<masterclipid>masterclip-157</masterclipid>
												<name>(kary_diy)_7032752613783457071.mp4</name>
												<rate>
													<timebase>30</timebase>
													<ntsc>FALSE</ntsc>
												</rate>
												<file id="file-134"/>
												<sourcetrack>
													<mediatype>audio</mediatype>
													<trackindex>2</trackindex>
												</sourcetrack>
												<link>
													<linkclipref>clipitem-794</linkclipref>
													<mediatype>video</mediatype>
													<trackindex>1</trackindex>
													<clipindex>1</clipindex>
												</link>
												<link>
													<linkclipref>clipitem-795</linkclipref>
													<mediatype>audio</mediatype>
													<trackindex>1</trackindex>
													<clipindex>1</clipindex>
													<groupindex>1</groupindex>
												</link>
												<link>
													<linkclipref>clipitem-796</linkclipref>
													<mediatype>audio</mediatype>
													<trackindex>2</trackindex>
													<clipindex>1</clipindex>
													<groupindex>1</groupindex>
												</link>
											</clipitem>
										</track>
									</audio>
								</media>
								<logginginfo>
									<description></description>
									<scene></scene>
									<shottake></shottake>
									<lognote></lognote>
									<good></good>
									<originalvideofilename></originalvideofilename>
									<originalaudiofilename></originalaudiofilename>
								</logginginfo>
								<colorinfo>
									<lut></lut>
									<lut1></lut1>
									<asc_sop></asc_sop>
									<asc_sat></asc_sat>
									<lut2></lut2>
								</colorinfo>
								<labels>
									<label2>Iris</label2>
								</labels>
							</clip>
						</children>
					</bin>
					<bin>
						<name>resin</name>
						<labels>
							<label2>Mango</label2>
						</labels>
						<children>
							<clip id="masterclip-198" explodedTracks="true">
								<uuid>eebcd63e-069c-4586-81b8-5da35b5140ed</uuid>
								<masterclipid>masterclip-198</masterclipid>
								<ismasterclip>TRUE</ismasterclip>
								<duration>23905</duration>
								<rate>
									<timebase>60</timebase>
									<ntsc>FALSE</ntsc>
								</rate>
								<name>(cinethia)_Creating a floral resin ashtray_T59_rjokrW0_YT.mp4</name>
								<media>
									<video>
										<track>
											<clipitem id="clipitem-797">
												<masterclipid>masterclip-198</masterclipid>
												<name>(cinethia)_Creating a floral resin ashtray_T59_rjokrW0_YT.mp4</name>
												<rate>
													<timebase>60</timebase>
													<ntsc>FALSE</ntsc>
												</rate>
												<alphatype>none</alphatype>
												<file id="file-169"/>
												<link>
													<linkclipref>clipitem-797</linkclipref>
													<mediatype>video</mediatype>
													<trackindex>1</trackindex>
													<clipindex>1</clipindex>
												</link>
												<link>
													<linkclipref>clipitem-798</linkclipref>
													<mediatype>audio</mediatype>
													<trackindex>1</trackindex>
													<clipindex>1</clipindex>
													<groupindex>1</groupindex>
												</link>
												<link>
													<linkclipref>clipitem-799</linkclipref>
													<mediatype>audio</mediatype>
													<trackindex>2</trackindex>
													<clipindex>1</clipindex>
													<groupindex>1</groupindex>
												</link>
											</clipitem>
										</track>
									</video>
									<audio>
										<track>
											<clipitem id="clipitem-798">
												<masterclipid>masterclip-198</masterclipid>
												<name>(cinethia)_Creating a floral resin ashtray_T59_rjokrW0_YT.mp4</name>
												<rate>
													<timebase>60</timebase>
													<ntsc>FALSE</ntsc>
												</rate>
												<file id="file-169"/>
												<sourcetrack>
													<mediatype>audio</mediatype>
													<trackindex>1</trackindex>
												</sourcetrack>
												<link>
													<linkclipref>clipitem-797</linkclipref>
													<mediatype>video</mediatype>
													<trackindex>1</trackindex>
													<clipindex>1</clipindex>
												</link>
												<link>
													<linkclipref>clipitem-798</linkclipref>
													<mediatype>audio</mediatype>
													<trackindex>1</trackindex>
													<clipindex>1</clipindex>
													<groupindex>1</groupindex>
												</link>
												<link>
													<linkclipref>clipitem-799</linkclipref>
													<mediatype>audio</mediatype>
													<trackindex>2</trackindex>
													<clipindex>1</clipindex>
													<groupindex>1</groupindex>
												</link>
											</clipitem>
										</track>
										<track>
											<clipitem id="clipitem-799">
												<masterclipid>masterclip-198</masterclipid>
												<name>(cinethia)_Creating a floral resin ashtray_T59_rjokrW0_YT.mp4</name>
												<rate>
													<timebase>60</timebase>
													<ntsc>FALSE</ntsc>
												</rate>
												<file id="file-169"/>
												<sourcetrack>
													<mediatype>audio</mediatype>
													<trackindex>2</trackindex>
												</sourcetrack>
												<link>
													<linkclipref>clipitem-797</linkclipref>
													<mediatype>video</mediatype>
													<trackindex>1</trackindex>
													<clipindex>1</clipindex>
												</link>
												<link>
													<linkclipref>clipitem-798</linkclipref>
													<mediatype>audio</mediatype>
													<trackindex>1</trackindex>
													<clipindex>1</clipindex>
													<groupindex>1</groupindex>
												</link>
												<link>
													<linkclipref>clipitem-799</linkclipref>
													<mediatype>audio</mediatype>
													<trackindex>2</trackindex>
													<clipindex>1</clipindex>
													<groupindex>1</groupindex>
												</link>
											</clipitem>
										</track>
									</audio>
								</media>
								<logginginfo>
									<description>Creating a floral resin ashtray</description>
									<scene></scene>
									<shottake></shottake>
									<lognote>https://www.youtube.com/watch?v=T59_rjokrW0</lognote>
									<good></good>
									<originalvideofilename></originalvideofilename>
									<originalaudiofilename></originalaudiofilename>
								</logginginfo>
								<colorinfo>
									<lut></lut>
									<lut1></lut1>
									<asc_sop></asc_sop>
									<asc_sat></asc_sat>
									<lut2></lut2>
								</colorinfo>
								<labels>
									<label2>Iris</label2>
								</labels>
							</clip>
							<clip id="masterclip-197" explodedTracks="true">
								<uuid>40bb82cc-1468-4de4-aaf6-3b7ec8faed12</uuid>
								<masterclipid>masterclip-197</masterclipid>
								<ismasterclip>TRUE</ismasterclip>
								<duration>591</duration>
								<rate>
									<timebase>59</timebase>
									<ntsc>FALSE</ntsc>
								</rate>
								<name>(cinethia)_Resin cat with flower face_UdizfUsyf6w_YT.mp4</name>
								<media>
									<video>
										<track>
											<clipitem id="clipitem-800">
												<masterclipid>masterclip-197</masterclipid>
												<name>(cinethia)_Resin cat with flower face_UdizfUsyf6w_YT.mp4</name>
												<rate>
													<timebase>59</timebase>
													<ntsc>FALSE</ntsc>
												</rate>
												<alphatype>none</alphatype>
												<file id="file-168"/>
												<link>
													<linkclipref>clipitem-800</linkclipref>
													<mediatype>video</mediatype>
													<trackindex>1</trackindex>
													<clipindex>1</clipindex>
												</link>
												<link>
													<linkclipref>clipitem-801</linkclipref>
													<mediatype>audio</mediatype>
													<trackindex>1</trackindex>
													<clipindex>1</clipindex>
													<groupindex>1</groupindex>
												</link>
												<link>
													<linkclipref>clipitem-802</linkclipref>
													<mediatype>audio</mediatype>
													<trackindex>2</trackindex>
													<clipindex>1</clipindex>
													<groupindex>1</groupindex>
												</link>
											</clipitem>
										</track>
									</video>
									<audio>
										<track>
											<clipitem id="clipitem-801">
												<masterclipid>masterclip-197</masterclipid>
												<name>(cinethia)_Resin cat with flower face_UdizfUsyf6w_YT.mp4</name>
												<rate>
													<timebase>59</timebase>
													<ntsc>FALSE</ntsc>
												</rate>
												<file id="file-168"/>
												<sourcetrack>
													<mediatype>audio</mediatype>
													<trackindex>1</trackindex>
												</sourcetrack>
												<link>
													<linkclipref>clipitem-800</linkclipref>
													<mediatype>video</mediatype>
													<trackindex>1</trackindex>
													<clipindex>1</clipindex>
												</link>
												<link>
													<linkclipref>clipitem-801</linkclipref>
													<mediatype>audio</mediatype>
													<trackindex>1</trackindex>
													<clipindex>1</clipindex>
													<groupindex>1</groupindex>
												</link>
												<link>
													<linkclipref>clipitem-802</linkclipref>
													<mediatype>audio</mediatype>
													<trackindex>2</trackindex>
													<clipindex>1</clipindex>
													<groupindex>1</groupindex>
												</link>
											</clipitem>
										</track>
										<track>
											<clipitem id="clipitem-802">
												<masterclipid>masterclip-197</masterclipid>
												<name>(cinethia)_Resin cat with flower face_UdizfUsyf6w_YT.mp4</name>
												<rate>
													<timebase>59</timebase>
													<ntsc>FALSE</ntsc>
												</rate>
												<file id="file-168"/>
												<sourcetrack>
													<mediatype>audio</mediatype>
													<trackindex>2</trackindex>
												</sourcetrack>
												<link>
													<linkclipref>clipitem-800</linkclipref>
													<mediatype>video</mediatype>
													<trackindex>1</trackindex>
													<clipindex>1</clipindex>
												</link>
												<link>
													<linkclipref>clipitem-801</linkclipref>
													<mediatype>audio</mediatype>
													<trackindex>1</trackindex>
													<clipindex>1</clipindex>
													<groupindex>1</groupindex>
												</link>
												<link>
													<linkclipref>clipitem-802</linkclipref>
													<mediatype>audio</mediatype>
													<trackindex>2</trackindex>
													<clipindex>1</clipindex>
													<groupindex>1</groupindex>
												</link>
											</clipitem>
										</track>
									</audio>
								</media>
								<logginginfo>
									<description>Resin cat with flower face</description>
									<scene></scene>
									<shottake></shottake>
									<lognote>https://www.youtube.com/watch?v=UdizfUsyf6w</lognote>
									<good></good>
									<originalvideofilename></originalvideofilename>
									<originalaudiofilename></originalaudiofilename>
								</logginginfo>
								<colorinfo>
									<lut></lut>
									<lut1></lut1>
									<asc_sop></asc_sop>
									<asc_sat></asc_sat>
									<lut2></lut2>
								</colorinfo>
								<labels>
									<label2>Iris</label2>
								</labels>
							</clip>
							<clip id="masterclip-195" explodedTracks="true">
								<uuid>ae19c76a-c6fd-474e-bd9c-acf15f0ee1b7</uuid>
								<masterclipid>masterclip-195</masterclipid>
								<ismasterclip>TRUE</ismasterclip>
								<duration>874</duration>
								<rate>
									<timebase>30</timebase>
									<ntsc>FALSE</ntsc>
								</rate>
								<name>(cinethia)_Resin jar with sprinkles! #resin #resinpour #resinart #functionalart #usefulgadgets #resinpro_qVYulUAEL34_YT.mp4</name>
								<media>
									<video>
										<track>
											<clipitem id="clipitem-803">
												<masterclipid>masterclip-195</masterclipid>
												<name>(cinethia)_Resin jar with sprinkles! #resin #resinpour #resinart #functionalart #usefulgadgets #resinpro_qVYulUAEL34_YT.mp4</name>
												<rate>
													<timebase>30</timebase>
													<ntsc>FALSE</ntsc>
												</rate>
												<alphatype>none</alphatype>
												<file id="file-166"/>
												<link>
													<linkclipref>clipitem-803</linkclipref>
													<mediatype>video</mediatype>
													<trackindex>1</trackindex>
													<clipindex>1</clipindex>
												</link>
												<link>
													<linkclipref>clipitem-804</linkclipref>
													<mediatype>audio</mediatype>
													<trackindex>1</trackindex>
													<clipindex>1</clipindex>
													<groupindex>1</groupindex>
												</link>
												<link>
													<linkclipref>clipitem-805</linkclipref>
													<mediatype>audio</mediatype>
													<trackindex>2</trackindex>
													<clipindex>1</clipindex>
													<groupindex>1</groupindex>
												</link>
											</clipitem>
										</track>
									</video>
									<audio>
										<track>
											<clipitem id="clipitem-804">
												<masterclipid>masterclip-195</masterclipid>
												<name>(cinethia)_Resin jar with sprinkles! #resin #resinpour #resinart #functionalart #usefulgadgets #resinpro_qVYulUAEL34_YT.mp4</name>
												<rate>
													<timebase>30</timebase>
													<ntsc>FALSE</ntsc>
												</rate>
												<file id="file-166"/>
												<sourcetrack>
													<mediatype>audio</mediatype>
													<trackindex>1</trackindex>
												</sourcetrack>
												<link>
													<linkclipref>clipitem-803</linkclipref>
													<mediatype>video</mediatype>
													<trackindex>1</trackindex>
													<clipindex>1</clipindex>
												</link>
												<link>
													<linkclipref>clipitem-804</linkclipref>
													<mediatype>audio</mediatype>
													<trackindex>1</trackindex>
													<clipindex>1</clipindex>
													<groupindex>1</groupindex>
												</link>
												<link>
													<linkclipref>clipitem-805</linkclipref>
													<mediatype>audio</mediatype>
													<trackindex>2</trackindex>
													<clipindex>1</clipindex>
													<groupindex>1</groupindex>
												</link>
											</clipitem>
										</track>
										<track>
											<clipitem id="clipitem-805">
												<masterclipid>masterclip-195</masterclipid>
												<name>(cinethia)_Resin jar with sprinkles! #resin #resinpour #resinart #functionalart #usefulgadgets #resinpro_qVYulUAEL34_YT.mp4</name>
												<rate>
													<timebase>30</timebase>
													<ntsc>FALSE</ntsc>
												</rate>
												<file id="file-166"/>
												<sourcetrack>
													<mediatype>audio</mediatype>
													<trackindex>2</trackindex>
												</sourcetrack>
												<link>
													<linkclipref>clipitem-803</linkclipref>
													<mediatype>video</mediatype>
													<trackindex>1</trackindex>
													<clipindex>1</clipindex>
												</link>
												<link>
													<linkclipref>clipitem-804</linkclipref>
													<mediatype>audio</mediatype>
													<trackindex>1</trackindex>
													<clipindex>1</clipindex>
													<groupindex>1</groupindex>
												</link>
												<link>
													<linkclipref>clipitem-805</linkclipref>
													<mediatype>audio</mediatype>
													<trackindex>2</trackindex>
													<clipindex>1</clipindex>
													<groupindex>1</groupindex>
												</link>
											</clipitem>
										</track>
									</audio>
								</media>
								<logginginfo>
									<description></description>
									<scene></scene>
									<shottake></shottake>
									<lognote></lognote>
									<good></good>
									<originalvideofilename></originalvideofilename>
									<originalaudiofilename></originalaudiofilename>
								</logginginfo>
								<colorinfo>
									<lut></lut>
									<lut1></lut1>
									<asc_sop></asc_sop>
									<asc_sat></asc_sat>
									<lut2></lut2>
								</colorinfo>
								<labels>
									<label2>Iris</label2>
								</labels>
							</clip>
							<clip id="masterclip-196" explodedTracks="true">
								<uuid>fcc7a5d5-588c-442f-be7d-a0e1b3b00451</uuid>
								<masterclipid>masterclip-196</masterclipid>
								<ismasterclip>TRUE</ismasterclip>
								<duration>2995</duration>
								<rate>
									<timebase>30</timebase>
									<ntsc>FALSE</ntsc>
								</rate>
								<name>(kellyybellyy62)_CC_Yz8JnzB9_IG.mp4</name>
								<media>
									<video>
										<track>
											<clipitem id="clipitem-806">
												<masterclipid>masterclip-196</masterclipid>
												<name>(kellyybellyy62)_CC_Yz8JnzB9_IG.mp4</name>
												<rate>
													<timebase>30</timebase>
													<ntsc>FALSE</ntsc>
												</rate>
												<alphatype>none</alphatype>
												<file id="file-167"/>
												<link>
													<linkclipref>clipitem-806</linkclipref>
													<mediatype>video</mediatype>
													<trackindex>1</trackindex>
													<clipindex>1</clipindex>
												</link>
												<link>
													<linkclipref>clipitem-807</linkclipref>
													<mediatype>audio</mediatype>
													<trackindex>1</trackindex>
													<clipindex>1</clipindex>
													<groupindex>1</groupindex>
												</link>
												<link>
													<linkclipref>clipitem-808</linkclipref>
													<mediatype>audio</mediatype>
													<trackindex>2</trackindex>
													<clipindex>1</clipindex>
													<groupindex>1</groupindex>
												</link>
											</clipitem>
										</track>
									</video>
									<audio>
										<track>
											<clipitem id="clipitem-807">
												<masterclipid>masterclip-196</masterclipid>
												<name>(kellyybellyy62)_CC_Yz8JnzB9_IG.mp4</name>
												<rate>
													<timebase>30</timebase>
													<ntsc>FALSE</ntsc>
												</rate>
												<file id="file-167"/>
												<sourcetrack>
													<mediatype>audio</mediatype>
													<trackindex>1</trackindex>
												</sourcetrack>
												<link>
													<linkclipref>clipitem-806</linkclipref>
													<mediatype>video</mediatype>
													<trackindex>1</trackindex>
													<clipindex>1</clipindex>
												</link>
												<link>
													<linkclipref>clipitem-807</linkclipref>
													<mediatype>audio</mediatype>
													<trackindex>1</trackindex>
													<clipindex>1</clipindex>
													<groupindex>1</groupindex>
												</link>
												<link>
													<linkclipref>clipitem-808</linkclipref>
													<mediatype>audio</mediatype>
													<trackindex>2</trackindex>
													<clipindex>1</clipindex>
													<groupindex>1</groupindex>
												</link>
											</clipitem>
										</track>
										<track>
											<clipitem id="clipitem-808">
												<masterclipid>masterclip-196</masterclipid>
												<name>(kellyybellyy62)_CC_Yz8JnzB9_IG.mp4</name>
												<rate>
													<timebase>30</timebase>
													<ntsc>FALSE</ntsc>
												</rate>
												<file id="file-167"/>
												<sourcetrack>
													<mediatype>audio</mediatype>
													<trackindex>2</trackindex>
												</sourcetrack>
												<link>
													<linkclipref>clipitem-806</linkclipref>
													<mediatype>video</mediatype>
													<trackindex>1</trackindex>
													<clipindex>1</clipindex>
												</link>
												<link>
													<linkclipref>clipitem-807</linkclipref>
													<mediatype>audio</mediatype>
													<trackindex>1</trackindex>
													<clipindex>1</clipindex>
													<groupindex>1</groupindex>
												</link>
												<link>
													<linkclipref>clipitem-808</linkclipref>
													<mediatype>audio</mediatype>
													<trackindex>2</trackindex>
													<clipindex>1</clipindex>
													<groupindex>1</groupindex>
												</link>
											</clipitem>
										</track>
									</audio>
								</media>
								<logginginfo>
									<description></description>
									<scene></scene>
									<shottake></shottake>
									<lognote></lognote>
									<good></good>
									<originalvideofilename></originalvideofilename>
									<originalaudiofilename></originalaudiofilename>
								</logginginfo>
								<colorinfo>
									<lut></lut>
									<lut1></lut1>
									<asc_sop></asc_sop>
									<asc_sat></asc_sat>
									<lut2></lut2>
								</colorinfo>
								<labels>
									<label2>Iris</label2>
								</labels>
							</clip>
						</children>
					</bin>
				</children>
			</bin>
			<bin>
				<name>2_Lower Thirds</name>
				<labels>
					<label2>Mango</label2>
				</labels>
				<children>
					<bin>
						<name>used</name>
						<labels>
							<label2>Mango</label2>
						</labels>
						<children>
							<clip id="masterclip-100" explodedTracks="true">
								<uuid>7360f7b3-9fe0-41bc-a136-5843a3265c35</uuid>
								<masterclipid>masterclip-100</masterclipid>
								<ismasterclip>TRUE</ismasterclip>
								<duration>5701</duration>
								<rate>
									<timebase>30</timebase>
									<ntsc>FALSE</ntsc>
								</rate>
								<name>PETAL TO THE METAL</name>
								<media>
									<video>
										<track>
											<clipitem id="clipitem-809">
												<masterclipid>masterclip-100</masterclipid>
												<name>PETAL TO THE METAL</name>
												<rate>
													<timebase>30</timebase>
													<ntsc>FALSE</ntsc>
												</rate>
												<alphatype>straight</alphatype>
												<file id="file-87"/>
											</clipitem>
										</track>
									</video>
								</media>
								<logginginfo>
									<description></description>
									<scene></scene>
									<shottake></shottake>
									<lognote></lognote>
									<good></good>
									<originalvideofilename></originalvideofilename>
									<originalaudiofilename></originalaudiofilename>
								</logginginfo>
								<colorinfo>
									<lut></lut>
									<lut1></lut1>
									<asc_sop></asc_sop>
									<asc_sat></asc_sat>
									<lut2></lut2>
								</colorinfo>
								<labels>
									<label2>Rose</label2>
								</labels>
							</clip>
							<clip id="masterclip-101" explodedTracks="true">
								<uuid>8464d2eb-2d32-42d2-9735-2df9a5ff3eb2</uuid>
								<masterclipid>masterclip-101</masterclipid>
								<ismasterclip>TRUE</ismasterclip>
								<duration>5701</duration>
								<rate>
									<timebase>30</timebase>
									<ntsc>FALSE</ntsc>
								</rate>
								<name>HOW TO TILE A TABLE</name>
								<media>
									<video>
										<track>
											<clipitem id="clipitem-810">
												<masterclipid>masterclip-101</masterclipid>
												<name>HOW TO TILE A TABLE</name>
												<rate>
													<timebase>30</timebase>
													<ntsc>FALSE</ntsc>
												</rate>
												<alphatype>straight</alphatype>
												<file id="file-88"/>
											</clipitem>
										</track>
									</video>
								</media>
								<logginginfo>
									<description></description>
									<scene></scene>
									<shottake></shottake>
									<lognote></lognote>
									<good></good>
									<originalvideofilename></originalvideofilename>
									<originalaudiofilename></originalaudiofilename>
								</logginginfo>
								<colorinfo>
									<lut></lut>
									<lut1></lut1>
									<asc_sop></asc_sop>
									<asc_sat></asc_sat>
									<lut2></lut2>
								</colorinfo>
								<labels>
									<label2>Rose</label2>
								</labels>
							</clip>
							<clip id="masterclip-115" explodedTracks="true">
								<uuid>086ae26f-6af9-48a4-92c5-8894a8ed7fe7</uuid>
								<masterclipid>masterclip-115</masterclipid>
								<ismasterclip>TRUE</ismasterclip>
								<duration>5701</duration>
								<rate>
									<timebase>30</timebase>
									<ntsc>FALSE</ntsc>
								</rate>
								<name>CUTE CROCHETED DRESS</name>
								<media>
									<video>
										<track>
											<clipitem id="clipitem-811">
												<masterclipid>masterclip-115</masterclipid>
												<name>CUTE CROCHETED DRESS</name>
												<rate>
													<timebase>30</timebase>
													<ntsc>FALSE</ntsc>
												</rate>
												<alphatype>straight</alphatype>
												<file id="file-100"/>
											</clipitem>
										</track>
									</video>
								</media>
								<logginginfo>
									<description></description>
									<scene></scene>
									<shottake></shottake>
									<lognote></lognote>
									<good></good>
									<originalvideofilename></originalvideofilename>
									<originalaudiofilename></originalaudiofilename>
								</logginginfo>
								<colorinfo>
									<lut></lut>
									<lut1></lut1>
									<asc_sop></asc_sop>
									<asc_sat></asc_sat>
									<lut2></lut2>
								</colorinfo>
								<labels>
									<label2>Rose</label2>
								</labels>
							</clip>
							<clip id="masterclip-116" explodedTracks="true">
								<uuid>531a53cb-6654-43e1-bcbc-94ab1a10874c</uuid>
								<masterclipid>masterclip-116</masterclipid>
								<ismasterclip>TRUE</ismasterclip>
								<duration>5701</duration>
								<rate>
									<timebase>30</timebase>
									<ntsc>FALSE</ntsc>
								</rate>
								<name>HOUSE OF GLASS</name>
								<media>
									<video>
										<track>
											<clipitem id="clipitem-812">
												<masterclipid>masterclip-116</masterclipid>
												<name>HOUSE OF GLASS</name>
												<rate>
													<timebase>30</timebase>
													<ntsc>FALSE</ntsc>
												</rate>
												<alphatype>straight</alphatype>
												<file id="file-101"/>
											</clipitem>
										</track>
									</video>
								</media>
								<logginginfo>
									<description></description>
									<scene></scene>
									<shottake></shottake>
									<lognote></lognote>
									<good></good>
									<originalvideofilename></originalvideofilename>
									<originalaudiofilename></originalaudiofilename>
								</logginginfo>
								<colorinfo>
									<lut></lut>
									<lut1></lut1>
									<asc_sop></asc_sop>
									<asc_sat></asc_sat>
									<lut2></lut2>
								</colorinfo>
								<labels>
									<label2>Rose</label2>
								</labels>
							</clip>
							<clip id="masterclip-129" explodedTracks="true">
								<uuid>7f1b2bc3-4eca-4c28-9f61-b360921092de</uuid>
								<masterclipid>masterclip-129</masterclipid>
								<ismasterclip>TRUE</ismasterclip>
								<duration>5701</duration>
								<rate>
									<timebase>30</timebase>
									<ntsc>FALSE</ntsc>
								</rate>
								<name>BEGINNER WIG INSTALL</name>
								<media>
									<video>
										<track>
											<clipitem id="clipitem-813">
												<masterclipid>masterclip-129</masterclipid>
												<name>BEGINNER WIG INSTALL</name>
												<rate>
													<timebase>30</timebase>
													<ntsc>FALSE</ntsc>
												</rate>
												<alphatype>straight</alphatype>
												<file id="file-112"/>
											</clipitem>
										</track>
									</video>
								</media>
								<logginginfo>
									<description></description>
									<scene></scene>
									<shottake></shottake>
									<lognote></lognote>
									<good></good>
									<originalvideofilename></originalvideofilename>
									<originalaudiofilename></originalaudiofilename>
								</logginginfo>
								<colorinfo>
									<lut></lut>
									<lut1></lut1>
									<asc_sop></asc_sop>
									<asc_sat></asc_sat>
									<lut2></lut2>
								</colorinfo>
								<labels>
									<label2>Rose</label2>
								</labels>
							</clip>
							<clip id="masterclip-130" explodedTracks="true">
								<uuid>17bdcdee-78fa-492f-baf6-07fade021cab</uuid>
								<masterclipid>masterclip-130</masterclipid>
								<ismasterclip>TRUE</ismasterclip>
								<duration>5701</duration>
								<rate>
									<timebase>30</timebase>
									<ntsc>FALSE</ntsc>
								</rate>
								<name>MINI CAFE</name>
								<media>
									<video>
										<track>
											<clipitem id="clipitem-814">
												<masterclipid>masterclip-130</masterclipid>
												<name>MINI CAFE</name>
												<rate>
													<timebase>30</timebase>
													<ntsc>FALSE</ntsc>
												</rate>
												<alphatype>straight</alphatype>
												<file id="file-113"/>
											</clipitem>
										</track>
									</video>
								</media>
								<logginginfo>
									<description></description>
									<scene></scene>
									<shottake></shottake>
									<lognote></lognote>
									<good></good>
									<originalvideofilename></originalvideofilename>
									<originalaudiofilename></originalaudiofilename>
								</logginginfo>
								<colorinfo>
									<lut></lut>
									<lut1></lut1>
									<asc_sop></asc_sop>
									<asc_sat></asc_sat>
									<lut2></lut2>
								</colorinfo>
								<labels>
									<label2>Rose</label2>
								</labels>
							</clip>
							<clip id="masterclip-139" explodedTracks="true">
								<uuid>ce711d8f-d4b1-4d6b-9792-a88707d67721</uuid>
								<masterclipid>masterclip-139</masterclipid>
								<ismasterclip>TRUE</ismasterclip>
								<duration>5701</duration>
								<rate>
									<timebase>30</timebase>
									<ntsc>FALSE</ntsc>
								</rate>
								<name>SIMPLE &amp; SOUTHERN PORCH DECOR</name>
								<media>
									<video>
										<track>
											<clipitem id="clipitem-815">
												<masterclipid>masterclip-139</masterclipid>
												<name>SIMPLE &amp; SOUTHERN PORCH DECOR</name>
												<rate>
													<timebase>30</timebase>
													<ntsc>FALSE</ntsc>
												</rate>
												<alphatype>straight</alphatype>
												<file id="file-120"/>
											</clipitem>
										</track>
									</video>
								</media>
								<logginginfo>
									<description></description>
									<scene></scene>
									<shottake></shottake>
									<lognote></lognote>
									<good></good>
									<originalvideofilename></originalvideofilename>
									<originalaudiofilename></originalaudiofilename>
								</logginginfo>
								<colorinfo>
									<lut></lut>
									<lut1></lut1>
									<asc_sop></asc_sop>
									<asc_sat></asc_sat>
									<lut2></lut2>
								</colorinfo>
								<labels>
									<label2>Rose</label2>
								</labels>
							</clip>
							<clip id="masterclip-140" explodedTracks="true">
								<uuid>51dc48f1-1065-43e3-8fb1-ee76312e2cce</uuid>
								<masterclipid>masterclip-140</masterclipid>
								<ismasterclip>TRUE</ismasterclip>
								<duration>5701</duration>
								<rate>
									<timebase>30</timebase>
									<ntsc>FALSE</ntsc>
								</rate>
								<out>2262</out>
								<name>SAME PAINTING, DIFFERENT STYLES</name>
								<media>
									<video>
										<track>
											<clipitem id="clipitem-816">
												<masterclipid>masterclip-140</masterclipid>
												<name>SAME PAINTING, DIFFERENT STYLES</name>
												<rate>
													<timebase>30</timebase>
													<ntsc>FALSE</ntsc>
												</rate>
												<alphatype>straight</alphatype>
												<file id="file-121"/>
											</clipitem>
										</track>
									</video>
								</media>
								<logginginfo>
									<description></description>
									<scene></scene>
									<shottake></shottake>
									<lognote></lognote>
									<good></good>
									<originalvideofilename></originalvideofilename>
									<originalaudiofilename></originalaudiofilename>
								</logginginfo>
								<colorinfo>
									<lut></lut>
									<lut1></lut1>
									<asc_sop></asc_sop>
									<asc_sat></asc_sat>
									<lut2></lut2>
								</colorinfo>
								<labels>
									<label2>Rose</label2>
								</labels>
							</clip>
							<clip id="masterclip-149" explodedTracks="true">
								<uuid>aa3c1908-7819-497f-a778-3c824fb1267b</uuid>
								<masterclipid>masterclip-149</masterclipid>
								<ismasterclip>TRUE</ismasterclip>
								<duration>5701</duration>
								<rate>
									<timebase>30</timebase>
									<ntsc>FALSE</ntsc>
								</rate>
								<out>2576</out>
								<name>COFFEE TABLE UPCYCLE</name>
								<media>
									<video>
										<track>
											<clipitem id="clipitem-817">
												<masterclipid>masterclip-149</masterclipid>
												<name>COFFEE TABLE UPCYCLE</name>
												<rate>
													<timebase>30</timebase>
													<ntsc>FALSE</ntsc>
												</rate>
												<alphatype>straight</alphatype>
												<file id="file-128"/>
											</clipitem>
										</track>
									</video>
								</media>
								<logginginfo>
									<description></description>
									<scene></scene>
									<shottake></shottake>
									<lognote></lognote>
									<good></good>
									<originalvideofilename></originalvideofilename>
									<originalaudiofilename></originalaudiofilename>
								</logginginfo>
								<colorinfo>
									<lut></lut>
									<lut1></lut1>
									<asc_sop></asc_sop>
									<asc_sat></asc_sat>
									<lut2></lut2>
								</colorinfo>
								<labels>
									<label2>Rose</label2>
								</labels>
							</clip>
							<clip id="masterclip-150" explodedTracks="true">
								<uuid>1758c130-015f-40c5-81ca-df7e53e99449</uuid>
								<masterclipid>masterclip-150</masterclipid>
								<ismasterclip>TRUE</ismasterclip>
								<duration>5701</duration>
								<rate>
									<timebase>30</timebase>
									<ntsc>FALSE</ntsc>
								</rate>
								<name>MASK ON, MASK OFF</name>
								<media>
									<video>
										<track>
											<clipitem id="clipitem-818">
												<masterclipid>masterclip-150</masterclipid>
												<name>MASK ON, MASK OFF</name>
												<rate>
													<timebase>30</timebase>
													<ntsc>FALSE</ntsc>
												</rate>
												<alphatype>straight</alphatype>
												<file id="file-129"/>
											</clipitem>
										</track>
									</video>
								</media>
								<logginginfo>
									<description></description>
									<scene></scene>
									<shottake></shottake>
									<lognote></lognote>
									<good></good>
									<originalvideofilename></originalvideofilename>
									<originalaudiofilename></originalaudiofilename>
								</logginginfo>
								<colorinfo>
									<lut></lut>
									<lut1></lut1>
									<asc_sop></asc_sop>
									<asc_sat></asc_sat>
									<lut2></lut2>
								</colorinfo>
								<labels>
									<label2>Rose</label2>
								</labels>
							</clip>
							<clip id="masterclip-163" explodedTracks="true">
								<uuid>7f6e08ad-3b65-403c-adf3-6210ddf0fe87</uuid>
								<masterclipid>masterclip-163</masterclipid>
								<ismasterclip>TRUE</ismasterclip>
								<duration>5701</duration>
								<rate>
									<timebase>30</timebase>
									<ntsc>FALSE</ntsc>
								</rate>
								<name>CROCHETED CABANA CLUTCH</name>
								<media>
									<video>
										<track>
											<clipitem id="clipitem-819">
												<masterclipid>masterclip-163</masterclipid>
												<name>CROCHETED CABANA CLUTCH</name>
												<rate>
													<timebase>30</timebase>
													<ntsc>FALSE</ntsc>
												</rate>
												<alphatype>straight</alphatype>
												<file id="file-140"/>
											</clipitem>
										</track>
									</video>
								</media>
								<logginginfo>
									<description></description>
									<scene></scene>
									<shottake></shottake>
									<lognote></lognote>
									<good></good>
									<originalvideofilename></originalvideofilename>
									<originalaudiofilename></originalaudiofilename>
								</logginginfo>
								<colorinfo>
									<lut></lut>
									<lut1></lut1>
									<asc_sop></asc_sop>
									<asc_sat></asc_sat>
									<lut2></lut2>
								</colorinfo>
								<labels>
									<label2>Rose</label2>
								</labels>
							</clip>
							<clip id="masterclip-164" explodedTracks="true">
								<uuid>07735fa8-4e23-446a-be26-5fe7052da9a2</uuid>
								<masterclipid>masterclip-164</masterclipid>
								<ismasterclip>TRUE</ismasterclip>
								<duration>5701</duration>
								<rate>
									<timebase>30</timebase>
									<ntsc>FALSE</ntsc>
								</rate>
								<name>NIGHT FLIGHT FRIGHT</name>
								<media>
									<video>
										<track>
											<clipitem id="clipitem-820">
												<masterclipid>masterclip-164</masterclipid>
												<name>NIGHT FLIGHT FRIGHT</name>
												<rate>
													<timebase>30</timebase>
													<ntsc>FALSE</ntsc>
												</rate>
												<alphatype>straight</alphatype>
												<file id="file-141"/>
											</clipitem>
										</track>
									</video>
								</media>
								<logginginfo>
									<description></description>
									<scene></scene>
									<shottake></shottake>
									<lognote></lognote>
									<good></good>
									<originalvideofilename></originalvideofilename>
									<originalaudiofilename></originalaudiofilename>
								</logginginfo>
								<colorinfo>
									<lut></lut>
									<lut1></lut1>
									<asc_sop></asc_sop>
									<asc_sat></asc_sat>
									<lut2></lut2>
								</colorinfo>
								<labels>
									<label2>Rose</label2>
								</labels>
							</clip>
							<clip id="masterclip-176" explodedTracks="true">
								<uuid>eb6870be-de51-48ea-befa-a5d82f2ef3fa</uuid>
								<masterclipid>masterclip-176</masterclipid>
								<ismasterclip>TRUE</ismasterclip>
								<duration>5701</duration>
								<rate>
									<timebase>30</timebase>
									<ntsc>FALSE</ntsc>
								</rate>
								<name>SO FRESH AND SO CLEAN</name>
								<media>
									<video>
										<track>
											<clipitem id="clipitem-821">
												<masterclipid>masterclip-176</masterclipid>
												<name>SO FRESH AND SO CLEAN</name>
												<rate>
													<timebase>30</timebase>
													<ntsc>FALSE</ntsc>
												</rate>
												<alphatype>straight</alphatype>
												<file id="file-151"/>
											</clipitem>
										</track>
									</video>
								</media>
								<logginginfo>
									<description></description>
									<scene></scene>
									<shottake></shottake>
									<lognote></lognote>
									<good></good>
									<originalvideofilename></originalvideofilename>
									<originalaudiofilename></originalaudiofilename>
								</logginginfo>
								<colorinfo>
									<lut></lut>
									<lut1></lut1>
									<asc_sop></asc_sop>
									<asc_sat></asc_sat>
									<lut2></lut2>
								</colorinfo>
								<labels>
									<label2>Rose</label2>
								</labels>
							</clip>
							<clip id="masterclip-177" explodedTracks="true">
								<uuid>8bcc5217-687d-4718-a042-f20b21d9dc43</uuid>
								<masterclipid>masterclip-177</masterclipid>
								<ismasterclip>TRUE</ismasterclip>
								<duration>5701</duration>
								<rate>
									<timebase>30</timebase>
									<ntsc>FALSE</ntsc>
								</rate>
								<name>THAT HAS A NICE RING TO IT</name>
								<media>
									<video>
										<track>
											<clipitem id="clipitem-822">
												<masterclipid>masterclip-177</masterclipid>
												<name>THAT HAS A NICE RING TO IT</name>
												<rate>
													<timebase>30</timebase>
													<ntsc>FALSE</ntsc>
												</rate>
												<alphatype>straight</alphatype>
												<file id="file-152"/>
											</clipitem>
										</track>
									</video>
								</media>
								<logginginfo>
									<description></description>
									<scene></scene>
									<shottake></shottake>
									<lognote></lognote>
									<good></good>
									<originalvideofilename></originalvideofilename>
									<originalaudiofilename></originalaudiofilename>
								</logginginfo>
								<colorinfo>
									<lut></lut>
									<lut1></lut1>
									<asc_sop></asc_sop>
									<asc_sat></asc_sat>
									<lut2></lut2>
								</colorinfo>
								<labels>
									<label2>Rose</label2>
								</labels>
							</clip>
							<clip id="masterclip-189" explodedTracks="true">
								<uuid>8154993f-8154-4d68-9fba-b6d217eb9ead</uuid>
								<masterclipid>masterclip-189</masterclipid>
								<ismasterclip>TRUE</ismasterclip>
								<duration>5701</duration>
								<rate>
									<timebase>30</timebase>
									<ntsc>FALSE</ntsc>
								</rate>
								<name>AS CUTE AS A RUG</name>
								<media>
									<video>
										<track>
											<clipitem id="clipitem-823">
												<masterclipid>masterclip-189</masterclipid>
												<name>AS CUTE AS A RUG</name>
												<rate>
													<timebase>30</timebase>
													<ntsc>FALSE</ntsc>
												</rate>
												<alphatype>straight</alphatype>
												<file id="file-162"/>
											</clipitem>
										</track>
									</video>
								</media>
								<logginginfo>
									<description></description>
									<scene></scene>
									<shottake></shottake>
									<lognote></lognote>
									<good></good>
									<originalvideofilename></originalvideofilename>
									<originalaudiofilename></originalaudiofilename>
								</logginginfo>
								<colorinfo>
									<lut></lut>
									<lut1></lut1>
									<asc_sop></asc_sop>
									<asc_sat></asc_sat>
									<lut2></lut2>
								</colorinfo>
								<labels>
									<label2>Rose</label2>
								</labels>
							</clip>
							<clip id="masterclip-190" explodedTracks="true">
								<uuid>275fc3c1-9383-4263-8f57-f71763eea581</uuid>
								<masterclipid>masterclip-190</masterclipid>
								<ismasterclip>TRUE</ismasterclip>
								<duration>5701</duration>
								<rate>
									<timebase>30</timebase>
									<ntsc>FALSE</ntsc>
								</rate>
								<name>LIVE OR DIY</name>
								<media>
									<video>
										<track>
											<clipitem id="clipitem-824">
												<masterclipid>masterclip-190</masterclipid>
												<name>LIVE OR DIY</name>
												<rate>
													<timebase>30</timebase>
													<ntsc>FALSE</ntsc>
												</rate>
												<alphatype>straight</alphatype>
												<file id="file-163"/>
											</clipitem>
										</track>
									</video>
								</media>
								<logginginfo>
									<description></description>
									<scene></scene>
									<shottake></shottake>
									<lognote></lognote>
									<good></good>
									<originalvideofilename></originalvideofilename>
									<originalaudiofilename></originalaudiofilename>
								</logginginfo>
								<colorinfo>
									<lut></lut>
									<lut1></lut1>
									<asc_sop></asc_sop>
									<asc_sat></asc_sat>
									<lut2></lut2>
								</colorinfo>
								<labels>
									<label2>Rose</label2>
								</labels>
							</clip>
							<clip id="masterclip-202" explodedTracks="true">
								<uuid>fadba0cb-cd42-4dd0-b045-24026c320326</uuid>
								<masterclipid>masterclip-202</masterclipid>
								<ismasterclip>TRUE</ismasterclip>
								<duration>5701</duration>
								<rate>
									<timebase>30</timebase>
									<ntsc>FALSE</ntsc>
								</rate>
								<name>HOW TO ANTIQUE A MIRROR</name>
								<media>
									<video>
										<track>
											<clipitem id="clipitem-825">
												<masterclipid>masterclip-202</masterclipid>
												<name>HOW TO ANTIQUE A MIRROR</name>
												<rate>
													<timebase>30</timebase>
													<ntsc>FALSE</ntsc>
												</rate>
												<alphatype>straight</alphatype>
												<file id="file-173"/>
											</clipitem>
										</track>
									</video>
								</media>
								<logginginfo>
									<description></description>
									<scene></scene>
									<shottake></shottake>
									<lognote></lognote>
									<good></good>
									<originalvideofilename></originalvideofilename>
									<originalaudiofilename></originalaudiofilename>
								</logginginfo>
								<colorinfo>
									<lut></lut>
									<lut1></lut1>
									<asc_sop></asc_sop>
									<asc_sat></asc_sat>
									<lut2></lut2>
								</colorinfo>
								<labels>
									<label2>Rose</label2>
								</labels>
							</clip>
							<clip id="masterclip-203" explodedTracks="true">
								<uuid>af283773-db07-4a02-9f91-f0d8f4f01766</uuid>
								<masterclipid>masterclip-203</masterclipid>
								<ismasterclip>TRUE</ismasterclip>
								<duration>5701</duration>
								<rate>
									<timebase>30</timebase>
									<ntsc>FALSE</ntsc>
								</rate>
								<name>RESIN WONDERS OF THE WORLD</name>
								<media>
									<video>
										<track>
											<clipitem id="clipitem-826">
												<masterclipid>masterclip-203</masterclipid>
												<name>RESIN WONDERS OF THE WORLD</name>
												<rate>
													<timebase>30</timebase>
													<ntsc>FALSE</ntsc>
												</rate>
												<alphatype>straight</alphatype>
												<file id="file-174"/>
											</clipitem>
										</track>
									</video>
								</media>
								<logginginfo>
									<description></description>
									<scene></scene>
									<shottake></shottake>
									<lognote></lognote>
									<good></good>
									<originalvideofilename></originalvideofilename>
									<originalaudiofilename></originalaudiofilename>
								</logginginfo>
								<colorinfo>
									<lut></lut>
									<lut1></lut1>
									<asc_sop></asc_sop>
									<asc_sat></asc_sat>
									<lut2></lut2>
								</colorinfo>
								<labels>
									<label2>Rose</label2>
								</labels>
							</clip>
							<clip id="masterclip-220" explodedTracks="true">
								<uuid>6c59123c-d1eb-4579-850b-1457e2b69ed1</uuid>
								<masterclipid>masterclip-220</masterclipid>
								<ismasterclip>TRUE</ismasterclip>
								<duration>5701</duration>
								<rate>
									<timebase>30</timebase>
									<ntsc>FALSE</ntsc>
								</rate>
								<name>SUMMER MAKEUP</name>
								<media>
									<video>
										<track>
											<clipitem id="clipitem-827">
												<masterclipid>masterclip-220</masterclipid>
												<name>SUMMER MAKEUP</name>
												<rate>
													<timebase>30</timebase>
													<ntsc>FALSE</ntsc>
												</rate>
												<alphatype>straight</alphatype>
												<file id="file-189"/>
											</clipitem>
										</track>
									</video>
								</media>
								<logginginfo>
									<description></description>
									<scene></scene>
									<shottake></shottake>
									<lognote></lognote>
									<good></good>
									<originalvideofilename></originalvideofilename>
									<originalaudiofilename></originalaudiofilename>
								</logginginfo>
								<colorinfo>
									<lut></lut>
									<lut1></lut1>
									<asc_sop></asc_sop>
									<asc_sat></asc_sat>
									<lut2></lut2>
								</colorinfo>
								<labels>
									<label2>Rose</label2>
								</labels>
							</clip>
							<clip id="masterclip-221" explodedTracks="true">
								<uuid>47b6cd6d-ef49-447e-80af-a6ff60805a4f</uuid>
								<masterclipid>masterclip-221</masterclipid>
								<ismasterclip>TRUE</ismasterclip>
								<duration>5701</duration>
								<rate>
									<timebase>30</timebase>
									<ntsc>FALSE</ntsc>
								</rate>
								<name>PERFECTLY PINK NAILS</name>
								<media>
									<video>
										<track>
											<clipitem id="clipitem-828">
												<masterclipid>masterclip-221</masterclipid>
												<name>PERFECTLY PINK NAILS</name>
												<rate>
													<timebase>30</timebase>
													<ntsc>FALSE</ntsc>
												</rate>
												<alphatype>straight</alphatype>
												<file id="file-190"/>
											</clipitem>
										</track>
									</video>
								</media>
								<logginginfo>
									<description></description>
									<scene></scene>
									<shottake></shottake>
									<lognote></lognote>
									<good></good>
									<originalvideofilename></originalvideofilename>
									<originalaudiofilename></originalaudiofilename>
								</logginginfo>
								<colorinfo>
									<lut></lut>
									<lut1></lut1>
									<asc_sop></asc_sop>
									<asc_sat></asc_sat>
									<lut2></lut2>
								</colorinfo>
								<labels>
									<label2>Rose</label2>
								</labels>
							</clip>
						</children>
					</bin>
					<clip id="masterclip-222" explodedTracks="true">
						<uuid>80cb41bf-eebf-4f5c-b99e-782601365e54</uuid>
						<masterclipid>masterclip-222</masterclipid>
						<ismasterclip>TRUE</ismasterclip>
						<duration>5701</duration>
						<rate>
							<timebase>30</timebase>
							<ntsc>FALSE</ntsc>
						</rate>
						<name>L3 TEMPLATE</name>
						<media>
							<video>
								<track>
									<clipitem id="clipitem-829">
										<masterclipid>masterclip-222</masterclipid>
										<name>L3 TEMPLATE</name>
										<rate>
											<timebase>30</timebase>
											<ntsc>FALSE</ntsc>
										</rate>
										<alphatype>straight</alphatype>
										<pixelaspectratio>square</pixelaspectratio>
										<anamorphic>FALSE</anamorphic>
										<file id="file-191">
											<name>CRAFTY_L3RD_01_JL_V03/CRAFTY_L3RD_01_JL_V03.aep</name>
											<pathurl>file://localhost/Volumes/ATM%20JR%202TB/Crafty/Master%20Assets%20/Lower%20Thirds/CRAFTY_L3RD_01_JL_V03.aep</pathurl>
											<rate>
												<timebase>30</timebase>
												<ntsc>FALSE</ntsc>
											</rate>
											<duration>5701</duration>
											<timecode>
												<rate>
													<timebase>30</timebase>
													<ntsc>FALSE</ntsc>
												</rate>
												<string>00:00:00:00</string>
												<frame>0</frame>
												<displayformat>NDF</displayformat>
											</timecode>
											<media>
												<video>
													<samplecharacteristics>
														<rate>
															<timebase>30</timebase>
															<ntsc>FALSE</ntsc>
														</rate>
														<width>1920</width>
														<height>1080</height>
														<anamorphic>FALSE</anamorphic>
														<pixelaspectratio>square</pixelaspectratio>
														<fielddominance>lower</fielddominance>
													</samplecharacteristics>
												</video>
											</media>
										</file>
									</clipitem>
								</track>
							</video>
						</media>
						<logginginfo>
							<description></description>
							<scene></scene>
							<shottake></shottake>
							<lognote></lognote>
							<good></good>
							<originalvideofilename></originalvideofilename>
							<originalaudiofilename></originalaudiofilename>
						</logginginfo>
						<colorinfo>
							<lut></lut>
							<lut1></lut1>
							<asc_sop></asc_sop>
							<asc_sat></asc_sat>
							<lut2></lut2>
						</colorinfo>
						<labels>
							<label2>Rose</label2>
						</labels>
					</clip>
				</children>
			</bin>
			<bin>
				<name>3_Nest Sequences</name>
				<labels>
					<label2>Mango</label2>
				</labels>
				<children>
<sequence id="sequence-18"/>
<sequence id="sequence-19"/>
<sequence id="sequence-21"/>
<sequence id="sequence-22"/>
<sequence id="sequence-24"/>
<sequence id="sequence-25"/>
<sequence id="sequence-27"/>
<sequence id="sequence-28"/>
<sequence id="sequence-30"/>
<sequence id="sequence-31"/>
<sequence id="sequence-33"/>
<sequence id="sequence-34"/>
<sequence id="sequence-36"/>
<sequence id="sequence-37"/>
<sequence id="sequence-39"/>
<sequence id="sequence-40"/>
<sequence id="sequence-42"/>
<sequence id="sequence-43"/>
<sequence id="sequence-45"/>
<sequence id="sequence-46"/>
				</children>
			</bin>
			<bin>
				<name>4_Template Assets</name>
				<labels>
					<label2>Mango</label2>
				</labels>
				<children>
					<bin>
						<name>used</name>
						<labels>
							<label2>Mango</label2>
						</labels>
						<children>
							<clip id="masterclip-93" explodedTracks="true">
								<uuid>c78063b4-cb87-4065-b501-a04421fc968a</uuid>
								<masterclipid>masterclip-93</masterclipid>
								<ismasterclip>TRUE</ismasterclip>
								<duration>5844</duration>
								<rate>
									<timebase>30</timebase>
									<ntsc>TRUE</ntsc>
								</rate>
								<name>parul pawar</name>
								<media>
									<video>
										<track>
											<clipitem id="clipitem-830">
												<masterclipid>masterclip-93</masterclipid>
												<name>parul pawar</name>
												<rate>
													<timebase>30</timebase>
													<ntsc>TRUE</ntsc>
												</rate>
												<alphatype>straight</alphatype>
												<file id="file-81"/>
											</clipitem>
										</track>
									</video>
								</media>
								<logginginfo>
									<description></description>
									<scene></scene>
									<shottake></shottake>
									<lognote></lognote>
									<good></good>
									<originalvideofilename></originalvideofilename>
									<originalaudiofilename></originalaudiofilename>
								</logginginfo>
								<colorinfo>
									<lut></lut>
									<lut1></lut1>
									<asc_sop></asc_sop>
									<asc_sat></asc_sat>
									<lut2></lut2>
								</colorinfo>
								<labels>
									<label2>Rose</label2>
								</labels>
							</clip>
							<clip id="masterclip-94" explodedTracks="true">
								<uuid>1a10b5a1-522c-48f5-9632-138cda87c38f</uuid>
								<masterclipid>masterclip-94</masterclipid>
								<ismasterclip>TRUE</ismasterclip>
								<duration>5844</duration>
								<rate>
									<timebase>30</timebase>
									<ntsc>TRUE</ntsc>
								</rate>
								<name>laryssa meira</name>
								<media>
									<video>
										<track>
											<clipitem id="clipitem-831">
												<masterclipid>masterclip-94</masterclipid>
												<name>laryssa meira</name>
												<rate>
													<timebase>30</timebase>
													<ntsc>TRUE</ntsc>
												</rate>
												<alphatype>straight</alphatype>
												<file id="file-82"/>
											</clipitem>
										</track>
									</video>
								</media>
								<logginginfo>
									<description></description>
									<scene></scene>
									<shottake></shottake>
									<lognote></lognote>
									<good></good>
									<originalvideofilename></originalvideofilename>
									<originalaudiofilename></originalaudiofilename>
								</logginginfo>
								<colorinfo>
									<lut></lut>
									<lut1></lut1>
									<asc_sop></asc_sop>
									<asc_sat></asc_sat>
									<lut2></lut2>
								</colorinfo>
								<labels>
									<label2>Rose</label2>
								</labels>
							</clip>
							<clip id="masterclip-98" explodedTracks="true">
								<uuid>83fc16d0-9681-4e1d-8d00-bb7d905498a0</uuid>
								<masterclipid>masterclip-98</masterclipid>
								<ismasterclip>TRUE</ismasterclip>
								<duration>5844</duration>
								<rate>
									<timebase>30</timebase>
									<ntsc>TRUE</ntsc>
								</rate>
								<name>SHMOXD</name>
								<media>
									<video>
										<track>
											<clipitem id="clipitem-832">
												<masterclipid>masterclip-98</masterclipid>
												<name>SHMOXD</name>
												<rate>
													<timebase>30</timebase>
													<ntsc>TRUE</ntsc>
												</rate>
												<alphatype>straight</alphatype>
												<file id="file-85"/>
											</clipitem>
										</track>
									</video>
								</media>
								<logginginfo>
									<description></description>
									<scene></scene>
									<shottake></shottake>
									<lognote></lognote>
									<good></good>
									<originalvideofilename></originalvideofilename>
									<originalaudiofilename></originalaudiofilename>
								</logginginfo>
								<colorinfo>
									<lut></lut>
									<lut1></lut1>
									<asc_sop></asc_sop>
									<asc_sat></asc_sat>
									<lut2></lut2>
								</colorinfo>
								<labels>
									<label2>Rose</label2>
								</labels>
							</clip>
							<clip id="masterclip-107" explodedTracks="true">
								<uuid>b55d531c-1355-4511-a717-7acbddc72349</uuid>
								<masterclipid>masterclip-107</masterclipid>
								<ismasterclip>TRUE</ismasterclip>
								<duration>5844</duration>
								<rate>
									<timebase>30</timebase>
									<ntsc>TRUE</ntsc>
								</rate>
								<name>lily foubisou</name>
								<media>
									<video>
										<track>
											<clipitem id="clipitem-833">
												<masterclipid>masterclip-107</masterclipid>
												<name>lily foubisou</name>
												<rate>
													<timebase>30</timebase>
													<ntsc>TRUE</ntsc>
												</rate>
												<alphatype>straight</alphatype>
												<file id="file-93"/>
											</clipitem>
										</track>
									</video>
								</media>
								<logginginfo>
									<description></description>
									<scene></scene>
									<shottake></shottake>
									<lognote></lognote>
									<good></good>
									<originalvideofilename></originalvideofilename>
									<originalaudiofilename></originalaudiofilename>
								</logginginfo>
								<colorinfo>
									<lut></lut>
									<lut1></lut1>
									<asc_sop></asc_sop>
									<asc_sat></asc_sat>
									<lut2></lut2>
								</colorinfo>
								<labels>
									<label2>Rose</label2>
								</labels>
							</clip>
							<clip id="masterclip-113" explodedTracks="true">
								<uuid>6440fe9a-b799-4cb1-91ff-e1a183f90ad2</uuid>
								<masterclipid>masterclip-113</masterclipid>
								<ismasterclip>TRUE</ismasterclip>
								<duration>5844</duration>
								<rate>
									<timebase>30</timebase>
									<ntsc>TRUE</ntsc>
								</rate>
								<name>@alteredlightdesign</name>
								<media>
									<video>
										<track>
											<clipitem id="clipitem-834">
												<masterclipid>masterclip-113</masterclipid>
												<name>@alteredlightdesign</name>
												<rate>
													<timebase>30</timebase>
													<ntsc>TRUE</ntsc>
												</rate>
												<alphatype>straight</alphatype>
												<file id="file-98"/>
											</clipitem>
										</track>
									</video>
								</media>
								<logginginfo>
									<description></description>
									<scene></scene>
									<shottake></shottake>
									<lognote></lognote>
									<good></good>
									<originalvideofilename></originalvideofilename>
									<originalaudiofilename></originalaudiofilename>
								</logginginfo>
								<colorinfo>
									<lut></lut>
									<lut1></lut1>
									<asc_sop></asc_sop>
									<asc_sat></asc_sat>
									<lut2></lut2>
								</colorinfo>
								<labels>
									<label2>Rose</label2>
								</labels>
							</clip>
							<clip id="masterclip-120" explodedTracks="true">
								<uuid>ed28784c-e937-4af7-98b0-8ace73c66a0f</uuid>
								<masterclipid>masterclip-120</masterclipid>
								<ismasterclip>TRUE</ismasterclip>
								<duration>5844</duration>
								<rate>
									<timebase>30</timebase>
									<ntsc>TRUE</ntsc>
								</rate>
								<name>onlyonejess</name>
								<media>
									<video>
										<track>
											<clipitem id="clipitem-835">
												<masterclipid>masterclip-120</masterclipid>
												<name>onlyonejess</name>
												<rate>
													<timebase>30</timebase>
													<ntsc>TRUE</ntsc>
												</rate>
												<alphatype>straight</alphatype>
												<file id="file-104"/>
											</clipitem>
										</track>
									</video>
								</media>
								<logginginfo>
									<description></description>
									<scene></scene>
									<shottake></shottake>
									<lognote></lognote>
									<good></good>
									<originalvideofilename></originalvideofilename>
									<originalaudiofilename></originalaudiofilename>
								</logginginfo>
								<colorinfo>
									<lut></lut>
									<lut1></lut1>
									<asc_sop></asc_sop>
									<asc_sat></asc_sat>
									<lut2></lut2>
								</colorinfo>
								<labels>
									<label2>Rose</label2>
								</labels>
							</clip>
							<clip id="masterclip-126" explodedTracks="true">
								<uuid>d693bd92-ad7a-46ca-9204-4764b429f7af</uuid>
								<masterclipid>masterclip-126</masterclipid>
								<ismasterclip>TRUE</ismasterclip>
								<duration>5844</duration>
								<rate>
									<timebase>30</timebase>
									<ntsc>TRUE</ntsc>
								</rate>
								<name>SWEETMINIDOLLHOUSE</name>
								<media>
									<video>
										<track>
											<clipitem id="clipitem-836">
												<masterclipid>masterclip-126</masterclipid>
												<name>SWEETMINIDOLLHOUSE</name>
												<rate>
													<timebase>30</timebase>
													<ntsc>TRUE</ntsc>
												</rate>
												<alphatype>straight</alphatype>
												<file id="file-109"/>
											</clipitem>
										</track>
									</video>
								</media>
								<logginginfo>
									<description></description>
									<scene></scene>
									<shottake></shottake>
									<lognote></lognote>
									<good></good>
									<originalvideofilename></originalvideofilename>
									<originalaudiofilename></originalaudiofilename>
								</logginginfo>
								<colorinfo>
									<lut></lut>
									<lut1></lut1>
									<asc_sop></asc_sop>
									<asc_sat></asc_sat>
									<lut2></lut2>
								</colorinfo>
								<labels>
									<label2>Rose</label2>
								</labels>
							</clip>
							<clip id="masterclip-133" explodedTracks="true">
								<uuid>ebbe78c7-c098-48de-88a2-e27c3d58e453</uuid>
								<masterclipid>masterclip-133</masterclipid>
								<ismasterclip>TRUE</ismasterclip>
								<duration>5844</duration>
								<rate>
									<timebase>30</timebase>
									<ntsc>TRUE</ntsc>
								</rate>
								<name>coffee n crafting</name>
								<media>
									<video>
										<track>
											<clipitem id="clipitem-837">
												<masterclipid>masterclip-133</masterclipid>
												<name>coffee n crafting</name>
												<rate>
													<timebase>30</timebase>
													<ntsc>TRUE</ntsc>
												</rate>
												<alphatype>straight</alphatype>
												<file id="file-115"/>
											</clipitem>
										</track>
									</video>
								</media>
								<logginginfo>
									<description></description>
									<scene></scene>
									<shottake></shottake>
									<lognote></lognote>
									<good></good>
									<originalvideofilename></originalvideofilename>
									<originalaudiofilename></originalaudiofilename>
								</logginginfo>
								<colorinfo>
									<lut></lut>
									<lut1></lut1>
									<asc_sop></asc_sop>
									<asc_sat></asc_sat>
									<lut2></lut2>
								</colorinfo>
								<labels>
									<label2>Rose</label2>
								</labels>
							</clip>
							<clip id="masterclip-137" explodedTracks="true">
								<uuid>99a37428-75f4-49b5-9d36-31531ab986f0</uuid>
								<masterclipid>masterclip-137</masterclipid>
								<ismasterclip>TRUE</ismasterclip>
								<duration>5844</duration>
								<rate>
									<timebase>30</timebase>
									<ntsc>TRUE</ntsc>
								</rate>
								<name>SHMOXD</name>
								<media>
									<video>
										<track>
											<clipitem id="clipitem-838">
												<masterclipid>masterclip-137</masterclipid>
												<name>SHMOXD</name>
												<rate>
													<timebase>30</timebase>
													<ntsc>TRUE</ntsc>
												</rate>
												<alphatype>straight</alphatype>
												<file id="file-118"/>
											</clipitem>
										</track>
									</video>
								</media>
								<logginginfo>
									<description></description>
									<scene></scene>
									<shottake></shottake>
									<lognote></lognote>
									<good></good>
									<originalvideofilename></originalvideofilename>
									<originalaudiofilename></originalaudiofilename>
								</logginginfo>
								<colorinfo>
									<lut></lut>
									<lut1></lut1>
									<asc_sop></asc_sop>
									<asc_sat></asc_sat>
									<lut2></lut2>
								</colorinfo>
								<labels>
									<label2>Rose</label2>
								</labels>
							</clip>
							<clip id="masterclip-143" explodedTracks="true">
								<uuid>46a4b93b-9567-4088-a8c2-3eeca3c3e982</uuid>
								<masterclipid>masterclip-143</masterclipid>
								<ismasterclip>TRUE</ismasterclip>
								<duration>5844</duration>
								<rate>
									<timebase>30</timebase>
									<ntsc>TRUE</ntsc>
								</rate>
								<name>refined nature of sante fe</name>
								<media>
									<video>
										<track>
											<clipitem id="clipitem-839">
												<masterclipid>masterclip-143</masterclipid>
												<name>refined nature of sante fe</name>
												<rate>
													<timebase>30</timebase>
													<ntsc>TRUE</ntsc>
												</rate>
												<alphatype>straight</alphatype>
												<file id="file-123"/>
											</clipitem>
										</track>
									</video>
								</media>
								<logginginfo>
									<description></description>
									<scene></scene>
									<shottake></shottake>
									<lognote></lognote>
									<good></good>
									<originalvideofilename></originalvideofilename>
									<originalaudiofilename></originalaudiofilename>
								</logginginfo>
								<colorinfo>
									<lut></lut>
									<lut1></lut1>
									<asc_sop></asc_sop>
									<asc_sat></asc_sat>
									<lut2></lut2>
								</colorinfo>
								<labels>
									<label2>Rose</label2>
								</labels>
							</clip>
							<clip id="masterclip-147" explodedTracks="true">
								<uuid>450bec1d-5832-4029-a266-9d4920f84a31</uuid>
								<masterclipid>masterclip-147</masterclipid>
								<ismasterclip>TRUE</ismasterclip>
								<duration>5844</duration>
								<rate>
									<timebase>30</timebase>
									<ntsc>TRUE</ntsc>
								</rate>
								<name>ADCARTATTACK</name>
								<media>
									<video>
										<track>
											<clipitem id="clipitem-840">
												<masterclipid>masterclip-147</masterclipid>
												<name>ADCARTATTACK</name>
												<rate>
													<timebase>30</timebase>
													<ntsc>TRUE</ntsc>
												</rate>
												<alphatype>straight</alphatype>
												<file id="file-126"/>
											</clipitem>
										</track>
									</video>
								</media>
								<logginginfo>
									<description></description>
									<scene></scene>
									<shottake></shottake>
									<lognote></lognote>
									<good></good>
									<originalvideofilename></originalvideofilename>
									<originalaudiofilename></originalaudiofilename>
								</logginginfo>
								<colorinfo>
									<lut></lut>
									<lut1></lut1>
									<asc_sop></asc_sop>
									<asc_sat></asc_sat>
									<lut2></lut2>
								</colorinfo>
								<labels>
									<label2>Rose</label2>
								</labels>
							</clip>
							<clip id="masterclip-153" explodedTracks="true">
								<uuid>71cc63cc-9de1-4c62-a4ce-184d22a3eddb</uuid>
								<masterclipid>masterclip-153</masterclipid>
								<ismasterclip>TRUE</ismasterclip>
								<duration>5844</duration>
								<rate>
									<timebase>30</timebase>
									<ntsc>TRUE</ntsc>
								</rate>
								<name>day's crochet</name>
								<media>
									<video>
										<track>
											<clipitem id="clipitem-841">
												<masterclipid>masterclip-153</masterclipid>
												<name>day's crochet</name>
												<rate>
													<timebase>30</timebase>
													<ntsc>TRUE</ntsc>
												</rate>
												<alphatype>straight</alphatype>
												<file id="file-131"/>
											</clipitem>
										</track>
									</video>
								</media>
								<logginginfo>
									<description></description>
									<scene></scene>
									<shottake></shottake>
									<lognote></lognote>
									<good></good>
									<originalvideofilename></originalvideofilename>
									<originalaudiofilename></originalaudiofilename>
								</logginginfo>
								<colorinfo>
									<lut></lut>
									<lut1></lut1>
									<asc_sop></asc_sop>
									<asc_sat></asc_sat>
									<lut2></lut2>
								</colorinfo>
								<labels>
									<label2>Rose</label2>
								</labels>
							</clip>
							<clip id="masterclip-159" explodedTracks="true">
								<uuid>796572b6-0113-40a1-8da9-7ab99f1ae140</uuid>
								<masterclipid>masterclip-159</masterclipid>
								<ismasterclip>TRUE</ismasterclip>
								<duration>5844</duration>
								<rate>
									<timebase>30</timebase>
									<ntsc>TRUE</ntsc>
								</rate>
								<name>andy elliliott craft &amp; creations</name>
								<media>
									<video>
										<track>
											<clipitem id="clipitem-842">
												<masterclipid>masterclip-159</masterclipid>
												<name>andy elliliott craft &amp; creations</name>
												<rate>
													<timebase>30</timebase>
													<ntsc>TRUE</ntsc>
												</rate>
												<alphatype>straight</alphatype>
												<file id="file-136"/>
											</clipitem>
										</track>
									</video>
								</media>
								<logginginfo>
									<description></description>
									<scene></scene>
									<shottake></shottake>
									<lognote></lognote>
									<good></good>
									<originalvideofilename></originalvideofilename>
									<originalaudiofilename></originalaudiofilename>
								</logginginfo>
								<colorinfo>
									<lut></lut>
									<lut1></lut1>
									<asc_sop></asc_sop>
									<asc_sat></asc_sat>
									<lut2></lut2>
								</colorinfo>
								<labels>
									<label2>Rose</label2>
								</labels>
							</clip>
							<clip id="masterclip-160" explodedTracks="true">
								<uuid>61b5ab79-72b9-4174-a9a8-c1bed741f799</uuid>
								<masterclipid>masterclip-160</masterclipid>
								<ismasterclip>TRUE</ismasterclip>
								<duration>5844</duration>
								<rate>
									<timebase>30</timebase>
									<ntsc>TRUE</ntsc>
								</rate>
								<name>@kary_diy</name>
								<media>
									<video>
										<track>
											<clipitem id="clipitem-843">
												<masterclipid>masterclip-160</masterclipid>
												<name>@kary_diy</name>
												<rate>
													<timebase>30</timebase>
													<ntsc>TRUE</ntsc>
												</rate>
												<alphatype>straight</alphatype>
												<file id="file-137"/>
											</clipitem>
										</track>
									</video>
								</media>
								<logginginfo>
									<description></description>
									<scene></scene>
									<shottake></shottake>
									<lognote></lognote>
									<good></good>
									<originalvideofilename></originalvideofilename>
									<originalaudiofilename></originalaudiofilename>
								</logginginfo>
								<colorinfo>
									<lut></lut>
									<lut1></lut1>
									<asc_sop></asc_sop>
									<asc_sat></asc_sat>
									<lut2></lut2>
								</colorinfo>
								<labels>
									<label2>Rose</label2>
								</labels>
							</clip>
							<clip id="masterclip-169" explodedTracks="true">
								<uuid>d1b34975-7700-4510-9f64-f79236dc9b4e</uuid>
								<masterclipid>masterclip-169</masterclipid>
								<ismasterclip>TRUE</ismasterclip>
								<duration>5844</duration>
								<rate>
									<timebase>30</timebase>
									<ntsc>TRUE</ntsc>
								</rate>
								<name>agno black red</name>
								<media>
									<video>
										<track>
											<clipitem id="clipitem-844">
												<masterclipid>masterclip-169</masterclipid>
												<name>agno black red</name>
												<rate>
													<timebase>30</timebase>
													<ntsc>TRUE</ntsc>
												</rate>
												<alphatype>straight</alphatype>
												<file id="file-145"/>
											</clipitem>
										</track>
									</video>
								</media>
								<logginginfo>
									<description></description>
									<scene></scene>
									<shottake></shottake>
									<lognote></lognote>
									<good></good>
									<originalvideofilename></originalvideofilename>
									<originalaudiofilename></originalaudiofilename>
								</logginginfo>
								<colorinfo>
									<lut></lut>
									<lut1></lut1>
									<asc_sop></asc_sop>
									<asc_sat></asc_sat>
									<lut2></lut2>
								</colorinfo>
								<labels>
									<label2>Rose</label2>
								</labels>
							</clip>
							<clip id="masterclip-170" explodedTracks="true">
								<uuid>d8812820-e472-4ab6-b50f-797999929648</uuid>
								<masterclipid>masterclip-170</masterclipid>
								<ismasterclip>TRUE</ismasterclip>
								<duration>5844</duration>
								<rate>
									<timebase>30</timebase>
									<ntsc>TRUE</ntsc>
								</rate>
								<name>wavykid kev</name>
								<media>
									<video>
										<track>
											<clipitem id="clipitem-845">
												<masterclipid>masterclip-170</masterclipid>
												<name>wavykid kev</name>
												<rate>
													<timebase>30</timebase>
													<ntsc>TRUE</ntsc>
												</rate>
												<alphatype>straight</alphatype>
												<file id="file-146"/>
											</clipitem>
										</track>
									</video>
								</media>
								<logginginfo>
									<description></description>
									<scene></scene>
									<shottake></shottake>
									<lognote></lognote>
									<good></good>
									<originalvideofilename></originalvideofilename>
									<originalaudiofilename></originalaudiofilename>
								</logginginfo>
								<colorinfo>
									<lut></lut>
									<lut1></lut1>
									<asc_sop></asc_sop>
									<asc_sat></asc_sat>
									<lut2></lut2>
								</colorinfo>
								<labels>
									<label2>Rose</label2>
								</labels>
							</clip>
							<clip id="masterclip-174" explodedTracks="true">
								<uuid>3da7daa5-b0bd-47ef-b67c-c769f1326438</uuid>
								<masterclipid>masterclip-174</masterclipid>
								<ismasterclip>TRUE</ismasterclip>
								<duration>5844</duration>
								<rate>
									<timebase>30</timebase>
									<ntsc>TRUE</ntsc>
								</rate>
								<name>SHMOXD</name>
								<media>
									<video>
										<track>
											<clipitem id="clipitem-846">
												<masterclipid>masterclip-174</masterclipid>
												<name>SHMOXD</name>
												<rate>
													<timebase>30</timebase>
													<ntsc>TRUE</ntsc>
												</rate>
												<alphatype>straight</alphatype>
												<file id="file-149"/>
											</clipitem>
										</track>
									</video>
								</media>
								<logginginfo>
									<description></description>
									<scene></scene>
									<shottake></shottake>
									<lognote></lognote>
									<good></good>
									<originalvideofilename></originalvideofilename>
									<originalaudiofilename></originalaudiofilename>
								</logginginfo>
								<colorinfo>
									<lut></lut>
									<lut1></lut1>
									<asc_sop></asc_sop>
									<asc_sat></asc_sat>
									<lut2></lut2>
								</colorinfo>
								<labels>
									<label2>Rose</label2>
								</labels>
							</clip>
							<clip id="masterclip-183" explodedTracks="true">
								<uuid>3ab9b137-8d21-4abe-9c7c-54bf2022ec52</uuid>
								<masterclipid>masterclip-183</masterclipid>
								<ismasterclip>TRUE</ismasterclip>
								<duration>5844</duration>
								<rate>
									<timebase>30</timebase>
									<ntsc>TRUE</ntsc>
								</rate>
								<name>@Carpetnerd</name>
								<media>
									<video>
										<track>
											<clipitem id="clipitem-847">
												<masterclipid>masterclip-183</masterclipid>
												<name>@Carpetnerd</name>
												<rate>
													<timebase>30</timebase>
													<ntsc>TRUE</ntsc>
												</rate>
												<alphatype>straight</alphatype>
												<file id="file-157"/>
											</clipitem>
										</track>
									</video>
								</media>
								<logginginfo>
									<description></description>
									<scene></scene>
									<shottake></shottake>
									<lognote></lognote>
									<good></good>
									<originalvideofilename></originalvideofilename>
									<originalaudiofilename></originalaudiofilename>
								</logginginfo>
								<colorinfo>
									<lut></lut>
									<lut1></lut1>
									<asc_sop></asc_sop>
									<asc_sat></asc_sat>
									<lut2></lut2>
								</colorinfo>
								<labels>
									<label2>Rose</label2>
								</labels>
							</clip>
							<clip id="masterclip-187" explodedTracks="true">
								<uuid>8c8d1a35-1136-40d2-8720-e8dc2480faf6</uuid>
								<masterclipid>masterclip-187</masterclipid>
								<ismasterclip>TRUE</ismasterclip>
								<duration>5844</duration>
								<rate>
									<timebase>30</timebase>
									<ntsc>TRUE</ntsc>
								</rate>
								<name>LIVING TO DIY WITH RACHEL METZ</name>
								<media>
									<video>
										<track>
											<clipitem id="clipitem-848">
												<masterclipid>masterclip-187</masterclipid>
												<name>LIVING TO DIY WITH RACHEL METZ</name>
												<rate>
													<timebase>30</timebase>
													<ntsc>TRUE</ntsc>
												</rate>
												<alphatype>straight</alphatype>
												<file id="file-160"/>
											</clipitem>
										</track>
									</video>
								</media>
								<logginginfo>
									<description></description>
									<scene></scene>
									<shottake></shottake>
									<lognote></lognote>
									<good></good>
									<originalvideofilename></originalvideofilename>
									<originalaudiofilename></originalaudiofilename>
								</logginginfo>
								<colorinfo>
									<lut></lut>
									<lut1></lut1>
									<asc_sop></asc_sop>
									<asc_sat></asc_sat>
									<lut2></lut2>
								</colorinfo>
								<labels>
									<label2>Rose</label2>
								</labels>
							</clip>
							<clip id="masterclip-199" explodedTracks="true">
								<uuid>72dc5717-3fba-495f-b033-e2aab0006d07</uuid>
								<masterclipid>masterclip-199</masterclipid>
								<ismasterclip>TRUE</ismasterclip>
								<duration>5844</duration>
								<rate>
									<timebase>30</timebase>
									<ntsc>TRUE</ntsc>
								</rate>
								<name>@Cinethia</name>
								<media>
									<video>
										<track>
											<clipitem id="clipitem-849">
												<masterclipid>masterclip-199</masterclipid>
												<name>@Cinethia</name>
												<rate>
													<timebase>30</timebase>
													<ntsc>TRUE</ntsc>
												</rate>
												<alphatype>straight</alphatype>
												<file id="file-170"/>
											</clipitem>
										</track>
									</video>
								</media>
								<logginginfo>
									<description></description>
									<scene></scene>
									<shottake></shottake>
									<lognote></lognote>
									<good></good>
									<originalvideofilename></originalvideofilename>
									<originalaudiofilename></originalaudiofilename>
								</logginginfo>
								<colorinfo>
									<lut></lut>
									<lut1></lut1>
									<asc_sop></asc_sop>
									<asc_sat></asc_sat>
									<lut2></lut2>
								</colorinfo>
								<labels>
									<label2>Rose</label2>
								</labels>
							</clip>
							<clip id="masterclip-200" explodedTracks="true">
								<uuid>f84ff56a-c8be-4f91-b242-ccb46c9050aa</uuid>
								<masterclipid>masterclip-200</masterclipid>
								<ismasterclip>TRUE</ismasterclip>
								<duration>5844</duration>
								<rate>
									<timebase>30</timebase>
									<ntsc>TRUE</ntsc>
								</rate>
								<name>@kellyybellyy62</name>
								<media>
									<video>
										<track>
											<clipitem id="clipitem-850">
												<masterclipid>masterclip-200</masterclipid>
												<name>@kellyybellyy62</name>
												<rate>
													<timebase>30</timebase>
													<ntsc>TRUE</ntsc>
												</rate>
												<alphatype>straight</alphatype>
												<file id="file-171"/>
											</clipitem>
										</track>
									</video>
								</media>
								<logginginfo>
									<description></description>
									<scene></scene>
									<shottake></shottake>
									<lognote></lognote>
									<good></good>
									<originalvideofilename></originalvideofilename>
									<originalaudiofilename></originalaudiofilename>
								</logginginfo>
								<colorinfo>
									<lut></lut>
									<lut1></lut1>
									<asc_sop></asc_sop>
									<asc_sat></asc_sat>
									<lut2></lut2>
								</colorinfo>
								<labels>
									<label2>Rose</label2>
								</labels>
							</clip>
							<clip id="masterclip-208" explodedTracks="true">
								<uuid>402593a2-e777-4a08-b444-d0cf773a42d8</uuid>
								<masterclipid>masterclip-208</masterclipid>
								<ismasterclip>TRUE</ismasterclip>
								<duration>5844</duration>
								<rate>
									<timebase>30</timebase>
									<ntsc>TRUE</ntsc>
								</rate>
								<name>@klaudiasyd</name>
								<media>
									<video>
										<track>
											<clipitem id="clipitem-851">
												<masterclipid>masterclip-208</masterclipid>
												<name>@klaudiasyd</name>
												<rate>
													<timebase>30</timebase>
													<ntsc>TRUE</ntsc>
												</rate>
												<alphatype>straight</alphatype>
												<file id="file-178"/>
											</clipitem>
										</track>
									</video>
								</media>
								<logginginfo>
									<description></description>
									<scene></scene>
									<shottake></shottake>
									<lognote></lognote>
									<good></good>
									<originalvideofilename></originalvideofilename>
									<originalaudiofilename></originalaudiofilename>
								</logginginfo>
								<colorinfo>
									<lut></lut>
									<lut1></lut1>
									<asc_sop></asc_sop>
									<asc_sat></asc_sat>
									<lut2></lut2>
								</colorinfo>
								<labels>
									<label2>Rose</label2>
								</labels>
							</clip>
							<clip id="masterclip-209" explodedTracks="true">
								<uuid>9312038d-84a5-4364-b3df-a25217db6c1b</uuid>
								<masterclipid>masterclip-209</masterclipid>
								<ismasterclip>TRUE</ismasterclip>
								<duration>5844</duration>
								<rate>
									<timebase>30</timebase>
									<ntsc>TRUE</ntsc>
								</rate>
								<name>@myriamxn</name>
								<media>
									<video>
										<track>
											<clipitem id="clipitem-852">
												<masterclipid>masterclip-209</masterclipid>
												<name>@myriamxn</name>
												<rate>
													<timebase>30</timebase>
													<ntsc>TRUE</ntsc>
												</rate>
												<alphatype>straight</alphatype>
												<file id="file-179"/>
											</clipitem>
										</track>
									</video>
								</media>
								<logginginfo>
									<description></description>
									<scene></scene>
									<shottake></shottake>
									<lognote></lognote>
									<good></good>
									<originalvideofilename></originalvideofilename>
									<originalaudiofilename></originalaudiofilename>
								</logginginfo>
								<colorinfo>
									<lut></lut>
									<lut1></lut1>
									<asc_sop></asc_sop>
									<asc_sat></asc_sat>
									<lut2></lut2>
								</colorinfo>
								<labels>
									<label2>Rose</label2>
								</labels>
							</clip>
							<clip id="masterclip-210" explodedTracks="true">
								<uuid>5779359d-d010-4a7e-a697-69058afa8c8d</uuid>
								<masterclipid>masterclip-210</masterclipid>
								<ismasterclip>TRUE</ismasterclip>
								<duration>5844</duration>
								<rate>
									<timebase>30</timebase>
									<ntsc>TRUE</ntsc>
								</rate>
								<name>@estertaniaj</name>
								<media>
									<video>
										<track>
											<clipitem id="clipitem-853">
												<masterclipid>masterclip-210</masterclipid>
												<name>@estertaniaj</name>
												<rate>
													<timebase>30</timebase>
													<ntsc>TRUE</ntsc>
												</rate>
												<alphatype>straight</alphatype>
												<file id="file-180"/>
											</clipitem>
										</track>
									</video>
								</media>
								<logginginfo>
									<description></description>
									<scene></scene>
									<shottake></shottake>
									<lognote></lognote>
									<good></good>
									<originalvideofilename></originalvideofilename>
									<originalaudiofilename></originalaudiofilename>
								</logginginfo>
								<colorinfo>
									<lut></lut>
									<lut1></lut1>
									<asc_sop></asc_sop>
									<asc_sat></asc_sat>
									<lut2></lut2>
								</colorinfo>
								<labels>
									<label2>Rose</label2>
								</labels>
							</clip>
							<clip id="masterclip-217" explodedTracks="true">
								<uuid>0597baf4-e443-4181-8b99-7fb145625c61</uuid>
								<masterclipid>masterclip-217</masterclipid>
								<ismasterclip>TRUE</ismasterclip>
								<duration>5844</duration>
								<rate>
									<timebase>30</timebase>
									<ntsc>TRUE</ntsc>
								</rate>
								<name>@ZACRYLICS</name>
								<media>
									<video>
										<track>
											<clipitem id="clipitem-854">
												<masterclipid>masterclip-217</masterclipid>
												<name>@ZACRYLICS</name>
												<rate>
													<timebase>30</timebase>
													<ntsc>TRUE</ntsc>
												</rate>
												<alphatype>straight</alphatype>
												<file id="file-186"/>
											</clipitem>
										</track>
									</video>
								</media>
								<logginginfo>
									<description></description>
									<scene></scene>
									<shottake></shottake>
									<lognote></lognote>
									<good></good>
									<originalvideofilename></originalvideofilename>
									<originalaudiofilename></originalaudiofilename>
								</logginginfo>
								<colorinfo>
									<lut></lut>
									<lut1></lut1>
									<asc_sop></asc_sop>
									<asc_sat></asc_sat>
									<lut2></lut2>
								</colorinfo>
								<labels>
									<label2>Rose</label2>
								</labels>
							</clip>
							<clip id="masterclip-218" explodedTracks="true">
								<uuid>df2e110a-697a-4f58-a7c4-f5000fa0dd9e</uuid>
								<masterclipid>masterclip-218</masterclipid>
								<ismasterclip>TRUE</ismasterclip>
								<duration>5844</duration>
								<rate>
									<timebase>30</timebase>
									<ntsc>TRUE</ntsc>
								</rate>
								<name>@HELUVIEE</name>
								<media>
									<video>
										<track>
											<clipitem id="clipitem-855">
												<masterclipid>masterclip-218</masterclipid>
												<name>@HELUVIEE</name>
												<rate>
													<timebase>30</timebase>
													<ntsc>TRUE</ntsc>
												</rate>
												<alphatype>straight</alphatype>
												<file id="file-187"/>
											</clipitem>
										</track>
									</video>
								</media>
								<logginginfo>
									<description></description>
									<scene></scene>
									<shottake></shottake>
									<lognote></lognote>
									<good></good>
									<originalvideofilename></originalvideofilename>
									<originalaudiofilename></originalaudiofilename>
								</logginginfo>
								<colorinfo>
									<lut></lut>
									<lut1></lut1>
									<asc_sop></asc_sop>
									<asc_sat></asc_sat>
									<lut2></lut2>
								</colorinfo>
								<labels>
									<label2>Rose</label2>
								</labels>
							</clip>
						</children>
					</bin>
					<clip id="masterclip-223" explodedTracks="true">
						<uuid>cf10b740-ce23-4183-bd3a-7eab593512f6</uuid>
						<masterclipid>masterclip-223</masterclipid>
						<ismasterclip>TRUE</ismasterclip>
						<duration>5844</duration>
						<rate>
							<timebase>30</timebase>
							<ntsc>TRUE</ntsc>
						</rate>
						<name>TEMPL@TE</name>
						<media>
							<video>
								<track>
									<clipitem id="clipitem-856">
										<masterclipid>masterclip-223</masterclipid>
										<name>TEMPL@TE</name>
										<rate>
											<timebase>30</timebase>
											<ntsc>TRUE</ntsc>
										</rate>
										<alphatype>straight</alphatype>
										<pixelaspectratio>square</pixelaspectratio>
										<anamorphic>FALSE</anamorphic>
										<file id="file-192">
											<name>1080/AE Attribution.aep</name>
											<pathurl>file://localhost/Volumes/ATM%20JR%202TB/Crafty/Master%20Assets%20/Attribution/AE%20Attribution.aep</pathurl>
											<rate>
												<timebase>30</timebase>
												<ntsc>TRUE</ntsc>
											</rate>
											<duration>5844</duration>
											<timecode>
												<rate>
													<timebase>30</timebase>
													<ntsc>TRUE</ntsc>
												</rate>
												<string>00;00;00;00</string>
												<frame>0</frame>
												<displayformat>DF</displayformat>
											</timecode>
											<media>
												<video>
													<samplecharacteristics>
														<rate>
															<timebase>30</timebase>
															<ntsc>TRUE</ntsc>
														</rate>
														<width>1920</width>
														<height>1080</height>
														<anamorphic>FALSE</anamorphic>
														<pixelaspectratio>square</pixelaspectratio>
														<fielddominance>lower</fielddominance>
													</samplecharacteristics>
												</video>
											</media>
										</file>
									</clipitem>
								</track>
							</video>
						</media>
						<logginginfo>
							<description></description>
							<scene></scene>
							<shottake></shottake>
							<lognote></lognote>
							<good></good>
							<originalvideofilename></originalvideofilename>
							<originalaudiofilename></originalaudiofilename>
						</logginginfo>
						<colorinfo>
							<lut></lut>
							<lut1></lut1>
							<asc_sop></asc_sop>
							<asc_sat></asc_sat>
							<lut2></lut2>
						</colorinfo>
						<labels>
							<label2>Rose</label2>
						</labels>
					</clip>
				</children>
			</bin>
			<bin>
				<name>5_Transitions</name>
				<labels>
					<label2>Mango</label2>
				</labels>
				<children>
					<clip id="masterclip-117" explodedTracks="true">
						<uuid>27b05050-bc23-4f32-8e8b-196eb224546f</uuid>
						<masterclipid>masterclip-117</masterclipid>
						<ismasterclip>TRUE</ismasterclip>
						<duration>121</duration>
						<rate>
							<timebase>30</timebase>
							<ntsc>FALSE</ntsc>
						</rate>
						<name>CRAFTY_TRAN01_JL_V01.mov</name>
						<media>
							<video>
								<track>
									<clipitem id="clipitem-857">
										<masterclipid>masterclip-117</masterclipid>
										<name>CRAFTY_TRAN01_JL_V01.mov</name>
										<rate>
											<timebase>30</timebase>
											<ntsc>FALSE</ntsc>
										</rate>
										<alphatype>none</alphatype>
										<file id="file-102"/>
										<link>
											<linkclipref>clipitem-857</linkclipref>
											<mediatype>video</mediatype>
											<trackindex>1</trackindex>
											<clipindex>1</clipindex>
										</link>
										<link>
											<linkclipref>clipitem-858</linkclipref>
											<mediatype>audio</mediatype>
											<trackindex>1</trackindex>
											<clipindex>1</clipindex>
											<groupindex>1</groupindex>
										</link>
										<link>
											<linkclipref>clipitem-859</linkclipref>
											<mediatype>audio</mediatype>
											<trackindex>2</trackindex>
											<clipindex>1</clipindex>
											<groupindex>1</groupindex>
										</link>
									</clipitem>
								</track>
							</video>
							<audio>
								<track>
									<clipitem id="clipitem-858">
										<masterclipid>masterclip-117</masterclipid>
										<name>CRAFTY_TRAN01_JL_V01.mov</name>
										<rate>
											<timebase>30</timebase>
											<ntsc>FALSE</ntsc>
										</rate>
										<file id="file-102"/>
										<sourcetrack>
											<mediatype>audio</mediatype>
											<trackindex>1</trackindex>
										</sourcetrack>
										<link>
											<linkclipref>clipitem-857</linkclipref>
											<mediatype>video</mediatype>
											<trackindex>1</trackindex>
											<clipindex>1</clipindex>
										</link>
										<link>
											<linkclipref>clipitem-858</linkclipref>
											<mediatype>audio</mediatype>
											<trackindex>1</trackindex>
											<clipindex>1</clipindex>
											<groupindex>1</groupindex>
										</link>
										<link>
											<linkclipref>clipitem-859</linkclipref>
											<mediatype>audio</mediatype>
											<trackindex>2</trackindex>
											<clipindex>1</clipindex>
											<groupindex>1</groupindex>
										</link>
									</clipitem>
								</track>
								<track>
									<clipitem id="clipitem-859">
										<masterclipid>masterclip-117</masterclipid>
										<name>CRAFTY_TRAN01_JL_V01.mov</name>
										<rate>
											<timebase>30</timebase>
											<ntsc>FALSE</ntsc>
										</rate>
										<file id="file-102"/>
										<sourcetrack>
											<mediatype>audio</mediatype>
											<trackindex>2</trackindex>
										</sourcetrack>
										<link>
											<linkclipref>clipitem-857</linkclipref>
											<mediatype>video</mediatype>
											<trackindex>1</trackindex>
											<clipindex>1</clipindex>
										</link>
										<link>
											<linkclipref>clipitem-858</linkclipref>
											<mediatype>audio</mediatype>
											<trackindex>1</trackindex>
											<clipindex>1</clipindex>
											<groupindex>1</groupindex>
										</link>
										<link>
											<linkclipref>clipitem-859</linkclipref>
											<mediatype>audio</mediatype>
											<trackindex>2</trackindex>
											<clipindex>1</clipindex>
											<groupindex>1</groupindex>
										</link>
									</clipitem>
								</track>
							</audio>
						</media>
						<logginginfo>
							<description></description>
							<scene></scene>
							<shottake></shottake>
							<lognote></lognote>
							<good></good>
							<originalvideofilename></originalvideofilename>
							<originalaudiofilename></originalaudiofilename>
						</logginginfo>
						<colorinfo>
							<lut></lut>
							<lut1></lut1>
							<asc_sop></asc_sop>
							<asc_sat></asc_sat>
							<lut2></lut2>
						</colorinfo>
						<labels>
							<label2>Iris</label2>
						</labels>
					</clip>
					<clip id="masterclip-103" explodedTracks="true">
						<uuid>0b0c453c-4f48-4f44-b676-6ddfaee33b22</uuid>
						<masterclipid>masterclip-103</masterclipid>
						<ismasterclip>TRUE</ismasterclip>
						<duration>121</duration>
						<rate>
							<timebase>30</timebase>
							<ntsc>FALSE</ntsc>
						</rate>
						<name>CRAFTY_TRAN02_JL_V01.mov</name>
						<media>
							<video>
								<track>
									<clipitem id="clipitem-860">
										<masterclipid>masterclip-103</masterclipid>
										<name>CRAFTY_TRAN02_JL_V01.mov</name>
										<rate>
											<timebase>30</timebase>
											<ntsc>FALSE</ntsc>
										</rate>
										<alphatype>none</alphatype>
										<file id="file-90"/>
										<link>
											<linkclipref>clipitem-860</linkclipref>
											<mediatype>video</mediatype>
											<trackindex>1</trackindex>
											<clipindex>1</clipindex>
										</link>
										<link>
											<linkclipref>clipitem-861</linkclipref>
											<mediatype>audio</mediatype>
											<trackindex>1</trackindex>
											<clipindex>1</clipindex>
											<groupindex>1</groupindex>
										</link>
										<link>
											<linkclipref>clipitem-862</linkclipref>
											<mediatype>audio</mediatype>
											<trackindex>2</trackindex>
											<clipindex>1</clipindex>
											<groupindex>1</groupindex>
										</link>
									</clipitem>
								</track>
							</video>
							<audio>
								<track>
									<clipitem id="clipitem-861">
										<masterclipid>masterclip-103</masterclipid>
										<name>CRAFTY_TRAN02_JL_V01.mov</name>
										<rate>
											<timebase>30</timebase>
											<ntsc>FALSE</ntsc>
										</rate>
										<file id="file-90"/>
										<sourcetrack>
											<mediatype>audio</mediatype>
											<trackindex>1</trackindex>
										</sourcetrack>
										<link>
											<linkclipref>clipitem-860</linkclipref>
											<mediatype>video</mediatype>
											<trackindex>1</trackindex>
											<clipindex>1</clipindex>
										</link>
										<link>
											<linkclipref>clipitem-861</linkclipref>
											<mediatype>audio</mediatype>
											<trackindex>1</trackindex>
											<clipindex>1</clipindex>
											<groupindex>1</groupindex>
										</link>
										<link>
											<linkclipref>clipitem-862</linkclipref>
											<mediatype>audio</mediatype>
											<trackindex>2</trackindex>
											<clipindex>1</clipindex>
											<groupindex>1</groupindex>
										</link>
									</clipitem>
								</track>
								<track>
									<clipitem id="clipitem-862">
										<masterclipid>masterclip-103</masterclipid>
										<name>CRAFTY_TRAN02_JL_V01.mov</name>
										<rate>
											<timebase>30</timebase>
											<ntsc>FALSE</ntsc>
										</rate>
										<file id="file-90"/>
										<sourcetrack>
											<mediatype>audio</mediatype>
											<trackindex>2</trackindex>
										</sourcetrack>
										<link>
											<linkclipref>clipitem-860</linkclipref>
											<mediatype>video</mediatype>
											<trackindex>1</trackindex>
											<clipindex>1</clipindex>
										</link>
										<link>
											<linkclipref>clipitem-861</linkclipref>
											<mediatype>audio</mediatype>
											<trackindex>1</trackindex>
											<clipindex>1</clipindex>
											<groupindex>1</groupindex>
										</link>
										<link>
											<linkclipref>clipitem-862</linkclipref>
											<mediatype>audio</mediatype>
											<trackindex>2</trackindex>
											<clipindex>1</clipindex>
											<groupindex>1</groupindex>
										</link>
									</clipitem>
								</track>
							</audio>
						</media>
						<logginginfo>
							<description></description>
							<scene></scene>
							<shottake></shottake>
							<lognote></lognote>
							<good></good>
							<originalvideofilename></originalvideofilename>
							<originalaudiofilename></originalaudiofilename>
						</logginginfo>
						<colorinfo>
							<lut></lut>
							<lut1></lut1>
							<asc_sop></asc_sop>
							<asc_sat></asc_sat>
							<lut2></lut2>
						</colorinfo>
						<labels>
							<label2>Iris</label2>
						</labels>
					</clip>
					<clip id="masterclip-104" explodedTracks="true">
						<uuid>5432e7b5-ee31-4d53-906d-44e07f4f206b</uuid>
						<masterclipid>masterclip-104</masterclipid>
						<ismasterclip>TRUE</ismasterclip>
						<duration>121</duration>
						<rate>
							<timebase>30</timebase>
							<ntsc>FALSE</ntsc>
						</rate>
						<name>CRAFTY_TRAN03_JL_V01.mov</name>
						<media>
							<video>
								<track>
									<clipitem id="clipitem-863">
										<masterclipid>masterclip-104</masterclipid>
										<name>CRAFTY_TRAN03_JL_V01.mov</name>
										<rate>
											<timebase>30</timebase>
											<ntsc>FALSE</ntsc>
										</rate>
										<alphatype>none</alphatype>
										<file id="file-91"/>
										<link>
											<linkclipref>clipitem-863</linkclipref>
											<mediatype>video</mediatype>
											<trackindex>1</trackindex>
											<clipindex>1</clipindex>
										</link>
										<link>
											<linkclipref>clipitem-864</linkclipref>
											<mediatype>audio</mediatype>
											<trackindex>1</trackindex>
											<clipindex>1</clipindex>
											<groupindex>1</groupindex>
										</link>
										<link>
											<linkclipref>clipitem-865</linkclipref>
											<mediatype>audio</mediatype>
											<trackindex>2</trackindex>
											<clipindex>1</clipindex>
											<groupindex>1</groupindex>
										</link>
									</clipitem>
								</track>
							</video>
							<audio>
								<track>
									<clipitem id="clipitem-864">
										<masterclipid>masterclip-104</masterclipid>
										<name>CRAFTY_TRAN03_JL_V01.mov</name>
										<rate>
											<timebase>30</timebase>
											<ntsc>FALSE</ntsc>
										</rate>
										<file id="file-91"/>
										<sourcetrack>
											<mediatype>audio</mediatype>
											<trackindex>1</trackindex>
										</sourcetrack>
										<link>
											<linkclipref>clipitem-863</linkclipref>
											<mediatype>video</mediatype>
											<trackindex>1</trackindex>
											<clipindex>1</clipindex>
										</link>
										<link>
											<linkclipref>clipitem-864</linkclipref>
											<mediatype>audio</mediatype>
											<trackindex>1</trackindex>
											<clipindex>1</clipindex>
											<groupindex>1</groupindex>
										</link>
										<link>
											<linkclipref>clipitem-865</linkclipref>
											<mediatype>audio</mediatype>
											<trackindex>2</trackindex>
											<clipindex>1</clipindex>
											<groupindex>1</groupindex>
										</link>
									</clipitem>
								</track>
								<track>
									<clipitem id="clipitem-865">
										<masterclipid>masterclip-104</masterclipid>
										<name>CRAFTY_TRAN03_JL_V01.mov</name>
										<rate>
											<timebase>30</timebase>
											<ntsc>FALSE</ntsc>
										</rate>
										<file id="file-91"/>
										<sourcetrack>
											<mediatype>audio</mediatype>
											<trackindex>2</trackindex>
										</sourcetrack>
										<link>
											<linkclipref>clipitem-863</linkclipref>
											<mediatype>video</mediatype>
											<trackindex>1</trackindex>
											<clipindex>1</clipindex>
										</link>
										<link>
											<linkclipref>clipitem-864</linkclipref>
											<mediatype>audio</mediatype>
											<trackindex>1</trackindex>
											<clipindex>1</clipindex>
											<groupindex>1</groupindex>
										</link>
										<link>
											<linkclipref>clipitem-865</linkclipref>
											<mediatype>audio</mediatype>
											<trackindex>2</trackindex>
											<clipindex>1</clipindex>
											<groupindex>1</groupindex>
										</link>
									</clipitem>
								</track>
							</audio>
						</media>
						<logginginfo>
							<description></description>
							<scene></scene>
							<shottake></shottake>
							<lognote></lognote>
							<good></good>
							<originalvideofilename></originalvideofilename>
							<originalaudiofilename></originalaudiofilename>
						</logginginfo>
						<colorinfo>
							<lut></lut>
							<lut1></lut1>
							<asc_sop></asc_sop>
							<asc_sat></asc_sat>
							<lut2></lut2>
						</colorinfo>
						<labels>
							<label2>Iris</label2>
						</labels>
					</clip>
					<clip id="masterclip-162" explodedTracks="true">
						<uuid>eefe1586-e1b2-44cd-ab08-ca81cb355bf2</uuid>
						<masterclipid>masterclip-162</masterclipid>
						<ismasterclip>TRUE</ismasterclip>
						<duration>240</duration>
						<rate>
							<timebase>30</timebase>
							<ntsc>FALSE</ntsc>
						</rate>
						<name>ATM_HouseAd_2023_V2.mp4</name>
						<media>
							<video>
								<track>
									<clipitem id="clipitem-866">
										<masterclipid>masterclip-162</masterclipid>
										<name>ATM_HouseAd_2023_V2.mp4</name>
										<rate>
											<timebase>30</timebase>
											<ntsc>FALSE</ntsc>
										</rate>
										<alphatype>none</alphatype>
										<file id="file-139"/>
										<link>
											<linkclipref>clipitem-866</linkclipref>
											<mediatype>video</mediatype>
											<trackindex>1</trackindex>
											<clipindex>1</clipindex>
										</link>
										<link>
											<linkclipref>clipitem-867</linkclipref>
											<mediatype>audio</mediatype>
											<trackindex>1</trackindex>
											<clipindex>1</clipindex>
											<groupindex>1</groupindex>
										</link>
										<link>
											<linkclipref>clipitem-868</linkclipref>
											<mediatype>audio</mediatype>
											<trackindex>2</trackindex>
											<clipindex>1</clipindex>
											<groupindex>1</groupindex>
										</link>
									</clipitem>
								</track>
							</video>
							<audio>
								<track>
									<clipitem id="clipitem-867">
										<masterclipid>masterclip-162</masterclipid>
										<name>ATM_HouseAd_2023_V2.mp4</name>
										<rate>
											<timebase>30</timebase>
											<ntsc>FALSE</ntsc>
										</rate>
										<file id="file-139"/>
										<sourcetrack>
											<mediatype>audio</mediatype>
											<trackindex>1</trackindex>
										</sourcetrack>
										<link>
											<linkclipref>clipitem-866</linkclipref>
											<mediatype>video</mediatype>
											<trackindex>1</trackindex>
											<clipindex>1</clipindex>
										</link>
										<link>
											<linkclipref>clipitem-867</linkclipref>
											<mediatype>audio</mediatype>
											<trackindex>1</trackindex>
											<clipindex>1</clipindex>
											<groupindex>1</groupindex>
										</link>
										<link>
											<linkclipref>clipitem-868</linkclipref>
											<mediatype>audio</mediatype>
											<trackindex>2</trackindex>
											<clipindex>1</clipindex>
											<groupindex>1</groupindex>
										</link>
									</clipitem>
								</track>
								<track>
									<clipitem id="clipitem-868">
										<masterclipid>masterclip-162</masterclipid>
										<name>ATM_HouseAd_2023_V2.mp4</name>
										<rate>
											<timebase>30</timebase>
											<ntsc>FALSE</ntsc>
										</rate>
										<file id="file-139"/>
										<sourcetrack>
											<mediatype>audio</mediatype>
											<trackindex>2</trackindex>
										</sourcetrack>
										<link>
											<linkclipref>clipitem-866</linkclipref>
											<mediatype>video</mediatype>
											<trackindex>1</trackindex>
											<clipindex>1</clipindex>
										</link>
										<link>
											<linkclipref>clipitem-867</linkclipref>
											<mediatype>audio</mediatype>
											<trackindex>1</trackindex>
											<clipindex>1</clipindex>
											<groupindex>1</groupindex>
										</link>
										<link>
											<linkclipref>clipitem-868</linkclipref>
											<mediatype>audio</mediatype>
											<trackindex>2</trackindex>
											<clipindex>1</clipindex>
											<groupindex>1</groupindex>
										</link>
									</clipitem>
								</track>
							</audio>
						</media>
						<logginginfo>
							<description></description>
							<scene></scene>
							<shottake></shottake>
							<lognote></lognote>
							<good></good>
							<originalvideofilename></originalvideofilename>
							<originalaudiofilename></originalaudiofilename>
						</logginginfo>
						<colorinfo>
							<lut></lut>
							<lut1></lut1>
							<asc_sop></asc_sop>
							<asc_sat></asc_sat>
							<lut2></lut2>
						</colorinfo>
						<labels>
							<label2>Iris</label2>
						</labels>
					</clip>
					<clip id="masterclip-102" explodedTracks="true">
						<uuid>078bb192-260c-4a18-9544-8b9de7839e53</uuid>
						<masterclipid>masterclip-102</masterclipid>
						<ismasterclip>TRUE</ismasterclip>
						<duration>150</duration>
						<rate>
							<timebase>30</timebase>
							<ntsc>TRUE</ntsc>
						</rate>
						<in>0</in>
						<out>149</out>
						<name>ATM_logo_channels_right-2 (3).png</name>
						<media>
							<video>
								<track>
									<clipitem id="clipitem-869">
										<masterclipid>masterclip-102</masterclipid>
										<name>ATM_logo_channels_right-2 (3).png</name>
										<rate>
											<timebase>30</timebase>
											<ntsc>TRUE</ntsc>
										</rate>
										<alphatype>straight</alphatype>
										<file id="file-89"/>
									</clipitem>
								</track>
							</video>
						</media>
						<logginginfo>
							<description></description>
							<scene></scene>
							<shottake></shottake>
							<lognote></lognote>
							<good></good>
							<originalvideofilename></originalvideofilename>
							<originalaudiofilename></originalaudiofilename>
						</logginginfo>
						<colorinfo>
							<lut></lut>
							<lut1></lut1>
							<asc_sop></asc_sop>
							<asc_sat></asc_sat>
							<lut2></lut2>
						</colorinfo>
						<labels>
							<label2>Lavender</label2>
						</labels>
					</clip>
					<clip id="masterclip-128" explodedTracks="true">
						<uuid>002b2b9d-53cd-44b4-8397-57407bbc6937</uuid>
						<masterclipid>masterclip-128</masterclipid>
						<ismasterclip>TRUE</ismasterclip>
						<duration>300</duration>
						<rate>
							<timebase>30</timebase>
							<ntsc>FALSE</ntsc>
						</rate>
						<name>ATM_YouAreWatching.mp4</name>
						<media>
							<video>
								<track>
									<clipitem id="clipitem-870">
										<masterclipid>masterclip-128</masterclipid>
										<name>ATM_YouAreWatching.mp4</name>
										<rate>
											<timebase>30</timebase>
											<ntsc>FALSE</ntsc>
										</rate>
										<alphatype>none</alphatype>
										<file id="file-111"/>
										<link>
											<linkclipref>clipitem-870</linkclipref>
											<mediatype>video</mediatype>
											<trackindex>1</trackindex>
											<clipindex>1</clipindex>
										</link>
										<link>
											<linkclipref>clipitem-871</linkclipref>
											<mediatype>audio</mediatype>
											<trackindex>1</trackindex>
											<clipindex>1</clipindex>
											<groupindex>1</groupindex>
										</link>
										<link>
											<linkclipref>clipitem-872</linkclipref>
											<mediatype>audio</mediatype>
											<trackindex>2</trackindex>
											<clipindex>1</clipindex>
											<groupindex>1</groupindex>
										</link>
									</clipitem>
								</track>
							</video>
							<audio>
								<track>
									<clipitem id="clipitem-871">
										<masterclipid>masterclip-128</masterclipid>
										<name>ATM_YouAreWatching.mp4</name>
										<rate>
											<timebase>30</timebase>
											<ntsc>FALSE</ntsc>
										</rate>
										<file id="file-111"/>
										<sourcetrack>
											<mediatype>audio</mediatype>
											<trackindex>1</trackindex>
										</sourcetrack>
										<link>
											<linkclipref>clipitem-870</linkclipref>
											<mediatype>video</mediatype>
											<trackindex>1</trackindex>
											<clipindex>1</clipindex>
										</link>
										<link>
											<linkclipref>clipitem-871</linkclipref>
											<mediatype>audio</mediatype>
											<trackindex>1</trackindex>
											<clipindex>1</clipindex>
											<groupindex>1</groupindex>
										</link>
										<link>
											<linkclipref>clipitem-872</linkclipref>
											<mediatype>audio</mediatype>
											<trackindex>2</trackindex>
											<clipindex>1</clipindex>
											<groupindex>1</groupindex>
										</link>
									</clipitem>
								</track>
								<track>
									<clipitem id="clipitem-872">
										<masterclipid>masterclip-128</masterclipid>
										<name>ATM_YouAreWatching.mp4</name>
										<rate>
											<timebase>30</timebase>
											<ntsc>FALSE</ntsc>
										</rate>
										<file id="file-111"/>
										<sourcetrack>
											<mediatype>audio</mediatype>
											<trackindex>2</trackindex>
										</sourcetrack>
										<link>
											<linkclipref>clipitem-870</linkclipref>
											<mediatype>video</mediatype>
											<trackindex>1</trackindex>
											<clipindex>1</clipindex>
										</link>
										<link>
											<linkclipref>clipitem-871</linkclipref>
											<mediatype>audio</mediatype>
											<trackindex>1</trackindex>
											<clipindex>1</clipindex>
											<groupindex>1</groupindex>
										</link>
										<link>
											<linkclipref>clipitem-872</linkclipref>
											<mediatype>audio</mediatype>
											<trackindex>2</trackindex>
											<clipindex>1</clipindex>
											<groupindex>1</groupindex>
										</link>
									</clipitem>
								</track>
							</audio>
						</media>
						<logginginfo>
							<description></description>
							<scene></scene>
							<shottake></shottake>
							<lognote></lognote>
							<good></good>
							<originalvideofilename></originalvideofilename>
							<originalaudiofilename></originalaudiofilename>
						</logginginfo>
						<colorinfo>
							<lut></lut>
							<lut1></lut1>
							<asc_sop></asc_sop>
							<asc_sat></asc_sat>
							<lut2></lut2>
						</colorinfo>
						<labels>
							<label2>Iris</label2>
						</labels>
					</clip>
				</children>
			</bin>
			<bin>
				<name>6_Music</name>
				<labels>
					<label2>Mango</label2>
				</labels>
				<children>
					<bin>
						<name>used</name>
						<labels>
							<label2>Mango</label2>
						</labels>
						<children>
							<clip id="masterclip-95" explodedTracks="true">
								<uuid>ea1490cf-b208-495b-a91f-12cb85da816c</uuid>
								<masterclipid>masterclip-95</masterclipid>
								<ismasterclip>TRUE</ismasterclip>
								<duration>4429</duration>
								<rate>
									<timebase>30</timebase>
									<ntsc>TRUE</ntsc>
								</rate>
								<name>ES_Cambodia Rain - SINY.wav</name>
								<media>
									<audio>
										<track>
											<clipitem id="clipitem-873">
												<masterclipid>masterclip-95</masterclipid>
												<name>ES_Cambodia Rain - SINY.wav</name>
												<rate>
													<timebase>30</timebase>
													<ntsc>TRUE</ntsc>
												</rate>
												<file id="file-83"/>
												<sourcetrack>
													<mediatype>audio</mediatype>
													<trackindex>1</trackindex>
												</sourcetrack>
												<link>
													<linkclipref>clipitem-873</linkclipref>
													<mediatype>audio</mediatype>
													<trackindex>1</trackindex>
													<clipindex>1</clipindex>
													<groupindex>1</groupindex>
												</link>
												<link>
													<linkclipref>clipitem-874</linkclipref>
													<mediatype>audio</mediatype>
													<trackindex>2</trackindex>
													<clipindex>1</clipindex>
													<groupindex>1</groupindex>
												</link>
											</clipitem>
										</track>
										<track>
											<clipitem id="clipitem-874">
												<masterclipid>masterclip-95</masterclipid>
												<name>ES_Cambodia Rain - SINY.wav</name>
												<rate>
													<timebase>30</timebase>
													<ntsc>TRUE</ntsc>
												</rate>
												<file id="file-83"/>
												<sourcetrack>
													<mediatype>audio</mediatype>
													<trackindex>2</trackindex>
												</sourcetrack>
												<link>
													<linkclipref>clipitem-873</linkclipref>
													<mediatype>audio</mediatype>
													<trackindex>1</trackindex>
													<clipindex>1</clipindex>
													<groupindex>1</groupindex>
												</link>
												<link>
													<linkclipref>clipitem-874</linkclipref>
													<mediatype>audio</mediatype>
													<trackindex>2</trackindex>
													<clipindex>1</clipindex>
													<groupindex>1</groupindex>
												</link>
											</clipitem>
										</track>
									</audio>
								</media>
								<logginginfo>
									<description></description>
									<scene></scene>
									<shottake></shottake>
									<lognote></lognote>
									<good></good>
									<originalvideofilename></originalvideofilename>
									<originalaudiofilename></originalaudiofilename>
								</logginginfo>
								<colorinfo>
									<lut></lut>
									<lut1></lut1>
									<asc_sop></asc_sop>
									<asc_sat></asc_sat>
									<lut2></lut2>
								</colorinfo>
								<labels>
									<label2>Caribbean</label2>
								</labels>
							</clip>
							<clip id="masterclip-99" explodedTracks="true">
								<uuid>c7fa0f4c-b411-4483-a580-8b3c9e249e07</uuid>
								<masterclipid>masterclip-99</masterclipid>
								<ismasterclip>TRUE</ismasterclip>
								<duration>4146</duration>
								<rate>
									<timebase>30</timebase>
									<ntsc>TRUE</ntsc>
								</rate>
								<name>ES_Depths - Guustavv.wav</name>
								<media>
									<audio>
										<track>
											<clipitem id="clipitem-875">
												<masterclipid>masterclip-99</masterclipid>
												<name>ES_Depths - Guustavv.wav</name>
												<rate>
													<timebase>30</timebase>
													<ntsc>TRUE</ntsc>
												</rate>
												<file id="file-86"/>
												<sourcetrack>
													<mediatype>audio</mediatype>
													<trackindex>1</trackindex>
												</sourcetrack>
												<link>
													<linkclipref>clipitem-875</linkclipref>
													<mediatype>audio</mediatype>
													<trackindex>1</trackindex>
													<clipindex>1</clipindex>
													<groupindex>1</groupindex>
												</link>
												<link>
													<linkclipref>clipitem-876</linkclipref>
													<mediatype>audio</mediatype>
													<trackindex>2</trackindex>
													<clipindex>1</clipindex>
													<groupindex>1</groupindex>
												</link>
											</clipitem>
										</track>
										<track>
											<clipitem id="clipitem-876">
												<masterclipid>masterclip-99</masterclipid>
												<name>ES_Depths - Guustavv.wav</name>
												<rate>
													<timebase>30</timebase>
													<ntsc>TRUE</ntsc>
												</rate>
												<file id="file-86"/>
												<sourcetrack>
													<mediatype>audio</mediatype>
													<trackindex>2</trackindex>
												</sourcetrack>
												<link>
													<linkclipref>clipitem-875</linkclipref>
													<mediatype>audio</mediatype>
													<trackindex>1</trackindex>
													<clipindex>1</clipindex>
													<groupindex>1</groupindex>
												</link>
												<link>
													<linkclipref>clipitem-876</linkclipref>
													<mediatype>audio</mediatype>
													<trackindex>2</trackindex>
													<clipindex>1</clipindex>
													<groupindex>1</groupindex>
												</link>
											</clipitem>
										</track>
									</audio>
								</media>
								<logginginfo>
									<description></description>
									<scene></scene>
									<shottake></shottake>
									<lognote></lognote>
									<good></good>
									<originalvideofilename></originalvideofilename>
									<originalaudiofilename></originalaudiofilename>
								</logginginfo>
								<colorinfo>
									<lut></lut>
									<lut1></lut1>
									<asc_sop></asc_sop>
									<asc_sat></asc_sat>
									<lut2></lut2>
								</colorinfo>
								<labels>
									<label2>Caribbean</label2>
								</labels>
							</clip>
							<clip id="masterclip-108" explodedTracks="true">
								<uuid>795eaf2b-dac6-4d84-92bd-17a0ec9b7374</uuid>
								<masterclipid>masterclip-108</masterclipid>
								<ismasterclip>TRUE</ismasterclip>
								<duration>5514</duration>
								<rate>
									<timebase>30</timebase>
									<ntsc>TRUE</ntsc>
								</rate>
								<name>ES_Don't Take It So Personal - Sarah, the Illstrumentalist.wav</name>
								<media>
									<audio>
										<track>
											<clipitem id="clipitem-877">
												<masterclipid>masterclip-108</masterclipid>
												<name>ES_Don't Take It So Personal - Sarah, the Illstrumentalist.wav</name>
												<rate>
													<timebase>30</timebase>
													<ntsc>TRUE</ntsc>
												</rate>
												<file id="file-94"/>
												<sourcetrack>
													<mediatype>audio</mediatype>
													<trackindex>1</trackindex>
												</sourcetrack>
												<link>
													<linkclipref>clipitem-877</linkclipref>
													<mediatype>audio</mediatype>
													<trackindex>1</trackindex>
													<clipindex>1</clipindex>
													<groupindex>1</groupindex>
												</link>
												<link>
													<linkclipref>clipitem-878</linkclipref>
													<mediatype>audio</mediatype>
													<trackindex>2</trackindex>
													<clipindex>1</clipindex>
													<groupindex>1</groupindex>
												</link>
											</clipitem>
										</track>
										<track>
											<clipitem id="clipitem-878">
												<masterclipid>masterclip-108</masterclipid>
												<name>ES_Don't Take It So Personal - Sarah, the Illstrumentalist.wav</name>
												<rate>
													<timebase>30</timebase>
													<ntsc>TRUE</ntsc>
												</rate>
												<file id="file-94"/>
												<sourcetrack>
													<mediatype>audio</mediatype>
													<trackindex>2</trackindex>
												</sourcetrack>
												<link>
													<linkclipref>clipitem-877</linkclipref>
													<mediatype>audio</mediatype>
													<trackindex>1</trackindex>
													<clipindex>1</clipindex>
													<groupindex>1</groupindex>
												</link>
												<link>
													<linkclipref>clipitem-878</linkclipref>
													<mediatype>audio</mediatype>
													<trackindex>2</trackindex>
													<clipindex>1</clipindex>
													<groupindex>1</groupindex>
												</link>
											</clipitem>
										</track>
									</audio>
								</media>
								<logginginfo>
									<description></description>
									<scene></scene>
									<shottake></shottake>
									<lognote></lognote>
									<good></good>
									<originalvideofilename></originalvideofilename>
									<originalaudiofilename></originalaudiofilename>
								</logginginfo>
								<colorinfo>
									<lut></lut>
									<lut1></lut1>
									<asc_sop></asc_sop>
									<asc_sat></asc_sat>
									<lut2></lut2>
								</colorinfo>
								<labels>
									<label2>Caribbean</label2>
								</labels>
							</clip>
							<clip id="masterclip-114" explodedTracks="true">
								<uuid>21fc9498-b467-47f6-b848-b3fce7194e05</uuid>
								<masterclipid>masterclip-114</masterclipid>
								<ismasterclip>TRUE</ismasterclip>
								<duration>5675</duration>
								<rate>
									<timebase>30</timebase>
									<ntsc>TRUE</ntsc>
								</rate>
								<name>ES_Drizzle in Da Hizzle - Daniel Fridell.wav</name>
								<media>
									<audio>
										<track>
											<clipitem id="clipitem-879">
												<masterclipid>masterclip-114</masterclipid>
												<name>ES_Drizzle in Da Hizzle - Daniel Fridell.wav</name>
												<rate>
													<timebase>30</timebase>
													<ntsc>TRUE</ntsc>
												</rate>
												<file id="file-99"/>
												<sourcetrack>
													<mediatype>audio</mediatype>
													<trackindex>1</trackindex>
												</sourcetrack>
												<link>
													<linkclipref>clipitem-879</linkclipref>
													<mediatype>audio</mediatype>
													<trackindex>1</trackindex>
													<clipindex>1</clipindex>
													<groupindex>1</groupindex>
												</link>
												<link>
													<linkclipref>clipitem-880</linkclipref>
													<mediatype>audio</mediatype>
													<trackindex>2</trackindex>
													<clipindex>1</clipindex>
													<groupindex>1</groupindex>
												</link>
											</clipitem>
										</track>
										<track>
											<clipitem id="clipitem-880">
												<masterclipid>masterclip-114</masterclipid>
												<name>ES_Drizzle in Da Hizzle - Daniel Fridell.wav</name>
												<rate>
													<timebase>30</timebase>
													<ntsc>TRUE</ntsc>
												</rate>
												<file id="file-99"/>
												<sourcetrack>
													<mediatype>audio</mediatype>
													<trackindex>2</trackindex>
												</sourcetrack>
												<link>
													<linkclipref>clipitem-879</linkclipref>
													<mediatype>audio</mediatype>
													<trackindex>1</trackindex>
													<clipindex>1</clipindex>
													<groupindex>1</groupindex>
												</link>
												<link>
													<linkclipref>clipitem-880</linkclipref>
													<mediatype>audio</mediatype>
													<trackindex>2</trackindex>
													<clipindex>1</clipindex>
													<groupindex>1</groupindex>
												</link>
											</clipitem>
										</track>
									</audio>
								</media>
								<logginginfo>
									<description></description>
									<scene></scene>
									<shottake></shottake>
									<lognote></lognote>
									<good></good>
									<originalvideofilename></originalvideofilename>
									<originalaudiofilename></originalaudiofilename>
								</logginginfo>
								<colorinfo>
									<lut></lut>
									<lut1></lut1>
									<asc_sop></asc_sop>
									<asc_sat></asc_sat>
									<lut2></lut2>
								</colorinfo>
								<labels>
									<label2>Caribbean</label2>
								</labels>
							</clip>
							<clip id="masterclip-121" explodedTracks="true">
								<uuid>b33b18d1-3abc-47a6-9d1b-6976119b66ef</uuid>
								<masterclipid>masterclip-121</masterclipid>
								<ismasterclip>TRUE</ismasterclip>
								<duration>3801</duration>
								<rate>
									<timebase>30</timebase>
									<ntsc>TRUE</ntsc>
								</rate>
								<name>ES_Everything's Better With You - Sarah, the Illstrumentalist.wav</name>
								<media>
									<audio>
										<track>
											<clipitem id="clipitem-881">
												<masterclipid>masterclip-121</masterclipid>
												<name>ES_Everything's Better With You - Sarah, the Illstrumentalist.wav</name>
												<rate>
													<timebase>30</timebase>
													<ntsc>TRUE</ntsc>
												</rate>
												<file id="file-105"/>
												<sourcetrack>
													<mediatype>audio</mediatype>
													<trackindex>1</trackindex>
												</sourcetrack>
												<link>
													<linkclipref>clipitem-881</linkclipref>
													<mediatype>audio</mediatype>
													<trackindex>1</trackindex>
													<clipindex>1</clipindex>
													<groupindex>1</groupindex>
												</link>
												<link>
													<linkclipref>clipitem-882</linkclipref>
													<mediatype>audio</mediatype>
													<trackindex>2</trackindex>
													<clipindex>1</clipindex>
													<groupindex>1</groupindex>
												</link>
											</clipitem>
										</track>
										<track>
											<clipitem id="clipitem-882">
												<masterclipid>masterclip-121</masterclipid>
												<name>ES_Everything's Better With You - Sarah, the Illstrumentalist.wav</name>
												<rate>
													<timebase>30</timebase>
													<ntsc>TRUE</ntsc>
												</rate>
												<file id="file-105"/>
												<sourcetrack>
													<mediatype>audio</mediatype>
													<trackindex>2</trackindex>
												</sourcetrack>
												<link>
													<linkclipref>clipitem-881</linkclipref>
													<mediatype>audio</mediatype>
													<trackindex>1</trackindex>
													<clipindex>1</clipindex>
													<groupindex>1</groupindex>
												</link>
												<link>
													<linkclipref>clipitem-882</linkclipref>
													<mediatype>audio</mediatype>
													<trackindex>2</trackindex>
													<clipindex>1</clipindex>
													<groupindex>1</groupindex>
												</link>
											</clipitem>
										</track>
									</audio>
								</media>
								<logginginfo>
									<description></description>
									<scene></scene>
									<shottake></shottake>
									<lognote></lognote>
									<good></good>
									<originalvideofilename></originalvideofilename>
									<originalaudiofilename></originalaudiofilename>
								</logginginfo>
								<colorinfo>
									<lut></lut>
									<lut1></lut1>
									<asc_sop></asc_sop>
									<asc_sat></asc_sat>
									<lut2></lut2>
								</colorinfo>
								<labels>
									<label2>Caribbean</label2>
								</labels>
							</clip>
							<clip id="masterclip-127" explodedTracks="true">
								<uuid>af1f1a4c-a936-4afc-89c5-7a47c84c0457</uuid>
								<masterclipid>masterclip-127</masterclipid>
								<ismasterclip>TRUE</ismasterclip>
								<duration>3729</duration>
								<rate>
									<timebase>30</timebase>
									<ntsc>TRUE</ntsc>
								</rate>
								<name>ES_Float - [ocean jams].wav</name>
								<media>
									<audio>
										<track>
											<clipitem id="clipitem-883">
												<masterclipid>masterclip-127</masterclipid>
												<name>ES_Float - [ocean jams].wav</name>
												<rate>
													<timebase>30</timebase>
													<ntsc>TRUE</ntsc>
												</rate>
												<file id="file-110"/>
												<sourcetrack>
													<mediatype>audio</mediatype>
													<trackindex>1</trackindex>
												</sourcetrack>
												<link>
													<linkclipref>clipitem-883</linkclipref>
													<mediatype>audio</mediatype>
													<trackindex>1</trackindex>
													<clipindex>1</clipindex>
													<groupindex>1</groupindex>
												</link>
												<link>
													<linkclipref>clipitem-884</linkclipref>
													<mediatype>audio</mediatype>
													<trackindex>2</trackindex>
													<clipindex>1</clipindex>
													<groupindex>1</groupindex>
												</link>
											</clipitem>
										</track>
										<track>
											<clipitem id="clipitem-884">
												<masterclipid>masterclip-127</masterclipid>
												<name>ES_Float - [ocean jams].wav</name>
												<rate>
													<timebase>30</timebase>
													<ntsc>TRUE</ntsc>
												</rate>
												<file id="file-110"/>
												<sourcetrack>
													<mediatype>audio</mediatype>
													<trackindex>2</trackindex>
												</sourcetrack>
												<link>
													<linkclipref>clipitem-883</linkclipref>
													<mediatype>audio</mediatype>
													<trackindex>1</trackindex>
													<clipindex>1</clipindex>
													<groupindex>1</groupindex>
												</link>
												<link>
													<linkclipref>clipitem-884</linkclipref>
													<mediatype>audio</mediatype>
													<trackindex>2</trackindex>
													<clipindex>1</clipindex>
													<groupindex>1</groupindex>
												</link>
											</clipitem>
										</track>
									</audio>
								</media>
								<logginginfo>
									<description></description>
									<scene></scene>
									<shottake></shottake>
									<lognote></lognote>
									<good></good>
									<originalvideofilename></originalvideofilename>
									<originalaudiofilename></originalaudiofilename>
								</logginginfo>
								<colorinfo>
									<lut></lut>
									<lut1></lut1>
									<asc_sop></asc_sop>
									<asc_sat></asc_sat>
									<lut2></lut2>
								</colorinfo>
								<labels>
									<label2>Caribbean</label2>
								</labels>
							</clip>
							<clip id="masterclip-134" explodedTracks="true">
								<uuid>122ebd0f-0da5-4317-8dc0-5a2554342455</uuid>
								<masterclipid>masterclip-134</masterclipid>
								<ismasterclip>TRUE</ismasterclip>
								<duration>4057</duration>
								<rate>
									<timebase>30</timebase>
									<ntsc>TRUE</ntsc>
								</rate>
								<name>ES_Just Maintaining - Sarah, the Illstrumentalist.wav</name>
								<media>
									<audio>
										<track>
											<clipitem id="clipitem-885">
												<masterclipid>masterclip-134</masterclipid>
												<name>ES_Just Maintaining - Sarah, the Illstrumentalist.wav</name>
												<rate>
													<timebase>30</timebase>
													<ntsc>TRUE</ntsc>
												</rate>
												<file id="file-116"/>
												<sourcetrack>
													<mediatype>audio</mediatype>
													<trackindex>1</trackindex>
												</sourcetrack>
												<link>
													<linkclipref>clipitem-885</linkclipref>
													<mediatype>audio</mediatype>
													<trackindex>1</trackindex>
													<clipindex>1</clipindex>
													<groupindex>1</groupindex>
												</link>
												<link>
													<linkclipref>clipitem-886</linkclipref>
													<mediatype>audio</mediatype>
													<trackindex>2</trackindex>
													<clipindex>1</clipindex>
													<groupindex>1</groupindex>
												</link>
											</clipitem>
										</track>
										<track>
											<clipitem id="clipitem-886">
												<masterclipid>masterclip-134</masterclipid>
												<name>ES_Just Maintaining - Sarah, the Illstrumentalist.wav</name>
												<rate>
													<timebase>30</timebase>
													<ntsc>TRUE</ntsc>
												</rate>
												<file id="file-116"/>
												<sourcetrack>
													<mediatype>audio</mediatype>
													<trackindex>2</trackindex>
												</sourcetrack>
												<link>
													<linkclipref>clipitem-885</linkclipref>
													<mediatype>audio</mediatype>
													<trackindex>1</trackindex>
													<clipindex>1</clipindex>
													<groupindex>1</groupindex>
												</link>
												<link>
													<linkclipref>clipitem-886</linkclipref>
													<mediatype>audio</mediatype>
													<trackindex>2</trackindex>
													<clipindex>1</clipindex>
													<groupindex>1</groupindex>
												</link>
											</clipitem>
										</track>
									</audio>
								</media>
								<logginginfo>
									<description></description>
									<scene></scene>
									<shottake></shottake>
									<lognote></lognote>
									<good></good>
									<originalvideofilename></originalvideofilename>
									<originalaudiofilename></originalaudiofilename>
								</logginginfo>
								<colorinfo>
									<lut></lut>
									<lut1></lut1>
									<asc_sop></asc_sop>
									<asc_sat></asc_sat>
									<lut2></lut2>
								</colorinfo>
								<labels>
									<label2>Caribbean</label2>
								</labels>
							</clip>
							<clip id="masterclip-138" explodedTracks="true">
								<uuid>adb466ce-8122-4df2-976b-9cce5fc2eaa4</uuid>
								<masterclipid>masterclip-138</masterclipid>
								<ismasterclip>TRUE</ismasterclip>
								<duration>5345</duration>
								<rate>
									<timebase>30</timebase>
									<ntsc>TRUE</ntsc>
								</rate>
								<name>ES_Laidback - Osoku.wav</name>
								<media>
									<audio>
										<track>
											<clipitem id="clipitem-887">
												<masterclipid>masterclip-138</masterclipid>
												<name>ES_Laidback - Osoku.wav</name>
												<rate>
													<timebase>30</timebase>
													<ntsc>TRUE</ntsc>
												</rate>
												<file id="file-119"/>
												<sourcetrack>
													<mediatype>audio</mediatype>
													<trackindex>1</trackindex>
												</sourcetrack>
												<link>
													<linkclipref>clipitem-887</linkclipref>
													<mediatype>audio</mediatype>
													<trackindex>1</trackindex>
													<clipindex>1</clipindex>
													<groupindex>1</groupindex>
												</link>
												<link>
													<linkclipref>clipitem-888</linkclipref>
													<mediatype>audio</mediatype>
													<trackindex>2</trackindex>
													<clipindex>1</clipindex>
													<groupindex>1</groupindex>
												</link>
											</clipitem>
										</track>
										<track>
											<clipitem id="clipitem-888">
												<masterclipid>masterclip-138</masterclipid>
												<name>ES_Laidback - Osoku.wav</name>
												<rate>
													<timebase>30</timebase>
													<ntsc>TRUE</ntsc>
												</rate>
												<file id="file-119"/>
												<sourcetrack>
													<mediatype>audio</mediatype>
													<trackindex>2</trackindex>
												</sourcetrack>
												<link>
													<linkclipref>clipitem-887</linkclipref>
													<mediatype>audio</mediatype>
													<trackindex>1</trackindex>
													<clipindex>1</clipindex>
													<groupindex>1</groupindex>
												</link>
												<link>
													<linkclipref>clipitem-888</linkclipref>
													<mediatype>audio</mediatype>
													<trackindex>2</trackindex>
													<clipindex>1</clipindex>
													<groupindex>1</groupindex>
												</link>
											</clipitem>
										</track>
									</audio>
								</media>
								<logginginfo>
									<description></description>
									<scene></scene>
									<shottake></shottake>
									<lognote></lognote>
									<good></good>
									<originalvideofilename></originalvideofilename>
									<originalaudiofilename></originalaudiofilename>
								</logginginfo>
								<colorinfo>
									<lut></lut>
									<lut1></lut1>
									<asc_sop></asc_sop>
									<asc_sat></asc_sat>
									<lut2></lut2>
								</colorinfo>
								<labels>
									<label2>Caribbean</label2>
								</labels>
							</clip>
							<clip id="masterclip-144" explodedTracks="true">
								<uuid>ce2d0be4-ac52-4140-bcf6-8c12410ad3df</uuid>
								<masterclipid>masterclip-144</masterclipid>
								<ismasterclip>TRUE</ismasterclip>
								<duration>4449</duration>
								<rate>
									<timebase>30</timebase>
									<ntsc>TRUE</ntsc>
								</rate>
								<name>ES_Neopolitin - Guustavv.wav</name>
								<media>
									<audio>
										<track>
											<clipitem id="clipitem-889">
												<masterclipid>masterclip-144</masterclipid>
												<name>ES_Neopolitin - Guustavv.wav</name>
												<rate>
													<timebase>30</timebase>
													<ntsc>TRUE</ntsc>
												</rate>
												<file id="file-124"/>
												<sourcetrack>
													<mediatype>audio</mediatype>
													<trackindex>1</trackindex>
												</sourcetrack>
												<link>
													<linkclipref>clipitem-889</linkclipref>
													<mediatype>audio</mediatype>
													<trackindex>1</trackindex>
													<clipindex>1</clipindex>
													<groupindex>1</groupindex>
												</link>
												<link>
													<linkclipref>clipitem-890</linkclipref>
													<mediatype>audio</mediatype>
													<trackindex>2</trackindex>
													<clipindex>1</clipindex>
													<groupindex>1</groupindex>
												</link>
											</clipitem>
										</track>
										<track>
											<clipitem id="clipitem-890">
												<masterclipid>masterclip-144</masterclipid>
												<name>ES_Neopolitin - Guustavv.wav</name>
												<rate>
													<timebase>30</timebase>
													<ntsc>TRUE</ntsc>
												</rate>
												<file id="file-124"/>
												<sourcetrack>
													<mediatype>audio</mediatype>
													<trackindex>2</trackindex>
												</sourcetrack>
												<link>
													<linkclipref>clipitem-889</linkclipref>
													<mediatype>audio</mediatype>
													<trackindex>1</trackindex>
													<clipindex>1</clipindex>
													<groupindex>1</groupindex>
												</link>
												<link>
													<linkclipref>clipitem-890</linkclipref>
													<mediatype>audio</mediatype>
													<trackindex>2</trackindex>
													<clipindex>1</clipindex>
													<groupindex>1</groupindex>
												</link>
											</clipitem>
										</track>
									</audio>
								</media>
								<logginginfo>
									<description></description>
									<scene></scene>
									<shottake></shottake>
									<lognote></lognote>
									<good></good>
									<originalvideofilename></originalvideofilename>
									<originalaudiofilename></originalaudiofilename>
								</logginginfo>
								<colorinfo>
									<lut></lut>
									<lut1></lut1>
									<asc_sop></asc_sop>
									<asc_sat></asc_sat>
									<lut2></lut2>
								</colorinfo>
								<labels>
									<label2>Caribbean</label2>
								</labels>
							</clip>
							<clip id="masterclip-148" explodedTracks="true">
								<uuid>c7299233-8e43-45b1-84f2-9116fbf90cf1</uuid>
								<masterclipid>masterclip-148</masterclipid>
								<ismasterclip>TRUE</ismasterclip>
								<duration>3986</duration>
								<rate>
									<timebase>30</timebase>
									<ntsc>TRUE</ntsc>
								</rate>
								<name>ES_Odyssey - [ocean jams].wav</name>
								<media>
									<audio>
										<track>
											<clipitem id="clipitem-891">
												<masterclipid>masterclip-148</masterclipid>
												<name>ES_Odyssey - [ocean jams].wav</name>
												<rate>
													<timebase>30</timebase>
													<ntsc>TRUE</ntsc>
												</rate>
												<file id="file-127"/>
												<sourcetrack>
													<mediatype>audio</mediatype>
													<trackindex>1</trackindex>
												</sourcetrack>
												<link>
													<linkclipref>clipitem-891</linkclipref>
													<mediatype>audio</mediatype>
													<trackindex>1</trackindex>
													<clipindex>1</clipindex>
													<groupindex>1</groupindex>
												</link>
												<link>
													<linkclipref>clipitem-892</linkclipref>
													<mediatype>audio</mediatype>
													<trackindex>2</trackindex>
													<clipindex>1</clipindex>
													<groupindex>1</groupindex>
												</link>
											</clipitem>
										</track>
										<track>
											<clipitem id="clipitem-892">
												<masterclipid>masterclip-148</masterclipid>
												<name>ES_Odyssey - [ocean jams].wav</name>
												<rate>
													<timebase>30</timebase>
													<ntsc>TRUE</ntsc>
												</rate>
												<file id="file-127"/>
												<sourcetrack>
													<mediatype>audio</mediatype>
													<trackindex>2</trackindex>
												</sourcetrack>
												<link>
													<linkclipref>clipitem-891</linkclipref>
													<mediatype>audio</mediatype>
													<trackindex>1</trackindex>
													<clipindex>1</clipindex>
													<groupindex>1</groupindex>
												</link>
												<link>
													<linkclipref>clipitem-892</linkclipref>
													<mediatype>audio</mediatype>
													<trackindex>2</trackindex>
													<clipindex>1</clipindex>
													<groupindex>1</groupindex>
												</link>
											</clipitem>
										</track>
									</audio>
								</media>
								<logginginfo>
									<description></description>
									<scene></scene>
									<shottake></shottake>
									<lognote></lognote>
									<good></good>
									<originalvideofilename></originalvideofilename>
									<originalaudiofilename></originalaudiofilename>
								</logginginfo>
								<colorinfo>
									<lut></lut>
									<lut1></lut1>
									<asc_sop></asc_sop>
									<asc_sat></asc_sat>
									<lut2></lut2>
								</colorinfo>
								<labels>
									<label2>Caribbean</label2>
								</labels>
							</clip>
							<clip id="masterclip-154" explodedTracks="true">
								<uuid>1f2e7373-6f16-4a5f-825c-939516769228</uuid>
								<masterclipid>masterclip-154</masterclipid>
								<ismasterclip>TRUE</ismasterclip>
								<duration>3252</duration>
								<rate>
									<timebase>30</timebase>
									<ntsc>TRUE</ntsc>
								</rate>
								<name>ES_Palm Trees - Justnormal.wav</name>
								<media>
									<audio>
										<track>
											<clipitem id="clipitem-893">
												<masterclipid>masterclip-154</masterclipid>
												<name>ES_Palm Trees - Justnormal.wav</name>
												<rate>
													<timebase>30</timebase>
													<ntsc>TRUE</ntsc>
												</rate>
												<file id="file-132"/>
												<sourcetrack>
													<mediatype>audio</mediatype>
													<trackindex>1</trackindex>
												</sourcetrack>
												<link>
													<linkclipref>clipitem-893</linkclipref>
													<mediatype>audio</mediatype>
													<trackindex>1</trackindex>
													<clipindex>1</clipindex>
													<groupindex>1</groupindex>
												</link>
												<link>
													<linkclipref>clipitem-894</linkclipref>
													<mediatype>audio</mediatype>
													<trackindex>2</trackindex>
													<clipindex>1</clipindex>
													<groupindex>1</groupindex>
												</link>
											</clipitem>
										</track>
										<track>
											<clipitem id="clipitem-894">
												<masterclipid>masterclip-154</masterclipid>
												<name>ES_Palm Trees - Justnormal.wav</name>
												<rate>
													<timebase>30</timebase>
													<ntsc>TRUE</ntsc>
												</rate>
												<file id="file-132"/>
												<sourcetrack>
													<mediatype>audio</mediatype>
													<trackindex>2</trackindex>
												</sourcetrack>
												<link>
													<linkclipref>clipitem-893</linkclipref>
													<mediatype>audio</mediatype>
													<trackindex>1</trackindex>
													<clipindex>1</clipindex>
													<groupindex>1</groupindex>
												</link>
												<link>
													<linkclipref>clipitem-894</linkclipref>
													<mediatype>audio</mediatype>
													<trackindex>2</trackindex>
													<clipindex>1</clipindex>
													<groupindex>1</groupindex>
												</link>
											</clipitem>
										</track>
									</audio>
								</media>
								<logginginfo>
									<description></description>
									<scene></scene>
									<shottake></shottake>
									<lognote></lognote>
									<good></good>
									<originalvideofilename></originalvideofilename>
									<originalaudiofilename></originalaudiofilename>
								</logginginfo>
								<colorinfo>
									<lut></lut>
									<lut1></lut1>
									<asc_sop></asc_sop>
									<asc_sat></asc_sat>
									<lut2></lut2>
								</colorinfo>
								<labels>
									<label2>Caribbean</label2>
								</labels>
							</clip>
							<clip id="masterclip-161" explodedTracks="true">
								<uuid>713efd3a-dcc8-45d6-9c57-e9ebaa26f4f1</uuid>
								<masterclipid>masterclip-161</masterclipid>
								<ismasterclip>TRUE</ismasterclip>
								<duration>4115</duration>
								<rate>
									<timebase>30</timebase>
									<ntsc>TRUE</ntsc>
								</rate>
								<name>ES_Purple Rhombus - Guustavv.wav</name>
								<media>
									<audio>
										<track>
											<clipitem id="clipitem-895">
												<masterclipid>masterclip-161</masterclipid>
												<name>ES_Purple Rhombus - Guustavv.wav</name>
												<rate>
													<timebase>30</timebase>
													<ntsc>TRUE</ntsc>
												</rate>
												<file id="file-138"/>
												<sourcetrack>
													<mediatype>audio</mediatype>
													<trackindex>1</trackindex>
												</sourcetrack>
												<link>
													<linkclipref>clipitem-895</linkclipref>
													<mediatype>audio</mediatype>
													<trackindex>1</trackindex>
													<clipindex>1</clipindex>
													<groupindex>1</groupindex>
												</link>
												<link>
													<linkclipref>clipitem-896</linkclipref>
													<mediatype>audio</mediatype>
													<trackindex>2</trackindex>
													<clipindex>1</clipindex>
													<groupindex>1</groupindex>
												</link>
											</clipitem>
										</track>
										<track>
											<clipitem id="clipitem-896">
												<masterclipid>masterclip-161</masterclipid>
												<name>ES_Purple Rhombus - Guustavv.wav</name>
												<rate>
													<timebase>30</timebase>
													<ntsc>TRUE</ntsc>
												</rate>
												<file id="file-138"/>
												<sourcetrack>
													<mediatype>audio</mediatype>
													<trackindex>2</trackindex>
												</sourcetrack>
												<link>
													<linkclipref>clipitem-895</linkclipref>
													<mediatype>audio</mediatype>
													<trackindex>1</trackindex>
													<clipindex>1</clipindex>
													<groupindex>1</groupindex>
												</link>
												<link>
													<linkclipref>clipitem-896</linkclipref>
													<mediatype>audio</mediatype>
													<trackindex>2</trackindex>
													<clipindex>1</clipindex>
													<groupindex>1</groupindex>
												</link>
											</clipitem>
										</track>
									</audio>
								</media>
								<logginginfo>
									<description></description>
									<scene></scene>
									<shottake></shottake>
									<lognote></lognote>
									<good></good>
									<originalvideofilename></originalvideofilename>
									<originalaudiofilename></originalaudiofilename>
								</logginginfo>
								<colorinfo>
									<lut></lut>
									<lut1></lut1>
									<asc_sop></asc_sop>
									<asc_sat></asc_sat>
									<lut2></lut2>
								</colorinfo>
								<labels>
									<label2>Caribbean</label2>
								</labels>
							</clip>
							<clip id="masterclip-171" explodedTracks="true">
								<uuid>b5301440-faa5-47cc-ba1c-5338a2d9e242</uuid>
								<masterclipid>masterclip-171</masterclipid>
								<ismasterclip>TRUE</ismasterclip>
								<duration>3566</duration>
								<rate>
									<timebase>30</timebase>
									<ntsc>TRUE</ntsc>
								</rate>
								<name>ES_Quixotic - Jobii.wav</name>
								<media>
									<audio>
										<track>
											<clipitem id="clipitem-897">
												<masterclipid>masterclip-171</masterclipid>
												<name>ES_Quixotic - Jobii.wav</name>
												<rate>
													<timebase>30</timebase>
													<ntsc>TRUE</ntsc>
												</rate>
												<file id="file-147"/>
												<sourcetrack>
													<mediatype>audio</mediatype>
													<trackindex>1</trackindex>
												</sourcetrack>
												<link>
													<linkclipref>clipitem-897</linkclipref>
													<mediatype>audio</mediatype>
													<trackindex>1</trackindex>
													<clipindex>1</clipindex>
													<groupindex>1</groupindex>
												</link>
												<link>
													<linkclipref>clipitem-898</linkclipref>
													<mediatype>audio</mediatype>
													<trackindex>2</trackindex>
													<clipindex>1</clipindex>
													<groupindex>1</groupindex>
												</link>
											</clipitem>
										</track>
										<track>
											<clipitem id="clipitem-898">
												<masterclipid>masterclip-171</masterclipid>
												<name>ES_Quixotic - Jobii.wav</name>
												<rate>
													<timebase>30</timebase>
													<ntsc>TRUE</ntsc>
												</rate>
												<file id="file-147"/>
												<sourcetrack>
													<mediatype>audio</mediatype>
													<trackindex>2</trackindex>
												</sourcetrack>
												<link>
													<linkclipref>clipitem-897</linkclipref>
													<mediatype>audio</mediatype>
													<trackindex>1</trackindex>
													<clipindex>1</clipindex>
													<groupindex>1</groupindex>
												</link>
												<link>
													<linkclipref>clipitem-898</linkclipref>
													<mediatype>audio</mediatype>
													<trackindex>2</trackindex>
													<clipindex>1</clipindex>
													<groupindex>1</groupindex>
												</link>
											</clipitem>
										</track>
									</audio>
								</media>
								<logginginfo>
									<description></description>
									<scene></scene>
									<shottake></shottake>
									<lognote></lognote>
									<good></good>
									<originalvideofilename></originalvideofilename>
									<originalaudiofilename></originalaudiofilename>
								</logginginfo>
								<colorinfo>
									<lut></lut>
									<lut1></lut1>
									<asc_sop></asc_sop>
									<asc_sat></asc_sat>
									<lut2></lut2>
								</colorinfo>
								<labels>
									<label2>Caribbean</label2>
								</labels>
							</clip>
							<clip id="masterclip-175" explodedTracks="true">
								<uuid>3b91e6c3-c91b-4110-97b7-eaee718bd1be</uuid>
								<masterclipid>masterclip-175</masterclipid>
								<ismasterclip>TRUE</ismasterclip>
								<duration>4018</duration>
								<rate>
									<timebase>30</timebase>
									<ntsc>TRUE</ntsc>
								</rate>
								<name>ES_Shinigami - SINY.wav</name>
								<media>
									<audio>
										<track>
											<clipitem id="clipitem-899">
												<masterclipid>masterclip-175</masterclipid>
												<name>ES_Shinigami - SINY.wav</name>
												<rate>
													<timebase>30</timebase>
													<ntsc>TRUE</ntsc>
												</rate>
												<file id="file-150"/>
												<sourcetrack>
													<mediatype>audio</mediatype>
													<trackindex>1</trackindex>
												</sourcetrack>
												<link>
													<linkclipref>clipitem-899</linkclipref>
													<mediatype>audio</mediatype>
													<trackindex>1</trackindex>
													<clipindex>1</clipindex>
													<groupindex>1</groupindex>
												</link>
												<link>
													<linkclipref>clipitem-900</linkclipref>
													<mediatype>audio</mediatype>
													<trackindex>2</trackindex>
													<clipindex>1</clipindex>
													<groupindex>1</groupindex>
												</link>
											</clipitem>
										</track>
										<track>
											<clipitem id="clipitem-900">
												<masterclipid>masterclip-175</masterclipid>
												<name>ES_Shinigami - SINY.wav</name>
												<rate>
													<timebase>30</timebase>
													<ntsc>TRUE</ntsc>
												</rate>
												<file id="file-150"/>
												<sourcetrack>
													<mediatype>audio</mediatype>
													<trackindex>2</trackindex>
												</sourcetrack>
												<link>
													<linkclipref>clipitem-899</linkclipref>
													<mediatype>audio</mediatype>
													<trackindex>1</trackindex>
													<clipindex>1</clipindex>
													<groupindex>1</groupindex>
												</link>
												<link>
													<linkclipref>clipitem-900</linkclipref>
													<mediatype>audio</mediatype>
													<trackindex>2</trackindex>
													<clipindex>1</clipindex>
													<groupindex>1</groupindex>
												</link>
											</clipitem>
										</track>
									</audio>
								</media>
								<logginginfo>
									<description></description>
									<scene></scene>
									<shottake></shottake>
									<lognote></lognote>
									<good></good>
									<originalvideofilename></originalvideofilename>
									<originalaudiofilename></originalaudiofilename>
								</logginginfo>
								<colorinfo>
									<lut></lut>
									<lut1></lut1>
									<asc_sop></asc_sop>
									<asc_sat></asc_sat>
									<lut2></lut2>
								</colorinfo>
								<labels>
									<label2>Caribbean</label2>
								</labels>
							</clip>
							<clip id="masterclip-184" explodedTracks="true">
								<uuid>3623d01d-2e68-42c9-ad8b-7d1dad351c5c</uuid>
								<masterclipid>masterclip-184</masterclipid>
								<ismasterclip>TRUE</ismasterclip>
								<duration>5214</duration>
								<rate>
									<timebase>30</timebase>
									<ntsc>TRUE</ntsc>
								</rate>
								<name>ES_Slipping Away - Guustavv.wav</name>
								<media>
									<audio>
										<track>
											<clipitem id="clipitem-901">
												<masterclipid>masterclip-184</masterclipid>
												<name>ES_Slipping Away - Guustavv.wav</name>
												<rate>
													<timebase>30</timebase>
													<ntsc>TRUE</ntsc>
												</rate>
												<file id="file-158"/>
												<sourcetrack>
													<mediatype>audio</mediatype>
													<trackindex>1</trackindex>
												</sourcetrack>
												<link>
													<linkclipref>clipitem-901</linkclipref>
													<mediatype>audio</mediatype>
													<trackindex>1</trackindex>
													<clipindex>1</clipindex>
													<groupindex>1</groupindex>
												</link>
												<link>
													<linkclipref>clipitem-902</linkclipref>
													<mediatype>audio</mediatype>
													<trackindex>2</trackindex>
													<clipindex>1</clipindex>
													<groupindex>1</groupindex>
												</link>
											</clipitem>
										</track>
										<track>
											<clipitem id="clipitem-902">
												<masterclipid>masterclip-184</masterclipid>
												<name>ES_Slipping Away - Guustavv.wav</name>
												<rate>
													<timebase>30</timebase>
													<ntsc>TRUE</ntsc>
												</rate>
												<file id="file-158"/>
												<sourcetrack>
													<mediatype>audio</mediatype>
													<trackindex>2</trackindex>
												</sourcetrack>
												<link>
													<linkclipref>clipitem-901</linkclipref>
													<mediatype>audio</mediatype>
													<trackindex>1</trackindex>
													<clipindex>1</clipindex>
													<groupindex>1</groupindex>
												</link>
												<link>
													<linkclipref>clipitem-902</linkclipref>
													<mediatype>audio</mediatype>
													<trackindex>2</trackindex>
													<clipindex>1</clipindex>
													<groupindex>1</groupindex>
												</link>
											</clipitem>
										</track>
									</audio>
								</media>
								<logginginfo>
									<description></description>
									<scene></scene>
									<shottake></shottake>
									<lognote></lognote>
									<good></good>
									<originalvideofilename></originalvideofilename>
									<originalaudiofilename></originalaudiofilename>
								</logginginfo>
								<colorinfo>
									<lut></lut>
									<lut1></lut1>
									<asc_sop></asc_sop>
									<asc_sat></asc_sat>
									<lut2></lut2>
								</colorinfo>
								<labels>
									<label2>Caribbean</label2>
								</labels>
							</clip>
							<clip id="masterclip-188" explodedTracks="true">
								<uuid>a246457a-9a37-4868-bb95-5f6070b74ef3</uuid>
								<masterclipid>masterclip-188</masterclipid>
								<ismasterclip>TRUE</ismasterclip>
								<duration>4435</duration>
								<rate>
									<timebase>30</timebase>
									<ntsc>TRUE</ntsc>
								</rate>
								<name>ES_Still Here Waiting - Justnormal.wav</name>
								<media>
									<audio>
										<track>
											<clipitem id="clipitem-903">
												<masterclipid>masterclip-188</masterclipid>
												<name>ES_Still Here Waiting - Justnormal.wav</name>
												<rate>
													<timebase>30</timebase>
													<ntsc>TRUE</ntsc>
												</rate>
												<file id="file-161"/>
												<sourcetrack>
													<mediatype>audio</mediatype>
													<trackindex>1</trackindex>
												</sourcetrack>
												<link>
													<linkclipref>clipitem-903</linkclipref>
													<mediatype>audio</mediatype>
													<trackindex>1</trackindex>
													<clipindex>1</clipindex>
													<groupindex>1</groupindex>
												</link>
												<link>
													<linkclipref>clipitem-904</linkclipref>
													<mediatype>audio</mediatype>
													<trackindex>2</trackindex>
													<clipindex>1</clipindex>
													<groupindex>1</groupindex>
												</link>
											</clipitem>
										</track>
										<track>
											<clipitem id="clipitem-904">
												<masterclipid>masterclip-188</masterclipid>
												<name>ES_Still Here Waiting - Justnormal.wav</name>
												<rate>
													<timebase>30</timebase>
													<ntsc>TRUE</ntsc>
												</rate>
												<file id="file-161"/>
												<sourcetrack>
													<mediatype>audio</mediatype>
													<trackindex>2</trackindex>
												</sourcetrack>
												<link>
													<linkclipref>clipitem-903</linkclipref>
													<mediatype>audio</mediatype>
													<trackindex>1</trackindex>
													<clipindex>1</clipindex>
													<groupindex>1</groupindex>
												</link>
												<link>
													<linkclipref>clipitem-904</linkclipref>
													<mediatype>audio</mediatype>
													<trackindex>2</trackindex>
													<clipindex>1</clipindex>
													<groupindex>1</groupindex>
												</link>
											</clipitem>
										</track>
									</audio>
								</media>
								<logginginfo>
									<description></description>
									<scene></scene>
									<shottake></shottake>
									<lognote></lognote>
									<good></good>
									<originalvideofilename></originalvideofilename>
									<originalaudiofilename></originalaudiofilename>
								</logginginfo>
								<colorinfo>
									<lut></lut>
									<lut1></lut1>
									<asc_sop></asc_sop>
									<asc_sat></asc_sat>
									<lut2></lut2>
								</colorinfo>
								<labels>
									<label2>Caribbean</label2>
								</labels>
							</clip>
							<clip id="masterclip-193" explodedTracks="true">
								<uuid>ce0cc4a7-552f-40bd-b257-ae908fe22674</uuid>
								<masterclipid>masterclip-193</masterclipid>
								<ismasterclip>TRUE</ismasterclip>
								<duration>3596</duration>
								<rate>
									<timebase>30</timebase>
									<ntsc>TRUE</ntsc>
								</rate>
								<name>ES_Summer Is Here - Justnormal.wav</name>
								<media>
									<audio>
										<track>
											<clipitem id="clipitem-905">
												<masterclipid>masterclip-193</masterclipid>
												<name>ES_Summer Is Here - Justnormal.wav</name>
												<rate>
													<timebase>30</timebase>
													<ntsc>TRUE</ntsc>
												</rate>
												<file id="file-165"/>
												<sourcetrack>
													<mediatype>audio</mediatype>
													<trackindex>1</trackindex>
												</sourcetrack>
												<link>
													<linkclipref>clipitem-905</linkclipref>
													<mediatype>audio</mediatype>
													<trackindex>1</trackindex>
													<clipindex>1</clipindex>
													<groupindex>1</groupindex>
												</link>
												<link>
													<linkclipref>clipitem-906</linkclipref>
													<mediatype>audio</mediatype>
													<trackindex>2</trackindex>
													<clipindex>1</clipindex>
													<groupindex>1</groupindex>
												</link>
											</clipitem>
										</track>
										<track>
											<clipitem id="clipitem-906">
												<masterclipid>masterclip-193</masterclipid>
												<name>ES_Summer Is Here - Justnormal.wav</name>
												<rate>
													<timebase>30</timebase>
													<ntsc>TRUE</ntsc>
												</rate>
												<file id="file-165"/>
												<sourcetrack>
													<mediatype>audio</mediatype>
													<trackindex>2</trackindex>
												</sourcetrack>
												<link>
													<linkclipref>clipitem-905</linkclipref>
													<mediatype>audio</mediatype>
													<trackindex>1</trackindex>
													<clipindex>1</clipindex>
													<groupindex>1</groupindex>
												</link>
												<link>
													<linkclipref>clipitem-906</linkclipref>
													<mediatype>audio</mediatype>
													<trackindex>2</trackindex>
													<clipindex>1</clipindex>
													<groupindex>1</groupindex>
												</link>
											</clipitem>
										</track>
									</audio>
								</media>
								<logginginfo>
									<description></description>
									<scene></scene>
									<shottake></shottake>
									<lognote></lognote>
									<good></good>
									<originalvideofilename></originalvideofilename>
									<originalaudiofilename></originalaudiofilename>
								</logginginfo>
								<colorinfo>
									<lut></lut>
									<lut1></lut1>
									<asc_sop></asc_sop>
									<asc_sat></asc_sat>
									<lut2></lut2>
								</colorinfo>
								<labels>
									<label2>Caribbean</label2>
								</labels>
							</clip>
							<clip id="masterclip-201" explodedTracks="true">
								<uuid>552baf41-1660-4970-bd52-5301130fad99</uuid>
								<masterclipid>masterclip-201</masterclipid>
								<ismasterclip>TRUE</ismasterclip>
								<duration>3913</duration>
								<rate>
									<timebase>30</timebase>
									<ntsc>TRUE</ntsc>
								</rate>
								<name>ES_Walk Around Lake Johnson - Sarah, the Illstrumentalist.wav</name>
								<media>
									<audio>
										<track>
											<clipitem id="clipitem-907">
												<masterclipid>masterclip-201</masterclipid>
												<name>ES_Walk Around Lake Johnson - Sarah, the Illstrumentalist.wav</name>
												<rate>
													<timebase>30</timebase>
													<ntsc>TRUE</ntsc>
												</rate>
												<file id="file-172"/>
												<sourcetrack>
													<mediatype>audio</mediatype>
													<trackindex>1</trackindex>
												</sourcetrack>
												<link>
													<linkclipref>clipitem-907</linkclipref>
													<mediatype>audio</mediatype>
													<trackindex>1</trackindex>
													<clipindex>1</clipindex>
													<groupindex>1</groupindex>
												</link>
												<link>
													<linkclipref>clipitem-908</linkclipref>
													<mediatype>audio</mediatype>
													<trackindex>2</trackindex>
													<clipindex>1</clipindex>
													<groupindex>1</groupindex>
												</link>
											</clipitem>
										</track>
										<track>
											<clipitem id="clipitem-908">
												<masterclipid>masterclip-201</masterclipid>
												<name>ES_Walk Around Lake Johnson - Sarah, the Illstrumentalist.wav</name>
												<rate>
													<timebase>30</timebase>
													<ntsc>TRUE</ntsc>
												</rate>
												<file id="file-172"/>
												<sourcetrack>
													<mediatype>audio</mediatype>
													<trackindex>2</trackindex>
												</sourcetrack>
												<link>
													<linkclipref>clipitem-907</linkclipref>
													<mediatype>audio</mediatype>
													<trackindex>1</trackindex>
													<clipindex>1</clipindex>
													<groupindex>1</groupindex>
												</link>
												<link>
													<linkclipref>clipitem-908</linkclipref>
													<mediatype>audio</mediatype>
													<trackindex>2</trackindex>
													<clipindex>1</clipindex>
													<groupindex>1</groupindex>
												</link>
											</clipitem>
										</track>
									</audio>
								</media>
								<logginginfo>
									<description></description>
									<scene></scene>
									<shottake></shottake>
									<lognote></lognote>
									<good></good>
									<originalvideofilename></originalvideofilename>
									<originalaudiofilename></originalaudiofilename>
								</logginginfo>
								<colorinfo>
									<lut></lut>
									<lut1></lut1>
									<asc_sop></asc_sop>
									<asc_sat></asc_sat>
									<lut2></lut2>
								</colorinfo>
								<labels>
									<label2>Caribbean</label2>
								</labels>
							</clip>
							<clip id="masterclip-211" explodedTracks="true">
								<uuid>f83213e5-94f7-4fea-9b3d-e7c8501bf358</uuid>
								<masterclipid>masterclip-211</masterclipid>
								<ismasterclip>TRUE</ismasterclip>
								<duration>3092</duration>
								<rate>
									<timebase>30</timebase>
									<ntsc>TRUE</ntsc>
								</rate>
								<name>ES_The Rain Is Sad - SINY.wav</name>
								<media>
									<audio>
										<track>
											<clipitem id="clipitem-909">
												<masterclipid>masterclip-211</masterclipid>
												<name>ES_The Rain Is Sad - SINY.wav</name>
												<rate>
													<timebase>30</timebase>
													<ntsc>TRUE</ntsc>
												</rate>
												<file id="file-181"/>
												<sourcetrack>
													<mediatype>audio</mediatype>
													<trackindex>1</trackindex>
												</sourcetrack>
												<link>
													<linkclipref>clipitem-909</linkclipref>
													<mediatype>audio</mediatype>
													<trackindex>1</trackindex>
													<clipindex>1</clipindex>
													<groupindex>1</groupindex>
												</link>
												<link>
													<linkclipref>clipitem-910</linkclipref>
													<mediatype>audio</mediatype>
													<trackindex>2</trackindex>
													<clipindex>1</clipindex>
													<groupindex>1</groupindex>
												</link>
											</clipitem>
										</track>
										<track>
											<clipitem id="clipitem-910">
												<masterclipid>masterclip-211</masterclipid>
												<name>ES_The Rain Is Sad - SINY.wav</name>
												<rate>
													<timebase>30</timebase>
													<ntsc>TRUE</ntsc>
												</rate>
												<file id="file-181"/>
												<sourcetrack>
													<mediatype>audio</mediatype>
													<trackindex>2</trackindex>
												</sourcetrack>
												<link>
													<linkclipref>clipitem-909</linkclipref>
													<mediatype>audio</mediatype>
													<trackindex>1</trackindex>
													<clipindex>1</clipindex>
													<groupindex>1</groupindex>
												</link>
												<link>
													<linkclipref>clipitem-910</linkclipref>
													<mediatype>audio</mediatype>
													<trackindex>2</trackindex>
													<clipindex>1</clipindex>
													<groupindex>1</groupindex>
												</link>
											</clipitem>
										</track>
									</audio>
								</media>
								<logginginfo>
									<description></description>
									<scene></scene>
									<shottake></shottake>
									<lognote></lognote>
									<good></good>
									<originalvideofilename></originalvideofilename>
									<originalaudiofilename></originalaudiofilename>
								</logginginfo>
								<colorinfo>
									<lut></lut>
									<lut1></lut1>
									<asc_sop></asc_sop>
									<asc_sat></asc_sat>
									<lut2></lut2>
								</colorinfo>
								<labels>
									<label2>Caribbean</label2>
								</labels>
							</clip>
							<clip id="masterclip-219" explodedTracks="true">
								<uuid>d97a2784-7986-41b5-94fd-e871dd204c6f</uuid>
								<masterclipid>masterclip-219</masterclipid>
								<ismasterclip>TRUE</ismasterclip>
								<duration>4058</duration>
								<rate>
									<timebase>30</timebase>
									<ntsc>TRUE</ntsc>
								</rate>
								<name>ES_Way of the Walk - Dusty Decks.wav</name>
								<media>
									<audio>
										<track>
											<clipitem id="clipitem-911">
												<masterclipid>masterclip-219</masterclipid>
												<name>ES_Way of the Walk - Dusty Decks.wav</name>
												<rate>
													<timebase>30</timebase>
													<ntsc>TRUE</ntsc>
												</rate>
												<file id="file-188"/>
												<sourcetrack>
													<mediatype>audio</mediatype>
													<trackindex>1</trackindex>
												</sourcetrack>
												<link>
													<linkclipref>clipitem-911</linkclipref>
													<mediatype>audio</mediatype>
													<trackindex>1</trackindex>
													<clipindex>1</clipindex>
													<groupindex>1</groupindex>
												</link>
												<link>
													<linkclipref>clipitem-912</linkclipref>
													<mediatype>audio</mediatype>
													<trackindex>2</trackindex>
													<clipindex>1</clipindex>
													<groupindex>1</groupindex>
												</link>
											</clipitem>
										</track>
										<track>
											<clipitem id="clipitem-912">
												<masterclipid>masterclip-219</masterclipid>
												<name>ES_Way of the Walk - Dusty Decks.wav</name>
												<rate>
													<timebase>30</timebase>
													<ntsc>TRUE</ntsc>
												</rate>
												<file id="file-188"/>
												<sourcetrack>
													<mediatype>audio</mediatype>
													<trackindex>2</trackindex>
												</sourcetrack>
												<link>
													<linkclipref>clipitem-911</linkclipref>
													<mediatype>audio</mediatype>
													<trackindex>1</trackindex>
													<clipindex>1</clipindex>
													<groupindex>1</groupindex>
												</link>
												<link>
													<linkclipref>clipitem-912</linkclipref>
													<mediatype>audio</mediatype>
													<trackindex>2</trackindex>
													<clipindex>1</clipindex>
													<groupindex>1</groupindex>
												</link>
											</clipitem>
										</track>
									</audio>
								</media>
								<logginginfo>
									<description></description>
									<scene></scene>
									<shottake></shottake>
									<lognote></lognote>
									<good></good>
									<originalvideofilename></originalvideofilename>
									<originalaudiofilename></originalaudiofilename>
								</logginginfo>
								<colorinfo>
									<lut></lut>
									<lut1></lut1>
									<asc_sop></asc_sop>
									<asc_sat></asc_sat>
									<lut2></lut2>
								</colorinfo>
								<labels>
									<label2>Caribbean</label2>
								</labels>
							</clip>
						</children>
					</bin>
				</children>
			</bin>
		</children>
	</project>
</xmeml>
