<?xml version="1.0" encoding="UTF-8"?>
<!DOCTYPE xmeml>
<xmeml version="4">
	<project>
		<name>Example</name>
		<children>
			<bin>
				<name>00_Final Segments</name>
				<labels>
					<label2>Brown</label2>
				</labels>
				<children>
					<sequence id="sequence-1" TL.SQAudioVisibleBase="0" TL.SQVideoVisibleBase="0" TL.SQVisibleBaseTime="0" TL.SQAVDividerPosition="0.5" TL.SQHideShyTracks="0" TL.SQHeaderWidth="236" TL.SQDataTrackViewControlState="0" Monitor.ProgramZoomOut="24562483545600" Monitor.ProgramZoomIn="0" TL.SQTimePerPixel="0.08423048780487738" MZ.EditLine="33461934105600" MZ.Sequence.PreviewFrameSizeHeight="1080" MZ.Sequence.PreviewFrameSizeWidth="1920" MZ.Sequence.AudioTimeDisplayFormat="200" MZ.Sequence.PreviewRenderingClassID="1061109567" MZ.Sequence.PreviewRenderingPresetCodec="1634755443" MZ.Sequence.PreviewRenderingPresetPath="EncoderPresets/SequencePreview/35d109db-457b-43c1-9452-9cb7be9f121c/QuickTime.epr" MZ.Sequence.PreviewUseMaxRenderQuality="true" MZ.Sequence.PreviewUseMaxBitDepth="true" MZ.Sequence.EditingModeGUID="35d109db-457b-43c1-9452-9cb7be9f121c" MZ.Sequence.VideoTimeDisplayFormat="102" MZ.WorkOutPoint="15239249625600" MZ.WorkInPoint="0" explodedTracks="true">
						<uuid>5409fc64-e35f-47ea-a6f2-f7f21f60f24d</uuid>
						<duration>2808</duration>
						<rate>
							<timebase>30</timebase>
							<ntsc>TRUE</ntsc>
						</rate>
						<name>ATM_SEGMENT_003</name>
						<media>
							<video>
								<format>
									<samplecharacteristics>
										<rate>
											<timebase>30</timebase>
											<ntsc>TRUE</ntsc>
										</rate>
										<codec>
											<name>Apple ProRes 422</name>
											<appspecificdata>
												<appname>Final Cut Pro</appname>
												<appmanufacturer>Apple Inc.</appmanufacturer>
												<appversion>7.0</appversion>
												<data>
													<qtcodec>
														<codecname>Apple ProRes 422</codecname>
														<codectypename>Apple ProRes 422</codectypename>
														<codectypecode>apcn</codectypecode>
														<codecvendorcode>appl</codecvendorcode>
														<spatialquality>1024</spatialquality>
														<temporalquality>0</temporalquality>
														<keyframerate>0</keyframerate>
														<datarate>0</datarate>
													</qtcodec>
												</data>
											</appspecificdata>
										</codec>
										<width>1920</width>
										<height>1080</height>
										<anamorphic>FALSE</anamorphic>
										<pixelaspectratio>square</pixelaspectratio>
										<fielddominance>none</fielddominance>
										<colordepth>24</colordepth>
									</samplecharacteristics>
								</format>
								<track TL.SQTrackShy="0" TL.SQTrackExpandedHeight="25" TL.SQTrackExpanded="0" MZ.TrackTargeted="1">
									<clipitem id="clipitem-1">
										<masterclipid>masterclip-1</masterclipid>
										<name>Comp 7 - A1</name>
										<enabled>TRUE</enabled>
										<duration>6606</duration>
										<rate>
											<timebase>30</timebase>
											<ntsc>TRUE</ntsc>
										</rate>
										<start>95</start>
										<end>1278</end>
										<in>0</in>
										<out>1183</out>
										<pproTicksIn>0</pproTicksIn>
										<pproTicksOut>10026714297600</pproTicksOut>
										<sequence id="sequence-2" TL.SQAudioVisibleBase="0" TL.SQVideoVisibleBase="0" TL.SQVisibleBaseTime="0" TL.SQAVDividerPosition="0.5" TL.SQHideShyTracks="0" TL.SQHeaderWidth="236" Monitor.ProgramZoomOut="10033071048000" Monitor.ProgramZoomIn="0" TL.SQTimePerPixel="0.19999999999999998" MZ.EditLine="55992376440000" MZ.Sequence.PreviewFrameSizeHeight="1080" MZ.Sequence.PreviewFrameSizeWidth="1920" MZ.Sequence.AudioTimeDisplayFormat="200" MZ.Sequence.PreviewRenderingClassID="1061109567" MZ.Sequence.PreviewRenderingPresetCodec="1634755443" MZ.Sequence.PreviewRenderingPresetPath="EncoderPresets/SequencePreview/795454d9-d3c2-429d-9474-923ab13b7018/QuickTime.epr" MZ.Sequence.PreviewUseMaxRenderQuality="false" MZ.Sequence.PreviewUseMaxBitDepth="false" MZ.Sequence.EditingModeGUID="795454d9-d3c2-429d-9474-923ab13b7018" MZ.Sequence.VideoTimeDisplayFormat="110" MZ.WorkOutPoint="10033071048000" MZ.WorkInPoint="0">
											<duration>947</duration>
											<rate>
												<timebase>24</timebase>
												<ntsc>TRUE</ntsc>
											</rate>
											<name>Comp 7 - A1</name>
											<media>
												<video>
													<format>
														<samplecharacteristics>
															<rate>
																<timebase>24</timebase>
																<ntsc>TRUE</ntsc>
															</rate>
															<codec>
																<name>Apple ProRes 422</name>
																<appspecificdata>
																	<appname>Final Cut Pro</appname>
																	<appmanufacturer>Apple Inc.</appmanufacturer>
																	<appversion>7.0</appversion>
																	<data>
																		<qtcodec>
																			<codecname>Apple ProRes 422</codecname>
																			<codectypename>Apple ProRes 422</codectypename>
																			<codectypecode>apcn</codectypecode>
																			<codecvendorcode>appl</codecvendorcode>
																			<spatialquality>1024</spatialquality>
																			<temporalquality>0</temporalquality>
																			<keyframerate>0</keyframerate>
																			<datarate>0</datarate>
																		</qtcodec>
																	</data>
																</appspecificdata>
															</codec>
															<width>1920</width>
															<height>1080</height>
															<anamorphic>FALSE</anamorphic>
															<pixelaspectratio>square</pixelaspectratio>
															<fielddominance>none</fielddominance>
															<colordepth>24</colordepth>
														</samplecharacteristics>
													</format>
													<track TL.SQTrackShy="0" TL.SQTrackExpandedHeight="25" TL.SQTrackExpanded="0" MZ.TrackTargeted="1">
														<clipitem id="clipitem-2">
															<masterclipid>masterclip-2</masterclipid>
															<name>304228_River Hillside Trees Damage_By_Via_Films_Artlist_HD.mp4</name>
															<enabled>TRUE</enabled>
															<duration>407</duration>
															<rate>
																<timebase>24</timebase>
																<ntsc>TRUE</ntsc>
															</rate>
															<start>0</start>
															<end>407</end>
															<in>0</in>
															<out>407</out>
															<pproTicksIn>0</pproTicksIn>
															<pproTicksOut>4311995688000</pproTicksOut>
															<alphatype>none</alphatype>
															<pixelaspectratio>square</pixelaspectratio>
															<anamorphic>FALSE</anamorphic>
															<file id="file-1">
																<name>304228_River Hillside Trees Damage_By_Via_Films_Artlist_HD.mp4</name>
																<pathurl>file://localhost/Users/dalecampo/Desktop/Example%20XML%20Project/03_Raw%20Files/Artlist%201/304228_River%20Hillside%20Trees%20Damage_By_Via_Films_Artlist_HD.mp4</pathurl>
																<rate>
																	<timebase>24</timebase>
																	<ntsc>TRUE</ntsc>
																</rate>
																<duration>407</duration>
																<timecode>
																	<rate>
																		<timebase>24</timebase>
																		<ntsc>TRUE</ntsc>
																	</rate>
																	<string>00:24:31:03</string>
																	<frame>35307</frame>
																	<displayformat>NDF</displayformat>
																</timecode>
																<media>
																	<video>
																		<samplecharacteristics>
																			<rate>
																				<timebase>24</timebase>
																				<ntsc>TRUE</ntsc>
																			</rate>
																			<width>1920</width>
																			<height>1080</height>
																			<anamorphic>FALSE</anamorphic>
																			<pixelaspectratio>square</pixelaspectratio>
																			<fielddominance>none</fielddominance>
																		</samplecharacteristics>
																	</video>
																</media>
															</file>
															<logginginfo>
																<description></description>
																<scene></scene>
																<shottake></shottake>
																<lognote></lognote>
																<good></good>
																<originalvideofilename></originalvideofilename>
																<originalaudiofilename></originalaudiofilename>
															</logginginfo>
															<colorinfo>
																<lut></lut>
																<lut1></lut1>
																<asc_sop></asc_sop>
																<asc_sat></asc_sat>
																<lut2></lut2>
															</colorinfo>
															<labels>
																<label2>Mango</label2>
															</labels>
														</clipitem>
														<clipitem id="clipitem-3">
															<masterclipid>masterclip-3</masterclipid>
															<name>304229_Trees Roadside Glimsing Sun_By_Via_Films_Artlist_HD.mp4</name>
															<enabled>TRUE</enabled>
															<duration>540</duration>
															<rate>
																<timebase>24</timebase>
																<ntsc>TRUE</ntsc>
															</rate>
															<start>407</start>
															<end>947</end>
															<in>0</in>
															<out>540</out>
															<pproTicksIn>0</pproTicksIn>
															<pproTicksOut>5721075360000</pproTicksOut>
															<alphatype>none</alphatype>
															<pixelaspectratio>square</pixelaspectratio>
															<anamorphic>FALSE</anamorphic>
															<file id="file-2">
																<name>304229_Trees Roadside Glimsing Sun_By_Via_Films_Artlist_HD.mp4</name>
																<pathurl>file://localhost/Users/dalecampo/Desktop/Example%20XML%20Project/03_Raw%20Files/Artlist%201/304229_Trees%20Roadside%20Glimsing%20Sun_By_Via_Films_Artlist_HD.mp4</pathurl>
																<rate>
																	<timebase>24</timebase>
																	<ntsc>TRUE</ntsc>
																</rate>
																<duration>540</duration>
																<timecode>
																	<rate>
																		<timebase>24</timebase>
																		<ntsc>TRUE</ntsc>
																	</rate>
																	<string>00:24:23:04</string>
																	<frame>35116</frame>
																	<displayformat>NDF</displayformat>
																</timecode>
																<media>
																	<video>
																		<samplecharacteristics>
																			<rate>
																				<timebase>24</timebase>
																				<ntsc>TRUE</ntsc>
																			</rate>
																			<width>1920</width>
																			<height>1080</height>
																			<anamorphic>FALSE</anamorphic>
																			<pixelaspectratio>square</pixelaspectratio>
																			<fielddominance>none</fielddominance>
																		</samplecharacteristics>
																	</video>
																</media>
															</file>
															<logginginfo>
																<description></description>
																<scene></scene>
																<shottake></shottake>
																<lognote></lognote>
																<good></good>
																<originalvideofilename></originalvideofilename>
																<originalaudiofilename></originalaudiofilename>
															</logginginfo>
															<colorinfo>
																<lut></lut>
																<lut1></lut1>
																<asc_sop></asc_sop>
																<asc_sat></asc_sat>
																<lut2></lut2>
															</colorinfo>
															<labels>
																<label2>Mango</label2>
															</labels>
														</clipitem>
														<enabled>TRUE</enabled>
														<locked>FALSE</locked>
													</track>
													<track TL.SQTrackShy="0" TL.SQTrackExpandedHeight="25" TL.SQTrackExpanded="0" MZ.TrackTargeted="0">
														<enabled>TRUE</enabled>
														<locked>FALSE</locked>
													</track>
													<track TL.SQTrackShy="0" TL.SQTrackExpandedHeight="25" TL.SQTrackExpanded="0" MZ.TrackTargeted="0">
														<enabled>TRUE</enabled>
														<locked>FALSE</locked>
													</track>
												</video>
												<audio>
													<numOutputChannels>2</numOutputChannels>
													<format>
														<samplecharacteristics>
															<depth>16</depth>
															<samplerate>48000</samplerate>
														</samplecharacteristics>
													</format>
													<outputs>
														<group>
															<index>1</index>
															<numchannels>1</numchannels>
															<downmix>0</downmix>
															<channel>
																<index>1</index>
															</channel>
														</group>
														<group>
															<index>2</index>
															<numchannels>1</numchannels>
															<downmix>0</downmix>
															<channel>
																<index>2</index>
															</channel>
														</group>
													</outputs>
													<track TL.SQTrackAudioKeyframeStyle="0" TL.SQTrackShy="0" TL.SQTrackExpandedHeight="25" TL.SQTrackExpanded="0" MZ.TrackTargeted="1" PannerCurrentValue="0.5" PannerIsInverted="true" PannerStartKeyframe="-91445760000000000,0.5,0,0,0,0,0,0" PannerName="Balance" currentExplodedTrackIndex="0" totalExplodedTrackCount="2" premiereTrackType="Stereo">
														<clipitem id="clipitem-4" premiereChannelType="stereo">
															<masterclipid>masterclip-4</masterclipid>
															<name>Kevin P Holt - Shades of Autumn.mp3</name>
															<enabled>TRUE</enabled>
															<duration>5285</duration>
															<rate>
																<timebase>24</timebase>
																<ntsc>TRUE</ntsc>
															</rate>
															<start>0</start>
															<end>947</end>
															<in>0</in>
															<out>947</out>
															<pproTicksIn>0</pproTicksIn>
															<pproTicksOut>10033071048000</pproTicksOut>
															<file id="file-3">
																<name>Kevin P Holt - Shades of Autumn.mp3</name>
																<pathurl>file://localhost/Users/dalecampo/Desktop/Example%20XML%20Project/05_Music/Kevin%20P%20Holt%20-%20Shades%20of%20Autumn.mp3</pathurl>
																<rate>
																	<timebase>30</timebase>
																	<ntsc>TRUE</ntsc>
																</rate>
																<duration>6607</duration>
																<timecode>
																	<rate>
																		<timebase>30</timebase>
																		<ntsc>TRUE</ntsc>
																	</rate>
																	<string>00;00;00;00</string>
																	<frame>0</frame>
																	<displayformat>DF</displayformat>
																</timecode>
																<media>
																	<audio>
																		<samplecharacteristics>
																			<depth>16</depth>
																			<samplerate>44100</samplerate>
																		</samplecharacteristics>
																		<channelcount>2</channelcount>
																	</audio>
																</media>
															</file>
															<sourcetrack>
																<mediatype>audio</mediatype>
																<trackindex>1</trackindex>
															</sourcetrack>
															<link>
																<linkclipref>clipitem-4</linkclipref>
																<mediatype>audio</mediatype>
																<trackindex>1</trackindex>
																<clipindex>1</clipindex>
																<groupindex>1</groupindex>
															</link>
															<link>
																<linkclipref>clipitem-5</linkclipref>
																<mediatype>audio</mediatype>
																<trackindex>2</trackindex>
																<clipindex>1</clipindex>
																<groupindex>1</groupindex>
															</link>
															<logginginfo>
																<description></description>
																<scene></scene>
																<shottake></shottake>
																<lognote></lognote>
																<good></good>
																<originalvideofilename></originalvideofilename>
																<originalaudiofilename></originalaudiofilename>
															</logginginfo>
															<colorinfo>
																<lut></lut>
																<lut1></lut1>
																<asc_sop></asc_sop>
																<asc_sat></asc_sat>
																<lut2></lut2>
															</colorinfo>
															<labels>
																<label2>Forest</label2>
															</labels>
														</clipitem>
														<enabled>TRUE</enabled>
														<locked>FALSE</locked>
														<outputchannelindex>1</outputchannelindex>
													</track>
													<track TL.SQTrackAudioKeyframeStyle="0" TL.SQTrackShy="0" TL.SQTrackExpandedHeight="25" TL.SQTrackExpanded="0" MZ.TrackTargeted="1" PannerCurrentValue="0.5" PannerIsInverted="true" PannerStartKeyframe="-91445760000000000,0.5,0,0,0,0,0,0" PannerName="Balance" currentExplodedTrackIndex="1" totalExplodedTrackCount="2" premiereTrackType="Stereo">
														<clipitem id="clipitem-5" premiereChannelType="stereo">
															<masterclipid>masterclip-4</masterclipid>
															<name>Kevin P Holt - Shades of Autumn.mp3</name>
															<enabled>TRUE</enabled>
															<duration>5285</duration>
															<rate>
																<timebase>24</timebase>
																<ntsc>TRUE</ntsc>
															</rate>
															<start>0</start>
															<end>947</end>
															<in>0</in>
															<out>947</out>
															<pproTicksIn>0</pproTicksIn>
															<pproTicksOut>10033071048000</pproTicksOut>
															<file id="file-3"/>
															<sourcetrack>
																<mediatype>audio</mediatype>
																<trackindex>2</trackindex>
															</sourcetrack>
															<link>
																<linkclipref>clipitem-4</linkclipref>
																<mediatype>audio</mediatype>
																<trackindex>1</trackindex>
																<clipindex>1</clipindex>
																<groupindex>1</groupindex>
															</link>
															<link>
																<linkclipref>clipitem-5</linkclipref>
																<mediatype>audio</mediatype>
																<trackindex>2</trackindex>
																<clipindex>1</clipindex>
																<groupindex>1</groupindex>
															</link>
															<logginginfo>
																<description></description>
																<scene></scene>
																<shottake></shottake>
																<lognote></lognote>
																<good></good>
																<originalvideofilename></originalvideofilename>
																<originalaudiofilename></originalaudiofilename>
															</logginginfo>
															<colorinfo>
																<lut></lut>
																<lut1></lut1>
																<asc_sop></asc_sop>
																<asc_sat></asc_sat>
																<lut2></lut2>
															</colorinfo>
															<labels>
																<label2>Forest</label2>
															</labels>
														</clipitem>
														<enabled>TRUE</enabled>
														<locked>FALSE</locked>
														<outputchannelindex>2</outputchannelindex>
													</track>
													<track TL.SQTrackAudioKeyframeStyle="0" TL.SQTrackShy="0" TL.SQTrackExpandedHeight="25" TL.SQTrackExpanded="0" MZ.TrackTargeted="1" PannerCurrentValue="0.5" PannerIsInverted="true" PannerStartKeyframe="-91445760000000000,0.5,0,0,0,0,0,0" PannerName="Balance" currentExplodedTrackIndex="0" totalExplodedTrackCount="2" premiereTrackType="Stereo">
														<enabled>TRUE</enabled>
														<locked>FALSE</locked>
														<outputchannelindex>1</outputchannelindex>
													</track>
													<track TL.SQTrackAudioKeyframeStyle="0" TL.SQTrackShy="0" TL.SQTrackExpandedHeight="25" TL.SQTrackExpanded="0" MZ.TrackTargeted="1" PannerCurrentValue="0.5" PannerIsInverted="true" PannerStartKeyframe="-91445760000000000,0.5,0,0,0,0,0,0" PannerName="Balance" currentExplodedTrackIndex="1" totalExplodedTrackCount="2" premiereTrackType="Stereo">
														<enabled>TRUE</enabled>
														<locked>FALSE</locked>
														<outputchannelindex>2</outputchannelindex>
													</track>
													<track TL.SQTrackAudioKeyframeStyle="0" TL.SQTrackShy="0" TL.SQTrackExpandedHeight="25" TL.SQTrackExpanded="0" MZ.TrackTargeted="1" PannerCurrentValue="0.5" PannerIsInverted="true" PannerStartKeyframe="-91445760000000000,0.5,0,0,0,0,0,0" PannerName="Balance" currentExplodedTrackIndex="0" totalExplodedTrackCount="2" premiereTrackType="Stereo">
														<enabled>TRUE</enabled>
														<locked>FALSE</locked>
														<outputchannelindex>1</outputchannelindex>
													</track>
													<track TL.SQTrackAudioKeyframeStyle="0" TL.SQTrackShy="0" TL.SQTrackExpandedHeight="25" TL.SQTrackExpanded="0" MZ.TrackTargeted="1" PannerCurrentValue="0.5" PannerIsInverted="true" PannerStartKeyframe="-91445760000000000,0.5,0,0,0,0,0,0" PannerName="Balance" currentExplodedTrackIndex="1" totalExplodedTrackCount="2" premiereTrackType="Stereo">
														<enabled>TRUE</enabled>
														<locked>FALSE</locked>
														<outputchannelindex>2</outputchannelindex>
													</track>
												</audio>
											</media>
											<timecode>
												<rate>
													<timebase>24</timebase>
													<ntsc>TRUE</ntsc>
												</rate>
												<string>00:00:00:00</string>
												<frame>0</frame>
												<displayformat>NDF</displayformat>
											</timecode>
											<logginginfo>
												<description></description>
												<scene></scene>
												<shottake></shottake>
												<lognote></lognote>
												<good></good>
												<originalvideofilename></originalvideofilename>
												<originalaudiofilename></originalaudiofilename>
											</logginginfo>
										</sequence>
										<link>
											<linkclipref>clipitem-1</linkclipref>
											<mediatype>video</mediatype>
											<trackindex>1</trackindex>
											<clipindex>1</clipindex>
										</link>
										<link>
											<linkclipref>clipitem-28</linkclipref>
											<mediatype>audio</mediatype>
											<trackindex>1</trackindex>
											<clipindex>1</clipindex>
											<groupindex>1</groupindex>
										</link>
										<link>
											<linkclipref>clipitem-31</linkclipref>
											<mediatype>audio</mediatype>
											<trackindex>2</trackindex>
											<clipindex>1</clipindex>
											<groupindex>1</groupindex>
										</link>
										<labels>
											<label2>Blue</label2>
										</labels>
									</clipitem>
									<clipitem id="clipitem-6">
										<masterclipid>masterclip-5</masterclipid>
										<name>Comp 8 - A2</name>
										<enabled>TRUE</enabled>
										<duration>6053</duration>
										<rate>
											<timebase>30</timebase>
											<ntsc>TRUE</ntsc>
										</rate>
										<start>1343</start>
										<end>2274</end>
										<in>0</in>
										<out>931</out>
										<pproTicksIn>0</pproTicksIn>
										<pproTicksOut>7890846163200</pproTicksOut>
										<sequence id="sequence-3" TL.SQAudioVisibleBase="0" TL.SQVideoVisibleBase="0" TL.SQVisibleBaseTime="0" TL.SQAVDividerPosition="0.5" TL.SQHideShyTracks="0" TL.SQHeaderWidth="236" Monitor.ProgramZoomOut="7894817280000" Monitor.ProgramZoomIn="0" TL.SQTimePerPixel="0.19999999999999998" MZ.EditLine="51311232000000" MZ.Sequence.PreviewFrameSizeHeight="1080" MZ.Sequence.PreviewFrameSizeWidth="1920" MZ.Sequence.AudioTimeDisplayFormat="200" MZ.Sequence.PreviewRenderingClassID="1061109567" MZ.Sequence.PreviewRenderingPresetCodec="1634755443" MZ.Sequence.PreviewRenderingPresetPath="EncoderPresets/SequencePreview/795454d9-d3c2-429d-9474-923ab13b7018/QuickTime.epr" MZ.Sequence.PreviewUseMaxRenderQuality="false" MZ.Sequence.PreviewUseMaxBitDepth="false" MZ.Sequence.EditingModeGUID="795454d9-d3c2-429d-9474-923ab13b7018" MZ.Sequence.VideoTimeDisplayFormat="101" MZ.WorkOutPoint="7894817280000" MZ.WorkInPoint="0">
											<duration>777</duration>
											<rate>
												<timebase>25</timebase>
												<ntsc>FALSE</ntsc>
											</rate>
											<name>Comp 8 - A2</name>
											<media>
												<video>
													<format>
														<samplecharacteristics>
															<rate>
																<timebase>25</timebase>
																<ntsc>FALSE</ntsc>
															</rate>
															<codec>
																<name>Apple ProRes 422</name>
																<appspecificdata>
																	<appname>Final Cut Pro</appname>
																	<appmanufacturer>Apple Inc.</appmanufacturer>
																	<appversion>7.0</appversion>
																	<data>
																		<qtcodec>
																			<codecname>Apple ProRes 422</codecname>
																			<codectypename>Apple ProRes 422</codectypename>
																			<codectypecode>apcn</codectypecode>
																			<codecvendorcode>appl</codecvendorcode>
																			<spatialquality>1024</spatialquality>
																			<temporalquality>0</temporalquality>
																			<keyframerate>0</keyframerate>
																			<datarate>0</datarate>
																		</qtcodec>
																	</data>
																</appspecificdata>
															</codec>
															<width>1920</width>
															<height>1080</height>
															<anamorphic>FALSE</anamorphic>
															<pixelaspectratio>square</pixelaspectratio>
															<fielddominance>none</fielddominance>
															<colordepth>24</colordepth>
														</samplecharacteristics>
													</format>
													<track TL.SQTrackShy="0" TL.SQTrackExpandedHeight="25" TL.SQTrackExpanded="0" MZ.TrackTargeted="1">
														<clipitem id="clipitem-7">
															<masterclipid>masterclip-6</masterclipid>
															<name>263101_Glacier Iceberg Iceland Ice_By_Viktor_Sloth_Artlist_HD.mp4</name>
															<enabled>TRUE</enabled>
															<duration>452</duration>
															<rate>
																<timebase>25</timebase>
																<ntsc>FALSE</ntsc>
															</rate>
															<start>0</start>
															<end>452</end>
															<in>0</in>
															<out>452</out>
															<pproTicksIn>0</pproTicksIn>
															<pproTicksOut>4592609280000</pproTicksOut>
															<alphatype>none</alphatype>
															<pixelaspectratio>square</pixelaspectratio>
															<anamorphic>FALSE</anamorphic>
															<file id="file-4">
																<name>263101_Glacier Iceberg Iceland Ice_By_Viktor_Sloth_Artlist_HD.mp4</name>
																<pathurl>file://localhost/Users/dalecampo/Desktop/Example%20XML%20Project/03_Raw%20Files/Artlist%202/263101_Glacier%20Iceberg%20Iceland%20Ice_By_Viktor_Sloth_Artlist_HD.mp4</pathurl>
																<rate>
																	<timebase>25</timebase>
																	<ntsc>FALSE</ntsc>
																</rate>
																<duration>452</duration>
																<timecode>
																	<rate>
																		<timebase>25</timebase>
																		<ntsc>FALSE</ntsc>
																	</rate>
																	<string>02:34:25:11</string>
																	<frame>231636</frame>
																	<displayformat>NDF</displayformat>
																</timecode>
																<media>
																	<video>
																		<samplecharacteristics>
																			<rate>
																				<timebase>25</timebase>
																				<ntsc>FALSE</ntsc>
																			</rate>
																			<width>1920</width>
																			<height>1080</height>
																			<anamorphic>FALSE</anamorphic>
																			<pixelaspectratio>square</pixelaspectratio>
																			<fielddominance>none</fielddominance>
																		</samplecharacteristics>
																	</video>
																</media>
															</file>
															<logginginfo>
																<description></description>
																<scene></scene>
																<shottake></shottake>
																<lognote></lognote>
																<good></good>
																<originalvideofilename></originalvideofilename>
																<originalaudiofilename></originalaudiofilename>
															</logginginfo>
															<colorinfo>
																<lut></lut>
																<lut1></lut1>
																<asc_sop></asc_sop>
																<asc_sat></asc_sat>
																<lut2></lut2>
															</colorinfo>
															<labels>
																<label2>Mango</label2>
															</labels>
														</clipitem>
														<clipitem id="clipitem-8">
															<masterclipid>masterclip-7</masterclipid>
															<name>263104_Lagoon Iceland Jokulsarlon Glacier_By_Viktor_Sloth_Artlist_HD.mp4</name>
															<enabled>TRUE</enabled>
															<duration>325</duration>
															<rate>
																<timebase>25</timebase>
																<ntsc>FALSE</ntsc>
															</rate>
															<start>452</start>
															<end>777</end>
															<in>0</in>
															<out>325</out>
															<pproTicksIn>0</pproTicksIn>
															<pproTicksOut>3302208000000</pproTicksOut>
															<alphatype>none</alphatype>
															<pixelaspectratio>square</pixelaspectratio>
															<anamorphic>FALSE</anamorphic>
															<file id="file-5">
																<name>263104_Lagoon Iceland Jokulsarlon Glacier_By_Viktor_Sloth_Artlist_HD.mp4</name>
																<pathurl>file://localhost/Users/dalecampo/Desktop/Example%20XML%20Project/03_Raw%20Files/Artlist%202/263104_Lagoon%20Iceland%20Jokulsarlon%20Glacier_By_Viktor_Sloth_Artlist_HD.mp4</pathurl>
																<rate>
																	<timebase>25</timebase>
																	<ntsc>FALSE</ntsc>
																</rate>
																<duration>325</duration>
																<timecode>
																	<rate>
																		<timebase>25</timebase>
																		<ntsc>FALSE</ntsc>
																	</rate>
																	<string>02:35:10:00</string>
																	<frame>232750</frame>
																	<displayformat>NDF</displayformat>
																</timecode>
																<media>
																	<video>
																		<samplecharacteristics>
																			<rate>
																				<timebase>25</timebase>
																				<ntsc>FALSE</ntsc>
																			</rate>
																			<width>1920</width>
																			<height>1080</height>
																			<anamorphic>FALSE</anamorphic>
																			<pixelaspectratio>square</pixelaspectratio>
																			<fielddominance>none</fielddominance>
																		</samplecharacteristics>
																	</video>
																</media>
															</file>
															<logginginfo>
																<description></description>
																<scene></scene>
																<shottake></shottake>
																<lognote></lognote>
																<good></good>
																<originalvideofilename></originalvideofilename>
																<originalaudiofilename></originalaudiofilename>
															</logginginfo>
															<colorinfo>
																<lut></lut>
																<lut1></lut1>
																<asc_sop></asc_sop>
																<asc_sat></asc_sat>
																<lut2></lut2>
															</colorinfo>
															<labels>
																<label2>Mango</label2>
															</labels>
														</clipitem>
														<enabled>TRUE</enabled>
														<locked>FALSE</locked>
													</track>
													<track TL.SQTrackShy="0" TL.SQTrackExpandedHeight="25" TL.SQTrackExpanded="0" MZ.TrackTargeted="0">
														<enabled>TRUE</enabled>
														<locked>FALSE</locked>
													</track>
													<track TL.SQTrackShy="0" TL.SQTrackExpandedHeight="25" TL.SQTrackExpanded="0" MZ.TrackTargeted="0">
														<enabled>TRUE</enabled>
														<locked>FALSE</locked>
													</track>
												</video>
												<audio>
													<numOutputChannels>2</numOutputChannels>
													<format>
														<samplecharacteristics>
															<depth>16</depth>
															<samplerate>48000</samplerate>
														</samplecharacteristics>
													</format>
													<outputs>
														<group>
															<index>1</index>
															<numchannels>1</numchannels>
															<downmix>0</downmix>
															<channel>
																<index>1</index>
															</channel>
														</group>
														<group>
															<index>2</index>
															<numchannels>1</numchannels>
															<downmix>0</downmix>
															<channel>
																<index>2</index>
															</channel>
														</group>
													</outputs>
													<track TL.SQTrackAudioKeyframeStyle="0" TL.SQTrackShy="0" TL.SQTrackExpandedHeight="25" TL.SQTrackExpanded="0" MZ.TrackTargeted="1" PannerCurrentValue="0.5" PannerIsInverted="true" PannerStartKeyframe="-91445760000000000,0.5,0,0,0,0,0,0" PannerName="Balance" currentExplodedTrackIndex="0" totalExplodedTrackCount="2" premiereTrackType="Stereo">
														<clipitem id="clipitem-9" premiereChannelType="stereo">
															<masterclipid>masterclip-8</masterclipid>
															<name>Shahead Mostafafar - Making the Future.mp3</name>
															<enabled>TRUE</enabled>
															<duration>5050</duration>
															<rate>
																<timebase>25</timebase>
																<ntsc>FALSE</ntsc>
															</rate>
															<start>0</start>
															<end>777</end>
															<in>0</in>
															<out>777</out>
															<pproTicksIn>0</pproTicksIn>
															<pproTicksOut>7894817280000</pproTicksOut>
															<file id="file-6">
																<name>Shahead Mostafafar - Making the Future.mp3</name>
																<pathurl>file://localhost/Users/dalecampo/Desktop/Example%20XML%20Project/05_Music/Shahead%20Mostafafar%20-%20Making%20the%20Future.mp3</pathurl>
																<rate>
																	<timebase>30</timebase>
																	<ntsc>TRUE</ntsc>
																</rate>
																<duration>6054</duration>
																<timecode>
																	<rate>
																		<timebase>30</timebase>
																		<ntsc>TRUE</ntsc>
																	</rate>
																	<string>00;00;00;00</string>
																	<frame>0</frame>
																	<displayformat>DF</displayformat>
																</timecode>
																<media>
																	<audio>
																		<samplecharacteristics>
																			<depth>16</depth>
																			<samplerate>44100</samplerate>
																		</samplecharacteristics>
																		<channelcount>2</channelcount>
																	</audio>
																</media>
															</file>
															<sourcetrack>
																<mediatype>audio</mediatype>
																<trackindex>1</trackindex>
															</sourcetrack>
															<link>
																<linkclipref>clipitem-9</linkclipref>
																<mediatype>audio</mediatype>
																<trackindex>1</trackindex>
																<clipindex>1</clipindex>
																<groupindex>1</groupindex>
															</link>
															<link>
																<linkclipref>clipitem-10</linkclipref>
																<mediatype>audio</mediatype>
																<trackindex>2</trackindex>
																<clipindex>1</clipindex>
																<groupindex>1</groupindex>
															</link>
															<logginginfo>
																<description></description>
																<scene></scene>
																<shottake></shottake>
																<lognote>All Rights Reserved to www.Art-list.io</lognote>
																<good></good>
																<originalvideofilename></originalvideofilename>
																<originalaudiofilename></originalaudiofilename>
															</logginginfo>
															<colorinfo>
																<lut></lut>
																<lut1></lut1>
																<asc_sop></asc_sop>
																<asc_sat></asc_sat>
																<lut2></lut2>
															</colorinfo>
															<labels>
																<label2>Caribbean</label2>
															</labels>
														</clipitem>
														<enabled>TRUE</enabled>
														<locked>FALSE</locked>
														<outputchannelindex>1</outputchannelindex>
													</track>
													<track TL.SQTrackAudioKeyframeStyle="0" TL.SQTrackShy="0" TL.SQTrackExpandedHeight="25" TL.SQTrackExpanded="0" MZ.TrackTargeted="1" PannerCurrentValue="0.5" PannerIsInverted="true" PannerStartKeyframe="-91445760000000000,0.5,0,0,0,0,0,0" PannerName="Balance" currentExplodedTrackIndex="1" totalExplodedTrackCount="2" premiereTrackType="Stereo">
														<clipitem id="clipitem-10" premiereChannelType="stereo">
															<masterclipid>masterclip-8</masterclipid>
															<name>Shahead Mostafafar - Making the Future.mp3</name>
															<enabled>TRUE</enabled>
															<duration>5050</duration>
															<rate>
																<timebase>25</timebase>
																<ntsc>FALSE</ntsc>
															</rate>
															<start>0</start>
															<end>777</end>
															<in>0</in>
															<out>777</out>
															<pproTicksIn>0</pproTicksIn>
															<pproTicksOut>7894817280000</pproTicksOut>
															<file id="file-6"/>
															<sourcetrack>
																<mediatype>audio</mediatype>
																<trackindex>2</trackindex>
															</sourcetrack>
															<link>
																<linkclipref>clipitem-9</linkclipref>
																<mediatype>audio</mediatype>
																<trackindex>1</trackindex>
																<clipindex>1</clipindex>
																<groupindex>1</groupindex>
															</link>
															<link>
																<linkclipref>clipitem-10</linkclipref>
																<mediatype>audio</mediatype>
																<trackindex>2</trackindex>
																<clipindex>1</clipindex>
																<groupindex>1</groupindex>
															</link>
															<logginginfo>
																<description></description>
																<scene></scene>
																<shottake></shottake>
																<lognote>All Rights Reserved to www.Art-list.io</lognote>
																<good></good>
																<originalvideofilename></originalvideofilename>
																<originalaudiofilename></originalaudiofilename>
															</logginginfo>
															<colorinfo>
																<lut></lut>
																<lut1></lut1>
																<asc_sop></asc_sop>
																<asc_sat></asc_sat>
																<lut2></lut2>
															</colorinfo>
															<labels>
																<label2>Caribbean</label2>
															</labels>
														</clipitem>
														<enabled>TRUE</enabled>
														<locked>FALSE</locked>
														<outputchannelindex>2</outputchannelindex>
													</track>
													<track TL.SQTrackAudioKeyframeStyle="0" TL.SQTrackShy="0" TL.SQTrackExpandedHeight="25" TL.SQTrackExpanded="0" MZ.TrackTargeted="1" PannerCurrentValue="0.5" PannerIsInverted="true" PannerStartKeyframe="-91445760000000000,0.5,0,0,0,0,0,0" PannerName="Balance" currentExplodedTrackIndex="0" totalExplodedTrackCount="2" premiereTrackType="Stereo">
														<enabled>TRUE</enabled>
														<locked>FALSE</locked>
														<outputchannelindex>1</outputchannelindex>
													</track>
													<track TL.SQTrackAudioKeyframeStyle="0" TL.SQTrackShy="0" TL.SQTrackExpandedHeight="25" TL.SQTrackExpanded="0" MZ.TrackTargeted="1" PannerCurrentValue="0.5" PannerIsInverted="true" PannerStartKeyframe="-91445760000000000,0.5,0,0,0,0,0,0" PannerName="Balance" currentExplodedTrackIndex="1" totalExplodedTrackCount="2" premiereTrackType="Stereo">
														<enabled>TRUE</enabled>
														<locked>FALSE</locked>
														<outputchannelindex>2</outputchannelindex>
													</track>
													<track TL.SQTrackAudioKeyframeStyle="0" TL.SQTrackShy="0" TL.SQTrackExpandedHeight="25" TL.SQTrackExpanded="0" MZ.TrackTargeted="1" PannerCurrentValue="0.5" PannerIsInverted="true" PannerStartKeyframe="-91445760000000000,0.5,0,0,0,0,0,0" PannerName="Balance" currentExplodedTrackIndex="0" totalExplodedTrackCount="2" premiereTrackType="Stereo">
														<enabled>TRUE</enabled>
														<locked>FALSE</locked>
														<outputchannelindex>1</outputchannelindex>
													</track>
													<track TL.SQTrackAudioKeyframeStyle="0" TL.SQTrackShy="0" TL.SQTrackExpandedHeight="25" TL.SQTrackExpanded="0" MZ.TrackTargeted="1" PannerCurrentValue="0.5" PannerIsInverted="true" PannerStartKeyframe="-91445760000000000,0.5,0,0,0,0,0,0" PannerName="Balance" currentExplodedTrackIndex="1" totalExplodedTrackCount="2" premiereTrackType="Stereo">
														<enabled>TRUE</enabled>
														<locked>FALSE</locked>
														<outputchannelindex>2</outputchannelindex>
													</track>
												</audio>
											</media>
											<timecode>
												<rate>
													<timebase>25</timebase>
													<ntsc>FALSE</ntsc>
												</rate>
												<string>00:00:00:00</string>
												<frame>0</frame>
												<displayformat>NDF</displayformat>
											</timecode>
											<logginginfo>
												<description></description>
												<scene></scene>
												<shottake></shottake>
												<lognote></lognote>
												<good></good>
												<originalvideofilename></originalvideofilename>
												<originalaudiofilename></originalaudiofilename>
											</logginginfo>
										</sequence>
										<filter>
											<effect>
												<name>Distort</name>
												<effectid>deformation</effectid>
												<effectcategory>motion</effectcategory>
												<effecttype>motion</effecttype>
												<mediatype>video</mediatype>
												<parameter authoringApp="PremierePro">
													<parameterid>aspect</parameterid>
													<name>Aspect</name>
													<valuemin>-10000</valuemin>
													<valuemax>10000</valuemax>
													<value>-12.5</value>
												</parameter>
											</effect>
										</filter>
										<filter>
											<effect>
												<name>Basic Motion</name>
												<effectid>basic</effectid>
												<effectcategory>motion</effectcategory>
												<effecttype>motion</effecttype>
												<mediatype>video</mediatype>
												<parameter authoringApp="PremierePro">
													<parameterid>scale</parameterid>
													<name>Scale</name>
													<value>112.5</value>
												</parameter>
											</effect>
										</filter>
										<link>
											<linkclipref>clipitem-6</linkclipref>
											<mediatype>video</mediatype>
											<trackindex>1</trackindex>
											<clipindex>2</clipindex>
										</link>
										<link>
											<linkclipref>clipitem-29</linkclipref>
											<mediatype>audio</mediatype>
											<trackindex>1</trackindex>
											<clipindex>2</clipindex>
											<groupindex>1</groupindex>
										</link>
										<link>
											<linkclipref>clipitem-32</linkclipref>
											<mediatype>audio</mediatype>
											<trackindex>2</trackindex>
											<clipindex>2</clipindex>
											<groupindex>1</groupindex>
										</link>
										<labels>
											<label2>Purple</label2>
										</labels>
									</clipitem>
									<clipitem id="clipitem-11">
										<masterclipid>masterclip-9</masterclipid>
										<name>Comp 9 - A3</name>
										<enabled>TRUE</enabled>
										<duration>2771</duration>
										<rate>
											<timebase>30</timebase>
											<ntsc>TRUE</ntsc>
										</rate>
										<start>2339</start>
										<end>2808</end>
										<in>0</in>
										<out>469</out>
										<pproTicksIn>0</pproTicksIn>
										<pproTicksOut>3975087916800</pproTicksOut>
										<sequence id="sequence-4" TL.SQAudioVisibleBase="0" TL.SQVideoVisibleBase="0" TL.SQVisibleBaseTime="0" TL.SQAVDividerPosition="0.5" TL.SQHideShyTracks="0" TL.SQHeaderWidth="236" Monitor.ProgramZoomOut="3972810240000" Monitor.ProgramZoomIn="0" TL.SQTimePerPixel="0.013623693379790941" MZ.EditLine="13637348524800" MZ.Sequence.PreviewFrameSizeHeight="1080" MZ.Sequence.PreviewFrameSizeWidth="1920" MZ.Sequence.AudioTimeDisplayFormat="200" MZ.Sequence.PreviewRenderingClassID="1061109567" MZ.Sequence.PreviewRenderingPresetCodec="1634755443" MZ.Sequence.PreviewRenderingPresetPath="EncoderPresets/SequencePreview/795454d9-d3c2-429d-9474-923ab13b7018/QuickTime.epr" MZ.Sequence.PreviewUseMaxRenderQuality="false" MZ.Sequence.PreviewUseMaxBitDepth="false" MZ.Sequence.EditingModeGUID="795454d9-d3c2-429d-9474-923ab13b7018" MZ.Sequence.VideoTimeDisplayFormat="101" MZ.WorkOutPoint="3972810240000" MZ.WorkInPoint="0">
											<duration>391</duration>
											<rate>
												<timebase>25</timebase>
												<ntsc>FALSE</ntsc>
											</rate>
											<name>Comp 9 - A3</name>
											<media>
												<video>
													<format>
														<samplecharacteristics>
															<rate>
																<timebase>25</timebase>
																<ntsc>FALSE</ntsc>
															</rate>
															<codec>
																<name>Apple ProRes 422</name>
																<appspecificdata>
																	<appname>Final Cut Pro</appname>
																	<appmanufacturer>Apple Inc.</appmanufacturer>
																	<appversion>7.0</appversion>
																	<data>
																		<qtcodec>
																			<codecname>Apple ProRes 422</codecname>
																			<codectypename>Apple ProRes 422</codectypename>
																			<codectypecode>apcn</codectypecode>
																			<codecvendorcode>appl</codecvendorcode>
																			<spatialquality>1024</spatialquality>
																			<temporalquality>0</temporalquality>
																			<keyframerate>0</keyframerate>
																			<datarate>0</datarate>
																		</qtcodec>
																	</data>
																</appspecificdata>
															</codec>
															<width>1920</width>
															<height>1080</height>
															<anamorphic>FALSE</anamorphic>
															<pixelaspectratio>square</pixelaspectratio>
															<fielddominance>none</fielddominance>
															<colordepth>24</colordepth>
														</samplecharacteristics>
													</format>
													<track TL.SQTrackShy="0" TL.SQTrackExpandedHeight="25" TL.SQTrackExpanded="0" MZ.TrackTargeted="1">
														<clipitem id="clipitem-12">
															<masterclipid>masterclip-10</masterclipid>
															<name>164529_Mountains and trees in Thailand_By_Roma_Black_Artlist_HD.mp4</name>
															<enabled>TRUE</enabled>
															<duration>270</duration>
															<rate>
																<timebase>25</timebase>
																<ntsc>FALSE</ntsc>
															</rate>
															<start>0</start>
															<end>270</end>
															<in>0</in>
															<out>270</out>
															<pproTicksIn>0</pproTicksIn>
															<pproTicksOut>2743372800000</pproTicksOut>
															<alphatype>none</alphatype>
															<pixelaspectratio>square</pixelaspectratio>
															<anamorphic>FALSE</anamorphic>
															<file id="file-7">
																<name>164529_Mountains and trees in Thailand_By_Roma_Black_Artlist_HD.mp4</name>
																<pathurl>file://localhost/Users/dalecampo/Desktop/Example%20XML%20Project/03_Raw%20Files/Artlist%203/164529_Mountains%20and%20trees%20in%20Thailand_By_Roma_Black_Artlist_HD.mp4</pathurl>
																<rate>
																	<timebase>25</timebase>
																	<ntsc>FALSE</ntsc>
																</rate>
																<duration>270</duration>
																<timecode>
																	<rate>
																		<timebase>25</timebase>
																		<ntsc>FALSE</ntsc>
																	</rate>
																	<string>00:04:19:09</string>
																	<frame>6484</frame>
																	<displayformat>NDF</displayformat>
																</timecode>
																<media>
																	<video>
																		<samplecharacteristics>
																			<rate>
																				<timebase>25</timebase>
																				<ntsc>FALSE</ntsc>
																			</rate>
																			<width>1920</width>
																			<height>1080</height>
																			<anamorphic>FALSE</anamorphic>
																			<pixelaspectratio>square</pixelaspectratio>
																			<fielddominance>none</fielddominance>
																		</samplecharacteristics>
																	</video>
																</media>
															</file>
															<logginginfo>
																<description></description>
																<scene></scene>
																<shottake></shottake>
																<lognote></lognote>
																<good></good>
																<originalvideofilename></originalvideofilename>
																<originalaudiofilename></originalaudiofilename>
															</logginginfo>
															<colorinfo>
																<lut></lut>
																<lut1></lut1>
																<asc_sop></asc_sop>
																<asc_sat></asc_sat>
																<lut2></lut2>
															</colorinfo>
															<labels>
																<label2>Mango</label2>
															</labels>
														</clipitem>
														<clipitem id="clipitem-13">
															<masterclipid>masterclip-11</masterclipid>
															<name>164530_Mountains and trees in Thailand_By_Roma_Black_Artlist_HD.mp4</name>
															<enabled>TRUE</enabled>
															<duration>121</duration>
															<rate>
																<timebase>25</timebase>
																<ntsc>FALSE</ntsc>
															</rate>
															<start>270</start>
															<end>391</end>
															<in>0</in>
															<out>121</out>
															<pproTicksIn>0</pproTicksIn>
															<pproTicksOut>1229437440000</pproTicksOut>
															<alphatype>none</alphatype>
															<pixelaspectratio>square</pixelaspectratio>
															<anamorphic>FALSE</anamorphic>
															<file id="file-8">
																<name>164530_Mountains and trees in Thailand_By_Roma_Black_Artlist_HD.mp4</name>
																<pathurl>file://localhost/Users/dalecampo/Desktop/Example%20XML%20Project/03_Raw%20Files/Artlist%203/164530_Mountains%20and%20trees%20in%20Thailand_By_Roma_Black_Artlist_HD.mp4</pathurl>
																<rate>
																	<timebase>25</timebase>
																	<ntsc>FALSE</ntsc>
																</rate>
																<duration>121</duration>
																<timecode>
																	<rate>
																		<timebase>25</timebase>
																		<ntsc>FALSE</ntsc>
																	</rate>
																	<string>00:00:00:00</string>
																	<frame>0</frame>
																	<displayformat>NDF</displayformat>
																</timecode>
																<media>
																	<video>
																		<samplecharacteristics>
																			<rate>
																				<timebase>25</timebase>
																				<ntsc>FALSE</ntsc>
																			</rate>
																			<width>1920</width>
																			<height>1080</height>
																			<anamorphic>FALSE</anamorphic>
																			<pixelaspectratio>square</pixelaspectratio>
																			<fielddominance>none</fielddominance>
																		</samplecharacteristics>
																	</video>
																</media>
															</file>
															<logginginfo>
																<description></description>
																<scene></scene>
																<shottake></shottake>
																<lognote></lognote>
																<good></good>
																<originalvideofilename></originalvideofilename>
																<originalaudiofilename></originalaudiofilename>
															</logginginfo>
															<colorinfo>
																<lut></lut>
																<lut1></lut1>
																<asc_sop></asc_sop>
																<asc_sat></asc_sat>
																<lut2></lut2>
															</colorinfo>
															<labels>
																<label2>Mango</label2>
															</labels>
														</clipitem>
														<enabled>TRUE</enabled>
														<locked>FALSE</locked>
													</track>
													<track TL.SQTrackShy="0" TL.SQTrackExpandedHeight="25" TL.SQTrackExpanded="0" MZ.TrackTargeted="0">
														<enabled>TRUE</enabled>
														<locked>FALSE</locked>
													</track>
													<track TL.SQTrackShy="0" TL.SQTrackExpandedHeight="25" TL.SQTrackExpanded="0" MZ.TrackTargeted="0">
														<enabled>TRUE</enabled>
														<locked>FALSE</locked>
													</track>
												</video>
												<audio>
													<numOutputChannels>2</numOutputChannels>
													<format>
														<samplecharacteristics>
															<depth>16</depth>
															<samplerate>48000</samplerate>
														</samplecharacteristics>
													</format>
													<outputs>
														<group>
															<index>1</index>
															<numchannels>1</numchannels>
															<downmix>0</downmix>
															<channel>
																<index>1</index>
															</channel>
														</group>
														<group>
															<index>2</index>
															<numchannels>1</numchannels>
															<downmix>0</downmix>
															<channel>
																<index>2</index>
															</channel>
														</group>
													</outputs>
													<track TL.SQTrackAudioKeyframeStyle="0" TL.SQTrackShy="0" TL.SQTrackExpandedHeight="25" TL.SQTrackExpanded="0" MZ.TrackTargeted="1" PannerCurrentValue="0.5" PannerIsInverted="true" PannerStartKeyframe="-91445760000000000,0.5,0,0,0,0,0,0" PannerName="Balance" currentExplodedTrackIndex="0" totalExplodedTrackCount="2" premiereTrackType="Stereo">
														<clipitem id="clipitem-14" premiereChannelType="stereo">
															<masterclipid>masterclip-12</masterclipid>
															<name>Veaceslav Draganov - The Scents of Spring.wav</name>
															<enabled>TRUE</enabled>
															<duration>2312</duration>
															<rate>
																<timebase>25</timebase>
																<ntsc>FALSE</ntsc>
															</rate>
															<start>0</start>
															<end>391</end>
															<in>0</in>
															<out>391</out>
															<pproTicksIn>0</pproTicksIn>
															<pproTicksOut>3972810240000</pproTicksOut>
															<file id="file-9">
																<name>Veaceslav Draganov - The Scents of Spring.wav</name>
																<pathurl>file://localhost/Users/dalecampo/Desktop/Example%20XML%20Project/05_Music/Veaceslav%20Draganov%20-%20The%20Scents%20of%20Spring.wav</pathurl>
																<rate>
																	<timebase>30</timebase>
																	<ntsc>TRUE</ntsc>
																</rate>
																<duration>2771</duration>
																<timecode>
																	<rate>
																		<timebase>30</timebase>
																		<ntsc>TRUE</ntsc>
																	</rate>
																	<string>00;13;10;14</string>
																	<frame>23690</frame>
																	<displayformat>DF</displayformat>
																</timecode>
																<media>
																	<audio>
																		<samplecharacteristics>
																			<depth>16</depth>
																			<samplerate>44100</samplerate>
																		</samplecharacteristics>
																		<channelcount>2</channelcount>
																	</audio>
																</media>
															</file>
															<sourcetrack>
																<mediatype>audio</mediatype>
																<trackindex>1</trackindex>
															</sourcetrack>
															<link>
																<linkclipref>clipitem-14</linkclipref>
																<mediatype>audio</mediatype>
																<trackindex>1</trackindex>
																<clipindex>1</clipindex>
																<groupindex>1</groupindex>
															</link>
															<link>
																<linkclipref>clipitem-15</linkclipref>
																<mediatype>audio</mediatype>
																<trackindex>2</trackindex>
																<clipindex>1</clipindex>
																<groupindex>1</groupindex>
															</link>
															<logginginfo>
																<description></description>
																<scene></scene>
																<shottake></shottake>
																<lognote></lognote>
																<good></good>
																<originalvideofilename></originalvideofilename>
																<originalaudiofilename></originalaudiofilename>
															</logginginfo>
															<colorinfo>
																<lut></lut>
																<lut1></lut1>
																<asc_sop></asc_sop>
																<asc_sat></asc_sat>
																<lut2></lut2>
															</colorinfo>
															<labels>
																<label2>Violet</label2>
															</labels>
														</clipitem>
														<enabled>TRUE</enabled>
														<locked>FALSE</locked>
														<outputchannelindex>1</outputchannelindex>
													</track>
													<track TL.SQTrackAudioKeyframeStyle="0" TL.SQTrackShy="0" TL.SQTrackExpandedHeight="25" TL.SQTrackExpanded="0" MZ.TrackTargeted="1" PannerCurrentValue="0.5" PannerIsInverted="true" PannerStartKeyframe="-91445760000000000,0.5,0,0,0,0,0,0" PannerName="Balance" currentExplodedTrackIndex="1" totalExplodedTrackCount="2" premiereTrackType="Stereo">
														<clipitem id="clipitem-15" premiereChannelType="stereo">
															<masterclipid>masterclip-12</masterclipid>
															<name>Veaceslav Draganov - The Scents of Spring.wav</name>
															<enabled>TRUE</enabled>
															<duration>2312</duration>
															<rate>
																<timebase>25</timebase>
																<ntsc>FALSE</ntsc>
															</rate>
															<start>0</start>
															<end>391</end>
															<in>0</in>
															<out>391</out>
															<pproTicksIn>0</pproTicksIn>
															<pproTicksOut>3972810240000</pproTicksOut>
															<file id="file-9"/>
															<sourcetrack>
																<mediatype>audio</mediatype>
																<trackindex>2</trackindex>
															</sourcetrack>
															<link>
																<linkclipref>clipitem-14</linkclipref>
																<mediatype>audio</mediatype>
																<trackindex>1</trackindex>
																<clipindex>1</clipindex>
																<groupindex>1</groupindex>
															</link>
															<link>
																<linkclipref>clipitem-15</linkclipref>
																<mediatype>audio</mediatype>
																<trackindex>2</trackindex>
																<clipindex>1</clipindex>
																<groupindex>1</groupindex>
															</link>
															<logginginfo>
																<description></description>
																<scene></scene>
																<shottake></shottake>
																<lognote></lognote>
																<good></good>
																<originalvideofilename></originalvideofilename>
																<originalaudiofilename></originalaudiofilename>
															</logginginfo>
															<colorinfo>
																<lut></lut>
																<lut1></lut1>
																<asc_sop></asc_sop>
																<asc_sat></asc_sat>
																<lut2></lut2>
															</colorinfo>
															<labels>
																<label2>Violet</label2>
															</labels>
														</clipitem>
														<enabled>TRUE</enabled>
														<locked>FALSE</locked>
														<outputchannelindex>2</outputchannelindex>
													</track>
													<track TL.SQTrackAudioKeyframeStyle="0" TL.SQTrackShy="0" TL.SQTrackExpandedHeight="25" TL.SQTrackExpanded="0" MZ.TrackTargeted="1" PannerCurrentValue="0.5" PannerIsInverted="true" PannerStartKeyframe="-91445760000000000,0.5,0,0,0,0,0,0" PannerName="Balance" currentExplodedTrackIndex="0" totalExplodedTrackCount="2" premiereTrackType="Stereo">
														<enabled>TRUE</enabled>
														<locked>FALSE</locked>
														<outputchannelindex>1</outputchannelindex>
													</track>
													<track TL.SQTrackAudioKeyframeStyle="0" TL.SQTrackShy="0" TL.SQTrackExpandedHeight="25" TL.SQTrackExpanded="0" MZ.TrackTargeted="1" PannerCurrentValue="0.5" PannerIsInverted="true" PannerStartKeyframe="-91445760000000000,0.5,0,0,0,0,0,0" PannerName="Balance" currentExplodedTrackIndex="1" totalExplodedTrackCount="2" premiereTrackType="Stereo">
														<enabled>TRUE</enabled>
														<locked>FALSE</locked>
														<outputchannelindex>2</outputchannelindex>
													</track>
													<track TL.SQTrackAudioKeyframeStyle="0" TL.SQTrackShy="0" TL.SQTrackExpandedHeight="25" TL.SQTrackExpanded="0" MZ.TrackTargeted="1" PannerCurrentValue="0.5" PannerIsInverted="true" PannerStartKeyframe="-91445760000000000,0.5,0,0,0,0,0,0" PannerName="Balance" currentExplodedTrackIndex="0" totalExplodedTrackCount="2" premiereTrackType="Stereo">
														<enabled>TRUE</enabled>
														<locked>FALSE</locked>
														<outputchannelindex>1</outputchannelindex>
													</track>
													<track TL.SQTrackAudioKeyframeStyle="0" TL.SQTrackShy="0" TL.SQTrackExpandedHeight="25" TL.SQTrackExpanded="0" MZ.TrackTargeted="1" PannerCurrentValue="0.5" PannerIsInverted="true" PannerStartKeyframe="-91445760000000000,0.5,0,0,0,0,0,0" PannerName="Balance" currentExplodedTrackIndex="1" totalExplodedTrackCount="2" premiereTrackType="Stereo">
														<enabled>TRUE</enabled>
														<locked>FALSE</locked>
														<outputchannelindex>2</outputchannelindex>
													</track>
												</audio>
											</media>
											<timecode>
												<rate>
													<timebase>25</timebase>
													<ntsc>FALSE</ntsc>
												</rate>
												<string>00:00:00:00</string>
												<frame>0</frame>
												<displayformat>NDF</displayformat>
											</timecode>
											<logginginfo>
												<description></description>
												<scene></scene>
												<shottake></shottake>
												<lognote></lognote>
												<good></good>
												<originalvideofilename></originalvideofilename>
												<originalaudiofilename></originalaudiofilename>
											</logginginfo>
										</sequence>
										<link>
											<linkclipref>clipitem-11</linkclipref>
											<mediatype>video</mediatype>
											<trackindex>1</trackindex>
											<clipindex>3</clipindex>
										</link>
										<link>
											<linkclipref>clipitem-30</linkclipref>
											<mediatype>audio</mediatype>
											<trackindex>1</trackindex>
											<clipindex>3</clipindex>
											<groupindex>1</groupindex>
										</link>
										<link>
											<linkclipref>clipitem-33</linkclipref>
											<mediatype>audio</mediatype>
											<trackindex>2</trackindex>
											<clipindex>3</clipindex>
											<groupindex>1</groupindex>
										</link>
										<labels>
											<label2>Mango</label2>
										</labels>
									</clipitem>
									<enabled>TRUE</enabled>
									<locked>FALSE</locked>
								</track>
								<track TL.SQTrackShy="0" TL.SQTrackExpandedHeight="25" TL.SQTrackExpanded="0" MZ.TrackTargeted="0">
									<clipitem id="clipitem-16">
										<masterclipid>masterclip-13</masterclipid>
										<name>L3 7</name>
										<enabled>TRUE</enabled>
										<duration>1294705</duration>
										<rate>
											<timebase>30</timebase>
											<ntsc>TRUE</ntsc>
										</rate>
										<start>95</start>
										<end>1278</end>
										<in>107892</in>
										<out>109075</out>
										<pproTicksIn>914456685542400</pproTicksIn>
										<pproTicksOut>924483399840000</pproTicksOut>
										<alphatype>none</alphatype>
										<pixelaspectratio>square</pixelaspectratio>
										<anamorphic>FALSE</anamorphic>
										<file id="file-10">
											<name>Black Video</name>
											<mediaSource>Slug</mediaSource>
											<rate>
												<timebase>30</timebase>
												<ntsc>TRUE</ntsc>
											</rate>
											<timecode>
												<rate>
													<timebase>30</timebase>
													<ntsc>TRUE</ntsc>
												</rate>
												<string>00;00;00;00</string>
												<frame>0</frame>
												<displayformat>DF</displayformat>
											</timecode>
											<media>
												<video>
													<samplecharacteristics>
														<rate>
															<timebase>30</timebase>
															<ntsc>TRUE</ntsc>
														</rate>
														<width>1920</width>
														<height>1080</height>
														<anamorphic>FALSE</anamorphic>
														<pixelaspectratio>square</pixelaspectratio>
														<fielddominance>none</fielddominance>
													</samplecharacteristics>
												</video>
											</media>
										</file>
										<logginginfo>
											<description></description>
											<scene></scene>
											<shottake></shottake>
											<lognote></lognote>
											<good></good>
											<originalvideofilename></originalvideofilename>
											<originalaudiofilename></originalaudiofilename>
										</logginginfo>
										<colorinfo>
											<lut></lut>
											<lut1></lut1>
											<asc_sop></asc_sop>
											<asc_sat></asc_sat>
											<lut2></lut2>
										</colorinfo>
										<labels>
											<label2>Lavender</label2>
										</labels>
									</clipitem>
									<clipitem id="clipitem-17">
										<masterclipid>masterclip-14</masterclipid>
										<name>L3 8</name>
										<enabled>TRUE</enabled>
										<duration>1294705</duration>
										<rate>
											<timebase>30</timebase>
											<ntsc>TRUE</ntsc>
										</rate>
										<start>1343</start>
										<end>2274</end>
										<in>107892</in>
										<out>108823</out>
										<pproTicksIn>914456685542400</pproTicksIn>
										<pproTicksOut>922347531705600</pproTicksOut>
										<alphatype>none</alphatype>
										<pixelaspectratio>square</pixelaspectratio>
										<anamorphic>FALSE</anamorphic>
										<file id="file-11">
											<name>Black Video</name>
											<mediaSource>Slug</mediaSource>
											<rate>
												<timebase>30</timebase>
												<ntsc>TRUE</ntsc>
											</rate>
											<timecode>
												<rate>
													<timebase>30</timebase>
													<ntsc>TRUE</ntsc>
												</rate>
												<string>00;00;00;00</string>
												<frame>0</frame>
												<displayformat>DF</displayformat>
											</timecode>
											<media>
												<video>
													<samplecharacteristics>
														<rate>
															<timebase>30</timebase>
															<ntsc>TRUE</ntsc>
														</rate>
														<width>1920</width>
														<height>1080</height>
														<anamorphic>FALSE</anamorphic>
														<pixelaspectratio>square</pixelaspectratio>
														<fielddominance>none</fielddominance>
													</samplecharacteristics>
												</video>
											</media>
										</file>
										<logginginfo>
											<description></description>
											<scene></scene>
											<shottake></shottake>
											<lognote></lognote>
											<good></good>
											<originalvideofilename></originalvideofilename>
											<originalaudiofilename></originalaudiofilename>
										</logginginfo>
										<colorinfo>
											<lut></lut>
											<lut1></lut1>
											<asc_sop></asc_sop>
											<asc_sat></asc_sat>
											<lut2></lut2>
										</colorinfo>
										<labels>
											<label2>Lavender</label2>
										</labels>
									</clipitem>
									<clipitem id="clipitem-18">
										<masterclipid>masterclip-15</masterclipid>
										<name>L3 9</name>
										<enabled>TRUE</enabled>
										<duration>1294705</duration>
										<rate>
											<timebase>30</timebase>
											<ntsc>TRUE</ntsc>
										</rate>
										<start>2339</start>
										<end>2808</end>
										<in>107892</in>
										<out>108361</out>
										<pproTicksIn>914456685542400</pproTicksIn>
										<pproTicksOut>918431773459200</pproTicksOut>
										<alphatype>none</alphatype>
										<pixelaspectratio>square</pixelaspectratio>
										<anamorphic>FALSE</anamorphic>
										<file id="file-12">
											<name>Black Video</name>
											<mediaSource>Slug</mediaSource>
											<rate>
												<timebase>30</timebase>
												<ntsc>TRUE</ntsc>
											</rate>
											<timecode>
												<rate>
													<timebase>30</timebase>
													<ntsc>TRUE</ntsc>
												</rate>
												<string>00;00;00;00</string>
												<frame>0</frame>
												<displayformat>DF</displayformat>
											</timecode>
											<media>
												<video>
													<samplecharacteristics>
														<rate>
															<timebase>30</timebase>
															<ntsc>TRUE</ntsc>
														</rate>
														<width>1920</width>
														<height>1080</height>
														<anamorphic>FALSE</anamorphic>
														<pixelaspectratio>square</pixelaspectratio>
														<fielddominance>none</fielddominance>
													</samplecharacteristics>
												</video>
											</media>
										</file>
										<logginginfo>
											<description></description>
											<scene></scene>
											<shottake></shottake>
											<lognote></lognote>
											<good></good>
											<originalvideofilename></originalvideofilename>
											<originalaudiofilename></originalaudiofilename>
										</logginginfo>
										<colorinfo>
											<lut></lut>
											<lut1></lut1>
											<asc_sop></asc_sop>
											<asc_sat></asc_sat>
											<lut2></lut2>
										</colorinfo>
										<labels>
											<label2>Lavender</label2>
										</labels>
									</clipitem>
									<enabled>TRUE</enabled>
									<locked>FALSE</locked>
								</track>
								<track TL.SQTrackShy="0" TL.SQTrackExpandedHeight="25" TL.SQTrackExpanded="0" MZ.TrackTargeted="0">
									<clipitem id="clipitem-19">
										<masterclipid>masterclip-16</masterclipid>
										<name>ATM Bug (Right)</name>
										<enabled>TRUE</enabled>
										<duration>17982</duration>
										<rate>
											<timebase>30</timebase>
											<ntsc>TRUE</ntsc>
										</rate>
										<start>95</start>
										<end>2808</end>
										<in>0</in>
										<out>2713</out>
										<pproTicksIn>0</pproTicksIn>
										<pproTicksOut>22994485113600</pproTicksOut>
										<sequence id="sequence-5" TL.SQAudioVisibleBase="0" TL.SQVideoVisibleBase="0" TL.SQVisibleBaseTime="0" TL.SQAVDividerPosition="0.5" TL.SQHideShyTracks="0" TL.SQHeaderWidth="236" Monitor.ProgramZoomOut="152409447590400" Monitor.ProgramZoomIn="0" TL.SQTimePerPixel="0.52264756097560983" MZ.EditLine="0" MZ.Sequence.PreviewFrameSizeHeight="1080" MZ.Sequence.PreviewFrameSizeWidth="1920" MZ.Sequence.AudioTimeDisplayFormat="200" MZ.Sequence.PreviewRenderingClassID="1061109567" MZ.Sequence.PreviewRenderingPresetCodec="1634755443" MZ.Sequence.PreviewRenderingPresetPath="EncoderPresets/SequencePreview/795454d9-d3c2-429d-9474-923ab13b7018/QuickTime.epr" MZ.Sequence.PreviewUseMaxRenderQuality="false" MZ.Sequence.PreviewUseMaxBitDepth="false" MZ.Sequence.EditingModeGUID="795454d9-d3c2-429d-9474-923ab13b7018" MZ.Sequence.VideoTimeDisplayFormat="102" MZ.WorkOutPoint="1262872296000" MZ.WorkInPoint="0">
											<duration>17982</duration>
											<rate>
												<timebase>30</timebase>
												<ntsc>TRUE</ntsc>
											</rate>
											<name>ATM Bug (Right)</name>
											<media>
												<video>
													<format>
														<samplecharacteristics>
															<rate>
																<timebase>30</timebase>
																<ntsc>TRUE</ntsc>
															</rate>
															<codec>
																<name>Apple ProRes 422</name>
																<appspecificdata>
																	<appname>Final Cut Pro</appname>
																	<appmanufacturer>Apple Inc.</appmanufacturer>
																	<appversion>7.0</appversion>
																	<data>
																		<qtcodec>
																			<codecname>Apple ProRes 422</codecname>
																			<codectypename>Apple ProRes 422</codectypename>
																			<codectypecode>apcn</codectypecode>
																			<codecvendorcode>appl</codecvendorcode>
																			<spatialquality>1024</spatialquality>
																			<temporalquality>0</temporalquality>
																			<keyframerate>0</keyframerate>
																			<datarate>0</datarate>
																		</qtcodec>
																	</data>
																</appspecificdata>
															</codec>
															<width>1920</width>
															<height>1080</height>
															<anamorphic>FALSE</anamorphic>
															<pixelaspectratio>square</pixelaspectratio>
															<fielddominance>none</fielddominance>
															<colordepth>24</colordepth>
														</samplecharacteristics>
													</format>
													<track TL.SQTrackShy="0" TL.SQTrackExpandedHeight="25" TL.SQTrackExpanded="0" MZ.TrackTargeted="1">
														<clipitem id="clipitem-20">
															<masterclipid>masterclip-17</masterclipid>
															<name>ATM Bug (Right).png</name>
															<enabled>TRUE</enabled>
															<duration>1294705</duration>
															<rate>
																<timebase>30</timebase>
																<ntsc>TRUE</ntsc>
															</rate>
															<start>0</start>
															<end>17982</end>
															<in>107892</in>
															<out>125874</out>
															<pproTicksIn>914456685542400</pproTicksIn>
															<pproTicksOut>1066866133132800</pproTicksOut>
															<alphatype>straight</alphatype>
															<pixelaspectratio>square</pixelaspectratio>
															<anamorphic>FALSE</anamorphic>
															<file id="file-13">
																<name>ATM Bug (Right).png</name>
																<pathurl>file://localhost/Users/dalecampo/Desktop/Example%20XML%20Project/06_Assets/ATM%20Bug%20(Right).png</pathurl>
																<rate>
																	<timebase>30</timebase>
																	<ntsc>TRUE</ntsc>
																</rate>
																<timecode>
																	<rate>
																		<timebase>30</timebase>
																		<ntsc>TRUE</ntsc>
																	</rate>
																	<string>00:00:00:00</string>
																	<frame>0</frame>
																	<displayformat>NDF</displayformat>
																</timecode>
																<media>
																	<video>
																		<samplecharacteristics>
																			<rate>
																				<timebase>30</timebase>
																				<ntsc>TRUE</ntsc>
																			</rate>
																			<width>1920</width>
																			<height>1080</height>
																			<anamorphic>FALSE</anamorphic>
																			<pixelaspectratio>square</pixelaspectratio>
																			<fielddominance>none</fielddominance>
																		</samplecharacteristics>
																	</video>
																</media>
															</file>
															<logginginfo>
																<description></description>
																<scene></scene>
																<shottake></shottake>
																<lognote></lognote>
																<good></good>
																<originalvideofilename></originalvideofilename>
																<originalaudiofilename></originalaudiofilename>
															</logginginfo>
															<colorinfo>
																<lut></lut>
																<lut1></lut1>
																<asc_sop></asc_sop>
																<asc_sat></asc_sat>
																<lut2></lut2>
															</colorinfo>
															<labels>
																<label2>Purple</label2>
															</labels>
														</clipitem>
														<enabled>TRUE</enabled>
														<locked>FALSE</locked>
													</track>
													<track TL.SQTrackShy="0" TL.SQTrackExpandedHeight="25" TL.SQTrackExpanded="0" MZ.TrackTargeted="0">
														<enabled>TRUE</enabled>
														<locked>FALSE</locked>
													</track>
													<track TL.SQTrackShy="0" TL.SQTrackExpandedHeight="25" TL.SQTrackExpanded="0" MZ.TrackTargeted="0">
														<enabled>TRUE</enabled>
														<locked>FALSE</locked>
													</track>
												</video>
												<audio>
													<numOutputChannels>2</numOutputChannels>
													<format>
														<samplecharacteristics>
															<depth>16</depth>
															<samplerate>48000</samplerate>
														</samplecharacteristics>
													</format>
													<outputs>
														<group>
															<index>1</index>
															<numchannels>1</numchannels>
															<downmix>0</downmix>
															<channel>
																<index>1</index>
															</channel>
														</group>
														<group>
															<index>2</index>
															<numchannels>1</numchannels>
															<downmix>0</downmix>
															<channel>
																<index>2</index>
															</channel>
														</group>
													</outputs>
													<track TL.SQTrackAudioKeyframeStyle="0" TL.SQTrackShy="0" TL.SQTrackExpandedHeight="25" TL.SQTrackExpanded="0" MZ.TrackTargeted="1" PannerCurrentValue="0.5" PannerIsInverted="true" PannerStartKeyframe="-91445760000000000,0.5,0,0,0,0,0,0" PannerName="Balance" currentExplodedTrackIndex="0" totalExplodedTrackCount="2" premiereTrackType="Stereo">
														<enabled>TRUE</enabled>
														<locked>FALSE</locked>
														<outputchannelindex>1</outputchannelindex>
													</track>
													<track TL.SQTrackAudioKeyframeStyle="0" TL.SQTrackShy="0" TL.SQTrackExpandedHeight="25" TL.SQTrackExpanded="0" MZ.TrackTargeted="1" PannerCurrentValue="0.5" PannerIsInverted="true" PannerStartKeyframe="-91445760000000000,0.5,0,0,0,0,0,0" PannerName="Balance" currentExplodedTrackIndex="1" totalExplodedTrackCount="2" premiereTrackType="Stereo">
														<enabled>TRUE</enabled>
														<locked>FALSE</locked>
														<outputchannelindex>2</outputchannelindex>
													</track>
													<track TL.SQTrackAudioKeyframeStyle="0" TL.SQTrackShy="0" TL.SQTrackExpandedHeight="25" TL.SQTrackExpanded="0" MZ.TrackTargeted="1" PannerCurrentValue="0.5" PannerIsInverted="true" PannerStartKeyframe="-91445760000000000,0.5,0,0,0,0,0,0" PannerName="Balance" currentExplodedTrackIndex="0" totalExplodedTrackCount="2" premiereTrackType="Stereo">
														<enabled>TRUE</enabled>
														<locked>FALSE</locked>
														<outputchannelindex>1</outputchannelindex>
													</track>
													<track TL.SQTrackAudioKeyframeStyle="0" TL.SQTrackShy="0" TL.SQTrackExpandedHeight="25" TL.SQTrackExpanded="0" MZ.TrackTargeted="1" PannerCurrentValue="0.5" PannerIsInverted="true" PannerStartKeyframe="-91445760000000000,0.5,0,0,0,0,0,0" PannerName="Balance" currentExplodedTrackIndex="1" totalExplodedTrackCount="2" premiereTrackType="Stereo">
														<enabled>TRUE</enabled>
														<locked>FALSE</locked>
														<outputchannelindex>2</outputchannelindex>
													</track>
													<track TL.SQTrackAudioKeyframeStyle="0" TL.SQTrackShy="0" TL.SQTrackExpandedHeight="25" TL.SQTrackExpanded="0" MZ.TrackTargeted="1" PannerCurrentValue="0.5" PannerIsInverted="true" PannerStartKeyframe="-91445760000000000,0.5,0,0,0,0,0,0" PannerName="Balance" currentExplodedTrackIndex="0" totalExplodedTrackCount="2" premiereTrackType="Stereo">
														<enabled>TRUE</enabled>
														<locked>FALSE</locked>
														<outputchannelindex>1</outputchannelindex>
													</track>
													<track TL.SQTrackAudioKeyframeStyle="0" TL.SQTrackShy="0" TL.SQTrackExpandedHeight="25" TL.SQTrackExpanded="0" MZ.TrackTargeted="1" PannerCurrentValue="0.5" PannerIsInverted="true" PannerStartKeyframe="-91445760000000000,0.5,0,0,0,0,0,0" PannerName="Balance" currentExplodedTrackIndex="1" totalExplodedTrackCount="2" premiereTrackType="Stereo">
														<enabled>TRUE</enabled>
														<locked>FALSE</locked>
														<outputchannelindex>2</outputchannelindex>
													</track>
												</audio>
											</media>
											<timecode>
												<rate>
													<timebase>30</timebase>
													<ntsc>TRUE</ntsc>
												</rate>
												<string>00;00;00;00</string>
												<frame>0</frame>
												<displayformat>DF</displayformat>
											</timecode>
											<logginginfo>
												<description></description>
												<scene></scene>
												<shottake></shottake>
												<lognote></lognote>
												<good></good>
												<originalvideofilename></originalvideofilename>
												<originalaudiofilename></originalaudiofilename>
											</logginginfo>
										</sequence>
										<labels>
											<label2>Green</label2>
										</labels>
									</clipitem>
									<enabled>TRUE</enabled>
									<locked>FALSE</locked>
								</track>
								<track TL.SQTrackShy="0" TL.SQTrackExpandedHeight="25" TL.SQTrackExpanded="0" MZ.TrackTargeted="0">
									<clipitem id="clipitem-21">
										<masterclipid>masterclip-18</masterclipid>
										<name>Transition</name>
										<enabled>TRUE</enabled>
										<duration>1559</duration>
										<rate>
											<timebase>30</timebase>
											<ntsc>TRUE</ntsc>
										</rate>
										<start>0</start>
										<end>120</end>
										<in>0</in>
										<out>120</out>
										<pproTicksIn>0</pproTicksIn>
										<pproTicksOut>1017080064000</pproTicksOut>
										<sequence id="sequence-6" TL.SQAudioVisibleBase="0" TL.SQVideoVisibleBase="0" TL.SQVisibleBaseTime="0" TL.SQAVDividerPosition="0.5" TL.SQHideShyTracks="0" TL.SQHeaderWidth="236" Monitor.ProgramZoomOut="1024531200000" Monitor.ProgramZoomIn="0" TL.SQTimePerPixel="0.00351335656213705" MZ.EditLine="0" MZ.Sequence.PreviewFrameSizeHeight="1080" MZ.Sequence.PreviewFrameSizeWidth="1920" MZ.Sequence.AudioTimeDisplayFormat="200" MZ.Sequence.PreviewRenderingClassID="1061109567" MZ.Sequence.PreviewRenderingPresetCodec="1634755443" MZ.Sequence.PreviewRenderingPresetPath="EncoderPresets/SequencePreview/795454d9-d3c2-429d-9474-923ab13b7018/QuickTime.epr" MZ.Sequence.PreviewUseMaxRenderQuality="false" MZ.Sequence.PreviewUseMaxBitDepth="false" MZ.Sequence.EditingModeGUID="795454d9-d3c2-429d-9474-923ab13b7018" MZ.Sequence.VideoTimeDisplayFormat="104" MZ.WorkOutPoint="1024531200000" MZ.WorkInPoint="0">
											<duration>121</duration>
											<rate>
												<timebase>30</timebase>
												<ntsc>FALSE</ntsc>
											</rate>
											<name>Transition</name>
											<media>
												<video>
													<format>
														<samplecharacteristics>
															<rate>
																<timebase>30</timebase>
																<ntsc>FALSE</ntsc>
															</rate>
															<codec>
																<name>Apple ProRes 422</name>
																<appspecificdata>
																	<appname>Final Cut Pro</appname>
																	<appmanufacturer>Apple Inc.</appmanufacturer>
																	<appversion>7.0</appversion>
																	<data>
																		<qtcodec>
																			<codecname>Apple ProRes 422</codecname>
																			<codectypename>Apple ProRes 422</codectypename>
																			<codectypecode>apcn</codectypecode>
																			<codecvendorcode>appl</codecvendorcode>
																			<spatialquality>1024</spatialquality>
																			<temporalquality>0</temporalquality>
																			<keyframerate>0</keyframerate>
																			<datarate>0</datarate>
																		</qtcodec>
																	</data>
																</appspecificdata>
															</codec>
															<width>1920</width>
															<height>1080</height>
															<anamorphic>FALSE</anamorphic>
															<pixelaspectratio>square</pixelaspectratio>
															<fielddominance>none</fielddominance>
															<colordepth>24</colordepth>
														</samplecharacteristics>
													</format>
													<track TL.SQTrackShy="0" TL.SQTrackExpandedHeight="25" TL.SQTrackExpanded="0" MZ.TrackTargeted="1">
														<clipitem id="clipitem-22">
															<masterclipid>masterclip-19</masterclipid>
															<name>Transition.mov</name>
															<enabled>TRUE</enabled>
															<duration>121</duration>
															<rate>
																<timebase>30</timebase>
																<ntsc>FALSE</ntsc>
															</rate>
															<start>0</start>
															<end>121</end>
															<in>0</in>
															<out>121</out>
															<pproTicksIn>0</pproTicksIn>
															<pproTicksOut>1024531200000</pproTicksOut>
															<alphatype>none</alphatype>
															<pixelaspectratio>square</pixelaspectratio>
															<anamorphic>FALSE</anamorphic>
															<file id="file-14">
																<name>Transition.mov</name>
																<pathurl>file://localhost/Volumes/Macintosh%20HD/Users/dalecampo/Desktop/Example%20XML%20Project/06_Assets/Transition.mov</pathurl>
																<rate>
																	<timebase>30</timebase>
																	<ntsc>FALSE</ntsc>
																</rate>
																<duration>121</duration>
																<timecode>
																	<rate>
																		<timebase>30</timebase>
																		<ntsc>FALSE</ntsc>
																	</rate>
																	<string>00:00:00:00</string>
																	<frame>0</frame>
																	<displayformat>NDF</displayformat>
																</timecode>
																<media>
																	<video>
																		<samplecharacteristics>
																			<rate>
																				<timebase>30</timebase>
																				<ntsc>FALSE</ntsc>
																			</rate>
																			<width>1920</width>
																			<height>1080</height>
																			<anamorphic>FALSE</anamorphic>
																			<pixelaspectratio>square</pixelaspectratio>
																			<fielddominance>none</fielddominance>
																		</samplecharacteristics>
																	</video>
																	<audio>
																		<samplecharacteristics>
																			<depth>16</depth>
																			<samplerate>48000</samplerate>
																		</samplecharacteristics>
																		<channelcount>2</channelcount>
																	</audio>
																</media>
															</file>
															<link>
																<linkclipref>clipitem-22</linkclipref>
																<mediatype>video</mediatype>
																<trackindex>1</trackindex>
																<clipindex>1</clipindex>
															</link>
															<link>
																<linkclipref>clipitem-23</linkclipref>
																<mediatype>audio</mediatype>
																<trackindex>1</trackindex>
																<clipindex>1</clipindex>
																<groupindex>1</groupindex>
															</link>
															<link>
																<linkclipref>clipitem-24</linkclipref>
																<mediatype>audio</mediatype>
																<trackindex>2</trackindex>
																<clipindex>1</clipindex>
																<groupindex>1</groupindex>
															</link>
															<logginginfo>
																<description></description>
																<scene></scene>
																<shottake></shottake>
																<lognote></lognote>
																<good></good>
																<originalvideofilename></originalvideofilename>
																<originalaudiofilename></originalaudiofilename>
															</logginginfo>
															<colorinfo>
																<lut></lut>
																<lut1></lut1>
																<asc_sop></asc_sop>
																<asc_sat></asc_sat>
																<lut2></lut2>
															</colorinfo>
															<labels>
																<label2>Violet</label2>
															</labels>
														</clipitem>
														<enabled>TRUE</enabled>
														<locked>FALSE</locked>
													</track>
													<track TL.SQTrackShy="0" TL.SQTrackExpandedHeight="25" TL.SQTrackExpanded="0" MZ.TrackTargeted="0">
														<enabled>TRUE</enabled>
														<locked>FALSE</locked>
													</track>
													<track TL.SQTrackShy="0" TL.SQTrackExpandedHeight="25" TL.SQTrackExpanded="0" MZ.TrackTargeted="0">
														<enabled>TRUE</enabled>
														<locked>FALSE</locked>
													</track>
												</video>
												<audio>
													<numOutputChannels>2</numOutputChannels>
													<format>
														<samplecharacteristics>
															<depth>16</depth>
															<samplerate>48000</samplerate>
														</samplecharacteristics>
													</format>
													<outputs>
														<group>
															<index>1</index>
															<numchannels>1</numchannels>
															<downmix>0</downmix>
															<channel>
																<index>1</index>
															</channel>
														</group>
														<group>
															<index>2</index>
															<numchannels>1</numchannels>
															<downmix>0</downmix>
															<channel>
																<index>2</index>
															</channel>
														</group>
													</outputs>
													<track TL.SQTrackAudioKeyframeStyle="0" TL.SQTrackShy="0" TL.SQTrackExpandedHeight="25" TL.SQTrackExpanded="0" MZ.TrackTargeted="1" PannerCurrentValue="0.5" PannerIsInverted="true" PannerStartKeyframe="-91445760000000000,0.5,0,0,0,0,0,0" PannerName="Balance" currentExplodedTrackIndex="0" totalExplodedTrackCount="2" premiereTrackType="Stereo">
														<clipitem id="clipitem-23" premiereChannelType="stereo">
															<masterclipid>masterclip-19</masterclipid>
															<name>Transition.mov</name>
															<enabled>TRUE</enabled>
															<duration>121</duration>
															<rate>
																<timebase>30</timebase>
																<ntsc>FALSE</ntsc>
															</rate>
															<start>0</start>
															<end>121</end>
															<in>0</in>
															<out>121</out>
															<pproTicksIn>0</pproTicksIn>
															<pproTicksOut>1024531200000</pproTicksOut>
															<file id="file-14"/>
															<sourcetrack>
																<mediatype>audio</mediatype>
																<trackindex>1</trackindex>
															</sourcetrack>
															<link>
																<linkclipref>clipitem-22</linkclipref>
																<mediatype>video</mediatype>
																<trackindex>1</trackindex>
																<clipindex>1</clipindex>
															</link>
															<link>
																<linkclipref>clipitem-23</linkclipref>
																<mediatype>audio</mediatype>
																<trackindex>1</trackindex>
																<clipindex>1</clipindex>
																<groupindex>1</groupindex>
															</link>
															<link>
																<linkclipref>clipitem-24</linkclipref>
																<mediatype>audio</mediatype>
																<trackindex>2</trackindex>
																<clipindex>1</clipindex>
																<groupindex>1</groupindex>
															</link>
															<logginginfo>
																<description></description>
																<scene></scene>
																<shottake></shottake>
																<lognote></lognote>
																<good></good>
																<originalvideofilename></originalvideofilename>
																<originalaudiofilename></originalaudiofilename>
															</logginginfo>
															<colorinfo>
																<lut></lut>
																<lut1></lut1>
																<asc_sop></asc_sop>
																<asc_sat></asc_sat>
																<lut2></lut2>
															</colorinfo>
															<labels>
																<label2>Violet</label2>
															</labels>
														</clipitem>
														<enabled>TRUE</enabled>
														<locked>FALSE</locked>
														<outputchannelindex>1</outputchannelindex>
													</track>
													<track TL.SQTrackAudioKeyframeStyle="0" TL.SQTrackShy="0" TL.SQTrackExpandedHeight="25" TL.SQTrackExpanded="0" MZ.TrackTargeted="1" PannerCurrentValue="0.5" PannerIsInverted="true" PannerStartKeyframe="-91445760000000000,0.5,0,0,0,0,0,0" PannerName="Balance" currentExplodedTrackIndex="1" totalExplodedTrackCount="2" premiereTrackType="Stereo">
														<clipitem id="clipitem-24" premiereChannelType="stereo">
															<masterclipid>masterclip-19</masterclipid>
															<name>Transition.mov</name>
															<enabled>TRUE</enabled>
															<duration>121</duration>
															<rate>
																<timebase>30</timebase>
																<ntsc>FALSE</ntsc>
															</rate>
															<start>0</start>
															<end>121</end>
															<in>0</in>
															<out>121</out>
															<pproTicksIn>0</pproTicksIn>
															<pproTicksOut>1024531200000</pproTicksOut>
															<file id="file-14"/>
															<sourcetrack>
																<mediatype>audio</mediatype>
																<trackindex>2</trackindex>
															</sourcetrack>
															<link>
																<linkclipref>clipitem-22</linkclipref>
																<mediatype>video</mediatype>
																<trackindex>1</trackindex>
																<clipindex>1</clipindex>
															</link>
															<link>
																<linkclipref>clipitem-23</linkclipref>
																<mediatype>audio</mediatype>
																<trackindex>1</trackindex>
																<clipindex>1</clipindex>
																<groupindex>1</groupindex>
															</link>
															<link>
																<linkclipref>clipitem-24</linkclipref>
																<mediatype>audio</mediatype>
																<trackindex>2</trackindex>
																<clipindex>1</clipindex>
																<groupindex>1</groupindex>
															</link>
															<logginginfo>
																<description></description>
																<scene></scene>
																<shottake></shottake>
																<lognote></lognote>
																<good></good>
																<originalvideofilename></originalvideofilename>
																<originalaudiofilename></originalaudiofilename>
															</logginginfo>
															<colorinfo>
																<lut></lut>
																<lut1></lut1>
																<asc_sop></asc_sop>
																<asc_sat></asc_sat>
																<lut2></lut2>
															</colorinfo>
															<labels>
																<label2>Violet</label2>
															</labels>
														</clipitem>
														<enabled>TRUE</enabled>
														<locked>FALSE</locked>
														<outputchannelindex>2</outputchannelindex>
													</track>
													<track TL.SQTrackAudioKeyframeStyle="0" TL.SQTrackShy="0" TL.SQTrackExpandedHeight="25" TL.SQTrackExpanded="0" MZ.TrackTargeted="1" PannerCurrentValue="0.5" PannerIsInverted="true" PannerStartKeyframe="-91445760000000000,0.5,0,0,0,0,0,0" PannerName="Balance" currentExplodedTrackIndex="0" totalExplodedTrackCount="2" premiereTrackType="Stereo">
														<enabled>TRUE</enabled>
														<locked>FALSE</locked>
														<outputchannelindex>1</outputchannelindex>
													</track>
													<track TL.SQTrackAudioKeyframeStyle="0" TL.SQTrackShy="0" TL.SQTrackExpandedHeight="25" TL.SQTrackExpanded="0" MZ.TrackTargeted="1" PannerCurrentValue="0.5" PannerIsInverted="true" PannerStartKeyframe="-91445760000000000,0.5,0,0,0,0,0,0" PannerName="Balance" currentExplodedTrackIndex="1" totalExplodedTrackCount="2" premiereTrackType="Stereo">
														<enabled>TRUE</enabled>
														<locked>FALSE</locked>
														<outputchannelindex>2</outputchannelindex>
													</track>
													<track TL.SQTrackAudioKeyframeStyle="0" TL.SQTrackShy="0" TL.SQTrackExpandedHeight="25" TL.SQTrackExpanded="0" MZ.TrackTargeted="1" PannerCurrentValue="0.5" PannerIsInverted="true" PannerStartKeyframe="-91445760000000000,0.5,0,0,0,0,0,0" PannerName="Balance" currentExplodedTrackIndex="0" totalExplodedTrackCount="2" premiereTrackType="Stereo">
														<enabled>TRUE</enabled>
														<locked>FALSE</locked>
														<outputchannelindex>1</outputchannelindex>
													</track>
													<track TL.SQTrackAudioKeyframeStyle="0" TL.SQTrackShy="0" TL.SQTrackExpandedHeight="25" TL.SQTrackExpanded="0" MZ.TrackTargeted="1" PannerCurrentValue="0.5" PannerIsInverted="true" PannerStartKeyframe="-91445760000000000,0.5,0,0,0,0,0,0" PannerName="Balance" currentExplodedTrackIndex="1" totalExplodedTrackCount="2" premiereTrackType="Stereo">
														<enabled>TRUE</enabled>
														<locked>FALSE</locked>
														<outputchannelindex>2</outputchannelindex>
													</track>
												</audio>
											</media>
											<timecode>
												<rate>
													<timebase>30</timebase>
													<ntsc>FALSE</ntsc>
												</rate>
												<string>00:00:00:00</string>
												<frame>0</frame>
												<displayformat>NDF</displayformat>
											</timecode>
												<marker>
													<comment></comment>
													<name></name>
													<in>96</in>
													<out>-1</out>
												</marker>
												<marker>
													<comment></comment>
													<name></name>
													<in>31</in>
													<out>-1</out>
												</marker>
											<logginginfo>
												<description></description>
												<scene></scene>
												<shottake></shottake>
												<lognote></lognote>
												<good></good>
												<originalvideofilename></originalvideofilename>
												<originalaudiofilename></originalaudiofilename>
											</logginginfo>
										</sequence>
											<marker>
												<comment></comment>
												<name></name>
												<in>95</in>
												<out>-1</out>
											</marker>
											<marker>
												<comment></comment>
												<name></name>
												<in>30</in>
												<out>-1</out>
											</marker>
										<link>
											<linkclipref>clipitem-21</linkclipref>
											<mediatype>video</mediatype>
											<trackindex>4</trackindex>
											<clipindex>1</clipindex>
										</link>
										<link>
											<linkclipref>clipitem-34</linkclipref>
											<mediatype>audio</mediatype>
											<trackindex>3</trackindex>
											<clipindex>1</clipindex>
											<groupindex>1</groupindex>
										</link>
										<link>
											<linkclipref>clipitem-38</linkclipref>
											<mediatype>audio</mediatype>
											<trackindex>4</trackindex>
											<clipindex>1</clipindex>
											<groupindex>1</groupindex>
										</link>
										<labels>
											<label2>Forest</label2>
										</labels>
									</clipitem>
									<clipitem id="clipitem-25">
										<masterclipid>masterclip-18</masterclipid>
										<name>Transition</name>
										<enabled>TRUE</enabled>
										<duration>1559</duration>
										<rate>
											<timebase>30</timebase>
											<ntsc>TRUE</ntsc>
										</rate>
										<start>1248</start>
										<end>1368</end>
										<in>0</in>
										<out>120</out>
										<pproTicksIn>0</pproTicksIn>
										<pproTicksOut>1017080064000</pproTicksOut>
										<sequence id="sequence-6"/>
											<marker>
												<comment></comment>
												<name></name>
												<in>95</in>
												<out>-1</out>
											</marker>
											<marker>
												<comment></comment>
												<name></name>
												<in>30</in>
												<out>-1</out>
											</marker>
										<link>
											<linkclipref>clipitem-25</linkclipref>
											<mediatype>video</mediatype>
											<trackindex>4</trackindex>
											<clipindex>2</clipindex>
										</link>
										<link>
											<linkclipref>clipitem-35</linkclipref>
											<mediatype>audio</mediatype>
											<trackindex>3</trackindex>
											<clipindex>2</clipindex>
											<groupindex>1</groupindex>
										</link>
										<link>
											<linkclipref>clipitem-39</linkclipref>
											<mediatype>audio</mediatype>
											<trackindex>4</trackindex>
											<clipindex>2</clipindex>
											<groupindex>1</groupindex>
										</link>
										<labels>
											<label2>Forest</label2>
										</labels>
									</clipitem>
									<clipitem id="clipitem-26">
										<masterclipid>masterclip-18</masterclipid>
										<name>Transition</name>
										<enabled>TRUE</enabled>
										<duration>1559</duration>
										<rate>
											<timebase>30</timebase>
											<ntsc>TRUE</ntsc>
										</rate>
										<start>2244</start>
										<end>2364</end>
										<in>0</in>
										<out>120</out>
										<pproTicksIn>0</pproTicksIn>
										<pproTicksOut>1017080064000</pproTicksOut>
										<sequence id="sequence-6"/>
											<marker>
												<comment></comment>
												<name></name>
												<in>95</in>
												<out>-1</out>
											</marker>
											<marker>
												<comment></comment>
												<name></name>
												<in>30</in>
												<out>-1</out>
											</marker>
										<link>
											<linkclipref>clipitem-26</linkclipref>
											<mediatype>video</mediatype>
											<trackindex>4</trackindex>
											<clipindex>3</clipindex>
										</link>
										<link>
											<linkclipref>clipitem-36</linkclipref>
											<mediatype>audio</mediatype>
											<trackindex>3</trackindex>
											<clipindex>3</clipindex>
											<groupindex>1</groupindex>
										</link>
										<link>
											<linkclipref>clipitem-40</linkclipref>
											<mediatype>audio</mediatype>
											<trackindex>4</trackindex>
											<clipindex>3</clipindex>
											<groupindex>1</groupindex>
										</link>
										<labels>
											<label2>Forest</label2>
										</labels>
									</clipitem>
									<clipitem id="clipitem-27">
										<masterclipid>masterclip-18</masterclipid>
										<name>Transition</name>
										<enabled>TRUE</enabled>
										<duration>1559</duration>
										<rate>
											<timebase>30</timebase>
											<ntsc>TRUE</ntsc>
										</rate>
										<start>2778</start>
										<end>2898</end>
										<in>0</in>
										<out>120</out>
										<pproTicksIn>0</pproTicksIn>
										<pproTicksOut>1017080064000</pproTicksOut>
										<sequence id="sequence-6"/>
											<marker>
												<comment></comment>
												<name></name>
												<in>95</in>
												<out>-1</out>
											</marker>
											<marker>
												<comment></comment>
												<name></name>
												<in>30</in>
												<out>-1</out>
											</marker>
										<link>
											<linkclipref>clipitem-27</linkclipref>
											<mediatype>video</mediatype>
											<trackindex>4</trackindex>
											<clipindex>4</clipindex>
										</link>
										<link>
											<linkclipref>clipitem-37</linkclipref>
											<mediatype>audio</mediatype>
											<trackindex>3</trackindex>
											<clipindex>4</clipindex>
											<groupindex>1</groupindex>
										</link>
										<link>
											<linkclipref>clipitem-41</linkclipref>
											<mediatype>audio</mediatype>
											<trackindex>4</trackindex>
											<clipindex>4</clipindex>
											<groupindex>1</groupindex>
										</link>
										<labels>
											<label2>Forest</label2>
										</labels>
									</clipitem>
									<enabled>TRUE</enabled>
									<locked>FALSE</locked>
								</track>
								<track TL.SQTrackShy="0" TL.SQTrackExpandedHeight="25" TL.SQTrackExpanded="0" MZ.TrackTargeted="0">
									<enabled>TRUE</enabled>
									<locked>FALSE</locked>
								</track>
							</video>
							<audio>
								<numOutputChannels>2</numOutputChannels>
								<format>
									<samplecharacteristics>
										<depth>16</depth>
										<samplerate>48000</samplerate>
									</samplecharacteristics>
								</format>
								<outputs>
									<group>
										<index>1</index>
										<numchannels>1</numchannels>
										<downmix>0</downmix>
										<channel>
											<index>1</index>
										</channel>
									</group>
									<group>
										<index>2</index>
										<numchannels>1</numchannels>
										<downmix>0</downmix>
										<channel>
											<index>2</index>
										</channel>
									</group>
								</outputs>
								<track TL.SQTrackAudioKeyframeStyle="0" TL.SQTrackShy="0" TL.SQTrackExpandedHeight="25" TL.SQTrackExpanded="0" MZ.TrackTargeted="1" PannerCurrentValue="0.5" PannerIsInverted="true" PannerStartKeyframe="-91445760000000000,0.5,0,0,0,0,0,0" PannerName="Balance" currentExplodedTrackIndex="0" totalExplodedTrackCount="2" premiereTrackType="Stereo">
									<clipitem id="clipitem-28" premiereChannelType="stereo">
										<masterclipid>masterclip-1</masterclipid>
										<name>Comp 7 - A1</name>
										<enabled>TRUE</enabled>
										<duration>6606</duration>
										<rate>
											<timebase>30</timebase>
											<ntsc>TRUE</ntsc>
										</rate>
										<start>95</start>
										<end>1278</end>
										<in>0</in>
										<out>1183</out>
										<pproTicksIn>0</pproTicksIn>
										<pproTicksOut>10026714297600</pproTicksOut>
										<sequence id="sequence-2"/>
										<sourcetrack>
											<mediatype>audio</mediatype>
											<trackindex>0</trackindex>
										</sourcetrack>
										<link>
											<linkclipref>clipitem-1</linkclipref>
											<mediatype>video</mediatype>
											<trackindex>1</trackindex>
											<clipindex>1</clipindex>
										</link>
										<link>
											<linkclipref>clipitem-28</linkclipref>
											<mediatype>audio</mediatype>
											<trackindex>1</trackindex>
											<clipindex>1</clipindex>
											<groupindex>1</groupindex>
										</link>
										<link>
											<linkclipref>clipitem-31</linkclipref>
											<mediatype>audio</mediatype>
											<trackindex>2</trackindex>
											<clipindex>1</clipindex>
											<groupindex>1</groupindex>
										</link>
										<labels>
											<label2>Blue</label2>
										</labels>
									</clipitem>
									<clipitem id="clipitem-29" premiereChannelType="stereo">
										<masterclipid>masterclip-5</masterclipid>
										<name>Comp 8 - A2</name>
										<enabled>TRUE</enabled>
										<duration>6053</duration>
										<rate>
											<timebase>30</timebase>
											<ntsc>TRUE</ntsc>
										</rate>
										<start>1343</start>
										<end>2274</end>
										<in>0</in>
										<out>931</out>
										<pproTicksIn>0</pproTicksIn>
										<pproTicksOut>7890846163200</pproTicksOut>
										<sequence id="sequence-3"/>
										<sourcetrack>
											<mediatype>audio</mediatype>
											<trackindex>0</trackindex>
										</sourcetrack>
										<link>
											<linkclipref>clipitem-6</linkclipref>
											<mediatype>video</mediatype>
											<trackindex>1</trackindex>
											<clipindex>2</clipindex>
										</link>
										<link>
											<linkclipref>clipitem-29</linkclipref>
											<mediatype>audio</mediatype>
											<trackindex>1</trackindex>
											<clipindex>2</clipindex>
											<groupindex>1</groupindex>
										</link>
										<link>
											<linkclipref>clipitem-32</linkclipref>
											<mediatype>audio</mediatype>
											<trackindex>2</trackindex>
											<clipindex>2</clipindex>
											<groupindex>1</groupindex>
										</link>
										<labels>
											<label2>Purple</label2>
										</labels>
									</clipitem>
									<clipitem id="clipitem-30" premiereChannelType="stereo">
										<masterclipid>masterclip-9</masterclipid>
										<name>Comp 9 - A3</name>
										<enabled>TRUE</enabled>
										<duration>2771</duration>
										<rate>
											<timebase>30</timebase>
											<ntsc>TRUE</ntsc>
										</rate>
										<start>2339</start>
										<end>2808</end>
										<in>0</in>
										<out>469</out>
										<pproTicksIn>0</pproTicksIn>
										<pproTicksOut>3975087916800</pproTicksOut>
										<sequence id="sequence-4"/>
										<sourcetrack>
											<mediatype>audio</mediatype>
											<trackindex>0</trackindex>
										</sourcetrack>
										<link>
											<linkclipref>clipitem-11</linkclipref>
											<mediatype>video</mediatype>
											<trackindex>1</trackindex>
											<clipindex>3</clipindex>
										</link>
										<link>
											<linkclipref>clipitem-30</linkclipref>
											<mediatype>audio</mediatype>
											<trackindex>1</trackindex>
											<clipindex>3</clipindex>
											<groupindex>1</groupindex>
										</link>
										<link>
											<linkclipref>clipitem-33</linkclipref>
											<mediatype>audio</mediatype>
											<trackindex>2</trackindex>
											<clipindex>3</clipindex>
											<groupindex>1</groupindex>
										</link>
										<labels>
											<label2>Mango</label2>
										</labels>
									</clipitem>
									<enabled>TRUE</enabled>
									<locked>FALSE</locked>
									<outputchannelindex>1</outputchannelindex>
								</track>
								<track TL.SQTrackAudioKeyframeStyle="0" TL.SQTrackShy="0" TL.SQTrackExpandedHeight="25" TL.SQTrackExpanded="0" MZ.TrackTargeted="1" PannerCurrentValue="0.5" PannerIsInverted="true" PannerStartKeyframe="-91445760000000000,0.5,0,0,0,0,0,0" PannerName="Balance" currentExplodedTrackIndex="1" totalExplodedTrackCount="2" premiereTrackType="Stereo">
									<clipitem id="clipitem-31" premiereChannelType="stereo">
										<masterclipid>masterclip-1</masterclipid>
										<name>Comp 7 - A1</name>
										<enabled>TRUE</enabled>
										<duration>6606</duration>
										<rate>
											<timebase>30</timebase>
											<ntsc>TRUE</ntsc>
										</rate>
										<start>95</start>
										<end>1278</end>
										<in>0</in>
										<out>1183</out>
										<pproTicksIn>0</pproTicksIn>
										<pproTicksOut>10026714297600</pproTicksOut>
										<sequence id="sequence-2"/>
										<sourcetrack>
											<mediatype>audio</mediatype>
											<trackindex>1</trackindex>
										</sourcetrack>
										<link>
											<linkclipref>clipitem-1</linkclipref>
											<mediatype>video</mediatype>
											<trackindex>1</trackindex>
											<clipindex>1</clipindex>
										</link>
										<link>
											<linkclipref>clipitem-28</linkclipref>
											<mediatype>audio</mediatype>
											<trackindex>1</trackindex>
											<clipindex>1</clipindex>
											<groupindex>1</groupindex>
										</link>
										<link>
											<linkclipref>clipitem-31</linkclipref>
											<mediatype>audio</mediatype>
											<trackindex>2</trackindex>
											<clipindex>1</clipindex>
											<groupindex>1</groupindex>
										</link>
										<labels>
											<label2>Blue</label2>
										</labels>
									</clipitem>
									<clipitem id="clipitem-32" premiereChannelType="stereo">
										<masterclipid>masterclip-5</masterclipid>
										<name>Comp 8 - A2</name>
										<enabled>TRUE</enabled>
										<duration>6053</duration>
										<rate>
											<timebase>30</timebase>
											<ntsc>TRUE</ntsc>
										</rate>
										<start>1343</start>
										<end>2274</end>
										<in>0</in>
										<out>931</out>
										<pproTicksIn>0</pproTicksIn>
										<pproTicksOut>7890846163200</pproTicksOut>
										<sequence id="sequence-3"/>
										<sourcetrack>
											<mediatype>audio</mediatype>
											<trackindex>1</trackindex>
										</sourcetrack>
										<link>
											<linkclipref>clipitem-6</linkclipref>
											<mediatype>video</mediatype>
											<trackindex>1</trackindex>
											<clipindex>2</clipindex>
										</link>
										<link>
											<linkclipref>clipitem-29</linkclipref>
											<mediatype>audio</mediatype>
											<trackindex>1</trackindex>
											<clipindex>2</clipindex>
											<groupindex>1</groupindex>
										</link>
										<link>
											<linkclipref>clipitem-32</linkclipref>
											<mediatype>audio</mediatype>
											<trackindex>2</trackindex>
											<clipindex>2</clipindex>
											<groupindex>1</groupindex>
										</link>
										<labels>
											<label2>Purple</label2>
										</labels>
									</clipitem>
									<clipitem id="clipitem-33" premiereChannelType="stereo">
										<masterclipid>masterclip-9</masterclipid>
										<name>Comp 9 - A3</name>
										<enabled>TRUE</enabled>
										<duration>2771</duration>
										<rate>
											<timebase>30</timebase>
											<ntsc>TRUE</ntsc>
										</rate>
										<start>2339</start>
										<end>2808</end>
										<in>0</in>
										<out>469</out>
										<pproTicksIn>0</pproTicksIn>
										<pproTicksOut>3975087916800</pproTicksOut>
										<sequence id="sequence-4"/>
										<sourcetrack>
											<mediatype>audio</mediatype>
											<trackindex>1</trackindex>
										</sourcetrack>
										<link>
											<linkclipref>clipitem-11</linkclipref>
											<mediatype>video</mediatype>
											<trackindex>1</trackindex>
											<clipindex>3</clipindex>
										</link>
										<link>
											<linkclipref>clipitem-30</linkclipref>
											<mediatype>audio</mediatype>
											<trackindex>1</trackindex>
											<clipindex>3</clipindex>
											<groupindex>1</groupindex>
										</link>
										<link>
											<linkclipref>clipitem-33</linkclipref>
											<mediatype>audio</mediatype>
											<trackindex>2</trackindex>
											<clipindex>3</clipindex>
											<groupindex>1</groupindex>
										</link>
										<labels>
											<label2>Mango</label2>
										</labels>
									</clipitem>
									<enabled>TRUE</enabled>
									<locked>FALSE</locked>
									<outputchannelindex>2</outputchannelindex>
								</track>
								<track TL.SQTrackAudioKeyframeStyle="0" TL.SQTrackShy="0" TL.SQTrackExpandedHeight="25" TL.SQTrackExpanded="0" MZ.TrackTargeted="1" PannerCurrentValue="0.5" PannerIsInverted="true" PannerStartKeyframe="-91445760000000000,0.5,0,0,0,0,0,0" PannerName="Balance" currentExplodedTrackIndex="0" totalExplodedTrackCount="2" premiereTrackType="Stereo">
									<clipitem id="clipitem-34" premiereChannelType="stereo">
										<masterclipid>masterclip-18</masterclipid>
										<name>Transition</name>
										<enabled>TRUE</enabled>
										<duration>1559</duration>
										<rate>
											<timebase>30</timebase>
											<ntsc>TRUE</ntsc>
										</rate>
										<start>0</start>
										<end>120</end>
										<in>0</in>
										<out>120</out>
										<pproTicksIn>0</pproTicksIn>
										<pproTicksOut>1017080064000</pproTicksOut>
										<sequence id="sequence-6"/>
										<sourcetrack>
											<mediatype>audio</mediatype>
											<trackindex>0</trackindex>
										</sourcetrack>
											<marker>
												<comment></comment>
												<name></name>
												<in>95</in>
												<out>-1</out>
											</marker>
											<marker>
												<comment></comment>
												<name></name>
												<in>30</in>
												<out>-1</out>
											</marker>
										<link>
											<linkclipref>clipitem-21</linkclipref>
											<mediatype>video</mediatype>
											<trackindex>4</trackindex>
											<clipindex>1</clipindex>
										</link>
										<link>
											<linkclipref>clipitem-34</linkclipref>
											<mediatype>audio</mediatype>
											<trackindex>3</trackindex>
											<clipindex>1</clipindex>
											<groupindex>1</groupindex>
										</link>
										<link>
											<linkclipref>clipitem-38</linkclipref>
											<mediatype>audio</mediatype>
											<trackindex>4</trackindex>
											<clipindex>1</clipindex>
											<groupindex>1</groupindex>
										</link>
										<labels>
											<label2>Forest</label2>
										</labels>
									</clipitem>
									<clipitem id="clipitem-35" premiereChannelType="stereo">
										<masterclipid>masterclip-18</masterclipid>
										<name>Transition</name>
										<enabled>TRUE</enabled>
										<duration>1559</duration>
										<rate>
											<timebase>30</timebase>
											<ntsc>TRUE</ntsc>
										</rate>
										<start>1248</start>
										<end>1368</end>
										<in>0</in>
										<out>120</out>
										<pproTicksIn>0</pproTicksIn>
										<pproTicksOut>1017080064000</pproTicksOut>
										<sequence id="sequence-6"/>
										<sourcetrack>
											<mediatype>audio</mediatype>
											<trackindex>0</trackindex>
										</sourcetrack>
											<marker>
												<comment></comment>
												<name></name>
												<in>95</in>
												<out>-1</out>
											</marker>
											<marker>
												<comment></comment>
												<name></name>
												<in>30</in>
												<out>-1</out>
											</marker>
										<link>
											<linkclipref>clipitem-25</linkclipref>
											<mediatype>video</mediatype>
											<trackindex>4</trackindex>
											<clipindex>2</clipindex>
										</link>
										<link>
											<linkclipref>clipitem-35</linkclipref>
											<mediatype>audio</mediatype>
											<trackindex>3</trackindex>
											<clipindex>2</clipindex>
											<groupindex>1</groupindex>
										</link>
										<link>
											<linkclipref>clipitem-39</linkclipref>
											<mediatype>audio</mediatype>
											<trackindex>4</trackindex>
											<clipindex>2</clipindex>
											<groupindex>1</groupindex>
										</link>
										<labels>
											<label2>Forest</label2>
										</labels>
									</clipitem>
									<clipitem id="clipitem-36" premiereChannelType="stereo">
										<masterclipid>masterclip-18</masterclipid>
										<name>Transition</name>
										<enabled>TRUE</enabled>
										<duration>1559</duration>
										<rate>
											<timebase>30</timebase>
											<ntsc>TRUE</ntsc>
										</rate>
										<start>2244</start>
										<end>2364</end>
										<in>0</in>
										<out>120</out>
										<pproTicksIn>0</pproTicksIn>
										<pproTicksOut>1017080064000</pproTicksOut>
										<sequence id="sequence-6"/>
										<sourcetrack>
											<mediatype>audio</mediatype>
											<trackindex>0</trackindex>
										</sourcetrack>
											<marker>
												<comment></comment>
												<name></name>
												<in>95</in>
												<out>-1</out>
											</marker>
											<marker>
												<comment></comment>
												<name></name>
												<in>30</in>
												<out>-1</out>
											</marker>
										<link>
											<linkclipref>clipitem-26</linkclipref>
											<mediatype>video</mediatype>
											<trackindex>4</trackindex>
											<clipindex>3</clipindex>
										</link>
										<link>
											<linkclipref>clipitem-36</linkclipref>
											<mediatype>audio</mediatype>
											<trackindex>3</trackindex>
											<clipindex>3</clipindex>
											<groupindex>1</groupindex>
										</link>
										<link>
											<linkclipref>clipitem-40</linkclipref>
											<mediatype>audio</mediatype>
											<trackindex>4</trackindex>
											<clipindex>3</clipindex>
											<groupindex>1</groupindex>
										</link>
										<labels>
											<label2>Forest</label2>
										</labels>
									</clipitem>
									<clipitem id="clipitem-37" premiereChannelType="stereo">
										<masterclipid>masterclip-18</masterclipid>
										<name>Transition</name>
										<enabled>TRUE</enabled>
										<duration>1559</duration>
										<rate>
											<timebase>30</timebase>
											<ntsc>TRUE</ntsc>
										</rate>
										<start>2778</start>
										<end>2898</end>
										<in>0</in>
										<out>120</out>
										<pproTicksIn>0</pproTicksIn>
										<pproTicksOut>1017080064000</pproTicksOut>
										<sequence id="sequence-6"/>
										<sourcetrack>
											<mediatype>audio</mediatype>
											<trackindex>0</trackindex>
										</sourcetrack>
											<marker>
												<comment></comment>
												<name></name>
												<in>95</in>
												<out>-1</out>
											</marker>
											<marker>
												<comment></comment>
												<name></name>
												<in>30</in>
												<out>-1</out>
											</marker>
										<link>
											<linkclipref>clipitem-27</linkclipref>
											<mediatype>video</mediatype>
											<trackindex>4</trackindex>
											<clipindex>4</clipindex>
										</link>
										<link>
											<linkclipref>clipitem-37</linkclipref>
											<mediatype>audio</mediatype>
											<trackindex>3</trackindex>
											<clipindex>4</clipindex>
											<groupindex>1</groupindex>
										</link>
										<link>
											<linkclipref>clipitem-41</linkclipref>
											<mediatype>audio</mediatype>
											<trackindex>4</trackindex>
											<clipindex>4</clipindex>
											<groupindex>1</groupindex>
										</link>
										<labels>
											<label2>Forest</label2>
										</labels>
									</clipitem>
									<enabled>TRUE</enabled>
									<locked>FALSE</locked>
									<outputchannelindex>1</outputchannelindex>
								</track>
								<track TL.SQTrackAudioKeyframeStyle="0" TL.SQTrackShy="0" TL.SQTrackExpandedHeight="25" TL.SQTrackExpanded="0" MZ.TrackTargeted="1" PannerCurrentValue="0.5" PannerIsInverted="true" PannerStartKeyframe="-91445760000000000,0.5,0,0,0,0,0,0" PannerName="Balance" currentExplodedTrackIndex="1" totalExplodedTrackCount="2" premiereTrackType="Stereo">
									<clipitem id="clipitem-38" premiereChannelType="stereo">
										<masterclipid>masterclip-18</masterclipid>
										<name>Transition</name>
										<enabled>TRUE</enabled>
										<duration>1559</duration>
										<rate>
											<timebase>30</timebase>
											<ntsc>TRUE</ntsc>
										</rate>
										<start>0</start>
										<end>120</end>
										<in>0</in>
										<out>120</out>
										<pproTicksIn>0</pproTicksIn>
										<pproTicksOut>1017080064000</pproTicksOut>
										<sequence id="sequence-6"/>
										<sourcetrack>
											<mediatype>audio</mediatype>
											<trackindex>1</trackindex>
										</sourcetrack>
											<marker>
												<comment></comment>
												<name></name>
												<in>95</in>
												<out>-1</out>
											</marker>
											<marker>
												<comment></comment>
												<name></name>
												<in>30</in>
												<out>-1</out>
											</marker>
										<link>
											<linkclipref>clipitem-21</linkclipref>
											<mediatype>video</mediatype>
											<trackindex>4</trackindex>
											<clipindex>1</clipindex>
										</link>
										<link>
											<linkclipref>clipitem-34</linkclipref>
											<mediatype>audio</mediatype>
											<trackindex>3</trackindex>
											<clipindex>1</clipindex>
											<groupindex>1</groupindex>
										</link>
										<link>
											<linkclipref>clipitem-38</linkclipref>
											<mediatype>audio</mediatype>
											<trackindex>4</trackindex>
											<clipindex>1</clipindex>
											<groupindex>1</groupindex>
										</link>
										<labels>
											<label2>Forest</label2>
										</labels>
									</clipitem>
									<clipitem id="clipitem-39" premiereChannelType="stereo">
										<masterclipid>masterclip-18</masterclipid>
										<name>Transition</name>
										<enabled>TRUE</enabled>
										<duration>1559</duration>
										<rate>
											<timebase>30</timebase>
											<ntsc>TRUE</ntsc>
										</rate>
										<start>1248</start>
										<end>1368</end>
										<in>0</in>
										<out>120</out>
										<pproTicksIn>0</pproTicksIn>
										<pproTicksOut>1017080064000</pproTicksOut>
										<sequence id="sequence-6"/>
										<sourcetrack>
											<mediatype>audio</mediatype>
											<trackindex>1</trackindex>
										</sourcetrack>
											<marker>
												<comment></comment>
												<name></name>
												<in>95</in>
												<out>-1</out>
											</marker>
											<marker>
												<comment></comment>
												<name></name>
												<in>30</in>
												<out>-1</out>
											</marker>
										<link>
											<linkclipref>clipitem-25</linkclipref>
											<mediatype>video</mediatype>
											<trackindex>4</trackindex>
											<clipindex>2</clipindex>
										</link>
										<link>
											<linkclipref>clipitem-35</linkclipref>
											<mediatype>audio</mediatype>
											<trackindex>3</trackindex>
											<clipindex>2</clipindex>
											<groupindex>1</groupindex>
										</link>
										<link>
											<linkclipref>clipitem-39</linkclipref>
											<mediatype>audio</mediatype>
											<trackindex>4</trackindex>
											<clipindex>2</clipindex>
											<groupindex>1</groupindex>
										</link>
										<labels>
											<label2>Forest</label2>
										</labels>
									</clipitem>
									<clipitem id="clipitem-40" premiereChannelType="stereo">
										<masterclipid>masterclip-18</masterclipid>
										<name>Transition</name>
										<enabled>TRUE</enabled>
										<duration>1559</duration>
										<rate>
											<timebase>30</timebase>
											<ntsc>TRUE</ntsc>
										</rate>
										<start>2244</start>
										<end>2364</end>
										<in>0</in>
										<out>120</out>
										<pproTicksIn>0</pproTicksIn>
										<pproTicksOut>1017080064000</pproTicksOut>
										<sequence id="sequence-6"/>
										<sourcetrack>
											<mediatype>audio</mediatype>
											<trackindex>1</trackindex>
										</sourcetrack>
											<marker>
												<comment></comment>
												<name></name>
												<in>95</in>
												<out>-1</out>
											</marker>
											<marker>
												<comment></comment>
												<name></name>
												<in>30</in>
												<out>-1</out>
											</marker>
										<link>
											<linkclipref>clipitem-26</linkclipref>
											<mediatype>video</mediatype>
											<trackindex>4</trackindex>
											<clipindex>3</clipindex>
										</link>
										<link>
											<linkclipref>clipitem-36</linkclipref>
											<mediatype>audio</mediatype>
											<trackindex>3</trackindex>
											<clipindex>3</clipindex>
											<groupindex>1</groupindex>
										</link>
										<link>
											<linkclipref>clipitem-40</linkclipref>
											<mediatype>audio</mediatype>
											<trackindex>4</trackindex>
											<clipindex>3</clipindex>
											<groupindex>1</groupindex>
										</link>
										<labels>
											<label2>Forest</label2>
										</labels>
									</clipitem>
									<clipitem id="clipitem-41" premiereChannelType="stereo">
										<masterclipid>masterclip-18</masterclipid>
										<name>Transition</name>
										<enabled>TRUE</enabled>
										<duration>1559</duration>
										<rate>
											<timebase>30</timebase>
											<ntsc>TRUE</ntsc>
										</rate>
										<start>2778</start>
										<end>2898</end>
										<in>0</in>
										<out>120</out>
										<pproTicksIn>0</pproTicksIn>
										<pproTicksOut>1017080064000</pproTicksOut>
										<sequence id="sequence-6"/>
										<sourcetrack>
											<mediatype>audio</mediatype>
											<trackindex>1</trackindex>
										</sourcetrack>
											<marker>
												<comment></comment>
												<name></name>
												<in>95</in>
												<out>-1</out>
											</marker>
											<marker>
												<comment></comment>
												<name></name>
												<in>30</in>
												<out>-1</out>
											</marker>
										<link>
											<linkclipref>clipitem-27</linkclipref>
											<mediatype>video</mediatype>
											<trackindex>4</trackindex>
											<clipindex>4</clipindex>
										</link>
										<link>
											<linkclipref>clipitem-37</linkclipref>
											<mediatype>audio</mediatype>
											<trackindex>3</trackindex>
											<clipindex>4</clipindex>
											<groupindex>1</groupindex>
										</link>
										<link>
											<linkclipref>clipitem-41</linkclipref>
											<mediatype>audio</mediatype>
											<trackindex>4</trackindex>
											<clipindex>4</clipindex>
											<groupindex>1</groupindex>
										</link>
										<labels>
											<label2>Forest</label2>
										</labels>
									</clipitem>
									<enabled>TRUE</enabled>
									<locked>FALSE</locked>
									<outputchannelindex>2</outputchannelindex>
								</track>
								<track TL.SQTrackAudioKeyframeStyle="0" TL.SQTrackShy="0" TL.SQTrackExpandedHeight="25" TL.SQTrackExpanded="0" MZ.TrackTargeted="1" PannerCurrentValue="0.5" PannerIsInverted="true" PannerStartKeyframe="-91445760000000000,0.5,0,0,0,0,0,0" PannerName="Balance" currentExplodedTrackIndex="0" totalExplodedTrackCount="2" premiereTrackType="Stereo">
									<enabled>TRUE</enabled>
									<locked>FALSE</locked>
									<outputchannelindex>1</outputchannelindex>
								</track>
								<track TL.SQTrackAudioKeyframeStyle="0" TL.SQTrackShy="0" TL.SQTrackExpandedHeight="25" TL.SQTrackExpanded="0" MZ.TrackTargeted="1" PannerCurrentValue="0.5" PannerIsInverted="true" PannerStartKeyframe="-91445760000000000,0.5,0,0,0,0,0,0" PannerName="Balance" currentExplodedTrackIndex="1" totalExplodedTrackCount="2" premiereTrackType="Stereo">
									<enabled>TRUE</enabled>
									<locked>FALSE</locked>
									<outputchannelindex>2</outputchannelindex>
								</track>
							</audio>
						</media>
						<timecode>
							<rate>
								<timebase>30</timebase>
								<ntsc>TRUE</ntsc>
							</rate>
							<string>00;00;00;00</string>
							<frame>0</frame>
							<displayformat>DF</displayformat>
						</timecode>
						<labels>
							<label2>Forest</label2>
						</labels>
						<logginginfo>
							<description></description>
							<scene></scene>
							<shottake></shottake>
							<lognote></lognote>
							<good></good>
							<originalvideofilename></originalvideofilename>
							<originalaudiofilename></originalaudiofilename>
						</logginginfo>
					</sequence>
					<sequence id="sequence-7" TL.SQAudioVisibleBase="0" TL.SQVideoVisibleBase="0" TL.SQVisibleBaseTime="0" TL.SQAVDividerPosition="0.5" TL.SQHideShyTracks="0" TL.SQHeaderWidth="236" TL.SQDataTrackViewControlState="0" Monitor.ProgramZoomOut="45446527526400" Monitor.ProgramZoomIn="0" TL.SQTimePerPixel="0.15584674796747117" AM.TrackVScrollPosition="0" AM.TrackScrollPosition="0" MZ.EditLine="805188384000" MZ.Sequence.PreviewFrameSizeHeight="1080" MZ.Sequence.PreviewFrameSizeWidth="1920" MZ.Sequence.AudioTimeDisplayFormat="200" MZ.Sequence.PreviewRenderingClassID="1061109567" MZ.Sequence.PreviewRenderingPresetCodec="1634755443" MZ.Sequence.PreviewRenderingPresetPath="EncoderPresets/SequencePreview/35d109db-457b-43c1-9452-9cb7be9f121c/QuickTime.epr" MZ.Sequence.PreviewUseMaxRenderQuality="true" MZ.Sequence.PreviewUseMaxBitDepth="true" MZ.Sequence.EditingModeGUID="35d109db-457b-43c1-9452-9cb7be9f121c" MZ.Sequence.VideoTimeDisplayFormat="102" MZ.WorkOutPoint="15239249625600" MZ.WorkInPoint="0" explodedTracks="true">
						<uuid>3856049a-50e5-4466-a2af-72b9c4bf922e</uuid>
						<duration>5272</duration>
						<rate>
							<timebase>30</timebase>
							<ntsc>TRUE</ntsc>
						</rate>
						<name>ATM_SEGMENT_001</name>
						<media>
							<video>
								<format>
									<samplecharacteristics>
										<rate>
											<timebase>30</timebase>
											<ntsc>TRUE</ntsc>
										</rate>
										<codec>
											<name>Apple ProRes 422</name>
											<appspecificdata>
												<appname>Final Cut Pro</appname>
												<appmanufacturer>Apple Inc.</appmanufacturer>
												<appversion>7.0</appversion>
												<data>
													<qtcodec>
														<codecname>Apple ProRes 422</codecname>
														<codectypename>Apple ProRes 422</codectypename>
														<codectypecode>apcn</codectypecode>
														<codecvendorcode>appl</codecvendorcode>
														<spatialquality>1024</spatialquality>
														<temporalquality>0</temporalquality>
														<keyframerate>0</keyframerate>
														<datarate>0</datarate>
													</qtcodec>
												</data>
											</appspecificdata>
										</codec>
										<width>1920</width>
										<height>1080</height>
										<anamorphic>FALSE</anamorphic>
										<pixelaspectratio>square</pixelaspectratio>
										<fielddominance>none</fielddominance>
										<colordepth>24</colordepth>
									</samplecharacteristics>
								</format>
								<track TL.SQTrackShy="0" TL.SQTrackExpandedHeight="25" TL.SQTrackExpanded="0" MZ.TrackTargeted="1">
									<clipitem id="clipitem-42">
										<masterclipid>masterclip-20</masterclipid>
										<name>Comp 1 - A1</name>
										<enabled>TRUE</enabled>
										<duration>5843</duration>
										<rate>
											<timebase>30</timebase>
											<ntsc>TRUE</ntsc>
										</rate>
										<start>95</start>
										<end>1943</end>
										<in>0</in>
										<out>1848</out>
										<pproTicksIn>0</pproTicksIn>
										<pproTicksOut>15663032985600</pproTicksOut>
										<sequence id="sequence-8" TL.SQAudioVisibleBase="0" TL.SQVideoVisibleBase="0" TL.SQVisibleBaseTime="0" TL.SQAVDividerPosition="0.5" TL.SQHideShyTracks="0" TL.SQHeaderWidth="236" Monitor.ProgramZoomOut="15669389736000" Monitor.ProgramZoomIn="0" TL.SQTimePerPixel="0.19999999999999621" AM.TrackVScrollPosition="0" AM.TrackScrollPosition="0" MZ.EditLine="10117827720000" MZ.Sequence.PreviewFrameSizeHeight="1080" MZ.Sequence.PreviewFrameSizeWidth="1920" MZ.Sequence.AudioTimeDisplayFormat="200" MZ.Sequence.PreviewRenderingClassID="1061109567" MZ.Sequence.PreviewRenderingPresetCodec="1634755443" MZ.Sequence.PreviewRenderingPresetPath="EncoderPresets/SequencePreview/795454d9-d3c2-429d-9474-923ab13b7018/QuickTime.epr" MZ.Sequence.PreviewUseMaxRenderQuality="false" MZ.Sequence.PreviewUseMaxBitDepth="false" MZ.Sequence.EditingModeGUID="795454d9-d3c2-429d-9474-923ab13b7018" MZ.Sequence.VideoTimeDisplayFormat="110" MZ.WorkOutPoint="15669389736000" MZ.WorkInPoint="0">
											<duration>1479</duration>
											<rate>
												<timebase>24</timebase>
												<ntsc>TRUE</ntsc>
											</rate>
											<name>Comp 1 - A1</name>
											<media>
												<video>
													<format>
														<samplecharacteristics>
															<rate>
																<timebase>24</timebase>
																<ntsc>TRUE</ntsc>
															</rate>
															<codec>
																<name>Apple ProRes 422</name>
																<appspecificdata>
																	<appname>Final Cut Pro</appname>
																	<appmanufacturer>Apple Inc.</appmanufacturer>
																	<appversion>7.0</appversion>
																	<data>
																		<qtcodec>
																			<codecname>Apple ProRes 422</codecname>
																			<codectypename>Apple ProRes 422</codectypename>
																			<codectypecode>apcn</codectypecode>
																			<codecvendorcode>appl</codecvendorcode>
																			<spatialquality>1024</spatialquality>
																			<temporalquality>0</temporalquality>
																			<keyframerate>0</keyframerate>
																			<datarate>0</datarate>
																		</qtcodec>
																	</data>
																</appspecificdata>
															</codec>
															<width>1920</width>
															<height>1080</height>
															<anamorphic>FALSE</anamorphic>
															<pixelaspectratio>square</pixelaspectratio>
															<fielddominance>none</fielddominance>
															<colordepth>24</colordepth>
														</samplecharacteristics>
													</format>
													<track TL.SQTrackShy="0" TL.SQTrackExpandedHeight="25" TL.SQTrackExpanded="0" MZ.TrackTargeted="1">
														<clipitem id="clipitem-43">
															<masterclipid>masterclip-21</masterclipid>
															<name>304202_Waterfall River Trees Forest_By_Via_Films_Artlist_HD.mp4</name>
															<enabled>TRUE</enabled>
															<duration>307</duration>
															<rate>
																<timebase>24</timebase>
																<ntsc>TRUE</ntsc>
															</rate>
															<start>0</start>
															<end>307</end>
															<in>0</in>
															<out>307</out>
															<pproTicksIn>0</pproTicksIn>
															<pproTicksOut>3252537288000</pproTicksOut>
															<alphatype>none</alphatype>
															<pixelaspectratio>square</pixelaspectratio>
															<anamorphic>FALSE</anamorphic>
															<file id="file-15">
																<name>304202_Waterfall River Trees Forest_By_Via_Films_Artlist_HD.mp4</name>
																<pathurl>file://localhost/Users/dalecampo/Desktop/Example%20XML%20Project/03_Raw%20Files/Artlist%201/304202_Waterfall%20River%20Trees%20Forest_By_Via_Films_Artlist_HD.mp4</pathurl>
																<rate>
																	<timebase>24</timebase>
																	<ntsc>TRUE</ntsc>
																</rate>
																<duration>307</duration>
																<timecode>
																	<rate>
																		<timebase>24</timebase>
																		<ntsc>TRUE</ntsc>
																	</rate>
																	<string>00:11:22:05</string>
																	<frame>16373</frame>
																	<displayformat>NDF</displayformat>
																</timecode>
																<media>
																	<video>
																		<samplecharacteristics>
																			<rate>
																				<timebase>24</timebase>
																				<ntsc>TRUE</ntsc>
																			</rate>
																			<width>1920</width>
																			<height>1080</height>
																			<anamorphic>FALSE</anamorphic>
																			<pixelaspectratio>square</pixelaspectratio>
																			<fielddominance>none</fielddominance>
																		</samplecharacteristics>
																	</video>
																</media>
															</file>
															<logginginfo>
																<description></description>
																<scene></scene>
																<shottake></shottake>
																<lognote></lognote>
																<good></good>
																<originalvideofilename></originalvideofilename>
																<originalaudiofilename></originalaudiofilename>
															</logginginfo>
															<colorinfo>
																<lut></lut>
																<lut1></lut1>
																<asc_sop></asc_sop>
																<asc_sat></asc_sat>
																<lut2></lut2>
															</colorinfo>
															<labels>
																<label2>Blue</label2>
															</labels>
														</clipitem>
														<clipitem id="clipitem-44">
															<masterclipid>masterclip-22</masterclipid>
															<name>304214_Waterfall Forest Cascade Wilderness_By_Via_Films_Artlist_HD.mp4</name>
															<enabled>TRUE</enabled>
															<duration>648</duration>
															<rate>
																<timebase>24</timebase>
																<ntsc>TRUE</ntsc>
															</rate>
															<start>307</start>
															<end>955</end>
															<in>0</in>
															<out>648</out>
															<pproTicksIn>0</pproTicksIn>
															<pproTicksOut>6865290432000</pproTicksOut>
															<alphatype>none</alphatype>
															<pixelaspectratio>square</pixelaspectratio>
															<anamorphic>FALSE</anamorphic>
															<file id="file-16">
																<name>304214_Waterfall Forest Cascade Wilderness_By_Via_Films_Artlist_HD.mp4</name>
																<pathurl>file://localhost/Users/dalecampo/Desktop/Example%20XML%20Project/03_Raw%20Files/Artlist%201/304214_Waterfall%20Forest%20Cascade%20Wilderness_By_Via_Films_Artlist_HD.mp4</pathurl>
																<rate>
																	<timebase>24</timebase>
																	<ntsc>TRUE</ntsc>
																</rate>
																<duration>648</duration>
																<timecode>
																	<rate>
																		<timebase>24</timebase>
																		<ntsc>TRUE</ntsc>
																	</rate>
																	<string>00:15:35:04</string>
																	<frame>22444</frame>
																	<displayformat>NDF</displayformat>
																</timecode>
																<media>
																	<video>
																		<samplecharacteristics>
																			<rate>
																				<timebase>24</timebase>
																				<ntsc>TRUE</ntsc>
																			</rate>
																			<width>1920</width>
																			<height>1080</height>
																			<anamorphic>FALSE</anamorphic>
																			<pixelaspectratio>square</pixelaspectratio>
																			<fielddominance>none</fielddominance>
																		</samplecharacteristics>
																	</video>
																</media>
															</file>
															<logginginfo>
																<description></description>
																<scene></scene>
																<shottake></shottake>
																<lognote></lognote>
																<good></good>
																<originalvideofilename></originalvideofilename>
																<originalaudiofilename></originalaudiofilename>
															</logginginfo>
															<colorinfo>
																<lut></lut>
																<lut1></lut1>
																<asc_sop></asc_sop>
																<asc_sat></asc_sat>
																<lut2></lut2>
															</colorinfo>
															<labels>
																<label2>Blue</label2>
															</labels>
														</clipitem>
														<clipitem id="clipitem-45">
															<masterclipid>masterclip-23</masterclipid>
															<name>304218_Road Trees Hills Roadtrip_By_Via_Films_Artlist_HD.mp4</name>
															<enabled>TRUE</enabled>
															<duration>524</duration>
															<rate>
																<timebase>24</timebase>
																<ntsc>TRUE</ntsc>
															</rate>
															<start>955</start>
															<end>1479</end>
															<in>0</in>
															<out>524</out>
															<pproTicksIn>0</pproTicksIn>
															<pproTicksOut>5551562016000</pproTicksOut>
															<alphatype>none</alphatype>
															<pixelaspectratio>square</pixelaspectratio>
															<anamorphic>FALSE</anamorphic>
															<file id="file-17">
																<name>304218_Road Trees Hills Roadtrip_By_Via_Films_Artlist_HD.mp4</name>
																<pathurl>file://localhost/Users/dalecampo/Desktop/Example%20XML%20Project/03_Raw%20Files/Artlist%201/304218_Road%20Trees%20Hills%20Roadtrip_By_Via_Films_Artlist_HD.mp4</pathurl>
																<rate>
																	<timebase>24</timebase>
																	<ntsc>TRUE</ntsc>
																</rate>
																<duration>524</duration>
																<timecode>
																	<rate>
																		<timebase>24</timebase>
																		<ntsc>TRUE</ntsc>
																	</rate>
																	<string>00:22:56:18</string>
																	<frame>33042</frame>
																	<displayformat>NDF</displayformat>
																</timecode>
																<media>
																	<video>
																		<samplecharacteristics>
																			<rate>
																				<timebase>24</timebase>
																				<ntsc>TRUE</ntsc>
																			</rate>
																			<width>1920</width>
																			<height>1080</height>
																			<anamorphic>FALSE</anamorphic>
																			<pixelaspectratio>square</pixelaspectratio>
																			<fielddominance>none</fielddominance>
																		</samplecharacteristics>
																	</video>
																</media>
															</file>
															<logginginfo>
																<description></description>
																<scene></scene>
																<shottake></shottake>
																<lognote></lognote>
																<good></good>
																<originalvideofilename></originalvideofilename>
																<originalaudiofilename></originalaudiofilename>
															</logginginfo>
															<colorinfo>
																<lut></lut>
																<lut1></lut1>
																<asc_sop></asc_sop>
																<asc_sat></asc_sat>
																<lut2></lut2>
															</colorinfo>
															<labels>
																<label2>Blue</label2>
															</labels>
														</clipitem>
														<enabled>TRUE</enabled>
														<locked>FALSE</locked>
													</track>
													<track TL.SQTrackShy="0" TL.SQTrackExpandedHeight="25" TL.SQTrackExpanded="0" MZ.TrackTargeted="0">
														<enabled>TRUE</enabled>
														<locked>FALSE</locked>
													</track>
													<track TL.SQTrackShy="0" TL.SQTrackExpandedHeight="25" TL.SQTrackExpanded="0" MZ.TrackTargeted="0">
														<enabled>TRUE</enabled>
														<locked>FALSE</locked>
													</track>
												</video>
												<audio>
													<numOutputChannels>2</numOutputChannels>
													<format>
														<samplecharacteristics>
															<depth>16</depth>
															<samplerate>48000</samplerate>
														</samplecharacteristics>
													</format>
													<outputs>
														<group>
															<index>1</index>
															<numchannels>1</numchannels>
															<downmix>0</downmix>
															<channel>
																<index>1</index>
															</channel>
														</group>
														<group>
															<index>2</index>
															<numchannels>1</numchannels>
															<downmix>0</downmix>
															<channel>
																<index>2</index>
															</channel>
														</group>
													</outputs>
													<track TL.SQTrackAudioKeyframeStyle="0" TL.SQTrackShy="0" TL.SQTrackExpandedHeight="25" TL.SQTrackExpanded="0" MZ.TrackTargeted="1" PannerCurrentValue="0.5" PannerIsInverted="true" PannerStartKeyframe="-91445760000000000,0.5,0,0,0,0,0,0" PannerName="Balance" currentExplodedTrackIndex="0" totalExplodedTrackCount="2" premiereTrackType="Stereo">
														<clipitem id="clipitem-46" premiereChannelType="stereo">
															<masterclipid>masterclip-24</masterclipid>
															<name>Adrián Berenguer - Premiere.mp3</name>
															<enabled>TRUE</enabled>
															<duration>4675</duration>
															<rate>
																<timebase>24</timebase>
																<ntsc>TRUE</ntsc>
															</rate>
															<start>0</start>
															<end>1479</end>
															<in>0</in>
															<out>1479</out>
															<pproTicksIn>0</pproTicksIn>
															<pproTicksOut>15669389736000</pproTicksOut>
															<file id="file-18">
																<name>Adrián Berenguer - Premiere.mp3</name>
																<pathurl>file://localhost/Users/dalecampo/Desktop/Example%20XML%20Project/05_Music/Adri%c3%a1n%20Berenguer%20-%20Premiere.mp3</pathurl>
																<rate>
																	<timebase>30</timebase>
																	<ntsc>TRUE</ntsc>
																</rate>
																<duration>5844</duration>
																<timecode>
																	<rate>
																		<timebase>30</timebase>
																		<ntsc>TRUE</ntsc>
																	</rate>
																	<string>00;00;00;00</string>
																	<frame>0</frame>
																	<displayformat>DF</displayformat>
																</timecode>
																<media>
																	<audio>
																		<samplecharacteristics>
																			<depth>16</depth>
																			<samplerate>44100</samplerate>
																		</samplecharacteristics>
																		<channelcount>2</channelcount>
																	</audio>
																</media>
															</file>
															<sourcetrack>
																<mediatype>audio</mediatype>
																<trackindex>1</trackindex>
															</sourcetrack>
															<link>
																<linkclipref>clipitem-46</linkclipref>
																<mediatype>audio</mediatype>
																<trackindex>1</trackindex>
																<clipindex>1</clipindex>
																<groupindex>1</groupindex>
															</link>
															<link>
																<linkclipref>clipitem-47</linkclipref>
																<mediatype>audio</mediatype>
																<trackindex>2</trackindex>
																<clipindex>1</clipindex>
																<groupindex>1</groupindex>
															</link>
															<logginginfo>
																<description></description>
																<scene></scene>
																<shottake></shottake>
																<lognote></lognote>
																<good></good>
																<originalvideofilename></originalvideofilename>
																<originalaudiofilename></originalaudiofilename>
															</logginginfo>
															<colorinfo>
																<lut></lut>
																<lut1></lut1>
																<asc_sop></asc_sop>
																<asc_sat></asc_sat>
																<lut2></lut2>
															</colorinfo>
															<labels>
																<label2>Forest</label2>
															</labels>
														</clipitem>
														<enabled>TRUE</enabled>
														<locked>FALSE</locked>
														<outputchannelindex>1</outputchannelindex>
													</track>
													<track TL.SQTrackAudioKeyframeStyle="0" TL.SQTrackShy="0" TL.SQTrackExpandedHeight="25" TL.SQTrackExpanded="0" MZ.TrackTargeted="1" PannerCurrentValue="0.5" PannerIsInverted="true" PannerStartKeyframe="-91445760000000000,0.5,0,0,0,0,0,0" PannerName="Balance" currentExplodedTrackIndex="1" totalExplodedTrackCount="2" premiereTrackType="Stereo">
														<clipitem id="clipitem-47" premiereChannelType="stereo">
															<masterclipid>masterclip-24</masterclipid>
															<name>Adrián Berenguer - Premiere.mp3</name>
															<enabled>TRUE</enabled>
															<duration>4675</duration>
															<rate>
																<timebase>24</timebase>
																<ntsc>TRUE</ntsc>
															</rate>
															<start>0</start>
															<end>1479</end>
															<in>0</in>
															<out>1479</out>
															<pproTicksIn>0</pproTicksIn>
															<pproTicksOut>15669389736000</pproTicksOut>
															<file id="file-18"/>
															<sourcetrack>
																<mediatype>audio</mediatype>
																<trackindex>2</trackindex>
															</sourcetrack>
															<link>
																<linkclipref>clipitem-46</linkclipref>
																<mediatype>audio</mediatype>
																<trackindex>1</trackindex>
																<clipindex>1</clipindex>
																<groupindex>1</groupindex>
															</link>
															<link>
																<linkclipref>clipitem-47</linkclipref>
																<mediatype>audio</mediatype>
																<trackindex>2</trackindex>
																<clipindex>1</clipindex>
																<groupindex>1</groupindex>
															</link>
															<logginginfo>
																<description></description>
																<scene></scene>
																<shottake></shottake>
																<lognote></lognote>
																<good></good>
																<originalvideofilename></originalvideofilename>
																<originalaudiofilename></originalaudiofilename>
															</logginginfo>
															<colorinfo>
																<lut></lut>
																<lut1></lut1>
																<asc_sop></asc_sop>
																<asc_sat></asc_sat>
																<lut2></lut2>
															</colorinfo>
															<labels>
																<label2>Forest</label2>
															</labels>
														</clipitem>
														<enabled>TRUE</enabled>
														<locked>FALSE</locked>
														<outputchannelindex>2</outputchannelindex>
													</track>
													<track TL.SQTrackAudioKeyframeStyle="0" TL.SQTrackShy="0" TL.SQTrackExpandedHeight="25" TL.SQTrackExpanded="0" MZ.TrackTargeted="1" PannerCurrentValue="0.5" PannerIsInverted="true" PannerStartKeyframe="-91445760000000000,0.5,0,0,0,0,0,0" PannerName="Balance" currentExplodedTrackIndex="0" totalExplodedTrackCount="2" premiereTrackType="Stereo">
														<enabled>TRUE</enabled>
														<locked>FALSE</locked>
														<outputchannelindex>1</outputchannelindex>
													</track>
													<track TL.SQTrackAudioKeyframeStyle="0" TL.SQTrackShy="0" TL.SQTrackExpandedHeight="25" TL.SQTrackExpanded="0" MZ.TrackTargeted="1" PannerCurrentValue="0.5" PannerIsInverted="true" PannerStartKeyframe="-91445760000000000,0.5,0,0,0,0,0,0" PannerName="Balance" currentExplodedTrackIndex="1" totalExplodedTrackCount="2" premiereTrackType="Stereo">
														<enabled>TRUE</enabled>
														<locked>FALSE</locked>
														<outputchannelindex>2</outputchannelindex>
													</track>
													<track TL.SQTrackAudioKeyframeStyle="0" TL.SQTrackShy="0" TL.SQTrackExpandedHeight="25" TL.SQTrackExpanded="0" MZ.TrackTargeted="1" PannerCurrentValue="0.5" PannerIsInverted="true" PannerStartKeyframe="-91445760000000000,0.5,0,0,0,0,0,0" PannerName="Balance" currentExplodedTrackIndex="0" totalExplodedTrackCount="2" premiereTrackType="Stereo">
														<enabled>TRUE</enabled>
														<locked>FALSE</locked>
														<outputchannelindex>1</outputchannelindex>
													</track>
													<track TL.SQTrackAudioKeyframeStyle="0" TL.SQTrackShy="0" TL.SQTrackExpandedHeight="25" TL.SQTrackExpanded="0" MZ.TrackTargeted="1" PannerCurrentValue="0.5" PannerIsInverted="true" PannerStartKeyframe="-91445760000000000,0.5,0,0,0,0,0,0" PannerName="Balance" currentExplodedTrackIndex="1" totalExplodedTrackCount="2" premiereTrackType="Stereo">
														<enabled>TRUE</enabled>
														<locked>FALSE</locked>
														<outputchannelindex>2</outputchannelindex>
													</track>
												</audio>
											</media>
											<timecode>
												<rate>
													<timebase>24</timebase>
													<ntsc>TRUE</ntsc>
												</rate>
												<string>00:00:00:00</string>
												<frame>0</frame>
												<displayformat>NDF</displayformat>
											</timecode>
											<logginginfo>
												<description></description>
												<scene></scene>
												<shottake></shottake>
												<lognote></lognote>
												<good></good>
												<originalvideofilename></originalvideofilename>
												<originalaudiofilename></originalaudiofilename>
											</logginginfo>
										</sequence>
										<link>
											<linkclipref>clipitem-42</linkclipref>
											<mediatype>video</mediatype>
											<trackindex>1</trackindex>
											<clipindex>1</clipindex>
										</link>
										<link>
											<linkclipref>clipitem-65</linkclipref>
											<mediatype>audio</mediatype>
											<trackindex>1</trackindex>
											<clipindex>1</clipindex>
											<groupindex>1</groupindex>
										</link>
										<link>
											<linkclipref>clipitem-68</linkclipref>
											<mediatype>audio</mediatype>
											<trackindex>2</trackindex>
											<clipindex>1</clipindex>
											<groupindex>1</groupindex>
										</link>
										<labels>
											<label2>Forest</label2>
										</labels>
									</clipitem>
									<clipitem id="clipitem-48">
										<masterclipid>masterclip-25</masterclipid>
										<name>Comp 2 - A2</name>
										<enabled>TRUE</enabled>
										<duration>6124</duration>
										<rate>
											<timebase>30</timebase>
											<ntsc>TRUE</ntsc>
										</rate>
										<start>2008</start>
										<end>4838</end>
										<in>0</in>
										<out>2830</out>
										<pproTicksIn>0</pproTicksIn>
										<pproTicksOut>23986138176000</pproTicksOut>
										<sequence id="sequence-9" TL.SQAudioVisibleBase="0" TL.SQVideoVisibleBase="0" TL.SQVisibleBaseTime="0" TL.SQAVDividerPosition="0.5" TL.SQHideShyTracks="0" TL.SQHeaderWidth="236" Monitor.ProgramZoomOut="23989271040000" Monitor.ProgramZoomIn="0" TL.SQTimePerPixel="0.19999999999999998" MZ.EditLine="51910709760000" MZ.Sequence.PreviewFrameSizeHeight="1080" MZ.Sequence.PreviewFrameSizeWidth="1920" MZ.Sequence.AudioTimeDisplayFormat="200" MZ.Sequence.PreviewRenderingClassID="1061109567" MZ.Sequence.PreviewRenderingPresetCodec="1634755443" MZ.Sequence.PreviewRenderingPresetPath="EncoderPresets/SequencePreview/795454d9-d3c2-429d-9474-923ab13b7018/QuickTime.epr" MZ.Sequence.PreviewUseMaxRenderQuality="false" MZ.Sequence.PreviewUseMaxBitDepth="false" MZ.Sequence.EditingModeGUID="795454d9-d3c2-429d-9474-923ab13b7018" MZ.Sequence.VideoTimeDisplayFormat="101" MZ.WorkOutPoint="23989271040000" MZ.WorkInPoint="0">
											<duration>2361</duration>
											<rate>
												<timebase>25</timebase>
												<ntsc>FALSE</ntsc>
											</rate>
											<name>Comp 2 - A2</name>
											<media>
												<video>
													<format>
														<samplecharacteristics>
															<rate>
																<timebase>25</timebase>
																<ntsc>FALSE</ntsc>
															</rate>
															<codec>
																<name>Apple ProRes 422</name>
																<appspecificdata>
																	<appname>Final Cut Pro</appname>
																	<appmanufacturer>Apple Inc.</appmanufacturer>
																	<appversion>7.0</appversion>
																	<data>
																		<qtcodec>
																			<codecname>Apple ProRes 422</codecname>
																			<codectypename>Apple ProRes 422</codectypename>
																			<codectypecode>apcn</codectypecode>
																			<codecvendorcode>appl</codecvendorcode>
																			<spatialquality>1024</spatialquality>
																			<temporalquality>0</temporalquality>
																			<keyframerate>0</keyframerate>
																			<datarate>0</datarate>
																		</qtcodec>
																	</data>
																</appspecificdata>
															</codec>
															<width>1920</width>
															<height>1080</height>
															<anamorphic>FALSE</anamorphic>
															<pixelaspectratio>square</pixelaspectratio>
															<fielddominance>none</fielddominance>
															<colordepth>24</colordepth>
														</samplecharacteristics>
													</format>
													<track TL.SQTrackShy="0" TL.SQTrackExpandedHeight="25" TL.SQTrackExpanded="0" MZ.TrackTargeted="1">
														<clipitem id="clipitem-49">
															<masterclipid>masterclip-26</masterclipid>
															<name>263084_Iceland Glacier Jokulsarlon Lagoon_By_Viktor_Sloth_Artlist_HD.mp4</name>
															<enabled>TRUE</enabled>
															<duration>1463</duration>
															<rate>
																<timebase>25</timebase>
																<ntsc>FALSE</ntsc>
															</rate>
															<start>0</start>
															<end>1463</end>
															<in>0</in>
															<out>1463</out>
															<pproTicksIn>0</pproTicksIn>
															<pproTicksOut>14865016320000</pproTicksOut>
															<alphatype>none</alphatype>
															<pixelaspectratio>square</pixelaspectratio>
															<anamorphic>FALSE</anamorphic>
															<file id="file-19">
																<name>263084_Iceland Glacier Jokulsarlon Lagoon_By_Viktor_Sloth_Artlist_HD.mp4</name>
																<pathurl>file://localhost/Users/dalecampo/Desktop/Example%20XML%20Project/03_Raw%20Files/Artlist%202/263084_Iceland%20Glacier%20Jokulsarlon%20Lagoon_By_Viktor_Sloth_Artlist_HD.mp4</pathurl>
																<rate>
																	<timebase>25</timebase>
																	<ntsc>FALSE</ntsc>
																</rate>
																<duration>1463</duration>
																<timecode>
																	<rate>
																		<timebase>25</timebase>
																		<ntsc>FALSE</ntsc>
																	</rate>
																	<string>08:09:40:19</string>
																	<frame>734519</frame>
																	<displayformat>NDF</displayformat>
																</timecode>
																<media>
																	<video>
																		<samplecharacteristics>
																			<rate>
																				<timebase>25</timebase>
																				<ntsc>FALSE</ntsc>
																			</rate>
																			<width>1920</width>
																			<height>1080</height>
																			<anamorphic>FALSE</anamorphic>
																			<pixelaspectratio>square</pixelaspectratio>
																			<fielddominance>none</fielddominance>
																		</samplecharacteristics>
																	</video>
																</media>
															</file>
															<logginginfo>
																<description></description>
																<scene></scene>
																<shottake></shottake>
																<lognote></lognote>
																<good></good>
																<originalvideofilename></originalvideofilename>
																<originalaudiofilename></originalaudiofilename>
															</logginginfo>
															<colorinfo>
																<lut></lut>
																<lut1></lut1>
																<asc_sop></asc_sop>
																<asc_sat></asc_sat>
																<lut2></lut2>
															</colorinfo>
															<labels>
																<label2>Blue</label2>
															</labels>
														</clipitem>
														<clipitem id="clipitem-50">
															<masterclipid>masterclip-27</masterclipid>
															<name>263085_Iceland Glacier Jokulsarlon Lagoon_By_Viktor_Sloth_Artlist_HD.mp4</name>
															<enabled>TRUE</enabled>
															<duration>898</duration>
															<rate>
																<timebase>25</timebase>
																<ntsc>FALSE</ntsc>
															</rate>
															<start>1463</start>
															<end>2361</end>
															<in>0</in>
															<out>898</out>
															<pproTicksIn>0</pproTicksIn>
															<pproTicksOut>9124254720000</pproTicksOut>
															<alphatype>none</alphatype>
															<pixelaspectratio>square</pixelaspectratio>
															<anamorphic>FALSE</anamorphic>
															<file id="file-20">
																<name>263085_Iceland Glacier Jokulsarlon Lagoon_By_Viktor_Sloth_Artlist_HD.mp4</name>
																<pathurl>file://localhost/Users/dalecampo/Desktop/Example%20XML%20Project/03_Raw%20Files/Artlist%202/263085_Iceland%20Glacier%20Jokulsarlon%20Lagoon_By_Viktor_Sloth_Artlist_HD.mp4</pathurl>
																<rate>
																	<timebase>25</timebase>
																	<ntsc>FALSE</ntsc>
																</rate>
																<duration>898</duration>
																<timecode>
																	<rate>
																		<timebase>25</timebase>
																		<ntsc>FALSE</ntsc>
																	</rate>
																	<string>08:37:09:22</string>
																	<frame>775747</frame>
																	<displayformat>NDF</displayformat>
																</timecode>
																<media>
																	<video>
																		<samplecharacteristics>
																			<rate>
																				<timebase>25</timebase>
																				<ntsc>FALSE</ntsc>
																			</rate>
																			<width>1920</width>
																			<height>1080</height>
																			<anamorphic>FALSE</anamorphic>
																			<pixelaspectratio>square</pixelaspectratio>
																			<fielddominance>none</fielddominance>
																		</samplecharacteristics>
																	</video>
																</media>
															</file>
															<logginginfo>
																<description></description>
																<scene></scene>
																<shottake></shottake>
																<lognote></lognote>
																<good></good>
																<originalvideofilename></originalvideofilename>
																<originalaudiofilename></originalaudiofilename>
															</logginginfo>
															<colorinfo>
																<lut></lut>
																<lut1></lut1>
																<asc_sop></asc_sop>
																<asc_sat></asc_sat>
																<lut2></lut2>
															</colorinfo>
															<labels>
																<label2>Blue</label2>
															</labels>
														</clipitem>
														<enabled>TRUE</enabled>
														<locked>FALSE</locked>
													</track>
													<track TL.SQTrackShy="0" TL.SQTrackExpandedHeight="25" TL.SQTrackExpanded="0" MZ.TrackTargeted="0">
														<enabled>TRUE</enabled>
														<locked>FALSE</locked>
													</track>
													<track TL.SQTrackShy="0" TL.SQTrackExpandedHeight="25" TL.SQTrackExpanded="0" MZ.TrackTargeted="0">
														<enabled>TRUE</enabled>
														<locked>FALSE</locked>
													</track>
												</video>
												<audio>
													<numOutputChannels>2</numOutputChannels>
													<format>
														<samplecharacteristics>
															<depth>16</depth>
															<samplerate>48000</samplerate>
														</samplecharacteristics>
													</format>
													<outputs>
														<group>
															<index>1</index>
															<numchannels>1</numchannels>
															<downmix>0</downmix>
															<channel>
																<index>1</index>
															</channel>
														</group>
														<group>
															<index>2</index>
															<numchannels>1</numchannels>
															<downmix>0</downmix>
															<channel>
																<index>2</index>
															</channel>
														</group>
													</outputs>
													<track TL.SQTrackAudioKeyframeStyle="0" TL.SQTrackShy="0" TL.SQTrackExpandedHeight="25" TL.SQTrackExpanded="0" MZ.TrackTargeted="1" PannerCurrentValue="0.5" PannerIsInverted="true" PannerStartKeyframe="-91445760000000000,0.5,0,0,0,0,0,0" PannerName="Balance" currentExplodedTrackIndex="0" totalExplodedTrackCount="2" premiereTrackType="Stereo">
														<clipitem id="clipitem-51" premiereChannelType="stereo">
															<masterclipid>masterclip-28</masterclipid>
															<name>ANBR - Seasons.mp3</name>
															<enabled>TRUE</enabled>
															<duration>5109</duration>
															<rate>
																<timebase>25</timebase>
																<ntsc>FALSE</ntsc>
															</rate>
															<start>0</start>
															<end>2361</end>
															<in>0</in>
															<out>2361</out>
															<pproTicksIn>0</pproTicksIn>
															<pproTicksOut>23989271040000</pproTicksOut>
															<file id="file-21">
																<name>ANBR - Seasons.mp3</name>
																<pathurl>file://localhost/Users/dalecampo/Desktop/Example%20XML%20Project/05_Music/ANBR%20-%20Seasons.mp3</pathurl>
																<rate>
																	<timebase>30</timebase>
																	<ntsc>TRUE</ntsc>
																</rate>
																<duration>6125</duration>
																<timecode>
																	<rate>
																		<timebase>30</timebase>
																		<ntsc>TRUE</ntsc>
																	</rate>
																	<string>00;00;00;00</string>
																	<frame>0</frame>
																	<displayformat>DF</displayformat>
																</timecode>
																<media>
																	<audio>
																		<samplecharacteristics>
																			<depth>16</depth>
																			<samplerate>44100</samplerate>
																		</samplecharacteristics>
																		<channelcount>2</channelcount>
																	</audio>
																</media>
															</file>
															<sourcetrack>
																<mediatype>audio</mediatype>
																<trackindex>1</trackindex>
															</sourcetrack>
															<link>
																<linkclipref>clipitem-51</linkclipref>
																<mediatype>audio</mediatype>
																<trackindex>1</trackindex>
																<clipindex>1</clipindex>
																<groupindex>1</groupindex>
															</link>
															<link>
																<linkclipref>clipitem-52</linkclipref>
																<mediatype>audio</mediatype>
																<trackindex>2</trackindex>
																<clipindex>1</clipindex>
																<groupindex>1</groupindex>
															</link>
															<logginginfo>
																<description></description>
																<scene></scene>
																<shottake></shottake>
																<lognote>All Rights Reserved to www.Art-list.io</lognote>
																<good></good>
																<originalvideofilename></originalvideofilename>
																<originalaudiofilename></originalaudiofilename>
															</logginginfo>
															<colorinfo>
																<lut></lut>
																<lut1></lut1>
																<asc_sop></asc_sop>
																<asc_sat></asc_sat>
																<lut2></lut2>
															</colorinfo>
															<labels>
																<label2>Forest</label2>
															</labels>
														</clipitem>
														<enabled>TRUE</enabled>
														<locked>FALSE</locked>
														<outputchannelindex>1</outputchannelindex>
													</track>
													<track TL.SQTrackAudioKeyframeStyle="0" TL.SQTrackShy="0" TL.SQTrackExpandedHeight="25" TL.SQTrackExpanded="0" MZ.TrackTargeted="1" PannerCurrentValue="0.5" PannerIsInverted="true" PannerStartKeyframe="-91445760000000000,0.5,0,0,0,0,0,0" PannerName="Balance" currentExplodedTrackIndex="1" totalExplodedTrackCount="2" premiereTrackType="Stereo">
														<clipitem id="clipitem-52" premiereChannelType="stereo">
															<masterclipid>masterclip-28</masterclipid>
															<name>ANBR - Seasons.mp3</name>
															<enabled>TRUE</enabled>
															<duration>5109</duration>
															<rate>
																<timebase>25</timebase>
																<ntsc>FALSE</ntsc>
															</rate>
															<start>0</start>
															<end>2361</end>
															<in>0</in>
															<out>2361</out>
															<pproTicksIn>0</pproTicksIn>
															<pproTicksOut>23989271040000</pproTicksOut>
															<file id="file-21"/>
															<sourcetrack>
																<mediatype>audio</mediatype>
																<trackindex>2</trackindex>
															</sourcetrack>
															<link>
																<linkclipref>clipitem-51</linkclipref>
																<mediatype>audio</mediatype>
																<trackindex>1</trackindex>
																<clipindex>1</clipindex>
																<groupindex>1</groupindex>
															</link>
															<link>
																<linkclipref>clipitem-52</linkclipref>
																<mediatype>audio</mediatype>
																<trackindex>2</trackindex>
																<clipindex>1</clipindex>
																<groupindex>1</groupindex>
															</link>
															<logginginfo>
																<description></description>
																<scene></scene>
																<shottake></shottake>
																<lognote>All Rights Reserved to www.Art-list.io</lognote>
																<good></good>
																<originalvideofilename></originalvideofilename>
																<originalaudiofilename></originalaudiofilename>
															</logginginfo>
															<colorinfo>
																<lut></lut>
																<lut1></lut1>
																<asc_sop></asc_sop>
																<asc_sat></asc_sat>
																<lut2></lut2>
															</colorinfo>
															<labels>
																<label2>Forest</label2>
															</labels>
														</clipitem>
														<enabled>TRUE</enabled>
														<locked>FALSE</locked>
														<outputchannelindex>2</outputchannelindex>
													</track>
													<track TL.SQTrackAudioKeyframeStyle="0" TL.SQTrackShy="0" TL.SQTrackExpandedHeight="25" TL.SQTrackExpanded="0" MZ.TrackTargeted="1" PannerCurrentValue="0.5" PannerIsInverted="true" PannerStartKeyframe="-91445760000000000,0.5,0,0,0,0,0,0" PannerName="Balance" currentExplodedTrackIndex="0" totalExplodedTrackCount="2" premiereTrackType="Stereo">
														<enabled>TRUE</enabled>
														<locked>FALSE</locked>
														<outputchannelindex>1</outputchannelindex>
													</track>
													<track TL.SQTrackAudioKeyframeStyle="0" TL.SQTrackShy="0" TL.SQTrackExpandedHeight="25" TL.SQTrackExpanded="0" MZ.TrackTargeted="1" PannerCurrentValue="0.5" PannerIsInverted="true" PannerStartKeyframe="-91445760000000000,0.5,0,0,0,0,0,0" PannerName="Balance" currentExplodedTrackIndex="1" totalExplodedTrackCount="2" premiereTrackType="Stereo">
														<enabled>TRUE</enabled>
														<locked>FALSE</locked>
														<outputchannelindex>2</outputchannelindex>
													</track>
													<track TL.SQTrackAudioKeyframeStyle="0" TL.SQTrackShy="0" TL.SQTrackExpandedHeight="25" TL.SQTrackExpanded="0" MZ.TrackTargeted="1" PannerCurrentValue="0.5" PannerIsInverted="true" PannerStartKeyframe="-91445760000000000,0.5,0,0,0,0,0,0" PannerName="Balance" currentExplodedTrackIndex="0" totalExplodedTrackCount="2" premiereTrackType="Stereo">
														<enabled>TRUE</enabled>
														<locked>FALSE</locked>
														<outputchannelindex>1</outputchannelindex>
													</track>
													<track TL.SQTrackAudioKeyframeStyle="0" TL.SQTrackShy="0" TL.SQTrackExpandedHeight="25" TL.SQTrackExpanded="0" MZ.TrackTargeted="1" PannerCurrentValue="0.5" PannerIsInverted="true" PannerStartKeyframe="-91445760000000000,0.5,0,0,0,0,0,0" PannerName="Balance" currentExplodedTrackIndex="1" totalExplodedTrackCount="2" premiereTrackType="Stereo">
														<enabled>TRUE</enabled>
														<locked>FALSE</locked>
														<outputchannelindex>2</outputchannelindex>
													</track>
												</audio>
											</media>
											<timecode>
												<rate>
													<timebase>25</timebase>
													<ntsc>FALSE</ntsc>
												</rate>
												<string>00:00:00:00</string>
												<frame>0</frame>
												<displayformat>NDF</displayformat>
											</timecode>
											<logginginfo>
												<description></description>
												<scene></scene>
												<shottake></shottake>
												<lognote></lognote>
												<good></good>
												<originalvideofilename></originalvideofilename>
												<originalaudiofilename></originalaudiofilename>
											</logginginfo>
										</sequence>
										<filter>
											<effect>
												<name>Distort</name>
												<effectid>deformation</effectid>
												<effectcategory>motion</effectcategory>
												<effecttype>motion</effecttype>
												<mediatype>video</mediatype>
												<parameter authoringApp="PremierePro">
													<parameterid>aspect</parameterid>
													<name>Aspect</name>
													<valuemin>-10000</valuemin>
													<valuemax>10000</valuemax>
													<value>-12.5</value>
												</parameter>
											</effect>
										</filter>
										<filter>
											<effect>
												<name>Basic Motion</name>
												<effectid>basic</effectid>
												<effectcategory>motion</effectcategory>
												<effecttype>motion</effecttype>
												<mediatype>video</mediatype>
												<parameter authoringApp="PremierePro">
													<parameterid>scale</parameterid>
													<name>Scale</name>
													<value>112.5</value>
												</parameter>
											</effect>
										</filter>
										<link>
											<linkclipref>clipitem-48</linkclipref>
											<mediatype>video</mediatype>
											<trackindex>1</trackindex>
											<clipindex>2</clipindex>
										</link>
										<link>
											<linkclipref>clipitem-66</linkclipref>
											<mediatype>audio</mediatype>
											<trackindex>1</trackindex>
											<clipindex>2</clipindex>
											<groupindex>1</groupindex>
										</link>
										<link>
											<linkclipref>clipitem-69</linkclipref>
											<mediatype>audio</mediatype>
											<trackindex>2</trackindex>
											<clipindex>2</clipindex>
											<groupindex>1</groupindex>
										</link>
										<labels>
											<label2>Forest</label2>
										</labels>
									</clipitem>
									<clipitem id="clipitem-53">
										<masterclipid>masterclip-29</masterclipid>
										<name>Comp 3 - A3</name>
										<enabled>TRUE</enabled>
										<duration>4290</duration>
										<rate>
											<timebase>30</timebase>
											<ntsc>TRUE</ntsc>
										</rate>
										<start>4903</start>
										<end>5272</end>
										<in>0</in>
										<out>369</out>
										<pproTicksIn>0</pproTicksIn>
										<pproTicksOut>3127521196800</pproTicksOut>
										<sequence id="sequence-10" TL.SQAudioVisibleBase="0" TL.SQVideoVisibleBase="0" TL.SQVisibleBaseTime="0" TL.SQAVDividerPosition="0.5" TL.SQHideShyTracks="0" TL.SQHeaderWidth="236" Monitor.ProgramZoomOut="3129477120000" Monitor.ProgramZoomIn="0" TL.SQTimePerPixel="0.19999999999999998" MZ.EditLine="36364930560000" MZ.Sequence.PreviewFrameSizeHeight="1080" MZ.Sequence.PreviewFrameSizeWidth="1920" MZ.Sequence.AudioTimeDisplayFormat="200" MZ.Sequence.PreviewRenderingClassID="1061109567" MZ.Sequence.PreviewRenderingPresetCodec="1634755443" MZ.Sequence.PreviewRenderingPresetPath="EncoderPresets/SequencePreview/795454d9-d3c2-429d-9474-923ab13b7018/QuickTime.epr" MZ.Sequence.PreviewUseMaxRenderQuality="false" MZ.Sequence.PreviewUseMaxBitDepth="false" MZ.Sequence.EditingModeGUID="795454d9-d3c2-429d-9474-923ab13b7018" MZ.Sequence.VideoTimeDisplayFormat="101" MZ.WorkOutPoint="3129477120000" MZ.WorkInPoint="0">
											<duration>308</duration>
											<rate>
												<timebase>25</timebase>
												<ntsc>FALSE</ntsc>
											</rate>
											<name>Comp 3 - A3</name>
											<media>
												<video>
													<format>
														<samplecharacteristics>
															<rate>
																<timebase>25</timebase>
																<ntsc>FALSE</ntsc>
															</rate>
															<codec>
																<name>Apple ProRes 422</name>
																<appspecificdata>
																	<appname>Final Cut Pro</appname>
																	<appmanufacturer>Apple Inc.</appmanufacturer>
																	<appversion>7.0</appversion>
																	<data>
																		<qtcodec>
																			<codecname>Apple ProRes 422</codecname>
																			<codectypename>Apple ProRes 422</codectypename>
																			<codectypecode>apcn</codectypecode>
																			<codecvendorcode>appl</codecvendorcode>
																			<spatialquality>1024</spatialquality>
																			<temporalquality>0</temporalquality>
																			<keyframerate>0</keyframerate>
																			<datarate>0</datarate>
																		</qtcodec>
																	</data>
																</appspecificdata>
															</codec>
															<width>1920</width>
															<height>1080</height>
															<anamorphic>FALSE</anamorphic>
															<pixelaspectratio>square</pixelaspectratio>
															<fielddominance>none</fielddominance>
															<colordepth>24</colordepth>
														</samplecharacteristics>
													</format>
													<track TL.SQTrackShy="0" TL.SQTrackExpandedHeight="25" TL.SQTrackExpanded="0" MZ.TrackTargeted="1">
														<clipitem id="clipitem-54">
															<masterclipid>masterclip-30</masterclipid>
															<name>164519_Hills and trees in Thailand_By_Roma_Black_Artlist_HD.mp4</name>
															<enabled>TRUE</enabled>
															<duration>308</duration>
															<rate>
																<timebase>25</timebase>
																<ntsc>FALSE</ntsc>
															</rate>
															<start>0</start>
															<end>308</end>
															<in>0</in>
															<out>308</out>
															<pproTicksIn>0</pproTicksIn>
															<pproTicksOut>3129477120000</pproTicksOut>
															<alphatype>none</alphatype>
															<pixelaspectratio>square</pixelaspectratio>
															<anamorphic>FALSE</anamorphic>
															<file id="file-22">
																<name>164519_Hills and trees in Thailand_By_Roma_Black_Artlist_HD.mp4</name>
																<pathurl>file://localhost/Users/dalecampo/Desktop/Example%20XML%20Project/03_Raw%20Files/Artlist%203/164519_Hills%20and%20trees%20in%20Thailand_By_Roma_Black_Artlist_HD.mp4</pathurl>
																<rate>
																	<timebase>25</timebase>
																	<ntsc>FALSE</ntsc>
																</rate>
																<duration>308</duration>
																<timecode>
																	<rate>
																		<timebase>25</timebase>
																		<ntsc>FALSE</ntsc>
																	</rate>
																	<string>19:30:03:07</string>
																	<frame>1755082</frame>
																	<displayformat>NDF</displayformat>
																</timecode>
																<media>
																	<video>
																		<samplecharacteristics>
																			<rate>
																				<timebase>25</timebase>
																				<ntsc>FALSE</ntsc>
																			</rate>
																			<width>1920</width>
																			<height>1080</height>
																			<anamorphic>FALSE</anamorphic>
																			<pixelaspectratio>square</pixelaspectratio>
																			<fielddominance>none</fielddominance>
																		</samplecharacteristics>
																	</video>
																</media>
															</file>
															<logginginfo>
																<description></description>
																<scene></scene>
																<shottake></shottake>
																<lognote></lognote>
																<good></good>
																<originalvideofilename></originalvideofilename>
																<originalaudiofilename></originalaudiofilename>
															</logginginfo>
															<colorinfo>
																<lut></lut>
																<lut1></lut1>
																<asc_sop></asc_sop>
																<asc_sat></asc_sat>
																<lut2></lut2>
															</colorinfo>
															<labels>
																<label2>Blue</label2>
															</labels>
														</clipitem>
														<enabled>TRUE</enabled>
														<locked>FALSE</locked>
													</track>
													<track TL.SQTrackShy="0" TL.SQTrackExpandedHeight="25" TL.SQTrackExpanded="0" MZ.TrackTargeted="0">
														<enabled>TRUE</enabled>
														<locked>FALSE</locked>
													</track>
													<track TL.SQTrackShy="0" TL.SQTrackExpandedHeight="25" TL.SQTrackExpanded="0" MZ.TrackTargeted="0">
														<enabled>TRUE</enabled>
														<locked>FALSE</locked>
													</track>
												</video>
												<audio>
													<numOutputChannels>2</numOutputChannels>
													<format>
														<samplecharacteristics>
															<depth>16</depth>
															<samplerate>48000</samplerate>
														</samplecharacteristics>
													</format>
													<outputs>
														<group>
															<index>1</index>
															<numchannels>1</numchannels>
															<downmix>0</downmix>
															<channel>
																<index>1</index>
															</channel>
														</group>
														<group>
															<index>2</index>
															<numchannels>1</numchannels>
															<downmix>0</downmix>
															<channel>
																<index>2</index>
															</channel>
														</group>
													</outputs>
													<track TL.SQTrackAudioKeyframeStyle="0" TL.SQTrackShy="0" TL.SQTrackExpandedHeight="25" TL.SQTrackExpanded="0" MZ.TrackTargeted="1" PannerCurrentValue="0.5" PannerIsInverted="true" PannerStartKeyframe="-91445760000000000,0.5,0,0,0,0,0,0" PannerName="Balance" currentExplodedTrackIndex="0" totalExplodedTrackCount="2" premiereTrackType="Stereo">
														<clipitem id="clipitem-55" premiereChannelType="stereo">
															<masterclipid>masterclip-31</masterclipid>
															<name>Ardie Son - A Winter Migration.mp3</name>
															<enabled>TRUE</enabled>
															<duration>3579</duration>
															<rate>
																<timebase>25</timebase>
																<ntsc>FALSE</ntsc>
															</rate>
															<start>0</start>
															<end>308</end>
															<in>0</in>
															<out>308</out>
															<pproTicksIn>0</pproTicksIn>
															<pproTicksOut>3129477120000</pproTicksOut>
															<file id="file-23">
																<name>Ardie Son - A Winter Migration.mp3</name>
																<pathurl>file://localhost/Users/dalecampo/Desktop/Example%20XML%20Project/05_Music/Ardie%20Son%20-%20A%20Winter%20Migration.mp3</pathurl>
																<rate>
																	<timebase>30</timebase>
																	<ntsc>TRUE</ntsc>
																</rate>
																<duration>4291</duration>
																<timecode>
																	<rate>
																		<timebase>30</timebase>
																		<ntsc>TRUE</ntsc>
																	</rate>
																	<string>00;00;00;00</string>
																	<frame>0</frame>
																	<displayformat>DF</displayformat>
																</timecode>
																<media>
																	<audio>
																		<samplecharacteristics>
																			<depth>16</depth>
																			<samplerate>44100</samplerate>
																		</samplecharacteristics>
																		<channelcount>2</channelcount>
																	</audio>
																</media>
															</file>
															<sourcetrack>
																<mediatype>audio</mediatype>
																<trackindex>1</trackindex>
															</sourcetrack>
															<link>
																<linkclipref>clipitem-55</linkclipref>
																<mediatype>audio</mediatype>
																<trackindex>1</trackindex>
																<clipindex>1</clipindex>
																<groupindex>1</groupindex>
															</link>
															<link>
																<linkclipref>clipitem-56</linkclipref>
																<mediatype>audio</mediatype>
																<trackindex>2</trackindex>
																<clipindex>1</clipindex>
																<groupindex>1</groupindex>
															</link>
															<logginginfo>
																<description></description>
																<scene></scene>
																<shottake></shottake>
																<lognote></lognote>
																<good></good>
																<originalvideofilename></originalvideofilename>
																<originalaudiofilename></originalaudiofilename>
															</logginginfo>
															<colorinfo>
																<lut></lut>
																<lut1></lut1>
																<asc_sop></asc_sop>
																<asc_sat></asc_sat>
																<lut2></lut2>
															</colorinfo>
															<labels>
																<label2>Forest</label2>
															</labels>
														</clipitem>
														<enabled>TRUE</enabled>
														<locked>FALSE</locked>
														<outputchannelindex>1</outputchannelindex>
													</track>
													<track TL.SQTrackAudioKeyframeStyle="0" TL.SQTrackShy="0" TL.SQTrackExpandedHeight="25" TL.SQTrackExpanded="0" MZ.TrackTargeted="1" PannerCurrentValue="0.5" PannerIsInverted="true" PannerStartKeyframe="-91445760000000000,0.5,0,0,0,0,0,0" PannerName="Balance" currentExplodedTrackIndex="1" totalExplodedTrackCount="2" premiereTrackType="Stereo">
														<clipitem id="clipitem-56" premiereChannelType="stereo">
															<masterclipid>masterclip-31</masterclipid>
															<name>Ardie Son - A Winter Migration.mp3</name>
															<enabled>TRUE</enabled>
															<duration>3579</duration>
															<rate>
																<timebase>25</timebase>
																<ntsc>FALSE</ntsc>
															</rate>
															<start>0</start>
															<end>308</end>
															<in>0</in>
															<out>308</out>
															<pproTicksIn>0</pproTicksIn>
															<pproTicksOut>3129477120000</pproTicksOut>
															<file id="file-23"/>
															<sourcetrack>
																<mediatype>audio</mediatype>
																<trackindex>2</trackindex>
															</sourcetrack>
															<link>
																<linkclipref>clipitem-55</linkclipref>
																<mediatype>audio</mediatype>
																<trackindex>1</trackindex>
																<clipindex>1</clipindex>
																<groupindex>1</groupindex>
															</link>
															<link>
																<linkclipref>clipitem-56</linkclipref>
																<mediatype>audio</mediatype>
																<trackindex>2</trackindex>
																<clipindex>1</clipindex>
																<groupindex>1</groupindex>
															</link>
															<logginginfo>
																<description></description>
																<scene></scene>
																<shottake></shottake>
																<lognote></lognote>
																<good></good>
																<originalvideofilename></originalvideofilename>
																<originalaudiofilename></originalaudiofilename>
															</logginginfo>
															<colorinfo>
																<lut></lut>
																<lut1></lut1>
																<asc_sop></asc_sop>
																<asc_sat></asc_sat>
																<lut2></lut2>
															</colorinfo>
															<labels>
																<label2>Forest</label2>
															</labels>
														</clipitem>
														<enabled>TRUE</enabled>
														<locked>FALSE</locked>
														<outputchannelindex>2</outputchannelindex>
													</track>
													<track TL.SQTrackAudioKeyframeStyle="0" TL.SQTrackShy="0" TL.SQTrackExpandedHeight="25" TL.SQTrackExpanded="0" MZ.TrackTargeted="1" PannerCurrentValue="0.5" PannerIsInverted="true" PannerStartKeyframe="-91445760000000000,0.5,0,0,0,0,0,0" PannerName="Balance" currentExplodedTrackIndex="0" totalExplodedTrackCount="2" premiereTrackType="Stereo">
														<enabled>TRUE</enabled>
														<locked>FALSE</locked>
														<outputchannelindex>1</outputchannelindex>
													</track>
													<track TL.SQTrackAudioKeyframeStyle="0" TL.SQTrackShy="0" TL.SQTrackExpandedHeight="25" TL.SQTrackExpanded="0" MZ.TrackTargeted="1" PannerCurrentValue="0.5" PannerIsInverted="true" PannerStartKeyframe="-91445760000000000,0.5,0,0,0,0,0,0" PannerName="Balance" currentExplodedTrackIndex="1" totalExplodedTrackCount="2" premiereTrackType="Stereo">
														<enabled>TRUE</enabled>
														<locked>FALSE</locked>
														<outputchannelindex>2</outputchannelindex>
													</track>
													<track TL.SQTrackAudioKeyframeStyle="0" TL.SQTrackShy="0" TL.SQTrackExpandedHeight="25" TL.SQTrackExpanded="0" MZ.TrackTargeted="1" PannerCurrentValue="0.5" PannerIsInverted="true" PannerStartKeyframe="-91445760000000000,0.5,0,0,0,0,0,0" PannerName="Balance" currentExplodedTrackIndex="0" totalExplodedTrackCount="2" premiereTrackType="Stereo">
														<enabled>TRUE</enabled>
														<locked>FALSE</locked>
														<outputchannelindex>1</outputchannelindex>
													</track>
													<track TL.SQTrackAudioKeyframeStyle="0" TL.SQTrackShy="0" TL.SQTrackExpandedHeight="25" TL.SQTrackExpanded="0" MZ.TrackTargeted="1" PannerCurrentValue="0.5" PannerIsInverted="true" PannerStartKeyframe="-91445760000000000,0.5,0,0,0,0,0,0" PannerName="Balance" currentExplodedTrackIndex="1" totalExplodedTrackCount="2" premiereTrackType="Stereo">
														<enabled>TRUE</enabled>
														<locked>FALSE</locked>
														<outputchannelindex>2</outputchannelindex>
													</track>
												</audio>
											</media>
											<timecode>
												<rate>
													<timebase>25</timebase>
													<ntsc>FALSE</ntsc>
												</rate>
												<string>00:00:00:00</string>
												<frame>0</frame>
												<displayformat>NDF</displayformat>
											</timecode>
											<logginginfo>
												<description></description>
												<scene></scene>
												<shottake></shottake>
												<lognote></lognote>
												<good></good>
												<originalvideofilename></originalvideofilename>
												<originalaudiofilename></originalaudiofilename>
											</logginginfo>
										</sequence>
										<link>
											<linkclipref>clipitem-53</linkclipref>
											<mediatype>video</mediatype>
											<trackindex>1</trackindex>
											<clipindex>3</clipindex>
										</link>
										<link>
											<linkclipref>clipitem-67</linkclipref>
											<mediatype>audio</mediatype>
											<trackindex>1</trackindex>
											<clipindex>3</clipindex>
											<groupindex>1</groupindex>
										</link>
										<link>
											<linkclipref>clipitem-70</linkclipref>
											<mediatype>audio</mediatype>
											<trackindex>2</trackindex>
											<clipindex>3</clipindex>
											<groupindex>1</groupindex>
										</link>
										<labels>
											<label2>Forest</label2>
										</labels>
									</clipitem>
									<enabled>TRUE</enabled>
									<locked>FALSE</locked>
								</track>
								<track TL.SQTrackShy="0" TL.SQTrackExpandedHeight="25" TL.SQTrackExpanded="0" MZ.TrackTargeted="0">
									<clipitem id="clipitem-57">
										<masterclipid>masterclip-32</masterclipid>
										<name>L3 1</name>
										<enabled>TRUE</enabled>
										<duration>1294705</duration>
										<rate>
											<timebase>30</timebase>
											<ntsc>TRUE</ntsc>
										</rate>
										<start>95</start>
										<end>1943</end>
										<in>107892</in>
										<out>109740</out>
										<pproTicksIn>914456685542400</pproTicksIn>
										<pproTicksOut>930119718528000</pproTicksOut>
										<alphatype>none</alphatype>
										<pixelaspectratio>square</pixelaspectratio>
										<anamorphic>FALSE</anamorphic>
										<file id="file-24">
											<name>Black Video</name>
											<mediaSource>Slug</mediaSource>
											<rate>
												<timebase>30</timebase>
												<ntsc>TRUE</ntsc>
											</rate>
											<timecode>
												<rate>
													<timebase>30</timebase>
													<ntsc>TRUE</ntsc>
												</rate>
												<string>00;00;00;00</string>
												<frame>0</frame>
												<displayformat>DF</displayformat>
											</timecode>
											<media>
												<video>
													<samplecharacteristics>
														<rate>
															<timebase>30</timebase>
															<ntsc>TRUE</ntsc>
														</rate>
														<width>1920</width>
														<height>1080</height>
														<anamorphic>FALSE</anamorphic>
														<pixelaspectratio>square</pixelaspectratio>
														<fielddominance>none</fielddominance>
													</samplecharacteristics>
												</video>
											</media>
										</file>
										<logginginfo>
											<description></description>
											<scene></scene>
											<shottake></shottake>
											<lognote></lognote>
											<good></good>
											<originalvideofilename></originalvideofilename>
											<originalaudiofilename></originalaudiofilename>
										</logginginfo>
										<colorinfo>
											<lut></lut>
											<lut1></lut1>
											<asc_sop></asc_sop>
											<asc_sat></asc_sat>
											<lut2></lut2>
										</colorinfo>
										<labels>
											<label2>Lavender</label2>
										</labels>
									</clipitem>
									<clipitem id="clipitem-58">
										<masterclipid>masterclip-33</masterclipid>
										<name>L3 2</name>
										<enabled>TRUE</enabled>
										<duration>1294705</duration>
										<rate>
											<timebase>30</timebase>
											<ntsc>TRUE</ntsc>
										</rate>
										<start>2008</start>
										<end>4838</end>
										<in>107892</in>
										<out>110722</out>
										<pproTicksIn>914456685542400</pproTicksIn>
										<pproTicksOut>938442823718400</pproTicksOut>
										<alphatype>none</alphatype>
										<pixelaspectratio>square</pixelaspectratio>
										<anamorphic>FALSE</anamorphic>
										<file id="file-25">
											<name>Black Video</name>
											<mediaSource>Slug</mediaSource>
											<rate>
												<timebase>30</timebase>
												<ntsc>TRUE</ntsc>
											</rate>
											<timecode>
												<rate>
													<timebase>30</timebase>
													<ntsc>TRUE</ntsc>
												</rate>
												<string>00;00;00;00</string>
												<frame>0</frame>
												<displayformat>DF</displayformat>
											</timecode>
											<media>
												<video>
													<samplecharacteristics>
														<rate>
															<timebase>30</timebase>
															<ntsc>TRUE</ntsc>
														</rate>
														<width>1920</width>
														<height>1080</height>
														<anamorphic>FALSE</anamorphic>
														<pixelaspectratio>square</pixelaspectratio>
														<fielddominance>none</fielddominance>
													</samplecharacteristics>
												</video>
											</media>
										</file>
										<logginginfo>
											<description></description>
											<scene></scene>
											<shottake></shottake>
											<lognote></lognote>
											<good></good>
											<originalvideofilename></originalvideofilename>
											<originalaudiofilename></originalaudiofilename>
										</logginginfo>
										<colorinfo>
											<lut></lut>
											<lut1></lut1>
											<asc_sop></asc_sop>
											<asc_sat></asc_sat>
											<lut2></lut2>
										</colorinfo>
										<labels>
											<label2>Lavender</label2>
										</labels>
									</clipitem>
									<clipitem id="clipitem-59">
										<masterclipid>masterclip-34</masterclipid>
										<name>L3 3</name>
										<enabled>TRUE</enabled>
										<duration>1294705</duration>
										<rate>
											<timebase>30</timebase>
											<ntsc>TRUE</ntsc>
										</rate>
										<start>4903</start>
										<end>5272</end>
										<in>107892</in>
										<out>108261</out>
										<pproTicksIn>914456685542400</pproTicksIn>
										<pproTicksOut>917584206739200</pproTicksOut>
										<alphatype>none</alphatype>
										<pixelaspectratio>square</pixelaspectratio>
										<anamorphic>FALSE</anamorphic>
										<file id="file-26">
											<name>Black Video</name>
											<mediaSource>Slug</mediaSource>
											<rate>
												<timebase>30</timebase>
												<ntsc>TRUE</ntsc>
											</rate>
											<timecode>
												<rate>
													<timebase>30</timebase>
													<ntsc>TRUE</ntsc>
												</rate>
												<string>00;00;00;00</string>
												<frame>0</frame>
												<displayformat>DF</displayformat>
											</timecode>
											<media>
												<video>
													<samplecharacteristics>
														<rate>
															<timebase>30</timebase>
															<ntsc>TRUE</ntsc>
														</rate>
														<width>1920</width>
														<height>1080</height>
														<anamorphic>FALSE</anamorphic>
														<pixelaspectratio>square</pixelaspectratio>
														<fielddominance>none</fielddominance>
													</samplecharacteristics>
												</video>
											</media>
										</file>
										<logginginfo>
											<description></description>
											<scene></scene>
											<shottake></shottake>
											<lognote></lognote>
											<good></good>
											<originalvideofilename></originalvideofilename>
											<originalaudiofilename></originalaudiofilename>
										</logginginfo>
										<colorinfo>
											<lut></lut>
											<lut1></lut1>
											<asc_sop></asc_sop>
											<asc_sat></asc_sat>
											<lut2></lut2>
										</colorinfo>
										<labels>
											<label2>Lavender</label2>
										</labels>
									</clipitem>
									<enabled>TRUE</enabled>
									<locked>FALSE</locked>
								</track>
								<track TL.SQTrackShy="0" TL.SQTrackExpandedHeight="25" TL.SQTrackExpanded="0" MZ.TrackTargeted="0">
									<clipitem id="clipitem-60">
										<masterclipid>masterclip-16</masterclipid>
										<name>ATM Bug (Right)</name>
										<enabled>TRUE</enabled>
										<duration>17982</duration>
										<rate>
											<timebase>30</timebase>
											<ntsc>TRUE</ntsc>
										</rate>
										<start>95</start>
										<end>5272</end>
										<in>0</in>
										<out>5177</out>
										<pproTicksIn>0</pproTicksIn>
										<pproTicksOut>43878529094400</pproTicksOut>
										<sequence id="sequence-5"/>
										<labels>
											<label2>Green</label2>
										</labels>
									</clipitem>
									<enabled>TRUE</enabled>
									<locked>FALSE</locked>
								</track>
								<track TL.SQTrackShy="0" TL.SQTrackExpandedHeight="25" TL.SQTrackExpanded="0" MZ.TrackTargeted="0">
									<clipitem id="clipitem-61">
										<masterclipid>masterclip-18</masterclipid>
										<name>Transition</name>
										<enabled>TRUE</enabled>
										<duration>1559</duration>
										<rate>
											<timebase>30</timebase>
											<ntsc>TRUE</ntsc>
										</rate>
										<start>0</start>
										<end>120</end>
										<in>0</in>
										<out>120</out>
										<pproTicksIn>0</pproTicksIn>
										<pproTicksOut>1017080064000</pproTicksOut>
										<sequence id="sequence-6"/>
											<marker>
												<comment></comment>
												<name></name>
												<in>95</in>
												<out>-1</out>
											</marker>
											<marker>
												<comment></comment>
												<name></name>
												<in>30</in>
												<out>-1</out>
											</marker>
										<link>
											<linkclipref>clipitem-61</linkclipref>
											<mediatype>video</mediatype>
											<trackindex>4</trackindex>
											<clipindex>1</clipindex>
										</link>
										<link>
											<linkclipref>clipitem-71</linkclipref>
											<mediatype>audio</mediatype>
											<trackindex>3</trackindex>
											<clipindex>1</clipindex>
											<groupindex>1</groupindex>
										</link>
										<link>
											<linkclipref>clipitem-75</linkclipref>
											<mediatype>audio</mediatype>
											<trackindex>4</trackindex>
											<clipindex>1</clipindex>
											<groupindex>1</groupindex>
										</link>
										<labels>
											<label2>Forest</label2>
										</labels>
									</clipitem>
									<clipitem id="clipitem-62">
										<masterclipid>masterclip-18</masterclipid>
										<name>Transition</name>
										<enabled>TRUE</enabled>
										<duration>1559</duration>
										<rate>
											<timebase>30</timebase>
											<ntsc>TRUE</ntsc>
										</rate>
										<start>1913</start>
										<end>2033</end>
										<in>0</in>
										<out>120</out>
										<pproTicksIn>0</pproTicksIn>
										<pproTicksOut>1017080064000</pproTicksOut>
										<sequence id="sequence-6"/>
											<marker>
												<comment></comment>
												<name></name>
												<in>95</in>
												<out>-1</out>
											</marker>
											<marker>
												<comment></comment>
												<name></name>
												<in>30</in>
												<out>-1</out>
											</marker>
										<link>
											<linkclipref>clipitem-62</linkclipref>
											<mediatype>video</mediatype>
											<trackindex>4</trackindex>
											<clipindex>2</clipindex>
										</link>
										<link>
											<linkclipref>clipitem-72</linkclipref>
											<mediatype>audio</mediatype>
											<trackindex>3</trackindex>
											<clipindex>2</clipindex>
											<groupindex>1</groupindex>
										</link>
										<link>
											<linkclipref>clipitem-76</linkclipref>
											<mediatype>audio</mediatype>
											<trackindex>4</trackindex>
											<clipindex>2</clipindex>
											<groupindex>1</groupindex>
										</link>
										<labels>
											<label2>Forest</label2>
										</labels>
									</clipitem>
									<clipitem id="clipitem-63">
										<masterclipid>masterclip-18</masterclipid>
										<name>Transition</name>
										<enabled>TRUE</enabled>
										<duration>1559</duration>
										<rate>
											<timebase>30</timebase>
											<ntsc>TRUE</ntsc>
										</rate>
										<start>4808</start>
										<end>4928</end>
										<in>0</in>
										<out>120</out>
										<pproTicksIn>0</pproTicksIn>
										<pproTicksOut>1017080064000</pproTicksOut>
										<sequence id="sequence-6"/>
											<marker>
												<comment></comment>
												<name></name>
												<in>95</in>
												<out>-1</out>
											</marker>
											<marker>
												<comment></comment>
												<name></name>
												<in>30</in>
												<out>-1</out>
											</marker>
										<link>
											<linkclipref>clipitem-63</linkclipref>
											<mediatype>video</mediatype>
											<trackindex>4</trackindex>
											<clipindex>3</clipindex>
										</link>
										<link>
											<linkclipref>clipitem-73</linkclipref>
											<mediatype>audio</mediatype>
											<trackindex>3</trackindex>
											<clipindex>3</clipindex>
											<groupindex>1</groupindex>
										</link>
										<link>
											<linkclipref>clipitem-77</linkclipref>
											<mediatype>audio</mediatype>
											<trackindex>4</trackindex>
											<clipindex>3</clipindex>
											<groupindex>1</groupindex>
										</link>
										<labels>
											<label2>Forest</label2>
										</labels>
									</clipitem>
									<clipitem id="clipitem-64">
										<masterclipid>masterclip-18</masterclipid>
										<name>Transition</name>
										<enabled>TRUE</enabled>
										<duration>1559</duration>
										<rate>
											<timebase>30</timebase>
											<ntsc>TRUE</ntsc>
										</rate>
										<start>5242</start>
										<end>5362</end>
										<in>0</in>
										<out>120</out>
										<pproTicksIn>0</pproTicksIn>
										<pproTicksOut>1017080064000</pproTicksOut>
										<sequence id="sequence-6"/>
											<marker>
												<comment></comment>
												<name></name>
												<in>95</in>
												<out>-1</out>
											</marker>
											<marker>
												<comment></comment>
												<name></name>
												<in>30</in>
												<out>-1</out>
											</marker>
										<link>
											<linkclipref>clipitem-64</linkclipref>
											<mediatype>video</mediatype>
											<trackindex>4</trackindex>
											<clipindex>4</clipindex>
										</link>
										<link>
											<linkclipref>clipitem-74</linkclipref>
											<mediatype>audio</mediatype>
											<trackindex>3</trackindex>
											<clipindex>4</clipindex>
											<groupindex>1</groupindex>
										</link>
										<link>
											<linkclipref>clipitem-78</linkclipref>
											<mediatype>audio</mediatype>
											<trackindex>4</trackindex>
											<clipindex>4</clipindex>
											<groupindex>1</groupindex>
										</link>
										<labels>
											<label2>Forest</label2>
										</labels>
									</clipitem>
									<enabled>TRUE</enabled>
									<locked>FALSE</locked>
								</track>
								<track TL.SQTrackShy="0" TL.SQTrackExpandedHeight="25" TL.SQTrackExpanded="0" MZ.TrackTargeted="0">
									<enabled>TRUE</enabled>
									<locked>FALSE</locked>
								</track>
							</video>
							<audio>
								<numOutputChannels>2</numOutputChannels>
								<format>
									<samplecharacteristics>
										<depth>16</depth>
										<samplerate>48000</samplerate>
									</samplecharacteristics>
								</format>
								<outputs>
									<group>
										<index>1</index>
										<numchannels>1</numchannels>
										<downmix>0</downmix>
										<channel>
											<index>1</index>
										</channel>
									</group>
									<group>
										<index>2</index>
										<numchannels>1</numchannels>
										<downmix>0</downmix>
										<channel>
											<index>2</index>
										</channel>
									</group>
								</outputs>
								<track TL.SQTrackAudioKeyframeStyle="0" TL.SQTrackShy="0" TL.SQTrackExpandedHeight="25" TL.SQTrackExpanded="0" MZ.TrackTargeted="1" PannerCurrentValue="0.5" PannerIsInverted="true" PannerStartKeyframe="-91445760000000000,0.5,0,0,0,0,0,0" PannerName="Balance" currentExplodedTrackIndex="0" totalExplodedTrackCount="2" premiereTrackType="Stereo">
									<clipitem id="clipitem-65" premiereChannelType="stereo">
										<masterclipid>masterclip-20</masterclipid>
										<name>Comp 1 - A1</name>
										<enabled>TRUE</enabled>
										<duration>5843</duration>
										<rate>
											<timebase>30</timebase>
											<ntsc>TRUE</ntsc>
										</rate>
										<start>95</start>
										<end>1943</end>
										<in>0</in>
										<out>1848</out>
										<pproTicksIn>0</pproTicksIn>
										<pproTicksOut>15663032985600</pproTicksOut>
										<sequence id="sequence-8"/>
										<sourcetrack>
											<mediatype>audio</mediatype>
											<trackindex>0</trackindex>
										</sourcetrack>
										<link>
											<linkclipref>clipitem-42</linkclipref>
											<mediatype>video</mediatype>
											<trackindex>1</trackindex>
											<clipindex>1</clipindex>
										</link>
										<link>
											<linkclipref>clipitem-65</linkclipref>
											<mediatype>audio</mediatype>
											<trackindex>1</trackindex>
											<clipindex>1</clipindex>
											<groupindex>1</groupindex>
										</link>
										<link>
											<linkclipref>clipitem-68</linkclipref>
											<mediatype>audio</mediatype>
											<trackindex>2</trackindex>
											<clipindex>1</clipindex>
											<groupindex>1</groupindex>
										</link>
										<labels>
											<label2>Forest</label2>
										</labels>
									</clipitem>
									<clipitem id="clipitem-66" premiereChannelType="stereo">
										<masterclipid>masterclip-25</masterclipid>
										<name>Comp 2 - A2</name>
										<enabled>TRUE</enabled>
										<duration>6124</duration>
										<rate>
											<timebase>30</timebase>
											<ntsc>TRUE</ntsc>
										</rate>
										<start>2008</start>
										<end>4838</end>
										<in>0</in>
										<out>2830</out>
										<pproTicksIn>0</pproTicksIn>
										<pproTicksOut>23986138176000</pproTicksOut>
										<sequence id="sequence-9"/>
										<sourcetrack>
											<mediatype>audio</mediatype>
											<trackindex>0</trackindex>
										</sourcetrack>
										<link>
											<linkclipref>clipitem-48</linkclipref>
											<mediatype>video</mediatype>
											<trackindex>1</trackindex>
											<clipindex>2</clipindex>
										</link>
										<link>
											<linkclipref>clipitem-66</linkclipref>
											<mediatype>audio</mediatype>
											<trackindex>1</trackindex>
											<clipindex>2</clipindex>
											<groupindex>1</groupindex>
										</link>
										<link>
											<linkclipref>clipitem-69</linkclipref>
											<mediatype>audio</mediatype>
											<trackindex>2</trackindex>
											<clipindex>2</clipindex>
											<groupindex>1</groupindex>
										</link>
										<labels>
											<label2>Forest</label2>
										</labels>
									</clipitem>
									<clipitem id="clipitem-67" premiereChannelType="stereo">
										<masterclipid>masterclip-29</masterclipid>
										<name>Comp 3 - A3</name>
										<enabled>TRUE</enabled>
										<duration>4290</duration>
										<rate>
											<timebase>30</timebase>
											<ntsc>TRUE</ntsc>
										</rate>
										<start>4903</start>
										<end>5272</end>
										<in>0</in>
										<out>369</out>
										<pproTicksIn>0</pproTicksIn>
										<pproTicksOut>3127521196800</pproTicksOut>
										<sequence id="sequence-10"/>
										<sourcetrack>
											<mediatype>audio</mediatype>
											<trackindex>0</trackindex>
										</sourcetrack>
										<link>
											<linkclipref>clipitem-53</linkclipref>
											<mediatype>video</mediatype>
											<trackindex>1</trackindex>
											<clipindex>3</clipindex>
										</link>
										<link>
											<linkclipref>clipitem-67</linkclipref>
											<mediatype>audio</mediatype>
											<trackindex>1</trackindex>
											<clipindex>3</clipindex>
											<groupindex>1</groupindex>
										</link>
										<link>
											<linkclipref>clipitem-70</linkclipref>
											<mediatype>audio</mediatype>
											<trackindex>2</trackindex>
											<clipindex>3</clipindex>
											<groupindex>1</groupindex>
										</link>
										<labels>
											<label2>Forest</label2>
										</labels>
									</clipitem>
									<enabled>TRUE</enabled>
									<locked>FALSE</locked>
									<outputchannelindex>1</outputchannelindex>
								</track>
								<track TL.SQTrackAudioKeyframeStyle="0" TL.SQTrackShy="0" TL.SQTrackExpandedHeight="25" TL.SQTrackExpanded="0" MZ.TrackTargeted="1" PannerCurrentValue="0.5" PannerIsInverted="true" PannerStartKeyframe="-91445760000000000,0.5,0,0,0,0,0,0" PannerName="Balance" currentExplodedTrackIndex="1" totalExplodedTrackCount="2" premiereTrackType="Stereo">
									<clipitem id="clipitem-68" premiereChannelType="stereo">
										<masterclipid>masterclip-20</masterclipid>
										<name>Comp 1 - A1</name>
										<enabled>TRUE</enabled>
										<duration>5843</duration>
										<rate>
											<timebase>30</timebase>
											<ntsc>TRUE</ntsc>
										</rate>
										<start>95</start>
										<end>1943</end>
										<in>0</in>
										<out>1848</out>
										<pproTicksIn>0</pproTicksIn>
										<pproTicksOut>15663032985600</pproTicksOut>
										<sequence id="sequence-8"/>
										<sourcetrack>
											<mediatype>audio</mediatype>
											<trackindex>1</trackindex>
										</sourcetrack>
										<link>
											<linkclipref>clipitem-42</linkclipref>
											<mediatype>video</mediatype>
											<trackindex>1</trackindex>
											<clipindex>1</clipindex>
										</link>
										<link>
											<linkclipref>clipitem-65</linkclipref>
											<mediatype>audio</mediatype>
											<trackindex>1</trackindex>
											<clipindex>1</clipindex>
											<groupindex>1</groupindex>
										</link>
										<link>
											<linkclipref>clipitem-68</linkclipref>
											<mediatype>audio</mediatype>
											<trackindex>2</trackindex>
											<clipindex>1</clipindex>
											<groupindex>1</groupindex>
										</link>
										<labels>
											<label2>Forest</label2>
										</labels>
									</clipitem>
									<clipitem id="clipitem-69" premiereChannelType="stereo">
										<masterclipid>masterclip-25</masterclipid>
										<name>Comp 2 - A2</name>
										<enabled>TRUE</enabled>
										<duration>6124</duration>
										<rate>
											<timebase>30</timebase>
											<ntsc>TRUE</ntsc>
										</rate>
										<start>2008</start>
										<end>4838</end>
										<in>0</in>
										<out>2830</out>
										<pproTicksIn>0</pproTicksIn>
										<pproTicksOut>23986138176000</pproTicksOut>
										<sequence id="sequence-9"/>
										<sourcetrack>
											<mediatype>audio</mediatype>
											<trackindex>1</trackindex>
										</sourcetrack>
										<link>
											<linkclipref>clipitem-48</linkclipref>
											<mediatype>video</mediatype>
											<trackindex>1</trackindex>
											<clipindex>2</clipindex>
										</link>
										<link>
											<linkclipref>clipitem-66</linkclipref>
											<mediatype>audio</mediatype>
											<trackindex>1</trackindex>
											<clipindex>2</clipindex>
											<groupindex>1</groupindex>
										</link>
										<link>
											<linkclipref>clipitem-69</linkclipref>
											<mediatype>audio</mediatype>
											<trackindex>2</trackindex>
											<clipindex>2</clipindex>
											<groupindex>1</groupindex>
										</link>
										<labels>
											<label2>Forest</label2>
										</labels>
									</clipitem>
									<clipitem id="clipitem-70" premiereChannelType="stereo">
										<masterclipid>masterclip-29</masterclipid>
										<name>Comp 3 - A3</name>
										<enabled>TRUE</enabled>
										<duration>4290</duration>
										<rate>
											<timebase>30</timebase>
											<ntsc>TRUE</ntsc>
										</rate>
										<start>4903</start>
										<end>5272</end>
										<in>0</in>
										<out>369</out>
										<pproTicksIn>0</pproTicksIn>
										<pproTicksOut>3127521196800</pproTicksOut>
										<sequence id="sequence-10"/>
										<sourcetrack>
											<mediatype>audio</mediatype>
											<trackindex>1</trackindex>
										</sourcetrack>
										<link>
											<linkclipref>clipitem-53</linkclipref>
											<mediatype>video</mediatype>
											<trackindex>1</trackindex>
											<clipindex>3</clipindex>
										</link>
										<link>
											<linkclipref>clipitem-67</linkclipref>
											<mediatype>audio</mediatype>
											<trackindex>1</trackindex>
											<clipindex>3</clipindex>
											<groupindex>1</groupindex>
										</link>
										<link>
											<linkclipref>clipitem-70</linkclipref>
											<mediatype>audio</mediatype>
											<trackindex>2</trackindex>
											<clipindex>3</clipindex>
											<groupindex>1</groupindex>
										</link>
										<labels>
											<label2>Forest</label2>
										</labels>
									</clipitem>
									<enabled>TRUE</enabled>
									<locked>FALSE</locked>
									<outputchannelindex>2</outputchannelindex>
								</track>
								<track TL.SQTrackAudioKeyframeStyle="0" TL.SQTrackShy="0" TL.SQTrackExpandedHeight="25" TL.SQTrackExpanded="0" MZ.TrackTargeted="1" PannerCurrentValue="0.5" PannerIsInverted="true" PannerStartKeyframe="-91445760000000000,0.5,0,0,0,0,0,0" PannerName="Balance" currentExplodedTrackIndex="0" totalExplodedTrackCount="2" premiereTrackType="Stereo">
									<clipitem id="clipitem-71" premiereChannelType="stereo">
										<masterclipid>masterclip-18</masterclipid>
										<name>Transition</name>
										<enabled>TRUE</enabled>
										<duration>1559</duration>
										<rate>
											<timebase>30</timebase>
											<ntsc>TRUE</ntsc>
										</rate>
										<start>0</start>
										<end>120</end>
										<in>0</in>
										<out>120</out>
										<pproTicksIn>0</pproTicksIn>
										<pproTicksOut>1017080064000</pproTicksOut>
										<sequence id="sequence-6"/>
										<sourcetrack>
											<mediatype>audio</mediatype>
											<trackindex>0</trackindex>
										</sourcetrack>
											<marker>
												<comment></comment>
												<name></name>
												<in>95</in>
												<out>-1</out>
											</marker>
											<marker>
												<comment></comment>
												<name></name>
												<in>30</in>
												<out>-1</out>
											</marker>
										<link>
											<linkclipref>clipitem-61</linkclipref>
											<mediatype>video</mediatype>
											<trackindex>4</trackindex>
											<clipindex>1</clipindex>
										</link>
										<link>
											<linkclipref>clipitem-71</linkclipref>
											<mediatype>audio</mediatype>
											<trackindex>3</trackindex>
											<clipindex>1</clipindex>
											<groupindex>1</groupindex>
										</link>
										<link>
											<linkclipref>clipitem-75</linkclipref>
											<mediatype>audio</mediatype>
											<trackindex>4</trackindex>
											<clipindex>1</clipindex>
											<groupindex>1</groupindex>
										</link>
										<labels>
											<label2>Forest</label2>
										</labels>
									</clipitem>
									<clipitem id="clipitem-72" premiereChannelType="stereo">
										<masterclipid>masterclip-18</masterclipid>
										<name>Transition</name>
										<enabled>TRUE</enabled>
										<duration>1559</duration>
										<rate>
											<timebase>30</timebase>
											<ntsc>TRUE</ntsc>
										</rate>
										<start>1913</start>
										<end>2033</end>
										<in>0</in>
										<out>120</out>
										<pproTicksIn>0</pproTicksIn>
										<pproTicksOut>1017080064000</pproTicksOut>
										<sequence id="sequence-6"/>
										<sourcetrack>
											<mediatype>audio</mediatype>
											<trackindex>0</trackindex>
										</sourcetrack>
											<marker>
												<comment></comment>
												<name></name>
												<in>95</in>
												<out>-1</out>
											</marker>
											<marker>
												<comment></comment>
												<name></name>
												<in>30</in>
												<out>-1</out>
											</marker>
										<link>
											<linkclipref>clipitem-62</linkclipref>
											<mediatype>video</mediatype>
											<trackindex>4</trackindex>
											<clipindex>2</clipindex>
										</link>
										<link>
											<linkclipref>clipitem-72</linkclipref>
											<mediatype>audio</mediatype>
											<trackindex>3</trackindex>
											<clipindex>2</clipindex>
											<groupindex>1</groupindex>
										</link>
										<link>
											<linkclipref>clipitem-76</linkclipref>
											<mediatype>audio</mediatype>
											<trackindex>4</trackindex>
											<clipindex>2</clipindex>
											<groupindex>1</groupindex>
										</link>
										<labels>
											<label2>Forest</label2>
										</labels>
									</clipitem>
									<clipitem id="clipitem-73" premiereChannelType="stereo">
										<masterclipid>masterclip-18</masterclipid>
										<name>Transition</name>
										<enabled>TRUE</enabled>
										<duration>1559</duration>
										<rate>
											<timebase>30</timebase>
											<ntsc>TRUE</ntsc>
										</rate>
										<start>4808</start>
										<end>4928</end>
										<in>0</in>
										<out>120</out>
										<pproTicksIn>0</pproTicksIn>
										<pproTicksOut>1017080064000</pproTicksOut>
										<sequence id="sequence-6"/>
										<sourcetrack>
											<mediatype>audio</mediatype>
											<trackindex>0</trackindex>
										</sourcetrack>
											<marker>
												<comment></comment>
												<name></name>
												<in>95</in>
												<out>-1</out>
											</marker>
											<marker>
												<comment></comment>
												<name></name>
												<in>30</in>
												<out>-1</out>
											</marker>
										<link>
											<linkclipref>clipitem-63</linkclipref>
											<mediatype>video</mediatype>
											<trackindex>4</trackindex>
											<clipindex>3</clipindex>
										</link>
										<link>
											<linkclipref>clipitem-73</linkclipref>
											<mediatype>audio</mediatype>
											<trackindex>3</trackindex>
											<clipindex>3</clipindex>
											<groupindex>1</groupindex>
										</link>
										<link>
											<linkclipref>clipitem-77</linkclipref>
											<mediatype>audio</mediatype>
											<trackindex>4</trackindex>
											<clipindex>3</clipindex>
											<groupindex>1</groupindex>
										</link>
										<labels>
											<label2>Forest</label2>
										</labels>
									</clipitem>
									<clipitem id="clipitem-74" premiereChannelType="stereo">
										<masterclipid>masterclip-18</masterclipid>
										<name>Transition</name>
										<enabled>TRUE</enabled>
										<duration>1559</duration>
										<rate>
											<timebase>30</timebase>
											<ntsc>TRUE</ntsc>
										</rate>
										<start>5242</start>
										<end>5362</end>
										<in>0</in>
										<out>120</out>
										<pproTicksIn>0</pproTicksIn>
										<pproTicksOut>1017080064000</pproTicksOut>
										<sequence id="sequence-6"/>
										<sourcetrack>
											<mediatype>audio</mediatype>
											<trackindex>0</trackindex>
										</sourcetrack>
											<marker>
												<comment></comment>
												<name></name>
												<in>95</in>
												<out>-1</out>
											</marker>
											<marker>
												<comment></comment>
												<name></name>
												<in>30</in>
												<out>-1</out>
											</marker>
										<link>
											<linkclipref>clipitem-64</linkclipref>
											<mediatype>video</mediatype>
											<trackindex>4</trackindex>
											<clipindex>4</clipindex>
										</link>
										<link>
											<linkclipref>clipitem-74</linkclipref>
											<mediatype>audio</mediatype>
											<trackindex>3</trackindex>
											<clipindex>4</clipindex>
											<groupindex>1</groupindex>
										</link>
										<link>
											<linkclipref>clipitem-78</linkclipref>
											<mediatype>audio</mediatype>
											<trackindex>4</trackindex>
											<clipindex>4</clipindex>
											<groupindex>1</groupindex>
										</link>
										<labels>
											<label2>Forest</label2>
										</labels>
									</clipitem>
									<enabled>TRUE</enabled>
									<locked>FALSE</locked>
									<outputchannelindex>1</outputchannelindex>
								</track>
								<track TL.SQTrackAudioKeyframeStyle="0" TL.SQTrackShy="0" TL.SQTrackExpandedHeight="25" TL.SQTrackExpanded="0" MZ.TrackTargeted="1" PannerCurrentValue="0.5" PannerIsInverted="true" PannerStartKeyframe="-91445760000000000,0.5,0,0,0,0,0,0" PannerName="Balance" currentExplodedTrackIndex="1" totalExplodedTrackCount="2" premiereTrackType="Stereo">
									<clipitem id="clipitem-75" premiereChannelType="stereo">
										<masterclipid>masterclip-18</masterclipid>
										<name>Transition</name>
										<enabled>TRUE</enabled>
										<duration>1559</duration>
										<rate>
											<timebase>30</timebase>
											<ntsc>TRUE</ntsc>
										</rate>
										<start>0</start>
										<end>120</end>
										<in>0</in>
										<out>120</out>
										<pproTicksIn>0</pproTicksIn>
										<pproTicksOut>1017080064000</pproTicksOut>
										<sequence id="sequence-6"/>
										<sourcetrack>
											<mediatype>audio</mediatype>
											<trackindex>1</trackindex>
										</sourcetrack>
											<marker>
												<comment></comment>
												<name></name>
												<in>95</in>
												<out>-1</out>
											</marker>
											<marker>
												<comment></comment>
												<name></name>
												<in>30</in>
												<out>-1</out>
											</marker>
										<link>
											<linkclipref>clipitem-61</linkclipref>
											<mediatype>video</mediatype>
											<trackindex>4</trackindex>
											<clipindex>1</clipindex>
										</link>
										<link>
											<linkclipref>clipitem-71</linkclipref>
											<mediatype>audio</mediatype>
											<trackindex>3</trackindex>
											<clipindex>1</clipindex>
											<groupindex>1</groupindex>
										</link>
										<link>
											<linkclipref>clipitem-75</linkclipref>
											<mediatype>audio</mediatype>
											<trackindex>4</trackindex>
											<clipindex>1</clipindex>
											<groupindex>1</groupindex>
										</link>
										<labels>
											<label2>Forest</label2>
										</labels>
									</clipitem>
									<clipitem id="clipitem-76" premiereChannelType="stereo">
										<masterclipid>masterclip-18</masterclipid>
										<name>Transition</name>
										<enabled>TRUE</enabled>
										<duration>1559</duration>
										<rate>
											<timebase>30</timebase>
											<ntsc>TRUE</ntsc>
										</rate>
										<start>1913</start>
										<end>2033</end>
										<in>0</in>
										<out>120</out>
										<pproTicksIn>0</pproTicksIn>
										<pproTicksOut>1017080064000</pproTicksOut>
										<sequence id="sequence-6"/>
										<sourcetrack>
											<mediatype>audio</mediatype>
											<trackindex>1</trackindex>
										</sourcetrack>
											<marker>
												<comment></comment>
												<name></name>
												<in>95</in>
												<out>-1</out>
											</marker>
											<marker>
												<comment></comment>
												<name></name>
												<in>30</in>
												<out>-1</out>
											</marker>
										<link>
											<linkclipref>clipitem-62</linkclipref>
											<mediatype>video</mediatype>
											<trackindex>4</trackindex>
											<clipindex>2</clipindex>
										</link>
										<link>
											<linkclipref>clipitem-72</linkclipref>
											<mediatype>audio</mediatype>
											<trackindex>3</trackindex>
											<clipindex>2</clipindex>
											<groupindex>1</groupindex>
										</link>
										<link>
											<linkclipref>clipitem-76</linkclipref>
											<mediatype>audio</mediatype>
											<trackindex>4</trackindex>
											<clipindex>2</clipindex>
											<groupindex>1</groupindex>
										</link>
										<labels>
											<label2>Forest</label2>
										</labels>
									</clipitem>
									<clipitem id="clipitem-77" premiereChannelType="stereo">
										<masterclipid>masterclip-18</masterclipid>
										<name>Transition</name>
										<enabled>TRUE</enabled>
										<duration>1559</duration>
										<rate>
											<timebase>30</timebase>
											<ntsc>TRUE</ntsc>
										</rate>
										<start>4808</start>
										<end>4928</end>
										<in>0</in>
										<out>120</out>
										<pproTicksIn>0</pproTicksIn>
										<pproTicksOut>1017080064000</pproTicksOut>
										<sequence id="sequence-6"/>
										<sourcetrack>
											<mediatype>audio</mediatype>
											<trackindex>1</trackindex>
										</sourcetrack>
											<marker>
												<comment></comment>
												<name></name>
												<in>95</in>
												<out>-1</out>
											</marker>
											<marker>
												<comment></comment>
												<name></name>
												<in>30</in>
												<out>-1</out>
											</marker>
										<link>
											<linkclipref>clipitem-63</linkclipref>
											<mediatype>video</mediatype>
											<trackindex>4</trackindex>
											<clipindex>3</clipindex>
										</link>
										<link>
											<linkclipref>clipitem-73</linkclipref>
											<mediatype>audio</mediatype>
											<trackindex>3</trackindex>
											<clipindex>3</clipindex>
											<groupindex>1</groupindex>
										</link>
										<link>
											<linkclipref>clipitem-77</linkclipref>
											<mediatype>audio</mediatype>
											<trackindex>4</trackindex>
											<clipindex>3</clipindex>
											<groupindex>1</groupindex>
										</link>
										<labels>
											<label2>Forest</label2>
										</labels>
									</clipitem>
									<clipitem id="clipitem-78" premiereChannelType="stereo">
										<masterclipid>masterclip-18</masterclipid>
										<name>Transition</name>
										<enabled>TRUE</enabled>
										<duration>1559</duration>
										<rate>
											<timebase>30</timebase>
											<ntsc>TRUE</ntsc>
										</rate>
										<start>5242</start>
										<end>5362</end>
										<in>0</in>
										<out>120</out>
										<pproTicksIn>0</pproTicksIn>
										<pproTicksOut>1017080064000</pproTicksOut>
										<sequence id="sequence-6"/>
										<sourcetrack>
											<mediatype>audio</mediatype>
											<trackindex>1</trackindex>
										</sourcetrack>
											<marker>
												<comment></comment>
												<name></name>
												<in>95</in>
												<out>-1</out>
											</marker>
											<marker>
												<comment></comment>
												<name></name>
												<in>30</in>
												<out>-1</out>
											</marker>
										<link>
											<linkclipref>clipitem-64</linkclipref>
											<mediatype>video</mediatype>
											<trackindex>4</trackindex>
											<clipindex>4</clipindex>
										</link>
										<link>
											<linkclipref>clipitem-74</linkclipref>
											<mediatype>audio</mediatype>
											<trackindex>3</trackindex>
											<clipindex>4</clipindex>
											<groupindex>1</groupindex>
										</link>
										<link>
											<linkclipref>clipitem-78</linkclipref>
											<mediatype>audio</mediatype>
											<trackindex>4</trackindex>
											<clipindex>4</clipindex>
											<groupindex>1</groupindex>
										</link>
										<labels>
											<label2>Forest</label2>
										</labels>
									</clipitem>
									<enabled>TRUE</enabled>
									<locked>FALSE</locked>
									<outputchannelindex>2</outputchannelindex>
								</track>
								<track TL.SQTrackAudioKeyframeStyle="0" TL.SQTrackShy="0" TL.SQTrackExpandedHeight="25" TL.SQTrackExpanded="0" MZ.TrackTargeted="1" PannerCurrentValue="0.5" PannerIsInverted="true" PannerStartKeyframe="-91445760000000000,0.5,0,0,0,0,0,0" PannerName="Balance" currentExplodedTrackIndex="0" totalExplodedTrackCount="2" premiereTrackType="Stereo">
									<enabled>TRUE</enabled>
									<locked>FALSE</locked>
									<outputchannelindex>1</outputchannelindex>
								</track>
								<track TL.SQTrackAudioKeyframeStyle="0" TL.SQTrackShy="0" TL.SQTrackExpandedHeight="25" TL.SQTrackExpanded="0" MZ.TrackTargeted="1" PannerCurrentValue="0.5" PannerIsInverted="true" PannerStartKeyframe="-91445760000000000,0.5,0,0,0,0,0,0" PannerName="Balance" currentExplodedTrackIndex="1" totalExplodedTrackCount="2" premiereTrackType="Stereo">
									<enabled>TRUE</enabled>
									<locked>FALSE</locked>
									<outputchannelindex>2</outputchannelindex>
								</track>
							</audio>
						</media>
						<timecode>
							<rate>
								<timebase>30</timebase>
								<ntsc>TRUE</ntsc>
							</rate>
							<string>00;00;00;00</string>
							<frame>0</frame>
							<displayformat>DF</displayformat>
						</timecode>
						<labels>
							<label2>Forest</label2>
						</labels>
						<logginginfo>
							<description></description>
							<scene></scene>
							<shottake></shottake>
							<lognote></lognote>
							<good></good>
							<originalvideofilename></originalvideofilename>
							<originalaudiofilename></originalaudiofilename>
						</logginginfo>
					</sequence>
					<sequence id="sequence-11" TL.SQAudioVisibleBase="0" TL.SQVideoVisibleBase="0" TL.SQVisibleBaseTime="0" TL.SQAVDividerPosition="0.5" TL.SQHideShyTracks="0" TL.SQHeaderWidth="236" TL.SQDataTrackViewControlState="0" Monitor.ProgramZoomOut="77543879212800" Monitor.ProgramZoomIn="0" TL.SQTimePerPixel="0.26591605691056613" MZ.EditLine="74874044044800" MZ.Sequence.PreviewFrameSizeHeight="1080" MZ.Sequence.PreviewFrameSizeWidth="1920" MZ.Sequence.AudioTimeDisplayFormat="200" MZ.Sequence.PreviewRenderingClassID="1061109567" MZ.Sequence.PreviewRenderingPresetCodec="1634755443" MZ.Sequence.PreviewRenderingPresetPath="EncoderPresets/SequencePreview/35d109db-457b-43c1-9452-9cb7be9f121c/QuickTime.epr" MZ.Sequence.PreviewUseMaxRenderQuality="true" MZ.Sequence.PreviewUseMaxBitDepth="true" MZ.Sequence.EditingModeGUID="35d109db-457b-43c1-9452-9cb7be9f121c" MZ.Sequence.VideoTimeDisplayFormat="102" MZ.WorkOutPoint="15239249625600" MZ.WorkInPoint="0" explodedTracks="true">
						<uuid>35c3505c-b9e0-4953-840b-36310ec88016</uuid>
						<duration>9059</duration>
						<rate>
							<timebase>30</timebase>
							<ntsc>TRUE</ntsc>
						</rate>
						<name>ATM_SEGMENT_002</name>
						<media>
							<video>
								<format>
									<samplecharacteristics>
										<rate>
											<timebase>30</timebase>
											<ntsc>TRUE</ntsc>
										</rate>
										<codec>
											<name>Apple ProRes 422</name>
											<appspecificdata>
												<appname>Final Cut Pro</appname>
												<appmanufacturer>Apple Inc.</appmanufacturer>
												<appversion>7.0</appversion>
												<data>
													<qtcodec>
														<codecname>Apple ProRes 422</codecname>
														<codectypename>Apple ProRes 422</codectypename>
														<codectypecode>apcn</codectypecode>
														<codecvendorcode>appl</codecvendorcode>
														<spatialquality>1024</spatialquality>
														<temporalquality>0</temporalquality>
														<keyframerate>0</keyframerate>
														<datarate>0</datarate>
													</qtcodec>
												</data>
											</appspecificdata>
										</codec>
										<width>1920</width>
										<height>1080</height>
										<anamorphic>FALSE</anamorphic>
										<pixelaspectratio>square</pixelaspectratio>
										<fielddominance>none</fielddominance>
										<colordepth>24</colordepth>
									</samplecharacteristics>
								</format>
								<track TL.SQTrackShy="0" TL.SQTrackExpandedHeight="25" TL.SQTrackExpanded="0" MZ.TrackTargeted="1">
									<clipitem id="clipitem-79">
										<masterclipid>masterclip-35</masterclipid>
										<name>Comp 4 - A1</name>
										<enabled>TRUE</enabled>
										<duration>4411</duration>
										<rate>
											<timebase>30</timebase>
											<ntsc>TRUE</ntsc>
										</rate>
										<start>95</start>
										<end>2570</end>
										<in>0</in>
										<out>2475</out>
										<pproTicksIn>0</pproTicksIn>
										<pproTicksOut>20977276320000</pproTicksOut>
										<sequence id="sequence-12" TL.SQAudioVisibleBase="0" TL.SQVideoVisibleBase="0" TL.SQVisibleBaseTime="0" TL.SQAVDividerPosition="0.5" TL.SQHideShyTracks="0" TL.SQHeaderWidth="236" Monitor.ProgramZoomOut="20977276320000" Monitor.ProgramZoomIn="0" TL.SQTimePerPixel="0.19999999999999998" MZ.EditLine="37388286936000" MZ.Sequence.PreviewFrameSizeHeight="1080" MZ.Sequence.PreviewFrameSizeWidth="1920" MZ.Sequence.AudioTimeDisplayFormat="200" MZ.Sequence.PreviewRenderingClassID="1061109567" MZ.Sequence.PreviewRenderingPresetCodec="1634755443" MZ.Sequence.PreviewRenderingPresetPath="EncoderPresets/SequencePreview/795454d9-d3c2-429d-9474-923ab13b7018/QuickTime.epr" MZ.Sequence.PreviewUseMaxRenderQuality="false" MZ.Sequence.PreviewUseMaxBitDepth="false" MZ.Sequence.EditingModeGUID="795454d9-d3c2-429d-9474-923ab13b7018" MZ.Sequence.VideoTimeDisplayFormat="110" MZ.WorkOutPoint="20977276320000" MZ.WorkInPoint="0">
											<duration>1980</duration>
											<rate>
												<timebase>24</timebase>
												<ntsc>TRUE</ntsc>
											</rate>
											<name>Comp 4 - A1</name>
											<media>
												<video>
													<format>
														<samplecharacteristics>
															<rate>
																<timebase>24</timebase>
																<ntsc>TRUE</ntsc>
															</rate>
															<codec>
																<name>Apple ProRes 422</name>
																<appspecificdata>
																	<appname>Final Cut Pro</appname>
																	<appmanufacturer>Apple Inc.</appmanufacturer>
																	<appversion>7.0</appversion>
																	<data>
																		<qtcodec>
																			<codecname>Apple ProRes 422</codecname>
																			<codectypename>Apple ProRes 422</codectypename>
																			<codectypecode>apcn</codectypecode>
																			<codecvendorcode>appl</codecvendorcode>
																			<spatialquality>1024</spatialquality>
																			<temporalquality>0</temporalquality>
																			<keyframerate>0</keyframerate>
																			<datarate>0</datarate>
																		</qtcodec>
																	</data>
																</appspecificdata>
															</codec>
															<width>1920</width>
															<height>1080</height>
															<anamorphic>FALSE</anamorphic>
															<pixelaspectratio>square</pixelaspectratio>
															<fielddominance>none</fielddominance>
															<colordepth>24</colordepth>
														</samplecharacteristics>
													</format>
													<track TL.SQTrackShy="0" TL.SQTrackExpandedHeight="25" TL.SQTrackExpanded="0" MZ.TrackTargeted="1">
														<clipitem id="clipitem-80">
															<masterclipid>masterclip-36</masterclipid>
															<name>304221_Mountains Trees Aerial Roadside_By_Via_Films_Artlist_HD.mp4</name>
															<enabled>TRUE</enabled>
															<duration>541</duration>
															<rate>
																<timebase>24</timebase>
																<ntsc>TRUE</ntsc>
															</rate>
															<start>0</start>
															<end>541</end>
															<in>0</in>
															<out>541</out>
															<pproTicksIn>0</pproTicksIn>
															<pproTicksOut>5731669944000</pproTicksOut>
															<alphatype>none</alphatype>
															<pixelaspectratio>square</pixelaspectratio>
															<anamorphic>FALSE</anamorphic>
															<file id="file-27">
																<name>304221_Mountains Trees Aerial Roadside_By_Via_Films_Artlist_HD.mp4</name>
																<pathurl>file://localhost/Users/dalecampo/Desktop/Example%20XML%20Project/03_Raw%20Files/Artlist%201/304221_Mountains%20Trees%20Aerial%20Roadside_By_Via_Films_Artlist_HD.mp4</pathurl>
																<rate>
																	<timebase>24</timebase>
																	<ntsc>TRUE</ntsc>
																</rate>
																<duration>541</duration>
																<timecode>
																	<rate>
																		<timebase>24</timebase>
																		<ntsc>TRUE</ntsc>
																	</rate>
																	<string>00:23:32:04</string>
																	<frame>33892</frame>
																	<displayformat>NDF</displayformat>
																</timecode>
																<media>
																	<video>
																		<samplecharacteristics>
																			<rate>
																				<timebase>24</timebase>
																				<ntsc>TRUE</ntsc>
																			</rate>
																			<width>1920</width>
																			<height>1080</height>
																			<anamorphic>FALSE</anamorphic>
																			<pixelaspectratio>square</pixelaspectratio>
																			<fielddominance>none</fielddominance>
																		</samplecharacteristics>
																	</video>
																</media>
															</file>
															<logginginfo>
																<description></description>
																<scene></scene>
																<shottake></shottake>
																<lognote></lognote>
																<good></good>
																<originalvideofilename></originalvideofilename>
																<originalaudiofilename></originalaudiofilename>
															</logginginfo>
															<colorinfo>
																<lut></lut>
																<lut1></lut1>
																<asc_sop></asc_sop>
																<asc_sat></asc_sat>
																<lut2></lut2>
															</colorinfo>
															<labels>
																<label2>Purple</label2>
															</labels>
														</clipitem>
														<clipitem id="clipitem-81">
															<masterclipid>masterclip-37</masterclipid>
															<name>304222_River Landscape Mountains Aerial_By_Via_Films_Artlist_HD.mp4</name>
															<enabled>TRUE</enabled>
															<duration>357</duration>
															<rate>
																<timebase>24</timebase>
																<ntsc>TRUE</ntsc>
															</rate>
															<start>541</start>
															<end>898</end>
															<in>0</in>
															<out>357</out>
															<pproTicksIn>0</pproTicksIn>
															<pproTicksOut>3782266488000</pproTicksOut>
															<alphatype>none</alphatype>
															<pixelaspectratio>square</pixelaspectratio>
															<anamorphic>FALSE</anamorphic>
															<file id="file-28">
																<name>304222_River Landscape Mountains Aerial_By_Via_Films_Artlist_HD.mp4</name>
																<pathurl>file://localhost/Users/dalecampo/Desktop/Example%20XML%20Project/03_Raw%20Files/Artlist%201/304222_River%20Landscape%20Mountains%20Aerial_By_Via_Films_Artlist_HD.mp4</pathurl>
																<rate>
																	<timebase>24</timebase>
																	<ntsc>TRUE</ntsc>
																</rate>
																<duration>357</duration>
																<timecode>
																	<rate>
																		<timebase>24</timebase>
																		<ntsc>TRUE</ntsc>
																	</rate>
																	<string>00:23:38:07</string>
																	<frame>34039</frame>
																	<displayformat>NDF</displayformat>
																</timecode>
																<media>
																	<video>
																		<samplecharacteristics>
																			<rate>
																				<timebase>24</timebase>
																				<ntsc>TRUE</ntsc>
																			</rate>
																			<width>1920</width>
																			<height>1080</height>
																			<anamorphic>FALSE</anamorphic>
																			<pixelaspectratio>square</pixelaspectratio>
																			<fielddominance>none</fielddominance>
																		</samplecharacteristics>
																	</video>
																</media>
															</file>
															<logginginfo>
																<description></description>
																<scene></scene>
																<shottake></shottake>
																<lognote></lognote>
																<good></good>
																<originalvideofilename></originalvideofilename>
																<originalaudiofilename></originalaudiofilename>
															</logginginfo>
															<colorinfo>
																<lut></lut>
																<lut1></lut1>
																<asc_sop></asc_sop>
																<asc_sat></asc_sat>
																<lut2></lut2>
															</colorinfo>
															<labels>
																<label2>Purple</label2>
															</labels>
														</clipitem>
														<clipitem id="clipitem-82">
															<masterclipid>masterclip-38</masterclipid>
															<name>304226_River Countryside Landscape Woodland_By_Via_Films_Artlist_HD.mp4</name>
															<enabled>TRUE</enabled>
															<duration>503</duration>
															<rate>
																<timebase>24</timebase>
																<ntsc>TRUE</ntsc>
															</rate>
															<start>898</start>
															<end>1401</end>
															<in>0</in>
															<out>503</out>
															<pproTicksIn>0</pproTicksIn>
															<pproTicksOut>5329075752000</pproTicksOut>
															<alphatype>none</alphatype>
															<pixelaspectratio>square</pixelaspectratio>
															<anamorphic>FALSE</anamorphic>
															<file id="file-29">
																<name>304226_River Countryside Landscape Woodland_By_Via_Films_Artlist_HD.mp4</name>
																<pathurl>file://localhost/Users/dalecampo/Desktop/Example%20XML%20Project/03_Raw%20Files/Artlist%201/304226_River%20Countryside%20Landscape%20Woodland_By_Via_Films_Artlist_HD.mp4</pathurl>
																<rate>
																	<timebase>24</timebase>
																	<ntsc>TRUE</ntsc>
																</rate>
																<duration>503</duration>
																<timecode>
																	<rate>
																		<timebase>24</timebase>
																		<ntsc>TRUE</ntsc>
																	</rate>
																	<string>00:24:01:08</string>
																	<frame>34592</frame>
																	<displayformat>NDF</displayformat>
																</timecode>
																<media>
																	<video>
																		<samplecharacteristics>
																			<rate>
																				<timebase>24</timebase>
																				<ntsc>TRUE</ntsc>
																			</rate>
																			<width>1920</width>
																			<height>1080</height>
																			<anamorphic>FALSE</anamorphic>
																			<pixelaspectratio>square</pixelaspectratio>
																			<fielddominance>none</fielddominance>
																		</samplecharacteristics>
																	</video>
																</media>
															</file>
															<logginginfo>
																<description></description>
																<scene></scene>
																<shottake></shottake>
																<lognote></lognote>
																<good></good>
																<originalvideofilename></originalvideofilename>
																<originalaudiofilename></originalaudiofilename>
															</logginginfo>
															<colorinfo>
																<lut></lut>
																<lut1></lut1>
																<asc_sop></asc_sop>
																<asc_sat></asc_sat>
																<lut2></lut2>
															</colorinfo>
															<labels>
																<label2>Purple</label2>
															</labels>
														</clipitem>
														<clipitem id="clipitem-83">
															<masterclipid>masterclip-39</masterclipid>
															<name>304227_Herring Bird River Standing_By_Via_Films_Artlist_HD.mp4</name>
															<enabled>TRUE</enabled>
															<duration>579</duration>
															<rate>
																<timebase>24</timebase>
																<ntsc>TRUE</ntsc>
															</rate>
															<start>1401</start>
															<end>1980</end>
															<in>0</in>
															<out>579</out>
															<pproTicksIn>0</pproTicksIn>
															<pproTicksOut>6134264136000</pproTicksOut>
															<alphatype>none</alphatype>
															<pixelaspectratio>square</pixelaspectratio>
															<anamorphic>FALSE</anamorphic>
															<file id="file-30">
																<name>304227_Herring Bird River Standing_By_Via_Films_Artlist_HD.mp4</name>
																<pathurl>file://localhost/Users/dalecampo/Desktop/Example%20XML%20Project/03_Raw%20Files/Artlist%201/304227_Herring%20Bird%20River%20Standing_By_Via_Films_Artlist_HD.mp4</pathurl>
																<rate>
																	<timebase>24</timebase>
																	<ntsc>TRUE</ntsc>
																</rate>
																<duration>579</duration>
																<timecode>
																	<rate>
																		<timebase>24</timebase>
																		<ntsc>TRUE</ntsc>
																	</rate>
																	<string>00:24:26:08</string>
																	<frame>35192</frame>
																	<displayformat>NDF</displayformat>
																</timecode>
																<media>
																	<video>
																		<samplecharacteristics>
																			<rate>
																				<timebase>24</timebase>
																				<ntsc>TRUE</ntsc>
																			</rate>
																			<width>1920</width>
																			<height>1080</height>
																			<anamorphic>FALSE</anamorphic>
																			<pixelaspectratio>square</pixelaspectratio>
																			<fielddominance>none</fielddominance>
																		</samplecharacteristics>
																	</video>
																</media>
															</file>
															<logginginfo>
																<description></description>
																<scene></scene>
																<shottake></shottake>
																<lognote></lognote>
																<good></good>
																<originalvideofilename></originalvideofilename>
																<originalaudiofilename></originalaudiofilename>
															</logginginfo>
															<colorinfo>
																<lut></lut>
																<lut1></lut1>
																<asc_sop></asc_sop>
																<asc_sat></asc_sat>
																<lut2></lut2>
															</colorinfo>
															<labels>
																<label2>Purple</label2>
															</labels>
														</clipitem>
														<enabled>TRUE</enabled>
														<locked>FALSE</locked>
													</track>
													<track TL.SQTrackShy="0" TL.SQTrackExpandedHeight="25" TL.SQTrackExpanded="0" MZ.TrackTargeted="0">
														<enabled>TRUE</enabled>
														<locked>FALSE</locked>
													</track>
													<track TL.SQTrackShy="0" TL.SQTrackExpandedHeight="25" TL.SQTrackExpanded="0" MZ.TrackTargeted="0">
														<enabled>TRUE</enabled>
														<locked>FALSE</locked>
													</track>
												</video>
												<audio>
													<numOutputChannels>2</numOutputChannels>
													<format>
														<samplecharacteristics>
															<depth>16</depth>
															<samplerate>48000</samplerate>
														</samplecharacteristics>
													</format>
													<outputs>
														<group>
															<index>1</index>
															<numchannels>1</numchannels>
															<downmix>0</downmix>
															<channel>
																<index>1</index>
															</channel>
														</group>
														<group>
															<index>2</index>
															<numchannels>1</numchannels>
															<downmix>0</downmix>
															<channel>
																<index>2</index>
															</channel>
														</group>
													</outputs>
													<track TL.SQTrackAudioKeyframeStyle="0" TL.SQTrackShy="0" TL.SQTrackExpandedHeight="25" TL.SQTrackExpanded="0" MZ.TrackTargeted="1" PannerCurrentValue="0.5" PannerIsInverted="true" PannerStartKeyframe="-91445760000000000,0.5,0,0,0,0,0,0" PannerName="Balance" currentExplodedTrackIndex="0" totalExplodedTrackCount="2" premiereTrackType="Stereo">
														<clipitem id="clipitem-84" premiereChannelType="stereo">
															<masterclipid>masterclip-40</masterclipid>
															<name>Hanjo Gabler - Running Herd.wav</name>
															<enabled>TRUE</enabled>
															<duration>3529</duration>
															<rate>
																<timebase>24</timebase>
																<ntsc>TRUE</ntsc>
															</rate>
															<start>0</start>
															<end>1980</end>
															<in>0</in>
															<out>1980</out>
															<pproTicksIn>0</pproTicksIn>
															<pproTicksOut>20977276320000</pproTicksOut>
															<file id="file-31">
																<name>Hanjo Gabler - Running Herd.wav</name>
																<pathurl>file://localhost/Users/dalecampo/Desktop/Example%20XML%20Project/05_Music/Hanjo%20Gabler%20-%20Running%20Herd.wav</pathurl>
																<rate>
																	<timebase>30</timebase>
																	<ntsc>TRUE</ntsc>
																</rate>
																<duration>4411</duration>
																<timecode>
																	<rate>
																		<timebase>30</timebase>
																		<ntsc>TRUE</ntsc>
																	</rate>
																	<string>00;13;46;07</string>
																	<frame>24763</frame>
																	<displayformat>DF</displayformat>
																</timecode>
																<media>
																	<audio>
																		<samplecharacteristics>
																			<depth>16</depth>
																			<samplerate>44100</samplerate>
																		</samplecharacteristics>
																		<channelcount>2</channelcount>
																	</audio>
																</media>
															</file>
															<sourcetrack>
																<mediatype>audio</mediatype>
																<trackindex>1</trackindex>
															</sourcetrack>
															<link>
																<linkclipref>clipitem-84</linkclipref>
																<mediatype>audio</mediatype>
																<trackindex>1</trackindex>
																<clipindex>1</clipindex>
																<groupindex>1</groupindex>
															</link>
															<link>
																<linkclipref>clipitem-85</linkclipref>
																<mediatype>audio</mediatype>
																<trackindex>2</trackindex>
																<clipindex>1</clipindex>
																<groupindex>1</groupindex>
															</link>
															<logginginfo>
																<description></description>
																<scene></scene>
																<shottake></shottake>
																<lognote></lognote>
																<good></good>
																<originalvideofilename></originalvideofilename>
																<originalaudiofilename></originalaudiofilename>
															</logginginfo>
															<colorinfo>
																<lut></lut>
																<lut1></lut1>
																<asc_sop></asc_sop>
																<asc_sat></asc_sat>
																<lut2></lut2>
															</colorinfo>
															<labels>
																<label2>Forest</label2>
															</labels>
														</clipitem>
														<enabled>TRUE</enabled>
														<locked>FALSE</locked>
														<outputchannelindex>1</outputchannelindex>
													</track>
													<track TL.SQTrackAudioKeyframeStyle="0" TL.SQTrackShy="0" TL.SQTrackExpandedHeight="25" TL.SQTrackExpanded="0" MZ.TrackTargeted="1" PannerCurrentValue="0.5" PannerIsInverted="true" PannerStartKeyframe="-91445760000000000,0.5,0,0,0,0,0,0" PannerName="Balance" currentExplodedTrackIndex="1" totalExplodedTrackCount="2" premiereTrackType="Stereo">
														<clipitem id="clipitem-85" premiereChannelType="stereo">
															<masterclipid>masterclip-40</masterclipid>
															<name>Hanjo Gabler - Running Herd.wav</name>
															<enabled>TRUE</enabled>
															<duration>3529</duration>
															<rate>
																<timebase>24</timebase>
																<ntsc>TRUE</ntsc>
															</rate>
															<start>0</start>
															<end>1980</end>
															<in>0</in>
															<out>1980</out>
															<pproTicksIn>0</pproTicksIn>
															<pproTicksOut>20977276320000</pproTicksOut>
															<file id="file-31"/>
															<sourcetrack>
																<mediatype>audio</mediatype>
																<trackindex>2</trackindex>
															</sourcetrack>
															<link>
																<linkclipref>clipitem-84</linkclipref>
																<mediatype>audio</mediatype>
																<trackindex>1</trackindex>
																<clipindex>1</clipindex>
																<groupindex>1</groupindex>
															</link>
															<link>
																<linkclipref>clipitem-85</linkclipref>
																<mediatype>audio</mediatype>
																<trackindex>2</trackindex>
																<clipindex>1</clipindex>
																<groupindex>1</groupindex>
															</link>
															<logginginfo>
																<description></description>
																<scene></scene>
																<shottake></shottake>
																<lognote></lognote>
																<good></good>
																<originalvideofilename></originalvideofilename>
																<originalaudiofilename></originalaudiofilename>
															</logginginfo>
															<colorinfo>
																<lut></lut>
																<lut1></lut1>
																<asc_sop></asc_sop>
																<asc_sat></asc_sat>
																<lut2></lut2>
															</colorinfo>
															<labels>
																<label2>Forest</label2>
															</labels>
														</clipitem>
														<enabled>TRUE</enabled>
														<locked>FALSE</locked>
														<outputchannelindex>2</outputchannelindex>
													</track>
													<track TL.SQTrackAudioKeyframeStyle="0" TL.SQTrackShy="0" TL.SQTrackExpandedHeight="25" TL.SQTrackExpanded="0" MZ.TrackTargeted="1" PannerCurrentValue="0.5" PannerIsInverted="true" PannerStartKeyframe="-91445760000000000,0.5,0,0,0,0,0,0" PannerName="Balance" currentExplodedTrackIndex="0" totalExplodedTrackCount="2" premiereTrackType="Stereo">
														<enabled>TRUE</enabled>
														<locked>FALSE</locked>
														<outputchannelindex>1</outputchannelindex>
													</track>
													<track TL.SQTrackAudioKeyframeStyle="0" TL.SQTrackShy="0" TL.SQTrackExpandedHeight="25" TL.SQTrackExpanded="0" MZ.TrackTargeted="1" PannerCurrentValue="0.5" PannerIsInverted="true" PannerStartKeyframe="-91445760000000000,0.5,0,0,0,0,0,0" PannerName="Balance" currentExplodedTrackIndex="1" totalExplodedTrackCount="2" premiereTrackType="Stereo">
														<enabled>TRUE</enabled>
														<locked>FALSE</locked>
														<outputchannelindex>2</outputchannelindex>
													</track>
													<track TL.SQTrackAudioKeyframeStyle="0" TL.SQTrackShy="0" TL.SQTrackExpandedHeight="25" TL.SQTrackExpanded="0" MZ.TrackTargeted="1" PannerCurrentValue="0.5" PannerIsInverted="true" PannerStartKeyframe="-91445760000000000,0.5,0,0,0,0,0,0" PannerName="Balance" currentExplodedTrackIndex="0" totalExplodedTrackCount="2" premiereTrackType="Stereo">
														<enabled>TRUE</enabled>
														<locked>FALSE</locked>
														<outputchannelindex>1</outputchannelindex>
													</track>
													<track TL.SQTrackAudioKeyframeStyle="0" TL.SQTrackShy="0" TL.SQTrackExpandedHeight="25" TL.SQTrackExpanded="0" MZ.TrackTargeted="1" PannerCurrentValue="0.5" PannerIsInverted="true" PannerStartKeyframe="-91445760000000000,0.5,0,0,0,0,0,0" PannerName="Balance" currentExplodedTrackIndex="1" totalExplodedTrackCount="2" premiereTrackType="Stereo">
														<enabled>TRUE</enabled>
														<locked>FALSE</locked>
														<outputchannelindex>2</outputchannelindex>
													</track>
												</audio>
											</media>
											<timecode>
												<rate>
													<timebase>24</timebase>
													<ntsc>TRUE</ntsc>
												</rate>
												<string>00:00:00:00</string>
												<frame>0</frame>
												<displayformat>NDF</displayformat>
											</timecode>
											<logginginfo>
												<description></description>
												<scene></scene>
												<shottake></shottake>
												<lognote></lognote>
												<good></good>
												<originalvideofilename></originalvideofilename>
												<originalaudiofilename></originalaudiofilename>
											</logginginfo>
										</sequence>
										<link>
											<linkclipref>clipitem-79</linkclipref>
											<mediatype>video</mediatype>
											<trackindex>1</trackindex>
											<clipindex>1</clipindex>
										</link>
										<link>
											<linkclipref>clipitem-108</linkclipref>
											<mediatype>audio</mediatype>
											<trackindex>1</trackindex>
											<clipindex>1</clipindex>
											<groupindex>1</groupindex>
										</link>
										<link>
											<linkclipref>clipitem-111</linkclipref>
											<mediatype>audio</mediatype>
											<trackindex>2</trackindex>
											<clipindex>1</clipindex>
											<groupindex>1</groupindex>
										</link>
										<labels>
											<label2>Forest</label2>
										</labels>
									</clipitem>
									<clipitem id="clipitem-86">
										<masterclipid>masterclip-41</masterclipid>
										<name>Comp 5 - A2</name>
										<enabled>TRUE</enabled>
										<duration>4735</duration>
										<rate>
											<timebase>30</timebase>
											<ntsc>TRUE</ntsc>
										</rate>
										<start>2635</start>
										<end>7241</end>
										<in>0</in>
										<out>4606</out>
										<pproTicksIn>0</pproTicksIn>
										<pproTicksOut>39038923123200</pproTicksOut>
										<sequence id="sequence-13" TL.SQAudioVisibleBase="0" TL.SQVideoVisibleBase="0" TL.SQVisibleBaseTime="0" TL.SQAVDividerPosition="0.5" TL.SQHideShyTracks="0" TL.SQHeaderWidth="236" Monitor.ProgramZoomOut="39047339520000" Monitor.ProgramZoomIn="0" TL.SQTimePerPixel="0.19999999999999998" MZ.EditLine="40134528000000" MZ.Sequence.PreviewFrameSizeHeight="1080" MZ.Sequence.PreviewFrameSizeWidth="1920" MZ.Sequence.AudioTimeDisplayFormat="200" MZ.Sequence.PreviewRenderingClassID="1061109567" MZ.Sequence.PreviewRenderingPresetCodec="1634755443" MZ.Sequence.PreviewRenderingPresetPath="EncoderPresets/SequencePreview/795454d9-d3c2-429d-9474-923ab13b7018/QuickTime.epr" MZ.Sequence.PreviewUseMaxRenderQuality="false" MZ.Sequence.PreviewUseMaxBitDepth="false" MZ.Sequence.EditingModeGUID="795454d9-d3c2-429d-9474-923ab13b7018" MZ.Sequence.VideoTimeDisplayFormat="101" MZ.WorkOutPoint="39047339520000" MZ.WorkInPoint="0">
											<duration>3843</duration>
											<rate>
												<timebase>25</timebase>
												<ntsc>FALSE</ntsc>
											</rate>
											<name>Comp 5 - A2</name>
											<media>
												<video>
													<format>
														<samplecharacteristics>
															<rate>
																<timebase>25</timebase>
																<ntsc>FALSE</ntsc>
															</rate>
															<codec>
																<name>Apple ProRes 422</name>
																<appspecificdata>
																	<appname>Final Cut Pro</appname>
																	<appmanufacturer>Apple Inc.</appmanufacturer>
																	<appversion>7.0</appversion>
																	<data>
																		<qtcodec>
																			<codecname>Apple ProRes 422</codecname>
																			<codectypename>Apple ProRes 422</codectypename>
																			<codectypecode>apcn</codectypecode>
																			<codecvendorcode>appl</codecvendorcode>
																			<spatialquality>1024</spatialquality>
																			<temporalquality>0</temporalquality>
																			<keyframerate>0</keyframerate>
																			<datarate>0</datarate>
																		</qtcodec>
																	</data>
																</appspecificdata>
															</codec>
															<width>1920</width>
															<height>1080</height>
															<anamorphic>FALSE</anamorphic>
															<pixelaspectratio>square</pixelaspectratio>
															<fielddominance>none</fielddominance>
															<colordepth>24</colordepth>
														</samplecharacteristics>
													</format>
													<track TL.SQTrackShy="0" TL.SQTrackExpandedHeight="25" TL.SQTrackExpanded="0" MZ.TrackTargeted="1">
														<clipitem id="clipitem-87">
															<masterclipid>masterclip-42</masterclipid>
															<name>263087_Iceland Glacier Jokulsarlon Lagoon_By_Viktor_Sloth_Artlist_HD.mp4</name>
															<enabled>TRUE</enabled>
															<duration>1163</duration>
															<rate>
																<timebase>25</timebase>
																<ntsc>FALSE</ntsc>
															</rate>
															<start>0</start>
															<end>1163</end>
															<in>0</in>
															<out>1163</out>
															<pproTicksIn>0</pproTicksIn>
															<pproTicksOut>11816824320000</pproTicksOut>
															<alphatype>none</alphatype>
															<pixelaspectratio>square</pixelaspectratio>
															<anamorphic>FALSE</anamorphic>
															<file id="file-32">
																<name>263087_Iceland Glacier Jokulsarlon Lagoon_By_Viktor_Sloth_Artlist_HD.mp4</name>
																<pathurl>file://localhost/Users/dalecampo/Desktop/Example%20XML%20Project/03_Raw%20Files/Artlist%202/263087_Iceland%20Glacier%20Jokulsarlon%20Lagoon_By_Viktor_Sloth_Artlist_HD.mp4</pathurl>
																<rate>
																	<timebase>25</timebase>
																	<ntsc>FALSE</ntsc>
																</rate>
																<duration>1163</duration>
																<timecode>
																	<rate>
																		<timebase>25</timebase>
																		<ntsc>FALSE</ntsc>
																	</rate>
																	<string>08:43:19:16</string>
																	<frame>784991</frame>
																	<displayformat>NDF</displayformat>
																</timecode>
																<media>
																	<video>
																		<samplecharacteristics>
																			<rate>
																				<timebase>25</timebase>
																				<ntsc>FALSE</ntsc>
																			</rate>
																			<width>1920</width>
																			<height>1080</height>
																			<anamorphic>FALSE</anamorphic>
																			<pixelaspectratio>square</pixelaspectratio>
																			<fielddominance>none</fielddominance>
																		</samplecharacteristics>
																	</video>
																</media>
															</file>
															<logginginfo>
																<description></description>
																<scene></scene>
																<shottake></shottake>
																<lognote></lognote>
																<good></good>
																<originalvideofilename></originalvideofilename>
																<originalaudiofilename></originalaudiofilename>
															</logginginfo>
															<colorinfo>
																<lut></lut>
																<lut1></lut1>
																<asc_sop></asc_sop>
																<asc_sat></asc_sat>
																<lut2></lut2>
															</colorinfo>
															<labels>
																<label2>Purple</label2>
															</labels>
														</clipitem>
														<clipitem id="clipitem-88">
															<masterclipid>masterclip-43</masterclipid>
															<name>263090_Glacier Iceberg Iceland Ice_By_Viktor_Sloth_Artlist_HD.mp4</name>
															<enabled>TRUE</enabled>
															<duration>431</duration>
															<rate>
																<timebase>25</timebase>
																<ntsc>FALSE</ntsc>
															</rate>
															<start>1163</start>
															<end>1594</end>
															<in>0</in>
															<out>431</out>
															<pproTicksIn>0</pproTicksIn>
															<pproTicksOut>4379235840000</pproTicksOut>
															<alphatype>none</alphatype>
															<pixelaspectratio>square</pixelaspectratio>
															<anamorphic>FALSE</anamorphic>
															<file id="file-33">
																<name>263090_Glacier Iceberg Iceland Ice_By_Viktor_Sloth_Artlist_HD.mp4</name>
																<pathurl>file://localhost/Users/dalecampo/Desktop/Example%20XML%20Project/03_Raw%20Files/Artlist%202/263090_Glacier%20Iceberg%20Iceland%20Ice_By_Viktor_Sloth_Artlist_HD.mp4</pathurl>
																<rate>
																	<timebase>25</timebase>
																	<ntsc>FALSE</ntsc>
																</rate>
																<duration>431</duration>
																<timecode>
																	<rate>
																		<timebase>25</timebase>
																		<ntsc>FALSE</ntsc>
																	</rate>
																	<string>10:18:04:22</string>
																	<frame>927122</frame>
																	<displayformat>NDF</displayformat>
																</timecode>
																<media>
																	<video>
																		<samplecharacteristics>
																			<rate>
																				<timebase>25</timebase>
																				<ntsc>FALSE</ntsc>
																			</rate>
																			<width>1920</width>
																			<height>1080</height>
																			<anamorphic>FALSE</anamorphic>
																			<pixelaspectratio>square</pixelaspectratio>
																			<fielddominance>none</fielddominance>
																		</samplecharacteristics>
																	</video>
																</media>
															</file>
															<logginginfo>
																<description></description>
																<scene></scene>
																<shottake></shottake>
																<lognote></lognote>
																<good></good>
																<originalvideofilename></originalvideofilename>
																<originalaudiofilename></originalaudiofilename>
															</logginginfo>
															<colorinfo>
																<lut></lut>
																<lut1></lut1>
																<asc_sop></asc_sop>
																<asc_sat></asc_sat>
																<lut2></lut2>
															</colorinfo>
															<labels>
																<label2>Purple</label2>
															</labels>
														</clipitem>
														<clipitem id="clipitem-89">
															<masterclipid>masterclip-44</masterclipid>
															<name>263091_Glacier Iceberg Iceland Ice_By_Viktor_Sloth_Artlist_HD.mp4</name>
															<enabled>TRUE</enabled>
															<duration>244</duration>
															<rate>
																<timebase>25</timebase>
																<ntsc>FALSE</ntsc>
															</rate>
															<start>1594</start>
															<end>1838</end>
															<in>0</in>
															<out>244</out>
															<pproTicksIn>0</pproTicksIn>
															<pproTicksOut>2479196160000</pproTicksOut>
															<alphatype>none</alphatype>
															<pixelaspectratio>square</pixelaspectratio>
															<anamorphic>FALSE</anamorphic>
															<file id="file-34">
																<name>263091_Glacier Iceberg Iceland Ice_By_Viktor_Sloth_Artlist_HD.mp4</name>
																<pathurl>file://localhost/Users/dalecampo/Desktop/Example%20XML%20Project/03_Raw%20Files/Artlist%202/263091_Glacier%20Iceberg%20Iceland%20Ice_By_Viktor_Sloth_Artlist_HD.mp4</pathurl>
																<rate>
																	<timebase>25</timebase>
																	<ntsc>FALSE</ntsc>
																</rate>
																<duration>244</duration>
																<timecode>
																	<rate>
																		<timebase>25</timebase>
																		<ntsc>FALSE</ntsc>
																	</rate>
																	<string>10:23:03:07</string>
																	<frame>934582</frame>
																	<displayformat>NDF</displayformat>
																</timecode>
																<media>
																	<video>
																		<samplecharacteristics>
																			<rate>
																				<timebase>25</timebase>
																				<ntsc>FALSE</ntsc>
																			</rate>
																			<width>1920</width>
																			<height>1080</height>
																			<anamorphic>FALSE</anamorphic>
																			<pixelaspectratio>square</pixelaspectratio>
																			<fielddominance>none</fielddominance>
																		</samplecharacteristics>
																	</video>
																</media>
															</file>
															<logginginfo>
																<description></description>
																<scene></scene>
																<shottake></shottake>
																<lognote></lognote>
																<good></good>
																<originalvideofilename></originalvideofilename>
																<originalaudiofilename></originalaudiofilename>
															</logginginfo>
															<colorinfo>
																<lut></lut>
																<lut1></lut1>
																<asc_sop></asc_sop>
																<asc_sat></asc_sat>
																<lut2></lut2>
															</colorinfo>
															<labels>
																<label2>Purple</label2>
															</labels>
														</clipitem>
														<clipitem id="clipitem-90">
															<masterclipid>masterclip-45</masterclipid>
															<name>263093_Glacier Iceberg Iceland Ice_By_Viktor_Sloth_Artlist_HD.mp4</name>
															<enabled>TRUE</enabled>
															<duration>1457</duration>
															<rate>
																<timebase>25</timebase>
																<ntsc>FALSE</ntsc>
															</rate>
															<start>1838</start>
															<end>3295</end>
															<in>0</in>
															<out>1457</out>
															<pproTicksIn>0</pproTicksIn>
															<pproTicksOut>14804052480000</pproTicksOut>
															<alphatype>none</alphatype>
															<pixelaspectratio>square</pixelaspectratio>
															<anamorphic>FALSE</anamorphic>
															<file id="file-35">
																<name>263093_Glacier Iceberg Iceland Ice_By_Viktor_Sloth_Artlist_HD.mp4</name>
																<pathurl>file://localhost/Users/dalecampo/Desktop/Example%20XML%20Project/03_Raw%20Files/Artlist%202/263093_Glacier%20Iceberg%20Iceland%20Ice_By_Viktor_Sloth_Artlist_HD.mp4</pathurl>
																<rate>
																	<timebase>25</timebase>
																	<ntsc>FALSE</ntsc>
																</rate>
																<duration>1457</duration>
																<timecode>
																	<rate>
																		<timebase>25</timebase>
																		<ntsc>FALSE</ntsc>
																	</rate>
																	<string>15:20:33:10</string>
																	<frame>1380835</frame>
																	<displayformat>NDF</displayformat>
																</timecode>
																<media>
																	<video>
																		<samplecharacteristics>
																			<rate>
																				<timebase>25</timebase>
																				<ntsc>FALSE</ntsc>
																			</rate>
																			<width>1920</width>
																			<height>1080</height>
																			<anamorphic>FALSE</anamorphic>
																			<pixelaspectratio>square</pixelaspectratio>
																			<fielddominance>none</fielddominance>
																		</samplecharacteristics>
																	</video>
																</media>
															</file>
															<logginginfo>
																<description></description>
																<scene></scene>
																<shottake></shottake>
																<lognote></lognote>
																<good></good>
																<originalvideofilename></originalvideofilename>
																<originalaudiofilename></originalaudiofilename>
															</logginginfo>
															<colorinfo>
																<lut></lut>
																<lut1></lut1>
																<asc_sop></asc_sop>
																<asc_sat></asc_sat>
																<lut2></lut2>
															</colorinfo>
															<labels>
																<label2>Purple</label2>
															</labels>
														</clipitem>
														<clipitem id="clipitem-91">
															<masterclipid>masterclip-46</masterclipid>
															<name>263100_Glacier Iceberg Iceland Ice_By_Viktor_Sloth_Artlist_HD.mp4</name>
															<enabled>TRUE</enabled>
															<duration>548</duration>
															<rate>
																<timebase>25</timebase>
																<ntsc>FALSE</ntsc>
															</rate>
															<start>3295</start>
															<end>3843</end>
															<in>0</in>
															<out>548</out>
															<pproTicksIn>0</pproTicksIn>
															<pproTicksOut>5568030720000</pproTicksOut>
															<alphatype>none</alphatype>
															<pixelaspectratio>square</pixelaspectratio>
															<anamorphic>FALSE</anamorphic>
															<file id="file-36">
																<name>263100_Glacier Iceberg Iceland Ice_By_Viktor_Sloth_Artlist_HD.mp4</name>
																<pathurl>file://localhost/Users/dalecampo/Desktop/Example%20XML%20Project/03_Raw%20Files/Artlist%202/263100_Glacier%20Iceberg%20Iceland%20Ice_By_Viktor_Sloth_Artlist_HD.mp4</pathurl>
																<rate>
																	<timebase>25</timebase>
																	<ntsc>FALSE</ntsc>
																</rate>
																<duration>548</duration>
																<timecode>
																	<rate>
																		<timebase>25</timebase>
																		<ntsc>FALSE</ntsc>
																	</rate>
																	<string>02:34:03:13</string>
																	<frame>231088</frame>
																	<displayformat>NDF</displayformat>
																</timecode>
																<media>
																	<video>
																		<samplecharacteristics>
																			<rate>
																				<timebase>25</timebase>
																				<ntsc>FALSE</ntsc>
																			</rate>
																			<width>1920</width>
																			<height>1080</height>
																			<anamorphic>FALSE</anamorphic>
																			<pixelaspectratio>square</pixelaspectratio>
																			<fielddominance>none</fielddominance>
																		</samplecharacteristics>
																	</video>
																</media>
															</file>
															<logginginfo>
																<description></description>
																<scene></scene>
																<shottake></shottake>
																<lognote></lognote>
																<good></good>
																<originalvideofilename></originalvideofilename>
																<originalaudiofilename></originalaudiofilename>
															</logginginfo>
															<colorinfo>
																<lut></lut>
																<lut1></lut1>
																<asc_sop></asc_sop>
																<asc_sat></asc_sat>
																<lut2></lut2>
															</colorinfo>
															<labels>
																<label2>Purple</label2>
															</labels>
														</clipitem>
														<enabled>TRUE</enabled>
														<locked>FALSE</locked>
													</track>
													<track TL.SQTrackShy="0" TL.SQTrackExpandedHeight="25" TL.SQTrackExpanded="0" MZ.TrackTargeted="0">
														<enabled>TRUE</enabled>
														<locked>FALSE</locked>
													</track>
													<track TL.SQTrackShy="0" TL.SQTrackExpandedHeight="25" TL.SQTrackExpanded="0" MZ.TrackTargeted="0">
														<enabled>TRUE</enabled>
														<locked>FALSE</locked>
													</track>
												</video>
												<audio>
													<numOutputChannels>2</numOutputChannels>
													<format>
														<samplecharacteristics>
															<depth>16</depth>
															<samplerate>48000</samplerate>
														</samplecharacteristics>
													</format>
													<outputs>
														<group>
															<index>1</index>
															<numchannels>1</numchannels>
															<downmix>0</downmix>
															<channel>
																<index>1</index>
															</channel>
														</group>
														<group>
															<index>2</index>
															<numchannels>1</numchannels>
															<downmix>0</downmix>
															<channel>
																<index>2</index>
															</channel>
														</group>
													</outputs>
													<track TL.SQTrackAudioKeyframeStyle="0" TL.SQTrackShy="0" TL.SQTrackExpandedHeight="25" TL.SQTrackExpanded="0" MZ.TrackTargeted="1" PannerCurrentValue="0.5" PannerIsInverted="true" PannerStartKeyframe="-91445760000000000,0.5,0,0,0,0,0,0" PannerName="Balance" currentExplodedTrackIndex="0" totalExplodedTrackCount="2" premiereTrackType="Stereo">
														<clipitem id="clipitem-92" premiereChannelType="stereo">
															<masterclipid>masterclip-47</masterclipid>
															<name>Hans Johnson - Remember This.mp3</name>
															<enabled>TRUE</enabled>
															<duration>3950</duration>
															<rate>
																<timebase>25</timebase>
																<ntsc>FALSE</ntsc>
															</rate>
															<start>0</start>
															<end>3843</end>
															<in>0</in>
															<out>3843</out>
															<pproTicksIn>0</pproTicksIn>
															<pproTicksOut>39047339520000</pproTicksOut>
															<file id="file-37">
																<name>Hans Johnson - Remember This.mp3</name>
																<pathurl>file://localhost/Users/dalecampo/Desktop/Example%20XML%20Project/05_Music/Hans%20Johnson%20-%20Remember%20This.mp3</pathurl>
																<rate>
																	<timebase>30</timebase>
																	<ntsc>TRUE</ntsc>
																</rate>
																<duration>4735</duration>
																<timecode>
																	<rate>
																		<timebase>30</timebase>
																		<ntsc>TRUE</ntsc>
																	</rate>
																	<string>00;00;00;00</string>
																	<frame>0</frame>
																	<displayformat>DF</displayformat>
																</timecode>
																<media>
																	<audio>
																		<samplecharacteristics>
																			<depth>16</depth>
																			<samplerate>44100</samplerate>
																		</samplecharacteristics>
																		<channelcount>2</channelcount>
																	</audio>
																</media>
															</file>
															<sourcetrack>
																<mediatype>audio</mediatype>
																<trackindex>1</trackindex>
															</sourcetrack>
															<link>
																<linkclipref>clipitem-92</linkclipref>
																<mediatype>audio</mediatype>
																<trackindex>1</trackindex>
																<clipindex>1</clipindex>
																<groupindex>1</groupindex>
															</link>
															<link>
																<linkclipref>clipitem-93</linkclipref>
																<mediatype>audio</mediatype>
																<trackindex>2</trackindex>
																<clipindex>1</clipindex>
																<groupindex>1</groupindex>
															</link>
															<logginginfo>
																<description></description>
																<scene></scene>
																<shottake></shottake>
																<lognote>All Rights Reserved to www.Art-list.io</lognote>
																<good></good>
																<originalvideofilename></originalvideofilename>
																<originalaudiofilename></originalaudiofilename>
															</logginginfo>
															<colorinfo>
																<lut></lut>
																<lut1></lut1>
																<asc_sop></asc_sop>
																<asc_sat></asc_sat>
																<lut2></lut2>
															</colorinfo>
															<labels>
																<label2>Caribbean</label2>
															</labels>
														</clipitem>
														<enabled>TRUE</enabled>
														<locked>FALSE</locked>
														<outputchannelindex>1</outputchannelindex>
													</track>
													<track TL.SQTrackAudioKeyframeStyle="0" TL.SQTrackShy="0" TL.SQTrackExpandedHeight="25" TL.SQTrackExpanded="0" MZ.TrackTargeted="1" PannerCurrentValue="0.5" PannerIsInverted="true" PannerStartKeyframe="-91445760000000000,0.5,0,0,0,0,0,0" PannerName="Balance" currentExplodedTrackIndex="1" totalExplodedTrackCount="2" premiereTrackType="Stereo">
														<clipitem id="clipitem-93" premiereChannelType="stereo">
															<masterclipid>masterclip-47</masterclipid>
															<name>Hans Johnson - Remember This.mp3</name>
															<enabled>TRUE</enabled>
															<duration>3950</duration>
															<rate>
																<timebase>25</timebase>
																<ntsc>FALSE</ntsc>
															</rate>
															<start>0</start>
															<end>3843</end>
															<in>0</in>
															<out>3843</out>
															<pproTicksIn>0</pproTicksIn>
															<pproTicksOut>39047339520000</pproTicksOut>
															<file id="file-37"/>
															<sourcetrack>
																<mediatype>audio</mediatype>
																<trackindex>2</trackindex>
															</sourcetrack>
															<link>
																<linkclipref>clipitem-92</linkclipref>
																<mediatype>audio</mediatype>
																<trackindex>1</trackindex>
																<clipindex>1</clipindex>
																<groupindex>1</groupindex>
															</link>
															<link>
																<linkclipref>clipitem-93</linkclipref>
																<mediatype>audio</mediatype>
																<trackindex>2</trackindex>
																<clipindex>1</clipindex>
																<groupindex>1</groupindex>
															</link>
															<logginginfo>
																<description></description>
																<scene></scene>
																<shottake></shottake>
																<lognote>All Rights Reserved to www.Art-list.io</lognote>
																<good></good>
																<originalvideofilename></originalvideofilename>
																<originalaudiofilename></originalaudiofilename>
															</logginginfo>
															<colorinfo>
																<lut></lut>
																<lut1></lut1>
																<asc_sop></asc_sop>
																<asc_sat></asc_sat>
																<lut2></lut2>
															</colorinfo>
															<labels>
																<label2>Caribbean</label2>
															</labels>
														</clipitem>
														<enabled>TRUE</enabled>
														<locked>FALSE</locked>
														<outputchannelindex>2</outputchannelindex>
													</track>
													<track TL.SQTrackAudioKeyframeStyle="0" TL.SQTrackShy="0" TL.SQTrackExpandedHeight="25" TL.SQTrackExpanded="0" MZ.TrackTargeted="1" PannerCurrentValue="0.5" PannerIsInverted="true" PannerStartKeyframe="-91445760000000000,0.5,0,0,0,0,0,0" PannerName="Balance" currentExplodedTrackIndex="0" totalExplodedTrackCount="2" premiereTrackType="Stereo">
														<enabled>TRUE</enabled>
														<locked>FALSE</locked>
														<outputchannelindex>1</outputchannelindex>
													</track>
													<track TL.SQTrackAudioKeyframeStyle="0" TL.SQTrackShy="0" TL.SQTrackExpandedHeight="25" TL.SQTrackExpanded="0" MZ.TrackTargeted="1" PannerCurrentValue="0.5" PannerIsInverted="true" PannerStartKeyframe="-91445760000000000,0.5,0,0,0,0,0,0" PannerName="Balance" currentExplodedTrackIndex="1" totalExplodedTrackCount="2" premiereTrackType="Stereo">
														<enabled>TRUE</enabled>
														<locked>FALSE</locked>
														<outputchannelindex>2</outputchannelindex>
													</track>
													<track TL.SQTrackAudioKeyframeStyle="0" TL.SQTrackShy="0" TL.SQTrackExpandedHeight="25" TL.SQTrackExpanded="0" MZ.TrackTargeted="1" PannerCurrentValue="0.5" PannerIsInverted="true" PannerStartKeyframe="-91445760000000000,0.5,0,0,0,0,0,0" PannerName="Balance" currentExplodedTrackIndex="0" totalExplodedTrackCount="2" premiereTrackType="Stereo">
														<enabled>TRUE</enabled>
														<locked>FALSE</locked>
														<outputchannelindex>1</outputchannelindex>
													</track>
													<track TL.SQTrackAudioKeyframeStyle="0" TL.SQTrackShy="0" TL.SQTrackExpandedHeight="25" TL.SQTrackExpanded="0" MZ.TrackTargeted="1" PannerCurrentValue="0.5" PannerIsInverted="true" PannerStartKeyframe="-91445760000000000,0.5,0,0,0,0,0,0" PannerName="Balance" currentExplodedTrackIndex="1" totalExplodedTrackCount="2" premiereTrackType="Stereo">
														<enabled>TRUE</enabled>
														<locked>FALSE</locked>
														<outputchannelindex>2</outputchannelindex>
													</track>
												</audio>
											</media>
											<timecode>
												<rate>
													<timebase>25</timebase>
													<ntsc>FALSE</ntsc>
												</rate>
												<string>00:00:00:00</string>
												<frame>0</frame>
												<displayformat>NDF</displayformat>
											</timecode>
											<logginginfo>
												<description></description>
												<scene></scene>
												<shottake></shottake>
												<lognote></lognote>
												<good></good>
												<originalvideofilename></originalvideofilename>
												<originalaudiofilename></originalaudiofilename>
											</logginginfo>
										</sequence>
										<filter>
											<effect>
												<name>Distort</name>
												<effectid>deformation</effectid>
												<effectcategory>motion</effectcategory>
												<effecttype>motion</effecttype>
												<mediatype>video</mediatype>
												<parameter authoringApp="PremierePro">
													<parameterid>aspect</parameterid>
													<name>Aspect</name>
													<valuemin>-10000</valuemin>
													<valuemax>10000</valuemax>
													<value>-12.5</value>
												</parameter>
											</effect>
										</filter>
										<filter>
											<effect>
												<name>Basic Motion</name>
												<effectid>basic</effectid>
												<effectcategory>motion</effectcategory>
												<effecttype>motion</effecttype>
												<mediatype>video</mediatype>
												<parameter authoringApp="PremierePro">
													<parameterid>scale</parameterid>
													<name>Scale</name>
													<value>112.5</value>
												</parameter>
											</effect>
										</filter>
										<link>
											<linkclipref>clipitem-86</linkclipref>
											<mediatype>video</mediatype>
											<trackindex>1</trackindex>
											<clipindex>2</clipindex>
										</link>
										<link>
											<linkclipref>clipitem-109</linkclipref>
											<mediatype>audio</mediatype>
											<trackindex>1</trackindex>
											<clipindex>2</clipindex>
											<groupindex>1</groupindex>
										</link>
										<link>
											<linkclipref>clipitem-112</linkclipref>
											<mediatype>audio</mediatype>
											<trackindex>2</trackindex>
											<clipindex>2</clipindex>
											<groupindex>1</groupindex>
										</link>
										<labels>
											<label2>Forest</label2>
										</labels>
									</clipitem>
									<clipitem id="clipitem-94">
										<masterclipid>masterclip-48</masterclipid>
										<name>Comp 6 - A3</name>
										<enabled>TRUE</enabled>
										<duration>6719</duration>
										<rate>
											<timebase>30</timebase>
											<ntsc>TRUE</ntsc>
										</rate>
										<start>7306</start>
										<end>9059</end>
										<in>0</in>
										<out>1753</out>
										<pproTicksIn>0</pproTicksIn>
										<pproTicksOut>14857844601600</pproTicksOut>
										<sequence id="sequence-14" TL.SQAudioVisibleBase="0" TL.SQVideoVisibleBase="0" TL.SQVisibleBaseTime="0" TL.SQAVDividerPosition="0.5" TL.SQHideShyTracks="0" TL.SQHeaderWidth="236" Monitor.ProgramZoomOut="14865016320000" Monitor.ProgramZoomIn="0" TL.SQTimePerPixel="0.19999999999999998" MZ.EditLine="12950819481600" MZ.Sequence.PreviewFrameSizeHeight="1080" MZ.Sequence.PreviewFrameSizeWidth="1920" MZ.Sequence.AudioTimeDisplayFormat="200" MZ.Sequence.PreviewRenderingClassID="1061109567" MZ.Sequence.PreviewRenderingPresetCodec="1634755443" MZ.Sequence.PreviewRenderingPresetPath="EncoderPresets/SequencePreview/795454d9-d3c2-429d-9474-923ab13b7018/QuickTime.epr" MZ.Sequence.PreviewUseMaxRenderQuality="false" MZ.Sequence.PreviewUseMaxBitDepth="false" MZ.Sequence.EditingModeGUID="795454d9-d3c2-429d-9474-923ab13b7018" MZ.Sequence.VideoTimeDisplayFormat="101" MZ.WorkOutPoint="14865016320000" MZ.WorkInPoint="0">
											<duration>1463</duration>
											<rate>
												<timebase>25</timebase>
												<ntsc>FALSE</ntsc>
											</rate>
											<name>Comp 6 - A3</name>
											<media>
												<video>
													<format>
														<samplecharacteristics>
															<rate>
																<timebase>25</timebase>
																<ntsc>FALSE</ntsc>
															</rate>
															<codec>
																<name>Apple ProRes 422</name>
																<appspecificdata>
																	<appname>Final Cut Pro</appname>
																	<appmanufacturer>Apple Inc.</appmanufacturer>
																	<appversion>7.0</appversion>
																	<data>
																		<qtcodec>
																			<codecname>Apple ProRes 422</codecname>
																			<codectypename>Apple ProRes 422</codectypename>
																			<codectypecode>apcn</codectypecode>
																			<codecvendorcode>appl</codecvendorcode>
																			<spatialquality>1024</spatialquality>
																			<temporalquality>0</temporalquality>
																			<keyframerate>0</keyframerate>
																			<datarate>0</datarate>
																		</qtcodec>
																	</data>
																</appspecificdata>
															</codec>
															<width>1920</width>
															<height>1080</height>
															<anamorphic>FALSE</anamorphic>
															<pixelaspectratio>square</pixelaspectratio>
															<fielddominance>none</fielddominance>
															<colordepth>24</colordepth>
														</samplecharacteristics>
													</format>
													<track TL.SQTrackShy="0" TL.SQTrackExpandedHeight="25" TL.SQTrackExpanded="0" MZ.TrackTargeted="1">
														<clipitem id="clipitem-95">
															<masterclipid>masterclip-49</masterclipid>
															<name>164521_Mountains and trees in Thailand_By_Roma_Black_Artlist_HD.mp4</name>
															<enabled>TRUE</enabled>
															<duration>245</duration>
															<rate>
																<timebase>25</timebase>
																<ntsc>FALSE</ntsc>
															</rate>
															<start>0</start>
															<end>245</end>
															<in>0</in>
															<out>245</out>
															<pproTicksIn>0</pproTicksIn>
															<pproTicksOut>2489356800000</pproTicksOut>
															<alphatype>none</alphatype>
															<pixelaspectratio>square</pixelaspectratio>
															<anamorphic>FALSE</anamorphic>
															<file id="file-38">
																<name>164521_Mountains and trees in Thailand_By_Roma_Black_Artlist_HD.mp4</name>
																<pathurl>file://localhost/Users/dalecampo/Desktop/Example%20XML%20Project/03_Raw%20Files/Artlist%203/164521_Mountains%20and%20trees%20in%20Thailand_By_Roma_Black_Artlist_HD.mp4</pathurl>
																<rate>
																	<timebase>25</timebase>
																	<ntsc>FALSE</ntsc>
																</rate>
																<duration>245</duration>
																<timecode>
																	<rate>
																		<timebase>25</timebase>
																		<ntsc>FALSE</ntsc>
																	</rate>
																	<string>00:00:10:02</string>
																	<frame>252</frame>
																	<displayformat>NDF</displayformat>
																</timecode>
																<media>
																	<video>
																		<samplecharacteristics>
																			<rate>
																				<timebase>25</timebase>
																				<ntsc>FALSE</ntsc>
																			</rate>
																			<width>1920</width>
																			<height>1080</height>
																			<anamorphic>FALSE</anamorphic>
																			<pixelaspectratio>square</pixelaspectratio>
																			<fielddominance>none</fielddominance>
																		</samplecharacteristics>
																	</video>
																</media>
															</file>
															<logginginfo>
																<description></description>
																<scene></scene>
																<shottake></shottake>
																<lognote></lognote>
																<good></good>
																<originalvideofilename></originalvideofilename>
																<originalaudiofilename></originalaudiofilename>
															</logginginfo>
															<colorinfo>
																<lut></lut>
																<lut1></lut1>
																<asc_sop></asc_sop>
																<asc_sat></asc_sat>
																<lut2></lut2>
															</colorinfo>
															<labels>
																<label2>Purple</label2>
															</labels>
														</clipitem>
														<clipitem id="clipitem-96">
															<masterclipid>masterclip-50</masterclipid>
															<name>164524_Mountains and trees in Thailand_By_Roma_Black_Artlist_HD.mp4</name>
															<enabled>TRUE</enabled>
															<duration>421</duration>
															<rate>
																<timebase>25</timebase>
																<ntsc>FALSE</ntsc>
															</rate>
															<start>245</start>
															<end>666</end>
															<in>0</in>
															<out>421</out>
															<pproTicksIn>0</pproTicksIn>
															<pproTicksOut>4277629440000</pproTicksOut>
															<alphatype>none</alphatype>
															<pixelaspectratio>square</pixelaspectratio>
															<anamorphic>FALSE</anamorphic>
															<file id="file-39">
																<name>164524_Mountains and trees in Thailand_By_Roma_Black_Artlist_HD.mp4</name>
																<pathurl>file://localhost/Users/dalecampo/Desktop/Example%20XML%20Project/03_Raw%20Files/Artlist%203/164524_Mountains%20and%20trees%20in%20Thailand_By_Roma_Black_Artlist_HD.mp4</pathurl>
																<rate>
																	<timebase>25</timebase>
																	<ntsc>FALSE</ntsc>
																</rate>
																<duration>421</duration>
																<timecode>
																	<rate>
																		<timebase>25</timebase>
																		<ntsc>FALSE</ntsc>
																	</rate>
																	<string>00:01:31:06</string>
																	<frame>2281</frame>
																	<displayformat>NDF</displayformat>
																</timecode>
																<media>
																	<video>
																		<samplecharacteristics>
																			<rate>
																				<timebase>25</timebase>
																				<ntsc>FALSE</ntsc>
																			</rate>
																			<width>1920</width>
																			<height>1080</height>
																			<anamorphic>FALSE</anamorphic>
																			<pixelaspectratio>square</pixelaspectratio>
																			<fielddominance>none</fielddominance>
																		</samplecharacteristics>
																	</video>
																</media>
															</file>
															<logginginfo>
																<description></description>
																<scene></scene>
																<shottake></shottake>
																<lognote></lognote>
																<good></good>
																<originalvideofilename></originalvideofilename>
																<originalaudiofilename></originalaudiofilename>
															</logginginfo>
															<colorinfo>
																<lut></lut>
																<lut1></lut1>
																<asc_sop></asc_sop>
																<asc_sat></asc_sat>
																<lut2></lut2>
															</colorinfo>
															<labels>
																<label2>Purple</label2>
															</labels>
														</clipitem>
														<clipitem id="clipitem-97">
															<masterclipid>masterclip-51</masterclipid>
															<name>164527_Mountains and trees in Thailand_By_Roma_Black_Artlist_HD.mp4</name>
															<enabled>TRUE</enabled>
															<duration>797</duration>
															<rate>
																<timebase>25</timebase>
																<ntsc>FALSE</ntsc>
															</rate>
															<start>666</start>
															<end>1463</end>
															<in>0</in>
															<out>797</out>
															<pproTicksIn>0</pproTicksIn>
															<pproTicksOut>8098030080000</pproTicksOut>
															<alphatype>none</alphatype>
															<pixelaspectratio>square</pixelaspectratio>
															<anamorphic>FALSE</anamorphic>
															<file id="file-40">
																<name>164527_Mountains and trees in Thailand_By_Roma_Black_Artlist_HD.mp4</name>
																<pathurl>file://localhost/Users/dalecampo/Desktop/Example%20XML%20Project/03_Raw%20Files/Artlist%203/164527_Mountains%20and%20trees%20in%20Thailand_By_Roma_Black_Artlist_HD.mp4</pathurl>
																<rate>
																	<timebase>25</timebase>
																	<ntsc>FALSE</ntsc>
																</rate>
																<duration>797</duration>
																<timecode>
																	<rate>
																		<timebase>25</timebase>
																		<ntsc>FALSE</ntsc>
																	</rate>
																	<string>00:00:17:12</string>
																	<frame>437</frame>
																	<displayformat>NDF</displayformat>
																</timecode>
																<media>
																	<video>
																		<samplecharacteristics>
																			<rate>
																				<timebase>25</timebase>
																				<ntsc>FALSE</ntsc>
																			</rate>
																			<width>1920</width>
																			<height>1080</height>
																			<anamorphic>FALSE</anamorphic>
																			<pixelaspectratio>square</pixelaspectratio>
																			<fielddominance>none</fielddominance>
																		</samplecharacteristics>
																	</video>
																</media>
															</file>
															<logginginfo>
																<description></description>
																<scene></scene>
																<shottake></shottake>
																<lognote></lognote>
																<good></good>
																<originalvideofilename></originalvideofilename>
																<originalaudiofilename></originalaudiofilename>
															</logginginfo>
															<colorinfo>
																<lut></lut>
																<lut1></lut1>
																<asc_sop></asc_sop>
																<asc_sat></asc_sat>
																<lut2></lut2>
															</colorinfo>
															<labels>
																<label2>Purple</label2>
															</labels>
														</clipitem>
														<enabled>TRUE</enabled>
														<locked>FALSE</locked>
													</track>
													<track TL.SQTrackShy="0" TL.SQTrackExpandedHeight="25" TL.SQTrackExpanded="0" MZ.TrackTargeted="0">
														<enabled>TRUE</enabled>
														<locked>FALSE</locked>
													</track>
													<track TL.SQTrackShy="0" TL.SQTrackExpandedHeight="25" TL.SQTrackExpanded="0" MZ.TrackTargeted="0">
														<enabled>TRUE</enabled>
														<locked>FALSE</locked>
													</track>
												</video>
												<audio>
													<numOutputChannels>2</numOutputChannels>
													<format>
														<samplecharacteristics>
															<depth>16</depth>
															<samplerate>48000</samplerate>
														</samplecharacteristics>
													</format>
													<outputs>
														<group>
															<index>1</index>
															<numchannels>1</numchannels>
															<downmix>0</downmix>
															<channel>
																<index>1</index>
															</channel>
														</group>
														<group>
															<index>2</index>
															<numchannels>1</numchannels>
															<downmix>0</downmix>
															<channel>
																<index>2</index>
															</channel>
														</group>
													</outputs>
													<track TL.SQTrackAudioKeyframeStyle="0" TL.SQTrackShy="0" TL.SQTrackExpandedHeight="25" TL.SQTrackExpanded="0" MZ.TrackTargeted="1" PannerCurrentValue="0.5" PannerIsInverted="true" PannerStartKeyframe="-91445760000000000,0.5,0,0,0,0,0,0" PannerName="Balance" currentExplodedTrackIndex="0" totalExplodedTrackCount="2" premiereTrackType="Stereo">
														<clipitem id="clipitem-98" premiereChannelType="stereo">
															<masterclipid>masterclip-52</masterclipid>
															<name>Ian Post - First Rain - Piano  Leads Version.wav</name>
															<enabled>TRUE</enabled>
															<duration>5605</duration>
															<rate>
																<timebase>25</timebase>
																<ntsc>FALSE</ntsc>
															</rate>
															<start>0</start>
															<end>1463</end>
															<in>0</in>
															<out>1463</out>
															<pproTicksIn>0</pproTicksIn>
															<pproTicksOut>14865016320000</pproTicksOut>
															<file id="file-41">
																<name>Ian Post - First Rain - Piano  Leads Version.wav</name>
																<pathurl>file://localhost/Users/dalecampo/Desktop/Example%20XML%20Project/05_Music/Ian%20Post%20-%20First%20Rain%20-%20Piano%20%20Leads%20Version.wav</pathurl>
																<rate>
																	<timebase>30</timebase>
																	<ntsc>TRUE</ntsc>
																</rate>
																<duration>6719</duration>
																<timecode>
																	<rate>
																		<timebase>30</timebase>
																		<ntsc>TRUE</ntsc>
																	</rate>
																	<string>00;00;00;12</string>
																	<frame>12</frame>
																	<displayformat>DF</displayformat>
																</timecode>
																<media>
																	<audio>
																		<samplecharacteristics>
																			<depth>16</depth>
																			<samplerate>44100</samplerate>
																		</samplecharacteristics>
																		<channelcount>2</channelcount>
																	</audio>
																</media>
															</file>
															<sourcetrack>
																<mediatype>audio</mediatype>
																<trackindex>1</trackindex>
															</sourcetrack>
															<link>
																<linkclipref>clipitem-98</linkclipref>
																<mediatype>audio</mediatype>
																<trackindex>1</trackindex>
																<clipindex>1</clipindex>
																<groupindex>1</groupindex>
															</link>
															<link>
																<linkclipref>clipitem-99</linkclipref>
																<mediatype>audio</mediatype>
																<trackindex>2</trackindex>
																<clipindex>1</clipindex>
																<groupindex>1</groupindex>
															</link>
															<logginginfo>
																<description></description>
																<scene></scene>
																<shottake></shottake>
																<lognote></lognote>
																<good></good>
																<originalvideofilename></originalvideofilename>
																<originalaudiofilename></originalaudiofilename>
															</logginginfo>
															<colorinfo>
																<lut></lut>
																<lut1></lut1>
																<asc_sop></asc_sop>
																<asc_sat></asc_sat>
																<lut2></lut2>
															</colorinfo>
															<labels>
																<label2>Violet</label2>
															</labels>
														</clipitem>
														<enabled>TRUE</enabled>
														<locked>FALSE</locked>
														<outputchannelindex>1</outputchannelindex>
													</track>
													<track TL.SQTrackAudioKeyframeStyle="0" TL.SQTrackShy="0" TL.SQTrackExpandedHeight="25" TL.SQTrackExpanded="0" MZ.TrackTargeted="1" PannerCurrentValue="0.5" PannerIsInverted="true" PannerStartKeyframe="-91445760000000000,0.5,0,0,0,0,0,0" PannerName="Balance" currentExplodedTrackIndex="1" totalExplodedTrackCount="2" premiereTrackType="Stereo">
														<clipitem id="clipitem-99" premiereChannelType="stereo">
															<masterclipid>masterclip-52</masterclipid>
															<name>Ian Post - First Rain - Piano  Leads Version.wav</name>
															<enabled>TRUE</enabled>
															<duration>5605</duration>
															<rate>
																<timebase>25</timebase>
																<ntsc>FALSE</ntsc>
															</rate>
															<start>0</start>
															<end>1463</end>
															<in>0</in>
															<out>1463</out>
															<pproTicksIn>0</pproTicksIn>
															<pproTicksOut>14865016320000</pproTicksOut>
															<file id="file-41"/>
															<sourcetrack>
																<mediatype>audio</mediatype>
																<trackindex>2</trackindex>
															</sourcetrack>
															<link>
																<linkclipref>clipitem-98</linkclipref>
																<mediatype>audio</mediatype>
																<trackindex>1</trackindex>
																<clipindex>1</clipindex>
																<groupindex>1</groupindex>
															</link>
															<link>
																<linkclipref>clipitem-99</linkclipref>
																<mediatype>audio</mediatype>
																<trackindex>2</trackindex>
																<clipindex>1</clipindex>
																<groupindex>1</groupindex>
															</link>
															<logginginfo>
																<description></description>
																<scene></scene>
																<shottake></shottake>
																<lognote></lognote>
																<good></good>
																<originalvideofilename></originalvideofilename>
																<originalaudiofilename></originalaudiofilename>
															</logginginfo>
															<colorinfo>
																<lut></lut>
																<lut1></lut1>
																<asc_sop></asc_sop>
																<asc_sat></asc_sat>
																<lut2></lut2>
															</colorinfo>
															<labels>
																<label2>Violet</label2>
															</labels>
														</clipitem>
														<enabled>TRUE</enabled>
														<locked>FALSE</locked>
														<outputchannelindex>2</outputchannelindex>
													</track>
													<track TL.SQTrackAudioKeyframeStyle="0" TL.SQTrackShy="0" TL.SQTrackExpandedHeight="25" TL.SQTrackExpanded="0" MZ.TrackTargeted="1" PannerCurrentValue="0.5" PannerIsInverted="true" PannerStartKeyframe="-91445760000000000,0.5,0,0,0,0,0,0" PannerName="Balance" currentExplodedTrackIndex="0" totalExplodedTrackCount="2" premiereTrackType="Stereo">
														<enabled>TRUE</enabled>
														<locked>FALSE</locked>
														<outputchannelindex>1</outputchannelindex>
													</track>
													<track TL.SQTrackAudioKeyframeStyle="0" TL.SQTrackShy="0" TL.SQTrackExpandedHeight="25" TL.SQTrackExpanded="0" MZ.TrackTargeted="1" PannerCurrentValue="0.5" PannerIsInverted="true" PannerStartKeyframe="-91445760000000000,0.5,0,0,0,0,0,0" PannerName="Balance" currentExplodedTrackIndex="1" totalExplodedTrackCount="2" premiereTrackType="Stereo">
														<enabled>TRUE</enabled>
														<locked>FALSE</locked>
														<outputchannelindex>2</outputchannelindex>
													</track>
													<track TL.SQTrackAudioKeyframeStyle="0" TL.SQTrackShy="0" TL.SQTrackExpandedHeight="25" TL.SQTrackExpanded="0" MZ.TrackTargeted="1" PannerCurrentValue="0.5" PannerIsInverted="true" PannerStartKeyframe="-91445760000000000,0.5,0,0,0,0,0,0" PannerName="Balance" currentExplodedTrackIndex="0" totalExplodedTrackCount="2" premiereTrackType="Stereo">
														<enabled>TRUE</enabled>
														<locked>FALSE</locked>
														<outputchannelindex>1</outputchannelindex>
													</track>
													<track TL.SQTrackAudioKeyframeStyle="0" TL.SQTrackShy="0" TL.SQTrackExpandedHeight="25" TL.SQTrackExpanded="0" MZ.TrackTargeted="1" PannerCurrentValue="0.5" PannerIsInverted="true" PannerStartKeyframe="-91445760000000000,0.5,0,0,0,0,0,0" PannerName="Balance" currentExplodedTrackIndex="1" totalExplodedTrackCount="2" premiereTrackType="Stereo">
														<enabled>TRUE</enabled>
														<locked>FALSE</locked>
														<outputchannelindex>2</outputchannelindex>
													</track>
												</audio>
											</media>
											<timecode>
												<rate>
													<timebase>25</timebase>
													<ntsc>FALSE</ntsc>
												</rate>
												<string>00:00:00:00</string>
												<frame>0</frame>
												<displayformat>NDF</displayformat>
											</timecode>
											<logginginfo>
												<description></description>
												<scene></scene>
												<shottake></shottake>
												<lognote></lognote>
												<good></good>
												<originalvideofilename></originalvideofilename>
												<originalaudiofilename></originalaudiofilename>
											</logginginfo>
										</sequence>
										<link>
											<linkclipref>clipitem-94</linkclipref>
											<mediatype>video</mediatype>
											<trackindex>1</trackindex>
											<clipindex>3</clipindex>
										</link>
										<link>
											<linkclipref>clipitem-110</linkclipref>
											<mediatype>audio</mediatype>
											<trackindex>1</trackindex>
											<clipindex>3</clipindex>
											<groupindex>1</groupindex>
										</link>
										<link>
											<linkclipref>clipitem-113</linkclipref>
											<mediatype>audio</mediatype>
											<trackindex>2</trackindex>
											<clipindex>3</clipindex>
											<groupindex>1</groupindex>
										</link>
										<labels>
											<label2>Forest</label2>
										</labels>
									</clipitem>
									<enabled>TRUE</enabled>
									<locked>FALSE</locked>
								</track>
								<track TL.SQTrackShy="0" TL.SQTrackExpandedHeight="25" TL.SQTrackExpanded="0" MZ.TrackTargeted="0">
									<clipitem id="clipitem-100">
										<masterclipid>masterclip-53</masterclipid>
										<name>L3 4</name>
										<enabled>TRUE</enabled>
										<duration>1294705</duration>
										<rate>
											<timebase>30</timebase>
											<ntsc>TRUE</ntsc>
										</rate>
										<start>95</start>
										<end>2570</end>
										<in>107892</in>
										<out>110367</out>
										<pproTicksIn>914456685542400</pproTicksIn>
										<pproTicksOut>935433961862400</pproTicksOut>
										<alphatype>none</alphatype>
										<pixelaspectratio>square</pixelaspectratio>
										<anamorphic>FALSE</anamorphic>
										<file id="file-42">
											<name>Black Video</name>
											<mediaSource>Slug</mediaSource>
											<rate>
												<timebase>30</timebase>
												<ntsc>TRUE</ntsc>
											</rate>
											<timecode>
												<rate>
													<timebase>30</timebase>
													<ntsc>TRUE</ntsc>
												</rate>
												<string>00;00;00;00</string>
												<frame>0</frame>
												<displayformat>DF</displayformat>
											</timecode>
											<media>
												<video>
													<samplecharacteristics>
														<rate>
															<timebase>30</timebase>
															<ntsc>TRUE</ntsc>
														</rate>
														<width>1920</width>
														<height>1080</height>
														<anamorphic>FALSE</anamorphic>
														<pixelaspectratio>square</pixelaspectratio>
														<fielddominance>none</fielddominance>
													</samplecharacteristics>
												</video>
											</media>
										</file>
										<logginginfo>
											<description></description>
											<scene></scene>
											<shottake></shottake>
											<lognote></lognote>
											<good></good>
											<originalvideofilename></originalvideofilename>
											<originalaudiofilename></originalaudiofilename>
										</logginginfo>
										<colorinfo>
											<lut></lut>
											<lut1></lut1>
											<asc_sop></asc_sop>
											<asc_sat></asc_sat>
											<lut2></lut2>
										</colorinfo>
										<labels>
											<label2>Lavender</label2>
										</labels>
									</clipitem>
									<clipitem id="clipitem-101">
										<masterclipid>masterclip-54</masterclipid>
										<name>L3 5</name>
										<enabled>TRUE</enabled>
										<duration>1294705</duration>
										<rate>
											<timebase>30</timebase>
											<ntsc>TRUE</ntsc>
										</rate>
										<start>2635</start>
										<end>7241</end>
										<in>107892</in>
										<out>112498</out>
										<pproTicksIn>914456685542400</pproTicksIn>
										<pproTicksOut>953495608665600</pproTicksOut>
										<alphatype>none</alphatype>
										<pixelaspectratio>square</pixelaspectratio>
										<anamorphic>FALSE</anamorphic>
										<file id="file-43">
											<name>Black Video</name>
											<mediaSource>Slug</mediaSource>
											<rate>
												<timebase>30</timebase>
												<ntsc>TRUE</ntsc>
											</rate>
											<timecode>
												<rate>
													<timebase>30</timebase>
													<ntsc>TRUE</ntsc>
												</rate>
												<string>00;00;00;00</string>
												<frame>0</frame>
												<displayformat>DF</displayformat>
											</timecode>
											<media>
												<video>
													<samplecharacteristics>
														<rate>
															<timebase>30</timebase>
															<ntsc>TRUE</ntsc>
														</rate>
														<width>1920</width>
														<height>1080</height>
														<anamorphic>FALSE</anamorphic>
														<pixelaspectratio>square</pixelaspectratio>
														<fielddominance>none</fielddominance>
													</samplecharacteristics>
												</video>
											</media>
										</file>
										<logginginfo>
											<description></description>
											<scene></scene>
											<shottake></shottake>
											<lognote></lognote>
											<good></good>
											<originalvideofilename></originalvideofilename>
											<originalaudiofilename></originalaudiofilename>
										</logginginfo>
										<colorinfo>
											<lut></lut>
											<lut1></lut1>
											<asc_sop></asc_sop>
											<asc_sat></asc_sat>
											<lut2></lut2>
										</colorinfo>
										<labels>
											<label2>Lavender</label2>
										</labels>
									</clipitem>
									<clipitem id="clipitem-102">
										<masterclipid>masterclip-55</masterclipid>
										<name>L3 6</name>
										<enabled>TRUE</enabled>
										<duration>1294705</duration>
										<rate>
											<timebase>30</timebase>
											<ntsc>TRUE</ntsc>
										</rate>
										<start>7306</start>
										<end>9059</end>
										<in>107892</in>
										<out>109645</out>
										<pproTicksIn>914456685542400</pproTicksIn>
										<pproTicksOut>929314530144000</pproTicksOut>
										<alphatype>none</alphatype>
										<pixelaspectratio>square</pixelaspectratio>
										<anamorphic>FALSE</anamorphic>
										<file id="file-44">
											<name>Black Video</name>
											<mediaSource>Slug</mediaSource>
											<rate>
												<timebase>30</timebase>
												<ntsc>TRUE</ntsc>
											</rate>
											<timecode>
												<rate>
													<timebase>30</timebase>
													<ntsc>TRUE</ntsc>
												</rate>
												<string>00;00;00;00</string>
												<frame>0</frame>
												<displayformat>DF</displayformat>
											</timecode>
											<media>
												<video>
													<samplecharacteristics>
														<rate>
															<timebase>30</timebase>
															<ntsc>TRUE</ntsc>
														</rate>
														<width>1920</width>
														<height>1080</height>
														<anamorphic>FALSE</anamorphic>
														<pixelaspectratio>square</pixelaspectratio>
														<fielddominance>none</fielddominance>
													</samplecharacteristics>
												</video>
											</media>
										</file>
										<logginginfo>
											<description></description>
											<scene></scene>
											<shottake></shottake>
											<lognote></lognote>
											<good></good>
											<originalvideofilename></originalvideofilename>
											<originalaudiofilename></originalaudiofilename>
										</logginginfo>
										<colorinfo>
											<lut></lut>
											<lut1></lut1>
											<asc_sop></asc_sop>
											<asc_sat></asc_sat>
											<lut2></lut2>
										</colorinfo>
										<labels>
											<label2>Lavender</label2>
										</labels>
									</clipitem>
									<enabled>TRUE</enabled>
									<locked>FALSE</locked>
								</track>
								<track TL.SQTrackShy="0" TL.SQTrackExpandedHeight="25" TL.SQTrackExpanded="0" MZ.TrackTargeted="0">
									<clipitem id="clipitem-103">
										<masterclipid>masterclip-16</masterclipid>
										<name>ATM Bug (Right)</name>
										<enabled>TRUE</enabled>
										<duration>17982</duration>
										<rate>
											<timebase>30</timebase>
											<ntsc>TRUE</ntsc>
										</rate>
										<start>95</start>
										<end>9059</end>
										<in>0</in>
										<out>8964</out>
										<pproTicksIn>0</pproTicksIn>
										<pproTicksOut>75975880780800</pproTicksOut>
										<sequence id="sequence-5"/>
										<labels>
											<label2>Green</label2>
										</labels>
									</clipitem>
									<enabled>TRUE</enabled>
									<locked>FALSE</locked>
								</track>
								<track TL.SQTrackShy="0" TL.SQTrackExpandedHeight="25" TL.SQTrackExpanded="0" MZ.TrackTargeted="0">
									<clipitem id="clipitem-104">
										<masterclipid>masterclip-18</masterclipid>
										<name>Transition</name>
										<enabled>TRUE</enabled>
										<duration>1559</duration>
										<rate>
											<timebase>30</timebase>
											<ntsc>TRUE</ntsc>
										</rate>
										<start>0</start>
										<end>120</end>
										<in>0</in>
										<out>120</out>
										<pproTicksIn>0</pproTicksIn>
										<pproTicksOut>1017080064000</pproTicksOut>
										<sequence id="sequence-6"/>
											<marker>
												<comment></comment>
												<name></name>
												<in>95</in>
												<out>-1</out>
											</marker>
											<marker>
												<comment></comment>
												<name></name>
												<in>30</in>
												<out>-1</out>
											</marker>
										<link>
											<linkclipref>clipitem-104</linkclipref>
											<mediatype>video</mediatype>
											<trackindex>4</trackindex>
											<clipindex>1</clipindex>
										</link>
										<link>
											<linkclipref>clipitem-114</linkclipref>
											<mediatype>audio</mediatype>
											<trackindex>3</trackindex>
											<clipindex>1</clipindex>
											<groupindex>1</groupindex>
										</link>
										<link>
											<linkclipref>clipitem-118</linkclipref>
											<mediatype>audio</mediatype>
											<trackindex>4</trackindex>
											<clipindex>1</clipindex>
											<groupindex>1</groupindex>
										</link>
										<labels>
											<label2>Forest</label2>
										</labels>
									</clipitem>
									<clipitem id="clipitem-105">
										<masterclipid>masterclip-18</masterclipid>
										<name>Transition</name>
										<enabled>TRUE</enabled>
										<duration>1559</duration>
										<rate>
											<timebase>30</timebase>
											<ntsc>TRUE</ntsc>
										</rate>
										<start>2540</start>
										<end>2660</end>
										<in>0</in>
										<out>120</out>
										<pproTicksIn>0</pproTicksIn>
										<pproTicksOut>1017080064000</pproTicksOut>
										<sequence id="sequence-6"/>
											<marker>
												<comment></comment>
												<name></name>
												<in>95</in>
												<out>-1</out>
											</marker>
											<marker>
												<comment></comment>
												<name></name>
												<in>30</in>
												<out>-1</out>
											</marker>
										<link>
											<linkclipref>clipitem-105</linkclipref>
											<mediatype>video</mediatype>
											<trackindex>4</trackindex>
											<clipindex>2</clipindex>
										</link>
										<link>
											<linkclipref>clipitem-115</linkclipref>
											<mediatype>audio</mediatype>
											<trackindex>3</trackindex>
											<clipindex>2</clipindex>
											<groupindex>1</groupindex>
										</link>
										<link>
											<linkclipref>clipitem-119</linkclipref>
											<mediatype>audio</mediatype>
											<trackindex>4</trackindex>
											<clipindex>2</clipindex>
											<groupindex>1</groupindex>
										</link>
										<labels>
											<label2>Forest</label2>
										</labels>
									</clipitem>
									<clipitem id="clipitem-106">
										<masterclipid>masterclip-18</masterclipid>
										<name>Transition</name>
										<enabled>TRUE</enabled>
										<duration>1559</duration>
										<rate>
											<timebase>30</timebase>
											<ntsc>TRUE</ntsc>
										</rate>
										<start>7211</start>
										<end>7331</end>
										<in>0</in>
										<out>120</out>
										<pproTicksIn>0</pproTicksIn>
										<pproTicksOut>1017080064000</pproTicksOut>
										<sequence id="sequence-6"/>
											<marker>
												<comment></comment>
												<name></name>
												<in>95</in>
												<out>-1</out>
											</marker>
											<marker>
												<comment></comment>
												<name></name>
												<in>30</in>
												<out>-1</out>
											</marker>
										<link>
											<linkclipref>clipitem-106</linkclipref>
											<mediatype>video</mediatype>
											<trackindex>4</trackindex>
											<clipindex>3</clipindex>
										</link>
										<link>
											<linkclipref>clipitem-116</linkclipref>
											<mediatype>audio</mediatype>
											<trackindex>3</trackindex>
											<clipindex>3</clipindex>
											<groupindex>1</groupindex>
										</link>
										<link>
											<linkclipref>clipitem-120</linkclipref>
											<mediatype>audio</mediatype>
											<trackindex>4</trackindex>
											<clipindex>3</clipindex>
											<groupindex>1</groupindex>
										</link>
										<labels>
											<label2>Forest</label2>
										</labels>
									</clipitem>
									<clipitem id="clipitem-107">
										<masterclipid>masterclip-18</masterclipid>
										<name>Transition</name>
										<enabled>TRUE</enabled>
										<duration>1559</duration>
										<rate>
											<timebase>30</timebase>
											<ntsc>TRUE</ntsc>
										</rate>
										<start>9029</start>
										<end>9149</end>
										<in>0</in>
										<out>120</out>
										<pproTicksIn>0</pproTicksIn>
										<pproTicksOut>1017080064000</pproTicksOut>
										<sequence id="sequence-6"/>
											<marker>
												<comment></comment>
												<name></name>
												<in>95</in>
												<out>-1</out>
											</marker>
											<marker>
												<comment></comment>
												<name></name>
												<in>30</in>
												<out>-1</out>
											</marker>
										<link>
											<linkclipref>clipitem-107</linkclipref>
											<mediatype>video</mediatype>
											<trackindex>4</trackindex>
											<clipindex>4</clipindex>
										</link>
										<link>
											<linkclipref>clipitem-117</linkclipref>
											<mediatype>audio</mediatype>
											<trackindex>3</trackindex>
											<clipindex>4</clipindex>
											<groupindex>1</groupindex>
										</link>
										<link>
											<linkclipref>clipitem-121</linkclipref>
											<mediatype>audio</mediatype>
											<trackindex>4</trackindex>
											<clipindex>4</clipindex>
											<groupindex>1</groupindex>
										</link>
										<labels>
											<label2>Forest</label2>
										</labels>
									</clipitem>
									<enabled>TRUE</enabled>
									<locked>FALSE</locked>
								</track>
								<track TL.SQTrackShy="0" TL.SQTrackExpandedHeight="25" TL.SQTrackExpanded="0" MZ.TrackTargeted="0">
									<enabled>TRUE</enabled>
									<locked>FALSE</locked>
								</track>
							</video>
							<audio>
								<numOutputChannels>2</numOutputChannels>
								<format>
									<samplecharacteristics>
										<depth>16</depth>
										<samplerate>48000</samplerate>
									</samplecharacteristics>
								</format>
								<outputs>
									<group>
										<index>1</index>
										<numchannels>1</numchannels>
										<downmix>0</downmix>
										<channel>
											<index>1</index>
										</channel>
									</group>
									<group>
										<index>2</index>
										<numchannels>1</numchannels>
										<downmix>0</downmix>
										<channel>
											<index>2</index>
										</channel>
									</group>
								</outputs>
								<track TL.SQTrackAudioKeyframeStyle="0" TL.SQTrackShy="0" TL.SQTrackExpandedHeight="25" TL.SQTrackExpanded="0" MZ.TrackTargeted="1" PannerCurrentValue="0.5" PannerIsInverted="true" PannerStartKeyframe="-91445760000000000,0.5,0,0,0,0,0,0" PannerName="Balance" currentExplodedTrackIndex="0" totalExplodedTrackCount="2" premiereTrackType="Stereo">
									<clipitem id="clipitem-108" premiereChannelType="stereo">
										<masterclipid>masterclip-35</masterclipid>
										<name>Comp 4 - A1</name>
										<enabled>TRUE</enabled>
										<duration>4411</duration>
										<rate>
											<timebase>30</timebase>
											<ntsc>TRUE</ntsc>
										</rate>
										<start>95</start>
										<end>2570</end>
										<in>0</in>
										<out>2475</out>
										<pproTicksIn>0</pproTicksIn>
										<pproTicksOut>20977276320000</pproTicksOut>
										<sequence id="sequence-12"/>
										<sourcetrack>
											<mediatype>audio</mediatype>
											<trackindex>0</trackindex>
										</sourcetrack>
										<link>
											<linkclipref>clipitem-79</linkclipref>
											<mediatype>video</mediatype>
											<trackindex>1</trackindex>
											<clipindex>1</clipindex>
										</link>
										<link>
											<linkclipref>clipitem-108</linkclipref>
											<mediatype>audio</mediatype>
											<trackindex>1</trackindex>
											<clipindex>1</clipindex>
											<groupindex>1</groupindex>
										</link>
										<link>
											<linkclipref>clipitem-111</linkclipref>
											<mediatype>audio</mediatype>
											<trackindex>2</trackindex>
											<clipindex>1</clipindex>
											<groupindex>1</groupindex>
										</link>
										<labels>
											<label2>Forest</label2>
										</labels>
									</clipitem>
									<clipitem id="clipitem-109" premiereChannelType="stereo">
										<masterclipid>masterclip-41</masterclipid>
										<name>Comp 5 - A2</name>
										<enabled>TRUE</enabled>
										<duration>4735</duration>
										<rate>
											<timebase>30</timebase>
											<ntsc>TRUE</ntsc>
										</rate>
										<start>2635</start>
										<end>7241</end>
										<in>0</in>
										<out>4606</out>
										<pproTicksIn>0</pproTicksIn>
										<pproTicksOut>39038923123200</pproTicksOut>
										<sequence id="sequence-13"/>
										<sourcetrack>
											<mediatype>audio</mediatype>
											<trackindex>0</trackindex>
										</sourcetrack>
										<link>
											<linkclipref>clipitem-86</linkclipref>
											<mediatype>video</mediatype>
											<trackindex>1</trackindex>
											<clipindex>2</clipindex>
										</link>
										<link>
											<linkclipref>clipitem-109</linkclipref>
											<mediatype>audio</mediatype>
											<trackindex>1</trackindex>
											<clipindex>2</clipindex>
											<groupindex>1</groupindex>
										</link>
										<link>
											<linkclipref>clipitem-112</linkclipref>
											<mediatype>audio</mediatype>
											<trackindex>2</trackindex>
											<clipindex>2</clipindex>
											<groupindex>1</groupindex>
										</link>
										<labels>
											<label2>Forest</label2>
										</labels>
									</clipitem>
									<clipitem id="clipitem-110" premiereChannelType="stereo">
										<masterclipid>masterclip-48</masterclipid>
										<name>Comp 6 - A3</name>
										<enabled>TRUE</enabled>
										<duration>6719</duration>
										<rate>
											<timebase>30</timebase>
											<ntsc>TRUE</ntsc>
										</rate>
										<start>7306</start>
										<end>9059</end>
										<in>0</in>
										<out>1753</out>
										<pproTicksIn>0</pproTicksIn>
										<pproTicksOut>14857844601600</pproTicksOut>
										<sequence id="sequence-14"/>
										<sourcetrack>
											<mediatype>audio</mediatype>
											<trackindex>0</trackindex>
										</sourcetrack>
										<link>
											<linkclipref>clipitem-94</linkclipref>
											<mediatype>video</mediatype>
											<trackindex>1</trackindex>
											<clipindex>3</clipindex>
										</link>
										<link>
											<linkclipref>clipitem-110</linkclipref>
											<mediatype>audio</mediatype>
											<trackindex>1</trackindex>
											<clipindex>3</clipindex>
											<groupindex>1</groupindex>
										</link>
										<link>
											<linkclipref>clipitem-113</linkclipref>
											<mediatype>audio</mediatype>
											<trackindex>2</trackindex>
											<clipindex>3</clipindex>
											<groupindex>1</groupindex>
										</link>
										<labels>
											<label2>Forest</label2>
										</labels>
									</clipitem>
									<enabled>TRUE</enabled>
									<locked>FALSE</locked>
									<outputchannelindex>1</outputchannelindex>
								</track>
								<track TL.SQTrackAudioKeyframeStyle="0" TL.SQTrackShy="0" TL.SQTrackExpandedHeight="25" TL.SQTrackExpanded="0" MZ.TrackTargeted="1" PannerCurrentValue="0.5" PannerIsInverted="true" PannerStartKeyframe="-91445760000000000,0.5,0,0,0,0,0,0" PannerName="Balance" currentExplodedTrackIndex="1" totalExplodedTrackCount="2" premiereTrackType="Stereo">
									<clipitem id="clipitem-111" premiereChannelType="stereo">
										<masterclipid>masterclip-35</masterclipid>
										<name>Comp 4 - A1</name>
										<enabled>TRUE</enabled>
										<duration>4411</duration>
										<rate>
											<timebase>30</timebase>
											<ntsc>TRUE</ntsc>
										</rate>
										<start>95</start>
										<end>2570</end>
										<in>0</in>
										<out>2475</out>
										<pproTicksIn>0</pproTicksIn>
										<pproTicksOut>20977276320000</pproTicksOut>
										<sequence id="sequence-12"/>
										<sourcetrack>
											<mediatype>audio</mediatype>
											<trackindex>1</trackindex>
										</sourcetrack>
										<link>
											<linkclipref>clipitem-79</linkclipref>
											<mediatype>video</mediatype>
											<trackindex>1</trackindex>
											<clipindex>1</clipindex>
										</link>
										<link>
											<linkclipref>clipitem-108</linkclipref>
											<mediatype>audio</mediatype>
											<trackindex>1</trackindex>
											<clipindex>1</clipindex>
											<groupindex>1</groupindex>
										</link>
										<link>
											<linkclipref>clipitem-111</linkclipref>
											<mediatype>audio</mediatype>
											<trackindex>2</trackindex>
											<clipindex>1</clipindex>
											<groupindex>1</groupindex>
										</link>
										<labels>
											<label2>Forest</label2>
										</labels>
									</clipitem>
									<clipitem id="clipitem-112" premiereChannelType="stereo">
										<masterclipid>masterclip-41</masterclipid>
										<name>Comp 5 - A2</name>
										<enabled>TRUE</enabled>
										<duration>4735</duration>
										<rate>
											<timebase>30</timebase>
											<ntsc>TRUE</ntsc>
										</rate>
										<start>2635</start>
										<end>7241</end>
										<in>0</in>
										<out>4606</out>
										<pproTicksIn>0</pproTicksIn>
										<pproTicksOut>39038923123200</pproTicksOut>
										<sequence id="sequence-13"/>
										<sourcetrack>
											<mediatype>audio</mediatype>
											<trackindex>1</trackindex>
										</sourcetrack>
										<link>
											<linkclipref>clipitem-86</linkclipref>
											<mediatype>video</mediatype>
											<trackindex>1</trackindex>
											<clipindex>2</clipindex>
										</link>
										<link>
											<linkclipref>clipitem-109</linkclipref>
											<mediatype>audio</mediatype>
											<trackindex>1</trackindex>
											<clipindex>2</clipindex>
											<groupindex>1</groupindex>
										</link>
										<link>
											<linkclipref>clipitem-112</linkclipref>
											<mediatype>audio</mediatype>
											<trackindex>2</trackindex>
											<clipindex>2</clipindex>
											<groupindex>1</groupindex>
										</link>
										<labels>
											<label2>Forest</label2>
										</labels>
									</clipitem>
									<clipitem id="clipitem-113" premiereChannelType="stereo">
										<masterclipid>masterclip-48</masterclipid>
										<name>Comp 6 - A3</name>
										<enabled>TRUE</enabled>
										<duration>6719</duration>
										<rate>
											<timebase>30</timebase>
											<ntsc>TRUE</ntsc>
										</rate>
										<start>7306</start>
										<end>9059</end>
										<in>0</in>
										<out>1753</out>
										<pproTicksIn>0</pproTicksIn>
										<pproTicksOut>14857844601600</pproTicksOut>
										<sequence id="sequence-14"/>
										<sourcetrack>
											<mediatype>audio</mediatype>
											<trackindex>1</trackindex>
										</sourcetrack>
										<link>
											<linkclipref>clipitem-94</linkclipref>
											<mediatype>video</mediatype>
											<trackindex>1</trackindex>
											<clipindex>3</clipindex>
										</link>
										<link>
											<linkclipref>clipitem-110</linkclipref>
											<mediatype>audio</mediatype>
											<trackindex>1</trackindex>
											<clipindex>3</clipindex>
											<groupindex>1</groupindex>
										</link>
										<link>
											<linkclipref>clipitem-113</linkclipref>
											<mediatype>audio</mediatype>
											<trackindex>2</trackindex>
											<clipindex>3</clipindex>
											<groupindex>1</groupindex>
										</link>
										<labels>
											<label2>Forest</label2>
										</labels>
									</clipitem>
									<enabled>TRUE</enabled>
									<locked>FALSE</locked>
									<outputchannelindex>2</outputchannelindex>
								</track>
								<track TL.SQTrackAudioKeyframeStyle="0" TL.SQTrackShy="0" TL.SQTrackExpandedHeight="25" TL.SQTrackExpanded="0" MZ.TrackTargeted="1" PannerCurrentValue="0.5" PannerIsInverted="true" PannerStartKeyframe="-91445760000000000,0.5,0,0,0,0,0,0" PannerName="Balance" currentExplodedTrackIndex="0" totalExplodedTrackCount="2" premiereTrackType="Stereo">
									<clipitem id="clipitem-114" premiereChannelType="stereo">
										<masterclipid>masterclip-18</masterclipid>
										<name>Transition</name>
										<enabled>TRUE</enabled>
										<duration>1559</duration>
										<rate>
											<timebase>30</timebase>
											<ntsc>TRUE</ntsc>
										</rate>
										<start>0</start>
										<end>120</end>
										<in>0</in>
										<out>120</out>
										<pproTicksIn>0</pproTicksIn>
										<pproTicksOut>1017080064000</pproTicksOut>
										<sequence id="sequence-6"/>
										<sourcetrack>
											<mediatype>audio</mediatype>
											<trackindex>0</trackindex>
										</sourcetrack>
											<marker>
												<comment></comment>
												<name></name>
												<in>95</in>
												<out>-1</out>
											</marker>
											<marker>
												<comment></comment>
												<name></name>
												<in>30</in>
												<out>-1</out>
											</marker>
										<link>
											<linkclipref>clipitem-104</linkclipref>
											<mediatype>video</mediatype>
											<trackindex>4</trackindex>
											<clipindex>1</clipindex>
										</link>
										<link>
											<linkclipref>clipitem-114</linkclipref>
											<mediatype>audio</mediatype>
											<trackindex>3</trackindex>
											<clipindex>1</clipindex>
											<groupindex>1</groupindex>
										</link>
										<link>
											<linkclipref>clipitem-118</linkclipref>
											<mediatype>audio</mediatype>
											<trackindex>4</trackindex>
											<clipindex>1</clipindex>
											<groupindex>1</groupindex>
										</link>
										<labels>
											<label2>Forest</label2>
										</labels>
									</clipitem>
									<clipitem id="clipitem-115" premiereChannelType="stereo">
										<masterclipid>masterclip-18</masterclipid>
										<name>Transition</name>
										<enabled>TRUE</enabled>
										<duration>1559</duration>
										<rate>
											<timebase>30</timebase>
											<ntsc>TRUE</ntsc>
										</rate>
										<start>2540</start>
										<end>2660</end>
										<in>0</in>
										<out>120</out>
										<pproTicksIn>0</pproTicksIn>
										<pproTicksOut>1017080064000</pproTicksOut>
										<sequence id="sequence-6"/>
										<sourcetrack>
											<mediatype>audio</mediatype>
											<trackindex>0</trackindex>
										</sourcetrack>
											<marker>
												<comment></comment>
												<name></name>
												<in>95</in>
												<out>-1</out>
											</marker>
											<marker>
												<comment></comment>
												<name></name>
												<in>30</in>
												<out>-1</out>
											</marker>
										<link>
											<linkclipref>clipitem-105</linkclipref>
											<mediatype>video</mediatype>
											<trackindex>4</trackindex>
											<clipindex>2</clipindex>
										</link>
										<link>
											<linkclipref>clipitem-115</linkclipref>
											<mediatype>audio</mediatype>
											<trackindex>3</trackindex>
											<clipindex>2</clipindex>
											<groupindex>1</groupindex>
										</link>
										<link>
											<linkclipref>clipitem-119</linkclipref>
											<mediatype>audio</mediatype>
											<trackindex>4</trackindex>
											<clipindex>2</clipindex>
											<groupindex>1</groupindex>
										</link>
										<labels>
											<label2>Forest</label2>
										</labels>
									</clipitem>
									<clipitem id="clipitem-116" premiereChannelType="stereo">
										<masterclipid>masterclip-18</masterclipid>
										<name>Transition</name>
										<enabled>TRUE</enabled>
										<duration>1559</duration>
										<rate>
											<timebase>30</timebase>
											<ntsc>TRUE</ntsc>
										</rate>
										<start>7211</start>
										<end>7331</end>
										<in>0</in>
										<out>120</out>
										<pproTicksIn>0</pproTicksIn>
										<pproTicksOut>1017080064000</pproTicksOut>
										<sequence id="sequence-6"/>
										<sourcetrack>
											<mediatype>audio</mediatype>
											<trackindex>0</trackindex>
										</sourcetrack>
											<marker>
												<comment></comment>
												<name></name>
												<in>95</in>
												<out>-1</out>
											</marker>
											<marker>
												<comment></comment>
												<name></name>
												<in>30</in>
												<out>-1</out>
											</marker>
										<link>
											<linkclipref>clipitem-106</linkclipref>
											<mediatype>video</mediatype>
											<trackindex>4</trackindex>
											<clipindex>3</clipindex>
										</link>
										<link>
											<linkclipref>clipitem-116</linkclipref>
											<mediatype>audio</mediatype>
											<trackindex>3</trackindex>
											<clipindex>3</clipindex>
											<groupindex>1</groupindex>
										</link>
										<link>
											<linkclipref>clipitem-120</linkclipref>
											<mediatype>audio</mediatype>
											<trackindex>4</trackindex>
											<clipindex>3</clipindex>
											<groupindex>1</groupindex>
										</link>
										<labels>
											<label2>Forest</label2>
										</labels>
									</clipitem>
									<clipitem id="clipitem-117" premiereChannelType="stereo">
										<masterclipid>masterclip-18</masterclipid>
										<name>Transition</name>
										<enabled>TRUE</enabled>
										<duration>1559</duration>
										<rate>
											<timebase>30</timebase>
											<ntsc>TRUE</ntsc>
										</rate>
										<start>9029</start>
										<end>9149</end>
										<in>0</in>
										<out>120</out>
										<pproTicksIn>0</pproTicksIn>
										<pproTicksOut>1017080064000</pproTicksOut>
										<sequence id="sequence-6"/>
										<sourcetrack>
											<mediatype>audio</mediatype>
											<trackindex>0</trackindex>
										</sourcetrack>
											<marker>
												<comment></comment>
												<name></name>
												<in>95</in>
												<out>-1</out>
											</marker>
											<marker>
												<comment></comment>
												<name></name>
												<in>30</in>
												<out>-1</out>
											</marker>
										<link>
											<linkclipref>clipitem-107</linkclipref>
											<mediatype>video</mediatype>
											<trackindex>4</trackindex>
											<clipindex>4</clipindex>
										</link>
										<link>
											<linkclipref>clipitem-117</linkclipref>
											<mediatype>audio</mediatype>
											<trackindex>3</trackindex>
											<clipindex>4</clipindex>
											<groupindex>1</groupindex>
										</link>
										<link>
											<linkclipref>clipitem-121</linkclipref>
											<mediatype>audio</mediatype>
											<trackindex>4</trackindex>
											<clipindex>4</clipindex>
											<groupindex>1</groupindex>
										</link>
										<labels>
											<label2>Forest</label2>
										</labels>
									</clipitem>
									<enabled>TRUE</enabled>
									<locked>FALSE</locked>
									<outputchannelindex>1</outputchannelindex>
								</track>
								<track TL.SQTrackAudioKeyframeStyle="0" TL.SQTrackShy="0" TL.SQTrackExpandedHeight="25" TL.SQTrackExpanded="0" MZ.TrackTargeted="1" PannerCurrentValue="0.5" PannerIsInverted="true" PannerStartKeyframe="-91445760000000000,0.5,0,0,0,0,0,0" PannerName="Balance" currentExplodedTrackIndex="1" totalExplodedTrackCount="2" premiereTrackType="Stereo">
									<clipitem id="clipitem-118" premiereChannelType="stereo">
										<masterclipid>masterclip-18</masterclipid>
										<name>Transition</name>
										<enabled>TRUE</enabled>
										<duration>1559</duration>
										<rate>
											<timebase>30</timebase>
											<ntsc>TRUE</ntsc>
										</rate>
										<start>0</start>
										<end>120</end>
										<in>0</in>
										<out>120</out>
										<pproTicksIn>0</pproTicksIn>
										<pproTicksOut>1017080064000</pproTicksOut>
										<sequence id="sequence-6"/>
										<sourcetrack>
											<mediatype>audio</mediatype>
											<trackindex>1</trackindex>
										</sourcetrack>
											<marker>
												<comment></comment>
												<name></name>
												<in>95</in>
												<out>-1</out>
											</marker>
											<marker>
												<comment></comment>
												<name></name>
												<in>30</in>
												<out>-1</out>
											</marker>
										<link>
											<linkclipref>clipitem-104</linkclipref>
											<mediatype>video</mediatype>
											<trackindex>4</trackindex>
											<clipindex>1</clipindex>
										</link>
										<link>
											<linkclipref>clipitem-114</linkclipref>
											<mediatype>audio</mediatype>
											<trackindex>3</trackindex>
											<clipindex>1</clipindex>
											<groupindex>1</groupindex>
										</link>
										<link>
											<linkclipref>clipitem-118</linkclipref>
											<mediatype>audio</mediatype>
											<trackindex>4</trackindex>
											<clipindex>1</clipindex>
											<groupindex>1</groupindex>
										</link>
										<labels>
											<label2>Forest</label2>
										</labels>
									</clipitem>
									<clipitem id="clipitem-119" premiereChannelType="stereo">
										<masterclipid>masterclip-18</masterclipid>
										<name>Transition</name>
										<enabled>TRUE</enabled>
										<duration>1559</duration>
										<rate>
											<timebase>30</timebase>
											<ntsc>TRUE</ntsc>
										</rate>
										<start>2540</start>
										<end>2660</end>
										<in>0</in>
										<out>120</out>
										<pproTicksIn>0</pproTicksIn>
										<pproTicksOut>1017080064000</pproTicksOut>
										<sequence id="sequence-6"/>
										<sourcetrack>
											<mediatype>audio</mediatype>
											<trackindex>1</trackindex>
										</sourcetrack>
											<marker>
												<comment></comment>
												<name></name>
												<in>95</in>
												<out>-1</out>
											</marker>
											<marker>
												<comment></comment>
												<name></name>
												<in>30</in>
												<out>-1</out>
											</marker>
										<link>
											<linkclipref>clipitem-105</linkclipref>
											<mediatype>video</mediatype>
											<trackindex>4</trackindex>
											<clipindex>2</clipindex>
										</link>
										<link>
											<linkclipref>clipitem-115</linkclipref>
											<mediatype>audio</mediatype>
											<trackindex>3</trackindex>
											<clipindex>2</clipindex>
											<groupindex>1</groupindex>
										</link>
										<link>
											<linkclipref>clipitem-119</linkclipref>
											<mediatype>audio</mediatype>
											<trackindex>4</trackindex>
											<clipindex>2</clipindex>
											<groupindex>1</groupindex>
										</link>
										<labels>
											<label2>Forest</label2>
										</labels>
									</clipitem>
									<clipitem id="clipitem-120" premiereChannelType="stereo">
										<masterclipid>masterclip-18</masterclipid>
										<name>Transition</name>
										<enabled>TRUE</enabled>
										<duration>1559</duration>
										<rate>
											<timebase>30</timebase>
											<ntsc>TRUE</ntsc>
										</rate>
										<start>7211</start>
										<end>7331</end>
										<in>0</in>
										<out>120</out>
										<pproTicksIn>0</pproTicksIn>
										<pproTicksOut>1017080064000</pproTicksOut>
										<sequence id="sequence-6"/>
										<sourcetrack>
											<mediatype>audio</mediatype>
											<trackindex>1</trackindex>
										</sourcetrack>
											<marker>
												<comment></comment>
												<name></name>
												<in>95</in>
												<out>-1</out>
											</marker>
											<marker>
												<comment></comment>
												<name></name>
												<in>30</in>
												<out>-1</out>
											</marker>
										<link>
											<linkclipref>clipitem-106</linkclipref>
											<mediatype>video</mediatype>
											<trackindex>4</trackindex>
											<clipindex>3</clipindex>
										</link>
										<link>
											<linkclipref>clipitem-116</linkclipref>
											<mediatype>audio</mediatype>
											<trackindex>3</trackindex>
											<clipindex>3</clipindex>
											<groupindex>1</groupindex>
										</link>
										<link>
											<linkclipref>clipitem-120</linkclipref>
											<mediatype>audio</mediatype>
											<trackindex>4</trackindex>
											<clipindex>3</clipindex>
											<groupindex>1</groupindex>
										</link>
										<labels>
											<label2>Forest</label2>
										</labels>
									</clipitem>
									<clipitem id="clipitem-121" premiereChannelType="stereo">
										<masterclipid>masterclip-18</masterclipid>
										<name>Transition</name>
										<enabled>TRUE</enabled>
										<duration>1559</duration>
										<rate>
											<timebase>30</timebase>
											<ntsc>TRUE</ntsc>
										</rate>
										<start>9029</start>
										<end>9149</end>
										<in>0</in>
										<out>120</out>
										<pproTicksIn>0</pproTicksIn>
										<pproTicksOut>1017080064000</pproTicksOut>
										<sequence id="sequence-6"/>
										<sourcetrack>
											<mediatype>audio</mediatype>
											<trackindex>1</trackindex>
										</sourcetrack>
											<marker>
												<comment></comment>
												<name></name>
												<in>95</in>
												<out>-1</out>
											</marker>
											<marker>
												<comment></comment>
												<name></name>
												<in>30</in>
												<out>-1</out>
											</marker>
										<link>
											<linkclipref>clipitem-107</linkclipref>
											<mediatype>video</mediatype>
											<trackindex>4</trackindex>
											<clipindex>4</clipindex>
										</link>
										<link>
											<linkclipref>clipitem-117</linkclipref>
											<mediatype>audio</mediatype>
											<trackindex>3</trackindex>
											<clipindex>4</clipindex>
											<groupindex>1</groupindex>
										</link>
										<link>
											<linkclipref>clipitem-121</linkclipref>
											<mediatype>audio</mediatype>
											<trackindex>4</trackindex>
											<clipindex>4</clipindex>
											<groupindex>1</groupindex>
										</link>
										<labels>
											<label2>Forest</label2>
										</labels>
									</clipitem>
									<enabled>TRUE</enabled>
									<locked>FALSE</locked>
									<outputchannelindex>2</outputchannelindex>
								</track>
								<track TL.SQTrackAudioKeyframeStyle="0" TL.SQTrackShy="0" TL.SQTrackExpandedHeight="25" TL.SQTrackExpanded="0" MZ.TrackTargeted="1" PannerCurrentValue="0.5" PannerIsInverted="true" PannerStartKeyframe="-91445760000000000,0.5,0,0,0,0,0,0" PannerName="Balance" currentExplodedTrackIndex="0" totalExplodedTrackCount="2" premiereTrackType="Stereo">
									<enabled>TRUE</enabled>
									<locked>FALSE</locked>
									<outputchannelindex>1</outputchannelindex>
								</track>
								<track TL.SQTrackAudioKeyframeStyle="0" TL.SQTrackShy="0" TL.SQTrackExpandedHeight="25" TL.SQTrackExpanded="0" MZ.TrackTargeted="1" PannerCurrentValue="0.5" PannerIsInverted="true" PannerStartKeyframe="-91445760000000000,0.5,0,0,0,0,0,0" PannerName="Balance" currentExplodedTrackIndex="1" totalExplodedTrackCount="2" premiereTrackType="Stereo">
									<enabled>TRUE</enabled>
									<locked>FALSE</locked>
									<outputchannelindex>2</outputchannelindex>
								</track>
							</audio>
						</media>
						<timecode>
							<rate>
								<timebase>30</timebase>
								<ntsc>TRUE</ntsc>
							</rate>
							<string>00;00;00;00</string>
							<frame>0</frame>
							<displayformat>DF</displayformat>
						</timecode>
						<labels>
							<label2>Forest</label2>
						</labels>
						<logginginfo>
							<description></description>
							<scene></scene>
							<shottake></shottake>
							<lognote></lognote>
							<good></good>
							<originalvideofilename></originalvideofilename>
							<originalaudiofilename></originalaudiofilename>
						</logginginfo>
					</sequence>
				</children>
			</bin>
			<bin>
				<name>01_Raw Footage</name>
				<labels>
					<label2>Brown</label2>
				</labels>
				<children>
					<bin>
						<name>Artlist 1</name>
						<labels>
							<label2>Brown</label2>
						</labels>
						<children>
							<clip id="masterclip-21" explodedTracks="true">
								<uuid>edfe26e9-2a97-4d18-a32a-c61e9d8a5ccb</uuid>
								<masterclipid>masterclip-21</masterclipid>
								<ismasterclip>TRUE</ismasterclip>
								<duration>307</duration>
								<rate>
									<timebase>24</timebase>
									<ntsc>TRUE</ntsc>
								</rate>
								<name>304202_Waterfall River Trees Forest_By_Via_Films_Artlist_HD.mp4</name>
								<media>
									<video>
										<track>
											<clipitem id="clipitem-122">
												<masterclipid>masterclip-21</masterclipid>
												<name>304202_Waterfall River Trees Forest_By_Via_Films_Artlist_HD.mp4</name>
												<rate>
													<timebase>24</timebase>
													<ntsc>TRUE</ntsc>
												</rate>
												<alphatype>none</alphatype>
												<file id="file-15"/>
											</clipitem>
										</track>
									</video>
								</media>
								<logginginfo>
									<description></description>
									<scene></scene>
									<shottake></shottake>
									<lognote></lognote>
									<good></good>
									<originalvideofilename></originalvideofilename>
									<originalaudiofilename></originalaudiofilename>
								</logginginfo>
								<colorinfo>
									<lut></lut>
									<lut1></lut1>
									<asc_sop></asc_sop>
									<asc_sat></asc_sat>
									<lut2></lut2>
								</colorinfo>
								<labels>
									<label2>Blue</label2>
								</labels>
							</clip>
							<clip id="masterclip-22" explodedTracks="true">
								<uuid>adc91393-46e6-456d-8e44-56c9f378d4bf</uuid>
								<masterclipid>masterclip-22</masterclipid>
								<ismasterclip>TRUE</ismasterclip>
								<duration>648</duration>
								<rate>
									<timebase>24</timebase>
									<ntsc>TRUE</ntsc>
								</rate>
								<name>304214_Waterfall Forest Cascade Wilderness_By_Via_Films_Artlist_HD.mp4</name>
								<media>
									<video>
										<track>
											<clipitem id="clipitem-123">
												<masterclipid>masterclip-22</masterclipid>
												<name>304214_Waterfall Forest Cascade Wilderness_By_Via_Films_Artlist_HD.mp4</name>
												<rate>
													<timebase>24</timebase>
													<ntsc>TRUE</ntsc>
												</rate>
												<alphatype>none</alphatype>
												<file id="file-16"/>
											</clipitem>
										</track>
									</video>
								</media>
								<logginginfo>
									<description></description>
									<scene></scene>
									<shottake></shottake>
									<lognote></lognote>
									<good></good>
									<originalvideofilename></originalvideofilename>
									<originalaudiofilename></originalaudiofilename>
								</logginginfo>
								<colorinfo>
									<lut></lut>
									<lut1></lut1>
									<asc_sop></asc_sop>
									<asc_sat></asc_sat>
									<lut2></lut2>
								</colorinfo>
								<labels>
									<label2>Blue</label2>
								</labels>
							</clip>
							<clip id="masterclip-23" explodedTracks="true">
								<uuid>e8896b29-9140-4f3b-ab96-a2f1d9d79874</uuid>
								<masterclipid>masterclip-23</masterclipid>
								<ismasterclip>TRUE</ismasterclip>
								<duration>524</duration>
								<rate>
									<timebase>24</timebase>
									<ntsc>TRUE</ntsc>
								</rate>
								<name>304218_Road Trees Hills Roadtrip_By_Via_Films_Artlist_HD.mp4</name>
								<media>
									<video>
										<track>
											<clipitem id="clipitem-124">
												<masterclipid>masterclip-23</masterclipid>
												<name>304218_Road Trees Hills Roadtrip_By_Via_Films_Artlist_HD.mp4</name>
												<rate>
													<timebase>24</timebase>
													<ntsc>TRUE</ntsc>
												</rate>
												<alphatype>none</alphatype>
												<file id="file-17"/>
											</clipitem>
										</track>
									</video>
								</media>
								<logginginfo>
									<description></description>
									<scene></scene>
									<shottake></shottake>
									<lognote></lognote>
									<good></good>
									<originalvideofilename></originalvideofilename>
									<originalaudiofilename></originalaudiofilename>
								</logginginfo>
								<colorinfo>
									<lut></lut>
									<lut1></lut1>
									<asc_sop></asc_sop>
									<asc_sat></asc_sat>
									<lut2></lut2>
								</colorinfo>
								<labels>
									<label2>Blue</label2>
								</labels>
							</clip>
							<clip id="masterclip-36" explodedTracks="true">
								<uuid>f04c6262-13c1-4d66-a5c1-3905c928bf1c</uuid>
								<masterclipid>masterclip-36</masterclipid>
								<ismasterclip>TRUE</ismasterclip>
								<duration>541</duration>
								<rate>
									<timebase>24</timebase>
									<ntsc>TRUE</ntsc>
								</rate>
								<name>304221_Mountains Trees Aerial Roadside_By_Via_Films_Artlist_HD.mp4</name>
								<media>
									<video>
										<track>
											<clipitem id="clipitem-125">
												<masterclipid>masterclip-36</masterclipid>
												<name>304221_Mountains Trees Aerial Roadside_By_Via_Films_Artlist_HD.mp4</name>
												<rate>
													<timebase>24</timebase>
													<ntsc>TRUE</ntsc>
												</rate>
												<alphatype>none</alphatype>
												<file id="file-27"/>
											</clipitem>
										</track>
									</video>
								</media>
								<logginginfo>
									<description></description>
									<scene></scene>
									<shottake></shottake>
									<lognote></lognote>
									<good></good>
									<originalvideofilename></originalvideofilename>
									<originalaudiofilename></originalaudiofilename>
								</logginginfo>
								<colorinfo>
									<lut></lut>
									<lut1></lut1>
									<asc_sop></asc_sop>
									<asc_sat></asc_sat>
									<lut2></lut2>
								</colorinfo>
								<labels>
									<label2>Blue</label2>
								</labels>
							</clip>
							<clip id="masterclip-37" explodedTracks="true">
								<uuid>ad2cf075-ddf0-4dca-a66d-ceca4cb8014a</uuid>
								<masterclipid>masterclip-37</masterclipid>
								<ismasterclip>TRUE</ismasterclip>
								<duration>357</duration>
								<rate>
									<timebase>24</timebase>
									<ntsc>TRUE</ntsc>
								</rate>
								<name>304222_River Landscape Mountains Aerial_By_Via_Films_Artlist_HD.mp4</name>
								<media>
									<video>
										<track>
											<clipitem id="clipitem-126">
												<masterclipid>masterclip-37</masterclipid>
												<name>304222_River Landscape Mountains Aerial_By_Via_Films_Artlist_HD.mp4</name>
												<rate>
													<timebase>24</timebase>
													<ntsc>TRUE</ntsc>
												</rate>
												<alphatype>none</alphatype>
												<file id="file-28"/>
											</clipitem>
										</track>
									</video>
								</media>
								<logginginfo>
									<description></description>
									<scene></scene>
									<shottake></shottake>
									<lognote></lognote>
									<good></good>
									<originalvideofilename></originalvideofilename>
									<originalaudiofilename></originalaudiofilename>
								</logginginfo>
								<colorinfo>
									<lut></lut>
									<lut1></lut1>
									<asc_sop></asc_sop>
									<asc_sat></asc_sat>
									<lut2></lut2>
								</colorinfo>
								<labels>
									<label2>Blue</label2>
								</labels>
							</clip>
							<clip id="masterclip-38" explodedTracks="true">
								<uuid>d742ac2d-6199-4180-bb59-7e3406f79e1e</uuid>
								<masterclipid>masterclip-38</masterclipid>
								<ismasterclip>TRUE</ismasterclip>
								<duration>503</duration>
								<rate>
									<timebase>24</timebase>
									<ntsc>TRUE</ntsc>
								</rate>
								<name>304226_River Countryside Landscape Woodland_By_Via_Films_Artlist_HD.mp4</name>
								<media>
									<video>
										<track>
											<clipitem id="clipitem-127">
												<masterclipid>masterclip-38</masterclipid>
												<name>304226_River Countryside Landscape Woodland_By_Via_Films_Artlist_HD.mp4</name>
												<rate>
													<timebase>24</timebase>
													<ntsc>TRUE</ntsc>
												</rate>
												<alphatype>none</alphatype>
												<file id="file-29"/>
											</clipitem>
										</track>
									</video>
								</media>
								<logginginfo>
									<description></description>
									<scene></scene>
									<shottake></shottake>
									<lognote></lognote>
									<good></good>
									<originalvideofilename></originalvideofilename>
									<originalaudiofilename></originalaudiofilename>
								</logginginfo>
								<colorinfo>
									<lut></lut>
									<lut1></lut1>
									<asc_sop></asc_sop>
									<asc_sat></asc_sat>
									<lut2></lut2>
								</colorinfo>
								<labels>
									<label2>Blue</label2>
								</labels>
							</clip>
							<clip id="masterclip-39" explodedTracks="true">
								<uuid>d6e0f718-6264-4f58-8f2b-7d68402642f4</uuid>
								<masterclipid>masterclip-39</masterclipid>
								<ismasterclip>TRUE</ismasterclip>
								<duration>579</duration>
								<rate>
									<timebase>24</timebase>
									<ntsc>TRUE</ntsc>
								</rate>
								<name>304227_Herring Bird River Standing_By_Via_Films_Artlist_HD.mp4</name>
								<media>
									<video>
										<track>
											<clipitem id="clipitem-128">
												<masterclipid>masterclip-39</masterclipid>
												<name>304227_Herring Bird River Standing_By_Via_Films_Artlist_HD.mp4</name>
												<rate>
													<timebase>24</timebase>
													<ntsc>TRUE</ntsc>
												</rate>
												<alphatype>none</alphatype>
												<file id="file-30"/>
											</clipitem>
										</track>
									</video>
								</media>
								<logginginfo>
									<description></description>
									<scene></scene>
									<shottake></shottake>
									<lognote></lognote>
									<good></good>
									<originalvideofilename></originalvideofilename>
									<originalaudiofilename></originalaudiofilename>
								</logginginfo>
								<colorinfo>
									<lut></lut>
									<lut1></lut1>
									<asc_sop></asc_sop>
									<asc_sat></asc_sat>
									<lut2></lut2>
								</colorinfo>
								<labels>
									<label2>Blue</label2>
								</labels>
							</clip>
							<clip id="masterclip-2" explodedTracks="true">
								<uuid>63b4deda-45e8-4dab-826e-1cd02987603e</uuid>
								<masterclipid>masterclip-2</masterclipid>
								<ismasterclip>TRUE</ismasterclip>
								<duration>407</duration>
								<rate>
									<timebase>24</timebase>
									<ntsc>TRUE</ntsc>
								</rate>
								<name>304228_River Hillside Trees Damage_By_Via_Films_Artlist_HD.mp4</name>
								<media>
									<video>
										<track>
											<clipitem id="clipitem-129">
												<masterclipid>masterclip-2</masterclipid>
												<name>304228_River Hillside Trees Damage_By_Via_Films_Artlist_HD.mp4</name>
												<rate>
													<timebase>24</timebase>
													<ntsc>TRUE</ntsc>
												</rate>
												<alphatype>none</alphatype>
												<file id="file-1"/>
											</clipitem>
										</track>
									</video>
								</media>
								<logginginfo>
									<description></description>
									<scene></scene>
									<shottake></shottake>
									<lognote></lognote>
									<good></good>
									<originalvideofilename></originalvideofilename>
									<originalaudiofilename></originalaudiofilename>
								</logginginfo>
								<colorinfo>
									<lut></lut>
									<lut1></lut1>
									<asc_sop></asc_sop>
									<asc_sat></asc_sat>
									<lut2></lut2>
								</colorinfo>
								<labels>
									<label2>Blue</label2>
								</labels>
							</clip>
							<clip id="masterclip-3" explodedTracks="true">
								<uuid>72c07185-22c4-45c2-bace-f21208b8b253</uuid>
								<masterclipid>masterclip-3</masterclipid>
								<ismasterclip>TRUE</ismasterclip>
								<duration>540</duration>
								<rate>
									<timebase>24</timebase>
									<ntsc>TRUE</ntsc>
								</rate>
								<name>304229_Trees Roadside Glimsing Sun_By_Via_Films_Artlist_HD.mp4</name>
								<media>
									<video>
										<track>
											<clipitem id="clipitem-130">
												<masterclipid>masterclip-3</masterclipid>
												<name>304229_Trees Roadside Glimsing Sun_By_Via_Films_Artlist_HD.mp4</name>
												<rate>
													<timebase>24</timebase>
													<ntsc>TRUE</ntsc>
												</rate>
												<alphatype>none</alphatype>
												<file id="file-2"/>
											</clipitem>
										</track>
									</video>
								</media>
								<logginginfo>
									<description></description>
									<scene></scene>
									<shottake></shottake>
									<lognote></lognote>
									<good></good>
									<originalvideofilename></originalvideofilename>
									<originalaudiofilename></originalaudiofilename>
								</logginginfo>
								<colorinfo>
									<lut></lut>
									<lut1></lut1>
									<asc_sop></asc_sop>
									<asc_sat></asc_sat>
									<lut2></lut2>
								</colorinfo>
								<labels>
									<label2>Blue</label2>
								</labels>
							</clip>
						</children>
					</bin>
					<bin>
						<name>Artlist 2</name>
						<labels>
							<label2>Brown</label2>
						</labels>
						<children>
							<clip id="masterclip-26" explodedTracks="true">
								<uuid>586fed58-3d88-4c0f-9343-b6ab422fe06d</uuid>
								<masterclipid>masterclip-26</masterclipid>
								<ismasterclip>TRUE</ismasterclip>
								<duration>1463</duration>
								<rate>
									<timebase>25</timebase>
									<ntsc>FALSE</ntsc>
								</rate>
								<name>263084_Iceland Glacier Jokulsarlon Lagoon_By_Viktor_Sloth_Artlist_HD.mp4</name>
								<media>
									<video>
										<track>
											<clipitem id="clipitem-131">
												<masterclipid>masterclip-26</masterclipid>
												<name>263084_Iceland Glacier Jokulsarlon Lagoon_By_Viktor_Sloth_Artlist_HD.mp4</name>
												<rate>
													<timebase>25</timebase>
													<ntsc>FALSE</ntsc>
												</rate>
												<alphatype>none</alphatype>
												<file id="file-19"/>
											</clipitem>
										</track>
									</video>
								</media>
								<logginginfo>
									<description></description>
									<scene></scene>
									<shottake></shottake>
									<lognote></lognote>
									<good></good>
									<originalvideofilename></originalvideofilename>
									<originalaudiofilename></originalaudiofilename>
								</logginginfo>
								<colorinfo>
									<lut></lut>
									<lut1></lut1>
									<asc_sop></asc_sop>
									<asc_sat></asc_sat>
									<lut2></lut2>
								</colorinfo>
								<labels>
									<label2>Purple</label2>
								</labels>
							</clip>
							<clip id="masterclip-27" explodedTracks="true">
								<uuid>17ea86c8-84f9-4306-ad7f-7caeb1158540</uuid>
								<masterclipid>masterclip-27</masterclipid>
								<ismasterclip>TRUE</ismasterclip>
								<duration>898</duration>
								<rate>
									<timebase>25</timebase>
									<ntsc>FALSE</ntsc>
								</rate>
								<name>263085_Iceland Glacier Jokulsarlon Lagoon_By_Viktor_Sloth_Artlist_HD.mp4</name>
								<media>
									<video>
										<track>
											<clipitem id="clipitem-132">
												<masterclipid>masterclip-27</masterclipid>
												<name>263085_Iceland Glacier Jokulsarlon Lagoon_By_Viktor_Sloth_Artlist_HD.mp4</name>
												<rate>
													<timebase>25</timebase>
													<ntsc>FALSE</ntsc>
												</rate>
												<alphatype>none</alphatype>
												<file id="file-20"/>
											</clipitem>
										</track>
									</video>
								</media>
								<logginginfo>
									<description></description>
									<scene></scene>
									<shottake></shottake>
									<lognote></lognote>
									<good></good>
									<originalvideofilename></originalvideofilename>
									<originalaudiofilename></originalaudiofilename>
								</logginginfo>
								<colorinfo>
									<lut></lut>
									<lut1></lut1>
									<asc_sop></asc_sop>
									<asc_sat></asc_sat>
									<lut2></lut2>
								</colorinfo>
								<labels>
									<label2>Purple</label2>
								</labels>
							</clip>
							<clip id="masterclip-42" explodedTracks="true">
								<uuid>800d01a6-c19c-45a5-b4f4-72e7098a18a8</uuid>
								<masterclipid>masterclip-42</masterclipid>
								<ismasterclip>TRUE</ismasterclip>
								<duration>1163</duration>
								<rate>
									<timebase>25</timebase>
									<ntsc>FALSE</ntsc>
								</rate>
								<name>263087_Iceland Glacier Jokulsarlon Lagoon_By_Viktor_Sloth_Artlist_HD.mp4</name>
								<media>
									<video>
										<track>
											<clipitem id="clipitem-133">
												<masterclipid>masterclip-42</masterclipid>
												<name>263087_Iceland Glacier Jokulsarlon Lagoon_By_Viktor_Sloth_Artlist_HD.mp4</name>
												<rate>
													<timebase>25</timebase>
													<ntsc>FALSE</ntsc>
												</rate>
												<alphatype>none</alphatype>
												<file id="file-32"/>
											</clipitem>
										</track>
									</video>
								</media>
								<logginginfo>
									<description></description>
									<scene></scene>
									<shottake></shottake>
									<lognote></lognote>
									<good></good>
									<originalvideofilename></originalvideofilename>
									<originalaudiofilename></originalaudiofilename>
								</logginginfo>
								<colorinfo>
									<lut></lut>
									<lut1></lut1>
									<asc_sop></asc_sop>
									<asc_sat></asc_sat>
									<lut2></lut2>
								</colorinfo>
								<labels>
									<label2>Purple</label2>
								</labels>
							</clip>
							<clip id="masterclip-43" explodedTracks="true">
								<uuid>0a1a59e4-0f58-46c9-81b3-54732495a92e</uuid>
								<masterclipid>masterclip-43</masterclipid>
								<ismasterclip>TRUE</ismasterclip>
								<duration>431</duration>
								<rate>
									<timebase>25</timebase>
									<ntsc>FALSE</ntsc>
								</rate>
								<name>263090_Glacier Iceberg Iceland Ice_By_Viktor_Sloth_Artlist_HD.mp4</name>
								<media>
									<video>
										<track>
											<clipitem id="clipitem-134">
												<masterclipid>masterclip-43</masterclipid>
												<name>263090_Glacier Iceberg Iceland Ice_By_Viktor_Sloth_Artlist_HD.mp4</name>
												<rate>
													<timebase>25</timebase>
													<ntsc>FALSE</ntsc>
												</rate>
												<alphatype>none</alphatype>
												<file id="file-33"/>
											</clipitem>
										</track>
									</video>
								</media>
								<logginginfo>
									<description></description>
									<scene></scene>
									<shottake></shottake>
									<lognote></lognote>
									<good></good>
									<originalvideofilename></originalvideofilename>
									<originalaudiofilename></originalaudiofilename>
								</logginginfo>
								<colorinfo>
									<lut></lut>
									<lut1></lut1>
									<asc_sop></asc_sop>
									<asc_sat></asc_sat>
									<lut2></lut2>
								</colorinfo>
								<labels>
									<label2>Purple</label2>
								</labels>
							</clip>
							<clip id="masterclip-44" explodedTracks="true">
								<uuid>5dae8d21-9474-4126-8c98-2096a4596de0</uuid>
								<masterclipid>masterclip-44</masterclipid>
								<ismasterclip>TRUE</ismasterclip>
								<duration>244</duration>
								<rate>
									<timebase>25</timebase>
									<ntsc>FALSE</ntsc>
								</rate>
								<name>263091_Glacier Iceberg Iceland Ice_By_Viktor_Sloth_Artlist_HD.mp4</name>
								<media>
									<video>
										<track>
											<clipitem id="clipitem-135">
												<masterclipid>masterclip-44</masterclipid>
												<name>263091_Glacier Iceberg Iceland Ice_By_Viktor_Sloth_Artlist_HD.mp4</name>
												<rate>
													<timebase>25</timebase>
													<ntsc>FALSE</ntsc>
												</rate>
												<alphatype>none</alphatype>
												<file id="file-34"/>
											</clipitem>
										</track>
									</video>
								</media>
								<logginginfo>
									<description></description>
									<scene></scene>
									<shottake></shottake>
									<lognote></lognote>
									<good></good>
									<originalvideofilename></originalvideofilename>
									<originalaudiofilename></originalaudiofilename>
								</logginginfo>
								<colorinfo>
									<lut></lut>
									<lut1></lut1>
									<asc_sop></asc_sop>
									<asc_sat></asc_sat>
									<lut2></lut2>
								</colorinfo>
								<labels>
									<label2>Purple</label2>
								</labels>
							</clip>
							<clip id="masterclip-45" explodedTracks="true">
								<uuid>2eb0ee6c-5b3f-4b94-b92a-6d4b2de2d4f8</uuid>
								<masterclipid>masterclip-45</masterclipid>
								<ismasterclip>TRUE</ismasterclip>
								<duration>1457</duration>
								<rate>
									<timebase>25</timebase>
									<ntsc>FALSE</ntsc>
								</rate>
								<name>263093_Glacier Iceberg Iceland Ice_By_Viktor_Sloth_Artlist_HD.mp4</name>
								<media>
									<video>
										<track>
											<clipitem id="clipitem-136">
												<masterclipid>masterclip-45</masterclipid>
												<name>263093_Glacier Iceberg Iceland Ice_By_Viktor_Sloth_Artlist_HD.mp4</name>
												<rate>
													<timebase>25</timebase>
													<ntsc>FALSE</ntsc>
												</rate>
												<alphatype>none</alphatype>
												<file id="file-35"/>
											</clipitem>
										</track>
									</video>
								</media>
								<logginginfo>
									<description></description>
									<scene></scene>
									<shottake></shottake>
									<lognote></lognote>
									<good></good>
									<originalvideofilename></originalvideofilename>
									<originalaudiofilename></originalaudiofilename>
								</logginginfo>
								<colorinfo>
									<lut></lut>
									<lut1></lut1>
									<asc_sop></asc_sop>
									<asc_sat></asc_sat>
									<lut2></lut2>
								</colorinfo>
								<labels>
									<label2>Purple</label2>
								</labels>
							</clip>
							<clip id="masterclip-46" explodedTracks="true">
								<uuid>55ca5a26-2ef4-477f-9371-b448397ff2cb</uuid>
								<masterclipid>masterclip-46</masterclipid>
								<ismasterclip>TRUE</ismasterclip>
								<duration>548</duration>
								<rate>
									<timebase>25</timebase>
									<ntsc>FALSE</ntsc>
								</rate>
								<name>263100_Glacier Iceberg Iceland Ice_By_Viktor_Sloth_Artlist_HD.mp4</name>
								<media>
									<video>
										<track>
											<clipitem id="clipitem-137">
												<masterclipid>masterclip-46</masterclipid>
												<name>263100_Glacier Iceberg Iceland Ice_By_Viktor_Sloth_Artlist_HD.mp4</name>
												<rate>
													<timebase>25</timebase>
													<ntsc>FALSE</ntsc>
												</rate>
												<alphatype>none</alphatype>
												<file id="file-36"/>
											</clipitem>
										</track>
									</video>
								</media>
								<logginginfo>
									<description></description>
									<scene></scene>
									<shottake></shottake>
									<lognote></lognote>
									<good></good>
									<originalvideofilename></originalvideofilename>
									<originalaudiofilename></originalaudiofilename>
								</logginginfo>
								<colorinfo>
									<lut></lut>
									<lut1></lut1>
									<asc_sop></asc_sop>
									<asc_sat></asc_sat>
									<lut2></lut2>
								</colorinfo>
								<labels>
									<label2>Purple</label2>
								</labels>
							</clip>
							<clip id="masterclip-6" explodedTracks="true">
								<uuid>d5bc38a3-a860-4b9c-ac0f-263cb7865270</uuid>
								<masterclipid>masterclip-6</masterclipid>
								<ismasterclip>TRUE</ismasterclip>
								<duration>452</duration>
								<rate>
									<timebase>25</timebase>
									<ntsc>FALSE</ntsc>
								</rate>
								<name>263101_Glacier Iceberg Iceland Ice_By_Viktor_Sloth_Artlist_HD.mp4</name>
								<media>
									<video>
										<track>
											<clipitem id="clipitem-138">
												<masterclipid>masterclip-6</masterclipid>
												<name>263101_Glacier Iceberg Iceland Ice_By_Viktor_Sloth_Artlist_HD.mp4</name>
												<rate>
													<timebase>25</timebase>
													<ntsc>FALSE</ntsc>
												</rate>
												<alphatype>none</alphatype>
												<file id="file-4"/>
											</clipitem>
										</track>
									</video>
								</media>
								<logginginfo>
									<description></description>
									<scene></scene>
									<shottake></shottake>
									<lognote></lognote>
									<good></good>
									<originalvideofilename></originalvideofilename>
									<originalaudiofilename></originalaudiofilename>
								</logginginfo>
								<colorinfo>
									<lut></lut>
									<lut1></lut1>
									<asc_sop></asc_sop>
									<asc_sat></asc_sat>
									<lut2></lut2>
								</colorinfo>
								<labels>
									<label2>Purple</label2>
								</labels>
							</clip>
							<clip id="masterclip-7" explodedTracks="true">
								<uuid>d7c09800-26c1-4a48-a037-94c9c75bd4a8</uuid>
								<masterclipid>masterclip-7</masterclipid>
								<ismasterclip>TRUE</ismasterclip>
								<duration>325</duration>
								<rate>
									<timebase>25</timebase>
									<ntsc>FALSE</ntsc>
								</rate>
								<name>263104_Lagoon Iceland Jokulsarlon Glacier_By_Viktor_Sloth_Artlist_HD.mp4</name>
								<media>
									<video>
										<track>
											<clipitem id="clipitem-139">
												<masterclipid>masterclip-7</masterclipid>
												<name>263104_Lagoon Iceland Jokulsarlon Glacier_By_Viktor_Sloth_Artlist_HD.mp4</name>
												<rate>
													<timebase>25</timebase>
													<ntsc>FALSE</ntsc>
												</rate>
												<alphatype>none</alphatype>
												<file id="file-5"/>
											</clipitem>
										</track>
									</video>
								</media>
								<logginginfo>
									<description></description>
									<scene></scene>
									<shottake></shottake>
									<lognote></lognote>
									<good></good>
									<originalvideofilename></originalvideofilename>
									<originalaudiofilename></originalaudiofilename>
								</logginginfo>
								<colorinfo>
									<lut></lut>
									<lut1></lut1>
									<asc_sop></asc_sop>
									<asc_sat></asc_sat>
									<lut2></lut2>
								</colorinfo>
								<labels>
									<label2>Purple</label2>
								</labels>
							</clip>
						</children>
					</bin>
					<bin>
						<name>Artlist 3</name>
						<labels>
							<label2>Brown</label2>
						</labels>
						<children>
							<clip id="masterclip-30" explodedTracks="true">
								<uuid>b9f28239-f367-4a16-b7db-68e351310046</uuid>
								<masterclipid>masterclip-30</masterclipid>
								<ismasterclip>TRUE</ismasterclip>
								<duration>308</duration>
								<rate>
									<timebase>25</timebase>
									<ntsc>FALSE</ntsc>
								</rate>
								<name>164519_Hills and trees in Thailand_By_Roma_Black_Artlist_HD.mp4</name>
								<media>
									<video>
										<track>
											<clipitem id="clipitem-140">
												<masterclipid>masterclip-30</masterclipid>
												<name>164519_Hills and trees in Thailand_By_Roma_Black_Artlist_HD.mp4</name>
												<rate>
													<timebase>25</timebase>
													<ntsc>FALSE</ntsc>
												</rate>
												<alphatype>none</alphatype>
												<file id="file-22"/>
											</clipitem>
										</track>
									</video>
								</media>
								<logginginfo>
									<description></description>
									<scene></scene>
									<shottake></shottake>
									<lognote></lognote>
									<good></good>
									<originalvideofilename></originalvideofilename>
									<originalaudiofilename></originalaudiofilename>
								</logginginfo>
								<colorinfo>
									<lut></lut>
									<lut1></lut1>
									<asc_sop></asc_sop>
									<asc_sat></asc_sat>
									<lut2></lut2>
								</colorinfo>
								<labels>
									<label2>Mango</label2>
								</labels>
							</clip>
							<clip id="masterclip-49" explodedTracks="true">
								<uuid>403a3994-a8f8-4c03-b2a1-fd1203b54082</uuid>
								<masterclipid>masterclip-49</masterclipid>
								<ismasterclip>TRUE</ismasterclip>
								<duration>245</duration>
								<rate>
									<timebase>25</timebase>
									<ntsc>FALSE</ntsc>
								</rate>
								<name>164521_Mountains and trees in Thailand_By_Roma_Black_Artlist_HD.mp4</name>
								<media>
									<video>
										<track>
											<clipitem id="clipitem-141">
												<masterclipid>masterclip-49</masterclipid>
												<name>164521_Mountains and trees in Thailand_By_Roma_Black_Artlist_HD.mp4</name>
												<rate>
													<timebase>25</timebase>
													<ntsc>FALSE</ntsc>
												</rate>
												<alphatype>none</alphatype>
												<file id="file-38"/>
											</clipitem>
										</track>
									</video>
								</media>
								<logginginfo>
									<description></description>
									<scene></scene>
									<shottake></shottake>
									<lognote></lognote>
									<good></good>
									<originalvideofilename></originalvideofilename>
									<originalaudiofilename></originalaudiofilename>
								</logginginfo>
								<colorinfo>
									<lut></lut>
									<lut1></lut1>
									<asc_sop></asc_sop>
									<asc_sat></asc_sat>
									<lut2></lut2>
								</colorinfo>
								<labels>
									<label2>Mango</label2>
								</labels>
							</clip>
							<clip id="masterclip-50" explodedTracks="true">
								<uuid>3baba980-3212-497d-aa8a-93add87dc99e</uuid>
								<masterclipid>masterclip-50</masterclipid>
								<ismasterclip>TRUE</ismasterclip>
								<duration>421</duration>
								<rate>
									<timebase>25</timebase>
									<ntsc>FALSE</ntsc>
								</rate>
								<name>164524_Mountains and trees in Thailand_By_Roma_Black_Artlist_HD.mp4</name>
								<media>
									<video>
										<track>
											<clipitem id="clipitem-142">
												<masterclipid>masterclip-50</masterclipid>
												<name>164524_Mountains and trees in Thailand_By_Roma_Black_Artlist_HD.mp4</name>
												<rate>
													<timebase>25</timebase>
													<ntsc>FALSE</ntsc>
												</rate>
												<alphatype>none</alphatype>
												<file id="file-39"/>
											</clipitem>
										</track>
									</video>
								</media>
								<logginginfo>
									<description></description>
									<scene></scene>
									<shottake></shottake>
									<lognote></lognote>
									<good></good>
									<originalvideofilename></originalvideofilename>
									<originalaudiofilename></originalaudiofilename>
								</logginginfo>
								<colorinfo>
									<lut></lut>
									<lut1></lut1>
									<asc_sop></asc_sop>
									<asc_sat></asc_sat>
									<lut2></lut2>
								</colorinfo>
								<labels>
									<label2>Mango</label2>
								</labels>
							</clip>
							<clip id="masterclip-51" explodedTracks="true">
								<uuid>4791379c-787b-4d4c-af74-3e9364acf1ef</uuid>
								<masterclipid>masterclip-51</masterclipid>
								<ismasterclip>TRUE</ismasterclip>
								<duration>797</duration>
								<rate>
									<timebase>25</timebase>
									<ntsc>FALSE</ntsc>
								</rate>
								<name>164527_Mountains and trees in Thailand_By_Roma_Black_Artlist_HD.mp4</name>
								<media>
									<video>
										<track>
											<clipitem id="clipitem-143">
												<masterclipid>masterclip-51</masterclipid>
												<name>164527_Mountains and trees in Thailand_By_Roma_Black_Artlist_HD.mp4</name>
												<rate>
													<timebase>25</timebase>
													<ntsc>FALSE</ntsc>
												</rate>
												<alphatype>none</alphatype>
												<file id="file-40"/>
											</clipitem>
										</track>
									</video>
								</media>
								<logginginfo>
									<description></description>
									<scene></scene>
									<shottake></shottake>
									<lognote></lognote>
									<good></good>
									<originalvideofilename></originalvideofilename>
									<originalaudiofilename></originalaudiofilename>
								</logginginfo>
								<colorinfo>
									<lut></lut>
									<lut1></lut1>
									<asc_sop></asc_sop>
									<asc_sat></asc_sat>
									<lut2></lut2>
								</colorinfo>
								<labels>
									<label2>Mango</label2>
								</labels>
							</clip>
							<clip id="masterclip-10" explodedTracks="true">
								<uuid>e9b2cb50-eb51-4917-a799-be0b84b9f0ba</uuid>
								<masterclipid>masterclip-10</masterclipid>
								<ismasterclip>TRUE</ismasterclip>
								<duration>270</duration>
								<rate>
									<timebase>25</timebase>
									<ntsc>FALSE</ntsc>
								</rate>
								<name>164529_Mountains and trees in Thailand_By_Roma_Black_Artlist_HD.mp4</name>
								<media>
									<video>
										<track>
											<clipitem id="clipitem-144">
												<masterclipid>masterclip-10</masterclipid>
												<name>164529_Mountains and trees in Thailand_By_Roma_Black_Artlist_HD.mp4</name>
												<rate>
													<timebase>25</timebase>
													<ntsc>FALSE</ntsc>
												</rate>
												<alphatype>none</alphatype>
												<file id="file-7"/>
											</clipitem>
										</track>
									</video>
								</media>
								<logginginfo>
									<description></description>
									<scene></scene>
									<shottake></shottake>
									<lognote></lognote>
									<good></good>
									<originalvideofilename></originalvideofilename>
									<originalaudiofilename></originalaudiofilename>
								</logginginfo>
								<colorinfo>
									<lut></lut>
									<lut1></lut1>
									<asc_sop></asc_sop>
									<asc_sat></asc_sat>
									<lut2></lut2>
								</colorinfo>
								<labels>
									<label2>Mango</label2>
								</labels>
							</clip>
							<clip id="masterclip-11" explodedTracks="true">
								<uuid>00d3925b-ac2d-4303-bed0-e11960c638f5</uuid>
								<masterclipid>masterclip-11</masterclipid>
								<ismasterclip>TRUE</ismasterclip>
								<duration>121</duration>
								<rate>
									<timebase>25</timebase>
									<ntsc>FALSE</ntsc>
								</rate>
								<name>164530_Mountains and trees in Thailand_By_Roma_Black_Artlist_HD.mp4</name>
								<media>
									<video>
										<track>
											<clipitem id="clipitem-145">
												<masterclipid>masterclip-11</masterclipid>
												<name>164530_Mountains and trees in Thailand_By_Roma_Black_Artlist_HD.mp4</name>
												<rate>
													<timebase>25</timebase>
													<ntsc>FALSE</ntsc>
												</rate>
												<alphatype>none</alphatype>
												<file id="file-8"/>
											</clipitem>
										</track>
									</video>
								</media>
								<logginginfo>
									<description></description>
									<scene></scene>
									<shottake></shottake>
									<lognote></lognote>
									<good></good>
									<originalvideofilename></originalvideofilename>
									<originalaudiofilename></originalaudiofilename>
								</logginginfo>
								<colorinfo>
									<lut></lut>
									<lut1></lut1>
									<asc_sop></asc_sop>
									<asc_sat></asc_sat>
									<lut2></lut2>
								</colorinfo>
								<labels>
									<label2>Mango</label2>
								</labels>
							</clip>
						</children>
					</bin>
				</children>
			</bin>
			<bin>
				<name>03_Music</name>
				<labels>
					<label2>Brown</label2>
				</labels>
				<children>
					<clip id="masterclip-24" explodedTracks="true">
						<uuid>46ddb3e3-41ce-47ed-8334-5d0b8c22c72a</uuid>
						<masterclipid>masterclip-24</masterclipid>
						<ismasterclip>TRUE</ismasterclip>
						<duration>5844</duration>
						<rate>
							<timebase>30</timebase>
							<ntsc>TRUE</ntsc>
						</rate>
						<name>Adrián Berenguer - Premiere.mp3</name>
						<media>
							<audio>
								<track>
									<clipitem id="clipitem-146">
										<masterclipid>masterclip-24</masterclipid>
										<name>Adrián Berenguer - Premiere.mp3</name>
										<rate>
											<timebase>30</timebase>
											<ntsc>TRUE</ntsc>
										</rate>
										<file id="file-18"/>
										<sourcetrack>
											<mediatype>audio</mediatype>
											<trackindex>1</trackindex>
										</sourcetrack>
										<link>
											<linkclipref>clipitem-146</linkclipref>
											<mediatype>audio</mediatype>
											<trackindex>1</trackindex>
											<clipindex>1</clipindex>
											<groupindex>1</groupindex>
										</link>
										<link>
											<linkclipref>clipitem-147</linkclipref>
											<mediatype>audio</mediatype>
											<trackindex>2</trackindex>
											<clipindex>1</clipindex>
											<groupindex>1</groupindex>
										</link>
									</clipitem>
								</track>
								<track>
									<clipitem id="clipitem-147">
										<masterclipid>masterclip-24</masterclipid>
										<name>Adrián Berenguer - Premiere.mp3</name>
										<rate>
											<timebase>30</timebase>
											<ntsc>TRUE</ntsc>
										</rate>
										<file id="file-18"/>
										<sourcetrack>
											<mediatype>audio</mediatype>
											<trackindex>2</trackindex>
										</sourcetrack>
										<link>
											<linkclipref>clipitem-146</linkclipref>
											<mediatype>audio</mediatype>
											<trackindex>1</trackindex>
											<clipindex>1</clipindex>
											<groupindex>1</groupindex>
										</link>
										<link>
											<linkclipref>clipitem-147</linkclipref>
											<mediatype>audio</mediatype>
											<trackindex>2</trackindex>
											<clipindex>1</clipindex>
											<groupindex>1</groupindex>
										</link>
									</clipitem>
								</track>
							</audio>
						</media>
						<logginginfo>
							<description></description>
							<scene></scene>
							<shottake></shottake>
							<lognote></lognote>
							<good></good>
							<originalvideofilename></originalvideofilename>
							<originalaudiofilename></originalaudiofilename>
						</logginginfo>
						<colorinfo>
							<lut></lut>
							<lut1></lut1>
							<asc_sop></asc_sop>
							<asc_sat></asc_sat>
							<lut2></lut2>
						</colorinfo>
						<labels>
							<label2>Blue</label2>
						</labels>
					</clip>
					<clip id="masterclip-28" explodedTracks="true">
						<uuid>8467b669-4a11-4c1d-b7c2-40e30647b57d</uuid>
						<masterclipid>masterclip-28</masterclipid>
						<ismasterclip>TRUE</ismasterclip>
						<duration>6125</duration>
						<rate>
							<timebase>30</timebase>
							<ntsc>TRUE</ntsc>
						</rate>
						<name>ANBR - Seasons.mp3</name>
						<media>
							<audio>
								<track>
									<clipitem id="clipitem-148">
										<masterclipid>masterclip-28</masterclipid>
										<name>ANBR - Seasons.mp3</name>
										<rate>
											<timebase>30</timebase>
											<ntsc>TRUE</ntsc>
										</rate>
										<file id="file-21"/>
										<sourcetrack>
											<mediatype>audio</mediatype>
											<trackindex>1</trackindex>
										</sourcetrack>
										<link>
											<linkclipref>clipitem-148</linkclipref>
											<mediatype>audio</mediatype>
											<trackindex>1</trackindex>
											<clipindex>1</clipindex>
											<groupindex>1</groupindex>
										</link>
										<link>
											<linkclipref>clipitem-149</linkclipref>
											<mediatype>audio</mediatype>
											<trackindex>2</trackindex>
											<clipindex>1</clipindex>
											<groupindex>1</groupindex>
										</link>
									</clipitem>
								</track>
								<track>
									<clipitem id="clipitem-149">
										<masterclipid>masterclip-28</masterclipid>
										<name>ANBR - Seasons.mp3</name>
										<rate>
											<timebase>30</timebase>
											<ntsc>TRUE</ntsc>
										</rate>
										<file id="file-21"/>
										<sourcetrack>
											<mediatype>audio</mediatype>
											<trackindex>2</trackindex>
										</sourcetrack>
										<link>
											<linkclipref>clipitem-148</linkclipref>
											<mediatype>audio</mediatype>
											<trackindex>1</trackindex>
											<clipindex>1</clipindex>
											<groupindex>1</groupindex>
										</link>
										<link>
											<linkclipref>clipitem-149</linkclipref>
											<mediatype>audio</mediatype>
											<trackindex>2</trackindex>
											<clipindex>1</clipindex>
											<groupindex>1</groupindex>
										</link>
									</clipitem>
								</track>
							</audio>
						</media>
						<logginginfo>
							<description></description>
							<scene></scene>
							<shottake></shottake>
							<lognote>All Rights Reserved to www.Art-list.io</lognote>
							<good></good>
							<originalvideofilename></originalvideofilename>
							<originalaudiofilename></originalaudiofilename>
						</logginginfo>
						<colorinfo>
							<lut></lut>
							<lut1></lut1>
							<asc_sop></asc_sop>
							<asc_sat></asc_sat>
							<lut2></lut2>
						</colorinfo>
						<labels>
							<label2>Purple</label2>
						</labels>
					</clip>
					<clip id="masterclip-40" explodedTracks="true">
						<uuid>3984d1bb-8cc0-470f-ad44-cea7edd092d5</uuid>
						<masterclipid>masterclip-40</masterclipid>
						<ismasterclip>TRUE</ismasterclip>
						<duration>4411</duration>
						<rate>
							<timebase>30</timebase>
							<ntsc>TRUE</ntsc>
						</rate>
						<name>Hanjo Gabler - Running Herd.wav</name>
						<media>
							<audio>
								<track>
									<clipitem id="clipitem-150">
										<masterclipid>masterclip-40</masterclipid>
										<name>Hanjo Gabler - Running Herd.wav</name>
										<rate>
											<timebase>30</timebase>
											<ntsc>TRUE</ntsc>
										</rate>
										<file id="file-31"/>
										<sourcetrack>
											<mediatype>audio</mediatype>
											<trackindex>1</trackindex>
										</sourcetrack>
										<link>
											<linkclipref>clipitem-150</linkclipref>
											<mediatype>audio</mediatype>
											<trackindex>1</trackindex>
											<clipindex>1</clipindex>
											<groupindex>1</groupindex>
										</link>
										<link>
											<linkclipref>clipitem-151</linkclipref>
											<mediatype>audio</mediatype>
											<trackindex>2</trackindex>
											<clipindex>1</clipindex>
											<groupindex>1</groupindex>
										</link>
									</clipitem>
								</track>
								<track>
									<clipitem id="clipitem-151">
										<masterclipid>masterclip-40</masterclipid>
										<name>Hanjo Gabler - Running Herd.wav</name>
										<rate>
											<timebase>30</timebase>
											<ntsc>TRUE</ntsc>
										</rate>
										<file id="file-31"/>
										<sourcetrack>
											<mediatype>audio</mediatype>
											<trackindex>2</trackindex>
										</sourcetrack>
										<link>
											<linkclipref>clipitem-150</linkclipref>
											<mediatype>audio</mediatype>
											<trackindex>1</trackindex>
											<clipindex>1</clipindex>
											<groupindex>1</groupindex>
										</link>
										<link>
											<linkclipref>clipitem-151</linkclipref>
											<mediatype>audio</mediatype>
											<trackindex>2</trackindex>
											<clipindex>1</clipindex>
											<groupindex>1</groupindex>
										</link>
									</clipitem>
								</track>
							</audio>
						</media>
						<logginginfo>
							<description></description>
							<scene></scene>
							<shottake></shottake>
							<lognote></lognote>
							<good></good>
							<originalvideofilename></originalvideofilename>
							<originalaudiofilename></originalaudiofilename>
						</logginginfo>
						<colorinfo>
							<lut></lut>
							<lut1></lut1>
							<asc_sop></asc_sop>
							<asc_sat></asc_sat>
							<lut2></lut2>
						</colorinfo>
						<labels>
							<label2>Blue</label2>
						</labels>
					</clip>
					<clip id="masterclip-31" explodedTracks="true">
						<uuid>627a39cf-e3eb-4a88-acd4-a23309efd006</uuid>
						<masterclipid>masterclip-31</masterclipid>
						<ismasterclip>TRUE</ismasterclip>
						<duration>4291</duration>
						<rate>
							<timebase>30</timebase>
							<ntsc>TRUE</ntsc>
						</rate>
						<name>Ardie Son - A Winter Migration.mp3</name>
						<media>
							<audio>
								<track>
									<clipitem id="clipitem-152">
										<masterclipid>masterclip-31</masterclipid>
										<name>Ardie Son - A Winter Migration.mp3</name>
										<rate>
											<timebase>30</timebase>
											<ntsc>TRUE</ntsc>
										</rate>
										<file id="file-23"/>
										<sourcetrack>
											<mediatype>audio</mediatype>
											<trackindex>1</trackindex>
										</sourcetrack>
										<link>
											<linkclipref>clipitem-152</linkclipref>
											<mediatype>audio</mediatype>
											<trackindex>1</trackindex>
											<clipindex>1</clipindex>
											<groupindex>1</groupindex>
										</link>
										<link>
											<linkclipref>clipitem-153</linkclipref>
											<mediatype>audio</mediatype>
											<trackindex>2</trackindex>
											<clipindex>1</clipindex>
											<groupindex>1</groupindex>
										</link>
									</clipitem>
								</track>
								<track>
									<clipitem id="clipitem-153">
										<masterclipid>masterclip-31</masterclipid>
										<name>Ardie Son - A Winter Migration.mp3</name>
										<rate>
											<timebase>30</timebase>
											<ntsc>TRUE</ntsc>
										</rate>
										<file id="file-23"/>
										<sourcetrack>
											<mediatype>audio</mediatype>
											<trackindex>2</trackindex>
										</sourcetrack>
										<link>
											<linkclipref>clipitem-152</linkclipref>
											<mediatype>audio</mediatype>
											<trackindex>1</trackindex>
											<clipindex>1</clipindex>
											<groupindex>1</groupindex>
										</link>
										<link>
											<linkclipref>clipitem-153</linkclipref>
											<mediatype>audio</mediatype>
											<trackindex>2</trackindex>
											<clipindex>1</clipindex>
											<groupindex>1</groupindex>
										</link>
									</clipitem>
								</track>
							</audio>
						</media>
						<logginginfo>
							<description></description>
							<scene></scene>
							<shottake></shottake>
							<lognote></lognote>
							<good></good>
							<originalvideofilename></originalvideofilename>
							<originalaudiofilename></originalaudiofilename>
						</logginginfo>
						<colorinfo>
							<lut></lut>
							<lut1></lut1>
							<asc_sop></asc_sop>
							<asc_sat></asc_sat>
							<lut2></lut2>
						</colorinfo>
						<labels>
							<label2>Mango</label2>
						</labels>
					</clip>
					<clip id="masterclip-47" explodedTracks="true">
						<uuid>9646863d-7159-4a9c-8eb8-bdef9f11d776</uuid>
						<masterclipid>masterclip-47</masterclipid>
						<ismasterclip>TRUE</ismasterclip>
						<duration>4735</duration>
						<rate>
							<timebase>30</timebase>
							<ntsc>TRUE</ntsc>
						</rate>
						<name>Hans Johnson - Remember This.mp3</name>
						<media>
							<audio>
								<track>
									<clipitem id="clipitem-154">
										<masterclipid>masterclip-47</masterclipid>
										<name>Hans Johnson - Remember This.mp3</name>
										<rate>
											<timebase>30</timebase>
											<ntsc>TRUE</ntsc>
										</rate>
										<file id="file-37"/>
										<sourcetrack>
											<mediatype>audio</mediatype>
											<trackindex>1</trackindex>
										</sourcetrack>
										<link>
											<linkclipref>clipitem-154</linkclipref>
											<mediatype>audio</mediatype>
											<trackindex>1</trackindex>
											<clipindex>1</clipindex>
											<groupindex>1</groupindex>
										</link>
										<link>
											<linkclipref>clipitem-155</linkclipref>
											<mediatype>audio</mediatype>
											<trackindex>2</trackindex>
											<clipindex>1</clipindex>
											<groupindex>1</groupindex>
										</link>
									</clipitem>
								</track>
								<track>
									<clipitem id="clipitem-155">
										<masterclipid>masterclip-47</masterclipid>
										<name>Hans Johnson - Remember This.mp3</name>
										<rate>
											<timebase>30</timebase>
											<ntsc>TRUE</ntsc>
										</rate>
										<file id="file-37"/>
										<sourcetrack>
											<mediatype>audio</mediatype>
											<trackindex>2</trackindex>
										</sourcetrack>
										<link>
											<linkclipref>clipitem-154</linkclipref>
											<mediatype>audio</mediatype>
											<trackindex>1</trackindex>
											<clipindex>1</clipindex>
											<groupindex>1</groupindex>
										</link>
										<link>
											<linkclipref>clipitem-155</linkclipref>
											<mediatype>audio</mediatype>
											<trackindex>2</trackindex>
											<clipindex>1</clipindex>
											<groupindex>1</groupindex>
										</link>
									</clipitem>
								</track>
							</audio>
						</media>
						<logginginfo>
							<description></description>
							<scene></scene>
							<shottake></shottake>
							<lognote>All Rights Reserved to www.Art-list.io</lognote>
							<good></good>
							<originalvideofilename></originalvideofilename>
							<originalaudiofilename></originalaudiofilename>
						</logginginfo>
						<colorinfo>
							<lut></lut>
							<lut1></lut1>
							<asc_sop></asc_sop>
							<asc_sat></asc_sat>
							<lut2></lut2>
						</colorinfo>
						<labels>
							<label2>Purple</label2>
						</labels>
					</clip>
					<clip id="masterclip-52" explodedTracks="true">
						<uuid>27ef7bce-1201-4304-8695-8501ebc57060</uuid>
						<masterclipid>masterclip-52</masterclipid>
						<ismasterclip>TRUE</ismasterclip>
						<duration>6719</duration>
						<rate>
							<timebase>30</timebase>
							<ntsc>TRUE</ntsc>
						</rate>
						<name>Ian Post - First Rain - Piano  Leads Version.wav</name>
						<media>
							<audio>
								<track>
									<clipitem id="clipitem-156">
										<masterclipid>masterclip-52</masterclipid>
										<name>Ian Post - First Rain - Piano  Leads Version.wav</name>
										<rate>
											<timebase>30</timebase>
											<ntsc>TRUE</ntsc>
										</rate>
										<file id="file-41"/>
										<sourcetrack>
											<mediatype>audio</mediatype>
											<trackindex>1</trackindex>
										</sourcetrack>
										<link>
											<linkclipref>clipitem-156</linkclipref>
											<mediatype>audio</mediatype>
											<trackindex>1</trackindex>
											<clipindex>1</clipindex>
											<groupindex>1</groupindex>
										</link>
										<link>
											<linkclipref>clipitem-157</linkclipref>
											<mediatype>audio</mediatype>
											<trackindex>2</trackindex>
											<clipindex>1</clipindex>
											<groupindex>1</groupindex>
										</link>
									</clipitem>
								</track>
								<track>
									<clipitem id="clipitem-157">
										<masterclipid>masterclip-52</masterclipid>
										<name>Ian Post - First Rain - Piano  Leads Version.wav</name>
										<rate>
											<timebase>30</timebase>
											<ntsc>TRUE</ntsc>
										</rate>
										<file id="file-41"/>
										<sourcetrack>
											<mediatype>audio</mediatype>
											<trackindex>2</trackindex>
										</sourcetrack>
										<link>
											<linkclipref>clipitem-156</linkclipref>
											<mediatype>audio</mediatype>
											<trackindex>1</trackindex>
											<clipindex>1</clipindex>
											<groupindex>1</groupindex>
										</link>
										<link>
											<linkclipref>clipitem-157</linkclipref>
											<mediatype>audio</mediatype>
											<trackindex>2</trackindex>
											<clipindex>1</clipindex>
											<groupindex>1</groupindex>
										</link>
									</clipitem>
								</track>
							</audio>
						</media>
						<logginginfo>
							<description></description>
							<scene></scene>
							<shottake></shottake>
							<lognote></lognote>
							<good></good>
							<originalvideofilename></originalvideofilename>
							<originalaudiofilename></originalaudiofilename>
						</logginginfo>
						<colorinfo>
							<lut></lut>
							<lut1></lut1>
							<asc_sop></asc_sop>
							<asc_sat></asc_sat>
							<lut2></lut2>
						</colorinfo>
						<labels>
							<label2>Mango</label2>
						</labels>
					</clip>
					<clip id="masterclip-4" explodedTracks="true">
						<uuid>8a8ac497-41d6-47a0-a832-95eca649d7a9</uuid>
						<masterclipid>masterclip-4</masterclipid>
						<ismasterclip>TRUE</ismasterclip>
						<duration>6607</duration>
						<rate>
							<timebase>30</timebase>
							<ntsc>TRUE</ntsc>
						</rate>
						<name>Kevin P Holt - Shades of Autumn.mp3</name>
						<media>
							<audio>
								<track>
									<clipitem id="clipitem-158">
										<masterclipid>masterclip-4</masterclipid>
										<name>Kevin P Holt - Shades of Autumn.mp3</name>
										<rate>
											<timebase>30</timebase>
											<ntsc>TRUE</ntsc>
										</rate>
										<file id="file-3"/>
										<sourcetrack>
											<mediatype>audio</mediatype>
											<trackindex>1</trackindex>
										</sourcetrack>
										<link>
											<linkclipref>clipitem-158</linkclipref>
											<mediatype>audio</mediatype>
											<trackindex>1</trackindex>
											<clipindex>1</clipindex>
											<groupindex>1</groupindex>
										</link>
										<link>
											<linkclipref>clipitem-159</linkclipref>
											<mediatype>audio</mediatype>
											<trackindex>2</trackindex>
											<clipindex>1</clipindex>
											<groupindex>1</groupindex>
										</link>
									</clipitem>
								</track>
								<track>
									<clipitem id="clipitem-159">
										<masterclipid>masterclip-4</masterclipid>
										<name>Kevin P Holt - Shades of Autumn.mp3</name>
										<rate>
											<timebase>30</timebase>
											<ntsc>TRUE</ntsc>
										</rate>
										<file id="file-3"/>
										<sourcetrack>
											<mediatype>audio</mediatype>
											<trackindex>2</trackindex>
										</sourcetrack>
										<link>
											<linkclipref>clipitem-158</linkclipref>
											<mediatype>audio</mediatype>
											<trackindex>1</trackindex>
											<clipindex>1</clipindex>
											<groupindex>1</groupindex>
										</link>
										<link>
											<linkclipref>clipitem-159</linkclipref>
											<mediatype>audio</mediatype>
											<trackindex>2</trackindex>
											<clipindex>1</clipindex>
											<groupindex>1</groupindex>
										</link>
									</clipitem>
								</track>
							</audio>
						</media>
						<logginginfo>
							<description></description>
							<scene></scene>
							<shottake></shottake>
							<lognote></lognote>
							<good></good>
							<originalvideofilename></originalvideofilename>
							<originalaudiofilename></originalaudiofilename>
						</logginginfo>
						<colorinfo>
							<lut></lut>
							<lut1></lut1>
							<asc_sop></asc_sop>
							<asc_sat></asc_sat>
							<lut2></lut2>
						</colorinfo>
						<labels>
							<label2>Blue</label2>
						</labels>
					</clip>
					<clip id="masterclip-8" explodedTracks="true">
						<uuid>116e85e6-f2ec-455a-8c5c-e20409960b11</uuid>
						<masterclipid>masterclip-8</masterclipid>
						<ismasterclip>TRUE</ismasterclip>
						<duration>6054</duration>
						<rate>
							<timebase>30</timebase>
							<ntsc>TRUE</ntsc>
						</rate>
						<name>Shahead Mostafafar - Making the Future.mp3</name>
						<media>
							<audio>
								<track>
									<clipitem id="clipitem-160">
										<masterclipid>masterclip-8</masterclipid>
										<name>Shahead Mostafafar - Making the Future.mp3</name>
										<rate>
											<timebase>30</timebase>
											<ntsc>TRUE</ntsc>
										</rate>
										<file id="file-6"/>
										<sourcetrack>
											<mediatype>audio</mediatype>
											<trackindex>1</trackindex>
										</sourcetrack>
										<link>
											<linkclipref>clipitem-160</linkclipref>
											<mediatype>audio</mediatype>
											<trackindex>1</trackindex>
											<clipindex>1</clipindex>
											<groupindex>1</groupindex>
										</link>
										<link>
											<linkclipref>clipitem-161</linkclipref>
											<mediatype>audio</mediatype>
											<trackindex>2</trackindex>
											<clipindex>1</clipindex>
											<groupindex>1</groupindex>
										</link>
									</clipitem>
								</track>
								<track>
									<clipitem id="clipitem-161">
										<masterclipid>masterclip-8</masterclipid>
										<name>Shahead Mostafafar - Making the Future.mp3</name>
										<rate>
											<timebase>30</timebase>
											<ntsc>TRUE</ntsc>
										</rate>
										<file id="file-6"/>
										<sourcetrack>
											<mediatype>audio</mediatype>
											<trackindex>2</trackindex>
										</sourcetrack>
										<link>
											<linkclipref>clipitem-160</linkclipref>
											<mediatype>audio</mediatype>
											<trackindex>1</trackindex>
											<clipindex>1</clipindex>
											<groupindex>1</groupindex>
										</link>
										<link>
											<linkclipref>clipitem-161</linkclipref>
											<mediatype>audio</mediatype>
											<trackindex>2</trackindex>
											<clipindex>1</clipindex>
											<groupindex>1</groupindex>
										</link>
									</clipitem>
								</track>
							</audio>
						</media>
						<logginginfo>
							<description></description>
							<scene></scene>
							<shottake></shottake>
							<lognote>All Rights Reserved to www.Art-list.io</lognote>
							<good></good>
							<originalvideofilename></originalvideofilename>
							<originalaudiofilename></originalaudiofilename>
						</logginginfo>
						<colorinfo>
							<lut></lut>
							<lut1></lut1>
							<asc_sop></asc_sop>
							<asc_sat></asc_sat>
							<lut2></lut2>
						</colorinfo>
						<labels>
							<label2>Purple</label2>
						</labels>
					</clip>
					<clip id="masterclip-12" explodedTracks="true">
						<uuid>630bf9f2-f542-4c7e-a24e-147160ec1ba9</uuid>
						<masterclipid>masterclip-12</masterclipid>
						<ismasterclip>TRUE</ismasterclip>
						<duration>2771</duration>
						<rate>
							<timebase>30</timebase>
							<ntsc>TRUE</ntsc>
						</rate>
						<name>Veaceslav Draganov - The Scents of Spring.wav</name>
						<media>
							<audio>
								<track>
									<clipitem id="clipitem-162">
										<masterclipid>masterclip-12</masterclipid>
										<name>Veaceslav Draganov - The Scents of Spring.wav</name>
										<rate>
											<timebase>30</timebase>
											<ntsc>TRUE</ntsc>
										</rate>
										<file id="file-9"/>
										<sourcetrack>
											<mediatype>audio</mediatype>
											<trackindex>1</trackindex>
										</sourcetrack>
										<link>
											<linkclipref>clipitem-162</linkclipref>
											<mediatype>audio</mediatype>
											<trackindex>1</trackindex>
											<clipindex>1</clipindex>
											<groupindex>1</groupindex>
										</link>
										<link>
											<linkclipref>clipitem-163</linkclipref>
											<mediatype>audio</mediatype>
											<trackindex>2</trackindex>
											<clipindex>1</clipindex>
											<groupindex>1</groupindex>
										</link>
									</clipitem>
								</track>
								<track>
									<clipitem id="clipitem-163">
										<masterclipid>masterclip-12</masterclipid>
										<name>Veaceslav Draganov - The Scents of Spring.wav</name>
										<rate>
											<timebase>30</timebase>
											<ntsc>TRUE</ntsc>
										</rate>
										<file id="file-9"/>
										<sourcetrack>
											<mediatype>audio</mediatype>
											<trackindex>2</trackindex>
										</sourcetrack>
										<link>
											<linkclipref>clipitem-162</linkclipref>
											<mediatype>audio</mediatype>
											<trackindex>1</trackindex>
											<clipindex>1</clipindex>
											<groupindex>1</groupindex>
										</link>
										<link>
											<linkclipref>clipitem-163</linkclipref>
											<mediatype>audio</mediatype>
											<trackindex>2</trackindex>
											<clipindex>1</clipindex>
											<groupindex>1</groupindex>
										</link>
									</clipitem>
								</track>
							</audio>
						</media>
						<logginginfo>
							<description></description>
							<scene></scene>
							<shottake></shottake>
							<lognote></lognote>
							<good></good>
							<originalvideofilename></originalvideofilename>
							<originalaudiofilename></originalaudiofilename>
						</logginginfo>
						<colorinfo>
							<lut></lut>
							<lut1></lut1>
							<asc_sop></asc_sop>
							<asc_sat></asc_sat>
							<lut2></lut2>
						</colorinfo>
						<labels>
							<label2>Mango</label2>
						</labels>
					</clip>
				</children>
			</bin>
			<bin>
				<name>02_Nested Comps</name>
				<labels>
					<label2>Brown</label2>
				</labels>
				<children>
<sequence id="sequence-4"/>
<sequence id="sequence-10"/>
<sequence id="sequence-14"/>
<sequence id="sequence-3"/>
<sequence id="sequence-13"/>
<sequence id="sequence-9"/>
<sequence id="sequence-2"/>
<sequence id="sequence-8"/>
<sequence id="sequence-12"/>
				</children>
			</bin>
			<bin>
				<name>04_Assets</name>
				<labels>
					<label2>Brown</label2>
				</labels>
				<children>
					<clip id="masterclip-19" explodedTracks="true">
						<uuid>80c971e5-82a7-4ac5-bec4-900730f3915b</uuid>
						<masterclipid>masterclip-19</masterclipid>
						<ismasterclip>TRUE</ismasterclip>
						<duration>121</duration>
						<rate>
							<timebase>30</timebase>
							<ntsc>FALSE</ntsc>
						</rate>
						<name>Transition.mov</name>
						<media>
							<video>
								<track>
									<clipitem id="clipitem-164">
										<masterclipid>masterclip-19</masterclipid>
										<name>Transition.mov</name>
										<rate>
											<timebase>30</timebase>
											<ntsc>FALSE</ntsc>
										</rate>
										<alphatype>none</alphatype>
										<file id="file-14"/>
										<link>
											<linkclipref>clipitem-164</linkclipref>
											<mediatype>video</mediatype>
											<trackindex>1</trackindex>
											<clipindex>1</clipindex>
										</link>
										<link>
											<linkclipref>clipitem-165</linkclipref>
											<mediatype>audio</mediatype>
											<trackindex>1</trackindex>
											<clipindex>1</clipindex>
											<groupindex>1</groupindex>
										</link>
										<link>
											<linkclipref>clipitem-166</linkclipref>
											<mediatype>audio</mediatype>
											<trackindex>2</trackindex>
											<clipindex>1</clipindex>
											<groupindex>1</groupindex>
										</link>
									</clipitem>
								</track>
							</video>
							<audio>
								<track>
									<clipitem id="clipitem-165">
										<masterclipid>masterclip-19</masterclipid>
										<name>Transition.mov</name>
										<rate>
											<timebase>30</timebase>
											<ntsc>FALSE</ntsc>
										</rate>
										<file id="file-14"/>
										<sourcetrack>
											<mediatype>audio</mediatype>
											<trackindex>1</trackindex>
										</sourcetrack>
										<link>
											<linkclipref>clipitem-164</linkclipref>
											<mediatype>video</mediatype>
											<trackindex>1</trackindex>
											<clipindex>1</clipindex>
										</link>
										<link>
											<linkclipref>clipitem-165</linkclipref>
											<mediatype>audio</mediatype>
											<trackindex>1</trackindex>
											<clipindex>1</clipindex>
											<groupindex>1</groupindex>
										</link>
										<link>
											<linkclipref>clipitem-166</linkclipref>
											<mediatype>audio</mediatype>
											<trackindex>2</trackindex>
											<clipindex>1</clipindex>
											<groupindex>1</groupindex>
										</link>
									</clipitem>
								</track>
								<track>
									<clipitem id="clipitem-166">
										<masterclipid>masterclip-19</masterclipid>
										<name>Transition.mov</name>
										<rate>
											<timebase>30</timebase>
											<ntsc>FALSE</ntsc>
										</rate>
										<file id="file-14"/>
										<sourcetrack>
											<mediatype>audio</mediatype>
											<trackindex>2</trackindex>
										</sourcetrack>
										<link>
											<linkclipref>clipitem-164</linkclipref>
											<mediatype>video</mediatype>
											<trackindex>1</trackindex>
											<clipindex>1</clipindex>
										</link>
										<link>
											<linkclipref>clipitem-165</linkclipref>
											<mediatype>audio</mediatype>
											<trackindex>1</trackindex>
											<clipindex>1</clipindex>
											<groupindex>1</groupindex>
										</link>
										<link>
											<linkclipref>clipitem-166</linkclipref>
											<mediatype>audio</mediatype>
											<trackindex>2</trackindex>
											<clipindex>1</clipindex>
											<groupindex>1</groupindex>
										</link>
									</clipitem>
								</track>
							</audio>
						</media>
						<logginginfo>
							<description></description>
							<scene></scene>
							<shottake></shottake>
							<lognote></lognote>
							<good></good>
							<originalvideofilename></originalvideofilename>
							<originalaudiofilename></originalaudiofilename>
						</logginginfo>
						<colorinfo>
							<lut></lut>
							<lut1></lut1>
							<asc_sop></asc_sop>
							<asc_sat></asc_sat>
							<lut2></lut2>
						</colorinfo>
						<labels>
							<label2>Violet</label2>
						</labels>
					</clip>
<sequence id="sequence-6"/>
					<clip id="masterclip-17" explodedTracks="true">
						<uuid>8f65f493-2efe-43dd-8cbb-85f790a9abc5</uuid>
						<masterclipid>masterclip-17</masterclipid>
						<ismasterclip>TRUE</ismasterclip>
						<duration>150</duration>
						<rate>
							<timebase>30</timebase>
							<ntsc>TRUE</ntsc>
						</rate>
						<in>0</in>
						<out>149</out>
						<name>ATM Bug (Right).png</name>
						<media>
							<video>
								<track>
									<clipitem id="clipitem-167">
										<masterclipid>masterclip-17</masterclipid>
										<name>ATM Bug (Right).png</name>
										<rate>
											<timebase>30</timebase>
											<ntsc>TRUE</ntsc>
										</rate>
										<alphatype>straight</alphatype>
										<file id="file-13"/>
									</clipitem>
								</track>
							</video>
						</media>
						<logginginfo>
							<description></description>
							<scene></scene>
							<shottake></shottake>
							<lognote></lognote>
							<good></good>
							<originalvideofilename></originalvideofilename>
							<originalaudiofilename></originalaudiofilename>
						</logginginfo>
						<colorinfo>
							<lut></lut>
							<lut1></lut1>
							<asc_sop></asc_sop>
							<asc_sat></asc_sat>
							<lut2></lut2>
						</colorinfo>
						<labels>
							<label2>Purple</label2>
						</labels>
					</clip>
<sequence id="sequence-5"/>
					<bin>
						<name>00_L3s</name>
						<labels>
							<label2>Brown</label2>
						</labels>
						<children>
							<clip id="masterclip-15" explodedTracks="true">
								<uuid>b2dfd79d-0da1-49dd-a90b-4d3e4b749759</uuid>
								<masterclipid>masterclip-15</masterclipid>
								<ismasterclip>TRUE</ismasterclip>
								<duration>150</duration>
								<rate>
									<timebase>30</timebase>
									<ntsc>TRUE</ntsc>
								</rate>
								<in>0</in>
								<out>149</out>
								<name>L3 9</name>
								<media>
									<video>
										<track>
											<clipitem id="clipitem-168">
												<masterclipid>masterclip-15</masterclipid>
												<name>L3 9</name>
												<rate>
													<timebase>30</timebase>
													<ntsc>TRUE</ntsc>
												</rate>
												<alphatype>none</alphatype>
												<file id="file-12"/>
											</clipitem>
										</track>
									</video>
								</media>
								<logginginfo>
									<description></description>
									<scene></scene>
									<shottake></shottake>
									<lognote></lognote>
									<good></good>
									<originalvideofilename></originalvideofilename>
									<originalaudiofilename></originalaudiofilename>
								</logginginfo>
								<colorinfo>
									<lut></lut>
									<lut1></lut1>
									<asc_sop></asc_sop>
									<asc_sat></asc_sat>
									<lut2></lut2>
								</colorinfo>
								<labels>
									<label2>Lavender</label2>
								</labels>
							</clip>
							<clip id="masterclip-32" explodedTracks="true">
								<uuid>7a1b6c8c-7208-4ef6-86fa-c963eee011ce</uuid>
								<masterclipid>masterclip-32</masterclipid>
								<ismasterclip>TRUE</ismasterclip>
								<duration>150</duration>
								<rate>
									<timebase>30</timebase>
									<ntsc>TRUE</ntsc>
								</rate>
								<in>0</in>
								<out>149</out>
								<name>L3 1</name>
								<media>
									<video>
										<track>
											<clipitem id="clipitem-169">
												<masterclipid>masterclip-32</masterclipid>
												<name>L3 1</name>
												<rate>
													<timebase>30</timebase>
													<ntsc>TRUE</ntsc>
												</rate>
												<alphatype>none</alphatype>
												<file id="file-24"/>
											</clipitem>
										</track>
									</video>
								</media>
								<logginginfo>
									<description></description>
									<scene></scene>
									<shottake></shottake>
									<lognote></lognote>
									<good></good>
									<originalvideofilename></originalvideofilename>
									<originalaudiofilename></originalaudiofilename>
								</logginginfo>
								<colorinfo>
									<lut></lut>
									<lut1></lut1>
									<asc_sop></asc_sop>
									<asc_sat></asc_sat>
									<lut2></lut2>
								</colorinfo>
								<labels>
									<label2>Lavender</label2>
								</labels>
							</clip>
							<clip id="masterclip-33" explodedTracks="true">
								<uuid>5e6353ba-5936-4b95-bc4c-b7cb0eccec1f</uuid>
								<masterclipid>masterclip-33</masterclipid>
								<ismasterclip>TRUE</ismasterclip>
								<duration>150</duration>
								<rate>
									<timebase>30</timebase>
									<ntsc>TRUE</ntsc>
								</rate>
								<in>0</in>
								<out>149</out>
								<name>L3 2</name>
								<media>
									<video>
										<track>
											<clipitem id="clipitem-170">
												<masterclipid>masterclip-33</masterclipid>
												<name>L3 2</name>
												<rate>
													<timebase>30</timebase>
													<ntsc>TRUE</ntsc>
												</rate>
												<alphatype>none</alphatype>
												<file id="file-25"/>
											</clipitem>
										</track>
									</video>
								</media>
								<logginginfo>
									<description></description>
									<scene></scene>
									<shottake></shottake>
									<lognote></lognote>
									<good></good>
									<originalvideofilename></originalvideofilename>
									<originalaudiofilename></originalaudiofilename>
								</logginginfo>
								<colorinfo>
									<lut></lut>
									<lut1></lut1>
									<asc_sop></asc_sop>
									<asc_sat></asc_sat>
									<lut2></lut2>
								</colorinfo>
								<labels>
									<label2>Lavender</label2>
								</labels>
							</clip>
							<clip id="masterclip-34" explodedTracks="true">
								<uuid>d51a5a5e-b07f-48fb-ba21-872a862f213b</uuid>
								<masterclipid>masterclip-34</masterclipid>
								<ismasterclip>TRUE</ismasterclip>
								<duration>150</duration>
								<rate>
									<timebase>30</timebase>
									<ntsc>TRUE</ntsc>
								</rate>
								<in>0</in>
								<out>149</out>
								<name>L3 3</name>
								<media>
									<video>
										<track>
											<clipitem id="clipitem-171">
												<masterclipid>masterclip-34</masterclipid>
												<name>L3 3</name>
												<rate>
													<timebase>30</timebase>
													<ntsc>TRUE</ntsc>
												</rate>
												<alphatype>none</alphatype>
												<file id="file-26"/>
											</clipitem>
										</track>
									</video>
								</media>
								<logginginfo>
									<description></description>
									<scene></scene>
									<shottake></shottake>
									<lognote></lognote>
									<good></good>
									<originalvideofilename></originalvideofilename>
									<originalaudiofilename></originalaudiofilename>
								</logginginfo>
								<colorinfo>
									<lut></lut>
									<lut1></lut1>
									<asc_sop></asc_sop>
									<asc_sat></asc_sat>
									<lut2></lut2>
								</colorinfo>
								<labels>
									<label2>Lavender</label2>
								</labels>
							</clip>
							<clip id="masterclip-53" explodedTracks="true">
								<uuid>8478babb-2c29-4bb1-a86f-52d4c966bdf7</uuid>
								<masterclipid>masterclip-53</masterclipid>
								<ismasterclip>TRUE</ismasterclip>
								<duration>150</duration>
								<rate>
									<timebase>30</timebase>
									<ntsc>TRUE</ntsc>
								</rate>
								<in>0</in>
								<out>149</out>
								<name>L3 4</name>
								<media>
									<video>
										<track>
											<clipitem id="clipitem-172">
												<masterclipid>masterclip-53</masterclipid>
												<name>L3 4</name>
												<rate>
													<timebase>30</timebase>
													<ntsc>TRUE</ntsc>
												</rate>
												<alphatype>none</alphatype>
												<file id="file-42"/>
											</clipitem>
										</track>
									</video>
								</media>
								<logginginfo>
									<description></description>
									<scene></scene>
									<shottake></shottake>
									<lognote></lognote>
									<good></good>
									<originalvideofilename></originalvideofilename>
									<originalaudiofilename></originalaudiofilename>
								</logginginfo>
								<colorinfo>
									<lut></lut>
									<lut1></lut1>
									<asc_sop></asc_sop>
									<asc_sat></asc_sat>
									<lut2></lut2>
								</colorinfo>
								<labels>
									<label2>Lavender</label2>
								</labels>
							</clip>
							<clip id="masterclip-54" explodedTracks="true">
								<uuid>777ee6fc-76e7-4de0-8ca3-b232eecb39c5</uuid>
								<masterclipid>masterclip-54</masterclipid>
								<ismasterclip>TRUE</ismasterclip>
								<duration>150</duration>
								<rate>
									<timebase>30</timebase>
									<ntsc>TRUE</ntsc>
								</rate>
								<in>0</in>
								<out>149</out>
								<name>L3 5</name>
								<media>
									<video>
										<track>
											<clipitem id="clipitem-173">
												<masterclipid>masterclip-54</masterclipid>
												<name>L3 5</name>
												<rate>
													<timebase>30</timebase>
													<ntsc>TRUE</ntsc>
												</rate>
												<alphatype>none</alphatype>
												<file id="file-43"/>
											</clipitem>
										</track>
									</video>
								</media>
								<logginginfo>
									<description></description>
									<scene></scene>
									<shottake></shottake>
									<lognote></lognote>
									<good></good>
									<originalvideofilename></originalvideofilename>
									<originalaudiofilename></originalaudiofilename>
								</logginginfo>
								<colorinfo>
									<lut></lut>
									<lut1></lut1>
									<asc_sop></asc_sop>
									<asc_sat></asc_sat>
									<lut2></lut2>
								</colorinfo>
								<labels>
									<label2>Lavender</label2>
								</labels>
							</clip>
							<clip id="masterclip-55" explodedTracks="true">
								<uuid>c72c0af6-391f-4067-a7c0-d2fd70153598</uuid>
								<masterclipid>masterclip-55</masterclipid>
								<ismasterclip>TRUE</ismasterclip>
								<duration>150</duration>
								<rate>
									<timebase>30</timebase>
									<ntsc>TRUE</ntsc>
								</rate>
								<in>0</in>
								<out>149</out>
								<name>L3 6</name>
								<media>
									<video>
										<track>
											<clipitem id="clipitem-174">
												<masterclipid>masterclip-55</masterclipid>
												<name>L3 6</name>
												<rate>
													<timebase>30</timebase>
													<ntsc>TRUE</ntsc>
												</rate>
												<alphatype>none</alphatype>
												<file id="file-44"/>
											</clipitem>
										</track>
									</video>
								</media>
								<logginginfo>
									<description></description>
									<scene></scene>
									<shottake></shottake>
									<lognote></lognote>
									<good></good>
									<originalvideofilename></originalvideofilename>
									<originalaudiofilename></originalaudiofilename>
								</logginginfo>
								<colorinfo>
									<lut></lut>
									<lut1></lut1>
									<asc_sop></asc_sop>
									<asc_sat></asc_sat>
									<lut2></lut2>
								</colorinfo>
								<labels>
									<label2>Lavender</label2>
								</labels>
							</clip>
							<clip id="masterclip-13" explodedTracks="true">
								<uuid>d6b29ca4-b00a-4c4d-ba45-a65a3c7b7a1b</uuid>
								<masterclipid>masterclip-13</masterclipid>
								<ismasterclip>TRUE</ismasterclip>
								<duration>150</duration>
								<rate>
									<timebase>30</timebase>
									<ntsc>TRUE</ntsc>
								</rate>
								<in>0</in>
								<out>149</out>
								<name>L3 7</name>
								<media>
									<video>
										<track>
											<clipitem id="clipitem-175">
												<masterclipid>masterclip-13</masterclipid>
												<name>L3 7</name>
												<rate>
													<timebase>30</timebase>
													<ntsc>TRUE</ntsc>
												</rate>
												<alphatype>none</alphatype>
												<file id="file-10"/>
											</clipitem>
										</track>
									</video>
								</media>
								<logginginfo>
									<description></description>
									<scene></scene>
									<shottake></shottake>
									<lognote></lognote>
									<good></good>
									<originalvideofilename></originalvideofilename>
									<originalaudiofilename></originalaudiofilename>
								</logginginfo>
								<colorinfo>
									<lut></lut>
									<lut1></lut1>
									<asc_sop></asc_sop>
									<asc_sat></asc_sat>
									<lut2></lut2>
								</colorinfo>
								<labels>
									<label2>Lavender</label2>
								</labels>
							</clip>
							<clip id="masterclip-14" explodedTracks="true">
								<uuid>f14ab828-d8b8-4e02-abab-f9046f0d805f</uuid>
								<masterclipid>masterclip-14</masterclipid>
								<ismasterclip>TRUE</ismasterclip>
								<duration>150</duration>
								<rate>
									<timebase>30</timebase>
									<ntsc>TRUE</ntsc>
								</rate>
								<in>0</in>
								<out>149</out>
								<name>L3 8</name>
								<media>
									<video>
										<track>
											<clipitem id="clipitem-176">
												<masterclipid>masterclip-14</masterclipid>
												<name>L3 8</name>
												<rate>
													<timebase>30</timebase>
													<ntsc>TRUE</ntsc>
												</rate>
												<alphatype>none</alphatype>
												<file id="file-11"/>
											</clipitem>
										</track>
									</video>
								</media>
								<logginginfo>
									<description></description>
									<scene></scene>
									<shottake></shottake>
									<lognote></lognote>
									<good></good>
									<originalvideofilename></originalvideofilename>
									<originalaudiofilename></originalaudiofilename>
								</logginginfo>
								<colorinfo>
									<lut></lut>
									<lut1></lut1>
									<asc_sop></asc_sop>
									<asc_sat></asc_sat>
									<lut2></lut2>
								</colorinfo>
								<labels>
									<label2>Lavender</label2>
								</labels>
							</clip>
						</children>
					</bin>
				</children>
			</bin>
			<sequence id="sequence-15" TL.SQAudioVisibleBase="0" TL.SQVideoVisibleBase="0" TL.SQVisibleBaseTime="0" TL.SQAVDividerPosition="0.5" TL.SQHideShyTracks="0" TL.SQHeaderWidth="236" Monitor.ProgramZoomOut="139577287449600" Monitor.ProgramZoomIn="0" TL.SQTimePerPixel="0.46330713884204472" MZ.EditLine="139575009772800" MZ.Sequence.PreviewFrameSizeHeight="1080" MZ.Sequence.PreviewFrameSizeWidth="1920" MZ.Sequence.AudioTimeDisplayFormat="200" MZ.Sequence.PreviewRenderingClassID="1061109567" MZ.Sequence.PreviewRenderingPresetCodec="1634755443" MZ.Sequence.PreviewRenderingPresetPath="EncoderPresets/SequencePreview/35d109db-457b-43c1-9452-9cb7be9f121c/QuickTime.epr" MZ.Sequence.PreviewUseMaxRenderQuality="false" MZ.Sequence.PreviewUseMaxBitDepth="false" MZ.Sequence.EditingModeGUID="35d109db-457b-43c1-9452-9cb7be9f121c" MZ.Sequence.VideoTimeDisplayFormat="102" MZ.WorkOutPoint="15239249625600" MZ.WorkInPoint="0" explodedTracks="true">
				<uuid>53a548fe-61ba-473d-90d3-15e5b84267f3</uuid>
				<duration>16468</duration>
				<rate>
					<timebase>30</timebase>
					<ntsc>TRUE</ntsc>
				</rate>
				<name>00_EDL Sequence</name>
				<media>
					<video>
						<format>
							<samplecharacteristics>
								<rate>
									<timebase>30</timebase>
									<ntsc>TRUE</ntsc>
								</rate>
								<codec>
									<name>Apple ProRes 422</name>
									<appspecificdata>
										<appname>Final Cut Pro</appname>
										<appmanufacturer>Apple Inc.</appmanufacturer>
										<appversion>7.0</appversion>
										<data>
											<qtcodec>
												<codecname>Apple ProRes 422</codecname>
												<codectypename>Apple ProRes 422</codectypename>
												<codectypecode>apcn</codectypecode>
												<codecvendorcode>appl</codecvendorcode>
												<spatialquality>1024</spatialquality>
												<temporalquality>0</temporalquality>
												<keyframerate>0</keyframerate>
												<datarate>0</datarate>
											</qtcodec>
										</data>
									</appspecificdata>
								</codec>
								<width>1920</width>
								<height>1080</height>
								<anamorphic>FALSE</anamorphic>
								<pixelaspectratio>square</pixelaspectratio>
								<fielddominance>none</fielddominance>
								<colordepth>24</colordepth>
							</samplecharacteristics>
						</format>
						<track TL.SQTrackShy="0" TL.SQTrackExpandedHeight="25" TL.SQTrackExpanded="0" MZ.TrackTargeted="1">
							<clipitem id="clipitem-177">
								<masterclipid>masterclip-21</masterclipid>
								<name>304202_Waterfall River Trees Forest_By_Via_Films_Artlist_HD.mp4</name>
								<enabled>TRUE</enabled>
								<duration>383</duration>
								<rate>
									<timebase>30</timebase>
									<ntsc>TRUE</ntsc>
								</rate>
								<start>0</start>
								<end>384</end>
								<in>0</in>
								<out>384</out>
								<pproTicksIn>0</pproTicksIn>
								<pproTicksOut>3254656204800</pproTicksOut>
								<alphatype>none</alphatype>
								<file id="file-15"/>
								<logginginfo>
									<description></description>
									<scene></scene>
									<shottake></shottake>
									<lognote></lognote>
									<good></good>
									<originalvideofilename></originalvideofilename>
									<originalaudiofilename></originalaudiofilename>
								</logginginfo>
								<colorinfo>
									<lut></lut>
									<lut1></lut1>
									<asc_sop></asc_sop>
									<asc_sat></asc_sat>
									<lut2></lut2>
								</colorinfo>
								<labels>
									<label2>Blue</label2>
								</labels>
							</clipitem>
							<clipitem id="clipitem-178">
								<masterclipid>masterclip-22</masterclipid>
								<name>304214_Waterfall Forest Cascade Wilderness_By_Via_Films_Artlist_HD.mp4</name>
								<enabled>TRUE</enabled>
								<duration>810</duration>
								<rate>
									<timebase>30</timebase>
									<ntsc>TRUE</ntsc>
								</rate>
								<start>384</start>
								<end>1194</end>
								<in>0</in>
								<out>810</out>
								<pproTicksIn>0</pproTicksIn>
								<pproTicksOut>6865290432000</pproTicksOut>
								<alphatype>none</alphatype>
								<file id="file-16"/>
								<logginginfo>
									<description></description>
									<scene></scene>
									<shottake></shottake>
									<lognote></lognote>
									<good></good>
									<originalvideofilename></originalvideofilename>
									<originalaudiofilename></originalaudiofilename>
								</logginginfo>
								<colorinfo>
									<lut></lut>
									<lut1></lut1>
									<asc_sop></asc_sop>
									<asc_sat></asc_sat>
									<lut2></lut2>
								</colorinfo>
								<labels>
									<label2>Blue</label2>
								</labels>
							</clipitem>
							<clipitem id="clipitem-179">
								<masterclipid>masterclip-23</masterclipid>
								<name>304218_Road Trees Hills Roadtrip_By_Via_Films_Artlist_HD.mp4</name>
								<enabled>TRUE</enabled>
								<duration>655</duration>
								<rate>
									<timebase>30</timebase>
									<ntsc>TRUE</ntsc>
								</rate>
								<start>1194</start>
								<end>1848</end>
								<in>0</in>
								<out>654</out>
								<pproTicksIn>0</pproTicksIn>
								<pproTicksOut>5543086348800</pproTicksOut>
								<alphatype>none</alphatype>
								<file id="file-17"/>
								<logginginfo>
									<description></description>
									<scene></scene>
									<shottake></shottake>
									<lognote></lognote>
									<good></good>
									<originalvideofilename></originalvideofilename>
									<originalaudiofilename></originalaudiofilename>
								</logginginfo>
								<colorinfo>
									<lut></lut>
									<lut1></lut1>
									<asc_sop></asc_sop>
									<asc_sat></asc_sat>
									<lut2></lut2>
								</colorinfo>
								<labels>
									<label2>Blue</label2>
								</labels>
							</clipitem>
							<clipitem id="clipitem-180">
								<masterclipid>masterclip-26</masterclipid>
								<name>263084_Iceland Glacier Jokulsarlon Lagoon_By_Viktor_Sloth_Artlist_HD.mp4</name>
								<enabled>TRUE</enabled>
								<duration>1753</duration>
								<rate>
									<timebase>30</timebase>
									<ntsc>TRUE</ntsc>
								</rate>
								<start>1848</start>
								<end>3602</end>
								<in>0</in>
								<out>1754</out>
								<pproTicksIn>0</pproTicksIn>
								<pproTicksOut>14866320268800</pproTicksOut>
								<alphatype>none</alphatype>
								<file id="file-19"/>
								<filter>
									<effect>
										<name>Distort</name>
										<effectid>deformation</effectid>
										<effectcategory>motion</effectcategory>
										<effecttype>motion</effecttype>
										<mediatype>video</mediatype>
										<parameter authoringApp="PremierePro">
											<parameterid>aspect</parameterid>
											<name>Aspect</name>
											<valuemin>-10000</valuemin>
											<valuemax>10000</valuemax>
											<value>-12.5</value>
										</parameter>
									</effect>
								</filter>
								<filter>
									<effect>
										<name>Basic Motion</name>
										<effectid>basic</effectid>
										<effectcategory>motion</effectcategory>
										<effecttype>motion</effecttype>
										<mediatype>video</mediatype>
										<parameter authoringApp="PremierePro">
											<parameterid>scale</parameterid>
											<name>Scale</name>
											<value>112.5</value>
										</parameter>
									</effect>
								</filter>
								<logginginfo>
									<description></description>
									<scene></scene>
									<shottake></shottake>
									<lognote></lognote>
									<good></good>
									<originalvideofilename></originalvideofilename>
									<originalaudiofilename></originalaudiofilename>
								</logginginfo>
								<colorinfo>
									<lut></lut>
									<lut1></lut1>
									<asc_sop></asc_sop>
									<asc_sat></asc_sat>
									<lut2></lut2>
								</colorinfo>
								<labels>
									<label2>Blue</label2>
								</labels>
							</clipitem>
							<clipitem id="clipitem-181">
								<masterclipid>masterclip-27</masterclipid>
								<name>263085_Iceland Glacier Jokulsarlon Lagoon_By_Viktor_Sloth_Artlist_HD.mp4</name>
								<enabled>TRUE</enabled>
								<duration>1076</duration>
								<rate>
									<timebase>30</timebase>
									<ntsc>TRUE</ntsc>
								</rate>
								<start>3602</start>
								<end>4678</end>
								<in>0</in>
								<out>1077</out>
								<pproTicksIn>0</pproTicksIn>
								<pproTicksOut>9128293574400</pproTicksOut>
								<alphatype>none</alphatype>
								<file id="file-20"/>
								<filter>
									<effect>
										<name>Distort</name>
										<effectid>deformation</effectid>
										<effectcategory>motion</effectcategory>
										<effecttype>motion</effecttype>
										<mediatype>video</mediatype>
										<parameter authoringApp="PremierePro">
											<parameterid>aspect</parameterid>
											<name>Aspect</name>
											<valuemin>-10000</valuemin>
											<valuemax>10000</valuemax>
											<value>-12.5</value>
										</parameter>
									</effect>
								</filter>
								<filter>
									<effect>
										<name>Basic Motion</name>
										<effectid>basic</effectid>
										<effectcategory>motion</effectcategory>
										<effecttype>motion</effecttype>
										<mediatype>video</mediatype>
										<parameter authoringApp="PremierePro">
											<parameterid>scale</parameterid>
											<name>Scale</name>
											<value>112.5</value>
										</parameter>
									</effect>
								</filter>
								<logginginfo>
									<description></description>
									<scene></scene>
									<shottake></shottake>
									<lognote></lognote>
									<good></good>
									<originalvideofilename></originalvideofilename>
									<originalaudiofilename></originalaudiofilename>
								</logginginfo>
								<colorinfo>
									<lut></lut>
									<lut1></lut1>
									<asc_sop></asc_sop>
									<asc_sat></asc_sat>
									<lut2></lut2>
								</colorinfo>
								<labels>
									<label2>Blue</label2>
								</labels>
							</clipitem>
							<clipitem id="clipitem-182">
								<masterclipid>masterclip-30</masterclipid>
								<name>164519_Hills and trees in Thailand_By_Roma_Black_Artlist_HD.mp4</name>
								<enabled>TRUE</enabled>
								<duration>369</duration>
								<rate>
									<timebase>30</timebase>
									<ntsc>TRUE</ntsc>
								</rate>
								<start>4679</start>
								<end>5048</end>
								<in>0</in>
								<out>369</out>
								<pproTicksIn>0</pproTicksIn>
								<pproTicksOut>3127521196800</pproTicksOut>
								<alphatype>none</alphatype>
								<file id="file-22"/>
								<logginginfo>
									<description></description>
									<scene></scene>
									<shottake></shottake>
									<lognote></lognote>
									<good></good>
									<originalvideofilename></originalvideofilename>
									<originalaudiofilename></originalaudiofilename>
								</logginginfo>
								<colorinfo>
									<lut></lut>
									<lut1></lut1>
									<asc_sop></asc_sop>
									<asc_sat></asc_sat>
									<lut2></lut2>
								</colorinfo>
								<labels>
									<label2>Blue</label2>
								</labels>
							</clipitem>
							<clipitem id="clipitem-183">
								<masterclipid>masterclip-36</masterclipid>
								<name>304221_Mountains Trees Aerial Roadside_By_Via_Films_Artlist_HD.mp4</name>
								<enabled>TRUE</enabled>
								<duration>676</duration>
								<rate>
									<timebase>30</timebase>
									<ntsc>TRUE</ntsc>
								</rate>
								<start>5048</start>
								<end>5724</end>
								<in>0</in>
								<out>676</out>
								<pproTicksIn>0</pproTicksIn>
								<pproTicksOut>5729551027200</pproTicksOut>
								<alphatype>none</alphatype>
								<file id="file-27"/>
								<logginginfo>
									<description></description>
									<scene></scene>
									<shottake></shottake>
									<lognote></lognote>
									<good></good>
									<originalvideofilename></originalvideofilename>
									<originalaudiofilename></originalaudiofilename>
								</logginginfo>
								<colorinfo>
									<lut></lut>
									<lut1></lut1>
									<asc_sop></asc_sop>
									<asc_sat></asc_sat>
									<lut2></lut2>
								</colorinfo>
								<labels>
									<label2>Purple</label2>
								</labels>
							</clipitem>
							<clipitem id="clipitem-184">
								<masterclipid>masterclip-37</masterclipid>
								<name>304222_River Landscape Mountains Aerial_By_Via_Films_Artlist_HD.mp4</name>
								<enabled>TRUE</enabled>
								<duration>446</duration>
								<rate>
									<timebase>30</timebase>
									<ntsc>TRUE</ntsc>
								</rate>
								<start>5724</start>
								<end>6170</end>
								<in>0</in>
								<out>446</out>
								<pproTicksIn>0</pproTicksIn>
								<pproTicksOut>3780147571200</pproTicksOut>
								<alphatype>none</alphatype>
								<file id="file-28"/>
								<logginginfo>
									<description></description>
									<scene></scene>
									<shottake></shottake>
									<lognote></lognote>
									<good></good>
									<originalvideofilename></originalvideofilename>
									<originalaudiofilename></originalaudiofilename>
								</logginginfo>
								<colorinfo>
									<lut></lut>
									<lut1></lut1>
									<asc_sop></asc_sop>
									<asc_sat></asc_sat>
									<lut2></lut2>
								</colorinfo>
								<labels>
									<label2>Purple</label2>
								</labels>
							</clipitem>
							<clipitem id="clipitem-185">
								<masterclipid>masterclip-38</masterclipid>
								<name>304226_River Countryside Landscape Woodland_By_Via_Films_Artlist_HD.mp4</name>
								<enabled>TRUE</enabled>
								<duration>628</duration>
								<rate>
									<timebase>30</timebase>
									<ntsc>TRUE</ntsc>
								</rate>
								<start>6171</start>
								<end>6799</end>
								<in>0</in>
								<out>628</out>
								<pproTicksIn>0</pproTicksIn>
								<pproTicksOut>5322719001600</pproTicksOut>
								<alphatype>none</alphatype>
								<file id="file-29"/>
								<logginginfo>
									<description></description>
									<scene></scene>
									<shottake></shottake>
									<lognote></lognote>
									<good></good>
									<originalvideofilename></originalvideofilename>
									<originalaudiofilename></originalaudiofilename>
								</logginginfo>
								<colorinfo>
									<lut></lut>
									<lut1></lut1>
									<asc_sop></asc_sop>
									<asc_sat></asc_sat>
									<lut2></lut2>
								</colorinfo>
								<labels>
									<label2>Purple</label2>
								</labels>
							</clipitem>
							<clipitem id="clipitem-186">
								<masterclipid>masterclip-39</masterclipid>
								<name>304227_Herring Bird River Standing_By_Via_Films_Artlist_HD.mp4</name>
								<enabled>TRUE</enabled>
								<duration>723</duration>
								<rate>
									<timebase>30</timebase>
									<ntsc>TRUE</ntsc>
								</rate>
								<start>6799</start>
								<end>7523</end>
								<in>0</in>
								<out>724</out>
								<pproTicksIn>0</pproTicksIn>
								<pproTicksOut>6136383052800</pproTicksOut>
								<alphatype>none</alphatype>
								<file id="file-30"/>
								<logginginfo>
									<description></description>
									<scene></scene>
									<shottake></shottake>
									<lognote></lognote>
									<good></good>
									<originalvideofilename></originalvideofilename>
									<originalaudiofilename></originalaudiofilename>
								</logginginfo>
								<colorinfo>
									<lut></lut>
									<lut1></lut1>
									<asc_sop></asc_sop>
									<asc_sat></asc_sat>
									<lut2></lut2>
								</colorinfo>
								<labels>
									<label2>Purple</label2>
								</labels>
							</clipitem>
							<clipitem id="clipitem-187">
								<masterclipid>masterclip-42</masterclipid>
								<name>263087_Iceland Glacier Jokulsarlon Lagoon_By_Viktor_Sloth_Artlist_HD.mp4</name>
								<enabled>TRUE</enabled>
								<duration>1394</duration>
								<rate>
									<timebase>30</timebase>
									<ntsc>TRUE</ntsc>
								</rate>
								<start>7523</start>
								<end>8917</end>
								<in>0</in>
								<out>1394</out>
								<pproTicksIn>0</pproTicksIn>
								<pproTicksOut>11815080076800</pproTicksOut>
								<alphatype>none</alphatype>
								<file id="file-32"/>
								<filter>
									<effect>
										<name>Distort</name>
										<effectid>deformation</effectid>
										<effectcategory>motion</effectcategory>
										<effecttype>motion</effecttype>
										<mediatype>video</mediatype>
										<parameter authoringApp="PremierePro">
											<parameterid>aspect</parameterid>
											<name>Aspect</name>
											<valuemin>-10000</valuemin>
											<valuemax>10000</valuemax>
											<value>-12.5</value>
										</parameter>
									</effect>
								</filter>
								<filter>
									<effect>
										<name>Basic Motion</name>
										<effectid>basic</effectid>
										<effectcategory>motion</effectcategory>
										<effecttype>motion</effecttype>
										<mediatype>video</mediatype>
										<parameter authoringApp="PremierePro">
											<parameterid>scale</parameterid>
											<name>Scale</name>
											<value>112.5</value>
										</parameter>
									</effect>
								</filter>
								<logginginfo>
									<description></description>
									<scene></scene>
									<shottake></shottake>
									<lognote></lognote>
									<good></good>
									<originalvideofilename></originalvideofilename>
									<originalaudiofilename></originalaudiofilename>
								</logginginfo>
								<colorinfo>
									<lut></lut>
									<lut1></lut1>
									<asc_sop></asc_sop>
									<asc_sat></asc_sat>
									<lut2></lut2>
								</colorinfo>
								<labels>
									<label2>Purple</label2>
								</labels>
							</clipitem>
							<clipitem id="clipitem-188">
								<masterclipid>masterclip-43</masterclipid>
								<name>263090_Glacier Iceberg Iceland Ice_By_Viktor_Sloth_Artlist_HD.mp4</name>
								<enabled>TRUE</enabled>
								<duration>516</duration>
								<rate>
									<timebase>30</timebase>
									<ntsc>TRUE</ntsc>
								</rate>
								<start>8917</start>
								<end>9434</end>
								<in>0</in>
								<out>517</out>
								<pproTicksIn>0</pproTicksIn>
								<pproTicksOut>4381919942400</pproTicksOut>
								<alphatype>none</alphatype>
								<file id="file-33"/>
								<filter>
									<effect>
										<name>Distort</name>
										<effectid>deformation</effectid>
										<effectcategory>motion</effectcategory>
										<effecttype>motion</effecttype>
										<mediatype>video</mediatype>
										<parameter authoringApp="PremierePro">
											<parameterid>aspect</parameterid>
											<name>Aspect</name>
											<valuemin>-10000</valuemin>
											<valuemax>10000</valuemax>
											<value>-12.5</value>
										</parameter>
									</effect>
								</filter>
								<filter>
									<effect>
										<name>Basic Motion</name>
										<effectid>basic</effectid>
										<effectcategory>motion</effectcategory>
										<effecttype>motion</effecttype>
										<mediatype>video</mediatype>
										<parameter authoringApp="PremierePro">
											<parameterid>scale</parameterid>
											<name>Scale</name>
											<value>112.5</value>
										</parameter>
									</effect>
								</filter>
								<logginginfo>
									<description></description>
									<scene></scene>
									<shottake></shottake>
									<lognote></lognote>
									<good></good>
									<originalvideofilename></originalvideofilename>
									<originalaudiofilename></originalaudiofilename>
								</logginginfo>
								<colorinfo>
									<lut></lut>
									<lut1></lut1>
									<asc_sop></asc_sop>
									<asc_sat></asc_sat>
									<lut2></lut2>
								</colorinfo>
								<labels>
									<label2>Purple</label2>
								</labels>
							</clipitem>
							<clipitem id="clipitem-189">
								<masterclipid>masterclip-44</masterclipid>
								<name>263091_Glacier Iceberg Iceland Ice_By_Viktor_Sloth_Artlist_HD.mp4</name>
								<enabled>TRUE</enabled>
								<duration>292</duration>
								<rate>
									<timebase>30</timebase>
									<ntsc>TRUE</ntsc>
								</rate>
								<start>9434</start>
								<end>9726</end>
								<in>0</in>
								<out>292</out>
								<pproTicksIn>0</pproTicksIn>
								<pproTicksOut>2474894822400</pproTicksOut>
								<alphatype>none</alphatype>
								<file id="file-34"/>
								<filter>
									<effect>
										<name>Distort</name>
										<effectid>deformation</effectid>
										<effectcategory>motion</effectcategory>
										<effecttype>motion</effecttype>
										<mediatype>video</mediatype>
										<parameter authoringApp="PremierePro">
											<parameterid>aspect</parameterid>
											<name>Aspect</name>
											<valuemin>-10000</valuemin>
											<valuemax>10000</valuemax>
											<value>-12.5</value>
										</parameter>
									</effect>
								</filter>
								<filter>
									<effect>
										<name>Basic Motion</name>
										<effectid>basic</effectid>
										<effectcategory>motion</effectcategory>
										<effecttype>motion</effecttype>
										<mediatype>video</mediatype>
										<parameter authoringApp="PremierePro">
											<parameterid>scale</parameterid>
											<name>Scale</name>
											<value>112.5</value>
										</parameter>
									</effect>
								</filter>
								<logginginfo>
									<description></description>
									<scene></scene>
									<shottake></shottake>
									<lognote></lognote>
									<good></good>
									<originalvideofilename></originalvideofilename>
									<originalaudiofilename></originalaudiofilename>
								</logginginfo>
								<colorinfo>
									<lut></lut>
									<lut1></lut1>
									<asc_sop></asc_sop>
									<asc_sat></asc_sat>
									<lut2></lut2>
								</colorinfo>
								<labels>
									<label2>Purple</label2>
								</labels>
							</clipitem>
							<clipitem id="clipitem-190">
								<masterclipid>masterclip-45</masterclipid>
								<name>263093_Glacier Iceberg Iceland Ice_By_Viktor_Sloth_Artlist_HD.mp4</name>
								<enabled>TRUE</enabled>
								<duration>1746</duration>
								<rate>
									<timebase>30</timebase>
									<ntsc>TRUE</ntsc>
								</rate>
								<start>9726</start>
								<end>11473</end>
								<in>0</in>
								<out>1747</out>
								<pproTicksIn>0</pproTicksIn>
								<pproTicksOut>14806990598400</pproTicksOut>
								<alphatype>none</alphatype>
								<file id="file-35"/>
								<filter>
									<effect>
										<name>Distort</name>
										<effectid>deformation</effectid>
										<effectcategory>motion</effectcategory>
										<effecttype>motion</effecttype>
										<mediatype>video</mediatype>
										<parameter authoringApp="PremierePro">
											<parameterid>aspect</parameterid>
											<name>Aspect</name>
											<valuemin>-10000</valuemin>
											<valuemax>10000</valuemax>
											<value>-12.5</value>
										</parameter>
									</effect>
								</filter>
								<filter>
									<effect>
										<name>Basic Motion</name>
										<effectid>basic</effectid>
										<effectcategory>motion</effectcategory>
										<effecttype>motion</effecttype>
										<mediatype>video</mediatype>
										<parameter authoringApp="PremierePro">
											<parameterid>scale</parameterid>
											<name>Scale</name>
											<value>112.5</value>
										</parameter>
									</effect>
								</filter>
								<logginginfo>
									<description></description>
									<scene></scene>
									<shottake></shottake>
									<lognote></lognote>
									<good></good>
									<originalvideofilename></originalvideofilename>
									<originalaudiofilename></originalaudiofilename>
								</logginginfo>
								<colorinfo>
									<lut></lut>
									<lut1></lut1>
									<asc_sop></asc_sop>
									<asc_sat></asc_sat>
									<lut2></lut2>
								</colorinfo>
								<labels>
									<label2>Purple</label2>
								</labels>
							</clipitem>
							<clipitem id="clipitem-191">
								<masterclipid>masterclip-46</masterclipid>
								<name>263100_Glacier Iceberg Iceland Ice_By_Viktor_Sloth_Artlist_HD.mp4</name>
								<enabled>TRUE</enabled>
								<duration>656</duration>
								<rate>
									<timebase>30</timebase>
									<ntsc>TRUE</ntsc>
								</rate>
								<start>11473</start>
								<end>12130</end>
								<in>0</in>
								<out>657</out>
								<pproTicksIn>0</pproTicksIn>
								<pproTicksOut>5568513350400</pproTicksOut>
								<alphatype>none</alphatype>
								<file id="file-36"/>
								<filter>
									<effect>
										<name>Distort</name>
										<effectid>deformation</effectid>
										<effectcategory>motion</effectcategory>
										<effecttype>motion</effecttype>
										<mediatype>video</mediatype>
										<parameter authoringApp="PremierePro">
											<parameterid>aspect</parameterid>
											<name>Aspect</name>
											<valuemin>-10000</valuemin>
											<valuemax>10000</valuemax>
											<value>-12.5</value>
										</parameter>
									</effect>
								</filter>
								<filter>
									<effect>
										<name>Basic Motion</name>
										<effectid>basic</effectid>
										<effectcategory>motion</effectcategory>
										<effecttype>motion</effecttype>
										<mediatype>video</mediatype>
										<parameter authoringApp="PremierePro">
											<parameterid>scale</parameterid>
											<name>Scale</name>
											<value>112.5</value>
										</parameter>
									</effect>
								</filter>
								<logginginfo>
									<description></description>
									<scene></scene>
									<shottake></shottake>
									<lognote></lognote>
									<good></good>
									<originalvideofilename></originalvideofilename>
									<originalaudiofilename></originalaudiofilename>
								</logginginfo>
								<colorinfo>
									<lut></lut>
									<lut1></lut1>
									<asc_sop></asc_sop>
									<asc_sat></asc_sat>
									<lut2></lut2>
								</colorinfo>
								<labels>
									<label2>Purple</label2>
								</labels>
							</clipitem>
							<clipitem id="clipitem-192">
								<masterclipid>masterclip-49</masterclipid>
								<name>164521_Mountains and trees in Thailand_By_Roma_Black_Artlist_HD.mp4</name>
								<enabled>TRUE</enabled>
								<duration>293</duration>
								<rate>
									<timebase>30</timebase>
									<ntsc>TRUE</ntsc>
								</rate>
								<start>12130</start>
								<end>12424</end>
								<in>0</in>
								<out>294</out>
								<pproTicksIn>0</pproTicksIn>
								<pproTicksOut>2491846156800</pproTicksOut>
								<alphatype>none</alphatype>
								<file id="file-38"/>
								<logginginfo>
									<description></description>
									<scene></scene>
									<shottake></shottake>
									<lognote></lognote>
									<good></good>
									<originalvideofilename></originalvideofilename>
									<originalaudiofilename></originalaudiofilename>
								</logginginfo>
								<colorinfo>
									<lut></lut>
									<lut1></lut1>
									<asc_sop></asc_sop>
									<asc_sat></asc_sat>
									<lut2></lut2>
								</colorinfo>
								<labels>
									<label2>Purple</label2>
								</labels>
							</clipitem>
							<clipitem id="clipitem-193">
								<masterclipid>masterclip-50</masterclipid>
								<name>164524_Mountains and trees in Thailand_By_Roma_Black_Artlist_HD.mp4</name>
								<enabled>TRUE</enabled>
								<duration>504</duration>
								<rate>
									<timebase>30</timebase>
									<ntsc>TRUE</ntsc>
								</rate>
								<start>12424</start>
								<end>12928</end>
								<in>0</in>
								<out>504</out>
								<pproTicksIn>0</pproTicksIn>
								<pproTicksOut>4271736268800</pproTicksOut>
								<alphatype>none</alphatype>
								<file id="file-39"/>
								<logginginfo>
									<description></description>
									<scene></scene>
									<shottake></shottake>
									<lognote></lognote>
									<good></good>
									<originalvideofilename></originalvideofilename>
									<originalaudiofilename></originalaudiofilename>
								</logginginfo>
								<colorinfo>
									<lut></lut>
									<lut1></lut1>
									<asc_sop></asc_sop>
									<asc_sat></asc_sat>
									<lut2></lut2>
								</colorinfo>
								<labels>
									<label2>Purple</label2>
								</labels>
							</clipitem>
							<clipitem id="clipitem-194">
								<masterclipid>masterclip-51</masterclipid>
								<name>164527_Mountains and trees in Thailand_By_Roma_Black_Artlist_HD.mp4</name>
								<enabled>TRUE</enabled>
								<duration>955</duration>
								<rate>
									<timebase>30</timebase>
									<ntsc>TRUE</ntsc>
								</rate>
								<start>12928</start>
								<end>13883</end>
								<in>0</in>
								<out>955</out>
								<pproTicksIn>0</pproTicksIn>
								<pproTicksOut>8094262176000</pproTicksOut>
								<alphatype>none</alphatype>
								<file id="file-40"/>
								<logginginfo>
									<description></description>
									<scene></scene>
									<shottake></shottake>
									<lognote></lognote>
									<good></good>
									<originalvideofilename></originalvideofilename>
									<originalaudiofilename></originalaudiofilename>
								</logginginfo>
								<colorinfo>
									<lut></lut>
									<lut1></lut1>
									<asc_sop></asc_sop>
									<asc_sat></asc_sat>
									<lut2></lut2>
								</colorinfo>
								<labels>
									<label2>Purple</label2>
								</labels>
							</clipitem>
							<clipitem id="clipitem-195">
								<masterclipid>masterclip-2</masterclipid>
								<name>304228_River Hillside Trees Damage_By_Via_Films_Artlist_HD.mp4</name>
								<enabled>TRUE</enabled>
								<duration>508</duration>
								<rate>
									<timebase>30</timebase>
									<ntsc>TRUE</ntsc>
								</rate>
								<start>13883</start>
								<end>14392</end>
								<in>0</in>
								<out>509</out>
								<pproTicksIn>0</pproTicksIn>
								<pproTicksOut>4314114604800</pproTicksOut>
								<alphatype>none</alphatype>
								<file id="file-1"/>
								<logginginfo>
									<description></description>
									<scene></scene>
									<shottake></shottake>
									<lognote></lognote>
									<good></good>
									<originalvideofilename></originalvideofilename>
									<originalaudiofilename></originalaudiofilename>
								</logginginfo>
								<colorinfo>
									<lut></lut>
									<lut1></lut1>
									<asc_sop></asc_sop>
									<asc_sat></asc_sat>
									<lut2></lut2>
								</colorinfo>
								<labels>
									<label2>Mango</label2>
								</labels>
							</clipitem>
							<clipitem id="clipitem-196">
								<masterclipid>masterclip-3</masterclipid>
								<name>304229_Trees Roadside Glimsing Sun_By_Via_Films_Artlist_HD.mp4</name>
								<enabled>TRUE</enabled>
								<duration>675</duration>
								<rate>
									<timebase>30</timebase>
									<ntsc>TRUE</ntsc>
								</rate>
								<start>14392</start>
								<end>15067</end>
								<in>0</in>
								<out>675</out>
								<pproTicksIn>0</pproTicksIn>
								<pproTicksOut>5721075360000</pproTicksOut>
								<alphatype>none</alphatype>
								<file id="file-2"/>
								<logginginfo>
									<description></description>
									<scene></scene>
									<shottake></shottake>
									<lognote></lognote>
									<good></good>
									<originalvideofilename></originalvideofilename>
									<originalaudiofilename></originalaudiofilename>
								</logginginfo>
								<colorinfo>
									<lut></lut>
									<lut1></lut1>
									<asc_sop></asc_sop>
									<asc_sat></asc_sat>
									<lut2></lut2>
								</colorinfo>
								<labels>
									<label2>Mango</label2>
								</labels>
							</clipitem>
							<clipitem id="clipitem-197">
								<masterclipid>masterclip-6</masterclipid>
								<name>263101_Glacier Iceberg Iceland Ice_By_Viktor_Sloth_Artlist_HD.mp4</name>
								<enabled>TRUE</enabled>
								<duration>541</duration>
								<rate>
									<timebase>30</timebase>
									<ntsc>TRUE</ntsc>
								</rate>
								<start>15067</start>
								<end>15609</end>
								<in>0</in>
								<out>542</out>
								<pproTicksIn>0</pproTicksIn>
								<pproTicksOut>4593811622400</pproTicksOut>
								<alphatype>none</alphatype>
								<file id="file-4"/>
								<filter>
									<effect>
										<name>Distort</name>
										<effectid>deformation</effectid>
										<effectcategory>motion</effectcategory>
										<effecttype>motion</effecttype>
										<mediatype>video</mediatype>
										<parameter authoringApp="PremierePro">
											<parameterid>aspect</parameterid>
											<name>Aspect</name>
											<valuemin>-10000</valuemin>
											<valuemax>10000</valuemax>
											<value>-12.5</value>
										</parameter>
									</effect>
								</filter>
								<filter>
									<effect>
										<name>Basic Motion</name>
										<effectid>basic</effectid>
										<effectcategory>motion</effectcategory>
										<effecttype>motion</effecttype>
										<mediatype>video</mediatype>
										<parameter authoringApp="PremierePro">
											<parameterid>scale</parameterid>
											<name>Scale</name>
											<value>112.5</value>
										</parameter>
									</effect>
								</filter>
								<logginginfo>
									<description></description>
									<scene></scene>
									<shottake></shottake>
									<lognote></lognote>
									<good></good>
									<originalvideofilename></originalvideofilename>
									<originalaudiofilename></originalaudiofilename>
								</logginginfo>
								<colorinfo>
									<lut></lut>
									<lut1></lut1>
									<asc_sop></asc_sop>
									<asc_sat></asc_sat>
									<lut2></lut2>
								</colorinfo>
								<labels>
									<label2>Mango</label2>
								</labels>
							</clipitem>
							<clipitem id="clipitem-198">
								<masterclipid>masterclip-7</masterclipid>
								<name>263104_Lagoon Iceland Jokulsarlon Glacier_By_Viktor_Sloth_Artlist_HD.mp4</name>
								<enabled>TRUE</enabled>
								<duration>389</duration>
								<rate>
									<timebase>30</timebase>
									<ntsc>TRUE</ntsc>
								</rate>
								<start>15609</start>
								<end>15998</end>
								<in>0</in>
								<out>390</out>
								<pproTicksIn>0</pproTicksIn>
								<pproTicksOut>3305510208000</pproTicksOut>
								<alphatype>none</alphatype>
								<file id="file-5"/>
								<filter>
									<effect>
										<name>Distort</name>
										<effectid>deformation</effectid>
										<effectcategory>motion</effectcategory>
										<effecttype>motion</effecttype>
										<mediatype>video</mediatype>
										<parameter authoringApp="PremierePro">
											<parameterid>aspect</parameterid>
											<name>Aspect</name>
											<valuemin>-10000</valuemin>
											<valuemax>10000</valuemax>
											<value>-12.5</value>
										</parameter>
									</effect>
								</filter>
								<filter>
									<effect>
										<name>Basic Motion</name>
										<effectid>basic</effectid>
										<effectcategory>motion</effectcategory>
										<effecttype>motion</effecttype>
										<mediatype>video</mediatype>
										<parameter authoringApp="PremierePro">
											<parameterid>scale</parameterid>
											<name>Scale</name>
											<value>112.5</value>
										</parameter>
									</effect>
								</filter>
								<logginginfo>
									<description></description>
									<scene></scene>
									<shottake></shottake>
									<lognote></lognote>
									<good></good>
									<originalvideofilename></originalvideofilename>
									<originalaudiofilename></originalaudiofilename>
								</logginginfo>
								<colorinfo>
									<lut></lut>
									<lut1></lut1>
									<asc_sop></asc_sop>
									<asc_sat></asc_sat>
									<lut2></lut2>
								</colorinfo>
								<labels>
									<label2>Mango</label2>
								</labels>
							</clipitem>
							<clipitem id="clipitem-199">
								<masterclipid>masterclip-10</masterclipid>
								<name>164529_Mountains and trees in Thailand_By_Roma_Black_Artlist_HD.mp4</name>
								<enabled>TRUE</enabled>
								<duration>323</duration>
								<rate>
									<timebase>30</timebase>
									<ntsc>TRUE</ntsc>
								</rate>
								<start>15999</start>
								<end>16323</end>
								<in>0</in>
								<out>324</out>
								<pproTicksIn>0</pproTicksIn>
								<pproTicksOut>2746116172800</pproTicksOut>
								<alphatype>none</alphatype>
								<file id="file-7"/>
								<logginginfo>
									<description></description>
									<scene></scene>
									<shottake></shottake>
									<lognote></lognote>
									<good></good>
									<originalvideofilename></originalvideofilename>
									<originalaudiofilename></originalaudiofilename>
								</logginginfo>
								<colorinfo>
									<lut></lut>
									<lut1></lut1>
									<asc_sop></asc_sop>
									<asc_sat></asc_sat>
									<lut2></lut2>
								</colorinfo>
								<labels>
									<label2>Mango</label2>
								</labels>
							</clipitem>
							<clipitem id="clipitem-200">
								<masterclipid>masterclip-11</masterclipid>
								<name>164530_Mountains and trees in Thailand_By_Roma_Black_Artlist_HD.mp4</name>
								<enabled>TRUE</enabled>
								<duration>145</duration>
								<rate>
									<timebase>30</timebase>
									<ntsc>TRUE</ntsc>
								</rate>
								<start>16323</start>
								<end>16468</end>
								<in>0</in>
								<out>145</out>
								<pproTicksIn>0</pproTicksIn>
								<pproTicksOut>1228971744000</pproTicksOut>
								<alphatype>none</alphatype>
								<file id="file-8"/>
								<logginginfo>
									<description></description>
									<scene></scene>
									<shottake></shottake>
									<lognote></lognote>
									<good></good>
									<originalvideofilename></originalvideofilename>
									<originalaudiofilename></originalaudiofilename>
								</logginginfo>
								<colorinfo>
									<lut></lut>
									<lut1></lut1>
									<asc_sop></asc_sop>
									<asc_sat></asc_sat>
									<lut2></lut2>
								</colorinfo>
								<labels>
									<label2>Mango</label2>
								</labels>
							</clipitem>
							<enabled>TRUE</enabled>
							<locked>FALSE</locked>
						</track>
						<track TL.SQTrackShy="0" TL.SQTrackExpandedHeight="25" TL.SQTrackExpanded="0" MZ.TrackTargeted="0">
							<enabled>TRUE</enabled>
							<locked>FALSE</locked>
						</track>
						<track TL.SQTrackShy="0" TL.SQTrackExpandedHeight="25" TL.SQTrackExpanded="0" MZ.TrackTargeted="0">
							<enabled>TRUE</enabled>
							<locked>FALSE</locked>
						</track>
					</video>
					<audio>
						<numOutputChannels>2</numOutputChannels>
						<format>
							<samplecharacteristics>
								<depth>16</depth>
								<samplerate>48000</samplerate>
							</samplecharacteristics>
						</format>
						<outputs>
							<group>
								<index>1</index>
								<numchannels>1</numchannels>
								<downmix>0</downmix>
								<channel>
									<index>1</index>
								</channel>
							</group>
							<group>
								<index>2</index>
								<numchannels>1</numchannels>
								<downmix>0</downmix>
								<channel>
									<index>2</index>
								</channel>
							</group>
						</outputs>
						<track TL.SQTrackAudioKeyframeStyle="0" TL.SQTrackShy="0" TL.SQTrackExpandedHeight="25" TL.SQTrackExpanded="0" MZ.TrackTargeted="1" PannerCurrentValue="0.5" PannerIsInverted="true" PannerStartKeyframe="-91445760000000000,0.5,0,0,0,0,0,0" PannerName="Balance" currentExplodedTrackIndex="0" totalExplodedTrackCount="2" premiereTrackType="Stereo">
							<clipitem id="clipitem-201" premiereChannelType="stereo">
								<masterclipid>masterclip-24</masterclipid>
								<name>Adrián Berenguer - Premiere.mp3</name>
								<enabled>TRUE</enabled>
								<duration>5844</duration>
								<rate>
									<timebase>30</timebase>
									<ntsc>TRUE</ntsc>
								</rate>
								<start>0</start>
								<end>1848</end>
								<in>0</in>
								<out>1848</out>
								<pproTicksIn>0</pproTicksIn>
								<pproTicksOut>15663032985600</pproTicksOut>
								<file id="file-18"/>
								<sourcetrack>
									<mediatype>audio</mediatype>
									<trackindex>1</trackindex>
								</sourcetrack>
								<link>
									<linkclipref>clipitem-201</linkclipref>
									<mediatype>audio</mediatype>
									<trackindex>1</trackindex>
									<clipindex>1</clipindex>
									<groupindex>1</groupindex>
								</link>
								<link>
									<linkclipref>clipitem-210</linkclipref>
									<mediatype>audio</mediatype>
									<trackindex>2</trackindex>
									<clipindex>1</clipindex>
									<groupindex>1</groupindex>
								</link>
								<logginginfo>
									<description></description>
									<scene></scene>
									<shottake></shottake>
									<lognote></lognote>
									<good></good>
									<originalvideofilename></originalvideofilename>
									<originalaudiofilename></originalaudiofilename>
								</logginginfo>
								<colorinfo>
									<lut></lut>
									<lut1></lut1>
									<asc_sop></asc_sop>
									<asc_sat></asc_sat>
									<lut2></lut2>
								</colorinfo>
								<labels>
									<label2>Forest</label2>
								</labels>
							</clipitem>
							<clipitem id="clipitem-202" premiereChannelType="stereo">
								<masterclipid>masterclip-28</masterclipid>
								<name>ANBR - Seasons.mp3</name>
								<enabled>TRUE</enabled>
								<duration>6125</duration>
								<rate>
									<timebase>30</timebase>
									<ntsc>TRUE</ntsc>
								</rate>
								<start>1848</start>
								<end>4678</end>
								<in>0</in>
								<out>2830</out>
								<pproTicksIn>0</pproTicksIn>
								<pproTicksOut>23986138176000</pproTicksOut>
								<file id="file-21"/>
								<sourcetrack>
									<mediatype>audio</mediatype>
									<trackindex>1</trackindex>
								</sourcetrack>
								<link>
									<linkclipref>clipitem-202</linkclipref>
									<mediatype>audio</mediatype>
									<trackindex>1</trackindex>
									<clipindex>2</clipindex>
									<groupindex>1</groupindex>
								</link>
								<link>
									<linkclipref>clipitem-211</linkclipref>
									<mediatype>audio</mediatype>
									<trackindex>2</trackindex>
									<clipindex>2</clipindex>
									<groupindex>1</groupindex>
								</link>
								<logginginfo>
									<description></description>
									<scene></scene>
									<shottake></shottake>
									<lognote>All Rights Reserved to www.Art-list.io</lognote>
									<good></good>
									<originalvideofilename></originalvideofilename>
									<originalaudiofilename></originalaudiofilename>
								</logginginfo>
								<colorinfo>
									<lut></lut>
									<lut1></lut1>
									<asc_sop></asc_sop>
									<asc_sat></asc_sat>
									<lut2></lut2>
								</colorinfo>
								<labels>
									<label2>Forest</label2>
								</labels>
							</clipitem>
							<clipitem id="clipitem-203" premiereChannelType="stereo">
								<masterclipid>masterclip-31</masterclipid>
								<name>Ardie Son - A Winter Migration.mp3</name>
								<enabled>TRUE</enabled>
								<duration>4291</duration>
								<rate>
									<timebase>30</timebase>
									<ntsc>TRUE</ntsc>
								</rate>
								<start>4679</start>
								<end>5048</end>
								<in>0</in>
								<out>369</out>
								<pproTicksIn>0</pproTicksIn>
								<pproTicksOut>3127521196800</pproTicksOut>
								<file id="file-23"/>
								<sourcetrack>
									<mediatype>audio</mediatype>
									<trackindex>1</trackindex>
								</sourcetrack>
								<link>
									<linkclipref>clipitem-203</linkclipref>
									<mediatype>audio</mediatype>
									<trackindex>1</trackindex>
									<clipindex>3</clipindex>
									<groupindex>1</groupindex>
								</link>
								<link>
									<linkclipref>clipitem-212</linkclipref>
									<mediatype>audio</mediatype>
									<trackindex>2</trackindex>
									<clipindex>3</clipindex>
									<groupindex>1</groupindex>
								</link>
								<logginginfo>
									<description></description>
									<scene></scene>
									<shottake></shottake>
									<lognote></lognote>
									<good></good>
									<originalvideofilename></originalvideofilename>
									<originalaudiofilename></originalaudiofilename>
								</logginginfo>
								<colorinfo>
									<lut></lut>
									<lut1></lut1>
									<asc_sop></asc_sop>
									<asc_sat></asc_sat>
									<lut2></lut2>
								</colorinfo>
								<labels>
									<label2>Forest</label2>
								</labels>
							</clipitem>
							<clipitem id="clipitem-204" premiereChannelType="stereo">
								<masterclipid>masterclip-40</masterclipid>
								<name>Hanjo Gabler - Running Herd.wav</name>
								<enabled>TRUE</enabled>
								<duration>4411</duration>
								<rate>
									<timebase>30</timebase>
									<ntsc>TRUE</ntsc>
								</rate>
								<start>5048</start>
								<end>7523</end>
								<in>0</in>
								<out>2475</out>
								<pproTicksIn>0</pproTicksIn>
								<pproTicksOut>20977276320000</pproTicksOut>
								<file id="file-31"/>
								<sourcetrack>
									<mediatype>audio</mediatype>
									<trackindex>1</trackindex>
								</sourcetrack>
								<link>
									<linkclipref>clipitem-204</linkclipref>
									<mediatype>audio</mediatype>
									<trackindex>1</trackindex>
									<clipindex>4</clipindex>
									<groupindex>1</groupindex>
								</link>
								<link>
									<linkclipref>clipitem-213</linkclipref>
									<mediatype>audio</mediatype>
									<trackindex>2</trackindex>
									<clipindex>4</clipindex>
									<groupindex>1</groupindex>
								</link>
								<logginginfo>
									<description></description>
									<scene></scene>
									<shottake></shottake>
									<lognote></lognote>
									<good></good>
									<originalvideofilename></originalvideofilename>
									<originalaudiofilename></originalaudiofilename>
								</logginginfo>
								<colorinfo>
									<lut></lut>
									<lut1></lut1>
									<asc_sop></asc_sop>
									<asc_sat></asc_sat>
									<lut2></lut2>
								</colorinfo>
								<labels>
									<label2>Forest</label2>
								</labels>
							</clipitem>
							<clipitem id="clipitem-205" premiereChannelType="stereo">
								<masterclipid>masterclip-47</masterclipid>
								<name>Hans Johnson - Remember This.mp3</name>
								<enabled>TRUE</enabled>
								<duration>4735</duration>
								<rate>
									<timebase>30</timebase>
									<ntsc>TRUE</ntsc>
								</rate>
								<start>7523</start>
								<end>12130</end>
								<in>0</in>
								<out>4607</out>
								<pproTicksIn>0</pproTicksIn>
								<pproTicksOut>39047398790400</pproTicksOut>
								<file id="file-37"/>
								<sourcetrack>
									<mediatype>audio</mediatype>
									<trackindex>1</trackindex>
								</sourcetrack>
								<link>
									<linkclipref>clipitem-205</linkclipref>
									<mediatype>audio</mediatype>
									<trackindex>1</trackindex>
									<clipindex>5</clipindex>
									<groupindex>1</groupindex>
								</link>
								<link>
									<linkclipref>clipitem-214</linkclipref>
									<mediatype>audio</mediatype>
									<trackindex>2</trackindex>
									<clipindex>5</clipindex>
									<groupindex>1</groupindex>
								</link>
								<logginginfo>
									<description></description>
									<scene></scene>
									<shottake></shottake>
									<lognote>All Rights Reserved to www.Art-list.io</lognote>
									<good></good>
									<originalvideofilename></originalvideofilename>
									<originalaudiofilename></originalaudiofilename>
								</logginginfo>
								<colorinfo>
									<lut></lut>
									<lut1></lut1>
									<asc_sop></asc_sop>
									<asc_sat></asc_sat>
									<lut2></lut2>
								</colorinfo>
								<labels>
									<label2>Caribbean</label2>
								</labels>
							</clipitem>
							<clipitem id="clipitem-206" premiereChannelType="stereo">
								<masterclipid>masterclip-52</masterclipid>
								<name>Ian Post - First Rain - Piano  Leads Version.wav</name>
								<enabled>TRUE</enabled>
								<duration>6719</duration>
								<rate>
									<timebase>30</timebase>
									<ntsc>TRUE</ntsc>
								</rate>
								<start>12130</start>
								<end>13883</end>
								<in>0</in>
								<out>1753</out>
								<pproTicksIn>0</pproTicksIn>
								<pproTicksOut>14857844601600</pproTicksOut>
								<file id="file-41"/>
								<sourcetrack>
									<mediatype>audio</mediatype>
									<trackindex>1</trackindex>
								</sourcetrack>
								<link>
									<linkclipref>clipitem-206</linkclipref>
									<mediatype>audio</mediatype>
									<trackindex>1</trackindex>
									<clipindex>6</clipindex>
									<groupindex>1</groupindex>
								</link>
								<link>
									<linkclipref>clipitem-215</linkclipref>
									<mediatype>audio</mediatype>
									<trackindex>2</trackindex>
									<clipindex>6</clipindex>
									<groupindex>1</groupindex>
								</link>
								<logginginfo>
									<description></description>
									<scene></scene>
									<shottake></shottake>
									<lognote></lognote>
									<good></good>
									<originalvideofilename></originalvideofilename>
									<originalaudiofilename></originalaudiofilename>
								</logginginfo>
								<colorinfo>
									<lut></lut>
									<lut1></lut1>
									<asc_sop></asc_sop>
									<asc_sat></asc_sat>
									<lut2></lut2>
								</colorinfo>
								<labels>
									<label2>Violet</label2>
								</labels>
							</clipitem>
							<clipitem id="clipitem-207" premiereChannelType="stereo">
								<masterclipid>masterclip-4</masterclipid>
								<name>Kevin P Holt - Shades of Autumn.mp3</name>
								<enabled>TRUE</enabled>
								<duration>6607</duration>
								<rate>
									<timebase>30</timebase>
									<ntsc>TRUE</ntsc>
								</rate>
								<start>13883</start>
								<end>15067</end>
								<in>0</in>
								<out>1184</out>
								<pproTicksIn>0</pproTicksIn>
								<pproTicksOut>10035189964800</pproTicksOut>
								<file id="file-3"/>
								<sourcetrack>
									<mediatype>audio</mediatype>
									<trackindex>1</trackindex>
								</sourcetrack>
								<link>
									<linkclipref>clipitem-207</linkclipref>
									<mediatype>audio</mediatype>
									<trackindex>1</trackindex>
									<clipindex>7</clipindex>
									<groupindex>1</groupindex>
								</link>
								<link>
									<linkclipref>clipitem-216</linkclipref>
									<mediatype>audio</mediatype>
									<trackindex>2</trackindex>
									<clipindex>7</clipindex>
									<groupindex>1</groupindex>
								</link>
								<logginginfo>
									<description></description>
									<scene></scene>
									<shottake></shottake>
									<lognote></lognote>
									<good></good>
									<originalvideofilename></originalvideofilename>
									<originalaudiofilename></originalaudiofilename>
								</logginginfo>
								<colorinfo>
									<lut></lut>
									<lut1></lut1>
									<asc_sop></asc_sop>
									<asc_sat></asc_sat>
									<lut2></lut2>
								</colorinfo>
								<labels>
									<label2>Forest</label2>
								</labels>
							</clipitem>
							<clipitem id="clipitem-208" premiereChannelType="stereo">
								<masterclipid>masterclip-8</masterclipid>
								<name>Shahead Mostafafar - Making the Future.mp3</name>
								<enabled>TRUE</enabled>
								<duration>6054</duration>
								<rate>
									<timebase>30</timebase>
									<ntsc>TRUE</ntsc>
								</rate>
								<start>15067</start>
								<end>15998</end>
								<in>0</in>
								<out>931</out>
								<pproTicksIn>0</pproTicksIn>
								<pproTicksOut>7890846163200</pproTicksOut>
								<file id="file-6"/>
								<sourcetrack>
									<mediatype>audio</mediatype>
									<trackindex>1</trackindex>
								</sourcetrack>
								<link>
									<linkclipref>clipitem-208</linkclipref>
									<mediatype>audio</mediatype>
									<trackindex>1</trackindex>
									<clipindex>8</clipindex>
									<groupindex>1</groupindex>
								</link>
								<link>
									<linkclipref>clipitem-217</linkclipref>
									<mediatype>audio</mediatype>
									<trackindex>2</trackindex>
									<clipindex>8</clipindex>
									<groupindex>1</groupindex>
								</link>
								<logginginfo>
									<description></description>
									<scene></scene>
									<shottake></shottake>
									<lognote>All Rights Reserved to www.Art-list.io</lognote>
									<good></good>
									<originalvideofilename></originalvideofilename>
									<originalaudiofilename></originalaudiofilename>
								</logginginfo>
								<colorinfo>
									<lut></lut>
									<lut1></lut1>
									<asc_sop></asc_sop>
									<asc_sat></asc_sat>
									<lut2></lut2>
								</colorinfo>
								<labels>
									<label2>Caribbean</label2>
								</labels>
							</clipitem>
							<clipitem id="clipitem-209" premiereChannelType="stereo">
								<masterclipid>masterclip-12</masterclipid>
								<name>Veaceslav Draganov - The Scents of Spring.wav</name>
								<enabled>TRUE</enabled>
								<duration>2771</duration>
								<rate>
									<timebase>30</timebase>
									<ntsc>TRUE</ntsc>
								</rate>
								<start>15999</start>
								<end>16468</end>
								<in>0</in>
								<out>469</out>
								<pproTicksIn>0</pproTicksIn>
								<pproTicksOut>3975087916800</pproTicksOut>
								<file id="file-9"/>
								<sourcetrack>
									<mediatype>audio</mediatype>
									<trackindex>1</trackindex>
								</sourcetrack>
								<link>
									<linkclipref>clipitem-209</linkclipref>
									<mediatype>audio</mediatype>
									<trackindex>1</trackindex>
									<clipindex>9</clipindex>
									<groupindex>1</groupindex>
								</link>
								<link>
									<linkclipref>clipitem-218</linkclipref>
									<mediatype>audio</mediatype>
									<trackindex>2</trackindex>
									<clipindex>9</clipindex>
									<groupindex>1</groupindex>
								</link>
								<logginginfo>
									<description></description>
									<scene></scene>
									<shottake></shottake>
									<lognote></lognote>
									<good></good>
									<originalvideofilename></originalvideofilename>
									<originalaudiofilename></originalaudiofilename>
								</logginginfo>
								<colorinfo>
									<lut></lut>
									<lut1></lut1>
									<asc_sop></asc_sop>
									<asc_sat></asc_sat>
									<lut2></lut2>
								</colorinfo>
								<labels>
									<label2>Violet</label2>
								</labels>
							</clipitem>
							<enabled>TRUE</enabled>
							<locked>FALSE</locked>
							<outputchannelindex>1</outputchannelindex>
						</track>
						<track TL.SQTrackAudioKeyframeStyle="0" TL.SQTrackShy="0" TL.SQTrackExpandedHeight="25" TL.SQTrackExpanded="0" MZ.TrackTargeted="1" PannerCurrentValue="0.5" PannerIsInverted="true" PannerStartKeyframe="-91445760000000000,0.5,0,0,0,0,0,0" PannerName="Balance" currentExplodedTrackIndex="1" totalExplodedTrackCount="2" premiereTrackType="Stereo">
							<clipitem id="clipitem-210" premiereChannelType="stereo">
								<masterclipid>masterclip-24</masterclipid>
								<name>Adrián Berenguer - Premiere.mp3</name>
								<enabled>TRUE</enabled>
								<duration>5844</duration>
								<rate>
									<timebase>30</timebase>
									<ntsc>TRUE</ntsc>
								</rate>
								<start>0</start>
								<end>1848</end>
								<in>0</in>
								<out>1848</out>
								<pproTicksIn>0</pproTicksIn>
								<pproTicksOut>15663032985600</pproTicksOut>
								<file id="file-18"/>
								<sourcetrack>
									<mediatype>audio</mediatype>
									<trackindex>2</trackindex>
								</sourcetrack>
								<link>
									<linkclipref>clipitem-201</linkclipref>
									<mediatype>audio</mediatype>
									<trackindex>1</trackindex>
									<clipindex>1</clipindex>
									<groupindex>1</groupindex>
								</link>
								<link>
									<linkclipref>clipitem-210</linkclipref>
									<mediatype>audio</mediatype>
									<trackindex>2</trackindex>
									<clipindex>1</clipindex>
									<groupindex>1</groupindex>
								</link>
								<logginginfo>
									<description></description>
									<scene></scene>
									<shottake></shottake>
									<lognote></lognote>
									<good></good>
									<originalvideofilename></originalvideofilename>
									<originalaudiofilename></originalaudiofilename>
								</logginginfo>
								<colorinfo>
									<lut></lut>
									<lut1></lut1>
									<asc_sop></asc_sop>
									<asc_sat></asc_sat>
									<lut2></lut2>
								</colorinfo>
								<labels>
									<label2>Forest</label2>
								</labels>
							</clipitem>
							<clipitem id="clipitem-211" premiereChannelType="stereo">
								<masterclipid>masterclip-28</masterclipid>
								<name>ANBR - Seasons.mp3</name>
								<enabled>TRUE</enabled>
								<duration>6125</duration>
								<rate>
									<timebase>30</timebase>
									<ntsc>TRUE</ntsc>
								</rate>
								<start>1848</start>
								<end>4678</end>
								<in>0</in>
								<out>2830</out>
								<pproTicksIn>0</pproTicksIn>
								<pproTicksOut>23986138176000</pproTicksOut>
								<file id="file-21"/>
								<sourcetrack>
									<mediatype>audio</mediatype>
									<trackindex>2</trackindex>
								</sourcetrack>
								<link>
									<linkclipref>clipitem-202</linkclipref>
									<mediatype>audio</mediatype>
									<trackindex>1</trackindex>
									<clipindex>2</clipindex>
									<groupindex>1</groupindex>
								</link>
								<link>
									<linkclipref>clipitem-211</linkclipref>
									<mediatype>audio</mediatype>
									<trackindex>2</trackindex>
									<clipindex>2</clipindex>
									<groupindex>1</groupindex>
								</link>
								<logginginfo>
									<description></description>
									<scene></scene>
									<shottake></shottake>
									<lognote>All Rights Reserved to www.Art-list.io</lognote>
									<good></good>
									<originalvideofilename></originalvideofilename>
									<originalaudiofilename></originalaudiofilename>
								</logginginfo>
								<colorinfo>
									<lut></lut>
									<lut1></lut1>
									<asc_sop></asc_sop>
									<asc_sat></asc_sat>
									<lut2></lut2>
								</colorinfo>
								<labels>
									<label2>Forest</label2>
								</labels>
							</clipitem>
							<clipitem id="clipitem-212" premiereChannelType="stereo">
								<masterclipid>masterclip-31</masterclipid>
								<name>Ardie Son - A Winter Migration.mp3</name>
								<enabled>TRUE</enabled>
								<duration>4291</duration>
								<rate>
									<timebase>30</timebase>
									<ntsc>TRUE</ntsc>
								</rate>
								<start>4679</start>
								<end>5048</end>
								<in>0</in>
								<out>369</out>
								<pproTicksIn>0</pproTicksIn>
								<pproTicksOut>3127521196800</pproTicksOut>
								<file id="file-23"/>
								<sourcetrack>
									<mediatype>audio</mediatype>
									<trackindex>2</trackindex>
								</sourcetrack>
								<link>
									<linkclipref>clipitem-203</linkclipref>
									<mediatype>audio</mediatype>
									<trackindex>1</trackindex>
									<clipindex>3</clipindex>
									<groupindex>1</groupindex>
								</link>
								<link>
									<linkclipref>clipitem-212</linkclipref>
									<mediatype>audio</mediatype>
									<trackindex>2</trackindex>
									<clipindex>3</clipindex>
									<groupindex>1</groupindex>
								</link>
								<logginginfo>
									<description></description>
									<scene></scene>
									<shottake></shottake>
									<lognote></lognote>
									<good></good>
									<originalvideofilename></originalvideofilename>
									<originalaudiofilename></originalaudiofilename>
								</logginginfo>
								<colorinfo>
									<lut></lut>
									<lut1></lut1>
									<asc_sop></asc_sop>
									<asc_sat></asc_sat>
									<lut2></lut2>
								</colorinfo>
								<labels>
									<label2>Forest</label2>
								</labels>
							</clipitem>
							<clipitem id="clipitem-213" premiereChannelType="stereo">
								<masterclipid>masterclip-40</masterclipid>
								<name>Hanjo Gabler - Running Herd.wav</name>
								<enabled>TRUE</enabled>
								<duration>4411</duration>
								<rate>
									<timebase>30</timebase>
									<ntsc>TRUE</ntsc>
								</rate>
								<start>5048</start>
								<end>7523</end>
								<in>0</in>
								<out>2475</out>
								<pproTicksIn>0</pproTicksIn>
								<pproTicksOut>20977276320000</pproTicksOut>
								<file id="file-31"/>
								<sourcetrack>
									<mediatype>audio</mediatype>
									<trackindex>2</trackindex>
								</sourcetrack>
								<link>
									<linkclipref>clipitem-204</linkclipref>
									<mediatype>audio</mediatype>
									<trackindex>1</trackindex>
									<clipindex>4</clipindex>
									<groupindex>1</groupindex>
								</link>
								<link>
									<linkclipref>clipitem-213</linkclipref>
									<mediatype>audio</mediatype>
									<trackindex>2</trackindex>
									<clipindex>4</clipindex>
									<groupindex>1</groupindex>
								</link>
								<logginginfo>
									<description></description>
									<scene></scene>
									<shottake></shottake>
									<lognote></lognote>
									<good></good>
									<originalvideofilename></originalvideofilename>
									<originalaudiofilename></originalaudiofilename>
								</logginginfo>
								<colorinfo>
									<lut></lut>
									<lut1></lut1>
									<asc_sop></asc_sop>
									<asc_sat></asc_sat>
									<lut2></lut2>
								</colorinfo>
								<labels>
									<label2>Forest</label2>
								</labels>
							</clipitem>
							<clipitem id="clipitem-214" premiereChannelType="stereo">
								<masterclipid>masterclip-47</masterclipid>
								<name>Hans Johnson - Remember This.mp3</name>
								<enabled>TRUE</enabled>
								<duration>4735</duration>
								<rate>
									<timebase>30</timebase>
									<ntsc>TRUE</ntsc>
								</rate>
								<start>7523</start>
								<end>12130</end>
								<in>0</in>
								<out>4607</out>
								<pproTicksIn>0</pproTicksIn>
								<pproTicksOut>39047398790400</pproTicksOut>
								<file id="file-37"/>
								<sourcetrack>
									<mediatype>audio</mediatype>
									<trackindex>2</trackindex>
								</sourcetrack>
								<link>
									<linkclipref>clipitem-205</linkclipref>
									<mediatype>audio</mediatype>
									<trackindex>1</trackindex>
									<clipindex>5</clipindex>
									<groupindex>1</groupindex>
								</link>
								<link>
									<linkclipref>clipitem-214</linkclipref>
									<mediatype>audio</mediatype>
									<trackindex>2</trackindex>
									<clipindex>5</clipindex>
									<groupindex>1</groupindex>
								</link>
								<logginginfo>
									<description></description>
									<scene></scene>
									<shottake></shottake>
									<lognote>All Rights Reserved to www.Art-list.io</lognote>
									<good></good>
									<originalvideofilename></originalvideofilename>
									<originalaudiofilename></originalaudiofilename>
								</logginginfo>
								<colorinfo>
									<lut></lut>
									<lut1></lut1>
									<asc_sop></asc_sop>
									<asc_sat></asc_sat>
									<lut2></lut2>
								</colorinfo>
								<labels>
									<label2>Caribbean</label2>
								</labels>
							</clipitem>
							<clipitem id="clipitem-215" premiereChannelType="stereo">
								<masterclipid>masterclip-52</masterclipid>
								<name>Ian Post - First Rain - Piano  Leads Version.wav</name>
								<enabled>TRUE</enabled>
								<duration>6719</duration>
								<rate>
									<timebase>30</timebase>
									<ntsc>TRUE</ntsc>
								</rate>
								<start>12130</start>
								<end>13883</end>
								<in>0</in>
								<out>1753</out>
								<pproTicksIn>0</pproTicksIn>
								<pproTicksOut>14857844601600</pproTicksOut>
								<file id="file-41"/>
								<sourcetrack>
									<mediatype>audio</mediatype>
									<trackindex>2</trackindex>
								</sourcetrack>
								<link>
									<linkclipref>clipitem-206</linkclipref>
									<mediatype>audio</mediatype>
									<trackindex>1</trackindex>
									<clipindex>6</clipindex>
									<groupindex>1</groupindex>
								</link>
								<link>
									<linkclipref>clipitem-215</linkclipref>
									<mediatype>audio</mediatype>
									<trackindex>2</trackindex>
									<clipindex>6</clipindex>
									<groupindex>1</groupindex>
								</link>
								<logginginfo>
									<description></description>
									<scene></scene>
									<shottake></shottake>
									<lognote></lognote>
									<good></good>
									<originalvideofilename></originalvideofilename>
									<originalaudiofilename></originalaudiofilename>
								</logginginfo>
								<colorinfo>
									<lut></lut>
									<lut1></lut1>
									<asc_sop></asc_sop>
									<asc_sat></asc_sat>
									<lut2></lut2>
								</colorinfo>
								<labels>
									<label2>Violet</label2>
								</labels>
							</clipitem>
							<clipitem id="clipitem-216" premiereChannelType="stereo">
								<masterclipid>masterclip-4</masterclipid>
								<name>Kevin P Holt - Shades of Autumn.mp3</name>
								<enabled>TRUE</enabled>
								<duration>6607</duration>
								<rate>
									<timebase>30</timebase>
									<ntsc>TRUE</ntsc>
								</rate>
								<start>13883</start>
								<end>15067</end>
								<in>0</in>
								<out>1184</out>
								<pproTicksIn>0</pproTicksIn>
								<pproTicksOut>10035189964800</pproTicksOut>
								<file id="file-3"/>
								<sourcetrack>
									<mediatype>audio</mediatype>
									<trackindex>2</trackindex>
								</sourcetrack>
								<link>
									<linkclipref>clipitem-207</linkclipref>
									<mediatype>audio</mediatype>
									<trackindex>1</trackindex>
									<clipindex>7</clipindex>
									<groupindex>1</groupindex>
								</link>
								<link>
									<linkclipref>clipitem-216</linkclipref>
									<mediatype>audio</mediatype>
									<trackindex>2</trackindex>
									<clipindex>7</clipindex>
									<groupindex>1</groupindex>
								</link>
								<logginginfo>
									<description></description>
									<scene></scene>
									<shottake></shottake>
									<lognote></lognote>
									<good></good>
									<originalvideofilename></originalvideofilename>
									<originalaudiofilename></originalaudiofilename>
								</logginginfo>
								<colorinfo>
									<lut></lut>
									<lut1></lut1>
									<asc_sop></asc_sop>
									<asc_sat></asc_sat>
									<lut2></lut2>
								</colorinfo>
								<labels>
									<label2>Forest</label2>
								</labels>
							</clipitem>
							<clipitem id="clipitem-217" premiereChannelType="stereo">
								<masterclipid>masterclip-8</masterclipid>
								<name>Shahead Mostafafar - Making the Future.mp3</name>
								<enabled>TRUE</enabled>
								<duration>6054</duration>
								<rate>
									<timebase>30</timebase>
									<ntsc>TRUE</ntsc>
								</rate>
								<start>15067</start>
								<end>15998</end>
								<in>0</in>
								<out>931</out>
								<pproTicksIn>0</pproTicksIn>
								<pproTicksOut>7890846163200</pproTicksOut>
								<file id="file-6"/>
								<sourcetrack>
									<mediatype>audio</mediatype>
									<trackindex>2</trackindex>
								</sourcetrack>
								<link>
									<linkclipref>clipitem-208</linkclipref>
									<mediatype>audio</mediatype>
									<trackindex>1</trackindex>
									<clipindex>8</clipindex>
									<groupindex>1</groupindex>
								</link>
								<link>
									<linkclipref>clipitem-217</linkclipref>
									<mediatype>audio</mediatype>
									<trackindex>2</trackindex>
									<clipindex>8</clipindex>
									<groupindex>1</groupindex>
								</link>
								<logginginfo>
									<description></description>
									<scene></scene>
									<shottake></shottake>
									<lognote>All Rights Reserved to www.Art-list.io</lognote>
									<good></good>
									<originalvideofilename></originalvideofilename>
									<originalaudiofilename></originalaudiofilename>
								</logginginfo>
								<colorinfo>
									<lut></lut>
									<lut1></lut1>
									<asc_sop></asc_sop>
									<asc_sat></asc_sat>
									<lut2></lut2>
								</colorinfo>
								<labels>
									<label2>Caribbean</label2>
								</labels>
							</clipitem>
							<clipitem id="clipitem-218" premiereChannelType="stereo">
								<masterclipid>masterclip-12</masterclipid>
								<name>Veaceslav Draganov - The Scents of Spring.wav</name>
								<enabled>TRUE</enabled>
								<duration>2771</duration>
								<rate>
									<timebase>30</timebase>
									<ntsc>TRUE</ntsc>
								</rate>
								<start>15999</start>
								<end>16468</end>
								<in>0</in>
								<out>469</out>
								<pproTicksIn>0</pproTicksIn>
								<pproTicksOut>3975087916800</pproTicksOut>
								<file id="file-9"/>
								<sourcetrack>
									<mediatype>audio</mediatype>
									<trackindex>2</trackindex>
								</sourcetrack>
								<link>
									<linkclipref>clipitem-209</linkclipref>
									<mediatype>audio</mediatype>
									<trackindex>1</trackindex>
									<clipindex>9</clipindex>
									<groupindex>1</groupindex>
								</link>
								<link>
									<linkclipref>clipitem-218</linkclipref>
									<mediatype>audio</mediatype>
									<trackindex>2</trackindex>
									<clipindex>9</clipindex>
									<groupindex>1</groupindex>
								</link>
								<logginginfo>
									<description></description>
									<scene></scene>
									<shottake></shottake>
									<lognote></lognote>
									<good></good>
									<originalvideofilename></originalvideofilename>
									<originalaudiofilename></originalaudiofilename>
								</logginginfo>
								<colorinfo>
									<lut></lut>
									<lut1></lut1>
									<asc_sop></asc_sop>
									<asc_sat></asc_sat>
									<lut2></lut2>
								</colorinfo>
								<labels>
									<label2>Violet</label2>
								</labels>
							</clipitem>
							<enabled>TRUE</enabled>
							<locked>FALSE</locked>
							<outputchannelindex>2</outputchannelindex>
						</track>
						<track TL.SQTrackAudioKeyframeStyle="0" TL.SQTrackShy="0" TL.SQTrackExpandedHeight="25" TL.SQTrackExpanded="0" MZ.TrackTargeted="1" PannerCurrentValue="0.5" PannerIsInverted="true" PannerStartKeyframe="-91445760000000000,0.5,0,0,0,0,0,0" PannerName="Balance" currentExplodedTrackIndex="0" totalExplodedTrackCount="2" premiereTrackType="Stereo">
							<enabled>TRUE</enabled>
							<locked>FALSE</locked>
							<outputchannelindex>1</outputchannelindex>
						</track>
						<track TL.SQTrackAudioKeyframeStyle="0" TL.SQTrackShy="0" TL.SQTrackExpandedHeight="25" TL.SQTrackExpanded="0" MZ.TrackTargeted="1" PannerCurrentValue="0.5" PannerIsInverted="true" PannerStartKeyframe="-91445760000000000,0.5,0,0,0,0,0,0" PannerName="Balance" currentExplodedTrackIndex="1" totalExplodedTrackCount="2" premiereTrackType="Stereo">
							<enabled>TRUE</enabled>
							<locked>FALSE</locked>
							<outputchannelindex>2</outputchannelindex>
						</track>
						<track TL.SQTrackAudioKeyframeStyle="0" TL.SQTrackShy="0" TL.SQTrackExpandedHeight="25" TL.SQTrackExpanded="0" MZ.TrackTargeted="1" PannerCurrentValue="0.5" PannerIsInverted="true" PannerStartKeyframe="-91445760000000000,0.5,0,0,0,0,0,0" PannerName="Balance" currentExplodedTrackIndex="0" totalExplodedTrackCount="2" premiereTrackType="Stereo">
							<enabled>TRUE</enabled>
							<locked>FALSE</locked>
							<outputchannelindex>1</outputchannelindex>
						</track>
						<track TL.SQTrackAudioKeyframeStyle="0" TL.SQTrackShy="0" TL.SQTrackExpandedHeight="25" TL.SQTrackExpanded="0" MZ.TrackTargeted="1" PannerCurrentValue="0.5" PannerIsInverted="true" PannerStartKeyframe="-91445760000000000,0.5,0,0,0,0,0,0" PannerName="Balance" currentExplodedTrackIndex="1" totalExplodedTrackCount="2" premiereTrackType="Stereo">
							<enabled>TRUE</enabled>
							<locked>FALSE</locked>
							<outputchannelindex>2</outputchannelindex>
						</track>
					</audio>
				</media>
				<timecode>
					<rate>
						<timebase>30</timebase>
						<ntsc>TRUE</ntsc>
					</rate>
					<string>00;00;00;00</string>
					<frame>0</frame>
					<displayformat>DF</displayformat>
				</timecode>
				<labels>
					<label2>Forest</label2>
				</labels>
				<logginginfo>
					<description></description>
					<scene></scene>
					<shottake></shottake>
					<lognote></lognote>
					<good></good>
					<originalvideofilename></originalvideofilename>
					<originalaudiofilename></originalaudiofilename>
				</logginginfo>
			</sequence>
		</children>
	</project>
</xmeml>
