<?xml version="1.0" encoding="UTF-8"?>
<!DOCTYPE xmeml>
<xmeml version="4">
	<project>
		<name>8:14:23</name>
		<children>
			<bin>
				<name>0_Final Sequences</name>
				<labels>
					<label2>Mango</label2>
				</labels>
				<children>
					<sequence id="sequence-1" TL.SQAudioVisibleBase="0" TL.SQVideoVisibleBase="0" TL.SQVisibleBaseTime="0" TL.SQAVDividerPosition="0.5" TL.SQHideShyTracks="0" TL.SQHeaderWidth="236" TL.SQDataTrackViewControlState="0" Monitor.ProgramZoomOut="43692064416000" Monitor.ProgramZoomIn="0" TL.SQTimePerPixel="0.19300129166666669" AM.TrackVScrollPosition="0" AM.TrackScrollPosition="0" MZ.EditLine="22553750419200" MZ.Sequence.PreviewFrameSizeHeight="1080" MZ.Sequence.PreviewFrameSizeWidth="1920" MZ.Sequence.AudioTimeDisplayFormat="200" MZ.Sequence.PreviewRenderingClassID="1061109567" MZ.Sequence.PreviewRenderingPresetCodec="1634755443" MZ.Sequence.PreviewRenderingPresetPath="EncoderPresets/SequencePreview/35d109db-457b-43c1-9452-9cb7be9f121c/QuickTime.epr" MZ.Sequence.PreviewUseMaxRenderQuality="false" MZ.Sequence.PreviewUseMaxBitDepth="false" MZ.Sequence.EditingModeGUID="35d109db-457b-43c1-9452-9cb7be9f121c" MZ.Sequence.VideoTimeDisplayFormat="102" MZ.WorkOutPoint="15239249625600" MZ.WorkInPoint="0" explodedTracks="true">
						<uuid>a47d66e1-d7b7-47d1-8d49-208758258cdb</uuid>
						<duration>5060</duration>
						<rate>
							<timebase>30</timebase>
							<ntsc>TRUE</ntsc>
						</rate>
						<name>ATM_EYECANDY_239</name>
						<media>
							<video>
								<format>
									<samplecharacteristics>
										<rate>
											<timebase>30</timebase>
											<ntsc>TRUE</ntsc>
										</rate>
										<codec>
											<name>Apple ProRes 422</name>
											<appspecificdata>
												<appname>Final Cut Pro</appname>
												<appmanufacturer>Apple Inc.</appmanufacturer>
												<appversion>7.0</appversion>
												<data>
													<qtcodec>
														<codecname>Apple ProRes 422</codecname>
														<codectypename>Apple ProRes 422</codectypename>
														<codectypecode>apcn</codectypecode>
														<codecvendorcode>appl</codecvendorcode>
														<spatialquality>1024</spatialquality>
														<temporalquality>0</temporalquality>
														<keyframerate>0</keyframerate>
														<datarate>0</datarate>
													</qtcodec>
												</data>
											</appspecificdata>
										</codec>
										<width>1920</width>
										<height>1080</height>
										<anamorphic>FALSE</anamorphic>
										<pixelaspectratio>square</pixelaspectratio>
										<fielddominance>none</fielddominance>
										<colordepth>24</colordepth>
									</samplecharacteristics>
								</format>
								<track TL.SQTrackShy="0" TL.SQTrackExpandedHeight="25" TL.SQTrackExpanded="0" MZ.TrackTargeted="1">
									<clipitem id="clipitem-1">
										<masterclipid>masterclip-1</masterclipid>
										<name>Batter Up!_1</name>
										<enabled>TRUE</enabled>
										<duration>5700</duration>
										<rate>
											<timebase>30</timebase>
											<ntsc>TRUE</ntsc>
										</rate>
										<start>82</start>
										<end>1744</end>
										<in>0</in>
										<out>1662</out>
										<pproTicksIn>0</pproTicksIn>
										<pproTicksOut>14086558886400</pproTicksOut>
										<sequence id="sequence-2" TL.SQAudioVisibleBase="0" TL.SQVideoVisibleBase="0" TL.SQVisibleBaseTime="0" TL.SQAVDividerPosition="0.5" TL.SQHideShyTracks="0" TL.SQHeaderWidth="236" TL.SQDataTrackViewControlState="0" Monitor.ProgramZoomOut="14086558886400" Monitor.ProgramZoomIn="0" TL.SQTimePerPixel="0.072184793070245737" AM.TrackVScrollPosition="0" AM.TrackScrollPosition="0" MZ.EditLine="4568384620800" MZ.Sequence.PreviewFrameSizeHeight="1080" MZ.Sequence.PreviewFrameSizeWidth="1920" MZ.Sequence.AudioTimeDisplayFormat="200" MZ.Sequence.PreviewRenderingClassID="1061109567" MZ.Sequence.PreviewRenderingPresetCodec="1634755443" MZ.Sequence.PreviewRenderingPresetPath="EncoderPresets/SequencePreview/35d109db-457b-43c1-9452-9cb7be9f121c/QuickTime.epr" MZ.Sequence.PreviewUseMaxRenderQuality="false" MZ.Sequence.PreviewUseMaxBitDepth="false" MZ.Sequence.EditingModeGUID="35d109db-457b-43c1-9452-9cb7be9f121c" MZ.Sequence.VideoTimeDisplayFormat="102" MZ.WorkOutPoint="1262874412800" MZ.WorkInPoint="0">
											<duration>1662</duration>
											<rate>
												<timebase>30</timebase>
												<ntsc>TRUE</ntsc>
											</rate>
											<name>FND_Batter Up!_1</name>
											<media>
												<video>
													<format>
														<samplecharacteristics>
															<rate>
																<timebase>30</timebase>
																<ntsc>TRUE</ntsc>
															</rate>
															<codec>
																<name>Apple ProRes 422</name>
																<appspecificdata>
																	<appname>Final Cut Pro</appname>
																	<appmanufacturer>Apple Inc.</appmanufacturer>
																	<appversion>7.0</appversion>
																	<data>
																		<qtcodec>
																			<codecname>Apple ProRes 422</codecname>
																			<codectypename>Apple ProRes 422</codectypename>
																			<codectypecode>apcn</codectypecode>
																			<codecvendorcode>appl</codecvendorcode>
																			<spatialquality>1024</spatialquality>
																			<temporalquality>0</temporalquality>
																			<keyframerate>0</keyframerate>
																			<datarate>0</datarate>
																		</qtcodec>
																	</data>
																</appspecificdata>
															</codec>
															<width>1920</width>
															<height>1080</height>
															<anamorphic>FALSE</anamorphic>
															<pixelaspectratio>square</pixelaspectratio>
															<fielddominance>none</fielddominance>
															<colordepth>24</colordepth>
														</samplecharacteristics>
													</format>
													<track TL.SQTrackShy="0" TL.SQTrackExpandedHeight="25" TL.SQTrackExpanded="0" MZ.TrackTargeted="1">
														<clipitem id="clipitem-2">
															<masterclipid>masterclip-2</masterclipid>
															<name>(allthesugartx)_CeOdP_ol9uw_IG.mp4</name>
															<enabled>TRUE</enabled>
															<duration>382</duration>
															<rate>
																<timebase>30</timebase>
																<ntsc>TRUE</ntsc>
															</rate>
															<start>0</start>
															<end>382</end>
															<in>0</in>
															<out>382</out>
															<pproTicksIn>0</pproTicksIn>
															<pproTicksOut>3237704870400</pproTicksOut>
															<alphatype>none</alphatype>
															<pixelaspectratio>square</pixelaspectratio>
															<anamorphic>FALSE</anamorphic>
															<file id="file-1">
																<name>(allthesugartx)_CeOdP_ol9uw_IG.mp4</name>
																<pathurl>file://localhost/Volumes/ATM%201/EYE%20CANDY/8%3a14%3a23/3_Raw%20Files/sports%20cookies/(allthesugartx)_CeOdP_ol9uw_IG.mp4</pathurl>
																<rate>
																	<timebase>30</timebase>
																	<ntsc>FALSE</ntsc>
																</rate>
																<duration>383</duration>
																<timecode>
																	<rate>
																		<timebase>30</timebase>
																		<ntsc>FALSE</ntsc>
																	</rate>
																	<string>00:00:00:00</string>
																	<frame>0</frame>
																	<displayformat>NDF</displayformat>
																</timecode>
																<media>
																	<video>
																		<samplecharacteristics>
																			<rate>
																				<timebase>30</timebase>
																				<ntsc>FALSE</ntsc>
																			</rate>
																			<width>720</width>
																			<height>1280</height>
																			<anamorphic>FALSE</anamorphic>
																			<pixelaspectratio>square</pixelaspectratio>
																			<fielddominance>none</fielddominance>
																		</samplecharacteristics>
																	</video>
																	<audio>
																		<samplecharacteristics>
																			<depth>16</depth>
																			<samplerate>44100</samplerate>
																		</samplecharacteristics>
																		<channelcount>2</channelcount>
																	</audio>
																</media>
															</file>
															<logginginfo>
																<description></description>
																<scene></scene>
																<shottake></shottake>
																<lognote></lognote>
																<good></good>
																<originalvideofilename></originalvideofilename>
																<originalaudiofilename></originalaudiofilename>
															</logginginfo>
															<colorinfo>
																<lut></lut>
																<lut1></lut1>
																<asc_sop></asc_sop>
																<asc_sat></asc_sat>
																<lut2></lut2>
															</colorinfo>
															<labels>
																<label2>Violet</label2>
															</labels>
														</clipitem>
														<clipitem id="clipitem-3">
															<masterclipid>masterclip-3</masterclipid>
															<name>(allthesugartx)_CeRAqsfFOPT_IG.mp4</name>
															<enabled>TRUE</enabled>
															<duration>446</duration>
															<rate>
																<timebase>30</timebase>
																<ntsc>TRUE</ntsc>
															</rate>
															<start>382</start>
															<end>828</end>
															<in>0</in>
															<out>446</out>
															<pproTicksIn>0</pproTicksIn>
															<pproTicksOut>3780147571200</pproTicksOut>
															<alphatype>none</alphatype>
															<pixelaspectratio>square</pixelaspectratio>
															<anamorphic>FALSE</anamorphic>
															<file id="file-2">
																<name>(allthesugartx)_CeRAqsfFOPT_IG.mp4</name>
																<pathurl>file://localhost/Volumes/ATM%201/EYE%20CANDY/8%3a14%3a23/3_Raw%20Files/sports%20cookies/(allthesugartx)_CeRAqsfFOPT_IG.mp4</pathurl>
																<rate>
																	<timebase>30</timebase>
																	<ntsc>FALSE</ntsc>
																</rate>
																<duration>447</duration>
																<timecode>
																	<rate>
																		<timebase>30</timebase>
																		<ntsc>FALSE</ntsc>
																	</rate>
																	<string>00:00:00:00</string>
																	<frame>0</frame>
																	<displayformat>NDF</displayformat>
																</timecode>
																<media>
																	<video>
																		<samplecharacteristics>
																			<rate>
																				<timebase>30</timebase>
																				<ntsc>FALSE</ntsc>
																			</rate>
																			<width>720</width>
																			<height>1280</height>
																			<anamorphic>FALSE</anamorphic>
																			<pixelaspectratio>square</pixelaspectratio>
																			<fielddominance>none</fielddominance>
																		</samplecharacteristics>
																	</video>
																	<audio>
																		<samplecharacteristics>
																			<depth>16</depth>
																			<samplerate>44100</samplerate>
																		</samplecharacteristics>
																		<channelcount>2</channelcount>
																	</audio>
																</media>
															</file>
															<logginginfo>
																<description></description>
																<scene></scene>
																<shottake></shottake>
																<lognote></lognote>
																<good></good>
																<originalvideofilename></originalvideofilename>
																<originalaudiofilename></originalaudiofilename>
															</logginginfo>
															<colorinfo>
																<lut></lut>
																<lut1></lut1>
																<asc_sop></asc_sop>
																<asc_sat></asc_sat>
																<lut2></lut2>
															</colorinfo>
															<labels>
																<label2>Violet</label2>
															</labels>
														</clipitem>
														<clipitem id="clipitem-4">
															<masterclipid>masterclip-4</masterclipid>
															<name>(allthesugartx)_CbDjTWdFjh3_IG.mp4</name>
															<enabled>TRUE</enabled>
															<duration>462</duration>
															<rate>
																<timebase>30</timebase>
																<ntsc>TRUE</ntsc>
															</rate>
															<start>828</start>
															<end>1291</end>
															<in>0</in>
															<out>462</out>
															<pproTicksIn>0</pproTicksIn>
															<pproTicksOut>5689958399998</pproTicksOut>
															<alphatype>none</alphatype>
															<pixelaspectratio>square</pixelaspectratio>
															<anamorphic>FALSE</anamorphic>
															<file id="file-3">
																<name>(allthesugartx)_CbDjTWdFjh3_IG.mp4</name>
																<pathurl>file://localhost/Volumes/ATM%201/EYE%20CANDY/8%3a14%3a23/3_Raw%20Files/sports%20cookies/(allthesugartx)_CbDjTWdFjh3_IG.mp4</pathurl>
																<rate>
																	<timebase>30</timebase>
																	<ntsc>FALSE</ntsc>
																</rate>
																<duration>672</duration>
																<timecode>
																	<rate>
																		<timebase>30</timebase>
																		<ntsc>FALSE</ntsc>
																	</rate>
																	<string>00:00:00:00</string>
																	<frame>0</frame>
																	<displayformat>NDF</displayformat>
																</timecode>
																<media>
																	<video>
																		<samplecharacteristics>
																			<rate>
																				<timebase>30</timebase>
																				<ntsc>FALSE</ntsc>
																			</rate>
																			<width>720</width>
																			<height>1280</height>
																			<anamorphic>FALSE</anamorphic>
																			<pixelaspectratio>square</pixelaspectratio>
																			<fielddominance>none</fielddominance>
																		</samplecharacteristics>
																	</video>
																	<audio>
																		<samplecharacteristics>
																			<depth>16</depth>
																			<samplerate>44100</samplerate>
																		</samplecharacteristics>
																		<channelcount>2</channelcount>
																	</audio>
																</media>
															</file>
															<filter>
																<effect>
																	<name>Time Remap</name>
																	<effectid>timeremap</effectid>
																	<effectcategory>motion</effectcategory>
																	<effecttype>motion</effecttype>
																	<mediatype>video</mediatype>
																	<parameter authoringApp="PremierePro">
																		<parameterid>variablespeed</parameterid>
																		<name>variablespeed</name>
																		<valuemin>0</valuemin>
																		<valuemax>1</valuemax>
																		<value>0</value>
																	</parameter>
																	<parameter authoringApp="PremierePro">
																		<parameterid>speed</parameterid>
																		<name>speed</name>
																		<valuemin>-100000</valuemin>
																		<valuemax>100000</valuemax>
																		<value>144.995</value>
																	</parameter>
																	<parameter authoringApp="PremierePro">
																		<parameterid>reverse</parameterid>
																		<name>reverse</name>
																		<value>FALSE</value>
																	</parameter>
																	<parameter authoringApp="PremierePro">
																		<parameterid>frameblending</parameterid>
																		<name>frameblending</name>
																		<value>FALSE</value>
																	</parameter>
																	<parameter authoringApp="PremierePro">
																		<parameterid>graphdict</parameterid>
																		<name>graphdict</name>
																		<valuemin>0</valuemin>
																		<valuemax>669</valuemax>
																		<value>0</value>
																		<keyframe>
																			<when>0</when>
																			<value>0</value>
																			<speedvirtualkf>TRUE</speedvirtualkf>
																			<speedkfin>TRUE</speedkfin>
																		</keyframe>
																		<keyframe>
																			<when>462</when>
																			<value>669</value>
																			<speedvirtualkf>TRUE</speedvirtualkf>
																			<speedkfout>TRUE</speedkfout>
																		</keyframe>
																		<interpolation>
																			<name>FCPCurve</name>
																		</interpolation>
																	</parameter>
																</effect>
															</filter>
															<logginginfo>
																<description></description>
																<scene></scene>
																<shottake></shottake>
																<lognote></lognote>
																<good></good>
																<originalvideofilename></originalvideofilename>
																<originalaudiofilename></originalaudiofilename>
															</logginginfo>
															<colorinfo>
																<lut></lut>
																<lut1></lut1>
																<asc_sop></asc_sop>
																<asc_sat></asc_sat>
																<lut2></lut2>
															</colorinfo>
															<labels>
																<label2>Violet</label2>
															</labels>
														</clipitem>
														<clipitem id="clipitem-5">
															<masterclipid>masterclip-5</masterclipid>
															<name>(allthesugartx)_CeV_fcTlB4x_IG.mp4</name>
															<enabled>TRUE</enabled>
															<duration>371</duration>
															<rate>
																<timebase>30</timebase>
																<ntsc>TRUE</ntsc>
															</rate>
															<start>1291</start>
															<end>1662</end>
															<in>0</in>
															<out>371</out>
															<pproTicksIn>0</pproTicksIn>
															<pproTicksOut>3144472531200</pproTicksOut>
															<alphatype>none</alphatype>
															<pixelaspectratio>square</pixelaspectratio>
															<anamorphic>FALSE</anamorphic>
															<file id="file-4">
																<name>(allthesugartx)_CeV_fcTlB4x_IG.mp4</name>
																<pathurl>file://localhost/Volumes/ATM%201/EYE%20CANDY/8%3a14%3a23/3_Raw%20Files/sports%20cookies/(allthesugartx)_CeV_fcTlB4x_IG.mp4</pathurl>
																<rate>
																	<timebase>30</timebase>
																	<ntsc>FALSE</ntsc>
																</rate>
																<duration>372</duration>
																<timecode>
																	<rate>
																		<timebase>30</timebase>
																		<ntsc>FALSE</ntsc>
																	</rate>
																	<string>00:00:00:00</string>
																	<frame>0</frame>
																	<displayformat>NDF</displayformat>
																</timecode>
																<media>
																	<video>
																		<samplecharacteristics>
																			<rate>
																				<timebase>30</timebase>
																				<ntsc>FALSE</ntsc>
																			</rate>
																			<width>720</width>
																			<height>1280</height>
																			<anamorphic>FALSE</anamorphic>
																			<pixelaspectratio>square</pixelaspectratio>
																			<fielddominance>none</fielddominance>
																		</samplecharacteristics>
																	</video>
																	<audio>
																		<samplecharacteristics>
																			<depth>16</depth>
																			<samplerate>44100</samplerate>
																		</samplecharacteristics>
																		<channelcount>2</channelcount>
																	</audio>
																</media>
															</file>
															<logginginfo>
																<description></description>
																<scene></scene>
																<shottake></shottake>
																<lognote></lognote>
																<good></good>
																<originalvideofilename></originalvideofilename>
																<originalaudiofilename></originalaudiofilename>
															</logginginfo>
															<colorinfo>
																<lut></lut>
																<lut1></lut1>
																<asc_sop></asc_sop>
																<asc_sat></asc_sat>
																<lut2></lut2>
															</colorinfo>
															<labels>
																<label2>Violet</label2>
															</labels>
														</clipitem>
														<enabled>TRUE</enabled>
														<locked>FALSE</locked>
													</track>
													<track TL.SQTrackShy="0" TL.SQTrackExpandedHeight="25" TL.SQTrackExpanded="0" MZ.TrackTargeted="0">
														<clipitem id="clipitem-6">
															<masterclipid>masterclip-6</masterclipid>
															<name># Eyecandy Vertical Video Frame 4</name>
															<enabled>TRUE</enabled>
															<duration>5700</duration>
															<rate>
																<timebase>30</timebase>
																<ntsc>TRUE</ntsc>
															</rate>
															<start>0</start>
															<end>1662</end>
															<in>82</in>
															<out>1744</out>
															<pproTicksIn>695004710400</pproTicksIn>
															<pproTicksOut>14781563596800</pproTicksOut>
															<alphatype>straight</alphatype>
															<pixelaspectratio>square</pixelaspectratio>
															<anamorphic>FALSE</anamorphic>
															<file id="file-5">
																<name># Eyecandy Vertical Video Frame 4/# Eyecandy Vertical Video Frame 4.aegraphic</name>
																<pathurl>file://localhost/Volumes/ATM%201/EYE%20CANDY/8%3a14%3a23/4_Project%20Files/Motion%20Graphics%20Template%20Media/b13c644f-76b5-4292-babf-a96103efe14b/#%20Eyecandy%20Vertical%20Video%20Frame%204.aegraphic</pathurl>
																<rate>
																	<timebase>24</timebase>
																	<ntsc>TRUE</ntsc>
																</rate>
																<duration>4560</duration>
																<timecode>
																	<rate>
																		<timebase>24</timebase>
																		<ntsc>TRUE</ntsc>
																	</rate>
																	<string>00:00:00:00</string>
																	<frame>0</frame>
																	<displayformat>NDF</displayformat>
																</timecode>
																<media>
																	<video>
																		<samplecharacteristics>
																			<rate>
																				<timebase>24</timebase>
																				<ntsc>TRUE</ntsc>
																			</rate>
																			<width>1920</width>
																			<height>1080</height>
																			<anamorphic>FALSE</anamorphic>
																			<pixelaspectratio>square</pixelaspectratio>
																			<fielddominance>lower</fielddominance>
																		</samplecharacteristics>
																	</video>
																</media>
															</file>
															<logginginfo>
																<description></description>
																<scene></scene>
																<shottake></shottake>
																<lognote></lognote>
																<good></good>
																<originalvideofilename></originalvideofilename>
																<originalaudiofilename></originalaudiofilename>
															</logginginfo>
															<colorinfo>
																<lut></lut>
																<lut1></lut1>
																<asc_sop></asc_sop>
																<asc_sat></asc_sat>
																<lut2></lut2>
															</colorinfo>
															<labels>
																<label2>Teal</label2>
															</labels>
														</clipitem>
														<enabled>TRUE</enabled>
														<locked>FALSE</locked>
													</track>
													<track TL.SQTrackShy="0" TL.SQTrackExpandedHeight="25" TL.SQTrackExpanded="0" MZ.TrackTargeted="0">
														<enabled>TRUE</enabled>
														<locked>FALSE</locked>
													</track>
													<track TL.SQTrackShy="0" TL.SQTrackExpandedHeight="25" TL.SQTrackExpanded="0" MZ.TrackTargeted="0">
														<enabled>TRUE</enabled>
														<locked>FALSE</locked>
													</track>
													<track TL.SQTrackShy="0" TL.SQTrackExpandedHeight="25" TL.SQTrackExpanded="0" MZ.TrackTargeted="0">
														<enabled>TRUE</enabled>
														<locked>FALSE</locked>
													</track>
													<track TL.SQTrackShy="0" TL.SQTrackExpandedHeight="25" TL.SQTrackExpanded="0" MZ.TrackTargeted="0">
														<enabled>TRUE</enabled>
														<locked>FALSE</locked>
													</track>
													<track TL.SQTrackShy="0" TL.SQTrackExpandedHeight="25" TL.SQTrackExpanded="0" MZ.TrackTargeted="0">
														<enabled>TRUE</enabled>
														<locked>FALSE</locked>
													</track>
													<track TL.SQTrackShy="0" TL.SQTrackExpandedHeight="25" TL.SQTrackExpanded="0" MZ.TrackTargeted="0">
														<enabled>TRUE</enabled>
														<locked>FALSE</locked>
													</track>
													<track TL.SQTrackShy="0" TL.SQTrackExpandedHeight="25" TL.SQTrackExpanded="0" MZ.TrackTargeted="0">
														<enabled>TRUE</enabled>
														<locked>FALSE</locked>
													</track>
													<track TL.SQTrackShy="0" TL.SQTrackExpandedHeight="25" TL.SQTrackExpanded="0" MZ.TrackTargeted="0">
														<enabled>TRUE</enabled>
														<locked>FALSE</locked>
													</track>
												</video>
												<audio>
													<numOutputChannels>2</numOutputChannels>
													<format>
														<samplecharacteristics>
															<depth>16</depth>
															<samplerate>48000</samplerate>
														</samplecharacteristics>
													</format>
													<outputs>
														<group>
															<index>1</index>
															<numchannels>1</numchannels>
															<downmix>0</downmix>
															<channel>
																<index>1</index>
															</channel>
														</group>
														<group>
															<index>2</index>
															<numchannels>1</numchannels>
															<downmix>0</downmix>
															<channel>
																<index>2</index>
															</channel>
														</group>
													</outputs>
													<track TL.SQTrackAudioKeyframeStyle="0" TL.SQTrackShy="0" TL.SQTrackExpandedHeight="25" TL.SQTrackExpanded="0" MZ.TrackTargeted="1" PannerCurrentValue="0.5" PannerIsInverted="true" PannerStartKeyframe="-91445760000000000,0.5,0,0,0,0,0,0" PannerName="Balance" currentExplodedTrackIndex="0" totalExplodedTrackCount="2" premiereTrackType="Stereo">
														<clipitem id="clipitem-7" premiereChannelType="stereo">
															<masterclipid>masterclip-7</masterclipid>
															<name>ES_Welcome Party People - John Runefelt.mp3</name>
															<enabled>TRUE</enabled>
															<duration>5704</duration>
															<rate>
																<timebase>30</timebase>
																<ntsc>TRUE</ntsc>
															</rate>
															<start>0</start>
															<end>1662</end>
															<in>0</in>
															<out>1662</out>
															<pproTicksIn>0</pproTicksIn>
															<pproTicksOut>14086558886400</pproTicksOut>
															<file id="file-6">
																<name>ES_Welcome Party People - John Runefelt.mp3</name>
																<pathurl>file://localhost/Volumes/ATM%201/EYE%20CANDY/8%3a14%3a23/5_Assets/Music/ES_Welcome%20Party%20People%20-%20John%20Runefelt.mp3</pathurl>
																<rate>
																	<timebase>30</timebase>
																	<ntsc>TRUE</ntsc>
																</rate>
																<duration>5704</duration>
																<timecode>
																	<rate>
																		<timebase>30</timebase>
																		<ntsc>TRUE</ntsc>
																	</rate>
																	<string>00;00;00;00</string>
																	<frame>0</frame>
																	<displayformat>DF</displayformat>
																</timecode>
																<media>
																	<audio>
																		<samplecharacteristics>
																			<depth>16</depth>
																			<samplerate>48000</samplerate>
																		</samplecharacteristics>
																		<channelcount>2</channelcount>
																	</audio>
																</media>
															</file>
															<sourcetrack>
																<mediatype>audio</mediatype>
																<trackindex>1</trackindex>
															</sourcetrack>
															<link>
																<linkclipref>clipitem-7</linkclipref>
																<mediatype>audio</mediatype>
																<trackindex>1</trackindex>
																<clipindex>1</clipindex>
																<groupindex>1</groupindex>
															</link>
															<link>
																<linkclipref>clipitem-8</linkclipref>
																<mediatype>audio</mediatype>
																<trackindex>2</trackindex>
																<clipindex>1</clipindex>
																<groupindex>1</groupindex>
															</link>
															<logginginfo>
																<description></description>
																<scene></scene>
																<shottake></shottake>
																<lognote></lognote>
																<good></good>
																<originalvideofilename></originalvideofilename>
																<originalaudiofilename></originalaudiofilename>
															</logginginfo>
															<colorinfo>
																<lut></lut>
																<lut1></lut1>
																<asc_sop></asc_sop>
																<asc_sat></asc_sat>
																<lut2></lut2>
															</colorinfo>
															<labels>
																<label2>Caribbean</label2>
															</labels>
														</clipitem>
														<enabled>TRUE</enabled>
														<locked>FALSE</locked>
														<filter>
															<effect>
																<name>Audio Levels</name>
																<effectid>audiolevels</effectid>
																<effectcategory>audiolevels</effectcategory>
																<effecttype>audiolevels</effecttype>
																<mediatype>audio</mediatype>
																<parameter authoringApp="PremierePro">
																	<parameterid>level</parameterid>
																	<name>Level</name>
																	<valuemin>0</valuemin>
																	<valuemax>3.98109</valuemax>
																	<value>0.706272</value>
																</parameter>
															</effect>
														</filter>
														<outputchannelindex>1</outputchannelindex>
													</track>
													<track TL.SQTrackAudioKeyframeStyle="0" TL.SQTrackShy="0" TL.SQTrackExpandedHeight="25" TL.SQTrackExpanded="0" MZ.TrackTargeted="1" PannerCurrentValue="0.5" PannerIsInverted="true" PannerStartKeyframe="-91445760000000000,0.5,0,0,0,0,0,0" PannerName="Balance" currentExplodedTrackIndex="1" totalExplodedTrackCount="2" premiereTrackType="Stereo">
														<clipitem id="clipitem-8" premiereChannelType="stereo">
															<masterclipid>masterclip-7</masterclipid>
															<name>ES_Welcome Party People - John Runefelt.mp3</name>
															<enabled>TRUE</enabled>
															<duration>5704</duration>
															<rate>
																<timebase>30</timebase>
																<ntsc>TRUE</ntsc>
															</rate>
															<start>0</start>
															<end>1662</end>
															<in>0</in>
															<out>1662</out>
															<pproTicksIn>0</pproTicksIn>
															<pproTicksOut>14086558886400</pproTicksOut>
															<file id="file-6"/>
															<sourcetrack>
																<mediatype>audio</mediatype>
																<trackindex>2</trackindex>
															</sourcetrack>
															<link>
																<linkclipref>clipitem-7</linkclipref>
																<mediatype>audio</mediatype>
																<trackindex>1</trackindex>
																<clipindex>1</clipindex>
																<groupindex>1</groupindex>
															</link>
															<link>
																<linkclipref>clipitem-8</linkclipref>
																<mediatype>audio</mediatype>
																<trackindex>2</trackindex>
																<clipindex>1</clipindex>
																<groupindex>1</groupindex>
															</link>
															<logginginfo>
																<description></description>
																<scene></scene>
																<shottake></shottake>
																<lognote></lognote>
																<good></good>
																<originalvideofilename></originalvideofilename>
																<originalaudiofilename></originalaudiofilename>
															</logginginfo>
															<colorinfo>
																<lut></lut>
																<lut1></lut1>
																<asc_sop></asc_sop>
																<asc_sat></asc_sat>
																<lut2></lut2>
															</colorinfo>
															<labels>
																<label2>Caribbean</label2>
															</labels>
														</clipitem>
														<enabled>TRUE</enabled>
														<locked>FALSE</locked>
														<filter>
															<effect>
																<name>Audio Levels</name>
																<effectid>audiolevels</effectid>
																<effectcategory>audiolevels</effectcategory>
																<effecttype>audiolevels</effecttype>
																<mediatype>audio</mediatype>
																<parameter authoringApp="PremierePro">
																	<parameterid>level</parameterid>
																	<name>Level</name>
																	<valuemin>0</valuemin>
																	<valuemax>3.98109</valuemax>
																	<value>0.706272</value>
																</parameter>
															</effect>
														</filter>
														<outputchannelindex>2</outputchannelindex>
													</track>
													<track TL.SQTrackAudioKeyframeStyle="0" TL.SQTrackShy="0" TL.SQTrackExpandedHeight="25" TL.SQTrackExpanded="0" MZ.TrackTargeted="0" PannerCurrentValue="0.5" PannerIsInverted="true" PannerStartKeyframe="-91445760000000000,0.5,0,0,0,0,0,0" PannerName="Balance" currentExplodedTrackIndex="0" totalExplodedTrackCount="2" premiereTrackType="Stereo">
														<enabled>TRUE</enabled>
														<locked>FALSE</locked>
														<outputchannelindex>1</outputchannelindex>
													</track>
													<track TL.SQTrackAudioKeyframeStyle="0" TL.SQTrackShy="0" TL.SQTrackExpandedHeight="25" TL.SQTrackExpanded="0" MZ.TrackTargeted="0" PannerCurrentValue="0.5" PannerIsInverted="true" PannerStartKeyframe="-91445760000000000,0.5,0,0,0,0,0,0" PannerName="Balance" currentExplodedTrackIndex="1" totalExplodedTrackCount="2" premiereTrackType="Stereo">
														<enabled>TRUE</enabled>
														<locked>FALSE</locked>
														<outputchannelindex>2</outputchannelindex>
													</track>
													<track TL.SQTrackAudioKeyframeStyle="0" TL.SQTrackShy="0" TL.SQTrackExpandedHeight="25" TL.SQTrackExpanded="0" MZ.TrackTargeted="0" PannerCurrentValue="0.5" PannerIsInverted="true" PannerStartKeyframe="-91445760000000000,0.5,0,0,0,0,0,0" PannerName="Balance" currentExplodedTrackIndex="0" totalExplodedTrackCount="2" premiereTrackType="Stereo">
														<enabled>TRUE</enabled>
														<locked>FALSE</locked>
														<outputchannelindex>1</outputchannelindex>
													</track>
													<track TL.SQTrackAudioKeyframeStyle="0" TL.SQTrackShy="0" TL.SQTrackExpandedHeight="25" TL.SQTrackExpanded="0" MZ.TrackTargeted="0" PannerCurrentValue="0.5" PannerIsInverted="true" PannerStartKeyframe="-91445760000000000,0.5,0,0,0,0,0,0" PannerName="Balance" currentExplodedTrackIndex="1" totalExplodedTrackCount="2" premiereTrackType="Stereo">
														<enabled>TRUE</enabled>
														<locked>FALSE</locked>
														<outputchannelindex>2</outputchannelindex>
													</track>
													<track TL.SQTrackAudioKeyframeStyle="0" TL.SQTrackShy="0" TL.SQTrackExpandedHeight="25" TL.SQTrackExpanded="0" MZ.TrackTargeted="0" PannerCurrentValue="0.5" PannerIsInverted="true" PannerStartKeyframe="-91445760000000000,0.5,0,0,0,0,0,0" PannerName="Balance" currentExplodedTrackIndex="0" totalExplodedTrackCount="2" premiereTrackType="Stereo">
														<enabled>TRUE</enabled>
														<locked>FALSE</locked>
														<outputchannelindex>1</outputchannelindex>
													</track>
													<track TL.SQTrackAudioKeyframeStyle="0" TL.SQTrackShy="0" TL.SQTrackExpandedHeight="25" TL.SQTrackExpanded="0" MZ.TrackTargeted="0" PannerCurrentValue="0.5" PannerIsInverted="true" PannerStartKeyframe="-91445760000000000,0.5,0,0,0,0,0,0" PannerName="Balance" currentExplodedTrackIndex="1" totalExplodedTrackCount="2" premiereTrackType="Stereo">
														<enabled>TRUE</enabled>
														<locked>FALSE</locked>
														<outputchannelindex>2</outputchannelindex>
													</track>
													<track TL.SQTrackAudioKeyframeStyle="0" TL.SQTrackShy="0" TL.SQTrackExpandedHeight="25" TL.SQTrackExpanded="0" MZ.TrackTargeted="0" PannerCurrentValue="0.5" PannerIsInverted="true" PannerStartKeyframe="-91445760000000000,0.5,0,0,0,0,0,0" PannerName="Balance" currentExplodedTrackIndex="0" totalExplodedTrackCount="2" premiereTrackType="Stereo">
														<enabled>TRUE</enabled>
														<locked>FALSE</locked>
														<outputchannelindex>1</outputchannelindex>
													</track>
													<track TL.SQTrackAudioKeyframeStyle="0" TL.SQTrackShy="0" TL.SQTrackExpandedHeight="25" TL.SQTrackExpanded="0" MZ.TrackTargeted="0" PannerCurrentValue="0.5" PannerIsInverted="true" PannerStartKeyframe="-91445760000000000,0.5,0,0,0,0,0,0" PannerName="Balance" currentExplodedTrackIndex="1" totalExplodedTrackCount="2" premiereTrackType="Stereo">
														<enabled>TRUE</enabled>
														<locked>FALSE</locked>
														<outputchannelindex>2</outputchannelindex>
													</track>
													<track TL.SQTrackAudioKeyframeStyle="0" TL.SQTrackShy="0" TL.SQTrackExpandedHeight="25" TL.SQTrackExpanded="0" MZ.TrackTargeted="0" PannerCurrentValue="0.5" PannerIsInverted="true" PannerStartKeyframe="-91445760000000000,0.5,0,0,0,0,0,0" PannerName="Balance" currentExplodedTrackIndex="0" totalExplodedTrackCount="2" premiereTrackType="Stereo">
														<enabled>TRUE</enabled>
														<locked>FALSE</locked>
														<outputchannelindex>1</outputchannelindex>
													</track>
													<track TL.SQTrackAudioKeyframeStyle="0" TL.SQTrackShy="0" TL.SQTrackExpandedHeight="25" TL.SQTrackExpanded="0" MZ.TrackTargeted="0" PannerCurrentValue="0.5" PannerIsInverted="true" PannerStartKeyframe="-91445760000000000,0.5,0,0,0,0,0,0" PannerName="Balance" currentExplodedTrackIndex="1" totalExplodedTrackCount="2" premiereTrackType="Stereo">
														<enabled>TRUE</enabled>
														<locked>FALSE</locked>
														<outputchannelindex>2</outputchannelindex>
													</track>
													<track TL.SQTrackAudioKeyframeStyle="0" TL.SQTrackShy="0" TL.SQTrackExpandedHeight="25" TL.SQTrackExpanded="0" MZ.TrackTargeted="0" PannerCurrentValue="0.5" PannerIsInverted="true" PannerStartKeyframe="-91445760000000000,0.5,0,0,0,0,0,0" PannerName="Balance" currentExplodedTrackIndex="0" totalExplodedTrackCount="2" premiereTrackType="Stereo">
														<enabled>TRUE</enabled>
														<locked>FALSE</locked>
														<outputchannelindex>1</outputchannelindex>
													</track>
													<track TL.SQTrackAudioKeyframeStyle="0" TL.SQTrackShy="0" TL.SQTrackExpandedHeight="25" TL.SQTrackExpanded="0" MZ.TrackTargeted="0" PannerCurrentValue="0.5" PannerIsInverted="true" PannerStartKeyframe="-91445760000000000,0.5,0,0,0,0,0,0" PannerName="Balance" currentExplodedTrackIndex="1" totalExplodedTrackCount="2" premiereTrackType="Stereo">
														<enabled>TRUE</enabled>
														<locked>FALSE</locked>
														<outputchannelindex>2</outputchannelindex>
													</track>
													<track TL.SQTrackAudioKeyframeStyle="0" TL.SQTrackShy="0" TL.SQTrackExpandedHeight="25" TL.SQTrackExpanded="0" MZ.TrackTargeted="0" PannerCurrentValue="0.5" PannerIsInverted="true" PannerStartKeyframe="-91445760000000000,0.5,0,0,0,0,0,0" PannerName="Balance" currentExplodedTrackIndex="0" totalExplodedTrackCount="2" premiereTrackType="Stereo">
														<enabled>TRUE</enabled>
														<locked>FALSE</locked>
														<outputchannelindex>1</outputchannelindex>
													</track>
													<track TL.SQTrackAudioKeyframeStyle="0" TL.SQTrackShy="0" TL.SQTrackExpandedHeight="25" TL.SQTrackExpanded="0" MZ.TrackTargeted="0" PannerCurrentValue="0.5" PannerIsInverted="true" PannerStartKeyframe="-91445760000000000,0.5,0,0,0,0,0,0" PannerName="Balance" currentExplodedTrackIndex="1" totalExplodedTrackCount="2" premiereTrackType="Stereo">
														<enabled>TRUE</enabled>
														<locked>FALSE</locked>
														<outputchannelindex>2</outputchannelindex>
													</track>
													<track TL.SQTrackAudioKeyframeStyle="0" TL.SQTrackShy="0" TL.SQTrackExpandedHeight="25" TL.SQTrackExpanded="0" MZ.TrackTargeted="0" PannerCurrentValue="0.5" PannerIsInverted="true" PannerStartKeyframe="-91445760000000000,0.5,0,0,0,0,0,0" PannerName="Balance" currentExplodedTrackIndex="0" totalExplodedTrackCount="2" premiereTrackType="Stereo">
														<enabled>TRUE</enabled>
														<locked>FALSE</locked>
														<outputchannelindex>1</outputchannelindex>
													</track>
													<track TL.SQTrackAudioKeyframeStyle="0" TL.SQTrackShy="0" TL.SQTrackExpandedHeight="25" TL.SQTrackExpanded="0" MZ.TrackTargeted="0" PannerCurrentValue="0.5" PannerIsInverted="true" PannerStartKeyframe="-91445760000000000,0.5,0,0,0,0,0,0" PannerName="Balance" currentExplodedTrackIndex="1" totalExplodedTrackCount="2" premiereTrackType="Stereo">
														<enabled>TRUE</enabled>
														<locked>FALSE</locked>
														<outputchannelindex>2</outputchannelindex>
													</track>
													<track TL.SQTrackAudioKeyframeStyle="0" TL.SQTrackShy="0" TL.SQTrackExpandedHeight="25" TL.SQTrackExpanded="0" MZ.TrackTargeted="0" PannerCurrentValue="0.5" PannerIsInverted="true" PannerStartKeyframe="-91445760000000000,0.5,0,0,0,0,0,0" PannerName="Balance" currentExplodedTrackIndex="0" totalExplodedTrackCount="2" premiereTrackType="Stereo">
														<enabled>TRUE</enabled>
														<locked>FALSE</locked>
														<outputchannelindex>1</outputchannelindex>
													</track>
													<track TL.SQTrackAudioKeyframeStyle="0" TL.SQTrackShy="0" TL.SQTrackExpandedHeight="25" TL.SQTrackExpanded="0" MZ.TrackTargeted="0" PannerCurrentValue="0.5" PannerIsInverted="true" PannerStartKeyframe="-91445760000000000,0.5,0,0,0,0,0,0" PannerName="Balance" currentExplodedTrackIndex="1" totalExplodedTrackCount="2" premiereTrackType="Stereo">
														<enabled>TRUE</enabled>
														<locked>FALSE</locked>
														<outputchannelindex>2</outputchannelindex>
													</track>
												</audio>
											</media>
											<timecode>
												<rate>
													<timebase>30</timebase>
													<ntsc>TRUE</ntsc>
												</rate>
												<string>00;00;00;00</string>
												<frame>0</frame>
												<displayformat>DF</displayformat>
											</timecode>
											<logginginfo>
												<description></description>
												<scene></scene>
												<shottake></shottake>
												<lognote></lognote>
												<good></good>
												<originalvideofilename></originalvideofilename>
												<originalaudiofilename></originalaudiofilename>
											</logginginfo>
										</sequence>
										<link>
											<linkclipref>clipitem-1</linkclipref>
											<mediatype>video</mediatype>
											<trackindex>1</trackindex>
											<clipindex>1</clipindex>
										</link>
										<link>
											<linkclipref>clipitem-44</linkclipref>
											<mediatype>audio</mediatype>
											<trackindex>1</trackindex>
											<clipindex>1</clipindex>
											<groupindex>1</groupindex>
										</link>
										<link>
											<linkclipref>clipitem-46</linkclipref>
											<mediatype>audio</mediatype>
											<trackindex>2</trackindex>
											<clipindex>1</clipindex>
											<groupindex>1</groupindex>
										</link>
										<labels>
											<label2>Forest</label2>
										</labels>
									</clipitem>
									<clipitem id="clipitem-9">
										<masterclipid>masterclip-8</masterclipid>
										<name>Overwhelmingly Orange_2</name>
										<enabled>TRUE</enabled>
										<duration>5700</duration>
										<rate>
											<timebase>30</timebase>
											<ntsc>TRUE</ntsc>
										</rate>
										<start>1778</start>
										<end>5060</end>
										<in>0</in>
										<out>3282</out>
										<pproTicksIn>0</pproTicksIn>
										<pproTicksOut>27817139750400</pproTicksOut>
										<sequence id="sequence-3" TL.SQAudioVisibleBase="0" TL.SQVideoVisibleBase="0" TL.SQVisibleBaseTime="0" TL.SQAVDividerPosition="0.5" TL.SQHideShyTracks="0" TL.SQHeaderWidth="236" TL.SQDataTrackViewControlState="0" Monitor.ProgramZoomOut="27817139750400" Monitor.ProgramZoomIn="0" TL.SQTimePerPixel="0.14236444444444024" AM.TrackVScrollPosition="0" AM.TrackScrollPosition="0" MZ.EditLine="23435219808000" MZ.Sequence.PreviewFrameSizeHeight="1080" MZ.Sequence.PreviewFrameSizeWidth="1920" MZ.Sequence.AudioTimeDisplayFormat="200" MZ.Sequence.PreviewRenderingClassID="1061109567" MZ.Sequence.PreviewRenderingPresetCodec="1634755443" MZ.Sequence.PreviewRenderingPresetPath="EncoderPresets/SequencePreview/35d109db-457b-43c1-9452-9cb7be9f121c/QuickTime.epr" MZ.Sequence.PreviewUseMaxRenderQuality="false" MZ.Sequence.PreviewUseMaxBitDepth="false" MZ.Sequence.EditingModeGUID="35d109db-457b-43c1-9452-9cb7be9f121c" MZ.Sequence.VideoTimeDisplayFormat="102" MZ.WorkOutPoint="1262874412800" MZ.WorkInPoint="0">
											<duration>3282</duration>
											<rate>
												<timebase>30</timebase>
												<ntsc>TRUE</ntsc>
											</rate>
											<name>FND_Overwhelmingly Orange_2</name>
											<media>
												<video>
													<format>
														<samplecharacteristics>
															<rate>
																<timebase>30</timebase>
																<ntsc>TRUE</ntsc>
															</rate>
															<codec>
																<name>Apple ProRes 422</name>
																<appspecificdata>
																	<appname>Final Cut Pro</appname>
																	<appmanufacturer>Apple Inc.</appmanufacturer>
																	<appversion>7.0</appversion>
																	<data>
																		<qtcodec>
																			<codecname>Apple ProRes 422</codecname>
																			<codectypename>Apple ProRes 422</codectypename>
																			<codectypecode>apcn</codectypecode>
																			<codecvendorcode>appl</codecvendorcode>
																			<spatialquality>1024</spatialquality>
																			<temporalquality>0</temporalquality>
																			<keyframerate>0</keyframerate>
																			<datarate>0</datarate>
																		</qtcodec>
																	</data>
																</appspecificdata>
															</codec>
															<width>1920</width>
															<height>1080</height>
															<anamorphic>FALSE</anamorphic>
															<pixelaspectratio>square</pixelaspectratio>
															<fielddominance>none</fielddominance>
															<colordepth>24</colordepth>
														</samplecharacteristics>
													</format>
													<track TL.SQTrackShy="0" TL.SQTrackExpandedHeight="25" TL.SQTrackExpanded="0" MZ.TrackTargeted="1">
														<clipitem id="clipitem-10">
															<masterclipid>masterclip-9</masterclipid>
															<name>(join_jules)_CRrb6ReDSMH_IG.mp4</name>
															<enabled>TRUE</enabled>
															<duration>716</duration>
															<rate>
																<timebase>30</timebase>
																<ntsc>TRUE</ntsc>
															</rate>
															<start>0</start>
															<end>678</end>
															<in>38</in>
															<out>716</out>
															<pproTicksIn>322075353600</pproTicksIn>
															<pproTicksOut>6068577715200</pproTicksOut>
															<alphatype>none</alphatype>
															<pixelaspectratio>square</pixelaspectratio>
															<anamorphic>FALSE</anamorphic>
															<file id="file-7">
																<name>(join_jules)_CRrb6ReDSMH_IG.mp4</name>
																<pathurl>file://localhost/Volumes/ATM%201/EYE%20CANDY/8%3a14%3a23/3_Raw%20Files/orange/(join_jules)_CRrb6ReDSMH_IG.mp4</pathurl>
																<rate>
																	<timebase>30</timebase>
																	<ntsc>FALSE</ntsc>
																</rate>
																<duration>717</duration>
																<timecode>
																	<rate>
																		<timebase>30</timebase>
																		<ntsc>FALSE</ntsc>
																	</rate>
																	<string>00:00:00:00</string>
																	<frame>0</frame>
																	<displayformat>NDF</displayformat>
																</timecode>
																<media>
																	<video>
																		<samplecharacteristics>
																			<rate>
																				<timebase>30</timebase>
																				<ntsc>FALSE</ntsc>
																			</rate>
																			<width>720</width>
																			<height>1280</height>
																			<anamorphic>FALSE</anamorphic>
																			<pixelaspectratio>square</pixelaspectratio>
																			<fielddominance>none</fielddominance>
																		</samplecharacteristics>
																	</video>
																	<audio>
																		<samplecharacteristics>
																			<depth>16</depth>
																			<samplerate>44100</samplerate>
																		</samplecharacteristics>
																		<channelcount>2</channelcount>
																	</audio>
																</media>
															</file>
															<logginginfo>
																<description></description>
																<scene></scene>
																<shottake></shottake>
																<lognote></lognote>
																<good></good>
																<originalvideofilename></originalvideofilename>
																<originalaudiofilename></originalaudiofilename>
															</logginginfo>
															<colorinfo>
																<lut></lut>
																<lut1></lut1>
																<asc_sop></asc_sop>
																<asc_sat></asc_sat>
																<lut2></lut2>
															</colorinfo>
															<labels>
																<label2>Violet</label2>
															</labels>
														</clipitem>
														<clipitem id="clipitem-11">
															<masterclipid>masterclip-10</masterclipid>
															<name>(sweet_potatou)_CdSE9FXAYje_IG.mp4</name>
															<enabled>TRUE</enabled>
															<duration>789</duration>
															<rate>
																<timebase>30</timebase>
																<ntsc>TRUE</ntsc>
															</rate>
															<start>678</start>
															<end>1382</end>
															<in>85</in>
															<out>789</out>
															<pproTicksIn>720431712000</pproTicksIn>
															<pproTicksOut>6687301420800</pproTicksOut>
															<alphatype>none</alphatype>
															<pixelaspectratio>square</pixelaspectratio>
															<anamorphic>FALSE</anamorphic>
															<file id="file-8">
																<name>(sweet_potatou)_CdSE9FXAYje_IG.mp4</name>
																<pathurl>file://localhost/Volumes/ATM%201/EYE%20CANDY/8%3a14%3a23/3_Raw%20Files/orange/(sweet_potatou)_CdSE9FXAYje_IG.mp4</pathurl>
																<rate>
																	<timebase>30</timebase>
																	<ntsc>FALSE</ntsc>
																</rate>
																<duration>790</duration>
																<timecode>
																	<rate>
																		<timebase>30</timebase>
																		<ntsc>FALSE</ntsc>
																	</rate>
																	<string>00:00:00:00</string>
																	<frame>0</frame>
																	<displayformat>NDF</displayformat>
																</timecode>
																<media>
																	<video>
																		<samplecharacteristics>
																			<rate>
																				<timebase>30</timebase>
																				<ntsc>FALSE</ntsc>
																			</rate>
																			<width>720</width>
																			<height>1280</height>
																			<anamorphic>FALSE</anamorphic>
																			<pixelaspectratio>square</pixelaspectratio>
																			<fielddominance>none</fielddominance>
																		</samplecharacteristics>
																	</video>
																	<audio>
																		<samplecharacteristics>
																			<depth>16</depth>
																			<samplerate>44100</samplerate>
																		</samplecharacteristics>
																		<channelcount>2</channelcount>
																	</audio>
																</media>
															</file>
															<logginginfo>
																<description></description>
																<scene></scene>
																<shottake></shottake>
																<lognote></lognote>
																<good></good>
																<originalvideofilename></originalvideofilename>
																<originalaudiofilename></originalaudiofilename>
															</logginginfo>
															<colorinfo>
																<lut></lut>
																<lut1></lut1>
																<asc_sop></asc_sop>
																<asc_sat></asc_sat>
																<lut2></lut2>
															</colorinfo>
															<labels>
																<label2>Violet</label2>
															</labels>
														</clipitem>
														<clipitem id="clipitem-12">
															<masterclipid>masterclip-11</masterclipid>
															<name>(viviannecafe)_6931904249563499777_TT.mp4</name>
															<enabled>TRUE</enabled>
															<duration>1061</duration>
															<rate>
																<timebase>30</timebase>
																<ntsc>TRUE</ntsc>
															</rate>
															<start>1382</start>
															<end>1479</end>
															<in>61</in>
															<out>158</out>
															<pproTicksIn>517015699200</pproTicksIn>
															<pproTicksOut>1339155417600</pproTicksOut>
															<alphatype>none</alphatype>
															<pixelaspectratio>square</pixelaspectratio>
															<anamorphic>FALSE</anamorphic>
															<file id="file-9">
																<name>(viviannecafe)_6931904249563499777_TT.mp4</name>
																<pathurl>file://localhost/Volumes/ATM%201/EYE%20CANDY/8%3a14%3a23/3_Raw%20Files/orange/(viviannecafe)_6931904249563499777_TT.mp4</pathurl>
																<rate>
																	<timebase>30</timebase>
																	<ntsc>FALSE</ntsc>
																</rate>
																<duration>1063</duration>
																<timecode>
																	<rate>
																		<timebase>30</timebase>
																		<ntsc>FALSE</ntsc>
																	</rate>
																	<string>00:00:00:00</string>
																	<frame>0</frame>
																	<displayformat>NDF</displayformat>
																</timecode>
																<media>
																	<video>
																		<samplecharacteristics>
																			<rate>
																				<timebase>30</timebase>
																				<ntsc>FALSE</ntsc>
																			</rate>
																			<width>576</width>
																			<height>1024</height>
																			<anamorphic>FALSE</anamorphic>
																			<pixelaspectratio>square</pixelaspectratio>
																			<fielddominance>none</fielddominance>
																		</samplecharacteristics>
																	</video>
																	<audio>
																		<samplecharacteristics>
																			<depth>16</depth>
																			<samplerate>44100</samplerate>
																		</samplecharacteristics>
																		<channelcount>2</channelcount>
																	</audio>
																</media>
															</file>
															<logginginfo>
																<description></description>
																<scene></scene>
																<shottake></shottake>
																<lognote></lognote>
																<good></good>
																<originalvideofilename></originalvideofilename>
																<originalaudiofilename></originalaudiofilename>
															</logginginfo>
															<colorinfo>
																<lut></lut>
																<lut1></lut1>
																<asc_sop></asc_sop>
																<asc_sat></asc_sat>
																<lut2></lut2>
															</colorinfo>
															<labels>
																<label2>Violet</label2>
															</labels>
														</clipitem>
														<clipitem id="clipitem-13">
															<masterclipid>masterclip-11</masterclipid>
															<name>(viviannecafe)_6931904249563499777_TT.mp4</name>
															<enabled>TRUE</enabled>
															<duration>1061</duration>
															<rate>
																<timebase>30</timebase>
																<ntsc>TRUE</ntsc>
															</rate>
															<start>1479</start>
															<end>1623</end>
															<in>248</in>
															<out>392</out>
															<pproTicksIn>2101965465600</pproTicksIn>
															<pproTicksOut>3322461542400</pproTicksOut>
															<alphatype>none</alphatype>
															<file id="file-9"/>
															<logginginfo>
																<description></description>
																<scene></scene>
																<shottake></shottake>
																<lognote></lognote>
																<good></good>
																<originalvideofilename></originalvideofilename>
																<originalaudiofilename></originalaudiofilename>
															</logginginfo>
															<colorinfo>
																<lut></lut>
																<lut1></lut1>
																<asc_sop></asc_sop>
																<asc_sat></asc_sat>
																<lut2></lut2>
															</colorinfo>
															<labels>
																<label2>Violet</label2>
															</labels>
														</clipitem>
														<clipitem id="clipitem-14">
															<masterclipid>masterclip-11</masterclipid>
															<name>(viviannecafe)_6931904249563499777_TT.mp4</name>
															<enabled>TRUE</enabled>
															<duration>1061</duration>
															<rate>
																<timebase>30</timebase>
																<ntsc>TRUE</ntsc>
															</rate>
															<start>1623</start>
															<end>1883</end>
															<in>454</in>
															<out>714</out>
															<pproTicksIn>3847952908800</pproTicksIn>
															<pproTicksOut>6051626380800</pproTicksOut>
															<alphatype>none</alphatype>
															<file id="file-9"/>
															<logginginfo>
																<description></description>
																<scene></scene>
																<shottake></shottake>
																<lognote></lognote>
																<good></good>
																<originalvideofilename></originalvideofilename>
																<originalaudiofilename></originalaudiofilename>
															</logginginfo>
															<colorinfo>
																<lut></lut>
																<lut1></lut1>
																<asc_sop></asc_sop>
																<asc_sat></asc_sat>
																<lut2></lut2>
															</colorinfo>
															<labels>
																<label2>Violet</label2>
															</labels>
														</clipitem>
														<clipitem id="clipitem-15">
															<masterclipid>masterclip-11</masterclipid>
															<name>(viviannecafe)_6931904249563499777_TT.mp4</name>
															<enabled>TRUE</enabled>
															<duration>1061</duration>
															<rate>
																<timebase>30</timebase>
																<ntsc>TRUE</ntsc>
															</rate>
															<start>1883</start>
															<end>2043</end>
															<in>889</in>
															<out>1049</out>
															<pproTicksIn>7534868140800</pproTicksIn>
															<pproTicksOut>8890974892800</pproTicksOut>
															<alphatype>none</alphatype>
															<file id="file-9"/>
															<logginginfo>
																<description></description>
																<scene></scene>
																<shottake></shottake>
																<lognote></lognote>
																<good></good>
																<originalvideofilename></originalvideofilename>
																<originalaudiofilename></originalaudiofilename>
															</logginginfo>
															<colorinfo>
																<lut></lut>
																<lut1></lut1>
																<asc_sop></asc_sop>
																<asc_sat></asc_sat>
																<lut2></lut2>
															</colorinfo>
															<labels>
																<label2>Violet</label2>
															</labels>
														</clipitem>
														<clipitem id="clipitem-16">
															<masterclipid>masterclip-12</masterclipid>
															<name>(tashaliana89)_7043844558660177158_TT.mp4</name>
															<enabled>TRUE</enabled>
															<duration>1696</duration>
															<rate>
																<timebase>30</timebase>
																<ntsc>TRUE</ntsc>
															</rate>
															<start>2043</start>
															<end>2170</end>
															<in>182</in>
															<out>309</out>
															<pproTicksIn>1542571430400</pproTicksIn>
															<pproTicksOut>2618981164800</pproTicksOut>
															<alphatype>none</alphatype>
															<pixelaspectratio>square</pixelaspectratio>
															<anamorphic>FALSE</anamorphic>
															<file id="file-10">
																<name>(tashaliana89)_7043844558660177158_TT.mp4</name>
																<pathurl>file://localhost/Volumes/ATM%201/EYE%20CANDY/8%3a14%3a23/3_Raw%20Files/orange/(tashaliana89)_7043844558660177158_TT.mp4</pathurl>
																<rate>
																	<timebase>30</timebase>
																	<ntsc>FALSE</ntsc>
																</rate>
																<duration>1698</duration>
																<timecode>
																	<rate>
																		<timebase>30</timebase>
																		<ntsc>FALSE</ntsc>
																	</rate>
																	<string>00:00:00:00</string>
																	<frame>0</frame>
																	<displayformat>NDF</displayformat>
																</timecode>
																<media>
																	<video>
																		<samplecharacteristics>
																			<rate>
																				<timebase>30</timebase>
																				<ntsc>FALSE</ntsc>
																			</rate>
																			<width>576</width>
																			<height>1024</height>
																			<anamorphic>FALSE</anamorphic>
																			<pixelaspectratio>square</pixelaspectratio>
																			<fielddominance>none</fielddominance>
																		</samplecharacteristics>
																	</video>
																	<audio>
																		<samplecharacteristics>
																			<depth>16</depth>
																			<samplerate>44100</samplerate>
																		</samplecharacteristics>
																		<channelcount>2</channelcount>
																	</audio>
																</media>
															</file>
															<logginginfo>
																<description></description>
																<scene></scene>
																<shottake></shottake>
																<lognote></lognote>
																<good></good>
																<originalvideofilename></originalvideofilename>
																<originalaudiofilename></originalaudiofilename>
															</logginginfo>
															<colorinfo>
																<lut></lut>
																<lut1></lut1>
																<asc_sop></asc_sop>
																<asc_sat></asc_sat>
																<lut2></lut2>
															</colorinfo>
															<labels>
																<label2>Violet</label2>
															</labels>
														</clipitem>
														<clipitem id="clipitem-17">
															<masterclipid>masterclip-12</masterclipid>
															<name>(tashaliana89)_7043844558660177158_TT.mp4</name>
															<enabled>TRUE</enabled>
															<duration>1696</duration>
															<rate>
																<timebase>30</timebase>
																<ntsc>TRUE</ntsc>
															</rate>
															<start>2170</start>
															<end>2192</end>
															<in>372</in>
															<out>394</out>
															<pproTicksIn>3152948198400</pproTicksIn>
															<pproTicksOut>3339412876800</pproTicksOut>
															<alphatype>none</alphatype>
															<file id="file-10"/>
															<logginginfo>
																<description></description>
																<scene></scene>
																<shottake></shottake>
																<lognote></lognote>
																<good></good>
																<originalvideofilename></originalvideofilename>
																<originalaudiofilename></originalaudiofilename>
															</logginginfo>
															<colorinfo>
																<lut></lut>
																<lut1></lut1>
																<asc_sop></asc_sop>
																<asc_sat></asc_sat>
																<lut2></lut2>
															</colorinfo>
															<labels>
																<label2>Violet</label2>
															</labels>
														</clipitem>
														<clipitem id="clipitem-18">
															<masterclipid>masterclip-12</masterclipid>
															<name>(tashaliana89)_7043844558660177158_TT.mp4</name>
															<enabled>TRUE</enabled>
															<duration>1696</duration>
															<rate>
																<timebase>30</timebase>
																<ntsc>TRUE</ntsc>
															</rate>
															<start>2192</start>
															<end>2295</end>
															<in>496</in>
															<out>599</out>
															<pproTicksIn>4203930931200</pproTicksIn>
															<pproTicksOut>5076924652800</pproTicksOut>
															<alphatype>none</alphatype>
															<file id="file-10"/>
															<logginginfo>
																<description></description>
																<scene></scene>
																<shottake></shottake>
																<lognote></lognote>
																<good></good>
																<originalvideofilename></originalvideofilename>
																<originalaudiofilename></originalaudiofilename>
															</logginginfo>
															<colorinfo>
																<lut></lut>
																<lut1></lut1>
																<asc_sop></asc_sop>
																<asc_sat></asc_sat>
																<lut2></lut2>
															</colorinfo>
															<labels>
																<label2>Violet</label2>
															</labels>
														</clipitem>
														<clipitem id="clipitem-19">
															<masterclipid>masterclip-12</masterclipid>
															<name>(tashaliana89)_7043844558660177158_TT.mp4</name>
															<enabled>TRUE</enabled>
															<duration>1696</duration>
															<rate>
																<timebase>30</timebase>
																<ntsc>TRUE</ntsc>
															</rate>
															<start>2295</start>
															<end>2442</end>
															<in>719</in>
															<out>866</out>
															<pproTicksIn>6094004716800</pproTicksIn>
															<pproTicksOut>7339927795200</pproTicksOut>
															<alphatype>none</alphatype>
															<file id="file-10"/>
															<logginginfo>
																<description></description>
																<scene></scene>
																<shottake></shottake>
																<lognote></lognote>
																<good></good>
																<originalvideofilename></originalvideofilename>
																<originalaudiofilename></originalaudiofilename>
															</logginginfo>
															<colorinfo>
																<lut></lut>
																<lut1></lut1>
																<asc_sop></asc_sop>
																<asc_sat></asc_sat>
																<lut2></lut2>
															</colorinfo>
															<labels>
																<label2>Violet</label2>
															</labels>
														</clipitem>
														<clipitem id="clipitem-20">
															<masterclipid>masterclip-12</masterclipid>
															<name>(tashaliana89)_7043844558660177158_TT.mp4</name>
															<enabled>TRUE</enabled>
															<duration>1696</duration>
															<rate>
																<timebase>30</timebase>
																<ntsc>TRUE</ntsc>
															</rate>
															<start>2442</start>
															<end>2616</end>
															<in>0</in>
															<out>174</out>
															<pproTicksIn>0</pproTicksIn>
															<pproTicksOut>1474766092800</pproTicksOut>
															<alphatype>none</alphatype>
															<file id="file-10"/>
															<logginginfo>
																<description></description>
																<scene></scene>
																<shottake></shottake>
																<lognote></lognote>
																<good></good>
																<originalvideofilename></originalvideofilename>
																<originalaudiofilename></originalaudiofilename>
															</logginginfo>
															<colorinfo>
																<lut></lut>
																<lut1></lut1>
																<asc_sop></asc_sop>
																<asc_sat></asc_sat>
																<lut2></lut2>
															</colorinfo>
															<labels>
																<label2>Violet</label2>
															</labels>
														</clipitem>
														<clipitem id="clipitem-21">
															<masterclipid>masterclip-13</masterclipid>
															<name>(allyoucansweet)_7075755185724820779_TT.mp4</name>
															<enabled>TRUE</enabled>
															<duration>718</duration>
															<rate>
																<timebase>30</timebase>
																<ntsc>TRUE</ntsc>
															</rate>
															<start>2616</start>
															<end>3282</end>
															<in>0</in>
															<out>666</out>
															<pproTicksIn>0</pproTicksIn>
															<pproTicksOut>5644794355200</pproTicksOut>
															<alphatype>none</alphatype>
															<pixelaspectratio>square</pixelaspectratio>
															<anamorphic>FALSE</anamorphic>
															<file id="file-11">
																<name>(allyoucansweet)_7075755185724820779_TT.mp4</name>
																<pathurl>file://localhost/Volumes/ATM%201/EYE%20CANDY/8%3a14%3a23/3_Raw%20Files/orange/(allyoucansweet)_7075755185724820779_TT.mp4</pathurl>
																<rate>
																	<timebase>30</timebase>
																	<ntsc>FALSE</ntsc>
																</rate>
																<duration>719</duration>
																<timecode>
																	<rate>
																		<timebase>30</timebase>
																		<ntsc>FALSE</ntsc>
																	</rate>
																	<string>00:00:00:00</string>
																	<frame>0</frame>
																	<displayformat>NDF</displayformat>
																</timecode>
																<media>
																	<video>
																		<samplecharacteristics>
																			<rate>
																				<timebase>30</timebase>
																				<ntsc>FALSE</ntsc>
																			</rate>
																			<width>576</width>
																			<height>1024</height>
																			<anamorphic>FALSE</anamorphic>
																			<pixelaspectratio>square</pixelaspectratio>
																			<fielddominance>none</fielddominance>
																		</samplecharacteristics>
																	</video>
																	<audio>
																		<samplecharacteristics>
																			<depth>16</depth>
																			<samplerate>44100</samplerate>
																		</samplecharacteristics>
																		<channelcount>2</channelcount>
																	</audio>
																</media>
															</file>
															<logginginfo>
																<description></description>
																<scene></scene>
																<shottake></shottake>
																<lognote></lognote>
																<good></good>
																<originalvideofilename></originalvideofilename>
																<originalaudiofilename></originalaudiofilename>
															</logginginfo>
															<colorinfo>
																<lut></lut>
																<lut1></lut1>
																<asc_sop></asc_sop>
																<asc_sat></asc_sat>
																<lut2></lut2>
															</colorinfo>
															<labels>
																<label2>Violet</label2>
															</labels>
														</clipitem>
														<enabled>TRUE</enabled>
														<locked>FALSE</locked>
													</track>
													<track TL.SQTrackShy="0" TL.SQTrackExpandedHeight="25" TL.SQTrackExpanded="0" MZ.TrackTargeted="0">
														<clipitem id="clipitem-22">
															<masterclipid>masterclip-14</masterclipid>
															<name>Eyecandy Vertical Video Frame 1</name>
															<enabled>TRUE</enabled>
															<duration>5700</duration>
															<rate>
																<timebase>30</timebase>
																<ntsc>TRUE</ntsc>
															</rate>
															<start>0</start>
															<end>678</end>
															<in>209</in>
															<out>887</out>
															<pproTicksIn>1771414444800</pproTicksIn>
															<pproTicksOut>7517916806400</pproTicksOut>
															<alphatype>straight</alphatype>
															<pixelaspectratio>square</pixelaspectratio>
															<anamorphic>FALSE</anamorphic>
															<file id="file-12">
																<name>Eyecandy Vertical Video Frame 1/Eyecandy Vertical Video Frame 1.aegraphic</name>
																<pathurl>file://localhost/Volumes/ATM%201/EYE%20CANDY/8%3a14%3a23/4_Project%20Files/Motion%20Graphics%20Template%20Media/72273a02-8198-4cbb-91db-e1c317cc4b82/Eyecandy%20Vertical%20Video%20Frame%201.aegraphic</pathurl>
																<rate>
																	<timebase>24</timebase>
																	<ntsc>TRUE</ntsc>
																</rate>
																<duration>4560</duration>
																<timecode>
																	<rate>
																		<timebase>24</timebase>
																		<ntsc>TRUE</ntsc>
																	</rate>
																	<string>00:00:00:00</string>
																	<frame>0</frame>
																	<displayformat>NDF</displayformat>
																</timecode>
																<media>
																	<video>
																		<samplecharacteristics>
																			<rate>
																				<timebase>24</timebase>
																				<ntsc>TRUE</ntsc>
																			</rate>
																			<width>1920</width>
																			<height>1080</height>
																			<anamorphic>FALSE</anamorphic>
																			<pixelaspectratio>square</pixelaspectratio>
																			<fielddominance>lower</fielddominance>
																		</samplecharacteristics>
																	</video>
																</media>
															</file>
															<logginginfo>
																<description></description>
																<scene></scene>
																<shottake></shottake>
																<lognote></lognote>
																<good></good>
																<originalvideofilename></originalvideofilename>
																<originalaudiofilename></originalaudiofilename>
															</logginginfo>
															<colorinfo>
																<lut></lut>
																<lut1></lut1>
																<asc_sop></asc_sop>
																<asc_sat></asc_sat>
																<lut2></lut2>
															</colorinfo>
															<labels>
																<label2>Teal</label2>
															</labels>
														</clipitem>
														<clipitem id="clipitem-23">
															<masterclipid>masterclip-14</masterclipid>
															<name>Eyecandy Vertical Video Frame 1</name>
															<enabled>TRUE</enabled>
															<duration>5700</duration>
															<rate>
																<timebase>30</timebase>
																<ntsc>TRUE</ntsc>
															</rate>
															<start>678</start>
															<end>1382</end>
															<in>887</in>
															<out>1591</out>
															<pproTicksIn>7517916806400</pproTicksIn>
															<pproTicksOut>13484786515200</pproTicksOut>
															<alphatype>straight</alphatype>
															<file id="file-12"/>
															<logginginfo>
																<description></description>
																<scene></scene>
																<shottake></shottake>
																<lognote></lognote>
																<good></good>
																<originalvideofilename></originalvideofilename>
																<originalaudiofilename></originalaudiofilename>
															</logginginfo>
															<colorinfo>
																<lut></lut>
																<lut1></lut1>
																<asc_sop></asc_sop>
																<asc_sat></asc_sat>
																<lut2></lut2>
															</colorinfo>
															<labels>
																<label2>Teal</label2>
															</labels>
														</clipitem>
														<clipitem id="clipitem-24">
															<masterclipid>masterclip-14</masterclipid>
															<name>Eyecandy Vertical Video Frame 1</name>
															<enabled>TRUE</enabled>
															<duration>5700</duration>
															<rate>
																<timebase>30</timebase>
																<ntsc>TRUE</ntsc>
															</rate>
															<start>1382</start>
															<end>2043</end>
															<in>1591</in>
															<out>2252</out>
															<pproTicksIn>13484786515200</pproTicksIn>
															<pproTicksOut>19087202534400</pproTicksOut>
															<alphatype>straight</alphatype>
															<file id="file-12"/>
															<logginginfo>
																<description></description>
																<scene></scene>
																<shottake></shottake>
																<lognote></lognote>
																<good></good>
																<originalvideofilename></originalvideofilename>
																<originalaudiofilename></originalaudiofilename>
															</logginginfo>
															<colorinfo>
																<lut></lut>
																<lut1></lut1>
																<asc_sop></asc_sop>
																<asc_sat></asc_sat>
																<lut2></lut2>
															</colorinfo>
															<labels>
																<label2>Teal</label2>
															</labels>
														</clipitem>
														<clipitem id="clipitem-25">
															<masterclipid>masterclip-14</masterclipid>
															<name>Eyecandy Vertical Video Frame 1</name>
															<enabled>TRUE</enabled>
															<duration>5700</duration>
															<rate>
																<timebase>30</timebase>
																<ntsc>TRUE</ntsc>
															</rate>
															<start>2043</start>
															<end>2616</end>
															<in>2252</in>
															<out>2825</out>
															<pproTicksIn>19087202534400</pproTicksIn>
															<pproTicksOut>23943759840000</pproTicksOut>
															<alphatype>straight</alphatype>
															<file id="file-12"/>
															<logginginfo>
																<description></description>
																<scene></scene>
																<shottake></shottake>
																<lognote></lognote>
																<good></good>
																<originalvideofilename></originalvideofilename>
																<originalaudiofilename></originalaudiofilename>
															</logginginfo>
															<colorinfo>
																<lut></lut>
																<lut1></lut1>
																<asc_sop></asc_sop>
																<asc_sat></asc_sat>
																<lut2></lut2>
															</colorinfo>
															<labels>
																<label2>Teal</label2>
															</labels>
														</clipitem>
														<clipitem id="clipitem-26">
															<masterclipid>masterclip-14</masterclipid>
															<name>Eyecandy Vertical Video Frame 1</name>
															<enabled>TRUE</enabled>
															<duration>5700</duration>
															<rate>
																<timebase>30</timebase>
																<ntsc>TRUE</ntsc>
															</rate>
															<start>2616</start>
															<end>3282</end>
															<in>2825</in>
															<out>3491</out>
															<pproTicksIn>23943759840000</pproTicksIn>
															<pproTicksOut>29588554195200</pproTicksOut>
															<alphatype>straight</alphatype>
															<file id="file-12"/>
															<logginginfo>
																<description></description>
																<scene></scene>
																<shottake></shottake>
																<lognote></lognote>
																<good></good>
																<originalvideofilename></originalvideofilename>
																<originalaudiofilename></originalaudiofilename>
															</logginginfo>
															<colorinfo>
																<lut></lut>
																<lut1></lut1>
																<asc_sop></asc_sop>
																<asc_sat></asc_sat>
																<lut2></lut2>
															</colorinfo>
															<labels>
																<label2>Teal</label2>
															</labels>
														</clipitem>
														<enabled>TRUE</enabled>
														<locked>FALSE</locked>
													</track>
													<track TL.SQTrackShy="0" TL.SQTrackExpandedHeight="25" TL.SQTrackExpanded="0" MZ.TrackTargeted="0">
														<enabled>TRUE</enabled>
														<locked>FALSE</locked>
													</track>
													<track TL.SQTrackShy="0" TL.SQTrackExpandedHeight="25" TL.SQTrackExpanded="0" MZ.TrackTargeted="0">
														<enabled>TRUE</enabled>
														<locked>FALSE</locked>
													</track>
													<track TL.SQTrackShy="0" TL.SQTrackExpandedHeight="25" TL.SQTrackExpanded="0" MZ.TrackTargeted="0">
														<enabled>TRUE</enabled>
														<locked>FALSE</locked>
													</track>
													<track TL.SQTrackShy="0" TL.SQTrackExpandedHeight="25" TL.SQTrackExpanded="0" MZ.TrackTargeted="0">
														<enabled>TRUE</enabled>
														<locked>FALSE</locked>
													</track>
													<track TL.SQTrackShy="0" TL.SQTrackExpandedHeight="25" TL.SQTrackExpanded="0" MZ.TrackTargeted="0">
														<enabled>TRUE</enabled>
														<locked>FALSE</locked>
													</track>
													<track TL.SQTrackShy="0" TL.SQTrackExpandedHeight="25" TL.SQTrackExpanded="0" MZ.TrackTargeted="0">
														<enabled>TRUE</enabled>
														<locked>FALSE</locked>
													</track>
													<track TL.SQTrackShy="0" TL.SQTrackExpandedHeight="25" TL.SQTrackExpanded="0" MZ.TrackTargeted="0">
														<enabled>TRUE</enabled>
														<locked>FALSE</locked>
													</track>
													<track TL.SQTrackShy="0" TL.SQTrackExpandedHeight="25" TL.SQTrackExpanded="0" MZ.TrackTargeted="0">
														<enabled>TRUE</enabled>
														<locked>FALSE</locked>
													</track>
												</video>
												<audio>
													<numOutputChannels>2</numOutputChannels>
													<format>
														<samplecharacteristics>
															<depth>16</depth>
															<samplerate>48000</samplerate>
														</samplecharacteristics>
													</format>
													<outputs>
														<group>
															<index>1</index>
															<numchannels>1</numchannels>
															<downmix>0</downmix>
															<channel>
																<index>1</index>
															</channel>
														</group>
														<group>
															<index>2</index>
															<numchannels>1</numchannels>
															<downmix>0</downmix>
															<channel>
																<index>2</index>
															</channel>
														</group>
													</outputs>
													<track TL.SQTrackAudioKeyframeStyle="0" TL.SQTrackShy="0" TL.SQTrackExpandedHeight="25" TL.SQTrackExpanded="0" MZ.TrackTargeted="1" PannerCurrentValue="0.5" PannerIsInverted="true" PannerStartKeyframe="-91445760000000000,0.5,0,0,0,0,0,0" PannerName="Balance" currentExplodedTrackIndex="0" totalExplodedTrackCount="2" premiereTrackType="Stereo">
														<clipitem id="clipitem-27" premiereChannelType="stereo">
															<masterclipid>masterclip-15</masterclipid>
															<name>ES_Violent Heart (Instrumental Version) - Torii Wolf.mp3</name>
															<enabled>TRUE</enabled>
															<duration>5474</duration>
															<rate>
																<timebase>30</timebase>
																<ntsc>TRUE</ntsc>
															</rate>
															<start>0</start>
															<end>3282</end>
															<in>0</in>
															<out>3282</out>
															<pproTicksIn>0</pproTicksIn>
															<pproTicksOut>27817139750400</pproTicksOut>
															<file id="file-13">
																<name>ES_Violent Heart (Instrumental Version) - Torii Wolf.mp3</name>
																<pathurl>file://localhost/Volumes/ATM%201/EYE%20CANDY/8%3a14%3a23/5_Assets/Music/ES_Violent%20Heart%20(Instrumental%20Version)%20-%20Torii%20Wolf.mp3</pathurl>
																<rate>
																	<timebase>30</timebase>
																	<ntsc>TRUE</ntsc>
																</rate>
																<duration>5474</duration>
																<timecode>
																	<rate>
																		<timebase>30</timebase>
																		<ntsc>TRUE</ntsc>
																	</rate>
																	<string>00;00;00;00</string>
																	<frame>0</frame>
																	<displayformat>DF</displayformat>
																</timecode>
																<media>
																	<audio>
																		<samplecharacteristics>
																			<depth>16</depth>
																			<samplerate>48000</samplerate>
																		</samplecharacteristics>
																		<channelcount>2</channelcount>
																	</audio>
																</media>
															</file>
															<sourcetrack>
																<mediatype>audio</mediatype>
																<trackindex>1</trackindex>
															</sourcetrack>
															<link>
																<linkclipref>clipitem-27</linkclipref>
																<mediatype>audio</mediatype>
																<trackindex>1</trackindex>
																<clipindex>1</clipindex>
																<groupindex>1</groupindex>
															</link>
															<link>
																<linkclipref>clipitem-28</linkclipref>
																<mediatype>audio</mediatype>
																<trackindex>2</trackindex>
																<clipindex>1</clipindex>
																<groupindex>1</groupindex>
															</link>
															<logginginfo>
																<description></description>
																<scene></scene>
																<shottake></shottake>
																<lognote></lognote>
																<good></good>
																<originalvideofilename></originalvideofilename>
																<originalaudiofilename></originalaudiofilename>
															</logginginfo>
															<colorinfo>
																<lut></lut>
																<lut1></lut1>
																<asc_sop></asc_sop>
																<asc_sat></asc_sat>
																<lut2></lut2>
															</colorinfo>
															<labels>
																<label2>Caribbean</label2>
															</labels>
														</clipitem>
														<enabled>TRUE</enabled>
														<locked>FALSE</locked>
														<filter>
															<effect>
																<name>Audio Levels</name>
																<effectid>audiolevels</effectid>
																<effectcategory>audiolevels</effectcategory>
																<effecttype>audiolevels</effecttype>
																<mediatype>audio</mediatype>
																<parameter authoringApp="PremierePro">
																	<parameterid>level</parameterid>
																	<name>Level</name>
																	<valuemin>0</valuemin>
																	<valuemax>3.98109</valuemax>
																	<value>0.706272</value>
																</parameter>
															</effect>
														</filter>
														<outputchannelindex>1</outputchannelindex>
													</track>
													<track TL.SQTrackAudioKeyframeStyle="0" TL.SQTrackShy="0" TL.SQTrackExpandedHeight="25" TL.SQTrackExpanded="0" MZ.TrackTargeted="1" PannerCurrentValue="0.5" PannerIsInverted="true" PannerStartKeyframe="-91445760000000000,0.5,0,0,0,0,0,0" PannerName="Balance" currentExplodedTrackIndex="1" totalExplodedTrackCount="2" premiereTrackType="Stereo">
														<clipitem id="clipitem-28" premiereChannelType="stereo">
															<masterclipid>masterclip-15</masterclipid>
															<name>ES_Violent Heart (Instrumental Version) - Torii Wolf.mp3</name>
															<enabled>TRUE</enabled>
															<duration>5474</duration>
															<rate>
																<timebase>30</timebase>
																<ntsc>TRUE</ntsc>
															</rate>
															<start>0</start>
															<end>3282</end>
															<in>0</in>
															<out>3282</out>
															<pproTicksIn>0</pproTicksIn>
															<pproTicksOut>27817139750400</pproTicksOut>
															<file id="file-13"/>
															<sourcetrack>
																<mediatype>audio</mediatype>
																<trackindex>2</trackindex>
															</sourcetrack>
															<link>
																<linkclipref>clipitem-27</linkclipref>
																<mediatype>audio</mediatype>
																<trackindex>1</trackindex>
																<clipindex>1</clipindex>
																<groupindex>1</groupindex>
															</link>
															<link>
																<linkclipref>clipitem-28</linkclipref>
																<mediatype>audio</mediatype>
																<trackindex>2</trackindex>
																<clipindex>1</clipindex>
																<groupindex>1</groupindex>
															</link>
															<logginginfo>
																<description></description>
																<scene></scene>
																<shottake></shottake>
																<lognote></lognote>
																<good></good>
																<originalvideofilename></originalvideofilename>
																<originalaudiofilename></originalaudiofilename>
															</logginginfo>
															<colorinfo>
																<lut></lut>
																<lut1></lut1>
																<asc_sop></asc_sop>
																<asc_sat></asc_sat>
																<lut2></lut2>
															</colorinfo>
															<labels>
																<label2>Caribbean</label2>
															</labels>
														</clipitem>
														<enabled>TRUE</enabled>
														<locked>FALSE</locked>
														<filter>
															<effect>
																<name>Audio Levels</name>
																<effectid>audiolevels</effectid>
																<effectcategory>audiolevels</effectcategory>
																<effecttype>audiolevels</effecttype>
																<mediatype>audio</mediatype>
																<parameter authoringApp="PremierePro">
																	<parameterid>level</parameterid>
																	<name>Level</name>
																	<valuemin>0</valuemin>
																	<valuemax>3.98109</valuemax>
																	<value>0.706272</value>
																</parameter>
															</effect>
														</filter>
														<outputchannelindex>2</outputchannelindex>
													</track>
													<track TL.SQTrackAudioKeyframeStyle="0" TL.SQTrackShy="0" TL.SQTrackExpandedHeight="25" TL.SQTrackExpanded="0" MZ.TrackTargeted="0" PannerCurrentValue="0.5" PannerIsInverted="true" PannerStartKeyframe="-91445760000000000,0.5,0,0,0,0,0,0" PannerName="Balance" currentExplodedTrackIndex="0" totalExplodedTrackCount="2" premiereTrackType="Stereo">
														<enabled>TRUE</enabled>
														<locked>FALSE</locked>
														<outputchannelindex>1</outputchannelindex>
													</track>
													<track TL.SQTrackAudioKeyframeStyle="0" TL.SQTrackShy="0" TL.SQTrackExpandedHeight="25" TL.SQTrackExpanded="0" MZ.TrackTargeted="0" PannerCurrentValue="0.5" PannerIsInverted="true" PannerStartKeyframe="-91445760000000000,0.5,0,0,0,0,0,0" PannerName="Balance" currentExplodedTrackIndex="1" totalExplodedTrackCount="2" premiereTrackType="Stereo">
														<enabled>TRUE</enabled>
														<locked>FALSE</locked>
														<outputchannelindex>2</outputchannelindex>
													</track>
													<track TL.SQTrackAudioKeyframeStyle="0" TL.SQTrackShy="0" TL.SQTrackExpandedHeight="25" TL.SQTrackExpanded="0" MZ.TrackTargeted="0" PannerCurrentValue="0.5" PannerIsInverted="true" PannerStartKeyframe="-91445760000000000,0.5,0,0,0,0,0,0" PannerName="Balance" currentExplodedTrackIndex="0" totalExplodedTrackCount="2" premiereTrackType="Stereo">
														<enabled>TRUE</enabled>
														<locked>FALSE</locked>
														<outputchannelindex>1</outputchannelindex>
													</track>
													<track TL.SQTrackAudioKeyframeStyle="0" TL.SQTrackShy="0" TL.SQTrackExpandedHeight="25" TL.SQTrackExpanded="0" MZ.TrackTargeted="0" PannerCurrentValue="0.5" PannerIsInverted="true" PannerStartKeyframe="-91445760000000000,0.5,0,0,0,0,0,0" PannerName="Balance" currentExplodedTrackIndex="1" totalExplodedTrackCount="2" premiereTrackType="Stereo">
														<enabled>TRUE</enabled>
														<locked>FALSE</locked>
														<outputchannelindex>2</outputchannelindex>
													</track>
													<track TL.SQTrackAudioKeyframeStyle="0" TL.SQTrackShy="0" TL.SQTrackExpandedHeight="25" TL.SQTrackExpanded="0" MZ.TrackTargeted="0" PannerCurrentValue="0.5" PannerIsInverted="true" PannerStartKeyframe="-91445760000000000,0.5,0,0,0,0,0,0" PannerName="Balance" currentExplodedTrackIndex="0" totalExplodedTrackCount="2" premiereTrackType="Stereo">
														<enabled>TRUE</enabled>
														<locked>FALSE</locked>
														<outputchannelindex>1</outputchannelindex>
													</track>
													<track TL.SQTrackAudioKeyframeStyle="0" TL.SQTrackShy="0" TL.SQTrackExpandedHeight="25" TL.SQTrackExpanded="0" MZ.TrackTargeted="0" PannerCurrentValue="0.5" PannerIsInverted="true" PannerStartKeyframe="-91445760000000000,0.5,0,0,0,0,0,0" PannerName="Balance" currentExplodedTrackIndex="1" totalExplodedTrackCount="2" premiereTrackType="Stereo">
														<enabled>TRUE</enabled>
														<locked>FALSE</locked>
														<outputchannelindex>2</outputchannelindex>
													</track>
													<track TL.SQTrackAudioKeyframeStyle="0" TL.SQTrackShy="0" TL.SQTrackExpandedHeight="25" TL.SQTrackExpanded="0" MZ.TrackTargeted="0" PannerCurrentValue="0.5" PannerIsInverted="true" PannerStartKeyframe="-91445760000000000,0.5,0,0,0,0,0,0" PannerName="Balance" currentExplodedTrackIndex="0" totalExplodedTrackCount="2" premiereTrackType="Stereo">
														<enabled>TRUE</enabled>
														<locked>FALSE</locked>
														<outputchannelindex>1</outputchannelindex>
													</track>
													<track TL.SQTrackAudioKeyframeStyle="0" TL.SQTrackShy="0" TL.SQTrackExpandedHeight="25" TL.SQTrackExpanded="0" MZ.TrackTargeted="0" PannerCurrentValue="0.5" PannerIsInverted="true" PannerStartKeyframe="-91445760000000000,0.5,0,0,0,0,0,0" PannerName="Balance" currentExplodedTrackIndex="1" totalExplodedTrackCount="2" premiereTrackType="Stereo">
														<enabled>TRUE</enabled>
														<locked>FALSE</locked>
														<outputchannelindex>2</outputchannelindex>
													</track>
													<track TL.SQTrackAudioKeyframeStyle="0" TL.SQTrackShy="0" TL.SQTrackExpandedHeight="25" TL.SQTrackExpanded="0" MZ.TrackTargeted="0" PannerCurrentValue="0.5" PannerIsInverted="true" PannerStartKeyframe="-91445760000000000,0.5,0,0,0,0,0,0" PannerName="Balance" currentExplodedTrackIndex="0" totalExplodedTrackCount="2" premiereTrackType="Stereo">
														<enabled>TRUE</enabled>
														<locked>FALSE</locked>
														<outputchannelindex>1</outputchannelindex>
													</track>
													<track TL.SQTrackAudioKeyframeStyle="0" TL.SQTrackShy="0" TL.SQTrackExpandedHeight="25" TL.SQTrackExpanded="0" MZ.TrackTargeted="0" PannerCurrentValue="0.5" PannerIsInverted="true" PannerStartKeyframe="-91445760000000000,0.5,0,0,0,0,0,0" PannerName="Balance" currentExplodedTrackIndex="1" totalExplodedTrackCount="2" premiereTrackType="Stereo">
														<enabled>TRUE</enabled>
														<locked>FALSE</locked>
														<outputchannelindex>2</outputchannelindex>
													</track>
													<track TL.SQTrackAudioKeyframeStyle="0" TL.SQTrackShy="0" TL.SQTrackExpandedHeight="25" TL.SQTrackExpanded="0" MZ.TrackTargeted="0" PannerCurrentValue="0.5" PannerIsInverted="true" PannerStartKeyframe="-91445760000000000,0.5,0,0,0,0,0,0" PannerName="Balance" currentExplodedTrackIndex="0" totalExplodedTrackCount="2" premiereTrackType="Stereo">
														<enabled>TRUE</enabled>
														<locked>FALSE</locked>
														<outputchannelindex>1</outputchannelindex>
													</track>
													<track TL.SQTrackAudioKeyframeStyle="0" TL.SQTrackShy="0" TL.SQTrackExpandedHeight="25" TL.SQTrackExpanded="0" MZ.TrackTargeted="0" PannerCurrentValue="0.5" PannerIsInverted="true" PannerStartKeyframe="-91445760000000000,0.5,0,0,0,0,0,0" PannerName="Balance" currentExplodedTrackIndex="1" totalExplodedTrackCount="2" premiereTrackType="Stereo">
														<enabled>TRUE</enabled>
														<locked>FALSE</locked>
														<outputchannelindex>2</outputchannelindex>
													</track>
													<track TL.SQTrackAudioKeyframeStyle="0" TL.SQTrackShy="0" TL.SQTrackExpandedHeight="25" TL.SQTrackExpanded="0" MZ.TrackTargeted="0" PannerCurrentValue="0.5" PannerIsInverted="true" PannerStartKeyframe="-91445760000000000,0.5,0,0,0,0,0,0" PannerName="Balance" currentExplodedTrackIndex="0" totalExplodedTrackCount="2" premiereTrackType="Stereo">
														<enabled>TRUE</enabled>
														<locked>FALSE</locked>
														<outputchannelindex>1</outputchannelindex>
													</track>
													<track TL.SQTrackAudioKeyframeStyle="0" TL.SQTrackShy="0" TL.SQTrackExpandedHeight="25" TL.SQTrackExpanded="0" MZ.TrackTargeted="0" PannerCurrentValue="0.5" PannerIsInverted="true" PannerStartKeyframe="-91445760000000000,0.5,0,0,0,0,0,0" PannerName="Balance" currentExplodedTrackIndex="1" totalExplodedTrackCount="2" premiereTrackType="Stereo">
														<enabled>TRUE</enabled>
														<locked>FALSE</locked>
														<outputchannelindex>2</outputchannelindex>
													</track>
													<track TL.SQTrackAudioKeyframeStyle="0" TL.SQTrackShy="0" TL.SQTrackExpandedHeight="25" TL.SQTrackExpanded="0" MZ.TrackTargeted="0" PannerCurrentValue="0.5" PannerIsInverted="true" PannerStartKeyframe="-91445760000000000,0.5,0,0,0,0,0,0" PannerName="Balance" currentExplodedTrackIndex="0" totalExplodedTrackCount="2" premiereTrackType="Stereo">
														<enabled>TRUE</enabled>
														<locked>FALSE</locked>
														<outputchannelindex>1</outputchannelindex>
													</track>
													<track TL.SQTrackAudioKeyframeStyle="0" TL.SQTrackShy="0" TL.SQTrackExpandedHeight="25" TL.SQTrackExpanded="0" MZ.TrackTargeted="0" PannerCurrentValue="0.5" PannerIsInverted="true" PannerStartKeyframe="-91445760000000000,0.5,0,0,0,0,0,0" PannerName="Balance" currentExplodedTrackIndex="1" totalExplodedTrackCount="2" premiereTrackType="Stereo">
														<enabled>TRUE</enabled>
														<locked>FALSE</locked>
														<outputchannelindex>2</outputchannelindex>
													</track>
													<track TL.SQTrackAudioKeyframeStyle="0" TL.SQTrackShy="0" TL.SQTrackExpandedHeight="25" TL.SQTrackExpanded="0" MZ.TrackTargeted="0" PannerCurrentValue="0.5" PannerIsInverted="true" PannerStartKeyframe="-91445760000000000,0.5,0,0,0,0,0,0" PannerName="Balance" currentExplodedTrackIndex="0" totalExplodedTrackCount="2" premiereTrackType="Stereo">
														<enabled>TRUE</enabled>
														<locked>FALSE</locked>
														<outputchannelindex>1</outputchannelindex>
													</track>
													<track TL.SQTrackAudioKeyframeStyle="0" TL.SQTrackShy="0" TL.SQTrackExpandedHeight="25" TL.SQTrackExpanded="0" MZ.TrackTargeted="0" PannerCurrentValue="0.5" PannerIsInverted="true" PannerStartKeyframe="-91445760000000000,0.5,0,0,0,0,0,0" PannerName="Balance" currentExplodedTrackIndex="1" totalExplodedTrackCount="2" premiereTrackType="Stereo">
														<enabled>TRUE</enabled>
														<locked>FALSE</locked>
														<outputchannelindex>2</outputchannelindex>
													</track>
												</audio>
											</media>
											<timecode>
												<rate>
													<timebase>30</timebase>
													<ntsc>TRUE</ntsc>
												</rate>
												<string>00;00;00;00</string>
												<frame>0</frame>
												<displayformat>DF</displayformat>
											</timecode>
											<logginginfo>
												<description></description>
												<scene></scene>
												<shottake></shottake>
												<lognote></lognote>
												<good></good>
												<originalvideofilename></originalvideofilename>
												<originalaudiofilename></originalaudiofilename>
											</logginginfo>
										</sequence>
										<link>
											<linkclipref>clipitem-9</linkclipref>
											<mediatype>video</mediatype>
											<trackindex>1</trackindex>
											<clipindex>2</clipindex>
										</link>
										<link>
											<linkclipref>clipitem-45</linkclipref>
											<mediatype>audio</mediatype>
											<trackindex>1</trackindex>
											<clipindex>3</clipindex>
											<groupindex>1</groupindex>
										</link>
										<link>
											<linkclipref>clipitem-47</linkclipref>
											<mediatype>audio</mediatype>
											<trackindex>2</trackindex>
											<clipindex>3</clipindex>
											<groupindex>1</groupindex>
										</link>
										<labels>
											<label2>Forest</label2>
										</labels>
									</clipitem>
									<enabled>TRUE</enabled>
									<locked>FALSE</locked>
								</track>
								<track TL.SQTrackShy="0" TL.SQTrackExpandedHeight="25" TL.SQTrackExpanded="0" MZ.TrackTargeted="0">
									<clipitem id="clipitem-29">
										<masterclipid>masterclip-16</masterclipid>
										<name>ATM BUG_1080_Top Right.png</name>
										<enabled>TRUE</enabled>
										<duration>1294705</duration>
										<rate>
											<timebase>30</timebase>
											<ntsc>TRUE</ntsc>
										</rate>
										<start>82</start>
										<end>5060</end>
										<in>107892</in>
										<out>112870</out>
										<pproTicksIn>914456685542400</pproTicksIn>
										<pproTicksOut>956648556864000</pproTicksOut>
										<alphatype>straight</alphatype>
										<pixelaspectratio>square</pixelaspectratio>
										<anamorphic>FALSE</anamorphic>
										<file id="file-14">
											<name>ATM BUG_1080_Top Right.png</name>
											<pathurl>file://localhost/Volumes/ATM%201/EYE%20CANDY/Project%20Template/5_Assets/ATM%20Bug%20Box/ATM%20BUG_1080_Top%20Right.png</pathurl>
											<rate>
												<timebase>30</timebase>
												<ntsc>TRUE</ntsc>
											</rate>
											<timecode>
												<rate>
													<timebase>30</timebase>
													<ntsc>TRUE</ntsc>
												</rate>
												<string>00:00:00:00</string>
												<frame>0</frame>
												<displayformat>NDF</displayformat>
											</timecode>
											<media>
												<video>
													<samplecharacteristics>
														<rate>
															<timebase>30</timebase>
															<ntsc>TRUE</ntsc>
														</rate>
														<width>1920</width>
														<height>1080</height>
														<anamorphic>FALSE</anamorphic>
														<pixelaspectratio>square</pixelaspectratio>
														<fielddominance>none</fielddominance>
													</samplecharacteristics>
												</video>
											</media>
										</file>
										<logginginfo>
											<description></description>
											<scene></scene>
											<shottake></shottake>
											<lognote></lognote>
											<good></good>
											<originalvideofilename></originalvideofilename>
											<originalaudiofilename></originalaudiofilename>
										</logginginfo>
										<colorinfo>
											<lut></lut>
											<lut1></lut1>
											<asc_sop></asc_sop>
											<asc_sat></asc_sat>
											<lut2></lut2>
										</colorinfo>
										<labels>
										</labels>
									</clipitem>
									<enabled>TRUE</enabled>
									<locked>FALSE</locked>
								</track>
								<track TL.SQTrackShy="0" TL.SQTrackExpandedHeight="25" TL.SQTrackExpanded="0" MZ.TrackTargeted="0">
									<clipitem id="clipitem-30">
										<masterclipid>masterclip-17</masterclipid>
										<name>Batter Up!</name>
										<enabled>TRUE</enabled>
										<duration>6293</duration>
										<rate>
											<timebase>30</timebase>
											<ntsc>TRUE</ntsc>
										</rate>
										<start>115</start>
										<end>1744</end>
										<in>30</in>
										<out>1659</out>
										<pproTicksIn>254270016000</pproTicksIn>
										<pproTicksOut>14061131884800</pproTicksOut>
										<alphatype>straight</alphatype>
										<pixelaspectratio>square</pixelaspectratio>
										<anamorphic>FALSE</anamorphic>
										<file id="file-15">
											<name>EYECANDY_L3RD_JL_V03/EYECANDY_L3rd_JL_V04.aep</name>
											<pathurl>file://localhost/Volumes/ATM%201/EYE%20CANDY/Project%20Template/5_Assets/Eye%20Candy%20Mograph/EYECANDY_L3rd_JL_V04%20folder/EYECANDY_L3rd_JL_V04.aep</pathurl>
											<rate>
												<timebase>30</timebase>
												<ntsc>FALSE</ntsc>
											</rate>
											<duration>6300</duration>
											<timecode>
												<rate>
													<timebase>30</timebase>
													<ntsc>FALSE</ntsc>
												</rate>
												<string>00:00:00:00</string>
												<frame>0</frame>
												<displayformat>NDF</displayformat>
											</timecode>
											<media>
												<video>
													<samplecharacteristics>
														<rate>
															<timebase>30</timebase>
															<ntsc>FALSE</ntsc>
														</rate>
														<width>1920</width>
														<height>1080</height>
														<anamorphic>FALSE</anamorphic>
														<pixelaspectratio>square</pixelaspectratio>
														<fielddominance>lower</fielddominance>
													</samplecharacteristics>
												</video>
											</media>
										</file>
										<logginginfo>
											<description></description>
											<scene></scene>
											<shottake></shottake>
											<lognote></lognote>
											<good></good>
											<originalvideofilename></originalvideofilename>
											<originalaudiofilename></originalaudiofilename>
										</logginginfo>
										<colorinfo>
											<lut></lut>
											<lut1></lut1>
											<asc_sop></asc_sop>
											<asc_sat></asc_sat>
											<lut2></lut2>
										</colorinfo>
									</clipitem>
									<clipitem id="clipitem-31">
										<masterclipid>masterclip-18</masterclipid>
										<name>Overwhelmingly Orange</name>
										<enabled>TRUE</enabled>
										<duration>6293</duration>
										<rate>
											<timebase>30</timebase>
											<ntsc>TRUE</ntsc>
										</rate>
										<start>1843</start>
										<end>5060</end>
										<in>30</in>
										<out>3247</out>
										<pproTicksIn>254270016000</pproTicksIn>
										<pproTicksOut>27520491398400</pproTicksOut>
										<alphatype>straight</alphatype>
										<pixelaspectratio>square</pixelaspectratio>
										<anamorphic>FALSE</anamorphic>
										<file id="file-16">
											<name>EYECANDY_L3RD_JL_V03/EYECANDY_L3rd_JL_V04.aep</name>
											<pathurl>file://localhost/Volumes/ATM%201/EYE%20CANDY/Project%20Template/5_Assets/Eye%20Candy%20Mograph/EYECANDY_L3rd_JL_V04%20folder/EYECANDY_L3rd_JL_V04.aep</pathurl>
											<rate>
												<timebase>30</timebase>
												<ntsc>FALSE</ntsc>
											</rate>
											<duration>6300</duration>
											<timecode>
												<rate>
													<timebase>30</timebase>
													<ntsc>FALSE</ntsc>
												</rate>
												<string>00:00:00:00</string>
												<frame>0</frame>
												<displayformat>NDF</displayformat>
											</timecode>
											<media>
												<video>
													<samplecharacteristics>
														<rate>
															<timebase>30</timebase>
															<ntsc>FALSE</ntsc>
														</rate>
														<width>1920</width>
														<height>1080</height>
														<anamorphic>FALSE</anamorphic>
														<pixelaspectratio>square</pixelaspectratio>
														<fielddominance>lower</fielddominance>
													</samplecharacteristics>
												</video>
											</media>
										</file>
										<logginginfo>
											<description></description>
											<scene></scene>
											<shottake></shottake>
											<lognote></lognote>
											<good></good>
											<originalvideofilename></originalvideofilename>
											<originalaudiofilename></originalaudiofilename>
										</logginginfo>
										<colorinfo>
											<lut></lut>
											<lut1></lut1>
											<asc_sop></asc_sop>
											<asc_sat></asc_sat>
											<lut2></lut2>
										</colorinfo>
									</clipitem>
									<enabled>TRUE</enabled>
									<locked>FALSE</locked>
								</track>
								<track TL.SQTrackShy="0" TL.SQTrackExpandedHeight="25" TL.SQTrackExpanded="0" MZ.TrackTargeted="0">
									<clipitem id="clipitem-32">
										<masterclipid>masterclip-19</masterclipid>
										<name>Intro</name>
										<enabled>TRUE</enabled>
										<duration>160</duration>
										<rate>
											<timebase>30</timebase>
											<ntsc>TRUE</ntsc>
										</rate>
										<start>0</start>
										<end>115</end>
										<in>0</in>
										<out>115</out>
										<pproTicksIn>0</pproTicksIn>
										<pproTicksOut>974701728000</pproTicksOut>
										<sequence id="sequence-4" TL.SQAudioVisibleBase="0" TL.SQVideoVisibleBase="0" TL.SQVisibleBaseTime="0" TL.SQAVDividerPosition="0.5" TL.SQHideShyTracks="0" TL.SQHeaderWidth="236" TL.SQDataTrackViewControlState="0" Monitor.ProgramZoomOut="974701728000" Monitor.ProgramZoomIn="0" TL.SQTimePerPixel="0.0088977777777666245" MZ.EditLine="0" MZ.Sequence.PreviewFrameSizeHeight="1080" MZ.Sequence.PreviewFrameSizeWidth="1920" MZ.Sequence.AudioTimeDisplayFormat="200" MZ.Sequence.PreviewRenderingClassID="1061109567" MZ.Sequence.PreviewRenderingPresetCodec="1634755443" MZ.Sequence.PreviewRenderingPresetPath="EncoderPresets/SequencePreview/35d109db-457b-43c1-9452-9cb7be9f121c/QuickTime.epr" MZ.Sequence.PreviewUseMaxRenderQuality="false" MZ.Sequence.PreviewUseMaxBitDepth="false" MZ.Sequence.EditingModeGUID="35d109db-457b-43c1-9452-9cb7be9f121c" MZ.Sequence.VideoTimeDisplayFormat="102" MZ.WorkOutPoint="1262874412800" MZ.WorkInPoint="0">
											<duration>115</duration>
											<rate>
												<timebase>30</timebase>
												<ntsc>TRUE</ntsc>
											</rate>
											<name>Intro</name>
											<media>
												<video>
													<format>
														<samplecharacteristics>
															<rate>
																<timebase>30</timebase>
																<ntsc>TRUE</ntsc>
															</rate>
															<codec>
																<name>Apple ProRes 422</name>
																<appspecificdata>
																	<appname>Final Cut Pro</appname>
																	<appmanufacturer>Apple Inc.</appmanufacturer>
																	<appversion>7.0</appversion>
																	<data>
																		<qtcodec>
																			<codecname>Apple ProRes 422</codecname>
																			<codectypename>Apple ProRes 422</codectypename>
																			<codectypecode>apcn</codectypecode>
																			<codecvendorcode>appl</codecvendorcode>
																			<spatialquality>1024</spatialquality>
																			<temporalquality>0</temporalquality>
																			<keyframerate>0</keyframerate>
																			<datarate>0</datarate>
																		</qtcodec>
																	</data>
																</appspecificdata>
															</codec>
															<width>1920</width>
															<height>1080</height>
															<anamorphic>FALSE</anamorphic>
															<pixelaspectratio>square</pixelaspectratio>
															<fielddominance>none</fielddominance>
															<colordepth>24</colordepth>
														</samplecharacteristics>
													</format>
													<track TL.SQTrackShy="0" TL.SQTrackExpandedHeight="25" TL.SQTrackExpanded="0" MZ.TrackTargeted="1">
														<clipitem id="clipitem-33">
															<masterclipid>masterclip-20</masterclipid>
															<name>ATM_Yummy_Transtion_1.mov</name>
															<enabled>TRUE</enabled>
															<duration>122</duration>
															<rate>
																<timebase>30</timebase>
																<ntsc>TRUE</ntsc>
															</rate>
															<start>0</start>
															<end>115</end>
															<in>0</in>
															<out>115</out>
															<pproTicksIn>0</pproTicksIn>
															<pproTicksOut>974701728000</pproTicksOut>
															<alphatype>straight</alphatype>
															<pixelaspectratio>square</pixelaspectratio>
															<anamorphic>FALSE</anamorphic>
															<file id="file-17">
																<name>ATM_Yummy_Transtion_1.mov</name>
																<pathurl>file://localhost/Volumes/ATM%201/EYE%20CANDY/Project%20Template/5_Assets/Eye%20Candy%20Mograph/Transitions/Alpha/ATM_Yummy_Transtion_1.mov</pathurl>
																<rate>
																	<timebase>30</timebase>
																	<ntsc>TRUE</ntsc>
																</rate>
																<duration>122</duration>
																<timecode>
																	<rate>
																		<timebase>30</timebase>
																		<ntsc>TRUE</ntsc>
																	</rate>
																	<string>00;00;00;00</string>
																	<frame>0</frame>
																	<displayformat>DF</displayformat>
																</timecode>
																<media>
																	<video>
																		<samplecharacteristics>
																			<rate>
																				<timebase>30</timebase>
																				<ntsc>TRUE</ntsc>
																			</rate>
																			<width>1920</width>
																			<height>1080</height>
																			<anamorphic>FALSE</anamorphic>
																			<pixelaspectratio>square</pixelaspectratio>
																			<fielddominance>none</fielddominance>
																		</samplecharacteristics>
																	</video>
																	<audio>
																		<samplecharacteristics>
																			<depth>16</depth>
																			<samplerate>48000</samplerate>
																		</samplecharacteristics>
																		<channelcount>2</channelcount>
																	</audio>
																</media>
															</file>
																<marker>
																	<comment></comment>
																	<name></name>
																	<in>82</in>
																	<out>-1</out>
																</marker>
																<marker>
																	<comment></comment>
																	<name></name>
																	<in>0</in>
																	<out>-1</out>
																</marker>
															<link>
																<linkclipref>clipitem-33</linkclipref>
																<mediatype>video</mediatype>
																<trackindex>1</trackindex>
																<clipindex>1</clipindex>
															</link>
															<link>
																<linkclipref>clipitem-34</linkclipref>
																<mediatype>audio</mediatype>
																<trackindex>1</trackindex>
																<clipindex>1</clipindex>
																<groupindex>1</groupindex>
															</link>
															<link>
																<linkclipref>clipitem-35</linkclipref>
																<mediatype>audio</mediatype>
																<trackindex>2</trackindex>
																<clipindex>1</clipindex>
																<groupindex>1</groupindex>
															</link>
															<logginginfo>
																<description></description>
																<scene></scene>
																<shottake></shottake>
																<lognote></lognote>
																<good></good>
																<originalvideofilename></originalvideofilename>
																<originalaudiofilename></originalaudiofilename>
															</logginginfo>
															<colorinfo>
																<lut></lut>
																<lut1></lut1>
																<asc_sop></asc_sop>
																<asc_sat></asc_sat>
																<lut2></lut2>
															</colorinfo>
														</clipitem>
														<enabled>TRUE</enabled>
														<locked>FALSE</locked>
													</track>
													<track TL.SQTrackShy="0" TL.SQTrackExpandedHeight="25" TL.SQTrackExpanded="0" MZ.TrackTargeted="0">
														<enabled>TRUE</enabled>
														<locked>FALSE</locked>
													</track>
												</video>
												<audio>
													<numOutputChannels>2</numOutputChannels>
													<format>
														<samplecharacteristics>
															<depth>16</depth>
															<samplerate>48000</samplerate>
														</samplecharacteristics>
													</format>
													<outputs>
														<group>
															<index>1</index>
															<numchannels>1</numchannels>
															<downmix>0</downmix>
															<channel>
																<index>1</index>
															</channel>
														</group>
														<group>
															<index>2</index>
															<numchannels>1</numchannels>
															<downmix>0</downmix>
															<channel>
																<index>2</index>
															</channel>
														</group>
													</outputs>
													<track TL.SQTrackAudioKeyframeStyle="0" TL.SQTrackShy="0" TL.SQTrackExpandedHeight="25" TL.SQTrackExpanded="0" MZ.TrackTargeted="1" PannerCurrentValue="0.5" PannerIsInverted="true" PannerStartKeyframe="-91445760000000000,0.5,0,0,0,0,0,0" PannerName="Balance" currentExplodedTrackIndex="0" totalExplodedTrackCount="2" premiereTrackType="Stereo">
														<clipitem id="clipitem-34" premiereChannelType="stereo">
															<masterclipid>masterclip-20</masterclipid>
															<name>ATM_Yummy_Transtion_1.mov</name>
															<enabled>TRUE</enabled>
															<duration>122</duration>
															<rate>
																<timebase>30</timebase>
																<ntsc>TRUE</ntsc>
															</rate>
															<start>0</start>
															<end>115</end>
															<in>0</in>
															<out>115</out>
															<pproTicksIn>0</pproTicksIn>
															<pproTicksOut>974701728000</pproTicksOut>
															<file id="file-17"/>
															<sourcetrack>
																<mediatype>audio</mediatype>
																<trackindex>1</trackindex>
															</sourcetrack>
																<marker>
																	<comment></comment>
																	<name></name>
																	<in>82</in>
																	<out>-1</out>
																</marker>
																<marker>
																	<comment></comment>
																	<name></name>
																	<in>0</in>
																	<out>-1</out>
																</marker>
															<link>
																<linkclipref>clipitem-33</linkclipref>
																<mediatype>video</mediatype>
																<trackindex>1</trackindex>
																<clipindex>1</clipindex>
															</link>
															<link>
																<linkclipref>clipitem-34</linkclipref>
																<mediatype>audio</mediatype>
																<trackindex>1</trackindex>
																<clipindex>1</clipindex>
																<groupindex>1</groupindex>
															</link>
															<link>
																<linkclipref>clipitem-35</linkclipref>
																<mediatype>audio</mediatype>
																<trackindex>2</trackindex>
																<clipindex>1</clipindex>
																<groupindex>1</groupindex>
															</link>
															<logginginfo>
																<description></description>
																<scene></scene>
																<shottake></shottake>
																<lognote></lognote>
																<good></good>
																<originalvideofilename></originalvideofilename>
																<originalaudiofilename></originalaudiofilename>
															</logginginfo>
															<colorinfo>
																<lut></lut>
																<lut1></lut1>
																<asc_sop></asc_sop>
																<asc_sat></asc_sat>
																<lut2></lut2>
															</colorinfo>
														</clipitem>
														<enabled>TRUE</enabled>
														<locked>FALSE</locked>
														<outputchannelindex>1</outputchannelindex>
													</track>
													<track TL.SQTrackAudioKeyframeStyle="0" TL.SQTrackShy="0" TL.SQTrackExpandedHeight="25" TL.SQTrackExpanded="0" MZ.TrackTargeted="1" PannerCurrentValue="0.5" PannerIsInverted="true" PannerStartKeyframe="-91445760000000000,0.5,0,0,0,0,0,0" PannerName="Balance" currentExplodedTrackIndex="1" totalExplodedTrackCount="2" premiereTrackType="Stereo">
														<clipitem id="clipitem-35" premiereChannelType="stereo">
															<masterclipid>masterclip-20</masterclipid>
															<name>ATM_Yummy_Transtion_1.mov</name>
															<enabled>TRUE</enabled>
															<duration>122</duration>
															<rate>
																<timebase>30</timebase>
																<ntsc>TRUE</ntsc>
															</rate>
															<start>0</start>
															<end>115</end>
															<in>0</in>
															<out>115</out>
															<pproTicksIn>0</pproTicksIn>
															<pproTicksOut>974701728000</pproTicksOut>
															<file id="file-17"/>
															<sourcetrack>
																<mediatype>audio</mediatype>
																<trackindex>2</trackindex>
															</sourcetrack>
																<marker>
																	<comment></comment>
																	<name></name>
																	<in>82</in>
																	<out>-1</out>
																</marker>
																<marker>
																	<comment></comment>
																	<name></name>
																	<in>0</in>
																	<out>-1</out>
																</marker>
															<link>
																<linkclipref>clipitem-33</linkclipref>
																<mediatype>video</mediatype>
																<trackindex>1</trackindex>
																<clipindex>1</clipindex>
															</link>
															<link>
																<linkclipref>clipitem-34</linkclipref>
																<mediatype>audio</mediatype>
																<trackindex>1</trackindex>
																<clipindex>1</clipindex>
																<groupindex>1</groupindex>
															</link>
															<link>
																<linkclipref>clipitem-35</linkclipref>
																<mediatype>audio</mediatype>
																<trackindex>2</trackindex>
																<clipindex>1</clipindex>
																<groupindex>1</groupindex>
															</link>
															<logginginfo>
																<description></description>
																<scene></scene>
																<shottake></shottake>
																<lognote></lognote>
																<good></good>
																<originalvideofilename></originalvideofilename>
																<originalaudiofilename></originalaudiofilename>
															</logginginfo>
															<colorinfo>
																<lut></lut>
																<lut1></lut1>
																<asc_sop></asc_sop>
																<asc_sat></asc_sat>
																<lut2></lut2>
															</colorinfo>
														</clipitem>
														<enabled>TRUE</enabled>
														<locked>FALSE</locked>
														<outputchannelindex>2</outputchannelindex>
													</track>
												</audio>
											</media>
											<timecode>
												<rate>
													<timebase>30</timebase>
													<ntsc>TRUE</ntsc>
												</rate>
												<string>00;00;00;00</string>
												<frame>0</frame>
												<displayformat>DF</displayformat>
											</timecode>
												<marker>
													<comment></comment>
													<name></name>
													<in>82</in>
													<out>-1</out>
												</marker>
											<logginginfo>
												<description></description>
												<scene></scene>
												<shottake></shottake>
												<lognote></lognote>
												<good></good>
												<originalvideofilename></originalvideofilename>
												<originalaudiofilename></originalaudiofilename>
											</logginginfo>
										</sequence>
											<marker>
												<comment></comment>
												<name></name>
												<in>82</in>
												<out>-1</out>
											</marker>
										<link>
											<linkclipref>clipitem-32</linkclipref>
											<mediatype>video</mediatype>
											<trackindex>4</trackindex>
											<clipindex>1</clipindex>
										</link>
										<link>
											<linkclipref>clipitem-48</linkclipref>
											<mediatype>audio</mediatype>
											<trackindex>3</trackindex>
											<clipindex>1</clipindex>
											<groupindex>1</groupindex>
										</link>
										<link>
											<linkclipref>clipitem-51</linkclipref>
											<mediatype>audio</mediatype>
											<trackindex>4</trackindex>
											<clipindex>1</clipindex>
											<groupindex>1</groupindex>
										</link>
										<labels>
											<label2>Forest</label2>
										</labels>
									</clipitem>
									<clipitem id="clipitem-36">
										<masterclipid>masterclip-21</masterclipid>
										<name>Transition 2</name>
										<enabled>TRUE</enabled>
										<duration>160</duration>
										<rate>
											<timebase>30</timebase>
											<ntsc>TRUE</ntsc>
										</rate>
										<start>1724</start>
										<end>1843</end>
										<in>0</in>
										<out>119</out>
										<pproTicksIn>0</pproTicksIn>
										<pproTicksOut>1008604396800</pproTicksOut>
										<sequence id="sequence-5" TL.SQAudioVisibleBase="0" TL.SQVideoVisibleBase="0" TL.SQVisibleBaseTime="0" TL.SQAVDividerPosition="0.5" TL.SQHideShyTracks="0" TL.SQHeaderWidth="236" TL.SQDataTrackViewControlState="0" Monitor.ProgramZoomOut="1008604396800" Monitor.ProgramZoomIn="0" TL.SQTimePerPixel="0.0088977777777673912" MZ.EditLine="466161696000" MZ.Sequence.PreviewFrameSizeHeight="1080" MZ.Sequence.PreviewFrameSizeWidth="1920" MZ.Sequence.AudioTimeDisplayFormat="200" MZ.Sequence.PreviewRenderingClassID="1061109567" MZ.Sequence.PreviewRenderingPresetCodec="1634755443" MZ.Sequence.PreviewRenderingPresetPath="EncoderPresets/SequencePreview/35d109db-457b-43c1-9452-9cb7be9f121c/QuickTime.epr" MZ.Sequence.PreviewUseMaxRenderQuality="false" MZ.Sequence.PreviewUseMaxBitDepth="false" MZ.Sequence.EditingModeGUID="35d109db-457b-43c1-9452-9cb7be9f121c" MZ.Sequence.VideoTimeDisplayFormat="102" MZ.WorkOutPoint="1262874412800" MZ.WorkInPoint="0">
											<duration>119</duration>
											<rate>
												<timebase>30</timebase>
												<ntsc>TRUE</ntsc>
											</rate>
											<name>Transition 2</name>
											<media>
												<video>
													<format>
														<samplecharacteristics>
															<rate>
																<timebase>30</timebase>
																<ntsc>TRUE</ntsc>
															</rate>
															<codec>
																<name>Apple ProRes 422</name>
																<appspecificdata>
																	<appname>Final Cut Pro</appname>
																	<appmanufacturer>Apple Inc.</appmanufacturer>
																	<appversion>7.0</appversion>
																	<data>
																		<qtcodec>
																			<codecname>Apple ProRes 422</codecname>
																			<codectypename>Apple ProRes 422</codectypename>
																			<codectypecode>apcn</codectypecode>
																			<codecvendorcode>appl</codecvendorcode>
																			<spatialquality>1024</spatialquality>
																			<temporalquality>0</temporalquality>
																			<keyframerate>0</keyframerate>
																			<datarate>0</datarate>
																		</qtcodec>
																	</data>
																</appspecificdata>
															</codec>
															<width>1920</width>
															<height>1080</height>
															<anamorphic>FALSE</anamorphic>
															<pixelaspectratio>square</pixelaspectratio>
															<fielddominance>none</fielddominance>
															<colordepth>24</colordepth>
														</samplecharacteristics>
													</format>
													<track TL.SQTrackShy="0" TL.SQTrackExpandedHeight="25" TL.SQTrackExpanded="0" MZ.TrackTargeted="1">
														<clipitem id="clipitem-37">
															<masterclipid>masterclip-22</masterclipid>
															<name>ATM_Yummy_Transtion_4.mov</name>
															<enabled>TRUE</enabled>
															<duration>119</duration>
															<rate>
																<timebase>30</timebase>
																<ntsc>TRUE</ntsc>
															</rate>
															<start>0</start>
															<end>119</end>
															<in>0</in>
															<out>119</out>
															<pproTicksIn>0</pproTicksIn>
															<pproTicksOut>1008604396800</pproTicksOut>
															<alphatype>straight</alphatype>
															<pixelaspectratio>square</pixelaspectratio>
															<anamorphic>FALSE</anamorphic>
															<file id="file-18">
																<name>ATM_Yummy_Transtion_4.mov</name>
																<pathurl>file://localhost/Volumes/ATM%201/EYE%20CANDY/Project%20Template/5_Assets/Eye%20Candy%20Mograph/Transitions/Alpha/ATM_Yummy_Transtion_4.mov</pathurl>
																<rate>
																	<timebase>30</timebase>
																	<ntsc>TRUE</ntsc>
																</rate>
																<duration>119</duration>
																<timecode>
																	<rate>
																		<timebase>30</timebase>
																		<ntsc>TRUE</ntsc>
																	</rate>
																	<string>00;00;00;00</string>
																	<frame>0</frame>
																	<displayformat>DF</displayformat>
																</timecode>
																<media>
																	<video>
																		<samplecharacteristics>
																			<rate>
																				<timebase>30</timebase>
																				<ntsc>TRUE</ntsc>
																			</rate>
																			<width>1920</width>
																			<height>1080</height>
																			<anamorphic>FALSE</anamorphic>
																			<pixelaspectratio>square</pixelaspectratio>
																			<fielddominance>none</fielddominance>
																		</samplecharacteristics>
																	</video>
																	<audio>
																		<samplecharacteristics>
																			<depth>16</depth>
																			<samplerate>48000</samplerate>
																		</samplecharacteristics>
																		<channelcount>2</channelcount>
																	</audio>
																</media>
															</file>
																<marker>
																	<comment></comment>
																	<name></name>
																	<in>20</in>
																	<out>-1</out>
																</marker>
																<marker>
																	<comment></comment>
																	<name></name>
																	<in>55</in>
																	<out>-1</out>
																</marker>
															<link>
																<linkclipref>clipitem-37</linkclipref>
																<mediatype>video</mediatype>
																<trackindex>1</trackindex>
																<clipindex>1</clipindex>
															</link>
															<link>
																<linkclipref>clipitem-38</linkclipref>
																<mediatype>audio</mediatype>
																<trackindex>1</trackindex>
																<clipindex>1</clipindex>
																<groupindex>1</groupindex>
															</link>
															<link>
																<linkclipref>clipitem-39</linkclipref>
																<mediatype>audio</mediatype>
																<trackindex>2</trackindex>
																<clipindex>1</clipindex>
																<groupindex>1</groupindex>
															</link>
															<logginginfo>
																<description></description>
																<scene></scene>
																<shottake></shottake>
																<lognote></lognote>
																<good></good>
																<originalvideofilename></originalvideofilename>
																<originalaudiofilename></originalaudiofilename>
															</logginginfo>
															<colorinfo>
																<lut></lut>
																<lut1></lut1>
																<asc_sop></asc_sop>
																<asc_sat></asc_sat>
																<lut2></lut2>
															</colorinfo>
														</clipitem>
														<enabled>TRUE</enabled>
														<locked>FALSE</locked>
													</track>
													<track TL.SQTrackShy="0" TL.SQTrackExpandedHeight="25" TL.SQTrackExpanded="0" MZ.TrackTargeted="0">
														<enabled>TRUE</enabled>
														<locked>FALSE</locked>
													</track>
												</video>
												<audio>
													<numOutputChannels>2</numOutputChannels>
													<format>
														<samplecharacteristics>
															<depth>16</depth>
															<samplerate>48000</samplerate>
														</samplecharacteristics>
													</format>
													<outputs>
														<group>
															<index>1</index>
															<numchannels>1</numchannels>
															<downmix>0</downmix>
															<channel>
																<index>1</index>
															</channel>
														</group>
														<group>
															<index>2</index>
															<numchannels>1</numchannels>
															<downmix>0</downmix>
															<channel>
																<index>2</index>
															</channel>
														</group>
													</outputs>
													<track TL.SQTrackAudioKeyframeStyle="0" TL.SQTrackShy="0" TL.SQTrackExpandedHeight="25" TL.SQTrackExpanded="0" MZ.TrackTargeted="1" PannerCurrentValue="0.5" PannerIsInverted="true" PannerStartKeyframe="-91445760000000000,0.5,0,0,0,0,0,0" PannerName="Balance" currentExplodedTrackIndex="0" totalExplodedTrackCount="2" premiereTrackType="Stereo">
														<clipitem id="clipitem-38" premiereChannelType="stereo">
															<masterclipid>masterclip-22</masterclipid>
															<name>ATM_Yummy_Transtion_4.mov</name>
															<enabled>TRUE</enabled>
															<duration>119</duration>
															<rate>
																<timebase>30</timebase>
																<ntsc>TRUE</ntsc>
															</rate>
															<start>0</start>
															<end>119</end>
															<in>0</in>
															<out>119</out>
															<pproTicksIn>0</pproTicksIn>
															<pproTicksOut>1008604396800</pproTicksOut>
															<file id="file-18"/>
															<sourcetrack>
																<mediatype>audio</mediatype>
																<trackindex>1</trackindex>
															</sourcetrack>
																<marker>
																	<comment></comment>
																	<name></name>
																	<in>20</in>
																	<out>-1</out>
																</marker>
																<marker>
																	<comment></comment>
																	<name></name>
																	<in>55</in>
																	<out>-1</out>
																</marker>
															<link>
																<linkclipref>clipitem-37</linkclipref>
																<mediatype>video</mediatype>
																<trackindex>1</trackindex>
																<clipindex>1</clipindex>
															</link>
															<link>
																<linkclipref>clipitem-38</linkclipref>
																<mediatype>audio</mediatype>
																<trackindex>1</trackindex>
																<clipindex>1</clipindex>
																<groupindex>1</groupindex>
															</link>
															<link>
																<linkclipref>clipitem-39</linkclipref>
																<mediatype>audio</mediatype>
																<trackindex>2</trackindex>
																<clipindex>1</clipindex>
																<groupindex>1</groupindex>
															</link>
															<logginginfo>
																<description></description>
																<scene></scene>
																<shottake></shottake>
																<lognote></lognote>
																<good></good>
																<originalvideofilename></originalvideofilename>
																<originalaudiofilename></originalaudiofilename>
															</logginginfo>
															<colorinfo>
																<lut></lut>
																<lut1></lut1>
																<asc_sop></asc_sop>
																<asc_sat></asc_sat>
																<lut2></lut2>
															</colorinfo>
														</clipitem>
														<enabled>TRUE</enabled>
														<locked>FALSE</locked>
														<outputchannelindex>1</outputchannelindex>
													</track>
													<track TL.SQTrackAudioKeyframeStyle="0" TL.SQTrackShy="0" TL.SQTrackExpandedHeight="25" TL.SQTrackExpanded="0" MZ.TrackTargeted="1" PannerCurrentValue="0.5" PannerIsInverted="true" PannerStartKeyframe="-91445760000000000,0.5,0,0,0,0,0,0" PannerName="Balance" currentExplodedTrackIndex="1" totalExplodedTrackCount="2" premiereTrackType="Stereo">
														<clipitem id="clipitem-39" premiereChannelType="stereo">
															<masterclipid>masterclip-22</masterclipid>
															<name>ATM_Yummy_Transtion_4.mov</name>
															<enabled>TRUE</enabled>
															<duration>119</duration>
															<rate>
																<timebase>30</timebase>
																<ntsc>TRUE</ntsc>
															</rate>
															<start>0</start>
															<end>119</end>
															<in>0</in>
															<out>119</out>
															<pproTicksIn>0</pproTicksIn>
															<pproTicksOut>1008604396800</pproTicksOut>
															<file id="file-18"/>
															<sourcetrack>
																<mediatype>audio</mediatype>
																<trackindex>2</trackindex>
															</sourcetrack>
																<marker>
																	<comment></comment>
																	<name></name>
																	<in>20</in>
																	<out>-1</out>
																</marker>
																<marker>
																	<comment></comment>
																	<name></name>
																	<in>55</in>
																	<out>-1</out>
																</marker>
															<link>
																<linkclipref>clipitem-37</linkclipref>
																<mediatype>video</mediatype>
																<trackindex>1</trackindex>
																<clipindex>1</clipindex>
															</link>
															<link>
																<linkclipref>clipitem-38</linkclipref>
																<mediatype>audio</mediatype>
																<trackindex>1</trackindex>
																<clipindex>1</clipindex>
																<groupindex>1</groupindex>
															</link>
															<link>
																<linkclipref>clipitem-39</linkclipref>
																<mediatype>audio</mediatype>
																<trackindex>2</trackindex>
																<clipindex>1</clipindex>
																<groupindex>1</groupindex>
															</link>
															<logginginfo>
																<description></description>
																<scene></scene>
																<shottake></shottake>
																<lognote></lognote>
																<good></good>
																<originalvideofilename></originalvideofilename>
																<originalaudiofilename></originalaudiofilename>
															</logginginfo>
															<colorinfo>
																<lut></lut>
																<lut1></lut1>
																<asc_sop></asc_sop>
																<asc_sat></asc_sat>
																<lut2></lut2>
															</colorinfo>
														</clipitem>
														<enabled>TRUE</enabled>
														<locked>FALSE</locked>
														<outputchannelindex>2</outputchannelindex>
													</track>
												</audio>
											</media>
											<timecode>
												<rate>
													<timebase>30</timebase>
													<ntsc>TRUE</ntsc>
												</rate>
												<string>00;00;00;00</string>
												<frame>0</frame>
												<displayformat>DF</displayformat>
											</timecode>
												<marker>
													<comment></comment>
													<name></name>
													<in>54</in>
													<out>-1</out>
												</marker>
												<marker>
													<comment></comment>
													<name></name>
													<in>20</in>
													<out>-1</out>
												</marker>
											<logginginfo>
												<description></description>
												<scene></scene>
												<shottake></shottake>
												<lognote></lognote>
												<good></good>
												<originalvideofilename></originalvideofilename>
												<originalaudiofilename></originalaudiofilename>
											</logginginfo>
										</sequence>
											<marker>
												<comment></comment>
												<name></name>
												<in>54</in>
												<out>-1</out>
											</marker>
											<marker>
												<comment></comment>
												<name></name>
												<in>20</in>
												<out>-1</out>
											</marker>
										<link>
											<linkclipref>clipitem-36</linkclipref>
											<mediatype>video</mediatype>
											<trackindex>4</trackindex>
											<clipindex>2</clipindex>
										</link>
										<link>
											<linkclipref>clipitem-49</linkclipref>
											<mediatype>audio</mediatype>
											<trackindex>3</trackindex>
											<clipindex>2</clipindex>
											<groupindex>1</groupindex>
										</link>
										<link>
											<linkclipref>clipitem-52</linkclipref>
											<mediatype>audio</mediatype>
											<trackindex>4</trackindex>
											<clipindex>2</clipindex>
											<groupindex>1</groupindex>
										</link>
										<labels>
											<label2>Forest</label2>
										</labels>
									</clipitem>
									<clipitem id="clipitem-40">
										<masterclipid>masterclip-23</masterclipid>
										<name>Outro</name>
										<enabled>TRUE</enabled>
										<duration>160</duration>
										<rate>
											<timebase>30</timebase>
											<ntsc>TRUE</ntsc>
										</rate>
										<start>5018</start>
										<end>5155</end>
										<in>0</in>
										<out>137</out>
										<pproTicksIn>0</pproTicksIn>
										<pproTicksOut>1161166406400</pproTicksOut>
										<sequence id="sequence-6" TL.SQAudioVisibleBase="0" TL.SQVideoVisibleBase="0" TL.SQVisibleBaseTime="0" TL.SQAVDividerPosition="0.5" TL.SQHideShyTracks="0" TL.SQHeaderWidth="236" TL.SQDataTrackViewControlState="0" Monitor.ProgramZoomOut="1161166406400" Monitor.ProgramZoomIn="0" TL.SQTimePerPixel="0.008897777777768871" MZ.EditLine="974701728000" MZ.Sequence.PreviewFrameSizeHeight="1080" MZ.Sequence.PreviewFrameSizeWidth="1920" MZ.Sequence.AudioTimeDisplayFormat="200" MZ.Sequence.PreviewRenderingClassID="1061109567" MZ.Sequence.PreviewRenderingPresetCodec="1634755443" MZ.Sequence.PreviewRenderingPresetPath="EncoderPresets/SequencePreview/35d109db-457b-43c1-9452-9cb7be9f121c/QuickTime.epr" MZ.Sequence.PreviewUseMaxRenderQuality="false" MZ.Sequence.PreviewUseMaxBitDepth="false" MZ.Sequence.EditingModeGUID="35d109db-457b-43c1-9452-9cb7be9f121c" MZ.Sequence.VideoTimeDisplayFormat="102" MZ.WorkOutPoint="1262874412800" MZ.WorkInPoint="0">
											<duration>137</duration>
											<rate>
												<timebase>30</timebase>
												<ntsc>TRUE</ntsc>
											</rate>
											<name>Outro</name>
											<media>
												<video>
													<format>
														<samplecharacteristics>
															<rate>
																<timebase>30</timebase>
																<ntsc>TRUE</ntsc>
															</rate>
															<codec>
																<name>Apple ProRes 422</name>
																<appspecificdata>
																	<appname>Final Cut Pro</appname>
																	<appmanufacturer>Apple Inc.</appmanufacturer>
																	<appversion>7.0</appversion>
																	<data>
																		<qtcodec>
																			<codecname>Apple ProRes 422</codecname>
																			<codectypename>Apple ProRes 422</codectypename>
																			<codectypecode>apcn</codectypecode>
																			<codecvendorcode>appl</codecvendorcode>
																			<spatialquality>1024</spatialquality>
																			<temporalquality>0</temporalquality>
																			<keyframerate>0</keyframerate>
																			<datarate>0</datarate>
																		</qtcodec>
																	</data>
																</appspecificdata>
															</codec>
															<width>1920</width>
															<height>1080</height>
															<anamorphic>FALSE</anamorphic>
															<pixelaspectratio>square</pixelaspectratio>
															<fielddominance>none</fielddominance>
															<colordepth>24</colordepth>
														</samplecharacteristics>
													</format>
													<track TL.SQTrackShy="0" TL.SQTrackExpandedHeight="25" TL.SQTrackExpanded="0" MZ.TrackTargeted="1">
														<clipitem id="clipitem-41">
															<masterclipid>masterclip-24</masterclipid>
															<name>ATM_Yummy_Transtion_3.mov</name>
															<enabled>TRUE</enabled>
															<duration>137</duration>
															<rate>
																<timebase>30</timebase>
																<ntsc>TRUE</ntsc>
															</rate>
															<start>0</start>
															<end>137</end>
															<in>0</in>
															<out>137</out>
															<pproTicksIn>0</pproTicksIn>
															<pproTicksOut>1161166406400</pproTicksOut>
															<alphatype>straight</alphatype>
															<pixelaspectratio>square</pixelaspectratio>
															<anamorphic>FALSE</anamorphic>
															<file id="file-19">
																<name>ATM_Yummy_Transtion_3.mov</name>
																<pathurl>file://localhost/Volumes/ATM%201/EYE%20CANDY/Project%20Template/5_Assets/Eye%20Candy%20Mograph/Transitions/Alpha/ATM_Yummy_Transtion_3.mov</pathurl>
																<rate>
																	<timebase>30</timebase>
																	<ntsc>TRUE</ntsc>
																</rate>
																<duration>137</duration>
																<timecode>
																	<rate>
																		<timebase>30</timebase>
																		<ntsc>TRUE</ntsc>
																	</rate>
																	<string>00;00;00;00</string>
																	<frame>0</frame>
																	<displayformat>DF</displayformat>
																</timecode>
																<media>
																	<video>
																		<samplecharacteristics>
																			<rate>
																				<timebase>30</timebase>
																				<ntsc>TRUE</ntsc>
																			</rate>
																			<width>1920</width>
																			<height>1080</height>
																			<anamorphic>FALSE</anamorphic>
																			<pixelaspectratio>square</pixelaspectratio>
																			<fielddominance>none</fielddominance>
																		</samplecharacteristics>
																	</video>
																	<audio>
																		<samplecharacteristics>
																			<depth>16</depth>
																			<samplerate>48000</samplerate>
																		</samplecharacteristics>
																		<channelcount>2</channelcount>
																	</audio>
																</media>
															</file>
																<marker>
																	<comment></comment>
																	<name></name>
																	<in>32</in>
																	<out>-1</out>
																</marker>
															<link>
																<linkclipref>clipitem-41</linkclipref>
																<mediatype>video</mediatype>
																<trackindex>1</trackindex>
																<clipindex>1</clipindex>
															</link>
															<link>
																<linkclipref>clipitem-42</linkclipref>
																<mediatype>audio</mediatype>
																<trackindex>1</trackindex>
																<clipindex>1</clipindex>
																<groupindex>1</groupindex>
															</link>
															<link>
																<linkclipref>clipitem-43</linkclipref>
																<mediatype>audio</mediatype>
																<trackindex>2</trackindex>
																<clipindex>1</clipindex>
																<groupindex>1</groupindex>
															</link>
															<logginginfo>
																<description></description>
																<scene></scene>
																<shottake></shottake>
																<lognote></lognote>
																<good></good>
																<originalvideofilename></originalvideofilename>
																<originalaudiofilename></originalaudiofilename>
															</logginginfo>
															<colorinfo>
																<lut></lut>
																<lut1></lut1>
																<asc_sop></asc_sop>
																<asc_sat></asc_sat>
																<lut2></lut2>
															</colorinfo>
														</clipitem>
														<enabled>TRUE</enabled>
														<locked>FALSE</locked>
													</track>
													<track TL.SQTrackShy="0" TL.SQTrackExpandedHeight="25" TL.SQTrackExpanded="0" MZ.TrackTargeted="0">
														<enabled>TRUE</enabled>
														<locked>FALSE</locked>
													</track>
												</video>
												<audio>
													<numOutputChannels>2</numOutputChannels>
													<format>
														<samplecharacteristics>
															<depth>16</depth>
															<samplerate>48000</samplerate>
														</samplecharacteristics>
													</format>
													<outputs>
														<group>
															<index>1</index>
															<numchannels>1</numchannels>
															<downmix>0</downmix>
															<channel>
																<index>1</index>
															</channel>
														</group>
														<group>
															<index>2</index>
															<numchannels>1</numchannels>
															<downmix>0</downmix>
															<channel>
																<index>2</index>
															</channel>
														</group>
													</outputs>
													<track TL.SQTrackAudioKeyframeStyle="0" TL.SQTrackShy="0" TL.SQTrackExpandedHeight="25" TL.SQTrackExpanded="0" MZ.TrackTargeted="1" PannerCurrentValue="0.5" PannerIsInverted="true" PannerStartKeyframe="-91445760000000000,0.5,0,0,0,0,0,0" PannerName="Balance" currentExplodedTrackIndex="0" totalExplodedTrackCount="2" premiereTrackType="Stereo">
														<clipitem id="clipitem-42" premiereChannelType="stereo">
															<masterclipid>masterclip-24</masterclipid>
															<name>ATM_Yummy_Transtion_3.mov</name>
															<enabled>TRUE</enabled>
															<duration>137</duration>
															<rate>
																<timebase>30</timebase>
																<ntsc>TRUE</ntsc>
															</rate>
															<start>0</start>
															<end>137</end>
															<in>0</in>
															<out>137</out>
															<pproTicksIn>0</pproTicksIn>
															<pproTicksOut>1161166406400</pproTicksOut>
															<file id="file-19"/>
															<sourcetrack>
																<mediatype>audio</mediatype>
																<trackindex>1</trackindex>
															</sourcetrack>
																<marker>
																	<comment></comment>
																	<name></name>
																	<in>32</in>
																	<out>-1</out>
																</marker>
															<link>
																<linkclipref>clipitem-41</linkclipref>
																<mediatype>video</mediatype>
																<trackindex>1</trackindex>
																<clipindex>1</clipindex>
															</link>
															<link>
																<linkclipref>clipitem-42</linkclipref>
																<mediatype>audio</mediatype>
																<trackindex>1</trackindex>
																<clipindex>1</clipindex>
																<groupindex>1</groupindex>
															</link>
															<link>
																<linkclipref>clipitem-43</linkclipref>
																<mediatype>audio</mediatype>
																<trackindex>2</trackindex>
																<clipindex>1</clipindex>
																<groupindex>1</groupindex>
															</link>
															<logginginfo>
																<description></description>
																<scene></scene>
																<shottake></shottake>
																<lognote></lognote>
																<good></good>
																<originalvideofilename></originalvideofilename>
																<originalaudiofilename></originalaudiofilename>
															</logginginfo>
															<colorinfo>
																<lut></lut>
																<lut1></lut1>
																<asc_sop></asc_sop>
																<asc_sat></asc_sat>
																<lut2></lut2>
															</colorinfo>
														</clipitem>
														<enabled>TRUE</enabled>
														<locked>FALSE</locked>
														<outputchannelindex>1</outputchannelindex>
													</track>
													<track TL.SQTrackAudioKeyframeStyle="0" TL.SQTrackShy="0" TL.SQTrackExpandedHeight="25" TL.SQTrackExpanded="0" MZ.TrackTargeted="1" PannerCurrentValue="0.5" PannerIsInverted="true" PannerStartKeyframe="-91445760000000000,0.5,0,0,0,0,0,0" PannerName="Balance" currentExplodedTrackIndex="1" totalExplodedTrackCount="2" premiereTrackType="Stereo">
														<clipitem id="clipitem-43" premiereChannelType="stereo">
															<masterclipid>masterclip-24</masterclipid>
															<name>ATM_Yummy_Transtion_3.mov</name>
															<enabled>TRUE</enabled>
															<duration>137</duration>
															<rate>
																<timebase>30</timebase>
																<ntsc>TRUE</ntsc>
															</rate>
															<start>0</start>
															<end>137</end>
															<in>0</in>
															<out>137</out>
															<pproTicksIn>0</pproTicksIn>
															<pproTicksOut>1161166406400</pproTicksOut>
															<file id="file-19"/>
															<sourcetrack>
																<mediatype>audio</mediatype>
																<trackindex>2</trackindex>
															</sourcetrack>
																<marker>
																	<comment></comment>
																	<name></name>
																	<in>32</in>
																	<out>-1</out>
																</marker>
															<link>
																<linkclipref>clipitem-41</linkclipref>
																<mediatype>video</mediatype>
																<trackindex>1</trackindex>
																<clipindex>1</clipindex>
															</link>
															<link>
																<linkclipref>clipitem-42</linkclipref>
																<mediatype>audio</mediatype>
																<trackindex>1</trackindex>
																<clipindex>1</clipindex>
																<groupindex>1</groupindex>
															</link>
															<link>
																<linkclipref>clipitem-43</linkclipref>
																<mediatype>audio</mediatype>
																<trackindex>2</trackindex>
																<clipindex>1</clipindex>
																<groupindex>1</groupindex>
															</link>
															<logginginfo>
																<description></description>
																<scene></scene>
																<shottake></shottake>
																<lognote></lognote>
																<good></good>
																<originalvideofilename></originalvideofilename>
																<originalaudiofilename></originalaudiofilename>
															</logginginfo>
															<colorinfo>
																<lut></lut>
																<lut1></lut1>
																<asc_sop></asc_sop>
																<asc_sat></asc_sat>
																<lut2></lut2>
															</colorinfo>
														</clipitem>
														<enabled>TRUE</enabled>
														<locked>FALSE</locked>
														<outputchannelindex>2</outputchannelindex>
													</track>
												</audio>
											</media>
											<timecode>
												<rate>
													<timebase>30</timebase>
													<ntsc>TRUE</ntsc>
												</rate>
												<string>00;00;00;00</string>
												<frame>0</frame>
												<displayformat>DF</displayformat>
											</timecode>
												<marker>
													<comment></comment>
													<name></name>
													<in>42</in>
													<out>-1</out>
												</marker>
											<logginginfo>
												<description></description>
												<scene></scene>
												<shottake></shottake>
												<lognote></lognote>
												<good></good>
												<originalvideofilename></originalvideofilename>
												<originalaudiofilename></originalaudiofilename>
											</logginginfo>
										</sequence>
											<marker>
												<comment></comment>
												<name></name>
												<in>42</in>
												<out>-1</out>
											</marker>
										<link>
											<linkclipref>clipitem-40</linkclipref>
											<mediatype>video</mediatype>
											<trackindex>4</trackindex>
											<clipindex>3</clipindex>
										</link>
										<link>
											<linkclipref>clipitem-50</linkclipref>
											<mediatype>audio</mediatype>
											<trackindex>3</trackindex>
											<clipindex>3</clipindex>
											<groupindex>1</groupindex>
										</link>
										<link>
											<linkclipref>clipitem-53</linkclipref>
											<mediatype>audio</mediatype>
											<trackindex>4</trackindex>
											<clipindex>3</clipindex>
											<groupindex>1</groupindex>
										</link>
										<labels>
											<label2>Forest</label2>
										</labels>
									</clipitem>
									<enabled>TRUE</enabled>
									<locked>FALSE</locked>
								</track>
							</video>
							<audio>
								<numOutputChannels>2</numOutputChannels>
								<format>
									<samplecharacteristics>
										<depth>16</depth>
										<samplerate>48000</samplerate>
									</samplecharacteristics>
								</format>
								<outputs>
									<group>
										<index>1</index>
										<numchannels>1</numchannels>
										<downmix>0</downmix>
										<channel>
											<index>1</index>
										</channel>
									</group>
									<group>
										<index>2</index>
										<numchannels>1</numchannels>
										<downmix>0</downmix>
										<channel>
											<index>2</index>
										</channel>
									</group>
								</outputs>
								<track TL.SQTrackAudioKeyframeStyle="0" TL.SQTrackShy="0" TL.SQTrackExpandedHeight="25" TL.SQTrackExpanded="0" MZ.TrackTargeted="1" PannerCurrentValue="0.5" PannerIsInverted="true" PannerStartKeyframe="-91445760000000000,0.5,0,0,0,0,0,0" PannerName="Balance" currentExplodedTrackIndex="0" totalExplodedTrackCount="2" premiereTrackType="Stereo">
									<clipitem id="clipitem-44" premiereChannelType="stereo">
										<masterclipid>masterclip-1</masterclipid>
										<name>Batter Up!_1</name>
										<enabled>TRUE</enabled>
										<duration>5700</duration>
										<rate>
											<timebase>30</timebase>
											<ntsc>TRUE</ntsc>
										</rate>
										<start>82</start>
										<end>-1</end>
										<in>0</in>
										<out>1662</out>
										<pproTicksIn>0</pproTicksIn>
										<pproTicksOut>14086558886400</pproTicksOut>
										<sequence id="sequence-2"/>
										<sourcetrack>
											<mediatype>audio</mediatype>
											<trackindex>0</trackindex>
										</sourcetrack>
										<link>
											<linkclipref>clipitem-1</linkclipref>
											<mediatype>video</mediatype>
											<trackindex>1</trackindex>
											<clipindex>1</clipindex>
										</link>
										<link>
											<linkclipref>clipitem-44</linkclipref>
											<mediatype>audio</mediatype>
											<trackindex>1</trackindex>
											<clipindex>1</clipindex>
											<groupindex>1</groupindex>
										</link>
										<link>
											<linkclipref>clipitem-46</linkclipref>
											<mediatype>audio</mediatype>
											<trackindex>2</trackindex>
											<clipindex>1</clipindex>
											<groupindex>1</groupindex>
										</link>
										<labels>
											<label2>Forest</label2>
										</labels>
									</clipitem>
									<transitionitem>
										<start>1714</start>
										<end>1744</end>
										<pproTicksIn>14527293580800</pproTicksIn>
										<pproTicksOut>14781563596800</pproTicksOut>
										<alignment>end-black</alignment>
										<cutPointTicks>254270016000</cutPointTicks>
										<rate>
											<timebase>30</timebase>
											<ntsc>TRUE</ntsc>
										</rate>
										<effect>
											<name>Cross Fade ( 0dB)</name>
											<effectid>KGAudioTransCrossFade0dB</effectid>
											<effecttype>transition</effecttype>
											<mediatype>audio</mediatype>
											<wipecode>0</wipecode>
											<wipeaccuracy>100</wipeaccuracy>
											<startratio>0</startratio>
											<endratio>1</endratio>
											<reverse>FALSE</reverse>
										</effect>
									</transitionitem>
									<clipitem id="clipitem-45" premiereChannelType="stereo">
										<masterclipid>masterclip-8</masterclipid>
										<name>Overwhelmingly Orange_2</name>
										<enabled>TRUE</enabled>
										<duration>5700</duration>
										<rate>
											<timebase>30</timebase>
											<ntsc>TRUE</ntsc>
										</rate>
										<start>1778</start>
										<end>-1</end>
										<in>0</in>
										<out>3282</out>
										<pproTicksIn>0</pproTicksIn>
										<pproTicksOut>27817139750400</pproTicksOut>
										<sequence id="sequence-3"/>
										<sourcetrack>
											<mediatype>audio</mediatype>
											<trackindex>0</trackindex>
										</sourcetrack>
										<link>
											<linkclipref>clipitem-9</linkclipref>
											<mediatype>video</mediatype>
											<trackindex>1</trackindex>
											<clipindex>2</clipindex>
										</link>
										<link>
											<linkclipref>clipitem-45</linkclipref>
											<mediatype>audio</mediatype>
											<trackindex>1</trackindex>
											<clipindex>3</clipindex>
											<groupindex>1</groupindex>
										</link>
										<link>
											<linkclipref>clipitem-47</linkclipref>
											<mediatype>audio</mediatype>
											<trackindex>2</trackindex>
											<clipindex>3</clipindex>
											<groupindex>1</groupindex>
										</link>
										<labels>
											<label2>Forest</label2>
										</labels>
									</clipitem>
									<transitionitem>
										<start>5030</start>
										<end>5060</end>
										<pproTicksIn>42632606016000</pproTicksIn>
										<pproTicksOut>42886876032000</pproTicksOut>
										<alignment>end-black</alignment>
										<cutPointTicks>254270016000</cutPointTicks>
										<rate>
											<timebase>30</timebase>
											<ntsc>TRUE</ntsc>
										</rate>
										<effect>
											<name>Cross Fade ( 0dB)</name>
											<effectid>KGAudioTransCrossFade0dB</effectid>
											<effecttype>transition</effecttype>
											<mediatype>audio</mediatype>
											<wipecode>0</wipecode>
											<wipeaccuracy>100</wipeaccuracy>
											<startratio>0</startratio>
											<endratio>1</endratio>
											<reverse>FALSE</reverse>
										</effect>
									</transitionitem>
									<enabled>TRUE</enabled>
									<locked>FALSE</locked>
									<outputchannelindex>1</outputchannelindex>
								</track>
								<track TL.SQTrackAudioKeyframeStyle="0" TL.SQTrackShy="0" TL.SQTrackExpandedHeight="25" TL.SQTrackExpanded="0" MZ.TrackTargeted="1" PannerCurrentValue="0.5" PannerIsInverted="true" PannerStartKeyframe="-91445760000000000,0.5,0,0,0,0,0,0" PannerName="Balance" currentExplodedTrackIndex="1" totalExplodedTrackCount="2" premiereTrackType="Stereo">
									<clipitem id="clipitem-46" premiereChannelType="stereo">
										<masterclipid>masterclip-1</masterclipid>
										<name>Batter Up!_1</name>
										<enabled>TRUE</enabled>
										<duration>5700</duration>
										<rate>
											<timebase>30</timebase>
											<ntsc>TRUE</ntsc>
										</rate>
										<start>82</start>
										<end>-1</end>
										<in>0</in>
										<out>1662</out>
										<pproTicksIn>0</pproTicksIn>
										<pproTicksOut>14086558886400</pproTicksOut>
										<sequence id="sequence-2"/>
										<sourcetrack>
											<mediatype>audio</mediatype>
											<trackindex>1</trackindex>
										</sourcetrack>
										<link>
											<linkclipref>clipitem-1</linkclipref>
											<mediatype>video</mediatype>
											<trackindex>1</trackindex>
											<clipindex>1</clipindex>
										</link>
										<link>
											<linkclipref>clipitem-44</linkclipref>
											<mediatype>audio</mediatype>
											<trackindex>1</trackindex>
											<clipindex>1</clipindex>
											<groupindex>1</groupindex>
										</link>
										<link>
											<linkclipref>clipitem-46</linkclipref>
											<mediatype>audio</mediatype>
											<trackindex>2</trackindex>
											<clipindex>1</clipindex>
											<groupindex>1</groupindex>
										</link>
										<labels>
											<label2>Forest</label2>
										</labels>
									</clipitem>
									<transitionitem>
										<start>1714</start>
										<end>1744</end>
										<pproTicksIn>14527293580800</pproTicksIn>
										<pproTicksOut>14781563596800</pproTicksOut>
										<alignment>end-black</alignment>
										<cutPointTicks>254270016000</cutPointTicks>
										<rate>
											<timebase>30</timebase>
											<ntsc>TRUE</ntsc>
										</rate>
										<effect>
											<name>Cross Fade ( 0dB)</name>
											<effectid>KGAudioTransCrossFade0dB</effectid>
											<effecttype>transition</effecttype>
											<mediatype>audio</mediatype>
											<wipecode>0</wipecode>
											<wipeaccuracy>100</wipeaccuracy>
											<startratio>0</startratio>
											<endratio>1</endratio>
											<reverse>FALSE</reverse>
										</effect>
									</transitionitem>
									<clipitem id="clipitem-47" premiereChannelType="stereo">
										<masterclipid>masterclip-8</masterclipid>
										<name>Overwhelmingly Orange_2</name>
										<enabled>TRUE</enabled>
										<duration>5700</duration>
										<rate>
											<timebase>30</timebase>
											<ntsc>TRUE</ntsc>
										</rate>
										<start>1778</start>
										<end>-1</end>
										<in>0</in>
										<out>3282</out>
										<pproTicksIn>0</pproTicksIn>
										<pproTicksOut>27817139750400</pproTicksOut>
										<sequence id="sequence-3"/>
										<sourcetrack>
											<mediatype>audio</mediatype>
											<trackindex>1</trackindex>
										</sourcetrack>
										<link>
											<linkclipref>clipitem-9</linkclipref>
											<mediatype>video</mediatype>
											<trackindex>1</trackindex>
											<clipindex>2</clipindex>
										</link>
										<link>
											<linkclipref>clipitem-45</linkclipref>
											<mediatype>audio</mediatype>
											<trackindex>1</trackindex>
											<clipindex>3</clipindex>
											<groupindex>1</groupindex>
										</link>
										<link>
											<linkclipref>clipitem-47</linkclipref>
											<mediatype>audio</mediatype>
											<trackindex>2</trackindex>
											<clipindex>3</clipindex>
											<groupindex>1</groupindex>
										</link>
										<labels>
											<label2>Forest</label2>
										</labels>
									</clipitem>
									<transitionitem>
										<start>5030</start>
										<end>5060</end>
										<pproTicksIn>42632606016000</pproTicksIn>
										<pproTicksOut>42886876032000</pproTicksOut>
										<alignment>end-black</alignment>
										<cutPointTicks>254270016000</cutPointTicks>
										<rate>
											<timebase>30</timebase>
											<ntsc>TRUE</ntsc>
										</rate>
										<effect>
											<name>Cross Fade ( 0dB)</name>
											<effectid>KGAudioTransCrossFade0dB</effectid>
											<effecttype>transition</effecttype>
											<mediatype>audio</mediatype>
											<wipecode>0</wipecode>
											<wipeaccuracy>100</wipeaccuracy>
											<startratio>0</startratio>
											<endratio>1</endratio>
											<reverse>FALSE</reverse>
										</effect>
									</transitionitem>
									<enabled>TRUE</enabled>
									<locked>FALSE</locked>
									<outputchannelindex>2</outputchannelindex>
								</track>
								<track TL.SQTrackAudioKeyframeStyle="0" TL.SQTrackShy="0" TL.SQTrackExpandedHeight="25" TL.SQTrackExpanded="0" MZ.TrackTargeted="1" PannerCurrentValue="0.5" PannerIsInverted="true" PannerStartKeyframe="-91445760000000000,0.5,0,0,0,0,0,0" PannerName="Balance" currentExplodedTrackIndex="0" totalExplodedTrackCount="2" premiereTrackType="Stereo">
									<clipitem id="clipitem-48" premiereChannelType="stereo">
										<masterclipid>masterclip-19</masterclipid>
										<name>Intro</name>
										<enabled>TRUE</enabled>
										<duration>160</duration>
										<rate>
											<timebase>30</timebase>
											<ntsc>TRUE</ntsc>
										</rate>
										<start>0</start>
										<end>115</end>
										<in>0</in>
										<out>115</out>
										<pproTicksIn>0</pproTicksIn>
										<pproTicksOut>974701728000</pproTicksOut>
										<sequence id="sequence-4"/>
										<sourcetrack>
											<mediatype>audio</mediatype>
											<trackindex>0</trackindex>
										</sourcetrack>
											<marker>
												<comment></comment>
												<name></name>
												<in>82</in>
												<out>-1</out>
											</marker>
										<link>
											<linkclipref>clipitem-32</linkclipref>
											<mediatype>video</mediatype>
											<trackindex>4</trackindex>
											<clipindex>1</clipindex>
										</link>
										<link>
											<linkclipref>clipitem-48</linkclipref>
											<mediatype>audio</mediatype>
											<trackindex>3</trackindex>
											<clipindex>1</clipindex>
											<groupindex>1</groupindex>
										</link>
										<link>
											<linkclipref>clipitem-51</linkclipref>
											<mediatype>audio</mediatype>
											<trackindex>4</trackindex>
											<clipindex>1</clipindex>
											<groupindex>1</groupindex>
										</link>
										<labels>
											<label2>Forest</label2>
										</labels>
									</clipitem>
									<clipitem id="clipitem-49" premiereChannelType="stereo">
										<masterclipid>masterclip-21</masterclipid>
										<name>Transition 2</name>
										<enabled>TRUE</enabled>
										<duration>160</duration>
										<rate>
											<timebase>30</timebase>
											<ntsc>TRUE</ntsc>
										</rate>
										<start>1724</start>
										<end>1843</end>
										<in>0</in>
										<out>119</out>
										<pproTicksIn>0</pproTicksIn>
										<pproTicksOut>1008604396800</pproTicksOut>
										<sequence id="sequence-5"/>
										<sourcetrack>
											<mediatype>audio</mediatype>
											<trackindex>0</trackindex>
										</sourcetrack>
											<marker>
												<comment></comment>
												<name></name>
												<in>54</in>
												<out>-1</out>
											</marker>
											<marker>
												<comment></comment>
												<name></name>
												<in>20</in>
												<out>-1</out>
											</marker>
										<link>
											<linkclipref>clipitem-36</linkclipref>
											<mediatype>video</mediatype>
											<trackindex>4</trackindex>
											<clipindex>2</clipindex>
										</link>
										<link>
											<linkclipref>clipitem-49</linkclipref>
											<mediatype>audio</mediatype>
											<trackindex>3</trackindex>
											<clipindex>2</clipindex>
											<groupindex>1</groupindex>
										</link>
										<link>
											<linkclipref>clipitem-52</linkclipref>
											<mediatype>audio</mediatype>
											<trackindex>4</trackindex>
											<clipindex>2</clipindex>
											<groupindex>1</groupindex>
										</link>
										<labels>
											<label2>Forest</label2>
										</labels>
									</clipitem>
									<clipitem id="clipitem-50" premiereChannelType="stereo">
										<masterclipid>masterclip-23</masterclipid>
										<name>Outro</name>
										<enabled>TRUE</enabled>
										<duration>160</duration>
										<rate>
											<timebase>30</timebase>
											<ntsc>TRUE</ntsc>
										</rate>
										<start>5018</start>
										<end>5155</end>
										<in>0</in>
										<out>137</out>
										<pproTicksIn>0</pproTicksIn>
										<pproTicksOut>1161166406400</pproTicksOut>
										<sequence id="sequence-6"/>
										<sourcetrack>
											<mediatype>audio</mediatype>
											<trackindex>0</trackindex>
										</sourcetrack>
											<marker>
												<comment></comment>
												<name></name>
												<in>42</in>
												<out>-1</out>
											</marker>
										<link>
											<linkclipref>clipitem-40</linkclipref>
											<mediatype>video</mediatype>
											<trackindex>4</trackindex>
											<clipindex>3</clipindex>
										</link>
										<link>
											<linkclipref>clipitem-50</linkclipref>
											<mediatype>audio</mediatype>
											<trackindex>3</trackindex>
											<clipindex>3</clipindex>
											<groupindex>1</groupindex>
										</link>
										<link>
											<linkclipref>clipitem-53</linkclipref>
											<mediatype>audio</mediatype>
											<trackindex>4</trackindex>
											<clipindex>3</clipindex>
											<groupindex>1</groupindex>
										</link>
										<labels>
											<label2>Forest</label2>
										</labels>
									</clipitem>
									<enabled>TRUE</enabled>
									<locked>FALSE</locked>
									<outputchannelindex>1</outputchannelindex>
								</track>
								<track TL.SQTrackAudioKeyframeStyle="0" TL.SQTrackShy="0" TL.SQTrackExpandedHeight="25" TL.SQTrackExpanded="0" MZ.TrackTargeted="1" PannerCurrentValue="0.5" PannerIsInverted="true" PannerStartKeyframe="-91445760000000000,0.5,0,0,0,0,0,0" PannerName="Balance" currentExplodedTrackIndex="1" totalExplodedTrackCount="2" premiereTrackType="Stereo">
									<clipitem id="clipitem-51" premiereChannelType="stereo">
										<masterclipid>masterclip-19</masterclipid>
										<name>Intro</name>
										<enabled>TRUE</enabled>
										<duration>160</duration>
										<rate>
											<timebase>30</timebase>
											<ntsc>TRUE</ntsc>
										</rate>
										<start>0</start>
										<end>115</end>
										<in>0</in>
										<out>115</out>
										<pproTicksIn>0</pproTicksIn>
										<pproTicksOut>974701728000</pproTicksOut>
										<sequence id="sequence-4"/>
										<sourcetrack>
											<mediatype>audio</mediatype>
											<trackindex>1</trackindex>
										</sourcetrack>
											<marker>
												<comment></comment>
												<name></name>
												<in>82</in>
												<out>-1</out>
											</marker>
										<link>
											<linkclipref>clipitem-32</linkclipref>
											<mediatype>video</mediatype>
											<trackindex>4</trackindex>
											<clipindex>1</clipindex>
										</link>
										<link>
											<linkclipref>clipitem-48</linkclipref>
											<mediatype>audio</mediatype>
											<trackindex>3</trackindex>
											<clipindex>1</clipindex>
											<groupindex>1</groupindex>
										</link>
										<link>
											<linkclipref>clipitem-51</linkclipref>
											<mediatype>audio</mediatype>
											<trackindex>4</trackindex>
											<clipindex>1</clipindex>
											<groupindex>1</groupindex>
										</link>
										<labels>
											<label2>Forest</label2>
										</labels>
									</clipitem>
									<clipitem id="clipitem-52" premiereChannelType="stereo">
										<masterclipid>masterclip-21</masterclipid>
										<name>Transition 2</name>
										<enabled>TRUE</enabled>
										<duration>160</duration>
										<rate>
											<timebase>30</timebase>
											<ntsc>TRUE</ntsc>
										</rate>
										<start>1724</start>
										<end>1843</end>
										<in>0</in>
										<out>119</out>
										<pproTicksIn>0</pproTicksIn>
										<pproTicksOut>1008604396800</pproTicksOut>
										<sequence id="sequence-5"/>
										<sourcetrack>
											<mediatype>audio</mediatype>
											<trackindex>1</trackindex>
										</sourcetrack>
											<marker>
												<comment></comment>
												<name></name>
												<in>54</in>
												<out>-1</out>
											</marker>
											<marker>
												<comment></comment>
												<name></name>
												<in>20</in>
												<out>-1</out>
											</marker>
										<link>
											<linkclipref>clipitem-36</linkclipref>
											<mediatype>video</mediatype>
											<trackindex>4</trackindex>
											<clipindex>2</clipindex>
										</link>
										<link>
											<linkclipref>clipitem-49</linkclipref>
											<mediatype>audio</mediatype>
											<trackindex>3</trackindex>
											<clipindex>2</clipindex>
											<groupindex>1</groupindex>
										</link>
										<link>
											<linkclipref>clipitem-52</linkclipref>
											<mediatype>audio</mediatype>
											<trackindex>4</trackindex>
											<clipindex>2</clipindex>
											<groupindex>1</groupindex>
										</link>
										<labels>
											<label2>Forest</label2>
										</labels>
									</clipitem>
									<clipitem id="clipitem-53" premiereChannelType="stereo">
										<masterclipid>masterclip-23</masterclipid>
										<name>Outro</name>
										<enabled>TRUE</enabled>
										<duration>160</duration>
										<rate>
											<timebase>30</timebase>
											<ntsc>TRUE</ntsc>
										</rate>
										<start>5018</start>
										<end>5155</end>
										<in>0</in>
										<out>137</out>
										<pproTicksIn>0</pproTicksIn>
										<pproTicksOut>1161166406400</pproTicksOut>
										<sequence id="sequence-6"/>
										<sourcetrack>
											<mediatype>audio</mediatype>
											<trackindex>1</trackindex>
										</sourcetrack>
											<marker>
												<comment></comment>
												<name></name>
												<in>42</in>
												<out>-1</out>
											</marker>
										<link>
											<linkclipref>clipitem-40</linkclipref>
											<mediatype>video</mediatype>
											<trackindex>4</trackindex>
											<clipindex>3</clipindex>
										</link>
										<link>
											<linkclipref>clipitem-50</linkclipref>
											<mediatype>audio</mediatype>
											<trackindex>3</trackindex>
											<clipindex>3</clipindex>
											<groupindex>1</groupindex>
										</link>
										<link>
											<linkclipref>clipitem-53</linkclipref>
											<mediatype>audio</mediatype>
											<trackindex>4</trackindex>
											<clipindex>3</clipindex>
											<groupindex>1</groupindex>
										</link>
										<labels>
											<label2>Forest</label2>
										</labels>
									</clipitem>
									<enabled>TRUE</enabled>
									<locked>FALSE</locked>
									<outputchannelindex>2</outputchannelindex>
								</track>
								<track TL.SQTrackAudioKeyframeStyle="0" TL.SQTrackShy="0" TL.SQTrackExpandedHeight="25" TL.SQTrackExpanded="0" MZ.TrackTargeted="1" PannerCurrentValue="0.5" PannerIsInverted="true" PannerStartKeyframe="-91445760000000000,0.5,0,0,0,0,0,0" PannerName="Balance" currentExplodedTrackIndex="0" totalExplodedTrackCount="2" premiereTrackType="Stereo">
									<enabled>TRUE</enabled>
									<locked>FALSE</locked>
									<outputchannelindex>1</outputchannelindex>
								</track>
								<track TL.SQTrackAudioKeyframeStyle="0" TL.SQTrackShy="0" TL.SQTrackExpandedHeight="25" TL.SQTrackExpanded="0" MZ.TrackTargeted="1" PannerCurrentValue="0.5" PannerIsInverted="true" PannerStartKeyframe="-91445760000000000,0.5,0,0,0,0,0,0" PannerName="Balance" currentExplodedTrackIndex="1" totalExplodedTrackCount="2" premiereTrackType="Stereo">
									<enabled>TRUE</enabled>
									<locked>FALSE</locked>
									<outputchannelindex>2</outputchannelindex>
								</track>
							</audio>
						</media>
						<timecode>
							<rate>
								<timebase>30</timebase>
								<ntsc>TRUE</ntsc>
							</rate>
							<string>00;00;00;00</string>
							<frame>0</frame>
							<displayformat>DF</displayformat>
						</timecode>
						<labels>
							<label2>Forest</label2>
						</labels>
						<logginginfo>
							<description></description>
							<scene></scene>
							<shottake></shottake>
							<lognote></lognote>
							<good></good>
							<originalvideofilename></originalvideofilename>
							<originalaudiofilename></originalaudiofilename>
						</logginginfo>
					</sequence>
					<sequence id="sequence-7" TL.SQAudioVisibleBase="0" TL.SQVideoVisibleBase="0" TL.SQVisibleBaseTime="0" TL.SQAVDividerPosition="0.5" TL.SQHideShyTracks="0" TL.SQHeaderWidth="236" TL.SQDataTrackViewControlState="0" Monitor.ProgramZoomOut="49243626432000" Monitor.ProgramZoomIn="0" TL.SQTimePerPixel="0.23880291884831456" AM.TrackVScrollPosition="0" AM.TrackScrollPosition="0" MZ.EditLine="20078855596800" MZ.Sequence.PreviewFrameSizeHeight="1080" MZ.Sequence.PreviewFrameSizeWidth="1920" MZ.Sequence.AudioTimeDisplayFormat="200" MZ.Sequence.PreviewRenderingClassID="1061109567" MZ.Sequence.PreviewRenderingPresetCodec="1634755443" MZ.Sequence.PreviewRenderingPresetPath="EncoderPresets/SequencePreview/35d109db-457b-43c1-9452-9cb7be9f121c/QuickTime.epr" MZ.Sequence.PreviewUseMaxRenderQuality="false" MZ.Sequence.PreviewUseMaxBitDepth="false" MZ.Sequence.EditingModeGUID="35d109db-457b-43c1-9452-9cb7be9f121c" MZ.Sequence.VideoTimeDisplayFormat="102" MZ.WorkOutPoint="15239249625600" MZ.WorkInPoint="0" explodedTracks="true">
						<uuid>1677a911-d174-4805-b0de-addacb7cf3f1</uuid>
						<duration>5810</duration>
						<rate>
							<timebase>30</timebase>
							<ntsc>TRUE</ntsc>
						</rate>
						<name>ATM_EYECANDY_240</name>
						<media>
							<video>
								<format>
									<samplecharacteristics>
										<rate>
											<timebase>30</timebase>
											<ntsc>TRUE</ntsc>
										</rate>
										<codec>
											<name>Apple ProRes 422</name>
											<appspecificdata>
												<appname>Final Cut Pro</appname>
												<appmanufacturer>Apple Inc.</appmanufacturer>
												<appversion>7.0</appversion>
												<data>
													<qtcodec>
														<codecname>Apple ProRes 422</codecname>
														<codectypename>Apple ProRes 422</codectypename>
														<codectypecode>apcn</codectypecode>
														<codecvendorcode>appl</codecvendorcode>
														<spatialquality>1024</spatialquality>
														<temporalquality>0</temporalquality>
														<keyframerate>0</keyframerate>
														<datarate>0</datarate>
													</qtcodec>
												</data>
											</appspecificdata>
										</codec>
										<width>1920</width>
										<height>1080</height>
										<anamorphic>FALSE</anamorphic>
										<pixelaspectratio>square</pixelaspectratio>
										<fielddominance>none</fielddominance>
										<colordepth>24</colordepth>
									</samplecharacteristics>
								</format>
								<track TL.SQTrackShy="0" TL.SQTrackExpandedHeight="25" TL.SQTrackExpanded="0" MZ.TrackTargeted="1">
									<clipitem id="clipitem-54">
										<masterclipid>masterclip-25</masterclipid>
										<name>Nature Never Tasted So Good_1</name>
										<enabled>TRUE</enabled>
										<duration>1874</duration>
										<rate>
											<timebase>30</timebase>
											<ntsc>TRUE</ntsc>
										</rate>
										<start>82</start>
										<end>1941</end>
										<in>0</in>
										<out>1859</out>
										<pproTicksIn>0</pproTicksIn>
										<pproTicksOut>15756265324800</pproTicksOut>
										<sequence id="sequence-8" TL.SQAudioVisibleBase="0" TL.SQVideoVisibleBase="0" TL.SQVisibleBaseTime="0" TL.SQAVDividerPosition="0.5" TL.SQHideShyTracks="0" TL.SQHeaderWidth="236" TL.SQDataTrackViewControlState="0" Monitor.ProgramZoomOut="15756265324800" Monitor.ProgramZoomIn="0" TL.SQTimePerPixel="0.072184793070243544" AM.TrackVScrollPosition="0" AM.TrackScrollPosition="0" MZ.EditLine="6271993728000" MZ.Sequence.PreviewFrameSizeHeight="1080" MZ.Sequence.PreviewFrameSizeWidth="1920" MZ.Sequence.AudioTimeDisplayFormat="200" MZ.Sequence.PreviewRenderingClassID="1061109567" MZ.Sequence.PreviewRenderingPresetCodec="1634755443" MZ.Sequence.PreviewRenderingPresetPath="EncoderPresets/SequencePreview/35d109db-457b-43c1-9452-9cb7be9f121c/QuickTime.epr" MZ.Sequence.PreviewUseMaxRenderQuality="false" MZ.Sequence.PreviewUseMaxBitDepth="false" MZ.Sequence.EditingModeGUID="35d109db-457b-43c1-9452-9cb7be9f121c" MZ.Sequence.VideoTimeDisplayFormat="102" MZ.WorkOutPoint="1262874412800" MZ.WorkInPoint="0">
											<duration>1859</duration>
											<rate>
												<timebase>30</timebase>
												<ntsc>TRUE</ntsc>
											</rate>
											<name>FND_Nature Never Tasted So Good_1</name>
											<media>
												<video>
													<format>
														<samplecharacteristics>
															<rate>
																<timebase>30</timebase>
																<ntsc>TRUE</ntsc>
															</rate>
															<codec>
																<name>Apple ProRes 422</name>
																<appspecificdata>
																	<appname>Final Cut Pro</appname>
																	<appmanufacturer>Apple Inc.</appmanufacturer>
																	<appversion>7.0</appversion>
																	<data>
																		<qtcodec>
																			<codecname>Apple ProRes 422</codecname>
																			<codectypename>Apple ProRes 422</codectypename>
																			<codectypecode>apcn</codectypecode>
																			<codecvendorcode>appl</codecvendorcode>
																			<spatialquality>1024</spatialquality>
																			<temporalquality>0</temporalquality>
																			<keyframerate>0</keyframerate>
																			<datarate>0</datarate>
																		</qtcodec>
																	</data>
																</appspecificdata>
															</codec>
															<width>1920</width>
															<height>1080</height>
															<anamorphic>FALSE</anamorphic>
															<pixelaspectratio>square</pixelaspectratio>
															<fielddominance>none</fielddominance>
															<colordepth>24</colordepth>
														</samplecharacteristics>
													</format>
													<track TL.SQTrackShy="0" TL.SQTrackExpandedHeight="25" TL.SQTrackExpanded="0" MZ.TrackTargeted="1">
														<clipitem id="clipitem-55">
															<masterclipid>masterclip-26</masterclipid>
															<name>(Tuba Geçkil)_Realistic Nature and Jelly Cake_Pc3GNzhoGsc_YT.mp4</name>
															<enabled>TRUE</enabled>
															<duration>8868</duration>
															<rate>
																<timebase>30</timebase>
																<ntsc>TRUE</ntsc>
															</rate>
															<start>0</start>
															<end>19</end>
															<in>14</in>
															<out>33</out>
															<pproTicksIn>118659340800</pproTicksIn>
															<pproTicksOut>279697017600</pproTicksOut>
															<alphatype>none</alphatype>
															<pixelaspectratio>square</pixelaspectratio>
															<anamorphic>FALSE</anamorphic>
															<file id="file-20">
																<name>(Tuba Geçkil)_Realistic Nature and Jelly Cake_Pc3GNzhoGsc_YT.mp4</name>
																<pathurl>file://localhost/Volumes/ATM%201/EYE%20CANDY/8%3a14%3a23/3_Raw%20Files/(Tuba%20Gec%cc%a7kil)_Realistic%20Nature%20and%20Jelly%20Cake_Pc3GNzhoGsc_YT.mp4</pathurl>
																<rate>
																	<timebase>60</timebase>
																	<ntsc>TRUE</ntsc>
																</rate>
																<duration>17736</duration>
																<timecode>
																	<rate>
																		<timebase>60</timebase>
																		<ntsc>TRUE</ntsc>
																	</rate>
																	<string>00:00:00:00</string>
																	<frame>0</frame>
																	<displayformat>NDF</displayformat>
																</timecode>
																<media>
																	<video>
																		<samplecharacteristics>
																			<rate>
																				<timebase>60</timebase>
																				<ntsc>TRUE</ntsc>
																			</rate>
																			<width>1920</width>
																			<height>1080</height>
																			<anamorphic>FALSE</anamorphic>
																			<pixelaspectratio>square</pixelaspectratio>
																			<fielddominance>none</fielddominance>
																		</samplecharacteristics>
																	</video>
																	<audio>
																		<samplecharacteristics>
																			<depth>16</depth>
																			<samplerate>44100</samplerate>
																		</samplecharacteristics>
																		<channelcount>2</channelcount>
																	</audio>
																</media>
															</file>
															<logginginfo>
																<description>Realistic Nature and Jelly Cake</description>
																<scene></scene>
																<shottake></shottake>
																<lognote>https://www.youtube.com/watch?v=Pc3GNzhoGsc</lognote>
																<good></good>
																<originalvideofilename></originalvideofilename>
																<originalaudiofilename></originalaudiofilename>
															</logginginfo>
															<colorinfo>
																<lut></lut>
																<lut1></lut1>
																<asc_sop></asc_sop>
																<asc_sat></asc_sat>
																<lut2></lut2>
															</colorinfo>
															<labels>
																<label2>Iris</label2>
															</labels>
														</clipitem>
														<clipitem id="clipitem-56">
															<masterclipid>masterclip-26</masterclipid>
															<name>(Tuba Geçkil)_Realistic Nature and Jelly Cake_Pc3GNzhoGsc_YT.mp4</name>
															<enabled>TRUE</enabled>
															<duration>8868</duration>
															<rate>
																<timebase>30</timebase>
																<ntsc>TRUE</ntsc>
															</rate>
															<start>19</start>
															<end>40</end>
															<in>47</in>
															<out>68</out>
															<pproTicksIn>398356358400</pproTicksIn>
															<pproTicksOut>576345369600</pproTicksOut>
															<alphatype>none</alphatype>
															<file id="file-20"/>
															<logginginfo>
																<description>Realistic Nature and Jelly Cake</description>
																<scene></scene>
																<shottake></shottake>
																<lognote>https://www.youtube.com/watch?v=Pc3GNzhoGsc</lognote>
																<good></good>
																<originalvideofilename></originalvideofilename>
																<originalaudiofilename></originalaudiofilename>
															</logginginfo>
															<colorinfo>
																<lut></lut>
																<lut1></lut1>
																<asc_sop></asc_sop>
																<asc_sat></asc_sat>
																<lut2></lut2>
															</colorinfo>
															<labels>
																<label2>Iris</label2>
															</labels>
														</clipitem>
														<clipitem id="clipitem-57">
															<masterclipid>masterclip-26</masterclipid>
															<name>(Tuba Geçkil)_Realistic Nature and Jelly Cake_Pc3GNzhoGsc_YT.mp4</name>
															<enabled>TRUE</enabled>
															<duration>8868</duration>
															<rate>
																<timebase>30</timebase>
																<ntsc>TRUE</ntsc>
															</rate>
															<start>40</start>
															<end>168</end>
															<in>84</in>
															<out>212</out>
															<pproTicksIn>711956044800</pproTicksIn>
															<pproTicksOut>1796841446400</pproTicksOut>
															<alphatype>none</alphatype>
															<file id="file-20"/>
															<logginginfo>
																<description>Realistic Nature and Jelly Cake</description>
																<scene></scene>
																<shottake></shottake>
																<lognote>https://www.youtube.com/watch?v=Pc3GNzhoGsc</lognote>
																<good></good>
																<originalvideofilename></originalvideofilename>
																<originalaudiofilename></originalaudiofilename>
															</logginginfo>
															<colorinfo>
																<lut></lut>
																<lut1></lut1>
																<asc_sop></asc_sop>
																<asc_sat></asc_sat>
																<lut2></lut2>
															</colorinfo>
															<labels>
																<label2>Iris</label2>
															</labels>
														</clipitem>
														<clipitem id="clipitem-58">
															<masterclipid>masterclip-26</masterclipid>
															<name>(Tuba Geçkil)_Realistic Nature and Jelly Cake_Pc3GNzhoGsc_YT.mp4</name>
															<enabled>TRUE</enabled>
															<duration>8868</duration>
															<rate>
																<timebase>30</timebase>
																<ntsc>TRUE</ntsc>
															</rate>
															<start>168</start>
															<end>217</end>
															<in>1022</in>
															<out>1071</out>
															<pproTicksIn>8662131878400</pproTicksIn>
															<pproTicksOut>9077439571200</pproTicksOut>
															<alphatype>none</alphatype>
															<file id="file-20"/>
															<logginginfo>
																<description>Realistic Nature and Jelly Cake</description>
																<scene></scene>
																<shottake></shottake>
																<lognote>https://www.youtube.com/watch?v=Pc3GNzhoGsc</lognote>
																<good></good>
																<originalvideofilename></originalvideofilename>
																<originalaudiofilename></originalaudiofilename>
															</logginginfo>
															<colorinfo>
																<lut></lut>
																<lut1></lut1>
																<asc_sop></asc_sop>
																<asc_sat></asc_sat>
																<lut2></lut2>
															</colorinfo>
															<labels>
																<label2>Iris</label2>
															</labels>
														</clipitem>
														<clipitem id="clipitem-59">
															<masterclipid>masterclip-26</masterclipid>
															<name>(Tuba Geçkil)_Realistic Nature and Jelly Cake_Pc3GNzhoGsc_YT.mp4</name>
															<enabled>TRUE</enabled>
															<duration>8868</duration>
															<rate>
																<timebase>30</timebase>
																<ntsc>TRUE</ntsc>
															</rate>
															<start>217</start>
															<end>284</end>
															<in>1166</in>
															<out>1233</out>
															<pproTicksIn>9882627955200</pproTicksIn>
															<pproTicksOut>10450497657600</pproTicksOut>
															<alphatype>none</alphatype>
															<file id="file-20"/>
															<logginginfo>
																<description>Realistic Nature and Jelly Cake</description>
																<scene></scene>
																<shottake></shottake>
																<lognote>https://www.youtube.com/watch?v=Pc3GNzhoGsc</lognote>
																<good></good>
																<originalvideofilename></originalvideofilename>
																<originalaudiofilename></originalaudiofilename>
															</logginginfo>
															<colorinfo>
																<lut></lut>
																<lut1></lut1>
																<asc_sop></asc_sop>
																<asc_sat></asc_sat>
																<lut2></lut2>
															</colorinfo>
															<labels>
																<label2>Iris</label2>
															</labels>
														</clipitem>
														<clipitem id="clipitem-60">
															<masterclipid>masterclip-26</masterclipid>
															<name>(Tuba Geçkil)_Realistic Nature and Jelly Cake_Pc3GNzhoGsc_YT.mp4</name>
															<enabled>TRUE</enabled>
															<duration>8868</duration>
															<rate>
																<timebase>30</timebase>
																<ntsc>TRUE</ntsc>
															</rate>
															<start>284</start>
															<end>359</end>
															<in>1483</in>
															<out>1558</out>
															<pproTicksIn>12569414457600</pproTicksIn>
															<pproTicksOut>13205089497600</pproTicksOut>
															<alphatype>none</alphatype>
															<file id="file-20"/>
															<logginginfo>
																<description>Realistic Nature and Jelly Cake</description>
																<scene></scene>
																<shottake></shottake>
																<lognote>https://www.youtube.com/watch?v=Pc3GNzhoGsc</lognote>
																<good></good>
																<originalvideofilename></originalvideofilename>
																<originalaudiofilename></originalaudiofilename>
															</logginginfo>
															<colorinfo>
																<lut></lut>
																<lut1></lut1>
																<asc_sop></asc_sop>
																<asc_sat></asc_sat>
																<lut2></lut2>
															</colorinfo>
															<labels>
																<label2>Iris</label2>
															</labels>
														</clipitem>
														<clipitem id="clipitem-61">
															<masterclipid>masterclip-26</masterclipid>
															<name>(Tuba Geçkil)_Realistic Nature and Jelly Cake_Pc3GNzhoGsc_YT.mp4</name>
															<enabled>TRUE</enabled>
															<duration>8868</duration>
															<rate>
																<timebase>30</timebase>
																<ntsc>TRUE</ntsc>
															</rate>
															<start>359</start>
															<end>574</end>
															<in>1691</in>
															<out>1906</out>
															<pproTicksIn>14332353235200</pproTicksIn>
															<pproTicksOut>16154621683200</pproTicksOut>
															<alphatype>none</alphatype>
															<file id="file-20"/>
															<logginginfo>
																<description>Realistic Nature and Jelly Cake</description>
																<scene></scene>
																<shottake></shottake>
																<lognote>https://www.youtube.com/watch?v=Pc3GNzhoGsc</lognote>
																<good></good>
																<originalvideofilename></originalvideofilename>
																<originalaudiofilename></originalaudiofilename>
															</logginginfo>
															<colorinfo>
																<lut></lut>
																<lut1></lut1>
																<asc_sop></asc_sop>
																<asc_sat></asc_sat>
																<lut2></lut2>
															</colorinfo>
															<labels>
																<label2>Iris</label2>
															</labels>
														</clipitem>
														<clipitem id="clipitem-62">
															<masterclipid>masterclip-26</masterclipid>
															<name>(Tuba Geçkil)_Realistic Nature and Jelly Cake_Pc3GNzhoGsc_YT.mp4</name>
															<enabled>TRUE</enabled>
															<duration>8868</duration>
															<rate>
																<timebase>30</timebase>
																<ntsc>TRUE</ntsc>
															</rate>
															<start>574</start>
															<end>649</end>
															<in>2101</in>
															<out>2176</out>
															<pproTicksIn>17807376787200</pproTicksIn>
															<pproTicksOut>18443051827200</pproTicksOut>
															<alphatype>none</alphatype>
															<file id="file-20"/>
															<logginginfo>
																<description>Realistic Nature and Jelly Cake</description>
																<scene></scene>
																<shottake></shottake>
																<lognote>https://www.youtube.com/watch?v=Pc3GNzhoGsc</lognote>
																<good></good>
																<originalvideofilename></originalvideofilename>
																<originalaudiofilename></originalaudiofilename>
															</logginginfo>
															<colorinfo>
																<lut></lut>
																<lut1></lut1>
																<asc_sop></asc_sop>
																<asc_sat></asc_sat>
																<lut2></lut2>
															</colorinfo>
															<labels>
																<label2>Iris</label2>
															</labels>
														</clipitem>
														<clipitem id="clipitem-63">
															<masterclipid>masterclip-26</masterclipid>
															<name>(Tuba Geçkil)_Realistic Nature and Jelly Cake_Pc3GNzhoGsc_YT.mp4</name>
															<enabled>TRUE</enabled>
															<duration>8868</duration>
															<rate>
																<timebase>30</timebase>
																<ntsc>TRUE</ntsc>
															</rate>
															<start>649</start>
															<end>756</end>
															<in>2876</in>
															<out>2983</out>
															<pproTicksIn>24376018867200</pproTicksIn>
															<pproTicksOut>25282915257600</pproTicksOut>
															<alphatype>none</alphatype>
															<file id="file-20"/>
															<logginginfo>
																<description>Realistic Nature and Jelly Cake</description>
																<scene></scene>
																<shottake></shottake>
																<lognote>https://www.youtube.com/watch?v=Pc3GNzhoGsc</lognote>
																<good></good>
																<originalvideofilename></originalvideofilename>
																<originalaudiofilename></originalaudiofilename>
															</logginginfo>
															<colorinfo>
																<lut></lut>
																<lut1></lut1>
																<asc_sop></asc_sop>
																<asc_sat></asc_sat>
																<lut2></lut2>
															</colorinfo>
															<labels>
																<label2>Iris</label2>
															</labels>
														</clipitem>
														<clipitem id="clipitem-64">
															<masterclipid>masterclip-26</masterclipid>
															<name>(Tuba Geçkil)_Realistic Nature and Jelly Cake_Pc3GNzhoGsc_YT.mp4</name>
															<enabled>TRUE</enabled>
															<duration>8868</duration>
															<rate>
																<timebase>30</timebase>
																<ntsc>TRUE</ntsc>
															</rate>
															<start>756</start>
															<end>856</end>
															<in>3157</in>
															<out>3257</out>
															<pproTicksIn>26757681350400</pproTicksIn>
															<pproTicksOut>27605248070400</pproTicksOut>
															<alphatype>none</alphatype>
															<file id="file-20"/>
															<logginginfo>
																<description>Realistic Nature and Jelly Cake</description>
																<scene></scene>
																<shottake></shottake>
																<lognote>https://www.youtube.com/watch?v=Pc3GNzhoGsc</lognote>
																<good></good>
																<originalvideofilename></originalvideofilename>
																<originalaudiofilename></originalaudiofilename>
															</logginginfo>
															<colorinfo>
																<lut></lut>
																<lut1></lut1>
																<asc_sop></asc_sop>
																<asc_sat></asc_sat>
																<lut2></lut2>
															</colorinfo>
															<labels>
																<label2>Iris</label2>
															</labels>
														</clipitem>
														<clipitem id="clipitem-65">
															<masterclipid>masterclip-26</masterclipid>
															<name>(Tuba Geçkil)_Realistic Nature and Jelly Cake_Pc3GNzhoGsc_YT.mp4</name>
															<enabled>TRUE</enabled>
															<duration>8868</duration>
															<rate>
																<timebase>30</timebase>
																<ntsc>TRUE</ntsc>
															</rate>
															<start>856</start>
															<end>942</end>
															<in>3610</in>
															<out>3696</out>
															<pproTicksIn>30597158592000</pproTicksIn>
															<pproTicksOut>31326065971200</pproTicksOut>
															<alphatype>none</alphatype>
															<file id="file-20"/>
															<logginginfo>
																<description>Realistic Nature and Jelly Cake</description>
																<scene></scene>
																<shottake></shottake>
																<lognote>https://www.youtube.com/watch?v=Pc3GNzhoGsc</lognote>
																<good></good>
																<originalvideofilename></originalvideofilename>
																<originalaudiofilename></originalaudiofilename>
															</logginginfo>
															<colorinfo>
																<lut></lut>
																<lut1></lut1>
																<asc_sop></asc_sop>
																<asc_sat></asc_sat>
																<lut2></lut2>
															</colorinfo>
															<labels>
																<label2>Iris</label2>
															</labels>
														</clipitem>
														<clipitem id="clipitem-66">
															<masterclipid>masterclip-26</masterclipid>
															<name>(Tuba Geçkil)_Realistic Nature and Jelly Cake_Pc3GNzhoGsc_YT.mp4</name>
															<enabled>TRUE</enabled>
															<duration>8868</duration>
															<rate>
																<timebase>30</timebase>
																<ntsc>TRUE</ntsc>
															</rate>
															<start>942</start>
															<end>1024</end>
															<in>4182</in>
															<out>4264</out>
															<pproTicksIn>35445240230400</pproTicksIn>
															<pproTicksOut>36140244940800</pproTicksOut>
															<alphatype>none</alphatype>
															<file id="file-20"/>
															<logginginfo>
																<description>Realistic Nature and Jelly Cake</description>
																<scene></scene>
																<shottake></shottake>
																<lognote>https://www.youtube.com/watch?v=Pc3GNzhoGsc</lognote>
																<good></good>
																<originalvideofilename></originalvideofilename>
																<originalaudiofilename></originalaudiofilename>
															</logginginfo>
															<colorinfo>
																<lut></lut>
																<lut1></lut1>
																<asc_sop></asc_sop>
																<asc_sat></asc_sat>
																<lut2></lut2>
															</colorinfo>
															<labels>
																<label2>Iris</label2>
															</labels>
														</clipitem>
														<clipitem id="clipitem-67">
															<masterclipid>masterclip-26</masterclipid>
															<name>(Tuba Geçkil)_Realistic Nature and Jelly Cake_Pc3GNzhoGsc_YT.mp4</name>
															<enabled>TRUE</enabled>
															<duration>8868</duration>
															<rate>
																<timebase>30</timebase>
																<ntsc>TRUE</ntsc>
															</rate>
															<start>1024</start>
															<end>1090</end>
															<in>4652</in>
															<out>4718</out>
															<pproTicksIn>39428803814400</pproTicksIn>
															<pproTicksOut>39988197849600</pproTicksOut>
															<alphatype>none</alphatype>
															<file id="file-20"/>
															<logginginfo>
																<description>Realistic Nature and Jelly Cake</description>
																<scene></scene>
																<shottake></shottake>
																<lognote>https://www.youtube.com/watch?v=Pc3GNzhoGsc</lognote>
																<good></good>
																<originalvideofilename></originalvideofilename>
																<originalaudiofilename></originalaudiofilename>
															</logginginfo>
															<colorinfo>
																<lut></lut>
																<lut1></lut1>
																<asc_sop></asc_sop>
																<asc_sat></asc_sat>
																<lut2></lut2>
															</colorinfo>
															<labels>
																<label2>Iris</label2>
															</labels>
														</clipitem>
														<clipitem id="clipitem-68">
															<masterclipid>masterclip-26</masterclipid>
															<name>(Tuba Geçkil)_Realistic Nature and Jelly Cake_Pc3GNzhoGsc_YT.mp4</name>
															<enabled>TRUE</enabled>
															<duration>8868</duration>
															<rate>
																<timebase>30</timebase>
																<ntsc>TRUE</ntsc>
															</rate>
															<start>1090</start>
															<end>1158</end>
															<in>4751</in>
															<out>4819</out>
															<pproTicksIn>40267894867200</pproTicksIn>
															<pproTicksOut>40844240236800</pproTicksOut>
															<alphatype>none</alphatype>
															<file id="file-20"/>
															<logginginfo>
																<description>Realistic Nature and Jelly Cake</description>
																<scene></scene>
																<shottake></shottake>
																<lognote>https://www.youtube.com/watch?v=Pc3GNzhoGsc</lognote>
																<good></good>
																<originalvideofilename></originalvideofilename>
																<originalaudiofilename></originalaudiofilename>
															</logginginfo>
															<colorinfo>
																<lut></lut>
																<lut1></lut1>
																<asc_sop></asc_sop>
																<asc_sat></asc_sat>
																<lut2></lut2>
															</colorinfo>
															<labels>
																<label2>Iris</label2>
															</labels>
														</clipitem>
														<clipitem id="clipitem-69">
															<masterclipid>masterclip-26</masterclipid>
															<name>(Tuba Geçkil)_Realistic Nature and Jelly Cake_Pc3GNzhoGsc_YT.mp4</name>
															<enabled>TRUE</enabled>
															<duration>8868</duration>
															<rate>
																<timebase>30</timebase>
																<ntsc>TRUE</ntsc>
															</rate>
															<start>1158</start>
															<end>1210</end>
															<in>4920</in>
															<out>4972</out>
															<pproTicksIn>41700282624000</pproTicksIn>
															<pproTicksOut>42141017318400</pproTicksOut>
															<alphatype>none</alphatype>
															<file id="file-20"/>
															<logginginfo>
																<description>Realistic Nature and Jelly Cake</description>
																<scene></scene>
																<shottake></shottake>
																<lognote>https://www.youtube.com/watch?v=Pc3GNzhoGsc</lognote>
																<good></good>
																<originalvideofilename></originalvideofilename>
																<originalaudiofilename></originalaudiofilename>
															</logginginfo>
															<colorinfo>
																<lut></lut>
																<lut1></lut1>
																<asc_sop></asc_sop>
																<asc_sat></asc_sat>
																<lut2></lut2>
															</colorinfo>
															<labels>
																<label2>Iris</label2>
															</labels>
														</clipitem>
														<clipitem id="clipitem-70">
															<masterclipid>masterclip-26</masterclipid>
															<name>(Tuba Geçkil)_Realistic Nature and Jelly Cake_Pc3GNzhoGsc_YT.mp4</name>
															<enabled>TRUE</enabled>
															<duration>8868</duration>
															<rate>
																<timebase>30</timebase>
																<ntsc>TRUE</ntsc>
															</rate>
															<start>1210</start>
															<end>1256</end>
															<in>5028</in>
															<out>5074</out>
															<pproTicksIn>42615654681600</pproTicksIn>
															<pproTicksOut>43005535372800</pproTicksOut>
															<alphatype>none</alphatype>
															<file id="file-20"/>
															<logginginfo>
																<description>Realistic Nature and Jelly Cake</description>
																<scene></scene>
																<shottake></shottake>
																<lognote>https://www.youtube.com/watch?v=Pc3GNzhoGsc</lognote>
																<good></good>
																<originalvideofilename></originalvideofilename>
																<originalaudiofilename></originalaudiofilename>
															</logginginfo>
															<colorinfo>
																<lut></lut>
																<lut1></lut1>
																<asc_sop></asc_sop>
																<asc_sat></asc_sat>
																<lut2></lut2>
															</colorinfo>
															<labels>
																<label2>Iris</label2>
															</labels>
														</clipitem>
														<clipitem id="clipitem-71">
															<masterclipid>masterclip-26</masterclipid>
															<name>(Tuba Geçkil)_Realistic Nature and Jelly Cake_Pc3GNzhoGsc_YT.mp4</name>
															<enabled>TRUE</enabled>
															<duration>8868</duration>
															<rate>
																<timebase>30</timebase>
																<ntsc>TRUE</ntsc>
															</rate>
															<start>1256</start>
															<end>1299</end>
															<in>5097</in>
															<out>5140</out>
															<pproTicksIn>43200475718400</pproTicksIn>
															<pproTicksOut>43564929408000</pproTicksOut>
															<alphatype>none</alphatype>
															<file id="file-20"/>
															<logginginfo>
																<description>Realistic Nature and Jelly Cake</description>
																<scene></scene>
																<shottake></shottake>
																<lognote>https://www.youtube.com/watch?v=Pc3GNzhoGsc</lognote>
																<good></good>
																<originalvideofilename></originalvideofilename>
																<originalaudiofilename></originalaudiofilename>
															</logginginfo>
															<colorinfo>
																<lut></lut>
																<lut1></lut1>
																<asc_sop></asc_sop>
																<asc_sat></asc_sat>
																<lut2></lut2>
															</colorinfo>
															<labels>
																<label2>Iris</label2>
															</labels>
														</clipitem>
														<clipitem id="clipitem-72">
															<masterclipid>masterclip-26</masterclipid>
															<name>(Tuba Geçkil)_Realistic Nature and Jelly Cake_Pc3GNzhoGsc_YT.mp4</name>
															<enabled>TRUE</enabled>
															<duration>8868</duration>
															<rate>
																<timebase>30</timebase>
																<ntsc>TRUE</ntsc>
															</rate>
															<start>1299</start>
															<end>1376</end>
															<in>5289</in>
															<out>5366</out>
															<pproTicksIn>44827803820800</pproTicksIn>
															<pproTicksOut>45480430195200</pproTicksOut>
															<alphatype>none</alphatype>
															<file id="file-20"/>
															<logginginfo>
																<description>Realistic Nature and Jelly Cake</description>
																<scene></scene>
																<shottake></shottake>
																<lognote>https://www.youtube.com/watch?v=Pc3GNzhoGsc</lognote>
																<good></good>
																<originalvideofilename></originalvideofilename>
																<originalaudiofilename></originalaudiofilename>
															</logginginfo>
															<colorinfo>
																<lut></lut>
																<lut1></lut1>
																<asc_sop></asc_sop>
																<asc_sat></asc_sat>
																<lut2></lut2>
															</colorinfo>
															<labels>
																<label2>Iris</label2>
															</labels>
														</clipitem>
														<clipitem id="clipitem-73">
															<masterclipid>masterclip-26</masterclipid>
															<name>(Tuba Geçkil)_Realistic Nature and Jelly Cake_Pc3GNzhoGsc_YT.mp4</name>
															<enabled>TRUE</enabled>
															<duration>8868</duration>
															<rate>
																<timebase>30</timebase>
																<ntsc>TRUE</ntsc>
															</rate>
															<start>1376</start>
															<end>1459</end>
															<in>5728</in>
															<out>5811</out>
															<pproTicksIn>48548621721600</pproTicksIn>
															<pproTicksOut>49252102099200</pproTicksOut>
															<alphatype>none</alphatype>
															<file id="file-20"/>
															<logginginfo>
																<description>Realistic Nature and Jelly Cake</description>
																<scene></scene>
																<shottake></shottake>
																<lognote>https://www.youtube.com/watch?v=Pc3GNzhoGsc</lognote>
																<good></good>
																<originalvideofilename></originalvideofilename>
																<originalaudiofilename></originalaudiofilename>
															</logginginfo>
															<colorinfo>
																<lut></lut>
																<lut1></lut1>
																<asc_sop></asc_sop>
																<asc_sat></asc_sat>
																<lut2></lut2>
															</colorinfo>
															<labels>
																<label2>Iris</label2>
															</labels>
														</clipitem>
														<clipitem id="clipitem-74">
															<masterclipid>masterclip-26</masterclipid>
															<name>(Tuba Geçkil)_Realistic Nature and Jelly Cake_Pc3GNzhoGsc_YT.mp4</name>
															<enabled>TRUE</enabled>
															<duration>8868</duration>
															<rate>
																<timebase>30</timebase>
																<ntsc>TRUE</ntsc>
															</rate>
															<start>1459</start>
															<end>1499</end>
															<in>5953</in>
															<out>5993</out>
															<pproTicksIn>50455646841600</pproTicksIn>
															<pproTicksOut>50794673529600</pproTicksOut>
															<alphatype>none</alphatype>
															<file id="file-20"/>
															<logginginfo>
																<description>Realistic Nature and Jelly Cake</description>
																<scene></scene>
																<shottake></shottake>
																<lognote>https://www.youtube.com/watch?v=Pc3GNzhoGsc</lognote>
																<good></good>
																<originalvideofilename></originalvideofilename>
																<originalaudiofilename></originalaudiofilename>
															</logginginfo>
															<colorinfo>
																<lut></lut>
																<lut1></lut1>
																<asc_sop></asc_sop>
																<asc_sat></asc_sat>
																<lut2></lut2>
															</colorinfo>
															<labels>
																<label2>Iris</label2>
															</labels>
														</clipitem>
														<clipitem id="clipitem-75">
															<masterclipid>masterclip-26</masterclipid>
															<name>(Tuba Geçkil)_Realistic Nature and Jelly Cake_Pc3GNzhoGsc_YT.mp4</name>
															<enabled>TRUE</enabled>
															<duration>8868</duration>
															<rate>
																<timebase>30</timebase>
																<ntsc>TRUE</ntsc>
															</rate>
															<start>1499</start>
															<end>1623</end>
															<in>6018</in>
															<out>6142</out>
															<pproTicksIn>51006565209600</pproTicksIn>
															<pproTicksOut>52057547942400</pproTicksOut>
															<alphatype>none</alphatype>
															<file id="file-20"/>
															<logginginfo>
																<description>Realistic Nature and Jelly Cake</description>
																<scene></scene>
																<shottake></shottake>
																<lognote>https://www.youtube.com/watch?v=Pc3GNzhoGsc</lognote>
																<good></good>
																<originalvideofilename></originalvideofilename>
																<originalaudiofilename></originalaudiofilename>
															</logginginfo>
															<colorinfo>
																<lut></lut>
																<lut1></lut1>
																<asc_sop></asc_sop>
																<asc_sat></asc_sat>
																<lut2></lut2>
															</colorinfo>
															<labels>
																<label2>Iris</label2>
															</labels>
														</clipitem>
														<clipitem id="clipitem-76">
															<masterclipid>masterclip-26</masterclipid>
															<name>(Tuba Geçkil)_Realistic Nature and Jelly Cake_Pc3GNzhoGsc_YT.mp4</name>
															<enabled>TRUE</enabled>
															<duration>8868</duration>
															<rate>
																<timebase>30</timebase>
																<ntsc>TRUE</ntsc>
															</rate>
															<start>1623</start>
															<end>1714</end>
															<in>6591</in>
															<out>6682</out>
															<pproTicksIn>55863122515200</pproTicksIn>
															<pproTicksOut>56634408230400</pproTicksOut>
															<alphatype>none</alphatype>
															<file id="file-20"/>
															<logginginfo>
																<description>Realistic Nature and Jelly Cake</description>
																<scene></scene>
																<shottake></shottake>
																<lognote>https://www.youtube.com/watch?v=Pc3GNzhoGsc</lognote>
																<good></good>
																<originalvideofilename></originalvideofilename>
																<originalaudiofilename></originalaudiofilename>
															</logginginfo>
															<colorinfo>
																<lut></lut>
																<lut1></lut1>
																<asc_sop></asc_sop>
																<asc_sat></asc_sat>
																<lut2></lut2>
															</colorinfo>
															<labels>
																<label2>Iris</label2>
															</labels>
														</clipitem>
														<clipitem id="clipitem-77">
															<masterclipid>masterclip-26</masterclipid>
															<name>(Tuba Geçkil)_Realistic Nature and Jelly Cake_Pc3GNzhoGsc_YT.mp4</name>
															<enabled>TRUE</enabled>
															<duration>8868</duration>
															<rate>
																<timebase>30</timebase>
																<ntsc>TRUE</ntsc>
															</rate>
															<start>1714</start>
															<end>1859</end>
															<in>8629</in>
															<out>8774</out>
															<pproTicksIn>73136532268800</pproTicksIn>
															<pproTicksOut>74365504012800</pproTicksOut>
															<alphatype>none</alphatype>
															<file id="file-20"/>
															<logginginfo>
																<description>Realistic Nature and Jelly Cake</description>
																<scene></scene>
																<shottake></shottake>
																<lognote>https://www.youtube.com/watch?v=Pc3GNzhoGsc</lognote>
																<good></good>
																<originalvideofilename></originalvideofilename>
																<originalaudiofilename></originalaudiofilename>
															</logginginfo>
															<colorinfo>
																<lut></lut>
																<lut1></lut1>
																<asc_sop></asc_sop>
																<asc_sat></asc_sat>
																<lut2></lut2>
															</colorinfo>
															<labels>
																<label2>Iris</label2>
															</labels>
														</clipitem>
														<enabled>TRUE</enabled>
														<locked>FALSE</locked>
													</track>
													<track TL.SQTrackShy="0" TL.SQTrackExpandedHeight="25" TL.SQTrackExpanded="0" MZ.TrackTargeted="0">
														<clipitem id="clipitem-78">
															<masterclipid>masterclip-27</masterclipid>
															<name>Tuba Geçkil</name>
															<enabled>TRUE</enabled>
															<duration>5844</duration>
															<rate>
																<timebase>30</timebase>
																<ntsc>TRUE</ntsc>
															</rate>
															<start>0</start>
															<end>1859</end>
															<in>0</in>
															<out>1859</out>
															<pproTicksIn>0</pproTicksIn>
															<pproTicksOut>15756265324800</pproTicksOut>
															<alphatype>straight</alphatype>
															<pixelaspectratio>square</pixelaspectratio>
															<anamorphic>FALSE</anamorphic>
															<file id="file-21">
																<name>1080/AE Attribution.aep</name>
																<pathurl>file://localhost/Volumes/ATM%201/EYE%20CANDY/Project%20Template/5_Assets/AE%20Attribution.aep</pathurl>
																<rate>
																	<timebase>30</timebase>
																	<ntsc>TRUE</ntsc>
																</rate>
																<duration>5844</duration>
																<timecode>
																	<rate>
																		<timebase>30</timebase>
																		<ntsc>TRUE</ntsc>
																	</rate>
																	<string>00;00;00;00</string>
																	<frame>0</frame>
																	<displayformat>DF</displayformat>
																</timecode>
																<media>
																	<video>
																		<samplecharacteristics>
																			<rate>
																				<timebase>30</timebase>
																				<ntsc>TRUE</ntsc>
																			</rate>
																			<width>1920</width>
																			<height>1080</height>
																			<anamorphic>FALSE</anamorphic>
																			<pixelaspectratio>square</pixelaspectratio>
																			<fielddominance>lower</fielddominance>
																		</samplecharacteristics>
																	</video>
																</media>
															</file>
															<logginginfo>
																<description></description>
																<scene></scene>
																<shottake></shottake>
																<lognote></lognote>
																<good></good>
																<originalvideofilename></originalvideofilename>
																<originalaudiofilename></originalaudiofilename>
															</logginginfo>
															<colorinfo>
																<lut></lut>
																<lut1></lut1>
																<asc_sop></asc_sop>
																<asc_sat></asc_sat>
																<lut2></lut2>
															</colorinfo>
															<labels>
																<label2>Rose</label2>
															</labels>
														</clipitem>
														<enabled>TRUE</enabled>
														<locked>FALSE</locked>
													</track>
													<track TL.SQTrackShy="0" TL.SQTrackExpandedHeight="25" TL.SQTrackExpanded="0" MZ.TrackTargeted="0">
														<enabled>TRUE</enabled>
														<locked>FALSE</locked>
													</track>
													<track TL.SQTrackShy="0" TL.SQTrackExpandedHeight="25" TL.SQTrackExpanded="0" MZ.TrackTargeted="0">
														<enabled>TRUE</enabled>
														<locked>FALSE</locked>
													</track>
													<track TL.SQTrackShy="0" TL.SQTrackExpandedHeight="25" TL.SQTrackExpanded="0" MZ.TrackTargeted="0">
														<enabled>TRUE</enabled>
														<locked>FALSE</locked>
													</track>
													<track TL.SQTrackShy="0" TL.SQTrackExpandedHeight="25" TL.SQTrackExpanded="0" MZ.TrackTargeted="0">
														<enabled>TRUE</enabled>
														<locked>FALSE</locked>
													</track>
													<track TL.SQTrackShy="0" TL.SQTrackExpandedHeight="25" TL.SQTrackExpanded="0" MZ.TrackTargeted="0">
														<enabled>TRUE</enabled>
														<locked>FALSE</locked>
													</track>
													<track TL.SQTrackShy="0" TL.SQTrackExpandedHeight="25" TL.SQTrackExpanded="0" MZ.TrackTargeted="0">
														<enabled>TRUE</enabled>
														<locked>FALSE</locked>
													</track>
													<track TL.SQTrackShy="0" TL.SQTrackExpandedHeight="25" TL.SQTrackExpanded="0" MZ.TrackTargeted="0">
														<enabled>TRUE</enabled>
														<locked>FALSE</locked>
													</track>
													<track TL.SQTrackShy="0" TL.SQTrackExpandedHeight="25" TL.SQTrackExpanded="0" MZ.TrackTargeted="0">
														<enabled>TRUE</enabled>
														<locked>FALSE</locked>
													</track>
												</video>
												<audio>
													<numOutputChannels>2</numOutputChannels>
													<format>
														<samplecharacteristics>
															<depth>16</depth>
															<samplerate>48000</samplerate>
														</samplecharacteristics>
													</format>
													<outputs>
														<group>
															<index>1</index>
															<numchannels>1</numchannels>
															<downmix>0</downmix>
															<channel>
																<index>1</index>
															</channel>
														</group>
														<group>
															<index>2</index>
															<numchannels>1</numchannels>
															<downmix>0</downmix>
															<channel>
																<index>2</index>
															</channel>
														</group>
													</outputs>
													<track TL.SQTrackAudioKeyframeStyle="0" TL.SQTrackShy="0" TL.SQTrackExpandedHeight="25" TL.SQTrackExpanded="0" MZ.TrackTargeted="1" PannerCurrentValue="0.5" PannerIsInverted="true" PannerStartKeyframe="-91445760000000000,0.5,0,0,0,0,0,0" PannerName="Balance" currentExplodedTrackIndex="0" totalExplodedTrackCount="2" premiereTrackType="Stereo">
														<clipitem id="clipitem-79" premiereChannelType="stereo">
															<masterclipid>masterclip-28</masterclipid>
															<name>ES_paint him in 3d (Instrumental Version) - Ingrid Witt.mp3</name>
															<enabled>TRUE</enabled>
															<duration>5349</duration>
															<rate>
																<timebase>30</timebase>
																<ntsc>TRUE</ntsc>
															</rate>
															<start>0</start>
															<end>1859</end>
															<in>0</in>
															<out>1859</out>
															<pproTicksIn>0</pproTicksIn>
															<pproTicksOut>15756265324800</pproTicksOut>
															<file id="file-22">
																<name>ES_paint him in 3d (Instrumental Version) - Ingrid Witt.mp3</name>
																<pathurl>file://localhost/Volumes/ATM%201/EYE%20CANDY/8%3a14%3a23/5_Assets/Music/ES_paint%20him%20in%203d%20(Instrumental%20Version)%20-%20Ingrid%20Witt.mp3</pathurl>
																<rate>
																	<timebase>30</timebase>
																	<ntsc>TRUE</ntsc>
																</rate>
																<duration>5349</duration>
																<timecode>
																	<rate>
																		<timebase>30</timebase>
																		<ntsc>TRUE</ntsc>
																	</rate>
																	<string>00;00;00;00</string>
																	<frame>0</frame>
																	<displayformat>DF</displayformat>
																</timecode>
																<media>
																	<audio>
																		<samplecharacteristics>
																			<depth>16</depth>
																			<samplerate>48000</samplerate>
																		</samplecharacteristics>
																		<channelcount>2</channelcount>
																	</audio>
																</media>
															</file>
															<sourcetrack>
																<mediatype>audio</mediatype>
																<trackindex>1</trackindex>
															</sourcetrack>
															<link>
																<linkclipref>clipitem-79</linkclipref>
																<mediatype>audio</mediatype>
																<trackindex>1</trackindex>
																<clipindex>1</clipindex>
																<groupindex>1</groupindex>
															</link>
															<link>
																<linkclipref>clipitem-80</linkclipref>
																<mediatype>audio</mediatype>
																<trackindex>2</trackindex>
																<clipindex>1</clipindex>
																<groupindex>1</groupindex>
															</link>
															<logginginfo>
																<description></description>
																<scene></scene>
																<shottake></shottake>
																<lognote></lognote>
																<good></good>
																<originalvideofilename></originalvideofilename>
																<originalaudiofilename></originalaudiofilename>
															</logginginfo>
															<colorinfo>
																<lut></lut>
																<lut1></lut1>
																<asc_sop></asc_sop>
																<asc_sat></asc_sat>
																<lut2></lut2>
															</colorinfo>
															<labels>
																<label2>Caribbean</label2>
															</labels>
														</clipitem>
														<enabled>TRUE</enabled>
														<locked>FALSE</locked>
														<filter>
															<effect>
																<name>Audio Levels</name>
																<effectid>audiolevels</effectid>
																<effectcategory>audiolevels</effectcategory>
																<effecttype>audiolevels</effecttype>
																<mediatype>audio</mediatype>
																<parameter authoringApp="PremierePro">
																	<parameterid>level</parameterid>
																	<name>Level</name>
																	<valuemin>0</valuemin>
																	<valuemax>3.98109</valuemax>
																	<value>0.706272</value>
																</parameter>
															</effect>
														</filter>
														<outputchannelindex>1</outputchannelindex>
													</track>
													<track TL.SQTrackAudioKeyframeStyle="0" TL.SQTrackShy="0" TL.SQTrackExpandedHeight="25" TL.SQTrackExpanded="0" MZ.TrackTargeted="1" PannerCurrentValue="0.5" PannerIsInverted="true" PannerStartKeyframe="-91445760000000000,0.5,0,0,0,0,0,0" PannerName="Balance" currentExplodedTrackIndex="1" totalExplodedTrackCount="2" premiereTrackType="Stereo">
														<clipitem id="clipitem-80" premiereChannelType="stereo">
															<masterclipid>masterclip-28</masterclipid>
															<name>ES_paint him in 3d (Instrumental Version) - Ingrid Witt.mp3</name>
															<enabled>TRUE</enabled>
															<duration>5349</duration>
															<rate>
																<timebase>30</timebase>
																<ntsc>TRUE</ntsc>
															</rate>
															<start>0</start>
															<end>1859</end>
															<in>0</in>
															<out>1859</out>
															<pproTicksIn>0</pproTicksIn>
															<pproTicksOut>15756265324800</pproTicksOut>
															<file id="file-22"/>
															<sourcetrack>
																<mediatype>audio</mediatype>
																<trackindex>2</trackindex>
															</sourcetrack>
															<link>
																<linkclipref>clipitem-79</linkclipref>
																<mediatype>audio</mediatype>
																<trackindex>1</trackindex>
																<clipindex>1</clipindex>
																<groupindex>1</groupindex>
															</link>
															<link>
																<linkclipref>clipitem-80</linkclipref>
																<mediatype>audio</mediatype>
																<trackindex>2</trackindex>
																<clipindex>1</clipindex>
																<groupindex>1</groupindex>
															</link>
															<logginginfo>
																<description></description>
																<scene></scene>
																<shottake></shottake>
																<lognote></lognote>
																<good></good>
																<originalvideofilename></originalvideofilename>
																<originalaudiofilename></originalaudiofilename>
															</logginginfo>
															<colorinfo>
																<lut></lut>
																<lut1></lut1>
																<asc_sop></asc_sop>
																<asc_sat></asc_sat>
																<lut2></lut2>
															</colorinfo>
															<labels>
																<label2>Caribbean</label2>
															</labels>
														</clipitem>
														<enabled>TRUE</enabled>
														<locked>FALSE</locked>
														<filter>
															<effect>
																<name>Audio Levels</name>
																<effectid>audiolevels</effectid>
																<effectcategory>audiolevels</effectcategory>
																<effecttype>audiolevels</effecttype>
																<mediatype>audio</mediatype>
																<parameter authoringApp="PremierePro">
																	<parameterid>level</parameterid>
																	<name>Level</name>
																	<valuemin>0</valuemin>
																	<valuemax>3.98109</valuemax>
																	<value>0.706272</value>
																</parameter>
															</effect>
														</filter>
														<outputchannelindex>2</outputchannelindex>
													</track>
													<track TL.SQTrackAudioKeyframeStyle="0" TL.SQTrackShy="0" TL.SQTrackExpandedHeight="25" TL.SQTrackExpanded="0" MZ.TrackTargeted="0" PannerCurrentValue="0.5" PannerIsInverted="true" PannerStartKeyframe="-91445760000000000,0.5,0,0,0,0,0,0" PannerName="Balance" currentExplodedTrackIndex="0" totalExplodedTrackCount="2" premiereTrackType="Stereo">
														<enabled>TRUE</enabled>
														<locked>FALSE</locked>
														<outputchannelindex>1</outputchannelindex>
													</track>
													<track TL.SQTrackAudioKeyframeStyle="0" TL.SQTrackShy="0" TL.SQTrackExpandedHeight="25" TL.SQTrackExpanded="0" MZ.TrackTargeted="0" PannerCurrentValue="0.5" PannerIsInverted="true" PannerStartKeyframe="-91445760000000000,0.5,0,0,0,0,0,0" PannerName="Balance" currentExplodedTrackIndex="1" totalExplodedTrackCount="2" premiereTrackType="Stereo">
														<enabled>TRUE</enabled>
														<locked>FALSE</locked>
														<outputchannelindex>2</outputchannelindex>
													</track>
													<track TL.SQTrackAudioKeyframeStyle="0" TL.SQTrackShy="0" TL.SQTrackExpandedHeight="25" TL.SQTrackExpanded="0" MZ.TrackTargeted="0" PannerCurrentValue="0.5" PannerIsInverted="true" PannerStartKeyframe="-91445760000000000,0.5,0,0,0,0,0,0" PannerName="Balance" currentExplodedTrackIndex="0" totalExplodedTrackCount="2" premiereTrackType="Stereo">
														<enabled>TRUE</enabled>
														<locked>FALSE</locked>
														<outputchannelindex>1</outputchannelindex>
													</track>
													<track TL.SQTrackAudioKeyframeStyle="0" TL.SQTrackShy="0" TL.SQTrackExpandedHeight="25" TL.SQTrackExpanded="0" MZ.TrackTargeted="0" PannerCurrentValue="0.5" PannerIsInverted="true" PannerStartKeyframe="-91445760000000000,0.5,0,0,0,0,0,0" PannerName="Balance" currentExplodedTrackIndex="1" totalExplodedTrackCount="2" premiereTrackType="Stereo">
														<enabled>TRUE</enabled>
														<locked>FALSE</locked>
														<outputchannelindex>2</outputchannelindex>
													</track>
													<track TL.SQTrackAudioKeyframeStyle="0" TL.SQTrackShy="0" TL.SQTrackExpandedHeight="25" TL.SQTrackExpanded="0" MZ.TrackTargeted="0" PannerCurrentValue="0.5" PannerIsInverted="true" PannerStartKeyframe="-91445760000000000,0.5,0,0,0,0,0,0" PannerName="Balance" currentExplodedTrackIndex="0" totalExplodedTrackCount="2" premiereTrackType="Stereo">
														<enabled>TRUE</enabled>
														<locked>FALSE</locked>
														<outputchannelindex>1</outputchannelindex>
													</track>
													<track TL.SQTrackAudioKeyframeStyle="0" TL.SQTrackShy="0" TL.SQTrackExpandedHeight="25" TL.SQTrackExpanded="0" MZ.TrackTargeted="0" PannerCurrentValue="0.5" PannerIsInverted="true" PannerStartKeyframe="-91445760000000000,0.5,0,0,0,0,0,0" PannerName="Balance" currentExplodedTrackIndex="1" totalExplodedTrackCount="2" premiereTrackType="Stereo">
														<enabled>TRUE</enabled>
														<locked>FALSE</locked>
														<outputchannelindex>2</outputchannelindex>
													</track>
													<track TL.SQTrackAudioKeyframeStyle="0" TL.SQTrackShy="0" TL.SQTrackExpandedHeight="25" TL.SQTrackExpanded="0" MZ.TrackTargeted="0" PannerCurrentValue="0.5" PannerIsInverted="true" PannerStartKeyframe="-91445760000000000,0.5,0,0,0,0,0,0" PannerName="Balance" currentExplodedTrackIndex="0" totalExplodedTrackCount="2" premiereTrackType="Stereo">
														<enabled>TRUE</enabled>
														<locked>FALSE</locked>
														<outputchannelindex>1</outputchannelindex>
													</track>
													<track TL.SQTrackAudioKeyframeStyle="0" TL.SQTrackShy="0" TL.SQTrackExpandedHeight="25" TL.SQTrackExpanded="0" MZ.TrackTargeted="0" PannerCurrentValue="0.5" PannerIsInverted="true" PannerStartKeyframe="-91445760000000000,0.5,0,0,0,0,0,0" PannerName="Balance" currentExplodedTrackIndex="1" totalExplodedTrackCount="2" premiereTrackType="Stereo">
														<enabled>TRUE</enabled>
														<locked>FALSE</locked>
														<outputchannelindex>2</outputchannelindex>
													</track>
													<track TL.SQTrackAudioKeyframeStyle="0" TL.SQTrackShy="0" TL.SQTrackExpandedHeight="25" TL.SQTrackExpanded="0" MZ.TrackTargeted="0" PannerCurrentValue="0.5" PannerIsInverted="true" PannerStartKeyframe="-91445760000000000,0.5,0,0,0,0,0,0" PannerName="Balance" currentExplodedTrackIndex="0" totalExplodedTrackCount="2" premiereTrackType="Stereo">
														<enabled>TRUE</enabled>
														<locked>FALSE</locked>
														<outputchannelindex>1</outputchannelindex>
													</track>
													<track TL.SQTrackAudioKeyframeStyle="0" TL.SQTrackShy="0" TL.SQTrackExpandedHeight="25" TL.SQTrackExpanded="0" MZ.TrackTargeted="0" PannerCurrentValue="0.5" PannerIsInverted="true" PannerStartKeyframe="-91445760000000000,0.5,0,0,0,0,0,0" PannerName="Balance" currentExplodedTrackIndex="1" totalExplodedTrackCount="2" premiereTrackType="Stereo">
														<enabled>TRUE</enabled>
														<locked>FALSE</locked>
														<outputchannelindex>2</outputchannelindex>
													</track>
													<track TL.SQTrackAudioKeyframeStyle="0" TL.SQTrackShy="0" TL.SQTrackExpandedHeight="25" TL.SQTrackExpanded="0" MZ.TrackTargeted="0" PannerCurrentValue="0.5" PannerIsInverted="true" PannerStartKeyframe="-91445760000000000,0.5,0,0,0,0,0,0" PannerName="Balance" currentExplodedTrackIndex="0" totalExplodedTrackCount="2" premiereTrackType="Stereo">
														<enabled>TRUE</enabled>
														<locked>FALSE</locked>
														<outputchannelindex>1</outputchannelindex>
													</track>
													<track TL.SQTrackAudioKeyframeStyle="0" TL.SQTrackShy="0" TL.SQTrackExpandedHeight="25" TL.SQTrackExpanded="0" MZ.TrackTargeted="0" PannerCurrentValue="0.5" PannerIsInverted="true" PannerStartKeyframe="-91445760000000000,0.5,0,0,0,0,0,0" PannerName="Balance" currentExplodedTrackIndex="1" totalExplodedTrackCount="2" premiereTrackType="Stereo">
														<enabled>TRUE</enabled>
														<locked>FALSE</locked>
														<outputchannelindex>2</outputchannelindex>
													</track>
													<track TL.SQTrackAudioKeyframeStyle="0" TL.SQTrackShy="0" TL.SQTrackExpandedHeight="25" TL.SQTrackExpanded="0" MZ.TrackTargeted="0" PannerCurrentValue="0.5" PannerIsInverted="true" PannerStartKeyframe="-91445760000000000,0.5,0,0,0,0,0,0" PannerName="Balance" currentExplodedTrackIndex="0" totalExplodedTrackCount="2" premiereTrackType="Stereo">
														<enabled>TRUE</enabled>
														<locked>FALSE</locked>
														<outputchannelindex>1</outputchannelindex>
													</track>
													<track TL.SQTrackAudioKeyframeStyle="0" TL.SQTrackShy="0" TL.SQTrackExpandedHeight="25" TL.SQTrackExpanded="0" MZ.TrackTargeted="0" PannerCurrentValue="0.5" PannerIsInverted="true" PannerStartKeyframe="-91445760000000000,0.5,0,0,0,0,0,0" PannerName="Balance" currentExplodedTrackIndex="1" totalExplodedTrackCount="2" premiereTrackType="Stereo">
														<enabled>TRUE</enabled>
														<locked>FALSE</locked>
														<outputchannelindex>2</outputchannelindex>
													</track>
													<track TL.SQTrackAudioKeyframeStyle="0" TL.SQTrackShy="0" TL.SQTrackExpandedHeight="25" TL.SQTrackExpanded="0" MZ.TrackTargeted="0" PannerCurrentValue="0.5" PannerIsInverted="true" PannerStartKeyframe="-91445760000000000,0.5,0,0,0,0,0,0" PannerName="Balance" currentExplodedTrackIndex="0" totalExplodedTrackCount="2" premiereTrackType="Stereo">
														<enabled>TRUE</enabled>
														<locked>FALSE</locked>
														<outputchannelindex>1</outputchannelindex>
													</track>
													<track TL.SQTrackAudioKeyframeStyle="0" TL.SQTrackShy="0" TL.SQTrackExpandedHeight="25" TL.SQTrackExpanded="0" MZ.TrackTargeted="0" PannerCurrentValue="0.5" PannerIsInverted="true" PannerStartKeyframe="-91445760000000000,0.5,0,0,0,0,0,0" PannerName="Balance" currentExplodedTrackIndex="1" totalExplodedTrackCount="2" premiereTrackType="Stereo">
														<enabled>TRUE</enabled>
														<locked>FALSE</locked>
														<outputchannelindex>2</outputchannelindex>
													</track>
													<track TL.SQTrackAudioKeyframeStyle="0" TL.SQTrackShy="0" TL.SQTrackExpandedHeight="25" TL.SQTrackExpanded="0" MZ.TrackTargeted="0" PannerCurrentValue="0.5" PannerIsInverted="true" PannerStartKeyframe="-91445760000000000,0.5,0,0,0,0,0,0" PannerName="Balance" currentExplodedTrackIndex="0" totalExplodedTrackCount="2" premiereTrackType="Stereo">
														<enabled>TRUE</enabled>
														<locked>FALSE</locked>
														<outputchannelindex>1</outputchannelindex>
													</track>
													<track TL.SQTrackAudioKeyframeStyle="0" TL.SQTrackShy="0" TL.SQTrackExpandedHeight="25" TL.SQTrackExpanded="0" MZ.TrackTargeted="0" PannerCurrentValue="0.5" PannerIsInverted="true" PannerStartKeyframe="-91445760000000000,0.5,0,0,0,0,0,0" PannerName="Balance" currentExplodedTrackIndex="1" totalExplodedTrackCount="2" premiereTrackType="Stereo">
														<enabled>TRUE</enabled>
														<locked>FALSE</locked>
														<outputchannelindex>2</outputchannelindex>
													</track>
												</audio>
											</media>
											<timecode>
												<rate>
													<timebase>30</timebase>
													<ntsc>TRUE</ntsc>
												</rate>
												<string>00;00;00;00</string>
												<frame>0</frame>
												<displayformat>DF</displayformat>
											</timecode>
											<logginginfo>
												<description></description>
												<scene></scene>
												<shottake></shottake>
												<lognote></lognote>
												<good></good>
												<originalvideofilename></originalvideofilename>
												<originalaudiofilename></originalaudiofilename>
											</logginginfo>
										</sequence>
										<link>
											<linkclipref>clipitem-54</linkclipref>
											<mediatype>video</mediatype>
											<trackindex>1</trackindex>
											<clipindex>1</clipindex>
										</link>
										<link>
											<linkclipref>clipitem-116</linkclipref>
											<mediatype>audio</mediatype>
											<trackindex>1</trackindex>
											<clipindex>1</clipindex>
											<groupindex>1</groupindex>
										</link>
										<link>
											<linkclipref>clipitem-119</linkclipref>
											<mediatype>audio</mediatype>
											<trackindex>2</trackindex>
											<clipindex>1</clipindex>
											<groupindex>1</groupindex>
										</link>
										<labels>
											<label2>Forest</label2>
										</labels>
									</clipitem>
									<clipitem id="clipitem-81">
										<masterclipid>masterclip-29</masterclipid>
										<name>Pastel Power_2</name>
										<enabled>TRUE</enabled>
										<duration>5700</duration>
										<rate>
											<timebase>30</timebase>
											<ntsc>TRUE</ntsc>
										</rate>
										<start>1941</start>
										<end>5511</end>
										<in>0</in>
										<out>3570</out>
										<pproTicksIn>0</pproTicksIn>
										<pproTicksOut>30258131904000</pproTicksOut>
										<sequence id="sequence-9" TL.SQAudioVisibleBase="0" TL.SQVideoVisibleBase="0" TL.SQVisibleBaseTime="0" TL.SQAVDividerPosition="0.5" TL.SQHideShyTracks="0" TL.SQHeaderWidth="236" TL.SQDataTrackViewControlState="0" Monitor.ProgramZoomOut="30258131904000" Monitor.ProgramZoomIn="0" TL.SQTimePerPixel="0.1384295795011205" AM.TrackVScrollPosition="0" AM.TrackScrollPosition="0" MZ.EditLine="27571345401600" MZ.Sequence.PreviewFrameSizeHeight="1080" MZ.Sequence.PreviewFrameSizeWidth="1920" MZ.Sequence.AudioTimeDisplayFormat="200" MZ.Sequence.PreviewRenderingClassID="1061109567" MZ.Sequence.PreviewRenderingPresetCodec="1634755443" MZ.Sequence.PreviewRenderingPresetPath="EncoderPresets/SequencePreview/35d109db-457b-43c1-9452-9cb7be9f121c/QuickTime.epr" MZ.Sequence.PreviewUseMaxRenderQuality="false" MZ.Sequence.PreviewUseMaxBitDepth="false" MZ.Sequence.EditingModeGUID="35d109db-457b-43c1-9452-9cb7be9f121c" MZ.Sequence.VideoTimeDisplayFormat="102" MZ.WorkOutPoint="1262874412800" MZ.WorkInPoint="0">
											<duration>3570</duration>
											<rate>
												<timebase>30</timebase>
												<ntsc>TRUE</ntsc>
											</rate>
											<name>FND_Pastel Power_2</name>
											<media>
												<video>
													<format>
														<samplecharacteristics>
															<rate>
																<timebase>30</timebase>
																<ntsc>TRUE</ntsc>
															</rate>
															<codec>
																<name>Apple ProRes 422</name>
																<appspecificdata>
																	<appname>Final Cut Pro</appname>
																	<appmanufacturer>Apple Inc.</appmanufacturer>
																	<appversion>7.0</appversion>
																	<data>
																		<qtcodec>
																			<codecname>Apple ProRes 422</codecname>
																			<codectypename>Apple ProRes 422</codectypename>
																			<codectypecode>apcn</codectypecode>
																			<codecvendorcode>appl</codecvendorcode>
																			<spatialquality>1024</spatialquality>
																			<temporalquality>0</temporalquality>
																			<keyframerate>0</keyframerate>
																			<datarate>0</datarate>
																		</qtcodec>
																	</data>
																</appspecificdata>
															</codec>
															<width>1920</width>
															<height>1080</height>
															<anamorphic>FALSE</anamorphic>
															<pixelaspectratio>square</pixelaspectratio>
															<fielddominance>none</fielddominance>
															<colordepth>24</colordepth>
														</samplecharacteristics>
													</format>
													<track TL.SQTrackShy="0" TL.SQTrackExpandedHeight="25" TL.SQTrackExpanded="0" MZ.TrackTargeted="1">
														<clipitem id="clipitem-82">
															<masterclipid>masterclip-30</masterclipid>
															<name>(ennahs.cakes)_CQoE8xTDi3J_IG.mp4</name>
															<enabled>TRUE</enabled>
															<duration>450</duration>
															<rate>
																<timebase>30</timebase>
																<ntsc>TRUE</ntsc>
															</rate>
															<start>0</start>
															<end>165</end>
															<in>17</in>
															<out>182</out>
															<pproTicksIn>288172684800</pproTicksIn>
															<pproTicksOut>3085142860800</pproTicksOut>
															<alphatype>none</alphatype>
															<pixelaspectratio>square</pixelaspectratio>
															<anamorphic>FALSE</anamorphic>
															<file id="file-23">
																<name>(ennahs.cakes)_CQoE8xTDi3J_IG.mp4</name>
																<pathurl>file://localhost/Volumes/ATM%201/EYE%20CANDY/8%3a14%3a23/3_Raw%20Files/pastel/(ennahs.cakes)_CQoE8xTDi3J_IG.mp4</pathurl>
																<rate>
																	<timebase>30</timebase>
																	<ntsc>FALSE</ntsc>
																</rate>
																<duration>901</duration>
																<timecode>
																	<rate>
																		<timebase>30</timebase>
																		<ntsc>FALSE</ntsc>
																	</rate>
																	<string>00:00:00:00</string>
																	<frame>0</frame>
																	<displayformat>NDF</displayformat>
																</timecode>
																<media>
																	<video>
																		<samplecharacteristics>
																			<rate>
																				<timebase>30</timebase>
																				<ntsc>FALSE</ntsc>
																			</rate>
																			<width>720</width>
																			<height>1280</height>
																			<anamorphic>FALSE</anamorphic>
																			<pixelaspectratio>square</pixelaspectratio>
																			<fielddominance>none</fielddominance>
																		</samplecharacteristics>
																	</video>
																	<audio>
																		<samplecharacteristics>
																			<depth>16</depth>
																			<samplerate>44100</samplerate>
																		</samplecharacteristics>
																		<channelcount>2</channelcount>
																	</audio>
																</media>
															</file>
															<filter>
																<effect>
																	<name>Basic Motion</name>
																	<effectid>basic</effectid>
																	<effectcategory>motion</effectcategory>
																	<effecttype>motion</effecttype>
																	<mediatype>video</mediatype>
																	<pproBypass>false</pproBypass>
																	<parameter authoringApp="PremierePro">
																		<parameterid>scale</parameterid>
																		<name>Scale</name>
																		<valuemin>0</valuemin>
																		<valuemax>1000</valuemax>
																		<value>100</value>
																	</parameter>
																	<parameter authoringApp="PremierePro">
																		<parameterid>rotation</parameterid>
																		<name>Rotation</name>
																		<valuemin>-8640</valuemin>
																		<valuemax>8640</valuemax>
																		<value>0</value>
																	</parameter>
																	<parameter authoringApp="PremierePro">
																		<parameterid>center</parameterid>
																		<name>Center</name>
																		<value>
																			<horiz>0.0194445</horiz>
																			<vert>0</vert>
																		</value>
																	</parameter>
																	<parameter authoringApp="PremierePro">
																		<parameterid>centerOffset</parameterid>
																		<name>Anchor Point</name>
																		<value>
																			<horiz>0</horiz>
																			<vert>0</vert>
																		</value>
																	</parameter>
																	<parameter authoringApp="PremierePro">
																		<parameterid>antiflicker</parameterid>
																		<name>Anti-flicker Filter</name>
																		<valuemin>0.0</valuemin>
																		<valuemax>1.0</valuemax>
																		<value>0</value>
																	</parameter>
																</effect>
															</filter>
															<filter>
																<effect>
																	<name>Time Remap</name>
																	<effectid>timeremap</effectid>
																	<effectcategory>motion</effectcategory>
																	<effecttype>motion</effecttype>
																	<mediatype>video</mediatype>
																	<parameter authoringApp="PremierePro">
																		<parameterid>variablespeed</parameterid>
																		<name>variablespeed</name>
																		<valuemin>0</valuemin>
																		<valuemax>1</valuemax>
																		<value>0</value>
																	</parameter>
																	<parameter authoringApp="PremierePro">
																		<parameterid>speed</parameterid>
																		<name>speed</name>
																		<valuemin>-100000</valuemin>
																		<valuemax>100000</valuemax>
																		<value>200</value>
																	</parameter>
																	<parameter authoringApp="PremierePro">
																		<parameterid>reverse</parameterid>
																		<name>reverse</name>
																		<value>FALSE</value>
																	</parameter>
																	<parameter authoringApp="PremierePro">
																		<parameterid>frameblending</parameterid>
																		<name>frameblending</name>
																		<value>FALSE</value>
																	</parameter>
																	<parameter authoringApp="PremierePro">
																		<parameterid>graphdict</parameterid>
																		<name>graphdict</name>
																		<valuemin>0</valuemin>
																		<valuemax>900</valuemax>
																		<value>0</value>
																		<keyframe>
																			<when>0</when>
																			<value>0</value>
																			<speedvirtualkf>TRUE</speedvirtualkf>
																			<speedkfstart>TRUE</speedkfstart>
																		</keyframe>
																		<keyframe>
																			<when>17</when>
																			<value>34</value>
																			<speedvirtualkf>TRUE</speedvirtualkf>
																			<speedkfin>TRUE</speedkfin>
																		</keyframe>
																		<keyframe>
																			<when>182</when>
																			<value>364</value>
																			<speedvirtualkf>TRUE</speedvirtualkf>
																			<speedkfout>TRUE</speedkfout>
																		</keyframe>
																		<keyframe>
																			<when>450</when>
																			<value>900</value>
																			<speedvirtualkf>TRUE</speedvirtualkf>
																			<speedkfend>TRUE</speedkfend>
																		</keyframe>
																		<interpolation>
																			<name>FCPCurve</name>
																		</interpolation>
																	</parameter>
																</effect>
															</filter>
															<logginginfo>
																<description></description>
																<scene></scene>
																<shottake></shottake>
																<lognote></lognote>
																<good></good>
																<originalvideofilename></originalvideofilename>
																<originalaudiofilename></originalaudiofilename>
															</logginginfo>
															<colorinfo>
																<lut></lut>
																<lut1></lut1>
																<asc_sop></asc_sop>
																<asc_sat></asc_sat>
																<lut2></lut2>
															</colorinfo>
															<labels>
																<label2>Violet</label2>
															</labels>
														</clipitem>
														<clipitem id="clipitem-83">
															<masterclipid>masterclip-30</masterclipid>
															<name>(ennahs.cakes)_CQoE8xTDi3J_IG.mp4</name>
															<enabled>TRUE</enabled>
															<duration>900</duration>
															<rate>
																<timebase>30</timebase>
																<ntsc>TRUE</ntsc>
															</rate>
															<start>165</start>
															<end>650</end>
															<in>362</in>
															<out>847</out>
															<pproTicksIn>3068191526400</pproTicksIn>
															<pproTicksOut>7178890118400</pproTicksOut>
															<alphatype>none</alphatype>
															<file id="file-23"/>
															<filter>
																<effect>
																	<name>Basic Motion</name>
																	<effectid>basic</effectid>
																	<effectcategory>motion</effectcategory>
																	<effecttype>motion</effecttype>
																	<mediatype>video</mediatype>
																	<pproBypass>false</pproBypass>
																	<parameter authoringApp="PremierePro">
																		<parameterid>scale</parameterid>
																		<name>Scale</name>
																		<valuemin>0</valuemin>
																		<valuemax>1000</valuemax>
																		<value>100</value>
																	</parameter>
																	<parameter authoringApp="PremierePro">
																		<parameterid>rotation</parameterid>
																		<name>Rotation</name>
																		<valuemin>-8640</valuemin>
																		<valuemax>8640</valuemax>
																		<value>0</value>
																	</parameter>
																	<parameter authoringApp="PremierePro">
																		<parameterid>center</parameterid>
																		<name>Center</name>
																		<value>
																			<horiz>0.0194445</horiz>
																			<vert>0</vert>
																		</value>
																	</parameter>
																	<parameter authoringApp="PremierePro">
																		<parameterid>centerOffset</parameterid>
																		<name>Anchor Point</name>
																		<value>
																			<horiz>0</horiz>
																			<vert>0</vert>
																		</value>
																	</parameter>
																	<parameter authoringApp="PremierePro">
																		<parameterid>antiflicker</parameterid>
																		<name>Anti-flicker Filter</name>
																		<valuemin>0.0</valuemin>
																		<valuemax>1.0</valuemax>
																		<value>0</value>
																	</parameter>
																</effect>
															</filter>
															<logginginfo>
																<description></description>
																<scene></scene>
																<shottake></shottake>
																<lognote></lognote>
																<good></good>
																<originalvideofilename></originalvideofilename>
																<originalaudiofilename></originalaudiofilename>
															</logginginfo>
															<colorinfo>
																<lut></lut>
																<lut1></lut1>
																<asc_sop></asc_sop>
																<asc_sat></asc_sat>
																<lut2></lut2>
															</colorinfo>
															<labels>
																<label2>Violet</label2>
															</labels>
														</clipitem>
														<clipitem id="clipitem-84">
															<masterclipid>masterclip-31</masterclipid>
															<name>(alphafoodie)_B_FkQqoAa-J_IG.mp4</name>
															<enabled>TRUE</enabled>
															<duration>6262</duration>
															<rate>
																<timebase>30</timebase>
																<ntsc>TRUE</ntsc>
															</rate>
															<start>650</start>
															<end>755</end>
															<in>582</in>
															<out>687</out>
															<pproTicksIn>4932838310400</pproTicksIn>
															<pproTicksOut>5822783366400</pproTicksOut>
															<alphatype>none</alphatype>
															<pixelaspectratio>square</pixelaspectratio>
															<anamorphic>FALSE</anamorphic>
															<file id="file-24">
																<name>(alphafoodie)_B_FkQqoAa-J_IG.mp4</name>
																<pathurl>file://localhost/Volumes/ATM%201/EYE%20CANDY/8%3a14%3a23/3_Raw%20Files/pastel/(alphafoodie)_B_FkQqoAa-J_IG.mp4</pathurl>
																<rate>
																	<timebase>30</timebase>
																	<ntsc>FALSE</ntsc>
																</rate>
																<duration>6269</duration>
																<timecode>
																	<rate>
																		<timebase>30</timebase>
																		<ntsc>FALSE</ntsc>
																	</rate>
																	<string>00:00:00:00</string>
																	<frame>0</frame>
																	<displayformat>NDF</displayformat>
																</timecode>
																<media>
																	<video>
																		<samplecharacteristics>
																			<rate>
																				<timebase>30</timebase>
																				<ntsc>FALSE</ntsc>
																			</rate>
																			<width>720</width>
																			<height>1280</height>
																			<anamorphic>FALSE</anamorphic>
																			<pixelaspectratio>square</pixelaspectratio>
																			<fielddominance>none</fielddominance>
																		</samplecharacteristics>
																	</video>
																	<audio>
																		<samplecharacteristics>
																			<depth>16</depth>
																			<samplerate>44100</samplerate>
																		</samplecharacteristics>
																		<channelcount>2</channelcount>
																	</audio>
																</media>
															</file>
															<filter>
																<effect>
																	<name>Basic Motion</name>
																	<effectid>basic</effectid>
																	<effectcategory>motion</effectcategory>
																	<effecttype>motion</effecttype>
																	<mediatype>video</mediatype>
																	<pproBypass>false</pproBypass>
																	<parameter authoringApp="PremierePro">
																		<parameterid>scale</parameterid>
																		<name>Scale</name>
																		<valuemin>0</valuemin>
																		<valuemax>1000</valuemax>
																		<value>100</value>
																	</parameter>
																	<parameter authoringApp="PremierePro">
																		<parameterid>rotation</parameterid>
																		<name>Rotation</name>
																		<valuemin>-8640</valuemin>
																		<valuemax>8640</valuemax>
																		<value>0</value>
																	</parameter>
																	<parameter authoringApp="PremierePro">
																		<parameterid>center</parameterid>
																		<name>Center</name>
																		<value>
																			<horiz>0.0194445</horiz>
																			<vert>0</vert>
																		</value>
																	</parameter>
																	<parameter authoringApp="PremierePro">
																		<parameterid>centerOffset</parameterid>
																		<name>Anchor Point</name>
																		<value>
																			<horiz>0</horiz>
																			<vert>0</vert>
																		</value>
																	</parameter>
																	<parameter authoringApp="PremierePro">
																		<parameterid>antiflicker</parameterid>
																		<name>Anti-flicker Filter</name>
																		<valuemin>0.0</valuemin>
																		<valuemax>1.0</valuemax>
																		<value>0</value>
																	</parameter>
																</effect>
															</filter>
															<logginginfo>
																<description></description>
																<scene></scene>
																<shottake></shottake>
																<lognote></lognote>
																<good></good>
																<originalvideofilename></originalvideofilename>
																<originalaudiofilename></originalaudiofilename>
															</logginginfo>
															<colorinfo>
																<lut></lut>
																<lut1></lut1>
																<asc_sop></asc_sop>
																<asc_sat></asc_sat>
																<lut2></lut2>
															</colorinfo>
															<labels>
																<label2>Violet</label2>
															</labels>
														</clipitem>
														<clipitem id="clipitem-85">
															<masterclipid>masterclip-31</masterclipid>
															<name>(alphafoodie)_B_FkQqoAa-J_IG.mp4</name>
															<enabled>TRUE</enabled>
															<duration>6262</duration>
															<rate>
																<timebase>30</timebase>
																<ntsc>TRUE</ntsc>
															</rate>
															<start>755</start>
															<end>810</end>
															<in>1088</in>
															<out>1143</out>
															<pproTicksIn>9221525913600</pproTicksIn>
															<pproTicksOut>9687687609600</pproTicksOut>
															<alphatype>none</alphatype>
															<file id="file-24"/>
															<filter>
																<effect>
																	<name>Basic Motion</name>
																	<effectid>basic</effectid>
																	<effectcategory>motion</effectcategory>
																	<effecttype>motion</effecttype>
																	<mediatype>video</mediatype>
																	<pproBypass>false</pproBypass>
																	<parameter authoringApp="PremierePro">
																		<parameterid>scale</parameterid>
																		<name>Scale</name>
																		<valuemin>0</valuemin>
																		<valuemax>1000</valuemax>
																		<value>100</value>
																	</parameter>
																	<parameter authoringApp="PremierePro">
																		<parameterid>rotation</parameterid>
																		<name>Rotation</name>
																		<valuemin>-8640</valuemin>
																		<valuemax>8640</valuemax>
																		<value>0</value>
																	</parameter>
																	<parameter authoringApp="PremierePro">
																		<parameterid>center</parameterid>
																		<name>Center</name>
																		<value>
																			<horiz>0.0194445</horiz>
																			<vert>0</vert>
																		</value>
																	</parameter>
																	<parameter authoringApp="PremierePro">
																		<parameterid>centerOffset</parameterid>
																		<name>Anchor Point</name>
																		<value>
																			<horiz>0</horiz>
																			<vert>0</vert>
																		</value>
																	</parameter>
																	<parameter authoringApp="PremierePro">
																		<parameterid>antiflicker</parameterid>
																		<name>Anti-flicker Filter</name>
																		<valuemin>0.0</valuemin>
																		<valuemax>1.0</valuemax>
																		<value>0</value>
																	</parameter>
																</effect>
															</filter>
															<logginginfo>
																<description></description>
																<scene></scene>
																<shottake></shottake>
																<lognote></lognote>
																<good></good>
																<originalvideofilename></originalvideofilename>
																<originalaudiofilename></originalaudiofilename>
															</logginginfo>
															<colorinfo>
																<lut></lut>
																<lut1></lut1>
																<asc_sop></asc_sop>
																<asc_sat></asc_sat>
																<lut2></lut2>
															</colorinfo>
															<labels>
																<label2>Violet</label2>
															</labels>
														</clipitem>
														<clipitem id="clipitem-86">
															<masterclipid>masterclip-31</masterclipid>
															<name>(alphafoodie)_B_FkQqoAa-J_IG.mp4</name>
															<enabled>TRUE</enabled>
															<duration>6262</duration>
															<rate>
																<timebase>30</timebase>
																<ntsc>TRUE</ntsc>
															</rate>
															<start>810</start>
															<end>818</end>
															<in>1155</in>
															<out>1163</out>
															<pproTicksIn>9789395616000</pproTicksIn>
															<pproTicksOut>9857200953600</pproTicksOut>
															<alphatype>none</alphatype>
															<file id="file-24"/>
															<filter>
																<effect>
																	<name>Basic Motion</name>
																	<effectid>basic</effectid>
																	<effectcategory>motion</effectcategory>
																	<effecttype>motion</effecttype>
																	<mediatype>video</mediatype>
																	<pproBypass>false</pproBypass>
																	<parameter authoringApp="PremierePro">
																		<parameterid>scale</parameterid>
																		<name>Scale</name>
																		<valuemin>0</valuemin>
																		<valuemax>1000</valuemax>
																		<value>100</value>
																	</parameter>
																	<parameter authoringApp="PremierePro">
																		<parameterid>rotation</parameterid>
																		<name>Rotation</name>
																		<valuemin>-8640</valuemin>
																		<valuemax>8640</valuemax>
																		<value>0</value>
																	</parameter>
																	<parameter authoringApp="PremierePro">
																		<parameterid>center</parameterid>
																		<name>Center</name>
																		<value>
																			<horiz>0.0180556</horiz>
																			<vert>0</vert>
																		</value>
																	</parameter>
																	<parameter authoringApp="PremierePro">
																		<parameterid>centerOffset</parameterid>
																		<name>Anchor Point</name>
																		<value>
																			<horiz>0</horiz>
																			<vert>0</vert>
																		</value>
																	</parameter>
																	<parameter authoringApp="PremierePro">
																		<parameterid>antiflicker</parameterid>
																		<name>Anti-flicker Filter</name>
																		<valuemin>0.0</valuemin>
																		<valuemax>1.0</valuemax>
																		<value>0</value>
																	</parameter>
																</effect>
															</filter>
															<logginginfo>
																<description></description>
																<scene></scene>
																<shottake></shottake>
																<lognote></lognote>
																<good></good>
																<originalvideofilename></originalvideofilename>
																<originalaudiofilename></originalaudiofilename>
															</logginginfo>
															<colorinfo>
																<lut></lut>
																<lut1></lut1>
																<asc_sop></asc_sop>
																<asc_sat></asc_sat>
																<lut2></lut2>
															</colorinfo>
															<labels>
																<label2>Violet</label2>
															</labels>
														</clipitem>
														<clipitem id="clipitem-87">
															<masterclipid>masterclip-31</masterclipid>
															<name>(alphafoodie)_B_FkQqoAa-J_IG.mp4</name>
															<enabled>TRUE</enabled>
															<duration>6262</duration>
															<rate>
																<timebase>30</timebase>
																<ntsc>TRUE</ntsc>
															</rate>
															<start>818</start>
															<end>923</end>
															<in>1199</in>
															<out>1304</out>
															<pproTicksIn>10162324972800</pproTicksIn>
															<pproTicksOut>11052270028800</pproTicksOut>
															<alphatype>none</alphatype>
															<file id="file-24"/>
															<filter>
																<effect>
																	<name>Basic Motion</name>
																	<effectid>basic</effectid>
																	<effectcategory>motion</effectcategory>
																	<effecttype>motion</effecttype>
																	<mediatype>video</mediatype>
																	<pproBypass>false</pproBypass>
																	<parameter authoringApp="PremierePro">
																		<parameterid>scale</parameterid>
																		<name>Scale</name>
																		<valuemin>0</valuemin>
																		<valuemax>1000</valuemax>
																		<value>100</value>
																	</parameter>
																	<parameter authoringApp="PremierePro">
																		<parameterid>rotation</parameterid>
																		<name>Rotation</name>
																		<valuemin>-8640</valuemin>
																		<valuemax>8640</valuemax>
																		<value>0</value>
																	</parameter>
																	<parameter authoringApp="PremierePro">
																		<parameterid>center</parameterid>
																		<name>Center</name>
																		<value>
																			<horiz>0.0194445</horiz>
																			<vert>0</vert>
																		</value>
																	</parameter>
																	<parameter authoringApp="PremierePro">
																		<parameterid>centerOffset</parameterid>
																		<name>Anchor Point</name>
																		<value>
																			<horiz>0</horiz>
																			<vert>0</vert>
																		</value>
																	</parameter>
																	<parameter authoringApp="PremierePro">
																		<parameterid>antiflicker</parameterid>
																		<name>Anti-flicker Filter</name>
																		<valuemin>0.0</valuemin>
																		<valuemax>1.0</valuemax>
																		<value>0</value>
																	</parameter>
																</effect>
															</filter>
															<logginginfo>
																<description></description>
																<scene></scene>
																<shottake></shottake>
																<lognote></lognote>
																<good></good>
																<originalvideofilename></originalvideofilename>
																<originalaudiofilename></originalaudiofilename>
															</logginginfo>
															<colorinfo>
																<lut></lut>
																<lut1></lut1>
																<asc_sop></asc_sop>
																<asc_sat></asc_sat>
																<lut2></lut2>
															</colorinfo>
															<labels>
																<label2>Violet</label2>
															</labels>
														</clipitem>
														<clipitem id="clipitem-88">
															<masterclipid>masterclip-31</masterclipid>
															<name>(alphafoodie)_B_FkQqoAa-J_IG.mp4</name>
															<enabled>TRUE</enabled>
															<duration>6262</duration>
															<rate>
																<timebase>30</timebase>
																<ntsc>TRUE</ntsc>
															</rate>
															<start>923</start>
															<end>942</end>
															<in>1421</in>
															<out>1440</out>
															<pproTicksIn>12043923091200</pproTicksIn>
															<pproTicksOut>12204960768000</pproTicksOut>
															<alphatype>none</alphatype>
															<file id="file-24"/>
															<filter>
																<effect>
																	<name>Basic Motion</name>
																	<effectid>basic</effectid>
																	<effectcategory>motion</effectcategory>
																	<effecttype>motion</effecttype>
																	<mediatype>video</mediatype>
																	<pproBypass>false</pproBypass>
																	<parameter authoringApp="PremierePro">
																		<parameterid>scale</parameterid>
																		<name>Scale</name>
																		<valuemin>0</valuemin>
																		<valuemax>1000</valuemax>
																		<value>100</value>
																	</parameter>
																	<parameter authoringApp="PremierePro">
																		<parameterid>rotation</parameterid>
																		<name>Rotation</name>
																		<valuemin>-8640</valuemin>
																		<valuemax>8640</valuemax>
																		<value>0</value>
																	</parameter>
																	<parameter authoringApp="PremierePro">
																		<parameterid>center</parameterid>
																		<name>Center</name>
																		<value>
																			<horiz>0.0194445</horiz>
																			<vert>0</vert>
																		</value>
																	</parameter>
																	<parameter authoringApp="PremierePro">
																		<parameterid>centerOffset</parameterid>
																		<name>Anchor Point</name>
																		<value>
																			<horiz>0</horiz>
																			<vert>0</vert>
																		</value>
																	</parameter>
																	<parameter authoringApp="PremierePro">
																		<parameterid>antiflicker</parameterid>
																		<name>Anti-flicker Filter</name>
																		<valuemin>0.0</valuemin>
																		<valuemax>1.0</valuemax>
																		<value>0</value>
																	</parameter>
																</effect>
															</filter>
															<logginginfo>
																<description></description>
																<scene></scene>
																<shottake></shottake>
																<lognote></lognote>
																<good></good>
																<originalvideofilename></originalvideofilename>
																<originalaudiofilename></originalaudiofilename>
															</logginginfo>
															<colorinfo>
																<lut></lut>
																<lut1></lut1>
																<asc_sop></asc_sop>
																<asc_sat></asc_sat>
																<lut2></lut2>
															</colorinfo>
															<labels>
																<label2>Violet</label2>
															</labels>
														</clipitem>
														<clipitem id="clipitem-89">
															<masterclipid>masterclip-31</masterclipid>
															<name>(alphafoodie)_B_FkQqoAa-J_IG.mp4</name>
															<enabled>TRUE</enabled>
															<duration>6262</duration>
															<rate>
																<timebase>30</timebase>
																<ntsc>TRUE</ntsc>
															</rate>
															<start>942</start>
															<end>985</end>
															<in>1456</in>
															<out>1499</out>
															<pproTicksIn>12340571443200</pproTicksIn>
															<pproTicksOut>12705025132800</pproTicksOut>
															<alphatype>none</alphatype>
															<file id="file-24"/>
															<filter>
																<effect>
																	<name>Basic Motion</name>
																	<effectid>basic</effectid>
																	<effectcategory>motion</effectcategory>
																	<effecttype>motion</effecttype>
																	<mediatype>video</mediatype>
																	<pproBypass>false</pproBypass>
																	<parameter authoringApp="PremierePro">
																		<parameterid>scale</parameterid>
																		<name>Scale</name>
																		<valuemin>0</valuemin>
																		<valuemax>1000</valuemax>
																		<value>100</value>
																	</parameter>
																	<parameter authoringApp="PremierePro">
																		<parameterid>rotation</parameterid>
																		<name>Rotation</name>
																		<valuemin>-8640</valuemin>
																		<valuemax>8640</valuemax>
																		<value>0</value>
																	</parameter>
																	<parameter authoringApp="PremierePro">
																		<parameterid>center</parameterid>
																		<name>Center</name>
																		<value>
																			<horiz>0.0194445</horiz>
																			<vert>0</vert>
																		</value>
																	</parameter>
																	<parameter authoringApp="PremierePro">
																		<parameterid>centerOffset</parameterid>
																		<name>Anchor Point</name>
																		<value>
																			<horiz>0</horiz>
																			<vert>0</vert>
																		</value>
																	</parameter>
																	<parameter authoringApp="PremierePro">
																		<parameterid>antiflicker</parameterid>
																		<name>Anti-flicker Filter</name>
																		<valuemin>0.0</valuemin>
																		<valuemax>1.0</valuemax>
																		<value>0</value>
																	</parameter>
																</effect>
															</filter>
															<logginginfo>
																<description></description>
																<scene></scene>
																<shottake></shottake>
																<lognote></lognote>
																<good></good>
																<originalvideofilename></originalvideofilename>
																<originalaudiofilename></originalaudiofilename>
															</logginginfo>
															<colorinfo>
																<lut></lut>
																<lut1></lut1>
																<asc_sop></asc_sop>
																<asc_sat></asc_sat>
																<lut2></lut2>
															</colorinfo>
															<labels>
																<label2>Violet</label2>
															</labels>
														</clipitem>
														<clipitem id="clipitem-90">
															<masterclipid>masterclip-31</masterclipid>
															<name>(alphafoodie)_B_FkQqoAa-J_IG.mp4</name>
															<enabled>TRUE</enabled>
															<duration>6262</duration>
															<rate>
																<timebase>30</timebase>
																<ntsc>TRUE</ntsc>
															</rate>
															<start>985</start>
															<end>995</end>
															<in>1530</in>
															<out>1540</out>
															<pproTicksIn>12967770816000</pproTicksIn>
															<pproTicksOut>13052527488000</pproTicksOut>
															<alphatype>none</alphatype>
															<file id="file-24"/>
															<filter>
																<effect>
																	<name>Basic Motion</name>
																	<effectid>basic</effectid>
																	<effectcategory>motion</effectcategory>
																	<effecttype>motion</effecttype>
																	<mediatype>video</mediatype>
																	<pproBypass>false</pproBypass>
																	<parameter authoringApp="PremierePro">
																		<parameterid>scale</parameterid>
																		<name>Scale</name>
																		<valuemin>0</valuemin>
																		<valuemax>1000</valuemax>
																		<value>100</value>
																	</parameter>
																	<parameter authoringApp="PremierePro">
																		<parameterid>rotation</parameterid>
																		<name>Rotation</name>
																		<valuemin>-8640</valuemin>
																		<valuemax>8640</valuemax>
																		<value>0</value>
																	</parameter>
																	<parameter authoringApp="PremierePro">
																		<parameterid>center</parameterid>
																		<name>Center</name>
																		<value>
																			<horiz>0.0194445</horiz>
																			<vert>0</vert>
																		</value>
																	</parameter>
																	<parameter authoringApp="PremierePro">
																		<parameterid>centerOffset</parameterid>
																		<name>Anchor Point</name>
																		<value>
																			<horiz>0</horiz>
																			<vert>0</vert>
																		</value>
																	</parameter>
																	<parameter authoringApp="PremierePro">
																		<parameterid>antiflicker</parameterid>
																		<name>Anti-flicker Filter</name>
																		<valuemin>0.0</valuemin>
																		<valuemax>1.0</valuemax>
																		<value>0</value>
																	</parameter>
																</effect>
															</filter>
															<logginginfo>
																<description></description>
																<scene></scene>
																<shottake></shottake>
																<lognote></lognote>
																<good></good>
																<originalvideofilename></originalvideofilename>
																<originalaudiofilename></originalaudiofilename>
															</logginginfo>
															<colorinfo>
																<lut></lut>
																<lut1></lut1>
																<asc_sop></asc_sop>
																<asc_sat></asc_sat>
																<lut2></lut2>
															</colorinfo>
															<labels>
																<label2>Violet</label2>
															</labels>
														</clipitem>
														<clipitem id="clipitem-91">
															<masterclipid>masterclip-31</masterclipid>
															<name>(alphafoodie)_B_FkQqoAa-J_IG.mp4</name>
															<enabled>TRUE</enabled>
															<duration>6262</duration>
															<rate>
																<timebase>30</timebase>
																<ntsc>TRUE</ntsc>
															</rate>
															<start>995</start>
															<end>1342</end>
															<in>1659</in>
															<out>2006</out>
															<pproTicksIn>14061131884800</pproTicksIn>
															<pproTicksOut>17002188403200</pproTicksOut>
															<alphatype>none</alphatype>
															<file id="file-24"/>
															<filter>
																<effect>
																	<name>Basic Motion</name>
																	<effectid>basic</effectid>
																	<effectcategory>motion</effectcategory>
																	<effecttype>motion</effecttype>
																	<mediatype>video</mediatype>
																	<pproBypass>false</pproBypass>
																	<parameter authoringApp="PremierePro">
																		<parameterid>scale</parameterid>
																		<name>Scale</name>
																		<valuemin>0</valuemin>
																		<valuemax>1000</valuemax>
																		<value>100</value>
																	</parameter>
																	<parameter authoringApp="PremierePro">
																		<parameterid>rotation</parameterid>
																		<name>Rotation</name>
																		<valuemin>-8640</valuemin>
																		<valuemax>8640</valuemax>
																		<value>0</value>
																	</parameter>
																	<parameter authoringApp="PremierePro">
																		<parameterid>center</parameterid>
																		<name>Center</name>
																		<value>
																			<horiz>0.0194445</horiz>
																			<vert>0</vert>
																		</value>
																	</parameter>
																	<parameter authoringApp="PremierePro">
																		<parameterid>centerOffset</parameterid>
																		<name>Anchor Point</name>
																		<value>
																			<horiz>0</horiz>
																			<vert>0</vert>
																		</value>
																	</parameter>
																	<parameter authoringApp="PremierePro">
																		<parameterid>antiflicker</parameterid>
																		<name>Anti-flicker Filter</name>
																		<valuemin>0.0</valuemin>
																		<valuemax>1.0</valuemax>
																		<value>0</value>
																	</parameter>
																</effect>
															</filter>
															<logginginfo>
																<description></description>
																<scene></scene>
																<shottake></shottake>
																<lognote></lognote>
																<good></good>
																<originalvideofilename></originalvideofilename>
																<originalaudiofilename></originalaudiofilename>
															</logginginfo>
															<colorinfo>
																<lut></lut>
																<lut1></lut1>
																<asc_sop></asc_sop>
																<asc_sat></asc_sat>
																<lut2></lut2>
															</colorinfo>
															<labels>
																<label2>Violet</label2>
															</labels>
														</clipitem>
														<clipitem id="clipitem-92">
															<masterclipid>masterclip-32</masterclipid>
															<name>(bakedbyprecious)_7052170681194269999_TT.mp4</name>
															<enabled>TRUE</enabled>
															<duration>433</duration>
															<rate>
																<timebase>30</timebase>
																<ntsc>TRUE</ntsc>
															</rate>
															<start>1342</start>
															<end>1769</end>
															<in>6</in>
															<out>433</out>
															<pproTicksIn>50854003200</pproTicksIn>
															<pproTicksOut>3669963897600</pproTicksOut>
															<alphatype>none</alphatype>
															<pixelaspectratio>square</pixelaspectratio>
															<anamorphic>FALSE</anamorphic>
															<file id="file-25">
																<name>(bakedbyprecious)_7052170681194269999_TT.mp4</name>
																<pathurl>file://localhost/Volumes/ATM%201/EYE%20CANDY/8%3a14%3a23/3_Raw%20Files/pastel/(bakedbyprecious)_7052170681194269999_TT.mp4</pathurl>
																<rate>
																	<timebase>30</timebase>
																	<ntsc>FALSE</ntsc>
																</rate>
																<duration>434</duration>
																<timecode>
																	<rate>
																		<timebase>30</timebase>
																		<ntsc>FALSE</ntsc>
																	</rate>
																	<string>00:00:00:00</string>
																	<frame>0</frame>
																	<displayformat>NDF</displayformat>
																</timecode>
																<media>
																	<video>
																		<samplecharacteristics>
																			<rate>
																				<timebase>30</timebase>
																				<ntsc>FALSE</ntsc>
																			</rate>
																			<width>576</width>
																			<height>1026</height>
																			<anamorphic>FALSE</anamorphic>
																			<pixelaspectratio>square</pixelaspectratio>
																			<fielddominance>none</fielddominance>
																		</samplecharacteristics>
																	</video>
																	<audio>
																		<samplecharacteristics>
																			<depth>16</depth>
																			<samplerate>44100</samplerate>
																		</samplecharacteristics>
																		<channelcount>2</channelcount>
																	</audio>
																</media>
															</file>
															<filter>
																<effect>
																	<name>Basic Motion</name>
																	<effectid>basic</effectid>
																	<effectcategory>motion</effectcategory>
																	<effecttype>motion</effecttype>
																	<mediatype>video</mediatype>
																	<pproBypass>false</pproBypass>
																	<parameter authoringApp="PremierePro">
																		<parameterid>scale</parameterid>
																		<name>Scale</name>
																		<valuemin>0</valuemin>
																		<valuemax>1000</valuemax>
																		<value>100</value>
																	</parameter>
																	<parameter authoringApp="PremierePro">
																		<parameterid>rotation</parameterid>
																		<name>Rotation</name>
																		<valuemin>-8640</valuemin>
																		<valuemax>8640</valuemax>
																		<value>0</value>
																	</parameter>
																	<parameter authoringApp="PremierePro">
																		<parameterid>center</parameterid>
																		<name>Center</name>
																		<value>
																			<horiz>0.0243056</horiz>
																			<vert>0</vert>
																		</value>
																	</parameter>
																	<parameter authoringApp="PremierePro">
																		<parameterid>centerOffset</parameterid>
																		<name>Anchor Point</name>
																		<value>
																			<horiz>0</horiz>
																			<vert>0</vert>
																		</value>
																	</parameter>
																	<parameter authoringApp="PremierePro">
																		<parameterid>antiflicker</parameterid>
																		<name>Anti-flicker Filter</name>
																		<valuemin>0.0</valuemin>
																		<valuemax>1.0</valuemax>
																		<value>0</value>
																	</parameter>
																</effect>
															</filter>
															<logginginfo>
																<description></description>
																<scene></scene>
																<shottake></shottake>
																<lognote></lognote>
																<good></good>
																<originalvideofilename></originalvideofilename>
																<originalaudiofilename></originalaudiofilename>
															</logginginfo>
															<colorinfo>
																<lut></lut>
																<lut1></lut1>
																<asc_sop></asc_sop>
																<asc_sat></asc_sat>
																<lut2></lut2>
															</colorinfo>
															<labels>
																<label2>Violet</label2>
															</labels>
														</clipitem>
														<clipitem id="clipitem-93">
															<masterclipid>masterclip-33</masterclipid>
															<name>(roastedpepper)_7129231606341963051_TT.mp4</name>
															<enabled>TRUE</enabled>
															<duration>906</duration>
															<rate>
																<timebase>30</timebase>
																<ntsc>TRUE</ntsc>
															</rate>
															<start>1769</start>
															<end>2383</end>
															<in>238</in>
															<out>851</out>
															<pproTicksIn>2415565152000</pproTicksIn>
															<pproTicksOut>8660436744960</pproTicksOut>
															<alphatype>none</alphatype>
															<pixelaspectratio>square</pixelaspectratio>
															<anamorphic>FALSE</anamorphic>
															<file id="file-26">
																<name>(roastedpepper)_7129231606341963051_TT.mp4</name>
																<pathurl>file://localhost/Volumes/ATM%201/EYE%20CANDY/8%3a14%3a23/3_Raw%20Files/pastel/(roastedpepper)_7129231606341963051_TT.mp4</pathurl>
																<rate>
																	<timebase>30</timebase>
																	<ntsc>FALSE</ntsc>
																</rate>
																<duration>1090</duration>
																<timecode>
																	<rate>
																		<timebase>30</timebase>
																		<ntsc>FALSE</ntsc>
																	</rate>
																	<string>00:00:00:00</string>
																	<frame>0</frame>
																	<displayformat>NDF</displayformat>
																</timecode>
																<media>
																	<video>
																		<samplecharacteristics>
																			<rate>
																				<timebase>30</timebase>
																				<ntsc>FALSE</ntsc>
																			</rate>
																			<width>576</width>
																			<height>1020</height>
																			<anamorphic>FALSE</anamorphic>
																			<pixelaspectratio>square</pixelaspectratio>
																			<fielddominance>none</fielddominance>
																		</samplecharacteristics>
																	</video>
																	<audio>
																		<samplecharacteristics>
																			<depth>16</depth>
																			<samplerate>44100</samplerate>
																		</samplecharacteristics>
																		<channelcount>2</channelcount>
																	</audio>
																</media>
															</file>
															<filter>
																<effect>
																	<name>Basic Motion</name>
																	<effectid>basic</effectid>
																	<effectcategory>motion</effectcategory>
																	<effecttype>motion</effecttype>
																	<mediatype>video</mediatype>
																	<pproBypass>false</pproBypass>
																	<parameter authoringApp="PremierePro">
																		<parameterid>scale</parameterid>
																		<name>Scale</name>
																		<valuemin>0</valuemin>
																		<valuemax>1000</valuemax>
																		<value>100</value>
																	</parameter>
																	<parameter authoringApp="PremierePro">
																		<parameterid>rotation</parameterid>
																		<name>Rotation</name>
																		<valuemin>-8640</valuemin>
																		<valuemax>8640</valuemax>
																		<value>0</value>
																	</parameter>
																	<parameter authoringApp="PremierePro">
																		<parameterid>center</parameterid>
																		<name>Center</name>
																		<value>
																			<horiz>0.0243056</horiz>
																			<vert>0</vert>
																		</value>
																	</parameter>
																	<parameter authoringApp="PremierePro">
																		<parameterid>centerOffset</parameterid>
																		<name>Anchor Point</name>
																		<value>
																			<horiz>0</horiz>
																			<vert>0</vert>
																		</value>
																	</parameter>
																	<parameter authoringApp="PremierePro">
																		<parameterid>antiflicker</parameterid>
																		<name>Anti-flicker Filter</name>
																		<valuemin>0.0</valuemin>
																		<valuemax>1.0</valuemax>
																		<value>0</value>
																	</parameter>
																</effect>
															</filter>
															<filter>
																<effect>
																	<name>Time Remap</name>
																	<effectid>timeremap</effectid>
																	<effectcategory>motion</effectcategory>
																	<effecttype>motion</effecttype>
																	<mediatype>video</mediatype>
																	<parameter authoringApp="PremierePro">
																		<parameterid>variablespeed</parameterid>
																		<name>variablespeed</name>
																		<valuemin>0</valuemin>
																		<valuemax>1</valuemax>
																		<value>0</value>
																	</parameter>
																	<parameter authoringApp="PremierePro">
																		<parameterid>speed</parameterid>
																		<name>speed</name>
																		<valuemin>-100000</valuemin>
																		<valuemax>100000</valuemax>
																		<value>120</value>
																	</parameter>
																	<parameter authoringApp="PremierePro">
																		<parameterid>reverse</parameterid>
																		<name>reverse</name>
																		<value>FALSE</value>
																	</parameter>
																	<parameter authoringApp="PremierePro">
																		<parameterid>frameblending</parameterid>
																		<name>frameblending</name>
																		<value>FALSE</value>
																	</parameter>
																	<parameter authoringApp="PremierePro">
																		<parameterid>graphdict</parameterid>
																		<name>graphdict</name>
																		<valuemin>0</valuemin>
																		<valuemax>1087</valuemax>
																		<value>0</value>
																		<keyframe>
																			<when>0</when>
																			<value>0</value>
																			<speedvirtualkf>TRUE</speedvirtualkf>
																			<speedkfstart>TRUE</speedkfstart>
																		</keyframe>
																		<keyframe>
																			<when>238</when>
																			<value>285</value>
																			<speedvirtualkf>TRUE</speedvirtualkf>
																			<speedkfin>TRUE</speedkfin>
																		</keyframe>
																		<keyframe>
																			<when>851</when>
																			<value>1021</value>
																			<speedvirtualkf>TRUE</speedvirtualkf>
																			<speedkfout>TRUE</speedkfout>
																		</keyframe>
																		<keyframe>
																			<when>906</when>
																			<value>1087</value>
																			<speedvirtualkf>TRUE</speedvirtualkf>
																			<speedkfend>TRUE</speedkfend>
																		</keyframe>
																		<interpolation>
																			<name>FCPCurve</name>
																		</interpolation>
																	</parameter>
																</effect>
															</filter>
															<logginginfo>
																<description></description>
																<scene></scene>
																<shottake></shottake>
																<lognote></lognote>
																<good></good>
																<originalvideofilename></originalvideofilename>
																<originalaudiofilename></originalaudiofilename>
															</logginginfo>
															<colorinfo>
																<lut></lut>
																<lut1></lut1>
																<asc_sop></asc_sop>
																<asc_sat></asc_sat>
																<lut2></lut2>
															</colorinfo>
															<labels>
																<label2>Violet</label2>
															</labels>
														</clipitem>
														<clipitem id="clipitem-94">
															<masterclipid>masterclip-34</masterclipid>
															<name>(loganscandies)_6941446682286574854_TT.mp4</name>
															<enabled>TRUE</enabled>
															<duration>595</duration>
															<rate>
																<timebase>30</timebase>
																<ntsc>TRUE</ntsc>
															</rate>
															<start>2383</start>
															<end>2978</end>
															<in>0</in>
															<out>595</out>
															<pproTicksIn>0</pproTicksIn>
															<pproTicksOut>5043021984000</pproTicksOut>
															<alphatype>none</alphatype>
															<pixelaspectratio>square</pixelaspectratio>
															<anamorphic>FALSE</anamorphic>
															<file id="file-27">
																<name>(loganscandies)_6941446682286574854_TT.mp4</name>
																<pathurl>file://localhost/Volumes/ATM%201/EYE%20CANDY/8%3a14%3a23/3_Raw%20Files/pastel/(loganscandies)_6941446682286574854_TT.mp4</pathurl>
																<rate>
																	<timebase>29</timebase>
																	<ntsc>FALSE</ntsc>
																</rate>
																<duration>576</duration>
																<timecode>
																	<rate>
																		<timebase>29</timebase>
																		<ntsc>FALSE</ntsc>
																	</rate>
																	<string>00:00:00:00</string>
																	<frame>0</frame>
																	<displayformat>NDF</displayformat>
																</timecode>
																<media>
																	<video>
																		<samplecharacteristics>
																			<rate>
																				<timebase>29</timebase>
																				<ntsc>FALSE</ntsc>
																			</rate>
																			<width>576</width>
																			<height>1024</height>
																			<anamorphic>FALSE</anamorphic>
																			<pixelaspectratio>square</pixelaspectratio>
																			<fielddominance>none</fielddominance>
																		</samplecharacteristics>
																	</video>
																	<audio>
																		<samplecharacteristics>
																			<depth>16</depth>
																			<samplerate>44100</samplerate>
																		</samplecharacteristics>
																		<channelcount>2</channelcount>
																	</audio>
																</media>
															</file>
															<filter>
																<effect>
																	<name>Basic Motion</name>
																	<effectid>basic</effectid>
																	<effectcategory>motion</effectcategory>
																	<effecttype>motion</effecttype>
																	<mediatype>video</mediatype>
																	<pproBypass>false</pproBypass>
																	<parameter authoringApp="PremierePro">
																		<parameterid>scale</parameterid>
																		<name>Scale</name>
																		<valuemin>0</valuemin>
																		<valuemax>1000</valuemax>
																		<value>100</value>
																	</parameter>
																	<parameter authoringApp="PremierePro">
																		<parameterid>rotation</parameterid>
																		<name>Rotation</name>
																		<valuemin>-8640</valuemin>
																		<valuemax>8640</valuemax>
																		<value>0</value>
																	</parameter>
																	<parameter authoringApp="PremierePro">
																		<parameterid>center</parameterid>
																		<name>Center</name>
																		<value>
																			<horiz>0.0243056</horiz>
																			<vert>0</vert>
																		</value>
																	</parameter>
																	<parameter authoringApp="PremierePro">
																		<parameterid>centerOffset</parameterid>
																		<name>Anchor Point</name>
																		<value>
																			<horiz>0</horiz>
																			<vert>0</vert>
																		</value>
																	</parameter>
																	<parameter authoringApp="PremierePro">
																		<parameterid>antiflicker</parameterid>
																		<name>Anti-flicker Filter</name>
																		<valuemin>0.0</valuemin>
																		<valuemax>1.0</valuemax>
																		<value>0</value>
																	</parameter>
																</effect>
															</filter>
															<logginginfo>
																<description></description>
																<scene></scene>
																<shottake></shottake>
																<lognote></lognote>
																<good></good>
																<originalvideofilename></originalvideofilename>
																<originalaudiofilename></originalaudiofilename>
															</logginginfo>
															<colorinfo>
																<lut></lut>
																<lut1></lut1>
																<asc_sop></asc_sop>
																<asc_sat></asc_sat>
																<lut2></lut2>
															</colorinfo>
															<labels>
																<label2>Violet</label2>
															</labels>
														</clipitem>
														<clipitem id="clipitem-95">
															<masterclipid>masterclip-35</masterclipid>
															<name>(sugarandsparrowco)_CZe0T1NoJTE_IG.mp4</name>
															<enabled>TRUE</enabled>
															<duration>1012</duration>
															<rate>
																<timebase>30</timebase>
																<ntsc>TRUE</ntsc>
															</rate>
															<start>2978</start>
															<end>3570</end>
															<in>165</in>
															<out>757</out>
															<pproTicksIn>1398485088000</pproTicksIn>
															<pproTicksOut>6416080070400</pproTicksOut>
															<alphatype>none</alphatype>
															<pixelaspectratio>square</pixelaspectratio>
															<anamorphic>FALSE</anamorphic>
															<file id="file-28">
																<name>(sugarandsparrowco)_CZe0T1NoJTE_IG.mp4</name>
																<pathurl>file://localhost/Volumes/ATM%201/EYE%20CANDY/8%3a14%3a23/3_Raw%20Files/pastel/(sugarandsparrowco)_CZe0T1NoJTE_IG.mp4</pathurl>
																<rate>
																	<timebase>30</timebase>
																	<ntsc>FALSE</ntsc>
																</rate>
																<duration>1014</duration>
																<timecode>
																	<rate>
																		<timebase>30</timebase>
																		<ntsc>FALSE</ntsc>
																	</rate>
																	<string>00:00:00:00</string>
																	<frame>0</frame>
																	<displayformat>NDF</displayformat>
																</timecode>
																<media>
																	<video>
																		<samplecharacteristics>
																			<rate>
																				<timebase>30</timebase>
																				<ntsc>FALSE</ntsc>
																			</rate>
																			<width>720</width>
																			<height>1280</height>
																			<anamorphic>FALSE</anamorphic>
																			<pixelaspectratio>square</pixelaspectratio>
																			<fielddominance>none</fielddominance>
																		</samplecharacteristics>
																	</video>
																	<audio>
																		<samplecharacteristics>
																			<depth>16</depth>
																			<samplerate>44100</samplerate>
																		</samplecharacteristics>
																		<channelcount>2</channelcount>
																	</audio>
																</media>
															</file>
															<filter>
																<effect>
																	<name>Basic Motion</name>
																	<effectid>basic</effectid>
																	<effectcategory>motion</effectcategory>
																	<effecttype>motion</effecttype>
																	<mediatype>video</mediatype>
																	<pproBypass>false</pproBypass>
																	<parameter authoringApp="PremierePro">
																		<parameterid>scale</parameterid>
																		<name>Scale</name>
																		<valuemin>0</valuemin>
																		<valuemax>1000</valuemax>
																		<value>100</value>
																	</parameter>
																	<parameter authoringApp="PremierePro">
																		<parameterid>rotation</parameterid>
																		<name>Rotation</name>
																		<valuemin>-8640</valuemin>
																		<valuemax>8640</valuemax>
																		<value>0</value>
																	</parameter>
																	<parameter authoringApp="PremierePro">
																		<parameterid>center</parameterid>
																		<name>Center</name>
																		<value>
																			<horiz>0.0194445</horiz>
																			<vert>0</vert>
																		</value>
																	</parameter>
																	<parameter authoringApp="PremierePro">
																		<parameterid>centerOffset</parameterid>
																		<name>Anchor Point</name>
																		<value>
																			<horiz>0</horiz>
																			<vert>0</vert>
																		</value>
																	</parameter>
																	<parameter authoringApp="PremierePro">
																		<parameterid>antiflicker</parameterid>
																		<name>Anti-flicker Filter</name>
																		<valuemin>0.0</valuemin>
																		<valuemax>1.0</valuemax>
																		<value>0</value>
																	</parameter>
																</effect>
															</filter>
															<logginginfo>
																<description></description>
																<scene></scene>
																<shottake></shottake>
																<lognote></lognote>
																<good></good>
																<originalvideofilename></originalvideofilename>
																<originalaudiofilename></originalaudiofilename>
															</logginginfo>
															<colorinfo>
																<lut></lut>
																<lut1></lut1>
																<asc_sop></asc_sop>
																<asc_sat></asc_sat>
																<lut2></lut2>
															</colorinfo>
															<labels>
																<label2>Violet</label2>
															</labels>
														</clipitem>
														<enabled>TRUE</enabled>
														<locked>FALSE</locked>
													</track>
													<track TL.SQTrackShy="0" TL.SQTrackExpandedHeight="25" TL.SQTrackExpanded="0" MZ.TrackTargeted="0">
														<clipitem id="clipitem-96">
															<masterclipid>masterclip-36</masterclipid>
															<name>Eyecandy Vertical Video Frame 2</name>
															<enabled>TRUE</enabled>
															<duration>5700</duration>
															<rate>
																<timebase>30</timebase>
																<ntsc>TRUE</ntsc>
															</rate>
															<start>0</start>
															<end>650</end>
															<in>50</in>
															<out>700</out>
															<pproTicksIn>423783360000</pproTicksIn>
															<pproTicksOut>5932967040000</pproTicksOut>
															<alphatype>straight</alphatype>
															<pixelaspectratio>square</pixelaspectratio>
															<anamorphic>FALSE</anamorphic>
															<file id="file-29">
																<name>Eyecandy Vertical Video Frame 2/Eyecandy Vertical Video Frame 2.aegraphic</name>
																<pathurl>file://localhost/Volumes/ATM%201/EYE%20CANDY/8%3a14%3a23/4_Project%20Files/Motion%20Graphics%20Template%20Media/6e66e542-0241-4345-922f-b5dec8132f28/Eyecandy%20Vertical%20Video%20Frame%202.aegraphic</pathurl>
																<rate>
																	<timebase>24</timebase>
																	<ntsc>TRUE</ntsc>
																</rate>
																<duration>4560</duration>
																<timecode>
																	<rate>
																		<timebase>24</timebase>
																		<ntsc>TRUE</ntsc>
																	</rate>
																	<string>00:00:00:00</string>
																	<frame>0</frame>
																	<displayformat>NDF</displayformat>
																</timecode>
																<media>
																	<video>
																		<samplecharacteristics>
																			<rate>
																				<timebase>24</timebase>
																				<ntsc>TRUE</ntsc>
																			</rate>
																			<width>1920</width>
																			<height>1080</height>
																			<anamorphic>FALSE</anamorphic>
																			<pixelaspectratio>square</pixelaspectratio>
																			<fielddominance>lower</fielddominance>
																		</samplecharacteristics>
																	</video>
																</media>
															</file>
															<logginginfo>
																<description></description>
																<scene></scene>
																<shottake></shottake>
																<lognote></lognote>
																<good></good>
																<originalvideofilename></originalvideofilename>
																<originalaudiofilename></originalaudiofilename>
															</logginginfo>
															<colorinfo>
																<lut></lut>
																<lut1></lut1>
																<asc_sop></asc_sop>
																<asc_sat></asc_sat>
																<lut2></lut2>
															</colorinfo>
															<labels>
																<label2>Teal</label2>
															</labels>
														</clipitem>
														<clipitem id="clipitem-97">
															<masterclipid>masterclip-36</masterclipid>
															<name>Eyecandy Vertical Video Frame 2</name>
															<enabled>TRUE</enabled>
															<duration>5700</duration>
															<rate>
																<timebase>30</timebase>
																<ntsc>TRUE</ntsc>
															</rate>
															<start>650</start>
															<end>1342</end>
															<in>700</in>
															<out>1392</out>
															<pproTicksIn>5932967040000</pproTicksIn>
															<pproTicksOut>11798128742400</pproTicksOut>
															<alphatype>straight</alphatype>
															<file id="file-29"/>
															<logginginfo>
																<description></description>
																<scene></scene>
																<shottake></shottake>
																<lognote></lognote>
																<good></good>
																<originalvideofilename></originalvideofilename>
																<originalaudiofilename></originalaudiofilename>
															</logginginfo>
															<colorinfo>
																<lut></lut>
																<lut1></lut1>
																<asc_sop></asc_sop>
																<asc_sat></asc_sat>
																<lut2></lut2>
															</colorinfo>
															<labels>
																<label2>Teal</label2>
															</labels>
														</clipitem>
														<clipitem id="clipitem-98">
															<masterclipid>masterclip-36</masterclipid>
															<name>Eyecandy Vertical Video Frame 2</name>
															<enabled>TRUE</enabled>
															<duration>5700</duration>
															<rate>
																<timebase>30</timebase>
																<ntsc>TRUE</ntsc>
															</rate>
															<start>1342</start>
															<end>1769</end>
															<in>1392</in>
															<out>1819</out>
															<pproTicksIn>11798128742400</pproTicksIn>
															<pproTicksOut>15417238636800</pproTicksOut>
															<alphatype>straight</alphatype>
															<file id="file-29"/>
															<logginginfo>
																<description></description>
																<scene></scene>
																<shottake></shottake>
																<lognote></lognote>
																<good></good>
																<originalvideofilename></originalvideofilename>
																<originalaudiofilename></originalaudiofilename>
															</logginginfo>
															<colorinfo>
																<lut></lut>
																<lut1></lut1>
																<asc_sop></asc_sop>
																<asc_sat></asc_sat>
																<lut2></lut2>
															</colorinfo>
															<labels>
																<label2>Teal</label2>
															</labels>
														</clipitem>
														<clipitem id="clipitem-99">
															<masterclipid>masterclip-36</masterclipid>
															<name>Eyecandy Vertical Video Frame 2</name>
															<enabled>TRUE</enabled>
															<duration>5700</duration>
															<rate>
																<timebase>30</timebase>
																<ntsc>TRUE</ntsc>
															</rate>
															<start>1769</start>
															<end>2383</end>
															<in>1819</in>
															<out>2433</out>
															<pproTicksIn>15417238636800</pproTicksIn>
															<pproTicksOut>20621298297600</pproTicksOut>
															<alphatype>straight</alphatype>
															<file id="file-29"/>
															<logginginfo>
																<description></description>
																<scene></scene>
																<shottake></shottake>
																<lognote></lognote>
																<good></good>
																<originalvideofilename></originalvideofilename>
																<originalaudiofilename></originalaudiofilename>
															</logginginfo>
															<colorinfo>
																<lut></lut>
																<lut1></lut1>
																<asc_sop></asc_sop>
																<asc_sat></asc_sat>
																<lut2></lut2>
															</colorinfo>
															<labels>
																<label2>Teal</label2>
															</labels>
														</clipitem>
														<clipitem id="clipitem-100">
															<masterclipid>masterclip-36</masterclipid>
															<name>Eyecandy Vertical Video Frame 2</name>
															<enabled>TRUE</enabled>
															<duration>5700</duration>
															<rate>
																<timebase>30</timebase>
																<ntsc>TRUE</ntsc>
															</rate>
															<start>2383</start>
															<end>2978</end>
															<in>2433</in>
															<out>3028</out>
															<pproTicksIn>20621298297600</pproTicksIn>
															<pproTicksOut>25664320281600</pproTicksOut>
															<alphatype>straight</alphatype>
															<file id="file-29"/>
															<logginginfo>
																<description></description>
																<scene></scene>
																<shottake></shottake>
																<lognote></lognote>
																<good></good>
																<originalvideofilename></originalvideofilename>
																<originalaudiofilename></originalaudiofilename>
															</logginginfo>
															<colorinfo>
																<lut></lut>
																<lut1></lut1>
																<asc_sop></asc_sop>
																<asc_sat></asc_sat>
																<lut2></lut2>
															</colorinfo>
															<labels>
																<label2>Teal</label2>
															</labels>
														</clipitem>
														<clipitem id="clipitem-101">
															<masterclipid>masterclip-36</masterclipid>
															<name>Eyecandy Vertical Video Frame 2</name>
															<enabled>TRUE</enabled>
															<duration>5700</duration>
															<rate>
																<timebase>30</timebase>
																<ntsc>TRUE</ntsc>
															</rate>
															<start>2978</start>
															<end>3570</end>
															<in>3028</in>
															<out>3620</out>
															<pproTicksIn>25664320281600</pproTicksIn>
															<pproTicksOut>30681915264000</pproTicksOut>
															<alphatype>straight</alphatype>
															<file id="file-29"/>
															<logginginfo>
																<description></description>
																<scene></scene>
																<shottake></shottake>
																<lognote></lognote>
																<good></good>
																<originalvideofilename></originalvideofilename>
																<originalaudiofilename></originalaudiofilename>
															</logginginfo>
															<colorinfo>
																<lut></lut>
																<lut1></lut1>
																<asc_sop></asc_sop>
																<asc_sat></asc_sat>
																<lut2></lut2>
															</colorinfo>
															<labels>
																<label2>Teal</label2>
															</labels>
														</clipitem>
														<enabled>TRUE</enabled>
														<locked>FALSE</locked>
													</track>
													<track TL.SQTrackShy="0" TL.SQTrackExpandedHeight="25" TL.SQTrackExpanded="0" MZ.TrackTargeted="0">
														<enabled>TRUE</enabled>
														<locked>FALSE</locked>
													</track>
													<track TL.SQTrackShy="0" TL.SQTrackExpandedHeight="25" TL.SQTrackExpanded="0" MZ.TrackTargeted="0">
														<enabled>TRUE</enabled>
														<locked>FALSE</locked>
													</track>
													<track TL.SQTrackShy="0" TL.SQTrackExpandedHeight="25" TL.SQTrackExpanded="0" MZ.TrackTargeted="0">
														<enabled>TRUE</enabled>
														<locked>FALSE</locked>
													</track>
													<track TL.SQTrackShy="0" TL.SQTrackExpandedHeight="25" TL.SQTrackExpanded="0" MZ.TrackTargeted="0">
														<enabled>TRUE</enabled>
														<locked>FALSE</locked>
													</track>
													<track TL.SQTrackShy="0" TL.SQTrackExpandedHeight="25" TL.SQTrackExpanded="0" MZ.TrackTargeted="0">
														<enabled>TRUE</enabled>
														<locked>FALSE</locked>
													</track>
													<track TL.SQTrackShy="0" TL.SQTrackExpandedHeight="25" TL.SQTrackExpanded="0" MZ.TrackTargeted="0">
														<enabled>TRUE</enabled>
														<locked>FALSE</locked>
													</track>
													<track TL.SQTrackShy="0" TL.SQTrackExpandedHeight="25" TL.SQTrackExpanded="0" MZ.TrackTargeted="0">
														<enabled>TRUE</enabled>
														<locked>FALSE</locked>
													</track>
													<track TL.SQTrackShy="0" TL.SQTrackExpandedHeight="25" TL.SQTrackExpanded="0" MZ.TrackTargeted="0">
														<enabled>TRUE</enabled>
														<locked>FALSE</locked>
													</track>
												</video>
												<audio>
													<numOutputChannels>2</numOutputChannels>
													<format>
														<samplecharacteristics>
															<depth>16</depth>
															<samplerate>48000</samplerate>
														</samplecharacteristics>
													</format>
													<outputs>
														<group>
															<index>1</index>
															<numchannels>1</numchannels>
															<downmix>0</downmix>
															<channel>
																<index>1</index>
															</channel>
														</group>
														<group>
															<index>2</index>
															<numchannels>1</numchannels>
															<downmix>0</downmix>
															<channel>
																<index>2</index>
															</channel>
														</group>
													</outputs>
													<track TL.SQTrackAudioKeyframeStyle="0" TL.SQTrackShy="0" TL.SQTrackExpandedHeight="25" TL.SQTrackExpanded="0" MZ.TrackTargeted="1" PannerCurrentValue="0.5" PannerIsInverted="true" PannerStartKeyframe="-91445760000000000,0.5,0,0,0,0,0,0" PannerName="Balance" currentExplodedTrackIndex="0" totalExplodedTrackCount="2" premiereTrackType="Stereo">
														<clipitem id="clipitem-102" premiereChannelType="stereo">
															<masterclipid>masterclip-37</masterclipid>
															<name>ES_Getting Lost - Lupus Nocte.mp3</name>
															<enabled>TRUE</enabled>
															<duration>5147</duration>
															<rate>
																<timebase>30</timebase>
																<ntsc>TRUE</ntsc>
															</rate>
															<start>0</start>
															<end>3570</end>
															<in>0</in>
															<out>3570</out>
															<pproTicksIn>0</pproTicksIn>
															<pproTicksOut>30258131904000</pproTicksOut>
															<file id="file-30">
																<name>ES_Getting Lost - Lupus Nocte.mp3</name>
																<pathurl>file://localhost/Volumes/ATM%201/EYE%20CANDY/8%3a14%3a23/5_Assets/Music/ES_Getting%20Lost%20-%20Lupus%20Nocte.mp3</pathurl>
																<rate>
																	<timebase>30</timebase>
																	<ntsc>TRUE</ntsc>
																</rate>
																<duration>5147</duration>
																<timecode>
																	<rate>
																		<timebase>30</timebase>
																		<ntsc>TRUE</ntsc>
																	</rate>
																	<string>00;00;00;00</string>
																	<frame>0</frame>
																	<displayformat>DF</displayformat>
																</timecode>
																<media>
																	<audio>
																		<samplecharacteristics>
																			<depth>16</depth>
																			<samplerate>48000</samplerate>
																		</samplecharacteristics>
																		<channelcount>2</channelcount>
																	</audio>
																</media>
															</file>
															<sourcetrack>
																<mediatype>audio</mediatype>
																<trackindex>1</trackindex>
															</sourcetrack>
															<link>
																<linkclipref>clipitem-102</linkclipref>
																<mediatype>audio</mediatype>
																<trackindex>1</trackindex>
																<clipindex>1</clipindex>
																<groupindex>1</groupindex>
															</link>
															<link>
																<linkclipref>clipitem-103</linkclipref>
																<mediatype>audio</mediatype>
																<trackindex>2</trackindex>
																<clipindex>1</clipindex>
																<groupindex>1</groupindex>
															</link>
															<logginginfo>
																<description></description>
																<scene></scene>
																<shottake></shottake>
																<lognote></lognote>
																<good></good>
																<originalvideofilename></originalvideofilename>
																<originalaudiofilename></originalaudiofilename>
															</logginginfo>
															<colorinfo>
																<lut></lut>
																<lut1></lut1>
																<asc_sop></asc_sop>
																<asc_sat></asc_sat>
																<lut2></lut2>
															</colorinfo>
															<labels>
																<label2>Caribbean</label2>
															</labels>
														</clipitem>
														<enabled>TRUE</enabled>
														<locked>FALSE</locked>
														<filter>
															<effect>
																<name>Audio Levels</name>
																<effectid>audiolevels</effectid>
																<effectcategory>audiolevels</effectcategory>
																<effecttype>audiolevels</effecttype>
																<mediatype>audio</mediatype>
																<parameter authoringApp="PremierePro">
																	<parameterid>level</parameterid>
																	<name>Level</name>
																	<valuemin>0</valuemin>
																	<valuemax>3.98109</valuemax>
																	<value>0.706272</value>
																</parameter>
															</effect>
														</filter>
														<outputchannelindex>1</outputchannelindex>
													</track>
													<track TL.SQTrackAudioKeyframeStyle="0" TL.SQTrackShy="0" TL.SQTrackExpandedHeight="25" TL.SQTrackExpanded="0" MZ.TrackTargeted="1" PannerCurrentValue="0.5" PannerIsInverted="true" PannerStartKeyframe="-91445760000000000,0.5,0,0,0,0,0,0" PannerName="Balance" currentExplodedTrackIndex="1" totalExplodedTrackCount="2" premiereTrackType="Stereo">
														<clipitem id="clipitem-103" premiereChannelType="stereo">
															<masterclipid>masterclip-37</masterclipid>
															<name>ES_Getting Lost - Lupus Nocte.mp3</name>
															<enabled>TRUE</enabled>
															<duration>5147</duration>
															<rate>
																<timebase>30</timebase>
																<ntsc>TRUE</ntsc>
															</rate>
															<start>0</start>
															<end>3570</end>
															<in>0</in>
															<out>3570</out>
															<pproTicksIn>0</pproTicksIn>
															<pproTicksOut>30258131904000</pproTicksOut>
															<file id="file-30"/>
															<sourcetrack>
																<mediatype>audio</mediatype>
																<trackindex>2</trackindex>
															</sourcetrack>
															<link>
																<linkclipref>clipitem-102</linkclipref>
																<mediatype>audio</mediatype>
																<trackindex>1</trackindex>
																<clipindex>1</clipindex>
																<groupindex>1</groupindex>
															</link>
															<link>
																<linkclipref>clipitem-103</linkclipref>
																<mediatype>audio</mediatype>
																<trackindex>2</trackindex>
																<clipindex>1</clipindex>
																<groupindex>1</groupindex>
															</link>
															<logginginfo>
																<description></description>
																<scene></scene>
																<shottake></shottake>
																<lognote></lognote>
																<good></good>
																<originalvideofilename></originalvideofilename>
																<originalaudiofilename></originalaudiofilename>
															</logginginfo>
															<colorinfo>
																<lut></lut>
																<lut1></lut1>
																<asc_sop></asc_sop>
																<asc_sat></asc_sat>
																<lut2></lut2>
															</colorinfo>
															<labels>
																<label2>Caribbean</label2>
															</labels>
														</clipitem>
														<enabled>TRUE</enabled>
														<locked>FALSE</locked>
														<filter>
															<effect>
																<name>Audio Levels</name>
																<effectid>audiolevels</effectid>
																<effectcategory>audiolevels</effectcategory>
																<effecttype>audiolevels</effecttype>
																<mediatype>audio</mediatype>
																<parameter authoringApp="PremierePro">
																	<parameterid>level</parameterid>
																	<name>Level</name>
																	<valuemin>0</valuemin>
																	<valuemax>3.98109</valuemax>
																	<value>0.706272</value>
																</parameter>
															</effect>
														</filter>
														<outputchannelindex>2</outputchannelindex>
													</track>
													<track TL.SQTrackAudioKeyframeStyle="0" TL.SQTrackShy="0" TL.SQTrackExpandedHeight="25" TL.SQTrackExpanded="0" MZ.TrackTargeted="0" PannerCurrentValue="0.5" PannerIsInverted="true" PannerStartKeyframe="-91445760000000000,0.5,0,0,0,0,0,0" PannerName="Balance" currentExplodedTrackIndex="0" totalExplodedTrackCount="2" premiereTrackType="Stereo">
														<enabled>TRUE</enabled>
														<locked>FALSE</locked>
														<outputchannelindex>1</outputchannelindex>
													</track>
													<track TL.SQTrackAudioKeyframeStyle="0" TL.SQTrackShy="0" TL.SQTrackExpandedHeight="25" TL.SQTrackExpanded="0" MZ.TrackTargeted="0" PannerCurrentValue="0.5" PannerIsInverted="true" PannerStartKeyframe="-91445760000000000,0.5,0,0,0,0,0,0" PannerName="Balance" currentExplodedTrackIndex="1" totalExplodedTrackCount="2" premiereTrackType="Stereo">
														<enabled>TRUE</enabled>
														<locked>FALSE</locked>
														<outputchannelindex>2</outputchannelindex>
													</track>
													<track TL.SQTrackAudioKeyframeStyle="0" TL.SQTrackShy="0" TL.SQTrackExpandedHeight="25" TL.SQTrackExpanded="0" MZ.TrackTargeted="0" PannerCurrentValue="0.5" PannerIsInverted="true" PannerStartKeyframe="-91445760000000000,0.5,0,0,0,0,0,0" PannerName="Balance" currentExplodedTrackIndex="0" totalExplodedTrackCount="2" premiereTrackType="Stereo">
														<enabled>TRUE</enabled>
														<locked>FALSE</locked>
														<outputchannelindex>1</outputchannelindex>
													</track>
													<track TL.SQTrackAudioKeyframeStyle="0" TL.SQTrackShy="0" TL.SQTrackExpandedHeight="25" TL.SQTrackExpanded="0" MZ.TrackTargeted="0" PannerCurrentValue="0.5" PannerIsInverted="true" PannerStartKeyframe="-91445760000000000,0.5,0,0,0,0,0,0" PannerName="Balance" currentExplodedTrackIndex="1" totalExplodedTrackCount="2" premiereTrackType="Stereo">
														<enabled>TRUE</enabled>
														<locked>FALSE</locked>
														<outputchannelindex>2</outputchannelindex>
													</track>
													<track TL.SQTrackAudioKeyframeStyle="0" TL.SQTrackShy="0" TL.SQTrackExpandedHeight="25" TL.SQTrackExpanded="0" MZ.TrackTargeted="0" PannerCurrentValue="0.5" PannerIsInverted="true" PannerStartKeyframe="-91445760000000000,0.5,0,0,0,0,0,0" PannerName="Balance" currentExplodedTrackIndex="0" totalExplodedTrackCount="2" premiereTrackType="Stereo">
														<enabled>TRUE</enabled>
														<locked>FALSE</locked>
														<outputchannelindex>1</outputchannelindex>
													</track>
													<track TL.SQTrackAudioKeyframeStyle="0" TL.SQTrackShy="0" TL.SQTrackExpandedHeight="25" TL.SQTrackExpanded="0" MZ.TrackTargeted="0" PannerCurrentValue="0.5" PannerIsInverted="true" PannerStartKeyframe="-91445760000000000,0.5,0,0,0,0,0,0" PannerName="Balance" currentExplodedTrackIndex="1" totalExplodedTrackCount="2" premiereTrackType="Stereo">
														<enabled>TRUE</enabled>
														<locked>FALSE</locked>
														<outputchannelindex>2</outputchannelindex>
													</track>
													<track TL.SQTrackAudioKeyframeStyle="0" TL.SQTrackShy="0" TL.SQTrackExpandedHeight="25" TL.SQTrackExpanded="0" MZ.TrackTargeted="0" PannerCurrentValue="0.5" PannerIsInverted="true" PannerStartKeyframe="-91445760000000000,0.5,0,0,0,0,0,0" PannerName="Balance" currentExplodedTrackIndex="0" totalExplodedTrackCount="2" premiereTrackType="Stereo">
														<enabled>TRUE</enabled>
														<locked>FALSE</locked>
														<outputchannelindex>1</outputchannelindex>
													</track>
													<track TL.SQTrackAudioKeyframeStyle="0" TL.SQTrackShy="0" TL.SQTrackExpandedHeight="25" TL.SQTrackExpanded="0" MZ.TrackTargeted="0" PannerCurrentValue="0.5" PannerIsInverted="true" PannerStartKeyframe="-91445760000000000,0.5,0,0,0,0,0,0" PannerName="Balance" currentExplodedTrackIndex="1" totalExplodedTrackCount="2" premiereTrackType="Stereo">
														<enabled>TRUE</enabled>
														<locked>FALSE</locked>
														<outputchannelindex>2</outputchannelindex>
													</track>
													<track TL.SQTrackAudioKeyframeStyle="0" TL.SQTrackShy="0" TL.SQTrackExpandedHeight="25" TL.SQTrackExpanded="0" MZ.TrackTargeted="0" PannerCurrentValue="0.5" PannerIsInverted="true" PannerStartKeyframe="-91445760000000000,0.5,0,0,0,0,0,0" PannerName="Balance" currentExplodedTrackIndex="0" totalExplodedTrackCount="2" premiereTrackType="Stereo">
														<enabled>TRUE</enabled>
														<locked>FALSE</locked>
														<outputchannelindex>1</outputchannelindex>
													</track>
													<track TL.SQTrackAudioKeyframeStyle="0" TL.SQTrackShy="0" TL.SQTrackExpandedHeight="25" TL.SQTrackExpanded="0" MZ.TrackTargeted="0" PannerCurrentValue="0.5" PannerIsInverted="true" PannerStartKeyframe="-91445760000000000,0.5,0,0,0,0,0,0" PannerName="Balance" currentExplodedTrackIndex="1" totalExplodedTrackCount="2" premiereTrackType="Stereo">
														<enabled>TRUE</enabled>
														<locked>FALSE</locked>
														<outputchannelindex>2</outputchannelindex>
													</track>
													<track TL.SQTrackAudioKeyframeStyle="0" TL.SQTrackShy="0" TL.SQTrackExpandedHeight="25" TL.SQTrackExpanded="0" MZ.TrackTargeted="0" PannerCurrentValue="0.5" PannerIsInverted="true" PannerStartKeyframe="-91445760000000000,0.5,0,0,0,0,0,0" PannerName="Balance" currentExplodedTrackIndex="0" totalExplodedTrackCount="2" premiereTrackType="Stereo">
														<enabled>TRUE</enabled>
														<locked>FALSE</locked>
														<outputchannelindex>1</outputchannelindex>
													</track>
													<track TL.SQTrackAudioKeyframeStyle="0" TL.SQTrackShy="0" TL.SQTrackExpandedHeight="25" TL.SQTrackExpanded="0" MZ.TrackTargeted="0" PannerCurrentValue="0.5" PannerIsInverted="true" PannerStartKeyframe="-91445760000000000,0.5,0,0,0,0,0,0" PannerName="Balance" currentExplodedTrackIndex="1" totalExplodedTrackCount="2" premiereTrackType="Stereo">
														<enabled>TRUE</enabled>
														<locked>FALSE</locked>
														<outputchannelindex>2</outputchannelindex>
													</track>
													<track TL.SQTrackAudioKeyframeStyle="0" TL.SQTrackShy="0" TL.SQTrackExpandedHeight="25" TL.SQTrackExpanded="0" MZ.TrackTargeted="0" PannerCurrentValue="0.5" PannerIsInverted="true" PannerStartKeyframe="-91445760000000000,0.5,0,0,0,0,0,0" PannerName="Balance" currentExplodedTrackIndex="0" totalExplodedTrackCount="2" premiereTrackType="Stereo">
														<enabled>TRUE</enabled>
														<locked>FALSE</locked>
														<outputchannelindex>1</outputchannelindex>
													</track>
													<track TL.SQTrackAudioKeyframeStyle="0" TL.SQTrackShy="0" TL.SQTrackExpandedHeight="25" TL.SQTrackExpanded="0" MZ.TrackTargeted="0" PannerCurrentValue="0.5" PannerIsInverted="true" PannerStartKeyframe="-91445760000000000,0.5,0,0,0,0,0,0" PannerName="Balance" currentExplodedTrackIndex="1" totalExplodedTrackCount="2" premiereTrackType="Stereo">
														<enabled>TRUE</enabled>
														<locked>FALSE</locked>
														<outputchannelindex>2</outputchannelindex>
													</track>
													<track TL.SQTrackAudioKeyframeStyle="0" TL.SQTrackShy="0" TL.SQTrackExpandedHeight="25" TL.SQTrackExpanded="0" MZ.TrackTargeted="0" PannerCurrentValue="0.5" PannerIsInverted="true" PannerStartKeyframe="-91445760000000000,0.5,0,0,0,0,0,0" PannerName="Balance" currentExplodedTrackIndex="0" totalExplodedTrackCount="2" premiereTrackType="Stereo">
														<enabled>TRUE</enabled>
														<locked>FALSE</locked>
														<outputchannelindex>1</outputchannelindex>
													</track>
													<track TL.SQTrackAudioKeyframeStyle="0" TL.SQTrackShy="0" TL.SQTrackExpandedHeight="25" TL.SQTrackExpanded="0" MZ.TrackTargeted="0" PannerCurrentValue="0.5" PannerIsInverted="true" PannerStartKeyframe="-91445760000000000,0.5,0,0,0,0,0,0" PannerName="Balance" currentExplodedTrackIndex="1" totalExplodedTrackCount="2" premiereTrackType="Stereo">
														<enabled>TRUE</enabled>
														<locked>FALSE</locked>
														<outputchannelindex>2</outputchannelindex>
													</track>
													<track TL.SQTrackAudioKeyframeStyle="0" TL.SQTrackShy="0" TL.SQTrackExpandedHeight="25" TL.SQTrackExpanded="0" MZ.TrackTargeted="0" PannerCurrentValue="0.5" PannerIsInverted="true" PannerStartKeyframe="-91445760000000000,0.5,0,0,0,0,0,0" PannerName="Balance" currentExplodedTrackIndex="0" totalExplodedTrackCount="2" premiereTrackType="Stereo">
														<enabled>TRUE</enabled>
														<locked>FALSE</locked>
														<outputchannelindex>1</outputchannelindex>
													</track>
													<track TL.SQTrackAudioKeyframeStyle="0" TL.SQTrackShy="0" TL.SQTrackExpandedHeight="25" TL.SQTrackExpanded="0" MZ.TrackTargeted="0" PannerCurrentValue="0.5" PannerIsInverted="true" PannerStartKeyframe="-91445760000000000,0.5,0,0,0,0,0,0" PannerName="Balance" currentExplodedTrackIndex="1" totalExplodedTrackCount="2" premiereTrackType="Stereo">
														<enabled>TRUE</enabled>
														<locked>FALSE</locked>
														<outputchannelindex>2</outputchannelindex>
													</track>
												</audio>
											</media>
											<timecode>
												<rate>
													<timebase>30</timebase>
													<ntsc>TRUE</ntsc>
												</rate>
												<string>00;00;00;00</string>
												<frame>0</frame>
												<displayformat>DF</displayformat>
											</timecode>
											<logginginfo>
												<description></description>
												<scene></scene>
												<shottake></shottake>
												<lognote></lognote>
												<good></good>
												<originalvideofilename></originalvideofilename>
												<originalaudiofilename></originalaudiofilename>
											</logginginfo>
										</sequence>
										<link>
											<linkclipref>clipitem-81</linkclipref>
											<mediatype>video</mediatype>
											<trackindex>1</trackindex>
											<clipindex>2</clipindex>
										</link>
										<link>
											<linkclipref>clipitem-117</linkclipref>
											<mediatype>audio</mediatype>
											<trackindex>1</trackindex>
											<clipindex>3</clipindex>
											<groupindex>1</groupindex>
										</link>
										<link>
											<linkclipref>clipitem-120</linkclipref>
											<mediatype>audio</mediatype>
											<trackindex>2</trackindex>
											<clipindex>3</clipindex>
											<groupindex>1</groupindex>
										</link>
										<labels>
											<label2>Forest</label2>
										</labels>
									</clipitem>
									<clipitem id="clipitem-104">
										<masterclipid>masterclip-38</masterclipid>
										<name>Bumper 2</name>
										<enabled>TRUE</enabled>
										<duration>299</duration>
										<rate>
											<timebase>30</timebase>
											<ntsc>TRUE</ntsc>
										</rate>
										<start>5511</start>
										<end>5810</end>
										<in>0</in>
										<out>299</out>
										<pproTicksIn>0</pproTicksIn>
										<pproTicksOut>2534224492800</pproTicksOut>
										<sequence id="sequence-10" TL.SQAudioVisibleBase="0" TL.SQVideoVisibleBase="0" TL.SQVisibleBaseTime="0" TL.SQAVDividerPosition="0.5" TL.SQHideShyTracks="0" TL.SQHeaderWidth="236" Monitor.ProgramZoomOut="2534224492800" Monitor.ProgramZoomIn="0" TL.SQTimePerPixel="0.072184793070258338" MZ.EditLine="1212020409600" MZ.Sequence.PreviewFrameSizeHeight="1080" MZ.Sequence.PreviewFrameSizeWidth="1920" MZ.Sequence.AudioTimeDisplayFormat="200" MZ.Sequence.PreviewRenderingClassID="1061109567" MZ.Sequence.PreviewRenderingPresetCodec="1634755443" MZ.Sequence.PreviewRenderingPresetPath="EncoderPresets/SequencePreview/35d109db-457b-43c1-9452-9cb7be9f121c/QuickTime.epr" MZ.Sequence.PreviewUseMaxRenderQuality="false" MZ.Sequence.PreviewUseMaxBitDepth="false" MZ.Sequence.EditingModeGUID="35d109db-457b-43c1-9452-9cb7be9f121c" MZ.Sequence.VideoTimeDisplayFormat="102" MZ.WorkOutPoint="1262874412800" MZ.WorkInPoint="0">
											<duration>299</duration>
											<rate>
												<timebase>30</timebase>
												<ntsc>TRUE</ntsc>
											</rate>
											<name>Bumper 2</name>
											<media>
												<video>
													<format>
														<samplecharacteristics>
															<rate>
																<timebase>30</timebase>
																<ntsc>TRUE</ntsc>
															</rate>
															<codec>
																<name>Apple ProRes 422</name>
																<appspecificdata>
																	<appname>Final Cut Pro</appname>
																	<appmanufacturer>Apple Inc.</appmanufacturer>
																	<appversion>7.0</appversion>
																	<data>
																		<qtcodec>
																			<codecname>Apple ProRes 422</codecname>
																			<codectypename>Apple ProRes 422</codectypename>
																			<codectypecode>apcn</codectypecode>
																			<codecvendorcode>appl</codecvendorcode>
																			<spatialquality>1024</spatialquality>
																			<temporalquality>0</temporalquality>
																			<keyframerate>0</keyframerate>
																			<datarate>0</datarate>
																		</qtcodec>
																	</data>
																</appspecificdata>
															</codec>
															<width>1920</width>
															<height>1080</height>
															<anamorphic>FALSE</anamorphic>
															<pixelaspectratio>square</pixelaspectratio>
															<fielddominance>none</fielddominance>
															<colordepth>24</colordepth>
														</samplecharacteristics>
													</format>
													<track TL.SQTrackShy="0" TL.SQTrackExpandedHeight="25" TL.SQTrackExpanded="0" MZ.TrackTargeted="1">
														<clipitem id="clipitem-105">
															<masterclipid>masterclip-39</masterclipid>
															<name>ATM_YouAreWatching.mp4</name>
															<enabled>TRUE</enabled>
															<duration>299</duration>
															<rate>
																<timebase>30</timebase>
																<ntsc>TRUE</ntsc>
															</rate>
															<start>0</start>
															<end>299</end>
															<in>0</in>
															<out>299</out>
															<pproTicksIn>0</pproTicksIn>
															<pproTicksOut>2534224492800</pproTicksOut>
															<alphatype>none</alphatype>
															<pixelaspectratio>square</pixelaspectratio>
															<anamorphic>FALSE</anamorphic>
															<file id="file-31">
																<name>ATM_YouAreWatching.mp4</name>
																<pathurl>file://localhost/Volumes/ATM%201/EYE%20CANDY/Project%20Template/5_Assets/House%20Ads/ATM_YouAreWatching.mp4</pathurl>
																<rate>
																	<timebase>30</timebase>
																	<ntsc>FALSE</ntsc>
																</rate>
																<duration>300</duration>
																<timecode>
																	<rate>
																		<timebase>30</timebase>
																		<ntsc>FALSE</ntsc>
																	</rate>
																	<string>00:00:00:00</string>
																	<frame>0</frame>
																	<displayformat>NDF</displayformat>
																</timecode>
																<media>
																	<video>
																		<samplecharacteristics>
																			<rate>
																				<timebase>30</timebase>
																				<ntsc>FALSE</ntsc>
																			</rate>
																			<width>1920</width>
																			<height>1080</height>
																			<anamorphic>FALSE</anamorphic>
																			<pixelaspectratio>square</pixelaspectratio>
																			<fielddominance>none</fielddominance>
																		</samplecharacteristics>
																	</video>
																	<audio>
																		<samplecharacteristics>
																			<depth>16</depth>
																			<samplerate>48000</samplerate>
																		</samplecharacteristics>
																		<channelcount>2</channelcount>
																	</audio>
																</media>
															</file>
															<link>
																<linkclipref>clipitem-105</linkclipref>
																<mediatype>video</mediatype>
																<trackindex>1</trackindex>
																<clipindex>1</clipindex>
															</link>
															<link>
																<linkclipref>clipitem-106</linkclipref>
																<mediatype>audio</mediatype>
																<trackindex>1</trackindex>
																<clipindex>1</clipindex>
																<groupindex>1</groupindex>
															</link>
															<link>
																<linkclipref>clipitem-107</linkclipref>
																<mediatype>audio</mediatype>
																<trackindex>2</trackindex>
																<clipindex>1</clipindex>
																<groupindex>1</groupindex>
															</link>
															<logginginfo>
																<description></description>
																<scene></scene>
																<shottake></shottake>
																<lognote></lognote>
																<good></good>
																<originalvideofilename></originalvideofilename>
																<originalaudiofilename></originalaudiofilename>
															</logginginfo>
															<colorinfo>
																<lut></lut>
																<lut1></lut1>
																<asc_sop></asc_sop>
																<asc_sat></asc_sat>
																<lut2></lut2>
															</colorinfo>
														</clipitem>
														<enabled>TRUE</enabled>
														<locked>FALSE</locked>
													</track>
												</video>
												<audio>
													<numOutputChannels>2</numOutputChannels>
													<format>
														<samplecharacteristics>
															<depth>16</depth>
															<samplerate>48000</samplerate>
														</samplecharacteristics>
													</format>
													<outputs>
														<group>
															<index>1</index>
															<numchannels>1</numchannels>
															<downmix>0</downmix>
															<channel>
																<index>1</index>
															</channel>
														</group>
														<group>
															<index>2</index>
															<numchannels>1</numchannels>
															<downmix>0</downmix>
															<channel>
																<index>2</index>
															</channel>
														</group>
													</outputs>
													<track TL.SQTrackAudioKeyframeStyle="0" TL.SQTrackShy="0" TL.SQTrackExpandedHeight="25" TL.SQTrackExpanded="0" MZ.TrackTargeted="1" PannerCurrentValue="0.5" PannerIsInverted="true" PannerStartKeyframe="-91445760000000000,0.5,0,0,0,0,0,0" PannerName="Balance" currentExplodedTrackIndex="0" totalExplodedTrackCount="2" premiereTrackType="Stereo">
														<clipitem id="clipitem-106" premiereChannelType="stereo">
															<masterclipid>masterclip-39</masterclipid>
															<name>ATM_YouAreWatching.mp4</name>
															<enabled>TRUE</enabled>
															<duration>299</duration>
															<rate>
																<timebase>30</timebase>
																<ntsc>TRUE</ntsc>
															</rate>
															<start>0</start>
															<end>299</end>
															<in>0</in>
															<out>299</out>
															<pproTicksIn>0</pproTicksIn>
															<pproTicksOut>2534224492800</pproTicksOut>
															<file id="file-31"/>
															<sourcetrack>
																<mediatype>audio</mediatype>
																<trackindex>1</trackindex>
															</sourcetrack>
															<filter>
																<effect>
																	<name>Audio Levels</name>
																	<effectid>audiolevels</effectid>
																	<effectcategory>audiolevels</effectcategory>
																	<effecttype>audiolevels</effecttype>
																	<mediatype>audio</mediatype>
																	<pproBypass>false</pproBypass>
																	<parameter authoringApp="PremierePro">
																		<parameterid>level</parameterid>
																		<name>Level</name>
																		<valuemin>0</valuemin>
																		<valuemax>3.98109</valuemax>
																		<value>0.354813</value>
																	</parameter>
																</effect>
															</filter>
															<link>
																<linkclipref>clipitem-105</linkclipref>
																<mediatype>video</mediatype>
																<trackindex>1</trackindex>
																<clipindex>1</clipindex>
															</link>
															<link>
																<linkclipref>clipitem-106</linkclipref>
																<mediatype>audio</mediatype>
																<trackindex>1</trackindex>
																<clipindex>1</clipindex>
																<groupindex>1</groupindex>
															</link>
															<link>
																<linkclipref>clipitem-107</linkclipref>
																<mediatype>audio</mediatype>
																<trackindex>2</trackindex>
																<clipindex>1</clipindex>
																<groupindex>1</groupindex>
															</link>
															<logginginfo>
																<description></description>
																<scene></scene>
																<shottake></shottake>
																<lognote></lognote>
																<good></good>
																<originalvideofilename></originalvideofilename>
																<originalaudiofilename></originalaudiofilename>
															</logginginfo>
															<colorinfo>
																<lut></lut>
																<lut1></lut1>
																<asc_sop></asc_sop>
																<asc_sat></asc_sat>
																<lut2></lut2>
															</colorinfo>
														</clipitem>
														<enabled>TRUE</enabled>
														<locked>FALSE</locked>
														<outputchannelindex>1</outputchannelindex>
													</track>
													<track TL.SQTrackAudioKeyframeStyle="0" TL.SQTrackShy="0" TL.SQTrackExpandedHeight="25" TL.SQTrackExpanded="0" MZ.TrackTargeted="1" PannerCurrentValue="0.5" PannerIsInverted="true" PannerStartKeyframe="-91445760000000000,0.5,0,0,0,0,0,0" PannerName="Balance" currentExplodedTrackIndex="1" totalExplodedTrackCount="2" premiereTrackType="Stereo">
														<clipitem id="clipitem-107" premiereChannelType="stereo">
															<masterclipid>masterclip-39</masterclipid>
															<name>ATM_YouAreWatching.mp4</name>
															<enabled>TRUE</enabled>
															<duration>299</duration>
															<rate>
																<timebase>30</timebase>
																<ntsc>TRUE</ntsc>
															</rate>
															<start>0</start>
															<end>299</end>
															<in>0</in>
															<out>299</out>
															<pproTicksIn>0</pproTicksIn>
															<pproTicksOut>2534224492800</pproTicksOut>
															<file id="file-31"/>
															<sourcetrack>
																<mediatype>audio</mediatype>
																<trackindex>2</trackindex>
															</sourcetrack>
															<filter>
																<effect>
																	<name>Audio Levels</name>
																	<effectid>audiolevels</effectid>
																	<effectcategory>audiolevels</effectcategory>
																	<effecttype>audiolevels</effecttype>
																	<mediatype>audio</mediatype>
																	<pproBypass>false</pproBypass>
																	<parameter authoringApp="PremierePro">
																		<parameterid>level</parameterid>
																		<name>Level</name>
																		<valuemin>0</valuemin>
																		<valuemax>3.98109</valuemax>
																		<value>0.354813</value>
																	</parameter>
																</effect>
															</filter>
															<link>
																<linkclipref>clipitem-105</linkclipref>
																<mediatype>video</mediatype>
																<trackindex>1</trackindex>
																<clipindex>1</clipindex>
															</link>
															<link>
																<linkclipref>clipitem-106</linkclipref>
																<mediatype>audio</mediatype>
																<trackindex>1</trackindex>
																<clipindex>1</clipindex>
																<groupindex>1</groupindex>
															</link>
															<link>
																<linkclipref>clipitem-107</linkclipref>
																<mediatype>audio</mediatype>
																<trackindex>2</trackindex>
																<clipindex>1</clipindex>
																<groupindex>1</groupindex>
															</link>
															<logginginfo>
																<description></description>
																<scene></scene>
																<shottake></shottake>
																<lognote></lognote>
																<good></good>
																<originalvideofilename></originalvideofilename>
																<originalaudiofilename></originalaudiofilename>
															</logginginfo>
															<colorinfo>
																<lut></lut>
																<lut1></lut1>
																<asc_sop></asc_sop>
																<asc_sat></asc_sat>
																<lut2></lut2>
															</colorinfo>
														</clipitem>
														<enabled>TRUE</enabled>
														<locked>FALSE</locked>
														<outputchannelindex>2</outputchannelindex>
													</track>
												</audio>
											</media>
											<timecode>
												<rate>
													<timebase>30</timebase>
													<ntsc>TRUE</ntsc>
												</rate>
												<string>00;00;00;00</string>
												<frame>0</frame>
												<displayformat>DF</displayformat>
											</timecode>
											<logginginfo>
												<description></description>
												<scene></scene>
												<shottake></shottake>
												<lognote></lognote>
												<good></good>
												<originalvideofilename></originalvideofilename>
												<originalaudiofilename></originalaudiofilename>
											</logginginfo>
										</sequence>
										<link>
											<linkclipref>clipitem-104</linkclipref>
											<mediatype>video</mediatype>
											<trackindex>1</trackindex>
											<clipindex>3</clipindex>
										</link>
										<link>
											<linkclipref>clipitem-118</linkclipref>
											<mediatype>audio</mediatype>
											<trackindex>1</trackindex>
											<clipindex>5</clipindex>
											<groupindex>1</groupindex>
										</link>
										<link>
											<linkclipref>clipitem-121</linkclipref>
											<mediatype>audio</mediatype>
											<trackindex>2</trackindex>
											<clipindex>5</clipindex>
											<groupindex>1</groupindex>
										</link>
										<labels>
											<label2>Forest</label2>
										</labels>
									</clipitem>
									<enabled>TRUE</enabled>
									<locked>FALSE</locked>
								</track>
								<track TL.SQTrackShy="0" TL.SQTrackExpandedHeight="25" TL.SQTrackExpanded="0" MZ.TrackTargeted="0">
									<clipitem id="clipitem-108">
										<masterclipid>masterclip-16</masterclipid>
										<name>ATM BUG_1080_Top Right.png</name>
										<enabled>TRUE</enabled>
										<duration>1294705</duration>
										<rate>
											<timebase>30</timebase>
											<ntsc>TRUE</ntsc>
										</rate>
										<start>82</start>
										<end>5511</end>
										<in>107892</in>
										<out>113321</out>
										<pproTicksIn>914456685542400</pproTicksIn>
										<pproTicksOut>960471082771200</pproTicksOut>
										<alphatype>straight</alphatype>
										<file id="file-14"/>
										<logginginfo>
											<description></description>
											<scene></scene>
											<shottake></shottake>
											<lognote></lognote>
											<good></good>
											<originalvideofilename></originalvideofilename>
											<originalaudiofilename></originalaudiofilename>
										</logginginfo>
										<colorinfo>
											<lut></lut>
											<lut1></lut1>
											<asc_sop></asc_sop>
											<asc_sat></asc_sat>
											<lut2></lut2>
										</colorinfo>
										<labels>
										</labels>
									</clipitem>
									<enabled>TRUE</enabled>
									<locked>FALSE</locked>
								</track>
								<track TL.SQTrackShy="0" TL.SQTrackExpandedHeight="25" TL.SQTrackExpanded="0" MZ.TrackTargeted="0">
									<clipitem id="clipitem-109">
										<masterclipid>masterclip-40</masterclipid>
										<name>Nature Never Tasted So Good</name>
										<enabled>TRUE</enabled>
										<duration>6293</duration>
										<rate>
											<timebase>30</timebase>
											<ntsc>TRUE</ntsc>
										</rate>
										<start>115</start>
										<end>1941</end>
										<in>30</in>
										<out>1856</out>
										<pproTicksIn>254270016000</pproTicksIn>
										<pproTicksOut>15730838323200</pproTicksOut>
										<alphatype>straight</alphatype>
										<pixelaspectratio>square</pixelaspectratio>
										<anamorphic>FALSE</anamorphic>
										<file id="file-32">
											<name>EYECANDY_L3RD_JL_V03/EYECANDY_L3rd_JL_V04.aep</name>
											<pathurl>file://localhost/Volumes/ATM%201/EYE%20CANDY/Project%20Template/5_Assets/Eye%20Candy%20Mograph/EYECANDY_L3rd_JL_V04%20folder/EYECANDY_L3rd_JL_V04.aep</pathurl>
											<rate>
												<timebase>30</timebase>
												<ntsc>FALSE</ntsc>
											</rate>
											<duration>6300</duration>
											<timecode>
												<rate>
													<timebase>30</timebase>
													<ntsc>FALSE</ntsc>
												</rate>
												<string>00:00:00:00</string>
												<frame>0</frame>
												<displayformat>NDF</displayformat>
											</timecode>
											<media>
												<video>
													<samplecharacteristics>
														<rate>
															<timebase>30</timebase>
															<ntsc>FALSE</ntsc>
														</rate>
														<width>1920</width>
														<height>1080</height>
														<anamorphic>FALSE</anamorphic>
														<pixelaspectratio>square</pixelaspectratio>
														<fielddominance>lower</fielddominance>
													</samplecharacteristics>
												</video>
											</media>
										</file>
										<logginginfo>
											<description></description>
											<scene></scene>
											<shottake></shottake>
											<lognote></lognote>
											<good></good>
											<originalvideofilename></originalvideofilename>
											<originalaudiofilename></originalaudiofilename>
										</logginginfo>
										<colorinfo>
											<lut></lut>
											<lut1></lut1>
											<asc_sop></asc_sop>
											<asc_sat></asc_sat>
											<lut2></lut2>
										</colorinfo>
									</clipitem>
									<clipitem id="clipitem-110">
										<masterclipid>masterclip-41</masterclipid>
										<name>Pastel Power</name>
										<enabled>TRUE</enabled>
										<duration>6293</duration>
										<rate>
											<timebase>30</timebase>
											<ntsc>TRUE</ntsc>
										</rate>
										<start>2003</start>
										<end>5511</end>
										<in>30</in>
										<out>3538</out>
										<pproTicksIn>254270016000</pproTicksIn>
										<pproTicksOut>29986910553600</pproTicksOut>
										<alphatype>straight</alphatype>
										<pixelaspectratio>square</pixelaspectratio>
										<anamorphic>FALSE</anamorphic>
										<file id="file-33">
											<name>EYECANDY_L3RD_JL_V03/EYECANDY_L3rd_JL_V04.aep</name>
											<pathurl>file://localhost/Volumes/ATM%201/EYE%20CANDY/Project%20Template/5_Assets/Eye%20Candy%20Mograph/EYECANDY_L3rd_JL_V04%20folder/EYECANDY_L3rd_JL_V04.aep</pathurl>
											<rate>
												<timebase>30</timebase>
												<ntsc>FALSE</ntsc>
											</rate>
											<duration>6300</duration>
											<timecode>
												<rate>
													<timebase>30</timebase>
													<ntsc>FALSE</ntsc>
												</rate>
												<string>00:00:00:00</string>
												<frame>0</frame>
												<displayformat>NDF</displayformat>
											</timecode>
											<media>
												<video>
													<samplecharacteristics>
														<rate>
															<timebase>30</timebase>
															<ntsc>FALSE</ntsc>
														</rate>
														<width>1920</width>
														<height>1080</height>
														<anamorphic>FALSE</anamorphic>
														<pixelaspectratio>square</pixelaspectratio>
														<fielddominance>lower</fielddominance>
													</samplecharacteristics>
												</video>
											</media>
										</file>
										<logginginfo>
											<description></description>
											<scene></scene>
											<shottake></shottake>
											<lognote></lognote>
											<good></good>
											<originalvideofilename></originalvideofilename>
											<originalaudiofilename></originalaudiofilename>
										</logginginfo>
										<colorinfo>
											<lut></lut>
											<lut1></lut1>
											<asc_sop></asc_sop>
											<asc_sat></asc_sat>
											<lut2></lut2>
										</colorinfo>
									</clipitem>
									<enabled>TRUE</enabled>
									<locked>FALSE</locked>
								</track>
								<track TL.SQTrackShy="0" TL.SQTrackExpandedHeight="25" TL.SQTrackExpanded="0" MZ.TrackTargeted="0">
									<clipitem id="clipitem-111">
										<masterclipid>masterclip-19</masterclipid>
										<name>Intro</name>
										<enabled>TRUE</enabled>
										<duration>160</duration>
										<rate>
											<timebase>30</timebase>
											<ntsc>TRUE</ntsc>
										</rate>
										<start>0</start>
										<end>115</end>
										<in>0</in>
										<out>115</out>
										<pproTicksIn>0</pproTicksIn>
										<pproTicksOut>974701728000</pproTicksOut>
										<sequence id="sequence-4"/>
											<marker>
												<comment></comment>
												<name></name>
												<in>82</in>
												<out>-1</out>
											</marker>
										<link>
											<linkclipref>clipitem-111</linkclipref>
											<mediatype>video</mediatype>
											<trackindex>4</trackindex>
											<clipindex>1</clipindex>
										</link>
										<link>
											<linkclipref>clipitem-122</linkclipref>
											<mediatype>audio</mediatype>
											<trackindex>3</trackindex>
											<clipindex>1</clipindex>
											<groupindex>1</groupindex>
										</link>
										<link>
											<linkclipref>clipitem-124</linkclipref>
											<mediatype>audio</mediatype>
											<trackindex>4</trackindex>
											<clipindex>1</clipindex>
											<groupindex>1</groupindex>
										</link>
										<labels>
											<label2>Forest</label2>
										</labels>
									</clipitem>
									<clipitem id="clipitem-112">
										<masterclipid>masterclip-42</masterclipid>
										<name>Transition 1</name>
										<enabled>TRUE</enabled>
										<duration>160</duration>
										<rate>
											<timebase>30</timebase>
											<ntsc>TRUE</ntsc>
										</rate>
										<start>1885</start>
										<end>2003</end>
										<in>0</in>
										<out>118</out>
										<pproTicksIn>0</pproTicksIn>
										<pproTicksOut>1000128729600</pproTicksOut>
										<sequence id="sequence-11" TL.SQAudioVisibleBase="0" TL.SQVideoVisibleBase="0" TL.SQVisibleBaseTime="0" TL.SQAVDividerPosition="0.5" TL.SQHideShyTracks="0" TL.SQHeaderWidth="236" TL.SQDataTrackViewControlState="0" Monitor.ProgramZoomOut="1000128729600" Monitor.ProgramZoomIn="0" TL.SQTimePerPixel="0.0088977777777673912" MZ.EditLine="906896390400" MZ.Sequence.PreviewFrameSizeHeight="1080" MZ.Sequence.PreviewFrameSizeWidth="1920" MZ.Sequence.AudioTimeDisplayFormat="200" MZ.Sequence.PreviewRenderingClassID="1061109567" MZ.Sequence.PreviewRenderingPresetCodec="1634755443" MZ.Sequence.PreviewRenderingPresetPath="EncoderPresets/SequencePreview/35d109db-457b-43c1-9452-9cb7be9f121c/QuickTime.epr" MZ.Sequence.PreviewUseMaxRenderQuality="false" MZ.Sequence.PreviewUseMaxBitDepth="false" MZ.Sequence.EditingModeGUID="35d109db-457b-43c1-9452-9cb7be9f121c" MZ.Sequence.VideoTimeDisplayFormat="102" MZ.WorkOutPoint="1262874412800" MZ.WorkInPoint="0">
											<duration>118</duration>
											<rate>
												<timebase>30</timebase>
												<ntsc>TRUE</ntsc>
											</rate>
											<name>Transition 1</name>
											<media>
												<video>
													<format>
														<samplecharacteristics>
															<rate>
																<timebase>30</timebase>
																<ntsc>TRUE</ntsc>
															</rate>
															<codec>
																<name>Apple ProRes 422</name>
																<appspecificdata>
																	<appname>Final Cut Pro</appname>
																	<appmanufacturer>Apple Inc.</appmanufacturer>
																	<appversion>7.0</appversion>
																	<data>
																		<qtcodec>
																			<codecname>Apple ProRes 422</codecname>
																			<codectypename>Apple ProRes 422</codectypename>
																			<codectypecode>apcn</codectypecode>
																			<codecvendorcode>appl</codecvendorcode>
																			<spatialquality>1024</spatialquality>
																			<temporalquality>0</temporalquality>
																			<keyframerate>0</keyframerate>
																			<datarate>0</datarate>
																		</qtcodec>
																	</data>
																</appspecificdata>
															</codec>
															<width>1920</width>
															<height>1080</height>
															<anamorphic>FALSE</anamorphic>
															<pixelaspectratio>square</pixelaspectratio>
															<fielddominance>none</fielddominance>
															<colordepth>24</colordepth>
														</samplecharacteristics>
													</format>
													<track TL.SQTrackShy="0" TL.SQTrackExpandedHeight="25" TL.SQTrackExpanded="0" MZ.TrackTargeted="1">
														<clipitem id="clipitem-113">
															<masterclipid>masterclip-43</masterclipid>
															<name>ATM_Yummy_Transtion_2.mov</name>
															<enabled>TRUE</enabled>
															<duration>118</duration>
															<rate>
																<timebase>30</timebase>
																<ntsc>TRUE</ntsc>
															</rate>
															<start>0</start>
															<end>118</end>
															<in>0</in>
															<out>118</out>
															<pproTicksIn>0</pproTicksIn>
															<pproTicksOut>1000128729600</pproTicksOut>
															<alphatype>straight</alphatype>
															<pixelaspectratio>square</pixelaspectratio>
															<anamorphic>FALSE</anamorphic>
															<file id="file-34">
																<name>ATM_Yummy_Transtion_2.mov</name>
																<pathurl>file://localhost/Volumes/ATM%201/EYE%20CANDY/Project%20Template/5_Assets/Eye%20Candy%20Mograph/Transitions/Alpha/ATM_Yummy_Transtion_2.mov</pathurl>
																<rate>
																	<timebase>30</timebase>
																	<ntsc>TRUE</ntsc>
																</rate>
																<duration>118</duration>
																<timecode>
																	<rate>
																		<timebase>30</timebase>
																		<ntsc>TRUE</ntsc>
																	</rate>
																	<string>00;00;00;00</string>
																	<frame>0</frame>
																	<displayformat>DF</displayformat>
																</timecode>
																<media>
																	<video>
																		<samplecharacteristics>
																			<rate>
																				<timebase>30</timebase>
																				<ntsc>TRUE</ntsc>
																			</rate>
																			<width>1920</width>
																			<height>1080</height>
																			<anamorphic>FALSE</anamorphic>
																			<pixelaspectratio>square</pixelaspectratio>
																			<fielddominance>none</fielddominance>
																		</samplecharacteristics>
																	</video>
																	<audio>
																		<samplecharacteristics>
																			<depth>16</depth>
																			<samplerate>48000</samplerate>
																		</samplecharacteristics>
																		<channelcount>2</channelcount>
																	</audio>
																</media>
															</file>
																<marker>
																	<comment></comment>
																	<name></name>
																	<in>54</in>
																	<out>-1</out>
																</marker>
															<link>
																<linkclipref>clipitem-113</linkclipref>
																<mediatype>video</mediatype>
																<trackindex>1</trackindex>
																<clipindex>1</clipindex>
															</link>
															<link>
																<linkclipref>clipitem-114</linkclipref>
																<mediatype>audio</mediatype>
																<trackindex>1</trackindex>
																<clipindex>1</clipindex>
																<groupindex>1</groupindex>
															</link>
															<link>
																<linkclipref>clipitem-115</linkclipref>
																<mediatype>audio</mediatype>
																<trackindex>2</trackindex>
																<clipindex>1</clipindex>
																<groupindex>1</groupindex>
															</link>
															<logginginfo>
																<description></description>
																<scene></scene>
																<shottake></shottake>
																<lognote></lognote>
																<good></good>
																<originalvideofilename></originalvideofilename>
																<originalaudiofilename></originalaudiofilename>
															</logginginfo>
															<colorinfo>
																<lut></lut>
																<lut1></lut1>
																<asc_sop></asc_sop>
																<asc_sat></asc_sat>
																<lut2></lut2>
															</colorinfo>
														</clipitem>
														<enabled>TRUE</enabled>
														<locked>FALSE</locked>
													</track>
													<track TL.SQTrackShy="0" TL.SQTrackExpandedHeight="25" TL.SQTrackExpanded="0" MZ.TrackTargeted="0">
														<enabled>TRUE</enabled>
														<locked>FALSE</locked>
													</track>
												</video>
												<audio>
													<numOutputChannels>2</numOutputChannels>
													<format>
														<samplecharacteristics>
															<depth>16</depth>
															<samplerate>48000</samplerate>
														</samplecharacteristics>
													</format>
													<outputs>
														<group>
															<index>1</index>
															<numchannels>1</numchannels>
															<downmix>0</downmix>
															<channel>
																<index>1</index>
															</channel>
														</group>
														<group>
															<index>2</index>
															<numchannels>1</numchannels>
															<downmix>0</downmix>
															<channel>
																<index>2</index>
															</channel>
														</group>
													</outputs>
													<track TL.SQTrackAudioKeyframeStyle="0" TL.SQTrackShy="0" TL.SQTrackExpandedHeight="25" TL.SQTrackExpanded="0" MZ.TrackTargeted="1" PannerCurrentValue="0.5" PannerIsInverted="true" PannerStartKeyframe="-91445760000000000,0.5,0,0,0,0,0,0" PannerName="Balance" currentExplodedTrackIndex="0" totalExplodedTrackCount="2" premiereTrackType="Stereo">
														<clipitem id="clipitem-114" premiereChannelType="stereo">
															<masterclipid>masterclip-43</masterclipid>
															<name>ATM_Yummy_Transtion_2.mov</name>
															<enabled>TRUE</enabled>
															<duration>118</duration>
															<rate>
																<timebase>30</timebase>
																<ntsc>TRUE</ntsc>
															</rate>
															<start>0</start>
															<end>118</end>
															<in>0</in>
															<out>118</out>
															<pproTicksIn>0</pproTicksIn>
															<pproTicksOut>1000128729600</pproTicksOut>
															<file id="file-34"/>
															<sourcetrack>
																<mediatype>audio</mediatype>
																<trackindex>1</trackindex>
															</sourcetrack>
																<marker>
																	<comment></comment>
																	<name></name>
																	<in>54</in>
																	<out>-1</out>
																</marker>
															<link>
																<linkclipref>clipitem-113</linkclipref>
																<mediatype>video</mediatype>
																<trackindex>1</trackindex>
																<clipindex>1</clipindex>
															</link>
															<link>
																<linkclipref>clipitem-114</linkclipref>
																<mediatype>audio</mediatype>
																<trackindex>1</trackindex>
																<clipindex>1</clipindex>
																<groupindex>1</groupindex>
															</link>
															<link>
																<linkclipref>clipitem-115</linkclipref>
																<mediatype>audio</mediatype>
																<trackindex>2</trackindex>
																<clipindex>1</clipindex>
																<groupindex>1</groupindex>
															</link>
															<logginginfo>
																<description></description>
																<scene></scene>
																<shottake></shottake>
																<lognote></lognote>
																<good></good>
																<originalvideofilename></originalvideofilename>
																<originalaudiofilename></originalaudiofilename>
															</logginginfo>
															<colorinfo>
																<lut></lut>
																<lut1></lut1>
																<asc_sop></asc_sop>
																<asc_sat></asc_sat>
																<lut2></lut2>
															</colorinfo>
														</clipitem>
														<enabled>TRUE</enabled>
														<locked>FALSE</locked>
														<outputchannelindex>1</outputchannelindex>
													</track>
													<track TL.SQTrackAudioKeyframeStyle="0" TL.SQTrackShy="0" TL.SQTrackExpandedHeight="25" TL.SQTrackExpanded="0" MZ.TrackTargeted="1" PannerCurrentValue="0.5" PannerIsInverted="true" PannerStartKeyframe="-91445760000000000,0.5,0,0,0,0,0,0" PannerName="Balance" currentExplodedTrackIndex="1" totalExplodedTrackCount="2" premiereTrackType="Stereo">
														<clipitem id="clipitem-115" premiereChannelType="stereo">
															<masterclipid>masterclip-43</masterclipid>
															<name>ATM_Yummy_Transtion_2.mov</name>
															<enabled>TRUE</enabled>
															<duration>118</duration>
															<rate>
																<timebase>30</timebase>
																<ntsc>TRUE</ntsc>
															</rate>
															<start>0</start>
															<end>118</end>
															<in>0</in>
															<out>118</out>
															<pproTicksIn>0</pproTicksIn>
															<pproTicksOut>1000128729600</pproTicksOut>
															<file id="file-34"/>
															<sourcetrack>
																<mediatype>audio</mediatype>
																<trackindex>2</trackindex>
															</sourcetrack>
																<marker>
																	<comment></comment>
																	<name></name>
																	<in>54</in>
																	<out>-1</out>
																</marker>
															<link>
																<linkclipref>clipitem-113</linkclipref>
																<mediatype>video</mediatype>
																<trackindex>1</trackindex>
																<clipindex>1</clipindex>
															</link>
															<link>
																<linkclipref>clipitem-114</linkclipref>
																<mediatype>audio</mediatype>
																<trackindex>1</trackindex>
																<clipindex>1</clipindex>
																<groupindex>1</groupindex>
															</link>
															<link>
																<linkclipref>clipitem-115</linkclipref>
																<mediatype>audio</mediatype>
																<trackindex>2</trackindex>
																<clipindex>1</clipindex>
																<groupindex>1</groupindex>
															</link>
															<logginginfo>
																<description></description>
																<scene></scene>
																<shottake></shottake>
																<lognote></lognote>
																<good></good>
																<originalvideofilename></originalvideofilename>
																<originalaudiofilename></originalaudiofilename>
															</logginginfo>
															<colorinfo>
																<lut></lut>
																<lut1></lut1>
																<asc_sop></asc_sop>
																<asc_sat></asc_sat>
																<lut2></lut2>
															</colorinfo>
														</clipitem>
														<enabled>TRUE</enabled>
														<locked>FALSE</locked>
														<outputchannelindex>2</outputchannelindex>
													</track>
												</audio>
											</media>
											<timecode>
												<rate>
													<timebase>30</timebase>
													<ntsc>TRUE</ntsc>
												</rate>
												<string>00;00;00;00</string>
												<frame>0</frame>
												<displayformat>DF</displayformat>
											</timecode>
												<marker>
													<comment></comment>
													<name></name>
													<in>56</in>
													<out>-1</out>
												</marker>
											<logginginfo>
												<description></description>
												<scene></scene>
												<shottake></shottake>
												<lognote></lognote>
												<good></good>
												<originalvideofilename></originalvideofilename>
												<originalaudiofilename></originalaudiofilename>
											</logginginfo>
										</sequence>
											<marker>
												<comment></comment>
												<name></name>
												<in>56</in>
												<out>-1</out>
											</marker>
										<link>
											<linkclipref>clipitem-112</linkclipref>
											<mediatype>video</mediatype>
											<trackindex>4</trackindex>
											<clipindex>2</clipindex>
										</link>
										<link>
											<linkclipref>clipitem-123</linkclipref>
											<mediatype>audio</mediatype>
											<trackindex>3</trackindex>
											<clipindex>2</clipindex>
											<groupindex>1</groupindex>
										</link>
										<link>
											<linkclipref>clipitem-125</linkclipref>
											<mediatype>audio</mediatype>
											<trackindex>4</trackindex>
											<clipindex>2</clipindex>
											<groupindex>1</groupindex>
										</link>
										<labels>
											<label2>Forest</label2>
										</labels>
									</clipitem>
									<enabled>TRUE</enabled>
									<locked>FALSE</locked>
								</track>
							</video>
							<audio>
								<numOutputChannels>2</numOutputChannels>
								<format>
									<samplecharacteristics>
										<depth>16</depth>
										<samplerate>48000</samplerate>
									</samplecharacteristics>
								</format>
								<outputs>
									<group>
										<index>1</index>
										<numchannels>1</numchannels>
										<downmix>0</downmix>
										<channel>
											<index>1</index>
										</channel>
									</group>
									<group>
										<index>2</index>
										<numchannels>1</numchannels>
										<downmix>0</downmix>
										<channel>
											<index>2</index>
										</channel>
									</group>
								</outputs>
								<track TL.SQTrackAudioKeyframeStyle="0" TL.SQTrackShy="0" TL.SQTrackExpandedHeight="25" TL.SQTrackExpanded="0" MZ.TrackTargeted="1" PannerCurrentValue="0.5" PannerIsInverted="true" PannerStartKeyframe="-91445760000000000,0.5,0,0,0,0,0,0" PannerName="Balance" currentExplodedTrackIndex="0" totalExplodedTrackCount="2" premiereTrackType="Stereo">
									<clipitem id="clipitem-116" premiereChannelType="stereo">
										<masterclipid>masterclip-25</masterclipid>
										<name>Nature Never Tasted So Good_1</name>
										<enabled>TRUE</enabled>
										<duration>1874</duration>
										<rate>
											<timebase>30</timebase>
											<ntsc>TRUE</ntsc>
										</rate>
										<start>82</start>
										<end>-1</end>
										<in>0</in>
										<out>1859</out>
										<pproTicksIn>0</pproTicksIn>
										<pproTicksOut>15756265324800</pproTicksOut>
										<sequence id="sequence-8"/>
										<sourcetrack>
											<mediatype>audio</mediatype>
											<trackindex>0</trackindex>
										</sourcetrack>
										<link>
											<linkclipref>clipitem-54</linkclipref>
											<mediatype>video</mediatype>
											<trackindex>1</trackindex>
											<clipindex>1</clipindex>
										</link>
										<link>
											<linkclipref>clipitem-116</linkclipref>
											<mediatype>audio</mediatype>
											<trackindex>1</trackindex>
											<clipindex>1</clipindex>
											<groupindex>1</groupindex>
										</link>
										<link>
											<linkclipref>clipitem-119</linkclipref>
											<mediatype>audio</mediatype>
											<trackindex>2</trackindex>
											<clipindex>1</clipindex>
											<groupindex>1</groupindex>
										</link>
										<labels>
											<label2>Forest</label2>
										</labels>
									</clipitem>
									<transitionitem>
										<start>1911</start>
										<end>1941</end>
										<pproTicksIn>16197000019200</pproTicksIn>
										<pproTicksOut>16451270035200</pproTicksOut>
										<alignment>end-black</alignment>
										<cutPointTicks>254270016000</cutPointTicks>
										<rate>
											<timebase>30</timebase>
											<ntsc>TRUE</ntsc>
										</rate>
										<effect>
											<name>Cross Fade ( 0dB)</name>
											<effectid>KGAudioTransCrossFade0dB</effectid>
											<effecttype>transition</effecttype>
											<mediatype>audio</mediatype>
											<wipecode>0</wipecode>
											<wipeaccuracy>100</wipeaccuracy>
											<startratio>0</startratio>
											<endratio>1</endratio>
											<reverse>FALSE</reverse>
										</effect>
									</transitionitem>
									<clipitem id="clipitem-117" premiereChannelType="stereo">
										<masterclipid>masterclip-29</masterclipid>
										<name>Pastel Power_2</name>
										<enabled>TRUE</enabled>
										<duration>5700</duration>
										<rate>
											<timebase>30</timebase>
											<ntsc>TRUE</ntsc>
										</rate>
										<start>1941</start>
										<end>-1</end>
										<in>0</in>
										<out>3570</out>
										<pproTicksIn>0</pproTicksIn>
										<pproTicksOut>30258131904000</pproTicksOut>
										<sequence id="sequence-9"/>
										<sourcetrack>
											<mediatype>audio</mediatype>
											<trackindex>0</trackindex>
										</sourcetrack>
										<link>
											<linkclipref>clipitem-81</linkclipref>
											<mediatype>video</mediatype>
											<trackindex>1</trackindex>
											<clipindex>2</clipindex>
										</link>
										<link>
											<linkclipref>clipitem-117</linkclipref>
											<mediatype>audio</mediatype>
											<trackindex>1</trackindex>
											<clipindex>3</clipindex>
											<groupindex>1</groupindex>
										</link>
										<link>
											<linkclipref>clipitem-120</linkclipref>
											<mediatype>audio</mediatype>
											<trackindex>2</trackindex>
											<clipindex>3</clipindex>
											<groupindex>1</groupindex>
										</link>
										<labels>
											<label2>Forest</label2>
										</labels>
									</clipitem>
									<transitionitem>
										<start>5481</start>
										<end>5511</end>
										<pproTicksIn>46455131923200</pproTicksIn>
										<pproTicksOut>46709401939200</pproTicksOut>
										<alignment>end-black</alignment>
										<cutPointTicks>254270016000</cutPointTicks>
										<rate>
											<timebase>30</timebase>
											<ntsc>TRUE</ntsc>
										</rate>
										<effect>
											<name>Cross Fade ( 0dB)</name>
											<effectid>KGAudioTransCrossFade0dB</effectid>
											<effecttype>transition</effecttype>
											<mediatype>audio</mediatype>
											<wipecode>0</wipecode>
											<wipeaccuracy>100</wipeaccuracy>
											<startratio>0</startratio>
											<endratio>1</endratio>
											<reverse>FALSE</reverse>
										</effect>
									</transitionitem>
									<clipitem id="clipitem-118" premiereChannelType="stereo">
										<masterclipid>masterclip-38</masterclipid>
										<name>Bumper 2</name>
										<enabled>TRUE</enabled>
										<duration>299</duration>
										<rate>
											<timebase>30</timebase>
											<ntsc>TRUE</ntsc>
										</rate>
										<start>5511</start>
										<end>5810</end>
										<in>0</in>
										<out>299</out>
										<pproTicksIn>0</pproTicksIn>
										<pproTicksOut>2534224492800</pproTicksOut>
										<sequence id="sequence-10"/>
										<sourcetrack>
											<mediatype>audio</mediatype>
											<trackindex>0</trackindex>
										</sourcetrack>
										<link>
											<linkclipref>clipitem-104</linkclipref>
											<mediatype>video</mediatype>
											<trackindex>1</trackindex>
											<clipindex>3</clipindex>
										</link>
										<link>
											<linkclipref>clipitem-118</linkclipref>
											<mediatype>audio</mediatype>
											<trackindex>1</trackindex>
											<clipindex>5</clipindex>
											<groupindex>1</groupindex>
										</link>
										<link>
											<linkclipref>clipitem-121</linkclipref>
											<mediatype>audio</mediatype>
											<trackindex>2</trackindex>
											<clipindex>5</clipindex>
											<groupindex>1</groupindex>
										</link>
										<labels>
											<label2>Forest</label2>
										</labels>
									</clipitem>
									<enabled>TRUE</enabled>
									<locked>FALSE</locked>
									<outputchannelindex>1</outputchannelindex>
								</track>
								<track TL.SQTrackAudioKeyframeStyle="0" TL.SQTrackShy="0" TL.SQTrackExpandedHeight="25" TL.SQTrackExpanded="0" MZ.TrackTargeted="1" PannerCurrentValue="0.5" PannerIsInverted="true" PannerStartKeyframe="-91445760000000000,0.5,0,0,0,0,0,0" PannerName="Balance" currentExplodedTrackIndex="1" totalExplodedTrackCount="2" premiereTrackType="Stereo">
									<clipitem id="clipitem-119" premiereChannelType="stereo">
										<masterclipid>masterclip-25</masterclipid>
										<name>Nature Never Tasted So Good_1</name>
										<enabled>TRUE</enabled>
										<duration>1874</duration>
										<rate>
											<timebase>30</timebase>
											<ntsc>TRUE</ntsc>
										</rate>
										<start>82</start>
										<end>-1</end>
										<in>0</in>
										<out>1859</out>
										<pproTicksIn>0</pproTicksIn>
										<pproTicksOut>15756265324800</pproTicksOut>
										<sequence id="sequence-8"/>
										<sourcetrack>
											<mediatype>audio</mediatype>
											<trackindex>1</trackindex>
										</sourcetrack>
										<link>
											<linkclipref>clipitem-54</linkclipref>
											<mediatype>video</mediatype>
											<trackindex>1</trackindex>
											<clipindex>1</clipindex>
										</link>
										<link>
											<linkclipref>clipitem-116</linkclipref>
											<mediatype>audio</mediatype>
											<trackindex>1</trackindex>
											<clipindex>1</clipindex>
											<groupindex>1</groupindex>
										</link>
										<link>
											<linkclipref>clipitem-119</linkclipref>
											<mediatype>audio</mediatype>
											<trackindex>2</trackindex>
											<clipindex>1</clipindex>
											<groupindex>1</groupindex>
										</link>
										<labels>
											<label2>Forest</label2>
										</labels>
									</clipitem>
									<transitionitem>
										<start>1911</start>
										<end>1941</end>
										<pproTicksIn>16197000019200</pproTicksIn>
										<pproTicksOut>16451270035200</pproTicksOut>
										<alignment>end-black</alignment>
										<cutPointTicks>254270016000</cutPointTicks>
										<rate>
											<timebase>30</timebase>
											<ntsc>TRUE</ntsc>
										</rate>
										<effect>
											<name>Cross Fade ( 0dB)</name>
											<effectid>KGAudioTransCrossFade0dB</effectid>
											<effecttype>transition</effecttype>
											<mediatype>audio</mediatype>
											<wipecode>0</wipecode>
											<wipeaccuracy>100</wipeaccuracy>
											<startratio>0</startratio>
											<endratio>1</endratio>
											<reverse>FALSE</reverse>
										</effect>
									</transitionitem>
									<clipitem id="clipitem-120" premiereChannelType="stereo">
										<masterclipid>masterclip-29</masterclipid>
										<name>Pastel Power_2</name>
										<enabled>TRUE</enabled>
										<duration>5700</duration>
										<rate>
											<timebase>30</timebase>
											<ntsc>TRUE</ntsc>
										</rate>
										<start>1941</start>
										<end>-1</end>
										<in>0</in>
										<out>3570</out>
										<pproTicksIn>0</pproTicksIn>
										<pproTicksOut>30258131904000</pproTicksOut>
										<sequence id="sequence-9"/>
										<sourcetrack>
											<mediatype>audio</mediatype>
											<trackindex>1</trackindex>
										</sourcetrack>
										<link>
											<linkclipref>clipitem-81</linkclipref>
											<mediatype>video</mediatype>
											<trackindex>1</trackindex>
											<clipindex>2</clipindex>
										</link>
										<link>
											<linkclipref>clipitem-117</linkclipref>
											<mediatype>audio</mediatype>
											<trackindex>1</trackindex>
											<clipindex>3</clipindex>
											<groupindex>1</groupindex>
										</link>
										<link>
											<linkclipref>clipitem-120</linkclipref>
											<mediatype>audio</mediatype>
											<trackindex>2</trackindex>
											<clipindex>3</clipindex>
											<groupindex>1</groupindex>
										</link>
										<labels>
											<label2>Forest</label2>
										</labels>
									</clipitem>
									<transitionitem>
										<start>5481</start>
										<end>5511</end>
										<pproTicksIn>46455131923200</pproTicksIn>
										<pproTicksOut>46709401939200</pproTicksOut>
										<alignment>end-black</alignment>
										<cutPointTicks>254270016000</cutPointTicks>
										<rate>
											<timebase>30</timebase>
											<ntsc>TRUE</ntsc>
										</rate>
										<effect>
											<name>Cross Fade ( 0dB)</name>
											<effectid>KGAudioTransCrossFade0dB</effectid>
											<effecttype>transition</effecttype>
											<mediatype>audio</mediatype>
											<wipecode>0</wipecode>
											<wipeaccuracy>100</wipeaccuracy>
											<startratio>0</startratio>
											<endratio>1</endratio>
											<reverse>FALSE</reverse>
										</effect>
									</transitionitem>
									<clipitem id="clipitem-121" premiereChannelType="stereo">
										<masterclipid>masterclip-38</masterclipid>
										<name>Bumper 2</name>
										<enabled>TRUE</enabled>
										<duration>299</duration>
										<rate>
											<timebase>30</timebase>
											<ntsc>TRUE</ntsc>
										</rate>
										<start>5511</start>
										<end>5810</end>
										<in>0</in>
										<out>299</out>
										<pproTicksIn>0</pproTicksIn>
										<pproTicksOut>2534224492800</pproTicksOut>
										<sequence id="sequence-10"/>
										<sourcetrack>
											<mediatype>audio</mediatype>
											<trackindex>1</trackindex>
										</sourcetrack>
										<link>
											<linkclipref>clipitem-104</linkclipref>
											<mediatype>video</mediatype>
											<trackindex>1</trackindex>
											<clipindex>3</clipindex>
										</link>
										<link>
											<linkclipref>clipitem-118</linkclipref>
											<mediatype>audio</mediatype>
											<trackindex>1</trackindex>
											<clipindex>5</clipindex>
											<groupindex>1</groupindex>
										</link>
										<link>
											<linkclipref>clipitem-121</linkclipref>
											<mediatype>audio</mediatype>
											<trackindex>2</trackindex>
											<clipindex>5</clipindex>
											<groupindex>1</groupindex>
										</link>
										<labels>
											<label2>Forest</label2>
										</labels>
									</clipitem>
									<enabled>TRUE</enabled>
									<locked>FALSE</locked>
									<outputchannelindex>2</outputchannelindex>
								</track>
								<track TL.SQTrackAudioKeyframeStyle="0" TL.SQTrackShy="0" TL.SQTrackExpandedHeight="25" TL.SQTrackExpanded="0" MZ.TrackTargeted="1" PannerCurrentValue="0.5" PannerIsInverted="true" PannerStartKeyframe="-91445760000000000,0.5,0,0,0,0,0,0" PannerName="Balance" currentExplodedTrackIndex="0" totalExplodedTrackCount="2" premiereTrackType="Stereo">
									<clipitem id="clipitem-122" premiereChannelType="stereo">
										<masterclipid>masterclip-19</masterclipid>
										<name>Intro</name>
										<enabled>TRUE</enabled>
										<duration>160</duration>
										<rate>
											<timebase>30</timebase>
											<ntsc>TRUE</ntsc>
										</rate>
										<start>0</start>
										<end>115</end>
										<in>0</in>
										<out>115</out>
										<pproTicksIn>0</pproTicksIn>
										<pproTicksOut>974701728000</pproTicksOut>
										<sequence id="sequence-4"/>
										<sourcetrack>
											<mediatype>audio</mediatype>
											<trackindex>0</trackindex>
										</sourcetrack>
											<marker>
												<comment></comment>
												<name></name>
												<in>82</in>
												<out>-1</out>
											</marker>
										<link>
											<linkclipref>clipitem-111</linkclipref>
											<mediatype>video</mediatype>
											<trackindex>4</trackindex>
											<clipindex>1</clipindex>
										</link>
										<link>
											<linkclipref>clipitem-122</linkclipref>
											<mediatype>audio</mediatype>
											<trackindex>3</trackindex>
											<clipindex>1</clipindex>
											<groupindex>1</groupindex>
										</link>
										<link>
											<linkclipref>clipitem-124</linkclipref>
											<mediatype>audio</mediatype>
											<trackindex>4</trackindex>
											<clipindex>1</clipindex>
											<groupindex>1</groupindex>
										</link>
										<labels>
											<label2>Forest</label2>
										</labels>
									</clipitem>
									<clipitem id="clipitem-123" premiereChannelType="stereo">
										<masterclipid>masterclip-42</masterclipid>
										<name>Transition 1</name>
										<enabled>TRUE</enabled>
										<duration>160</duration>
										<rate>
											<timebase>30</timebase>
											<ntsc>TRUE</ntsc>
										</rate>
										<start>1885</start>
										<end>2003</end>
										<in>0</in>
										<out>118</out>
										<pproTicksIn>0</pproTicksIn>
										<pproTicksOut>1000128729600</pproTicksOut>
										<sequence id="sequence-11"/>
										<sourcetrack>
											<mediatype>audio</mediatype>
											<trackindex>0</trackindex>
										</sourcetrack>
											<marker>
												<comment></comment>
												<name></name>
												<in>56</in>
												<out>-1</out>
											</marker>
										<link>
											<linkclipref>clipitem-112</linkclipref>
											<mediatype>video</mediatype>
											<trackindex>4</trackindex>
											<clipindex>2</clipindex>
										</link>
										<link>
											<linkclipref>clipitem-123</linkclipref>
											<mediatype>audio</mediatype>
											<trackindex>3</trackindex>
											<clipindex>2</clipindex>
											<groupindex>1</groupindex>
										</link>
										<link>
											<linkclipref>clipitem-125</linkclipref>
											<mediatype>audio</mediatype>
											<trackindex>4</trackindex>
											<clipindex>2</clipindex>
											<groupindex>1</groupindex>
										</link>
										<labels>
											<label2>Forest</label2>
										</labels>
									</clipitem>
									<enabled>TRUE</enabled>
									<locked>FALSE</locked>
									<outputchannelindex>1</outputchannelindex>
								</track>
								<track TL.SQTrackAudioKeyframeStyle="0" TL.SQTrackShy="0" TL.SQTrackExpandedHeight="25" TL.SQTrackExpanded="0" MZ.TrackTargeted="1" PannerCurrentValue="0.5" PannerIsInverted="true" PannerStartKeyframe="-91445760000000000,0.5,0,0,0,0,0,0" PannerName="Balance" currentExplodedTrackIndex="1" totalExplodedTrackCount="2" premiereTrackType="Stereo">
									<clipitem id="clipitem-124" premiereChannelType="stereo">
										<masterclipid>masterclip-19</masterclipid>
										<name>Intro</name>
										<enabled>TRUE</enabled>
										<duration>160</duration>
										<rate>
											<timebase>30</timebase>
											<ntsc>TRUE</ntsc>
										</rate>
										<start>0</start>
										<end>115</end>
										<in>0</in>
										<out>115</out>
										<pproTicksIn>0</pproTicksIn>
										<pproTicksOut>974701728000</pproTicksOut>
										<sequence id="sequence-4"/>
										<sourcetrack>
											<mediatype>audio</mediatype>
											<trackindex>1</trackindex>
										</sourcetrack>
											<marker>
												<comment></comment>
												<name></name>
												<in>82</in>
												<out>-1</out>
											</marker>
										<link>
											<linkclipref>clipitem-111</linkclipref>
											<mediatype>video</mediatype>
											<trackindex>4</trackindex>
											<clipindex>1</clipindex>
										</link>
										<link>
											<linkclipref>clipitem-122</linkclipref>
											<mediatype>audio</mediatype>
											<trackindex>3</trackindex>
											<clipindex>1</clipindex>
											<groupindex>1</groupindex>
										</link>
										<link>
											<linkclipref>clipitem-124</linkclipref>
											<mediatype>audio</mediatype>
											<trackindex>4</trackindex>
											<clipindex>1</clipindex>
											<groupindex>1</groupindex>
										</link>
										<labels>
											<label2>Forest</label2>
										</labels>
									</clipitem>
									<clipitem id="clipitem-125" premiereChannelType="stereo">
										<masterclipid>masterclip-42</masterclipid>
										<name>Transition 1</name>
										<enabled>TRUE</enabled>
										<duration>160</duration>
										<rate>
											<timebase>30</timebase>
											<ntsc>TRUE</ntsc>
										</rate>
										<start>1885</start>
										<end>2003</end>
										<in>0</in>
										<out>118</out>
										<pproTicksIn>0</pproTicksIn>
										<pproTicksOut>1000128729600</pproTicksOut>
										<sequence id="sequence-11"/>
										<sourcetrack>
											<mediatype>audio</mediatype>
											<trackindex>1</trackindex>
										</sourcetrack>
											<marker>
												<comment></comment>
												<name></name>
												<in>56</in>
												<out>-1</out>
											</marker>
										<link>
											<linkclipref>clipitem-112</linkclipref>
											<mediatype>video</mediatype>
											<trackindex>4</trackindex>
											<clipindex>2</clipindex>
										</link>
										<link>
											<linkclipref>clipitem-123</linkclipref>
											<mediatype>audio</mediatype>
											<trackindex>3</trackindex>
											<clipindex>2</clipindex>
											<groupindex>1</groupindex>
										</link>
										<link>
											<linkclipref>clipitem-125</linkclipref>
											<mediatype>audio</mediatype>
											<trackindex>4</trackindex>
											<clipindex>2</clipindex>
											<groupindex>1</groupindex>
										</link>
										<labels>
											<label2>Forest</label2>
										</labels>
									</clipitem>
									<enabled>TRUE</enabled>
									<locked>FALSE</locked>
									<outputchannelindex>2</outputchannelindex>
								</track>
								<track TL.SQTrackAudioKeyframeStyle="0" TL.SQTrackShy="0" TL.SQTrackExpandedHeight="25" TL.SQTrackExpanded="0" MZ.TrackTargeted="1" PannerCurrentValue="0.5" PannerIsInverted="true" PannerStartKeyframe="-91445760000000000,0.5,0,0,0,0,0,0" PannerName="Balance" currentExplodedTrackIndex="0" totalExplodedTrackCount="2" premiereTrackType="Stereo">
									<enabled>TRUE</enabled>
									<locked>FALSE</locked>
									<outputchannelindex>1</outputchannelindex>
								</track>
								<track TL.SQTrackAudioKeyframeStyle="0" TL.SQTrackShy="0" TL.SQTrackExpandedHeight="25" TL.SQTrackExpanded="0" MZ.TrackTargeted="1" PannerCurrentValue="0.5" PannerIsInverted="true" PannerStartKeyframe="-91445760000000000,0.5,0,0,0,0,0,0" PannerName="Balance" currentExplodedTrackIndex="1" totalExplodedTrackCount="2" premiereTrackType="Stereo">
									<enabled>TRUE</enabled>
									<locked>FALSE</locked>
									<outputchannelindex>2</outputchannelindex>
								</track>
							</audio>
						</media>
						<timecode>
							<rate>
								<timebase>30</timebase>
								<ntsc>TRUE</ntsc>
							</rate>
							<string>00;00;00;00</string>
							<frame>0</frame>
							<displayformat>DF</displayformat>
						</timecode>
						<labels>
							<label2>Forest</label2>
						</labels>
						<logginginfo>
							<description></description>
							<scene></scene>
							<shottake></shottake>
							<lognote></lognote>
							<good></good>
							<originalvideofilename></originalvideofilename>
							<originalaudiofilename></originalaudiofilename>
						</logginginfo>
					</sequence>
					<sequence id="sequence-12" TL.SQAudioVisibleBase="0" TL.SQVideoVisibleBase="0" TL.SQVisibleBaseTime="0" TL.SQAVDividerPosition="0.5" TL.SQHideShyTracks="0" TL.SQHeaderWidth="236" TL.SQDataTrackViewControlState="0" Monitor.ProgramZoomOut="48057033024000" Monitor.ProgramZoomIn="0" TL.SQTimePerPixel="0.2732921055567219" AM.TrackVScrollPosition="0" AM.TrackScrollPosition="0" MZ.EditLine="0" MZ.Sequence.PreviewFrameSizeHeight="1080" MZ.Sequence.PreviewFrameSizeWidth="1920" MZ.Sequence.AudioTimeDisplayFormat="200" MZ.Sequence.PreviewRenderingClassID="1061109567" MZ.Sequence.PreviewRenderingPresetCodec="1634755443" MZ.Sequence.PreviewRenderingPresetPath="EncoderPresets/SequencePreview/35d109db-457b-43c1-9452-9cb7be9f121c/QuickTime.epr" MZ.Sequence.PreviewUseMaxRenderQuality="false" MZ.Sequence.PreviewUseMaxBitDepth="false" MZ.Sequence.EditingModeGUID="35d109db-457b-43c1-9452-9cb7be9f121c" MZ.Sequence.VideoTimeDisplayFormat="102" MZ.WorkOutPoint="15239249625600" MZ.WorkInPoint="0" explodedTracks="true">
						<uuid>d5ee6b85-c172-42b6-ab31-5b32d66c0359</uuid>
						<duration>5575</duration>
						<rate>
							<timebase>30</timebase>
							<ntsc>TRUE</ntsc>
						</rate>
						<name>ATM_EYECANDY_241</name>
						<media>
							<video>
								<format>
									<samplecharacteristics>
										<rate>
											<timebase>30</timebase>
											<ntsc>TRUE</ntsc>
										</rate>
										<codec>
											<name>Apple ProRes 422</name>
											<appspecificdata>
												<appname>Final Cut Pro</appname>
												<appmanufacturer>Apple Inc.</appmanufacturer>
												<appversion>7.0</appversion>
												<data>
													<qtcodec>
														<codecname>Apple ProRes 422</codecname>
														<codectypename>Apple ProRes 422</codectypename>
														<codectypecode>apcn</codectypecode>
														<codecvendorcode>appl</codecvendorcode>
														<spatialquality>1024</spatialquality>
														<temporalquality>0</temporalquality>
														<keyframerate>0</keyframerate>
														<datarate>0</datarate>
													</qtcodec>
												</data>
											</appspecificdata>
										</codec>
										<width>1920</width>
										<height>1080</height>
										<anamorphic>FALSE</anamorphic>
										<pixelaspectratio>square</pixelaspectratio>
										<fielddominance>none</fielddominance>
										<colordepth>24</colordepth>
									</samplecharacteristics>
								</format>
								<track TL.SQTrackShy="0" TL.SQTrackExpandedHeight="25" TL.SQTrackExpanded="0" MZ.TrackTargeted="1">
									<clipitem id="clipitem-126">
										<masterclipid>masterclip-44</masterclipid>
										<name>Gourmet Desert Plate_1</name>
										<enabled>TRUE</enabled>
										<duration>2146</duration>
										<rate>
											<timebase>30</timebase>
											<ntsc>TRUE</ntsc>
										</rate>
										<start>82</start>
										<end>2034</end>
										<in>0</in>
										<out>1952</out>
										<pproTicksIn>0</pproTicksIn>
										<pproTicksOut>16544502374400</pproTicksOut>
										<sequence id="sequence-13" TL.SQAudioVisibleBase="0" TL.SQVideoVisibleBase="0" TL.SQVisibleBaseTime="0" TL.SQAVDividerPosition="0.5" TL.SQHideShyTracks="0" TL.SQHeaderWidth="236" TL.SQDataTrackViewControlState="0" Monitor.ProgramZoomOut="16544502374400" Monitor.ProgramZoomIn="0" TL.SQTimePerPixel="0.072184793070242073" AM.TrackVScrollPosition="0" AM.TrackScrollPosition="0" MZ.EditLine="6009248044800" MZ.Sequence.PreviewFrameSizeHeight="1080" MZ.Sequence.PreviewFrameSizeWidth="1920" MZ.Sequence.AudioTimeDisplayFormat="200" MZ.Sequence.PreviewRenderingClassID="1061109567" MZ.Sequence.PreviewRenderingPresetCodec="1634755443" MZ.Sequence.PreviewRenderingPresetPath="EncoderPresets/SequencePreview/35d109db-457b-43c1-9452-9cb7be9f121c/QuickTime.epr" MZ.Sequence.PreviewUseMaxRenderQuality="false" MZ.Sequence.PreviewUseMaxBitDepth="false" MZ.Sequence.EditingModeGUID="35d109db-457b-43c1-9452-9cb7be9f121c" MZ.Sequence.VideoTimeDisplayFormat="102" MZ.WorkOutPoint="1262874412800" MZ.WorkInPoint="0">
											<duration>1952</duration>
											<rate>
												<timebase>30</timebase>
												<ntsc>TRUE</ntsc>
											</rate>
											<name>FND_Gourmet Dessert Plate_1</name>
											<media>
												<video>
													<format>
														<samplecharacteristics>
															<rate>
																<timebase>30</timebase>
																<ntsc>TRUE</ntsc>
															</rate>
															<codec>
																<name>Apple ProRes 422</name>
																<appspecificdata>
																	<appname>Final Cut Pro</appname>
																	<appmanufacturer>Apple Inc.</appmanufacturer>
																	<appversion>7.0</appversion>
																	<data>
																		<qtcodec>
																			<codecname>Apple ProRes 422</codecname>
																			<codectypename>Apple ProRes 422</codectypename>
																			<codectypecode>apcn</codectypecode>
																			<codecvendorcode>appl</codecvendorcode>
																			<spatialquality>1024</spatialquality>
																			<temporalquality>0</temporalquality>
																			<keyframerate>0</keyframerate>
																			<datarate>0</datarate>
																		</qtcodec>
																	</data>
																</appspecificdata>
															</codec>
															<width>1920</width>
															<height>1080</height>
															<anamorphic>FALSE</anamorphic>
															<pixelaspectratio>square</pixelaspectratio>
															<fielddominance>none</fielddominance>
															<colordepth>24</colordepth>
														</samplecharacteristics>
													</format>
													<track TL.SQTrackShy="0" TL.SQTrackExpandedHeight="25" TL.SQTrackExpanded="0" MZ.TrackTargeted="1">
														<clipitem id="clipitem-127">
															<masterclipid>masterclip-45</masterclipid>
															<name>202105_Man Chef Cook Cooking_By_Hans_Peter_Schepp_Artlist_HD.mp4</name>
															<enabled>TRUE</enabled>
															<duration>209</duration>
															<rate>
																<timebase>30</timebase>
																<ntsc>TRUE</ntsc>
															</rate>
															<start>0</start>
															<end>209</end>
															<in>0</in>
															<out>208</out>
															<pproTicksIn>0</pproTicksIn>
															<pproTicksOut>1948555889280</pproTicksOut>
															<alphatype>none</alphatype>
															<pixelaspectratio>PAL-601</pixelaspectratio>
															<anamorphic>FALSE</anamorphic>
															<file id="file-35">
																<name>202105_Man Chef Cook Cooking_By_Hans_Peter_Schepp_Artlist_HD.mp4</name>
																<pathurl>file://localhost/Volumes/ATM%201/EYE%20CANDY/8%3a14%3a23/3_Raw%20Files/Artlist%20-%20Gourmet%20Desert%20Plate/202105_Man%20Chef%20Cook%20Cooking_By_Hans_Peter_Schepp_Artlist_HD.mp4</pathurl>
																<rate>
																	<timebase>25</timebase>
																	<ntsc>FALSE</ntsc>
																</rate>
																<duration>192</duration>
																<timecode>
																	<rate>
																		<timebase>25</timebase>
																		<ntsc>FALSE</ntsc>
																	</rate>
																	<string>00:16:56:07</string>
																	<frame>25407</frame>
																	<displayformat>NDF</displayformat>
																</timecode>
																<media>
																	<video>
																		<samplecharacteristics>
																			<rate>
																				<timebase>25</timebase>
																				<ntsc>FALSE</ntsc>
																			</rate>
																			<width>1920</width>
																			<height>1080</height>
																			<anamorphic>FALSE</anamorphic>
																			<pixelaspectratio>PAL-601</pixelaspectratio>
																			<fielddominance>none</fielddominance>
																		</samplecharacteristics>
																	</video>
																</media>
															</file>
															<filter>
																<effect>
																	<name>Time Remap</name>
																	<effectid>timeremap</effectid>
																	<effectcategory>motion</effectcategory>
																	<effecttype>motion</effecttype>
																	<mediatype>video</mediatype>
																	<parameter authoringApp="PremierePro">
																		<parameterid>variablespeed</parameterid>
																		<name>variablespeed</name>
																		<valuemin>0</valuemin>
																		<valuemax>1</valuemax>
																		<value>0</value>
																	</parameter>
																	<parameter authoringApp="PremierePro">
																		<parameterid>speed</parameterid>
																		<name>speed</name>
																		<valuemin>-100000</valuemin>
																		<valuemax>100000</valuemax>
																		<value>110</value>
																	</parameter>
																	<parameter authoringApp="PremierePro">
																		<parameterid>reverse</parameterid>
																		<name>reverse</name>
																		<value>FALSE</value>
																	</parameter>
																	<parameter authoringApp="PremierePro">
																		<parameterid>frameblending</parameterid>
																		<name>frameblending</name>
																		<value>FALSE</value>
																	</parameter>
																	<parameter authoringApp="PremierePro">
																		<parameterid>graphdict</parameterid>
																		<name>graphdict</name>
																		<valuemin>0</valuemin>
																		<valuemax>229</valuemax>
																		<value>0</value>
																		<keyframe>
																			<when>0</when>
																			<value>0</value>
																			<speedvirtualkf>TRUE</speedvirtualkf>
																			<speedkfin>TRUE</speedkfin>
																		</keyframe>
																		<keyframe>
																			<when>208</when>
																			<value>228</value>
																			<speedvirtualkf>TRUE</speedvirtualkf>
																			<speedkfout>TRUE</speedkfout>
																		</keyframe>
																		<keyframe>
																			<when>209</when>
																			<value>229</value>
																			<speedvirtualkf>TRUE</speedvirtualkf>
																			<speedkfend>TRUE</speedkfend>
																		</keyframe>
																		<interpolation>
																			<name>FCPCurve</name>
																		</interpolation>
																	</parameter>
																</effect>
															</filter>
															<filter>
																<effect>
																	<name>Distort</name>
																	<effectid>deformation</effectid>
																	<effectcategory>motion</effectcategory>
																	<effecttype>motion</effecttype>
																	<mediatype>video</mediatype>
																	<parameter authoringApp="PremierePro">
																		<parameterid>aspect</parameterid>
																		<name>Aspect</name>
																		<valuemin>-10000</valuemin>
																		<valuemax>10000</valuemax>
																		<value>-9.36709</value>
																	</parameter>
																</effect>
															</filter>
															<filter>
																<effect>
																	<name>Basic Motion</name>
																	<effectid>basic</effectid>
																	<effectcategory>motion</effectcategory>
																	<effecttype>motion</effecttype>
																	<mediatype>video</mediatype>
																	<parameter authoringApp="PremierePro">
																		<parameterid>scale</parameterid>
																		<name>Scale</name>
																		<value>109.367</value>
																	</parameter>
																</effect>
															</filter>
															<logginginfo>
																<description></description>
																<scene></scene>
																<shottake></shottake>
																<lognote></lognote>
																<good></good>
																<originalvideofilename></originalvideofilename>
																<originalaudiofilename></originalaudiofilename>
															</logginginfo>
															<colorinfo>
																<lut></lut>
																<lut1></lut1>
																<asc_sop></asc_sop>
																<asc_sat></asc_sat>
																<lut2></lut2>
															</colorinfo>
															<labels>
																<label2>Violet</label2>
															</labels>
														</clipitem>
														<clipitem id="clipitem-128">
															<masterclipid>masterclip-46</masterclipid>
															<name>202106_Man Chef Cook Cooking_By_Hans_Peter_Schepp_Artlist_HD.mp4</name>
															<enabled>TRUE</enabled>
															<duration>166</duration>
															<rate>
																<timebase>30</timebase>
																<ntsc>TRUE</ntsc>
															</rate>
															<start>209</start>
															<end>375</end>
															<in>0</in>
															<out>166</out>
															<pproTicksIn>0</pproTicksIn>
															<pproTicksOut>1547656830720</pproTicksOut>
															<alphatype>none</alphatype>
															<pixelaspectratio>PAL-601</pixelaspectratio>
															<anamorphic>FALSE</anamorphic>
															<file id="file-36">
																<name>202106_Man Chef Cook Cooking_By_Hans_Peter_Schepp_Artlist_HD.mp4</name>
																<pathurl>file://localhost/Volumes/ATM%201/EYE%20CANDY/8%3a14%3a23/3_Raw%20Files/Artlist%20-%20Gourmet%20Desert%20Plate/202106_Man%20Chef%20Cook%20Cooking_By_Hans_Peter_Schepp_Artlist_HD.mp4</pathurl>
																<rate>
																	<timebase>25</timebase>
																	<ntsc>FALSE</ntsc>
																</rate>
																<duration>153</duration>
																<timecode>
																	<rate>
																		<timebase>25</timebase>
																		<ntsc>FALSE</ntsc>
																	</rate>
																	<string>00:18:17:06</string>
																	<frame>27431</frame>
																	<displayformat>NDF</displayformat>
																</timecode>
																<media>
																	<video>
																		<samplecharacteristics>
																			<rate>
																				<timebase>25</timebase>
																				<ntsc>FALSE</ntsc>
																			</rate>
																			<width>1920</width>
																			<height>1080</height>
																			<anamorphic>FALSE</anamorphic>
																			<pixelaspectratio>PAL-601</pixelaspectratio>
																			<fielddominance>none</fielddominance>
																		</samplecharacteristics>
																	</video>
																</media>
															</file>
															<filter>
																<effect>
																	<name>Time Remap</name>
																	<effectid>timeremap</effectid>
																	<effectcategory>motion</effectcategory>
																	<effecttype>motion</effecttype>
																	<mediatype>video</mediatype>
																	<parameter authoringApp="PremierePro">
																		<parameterid>variablespeed</parameterid>
																		<name>variablespeed</name>
																		<valuemin>0</valuemin>
																		<valuemax>1</valuemax>
																		<value>0</value>
																	</parameter>
																	<parameter authoringApp="PremierePro">
																		<parameterid>speed</parameterid>
																		<name>speed</name>
																		<valuemin>-100000</valuemin>
																		<valuemax>100000</valuemax>
																		<value>110</value>
																	</parameter>
																	<parameter authoringApp="PremierePro">
																		<parameterid>reverse</parameterid>
																		<name>reverse</name>
																		<value>FALSE</value>
																	</parameter>
																	<parameter authoringApp="PremierePro">
																		<parameterid>frameblending</parameterid>
																		<name>frameblending</name>
																		<value>FALSE</value>
																	</parameter>
																	<parameter authoringApp="PremierePro">
																		<parameterid>graphdict</parameterid>
																		<name>graphdict</name>
																		<valuemin>0</valuemin>
																		<valuemax>182</valuemax>
																		<value>0</value>
																		<keyframe>
																			<when>0</when>
																			<value>0</value>
																			<speedvirtualkf>TRUE</speedvirtualkf>
																			<speedkfin>TRUE</speedkfin>
																		</keyframe>
																		<keyframe>
																			<when>166</when>
																			<value>182</value>
																			<speedvirtualkf>TRUE</speedvirtualkf>
																			<speedkfout>TRUE</speedkfout>
																		</keyframe>
																		<interpolation>
																			<name>FCPCurve</name>
																		</interpolation>
																	</parameter>
																</effect>
															</filter>
															<filter>
																<effect>
																	<name>Distort</name>
																	<effectid>deformation</effectid>
																	<effectcategory>motion</effectcategory>
																	<effecttype>motion</effecttype>
																	<mediatype>video</mediatype>
																	<parameter authoringApp="PremierePro">
																		<parameterid>aspect</parameterid>
																		<name>Aspect</name>
																		<valuemin>-10000</valuemin>
																		<valuemax>10000</valuemax>
																		<value>-9.36709</value>
																	</parameter>
																</effect>
															</filter>
															<filter>
																<effect>
																	<name>Basic Motion</name>
																	<effectid>basic</effectid>
																	<effectcategory>motion</effectcategory>
																	<effecttype>motion</effecttype>
																	<mediatype>video</mediatype>
																	<parameter authoringApp="PremierePro">
																		<parameterid>scale</parameterid>
																		<name>Scale</name>
																		<value>109.367</value>
																	</parameter>
																</effect>
															</filter>
															<logginginfo>
																<description></description>
																<scene></scene>
																<shottake></shottake>
																<lognote></lognote>
																<good></good>
																<originalvideofilename></originalvideofilename>
																<originalaudiofilename></originalaudiofilename>
															</logginginfo>
															<colorinfo>
																<lut></lut>
																<lut1></lut1>
																<asc_sop></asc_sop>
																<asc_sat></asc_sat>
																<lut2></lut2>
															</colorinfo>
															<labels>
																<label2>Violet</label2>
															</labels>
														</clipitem>
														<clipitem id="clipitem-129">
															<masterclipid>masterclip-47</masterclipid>
															<name>202107_Man Chef Cook Cooking_By_Hans_Peter_Schepp_Artlist_HD.mp4</name>
															<enabled>TRUE</enabled>
															<duration>216</duration>
															<rate>
																<timebase>30</timebase>
																<ntsc>TRUE</ntsc>
															</rate>
															<start>375</start>
															<end>591</end>
															<in>0</in>
															<out>215</out>
															<pproTicksIn>0</pproTicksIn>
															<pproTicksOut>2013818526720</pproTicksOut>
															<alphatype>none</alphatype>
															<pixelaspectratio>PAL-601</pixelaspectratio>
															<anamorphic>FALSE</anamorphic>
															<file id="file-37">
																<name>202107_Man Chef Cook Cooking_By_Hans_Peter_Schepp_Artlist_HD.mp4</name>
																<pathurl>file://localhost/Volumes/ATM%201/EYE%20CANDY/8%3a14%3a23/3_Raw%20Files/Artlist%20-%20Gourmet%20Desert%20Plate/202107_Man%20Chef%20Cook%20Cooking_By_Hans_Peter_Schepp_Artlist_HD.mp4</pathurl>
																<rate>
																	<timebase>25</timebase>
																	<ntsc>FALSE</ntsc>
																</rate>
																<duration>199</duration>
																<timecode>
																	<rate>
																		<timebase>25</timebase>
																		<ntsc>FALSE</ntsc>
																	</rate>
																	<string>00:20:00:06</string>
																	<frame>30006</frame>
																	<displayformat>NDF</displayformat>
																</timecode>
																<media>
																	<video>
																		<samplecharacteristics>
																			<rate>
																				<timebase>25</timebase>
																				<ntsc>FALSE</ntsc>
																			</rate>
																			<width>1920</width>
																			<height>1080</height>
																			<anamorphic>FALSE</anamorphic>
																			<pixelaspectratio>PAL-601</pixelaspectratio>
																			<fielddominance>none</fielddominance>
																		</samplecharacteristics>
																	</video>
																</media>
															</file>
															<filter>
																<effect>
																	<name>Time Remap</name>
																	<effectid>timeremap</effectid>
																	<effectcategory>motion</effectcategory>
																	<effecttype>motion</effecttype>
																	<mediatype>video</mediatype>
																	<parameter authoringApp="PremierePro">
																		<parameterid>variablespeed</parameterid>
																		<name>variablespeed</name>
																		<valuemin>0</valuemin>
																		<valuemax>1</valuemax>
																		<value>0</value>
																	</parameter>
																	<parameter authoringApp="PremierePro">
																		<parameterid>speed</parameterid>
																		<name>speed</name>
																		<valuemin>-100000</valuemin>
																		<valuemax>100000</valuemax>
																		<value>110</value>
																	</parameter>
																	<parameter authoringApp="PremierePro">
																		<parameterid>reverse</parameterid>
																		<name>reverse</name>
																		<value>FALSE</value>
																	</parameter>
																	<parameter authoringApp="PremierePro">
																		<parameterid>frameblending</parameterid>
																		<name>frameblending</name>
																		<value>FALSE</value>
																	</parameter>
																	<parameter authoringApp="PremierePro">
																		<parameterid>graphdict</parameterid>
																		<name>graphdict</name>
																		<valuemin>0</valuemin>
																		<valuemax>237</valuemax>
																		<value>0</value>
																		<keyframe>
																			<when>0</when>
																			<value>0</value>
																			<speedvirtualkf>TRUE</speedvirtualkf>
																			<speedkfin>TRUE</speedkfin>
																		</keyframe>
																		<keyframe>
																			<when>215</when>
																			<value>236</value>
																			<speedvirtualkf>TRUE</speedvirtualkf>
																			<speedkfout>TRUE</speedkfout>
																		</keyframe>
																		<keyframe>
																			<when>216</when>
																			<value>237</value>
																			<speedvirtualkf>TRUE</speedvirtualkf>
																			<speedkfend>TRUE</speedkfend>
																		</keyframe>
																		<interpolation>
																			<name>FCPCurve</name>
																		</interpolation>
																	</parameter>
																</effect>
															</filter>
															<filter>
																<effect>
																	<name>Distort</name>
																	<effectid>deformation</effectid>
																	<effectcategory>motion</effectcategory>
																	<effecttype>motion</effecttype>
																	<mediatype>video</mediatype>
																	<parameter authoringApp="PremierePro">
																		<parameterid>aspect</parameterid>
																		<name>Aspect</name>
																		<valuemin>-10000</valuemin>
																		<valuemax>10000</valuemax>
																		<value>-9.36709</value>
																	</parameter>
																</effect>
															</filter>
															<filter>
																<effect>
																	<name>Basic Motion</name>
																	<effectid>basic</effectid>
																	<effectcategory>motion</effectcategory>
																	<effecttype>motion</effecttype>
																	<mediatype>video</mediatype>
																	<parameter authoringApp="PremierePro">
																		<parameterid>scale</parameterid>
																		<name>Scale</name>
																		<value>109.367</value>
																	</parameter>
																</effect>
															</filter>
															<logginginfo>
																<description></description>
																<scene></scene>
																<shottake></shottake>
																<lognote></lognote>
																<good></good>
																<originalvideofilename></originalvideofilename>
																<originalaudiofilename></originalaudiofilename>
															</logginginfo>
															<colorinfo>
																<lut></lut>
																<lut1></lut1>
																<asc_sop></asc_sop>
																<asc_sat></asc_sat>
																<lut2></lut2>
															</colorinfo>
															<labels>
																<label2>Violet</label2>
															</labels>
														</clipitem>
														<clipitem id="clipitem-130">
															<masterclipid>masterclip-48</masterclipid>
															<name>202108_Man Chef Cook Cooking_By_Hans_Peter_Schepp_Artlist_HD.mp4</name>
															<enabled>TRUE</enabled>
															<duration>254</duration>
															<rate>
																<timebase>30</timebase>
																<ntsc>TRUE</ntsc>
															</rate>
															<start>591</start>
															<end>846</end>
															<in>0</in>
															<out>254</out>
															<pproTicksIn>0</pproTicksIn>
															<pproTicksOut>2377424649600</pproTicksOut>
															<alphatype>none</alphatype>
															<pixelaspectratio>PAL-601</pixelaspectratio>
															<anamorphic>FALSE</anamorphic>
															<file id="file-38">
																<name>202108_Man Chef Cook Cooking_By_Hans_Peter_Schepp_Artlist_HD.mp4</name>
																<pathurl>file://localhost/Volumes/ATM%201/EYE%20CANDY/8%3a14%3a23/3_Raw%20Files/Artlist%20-%20Gourmet%20Desert%20Plate/202108_Man%20Chef%20Cook%20Cooking_By_Hans_Peter_Schepp_Artlist_HD.mp4</pathurl>
																<rate>
																	<timebase>25</timebase>
																	<ntsc>FALSE</ntsc>
																</rate>
																<duration>234</duration>
																<timecode>
																	<rate>
																		<timebase>25</timebase>
																		<ntsc>FALSE</ntsc>
																	</rate>
																	<string>00:20:22:02</string>
																	<frame>30552</frame>
																	<displayformat>NDF</displayformat>
																</timecode>
																<media>
																	<video>
																		<samplecharacteristics>
																			<rate>
																				<timebase>25</timebase>
																				<ntsc>FALSE</ntsc>
																			</rate>
																			<width>1920</width>
																			<height>1080</height>
																			<anamorphic>FALSE</anamorphic>
																			<pixelaspectratio>PAL-601</pixelaspectratio>
																			<fielddominance>none</fielddominance>
																		</samplecharacteristics>
																	</video>
																</media>
															</file>
															<filter>
																<effect>
																	<name>Time Remap</name>
																	<effectid>timeremap</effectid>
																	<effectcategory>motion</effectcategory>
																	<effecttype>motion</effecttype>
																	<mediatype>video</mediatype>
																	<parameter authoringApp="PremierePro">
																		<parameterid>variablespeed</parameterid>
																		<name>variablespeed</name>
																		<valuemin>0</valuemin>
																		<valuemax>1</valuemax>
																		<value>0</value>
																	</parameter>
																	<parameter authoringApp="PremierePro">
																		<parameterid>speed</parameterid>
																		<name>speed</name>
																		<valuemin>-100000</valuemin>
																		<valuemax>100000</valuemax>
																		<value>110</value>
																	</parameter>
																	<parameter authoringApp="PremierePro">
																		<parameterid>reverse</parameterid>
																		<name>reverse</name>
																		<value>FALSE</value>
																	</parameter>
																	<parameter authoringApp="PremierePro">
																		<parameterid>frameblending</parameterid>
																		<name>frameblending</name>
																		<value>FALSE</value>
																	</parameter>
																	<parameter authoringApp="PremierePro">
																		<parameterid>graphdict</parameterid>
																		<name>graphdict</name>
																		<valuemin>0</valuemin>
																		<valuemax>279</valuemax>
																		<value>0</value>
																		<keyframe>
																			<when>0</when>
																			<value>0</value>
																			<speedvirtualkf>TRUE</speedvirtualkf>
																			<speedkfin>TRUE</speedkfin>
																		</keyframe>
																		<keyframe>
																			<when>254</when>
																			<value>279</value>
																			<speedvirtualkf>TRUE</speedvirtualkf>
																			<speedkfout>TRUE</speedkfout>
																		</keyframe>
																		<interpolation>
																			<name>FCPCurve</name>
																		</interpolation>
																	</parameter>
																</effect>
															</filter>
															<filter>
																<effect>
																	<name>Distort</name>
																	<effectid>deformation</effectid>
																	<effectcategory>motion</effectcategory>
																	<effecttype>motion</effecttype>
																	<mediatype>video</mediatype>
																	<parameter authoringApp="PremierePro">
																		<parameterid>aspect</parameterid>
																		<name>Aspect</name>
																		<valuemin>-10000</valuemin>
																		<valuemax>10000</valuemax>
																		<value>-9.36709</value>
																	</parameter>
																</effect>
															</filter>
															<filter>
																<effect>
																	<name>Basic Motion</name>
																	<effectid>basic</effectid>
																	<effectcategory>motion</effectcategory>
																	<effecttype>motion</effecttype>
																	<mediatype>video</mediatype>
																	<parameter authoringApp="PremierePro">
																		<parameterid>scale</parameterid>
																		<name>Scale</name>
																		<value>109.367</value>
																	</parameter>
																</effect>
															</filter>
															<logginginfo>
																<description></description>
																<scene></scene>
																<shottake></shottake>
																<lognote></lognote>
																<good></good>
																<originalvideofilename></originalvideofilename>
																<originalaudiofilename></originalaudiofilename>
															</logginginfo>
															<colorinfo>
																<lut></lut>
																<lut1></lut1>
																<asc_sop></asc_sop>
																<asc_sat></asc_sat>
																<lut2></lut2>
															</colorinfo>
															<labels>
																<label2>Violet</label2>
															</labels>
														</clipitem>
														<clipitem id="clipitem-131">
															<masterclipid>masterclip-49</masterclipid>
															<name>202109_0042_By_Hans_Peter_Schepp_Artlist_HD.mp4</name>
															<enabled>TRUE</enabled>
															<duration>144</duration>
															<rate>
																<timebase>30</timebase>
																<ntsc>TRUE</ntsc>
															</rate>
															<start>846</start>
															<end>940</end>
															<in>0</in>
															<out>93</out>
															<pproTicksIn>0</pproTicksIn>
															<pproTicksOut>876383988480</pproTicksOut>
															<alphatype>none</alphatype>
															<pixelaspectratio>PAL-601</pixelaspectratio>
															<anamorphic>FALSE</anamorphic>
															<file id="file-39">
																<name>202109_0042_By_Hans_Peter_Schepp_Artlist_HD.mp4</name>
																<pathurl>file://localhost/Volumes/ATM%201/EYE%20CANDY/8%3a14%3a23/3_Raw%20Files/Artlist%20-%20Gourmet%20Desert%20Plate/202109_0042_By_Hans_Peter_Schepp_Artlist_HD.mp4</pathurl>
																<rate>
																	<timebase>25</timebase>
																	<ntsc>FALSE</ntsc>
																</rate>
																<duration>133</duration>
																<timecode>
																	<rate>
																		<timebase>25</timebase>
																		<ntsc>FALSE</ntsc>
																	</rate>
																	<string>00:20:42:01</string>
																	<frame>31051</frame>
																	<displayformat>NDF</displayformat>
																</timecode>
																<media>
																	<video>
																		<samplecharacteristics>
																			<rate>
																				<timebase>25</timebase>
																				<ntsc>FALSE</ntsc>
																			</rate>
																			<width>1920</width>
																			<height>1080</height>
																			<anamorphic>FALSE</anamorphic>
																			<pixelaspectratio>PAL-601</pixelaspectratio>
																			<fielddominance>none</fielddominance>
																		</samplecharacteristics>
																	</video>
																</media>
															</file>
															<filter>
																<effect>
																	<name>Time Remap</name>
																	<effectid>timeremap</effectid>
																	<effectcategory>motion</effectcategory>
																	<effecttype>motion</effecttype>
																	<mediatype>video</mediatype>
																	<parameter authoringApp="PremierePro">
																		<parameterid>variablespeed</parameterid>
																		<name>variablespeed</name>
																		<valuemin>0</valuemin>
																		<valuemax>1</valuemax>
																		<value>0</value>
																	</parameter>
																	<parameter authoringApp="PremierePro">
																		<parameterid>speed</parameterid>
																		<name>speed</name>
																		<valuemin>-100000</valuemin>
																		<valuemax>100000</valuemax>
																		<value>110</value>
																	</parameter>
																	<parameter authoringApp="PremierePro">
																		<parameterid>reverse</parameterid>
																		<name>reverse</name>
																		<value>FALSE</value>
																	</parameter>
																	<parameter authoringApp="PremierePro">
																		<parameterid>frameblending</parameterid>
																		<name>frameblending</name>
																		<value>FALSE</value>
																	</parameter>
																	<parameter authoringApp="PremierePro">
																		<parameterid>graphdict</parameterid>
																		<name>graphdict</name>
																		<valuemin>0</valuemin>
																		<valuemax>158</valuemax>
																		<value>0</value>
																		<keyframe>
																			<when>0</when>
																			<value>0</value>
																			<speedvirtualkf>TRUE</speedvirtualkf>
																			<speedkfin>TRUE</speedkfin>
																		</keyframe>
																		<keyframe>
																			<when>93</when>
																			<value>102</value>
																			<speedvirtualkf>TRUE</speedvirtualkf>
																			<speedkfout>TRUE</speedkfout>
																		</keyframe>
																		<keyframe>
																			<when>144</when>
																			<value>158</value>
																			<speedvirtualkf>TRUE</speedvirtualkf>
																			<speedkfend>TRUE</speedkfend>
																		</keyframe>
																		<interpolation>
																			<name>FCPCurve</name>
																		</interpolation>
																	</parameter>
																</effect>
															</filter>
															<filter>
																<effect>
																	<name>Distort</name>
																	<effectid>deformation</effectid>
																	<effectcategory>motion</effectcategory>
																	<effecttype>motion</effecttype>
																	<mediatype>video</mediatype>
																	<parameter authoringApp="PremierePro">
																		<parameterid>aspect</parameterid>
																		<name>Aspect</name>
																		<valuemin>-10000</valuemin>
																		<valuemax>10000</valuemax>
																		<value>-9.36709</value>
																	</parameter>
																</effect>
															</filter>
															<filter>
																<effect>
																	<name>Basic Motion</name>
																	<effectid>basic</effectid>
																	<effectcategory>motion</effectcategory>
																	<effecttype>motion</effecttype>
																	<mediatype>video</mediatype>
																	<parameter authoringApp="PremierePro">
																		<parameterid>scale</parameterid>
																		<name>Scale</name>
																		<value>109.367</value>
																	</parameter>
																</effect>
															</filter>
															<logginginfo>
																<description></description>
																<scene></scene>
																<shottake></shottake>
																<lognote></lognote>
																<good></good>
																<originalvideofilename></originalvideofilename>
																<originalaudiofilename></originalaudiofilename>
															</logginginfo>
															<colorinfo>
																<lut></lut>
																<lut1></lut1>
																<asc_sop></asc_sop>
																<asc_sat></asc_sat>
																<lut2></lut2>
															</colorinfo>
														</clipitem>
														<clipitem id="clipitem-132">
															<masterclipid>masterclip-50</masterclipid>
															<name>202110_Man Chef Cook Cooking_By_Hans_Peter_Schepp_Artlist_HD.mp4</name>
															<enabled>TRUE</enabled>
															<duration>140</duration>
															<rate>
																<timebase>30</timebase>
																<ntsc>TRUE</ntsc>
															</rate>
															<start>940</start>
															<end>1061</end>
															<in>0</in>
															<out>120</out>
															<pproTicksIn>0</pproTicksIn>
															<pproTicksOut>1128111304320</pproTicksOut>
															<alphatype>none</alphatype>
															<pixelaspectratio>PAL-601</pixelaspectratio>
															<anamorphic>FALSE</anamorphic>
															<file id="file-40">
																<name>202110_Man Chef Cook Cooking_By_Hans_Peter_Schepp_Artlist_HD.mp4</name>
																<pathurl>file://localhost/Volumes/ATM%201/EYE%20CANDY/8%3a14%3a23/3_Raw%20Files/Artlist%20-%20Gourmet%20Desert%20Plate/202110_Man%20Chef%20Cook%20Cooking_By_Hans_Peter_Schepp_Artlist_HD.mp4</pathurl>
																<rate>
																	<timebase>25</timebase>
																	<ntsc>FALSE</ntsc>
																</rate>
																<duration>129</duration>
																<timecode>
																	<rate>
																		<timebase>25</timebase>
																		<ntsc>FALSE</ntsc>
																	</rate>
																	<string>00:22:01:04</string>
																	<frame>33029</frame>
																	<displayformat>NDF</displayformat>
																</timecode>
																<media>
																	<video>
																		<samplecharacteristics>
																			<rate>
																				<timebase>25</timebase>
																				<ntsc>FALSE</ntsc>
																			</rate>
																			<width>1920</width>
																			<height>1080</height>
																			<anamorphic>FALSE</anamorphic>
																			<pixelaspectratio>PAL-601</pixelaspectratio>
																			<fielddominance>none</fielddominance>
																		</samplecharacteristics>
																	</video>
																</media>
															</file>
															<filter>
																<effect>
																	<name>Time Remap</name>
																	<effectid>timeremap</effectid>
																	<effectcategory>motion</effectcategory>
																	<effecttype>motion</effecttype>
																	<mediatype>video</mediatype>
																	<parameter authoringApp="PremierePro">
																		<parameterid>variablespeed</parameterid>
																		<name>variablespeed</name>
																		<valuemin>0</valuemin>
																		<valuemax>1</valuemax>
																		<value>0</value>
																	</parameter>
																	<parameter authoringApp="PremierePro">
																		<parameterid>speed</parameterid>
																		<name>speed</name>
																		<valuemin>-100000</valuemin>
																		<valuemax>100000</valuemax>
																		<value>110</value>
																	</parameter>
																	<parameter authoringApp="PremierePro">
																		<parameterid>reverse</parameterid>
																		<name>reverse</name>
																		<value>FALSE</value>
																	</parameter>
																	<parameter authoringApp="PremierePro">
																		<parameterid>frameblending</parameterid>
																		<name>frameblending</name>
																		<value>FALSE</value>
																	</parameter>
																	<parameter authoringApp="PremierePro">
																		<parameterid>graphdict</parameterid>
																		<name>graphdict</name>
																		<valuemin>0</valuemin>
																		<valuemax>154</valuemax>
																		<value>0</value>
																		<keyframe>
																			<when>0</when>
																			<value>0</value>
																			<speedvirtualkf>TRUE</speedvirtualkf>
																			<speedkfin>TRUE</speedkfin>
																		</keyframe>
																		<keyframe>
																			<when>120</when>
																			<value>132</value>
																			<speedvirtualkf>TRUE</speedvirtualkf>
																			<speedkfout>TRUE</speedkfout>
																		</keyframe>
																		<keyframe>
																			<when>140</when>
																			<value>154</value>
																			<speedvirtualkf>TRUE</speedvirtualkf>
																			<speedkfend>TRUE</speedkfend>
																		</keyframe>
																		<interpolation>
																			<name>FCPCurve</name>
																		</interpolation>
																	</parameter>
																</effect>
															</filter>
															<filter>
																<effect>
																	<name>Distort</name>
																	<effectid>deformation</effectid>
																	<effectcategory>motion</effectcategory>
																	<effecttype>motion</effecttype>
																	<mediatype>video</mediatype>
																	<parameter authoringApp="PremierePro">
																		<parameterid>aspect</parameterid>
																		<name>Aspect</name>
																		<valuemin>-10000</valuemin>
																		<valuemax>10000</valuemax>
																		<value>-9.36709</value>
																	</parameter>
																</effect>
															</filter>
															<filter>
																<effect>
																	<name>Basic Motion</name>
																	<effectid>basic</effectid>
																	<effectcategory>motion</effectcategory>
																	<effecttype>motion</effecttype>
																	<mediatype>video</mediatype>
																	<parameter authoringApp="PremierePro">
																		<parameterid>scale</parameterid>
																		<name>Scale</name>
																		<value>109.367</value>
																	</parameter>
																</effect>
															</filter>
															<logginginfo>
																<description></description>
																<scene></scene>
																<shottake></shottake>
																<lognote></lognote>
																<good></good>
																<originalvideofilename></originalvideofilename>
																<originalaudiofilename></originalaudiofilename>
															</logginginfo>
															<colorinfo>
																<lut></lut>
																<lut1></lut1>
																<asc_sop></asc_sop>
																<asc_sat></asc_sat>
																<lut2></lut2>
															</colorinfo>
															<labels>
																<label2>Violet</label2>
															</labels>
														</clipitem>
														<clipitem id="clipitem-133">
															<masterclipid>masterclip-51</masterclipid>
															<name>202111_Man Chef Cook Cooking_By_Hans_Peter_Schepp_Artlist_HD.mp4</name>
															<enabled>TRUE</enabled>
															<duration>168</duration>
															<rate>
																<timebase>30</timebase>
																<ntsc>TRUE</ntsc>
															</rate>
															<start>1061</start>
															<end>1229</end>
															<in>0</in>
															<out>168</out>
															<pproTicksIn>0</pproTicksIn>
															<pproTicksOut>1566303298560</pproTicksOut>
															<alphatype>none</alphatype>
															<pixelaspectratio>PAL-601</pixelaspectratio>
															<anamorphic>FALSE</anamorphic>
															<file id="file-41">
																<name>202111_Man Chef Cook Cooking_By_Hans_Peter_Schepp_Artlist_HD.mp4</name>
																<pathurl>file://localhost/Volumes/ATM%201/EYE%20CANDY/8%3a14%3a23/3_Raw%20Files/Artlist%20-%20Gourmet%20Desert%20Plate/202111_Man%20Chef%20Cook%20Cooking_By_Hans_Peter_Schepp_Artlist_HD.mp4</pathurl>
																<rate>
																	<timebase>25</timebase>
																	<ntsc>FALSE</ntsc>
																</rate>
																<duration>155</duration>
																<timecode>
																	<rate>
																		<timebase>25</timebase>
																		<ntsc>FALSE</ntsc>
																	</rate>
																	<string>00:23:03:21</string>
																	<frame>34596</frame>
																	<displayformat>NDF</displayformat>
																</timecode>
																<media>
																	<video>
																		<samplecharacteristics>
																			<rate>
																				<timebase>25</timebase>
																				<ntsc>FALSE</ntsc>
																			</rate>
																			<width>1920</width>
																			<height>1080</height>
																			<anamorphic>FALSE</anamorphic>
																			<pixelaspectratio>PAL-601</pixelaspectratio>
																			<fielddominance>none</fielddominance>
																		</samplecharacteristics>
																	</video>
																</media>
															</file>
															<filter>
																<effect>
																	<name>Time Remap</name>
																	<effectid>timeremap</effectid>
																	<effectcategory>motion</effectcategory>
																	<effecttype>motion</effecttype>
																	<mediatype>video</mediatype>
																	<parameter authoringApp="PremierePro">
																		<parameterid>variablespeed</parameterid>
																		<name>variablespeed</name>
																		<valuemin>0</valuemin>
																		<valuemax>1</valuemax>
																		<value>0</value>
																	</parameter>
																	<parameter authoringApp="PremierePro">
																		<parameterid>speed</parameterid>
																		<name>speed</name>
																		<valuemin>-100000</valuemin>
																		<valuemax>100000</valuemax>
																		<value>110</value>
																	</parameter>
																	<parameter authoringApp="PremierePro">
																		<parameterid>reverse</parameterid>
																		<name>reverse</name>
																		<value>FALSE</value>
																	</parameter>
																	<parameter authoringApp="PremierePro">
																		<parameterid>frameblending</parameterid>
																		<name>frameblending</name>
																		<value>FALSE</value>
																	</parameter>
																	<parameter authoringApp="PremierePro">
																		<parameterid>graphdict</parameterid>
																		<name>graphdict</name>
																		<valuemin>0</valuemin>
																		<valuemax>184</valuemax>
																		<value>0</value>
																		<keyframe>
																			<when>0</when>
																			<value>0</value>
																			<speedvirtualkf>TRUE</speedvirtualkf>
																			<speedkfin>TRUE</speedkfin>
																		</keyframe>
																		<keyframe>
																			<when>168</when>
																			<value>184</value>
																			<speedvirtualkf>TRUE</speedvirtualkf>
																			<speedkfout>TRUE</speedkfout>
																		</keyframe>
																		<interpolation>
																			<name>FCPCurve</name>
																		</interpolation>
																	</parameter>
																</effect>
															</filter>
															<filter>
																<effect>
																	<name>Distort</name>
																	<effectid>deformation</effectid>
																	<effectcategory>motion</effectcategory>
																	<effecttype>motion</effecttype>
																	<mediatype>video</mediatype>
																	<parameter authoringApp="PremierePro">
																		<parameterid>aspect</parameterid>
																		<name>Aspect</name>
																		<valuemin>-10000</valuemin>
																		<valuemax>10000</valuemax>
																		<value>-9.36709</value>
																	</parameter>
																</effect>
															</filter>
															<filter>
																<effect>
																	<name>Basic Motion</name>
																	<effectid>basic</effectid>
																	<effectcategory>motion</effectcategory>
																	<effecttype>motion</effecttype>
																	<mediatype>video</mediatype>
																	<parameter authoringApp="PremierePro">
																		<parameterid>scale</parameterid>
																		<name>Scale</name>
																		<value>109.367</value>
																	</parameter>
																</effect>
															</filter>
															<logginginfo>
																<description></description>
																<scene></scene>
																<shottake></shottake>
																<lognote></lognote>
																<good></good>
																<originalvideofilename></originalvideofilename>
																<originalaudiofilename></originalaudiofilename>
															</logginginfo>
															<colorinfo>
																<lut></lut>
																<lut1></lut1>
																<asc_sop></asc_sop>
																<asc_sat></asc_sat>
																<lut2></lut2>
															</colorinfo>
															<labels>
																<label2>Violet</label2>
															</labels>
														</clipitem>
														<clipitem id="clipitem-134">
															<masterclipid>masterclip-52</masterclipid>
															<name>202112_Man Chef Cook Cooking_By_Hans_Peter_Schepp_Artlist_HD.mp4</name>
															<enabled>TRUE</enabled>
															<duration>214</duration>
															<rate>
																<timebase>30</timebase>
																<ntsc>TRUE</ntsc>
															</rate>
															<start>1229</start>
															<end>1331</end>
															<in>0</in>
															<out>101</out>
															<pproTicksIn>0</pproTicksIn>
															<pproTicksOut>950969859840</pproTicksOut>
															<alphatype>none</alphatype>
															<pixelaspectratio>PAL-601</pixelaspectratio>
															<anamorphic>FALSE</anamorphic>
															<file id="file-42">
																<name>202112_Man Chef Cook Cooking_By_Hans_Peter_Schepp_Artlist_HD.mp4</name>
																<pathurl>file://localhost/Volumes/ATM%201/EYE%20CANDY/8%3a14%3a23/3_Raw%20Files/Artlist%20-%20Gourmet%20Desert%20Plate/202112_Man%20Chef%20Cook%20Cooking_By_Hans_Peter_Schepp_Artlist_HD.mp4</pathurl>
																<rate>
																	<timebase>25</timebase>
																	<ntsc>FALSE</ntsc>
																</rate>
																<duration>197</duration>
																<timecode>
																	<rate>
																		<timebase>25</timebase>
																		<ntsc>FALSE</ntsc>
																	</rate>
																	<string>00:25:49:09</string>
																	<frame>38734</frame>
																	<displayformat>NDF</displayformat>
																</timecode>
																<media>
																	<video>
																		<samplecharacteristics>
																			<rate>
																				<timebase>25</timebase>
																				<ntsc>FALSE</ntsc>
																			</rate>
																			<width>1920</width>
																			<height>1080</height>
																			<anamorphic>FALSE</anamorphic>
																			<pixelaspectratio>PAL-601</pixelaspectratio>
																			<fielddominance>none</fielddominance>
																		</samplecharacteristics>
																	</video>
																</media>
															</file>
															<filter>
																<effect>
																	<name>Time Remap</name>
																	<effectid>timeremap</effectid>
																	<effectcategory>motion</effectcategory>
																	<effecttype>motion</effecttype>
																	<mediatype>video</mediatype>
																	<parameter authoringApp="PremierePro">
																		<parameterid>variablespeed</parameterid>
																		<name>variablespeed</name>
																		<valuemin>0</valuemin>
																		<valuemax>1</valuemax>
																		<value>0</value>
																	</parameter>
																	<parameter authoringApp="PremierePro">
																		<parameterid>speed</parameterid>
																		<name>speed</name>
																		<valuemin>-100000</valuemin>
																		<valuemax>100000</valuemax>
																		<value>110</value>
																	</parameter>
																	<parameter authoringApp="PremierePro">
																		<parameterid>reverse</parameterid>
																		<name>reverse</name>
																		<value>FALSE</value>
																	</parameter>
																	<parameter authoringApp="PremierePro">
																		<parameterid>frameblending</parameterid>
																		<name>frameblending</name>
																		<value>FALSE</value>
																	</parameter>
																	<parameter authoringApp="PremierePro">
																		<parameterid>graphdict</parameterid>
																		<name>graphdict</name>
																		<valuemin>0</valuemin>
																		<valuemax>235</valuemax>
																		<value>0</value>
																		<keyframe>
																			<when>0</when>
																			<value>0</value>
																			<speedvirtualkf>TRUE</speedvirtualkf>
																			<speedkfin>TRUE</speedkfin>
																		</keyframe>
																		<keyframe>
																			<when>101</when>
																			<value>111</value>
																			<speedvirtualkf>TRUE</speedvirtualkf>
																			<speedkfout>TRUE</speedkfout>
																		</keyframe>
																		<keyframe>
																			<when>214</when>
																			<value>235</value>
																			<speedvirtualkf>TRUE</speedvirtualkf>
																			<speedkfend>TRUE</speedkfend>
																		</keyframe>
																		<interpolation>
																			<name>FCPCurve</name>
																		</interpolation>
																	</parameter>
																</effect>
															</filter>
															<filter>
																<effect>
																	<name>Distort</name>
																	<effectid>deformation</effectid>
																	<effectcategory>motion</effectcategory>
																	<effecttype>motion</effecttype>
																	<mediatype>video</mediatype>
																	<parameter authoringApp="PremierePro">
																		<parameterid>aspect</parameterid>
																		<name>Aspect</name>
																		<valuemin>-10000</valuemin>
																		<valuemax>10000</valuemax>
																		<value>-9.36709</value>
																	</parameter>
																</effect>
															</filter>
															<filter>
																<effect>
																	<name>Basic Motion</name>
																	<effectid>basic</effectid>
																	<effectcategory>motion</effectcategory>
																	<effecttype>motion</effecttype>
																	<mediatype>video</mediatype>
																	<parameter authoringApp="PremierePro">
																		<parameterid>scale</parameterid>
																		<name>Scale</name>
																		<value>109.367</value>
																	</parameter>
																</effect>
															</filter>
															<logginginfo>
																<description></description>
																<scene></scene>
																<shottake></shottake>
																<lognote></lognote>
																<good></good>
																<originalvideofilename></originalvideofilename>
																<originalaudiofilename></originalaudiofilename>
															</logginginfo>
															<colorinfo>
																<lut></lut>
																<lut1></lut1>
																<asc_sop></asc_sop>
																<asc_sat></asc_sat>
																<lut2></lut2>
															</colorinfo>
														</clipitem>
														<clipitem id="clipitem-135">
															<masterclipid>masterclip-53</masterclipid>
															<name>202114_Man Chef Cook Cooking_By_Hans_Peter_Schepp_Artlist_HD.mp4</name>
															<enabled>TRUE</enabled>
															<duration>231</duration>
															<rate>
																<timebase>30</timebase>
																<ntsc>TRUE</ntsc>
															</rate>
															<start>1331</start>
															<end>1493</end>
															<in>70</in>
															<out>231</out>
															<pproTicksIn>652626374400</pproTicksIn>
															<pproTicksOut>2162990269440</pproTicksOut>
															<alphatype>none</alphatype>
															<pixelaspectratio>PAL-601</pixelaspectratio>
															<anamorphic>FALSE</anamorphic>
															<file id="file-43">
																<name>202114_Man Chef Cook Cooking_By_Hans_Peter_Schepp_Artlist_HD.mp4</name>
																<pathurl>file://localhost/Volumes/ATM%201/EYE%20CANDY/8%3a14%3a23/3_Raw%20Files/Artlist%20-%20Gourmet%20Desert%20Plate/202114_Man%20Chef%20Cook%20Cooking_By_Hans_Peter_Schepp_Artlist_HD.mp4</pathurl>
																<rate>
																	<timebase>25</timebase>
																	<ntsc>FALSE</ntsc>
																</rate>
																<duration>213</duration>
																<timecode>
																	<rate>
																		<timebase>25</timebase>
																		<ntsc>FALSE</ntsc>
																	</rate>
																	<string>00:26:15:02</string>
																	<frame>39377</frame>
																	<displayformat>NDF</displayformat>
																</timecode>
																<media>
																	<video>
																		<samplecharacteristics>
																			<rate>
																				<timebase>25</timebase>
																				<ntsc>FALSE</ntsc>
																			</rate>
																			<width>1920</width>
																			<height>1080</height>
																			<anamorphic>FALSE</anamorphic>
																			<pixelaspectratio>PAL-601</pixelaspectratio>
																			<fielddominance>none</fielddominance>
																		</samplecharacteristics>
																	</video>
																</media>
															</file>
															<filter>
																<effect>
																	<name>Time Remap</name>
																	<effectid>timeremap</effectid>
																	<effectcategory>motion</effectcategory>
																	<effecttype>motion</effecttype>
																	<mediatype>video</mediatype>
																	<parameter authoringApp="PremierePro">
																		<parameterid>variablespeed</parameterid>
																		<name>variablespeed</name>
																		<valuemin>0</valuemin>
																		<valuemax>1</valuemax>
																		<value>0</value>
																	</parameter>
																	<parameter authoringApp="PremierePro">
																		<parameterid>speed</parameterid>
																		<name>speed</name>
																		<valuemin>-100000</valuemin>
																		<valuemax>100000</valuemax>
																		<value>110</value>
																	</parameter>
																	<parameter authoringApp="PremierePro">
																		<parameterid>reverse</parameterid>
																		<name>reverse</name>
																		<value>FALSE</value>
																	</parameter>
																	<parameter authoringApp="PremierePro">
																		<parameterid>frameblending</parameterid>
																		<name>frameblending</name>
																		<value>FALSE</value>
																	</parameter>
																	<parameter authoringApp="PremierePro">
																		<parameterid>graphdict</parameterid>
																		<name>graphdict</name>
																		<valuemin>0</valuemin>
																		<valuemax>254</valuemax>
																		<value>0</value>
																		<keyframe>
																			<when>0</when>
																			<value>0</value>
																			<speedvirtualkf>TRUE</speedvirtualkf>
																			<speedkfstart>TRUE</speedkfstart>
																		</keyframe>
																		<keyframe>
																			<when>70</when>
																			<value>77</value>
																			<speedvirtualkf>TRUE</speedvirtualkf>
																			<speedkfin>TRUE</speedkfin>
																		</keyframe>
																		<keyframe>
																			<when>231</when>
																			<value>254</value>
																			<speedvirtualkf>TRUE</speedvirtualkf>
																			<speedkfout>TRUE</speedkfout>
																		</keyframe>
																		<interpolation>
																			<name>FCPCurve</name>
																		</interpolation>
																	</parameter>
																</effect>
															</filter>
															<filter>
																<effect>
																	<name>Distort</name>
																	<effectid>deformation</effectid>
																	<effectcategory>motion</effectcategory>
																	<effecttype>motion</effecttype>
																	<mediatype>video</mediatype>
																	<parameter authoringApp="PremierePro">
																		<parameterid>aspect</parameterid>
																		<name>Aspect</name>
																		<valuemin>-10000</valuemin>
																		<valuemax>10000</valuemax>
																		<value>-9.36709</value>
																	</parameter>
																</effect>
															</filter>
															<filter>
																<effect>
																	<name>Basic Motion</name>
																	<effectid>basic</effectid>
																	<effectcategory>motion</effectcategory>
																	<effecttype>motion</effecttype>
																	<mediatype>video</mediatype>
																	<parameter authoringApp="PremierePro">
																		<parameterid>scale</parameterid>
																		<name>Scale</name>
																		<value>109.367</value>
																	</parameter>
																</effect>
															</filter>
															<logginginfo>
																<description></description>
																<scene></scene>
																<shottake></shottake>
																<lognote></lognote>
																<good></good>
																<originalvideofilename></originalvideofilename>
																<originalaudiofilename></originalaudiofilename>
															</logginginfo>
															<colorinfo>
																<lut></lut>
																<lut1></lut1>
																<asc_sop></asc_sop>
																<asc_sat></asc_sat>
																<lut2></lut2>
															</colorinfo>
															<labels>
																<label2>Violet</label2>
															</labels>
														</clipitem>
														<clipitem id="clipitem-136">
															<masterclipid>masterclip-54</masterclipid>
															<name>202113_Man Chef Cook Cooking_By_Hans_Peter_Schepp_Artlist_HD.mp4</name>
															<enabled>TRUE</enabled>
															<duration>135</duration>
															<rate>
																<timebase>30</timebase>
																<ntsc>TRUE</ntsc>
															</rate>
															<start>1493</start>
															<end>1617</end>
															<in>0</in>
															<out>123</out>
															<pproTicksIn>0</pproTicksIn>
															<pproTicksOut>1156081006080</pproTicksOut>
															<alphatype>none</alphatype>
															<pixelaspectratio>PAL-601</pixelaspectratio>
															<anamorphic>FALSE</anamorphic>
															<file id="file-44">
																<name>202113_Man Chef Cook Cooking_By_Hans_Peter_Schepp_Artlist_HD.mp4</name>
																<pathurl>file://localhost/Volumes/ATM%201/EYE%20CANDY/8%3a14%3a23/3_Raw%20Files/Artlist%20-%20Gourmet%20Desert%20Plate/202113_Man%20Chef%20Cook%20Cooking_By_Hans_Peter_Schepp_Artlist_HD.mp4</pathurl>
																<rate>
																	<timebase>25</timebase>
																	<ntsc>FALSE</ntsc>
																</rate>
																<duration>125</duration>
																<timecode>
																	<rate>
																		<timebase>25</timebase>
																		<ntsc>FALSE</ntsc>
																	</rate>
																	<string>00:23:32:05</string>
																	<frame>35305</frame>
																	<displayformat>NDF</displayformat>
																</timecode>
																<media>
																	<video>
																		<samplecharacteristics>
																			<rate>
																				<timebase>25</timebase>
																				<ntsc>FALSE</ntsc>
																			</rate>
																			<width>1920</width>
																			<height>1080</height>
																			<anamorphic>FALSE</anamorphic>
																			<pixelaspectratio>PAL-601</pixelaspectratio>
																			<fielddominance>none</fielddominance>
																		</samplecharacteristics>
																	</video>
																</media>
															</file>
															<filter>
																<effect>
																	<name>Time Remap</name>
																	<effectid>timeremap</effectid>
																	<effectcategory>motion</effectcategory>
																	<effecttype>motion</effecttype>
																	<mediatype>video</mediatype>
																	<parameter authoringApp="PremierePro">
																		<parameterid>variablespeed</parameterid>
																		<name>variablespeed</name>
																		<valuemin>0</valuemin>
																		<valuemax>1</valuemax>
																		<value>0</value>
																	</parameter>
																	<parameter authoringApp="PremierePro">
																		<parameterid>speed</parameterid>
																		<name>speed</name>
																		<valuemin>-100000</valuemin>
																		<valuemax>100000</valuemax>
																		<value>110</value>
																	</parameter>
																	<parameter authoringApp="PremierePro">
																		<parameterid>reverse</parameterid>
																		<name>reverse</name>
																		<value>FALSE</value>
																	</parameter>
																	<parameter authoringApp="PremierePro">
																		<parameterid>frameblending</parameterid>
																		<name>frameblending</name>
																		<value>FALSE</value>
																	</parameter>
																	<parameter authoringApp="PremierePro">
																		<parameterid>graphdict</parameterid>
																		<name>graphdict</name>
																		<valuemin>0</valuemin>
																		<valuemax>148</valuemax>
																		<value>0</value>
																		<keyframe>
																			<when>0</when>
																			<value>0</value>
																			<speedvirtualkf>TRUE</speedvirtualkf>
																			<speedkfin>TRUE</speedkfin>
																		</keyframe>
																		<keyframe>
																			<when>123</when>
																			<value>135</value>
																			<speedvirtualkf>TRUE</speedvirtualkf>
																			<speedkfout>TRUE</speedkfout>
																		</keyframe>
																		<keyframe>
																			<when>135</when>
																			<value>148</value>
																			<speedvirtualkf>TRUE</speedvirtualkf>
																			<speedkfend>TRUE</speedkfend>
																		</keyframe>
																		<interpolation>
																			<name>FCPCurve</name>
																		</interpolation>
																	</parameter>
																</effect>
															</filter>
															<filter>
																<effect>
																	<name>Distort</name>
																	<effectid>deformation</effectid>
																	<effectcategory>motion</effectcategory>
																	<effecttype>motion</effecttype>
																	<mediatype>video</mediatype>
																	<parameter authoringApp="PremierePro">
																		<parameterid>aspect</parameterid>
																		<name>Aspect</name>
																		<valuemin>-10000</valuemin>
																		<valuemax>10000</valuemax>
																		<value>-9.36709</value>
																	</parameter>
																</effect>
															</filter>
															<filter>
																<effect>
																	<name>Basic Motion</name>
																	<effectid>basic</effectid>
																	<effectcategory>motion</effectcategory>
																	<effecttype>motion</effecttype>
																	<mediatype>video</mediatype>
																	<parameter authoringApp="PremierePro">
																		<parameterid>scale</parameterid>
																		<name>Scale</name>
																		<value>109.367</value>
																	</parameter>
																</effect>
															</filter>
															<logginginfo>
																<description></description>
																<scene></scene>
																<shottake></shottake>
																<lognote></lognote>
																<good></good>
																<originalvideofilename></originalvideofilename>
																<originalaudiofilename></originalaudiofilename>
															</logginginfo>
															<colorinfo>
																<lut></lut>
																<lut1></lut1>
																<asc_sop></asc_sop>
																<asc_sat></asc_sat>
																<lut2></lut2>
															</colorinfo>
															<labels>
																<label2>Violet</label2>
															</labels>
														</clipitem>
														<clipitem id="clipitem-137">
															<masterclipid>masterclip-55</masterclipid>
															<name>202116_Man Chef Cook Cooking_By_Hans_Peter_Schepp_Artlist_HD.mp4</name>
															<enabled>TRUE</enabled>
															<duration>183</duration>
															<rate>
																<timebase>30</timebase>
																<ntsc>TRUE</ntsc>
															</rate>
															<start>1617</start>
															<end>1801</end>
															<in>0</in>
															<out>183</out>
															<pproTicksIn>0</pproTicksIn>
															<pproTicksOut>1715475041280</pproTicksOut>
															<alphatype>none</alphatype>
															<pixelaspectratio>PAL-601</pixelaspectratio>
															<anamorphic>FALSE</anamorphic>
															<file id="file-45">
																<name>202116_Man Chef Cook Cooking_By_Hans_Peter_Schepp_Artlist_HD.mp4</name>
																<pathurl>file://localhost/Volumes/ATM%201/EYE%20CANDY/8%3a14%3a23/3_Raw%20Files/Artlist%20-%20Gourmet%20Desert%20Plate/202116_Man%20Chef%20Cook%20Cooking_By_Hans_Peter_Schepp_Artlist_HD.mp4</pathurl>
																<rate>
																	<timebase>25</timebase>
																	<ntsc>FALSE</ntsc>
																</rate>
																<duration>169</duration>
																<timecode>
																	<rate>
																		<timebase>25</timebase>
																		<ntsc>FALSE</ntsc>
																	</rate>
																	<string>00:27:18:21</string>
																	<frame>40971</frame>
																	<displayformat>NDF</displayformat>
																</timecode>
																<media>
																	<video>
																		<samplecharacteristics>
																			<rate>
																				<timebase>25</timebase>
																				<ntsc>FALSE</ntsc>
																			</rate>
																			<width>1920</width>
																			<height>1080</height>
																			<anamorphic>FALSE</anamorphic>
																			<pixelaspectratio>PAL-601</pixelaspectratio>
																			<fielddominance>none</fielddominance>
																		</samplecharacteristics>
																	</video>
																</media>
															</file>
															<filter>
																<effect>
																	<name>Time Remap</name>
																	<effectid>timeremap</effectid>
																	<effectcategory>motion</effectcategory>
																	<effecttype>motion</effecttype>
																	<mediatype>video</mediatype>
																	<parameter authoringApp="PremierePro">
																		<parameterid>variablespeed</parameterid>
																		<name>variablespeed</name>
																		<valuemin>0</valuemin>
																		<valuemax>1</valuemax>
																		<value>0</value>
																	</parameter>
																	<parameter authoringApp="PremierePro">
																		<parameterid>speed</parameterid>
																		<name>speed</name>
																		<valuemin>-100000</valuemin>
																		<valuemax>100000</valuemax>
																		<value>110</value>
																	</parameter>
																	<parameter authoringApp="PremierePro">
																		<parameterid>reverse</parameterid>
																		<name>reverse</name>
																		<value>FALSE</value>
																	</parameter>
																	<parameter authoringApp="PremierePro">
																		<parameterid>frameblending</parameterid>
																		<name>frameblending</name>
																		<value>FALSE</value>
																	</parameter>
																	<parameter authoringApp="PremierePro">
																		<parameterid>graphdict</parameterid>
																		<name>graphdict</name>
																		<valuemin>0</valuemin>
																		<valuemax>201</valuemax>
																		<value>0</value>
																		<keyframe>
																			<when>0</when>
																			<value>0</value>
																			<speedvirtualkf>TRUE</speedvirtualkf>
																			<speedkfin>TRUE</speedkfin>
																		</keyframe>
																		<keyframe>
																			<when>183</when>
																			<value>201</value>
																			<speedvirtualkf>TRUE</speedvirtualkf>
																			<speedkfout>TRUE</speedkfout>
																		</keyframe>
																		<interpolation>
																			<name>FCPCurve</name>
																		</interpolation>
																	</parameter>
																</effect>
															</filter>
															<filter>
																<effect>
																	<name>Distort</name>
																	<effectid>deformation</effectid>
																	<effectcategory>motion</effectcategory>
																	<effecttype>motion</effecttype>
																	<mediatype>video</mediatype>
																	<parameter authoringApp="PremierePro">
																		<parameterid>aspect</parameterid>
																		<name>Aspect</name>
																		<valuemin>-10000</valuemin>
																		<valuemax>10000</valuemax>
																		<value>-9.36709</value>
																	</parameter>
																</effect>
															</filter>
															<filter>
																<effect>
																	<name>Basic Motion</name>
																	<effectid>basic</effectid>
																	<effectcategory>motion</effectcategory>
																	<effecttype>motion</effecttype>
																	<mediatype>video</mediatype>
																	<parameter authoringApp="PremierePro">
																		<parameterid>scale</parameterid>
																		<name>Scale</name>
																		<value>109.367</value>
																	</parameter>
																</effect>
															</filter>
															<logginginfo>
																<description></description>
																<scene></scene>
																<shottake></shottake>
																<lognote></lognote>
																<good></good>
																<originalvideofilename></originalvideofilename>
																<originalaudiofilename></originalaudiofilename>
															</logginginfo>
															<colorinfo>
																<lut></lut>
																<lut1></lut1>
																<asc_sop></asc_sop>
																<asc_sat></asc_sat>
																<lut2></lut2>
															</colorinfo>
															<labels>
																<label2>Violet</label2>
															</labels>
														</clipitem>
														<clipitem id="clipitem-138">
															<masterclipid>masterclip-56</masterclipid>
															<name>202117_Man Chef Cook Cooking_By_Hans_Peter_Schepp_Artlist_HD.mp4</name>
															<enabled>TRUE</enabled>
															<duration>150</duration>
															<rate>
																<timebase>30</timebase>
																<ntsc>TRUE</ntsc>
															</rate>
															<start>1801</start>
															<end>1952</end>
															<in>0</in>
															<out>151</out>
															<pproTicksIn>0</pproTicksIn>
															<pproTicksOut>1407808321920</pproTicksOut>
															<alphatype>none</alphatype>
															<pixelaspectratio>PAL-601</pixelaspectratio>
															<anamorphic>FALSE</anamorphic>
															<file id="file-46">
																<name>202117_Man Chef Cook Cooking_By_Hans_Peter_Schepp_Artlist_HD.mp4</name>
																<pathurl>file://localhost/Volumes/ATM%201/EYE%20CANDY/8%3a14%3a23/3_Raw%20Files/Artlist%20-%20Gourmet%20Desert%20Plate/202117_Man%20Chef%20Cook%20Cooking_By_Hans_Peter_Schepp_Artlist_HD.mp4</pathurl>
																<rate>
																	<timebase>25</timebase>
																	<ntsc>FALSE</ntsc>
																</rate>
																<duration>139</duration>
																<timecode>
																	<rate>
																		<timebase>25</timebase>
																		<ntsc>FALSE</ntsc>
																	</rate>
																	<string>00:28:13:04</string>
																	<frame>42329</frame>
																	<displayformat>NDF</displayformat>
																</timecode>
																<media>
																	<video>
																		<samplecharacteristics>
																			<rate>
																				<timebase>25</timebase>
																				<ntsc>FALSE</ntsc>
																			</rate>
																			<width>1920</width>
																			<height>1080</height>
																			<anamorphic>FALSE</anamorphic>
																			<pixelaspectratio>PAL-601</pixelaspectratio>
																			<fielddominance>none</fielddominance>
																		</samplecharacteristics>
																	</video>
																</media>
															</file>
															<filter>
																<effect>
																	<name>Time Remap</name>
																	<effectid>timeremap</effectid>
																	<effectcategory>motion</effectcategory>
																	<effecttype>motion</effecttype>
																	<mediatype>video</mediatype>
																	<parameter authoringApp="PremierePro">
																		<parameterid>variablespeed</parameterid>
																		<name>variablespeed</name>
																		<valuemin>0</valuemin>
																		<valuemax>1</valuemax>
																		<value>0</value>
																	</parameter>
																	<parameter authoringApp="PremierePro">
																		<parameterid>speed</parameterid>
																		<name>speed</name>
																		<valuemin>-100000</valuemin>
																		<valuemax>100000</valuemax>
																		<value>110</value>
																	</parameter>
																	<parameter authoringApp="PremierePro">
																		<parameterid>reverse</parameterid>
																		<name>reverse</name>
																		<value>FALSE</value>
																	</parameter>
																	<parameter authoringApp="PremierePro">
																		<parameterid>frameblending</parameterid>
																		<name>frameblending</name>
																		<value>FALSE</value>
																	</parameter>
																	<parameter authoringApp="PremierePro">
																		<parameterid>graphdict</parameterid>
																		<name>graphdict</name>
																		<valuemin>0</valuemin>
																		<valuemax>165</valuemax>
																		<value>0</value>
																		<keyframe>
																			<when>0</when>
																			<value>0</value>
																			<speedvirtualkf>TRUE</speedvirtualkf>
																			<speedkfin>TRUE</speedkfin>
																		</keyframe>
																		<keyframe>
																			<when>150</when>
																			<value>165</value>
																			<speedvirtualkf>TRUE</speedvirtualkf>
																			<speedkfout>TRUE</speedkfout>
																		</keyframe>
																		<interpolation>
																			<name>FCPCurve</name>
																		</interpolation>
																	</parameter>
																</effect>
															</filter>
															<filter>
																<effect>
																	<name>Distort</name>
																	<effectid>deformation</effectid>
																	<effectcategory>motion</effectcategory>
																	<effecttype>motion</effecttype>
																	<mediatype>video</mediatype>
																	<parameter authoringApp="PremierePro">
																		<parameterid>aspect</parameterid>
																		<name>Aspect</name>
																		<valuemin>-10000</valuemin>
																		<valuemax>10000</valuemax>
																		<value>-9.36709</value>
																	</parameter>
																</effect>
															</filter>
															<filter>
																<effect>
																	<name>Basic Motion</name>
																	<effectid>basic</effectid>
																	<effectcategory>motion</effectcategory>
																	<effecttype>motion</effecttype>
																	<mediatype>video</mediatype>
																	<parameter authoringApp="PremierePro">
																		<parameterid>scale</parameterid>
																		<name>Scale</name>
																		<value>109.367</value>
																	</parameter>
																</effect>
															</filter>
															<logginginfo>
																<description></description>
																<scene></scene>
																<shottake></shottake>
																<lognote></lognote>
																<good></good>
																<originalvideofilename></originalvideofilename>
																<originalaudiofilename></originalaudiofilename>
															</logginginfo>
															<colorinfo>
																<lut></lut>
																<lut1></lut1>
																<asc_sop></asc_sop>
																<asc_sat></asc_sat>
																<lut2></lut2>
															</colorinfo>
															<labels>
																<label2>Violet</label2>
															</labels>
														</clipitem>
														<enabled>TRUE</enabled>
														<locked>FALSE</locked>
													</track>
													<track TL.SQTrackShy="0" TL.SQTrackExpandedHeight="25" TL.SQTrackExpanded="0" MZ.TrackTargeted="0">
														<enabled>TRUE</enabled>
														<locked>FALSE</locked>
													</track>
													<track TL.SQTrackShy="0" TL.SQTrackExpandedHeight="25" TL.SQTrackExpanded="0" MZ.TrackTargeted="0">
														<enabled>TRUE</enabled>
														<locked>FALSE</locked>
													</track>
													<track TL.SQTrackShy="0" TL.SQTrackExpandedHeight="25" TL.SQTrackExpanded="0" MZ.TrackTargeted="0">
														<enabled>TRUE</enabled>
														<locked>FALSE</locked>
													</track>
													<track TL.SQTrackShy="0" TL.SQTrackExpandedHeight="25" TL.SQTrackExpanded="0" MZ.TrackTargeted="0">
														<enabled>TRUE</enabled>
														<locked>FALSE</locked>
													</track>
													<track TL.SQTrackShy="0" TL.SQTrackExpandedHeight="25" TL.SQTrackExpanded="0" MZ.TrackTargeted="0">
														<enabled>TRUE</enabled>
														<locked>FALSE</locked>
													</track>
													<track TL.SQTrackShy="0" TL.SQTrackExpandedHeight="25" TL.SQTrackExpanded="0" MZ.TrackTargeted="0">
														<enabled>TRUE</enabled>
														<locked>FALSE</locked>
													</track>
													<track TL.SQTrackShy="0" TL.SQTrackExpandedHeight="25" TL.SQTrackExpanded="0" MZ.TrackTargeted="0">
														<enabled>TRUE</enabled>
														<locked>FALSE</locked>
													</track>
													<track TL.SQTrackShy="0" TL.SQTrackExpandedHeight="25" TL.SQTrackExpanded="0" MZ.TrackTargeted="0">
														<enabled>TRUE</enabled>
														<locked>FALSE</locked>
													</track>
													<track TL.SQTrackShy="0" TL.SQTrackExpandedHeight="25" TL.SQTrackExpanded="0" MZ.TrackTargeted="0">
														<enabled>TRUE</enabled>
														<locked>FALSE</locked>
													</track>
												</video>
												<audio>
													<numOutputChannels>2</numOutputChannels>
													<format>
														<samplecharacteristics>
															<depth>16</depth>
															<samplerate>48000</samplerate>
														</samplecharacteristics>
													</format>
													<outputs>
														<group>
															<index>1</index>
															<numchannels>1</numchannels>
															<downmix>0</downmix>
															<channel>
																<index>1</index>
															</channel>
														</group>
														<group>
															<index>2</index>
															<numchannels>1</numchannels>
															<downmix>0</downmix>
															<channel>
																<index>2</index>
															</channel>
														</group>
													</outputs>
													<track TL.SQTrackAudioKeyframeStyle="0" TL.SQTrackShy="0" TL.SQTrackExpandedHeight="25" TL.SQTrackExpanded="0" MZ.TrackTargeted="1" PannerCurrentValue="0.5" PannerIsInverted="true" PannerStartKeyframe="-91445760000000000,0.5,0,0,0,0,0,0" PannerName="Balance" currentExplodedTrackIndex="0" totalExplodedTrackCount="2" premiereTrackType="Stereo">
														<clipitem id="clipitem-139" premiereChannelType="stereo">
															<masterclipid>masterclip-57</masterclipid>
															<name>ES_WHY (Tell Me) (Instrumental Version) - SRA.mp3</name>
															<enabled>TRUE</enabled>
															<duration>5553</duration>
															<rate>
																<timebase>30</timebase>
																<ntsc>TRUE</ntsc>
															</rate>
															<start>0</start>
															<end>1952</end>
															<in>0</in>
															<out>1952</out>
															<pproTicksIn>0</pproTicksIn>
															<pproTicksOut>16544502374400</pproTicksOut>
															<file id="file-47">
																<name>ES_WHY (Tell Me) (Instrumental Version) - SRA.mp3</name>
																<pathurl>file://localhost/Volumes/ATM%201/EYE%20CANDY/8%3a14%3a23/5_Assets/Music/ES_WHY%20(Tell%20Me)%20(Instrumental%20Version)%20-%20SRA.mp3</pathurl>
																<rate>
																	<timebase>30</timebase>
																	<ntsc>TRUE</ntsc>
																</rate>
																<duration>5553</duration>
																<timecode>
																	<rate>
																		<timebase>30</timebase>
																		<ntsc>TRUE</ntsc>
																	</rate>
																	<string>00;00;00;00</string>
																	<frame>0</frame>
																	<displayformat>DF</displayformat>
																</timecode>
																<media>
																	<audio>
																		<samplecharacteristics>
																			<depth>16</depth>
																			<samplerate>48000</samplerate>
																		</samplecharacteristics>
																		<channelcount>2</channelcount>
																	</audio>
																</media>
															</file>
															<sourcetrack>
																<mediatype>audio</mediatype>
																<trackindex>1</trackindex>
															</sourcetrack>
															<link>
																<linkclipref>clipitem-139</linkclipref>
																<mediatype>audio</mediatype>
																<trackindex>1</trackindex>
																<clipindex>1</clipindex>
																<groupindex>1</groupindex>
															</link>
															<link>
																<linkclipref>clipitem-140</linkclipref>
																<mediatype>audio</mediatype>
																<trackindex>2</trackindex>
																<clipindex>1</clipindex>
																<groupindex>1</groupindex>
															</link>
															<logginginfo>
																<description></description>
																<scene></scene>
																<shottake></shottake>
																<lognote></lognote>
																<good></good>
																<originalvideofilename></originalvideofilename>
																<originalaudiofilename></originalaudiofilename>
															</logginginfo>
															<colorinfo>
																<lut></lut>
																<lut1></lut1>
																<asc_sop></asc_sop>
																<asc_sat></asc_sat>
																<lut2></lut2>
															</colorinfo>
															<labels>
																<label2>Caribbean</label2>
															</labels>
														</clipitem>
														<enabled>TRUE</enabled>
														<locked>FALSE</locked>
														<filter>
															<effect>
																<name>Audio Levels</name>
																<effectid>audiolevels</effectid>
																<effectcategory>audiolevels</effectcategory>
																<effecttype>audiolevels</effecttype>
																<mediatype>audio</mediatype>
																<parameter authoringApp="PremierePro">
																	<parameterid>level</parameterid>
																	<name>Level</name>
																	<valuemin>0</valuemin>
																	<valuemax>3.98109</valuemax>
																	<value>0.706272</value>
																</parameter>
															</effect>
														</filter>
														<outputchannelindex>1</outputchannelindex>
													</track>
													<track TL.SQTrackAudioKeyframeStyle="0" TL.SQTrackShy="0" TL.SQTrackExpandedHeight="25" TL.SQTrackExpanded="0" MZ.TrackTargeted="1" PannerCurrentValue="0.5" PannerIsInverted="true" PannerStartKeyframe="-91445760000000000,0.5,0,0,0,0,0,0" PannerName="Balance" currentExplodedTrackIndex="1" totalExplodedTrackCount="2" premiereTrackType="Stereo">
														<clipitem id="clipitem-140" premiereChannelType="stereo">
															<masterclipid>masterclip-57</masterclipid>
															<name>ES_WHY (Tell Me) (Instrumental Version) - SRA.mp3</name>
															<enabled>TRUE</enabled>
															<duration>5553</duration>
															<rate>
																<timebase>30</timebase>
																<ntsc>TRUE</ntsc>
															</rate>
															<start>0</start>
															<end>1952</end>
															<in>0</in>
															<out>1952</out>
															<pproTicksIn>0</pproTicksIn>
															<pproTicksOut>16544502374400</pproTicksOut>
															<file id="file-47"/>
															<sourcetrack>
																<mediatype>audio</mediatype>
																<trackindex>2</trackindex>
															</sourcetrack>
															<link>
																<linkclipref>clipitem-139</linkclipref>
																<mediatype>audio</mediatype>
																<trackindex>1</trackindex>
																<clipindex>1</clipindex>
																<groupindex>1</groupindex>
															</link>
															<link>
																<linkclipref>clipitem-140</linkclipref>
																<mediatype>audio</mediatype>
																<trackindex>2</trackindex>
																<clipindex>1</clipindex>
																<groupindex>1</groupindex>
															</link>
															<logginginfo>
																<description></description>
																<scene></scene>
																<shottake></shottake>
																<lognote></lognote>
																<good></good>
																<originalvideofilename></originalvideofilename>
																<originalaudiofilename></originalaudiofilename>
															</logginginfo>
															<colorinfo>
																<lut></lut>
																<lut1></lut1>
																<asc_sop></asc_sop>
																<asc_sat></asc_sat>
																<lut2></lut2>
															</colorinfo>
															<labels>
																<label2>Caribbean</label2>
															</labels>
														</clipitem>
														<enabled>TRUE</enabled>
														<locked>FALSE</locked>
														<filter>
															<effect>
																<name>Audio Levels</name>
																<effectid>audiolevels</effectid>
																<effectcategory>audiolevels</effectcategory>
																<effecttype>audiolevels</effecttype>
																<mediatype>audio</mediatype>
																<parameter authoringApp="PremierePro">
																	<parameterid>level</parameterid>
																	<name>Level</name>
																	<valuemin>0</valuemin>
																	<valuemax>3.98109</valuemax>
																	<value>0.706272</value>
																</parameter>
															</effect>
														</filter>
														<outputchannelindex>2</outputchannelindex>
													</track>
													<track TL.SQTrackAudioKeyframeStyle="0" TL.SQTrackShy="0" TL.SQTrackExpandedHeight="25" TL.SQTrackExpanded="0" MZ.TrackTargeted="0" PannerCurrentValue="0.5" PannerIsInverted="true" PannerStartKeyframe="-91445760000000000,0.5,0,0,0,0,0,0" PannerName="Balance" currentExplodedTrackIndex="0" totalExplodedTrackCount="2" premiereTrackType="Stereo">
														<enabled>TRUE</enabled>
														<locked>FALSE</locked>
														<outputchannelindex>1</outputchannelindex>
													</track>
													<track TL.SQTrackAudioKeyframeStyle="0" TL.SQTrackShy="0" TL.SQTrackExpandedHeight="25" TL.SQTrackExpanded="0" MZ.TrackTargeted="0" PannerCurrentValue="0.5" PannerIsInverted="true" PannerStartKeyframe="-91445760000000000,0.5,0,0,0,0,0,0" PannerName="Balance" currentExplodedTrackIndex="1" totalExplodedTrackCount="2" premiereTrackType="Stereo">
														<enabled>TRUE</enabled>
														<locked>FALSE</locked>
														<outputchannelindex>2</outputchannelindex>
													</track>
													<track TL.SQTrackAudioKeyframeStyle="0" TL.SQTrackShy="0" TL.SQTrackExpandedHeight="25" TL.SQTrackExpanded="0" MZ.TrackTargeted="0" PannerCurrentValue="0.5" PannerIsInverted="true" PannerStartKeyframe="-91445760000000000,0.5,0,0,0,0,0,0" PannerName="Balance" currentExplodedTrackIndex="0" totalExplodedTrackCount="2" premiereTrackType="Stereo">
														<enabled>TRUE</enabled>
														<locked>FALSE</locked>
														<outputchannelindex>1</outputchannelindex>
													</track>
													<track TL.SQTrackAudioKeyframeStyle="0" TL.SQTrackShy="0" TL.SQTrackExpandedHeight="25" TL.SQTrackExpanded="0" MZ.TrackTargeted="0" PannerCurrentValue="0.5" PannerIsInverted="true" PannerStartKeyframe="-91445760000000000,0.5,0,0,0,0,0,0" PannerName="Balance" currentExplodedTrackIndex="1" totalExplodedTrackCount="2" premiereTrackType="Stereo">
														<enabled>TRUE</enabled>
														<locked>FALSE</locked>
														<outputchannelindex>2</outputchannelindex>
													</track>
													<track TL.SQTrackAudioKeyframeStyle="0" TL.SQTrackShy="0" TL.SQTrackExpandedHeight="25" TL.SQTrackExpanded="0" MZ.TrackTargeted="0" PannerCurrentValue="0.5" PannerIsInverted="true" PannerStartKeyframe="-91445760000000000,0.5,0,0,0,0,0,0" PannerName="Balance" currentExplodedTrackIndex="0" totalExplodedTrackCount="2" premiereTrackType="Stereo">
														<enabled>TRUE</enabled>
														<locked>FALSE</locked>
														<outputchannelindex>1</outputchannelindex>
													</track>
													<track TL.SQTrackAudioKeyframeStyle="0" TL.SQTrackShy="0" TL.SQTrackExpandedHeight="25" TL.SQTrackExpanded="0" MZ.TrackTargeted="0" PannerCurrentValue="0.5" PannerIsInverted="true" PannerStartKeyframe="-91445760000000000,0.5,0,0,0,0,0,0" PannerName="Balance" currentExplodedTrackIndex="1" totalExplodedTrackCount="2" premiereTrackType="Stereo">
														<enabled>TRUE</enabled>
														<locked>FALSE</locked>
														<outputchannelindex>2</outputchannelindex>
													</track>
													<track TL.SQTrackAudioKeyframeStyle="0" TL.SQTrackShy="0" TL.SQTrackExpandedHeight="25" TL.SQTrackExpanded="0" MZ.TrackTargeted="0" PannerCurrentValue="0.5" PannerIsInverted="true" PannerStartKeyframe="-91445760000000000,0.5,0,0,0,0,0,0" PannerName="Balance" currentExplodedTrackIndex="0" totalExplodedTrackCount="2" premiereTrackType="Stereo">
														<enabled>TRUE</enabled>
														<locked>FALSE</locked>
														<outputchannelindex>1</outputchannelindex>
													</track>
													<track TL.SQTrackAudioKeyframeStyle="0" TL.SQTrackShy="0" TL.SQTrackExpandedHeight="25" TL.SQTrackExpanded="0" MZ.TrackTargeted="0" PannerCurrentValue="0.5" PannerIsInverted="true" PannerStartKeyframe="-91445760000000000,0.5,0,0,0,0,0,0" PannerName="Balance" currentExplodedTrackIndex="1" totalExplodedTrackCount="2" premiereTrackType="Stereo">
														<enabled>TRUE</enabled>
														<locked>FALSE</locked>
														<outputchannelindex>2</outputchannelindex>
													</track>
													<track TL.SQTrackAudioKeyframeStyle="0" TL.SQTrackShy="0" TL.SQTrackExpandedHeight="25" TL.SQTrackExpanded="0" MZ.TrackTargeted="0" PannerCurrentValue="0.5" PannerIsInverted="true" PannerStartKeyframe="-91445760000000000,0.5,0,0,0,0,0,0" PannerName="Balance" currentExplodedTrackIndex="0" totalExplodedTrackCount="2" premiereTrackType="Stereo">
														<enabled>TRUE</enabled>
														<locked>FALSE</locked>
														<outputchannelindex>1</outputchannelindex>
													</track>
													<track TL.SQTrackAudioKeyframeStyle="0" TL.SQTrackShy="0" TL.SQTrackExpandedHeight="25" TL.SQTrackExpanded="0" MZ.TrackTargeted="0" PannerCurrentValue="0.5" PannerIsInverted="true" PannerStartKeyframe="-91445760000000000,0.5,0,0,0,0,0,0" PannerName="Balance" currentExplodedTrackIndex="1" totalExplodedTrackCount="2" premiereTrackType="Stereo">
														<enabled>TRUE</enabled>
														<locked>FALSE</locked>
														<outputchannelindex>2</outputchannelindex>
													</track>
													<track TL.SQTrackAudioKeyframeStyle="0" TL.SQTrackShy="0" TL.SQTrackExpandedHeight="25" TL.SQTrackExpanded="0" MZ.TrackTargeted="0" PannerCurrentValue="0.5" PannerIsInverted="true" PannerStartKeyframe="-91445760000000000,0.5,0,0,0,0,0,0" PannerName="Balance" currentExplodedTrackIndex="0" totalExplodedTrackCount="2" premiereTrackType="Stereo">
														<enabled>TRUE</enabled>
														<locked>FALSE</locked>
														<outputchannelindex>1</outputchannelindex>
													</track>
													<track TL.SQTrackAudioKeyframeStyle="0" TL.SQTrackShy="0" TL.SQTrackExpandedHeight="25" TL.SQTrackExpanded="0" MZ.TrackTargeted="0" PannerCurrentValue="0.5" PannerIsInverted="true" PannerStartKeyframe="-91445760000000000,0.5,0,0,0,0,0,0" PannerName="Balance" currentExplodedTrackIndex="1" totalExplodedTrackCount="2" premiereTrackType="Stereo">
														<enabled>TRUE</enabled>
														<locked>FALSE</locked>
														<outputchannelindex>2</outputchannelindex>
													</track>
													<track TL.SQTrackAudioKeyframeStyle="0" TL.SQTrackShy="0" TL.SQTrackExpandedHeight="25" TL.SQTrackExpanded="0" MZ.TrackTargeted="0" PannerCurrentValue="0.5" PannerIsInverted="true" PannerStartKeyframe="-91445760000000000,0.5,0,0,0,0,0,0" PannerName="Balance" currentExplodedTrackIndex="0" totalExplodedTrackCount="2" premiereTrackType="Stereo">
														<enabled>TRUE</enabled>
														<locked>FALSE</locked>
														<outputchannelindex>1</outputchannelindex>
													</track>
													<track TL.SQTrackAudioKeyframeStyle="0" TL.SQTrackShy="0" TL.SQTrackExpandedHeight="25" TL.SQTrackExpanded="0" MZ.TrackTargeted="0" PannerCurrentValue="0.5" PannerIsInverted="true" PannerStartKeyframe="-91445760000000000,0.5,0,0,0,0,0,0" PannerName="Balance" currentExplodedTrackIndex="1" totalExplodedTrackCount="2" premiereTrackType="Stereo">
														<enabled>TRUE</enabled>
														<locked>FALSE</locked>
														<outputchannelindex>2</outputchannelindex>
													</track>
													<track TL.SQTrackAudioKeyframeStyle="0" TL.SQTrackShy="0" TL.SQTrackExpandedHeight="25" TL.SQTrackExpanded="0" MZ.TrackTargeted="0" PannerCurrentValue="0.5" PannerIsInverted="true" PannerStartKeyframe="-91445760000000000,0.5,0,0,0,0,0,0" PannerName="Balance" currentExplodedTrackIndex="0" totalExplodedTrackCount="2" premiereTrackType="Stereo">
														<enabled>TRUE</enabled>
														<locked>FALSE</locked>
														<outputchannelindex>1</outputchannelindex>
													</track>
													<track TL.SQTrackAudioKeyframeStyle="0" TL.SQTrackShy="0" TL.SQTrackExpandedHeight="25" TL.SQTrackExpanded="0" MZ.TrackTargeted="0" PannerCurrentValue="0.5" PannerIsInverted="true" PannerStartKeyframe="-91445760000000000,0.5,0,0,0,0,0,0" PannerName="Balance" currentExplodedTrackIndex="1" totalExplodedTrackCount="2" premiereTrackType="Stereo">
														<enabled>TRUE</enabled>
														<locked>FALSE</locked>
														<outputchannelindex>2</outputchannelindex>
													</track>
													<track TL.SQTrackAudioKeyframeStyle="0" TL.SQTrackShy="0" TL.SQTrackExpandedHeight="25" TL.SQTrackExpanded="0" MZ.TrackTargeted="0" PannerCurrentValue="0.5" PannerIsInverted="true" PannerStartKeyframe="-91445760000000000,0.5,0,0,0,0,0,0" PannerName="Balance" currentExplodedTrackIndex="0" totalExplodedTrackCount="2" premiereTrackType="Stereo">
														<enabled>TRUE</enabled>
														<locked>FALSE</locked>
														<outputchannelindex>1</outputchannelindex>
													</track>
													<track TL.SQTrackAudioKeyframeStyle="0" TL.SQTrackShy="0" TL.SQTrackExpandedHeight="25" TL.SQTrackExpanded="0" MZ.TrackTargeted="0" PannerCurrentValue="0.5" PannerIsInverted="true" PannerStartKeyframe="-91445760000000000,0.5,0,0,0,0,0,0" PannerName="Balance" currentExplodedTrackIndex="1" totalExplodedTrackCount="2" premiereTrackType="Stereo">
														<enabled>TRUE</enabled>
														<locked>FALSE</locked>
														<outputchannelindex>2</outputchannelindex>
													</track>
												</audio>
											</media>
											<timecode>
												<rate>
													<timebase>30</timebase>
													<ntsc>TRUE</ntsc>
												</rate>
												<string>00;00;00;00</string>
												<frame>0</frame>
												<displayformat>DF</displayformat>
											</timecode>
											<logginginfo>
												<description></description>
												<scene></scene>
												<shottake></shottake>
												<lognote></lognote>
												<good></good>
												<originalvideofilename></originalvideofilename>
												<originalaudiofilename></originalaudiofilename>
											</logginginfo>
										</sequence>
										<link>
											<linkclipref>clipitem-126</linkclipref>
											<mediatype>video</mediatype>
											<trackindex>1</trackindex>
											<clipindex>1</clipindex>
										</link>
										<link>
											<linkclipref>clipitem-163</linkclipref>
											<mediatype>audio</mediatype>
											<trackindex>1</trackindex>
											<clipindex>1</clipindex>
											<groupindex>1</groupindex>
										</link>
										<link>
											<linkclipref>clipitem-165</linkclipref>
											<mediatype>audio</mediatype>
											<trackindex>2</trackindex>
											<clipindex>1</clipindex>
											<groupindex>1</groupindex>
										</link>
										<labels>
											<label2>Forest</label2>
										</labels>
									</clipitem>
									<clipitem id="clipitem-141">
										<masterclipid>masterclip-58</masterclipid>
										<name>Way to Go, Oreo!_2</name>
										<enabled>TRUE</enabled>
										<duration>5700</duration>
										<rate>
											<timebase>30</timebase>
											<ntsc>TRUE</ntsc>
										</rate>
										<start>2068</start>
										<end>5575</end>
										<in>0</in>
										<out>3507</out>
										<pproTicksIn>0</pproTicksIn>
										<pproTicksOut>29724164870400</pproTicksOut>
										<sequence id="sequence-14" TL.SQAudioVisibleBase="0" TL.SQVideoVisibleBase="0" TL.SQVisibleBaseTime="21737508281956" TL.SQAVDividerPosition="0.5" TL.SQHideShyTracks="0" TL.SQHeaderWidth="236" TL.SQDataTrackViewControlState="0" Monitor.ProgramZoomOut="29724164870400" Monitor.ProgramZoomIn="0" TL.SQTimePerPixel="0.06737177259384633" AM.TrackVScrollPosition="0" AM.TrackScrollPosition="0" MZ.EditLine="29164770835200" MZ.Sequence.PreviewFrameSizeHeight="1080" MZ.Sequence.PreviewFrameSizeWidth="1920" MZ.Sequence.AudioTimeDisplayFormat="200" MZ.Sequence.PreviewRenderingClassID="1061109567" MZ.Sequence.PreviewRenderingPresetCodec="1634755443" MZ.Sequence.PreviewRenderingPresetPath="EncoderPresets/SequencePreview/35d109db-457b-43c1-9452-9cb7be9f121c/QuickTime.epr" MZ.Sequence.PreviewUseMaxRenderQuality="false" MZ.Sequence.PreviewUseMaxBitDepth="false" MZ.Sequence.EditingModeGUID="35d109db-457b-43c1-9452-9cb7be9f121c" MZ.Sequence.VideoTimeDisplayFormat="102" MZ.WorkOutPoint="1262874412800" MZ.WorkInPoint="0">
											<duration>3507</duration>
											<rate>
												<timebase>30</timebase>
												<ntsc>TRUE</ntsc>
											</rate>
											<name>FND_Way to Go, Oreo!_2</name>
											<media>
												<video>
													<format>
														<samplecharacteristics>
															<rate>
																<timebase>30</timebase>
																<ntsc>TRUE</ntsc>
															</rate>
															<codec>
																<name>Apple ProRes 422</name>
																<appspecificdata>
																	<appname>Final Cut Pro</appname>
																	<appmanufacturer>Apple Inc.</appmanufacturer>
																	<appversion>7.0</appversion>
																	<data>
																		<qtcodec>
																			<codecname>Apple ProRes 422</codecname>
																			<codectypename>Apple ProRes 422</codectypename>
																			<codectypecode>apcn</codectypecode>
																			<codecvendorcode>appl</codecvendorcode>
																			<spatialquality>1024</spatialquality>
																			<temporalquality>0</temporalquality>
																			<keyframerate>0</keyframerate>
																			<datarate>0</datarate>
																		</qtcodec>
																	</data>
																</appspecificdata>
															</codec>
															<width>1920</width>
															<height>1080</height>
															<anamorphic>FALSE</anamorphic>
															<pixelaspectratio>square</pixelaspectratio>
															<fielddominance>none</fielddominance>
															<colordepth>24</colordepth>
														</samplecharacteristics>
													</format>
													<track TL.SQTrackShy="0" TL.SQTrackExpandedHeight="25" TL.SQTrackExpanded="0" MZ.TrackTargeted="1">
														<clipitem id="clipitem-142">
															<masterclipid>masterclip-59</masterclipid>
															<name>(allyoucansweet)_6835030356605897990_TT.mp4</name>
															<enabled>TRUE</enabled>
															<duration>599</duration>
															<rate>
																<timebase>30</timebase>
																<ntsc>TRUE</ntsc>
															</rate>
															<start>0</start>
															<end>532</end>
															<in>0</in>
															<out>532</out>
															<pproTicksIn>0</pproTicksIn>
															<pproTicksOut>4509054950400</pproTicksOut>
															<alphatype>none</alphatype>
															<pixelaspectratio>square</pixelaspectratio>
															<anamorphic>FALSE</anamorphic>
															<file id="file-48">
																<name>(allyoucansweet)_6835030356605897990_TT.mp4</name>
																<pathurl>file://localhost/Volumes/ATM%201/EYE%20CANDY/8%3a14%3a23/3_Raw%20Files/oreo/(allyoucansweet)_6835030356605897990_TT.mp4</pathurl>
																<rate>
																	<timebase>30</timebase>
																	<ntsc>FALSE</ntsc>
																</rate>
																<duration>600</duration>
																<timecode>
																	<rate>
																		<timebase>30</timebase>
																		<ntsc>FALSE</ntsc>
																	</rate>
																	<string>00:00:00:00</string>
																	<frame>0</frame>
																	<displayformat>NDF</displayformat>
																</timecode>
																<media>
																	<video>
																		<samplecharacteristics>
																			<rate>
																				<timebase>30</timebase>
																				<ntsc>FALSE</ntsc>
																			</rate>
																			<width>576</width>
																			<height>1024</height>
																			<anamorphic>FALSE</anamorphic>
																			<pixelaspectratio>square</pixelaspectratio>
																			<fielddominance>none</fielddominance>
																		</samplecharacteristics>
																	</video>
																	<audio>
																		<samplecharacteristics>
																			<depth>16</depth>
																			<samplerate>44100</samplerate>
																		</samplecharacteristics>
																		<channelcount>2</channelcount>
																	</audio>
																</media>
															</file>
															<logginginfo>
																<description></description>
																<scene></scene>
																<shottake></shottake>
																<lognote></lognote>
																<good></good>
																<originalvideofilename></originalvideofilename>
																<originalaudiofilename></originalaudiofilename>
															</logginginfo>
															<colorinfo>
																<lut></lut>
																<lut1></lut1>
																<asc_sop></asc_sop>
																<asc_sat></asc_sat>
																<lut2></lut2>
															</colorinfo>
															<labels>
																<label2>Violet</label2>
															</labels>
														</clipitem>
														<clipitem id="clipitem-143">
															<masterclipid>masterclip-60</masterclipid>
															<name>(Charlie Smark)_Making Issy’s fav drink on the menu! #dollysdesserts_2goCLkwSPH4_YT.mp4</name>
															<enabled>TRUE</enabled>
															<duration>1058</duration>
															<rate>
																<timebase>30</timebase>
																<ntsc>TRUE</ntsc>
															</rate>
															<start>532</start>
															<end>843</end>
															<in>82</in>
															<out>393</out>
															<pproTicksIn>695004710400</pproTicksIn>
															<pproTicksOut>3330937209600</pproTicksOut>
															<alphatype>none</alphatype>
															<pixelaspectratio>square</pixelaspectratio>
															<anamorphic>FALSE</anamorphic>
															<file id="file-49">
																<name>(Charlie Smark)_Making Issy’s fav drink on the menu! #dollysdesserts_2goCLkwSPH4_YT.mp4</name>
																<pathurl>file://localhost/Volumes/ATM%201/EYE%20CANDY/8%3a14%3a23/3_Raw%20Files/oreo/(Charlie%20Smark)_Making%20Issy%e2%80%99s%20fav%20drink%20on%20the%20menu!%20#dollysdesserts_2goCLkwSPH4_YT.mp4</pathurl>
																<rate>
																	<timebase>30</timebase>
																	<ntsc>FALSE</ntsc>
																</rate>
																<duration>1060</duration>
																<timecode>
																	<rate>
																		<timebase>30</timebase>
																		<ntsc>FALSE</ntsc>
																	</rate>
																	<string>00:00:00:00</string>
																	<frame>0</frame>
																	<displayformat>NDF</displayformat>
																</timecode>
																<media>
																	<video>
																		<samplecharacteristics>
																			<rate>
																				<timebase>30</timebase>
																				<ntsc>FALSE</ntsc>
																			</rate>
																			<width>720</width>
																			<height>1280</height>
																			<anamorphic>FALSE</anamorphic>
																			<pixelaspectratio>square</pixelaspectratio>
																			<fielddominance>none</fielddominance>
																		</samplecharacteristics>
																	</video>
																	<audio>
																		<samplecharacteristics>
																			<depth>16</depth>
																			<samplerate>44100</samplerate>
																		</samplecharacteristics>
																		<channelcount>2</channelcount>
																	</audio>
																</media>
															</file>
															<logginginfo>
																<description></description>
																<scene></scene>
																<shottake></shottake>
																<lognote></lognote>
																<good></good>
																<originalvideofilename></originalvideofilename>
																<originalaudiofilename></originalaudiofilename>
															</logginginfo>
															<colorinfo>
																<lut></lut>
																<lut1></lut1>
																<asc_sop></asc_sop>
																<asc_sat></asc_sat>
																<lut2></lut2>
															</colorinfo>
															<labels>
																<label2>Violet</label2>
															</labels>
														</clipitem>
														<clipitem id="clipitem-144">
															<masterclipid>masterclip-60</masterclipid>
															<name>(Charlie Smark)_Making Issy’s fav drink on the menu! #dollysdesserts_2goCLkwSPH4_YT.mp4</name>
															<enabled>TRUE</enabled>
															<duration>1058</duration>
															<rate>
																<timebase>30</timebase>
																<ntsc>TRUE</ntsc>
															</rate>
															<start>843</start>
															<end>1072</end>
															<in>507</in>
															<out>736</out>
															<pproTicksIn>4297163270400</pproTicksIn>
															<pproTicksOut>6238091059200</pproTicksOut>
															<alphatype>none</alphatype>
															<file id="file-49"/>
															<logginginfo>
																<description></description>
																<scene></scene>
																<shottake></shottake>
																<lognote></lognote>
																<good></good>
																<originalvideofilename></originalvideofilename>
																<originalaudiofilename></originalaudiofilename>
															</logginginfo>
															<colorinfo>
																<lut></lut>
																<lut1></lut1>
																<asc_sop></asc_sop>
																<asc_sat></asc_sat>
																<lut2></lut2>
															</colorinfo>
															<labels>
																<label2>Violet</label2>
															</labels>
														</clipitem>
														<clipitem id="clipitem-145">
															<masterclipid>masterclip-61</masterclipid>
															<name>(candidtreatofficial)_COb7dUOgnBc_IG.mp4</name>
															<enabled>TRUE</enabled>
															<duration>750</duration>
															<rate>
																<timebase>30</timebase>
																<ntsc>TRUE</ntsc>
															</rate>
															<start>1072</start>
															<end>1765</end>
															<in>57</in>
															<out>749</out>
															<pproTicksIn>576345369600</pproTicksIn>
															<pproTicksOut>7624710213120</pproTicksOut>
															<alphatype>none</alphatype>
															<pixelaspectratio>square</pixelaspectratio>
															<anamorphic>FALSE</anamorphic>
															<file id="file-50">
																<name>(candidtreatofficial)_COb7dUOgnBc_IG.mp4</name>
																<pathurl>file://localhost/Volumes/ATM%201/EYE%20CANDY/8%3a14%3a23/3_Raw%20Files/oreo/(candidtreatofficial)_COb7dUOgnBc_IG.mp4</pathurl>
																<rate>
																	<timebase>30</timebase>
																	<ntsc>FALSE</ntsc>
																</rate>
																<duration>901</duration>
																<timecode>
																	<rate>
																		<timebase>30</timebase>
																		<ntsc>FALSE</ntsc>
																	</rate>
																	<string>00:00:00:00</string>
																	<frame>0</frame>
																	<displayformat>NDF</displayformat>
																</timecode>
																<media>
																	<video>
																		<samplecharacteristics>
																			<rate>
																				<timebase>30</timebase>
																				<ntsc>FALSE</ntsc>
																			</rate>
																			<width>720</width>
																			<height>1280</height>
																			<anamorphic>FALSE</anamorphic>
																			<pixelaspectratio>square</pixelaspectratio>
																			<fielddominance>none</fielddominance>
																		</samplecharacteristics>
																	</video>
																	<audio>
																		<samplecharacteristics>
																			<depth>16</depth>
																			<samplerate>48000</samplerate>
																		</samplecharacteristics>
																		<channelcount>2</channelcount>
																	</audio>
																</media>
															</file>
															<filter>
																<effect>
																	<name>Time Remap</name>
																	<effectid>timeremap</effectid>
																	<effectcategory>motion</effectcategory>
																	<effecttype>motion</effecttype>
																	<mediatype>video</mediatype>
																	<parameter authoringApp="PremierePro">
																		<parameterid>variablespeed</parameterid>
																		<name>variablespeed</name>
																		<valuemin>0</valuemin>
																		<valuemax>1</valuemax>
																		<value>0</value>
																	</parameter>
																	<parameter authoringApp="PremierePro">
																		<parameterid>speed</parameterid>
																		<name>speed</name>
																		<valuemin>-100000</valuemin>
																		<valuemax>100000</valuemax>
																		<value>120</value>
																	</parameter>
																	<parameter authoringApp="PremierePro">
																		<parameterid>reverse</parameterid>
																		<name>reverse</name>
																		<value>FALSE</value>
																	</parameter>
																	<parameter authoringApp="PremierePro">
																		<parameterid>frameblending</parameterid>
																		<name>frameblending</name>
																		<value>FALSE</value>
																	</parameter>
																	<parameter authoringApp="PremierePro">
																		<parameterid>graphdict</parameterid>
																		<name>graphdict</name>
																		<valuemin>0</valuemin>
																		<valuemax>900</valuemax>
																		<value>0</value>
																		<keyframe>
																			<when>0</when>
																			<value>0</value>
																			<speedvirtualkf>TRUE</speedvirtualkf>
																			<speedkfstart>TRUE</speedkfstart>
																		</keyframe>
																		<keyframe>
																			<when>57</when>
																			<value>68</value>
																			<speedvirtualkf>TRUE</speedvirtualkf>
																			<speedkfin>TRUE</speedkfin>
																		</keyframe>
																		<keyframe>
																			<when>749</when>
																			<value>898</value>
																			<speedvirtualkf>TRUE</speedvirtualkf>
																			<speedkfout>TRUE</speedkfout>
																		</keyframe>
																		<keyframe>
																			<when>750</when>
																			<value>900</value>
																			<speedvirtualkf>TRUE</speedvirtualkf>
																			<speedkfend>TRUE</speedkfend>
																		</keyframe>
																		<interpolation>
																			<name>FCPCurve</name>
																		</interpolation>
																	</parameter>
																</effect>
															</filter>
															<logginginfo>
																<description></description>
																<scene></scene>
																<shottake></shottake>
																<lognote></lognote>
																<good></good>
																<originalvideofilename></originalvideofilename>
																<originalaudiofilename></originalaudiofilename>
															</logginginfo>
															<colorinfo>
																<lut></lut>
																<lut1></lut1>
																<asc_sop></asc_sop>
																<asc_sat></asc_sat>
																<lut2></lut2>
															</colorinfo>
															<labels>
																<label2>Violet</label2>
															</labels>
														</clipitem>
														<clipitem id="clipitem-146">
															<masterclipid>masterclip-62</masterclipid>
															<name>(succulentbite)_CNaNDo1FLXA_IG.mp4</name>
															<enabled>TRUE</enabled>
															<duration>553</duration>
															<rate>
																<timebase>30</timebase>
																<ntsc>TRUE</ntsc>
															</rate>
															<start>1765</start>
															<end>2318</end>
															<in>0</in>
															<out>553</out>
															<pproTicksIn>0</pproTicksIn>
															<pproTicksOut>4687043961600</pproTicksOut>
															<alphatype>none</alphatype>
															<pixelaspectratio>square</pixelaspectratio>
															<anamorphic>FALSE</anamorphic>
															<file id="file-51">
																<name>(succulentbite)_CNaNDo1FLXA_IG.mp4</name>
																<pathurl>file://localhost/Volumes/ATM%201/EYE%20CANDY/8%3a14%3a23/3_Raw%20Files/oreo/(succulentbite)_CNaNDo1FLXA_IG.mp4</pathurl>
																<rate>
																	<timebase>30</timebase>
																	<ntsc>FALSE</ntsc>
																</rate>
																<duration>554</duration>
																<timecode>
																	<rate>
																		<timebase>30</timebase>
																		<ntsc>FALSE</ntsc>
																	</rate>
																	<string>00:00:00:00</string>
																	<frame>0</frame>
																	<displayformat>NDF</displayformat>
																</timecode>
																<media>
																	<video>
																		<samplecharacteristics>
																			<rate>
																				<timebase>30</timebase>
																				<ntsc>FALSE</ntsc>
																			</rate>
																			<width>720</width>
																			<height>1280</height>
																			<anamorphic>FALSE</anamorphic>
																			<pixelaspectratio>square</pixelaspectratio>
																			<fielddominance>none</fielddominance>
																		</samplecharacteristics>
																	</video>
																	<audio>
																		<samplecharacteristics>
																			<depth>16</depth>
																			<samplerate>44100</samplerate>
																		</samplecharacteristics>
																		<channelcount>2</channelcount>
																	</audio>
																</media>
															</file>
															<logginginfo>
																<description></description>
																<scene></scene>
																<shottake></shottake>
																<lognote></lognote>
																<good></good>
																<originalvideofilename></originalvideofilename>
																<originalaudiofilename></originalaudiofilename>
															</logginginfo>
															<colorinfo>
																<lut></lut>
																<lut1></lut1>
																<asc_sop></asc_sop>
																<asc_sat></asc_sat>
																<lut2></lut2>
															</colorinfo>
															<labels>
																<label2>Violet</label2>
															</labels>
														</clipitem>
														<clipitem id="clipitem-147">
															<masterclipid>masterclip-63</masterclipid>
															<name>(tastyselly)_CU5sN0-AGmu_IG.mp4</name>
															<enabled>TRUE</enabled>
															<duration>691</duration>
															<rate>
																<timebase>30</timebase>
																<ntsc>TRUE</ntsc>
															</rate>
															<start>2318</start>
															<end>2899</end>
															<in>110</in>
															<out>691</out>
															<pproTicksIn>932323392000</pproTicksIn>
															<pproTicksOut>5856686035200</pproTicksOut>
															<alphatype>none</alphatype>
															<pixelaspectratio>square</pixelaspectratio>
															<anamorphic>FALSE</anamorphic>
															<file id="file-52">
																<name>(tastyselly)_CU5sN0-AGmu_IG.mp4</name>
																<pathurl>file://localhost/Volumes/ATM%201/EYE%20CANDY/8%3a14%3a23/3_Raw%20Files/oreo/(tastyselly)_CU5sN0-AGmu_IG.mp4</pathurl>
																<rate>
																	<timebase>30</timebase>
																	<ntsc>FALSE</ntsc>
																</rate>
																<duration>692</duration>
																<timecode>
																	<rate>
																		<timebase>30</timebase>
																		<ntsc>FALSE</ntsc>
																	</rate>
																	<string>00:00:00:00</string>
																	<frame>0</frame>
																	<displayformat>NDF</displayformat>
																</timecode>
																<media>
																	<video>
																		<samplecharacteristics>
																			<rate>
																				<timebase>30</timebase>
																				<ntsc>FALSE</ntsc>
																			</rate>
																			<width>720</width>
																			<height>1280</height>
																			<anamorphic>FALSE</anamorphic>
																			<pixelaspectratio>square</pixelaspectratio>
																			<fielddominance>none</fielddominance>
																		</samplecharacteristics>
																	</video>
																	<audio>
																		<samplecharacteristics>
																			<depth>16</depth>
																			<samplerate>44100</samplerate>
																		</samplecharacteristics>
																		<channelcount>2</channelcount>
																	</audio>
																</media>
															</file>
															<logginginfo>
																<description></description>
																<scene></scene>
																<shottake></shottake>
																<lognote></lognote>
																<good></good>
																<originalvideofilename></originalvideofilename>
																<originalaudiofilename></originalaudiofilename>
															</logginginfo>
															<colorinfo>
																<lut></lut>
																<lut1></lut1>
																<asc_sop></asc_sop>
																<asc_sat></asc_sat>
																<lut2></lut2>
															</colorinfo>
															<labels>
																<label2>Violet</label2>
															</labels>
														</clipitem>
														<clipitem id="clipitem-148">
															<masterclipid>masterclip-64</masterclipid>
															<name>(sugarandsparrowco)_Cn7PlHyJ1CR_IG.mp4</name>
															<enabled>TRUE</enabled>
															<duration>687</duration>
															<rate>
																<timebase>30</timebase>
																<ntsc>TRUE</ntsc>
															</rate>
															<start>2899</start>
															<end>3507</end>
															<in>79</in>
															<out>687</out>
															<pproTicksIn>669577708800</pproTicksIn>
															<pproTicksOut>5822783366400</pproTicksOut>
															<alphatype>none</alphatype>
															<pixelaspectratio>square</pixelaspectratio>
															<anamorphic>FALSE</anamorphic>
															<file id="file-53">
																<name>(sugarandsparrowco)_Cn7PlHyJ1CR_IG.mp4</name>
																<pathurl>file://localhost/Volumes/ATM%201/EYE%20CANDY/8%3a14%3a23/3_Raw%20Files/oreo/(sugarandsparrowco)_Cn7PlHyJ1CR_IG.mp4</pathurl>
																<rate>
																	<timebase>30</timebase>
																	<ntsc>FALSE</ntsc>
																</rate>
																<duration>688</duration>
																<timecode>
																	<rate>
																		<timebase>30</timebase>
																		<ntsc>FALSE</ntsc>
																	</rate>
																	<string>00:00:00:00</string>
																	<frame>0</frame>
																	<displayformat>NDF</displayformat>
																</timecode>
																<media>
																	<video>
																		<samplecharacteristics>
																			<rate>
																				<timebase>30</timebase>
																				<ntsc>FALSE</ntsc>
																			</rate>
																			<width>720</width>
																			<height>1280</height>
																			<anamorphic>FALSE</anamorphic>
																			<pixelaspectratio>square</pixelaspectratio>
																			<fielddominance>none</fielddominance>
																		</samplecharacteristics>
																	</video>
																	<audio>
																		<samplecharacteristics>
																			<depth>16</depth>
																			<samplerate>44100</samplerate>
																		</samplecharacteristics>
																		<channelcount>2</channelcount>
																	</audio>
																</media>
															</file>
															<logginginfo>
																<description></description>
																<scene></scene>
																<shottake></shottake>
																<lognote></lognote>
																<good></good>
																<originalvideofilename></originalvideofilename>
																<originalaudiofilename></originalaudiofilename>
															</logginginfo>
															<colorinfo>
																<lut></lut>
																<lut1></lut1>
																<asc_sop></asc_sop>
																<asc_sat></asc_sat>
																<lut2></lut2>
															</colorinfo>
															<labels>
																<label2>Violet</label2>
															</labels>
														</clipitem>
														<enabled>TRUE</enabled>
														<locked>FALSE</locked>
													</track>
													<track TL.SQTrackShy="0" TL.SQTrackExpandedHeight="25" TL.SQTrackExpanded="0" MZ.TrackTargeted="0">
														<clipitem id="clipitem-149">
															<masterclipid>masterclip-65</masterclipid>
															<name># Eyecandy Vertical Video Frame 3</name>
															<enabled>TRUE</enabled>
															<duration>5700</duration>
															<rate>
																<timebase>30</timebase>
																<ntsc>TRUE</ntsc>
															</rate>
															<start>0</start>
															<end>532</end>
															<in>177</in>
															<out>709</out>
															<pproTicksIn>1500193094400</pproTicksIn>
															<pproTicksOut>6009248044800</pproTicksOut>
															<alphatype>straight</alphatype>
															<pixelaspectratio>square</pixelaspectratio>
															<anamorphic>FALSE</anamorphic>
															<file id="file-54">
																<name># Eyecandy Vertical Video Frame 3/# Eyecandy Vertical Video Frame 3.aegraphic</name>
																<pathurl>file://localhost/Volumes/ATM%201/EYE%20CANDY/8%3a14%3a23/4_Project%20Files/Motion%20Graphics%20Template%20Media/a986b071-94ef-42a8-9c31-87ffc7368644/#%20Eyecandy%20Vertical%20Video%20Frame%203.aegraphic</pathurl>
																<rate>
																	<timebase>24</timebase>
																	<ntsc>TRUE</ntsc>
																</rate>
																<duration>4560</duration>
																<timecode>
																	<rate>
																		<timebase>24</timebase>
																		<ntsc>TRUE</ntsc>
																	</rate>
																	<string>00:00:00:00</string>
																	<frame>0</frame>
																	<displayformat>NDF</displayformat>
																</timecode>
																<media>
																	<video>
																		<samplecharacteristics>
																			<rate>
																				<timebase>24</timebase>
																				<ntsc>TRUE</ntsc>
																			</rate>
																			<width>1920</width>
																			<height>1080</height>
																			<anamorphic>FALSE</anamorphic>
																			<pixelaspectratio>square</pixelaspectratio>
																			<fielddominance>lower</fielddominance>
																		</samplecharacteristics>
																	</video>
																</media>
															</file>
															<logginginfo>
																<description></description>
																<scene></scene>
																<shottake></shottake>
																<lognote></lognote>
																<good></good>
																<originalvideofilename></originalvideofilename>
																<originalaudiofilename></originalaudiofilename>
															</logginginfo>
															<colorinfo>
																<lut></lut>
																<lut1></lut1>
																<asc_sop></asc_sop>
																<asc_sat></asc_sat>
																<lut2></lut2>
															</colorinfo>
															<labels>
																<label2>Teal</label2>
															</labels>
														</clipitem>
														<clipitem id="clipitem-150">
															<masterclipid>masterclip-65</masterclipid>
															<name># Eyecandy Vertical Video Frame 3</name>
															<enabled>TRUE</enabled>
															<duration>5700</duration>
															<rate>
																<timebase>30</timebase>
																<ntsc>TRUE</ntsc>
															</rate>
															<start>532</start>
															<end>1072</end>
															<in>709</in>
															<out>1249</out>
															<pproTicksIn>6009248044800</pproTicksIn>
															<pproTicksOut>10586108332800</pproTicksOut>
															<alphatype>straight</alphatype>
															<file id="file-54"/>
															<logginginfo>
																<description></description>
																<scene></scene>
																<shottake></shottake>
																<lognote></lognote>
																<good></good>
																<originalvideofilename></originalvideofilename>
																<originalaudiofilename></originalaudiofilename>
															</logginginfo>
															<colorinfo>
																<lut></lut>
																<lut1></lut1>
																<asc_sop></asc_sop>
																<asc_sat></asc_sat>
																<lut2></lut2>
															</colorinfo>
															<labels>
																<label2>Teal</label2>
															</labels>
														</clipitem>
														<clipitem id="clipitem-151">
															<masterclipid>masterclip-65</masterclipid>
															<name># Eyecandy Vertical Video Frame 3</name>
															<enabled>TRUE</enabled>
															<duration>5700</duration>
															<rate>
																<timebase>30</timebase>
																<ntsc>TRUE</ntsc>
															</rate>
															<start>1072</start>
															<end>1765</end>
															<in>1249</in>
															<out>1942</out>
															<pproTicksIn>10586108332800</pproTicksIn>
															<pproTicksOut>16459745702400</pproTicksOut>
															<alphatype>straight</alphatype>
															<file id="file-54"/>
															<logginginfo>
																<description></description>
																<scene></scene>
																<shottake></shottake>
																<lognote></lognote>
																<good></good>
																<originalvideofilename></originalvideofilename>
																<originalaudiofilename></originalaudiofilename>
															</logginginfo>
															<colorinfo>
																<lut></lut>
																<lut1></lut1>
																<asc_sop></asc_sop>
																<asc_sat></asc_sat>
																<lut2></lut2>
															</colorinfo>
															<labels>
																<label2>Teal</label2>
															</labels>
														</clipitem>
														<clipitem id="clipitem-152">
															<masterclipid>masterclip-65</masterclipid>
															<name># Eyecandy Vertical Video Frame 3</name>
															<enabled>TRUE</enabled>
															<duration>5700</duration>
															<rate>
																<timebase>30</timebase>
																<ntsc>TRUE</ntsc>
															</rate>
															<start>1765</start>
															<end>2318</end>
															<in>1942</in>
															<out>2495</out>
															<pproTicksIn>16459745702400</pproTicksIn>
															<pproTicksOut>21146789664000</pproTicksOut>
															<alphatype>straight</alphatype>
															<file id="file-54"/>
															<logginginfo>
																<description></description>
																<scene></scene>
																<shottake></shottake>
																<lognote></lognote>
																<good></good>
																<originalvideofilename></originalvideofilename>
																<originalaudiofilename></originalaudiofilename>
															</logginginfo>
															<colorinfo>
																<lut></lut>
																<lut1></lut1>
																<asc_sop></asc_sop>
																<asc_sat></asc_sat>
																<lut2></lut2>
															</colorinfo>
															<labels>
																<label2>Teal</label2>
															</labels>
														</clipitem>
														<clipitem id="clipitem-153">
															<masterclipid>masterclip-65</masterclipid>
															<name># Eyecandy Vertical Video Frame 3</name>
															<enabled>TRUE</enabled>
															<duration>5700</duration>
															<rate>
																<timebase>30</timebase>
																<ntsc>TRUE</ntsc>
															</rate>
															<start>2318</start>
															<end>2899</end>
															<in>2495</in>
															<out>3076</out>
															<pproTicksIn>21146789664000</pproTicksIn>
															<pproTicksOut>26071152307200</pproTicksOut>
															<alphatype>straight</alphatype>
															<file id="file-54"/>
															<logginginfo>
																<description></description>
																<scene></scene>
																<shottake></shottake>
																<lognote></lognote>
																<good></good>
																<originalvideofilename></originalvideofilename>
																<originalaudiofilename></originalaudiofilename>
															</logginginfo>
															<colorinfo>
																<lut></lut>
																<lut1></lut1>
																<asc_sop></asc_sop>
																<asc_sat></asc_sat>
																<lut2></lut2>
															</colorinfo>
															<labels>
																<label2>Teal</label2>
															</labels>
														</clipitem>
														<clipitem id="clipitem-154">
															<masterclipid>masterclip-65</masterclipid>
															<name># Eyecandy Vertical Video Frame 3</name>
															<enabled>TRUE</enabled>
															<duration>5700</duration>
															<rate>
																<timebase>30</timebase>
																<ntsc>TRUE</ntsc>
															</rate>
															<start>2899</start>
															<end>3507</end>
															<in>3076</in>
															<out>3684</out>
															<pproTicksIn>26071152307200</pproTicksIn>
															<pproTicksOut>31224357964800</pproTicksOut>
															<alphatype>straight</alphatype>
															<file id="file-54"/>
															<logginginfo>
																<description></description>
																<scene></scene>
																<shottake></shottake>
																<lognote></lognote>
																<good></good>
																<originalvideofilename></originalvideofilename>
																<originalaudiofilename></originalaudiofilename>
															</logginginfo>
															<colorinfo>
																<lut></lut>
																<lut1></lut1>
																<asc_sop></asc_sop>
																<asc_sat></asc_sat>
																<lut2></lut2>
															</colorinfo>
															<labels>
																<label2>Teal</label2>
															</labels>
														</clipitem>
														<enabled>TRUE</enabled>
														<locked>FALSE</locked>
													</track>
													<track TL.SQTrackShy="0" TL.SQTrackExpandedHeight="25" TL.SQTrackExpanded="0" MZ.TrackTargeted="0">
														<enabled>TRUE</enabled>
														<locked>FALSE</locked>
													</track>
													<track TL.SQTrackShy="0" TL.SQTrackExpandedHeight="25" TL.SQTrackExpanded="0" MZ.TrackTargeted="0">
														<enabled>TRUE</enabled>
														<locked>FALSE</locked>
													</track>
													<track TL.SQTrackShy="0" TL.SQTrackExpandedHeight="25" TL.SQTrackExpanded="0" MZ.TrackTargeted="0">
														<enabled>TRUE</enabled>
														<locked>FALSE</locked>
													</track>
													<track TL.SQTrackShy="0" TL.SQTrackExpandedHeight="25" TL.SQTrackExpanded="0" MZ.TrackTargeted="0">
														<enabled>TRUE</enabled>
														<locked>FALSE</locked>
													</track>
													<track TL.SQTrackShy="0" TL.SQTrackExpandedHeight="25" TL.SQTrackExpanded="0" MZ.TrackTargeted="0">
														<enabled>TRUE</enabled>
														<locked>FALSE</locked>
													</track>
													<track TL.SQTrackShy="0" TL.SQTrackExpandedHeight="25" TL.SQTrackExpanded="0" MZ.TrackTargeted="0">
														<enabled>TRUE</enabled>
														<locked>FALSE</locked>
													</track>
													<track TL.SQTrackShy="0" TL.SQTrackExpandedHeight="25" TL.SQTrackExpanded="0" MZ.TrackTargeted="0">
														<enabled>TRUE</enabled>
														<locked>FALSE</locked>
													</track>
													<track TL.SQTrackShy="0" TL.SQTrackExpandedHeight="25" TL.SQTrackExpanded="0" MZ.TrackTargeted="0">
														<enabled>TRUE</enabled>
														<locked>FALSE</locked>
													</track>
												</video>
												<audio>
													<numOutputChannels>2</numOutputChannels>
													<format>
														<samplecharacteristics>
															<depth>16</depth>
															<samplerate>48000</samplerate>
														</samplecharacteristics>
													</format>
													<outputs>
														<group>
															<index>1</index>
															<numchannels>1</numchannels>
															<downmix>0</downmix>
															<channel>
																<index>1</index>
															</channel>
														</group>
														<group>
															<index>2</index>
															<numchannels>1</numchannels>
															<downmix>0</downmix>
															<channel>
																<index>2</index>
															</channel>
														</group>
													</outputs>
													<track TL.SQTrackAudioKeyframeStyle="0" TL.SQTrackShy="0" TL.SQTrackExpandedHeight="25" TL.SQTrackExpanded="0" MZ.TrackTargeted="1" PannerCurrentValue="0.5" PannerIsInverted="true" PannerStartKeyframe="-91445760000000000,0.5,0,0,0,0,0,0" PannerName="Balance" currentExplodedTrackIndex="0" totalExplodedTrackCount="2" premiereTrackType="Stereo">
														<clipitem id="clipitem-155" premiereChannelType="stereo">
															<masterclipid>masterclip-66</masterclipid>
															<name>ES_Arcadewave - Lupus Nocte.mp3</name>
															<enabled>TRUE</enabled>
															<duration>4644</duration>
															<rate>
																<timebase>30</timebase>
																<ntsc>TRUE</ntsc>
															</rate>
															<start>0</start>
															<end>3507</end>
															<in>0</in>
															<out>3507</out>
															<pproTicksIn>0</pproTicksIn>
															<pproTicksOut>29724164870400</pproTicksOut>
															<file id="file-55">
																<name>ES_Arcadewave - Lupus Nocte.mp3</name>
																<pathurl>file://localhost/Volumes/ATM%201/EYE%20CANDY/8%3a14%3a23/5_Assets/Music/ES_Arcadewave%20-%20Lupus%20Nocte.mp3</pathurl>
																<rate>
																	<timebase>30</timebase>
																	<ntsc>TRUE</ntsc>
																</rate>
																<duration>4644</duration>
																<timecode>
																	<rate>
																		<timebase>30</timebase>
																		<ntsc>TRUE</ntsc>
																	</rate>
																	<string>00;00;00;00</string>
																	<frame>0</frame>
																	<displayformat>DF</displayformat>
																</timecode>
																<media>
																	<audio>
																		<samplecharacteristics>
																			<depth>16</depth>
																			<samplerate>48000</samplerate>
																		</samplecharacteristics>
																		<channelcount>2</channelcount>
																	</audio>
																</media>
															</file>
															<sourcetrack>
																<mediatype>audio</mediatype>
																<trackindex>1</trackindex>
															</sourcetrack>
															<link>
																<linkclipref>clipitem-155</linkclipref>
																<mediatype>audio</mediatype>
																<trackindex>1</trackindex>
																<clipindex>1</clipindex>
																<groupindex>1</groupindex>
															</link>
															<link>
																<linkclipref>clipitem-156</linkclipref>
																<mediatype>audio</mediatype>
																<trackindex>2</trackindex>
																<clipindex>1</clipindex>
																<groupindex>1</groupindex>
															</link>
															<logginginfo>
																<description></description>
																<scene></scene>
																<shottake></shottake>
																<lognote></lognote>
																<good></good>
																<originalvideofilename></originalvideofilename>
																<originalaudiofilename></originalaudiofilename>
															</logginginfo>
															<colorinfo>
																<lut></lut>
																<lut1></lut1>
																<asc_sop></asc_sop>
																<asc_sat></asc_sat>
																<lut2></lut2>
															</colorinfo>
															<labels>
																<label2>Caribbean</label2>
															</labels>
														</clipitem>
														<enabled>TRUE</enabled>
														<locked>FALSE</locked>
														<filter>
															<effect>
																<name>Audio Levels</name>
																<effectid>audiolevels</effectid>
																<effectcategory>audiolevels</effectcategory>
																<effecttype>audiolevels</effecttype>
																<mediatype>audio</mediatype>
																<parameter authoringApp="PremierePro">
																	<parameterid>level</parameterid>
																	<name>Level</name>
																	<valuemin>0</valuemin>
																	<valuemax>3.98109</valuemax>
																	<value>0.706272</value>
																</parameter>
															</effect>
														</filter>
														<outputchannelindex>1</outputchannelindex>
													</track>
													<track TL.SQTrackAudioKeyframeStyle="0" TL.SQTrackShy="0" TL.SQTrackExpandedHeight="25" TL.SQTrackExpanded="0" MZ.TrackTargeted="1" PannerCurrentValue="0.5" PannerIsInverted="true" PannerStartKeyframe="-91445760000000000,0.5,0,0,0,0,0,0" PannerName="Balance" currentExplodedTrackIndex="1" totalExplodedTrackCount="2" premiereTrackType="Stereo">
														<clipitem id="clipitem-156" premiereChannelType="stereo">
															<masterclipid>masterclip-66</masterclipid>
															<name>ES_Arcadewave - Lupus Nocte.mp3</name>
															<enabled>TRUE</enabled>
															<duration>4644</duration>
															<rate>
																<timebase>30</timebase>
																<ntsc>TRUE</ntsc>
															</rate>
															<start>0</start>
															<end>3507</end>
															<in>0</in>
															<out>3507</out>
															<pproTicksIn>0</pproTicksIn>
															<pproTicksOut>29724164870400</pproTicksOut>
															<file id="file-55"/>
															<sourcetrack>
																<mediatype>audio</mediatype>
																<trackindex>2</trackindex>
															</sourcetrack>
															<link>
																<linkclipref>clipitem-155</linkclipref>
																<mediatype>audio</mediatype>
																<trackindex>1</trackindex>
																<clipindex>1</clipindex>
																<groupindex>1</groupindex>
															</link>
															<link>
																<linkclipref>clipitem-156</linkclipref>
																<mediatype>audio</mediatype>
																<trackindex>2</trackindex>
																<clipindex>1</clipindex>
																<groupindex>1</groupindex>
															</link>
															<logginginfo>
																<description></description>
																<scene></scene>
																<shottake></shottake>
																<lognote></lognote>
																<good></good>
																<originalvideofilename></originalvideofilename>
																<originalaudiofilename></originalaudiofilename>
															</logginginfo>
															<colorinfo>
																<lut></lut>
																<lut1></lut1>
																<asc_sop></asc_sop>
																<asc_sat></asc_sat>
																<lut2></lut2>
															</colorinfo>
															<labels>
																<label2>Caribbean</label2>
															</labels>
														</clipitem>
														<enabled>TRUE</enabled>
														<locked>FALSE</locked>
														<filter>
															<effect>
																<name>Audio Levels</name>
																<effectid>audiolevels</effectid>
																<effectcategory>audiolevels</effectcategory>
																<effecttype>audiolevels</effecttype>
																<mediatype>audio</mediatype>
																<parameter authoringApp="PremierePro">
																	<parameterid>level</parameterid>
																	<name>Level</name>
																	<valuemin>0</valuemin>
																	<valuemax>3.98109</valuemax>
																	<value>0.706272</value>
																</parameter>
															</effect>
														</filter>
														<outputchannelindex>2</outputchannelindex>
													</track>
													<track TL.SQTrackAudioKeyframeStyle="0" TL.SQTrackShy="0" TL.SQTrackExpandedHeight="25" TL.SQTrackExpanded="0" MZ.TrackTargeted="0" PannerCurrentValue="0.5" PannerIsInverted="true" PannerStartKeyframe="-91445760000000000,0.5,0,0,0,0,0,0" PannerName="Balance" currentExplodedTrackIndex="0" totalExplodedTrackCount="2" premiereTrackType="Stereo">
														<enabled>TRUE</enabled>
														<locked>FALSE</locked>
														<outputchannelindex>1</outputchannelindex>
													</track>
													<track TL.SQTrackAudioKeyframeStyle="0" TL.SQTrackShy="0" TL.SQTrackExpandedHeight="25" TL.SQTrackExpanded="0" MZ.TrackTargeted="0" PannerCurrentValue="0.5" PannerIsInverted="true" PannerStartKeyframe="-91445760000000000,0.5,0,0,0,0,0,0" PannerName="Balance" currentExplodedTrackIndex="1" totalExplodedTrackCount="2" premiereTrackType="Stereo">
														<enabled>TRUE</enabled>
														<locked>FALSE</locked>
														<outputchannelindex>2</outputchannelindex>
													</track>
													<track TL.SQTrackAudioKeyframeStyle="0" TL.SQTrackShy="0" TL.SQTrackExpandedHeight="25" TL.SQTrackExpanded="0" MZ.TrackTargeted="0" PannerCurrentValue="0.5" PannerIsInverted="true" PannerStartKeyframe="-91445760000000000,0.5,0,0,0,0,0,0" PannerName="Balance" currentExplodedTrackIndex="0" totalExplodedTrackCount="2" premiereTrackType="Stereo">
														<enabled>TRUE</enabled>
														<locked>FALSE</locked>
														<outputchannelindex>1</outputchannelindex>
													</track>
													<track TL.SQTrackAudioKeyframeStyle="0" TL.SQTrackShy="0" TL.SQTrackExpandedHeight="25" TL.SQTrackExpanded="0" MZ.TrackTargeted="0" PannerCurrentValue="0.5" PannerIsInverted="true" PannerStartKeyframe="-91445760000000000,0.5,0,0,0,0,0,0" PannerName="Balance" currentExplodedTrackIndex="1" totalExplodedTrackCount="2" premiereTrackType="Stereo">
														<enabled>TRUE</enabled>
														<locked>FALSE</locked>
														<outputchannelindex>2</outputchannelindex>
													</track>
													<track TL.SQTrackAudioKeyframeStyle="0" TL.SQTrackShy="0" TL.SQTrackExpandedHeight="25" TL.SQTrackExpanded="0" MZ.TrackTargeted="0" PannerCurrentValue="0.5" PannerIsInverted="true" PannerStartKeyframe="-91445760000000000,0.5,0,0,0,0,0,0" PannerName="Balance" currentExplodedTrackIndex="0" totalExplodedTrackCount="2" premiereTrackType="Stereo">
														<enabled>TRUE</enabled>
														<locked>FALSE</locked>
														<outputchannelindex>1</outputchannelindex>
													</track>
													<track TL.SQTrackAudioKeyframeStyle="0" TL.SQTrackShy="0" TL.SQTrackExpandedHeight="25" TL.SQTrackExpanded="0" MZ.TrackTargeted="0" PannerCurrentValue="0.5" PannerIsInverted="true" PannerStartKeyframe="-91445760000000000,0.5,0,0,0,0,0,0" PannerName="Balance" currentExplodedTrackIndex="1" totalExplodedTrackCount="2" premiereTrackType="Stereo">
														<enabled>TRUE</enabled>
														<locked>FALSE</locked>
														<outputchannelindex>2</outputchannelindex>
													</track>
													<track TL.SQTrackAudioKeyframeStyle="0" TL.SQTrackShy="0" TL.SQTrackExpandedHeight="25" TL.SQTrackExpanded="0" MZ.TrackTargeted="0" PannerCurrentValue="0.5" PannerIsInverted="true" PannerStartKeyframe="-91445760000000000,0.5,0,0,0,0,0,0" PannerName="Balance" currentExplodedTrackIndex="0" totalExplodedTrackCount="2" premiereTrackType="Stereo">
														<enabled>TRUE</enabled>
														<locked>FALSE</locked>
														<outputchannelindex>1</outputchannelindex>
													</track>
													<track TL.SQTrackAudioKeyframeStyle="0" TL.SQTrackShy="0" TL.SQTrackExpandedHeight="25" TL.SQTrackExpanded="0" MZ.TrackTargeted="0" PannerCurrentValue="0.5" PannerIsInverted="true" PannerStartKeyframe="-91445760000000000,0.5,0,0,0,0,0,0" PannerName="Balance" currentExplodedTrackIndex="1" totalExplodedTrackCount="2" premiereTrackType="Stereo">
														<enabled>TRUE</enabled>
														<locked>FALSE</locked>
														<outputchannelindex>2</outputchannelindex>
													</track>
													<track TL.SQTrackAudioKeyframeStyle="0" TL.SQTrackShy="0" TL.SQTrackExpandedHeight="25" TL.SQTrackExpanded="0" MZ.TrackTargeted="0" PannerCurrentValue="0.5" PannerIsInverted="true" PannerStartKeyframe="-91445760000000000,0.5,0,0,0,0,0,0" PannerName="Balance" currentExplodedTrackIndex="0" totalExplodedTrackCount="2" premiereTrackType="Stereo">
														<enabled>TRUE</enabled>
														<locked>FALSE</locked>
														<outputchannelindex>1</outputchannelindex>
													</track>
													<track TL.SQTrackAudioKeyframeStyle="0" TL.SQTrackShy="0" TL.SQTrackExpandedHeight="25" TL.SQTrackExpanded="0" MZ.TrackTargeted="0" PannerCurrentValue="0.5" PannerIsInverted="true" PannerStartKeyframe="-91445760000000000,0.5,0,0,0,0,0,0" PannerName="Balance" currentExplodedTrackIndex="1" totalExplodedTrackCount="2" premiereTrackType="Stereo">
														<enabled>TRUE</enabled>
														<locked>FALSE</locked>
														<outputchannelindex>2</outputchannelindex>
													</track>
													<track TL.SQTrackAudioKeyframeStyle="0" TL.SQTrackShy="0" TL.SQTrackExpandedHeight="25" TL.SQTrackExpanded="0" MZ.TrackTargeted="0" PannerCurrentValue="0.5" PannerIsInverted="true" PannerStartKeyframe="-91445760000000000,0.5,0,0,0,0,0,0" PannerName="Balance" currentExplodedTrackIndex="0" totalExplodedTrackCount="2" premiereTrackType="Stereo">
														<enabled>TRUE</enabled>
														<locked>FALSE</locked>
														<outputchannelindex>1</outputchannelindex>
													</track>
													<track TL.SQTrackAudioKeyframeStyle="0" TL.SQTrackShy="0" TL.SQTrackExpandedHeight="25" TL.SQTrackExpanded="0" MZ.TrackTargeted="0" PannerCurrentValue="0.5" PannerIsInverted="true" PannerStartKeyframe="-91445760000000000,0.5,0,0,0,0,0,0" PannerName="Balance" currentExplodedTrackIndex="1" totalExplodedTrackCount="2" premiereTrackType="Stereo">
														<enabled>TRUE</enabled>
														<locked>FALSE</locked>
														<outputchannelindex>2</outputchannelindex>
													</track>
													<track TL.SQTrackAudioKeyframeStyle="0" TL.SQTrackShy="0" TL.SQTrackExpandedHeight="25" TL.SQTrackExpanded="0" MZ.TrackTargeted="0" PannerCurrentValue="0.5" PannerIsInverted="true" PannerStartKeyframe="-91445760000000000,0.5,0,0,0,0,0,0" PannerName="Balance" currentExplodedTrackIndex="0" totalExplodedTrackCount="2" premiereTrackType="Stereo">
														<enabled>TRUE</enabled>
														<locked>FALSE</locked>
														<outputchannelindex>1</outputchannelindex>
													</track>
													<track TL.SQTrackAudioKeyframeStyle="0" TL.SQTrackShy="0" TL.SQTrackExpandedHeight="25" TL.SQTrackExpanded="0" MZ.TrackTargeted="0" PannerCurrentValue="0.5" PannerIsInverted="true" PannerStartKeyframe="-91445760000000000,0.5,0,0,0,0,0,0" PannerName="Balance" currentExplodedTrackIndex="1" totalExplodedTrackCount="2" premiereTrackType="Stereo">
														<enabled>TRUE</enabled>
														<locked>FALSE</locked>
														<outputchannelindex>2</outputchannelindex>
													</track>
													<track TL.SQTrackAudioKeyframeStyle="0" TL.SQTrackShy="0" TL.SQTrackExpandedHeight="25" TL.SQTrackExpanded="0" MZ.TrackTargeted="0" PannerCurrentValue="0.5" PannerIsInverted="true" PannerStartKeyframe="-91445760000000000,0.5,0,0,0,0,0,0" PannerName="Balance" currentExplodedTrackIndex="0" totalExplodedTrackCount="2" premiereTrackType="Stereo">
														<enabled>TRUE</enabled>
														<locked>FALSE</locked>
														<outputchannelindex>1</outputchannelindex>
													</track>
													<track TL.SQTrackAudioKeyframeStyle="0" TL.SQTrackShy="0" TL.SQTrackExpandedHeight="25" TL.SQTrackExpanded="0" MZ.TrackTargeted="0" PannerCurrentValue="0.5" PannerIsInverted="true" PannerStartKeyframe="-91445760000000000,0.5,0,0,0,0,0,0" PannerName="Balance" currentExplodedTrackIndex="1" totalExplodedTrackCount="2" premiereTrackType="Stereo">
														<enabled>TRUE</enabled>
														<locked>FALSE</locked>
														<outputchannelindex>2</outputchannelindex>
													</track>
													<track TL.SQTrackAudioKeyframeStyle="0" TL.SQTrackShy="0" TL.SQTrackExpandedHeight="25" TL.SQTrackExpanded="0" MZ.TrackTargeted="0" PannerCurrentValue="0.5" PannerIsInverted="true" PannerStartKeyframe="-91445760000000000,0.5,0,0,0,0,0,0" PannerName="Balance" currentExplodedTrackIndex="0" totalExplodedTrackCount="2" premiereTrackType="Stereo">
														<enabled>TRUE</enabled>
														<locked>FALSE</locked>
														<outputchannelindex>1</outputchannelindex>
													</track>
													<track TL.SQTrackAudioKeyframeStyle="0" TL.SQTrackShy="0" TL.SQTrackExpandedHeight="25" TL.SQTrackExpanded="0" MZ.TrackTargeted="0" PannerCurrentValue="0.5" PannerIsInverted="true" PannerStartKeyframe="-91445760000000000,0.5,0,0,0,0,0,0" PannerName="Balance" currentExplodedTrackIndex="1" totalExplodedTrackCount="2" premiereTrackType="Stereo">
														<enabled>TRUE</enabled>
														<locked>FALSE</locked>
														<outputchannelindex>2</outputchannelindex>
													</track>
												</audio>
											</media>
											<timecode>
												<rate>
													<timebase>30</timebase>
													<ntsc>TRUE</ntsc>
												</rate>
												<string>00;00;00;00</string>
												<frame>0</frame>
												<displayformat>DF</displayformat>
											</timecode>
											<logginginfo>
												<description></description>
												<scene></scene>
												<shottake></shottake>
												<lognote></lognote>
												<good></good>
												<originalvideofilename></originalvideofilename>
												<originalaudiofilename></originalaudiofilename>
											</logginginfo>
										</sequence>
										<link>
											<linkclipref>clipitem-141</linkclipref>
											<mediatype>video</mediatype>
											<trackindex>1</trackindex>
											<clipindex>2</clipindex>
										</link>
										<link>
											<linkclipref>clipitem-164</linkclipref>
											<mediatype>audio</mediatype>
											<trackindex>1</trackindex>
											<clipindex>3</clipindex>
											<groupindex>1</groupindex>
										</link>
										<link>
											<linkclipref>clipitem-166</linkclipref>
											<mediatype>audio</mediatype>
											<trackindex>2</trackindex>
											<clipindex>3</clipindex>
											<groupindex>1</groupindex>
										</link>
										<labels>
											<label2>Forest</label2>
										</labels>
									</clipitem>
									<enabled>TRUE</enabled>
									<locked>FALSE</locked>
								</track>
								<track TL.SQTrackShy="0" TL.SQTrackExpandedHeight="25" TL.SQTrackExpanded="0" MZ.TrackTargeted="0">
									<clipitem id="clipitem-157">
										<masterclipid>masterclip-16</masterclipid>
										<name>ATM BUG_1080_Top Right.png</name>
										<enabled>TRUE</enabled>
										<duration>1294705</duration>
										<rate>
											<timebase>30</timebase>
											<ntsc>TRUE</ntsc>
										</rate>
										<start>82</start>
										<end>5575</end>
										<in>107892</in>
										<out>113385</out>
										<pproTicksIn>914456685542400</pproTicksIn>
										<pproTicksOut>961013525472000</pproTicksOut>
										<alphatype>straight</alphatype>
										<file id="file-14"/>
										<logginginfo>
											<description></description>
											<scene></scene>
											<shottake></shottake>
											<lognote></lognote>
											<good></good>
											<originalvideofilename></originalvideofilename>
											<originalaudiofilename></originalaudiofilename>
										</logginginfo>
										<colorinfo>
											<lut></lut>
											<lut1></lut1>
											<asc_sop></asc_sop>
											<asc_sat></asc_sat>
											<lut2></lut2>
										</colorinfo>
										<labels>
										</labels>
									</clipitem>
									<enabled>TRUE</enabled>
									<locked>FALSE</locked>
								</track>
								<track TL.SQTrackShy="0" TL.SQTrackExpandedHeight="25" TL.SQTrackExpanded="0" MZ.TrackTargeted="0">
									<clipitem id="clipitem-158">
										<masterclipid>masterclip-67</masterclipid>
										<name>Gourmet Desert Plate</name>
										<enabled>TRUE</enabled>
										<duration>6293</duration>
										<rate>
											<timebase>30</timebase>
											<ntsc>TRUE</ntsc>
										</rate>
										<start>115</start>
										<end>2034</end>
										<in>30</in>
										<out>1949</out>
										<pproTicksIn>254270016000</pproTicksIn>
										<pproTicksOut>16519075372800</pproTicksOut>
										<alphatype>straight</alphatype>
										<pixelaspectratio>square</pixelaspectratio>
										<anamorphic>FALSE</anamorphic>
										<file id="file-56">
											<name>EYECANDY_L3RD_JL_V03/EYECANDY_L3rd_JL_V04.aep</name>
											<pathurl>file://localhost/Volumes/ATM%201/EYE%20CANDY/Project%20Template/5_Assets/Eye%20Candy%20Mograph/EYECANDY_L3rd_JL_V04%20folder/EYECANDY_L3rd_JL_V04.aep</pathurl>
											<rate>
												<timebase>30</timebase>
												<ntsc>FALSE</ntsc>
											</rate>
											<duration>6300</duration>
											<timecode>
												<rate>
													<timebase>30</timebase>
													<ntsc>FALSE</ntsc>
												</rate>
												<string>00:00:00:00</string>
												<frame>0</frame>
												<displayformat>NDF</displayformat>
											</timecode>
											<media>
												<video>
													<samplecharacteristics>
														<rate>
															<timebase>30</timebase>
															<ntsc>FALSE</ntsc>
														</rate>
														<width>1920</width>
														<height>1080</height>
														<anamorphic>FALSE</anamorphic>
														<pixelaspectratio>square</pixelaspectratio>
														<fielddominance>lower</fielddominance>
													</samplecharacteristics>
												</video>
											</media>
										</file>
										<logginginfo>
											<description></description>
											<scene></scene>
											<shottake></shottake>
											<lognote></lognote>
											<good></good>
											<originalvideofilename></originalvideofilename>
											<originalaudiofilename></originalaudiofilename>
										</logginginfo>
										<colorinfo>
											<lut></lut>
											<lut1></lut1>
											<asc_sop></asc_sop>
											<asc_sat></asc_sat>
											<lut2></lut2>
										</colorinfo>
									</clipitem>
									<clipitem id="clipitem-159">
										<masterclipid>masterclip-68</masterclipid>
										<name>Way to Go, Oreo!</name>
										<enabled>TRUE</enabled>
										<duration>6293</duration>
										<rate>
											<timebase>30</timebase>
											<ntsc>TRUE</ntsc>
										</rate>
										<start>2133</start>
										<end>5575</end>
										<in>30</in>
										<out>3472</out>
										<pproTicksIn>254270016000</pproTicksIn>
										<pproTicksOut>29427516518400</pproTicksOut>
										<alphatype>straight</alphatype>
										<pixelaspectratio>square</pixelaspectratio>
										<anamorphic>FALSE</anamorphic>
										<file id="file-57">
											<name>EYECANDY_L3RD_JL_V03/EYECANDY_L3rd_JL_V04.aep</name>
											<pathurl>file://localhost/Volumes/ATM%201/EYE%20CANDY/Project%20Template/5_Assets/Eye%20Candy%20Mograph/EYECANDY_L3rd_JL_V04%20folder/EYECANDY_L3rd_JL_V04.aep</pathurl>
											<rate>
												<timebase>30</timebase>
												<ntsc>FALSE</ntsc>
											</rate>
											<duration>6300</duration>
											<timecode>
												<rate>
													<timebase>30</timebase>
													<ntsc>FALSE</ntsc>
												</rate>
												<string>00:00:00:00</string>
												<frame>0</frame>
												<displayformat>NDF</displayformat>
											</timecode>
											<media>
												<video>
													<samplecharacteristics>
														<rate>
															<timebase>30</timebase>
															<ntsc>FALSE</ntsc>
														</rate>
														<width>1920</width>
														<height>1080</height>
														<anamorphic>FALSE</anamorphic>
														<pixelaspectratio>square</pixelaspectratio>
														<fielddominance>lower</fielddominance>
													</samplecharacteristics>
												</video>
											</media>
										</file>
										<logginginfo>
											<description></description>
											<scene></scene>
											<shottake></shottake>
											<lognote></lognote>
											<good></good>
											<originalvideofilename></originalvideofilename>
											<originalaudiofilename></originalaudiofilename>
										</logginginfo>
										<colorinfo>
											<lut></lut>
											<lut1></lut1>
											<asc_sop></asc_sop>
											<asc_sat></asc_sat>
											<lut2></lut2>
										</colorinfo>
									</clipitem>
									<enabled>TRUE</enabled>
									<locked>FALSE</locked>
								</track>
								<track TL.SQTrackShy="0" TL.SQTrackExpandedHeight="25" TL.SQTrackExpanded="0" MZ.TrackTargeted="0">
									<clipitem id="clipitem-160">
										<masterclipid>masterclip-19</masterclipid>
										<name>Intro</name>
										<enabled>TRUE</enabled>
										<duration>160</duration>
										<rate>
											<timebase>30</timebase>
											<ntsc>TRUE</ntsc>
										</rate>
										<start>0</start>
										<end>115</end>
										<in>0</in>
										<out>115</out>
										<pproTicksIn>0</pproTicksIn>
										<pproTicksOut>974701728000</pproTicksOut>
										<sequence id="sequence-4"/>
											<marker>
												<comment></comment>
												<name></name>
												<in>82</in>
												<out>-1</out>
											</marker>
										<link>
											<linkclipref>clipitem-160</linkclipref>
											<mediatype>video</mediatype>
											<trackindex>4</trackindex>
											<clipindex>1</clipindex>
										</link>
										<link>
											<linkclipref>clipitem-167</linkclipref>
											<mediatype>audio</mediatype>
											<trackindex>3</trackindex>
											<clipindex>1</clipindex>
											<groupindex>1</groupindex>
										</link>
										<link>
											<linkclipref>clipitem-170</linkclipref>
											<mediatype>audio</mediatype>
											<trackindex>4</trackindex>
											<clipindex>1</clipindex>
											<groupindex>1</groupindex>
										</link>
										<labels>
											<label2>Forest</label2>
										</labels>
									</clipitem>
									<clipitem id="clipitem-161">
										<masterclipid>masterclip-21</masterclipid>
										<name>Transition 2</name>
										<enabled>TRUE</enabled>
										<duration>160</duration>
										<rate>
											<timebase>30</timebase>
											<ntsc>TRUE</ntsc>
										</rate>
										<start>2014</start>
										<end>2133</end>
										<in>0</in>
										<out>119</out>
										<pproTicksIn>0</pproTicksIn>
										<pproTicksOut>1008604396800</pproTicksOut>
										<sequence id="sequence-5"/>
											<marker>
												<comment></comment>
												<name></name>
												<in>54</in>
												<out>-1</out>
											</marker>
											<marker>
												<comment></comment>
												<name></name>
												<in>20</in>
												<out>-1</out>
											</marker>
										<link>
											<linkclipref>clipitem-161</linkclipref>
											<mediatype>video</mediatype>
											<trackindex>4</trackindex>
											<clipindex>2</clipindex>
										</link>
										<link>
											<linkclipref>clipitem-168</linkclipref>
											<mediatype>audio</mediatype>
											<trackindex>3</trackindex>
											<clipindex>2</clipindex>
											<groupindex>1</groupindex>
										</link>
										<link>
											<linkclipref>clipitem-171</linkclipref>
											<mediatype>audio</mediatype>
											<trackindex>4</trackindex>
											<clipindex>2</clipindex>
											<groupindex>1</groupindex>
										</link>
										<labels>
											<label2>Forest</label2>
										</labels>
									</clipitem>
									<clipitem id="clipitem-162">
										<masterclipid>masterclip-23</masterclipid>
										<name>Outro</name>
										<enabled>TRUE</enabled>
										<duration>160</duration>
										<rate>
											<timebase>30</timebase>
											<ntsc>TRUE</ntsc>
										</rate>
										<start>5533</start>
										<end>5670</end>
										<in>0</in>
										<out>137</out>
										<pproTicksIn>0</pproTicksIn>
										<pproTicksOut>1161166406400</pproTicksOut>
										<sequence id="sequence-6"/>
											<marker>
												<comment></comment>
												<name></name>
												<in>42</in>
												<out>-1</out>
											</marker>
										<link>
											<linkclipref>clipitem-162</linkclipref>
											<mediatype>video</mediatype>
											<trackindex>4</trackindex>
											<clipindex>3</clipindex>
										</link>
										<link>
											<linkclipref>clipitem-169</linkclipref>
											<mediatype>audio</mediatype>
											<trackindex>3</trackindex>
											<clipindex>3</clipindex>
											<groupindex>1</groupindex>
										</link>
										<link>
											<linkclipref>clipitem-172</linkclipref>
											<mediatype>audio</mediatype>
											<trackindex>4</trackindex>
											<clipindex>3</clipindex>
											<groupindex>1</groupindex>
										</link>
										<labels>
											<label2>Forest</label2>
										</labels>
									</clipitem>
									<enabled>TRUE</enabled>
									<locked>FALSE</locked>
								</track>
							</video>
							<audio>
								<numOutputChannels>2</numOutputChannels>
								<format>
									<samplecharacteristics>
										<depth>16</depth>
										<samplerate>48000</samplerate>
									</samplecharacteristics>
								</format>
								<outputs>
									<group>
										<index>1</index>
										<numchannels>1</numchannels>
										<downmix>0</downmix>
										<channel>
											<index>1</index>
										</channel>
									</group>
									<group>
										<index>2</index>
										<numchannels>1</numchannels>
										<downmix>0</downmix>
										<channel>
											<index>2</index>
										</channel>
									</group>
								</outputs>
								<track TL.SQTrackAudioKeyframeStyle="0" TL.SQTrackShy="0" TL.SQTrackExpandedHeight="25" TL.SQTrackExpanded="0" MZ.TrackTargeted="1" PannerCurrentValue="0.5" PannerIsInverted="true" PannerStartKeyframe="-91445760000000000,0.5,0,0,0,0,0,0" PannerName="Balance" currentExplodedTrackIndex="0" totalExplodedTrackCount="2" premiereTrackType="Stereo">
									<clipitem id="clipitem-163" premiereChannelType="stereo">
										<masterclipid>masterclip-44</masterclipid>
										<name>Gourmet Desert Plate_1</name>
										<enabled>TRUE</enabled>
										<duration>2146</duration>
										<rate>
											<timebase>30</timebase>
											<ntsc>TRUE</ntsc>
										</rate>
										<start>82</start>
										<end>-1</end>
										<in>0</in>
										<out>1952</out>
										<pproTicksIn>0</pproTicksIn>
										<pproTicksOut>16544502374400</pproTicksOut>
										<sequence id="sequence-13"/>
										<sourcetrack>
											<mediatype>audio</mediatype>
											<trackindex>0</trackindex>
										</sourcetrack>
										<link>
											<linkclipref>clipitem-126</linkclipref>
											<mediatype>video</mediatype>
											<trackindex>1</trackindex>
											<clipindex>1</clipindex>
										</link>
										<link>
											<linkclipref>clipitem-163</linkclipref>
											<mediatype>audio</mediatype>
											<trackindex>1</trackindex>
											<clipindex>1</clipindex>
											<groupindex>1</groupindex>
										</link>
										<link>
											<linkclipref>clipitem-165</linkclipref>
											<mediatype>audio</mediatype>
											<trackindex>2</trackindex>
											<clipindex>1</clipindex>
											<groupindex>1</groupindex>
										</link>
										<labels>
											<label2>Forest</label2>
										</labels>
									</clipitem>
									<transitionitem>
										<start>2004</start>
										<end>2034</end>
										<pproTicksIn>16985237068800</pproTicksIn>
										<pproTicksOut>17239507084800</pproTicksOut>
										<alignment>end-black</alignment>
										<cutPointTicks>254270016000</cutPointTicks>
										<rate>
											<timebase>30</timebase>
											<ntsc>TRUE</ntsc>
										</rate>
										<effect>
											<name>Cross Fade ( 0dB)</name>
											<effectid>KGAudioTransCrossFade0dB</effectid>
											<effecttype>transition</effecttype>
											<mediatype>audio</mediatype>
											<wipecode>0</wipecode>
											<wipeaccuracy>100</wipeaccuracy>
											<startratio>0</startratio>
											<endratio>1</endratio>
											<reverse>FALSE</reverse>
										</effect>
									</transitionitem>
									<clipitem id="clipitem-164" premiereChannelType="stereo">
										<masterclipid>masterclip-58</masterclipid>
										<name>Way to Go, Oreo!_2</name>
										<enabled>TRUE</enabled>
										<duration>5700</duration>
										<rate>
											<timebase>30</timebase>
											<ntsc>TRUE</ntsc>
										</rate>
										<start>2068</start>
										<end>5575</end>
										<in>0</in>
										<out>3507</out>
										<pproTicksIn>0</pproTicksIn>
										<pproTicksOut>29724164870400</pproTicksOut>
										<sequence id="sequence-14"/>
										<sourcetrack>
											<mediatype>audio</mediatype>
											<trackindex>0</trackindex>
										</sourcetrack>
										<link>
											<linkclipref>clipitem-141</linkclipref>
											<mediatype>video</mediatype>
											<trackindex>1</trackindex>
											<clipindex>2</clipindex>
										</link>
										<link>
											<linkclipref>clipitem-164</linkclipref>
											<mediatype>audio</mediatype>
											<trackindex>1</trackindex>
											<clipindex>3</clipindex>
											<groupindex>1</groupindex>
										</link>
										<link>
											<linkclipref>clipitem-166</linkclipref>
											<mediatype>audio</mediatype>
											<trackindex>2</trackindex>
											<clipindex>3</clipindex>
											<groupindex>1</groupindex>
										</link>
										<labels>
											<label2>Forest</label2>
										</labels>
									</clipitem>
									<enabled>TRUE</enabled>
									<locked>FALSE</locked>
									<outputchannelindex>1</outputchannelindex>
								</track>
								<track TL.SQTrackAudioKeyframeStyle="0" TL.SQTrackShy="0" TL.SQTrackExpandedHeight="25" TL.SQTrackExpanded="0" MZ.TrackTargeted="1" PannerCurrentValue="0.5" PannerIsInverted="true" PannerStartKeyframe="-91445760000000000,0.5,0,0,0,0,0,0" PannerName="Balance" currentExplodedTrackIndex="1" totalExplodedTrackCount="2" premiereTrackType="Stereo">
									<clipitem id="clipitem-165" premiereChannelType="stereo">
										<masterclipid>masterclip-44</masterclipid>
										<name>Gourmet Desert Plate_1</name>
										<enabled>TRUE</enabled>
										<duration>2146</duration>
										<rate>
											<timebase>30</timebase>
											<ntsc>TRUE</ntsc>
										</rate>
										<start>82</start>
										<end>-1</end>
										<in>0</in>
										<out>1952</out>
										<pproTicksIn>0</pproTicksIn>
										<pproTicksOut>16544502374400</pproTicksOut>
										<sequence id="sequence-13"/>
										<sourcetrack>
											<mediatype>audio</mediatype>
											<trackindex>1</trackindex>
										</sourcetrack>
										<link>
											<linkclipref>clipitem-126</linkclipref>
											<mediatype>video</mediatype>
											<trackindex>1</trackindex>
											<clipindex>1</clipindex>
										</link>
										<link>
											<linkclipref>clipitem-163</linkclipref>
											<mediatype>audio</mediatype>
											<trackindex>1</trackindex>
											<clipindex>1</clipindex>
											<groupindex>1</groupindex>
										</link>
										<link>
											<linkclipref>clipitem-165</linkclipref>
											<mediatype>audio</mediatype>
											<trackindex>2</trackindex>
											<clipindex>1</clipindex>
											<groupindex>1</groupindex>
										</link>
										<labels>
											<label2>Forest</label2>
										</labels>
									</clipitem>
									<transitionitem>
										<start>2004</start>
										<end>2034</end>
										<pproTicksIn>16985237068800</pproTicksIn>
										<pproTicksOut>17239507084800</pproTicksOut>
										<alignment>end-black</alignment>
										<cutPointTicks>254270016000</cutPointTicks>
										<rate>
											<timebase>30</timebase>
											<ntsc>TRUE</ntsc>
										</rate>
										<effect>
											<name>Cross Fade ( 0dB)</name>
											<effectid>KGAudioTransCrossFade0dB</effectid>
											<effecttype>transition</effecttype>
											<mediatype>audio</mediatype>
											<wipecode>0</wipecode>
											<wipeaccuracy>100</wipeaccuracy>
											<startratio>0</startratio>
											<endratio>1</endratio>
											<reverse>FALSE</reverse>
										</effect>
									</transitionitem>
									<clipitem id="clipitem-166" premiereChannelType="stereo">
										<masterclipid>masterclip-58</masterclipid>
										<name>Way to Go, Oreo!_2</name>
										<enabled>TRUE</enabled>
										<duration>5700</duration>
										<rate>
											<timebase>30</timebase>
											<ntsc>TRUE</ntsc>
										</rate>
										<start>2068</start>
										<end>5575</end>
										<in>0</in>
										<out>3507</out>
										<pproTicksIn>0</pproTicksIn>
										<pproTicksOut>29724164870400</pproTicksOut>
										<sequence id="sequence-14"/>
										<sourcetrack>
											<mediatype>audio</mediatype>
											<trackindex>1</trackindex>
										</sourcetrack>
										<link>
											<linkclipref>clipitem-141</linkclipref>
											<mediatype>video</mediatype>
											<trackindex>1</trackindex>
											<clipindex>2</clipindex>
										</link>
										<link>
											<linkclipref>clipitem-164</linkclipref>
											<mediatype>audio</mediatype>
											<trackindex>1</trackindex>
											<clipindex>3</clipindex>
											<groupindex>1</groupindex>
										</link>
										<link>
											<linkclipref>clipitem-166</linkclipref>
											<mediatype>audio</mediatype>
											<trackindex>2</trackindex>
											<clipindex>3</clipindex>
											<groupindex>1</groupindex>
										</link>
										<labels>
											<label2>Forest</label2>
										</labels>
									</clipitem>
									<enabled>TRUE</enabled>
									<locked>FALSE</locked>
									<outputchannelindex>2</outputchannelindex>
								</track>
								<track TL.SQTrackAudioKeyframeStyle="0" TL.SQTrackShy="0" TL.SQTrackExpandedHeight="25" TL.SQTrackExpanded="0" MZ.TrackTargeted="1" PannerCurrentValue="0.5" PannerIsInverted="true" PannerStartKeyframe="-91445760000000000,0.5,0,0,0,0,0,0" PannerName="Balance" currentExplodedTrackIndex="0" totalExplodedTrackCount="2" premiereTrackType="Stereo">
									<clipitem id="clipitem-167" premiereChannelType="stereo">
										<masterclipid>masterclip-19</masterclipid>
										<name>Intro</name>
										<enabled>TRUE</enabled>
										<duration>160</duration>
										<rate>
											<timebase>30</timebase>
											<ntsc>TRUE</ntsc>
										</rate>
										<start>0</start>
										<end>115</end>
										<in>0</in>
										<out>115</out>
										<pproTicksIn>0</pproTicksIn>
										<pproTicksOut>974701728000</pproTicksOut>
										<sequence id="sequence-4"/>
										<sourcetrack>
											<mediatype>audio</mediatype>
											<trackindex>0</trackindex>
										</sourcetrack>
											<marker>
												<comment></comment>
												<name></name>
												<in>82</in>
												<out>-1</out>
											</marker>
										<link>
											<linkclipref>clipitem-160</linkclipref>
											<mediatype>video</mediatype>
											<trackindex>4</trackindex>
											<clipindex>1</clipindex>
										</link>
										<link>
											<linkclipref>clipitem-167</linkclipref>
											<mediatype>audio</mediatype>
											<trackindex>3</trackindex>
											<clipindex>1</clipindex>
											<groupindex>1</groupindex>
										</link>
										<link>
											<linkclipref>clipitem-170</linkclipref>
											<mediatype>audio</mediatype>
											<trackindex>4</trackindex>
											<clipindex>1</clipindex>
											<groupindex>1</groupindex>
										</link>
										<labels>
											<label2>Forest</label2>
										</labels>
									</clipitem>
									<clipitem id="clipitem-168" premiereChannelType="stereo">
										<masterclipid>masterclip-21</masterclipid>
										<name>Transition 2</name>
										<enabled>TRUE</enabled>
										<duration>160</duration>
										<rate>
											<timebase>30</timebase>
											<ntsc>TRUE</ntsc>
										</rate>
										<start>2014</start>
										<end>2133</end>
										<in>0</in>
										<out>119</out>
										<pproTicksIn>0</pproTicksIn>
										<pproTicksOut>1008604396800</pproTicksOut>
										<sequence id="sequence-5"/>
										<sourcetrack>
											<mediatype>audio</mediatype>
											<trackindex>0</trackindex>
										</sourcetrack>
											<marker>
												<comment></comment>
												<name></name>
												<in>54</in>
												<out>-1</out>
											</marker>
											<marker>
												<comment></comment>
												<name></name>
												<in>20</in>
												<out>-1</out>
											</marker>
										<link>
											<linkclipref>clipitem-161</linkclipref>
											<mediatype>video</mediatype>
											<trackindex>4</trackindex>
											<clipindex>2</clipindex>
										</link>
										<link>
											<linkclipref>clipitem-168</linkclipref>
											<mediatype>audio</mediatype>
											<trackindex>3</trackindex>
											<clipindex>2</clipindex>
											<groupindex>1</groupindex>
										</link>
										<link>
											<linkclipref>clipitem-171</linkclipref>
											<mediatype>audio</mediatype>
											<trackindex>4</trackindex>
											<clipindex>2</clipindex>
											<groupindex>1</groupindex>
										</link>
										<labels>
											<label2>Forest</label2>
										</labels>
									</clipitem>
									<clipitem id="clipitem-169" premiereChannelType="stereo">
										<masterclipid>masterclip-23</masterclipid>
										<name>Outro</name>
										<enabled>TRUE</enabled>
										<duration>160</duration>
										<rate>
											<timebase>30</timebase>
											<ntsc>TRUE</ntsc>
										</rate>
										<start>5533</start>
										<end>5670</end>
										<in>0</in>
										<out>137</out>
										<pproTicksIn>0</pproTicksIn>
										<pproTicksOut>1161166406400</pproTicksOut>
										<sequence id="sequence-6"/>
										<sourcetrack>
											<mediatype>audio</mediatype>
											<trackindex>0</trackindex>
										</sourcetrack>
											<marker>
												<comment></comment>
												<name></name>
												<in>42</in>
												<out>-1</out>
											</marker>
										<link>
											<linkclipref>clipitem-162</linkclipref>
											<mediatype>video</mediatype>
											<trackindex>4</trackindex>
											<clipindex>3</clipindex>
										</link>
										<link>
											<linkclipref>clipitem-169</linkclipref>
											<mediatype>audio</mediatype>
											<trackindex>3</trackindex>
											<clipindex>3</clipindex>
											<groupindex>1</groupindex>
										</link>
										<link>
											<linkclipref>clipitem-172</linkclipref>
											<mediatype>audio</mediatype>
											<trackindex>4</trackindex>
											<clipindex>3</clipindex>
											<groupindex>1</groupindex>
										</link>
										<labels>
											<label2>Forest</label2>
										</labels>
									</clipitem>
									<enabled>TRUE</enabled>
									<locked>FALSE</locked>
									<outputchannelindex>1</outputchannelindex>
								</track>
								<track TL.SQTrackAudioKeyframeStyle="0" TL.SQTrackShy="0" TL.SQTrackExpandedHeight="25" TL.SQTrackExpanded="0" MZ.TrackTargeted="1" PannerCurrentValue="0.5" PannerIsInverted="true" PannerStartKeyframe="-91445760000000000,0.5,0,0,0,0,0,0" PannerName="Balance" currentExplodedTrackIndex="1" totalExplodedTrackCount="2" premiereTrackType="Stereo">
									<clipitem id="clipitem-170" premiereChannelType="stereo">
										<masterclipid>masterclip-19</masterclipid>
										<name>Intro</name>
										<enabled>TRUE</enabled>
										<duration>160</duration>
										<rate>
											<timebase>30</timebase>
											<ntsc>TRUE</ntsc>
										</rate>
										<start>0</start>
										<end>115</end>
										<in>0</in>
										<out>115</out>
										<pproTicksIn>0</pproTicksIn>
										<pproTicksOut>974701728000</pproTicksOut>
										<sequence id="sequence-4"/>
										<sourcetrack>
											<mediatype>audio</mediatype>
											<trackindex>1</trackindex>
										</sourcetrack>
											<marker>
												<comment></comment>
												<name></name>
												<in>82</in>
												<out>-1</out>
											</marker>
										<link>
											<linkclipref>clipitem-160</linkclipref>
											<mediatype>video</mediatype>
											<trackindex>4</trackindex>
											<clipindex>1</clipindex>
										</link>
										<link>
											<linkclipref>clipitem-167</linkclipref>
											<mediatype>audio</mediatype>
											<trackindex>3</trackindex>
											<clipindex>1</clipindex>
											<groupindex>1</groupindex>
										</link>
										<link>
											<linkclipref>clipitem-170</linkclipref>
											<mediatype>audio</mediatype>
											<trackindex>4</trackindex>
											<clipindex>1</clipindex>
											<groupindex>1</groupindex>
										</link>
										<labels>
											<label2>Forest</label2>
										</labels>
									</clipitem>
									<clipitem id="clipitem-171" premiereChannelType="stereo">
										<masterclipid>masterclip-21</masterclipid>
										<name>Transition 2</name>
										<enabled>TRUE</enabled>
										<duration>160</duration>
										<rate>
											<timebase>30</timebase>
											<ntsc>TRUE</ntsc>
										</rate>
										<start>2014</start>
										<end>2133</end>
										<in>0</in>
										<out>119</out>
										<pproTicksIn>0</pproTicksIn>
										<pproTicksOut>1008604396800</pproTicksOut>
										<sequence id="sequence-5"/>
										<sourcetrack>
											<mediatype>audio</mediatype>
											<trackindex>1</trackindex>
										</sourcetrack>
											<marker>
												<comment></comment>
												<name></name>
												<in>54</in>
												<out>-1</out>
											</marker>
											<marker>
												<comment></comment>
												<name></name>
												<in>20</in>
												<out>-1</out>
											</marker>
										<link>
											<linkclipref>clipitem-161</linkclipref>
											<mediatype>video</mediatype>
											<trackindex>4</trackindex>
											<clipindex>2</clipindex>
										</link>
										<link>
											<linkclipref>clipitem-168</linkclipref>
											<mediatype>audio</mediatype>
											<trackindex>3</trackindex>
											<clipindex>2</clipindex>
											<groupindex>1</groupindex>
										</link>
										<link>
											<linkclipref>clipitem-171</linkclipref>
											<mediatype>audio</mediatype>
											<trackindex>4</trackindex>
											<clipindex>2</clipindex>
											<groupindex>1</groupindex>
										</link>
										<labels>
											<label2>Forest</label2>
										</labels>
									</clipitem>
									<clipitem id="clipitem-172" premiereChannelType="stereo">
										<masterclipid>masterclip-23</masterclipid>
										<name>Outro</name>
										<enabled>TRUE</enabled>
										<duration>160</duration>
										<rate>
											<timebase>30</timebase>
											<ntsc>TRUE</ntsc>
										</rate>
										<start>5533</start>
										<end>5670</end>
										<in>0</in>
										<out>137</out>
										<pproTicksIn>0</pproTicksIn>
										<pproTicksOut>1161166406400</pproTicksOut>
										<sequence id="sequence-6"/>
										<sourcetrack>
											<mediatype>audio</mediatype>
											<trackindex>1</trackindex>
										</sourcetrack>
											<marker>
												<comment></comment>
												<name></name>
												<in>42</in>
												<out>-1</out>
											</marker>
										<link>
											<linkclipref>clipitem-162</linkclipref>
											<mediatype>video</mediatype>
											<trackindex>4</trackindex>
											<clipindex>3</clipindex>
										</link>
										<link>
											<linkclipref>clipitem-169</linkclipref>
											<mediatype>audio</mediatype>
											<trackindex>3</trackindex>
											<clipindex>3</clipindex>
											<groupindex>1</groupindex>
										</link>
										<link>
											<linkclipref>clipitem-172</linkclipref>
											<mediatype>audio</mediatype>
											<trackindex>4</trackindex>
											<clipindex>3</clipindex>
											<groupindex>1</groupindex>
										</link>
										<labels>
											<label2>Forest</label2>
										</labels>
									</clipitem>
									<enabled>TRUE</enabled>
									<locked>FALSE</locked>
									<outputchannelindex>2</outputchannelindex>
								</track>
								<track TL.SQTrackAudioKeyframeStyle="0" TL.SQTrackShy="0" TL.SQTrackExpandedHeight="25" TL.SQTrackExpanded="0" MZ.TrackTargeted="1" PannerCurrentValue="0.5" PannerIsInverted="true" PannerStartKeyframe="-91445760000000000,0.5,0,0,0,0,0,0" PannerName="Balance" currentExplodedTrackIndex="0" totalExplodedTrackCount="2" premiereTrackType="Stereo">
									<enabled>TRUE</enabled>
									<locked>FALSE</locked>
									<outputchannelindex>1</outputchannelindex>
								</track>
								<track TL.SQTrackAudioKeyframeStyle="0" TL.SQTrackShy="0" TL.SQTrackExpandedHeight="25" TL.SQTrackExpanded="0" MZ.TrackTargeted="1" PannerCurrentValue="0.5" PannerIsInverted="true" PannerStartKeyframe="-91445760000000000,0.5,0,0,0,0,0,0" PannerName="Balance" currentExplodedTrackIndex="1" totalExplodedTrackCount="2" premiereTrackType="Stereo">
									<enabled>TRUE</enabled>
									<locked>FALSE</locked>
									<outputchannelindex>2</outputchannelindex>
								</track>
							</audio>
						</media>
						<timecode>
							<rate>
								<timebase>30</timebase>
								<ntsc>TRUE</ntsc>
							</rate>
							<string>00;00;00;00</string>
							<frame>0</frame>
							<displayformat>DF</displayformat>
						</timecode>
						<labels>
							<label2>Forest</label2>
						</labels>
						<logginginfo>
							<description></description>
							<scene></scene>
							<shottake></shottake>
							<lognote></lognote>
							<good></good>
							<originalvideofilename></originalvideofilename>
							<originalaudiofilename></originalaudiofilename>
						</logginginfo>
					</sequence>
					<sequence id="sequence-15" TL.SQAudioVisibleBase="0" TL.SQVideoVisibleBase="0" TL.SQVisibleBaseTime="0" TL.SQAVDividerPosition="0.5" TL.SQHideShyTracks="0" TL.SQHeaderWidth="236" TL.SQDataTrackViewControlState="0" Monitor.ProgramZoomOut="45887262220800" Monitor.ProgramZoomIn="0" TL.SQTimePerPixel="0.21862369283235922" AM.TrackVScrollPosition="0" AM.TrackScrollPosition="0" MZ.EditLine="45887262220800" MZ.Sequence.PreviewFrameSizeHeight="1080" MZ.Sequence.PreviewFrameSizeWidth="1920" MZ.Sequence.AudioTimeDisplayFormat="200" MZ.Sequence.PreviewRenderingClassID="1061109567" MZ.Sequence.PreviewRenderingPresetCodec="1634755443" MZ.Sequence.PreviewRenderingPresetPath="EncoderPresets/SequencePreview/35d109db-457b-43c1-9452-9cb7be9f121c/QuickTime.epr" MZ.Sequence.PreviewUseMaxRenderQuality="false" MZ.Sequence.PreviewUseMaxBitDepth="false" MZ.Sequence.EditingModeGUID="35d109db-457b-43c1-9452-9cb7be9f121c" MZ.Sequence.VideoTimeDisplayFormat="102" MZ.WorkOutPoint="15239249625600" MZ.WorkInPoint="0" explodedTracks="true">
						<uuid>22235fa6-0f15-4625-98a1-61940d6e2d62</uuid>
						<duration>5319</duration>
						<rate>
							<timebase>30</timebase>
							<ntsc>TRUE</ntsc>
						</rate>
						<name>ATM_EYECANDY_242</name>
						<media>
							<video>
								<format>
									<samplecharacteristics>
										<rate>
											<timebase>30</timebase>
											<ntsc>TRUE</ntsc>
										</rate>
										<codec>
											<name>Apple ProRes 422</name>
											<appspecificdata>
												<appname>Final Cut Pro</appname>
												<appmanufacturer>Apple Inc.</appmanufacturer>
												<appversion>7.0</appversion>
												<data>
													<qtcodec>
														<codecname>Apple ProRes 422</codecname>
														<codectypename>Apple ProRes 422</codectypename>
														<codectypecode>apcn</codectypecode>
														<codecvendorcode>appl</codecvendorcode>
														<spatialquality>1024</spatialquality>
														<temporalquality>0</temporalquality>
														<keyframerate>0</keyframerate>
														<datarate>0</datarate>
													</qtcodec>
												</data>
											</appspecificdata>
										</codec>
										<width>1920</width>
										<height>1080</height>
										<anamorphic>FALSE</anamorphic>
										<pixelaspectratio>square</pixelaspectratio>
										<fielddominance>none</fielddominance>
										<colordepth>24</colordepth>
									</samplecharacteristics>
								</format>
								<track TL.SQTrackShy="0" TL.SQTrackExpandedHeight="25" TL.SQTrackExpanded="0" MZ.TrackTargeted="1">
									<clipitem id="clipitem-173">
										<masterclipid>masterclip-69</masterclipid>
										<name>Out of this World Desserts_2</name>
										<enabled>TRUE</enabled>
										<duration>5700</duration>
										<rate>
											<timebase>30</timebase>
											<ntsc>TRUE</ntsc>
										</rate>
										<start>82</start>
										<end>3464</end>
										<in>0</in>
										<out>3382</out>
										<pproTicksIn>0</pproTicksIn>
										<pproTicksOut>28664706470400</pproTicksOut>
										<sequence id="sequence-16" TL.SQAudioVisibleBase="0" TL.SQVideoVisibleBase="0" TL.SQVisibleBaseTime="0" TL.SQAVDividerPosition="0.5" TL.SQHideShyTracks="0" TL.SQHeaderWidth="236" TL.SQDataTrackViewControlState="0" Monitor.ProgramZoomOut="28664706470400" Monitor.ProgramZoomIn="0" TL.SQTimePerPixel="0.13748851003308071" AM.TrackVScrollPosition="0" AM.TrackScrollPosition="0" MZ.EditLine="25393098931200" MZ.Sequence.PreviewFrameSizeHeight="1080" MZ.Sequence.PreviewFrameSizeWidth="1920" MZ.Sequence.AudioTimeDisplayFormat="200" MZ.Sequence.PreviewRenderingClassID="1061109567" MZ.Sequence.PreviewRenderingPresetCodec="1634755443" MZ.Sequence.PreviewRenderingPresetPath="EncoderPresets/SequencePreview/35d109db-457b-43c1-9452-9cb7be9f121c/QuickTime.epr" MZ.Sequence.PreviewUseMaxRenderQuality="false" MZ.Sequence.PreviewUseMaxBitDepth="false" MZ.Sequence.EditingModeGUID="35d109db-457b-43c1-9452-9cb7be9f121c" MZ.Sequence.VideoTimeDisplayFormat="102" MZ.WorkOutPoint="1262874412800" MZ.WorkInPoint="0">
											<duration>3382</duration>
											<rate>
												<timebase>30</timebase>
												<ntsc>TRUE</ntsc>
											</rate>
											<name>FND_Out of this World Desserts_2</name>
											<media>
												<video>
													<format>
														<samplecharacteristics>
															<rate>
																<timebase>30</timebase>
																<ntsc>TRUE</ntsc>
															</rate>
															<codec>
																<name>Apple ProRes 422</name>
																<appspecificdata>
																	<appname>Final Cut Pro</appname>
																	<appmanufacturer>Apple Inc.</appmanufacturer>
																	<appversion>7.0</appversion>
																	<data>
																		<qtcodec>
																			<codecname>Apple ProRes 422</codecname>
																			<codectypename>Apple ProRes 422</codectypename>
																			<codectypecode>apcn</codectypecode>
																			<codecvendorcode>appl</codecvendorcode>
																			<spatialquality>1024</spatialquality>
																			<temporalquality>0</temporalquality>
																			<keyframerate>0</keyframerate>
																			<datarate>0</datarate>
																		</qtcodec>
																	</data>
																</appspecificdata>
															</codec>
															<width>1920</width>
															<height>1080</height>
															<anamorphic>FALSE</anamorphic>
															<pixelaspectratio>square</pixelaspectratio>
															<fielddominance>none</fielddominance>
															<colordepth>24</colordepth>
														</samplecharacteristics>
													</format>
													<track TL.SQTrackShy="0" TL.SQTrackExpandedHeight="25" TL.SQTrackExpanded="0" MZ.TrackTargeted="1">
														<clipitem id="clipitem-174">
															<masterclipid>masterclip-70</masterclipid>
															<name>(bakedbyprecious)_7109112263172328750_TT.mp4</name>
															<enabled>TRUE</enabled>
															<duration>708</duration>
															<rate>
																<timebase>30</timebase>
																<ntsc>TRUE</ntsc>
															</rate>
															<start>0</start>
															<end>362</end>
															<in>0</in>
															<out>362</out>
															<pproTicksIn>0</pproTicksIn>
															<pproTicksOut>3068191526400</pproTicksOut>
															<alphatype>none</alphatype>
															<pixelaspectratio>square</pixelaspectratio>
															<anamorphic>FALSE</anamorphic>
															<file id="file-58">
																<name>(bakedbyprecious)_7109112263172328750_TT.mp4</name>
																<pathurl>file://localhost/Volumes/ATM%201/EYE%20CANDY/8%3a14%3a23/3_Raw%20Files/space/(bakedbyprecious)_7109112263172328750_TT.mp4</pathurl>
																<rate>
																	<timebase>30</timebase>
																	<ntsc>FALSE</ntsc>
																</rate>
																<duration>709</duration>
																<timecode>
																	<rate>
																		<timebase>30</timebase>
																		<ntsc>FALSE</ntsc>
																	</rate>
																	<string>00:00:00:00</string>
																	<frame>0</frame>
																	<displayformat>NDF</displayformat>
																</timecode>
																<media>
																	<video>
																		<samplecharacteristics>
																			<rate>
																				<timebase>30</timebase>
																				<ntsc>FALSE</ntsc>
																			</rate>
																			<width>576</width>
																			<height>1026</height>
																			<anamorphic>FALSE</anamorphic>
																			<pixelaspectratio>square</pixelaspectratio>
																			<fielddominance>none</fielddominance>
																		</samplecharacteristics>
																	</video>
																	<audio>
																		<samplecharacteristics>
																			<depth>16</depth>
																			<samplerate>44100</samplerate>
																		</samplecharacteristics>
																		<channelcount>2</channelcount>
																	</audio>
																</media>
															</file>
															<logginginfo>
																<description></description>
																<scene></scene>
																<shottake></shottake>
																<lognote></lognote>
																<good></good>
																<originalvideofilename></originalvideofilename>
																<originalaudiofilename></originalaudiofilename>
															</logginginfo>
															<colorinfo>
																<lut></lut>
																<lut1></lut1>
																<asc_sop></asc_sop>
																<asc_sat></asc_sat>
																<lut2></lut2>
															</colorinfo>
															<labels>
																<label2>Violet</label2>
															</labels>
														</clipitem>
														<clipitem id="clipitem-175">
															<masterclipid>masterclip-70</masterclipid>
															<name>(bakedbyprecious)_7109112263172328750_TT.mp4</name>
															<enabled>TRUE</enabled>
															<duration>708</duration>
															<rate>
																<timebase>30</timebase>
																<ntsc>TRUE</ntsc>
															</rate>
															<start>362</start>
															<end>566</end>
															<in>407</in>
															<out>611</out>
															<pproTicksIn>3449596550400</pproTicksIn>
															<pproTicksOut>5178632659200</pproTicksOut>
															<alphatype>none</alphatype>
															<file id="file-58"/>
															<logginginfo>
																<description></description>
																<scene></scene>
																<shottake></shottake>
																<lognote></lognote>
																<good></good>
																<originalvideofilename></originalvideofilename>
																<originalaudiofilename></originalaudiofilename>
															</logginginfo>
															<colorinfo>
																<lut></lut>
																<lut1></lut1>
																<asc_sop></asc_sop>
																<asc_sat></asc_sat>
																<lut2></lut2>
															</colorinfo>
															<labels>
																<label2>Violet</label2>
															</labels>
														</clipitem>
														<clipitem id="clipitem-176">
															<masterclipid>masterclip-71</masterclipid>
															<name>(allthesugartx)_CZr5I4IJ1K9_IG.mp4</name>
															<enabled>TRUE</enabled>
															<duration>571</duration>
															<rate>
																<timebase>30</timebase>
																<ntsc>TRUE</ntsc>
															</rate>
															<start>566</start>
															<end>1137</end>
															<in>0</in>
															<out>571</out>
															<pproTicksIn>0</pproTicksIn>
															<pproTicksOut>7259408956800</pproTicksOut>
															<alphatype>none</alphatype>
															<pixelaspectratio>square</pixelaspectratio>
															<anamorphic>FALSE</anamorphic>
															<file id="file-59">
																<name>(allthesugartx)_CZr5I4IJ1K9_IG.mp4</name>
																<pathurl>file://localhost/Volumes/ATM%201/EYE%20CANDY/8%3a14%3a23/3_Raw%20Files/space/(allthesugartx)_CZr5I4IJ1K9_IG.mp4</pathurl>
																<rate>
																	<timebase>30</timebase>
																	<ntsc>FALSE</ntsc>
																</rate>
																<duration>858</duration>
																<timecode>
																	<rate>
																		<timebase>30</timebase>
																		<ntsc>FALSE</ntsc>
																	</rate>
																	<string>00:00:00:00</string>
																	<frame>0</frame>
																	<displayformat>NDF</displayformat>
																</timecode>
																<media>
																	<video>
																		<samplecharacteristics>
																			<rate>
																				<timebase>30</timebase>
																				<ntsc>FALSE</ntsc>
																			</rate>
																			<width>720</width>
																			<height>1280</height>
																			<anamorphic>FALSE</anamorphic>
																			<pixelaspectratio>square</pixelaspectratio>
																			<fielddominance>none</fielddominance>
																		</samplecharacteristics>
																	</video>
																	<audio>
																		<samplecharacteristics>
																			<depth>16</depth>
																			<samplerate>44100</samplerate>
																		</samplecharacteristics>
																		<channelcount>2</channelcount>
																	</audio>
																</media>
															</file>
															<filter>
																<effect>
																	<name>Time Remap</name>
																	<effectid>timeremap</effectid>
																	<effectcategory>motion</effectcategory>
																	<effecttype>motion</effecttype>
																	<mediatype>video</mediatype>
																	<parameter authoringApp="PremierePro">
																		<parameterid>variablespeed</parameterid>
																		<name>variablespeed</name>
																		<valuemin>0</valuemin>
																		<valuemax>1</valuemax>
																		<value>0</value>
																	</parameter>
																	<parameter authoringApp="PremierePro">
																		<parameterid>speed</parameterid>
																		<name>speed</name>
																		<valuemin>-100000</valuemin>
																		<valuemax>100000</valuemax>
																		<value>150</value>
																	</parameter>
																	<parameter authoringApp="PremierePro">
																		<parameterid>reverse</parameterid>
																		<name>reverse</name>
																		<value>FALSE</value>
																	</parameter>
																	<parameter authoringApp="PremierePro">
																		<parameterid>frameblending</parameterid>
																		<name>frameblending</name>
																		<value>FALSE</value>
																	</parameter>
																	<parameter authoringApp="PremierePro">
																		<parameterid>graphdict</parameterid>
																		<name>graphdict</name>
																		<valuemin>0</valuemin>
																		<valuemax>856</valuemax>
																		<value>0</value>
																		<keyframe>
																			<when>0</when>
																			<value>0</value>
																			<speedvirtualkf>TRUE</speedvirtualkf>
																			<speedkfin>TRUE</speedkfin>
																		</keyframe>
																		<keyframe>
																			<when>571</when>
																			<value>856</value>
																			<speedvirtualkf>TRUE</speedvirtualkf>
																			<speedkfout>TRUE</speedkfout>
																		</keyframe>
																		<interpolation>
																			<name>FCPCurve</name>
																		</interpolation>
																	</parameter>
																</effect>
															</filter>
															<logginginfo>
																<description></description>
																<scene></scene>
																<shottake></shottake>
																<lognote></lognote>
																<good></good>
																<originalvideofilename></originalvideofilename>
																<originalaudiofilename></originalaudiofilename>
															</logginginfo>
															<colorinfo>
																<lut></lut>
																<lut1></lut1>
																<asc_sop></asc_sop>
																<asc_sat></asc_sat>
																<lut2></lut2>
															</colorinfo>
															<labels>
																<label2>Violet</label2>
															</labels>
														</clipitem>
														<clipitem id="clipitem-177">
															<masterclipid>masterclip-72</masterclipid>
															<name>(daniel.83)_Bntp2fmFObe_IG.mp4</name>
															<enabled>TRUE</enabled>
															<duration>1597</duration>
															<rate>
																<timebase>30</timebase>
																<ntsc>TRUE</ntsc>
															</rate>
															<start>1137</start>
															<end>1373</end>
															<in>194</in>
															<out>430</out>
															<pproTicksIn>1644279436800</pproTicksIn>
															<pproTicksOut>3644536896000</pproTicksOut>
															<alphatype>none</alphatype>
															<pixelaspectratio>square</pixelaspectratio>
															<anamorphic>FALSE</anamorphic>
															<file id="file-60">
																<name>(daniel.83)_Bntp2fmFObe_IG.mp4</name>
																<pathurl>file://localhost/Volumes/ATM%201/EYE%20CANDY/8%3a14%3a23/3_Raw%20Files/space/(daniel.83)_Bntp2fmFObe_IG.mp4</pathurl>
																<rate>
																	<timebase>30</timebase>
																	<ntsc>FALSE</ntsc>
																</rate>
																<duration>1599</duration>
																<timecode>
																	<rate>
																		<timebase>30</timebase>
																		<ntsc>FALSE</ntsc>
																	</rate>
																	<string>00:00:00:00</string>
																	<frame>0</frame>
																	<displayformat>NDF</displayformat>
																</timecode>
																<media>
																	<video>
																		<samplecharacteristics>
																			<rate>
																				<timebase>30</timebase>
																				<ntsc>FALSE</ntsc>
																			</rate>
																			<width>640</width>
																			<height>640</height>
																			<anamorphic>FALSE</anamorphic>
																			<pixelaspectratio>square</pixelaspectratio>
																			<fielddominance>none</fielddominance>
																		</samplecharacteristics>
																	</video>
																	<audio>
																		<samplecharacteristics>
																			<depth>16</depth>
																			<samplerate>44100</samplerate>
																		</samplecharacteristics>
																		<channelcount>1</channelcount>
																		<audiochannel>
																			<sourcechannel>1</sourcechannel>
																		</audiochannel>
																	</audio>
																</media>
															</file>
															<logginginfo>
																<description></description>
																<scene></scene>
																<shottake></shottake>
																<lognote></lognote>
																<good></good>
																<originalvideofilename></originalvideofilename>
																<originalaudiofilename></originalaudiofilename>
															</logginginfo>
															<colorinfo>
																<lut></lut>
																<lut1></lut1>
																<asc_sop></asc_sop>
																<asc_sat></asc_sat>
																<lut2></lut2>
															</colorinfo>
															<labels>
																<label2>Violet</label2>
															</labels>
														</clipitem>
														<clipitem id="clipitem-178">
															<masterclipid>masterclip-72</masterclipid>
															<name>(daniel.83)_Bntp2fmFObe_IG.mp4</name>
															<enabled>TRUE</enabled>
															<duration>1597</duration>
															<rate>
																<timebase>30</timebase>
																<ntsc>TRUE</ntsc>
															</rate>
															<start>1373</start>
															<end>1473</end>
															<in>553</in>
															<out>653</out>
															<pproTicksIn>4687043961600</pproTicksIn>
															<pproTicksOut>5534610681600</pproTicksOut>
															<alphatype>none</alphatype>
															<file id="file-60"/>
															<logginginfo>
																<description></description>
																<scene></scene>
																<shottake></shottake>
																<lognote></lognote>
																<good></good>
																<originalvideofilename></originalvideofilename>
																<originalaudiofilename></originalaudiofilename>
															</logginginfo>
															<colorinfo>
																<lut></lut>
																<lut1></lut1>
																<asc_sop></asc_sop>
																<asc_sat></asc_sat>
																<lut2></lut2>
															</colorinfo>
															<labels>
																<label2>Violet</label2>
															</labels>
														</clipitem>
														<clipitem id="clipitem-179">
															<masterclipid>masterclip-72</masterclipid>
															<name>(daniel.83)_Bntp2fmFObe_IG.mp4</name>
															<enabled>TRUE</enabled>
															<duration>1597</duration>
															<rate>
																<timebase>30</timebase>
																<ntsc>TRUE</ntsc>
															</rate>
															<start>1473</start>
															<end>1572</end>
															<in>729</in>
															<out>828</out>
															<pproTicksIn>6178761388800</pproTicksIn>
															<pproTicksOut>7017852441600</pproTicksOut>
															<alphatype>none</alphatype>
															<file id="file-60"/>
															<logginginfo>
																<description></description>
																<scene></scene>
																<shottake></shottake>
																<lognote></lognote>
																<good></good>
																<originalvideofilename></originalvideofilename>
																<originalaudiofilename></originalaudiofilename>
															</logginginfo>
															<colorinfo>
																<lut></lut>
																<lut1></lut1>
																<asc_sop></asc_sop>
																<asc_sat></asc_sat>
																<lut2></lut2>
															</colorinfo>
															<labels>
																<label2>Violet</label2>
															</labels>
														</clipitem>
														<clipitem id="clipitem-180">
															<masterclipid>masterclip-72</masterclipid>
															<name>(daniel.83)_Bntp2fmFObe_IG.mp4</name>
															<enabled>TRUE</enabled>
															<duration>1597</duration>
															<rate>
																<timebase>30</timebase>
																<ntsc>TRUE</ntsc>
															</rate>
															<start>1572</start>
															<end>1692</end>
															<in>875</in>
															<out>995</out>
															<pproTicksIn>7416208800000</pproTicksIn>
															<pproTicksOut>8433288864000</pproTicksOut>
															<alphatype>none</alphatype>
															<file id="file-60"/>
															<logginginfo>
																<description></description>
																<scene></scene>
																<shottake></shottake>
																<lognote></lognote>
																<good></good>
																<originalvideofilename></originalvideofilename>
																<originalaudiofilename></originalaudiofilename>
															</logginginfo>
															<colorinfo>
																<lut></lut>
																<lut1></lut1>
																<asc_sop></asc_sop>
																<asc_sat></asc_sat>
																<lut2></lut2>
															</colorinfo>
															<labels>
																<label2>Violet</label2>
															</labels>
														</clipitem>
														<clipitem id="clipitem-181">
															<masterclipid>masterclip-72</masterclipid>
															<name>(daniel.83)_Bntp2fmFObe_IG.mp4</name>
															<enabled>TRUE</enabled>
															<duration>1597</duration>
															<rate>
																<timebase>30</timebase>
																<ntsc>TRUE</ntsc>
															</rate>
															<start>1692</start>
															<end>1815</end>
															<in>1383</in>
															<out>1506</out>
															<pproTicksIn>11721847737600</pproTicksIn>
															<pproTicksOut>12764354803200</pproTicksOut>
															<alphatype>none</alphatype>
															<file id="file-60"/>
															<logginginfo>
																<description></description>
																<scene></scene>
																<shottake></shottake>
																<lognote></lognote>
																<good></good>
																<originalvideofilename></originalvideofilename>
																<originalaudiofilename></originalaudiofilename>
															</logginginfo>
															<colorinfo>
																<lut></lut>
																<lut1></lut1>
																<asc_sop></asc_sop>
																<asc_sat></asc_sat>
																<lut2></lut2>
															</colorinfo>
															<labels>
																<label2>Violet</label2>
															</labels>
														</clipitem>
														<clipitem id="clipitem-182">
															<masterclipid>masterclip-73</masterclipid>
															<name>(sugarandsparrowco)_CQ1LcsSjxfE_IG.mp4</name>
															<enabled>TRUE</enabled>
															<duration>578</duration>
															<rate>
																<timebase>30</timebase>
																<ntsc>TRUE</ntsc>
															</rate>
															<start>1815</start>
															<end>2394</end>
															<in>0</in>
															<out>579</out>
															<pproTicksIn>0</pproTicksIn>
															<pproTicksOut>6866899200000</pproTicksOut>
															<alphatype>none</alphatype>
															<pixelaspectratio>square</pixelaspectratio>
															<anamorphic>FALSE</anamorphic>
															<file id="file-61">
																<name>(sugarandsparrowco)_CQ1LcsSjxfE_IG.mp4</name>
																<pathurl>file://localhost/Volumes/ATM%201/EYE%20CANDY/8%3a14%3a23/3_Raw%20Files/space/(sugarandsparrowco)_CQ1LcsSjxfE_IG.mp4</pathurl>
																<rate>
																	<timebase>30</timebase>
																	<ntsc>FALSE</ntsc>
																</rate>
																<duration>811</duration>
																<timecode>
																	<rate>
																		<timebase>30</timebase>
																		<ntsc>FALSE</ntsc>
																	</rate>
																	<string>00:00:00:00</string>
																	<frame>0</frame>
																	<displayformat>NDF</displayformat>
																</timecode>
																<media>
																	<video>
																		<samplecharacteristics>
																			<rate>
																				<timebase>30</timebase>
																				<ntsc>FALSE</ntsc>
																			</rate>
																			<width>720</width>
																			<height>1280</height>
																			<anamorphic>FALSE</anamorphic>
																			<pixelaspectratio>square</pixelaspectratio>
																			<fielddominance>none</fielddominance>
																		</samplecharacteristics>
																	</video>
																	<audio>
																		<samplecharacteristics>
																			<depth>16</depth>
																			<samplerate>44100</samplerate>
																		</samplecharacteristics>
																		<channelcount>2</channelcount>
																	</audio>
																</media>
															</file>
															<filter>
																<effect>
																	<name>Time Remap</name>
																	<effectid>timeremap</effectid>
																	<effectcategory>motion</effectcategory>
																	<effecttype>motion</effecttype>
																	<mediatype>video</mediatype>
																	<parameter authoringApp="PremierePro">
																		<parameterid>variablespeed</parameterid>
																		<name>variablespeed</name>
																		<valuemin>0</valuemin>
																		<valuemax>1</valuemax>
																		<value>0</value>
																	</parameter>
																	<parameter authoringApp="PremierePro">
																		<parameterid>speed</parameterid>
																		<name>speed</name>
																		<valuemin>-100000</valuemin>
																		<valuemax>100000</valuemax>
																		<value>139.929</value>
																	</parameter>
																	<parameter authoringApp="PremierePro">
																		<parameterid>reverse</parameterid>
																		<name>reverse</name>
																		<value>FALSE</value>
																	</parameter>
																	<parameter authoringApp="PremierePro">
																		<parameterid>frameblending</parameterid>
																		<name>frameblending</name>
																		<value>FALSE</value>
																	</parameter>
																	<parameter authoringApp="PremierePro">
																		<parameterid>graphdict</parameterid>
																		<name>graphdict</name>
																		<valuemin>0</valuemin>
																		<valuemax>808</valuemax>
																		<value>0</value>
																		<keyframe>
																			<when>0</when>
																			<value>0</value>
																			<speedvirtualkf>TRUE</speedvirtualkf>
																			<speedkfin>TRUE</speedkfin>
																		</keyframe>
																		<keyframe>
																			<when>578</when>
																			<value>808</value>
																			<speedvirtualkf>TRUE</speedvirtualkf>
																			<speedkfout>TRUE</speedkfout>
																		</keyframe>
																		<interpolation>
																			<name>FCPCurve</name>
																		</interpolation>
																	</parameter>
																</effect>
															</filter>
															<logginginfo>
																<description></description>
																<scene></scene>
																<shottake></shottake>
																<lognote></lognote>
																<good></good>
																<originalvideofilename></originalvideofilename>
																<originalaudiofilename></originalaudiofilename>
															</logginginfo>
															<colorinfo>
																<lut></lut>
																<lut1></lut1>
																<asc_sop></asc_sop>
																<asc_sat></asc_sat>
																<lut2></lut2>
															</colorinfo>
															<labels>
																<label2>Violet</label2>
															</labels>
														</clipitem>
														<clipitem id="clipitem-183">
															<masterclipid>masterclip-74</masterclipid>
															<name>(gabby.jaye)_7067642196136086831_TT.mp4</name>
															<enabled>TRUE</enabled>
															<duration>782</duration>
															<rate>
																<timebase>30</timebase>
																<ntsc>TRUE</ntsc>
															</rate>
															<start>2394</start>
															<end>2886</end>
															<in>95</in>
															<out>587</out>
															<pproTicksIn>805188384000</pproTicksIn>
															<pproTicksOut>4975216646400</pproTicksOut>
															<alphatype>none</alphatype>
															<pixelaspectratio>square</pixelaspectratio>
															<anamorphic>FALSE</anamorphic>
															<file id="file-62">
																<name>(gabby.jaye)_7067642196136086831_TT.mp4</name>
																<pathurl>file://localhost/Volumes/ATM%201/EYE%20CANDY/8%3a14%3a23/3_Raw%20Files/space/(gabby.jaye)_7067642196136086831_TT.mp4</pathurl>
																<rate>
																	<timebase>30</timebase>
																	<ntsc>FALSE</ntsc>
																</rate>
																<duration>801</duration>
																<timecode>
																	<rate>
																		<timebase>30</timebase>
																		<ntsc>FALSE</ntsc>
																	</rate>
																	<string>00:00:00:00</string>
																	<frame>0</frame>
																	<displayformat>NDF</displayformat>
																</timecode>
																<media>
																	<video>
																		<samplecharacteristics>
																			<rate>
																				<timebase>30</timebase>
																				<ntsc>FALSE</ntsc>
																			</rate>
																			<width>576</width>
																			<height>1124</height>
																			<anamorphic>FALSE</anamorphic>
																			<pixelaspectratio>square</pixelaspectratio>
																			<fielddominance>none</fielddominance>
																		</samplecharacteristics>
																	</video>
																	<audio>
																		<samplecharacteristics>
																			<depth>16</depth>
																			<samplerate>44100</samplerate>
																		</samplecharacteristics>
																		<channelcount>2</channelcount>
																	</audio>
																</media>
															</file>
															<filter>
																<effect>
																	<name>Basic Motion</name>
																	<effectid>basic</effectid>
																	<effectcategory>motion</effectcategory>
																	<effecttype>motion</effecttype>
																	<mediatype>video</mediatype>
																	<pproBypass>false</pproBypass>
																	<parameter authoringApp="PremierePro">
																		<parameterid>scale</parameterid>
																		<name>Scale</name>
																		<valuemin>0</valuemin>
																		<valuemax>1000</valuemax>
																		<value>110</value>
																	</parameter>
																	<parameter authoringApp="PremierePro">
																		<parameterid>rotation</parameterid>
																		<name>Rotation</name>
																		<valuemin>-8640</valuemin>
																		<valuemax>8640</valuemax>
																		<value>0</value>
																	</parameter>
																	<parameter authoringApp="PremierePro">
																		<parameterid>center</parameterid>
																		<name>Center</name>
																		<value>
																			<horiz>0</horiz>
																			<vert>0</vert>
																		</value>
																	</parameter>
																	<parameter authoringApp="PremierePro">
																		<parameterid>centerOffset</parameterid>
																		<name>Anchor Point</name>
																		<value>
																			<horiz>0</horiz>
																			<vert>0</vert>
																		</value>
																	</parameter>
																	<parameter authoringApp="PremierePro">
																		<parameterid>antiflicker</parameterid>
																		<name>Anti-flicker Filter</name>
																		<valuemin>0.0</valuemin>
																		<valuemax>1.0</valuemax>
																		<value>0</value>
																	</parameter>
																</effect>
															</filter>
															<logginginfo>
																<description></description>
																<scene></scene>
																<shottake></shottake>
																<lognote></lognote>
																<good></good>
																<originalvideofilename></originalvideofilename>
																<originalaudiofilename></originalaudiofilename>
															</logginginfo>
															<colorinfo>
																<lut></lut>
																<lut1></lut1>
																<asc_sop></asc_sop>
																<asc_sat></asc_sat>
																<lut2></lut2>
															</colorinfo>
															<labels>
																<label2>Violet</label2>
															</labels>
														</clipitem>
														<clipitem id="clipitem-184">
															<masterclipid>masterclip-74</masterclipid>
															<name>(gabby.jaye)_7067642196136086831_TT.mp4</name>
															<enabled>TRUE</enabled>
															<duration>782</duration>
															<rate>
																<timebase>30</timebase>
																<ntsc>TRUE</ntsc>
															</rate>
															<start>2886</start>
															<end>2942</end>
															<in>682</in>
															<out>738</out>
															<pproTicksIn>5780405030400</pproTicksIn>
															<pproTicksOut>6255042393600</pproTicksOut>
															<alphatype>none</alphatype>
															<file id="file-62"/>
															<filter>
																<effect>
																	<name>Basic Motion</name>
																	<effectid>basic</effectid>
																	<effectcategory>motion</effectcategory>
																	<effecttype>motion</effecttype>
																	<mediatype>video</mediatype>
																	<pproBypass>false</pproBypass>
																	<parameter authoringApp="PremierePro">
																		<parameterid>scale</parameterid>
																		<name>Scale</name>
																		<valuemin>0</valuemin>
																		<valuemax>1000</valuemax>
																		<value>110</value>
																	</parameter>
																	<parameter authoringApp="PremierePro">
																		<parameterid>rotation</parameterid>
																		<name>Rotation</name>
																		<valuemin>-8640</valuemin>
																		<valuemax>8640</valuemax>
																		<value>0</value>
																	</parameter>
																	<parameter authoringApp="PremierePro">
																		<parameterid>center</parameterid>
																		<name>Center</name>
																		<value>
																			<horiz>0</horiz>
																			<vert>0</vert>
																		</value>
																	</parameter>
																	<parameter authoringApp="PremierePro">
																		<parameterid>centerOffset</parameterid>
																		<name>Anchor Point</name>
																		<value>
																			<horiz>0</horiz>
																			<vert>0</vert>
																		</value>
																	</parameter>
																	<parameter authoringApp="PremierePro">
																		<parameterid>antiflicker</parameterid>
																		<name>Anti-flicker Filter</name>
																		<valuemin>0.0</valuemin>
																		<valuemax>1.0</valuemax>
																		<value>0</value>
																	</parameter>
																</effect>
															</filter>
															<filter>
																<effect>
																	<name>Gaussian Blur</name>
																	<effectid>Gaussian Blur</effectid>
																	<effectcategory>Blur</effectcategory>
																	<effecttype>motion</effecttype>
																	<mediatype>video</mediatype>
																	<pproBypass>false</pproBypass>
																	<parameter authoringApp="PremierePro">
																		<parameterid>radius</parameterid>
																		<name>Radius</name>
																		<valuemin>0</valuemin>
																		<valuemax>100</valuemax>
																		<value>64</value>
																	</parameter>
																</effect>
															</filter>
															<logginginfo>
																<description></description>
																<scene></scene>
																<shottake></shottake>
																<lognote></lognote>
																<good></good>
																<originalvideofilename></originalvideofilename>
																<originalaudiofilename></originalaudiofilename>
															</logginginfo>
															<colorinfo>
																<lut></lut>
																<lut1></lut1>
																<asc_sop></asc_sop>
																<asc_sat></asc_sat>
																<lut2></lut2>
															</colorinfo>
															<labels>
																<label2>Violet</label2>
															</labels>
														</clipitem>
														<clipitem id="clipitem-185">
															<masterclipid>masterclip-75</masterclipid>
															<name>(bakedbyprecious)_7089443248351087918_TT.mp4</name>
															<enabled>TRUE</enabled>
															<duration>440</duration>
															<rate>
																<timebase>30</timebase>
																<ntsc>TRUE</ntsc>
															</rate>
															<start>2942</start>
															<end>3382</end>
															<in>0</in>
															<out>440</out>
															<pproTicksIn>0</pproTicksIn>
															<pproTicksOut>3729293568000</pproTicksOut>
															<alphatype>none</alphatype>
															<pixelaspectratio>square</pixelaspectratio>
															<anamorphic>FALSE</anamorphic>
															<file id="file-63">
																<name>(bakedbyprecious)_7089443248351087918_TT.mp4</name>
																<pathurl>file://localhost/Volumes/ATM%201/EYE%20CANDY/8%3a14%3a23/3_Raw%20Files/space/(bakedbyprecious)_7089443248351087918_TT.mp4</pathurl>
																<rate>
																	<timebase>30</timebase>
																	<ntsc>FALSE</ntsc>
																</rate>
																<duration>441</duration>
																<timecode>
																	<rate>
																		<timebase>30</timebase>
																		<ntsc>FALSE</ntsc>
																	</rate>
																	<string>00:00:00:00</string>
																	<frame>0</frame>
																	<displayformat>NDF</displayformat>
																</timecode>
																<media>
																	<video>
																		<samplecharacteristics>
																			<rate>
																				<timebase>30</timebase>
																				<ntsc>FALSE</ntsc>
																			</rate>
																			<width>576</width>
																			<height>1026</height>
																			<anamorphic>FALSE</anamorphic>
																			<pixelaspectratio>square</pixelaspectratio>
																			<fielddominance>none</fielddominance>
																		</samplecharacteristics>
																	</video>
																	<audio>
																		<samplecharacteristics>
																			<depth>16</depth>
																			<samplerate>44100</samplerate>
																		</samplecharacteristics>
																		<channelcount>2</channelcount>
																	</audio>
																</media>
															</file>
															<logginginfo>
																<description></description>
																<scene></scene>
																<shottake></shottake>
																<lognote></lognote>
																<good></good>
																<originalvideofilename></originalvideofilename>
																<originalaudiofilename></originalaudiofilename>
															</logginginfo>
															<colorinfo>
																<lut></lut>
																<lut1></lut1>
																<asc_sop></asc_sop>
																<asc_sat></asc_sat>
																<lut2></lut2>
															</colorinfo>
															<labels>
																<label2>Violet</label2>
															</labels>
														</clipitem>
														<enabled>TRUE</enabled>
														<locked>FALSE</locked>
													</track>
													<track TL.SQTrackShy="0" TL.SQTrackExpandedHeight="25" TL.SQTrackExpanded="0" MZ.TrackTargeted="0">
														<clipitem id="clipitem-186">
															<masterclipid>masterclip-6</masterclipid>
															<name># Eyecandy Vertical Video Frame 4</name>
															<enabled>TRUE</enabled>
															<duration>5700</duration>
															<rate>
																<timebase>30</timebase>
																<ntsc>TRUE</ntsc>
															</rate>
															<start>0</start>
															<end>566</end>
															<in>95</in>
															<out>661</out>
															<pproTicksIn>805188384000</pproTicksIn>
															<pproTicksOut>5602416019200</pproTicksOut>
															<alphatype>straight</alphatype>
															<file id="file-5"/>
															<logginginfo>
																<description></description>
																<scene></scene>
																<shottake></shottake>
																<lognote></lognote>
																<good></good>
																<originalvideofilename></originalvideofilename>
																<originalaudiofilename></originalaudiofilename>
															</logginginfo>
															<colorinfo>
																<lut></lut>
																<lut1></lut1>
																<asc_sop></asc_sop>
																<asc_sat></asc_sat>
																<lut2></lut2>
															</colorinfo>
															<labels>
																<label2>Teal</label2>
															</labels>
														</clipitem>
														<clipitem id="clipitem-187">
															<masterclipid>masterclip-6</masterclipid>
															<name># Eyecandy Vertical Video Frame 4</name>
															<enabled>TRUE</enabled>
															<duration>5700</duration>
															<rate>
																<timebase>30</timebase>
																<ntsc>TRUE</ntsc>
															</rate>
															<start>566</start>
															<end>1137</end>
															<in>661</in>
															<out>1232</out>
															<pproTicksIn>5602416019200</pproTicksIn>
															<pproTicksOut>10442021990400</pproTicksOut>
															<alphatype>straight</alphatype>
															<file id="file-5"/>
															<logginginfo>
																<description></description>
																<scene></scene>
																<shottake></shottake>
																<lognote></lognote>
																<good></good>
																<originalvideofilename></originalvideofilename>
																<originalaudiofilename></originalaudiofilename>
															</logginginfo>
															<colorinfo>
																<lut></lut>
																<lut1></lut1>
																<asc_sop></asc_sop>
																<asc_sat></asc_sat>
																<lut2></lut2>
															</colorinfo>
															<labels>
																<label2>Teal</label2>
															</labels>
														</clipitem>
														<clipitem id="clipitem-188">
															<masterclipid>masterclip-6</masterclipid>
															<name># Eyecandy Vertical Video Frame 4</name>
															<enabled>TRUE</enabled>
															<duration>5700</duration>
															<rate>
																<timebase>30</timebase>
																<ntsc>TRUE</ntsc>
															</rate>
															<start>1137</start>
															<end>1815</end>
															<in>1232</in>
															<out>1910</out>
															<pproTicksIn>10442021990400</pproTicksIn>
															<pproTicksOut>16188524352000</pproTicksOut>
															<alphatype>straight</alphatype>
															<file id="file-5"/>
															<logginginfo>
																<description></description>
																<scene></scene>
																<shottake></shottake>
																<lognote></lognote>
																<good></good>
																<originalvideofilename></originalvideofilename>
																<originalaudiofilename></originalaudiofilename>
															</logginginfo>
															<colorinfo>
																<lut></lut>
																<lut1></lut1>
																<asc_sop></asc_sop>
																<asc_sat></asc_sat>
																<lut2></lut2>
															</colorinfo>
															<labels>
																<label2>Teal</label2>
															</labels>
														</clipitem>
														<clipitem id="clipitem-189">
															<masterclipid>masterclip-6</masterclipid>
															<name># Eyecandy Vertical Video Frame 4</name>
															<enabled>TRUE</enabled>
															<duration>5700</duration>
															<rate>
																<timebase>30</timebase>
																<ntsc>TRUE</ntsc>
															</rate>
															<start>1815</start>
															<end>2394</end>
															<in>1910</in>
															<out>2489</out>
															<pproTicksIn>16188524352000</pproTicksIn>
															<pproTicksOut>21095935660800</pproTicksOut>
															<alphatype>straight</alphatype>
															<file id="file-5"/>
															<logginginfo>
																<description></description>
																<scene></scene>
																<shottake></shottake>
																<lognote></lognote>
																<good></good>
																<originalvideofilename></originalvideofilename>
																<originalaudiofilename></originalaudiofilename>
															</logginginfo>
															<colorinfo>
																<lut></lut>
																<lut1></lut1>
																<asc_sop></asc_sop>
																<asc_sat></asc_sat>
																<lut2></lut2>
															</colorinfo>
															<labels>
																<label2>Teal</label2>
															</labels>
														</clipitem>
														<clipitem id="clipitem-190">
															<masterclipid>masterclip-6</masterclipid>
															<name># Eyecandy Vertical Video Frame 4</name>
															<enabled>TRUE</enabled>
															<duration>5700</duration>
															<rate>
																<timebase>30</timebase>
																<ntsc>TRUE</ntsc>
															</rate>
															<start>2394</start>
															<end>2942</end>
															<in>2489</in>
															<out>3037</out>
															<pproTicksIn>21095935660800</pproTicksIn>
															<pproTicksOut>25740601286400</pproTicksOut>
															<alphatype>straight</alphatype>
															<file id="file-5"/>
															<logginginfo>
																<description></description>
																<scene></scene>
																<shottake></shottake>
																<lognote></lognote>
																<good></good>
																<originalvideofilename></originalvideofilename>
																<originalaudiofilename></originalaudiofilename>
															</logginginfo>
															<colorinfo>
																<lut></lut>
																<lut1></lut1>
																<asc_sop></asc_sop>
																<asc_sat></asc_sat>
																<lut2></lut2>
															</colorinfo>
															<labels>
																<label2>Teal</label2>
															</labels>
														</clipitem>
														<clipitem id="clipitem-191">
															<masterclipid>masterclip-6</masterclipid>
															<name># Eyecandy Vertical Video Frame 4</name>
															<enabled>TRUE</enabled>
															<duration>5700</duration>
															<rate>
																<timebase>30</timebase>
																<ntsc>TRUE</ntsc>
															</rate>
															<start>2942</start>
															<end>3382</end>
															<in>3037</in>
															<out>3477</out>
															<pproTicksIn>25740601286400</pproTicksIn>
															<pproTicksOut>29469894854400</pproTicksOut>
															<alphatype>straight</alphatype>
															<file id="file-5"/>
															<logginginfo>
																<description></description>
																<scene></scene>
																<shottake></shottake>
																<lognote></lognote>
																<good></good>
																<originalvideofilename></originalvideofilename>
																<originalaudiofilename></originalaudiofilename>
															</logginginfo>
															<colorinfo>
																<lut></lut>
																<lut1></lut1>
																<asc_sop></asc_sop>
																<asc_sat></asc_sat>
																<lut2></lut2>
															</colorinfo>
															<labels>
																<label2>Teal</label2>
															</labels>
														</clipitem>
														<enabled>TRUE</enabled>
														<locked>FALSE</locked>
													</track>
													<track TL.SQTrackShy="0" TL.SQTrackExpandedHeight="25" TL.SQTrackExpanded="0" MZ.TrackTargeted="0">
														<enabled>TRUE</enabled>
														<locked>FALSE</locked>
													</track>
													<track TL.SQTrackShy="0" TL.SQTrackExpandedHeight="25" TL.SQTrackExpanded="0" MZ.TrackTargeted="0">
														<enabled>TRUE</enabled>
														<locked>FALSE</locked>
													</track>
													<track TL.SQTrackShy="0" TL.SQTrackExpandedHeight="25" TL.SQTrackExpanded="0" MZ.TrackTargeted="0">
														<enabled>TRUE</enabled>
														<locked>FALSE</locked>
													</track>
													<track TL.SQTrackShy="0" TL.SQTrackExpandedHeight="25" TL.SQTrackExpanded="0" MZ.TrackTargeted="0">
														<enabled>TRUE</enabled>
														<locked>FALSE</locked>
													</track>
													<track TL.SQTrackShy="0" TL.SQTrackExpandedHeight="25" TL.SQTrackExpanded="0" MZ.TrackTargeted="0">
														<enabled>TRUE</enabled>
														<locked>FALSE</locked>
													</track>
													<track TL.SQTrackShy="0" TL.SQTrackExpandedHeight="25" TL.SQTrackExpanded="0" MZ.TrackTargeted="0">
														<enabled>TRUE</enabled>
														<locked>FALSE</locked>
													</track>
													<track TL.SQTrackShy="0" TL.SQTrackExpandedHeight="25" TL.SQTrackExpanded="0" MZ.TrackTargeted="0">
														<enabled>TRUE</enabled>
														<locked>FALSE</locked>
													</track>
													<track TL.SQTrackShy="0" TL.SQTrackExpandedHeight="25" TL.SQTrackExpanded="0" MZ.TrackTargeted="0">
														<enabled>TRUE</enabled>
														<locked>FALSE</locked>
													</track>
												</video>
												<audio>
													<numOutputChannels>2</numOutputChannels>
													<format>
														<samplecharacteristics>
															<depth>16</depth>
															<samplerate>48000</samplerate>
														</samplecharacteristics>
													</format>
													<outputs>
														<group>
															<index>1</index>
															<numchannels>1</numchannels>
															<downmix>0</downmix>
															<channel>
																<index>1</index>
															</channel>
														</group>
														<group>
															<index>2</index>
															<numchannels>1</numchannels>
															<downmix>0</downmix>
															<channel>
																<index>2</index>
															</channel>
														</group>
													</outputs>
													<track TL.SQTrackAudioKeyframeStyle="0" TL.SQTrackShy="0" TL.SQTrackExpandedHeight="25" TL.SQTrackExpanded="0" MZ.TrackTargeted="1" PannerCurrentValue="0.5" PannerIsInverted="true" PannerStartKeyframe="-91445760000000000,0.5,0,0,0,0,0,0" PannerName="Balance" currentExplodedTrackIndex="0" totalExplodedTrackCount="2" premiereTrackType="Stereo">
														<clipitem id="clipitem-192" premiereChannelType="stereo">
															<masterclipid>masterclip-76</masterclipid>
															<name>ES_Why Not_ - Victor Lundberg.mp3</name>
															<enabled>TRUE</enabled>
															<duration>6532</duration>
															<rate>
																<timebase>30</timebase>
																<ntsc>TRUE</ntsc>
															</rate>
															<start>0</start>
															<end>3382</end>
															<in>0</in>
															<out>3382</out>
															<pproTicksIn>0</pproTicksIn>
															<pproTicksOut>28664706470400</pproTicksOut>
															<file id="file-64">
																<name>ES_Why Not_ - Victor Lundberg.mp3</name>
																<pathurl>file://localhost/Volumes/ATM%201/EYE%20CANDY/8%3a14%3a23/5_Assets/Music/ES_Why%20Not_%20-%20Victor%20Lundberg.mp3</pathurl>
																<rate>
																	<timebase>30</timebase>
																	<ntsc>TRUE</ntsc>
																</rate>
																<duration>6532</duration>
																<timecode>
																	<rate>
																		<timebase>30</timebase>
																		<ntsc>TRUE</ntsc>
																	</rate>
																	<string>00;00;00;00</string>
																	<frame>0</frame>
																	<displayformat>DF</displayformat>
																</timecode>
																<media>
																	<audio>
																		<samplecharacteristics>
																			<depth>16</depth>
																			<samplerate>48000</samplerate>
																		</samplecharacteristics>
																		<channelcount>2</channelcount>
																	</audio>
																</media>
															</file>
															<sourcetrack>
																<mediatype>audio</mediatype>
																<trackindex>1</trackindex>
															</sourcetrack>
															<link>
																<linkclipref>clipitem-192</linkclipref>
																<mediatype>audio</mediatype>
																<trackindex>1</trackindex>
																<clipindex>1</clipindex>
																<groupindex>1</groupindex>
															</link>
															<link>
																<linkclipref>clipitem-193</linkclipref>
																<mediatype>audio</mediatype>
																<trackindex>2</trackindex>
																<clipindex>1</clipindex>
																<groupindex>1</groupindex>
															</link>
															<logginginfo>
																<description></description>
																<scene></scene>
																<shottake></shottake>
																<lognote></lognote>
																<good></good>
																<originalvideofilename></originalvideofilename>
																<originalaudiofilename></originalaudiofilename>
															</logginginfo>
															<colorinfo>
																<lut></lut>
																<lut1></lut1>
																<asc_sop></asc_sop>
																<asc_sat></asc_sat>
																<lut2></lut2>
															</colorinfo>
															<labels>
																<label2>Caribbean</label2>
															</labels>
														</clipitem>
														<enabled>TRUE</enabled>
														<locked>FALSE</locked>
														<filter>
															<effect>
																<name>Audio Levels</name>
																<effectid>audiolevels</effectid>
																<effectcategory>audiolevels</effectcategory>
																<effecttype>audiolevels</effecttype>
																<mediatype>audio</mediatype>
																<parameter authoringApp="PremierePro">
																	<parameterid>level</parameterid>
																	<name>Level</name>
																	<valuemin>0</valuemin>
																	<valuemax>3.98109</valuemax>
																	<value>0.706272</value>
																</parameter>
															</effect>
														</filter>
														<outputchannelindex>1</outputchannelindex>
													</track>
													<track TL.SQTrackAudioKeyframeStyle="0" TL.SQTrackShy="0" TL.SQTrackExpandedHeight="25" TL.SQTrackExpanded="0" MZ.TrackTargeted="1" PannerCurrentValue="0.5" PannerIsInverted="true" PannerStartKeyframe="-91445760000000000,0.5,0,0,0,0,0,0" PannerName="Balance" currentExplodedTrackIndex="1" totalExplodedTrackCount="2" premiereTrackType="Stereo">
														<clipitem id="clipitem-193" premiereChannelType="stereo">
															<masterclipid>masterclip-76</masterclipid>
															<name>ES_Why Not_ - Victor Lundberg.mp3</name>
															<enabled>TRUE</enabled>
															<duration>6532</duration>
															<rate>
																<timebase>30</timebase>
																<ntsc>TRUE</ntsc>
															</rate>
															<start>0</start>
															<end>3382</end>
															<in>0</in>
															<out>3382</out>
															<pproTicksIn>0</pproTicksIn>
															<pproTicksOut>28664706470400</pproTicksOut>
															<file id="file-64"/>
															<sourcetrack>
																<mediatype>audio</mediatype>
																<trackindex>2</trackindex>
															</sourcetrack>
															<link>
																<linkclipref>clipitem-192</linkclipref>
																<mediatype>audio</mediatype>
																<trackindex>1</trackindex>
																<clipindex>1</clipindex>
																<groupindex>1</groupindex>
															</link>
															<link>
																<linkclipref>clipitem-193</linkclipref>
																<mediatype>audio</mediatype>
																<trackindex>2</trackindex>
																<clipindex>1</clipindex>
																<groupindex>1</groupindex>
															</link>
															<logginginfo>
																<description></description>
																<scene></scene>
																<shottake></shottake>
																<lognote></lognote>
																<good></good>
																<originalvideofilename></originalvideofilename>
																<originalaudiofilename></originalaudiofilename>
															</logginginfo>
															<colorinfo>
																<lut></lut>
																<lut1></lut1>
																<asc_sop></asc_sop>
																<asc_sat></asc_sat>
																<lut2></lut2>
															</colorinfo>
															<labels>
																<label2>Caribbean</label2>
															</labels>
														</clipitem>
														<enabled>TRUE</enabled>
														<locked>FALSE</locked>
														<filter>
															<effect>
																<name>Audio Levels</name>
																<effectid>audiolevels</effectid>
																<effectcategory>audiolevels</effectcategory>
																<effecttype>audiolevels</effecttype>
																<mediatype>audio</mediatype>
																<parameter authoringApp="PremierePro">
																	<parameterid>level</parameterid>
																	<name>Level</name>
																	<valuemin>0</valuemin>
																	<valuemax>3.98109</valuemax>
																	<value>0.706272</value>
																</parameter>
															</effect>
														</filter>
														<outputchannelindex>2</outputchannelindex>
													</track>
													<track TL.SQTrackAudioKeyframeStyle="0" TL.SQTrackShy="0" TL.SQTrackExpandedHeight="25" TL.SQTrackExpanded="0" MZ.TrackTargeted="0" PannerCurrentValue="0.5" PannerIsInverted="true" PannerStartKeyframe="-91445760000000000,0.5,0,0,0,0,0,0" PannerName="Balance" currentExplodedTrackIndex="0" totalExplodedTrackCount="2" premiereTrackType="Stereo">
														<enabled>TRUE</enabled>
														<locked>FALSE</locked>
														<outputchannelindex>1</outputchannelindex>
													</track>
													<track TL.SQTrackAudioKeyframeStyle="0" TL.SQTrackShy="0" TL.SQTrackExpandedHeight="25" TL.SQTrackExpanded="0" MZ.TrackTargeted="0" PannerCurrentValue="0.5" PannerIsInverted="true" PannerStartKeyframe="-91445760000000000,0.5,0,0,0,0,0,0" PannerName="Balance" currentExplodedTrackIndex="1" totalExplodedTrackCount="2" premiereTrackType="Stereo">
														<enabled>TRUE</enabled>
														<locked>FALSE</locked>
														<outputchannelindex>2</outputchannelindex>
													</track>
													<track TL.SQTrackAudioKeyframeStyle="0" TL.SQTrackShy="0" TL.SQTrackExpandedHeight="25" TL.SQTrackExpanded="0" MZ.TrackTargeted="0" PannerCurrentValue="0.5" PannerIsInverted="true" PannerStartKeyframe="-91445760000000000,0.5,0,0,0,0,0,0" PannerName="Balance" currentExplodedTrackIndex="0" totalExplodedTrackCount="2" premiereTrackType="Stereo">
														<enabled>TRUE</enabled>
														<locked>FALSE</locked>
														<outputchannelindex>1</outputchannelindex>
													</track>
													<track TL.SQTrackAudioKeyframeStyle="0" TL.SQTrackShy="0" TL.SQTrackExpandedHeight="25" TL.SQTrackExpanded="0" MZ.TrackTargeted="0" PannerCurrentValue="0.5" PannerIsInverted="true" PannerStartKeyframe="-91445760000000000,0.5,0,0,0,0,0,0" PannerName="Balance" currentExplodedTrackIndex="1" totalExplodedTrackCount="2" premiereTrackType="Stereo">
														<enabled>TRUE</enabled>
														<locked>FALSE</locked>
														<outputchannelindex>2</outputchannelindex>
													</track>
													<track TL.SQTrackAudioKeyframeStyle="0" TL.SQTrackShy="0" TL.SQTrackExpandedHeight="25" TL.SQTrackExpanded="0" MZ.TrackTargeted="0" PannerCurrentValue="0.5" PannerIsInverted="true" PannerStartKeyframe="-91445760000000000,0.5,0,0,0,0,0,0" PannerName="Balance" currentExplodedTrackIndex="0" totalExplodedTrackCount="2" premiereTrackType="Stereo">
														<enabled>TRUE</enabled>
														<locked>FALSE</locked>
														<outputchannelindex>1</outputchannelindex>
													</track>
													<track TL.SQTrackAudioKeyframeStyle="0" TL.SQTrackShy="0" TL.SQTrackExpandedHeight="25" TL.SQTrackExpanded="0" MZ.TrackTargeted="0" PannerCurrentValue="0.5" PannerIsInverted="true" PannerStartKeyframe="-91445760000000000,0.5,0,0,0,0,0,0" PannerName="Balance" currentExplodedTrackIndex="1" totalExplodedTrackCount="2" premiereTrackType="Stereo">
														<enabled>TRUE</enabled>
														<locked>FALSE</locked>
														<outputchannelindex>2</outputchannelindex>
													</track>
													<track TL.SQTrackAudioKeyframeStyle="0" TL.SQTrackShy="0" TL.SQTrackExpandedHeight="25" TL.SQTrackExpanded="0" MZ.TrackTargeted="0" PannerCurrentValue="0.5" PannerIsInverted="true" PannerStartKeyframe="-91445760000000000,0.5,0,0,0,0,0,0" PannerName="Balance" currentExplodedTrackIndex="0" totalExplodedTrackCount="2" premiereTrackType="Stereo">
														<enabled>TRUE</enabled>
														<locked>FALSE</locked>
														<outputchannelindex>1</outputchannelindex>
													</track>
													<track TL.SQTrackAudioKeyframeStyle="0" TL.SQTrackShy="0" TL.SQTrackExpandedHeight="25" TL.SQTrackExpanded="0" MZ.TrackTargeted="0" PannerCurrentValue="0.5" PannerIsInverted="true" PannerStartKeyframe="-91445760000000000,0.5,0,0,0,0,0,0" PannerName="Balance" currentExplodedTrackIndex="1" totalExplodedTrackCount="2" premiereTrackType="Stereo">
														<enabled>TRUE</enabled>
														<locked>FALSE</locked>
														<outputchannelindex>2</outputchannelindex>
													</track>
													<track TL.SQTrackAudioKeyframeStyle="0" TL.SQTrackShy="0" TL.SQTrackExpandedHeight="25" TL.SQTrackExpanded="0" MZ.TrackTargeted="0" PannerCurrentValue="0.5" PannerIsInverted="true" PannerStartKeyframe="-91445760000000000,0.5,0,0,0,0,0,0" PannerName="Balance" currentExplodedTrackIndex="0" totalExplodedTrackCount="2" premiereTrackType="Stereo">
														<enabled>TRUE</enabled>
														<locked>FALSE</locked>
														<outputchannelindex>1</outputchannelindex>
													</track>
													<track TL.SQTrackAudioKeyframeStyle="0" TL.SQTrackShy="0" TL.SQTrackExpandedHeight="25" TL.SQTrackExpanded="0" MZ.TrackTargeted="0" PannerCurrentValue="0.5" PannerIsInverted="true" PannerStartKeyframe="-91445760000000000,0.5,0,0,0,0,0,0" PannerName="Balance" currentExplodedTrackIndex="1" totalExplodedTrackCount="2" premiereTrackType="Stereo">
														<enabled>TRUE</enabled>
														<locked>FALSE</locked>
														<outputchannelindex>2</outputchannelindex>
													</track>
													<track TL.SQTrackAudioKeyframeStyle="0" TL.SQTrackShy="0" TL.SQTrackExpandedHeight="25" TL.SQTrackExpanded="0" MZ.TrackTargeted="0" PannerCurrentValue="0.5" PannerIsInverted="true" PannerStartKeyframe="-91445760000000000,0.5,0,0,0,0,0,0" PannerName="Balance" currentExplodedTrackIndex="0" totalExplodedTrackCount="2" premiereTrackType="Stereo">
														<enabled>TRUE</enabled>
														<locked>FALSE</locked>
														<outputchannelindex>1</outputchannelindex>
													</track>
													<track TL.SQTrackAudioKeyframeStyle="0" TL.SQTrackShy="0" TL.SQTrackExpandedHeight="25" TL.SQTrackExpanded="0" MZ.TrackTargeted="0" PannerCurrentValue="0.5" PannerIsInverted="true" PannerStartKeyframe="-91445760000000000,0.5,0,0,0,0,0,0" PannerName="Balance" currentExplodedTrackIndex="1" totalExplodedTrackCount="2" premiereTrackType="Stereo">
														<enabled>TRUE</enabled>
														<locked>FALSE</locked>
														<outputchannelindex>2</outputchannelindex>
													</track>
													<track TL.SQTrackAudioKeyframeStyle="0" TL.SQTrackShy="0" TL.SQTrackExpandedHeight="25" TL.SQTrackExpanded="0" MZ.TrackTargeted="0" PannerCurrentValue="0.5" PannerIsInverted="true" PannerStartKeyframe="-91445760000000000,0.5,0,0,0,0,0,0" PannerName="Balance" currentExplodedTrackIndex="0" totalExplodedTrackCount="2" premiereTrackType="Stereo">
														<enabled>TRUE</enabled>
														<locked>FALSE</locked>
														<outputchannelindex>1</outputchannelindex>
													</track>
													<track TL.SQTrackAudioKeyframeStyle="0" TL.SQTrackShy="0" TL.SQTrackExpandedHeight="25" TL.SQTrackExpanded="0" MZ.TrackTargeted="0" PannerCurrentValue="0.5" PannerIsInverted="true" PannerStartKeyframe="-91445760000000000,0.5,0,0,0,0,0,0" PannerName="Balance" currentExplodedTrackIndex="1" totalExplodedTrackCount="2" premiereTrackType="Stereo">
														<enabled>TRUE</enabled>
														<locked>FALSE</locked>
														<outputchannelindex>2</outputchannelindex>
													</track>
													<track TL.SQTrackAudioKeyframeStyle="0" TL.SQTrackShy="0" TL.SQTrackExpandedHeight="25" TL.SQTrackExpanded="0" MZ.TrackTargeted="0" PannerCurrentValue="0.5" PannerIsInverted="true" PannerStartKeyframe="-91445760000000000,0.5,0,0,0,0,0,0" PannerName="Balance" currentExplodedTrackIndex="0" totalExplodedTrackCount="2" premiereTrackType="Stereo">
														<enabled>TRUE</enabled>
														<locked>FALSE</locked>
														<outputchannelindex>1</outputchannelindex>
													</track>
													<track TL.SQTrackAudioKeyframeStyle="0" TL.SQTrackShy="0" TL.SQTrackExpandedHeight="25" TL.SQTrackExpanded="0" MZ.TrackTargeted="0" PannerCurrentValue="0.5" PannerIsInverted="true" PannerStartKeyframe="-91445760000000000,0.5,0,0,0,0,0,0" PannerName="Balance" currentExplodedTrackIndex="1" totalExplodedTrackCount="2" premiereTrackType="Stereo">
														<enabled>TRUE</enabled>
														<locked>FALSE</locked>
														<outputchannelindex>2</outputchannelindex>
													</track>
													<track TL.SQTrackAudioKeyframeStyle="0" TL.SQTrackShy="0" TL.SQTrackExpandedHeight="25" TL.SQTrackExpanded="0" MZ.TrackTargeted="0" PannerCurrentValue="0.5" PannerIsInverted="true" PannerStartKeyframe="-91445760000000000,0.5,0,0,0,0,0,0" PannerName="Balance" currentExplodedTrackIndex="0" totalExplodedTrackCount="2" premiereTrackType="Stereo">
														<enabled>TRUE</enabled>
														<locked>FALSE</locked>
														<outputchannelindex>1</outputchannelindex>
													</track>
													<track TL.SQTrackAudioKeyframeStyle="0" TL.SQTrackShy="0" TL.SQTrackExpandedHeight="25" TL.SQTrackExpanded="0" MZ.TrackTargeted="0" PannerCurrentValue="0.5" PannerIsInverted="true" PannerStartKeyframe="-91445760000000000,0.5,0,0,0,0,0,0" PannerName="Balance" currentExplodedTrackIndex="1" totalExplodedTrackCount="2" premiereTrackType="Stereo">
														<enabled>TRUE</enabled>
														<locked>FALSE</locked>
														<outputchannelindex>2</outputchannelindex>
													</track>
												</audio>
											</media>
											<timecode>
												<rate>
													<timebase>30</timebase>
													<ntsc>TRUE</ntsc>
												</rate>
												<string>00;00;00;00</string>
												<frame>0</frame>
												<displayformat>DF</displayformat>
											</timecode>
											<logginginfo>
												<description></description>
												<scene></scene>
												<shottake></shottake>
												<lognote></lognote>
												<good></good>
												<originalvideofilename></originalvideofilename>
												<originalaudiofilename></originalaudiofilename>
											</logginginfo>
										</sequence>
										<link>
											<linkclipref>clipitem-173</linkclipref>
											<mediatype>video</mediatype>
											<trackindex>1</trackindex>
											<clipindex>1</clipindex>
										</link>
										<link>
											<linkclipref>clipitem-210</linkclipref>
											<mediatype>audio</mediatype>
											<trackindex>1</trackindex>
											<clipindex>1</clipindex>
											<groupindex>1</groupindex>
										</link>
										<link>
											<linkclipref>clipitem-212</linkclipref>
											<mediatype>audio</mediatype>
											<trackindex>2</trackindex>
											<clipindex>1</clipindex>
											<groupindex>1</groupindex>
										</link>
										<labels>
											<label2>Forest</label2>
										</labels>
									</clipitem>
									<clipitem id="clipitem-194">
										<masterclipid>masterclip-77</masterclipid>
										<name>Chocolate and Orange the Gourmet Way_1</name>
										<enabled>TRUE</enabled>
										<duration>2850</duration>
										<rate>
											<timebase>30</timebase>
											<ntsc>TRUE</ntsc>
										</rate>
										<start>3464</start>
										<end>5319</end>
										<in>0</in>
										<out>1855</out>
										<pproTicksIn>0</pproTicksIn>
										<pproTicksOut>15722362656000</pproTicksOut>
										<sequence id="sequence-17" TL.SQAudioVisibleBase="0" TL.SQVideoVisibleBase="0" TL.SQVisibleBaseTime="0" TL.SQAVDividerPosition="0.5" TL.SQHideShyTracks="0" TL.SQHeaderWidth="236" TL.SQDataTrackViewControlState="0" Monitor.ProgramZoomOut="15722362656000" Monitor.ProgramZoomIn="0" TL.SQTimePerPixel="0.072184793070247721" AM.TrackVScrollPosition="0" AM.TrackScrollPosition="0" MZ.EditLine="4644665625600" MZ.Sequence.PreviewFrameSizeHeight="1080" MZ.Sequence.PreviewFrameSizeWidth="1920" MZ.Sequence.AudioTimeDisplayFormat="200" MZ.Sequence.PreviewRenderingClassID="1061109567" MZ.Sequence.PreviewRenderingPresetCodec="1634755443" MZ.Sequence.PreviewRenderingPresetPath="EncoderPresets/SequencePreview/35d109db-457b-43c1-9452-9cb7be9f121c/QuickTime.epr" MZ.Sequence.PreviewUseMaxRenderQuality="false" MZ.Sequence.PreviewUseMaxBitDepth="false" MZ.Sequence.EditingModeGUID="35d109db-457b-43c1-9452-9cb7be9f121c" MZ.Sequence.VideoTimeDisplayFormat="102" MZ.WorkOutPoint="1262874412800" MZ.WorkInPoint="0">
											<duration>1855</duration>
											<rate>
												<timebase>30</timebase>
												<ntsc>TRUE</ntsc>
											</rate>
											<name>FND_Chocolate and Orange the Gourmet Way_1</name>
											<media>
												<video>
													<format>
														<samplecharacteristics>
															<rate>
																<timebase>30</timebase>
																<ntsc>TRUE</ntsc>
															</rate>
															<codec>
																<name>Apple ProRes 422</name>
																<appspecificdata>
																	<appname>Final Cut Pro</appname>
																	<appmanufacturer>Apple Inc.</appmanufacturer>
																	<appversion>7.0</appversion>
																	<data>
																		<qtcodec>
																			<codecname>Apple ProRes 422</codecname>
																			<codectypename>Apple ProRes 422</codectypename>
																			<codectypecode>apcn</codectypecode>
																			<codecvendorcode>appl</codecvendorcode>
																			<spatialquality>1024</spatialquality>
																			<temporalquality>0</temporalquality>
																			<keyframerate>0</keyframerate>
																			<datarate>0</datarate>
																		</qtcodec>
																	</data>
																</appspecificdata>
															</codec>
															<width>1920</width>
															<height>1080</height>
															<anamorphic>FALSE</anamorphic>
															<pixelaspectratio>square</pixelaspectratio>
															<fielddominance>none</fielddominance>
															<colordepth>24</colordepth>
														</samplecharacteristics>
													</format>
													<track TL.SQTrackShy="0" TL.SQTrackExpandedHeight="25" TL.SQTrackExpanded="0" MZ.TrackTargeted="1">
														<clipitem id="clipitem-195">
															<masterclipid>masterclip-78</masterclipid>
															<name>71898_Person filling a chocolate syringe and pouring the chocolate onto a tray_By_Lester_Platt_Artlist_HD.mp4</name>
															<enabled>TRUE</enabled>
															<duration>421</duration>
															<rate>
																<timebase>30</timebase>
																<ntsc>TRUE</ntsc>
															</rate>
															<start>0</start>
															<end>388</end>
															<in>0</in>
															<out>388</out>
															<pproTicksIn>0</pproTicksIn>
															<pproTicksOut>3288558873600</pproTicksOut>
															<alphatype>none</alphatype>
															<pixelaspectratio>square</pixelaspectratio>
															<anamorphic>FALSE</anamorphic>
															<file id="file-65">
																<name>71898_Person filling a chocolate syringe and pouring the chocolate onto a tray_By_Lester_Platt_Artlist_HD.mp4</name>
																<pathurl>file://localhost/Volumes/ATM%201/EYE%20CANDY/8%3a14%3a23/3_Raw%20Files/Artlist%20-%20Orange%20Chocolate/71898_Person%20filling%20a%20chocolate%20syringe%20and%20pouring%20the%20chocolate%20onto%20a%20tray_By_Lester_Platt_Artlist_HD.mp4</pathurl>
																<rate>
																	<timebase>24</timebase>
																	<ntsc>TRUE</ntsc>
																</rate>
																<duration>337</duration>
																<timecode>
																	<rate>
																		<timebase>24</timebase>
																		<ntsc>TRUE</ntsc>
																	</rate>
																	<string>22:44:55:05</string>
																	<frame>1965485</frame>
																	<displayformat>NDF</displayformat>
																</timecode>
																<media>
																	<video>
																		<samplecharacteristics>
																			<rate>
																				<timebase>24</timebase>
																				<ntsc>TRUE</ntsc>
																			</rate>
																			<width>1920</width>
																			<height>1080</height>
																			<anamorphic>FALSE</anamorphic>
																			<pixelaspectratio>square</pixelaspectratio>
																			<fielddominance>none</fielddominance>
																		</samplecharacteristics>
																	</video>
																	<audio>
																		<samplecharacteristics>
																			<depth>16</depth>
																			<samplerate>48000</samplerate>
																		</samplecharacteristics>
																		<channelcount>2</channelcount>
																	</audio>
																</media>
															</file>
															<filter>
																<effect>
																	<name>Distort</name>
																	<effectid>deformation</effectid>
																	<effectcategory>motion</effectcategory>
																	<effecttype>motion</effecttype>
																	<mediatype>video</mediatype>
																	<parameter authoringApp="PremierePro">
																		<parameterid>aspect</parameterid>
																		<name>Aspect</name>
																		<valuemin>-10000</valuemin>
																		<valuemax>10000</valuemax>
																		<value>-26.021</value>
																	</parameter>
																</effect>
															</filter>
															<filter>
																<effect>
																	<name>Basic Motion</name>
																	<effectid>basic</effectid>
																	<effectcategory>motion</effectcategory>
																	<effecttype>motion</effecttype>
																	<mediatype>video</mediatype>
																	<parameter authoringApp="PremierePro">
																		<parameterid>scale</parameterid>
																		<name>Scale</name>
																		<value>126.021</value>
																	</parameter>
																</effect>
															</filter>
															<logginginfo>
																<description></description>
																<scene></scene>
																<shottake></shottake>
																<lognote></lognote>
																<good></good>
																<originalvideofilename></originalvideofilename>
																<originalaudiofilename></originalaudiofilename>
															</logginginfo>
															<colorinfo>
																<lut></lut>
																<lut1></lut1>
																<asc_sop></asc_sop>
																<asc_sat></asc_sat>
																<lut2></lut2>
															</colorinfo>
															<labels>
																<label2>Violet</label2>
															</labels>
														</clipitem>
														<clipitem id="clipitem-196">
															<masterclipid>masterclip-79</masterclipid>
															<name>71892_Woman pouring chocolate onto a tray from a chocolate syringe_By_Lester_Platt_Artlist_HD.mp4</name>
															<enabled>TRUE</enabled>
															<duration>298</duration>
															<rate>
																<timebase>30</timebase>
																<ntsc>TRUE</ntsc>
															</rate>
															<start>388</start>
															<end>686</end>
															<in>0</in>
															<out>298</out>
															<pproTicksIn>0</pproTicksIn>
															<pproTicksOut>2525748825600</pproTicksOut>
															<alphatype>none</alphatype>
															<pixelaspectratio>square</pixelaspectratio>
															<anamorphic>FALSE</anamorphic>
															<file id="file-66">
																<name>71892_Woman pouring chocolate onto a tray from a chocolate syringe_By_Lester_Platt_Artlist_HD.mp4</name>
																<pathurl>file://localhost/Volumes/ATM%201/EYE%20CANDY/8%3a14%3a23/3_Raw%20Files/Artlist%20-%20Orange%20Chocolate/71892_Woman%20pouring%20chocolate%20onto%20a%20tray%20from%20a%20chocolate%20syringe_By_Lester_Platt_Artlist_HD.mp4</pathurl>
																<rate>
																	<timebase>24</timebase>
																	<ntsc>TRUE</ntsc>
																</rate>
																<duration>239</duration>
																<timecode>
																	<rate>
																		<timebase>24</timebase>
																		<ntsc>TRUE</ntsc>
																	</rate>
																	<string>22:37:14:15</string>
																	<frame>1954431</frame>
																	<displayformat>NDF</displayformat>
																</timecode>
																<media>
																	<video>
																		<samplecharacteristics>
																			<rate>
																				<timebase>24</timebase>
																				<ntsc>TRUE</ntsc>
																			</rate>
																			<width>1920</width>
																			<height>1080</height>
																			<anamorphic>FALSE</anamorphic>
																			<pixelaspectratio>square</pixelaspectratio>
																			<fielddominance>none</fielddominance>
																		</samplecharacteristics>
																	</video>
																	<audio>
																		<samplecharacteristics>
																			<depth>16</depth>
																			<samplerate>48000</samplerate>
																		</samplecharacteristics>
																		<channelcount>2</channelcount>
																	</audio>
																</media>
															</file>
															<filter>
																<effect>
																	<name>Distort</name>
																	<effectid>deformation</effectid>
																	<effectcategory>motion</effectcategory>
																	<effecttype>motion</effecttype>
																	<mediatype>video</mediatype>
																	<parameter authoringApp="PremierePro">
																		<parameterid>aspect</parameterid>
																		<name>Aspect</name>
																		<valuemin>-10000</valuemin>
																		<valuemax>10000</valuemax>
																		<value>-26.021</value>
																	</parameter>
																</effect>
															</filter>
															<filter>
																<effect>
																	<name>Basic Motion</name>
																	<effectid>basic</effectid>
																	<effectcategory>motion</effectcategory>
																	<effecttype>motion</effecttype>
																	<mediatype>video</mediatype>
																	<parameter authoringApp="PremierePro">
																		<parameterid>scale</parameterid>
																		<name>Scale</name>
																		<value>126.021</value>
																	</parameter>
																</effect>
															</filter>
															<logginginfo>
																<description></description>
																<scene></scene>
																<shottake></shottake>
																<lognote></lognote>
																<good></good>
																<originalvideofilename></originalvideofilename>
																<originalaudiofilename></originalaudiofilename>
															</logginginfo>
															<colorinfo>
																<lut></lut>
																<lut1></lut1>
																<asc_sop></asc_sop>
																<asc_sat></asc_sat>
																<lut2></lut2>
															</colorinfo>
															<labels>
																<label2>Violet</label2>
															</labels>
														</clipitem>
														<clipitem id="clipitem-197">
															<masterclipid>masterclip-80</masterclipid>
															<name>71899_Person spinning a bowl with dry orange slices _By_Lester_Platt_Artlist_HD.mp4</name>
															<enabled>TRUE</enabled>
															<duration>246</duration>
															<rate>
																<timebase>30</timebase>
																<ntsc>TRUE</ntsc>
															</rate>
															<start>686</start>
															<end>894</end>
															<in>0</in>
															<out>208</out>
															<pproTicksIn>0</pproTicksIn>
															<pproTicksOut>1762938777600</pproTicksOut>
															<alphatype>none</alphatype>
															<pixelaspectratio>square</pixelaspectratio>
															<anamorphic>FALSE</anamorphic>
															<file id="file-67">
																<name>71899_Person spinning a bowl with dry orange slices _By_Lester_Platt_Artlist_HD.mp4</name>
																<pathurl>file://localhost/Volumes/ATM%201/EYE%20CANDY/8%3a14%3a23/3_Raw%20Files/Artlist%20-%20Orange%20Chocolate/71899_Person%20spinning%20a%20bowl%20with%20dry%20orange%20slices%20_By_Lester_Platt_Artlist_HD.mp4</pathurl>
																<rate>
																	<timebase>24</timebase>
																	<ntsc>TRUE</ntsc>
																</rate>
																<duration>197</duration>
																<timecode>
																	<rate>
																		<timebase>24</timebase>
																		<ntsc>TRUE</ntsc>
																	</rate>
																	<string>22:47:06:23</string>
																	<frame>1968647</frame>
																	<displayformat>NDF</displayformat>
																</timecode>
																<media>
																	<video>
																		<samplecharacteristics>
																			<rate>
																				<timebase>24</timebase>
																				<ntsc>TRUE</ntsc>
																			</rate>
																			<width>1920</width>
																			<height>1080</height>
																			<anamorphic>FALSE</anamorphic>
																			<pixelaspectratio>square</pixelaspectratio>
																			<fielddominance>none</fielddominance>
																		</samplecharacteristics>
																	</video>
																	<audio>
																		<samplecharacteristics>
																			<depth>16</depth>
																			<samplerate>48000</samplerate>
																		</samplecharacteristics>
																		<channelcount>2</channelcount>
																	</audio>
																</media>
															</file>
															<filter>
																<effect>
																	<name>Distort</name>
																	<effectid>deformation</effectid>
																	<effectcategory>motion</effectcategory>
																	<effecttype>motion</effecttype>
																	<mediatype>video</mediatype>
																	<parameter authoringApp="PremierePro">
																		<parameterid>aspect</parameterid>
																		<name>Aspect</name>
																		<valuemin>-10000</valuemin>
																		<valuemax>10000</valuemax>
																		<value>-26.021</value>
																	</parameter>
																</effect>
															</filter>
															<filter>
																<effect>
																	<name>Basic Motion</name>
																	<effectid>basic</effectid>
																	<effectcategory>motion</effectcategory>
																	<effecttype>motion</effecttype>
																	<mediatype>video</mediatype>
																	<parameter authoringApp="PremierePro">
																		<parameterid>scale</parameterid>
																		<name>Scale</name>
																		<value>126.021</value>
																	</parameter>
																</effect>
															</filter>
															<logginginfo>
																<description></description>
																<scene></scene>
																<shottake></shottake>
																<lognote></lognote>
																<good></good>
																<originalvideofilename></originalvideofilename>
																<originalaudiofilename></originalaudiofilename>
															</logginginfo>
															<colorinfo>
																<lut></lut>
																<lut1></lut1>
																<asc_sop></asc_sop>
																<asc_sat></asc_sat>
																<lut2></lut2>
															</colorinfo>
															<labels>
																<label2>Violet</label2>
															</labels>
														</clipitem>
														<clipitem id="clipitem-198">
															<masterclipid>masterclip-81</masterclipid>
															<name>71896_Man making chocolate with dry orange slices _By_Lester_Platt_Artlist_HD.mp4</name>
															<enabled>TRUE</enabled>
															<duration>495</duration>
															<rate>
																<timebase>30</timebase>
																<ntsc>TRUE</ntsc>
															</rate>
															<start>894</start>
															<end>1162</end>
															<in>0</in>
															<out>268</out>
															<pproTicksIn>0</pproTicksIn>
															<pproTicksOut>2271478809600</pproTicksOut>
															<alphatype>none</alphatype>
															<pixelaspectratio>square</pixelaspectratio>
															<anamorphic>FALSE</anamorphic>
															<file id="file-68">
																<name>71896_Man making chocolate with dry orange slices _By_Lester_Platt_Artlist_HD.mp4</name>
																<pathurl>file://localhost/Volumes/ATM%201/EYE%20CANDY/8%3a14%3a23/3_Raw%20Files/Artlist%20-%20Orange%20Chocolate/71896_Man%20making%20chocolate%20with%20dry%20orange%20slices%20_By_Lester_Platt_Artlist_HD.mp4</pathurl>
																<rate>
																	<timebase>24</timebase>
																	<ntsc>TRUE</ntsc>
																</rate>
																<duration>396</duration>
																<timecode>
																	<rate>
																		<timebase>24</timebase>
																		<ntsc>TRUE</ntsc>
																	</rate>
																	<string>22:43:02:01</string>
																	<frame>1962769</frame>
																	<displayformat>NDF</displayformat>
																</timecode>
																<media>
																	<video>
																		<samplecharacteristics>
																			<rate>
																				<timebase>24</timebase>
																				<ntsc>TRUE</ntsc>
																			</rate>
																			<width>1920</width>
																			<height>1080</height>
																			<anamorphic>FALSE</anamorphic>
																			<pixelaspectratio>square</pixelaspectratio>
																			<fielddominance>none</fielddominance>
																		</samplecharacteristics>
																	</video>
																	<audio>
																		<samplecharacteristics>
																			<depth>16</depth>
																			<samplerate>48000</samplerate>
																		</samplecharacteristics>
																		<channelcount>2</channelcount>
																	</audio>
																</media>
															</file>
															<filter>
																<effect>
																	<name>Distort</name>
																	<effectid>deformation</effectid>
																	<effectcategory>motion</effectcategory>
																	<effecttype>motion</effecttype>
																	<mediatype>video</mediatype>
																	<parameter authoringApp="PremierePro">
																		<parameterid>aspect</parameterid>
																		<name>Aspect</name>
																		<valuemin>-10000</valuemin>
																		<valuemax>10000</valuemax>
																		<value>-26.021</value>
																	</parameter>
																</effect>
															</filter>
															<filter>
																<effect>
																	<name>Basic Motion</name>
																	<effectid>basic</effectid>
																	<effectcategory>motion</effectcategory>
																	<effecttype>motion</effecttype>
																	<mediatype>video</mediatype>
																	<parameter authoringApp="PremierePro">
																		<parameterid>scale</parameterid>
																		<name>Scale</name>
																		<value>126.021</value>
																	</parameter>
																</effect>
															</filter>
															<logginginfo>
																<description></description>
																<scene></scene>
																<shottake></shottake>
																<lognote></lognote>
																<good></good>
																<originalvideofilename></originalvideofilename>
																<originalaudiofilename></originalaudiofilename>
															</logginginfo>
															<colorinfo>
																<lut></lut>
																<lut1></lut1>
																<asc_sop></asc_sop>
																<asc_sat></asc_sat>
																<lut2></lut2>
															</colorinfo>
															<labels>
																<label2>Violet</label2>
															</labels>
														</clipitem>
														<clipitem id="clipitem-199">
															<masterclipid>masterclip-82</masterclipid>
															<name>71893_Woman putting dry orange slices on chocolate in a tray_By_Lester_Platt_Artlist_HD.mp4</name>
															<enabled>TRUE</enabled>
															<duration>390</duration>
															<rate>
																<timebase>30</timebase>
																<ntsc>TRUE</ntsc>
															</rate>
															<start>1162</start>
															<end>1478</end>
															<in>0</in>
															<out>316</out>
															<pproTicksIn>0</pproTicksIn>
															<pproTicksOut>2678310835200</pproTicksOut>
															<alphatype>none</alphatype>
															<pixelaspectratio>square</pixelaspectratio>
															<anamorphic>FALSE</anamorphic>
															<file id="file-69">
																<name>71893_Woman putting dry orange slices on chocolate in a tray_By_Lester_Platt_Artlist_HD.mp4</name>
																<pathurl>file://localhost/Volumes/ATM%201/EYE%20CANDY/8%3a14%3a23/3_Raw%20Files/Artlist%20-%20Orange%20Chocolate/71893_Woman%20putting%20dry%20orange%20slices%20on%20chocolate%20in%20a%20tray_By_Lester_Platt_Artlist_HD.mp4</pathurl>
																<rate>
																	<timebase>24</timebase>
																	<ntsc>TRUE</ntsc>
																</rate>
																<duration>312</duration>
																<timecode>
																	<rate>
																		<timebase>24</timebase>
																		<ntsc>TRUE</ntsc>
																	</rate>
																	<string>22:38:57:21</string>
																	<frame>1956909</frame>
																	<displayformat>NDF</displayformat>
																</timecode>
																<media>
																	<video>
																		<samplecharacteristics>
																			<rate>
																				<timebase>24</timebase>
																				<ntsc>TRUE</ntsc>
																			</rate>
																			<width>1920</width>
																			<height>1080</height>
																			<anamorphic>FALSE</anamorphic>
																			<pixelaspectratio>square</pixelaspectratio>
																			<fielddominance>none</fielddominance>
																		</samplecharacteristics>
																	</video>
																	<audio>
																		<samplecharacteristics>
																			<depth>16</depth>
																			<samplerate>48000</samplerate>
																		</samplecharacteristics>
																		<channelcount>2</channelcount>
																	</audio>
																</media>
															</file>
															<filter>
																<effect>
																	<name>Distort</name>
																	<effectid>deformation</effectid>
																	<effectcategory>motion</effectcategory>
																	<effecttype>motion</effecttype>
																	<mediatype>video</mediatype>
																	<parameter authoringApp="PremierePro">
																		<parameterid>aspect</parameterid>
																		<name>Aspect</name>
																		<valuemin>-10000</valuemin>
																		<valuemax>10000</valuemax>
																		<value>-26.021</value>
																	</parameter>
																</effect>
															</filter>
															<filter>
																<effect>
																	<name>Basic Motion</name>
																	<effectid>basic</effectid>
																	<effectcategory>motion</effectcategory>
																	<effecttype>motion</effecttype>
																	<mediatype>video</mediatype>
																	<parameter authoringApp="PremierePro">
																		<parameterid>scale</parameterid>
																		<name>Scale</name>
																		<value>126.021</value>
																	</parameter>
																</effect>
															</filter>
															<logginginfo>
																<description></description>
																<scene></scene>
																<shottake></shottake>
																<lognote></lognote>
																<good></good>
																<originalvideofilename></originalvideofilename>
																<originalaudiofilename></originalaudiofilename>
															</logginginfo>
															<colorinfo>
																<lut></lut>
																<lut1></lut1>
																<asc_sop></asc_sop>
																<asc_sat></asc_sat>
																<lut2></lut2>
															</colorinfo>
															<labels>
																<label2>Violet</label2>
															</labels>
														</clipitem>
														<clipitem id="clipitem-200">
															<masterclipid>masterclip-83</masterclipid>
															<name>71900_Person putting a tray of chocolate with orange slices on the shelf _By_Lester_Platt_Artlist_HD.mp4</name>
															<enabled>TRUE</enabled>
															<duration>137</duration>
															<rate>
																<timebase>30</timebase>
																<ntsc>TRUE</ntsc>
															</rate>
															<start>1478</start>
															<end>1583</end>
															<in>0</in>
															<out>105</out>
															<pproTicksIn>0</pproTicksIn>
															<pproTicksOut>889945056000</pproTicksOut>
															<alphatype>none</alphatype>
															<pixelaspectratio>square</pixelaspectratio>
															<anamorphic>FALSE</anamorphic>
															<file id="file-70">
																<name>71900_Person putting a tray of chocolate with orange slices on the shelf _By_Lester_Platt_Artlist_HD.mp4</name>
																<pathurl>file://localhost/Volumes/ATM%201/EYE%20CANDY/8%3a14%3a23/3_Raw%20Files/Artlist%20-%20Orange%20Chocolate/71900_Person%20putting%20a%20tray%20of%20chocolate%20with%20orange%20slices%20on%20the%20shelf%20_By_Lester_Platt_Artlist_HD.mp4</pathurl>
																<rate>
																	<timebase>24</timebase>
																	<ntsc>TRUE</ntsc>
																</rate>
																<duration>110</duration>
																<timecode>
																	<rate>
																		<timebase>24</timebase>
																		<ntsc>TRUE</ntsc>
																	</rate>
																	<string>22:48:27:03</string>
																	<frame>1970571</frame>
																	<displayformat>NDF</displayformat>
																</timecode>
																<media>
																	<video>
																		<samplecharacteristics>
																			<rate>
																				<timebase>24</timebase>
																				<ntsc>TRUE</ntsc>
																			</rate>
																			<width>1920</width>
																			<height>1080</height>
																			<anamorphic>FALSE</anamorphic>
																			<pixelaspectratio>square</pixelaspectratio>
																			<fielddominance>none</fielddominance>
																		</samplecharacteristics>
																	</video>
																	<audio>
																		<samplecharacteristics>
																			<depth>16</depth>
																			<samplerate>48000</samplerate>
																		</samplecharacteristics>
																		<channelcount>2</channelcount>
																	</audio>
																</media>
															</file>
															<filter>
																<effect>
																	<name>Distort</name>
																	<effectid>deformation</effectid>
																	<effectcategory>motion</effectcategory>
																	<effecttype>motion</effecttype>
																	<mediatype>video</mediatype>
																	<parameter authoringApp="PremierePro">
																		<parameterid>aspect</parameterid>
																		<name>Aspect</name>
																		<valuemin>-10000</valuemin>
																		<valuemax>10000</valuemax>
																		<value>-26.021</value>
																	</parameter>
																</effect>
															</filter>
															<filter>
																<effect>
																	<name>Basic Motion</name>
																	<effectid>basic</effectid>
																	<effectcategory>motion</effectcategory>
																	<effecttype>motion</effecttype>
																	<mediatype>video</mediatype>
																	<parameter authoringApp="PremierePro">
																		<parameterid>scale</parameterid>
																		<name>Scale</name>
																		<value>126.021</value>
																	</parameter>
																</effect>
															</filter>
															<logginginfo>
																<description></description>
																<scene></scene>
																<shottake></shottake>
																<lognote></lognote>
																<good></good>
																<originalvideofilename></originalvideofilename>
																<originalaudiofilename></originalaudiofilename>
															</logginginfo>
															<colorinfo>
																<lut></lut>
																<lut1></lut1>
																<asc_sop></asc_sop>
																<asc_sat></asc_sat>
																<lut2></lut2>
															</colorinfo>
														</clipitem>
														<clipitem id="clipitem-201">
															<masterclipid>masterclip-84</masterclipid>
															<name>71897_Chocolate with orange slices on trays _By_Lester_Platt_Artlist_HD.mp4</name>
															<enabled>TRUE</enabled>
															<duration>350</duration>
															<rate>
																<timebase>30</timebase>
																<ntsc>TRUE</ntsc>
															</rate>
															<start>1583</start>
															<end>1855</end>
															<in>0</in>
															<out>272</out>
															<pproTicksIn>0</pproTicksIn>
															<pproTicksOut>2305381478400</pproTicksOut>
															<alphatype>none</alphatype>
															<pixelaspectratio>square</pixelaspectratio>
															<anamorphic>FALSE</anamorphic>
															<file id="file-71">
																<name>71897_Chocolate with orange slices on trays _By_Lester_Platt_Artlist_HD.mp4</name>
																<pathurl>file://localhost/Volumes/ATM%201/EYE%20CANDY/8%3a14%3a23/3_Raw%20Files/Artlist%20-%20Orange%20Chocolate/71897_Chocolate%20with%20orange%20slices%20on%20trays%20_By_Lester_Platt_Artlist_HD.mp4</pathurl>
																<rate>
																	<timebase>24</timebase>
																	<ntsc>TRUE</ntsc>
																</rate>
																<duration>280</duration>
																<timecode>
																	<rate>
																		<timebase>24</timebase>
																		<ntsc>TRUE</ntsc>
																	</rate>
																	<string>22:44:03:06</string>
																	<frame>1964238</frame>
																	<displayformat>NDF</displayformat>
																</timecode>
																<media>
																	<video>
																		<samplecharacteristics>
																			<rate>
																				<timebase>24</timebase>
																				<ntsc>TRUE</ntsc>
																			</rate>
																			<width>1920</width>
																			<height>1080</height>
																			<anamorphic>FALSE</anamorphic>
																			<pixelaspectratio>square</pixelaspectratio>
																			<fielddominance>none</fielddominance>
																		</samplecharacteristics>
																	</video>
																	<audio>
																		<samplecharacteristics>
																			<depth>16</depth>
																			<samplerate>48000</samplerate>
																		</samplecharacteristics>
																		<channelcount>2</channelcount>
																	</audio>
																</media>
															</file>
															<filter>
																<effect>
																	<name>Distort</name>
																	<effectid>deformation</effectid>
																	<effectcategory>motion</effectcategory>
																	<effecttype>motion</effecttype>
																	<mediatype>video</mediatype>
																	<parameter authoringApp="PremierePro">
																		<parameterid>aspect</parameterid>
																		<name>Aspect</name>
																		<valuemin>-10000</valuemin>
																		<valuemax>10000</valuemax>
																		<value>-26.021</value>
																	</parameter>
																</effect>
															</filter>
															<filter>
																<effect>
																	<name>Basic Motion</name>
																	<effectid>basic</effectid>
																	<effectcategory>motion</effectcategory>
																	<effecttype>motion</effecttype>
																	<mediatype>video</mediatype>
																	<parameter authoringApp="PremierePro">
																		<parameterid>scale</parameterid>
																		<name>Scale</name>
																		<value>126.021</value>
																	</parameter>
																</effect>
															</filter>
															<logginginfo>
																<description></description>
																<scene></scene>
																<shottake></shottake>
																<lognote></lognote>
																<good></good>
																<originalvideofilename></originalvideofilename>
																<originalaudiofilename></originalaudiofilename>
															</logginginfo>
															<colorinfo>
																<lut></lut>
																<lut1></lut1>
																<asc_sop></asc_sop>
																<asc_sat></asc_sat>
																<lut2></lut2>
															</colorinfo>
															<labels>
																<label2>Violet</label2>
															</labels>
														</clipitem>
														<enabled>TRUE</enabled>
														<locked>FALSE</locked>
													</track>
													<track TL.SQTrackShy="0" TL.SQTrackExpandedHeight="25" TL.SQTrackExpanded="0" MZ.TrackTargeted="0">
														<enabled>TRUE</enabled>
														<locked>FALSE</locked>
													</track>
													<track TL.SQTrackShy="0" TL.SQTrackExpandedHeight="25" TL.SQTrackExpanded="0" MZ.TrackTargeted="0">
														<enabled>TRUE</enabled>
														<locked>FALSE</locked>
													</track>
													<track TL.SQTrackShy="0" TL.SQTrackExpandedHeight="25" TL.SQTrackExpanded="0" MZ.TrackTargeted="0">
														<enabled>TRUE</enabled>
														<locked>FALSE</locked>
													</track>
													<track TL.SQTrackShy="0" TL.SQTrackExpandedHeight="25" TL.SQTrackExpanded="0" MZ.TrackTargeted="0">
														<enabled>TRUE</enabled>
														<locked>FALSE</locked>
													</track>
													<track TL.SQTrackShy="0" TL.SQTrackExpandedHeight="25" TL.SQTrackExpanded="0" MZ.TrackTargeted="0">
														<enabled>TRUE</enabled>
														<locked>FALSE</locked>
													</track>
													<track TL.SQTrackShy="0" TL.SQTrackExpandedHeight="25" TL.SQTrackExpanded="0" MZ.TrackTargeted="0">
														<enabled>TRUE</enabled>
														<locked>FALSE</locked>
													</track>
													<track TL.SQTrackShy="0" TL.SQTrackExpandedHeight="25" TL.SQTrackExpanded="0" MZ.TrackTargeted="0">
														<enabled>TRUE</enabled>
														<locked>FALSE</locked>
													</track>
													<track TL.SQTrackShy="0" TL.SQTrackExpandedHeight="25" TL.SQTrackExpanded="0" MZ.TrackTargeted="0">
														<enabled>TRUE</enabled>
														<locked>FALSE</locked>
													</track>
													<track TL.SQTrackShy="0" TL.SQTrackExpandedHeight="25" TL.SQTrackExpanded="0" MZ.TrackTargeted="0">
														<enabled>TRUE</enabled>
														<locked>FALSE</locked>
													</track>
												</video>
												<audio>
													<numOutputChannels>2</numOutputChannels>
													<format>
														<samplecharacteristics>
															<depth>16</depth>
															<samplerate>48000</samplerate>
														</samplecharacteristics>
													</format>
													<outputs>
														<group>
															<index>1</index>
															<numchannels>1</numchannels>
															<downmix>0</downmix>
															<channel>
																<index>1</index>
															</channel>
														</group>
														<group>
															<index>2</index>
															<numchannels>1</numchannels>
															<downmix>0</downmix>
															<channel>
																<index>2</index>
															</channel>
														</group>
													</outputs>
													<track TL.SQTrackAudioKeyframeStyle="0" TL.SQTrackShy="0" TL.SQTrackExpandedHeight="25" TL.SQTrackExpanded="0" MZ.TrackTargeted="1" PannerCurrentValue="0.5" PannerIsInverted="true" PannerStartKeyframe="-91445760000000000,0.5,0,0,0,0,0,0" PannerName="Balance" currentExplodedTrackIndex="0" totalExplodedTrackCount="2" premiereTrackType="Stereo">
														<clipitem id="clipitem-202" premiereChannelType="stereo">
															<masterclipid>masterclip-85</masterclipid>
															<name>ES_My Trust in You - Daniel Fridell.mp3</name>
															<enabled>TRUE</enabled>
															<duration>7568</duration>
															<rate>
																<timebase>30</timebase>
																<ntsc>TRUE</ntsc>
															</rate>
															<start>0</start>
															<end>1855</end>
															<in>0</in>
															<out>1855</out>
															<pproTicksIn>0</pproTicksIn>
															<pproTicksOut>15722362656000</pproTicksOut>
															<file id="file-72">
																<name>ES_My Trust in You - Daniel Fridell.mp3</name>
																<pathurl>file://localhost/Volumes/ATM%201/EYE%20CANDY/8%3a14%3a23/5_Assets/Music/ES_My%20Trust%20in%20You%20-%20Daniel%20Fridell.mp3</pathurl>
																<rate>
																	<timebase>30</timebase>
																	<ntsc>TRUE</ntsc>
																</rate>
																<duration>7568</duration>
																<timecode>
																	<rate>
																		<timebase>30</timebase>
																		<ntsc>TRUE</ntsc>
																	</rate>
																	<string>00;00;00;00</string>
																	<frame>0</frame>
																	<displayformat>DF</displayformat>
																</timecode>
																<media>
																	<audio>
																		<samplecharacteristics>
																			<depth>16</depth>
																			<samplerate>48000</samplerate>
																		</samplecharacteristics>
																		<channelcount>2</channelcount>
																	</audio>
																</media>
															</file>
															<sourcetrack>
																<mediatype>audio</mediatype>
																<trackindex>1</trackindex>
															</sourcetrack>
															<link>
																<linkclipref>clipitem-202</linkclipref>
																<mediatype>audio</mediatype>
																<trackindex>1</trackindex>
																<clipindex>1</clipindex>
																<groupindex>1</groupindex>
															</link>
															<link>
																<linkclipref>clipitem-203</linkclipref>
																<mediatype>audio</mediatype>
																<trackindex>2</trackindex>
																<clipindex>1</clipindex>
																<groupindex>1</groupindex>
															</link>
															<logginginfo>
																<description></description>
																<scene></scene>
																<shottake></shottake>
																<lognote></lognote>
																<good></good>
																<originalvideofilename></originalvideofilename>
																<originalaudiofilename></originalaudiofilename>
															</logginginfo>
															<colorinfo>
																<lut></lut>
																<lut1></lut1>
																<asc_sop></asc_sop>
																<asc_sat></asc_sat>
																<lut2></lut2>
															</colorinfo>
															<labels>
																<label2>Caribbean</label2>
															</labels>
														</clipitem>
														<enabled>TRUE</enabled>
														<locked>FALSE</locked>
														<filter>
															<effect>
																<name>Audio Levels</name>
																<effectid>audiolevels</effectid>
																<effectcategory>audiolevels</effectcategory>
																<effecttype>audiolevels</effecttype>
																<mediatype>audio</mediatype>
																<parameter authoringApp="PremierePro">
																	<parameterid>level</parameterid>
																	<name>Level</name>
																	<valuemin>0</valuemin>
																	<valuemax>3.98109</valuemax>
																	<value>0.706272</value>
																</parameter>
															</effect>
														</filter>
														<outputchannelindex>1</outputchannelindex>
													</track>
													<track TL.SQTrackAudioKeyframeStyle="0" TL.SQTrackShy="0" TL.SQTrackExpandedHeight="25" TL.SQTrackExpanded="0" MZ.TrackTargeted="1" PannerCurrentValue="0.5" PannerIsInverted="true" PannerStartKeyframe="-91445760000000000,0.5,0,0,0,0,0,0" PannerName="Balance" currentExplodedTrackIndex="1" totalExplodedTrackCount="2" premiereTrackType="Stereo">
														<clipitem id="clipitem-203" premiereChannelType="stereo">
															<masterclipid>masterclip-85</masterclipid>
															<name>ES_My Trust in You - Daniel Fridell.mp3</name>
															<enabled>TRUE</enabled>
															<duration>7568</duration>
															<rate>
																<timebase>30</timebase>
																<ntsc>TRUE</ntsc>
															</rate>
															<start>0</start>
															<end>1855</end>
															<in>0</in>
															<out>1855</out>
															<pproTicksIn>0</pproTicksIn>
															<pproTicksOut>15722362656000</pproTicksOut>
															<file id="file-72"/>
															<sourcetrack>
																<mediatype>audio</mediatype>
																<trackindex>2</trackindex>
															</sourcetrack>
															<link>
																<linkclipref>clipitem-202</linkclipref>
																<mediatype>audio</mediatype>
																<trackindex>1</trackindex>
																<clipindex>1</clipindex>
																<groupindex>1</groupindex>
															</link>
															<link>
																<linkclipref>clipitem-203</linkclipref>
																<mediatype>audio</mediatype>
																<trackindex>2</trackindex>
																<clipindex>1</clipindex>
																<groupindex>1</groupindex>
															</link>
															<logginginfo>
																<description></description>
																<scene></scene>
																<shottake></shottake>
																<lognote></lognote>
																<good></good>
																<originalvideofilename></originalvideofilename>
																<originalaudiofilename></originalaudiofilename>
															</logginginfo>
															<colorinfo>
																<lut></lut>
																<lut1></lut1>
																<asc_sop></asc_sop>
																<asc_sat></asc_sat>
																<lut2></lut2>
															</colorinfo>
															<labels>
																<label2>Caribbean</label2>
															</labels>
														</clipitem>
														<enabled>TRUE</enabled>
														<locked>FALSE</locked>
														<filter>
															<effect>
																<name>Audio Levels</name>
																<effectid>audiolevels</effectid>
																<effectcategory>audiolevels</effectcategory>
																<effecttype>audiolevels</effecttype>
																<mediatype>audio</mediatype>
																<parameter authoringApp="PremierePro">
																	<parameterid>level</parameterid>
																	<name>Level</name>
																	<valuemin>0</valuemin>
																	<valuemax>3.98109</valuemax>
																	<value>0.706272</value>
																</parameter>
															</effect>
														</filter>
														<outputchannelindex>2</outputchannelindex>
													</track>
													<track TL.SQTrackAudioKeyframeStyle="0" TL.SQTrackShy="0" TL.SQTrackExpandedHeight="25" TL.SQTrackExpanded="0" MZ.TrackTargeted="0" PannerCurrentValue="0.5" PannerIsInverted="true" PannerStartKeyframe="-91445760000000000,0.5,0,0,0,0,0,0" PannerName="Balance" currentExplodedTrackIndex="0" totalExplodedTrackCount="2" premiereTrackType="Stereo">
														<enabled>TRUE</enabled>
														<locked>FALSE</locked>
														<outputchannelindex>1</outputchannelindex>
													</track>
													<track TL.SQTrackAudioKeyframeStyle="0" TL.SQTrackShy="0" TL.SQTrackExpandedHeight="25" TL.SQTrackExpanded="0" MZ.TrackTargeted="0" PannerCurrentValue="0.5" PannerIsInverted="true" PannerStartKeyframe="-91445760000000000,0.5,0,0,0,0,0,0" PannerName="Balance" currentExplodedTrackIndex="1" totalExplodedTrackCount="2" premiereTrackType="Stereo">
														<enabled>TRUE</enabled>
														<locked>FALSE</locked>
														<outputchannelindex>2</outputchannelindex>
													</track>
													<track TL.SQTrackAudioKeyframeStyle="0" TL.SQTrackShy="0" TL.SQTrackExpandedHeight="25" TL.SQTrackExpanded="0" MZ.TrackTargeted="0" PannerCurrentValue="0.5" PannerIsInverted="true" PannerStartKeyframe="-91445760000000000,0.5,0,0,0,0,0,0" PannerName="Balance" currentExplodedTrackIndex="0" totalExplodedTrackCount="2" premiereTrackType="Stereo">
														<enabled>TRUE</enabled>
														<locked>FALSE</locked>
														<outputchannelindex>1</outputchannelindex>
													</track>
													<track TL.SQTrackAudioKeyframeStyle="0" TL.SQTrackShy="0" TL.SQTrackExpandedHeight="25" TL.SQTrackExpanded="0" MZ.TrackTargeted="0" PannerCurrentValue="0.5" PannerIsInverted="true" PannerStartKeyframe="-91445760000000000,0.5,0,0,0,0,0,0" PannerName="Balance" currentExplodedTrackIndex="1" totalExplodedTrackCount="2" premiereTrackType="Stereo">
														<enabled>TRUE</enabled>
														<locked>FALSE</locked>
														<outputchannelindex>2</outputchannelindex>
													</track>
													<track TL.SQTrackAudioKeyframeStyle="0" TL.SQTrackShy="0" TL.SQTrackExpandedHeight="25" TL.SQTrackExpanded="0" MZ.TrackTargeted="0" PannerCurrentValue="0.5" PannerIsInverted="true" PannerStartKeyframe="-91445760000000000,0.5,0,0,0,0,0,0" PannerName="Balance" currentExplodedTrackIndex="0" totalExplodedTrackCount="2" premiereTrackType="Stereo">
														<enabled>TRUE</enabled>
														<locked>FALSE</locked>
														<outputchannelindex>1</outputchannelindex>
													</track>
													<track TL.SQTrackAudioKeyframeStyle="0" TL.SQTrackShy="0" TL.SQTrackExpandedHeight="25" TL.SQTrackExpanded="0" MZ.TrackTargeted="0" PannerCurrentValue="0.5" PannerIsInverted="true" PannerStartKeyframe="-91445760000000000,0.5,0,0,0,0,0,0" PannerName="Balance" currentExplodedTrackIndex="1" totalExplodedTrackCount="2" premiereTrackType="Stereo">
														<enabled>TRUE</enabled>
														<locked>FALSE</locked>
														<outputchannelindex>2</outputchannelindex>
													</track>
													<track TL.SQTrackAudioKeyframeStyle="0" TL.SQTrackShy="0" TL.SQTrackExpandedHeight="25" TL.SQTrackExpanded="0" MZ.TrackTargeted="0" PannerCurrentValue="0.5" PannerIsInverted="true" PannerStartKeyframe="-91445760000000000,0.5,0,0,0,0,0,0" PannerName="Balance" currentExplodedTrackIndex="0" totalExplodedTrackCount="2" premiereTrackType="Stereo">
														<enabled>TRUE</enabled>
														<locked>FALSE</locked>
														<outputchannelindex>1</outputchannelindex>
													</track>
													<track TL.SQTrackAudioKeyframeStyle="0" TL.SQTrackShy="0" TL.SQTrackExpandedHeight="25" TL.SQTrackExpanded="0" MZ.TrackTargeted="0" PannerCurrentValue="0.5" PannerIsInverted="true" PannerStartKeyframe="-91445760000000000,0.5,0,0,0,0,0,0" PannerName="Balance" currentExplodedTrackIndex="1" totalExplodedTrackCount="2" premiereTrackType="Stereo">
														<enabled>TRUE</enabled>
														<locked>FALSE</locked>
														<outputchannelindex>2</outputchannelindex>
													</track>
													<track TL.SQTrackAudioKeyframeStyle="0" TL.SQTrackShy="0" TL.SQTrackExpandedHeight="25" TL.SQTrackExpanded="0" MZ.TrackTargeted="0" PannerCurrentValue="0.5" PannerIsInverted="true" PannerStartKeyframe="-91445760000000000,0.5,0,0,0,0,0,0" PannerName="Balance" currentExplodedTrackIndex="0" totalExplodedTrackCount="2" premiereTrackType="Stereo">
														<enabled>TRUE</enabled>
														<locked>FALSE</locked>
														<outputchannelindex>1</outputchannelindex>
													</track>
													<track TL.SQTrackAudioKeyframeStyle="0" TL.SQTrackShy="0" TL.SQTrackExpandedHeight="25" TL.SQTrackExpanded="0" MZ.TrackTargeted="0" PannerCurrentValue="0.5" PannerIsInverted="true" PannerStartKeyframe="-91445760000000000,0.5,0,0,0,0,0,0" PannerName="Balance" currentExplodedTrackIndex="1" totalExplodedTrackCount="2" premiereTrackType="Stereo">
														<enabled>TRUE</enabled>
														<locked>FALSE</locked>
														<outputchannelindex>2</outputchannelindex>
													</track>
													<track TL.SQTrackAudioKeyframeStyle="0" TL.SQTrackShy="0" TL.SQTrackExpandedHeight="25" TL.SQTrackExpanded="0" MZ.TrackTargeted="0" PannerCurrentValue="0.5" PannerIsInverted="true" PannerStartKeyframe="-91445760000000000,0.5,0,0,0,0,0,0" PannerName="Balance" currentExplodedTrackIndex="0" totalExplodedTrackCount="2" premiereTrackType="Stereo">
														<enabled>TRUE</enabled>
														<locked>FALSE</locked>
														<outputchannelindex>1</outputchannelindex>
													</track>
													<track TL.SQTrackAudioKeyframeStyle="0" TL.SQTrackShy="0" TL.SQTrackExpandedHeight="25" TL.SQTrackExpanded="0" MZ.TrackTargeted="0" PannerCurrentValue="0.5" PannerIsInverted="true" PannerStartKeyframe="-91445760000000000,0.5,0,0,0,0,0,0" PannerName="Balance" currentExplodedTrackIndex="1" totalExplodedTrackCount="2" premiereTrackType="Stereo">
														<enabled>TRUE</enabled>
														<locked>FALSE</locked>
														<outputchannelindex>2</outputchannelindex>
													</track>
													<track TL.SQTrackAudioKeyframeStyle="0" TL.SQTrackShy="0" TL.SQTrackExpandedHeight="25" TL.SQTrackExpanded="0" MZ.TrackTargeted="0" PannerCurrentValue="0.5" PannerIsInverted="true" PannerStartKeyframe="-91445760000000000,0.5,0,0,0,0,0,0" PannerName="Balance" currentExplodedTrackIndex="0" totalExplodedTrackCount="2" premiereTrackType="Stereo">
														<enabled>TRUE</enabled>
														<locked>FALSE</locked>
														<outputchannelindex>1</outputchannelindex>
													</track>
													<track TL.SQTrackAudioKeyframeStyle="0" TL.SQTrackShy="0" TL.SQTrackExpandedHeight="25" TL.SQTrackExpanded="0" MZ.TrackTargeted="0" PannerCurrentValue="0.5" PannerIsInverted="true" PannerStartKeyframe="-91445760000000000,0.5,0,0,0,0,0,0" PannerName="Balance" currentExplodedTrackIndex="1" totalExplodedTrackCount="2" premiereTrackType="Stereo">
														<enabled>TRUE</enabled>
														<locked>FALSE</locked>
														<outputchannelindex>2</outputchannelindex>
													</track>
													<track TL.SQTrackAudioKeyframeStyle="0" TL.SQTrackShy="0" TL.SQTrackExpandedHeight="25" TL.SQTrackExpanded="0" MZ.TrackTargeted="0" PannerCurrentValue="0.5" PannerIsInverted="true" PannerStartKeyframe="-91445760000000000,0.5,0,0,0,0,0,0" PannerName="Balance" currentExplodedTrackIndex="0" totalExplodedTrackCount="2" premiereTrackType="Stereo">
														<enabled>TRUE</enabled>
														<locked>FALSE</locked>
														<outputchannelindex>1</outputchannelindex>
													</track>
													<track TL.SQTrackAudioKeyframeStyle="0" TL.SQTrackShy="0" TL.SQTrackExpandedHeight="25" TL.SQTrackExpanded="0" MZ.TrackTargeted="0" PannerCurrentValue="0.5" PannerIsInverted="true" PannerStartKeyframe="-91445760000000000,0.5,0,0,0,0,0,0" PannerName="Balance" currentExplodedTrackIndex="1" totalExplodedTrackCount="2" premiereTrackType="Stereo">
														<enabled>TRUE</enabled>
														<locked>FALSE</locked>
														<outputchannelindex>2</outputchannelindex>
													</track>
													<track TL.SQTrackAudioKeyframeStyle="0" TL.SQTrackShy="0" TL.SQTrackExpandedHeight="25" TL.SQTrackExpanded="0" MZ.TrackTargeted="0" PannerCurrentValue="0.5" PannerIsInverted="true" PannerStartKeyframe="-91445760000000000,0.5,0,0,0,0,0,0" PannerName="Balance" currentExplodedTrackIndex="0" totalExplodedTrackCount="2" premiereTrackType="Stereo">
														<enabled>TRUE</enabled>
														<locked>FALSE</locked>
														<outputchannelindex>1</outputchannelindex>
													</track>
													<track TL.SQTrackAudioKeyframeStyle="0" TL.SQTrackShy="0" TL.SQTrackExpandedHeight="25" TL.SQTrackExpanded="0" MZ.TrackTargeted="0" PannerCurrentValue="0.5" PannerIsInverted="true" PannerStartKeyframe="-91445760000000000,0.5,0,0,0,0,0,0" PannerName="Balance" currentExplodedTrackIndex="1" totalExplodedTrackCount="2" premiereTrackType="Stereo">
														<enabled>TRUE</enabled>
														<locked>FALSE</locked>
														<outputchannelindex>2</outputchannelindex>
													</track>
												</audio>
											</media>
											<timecode>
												<rate>
													<timebase>30</timebase>
													<ntsc>TRUE</ntsc>
												</rate>
												<string>00;00;00;00</string>
												<frame>0</frame>
												<displayformat>DF</displayformat>
											</timecode>
											<logginginfo>
												<description></description>
												<scene></scene>
												<shottake></shottake>
												<lognote></lognote>
												<good></good>
												<originalvideofilename></originalvideofilename>
												<originalaudiofilename></originalaudiofilename>
											</logginginfo>
										</sequence>
										<link>
											<linkclipref>clipitem-194</linkclipref>
											<mediatype>video</mediatype>
											<trackindex>1</trackindex>
											<clipindex>2</clipindex>
										</link>
										<link>
											<linkclipref>clipitem-211</linkclipref>
											<mediatype>audio</mediatype>
											<trackindex>1</trackindex>
											<clipindex>3</clipindex>
											<groupindex>1</groupindex>
										</link>
										<link>
											<linkclipref>clipitem-213</linkclipref>
											<mediatype>audio</mediatype>
											<trackindex>2</trackindex>
											<clipindex>3</clipindex>
											<groupindex>1</groupindex>
										</link>
										<labels>
											<label2>Forest</label2>
										</labels>
									</clipitem>
									<enabled>TRUE</enabled>
									<locked>FALSE</locked>
								</track>
								<track TL.SQTrackShy="0" TL.SQTrackExpandedHeight="25" TL.SQTrackExpanded="0" MZ.TrackTargeted="0">
									<clipitem id="clipitem-204">
										<masterclipid>masterclip-16</masterclipid>
										<name>ATM BUG_1080_Top Right.png</name>
										<enabled>TRUE</enabled>
										<duration>1294705</duration>
										<rate>
											<timebase>30</timebase>
											<ntsc>TRUE</ntsc>
										</rate>
										<start>82</start>
										<end>5319</end>
										<in>107892</in>
										<out>113129</out>
										<pproTicksIn>914456685542400</pproTicksIn>
										<pproTicksOut>958843754668800</pproTicksOut>
										<alphatype>straight</alphatype>
										<file id="file-14"/>
										<logginginfo>
											<description></description>
											<scene></scene>
											<shottake></shottake>
											<lognote></lognote>
											<good></good>
											<originalvideofilename></originalvideofilename>
											<originalaudiofilename></originalaudiofilename>
										</logginginfo>
										<colorinfo>
											<lut></lut>
											<lut1></lut1>
											<asc_sop></asc_sop>
											<asc_sat></asc_sat>
											<lut2></lut2>
										</colorinfo>
										<labels>
										</labels>
									</clipitem>
									<enabled>TRUE</enabled>
									<locked>FALSE</locked>
								</track>
								<track TL.SQTrackShy="0" TL.SQTrackExpandedHeight="25" TL.SQTrackExpanded="0" MZ.TrackTargeted="0">
									<clipitem id="clipitem-205">
										<masterclipid>masterclip-86</masterclipid>
										<name>Out of this World Desserts</name>
										<enabled>TRUE</enabled>
										<duration>6293</duration>
										<rate>
											<timebase>30</timebase>
											<ntsc>TRUE</ntsc>
										</rate>
										<start>115</start>
										<end>3464</end>
										<in>30</in>
										<out>3379</out>
										<pproTicksIn>254270016000</pproTicksIn>
										<pproTicksOut>28639279468800</pproTicksOut>
										<alphatype>straight</alphatype>
										<pixelaspectratio>square</pixelaspectratio>
										<anamorphic>FALSE</anamorphic>
										<file id="file-73">
											<name>EYECANDY_L3RD_JL_V03/EYECANDY_L3rd_JL_V04.aep</name>
											<pathurl>file://localhost/Volumes/ATM%201/EYE%20CANDY/Project%20Template/5_Assets/Eye%20Candy%20Mograph/EYECANDY_L3rd_JL_V04%20folder/EYECANDY_L3rd_JL_V04.aep</pathurl>
											<rate>
												<timebase>30</timebase>
												<ntsc>FALSE</ntsc>
											</rate>
											<duration>6300</duration>
											<timecode>
												<rate>
													<timebase>30</timebase>
													<ntsc>FALSE</ntsc>
												</rate>
												<string>00:00:00:00</string>
												<frame>0</frame>
												<displayformat>NDF</displayformat>
											</timecode>
											<media>
												<video>
													<samplecharacteristics>
														<rate>
															<timebase>30</timebase>
															<ntsc>FALSE</ntsc>
														</rate>
														<width>1920</width>
														<height>1080</height>
														<anamorphic>FALSE</anamorphic>
														<pixelaspectratio>square</pixelaspectratio>
														<fielddominance>lower</fielddominance>
													</samplecharacteristics>
												</video>
											</media>
										</file>
										<logginginfo>
											<description></description>
											<scene></scene>
											<shottake></shottake>
											<lognote></lognote>
											<good></good>
											<originalvideofilename></originalvideofilename>
											<originalaudiofilename></originalaudiofilename>
										</logginginfo>
										<colorinfo>
											<lut></lut>
											<lut1></lut1>
											<asc_sop></asc_sop>
											<asc_sat></asc_sat>
											<lut2></lut2>
										</colorinfo>
									</clipitem>
									<clipitem id="clipitem-206">
										<masterclipid>masterclip-87</masterclipid>
										<name>Chocolate and Orange the Gourmet Way</name>
										<enabled>TRUE</enabled>
										<duration>6293</duration>
										<rate>
											<timebase>30</timebase>
											<ntsc>TRUE</ntsc>
										</rate>
										<start>3526</start>
										<end>5319</end>
										<in>30</in>
										<out>1823</out>
										<pproTicksIn>254270016000</pproTicksIn>
										<pproTicksOut>15451141305600</pproTicksOut>
										<alphatype>straight</alphatype>
										<pixelaspectratio>square</pixelaspectratio>
										<anamorphic>FALSE</anamorphic>
										<file id="file-74">
											<name>EYECANDY_L3RD_JL_V03/EYECANDY_L3rd_JL_V04.aep</name>
											<pathurl>file://localhost/Volumes/ATM%201/EYE%20CANDY/Project%20Template/5_Assets/Eye%20Candy%20Mograph/EYECANDY_L3rd_JL_V04%20folder/EYECANDY_L3rd_JL_V04.aep</pathurl>
											<rate>
												<timebase>30</timebase>
												<ntsc>FALSE</ntsc>
											</rate>
											<duration>6300</duration>
											<timecode>
												<rate>
													<timebase>30</timebase>
													<ntsc>FALSE</ntsc>
												</rate>
												<string>00:00:00:00</string>
												<frame>0</frame>
												<displayformat>NDF</displayformat>
											</timecode>
											<media>
												<video>
													<samplecharacteristics>
														<rate>
															<timebase>30</timebase>
															<ntsc>FALSE</ntsc>
														</rate>
														<width>1920</width>
														<height>1080</height>
														<anamorphic>FALSE</anamorphic>
														<pixelaspectratio>square</pixelaspectratio>
														<fielddominance>lower</fielddominance>
													</samplecharacteristics>
												</video>
											</media>
										</file>
										<logginginfo>
											<description></description>
											<scene></scene>
											<shottake></shottake>
											<lognote></lognote>
											<good></good>
											<originalvideofilename></originalvideofilename>
											<originalaudiofilename></originalaudiofilename>
										</logginginfo>
										<colorinfo>
											<lut></lut>
											<lut1></lut1>
											<asc_sop></asc_sop>
											<asc_sat></asc_sat>
											<lut2></lut2>
										</colorinfo>
									</clipitem>
									<enabled>TRUE</enabled>
									<locked>FALSE</locked>
								</track>
								<track TL.SQTrackShy="0" TL.SQTrackExpandedHeight="25" TL.SQTrackExpanded="0" MZ.TrackTargeted="0">
									<clipitem id="clipitem-207">
										<masterclipid>masterclip-19</masterclipid>
										<name>Intro</name>
										<enabled>TRUE</enabled>
										<duration>160</duration>
										<rate>
											<timebase>30</timebase>
											<ntsc>TRUE</ntsc>
										</rate>
										<start>0</start>
										<end>115</end>
										<in>0</in>
										<out>115</out>
										<pproTicksIn>0</pproTicksIn>
										<pproTicksOut>974701728000</pproTicksOut>
										<sequence id="sequence-4"/>
											<marker>
												<comment></comment>
												<name></name>
												<in>82</in>
												<out>-1</out>
											</marker>
										<link>
											<linkclipref>clipitem-207</linkclipref>
											<mediatype>video</mediatype>
											<trackindex>4</trackindex>
											<clipindex>1</clipindex>
										</link>
										<link>
											<linkclipref>clipitem-214</linkclipref>
											<mediatype>audio</mediatype>
											<trackindex>3</trackindex>
											<clipindex>1</clipindex>
											<groupindex>1</groupindex>
										</link>
										<link>
											<linkclipref>clipitem-217</linkclipref>
											<mediatype>audio</mediatype>
											<trackindex>4</trackindex>
											<clipindex>1</clipindex>
											<groupindex>1</groupindex>
										</link>
										<labels>
											<label2>Forest</label2>
										</labels>
									</clipitem>
									<clipitem id="clipitem-208">
										<masterclipid>masterclip-42</masterclipid>
										<name>Transition 1</name>
										<enabled>TRUE</enabled>
										<duration>160</duration>
										<rate>
											<timebase>30</timebase>
											<ntsc>TRUE</ntsc>
										</rate>
										<start>3408</start>
										<end>3526</end>
										<in>0</in>
										<out>118</out>
										<pproTicksIn>0</pproTicksIn>
										<pproTicksOut>1000128729600</pproTicksOut>
										<sequence id="sequence-11"/>
											<marker>
												<comment></comment>
												<name></name>
												<in>56</in>
												<out>-1</out>
											</marker>
										<link>
											<linkclipref>clipitem-208</linkclipref>
											<mediatype>video</mediatype>
											<trackindex>4</trackindex>
											<clipindex>2</clipindex>
										</link>
										<link>
											<linkclipref>clipitem-215</linkclipref>
											<mediatype>audio</mediatype>
											<trackindex>3</trackindex>
											<clipindex>2</clipindex>
											<groupindex>1</groupindex>
										</link>
										<link>
											<linkclipref>clipitem-218</linkclipref>
											<mediatype>audio</mediatype>
											<trackindex>4</trackindex>
											<clipindex>2</clipindex>
											<groupindex>1</groupindex>
										</link>
										<labels>
											<label2>Forest</label2>
										</labels>
									</clipitem>
									<clipitem id="clipitem-209">
										<masterclipid>masterclip-23</masterclipid>
										<name>Outro</name>
										<enabled>TRUE</enabled>
										<duration>160</duration>
										<rate>
											<timebase>30</timebase>
											<ntsc>TRUE</ntsc>
										</rate>
										<start>5277</start>
										<end>5414</end>
										<in>0</in>
										<out>137</out>
										<pproTicksIn>0</pproTicksIn>
										<pproTicksOut>1161166406400</pproTicksOut>
										<sequence id="sequence-6"/>
											<marker>
												<comment></comment>
												<name></name>
												<in>42</in>
												<out>-1</out>
											</marker>
										<link>
											<linkclipref>clipitem-209</linkclipref>
											<mediatype>video</mediatype>
											<trackindex>4</trackindex>
											<clipindex>3</clipindex>
										</link>
										<link>
											<linkclipref>clipitem-216</linkclipref>
											<mediatype>audio</mediatype>
											<trackindex>3</trackindex>
											<clipindex>3</clipindex>
											<groupindex>1</groupindex>
										</link>
										<link>
											<linkclipref>clipitem-219</linkclipref>
											<mediatype>audio</mediatype>
											<trackindex>4</trackindex>
											<clipindex>3</clipindex>
											<groupindex>1</groupindex>
										</link>
										<labels>
											<label2>Forest</label2>
										</labels>
									</clipitem>
									<enabled>TRUE</enabled>
									<locked>FALSE</locked>
								</track>
							</video>
							<audio>
								<numOutputChannels>2</numOutputChannels>
								<format>
									<samplecharacteristics>
										<depth>16</depth>
										<samplerate>48000</samplerate>
									</samplecharacteristics>
								</format>
								<outputs>
									<group>
										<index>1</index>
										<numchannels>1</numchannels>
										<downmix>0</downmix>
										<channel>
											<index>1</index>
										</channel>
									</group>
									<group>
										<index>2</index>
										<numchannels>1</numchannels>
										<downmix>0</downmix>
										<channel>
											<index>2</index>
										</channel>
									</group>
								</outputs>
								<track TL.SQTrackAudioKeyframeStyle="0" TL.SQTrackShy="0" TL.SQTrackExpandedHeight="25" TL.SQTrackExpanded="0" MZ.TrackTargeted="1" PannerCurrentValue="0.5" PannerIsInverted="true" PannerStartKeyframe="-91445760000000000,0.5,0,0,0,0,0,0" PannerName="Balance" currentExplodedTrackIndex="0" totalExplodedTrackCount="2" premiereTrackType="Stereo">
									<clipitem id="clipitem-210" premiereChannelType="stereo">
										<masterclipid>masterclip-69</masterclipid>
										<name>Out of this World Desserts_2</name>
										<enabled>TRUE</enabled>
										<duration>5700</duration>
										<rate>
											<timebase>30</timebase>
											<ntsc>TRUE</ntsc>
										</rate>
										<start>82</start>
										<end>-1</end>
										<in>0</in>
										<out>3382</out>
										<pproTicksIn>0</pproTicksIn>
										<pproTicksOut>28664706470400</pproTicksOut>
										<sequence id="sequence-16"/>
										<sourcetrack>
											<mediatype>audio</mediatype>
											<trackindex>0</trackindex>
										</sourcetrack>
										<link>
											<linkclipref>clipitem-173</linkclipref>
											<mediatype>video</mediatype>
											<trackindex>1</trackindex>
											<clipindex>1</clipindex>
										</link>
										<link>
											<linkclipref>clipitem-210</linkclipref>
											<mediatype>audio</mediatype>
											<trackindex>1</trackindex>
											<clipindex>1</clipindex>
											<groupindex>1</groupindex>
										</link>
										<link>
											<linkclipref>clipitem-212</linkclipref>
											<mediatype>audio</mediatype>
											<trackindex>2</trackindex>
											<clipindex>1</clipindex>
											<groupindex>1</groupindex>
										</link>
										<labels>
											<label2>Forest</label2>
										</labels>
									</clipitem>
									<transitionitem>
										<start>3434</start>
										<end>3464</end>
										<pproTicksIn>29105441164800</pproTicksIn>
										<pproTicksOut>29359711180800</pproTicksOut>
										<alignment>end-black</alignment>
										<cutPointTicks>254270016000</cutPointTicks>
										<rate>
											<timebase>30</timebase>
											<ntsc>TRUE</ntsc>
										</rate>
										<effect>
											<name>Cross Fade ( 0dB)</name>
											<effectid>KGAudioTransCrossFade0dB</effectid>
											<effecttype>transition</effecttype>
											<mediatype>audio</mediatype>
											<wipecode>0</wipecode>
											<wipeaccuracy>100</wipeaccuracy>
											<startratio>0</startratio>
											<endratio>1</endratio>
											<reverse>FALSE</reverse>
										</effect>
									</transitionitem>
									<clipitem id="clipitem-211" premiereChannelType="stereo">
										<masterclipid>masterclip-77</masterclipid>
										<name>Chocolate and Orange the Gourmet Way_1</name>
										<enabled>TRUE</enabled>
										<duration>2850</duration>
										<rate>
											<timebase>30</timebase>
											<ntsc>TRUE</ntsc>
										</rate>
										<start>3464</start>
										<end>-1</end>
										<in>0</in>
										<out>1855</out>
										<pproTicksIn>0</pproTicksIn>
										<pproTicksOut>15722362656000</pproTicksOut>
										<sequence id="sequence-17"/>
										<sourcetrack>
											<mediatype>audio</mediatype>
											<trackindex>0</trackindex>
										</sourcetrack>
										<link>
											<linkclipref>clipitem-194</linkclipref>
											<mediatype>video</mediatype>
											<trackindex>1</trackindex>
											<clipindex>2</clipindex>
										</link>
										<link>
											<linkclipref>clipitem-211</linkclipref>
											<mediatype>audio</mediatype>
											<trackindex>1</trackindex>
											<clipindex>3</clipindex>
											<groupindex>1</groupindex>
										</link>
										<link>
											<linkclipref>clipitem-213</linkclipref>
											<mediatype>audio</mediatype>
											<trackindex>2</trackindex>
											<clipindex>3</clipindex>
											<groupindex>1</groupindex>
										</link>
										<labels>
											<label2>Forest</label2>
										</labels>
									</clipitem>
									<transitionitem>
										<start>5289</start>
										<end>5319</end>
										<pproTicksIn>44827803820800</pproTicksIn>
										<pproTicksOut>45082073836800</pproTicksOut>
										<alignment>end-black</alignment>
										<cutPointTicks>254270016000</cutPointTicks>
										<rate>
											<timebase>30</timebase>
											<ntsc>TRUE</ntsc>
										</rate>
										<effect>
											<name>Cross Fade ( 0dB)</name>
											<effectid>KGAudioTransCrossFade0dB</effectid>
											<effecttype>transition</effecttype>
											<mediatype>audio</mediatype>
											<wipecode>0</wipecode>
											<wipeaccuracy>100</wipeaccuracy>
											<startratio>0</startratio>
											<endratio>1</endratio>
											<reverse>FALSE</reverse>
										</effect>
									</transitionitem>
									<enabled>TRUE</enabled>
									<locked>FALSE</locked>
									<outputchannelindex>1</outputchannelindex>
								</track>
								<track TL.SQTrackAudioKeyframeStyle="0" TL.SQTrackShy="0" TL.SQTrackExpandedHeight="25" TL.SQTrackExpanded="0" MZ.TrackTargeted="1" PannerCurrentValue="0.5" PannerIsInverted="true" PannerStartKeyframe="-91445760000000000,0.5,0,0,0,0,0,0" PannerName="Balance" currentExplodedTrackIndex="1" totalExplodedTrackCount="2" premiereTrackType="Stereo">
									<clipitem id="clipitem-212" premiereChannelType="stereo">
										<masterclipid>masterclip-69</masterclipid>
										<name>Out of this World Desserts_2</name>
										<enabled>TRUE</enabled>
										<duration>5700</duration>
										<rate>
											<timebase>30</timebase>
											<ntsc>TRUE</ntsc>
										</rate>
										<start>82</start>
										<end>-1</end>
										<in>0</in>
										<out>3382</out>
										<pproTicksIn>0</pproTicksIn>
										<pproTicksOut>28664706470400</pproTicksOut>
										<sequence id="sequence-16"/>
										<sourcetrack>
											<mediatype>audio</mediatype>
											<trackindex>1</trackindex>
										</sourcetrack>
										<link>
											<linkclipref>clipitem-173</linkclipref>
											<mediatype>video</mediatype>
											<trackindex>1</trackindex>
											<clipindex>1</clipindex>
										</link>
										<link>
											<linkclipref>clipitem-210</linkclipref>
											<mediatype>audio</mediatype>
											<trackindex>1</trackindex>
											<clipindex>1</clipindex>
											<groupindex>1</groupindex>
										</link>
										<link>
											<linkclipref>clipitem-212</linkclipref>
											<mediatype>audio</mediatype>
											<trackindex>2</trackindex>
											<clipindex>1</clipindex>
											<groupindex>1</groupindex>
										</link>
										<labels>
											<label2>Forest</label2>
										</labels>
									</clipitem>
									<transitionitem>
										<start>3434</start>
										<end>3464</end>
										<pproTicksIn>29105441164800</pproTicksIn>
										<pproTicksOut>29359711180800</pproTicksOut>
										<alignment>end-black</alignment>
										<cutPointTicks>254270016000</cutPointTicks>
										<rate>
											<timebase>30</timebase>
											<ntsc>TRUE</ntsc>
										</rate>
										<effect>
											<name>Cross Fade ( 0dB)</name>
											<effectid>KGAudioTransCrossFade0dB</effectid>
											<effecttype>transition</effecttype>
											<mediatype>audio</mediatype>
											<wipecode>0</wipecode>
											<wipeaccuracy>100</wipeaccuracy>
											<startratio>0</startratio>
											<endratio>1</endratio>
											<reverse>FALSE</reverse>
										</effect>
									</transitionitem>
									<clipitem id="clipitem-213" premiereChannelType="stereo">
										<masterclipid>masterclip-77</masterclipid>
										<name>Chocolate and Orange the Gourmet Way_1</name>
										<enabled>TRUE</enabled>
										<duration>2850</duration>
										<rate>
											<timebase>30</timebase>
											<ntsc>TRUE</ntsc>
										</rate>
										<start>3464</start>
										<end>-1</end>
										<in>0</in>
										<out>1855</out>
										<pproTicksIn>0</pproTicksIn>
										<pproTicksOut>15722362656000</pproTicksOut>
										<sequence id="sequence-17"/>
										<sourcetrack>
											<mediatype>audio</mediatype>
											<trackindex>1</trackindex>
										</sourcetrack>
										<link>
											<linkclipref>clipitem-194</linkclipref>
											<mediatype>video</mediatype>
											<trackindex>1</trackindex>
											<clipindex>2</clipindex>
										</link>
										<link>
											<linkclipref>clipitem-211</linkclipref>
											<mediatype>audio</mediatype>
											<trackindex>1</trackindex>
											<clipindex>3</clipindex>
											<groupindex>1</groupindex>
										</link>
										<link>
											<linkclipref>clipitem-213</linkclipref>
											<mediatype>audio</mediatype>
											<trackindex>2</trackindex>
											<clipindex>3</clipindex>
											<groupindex>1</groupindex>
										</link>
										<labels>
											<label2>Forest</label2>
										</labels>
									</clipitem>
									<transitionitem>
										<start>5289</start>
										<end>5319</end>
										<pproTicksIn>44827803820800</pproTicksIn>
										<pproTicksOut>45082073836800</pproTicksOut>
										<alignment>end-black</alignment>
										<cutPointTicks>254270016000</cutPointTicks>
										<rate>
											<timebase>30</timebase>
											<ntsc>TRUE</ntsc>
										</rate>
										<effect>
											<name>Cross Fade ( 0dB)</name>
											<effectid>KGAudioTransCrossFade0dB</effectid>
											<effecttype>transition</effecttype>
											<mediatype>audio</mediatype>
											<wipecode>0</wipecode>
											<wipeaccuracy>100</wipeaccuracy>
											<startratio>0</startratio>
											<endratio>1</endratio>
											<reverse>FALSE</reverse>
										</effect>
									</transitionitem>
									<enabled>TRUE</enabled>
									<locked>FALSE</locked>
									<outputchannelindex>2</outputchannelindex>
								</track>
								<track TL.SQTrackAudioKeyframeStyle="0" TL.SQTrackShy="0" TL.SQTrackExpandedHeight="25" TL.SQTrackExpanded="0" MZ.TrackTargeted="1" PannerCurrentValue="0.5" PannerIsInverted="true" PannerStartKeyframe="-91445760000000000,0.5,0,0,0,0,0,0" PannerName="Balance" currentExplodedTrackIndex="0" totalExplodedTrackCount="2" premiereTrackType="Stereo">
									<clipitem id="clipitem-214" premiereChannelType="stereo">
										<masterclipid>masterclip-19</masterclipid>
										<name>Intro</name>
										<enabled>TRUE</enabled>
										<duration>160</duration>
										<rate>
											<timebase>30</timebase>
											<ntsc>TRUE</ntsc>
										</rate>
										<start>0</start>
										<end>115</end>
										<in>0</in>
										<out>115</out>
										<pproTicksIn>0</pproTicksIn>
										<pproTicksOut>974701728000</pproTicksOut>
										<sequence id="sequence-4"/>
										<sourcetrack>
											<mediatype>audio</mediatype>
											<trackindex>0</trackindex>
										</sourcetrack>
											<marker>
												<comment></comment>
												<name></name>
												<in>82</in>
												<out>-1</out>
											</marker>
										<link>
											<linkclipref>clipitem-207</linkclipref>
											<mediatype>video</mediatype>
											<trackindex>4</trackindex>
											<clipindex>1</clipindex>
										</link>
										<link>
											<linkclipref>clipitem-214</linkclipref>
											<mediatype>audio</mediatype>
											<trackindex>3</trackindex>
											<clipindex>1</clipindex>
											<groupindex>1</groupindex>
										</link>
										<link>
											<linkclipref>clipitem-217</linkclipref>
											<mediatype>audio</mediatype>
											<trackindex>4</trackindex>
											<clipindex>1</clipindex>
											<groupindex>1</groupindex>
										</link>
										<labels>
											<label2>Forest</label2>
										</labels>
									</clipitem>
									<clipitem id="clipitem-215" premiereChannelType="stereo">
										<masterclipid>masterclip-42</masterclipid>
										<name>Transition 1</name>
										<enabled>TRUE</enabled>
										<duration>160</duration>
										<rate>
											<timebase>30</timebase>
											<ntsc>TRUE</ntsc>
										</rate>
										<start>3408</start>
										<end>3526</end>
										<in>0</in>
										<out>118</out>
										<pproTicksIn>0</pproTicksIn>
										<pproTicksOut>1000128729600</pproTicksOut>
										<sequence id="sequence-11"/>
										<sourcetrack>
											<mediatype>audio</mediatype>
											<trackindex>0</trackindex>
										</sourcetrack>
											<marker>
												<comment></comment>
												<name></name>
												<in>56</in>
												<out>-1</out>
											</marker>
										<link>
											<linkclipref>clipitem-208</linkclipref>
											<mediatype>video</mediatype>
											<trackindex>4</trackindex>
											<clipindex>2</clipindex>
										</link>
										<link>
											<linkclipref>clipitem-215</linkclipref>
											<mediatype>audio</mediatype>
											<trackindex>3</trackindex>
											<clipindex>2</clipindex>
											<groupindex>1</groupindex>
										</link>
										<link>
											<linkclipref>clipitem-218</linkclipref>
											<mediatype>audio</mediatype>
											<trackindex>4</trackindex>
											<clipindex>2</clipindex>
											<groupindex>1</groupindex>
										</link>
										<labels>
											<label2>Forest</label2>
										</labels>
									</clipitem>
									<clipitem id="clipitem-216" premiereChannelType="stereo">
										<masterclipid>masterclip-23</masterclipid>
										<name>Outro</name>
										<enabled>TRUE</enabled>
										<duration>160</duration>
										<rate>
											<timebase>30</timebase>
											<ntsc>TRUE</ntsc>
										</rate>
										<start>5277</start>
										<end>5414</end>
										<in>0</in>
										<out>137</out>
										<pproTicksIn>0</pproTicksIn>
										<pproTicksOut>1161166406400</pproTicksOut>
										<sequence id="sequence-6"/>
										<sourcetrack>
											<mediatype>audio</mediatype>
											<trackindex>0</trackindex>
										</sourcetrack>
											<marker>
												<comment></comment>
												<name></name>
												<in>42</in>
												<out>-1</out>
											</marker>
										<link>
											<linkclipref>clipitem-209</linkclipref>
											<mediatype>video</mediatype>
											<trackindex>4</trackindex>
											<clipindex>3</clipindex>
										</link>
										<link>
											<linkclipref>clipitem-216</linkclipref>
											<mediatype>audio</mediatype>
											<trackindex>3</trackindex>
											<clipindex>3</clipindex>
											<groupindex>1</groupindex>
										</link>
										<link>
											<linkclipref>clipitem-219</linkclipref>
											<mediatype>audio</mediatype>
											<trackindex>4</trackindex>
											<clipindex>3</clipindex>
											<groupindex>1</groupindex>
										</link>
										<labels>
											<label2>Forest</label2>
										</labels>
									</clipitem>
									<enabled>TRUE</enabled>
									<locked>FALSE</locked>
									<outputchannelindex>1</outputchannelindex>
								</track>
								<track TL.SQTrackAudioKeyframeStyle="0" TL.SQTrackShy="0" TL.SQTrackExpandedHeight="25" TL.SQTrackExpanded="0" MZ.TrackTargeted="1" PannerCurrentValue="0.5" PannerIsInverted="true" PannerStartKeyframe="-91445760000000000,0.5,0,0,0,0,0,0" PannerName="Balance" currentExplodedTrackIndex="1" totalExplodedTrackCount="2" premiereTrackType="Stereo">
									<clipitem id="clipitem-217" premiereChannelType="stereo">
										<masterclipid>masterclip-19</masterclipid>
										<name>Intro</name>
										<enabled>TRUE</enabled>
										<duration>160</duration>
										<rate>
											<timebase>30</timebase>
											<ntsc>TRUE</ntsc>
										</rate>
										<start>0</start>
										<end>115</end>
										<in>0</in>
										<out>115</out>
										<pproTicksIn>0</pproTicksIn>
										<pproTicksOut>974701728000</pproTicksOut>
										<sequence id="sequence-4"/>
										<sourcetrack>
											<mediatype>audio</mediatype>
											<trackindex>1</trackindex>
										</sourcetrack>
											<marker>
												<comment></comment>
												<name></name>
												<in>82</in>
												<out>-1</out>
											</marker>
										<link>
											<linkclipref>clipitem-207</linkclipref>
											<mediatype>video</mediatype>
											<trackindex>4</trackindex>
											<clipindex>1</clipindex>
										</link>
										<link>
											<linkclipref>clipitem-214</linkclipref>
											<mediatype>audio</mediatype>
											<trackindex>3</trackindex>
											<clipindex>1</clipindex>
											<groupindex>1</groupindex>
										</link>
										<link>
											<linkclipref>clipitem-217</linkclipref>
											<mediatype>audio</mediatype>
											<trackindex>4</trackindex>
											<clipindex>1</clipindex>
											<groupindex>1</groupindex>
										</link>
										<labels>
											<label2>Forest</label2>
										</labels>
									</clipitem>
									<clipitem id="clipitem-218" premiereChannelType="stereo">
										<masterclipid>masterclip-42</masterclipid>
										<name>Transition 1</name>
										<enabled>TRUE</enabled>
										<duration>160</duration>
										<rate>
											<timebase>30</timebase>
											<ntsc>TRUE</ntsc>
										</rate>
										<start>3408</start>
										<end>3526</end>
										<in>0</in>
										<out>118</out>
										<pproTicksIn>0</pproTicksIn>
										<pproTicksOut>1000128729600</pproTicksOut>
										<sequence id="sequence-11"/>
										<sourcetrack>
											<mediatype>audio</mediatype>
											<trackindex>1</trackindex>
										</sourcetrack>
											<marker>
												<comment></comment>
												<name></name>
												<in>56</in>
												<out>-1</out>
											</marker>
										<link>
											<linkclipref>clipitem-208</linkclipref>
											<mediatype>video</mediatype>
											<trackindex>4</trackindex>
											<clipindex>2</clipindex>
										</link>
										<link>
											<linkclipref>clipitem-215</linkclipref>
											<mediatype>audio</mediatype>
											<trackindex>3</trackindex>
											<clipindex>2</clipindex>
											<groupindex>1</groupindex>
										</link>
										<link>
											<linkclipref>clipitem-218</linkclipref>
											<mediatype>audio</mediatype>
											<trackindex>4</trackindex>
											<clipindex>2</clipindex>
											<groupindex>1</groupindex>
										</link>
										<labels>
											<label2>Forest</label2>
										</labels>
									</clipitem>
									<clipitem id="clipitem-219" premiereChannelType="stereo">
										<masterclipid>masterclip-23</masterclipid>
										<name>Outro</name>
										<enabled>TRUE</enabled>
										<duration>160</duration>
										<rate>
											<timebase>30</timebase>
											<ntsc>TRUE</ntsc>
										</rate>
										<start>5277</start>
										<end>5414</end>
										<in>0</in>
										<out>137</out>
										<pproTicksIn>0</pproTicksIn>
										<pproTicksOut>1161166406400</pproTicksOut>
										<sequence id="sequence-6"/>
										<sourcetrack>
											<mediatype>audio</mediatype>
											<trackindex>1</trackindex>
										</sourcetrack>
											<marker>
												<comment></comment>
												<name></name>
												<in>42</in>
												<out>-1</out>
											</marker>
										<link>
											<linkclipref>clipitem-209</linkclipref>
											<mediatype>video</mediatype>
											<trackindex>4</trackindex>
											<clipindex>3</clipindex>
										</link>
										<link>
											<linkclipref>clipitem-216</linkclipref>
											<mediatype>audio</mediatype>
											<trackindex>3</trackindex>
											<clipindex>3</clipindex>
											<groupindex>1</groupindex>
										</link>
										<link>
											<linkclipref>clipitem-219</linkclipref>
											<mediatype>audio</mediatype>
											<trackindex>4</trackindex>
											<clipindex>3</clipindex>
											<groupindex>1</groupindex>
										</link>
										<labels>
											<label2>Forest</label2>
										</labels>
									</clipitem>
									<enabled>TRUE</enabled>
									<locked>FALSE</locked>
									<outputchannelindex>2</outputchannelindex>
								</track>
								<track TL.SQTrackAudioKeyframeStyle="0" TL.SQTrackShy="0" TL.SQTrackExpandedHeight="25" TL.SQTrackExpanded="0" MZ.TrackTargeted="1" PannerCurrentValue="0.5" PannerIsInverted="true" PannerStartKeyframe="-91445760000000000,0.5,0,0,0,0,0,0" PannerName="Balance" currentExplodedTrackIndex="0" totalExplodedTrackCount="2" premiereTrackType="Stereo">
									<enabled>TRUE</enabled>
									<locked>FALSE</locked>
									<outputchannelindex>1</outputchannelindex>
								</track>
								<track TL.SQTrackAudioKeyframeStyle="0" TL.SQTrackShy="0" TL.SQTrackExpandedHeight="25" TL.SQTrackExpanded="0" MZ.TrackTargeted="1" PannerCurrentValue="0.5" PannerIsInverted="true" PannerStartKeyframe="-91445760000000000,0.5,0,0,0,0,0,0" PannerName="Balance" currentExplodedTrackIndex="1" totalExplodedTrackCount="2" premiereTrackType="Stereo">
									<enabled>TRUE</enabled>
									<locked>FALSE</locked>
									<outputchannelindex>2</outputchannelindex>
								</track>
							</audio>
						</media>
						<timecode>
							<rate>
								<timebase>30</timebase>
								<ntsc>TRUE</ntsc>
							</rate>
							<string>00;00;00;00</string>
							<frame>0</frame>
							<displayformat>DF</displayformat>
						</timecode>
						<labels>
							<label2>Forest</label2>
						</labels>
						<logginginfo>
							<description></description>
							<scene></scene>
							<shottake></shottake>
							<lognote></lognote>
							<good></good>
							<originalvideofilename></originalvideofilename>
							<originalaudiofilename></originalaudiofilename>
						</logginginfo>
					</sequence>
					<sequence id="sequence-18" TL.SQAudioVisibleBase="0" TL.SQVideoVisibleBase="0" TL.SQVisibleBaseTime="0" TL.SQAVDividerPosition="0.5" TL.SQHideShyTracks="0" TL.SQHeaderWidth="236" TL.SQDataTrackViewControlState="0" Monitor.ProgramZoomOut="45310916851200" Monitor.ProgramZoomIn="0" TL.SQTimePerPixel="0.17517513380909649" AM.TrackVScrollPosition="0" AM.TrackScrollPosition="0" MZ.EditLine="0" MZ.Sequence.PreviewFrameSizeHeight="1080" MZ.Sequence.PreviewFrameSizeWidth="1920" MZ.Sequence.AudioTimeDisplayFormat="200" MZ.Sequence.PreviewRenderingClassID="1061109567" MZ.Sequence.PreviewRenderingPresetCodec="1634755443" MZ.Sequence.PreviewRenderingPresetPath="EncoderPresets/SequencePreview/35d109db-457b-43c1-9452-9cb7be9f121c/QuickTime.epr" MZ.Sequence.PreviewUseMaxRenderQuality="false" MZ.Sequence.PreviewUseMaxBitDepth="false" MZ.Sequence.EditingModeGUID="35d109db-457b-43c1-9452-9cb7be9f121c" MZ.Sequence.VideoTimeDisplayFormat="102" MZ.WorkOutPoint="15239249625600" MZ.WorkInPoint="0" explodedTracks="true">
						<uuid>11eb13af-6b9e-4891-9b31-3c5ef7cbd173</uuid>
						<duration>5346</duration>
						<rate>
							<timebase>30</timebase>
							<ntsc>TRUE</ntsc>
						</rate>
						<name>ATM_EYECANDY_243</name>
						<media>
							<video>
								<format>
									<samplecharacteristics>
										<rate>
											<timebase>30</timebase>
											<ntsc>TRUE</ntsc>
										</rate>
										<codec>
											<name>Apple ProRes 422</name>
											<appspecificdata>
												<appname>Final Cut Pro</appname>
												<appmanufacturer>Apple Inc.</appmanufacturer>
												<appversion>7.0</appversion>
												<data>
													<qtcodec>
														<codecname>Apple ProRes 422</codecname>
														<codectypename>Apple ProRes 422</codectypename>
														<codectypecode>apcn</codectypecode>
														<codecvendorcode>appl</codecvendorcode>
														<spatialquality>1024</spatialquality>
														<temporalquality>0</temporalquality>
														<keyframerate>0</keyframerate>
														<datarate>0</datarate>
													</qtcodec>
												</data>
											</appspecificdata>
										</codec>
										<width>1920</width>
										<height>1080</height>
										<anamorphic>FALSE</anamorphic>
										<pixelaspectratio>square</pixelaspectratio>
										<fielddominance>none</fielddominance>
										<colordepth>24</colordepth>
									</samplecharacteristics>
								</format>
								<track TL.SQTrackShy="0" TL.SQTrackExpandedHeight="25" TL.SQTrackExpanded="0" MZ.TrackTargeted="1">
									<clipitem id="clipitem-220">
										<masterclipid>masterclip-88</masterclipid>
										<name>These Cookies Are My Jam_1.5</name>
										<enabled>TRUE</enabled>
										<duration>2751</duration>
										<rate>
											<timebase>30</timebase>
											<ntsc>TRUE</ntsc>
										</rate>
										<start>82</start>
										<end>2415</end>
										<in>0</in>
										<out>2333</out>
										<pproTicksIn>0</pproTicksIn>
										<pproTicksOut>19773731577600</pproTicksOut>
										<sequence id="sequence-19" TL.SQAudioVisibleBase="0" TL.SQVideoVisibleBase="0" TL.SQVisibleBaseTime="0" TL.SQAVDividerPosition="0.5" TL.SQHideShyTracks="0" TL.SQHeaderWidth="236" TL.SQDataTrackViewControlState="0" Monitor.ProgramZoomOut="19841536915200" Monitor.ProgramZoomIn="0" TL.SQTimePerPixel="0.14436958614049597" AM.TrackVScrollPosition="0" AM.TrackScrollPosition="0" MZ.EditLine="19841536915200" MZ.Sequence.PreviewFrameSizeHeight="1080" MZ.Sequence.PreviewFrameSizeWidth="1920" MZ.Sequence.AudioTimeDisplayFormat="200" MZ.Sequence.PreviewRenderingClassID="1061109567" MZ.Sequence.PreviewRenderingPresetCodec="1634755443" MZ.Sequence.PreviewRenderingPresetPath="EncoderPresets/SequencePreview/35d109db-457b-43c1-9452-9cb7be9f121c/QuickTime.epr" MZ.Sequence.PreviewUseMaxRenderQuality="false" MZ.Sequence.PreviewUseMaxBitDepth="false" MZ.Sequence.EditingModeGUID="35d109db-457b-43c1-9452-9cb7be9f121c" MZ.Sequence.VideoTimeDisplayFormat="102" MZ.WorkOutPoint="1262874412800" MZ.WorkInPoint="0">
											<duration>2341</duration>
											<rate>
												<timebase>30</timebase>
												<ntsc>TRUE</ntsc>
											</rate>
											<name>FND_These Cookies Are My Jam_1.5</name>
											<media>
												<video>
													<format>
														<samplecharacteristics>
															<rate>
																<timebase>30</timebase>
																<ntsc>TRUE</ntsc>
															</rate>
															<codec>
																<name>Apple ProRes 422</name>
																<appspecificdata>
																	<appname>Final Cut Pro</appname>
																	<appmanufacturer>Apple Inc.</appmanufacturer>
																	<appversion>7.0</appversion>
																	<data>
																		<qtcodec>
																			<codecname>Apple ProRes 422</codecname>
																			<codectypename>Apple ProRes 422</codectypename>
																			<codectypecode>apcn</codectypecode>
																			<codecvendorcode>appl</codecvendorcode>
																			<spatialquality>1024</spatialquality>
																			<temporalquality>0</temporalquality>
																			<keyframerate>0</keyframerate>
																			<datarate>0</datarate>
																		</qtcodec>
																	</data>
																</appspecificdata>
															</codec>
															<width>1920</width>
															<height>1080</height>
															<anamorphic>FALSE</anamorphic>
															<pixelaspectratio>square</pixelaspectratio>
															<fielddominance>none</fielddominance>
															<colordepth>24</colordepth>
														</samplecharacteristics>
													</format>
													<track TL.SQTrackShy="0" TL.SQTrackExpandedHeight="25" TL.SQTrackExpanded="0" MZ.TrackTargeted="1">
														<clipitem id="clipitem-221">
															<masterclipid>masterclip-89</masterclipid>
															<name>588791_Mixer Dough Hands Cookies_By_Erik_Nuenighoff_Artlist_HD.mp4</name>
															<enabled>TRUE</enabled>
															<duration>258</duration>
															<rate>
																<timebase>30</timebase>
																<ntsc>TRUE</ntsc>
															</rate>
															<start>0</start>
															<end>100</end>
															<in>85</in>
															<out>185</out>
															<pproTicksIn>720431712000</pproTicksIn>
															<pproTicksOut>1567998432000</pproTicksOut>
															<alphatype>none</alphatype>
															<pixelaspectratio>square</pixelaspectratio>
															<anamorphic>FALSE</anamorphic>
															<file id="file-75">
																<name>588791_Mixer Dough Hands Cookies_By_Erik_Nuenighoff_Artlist_HD.mp4</name>
																<pathurl>file://localhost/Volumes/ATM%201/EYE%20CANDY/8%3a14%3a23/3_Raw%20Files/Artlist%20-%20%20Thumbprint%20Cookies/588791_Mixer%20Dough%20Hands%20Cookies_By_Erik_Nuenighoff_Artlist_HD.mp4</pathurl>
																<rate>
																	<timebase>24</timebase>
																	<ntsc>TRUE</ntsc>
																</rate>
																<duration>207</duration>
																<timecode>
																	<rate>
																		<timebase>24</timebase>
																		<ntsc>TRUE</ntsc>
																	</rate>
																	<string>13:29:57:05</string>
																	<frame>1166333</frame>
																	<displayformat>NDF</displayformat>
																</timecode>
																<media>
																	<video>
																		<samplecharacteristics>
																			<rate>
																				<timebase>24</timebase>
																				<ntsc>TRUE</ntsc>
																			</rate>
																			<width>1920</width>
																			<height>1080</height>
																			<anamorphic>FALSE</anamorphic>
																			<pixelaspectratio>square</pixelaspectratio>
																			<fielddominance>none</fielddominance>
																		</samplecharacteristics>
																	</video>
																</media>
															</file>
															<logginginfo>
																<description></description>
																<scene></scene>
																<shottake></shottake>
																<lognote></lognote>
																<good></good>
																<originalvideofilename></originalvideofilename>
																<originalaudiofilename></originalaudiofilename>
															</logginginfo>
															<colorinfo>
																<lut></lut>
																<lut1></lut1>
																<asc_sop></asc_sop>
																<asc_sat></asc_sat>
																<lut2></lut2>
															</colorinfo>
														</clipitem>
														<clipitem id="clipitem-222">
															<masterclipid>masterclip-90</masterclipid>
															<name>588786_Cookies Kneading Baking Hands_By_Erik_Nuenighoff_Artlist_HD.mp4</name>
															<enabled>TRUE</enabled>
															<duration>1023</duration>
															<rate>
																<timebase>30</timebase>
																<ntsc>TRUE</ntsc>
															</rate>
															<start>100</start>
															<end>241</end>
															<in>161</in>
															<out>302</out>
															<pproTicksIn>1364582419200</pproTicksIn>
															<pproTicksOut>2559651494400</pproTicksOut>
															<alphatype>none</alphatype>
															<pixelaspectratio>square</pixelaspectratio>
															<anamorphic>FALSE</anamorphic>
															<file id="file-76">
																<name>588786_Cookies Kneading Baking Hands_By_Erik_Nuenighoff_Artlist_HD.mp4</name>
																<pathurl>file://localhost/Volumes/ATM%201/EYE%20CANDY/8%3a14%3a23/3_Raw%20Files/Artlist%20-%20%20Thumbprint%20Cookies/588786_Cookies%20Kneading%20Baking%20Hands_By_Erik_Nuenighoff_Artlist_HD.mp4</pathurl>
																<rate>
																	<timebase>24</timebase>
																	<ntsc>TRUE</ntsc>
																</rate>
																<duration>819</duration>
																<timecode>
																	<rate>
																		<timebase>24</timebase>
																		<ntsc>TRUE</ntsc>
																	</rate>
																	<string>13:31:31:09</string>
																	<frame>1168593</frame>
																	<displayformat>NDF</displayformat>
																</timecode>
																<media>
																	<video>
																		<samplecharacteristics>
																			<rate>
																				<timebase>24</timebase>
																				<ntsc>TRUE</ntsc>
																			</rate>
																			<width>1920</width>
																			<height>1080</height>
																			<anamorphic>FALSE</anamorphic>
																			<pixelaspectratio>square</pixelaspectratio>
																			<fielddominance>none</fielddominance>
																		</samplecharacteristics>
																	</video>
																</media>
															</file>
															<logginginfo>
																<description></description>
																<scene></scene>
																<shottake></shottake>
																<lognote></lognote>
																<good></good>
																<originalvideofilename></originalvideofilename>
																<originalaudiofilename></originalaudiofilename>
															</logginginfo>
															<colorinfo>
																<lut></lut>
																<lut1></lut1>
																<asc_sop></asc_sop>
																<asc_sat></asc_sat>
																<lut2></lut2>
															</colorinfo>
															<labels>
																<label2>Violet</label2>
															</labels>
														</clipitem>
														<clipitem id="clipitem-223">
															<masterclipid>masterclip-91</masterclipid>
															<name>588780_Cookies Baking Hands Dough_By_Erik_Nuenighoff_Artlist_HD.mp4</name>
															<enabled>TRUE</enabled>
															<duration>476</duration>
															<rate>
																<timebase>30</timebase>
																<ntsc>TRUE</ntsc>
															</rate>
															<start>241</start>
															<end>373</end>
															<in>291</in>
															<out>423</out>
															<pproTicksIn>2466419155200</pproTicksIn>
															<pproTicksOut>3585207225600</pproTicksOut>
															<alphatype>none</alphatype>
															<pixelaspectratio>square</pixelaspectratio>
															<anamorphic>FALSE</anamorphic>
															<file id="file-77">
																<name>588780_Cookies Baking Hands Dough_By_Erik_Nuenighoff_Artlist_HD.mp4</name>
																<pathurl>file://localhost/Volumes/ATM%201/EYE%20CANDY/8%3a14%3a23/3_Raw%20Files/Artlist%20-%20%20Thumbprint%20Cookies/588780_Cookies%20Baking%20Hands%20Dough_By_Erik_Nuenighoff_Artlist_HD.mp4</pathurl>
																<rate>
																	<timebase>24</timebase>
																	<ntsc>TRUE</ntsc>
																</rate>
																<duration>381</duration>
																<timecode>
																	<rate>
																		<timebase>24</timebase>
																		<ntsc>TRUE</ntsc>
																	</rate>
																	<string>13:32:12:03</string>
																	<frame>1169571</frame>
																	<displayformat>NDF</displayformat>
																</timecode>
																<media>
																	<video>
																		<samplecharacteristics>
																			<rate>
																				<timebase>24</timebase>
																				<ntsc>TRUE</ntsc>
																			</rate>
																			<width>1920</width>
																			<height>1080</height>
																			<anamorphic>FALSE</anamorphic>
																			<pixelaspectratio>square</pixelaspectratio>
																			<fielddominance>none</fielddominance>
																		</samplecharacteristics>
																	</video>
																</media>
															</file>
															<logginginfo>
																<description></description>
																<scene></scene>
																<shottake></shottake>
																<lognote></lognote>
																<good></good>
																<originalvideofilename></originalvideofilename>
																<originalaudiofilename></originalaudiofilename>
															</logginginfo>
															<colorinfo>
																<lut></lut>
																<lut1></lut1>
																<asc_sop></asc_sop>
																<asc_sat></asc_sat>
																<lut2></lut2>
															</colorinfo>
															<labels>
																<label2>Violet</label2>
															</labels>
														</clipitem>
														<clipitem id="clipitem-224">
															<masterclipid>masterclip-92</masterclipid>
															<name>588787_Cookies Kneading Baking Hands_By_Erik_Nuenighoff_Artlist_HD.mp4</name>
															<enabled>TRUE</enabled>
															<duration>771</duration>
															<rate>
																<timebase>30</timebase>
																<ntsc>TRUE</ntsc>
															</rate>
															<start>373</start>
															<end>572</end>
															<in>463</in>
															<out>662</out>
															<pproTicksIn>3924233913600</pproTicksIn>
															<pproTicksOut>5610891686400</pproTicksOut>
															<alphatype>none</alphatype>
															<pixelaspectratio>square</pixelaspectratio>
															<anamorphic>FALSE</anamorphic>
															<file id="file-78">
																<name>588787_Cookies Kneading Baking Hands_By_Erik_Nuenighoff_Artlist_HD.mp4</name>
																<pathurl>file://localhost/Volumes/ATM%201/EYE%20CANDY/8%3a14%3a23/3_Raw%20Files/Artlist%20-%20%20Thumbprint%20Cookies/588787_Cookies%20Kneading%20Baking%20Hands_By_Erik_Nuenighoff_Artlist_HD.mp4</pathurl>
																<rate>
																	<timebase>24</timebase>
																	<ntsc>TRUE</ntsc>
																</rate>
																<duration>617</duration>
																<timecode>
																	<rate>
																		<timebase>24</timebase>
																		<ntsc>TRUE</ntsc>
																	</rate>
																	<string>13:33:05:21</string>
																	<frame>1170861</frame>
																	<displayformat>NDF</displayformat>
																</timecode>
																<media>
																	<video>
																		<samplecharacteristics>
																			<rate>
																				<timebase>24</timebase>
																				<ntsc>TRUE</ntsc>
																			</rate>
																			<width>1920</width>
																			<height>1080</height>
																			<anamorphic>FALSE</anamorphic>
																			<pixelaspectratio>square</pixelaspectratio>
																			<fielddominance>none</fielddominance>
																		</samplecharacteristics>
																	</video>
																</media>
															</file>
															<logginginfo>
																<description></description>
																<scene></scene>
																<shottake></shottake>
																<lognote></lognote>
																<good></good>
																<originalvideofilename></originalvideofilename>
																<originalaudiofilename></originalaudiofilename>
															</logginginfo>
															<colorinfo>
																<lut></lut>
																<lut1></lut1>
																<asc_sop></asc_sop>
																<asc_sat></asc_sat>
																<lut2></lut2>
															</colorinfo>
															<labels>
																<label2>Violet</label2>
															</labels>
														</clipitem>
														<clipitem id="clipitem-225">
															<masterclipid>masterclip-93</masterclipid>
															<name>588783_Cookies Baking Hands Dough_By_Erik_Nuenighoff_Artlist_HD.mp4</name>
															<enabled>TRUE</enabled>
															<duration>233</duration>
															<rate>
																<timebase>30</timebase>
																<ntsc>TRUE</ntsc>
															</rate>
															<start>572</start>
															<end>658</end>
															<in>147</in>
															<out>233</out>
															<pproTicksIn>1245923078400</pproTicksIn>
															<pproTicksOut>1974830457600</pproTicksOut>
															<alphatype>none</alphatype>
															<pixelaspectratio>square</pixelaspectratio>
															<anamorphic>FALSE</anamorphic>
															<file id="file-79">
																<name>588783_Cookies Baking Hands Dough_By_Erik_Nuenighoff_Artlist_HD.mp4</name>
																<pathurl>file://localhost/Volumes/ATM%201/EYE%20CANDY/8%3a14%3a23/3_Raw%20Files/Artlist%20-%20%20Thumbprint%20Cookies/588783_Cookies%20Baking%20Hands%20Dough_By_Erik_Nuenighoff_Artlist_HD.mp4</pathurl>
																<rate>
																	<timebase>24</timebase>
																	<ntsc>TRUE</ntsc>
																</rate>
																<duration>187</duration>
																<timecode>
																	<rate>
																		<timebase>24</timebase>
																		<ntsc>TRUE</ntsc>
																	</rate>
																	<string>13:35:48:19</string>
																	<frame>1174771</frame>
																	<displayformat>NDF</displayformat>
																</timecode>
																<media>
																	<video>
																		<samplecharacteristics>
																			<rate>
																				<timebase>24</timebase>
																				<ntsc>TRUE</ntsc>
																			</rate>
																			<width>1920</width>
																			<height>1080</height>
																			<anamorphic>FALSE</anamorphic>
																			<pixelaspectratio>square</pixelaspectratio>
																			<fielddominance>none</fielddominance>
																		</samplecharacteristics>
																	</video>
																</media>
															</file>
															<logginginfo>
																<description></description>
																<scene></scene>
																<shottake></shottake>
																<lognote></lognote>
																<good></good>
																<originalvideofilename></originalvideofilename>
																<originalaudiofilename></originalaudiofilename>
															</logginginfo>
															<colorinfo>
																<lut></lut>
																<lut1></lut1>
																<asc_sop></asc_sop>
																<asc_sat></asc_sat>
																<lut2></lut2>
															</colorinfo>
															<labels>
																<label2>Violet</label2>
															</labels>
														</clipitem>
														<clipitem id="clipitem-226">
															<masterclipid>masterclip-94</masterclipid>
															<name>588788_Cookies Kneading Baking Hands_By_Erik_Nuenighoff_Artlist_HD.mp4</name>
															<enabled>TRUE</enabled>
															<duration>1176</duration>
															<rate>
																<timebase>30</timebase>
																<ntsc>TRUE</ntsc>
															</rate>
															<start>658</start>
															<end>1039</end>
															<in>502</in>
															<out>883</out>
															<pproTicksIn>4254784934400</pproTicksIn>
															<pproTicksOut>7484014137600</pproTicksOut>
															<alphatype>none</alphatype>
															<pixelaspectratio>square</pixelaspectratio>
															<anamorphic>FALSE</anamorphic>
															<file id="file-80">
																<name>588788_Cookies Kneading Baking Hands_By_Erik_Nuenighoff_Artlist_HD.mp4</name>
																<pathurl>file://localhost/Volumes/ATM%201/EYE%20CANDY/8%3a14%3a23/3_Raw%20Files/Artlist%20-%20%20Thumbprint%20Cookies/588788_Cookies%20Kneading%20Baking%20Hands_By_Erik_Nuenighoff_Artlist_HD.mp4</pathurl>
																<rate>
																	<timebase>24</timebase>
																	<ntsc>TRUE</ntsc>
																</rate>
																<duration>941</duration>
																<timecode>
																	<rate>
																		<timebase>24</timebase>
																		<ntsc>TRUE</ntsc>
																	</rate>
																	<string>13:36:06:02</string>
																	<frame>1175186</frame>
																	<displayformat>NDF</displayformat>
																</timecode>
																<media>
																	<video>
																		<samplecharacteristics>
																			<rate>
																				<timebase>24</timebase>
																				<ntsc>TRUE</ntsc>
																			</rate>
																			<width>1920</width>
																			<height>1080</height>
																			<anamorphic>FALSE</anamorphic>
																			<pixelaspectratio>square</pixelaspectratio>
																			<fielddominance>none</fielddominance>
																		</samplecharacteristics>
																	</video>
																</media>
															</file>
															<logginginfo>
																<description></description>
																<scene></scene>
																<shottake></shottake>
																<lognote></lognote>
																<good></good>
																<originalvideofilename></originalvideofilename>
																<originalaudiofilename></originalaudiofilename>
															</logginginfo>
															<colorinfo>
																<lut></lut>
																<lut1></lut1>
																<asc_sop></asc_sop>
																<asc_sat></asc_sat>
																<lut2></lut2>
															</colorinfo>
															<labels>
																<label2>Violet</label2>
															</labels>
														</clipitem>
														<clipitem id="clipitem-227">
															<masterclipid>masterclip-95</masterclipid>
															<name>588779_Jam Hands Opening Jar_By_Erik_Nuenighoff_Artlist_HD.mp4</name>
															<enabled>TRUE</enabled>
															<duration>263</duration>
															<rate>
																<timebase>30</timebase>
																<ntsc>TRUE</ntsc>
															</rate>
															<start>1039</start>
															<end>1203</end>
															<in>22</in>
															<out>186</out>
															<pproTicksIn>186464678400</pproTicksIn>
															<pproTicksOut>1576474099200</pproTicksOut>
															<alphatype>none</alphatype>
															<pixelaspectratio>square</pixelaspectratio>
															<anamorphic>FALSE</anamorphic>
															<file id="file-81">
																<name>588779_Jam Hands Opening Jar_By_Erik_Nuenighoff_Artlist_HD.mp4</name>
																<pathurl>file://localhost/Volumes/ATM%201/EYE%20CANDY/8%3a14%3a23/3_Raw%20Files/Artlist%20-%20%20Thumbprint%20Cookies/588779_Jam%20Hands%20Opening%20Jar_By_Erik_Nuenighoff_Artlist_HD.mp4</pathurl>
																<rate>
																	<timebase>24</timebase>
																	<ntsc>TRUE</ntsc>
																</rate>
																<duration>211</duration>
																<timecode>
																	<rate>
																		<timebase>24</timebase>
																		<ntsc>TRUE</ntsc>
																	</rate>
																	<string>13:36:55:05</string>
																	<frame>1176365</frame>
																	<displayformat>NDF</displayformat>
																</timecode>
																<media>
																	<video>
																		<samplecharacteristics>
																			<rate>
																				<timebase>24</timebase>
																				<ntsc>TRUE</ntsc>
																			</rate>
																			<width>1920</width>
																			<height>1080</height>
																			<anamorphic>FALSE</anamorphic>
																			<pixelaspectratio>square</pixelaspectratio>
																			<fielddominance>none</fielddominance>
																		</samplecharacteristics>
																	</video>
																</media>
															</file>
															<logginginfo>
																<description></description>
																<scene></scene>
																<shottake></shottake>
																<lognote></lognote>
																<good></good>
																<originalvideofilename></originalvideofilename>
																<originalaudiofilename></originalaudiofilename>
															</logginginfo>
															<colorinfo>
																<lut></lut>
																<lut1></lut1>
																<asc_sop></asc_sop>
																<asc_sat></asc_sat>
																<lut2></lut2>
															</colorinfo>
															<labels>
																<label2>Violet</label2>
															</labels>
														</clipitem>
														<clipitem id="clipitem-228">
															<masterclipid>masterclip-96</masterclipid>
															<name>588775_Cookies Jam Baking Hands_By_Erik_Nuenighoff_Artlist_HD.mp4</name>
															<enabled>TRUE</enabled>
															<duration>205</duration>
															<rate>
																<timebase>30</timebase>
																<ntsc>TRUE</ntsc>
															</rate>
															<start>1203</start>
															<end>1386</end>
															<in>0</in>
															<out>183</out>
															<pproTicksIn>0</pproTicksIn>
															<pproTicksOut>1551047097600</pproTicksOut>
															<alphatype>none</alphatype>
															<pixelaspectratio>square</pixelaspectratio>
															<anamorphic>FALSE</anamorphic>
															<file id="file-82">
																<name>588775_Cookies Jam Baking Hands_By_Erik_Nuenighoff_Artlist_HD.mp4</name>
																<pathurl>file://localhost/Volumes/ATM%201/EYE%20CANDY/8%3a14%3a23/3_Raw%20Files/Artlist%20-%20%20Thumbprint%20Cookies/588775_Cookies%20Jam%20Baking%20Hands_By_Erik_Nuenighoff_Artlist_HD.mp4</pathurl>
																<rate>
																	<timebase>24</timebase>
																	<ntsc>TRUE</ntsc>
																</rate>
																<duration>164</duration>
																<timecode>
																	<rate>
																		<timebase>24</timebase>
																		<ntsc>TRUE</ntsc>
																	</rate>
																	<string>13:37:30:03</string>
																	<frame>1177203</frame>
																	<displayformat>NDF</displayformat>
																</timecode>
																<media>
																	<video>
																		<samplecharacteristics>
																			<rate>
																				<timebase>24</timebase>
																				<ntsc>TRUE</ntsc>
																			</rate>
																			<width>1920</width>
																			<height>1080</height>
																			<anamorphic>FALSE</anamorphic>
																			<pixelaspectratio>square</pixelaspectratio>
																			<fielddominance>none</fielddominance>
																		</samplecharacteristics>
																	</video>
																</media>
															</file>
															<logginginfo>
																<description></description>
																<scene></scene>
																<shottake></shottake>
																<lognote></lognote>
																<good></good>
																<originalvideofilename></originalvideofilename>
																<originalaudiofilename></originalaudiofilename>
															</logginginfo>
															<colorinfo>
																<lut></lut>
																<lut1></lut1>
																<asc_sop></asc_sop>
																<asc_sat></asc_sat>
																<lut2></lut2>
															</colorinfo>
															<labels>
																<label2>Violet</label2>
															</labels>
														</clipitem>
														<clipitem id="clipitem-229">
															<masterclipid>masterclip-97</masterclipid>
															<name>588774_Cookies Jam Baking Hands_By_Erik_Nuenighoff_Artlist_HD.mp4</name>
															<enabled>TRUE</enabled>
															<duration>360</duration>
															<rate>
																<timebase>30</timebase>
																<ntsc>TRUE</ntsc>
															</rate>
															<start>1386</start>
															<end>1592</end>
															<in>0</in>
															<out>206</out>
															<pproTicksIn>0</pproTicksIn>
															<pproTicksOut>1745987443200</pproTicksOut>
															<alphatype>none</alphatype>
															<pixelaspectratio>square</pixelaspectratio>
															<anamorphic>FALSE</anamorphic>
															<file id="file-83">
																<name>588774_Cookies Jam Baking Hands_By_Erik_Nuenighoff_Artlist_HD.mp4</name>
																<pathurl>file://localhost/Volumes/ATM%201/EYE%20CANDY/8%3a14%3a23/3_Raw%20Files/Artlist%20-%20%20Thumbprint%20Cookies/588774_Cookies%20Jam%20Baking%20Hands_By_Erik_Nuenighoff_Artlist_HD.mp4</pathurl>
																<rate>
																	<timebase>24</timebase>
																	<ntsc>TRUE</ntsc>
																</rate>
																<duration>288</duration>
																<timecode>
																	<rate>
																		<timebase>24</timebase>
																		<ntsc>TRUE</ntsc>
																	</rate>
																	<string>13:37:41:16</string>
																	<frame>1177480</frame>
																	<displayformat>NDF</displayformat>
																</timecode>
																<media>
																	<video>
																		<samplecharacteristics>
																			<rate>
																				<timebase>24</timebase>
																				<ntsc>TRUE</ntsc>
																			</rate>
																			<width>1920</width>
																			<height>1080</height>
																			<anamorphic>FALSE</anamorphic>
																			<pixelaspectratio>square</pixelaspectratio>
																			<fielddominance>none</fielddominance>
																		</samplecharacteristics>
																	</video>
																</media>
															</file>
															<logginginfo>
																<description></description>
																<scene></scene>
																<shottake></shottake>
																<lognote></lognote>
																<good></good>
																<originalvideofilename></originalvideofilename>
																<originalaudiofilename></originalaudiofilename>
															</logginginfo>
															<colorinfo>
																<lut></lut>
																<lut1></lut1>
																<asc_sop></asc_sop>
																<asc_sat></asc_sat>
																<lut2></lut2>
															</colorinfo>
															<labels>
																<label2>Violet</label2>
															</labels>
														</clipitem>
														<clipitem id="clipitem-230">
															<masterclipid>masterclip-98</masterclipid>
															<name>588776_Cookies Jam Baking Hands_By_Erik_Nuenighoff_Artlist_HD.mp4</name>
															<enabled>TRUE</enabled>
															<duration>605</duration>
															<rate>
																<timebase>30</timebase>
																<ntsc>TRUE</ntsc>
															</rate>
															<start>1592</start>
															<end>1747</end>
															<in>147</in>
															<out>302</out>
															<pproTicksIn>1245923078400</pproTicksIn>
															<pproTicksOut>2559651494400</pproTicksOut>
															<alphatype>none</alphatype>
															<pixelaspectratio>square</pixelaspectratio>
															<anamorphic>FALSE</anamorphic>
															<file id="file-84">
																<name>588776_Cookies Jam Baking Hands_By_Erik_Nuenighoff_Artlist_HD.mp4</name>
																<pathurl>file://localhost/Volumes/ATM%201/EYE%20CANDY/8%3a14%3a23/3_Raw%20Files/Artlist%20-%20%20Thumbprint%20Cookies/588776_Cookies%20Jam%20Baking%20Hands_By_Erik_Nuenighoff_Artlist_HD.mp4</pathurl>
																<rate>
																	<timebase>24</timebase>
																	<ntsc>TRUE</ntsc>
																</rate>
																<duration>484</duration>
																<timecode>
																	<rate>
																		<timebase>24</timebase>
																		<ntsc>TRUE</ntsc>
																	</rate>
																	<string>13:38:30:14</string>
																	<frame>1178654</frame>
																	<displayformat>NDF</displayformat>
																</timecode>
																<media>
																	<video>
																		<samplecharacteristics>
																			<rate>
																				<timebase>24</timebase>
																				<ntsc>TRUE</ntsc>
																			</rate>
																			<width>1920</width>
																			<height>1080</height>
																			<anamorphic>FALSE</anamorphic>
																			<pixelaspectratio>square</pixelaspectratio>
																			<fielddominance>none</fielddominance>
																		</samplecharacteristics>
																	</video>
																</media>
															</file>
															<logginginfo>
																<description></description>
																<scene></scene>
																<shottake></shottake>
																<lognote></lognote>
																<good></good>
																<originalvideofilename></originalvideofilename>
																<originalaudiofilename></originalaudiofilename>
															</logginginfo>
															<colorinfo>
																<lut></lut>
																<lut1></lut1>
																<asc_sop></asc_sop>
																<asc_sat></asc_sat>
																<lut2></lut2>
															</colorinfo>
															<labels>
																<label2>Violet</label2>
															</labels>
														</clipitem>
														<clipitem id="clipitem-231">
															<masterclipid>masterclip-99</masterclipid>
															<name>588777_Cookies Jam Baking Hands_By_Erik_Nuenighoff_Artlist_HD.mp4</name>
															<enabled>TRUE</enabled>
															<duration>447</duration>
															<rate>
																<timebase>30</timebase>
																<ntsc>TRUE</ntsc>
															</rate>
															<start>1747</start>
															<end>1903</end>
															<in>220</in>
															<out>376</out>
															<pproTicksIn>1864646784000</pproTicksIn>
															<pproTicksOut>3186850867200</pproTicksOut>
															<alphatype>none</alphatype>
															<pixelaspectratio>square</pixelaspectratio>
															<anamorphic>FALSE</anamorphic>
															<file id="file-85">
																<name>588777_Cookies Jam Baking Hands_By_Erik_Nuenighoff_Artlist_HD.mp4</name>
																<pathurl>file://localhost/Volumes/ATM%201/EYE%20CANDY/8%3a14%3a23/3_Raw%20Files/Artlist%20-%20%20Thumbprint%20Cookies/588777_Cookies%20Jam%20Baking%20Hands_By_Erik_Nuenighoff_Artlist_HD.mp4</pathurl>
																<rate>
																	<timebase>24</timebase>
																	<ntsc>TRUE</ntsc>
																</rate>
																<duration>358</duration>
																<timecode>
																	<rate>
																		<timebase>24</timebase>
																		<ntsc>TRUE</ntsc>
																	</rate>
																	<string>13:39:17:13</string>
																	<frame>1179781</frame>
																	<displayformat>NDF</displayformat>
																</timecode>
																<media>
																	<video>
																		<samplecharacteristics>
																			<rate>
																				<timebase>24</timebase>
																				<ntsc>TRUE</ntsc>
																			</rate>
																			<width>1920</width>
																			<height>1080</height>
																			<anamorphic>FALSE</anamorphic>
																			<pixelaspectratio>square</pixelaspectratio>
																			<fielddominance>none</fielddominance>
																		</samplecharacteristics>
																	</video>
																</media>
															</file>
															<logginginfo>
																<description></description>
																<scene></scene>
																<shottake></shottake>
																<lognote></lognote>
																<good></good>
																<originalvideofilename></originalvideofilename>
																<originalaudiofilename></originalaudiofilename>
															</logginginfo>
															<colorinfo>
																<lut></lut>
																<lut1></lut1>
																<asc_sop></asc_sop>
																<asc_sat></asc_sat>
																<lut2></lut2>
															</colorinfo>
															<labels>
																<label2>Violet</label2>
															</labels>
														</clipitem>
														<clipitem id="clipitem-232">
															<masterclipid>masterclip-100</masterclipid>
															<name>588792_Cookies Baking Jam Dough_By_Erik_Nuenighoff_Artlist_HD.mp4</name>
															<enabled>TRUE</enabled>
															<duration>387</duration>
															<rate>
																<timebase>30</timebase>
																<ntsc>TRUE</ntsc>
															</rate>
															<start>1903</start>
															<end>2064</end>
															<in>0</in>
															<out>161</out>
															<pproTicksIn>0</pproTicksIn>
															<pproTicksOut>1364582419200</pproTicksOut>
															<alphatype>none</alphatype>
															<pixelaspectratio>square</pixelaspectratio>
															<anamorphic>FALSE</anamorphic>
															<file id="file-86">
																<name>588792_Cookies Baking Jam Dough_By_Erik_Nuenighoff_Artlist_HD.mp4</name>
																<pathurl>file://localhost/Volumes/ATM%201/EYE%20CANDY/8%3a14%3a23/3_Raw%20Files/Artlist%20-%20%20Thumbprint%20Cookies/588792_Cookies%20Baking%20Jam%20Dough_By_Erik_Nuenighoff_Artlist_HD.mp4</pathurl>
																<rate>
																	<timebase>24</timebase>
																	<ntsc>TRUE</ntsc>
																</rate>
																<duration>310</duration>
																<timecode>
																	<rate>
																		<timebase>24</timebase>
																		<ntsc>TRUE</ntsc>
																	</rate>
																	<string>13:40:18:17</string>
																	<frame>1181249</frame>
																	<displayformat>NDF</displayformat>
																</timecode>
																<media>
																	<video>
																		<samplecharacteristics>
																			<rate>
																				<timebase>24</timebase>
																				<ntsc>TRUE</ntsc>
																			</rate>
																			<width>1920</width>
																			<height>1080</height>
																			<anamorphic>FALSE</anamorphic>
																			<pixelaspectratio>square</pixelaspectratio>
																			<fielddominance>none</fielddominance>
																		</samplecharacteristics>
																	</video>
																</media>
															</file>
															<logginginfo>
																<description></description>
																<scene></scene>
																<shottake></shottake>
																<lognote></lognote>
																<good></good>
																<originalvideofilename></originalvideofilename>
																<originalaudiofilename></originalaudiofilename>
															</logginginfo>
															<colorinfo>
																<lut></lut>
																<lut1></lut1>
																<asc_sop></asc_sop>
																<asc_sat></asc_sat>
																<lut2></lut2>
															</colorinfo>
															<labels>
																<label2>Violet</label2>
															</labels>
														</clipitem>
														<clipitem id="clipitem-233">
															<masterclipid>masterclip-101</masterclipid>
															<name>588784_Cookies Oven Baking Hands_By_Erik_Nuenighoff_Artlist_HD.mp4</name>
															<enabled>TRUE</enabled>
															<duration>482</duration>
															<rate>
																<timebase>30</timebase>
																<ntsc>TRUE</ntsc>
															</rate>
															<start>2064</start>
															<end>2341</end>
															<in>0</in>
															<out>277</out>
															<pproTicksIn>0</pproTicksIn>
															<pproTicksOut>2347759814400</pproTicksOut>
															<alphatype>none</alphatype>
															<pixelaspectratio>square</pixelaspectratio>
															<anamorphic>FALSE</anamorphic>
															<file id="file-87">
																<name>588784_Cookies Oven Baking Hands_By_Erik_Nuenighoff_Artlist_HD.mp4</name>
																<pathurl>file://localhost/Volumes/ATM%201/EYE%20CANDY/8%3a14%3a23/3_Raw%20Files/Artlist%20-%20%20Thumbprint%20Cookies/588784_Cookies%20Oven%20Baking%20Hands_By_Erik_Nuenighoff_Artlist_HD.mp4</pathurl>
																<rate>
																	<timebase>24</timebase>
																	<ntsc>TRUE</ntsc>
																</rate>
																<duration>386</duration>
																<timecode>
																	<rate>
																		<timebase>24</timebase>
																		<ntsc>TRUE</ntsc>
																	</rate>
																	<string>13:40:42:20</string>
																	<frame>1181828</frame>
																	<displayformat>NDF</displayformat>
																</timecode>
																<media>
																	<video>
																		<samplecharacteristics>
																			<rate>
																				<timebase>24</timebase>
																				<ntsc>TRUE</ntsc>
																			</rate>
																			<width>1920</width>
																			<height>1080</height>
																			<anamorphic>FALSE</anamorphic>
																			<pixelaspectratio>square</pixelaspectratio>
																			<fielddominance>none</fielddominance>
																		</samplecharacteristics>
																	</video>
																</media>
															</file>
															<logginginfo>
																<description></description>
																<scene></scene>
																<shottake></shottake>
																<lognote></lognote>
																<good></good>
																<originalvideofilename></originalvideofilename>
																<originalaudiofilename></originalaudiofilename>
															</logginginfo>
															<colorinfo>
																<lut></lut>
																<lut1></lut1>
																<asc_sop></asc_sop>
																<asc_sat></asc_sat>
																<lut2></lut2>
															</colorinfo>
															<labels>
																<label2>Violet</label2>
															</labels>
														</clipitem>
														<enabled>TRUE</enabled>
														<locked>FALSE</locked>
													</track>
													<track TL.SQTrackShy="0" TL.SQTrackExpandedHeight="25" TL.SQTrackExpanded="0" MZ.TrackTargeted="0">
														<enabled>TRUE</enabled>
														<locked>FALSE</locked>
													</track>
													<track TL.SQTrackShy="0" TL.SQTrackExpandedHeight="25" TL.SQTrackExpanded="0" MZ.TrackTargeted="0">
														<enabled>TRUE</enabled>
														<locked>FALSE</locked>
													</track>
													<track TL.SQTrackShy="0" TL.SQTrackExpandedHeight="25" TL.SQTrackExpanded="0" MZ.TrackTargeted="0">
														<enabled>TRUE</enabled>
														<locked>FALSE</locked>
													</track>
													<track TL.SQTrackShy="0" TL.SQTrackExpandedHeight="25" TL.SQTrackExpanded="0" MZ.TrackTargeted="0">
														<enabled>TRUE</enabled>
														<locked>FALSE</locked>
													</track>
													<track TL.SQTrackShy="0" TL.SQTrackExpandedHeight="25" TL.SQTrackExpanded="0" MZ.TrackTargeted="0">
														<enabled>TRUE</enabled>
														<locked>FALSE</locked>
													</track>
													<track TL.SQTrackShy="0" TL.SQTrackExpandedHeight="25" TL.SQTrackExpanded="0" MZ.TrackTargeted="0">
														<enabled>TRUE</enabled>
														<locked>FALSE</locked>
													</track>
													<track TL.SQTrackShy="0" TL.SQTrackExpandedHeight="25" TL.SQTrackExpanded="0" MZ.TrackTargeted="0">
														<enabled>TRUE</enabled>
														<locked>FALSE</locked>
													</track>
													<track TL.SQTrackShy="0" TL.SQTrackExpandedHeight="25" TL.SQTrackExpanded="0" MZ.TrackTargeted="0">
														<enabled>TRUE</enabled>
														<locked>FALSE</locked>
													</track>
													<track TL.SQTrackShy="0" TL.SQTrackExpandedHeight="25" TL.SQTrackExpanded="0" MZ.TrackTargeted="0">
														<enabled>TRUE</enabled>
														<locked>FALSE</locked>
													</track>
												</video>
												<audio>
													<numOutputChannels>2</numOutputChannels>
													<format>
														<samplecharacteristics>
															<depth>16</depth>
															<samplerate>48000</samplerate>
														</samplecharacteristics>
													</format>
													<outputs>
														<group>
															<index>1</index>
															<numchannels>1</numchannels>
															<downmix>0</downmix>
															<channel>
																<index>1</index>
															</channel>
														</group>
														<group>
															<index>2</index>
															<numchannels>1</numchannels>
															<downmix>0</downmix>
															<channel>
																<index>2</index>
															</channel>
														</group>
													</outputs>
													<track TL.SQTrackAudioKeyframeStyle="0" TL.SQTrackShy="0" TL.SQTrackExpandedHeight="25" TL.SQTrackExpanded="0" MZ.TrackTargeted="1" PannerCurrentValue="0.5" PannerIsInverted="true" PannerStartKeyframe="-91445760000000000,0.5,0,0,0,0,0,0" PannerName="Balance" currentExplodedTrackIndex="0" totalExplodedTrackCount="2" premiereTrackType="Stereo">
														<clipitem id="clipitem-234" premiereChannelType="stereo">
															<masterclipid>masterclip-102</masterclipid>
															<name>ES_Aquatic Flower Dance - Ryan James Carr.mp3</name>
															<enabled>TRUE</enabled>
															<duration>4542</duration>
															<rate>
																<timebase>30</timebase>
																<ntsc>TRUE</ntsc>
															</rate>
															<start>0</start>
															<end>2341</end>
															<in>0</in>
															<out>2341</out>
															<pproTicksIn>0</pproTicksIn>
															<pproTicksOut>19841536915200</pproTicksOut>
															<file id="file-88">
																<name>ES_Aquatic Flower Dance - Ryan James Carr.mp3</name>
																<pathurl>file://localhost/Volumes/ATM%201/EYE%20CANDY/8%3a14%3a23/5_Assets/Music/ES_Aquatic%20Flower%20Dance%20-%20Ryan%20James%20Carr.mp3</pathurl>
																<rate>
																	<timebase>30</timebase>
																	<ntsc>TRUE</ntsc>
																</rate>
																<duration>4542</duration>
																<timecode>
																	<rate>
																		<timebase>30</timebase>
																		<ntsc>TRUE</ntsc>
																	</rate>
																	<string>00;00;00;00</string>
																	<frame>0</frame>
																	<displayformat>DF</displayformat>
																</timecode>
																<media>
																	<audio>
																		<samplecharacteristics>
																			<depth>16</depth>
																			<samplerate>48000</samplerate>
																		</samplecharacteristics>
																		<channelcount>2</channelcount>
																	</audio>
																</media>
															</file>
															<sourcetrack>
																<mediatype>audio</mediatype>
																<trackindex>1</trackindex>
															</sourcetrack>
															<link>
																<linkclipref>clipitem-234</linkclipref>
																<mediatype>audio</mediatype>
																<trackindex>1</trackindex>
																<clipindex>1</clipindex>
																<groupindex>1</groupindex>
															</link>
															<link>
																<linkclipref>clipitem-235</linkclipref>
																<mediatype>audio</mediatype>
																<trackindex>2</trackindex>
																<clipindex>1</clipindex>
																<groupindex>1</groupindex>
															</link>
															<logginginfo>
																<description></description>
																<scene></scene>
																<shottake></shottake>
																<lognote></lognote>
																<good></good>
																<originalvideofilename></originalvideofilename>
																<originalaudiofilename></originalaudiofilename>
															</logginginfo>
															<colorinfo>
																<lut></lut>
																<lut1></lut1>
																<asc_sop></asc_sop>
																<asc_sat></asc_sat>
																<lut2></lut2>
															</colorinfo>
															<labels>
																<label2>Caribbean</label2>
															</labels>
														</clipitem>
														<enabled>TRUE</enabled>
														<locked>FALSE</locked>
														<filter>
															<effect>
																<name>Audio Levels</name>
																<effectid>audiolevels</effectid>
																<effectcategory>audiolevels</effectcategory>
																<effecttype>audiolevels</effecttype>
																<mediatype>audio</mediatype>
																<parameter authoringApp="PremierePro">
																	<parameterid>level</parameterid>
																	<name>Level</name>
																	<valuemin>0</valuemin>
																	<valuemax>3.98109</valuemax>
																	<value>0.706272</value>
																</parameter>
															</effect>
														</filter>
														<outputchannelindex>1</outputchannelindex>
													</track>
													<track TL.SQTrackAudioKeyframeStyle="0" TL.SQTrackShy="0" TL.SQTrackExpandedHeight="25" TL.SQTrackExpanded="0" MZ.TrackTargeted="1" PannerCurrentValue="0.5" PannerIsInverted="true" PannerStartKeyframe="-91445760000000000,0.5,0,0,0,0,0,0" PannerName="Balance" currentExplodedTrackIndex="1" totalExplodedTrackCount="2" premiereTrackType="Stereo">
														<clipitem id="clipitem-235" premiereChannelType="stereo">
															<masterclipid>masterclip-102</masterclipid>
															<name>ES_Aquatic Flower Dance - Ryan James Carr.mp3</name>
															<enabled>TRUE</enabled>
															<duration>4542</duration>
															<rate>
																<timebase>30</timebase>
																<ntsc>TRUE</ntsc>
															</rate>
															<start>0</start>
															<end>2341</end>
															<in>0</in>
															<out>2341</out>
															<pproTicksIn>0</pproTicksIn>
															<pproTicksOut>19841536915200</pproTicksOut>
															<file id="file-88"/>
															<sourcetrack>
																<mediatype>audio</mediatype>
																<trackindex>2</trackindex>
															</sourcetrack>
															<link>
																<linkclipref>clipitem-234</linkclipref>
																<mediatype>audio</mediatype>
																<trackindex>1</trackindex>
																<clipindex>1</clipindex>
																<groupindex>1</groupindex>
															</link>
															<link>
																<linkclipref>clipitem-235</linkclipref>
																<mediatype>audio</mediatype>
																<trackindex>2</trackindex>
																<clipindex>1</clipindex>
																<groupindex>1</groupindex>
															</link>
															<logginginfo>
																<description></description>
																<scene></scene>
																<shottake></shottake>
																<lognote></lognote>
																<good></good>
																<originalvideofilename></originalvideofilename>
																<originalaudiofilename></originalaudiofilename>
															</logginginfo>
															<colorinfo>
																<lut></lut>
																<lut1></lut1>
																<asc_sop></asc_sop>
																<asc_sat></asc_sat>
																<lut2></lut2>
															</colorinfo>
															<labels>
																<label2>Caribbean</label2>
															</labels>
														</clipitem>
														<enabled>TRUE</enabled>
														<locked>FALSE</locked>
														<filter>
															<effect>
																<name>Audio Levels</name>
																<effectid>audiolevels</effectid>
																<effectcategory>audiolevels</effectcategory>
																<effecttype>audiolevels</effecttype>
																<mediatype>audio</mediatype>
																<parameter authoringApp="PremierePro">
																	<parameterid>level</parameterid>
																	<name>Level</name>
																	<valuemin>0</valuemin>
																	<valuemax>3.98109</valuemax>
																	<value>0.706272</value>
																</parameter>
															</effect>
														</filter>
														<outputchannelindex>2</outputchannelindex>
													</track>
													<track TL.SQTrackAudioKeyframeStyle="0" TL.SQTrackShy="0" TL.SQTrackExpandedHeight="25" TL.SQTrackExpanded="0" MZ.TrackTargeted="0" PannerCurrentValue="0.5" PannerIsInverted="true" PannerStartKeyframe="-91445760000000000,0.5,0,0,0,0,0,0" PannerName="Balance" currentExplodedTrackIndex="0" totalExplodedTrackCount="2" premiereTrackType="Stereo">
														<enabled>TRUE</enabled>
														<locked>FALSE</locked>
														<outputchannelindex>1</outputchannelindex>
													</track>
													<track TL.SQTrackAudioKeyframeStyle="0" TL.SQTrackShy="0" TL.SQTrackExpandedHeight="25" TL.SQTrackExpanded="0" MZ.TrackTargeted="0" PannerCurrentValue="0.5" PannerIsInverted="true" PannerStartKeyframe="-91445760000000000,0.5,0,0,0,0,0,0" PannerName="Balance" currentExplodedTrackIndex="1" totalExplodedTrackCount="2" premiereTrackType="Stereo">
														<enabled>TRUE</enabled>
														<locked>FALSE</locked>
														<outputchannelindex>2</outputchannelindex>
													</track>
													<track TL.SQTrackAudioKeyframeStyle="0" TL.SQTrackShy="0" TL.SQTrackExpandedHeight="25" TL.SQTrackExpanded="0" MZ.TrackTargeted="0" PannerCurrentValue="0.5" PannerIsInverted="true" PannerStartKeyframe="-91445760000000000,0.5,0,0,0,0,0,0" PannerName="Balance" currentExplodedTrackIndex="0" totalExplodedTrackCount="2" premiereTrackType="Stereo">
														<enabled>TRUE</enabled>
														<locked>FALSE</locked>
														<outputchannelindex>1</outputchannelindex>
													</track>
													<track TL.SQTrackAudioKeyframeStyle="0" TL.SQTrackShy="0" TL.SQTrackExpandedHeight="25" TL.SQTrackExpanded="0" MZ.TrackTargeted="0" PannerCurrentValue="0.5" PannerIsInverted="true" PannerStartKeyframe="-91445760000000000,0.5,0,0,0,0,0,0" PannerName="Balance" currentExplodedTrackIndex="1" totalExplodedTrackCount="2" premiereTrackType="Stereo">
														<enabled>TRUE</enabled>
														<locked>FALSE</locked>
														<outputchannelindex>2</outputchannelindex>
													</track>
													<track TL.SQTrackAudioKeyframeStyle="0" TL.SQTrackShy="0" TL.SQTrackExpandedHeight="25" TL.SQTrackExpanded="0" MZ.TrackTargeted="0" PannerCurrentValue="0.5" PannerIsInverted="true" PannerStartKeyframe="-91445760000000000,0.5,0,0,0,0,0,0" PannerName="Balance" currentExplodedTrackIndex="0" totalExplodedTrackCount="2" premiereTrackType="Stereo">
														<enabled>TRUE</enabled>
														<locked>FALSE</locked>
														<outputchannelindex>1</outputchannelindex>
													</track>
													<track TL.SQTrackAudioKeyframeStyle="0" TL.SQTrackShy="0" TL.SQTrackExpandedHeight="25" TL.SQTrackExpanded="0" MZ.TrackTargeted="0" PannerCurrentValue="0.5" PannerIsInverted="true" PannerStartKeyframe="-91445760000000000,0.5,0,0,0,0,0,0" PannerName="Balance" currentExplodedTrackIndex="1" totalExplodedTrackCount="2" premiereTrackType="Stereo">
														<enabled>TRUE</enabled>
														<locked>FALSE</locked>
														<outputchannelindex>2</outputchannelindex>
													</track>
													<track TL.SQTrackAudioKeyframeStyle="0" TL.SQTrackShy="0" TL.SQTrackExpandedHeight="25" TL.SQTrackExpanded="0" MZ.TrackTargeted="0" PannerCurrentValue="0.5" PannerIsInverted="true" PannerStartKeyframe="-91445760000000000,0.5,0,0,0,0,0,0" PannerName="Balance" currentExplodedTrackIndex="0" totalExplodedTrackCount="2" premiereTrackType="Stereo">
														<enabled>TRUE</enabled>
														<locked>FALSE</locked>
														<outputchannelindex>1</outputchannelindex>
													</track>
													<track TL.SQTrackAudioKeyframeStyle="0" TL.SQTrackShy="0" TL.SQTrackExpandedHeight="25" TL.SQTrackExpanded="0" MZ.TrackTargeted="0" PannerCurrentValue="0.5" PannerIsInverted="true" PannerStartKeyframe="-91445760000000000,0.5,0,0,0,0,0,0" PannerName="Balance" currentExplodedTrackIndex="1" totalExplodedTrackCount="2" premiereTrackType="Stereo">
														<enabled>TRUE</enabled>
														<locked>FALSE</locked>
														<outputchannelindex>2</outputchannelindex>
													</track>
													<track TL.SQTrackAudioKeyframeStyle="0" TL.SQTrackShy="0" TL.SQTrackExpandedHeight="25" TL.SQTrackExpanded="0" MZ.TrackTargeted="0" PannerCurrentValue="0.5" PannerIsInverted="true" PannerStartKeyframe="-91445760000000000,0.5,0,0,0,0,0,0" PannerName="Balance" currentExplodedTrackIndex="0" totalExplodedTrackCount="2" premiereTrackType="Stereo">
														<enabled>TRUE</enabled>
														<locked>FALSE</locked>
														<outputchannelindex>1</outputchannelindex>
													</track>
													<track TL.SQTrackAudioKeyframeStyle="0" TL.SQTrackShy="0" TL.SQTrackExpandedHeight="25" TL.SQTrackExpanded="0" MZ.TrackTargeted="0" PannerCurrentValue="0.5" PannerIsInverted="true" PannerStartKeyframe="-91445760000000000,0.5,0,0,0,0,0,0" PannerName="Balance" currentExplodedTrackIndex="1" totalExplodedTrackCount="2" premiereTrackType="Stereo">
														<enabled>TRUE</enabled>
														<locked>FALSE</locked>
														<outputchannelindex>2</outputchannelindex>
													</track>
													<track TL.SQTrackAudioKeyframeStyle="0" TL.SQTrackShy="0" TL.SQTrackExpandedHeight="25" TL.SQTrackExpanded="0" MZ.TrackTargeted="0" PannerCurrentValue="0.5" PannerIsInverted="true" PannerStartKeyframe="-91445760000000000,0.5,0,0,0,0,0,0" PannerName="Balance" currentExplodedTrackIndex="0" totalExplodedTrackCount="2" premiereTrackType="Stereo">
														<enabled>TRUE</enabled>
														<locked>FALSE</locked>
														<outputchannelindex>1</outputchannelindex>
													</track>
													<track TL.SQTrackAudioKeyframeStyle="0" TL.SQTrackShy="0" TL.SQTrackExpandedHeight="25" TL.SQTrackExpanded="0" MZ.TrackTargeted="0" PannerCurrentValue="0.5" PannerIsInverted="true" PannerStartKeyframe="-91445760000000000,0.5,0,0,0,0,0,0" PannerName="Balance" currentExplodedTrackIndex="1" totalExplodedTrackCount="2" premiereTrackType="Stereo">
														<enabled>TRUE</enabled>
														<locked>FALSE</locked>
														<outputchannelindex>2</outputchannelindex>
													</track>
													<track TL.SQTrackAudioKeyframeStyle="0" TL.SQTrackShy="0" TL.SQTrackExpandedHeight="25" TL.SQTrackExpanded="0" MZ.TrackTargeted="0" PannerCurrentValue="0.5" PannerIsInverted="true" PannerStartKeyframe="-91445760000000000,0.5,0,0,0,0,0,0" PannerName="Balance" currentExplodedTrackIndex="0" totalExplodedTrackCount="2" premiereTrackType="Stereo">
														<enabled>TRUE</enabled>
														<locked>FALSE</locked>
														<outputchannelindex>1</outputchannelindex>
													</track>
													<track TL.SQTrackAudioKeyframeStyle="0" TL.SQTrackShy="0" TL.SQTrackExpandedHeight="25" TL.SQTrackExpanded="0" MZ.TrackTargeted="0" PannerCurrentValue="0.5" PannerIsInverted="true" PannerStartKeyframe="-91445760000000000,0.5,0,0,0,0,0,0" PannerName="Balance" currentExplodedTrackIndex="1" totalExplodedTrackCount="2" premiereTrackType="Stereo">
														<enabled>TRUE</enabled>
														<locked>FALSE</locked>
														<outputchannelindex>2</outputchannelindex>
													</track>
													<track TL.SQTrackAudioKeyframeStyle="0" TL.SQTrackShy="0" TL.SQTrackExpandedHeight="25" TL.SQTrackExpanded="0" MZ.TrackTargeted="0" PannerCurrentValue="0.5" PannerIsInverted="true" PannerStartKeyframe="-91445760000000000,0.5,0,0,0,0,0,0" PannerName="Balance" currentExplodedTrackIndex="0" totalExplodedTrackCount="2" premiereTrackType="Stereo">
														<enabled>TRUE</enabled>
														<locked>FALSE</locked>
														<outputchannelindex>1</outputchannelindex>
													</track>
													<track TL.SQTrackAudioKeyframeStyle="0" TL.SQTrackShy="0" TL.SQTrackExpandedHeight="25" TL.SQTrackExpanded="0" MZ.TrackTargeted="0" PannerCurrentValue="0.5" PannerIsInverted="true" PannerStartKeyframe="-91445760000000000,0.5,0,0,0,0,0,0" PannerName="Balance" currentExplodedTrackIndex="1" totalExplodedTrackCount="2" premiereTrackType="Stereo">
														<enabled>TRUE</enabled>
														<locked>FALSE</locked>
														<outputchannelindex>2</outputchannelindex>
													</track>
													<track TL.SQTrackAudioKeyframeStyle="0" TL.SQTrackShy="0" TL.SQTrackExpandedHeight="25" TL.SQTrackExpanded="0" MZ.TrackTargeted="0" PannerCurrentValue="0.5" PannerIsInverted="true" PannerStartKeyframe="-91445760000000000,0.5,0,0,0,0,0,0" PannerName="Balance" currentExplodedTrackIndex="0" totalExplodedTrackCount="2" premiereTrackType="Stereo">
														<enabled>TRUE</enabled>
														<locked>FALSE</locked>
														<outputchannelindex>1</outputchannelindex>
													</track>
													<track TL.SQTrackAudioKeyframeStyle="0" TL.SQTrackShy="0" TL.SQTrackExpandedHeight="25" TL.SQTrackExpanded="0" MZ.TrackTargeted="0" PannerCurrentValue="0.5" PannerIsInverted="true" PannerStartKeyframe="-91445760000000000,0.5,0,0,0,0,0,0" PannerName="Balance" currentExplodedTrackIndex="1" totalExplodedTrackCount="2" premiereTrackType="Stereo">
														<enabled>TRUE</enabled>
														<locked>FALSE</locked>
														<outputchannelindex>2</outputchannelindex>
													</track>
												</audio>
											</media>
											<timecode>
												<rate>
													<timebase>30</timebase>
													<ntsc>TRUE</ntsc>
												</rate>
												<string>00;00;00;00</string>
												<frame>0</frame>
												<displayformat>DF</displayformat>
											</timecode>
											<logginginfo>
												<description></description>
												<scene></scene>
												<shottake></shottake>
												<lognote></lognote>
												<good></good>
												<originalvideofilename></originalvideofilename>
												<originalaudiofilename></originalaudiofilename>
											</logginginfo>
										</sequence>
										<link>
											<linkclipref>clipitem-220</linkclipref>
											<mediatype>video</mediatype>
											<trackindex>1</trackindex>
											<clipindex>1</clipindex>
										</link>
										<link>
											<linkclipref>clipitem-255</linkclipref>
											<mediatype>audio</mediatype>
											<trackindex>1</trackindex>
											<clipindex>1</clipindex>
											<groupindex>1</groupindex>
										</link>
										<link>
											<linkclipref>clipitem-258</linkclipref>
											<mediatype>audio</mediatype>
											<trackindex>2</trackindex>
											<clipindex>1</clipindex>
											<groupindex>1</groupindex>
										</link>
										<labels>
											<label2>Forest</label2>
										</labels>
									</clipitem>
									<clipitem id="clipitem-236">
										<masterclipid>masterclip-103</masterclipid>
										<name>Confectionary Casseroles_1.5</name>
										<enabled>TRUE</enabled>
										<duration>5700</duration>
										<rate>
											<timebase>30</timebase>
											<ntsc>TRUE</ntsc>
										</rate>
										<start>2449</start>
										<end>5047</end>
										<in>0</in>
										<out>2598</out>
										<pproTicksIn>0</pproTicksIn>
										<pproTicksOut>22019783385600</pproTicksOut>
										<sequence id="sequence-20" TL.SQAudioVisibleBase="0" TL.SQVideoVisibleBase="0" TL.SQVisibleBaseTime="0" TL.SQAVDividerPosition="0.5" TL.SQHideShyTracks="0" TL.SQHeaderWidth="236" TL.SQDataTrackViewControlState="0" Monitor.ProgramZoomOut="22019783385600" Monitor.ProgramZoomIn="0" TL.SQTimePerPixel="0.1412021771350748" AM.TrackVScrollPosition="0" AM.TrackScrollPosition="0" MZ.EditLine="2813921510400" MZ.Sequence.PreviewFrameSizeHeight="1080" MZ.Sequence.PreviewFrameSizeWidth="1920" MZ.Sequence.AudioTimeDisplayFormat="200" MZ.Sequence.PreviewRenderingClassID="1061109567" MZ.Sequence.PreviewRenderingPresetCodec="1634755443" MZ.Sequence.PreviewRenderingPresetPath="EncoderPresets/SequencePreview/35d109db-457b-43c1-9452-9cb7be9f121c/QuickTime.epr" MZ.Sequence.PreviewUseMaxRenderQuality="false" MZ.Sequence.PreviewUseMaxBitDepth="false" MZ.Sequence.EditingModeGUID="35d109db-457b-43c1-9452-9cb7be9f121c" MZ.Sequence.VideoTimeDisplayFormat="102" MZ.WorkOutPoint="1262874412800" MZ.WorkInPoint="0">
											<duration>2598</duration>
											<rate>
												<timebase>30</timebase>
												<ntsc>TRUE</ntsc>
											</rate>
											<name>FND_Confectionary Casseroles_1.5</name>
											<media>
												<video>
													<format>
														<samplecharacteristics>
															<rate>
																<timebase>30</timebase>
																<ntsc>TRUE</ntsc>
															</rate>
															<codec>
																<name>Apple ProRes 422</name>
																<appspecificdata>
																	<appname>Final Cut Pro</appname>
																	<appmanufacturer>Apple Inc.</appmanufacturer>
																	<appversion>7.0</appversion>
																	<data>
																		<qtcodec>
																			<codecname>Apple ProRes 422</codecname>
																			<codectypename>Apple ProRes 422</codectypename>
																			<codectypecode>apcn</codectypecode>
																			<codecvendorcode>appl</codecvendorcode>
																			<spatialquality>1024</spatialquality>
																			<temporalquality>0</temporalquality>
																			<keyframerate>0</keyframerate>
																			<datarate>0</datarate>
																		</qtcodec>
																	</data>
																</appspecificdata>
															</codec>
															<width>1920</width>
															<height>1080</height>
															<anamorphic>FALSE</anamorphic>
															<pixelaspectratio>square</pixelaspectratio>
															<fielddominance>none</fielddominance>
															<colordepth>24</colordepth>
														</samplecharacteristics>
													</format>
													<track TL.SQTrackShy="0" TL.SQTrackExpandedHeight="25" TL.SQTrackExpanded="0" MZ.TrackTargeted="1">
														<clipitem id="clipitem-237">
															<masterclipid>masterclip-104</masterclipid>
															<name>(aquickspoonful)_CtCL7euRzZF_IG.mp4</name>
															<enabled>TRUE</enabled>
															<duration>420</duration>
															<rate>
																<timebase>30</timebase>
																<ntsc>TRUE</ntsc>
															</rate>
															<start>0</start>
															<end>420</end>
															<in>0</in>
															<out>420</out>
															<pproTicksIn>0</pproTicksIn>
															<pproTicksOut>3559780224000</pproTicksOut>
															<alphatype>none</alphatype>
															<pixelaspectratio>square</pixelaspectratio>
															<anamorphic>FALSE</anamorphic>
															<file id="file-89">
																<name>(aquickspoonful)_CtCL7euRzZF_IG.mp4</name>
																<pathurl>file://localhost/Volumes/ATM%201/EYE%20CANDY/8%3a14%3a23/3_Raw%20Files/Confectionary%20Casseroles/(aquickspoonful)_CtCL7euRzZF_IG.mp4</pathurl>
																<rate>
																	<timebase>30</timebase>
																	<ntsc>FALSE</ntsc>
																</rate>
																<duration>421</duration>
																<timecode>
																	<rate>
																		<timebase>30</timebase>
																		<ntsc>FALSE</ntsc>
																	</rate>
																	<string>00:00:00:00</string>
																	<frame>0</frame>
																	<displayformat>NDF</displayformat>
																</timecode>
																<media>
																	<video>
																		<samplecharacteristics>
																			<rate>
																				<timebase>30</timebase>
																				<ntsc>FALSE</ntsc>
																			</rate>
																			<width>576</width>
																			<height>1024</height>
																			<anamorphic>FALSE</anamorphic>
																			<pixelaspectratio>square</pixelaspectratio>
																			<fielddominance>none</fielddominance>
																		</samplecharacteristics>
																	</video>
																	<audio>
																		<samplecharacteristics>
																			<depth>16</depth>
																			<samplerate>44100</samplerate>
																		</samplecharacteristics>
																		<channelcount>1</channelcount>
																		<audiochannel>
																			<sourcechannel>1</sourcechannel>
																		</audiochannel>
																	</audio>
																</media>
															</file>
															<logginginfo>
																<description></description>
																<scene></scene>
																<shottake></shottake>
																<lognote></lognote>
																<good></good>
																<originalvideofilename></originalvideofilename>
																<originalaudiofilename></originalaudiofilename>
															</logginginfo>
															<colorinfo>
																<lut></lut>
																<lut1></lut1>
																<asc_sop></asc_sop>
																<asc_sat></asc_sat>
																<lut2></lut2>
															</colorinfo>
															<labels>
																<label2>Violet</label2>
															</labels>
														</clipitem>
														<clipitem id="clipitem-238">
															<masterclipid>masterclip-105</masterclipid>
															<name>(aquickspoonful)_CrhMm14svhT_IG.mp4</name>
															<enabled>TRUE</enabled>
															<duration>427</duration>
															<rate>
																<timebase>30</timebase>
																<ntsc>TRUE</ntsc>
															</rate>
															<start>420</start>
															<end>847</end>
															<in>0</in>
															<out>427</out>
															<pproTicksIn>0</pproTicksIn>
															<pproTicksOut>3619109894400</pproTicksOut>
															<alphatype>none</alphatype>
															<pixelaspectratio>square</pixelaspectratio>
															<anamorphic>FALSE</anamorphic>
															<file id="file-90">
																<name>(aquickspoonful)_CrhMm14svhT_IG.mp4</name>
																<pathurl>file://localhost/Volumes/ATM%201/EYE%20CANDY/8%3a14%3a23/3_Raw%20Files/Confectionary%20Casseroles/(aquickspoonful)_CrhMm14svhT_IG.mp4</pathurl>
																<rate>
																	<timebase>30</timebase>
																	<ntsc>FALSE</ntsc>
																</rate>
																<duration>428</duration>
																<timecode>
																	<rate>
																		<timebase>30</timebase>
																		<ntsc>FALSE</ntsc>
																	</rate>
																	<string>00:00:00:00</string>
																	<frame>0</frame>
																	<displayformat>NDF</displayformat>
																</timecode>
																<media>
																	<video>
																		<samplecharacteristics>
																			<rate>
																				<timebase>30</timebase>
																				<ntsc>FALSE</ntsc>
																			</rate>
																			<width>576</width>
																			<height>1024</height>
																			<anamorphic>FALSE</anamorphic>
																			<pixelaspectratio>square</pixelaspectratio>
																			<fielddominance>none</fielddominance>
																		</samplecharacteristics>
																	</video>
																	<audio>
																		<samplecharacteristics>
																			<depth>16</depth>
																			<samplerate>44100</samplerate>
																		</samplecharacteristics>
																		<channelcount>1</channelcount>
																		<audiochannel>
																			<sourcechannel>1</sourcechannel>
																		</audiochannel>
																	</audio>
																</media>
															</file>
															<logginginfo>
																<description></description>
																<scene></scene>
																<shottake></shottake>
																<lognote></lognote>
																<good></good>
																<originalvideofilename></originalvideofilename>
																<originalaudiofilename></originalaudiofilename>
															</logginginfo>
															<colorinfo>
																<lut></lut>
																<lut1></lut1>
																<asc_sop></asc_sop>
																<asc_sat></asc_sat>
																<lut2></lut2>
															</colorinfo>
														</clipitem>
														<clipitem id="clipitem-239">
															<masterclipid>masterclip-106</masterclipid>
															<name>(aquickspoonful)_CqrH4zLN_GX_IG.mp4</name>
															<enabled>TRUE</enabled>
															<duration>440</duration>
															<rate>
																<timebase>30</timebase>
																<ntsc>TRUE</ntsc>
															</rate>
															<start>847</start>
															<end>1287</end>
															<in>0</in>
															<out>440</out>
															<pproTicksIn>0</pproTicksIn>
															<pproTicksOut>3729293568000</pproTicksOut>
															<alphatype>none</alphatype>
															<pixelaspectratio>square</pixelaspectratio>
															<anamorphic>FALSE</anamorphic>
															<file id="file-91">
																<name>(aquickspoonful)_CqrH4zLN_GX_IG.mp4</name>
																<pathurl>file://localhost/Volumes/ATM%201/EYE%20CANDY/8%3a14%3a23/3_Raw%20Files/Confectionary%20Casseroles/(aquickspoonful)_CqrH4zLN_GX_IG.mp4</pathurl>
																<rate>
																	<timebase>30</timebase>
																	<ntsc>FALSE</ntsc>
																</rate>
																<duration>441</duration>
																<timecode>
																	<rate>
																		<timebase>30</timebase>
																		<ntsc>FALSE</ntsc>
																	</rate>
																	<string>00:00:00:00</string>
																	<frame>0</frame>
																	<displayformat>NDF</displayformat>
																</timecode>
																<media>
																	<video>
																		<samplecharacteristics>
																			<rate>
																				<timebase>30</timebase>
																				<ntsc>FALSE</ntsc>
																			</rate>
																			<width>576</width>
																			<height>1024</height>
																			<anamorphic>FALSE</anamorphic>
																			<pixelaspectratio>square</pixelaspectratio>
																			<fielddominance>none</fielddominance>
																		</samplecharacteristics>
																	</video>
																	<audio>
																		<samplecharacteristics>
																			<depth>16</depth>
																			<samplerate>44100</samplerate>
																		</samplecharacteristics>
																		<channelcount>1</channelcount>
																		<audiochannel>
																			<sourcechannel>1</sourcechannel>
																		</audiochannel>
																	</audio>
																</media>
															</file>
															<logginginfo>
																<description></description>
																<scene></scene>
																<shottake></shottake>
																<lognote></lognote>
																<good></good>
																<originalvideofilename></originalvideofilename>
																<originalaudiofilename></originalaudiofilename>
															</logginginfo>
															<colorinfo>
																<lut></lut>
																<lut1></lut1>
																<asc_sop></asc_sop>
																<asc_sat></asc_sat>
																<lut2></lut2>
															</colorinfo>
														</clipitem>
														<clipitem id="clipitem-240">
															<masterclipid>masterclip-107</masterclipid>
															<name>(aquickspoonful)_CsXRW6_OFdm_IG.mp4</name>
															<enabled>TRUE</enabled>
															<duration>432</duration>
															<rate>
																<timebase>30</timebase>
																<ntsc>TRUE</ntsc>
															</rate>
															<start>1287</start>
															<end>1719</end>
															<in>0</in>
															<out>432</out>
															<pproTicksIn>0</pproTicksIn>
															<pproTicksOut>3661488230400</pproTicksOut>
															<alphatype>none</alphatype>
															<pixelaspectratio>square</pixelaspectratio>
															<anamorphic>FALSE</anamorphic>
															<file id="file-92">
																<name>(aquickspoonful)_CsXRW6_OFdm_IG.mp4</name>
																<pathurl>file://localhost/Volumes/ATM%201/EYE%20CANDY/8%3a14%3a23/3_Raw%20Files/Confectionary%20Casseroles/(aquickspoonful)_CsXRW6_OFdm_IG.mp4</pathurl>
																<rate>
																	<timebase>30</timebase>
																	<ntsc>FALSE</ntsc>
																</rate>
																<duration>433</duration>
																<timecode>
																	<rate>
																		<timebase>30</timebase>
																		<ntsc>FALSE</ntsc>
																	</rate>
																	<string>00:00:00:00</string>
																	<frame>0</frame>
																	<displayformat>NDF</displayformat>
																</timecode>
																<media>
																	<video>
																		<samplecharacteristics>
																			<rate>
																				<timebase>30</timebase>
																				<ntsc>FALSE</ntsc>
																			</rate>
																			<width>576</width>
																			<height>1024</height>
																			<anamorphic>FALSE</anamorphic>
																			<pixelaspectratio>square</pixelaspectratio>
																			<fielddominance>none</fielddominance>
																		</samplecharacteristics>
																	</video>
																	<audio>
																		<samplecharacteristics>
																			<depth>16</depth>
																			<samplerate>44100</samplerate>
																		</samplecharacteristics>
																		<channelcount>1</channelcount>
																		<audiochannel>
																			<sourcechannel>1</sourcechannel>
																		</audiochannel>
																	</audio>
																</media>
															</file>
															<logginginfo>
																<description></description>
																<scene></scene>
																<shottake></shottake>
																<lognote></lognote>
																<good></good>
																<originalvideofilename></originalvideofilename>
																<originalaudiofilename></originalaudiofilename>
															</logginginfo>
															<colorinfo>
																<lut></lut>
																<lut1></lut1>
																<asc_sop></asc_sop>
																<asc_sat></asc_sat>
																<lut2></lut2>
															</colorinfo>
														</clipitem>
														<clipitem id="clipitem-241">
															<masterclipid>masterclip-108</masterclipid>
															<name>(aquickspoonful)_Cr6FrG0g6xs_IG.mp4</name>
															<enabled>TRUE</enabled>
															<duration>429</duration>
															<rate>
																<timebase>30</timebase>
																<ntsc>TRUE</ntsc>
															</rate>
															<start>1719</start>
															<end>2148</end>
															<in>0</in>
															<out>429</out>
															<pproTicksIn>0</pproTicksIn>
															<pproTicksOut>3636061228800</pproTicksOut>
															<alphatype>none</alphatype>
															<pixelaspectratio>square</pixelaspectratio>
															<anamorphic>FALSE</anamorphic>
															<file id="file-93">
																<name>(aquickspoonful)_Cr6FrG0g6xs_IG.mp4</name>
																<pathurl>file://localhost/Volumes/ATM%201/EYE%20CANDY/8%3a14%3a23/3_Raw%20Files/Confectionary%20Casseroles/(aquickspoonful)_Cr6FrG0g6xs_IG.mp4</pathurl>
																<rate>
																	<timebase>30</timebase>
																	<ntsc>FALSE</ntsc>
																</rate>
																<duration>430</duration>
																<timecode>
																	<rate>
																		<timebase>30</timebase>
																		<ntsc>FALSE</ntsc>
																	</rate>
																	<string>00:00:00:00</string>
																	<frame>0</frame>
																	<displayformat>NDF</displayformat>
																</timecode>
																<media>
																	<video>
																		<samplecharacteristics>
																			<rate>
																				<timebase>30</timebase>
																				<ntsc>FALSE</ntsc>
																			</rate>
																			<width>576</width>
																			<height>1024</height>
																			<anamorphic>FALSE</anamorphic>
																			<pixelaspectratio>square</pixelaspectratio>
																			<fielddominance>none</fielddominance>
																		</samplecharacteristics>
																	</video>
																	<audio>
																		<samplecharacteristics>
																			<depth>16</depth>
																			<samplerate>44100</samplerate>
																		</samplecharacteristics>
																		<channelcount>1</channelcount>
																		<audiochannel>
																			<sourcechannel>1</sourcechannel>
																		</audiochannel>
																	</audio>
																</media>
															</file>
															<logginginfo>
																<description></description>
																<scene></scene>
																<shottake></shottake>
																<lognote></lognote>
																<good></good>
																<originalvideofilename></originalvideofilename>
																<originalaudiofilename></originalaudiofilename>
															</logginginfo>
															<colorinfo>
																<lut></lut>
																<lut1></lut1>
																<asc_sop></asc_sop>
																<asc_sat></asc_sat>
																<lut2></lut2>
															</colorinfo>
														</clipitem>
														<clipitem id="clipitem-242">
															<masterclipid>masterclip-109</masterclipid>
															<name>(aquickspoonful)_CtWyQ1ag-is_IG.mp4</name>
															<enabled>TRUE</enabled>
															<duration>450</duration>
															<rate>
																<timebase>30</timebase>
																<ntsc>TRUE</ntsc>
															</rate>
															<start>2148</start>
															<end>2598</end>
															<in>0</in>
															<out>450</out>
															<pproTicksIn>0</pproTicksIn>
															<pproTicksOut>3814050240000</pproTicksOut>
															<alphatype>none</alphatype>
															<pixelaspectratio>square</pixelaspectratio>
															<anamorphic>FALSE</anamorphic>
															<file id="file-94">
																<name>(aquickspoonful)_CtWyQ1ag-is_IG.mp4</name>
																<pathurl>file://localhost/Volumes/ATM%201/EYE%20CANDY/8%3a14%3a23/3_Raw%20Files/Confectionary%20Casseroles/(aquickspoonful)_CtWyQ1ag-is_IG.mp4</pathurl>
																<rate>
																	<timebase>30</timebase>
																	<ntsc>FALSE</ntsc>
																</rate>
																<duration>451</duration>
																<timecode>
																	<rate>
																		<timebase>30</timebase>
																		<ntsc>FALSE</ntsc>
																	</rate>
																	<string>00:00:00:00</string>
																	<frame>0</frame>
																	<displayformat>NDF</displayformat>
																</timecode>
																<media>
																	<video>
																		<samplecharacteristics>
																			<rate>
																				<timebase>30</timebase>
																				<ntsc>FALSE</ntsc>
																			</rate>
																			<width>576</width>
																			<height>1024</height>
																			<anamorphic>FALSE</anamorphic>
																			<pixelaspectratio>square</pixelaspectratio>
																			<fielddominance>none</fielddominance>
																		</samplecharacteristics>
																	</video>
																	<audio>
																		<samplecharacteristics>
																			<depth>16</depth>
																			<samplerate>44100</samplerate>
																		</samplecharacteristics>
																		<channelcount>1</channelcount>
																		<audiochannel>
																			<sourcechannel>1</sourcechannel>
																		</audiochannel>
																	</audio>
																</media>
															</file>
															<logginginfo>
																<description></description>
																<scene></scene>
																<shottake></shottake>
																<lognote></lognote>
																<good></good>
																<originalvideofilename></originalvideofilename>
																<originalaudiofilename></originalaudiofilename>
															</logginginfo>
															<colorinfo>
																<lut></lut>
																<lut1></lut1>
																<asc_sop></asc_sop>
																<asc_sat></asc_sat>
																<lut2></lut2>
															</colorinfo>
														</clipitem>
														<enabled>TRUE</enabled>
														<locked>FALSE</locked>
													</track>
													<track TL.SQTrackShy="0" TL.SQTrackExpandedHeight="25" TL.SQTrackExpanded="0" MZ.TrackTargeted="0">
														<clipitem id="clipitem-243">
															<masterclipid>masterclip-14</masterclipid>
															<name>Eyecandy Vertical Video Frame 1</name>
															<enabled>TRUE</enabled>
															<duration>5700</duration>
															<rate>
																<timebase>30</timebase>
																<ntsc>TRUE</ntsc>
															</rate>
															<start>0</start>
															<end>2598</end>
															<in>80</in>
															<out>2678</out>
															<pproTicksIn>678053376000</pproTicksIn>
															<pproTicksOut>22697836761600</pproTicksOut>
															<alphatype>straight</alphatype>
															<file id="file-12"/>
															<logginginfo>
																<description></description>
																<scene></scene>
																<shottake></shottake>
																<lognote></lognote>
																<good></good>
																<originalvideofilename></originalvideofilename>
																<originalaudiofilename></originalaudiofilename>
															</logginginfo>
															<colorinfo>
																<lut></lut>
																<lut1></lut1>
																<asc_sop></asc_sop>
																<asc_sat></asc_sat>
																<lut2></lut2>
															</colorinfo>
															<labels>
																<label2>Teal</label2>
															</labels>
														</clipitem>
														<enabled>TRUE</enabled>
														<locked>FALSE</locked>
													</track>
													<track TL.SQTrackShy="0" TL.SQTrackExpandedHeight="25" TL.SQTrackExpanded="0" MZ.TrackTargeted="0">
														<enabled>TRUE</enabled>
														<locked>FALSE</locked>
													</track>
													<track TL.SQTrackShy="0" TL.SQTrackExpandedHeight="25" TL.SQTrackExpanded="0" MZ.TrackTargeted="0">
														<enabled>TRUE</enabled>
														<locked>FALSE</locked>
													</track>
													<track TL.SQTrackShy="0" TL.SQTrackExpandedHeight="25" TL.SQTrackExpanded="0" MZ.TrackTargeted="0">
														<enabled>TRUE</enabled>
														<locked>FALSE</locked>
													</track>
													<track TL.SQTrackShy="0" TL.SQTrackExpandedHeight="25" TL.SQTrackExpanded="0" MZ.TrackTargeted="0">
														<enabled>TRUE</enabled>
														<locked>FALSE</locked>
													</track>
													<track TL.SQTrackShy="0" TL.SQTrackExpandedHeight="25" TL.SQTrackExpanded="0" MZ.TrackTargeted="0">
														<enabled>TRUE</enabled>
														<locked>FALSE</locked>
													</track>
													<track TL.SQTrackShy="0" TL.SQTrackExpandedHeight="25" TL.SQTrackExpanded="0" MZ.TrackTargeted="0">
														<enabled>TRUE</enabled>
														<locked>FALSE</locked>
													</track>
													<track TL.SQTrackShy="0" TL.SQTrackExpandedHeight="25" TL.SQTrackExpanded="0" MZ.TrackTargeted="0">
														<enabled>TRUE</enabled>
														<locked>FALSE</locked>
													</track>
													<track TL.SQTrackShy="0" TL.SQTrackExpandedHeight="25" TL.SQTrackExpanded="0" MZ.TrackTargeted="0">
														<enabled>TRUE</enabled>
														<locked>FALSE</locked>
													</track>
												</video>
												<audio>
													<numOutputChannels>2</numOutputChannels>
													<format>
														<samplecharacteristics>
															<depth>16</depth>
															<samplerate>48000</samplerate>
														</samplecharacteristics>
													</format>
													<outputs>
														<group>
															<index>1</index>
															<numchannels>1</numchannels>
															<downmix>0</downmix>
															<channel>
																<index>1</index>
															</channel>
														</group>
														<group>
															<index>2</index>
															<numchannels>1</numchannels>
															<downmix>0</downmix>
															<channel>
																<index>2</index>
															</channel>
														</group>
													</outputs>
													<track TL.SQTrackAudioKeyframeStyle="0" TL.SQTrackShy="0" TL.SQTrackExpandedHeight="25" TL.SQTrackExpanded="0" MZ.TrackTargeted="1" PannerCurrentValue="0.5" PannerIsInverted="true" PannerStartKeyframe="-91445760000000000,0.5,0,0,0,0,0,0" PannerName="Balance" currentExplodedTrackIndex="0" totalExplodedTrackCount="2" premiereTrackType="Stereo">
														<clipitem id="clipitem-244" premiereChannelType="stereo">
															<masterclipid>masterclip-110</masterclipid>
															<name>ES_Basement Vibes (Instrumental Version) - DAJANA.mp3</name>
															<enabled>TRUE</enabled>
															<duration>4641</duration>
															<rate>
																<timebase>30</timebase>
																<ntsc>TRUE</ntsc>
															</rate>
															<start>0</start>
															<end>2598</end>
															<in>0</in>
															<out>2598</out>
															<pproTicksIn>0</pproTicksIn>
															<pproTicksOut>22019783385600</pproTicksOut>
															<file id="file-95">
																<name>ES_Basement Vibes (Instrumental Version) - DAJANA.mp3</name>
																<pathurl>file://localhost/Volumes/ATM%201/EYE%20CANDY/8%3a14%3a23/5_Assets/Music/ES_Basement%20Vibes%20(Instrumental%20Version)%20-%20DAJANA.mp3</pathurl>
																<rate>
																	<timebase>30</timebase>
																	<ntsc>TRUE</ntsc>
																</rate>
																<duration>4641</duration>
																<timecode>
																	<rate>
																		<timebase>30</timebase>
																		<ntsc>TRUE</ntsc>
																	</rate>
																	<string>00;00;00;00</string>
																	<frame>0</frame>
																	<displayformat>DF</displayformat>
																</timecode>
																<media>
																	<audio>
																		<samplecharacteristics>
																			<depth>16</depth>
																			<samplerate>48000</samplerate>
																		</samplecharacteristics>
																		<channelcount>2</channelcount>
																	</audio>
																</media>
															</file>
															<sourcetrack>
																<mediatype>audio</mediatype>
																<trackindex>1</trackindex>
															</sourcetrack>
															<link>
																<linkclipref>clipitem-244</linkclipref>
																<mediatype>audio</mediatype>
																<trackindex>1</trackindex>
																<clipindex>1</clipindex>
																<groupindex>1</groupindex>
															</link>
															<link>
																<linkclipref>clipitem-245</linkclipref>
																<mediatype>audio</mediatype>
																<trackindex>2</trackindex>
																<clipindex>1</clipindex>
																<groupindex>1</groupindex>
															</link>
															<logginginfo>
																<description></description>
																<scene></scene>
																<shottake></shottake>
																<lognote></lognote>
																<good></good>
																<originalvideofilename></originalvideofilename>
																<originalaudiofilename></originalaudiofilename>
															</logginginfo>
															<colorinfo>
																<lut></lut>
																<lut1></lut1>
																<asc_sop></asc_sop>
																<asc_sat></asc_sat>
																<lut2></lut2>
															</colorinfo>
															<labels>
																<label2>Caribbean</label2>
															</labels>
														</clipitem>
														<enabled>TRUE</enabled>
														<locked>FALSE</locked>
														<filter>
															<effect>
																<name>Audio Levels</name>
																<effectid>audiolevels</effectid>
																<effectcategory>audiolevels</effectcategory>
																<effecttype>audiolevels</effecttype>
																<mediatype>audio</mediatype>
																<parameter authoringApp="PremierePro">
																	<parameterid>level</parameterid>
																	<name>Level</name>
																	<valuemin>0</valuemin>
																	<valuemax>3.98109</valuemax>
																	<value>0.706272</value>
																</parameter>
															</effect>
														</filter>
														<outputchannelindex>1</outputchannelindex>
													</track>
													<track TL.SQTrackAudioKeyframeStyle="0" TL.SQTrackShy="0" TL.SQTrackExpandedHeight="25" TL.SQTrackExpanded="0" MZ.TrackTargeted="1" PannerCurrentValue="0.5" PannerIsInverted="true" PannerStartKeyframe="-91445760000000000,0.5,0,0,0,0,0,0" PannerName="Balance" currentExplodedTrackIndex="1" totalExplodedTrackCount="2" premiereTrackType="Stereo">
														<clipitem id="clipitem-245" premiereChannelType="stereo">
															<masterclipid>masterclip-110</masterclipid>
															<name>ES_Basement Vibes (Instrumental Version) - DAJANA.mp3</name>
															<enabled>TRUE</enabled>
															<duration>4641</duration>
															<rate>
																<timebase>30</timebase>
																<ntsc>TRUE</ntsc>
															</rate>
															<start>0</start>
															<end>2598</end>
															<in>0</in>
															<out>2598</out>
															<pproTicksIn>0</pproTicksIn>
															<pproTicksOut>22019783385600</pproTicksOut>
															<file id="file-95"/>
															<sourcetrack>
																<mediatype>audio</mediatype>
																<trackindex>2</trackindex>
															</sourcetrack>
															<link>
																<linkclipref>clipitem-244</linkclipref>
																<mediatype>audio</mediatype>
																<trackindex>1</trackindex>
																<clipindex>1</clipindex>
																<groupindex>1</groupindex>
															</link>
															<link>
																<linkclipref>clipitem-245</linkclipref>
																<mediatype>audio</mediatype>
																<trackindex>2</trackindex>
																<clipindex>1</clipindex>
																<groupindex>1</groupindex>
															</link>
															<logginginfo>
																<description></description>
																<scene></scene>
																<shottake></shottake>
																<lognote></lognote>
																<good></good>
																<originalvideofilename></originalvideofilename>
																<originalaudiofilename></originalaudiofilename>
															</logginginfo>
															<colorinfo>
																<lut></lut>
																<lut1></lut1>
																<asc_sop></asc_sop>
																<asc_sat></asc_sat>
																<lut2></lut2>
															</colorinfo>
															<labels>
																<label2>Caribbean</label2>
															</labels>
														</clipitem>
														<enabled>TRUE</enabled>
														<locked>FALSE</locked>
														<filter>
															<effect>
																<name>Audio Levels</name>
																<effectid>audiolevels</effectid>
																<effectcategory>audiolevels</effectcategory>
																<effecttype>audiolevels</effecttype>
																<mediatype>audio</mediatype>
																<parameter authoringApp="PremierePro">
																	<parameterid>level</parameterid>
																	<name>Level</name>
																	<valuemin>0</valuemin>
																	<valuemax>3.98109</valuemax>
																	<value>0.706272</value>
																</parameter>
															</effect>
														</filter>
														<outputchannelindex>2</outputchannelindex>
													</track>
													<track TL.SQTrackAudioKeyframeStyle="0" TL.SQTrackShy="0" TL.SQTrackExpandedHeight="25" TL.SQTrackExpanded="0" MZ.TrackTargeted="0" PannerCurrentValue="0.5" PannerIsInverted="true" PannerStartKeyframe="-91445760000000000,0.5,0,0,0,0,0,0" PannerName="Balance" currentExplodedTrackIndex="0" totalExplodedTrackCount="2" premiereTrackType="Stereo">
														<enabled>TRUE</enabled>
														<locked>FALSE</locked>
														<outputchannelindex>1</outputchannelindex>
													</track>
													<track TL.SQTrackAudioKeyframeStyle="0" TL.SQTrackShy="0" TL.SQTrackExpandedHeight="25" TL.SQTrackExpanded="0" MZ.TrackTargeted="0" PannerCurrentValue="0.5" PannerIsInverted="true" PannerStartKeyframe="-91445760000000000,0.5,0,0,0,0,0,0" PannerName="Balance" currentExplodedTrackIndex="1" totalExplodedTrackCount="2" premiereTrackType="Stereo">
														<enabled>TRUE</enabled>
														<locked>FALSE</locked>
														<outputchannelindex>2</outputchannelindex>
													</track>
													<track TL.SQTrackAudioKeyframeStyle="0" TL.SQTrackShy="0" TL.SQTrackExpandedHeight="25" TL.SQTrackExpanded="0" MZ.TrackTargeted="0" PannerCurrentValue="0.5" PannerIsInverted="true" PannerStartKeyframe="-91445760000000000,0.5,0,0,0,0,0,0" PannerName="Balance" currentExplodedTrackIndex="0" totalExplodedTrackCount="2" premiereTrackType="Stereo">
														<enabled>TRUE</enabled>
														<locked>FALSE</locked>
														<outputchannelindex>1</outputchannelindex>
													</track>
													<track TL.SQTrackAudioKeyframeStyle="0" TL.SQTrackShy="0" TL.SQTrackExpandedHeight="25" TL.SQTrackExpanded="0" MZ.TrackTargeted="0" PannerCurrentValue="0.5" PannerIsInverted="true" PannerStartKeyframe="-91445760000000000,0.5,0,0,0,0,0,0" PannerName="Balance" currentExplodedTrackIndex="1" totalExplodedTrackCount="2" premiereTrackType="Stereo">
														<enabled>TRUE</enabled>
														<locked>FALSE</locked>
														<outputchannelindex>2</outputchannelindex>
													</track>
													<track TL.SQTrackAudioKeyframeStyle="0" TL.SQTrackShy="0" TL.SQTrackExpandedHeight="25" TL.SQTrackExpanded="0" MZ.TrackTargeted="0" PannerCurrentValue="0.5" PannerIsInverted="true" PannerStartKeyframe="-91445760000000000,0.5,0,0,0,0,0,0" PannerName="Balance" currentExplodedTrackIndex="0" totalExplodedTrackCount="2" premiereTrackType="Stereo">
														<enabled>TRUE</enabled>
														<locked>FALSE</locked>
														<outputchannelindex>1</outputchannelindex>
													</track>
													<track TL.SQTrackAudioKeyframeStyle="0" TL.SQTrackShy="0" TL.SQTrackExpandedHeight="25" TL.SQTrackExpanded="0" MZ.TrackTargeted="0" PannerCurrentValue="0.5" PannerIsInverted="true" PannerStartKeyframe="-91445760000000000,0.5,0,0,0,0,0,0" PannerName="Balance" currentExplodedTrackIndex="1" totalExplodedTrackCount="2" premiereTrackType="Stereo">
														<enabled>TRUE</enabled>
														<locked>FALSE</locked>
														<outputchannelindex>2</outputchannelindex>
													</track>
													<track TL.SQTrackAudioKeyframeStyle="0" TL.SQTrackShy="0" TL.SQTrackExpandedHeight="25" TL.SQTrackExpanded="0" MZ.TrackTargeted="0" PannerCurrentValue="0.5" PannerIsInverted="true" PannerStartKeyframe="-91445760000000000,0.5,0,0,0,0,0,0" PannerName="Balance" currentExplodedTrackIndex="0" totalExplodedTrackCount="2" premiereTrackType="Stereo">
														<enabled>TRUE</enabled>
														<locked>FALSE</locked>
														<outputchannelindex>1</outputchannelindex>
													</track>
													<track TL.SQTrackAudioKeyframeStyle="0" TL.SQTrackShy="0" TL.SQTrackExpandedHeight="25" TL.SQTrackExpanded="0" MZ.TrackTargeted="0" PannerCurrentValue="0.5" PannerIsInverted="true" PannerStartKeyframe="-91445760000000000,0.5,0,0,0,0,0,0" PannerName="Balance" currentExplodedTrackIndex="1" totalExplodedTrackCount="2" premiereTrackType="Stereo">
														<enabled>TRUE</enabled>
														<locked>FALSE</locked>
														<outputchannelindex>2</outputchannelindex>
													</track>
													<track TL.SQTrackAudioKeyframeStyle="0" TL.SQTrackShy="0" TL.SQTrackExpandedHeight="25" TL.SQTrackExpanded="0" MZ.TrackTargeted="0" PannerCurrentValue="0.5" PannerIsInverted="true" PannerStartKeyframe="-91445760000000000,0.5,0,0,0,0,0,0" PannerName="Balance" currentExplodedTrackIndex="0" totalExplodedTrackCount="2" premiereTrackType="Stereo">
														<enabled>TRUE</enabled>
														<locked>FALSE</locked>
														<outputchannelindex>1</outputchannelindex>
													</track>
													<track TL.SQTrackAudioKeyframeStyle="0" TL.SQTrackShy="0" TL.SQTrackExpandedHeight="25" TL.SQTrackExpanded="0" MZ.TrackTargeted="0" PannerCurrentValue="0.5" PannerIsInverted="true" PannerStartKeyframe="-91445760000000000,0.5,0,0,0,0,0,0" PannerName="Balance" currentExplodedTrackIndex="1" totalExplodedTrackCount="2" premiereTrackType="Stereo">
														<enabled>TRUE</enabled>
														<locked>FALSE</locked>
														<outputchannelindex>2</outputchannelindex>
													</track>
													<track TL.SQTrackAudioKeyframeStyle="0" TL.SQTrackShy="0" TL.SQTrackExpandedHeight="25" TL.SQTrackExpanded="0" MZ.TrackTargeted="0" PannerCurrentValue="0.5" PannerIsInverted="true" PannerStartKeyframe="-91445760000000000,0.5,0,0,0,0,0,0" PannerName="Balance" currentExplodedTrackIndex="0" totalExplodedTrackCount="2" premiereTrackType="Stereo">
														<enabled>TRUE</enabled>
														<locked>FALSE</locked>
														<outputchannelindex>1</outputchannelindex>
													</track>
													<track TL.SQTrackAudioKeyframeStyle="0" TL.SQTrackShy="0" TL.SQTrackExpandedHeight="25" TL.SQTrackExpanded="0" MZ.TrackTargeted="0" PannerCurrentValue="0.5" PannerIsInverted="true" PannerStartKeyframe="-91445760000000000,0.5,0,0,0,0,0,0" PannerName="Balance" currentExplodedTrackIndex="1" totalExplodedTrackCount="2" premiereTrackType="Stereo">
														<enabled>TRUE</enabled>
														<locked>FALSE</locked>
														<outputchannelindex>2</outputchannelindex>
													</track>
													<track TL.SQTrackAudioKeyframeStyle="0" TL.SQTrackShy="0" TL.SQTrackExpandedHeight="25" TL.SQTrackExpanded="0" MZ.TrackTargeted="0" PannerCurrentValue="0.5" PannerIsInverted="true" PannerStartKeyframe="-91445760000000000,0.5,0,0,0,0,0,0" PannerName="Balance" currentExplodedTrackIndex="0" totalExplodedTrackCount="2" premiereTrackType="Stereo">
														<enabled>TRUE</enabled>
														<locked>FALSE</locked>
														<outputchannelindex>1</outputchannelindex>
													</track>
													<track TL.SQTrackAudioKeyframeStyle="0" TL.SQTrackShy="0" TL.SQTrackExpandedHeight="25" TL.SQTrackExpanded="0" MZ.TrackTargeted="0" PannerCurrentValue="0.5" PannerIsInverted="true" PannerStartKeyframe="-91445760000000000,0.5,0,0,0,0,0,0" PannerName="Balance" currentExplodedTrackIndex="1" totalExplodedTrackCount="2" premiereTrackType="Stereo">
														<enabled>TRUE</enabled>
														<locked>FALSE</locked>
														<outputchannelindex>2</outputchannelindex>
													</track>
													<track TL.SQTrackAudioKeyframeStyle="0" TL.SQTrackShy="0" TL.SQTrackExpandedHeight="25" TL.SQTrackExpanded="0" MZ.TrackTargeted="0" PannerCurrentValue="0.5" PannerIsInverted="true" PannerStartKeyframe="-91445760000000000,0.5,0,0,0,0,0,0" PannerName="Balance" currentExplodedTrackIndex="0" totalExplodedTrackCount="2" premiereTrackType="Stereo">
														<enabled>TRUE</enabled>
														<locked>FALSE</locked>
														<outputchannelindex>1</outputchannelindex>
													</track>
													<track TL.SQTrackAudioKeyframeStyle="0" TL.SQTrackShy="0" TL.SQTrackExpandedHeight="25" TL.SQTrackExpanded="0" MZ.TrackTargeted="0" PannerCurrentValue="0.5" PannerIsInverted="true" PannerStartKeyframe="-91445760000000000,0.5,0,0,0,0,0,0" PannerName="Balance" currentExplodedTrackIndex="1" totalExplodedTrackCount="2" premiereTrackType="Stereo">
														<enabled>TRUE</enabled>
														<locked>FALSE</locked>
														<outputchannelindex>2</outputchannelindex>
													</track>
													<track TL.SQTrackAudioKeyframeStyle="0" TL.SQTrackShy="0" TL.SQTrackExpandedHeight="25" TL.SQTrackExpanded="0" MZ.TrackTargeted="0" PannerCurrentValue="0.5" PannerIsInverted="true" PannerStartKeyframe="-91445760000000000,0.5,0,0,0,0,0,0" PannerName="Balance" currentExplodedTrackIndex="0" totalExplodedTrackCount="2" premiereTrackType="Stereo">
														<enabled>TRUE</enabled>
														<locked>FALSE</locked>
														<outputchannelindex>1</outputchannelindex>
													</track>
													<track TL.SQTrackAudioKeyframeStyle="0" TL.SQTrackShy="0" TL.SQTrackExpandedHeight="25" TL.SQTrackExpanded="0" MZ.TrackTargeted="0" PannerCurrentValue="0.5" PannerIsInverted="true" PannerStartKeyframe="-91445760000000000,0.5,0,0,0,0,0,0" PannerName="Balance" currentExplodedTrackIndex="1" totalExplodedTrackCount="2" premiereTrackType="Stereo">
														<enabled>TRUE</enabled>
														<locked>FALSE</locked>
														<outputchannelindex>2</outputchannelindex>
													</track>
												</audio>
											</media>
											<timecode>
												<rate>
													<timebase>30</timebase>
													<ntsc>TRUE</ntsc>
												</rate>
												<string>00;00;00;00</string>
												<frame>0</frame>
												<displayformat>DF</displayformat>
											</timecode>
											<logginginfo>
												<description></description>
												<scene></scene>
												<shottake></shottake>
												<lognote></lognote>
												<good></good>
												<originalvideofilename></originalvideofilename>
												<originalaudiofilename></originalaudiofilename>
											</logginginfo>
										</sequence>
										<link>
											<linkclipref>clipitem-236</linkclipref>
											<mediatype>video</mediatype>
											<trackindex>1</trackindex>
											<clipindex>2</clipindex>
										</link>
										<link>
											<linkclipref>clipitem-256</linkclipref>
											<mediatype>audio</mediatype>
											<trackindex>1</trackindex>
											<clipindex>3</clipindex>
											<groupindex>1</groupindex>
										</link>
										<link>
											<linkclipref>clipitem-259</linkclipref>
											<mediatype>audio</mediatype>
											<trackindex>2</trackindex>
											<clipindex>3</clipindex>
											<groupindex>1</groupindex>
										</link>
										<labels>
											<label2>Forest</label2>
										</labels>
									</clipitem>
									<clipitem id="clipitem-246">
										<masterclipid>masterclip-111</masterclipid>
										<name>Bumper 3</name>
										<enabled>TRUE</enabled>
										<duration>299</duration>
										<rate>
											<timebase>30</timebase>
											<ntsc>TRUE</ntsc>
										</rate>
										<start>5047</start>
										<end>5346</end>
										<in>0</in>
										<out>299</out>
										<pproTicksIn>0</pproTicksIn>
										<pproTicksOut>2534224492800</pproTicksOut>
										<sequence id="sequence-21" TL.SQAudioVisibleBase="0" TL.SQVideoVisibleBase="0" TL.SQVisibleBaseTime="0" TL.SQAVDividerPosition="0.5" TL.SQHideShyTracks="0" TL.SQHeaderWidth="236" Monitor.ProgramZoomOut="2534224492800" Monitor.ProgramZoomIn="0" TL.SQTimePerPixel="0.072184793070254133" AM.TrackVScrollPosition="0" AM.TrackScrollPosition="0" MZ.EditLine="1500193094400" MZ.Sequence.PreviewFrameSizeHeight="1080" MZ.Sequence.PreviewFrameSizeWidth="1920" MZ.Sequence.AudioTimeDisplayFormat="200" MZ.Sequence.PreviewRenderingClassID="1061109567" MZ.Sequence.PreviewRenderingPresetCodec="1634755443" MZ.Sequence.PreviewRenderingPresetPath="EncoderPresets/SequencePreview/35d109db-457b-43c1-9452-9cb7be9f121c/QuickTime.epr" MZ.Sequence.PreviewUseMaxRenderQuality="false" MZ.Sequence.PreviewUseMaxBitDepth="false" MZ.Sequence.EditingModeGUID="35d109db-457b-43c1-9452-9cb7be9f121c" MZ.Sequence.VideoTimeDisplayFormat="102" MZ.WorkOutPoint="1262874412800" MZ.WorkInPoint="0">
											<duration>299</duration>
											<rate>
												<timebase>30</timebase>
												<ntsc>TRUE</ntsc>
											</rate>
											<name>Bumper 3</name>
											<media>
												<video>
													<format>
														<samplecharacteristics>
															<rate>
																<timebase>30</timebase>
																<ntsc>TRUE</ntsc>
															</rate>
															<codec>
																<name>Apple ProRes 422</name>
																<appspecificdata>
																	<appname>Final Cut Pro</appname>
																	<appmanufacturer>Apple Inc.</appmanufacturer>
																	<appversion>7.0</appversion>
																	<data>
																		<qtcodec>
																			<codecname>Apple ProRes 422</codecname>
																			<codectypename>Apple ProRes 422</codectypename>
																			<codectypecode>apcn</codectypecode>
																			<codecvendorcode>appl</codecvendorcode>
																			<spatialquality>1024</spatialquality>
																			<temporalquality>0</temporalquality>
																			<keyframerate>0</keyframerate>
																			<datarate>0</datarate>
																		</qtcodec>
																	</data>
																</appspecificdata>
															</codec>
															<width>1920</width>
															<height>1080</height>
															<anamorphic>FALSE</anamorphic>
															<pixelaspectratio>square</pixelaspectratio>
															<fielddominance>none</fielddominance>
															<colordepth>24</colordepth>
														</samplecharacteristics>
													</format>
													<track TL.SQTrackShy="0" TL.SQTrackExpandedHeight="25" TL.SQTrackExpanded="0" MZ.TrackTargeted="1">
														<clipitem id="clipitem-247">
															<masterclipid>masterclip-112</masterclipid>
															<name>ATM_Content Submit QR_Music 2.mp4</name>
															<enabled>TRUE</enabled>
															<duration>299</duration>
															<rate>
																<timebase>30</timebase>
																<ntsc>TRUE</ntsc>
															</rate>
															<start>0</start>
															<end>299</end>
															<in>0</in>
															<out>299</out>
															<pproTicksIn>0</pproTicksIn>
															<pproTicksOut>2534224492800</pproTicksOut>
															<alphatype>none</alphatype>
															<pixelaspectratio>square</pixelaspectratio>
															<anamorphic>FALSE</anamorphic>
															<file id="file-96">
																<name>ATM_Content Submit QR_Music 2.mp4</name>
																<pathurl>file://localhost/Volumes/ATM%201/EYE%20CANDY/Project%20Template/5_Assets/House%20Ads/ATM_Content%20Submit%20QR_Music%202.mp4</pathurl>
																<rate>
																	<timebase>30</timebase>
																	<ntsc>FALSE</ntsc>
																</rate>
																<duration>300</duration>
																<timecode>
																	<rate>
																		<timebase>30</timebase>
																		<ntsc>FALSE</ntsc>
																	</rate>
																	<string>00:00:00:00</string>
																	<frame>0</frame>
																	<displayformat>NDF</displayformat>
																</timecode>
																<media>
																	<video>
																		<samplecharacteristics>
																			<rate>
																				<timebase>30</timebase>
																				<ntsc>FALSE</ntsc>
																			</rate>
																			<width>1920</width>
																			<height>1080</height>
																			<anamorphic>FALSE</anamorphic>
																			<pixelaspectratio>square</pixelaspectratio>
																			<fielddominance>none</fielddominance>
																		</samplecharacteristics>
																	</video>
																	<audio>
																		<samplecharacteristics>
																			<depth>16</depth>
																			<samplerate>44100</samplerate>
																		</samplecharacteristics>
																		<channelcount>2</channelcount>
																	</audio>
																</media>
															</file>
															<link>
																<linkclipref>clipitem-247</linkclipref>
																<mediatype>video</mediatype>
																<trackindex>1</trackindex>
																<clipindex>1</clipindex>
															</link>
															<link>
																<linkclipref>clipitem-248</linkclipref>
																<mediatype>audio</mediatype>
																<trackindex>1</trackindex>
																<clipindex>1</clipindex>
																<groupindex>1</groupindex>
															</link>
															<link>
																<linkclipref>clipitem-249</linkclipref>
																<mediatype>audio</mediatype>
																<trackindex>2</trackindex>
																<clipindex>1</clipindex>
																<groupindex>1</groupindex>
															</link>
															<logginginfo>
																<description></description>
																<scene></scene>
																<shottake></shottake>
																<lognote></lognote>
																<good></good>
																<originalvideofilename></originalvideofilename>
																<originalaudiofilename></originalaudiofilename>
															</logginginfo>
															<colorinfo>
																<lut></lut>
																<lut1></lut1>
																<asc_sop></asc_sop>
																<asc_sat></asc_sat>
																<lut2></lut2>
															</colorinfo>
														</clipitem>
														<enabled>TRUE</enabled>
														<locked>FALSE</locked>
													</track>
												</video>
												<audio>
													<numOutputChannels>2</numOutputChannels>
													<format>
														<samplecharacteristics>
															<depth>16</depth>
															<samplerate>48000</samplerate>
														</samplecharacteristics>
													</format>
													<outputs>
														<group>
															<index>1</index>
															<numchannels>1</numchannels>
															<downmix>0</downmix>
															<channel>
																<index>1</index>
															</channel>
														</group>
														<group>
															<index>2</index>
															<numchannels>1</numchannels>
															<downmix>0</downmix>
															<channel>
																<index>2</index>
															</channel>
														</group>
													</outputs>
													<track TL.SQTrackAudioKeyframeStyle="0" TL.SQTrackShy="0" TL.SQTrackExpandedHeight="25" TL.SQTrackExpanded="0" MZ.TrackTargeted="1" PannerCurrentValue="0.5" PannerIsInverted="true" PannerStartKeyframe="-91445760000000000,0.5,0,0,0,0,0,0" PannerName="Balance" currentExplodedTrackIndex="0" totalExplodedTrackCount="2" premiereTrackType="Stereo">
														<clipitem id="clipitem-248" premiereChannelType="stereo">
															<masterclipid>masterclip-112</masterclipid>
															<name>ATM_Content Submit QR_Music 2.mp4</name>
															<enabled>TRUE</enabled>
															<duration>299</duration>
															<rate>
																<timebase>30</timebase>
																<ntsc>TRUE</ntsc>
															</rate>
															<start>0</start>
															<end>299</end>
															<in>0</in>
															<out>299</out>
															<pproTicksIn>0</pproTicksIn>
															<pproTicksOut>2534224492800</pproTicksOut>
															<file id="file-96"/>
															<sourcetrack>
																<mediatype>audio</mediatype>
																<trackindex>1</trackindex>
															</sourcetrack>
															<filter>
																<effect>
																	<name>Audio Levels</name>
																	<effectid>audiolevels</effectid>
																	<effectcategory>audiolevels</effectcategory>
																	<effecttype>audiolevels</effecttype>
																	<mediatype>audio</mediatype>
																	<pproBypass>false</pproBypass>
																	<parameter authoringApp="PremierePro">
																		<parameterid>level</parameterid>
																		<name>Level</name>
																		<valuemin>0</valuemin>
																		<valuemax>3.98109</valuemax>
																		<value>0.354813</value>
																	</parameter>
																</effect>
															</filter>
															<link>
																<linkclipref>clipitem-247</linkclipref>
																<mediatype>video</mediatype>
																<trackindex>1</trackindex>
																<clipindex>1</clipindex>
															</link>
															<link>
																<linkclipref>clipitem-248</linkclipref>
																<mediatype>audio</mediatype>
																<trackindex>1</trackindex>
																<clipindex>1</clipindex>
																<groupindex>1</groupindex>
															</link>
															<link>
																<linkclipref>clipitem-249</linkclipref>
																<mediatype>audio</mediatype>
																<trackindex>2</trackindex>
																<clipindex>1</clipindex>
																<groupindex>1</groupindex>
															</link>
															<logginginfo>
																<description></description>
																<scene></scene>
																<shottake></shottake>
																<lognote></lognote>
																<good></good>
																<originalvideofilename></originalvideofilename>
																<originalaudiofilename></originalaudiofilename>
															</logginginfo>
															<colorinfo>
																<lut></lut>
																<lut1></lut1>
																<asc_sop></asc_sop>
																<asc_sat></asc_sat>
																<lut2></lut2>
															</colorinfo>
														</clipitem>
														<enabled>TRUE</enabled>
														<locked>FALSE</locked>
														<filter>
															<effect>
																<name>Audio Levels</name>
																<effectid>audiolevels</effectid>
																<effectcategory>audiolevels</effectcategory>
																<effecttype>audiolevels</effecttype>
																<mediatype>audio</mediatype>
																<parameter authoringApp="PremierePro">
																	<parameterid>level</parameterid>
																	<name>Level</name>
																	<valuemin>0</valuemin>
																	<valuemax>3.98109</valuemax>
																	<value>11.1937</value>
																</parameter>
															</effect>
														</filter>
														<outputchannelindex>1</outputchannelindex>
													</track>
													<track TL.SQTrackAudioKeyframeStyle="0" TL.SQTrackShy="0" TL.SQTrackExpandedHeight="25" TL.SQTrackExpanded="0" MZ.TrackTargeted="1" PannerCurrentValue="0.5" PannerIsInverted="true" PannerStartKeyframe="-91445760000000000,0.5,0,0,0,0,0,0" PannerName="Balance" currentExplodedTrackIndex="1" totalExplodedTrackCount="2" premiereTrackType="Stereo">
														<clipitem id="clipitem-249" premiereChannelType="stereo">
															<masterclipid>masterclip-112</masterclipid>
															<name>ATM_Content Submit QR_Music 2.mp4</name>
															<enabled>TRUE</enabled>
															<duration>299</duration>
															<rate>
																<timebase>30</timebase>
																<ntsc>TRUE</ntsc>
															</rate>
															<start>0</start>
															<end>299</end>
															<in>0</in>
															<out>299</out>
															<pproTicksIn>0</pproTicksIn>
															<pproTicksOut>2534224492800</pproTicksOut>
															<file id="file-96"/>
															<sourcetrack>
																<mediatype>audio</mediatype>
																<trackindex>2</trackindex>
															</sourcetrack>
															<filter>
																<effect>
																	<name>Audio Levels</name>
																	<effectid>audiolevels</effectid>
																	<effectcategory>audiolevels</effectcategory>
																	<effecttype>audiolevels</effecttype>
																	<mediatype>audio</mediatype>
																	<pproBypass>false</pproBypass>
																	<parameter authoringApp="PremierePro">
																		<parameterid>level</parameterid>
																		<name>Level</name>
																		<valuemin>0</valuemin>
																		<valuemax>3.98109</valuemax>
																		<value>0.354813</value>
																	</parameter>
																</effect>
															</filter>
															<link>
																<linkclipref>clipitem-247</linkclipref>
																<mediatype>video</mediatype>
																<trackindex>1</trackindex>
																<clipindex>1</clipindex>
															</link>
															<link>
																<linkclipref>clipitem-248</linkclipref>
																<mediatype>audio</mediatype>
																<trackindex>1</trackindex>
																<clipindex>1</clipindex>
																<groupindex>1</groupindex>
															</link>
															<link>
																<linkclipref>clipitem-249</linkclipref>
																<mediatype>audio</mediatype>
																<trackindex>2</trackindex>
																<clipindex>1</clipindex>
																<groupindex>1</groupindex>
															</link>
															<logginginfo>
																<description></description>
																<scene></scene>
																<shottake></shottake>
																<lognote></lognote>
																<good></good>
																<originalvideofilename></originalvideofilename>
																<originalaudiofilename></originalaudiofilename>
															</logginginfo>
															<colorinfo>
																<lut></lut>
																<lut1></lut1>
																<asc_sop></asc_sop>
																<asc_sat></asc_sat>
																<lut2></lut2>
															</colorinfo>
														</clipitem>
														<enabled>TRUE</enabled>
														<locked>FALSE</locked>
														<filter>
															<effect>
																<name>Audio Levels</name>
																<effectid>audiolevels</effectid>
																<effectcategory>audiolevels</effectcategory>
																<effecttype>audiolevels</effecttype>
																<mediatype>audio</mediatype>
																<parameter authoringApp="PremierePro">
																	<parameterid>level</parameterid>
																	<name>Level</name>
																	<valuemin>0</valuemin>
																	<valuemax>3.98109</valuemax>
																	<value>11.1937</value>
																</parameter>
															</effect>
														</filter>
														<outputchannelindex>2</outputchannelindex>
													</track>
												</audio>
											</media>
											<timecode>
												<rate>
													<timebase>30</timebase>
													<ntsc>TRUE</ntsc>
												</rate>
												<string>00;00;00;00</string>
												<frame>0</frame>
												<displayformat>DF</displayformat>
											</timecode>
											<logginginfo>
												<description></description>
												<scene></scene>
												<shottake></shottake>
												<lognote></lognote>
												<good></good>
												<originalvideofilename></originalvideofilename>
												<originalaudiofilename></originalaudiofilename>
											</logginginfo>
										</sequence>
										<link>
											<linkclipref>clipitem-246</linkclipref>
											<mediatype>video</mediatype>
											<trackindex>1</trackindex>
											<clipindex>3</clipindex>
										</link>
										<link>
											<linkclipref>clipitem-257</linkclipref>
											<mediatype>audio</mediatype>
											<trackindex>1</trackindex>
											<clipindex>5</clipindex>
											<groupindex>1</groupindex>
										</link>
										<link>
											<linkclipref>clipitem-260</linkclipref>
											<mediatype>audio</mediatype>
											<trackindex>2</trackindex>
											<clipindex>5</clipindex>
											<groupindex>1</groupindex>
										</link>
										<labels>
											<label2>Forest</label2>
										</labels>
									</clipitem>
									<enabled>TRUE</enabled>
									<locked>FALSE</locked>
								</track>
								<track TL.SQTrackShy="0" TL.SQTrackExpandedHeight="25" TL.SQTrackExpanded="0" MZ.TrackTargeted="0">
									<clipitem id="clipitem-250">
										<masterclipid>masterclip-16</masterclipid>
										<name>ATM BUG_1080_Top Right.png</name>
										<enabled>TRUE</enabled>
										<duration>1294705</duration>
										<rate>
											<timebase>30</timebase>
											<ntsc>TRUE</ntsc>
										</rate>
										<start>82</start>
										<end>5047</end>
										<in>107892</in>
										<out>112857</out>
										<pproTicksIn>914456685542400</pproTicksIn>
										<pproTicksOut>956538373190400</pproTicksOut>
										<alphatype>straight</alphatype>
										<file id="file-14"/>
										<logginginfo>
											<description></description>
											<scene></scene>
											<shottake></shottake>
											<lognote></lognote>
											<good></good>
											<originalvideofilename></originalvideofilename>
											<originalaudiofilename></originalaudiofilename>
										</logginginfo>
										<colorinfo>
											<lut></lut>
											<lut1></lut1>
											<asc_sop></asc_sop>
											<asc_sat></asc_sat>
											<lut2></lut2>
										</colorinfo>
										<labels>
										</labels>
									</clipitem>
									<enabled>TRUE</enabled>
									<locked>FALSE</locked>
								</track>
								<track TL.SQTrackShy="0" TL.SQTrackExpandedHeight="25" TL.SQTrackExpanded="0" MZ.TrackTargeted="0">
									<clipitem id="clipitem-251">
										<masterclipid>masterclip-113</masterclipid>
										<name>These Cookies Are My Jam</name>
										<enabled>TRUE</enabled>
										<duration>6293</duration>
										<rate>
											<timebase>30</timebase>
											<ntsc>TRUE</ntsc>
										</rate>
										<start>115</start>
										<end>2415</end>
										<in>30</in>
										<out>2330</out>
										<pproTicksIn>254270016000</pproTicksIn>
										<pproTicksOut>19748304576000</pproTicksOut>
										<alphatype>straight</alphatype>
										<pixelaspectratio>square</pixelaspectratio>
										<anamorphic>FALSE</anamorphic>
										<file id="file-97">
											<name>EYECANDY_L3RD_JL_V03/EYECANDY_L3rd_JL_V04.aep</name>
											<pathurl>file://localhost/Volumes/ATM%201/EYE%20CANDY/Project%20Template/5_Assets/Eye%20Candy%20Mograph/EYECANDY_L3rd_JL_V04%20folder/EYECANDY_L3rd_JL_V04.aep</pathurl>
											<rate>
												<timebase>30</timebase>
												<ntsc>FALSE</ntsc>
											</rate>
											<duration>6300</duration>
											<timecode>
												<rate>
													<timebase>30</timebase>
													<ntsc>FALSE</ntsc>
												</rate>
												<string>00:00:00:00</string>
												<frame>0</frame>
												<displayformat>NDF</displayformat>
											</timecode>
											<media>
												<video>
													<samplecharacteristics>
														<rate>
															<timebase>30</timebase>
															<ntsc>FALSE</ntsc>
														</rate>
														<width>1920</width>
														<height>1080</height>
														<anamorphic>FALSE</anamorphic>
														<pixelaspectratio>square</pixelaspectratio>
														<fielddominance>lower</fielddominance>
													</samplecharacteristics>
												</video>
											</media>
										</file>
										<logginginfo>
											<description></description>
											<scene></scene>
											<shottake></shottake>
											<lognote></lognote>
											<good></good>
											<originalvideofilename></originalvideofilename>
											<originalaudiofilename></originalaudiofilename>
										</logginginfo>
										<colorinfo>
											<lut></lut>
											<lut1></lut1>
											<asc_sop></asc_sop>
											<asc_sat></asc_sat>
											<lut2></lut2>
										</colorinfo>
									</clipitem>
									<clipitem id="clipitem-252">
										<masterclipid>masterclip-114</masterclipid>
										<name>Confectionary Casseroles</name>
										<enabled>TRUE</enabled>
										<duration>6293</duration>
										<rate>
											<timebase>30</timebase>
											<ntsc>TRUE</ntsc>
										</rate>
										<start>2514</start>
										<end>5047</end>
										<in>30</in>
										<out>2563</out>
										<pproTicksIn>254270016000</pproTicksIn>
										<pproTicksOut>21723135033600</pproTicksOut>
										<alphatype>straight</alphatype>
										<pixelaspectratio>square</pixelaspectratio>
										<anamorphic>FALSE</anamorphic>
										<file id="file-98">
											<name>EYECANDY_L3RD_JL_V03/EYECANDY_L3rd_JL_V04.aep</name>
											<pathurl>file://localhost/Volumes/ATM%201/EYE%20CANDY/Project%20Template/5_Assets/Eye%20Candy%20Mograph/EYECANDY_L3rd_JL_V04%20folder/EYECANDY_L3rd_JL_V04.aep</pathurl>
											<rate>
												<timebase>30</timebase>
												<ntsc>FALSE</ntsc>
											</rate>
											<duration>6300</duration>
											<timecode>
												<rate>
													<timebase>30</timebase>
													<ntsc>FALSE</ntsc>
												</rate>
												<string>00:00:00:00</string>
												<frame>0</frame>
												<displayformat>NDF</displayformat>
											</timecode>
											<media>
												<video>
													<samplecharacteristics>
														<rate>
															<timebase>30</timebase>
															<ntsc>FALSE</ntsc>
														</rate>
														<width>1920</width>
														<height>1080</height>
														<anamorphic>FALSE</anamorphic>
														<pixelaspectratio>square</pixelaspectratio>
														<fielddominance>lower</fielddominance>
													</samplecharacteristics>
												</video>
											</media>
										</file>
										<logginginfo>
											<description></description>
											<scene></scene>
											<shottake></shottake>
											<lognote></lognote>
											<good></good>
											<originalvideofilename></originalvideofilename>
											<originalaudiofilename></originalaudiofilename>
										</logginginfo>
										<colorinfo>
											<lut></lut>
											<lut1></lut1>
											<asc_sop></asc_sop>
											<asc_sat></asc_sat>
											<lut2></lut2>
										</colorinfo>
									</clipitem>
									<enabled>TRUE</enabled>
									<locked>FALSE</locked>
								</track>
								<track TL.SQTrackShy="0" TL.SQTrackExpandedHeight="25" TL.SQTrackExpanded="0" MZ.TrackTargeted="0">
									<clipitem id="clipitem-253">
										<masterclipid>masterclip-19</masterclipid>
										<name>Intro</name>
										<enabled>TRUE</enabled>
										<duration>160</duration>
										<rate>
											<timebase>30</timebase>
											<ntsc>TRUE</ntsc>
										</rate>
										<start>0</start>
										<end>115</end>
										<in>0</in>
										<out>115</out>
										<pproTicksIn>0</pproTicksIn>
										<pproTicksOut>974701728000</pproTicksOut>
										<sequence id="sequence-4"/>
											<marker>
												<comment></comment>
												<name></name>
												<in>82</in>
												<out>-1</out>
											</marker>
										<link>
											<linkclipref>clipitem-253</linkclipref>
											<mediatype>video</mediatype>
											<trackindex>4</trackindex>
											<clipindex>1</clipindex>
										</link>
										<link>
											<linkclipref>clipitem-261</linkclipref>
											<mediatype>audio</mediatype>
											<trackindex>3</trackindex>
											<clipindex>1</clipindex>
											<groupindex>1</groupindex>
										</link>
										<link>
											<linkclipref>clipitem-263</linkclipref>
											<mediatype>audio</mediatype>
											<trackindex>4</trackindex>
											<clipindex>1</clipindex>
											<groupindex>1</groupindex>
										</link>
										<labels>
											<label2>Forest</label2>
										</labels>
									</clipitem>
									<clipitem id="clipitem-254">
										<masterclipid>masterclip-21</masterclipid>
										<name>Transition 2</name>
										<enabled>TRUE</enabled>
										<duration>160</duration>
										<rate>
											<timebase>30</timebase>
											<ntsc>TRUE</ntsc>
										</rate>
										<start>2395</start>
										<end>2514</end>
										<in>0</in>
										<out>119</out>
										<pproTicksIn>0</pproTicksIn>
										<pproTicksOut>1008604396800</pproTicksOut>
										<sequence id="sequence-5"/>
											<marker>
												<comment></comment>
												<name></name>
												<in>54</in>
												<out>-1</out>
											</marker>
											<marker>
												<comment></comment>
												<name></name>
												<in>20</in>
												<out>-1</out>
											</marker>
										<link>
											<linkclipref>clipitem-254</linkclipref>
											<mediatype>video</mediatype>
											<trackindex>4</trackindex>
											<clipindex>2</clipindex>
										</link>
										<link>
											<linkclipref>clipitem-262</linkclipref>
											<mediatype>audio</mediatype>
											<trackindex>3</trackindex>
											<clipindex>2</clipindex>
											<groupindex>1</groupindex>
										</link>
										<link>
											<linkclipref>clipitem-264</linkclipref>
											<mediatype>audio</mediatype>
											<trackindex>4</trackindex>
											<clipindex>2</clipindex>
											<groupindex>1</groupindex>
										</link>
										<labels>
											<label2>Forest</label2>
										</labels>
									</clipitem>
									<enabled>TRUE</enabled>
									<locked>FALSE</locked>
								</track>
							</video>
							<audio>
								<numOutputChannels>2</numOutputChannels>
								<format>
									<samplecharacteristics>
										<depth>16</depth>
										<samplerate>48000</samplerate>
									</samplecharacteristics>
								</format>
								<outputs>
									<group>
										<index>1</index>
										<numchannels>1</numchannels>
										<downmix>0</downmix>
										<channel>
											<index>1</index>
										</channel>
									</group>
									<group>
										<index>2</index>
										<numchannels>1</numchannels>
										<downmix>0</downmix>
										<channel>
											<index>2</index>
										</channel>
									</group>
								</outputs>
								<track TL.SQTrackAudioKeyframeStyle="0" TL.SQTrackShy="0" TL.SQTrackExpandedHeight="25" TL.SQTrackExpanded="0" MZ.TrackTargeted="1" PannerCurrentValue="0.5" PannerIsInverted="true" PannerStartKeyframe="-91445760000000000,0.5,0,0,0,0,0,0" PannerName="Balance" currentExplodedTrackIndex="0" totalExplodedTrackCount="2" premiereTrackType="Stereo">
									<clipitem id="clipitem-255" premiereChannelType="stereo">
										<masterclipid>masterclip-88</masterclipid>
										<name>These Cookies Are My Jam_1.5</name>
										<enabled>TRUE</enabled>
										<duration>2751</duration>
										<rate>
											<timebase>30</timebase>
											<ntsc>TRUE</ntsc>
										</rate>
										<start>82</start>
										<end>-1</end>
										<in>0</in>
										<out>2333</out>
										<pproTicksIn>0</pproTicksIn>
										<pproTicksOut>19773731577600</pproTicksOut>
										<sequence id="sequence-19"/>
										<sourcetrack>
											<mediatype>audio</mediatype>
											<trackindex>0</trackindex>
										</sourcetrack>
										<link>
											<linkclipref>clipitem-220</linkclipref>
											<mediatype>video</mediatype>
											<trackindex>1</trackindex>
											<clipindex>1</clipindex>
										</link>
										<link>
											<linkclipref>clipitem-255</linkclipref>
											<mediatype>audio</mediatype>
											<trackindex>1</trackindex>
											<clipindex>1</clipindex>
											<groupindex>1</groupindex>
										</link>
										<link>
											<linkclipref>clipitem-258</linkclipref>
											<mediatype>audio</mediatype>
											<trackindex>2</trackindex>
											<clipindex>1</clipindex>
											<groupindex>1</groupindex>
										</link>
										<labels>
											<label2>Forest</label2>
										</labels>
									</clipitem>
									<transitionitem>
										<start>2385</start>
										<end>2415</end>
										<pproTicksIn>20214466272000</pproTicksIn>
										<pproTicksOut>20468736288000</pproTicksOut>
										<alignment>end-black</alignment>
										<cutPointTicks>254270016000</cutPointTicks>
										<rate>
											<timebase>30</timebase>
											<ntsc>TRUE</ntsc>
										</rate>
										<effect>
											<name>Cross Fade (+3dB)</name>
											<effectid>KGAudioTransCrossFade3dB</effectid>
											<effecttype>transition</effecttype>
											<mediatype>audio</mediatype>
											<wipecode>0</wipecode>
											<wipeaccuracy>100</wipeaccuracy>
											<startratio>0</startratio>
											<endratio>1</endratio>
											<reverse>FALSE</reverse>
										</effect>
									</transitionitem>
									<clipitem id="clipitem-256" premiereChannelType="stereo">
										<masterclipid>masterclip-103</masterclipid>
										<name>Confectionary Casseroles_1.5</name>
										<enabled>TRUE</enabled>
										<duration>5700</duration>
										<rate>
											<timebase>30</timebase>
											<ntsc>TRUE</ntsc>
										</rate>
										<start>2449</start>
										<end>-1</end>
										<in>0</in>
										<out>2598</out>
										<pproTicksIn>0</pproTicksIn>
										<pproTicksOut>22019783385600</pproTicksOut>
										<sequence id="sequence-20"/>
										<sourcetrack>
											<mediatype>audio</mediatype>
											<trackindex>0</trackindex>
										</sourcetrack>
										<link>
											<linkclipref>clipitem-236</linkclipref>
											<mediatype>video</mediatype>
											<trackindex>1</trackindex>
											<clipindex>2</clipindex>
										</link>
										<link>
											<linkclipref>clipitem-256</linkclipref>
											<mediatype>audio</mediatype>
											<trackindex>1</trackindex>
											<clipindex>3</clipindex>
											<groupindex>1</groupindex>
										</link>
										<link>
											<linkclipref>clipitem-259</linkclipref>
											<mediatype>audio</mediatype>
											<trackindex>2</trackindex>
											<clipindex>3</clipindex>
											<groupindex>1</groupindex>
										</link>
										<labels>
											<label2>Forest</label2>
										</labels>
									</clipitem>
									<transitionitem>
										<start>5017</start>
										<end>5047</end>
										<pproTicksIn>42522422342400</pproTicksIn>
										<pproTicksOut>42776692358400</pproTicksOut>
										<alignment>end-black</alignment>
										<cutPointTicks>254270016000</cutPointTicks>
										<rate>
											<timebase>30</timebase>
											<ntsc>TRUE</ntsc>
										</rate>
										<effect>
											<name>Cross Fade ( 0dB)</name>
											<effectid>KGAudioTransCrossFade0dB</effectid>
											<effecttype>transition</effecttype>
											<mediatype>audio</mediatype>
											<wipecode>0</wipecode>
											<wipeaccuracy>100</wipeaccuracy>
											<startratio>0</startratio>
											<endratio>1</endratio>
											<reverse>FALSE</reverse>
										</effect>
									</transitionitem>
									<clipitem id="clipitem-257" premiereChannelType="stereo">
										<masterclipid>masterclip-111</masterclipid>
										<name>Bumper 3</name>
										<enabled>TRUE</enabled>
										<duration>299</duration>
										<rate>
											<timebase>30</timebase>
											<ntsc>TRUE</ntsc>
										</rate>
										<start>5047</start>
										<end>5346</end>
										<in>0</in>
										<out>299</out>
										<pproTicksIn>0</pproTicksIn>
										<pproTicksOut>2534224492800</pproTicksOut>
										<sequence id="sequence-21"/>
										<sourcetrack>
											<mediatype>audio</mediatype>
											<trackindex>0</trackindex>
										</sourcetrack>
										<link>
											<linkclipref>clipitem-246</linkclipref>
											<mediatype>video</mediatype>
											<trackindex>1</trackindex>
											<clipindex>3</clipindex>
										</link>
										<link>
											<linkclipref>clipitem-257</linkclipref>
											<mediatype>audio</mediatype>
											<trackindex>1</trackindex>
											<clipindex>5</clipindex>
											<groupindex>1</groupindex>
										</link>
										<link>
											<linkclipref>clipitem-260</linkclipref>
											<mediatype>audio</mediatype>
											<trackindex>2</trackindex>
											<clipindex>5</clipindex>
											<groupindex>1</groupindex>
										</link>
										<labels>
											<label2>Forest</label2>
										</labels>
									</clipitem>
									<enabled>TRUE</enabled>
									<locked>FALSE</locked>
									<outputchannelindex>1</outputchannelindex>
								</track>
								<track TL.SQTrackAudioKeyframeStyle="0" TL.SQTrackShy="0" TL.SQTrackExpandedHeight="25" TL.SQTrackExpanded="0" MZ.TrackTargeted="1" PannerCurrentValue="0.5" PannerIsInverted="true" PannerStartKeyframe="-91445760000000000,0.5,0,0,0,0,0,0" PannerName="Balance" currentExplodedTrackIndex="1" totalExplodedTrackCount="2" premiereTrackType="Stereo">
									<clipitem id="clipitem-258" premiereChannelType="stereo">
										<masterclipid>masterclip-88</masterclipid>
										<name>These Cookies Are My Jam_1.5</name>
										<enabled>TRUE</enabled>
										<duration>2751</duration>
										<rate>
											<timebase>30</timebase>
											<ntsc>TRUE</ntsc>
										</rate>
										<start>82</start>
										<end>-1</end>
										<in>0</in>
										<out>2333</out>
										<pproTicksIn>0</pproTicksIn>
										<pproTicksOut>19773731577600</pproTicksOut>
										<sequence id="sequence-19"/>
										<sourcetrack>
											<mediatype>audio</mediatype>
											<trackindex>1</trackindex>
										</sourcetrack>
										<link>
											<linkclipref>clipitem-220</linkclipref>
											<mediatype>video</mediatype>
											<trackindex>1</trackindex>
											<clipindex>1</clipindex>
										</link>
										<link>
											<linkclipref>clipitem-255</linkclipref>
											<mediatype>audio</mediatype>
											<trackindex>1</trackindex>
											<clipindex>1</clipindex>
											<groupindex>1</groupindex>
										</link>
										<link>
											<linkclipref>clipitem-258</linkclipref>
											<mediatype>audio</mediatype>
											<trackindex>2</trackindex>
											<clipindex>1</clipindex>
											<groupindex>1</groupindex>
										</link>
										<labels>
											<label2>Forest</label2>
										</labels>
									</clipitem>
									<transitionitem>
										<start>2385</start>
										<end>2415</end>
										<pproTicksIn>20214466272000</pproTicksIn>
										<pproTicksOut>20468736288000</pproTicksOut>
										<alignment>end-black</alignment>
										<cutPointTicks>254270016000</cutPointTicks>
										<rate>
											<timebase>30</timebase>
											<ntsc>TRUE</ntsc>
										</rate>
										<effect>
											<name>Cross Fade (+3dB)</name>
											<effectid>KGAudioTransCrossFade3dB</effectid>
											<effecttype>transition</effecttype>
											<mediatype>audio</mediatype>
											<wipecode>0</wipecode>
											<wipeaccuracy>100</wipeaccuracy>
											<startratio>0</startratio>
											<endratio>1</endratio>
											<reverse>FALSE</reverse>
										</effect>
									</transitionitem>
									<clipitem id="clipitem-259" premiereChannelType="stereo">
										<masterclipid>masterclip-103</masterclipid>
										<name>Confectionary Casseroles_1.5</name>
										<enabled>TRUE</enabled>
										<duration>5700</duration>
										<rate>
											<timebase>30</timebase>
											<ntsc>TRUE</ntsc>
										</rate>
										<start>2449</start>
										<end>-1</end>
										<in>0</in>
										<out>2598</out>
										<pproTicksIn>0</pproTicksIn>
										<pproTicksOut>22019783385600</pproTicksOut>
										<sequence id="sequence-20"/>
										<sourcetrack>
											<mediatype>audio</mediatype>
											<trackindex>1</trackindex>
										</sourcetrack>
										<link>
											<linkclipref>clipitem-236</linkclipref>
											<mediatype>video</mediatype>
											<trackindex>1</trackindex>
											<clipindex>2</clipindex>
										</link>
										<link>
											<linkclipref>clipitem-256</linkclipref>
											<mediatype>audio</mediatype>
											<trackindex>1</trackindex>
											<clipindex>3</clipindex>
											<groupindex>1</groupindex>
										</link>
										<link>
											<linkclipref>clipitem-259</linkclipref>
											<mediatype>audio</mediatype>
											<trackindex>2</trackindex>
											<clipindex>3</clipindex>
											<groupindex>1</groupindex>
										</link>
										<labels>
											<label2>Forest</label2>
										</labels>
									</clipitem>
									<transitionitem>
										<start>5017</start>
										<end>5047</end>
										<pproTicksIn>42522422342400</pproTicksIn>
										<pproTicksOut>42776692358400</pproTicksOut>
										<alignment>end-black</alignment>
										<cutPointTicks>254270016000</cutPointTicks>
										<rate>
											<timebase>30</timebase>
											<ntsc>TRUE</ntsc>
										</rate>
										<effect>
											<name>Cross Fade ( 0dB)</name>
											<effectid>KGAudioTransCrossFade0dB</effectid>
											<effecttype>transition</effecttype>
											<mediatype>audio</mediatype>
											<wipecode>0</wipecode>
											<wipeaccuracy>100</wipeaccuracy>
											<startratio>0</startratio>
											<endratio>1</endratio>
											<reverse>FALSE</reverse>
										</effect>
									</transitionitem>
									<clipitem id="clipitem-260" premiereChannelType="stereo">
										<masterclipid>masterclip-111</masterclipid>
										<name>Bumper 3</name>
										<enabled>TRUE</enabled>
										<duration>299</duration>
										<rate>
											<timebase>30</timebase>
											<ntsc>TRUE</ntsc>
										</rate>
										<start>5047</start>
										<end>5346</end>
										<in>0</in>
										<out>299</out>
										<pproTicksIn>0</pproTicksIn>
										<pproTicksOut>2534224492800</pproTicksOut>
										<sequence id="sequence-21"/>
										<sourcetrack>
											<mediatype>audio</mediatype>
											<trackindex>1</trackindex>
										</sourcetrack>
										<link>
											<linkclipref>clipitem-246</linkclipref>
											<mediatype>video</mediatype>
											<trackindex>1</trackindex>
											<clipindex>3</clipindex>
										</link>
										<link>
											<linkclipref>clipitem-257</linkclipref>
											<mediatype>audio</mediatype>
											<trackindex>1</trackindex>
											<clipindex>5</clipindex>
											<groupindex>1</groupindex>
										</link>
										<link>
											<linkclipref>clipitem-260</linkclipref>
											<mediatype>audio</mediatype>
											<trackindex>2</trackindex>
											<clipindex>5</clipindex>
											<groupindex>1</groupindex>
										</link>
										<labels>
											<label2>Forest</label2>
										</labels>
									</clipitem>
									<enabled>TRUE</enabled>
									<locked>FALSE</locked>
									<outputchannelindex>2</outputchannelindex>
								</track>
								<track TL.SQTrackAudioKeyframeStyle="0" TL.SQTrackShy="0" TL.SQTrackExpandedHeight="25" TL.SQTrackExpanded="0" MZ.TrackTargeted="1" PannerCurrentValue="0.5" PannerIsInverted="true" PannerStartKeyframe="-91445760000000000,0.5,0,0,0,0,0,0" PannerName="Balance" currentExplodedTrackIndex="0" totalExplodedTrackCount="2" premiereTrackType="Stereo">
									<clipitem id="clipitem-261" premiereChannelType="stereo">
										<masterclipid>masterclip-19</masterclipid>
										<name>Intro</name>
										<enabled>TRUE</enabled>
										<duration>160</duration>
										<rate>
											<timebase>30</timebase>
											<ntsc>TRUE</ntsc>
										</rate>
										<start>0</start>
										<end>115</end>
										<in>0</in>
										<out>115</out>
										<pproTicksIn>0</pproTicksIn>
										<pproTicksOut>974701728000</pproTicksOut>
										<sequence id="sequence-4"/>
										<sourcetrack>
											<mediatype>audio</mediatype>
											<trackindex>0</trackindex>
										</sourcetrack>
											<marker>
												<comment></comment>
												<name></name>
												<in>82</in>
												<out>-1</out>
											</marker>
										<link>
											<linkclipref>clipitem-253</linkclipref>
											<mediatype>video</mediatype>
											<trackindex>4</trackindex>
											<clipindex>1</clipindex>
										</link>
										<link>
											<linkclipref>clipitem-261</linkclipref>
											<mediatype>audio</mediatype>
											<trackindex>3</trackindex>
											<clipindex>1</clipindex>
											<groupindex>1</groupindex>
										</link>
										<link>
											<linkclipref>clipitem-263</linkclipref>
											<mediatype>audio</mediatype>
											<trackindex>4</trackindex>
											<clipindex>1</clipindex>
											<groupindex>1</groupindex>
										</link>
										<labels>
											<label2>Forest</label2>
										</labels>
									</clipitem>
									<clipitem id="clipitem-262" premiereChannelType="stereo">
										<masterclipid>masterclip-21</masterclipid>
										<name>Transition 2</name>
										<enabled>TRUE</enabled>
										<duration>160</duration>
										<rate>
											<timebase>30</timebase>
											<ntsc>TRUE</ntsc>
										</rate>
										<start>2395</start>
										<end>2514</end>
										<in>0</in>
										<out>119</out>
										<pproTicksIn>0</pproTicksIn>
										<pproTicksOut>1008604396800</pproTicksOut>
										<sequence id="sequence-5"/>
										<sourcetrack>
											<mediatype>audio</mediatype>
											<trackindex>0</trackindex>
										</sourcetrack>
											<marker>
												<comment></comment>
												<name></name>
												<in>54</in>
												<out>-1</out>
											</marker>
											<marker>
												<comment></comment>
												<name></name>
												<in>20</in>
												<out>-1</out>
											</marker>
										<link>
											<linkclipref>clipitem-254</linkclipref>
											<mediatype>video</mediatype>
											<trackindex>4</trackindex>
											<clipindex>2</clipindex>
										</link>
										<link>
											<linkclipref>clipitem-262</linkclipref>
											<mediatype>audio</mediatype>
											<trackindex>3</trackindex>
											<clipindex>2</clipindex>
											<groupindex>1</groupindex>
										</link>
										<link>
											<linkclipref>clipitem-264</linkclipref>
											<mediatype>audio</mediatype>
											<trackindex>4</trackindex>
											<clipindex>2</clipindex>
											<groupindex>1</groupindex>
										</link>
										<labels>
											<label2>Forest</label2>
										</labels>
									</clipitem>
									<enabled>TRUE</enabled>
									<locked>FALSE</locked>
									<outputchannelindex>1</outputchannelindex>
								</track>
								<track TL.SQTrackAudioKeyframeStyle="0" TL.SQTrackShy="0" TL.SQTrackExpandedHeight="25" TL.SQTrackExpanded="0" MZ.TrackTargeted="1" PannerCurrentValue="0.5" PannerIsInverted="true" PannerStartKeyframe="-91445760000000000,0.5,0,0,0,0,0,0" PannerName="Balance" currentExplodedTrackIndex="1" totalExplodedTrackCount="2" premiereTrackType="Stereo">
									<clipitem id="clipitem-263" premiereChannelType="stereo">
										<masterclipid>masterclip-19</masterclipid>
										<name>Intro</name>
										<enabled>TRUE</enabled>
										<duration>160</duration>
										<rate>
											<timebase>30</timebase>
											<ntsc>TRUE</ntsc>
										</rate>
										<start>0</start>
										<end>115</end>
										<in>0</in>
										<out>115</out>
										<pproTicksIn>0</pproTicksIn>
										<pproTicksOut>974701728000</pproTicksOut>
										<sequence id="sequence-4"/>
										<sourcetrack>
											<mediatype>audio</mediatype>
											<trackindex>1</trackindex>
										</sourcetrack>
											<marker>
												<comment></comment>
												<name></name>
												<in>82</in>
												<out>-1</out>
											</marker>
										<link>
											<linkclipref>clipitem-253</linkclipref>
											<mediatype>video</mediatype>
											<trackindex>4</trackindex>
											<clipindex>1</clipindex>
										</link>
										<link>
											<linkclipref>clipitem-261</linkclipref>
											<mediatype>audio</mediatype>
											<trackindex>3</trackindex>
											<clipindex>1</clipindex>
											<groupindex>1</groupindex>
										</link>
										<link>
											<linkclipref>clipitem-263</linkclipref>
											<mediatype>audio</mediatype>
											<trackindex>4</trackindex>
											<clipindex>1</clipindex>
											<groupindex>1</groupindex>
										</link>
										<labels>
											<label2>Forest</label2>
										</labels>
									</clipitem>
									<clipitem id="clipitem-264" premiereChannelType="stereo">
										<masterclipid>masterclip-21</masterclipid>
										<name>Transition 2</name>
										<enabled>TRUE</enabled>
										<duration>160</duration>
										<rate>
											<timebase>30</timebase>
											<ntsc>TRUE</ntsc>
										</rate>
										<start>2395</start>
										<end>2514</end>
										<in>0</in>
										<out>119</out>
										<pproTicksIn>0</pproTicksIn>
										<pproTicksOut>1008604396800</pproTicksOut>
										<sequence id="sequence-5"/>
										<sourcetrack>
											<mediatype>audio</mediatype>
											<trackindex>1</trackindex>
										</sourcetrack>
											<marker>
												<comment></comment>
												<name></name>
												<in>54</in>
												<out>-1</out>
											</marker>
											<marker>
												<comment></comment>
												<name></name>
												<in>20</in>
												<out>-1</out>
											</marker>
										<link>
											<linkclipref>clipitem-254</linkclipref>
											<mediatype>video</mediatype>
											<trackindex>4</trackindex>
											<clipindex>2</clipindex>
										</link>
										<link>
											<linkclipref>clipitem-262</linkclipref>
											<mediatype>audio</mediatype>
											<trackindex>3</trackindex>
											<clipindex>2</clipindex>
											<groupindex>1</groupindex>
										</link>
										<link>
											<linkclipref>clipitem-264</linkclipref>
											<mediatype>audio</mediatype>
											<trackindex>4</trackindex>
											<clipindex>2</clipindex>
											<groupindex>1</groupindex>
										</link>
										<labels>
											<label2>Forest</label2>
										</labels>
									</clipitem>
									<enabled>TRUE</enabled>
									<locked>FALSE</locked>
									<outputchannelindex>2</outputchannelindex>
								</track>
								<track TL.SQTrackAudioKeyframeStyle="0" TL.SQTrackShy="0" TL.SQTrackExpandedHeight="25" TL.SQTrackExpanded="0" MZ.TrackTargeted="1" PannerCurrentValue="0.5" PannerIsInverted="true" PannerStartKeyframe="-91445760000000000,0.5,0,0,0,0,0,0" PannerName="Balance" currentExplodedTrackIndex="0" totalExplodedTrackCount="2" premiereTrackType="Stereo">
									<enabled>TRUE</enabled>
									<locked>FALSE</locked>
									<outputchannelindex>1</outputchannelindex>
								</track>
								<track TL.SQTrackAudioKeyframeStyle="0" TL.SQTrackShy="0" TL.SQTrackExpandedHeight="25" TL.SQTrackExpanded="0" MZ.TrackTargeted="1" PannerCurrentValue="0.5" PannerIsInverted="true" PannerStartKeyframe="-91445760000000000,0.5,0,0,0,0,0,0" PannerName="Balance" currentExplodedTrackIndex="1" totalExplodedTrackCount="2" premiereTrackType="Stereo">
									<enabled>TRUE</enabled>
									<locked>FALSE</locked>
									<outputchannelindex>2</outputchannelindex>
								</track>
							</audio>
						</media>
						<timecode>
							<rate>
								<timebase>30</timebase>
								<ntsc>TRUE</ntsc>
							</rate>
							<string>00;00;00;00</string>
							<frame>0</frame>
							<displayformat>DF</displayformat>
						</timecode>
						<labels>
							<label2>Forest</label2>
						</labels>
						<logginginfo>
							<description></description>
							<scene></scene>
							<shottake></shottake>
							<lognote></lognote>
							<good></good>
							<originalvideofilename></originalvideofilename>
							<originalaudiofilename></originalaudiofilename>
						</logginginfo>
					</sequence>
					<sequence id="sequence-22" TL.SQAudioVisibleBase="0" TL.SQVideoVisibleBase="0" TL.SQVisibleBaseTime="0" TL.SQAVDividerPosition="0.5" TL.SQHideShyTracks="0" TL.SQHeaderWidth="236" TL.SQDataTrackViewControlState="0" Monitor.ProgramZoomOut="46395802252800" Monitor.ProgramZoomIn="0" TL.SQTimePerPixel="0.23926430442613669" AM.TrackVScrollPosition="0" AM.TrackScrollPosition="0" MZ.EditLine="15501995308800" MZ.Sequence.PreviewFrameSizeHeight="1080" MZ.Sequence.PreviewFrameSizeWidth="1920" MZ.Sequence.AudioTimeDisplayFormat="200" MZ.Sequence.PreviewRenderingClassID="1061109567" MZ.Sequence.PreviewRenderingPresetCodec="1634755443" MZ.Sequence.PreviewRenderingPresetPath="EncoderPresets/SequencePreview/35d109db-457b-43c1-9452-9cb7be9f121c/QuickTime.epr" MZ.Sequence.PreviewUseMaxRenderQuality="false" MZ.Sequence.PreviewUseMaxBitDepth="false" MZ.Sequence.EditingModeGUID="35d109db-457b-43c1-9452-9cb7be9f121c" MZ.Sequence.VideoTimeDisplayFormat="102" MZ.WorkOutPoint="15239249625600" MZ.WorkInPoint="0" explodedTracks="true">
						<uuid>c31eeb1b-714a-4511-af75-9330fe193783</uuid>
						<duration>5379</duration>
						<rate>
							<timebase>30</timebase>
							<ntsc>TRUE</ntsc>
						</rate>
						<name>ATM_EYECANDY_244</name>
						<media>
							<video>
								<format>
									<samplecharacteristics>
										<rate>
											<timebase>30</timebase>
											<ntsc>TRUE</ntsc>
										</rate>
										<codec>
											<name>Apple ProRes 422</name>
											<appspecificdata>
												<appname>Final Cut Pro</appname>
												<appmanufacturer>Apple Inc.</appmanufacturer>
												<appversion>7.0</appversion>
												<data>
													<qtcodec>
														<codecname>Apple ProRes 422</codecname>
														<codectypename>Apple ProRes 422</codectypename>
														<codectypecode>apcn</codectypecode>
														<codecvendorcode>appl</codecvendorcode>
														<spatialquality>1024</spatialquality>
														<temporalquality>0</temporalquality>
														<keyframerate>0</keyframerate>
														<datarate>0</datarate>
													</qtcodec>
												</data>
											</appspecificdata>
										</codec>
										<width>1920</width>
										<height>1080</height>
										<anamorphic>FALSE</anamorphic>
										<pixelaspectratio>square</pixelaspectratio>
										<fielddominance>none</fielddominance>
										<colordepth>24</colordepth>
									</samplecharacteristics>
								</format>
								<track TL.SQTrackShy="0" TL.SQTrackExpandedHeight="25" TL.SQTrackExpanded="0" MZ.TrackTargeted="1">
									<clipitem id="clipitem-265">
										<masterclipid>masterclip-115</masterclipid>
										<name>Not Quite Ice Cream_2</name>
										<enabled>TRUE</enabled>
										<duration>5700</duration>
										<rate>
											<timebase>30</timebase>
											<ntsc>TRUE</ntsc>
										</rate>
										<start>82</start>
										<end>3532</end>
										<in>0</in>
										<out>3450</out>
										<pproTicksIn>0</pproTicksIn>
										<pproTicksOut>29241051840000</pproTicksOut>
										<sequence id="sequence-23" TL.SQAudioVisibleBase="0" TL.SQVideoVisibleBase="0" TL.SQVisibleBaseTime="0" TL.SQAVDividerPosition="0.5" TL.SQHideShyTracks="0" TL.SQHeaderWidth="236" TL.SQDataTrackViewControlState="0" Monitor.ProgramZoomOut="29241051840000" Monitor.ProgramZoomIn="0" TL.SQTimePerPixel="0.071182222222222216" AM.TrackVScrollPosition="0" AM.TrackScrollPosition="0" MZ.EditLine="0" MZ.Sequence.PreviewFrameSizeHeight="1080" MZ.Sequence.PreviewFrameSizeWidth="1920" MZ.Sequence.AudioTimeDisplayFormat="200" MZ.Sequence.PreviewRenderingClassID="1061109567" MZ.Sequence.PreviewRenderingPresetCodec="1634755443" MZ.Sequence.PreviewRenderingPresetPath="EncoderPresets/SequencePreview/35d109db-457b-43c1-9452-9cb7be9f121c/QuickTime.epr" MZ.Sequence.PreviewUseMaxRenderQuality="false" MZ.Sequence.PreviewUseMaxBitDepth="false" MZ.Sequence.EditingModeGUID="35d109db-457b-43c1-9452-9cb7be9f121c" MZ.Sequence.VideoTimeDisplayFormat="102" MZ.WorkOutPoint="29241051840000" MZ.WorkInPoint="0">
											<duration>3450</duration>
											<rate>
												<timebase>30</timebase>
												<ntsc>TRUE</ntsc>
											</rate>
											<name>FND_Not Quite Ice Cream_2</name>
											<media>
												<video>
													<format>
														<samplecharacteristics>
															<rate>
																<timebase>30</timebase>
																<ntsc>TRUE</ntsc>
															</rate>
															<codec>
																<name>Apple ProRes 422</name>
																<appspecificdata>
																	<appname>Final Cut Pro</appname>
																	<appmanufacturer>Apple Inc.</appmanufacturer>
																	<appversion>7.0</appversion>
																	<data>
																		<qtcodec>
																			<codecname>Apple ProRes 422</codecname>
																			<codectypename>Apple ProRes 422</codectypename>
																			<codectypecode>apcn</codectypecode>
																			<codecvendorcode>appl</codecvendorcode>
																			<spatialquality>1024</spatialquality>
																			<temporalquality>0</temporalquality>
																			<keyframerate>0</keyframerate>
																			<datarate>0</datarate>
																		</qtcodec>
																	</data>
																</appspecificdata>
															</codec>
															<width>1920</width>
															<height>1080</height>
															<anamorphic>FALSE</anamorphic>
															<pixelaspectratio>square</pixelaspectratio>
															<fielddominance>none</fielddominance>
															<colordepth>24</colordepth>
														</samplecharacteristics>
													</format>
													<track TL.SQTrackShy="0" TL.SQTrackExpandedHeight="25" TL.SQTrackExpanded="0" MZ.TrackTargeted="1">
														<clipitem id="clipitem-266">
															<masterclipid>masterclip-116</masterclipid>
															<name>(sweeterlayers)_7007192522430614790_TT.mp4</name>
															<enabled>TRUE</enabled>
															<duration>741</duration>
															<rate>
																<timebase>30</timebase>
																<ntsc>TRUE</ntsc>
															</rate>
															<start>0</start>
															<end>468</end>
															<in>0</in>
															<out>468</out>
															<pproTicksIn>0</pproTicksIn>
															<pproTicksOut>9916530624000</pproTicksOut>
															<alphatype>none</alphatype>
															<pixelaspectratio>square</pixelaspectratio>
															<anamorphic>FALSE</anamorphic>
															<file id="file-99">
																<name>(sweeterlayers)_7007192522430614790_TT.mp4</name>
																<pathurl>file://localhost/Volumes/ATM%201/EYE%20CANDY/8%3a14%3a23/3_Raw%20Files/not%20ice%20cream/(sweeterlayers)_7007192522430614790_TT.mp4</pathurl>
																<rate>
																	<timebase>60</timebase>
																	<ntsc>FALSE</ntsc>
																</rate>
																<duration>3711</duration>
																<timecode>
																	<rate>
																		<timebase>60</timebase>
																		<ntsc>FALSE</ntsc>
																	</rate>
																	<string>00:00:00:00</string>
																	<frame>0</frame>
																	<displayformat>NDF</displayformat>
																</timecode>
																<media>
																	<video>
																		<samplecharacteristics>
																			<rate>
																				<timebase>60</timebase>
																				<ntsc>FALSE</ntsc>
																			</rate>
																			<width>576</width>
																			<height>1024</height>
																			<anamorphic>FALSE</anamorphic>
																			<pixelaspectratio>square</pixelaspectratio>
																			<fielddominance>none</fielddominance>
																		</samplecharacteristics>
																	</video>
																	<audio>
																		<samplecharacteristics>
																			<depth>16</depth>
																			<samplerate>44100</samplerate>
																		</samplecharacteristics>
																		<channelcount>2</channelcount>
																	</audio>
																</media>
															</file>
															<filter>
																<effect>
																	<name>Basic Motion</name>
																	<effectid>basic</effectid>
																	<effectcategory>motion</effectcategory>
																	<effecttype>motion</effecttype>
																	<mediatype>video</mediatype>
																	<pproBypass>false</pproBypass>
																	<parameter authoringApp="PremierePro">
																		<parameterid>scale</parameterid>
																		<name>Scale</name>
																		<valuemin>0</valuemin>
																		<valuemax>1000</valuemax>
																		<value>106</value>
																	</parameter>
																	<parameter authoringApp="PremierePro">
																		<parameterid>rotation</parameterid>
																		<name>Rotation</name>
																		<valuemin>-8640</valuemin>
																		<valuemax>8640</valuemax>
																		<value>0</value>
																	</parameter>
																	<parameter authoringApp="PremierePro">
																		<parameterid>center</parameterid>
																		<name>Center</name>
																		<value>
																			<horiz>0</horiz>
																			<vert>0</vert>
																		</value>
																	</parameter>
																	<parameter authoringApp="PremierePro">
																		<parameterid>centerOffset</parameterid>
																		<name>Anchor Point</name>
																		<value>
																			<horiz>0</horiz>
																			<vert>0</vert>
																		</value>
																	</parameter>
																	<parameter authoringApp="PremierePro">
																		<parameterid>antiflicker</parameterid>
																		<name>Anti-flicker Filter</name>
																		<valuemin>0.0</valuemin>
																		<valuemax>1.0</valuemax>
																		<value>0</value>
																	</parameter>
																</effect>
															</filter>
															<filter>
																<effect>
																	<name>Time Remap</name>
																	<effectid>timeremap</effectid>
																	<effectcategory>motion</effectcategory>
																	<effecttype>motion</effecttype>
																	<mediatype>video</mediatype>
																	<parameter authoringApp="PremierePro">
																		<parameterid>variablespeed</parameterid>
																		<name>variablespeed</name>
																		<valuemin>0</valuemin>
																		<valuemax>1</valuemax>
																		<value>0</value>
																	</parameter>
																	<parameter authoringApp="PremierePro">
																		<parameterid>speed</parameterid>
																		<name>speed</name>
																		<valuemin>-100000</valuemin>
																		<valuemax>100000</valuemax>
																		<value>250</value>
																	</parameter>
																	<parameter authoringApp="PremierePro">
																		<parameterid>reverse</parameterid>
																		<name>reverse</name>
																		<value>FALSE</value>
																	</parameter>
																	<parameter authoringApp="PremierePro">
																		<parameterid>frameblending</parameterid>
																		<name>frameblending</name>
																		<value>FALSE</value>
																	</parameter>
																	<parameter authoringApp="PremierePro">
																		<parameterid>graphdict</parameterid>
																		<name>graphdict</name>
																		<valuemin>0</valuemin>
																		<valuemax>1852</valuemax>
																		<value>0</value>
																		<keyframe>
																			<when>0</when>
																			<value>0</value>
																			<speedvirtualkf>TRUE</speedvirtualkf>
																			<speedkfin>TRUE</speedkfin>
																		</keyframe>
																		<keyframe>
																			<when>468</when>
																			<value>1170</value>
																			<speedvirtualkf>TRUE</speedvirtualkf>
																			<speedkfout>TRUE</speedkfout>
																		</keyframe>
																		<keyframe>
																			<when>741</when>
																			<value>1852</value>
																			<speedvirtualkf>TRUE</speedvirtualkf>
																			<speedkfend>TRUE</speedkfend>
																		</keyframe>
																		<interpolation>
																			<name>FCPCurve</name>
																		</interpolation>
																	</parameter>
																</effect>
															</filter>
															<logginginfo>
																<description></description>
																<scene></scene>
																<shottake></shottake>
																<lognote></lognote>
																<good></good>
																<originalvideofilename></originalvideofilename>
																<originalaudiofilename></originalaudiofilename>
															</logginginfo>
															<colorinfo>
																<lut></lut>
																<lut1></lut1>
																<asc_sop></asc_sop>
																<asc_sat></asc_sat>
																<lut2></lut2>
															</colorinfo>
															<labels>
																<label2>Violet</label2>
															</labels>
														</clipitem>
														<clipitem id="clipitem-267">
															<masterclipid>masterclip-116</masterclipid>
															<name>(sweeterlayers)_7007192522430614790_TT.mp4</name>
															<enabled>TRUE</enabled>
															<duration>1853</duration>
															<rate>
																<timebase>30</timebase>
																<ntsc>TRUE</ntsc>
															</rate>
															<start>468</start>
															<end>539</end>
															<in>1645</in>
															<out>1716</out>
															<pproTicksIn>13942472544000</pproTicksIn>
															<pproTicksOut>14544244915200</pproTicksOut>
															<alphatype>none</alphatype>
															<file id="file-99"/>
															<filter>
																<effect>
																	<name>Basic Motion</name>
																	<effectid>basic</effectid>
																	<effectcategory>motion</effectcategory>
																	<effecttype>motion</effecttype>
																	<mediatype>video</mediatype>
																	<pproBypass>false</pproBypass>
																	<parameter authoringApp="PremierePro">
																		<parameterid>scale</parameterid>
																		<name>Scale</name>
																		<valuemin>0</valuemin>
																		<valuemax>1000</valuemax>
																		<value>106</value>
																	</parameter>
																	<parameter authoringApp="PremierePro">
																		<parameterid>rotation</parameterid>
																		<name>Rotation</name>
																		<valuemin>-8640</valuemin>
																		<valuemax>8640</valuemax>
																		<value>0</value>
																	</parameter>
																	<parameter authoringApp="PremierePro">
																		<parameterid>center</parameterid>
																		<name>Center</name>
																		<value>
																			<horiz>0</horiz>
																			<vert>0</vert>
																		</value>
																	</parameter>
																	<parameter authoringApp="PremierePro">
																		<parameterid>centerOffset</parameterid>
																		<name>Anchor Point</name>
																		<value>
																			<horiz>0</horiz>
																			<vert>0</vert>
																		</value>
																	</parameter>
																	<parameter authoringApp="PremierePro">
																		<parameterid>antiflicker</parameterid>
																		<name>Anti-flicker Filter</name>
																		<valuemin>0.0</valuemin>
																		<valuemax>1.0</valuemax>
																		<value>0</value>
																	</parameter>
																</effect>
															</filter>
															<logginginfo>
																<description></description>
																<scene></scene>
																<shottake></shottake>
																<lognote></lognote>
																<good></good>
																<originalvideofilename></originalvideofilename>
																<originalaudiofilename></originalaudiofilename>
															</logginginfo>
															<colorinfo>
																<lut></lut>
																<lut1></lut1>
																<asc_sop></asc_sop>
																<asc_sat></asc_sat>
																<lut2></lut2>
															</colorinfo>
															<labels>
																<label2>Violet</label2>
															</labels>
														</clipitem>
														<clipitem id="clipitem-268">
															<masterclipid>masterclip-116</masterclipid>
															<name>(sweeterlayers)_7007192522430614790_TT.mp4</name>
															<enabled>TRUE</enabled>
															<duration>1853</duration>
															<rate>
																<timebase>30</timebase>
																<ntsc>TRUE</ntsc>
															</rate>
															<start>539</start>
															<end>621</end>
															<in>1751</in>
															<out>1833</out>
															<pproTicksIn>14840893267200</pproTicksIn>
															<pproTicksOut>15535897977600</pproTicksOut>
															<alphatype>none</alphatype>
															<file id="file-99"/>
															<filter>
																<effect>
																	<name>Basic Motion</name>
																	<effectid>basic</effectid>
																	<effectcategory>motion</effectcategory>
																	<effecttype>motion</effecttype>
																	<mediatype>video</mediatype>
																	<pproBypass>false</pproBypass>
																	<parameter authoringApp="PremierePro">
																		<parameterid>scale</parameterid>
																		<name>Scale</name>
																		<valuemin>0</valuemin>
																		<valuemax>1000</valuemax>
																		<value>106</value>
																	</parameter>
																	<parameter authoringApp="PremierePro">
																		<parameterid>rotation</parameterid>
																		<name>Rotation</name>
																		<valuemin>-8640</valuemin>
																		<valuemax>8640</valuemax>
																		<value>0</value>
																	</parameter>
																	<parameter authoringApp="PremierePro">
																		<parameterid>center</parameterid>
																		<name>Center</name>
																		<value>
																			<horiz>0</horiz>
																			<vert>0</vert>
																		</value>
																	</parameter>
																	<parameter authoringApp="PremierePro">
																		<parameterid>centerOffset</parameterid>
																		<name>Anchor Point</name>
																		<value>
																			<horiz>0</horiz>
																			<vert>0</vert>
																		</value>
																	</parameter>
																	<parameter authoringApp="PremierePro">
																		<parameterid>antiflicker</parameterid>
																		<name>Anti-flicker Filter</name>
																		<valuemin>0.0</valuemin>
																		<valuemax>1.0</valuemax>
																		<value>0</value>
																	</parameter>
																</effect>
															</filter>
															<logginginfo>
																<description></description>
																<scene></scene>
																<shottake></shottake>
																<lognote></lognote>
																<good></good>
																<originalvideofilename></originalvideofilename>
																<originalaudiofilename></originalaudiofilename>
															</logginginfo>
															<colorinfo>
																<lut></lut>
																<lut1></lut1>
																<asc_sop></asc_sop>
																<asc_sat></asc_sat>
																<lut2></lut2>
															</colorinfo>
															<labels>
																<label2>Violet</label2>
															</labels>
														</clipitem>
														<clipitem id="clipitem-269">
															<masterclipid>masterclip-117</masterclipid>
															<name>(allthesugartx)_ChAK1pQlR1o_IG.mp4</name>
															<enabled>TRUE</enabled>
															<duration>482</duration>
															<rate>
																<timebase>30</timebase>
																<ntsc>TRUE</ntsc>
															</rate>
															<start>621</start>
															<end>1103</end>
															<in>0</in>
															<out>482</out>
															<pproTicksIn>0</pproTicksIn>
															<pproTicksOut>4085271590400</pproTicksOut>
															<alphatype>none</alphatype>
															<pixelaspectratio>square</pixelaspectratio>
															<anamorphic>FALSE</anamorphic>
															<file id="file-100">
																<name>(allthesugartx)_ChAK1pQlR1o_IG.mp4</name>
																<pathurl>file://localhost/Volumes/ATM%201/EYE%20CANDY/8%3a14%3a23/3_Raw%20Files/not%20ice%20cream/(allthesugartx)_ChAK1pQlR1o_IG.mp4</pathurl>
																<rate>
																	<timebase>30</timebase>
																	<ntsc>FALSE</ntsc>
																</rate>
																<duration>483</duration>
																<timecode>
																	<rate>
																		<timebase>30</timebase>
																		<ntsc>FALSE</ntsc>
																	</rate>
																	<string>00:00:00:00</string>
																	<frame>0</frame>
																	<displayformat>NDF</displayformat>
																</timecode>
																<media>
																	<video>
																		<samplecharacteristics>
																			<rate>
																				<timebase>30</timebase>
																				<ntsc>FALSE</ntsc>
																			</rate>
																			<width>720</width>
																			<height>1280</height>
																			<anamorphic>FALSE</anamorphic>
																			<pixelaspectratio>square</pixelaspectratio>
																			<fielddominance>none</fielddominance>
																		</samplecharacteristics>
																	</video>
																	<audio>
																		<samplecharacteristics>
																			<depth>16</depth>
																			<samplerate>44100</samplerate>
																		</samplecharacteristics>
																		<channelcount>2</channelcount>
																	</audio>
																</media>
															</file>
															<logginginfo>
																<description></description>
																<scene></scene>
																<shottake></shottake>
																<lognote></lognote>
																<good></good>
																<originalvideofilename></originalvideofilename>
																<originalaudiofilename></originalaudiofilename>
															</logginginfo>
															<colorinfo>
																<lut></lut>
																<lut1></lut1>
																<asc_sop></asc_sop>
																<asc_sat></asc_sat>
																<lut2></lut2>
															</colorinfo>
															<labels>
																<label2>Caribbean</label2>
															</labels>
														</clipitem>
														<clipitem id="clipitem-270">
															<masterclipid>masterclip-118</masterclipid>
															<name>(thesweetimpact)_CSHmlPGgov2_IG.mp4</name>
															<enabled>TRUE</enabled>
															<duration>1786</duration>
															<rate>
																<timebase>30</timebase>
																<ntsc>TRUE</ntsc>
															</rate>
															<start>1103</start>
															<end>1169</end>
															<in>236</in>
															<out>302</out>
															<pproTicksIn>2000257459200</pproTicksIn>
															<pproTicksOut>2559651494400</pproTicksOut>
															<alphatype>none</alphatype>
															<pixelaspectratio>square</pixelaspectratio>
															<anamorphic>FALSE</anamorphic>
															<file id="file-101">
																<name>(thesweetimpact)_CSHmlPGgov2_IG.mp4</name>
																<pathurl>file://localhost/Volumes/ATM%201/EYE%20CANDY/8%3a14%3a23/3_Raw%20Files/not%20ice%20cream/(thesweetimpact)_CSHmlPGgov2_IG.mp4</pathurl>
																<rate>
																	<timebase>30</timebase>
																	<ntsc>FALSE</ntsc>
																</rate>
																<duration>1788</duration>
																<timecode>
																	<rate>
																		<timebase>30</timebase>
																		<ntsc>FALSE</ntsc>
																	</rate>
																	<string>00:00:00:00</string>
																	<frame>0</frame>
																	<displayformat>NDF</displayformat>
																</timecode>
																<media>
																	<video>
																		<samplecharacteristics>
																			<rate>
																				<timebase>30</timebase>
																				<ntsc>FALSE</ntsc>
																			</rate>
																			<width>720</width>
																			<height>1280</height>
																			<anamorphic>FALSE</anamorphic>
																			<pixelaspectratio>square</pixelaspectratio>
																			<fielddominance>none</fielddominance>
																		</samplecharacteristics>
																	</video>
																	<audio>
																		<samplecharacteristics>
																			<depth>16</depth>
																			<samplerate>44100</samplerate>
																		</samplecharacteristics>
																		<channelcount>2</channelcount>
																	</audio>
																</media>
															</file>
															<logginginfo>
																<description></description>
																<scene></scene>
																<shottake></shottake>
																<lognote></lognote>
																<good></good>
																<originalvideofilename></originalvideofilename>
																<originalaudiofilename></originalaudiofilename>
															</logginginfo>
															<colorinfo>
																<lut></lut>
																<lut1></lut1>
																<asc_sop></asc_sop>
																<asc_sat></asc_sat>
																<lut2></lut2>
															</colorinfo>
														</clipitem>
														<clipitem id="clipitem-271">
															<masterclipid>masterclip-118</masterclipid>
															<name>(thesweetimpact)_CSHmlPGgov2_IG.mp4</name>
															<enabled>TRUE</enabled>
															<duration>1786</duration>
															<rate>
																<timebase>30</timebase>
																<ntsc>TRUE</ntsc>
															</rate>
															<start>1169</start>
															<end>1191</end>
															<in>550</in>
															<out>572</out>
															<pproTicksIn>4661616960000</pproTicksIn>
															<pproTicksOut>4848081638400</pproTicksOut>
															<alphatype>none</alphatype>
															<file id="file-101"/>
															<logginginfo>
																<description></description>
																<scene></scene>
																<shottake></shottake>
																<lognote></lognote>
																<good></good>
																<originalvideofilename></originalvideofilename>
																<originalaudiofilename></originalaudiofilename>
															</logginginfo>
															<colorinfo>
																<lut></lut>
																<lut1></lut1>
																<asc_sop></asc_sop>
																<asc_sat></asc_sat>
																<lut2></lut2>
															</colorinfo>
														</clipitem>
														<clipitem id="clipitem-272">
															<masterclipid>masterclip-118</masterclipid>
															<name>(thesweetimpact)_CSHmlPGgov2_IG.mp4</name>
															<enabled>TRUE</enabled>
															<duration>1786</duration>
															<rate>
																<timebase>30</timebase>
																<ntsc>TRUE</ntsc>
															</rate>
															<start>1191</start>
															<end>1219</end>
															<in>624</in>
															<out>652</out>
															<pproTicksIn>5288816332800</pproTicksIn>
															<pproTicksOut>5526135014400</pproTicksOut>
															<alphatype>none</alphatype>
															<file id="file-101"/>
															<logginginfo>
																<description></description>
																<scene></scene>
																<shottake></shottake>
																<lognote></lognote>
																<good></good>
																<originalvideofilename></originalvideofilename>
																<originalaudiofilename></originalaudiofilename>
															</logginginfo>
															<colorinfo>
																<lut></lut>
																<lut1></lut1>
																<asc_sop></asc_sop>
																<asc_sat></asc_sat>
																<lut2></lut2>
															</colorinfo>
														</clipitem>
														<clipitem id="clipitem-273">
															<masterclipid>masterclip-118</masterclipid>
															<name>(thesweetimpact)_CSHmlPGgov2_IG.mp4</name>
															<enabled>TRUE</enabled>
															<duration>1786</duration>
															<rate>
																<timebase>30</timebase>
																<ntsc>TRUE</ntsc>
															</rate>
															<start>1219</start>
															<end>1247</end>
															<in>729</in>
															<out>757</out>
															<pproTicksIn>6178761388800</pproTicksIn>
															<pproTicksOut>6416080070400</pproTicksOut>
															<alphatype>none</alphatype>
															<file id="file-101"/>
															<logginginfo>
																<description></description>
																<scene></scene>
																<shottake></shottake>
																<lognote></lognote>
																<good></good>
																<originalvideofilename></originalvideofilename>
																<originalaudiofilename></originalaudiofilename>
															</logginginfo>
															<colorinfo>
																<lut></lut>
																<lut1></lut1>
																<asc_sop></asc_sop>
																<asc_sat></asc_sat>
																<lut2></lut2>
															</colorinfo>
														</clipitem>
														<clipitem id="clipitem-274">
															<masterclipid>masterclip-118</masterclipid>
															<name>(thesweetimpact)_CSHmlPGgov2_IG.mp4</name>
															<enabled>TRUE</enabled>
															<duration>1786</duration>
															<rate>
																<timebase>30</timebase>
																<ntsc>TRUE</ntsc>
															</rate>
															<start>1247</start>
															<end>1317</end>
															<in>864</in>
															<out>934</out>
															<pproTicksIn>7322976460800</pproTicksIn>
															<pproTicksOut>7916273164800</pproTicksOut>
															<alphatype>none</alphatype>
															<file id="file-101"/>
															<logginginfo>
																<description></description>
																<scene></scene>
																<shottake></shottake>
																<lognote></lognote>
																<good></good>
																<originalvideofilename></originalvideofilename>
																<originalaudiofilename></originalaudiofilename>
															</logginginfo>
															<colorinfo>
																<lut></lut>
																<lut1></lut1>
																<asc_sop></asc_sop>
																<asc_sat></asc_sat>
																<lut2></lut2>
															</colorinfo>
														</clipitem>
														<clipitem id="clipitem-275">
															<masterclipid>masterclip-118</masterclipid>
															<name>(thesweetimpact)_CSHmlPGgov2_IG.mp4</name>
															<enabled>TRUE</enabled>
															<duration>1786</duration>
															<rate>
																<timebase>30</timebase>
																<ntsc>TRUE</ntsc>
															</rate>
															<start>1317</start>
															<end>1437</end>
															<in>947</in>
															<out>1067</out>
															<pproTicksIn>8026456838400</pproTicksIn>
															<pproTicksOut>9043536902400</pproTicksOut>
															<alphatype>none</alphatype>
															<file id="file-101"/>
															<logginginfo>
																<description></description>
																<scene></scene>
																<shottake></shottake>
																<lognote></lognote>
																<good></good>
																<originalvideofilename></originalvideofilename>
																<originalaudiofilename></originalaudiofilename>
															</logginginfo>
															<colorinfo>
																<lut></lut>
																<lut1></lut1>
																<asc_sop></asc_sop>
																<asc_sat></asc_sat>
																<lut2></lut2>
															</colorinfo>
														</clipitem>
														<clipitem id="clipitem-276">
															<masterclipid>masterclip-118</masterclipid>
															<name>(thesweetimpact)_CSHmlPGgov2_IG.mp4</name>
															<enabled>TRUE</enabled>
															<duration>1786</duration>
															<rate>
																<timebase>30</timebase>
																<ntsc>TRUE</ntsc>
															</rate>
															<start>1437</start>
															<end>1485</end>
															<in>1116</in>
															<out>1164</out>
															<pproTicksIn>9458844595200</pproTicksIn>
															<pproTicksOut>9865676620800</pproTicksOut>
															<alphatype>none</alphatype>
															<file id="file-101"/>
															<logginginfo>
																<description></description>
																<scene></scene>
																<shottake></shottake>
																<lognote></lognote>
																<good></good>
																<originalvideofilename></originalvideofilename>
																<originalaudiofilename></originalaudiofilename>
															</logginginfo>
															<colorinfo>
																<lut></lut>
																<lut1></lut1>
																<asc_sop></asc_sop>
																<asc_sat></asc_sat>
																<lut2></lut2>
															</colorinfo>
														</clipitem>
														<clipitem id="clipitem-277">
															<masterclipid>masterclip-118</masterclipid>
															<name>(thesweetimpact)_CSHmlPGgov2_IG.mp4</name>
															<enabled>TRUE</enabled>
															<duration>1786</duration>
															<rate>
																<timebase>30</timebase>
																<ntsc>TRUE</ntsc>
															</rate>
															<start>1485</start>
															<end>1528</end>
															<in>1206</in>
															<out>1249</out>
															<pproTicksIn>10221654643200</pproTicksIn>
															<pproTicksOut>10586108332800</pproTicksOut>
															<alphatype>none</alphatype>
															<file id="file-101"/>
															<logginginfo>
																<description></description>
																<scene></scene>
																<shottake></shottake>
																<lognote></lognote>
																<good></good>
																<originalvideofilename></originalvideofilename>
																<originalaudiofilename></originalaudiofilename>
															</logginginfo>
															<colorinfo>
																<lut></lut>
																<lut1></lut1>
																<asc_sop></asc_sop>
																<asc_sat></asc_sat>
																<lut2></lut2>
															</colorinfo>
														</clipitem>
														<clipitem id="clipitem-278">
															<masterclipid>masterclip-118</masterclipid>
															<name>(thesweetimpact)_CSHmlPGgov2_IG.mp4</name>
															<enabled>TRUE</enabled>
															<duration>1786</duration>
															<rate>
																<timebase>30</timebase>
																<ntsc>TRUE</ntsc>
															</rate>
															<start>1528</start>
															<end>1601</end>
															<in>1288</in>
															<out>1361</out>
															<pproTicksIn>10916659353600</pproTicksIn>
															<pproTicksOut>11535383059200</pproTicksOut>
															<alphatype>none</alphatype>
															<file id="file-101"/>
															<logginginfo>
																<description></description>
																<scene></scene>
																<shottake></shottake>
																<lognote></lognote>
																<good></good>
																<originalvideofilename></originalvideofilename>
																<originalaudiofilename></originalaudiofilename>
															</logginginfo>
															<colorinfo>
																<lut></lut>
																<lut1></lut1>
																<asc_sop></asc_sop>
																<asc_sat></asc_sat>
																<lut2></lut2>
															</colorinfo>
														</clipitem>
														<clipitem id="clipitem-279">
															<masterclipid>masterclip-118</masterclipid>
															<name>(thesweetimpact)_CSHmlPGgov2_IG.mp4</name>
															<enabled>TRUE</enabled>
															<duration>1786</duration>
															<rate>
																<timebase>30</timebase>
																<ntsc>TRUE</ntsc>
															</rate>
															<start>1601</start>
															<end>1625</end>
															<in>1423</in>
															<out>1447</out>
															<pproTicksIn>12060874425600</pproTicksIn>
															<pproTicksOut>12264290438400</pproTicksOut>
															<alphatype>none</alphatype>
															<file id="file-101"/>
															<logginginfo>
																<description></description>
																<scene></scene>
																<shottake></shottake>
																<lognote></lognote>
																<good></good>
																<originalvideofilename></originalvideofilename>
																<originalaudiofilename></originalaudiofilename>
															</logginginfo>
															<colorinfo>
																<lut></lut>
																<lut1></lut1>
																<asc_sop></asc_sop>
																<asc_sat></asc_sat>
																<lut2></lut2>
															</colorinfo>
														</clipitem>
														<clipitem id="clipitem-280">
															<masterclipid>masterclip-118</masterclipid>
															<name>(thesweetimpact)_CSHmlPGgov2_IG.mp4</name>
															<enabled>TRUE</enabled>
															<duration>1786</duration>
															<rate>
																<timebase>30</timebase>
																<ntsc>TRUE</ntsc>
															</rate>
															<start>1625</start>
															<end>1665</end>
															<in>1518</in>
															<out>1558</out>
															<pproTicksIn>12866062809600</pproTicksIn>
															<pproTicksOut>13205089497600</pproTicksOut>
															<alphatype>none</alphatype>
															<file id="file-101"/>
															<logginginfo>
																<description></description>
																<scene></scene>
																<shottake></shottake>
																<lognote></lognote>
																<good></good>
																<originalvideofilename></originalvideofilename>
																<originalaudiofilename></originalaudiofilename>
															</logginginfo>
															<colorinfo>
																<lut></lut>
																<lut1></lut1>
																<asc_sop></asc_sop>
																<asc_sat></asc_sat>
																<lut2></lut2>
															</colorinfo>
														</clipitem>
														<clipitem id="clipitem-281">
															<masterclipid>masterclip-118</masterclipid>
															<name>(thesweetimpact)_CSHmlPGgov2_IG.mp4</name>
															<enabled>TRUE</enabled>
															<duration>1786</duration>
															<rate>
																<timebase>30</timebase>
																<ntsc>TRUE</ntsc>
															</rate>
															<start>1665</start>
															<end>1714</end>
															<in>1667</in>
															<out>1716</out>
															<pproTicksIn>14128937222400</pproTicksIn>
															<pproTicksOut>14544244915200</pproTicksOut>
															<alphatype>none</alphatype>
															<file id="file-101"/>
															<logginginfo>
																<description></description>
																<scene></scene>
																<shottake></shottake>
																<lognote></lognote>
																<good></good>
																<originalvideofilename></originalvideofilename>
																<originalaudiofilename></originalaudiofilename>
															</logginginfo>
															<colorinfo>
																<lut></lut>
																<lut1></lut1>
																<asc_sop></asc_sop>
																<asc_sat></asc_sat>
																<lut2></lut2>
															</colorinfo>
														</clipitem>
														<clipitem id="clipitem-282">
															<masterclipid>masterclip-118</masterclipid>
															<name>(thesweetimpact)_CSHmlPGgov2_IG.mp4</name>
															<enabled>TRUE</enabled>
															<duration>1786</duration>
															<rate>
																<timebase>30</timebase>
																<ntsc>TRUE</ntsc>
															</rate>
															<start>1714</start>
															<end>1761</end>
															<in>0</in>
															<out>47</out>
															<pproTicksIn>0</pproTicksIn>
															<pproTicksOut>398356358400</pproTicksOut>
															<alphatype>none</alphatype>
															<file id="file-101"/>
															<logginginfo>
																<description></description>
																<scene></scene>
																<shottake></shottake>
																<lognote></lognote>
																<good></good>
																<originalvideofilename></originalvideofilename>
																<originalaudiofilename></originalaudiofilename>
															</logginginfo>
															<colorinfo>
																<lut></lut>
																<lut1></lut1>
																<asc_sop></asc_sop>
																<asc_sat></asc_sat>
																<lut2></lut2>
															</colorinfo>
														</clipitem>
														<clipitem id="clipitem-283">
															<masterclipid>masterclip-119</masterclipid>
															<name>(thesugarhobby)_CeybcMPAnpo_IG.mp4</name>
															<enabled>TRUE</enabled>
															<duration>881</duration>
															<rate>
																<timebase>30</timebase>
																<ntsc>TRUE</ntsc>
															</rate>
															<start>1761</start>
															<end>1983</end>
															<in>69</in>
															<out>291</out>
															<pproTicksIn>584821036800</pproTicksIn>
															<pproTicksOut>2466419155200</pproTicksOut>
															<alphatype>none</alphatype>
															<pixelaspectratio>square</pixelaspectratio>
															<anamorphic>FALSE</anamorphic>
															<file id="file-102">
																<name>(thesugarhobby)_CeybcMPAnpo_IG.mp4</name>
																<pathurl>file://localhost/Volumes/ATM%201/EYE%20CANDY/8%3a14%3a23/3_Raw%20Files/not%20ice%20cream/(thesugarhobby)_CeybcMPAnpo_IG.mp4</pathurl>
																<rate>
																	<timebase>30</timebase>
																	<ntsc>FALSE</ntsc>
																</rate>
																<duration>882</duration>
																<timecode>
																	<rate>
																		<timebase>30</timebase>
																		<ntsc>FALSE</ntsc>
																	</rate>
																	<string>00:00:00:00</string>
																	<frame>0</frame>
																	<displayformat>NDF</displayformat>
																</timecode>
																<media>
																	<video>
																		<samplecharacteristics>
																			<rate>
																				<timebase>30</timebase>
																				<ntsc>FALSE</ntsc>
																			</rate>
																			<width>720</width>
																			<height>1280</height>
																			<anamorphic>FALSE</anamorphic>
																			<pixelaspectratio>square</pixelaspectratio>
																			<fielddominance>none</fielddominance>
																		</samplecharacteristics>
																	</video>
																	<audio>
																		<samplecharacteristics>
																			<depth>16</depth>
																			<samplerate>44100</samplerate>
																		</samplecharacteristics>
																		<channelcount>2</channelcount>
																	</audio>
																</media>
															</file>
															<logginginfo>
																<description></description>
																<scene></scene>
																<shottake></shottake>
																<lognote></lognote>
																<good></good>
																<originalvideofilename></originalvideofilename>
																<originalaudiofilename></originalaudiofilename>
															</logginginfo>
															<colorinfo>
																<lut></lut>
																<lut1></lut1>
																<asc_sop></asc_sop>
																<asc_sat></asc_sat>
																<lut2></lut2>
															</colorinfo>
															<labels>
																<label2>Lavender</label2>
															</labels>
														</clipitem>
														<clipitem id="clipitem-284">
															<masterclipid>masterclip-119</masterclipid>
															<name>(thesugarhobby)_CeybcMPAnpo_IG.mp4</name>
															<enabled>TRUE</enabled>
															<duration>881</duration>
															<rate>
																<timebase>30</timebase>
																<ntsc>TRUE</ntsc>
															</rate>
															<start>1983</start>
															<end>2400</end>
															<in>346</in>
															<out>763</out>
															<pproTicksIn>2932580851200</pproTicksIn>
															<pproTicksOut>6466934073600</pproTicksOut>
															<alphatype>none</alphatype>
															<file id="file-102"/>
															<logginginfo>
																<description></description>
																<scene></scene>
																<shottake></shottake>
																<lognote></lognote>
																<good></good>
																<originalvideofilename></originalvideofilename>
																<originalaudiofilename></originalaudiofilename>
															</logginginfo>
															<colorinfo>
																<lut></lut>
																<lut1></lut1>
																<asc_sop></asc_sop>
																<asc_sat></asc_sat>
																<lut2></lut2>
															</colorinfo>
															<labels>
																<label2>Lavender</label2>
															</labels>
														</clipitem>
														<clipitem id="clipitem-285">
															<masterclipid>masterclip-120</masterclipid>
															<name>(allyoucansweet)_6874699336299678982_TT.mp4</name>
															<enabled>TRUE</enabled>
															<duration>1742</duration>
															<rate>
																<timebase>30</timebase>
																<ntsc>TRUE</ntsc>
															</rate>
															<start>2400</start>
															<end>2541</end>
															<in>460</in>
															<out>601</out>
															<pproTicksIn>3898806912000</pproTicksIn>
															<pproTicksOut>5093875987200</pproTicksOut>
															<alphatype>none</alphatype>
															<pixelaspectratio>square</pixelaspectratio>
															<anamorphic>FALSE</anamorphic>
															<file id="file-103">
																<name>(allyoucansweet)_6874699336299678982_TT.mp4</name>
																<pathurl>file://localhost/Volumes/ATM%201/EYE%20CANDY/8%3a14%3a23/3_Raw%20Files/not%20ice%20cream/(allyoucansweet)_6874699336299678982_TT.mp4</pathurl>
																<rate>
																	<timebase>30</timebase>
																	<ntsc>FALSE</ntsc>
																</rate>
																<duration>1744</duration>
																<timecode>
																	<rate>
																		<timebase>30</timebase>
																		<ntsc>FALSE</ntsc>
																	</rate>
																	<string>00:00:00:00</string>
																	<frame>0</frame>
																	<displayformat>NDF</displayformat>
																</timecode>
																<media>
																	<video>
																		<samplecharacteristics>
																			<rate>
																				<timebase>30</timebase>
																				<ntsc>FALSE</ntsc>
																			</rate>
																			<width>576</width>
																			<height>1024</height>
																			<anamorphic>FALSE</anamorphic>
																			<pixelaspectratio>square</pixelaspectratio>
																			<fielddominance>none</fielddominance>
																		</samplecharacteristics>
																	</video>
																	<audio>
																		<samplecharacteristics>
																			<depth>16</depth>
																			<samplerate>44100</samplerate>
																		</samplecharacteristics>
																		<channelcount>2</channelcount>
																	</audio>
																</media>
															</file>
															<filter>
																<effect>
																	<name>Basic Motion</name>
																	<effectid>basic</effectid>
																	<effectcategory>motion</effectcategory>
																	<effecttype>motion</effecttype>
																	<mediatype>video</mediatype>
																	<pproBypass>false</pproBypass>
																	<parameter authoringApp="PremierePro">
																		<parameterid>scale</parameterid>
																		<name>Scale</name>
																		<valuemin>0</valuemin>
																		<valuemax>1000</valuemax>
																		<value>109</value>
																	</parameter>
																	<parameter authoringApp="PremierePro">
																		<parameterid>rotation</parameterid>
																		<name>Rotation</name>
																		<valuemin>-8640</valuemin>
																		<valuemax>8640</valuemax>
																		<value>0</value>
																	</parameter>
																	<parameter authoringApp="PremierePro">
																		<parameterid>center</parameterid>
																		<name>Center</name>
																		<value>
																			<horiz>0</horiz>
																			<vert>0</vert>
																		</value>
																	</parameter>
																	<parameter authoringApp="PremierePro">
																		<parameterid>centerOffset</parameterid>
																		<name>Anchor Point</name>
																		<value>
																			<horiz>0</horiz>
																			<vert>0</vert>
																		</value>
																	</parameter>
																	<parameter authoringApp="PremierePro">
																		<parameterid>antiflicker</parameterid>
																		<name>Anti-flicker Filter</name>
																		<valuemin>0.0</valuemin>
																		<valuemax>1.0</valuemax>
																		<value>0</value>
																	</parameter>
																</effect>
															</filter>
															<logginginfo>
																<description></description>
																<scene></scene>
																<shottake></shottake>
																<lognote></lognote>
																<good></good>
																<originalvideofilename></originalvideofilename>
																<originalaudiofilename></originalaudiofilename>
															</logginginfo>
															<colorinfo>
																<lut></lut>
																<lut1></lut1>
																<asc_sop></asc_sop>
																<asc_sat></asc_sat>
																<lut2></lut2>
															</colorinfo>
															<labels>
																<label2>Cerulean</label2>
															</labels>
														</clipitem>
														<clipitem id="clipitem-286">
															<masterclipid>masterclip-120</masterclipid>
															<name>(allyoucansweet)_6874699336299678982_TT.mp4</name>
															<enabled>TRUE</enabled>
															<duration>1742</duration>
															<rate>
																<timebase>30</timebase>
																<ntsc>TRUE</ntsc>
															</rate>
															<start>2541</start>
															<end>2671</end>
															<in>800</in>
															<out>930</out>
															<pproTicksIn>6780533760000</pproTicksIn>
															<pproTicksOut>7882370496000</pproTicksOut>
															<alphatype>none</alphatype>
															<file id="file-103"/>
															<filter>
																<effect>
																	<name>Basic Motion</name>
																	<effectid>basic</effectid>
																	<effectcategory>motion</effectcategory>
																	<effecttype>motion</effecttype>
																	<mediatype>video</mediatype>
																	<pproBypass>false</pproBypass>
																	<parameter authoringApp="PremierePro">
																		<parameterid>scale</parameterid>
																		<name>Scale</name>
																		<valuemin>0</valuemin>
																		<valuemax>1000</valuemax>
																		<value>109</value>
																	</parameter>
																	<parameter authoringApp="PremierePro">
																		<parameterid>rotation</parameterid>
																		<name>Rotation</name>
																		<valuemin>-8640</valuemin>
																		<valuemax>8640</valuemax>
																		<value>0</value>
																	</parameter>
																	<parameter authoringApp="PremierePro">
																		<parameterid>center</parameterid>
																		<name>Center</name>
																		<value>
																			<horiz>0</horiz>
																			<vert>0</vert>
																		</value>
																	</parameter>
																	<parameter authoringApp="PremierePro">
																		<parameterid>centerOffset</parameterid>
																		<name>Anchor Point</name>
																		<value>
																			<horiz>0</horiz>
																			<vert>0</vert>
																		</value>
																	</parameter>
																	<parameter authoringApp="PremierePro">
																		<parameterid>antiflicker</parameterid>
																		<name>Anti-flicker Filter</name>
																		<valuemin>0.0</valuemin>
																		<valuemax>1.0</valuemax>
																		<value>0</value>
																	</parameter>
																</effect>
															</filter>
															<logginginfo>
																<description></description>
																<scene></scene>
																<shottake></shottake>
																<lognote></lognote>
																<good></good>
																<originalvideofilename></originalvideofilename>
																<originalaudiofilename></originalaudiofilename>
															</logginginfo>
															<colorinfo>
																<lut></lut>
																<lut1></lut1>
																<asc_sop></asc_sop>
																<asc_sat></asc_sat>
																<lut2></lut2>
															</colorinfo>
															<labels>
																<label2>Cerulean</label2>
															</labels>
														</clipitem>
														<clipitem id="clipitem-287">
															<masterclipid>masterclip-120</masterclipid>
															<name>(allyoucansweet)_6874699336299678982_TT.mp4</name>
															<enabled>TRUE</enabled>
															<duration>1742</duration>
															<rate>
																<timebase>30</timebase>
																<ntsc>TRUE</ntsc>
															</rate>
															<start>2671</start>
															<end>2731</end>
															<in>971</in>
															<out>1031</out>
															<pproTicksIn>8229872851200</pproTicksIn>
															<pproTicksOut>8738412883200</pproTicksOut>
															<alphatype>none</alphatype>
															<file id="file-103"/>
															<filter>
																<effect>
																	<name>Basic Motion</name>
																	<effectid>basic</effectid>
																	<effectcategory>motion</effectcategory>
																	<effecttype>motion</effecttype>
																	<mediatype>video</mediatype>
																	<pproBypass>false</pproBypass>
																	<parameter authoringApp="PremierePro">
																		<parameterid>scale</parameterid>
																		<name>Scale</name>
																		<valuemin>0</valuemin>
																		<valuemax>1000</valuemax>
																		<value>109</value>
																	</parameter>
																	<parameter authoringApp="PremierePro">
																		<parameterid>rotation</parameterid>
																		<name>Rotation</name>
																		<valuemin>-8640</valuemin>
																		<valuemax>8640</valuemax>
																		<value>0</value>
																	</parameter>
																	<parameter authoringApp="PremierePro">
																		<parameterid>center</parameterid>
																		<name>Center</name>
																		<value>
																			<horiz>0</horiz>
																			<vert>0</vert>
																		</value>
																	</parameter>
																	<parameter authoringApp="PremierePro">
																		<parameterid>centerOffset</parameterid>
																		<name>Anchor Point</name>
																		<value>
																			<horiz>0</horiz>
																			<vert>0</vert>
																		</value>
																	</parameter>
																	<parameter authoringApp="PremierePro">
																		<parameterid>antiflicker</parameterid>
																		<name>Anti-flicker Filter</name>
																		<valuemin>0.0</valuemin>
																		<valuemax>1.0</valuemax>
																		<value>0</value>
																	</parameter>
																</effect>
															</filter>
															<logginginfo>
																<description></description>
																<scene></scene>
																<shottake></shottake>
																<lognote></lognote>
																<good></good>
																<originalvideofilename></originalvideofilename>
																<originalaudiofilename></originalaudiofilename>
															</logginginfo>
															<colorinfo>
																<lut></lut>
																<lut1></lut1>
																<asc_sop></asc_sop>
																<asc_sat></asc_sat>
																<lut2></lut2>
															</colorinfo>
															<labels>
																<label2>Cerulean</label2>
															</labels>
														</clipitem>
														<clipitem id="clipitem-288">
															<masterclipid>masterclip-120</masterclipid>
															<name>(allyoucansweet)_6874699336299678982_TT.mp4</name>
															<enabled>TRUE</enabled>
															<duration>1742</duration>
															<rate>
																<timebase>30</timebase>
																<ntsc>TRUE</ntsc>
															</rate>
															<start>2731</start>
															<end>2778</end>
															<in>1135</in>
															<out>1182</out>
															<pproTicksIn>9619882272000</pproTicksIn>
															<pproTicksOut>10018238630400</pproTicksOut>
															<alphatype>none</alphatype>
															<file id="file-103"/>
															<filter>
																<effect>
																	<name>Basic Motion</name>
																	<effectid>basic</effectid>
																	<effectcategory>motion</effectcategory>
																	<effecttype>motion</effecttype>
																	<mediatype>video</mediatype>
																	<pproBypass>false</pproBypass>
																	<parameter authoringApp="PremierePro">
																		<parameterid>scale</parameterid>
																		<name>Scale</name>
																		<valuemin>0</valuemin>
																		<valuemax>1000</valuemax>
																		<value>109</value>
																	</parameter>
																	<parameter authoringApp="PremierePro">
																		<parameterid>rotation</parameterid>
																		<name>Rotation</name>
																		<valuemin>-8640</valuemin>
																		<valuemax>8640</valuemax>
																		<value>0</value>
																	</parameter>
																	<parameter authoringApp="PremierePro">
																		<parameterid>center</parameterid>
																		<name>Center</name>
																		<value>
																			<horiz>0</horiz>
																			<vert>0</vert>
																		</value>
																	</parameter>
																	<parameter authoringApp="PremierePro">
																		<parameterid>centerOffset</parameterid>
																		<name>Anchor Point</name>
																		<value>
																			<horiz>0</horiz>
																			<vert>0</vert>
																		</value>
																	</parameter>
																	<parameter authoringApp="PremierePro">
																		<parameterid>antiflicker</parameterid>
																		<name>Anti-flicker Filter</name>
																		<valuemin>0.0</valuemin>
																		<valuemax>1.0</valuemax>
																		<value>0</value>
																	</parameter>
																</effect>
															</filter>
															<logginginfo>
																<description></description>
																<scene></scene>
																<shottake></shottake>
																<lognote></lognote>
																<good></good>
																<originalvideofilename></originalvideofilename>
																<originalaudiofilename></originalaudiofilename>
															</logginginfo>
															<colorinfo>
																<lut></lut>
																<lut1></lut1>
																<asc_sop></asc_sop>
																<asc_sat></asc_sat>
																<lut2></lut2>
															</colorinfo>
															<labels>
																<label2>Cerulean</label2>
															</labels>
														</clipitem>
														<clipitem id="clipitem-289">
															<masterclipid>masterclip-120</masterclipid>
															<name>(allyoucansweet)_6874699336299678982_TT.mp4</name>
															<enabled>TRUE</enabled>
															<duration>1742</duration>
															<rate>
																<timebase>30</timebase>
																<ntsc>TRUE</ntsc>
															</rate>
															<start>2778</start>
															<end>3012</end>
															<in>1348</in>
															<out>1582</out>
															<pproTicksIn>11425199385600</pproTicksIn>
															<pproTicksOut>13408505510400</pproTicksOut>
															<alphatype>none</alphatype>
															<file id="file-103"/>
															<filter>
																<effect>
																	<name>Basic Motion</name>
																	<effectid>basic</effectid>
																	<effectcategory>motion</effectcategory>
																	<effecttype>motion</effecttype>
																	<mediatype>video</mediatype>
																	<pproBypass>false</pproBypass>
																	<parameter authoringApp="PremierePro">
																		<parameterid>scale</parameterid>
																		<name>Scale</name>
																		<valuemin>0</valuemin>
																		<valuemax>1000</valuemax>
																		<value>109</value>
																	</parameter>
																	<parameter authoringApp="PremierePro">
																		<parameterid>rotation</parameterid>
																		<name>Rotation</name>
																		<valuemin>-8640</valuemin>
																		<valuemax>8640</valuemax>
																		<value>0</value>
																	</parameter>
																	<parameter authoringApp="PremierePro">
																		<parameterid>center</parameterid>
																		<name>Center</name>
																		<value>
																			<horiz>0</horiz>
																			<vert>0</vert>
																		</value>
																	</parameter>
																	<parameter authoringApp="PremierePro">
																		<parameterid>centerOffset</parameterid>
																		<name>Anchor Point</name>
																		<value>
																			<horiz>0</horiz>
																			<vert>0</vert>
																		</value>
																	</parameter>
																	<parameter authoringApp="PremierePro">
																		<parameterid>antiflicker</parameterid>
																		<name>Anti-flicker Filter</name>
																		<valuemin>0.0</valuemin>
																		<valuemax>1.0</valuemax>
																		<value>0</value>
																	</parameter>
																</effect>
															</filter>
															<logginginfo>
																<description></description>
																<scene></scene>
																<shottake></shottake>
																<lognote></lognote>
																<good></good>
																<originalvideofilename></originalvideofilename>
																<originalaudiofilename></originalaudiofilename>
															</logginginfo>
															<colorinfo>
																<lut></lut>
																<lut1></lut1>
																<asc_sop></asc_sop>
																<asc_sat></asc_sat>
																<lut2></lut2>
															</colorinfo>
															<labels>
																<label2>Cerulean</label2>
															</labels>
														</clipitem>
														<clipitem id="clipitem-290">
															<masterclipid>masterclip-121</masterclipid>
															<name>(All the Sugar Cookie Studio)___ #shorts #ad_HeSlNuWClNU_YT.mp4</name>
															<enabled>TRUE</enabled>
															<duration>438</duration>
															<rate>
																<timebase>30</timebase>
																<ntsc>TRUE</ntsc>
															</rate>
															<start>3012</start>
															<end>3450</end>
															<in>0</in>
															<out>438</out>
															<pproTicksIn>0</pproTicksIn>
															<pproTicksOut>3712342233600</pproTicksOut>
															<alphatype>none</alphatype>
															<pixelaspectratio>square</pixelaspectratio>
															<anamorphic>FALSE</anamorphic>
															<file id="file-104">
																<name>(All the Sugar Cookie Studio)___ #shorts #ad_HeSlNuWClNU_YT.mp4</name>
																<pathurl>file://localhost/Volumes/ATM%201/EYE%20CANDY/8%3a14%3a23/3_Raw%20Files/not%20ice%20cream/(All%20the%20Sugar%20Cookie%20Studio)___%20#shorts%20#ad_HeSlNuWClNU_YT.mp4</pathurl>
																<rate>
																	<timebase>30</timebase>
																	<ntsc>FALSE</ntsc>
																</rate>
																<duration>439</duration>
																<timecode>
																	<rate>
																		<timebase>30</timebase>
																		<ntsc>FALSE</ntsc>
																	</rate>
																	<string>00:00:00:00</string>
																	<frame>0</frame>
																	<displayformat>NDF</displayformat>
																</timecode>
																<media>
																	<video>
																		<samplecharacteristics>
																			<rate>
																				<timebase>30</timebase>
																				<ntsc>FALSE</ntsc>
																			</rate>
																			<width>1080</width>
																			<height>1920</height>
																			<anamorphic>FALSE</anamorphic>
																			<pixelaspectratio>square</pixelaspectratio>
																			<fielddominance>none</fielddominance>
																		</samplecharacteristics>
																	</video>
																	<audio>
																		<samplecharacteristics>
																			<depth>16</depth>
																			<samplerate>44100</samplerate>
																		</samplecharacteristics>
																		<channelcount>2</channelcount>
																	</audio>
																</media>
															</file>
															<filter>
																<effect>
																	<name>Basic Motion</name>
																	<effectid>basic</effectid>
																	<effectcategory>motion</effectcategory>
																	<effecttype>motion</effecttype>
																	<mediatype>video</mediatype>
																	<pproBypass>false</pproBypass>
																	<parameter authoringApp="PremierePro">
																		<parameterid>scale</parameterid>
																		<name>Scale</name>
																		<valuemin>0</valuemin>
																		<valuemax>1000</valuemax>
																		<value>106</value>
																	</parameter>
																	<parameter authoringApp="PremierePro">
																		<parameterid>rotation</parameterid>
																		<name>Rotation</name>
																		<valuemin>-8640</valuemin>
																		<valuemax>8640</valuemax>
																		<value>0</value>
																	</parameter>
																	<parameter authoringApp="PremierePro">
																		<parameterid>center</parameterid>
																		<name>Center</name>
																		<value>
																			<horiz>0</horiz>
																			<vert>0</vert>
																		</value>
																	</parameter>
																	<parameter authoringApp="PremierePro">
																		<parameterid>centerOffset</parameterid>
																		<name>Anchor Point</name>
																		<value>
																			<horiz>0</horiz>
																			<vert>0</vert>
																		</value>
																	</parameter>
																	<parameter authoringApp="PremierePro">
																		<parameterid>antiflicker</parameterid>
																		<name>Anti-flicker Filter</name>
																		<valuemin>0.0</valuemin>
																		<valuemax>1.0</valuemax>
																		<value>0</value>
																	</parameter>
																</effect>
															</filter>
															<logginginfo>
																<description>🍫🍦 #shorts #ad</description>
																<scene></scene>
																<shottake></shottake>
																<lognote>https://www.youtube.com/watch?v=HeSlNuWClNU</lognote>
																<good></good>
																<originalvideofilename></originalvideofilename>
																<originalaudiofilename></originalaudiofilename>
															</logginginfo>
															<colorinfo>
																<lut></lut>
																<lut1></lut1>
																<asc_sop></asc_sop>
																<asc_sat></asc_sat>
																<lut2></lut2>
															</colorinfo>
															<labels>
																<label2>Rose</label2>
															</labels>
														</clipitem>
														<enabled>TRUE</enabled>
														<locked>FALSE</locked>
													</track>
													<track TL.SQTrackShy="0" TL.SQTrackExpandedHeight="25" TL.SQTrackExpanded="0" MZ.TrackTargeted="0">
														<clipitem id="clipitem-291">
															<masterclipid>masterclip-36</masterclipid>
															<name>Eyecandy Vertical Video Frame 2</name>
															<enabled>TRUE</enabled>
															<duration>5700</duration>
															<rate>
																<timebase>30</timebase>
																<ntsc>TRUE</ntsc>
															</rate>
															<start>0</start>
															<end>621</end>
															<in>118</in>
															<out>739</out>
															<pproTicksIn>1000128729600</pproTicksIn>
															<pproTicksOut>6263518060800</pproTicksOut>
															<alphatype>straight</alphatype>
															<file id="file-29"/>
															<filter>
																<effect>
																	<name>Basic Motion</name>
																	<effectid>basic</effectid>
																	<effectcategory>motion</effectcategory>
																	<effecttype>motion</effecttype>
																	<mediatype>video</mediatype>
																	<pproBypass>false</pproBypass>
																	<parameter authoringApp="PremierePro">
																		<parameterid>scale</parameterid>
																		<name>Scale</name>
																		<valuemin>0</valuemin>
																		<valuemax>1000</valuemax>
																		<value>102</value>
																	</parameter>
																	<parameter authoringApp="PremierePro">
																		<parameterid>rotation</parameterid>
																		<name>Rotation</name>
																		<valuemin>-8640</valuemin>
																		<valuemax>8640</valuemax>
																		<value>0</value>
																	</parameter>
																	<parameter authoringApp="PremierePro">
																		<parameterid>center</parameterid>
																		<name>Center</name>
																		<value>
																			<horiz>-0.00729167</horiz>
																			<vert>0</vert>
																		</value>
																	</parameter>
																	<parameter authoringApp="PremierePro">
																		<parameterid>centerOffset</parameterid>
																		<name>Anchor Point</name>
																		<value>
																			<horiz>0</horiz>
																			<vert>0</vert>
																		</value>
																	</parameter>
																	<parameter authoringApp="PremierePro">
																		<parameterid>antiflicker</parameterid>
																		<name>Anti-flicker Filter</name>
																		<valuemin>0.0</valuemin>
																		<valuemax>1.0</valuemax>
																		<value>0</value>
																	</parameter>
																</effect>
															</filter>
															<logginginfo>
																<description></description>
																<scene></scene>
																<shottake></shottake>
																<lognote></lognote>
																<good></good>
																<originalvideofilename></originalvideofilename>
																<originalaudiofilename></originalaudiofilename>
															</logginginfo>
															<colorinfo>
																<lut></lut>
																<lut1></lut1>
																<asc_sop></asc_sop>
																<asc_sat></asc_sat>
																<lut2></lut2>
															</colorinfo>
															<labels>
																<label2>Teal</label2>
															</labels>
														</clipitem>
														<clipitem id="clipitem-292">
															<masterclipid>masterclip-36</masterclipid>
															<name>Eyecandy Vertical Video Frame 2</name>
															<enabled>TRUE</enabled>
															<duration>5700</duration>
															<rate>
																<timebase>30</timebase>
																<ntsc>TRUE</ntsc>
															</rate>
															<start>621</start>
															<end>1103</end>
															<in>739</in>
															<out>1221</out>
															<pproTicksIn>6263518060800</pproTicksIn>
															<pproTicksOut>10348789651200</pproTicksOut>
															<alphatype>straight</alphatype>
															<file id="file-29"/>
															<filter>
																<effect>
																	<name>Basic Motion</name>
																	<effectid>basic</effectid>
																	<effectcategory>motion</effectcategory>
																	<effecttype>motion</effecttype>
																	<mediatype>video</mediatype>
																	<pproBypass>false</pproBypass>
																	<parameter authoringApp="PremierePro">
																		<parameterid>scale</parameterid>
																		<name>Scale</name>
																		<valuemin>0</valuemin>
																		<valuemax>1000</valuemax>
																		<value>102</value>
																	</parameter>
																	<parameter authoringApp="PremierePro">
																		<parameterid>rotation</parameterid>
																		<name>Rotation</name>
																		<valuemin>-8640</valuemin>
																		<valuemax>8640</valuemax>
																		<value>0</value>
																	</parameter>
																	<parameter authoringApp="PremierePro">
																		<parameterid>center</parameterid>
																		<name>Center</name>
																		<value>
																			<horiz>-0.00729167</horiz>
																			<vert>0</vert>
																		</value>
																	</parameter>
																	<parameter authoringApp="PremierePro">
																		<parameterid>centerOffset</parameterid>
																		<name>Anchor Point</name>
																		<value>
																			<horiz>0</horiz>
																			<vert>0</vert>
																		</value>
																	</parameter>
																	<parameter authoringApp="PremierePro">
																		<parameterid>antiflicker</parameterid>
																		<name>Anti-flicker Filter</name>
																		<valuemin>0.0</valuemin>
																		<valuemax>1.0</valuemax>
																		<value>0</value>
																	</parameter>
																</effect>
															</filter>
															<logginginfo>
																<description></description>
																<scene></scene>
																<shottake></shottake>
																<lognote></lognote>
																<good></good>
																<originalvideofilename></originalvideofilename>
																<originalaudiofilename></originalaudiofilename>
															</logginginfo>
															<colorinfo>
																<lut></lut>
																<lut1></lut1>
																<asc_sop></asc_sop>
																<asc_sat></asc_sat>
																<lut2></lut2>
															</colorinfo>
															<labels>
																<label2>Teal</label2>
															</labels>
														</clipitem>
														<clipitem id="clipitem-293">
															<masterclipid>masterclip-36</masterclipid>
															<name>Eyecandy Vertical Video Frame 2</name>
															<enabled>TRUE</enabled>
															<duration>5700</duration>
															<rate>
																<timebase>30</timebase>
																<ntsc>TRUE</ntsc>
															</rate>
															<start>1103</start>
															<end>1761</end>
															<in>1221</in>
															<out>1879</out>
															<pproTicksIn>10348789651200</pproTicksIn>
															<pproTicksOut>15925778668800</pproTicksOut>
															<alphatype>straight</alphatype>
															<file id="file-29"/>
															<filter>
																<effect>
																	<name>Basic Motion</name>
																	<effectid>basic</effectid>
																	<effectcategory>motion</effectcategory>
																	<effecttype>motion</effecttype>
																	<mediatype>video</mediatype>
																	<pproBypass>false</pproBypass>
																	<parameter authoringApp="PremierePro">
																		<parameterid>scale</parameterid>
																		<name>Scale</name>
																		<valuemin>0</valuemin>
																		<valuemax>1000</valuemax>
																		<value>102</value>
																	</parameter>
																	<parameter authoringApp="PremierePro">
																		<parameterid>rotation</parameterid>
																		<name>Rotation</name>
																		<valuemin>-8640</valuemin>
																		<valuemax>8640</valuemax>
																		<value>0</value>
																	</parameter>
																	<parameter authoringApp="PremierePro">
																		<parameterid>center</parameterid>
																		<name>Center</name>
																		<value>
																			<horiz>-0.00729167</horiz>
																			<vert>0</vert>
																		</value>
																	</parameter>
																	<parameter authoringApp="PremierePro">
																		<parameterid>centerOffset</parameterid>
																		<name>Anchor Point</name>
																		<value>
																			<horiz>0</horiz>
																			<vert>0</vert>
																		</value>
																	</parameter>
																	<parameter authoringApp="PremierePro">
																		<parameterid>antiflicker</parameterid>
																		<name>Anti-flicker Filter</name>
																		<valuemin>0.0</valuemin>
																		<valuemax>1.0</valuemax>
																		<value>0</value>
																	</parameter>
																</effect>
															</filter>
															<logginginfo>
																<description></description>
																<scene></scene>
																<shottake></shottake>
																<lognote></lognote>
																<good></good>
																<originalvideofilename></originalvideofilename>
																<originalaudiofilename></originalaudiofilename>
															</logginginfo>
															<colorinfo>
																<lut></lut>
																<lut1></lut1>
																<asc_sop></asc_sop>
																<asc_sat></asc_sat>
																<lut2></lut2>
															</colorinfo>
															<labels>
																<label2>Teal</label2>
															</labels>
														</clipitem>
														<clipitem id="clipitem-294">
															<masterclipid>masterclip-36</masterclipid>
															<name>Eyecandy Vertical Video Frame 2</name>
															<enabled>TRUE</enabled>
															<duration>5700</duration>
															<rate>
																<timebase>30</timebase>
																<ntsc>TRUE</ntsc>
															</rate>
															<start>1761</start>
															<end>2400</end>
															<in>1879</in>
															<out>2518</out>
															<pproTicksIn>15925778668800</pproTicksIn>
															<pproTicksOut>21341730009600</pproTicksOut>
															<alphatype>straight</alphatype>
															<file id="file-29"/>
															<filter>
																<effect>
																	<name>Basic Motion</name>
																	<effectid>basic</effectid>
																	<effectcategory>motion</effectcategory>
																	<effecttype>motion</effecttype>
																	<mediatype>video</mediatype>
																	<pproBypass>false</pproBypass>
																	<parameter authoringApp="PremierePro">
																		<parameterid>scale</parameterid>
																		<name>Scale</name>
																		<valuemin>0</valuemin>
																		<valuemax>1000</valuemax>
																		<value>102</value>
																	</parameter>
																	<parameter authoringApp="PremierePro">
																		<parameterid>rotation</parameterid>
																		<name>Rotation</name>
																		<valuemin>-8640</valuemin>
																		<valuemax>8640</valuemax>
																		<value>0</value>
																	</parameter>
																	<parameter authoringApp="PremierePro">
																		<parameterid>center</parameterid>
																		<name>Center</name>
																		<value>
																			<horiz>-0.00729167</horiz>
																			<vert>0</vert>
																		</value>
																	</parameter>
																	<parameter authoringApp="PremierePro">
																		<parameterid>centerOffset</parameterid>
																		<name>Anchor Point</name>
																		<value>
																			<horiz>0</horiz>
																			<vert>0</vert>
																		</value>
																	</parameter>
																	<parameter authoringApp="PremierePro">
																		<parameterid>antiflicker</parameterid>
																		<name>Anti-flicker Filter</name>
																		<valuemin>0.0</valuemin>
																		<valuemax>1.0</valuemax>
																		<value>0</value>
																	</parameter>
																</effect>
															</filter>
															<logginginfo>
																<description></description>
																<scene></scene>
																<shottake></shottake>
																<lognote></lognote>
																<good></good>
																<originalvideofilename></originalvideofilename>
																<originalaudiofilename></originalaudiofilename>
															</logginginfo>
															<colorinfo>
																<lut></lut>
																<lut1></lut1>
																<asc_sop></asc_sop>
																<asc_sat></asc_sat>
																<lut2></lut2>
															</colorinfo>
															<labels>
																<label2>Teal</label2>
															</labels>
														</clipitem>
														<clipitem id="clipitem-295">
															<masterclipid>masterclip-36</masterclipid>
															<name>Eyecandy Vertical Video Frame 2</name>
															<enabled>TRUE</enabled>
															<duration>5700</duration>
															<rate>
																<timebase>30</timebase>
																<ntsc>TRUE</ntsc>
															</rate>
															<start>2400</start>
															<end>3012</end>
															<in>2518</in>
															<out>3130</out>
															<pproTicksIn>21341730009600</pproTicksIn>
															<pproTicksOut>26528838336000</pproTicksOut>
															<alphatype>straight</alphatype>
															<file id="file-29"/>
															<filter>
																<effect>
																	<name>Basic Motion</name>
																	<effectid>basic</effectid>
																	<effectcategory>motion</effectcategory>
																	<effecttype>motion</effecttype>
																	<mediatype>video</mediatype>
																	<pproBypass>false</pproBypass>
																	<parameter authoringApp="PremierePro">
																		<parameterid>scale</parameterid>
																		<name>Scale</name>
																		<valuemin>0</valuemin>
																		<valuemax>1000</valuemax>
																		<value>102</value>
																	</parameter>
																	<parameter authoringApp="PremierePro">
																		<parameterid>rotation</parameterid>
																		<name>Rotation</name>
																		<valuemin>-8640</valuemin>
																		<valuemax>8640</valuemax>
																		<value>0</value>
																	</parameter>
																	<parameter authoringApp="PremierePro">
																		<parameterid>center</parameterid>
																		<name>Center</name>
																		<value>
																			<horiz>-0.00729167</horiz>
																			<vert>0</vert>
																		</value>
																	</parameter>
																	<parameter authoringApp="PremierePro">
																		<parameterid>centerOffset</parameterid>
																		<name>Anchor Point</name>
																		<value>
																			<horiz>0</horiz>
																			<vert>0</vert>
																		</value>
																	</parameter>
																	<parameter authoringApp="PremierePro">
																		<parameterid>antiflicker</parameterid>
																		<name>Anti-flicker Filter</name>
																		<valuemin>0.0</valuemin>
																		<valuemax>1.0</valuemax>
																		<value>0</value>
																	</parameter>
																</effect>
															</filter>
															<logginginfo>
																<description></description>
																<scene></scene>
																<shottake></shottake>
																<lognote></lognote>
																<good></good>
																<originalvideofilename></originalvideofilename>
																<originalaudiofilename></originalaudiofilename>
															</logginginfo>
															<colorinfo>
																<lut></lut>
																<lut1></lut1>
																<asc_sop></asc_sop>
																<asc_sat></asc_sat>
																<lut2></lut2>
															</colorinfo>
															<labels>
																<label2>Teal</label2>
															</labels>
														</clipitem>
														<clipitem id="clipitem-296">
															<masterclipid>masterclip-36</masterclipid>
															<name>Eyecandy Vertical Video Frame 2</name>
															<enabled>TRUE</enabled>
															<duration>5700</duration>
															<rate>
																<timebase>30</timebase>
																<ntsc>TRUE</ntsc>
															</rate>
															<start>3012</start>
															<end>3450</end>
															<in>3130</in>
															<out>3568</out>
															<pproTicksIn>26528838336000</pproTicksIn>
															<pproTicksOut>30241180569600</pproTicksOut>
															<alphatype>straight</alphatype>
															<file id="file-29"/>
															<filter>
																<effect>
																	<name>Basic Motion</name>
																	<effectid>basic</effectid>
																	<effectcategory>motion</effectcategory>
																	<effecttype>motion</effecttype>
																	<mediatype>video</mediatype>
																	<pproBypass>false</pproBypass>
																	<parameter authoringApp="PremierePro">
																		<parameterid>scale</parameterid>
																		<name>Scale</name>
																		<valuemin>0</valuemin>
																		<valuemax>1000</valuemax>
																		<value>102</value>
																	</parameter>
																	<parameter authoringApp="PremierePro">
																		<parameterid>rotation</parameterid>
																		<name>Rotation</name>
																		<valuemin>-8640</valuemin>
																		<valuemax>8640</valuemax>
																		<value>0</value>
																	</parameter>
																	<parameter authoringApp="PremierePro">
																		<parameterid>center</parameterid>
																		<name>Center</name>
																		<value>
																			<horiz>-0.00729167</horiz>
																			<vert>0</vert>
																		</value>
																	</parameter>
																	<parameter authoringApp="PremierePro">
																		<parameterid>centerOffset</parameterid>
																		<name>Anchor Point</name>
																		<value>
																			<horiz>0</horiz>
																			<vert>0</vert>
																		</value>
																	</parameter>
																	<parameter authoringApp="PremierePro">
																		<parameterid>antiflicker</parameterid>
																		<name>Anti-flicker Filter</name>
																		<valuemin>0.0</valuemin>
																		<valuemax>1.0</valuemax>
																		<value>0</value>
																	</parameter>
																</effect>
															</filter>
															<logginginfo>
																<description></description>
																<scene></scene>
																<shottake></shottake>
																<lognote></lognote>
																<good></good>
																<originalvideofilename></originalvideofilename>
																<originalaudiofilename></originalaudiofilename>
															</logginginfo>
															<colorinfo>
																<lut></lut>
																<lut1></lut1>
																<asc_sop></asc_sop>
																<asc_sat></asc_sat>
																<lut2></lut2>
															</colorinfo>
															<labels>
																<label2>Teal</label2>
															</labels>
														</clipitem>
														<enabled>TRUE</enabled>
														<locked>FALSE</locked>
													</track>
													<track TL.SQTrackShy="0" TL.SQTrackExpandedHeight="25" TL.SQTrackExpanded="0" MZ.TrackTargeted="0">
														<enabled>TRUE</enabled>
														<locked>FALSE</locked>
													</track>
													<track TL.SQTrackShy="0" TL.SQTrackExpandedHeight="25" TL.SQTrackExpanded="0" MZ.TrackTargeted="0">
														<enabled>TRUE</enabled>
														<locked>FALSE</locked>
													</track>
													<track TL.SQTrackShy="0" TL.SQTrackExpandedHeight="25" TL.SQTrackExpanded="0" MZ.TrackTargeted="0">
														<enabled>TRUE</enabled>
														<locked>FALSE</locked>
													</track>
													<track TL.SQTrackShy="0" TL.SQTrackExpandedHeight="25" TL.SQTrackExpanded="0" MZ.TrackTargeted="0">
														<enabled>TRUE</enabled>
														<locked>FALSE</locked>
													</track>
													<track TL.SQTrackShy="0" TL.SQTrackExpandedHeight="25" TL.SQTrackExpanded="0" MZ.TrackTargeted="0">
														<enabled>TRUE</enabled>
														<locked>FALSE</locked>
													</track>
													<track TL.SQTrackShy="0" TL.SQTrackExpandedHeight="25" TL.SQTrackExpanded="0" MZ.TrackTargeted="0">
														<enabled>TRUE</enabled>
														<locked>FALSE</locked>
													</track>
													<track TL.SQTrackShy="0" TL.SQTrackExpandedHeight="25" TL.SQTrackExpanded="0" MZ.TrackTargeted="0">
														<enabled>TRUE</enabled>
														<locked>FALSE</locked>
													</track>
													<track TL.SQTrackShy="0" TL.SQTrackExpandedHeight="25" TL.SQTrackExpanded="0" MZ.TrackTargeted="0">
														<enabled>TRUE</enabled>
														<locked>FALSE</locked>
													</track>
												</video>
												<audio>
													<numOutputChannels>2</numOutputChannels>
													<format>
														<samplecharacteristics>
															<depth>16</depth>
															<samplerate>48000</samplerate>
														</samplecharacteristics>
													</format>
													<outputs>
														<group>
															<index>1</index>
															<numchannels>1</numchannels>
															<downmix>0</downmix>
															<channel>
																<index>1</index>
															</channel>
														</group>
														<group>
															<index>2</index>
															<numchannels>1</numchannels>
															<downmix>0</downmix>
															<channel>
																<index>2</index>
															</channel>
														</group>
													</outputs>
													<track TL.SQTrackAudioKeyframeStyle="0" TL.SQTrackShy="0" TL.SQTrackExpandedHeight="25" TL.SQTrackExpanded="0" MZ.TrackTargeted="1" PannerCurrentValue="0.5" PannerIsInverted="true" PannerStartKeyframe="-91445760000000000,0.5,0,0,0,0,0,0" PannerName="Balance" currentExplodedTrackIndex="0" totalExplodedTrackCount="2" premiereTrackType="Stereo">
														<clipitem id="clipitem-297" premiereChannelType="stereo">
															<masterclipid>masterclip-122</masterclipid>
															<name>ES_Shroom Stew - El Flaco Collective.mp3</name>
															<enabled>TRUE</enabled>
															<duration>6592</duration>
															<rate>
																<timebase>30</timebase>
																<ntsc>TRUE</ntsc>
															</rate>
															<start>0</start>
															<end>3450</end>
															<in>0</in>
															<out>3450</out>
															<pproTicksIn>0</pproTicksIn>
															<pproTicksOut>29241051840000</pproTicksOut>
															<file id="file-105">
																<name>ES_Shroom Stew - El Flaco Collective.mp3</name>
																<pathurl>file://localhost/Volumes/ATM%201/EYE%20CANDY/8%3a14%3a23/5_Assets/Music/ES_Shroom%20Stew%20-%20El%20Flaco%20Collective.mp3</pathurl>
																<rate>
																	<timebase>30</timebase>
																	<ntsc>TRUE</ntsc>
																</rate>
																<duration>6592</duration>
																<timecode>
																	<rate>
																		<timebase>30</timebase>
																		<ntsc>TRUE</ntsc>
																	</rate>
																	<string>00;00;00;00</string>
																	<frame>0</frame>
																	<displayformat>DF</displayformat>
																</timecode>
																<media>
																	<audio>
																		<samplecharacteristics>
																			<depth>16</depth>
																			<samplerate>48000</samplerate>
																		</samplecharacteristics>
																		<channelcount>2</channelcount>
																	</audio>
																</media>
															</file>
															<sourcetrack>
																<mediatype>audio</mediatype>
																<trackindex>1</trackindex>
															</sourcetrack>
															<link>
																<linkclipref>clipitem-297</linkclipref>
																<mediatype>audio</mediatype>
																<trackindex>1</trackindex>
																<clipindex>1</clipindex>
																<groupindex>1</groupindex>
															</link>
															<link>
																<linkclipref>clipitem-298</linkclipref>
																<mediatype>audio</mediatype>
																<trackindex>2</trackindex>
																<clipindex>1</clipindex>
																<groupindex>1</groupindex>
															</link>
															<logginginfo>
																<description></description>
																<scene></scene>
																<shottake></shottake>
																<lognote></lognote>
																<good></good>
																<originalvideofilename></originalvideofilename>
																<originalaudiofilename></originalaudiofilename>
															</logginginfo>
															<colorinfo>
																<lut></lut>
																<lut1></lut1>
																<asc_sop></asc_sop>
																<asc_sat></asc_sat>
																<lut2></lut2>
															</colorinfo>
															<labels>
																<label2>Caribbean</label2>
															</labels>
														</clipitem>
														<enabled>TRUE</enabled>
														<locked>FALSE</locked>
														<filter>
															<effect>
																<name>Audio Levels</name>
																<effectid>audiolevels</effectid>
																<effectcategory>audiolevels</effectcategory>
																<effecttype>audiolevels</effecttype>
																<mediatype>audio</mediatype>
																<parameter authoringApp="PremierePro">
																	<parameterid>level</parameterid>
																	<name>Level</name>
																	<valuemin>0</valuemin>
																	<valuemax>3.98109</valuemax>
																	<value>0.706272</value>
																</parameter>
															</effect>
														</filter>
														<outputchannelindex>1</outputchannelindex>
													</track>
													<track TL.SQTrackAudioKeyframeStyle="0" TL.SQTrackShy="0" TL.SQTrackExpandedHeight="25" TL.SQTrackExpanded="0" MZ.TrackTargeted="1" PannerCurrentValue="0.5" PannerIsInverted="true" PannerStartKeyframe="-91445760000000000,0.5,0,0,0,0,0,0" PannerName="Balance" currentExplodedTrackIndex="1" totalExplodedTrackCount="2" premiereTrackType="Stereo">
														<clipitem id="clipitem-298" premiereChannelType="stereo">
															<masterclipid>masterclip-122</masterclipid>
															<name>ES_Shroom Stew - El Flaco Collective.mp3</name>
															<enabled>TRUE</enabled>
															<duration>6592</duration>
															<rate>
																<timebase>30</timebase>
																<ntsc>TRUE</ntsc>
															</rate>
															<start>0</start>
															<end>3450</end>
															<in>0</in>
															<out>3450</out>
															<pproTicksIn>0</pproTicksIn>
															<pproTicksOut>29241051840000</pproTicksOut>
															<file id="file-105"/>
															<sourcetrack>
																<mediatype>audio</mediatype>
																<trackindex>2</trackindex>
															</sourcetrack>
															<link>
																<linkclipref>clipitem-297</linkclipref>
																<mediatype>audio</mediatype>
																<trackindex>1</trackindex>
																<clipindex>1</clipindex>
																<groupindex>1</groupindex>
															</link>
															<link>
																<linkclipref>clipitem-298</linkclipref>
																<mediatype>audio</mediatype>
																<trackindex>2</trackindex>
																<clipindex>1</clipindex>
																<groupindex>1</groupindex>
															</link>
															<logginginfo>
																<description></description>
																<scene></scene>
																<shottake></shottake>
																<lognote></lognote>
																<good></good>
																<originalvideofilename></originalvideofilename>
																<originalaudiofilename></originalaudiofilename>
															</logginginfo>
															<colorinfo>
																<lut></lut>
																<lut1></lut1>
																<asc_sop></asc_sop>
																<asc_sat></asc_sat>
																<lut2></lut2>
															</colorinfo>
															<labels>
																<label2>Caribbean</label2>
															</labels>
														</clipitem>
														<enabled>TRUE</enabled>
														<locked>FALSE</locked>
														<filter>
															<effect>
																<name>Audio Levels</name>
																<effectid>audiolevels</effectid>
																<effectcategory>audiolevels</effectcategory>
																<effecttype>audiolevels</effecttype>
																<mediatype>audio</mediatype>
																<parameter authoringApp="PremierePro">
																	<parameterid>level</parameterid>
																	<name>Level</name>
																	<valuemin>0</valuemin>
																	<valuemax>3.98109</valuemax>
																	<value>0.706272</value>
																</parameter>
															</effect>
														</filter>
														<outputchannelindex>2</outputchannelindex>
													</track>
													<track TL.SQTrackAudioKeyframeStyle="0" TL.SQTrackShy="0" TL.SQTrackExpandedHeight="25" TL.SQTrackExpanded="0" MZ.TrackTargeted="0" PannerCurrentValue="0.5" PannerIsInverted="true" PannerStartKeyframe="-91445760000000000,0.5,0,0,0,0,0,0" PannerName="Balance" currentExplodedTrackIndex="0" totalExplodedTrackCount="2" premiereTrackType="Stereo">
														<enabled>TRUE</enabled>
														<locked>FALSE</locked>
														<outputchannelindex>1</outputchannelindex>
													</track>
													<track TL.SQTrackAudioKeyframeStyle="0" TL.SQTrackShy="0" TL.SQTrackExpandedHeight="25" TL.SQTrackExpanded="0" MZ.TrackTargeted="0" PannerCurrentValue="0.5" PannerIsInverted="true" PannerStartKeyframe="-91445760000000000,0.5,0,0,0,0,0,0" PannerName="Balance" currentExplodedTrackIndex="1" totalExplodedTrackCount="2" premiereTrackType="Stereo">
														<enabled>TRUE</enabled>
														<locked>FALSE</locked>
														<outputchannelindex>2</outputchannelindex>
													</track>
													<track TL.SQTrackAudioKeyframeStyle="0" TL.SQTrackShy="0" TL.SQTrackExpandedHeight="25" TL.SQTrackExpanded="0" MZ.TrackTargeted="0" PannerCurrentValue="0.5" PannerIsInverted="true" PannerStartKeyframe="-91445760000000000,0.5,0,0,0,0,0,0" PannerName="Balance" currentExplodedTrackIndex="0" totalExplodedTrackCount="2" premiereTrackType="Stereo">
														<enabled>TRUE</enabled>
														<locked>FALSE</locked>
														<outputchannelindex>1</outputchannelindex>
													</track>
													<track TL.SQTrackAudioKeyframeStyle="0" TL.SQTrackShy="0" TL.SQTrackExpandedHeight="25" TL.SQTrackExpanded="0" MZ.TrackTargeted="0" PannerCurrentValue="0.5" PannerIsInverted="true" PannerStartKeyframe="-91445760000000000,0.5,0,0,0,0,0,0" PannerName="Balance" currentExplodedTrackIndex="1" totalExplodedTrackCount="2" premiereTrackType="Stereo">
														<enabled>TRUE</enabled>
														<locked>FALSE</locked>
														<outputchannelindex>2</outputchannelindex>
													</track>
													<track TL.SQTrackAudioKeyframeStyle="0" TL.SQTrackShy="0" TL.SQTrackExpandedHeight="25" TL.SQTrackExpanded="0" MZ.TrackTargeted="0" PannerCurrentValue="0.5" PannerIsInverted="true" PannerStartKeyframe="-91445760000000000,0.5,0,0,0,0,0,0" PannerName="Balance" currentExplodedTrackIndex="0" totalExplodedTrackCount="2" premiereTrackType="Stereo">
														<enabled>TRUE</enabled>
														<locked>FALSE</locked>
														<outputchannelindex>1</outputchannelindex>
													</track>
													<track TL.SQTrackAudioKeyframeStyle="0" TL.SQTrackShy="0" TL.SQTrackExpandedHeight="25" TL.SQTrackExpanded="0" MZ.TrackTargeted="0" PannerCurrentValue="0.5" PannerIsInverted="true" PannerStartKeyframe="-91445760000000000,0.5,0,0,0,0,0,0" PannerName="Balance" currentExplodedTrackIndex="1" totalExplodedTrackCount="2" premiereTrackType="Stereo">
														<enabled>TRUE</enabled>
														<locked>FALSE</locked>
														<outputchannelindex>2</outputchannelindex>
													</track>
													<track TL.SQTrackAudioKeyframeStyle="0" TL.SQTrackShy="0" TL.SQTrackExpandedHeight="25" TL.SQTrackExpanded="0" MZ.TrackTargeted="0" PannerCurrentValue="0.5" PannerIsInverted="true" PannerStartKeyframe="-91445760000000000,0.5,0,0,0,0,0,0" PannerName="Balance" currentExplodedTrackIndex="0" totalExplodedTrackCount="2" premiereTrackType="Stereo">
														<enabled>TRUE</enabled>
														<locked>FALSE</locked>
														<outputchannelindex>1</outputchannelindex>
													</track>
													<track TL.SQTrackAudioKeyframeStyle="0" TL.SQTrackShy="0" TL.SQTrackExpandedHeight="25" TL.SQTrackExpanded="0" MZ.TrackTargeted="0" PannerCurrentValue="0.5" PannerIsInverted="true" PannerStartKeyframe="-91445760000000000,0.5,0,0,0,0,0,0" PannerName="Balance" currentExplodedTrackIndex="1" totalExplodedTrackCount="2" premiereTrackType="Stereo">
														<enabled>TRUE</enabled>
														<locked>FALSE</locked>
														<outputchannelindex>2</outputchannelindex>
													</track>
													<track TL.SQTrackAudioKeyframeStyle="0" TL.SQTrackShy="0" TL.SQTrackExpandedHeight="25" TL.SQTrackExpanded="0" MZ.TrackTargeted="0" PannerCurrentValue="0.5" PannerIsInverted="true" PannerStartKeyframe="-91445760000000000,0.5,0,0,0,0,0,0" PannerName="Balance" currentExplodedTrackIndex="0" totalExplodedTrackCount="2" premiereTrackType="Stereo">
														<enabled>TRUE</enabled>
														<locked>FALSE</locked>
														<outputchannelindex>1</outputchannelindex>
													</track>
													<track TL.SQTrackAudioKeyframeStyle="0" TL.SQTrackShy="0" TL.SQTrackExpandedHeight="25" TL.SQTrackExpanded="0" MZ.TrackTargeted="0" PannerCurrentValue="0.5" PannerIsInverted="true" PannerStartKeyframe="-91445760000000000,0.5,0,0,0,0,0,0" PannerName="Balance" currentExplodedTrackIndex="1" totalExplodedTrackCount="2" premiereTrackType="Stereo">
														<enabled>TRUE</enabled>
														<locked>FALSE</locked>
														<outputchannelindex>2</outputchannelindex>
													</track>
													<track TL.SQTrackAudioKeyframeStyle="0" TL.SQTrackShy="0" TL.SQTrackExpandedHeight="25" TL.SQTrackExpanded="0" MZ.TrackTargeted="0" PannerCurrentValue="0.5" PannerIsInverted="true" PannerStartKeyframe="-91445760000000000,0.5,0,0,0,0,0,0" PannerName="Balance" currentExplodedTrackIndex="0" totalExplodedTrackCount="2" premiereTrackType="Stereo">
														<enabled>TRUE</enabled>
														<locked>FALSE</locked>
														<outputchannelindex>1</outputchannelindex>
													</track>
													<track TL.SQTrackAudioKeyframeStyle="0" TL.SQTrackShy="0" TL.SQTrackExpandedHeight="25" TL.SQTrackExpanded="0" MZ.TrackTargeted="0" PannerCurrentValue="0.5" PannerIsInverted="true" PannerStartKeyframe="-91445760000000000,0.5,0,0,0,0,0,0" PannerName="Balance" currentExplodedTrackIndex="1" totalExplodedTrackCount="2" premiereTrackType="Stereo">
														<enabled>TRUE</enabled>
														<locked>FALSE</locked>
														<outputchannelindex>2</outputchannelindex>
													</track>
													<track TL.SQTrackAudioKeyframeStyle="0" TL.SQTrackShy="0" TL.SQTrackExpandedHeight="25" TL.SQTrackExpanded="0" MZ.TrackTargeted="0" PannerCurrentValue="0.5" PannerIsInverted="true" PannerStartKeyframe="-91445760000000000,0.5,0,0,0,0,0,0" PannerName="Balance" currentExplodedTrackIndex="0" totalExplodedTrackCount="2" premiereTrackType="Stereo">
														<enabled>TRUE</enabled>
														<locked>FALSE</locked>
														<outputchannelindex>1</outputchannelindex>
													</track>
													<track TL.SQTrackAudioKeyframeStyle="0" TL.SQTrackShy="0" TL.SQTrackExpandedHeight="25" TL.SQTrackExpanded="0" MZ.TrackTargeted="0" PannerCurrentValue="0.5" PannerIsInverted="true" PannerStartKeyframe="-91445760000000000,0.5,0,0,0,0,0,0" PannerName="Balance" currentExplodedTrackIndex="1" totalExplodedTrackCount="2" premiereTrackType="Stereo">
														<enabled>TRUE</enabled>
														<locked>FALSE</locked>
														<outputchannelindex>2</outputchannelindex>
													</track>
													<track TL.SQTrackAudioKeyframeStyle="0" TL.SQTrackShy="0" TL.SQTrackExpandedHeight="25" TL.SQTrackExpanded="0" MZ.TrackTargeted="0" PannerCurrentValue="0.5" PannerIsInverted="true" PannerStartKeyframe="-91445760000000000,0.5,0,0,0,0,0,0" PannerName="Balance" currentExplodedTrackIndex="0" totalExplodedTrackCount="2" premiereTrackType="Stereo">
														<enabled>TRUE</enabled>
														<locked>FALSE</locked>
														<outputchannelindex>1</outputchannelindex>
													</track>
													<track TL.SQTrackAudioKeyframeStyle="0" TL.SQTrackShy="0" TL.SQTrackExpandedHeight="25" TL.SQTrackExpanded="0" MZ.TrackTargeted="0" PannerCurrentValue="0.5" PannerIsInverted="true" PannerStartKeyframe="-91445760000000000,0.5,0,0,0,0,0,0" PannerName="Balance" currentExplodedTrackIndex="1" totalExplodedTrackCount="2" premiereTrackType="Stereo">
														<enabled>TRUE</enabled>
														<locked>FALSE</locked>
														<outputchannelindex>2</outputchannelindex>
													</track>
													<track TL.SQTrackAudioKeyframeStyle="0" TL.SQTrackShy="0" TL.SQTrackExpandedHeight="25" TL.SQTrackExpanded="0" MZ.TrackTargeted="0" PannerCurrentValue="0.5" PannerIsInverted="true" PannerStartKeyframe="-91445760000000000,0.5,0,0,0,0,0,0" PannerName="Balance" currentExplodedTrackIndex="0" totalExplodedTrackCount="2" premiereTrackType="Stereo">
														<enabled>TRUE</enabled>
														<locked>FALSE</locked>
														<outputchannelindex>1</outputchannelindex>
													</track>
													<track TL.SQTrackAudioKeyframeStyle="0" TL.SQTrackShy="0" TL.SQTrackExpandedHeight="25" TL.SQTrackExpanded="0" MZ.TrackTargeted="0" PannerCurrentValue="0.5" PannerIsInverted="true" PannerStartKeyframe="-91445760000000000,0.5,0,0,0,0,0,0" PannerName="Balance" currentExplodedTrackIndex="1" totalExplodedTrackCount="2" premiereTrackType="Stereo">
														<enabled>TRUE</enabled>
														<locked>FALSE</locked>
														<outputchannelindex>2</outputchannelindex>
													</track>
												</audio>
											</media>
											<timecode>
												<rate>
													<timebase>30</timebase>
													<ntsc>TRUE</ntsc>
												</rate>
												<string>00;00;00;00</string>
												<frame>0</frame>
												<displayformat>DF</displayformat>
											</timecode>
											<logginginfo>
												<description></description>
												<scene></scene>
												<shottake></shottake>
												<lognote></lognote>
												<good></good>
												<originalvideofilename></originalvideofilename>
												<originalaudiofilename></originalaudiofilename>
											</logginginfo>
										</sequence>
										<link>
											<linkclipref>clipitem-265</linkclipref>
											<mediatype>video</mediatype>
											<trackindex>1</trackindex>
											<clipindex>1</clipindex>
										</link>
										<link>
											<linkclipref>clipitem-316</linkclipref>
											<mediatype>audio</mediatype>
											<trackindex>1</trackindex>
											<clipindex>1</clipindex>
											<groupindex>1</groupindex>
										</link>
										<link>
											<linkclipref>clipitem-318</linkclipref>
											<mediatype>audio</mediatype>
											<trackindex>2</trackindex>
											<clipindex>1</clipindex>
											<groupindex>1</groupindex>
										</link>
										<labels>
											<label2>Forest</label2>
										</labels>
									</clipitem>
									<clipitem id="clipitem-299">
										<masterclipid>masterclip-123</masterclipid>
										<name>Fresh Morning Fruit_1</name>
										<enabled>TRUE</enabled>
										<duration>2245</duration>
										<rate>
											<timebase>30</timebase>
											<ntsc>TRUE</ntsc>
										</rate>
										<start>3532</start>
										<end>5379</end>
										<in>0</in>
										<out>1847</out>
										<pproTicksIn>0</pproTicksIn>
										<pproTicksOut>15654557318400</pproTicksOut>
										<sequence id="sequence-24" TL.SQAudioVisibleBase="0" TL.SQVideoVisibleBase="0" TL.SQVisibleBaseTime="0" TL.SQAVDividerPosition="0.5" TL.SQHideShyTracks="0" TL.SQHeaderWidth="236" TL.SQDataTrackViewControlState="0" Monitor.ProgramZoomOut="15654557318400" Monitor.ProgramZoomIn="0" TL.SQTimePerPixel="0.072184793070247721" AM.TrackVScrollPosition="0" AM.TrackScrollPosition="0" MZ.EditLine="491588697600" MZ.Sequence.PreviewFrameSizeHeight="1080" MZ.Sequence.PreviewFrameSizeWidth="1920" MZ.Sequence.AudioTimeDisplayFormat="200" MZ.Sequence.PreviewRenderingClassID="1061109567" MZ.Sequence.PreviewRenderingPresetCodec="1634755443" MZ.Sequence.PreviewRenderingPresetPath="EncoderPresets/SequencePreview/35d109db-457b-43c1-9452-9cb7be9f121c/QuickTime.epr" MZ.Sequence.PreviewUseMaxRenderQuality="false" MZ.Sequence.PreviewUseMaxBitDepth="false" MZ.Sequence.EditingModeGUID="35d109db-457b-43c1-9452-9cb7be9f121c" MZ.Sequence.VideoTimeDisplayFormat="102" MZ.WorkOutPoint="1262874412800" MZ.WorkInPoint="0">
											<duration>1847</duration>
											<rate>
												<timebase>30</timebase>
												<ntsc>TRUE</ntsc>
											</rate>
											<name>FND_Fresh Morning Fruit_1</name>
											<media>
												<video>
													<format>
														<samplecharacteristics>
															<rate>
																<timebase>30</timebase>
																<ntsc>TRUE</ntsc>
															</rate>
															<codec>
																<name>Apple ProRes 422</name>
																<appspecificdata>
																	<appname>Final Cut Pro</appname>
																	<appmanufacturer>Apple Inc.</appmanufacturer>
																	<appversion>7.0</appversion>
																	<data>
																		<qtcodec>
																			<codecname>Apple ProRes 422</codecname>
																			<codectypename>Apple ProRes 422</codectypename>
																			<codectypecode>apcn</codectypecode>
																			<codecvendorcode>appl</codecvendorcode>
																			<spatialquality>1024</spatialquality>
																			<temporalquality>0</temporalquality>
																			<keyframerate>0</keyframerate>
																			<datarate>0</datarate>
																		</qtcodec>
																	</data>
																</appspecificdata>
															</codec>
															<width>1920</width>
															<height>1080</height>
															<anamorphic>FALSE</anamorphic>
															<pixelaspectratio>square</pixelaspectratio>
															<fielddominance>none</fielddominance>
															<colordepth>24</colordepth>
														</samplecharacteristics>
													</format>
													<track TL.SQTrackShy="0" TL.SQTrackExpandedHeight="25" TL.SQTrackExpanded="0" MZ.TrackTargeted="1">
														<clipitem id="clipitem-300">
															<masterclipid>masterclip-124</masterclipid>
															<name>21071_Fresh clementine hitting a wet counter top and breaking in half_By_Ira_Belsky_Artlist_HD.mp4</name>
															<enabled>TRUE</enabled>
															<duration>400</duration>
															<rate>
																<timebase>30</timebase>
																<ntsc>TRUE</ntsc>
															</rate>
															<start>0</start>
															<end>242</end>
															<in>0</in>
															<out>242</out>
															<pproTicksIn>0</pproTicksIn>
															<pproTicksOut>2051111462400</pproTicksOut>
															<alphatype>none</alphatype>
															<pixelaspectratio>PAL-601</pixelaspectratio>
															<anamorphic>FALSE</anamorphic>
															<file id="file-106">
																<name>21071_Fresh clementine hitting a wet counter top and breaking in half_By_Ira_Belsky_Artlist_HD.mp4</name>
																<pathurl>file://localhost/Volumes/ATM%201/EYE%20CANDY/8%3a14%3a23/3_Raw%20Files/Clementines/21071_Fresh%20clementine%20hitting%20a%20wet%20counter%20top%20and%20breaking%20in%20half_By_Ira_Belsky_Artlist_HD.mp4</pathurl>
																<rate>
																	<timebase>24</timebase>
																	<ntsc>FALSE</ntsc>
																</rate>
																<duration>321</duration>
																<timecode>
																	<rate>
																		<timebase>24</timebase>
																		<ntsc>FALSE</ntsc>
																	</rate>
																	<string>12:52:14:22</string>
																	<frame>1112038</frame>
																	<displayformat>NDF</displayformat>
																</timecode>
																<media>
																	<video>
																		<samplecharacteristics>
																			<rate>
																				<timebase>24</timebase>
																				<ntsc>FALSE</ntsc>
																			</rate>
																			<width>1920</width>
																			<height>1080</height>
																			<anamorphic>FALSE</anamorphic>
																			<pixelaspectratio>PAL-601</pixelaspectratio>
																			<fielddominance>none</fielddominance>
																		</samplecharacteristics>
																	</video>
																</media>
															</file>
															<filter>
																<effect>
																	<name>Distort</name>
																	<effectid>deformation</effectid>
																	<effectcategory>motion</effectcategory>
																	<effecttype>motion</effecttype>
																	<mediatype>video</mediatype>
																	<parameter authoringApp="PremierePro">
																		<parameterid>aspect</parameterid>
																		<name>Aspect</name>
																		<valuemin>-10000</valuemin>
																		<valuemax>10000</valuemax>
																		<value>-9.40171</value>
																	</parameter>
																</effect>
															</filter>
															<filter>
																<effect>
																	<name>Basic Motion</name>
																	<effectid>basic</effectid>
																	<effectcategory>motion</effectcategory>
																	<effecttype>motion</effecttype>
																	<mediatype>video</mediatype>
																	<parameter authoringApp="PremierePro">
																		<parameterid>scale</parameterid>
																		<name>Scale</name>
																		<value>109.402</value>
																	</parameter>
																</effect>
															</filter>
															<logginginfo>
																<description></description>
																<scene></scene>
																<shottake></shottake>
																<lognote></lognote>
																<good></good>
																<originalvideofilename></originalvideofilename>
																<originalaudiofilename></originalaudiofilename>
															</logginginfo>
															<colorinfo>
																<lut></lut>
																<lut1></lut1>
																<asc_sop></asc_sop>
																<asc_sat></asc_sat>
																<lut2></lut2>
															</colorinfo>
														</clipitem>
														<clipitem id="clipitem-301">
															<masterclipid>masterclip-125</masterclipid>
															<name>21072_Person squeezing half a clementine and letting the juice drip down_By_Ira_Belsky_Artlist_HD.mp4</name>
															<enabled>TRUE</enabled>
															<duration>452</duration>
															<rate>
																<timebase>30</timebase>
																<ntsc>TRUE</ntsc>
															</rate>
															<start>242</start>
															<end>551</end>
															<in>96</in>
															<out>405</out>
															<pproTicksIn>813664051200</pproTicksIn>
															<pproTicksOut>3432645216000</pproTicksOut>
															<alphatype>none</alphatype>
															<pixelaspectratio>PAL-601</pixelaspectratio>
															<anamorphic>FALSE</anamorphic>
															<file id="file-107">
																<name>21072_Person squeezing half a clementine and letting the juice drip down_By_Ira_Belsky_Artlist_HD.mp4</name>
																<pathurl>file://localhost/Volumes/ATM%201/EYE%20CANDY/8%3a14%3a23/3_Raw%20Files/Clementines/21072_Person%20squeezing%20half%20a%20clementine%20and%20letting%20the%20juice%20drip%20down_By_Ira_Belsky_Artlist_HD.mp4</pathurl>
																<rate>
																	<timebase>24</timebase>
																	<ntsc>FALSE</ntsc>
																</rate>
																<duration>362</duration>
																<timecode>
																	<rate>
																		<timebase>24</timebase>
																		<ntsc>FALSE</ntsc>
																	</rate>
																	<string>12:54:28:03</string>
																	<frame>1115235</frame>
																	<displayformat>NDF</displayformat>
																</timecode>
																<media>
																	<video>
																		<samplecharacteristics>
																			<rate>
																				<timebase>24</timebase>
																				<ntsc>FALSE</ntsc>
																			</rate>
																			<width>1920</width>
																			<height>1080</height>
																			<anamorphic>FALSE</anamorphic>
																			<pixelaspectratio>PAL-601</pixelaspectratio>
																			<fielddominance>none</fielddominance>
																		</samplecharacteristics>
																	</video>
																</media>
															</file>
															<filter>
																<effect>
																	<name>Distort</name>
																	<effectid>deformation</effectid>
																	<effectcategory>motion</effectcategory>
																	<effecttype>motion</effecttype>
																	<mediatype>video</mediatype>
																	<parameter authoringApp="PremierePro">
																		<parameterid>aspect</parameterid>
																		<name>Aspect</name>
																		<valuemin>-10000</valuemin>
																		<valuemax>10000</valuemax>
																		<value>-9.40171</value>
																	</parameter>
																</effect>
															</filter>
															<filter>
																<effect>
																	<name>Basic Motion</name>
																	<effectid>basic</effectid>
																	<effectcategory>motion</effectcategory>
																	<effecttype>motion</effecttype>
																	<mediatype>video</mediatype>
																	<parameter authoringApp="PremierePro">
																		<parameterid>scale</parameterid>
																		<name>Scale</name>
																		<value>109.402</value>
																	</parameter>
																</effect>
															</filter>
															<logginginfo>
																<description></description>
																<scene></scene>
																<shottake></shottake>
																<lognote></lognote>
																<good></good>
																<originalvideofilename></originalvideofilename>
																<originalaudiofilename></originalaudiofilename>
															</logginginfo>
															<colorinfo>
																<lut></lut>
																<lut1></lut1>
																<asc_sop></asc_sop>
																<asc_sat></asc_sat>
																<lut2></lut2>
															</colorinfo>
														</clipitem>
														<clipitem id="clipitem-302">
															<masterclipid>masterclip-126</masterclipid>
															<name>21068_Fresh clementine bounces off of a stone counter_By_Ira_Belsky_Artlist_HD.mp4</name>
															<enabled>TRUE</enabled>
															<duration>232</duration>
															<rate>
																<timebase>30</timebase>
																<ntsc>TRUE</ntsc>
															</rate>
															<start>551</start>
															<end>739</end>
															<in>0</in>
															<out>188</out>
															<pproTicksIn>0</pproTicksIn>
															<pproTicksOut>1593425433600</pproTicksOut>
															<alphatype>none</alphatype>
															<pixelaspectratio>PAL-601</pixelaspectratio>
															<anamorphic>FALSE</anamorphic>
															<file id="file-108">
																<name>21068_Fresh clementine bounces off of a stone counter_By_Ira_Belsky_Artlist_HD.mp4</name>
																<pathurl>file://localhost/Volumes/ATM%201/EYE%20CANDY/8%3a14%3a23/3_Raw%20Files/Clementines/21068_Fresh%20clementine%20bounces%20off%20of%20a%20stone%20counter_By_Ira_Belsky_Artlist_HD.mp4</pathurl>
																<rate>
																	<timebase>24</timebase>
																	<ntsc>FALSE</ntsc>
																</rate>
																<duration>186</duration>
																<timecode>
																	<rate>
																		<timebase>24</timebase>
																		<ntsc>FALSE</ntsc>
																	</rate>
																	<string>12:48:25:20</string>
																	<frame>1106540</frame>
																	<displayformat>NDF</displayformat>
																</timecode>
																<media>
																	<video>
																		<samplecharacteristics>
																			<rate>
																				<timebase>24</timebase>
																				<ntsc>FALSE</ntsc>
																			</rate>
																			<width>1920</width>
																			<height>1080</height>
																			<anamorphic>FALSE</anamorphic>
																			<pixelaspectratio>PAL-601</pixelaspectratio>
																			<fielddominance>none</fielddominance>
																		</samplecharacteristics>
																	</video>
																</media>
															</file>
															<filter>
																<effect>
																	<name>Distort</name>
																	<effectid>deformation</effectid>
																	<effectcategory>motion</effectcategory>
																	<effecttype>motion</effecttype>
																	<mediatype>video</mediatype>
																	<parameter authoringApp="PremierePro">
																		<parameterid>aspect</parameterid>
																		<name>Aspect</name>
																		<valuemin>-10000</valuemin>
																		<valuemax>10000</valuemax>
																		<value>-9.40171</value>
																	</parameter>
																</effect>
															</filter>
															<filter>
																<effect>
																	<name>Basic Motion</name>
																	<effectid>basic</effectid>
																	<effectcategory>motion</effectcategory>
																	<effecttype>motion</effecttype>
																	<mediatype>video</mediatype>
																	<parameter authoringApp="PremierePro">
																		<parameterid>scale</parameterid>
																		<name>Scale</name>
																		<value>109.402</value>
																	</parameter>
																</effect>
															</filter>
															<logginginfo>
																<description></description>
																<scene></scene>
																<shottake></shottake>
																<lognote></lognote>
																<good></good>
																<originalvideofilename></originalvideofilename>
																<originalaudiofilename></originalaudiofilename>
															</logginginfo>
															<colorinfo>
																<lut></lut>
																<lut1></lut1>
																<asc_sop></asc_sop>
																<asc_sat></asc_sat>
																<lut2></lut2>
															</colorinfo>
														</clipitem>
														<clipitem id="clipitem-303">
															<masterclipid>masterclip-127</masterclipid>
															<name>21074_Fresh clementines falling into a bowl of water_By_Ira_Belsky_Artlist_HD.mp4</name>
															<enabled>TRUE</enabled>
															<duration>314</duration>
															<rate>
																<timebase>30</timebase>
																<ntsc>TRUE</ntsc>
															</rate>
															<start>739</start>
															<end>1004</end>
															<in>0</in>
															<out>265</out>
															<pproTicksIn>0</pproTicksIn>
															<pproTicksOut>2246051808000</pproTicksOut>
															<alphatype>none</alphatype>
															<pixelaspectratio>PAL-601</pixelaspectratio>
															<anamorphic>FALSE</anamorphic>
															<file id="file-109">
																<name>21074_Fresh clementines falling into a bowl of water_By_Ira_Belsky_Artlist_HD.mp4</name>
																<pathurl>file://localhost/Volumes/ATM%201/EYE%20CANDY/8%3a14%3a23/3_Raw%20Files/Clementines/21074_Fresh%20clementines%20falling%20into%20a%20bowl%20of%20water_By_Ira_Belsky_Artlist_HD.mp4</pathurl>
																<rate>
																	<timebase>24</timebase>
																	<ntsc>FALSE</ntsc>
																</rate>
																<duration>252</duration>
																<timecode>
																	<rate>
																		<timebase>24</timebase>
																		<ntsc>FALSE</ntsc>
																	</rate>
																	<string>12:59:55:01</string>
																	<frame>1123081</frame>
																	<displayformat>NDF</displayformat>
																</timecode>
																<media>
																	<video>
																		<samplecharacteristics>
																			<rate>
																				<timebase>24</timebase>
																				<ntsc>FALSE</ntsc>
																			</rate>
																			<width>1920</width>
																			<height>1080</height>
																			<anamorphic>FALSE</anamorphic>
																			<pixelaspectratio>PAL-601</pixelaspectratio>
																			<fielddominance>none</fielddominance>
																		</samplecharacteristics>
																	</video>
																</media>
															</file>
															<filter>
																<effect>
																	<name>Distort</name>
																	<effectid>deformation</effectid>
																	<effectcategory>motion</effectcategory>
																	<effecttype>motion</effecttype>
																	<mediatype>video</mediatype>
																	<parameter authoringApp="PremierePro">
																		<parameterid>aspect</parameterid>
																		<name>Aspect</name>
																		<valuemin>-10000</valuemin>
																		<valuemax>10000</valuemax>
																		<value>-9.40171</value>
																	</parameter>
																</effect>
															</filter>
															<filter>
																<effect>
																	<name>Basic Motion</name>
																	<effectid>basic</effectid>
																	<effectcategory>motion</effectcategory>
																	<effecttype>motion</effecttype>
																	<mediatype>video</mediatype>
																	<parameter authoringApp="PremierePro">
																		<parameterid>scale</parameterid>
																		<name>Scale</name>
																		<value>109.402</value>
																	</parameter>
																</effect>
															</filter>
															<logginginfo>
																<description></description>
																<scene></scene>
																<shottake></shottake>
																<lognote></lognote>
																<good></good>
																<originalvideofilename></originalvideofilename>
																<originalaudiofilename></originalaudiofilename>
															</logginginfo>
															<colorinfo>
																<lut></lut>
																<lut1></lut1>
																<asc_sop></asc_sop>
																<asc_sat></asc_sat>
																<lut2></lut2>
															</colorinfo>
														</clipitem>
														<clipitem id="clipitem-304">
															<masterclipid>masterclip-128</masterclipid>
															<name>21073_Person squeezing a fresh clementine_By_Ira_Belsky_Artlist_HD.mp4</name>
															<enabled>TRUE</enabled>
															<duration>402</duration>
															<rate>
																<timebase>30</timebase>
																<ntsc>TRUE</ntsc>
															</rate>
															<start>1004</start>
															<end>1311</end>
															<in>0</in>
															<out>307</out>
															<pproTicksIn>0</pproTicksIn>
															<pproTicksOut>2602029830400</pproTicksOut>
															<alphatype>none</alphatype>
															<pixelaspectratio>PAL-601</pixelaspectratio>
															<anamorphic>FALSE</anamorphic>
															<file id="file-110">
																<name>21073_Person squeezing a fresh clementine_By_Ira_Belsky_Artlist_HD.mp4</name>
																<pathurl>file://localhost/Volumes/ATM%201/EYE%20CANDY/8%3a14%3a23/3_Raw%20Files/Clementines/21073_Person%20squeezing%20a%20fresh%20clementine_By_Ira_Belsky_Artlist_HD.mp4</pathurl>
																<rate>
																	<timebase>24</timebase>
																	<ntsc>FALSE</ntsc>
																</rate>
																<duration>322</duration>
																<timecode>
																	<rate>
																		<timebase>24</timebase>
																		<ntsc>FALSE</ntsc>
																	</rate>
																	<string>12:55:16:17</string>
																	<frame>1116401</frame>
																	<displayformat>NDF</displayformat>
																</timecode>
																<media>
																	<video>
																		<samplecharacteristics>
																			<rate>
																				<timebase>24</timebase>
																				<ntsc>FALSE</ntsc>
																			</rate>
																			<width>1920</width>
																			<height>1080</height>
																			<anamorphic>FALSE</anamorphic>
																			<pixelaspectratio>PAL-601</pixelaspectratio>
																			<fielddominance>none</fielddominance>
																		</samplecharacteristics>
																	</video>
																</media>
															</file>
															<filter>
																<effect>
																	<name>Distort</name>
																	<effectid>deformation</effectid>
																	<effectcategory>motion</effectcategory>
																	<effecttype>motion</effecttype>
																	<mediatype>video</mediatype>
																	<parameter authoringApp="PremierePro">
																		<parameterid>aspect</parameterid>
																		<name>Aspect</name>
																		<valuemin>-10000</valuemin>
																		<valuemax>10000</valuemax>
																		<value>-9.40171</value>
																	</parameter>
																</effect>
															</filter>
															<filter>
																<effect>
																	<name>Basic Motion</name>
																	<effectid>basic</effectid>
																	<effectcategory>motion</effectcategory>
																	<effecttype>motion</effecttype>
																	<mediatype>video</mediatype>
																	<parameter authoringApp="PremierePro">
																		<parameterid>scale</parameterid>
																		<name>Scale</name>
																		<value>109.402</value>
																	</parameter>
																</effect>
															</filter>
															<logginginfo>
																<description></description>
																<scene></scene>
																<shottake></shottake>
																<lognote></lognote>
																<good></good>
																<originalvideofilename></originalvideofilename>
																<originalaudiofilename></originalaudiofilename>
															</logginginfo>
															<colorinfo>
																<lut></lut>
																<lut1></lut1>
																<asc_sop></asc_sop>
																<asc_sat></asc_sat>
																<lut2></lut2>
															</colorinfo>
														</clipitem>
														<clipitem id="clipitem-305">
															<masterclipid>masterclip-129</masterclipid>
															<name>21069_Fresh clementine splashing into water on a counter top_By_Ira_Belsky_Artlist_HD.mp4</name>
															<enabled>TRUE</enabled>
															<duration>250</duration>
															<rate>
																<timebase>30</timebase>
																<ntsc>TRUE</ntsc>
															</rate>
															<start>1311</start>
															<end>1465</end>
															<in>34</in>
															<out>188</out>
															<pproTicksIn>288172684800</pproTicksIn>
															<pproTicksOut>1593425433600</pproTicksOut>
															<alphatype>none</alphatype>
															<pixelaspectratio>PAL-601</pixelaspectratio>
															<anamorphic>FALSE</anamorphic>
															<file id="file-111">
																<name>21069_Fresh clementine splashing into water on a counter top_By_Ira_Belsky_Artlist_HD.mp4</name>
																<pathurl>file://localhost/Volumes/ATM%201/EYE%20CANDY/8%3a14%3a23/3_Raw%20Files/Clementines/21069_Fresh%20clementine%20splashing%20into%20water%20on%20a%20counter%20top_By_Ira_Belsky_Artlist_HD.mp4</pathurl>
																<rate>
																	<timebase>24</timebase>
																	<ntsc>FALSE</ntsc>
																</rate>
																<duration>201</duration>
																<timecode>
																	<rate>
																		<timebase>24</timebase>
																		<ntsc>FALSE</ntsc>
																	</rate>
																	<string>12:50:43:21</string>
																	<frame>1109853</frame>
																	<displayformat>NDF</displayformat>
																</timecode>
																<media>
																	<video>
																		<samplecharacteristics>
																			<rate>
																				<timebase>24</timebase>
																				<ntsc>FALSE</ntsc>
																			</rate>
																			<width>1920</width>
																			<height>1080</height>
																			<anamorphic>FALSE</anamorphic>
																			<pixelaspectratio>PAL-601</pixelaspectratio>
																			<fielddominance>none</fielddominance>
																		</samplecharacteristics>
																	</video>
																</media>
															</file>
															<filter>
																<effect>
																	<name>Distort</name>
																	<effectid>deformation</effectid>
																	<effectcategory>motion</effectcategory>
																	<effecttype>motion</effecttype>
																	<mediatype>video</mediatype>
																	<parameter authoringApp="PremierePro">
																		<parameterid>aspect</parameterid>
																		<name>Aspect</name>
																		<valuemin>-10000</valuemin>
																		<valuemax>10000</valuemax>
																		<value>-9.40171</value>
																	</parameter>
																</effect>
															</filter>
															<filter>
																<effect>
																	<name>Basic Motion</name>
																	<effectid>basic</effectid>
																	<effectcategory>motion</effectcategory>
																	<effecttype>motion</effecttype>
																	<mediatype>video</mediatype>
																	<parameter authoringApp="PremierePro">
																		<parameterid>scale</parameterid>
																		<name>Scale</name>
																		<value>109.402</value>
																	</parameter>
																</effect>
															</filter>
															<logginginfo>
																<description></description>
																<scene></scene>
																<shottake></shottake>
																<lognote></lognote>
																<good></good>
																<originalvideofilename></originalvideofilename>
																<originalaudiofilename></originalaudiofilename>
															</logginginfo>
															<colorinfo>
																<lut></lut>
																<lut1></lut1>
																<asc_sop></asc_sop>
																<asc_sat></asc_sat>
																<lut2></lut2>
															</colorinfo>
														</clipitem>
														<clipitem id="clipitem-306">
															<masterclipid>masterclip-130</masterclipid>
															<name>21076_Fresh clementines falling into a glass bowl of water_By_Ira_Belsky_Artlist_HD.mp4</name>
															<enabled>TRUE</enabled>
															<duration>236</duration>
															<rate>
																<timebase>30</timebase>
																<ntsc>TRUE</ntsc>
															</rate>
															<start>1465</start>
															<end>1701</end>
															<in>0</in>
															<out>236</out>
															<pproTicksIn>0</pproTicksIn>
															<pproTicksOut>2000257459200</pproTicksOut>
															<alphatype>none</alphatype>
															<pixelaspectratio>PAL-601</pixelaspectratio>
															<anamorphic>FALSE</anamorphic>
															<file id="file-112">
																<name>21076_Fresh clementines falling into a glass bowl of water_By_Ira_Belsky_Artlist_HD.mp4</name>
																<pathurl>file://localhost/Volumes/ATM%201/EYE%20CANDY/8%3a14%3a23/3_Raw%20Files/Clementines/21076_Fresh%20clementines%20falling%20into%20a%20glass%20bowl%20of%20water_By_Ira_Belsky_Artlist_HD.mp4</pathurl>
																<rate>
																	<timebase>24</timebase>
																	<ntsc>FALSE</ntsc>
																</rate>
																<duration>189</duration>
																<timecode>
																	<rate>
																		<timebase>24</timebase>
																		<ntsc>FALSE</ntsc>
																	</rate>
																	<string>13:12:25:00</string>
																	<frame>1141080</frame>
																	<displayformat>NDF</displayformat>
																</timecode>
																<media>
																	<video>
																		<samplecharacteristics>
																			<rate>
																				<timebase>24</timebase>
																				<ntsc>FALSE</ntsc>
																			</rate>
																			<width>1920</width>
																			<height>1080</height>
																			<anamorphic>FALSE</anamorphic>
																			<pixelaspectratio>PAL-601</pixelaspectratio>
																			<fielddominance>none</fielddominance>
																		</samplecharacteristics>
																	</video>
																</media>
															</file>
															<filter>
																<effect>
																	<name>Distort</name>
																	<effectid>deformation</effectid>
																	<effectcategory>motion</effectcategory>
																	<effecttype>motion</effecttype>
																	<mediatype>video</mediatype>
																	<parameter authoringApp="PremierePro">
																		<parameterid>aspect</parameterid>
																		<name>Aspect</name>
																		<valuemin>-10000</valuemin>
																		<valuemax>10000</valuemax>
																		<value>-9.40171</value>
																	</parameter>
																</effect>
															</filter>
															<filter>
																<effect>
																	<name>Basic Motion</name>
																	<effectid>basic</effectid>
																	<effectcategory>motion</effectcategory>
																	<effecttype>motion</effecttype>
																	<mediatype>video</mediatype>
																	<parameter authoringApp="PremierePro">
																		<parameterid>scale</parameterid>
																		<name>Scale</name>
																		<value>109.402</value>
																	</parameter>
																</effect>
															</filter>
															<logginginfo>
																<description></description>
																<scene></scene>
																<shottake></shottake>
																<lognote></lognote>
																<good></good>
																<originalvideofilename></originalvideofilename>
																<originalaudiofilename></originalaudiofilename>
															</logginginfo>
															<colorinfo>
																<lut></lut>
																<lut1></lut1>
																<asc_sop></asc_sop>
																<asc_sat></asc_sat>
																<lut2></lut2>
															</colorinfo>
														</clipitem>
														<clipitem id="clipitem-307">
															<masterclipid>masterclip-131</masterclipid>
															<name>21070_Fresh clementine splashing onto a wet counter top_By_Ira_Belsky_Artlist_HD.mp4</name>
															<enabled>TRUE</enabled>
															<duration>241</duration>
															<rate>
																<timebase>30</timebase>
																<ntsc>TRUE</ntsc>
															</rate>
															<start>1701</start>
															<end>1847</end>
															<in>36</in>
															<out>182</out>
															<pproTicksIn>305124019200</pproTicksIn>
															<pproTicksOut>1542571430400</pproTicksOut>
															<alphatype>none</alphatype>
															<pixelaspectratio>PAL-601</pixelaspectratio>
															<anamorphic>FALSE</anamorphic>
															<file id="file-113">
																<name>21070_Fresh clementine splashing onto a wet counter top_By_Ira_Belsky_Artlist_HD.mp4</name>
																<pathurl>file://localhost/Volumes/ATM%201/EYE%20CANDY/8%3a14%3a23/3_Raw%20Files/Clementines/21070_Fresh%20clementine%20splashing%20onto%20a%20wet%20counter%20top_By_Ira_Belsky_Artlist_HD.mp4</pathurl>
																<rate>
																	<timebase>24</timebase>
																	<ntsc>FALSE</ntsc>
																</rate>
																<duration>193</duration>
																<timecode>
																	<rate>
																		<timebase>24</timebase>
																		<ntsc>FALSE</ntsc>
																	</rate>
																	<string>12:51:47:11</string>
																	<frame>1111379</frame>
																	<displayformat>NDF</displayformat>
																</timecode>
																<media>
																	<video>
																		<samplecharacteristics>
																			<rate>
																				<timebase>24</timebase>
																				<ntsc>FALSE</ntsc>
																			</rate>
																			<width>1920</width>
																			<height>1080</height>
																			<anamorphic>FALSE</anamorphic>
																			<pixelaspectratio>PAL-601</pixelaspectratio>
																			<fielddominance>none</fielddominance>
																		</samplecharacteristics>
																	</video>
																</media>
															</file>
															<filter>
																<effect>
																	<name>Distort</name>
																	<effectid>deformation</effectid>
																	<effectcategory>motion</effectcategory>
																	<effecttype>motion</effecttype>
																	<mediatype>video</mediatype>
																	<parameter authoringApp="PremierePro">
																		<parameterid>aspect</parameterid>
																		<name>Aspect</name>
																		<valuemin>-10000</valuemin>
																		<valuemax>10000</valuemax>
																		<value>-9.40171</value>
																	</parameter>
																</effect>
															</filter>
															<filter>
																<effect>
																	<name>Basic Motion</name>
																	<effectid>basic</effectid>
																	<effectcategory>motion</effectcategory>
																	<effecttype>motion</effecttype>
																	<mediatype>video</mediatype>
																	<parameter authoringApp="PremierePro">
																		<parameterid>scale</parameterid>
																		<name>Scale</name>
																		<value>109.402</value>
																	</parameter>
																</effect>
															</filter>
															<logginginfo>
																<description></description>
																<scene></scene>
																<shottake></shottake>
																<lognote></lognote>
																<good></good>
																<originalvideofilename></originalvideofilename>
																<originalaudiofilename></originalaudiofilename>
															</logginginfo>
															<colorinfo>
																<lut></lut>
																<lut1></lut1>
																<asc_sop></asc_sop>
																<asc_sat></asc_sat>
																<lut2></lut2>
															</colorinfo>
														</clipitem>
														<enabled>TRUE</enabled>
														<locked>FALSE</locked>
													</track>
													<track TL.SQTrackShy="0" TL.SQTrackExpandedHeight="25" TL.SQTrackExpanded="0" MZ.TrackTargeted="0">
														<enabled>TRUE</enabled>
														<locked>FALSE</locked>
													</track>
													<track TL.SQTrackShy="0" TL.SQTrackExpandedHeight="25" TL.SQTrackExpanded="0" MZ.TrackTargeted="0">
														<enabled>TRUE</enabled>
														<locked>FALSE</locked>
													</track>
													<track TL.SQTrackShy="0" TL.SQTrackExpandedHeight="25" TL.SQTrackExpanded="0" MZ.TrackTargeted="0">
														<enabled>TRUE</enabled>
														<locked>FALSE</locked>
													</track>
													<track TL.SQTrackShy="0" TL.SQTrackExpandedHeight="25" TL.SQTrackExpanded="0" MZ.TrackTargeted="0">
														<enabled>TRUE</enabled>
														<locked>FALSE</locked>
													</track>
													<track TL.SQTrackShy="0" TL.SQTrackExpandedHeight="25" TL.SQTrackExpanded="0" MZ.TrackTargeted="0">
														<enabled>TRUE</enabled>
														<locked>FALSE</locked>
													</track>
													<track TL.SQTrackShy="0" TL.SQTrackExpandedHeight="25" TL.SQTrackExpanded="0" MZ.TrackTargeted="0">
														<enabled>TRUE</enabled>
														<locked>FALSE</locked>
													</track>
													<track TL.SQTrackShy="0" TL.SQTrackExpandedHeight="25" TL.SQTrackExpanded="0" MZ.TrackTargeted="0">
														<enabled>TRUE</enabled>
														<locked>FALSE</locked>
													</track>
													<track TL.SQTrackShy="0" TL.SQTrackExpandedHeight="25" TL.SQTrackExpanded="0" MZ.TrackTargeted="0">
														<enabled>TRUE</enabled>
														<locked>FALSE</locked>
													</track>
													<track TL.SQTrackShy="0" TL.SQTrackExpandedHeight="25" TL.SQTrackExpanded="0" MZ.TrackTargeted="0">
														<enabled>TRUE</enabled>
														<locked>FALSE</locked>
													</track>
												</video>
												<audio>
													<numOutputChannels>2</numOutputChannels>
													<format>
														<samplecharacteristics>
															<depth>16</depth>
															<samplerate>48000</samplerate>
														</samplecharacteristics>
													</format>
													<outputs>
														<group>
															<index>1</index>
															<numchannels>1</numchannels>
															<downmix>0</downmix>
															<channel>
																<index>1</index>
															</channel>
														</group>
														<group>
															<index>2</index>
															<numchannels>1</numchannels>
															<downmix>0</downmix>
															<channel>
																<index>2</index>
															</channel>
														</group>
													</outputs>
													<track TL.SQTrackAudioKeyframeStyle="0" TL.SQTrackShy="0" TL.SQTrackExpandedHeight="25" TL.SQTrackExpanded="0" MZ.TrackTargeted="1" PannerCurrentValue="0.5" PannerIsInverted="true" PannerStartKeyframe="-91445760000000000,0.5,0,0,0,0,0,0" PannerName="Balance" currentExplodedTrackIndex="0" totalExplodedTrackCount="2" premiereTrackType="Stereo">
														<clipitem id="clipitem-308" premiereChannelType="stereo">
															<masterclipid>masterclip-132</masterclipid>
															<name>ES_Imagination Celebration - Ryan James Carr.mp3</name>
															<enabled>TRUE</enabled>
															<duration>4653</duration>
															<rate>
																<timebase>30</timebase>
																<ntsc>TRUE</ntsc>
															</rate>
															<start>0</start>
															<end>1847</end>
															<in>0</in>
															<out>1847</out>
															<pproTicksIn>0</pproTicksIn>
															<pproTicksOut>15654557318400</pproTicksOut>
															<file id="file-114">
																<name>ES_Imagination Celebration - Ryan James Carr.mp3</name>
																<pathurl>file://localhost/Volumes/ATM%201/EYE%20CANDY/8%3a14%3a23/5_Assets/Music/ES_Imagination%20Celebration%20-%20Ryan%20James%20Carr.mp3</pathurl>
																<rate>
																	<timebase>30</timebase>
																	<ntsc>TRUE</ntsc>
																</rate>
																<duration>4653</duration>
																<timecode>
																	<rate>
																		<timebase>30</timebase>
																		<ntsc>TRUE</ntsc>
																	</rate>
																	<string>00;00;00;00</string>
																	<frame>0</frame>
																	<displayformat>DF</displayformat>
																</timecode>
																<media>
																	<audio>
																		<samplecharacteristics>
																			<depth>16</depth>
																			<samplerate>48000</samplerate>
																		</samplecharacteristics>
																		<channelcount>2</channelcount>
																	</audio>
																</media>
															</file>
															<sourcetrack>
																<mediatype>audio</mediatype>
																<trackindex>1</trackindex>
															</sourcetrack>
															<link>
																<linkclipref>clipitem-308</linkclipref>
																<mediatype>audio</mediatype>
																<trackindex>1</trackindex>
																<clipindex>1</clipindex>
																<groupindex>1</groupindex>
															</link>
															<link>
																<linkclipref>clipitem-309</linkclipref>
																<mediatype>audio</mediatype>
																<trackindex>2</trackindex>
																<clipindex>1</clipindex>
																<groupindex>1</groupindex>
															</link>
															<logginginfo>
																<description></description>
																<scene></scene>
																<shottake></shottake>
																<lognote></lognote>
																<good></good>
																<originalvideofilename></originalvideofilename>
																<originalaudiofilename></originalaudiofilename>
															</logginginfo>
															<colorinfo>
																<lut></lut>
																<lut1></lut1>
																<asc_sop></asc_sop>
																<asc_sat></asc_sat>
																<lut2></lut2>
															</colorinfo>
															<labels>
																<label2>Caribbean</label2>
															</labels>
														</clipitem>
														<enabled>TRUE</enabled>
														<locked>FALSE</locked>
														<filter>
															<effect>
																<name>Audio Levels</name>
																<effectid>audiolevels</effectid>
																<effectcategory>audiolevels</effectcategory>
																<effecttype>audiolevels</effecttype>
																<mediatype>audio</mediatype>
																<parameter authoringApp="PremierePro">
																	<parameterid>level</parameterid>
																	<name>Level</name>
																	<valuemin>0</valuemin>
																	<valuemax>3.98109</valuemax>
																	<value>0.706272</value>
																</parameter>
															</effect>
														</filter>
														<outputchannelindex>1</outputchannelindex>
													</track>
													<track TL.SQTrackAudioKeyframeStyle="0" TL.SQTrackShy="0" TL.SQTrackExpandedHeight="25" TL.SQTrackExpanded="0" MZ.TrackTargeted="1" PannerCurrentValue="0.5" PannerIsInverted="true" PannerStartKeyframe="-91445760000000000,0.5,0,0,0,0,0,0" PannerName="Balance" currentExplodedTrackIndex="1" totalExplodedTrackCount="2" premiereTrackType="Stereo">
														<clipitem id="clipitem-309" premiereChannelType="stereo">
															<masterclipid>masterclip-132</masterclipid>
															<name>ES_Imagination Celebration - Ryan James Carr.mp3</name>
															<enabled>TRUE</enabled>
															<duration>4653</duration>
															<rate>
																<timebase>30</timebase>
																<ntsc>TRUE</ntsc>
															</rate>
															<start>0</start>
															<end>1847</end>
															<in>0</in>
															<out>1847</out>
															<pproTicksIn>0</pproTicksIn>
															<pproTicksOut>15654557318400</pproTicksOut>
															<file id="file-114"/>
															<sourcetrack>
																<mediatype>audio</mediatype>
																<trackindex>2</trackindex>
															</sourcetrack>
															<link>
																<linkclipref>clipitem-308</linkclipref>
																<mediatype>audio</mediatype>
																<trackindex>1</trackindex>
																<clipindex>1</clipindex>
																<groupindex>1</groupindex>
															</link>
															<link>
																<linkclipref>clipitem-309</linkclipref>
																<mediatype>audio</mediatype>
																<trackindex>2</trackindex>
																<clipindex>1</clipindex>
																<groupindex>1</groupindex>
															</link>
															<logginginfo>
																<description></description>
																<scene></scene>
																<shottake></shottake>
																<lognote></lognote>
																<good></good>
																<originalvideofilename></originalvideofilename>
																<originalaudiofilename></originalaudiofilename>
															</logginginfo>
															<colorinfo>
																<lut></lut>
																<lut1></lut1>
																<asc_sop></asc_sop>
																<asc_sat></asc_sat>
																<lut2></lut2>
															</colorinfo>
															<labels>
																<label2>Caribbean</label2>
															</labels>
														</clipitem>
														<enabled>TRUE</enabled>
														<locked>FALSE</locked>
														<filter>
															<effect>
																<name>Audio Levels</name>
																<effectid>audiolevels</effectid>
																<effectcategory>audiolevels</effectcategory>
																<effecttype>audiolevels</effecttype>
																<mediatype>audio</mediatype>
																<parameter authoringApp="PremierePro">
																	<parameterid>level</parameterid>
																	<name>Level</name>
																	<valuemin>0</valuemin>
																	<valuemax>3.98109</valuemax>
																	<value>0.706272</value>
																</parameter>
															</effect>
														</filter>
														<outputchannelindex>2</outputchannelindex>
													</track>
													<track TL.SQTrackAudioKeyframeStyle="0" TL.SQTrackShy="0" TL.SQTrackExpandedHeight="25" TL.SQTrackExpanded="0" MZ.TrackTargeted="0" PannerCurrentValue="0.5" PannerIsInverted="true" PannerStartKeyframe="-91445760000000000,0.5,0,0,0,0,0,0" PannerName="Balance" currentExplodedTrackIndex="0" totalExplodedTrackCount="2" premiereTrackType="Stereo">
														<enabled>TRUE</enabled>
														<locked>FALSE</locked>
														<outputchannelindex>1</outputchannelindex>
													</track>
													<track TL.SQTrackAudioKeyframeStyle="0" TL.SQTrackShy="0" TL.SQTrackExpandedHeight="25" TL.SQTrackExpanded="0" MZ.TrackTargeted="0" PannerCurrentValue="0.5" PannerIsInverted="true" PannerStartKeyframe="-91445760000000000,0.5,0,0,0,0,0,0" PannerName="Balance" currentExplodedTrackIndex="1" totalExplodedTrackCount="2" premiereTrackType="Stereo">
														<enabled>TRUE</enabled>
														<locked>FALSE</locked>
														<outputchannelindex>2</outputchannelindex>
													</track>
													<track TL.SQTrackAudioKeyframeStyle="0" TL.SQTrackShy="0" TL.SQTrackExpandedHeight="25" TL.SQTrackExpanded="0" MZ.TrackTargeted="0" PannerCurrentValue="0.5" PannerIsInverted="true" PannerStartKeyframe="-91445760000000000,0.5,0,0,0,0,0,0" PannerName="Balance" currentExplodedTrackIndex="0" totalExplodedTrackCount="2" premiereTrackType="Stereo">
														<enabled>TRUE</enabled>
														<locked>FALSE</locked>
														<outputchannelindex>1</outputchannelindex>
													</track>
													<track TL.SQTrackAudioKeyframeStyle="0" TL.SQTrackShy="0" TL.SQTrackExpandedHeight="25" TL.SQTrackExpanded="0" MZ.TrackTargeted="0" PannerCurrentValue="0.5" PannerIsInverted="true" PannerStartKeyframe="-91445760000000000,0.5,0,0,0,0,0,0" PannerName="Balance" currentExplodedTrackIndex="1" totalExplodedTrackCount="2" premiereTrackType="Stereo">
														<enabled>TRUE</enabled>
														<locked>FALSE</locked>
														<outputchannelindex>2</outputchannelindex>
													</track>
													<track TL.SQTrackAudioKeyframeStyle="0" TL.SQTrackShy="0" TL.SQTrackExpandedHeight="25" TL.SQTrackExpanded="0" MZ.TrackTargeted="0" PannerCurrentValue="0.5" PannerIsInverted="true" PannerStartKeyframe="-91445760000000000,0.5,0,0,0,0,0,0" PannerName="Balance" currentExplodedTrackIndex="0" totalExplodedTrackCount="2" premiereTrackType="Stereo">
														<enabled>TRUE</enabled>
														<locked>FALSE</locked>
														<outputchannelindex>1</outputchannelindex>
													</track>
													<track TL.SQTrackAudioKeyframeStyle="0" TL.SQTrackShy="0" TL.SQTrackExpandedHeight="25" TL.SQTrackExpanded="0" MZ.TrackTargeted="0" PannerCurrentValue="0.5" PannerIsInverted="true" PannerStartKeyframe="-91445760000000000,0.5,0,0,0,0,0,0" PannerName="Balance" currentExplodedTrackIndex="1" totalExplodedTrackCount="2" premiereTrackType="Stereo">
														<enabled>TRUE</enabled>
														<locked>FALSE</locked>
														<outputchannelindex>2</outputchannelindex>
													</track>
													<track TL.SQTrackAudioKeyframeStyle="0" TL.SQTrackShy="0" TL.SQTrackExpandedHeight="25" TL.SQTrackExpanded="0" MZ.TrackTargeted="0" PannerCurrentValue="0.5" PannerIsInverted="true" PannerStartKeyframe="-91445760000000000,0.5,0,0,0,0,0,0" PannerName="Balance" currentExplodedTrackIndex="0" totalExplodedTrackCount="2" premiereTrackType="Stereo">
														<enabled>TRUE</enabled>
														<locked>FALSE</locked>
														<outputchannelindex>1</outputchannelindex>
													</track>
													<track TL.SQTrackAudioKeyframeStyle="0" TL.SQTrackShy="0" TL.SQTrackExpandedHeight="25" TL.SQTrackExpanded="0" MZ.TrackTargeted="0" PannerCurrentValue="0.5" PannerIsInverted="true" PannerStartKeyframe="-91445760000000000,0.5,0,0,0,0,0,0" PannerName="Balance" currentExplodedTrackIndex="1" totalExplodedTrackCount="2" premiereTrackType="Stereo">
														<enabled>TRUE</enabled>
														<locked>FALSE</locked>
														<outputchannelindex>2</outputchannelindex>
													</track>
													<track TL.SQTrackAudioKeyframeStyle="0" TL.SQTrackShy="0" TL.SQTrackExpandedHeight="25" TL.SQTrackExpanded="0" MZ.TrackTargeted="0" PannerCurrentValue="0.5" PannerIsInverted="true" PannerStartKeyframe="-91445760000000000,0.5,0,0,0,0,0,0" PannerName="Balance" currentExplodedTrackIndex="0" totalExplodedTrackCount="2" premiereTrackType="Stereo">
														<enabled>TRUE</enabled>
														<locked>FALSE</locked>
														<outputchannelindex>1</outputchannelindex>
													</track>
													<track TL.SQTrackAudioKeyframeStyle="0" TL.SQTrackShy="0" TL.SQTrackExpandedHeight="25" TL.SQTrackExpanded="0" MZ.TrackTargeted="0" PannerCurrentValue="0.5" PannerIsInverted="true" PannerStartKeyframe="-91445760000000000,0.5,0,0,0,0,0,0" PannerName="Balance" currentExplodedTrackIndex="1" totalExplodedTrackCount="2" premiereTrackType="Stereo">
														<enabled>TRUE</enabled>
														<locked>FALSE</locked>
														<outputchannelindex>2</outputchannelindex>
													</track>
													<track TL.SQTrackAudioKeyframeStyle="0" TL.SQTrackShy="0" TL.SQTrackExpandedHeight="25" TL.SQTrackExpanded="0" MZ.TrackTargeted="0" PannerCurrentValue="0.5" PannerIsInverted="true" PannerStartKeyframe="-91445760000000000,0.5,0,0,0,0,0,0" PannerName="Balance" currentExplodedTrackIndex="0" totalExplodedTrackCount="2" premiereTrackType="Stereo">
														<enabled>TRUE</enabled>
														<locked>FALSE</locked>
														<outputchannelindex>1</outputchannelindex>
													</track>
													<track TL.SQTrackAudioKeyframeStyle="0" TL.SQTrackShy="0" TL.SQTrackExpandedHeight="25" TL.SQTrackExpanded="0" MZ.TrackTargeted="0" PannerCurrentValue="0.5" PannerIsInverted="true" PannerStartKeyframe="-91445760000000000,0.5,0,0,0,0,0,0" PannerName="Balance" currentExplodedTrackIndex="1" totalExplodedTrackCount="2" premiereTrackType="Stereo">
														<enabled>TRUE</enabled>
														<locked>FALSE</locked>
														<outputchannelindex>2</outputchannelindex>
													</track>
													<track TL.SQTrackAudioKeyframeStyle="0" TL.SQTrackShy="0" TL.SQTrackExpandedHeight="25" TL.SQTrackExpanded="0" MZ.TrackTargeted="0" PannerCurrentValue="0.5" PannerIsInverted="true" PannerStartKeyframe="-91445760000000000,0.5,0,0,0,0,0,0" PannerName="Balance" currentExplodedTrackIndex="0" totalExplodedTrackCount="2" premiereTrackType="Stereo">
														<enabled>TRUE</enabled>
														<locked>FALSE</locked>
														<outputchannelindex>1</outputchannelindex>
													</track>
													<track TL.SQTrackAudioKeyframeStyle="0" TL.SQTrackShy="0" TL.SQTrackExpandedHeight="25" TL.SQTrackExpanded="0" MZ.TrackTargeted="0" PannerCurrentValue="0.5" PannerIsInverted="true" PannerStartKeyframe="-91445760000000000,0.5,0,0,0,0,0,0" PannerName="Balance" currentExplodedTrackIndex="1" totalExplodedTrackCount="2" premiereTrackType="Stereo">
														<enabled>TRUE</enabled>
														<locked>FALSE</locked>
														<outputchannelindex>2</outputchannelindex>
													</track>
													<track TL.SQTrackAudioKeyframeStyle="0" TL.SQTrackShy="0" TL.SQTrackExpandedHeight="25" TL.SQTrackExpanded="0" MZ.TrackTargeted="0" PannerCurrentValue="0.5" PannerIsInverted="true" PannerStartKeyframe="-91445760000000000,0.5,0,0,0,0,0,0" PannerName="Balance" currentExplodedTrackIndex="0" totalExplodedTrackCount="2" premiereTrackType="Stereo">
														<enabled>TRUE</enabled>
														<locked>FALSE</locked>
														<outputchannelindex>1</outputchannelindex>
													</track>
													<track TL.SQTrackAudioKeyframeStyle="0" TL.SQTrackShy="0" TL.SQTrackExpandedHeight="25" TL.SQTrackExpanded="0" MZ.TrackTargeted="0" PannerCurrentValue="0.5" PannerIsInverted="true" PannerStartKeyframe="-91445760000000000,0.5,0,0,0,0,0,0" PannerName="Balance" currentExplodedTrackIndex="1" totalExplodedTrackCount="2" premiereTrackType="Stereo">
														<enabled>TRUE</enabled>
														<locked>FALSE</locked>
														<outputchannelindex>2</outputchannelindex>
													</track>
													<track TL.SQTrackAudioKeyframeStyle="0" TL.SQTrackShy="0" TL.SQTrackExpandedHeight="25" TL.SQTrackExpanded="0" MZ.TrackTargeted="0" PannerCurrentValue="0.5" PannerIsInverted="true" PannerStartKeyframe="-91445760000000000,0.5,0,0,0,0,0,0" PannerName="Balance" currentExplodedTrackIndex="0" totalExplodedTrackCount="2" premiereTrackType="Stereo">
														<enabled>TRUE</enabled>
														<locked>FALSE</locked>
														<outputchannelindex>1</outputchannelindex>
													</track>
													<track TL.SQTrackAudioKeyframeStyle="0" TL.SQTrackShy="0" TL.SQTrackExpandedHeight="25" TL.SQTrackExpanded="0" MZ.TrackTargeted="0" PannerCurrentValue="0.5" PannerIsInverted="true" PannerStartKeyframe="-91445760000000000,0.5,0,0,0,0,0,0" PannerName="Balance" currentExplodedTrackIndex="1" totalExplodedTrackCount="2" premiereTrackType="Stereo">
														<enabled>TRUE</enabled>
														<locked>FALSE</locked>
														<outputchannelindex>2</outputchannelindex>
													</track>
												</audio>
											</media>
											<timecode>
												<rate>
													<timebase>30</timebase>
													<ntsc>TRUE</ntsc>
												</rate>
												<string>00;00;00;00</string>
												<frame>0</frame>
												<displayformat>DF</displayformat>
											</timecode>
											<logginginfo>
												<description></description>
												<scene></scene>
												<shottake></shottake>
												<lognote></lognote>
												<good></good>
												<originalvideofilename></originalvideofilename>
												<originalaudiofilename></originalaudiofilename>
											</logginginfo>
										</sequence>
										<link>
											<linkclipref>clipitem-299</linkclipref>
											<mediatype>video</mediatype>
											<trackindex>1</trackindex>
											<clipindex>2</clipindex>
										</link>
										<link>
											<linkclipref>clipitem-317</linkclipref>
											<mediatype>audio</mediatype>
											<trackindex>1</trackindex>
											<clipindex>3</clipindex>
											<groupindex>1</groupindex>
										</link>
										<link>
											<linkclipref>clipitem-319</linkclipref>
											<mediatype>audio</mediatype>
											<trackindex>2</trackindex>
											<clipindex>3</clipindex>
											<groupindex>1</groupindex>
										</link>
										<labels>
											<label2>Forest</label2>
										</labels>
									</clipitem>
									<enabled>TRUE</enabled>
									<locked>FALSE</locked>
								</track>
								<track TL.SQTrackShy="0" TL.SQTrackExpandedHeight="25" TL.SQTrackExpanded="0" MZ.TrackTargeted="0">
									<clipitem id="clipitem-310">
										<masterclipid>masterclip-16</masterclipid>
										<name>ATM BUG_1080_Top Right.png</name>
										<enabled>TRUE</enabled>
										<duration>1294705</duration>
										<rate>
											<timebase>30</timebase>
											<ntsc>TRUE</ntsc>
										</rate>
										<start>82</start>
										<end>5379</end>
										<in>107892</in>
										<out>113189</out>
										<pproTicksIn>914456685542400</pproTicksIn>
										<pproTicksOut>959352294700800</pproTicksOut>
										<alphatype>straight</alphatype>
										<file id="file-14"/>
										<logginginfo>
											<description></description>
											<scene></scene>
											<shottake></shottake>
											<lognote></lognote>
											<good></good>
											<originalvideofilename></originalvideofilename>
											<originalaudiofilename></originalaudiofilename>
										</logginginfo>
										<colorinfo>
											<lut></lut>
											<lut1></lut1>
											<asc_sop></asc_sop>
											<asc_sat></asc_sat>
											<lut2></lut2>
										</colorinfo>
										<labels>
										</labels>
									</clipitem>
									<enabled>TRUE</enabled>
									<locked>FALSE</locked>
								</track>
								<track TL.SQTrackShy="0" TL.SQTrackExpandedHeight="25" TL.SQTrackExpanded="0" MZ.TrackTargeted="0">
									<clipitem id="clipitem-311">
										<masterclipid>masterclip-133</masterclipid>
										<name>Not Quite Ice Cream</name>
										<enabled>TRUE</enabled>
										<duration>6293</duration>
										<rate>
											<timebase>30</timebase>
											<ntsc>TRUE</ntsc>
										</rate>
										<start>115</start>
										<end>3532</end>
										<in>30</in>
										<out>3447</out>
										<pproTicksIn>254270016000</pproTicksIn>
										<pproTicksOut>29215624838400</pproTicksOut>
										<alphatype>straight</alphatype>
										<pixelaspectratio>square</pixelaspectratio>
										<anamorphic>FALSE</anamorphic>
										<file id="file-115">
											<name>EYECANDY_L3RD_JL_V03/EYECANDY_L3rd_JL_V04.aep</name>
											<pathurl>file://localhost/Volumes/ATM%201/EYE%20CANDY/Project%20Template/5_Assets/Eye%20Candy%20Mograph/EYECANDY_L3rd_JL_V04%20folder/EYECANDY_L3rd_JL_V04.aep</pathurl>
											<rate>
												<timebase>30</timebase>
												<ntsc>FALSE</ntsc>
											</rate>
											<duration>6300</duration>
											<timecode>
												<rate>
													<timebase>30</timebase>
													<ntsc>FALSE</ntsc>
												</rate>
												<string>00:00:00:00</string>
												<frame>0</frame>
												<displayformat>NDF</displayformat>
											</timecode>
											<media>
												<video>
													<samplecharacteristics>
														<rate>
															<timebase>30</timebase>
															<ntsc>FALSE</ntsc>
														</rate>
														<width>1920</width>
														<height>1080</height>
														<anamorphic>FALSE</anamorphic>
														<pixelaspectratio>square</pixelaspectratio>
														<fielddominance>lower</fielddominance>
													</samplecharacteristics>
												</video>
											</media>
										</file>
										<logginginfo>
											<description></description>
											<scene></scene>
											<shottake></shottake>
											<lognote></lognote>
											<good></good>
											<originalvideofilename></originalvideofilename>
											<originalaudiofilename></originalaudiofilename>
										</logginginfo>
										<colorinfo>
											<lut></lut>
											<lut1></lut1>
											<asc_sop></asc_sop>
											<asc_sat></asc_sat>
											<lut2></lut2>
										</colorinfo>
									</clipitem>
									<clipitem id="clipitem-312">
										<masterclipid>masterclip-134</masterclipid>
										<name>Fresh Morning Fruit</name>
										<enabled>TRUE</enabled>
										<duration>6293</duration>
										<rate>
											<timebase>30</timebase>
											<ntsc>TRUE</ntsc>
										</rate>
										<start>3594</start>
										<end>5379</end>
										<in>30</in>
										<out>1815</out>
										<pproTicksIn>254270016000</pproTicksIn>
										<pproTicksOut>15383335968000</pproTicksOut>
										<alphatype>straight</alphatype>
										<pixelaspectratio>square</pixelaspectratio>
										<anamorphic>FALSE</anamorphic>
										<file id="file-116">
											<name>EYECANDY_L3RD_JL_V03/EYECANDY_L3rd_JL_V04.aep</name>
											<pathurl>file://localhost/Volumes/ATM%201/EYE%20CANDY/Project%20Template/5_Assets/Eye%20Candy%20Mograph/EYECANDY_L3rd_JL_V04%20folder/EYECANDY_L3rd_JL_V04.aep</pathurl>
											<rate>
												<timebase>30</timebase>
												<ntsc>FALSE</ntsc>
											</rate>
											<duration>6300</duration>
											<timecode>
												<rate>
													<timebase>30</timebase>
													<ntsc>FALSE</ntsc>
												</rate>
												<string>00:00:00:00</string>
												<frame>0</frame>
												<displayformat>NDF</displayformat>
											</timecode>
											<media>
												<video>
													<samplecharacteristics>
														<rate>
															<timebase>30</timebase>
															<ntsc>FALSE</ntsc>
														</rate>
														<width>1920</width>
														<height>1080</height>
														<anamorphic>FALSE</anamorphic>
														<pixelaspectratio>square</pixelaspectratio>
														<fielddominance>lower</fielddominance>
													</samplecharacteristics>
												</video>
											</media>
										</file>
										<logginginfo>
											<description></description>
											<scene></scene>
											<shottake></shottake>
											<lognote></lognote>
											<good></good>
											<originalvideofilename></originalvideofilename>
											<originalaudiofilename></originalaudiofilename>
										</logginginfo>
										<colorinfo>
											<lut></lut>
											<lut1></lut1>
											<asc_sop></asc_sop>
											<asc_sat></asc_sat>
											<lut2></lut2>
										</colorinfo>
									</clipitem>
									<enabled>TRUE</enabled>
									<locked>FALSE</locked>
								</track>
								<track TL.SQTrackShy="0" TL.SQTrackExpandedHeight="25" TL.SQTrackExpanded="0" MZ.TrackTargeted="0">
									<clipitem id="clipitem-313">
										<masterclipid>masterclip-19</masterclipid>
										<name>Intro</name>
										<enabled>TRUE</enabled>
										<duration>160</duration>
										<rate>
											<timebase>30</timebase>
											<ntsc>TRUE</ntsc>
										</rate>
										<start>0</start>
										<end>115</end>
										<in>0</in>
										<out>115</out>
										<pproTicksIn>0</pproTicksIn>
										<pproTicksOut>974701728000</pproTicksOut>
										<sequence id="sequence-4"/>
											<marker>
												<comment></comment>
												<name></name>
												<in>82</in>
												<out>-1</out>
											</marker>
										<link>
											<linkclipref>clipitem-313</linkclipref>
											<mediatype>video</mediatype>
											<trackindex>4</trackindex>
											<clipindex>1</clipindex>
										</link>
										<link>
											<linkclipref>clipitem-320</linkclipref>
											<mediatype>audio</mediatype>
											<trackindex>3</trackindex>
											<clipindex>1</clipindex>
											<groupindex>1</groupindex>
										</link>
										<link>
											<linkclipref>clipitem-322</linkclipref>
											<mediatype>audio</mediatype>
											<trackindex>4</trackindex>
											<clipindex>1</clipindex>
											<groupindex>1</groupindex>
										</link>
										<labels>
											<label2>Forest</label2>
										</labels>
									</clipitem>
									<clipitem id="clipitem-314">
										<masterclipid>masterclip-42</masterclipid>
										<name>Transition 1</name>
										<enabled>TRUE</enabled>
										<duration>160</duration>
										<rate>
											<timebase>30</timebase>
											<ntsc>TRUE</ntsc>
										</rate>
										<start>3476</start>
										<end>3594</end>
										<in>0</in>
										<out>118</out>
										<pproTicksIn>0</pproTicksIn>
										<pproTicksOut>1000128729600</pproTicksOut>
										<sequence id="sequence-11"/>
											<marker>
												<comment></comment>
												<name></name>
												<in>56</in>
												<out>-1</out>
											</marker>
										<link>
											<linkclipref>clipitem-314</linkclipref>
											<mediatype>video</mediatype>
											<trackindex>4</trackindex>
											<clipindex>2</clipindex>
										</link>
										<link>
											<linkclipref>clipitem-321</linkclipref>
											<mediatype>audio</mediatype>
											<trackindex>3</trackindex>
											<clipindex>2</clipindex>
											<groupindex>1</groupindex>
										</link>
										<link>
											<linkclipref>clipitem-323</linkclipref>
											<mediatype>audio</mediatype>
											<trackindex>4</trackindex>
											<clipindex>2</clipindex>
											<groupindex>1</groupindex>
										</link>
										<labels>
											<label2>Forest</label2>
										</labels>
									</clipitem>
									<clipitem id="clipitem-315">
										<masterclipid>masterclip-23</masterclipid>
										<name>Outro</name>
										<enabled>TRUE</enabled>
										<duration>160</duration>
										<rate>
											<timebase>30</timebase>
											<ntsc>TRUE</ntsc>
										</rate>
										<start>5337</start>
										<end>5474</end>
										<in>0</in>
										<out>137</out>
										<pproTicksIn>0</pproTicksIn>
										<pproTicksOut>1161166406400</pproTicksOut>
										<sequence id="sequence-6"/>
											<marker>
												<comment></comment>
												<name></name>
												<in>42</in>
												<out>-1</out>
											</marker>
										<link>
											<linkclipref>clipitem-315</linkclipref>
											<mediatype>video</mediatype>
											<trackindex>4</trackindex>
											<clipindex>3</clipindex>
										</link>
										<link>
											<linkclipref>clipitem-324</linkclipref>
											<mediatype>audio</mediatype>
											<trackindex>5</trackindex>
											<clipindex>1</clipindex>
											<groupindex>1</groupindex>
										</link>
										<link>
											<linkclipref>clipitem-325</linkclipref>
											<mediatype>audio</mediatype>
											<trackindex>6</trackindex>
											<clipindex>1</clipindex>
											<groupindex>1</groupindex>
										</link>
										<labels>
											<label2>Forest</label2>
										</labels>
									</clipitem>
									<enabled>TRUE</enabled>
									<locked>FALSE</locked>
								</track>
							</video>
							<audio>
								<numOutputChannels>2</numOutputChannels>
								<format>
									<samplecharacteristics>
										<depth>16</depth>
										<samplerate>48000</samplerate>
									</samplecharacteristics>
								</format>
								<outputs>
									<group>
										<index>1</index>
										<numchannels>1</numchannels>
										<downmix>0</downmix>
										<channel>
											<index>1</index>
										</channel>
									</group>
									<group>
										<index>2</index>
										<numchannels>1</numchannels>
										<downmix>0</downmix>
										<channel>
											<index>2</index>
										</channel>
									</group>
								</outputs>
								<track TL.SQTrackAudioKeyframeStyle="0" TL.SQTrackShy="0" TL.SQTrackExpandedHeight="25" TL.SQTrackExpanded="0" MZ.TrackTargeted="1" PannerCurrentValue="0.5" PannerIsInverted="true" PannerStartKeyframe="-91445760000000000,0.5,0,0,0,0,0,0" PannerName="Balance" currentExplodedTrackIndex="0" totalExplodedTrackCount="2" premiereTrackType="Stereo">
									<clipitem id="clipitem-316" premiereChannelType="stereo">
										<masterclipid>masterclip-115</masterclipid>
										<name>Not Quite Ice Cream_2</name>
										<enabled>TRUE</enabled>
										<duration>5700</duration>
										<rate>
											<timebase>30</timebase>
											<ntsc>TRUE</ntsc>
										</rate>
										<start>82</start>
										<end>-1</end>
										<in>0</in>
										<out>3450</out>
										<pproTicksIn>0</pproTicksIn>
										<pproTicksOut>29241051840000</pproTicksOut>
										<sequence id="sequence-23"/>
										<sourcetrack>
											<mediatype>audio</mediatype>
											<trackindex>0</trackindex>
										</sourcetrack>
										<link>
											<linkclipref>clipitem-265</linkclipref>
											<mediatype>video</mediatype>
											<trackindex>1</trackindex>
											<clipindex>1</clipindex>
										</link>
										<link>
											<linkclipref>clipitem-316</linkclipref>
											<mediatype>audio</mediatype>
											<trackindex>1</trackindex>
											<clipindex>1</clipindex>
											<groupindex>1</groupindex>
										</link>
										<link>
											<linkclipref>clipitem-318</linkclipref>
											<mediatype>audio</mediatype>
											<trackindex>2</trackindex>
											<clipindex>1</clipindex>
											<groupindex>1</groupindex>
										</link>
										<labels>
											<label2>Forest</label2>
										</labels>
									</clipitem>
									<transitionitem>
										<start>3502</start>
										<end>3532</end>
										<pproTicksIn>29681786534400</pproTicksIn>
										<pproTicksOut>29936056550400</pproTicksOut>
										<alignment>end-black</alignment>
										<cutPointTicks>254270016000</cutPointTicks>
										<rate>
											<timebase>30</timebase>
											<ntsc>TRUE</ntsc>
										</rate>
										<effect>
											<name>Cross Fade ( 0dB)</name>
											<effectid>KGAudioTransCrossFade0dB</effectid>
											<effecttype>transition</effecttype>
											<mediatype>audio</mediatype>
											<wipecode>0</wipecode>
											<wipeaccuracy>100</wipeaccuracy>
											<startratio>0</startratio>
											<endratio>1</endratio>
											<reverse>FALSE</reverse>
										</effect>
									</transitionitem>
									<clipitem id="clipitem-317" premiereChannelType="stereo">
										<masterclipid>masterclip-123</masterclipid>
										<name>Fresh Morning Fruit_1</name>
										<enabled>TRUE</enabled>
										<duration>2245</duration>
										<rate>
											<timebase>30</timebase>
											<ntsc>TRUE</ntsc>
										</rate>
										<start>3532</start>
										<end>-1</end>
										<in>0</in>
										<out>1847</out>
										<pproTicksIn>0</pproTicksIn>
										<pproTicksOut>15654557318400</pproTicksOut>
										<sequence id="sequence-24"/>
										<sourcetrack>
											<mediatype>audio</mediatype>
											<trackindex>0</trackindex>
										</sourcetrack>
										<link>
											<linkclipref>clipitem-299</linkclipref>
											<mediatype>video</mediatype>
											<trackindex>1</trackindex>
											<clipindex>2</clipindex>
										</link>
										<link>
											<linkclipref>clipitem-317</linkclipref>
											<mediatype>audio</mediatype>
											<trackindex>1</trackindex>
											<clipindex>3</clipindex>
											<groupindex>1</groupindex>
										</link>
										<link>
											<linkclipref>clipitem-319</linkclipref>
											<mediatype>audio</mediatype>
											<trackindex>2</trackindex>
											<clipindex>3</clipindex>
											<groupindex>1</groupindex>
										</link>
										<labels>
											<label2>Forest</label2>
										</labels>
									</clipitem>
									<transitionitem>
										<start>5349</start>
										<end>5379</end>
										<pproTicksIn>45336343852800</pproTicksIn>
										<pproTicksOut>45590613868800</pproTicksOut>
										<alignment>end-black</alignment>
										<cutPointTicks>254270016000</cutPointTicks>
										<rate>
											<timebase>30</timebase>
											<ntsc>TRUE</ntsc>
										</rate>
										<effect>
											<name>Cross Fade ( 0dB)</name>
											<effectid>KGAudioTransCrossFade0dB</effectid>
											<effecttype>transition</effecttype>
											<mediatype>audio</mediatype>
											<wipecode>0</wipecode>
											<wipeaccuracy>100</wipeaccuracy>
											<startratio>0</startratio>
											<endratio>1</endratio>
											<reverse>FALSE</reverse>
										</effect>
									</transitionitem>
									<enabled>TRUE</enabled>
									<locked>FALSE</locked>
									<outputchannelindex>1</outputchannelindex>
								</track>
								<track TL.SQTrackAudioKeyframeStyle="0" TL.SQTrackShy="0" TL.SQTrackExpandedHeight="25" TL.SQTrackExpanded="0" MZ.TrackTargeted="1" PannerCurrentValue="0.5" PannerIsInverted="true" PannerStartKeyframe="-91445760000000000,0.5,0,0,0,0,0,0" PannerName="Balance" currentExplodedTrackIndex="1" totalExplodedTrackCount="2" premiereTrackType="Stereo">
									<clipitem id="clipitem-318" premiereChannelType="stereo">
										<masterclipid>masterclip-115</masterclipid>
										<name>Not Quite Ice Cream_2</name>
										<enabled>TRUE</enabled>
										<duration>5700</duration>
										<rate>
											<timebase>30</timebase>
											<ntsc>TRUE</ntsc>
										</rate>
										<start>82</start>
										<end>-1</end>
										<in>0</in>
										<out>3450</out>
										<pproTicksIn>0</pproTicksIn>
										<pproTicksOut>29241051840000</pproTicksOut>
										<sequence id="sequence-23"/>
										<sourcetrack>
											<mediatype>audio</mediatype>
											<trackindex>1</trackindex>
										</sourcetrack>
										<link>
											<linkclipref>clipitem-265</linkclipref>
											<mediatype>video</mediatype>
											<trackindex>1</trackindex>
											<clipindex>1</clipindex>
										</link>
										<link>
											<linkclipref>clipitem-316</linkclipref>
											<mediatype>audio</mediatype>
											<trackindex>1</trackindex>
											<clipindex>1</clipindex>
											<groupindex>1</groupindex>
										</link>
										<link>
											<linkclipref>clipitem-318</linkclipref>
											<mediatype>audio</mediatype>
											<trackindex>2</trackindex>
											<clipindex>1</clipindex>
											<groupindex>1</groupindex>
										</link>
										<labels>
											<label2>Forest</label2>
										</labels>
									</clipitem>
									<transitionitem>
										<start>3502</start>
										<end>3532</end>
										<pproTicksIn>29681786534400</pproTicksIn>
										<pproTicksOut>29936056550400</pproTicksOut>
										<alignment>end-black</alignment>
										<cutPointTicks>254270016000</cutPointTicks>
										<rate>
											<timebase>30</timebase>
											<ntsc>TRUE</ntsc>
										</rate>
										<effect>
											<name>Cross Fade ( 0dB)</name>
											<effectid>KGAudioTransCrossFade0dB</effectid>
											<effecttype>transition</effecttype>
											<mediatype>audio</mediatype>
											<wipecode>0</wipecode>
											<wipeaccuracy>100</wipeaccuracy>
											<startratio>0</startratio>
											<endratio>1</endratio>
											<reverse>FALSE</reverse>
										</effect>
									</transitionitem>
									<clipitem id="clipitem-319" premiereChannelType="stereo">
										<masterclipid>masterclip-123</masterclipid>
										<name>Fresh Morning Fruit_1</name>
										<enabled>TRUE</enabled>
										<duration>2245</duration>
										<rate>
											<timebase>30</timebase>
											<ntsc>TRUE</ntsc>
										</rate>
										<start>3532</start>
										<end>-1</end>
										<in>0</in>
										<out>1847</out>
										<pproTicksIn>0</pproTicksIn>
										<pproTicksOut>15654557318400</pproTicksOut>
										<sequence id="sequence-24"/>
										<sourcetrack>
											<mediatype>audio</mediatype>
											<trackindex>1</trackindex>
										</sourcetrack>
										<link>
											<linkclipref>clipitem-299</linkclipref>
											<mediatype>video</mediatype>
											<trackindex>1</trackindex>
											<clipindex>2</clipindex>
										</link>
										<link>
											<linkclipref>clipitem-317</linkclipref>
											<mediatype>audio</mediatype>
											<trackindex>1</trackindex>
											<clipindex>3</clipindex>
											<groupindex>1</groupindex>
										</link>
										<link>
											<linkclipref>clipitem-319</linkclipref>
											<mediatype>audio</mediatype>
											<trackindex>2</trackindex>
											<clipindex>3</clipindex>
											<groupindex>1</groupindex>
										</link>
										<labels>
											<label2>Forest</label2>
										</labels>
									</clipitem>
									<transitionitem>
										<start>5349</start>
										<end>5379</end>
										<pproTicksIn>45336343852800</pproTicksIn>
										<pproTicksOut>45590613868800</pproTicksOut>
										<alignment>end-black</alignment>
										<cutPointTicks>254270016000</cutPointTicks>
										<rate>
											<timebase>30</timebase>
											<ntsc>TRUE</ntsc>
										</rate>
										<effect>
											<name>Cross Fade ( 0dB)</name>
											<effectid>KGAudioTransCrossFade0dB</effectid>
											<effecttype>transition</effecttype>
											<mediatype>audio</mediatype>
											<wipecode>0</wipecode>
											<wipeaccuracy>100</wipeaccuracy>
											<startratio>0</startratio>
											<endratio>1</endratio>
											<reverse>FALSE</reverse>
										</effect>
									</transitionitem>
									<enabled>TRUE</enabled>
									<locked>FALSE</locked>
									<outputchannelindex>2</outputchannelindex>
								</track>
								<track TL.SQTrackAudioKeyframeStyle="0" TL.SQTrackShy="0" TL.SQTrackExpandedHeight="25" TL.SQTrackExpanded="0" MZ.TrackTargeted="1" PannerCurrentValue="0.5" PannerIsInverted="true" PannerStartKeyframe="-91445760000000000,0.5,0,0,0,0,0,0" PannerName="Balance" currentExplodedTrackIndex="0" totalExplodedTrackCount="2" premiereTrackType="Stereo">
									<clipitem id="clipitem-320" premiereChannelType="stereo">
										<masterclipid>masterclip-19</masterclipid>
										<name>Intro</name>
										<enabled>TRUE</enabled>
										<duration>160</duration>
										<rate>
											<timebase>30</timebase>
											<ntsc>TRUE</ntsc>
										</rate>
										<start>0</start>
										<end>115</end>
										<in>0</in>
										<out>115</out>
										<pproTicksIn>0</pproTicksIn>
										<pproTicksOut>974701728000</pproTicksOut>
										<sequence id="sequence-4"/>
										<sourcetrack>
											<mediatype>audio</mediatype>
											<trackindex>0</trackindex>
										</sourcetrack>
											<marker>
												<comment></comment>
												<name></name>
												<in>82</in>
												<out>-1</out>
											</marker>
										<link>
											<linkclipref>clipitem-313</linkclipref>
											<mediatype>video</mediatype>
											<trackindex>4</trackindex>
											<clipindex>1</clipindex>
										</link>
										<link>
											<linkclipref>clipitem-320</linkclipref>
											<mediatype>audio</mediatype>
											<trackindex>3</trackindex>
											<clipindex>1</clipindex>
											<groupindex>1</groupindex>
										</link>
										<link>
											<linkclipref>clipitem-322</linkclipref>
											<mediatype>audio</mediatype>
											<trackindex>4</trackindex>
											<clipindex>1</clipindex>
											<groupindex>1</groupindex>
										</link>
										<labels>
											<label2>Forest</label2>
										</labels>
									</clipitem>
									<clipitem id="clipitem-321" premiereChannelType="stereo">
										<masterclipid>masterclip-42</masterclipid>
										<name>Transition 1</name>
										<enabled>TRUE</enabled>
										<duration>160</duration>
										<rate>
											<timebase>30</timebase>
											<ntsc>TRUE</ntsc>
										</rate>
										<start>3476</start>
										<end>3594</end>
										<in>0</in>
										<out>118</out>
										<pproTicksIn>0</pproTicksIn>
										<pproTicksOut>1000128729600</pproTicksOut>
										<sequence id="sequence-11"/>
										<sourcetrack>
											<mediatype>audio</mediatype>
											<trackindex>0</trackindex>
										</sourcetrack>
											<marker>
												<comment></comment>
												<name></name>
												<in>56</in>
												<out>-1</out>
											</marker>
										<link>
											<linkclipref>clipitem-314</linkclipref>
											<mediatype>video</mediatype>
											<trackindex>4</trackindex>
											<clipindex>2</clipindex>
										</link>
										<link>
											<linkclipref>clipitem-321</linkclipref>
											<mediatype>audio</mediatype>
											<trackindex>3</trackindex>
											<clipindex>2</clipindex>
											<groupindex>1</groupindex>
										</link>
										<link>
											<linkclipref>clipitem-323</linkclipref>
											<mediatype>audio</mediatype>
											<trackindex>4</trackindex>
											<clipindex>2</clipindex>
											<groupindex>1</groupindex>
										</link>
										<labels>
											<label2>Forest</label2>
										</labels>
									</clipitem>
									<enabled>TRUE</enabled>
									<locked>FALSE</locked>
									<outputchannelindex>1</outputchannelindex>
								</track>
								<track TL.SQTrackAudioKeyframeStyle="0" TL.SQTrackShy="0" TL.SQTrackExpandedHeight="25" TL.SQTrackExpanded="0" MZ.TrackTargeted="1" PannerCurrentValue="0.5" PannerIsInverted="true" PannerStartKeyframe="-91445760000000000,0.5,0,0,0,0,0,0" PannerName="Balance" currentExplodedTrackIndex="1" totalExplodedTrackCount="2" premiereTrackType="Stereo">
									<clipitem id="clipitem-322" premiereChannelType="stereo">
										<masterclipid>masterclip-19</masterclipid>
										<name>Intro</name>
										<enabled>TRUE</enabled>
										<duration>160</duration>
										<rate>
											<timebase>30</timebase>
											<ntsc>TRUE</ntsc>
										</rate>
										<start>0</start>
										<end>115</end>
										<in>0</in>
										<out>115</out>
										<pproTicksIn>0</pproTicksIn>
										<pproTicksOut>974701728000</pproTicksOut>
										<sequence id="sequence-4"/>
										<sourcetrack>
											<mediatype>audio</mediatype>
											<trackindex>1</trackindex>
										</sourcetrack>
											<marker>
												<comment></comment>
												<name></name>
												<in>82</in>
												<out>-1</out>
											</marker>
										<link>
											<linkclipref>clipitem-313</linkclipref>
											<mediatype>video</mediatype>
											<trackindex>4</trackindex>
											<clipindex>1</clipindex>
										</link>
										<link>
											<linkclipref>clipitem-320</linkclipref>
											<mediatype>audio</mediatype>
											<trackindex>3</trackindex>
											<clipindex>1</clipindex>
											<groupindex>1</groupindex>
										</link>
										<link>
											<linkclipref>clipitem-322</linkclipref>
											<mediatype>audio</mediatype>
											<trackindex>4</trackindex>
											<clipindex>1</clipindex>
											<groupindex>1</groupindex>
										</link>
										<labels>
											<label2>Forest</label2>
										</labels>
									</clipitem>
									<clipitem id="clipitem-323" premiereChannelType="stereo">
										<masterclipid>masterclip-42</masterclipid>
										<name>Transition 1</name>
										<enabled>TRUE</enabled>
										<duration>160</duration>
										<rate>
											<timebase>30</timebase>
											<ntsc>TRUE</ntsc>
										</rate>
										<start>3476</start>
										<end>3594</end>
										<in>0</in>
										<out>118</out>
										<pproTicksIn>0</pproTicksIn>
										<pproTicksOut>1000128729600</pproTicksOut>
										<sequence id="sequence-11"/>
										<sourcetrack>
											<mediatype>audio</mediatype>
											<trackindex>1</trackindex>
										</sourcetrack>
											<marker>
												<comment></comment>
												<name></name>
												<in>56</in>
												<out>-1</out>
											</marker>
										<link>
											<linkclipref>clipitem-314</linkclipref>
											<mediatype>video</mediatype>
											<trackindex>4</trackindex>
											<clipindex>2</clipindex>
										</link>
										<link>
											<linkclipref>clipitem-321</linkclipref>
											<mediatype>audio</mediatype>
											<trackindex>3</trackindex>
											<clipindex>2</clipindex>
											<groupindex>1</groupindex>
										</link>
										<link>
											<linkclipref>clipitem-323</linkclipref>
											<mediatype>audio</mediatype>
											<trackindex>4</trackindex>
											<clipindex>2</clipindex>
											<groupindex>1</groupindex>
										</link>
										<labels>
											<label2>Forest</label2>
										</labels>
									</clipitem>
									<enabled>TRUE</enabled>
									<locked>FALSE</locked>
									<outputchannelindex>2</outputchannelindex>
								</track>
								<track TL.SQTrackAudioKeyframeStyle="0" TL.SQTrackShy="0" TL.SQTrackExpandedHeight="25" TL.SQTrackExpanded="0" MZ.TrackTargeted="1" PannerCurrentValue="0.5" PannerIsInverted="true" PannerStartKeyframe="-91445760000000000,0.5,0,0,0,0,0,0" PannerName="Balance" currentExplodedTrackIndex="0" totalExplodedTrackCount="2" premiereTrackType="Stereo">
									<clipitem id="clipitem-324" premiereChannelType="stereo">
										<masterclipid>masterclip-23</masterclipid>
										<name>Outro</name>
										<enabled>TRUE</enabled>
										<duration>160</duration>
										<rate>
											<timebase>30</timebase>
											<ntsc>TRUE</ntsc>
										</rate>
										<start>5337</start>
										<end>5474</end>
										<in>0</in>
										<out>137</out>
										<pproTicksIn>0</pproTicksIn>
										<pproTicksOut>1161166406400</pproTicksOut>
										<sequence id="sequence-6"/>
										<sourcetrack>
											<mediatype>audio</mediatype>
											<trackindex>0</trackindex>
										</sourcetrack>
											<marker>
												<comment></comment>
												<name></name>
												<in>42</in>
												<out>-1</out>
											</marker>
										<link>
											<linkclipref>clipitem-315</linkclipref>
											<mediatype>video</mediatype>
											<trackindex>4</trackindex>
											<clipindex>3</clipindex>
										</link>
										<link>
											<linkclipref>clipitem-324</linkclipref>
											<mediatype>audio</mediatype>
											<trackindex>5</trackindex>
											<clipindex>1</clipindex>
											<groupindex>1</groupindex>
										</link>
										<link>
											<linkclipref>clipitem-325</linkclipref>
											<mediatype>audio</mediatype>
											<trackindex>6</trackindex>
											<clipindex>1</clipindex>
											<groupindex>1</groupindex>
										</link>
										<labels>
											<label2>Forest</label2>
										</labels>
									</clipitem>
									<enabled>TRUE</enabled>
									<locked>FALSE</locked>
									<outputchannelindex>1</outputchannelindex>
								</track>
								<track TL.SQTrackAudioKeyframeStyle="0" TL.SQTrackShy="0" TL.SQTrackExpandedHeight="25" TL.SQTrackExpanded="0" MZ.TrackTargeted="1" PannerCurrentValue="0.5" PannerIsInverted="true" PannerStartKeyframe="-91445760000000000,0.5,0,0,0,0,0,0" PannerName="Balance" currentExplodedTrackIndex="1" totalExplodedTrackCount="2" premiereTrackType="Stereo">
									<clipitem id="clipitem-325" premiereChannelType="stereo">
										<masterclipid>masterclip-23</masterclipid>
										<name>Outro</name>
										<enabled>TRUE</enabled>
										<duration>160</duration>
										<rate>
											<timebase>30</timebase>
											<ntsc>TRUE</ntsc>
										</rate>
										<start>5337</start>
										<end>5474</end>
										<in>0</in>
										<out>137</out>
										<pproTicksIn>0</pproTicksIn>
										<pproTicksOut>1161166406400</pproTicksOut>
										<sequence id="sequence-6"/>
										<sourcetrack>
											<mediatype>audio</mediatype>
											<trackindex>1</trackindex>
										</sourcetrack>
											<marker>
												<comment></comment>
												<name></name>
												<in>42</in>
												<out>-1</out>
											</marker>
										<link>
											<linkclipref>clipitem-315</linkclipref>
											<mediatype>video</mediatype>
											<trackindex>4</trackindex>
											<clipindex>3</clipindex>
										</link>
										<link>
											<linkclipref>clipitem-324</linkclipref>
											<mediatype>audio</mediatype>
											<trackindex>5</trackindex>
											<clipindex>1</clipindex>
											<groupindex>1</groupindex>
										</link>
										<link>
											<linkclipref>clipitem-325</linkclipref>
											<mediatype>audio</mediatype>
											<trackindex>6</trackindex>
											<clipindex>1</clipindex>
											<groupindex>1</groupindex>
										</link>
										<labels>
											<label2>Forest</label2>
										</labels>
									</clipitem>
									<enabled>TRUE</enabled>
									<locked>FALSE</locked>
									<outputchannelindex>2</outputchannelindex>
								</track>
							</audio>
						</media>
						<timecode>
							<rate>
								<timebase>30</timebase>
								<ntsc>TRUE</ntsc>
							</rate>
							<string>00;00;00;00</string>
							<frame>0</frame>
							<displayformat>DF</displayformat>
						</timecode>
						<labels>
							<label2>Forest</label2>
						</labels>
						<logginginfo>
							<description></description>
							<scene></scene>
							<shottake></shottake>
							<lognote></lognote>
							<good></good>
							<originalvideofilename></originalvideofilename>
							<originalaudiofilename></originalaudiofilename>
						</logginginfo>
					</sequence>
					<sequence id="sequence-25" TL.SQAudioVisibleBase="0" TL.SQVideoVisibleBase="0" TL.SQVisibleBaseTime="0" TL.SQAVDividerPosition="0.5" TL.SQHideShyTracks="0" TL.SQHeaderWidth="236" TL.SQDataTrackViewControlState="0" Monitor.ProgramZoomOut="43488648403200" Monitor.ProgramZoomIn="0" TL.SQTimePerPixel="0.19673580782312927" AM.TrackVScrollPosition="0" AM.TrackScrollPosition="0" MZ.EditLine="0" MZ.Sequence.PreviewFrameSizeHeight="1080" MZ.Sequence.PreviewFrameSizeWidth="1920" MZ.Sequence.AudioTimeDisplayFormat="200" MZ.Sequence.PreviewRenderingClassID="1061109567" MZ.Sequence.PreviewRenderingPresetCodec="1634755443" MZ.Sequence.PreviewRenderingPresetPath="EncoderPresets/SequencePreview/35d109db-457b-43c1-9452-9cb7be9f121c/QuickTime.epr" MZ.Sequence.PreviewUseMaxRenderQuality="false" MZ.Sequence.PreviewUseMaxBitDepth="false" MZ.Sequence.EditingModeGUID="35d109db-457b-43c1-9452-9cb7be9f121c" MZ.Sequence.VideoTimeDisplayFormat="102" MZ.WorkOutPoint="15239249625600" MZ.WorkInPoint="0" explodedTracks="true">
						<uuid>ae0f73f3-f1ae-44bb-aa56-a99d58a2e793</uuid>
						<duration>5036</duration>
						<rate>
							<timebase>30</timebase>
							<ntsc>TRUE</ntsc>
						</rate>
						<name>ATM_EYECANDY_245</name>
						<media>
							<video>
								<format>
									<samplecharacteristics>
										<rate>
											<timebase>30</timebase>
											<ntsc>TRUE</ntsc>
										</rate>
										<codec>
											<name>Apple ProRes 422</name>
											<appspecificdata>
												<appname>Final Cut Pro</appname>
												<appmanufacturer>Apple Inc.</appmanufacturer>
												<appversion>7.0</appversion>
												<data>
													<qtcodec>
														<codecname>Apple ProRes 422</codecname>
														<codectypename>Apple ProRes 422</codectypename>
														<codectypecode>apcn</codectypecode>
														<codecvendorcode>appl</codecvendorcode>
														<spatialquality>1024</spatialquality>
														<temporalquality>0</temporalquality>
														<keyframerate>0</keyframerate>
														<datarate>0</datarate>
													</qtcodec>
												</data>
											</appspecificdata>
										</codec>
										<width>1920</width>
										<height>1080</height>
										<anamorphic>FALSE</anamorphic>
										<pixelaspectratio>square</pixelaspectratio>
										<fielddominance>none</fielddominance>
										<colordepth>24</colordepth>
									</samplecharacteristics>
								</format>
								<track TL.SQTrackShy="0" TL.SQTrackExpandedHeight="25" TL.SQTrackExpanded="0" MZ.TrackTargeted="1">
									<clipitem id="clipitem-326">
										<masterclipid>masterclip-135</masterclipid>
										<name>Cupcaked Up_1</name>
										<enabled>TRUE</enabled>
										<duration>1958</duration>
										<rate>
											<timebase>30</timebase>
											<ntsc>TRUE</ntsc>
										</rate>
										<start>82</start>
										<end>1649</end>
										<in>0</in>
										<out>1567</out>
										<pproTicksIn>0</pproTicksIn>
										<pproTicksOut>13281370502400</pproTicksOut>
										<sequence id="sequence-26" TL.SQAudioVisibleBase="0" TL.SQVideoVisibleBase="0" TL.SQVisibleBaseTime="0" TL.SQAVDividerPosition="0.5" TL.SQHideShyTracks="0" TL.SQHeaderWidth="236" TL.SQDataTrackViewControlState="0" Monitor.ProgramZoomOut="13281370502400" Monitor.ProgramZoomIn="0" TL.SQTimePerPixel="0.072184793070243544" AM.TrackVScrollPosition="0" AM.TrackScrollPosition="0" MZ.EditLine="2381662483200" MZ.Sequence.PreviewFrameSizeHeight="1080" MZ.Sequence.PreviewFrameSizeWidth="1920" MZ.Sequence.AudioTimeDisplayFormat="200" MZ.Sequence.PreviewRenderingClassID="1061109567" MZ.Sequence.PreviewRenderingPresetCodec="1634755443" MZ.Sequence.PreviewRenderingPresetPath="EncoderPresets/SequencePreview/35d109db-457b-43c1-9452-9cb7be9f121c/QuickTime.epr" MZ.Sequence.PreviewUseMaxRenderQuality="false" MZ.Sequence.PreviewUseMaxBitDepth="false" MZ.Sequence.EditingModeGUID="35d109db-457b-43c1-9452-9cb7be9f121c" MZ.Sequence.VideoTimeDisplayFormat="102" MZ.WorkOutPoint="1262874412800" MZ.WorkInPoint="0">
											<duration>1567</duration>
											<rate>
												<timebase>30</timebase>
												<ntsc>TRUE</ntsc>
											</rate>
											<name>FND_Cupcaked Up_1</name>
											<media>
												<video>
													<format>
														<samplecharacteristics>
															<rate>
																<timebase>30</timebase>
																<ntsc>TRUE</ntsc>
															</rate>
															<codec>
																<name>Apple ProRes 422</name>
																<appspecificdata>
																	<appname>Final Cut Pro</appname>
																	<appmanufacturer>Apple Inc.</appmanufacturer>
																	<appversion>7.0</appversion>
																	<data>
																		<qtcodec>
																			<codecname>Apple ProRes 422</codecname>
																			<codectypename>Apple ProRes 422</codectypename>
																			<codectypecode>apcn</codectypecode>
																			<codecvendorcode>appl</codecvendorcode>
																			<spatialquality>1024</spatialquality>
																			<temporalquality>0</temporalquality>
																			<keyframerate>0</keyframerate>
																			<datarate>0</datarate>
																		</qtcodec>
																	</data>
																</appspecificdata>
															</codec>
															<width>1920</width>
															<height>1080</height>
															<anamorphic>FALSE</anamorphic>
															<pixelaspectratio>square</pixelaspectratio>
															<fielddominance>none</fielddominance>
															<colordepth>24</colordepth>
														</samplecharacteristics>
													</format>
													<track TL.SQTrackShy="0" TL.SQTrackExpandedHeight="25" TL.SQTrackExpanded="0" MZ.TrackTargeted="1">
														<clipitem id="clipitem-327">
															<masterclipid>masterclip-136</masterclipid>
															<name>(sugarandsparrowco)_B4c64wKpARD_IG.mp4</name>
															<enabled>TRUE</enabled>
															<duration>1792</duration>
															<rate>
																<timebase>30</timebase>
																<ntsc>TRUE</ntsc>
															</rate>
															<start>0</start>
															<end>1567</end>
															<in>0</in>
															<out>1567</out>
															<pproTicksIn>0</pproTicksIn>
															<pproTicksOut>13281370502400</pproTicksOut>
															<alphatype>none</alphatype>
															<pixelaspectratio>square</pixelaspectratio>
															<anamorphic>FALSE</anamorphic>
															<file id="file-117">
																<name>(sugarandsparrowco)_B4c64wKpARD_IG.mp4</name>
																<pathurl>file://localhost/Volumes/ATM%201/EYE%20CANDY/8%3a14%3a23/3_Raw%20Files/(sugarandsparrowco)_B4c64wKpARD_IG.mp4</pathurl>
																<rate>
																	<timebase>30</timebase>
																	<ntsc>FALSE</ntsc>
																</rate>
																<duration>1794</duration>
																<timecode>
																	<rate>
																		<timebase>30</timebase>
																		<ntsc>FALSE</ntsc>
																	</rate>
																	<string>00:00:00:00</string>
																	<frame>0</frame>
																	<displayformat>NDF</displayformat>
																</timecode>
																<media>
																	<video>
																		<samplecharacteristics>
																			<rate>
																				<timebase>30</timebase>
																				<ntsc>FALSE</ntsc>
																			</rate>
																			<width>720</width>
																			<height>720</height>
																			<anamorphic>FALSE</anamorphic>
																			<pixelaspectratio>square</pixelaspectratio>
																			<fielddominance>none</fielddominance>
																		</samplecharacteristics>
																	</video>
																	<audio>
																		<samplecharacteristics>
																			<depth>16</depth>
																			<samplerate>44100</samplerate>
																		</samplecharacteristics>
																		<channelcount>2</channelcount>
																	</audio>
																</media>
															</file>
															<filter>
																<effect>
																	<name>Basic Motion</name>
																	<effectid>basic</effectid>
																	<effectcategory>motion</effectcategory>
																	<effecttype>motion</effecttype>
																	<mediatype>video</mediatype>
																	<pproBypass>false</pproBypass>
																	<parameter authoringApp="PremierePro">
																		<parameterid>scale</parameterid>
																		<name>Scale</name>
																		<valuemin>0</valuemin>
																		<valuemax>1000</valuemax>
																		<value>300</value>
																	</parameter>
																	<parameter authoringApp="PremierePro">
																		<parameterid>rotation</parameterid>
																		<name>Rotation</name>
																		<valuemin>-8640</valuemin>
																		<valuemax>8640</valuemax>
																		<value>0</value>
																	</parameter>
																	<parameter authoringApp="PremierePro">
																		<parameterid>center</parameterid>
																		<name>Center</name>
																		<value>
																			<horiz>0</horiz>
																			<vert>0</vert>
																		</value>
																	</parameter>
																	<parameter authoringApp="PremierePro">
																		<parameterid>centerOffset</parameterid>
																		<name>Anchor Point</name>
																		<value>
																			<horiz>0</horiz>
																			<vert>0</vert>
																		</value>
																	</parameter>
																	<parameter authoringApp="PremierePro">
																		<parameterid>antiflicker</parameterid>
																		<name>Anti-flicker Filter</name>
																		<valuemin>0.0</valuemin>
																		<valuemax>1.0</valuemax>
																		<value>0</value>
																	</parameter>
																</effect>
															</filter>
															<filter>
																<effect>
																	<name>Gaussian Blur</name>
																	<effectid>Gaussian Blur</effectid>
																	<effectcategory>Blur</effectcategory>
																	<effecttype>motion</effecttype>
																	<mediatype>video</mediatype>
																	<pproBypass>false</pproBypass>
																	<parameter authoringApp="PremierePro">
																		<parameterid>radius</parameterid>
																		<name>Radius</name>
																		<valuemin>0</valuemin>
																		<valuemax>100</valuemax>
																		<value>150</value>
																	</parameter>
																</effect>
															</filter>
															<logginginfo>
																<description></description>
																<scene></scene>
																<shottake></shottake>
																<lognote></lognote>
																<good></good>
																<originalvideofilename></originalvideofilename>
																<originalaudiofilename></originalaudiofilename>
															</logginginfo>
															<colorinfo>
																<lut></lut>
																<lut1></lut1>
																<asc_sop></asc_sop>
																<asc_sat></asc_sat>
																<lut2></lut2>
															</colorinfo>
															<labels>
																<label2>Iris</label2>
															</labels>
														</clipitem>
														<enabled>TRUE</enabled>
														<locked>FALSE</locked>
													</track>
													<track TL.SQTrackShy="0" TL.SQTrackExpandedHeight="25" TL.SQTrackExpanded="0" MZ.TrackTargeted="0">
														<clipitem id="clipitem-328">
															<masterclipid>masterclip-136</masterclipid>
															<name>(sugarandsparrowco)_B4c64wKpARD_IG.mp4</name>
															<enabled>TRUE</enabled>
															<duration>1792</duration>
															<rate>
																<timebase>30</timebase>
																<ntsc>TRUE</ntsc>
															</rate>
															<start>0</start>
															<end>1567</end>
															<in>0</in>
															<out>1567</out>
															<pproTicksIn>0</pproTicksIn>
															<pproTicksOut>13281370502400</pproTicksOut>
															<alphatype>none</alphatype>
															<file id="file-117"/>
															<logginginfo>
																<description></description>
																<scene></scene>
																<shottake></shottake>
																<lognote></lognote>
																<good></good>
																<originalvideofilename></originalvideofilename>
																<originalaudiofilename></originalaudiofilename>
															</logginginfo>
															<colorinfo>
																<lut></lut>
																<lut1></lut1>
																<asc_sop></asc_sop>
																<asc_sat></asc_sat>
																<lut2></lut2>
															</colorinfo>
															<labels>
																<label2>Iris</label2>
															</labels>
														</clipitem>
														<enabled>TRUE</enabled>
														<locked>FALSE</locked>
													</track>
													<track TL.SQTrackShy="0" TL.SQTrackExpandedHeight="25" TL.SQTrackExpanded="0" MZ.TrackTargeted="0">
														<clipitem id="clipitem-329">
															<masterclipid>masterclip-137</masterclipid>
															<name>sugarandsparrowco</name>
															<enabled>TRUE</enabled>
															<duration>5844</duration>
															<rate>
																<timebase>30</timebase>
																<ntsc>TRUE</ntsc>
															</rate>
															<start>0</start>
															<end>1567</end>
															<in>0</in>
															<out>1567</out>
															<pproTicksIn>0</pproTicksIn>
															<pproTicksOut>13281370502400</pproTicksOut>
															<alphatype>straight</alphatype>
															<pixelaspectratio>square</pixelaspectratio>
															<anamorphic>FALSE</anamorphic>
															<file id="file-118">
																<name>1080/AE Attribution.aep</name>
																<pathurl>file://localhost/Volumes/ATM%201/EYE%20CANDY/Project%20Template/5_Assets/AE%20Attribution.aep</pathurl>
																<rate>
																	<timebase>30</timebase>
																	<ntsc>TRUE</ntsc>
																</rate>
																<duration>5844</duration>
																<timecode>
																	<rate>
																		<timebase>30</timebase>
																		<ntsc>TRUE</ntsc>
																	</rate>
																	<string>00;00;00;00</string>
																	<frame>0</frame>
																	<displayformat>DF</displayformat>
																</timecode>
																<media>
																	<video>
																		<samplecharacteristics>
																			<rate>
																				<timebase>30</timebase>
																				<ntsc>TRUE</ntsc>
																			</rate>
																			<width>1920</width>
																			<height>1080</height>
																			<anamorphic>FALSE</anamorphic>
																			<pixelaspectratio>square</pixelaspectratio>
																			<fielddominance>lower</fielddominance>
																		</samplecharacteristics>
																	</video>
																</media>
															</file>
															<logginginfo>
																<description></description>
																<scene></scene>
																<shottake></shottake>
																<lognote></lognote>
																<good></good>
																<originalvideofilename></originalvideofilename>
																<originalaudiofilename></originalaudiofilename>
															</logginginfo>
															<colorinfo>
																<lut></lut>
																<lut1></lut1>
																<asc_sop></asc_sop>
																<asc_sat></asc_sat>
																<lut2></lut2>
															</colorinfo>
															<labels>
																<label2>Rose</label2>
															</labels>
														</clipitem>
														<enabled>TRUE</enabled>
														<locked>FALSE</locked>
													</track>
													<track TL.SQTrackShy="0" TL.SQTrackExpandedHeight="25" TL.SQTrackExpanded="0" MZ.TrackTargeted="0">
														<enabled>TRUE</enabled>
														<locked>FALSE</locked>
													</track>
													<track TL.SQTrackShy="0" TL.SQTrackExpandedHeight="25" TL.SQTrackExpanded="0" MZ.TrackTargeted="0">
														<enabled>TRUE</enabled>
														<locked>FALSE</locked>
													</track>
													<track TL.SQTrackShy="0" TL.SQTrackExpandedHeight="25" TL.SQTrackExpanded="0" MZ.TrackTargeted="0">
														<enabled>TRUE</enabled>
														<locked>FALSE</locked>
													</track>
													<track TL.SQTrackShy="0" TL.SQTrackExpandedHeight="25" TL.SQTrackExpanded="0" MZ.TrackTargeted="0">
														<enabled>TRUE</enabled>
														<locked>FALSE</locked>
													</track>
													<track TL.SQTrackShy="0" TL.SQTrackExpandedHeight="25" TL.SQTrackExpanded="0" MZ.TrackTargeted="0">
														<enabled>TRUE</enabled>
														<locked>FALSE</locked>
													</track>
													<track TL.SQTrackShy="0" TL.SQTrackExpandedHeight="25" TL.SQTrackExpanded="0" MZ.TrackTargeted="0">
														<enabled>TRUE</enabled>
														<locked>FALSE</locked>
													</track>
													<track TL.SQTrackShy="0" TL.SQTrackExpandedHeight="25" TL.SQTrackExpanded="0" MZ.TrackTargeted="0">
														<enabled>TRUE</enabled>
														<locked>FALSE</locked>
													</track>
												</video>
												<audio>
													<numOutputChannels>2</numOutputChannels>
													<format>
														<samplecharacteristics>
															<depth>16</depth>
															<samplerate>48000</samplerate>
														</samplecharacteristics>
													</format>
													<outputs>
														<group>
															<index>1</index>
															<numchannels>1</numchannels>
															<downmix>0</downmix>
															<channel>
																<index>1</index>
															</channel>
														</group>
														<group>
															<index>2</index>
															<numchannels>1</numchannels>
															<downmix>0</downmix>
															<channel>
																<index>2</index>
															</channel>
														</group>
													</outputs>
													<track TL.SQTrackAudioKeyframeStyle="0" TL.SQTrackShy="0" TL.SQTrackExpandedHeight="25" TL.SQTrackExpanded="0" MZ.TrackTargeted="1" PannerCurrentValue="0.5" PannerIsInverted="true" PannerStartKeyframe="-91445760000000000,0.5,0,0,0,0,0,0" PannerName="Balance" currentExplodedTrackIndex="0" totalExplodedTrackCount="2" premiereTrackType="Stereo">
														<clipitem id="clipitem-330" premiereChannelType="stereo">
															<masterclipid>masterclip-138</masterclipid>
															<name>ES_Anticipation - Future Joust.mp3</name>
															<enabled>TRUE</enabled>
															<duration>6353</duration>
															<rate>
																<timebase>30</timebase>
																<ntsc>TRUE</ntsc>
															</rate>
															<start>0</start>
															<end>1567</end>
															<in>0</in>
															<out>1567</out>
															<pproTicksIn>0</pproTicksIn>
															<pproTicksOut>13281370502400</pproTicksOut>
															<file id="file-119">
																<name>ES_Anticipation - Future Joust.mp3</name>
																<pathurl>file://localhost/Volumes/ATM%201/EYE%20CANDY/8%3a14%3a23/5_Assets/Music/ES_Anticipation%20-%20Future%20Joust.mp3</pathurl>
																<rate>
																	<timebase>30</timebase>
																	<ntsc>TRUE</ntsc>
																</rate>
																<duration>6353</duration>
																<timecode>
																	<rate>
																		<timebase>30</timebase>
																		<ntsc>TRUE</ntsc>
																	</rate>
																	<string>00;00;00;00</string>
																	<frame>0</frame>
																	<displayformat>DF</displayformat>
																</timecode>
																<media>
																	<audio>
																		<samplecharacteristics>
																			<depth>16</depth>
																			<samplerate>48000</samplerate>
																		</samplecharacteristics>
																		<channelcount>2</channelcount>
																	</audio>
																</media>
															</file>
															<sourcetrack>
																<mediatype>audio</mediatype>
																<trackindex>1</trackindex>
															</sourcetrack>
															<link>
																<linkclipref>clipitem-330</linkclipref>
																<mediatype>audio</mediatype>
																<trackindex>1</trackindex>
																<clipindex>1</clipindex>
																<groupindex>1</groupindex>
															</link>
															<link>
																<linkclipref>clipitem-331</linkclipref>
																<mediatype>audio</mediatype>
																<trackindex>2</trackindex>
																<clipindex>1</clipindex>
																<groupindex>1</groupindex>
															</link>
															<logginginfo>
																<description></description>
																<scene></scene>
																<shottake></shottake>
																<lognote></lognote>
																<good></good>
																<originalvideofilename></originalvideofilename>
																<originalaudiofilename></originalaudiofilename>
															</logginginfo>
															<colorinfo>
																<lut></lut>
																<lut1></lut1>
																<asc_sop></asc_sop>
																<asc_sat></asc_sat>
																<lut2></lut2>
															</colorinfo>
															<labels>
																<label2>Caribbean</label2>
															</labels>
														</clipitem>
														<enabled>TRUE</enabled>
														<locked>FALSE</locked>
														<filter>
															<effect>
																<name>Audio Levels</name>
																<effectid>audiolevels</effectid>
																<effectcategory>audiolevels</effectcategory>
																<effecttype>audiolevels</effecttype>
																<mediatype>audio</mediatype>
																<parameter authoringApp="PremierePro">
																	<parameterid>level</parameterid>
																	<name>Level</name>
																	<valuemin>0</valuemin>
																	<valuemax>3.98109</valuemax>
																	<value>0.706272</value>
																</parameter>
															</effect>
														</filter>
														<outputchannelindex>1</outputchannelindex>
													</track>
													<track TL.SQTrackAudioKeyframeStyle="0" TL.SQTrackShy="0" TL.SQTrackExpandedHeight="25" TL.SQTrackExpanded="0" MZ.TrackTargeted="1" PannerCurrentValue="0.5" PannerIsInverted="true" PannerStartKeyframe="-91445760000000000,0.5,0,0,0,0,0,0" PannerName="Balance" currentExplodedTrackIndex="1" totalExplodedTrackCount="2" premiereTrackType="Stereo">
														<clipitem id="clipitem-331" premiereChannelType="stereo">
															<masterclipid>masterclip-138</masterclipid>
															<name>ES_Anticipation - Future Joust.mp3</name>
															<enabled>TRUE</enabled>
															<duration>6353</duration>
															<rate>
																<timebase>30</timebase>
																<ntsc>TRUE</ntsc>
															</rate>
															<start>0</start>
															<end>1567</end>
															<in>0</in>
															<out>1567</out>
															<pproTicksIn>0</pproTicksIn>
															<pproTicksOut>13281370502400</pproTicksOut>
															<file id="file-119"/>
															<sourcetrack>
																<mediatype>audio</mediatype>
																<trackindex>2</trackindex>
															</sourcetrack>
															<link>
																<linkclipref>clipitem-330</linkclipref>
																<mediatype>audio</mediatype>
																<trackindex>1</trackindex>
																<clipindex>1</clipindex>
																<groupindex>1</groupindex>
															</link>
															<link>
																<linkclipref>clipitem-331</linkclipref>
																<mediatype>audio</mediatype>
																<trackindex>2</trackindex>
																<clipindex>1</clipindex>
																<groupindex>1</groupindex>
															</link>
															<logginginfo>
																<description></description>
																<scene></scene>
																<shottake></shottake>
																<lognote></lognote>
																<good></good>
																<originalvideofilename></originalvideofilename>
																<originalaudiofilename></originalaudiofilename>
															</logginginfo>
															<colorinfo>
																<lut></lut>
																<lut1></lut1>
																<asc_sop></asc_sop>
																<asc_sat></asc_sat>
																<lut2></lut2>
															</colorinfo>
															<labels>
																<label2>Caribbean</label2>
															</labels>
														</clipitem>
														<enabled>TRUE</enabled>
														<locked>FALSE</locked>
														<filter>
															<effect>
																<name>Audio Levels</name>
																<effectid>audiolevels</effectid>
																<effectcategory>audiolevels</effectcategory>
																<effecttype>audiolevels</effecttype>
																<mediatype>audio</mediatype>
																<parameter authoringApp="PremierePro">
																	<parameterid>level</parameterid>
																	<name>Level</name>
																	<valuemin>0</valuemin>
																	<valuemax>3.98109</valuemax>
																	<value>0.706272</value>
																</parameter>
															</effect>
														</filter>
														<outputchannelindex>2</outputchannelindex>
													</track>
													<track TL.SQTrackAudioKeyframeStyle="0" TL.SQTrackShy="0" TL.SQTrackExpandedHeight="25" TL.SQTrackExpanded="0" MZ.TrackTargeted="0" PannerCurrentValue="0.5" PannerIsInverted="true" PannerStartKeyframe="-91445760000000000,0.5,0,0,0,0,0,0" PannerName="Balance" currentExplodedTrackIndex="0" totalExplodedTrackCount="2" premiereTrackType="Stereo">
														<enabled>TRUE</enabled>
														<locked>FALSE</locked>
														<outputchannelindex>1</outputchannelindex>
													</track>
													<track TL.SQTrackAudioKeyframeStyle="0" TL.SQTrackShy="0" TL.SQTrackExpandedHeight="25" TL.SQTrackExpanded="0" MZ.TrackTargeted="0" PannerCurrentValue="0.5" PannerIsInverted="true" PannerStartKeyframe="-91445760000000000,0.5,0,0,0,0,0,0" PannerName="Balance" currentExplodedTrackIndex="1" totalExplodedTrackCount="2" premiereTrackType="Stereo">
														<enabled>TRUE</enabled>
														<locked>FALSE</locked>
														<outputchannelindex>2</outputchannelindex>
													</track>
													<track TL.SQTrackAudioKeyframeStyle="0" TL.SQTrackShy="0" TL.SQTrackExpandedHeight="25" TL.SQTrackExpanded="0" MZ.TrackTargeted="0" PannerCurrentValue="0.5" PannerIsInverted="true" PannerStartKeyframe="-91445760000000000,0.5,0,0,0,0,0,0" PannerName="Balance" currentExplodedTrackIndex="0" totalExplodedTrackCount="2" premiereTrackType="Stereo">
														<enabled>TRUE</enabled>
														<locked>FALSE</locked>
														<outputchannelindex>1</outputchannelindex>
													</track>
													<track TL.SQTrackAudioKeyframeStyle="0" TL.SQTrackShy="0" TL.SQTrackExpandedHeight="25" TL.SQTrackExpanded="0" MZ.TrackTargeted="0" PannerCurrentValue="0.5" PannerIsInverted="true" PannerStartKeyframe="-91445760000000000,0.5,0,0,0,0,0,0" PannerName="Balance" currentExplodedTrackIndex="1" totalExplodedTrackCount="2" premiereTrackType="Stereo">
														<enabled>TRUE</enabled>
														<locked>FALSE</locked>
														<outputchannelindex>2</outputchannelindex>
													</track>
													<track TL.SQTrackAudioKeyframeStyle="0" TL.SQTrackShy="0" TL.SQTrackExpandedHeight="25" TL.SQTrackExpanded="0" MZ.TrackTargeted="0" PannerCurrentValue="0.5" PannerIsInverted="true" PannerStartKeyframe="-91445760000000000,0.5,0,0,0,0,0,0" PannerName="Balance" currentExplodedTrackIndex="0" totalExplodedTrackCount="2" premiereTrackType="Stereo">
														<enabled>TRUE</enabled>
														<locked>FALSE</locked>
														<outputchannelindex>1</outputchannelindex>
													</track>
													<track TL.SQTrackAudioKeyframeStyle="0" TL.SQTrackShy="0" TL.SQTrackExpandedHeight="25" TL.SQTrackExpanded="0" MZ.TrackTargeted="0" PannerCurrentValue="0.5" PannerIsInverted="true" PannerStartKeyframe="-91445760000000000,0.5,0,0,0,0,0,0" PannerName="Balance" currentExplodedTrackIndex="1" totalExplodedTrackCount="2" premiereTrackType="Stereo">
														<enabled>TRUE</enabled>
														<locked>FALSE</locked>
														<outputchannelindex>2</outputchannelindex>
													</track>
													<track TL.SQTrackAudioKeyframeStyle="0" TL.SQTrackShy="0" TL.SQTrackExpandedHeight="25" TL.SQTrackExpanded="0" MZ.TrackTargeted="0" PannerCurrentValue="0.5" PannerIsInverted="true" PannerStartKeyframe="-91445760000000000,0.5,0,0,0,0,0,0" PannerName="Balance" currentExplodedTrackIndex="0" totalExplodedTrackCount="2" premiereTrackType="Stereo">
														<enabled>TRUE</enabled>
														<locked>FALSE</locked>
														<outputchannelindex>1</outputchannelindex>
													</track>
													<track TL.SQTrackAudioKeyframeStyle="0" TL.SQTrackShy="0" TL.SQTrackExpandedHeight="25" TL.SQTrackExpanded="0" MZ.TrackTargeted="0" PannerCurrentValue="0.5" PannerIsInverted="true" PannerStartKeyframe="-91445760000000000,0.5,0,0,0,0,0,0" PannerName="Balance" currentExplodedTrackIndex="1" totalExplodedTrackCount="2" premiereTrackType="Stereo">
														<enabled>TRUE</enabled>
														<locked>FALSE</locked>
														<outputchannelindex>2</outputchannelindex>
													</track>
													<track TL.SQTrackAudioKeyframeStyle="0" TL.SQTrackShy="0" TL.SQTrackExpandedHeight="25" TL.SQTrackExpanded="0" MZ.TrackTargeted="0" PannerCurrentValue="0.5" PannerIsInverted="true" PannerStartKeyframe="-91445760000000000,0.5,0,0,0,0,0,0" PannerName="Balance" currentExplodedTrackIndex="0" totalExplodedTrackCount="2" premiereTrackType="Stereo">
														<enabled>TRUE</enabled>
														<locked>FALSE</locked>
														<outputchannelindex>1</outputchannelindex>
													</track>
													<track TL.SQTrackAudioKeyframeStyle="0" TL.SQTrackShy="0" TL.SQTrackExpandedHeight="25" TL.SQTrackExpanded="0" MZ.TrackTargeted="0" PannerCurrentValue="0.5" PannerIsInverted="true" PannerStartKeyframe="-91445760000000000,0.5,0,0,0,0,0,0" PannerName="Balance" currentExplodedTrackIndex="1" totalExplodedTrackCount="2" premiereTrackType="Stereo">
														<enabled>TRUE</enabled>
														<locked>FALSE</locked>
														<outputchannelindex>2</outputchannelindex>
													</track>
													<track TL.SQTrackAudioKeyframeStyle="0" TL.SQTrackShy="0" TL.SQTrackExpandedHeight="25" TL.SQTrackExpanded="0" MZ.TrackTargeted="0" PannerCurrentValue="0.5" PannerIsInverted="true" PannerStartKeyframe="-91445760000000000,0.5,0,0,0,0,0,0" PannerName="Balance" currentExplodedTrackIndex="0" totalExplodedTrackCount="2" premiereTrackType="Stereo">
														<enabled>TRUE</enabled>
														<locked>FALSE</locked>
														<outputchannelindex>1</outputchannelindex>
													</track>
													<track TL.SQTrackAudioKeyframeStyle="0" TL.SQTrackShy="0" TL.SQTrackExpandedHeight="25" TL.SQTrackExpanded="0" MZ.TrackTargeted="0" PannerCurrentValue="0.5" PannerIsInverted="true" PannerStartKeyframe="-91445760000000000,0.5,0,0,0,0,0,0" PannerName="Balance" currentExplodedTrackIndex="1" totalExplodedTrackCount="2" premiereTrackType="Stereo">
														<enabled>TRUE</enabled>
														<locked>FALSE</locked>
														<outputchannelindex>2</outputchannelindex>
													</track>
													<track TL.SQTrackAudioKeyframeStyle="0" TL.SQTrackShy="0" TL.SQTrackExpandedHeight="25" TL.SQTrackExpanded="0" MZ.TrackTargeted="0" PannerCurrentValue="0.5" PannerIsInverted="true" PannerStartKeyframe="-91445760000000000,0.5,0,0,0,0,0,0" PannerName="Balance" currentExplodedTrackIndex="0" totalExplodedTrackCount="2" premiereTrackType="Stereo">
														<enabled>TRUE</enabled>
														<locked>FALSE</locked>
														<outputchannelindex>1</outputchannelindex>
													</track>
													<track TL.SQTrackAudioKeyframeStyle="0" TL.SQTrackShy="0" TL.SQTrackExpandedHeight="25" TL.SQTrackExpanded="0" MZ.TrackTargeted="0" PannerCurrentValue="0.5" PannerIsInverted="true" PannerStartKeyframe="-91445760000000000,0.5,0,0,0,0,0,0" PannerName="Balance" currentExplodedTrackIndex="1" totalExplodedTrackCount="2" premiereTrackType="Stereo">
														<enabled>TRUE</enabled>
														<locked>FALSE</locked>
														<outputchannelindex>2</outputchannelindex>
													</track>
													<track TL.SQTrackAudioKeyframeStyle="0" TL.SQTrackShy="0" TL.SQTrackExpandedHeight="25" TL.SQTrackExpanded="0" MZ.TrackTargeted="0" PannerCurrentValue="0.5" PannerIsInverted="true" PannerStartKeyframe="-91445760000000000,0.5,0,0,0,0,0,0" PannerName="Balance" currentExplodedTrackIndex="0" totalExplodedTrackCount="2" premiereTrackType="Stereo">
														<enabled>TRUE</enabled>
														<locked>FALSE</locked>
														<outputchannelindex>1</outputchannelindex>
													</track>
													<track TL.SQTrackAudioKeyframeStyle="0" TL.SQTrackShy="0" TL.SQTrackExpandedHeight="25" TL.SQTrackExpanded="0" MZ.TrackTargeted="0" PannerCurrentValue="0.5" PannerIsInverted="true" PannerStartKeyframe="-91445760000000000,0.5,0,0,0,0,0,0" PannerName="Balance" currentExplodedTrackIndex="1" totalExplodedTrackCount="2" premiereTrackType="Stereo">
														<enabled>TRUE</enabled>
														<locked>FALSE</locked>
														<outputchannelindex>2</outputchannelindex>
													</track>
													<track TL.SQTrackAudioKeyframeStyle="0" TL.SQTrackShy="0" TL.SQTrackExpandedHeight="25" TL.SQTrackExpanded="0" MZ.TrackTargeted="0" PannerCurrentValue="0.5" PannerIsInverted="true" PannerStartKeyframe="-91445760000000000,0.5,0,0,0,0,0,0" PannerName="Balance" currentExplodedTrackIndex="0" totalExplodedTrackCount="2" premiereTrackType="Stereo">
														<enabled>TRUE</enabled>
														<locked>FALSE</locked>
														<outputchannelindex>1</outputchannelindex>
													</track>
													<track TL.SQTrackAudioKeyframeStyle="0" TL.SQTrackShy="0" TL.SQTrackExpandedHeight="25" TL.SQTrackExpanded="0" MZ.TrackTargeted="0" PannerCurrentValue="0.5" PannerIsInverted="true" PannerStartKeyframe="-91445760000000000,0.5,0,0,0,0,0,0" PannerName="Balance" currentExplodedTrackIndex="1" totalExplodedTrackCount="2" premiereTrackType="Stereo">
														<enabled>TRUE</enabled>
														<locked>FALSE</locked>
														<outputchannelindex>2</outputchannelindex>
													</track>
												</audio>
											</media>
											<timecode>
												<rate>
													<timebase>30</timebase>
													<ntsc>TRUE</ntsc>
												</rate>
												<string>00;00;00;00</string>
												<frame>0</frame>
												<displayformat>DF</displayformat>
											</timecode>
											<logginginfo>
												<description></description>
												<scene></scene>
												<shottake></shottake>
												<lognote></lognote>
												<good></good>
												<originalvideofilename></originalvideofilename>
												<originalaudiofilename></originalaudiofilename>
											</logginginfo>
										</sequence>
										<link>
											<linkclipref>clipitem-326</linkclipref>
											<mediatype>video</mediatype>
											<trackindex>1</trackindex>
											<clipindex>1</clipindex>
										</link>
										<link>
											<linkclipref>clipitem-356</linkclipref>
											<mediatype>audio</mediatype>
											<trackindex>1</trackindex>
											<clipindex>1</clipindex>
											<groupindex>1</groupindex>
										</link>
										<link>
											<linkclipref>clipitem-358</linkclipref>
											<mediatype>audio</mediatype>
											<trackindex>2</trackindex>
											<clipindex>1</clipindex>
											<groupindex>1</groupindex>
										</link>
										<labels>
											<label2>Forest</label2>
										</labels>
									</clipitem>
									<clipitem id="clipitem-332">
										<masterclipid>masterclip-139</masterclipid>
										<name>It's Bananas_</name>
										<enabled>TRUE</enabled>
										<duration>5700</duration>
										<rate>
											<timebase>30</timebase>
											<ntsc>TRUE</ntsc>
										</rate>
										<start>1676</start>
										<end>5036</end>
										<in>0</in>
										<out>3360</out>
										<pproTicksIn>0</pproTicksIn>
										<pproTicksOut>28478241792000</pproTicksOut>
										<sequence id="sequence-27" TL.SQAudioVisibleBase="0" TL.SQVideoVisibleBase="0" TL.SQVisibleBaseTime="0" TL.SQAVDividerPosition="0.5" TL.SQHideShyTracks="0" TL.SQHeaderWidth="236" TL.SQDataTrackViewControlState="0" Monitor.ProgramZoomOut="28478241792000" Monitor.ProgramZoomIn="0" TL.SQTimePerPixel="0.031756384113601696" AM.TrackVScrollPosition="0" AM.TrackScrollPosition="0" MZ.EditLine="0" MZ.Sequence.PreviewFrameSizeHeight="1080" MZ.Sequence.PreviewFrameSizeWidth="1920" MZ.Sequence.AudioTimeDisplayFormat="200" MZ.Sequence.PreviewRenderingClassID="1061109567" MZ.Sequence.PreviewRenderingPresetCodec="1634755443" MZ.Sequence.PreviewRenderingPresetPath="EncoderPresets/SequencePreview/35d109db-457b-43c1-9452-9cb7be9f121c/QuickTime.epr" MZ.Sequence.PreviewUseMaxRenderQuality="false" MZ.Sequence.PreviewUseMaxBitDepth="false" MZ.Sequence.EditingModeGUID="35d109db-457b-43c1-9452-9cb7be9f121c" MZ.Sequence.VideoTimeDisplayFormat="102" MZ.WorkOutPoint="1262874412800" MZ.WorkInPoint="0">
											<duration>3360</duration>
											<rate>
												<timebase>30</timebase>
												<ntsc>TRUE</ntsc>
											</rate>
											<name>FND_It's Bananas_2</name>
											<media>
												<video>
													<format>
														<samplecharacteristics>
															<rate>
																<timebase>30</timebase>
																<ntsc>TRUE</ntsc>
															</rate>
															<codec>
																<name>Apple ProRes 422</name>
																<appspecificdata>
																	<appname>Final Cut Pro</appname>
																	<appmanufacturer>Apple Inc.</appmanufacturer>
																	<appversion>7.0</appversion>
																	<data>
																		<qtcodec>
																			<codecname>Apple ProRes 422</codecname>
																			<codectypename>Apple ProRes 422</codectypename>
																			<codectypecode>apcn</codectypecode>
																			<codecvendorcode>appl</codecvendorcode>
																			<spatialquality>1024</spatialquality>
																			<temporalquality>0</temporalquality>
																			<keyframerate>0</keyframerate>
																			<datarate>0</datarate>
																		</qtcodec>
																	</data>
																</appspecificdata>
															</codec>
															<width>1920</width>
															<height>1080</height>
															<anamorphic>FALSE</anamorphic>
															<pixelaspectratio>square</pixelaspectratio>
															<fielddominance>none</fielddominance>
															<colordepth>24</colordepth>
														</samplecharacteristics>
													</format>
													<track TL.SQTrackShy="0" TL.SQTrackExpandedHeight="25" TL.SQTrackExpanded="0" MZ.TrackTargeted="1">
														<clipitem id="clipitem-333">
															<masterclipid>masterclip-140</masterclipid>
															<name>(succulentbite)_BYn2PhkAupy_IG.mp4</name>
															<enabled>TRUE</enabled>
															<duration>677</duration>
															<rate>
																<timebase>30</timebase>
																<ntsc>TRUE</ntsc>
															</rate>
															<start>0</start>
															<end>31</end>
															<in>38</in>
															<out>69</out>
															<pproTicksIn>322075353600</pproTicksIn>
															<pproTicksOut>584821036800</pproTicksOut>
															<alphatype>none</alphatype>
															<pixelaspectratio>square</pixelaspectratio>
															<anamorphic>FALSE</anamorphic>
															<file id="file-120">
																<name>(succulentbite)_BYn2PhkAupy_IG.mp4</name>
																<pathurl>file://localhost/Volumes/ATM%201/EYE%20CANDY/8%3a14%3a23/3_Raw%20Files/banana/(succulentbite)_BYn2PhkAupy_IG.mp4</pathurl>
																<rate>
																	<timebase>30</timebase>
																	<ntsc>FALSE</ntsc>
																</rate>
																<duration>678</duration>
																<timecode>
																	<rate>
																		<timebase>30</timebase>
																		<ntsc>FALSE</ntsc>
																	</rate>
																	<string>00:00:00:00</string>
																	<frame>0</frame>
																	<displayformat>NDF</displayformat>
																</timecode>
																<media>
																	<video>
																		<samplecharacteristics>
																			<rate>
																				<timebase>30</timebase>
																				<ntsc>FALSE</ntsc>
																			</rate>
																			<width>720</width>
																			<height>720</height>
																			<anamorphic>FALSE</anamorphic>
																			<pixelaspectratio>square</pixelaspectratio>
																			<fielddominance>none</fielddominance>
																		</samplecharacteristics>
																	</video>
																</media>
															</file>
															<logginginfo>
																<description></description>
																<scene></scene>
																<shottake></shottake>
																<lognote></lognote>
																<good></good>
																<originalvideofilename></originalvideofilename>
																<originalaudiofilename></originalaudiofilename>
															</logginginfo>
															<colorinfo>
																<lut></lut>
																<lut1></lut1>
																<asc_sop></asc_sop>
																<asc_sat></asc_sat>
																<lut2></lut2>
															</colorinfo>
														</clipitem>
														<clipitem id="clipitem-334">
															<masterclipid>masterclip-140</masterclipid>
															<name>(succulentbite)_BYn2PhkAupy_IG.mp4</name>
															<enabled>TRUE</enabled>
															<duration>677</duration>
															<rate>
																<timebase>30</timebase>
																<ntsc>TRUE</ntsc>
															</rate>
															<start>31</start>
															<end>69</end>
															<in>0</in>
															<out>38</out>
															<pproTicksIn>0</pproTicksIn>
															<pproTicksOut>322075353600</pproTicksOut>
															<alphatype>none</alphatype>
															<file id="file-120"/>
															<logginginfo>
																<description></description>
																<scene></scene>
																<shottake></shottake>
																<lognote></lognote>
																<good></good>
																<originalvideofilename></originalvideofilename>
																<originalaudiofilename></originalaudiofilename>
															</logginginfo>
															<colorinfo>
																<lut></lut>
																<lut1></lut1>
																<asc_sop></asc_sop>
																<asc_sat></asc_sat>
																<lut2></lut2>
															</colorinfo>
														</clipitem>
														<clipitem id="clipitem-335">
															<masterclipid>masterclip-140</masterclipid>
															<name>(succulentbite)_BYn2PhkAupy_IG.mp4</name>
															<enabled>TRUE</enabled>
															<duration>677</duration>
															<rate>
																<timebase>30</timebase>
																<ntsc>TRUE</ntsc>
															</rate>
															<start>69</start>
															<end>592</end>
															<in>69</in>
															<out>592</out>
															<pproTicksIn>584821036800</pproTicksIn>
															<pproTicksOut>5017594982400</pproTicksOut>
															<alphatype>none</alphatype>
															<file id="file-120"/>
															<logginginfo>
																<description></description>
																<scene></scene>
																<shottake></shottake>
																<lognote></lognote>
																<good></good>
																<originalvideofilename></originalvideofilename>
																<originalaudiofilename></originalaudiofilename>
															</logginginfo>
															<colorinfo>
																<lut></lut>
																<lut1></lut1>
																<asc_sop></asc_sop>
																<asc_sat></asc_sat>
																<lut2></lut2>
															</colorinfo>
														</clipitem>
														<clipitem id="clipitem-336">
															<masterclipid>masterclip-141</masterclipid>
															<name>(thethriftwitch)_7121112613890706734_TT.mp4</name>
															<enabled>TRUE</enabled>
															<duration>948</duration>
															<rate>
																<timebase>30</timebase>
																<ntsc>TRUE</ntsc>
															</rate>
															<start>592</start>
															<end>1213</end>
															<in>327</in>
															<out>948</out>
															<pproTicksIn>2771543174400</pproTicksIn>
															<pproTicksOut>8034932505600</pproTicksOut>
															<alphatype>none</alphatype>
															<pixelaspectratio>square</pixelaspectratio>
															<anamorphic>FALSE</anamorphic>
															<file id="file-121">
																<name>(thethriftwitch)_7121112613890706734_TT.mp4</name>
																<pathurl>file://localhost/Volumes/ATM%201/EYE%20CANDY/8%3a14%3a23/3_Raw%20Files/banana/(thethriftwitch)_7121112613890706734_TT.mp4</pathurl>
																<rate>
																	<timebase>60</timebase>
																	<ntsc>FALSE</ntsc>
																</rate>
																<duration>1899</duration>
																<timecode>
																	<rate>
																		<timebase>60</timebase>
																		<ntsc>FALSE</ntsc>
																	</rate>
																	<string>00:00:00:00</string>
																	<frame>0</frame>
																	<displayformat>NDF</displayformat>
																</timecode>
																<media>
																	<video>
																		<samplecharacteristics>
																			<rate>
																				<timebase>60</timebase>
																				<ntsc>FALSE</ntsc>
																			</rate>
																			<width>576</width>
																			<height>1024</height>
																			<anamorphic>FALSE</anamorphic>
																			<pixelaspectratio>square</pixelaspectratio>
																			<fielddominance>none</fielddominance>
																		</samplecharacteristics>
																	</video>
																	<audio>
																		<samplecharacteristics>
																			<depth>16</depth>
																			<samplerate>44100</samplerate>
																		</samplecharacteristics>
																		<channelcount>2</channelcount>
																	</audio>
																</media>
															</file>
															<logginginfo>
																<description></description>
																<scene></scene>
																<shottake></shottake>
																<lognote></lognote>
																<good></good>
																<originalvideofilename></originalvideofilename>
																<originalaudiofilename></originalaudiofilename>
															</logginginfo>
															<colorinfo>
																<lut></lut>
																<lut1></lut1>
																<asc_sop></asc_sop>
																<asc_sat></asc_sat>
																<lut2></lut2>
															</colorinfo>
															<labels>
																<label2>Caribbean</label2>
															</labels>
														</clipitem>
														<clipitem id="clipitem-337">
															<masterclipid>masterclip-142</masterclipid>
															<name>(aquickspoonful)_CtxhoFwsCJl_IG.mp4</name>
															<enabled>TRUE</enabled>
															<duration>832</duration>
															<rate>
																<timebase>30</timebase>
																<ntsc>TRUE</ntsc>
															</rate>
															<start>1213</start>
															<end>1564</end>
															<in>0</in>
															<out>351</out>
															<pproTicksIn>0</pproTicksIn>
															<pproTicksOut>2974959187200</pproTicksOut>
															<alphatype>none</alphatype>
															<pixelaspectratio>square</pixelaspectratio>
															<anamorphic>FALSE</anamorphic>
															<file id="file-122">
																<name>(aquickspoonful)_CtxhoFwsCJl_IG.mp4</name>
																<pathurl>file://localhost/Volumes/ATM%201/EYE%20CANDY/8%3a14%3a23/3_Raw%20Files/banana/(aquickspoonful)_CtxhoFwsCJl_IG.mp4</pathurl>
																<rate>
																	<timebase>30</timebase>
																	<ntsc>FALSE</ntsc>
																</rate>
																<duration>833</duration>
																<timecode>
																	<rate>
																		<timebase>30</timebase>
																		<ntsc>FALSE</ntsc>
																	</rate>
																	<string>00:00:00:00</string>
																	<frame>0</frame>
																	<displayformat>NDF</displayformat>
																</timecode>
																<media>
																	<video>
																		<samplecharacteristics>
																			<rate>
																				<timebase>30</timebase>
																				<ntsc>FALSE</ntsc>
																			</rate>
																			<width>576</width>
																			<height>1024</height>
																			<anamorphic>FALSE</anamorphic>
																			<pixelaspectratio>square</pixelaspectratio>
																			<fielddominance>none</fielddominance>
																		</samplecharacteristics>
																	</video>
																	<audio>
																		<samplecharacteristics>
																			<depth>16</depth>
																			<samplerate>44100</samplerate>
																		</samplecharacteristics>
																		<channelcount>1</channelcount>
																		<audiochannel>
																			<sourcechannel>1</sourcechannel>
																		</audiochannel>
																	</audio>
																</media>
															</file>
															<logginginfo>
																<description></description>
																<scene></scene>
																<shottake></shottake>
																<lognote></lognote>
																<good></good>
																<originalvideofilename></originalvideofilename>
																<originalaudiofilename></originalaudiofilename>
															</logginginfo>
															<colorinfo>
																<lut></lut>
																<lut1></lut1>
																<asc_sop></asc_sop>
																<asc_sat></asc_sat>
																<lut2></lut2>
															</colorinfo>
															<labels>
																<label2>Lavender</label2>
															</labels>
														</clipitem>
														<clipitem id="clipitem-338">
															<masterclipid>masterclip-142</masterclipid>
															<name>(aquickspoonful)_CtxhoFwsCJl_IG.mp4</name>
															<enabled>TRUE</enabled>
															<duration>832</duration>
															<rate>
																<timebase>30</timebase>
																<ntsc>TRUE</ntsc>
															</rate>
															<start>1564</start>
															<end>1808</end>
															<in>588</in>
															<out>832</out>
															<pproTicksIn>4983692313600</pproTicksIn>
															<pproTicksOut>7051755110400</pproTicksOut>
															<alphatype>none</alphatype>
															<file id="file-122"/>
															<logginginfo>
																<description></description>
																<scene></scene>
																<shottake></shottake>
																<lognote></lognote>
																<good></good>
																<originalvideofilename></originalvideofilename>
																<originalaudiofilename></originalaudiofilename>
															</logginginfo>
															<colorinfo>
																<lut></lut>
																<lut1></lut1>
																<asc_sop></asc_sop>
																<asc_sat></asc_sat>
																<lut2></lut2>
															</colorinfo>
															<labels>
																<label2>Lavender</label2>
															</labels>
														</clipitem>
														<clipitem id="clipitem-339">
															<masterclipid>masterclip-143</masterclipid>
															<name>(khaliaskuisine)_CUDmfwhFrJ4_IG.mp4</name>
															<enabled>TRUE</enabled>
															<duration>898</duration>
															<rate>
																<timebase>30</timebase>
																<ntsc>TRUE</ntsc>
															</rate>
															<start>1808</start>
															<end>2647</end>
															<in>0</in>
															<out>839</out>
															<pproTicksIn>0</pproTicksIn>
															<pproTicksOut>7111084780800</pproTicksOut>
															<alphatype>none</alphatype>
															<pixelaspectratio>square</pixelaspectratio>
															<anamorphic>FALSE</anamorphic>
															<file id="file-123">
																<name>(khaliaskuisine)_CUDmfwhFrJ4_IG.mp4</name>
																<pathurl>file://localhost/Volumes/ATM%201/EYE%20CANDY/8%3a14%3a23/3_Raw%20Files/banana/(khaliaskuisine)_CUDmfwhFrJ4_IG.mp4</pathurl>
																<rate>
																	<timebase>30</timebase>
																	<ntsc>FALSE</ntsc>
																</rate>
																<duration>899</duration>
																<timecode>
																	<rate>
																		<timebase>30</timebase>
																		<ntsc>FALSE</ntsc>
																	</rate>
																	<string>00:00:00:00</string>
																	<frame>0</frame>
																	<displayformat>NDF</displayformat>
																</timecode>
																<media>
																	<video>
																		<samplecharacteristics>
																			<rate>
																				<timebase>30</timebase>
																				<ntsc>FALSE</ntsc>
																			</rate>
																			<width>720</width>
																			<height>1280</height>
																			<anamorphic>FALSE</anamorphic>
																			<pixelaspectratio>square</pixelaspectratio>
																			<fielddominance>none</fielddominance>
																		</samplecharacteristics>
																	</video>
																	<audio>
																		<samplecharacteristics>
																			<depth>16</depth>
																			<samplerate>44100</samplerate>
																		</samplecharacteristics>
																		<channelcount>2</channelcount>
																	</audio>
																</media>
															</file>
															<logginginfo>
																<description></description>
																<scene></scene>
																<shottake></shottake>
																<lognote></lognote>
																<good></good>
																<originalvideofilename></originalvideofilename>
																<originalaudiofilename></originalaudiofilename>
															</logginginfo>
															<colorinfo>
																<lut></lut>
																<lut1></lut1>
																<asc_sop></asc_sop>
																<asc_sat></asc_sat>
																<lut2></lut2>
															</colorinfo>
															<labels>
																<label2>Cerulean</label2>
															</labels>
														</clipitem>
														<clipitem id="clipitem-340">
															<masterclipid>masterclip-144</masterclipid>
															<name>(Charlie Smark)_Storytime while I make a customer order ✨ #dollysdesserts_YyHSO6GzAEQ_YT.mp4</name>
															<enabled>TRUE</enabled>
															<duration>1491</duration>
															<rate>
																<timebase>30</timebase>
																<ntsc>TRUE</ntsc>
															</rate>
															<start>2647</start>
															<end>3082</end>
															<in>344</in>
															<out>779</out>
															<pproTicksIn>2915629516800</pproTicksIn>
															<pproTicksOut>6602544748800</pproTicksOut>
															<alphatype>none</alphatype>
															<pixelaspectratio>square</pixelaspectratio>
															<anamorphic>FALSE</anamorphic>
															<file id="file-124">
																<name>(Charlie Smark)_Storytime while I make a customer order ✨ #dollysdesserts_YyHSO6GzAEQ_YT.mp4</name>
																<pathurl>file://localhost/Volumes/ATM%201/EYE%20CANDY/8%3a14%3a23/3_Raw%20Files/banana/(Charlie%20Smark)_Storytime%20while%20I%20make%20a%20customer%20order%20%e2%9c%a8%20#dollysdesserts_YyHSO6GzAEQ_YT.mp4</pathurl>
																<rate>
																	<timebase>30</timebase>
																	<ntsc>FALSE</ntsc>
																</rate>
																<duration>1493</duration>
																<timecode>
																	<rate>
																		<timebase>30</timebase>
																		<ntsc>FALSE</ntsc>
																	</rate>
																	<string>00:00:00:00</string>
																	<frame>0</frame>
																	<displayformat>NDF</displayformat>
																</timecode>
																<media>
																	<video>
																		<samplecharacteristics>
																			<rate>
																				<timebase>30</timebase>
																				<ntsc>FALSE</ntsc>
																			</rate>
																			<width>720</width>
																			<height>1280</height>
																			<anamorphic>FALSE</anamorphic>
																			<pixelaspectratio>square</pixelaspectratio>
																			<fielddominance>none</fielddominance>
																		</samplecharacteristics>
																	</video>
																	<audio>
																		<samplecharacteristics>
																			<depth>16</depth>
																			<samplerate>44100</samplerate>
																		</samplecharacteristics>
																		<channelcount>2</channelcount>
																	</audio>
																</media>
															</file>
															<logginginfo>
																<description></description>
																<scene></scene>
																<shottake></shottake>
																<lognote></lognote>
																<good></good>
																<originalvideofilename></originalvideofilename>
																<originalaudiofilename></originalaudiofilename>
															</logginginfo>
															<colorinfo>
																<lut></lut>
																<lut1></lut1>
																<asc_sop></asc_sop>
																<asc_sat></asc_sat>
																<lut2></lut2>
															</colorinfo>
														</clipitem>
														<clipitem id="clipitem-341">
															<masterclipid>masterclip-144</masterclipid>
															<name>(Charlie Smark)_Storytime while I make a customer order ✨ #dollysdesserts_YyHSO6GzAEQ_YT.mp4</name>
															<enabled>TRUE</enabled>
															<duration>1491</duration>
															<rate>
																<timebase>30</timebase>
																<ntsc>TRUE</ntsc>
															</rate>
															<start>3082</start>
															<end>3199</end>
															<in>1054</in>
															<out>1171</out>
															<pproTicksIn>8933353228800</pproTicksIn>
															<pproTicksOut>9925006291200</pproTicksOut>
															<alphatype>none</alphatype>
															<file id="file-124"/>
															<logginginfo>
																<description></description>
																<scene></scene>
																<shottake></shottake>
																<lognote></lognote>
																<good></good>
																<originalvideofilename></originalvideofilename>
																<originalaudiofilename></originalaudiofilename>
															</logginginfo>
															<colorinfo>
																<lut></lut>
																<lut1></lut1>
																<asc_sop></asc_sop>
																<asc_sat></asc_sat>
																<lut2></lut2>
															</colorinfo>
														</clipitem>
														<clipitem id="clipitem-342">
															<masterclipid>masterclip-144</masterclipid>
															<name>(Charlie Smark)_Storytime while I make a customer order ✨ #dollysdesserts_YyHSO6GzAEQ_YT.mp4</name>
															<enabled>TRUE</enabled>
															<duration>1491</duration>
															<rate>
																<timebase>30</timebase>
																<ntsc>TRUE</ntsc>
															</rate>
															<start>3199</start>
															<end>3360</end>
															<in>1264</in>
															<out>1425</out>
															<pproTicksIn>10713243340800</pproTicksIn>
															<pproTicksOut>12077825760000</pproTicksOut>
															<alphatype>none</alphatype>
															<file id="file-124"/>
															<logginginfo>
																<description></description>
																<scene></scene>
																<shottake></shottake>
																<lognote></lognote>
																<good></good>
																<originalvideofilename></originalvideofilename>
																<originalaudiofilename></originalaudiofilename>
															</logginginfo>
															<colorinfo>
																<lut></lut>
																<lut1></lut1>
																<asc_sop></asc_sop>
																<asc_sat></asc_sat>
																<lut2></lut2>
															</colorinfo>
														</clipitem>
														<enabled>TRUE</enabled>
														<locked>FALSE</locked>
													</track>
													<track TL.SQTrackShy="0" TL.SQTrackExpandedHeight="25" TL.SQTrackExpanded="0" MZ.TrackTargeted="0">
														<clipitem id="clipitem-343">
															<masterclipid>masterclip-65</masterclipid>
															<name># Eyecandy Vertical Video Frame 3</name>
															<enabled>TRUE</enabled>
															<duration>5700</duration>
															<rate>
																<timebase>30</timebase>
																<ntsc>TRUE</ntsc>
															</rate>
															<start>0</start>
															<end>592</end>
															<in>105</in>
															<out>697</out>
															<pproTicksIn>889945056000</pproTicksIn>
															<pproTicksOut>5907540038400</pproTicksOut>
															<alphatype>straight</alphatype>
															<file id="file-54"/>
															<logginginfo>
																<description></description>
																<scene></scene>
																<shottake></shottake>
																<lognote></lognote>
																<good></good>
																<originalvideofilename></originalvideofilename>
																<originalaudiofilename></originalaudiofilename>
															</logginginfo>
															<colorinfo>
																<lut></lut>
																<lut1></lut1>
																<asc_sop></asc_sop>
																<asc_sat></asc_sat>
																<lut2></lut2>
															</colorinfo>
															<labels>
																<label2>Teal</label2>
															</labels>
														</clipitem>
														<clipitem id="clipitem-344">
															<masterclipid>masterclip-65</masterclipid>
															<name># Eyecandy Vertical Video Frame 3</name>
															<enabled>TRUE</enabled>
															<duration>5700</duration>
															<rate>
																<timebase>30</timebase>
																<ntsc>TRUE</ntsc>
															</rate>
															<start>592</start>
															<end>1213</end>
															<in>697</in>
															<out>1318</out>
															<pproTicksIn>5907540038400</pproTicksIn>
															<pproTicksOut>11170929369600</pproTicksOut>
															<alphatype>straight</alphatype>
															<file id="file-54"/>
															<logginginfo>
																<description></description>
																<scene></scene>
																<shottake></shottake>
																<lognote></lognote>
																<good></good>
																<originalvideofilename></originalvideofilename>
																<originalaudiofilename></originalaudiofilename>
															</logginginfo>
															<colorinfo>
																<lut></lut>
																<lut1></lut1>
																<asc_sop></asc_sop>
																<asc_sat></asc_sat>
																<lut2></lut2>
															</colorinfo>
															<labels>
																<label2>Teal</label2>
															</labels>
														</clipitem>
														<clipitem id="clipitem-345">
															<masterclipid>masterclip-65</masterclipid>
															<name># Eyecandy Vertical Video Frame 3</name>
															<enabled>TRUE</enabled>
															<duration>5700</duration>
															<rate>
																<timebase>30</timebase>
																<ntsc>TRUE</ntsc>
															</rate>
															<start>1213</start>
															<end>1808</end>
															<in>1318</in>
															<out>1913</out>
															<pproTicksIn>11170929369600</pproTicksIn>
															<pproTicksOut>16213951353600</pproTicksOut>
															<alphatype>straight</alphatype>
															<file id="file-54"/>
															<logginginfo>
																<description></description>
																<scene></scene>
																<shottake></shottake>
																<lognote></lognote>
																<good></good>
																<originalvideofilename></originalvideofilename>
																<originalaudiofilename></originalaudiofilename>
															</logginginfo>
															<colorinfo>
																<lut></lut>
																<lut1></lut1>
																<asc_sop></asc_sop>
																<asc_sat></asc_sat>
																<lut2></lut2>
															</colorinfo>
															<labels>
																<label2>Teal</label2>
															</labels>
														</clipitem>
														<clipitem id="clipitem-346">
															<masterclipid>masterclip-65</masterclipid>
															<name># Eyecandy Vertical Video Frame 3</name>
															<enabled>TRUE</enabled>
															<duration>5700</duration>
															<rate>
																<timebase>30</timebase>
																<ntsc>TRUE</ntsc>
															</rate>
															<start>1808</start>
															<end>2647</end>
															<in>1913</in>
															<out>2752</out>
															<pproTicksIn>16213951353600</pproTicksIn>
															<pproTicksOut>23325036134400</pproTicksOut>
															<alphatype>straight</alphatype>
															<file id="file-54"/>
															<logginginfo>
																<description></description>
																<scene></scene>
																<shottake></shottake>
																<lognote></lognote>
																<good></good>
																<originalvideofilename></originalvideofilename>
																<originalaudiofilename></originalaudiofilename>
															</logginginfo>
															<colorinfo>
																<lut></lut>
																<lut1></lut1>
																<asc_sop></asc_sop>
																<asc_sat></asc_sat>
																<lut2></lut2>
															</colorinfo>
															<labels>
																<label2>Teal</label2>
															</labels>
														</clipitem>
														<clipitem id="clipitem-347">
															<masterclipid>masterclip-65</masterclipid>
															<name># Eyecandy Vertical Video Frame 3</name>
															<enabled>TRUE</enabled>
															<duration>5700</duration>
															<rate>
																<timebase>30</timebase>
																<ntsc>TRUE</ntsc>
															</rate>
															<start>2647</start>
															<end>3360</end>
															<in>2752</in>
															<out>3465</out>
															<pproTicksIn>23325036134400</pproTicksIn>
															<pproTicksOut>29368186848000</pproTicksOut>
															<alphatype>straight</alphatype>
															<file id="file-54"/>
															<logginginfo>
																<description></description>
																<scene></scene>
																<shottake></shottake>
																<lognote></lognote>
																<good></good>
																<originalvideofilename></originalvideofilename>
																<originalaudiofilename></originalaudiofilename>
															</logginginfo>
															<colorinfo>
																<lut></lut>
																<lut1></lut1>
																<asc_sop></asc_sop>
																<asc_sat></asc_sat>
																<lut2></lut2>
															</colorinfo>
															<labels>
																<label2>Teal</label2>
															</labels>
														</clipitem>
														<enabled>TRUE</enabled>
														<locked>FALSE</locked>
													</track>
													<track TL.SQTrackShy="0" TL.SQTrackExpandedHeight="25" TL.SQTrackExpanded="0" MZ.TrackTargeted="0">
														<enabled>TRUE</enabled>
														<locked>FALSE</locked>
													</track>
													<track TL.SQTrackShy="0" TL.SQTrackExpandedHeight="25" TL.SQTrackExpanded="0" MZ.TrackTargeted="0">
														<enabled>TRUE</enabled>
														<locked>FALSE</locked>
													</track>
													<track TL.SQTrackShy="0" TL.SQTrackExpandedHeight="25" TL.SQTrackExpanded="0" MZ.TrackTargeted="0">
														<enabled>TRUE</enabled>
														<locked>FALSE</locked>
													</track>
													<track TL.SQTrackShy="0" TL.SQTrackExpandedHeight="25" TL.SQTrackExpanded="0" MZ.TrackTargeted="0">
														<enabled>TRUE</enabled>
														<locked>FALSE</locked>
													</track>
													<track TL.SQTrackShy="0" TL.SQTrackExpandedHeight="25" TL.SQTrackExpanded="0" MZ.TrackTargeted="0">
														<enabled>TRUE</enabled>
														<locked>FALSE</locked>
													</track>
													<track TL.SQTrackShy="0" TL.SQTrackExpandedHeight="25" TL.SQTrackExpanded="0" MZ.TrackTargeted="0">
														<enabled>TRUE</enabled>
														<locked>FALSE</locked>
													</track>
													<track TL.SQTrackShy="0" TL.SQTrackExpandedHeight="25" TL.SQTrackExpanded="0" MZ.TrackTargeted="0">
														<enabled>TRUE</enabled>
														<locked>FALSE</locked>
													</track>
													<track TL.SQTrackShy="0" TL.SQTrackExpandedHeight="25" TL.SQTrackExpanded="0" MZ.TrackTargeted="0">
														<enabled>TRUE</enabled>
														<locked>FALSE</locked>
													</track>
												</video>
												<audio>
													<numOutputChannels>2</numOutputChannels>
													<format>
														<samplecharacteristics>
															<depth>16</depth>
															<samplerate>48000</samplerate>
														</samplecharacteristics>
													</format>
													<outputs>
														<group>
															<index>1</index>
															<numchannels>1</numchannels>
															<downmix>0</downmix>
															<channel>
																<index>1</index>
															</channel>
														</group>
														<group>
															<index>2</index>
															<numchannels>1</numchannels>
															<downmix>0</downmix>
															<channel>
																<index>2</index>
															</channel>
														</group>
													</outputs>
													<track TL.SQTrackAudioKeyframeStyle="0" TL.SQTrackShy="0" TL.SQTrackExpandedHeight="25" TL.SQTrackExpanded="0" MZ.TrackTargeted="1" PannerCurrentValue="0.5" PannerIsInverted="true" PannerStartKeyframe="-91445760000000000,0.5,0,0,0,0,0,0" PannerName="Balance" currentExplodedTrackIndex="0" totalExplodedTrackCount="2" premiereTrackType="Stereo">
														<clipitem id="clipitem-348" premiereChannelType="stereo">
															<masterclipid>masterclip-145</masterclipid>
															<name>ES_Just a Little Bit (Instrumental Version) - Chris Shards.mp3</name>
															<enabled>TRUE</enabled>
															<duration>5435</duration>
															<rate>
																<timebase>30</timebase>
																<ntsc>TRUE</ntsc>
															</rate>
															<start>0</start>
															<end>3360</end>
															<in>0</in>
															<out>3360</out>
															<pproTicksIn>0</pproTicksIn>
															<pproTicksOut>28478241792000</pproTicksOut>
															<file id="file-125">
																<name>ES_Just a Little Bit (Instrumental Version) - Chris Shards.mp3</name>
																<pathurl>file://localhost/Volumes/ATM%201/EYE%20CANDY/8%3a14%3a23/5_Assets/Music/ES_Just%20a%20Little%20Bit%20(Instrumental%20Version)%20-%20Chris%20Shards.mp3</pathurl>
																<rate>
																	<timebase>30</timebase>
																	<ntsc>TRUE</ntsc>
																</rate>
																<duration>5435</duration>
																<timecode>
																	<rate>
																		<timebase>30</timebase>
																		<ntsc>TRUE</ntsc>
																	</rate>
																	<string>00;00;00;00</string>
																	<frame>0</frame>
																	<displayformat>DF</displayformat>
																</timecode>
																<media>
																	<audio>
																		<samplecharacteristics>
																			<depth>16</depth>
																			<samplerate>48000</samplerate>
																		</samplecharacteristics>
																		<channelcount>2</channelcount>
																	</audio>
																</media>
															</file>
															<sourcetrack>
																<mediatype>audio</mediatype>
																<trackindex>1</trackindex>
															</sourcetrack>
															<link>
																<linkclipref>clipitem-348</linkclipref>
																<mediatype>audio</mediatype>
																<trackindex>1</trackindex>
																<clipindex>1</clipindex>
																<groupindex>1</groupindex>
															</link>
															<link>
																<linkclipref>clipitem-349</linkclipref>
																<mediatype>audio</mediatype>
																<trackindex>2</trackindex>
																<clipindex>1</clipindex>
																<groupindex>1</groupindex>
															</link>
															<logginginfo>
																<description></description>
																<scene></scene>
																<shottake></shottake>
																<lognote></lognote>
																<good></good>
																<originalvideofilename></originalvideofilename>
																<originalaudiofilename></originalaudiofilename>
															</logginginfo>
															<colorinfo>
																<lut></lut>
																<lut1></lut1>
																<asc_sop></asc_sop>
																<asc_sat></asc_sat>
																<lut2></lut2>
															</colorinfo>
															<labels>
																<label2>Caribbean</label2>
															</labels>
														</clipitem>
														<enabled>TRUE</enabled>
														<locked>FALSE</locked>
														<filter>
															<effect>
																<name>Audio Levels</name>
																<effectid>audiolevels</effectid>
																<effectcategory>audiolevels</effectcategory>
																<effecttype>audiolevels</effecttype>
																<mediatype>audio</mediatype>
																<parameter authoringApp="PremierePro">
																	<parameterid>level</parameterid>
																	<name>Level</name>
																	<valuemin>0</valuemin>
																	<valuemax>3.98109</valuemax>
																	<value>0.706272</value>
																</parameter>
															</effect>
														</filter>
														<outputchannelindex>1</outputchannelindex>
													</track>
													<track TL.SQTrackAudioKeyframeStyle="0" TL.SQTrackShy="0" TL.SQTrackExpandedHeight="25" TL.SQTrackExpanded="0" MZ.TrackTargeted="1" PannerCurrentValue="0.5" PannerIsInverted="true" PannerStartKeyframe="-91445760000000000,0.5,0,0,0,0,0,0" PannerName="Balance" currentExplodedTrackIndex="1" totalExplodedTrackCount="2" premiereTrackType="Stereo">
														<clipitem id="clipitem-349" premiereChannelType="stereo">
															<masterclipid>masterclip-145</masterclipid>
															<name>ES_Just a Little Bit (Instrumental Version) - Chris Shards.mp3</name>
															<enabled>TRUE</enabled>
															<duration>5435</duration>
															<rate>
																<timebase>30</timebase>
																<ntsc>TRUE</ntsc>
															</rate>
															<start>0</start>
															<end>3360</end>
															<in>0</in>
															<out>3360</out>
															<pproTicksIn>0</pproTicksIn>
															<pproTicksOut>28478241792000</pproTicksOut>
															<file id="file-125"/>
															<sourcetrack>
																<mediatype>audio</mediatype>
																<trackindex>2</trackindex>
															</sourcetrack>
															<link>
																<linkclipref>clipitem-348</linkclipref>
																<mediatype>audio</mediatype>
																<trackindex>1</trackindex>
																<clipindex>1</clipindex>
																<groupindex>1</groupindex>
															</link>
															<link>
																<linkclipref>clipitem-349</linkclipref>
																<mediatype>audio</mediatype>
																<trackindex>2</trackindex>
																<clipindex>1</clipindex>
																<groupindex>1</groupindex>
															</link>
															<logginginfo>
																<description></description>
																<scene></scene>
																<shottake></shottake>
																<lognote></lognote>
																<good></good>
																<originalvideofilename></originalvideofilename>
																<originalaudiofilename></originalaudiofilename>
															</logginginfo>
															<colorinfo>
																<lut></lut>
																<lut1></lut1>
																<asc_sop></asc_sop>
																<asc_sat></asc_sat>
																<lut2></lut2>
															</colorinfo>
															<labels>
																<label2>Caribbean</label2>
															</labels>
														</clipitem>
														<enabled>TRUE</enabled>
														<locked>FALSE</locked>
														<filter>
															<effect>
																<name>Audio Levels</name>
																<effectid>audiolevels</effectid>
																<effectcategory>audiolevels</effectcategory>
																<effecttype>audiolevels</effecttype>
																<mediatype>audio</mediatype>
																<parameter authoringApp="PremierePro">
																	<parameterid>level</parameterid>
																	<name>Level</name>
																	<valuemin>0</valuemin>
																	<valuemax>3.98109</valuemax>
																	<value>0.706272</value>
																</parameter>
															</effect>
														</filter>
														<outputchannelindex>2</outputchannelindex>
													</track>
													<track TL.SQTrackAudioKeyframeStyle="0" TL.SQTrackShy="0" TL.SQTrackExpandedHeight="25" TL.SQTrackExpanded="0" MZ.TrackTargeted="0" PannerCurrentValue="0.5" PannerIsInverted="true" PannerStartKeyframe="-91445760000000000,0.5,0,0,0,0,0,0" PannerName="Balance" currentExplodedTrackIndex="0" totalExplodedTrackCount="2" premiereTrackType="Stereo">
														<enabled>TRUE</enabled>
														<locked>FALSE</locked>
														<outputchannelindex>1</outputchannelindex>
													</track>
													<track TL.SQTrackAudioKeyframeStyle="0" TL.SQTrackShy="0" TL.SQTrackExpandedHeight="25" TL.SQTrackExpanded="0" MZ.TrackTargeted="0" PannerCurrentValue="0.5" PannerIsInverted="true" PannerStartKeyframe="-91445760000000000,0.5,0,0,0,0,0,0" PannerName="Balance" currentExplodedTrackIndex="1" totalExplodedTrackCount="2" premiereTrackType="Stereo">
														<enabled>TRUE</enabled>
														<locked>FALSE</locked>
														<outputchannelindex>2</outputchannelindex>
													</track>
													<track TL.SQTrackAudioKeyframeStyle="0" TL.SQTrackShy="0" TL.SQTrackExpandedHeight="25" TL.SQTrackExpanded="0" MZ.TrackTargeted="0" PannerCurrentValue="0.5" PannerIsInverted="true" PannerStartKeyframe="-91445760000000000,0.5,0,0,0,0,0,0" PannerName="Balance" currentExplodedTrackIndex="0" totalExplodedTrackCount="2" premiereTrackType="Stereo">
														<enabled>TRUE</enabled>
														<locked>FALSE</locked>
														<outputchannelindex>1</outputchannelindex>
													</track>
													<track TL.SQTrackAudioKeyframeStyle="0" TL.SQTrackShy="0" TL.SQTrackExpandedHeight="25" TL.SQTrackExpanded="0" MZ.TrackTargeted="0" PannerCurrentValue="0.5" PannerIsInverted="true" PannerStartKeyframe="-91445760000000000,0.5,0,0,0,0,0,0" PannerName="Balance" currentExplodedTrackIndex="1" totalExplodedTrackCount="2" premiereTrackType="Stereo">
														<enabled>TRUE</enabled>
														<locked>FALSE</locked>
														<outputchannelindex>2</outputchannelindex>
													</track>
													<track TL.SQTrackAudioKeyframeStyle="0" TL.SQTrackShy="0" TL.SQTrackExpandedHeight="25" TL.SQTrackExpanded="0" MZ.TrackTargeted="0" PannerCurrentValue="0.5" PannerIsInverted="true" PannerStartKeyframe="-91445760000000000,0.5,0,0,0,0,0,0" PannerName="Balance" currentExplodedTrackIndex="0" totalExplodedTrackCount="2" premiereTrackType="Stereo">
														<enabled>TRUE</enabled>
														<locked>FALSE</locked>
														<outputchannelindex>1</outputchannelindex>
													</track>
													<track TL.SQTrackAudioKeyframeStyle="0" TL.SQTrackShy="0" TL.SQTrackExpandedHeight="25" TL.SQTrackExpanded="0" MZ.TrackTargeted="0" PannerCurrentValue="0.5" PannerIsInverted="true" PannerStartKeyframe="-91445760000000000,0.5,0,0,0,0,0,0" PannerName="Balance" currentExplodedTrackIndex="1" totalExplodedTrackCount="2" premiereTrackType="Stereo">
														<enabled>TRUE</enabled>
														<locked>FALSE</locked>
														<outputchannelindex>2</outputchannelindex>
													</track>
													<track TL.SQTrackAudioKeyframeStyle="0" TL.SQTrackShy="0" TL.SQTrackExpandedHeight="25" TL.SQTrackExpanded="0" MZ.TrackTargeted="0" PannerCurrentValue="0.5" PannerIsInverted="true" PannerStartKeyframe="-91445760000000000,0.5,0,0,0,0,0,0" PannerName="Balance" currentExplodedTrackIndex="0" totalExplodedTrackCount="2" premiereTrackType="Stereo">
														<enabled>TRUE</enabled>
														<locked>FALSE</locked>
														<outputchannelindex>1</outputchannelindex>
													</track>
													<track TL.SQTrackAudioKeyframeStyle="0" TL.SQTrackShy="0" TL.SQTrackExpandedHeight="25" TL.SQTrackExpanded="0" MZ.TrackTargeted="0" PannerCurrentValue="0.5" PannerIsInverted="true" PannerStartKeyframe="-91445760000000000,0.5,0,0,0,0,0,0" PannerName="Balance" currentExplodedTrackIndex="1" totalExplodedTrackCount="2" premiereTrackType="Stereo">
														<enabled>TRUE</enabled>
														<locked>FALSE</locked>
														<outputchannelindex>2</outputchannelindex>
													</track>
													<track TL.SQTrackAudioKeyframeStyle="0" TL.SQTrackShy="0" TL.SQTrackExpandedHeight="25" TL.SQTrackExpanded="0" MZ.TrackTargeted="0" PannerCurrentValue="0.5" PannerIsInverted="true" PannerStartKeyframe="-91445760000000000,0.5,0,0,0,0,0,0" PannerName="Balance" currentExplodedTrackIndex="0" totalExplodedTrackCount="2" premiereTrackType="Stereo">
														<enabled>TRUE</enabled>
														<locked>FALSE</locked>
														<outputchannelindex>1</outputchannelindex>
													</track>
													<track TL.SQTrackAudioKeyframeStyle="0" TL.SQTrackShy="0" TL.SQTrackExpandedHeight="25" TL.SQTrackExpanded="0" MZ.TrackTargeted="0" PannerCurrentValue="0.5" PannerIsInverted="true" PannerStartKeyframe="-91445760000000000,0.5,0,0,0,0,0,0" PannerName="Balance" currentExplodedTrackIndex="1" totalExplodedTrackCount="2" premiereTrackType="Stereo">
														<enabled>TRUE</enabled>
														<locked>FALSE</locked>
														<outputchannelindex>2</outputchannelindex>
													</track>
													<track TL.SQTrackAudioKeyframeStyle="0" TL.SQTrackShy="0" TL.SQTrackExpandedHeight="25" TL.SQTrackExpanded="0" MZ.TrackTargeted="0" PannerCurrentValue="0.5" PannerIsInverted="true" PannerStartKeyframe="-91445760000000000,0.5,0,0,0,0,0,0" PannerName="Balance" currentExplodedTrackIndex="0" totalExplodedTrackCount="2" premiereTrackType="Stereo">
														<enabled>TRUE</enabled>
														<locked>FALSE</locked>
														<outputchannelindex>1</outputchannelindex>
													</track>
													<track TL.SQTrackAudioKeyframeStyle="0" TL.SQTrackShy="0" TL.SQTrackExpandedHeight="25" TL.SQTrackExpanded="0" MZ.TrackTargeted="0" PannerCurrentValue="0.5" PannerIsInverted="true" PannerStartKeyframe="-91445760000000000,0.5,0,0,0,0,0,0" PannerName="Balance" currentExplodedTrackIndex="1" totalExplodedTrackCount="2" premiereTrackType="Stereo">
														<enabled>TRUE</enabled>
														<locked>FALSE</locked>
														<outputchannelindex>2</outputchannelindex>
													</track>
													<track TL.SQTrackAudioKeyframeStyle="0" TL.SQTrackShy="0" TL.SQTrackExpandedHeight="25" TL.SQTrackExpanded="0" MZ.TrackTargeted="0" PannerCurrentValue="0.5" PannerIsInverted="true" PannerStartKeyframe="-91445760000000000,0.5,0,0,0,0,0,0" PannerName="Balance" currentExplodedTrackIndex="0" totalExplodedTrackCount="2" premiereTrackType="Stereo">
														<enabled>TRUE</enabled>
														<locked>FALSE</locked>
														<outputchannelindex>1</outputchannelindex>
													</track>
													<track TL.SQTrackAudioKeyframeStyle="0" TL.SQTrackShy="0" TL.SQTrackExpandedHeight="25" TL.SQTrackExpanded="0" MZ.TrackTargeted="0" PannerCurrentValue="0.5" PannerIsInverted="true" PannerStartKeyframe="-91445760000000000,0.5,0,0,0,0,0,0" PannerName="Balance" currentExplodedTrackIndex="1" totalExplodedTrackCount="2" premiereTrackType="Stereo">
														<enabled>TRUE</enabled>
														<locked>FALSE</locked>
														<outputchannelindex>2</outputchannelindex>
													</track>
													<track TL.SQTrackAudioKeyframeStyle="0" TL.SQTrackShy="0" TL.SQTrackExpandedHeight="25" TL.SQTrackExpanded="0" MZ.TrackTargeted="0" PannerCurrentValue="0.5" PannerIsInverted="true" PannerStartKeyframe="-91445760000000000,0.5,0,0,0,0,0,0" PannerName="Balance" currentExplodedTrackIndex="0" totalExplodedTrackCount="2" premiereTrackType="Stereo">
														<enabled>TRUE</enabled>
														<locked>FALSE</locked>
														<outputchannelindex>1</outputchannelindex>
													</track>
													<track TL.SQTrackAudioKeyframeStyle="0" TL.SQTrackShy="0" TL.SQTrackExpandedHeight="25" TL.SQTrackExpanded="0" MZ.TrackTargeted="0" PannerCurrentValue="0.5" PannerIsInverted="true" PannerStartKeyframe="-91445760000000000,0.5,0,0,0,0,0,0" PannerName="Balance" currentExplodedTrackIndex="1" totalExplodedTrackCount="2" premiereTrackType="Stereo">
														<enabled>TRUE</enabled>
														<locked>FALSE</locked>
														<outputchannelindex>2</outputchannelindex>
													</track>
													<track TL.SQTrackAudioKeyframeStyle="0" TL.SQTrackShy="0" TL.SQTrackExpandedHeight="25" TL.SQTrackExpanded="0" MZ.TrackTargeted="0" PannerCurrentValue="0.5" PannerIsInverted="true" PannerStartKeyframe="-91445760000000000,0.5,0,0,0,0,0,0" PannerName="Balance" currentExplodedTrackIndex="0" totalExplodedTrackCount="2" premiereTrackType="Stereo">
														<enabled>TRUE</enabled>
														<locked>FALSE</locked>
														<outputchannelindex>1</outputchannelindex>
													</track>
													<track TL.SQTrackAudioKeyframeStyle="0" TL.SQTrackShy="0" TL.SQTrackExpandedHeight="25" TL.SQTrackExpanded="0" MZ.TrackTargeted="0" PannerCurrentValue="0.5" PannerIsInverted="true" PannerStartKeyframe="-91445760000000000,0.5,0,0,0,0,0,0" PannerName="Balance" currentExplodedTrackIndex="1" totalExplodedTrackCount="2" premiereTrackType="Stereo">
														<enabled>TRUE</enabled>
														<locked>FALSE</locked>
														<outputchannelindex>2</outputchannelindex>
													</track>
												</audio>
											</media>
											<timecode>
												<rate>
													<timebase>30</timebase>
													<ntsc>TRUE</ntsc>
												</rate>
												<string>00;00;00;00</string>
												<frame>0</frame>
												<displayformat>DF</displayformat>
											</timecode>
											<logginginfo>
												<description></description>
												<scene></scene>
												<shottake></shottake>
												<lognote></lognote>
												<good></good>
												<originalvideofilename></originalvideofilename>
												<originalaudiofilename></originalaudiofilename>
											</logginginfo>
										</sequence>
										<link>
											<linkclipref>clipitem-332</linkclipref>
											<mediatype>video</mediatype>
											<trackindex>1</trackindex>
											<clipindex>2</clipindex>
										</link>
										<link>
											<linkclipref>clipitem-357</linkclipref>
											<mediatype>audio</mediatype>
											<trackindex>1</trackindex>
											<clipindex>3</clipindex>
											<groupindex>1</groupindex>
										</link>
										<link>
											<linkclipref>clipitem-359</linkclipref>
											<mediatype>audio</mediatype>
											<trackindex>2</trackindex>
											<clipindex>3</clipindex>
											<groupindex>1</groupindex>
										</link>
										<labels>
											<label2>Forest</label2>
										</labels>
									</clipitem>
									<enabled>TRUE</enabled>
									<locked>FALSE</locked>
								</track>
								<track TL.SQTrackShy="0" TL.SQTrackExpandedHeight="25" TL.SQTrackExpanded="0" MZ.TrackTargeted="0">
									<clipitem id="clipitem-350">
										<masterclipid>masterclip-16</masterclipid>
										<name>ATM BUG_1080_Top Right.png</name>
										<enabled>TRUE</enabled>
										<duration>1294705</duration>
										<rate>
											<timebase>30</timebase>
											<ntsc>TRUE</ntsc>
										</rate>
										<start>82</start>
										<end>5036</end>
										<in>107892</in>
										<out>112846</out>
										<pproTicksIn>914456685542400</pproTicksIn>
										<pproTicksOut>956445140851200</pproTicksOut>
										<alphatype>straight</alphatype>
										<file id="file-14"/>
										<logginginfo>
											<description></description>
											<scene></scene>
											<shottake></shottake>
											<lognote></lognote>
											<good></good>
											<originalvideofilename></originalvideofilename>
											<originalaudiofilename></originalaudiofilename>
										</logginginfo>
										<colorinfo>
											<lut></lut>
											<lut1></lut1>
											<asc_sop></asc_sop>
											<asc_sat></asc_sat>
											<lut2></lut2>
										</colorinfo>
										<labels>
										</labels>
									</clipitem>
									<enabled>TRUE</enabled>
									<locked>FALSE</locked>
								</track>
								<track TL.SQTrackShy="0" TL.SQTrackExpandedHeight="25" TL.SQTrackExpanded="0" MZ.TrackTargeted="0">
									<clipitem id="clipitem-351">
										<masterclipid>masterclip-146</masterclipid>
										<name>Cupcaked Up</name>
										<enabled>TRUE</enabled>
										<duration>6293</duration>
										<rate>
											<timebase>30</timebase>
											<ntsc>TRUE</ntsc>
										</rate>
										<start>115</start>
										<end>1676</end>
										<in>30</in>
										<out>1591</out>
										<pproTicksIn>254270016000</pproTicksIn>
										<pproTicksOut>13484786515200</pproTicksOut>
										<alphatype>straight</alphatype>
										<pixelaspectratio>square</pixelaspectratio>
										<anamorphic>FALSE</anamorphic>
										<file id="file-126">
											<name>EYECANDY_L3RD_JL_V03/EYECANDY_L3rd_JL_V04.aep</name>
											<pathurl>file://localhost/Volumes/ATM%201/EYE%20CANDY/Project%20Template/5_Assets/Eye%20Candy%20Mograph/EYECANDY_L3rd_JL_V04%20folder/EYECANDY_L3rd_JL_V04.aep</pathurl>
											<rate>
												<timebase>30</timebase>
												<ntsc>FALSE</ntsc>
											</rate>
											<duration>6300</duration>
											<timecode>
												<rate>
													<timebase>30</timebase>
													<ntsc>FALSE</ntsc>
												</rate>
												<string>00:00:00:00</string>
												<frame>0</frame>
												<displayformat>NDF</displayformat>
											</timecode>
											<media>
												<video>
													<samplecharacteristics>
														<rate>
															<timebase>30</timebase>
															<ntsc>FALSE</ntsc>
														</rate>
														<width>1920</width>
														<height>1080</height>
														<anamorphic>FALSE</anamorphic>
														<pixelaspectratio>square</pixelaspectratio>
														<fielddominance>lower</fielddominance>
													</samplecharacteristics>
												</video>
											</media>
										</file>
										<logginginfo>
											<description></description>
											<scene></scene>
											<shottake></shottake>
											<lognote></lognote>
											<good></good>
											<originalvideofilename></originalvideofilename>
											<originalaudiofilename></originalaudiofilename>
										</logginginfo>
										<colorinfo>
											<lut></lut>
											<lut1></lut1>
											<asc_sop></asc_sop>
											<asc_sat></asc_sat>
											<lut2></lut2>
										</colorinfo>
									</clipitem>
									<clipitem id="clipitem-352">
										<masterclipid>masterclip-147</masterclipid>
										<name>It's Bananas</name>
										<enabled>TRUE</enabled>
										<duration>6293</duration>
										<rate>
											<timebase>30</timebase>
											<ntsc>TRUE</ntsc>
										</rate>
										<start>1741</start>
										<end>5036</end>
										<in>30</in>
										<out>3325</out>
										<pproTicksIn>254270016000</pproTicksIn>
										<pproTicksOut>28181593440000</pproTicksOut>
										<alphatype>straight</alphatype>
										<pixelaspectratio>square</pixelaspectratio>
										<anamorphic>FALSE</anamorphic>
										<file id="file-127">
											<name>EYECANDY_L3RD_JL_V03/EYECANDY_L3rd_JL_V04.aep</name>
											<pathurl>file://localhost/Volumes/ATM%201/EYE%20CANDY/Project%20Template/5_Assets/Eye%20Candy%20Mograph/EYECANDY_L3rd_JL_V04%20folder/EYECANDY_L3rd_JL_V04.aep</pathurl>
											<rate>
												<timebase>30</timebase>
												<ntsc>FALSE</ntsc>
											</rate>
											<duration>6300</duration>
											<timecode>
												<rate>
													<timebase>30</timebase>
													<ntsc>FALSE</ntsc>
												</rate>
												<string>00:00:00:00</string>
												<frame>0</frame>
												<displayformat>NDF</displayformat>
											</timecode>
											<media>
												<video>
													<samplecharacteristics>
														<rate>
															<timebase>30</timebase>
															<ntsc>FALSE</ntsc>
														</rate>
														<width>1920</width>
														<height>1080</height>
														<anamorphic>FALSE</anamorphic>
														<pixelaspectratio>square</pixelaspectratio>
														<fielddominance>lower</fielddominance>
													</samplecharacteristics>
												</video>
											</media>
										</file>
										<logginginfo>
											<description></description>
											<scene></scene>
											<shottake></shottake>
											<lognote></lognote>
											<good></good>
											<originalvideofilename></originalvideofilename>
											<originalaudiofilename></originalaudiofilename>
										</logginginfo>
										<colorinfo>
											<lut></lut>
											<lut1></lut1>
											<asc_sop></asc_sop>
											<asc_sat></asc_sat>
											<lut2></lut2>
										</colorinfo>
									</clipitem>
									<enabled>TRUE</enabled>
									<locked>FALSE</locked>
								</track>
								<track TL.SQTrackShy="0" TL.SQTrackExpandedHeight="25" TL.SQTrackExpanded="0" MZ.TrackTargeted="0">
									<clipitem id="clipitem-353">
										<masterclipid>masterclip-19</masterclipid>
										<name>Intro</name>
										<enabled>TRUE</enabled>
										<duration>160</duration>
										<rate>
											<timebase>30</timebase>
											<ntsc>TRUE</ntsc>
										</rate>
										<start>0</start>
										<end>115</end>
										<in>0</in>
										<out>115</out>
										<pproTicksIn>0</pproTicksIn>
										<pproTicksOut>974701728000</pproTicksOut>
										<sequence id="sequence-4"/>
											<marker>
												<comment></comment>
												<name></name>
												<in>82</in>
												<out>-1</out>
											</marker>
										<link>
											<linkclipref>clipitem-353</linkclipref>
											<mediatype>video</mediatype>
											<trackindex>4</trackindex>
											<clipindex>1</clipindex>
										</link>
										<link>
											<linkclipref>clipitem-360</linkclipref>
											<mediatype>audio</mediatype>
											<trackindex>3</trackindex>
											<clipindex>1</clipindex>
											<groupindex>1</groupindex>
										</link>
										<link>
											<linkclipref>clipitem-363</linkclipref>
											<mediatype>audio</mediatype>
											<trackindex>4</trackindex>
											<clipindex>1</clipindex>
											<groupindex>1</groupindex>
										</link>
										<labels>
											<label2>Forest</label2>
										</labels>
									</clipitem>
									<clipitem id="clipitem-354">
										<masterclipid>masterclip-21</masterclipid>
										<name>Transition 2</name>
										<enabled>TRUE</enabled>
										<duration>160</duration>
										<rate>
											<timebase>30</timebase>
											<ntsc>TRUE</ntsc>
										</rate>
										<start>1622</start>
										<end>1741</end>
										<in>0</in>
										<out>119</out>
										<pproTicksIn>0</pproTicksIn>
										<pproTicksOut>1008604396800</pproTicksOut>
										<sequence id="sequence-5"/>
											<marker>
												<comment></comment>
												<name></name>
												<in>54</in>
												<out>-1</out>
											</marker>
											<marker>
												<comment></comment>
												<name></name>
												<in>20</in>
												<out>-1</out>
											</marker>
										<link>
											<linkclipref>clipitem-354</linkclipref>
											<mediatype>video</mediatype>
											<trackindex>4</trackindex>
											<clipindex>2</clipindex>
										</link>
										<link>
											<linkclipref>clipitem-361</linkclipref>
											<mediatype>audio</mediatype>
											<trackindex>3</trackindex>
											<clipindex>2</clipindex>
											<groupindex>1</groupindex>
										</link>
										<link>
											<linkclipref>clipitem-364</linkclipref>
											<mediatype>audio</mediatype>
											<trackindex>4</trackindex>
											<clipindex>2</clipindex>
											<groupindex>1</groupindex>
										</link>
										<labels>
											<label2>Forest</label2>
										</labels>
									</clipitem>
									<clipitem id="clipitem-355">
										<masterclipid>masterclip-23</masterclipid>
										<name>Outro</name>
										<enabled>TRUE</enabled>
										<duration>160</duration>
										<rate>
											<timebase>30</timebase>
											<ntsc>TRUE</ntsc>
										</rate>
										<start>4994</start>
										<end>5131</end>
										<in>0</in>
										<out>137</out>
										<pproTicksIn>0</pproTicksIn>
										<pproTicksOut>1161166406400</pproTicksOut>
										<sequence id="sequence-6"/>
											<marker>
												<comment></comment>
												<name></name>
												<in>42</in>
												<out>-1</out>
											</marker>
										<link>
											<linkclipref>clipitem-355</linkclipref>
											<mediatype>video</mediatype>
											<trackindex>4</trackindex>
											<clipindex>3</clipindex>
										</link>
										<link>
											<linkclipref>clipitem-362</linkclipref>
											<mediatype>audio</mediatype>
											<trackindex>3</trackindex>
											<clipindex>3</clipindex>
											<groupindex>1</groupindex>
										</link>
										<link>
											<linkclipref>clipitem-365</linkclipref>
											<mediatype>audio</mediatype>
											<trackindex>4</trackindex>
											<clipindex>3</clipindex>
											<groupindex>1</groupindex>
										</link>
										<labels>
											<label2>Forest</label2>
										</labels>
									</clipitem>
									<enabled>TRUE</enabled>
									<locked>FALSE</locked>
								</track>
							</video>
							<audio>
								<numOutputChannels>2</numOutputChannels>
								<format>
									<samplecharacteristics>
										<depth>16</depth>
										<samplerate>48000</samplerate>
									</samplecharacteristics>
								</format>
								<outputs>
									<group>
										<index>1</index>
										<numchannels>1</numchannels>
										<downmix>0</downmix>
										<channel>
											<index>1</index>
										</channel>
									</group>
									<group>
										<index>2</index>
										<numchannels>1</numchannels>
										<downmix>0</downmix>
										<channel>
											<index>2</index>
										</channel>
									</group>
								</outputs>
								<track TL.SQTrackAudioKeyframeStyle="0" TL.SQTrackShy="0" TL.SQTrackExpandedHeight="25" TL.SQTrackExpanded="0" MZ.TrackTargeted="1" PannerCurrentValue="0.5" PannerIsInverted="true" PannerStartKeyframe="-91445760000000000,0.5,0,0,0,0,0,0" PannerName="Balance" currentExplodedTrackIndex="0" totalExplodedTrackCount="2" premiereTrackType="Stereo">
									<clipitem id="clipitem-356" premiereChannelType="stereo">
										<masterclipid>masterclip-135</masterclipid>
										<name>Cupcaked Up_1</name>
										<enabled>TRUE</enabled>
										<duration>1958</duration>
										<rate>
											<timebase>30</timebase>
											<ntsc>TRUE</ntsc>
										</rate>
										<start>82</start>
										<end>-1</end>
										<in>0</in>
										<out>1567</out>
										<pproTicksIn>0</pproTicksIn>
										<pproTicksOut>13281370502400</pproTicksOut>
										<sequence id="sequence-26"/>
										<sourcetrack>
											<mediatype>audio</mediatype>
											<trackindex>0</trackindex>
										</sourcetrack>
										<link>
											<linkclipref>clipitem-326</linkclipref>
											<mediatype>video</mediatype>
											<trackindex>1</trackindex>
											<clipindex>1</clipindex>
										</link>
										<link>
											<linkclipref>clipitem-356</linkclipref>
											<mediatype>audio</mediatype>
											<trackindex>1</trackindex>
											<clipindex>1</clipindex>
											<groupindex>1</groupindex>
										</link>
										<link>
											<linkclipref>clipitem-358</linkclipref>
											<mediatype>audio</mediatype>
											<trackindex>2</trackindex>
											<clipindex>1</clipindex>
											<groupindex>1</groupindex>
										</link>
										<labels>
											<label2>Forest</label2>
										</labels>
									</clipitem>
									<transitionitem>
										<start>1619</start>
										<end>1649</end>
										<pproTicksIn>13722105196800</pproTicksIn>
										<pproTicksOut>13976375212800</pproTicksOut>
										<alignment>end-black</alignment>
										<cutPointTicks>254270016000</cutPointTicks>
										<rate>
											<timebase>30</timebase>
											<ntsc>TRUE</ntsc>
										</rate>
										<effect>
											<name>Cross Fade ( 0dB)</name>
											<effectid>KGAudioTransCrossFade0dB</effectid>
											<effecttype>transition</effecttype>
											<mediatype>audio</mediatype>
											<wipecode>0</wipecode>
											<wipeaccuracy>100</wipeaccuracy>
											<startratio>0</startratio>
											<endratio>1</endratio>
											<reverse>FALSE</reverse>
										</effect>
									</transitionitem>
									<clipitem id="clipitem-357" premiereChannelType="stereo">
										<masterclipid>masterclip-139</masterclipid>
										<name>It's Bananas_</name>
										<enabled>TRUE</enabled>
										<duration>5700</duration>
										<rate>
											<timebase>30</timebase>
											<ntsc>TRUE</ntsc>
										</rate>
										<start>1676</start>
										<end>-1</end>
										<in>0</in>
										<out>3360</out>
										<pproTicksIn>0</pproTicksIn>
										<pproTicksOut>28478241792000</pproTicksOut>
										<sequence id="sequence-27"/>
										<sourcetrack>
											<mediatype>audio</mediatype>
											<trackindex>0</trackindex>
										</sourcetrack>
										<link>
											<linkclipref>clipitem-332</linkclipref>
											<mediatype>video</mediatype>
											<trackindex>1</trackindex>
											<clipindex>2</clipindex>
										</link>
										<link>
											<linkclipref>clipitem-357</linkclipref>
											<mediatype>audio</mediatype>
											<trackindex>1</trackindex>
											<clipindex>3</clipindex>
											<groupindex>1</groupindex>
										</link>
										<link>
											<linkclipref>clipitem-359</linkclipref>
											<mediatype>audio</mediatype>
											<trackindex>2</trackindex>
											<clipindex>3</clipindex>
											<groupindex>1</groupindex>
										</link>
										<labels>
											<label2>Forest</label2>
										</labels>
									</clipitem>
									<transitionitem>
										<start>5006</start>
										<end>5036</end>
										<pproTicksIn>42429190003200</pproTicksIn>
										<pproTicksOut>42683460019200</pproTicksOut>
										<alignment>end-black</alignment>
										<cutPointTicks>254270016000</cutPointTicks>
										<rate>
											<timebase>30</timebase>
											<ntsc>TRUE</ntsc>
										</rate>
										<effect>
											<name>Cross Fade ( 0dB)</name>
											<effectid>KGAudioTransCrossFade0dB</effectid>
											<effecttype>transition</effecttype>
											<mediatype>audio</mediatype>
											<wipecode>0</wipecode>
											<wipeaccuracy>100</wipeaccuracy>
											<startratio>0</startratio>
											<endratio>1</endratio>
											<reverse>FALSE</reverse>
										</effect>
									</transitionitem>
									<enabled>TRUE</enabled>
									<locked>FALSE</locked>
									<outputchannelindex>1</outputchannelindex>
								</track>
								<track TL.SQTrackAudioKeyframeStyle="0" TL.SQTrackShy="0" TL.SQTrackExpandedHeight="25" TL.SQTrackExpanded="0" MZ.TrackTargeted="1" PannerCurrentValue="0.5" PannerIsInverted="true" PannerStartKeyframe="-91445760000000000,0.5,0,0,0,0,0,0" PannerName="Balance" currentExplodedTrackIndex="1" totalExplodedTrackCount="2" premiereTrackType="Stereo">
									<clipitem id="clipitem-358" premiereChannelType="stereo">
										<masterclipid>masterclip-135</masterclipid>
										<name>Cupcaked Up_1</name>
										<enabled>TRUE</enabled>
										<duration>1958</duration>
										<rate>
											<timebase>30</timebase>
											<ntsc>TRUE</ntsc>
										</rate>
										<start>82</start>
										<end>-1</end>
										<in>0</in>
										<out>1567</out>
										<pproTicksIn>0</pproTicksIn>
										<pproTicksOut>13281370502400</pproTicksOut>
										<sequence id="sequence-26"/>
										<sourcetrack>
											<mediatype>audio</mediatype>
											<trackindex>1</trackindex>
										</sourcetrack>
										<link>
											<linkclipref>clipitem-326</linkclipref>
											<mediatype>video</mediatype>
											<trackindex>1</trackindex>
											<clipindex>1</clipindex>
										</link>
										<link>
											<linkclipref>clipitem-356</linkclipref>
											<mediatype>audio</mediatype>
											<trackindex>1</trackindex>
											<clipindex>1</clipindex>
											<groupindex>1</groupindex>
										</link>
										<link>
											<linkclipref>clipitem-358</linkclipref>
											<mediatype>audio</mediatype>
											<trackindex>2</trackindex>
											<clipindex>1</clipindex>
											<groupindex>1</groupindex>
										</link>
										<labels>
											<label2>Forest</label2>
										</labels>
									</clipitem>
									<transitionitem>
										<start>1619</start>
										<end>1649</end>
										<pproTicksIn>13722105196800</pproTicksIn>
										<pproTicksOut>13976375212800</pproTicksOut>
										<alignment>end-black</alignment>
										<cutPointTicks>254270016000</cutPointTicks>
										<rate>
											<timebase>30</timebase>
											<ntsc>TRUE</ntsc>
										</rate>
										<effect>
											<name>Cross Fade ( 0dB)</name>
											<effectid>KGAudioTransCrossFade0dB</effectid>
											<effecttype>transition</effecttype>
											<mediatype>audio</mediatype>
											<wipecode>0</wipecode>
											<wipeaccuracy>100</wipeaccuracy>
											<startratio>0</startratio>
											<endratio>1</endratio>
											<reverse>FALSE</reverse>
										</effect>
									</transitionitem>
									<clipitem id="clipitem-359" premiereChannelType="stereo">
										<masterclipid>masterclip-139</masterclipid>
										<name>It's Bananas_</name>
										<enabled>TRUE</enabled>
										<duration>5700</duration>
										<rate>
											<timebase>30</timebase>
											<ntsc>TRUE</ntsc>
										</rate>
										<start>1676</start>
										<end>-1</end>
										<in>0</in>
										<out>3360</out>
										<pproTicksIn>0</pproTicksIn>
										<pproTicksOut>28478241792000</pproTicksOut>
										<sequence id="sequence-27"/>
										<sourcetrack>
											<mediatype>audio</mediatype>
											<trackindex>1</trackindex>
										</sourcetrack>
										<link>
											<linkclipref>clipitem-332</linkclipref>
											<mediatype>video</mediatype>
											<trackindex>1</trackindex>
											<clipindex>2</clipindex>
										</link>
										<link>
											<linkclipref>clipitem-357</linkclipref>
											<mediatype>audio</mediatype>
											<trackindex>1</trackindex>
											<clipindex>3</clipindex>
											<groupindex>1</groupindex>
										</link>
										<link>
											<linkclipref>clipitem-359</linkclipref>
											<mediatype>audio</mediatype>
											<trackindex>2</trackindex>
											<clipindex>3</clipindex>
											<groupindex>1</groupindex>
										</link>
										<labels>
											<label2>Forest</label2>
										</labels>
									</clipitem>
									<transitionitem>
										<start>5006</start>
										<end>5036</end>
										<pproTicksIn>42429190003200</pproTicksIn>
										<pproTicksOut>42683460019200</pproTicksOut>
										<alignment>end-black</alignment>
										<cutPointTicks>254270016000</cutPointTicks>
										<rate>
											<timebase>30</timebase>
											<ntsc>TRUE</ntsc>
										</rate>
										<effect>
											<name>Cross Fade ( 0dB)</name>
											<effectid>KGAudioTransCrossFade0dB</effectid>
											<effecttype>transition</effecttype>
											<mediatype>audio</mediatype>
											<wipecode>0</wipecode>
											<wipeaccuracy>100</wipeaccuracy>
											<startratio>0</startratio>
											<endratio>1</endratio>
											<reverse>FALSE</reverse>
										</effect>
									</transitionitem>
									<enabled>TRUE</enabled>
									<locked>FALSE</locked>
									<outputchannelindex>2</outputchannelindex>
								</track>
								<track TL.SQTrackAudioKeyframeStyle="0" TL.SQTrackShy="0" TL.SQTrackExpandedHeight="25" TL.SQTrackExpanded="0" MZ.TrackTargeted="1" PannerCurrentValue="0.5" PannerIsInverted="true" PannerStartKeyframe="-91445760000000000,0.5,0,0,0,0,0,0" PannerName="Balance" currentExplodedTrackIndex="0" totalExplodedTrackCount="2" premiereTrackType="Stereo">
									<clipitem id="clipitem-360" premiereChannelType="stereo">
										<masterclipid>masterclip-19</masterclipid>
										<name>Intro</name>
										<enabled>TRUE</enabled>
										<duration>160</duration>
										<rate>
											<timebase>30</timebase>
											<ntsc>TRUE</ntsc>
										</rate>
										<start>0</start>
										<end>115</end>
										<in>0</in>
										<out>115</out>
										<pproTicksIn>0</pproTicksIn>
										<pproTicksOut>974701728000</pproTicksOut>
										<sequence id="sequence-4"/>
										<sourcetrack>
											<mediatype>audio</mediatype>
											<trackindex>0</trackindex>
										</sourcetrack>
											<marker>
												<comment></comment>
												<name></name>
												<in>82</in>
												<out>-1</out>
											</marker>
										<link>
											<linkclipref>clipitem-353</linkclipref>
											<mediatype>video</mediatype>
											<trackindex>4</trackindex>
											<clipindex>1</clipindex>
										</link>
										<link>
											<linkclipref>clipitem-360</linkclipref>
											<mediatype>audio</mediatype>
											<trackindex>3</trackindex>
											<clipindex>1</clipindex>
											<groupindex>1</groupindex>
										</link>
										<link>
											<linkclipref>clipitem-363</linkclipref>
											<mediatype>audio</mediatype>
											<trackindex>4</trackindex>
											<clipindex>1</clipindex>
											<groupindex>1</groupindex>
										</link>
										<labels>
											<label2>Forest</label2>
										</labels>
									</clipitem>
									<clipitem id="clipitem-361" premiereChannelType="stereo">
										<masterclipid>masterclip-21</masterclipid>
										<name>Transition 2</name>
										<enabled>TRUE</enabled>
										<duration>160</duration>
										<rate>
											<timebase>30</timebase>
											<ntsc>TRUE</ntsc>
										</rate>
										<start>1622</start>
										<end>1741</end>
										<in>0</in>
										<out>119</out>
										<pproTicksIn>0</pproTicksIn>
										<pproTicksOut>1008604396800</pproTicksOut>
										<sequence id="sequence-5"/>
										<sourcetrack>
											<mediatype>audio</mediatype>
											<trackindex>0</trackindex>
										</sourcetrack>
											<marker>
												<comment></comment>
												<name></name>
												<in>54</in>
												<out>-1</out>
											</marker>
											<marker>
												<comment></comment>
												<name></name>
												<in>20</in>
												<out>-1</out>
											</marker>
										<link>
											<linkclipref>clipitem-354</linkclipref>
											<mediatype>video</mediatype>
											<trackindex>4</trackindex>
											<clipindex>2</clipindex>
										</link>
										<link>
											<linkclipref>clipitem-361</linkclipref>
											<mediatype>audio</mediatype>
											<trackindex>3</trackindex>
											<clipindex>2</clipindex>
											<groupindex>1</groupindex>
										</link>
										<link>
											<linkclipref>clipitem-364</linkclipref>
											<mediatype>audio</mediatype>
											<trackindex>4</trackindex>
											<clipindex>2</clipindex>
											<groupindex>1</groupindex>
										</link>
										<labels>
											<label2>Forest</label2>
										</labels>
									</clipitem>
									<clipitem id="clipitem-362" premiereChannelType="stereo">
										<masterclipid>masterclip-23</masterclipid>
										<name>Outro</name>
										<enabled>TRUE</enabled>
										<duration>160</duration>
										<rate>
											<timebase>30</timebase>
											<ntsc>TRUE</ntsc>
										</rate>
										<start>4994</start>
										<end>5131</end>
										<in>0</in>
										<out>137</out>
										<pproTicksIn>0</pproTicksIn>
										<pproTicksOut>1161166406400</pproTicksOut>
										<sequence id="sequence-6"/>
										<sourcetrack>
											<mediatype>audio</mediatype>
											<trackindex>0</trackindex>
										</sourcetrack>
											<marker>
												<comment></comment>
												<name></name>
												<in>42</in>
												<out>-1</out>
											</marker>
										<link>
											<linkclipref>clipitem-355</linkclipref>
											<mediatype>video</mediatype>
											<trackindex>4</trackindex>
											<clipindex>3</clipindex>
										</link>
										<link>
											<linkclipref>clipitem-362</linkclipref>
											<mediatype>audio</mediatype>
											<trackindex>3</trackindex>
											<clipindex>3</clipindex>
											<groupindex>1</groupindex>
										</link>
										<link>
											<linkclipref>clipitem-365</linkclipref>
											<mediatype>audio</mediatype>
											<trackindex>4</trackindex>
											<clipindex>3</clipindex>
											<groupindex>1</groupindex>
										</link>
										<labels>
											<label2>Forest</label2>
										</labels>
									</clipitem>
									<enabled>TRUE</enabled>
									<locked>FALSE</locked>
									<outputchannelindex>1</outputchannelindex>
								</track>
								<track TL.SQTrackAudioKeyframeStyle="0" TL.SQTrackShy="0" TL.SQTrackExpandedHeight="25" TL.SQTrackExpanded="0" MZ.TrackTargeted="1" PannerCurrentValue="0.5" PannerIsInverted="true" PannerStartKeyframe="-91445760000000000,0.5,0,0,0,0,0,0" PannerName="Balance" currentExplodedTrackIndex="1" totalExplodedTrackCount="2" premiereTrackType="Stereo">
									<clipitem id="clipitem-363" premiereChannelType="stereo">
										<masterclipid>masterclip-19</masterclipid>
										<name>Intro</name>
										<enabled>TRUE</enabled>
										<duration>160</duration>
										<rate>
											<timebase>30</timebase>
											<ntsc>TRUE</ntsc>
										</rate>
										<start>0</start>
										<end>115</end>
										<in>0</in>
										<out>115</out>
										<pproTicksIn>0</pproTicksIn>
										<pproTicksOut>974701728000</pproTicksOut>
										<sequence id="sequence-4"/>
										<sourcetrack>
											<mediatype>audio</mediatype>
											<trackindex>1</trackindex>
										</sourcetrack>
											<marker>
												<comment></comment>
												<name></name>
												<in>82</in>
												<out>-1</out>
											</marker>
										<link>
											<linkclipref>clipitem-353</linkclipref>
											<mediatype>video</mediatype>
											<trackindex>4</trackindex>
											<clipindex>1</clipindex>
										</link>
										<link>
											<linkclipref>clipitem-360</linkclipref>
											<mediatype>audio</mediatype>
											<trackindex>3</trackindex>
											<clipindex>1</clipindex>
											<groupindex>1</groupindex>
										</link>
										<link>
											<linkclipref>clipitem-363</linkclipref>
											<mediatype>audio</mediatype>
											<trackindex>4</trackindex>
											<clipindex>1</clipindex>
											<groupindex>1</groupindex>
										</link>
										<labels>
											<label2>Forest</label2>
										</labels>
									</clipitem>
									<clipitem id="clipitem-364" premiereChannelType="stereo">
										<masterclipid>masterclip-21</masterclipid>
										<name>Transition 2</name>
										<enabled>TRUE</enabled>
										<duration>160</duration>
										<rate>
											<timebase>30</timebase>
											<ntsc>TRUE</ntsc>
										</rate>
										<start>1622</start>
										<end>1741</end>
										<in>0</in>
										<out>119</out>
										<pproTicksIn>0</pproTicksIn>
										<pproTicksOut>1008604396800</pproTicksOut>
										<sequence id="sequence-5"/>
										<sourcetrack>
											<mediatype>audio</mediatype>
											<trackindex>1</trackindex>
										</sourcetrack>
											<marker>
												<comment></comment>
												<name></name>
												<in>54</in>
												<out>-1</out>
											</marker>
											<marker>
												<comment></comment>
												<name></name>
												<in>20</in>
												<out>-1</out>
											</marker>
										<link>
											<linkclipref>clipitem-354</linkclipref>
											<mediatype>video</mediatype>
											<trackindex>4</trackindex>
											<clipindex>2</clipindex>
										</link>
										<link>
											<linkclipref>clipitem-361</linkclipref>
											<mediatype>audio</mediatype>
											<trackindex>3</trackindex>
											<clipindex>2</clipindex>
											<groupindex>1</groupindex>
										</link>
										<link>
											<linkclipref>clipitem-364</linkclipref>
											<mediatype>audio</mediatype>
											<trackindex>4</trackindex>
											<clipindex>2</clipindex>
											<groupindex>1</groupindex>
										</link>
										<labels>
											<label2>Forest</label2>
										</labels>
									</clipitem>
									<clipitem id="clipitem-365" premiereChannelType="stereo">
										<masterclipid>masterclip-23</masterclipid>
										<name>Outro</name>
										<enabled>TRUE</enabled>
										<duration>160</duration>
										<rate>
											<timebase>30</timebase>
											<ntsc>TRUE</ntsc>
										</rate>
										<start>4994</start>
										<end>5131</end>
										<in>0</in>
										<out>137</out>
										<pproTicksIn>0</pproTicksIn>
										<pproTicksOut>1161166406400</pproTicksOut>
										<sequence id="sequence-6"/>
										<sourcetrack>
											<mediatype>audio</mediatype>
											<trackindex>1</trackindex>
										</sourcetrack>
											<marker>
												<comment></comment>
												<name></name>
												<in>42</in>
												<out>-1</out>
											</marker>
										<link>
											<linkclipref>clipitem-355</linkclipref>
											<mediatype>video</mediatype>
											<trackindex>4</trackindex>
											<clipindex>3</clipindex>
										</link>
										<link>
											<linkclipref>clipitem-362</linkclipref>
											<mediatype>audio</mediatype>
											<trackindex>3</trackindex>
											<clipindex>3</clipindex>
											<groupindex>1</groupindex>
										</link>
										<link>
											<linkclipref>clipitem-365</linkclipref>
											<mediatype>audio</mediatype>
											<trackindex>4</trackindex>
											<clipindex>3</clipindex>
											<groupindex>1</groupindex>
										</link>
										<labels>
											<label2>Forest</label2>
										</labels>
									</clipitem>
									<enabled>TRUE</enabled>
									<locked>FALSE</locked>
									<outputchannelindex>2</outputchannelindex>
								</track>
								<track TL.SQTrackAudioKeyframeStyle="0" TL.SQTrackShy="0" TL.SQTrackExpandedHeight="25" TL.SQTrackExpanded="0" MZ.TrackTargeted="1" PannerCurrentValue="0.5" PannerIsInverted="true" PannerStartKeyframe="-91445760000000000,0.5,0,0,0,0,0,0" PannerName="Balance" currentExplodedTrackIndex="0" totalExplodedTrackCount="2" premiereTrackType="Stereo">
									<enabled>TRUE</enabled>
									<locked>FALSE</locked>
									<outputchannelindex>1</outputchannelindex>
								</track>
								<track TL.SQTrackAudioKeyframeStyle="0" TL.SQTrackShy="0" TL.SQTrackExpandedHeight="25" TL.SQTrackExpanded="0" MZ.TrackTargeted="1" PannerCurrentValue="0.5" PannerIsInverted="true" PannerStartKeyframe="-91445760000000000,0.5,0,0,0,0,0,0" PannerName="Balance" currentExplodedTrackIndex="1" totalExplodedTrackCount="2" premiereTrackType="Stereo">
									<enabled>TRUE</enabled>
									<locked>FALSE</locked>
									<outputchannelindex>2</outputchannelindex>
								</track>
							</audio>
						</media>
						<timecode>
							<rate>
								<timebase>30</timebase>
								<ntsc>TRUE</ntsc>
							</rate>
							<string>00;00;00;00</string>
							<frame>0</frame>
							<displayformat>DF</displayformat>
						</timecode>
						<labels>
							<label2>Forest</label2>
						</labels>
						<logginginfo>
							<description></description>
							<scene></scene>
							<shottake></shottake>
							<lognote></lognote>
							<good></good>
							<originalvideofilename></originalvideofilename>
							<originalaudiofilename></originalaudiofilename>
						</logginginfo>
					</sequence>
					<sequence id="sequence-28" TL.SQAudioVisibleBase="0" TL.SQVideoVisibleBase="0" TL.SQVisibleBaseTime="0" TL.SQAVDividerPosition="0.5" TL.SQHideShyTracks="0" TL.SQHeaderWidth="236" TL.SQDataTrackViewControlState="0" Monitor.ProgramZoomOut="44031091104000" Monitor.ProgramZoomIn="0" TL.SQTimePerPixel="0.20739831740599998" AM.TrackVScrollPosition="0" AM.TrackScrollPosition="0" MZ.EditLine="43217427052800" MZ.Sequence.PreviewFrameSizeHeight="1080" MZ.Sequence.PreviewFrameSizeWidth="1920" MZ.Sequence.AudioTimeDisplayFormat="200" MZ.Sequence.PreviewRenderingClassID="1061109567" MZ.Sequence.PreviewRenderingPresetCodec="1634755443" MZ.Sequence.PreviewRenderingPresetPath="EncoderPresets/SequencePreview/35d109db-457b-43c1-9452-9cb7be9f121c/QuickTime.epr" MZ.Sequence.PreviewUseMaxRenderQuality="false" MZ.Sequence.PreviewUseMaxBitDepth="false" MZ.Sequence.EditingModeGUID="35d109db-457b-43c1-9452-9cb7be9f121c" MZ.Sequence.VideoTimeDisplayFormat="102" MZ.WorkOutPoint="15239249625600" MZ.WorkInPoint="0" explodedTracks="true">
						<uuid>2ef4c832-cc62-43b0-8fba-7c2ff5a2c27b</uuid>
						<duration>5100</duration>
						<rate>
							<timebase>30</timebase>
							<ntsc>TRUE</ntsc>
						</rate>
						<name>ATM_EYECANDY_233</name>
						<media>
							<video>
								<format>
									<samplecharacteristics>
										<rate>
											<timebase>30</timebase>
											<ntsc>TRUE</ntsc>
										</rate>
										<codec>
											<name>Apple ProRes 422</name>
											<appspecificdata>
												<appname>Final Cut Pro</appname>
												<appmanufacturer>Apple Inc.</appmanufacturer>
												<appversion>7.0</appversion>
												<data>
													<qtcodec>
														<codecname>Apple ProRes 422</codecname>
														<codectypename>Apple ProRes 422</codectypename>
														<codectypecode>apcn</codectypecode>
														<codecvendorcode>appl</codecvendorcode>
														<spatialquality>1024</spatialquality>
														<temporalquality>0</temporalquality>
														<keyframerate>0</keyframerate>
														<datarate>0</datarate>
													</qtcodec>
												</data>
											</appspecificdata>
										</codec>
										<width>1920</width>
										<height>1080</height>
										<anamorphic>FALSE</anamorphic>
										<pixelaspectratio>square</pixelaspectratio>
										<fielddominance>none</fielddominance>
										<colordepth>24</colordepth>
									</samplecharacteristics>
								</format>
								<track TL.SQTrackShy="0" TL.SQTrackExpandedHeight="25" TL.SQTrackExpanded="0" MZ.TrackTargeted="1">
									<clipitem id="clipitem-366">
										<masterclipid>masterclip-148</masterclipid>
										<name>Three Flavored Cake_1.5</name>
										<enabled>TRUE</enabled>
										<duration>5844</duration>
										<rate>
											<timebase>30</timebase>
											<ntsc>TRUE</ntsc>
										</rate>
										<start>82</start>
										<end>2722</end>
										<in>0</in>
										<out>2640</out>
										<pproTicksIn>0</pproTicksIn>
										<pproTicksOut>22375761408000</pproTicksOut>
										<sequence id="sequence-29" TL.SQAudioVisibleBase="0" TL.SQVideoVisibleBase="0" TL.SQVisibleBaseTime="0" TL.SQAVDividerPosition="0.5" TL.SQHideShyTracks="0" TL.SQHeaderWidth="236" TL.SQDataTrackViewControlState="0" Monitor.ProgramZoomOut="22375761408000" Monitor.ProgramZoomIn="0" TL.SQTimePerPixel="0.11878888054868197" AM.TrackVScrollPosition="0" AM.TrackScrollPosition="0" MZ.EditLine="22375761408000" MZ.Sequence.PreviewFrameSizeHeight="1080" MZ.Sequence.PreviewFrameSizeWidth="1920" MZ.Sequence.AudioTimeDisplayFormat="200" MZ.Sequence.PreviewRenderingClassID="1061109567" MZ.Sequence.PreviewRenderingPresetCodec="1634755443" MZ.Sequence.PreviewRenderingPresetPath="EncoderPresets/SequencePreview/35d109db-457b-43c1-9452-9cb7be9f121c/QuickTime.epr" MZ.Sequence.PreviewUseMaxRenderQuality="false" MZ.Sequence.PreviewUseMaxBitDepth="false" MZ.Sequence.EditingModeGUID="35d109db-457b-43c1-9452-9cb7be9f121c" MZ.Sequence.VideoTimeDisplayFormat="102" MZ.WorkOutPoint="1262874412800" MZ.WorkInPoint="0">
											<duration>2640</duration>
											<rate>
												<timebase>30</timebase>
												<ntsc>TRUE</ntsc>
											</rate>
											<name>FND_Three Flavored Cake_1.5</name>
											<media>
												<video>
													<format>
														<samplecharacteristics>
															<rate>
																<timebase>30</timebase>
																<ntsc>TRUE</ntsc>
															</rate>
															<codec>
																<name>Apple ProRes 422</name>
																<appspecificdata>
																	<appname>Final Cut Pro</appname>
																	<appmanufacturer>Apple Inc.</appmanufacturer>
																	<appversion>7.0</appversion>
																	<data>
																		<qtcodec>
																			<codecname>Apple ProRes 422</codecname>
																			<codectypename>Apple ProRes 422</codectypename>
																			<codectypecode>apcn</codectypecode>
																			<codecvendorcode>appl</codecvendorcode>
																			<spatialquality>1024</spatialquality>
																			<temporalquality>0</temporalquality>
																			<keyframerate>0</keyframerate>
																			<datarate>0</datarate>
																		</qtcodec>
																	</data>
																</appspecificdata>
															</codec>
															<width>1920</width>
															<height>1080</height>
															<anamorphic>FALSE</anamorphic>
															<pixelaspectratio>square</pixelaspectratio>
															<fielddominance>none</fielddominance>
															<colordepth>24</colordepth>
														</samplecharacteristics>
													</format>
													<track TL.SQTrackShy="0" TL.SQTrackExpandedHeight="25" TL.SQTrackExpanded="0" MZ.TrackTargeted="1">
														<clipitem id="clipitem-367">
															<masterclipid>masterclip-149</masterclipid>
															<name>(alphafoodie)_B1EX31VAyMJ_IG.mp4</name>
															<enabled>TRUE</enabled>
															<duration>3743</duration>
															<rate>
																<timebase>30</timebase>
																<ntsc>TRUE</ntsc>
															</rate>
															<start>0</start>
															<end>399</end>
															<in>129</in>
															<out>528</out>
															<pproTicksIn>1093361068800</pproTicksIn>
															<pproTicksOut>4475152281600</pproTicksOut>
															<alphatype>none</alphatype>
															<pixelaspectratio>square</pixelaspectratio>
															<anamorphic>FALSE</anamorphic>
															<file id="file-128">
																<name>(alphafoodie)_B1EX31VAyMJ_IG.mp4</name>
																<pathurl>file://localhost/Volumes/ATM%201/EYE%20CANDY/8%3a14%3a23/3_Raw%20Files/(alphafoodie)_B1EX31VAyMJ_IG.mp4</pathurl>
																<rate>
																	<timebase>30</timebase>
																	<ntsc>FALSE</ntsc>
																</rate>
																<duration>3747</duration>
																<timecode>
																	<rate>
																		<timebase>30</timebase>
																		<ntsc>FALSE</ntsc>
																	</rate>
																	<string>00:00:00:00</string>
																	<frame>0</frame>
																	<displayformat>NDF</displayformat>
																</timecode>
																<media>
																	<video>
																		<samplecharacteristics>
																			<rate>
																				<timebase>30</timebase>
																				<ntsc>FALSE</ntsc>
																			</rate>
																			<width>720</width>
																			<height>1280</height>
																			<anamorphic>FALSE</anamorphic>
																			<pixelaspectratio>square</pixelaspectratio>
																			<fielddominance>none</fielddominance>
																		</samplecharacteristics>
																	</video>
																	<audio>
																		<samplecharacteristics>
																			<depth>16</depth>
																			<samplerate>44100</samplerate>
																		</samplecharacteristics>
																		<channelcount>2</channelcount>
																	</audio>
																</media>
															</file>
															<filter>
																<effect>
																	<name>Basic Motion</name>
																	<effectid>basic</effectid>
																	<effectcategory>motion</effectcategory>
																	<effecttype>motion</effecttype>
																	<mediatype>video</mediatype>
																	<pproBypass>false</pproBypass>
																	<parameter authoringApp="PremierePro">
																		<parameterid>scale</parameterid>
																		<name>Scale</name>
																		<valuemin>0</valuemin>
																		<valuemax>1000</valuemax>
																		<value>240</value>
																	</parameter>
																	<parameter authoringApp="PremierePro">
																		<parameterid>rotation</parameterid>
																		<name>Rotation</name>
																		<valuemin>-8640</valuemin>
																		<valuemax>8640</valuemax>
																		<value>90</value>
																	</parameter>
																	<parameter authoringApp="PremierePro">
																		<parameterid>center</parameterid>
																		<name>Center</name>
																		<value>
																			<horiz>0</horiz>
																			<vert>-0.10625</vert>
																		</value>
																	</parameter>
																	<parameter authoringApp="PremierePro">
																		<parameterid>centerOffset</parameterid>
																		<name>Anchor Point</name>
																		<value>
																			<horiz>0</horiz>
																			<vert>0</vert>
																		</value>
																	</parameter>
																	<parameter authoringApp="PremierePro">
																		<parameterid>antiflicker</parameterid>
																		<name>Anti-flicker Filter</name>
																		<valuemin>0.0</valuemin>
																		<valuemax>1.0</valuemax>
																		<value>0</value>
																	</parameter>
																</effect>
															</filter>
															<logginginfo>
																<description></description>
																<scene></scene>
																<shottake></shottake>
																<lognote></lognote>
																<good></good>
																<originalvideofilename></originalvideofilename>
																<originalaudiofilename></originalaudiofilename>
															</logginginfo>
															<colorinfo>
																<lut></lut>
																<lut1></lut1>
																<asc_sop></asc_sop>
																<asc_sat></asc_sat>
																<lut2></lut2>
															</colorinfo>
															<labels>
																<label2>Violet</label2>
															</labels>
														</clipitem>
														<clipitem id="clipitem-368">
															<masterclipid>masterclip-149</masterclipid>
															<name>(alphafoodie)_B1EX31VAyMJ_IG.mp4</name>
															<enabled>TRUE</enabled>
															<duration>3743</duration>
															<rate>
																<timebase>30</timebase>
																<ntsc>TRUE</ntsc>
															</rate>
															<start>399</start>
															<end>679</end>
															<in>562</in>
															<out>842</out>
															<pproTicksIn>4763324966400</pproTicksIn>
															<pproTicksOut>7136511782400</pproTicksOut>
															<alphatype>none</alphatype>
															<file id="file-128"/>
															<filter>
																<effect>
																	<name>Basic Motion</name>
																	<effectid>basic</effectid>
																	<effectcategory>motion</effectcategory>
																	<effecttype>motion</effecttype>
																	<mediatype>video</mediatype>
																	<pproBypass>false</pproBypass>
																	<parameter authoringApp="PremierePro">
																		<parameterid>scale</parameterid>
																		<name>Scale</name>
																		<valuemin>0</valuemin>
																		<valuemax>1000</valuemax>
																		<value>180</value>
																	</parameter>
																	<parameter authoringApp="PremierePro">
																		<parameterid>rotation</parameterid>
																		<name>Rotation</name>
																		<valuemin>-8640</valuemin>
																		<valuemax>8640</valuemax>
																		<value>90</value>
																	</parameter>
																	<parameter authoringApp="PremierePro">
																		<parameterid>center</parameterid>
																		<name>Center</name>
																		<value>
																			<horiz>0</horiz>
																			<vert>0</vert>
																		</value>
																	</parameter>
																	<parameter authoringApp="PremierePro">
																		<parameterid>centerOffset</parameterid>
																		<name>Anchor Point</name>
																		<value>
																			<horiz>0</horiz>
																			<vert>0</vert>
																		</value>
																	</parameter>
																	<parameter authoringApp="PremierePro">
																		<parameterid>antiflicker</parameterid>
																		<name>Anti-flicker Filter</name>
																		<valuemin>0.0</valuemin>
																		<valuemax>1.0</valuemax>
																		<value>0</value>
																	</parameter>
																</effect>
															</filter>
															<logginginfo>
																<description></description>
																<scene></scene>
																<shottake></shottake>
																<lognote></lognote>
																<good></good>
																<originalvideofilename></originalvideofilename>
																<originalaudiofilename></originalaudiofilename>
															</logginginfo>
															<colorinfo>
																<lut></lut>
																<lut1></lut1>
																<asc_sop></asc_sop>
																<asc_sat></asc_sat>
																<lut2></lut2>
															</colorinfo>
															<labels>
																<label2>Violet</label2>
															</labels>
														</clipitem>
														<clipitem id="clipitem-369">
															<masterclipid>masterclip-149</masterclipid>
															<name>(alphafoodie)_B1EX31VAyMJ_IG.mp4</name>
															<enabled>TRUE</enabled>
															<duration>3743</duration>
															<rate>
																<timebase>30</timebase>
																<ntsc>TRUE</ntsc>
															</rate>
															<start>679</start>
															<end>893</end>
															<in>972</in>
															<out>1186</out>
															<pproTicksIn>8238348518400</pproTicksIn>
															<pproTicksOut>10052141299200</pproTicksOut>
															<alphatype>none</alphatype>
															<file id="file-128"/>
															<filter>
																<effect>
																	<name>Basic Motion</name>
																	<effectid>basic</effectid>
																	<effectcategory>motion</effectcategory>
																	<effecttype>motion</effecttype>
																	<mediatype>video</mediatype>
																	<pproBypass>false</pproBypass>
																	<parameter authoringApp="PremierePro">
																		<parameterid>scale</parameterid>
																		<name>Scale</name>
																		<valuemin>0</valuemin>
																		<valuemax>1000</valuemax>
																		<value>240</value>
																	</parameter>
																	<parameter authoringApp="PremierePro">
																		<parameterid>rotation</parameterid>
																		<name>Rotation</name>
																		<valuemin>-8640</valuemin>
																		<valuemax>8640</valuemax>
																		<value>90</value>
																	</parameter>
																	<parameter authoringApp="PremierePro">
																		<parameterid>center</parameterid>
																		<name>Center</name>
																		<value>
																			<horiz>0</horiz>
																			<vert>0</vert>
																		</value>
																	</parameter>
																	<parameter authoringApp="PremierePro">
																		<parameterid>centerOffset</parameterid>
																		<name>Anchor Point</name>
																		<value>
																			<horiz>0</horiz>
																			<vert>0</vert>
																		</value>
																	</parameter>
																	<parameter authoringApp="PremierePro">
																		<parameterid>antiflicker</parameterid>
																		<name>Anti-flicker Filter</name>
																		<valuemin>0.0</valuemin>
																		<valuemax>1.0</valuemax>
																		<value>0</value>
																	</parameter>
																</effect>
															</filter>
															<logginginfo>
																<description></description>
																<scene></scene>
																<shottake></shottake>
																<lognote></lognote>
																<good></good>
																<originalvideofilename></originalvideofilename>
																<originalaudiofilename></originalaudiofilename>
															</logginginfo>
															<colorinfo>
																<lut></lut>
																<lut1></lut1>
																<asc_sop></asc_sop>
																<asc_sat></asc_sat>
																<lut2></lut2>
															</colorinfo>
															<labels>
																<label2>Violet</label2>
															</labels>
														</clipitem>
														<clipitem id="clipitem-370">
															<masterclipid>masterclip-149</masterclipid>
															<name>(alphafoodie)_B1EX31VAyMJ_IG.mp4</name>
															<enabled>TRUE</enabled>
															<duration>3743</duration>
															<rate>
																<timebase>30</timebase>
																<ntsc>TRUE</ntsc>
															</rate>
															<start>893</start>
															<end>1010</end>
															<in>1186</in>
															<out>1303</out>
															<pproTicksIn>10052141299200</pproTicksIn>
															<pproTicksOut>11043794361600</pproTicksOut>
															<alphatype>none</alphatype>
															<file id="file-128"/>
															<filter>
																<effect>
																	<name>Basic Motion</name>
																	<effectid>basic</effectid>
																	<effectcategory>motion</effectcategory>
																	<effecttype>motion</effecttype>
																	<mediatype>video</mediatype>
																	<pproBypass>false</pproBypass>
																	<parameter authoringApp="PremierePro">
																		<parameterid>scale</parameterid>
																		<name>Scale</name>
																		<valuemin>0</valuemin>
																		<valuemax>1000</valuemax>
																		<value>180</value>
																	</parameter>
																	<parameter authoringApp="PremierePro">
																		<parameterid>rotation</parameterid>
																		<name>Rotation</name>
																		<valuemin>-8640</valuemin>
																		<valuemax>8640</valuemax>
																		<value>90</value>
																	</parameter>
																	<parameter authoringApp="PremierePro">
																		<parameterid>center</parameterid>
																		<name>Center</name>
																		<value>
																			<horiz>0</horiz>
																			<vert>0</vert>
																		</value>
																	</parameter>
																	<parameter authoringApp="PremierePro">
																		<parameterid>centerOffset</parameterid>
																		<name>Anchor Point</name>
																		<value>
																			<horiz>0</horiz>
																			<vert>0</vert>
																		</value>
																	</parameter>
																	<parameter authoringApp="PremierePro">
																		<parameterid>antiflicker</parameterid>
																		<name>Anti-flicker Filter</name>
																		<valuemin>0.0</valuemin>
																		<valuemax>1.0</valuemax>
																		<value>0</value>
																	</parameter>
																</effect>
															</filter>
															<logginginfo>
																<description></description>
																<scene></scene>
																<shottake></shottake>
																<lognote></lognote>
																<good></good>
																<originalvideofilename></originalvideofilename>
																<originalaudiofilename></originalaudiofilename>
															</logginginfo>
															<colorinfo>
																<lut></lut>
																<lut1></lut1>
																<asc_sop></asc_sop>
																<asc_sat></asc_sat>
																<lut2></lut2>
															</colorinfo>
															<labels>
																<label2>Violet</label2>
															</labels>
														</clipitem>
														<clipitem id="clipitem-371">
															<masterclipid>masterclip-149</masterclipid>
															<name>(alphafoodie)_B1EX31VAyMJ_IG.mp4</name>
															<enabled>TRUE</enabled>
															<duration>3743</duration>
															<rate>
																<timebase>30</timebase>
																<ntsc>TRUE</ntsc>
															</rate>
															<start>1010</start>
															<end>1084</end>
															<in>1303</in>
															<out>1377</out>
															<pproTicksIn>11043794361600</pproTicksIn>
															<pproTicksOut>11670993734400</pproTicksOut>
															<alphatype>none</alphatype>
															<file id="file-128"/>
															<filter>
																<effect>
																	<name>Basic Motion</name>
																	<effectid>basic</effectid>
																	<effectcategory>motion</effectcategory>
																	<effecttype>motion</effecttype>
																	<mediatype>video</mediatype>
																	<pproBypass>false</pproBypass>
																	<parameter authoringApp="PremierePro">
																		<parameterid>scale</parameterid>
																		<name>Scale</name>
																		<valuemin>0</valuemin>
																		<valuemax>1000</valuemax>
																		<value>237</value>
																	</parameter>
																	<parameter authoringApp="PremierePro">
																		<parameterid>rotation</parameterid>
																		<name>Rotation</name>
																		<valuemin>-8640</valuemin>
																		<valuemax>8640</valuemax>
																		<value>90</value>
																	</parameter>
																	<parameter authoringApp="PremierePro">
																		<parameterid>center</parameterid>
																		<name>Center</name>
																		<value>
																			<horiz>0</horiz>
																			<vert>0</vert>
																		</value>
																	</parameter>
																	<parameter authoringApp="PremierePro">
																		<parameterid>centerOffset</parameterid>
																		<name>Anchor Point</name>
																		<value>
																			<horiz>0</horiz>
																			<vert>0</vert>
																		</value>
																	</parameter>
																	<parameter authoringApp="PremierePro">
																		<parameterid>antiflicker</parameterid>
																		<name>Anti-flicker Filter</name>
																		<valuemin>0.0</valuemin>
																		<valuemax>1.0</valuemax>
																		<value>0</value>
																	</parameter>
																</effect>
															</filter>
															<logginginfo>
																<description></description>
																<scene></scene>
																<shottake></shottake>
																<lognote></lognote>
																<good></good>
																<originalvideofilename></originalvideofilename>
																<originalaudiofilename></originalaudiofilename>
															</logginginfo>
															<colorinfo>
																<lut></lut>
																<lut1></lut1>
																<asc_sop></asc_sop>
																<asc_sat></asc_sat>
																<lut2></lut2>
															</colorinfo>
															<labels>
																<label2>Violet</label2>
															</labels>
														</clipitem>
														<clipitem id="clipitem-372">
															<masterclipid>masterclip-149</masterclipid>
															<name>(alphafoodie)_B1EX31VAyMJ_IG.mp4</name>
															<enabled>TRUE</enabled>
															<duration>3743</duration>
															<rate>
																<timebase>30</timebase>
																<ntsc>TRUE</ntsc>
															</rate>
															<start>1084</start>
															<end>1125</end>
															<in>1377</in>
															<out>1418</out>
															<pproTicksIn>11670993734400</pproTicksIn>
															<pproTicksOut>12018496089600</pproTicksOut>
															<alphatype>none</alphatype>
															<file id="file-128"/>
															<filter>
																<effect>
																	<name>Basic Motion</name>
																	<effectid>basic</effectid>
																	<effectcategory>motion</effectcategory>
																	<effecttype>motion</effecttype>
																	<mediatype>video</mediatype>
																	<pproBypass>false</pproBypass>
																	<parameter authoringApp="PremierePro">
																		<parameterid>scale</parameterid>
																		<name>Scale</name>
																		<valuemin>0</valuemin>
																		<valuemax>1000</valuemax>
																		<value>180</value>
																	</parameter>
																	<parameter authoringApp="PremierePro">
																		<parameterid>rotation</parameterid>
																		<name>Rotation</name>
																		<valuemin>-8640</valuemin>
																		<valuemax>8640</valuemax>
																		<value>90</value>
																	</parameter>
																	<parameter authoringApp="PremierePro">
																		<parameterid>center</parameterid>
																		<name>Center</name>
																		<value>
																			<horiz>0</horiz>
																			<vert>0</vert>
																		</value>
																	</parameter>
																	<parameter authoringApp="PremierePro">
																		<parameterid>centerOffset</parameterid>
																		<name>Anchor Point</name>
																		<value>
																			<horiz>0</horiz>
																			<vert>0</vert>
																		</value>
																	</parameter>
																	<parameter authoringApp="PremierePro">
																		<parameterid>antiflicker</parameterid>
																		<name>Anti-flicker Filter</name>
																		<valuemin>0.0</valuemin>
																		<valuemax>1.0</valuemax>
																		<value>0</value>
																	</parameter>
																</effect>
															</filter>
															<logginginfo>
																<description></description>
																<scene></scene>
																<shottake></shottake>
																<lognote></lognote>
																<good></good>
																<originalvideofilename></originalvideofilename>
																<originalaudiofilename></originalaudiofilename>
															</logginginfo>
															<colorinfo>
																<lut></lut>
																<lut1></lut1>
																<asc_sop></asc_sop>
																<asc_sat></asc_sat>
																<lut2></lut2>
															</colorinfo>
															<labels>
																<label2>Violet</label2>
															</labels>
														</clipitem>
														<clipitem id="clipitem-373">
															<masterclipid>masterclip-149</masterclipid>
															<name>(alphafoodie)_B1EX31VAyMJ_IG.mp4</name>
															<enabled>TRUE</enabled>
															<duration>3743</duration>
															<rate>
																<timebase>30</timebase>
																<ntsc>TRUE</ntsc>
															</rate>
															<start>1125</start>
															<end>1198</end>
															<in>1667</in>
															<out>1740</out>
															<pproTicksIn>14128937222400</pproTicksIn>
															<pproTicksOut>14747660928000</pproTicksOut>
															<alphatype>none</alphatype>
															<file id="file-128"/>
															<filter>
																<effect>
																	<name>Basic Motion</name>
																	<effectid>basic</effectid>
																	<effectcategory>motion</effectcategory>
																	<effecttype>motion</effecttype>
																	<mediatype>video</mediatype>
																	<pproBypass>false</pproBypass>
																	<parameter authoringApp="PremierePro">
																		<parameterid>scale</parameterid>
																		<name>Scale</name>
																		<valuemin>0</valuemin>
																		<valuemax>1000</valuemax>
																		<value>180</value>
																	</parameter>
																	<parameter authoringApp="PremierePro">
																		<parameterid>rotation</parameterid>
																		<name>Rotation</name>
																		<valuemin>-8640</valuemin>
																		<valuemax>8640</valuemax>
																		<value>90</value>
																	</parameter>
																	<parameter authoringApp="PremierePro">
																		<parameterid>center</parameterid>
																		<name>Center</name>
																		<value>
																			<horiz>0</horiz>
																			<vert>0</vert>
																		</value>
																	</parameter>
																	<parameter authoringApp="PremierePro">
																		<parameterid>centerOffset</parameterid>
																		<name>Anchor Point</name>
																		<value>
																			<horiz>0</horiz>
																			<vert>0</vert>
																		</value>
																	</parameter>
																	<parameter authoringApp="PremierePro">
																		<parameterid>antiflicker</parameterid>
																		<name>Anti-flicker Filter</name>
																		<valuemin>0.0</valuemin>
																		<valuemax>1.0</valuemax>
																		<value>0</value>
																	</parameter>
																</effect>
															</filter>
															<logginginfo>
																<description></description>
																<scene></scene>
																<shottake></shottake>
																<lognote></lognote>
																<good></good>
																<originalvideofilename></originalvideofilename>
																<originalaudiofilename></originalaudiofilename>
															</logginginfo>
															<colorinfo>
																<lut></lut>
																<lut1></lut1>
																<asc_sop></asc_sop>
																<asc_sat></asc_sat>
																<lut2></lut2>
															</colorinfo>
															<labels>
																<label2>Violet</label2>
															</labels>
														</clipitem>
														<clipitem id="clipitem-374">
															<masterclipid>masterclip-149</masterclipid>
															<name>(alphafoodie)_B1EX31VAyMJ_IG.mp4</name>
															<enabled>TRUE</enabled>
															<duration>3743</duration>
															<rate>
																<timebase>30</timebase>
																<ntsc>TRUE</ntsc>
															</rate>
															<start>1198</start>
															<end>1455</end>
															<in>1741</in>
															<out>1998</out>
															<pproTicksIn>14756136595200</pproTicksIn>
															<pproTicksOut>16934383065600</pproTicksOut>
															<alphatype>none</alphatype>
															<file id="file-128"/>
															<filter>
																<effect>
																	<name>Basic Motion</name>
																	<effectid>basic</effectid>
																	<effectcategory>motion</effectcategory>
																	<effecttype>motion</effecttype>
																	<mediatype>video</mediatype>
																	<pproBypass>false</pproBypass>
																	<parameter authoringApp="PremierePro">
																		<parameterid>scale</parameterid>
																		<name>Scale</name>
																		<valuemin>0</valuemin>
																		<valuemax>1000</valuemax>
																		<value>235</value>
																	</parameter>
																	<parameter authoringApp="PremierePro">
																		<parameterid>rotation</parameterid>
																		<name>Rotation</name>
																		<valuemin>-8640</valuemin>
																		<valuemax>8640</valuemax>
																		<value>90</value>
																	</parameter>
																	<parameter authoringApp="PremierePro">
																		<parameterid>center</parameterid>
																		<name>Center</name>
																		<value>
																			<horiz>0</horiz>
																			<vert>0</vert>
																		</value>
																	</parameter>
																	<parameter authoringApp="PremierePro">
																		<parameterid>centerOffset</parameterid>
																		<name>Anchor Point</name>
																		<value>
																			<horiz>0</horiz>
																			<vert>0</vert>
																		</value>
																	</parameter>
																	<parameter authoringApp="PremierePro">
																		<parameterid>antiflicker</parameterid>
																		<name>Anti-flicker Filter</name>
																		<valuemin>0.0</valuemin>
																		<valuemax>1.0</valuemax>
																		<value>0</value>
																	</parameter>
																</effect>
															</filter>
															<logginginfo>
																<description></description>
																<scene></scene>
																<shottake></shottake>
																<lognote></lognote>
																<good></good>
																<originalvideofilename></originalvideofilename>
																<originalaudiofilename></originalaudiofilename>
															</logginginfo>
															<colorinfo>
																<lut></lut>
																<lut1></lut1>
																<asc_sop></asc_sop>
																<asc_sat></asc_sat>
																<lut2></lut2>
															</colorinfo>
															<labels>
																<label2>Violet</label2>
															</labels>
														</clipitem>
														<clipitem id="clipitem-375">
															<masterclipid>masterclip-149</masterclipid>
															<name>(alphafoodie)_B1EX31VAyMJ_IG.mp4</name>
															<enabled>TRUE</enabled>
															<duration>3743</duration>
															<rate>
																<timebase>30</timebase>
																<ntsc>TRUE</ntsc>
															</rate>
															<start>1455</start>
															<end>1523</end>
															<in>1998</in>
															<out>2066</out>
															<pproTicksIn>16934383065600</pproTicksIn>
															<pproTicksOut>17510728435200</pproTicksOut>
															<alphatype>none</alphatype>
															<file id="file-128"/>
															<filter>
																<effect>
																	<name>Basic Motion</name>
																	<effectid>basic</effectid>
																	<effectcategory>motion</effectcategory>
																	<effecttype>motion</effecttype>
																	<mediatype>video</mediatype>
																	<pproBypass>false</pproBypass>
																	<parameter authoringApp="PremierePro">
																		<parameterid>scale</parameterid>
																		<name>Scale</name>
																		<valuemin>0</valuemin>
																		<valuemax>1000</valuemax>
																		<value>180</value>
																	</parameter>
																	<parameter authoringApp="PremierePro">
																		<parameterid>rotation</parameterid>
																		<name>Rotation</name>
																		<valuemin>-8640</valuemin>
																		<valuemax>8640</valuemax>
																		<value>90</value>
																	</parameter>
																	<parameter authoringApp="PremierePro">
																		<parameterid>center</parameterid>
																		<name>Center</name>
																		<value>
																			<horiz>0</horiz>
																			<vert>0</vert>
																		</value>
																	</parameter>
																	<parameter authoringApp="PremierePro">
																		<parameterid>centerOffset</parameterid>
																		<name>Anchor Point</name>
																		<value>
																			<horiz>0</horiz>
																			<vert>0</vert>
																		</value>
																	</parameter>
																	<parameter authoringApp="PremierePro">
																		<parameterid>antiflicker</parameterid>
																		<name>Anti-flicker Filter</name>
																		<valuemin>0.0</valuemin>
																		<valuemax>1.0</valuemax>
																		<value>0</value>
																	</parameter>
																</effect>
															</filter>
															<logginginfo>
																<description></description>
																<scene></scene>
																<shottake></shottake>
																<lognote></lognote>
																<good></good>
																<originalvideofilename></originalvideofilename>
																<originalaudiofilename></originalaudiofilename>
															</logginginfo>
															<colorinfo>
																<lut></lut>
																<lut1></lut1>
																<asc_sop></asc_sop>
																<asc_sat></asc_sat>
																<lut2></lut2>
															</colorinfo>
															<labels>
																<label2>Violet</label2>
															</labels>
														</clipitem>
														<clipitem id="clipitem-376">
															<masterclipid>masterclip-149</masterclipid>
															<name>(alphafoodie)_B1EX31VAyMJ_IG.mp4</name>
															<enabled>TRUE</enabled>
															<duration>3743</duration>
															<rate>
																<timebase>30</timebase>
																<ntsc>TRUE</ntsc>
															</rate>
															<start>1523</start>
															<end>1986</end>
															<in>2227</in>
															<out>2690</out>
															<pproTicksIn>18875310854400</pproTicksIn>
															<pproTicksOut>22799544768000</pproTicksOut>
															<alphatype>none</alphatype>
															<file id="file-128"/>
															<filter>
																<effect>
																	<name>Basic Motion</name>
																	<effectid>basic</effectid>
																	<effectcategory>motion</effectcategory>
																	<effecttype>motion</effecttype>
																	<mediatype>video</mediatype>
																	<pproBypass>false</pproBypass>
																	<parameter authoringApp="PremierePro">
																		<parameterid>scale</parameterid>
																		<name>Scale</name>
																		<valuemin>0</valuemin>
																		<valuemax>1000</valuemax>
																		<value>180</value>
																	</parameter>
																	<parameter authoringApp="PremierePro">
																		<parameterid>rotation</parameterid>
																		<name>Rotation</name>
																		<valuemin>-8640</valuemin>
																		<valuemax>8640</valuemax>
																		<value>90</value>
																	</parameter>
																	<parameter authoringApp="PremierePro">
																		<parameterid>center</parameterid>
																		<name>Center</name>
																		<value>
																			<horiz>0</horiz>
																			<vert>0</vert>
																		</value>
																	</parameter>
																	<parameter authoringApp="PremierePro">
																		<parameterid>centerOffset</parameterid>
																		<name>Anchor Point</name>
																		<value>
																			<horiz>0</horiz>
																			<vert>0</vert>
																		</value>
																	</parameter>
																	<parameter authoringApp="PremierePro">
																		<parameterid>antiflicker</parameterid>
																		<name>Anti-flicker Filter</name>
																		<valuemin>0.0</valuemin>
																		<valuemax>1.0</valuemax>
																		<value>0</value>
																	</parameter>
																</effect>
															</filter>
															<logginginfo>
																<description></description>
																<scene></scene>
																<shottake></shottake>
																<lognote></lognote>
																<good></good>
																<originalvideofilename></originalvideofilename>
																<originalaudiofilename></originalaudiofilename>
															</logginginfo>
															<colorinfo>
																<lut></lut>
																<lut1></lut1>
																<asc_sop></asc_sop>
																<asc_sat></asc_sat>
																<lut2></lut2>
															</colorinfo>
															<labels>
																<label2>Violet</label2>
															</labels>
														</clipitem>
														<clipitem id="clipitem-377">
															<masterclipid>masterclip-149</masterclipid>
															<name>(alphafoodie)_B1EX31VAyMJ_IG.mp4</name>
															<enabled>TRUE</enabled>
															<duration>3743</duration>
															<rate>
																<timebase>30</timebase>
																<ntsc>TRUE</ntsc>
															</rate>
															<start>1986</start>
															<end>2280</end>
															<in>2766</in>
															<out>3060</out>
															<pproTicksIn>23443695475200</pproTicksIn>
															<pproTicksOut>25935541632000</pproTicksOut>
															<alphatype>none</alphatype>
															<file id="file-128"/>
															<filter>
																<effect>
																	<name>Basic Motion</name>
																	<effectid>basic</effectid>
																	<effectcategory>motion</effectcategory>
																	<effecttype>motion</effecttype>
																	<mediatype>video</mediatype>
																	<pproBypass>false</pproBypass>
																	<parameter authoringApp="PremierePro">
																		<parameterid>scale</parameterid>
																		<name>Scale</name>
																		<valuemin>0</valuemin>
																		<valuemax>1000</valuemax>
																		<value>180</value>
																	</parameter>
																	<parameter authoringApp="PremierePro">
																		<parameterid>rotation</parameterid>
																		<name>Rotation</name>
																		<valuemin>-8640</valuemin>
																		<valuemax>8640</valuemax>
																		<value>90</value>
																	</parameter>
																	<parameter authoringApp="PremierePro">
																		<parameterid>center</parameterid>
																		<name>Center</name>
																		<value>
																			<horiz>0</horiz>
																			<vert>0</vert>
																		</value>
																	</parameter>
																	<parameter authoringApp="PremierePro">
																		<parameterid>centerOffset</parameterid>
																		<name>Anchor Point</name>
																		<value>
																			<horiz>0</horiz>
																			<vert>0</vert>
																		</value>
																	</parameter>
																	<parameter authoringApp="PremierePro">
																		<parameterid>antiflicker</parameterid>
																		<name>Anti-flicker Filter</name>
																		<valuemin>0.0</valuemin>
																		<valuemax>1.0</valuemax>
																		<value>0</value>
																	</parameter>
																</effect>
															</filter>
															<logginginfo>
																<description></description>
																<scene></scene>
																<shottake></shottake>
																<lognote></lognote>
																<good></good>
																<originalvideofilename></originalvideofilename>
																<originalaudiofilename></originalaudiofilename>
															</logginginfo>
															<colorinfo>
																<lut></lut>
																<lut1></lut1>
																<asc_sop></asc_sop>
																<asc_sat></asc_sat>
																<lut2></lut2>
															</colorinfo>
															<labels>
																<label2>Violet</label2>
															</labels>
														</clipitem>
														<clipitem id="clipitem-378">
															<masterclipid>masterclip-149</masterclipid>
															<name>(alphafoodie)_B1EX31VAyMJ_IG.mp4</name>
															<enabled>TRUE</enabled>
															<duration>3743</duration>
															<rate>
																<timebase>30</timebase>
																<ntsc>TRUE</ntsc>
															</rate>
															<start>2280</start>
															<end>2514</end>
															<in>3175</in>
															<out>3409</out>
															<pproTicksIn>26910243360000</pproTicksIn>
															<pproTicksOut>28893549484800</pproTicksOut>
															<alphatype>none</alphatype>
															<file id="file-128"/>
															<filter>
																<effect>
																	<name>Basic Motion</name>
																	<effectid>basic</effectid>
																	<effectcategory>motion</effectcategory>
																	<effecttype>motion</effecttype>
																	<mediatype>video</mediatype>
																	<pproBypass>false</pproBypass>
																	<parameter authoringApp="PremierePro">
																		<parameterid>scale</parameterid>
																		<name>Scale</name>
																		<valuemin>0</valuemin>
																		<valuemax>1000</valuemax>
																		<value>180</value>
																	</parameter>
																	<parameter authoringApp="PremierePro">
																		<parameterid>rotation</parameterid>
																		<name>Rotation</name>
																		<valuemin>-8640</valuemin>
																		<valuemax>8640</valuemax>
																		<value>90</value>
																	</parameter>
																	<parameter authoringApp="PremierePro">
																		<parameterid>center</parameterid>
																		<name>Center</name>
																		<value>
																			<horiz>0</horiz>
																			<vert>0</vert>
																		</value>
																	</parameter>
																	<parameter authoringApp="PremierePro">
																		<parameterid>centerOffset</parameterid>
																		<name>Anchor Point</name>
																		<value>
																			<horiz>0</horiz>
																			<vert>0</vert>
																		</value>
																	</parameter>
																	<parameter authoringApp="PremierePro">
																		<parameterid>antiflicker</parameterid>
																		<name>Anti-flicker Filter</name>
																		<valuemin>0.0</valuemin>
																		<valuemax>1.0</valuemax>
																		<value>0</value>
																	</parameter>
																</effect>
															</filter>
															<logginginfo>
																<description></description>
																<scene></scene>
																<shottake></shottake>
																<lognote></lognote>
																<good></good>
																<originalvideofilename></originalvideofilename>
																<originalaudiofilename></originalaudiofilename>
															</logginginfo>
															<colorinfo>
																<lut></lut>
																<lut1></lut1>
																<asc_sop></asc_sop>
																<asc_sat></asc_sat>
																<lut2></lut2>
															</colorinfo>
															<labels>
																<label2>Violet</label2>
															</labels>
														</clipitem>
														<clipitem id="clipitem-379">
															<masterclipid>masterclip-149</masterclipid>
															<name>(alphafoodie)_B1EX31VAyMJ_IG.mp4</name>
															<enabled>TRUE</enabled>
															<duration>3743</duration>
															<rate>
																<timebase>30</timebase>
																<ntsc>TRUE</ntsc>
															</rate>
															<start>2514</start>
															<end>2640</end>
															<in>3506</in>
															<out>3632</out>
															<pproTicksIn>29715689203200</pproTicksIn>
															<pproTicksOut>30783623270400</pproTicksOut>
															<alphatype>none</alphatype>
															<file id="file-128"/>
															<filter>
																<effect>
																	<name>Basic Motion</name>
																	<effectid>basic</effectid>
																	<effectcategory>motion</effectcategory>
																	<effecttype>motion</effecttype>
																	<mediatype>video</mediatype>
																	<pproBypass>false</pproBypass>
																	<parameter authoringApp="PremierePro">
																		<parameterid>scale</parameterid>
																		<name>Scale</name>
																		<valuemin>0</valuemin>
																		<valuemax>1000</valuemax>
																		<value>180</value>
																	</parameter>
																	<parameter authoringApp="PremierePro">
																		<parameterid>rotation</parameterid>
																		<name>Rotation</name>
																		<valuemin>-8640</valuemin>
																		<valuemax>8640</valuemax>
																		<value>90</value>
																	</parameter>
																	<parameter authoringApp="PremierePro">
																		<parameterid>center</parameterid>
																		<name>Center</name>
																		<value>
																			<horiz>0</horiz>
																			<vert>0</vert>
																		</value>
																	</parameter>
																	<parameter authoringApp="PremierePro">
																		<parameterid>centerOffset</parameterid>
																		<name>Anchor Point</name>
																		<value>
																			<horiz>0</horiz>
																			<vert>0</vert>
																		</value>
																	</parameter>
																	<parameter authoringApp="PremierePro">
																		<parameterid>antiflicker</parameterid>
																		<name>Anti-flicker Filter</name>
																		<valuemin>0.0</valuemin>
																		<valuemax>1.0</valuemax>
																		<value>0</value>
																	</parameter>
																</effect>
															</filter>
															<logginginfo>
																<description></description>
																<scene></scene>
																<shottake></shottake>
																<lognote></lognote>
																<good></good>
																<originalvideofilename></originalvideofilename>
																<originalaudiofilename></originalaudiofilename>
															</logginginfo>
															<colorinfo>
																<lut></lut>
																<lut1></lut1>
																<asc_sop></asc_sop>
																<asc_sat></asc_sat>
																<lut2></lut2>
															</colorinfo>
															<labels>
																<label2>Violet</label2>
															</labels>
														</clipitem>
														<enabled>TRUE</enabled>
														<locked>FALSE</locked>
													</track>
													<track TL.SQTrackShy="0" TL.SQTrackExpandedHeight="25" TL.SQTrackExpanded="0" MZ.TrackTargeted="0">
														<clipitem id="clipitem-380">
															<masterclipid>masterclip-150</masterclipid>
															<name>alphafoodie</name>
															<enabled>TRUE</enabled>
															<duration>5844</duration>
															<rate>
																<timebase>30</timebase>
																<ntsc>TRUE</ntsc>
															</rate>
															<start>0</start>
															<end>2640</end>
															<in>0</in>
															<out>2640</out>
															<pproTicksIn>0</pproTicksIn>
															<pproTicksOut>22375761408000</pproTicksOut>
															<alphatype>straight</alphatype>
															<pixelaspectratio>square</pixelaspectratio>
															<anamorphic>FALSE</anamorphic>
															<file id="file-129">
																<name>1080/AE Attribution.aep</name>
																<pathurl>file://localhost/Volumes/ATM%201/EYE%20CANDY/Project%20Template/5_Assets/AE%20Attribution.aep</pathurl>
																<rate>
																	<timebase>30</timebase>
																	<ntsc>TRUE</ntsc>
																</rate>
																<duration>5844</duration>
																<timecode>
																	<rate>
																		<timebase>30</timebase>
																		<ntsc>TRUE</ntsc>
																	</rate>
																	<string>00;00;00;00</string>
																	<frame>0</frame>
																	<displayformat>DF</displayformat>
																</timecode>
																<media>
																	<video>
																		<samplecharacteristics>
																			<rate>
																				<timebase>30</timebase>
																				<ntsc>TRUE</ntsc>
																			</rate>
																			<width>1920</width>
																			<height>1080</height>
																			<anamorphic>FALSE</anamorphic>
																			<pixelaspectratio>square</pixelaspectratio>
																			<fielddominance>lower</fielddominance>
																		</samplecharacteristics>
																	</video>
																</media>
															</file>
															<logginginfo>
																<description></description>
																<scene></scene>
																<shottake></shottake>
																<lognote></lognote>
																<good></good>
																<originalvideofilename></originalvideofilename>
																<originalaudiofilename></originalaudiofilename>
															</logginginfo>
															<colorinfo>
																<lut></lut>
																<lut1></lut1>
																<asc_sop></asc_sop>
																<asc_sat></asc_sat>
																<lut2></lut2>
															</colorinfo>
															<labels>
																<label2>Rose</label2>
															</labels>
														</clipitem>
														<enabled>TRUE</enabled>
														<locked>FALSE</locked>
													</track>
													<track TL.SQTrackShy="0" TL.SQTrackExpandedHeight="25" TL.SQTrackExpanded="0" MZ.TrackTargeted="0">
														<enabled>TRUE</enabled>
														<locked>FALSE</locked>
													</track>
													<track TL.SQTrackShy="0" TL.SQTrackExpandedHeight="25" TL.SQTrackExpanded="0" MZ.TrackTargeted="0">
														<enabled>TRUE</enabled>
														<locked>FALSE</locked>
													</track>
													<track TL.SQTrackShy="0" TL.SQTrackExpandedHeight="25" TL.SQTrackExpanded="0" MZ.TrackTargeted="0">
														<enabled>TRUE</enabled>
														<locked>FALSE</locked>
													</track>
													<track TL.SQTrackShy="0" TL.SQTrackExpandedHeight="25" TL.SQTrackExpanded="0" MZ.TrackTargeted="0">
														<enabled>TRUE</enabled>
														<locked>FALSE</locked>
													</track>
													<track TL.SQTrackShy="0" TL.SQTrackExpandedHeight="25" TL.SQTrackExpanded="0" MZ.TrackTargeted="0">
														<enabled>TRUE</enabled>
														<locked>FALSE</locked>
													</track>
													<track TL.SQTrackShy="0" TL.SQTrackExpandedHeight="25" TL.SQTrackExpanded="0" MZ.TrackTargeted="0">
														<enabled>TRUE</enabled>
														<locked>FALSE</locked>
													</track>
													<track TL.SQTrackShy="0" TL.SQTrackExpandedHeight="25" TL.SQTrackExpanded="0" MZ.TrackTargeted="0">
														<enabled>TRUE</enabled>
														<locked>FALSE</locked>
													</track>
													<track TL.SQTrackShy="0" TL.SQTrackExpandedHeight="25" TL.SQTrackExpanded="0" MZ.TrackTargeted="0">
														<enabled>TRUE</enabled>
														<locked>FALSE</locked>
													</track>
												</video>
												<audio>
													<numOutputChannels>2</numOutputChannels>
													<format>
														<samplecharacteristics>
															<depth>16</depth>
															<samplerate>48000</samplerate>
														</samplecharacteristics>
													</format>
													<outputs>
														<group>
															<index>1</index>
															<numchannels>1</numchannels>
															<downmix>0</downmix>
															<channel>
																<index>1</index>
															</channel>
														</group>
														<group>
															<index>2</index>
															<numchannels>1</numchannels>
															<downmix>0</downmix>
															<channel>
																<index>2</index>
															</channel>
														</group>
													</outputs>
													<track TL.SQTrackAudioKeyframeStyle="0" TL.SQTrackShy="0" TL.SQTrackExpandedHeight="25" TL.SQTrackExpanded="0" MZ.TrackTargeted="1" PannerCurrentValue="0.5" PannerIsInverted="true" PannerStartKeyframe="-91445760000000000,0.5,0,0,0,0,0,0" PannerName="Balance" currentExplodedTrackIndex="0" totalExplodedTrackCount="2" premiereTrackType="Stereo">
														<clipitem id="clipitem-381" premiereChannelType="stereo">
															<masterclipid>masterclip-151</masterclipid>
															<name>ES_Delicate - Ben Elson.mp3</name>
															<enabled>TRUE</enabled>
															<duration>5648</duration>
															<rate>
																<timebase>30</timebase>
																<ntsc>TRUE</ntsc>
															</rate>
															<start>0</start>
															<end>2640</end>
															<in>0</in>
															<out>2640</out>
															<pproTicksIn>0</pproTicksIn>
															<pproTicksOut>22375761408000</pproTicksOut>
															<file id="file-130">
																<name>ES_Delicate - Ben Elson.mp3</name>
																<pathurl>file://localhost/Volumes/ATM%201/EYE%20CANDY/8%3a14%3a23/5_Assets/Music/ES_Delicate%20-%20Ben%20Elson.mp3</pathurl>
																<rate>
																	<timebase>30</timebase>
																	<ntsc>TRUE</ntsc>
																</rate>
																<duration>5648</duration>
																<timecode>
																	<rate>
																		<timebase>30</timebase>
																		<ntsc>TRUE</ntsc>
																	</rate>
																	<string>00;00;00;00</string>
																	<frame>0</frame>
																	<displayformat>DF</displayformat>
																</timecode>
																<media>
																	<audio>
																		<samplecharacteristics>
																			<depth>16</depth>
																			<samplerate>48000</samplerate>
																		</samplecharacteristics>
																		<channelcount>2</channelcount>
																	</audio>
																</media>
															</file>
															<sourcetrack>
																<mediatype>audio</mediatype>
																<trackindex>1</trackindex>
															</sourcetrack>
															<link>
																<linkclipref>clipitem-381</linkclipref>
																<mediatype>audio</mediatype>
																<trackindex>1</trackindex>
																<clipindex>1</clipindex>
																<groupindex>1</groupindex>
															</link>
															<link>
																<linkclipref>clipitem-382</linkclipref>
																<mediatype>audio</mediatype>
																<trackindex>2</trackindex>
																<clipindex>1</clipindex>
																<groupindex>1</groupindex>
															</link>
															<logginginfo>
																<description></description>
																<scene></scene>
																<shottake></shottake>
																<lognote></lognote>
																<good></good>
																<originalvideofilename></originalvideofilename>
																<originalaudiofilename></originalaudiofilename>
															</logginginfo>
															<colorinfo>
																<lut></lut>
																<lut1></lut1>
																<asc_sop></asc_sop>
																<asc_sat></asc_sat>
																<lut2></lut2>
															</colorinfo>
															<labels>
																<label2>Caribbean</label2>
															</labels>
														</clipitem>
														<enabled>TRUE</enabled>
														<locked>FALSE</locked>
														<filter>
															<effect>
																<name>Audio Levels</name>
																<effectid>audiolevels</effectid>
																<effectcategory>audiolevels</effectcategory>
																<effecttype>audiolevels</effecttype>
																<mediatype>audio</mediatype>
																<parameter authoringApp="PremierePro">
																	<parameterid>level</parameterid>
																	<name>Level</name>
																	<valuemin>0</valuemin>
																	<valuemax>3.98109</valuemax>
																	<value>0.706272</value>
																</parameter>
															</effect>
														</filter>
														<outputchannelindex>1</outputchannelindex>
													</track>
													<track TL.SQTrackAudioKeyframeStyle="0" TL.SQTrackShy="0" TL.SQTrackExpandedHeight="25" TL.SQTrackExpanded="0" MZ.TrackTargeted="1" PannerCurrentValue="0.5" PannerIsInverted="true" PannerStartKeyframe="-91445760000000000,0.5,0,0,0,0,0,0" PannerName="Balance" currentExplodedTrackIndex="1" totalExplodedTrackCount="2" premiereTrackType="Stereo">
														<clipitem id="clipitem-382" premiereChannelType="stereo">
															<masterclipid>masterclip-151</masterclipid>
															<name>ES_Delicate - Ben Elson.mp3</name>
															<enabled>TRUE</enabled>
															<duration>5648</duration>
															<rate>
																<timebase>30</timebase>
																<ntsc>TRUE</ntsc>
															</rate>
															<start>0</start>
															<end>2640</end>
															<in>0</in>
															<out>2640</out>
															<pproTicksIn>0</pproTicksIn>
															<pproTicksOut>22375761408000</pproTicksOut>
															<file id="file-130"/>
															<sourcetrack>
																<mediatype>audio</mediatype>
																<trackindex>2</trackindex>
															</sourcetrack>
															<link>
																<linkclipref>clipitem-381</linkclipref>
																<mediatype>audio</mediatype>
																<trackindex>1</trackindex>
																<clipindex>1</clipindex>
																<groupindex>1</groupindex>
															</link>
															<link>
																<linkclipref>clipitem-382</linkclipref>
																<mediatype>audio</mediatype>
																<trackindex>2</trackindex>
																<clipindex>1</clipindex>
																<groupindex>1</groupindex>
															</link>
															<logginginfo>
																<description></description>
																<scene></scene>
																<shottake></shottake>
																<lognote></lognote>
																<good></good>
																<originalvideofilename></originalvideofilename>
																<originalaudiofilename></originalaudiofilename>
															</logginginfo>
															<colorinfo>
																<lut></lut>
																<lut1></lut1>
																<asc_sop></asc_sop>
																<asc_sat></asc_sat>
																<lut2></lut2>
															</colorinfo>
															<labels>
																<label2>Caribbean</label2>
															</labels>
														</clipitem>
														<enabled>TRUE</enabled>
														<locked>FALSE</locked>
														<filter>
															<effect>
																<name>Audio Levels</name>
																<effectid>audiolevels</effectid>
																<effectcategory>audiolevels</effectcategory>
																<effecttype>audiolevels</effecttype>
																<mediatype>audio</mediatype>
																<parameter authoringApp="PremierePro">
																	<parameterid>level</parameterid>
																	<name>Level</name>
																	<valuemin>0</valuemin>
																	<valuemax>3.98109</valuemax>
																	<value>0.706272</value>
																</parameter>
															</effect>
														</filter>
														<outputchannelindex>2</outputchannelindex>
													</track>
													<track TL.SQTrackAudioKeyframeStyle="0" TL.SQTrackShy="0" TL.SQTrackExpandedHeight="25" TL.SQTrackExpanded="0" MZ.TrackTargeted="0" PannerCurrentValue="0.5" PannerIsInverted="true" PannerStartKeyframe="-91445760000000000,0.5,0,0,0,0,0,0" PannerName="Balance" currentExplodedTrackIndex="0" totalExplodedTrackCount="2" premiereTrackType="Stereo">
														<enabled>TRUE</enabled>
														<locked>FALSE</locked>
														<outputchannelindex>1</outputchannelindex>
													</track>
													<track TL.SQTrackAudioKeyframeStyle="0" TL.SQTrackShy="0" TL.SQTrackExpandedHeight="25" TL.SQTrackExpanded="0" MZ.TrackTargeted="0" PannerCurrentValue="0.5" PannerIsInverted="true" PannerStartKeyframe="-91445760000000000,0.5,0,0,0,0,0,0" PannerName="Balance" currentExplodedTrackIndex="1" totalExplodedTrackCount="2" premiereTrackType="Stereo">
														<enabled>TRUE</enabled>
														<locked>FALSE</locked>
														<outputchannelindex>2</outputchannelindex>
													</track>
													<track TL.SQTrackAudioKeyframeStyle="0" TL.SQTrackShy="0" TL.SQTrackExpandedHeight="25" TL.SQTrackExpanded="0" MZ.TrackTargeted="0" PannerCurrentValue="0.5" PannerIsInverted="true" PannerStartKeyframe="-91445760000000000,0.5,0,0,0,0,0,0" PannerName="Balance" currentExplodedTrackIndex="0" totalExplodedTrackCount="2" premiereTrackType="Stereo">
														<enabled>TRUE</enabled>
														<locked>FALSE</locked>
														<outputchannelindex>1</outputchannelindex>
													</track>
													<track TL.SQTrackAudioKeyframeStyle="0" TL.SQTrackShy="0" TL.SQTrackExpandedHeight="25" TL.SQTrackExpanded="0" MZ.TrackTargeted="0" PannerCurrentValue="0.5" PannerIsInverted="true" PannerStartKeyframe="-91445760000000000,0.5,0,0,0,0,0,0" PannerName="Balance" currentExplodedTrackIndex="1" totalExplodedTrackCount="2" premiereTrackType="Stereo">
														<enabled>TRUE</enabled>
														<locked>FALSE</locked>
														<outputchannelindex>2</outputchannelindex>
													</track>
													<track TL.SQTrackAudioKeyframeStyle="0" TL.SQTrackShy="0" TL.SQTrackExpandedHeight="25" TL.SQTrackExpanded="0" MZ.TrackTargeted="0" PannerCurrentValue="0.5" PannerIsInverted="true" PannerStartKeyframe="-91445760000000000,0.5,0,0,0,0,0,0" PannerName="Balance" currentExplodedTrackIndex="0" totalExplodedTrackCount="2" premiereTrackType="Stereo">
														<enabled>TRUE</enabled>
														<locked>FALSE</locked>
														<outputchannelindex>1</outputchannelindex>
													</track>
													<track TL.SQTrackAudioKeyframeStyle="0" TL.SQTrackShy="0" TL.SQTrackExpandedHeight="25" TL.SQTrackExpanded="0" MZ.TrackTargeted="0" PannerCurrentValue="0.5" PannerIsInverted="true" PannerStartKeyframe="-91445760000000000,0.5,0,0,0,0,0,0" PannerName="Balance" currentExplodedTrackIndex="1" totalExplodedTrackCount="2" premiereTrackType="Stereo">
														<enabled>TRUE</enabled>
														<locked>FALSE</locked>
														<outputchannelindex>2</outputchannelindex>
													</track>
													<track TL.SQTrackAudioKeyframeStyle="0" TL.SQTrackShy="0" TL.SQTrackExpandedHeight="25" TL.SQTrackExpanded="0" MZ.TrackTargeted="0" PannerCurrentValue="0.5" PannerIsInverted="true" PannerStartKeyframe="-91445760000000000,0.5,0,0,0,0,0,0" PannerName="Balance" currentExplodedTrackIndex="0" totalExplodedTrackCount="2" premiereTrackType="Stereo">
														<enabled>TRUE</enabled>
														<locked>FALSE</locked>
														<outputchannelindex>1</outputchannelindex>
													</track>
													<track TL.SQTrackAudioKeyframeStyle="0" TL.SQTrackShy="0" TL.SQTrackExpandedHeight="25" TL.SQTrackExpanded="0" MZ.TrackTargeted="0" PannerCurrentValue="0.5" PannerIsInverted="true" PannerStartKeyframe="-91445760000000000,0.5,0,0,0,0,0,0" PannerName="Balance" currentExplodedTrackIndex="1" totalExplodedTrackCount="2" premiereTrackType="Stereo">
														<enabled>TRUE</enabled>
														<locked>FALSE</locked>
														<outputchannelindex>2</outputchannelindex>
													</track>
													<track TL.SQTrackAudioKeyframeStyle="0" TL.SQTrackShy="0" TL.SQTrackExpandedHeight="25" TL.SQTrackExpanded="0" MZ.TrackTargeted="0" PannerCurrentValue="0.5" PannerIsInverted="true" PannerStartKeyframe="-91445760000000000,0.5,0,0,0,0,0,0" PannerName="Balance" currentExplodedTrackIndex="0" totalExplodedTrackCount="2" premiereTrackType="Stereo">
														<enabled>TRUE</enabled>
														<locked>FALSE</locked>
														<outputchannelindex>1</outputchannelindex>
													</track>
													<track TL.SQTrackAudioKeyframeStyle="0" TL.SQTrackShy="0" TL.SQTrackExpandedHeight="25" TL.SQTrackExpanded="0" MZ.TrackTargeted="0" PannerCurrentValue="0.5" PannerIsInverted="true" PannerStartKeyframe="-91445760000000000,0.5,0,0,0,0,0,0" PannerName="Balance" currentExplodedTrackIndex="1" totalExplodedTrackCount="2" premiereTrackType="Stereo">
														<enabled>TRUE</enabled>
														<locked>FALSE</locked>
														<outputchannelindex>2</outputchannelindex>
													</track>
													<track TL.SQTrackAudioKeyframeStyle="0" TL.SQTrackShy="0" TL.SQTrackExpandedHeight="25" TL.SQTrackExpanded="0" MZ.TrackTargeted="0" PannerCurrentValue="0.5" PannerIsInverted="true" PannerStartKeyframe="-91445760000000000,0.5,0,0,0,0,0,0" PannerName="Balance" currentExplodedTrackIndex="0" totalExplodedTrackCount="2" premiereTrackType="Stereo">
														<enabled>TRUE</enabled>
														<locked>FALSE</locked>
														<outputchannelindex>1</outputchannelindex>
													</track>
													<track TL.SQTrackAudioKeyframeStyle="0" TL.SQTrackShy="0" TL.SQTrackExpandedHeight="25" TL.SQTrackExpanded="0" MZ.TrackTargeted="0" PannerCurrentValue="0.5" PannerIsInverted="true" PannerStartKeyframe="-91445760000000000,0.5,0,0,0,0,0,0" PannerName="Balance" currentExplodedTrackIndex="1" totalExplodedTrackCount="2" premiereTrackType="Stereo">
														<enabled>TRUE</enabled>
														<locked>FALSE</locked>
														<outputchannelindex>2</outputchannelindex>
													</track>
													<track TL.SQTrackAudioKeyframeStyle="0" TL.SQTrackShy="0" TL.SQTrackExpandedHeight="25" TL.SQTrackExpanded="0" MZ.TrackTargeted="0" PannerCurrentValue="0.5" PannerIsInverted="true" PannerStartKeyframe="-91445760000000000,0.5,0,0,0,0,0,0" PannerName="Balance" currentExplodedTrackIndex="0" totalExplodedTrackCount="2" premiereTrackType="Stereo">
														<enabled>TRUE</enabled>
														<locked>FALSE</locked>
														<outputchannelindex>1</outputchannelindex>
													</track>
													<track TL.SQTrackAudioKeyframeStyle="0" TL.SQTrackShy="0" TL.SQTrackExpandedHeight="25" TL.SQTrackExpanded="0" MZ.TrackTargeted="0" PannerCurrentValue="0.5" PannerIsInverted="true" PannerStartKeyframe="-91445760000000000,0.5,0,0,0,0,0,0" PannerName="Balance" currentExplodedTrackIndex="1" totalExplodedTrackCount="2" premiereTrackType="Stereo">
														<enabled>TRUE</enabled>
														<locked>FALSE</locked>
														<outputchannelindex>2</outputchannelindex>
													</track>
													<track TL.SQTrackAudioKeyframeStyle="0" TL.SQTrackShy="0" TL.SQTrackExpandedHeight="25" TL.SQTrackExpanded="0" MZ.TrackTargeted="0" PannerCurrentValue="0.5" PannerIsInverted="true" PannerStartKeyframe="-91445760000000000,0.5,0,0,0,0,0,0" PannerName="Balance" currentExplodedTrackIndex="0" totalExplodedTrackCount="2" premiereTrackType="Stereo">
														<enabled>TRUE</enabled>
														<locked>FALSE</locked>
														<outputchannelindex>1</outputchannelindex>
													</track>
													<track TL.SQTrackAudioKeyframeStyle="0" TL.SQTrackShy="0" TL.SQTrackExpandedHeight="25" TL.SQTrackExpanded="0" MZ.TrackTargeted="0" PannerCurrentValue="0.5" PannerIsInverted="true" PannerStartKeyframe="-91445760000000000,0.5,0,0,0,0,0,0" PannerName="Balance" currentExplodedTrackIndex="1" totalExplodedTrackCount="2" premiereTrackType="Stereo">
														<enabled>TRUE</enabled>
														<locked>FALSE</locked>
														<outputchannelindex>2</outputchannelindex>
													</track>
													<track TL.SQTrackAudioKeyframeStyle="0" TL.SQTrackShy="0" TL.SQTrackExpandedHeight="25" TL.SQTrackExpanded="0" MZ.TrackTargeted="0" PannerCurrentValue="0.5" PannerIsInverted="true" PannerStartKeyframe="-91445760000000000,0.5,0,0,0,0,0,0" PannerName="Balance" currentExplodedTrackIndex="0" totalExplodedTrackCount="2" premiereTrackType="Stereo">
														<enabled>TRUE</enabled>
														<locked>FALSE</locked>
														<outputchannelindex>1</outputchannelindex>
													</track>
													<track TL.SQTrackAudioKeyframeStyle="0" TL.SQTrackShy="0" TL.SQTrackExpandedHeight="25" TL.SQTrackExpanded="0" MZ.TrackTargeted="0" PannerCurrentValue="0.5" PannerIsInverted="true" PannerStartKeyframe="-91445760000000000,0.5,0,0,0,0,0,0" PannerName="Balance" currentExplodedTrackIndex="1" totalExplodedTrackCount="2" premiereTrackType="Stereo">
														<enabled>TRUE</enabled>
														<locked>FALSE</locked>
														<outputchannelindex>2</outputchannelindex>
													</track>
												</audio>
											</media>
											<timecode>
												<rate>
													<timebase>30</timebase>
													<ntsc>TRUE</ntsc>
												</rate>
												<string>00;00;00;00</string>
												<frame>0</frame>
												<displayformat>DF</displayformat>
											</timecode>
											<logginginfo>
												<description></description>
												<scene></scene>
												<shottake></shottake>
												<lognote></lognote>
												<good></good>
												<originalvideofilename></originalvideofilename>
												<originalaudiofilename></originalaudiofilename>
											</logginginfo>
										</sequence>
										<link>
											<linkclipref>clipitem-366</linkclipref>
											<mediatype>video</mediatype>
											<trackindex>1</trackindex>
											<clipindex>1</clipindex>
										</link>
										<link>
											<linkclipref>clipitem-404</linkclipref>
											<mediatype>audio</mediatype>
											<trackindex>1</trackindex>
											<clipindex>1</clipindex>
											<groupindex>1</groupindex>
										</link>
										<link>
											<linkclipref>clipitem-406</linkclipref>
											<mediatype>audio</mediatype>
											<trackindex>2</trackindex>
											<clipindex>1</clipindex>
											<groupindex>1</groupindex>
										</link>
										<labels>
											<label2>Forest</label2>
										</labels>
									</clipitem>
									<clipitem id="clipitem-383">
										<masterclipid>masterclip-152</masterclipid>
										<name>Lemon Blueberry Bliss_1.5</name>
										<enabled>TRUE</enabled>
										<duration>5700</duration>
										<rate>
											<timebase>30</timebase>
											<ntsc>TRUE</ntsc>
										</rate>
										<start>2722</start>
										<end>5100</end>
										<in>0</in>
										<out>2378</out>
										<pproTicksIn>0</pproTicksIn>
										<pproTicksOut>20155136601600</pproTicksOut>
										<sequence id="sequence-30" TL.SQAudioVisibleBase="0" TL.SQVideoVisibleBase="0" TL.SQVisibleBaseTime="17326687178943" TL.SQAVDividerPosition="0.5" TL.SQHideShyTracks="0" TL.SQHeaderWidth="236" TL.SQDataTrackViewControlState="0" Monitor.ProgramZoomOut="20155136601600" Monitor.ProgramZoomIn="0" TL.SQTimePerPixel="0.017481005922954176" AM.TrackVScrollPosition="0" AM.TrackScrollPosition="0" MZ.EditLine="20222941939200" MZ.Sequence.PreviewFrameSizeHeight="1080" MZ.Sequence.PreviewFrameSizeWidth="1920" MZ.Sequence.AudioTimeDisplayFormat="200" MZ.Sequence.PreviewRenderingClassID="1061109567" MZ.Sequence.PreviewRenderingPresetCodec="1634755443" MZ.Sequence.PreviewRenderingPresetPath="EncoderPresets/SequencePreview/35d109db-457b-43c1-9452-9cb7be9f121c/QuickTime.epr" MZ.Sequence.PreviewUseMaxRenderQuality="false" MZ.Sequence.PreviewUseMaxBitDepth="false" MZ.Sequence.EditingModeGUID="35d109db-457b-43c1-9452-9cb7be9f121c" MZ.Sequence.VideoTimeDisplayFormat="102" MZ.WorkOutPoint="1262874412800" MZ.WorkInPoint="0">
											<duration>2378</duration>
											<rate>
												<timebase>30</timebase>
												<ntsc>TRUE</ntsc>
											</rate>
											<name>FND_Lemon Blueberry Bliss_1.5</name>
											<media>
												<video>
													<format>
														<samplecharacteristics>
															<rate>
																<timebase>30</timebase>
																<ntsc>TRUE</ntsc>
															</rate>
															<codec>
																<name>Apple ProRes 422</name>
																<appspecificdata>
																	<appname>Final Cut Pro</appname>
																	<appmanufacturer>Apple Inc.</appmanufacturer>
																	<appversion>7.0</appversion>
																	<data>
																		<qtcodec>
																			<codecname>Apple ProRes 422</codecname>
																			<codectypename>Apple ProRes 422</codectypename>
																			<codectypecode>apcn</codectypecode>
																			<codecvendorcode>appl</codecvendorcode>
																			<spatialquality>1024</spatialquality>
																			<temporalquality>0</temporalquality>
																			<keyframerate>0</keyframerate>
																			<datarate>0</datarate>
																		</qtcodec>
																	</data>
																</appspecificdata>
															</codec>
															<width>1920</width>
															<height>1080</height>
															<anamorphic>FALSE</anamorphic>
															<pixelaspectratio>square</pixelaspectratio>
															<fielddominance>none</fielddominance>
															<colordepth>24</colordepth>
														</samplecharacteristics>
													</format>
													<track TL.SQTrackShy="0" TL.SQTrackExpandedHeight="25" TL.SQTrackExpanded="0" MZ.TrackTargeted="1">
														<clipitem id="clipitem-384">
															<masterclipid>masterclip-153</masterclipid>
															<name>(sophiabakessometimes)_7077244126927834374_TT.mp4</name>
															<enabled>TRUE</enabled>
															<duration>1172</duration>
															<rate>
																<timebase>30</timebase>
																<ntsc>TRUE</ntsc>
															</rate>
															<start>0</start>
															<end>206</end>
															<in>0</in>
															<out>206</out>
															<pproTicksIn>0</pproTicksIn>
															<pproTicksOut>1745987443200</pproTicksOut>
															<alphatype>none</alphatype>
															<pixelaspectratio>square</pixelaspectratio>
															<anamorphic>FALSE</anamorphic>
															<file id="file-131">
																<name>(sophiabakessometimes)_7077244126927834374_TT.mp4</name>
																<pathurl>file://localhost/Volumes/ATM%201/EYE%20CANDY/8%3a14%3a23/3_Raw%20Files/blueberry%20lemon/(sophiabakessometimes)_7077244126927834374_TT.mp4</pathurl>
																<rate>
																	<timebase>30</timebase>
																	<ntsc>FALSE</ntsc>
																</rate>
																<duration>1174</duration>
																<timecode>
																	<rate>
																		<timebase>30</timebase>
																		<ntsc>FALSE</ntsc>
																	</rate>
																	<string>00:00:00:00</string>
																	<frame>0</frame>
																	<displayformat>NDF</displayformat>
																</timecode>
																<media>
																	<video>
																		<samplecharacteristics>
																			<rate>
																				<timebase>30</timebase>
																				<ntsc>FALSE</ntsc>
																			</rate>
																			<width>576</width>
																			<height>1024</height>
																			<anamorphic>FALSE</anamorphic>
																			<pixelaspectratio>square</pixelaspectratio>
																			<fielddominance>none</fielddominance>
																		</samplecharacteristics>
																	</video>
																	<audio>
																		<samplecharacteristics>
																			<depth>16</depth>
																			<samplerate>44100</samplerate>
																		</samplecharacteristics>
																		<channelcount>2</channelcount>
																	</audio>
																</media>
															</file>
															<logginginfo>
																<description></description>
																<scene></scene>
																<shottake></shottake>
																<lognote></lognote>
																<good></good>
																<originalvideofilename></originalvideofilename>
																<originalaudiofilename></originalaudiofilename>
															</logginginfo>
															<colorinfo>
																<lut></lut>
																<lut1></lut1>
																<asc_sop></asc_sop>
																<asc_sat></asc_sat>
																<lut2></lut2>
															</colorinfo>
															<labels>
																<label2>Violet</label2>
															</labels>
														</clipitem>
														<clipitem id="clipitem-385">
															<masterclipid>masterclip-153</masterclipid>
															<name>(sophiabakessometimes)_7077244126927834374_TT.mp4</name>
															<enabled>TRUE</enabled>
															<duration>1172</duration>
															<rate>
																<timebase>30</timebase>
																<ntsc>TRUE</ntsc>
															</rate>
															<start>206</start>
															<end>240</end>
															<in>440</in>
															<out>474</out>
															<pproTicksIn>3729293568000</pproTicksIn>
															<pproTicksOut>4017466252800</pproTicksOut>
															<alphatype>none</alphatype>
															<file id="file-131"/>
															<logginginfo>
																<description></description>
																<scene></scene>
																<shottake></shottake>
																<lognote></lognote>
																<good></good>
																<originalvideofilename></originalvideofilename>
																<originalaudiofilename></originalaudiofilename>
															</logginginfo>
															<colorinfo>
																<lut></lut>
																<lut1></lut1>
																<asc_sop></asc_sop>
																<asc_sat></asc_sat>
																<lut2></lut2>
															</colorinfo>
															<labels>
																<label2>Violet</label2>
															</labels>
														</clipitem>
														<clipitem id="clipitem-386">
															<masterclipid>masterclip-153</masterclipid>
															<name>(sophiabakessometimes)_7077244126927834374_TT.mp4</name>
															<enabled>TRUE</enabled>
															<duration>1172</duration>
															<rate>
																<timebase>30</timebase>
																<ntsc>TRUE</ntsc>
															</rate>
															<start>240</start>
															<end>452</end>
															<in>557</in>
															<out>769</out>
															<pproTicksIn>4720946630400</pproTicksIn>
															<pproTicksOut>6517788076800</pproTicksOut>
															<alphatype>none</alphatype>
															<file id="file-131"/>
															<logginginfo>
																<description></description>
																<scene></scene>
																<shottake></shottake>
																<lognote></lognote>
																<good></good>
																<originalvideofilename></originalvideofilename>
																<originalaudiofilename></originalaudiofilename>
															</logginginfo>
															<colorinfo>
																<lut></lut>
																<lut1></lut1>
																<asc_sop></asc_sop>
																<asc_sat></asc_sat>
																<lut2></lut2>
															</colorinfo>
															<labels>
																<label2>Violet</label2>
															</labels>
														</clipitem>
														<clipitem id="clipitem-387">
															<masterclipid>masterclip-153</masterclipid>
															<name>(sophiabakessometimes)_7077244126927834374_TT.mp4</name>
															<enabled>TRUE</enabled>
															<duration>1172</duration>
															<rate>
																<timebase>30</timebase>
																<ntsc>TRUE</ntsc>
															</rate>
															<start>452</start>
															<end>694</end>
															<in>864</in>
															<out>1106</out>
															<pproTicksIn>7322976460800</pproTicksIn>
															<pproTicksOut>9374087923200</pproTicksOut>
															<alphatype>none</alphatype>
															<file id="file-131"/>
															<logginginfo>
																<description></description>
																<scene></scene>
																<shottake></shottake>
																<lognote></lognote>
																<good></good>
																<originalvideofilename></originalvideofilename>
																<originalaudiofilename></originalaudiofilename>
															</logginginfo>
															<colorinfo>
																<lut></lut>
																<lut1></lut1>
																<asc_sop></asc_sop>
																<asc_sat></asc_sat>
																<lut2></lut2>
															</colorinfo>
															<labels>
																<label2>Violet</label2>
															</labels>
														</clipitem>
														<clipitem id="clipitem-388">
															<masterclipid>masterclip-154</masterclipid>
															<name>(goodeatzco)_CovuAFAJYQB_IG.mp4</name>
															<enabled>TRUE</enabled>
															<duration>608</duration>
															<rate>
																<timebase>30</timebase>
																<ntsc>TRUE</ntsc>
															</rate>
															<start>694</start>
															<end>1302</end>
															<in>0</in>
															<out>608</out>
															<pproTicksIn>0</pproTicksIn>
															<pproTicksOut>5153205657600</pproTicksOut>
															<alphatype>none</alphatype>
															<pixelaspectratio>square</pixelaspectratio>
															<anamorphic>FALSE</anamorphic>
															<file id="file-132">
																<name>(goodeatzco)_CovuAFAJYQB_IG.mp4</name>
																<pathurl>file://localhost/Volumes/ATM%201/EYE%20CANDY/8%3a14%3a23/3_Raw%20Files/blueberry%20lemon/(goodeatzco)_CovuAFAJYQB_IG.mp4</pathurl>
																<rate>
																	<timebase>30</timebase>
																	<ntsc>FALSE</ntsc>
																</rate>
																<duration>609</duration>
																<timecode>
																	<rate>
																		<timebase>30</timebase>
																		<ntsc>FALSE</ntsc>
																	</rate>
																	<string>00:00:00:00</string>
																	<frame>0</frame>
																	<displayformat>NDF</displayformat>
																</timecode>
																<media>
																	<video>
																		<samplecharacteristics>
																			<rate>
																				<timebase>30</timebase>
																				<ntsc>FALSE</ntsc>
																			</rate>
																			<width>1080</width>
																			<height>1920</height>
																			<anamorphic>FALSE</anamorphic>
																			<pixelaspectratio>square</pixelaspectratio>
																			<fielddominance>none</fielddominance>
																		</samplecharacteristics>
																	</video>
																	<audio>
																		<samplecharacteristics>
																			<depth>16</depth>
																			<samplerate>44100</samplerate>
																		</samplecharacteristics>
																		<channelcount>2</channelcount>
																	</audio>
																</media>
															</file>
															<logginginfo>
																<description></description>
																<scene></scene>
																<shottake></shottake>
																<lognote></lognote>
																<good></good>
																<originalvideofilename></originalvideofilename>
																<originalaudiofilename></originalaudiofilename>
															</logginginfo>
															<colorinfo>
																<lut></lut>
																<lut1></lut1>
																<asc_sop></asc_sop>
																<asc_sat></asc_sat>
																<lut2></lut2>
															</colorinfo>
															<labels>
																<label2>Violet</label2>
															</labels>
														</clipitem>
														<clipitem id="clipitem-389">
															<masterclipid>masterclip-155</masterclipid>
															<name>(sugarandsparrowco)_CpaepSqJ6U5_IG.mp4</name>
															<enabled>TRUE</enabled>
															<duration>734</duration>
															<rate>
																<timebase>30</timebase>
																<ntsc>TRUE</ntsc>
															</rate>
															<start>1302</start>
															<end>1926</end>
															<in>110</in>
															<out>734</out>
															<pproTicksIn>932323392000</pproTicksIn>
															<pproTicksOut>6221139724800</pproTicksOut>
															<alphatype>none</alphatype>
															<pixelaspectratio>square</pixelaspectratio>
															<anamorphic>FALSE</anamorphic>
															<file id="file-133">
																<name>(sugarandsparrowco)_CpaepSqJ6U5_IG.mp4</name>
																<pathurl>file://localhost/Volumes/ATM%201/EYE%20CANDY/8%3a14%3a23/3_Raw%20Files/blueberry%20lemon/(sugarandsparrowco)_CpaepSqJ6U5_IG.mp4</pathurl>
																<rate>
																	<timebase>30</timebase>
																	<ntsc>FALSE</ntsc>
																</rate>
																<duration>735</duration>
																<timecode>
																	<rate>
																		<timebase>30</timebase>
																		<ntsc>FALSE</ntsc>
																	</rate>
																	<string>00:00:00:00</string>
																	<frame>0</frame>
																	<displayformat>NDF</displayformat>
																</timecode>
																<media>
																	<video>
																		<samplecharacteristics>
																			<rate>
																				<timebase>30</timebase>
																				<ntsc>FALSE</ntsc>
																			</rate>
																			<width>720</width>
																			<height>1280</height>
																			<anamorphic>FALSE</anamorphic>
																			<pixelaspectratio>square</pixelaspectratio>
																			<fielddominance>none</fielddominance>
																		</samplecharacteristics>
																	</video>
																	<audio>
																		<samplecharacteristics>
																			<depth>16</depth>
																			<samplerate>44100</samplerate>
																		</samplecharacteristics>
																		<channelcount>2</channelcount>
																	</audio>
																</media>
															</file>
															<logginginfo>
																<description></description>
																<scene></scene>
																<shottake></shottake>
																<lognote></lognote>
																<good></good>
																<originalvideofilename></originalvideofilename>
																<originalaudiofilename></originalaudiofilename>
															</logginginfo>
															<colorinfo>
																<lut></lut>
																<lut1></lut1>
																<asc_sop></asc_sop>
																<asc_sat></asc_sat>
																<lut2></lut2>
															</colorinfo>
															<labels>
																<label2>Violet</label2>
															</labels>
														</clipitem>
														<clipitem id="clipitem-390">
															<masterclipid>masterclip-156</masterclipid>
															<name>(aquickspoonful)_CundzuWxQ1b_IG.mp4</name>
															<enabled>TRUE</enabled>
															<duration>452</duration>
															<rate>
																<timebase>30</timebase>
																<ntsc>TRUE</ntsc>
															</rate>
															<start>1926</start>
															<end>2301</end>
															<in>0</in>
															<out>375</out>
															<pproTicksIn>0</pproTicksIn>
															<pproTicksOut>3178375200000</pproTicksOut>
															<alphatype>none</alphatype>
															<pixelaspectratio>square</pixelaspectratio>
															<anamorphic>FALSE</anamorphic>
															<file id="file-134">
																<name>(aquickspoonful)_CundzuWxQ1b_IG.mp4</name>
																<pathurl>file://localhost/Volumes/ATM%201/EYE%20CANDY/8%3a14%3a23/3_Raw%20Files/blueberry%20lemon/(aquickspoonful)_CundzuWxQ1b_IG.mp4</pathurl>
																<rate>
																	<timebase>30</timebase>
																	<ntsc>FALSE</ntsc>
																</rate>
																<duration>453</duration>
																<timecode>
																	<rate>
																		<timebase>30</timebase>
																		<ntsc>FALSE</ntsc>
																	</rate>
																	<string>00:00:00:00</string>
																	<frame>0</frame>
																	<displayformat>NDF</displayformat>
																</timecode>
																<media>
																	<video>
																		<samplecharacteristics>
																			<rate>
																				<timebase>30</timebase>
																				<ntsc>FALSE</ntsc>
																			</rate>
																			<width>576</width>
																			<height>1024</height>
																			<anamorphic>FALSE</anamorphic>
																			<pixelaspectratio>square</pixelaspectratio>
																			<fielddominance>none</fielddominance>
																		</samplecharacteristics>
																	</video>
																	<audio>
																		<samplecharacteristics>
																			<depth>16</depth>
																			<samplerate>44100</samplerate>
																		</samplecharacteristics>
																		<channelcount>1</channelcount>
																		<audiochannel>
																			<sourcechannel>1</sourcechannel>
																		</audiochannel>
																	</audio>
																</media>
															</file>
															<logginginfo>
																<description></description>
																<scene></scene>
																<shottake></shottake>
																<lognote></lognote>
																<good></good>
																<originalvideofilename></originalvideofilename>
																<originalaudiofilename></originalaudiofilename>
															</logginginfo>
															<colorinfo>
																<lut></lut>
																<lut1></lut1>
																<asc_sop></asc_sop>
																<asc_sat></asc_sat>
																<lut2></lut2>
															</colorinfo>
															<labels>
																<label2>Violet</label2>
															</labels>
														</clipitem>
														<clipitem id="clipitem-391">
															<masterclipid>masterclip-156</masterclipid>
															<name>(aquickspoonful)_CundzuWxQ1b_IG.mp4</name>
															<enabled>TRUE</enabled>
															<duration>869</duration>
															<rate>
																<timebase>30</timebase>
																<ntsc>TRUE</ntsc>
															</rate>
															<start>2301</start>
															<end>2378</end>
															<in>793</in>
															<out>869</out>
															<pproTicksIn>3491974886400</pproTicksIn>
															<pproTicksOut>3831080845936</pproTicksOut>
															<alphatype>none</alphatype>
															<file id="file-134"/>
															<filter>
																<effect>
																	<name>Time Remap</name>
																	<effectid>timeremap</effectid>
																	<effectcategory>motion</effectcategory>
																	<effecttype>motion</effecttype>
																	<mediatype>video</mediatype>
																	<parameter authoringApp="PremierePro">
																		<parameterid>variablespeed</parameterid>
																		<name>variablespeed</name>
																		<valuemin>0</valuemin>
																		<valuemax>1</valuemax>
																		<value>0</value>
																	</parameter>
																	<parameter authoringApp="PremierePro">
																		<parameterid>speed</parameterid>
																		<name>speed</name>
																		<valuemin>-100000</valuemin>
																		<valuemax>100000</valuemax>
																		<value>51.9602</value>
																	</parameter>
																	<parameter authoringApp="PremierePro">
																		<parameterid>reverse</parameterid>
																		<name>reverse</name>
																		<value>FALSE</value>
																	</parameter>
																	<parameter authoringApp="PremierePro">
																		<parameterid>frameblending</parameterid>
																		<name>frameblending</name>
																		<value>FALSE</value>
																	</parameter>
																	<parameter authoringApp="PremierePro">
																		<parameterid>graphdict</parameterid>
																		<name>graphdict</name>
																		<valuemin>0</valuemin>
																		<valuemax>451</valuemax>
																		<value>0</value>
																		<keyframe>
																			<when>0</when>
																			<value>0</value>
																			<speedvirtualkf>TRUE</speedvirtualkf>
																			<speedkfstart>TRUE</speedkfstart>
																		</keyframe>
																		<keyframe>
																			<when>793</when>
																			<value>412</value>
																			<speedvirtualkf>TRUE</speedvirtualkf>
																			<speedkfin>TRUE</speedkfin>
																		</keyframe>
																		<keyframe>
																			<when>869</when>
																			<value>451</value>
																			<speedvirtualkf>TRUE</speedvirtualkf>
																			<speedkfout>TRUE</speedkfout>
																		</keyframe>
																		<interpolation>
																			<name>FCPCurve</name>
																		</interpolation>
																	</parameter>
																</effect>
															</filter>
															<logginginfo>
																<description></description>
																<scene></scene>
																<shottake></shottake>
																<lognote></lognote>
																<good></good>
																<originalvideofilename></originalvideofilename>
																<originalaudiofilename></originalaudiofilename>
															</logginginfo>
															<colorinfo>
																<lut></lut>
																<lut1></lut1>
																<asc_sop></asc_sop>
																<asc_sat></asc_sat>
																<lut2></lut2>
															</colorinfo>
															<labels>
																<label2>Violet</label2>
															</labels>
														</clipitem>
														<enabled>TRUE</enabled>
														<locked>FALSE</locked>
													</track>
													<track TL.SQTrackShy="0" TL.SQTrackExpandedHeight="25" TL.SQTrackExpanded="0" MZ.TrackTargeted="0">
														<enabled>TRUE</enabled>
														<locked>FALSE</locked>
													</track>
													<track TL.SQTrackShy="0" TL.SQTrackExpandedHeight="25" TL.SQTrackExpanded="0" MZ.TrackTargeted="0">
														<clipitem id="clipitem-392">
															<masterclipid>masterclip-14</masterclipid>
															<name>Eyecandy Vertical Video Frame 1</name>
															<enabled>TRUE</enabled>
															<duration>5700</duration>
															<rate>
																<timebase>30</timebase>
																<ntsc>TRUE</ntsc>
															</rate>
															<start>0</start>
															<end>694</end>
															<in>80</in>
															<out>774</out>
															<pproTicksIn>678053376000</pproTicksIn>
															<pproTicksOut>6560166412800</pproTicksOut>
															<alphatype>straight</alphatype>
															<file id="file-12"/>
															<logginginfo>
																<description></description>
																<scene></scene>
																<shottake></shottake>
																<lognote></lognote>
																<good></good>
																<originalvideofilename></originalvideofilename>
																<originalaudiofilename></originalaudiofilename>
															</logginginfo>
															<colorinfo>
																<lut></lut>
																<lut1></lut1>
																<asc_sop></asc_sop>
																<asc_sat></asc_sat>
																<lut2></lut2>
															</colorinfo>
															<labels>
																<label2>Teal</label2>
															</labels>
														</clipitem>
														<clipitem id="clipitem-393">
															<masterclipid>masterclip-14</masterclipid>
															<name>Eyecandy Vertical Video Frame 1</name>
															<enabled>TRUE</enabled>
															<duration>5700</duration>
															<rate>
																<timebase>30</timebase>
																<ntsc>TRUE</ntsc>
															</rate>
															<start>694</start>
															<end>1302</end>
															<in>774</in>
															<out>1382</out>
															<pproTicksIn>6560166412800</pproTicksIn>
															<pproTicksOut>11713372070400</pproTicksOut>
															<alphatype>straight</alphatype>
															<file id="file-12"/>
															<logginginfo>
																<description></description>
																<scene></scene>
																<shottake></shottake>
																<lognote></lognote>
																<good></good>
																<originalvideofilename></originalvideofilename>
																<originalaudiofilename></originalaudiofilename>
															</logginginfo>
															<colorinfo>
																<lut></lut>
																<lut1></lut1>
																<asc_sop></asc_sop>
																<asc_sat></asc_sat>
																<lut2></lut2>
															</colorinfo>
															<labels>
																<label2>Teal</label2>
															</labels>
														</clipitem>
														<clipitem id="clipitem-394">
															<masterclipid>masterclip-14</masterclipid>
															<name>Eyecandy Vertical Video Frame 1</name>
															<enabled>TRUE</enabled>
															<duration>5700</duration>
															<rate>
																<timebase>30</timebase>
																<ntsc>TRUE</ntsc>
															</rate>
															<start>1302</start>
															<end>1926</end>
															<in>1382</in>
															<out>2006</out>
															<pproTicksIn>11713372070400</pproTicksIn>
															<pproTicksOut>17002188403200</pproTicksOut>
															<alphatype>straight</alphatype>
															<file id="file-12"/>
															<logginginfo>
																<description></description>
																<scene></scene>
																<shottake></shottake>
																<lognote></lognote>
																<good></good>
																<originalvideofilename></originalvideofilename>
																<originalaudiofilename></originalaudiofilename>
															</logginginfo>
															<colorinfo>
																<lut></lut>
																<lut1></lut1>
																<asc_sop></asc_sop>
																<asc_sat></asc_sat>
																<lut2></lut2>
															</colorinfo>
															<labels>
																<label2>Teal</label2>
															</labels>
														</clipitem>
														<clipitem id="clipitem-395">
															<masterclipid>masterclip-14</masterclipid>
															<name>Eyecandy Vertical Video Frame 1</name>
															<enabled>TRUE</enabled>
															<duration>5700</duration>
															<rate>
																<timebase>30</timebase>
																<ntsc>TRUE</ntsc>
															</rate>
															<start>1926</start>
															<end>2378</end>
															<in>2006</in>
															<out>2458</out>
															<pproTicksIn>17002188403200</pproTicksIn>
															<pproTicksOut>20833189977600</pproTicksOut>
															<alphatype>straight</alphatype>
															<file id="file-12"/>
															<logginginfo>
																<description></description>
																<scene></scene>
																<shottake></shottake>
																<lognote></lognote>
																<good></good>
																<originalvideofilename></originalvideofilename>
																<originalaudiofilename></originalaudiofilename>
															</logginginfo>
															<colorinfo>
																<lut></lut>
																<lut1></lut1>
																<asc_sop></asc_sop>
																<asc_sat></asc_sat>
																<lut2></lut2>
															</colorinfo>
															<labels>
																<label2>Teal</label2>
															</labels>
														</clipitem>
														<enabled>TRUE</enabled>
														<locked>FALSE</locked>
													</track>
													<track TL.SQTrackShy="0" TL.SQTrackExpandedHeight="25" TL.SQTrackExpanded="0" MZ.TrackTargeted="0">
														<enabled>TRUE</enabled>
														<locked>FALSE</locked>
													</track>
													<track TL.SQTrackShy="0" TL.SQTrackExpandedHeight="25" TL.SQTrackExpanded="0" MZ.TrackTargeted="0">
														<enabled>TRUE</enabled>
														<locked>FALSE</locked>
													</track>
													<track TL.SQTrackShy="0" TL.SQTrackExpandedHeight="25" TL.SQTrackExpanded="0" MZ.TrackTargeted="0">
														<enabled>TRUE</enabled>
														<locked>FALSE</locked>
													</track>
													<track TL.SQTrackShy="0" TL.SQTrackExpandedHeight="25" TL.SQTrackExpanded="0" MZ.TrackTargeted="0">
														<enabled>TRUE</enabled>
														<locked>FALSE</locked>
													</track>
													<track TL.SQTrackShy="0" TL.SQTrackExpandedHeight="25" TL.SQTrackExpanded="0" MZ.TrackTargeted="0">
														<enabled>TRUE</enabled>
														<locked>FALSE</locked>
													</track>
													<track TL.SQTrackShy="0" TL.SQTrackExpandedHeight="25" TL.SQTrackExpanded="0" MZ.TrackTargeted="0">
														<enabled>TRUE</enabled>
														<locked>FALSE</locked>
													</track>
													<track TL.SQTrackShy="0" TL.SQTrackExpandedHeight="25" TL.SQTrackExpanded="0" MZ.TrackTargeted="0">
														<enabled>TRUE</enabled>
														<locked>FALSE</locked>
													</track>
												</video>
												<audio>
													<numOutputChannels>2</numOutputChannels>
													<format>
														<samplecharacteristics>
															<depth>16</depth>
															<samplerate>48000</samplerate>
														</samplecharacteristics>
													</format>
													<outputs>
														<group>
															<index>1</index>
															<numchannels>1</numchannels>
															<downmix>0</downmix>
															<channel>
																<index>1</index>
															</channel>
														</group>
														<group>
															<index>2</index>
															<numchannels>1</numchannels>
															<downmix>0</downmix>
															<channel>
																<index>2</index>
															</channel>
														</group>
													</outputs>
													<track TL.SQTrackAudioKeyframeStyle="0" TL.SQTrackShy="0" TL.SQTrackExpandedHeight="25" TL.SQTrackExpanded="0" MZ.TrackTargeted="1" PannerCurrentValue="0.5" PannerIsInverted="true" PannerStartKeyframe="-91445760000000000,0.5,0,0,0,0,0,0" PannerName="Balance" currentExplodedTrackIndex="0" totalExplodedTrackCount="2" premiereTrackType="Stereo">
														<clipitem id="clipitem-396" premiereChannelType="stereo">
															<masterclipid>masterclip-157</masterclipid>
															<name>ES_Faster Car (Sped Up Version) (Instrumental Version) - Loving Caliber.wav</name>
															<enabled>TRUE</enabled>
															<duration>5769</duration>
															<rate>
																<timebase>30</timebase>
																<ntsc>TRUE</ntsc>
															</rate>
															<start>0</start>
															<end>2378</end>
															<in>0</in>
															<out>2378</out>
															<pproTicksIn>0</pproTicksIn>
															<pproTicksOut>20155136601600</pproTicksOut>
															<file id="file-135">
																<name>ES_Faster Car (Sped Up Version) (Instrumental Version) - Loving Caliber.wav</name>
																<pathurl>file://localhost/Volumes/ATM%201/EYE%20CANDY/8%3a14%3a23/5_Assets/Music/ES_Faster%20Car%20(Sped%20Up%20Version)%20(Instrumental%20Version)%20-%20Loving%20Caliber.wav</pathurl>
																<rate>
																	<timebase>30</timebase>
																	<ntsc>TRUE</ntsc>
																</rate>
																<duration>5769</duration>
																<timecode>
																	<rate>
																		<timebase>30</timebase>
																		<ntsc>TRUE</ntsc>
																	</rate>
																	<string>00;00;00;00</string>
																	<frame>0</frame>
																	<displayformat>DF</displayformat>
																</timecode>
																<media>
																	<audio>
																		<samplecharacteristics>
																			<depth>16</depth>
																			<samplerate>48000</samplerate>
																		</samplecharacteristics>
																		<channelcount>2</channelcount>
																	</audio>
																</media>
															</file>
															<sourcetrack>
																<mediatype>audio</mediatype>
																<trackindex>1</trackindex>
															</sourcetrack>
															<link>
																<linkclipref>clipitem-396</linkclipref>
																<mediatype>audio</mediatype>
																<trackindex>1</trackindex>
																<clipindex>1</clipindex>
																<groupindex>1</groupindex>
															</link>
															<link>
																<linkclipref>clipitem-397</linkclipref>
																<mediatype>audio</mediatype>
																<trackindex>2</trackindex>
																<clipindex>1</clipindex>
																<groupindex>1</groupindex>
															</link>
															<logginginfo>
																<description></description>
																<scene></scene>
																<shottake></shottake>
																<lognote></lognote>
																<good></good>
																<originalvideofilename></originalvideofilename>
																<originalaudiofilename></originalaudiofilename>
															</logginginfo>
															<colorinfo>
																<lut></lut>
																<lut1></lut1>
																<asc_sop></asc_sop>
																<asc_sat></asc_sat>
																<lut2></lut2>
															</colorinfo>
															<labels>
																<label2>Caribbean</label2>
															</labels>
														</clipitem>
														<enabled>TRUE</enabled>
														<locked>FALSE</locked>
														<filter>
															<effect>
																<name>Audio Levels</name>
																<effectid>audiolevels</effectid>
																<effectcategory>audiolevels</effectcategory>
																<effecttype>audiolevels</effecttype>
																<mediatype>audio</mediatype>
																<parameter authoringApp="PremierePro">
																	<parameterid>level</parameterid>
																	<name>Level</name>
																	<valuemin>0</valuemin>
																	<valuemax>3.98109</valuemax>
																	<value>0.706272</value>
																</parameter>
															</effect>
														</filter>
														<outputchannelindex>1</outputchannelindex>
													</track>
													<track TL.SQTrackAudioKeyframeStyle="0" TL.SQTrackShy="0" TL.SQTrackExpandedHeight="25" TL.SQTrackExpanded="0" MZ.TrackTargeted="1" PannerCurrentValue="0.5" PannerIsInverted="true" PannerStartKeyframe="-91445760000000000,0.5,0,0,0,0,0,0" PannerName="Balance" currentExplodedTrackIndex="1" totalExplodedTrackCount="2" premiereTrackType="Stereo">
														<clipitem id="clipitem-397" premiereChannelType="stereo">
															<masterclipid>masterclip-157</masterclipid>
															<name>ES_Faster Car (Sped Up Version) (Instrumental Version) - Loving Caliber.wav</name>
															<enabled>TRUE</enabled>
															<duration>5769</duration>
															<rate>
																<timebase>30</timebase>
																<ntsc>TRUE</ntsc>
															</rate>
															<start>0</start>
															<end>2378</end>
															<in>0</in>
															<out>2378</out>
															<pproTicksIn>0</pproTicksIn>
															<pproTicksOut>20155136601600</pproTicksOut>
															<file id="file-135"/>
															<sourcetrack>
																<mediatype>audio</mediatype>
																<trackindex>2</trackindex>
															</sourcetrack>
															<link>
																<linkclipref>clipitem-396</linkclipref>
																<mediatype>audio</mediatype>
																<trackindex>1</trackindex>
																<clipindex>1</clipindex>
																<groupindex>1</groupindex>
															</link>
															<link>
																<linkclipref>clipitem-397</linkclipref>
																<mediatype>audio</mediatype>
																<trackindex>2</trackindex>
																<clipindex>1</clipindex>
																<groupindex>1</groupindex>
															</link>
															<logginginfo>
																<description></description>
																<scene></scene>
																<shottake></shottake>
																<lognote></lognote>
																<good></good>
																<originalvideofilename></originalvideofilename>
																<originalaudiofilename></originalaudiofilename>
															</logginginfo>
															<colorinfo>
																<lut></lut>
																<lut1></lut1>
																<asc_sop></asc_sop>
																<asc_sat></asc_sat>
																<lut2></lut2>
															</colorinfo>
															<labels>
																<label2>Caribbean</label2>
															</labels>
														</clipitem>
														<enabled>TRUE</enabled>
														<locked>FALSE</locked>
														<filter>
															<effect>
																<name>Audio Levels</name>
																<effectid>audiolevels</effectid>
																<effectcategory>audiolevels</effectcategory>
																<effecttype>audiolevels</effecttype>
																<mediatype>audio</mediatype>
																<parameter authoringApp="PremierePro">
																	<parameterid>level</parameterid>
																	<name>Level</name>
																	<valuemin>0</valuemin>
																	<valuemax>3.98109</valuemax>
																	<value>0.706272</value>
																</parameter>
															</effect>
														</filter>
														<outputchannelindex>2</outputchannelindex>
													</track>
													<track TL.SQTrackAudioKeyframeStyle="0" TL.SQTrackShy="0" TL.SQTrackExpandedHeight="25" TL.SQTrackExpanded="0" MZ.TrackTargeted="0" PannerCurrentValue="0.5" PannerIsInverted="true" PannerStartKeyframe="-91445760000000000,0.5,0,0,0,0,0,0" PannerName="Balance" currentExplodedTrackIndex="0" totalExplodedTrackCount="2" premiereTrackType="Stereo">
														<enabled>TRUE</enabled>
														<locked>FALSE</locked>
														<outputchannelindex>1</outputchannelindex>
													</track>
													<track TL.SQTrackAudioKeyframeStyle="0" TL.SQTrackShy="0" TL.SQTrackExpandedHeight="25" TL.SQTrackExpanded="0" MZ.TrackTargeted="0" PannerCurrentValue="0.5" PannerIsInverted="true" PannerStartKeyframe="-91445760000000000,0.5,0,0,0,0,0,0" PannerName="Balance" currentExplodedTrackIndex="1" totalExplodedTrackCount="2" premiereTrackType="Stereo">
														<enabled>TRUE</enabled>
														<locked>FALSE</locked>
														<outputchannelindex>2</outputchannelindex>
													</track>
													<track TL.SQTrackAudioKeyframeStyle="0" TL.SQTrackShy="0" TL.SQTrackExpandedHeight="25" TL.SQTrackExpanded="0" MZ.TrackTargeted="0" PannerCurrentValue="0.5" PannerIsInverted="true" PannerStartKeyframe="-91445760000000000,0.5,0,0,0,0,0,0" PannerName="Balance" currentExplodedTrackIndex="0" totalExplodedTrackCount="2" premiereTrackType="Stereo">
														<enabled>TRUE</enabled>
														<locked>FALSE</locked>
														<outputchannelindex>1</outputchannelindex>
													</track>
													<track TL.SQTrackAudioKeyframeStyle="0" TL.SQTrackShy="0" TL.SQTrackExpandedHeight="25" TL.SQTrackExpanded="0" MZ.TrackTargeted="0" PannerCurrentValue="0.5" PannerIsInverted="true" PannerStartKeyframe="-91445760000000000,0.5,0,0,0,0,0,0" PannerName="Balance" currentExplodedTrackIndex="1" totalExplodedTrackCount="2" premiereTrackType="Stereo">
														<enabled>TRUE</enabled>
														<locked>FALSE</locked>
														<outputchannelindex>2</outputchannelindex>
													</track>
													<track TL.SQTrackAudioKeyframeStyle="0" TL.SQTrackShy="0" TL.SQTrackExpandedHeight="25" TL.SQTrackExpanded="0" MZ.TrackTargeted="0" PannerCurrentValue="0.5" PannerIsInverted="true" PannerStartKeyframe="-91445760000000000,0.5,0,0,0,0,0,0" PannerName="Balance" currentExplodedTrackIndex="0" totalExplodedTrackCount="2" premiereTrackType="Stereo">
														<enabled>TRUE</enabled>
														<locked>FALSE</locked>
														<outputchannelindex>1</outputchannelindex>
													</track>
													<track TL.SQTrackAudioKeyframeStyle="0" TL.SQTrackShy="0" TL.SQTrackExpandedHeight="25" TL.SQTrackExpanded="0" MZ.TrackTargeted="0" PannerCurrentValue="0.5" PannerIsInverted="true" PannerStartKeyframe="-91445760000000000,0.5,0,0,0,0,0,0" PannerName="Balance" currentExplodedTrackIndex="1" totalExplodedTrackCount="2" premiereTrackType="Stereo">
														<enabled>TRUE</enabled>
														<locked>FALSE</locked>
														<outputchannelindex>2</outputchannelindex>
													</track>
													<track TL.SQTrackAudioKeyframeStyle="0" TL.SQTrackShy="0" TL.SQTrackExpandedHeight="25" TL.SQTrackExpanded="0" MZ.TrackTargeted="0" PannerCurrentValue="0.5" PannerIsInverted="true" PannerStartKeyframe="-91445760000000000,0.5,0,0,0,0,0,0" PannerName="Balance" currentExplodedTrackIndex="0" totalExplodedTrackCount="2" premiereTrackType="Stereo">
														<enabled>TRUE</enabled>
														<locked>FALSE</locked>
														<outputchannelindex>1</outputchannelindex>
													</track>
													<track TL.SQTrackAudioKeyframeStyle="0" TL.SQTrackShy="0" TL.SQTrackExpandedHeight="25" TL.SQTrackExpanded="0" MZ.TrackTargeted="0" PannerCurrentValue="0.5" PannerIsInverted="true" PannerStartKeyframe="-91445760000000000,0.5,0,0,0,0,0,0" PannerName="Balance" currentExplodedTrackIndex="1" totalExplodedTrackCount="2" premiereTrackType="Stereo">
														<enabled>TRUE</enabled>
														<locked>FALSE</locked>
														<outputchannelindex>2</outputchannelindex>
													</track>
													<track TL.SQTrackAudioKeyframeStyle="0" TL.SQTrackShy="0" TL.SQTrackExpandedHeight="25" TL.SQTrackExpanded="0" MZ.TrackTargeted="0" PannerCurrentValue="0.5" PannerIsInverted="true" PannerStartKeyframe="-91445760000000000,0.5,0,0,0,0,0,0" PannerName="Balance" currentExplodedTrackIndex="0" totalExplodedTrackCount="2" premiereTrackType="Stereo">
														<enabled>TRUE</enabled>
														<locked>FALSE</locked>
														<outputchannelindex>1</outputchannelindex>
													</track>
													<track TL.SQTrackAudioKeyframeStyle="0" TL.SQTrackShy="0" TL.SQTrackExpandedHeight="25" TL.SQTrackExpanded="0" MZ.TrackTargeted="0" PannerCurrentValue="0.5" PannerIsInverted="true" PannerStartKeyframe="-91445760000000000,0.5,0,0,0,0,0,0" PannerName="Balance" currentExplodedTrackIndex="1" totalExplodedTrackCount="2" premiereTrackType="Stereo">
														<enabled>TRUE</enabled>
														<locked>FALSE</locked>
														<outputchannelindex>2</outputchannelindex>
													</track>
													<track TL.SQTrackAudioKeyframeStyle="0" TL.SQTrackShy="0" TL.SQTrackExpandedHeight="25" TL.SQTrackExpanded="0" MZ.TrackTargeted="0" PannerCurrentValue="0.5" PannerIsInverted="true" PannerStartKeyframe="-91445760000000000,0.5,0,0,0,0,0,0" PannerName="Balance" currentExplodedTrackIndex="0" totalExplodedTrackCount="2" premiereTrackType="Stereo">
														<enabled>TRUE</enabled>
														<locked>FALSE</locked>
														<outputchannelindex>1</outputchannelindex>
													</track>
													<track TL.SQTrackAudioKeyframeStyle="0" TL.SQTrackShy="0" TL.SQTrackExpandedHeight="25" TL.SQTrackExpanded="0" MZ.TrackTargeted="0" PannerCurrentValue="0.5" PannerIsInverted="true" PannerStartKeyframe="-91445760000000000,0.5,0,0,0,0,0,0" PannerName="Balance" currentExplodedTrackIndex="1" totalExplodedTrackCount="2" premiereTrackType="Stereo">
														<enabled>TRUE</enabled>
														<locked>FALSE</locked>
														<outputchannelindex>2</outputchannelindex>
													</track>
													<track TL.SQTrackAudioKeyframeStyle="0" TL.SQTrackShy="0" TL.SQTrackExpandedHeight="25" TL.SQTrackExpanded="0" MZ.TrackTargeted="0" PannerCurrentValue="0.5" PannerIsInverted="true" PannerStartKeyframe="-91445760000000000,0.5,0,0,0,0,0,0" PannerName="Balance" currentExplodedTrackIndex="0" totalExplodedTrackCount="2" premiereTrackType="Stereo">
														<enabled>TRUE</enabled>
														<locked>FALSE</locked>
														<outputchannelindex>1</outputchannelindex>
													</track>
													<track TL.SQTrackAudioKeyframeStyle="0" TL.SQTrackShy="0" TL.SQTrackExpandedHeight="25" TL.SQTrackExpanded="0" MZ.TrackTargeted="0" PannerCurrentValue="0.5" PannerIsInverted="true" PannerStartKeyframe="-91445760000000000,0.5,0,0,0,0,0,0" PannerName="Balance" currentExplodedTrackIndex="1" totalExplodedTrackCount="2" premiereTrackType="Stereo">
														<enabled>TRUE</enabled>
														<locked>FALSE</locked>
														<outputchannelindex>2</outputchannelindex>
													</track>
													<track TL.SQTrackAudioKeyframeStyle="0" TL.SQTrackShy="0" TL.SQTrackExpandedHeight="25" TL.SQTrackExpanded="0" MZ.TrackTargeted="0" PannerCurrentValue="0.5" PannerIsInverted="true" PannerStartKeyframe="-91445760000000000,0.5,0,0,0,0,0,0" PannerName="Balance" currentExplodedTrackIndex="0" totalExplodedTrackCount="2" premiereTrackType="Stereo">
														<enabled>TRUE</enabled>
														<locked>FALSE</locked>
														<outputchannelindex>1</outputchannelindex>
													</track>
													<track TL.SQTrackAudioKeyframeStyle="0" TL.SQTrackShy="0" TL.SQTrackExpandedHeight="25" TL.SQTrackExpanded="0" MZ.TrackTargeted="0" PannerCurrentValue="0.5" PannerIsInverted="true" PannerStartKeyframe="-91445760000000000,0.5,0,0,0,0,0,0" PannerName="Balance" currentExplodedTrackIndex="1" totalExplodedTrackCount="2" premiereTrackType="Stereo">
														<enabled>TRUE</enabled>
														<locked>FALSE</locked>
														<outputchannelindex>2</outputchannelindex>
													</track>
													<track TL.SQTrackAudioKeyframeStyle="0" TL.SQTrackShy="0" TL.SQTrackExpandedHeight="25" TL.SQTrackExpanded="0" MZ.TrackTargeted="0" PannerCurrentValue="0.5" PannerIsInverted="true" PannerStartKeyframe="-91445760000000000,0.5,0,0,0,0,0,0" PannerName="Balance" currentExplodedTrackIndex="0" totalExplodedTrackCount="2" premiereTrackType="Stereo">
														<enabled>TRUE</enabled>
														<locked>FALSE</locked>
														<outputchannelindex>1</outputchannelindex>
													</track>
													<track TL.SQTrackAudioKeyframeStyle="0" TL.SQTrackShy="0" TL.SQTrackExpandedHeight="25" TL.SQTrackExpanded="0" MZ.TrackTargeted="0" PannerCurrentValue="0.5" PannerIsInverted="true" PannerStartKeyframe="-91445760000000000,0.5,0,0,0,0,0,0" PannerName="Balance" currentExplodedTrackIndex="1" totalExplodedTrackCount="2" premiereTrackType="Stereo">
														<enabled>TRUE</enabled>
														<locked>FALSE</locked>
														<outputchannelindex>2</outputchannelindex>
													</track>
												</audio>
											</media>
											<timecode>
												<rate>
													<timebase>30</timebase>
													<ntsc>TRUE</ntsc>
												</rate>
												<string>00;00;00;00</string>
												<frame>0</frame>
												<displayformat>DF</displayformat>
											</timecode>
											<logginginfo>
												<description></description>
												<scene></scene>
												<shottake></shottake>
												<lognote></lognote>
												<good></good>
												<originalvideofilename></originalvideofilename>
												<originalaudiofilename></originalaudiofilename>
											</logginginfo>
										</sequence>
										<link>
											<linkclipref>clipitem-383</linkclipref>
											<mediatype>video</mediatype>
											<trackindex>1</trackindex>
											<clipindex>2</clipindex>
										</link>
										<link>
											<linkclipref>clipitem-405</linkclipref>
											<mediatype>audio</mediatype>
											<trackindex>1</trackindex>
											<clipindex>3</clipindex>
											<groupindex>1</groupindex>
										</link>
										<link>
											<linkclipref>clipitem-407</linkclipref>
											<mediatype>audio</mediatype>
											<trackindex>2</trackindex>
											<clipindex>3</clipindex>
											<groupindex>1</groupindex>
										</link>
										<labels>
											<label2>Forest</label2>
										</labels>
									</clipitem>
									<enabled>TRUE</enabled>
									<locked>FALSE</locked>
								</track>
								<track TL.SQTrackShy="0" TL.SQTrackExpandedHeight="25" TL.SQTrackExpanded="0" MZ.TrackTargeted="0">
									<clipitem id="clipitem-398">
										<masterclipid>masterclip-16</masterclipid>
										<name>ATM BUG_1080_Top Right.png</name>
										<enabled>TRUE</enabled>
										<duration>1294705</duration>
										<rate>
											<timebase>30</timebase>
											<ntsc>TRUE</ntsc>
										</rate>
										<start>82</start>
										<end>5100</end>
										<in>107892</in>
										<out>112910</out>
										<pproTicksIn>914456685542400</pproTicksIn>
										<pproTicksOut>956987583552000</pproTicksOut>
										<alphatype>straight</alphatype>
										<file id="file-14"/>
										<logginginfo>
											<description></description>
											<scene></scene>
											<shottake></shottake>
											<lognote></lognote>
											<good></good>
											<originalvideofilename></originalvideofilename>
											<originalaudiofilename></originalaudiofilename>
										</logginginfo>
										<colorinfo>
											<lut></lut>
											<lut1></lut1>
											<asc_sop></asc_sop>
											<asc_sat></asc_sat>
											<lut2></lut2>
										</colorinfo>
										<labels>
										</labels>
									</clipitem>
									<enabled>TRUE</enabled>
									<locked>FALSE</locked>
								</track>
								<track TL.SQTrackShy="0" TL.SQTrackExpandedHeight="25" TL.SQTrackExpanded="0" MZ.TrackTargeted="0">
									<clipitem id="clipitem-399">
										<masterclipid>masterclip-158</masterclipid>
										<name>Three Flavored Cake</name>
										<enabled>TRUE</enabled>
										<duration>6293</duration>
										<rate>
											<timebase>30</timebase>
											<ntsc>TRUE</ntsc>
										</rate>
										<start>115</start>
										<end>2722</end>
										<in>30</in>
										<out>2637</out>
										<pproTicksIn>254270016000</pproTicksIn>
										<pproTicksOut>22350334406400</pproTicksOut>
										<alphatype>straight</alphatype>
										<pixelaspectratio>square</pixelaspectratio>
										<anamorphic>FALSE</anamorphic>
										<file id="file-136">
											<name>EYECANDY_L3RD_JL_V03/EYECANDY_L3rd_JL_V04.aep</name>
											<pathurl>file://localhost/Volumes/ATM%201/EYE%20CANDY/Project%20Template/5_Assets/Eye%20Candy%20Mograph/EYECANDY_L3rd_JL_V04%20folder/EYECANDY_L3rd_JL_V04.aep</pathurl>
											<rate>
												<timebase>30</timebase>
												<ntsc>FALSE</ntsc>
											</rate>
											<duration>6300</duration>
											<timecode>
												<rate>
													<timebase>30</timebase>
													<ntsc>FALSE</ntsc>
												</rate>
												<string>00:00:00:00</string>
												<frame>0</frame>
												<displayformat>NDF</displayformat>
											</timecode>
											<media>
												<video>
													<samplecharacteristics>
														<rate>
															<timebase>30</timebase>
															<ntsc>FALSE</ntsc>
														</rate>
														<width>1920</width>
														<height>1080</height>
														<anamorphic>FALSE</anamorphic>
														<pixelaspectratio>square</pixelaspectratio>
														<fielddominance>lower</fielddominance>
													</samplecharacteristics>
												</video>
											</media>
										</file>
										<logginginfo>
											<description></description>
											<scene></scene>
											<shottake></shottake>
											<lognote></lognote>
											<good></good>
											<originalvideofilename></originalvideofilename>
											<originalaudiofilename></originalaudiofilename>
										</logginginfo>
										<colorinfo>
											<lut></lut>
											<lut1></lut1>
											<asc_sop></asc_sop>
											<asc_sat></asc_sat>
											<lut2></lut2>
										</colorinfo>
									</clipitem>
									<clipitem id="clipitem-400">
										<masterclipid>masterclip-159</masterclipid>
										<name>Lemon Blueberry Bliss</name>
										<enabled>TRUE</enabled>
										<duration>6293</duration>
										<rate>
											<timebase>30</timebase>
											<ntsc>TRUE</ntsc>
										</rate>
										<start>2784</start>
										<end>5100</end>
										<in>30</in>
										<out>2346</out>
										<pproTicksIn>254270016000</pproTicksIn>
										<pproTicksOut>19883915251200</pproTicksOut>
										<alphatype>straight</alphatype>
										<pixelaspectratio>square</pixelaspectratio>
										<anamorphic>FALSE</anamorphic>
										<file id="file-137">
											<name>EYECANDY_L3RD_JL_V03/EYECANDY_L3rd_JL_V04.aep</name>
											<pathurl>file://localhost/Volumes/ATM%201/EYE%20CANDY/Project%20Template/5_Assets/Eye%20Candy%20Mograph/EYECANDY_L3rd_JL_V04%20folder/EYECANDY_L3rd_JL_V04.aep</pathurl>
											<rate>
												<timebase>30</timebase>
												<ntsc>FALSE</ntsc>
											</rate>
											<duration>6300</duration>
											<timecode>
												<rate>
													<timebase>30</timebase>
													<ntsc>FALSE</ntsc>
												</rate>
												<string>00:00:00:00</string>
												<frame>0</frame>
												<displayformat>NDF</displayformat>
											</timecode>
											<media>
												<video>
													<samplecharacteristics>
														<rate>
															<timebase>30</timebase>
															<ntsc>FALSE</ntsc>
														</rate>
														<width>1920</width>
														<height>1080</height>
														<anamorphic>FALSE</anamorphic>
														<pixelaspectratio>square</pixelaspectratio>
														<fielddominance>lower</fielddominance>
													</samplecharacteristics>
												</video>
											</media>
										</file>
										<logginginfo>
											<description></description>
											<scene></scene>
											<shottake></shottake>
											<lognote></lognote>
											<good></good>
											<originalvideofilename></originalvideofilename>
											<originalaudiofilename></originalaudiofilename>
										</logginginfo>
										<colorinfo>
											<lut></lut>
											<lut1></lut1>
											<asc_sop></asc_sop>
											<asc_sat></asc_sat>
											<lut2></lut2>
										</colorinfo>
									</clipitem>
									<enabled>TRUE</enabled>
									<locked>FALSE</locked>
								</track>
								<track TL.SQTrackShy="0" TL.SQTrackExpandedHeight="25" TL.SQTrackExpanded="0" MZ.TrackTargeted="0">
									<clipitem id="clipitem-401">
										<masterclipid>masterclip-19</masterclipid>
										<name>Intro</name>
										<enabled>TRUE</enabled>
										<duration>160</duration>
										<rate>
											<timebase>30</timebase>
											<ntsc>TRUE</ntsc>
										</rate>
										<start>0</start>
										<end>115</end>
										<in>0</in>
										<out>115</out>
										<pproTicksIn>0</pproTicksIn>
										<pproTicksOut>974701728000</pproTicksOut>
										<sequence id="sequence-4"/>
											<marker>
												<comment></comment>
												<name></name>
												<in>82</in>
												<out>-1</out>
											</marker>
										<link>
											<linkclipref>clipitem-401</linkclipref>
											<mediatype>video</mediatype>
											<trackindex>4</trackindex>
											<clipindex>1</clipindex>
										</link>
										<link>
											<linkclipref>clipitem-408</linkclipref>
											<mediatype>audio</mediatype>
											<trackindex>3</trackindex>
											<clipindex>1</clipindex>
											<groupindex>1</groupindex>
										</link>
										<link>
											<linkclipref>clipitem-411</linkclipref>
											<mediatype>audio</mediatype>
											<trackindex>4</trackindex>
											<clipindex>1</clipindex>
											<groupindex>1</groupindex>
										</link>
										<labels>
											<label2>Forest</label2>
										</labels>
									</clipitem>
									<clipitem id="clipitem-402">
										<masterclipid>masterclip-42</masterclipid>
										<name>Transition 1</name>
										<enabled>TRUE</enabled>
										<duration>160</duration>
										<rate>
											<timebase>30</timebase>
											<ntsc>TRUE</ntsc>
										</rate>
										<start>2666</start>
										<end>2784</end>
										<in>0</in>
										<out>118</out>
										<pproTicksIn>0</pproTicksIn>
										<pproTicksOut>1000128729600</pproTicksOut>
										<sequence id="sequence-11"/>
											<marker>
												<comment></comment>
												<name></name>
												<in>56</in>
												<out>-1</out>
											</marker>
										<link>
											<linkclipref>clipitem-402</linkclipref>
											<mediatype>video</mediatype>
											<trackindex>4</trackindex>
											<clipindex>2</clipindex>
										</link>
										<link>
											<linkclipref>clipitem-409</linkclipref>
											<mediatype>audio</mediatype>
											<trackindex>3</trackindex>
											<clipindex>2</clipindex>
											<groupindex>1</groupindex>
										</link>
										<link>
											<linkclipref>clipitem-412</linkclipref>
											<mediatype>audio</mediatype>
											<trackindex>4</trackindex>
											<clipindex>2</clipindex>
											<groupindex>1</groupindex>
										</link>
										<labels>
											<label2>Forest</label2>
										</labels>
									</clipitem>
									<clipitem id="clipitem-403">
										<masterclipid>masterclip-23</masterclipid>
										<name>Outro</name>
										<enabled>TRUE</enabled>
										<duration>160</duration>
										<rate>
											<timebase>30</timebase>
											<ntsc>TRUE</ntsc>
										</rate>
										<start>5058</start>
										<end>5195</end>
										<in>0</in>
										<out>137</out>
										<pproTicksIn>0</pproTicksIn>
										<pproTicksOut>1161166406400</pproTicksOut>
										<sequence id="sequence-6"/>
											<marker>
												<comment></comment>
												<name></name>
												<in>42</in>
												<out>-1</out>
											</marker>
										<link>
											<linkclipref>clipitem-403</linkclipref>
											<mediatype>video</mediatype>
											<trackindex>4</trackindex>
											<clipindex>3</clipindex>
										</link>
										<link>
											<linkclipref>clipitem-410</linkclipref>
											<mediatype>audio</mediatype>
											<trackindex>3</trackindex>
											<clipindex>3</clipindex>
											<groupindex>1</groupindex>
										</link>
										<link>
											<linkclipref>clipitem-413</linkclipref>
											<mediatype>audio</mediatype>
											<trackindex>4</trackindex>
											<clipindex>3</clipindex>
											<groupindex>1</groupindex>
										</link>
										<labels>
											<label2>Forest</label2>
										</labels>
									</clipitem>
									<enabled>TRUE</enabled>
									<locked>FALSE</locked>
								</track>
							</video>
							<audio>
								<numOutputChannels>2</numOutputChannels>
								<format>
									<samplecharacteristics>
										<depth>16</depth>
										<samplerate>48000</samplerate>
									</samplecharacteristics>
								</format>
								<outputs>
									<group>
										<index>1</index>
										<numchannels>1</numchannels>
										<downmix>0</downmix>
										<channel>
											<index>1</index>
										</channel>
									</group>
									<group>
										<index>2</index>
										<numchannels>1</numchannels>
										<downmix>0</downmix>
										<channel>
											<index>2</index>
										</channel>
									</group>
								</outputs>
								<track TL.SQTrackAudioKeyframeStyle="0" TL.SQTrackShy="0" TL.SQTrackExpandedHeight="25" TL.SQTrackExpanded="0" MZ.TrackTargeted="1" PannerCurrentValue="0.5" PannerIsInverted="true" PannerStartKeyframe="-91445760000000000,0.5,0,0,0,0,0,0" PannerName="Balance" currentExplodedTrackIndex="0" totalExplodedTrackCount="2" premiereTrackType="Stereo">
									<clipitem id="clipitem-404" premiereChannelType="stereo">
										<masterclipid>masterclip-148</masterclipid>
										<name>Three Flavored Cake_1.5</name>
										<enabled>TRUE</enabled>
										<duration>5844</duration>
										<rate>
											<timebase>30</timebase>
											<ntsc>TRUE</ntsc>
										</rate>
										<start>82</start>
										<end>-1</end>
										<in>0</in>
										<out>2640</out>
										<pproTicksIn>0</pproTicksIn>
										<pproTicksOut>22375761408000</pproTicksOut>
										<sequence id="sequence-29"/>
										<sourcetrack>
											<mediatype>audio</mediatype>
											<trackindex>0</trackindex>
										</sourcetrack>
										<link>
											<linkclipref>clipitem-366</linkclipref>
											<mediatype>video</mediatype>
											<trackindex>1</trackindex>
											<clipindex>1</clipindex>
										</link>
										<link>
											<linkclipref>clipitem-404</linkclipref>
											<mediatype>audio</mediatype>
											<trackindex>1</trackindex>
											<clipindex>1</clipindex>
											<groupindex>1</groupindex>
										</link>
										<link>
											<linkclipref>clipitem-406</linkclipref>
											<mediatype>audio</mediatype>
											<trackindex>2</trackindex>
											<clipindex>1</clipindex>
											<groupindex>1</groupindex>
										</link>
										<labels>
											<label2>Forest</label2>
										</labels>
									</clipitem>
									<transitionitem>
										<start>2692</start>
										<end>2722</end>
										<pproTicksIn>22816496102400</pproTicksIn>
										<pproTicksOut>23070766118400</pproTicksOut>
										<alignment>end-black</alignment>
										<cutPointTicks>254270016000</cutPointTicks>
										<rate>
											<timebase>30</timebase>
											<ntsc>TRUE</ntsc>
										</rate>
										<effect>
											<name>Cross Fade ( 0dB)</name>
											<effectid>KGAudioTransCrossFade0dB</effectid>
											<effecttype>transition</effecttype>
											<mediatype>audio</mediatype>
											<wipecode>0</wipecode>
											<wipeaccuracy>100</wipeaccuracy>
											<startratio>0</startratio>
											<endratio>1</endratio>
											<reverse>FALSE</reverse>
										</effect>
									</transitionitem>
									<clipitem id="clipitem-405" premiereChannelType="stereo">
										<masterclipid>masterclip-152</masterclipid>
										<name>Lemon Blueberry Bliss_1.5</name>
										<enabled>TRUE</enabled>
										<duration>5700</duration>
										<rate>
											<timebase>30</timebase>
											<ntsc>TRUE</ntsc>
										</rate>
										<start>2722</start>
										<end>-1</end>
										<in>0</in>
										<out>2378</out>
										<pproTicksIn>0</pproTicksIn>
										<pproTicksOut>20155136601600</pproTicksOut>
										<sequence id="sequence-30"/>
										<sourcetrack>
											<mediatype>audio</mediatype>
											<trackindex>0</trackindex>
										</sourcetrack>
										<link>
											<linkclipref>clipitem-383</linkclipref>
											<mediatype>video</mediatype>
											<trackindex>1</trackindex>
											<clipindex>2</clipindex>
										</link>
										<link>
											<linkclipref>clipitem-405</linkclipref>
											<mediatype>audio</mediatype>
											<trackindex>1</trackindex>
											<clipindex>3</clipindex>
											<groupindex>1</groupindex>
										</link>
										<link>
											<linkclipref>clipitem-407</linkclipref>
											<mediatype>audio</mediatype>
											<trackindex>2</trackindex>
											<clipindex>3</clipindex>
											<groupindex>1</groupindex>
										</link>
										<labels>
											<label2>Forest</label2>
										</labels>
									</clipitem>
									<transitionitem>
										<start>5070</start>
										<end>5100</end>
										<pproTicksIn>42971632704000</pproTicksIn>
										<pproTicksOut>43225902720000</pproTicksOut>
										<alignment>end-black</alignment>
										<cutPointTicks>254270016000</cutPointTicks>
										<rate>
											<timebase>30</timebase>
											<ntsc>TRUE</ntsc>
										</rate>
										<effect>
											<name>Cross Fade ( 0dB)</name>
											<effectid>KGAudioTransCrossFade0dB</effectid>
											<effecttype>transition</effecttype>
											<mediatype>audio</mediatype>
											<wipecode>0</wipecode>
											<wipeaccuracy>100</wipeaccuracy>
											<startratio>0</startratio>
											<endratio>1</endratio>
											<reverse>FALSE</reverse>
										</effect>
									</transitionitem>
									<enabled>TRUE</enabled>
									<locked>FALSE</locked>
									<outputchannelindex>1</outputchannelindex>
								</track>
								<track TL.SQTrackAudioKeyframeStyle="0" TL.SQTrackShy="0" TL.SQTrackExpandedHeight="25" TL.SQTrackExpanded="0" MZ.TrackTargeted="1" PannerCurrentValue="0.5" PannerIsInverted="true" PannerStartKeyframe="-91445760000000000,0.5,0,0,0,0,0,0" PannerName="Balance" currentExplodedTrackIndex="1" totalExplodedTrackCount="2" premiereTrackType="Stereo">
									<clipitem id="clipitem-406" premiereChannelType="stereo">
										<masterclipid>masterclip-148</masterclipid>
										<name>Three Flavored Cake_1.5</name>
										<enabled>TRUE</enabled>
										<duration>5844</duration>
										<rate>
											<timebase>30</timebase>
											<ntsc>TRUE</ntsc>
										</rate>
										<start>82</start>
										<end>-1</end>
										<in>0</in>
										<out>2640</out>
										<pproTicksIn>0</pproTicksIn>
										<pproTicksOut>22375761408000</pproTicksOut>
										<sequence id="sequence-29"/>
										<sourcetrack>
											<mediatype>audio</mediatype>
											<trackindex>1</trackindex>
										</sourcetrack>
										<link>
											<linkclipref>clipitem-366</linkclipref>
											<mediatype>video</mediatype>
											<trackindex>1</trackindex>
											<clipindex>1</clipindex>
										</link>
										<link>
											<linkclipref>clipitem-404</linkclipref>
											<mediatype>audio</mediatype>
											<trackindex>1</trackindex>
											<clipindex>1</clipindex>
											<groupindex>1</groupindex>
										</link>
										<link>
											<linkclipref>clipitem-406</linkclipref>
											<mediatype>audio</mediatype>
											<trackindex>2</trackindex>
											<clipindex>1</clipindex>
											<groupindex>1</groupindex>
										</link>
										<labels>
											<label2>Forest</label2>
										</labels>
									</clipitem>
									<transitionitem>
										<start>2692</start>
										<end>2722</end>
										<pproTicksIn>22816496102400</pproTicksIn>
										<pproTicksOut>23070766118400</pproTicksOut>
										<alignment>end-black</alignment>
										<cutPointTicks>254270016000</cutPointTicks>
										<rate>
											<timebase>30</timebase>
											<ntsc>TRUE</ntsc>
										</rate>
										<effect>
											<name>Cross Fade ( 0dB)</name>
											<effectid>KGAudioTransCrossFade0dB</effectid>
											<effecttype>transition</effecttype>
											<mediatype>audio</mediatype>
											<wipecode>0</wipecode>
											<wipeaccuracy>100</wipeaccuracy>
											<startratio>0</startratio>
											<endratio>1</endratio>
											<reverse>FALSE</reverse>
										</effect>
									</transitionitem>
									<clipitem id="clipitem-407" premiereChannelType="stereo">
										<masterclipid>masterclip-152</masterclipid>
										<name>Lemon Blueberry Bliss_1.5</name>
										<enabled>TRUE</enabled>
										<duration>5700</duration>
										<rate>
											<timebase>30</timebase>
											<ntsc>TRUE</ntsc>
										</rate>
										<start>2722</start>
										<end>-1</end>
										<in>0</in>
										<out>2378</out>
										<pproTicksIn>0</pproTicksIn>
										<pproTicksOut>20155136601600</pproTicksOut>
										<sequence id="sequence-30"/>
										<sourcetrack>
											<mediatype>audio</mediatype>
											<trackindex>1</trackindex>
										</sourcetrack>
										<link>
											<linkclipref>clipitem-383</linkclipref>
											<mediatype>video</mediatype>
											<trackindex>1</trackindex>
											<clipindex>2</clipindex>
										</link>
										<link>
											<linkclipref>clipitem-405</linkclipref>
											<mediatype>audio</mediatype>
											<trackindex>1</trackindex>
											<clipindex>3</clipindex>
											<groupindex>1</groupindex>
										</link>
										<link>
											<linkclipref>clipitem-407</linkclipref>
											<mediatype>audio</mediatype>
											<trackindex>2</trackindex>
											<clipindex>3</clipindex>
											<groupindex>1</groupindex>
										</link>
										<labels>
											<label2>Forest</label2>
										</labels>
									</clipitem>
									<transitionitem>
										<start>5070</start>
										<end>5100</end>
										<pproTicksIn>42971632704000</pproTicksIn>
										<pproTicksOut>43225902720000</pproTicksOut>
										<alignment>end-black</alignment>
										<cutPointTicks>254270016000</cutPointTicks>
										<rate>
											<timebase>30</timebase>
											<ntsc>TRUE</ntsc>
										</rate>
										<effect>
											<name>Cross Fade ( 0dB)</name>
											<effectid>KGAudioTransCrossFade0dB</effectid>
											<effecttype>transition</effecttype>
											<mediatype>audio</mediatype>
											<wipecode>0</wipecode>
											<wipeaccuracy>100</wipeaccuracy>
											<startratio>0</startratio>
											<endratio>1</endratio>
											<reverse>FALSE</reverse>
										</effect>
									</transitionitem>
									<enabled>TRUE</enabled>
									<locked>FALSE</locked>
									<outputchannelindex>2</outputchannelindex>
								</track>
								<track TL.SQTrackAudioKeyframeStyle="0" TL.SQTrackShy="0" TL.SQTrackExpandedHeight="25" TL.SQTrackExpanded="0" MZ.TrackTargeted="1" PannerCurrentValue="0.5" PannerIsInverted="true" PannerStartKeyframe="-91445760000000000,0.5,0,0,0,0,0,0" PannerName="Balance" currentExplodedTrackIndex="0" totalExplodedTrackCount="2" premiereTrackType="Stereo">
									<clipitem id="clipitem-408" premiereChannelType="stereo">
										<masterclipid>masterclip-19</masterclipid>
										<name>Intro</name>
										<enabled>TRUE</enabled>
										<duration>160</duration>
										<rate>
											<timebase>30</timebase>
											<ntsc>TRUE</ntsc>
										</rate>
										<start>0</start>
										<end>115</end>
										<in>0</in>
										<out>115</out>
										<pproTicksIn>0</pproTicksIn>
										<pproTicksOut>974701728000</pproTicksOut>
										<sequence id="sequence-4"/>
										<sourcetrack>
											<mediatype>audio</mediatype>
											<trackindex>0</trackindex>
										</sourcetrack>
											<marker>
												<comment></comment>
												<name></name>
												<in>82</in>
												<out>-1</out>
											</marker>
										<link>
											<linkclipref>clipitem-401</linkclipref>
											<mediatype>video</mediatype>
											<trackindex>4</trackindex>
											<clipindex>1</clipindex>
										</link>
										<link>
											<linkclipref>clipitem-408</linkclipref>
											<mediatype>audio</mediatype>
											<trackindex>3</trackindex>
											<clipindex>1</clipindex>
											<groupindex>1</groupindex>
										</link>
										<link>
											<linkclipref>clipitem-411</linkclipref>
											<mediatype>audio</mediatype>
											<trackindex>4</trackindex>
											<clipindex>1</clipindex>
											<groupindex>1</groupindex>
										</link>
										<labels>
											<label2>Forest</label2>
										</labels>
									</clipitem>
									<clipitem id="clipitem-409" premiereChannelType="stereo">
										<masterclipid>masterclip-42</masterclipid>
										<name>Transition 1</name>
										<enabled>TRUE</enabled>
										<duration>160</duration>
										<rate>
											<timebase>30</timebase>
											<ntsc>TRUE</ntsc>
										</rate>
										<start>2666</start>
										<end>2784</end>
										<in>0</in>
										<out>118</out>
										<pproTicksIn>0</pproTicksIn>
										<pproTicksOut>1000128729600</pproTicksOut>
										<sequence id="sequence-11"/>
										<sourcetrack>
											<mediatype>audio</mediatype>
											<trackindex>0</trackindex>
										</sourcetrack>
											<marker>
												<comment></comment>
												<name></name>
												<in>56</in>
												<out>-1</out>
											</marker>
										<link>
											<linkclipref>clipitem-402</linkclipref>
											<mediatype>video</mediatype>
											<trackindex>4</trackindex>
											<clipindex>2</clipindex>
										</link>
										<link>
											<linkclipref>clipitem-409</linkclipref>
											<mediatype>audio</mediatype>
											<trackindex>3</trackindex>
											<clipindex>2</clipindex>
											<groupindex>1</groupindex>
										</link>
										<link>
											<linkclipref>clipitem-412</linkclipref>
											<mediatype>audio</mediatype>
											<trackindex>4</trackindex>
											<clipindex>2</clipindex>
											<groupindex>1</groupindex>
										</link>
										<labels>
											<label2>Forest</label2>
										</labels>
									</clipitem>
									<clipitem id="clipitem-410" premiereChannelType="stereo">
										<masterclipid>masterclip-23</masterclipid>
										<name>Outro</name>
										<enabled>TRUE</enabled>
										<duration>160</duration>
										<rate>
											<timebase>30</timebase>
											<ntsc>TRUE</ntsc>
										</rate>
										<start>5058</start>
										<end>5195</end>
										<in>0</in>
										<out>137</out>
										<pproTicksIn>0</pproTicksIn>
										<pproTicksOut>1161166406400</pproTicksOut>
										<sequence id="sequence-6"/>
										<sourcetrack>
											<mediatype>audio</mediatype>
											<trackindex>0</trackindex>
										</sourcetrack>
											<marker>
												<comment></comment>
												<name></name>
												<in>42</in>
												<out>-1</out>
											</marker>
										<link>
											<linkclipref>clipitem-403</linkclipref>
											<mediatype>video</mediatype>
											<trackindex>4</trackindex>
											<clipindex>3</clipindex>
										</link>
										<link>
											<linkclipref>clipitem-410</linkclipref>
											<mediatype>audio</mediatype>
											<trackindex>3</trackindex>
											<clipindex>3</clipindex>
											<groupindex>1</groupindex>
										</link>
										<link>
											<linkclipref>clipitem-413</linkclipref>
											<mediatype>audio</mediatype>
											<trackindex>4</trackindex>
											<clipindex>3</clipindex>
											<groupindex>1</groupindex>
										</link>
										<labels>
											<label2>Forest</label2>
										</labels>
									</clipitem>
									<enabled>TRUE</enabled>
									<locked>FALSE</locked>
									<outputchannelindex>1</outputchannelindex>
								</track>
								<track TL.SQTrackAudioKeyframeStyle="0" TL.SQTrackShy="0" TL.SQTrackExpandedHeight="25" TL.SQTrackExpanded="0" MZ.TrackTargeted="1" PannerCurrentValue="0.5" PannerIsInverted="true" PannerStartKeyframe="-91445760000000000,0.5,0,0,0,0,0,0" PannerName="Balance" currentExplodedTrackIndex="1" totalExplodedTrackCount="2" premiereTrackType="Stereo">
									<clipitem id="clipitem-411" premiereChannelType="stereo">
										<masterclipid>masterclip-19</masterclipid>
										<name>Intro</name>
										<enabled>TRUE</enabled>
										<duration>160</duration>
										<rate>
											<timebase>30</timebase>
											<ntsc>TRUE</ntsc>
										</rate>
										<start>0</start>
										<end>115</end>
										<in>0</in>
										<out>115</out>
										<pproTicksIn>0</pproTicksIn>
										<pproTicksOut>974701728000</pproTicksOut>
										<sequence id="sequence-4"/>
										<sourcetrack>
											<mediatype>audio</mediatype>
											<trackindex>1</trackindex>
										</sourcetrack>
											<marker>
												<comment></comment>
												<name></name>
												<in>82</in>
												<out>-1</out>
											</marker>
										<link>
											<linkclipref>clipitem-401</linkclipref>
											<mediatype>video</mediatype>
											<trackindex>4</trackindex>
											<clipindex>1</clipindex>
										</link>
										<link>
											<linkclipref>clipitem-408</linkclipref>
											<mediatype>audio</mediatype>
											<trackindex>3</trackindex>
											<clipindex>1</clipindex>
											<groupindex>1</groupindex>
										</link>
										<link>
											<linkclipref>clipitem-411</linkclipref>
											<mediatype>audio</mediatype>
											<trackindex>4</trackindex>
											<clipindex>1</clipindex>
											<groupindex>1</groupindex>
										</link>
										<labels>
											<label2>Forest</label2>
										</labels>
									</clipitem>
									<clipitem id="clipitem-412" premiereChannelType="stereo">
										<masterclipid>masterclip-42</masterclipid>
										<name>Transition 1</name>
										<enabled>TRUE</enabled>
										<duration>160</duration>
										<rate>
											<timebase>30</timebase>
											<ntsc>TRUE</ntsc>
										</rate>
										<start>2666</start>
										<end>2784</end>
										<in>0</in>
										<out>118</out>
										<pproTicksIn>0</pproTicksIn>
										<pproTicksOut>1000128729600</pproTicksOut>
										<sequence id="sequence-11"/>
										<sourcetrack>
											<mediatype>audio</mediatype>
											<trackindex>1</trackindex>
										</sourcetrack>
											<marker>
												<comment></comment>
												<name></name>
												<in>56</in>
												<out>-1</out>
											</marker>
										<link>
											<linkclipref>clipitem-402</linkclipref>
											<mediatype>video</mediatype>
											<trackindex>4</trackindex>
											<clipindex>2</clipindex>
										</link>
										<link>
											<linkclipref>clipitem-409</linkclipref>
											<mediatype>audio</mediatype>
											<trackindex>3</trackindex>
											<clipindex>2</clipindex>
											<groupindex>1</groupindex>
										</link>
										<link>
											<linkclipref>clipitem-412</linkclipref>
											<mediatype>audio</mediatype>
											<trackindex>4</trackindex>
											<clipindex>2</clipindex>
											<groupindex>1</groupindex>
										</link>
										<labels>
											<label2>Forest</label2>
										</labels>
									</clipitem>
									<clipitem id="clipitem-413" premiereChannelType="stereo">
										<masterclipid>masterclip-23</masterclipid>
										<name>Outro</name>
										<enabled>TRUE</enabled>
										<duration>160</duration>
										<rate>
											<timebase>30</timebase>
											<ntsc>TRUE</ntsc>
										</rate>
										<start>5058</start>
										<end>5195</end>
										<in>0</in>
										<out>137</out>
										<pproTicksIn>0</pproTicksIn>
										<pproTicksOut>1161166406400</pproTicksOut>
										<sequence id="sequence-6"/>
										<sourcetrack>
											<mediatype>audio</mediatype>
											<trackindex>1</trackindex>
										</sourcetrack>
											<marker>
												<comment></comment>
												<name></name>
												<in>42</in>
												<out>-1</out>
											</marker>
										<link>
											<linkclipref>clipitem-403</linkclipref>
											<mediatype>video</mediatype>
											<trackindex>4</trackindex>
											<clipindex>3</clipindex>
										</link>
										<link>
											<linkclipref>clipitem-410</linkclipref>
											<mediatype>audio</mediatype>
											<trackindex>3</trackindex>
											<clipindex>3</clipindex>
											<groupindex>1</groupindex>
										</link>
										<link>
											<linkclipref>clipitem-413</linkclipref>
											<mediatype>audio</mediatype>
											<trackindex>4</trackindex>
											<clipindex>3</clipindex>
											<groupindex>1</groupindex>
										</link>
										<labels>
											<label2>Forest</label2>
										</labels>
									</clipitem>
									<enabled>TRUE</enabled>
									<locked>FALSE</locked>
									<outputchannelindex>2</outputchannelindex>
								</track>
								<track TL.SQTrackAudioKeyframeStyle="0" TL.SQTrackShy="0" TL.SQTrackExpandedHeight="25" TL.SQTrackExpanded="0" MZ.TrackTargeted="1" PannerCurrentValue="0.5" PannerIsInverted="true" PannerStartKeyframe="-91445760000000000,0.5,0,0,0,0,0,0" PannerName="Balance" currentExplodedTrackIndex="0" totalExplodedTrackCount="2" premiereTrackType="Stereo">
									<enabled>TRUE</enabled>
									<locked>FALSE</locked>
									<outputchannelindex>1</outputchannelindex>
								</track>
								<track TL.SQTrackAudioKeyframeStyle="0" TL.SQTrackShy="0" TL.SQTrackExpandedHeight="25" TL.SQTrackExpanded="0" MZ.TrackTargeted="1" PannerCurrentValue="0.5" PannerIsInverted="true" PannerStartKeyframe="-91445760000000000,0.5,0,0,0,0,0,0" PannerName="Balance" currentExplodedTrackIndex="1" totalExplodedTrackCount="2" premiereTrackType="Stereo">
									<enabled>TRUE</enabled>
									<locked>FALSE</locked>
									<outputchannelindex>2</outputchannelindex>
								</track>
							</audio>
						</media>
						<timecode>
							<rate>
								<timebase>30</timebase>
								<ntsc>TRUE</ntsc>
							</rate>
							<string>00;00;00;00</string>
							<frame>0</frame>
							<displayformat>DF</displayformat>
						</timecode>
						<labels>
							<label2>Forest</label2>
						</labels>
						<logginginfo>
							<description></description>
							<scene></scene>
							<shottake></shottake>
							<lognote></lognote>
							<good></good>
							<originalvideofilename></originalvideofilename>
							<originalaudiofilename></originalaudiofilename>
						</logginginfo>
					</sequence>
					<sequence id="sequence-31" TL.SQAudioVisibleBase="0" TL.SQVideoVisibleBase="0" TL.SQVisibleBaseTime="0" TL.SQAVDividerPosition="0.5" TL.SQHideShyTracks="0" TL.SQHeaderWidth="236" TL.SQDataTrackViewControlState="0" Monitor.ProgramZoomOut="44420971795200" Monitor.ProgramZoomIn="0" TL.SQTimePerPixel="0.20077120783742899" AM.TrackVScrollPosition="0" AM.TrackScrollPosition="0" MZ.EditLine="44420971795200" MZ.Sequence.PreviewFrameSizeHeight="1080" MZ.Sequence.PreviewFrameSizeWidth="1920" MZ.Sequence.AudioTimeDisplayFormat="200" MZ.Sequence.PreviewRenderingClassID="1061109567" MZ.Sequence.PreviewRenderingPresetCodec="1634755443" MZ.Sequence.PreviewRenderingPresetPath="EncoderPresets/SequencePreview/35d109db-457b-43c1-9452-9cb7be9f121c/QuickTime.epr" MZ.Sequence.PreviewUseMaxRenderQuality="false" MZ.Sequence.PreviewUseMaxBitDepth="false" MZ.Sequence.EditingModeGUID="35d109db-457b-43c1-9452-9cb7be9f121c" MZ.Sequence.VideoTimeDisplayFormat="102" MZ.WorkOutPoint="15239249625600" MZ.WorkInPoint="0" explodedTracks="true">
						<uuid>525d6222-ee50-4bdf-8776-edc2abc712a2</uuid>
						<duration>5146</duration>
						<rate>
							<timebase>30</timebase>
							<ntsc>TRUE</ntsc>
						</rate>
						<name>ATM_EYECANDY_232</name>
						<media>
							<video>
								<format>
									<samplecharacteristics>
										<rate>
											<timebase>30</timebase>
											<ntsc>TRUE</ntsc>
										</rate>
										<codec>
											<name>Apple ProRes 422</name>
											<appspecificdata>
												<appname>Final Cut Pro</appname>
												<appmanufacturer>Apple Inc.</appmanufacturer>
												<appversion>7.0</appversion>
												<data>
													<qtcodec>
														<codecname>Apple ProRes 422</codecname>
														<codectypename>Apple ProRes 422</codectypename>
														<codectypecode>apcn</codectypecode>
														<codecvendorcode>appl</codecvendorcode>
														<spatialquality>1024</spatialquality>
														<temporalquality>0</temporalquality>
														<keyframerate>0</keyframerate>
														<datarate>0</datarate>
													</qtcodec>
												</data>
											</appspecificdata>
										</codec>
										<width>1920</width>
										<height>1080</height>
										<anamorphic>FALSE</anamorphic>
										<pixelaspectratio>square</pixelaspectratio>
										<fielddominance>none</fielddominance>
										<colordepth>24</colordepth>
									</samplecharacteristics>
								</format>
								<track TL.SQTrackShy="0" TL.SQTrackExpandedHeight="25" TL.SQTrackExpanded="0" MZ.TrackTargeted="1">
									<clipitem id="clipitem-414">
										<masterclipid>masterclip-160</masterclipid>
										<name>Perfect Pistachio Pirouettes_1</name>
										<enabled>TRUE</enabled>
										<duration>1795</duration>
										<rate>
											<timebase>30</timebase>
											<ntsc>TRUE</ntsc>
										</rate>
										<start>82</start>
										<end>1831</end>
										<in>0</in>
										<out>1749</out>
										<pproTicksIn>0</pproTicksIn>
										<pproTicksOut>14823941932800</pproTicksOut>
										<sequence id="sequence-32" TL.SQAudioVisibleBase="0" TL.SQVideoVisibleBase="0" TL.SQVisibleBaseTime="0" TL.SQAVDividerPosition="0.5" TL.SQHideShyTracks="0" TL.SQHeaderWidth="236" TL.SQDataTrackViewControlState="0" Monitor.ProgramZoomOut="14823941932800" Monitor.ProgramZoomIn="0" TL.SQTimePerPixel="0.072184793070247721" AM.TrackVScrollPosition="0" AM.TrackScrollPosition="0" MZ.EditLine="0" MZ.Sequence.PreviewFrameSizeHeight="1080" MZ.Sequence.PreviewFrameSizeWidth="1920" MZ.Sequence.AudioTimeDisplayFormat="200" MZ.Sequence.PreviewRenderingClassID="1061109567" MZ.Sequence.PreviewRenderingPresetCodec="1634755443" MZ.Sequence.PreviewRenderingPresetPath="EncoderPresets/SequencePreview/35d109db-457b-43c1-9452-9cb7be9f121c/QuickTime.epr" MZ.Sequence.PreviewUseMaxRenderQuality="false" MZ.Sequence.PreviewUseMaxBitDepth="false" MZ.Sequence.EditingModeGUID="35d109db-457b-43c1-9452-9cb7be9f121c" MZ.Sequence.VideoTimeDisplayFormat="102" MZ.WorkOutPoint="11560810060800" MZ.WorkInPoint="0">
											<duration>1749</duration>
											<rate>
												<timebase>30</timebase>
												<ntsc>TRUE</ntsc>
											</rate>
											<name>FND_Perfect Pistachio Pirouettes_1</name>
											<media>
												<video>
													<format>
														<samplecharacteristics>
															<rate>
																<timebase>30</timebase>
																<ntsc>TRUE</ntsc>
															</rate>
															<codec>
																<name>Apple ProRes 422</name>
																<appspecificdata>
																	<appname>Final Cut Pro</appname>
																	<appmanufacturer>Apple Inc.</appmanufacturer>
																	<appversion>7.0</appversion>
																	<data>
																		<qtcodec>
																			<codecname>Apple ProRes 422</codecname>
																			<codectypename>Apple ProRes 422</codectypename>
																			<codectypecode>apcn</codectypecode>
																			<codecvendorcode>appl</codecvendorcode>
																			<spatialquality>1024</spatialquality>
																			<temporalquality>0</temporalquality>
																			<keyframerate>0</keyframerate>
																			<datarate>0</datarate>
																		</qtcodec>
																	</data>
																</appspecificdata>
															</codec>
															<width>1920</width>
															<height>1080</height>
															<anamorphic>FALSE</anamorphic>
															<pixelaspectratio>square</pixelaspectratio>
															<fielddominance>none</fielddominance>
															<colordepth>24</colordepth>
														</samplecharacteristics>
													</format>
													<track TL.SQTrackShy="0" TL.SQTrackExpandedHeight="25" TL.SQTrackExpanded="0" MZ.TrackTargeted="1">
														<clipitem id="clipitem-415">
															<masterclipid>masterclip-161</masterclipid>
															<name>23394_Woman placing waffle rolls on sheet_By_Omri_Ohana_Artlist_HD.mp4</name>
															<enabled>TRUE</enabled>
															<duration>252</duration>
															<rate>
																<timebase>30</timebase>
																<ntsc>TRUE</ntsc>
															</rate>
															<start>0</start>
															<end>252</end>
															<in>0</in>
															<out>252</out>
															<pproTicksIn>0</pproTicksIn>
															<pproTicksOut>2135868134400</pproTicksOut>
															<alphatype>none</alphatype>
															<pixelaspectratio>square</pixelaspectratio>
															<anamorphic>FALSE</anamorphic>
															<file id="file-138">
																<name>23394_Woman placing waffle rolls on sheet_By_Omri_Ohana_Artlist_HD.mp4</name>
																<pathurl>file://localhost/Volumes/CONTENT/VOD%20CONTENT%20ARCHIVE/O&amp;O%20Archive%202023/Eye%20Candy/8%3a14%3a23/4_Project%20Files/Adobe%20Premiere%20Pro%20Video%20Previews/8%3a14%3a23.PRV/../../../3_Raw%20Files/Artlist%20-%20Chocolate%20Pistachio%20Treat/23394_Woman%20placing%20waffle%20rolls%20on%20sheet_By_Omri_Ohana_Artlist_HD.mp4</pathurl>
																<rate>
																	<timebase>25</timebase>
																	<ntsc>FALSE</ntsc>
																</rate>
																<duration>211</duration>
																<timecode>
																	<rate>
																		<timebase>25</timebase>
																		<ntsc>FALSE</ntsc>
																	</rate>
																	<string>12:51:25:02</string>
																	<frame>1157127</frame>
																	<displayformat>NDF</displayformat>
																</timecode>
																<media>
																	<video>
																		<samplecharacteristics>
																			<rate>
																				<timebase>25</timebase>
																				<ntsc>FALSE</ntsc>
																			</rate>
																			<width>1920</width>
																			<height>1080</height>
																			<anamorphic>FALSE</anamorphic>
																			<pixelaspectratio>square</pixelaspectratio>
																			<fielddominance>none</fielddominance>
																		</samplecharacteristics>
																	</video>
																</media>
															</file>
															<filter>
																<effect>
																	<name>Basic Motion</name>
																	<effectid>basic</effectid>
																	<effectcategory>motion</effectcategory>
																	<effecttype>motion</effecttype>
																	<mediatype>video</mediatype>
																	<pproBypass>false</pproBypass>
																	<parameter authoringApp="PremierePro">
																		<parameterid>scale</parameterid>
																		<name>Scale</name>
																		<valuemin>0</valuemin>
																		<valuemax>1000</valuemax>
																		<value>120</value>
																	</parameter>
																	<parameter authoringApp="PremierePro">
																		<parameterid>rotation</parameterid>
																		<name>Rotation</name>
																		<valuemin>-8640</valuemin>
																		<valuemax>8640</valuemax>
																		<value>0</value>
																	</parameter>
																	<parameter authoringApp="PremierePro">
																		<parameterid>center</parameterid>
																		<name>Center</name>
																		<value>
																			<horiz>0</horiz>
																			<vert>0</vert>
																		</value>
																	</parameter>
																	<parameter authoringApp="PremierePro">
																		<parameterid>centerOffset</parameterid>
																		<name>Anchor Point</name>
																		<value>
																			<horiz>0</horiz>
																			<vert>0</vert>
																		</value>
																	</parameter>
																	<parameter authoringApp="PremierePro">
																		<parameterid>antiflicker</parameterid>
																		<name>Anti-flicker Filter</name>
																		<valuemin>0.0</valuemin>
																		<valuemax>1.0</valuemax>
																		<value>0</value>
																	</parameter>
																</effect>
															</filter>
															<logginginfo>
																<description></description>
																<scene></scene>
																<shottake></shottake>
																<lognote></lognote>
																<good></good>
																<originalvideofilename></originalvideofilename>
																<originalaudiofilename></originalaudiofilename>
															</logginginfo>
															<colorinfo>
																<lut></lut>
																<lut1></lut1>
																<asc_sop></asc_sop>
																<asc_sat></asc_sat>
																<lut2></lut2>
															</colorinfo>
															<labels>
																<label2>Violet</label2>
															</labels>
														</clipitem>
														<clipitem id="clipitem-416">
															<masterclipid>masterclip-162</masterclipid>
															<name>23427_Girl places cream filled waffle cones on tray_By_Omri_Ohana_Artlist_HD.mp4</name>
															<enabled>TRUE</enabled>
															<duration>352</duration>
															<rate>
																<timebase>30</timebase>
																<ntsc>TRUE</ntsc>
															</rate>
															<start>252</start>
															<end>407</end>
															<in>143</in>
															<out>298</out>
															<pproTicksIn>1212020409600</pproTicksIn>
															<pproTicksOut>2525748825600</pproTicksOut>
															<alphatype>none</alphatype>
															<pixelaspectratio>square</pixelaspectratio>
															<anamorphic>FALSE</anamorphic>
															<file id="file-139">
																<name>23427_Girl places cream filled waffle cones on tray_By_Omri_Ohana_Artlist_HD.mp4</name>
																<pathurl>file://localhost/Volumes/ATM%201/EYE%20CANDY/8%3a14%3a23/3_Raw%20Files/Artlist%20-%20Chocolate%20Pistachio%20Treat/23427_Girl%20places%20cream%20filled%20waffle%20cones%20on%20tray_By_Omri_Ohana_Artlist_HD.mp4</pathurl>
																<rate>
																	<timebase>25</timebase>
																	<ntsc>FALSE</ntsc>
																</rate>
																<duration>294</duration>
																<timecode>
																	<rate>
																		<timebase>25</timebase>
																		<ntsc>FALSE</ntsc>
																	</rate>
																	<string>12:52:34:05</string>
																	<frame>1158855</frame>
																	<displayformat>NDF</displayformat>
																</timecode>
																<media>
																	<video>
																		<samplecharacteristics>
																			<rate>
																				<timebase>25</timebase>
																				<ntsc>FALSE</ntsc>
																			</rate>
																			<width>1920</width>
																			<height>1080</height>
																			<anamorphic>FALSE</anamorphic>
																			<pixelaspectratio>square</pixelaspectratio>
																			<fielddominance>none</fielddominance>
																		</samplecharacteristics>
																	</video>
																</media>
															</file>
															<filter>
																<effect>
																	<name>Basic Motion</name>
																	<effectid>basic</effectid>
																	<effectcategory>motion</effectcategory>
																	<effecttype>motion</effecttype>
																	<mediatype>video</mediatype>
																	<pproBypass>false</pproBypass>
																	<parameter authoringApp="PremierePro">
																		<parameterid>scale</parameterid>
																		<name>Scale</name>
																		<valuemin>0</valuemin>
																		<valuemax>1000</valuemax>
																		<value>120</value>
																	</parameter>
																	<parameter authoringApp="PremierePro">
																		<parameterid>rotation</parameterid>
																		<name>Rotation</name>
																		<valuemin>-8640</valuemin>
																		<valuemax>8640</valuemax>
																		<value>0</value>
																	</parameter>
																	<parameter authoringApp="PremierePro">
																		<parameterid>center</parameterid>
																		<name>Center</name>
																		<value>
																			<horiz>0.0791667</horiz>
																			<vert>0</vert>
																		</value>
																	</parameter>
																	<parameter authoringApp="PremierePro">
																		<parameterid>centerOffset</parameterid>
																		<name>Anchor Point</name>
																		<value>
																			<horiz>0</horiz>
																			<vert>0</vert>
																		</value>
																	</parameter>
																	<parameter authoringApp="PremierePro">
																		<parameterid>antiflicker</parameterid>
																		<name>Anti-flicker Filter</name>
																		<valuemin>0.0</valuemin>
																		<valuemax>1.0</valuemax>
																		<value>0</value>
																	</parameter>
																</effect>
															</filter>
															<logginginfo>
																<description></description>
																<scene></scene>
																<shottake></shottake>
																<lognote></lognote>
																<good></good>
																<originalvideofilename></originalvideofilename>
																<originalaudiofilename></originalaudiofilename>
															</logginginfo>
															<colorinfo>
																<lut></lut>
																<lut1></lut1>
																<asc_sop></asc_sop>
																<asc_sat></asc_sat>
																<lut2></lut2>
															</colorinfo>
															<labels>
																<label2>Violet</label2>
															</labels>
														</clipitem>
														<clipitem id="clipitem-417">
															<masterclipid>masterclip-163</masterclipid>
															<name>23357_Tasty treats filled with cream_By_Omri_Ohana_Artlist_HD.mp4</name>
															<enabled>TRUE</enabled>
															<duration>194</duration>
															<rate>
																<timebase>30</timebase>
																<ntsc>TRUE</ntsc>
															</rate>
															<start>407</start>
															<end>534</end>
															<in>0</in>
															<out>127</out>
															<pproTicksIn>0</pproTicksIn>
															<pproTicksOut>1076409734400</pproTicksOut>
															<alphatype>none</alphatype>
															<pixelaspectratio>square</pixelaspectratio>
															<anamorphic>FALSE</anamorphic>
															<file id="file-140">
																<name>23357_Tasty treats filled with cream_By_Omri_Ohana_Artlist_HD.mp4</name>
																<pathurl>file://localhost/Volumes/ATM%201/EYE%20CANDY/8%3a14%3a23/3_Raw%20Files/Artlist%20-%20Chocolate%20Pistachio%20Treat/23357_Tasty%20treats%20filled%20with%20cream_By_Omri_Ohana_Artlist_HD.mp4</pathurl>
																<rate>
																	<timebase>25</timebase>
																	<ntsc>FALSE</ntsc>
																</rate>
																<duration>162</duration>
																<timecode>
																	<rate>
																		<timebase>25</timebase>
																		<ntsc>FALSE</ntsc>
																	</rate>
																	<string>12:52:57:14</string>
																	<frame>1159439</frame>
																	<displayformat>NDF</displayformat>
																</timecode>
																<media>
																	<video>
																		<samplecharacteristics>
																			<rate>
																				<timebase>25</timebase>
																				<ntsc>FALSE</ntsc>
																			</rate>
																			<width>1920</width>
																			<height>1080</height>
																			<anamorphic>FALSE</anamorphic>
																			<pixelaspectratio>square</pixelaspectratio>
																			<fielddominance>none</fielddominance>
																		</samplecharacteristics>
																	</video>
																</media>
															</file>
															<filter>
																<effect>
																	<name>Basic Motion</name>
																	<effectid>basic</effectid>
																	<effectcategory>motion</effectcategory>
																	<effecttype>motion</effecttype>
																	<mediatype>video</mediatype>
																	<pproBypass>false</pproBypass>
																	<parameter authoringApp="PremierePro">
																		<parameterid>scale</parameterid>
																		<name>Scale</name>
																		<valuemin>0</valuemin>
																		<valuemax>1000</valuemax>
																		<value>120</value>
																	</parameter>
																	<parameter authoringApp="PremierePro">
																		<parameterid>rotation</parameterid>
																		<name>Rotation</name>
																		<valuemin>-8640</valuemin>
																		<valuemax>8640</valuemax>
																		<value>0</value>
																	</parameter>
																	<parameter authoringApp="PremierePro">
																		<parameterid>center</parameterid>
																		<name>Center</name>
																		<value>
																			<horiz>0</horiz>
																			<vert>0</vert>
																		</value>
																	</parameter>
																	<parameter authoringApp="PremierePro">
																		<parameterid>centerOffset</parameterid>
																		<name>Anchor Point</name>
																		<value>
																			<horiz>0</horiz>
																			<vert>0</vert>
																		</value>
																	</parameter>
																	<parameter authoringApp="PremierePro">
																		<parameterid>antiflicker</parameterid>
																		<name>Anti-flicker Filter</name>
																		<valuemin>0.0</valuemin>
																		<valuemax>1.0</valuemax>
																		<value>0</value>
																	</parameter>
																</effect>
															</filter>
															<logginginfo>
																<description></description>
																<scene></scene>
																<shottake></shottake>
																<lognote></lognote>
																<good></good>
																<originalvideofilename></originalvideofilename>
																<originalaudiofilename></originalaudiofilename>
															</logginginfo>
															<colorinfo>
																<lut></lut>
																<lut1></lut1>
																<asc_sop></asc_sop>
																<asc_sat></asc_sat>
																<lut2></lut2>
															</colorinfo>
															<labels>
																<label2>Violet</label2>
															</labels>
														</clipitem>
														<clipitem id="clipitem-418">
															<masterclipid>masterclip-164</masterclipid>
															<name>23384_Dipping cream filled waffle in chocolate _By_Omri_Ohana_Artlist_HD.mp4</name>
															<enabled>TRUE</enabled>
															<duration>278</duration>
															<rate>
																<timebase>30</timebase>
																<ntsc>TRUE</ntsc>
															</rate>
															<start>534</start>
															<end>754</end>
															<in>0</in>
															<out>220</out>
															<pproTicksIn>0</pproTicksIn>
															<pproTicksOut>1864646784000</pproTicksOut>
															<alphatype>none</alphatype>
															<pixelaspectratio>square</pixelaspectratio>
															<anamorphic>FALSE</anamorphic>
															<file id="file-141">
																<name>23384_Dipping cream filled waffle in chocolate _By_Omri_Ohana_Artlist_HD.mp4</name>
																<pathurl>file://localhost/Volumes/ATM%201/EYE%20CANDY/8%3a14%3a23/3_Raw%20Files/Artlist%20-%20Chocolate%20Pistachio%20Treat/23384_Dipping%20cream%20filled%20waffle%20in%20chocolate%20_By_Omri_Ohana_Artlist_HD.mp4</pathurl>
																<rate>
																	<timebase>25</timebase>
																	<ntsc>FALSE</ntsc>
																</rate>
																<duration>232</duration>
																<timecode>
																	<rate>
																		<timebase>25</timebase>
																		<ntsc>FALSE</ntsc>
																	</rate>
																	<string>12:38:00:07</string>
																	<frame>1137007</frame>
																	<displayformat>NDF</displayformat>
																</timecode>
																<media>
																	<video>
																		<samplecharacteristics>
																			<rate>
																				<timebase>25</timebase>
																				<ntsc>FALSE</ntsc>
																			</rate>
																			<width>1920</width>
																			<height>1080</height>
																			<anamorphic>FALSE</anamorphic>
																			<pixelaspectratio>square</pixelaspectratio>
																			<fielddominance>none</fielddominance>
																		</samplecharacteristics>
																	</video>
																</media>
															</file>
															<filter>
																<effect>
																	<name>Basic Motion</name>
																	<effectid>basic</effectid>
																	<effectcategory>motion</effectcategory>
																	<effecttype>motion</effecttype>
																	<mediatype>video</mediatype>
																	<pproBypass>false</pproBypass>
																	<parameter authoringApp="PremierePro">
																		<parameterid>scale</parameterid>
																		<name>Scale</name>
																		<valuemin>0</valuemin>
																		<valuemax>1000</valuemax>
																		<value>120</value>
																	</parameter>
																	<parameter authoringApp="PremierePro">
																		<parameterid>rotation</parameterid>
																		<name>Rotation</name>
																		<valuemin>-8640</valuemin>
																		<valuemax>8640</valuemax>
																		<value>0</value>
																	</parameter>
																	<parameter authoringApp="PremierePro">
																		<parameterid>center</parameterid>
																		<name>Center</name>
																		<value>
																			<horiz>0</horiz>
																			<vert>0</vert>
																		</value>
																	</parameter>
																	<parameter authoringApp="PremierePro">
																		<parameterid>centerOffset</parameterid>
																		<name>Anchor Point</name>
																		<value>
																			<horiz>0</horiz>
																			<vert>0</vert>
																		</value>
																	</parameter>
																	<parameter authoringApp="PremierePro">
																		<parameterid>antiflicker</parameterid>
																		<name>Anti-flicker Filter</name>
																		<valuemin>0.0</valuemin>
																		<valuemax>1.0</valuemax>
																		<value>0</value>
																	</parameter>
																</effect>
															</filter>
															<logginginfo>
																<description></description>
																<scene></scene>
																<shottake></shottake>
																<lognote></lognote>
																<good></good>
																<originalvideofilename></originalvideofilename>
																<originalaudiofilename></originalaudiofilename>
															</logginginfo>
															<colorinfo>
																<lut></lut>
																<lut1></lut1>
																<asc_sop></asc_sop>
																<asc_sat></asc_sat>
																<lut2></lut2>
															</colorinfo>
															<labels>
																<label2>Violet</label2>
															</labels>
														</clipitem>
														<clipitem id="clipitem-419">
															<masterclipid>masterclip-165</masterclipid>
															<name>23422_Woman dipping waffle cone into dark chocolate _By_Omri_Ohana_Artlist_HD.mp4</name>
															<enabled>TRUE</enabled>
															<duration>219</duration>
															<rate>
																<timebase>30</timebase>
																<ntsc>TRUE</ntsc>
															</rate>
															<start>754</start>
															<end>869</end>
															<in>74</in>
															<out>189</out>
															<pproTicksIn>627199372800</pproTicksIn>
															<pproTicksOut>1601901100800</pproTicksOut>
															<alphatype>none</alphatype>
															<pixelaspectratio>square</pixelaspectratio>
															<anamorphic>FALSE</anamorphic>
															<file id="file-142">
																<name>23422_Woman dipping waffle cone into dark chocolate _By_Omri_Ohana_Artlist_HD.mp4</name>
																<pathurl>file://localhost/Volumes/ATM%201/EYE%20CANDY/8%3a14%3a23/3_Raw%20Files/Artlist%20-%20Chocolate%20Pistachio%20Treat/23422_Woman%20dipping%20waffle%20cone%20into%20dark%20chocolate%20_By_Omri_Ohana_Artlist_HD.mp4</pathurl>
																<rate>
																	<timebase>25</timebase>
																	<ntsc>FALSE</ntsc>
																</rate>
																<duration>183</duration>
																<timecode>
																	<rate>
																		<timebase>25</timebase>
																		<ntsc>FALSE</ntsc>
																	</rate>
																	<string>12:57:54:20</string>
																	<frame>1166870</frame>
																	<displayformat>NDF</displayformat>
																</timecode>
																<media>
																	<video>
																		<samplecharacteristics>
																			<rate>
																				<timebase>25</timebase>
																				<ntsc>FALSE</ntsc>
																			</rate>
																			<width>1920</width>
																			<height>1080</height>
																			<anamorphic>FALSE</anamorphic>
																			<pixelaspectratio>square</pixelaspectratio>
																			<fielddominance>none</fielddominance>
																		</samplecharacteristics>
																	</video>
																</media>
															</file>
															<filter>
																<effect>
																	<name>Basic Motion</name>
																	<effectid>basic</effectid>
																	<effectcategory>motion</effectcategory>
																	<effecttype>motion</effecttype>
																	<mediatype>video</mediatype>
																	<pproBypass>false</pproBypass>
																	<parameter authoringApp="PremierePro">
																		<parameterid>scale</parameterid>
																		<name>Scale</name>
																		<valuemin>0</valuemin>
																		<valuemax>1000</valuemax>
																		<value>120</value>
																	</parameter>
																	<parameter authoringApp="PremierePro">
																		<parameterid>rotation</parameterid>
																		<name>Rotation</name>
																		<valuemin>-8640</valuemin>
																		<valuemax>8640</valuemax>
																		<value>0</value>
																	</parameter>
																	<parameter authoringApp="PremierePro">
																		<parameterid>center</parameterid>
																		<name>Center</name>
																		<value>
																			<horiz>0</horiz>
																			<vert>0</vert>
																		</value>
																	</parameter>
																	<parameter authoringApp="PremierePro">
																		<parameterid>centerOffset</parameterid>
																		<name>Anchor Point</name>
																		<value>
																			<horiz>0</horiz>
																			<vert>0</vert>
																		</value>
																	</parameter>
																	<parameter authoringApp="PremierePro">
																		<parameterid>antiflicker</parameterid>
																		<name>Anti-flicker Filter</name>
																		<valuemin>0.0</valuemin>
																		<valuemax>1.0</valuemax>
																		<value>0</value>
																	</parameter>
																</effect>
															</filter>
															<logginginfo>
																<description></description>
																<scene></scene>
																<shottake></shottake>
																<lognote></lognote>
																<good></good>
																<originalvideofilename></originalvideofilename>
																<originalaudiofilename></originalaudiofilename>
															</logginginfo>
															<colorinfo>
																<lut></lut>
																<lut1></lut1>
																<asc_sop></asc_sop>
																<asc_sat></asc_sat>
																<lut2></lut2>
															</colorinfo>
															<labels>
																<label2>Violet</label2>
															</labels>
														</clipitem>
														<clipitem id="clipitem-420">
															<masterclipid>masterclip-166</masterclipid>
															<name>23417_Twisting waffle cone with chocolate _By_Omri_Ohana_Artlist_HD.mp4</name>
															<enabled>TRUE</enabled>
															<duration>137</duration>
															<rate>
																<timebase>30</timebase>
																<ntsc>TRUE</ntsc>
															</rate>
															<start>869</start>
															<end>1006</end>
															<in>0</in>
															<out>137</out>
															<pproTicksIn>0</pproTicksIn>
															<pproTicksOut>1161166406400</pproTicksOut>
															<alphatype>none</alphatype>
															<pixelaspectratio>square</pixelaspectratio>
															<anamorphic>FALSE</anamorphic>
															<file id="file-143">
																<name>23417_Twisting waffle cone with chocolate _By_Omri_Ohana_Artlist_HD.mp4</name>
																<pathurl>file://localhost/Volumes/CONTENT/VOD%20CONTENT%20ARCHIVE/O&amp;O%20Archive%202023/Eye%20Candy/8%3a14%3a23/4_Project%20Files/Adobe%20Premiere%20Pro%20Video%20Previews/8%3a14%3a23.PRV/../../../3_Raw%20Files/Artlist%20-%20Chocolate%20Pistachio%20Treat/23417_Twisting%20waffle%20cone%20with%20chocolate%20_By_Omri_Ohana_Artlist_HD.mp4</pathurl>
																<rate>
																	<timebase>25</timebase>
																	<ntsc>FALSE</ntsc>
																</rate>
																<duration>115</duration>
																<timecode>
																	<rate>
																		<timebase>25</timebase>
																		<ntsc>FALSE</ntsc>
																	</rate>
																	<string>12:38:15:11</string>
																	<frame>1137386</frame>
																	<displayformat>NDF</displayformat>
																</timecode>
																<media>
																	<video>
																		<samplecharacteristics>
																			<rate>
																				<timebase>25</timebase>
																				<ntsc>FALSE</ntsc>
																			</rate>
																			<width>1920</width>
																			<height>1080</height>
																			<anamorphic>FALSE</anamorphic>
																			<pixelaspectratio>square</pixelaspectratio>
																			<fielddominance>none</fielddominance>
																		</samplecharacteristics>
																	</video>
																</media>
															</file>
															<filter>
																<effect>
																	<name>Basic Motion</name>
																	<effectid>basic</effectid>
																	<effectcategory>motion</effectcategory>
																	<effecttype>motion</effecttype>
																	<mediatype>video</mediatype>
																	<pproBypass>false</pproBypass>
																	<parameter authoringApp="PremierePro">
																		<parameterid>scale</parameterid>
																		<name>Scale</name>
																		<valuemin>0</valuemin>
																		<valuemax>1000</valuemax>
																		<value>120</value>
																	</parameter>
																	<parameter authoringApp="PremierePro">
																		<parameterid>rotation</parameterid>
																		<name>Rotation</name>
																		<valuemin>-8640</valuemin>
																		<valuemax>8640</valuemax>
																		<value>0</value>
																	</parameter>
																	<parameter authoringApp="PremierePro">
																		<parameterid>center</parameterid>
																		<name>Center</name>
																		<value>
																			<horiz>0</horiz>
																			<vert>0</vert>
																		</value>
																	</parameter>
																	<parameter authoringApp="PremierePro">
																		<parameterid>centerOffset</parameterid>
																		<name>Anchor Point</name>
																		<value>
																			<horiz>0</horiz>
																			<vert>0</vert>
																		</value>
																	</parameter>
																	<parameter authoringApp="PremierePro">
																		<parameterid>antiflicker</parameterid>
																		<name>Anti-flicker Filter</name>
																		<valuemin>0.0</valuemin>
																		<valuemax>1.0</valuemax>
																		<value>0</value>
																	</parameter>
																</effect>
															</filter>
															<logginginfo>
																<description></description>
																<scene></scene>
																<shottake></shottake>
																<lognote></lognote>
																<good></good>
																<originalvideofilename></originalvideofilename>
																<originalaudiofilename></originalaudiofilename>
															</logginginfo>
															<colorinfo>
																<lut></lut>
																<lut1></lut1>
																<asc_sop></asc_sop>
																<asc_sat></asc_sat>
																<lut2></lut2>
															</colorinfo>
															<labels>
																<label2>Violet</label2>
															</labels>
														</clipitem>
														<clipitem id="clipitem-421">
															<masterclipid>masterclip-167</masterclipid>
															<name>23436_Chocolate covered waffle cone dipped in nuts _By_Omri_Ohana_Artlist_HD.mp4</name>
															<enabled>TRUE</enabled>
															<duration>370</duration>
															<rate>
																<timebase>30</timebase>
																<ntsc>TRUE</ntsc>
															</rate>
															<start>1006</start>
															<end>1225</end>
															<in>0</in>
															<out>219</out>
															<pproTicksIn>0</pproTicksIn>
															<pproTicksOut>1856171116800</pproTicksOut>
															<alphatype>none</alphatype>
															<pixelaspectratio>square</pixelaspectratio>
															<anamorphic>FALSE</anamorphic>
															<file id="file-144">
																<name>23436_Chocolate covered waffle cone dipped in nuts _By_Omri_Ohana_Artlist_HD.mp4</name>
																<pathurl>file://localhost/Volumes/CONTENT/VOD%20CONTENT%20ARCHIVE/O&amp;O%20Archive%202023/Eye%20Candy/8%3a14%3a23/4_Project%20Files/Adobe%20Premiere%20Pro%20Video%20Previews/8%3a14%3a23.PRV/../../../3_Raw%20Files/Artlist%20-%20Chocolate%20Pistachio%20Treat/23436_Chocolate%20covered%20waffle%20cone%20dipped%20in%20nuts%20_By_Omri_Ohana_Artlist_HD.mp4</pathurl>
																<rate>
																	<timebase>25</timebase>
																	<ntsc>FALSE</ntsc>
																</rate>
																<duration>309</duration>
																<timecode>
																	<rate>
																		<timebase>25</timebase>
																		<ntsc>FALSE</ntsc>
																	</rate>
																	<string>13:00:04:08</string>
																	<frame>1170108</frame>
																	<displayformat>NDF</displayformat>
																</timecode>
																<media>
																	<video>
																		<samplecharacteristics>
																			<rate>
																				<timebase>25</timebase>
																				<ntsc>FALSE</ntsc>
																			</rate>
																			<width>1920</width>
																			<height>1080</height>
																			<anamorphic>FALSE</anamorphic>
																			<pixelaspectratio>square</pixelaspectratio>
																			<fielddominance>none</fielddominance>
																		</samplecharacteristics>
																	</video>
																</media>
															</file>
															<filter>
																<effect>
																	<name>Basic Motion</name>
																	<effectid>basic</effectid>
																	<effectcategory>motion</effectcategory>
																	<effecttype>motion</effecttype>
																	<mediatype>video</mediatype>
																	<pproBypass>false</pproBypass>
																	<parameter authoringApp="PremierePro">
																		<parameterid>scale</parameterid>
																		<name>Scale</name>
																		<valuemin>0</valuemin>
																		<valuemax>1000</valuemax>
																		<value>120</value>
																	</parameter>
																	<parameter authoringApp="PremierePro">
																		<parameterid>rotation</parameterid>
																		<name>Rotation</name>
																		<valuemin>-8640</valuemin>
																		<valuemax>8640</valuemax>
																		<value>0</value>
																	</parameter>
																	<parameter authoringApp="PremierePro">
																		<parameterid>center</parameterid>
																		<name>Center</name>
																		<value>
																			<horiz>0</horiz>
																			<vert>0</vert>
																		</value>
																	</parameter>
																	<parameter authoringApp="PremierePro">
																		<parameterid>centerOffset</parameterid>
																		<name>Anchor Point</name>
																		<value>
																			<horiz>0</horiz>
																			<vert>0</vert>
																		</value>
																	</parameter>
																	<parameter authoringApp="PremierePro">
																		<parameterid>antiflicker</parameterid>
																		<name>Anti-flicker Filter</name>
																		<valuemin>0.0</valuemin>
																		<valuemax>1.0</valuemax>
																		<value>0</value>
																	</parameter>
																</effect>
															</filter>
															<logginginfo>
																<description></description>
																<scene></scene>
																<shottake></shottake>
																<lognote></lognote>
																<good></good>
																<originalvideofilename></originalvideofilename>
																<originalaudiofilename></originalaudiofilename>
															</logginginfo>
															<colorinfo>
																<lut></lut>
																<lut1></lut1>
																<asc_sop></asc_sop>
																<asc_sat></asc_sat>
																<lut2></lut2>
															</colorinfo>
															<labels>
																<label2>Violet</label2>
															</labels>
														</clipitem>
														<clipitem id="clipitem-422">
															<masterclipid>masterclip-168</masterclipid>
															<name>23359_Waffle dessert covered in chocolate rolled in nuts_By_Omri_Ohana_Artlist_HD.mp4</name>
															<enabled>TRUE</enabled>
															<duration>228</duration>
															<rate>
																<timebase>30</timebase>
																<ntsc>TRUE</ntsc>
															</rate>
															<start>1225</start>
															<end>1350</end>
															<in>34</in>
															<out>159</out>
															<pproTicksIn>288172684800</pproTicksIn>
															<pproTicksOut>1347631084800</pproTicksOut>
															<alphatype>none</alphatype>
															<pixelaspectratio>square</pixelaspectratio>
															<anamorphic>FALSE</anamorphic>
															<file id="file-145">
																<name>23359_Waffle dessert covered in chocolate rolled in nuts_By_Omri_Ohana_Artlist_HD.mp4</name>
																<pathurl>file://localhost/Volumes/CONTENT/VOD%20CONTENT%20ARCHIVE/O&amp;O%20Archive%202023/Eye%20Candy/8%3a14%3a23/4_Project%20Files/Adobe%20Premiere%20Pro%20Video%20Previews/8%3a14%3a23.PRV/../../../3_Raw%20Files/Artlist%20-%20Chocolate%20Pistachio%20Treat/23359_Waffle%20dessert%20covered%20in%20chocolate%20rolled%20in%20nuts_By_Omri_Ohana_Artlist_HD.mp4</pathurl>
																<rate>
																	<timebase>25</timebase>
																	<ntsc>FALSE</ntsc>
																</rate>
																<duration>191</duration>
																<timecode>
																	<rate>
																		<timebase>25</timebase>
																		<ntsc>FALSE</ntsc>
																	</rate>
																	<string>12:55:52:05</string>
																	<frame>1163805</frame>
																	<displayformat>NDF</displayformat>
																</timecode>
																<media>
																	<video>
																		<samplecharacteristics>
																			<rate>
																				<timebase>25</timebase>
																				<ntsc>FALSE</ntsc>
																			</rate>
																			<width>1920</width>
																			<height>1080</height>
																			<anamorphic>FALSE</anamorphic>
																			<pixelaspectratio>square</pixelaspectratio>
																			<fielddominance>none</fielddominance>
																		</samplecharacteristics>
																	</video>
																</media>
															</file>
															<filter>
																<effect>
																	<name>Basic Motion</name>
																	<effectid>basic</effectid>
																	<effectcategory>motion</effectcategory>
																	<effecttype>motion</effecttype>
																	<mediatype>video</mediatype>
																	<pproBypass>false</pproBypass>
																	<parameter authoringApp="PremierePro">
																		<parameterid>scale</parameterid>
																		<name>Scale</name>
																		<valuemin>0</valuemin>
																		<valuemax>1000</valuemax>
																		<value>120</value>
																	</parameter>
																	<parameter authoringApp="PremierePro">
																		<parameterid>rotation</parameterid>
																		<name>Rotation</name>
																		<valuemin>-8640</valuemin>
																		<valuemax>8640</valuemax>
																		<value>0</value>
																	</parameter>
																	<parameter authoringApp="PremierePro">
																		<parameterid>center</parameterid>
																		<name>Center</name>
																		<value>
																			<horiz>0</horiz>
																			<vert>0</vert>
																		</value>
																	</parameter>
																	<parameter authoringApp="PremierePro">
																		<parameterid>centerOffset</parameterid>
																		<name>Anchor Point</name>
																		<value>
																			<horiz>0</horiz>
																			<vert>0</vert>
																		</value>
																	</parameter>
																	<parameter authoringApp="PremierePro">
																		<parameterid>antiflicker</parameterid>
																		<name>Anti-flicker Filter</name>
																		<valuemin>0.0</valuemin>
																		<valuemax>1.0</valuemax>
																		<value>0</value>
																	</parameter>
																</effect>
															</filter>
															<logginginfo>
																<description></description>
																<scene></scene>
																<shottake></shottake>
																<lognote></lognote>
																<good></good>
																<originalvideofilename></originalvideofilename>
																<originalaudiofilename></originalaudiofilename>
															</logginginfo>
															<colorinfo>
																<lut></lut>
																<lut1></lut1>
																<asc_sop></asc_sop>
																<asc_sat></asc_sat>
																<lut2></lut2>
															</colorinfo>
															<labels>
																<label2>Violet</label2>
															</labels>
														</clipitem>
														<clipitem id="clipitem-423">
															<masterclipid>masterclip-169</masterclipid>
															<name>23354_Waffle roll dipped into chocolate rolled in nuts_By_Omri_Ohana_Artlist_HD.mp4</name>
															<enabled>TRUE</enabled>
															<duration>256</duration>
															<rate>
																<timebase>30</timebase>
																<ntsc>TRUE</ntsc>
															</rate>
															<start>1350</start>
															<end>1549</end>
															<in>57</in>
															<out>256</out>
															<pproTicksIn>483113030400</pproTicksIn>
															<pproTicksOut>2169770803200</pproTicksOut>
															<alphatype>none</alphatype>
															<pixelaspectratio>square</pixelaspectratio>
															<anamorphic>FALSE</anamorphic>
															<file id="file-146">
																<name>23354_Waffle roll dipped into chocolate rolled in nuts_By_Omri_Ohana_Artlist_HD.mp4</name>
																<pathurl>file://localhost/Volumes/CONTENT/VOD%20CONTENT%20ARCHIVE/O&amp;O%20Archive%202023/Eye%20Candy/8%3a14%3a23/4_Project%20Files/Adobe%20Premiere%20Pro%20Video%20Previews/8%3a14%3a23.PRV/../../../3_Raw%20Files/Artlist%20-%20Chocolate%20Pistachio%20Treat/23354_Waffle%20roll%20dipped%20into%20chocolate%20rolled%20in%20nuts_By_Omri_Ohana_Artlist_HD.mp4</pathurl>
																<rate>
																	<timebase>25</timebase>
																	<ntsc>FALSE</ntsc>
																</rate>
																<duration>214</duration>
																<timecode>
																	<rate>
																		<timebase>25</timebase>
																		<ntsc>FALSE</ntsc>
																	</rate>
																	<string>12:57:35:19</string>
																	<frame>1166394</frame>
																	<displayformat>NDF</displayformat>
																</timecode>
																<media>
																	<video>
																		<samplecharacteristics>
																			<rate>
																				<timebase>25</timebase>
																				<ntsc>FALSE</ntsc>
																			</rate>
																			<width>1920</width>
																			<height>1080</height>
																			<anamorphic>FALSE</anamorphic>
																			<pixelaspectratio>square</pixelaspectratio>
																			<fielddominance>none</fielddominance>
																		</samplecharacteristics>
																	</video>
																</media>
															</file>
															<filter>
																<effect>
																	<name>Basic Motion</name>
																	<effectid>basic</effectid>
																	<effectcategory>motion</effectcategory>
																	<effecttype>motion</effecttype>
																	<mediatype>video</mediatype>
																	<pproBypass>false</pproBypass>
																	<parameter authoringApp="PremierePro">
																		<parameterid>scale</parameterid>
																		<name>Scale</name>
																		<valuemin>0</valuemin>
																		<valuemax>1000</valuemax>
																		<value>120</value>
																	</parameter>
																	<parameter authoringApp="PremierePro">
																		<parameterid>rotation</parameterid>
																		<name>Rotation</name>
																		<valuemin>-8640</valuemin>
																		<valuemax>8640</valuemax>
																		<value>0</value>
																	</parameter>
																	<parameter authoringApp="PremierePro">
																		<parameterid>center</parameterid>
																		<name>Center</name>
																		<value>
																			<horiz>0</horiz>
																			<vert>0</vert>
																		</value>
																	</parameter>
																	<parameter authoringApp="PremierePro">
																		<parameterid>centerOffset</parameterid>
																		<name>Anchor Point</name>
																		<value>
																			<horiz>0</horiz>
																			<vert>0</vert>
																		</value>
																	</parameter>
																	<parameter authoringApp="PremierePro">
																		<parameterid>antiflicker</parameterid>
																		<name>Anti-flicker Filter</name>
																		<valuemin>0.0</valuemin>
																		<valuemax>1.0</valuemax>
																		<value>0</value>
																	</parameter>
																</effect>
															</filter>
															<logginginfo>
																<description></description>
																<scene></scene>
																<shottake></shottake>
																<lognote></lognote>
																<good></good>
																<originalvideofilename></originalvideofilename>
																<originalaudiofilename></originalaudiofilename>
															</logginginfo>
															<colorinfo>
																<lut></lut>
																<lut1></lut1>
																<asc_sop></asc_sop>
																<asc_sat></asc_sat>
																<lut2></lut2>
															</colorinfo>
															<labels>
																<label2>Violet</label2>
															</labels>
														</clipitem>
														<clipitem id="clipitem-424">
															<masterclipid>masterclip-170</masterclipid>
															<name>23373_Woman pulling tray of desserts _By_Omri_Ohana_Artlist_HD.mp4</name>
															<enabled>TRUE</enabled>
															<duration>200</duration>
															<rate>
																<timebase>30</timebase>
																<ntsc>TRUE</ntsc>
															</rate>
															<start>1549</start>
															<end>1749</end>
															<in>0</in>
															<out>200</out>
															<pproTicksIn>0</pproTicksIn>
															<pproTicksOut>1695133440000</pproTicksOut>
															<alphatype>none</alphatype>
															<pixelaspectratio>square</pixelaspectratio>
															<anamorphic>FALSE</anamorphic>
															<file id="file-147">
																<name>23373_Woman pulling tray of desserts _By_Omri_Ohana_Artlist_HD.mp4</name>
																<pathurl>file://localhost/Volumes/CONTENT/VOD%20CONTENT%20ARCHIVE/O&amp;O%20Archive%202023/Eye%20Candy/8%3a14%3a23/4_Project%20Files/Adobe%20Premiere%20Pro%20Video%20Previews/8%3a14%3a23.PRV/../../../3_Raw%20Files/Artlist%20-%20Chocolate%20Pistachio%20Treat/23373_Woman%20pulling%20tray%20of%20desserts%20_By_Omri_Ohana_Artlist_HD.mp4</pathurl>
																<rate>
																	<timebase>25</timebase>
																	<ntsc>FALSE</ntsc>
																</rate>
																<duration>167</duration>
																<timecode>
																	<rate>
																		<timebase>25</timebase>
																		<ntsc>FALSE</ntsc>
																	</rate>
																	<string>13:27:10:08</string>
																	<frame>1210758</frame>
																	<displayformat>NDF</displayformat>
																</timecode>
																<media>
																	<video>
																		<samplecharacteristics>
																			<rate>
																				<timebase>25</timebase>
																				<ntsc>FALSE</ntsc>
																			</rate>
																			<width>1920</width>
																			<height>1080</height>
																			<anamorphic>FALSE</anamorphic>
																			<pixelaspectratio>square</pixelaspectratio>
																			<fielddominance>none</fielddominance>
																		</samplecharacteristics>
																	</video>
																</media>
															</file>
															<filter>
																<effect>
																	<name>Basic Motion</name>
																	<effectid>basic</effectid>
																	<effectcategory>motion</effectcategory>
																	<effecttype>motion</effecttype>
																	<mediatype>video</mediatype>
																	<pproBypass>false</pproBypass>
																	<parameter authoringApp="PremierePro">
																		<parameterid>scale</parameterid>
																		<name>Scale</name>
																		<valuemin>0</valuemin>
																		<valuemax>1000</valuemax>
																		<value>120</value>
																	</parameter>
																	<parameter authoringApp="PremierePro">
																		<parameterid>rotation</parameterid>
																		<name>Rotation</name>
																		<valuemin>-8640</valuemin>
																		<valuemax>8640</valuemax>
																		<value>0</value>
																	</parameter>
																	<parameter authoringApp="PremierePro">
																		<parameterid>center</parameterid>
																		<name>Center</name>
																		<value>
																			<horiz>0</horiz>
																			<vert>0</vert>
																		</value>
																	</parameter>
																	<parameter authoringApp="PremierePro">
																		<parameterid>centerOffset</parameterid>
																		<name>Anchor Point</name>
																		<value>
																			<horiz>0</horiz>
																			<vert>0</vert>
																		</value>
																	</parameter>
																	<parameter authoringApp="PremierePro">
																		<parameterid>antiflicker</parameterid>
																		<name>Anti-flicker Filter</name>
																		<valuemin>0.0</valuemin>
																		<valuemax>1.0</valuemax>
																		<value>0</value>
																	</parameter>
																</effect>
															</filter>
															<logginginfo>
																<description></description>
																<scene></scene>
																<shottake></shottake>
																<lognote></lognote>
																<good></good>
																<originalvideofilename></originalvideofilename>
																<originalaudiofilename></originalaudiofilename>
															</logginginfo>
															<colorinfo>
																<lut></lut>
																<lut1></lut1>
																<asc_sop></asc_sop>
																<asc_sat></asc_sat>
																<lut2></lut2>
															</colorinfo>
															<labels>
																<label2>Violet</label2>
															</labels>
														</clipitem>
														<enabled>TRUE</enabled>
														<locked>FALSE</locked>
													</track>
													<track TL.SQTrackShy="0" TL.SQTrackExpandedHeight="25" TL.SQTrackExpanded="0" MZ.TrackTargeted="0">
														<enabled>TRUE</enabled>
														<locked>FALSE</locked>
													</track>
													<track TL.SQTrackShy="0" TL.SQTrackExpandedHeight="25" TL.SQTrackExpanded="0" MZ.TrackTargeted="0">
														<enabled>TRUE</enabled>
														<locked>FALSE</locked>
													</track>
													<track TL.SQTrackShy="0" TL.SQTrackExpandedHeight="25" TL.SQTrackExpanded="0" MZ.TrackTargeted="0">
														<enabled>TRUE</enabled>
														<locked>FALSE</locked>
													</track>
													<track TL.SQTrackShy="0" TL.SQTrackExpandedHeight="25" TL.SQTrackExpanded="0" MZ.TrackTargeted="0">
														<enabled>TRUE</enabled>
														<locked>FALSE</locked>
													</track>
													<track TL.SQTrackShy="0" TL.SQTrackExpandedHeight="25" TL.SQTrackExpanded="0" MZ.TrackTargeted="0">
														<enabled>TRUE</enabled>
														<locked>FALSE</locked>
													</track>
													<track TL.SQTrackShy="0" TL.SQTrackExpandedHeight="25" TL.SQTrackExpanded="0" MZ.TrackTargeted="0">
														<enabled>TRUE</enabled>
														<locked>FALSE</locked>
													</track>
													<track TL.SQTrackShy="0" TL.SQTrackExpandedHeight="25" TL.SQTrackExpanded="0" MZ.TrackTargeted="0">
														<enabled>TRUE</enabled>
														<locked>FALSE</locked>
													</track>
													<track TL.SQTrackShy="0" TL.SQTrackExpandedHeight="25" TL.SQTrackExpanded="0" MZ.TrackTargeted="0">
														<enabled>TRUE</enabled>
														<locked>FALSE</locked>
													</track>
													<track TL.SQTrackShy="0" TL.SQTrackExpandedHeight="25" TL.SQTrackExpanded="0" MZ.TrackTargeted="0">
														<enabled>TRUE</enabled>
														<locked>FALSE</locked>
													</track>
												</video>
												<audio>
													<numOutputChannels>2</numOutputChannels>
													<format>
														<samplecharacteristics>
															<depth>16</depth>
															<samplerate>48000</samplerate>
														</samplecharacteristics>
													</format>
													<outputs>
														<group>
															<index>1</index>
															<numchannels>1</numchannels>
															<downmix>0</downmix>
															<channel>
																<index>1</index>
															</channel>
														</group>
														<group>
															<index>2</index>
															<numchannels>1</numchannels>
															<downmix>0</downmix>
															<channel>
																<index>2</index>
															</channel>
														</group>
													</outputs>
													<track TL.SQTrackAudioKeyframeStyle="0" TL.SQTrackShy="0" TL.SQTrackExpandedHeight="25" TL.SQTrackExpanded="0" MZ.TrackTargeted="1" PannerCurrentValue="0.5" PannerIsInverted="true" PannerStartKeyframe="-91445760000000000,0.5,0,0,0,0,0,0" PannerName="Balance" currentExplodedTrackIndex="0" totalExplodedTrackCount="2" premiereTrackType="Stereo">
														<clipitem id="clipitem-425" premiereChannelType="stereo">
															<masterclipid>masterclip-171</masterclipid>
															<name>ES_Project Bulow - Lukas Got Lucky.mp3</name>
															<enabled>TRUE</enabled>
															<duration>4026</duration>
															<rate>
																<timebase>30</timebase>
																<ntsc>TRUE</ntsc>
															</rate>
															<start>0</start>
															<end>1749</end>
															<in>0</in>
															<out>1749</out>
															<pproTicksIn>0</pproTicksIn>
															<pproTicksOut>14823941932800</pproTicksOut>
															<file id="file-148">
																<name>ES_Project Bulow - Lukas Got Lucky.mp3</name>
																<pathurl>file://localhost/Volumes/CONTENT/VOD%20CONTENT%20ARCHIVE/O&amp;O%20Archive%202023/Eye%20Candy/8%3a14%3a23/4_Project%20Files/Adobe%20Premiere%20Pro%20Video%20Previews/8%3a14%3a23.PRV/../../../3_Raw%20Files/Artlist%20-%20Chocolate%20Pistachio%20Treat/../../5_Assets/Music/ES_Project%20Bulow%20-%20Lukas%20Got%20Lucky.mp3</pathurl>
																<rate>
																	<timebase>30</timebase>
																	<ntsc>TRUE</ntsc>
																</rate>
																<duration>4026</duration>
																<timecode>
																	<rate>
																		<timebase>30</timebase>
																		<ntsc>TRUE</ntsc>
																	</rate>
																	<string>00;00;00;00</string>
																	<frame>0</frame>
																	<displayformat>DF</displayformat>
																</timecode>
																<media>
																	<audio>
																		<samplecharacteristics>
																			<depth>16</depth>
																			<samplerate>48000</samplerate>
																		</samplecharacteristics>
																		<channelcount>2</channelcount>
																	</audio>
																</media>
															</file>
															<sourcetrack>
																<mediatype>audio</mediatype>
																<trackindex>1</trackindex>
															</sourcetrack>
															<link>
																<linkclipref>clipitem-425</linkclipref>
																<mediatype>audio</mediatype>
																<trackindex>1</trackindex>
																<clipindex>1</clipindex>
																<groupindex>1</groupindex>
															</link>
															<link>
																<linkclipref>clipitem-426</linkclipref>
																<mediatype>audio</mediatype>
																<trackindex>2</trackindex>
																<clipindex>1</clipindex>
																<groupindex>1</groupindex>
															</link>
															<logginginfo>
																<description></description>
																<scene></scene>
																<shottake></shottake>
																<lognote></lognote>
																<good></good>
																<originalvideofilename></originalvideofilename>
																<originalaudiofilename></originalaudiofilename>
															</logginginfo>
															<colorinfo>
																<lut></lut>
																<lut1></lut1>
																<asc_sop></asc_sop>
																<asc_sat></asc_sat>
																<lut2></lut2>
															</colorinfo>
															<labels>
																<label2>Caribbean</label2>
															</labels>
														</clipitem>
														<enabled>TRUE</enabled>
														<locked>FALSE</locked>
														<filter>
															<effect>
																<name>Audio Levels</name>
																<effectid>audiolevels</effectid>
																<effectcategory>audiolevels</effectcategory>
																<effecttype>audiolevels</effecttype>
																<mediatype>audio</mediatype>
																<parameter authoringApp="PremierePro">
																	<parameterid>level</parameterid>
																	<name>Level</name>
																	<valuemin>0</valuemin>
																	<valuemax>3.98109</valuemax>
																	<value>0.706272</value>
																</parameter>
															</effect>
														</filter>
														<outputchannelindex>1</outputchannelindex>
													</track>
													<track TL.SQTrackAudioKeyframeStyle="0" TL.SQTrackShy="0" TL.SQTrackExpandedHeight="25" TL.SQTrackExpanded="0" MZ.TrackTargeted="1" PannerCurrentValue="0.5" PannerIsInverted="true" PannerStartKeyframe="-91445760000000000,0.5,0,0,0,0,0,0" PannerName="Balance" currentExplodedTrackIndex="1" totalExplodedTrackCount="2" premiereTrackType="Stereo">
														<clipitem id="clipitem-426" premiereChannelType="stereo">
															<masterclipid>masterclip-171</masterclipid>
															<name>ES_Project Bulow - Lukas Got Lucky.mp3</name>
															<enabled>TRUE</enabled>
															<duration>4026</duration>
															<rate>
																<timebase>30</timebase>
																<ntsc>TRUE</ntsc>
															</rate>
															<start>0</start>
															<end>1749</end>
															<in>0</in>
															<out>1749</out>
															<pproTicksIn>0</pproTicksIn>
															<pproTicksOut>14823941932800</pproTicksOut>
															<file id="file-148"/>
															<sourcetrack>
																<mediatype>audio</mediatype>
																<trackindex>2</trackindex>
															</sourcetrack>
															<link>
																<linkclipref>clipitem-425</linkclipref>
																<mediatype>audio</mediatype>
																<trackindex>1</trackindex>
																<clipindex>1</clipindex>
																<groupindex>1</groupindex>
															</link>
															<link>
																<linkclipref>clipitem-426</linkclipref>
																<mediatype>audio</mediatype>
																<trackindex>2</trackindex>
																<clipindex>1</clipindex>
																<groupindex>1</groupindex>
															</link>
															<logginginfo>
																<description></description>
																<scene></scene>
																<shottake></shottake>
																<lognote></lognote>
																<good></good>
																<originalvideofilename></originalvideofilename>
																<originalaudiofilename></originalaudiofilename>
															</logginginfo>
															<colorinfo>
																<lut></lut>
																<lut1></lut1>
																<asc_sop></asc_sop>
																<asc_sat></asc_sat>
																<lut2></lut2>
															</colorinfo>
															<labels>
																<label2>Caribbean</label2>
															</labels>
														</clipitem>
														<enabled>TRUE</enabled>
														<locked>FALSE</locked>
														<filter>
															<effect>
																<name>Audio Levels</name>
																<effectid>audiolevels</effectid>
																<effectcategory>audiolevels</effectcategory>
																<effecttype>audiolevels</effecttype>
																<mediatype>audio</mediatype>
																<parameter authoringApp="PremierePro">
																	<parameterid>level</parameterid>
																	<name>Level</name>
																	<valuemin>0</valuemin>
																	<valuemax>3.98109</valuemax>
																	<value>0.706272</value>
																</parameter>
															</effect>
														</filter>
														<outputchannelindex>2</outputchannelindex>
													</track>
													<track TL.SQTrackAudioKeyframeStyle="0" TL.SQTrackShy="0" TL.SQTrackExpandedHeight="25" TL.SQTrackExpanded="0" MZ.TrackTargeted="0" PannerCurrentValue="0.5" PannerIsInverted="true" PannerStartKeyframe="-91445760000000000,0.5,0,0,0,0,0,0" PannerName="Balance" currentExplodedTrackIndex="0" totalExplodedTrackCount="2" premiereTrackType="Stereo">
														<enabled>TRUE</enabled>
														<locked>FALSE</locked>
														<outputchannelindex>1</outputchannelindex>
													</track>
													<track TL.SQTrackAudioKeyframeStyle="0" TL.SQTrackShy="0" TL.SQTrackExpandedHeight="25" TL.SQTrackExpanded="0" MZ.TrackTargeted="0" PannerCurrentValue="0.5" PannerIsInverted="true" PannerStartKeyframe="-91445760000000000,0.5,0,0,0,0,0,0" PannerName="Balance" currentExplodedTrackIndex="1" totalExplodedTrackCount="2" premiereTrackType="Stereo">
														<enabled>TRUE</enabled>
														<locked>FALSE</locked>
														<outputchannelindex>2</outputchannelindex>
													</track>
													<track TL.SQTrackAudioKeyframeStyle="0" TL.SQTrackShy="0" TL.SQTrackExpandedHeight="25" TL.SQTrackExpanded="0" MZ.TrackTargeted="0" PannerCurrentValue="0.5" PannerIsInverted="true" PannerStartKeyframe="-91445760000000000,0.5,0,0,0,0,0,0" PannerName="Balance" currentExplodedTrackIndex="0" totalExplodedTrackCount="2" premiereTrackType="Stereo">
														<enabled>TRUE</enabled>
														<locked>FALSE</locked>
														<outputchannelindex>1</outputchannelindex>
													</track>
													<track TL.SQTrackAudioKeyframeStyle="0" TL.SQTrackShy="0" TL.SQTrackExpandedHeight="25" TL.SQTrackExpanded="0" MZ.TrackTargeted="0" PannerCurrentValue="0.5" PannerIsInverted="true" PannerStartKeyframe="-91445760000000000,0.5,0,0,0,0,0,0" PannerName="Balance" currentExplodedTrackIndex="1" totalExplodedTrackCount="2" premiereTrackType="Stereo">
														<enabled>TRUE</enabled>
														<locked>FALSE</locked>
														<outputchannelindex>2</outputchannelindex>
													</track>
													<track TL.SQTrackAudioKeyframeStyle="0" TL.SQTrackShy="0" TL.SQTrackExpandedHeight="25" TL.SQTrackExpanded="0" MZ.TrackTargeted="0" PannerCurrentValue="0.5" PannerIsInverted="true" PannerStartKeyframe="-91445760000000000,0.5,0,0,0,0,0,0" PannerName="Balance" currentExplodedTrackIndex="0" totalExplodedTrackCount="2" premiereTrackType="Stereo">
														<enabled>TRUE</enabled>
														<locked>FALSE</locked>
														<outputchannelindex>1</outputchannelindex>
													</track>
													<track TL.SQTrackAudioKeyframeStyle="0" TL.SQTrackShy="0" TL.SQTrackExpandedHeight="25" TL.SQTrackExpanded="0" MZ.TrackTargeted="0" PannerCurrentValue="0.5" PannerIsInverted="true" PannerStartKeyframe="-91445760000000000,0.5,0,0,0,0,0,0" PannerName="Balance" currentExplodedTrackIndex="1" totalExplodedTrackCount="2" premiereTrackType="Stereo">
														<enabled>TRUE</enabled>
														<locked>FALSE</locked>
														<outputchannelindex>2</outputchannelindex>
													</track>
													<track TL.SQTrackAudioKeyframeStyle="0" TL.SQTrackShy="0" TL.SQTrackExpandedHeight="25" TL.SQTrackExpanded="0" MZ.TrackTargeted="0" PannerCurrentValue="0.5" PannerIsInverted="true" PannerStartKeyframe="-91445760000000000,0.5,0,0,0,0,0,0" PannerName="Balance" currentExplodedTrackIndex="0" totalExplodedTrackCount="2" premiereTrackType="Stereo">
														<enabled>TRUE</enabled>
														<locked>FALSE</locked>
														<outputchannelindex>1</outputchannelindex>
													</track>
													<track TL.SQTrackAudioKeyframeStyle="0" TL.SQTrackShy="0" TL.SQTrackExpandedHeight="25" TL.SQTrackExpanded="0" MZ.TrackTargeted="0" PannerCurrentValue="0.5" PannerIsInverted="true" PannerStartKeyframe="-91445760000000000,0.5,0,0,0,0,0,0" PannerName="Balance" currentExplodedTrackIndex="1" totalExplodedTrackCount="2" premiereTrackType="Stereo">
														<enabled>TRUE</enabled>
														<locked>FALSE</locked>
														<outputchannelindex>2</outputchannelindex>
													</track>
													<track TL.SQTrackAudioKeyframeStyle="0" TL.SQTrackShy="0" TL.SQTrackExpandedHeight="25" TL.SQTrackExpanded="0" MZ.TrackTargeted="0" PannerCurrentValue="0.5" PannerIsInverted="true" PannerStartKeyframe="-91445760000000000,0.5,0,0,0,0,0,0" PannerName="Balance" currentExplodedTrackIndex="0" totalExplodedTrackCount="2" premiereTrackType="Stereo">
														<enabled>TRUE</enabled>
														<locked>FALSE</locked>
														<outputchannelindex>1</outputchannelindex>
													</track>
													<track TL.SQTrackAudioKeyframeStyle="0" TL.SQTrackShy="0" TL.SQTrackExpandedHeight="25" TL.SQTrackExpanded="0" MZ.TrackTargeted="0" PannerCurrentValue="0.5" PannerIsInverted="true" PannerStartKeyframe="-91445760000000000,0.5,0,0,0,0,0,0" PannerName="Balance" currentExplodedTrackIndex="1" totalExplodedTrackCount="2" premiereTrackType="Stereo">
														<enabled>TRUE</enabled>
														<locked>FALSE</locked>
														<outputchannelindex>2</outputchannelindex>
													</track>
													<track TL.SQTrackAudioKeyframeStyle="0" TL.SQTrackShy="0" TL.SQTrackExpandedHeight="25" TL.SQTrackExpanded="0" MZ.TrackTargeted="0" PannerCurrentValue="0.5" PannerIsInverted="true" PannerStartKeyframe="-91445760000000000,0.5,0,0,0,0,0,0" PannerName="Balance" currentExplodedTrackIndex="0" totalExplodedTrackCount="2" premiereTrackType="Stereo">
														<enabled>TRUE</enabled>
														<locked>FALSE</locked>
														<outputchannelindex>1</outputchannelindex>
													</track>
													<track TL.SQTrackAudioKeyframeStyle="0" TL.SQTrackShy="0" TL.SQTrackExpandedHeight="25" TL.SQTrackExpanded="0" MZ.TrackTargeted="0" PannerCurrentValue="0.5" PannerIsInverted="true" PannerStartKeyframe="-91445760000000000,0.5,0,0,0,0,0,0" PannerName="Balance" currentExplodedTrackIndex="1" totalExplodedTrackCount="2" premiereTrackType="Stereo">
														<enabled>TRUE</enabled>
														<locked>FALSE</locked>
														<outputchannelindex>2</outputchannelindex>
													</track>
													<track TL.SQTrackAudioKeyframeStyle="0" TL.SQTrackShy="0" TL.SQTrackExpandedHeight="25" TL.SQTrackExpanded="0" MZ.TrackTargeted="0" PannerCurrentValue="0.5" PannerIsInverted="true" PannerStartKeyframe="-91445760000000000,0.5,0,0,0,0,0,0" PannerName="Balance" currentExplodedTrackIndex="0" totalExplodedTrackCount="2" premiereTrackType="Stereo">
														<enabled>TRUE</enabled>
														<locked>FALSE</locked>
														<outputchannelindex>1</outputchannelindex>
													</track>
													<track TL.SQTrackAudioKeyframeStyle="0" TL.SQTrackShy="0" TL.SQTrackExpandedHeight="25" TL.SQTrackExpanded="0" MZ.TrackTargeted="0" PannerCurrentValue="0.5" PannerIsInverted="true" PannerStartKeyframe="-91445760000000000,0.5,0,0,0,0,0,0" PannerName="Balance" currentExplodedTrackIndex="1" totalExplodedTrackCount="2" premiereTrackType="Stereo">
														<enabled>TRUE</enabled>
														<locked>FALSE</locked>
														<outputchannelindex>2</outputchannelindex>
													</track>
													<track TL.SQTrackAudioKeyframeStyle="0" TL.SQTrackShy="0" TL.SQTrackExpandedHeight="25" TL.SQTrackExpanded="0" MZ.TrackTargeted="0" PannerCurrentValue="0.5" PannerIsInverted="true" PannerStartKeyframe="-91445760000000000,0.5,0,0,0,0,0,0" PannerName="Balance" currentExplodedTrackIndex="0" totalExplodedTrackCount="2" premiereTrackType="Stereo">
														<enabled>TRUE</enabled>
														<locked>FALSE</locked>
														<outputchannelindex>1</outputchannelindex>
													</track>
													<track TL.SQTrackAudioKeyframeStyle="0" TL.SQTrackShy="0" TL.SQTrackExpandedHeight="25" TL.SQTrackExpanded="0" MZ.TrackTargeted="0" PannerCurrentValue="0.5" PannerIsInverted="true" PannerStartKeyframe="-91445760000000000,0.5,0,0,0,0,0,0" PannerName="Balance" currentExplodedTrackIndex="1" totalExplodedTrackCount="2" premiereTrackType="Stereo">
														<enabled>TRUE</enabled>
														<locked>FALSE</locked>
														<outputchannelindex>2</outputchannelindex>
													</track>
													<track TL.SQTrackAudioKeyframeStyle="0" TL.SQTrackShy="0" TL.SQTrackExpandedHeight="25" TL.SQTrackExpanded="0" MZ.TrackTargeted="0" PannerCurrentValue="0.5" PannerIsInverted="true" PannerStartKeyframe="-91445760000000000,0.5,0,0,0,0,0,0" PannerName="Balance" currentExplodedTrackIndex="0" totalExplodedTrackCount="2" premiereTrackType="Stereo">
														<enabled>TRUE</enabled>
														<locked>FALSE</locked>
														<outputchannelindex>1</outputchannelindex>
													</track>
													<track TL.SQTrackAudioKeyframeStyle="0" TL.SQTrackShy="0" TL.SQTrackExpandedHeight="25" TL.SQTrackExpanded="0" MZ.TrackTargeted="0" PannerCurrentValue="0.5" PannerIsInverted="true" PannerStartKeyframe="-91445760000000000,0.5,0,0,0,0,0,0" PannerName="Balance" currentExplodedTrackIndex="1" totalExplodedTrackCount="2" premiereTrackType="Stereo">
														<enabled>TRUE</enabled>
														<locked>FALSE</locked>
														<outputchannelindex>2</outputchannelindex>
													</track>
												</audio>
											</media>
											<timecode>
												<rate>
													<timebase>30</timebase>
													<ntsc>TRUE</ntsc>
												</rate>
												<string>00;00;00;00</string>
												<frame>0</frame>
												<displayformat>DF</displayformat>
											</timecode>
											<logginginfo>
												<description></description>
												<scene></scene>
												<shottake></shottake>
												<lognote></lognote>
												<good></good>
												<originalvideofilename></originalvideofilename>
												<originalaudiofilename></originalaudiofilename>
											</logginginfo>
										</sequence>
										<link>
											<linkclipref>clipitem-414</linkclipref>
											<mediatype>video</mediatype>
											<trackindex>1</trackindex>
											<clipindex>1</clipindex>
										</link>
										<link>
											<linkclipref>clipitem-446</linkclipref>
											<mediatype>audio</mediatype>
											<trackindex>1</trackindex>
											<clipindex>1</clipindex>
											<groupindex>1</groupindex>
										</link>
										<link>
											<linkclipref>clipitem-448</linkclipref>
											<mediatype>audio</mediatype>
											<trackindex>2</trackindex>
											<clipindex>1</clipindex>
											<groupindex>1</groupindex>
										</link>
										<labels>
											<label2>Forest</label2>
										</labels>
									</clipitem>
									<clipitem id="clipitem-427">
										<masterclipid>masterclip-172</masterclipid>
										<name>Cinnamon Spiced Bites_2</name>
										<enabled>TRUE</enabled>
										<duration>5700</duration>
										<rate>
											<timebase>30</timebase>
											<ntsc>TRUE</ntsc>
										</rate>
										<start>1865</start>
										<end>5146</end>
										<in>0</in>
										<out>3281</out>
										<pproTicksIn>0</pproTicksIn>
										<pproTicksOut>27808664083200</pproTicksOut>
										<sequence id="sequence-33" TL.SQAudioVisibleBase="0" TL.SQVideoVisibleBase="0" TL.SQVisibleBaseTime="0" TL.SQAVDividerPosition="0.5" TL.SQHideShyTracks="0" TL.SQHeaderWidth="236" TL.SQDataTrackViewControlState="0" Monitor.ProgramZoomOut="27808664083200" Monitor.ProgramZoomIn="0" TL.SQTimePerPixel="0.16943812201864844" AM.TrackVScrollPosition="0" AM.TrackScrollPosition="0" MZ.EditLine="22680885427200" MZ.Sequence.PreviewFrameSizeHeight="1080" MZ.Sequence.PreviewFrameSizeWidth="1920" MZ.Sequence.AudioTimeDisplayFormat="200" MZ.Sequence.PreviewRenderingClassID="1061109567" MZ.Sequence.PreviewRenderingPresetCodec="1634755443" MZ.Sequence.PreviewRenderingPresetPath="EncoderPresets/SequencePreview/35d109db-457b-43c1-9452-9cb7be9f121c/QuickTime.epr" MZ.Sequence.PreviewUseMaxRenderQuality="false" MZ.Sequence.PreviewUseMaxBitDepth="false" MZ.Sequence.EditingModeGUID="35d109db-457b-43c1-9452-9cb7be9f121c" MZ.Sequence.VideoTimeDisplayFormat="102" MZ.WorkOutPoint="1262874412800" MZ.WorkInPoint="0">
											<duration>3281</duration>
											<rate>
												<timebase>30</timebase>
												<ntsc>TRUE</ntsc>
											</rate>
											<name>FND_Cinnamon Spiced Bites_2</name>
											<media>
												<video>
													<format>
														<samplecharacteristics>
															<rate>
																<timebase>30</timebase>
																<ntsc>TRUE</ntsc>
															</rate>
															<codec>
																<name>Apple ProRes 422</name>
																<appspecificdata>
																	<appname>Final Cut Pro</appname>
																	<appmanufacturer>Apple Inc.</appmanufacturer>
																	<appversion>7.0</appversion>
																	<data>
																		<qtcodec>
																			<codecname>Apple ProRes 422</codecname>
																			<codectypename>Apple ProRes 422</codectypename>
																			<codectypecode>apcn</codectypecode>
																			<codecvendorcode>appl</codecvendorcode>
																			<spatialquality>1024</spatialquality>
																			<temporalquality>0</temporalquality>
																			<keyframerate>0</keyframerate>
																			<datarate>0</datarate>
																		</qtcodec>
																	</data>
																</appspecificdata>
															</codec>
															<width>1920</width>
															<height>1080</height>
															<anamorphic>FALSE</anamorphic>
															<pixelaspectratio>square</pixelaspectratio>
															<fielddominance>none</fielddominance>
															<colordepth>24</colordepth>
														</samplecharacteristics>
													</format>
													<track TL.SQTrackShy="0" TL.SQTrackExpandedHeight="25" TL.SQTrackExpanded="0" MZ.TrackTargeted="1">
														<clipitem id="clipitem-428">
															<masterclipid>masterclip-173</masterclipid>
															<name>(marygracebread)_7110340178492787970_TT.mp4</name>
															<enabled>TRUE</enabled>
															<duration>1013</duration>
															<rate>
																<timebase>30</timebase>
																<ntsc>TRUE</ntsc>
															</rate>
															<start>0</start>
															<end>968</end>
															<in>45</in>
															<out>1013</out>
															<pproTicksIn>381405024000</pproTicksIn>
															<pproTicksOut>8585850873600</pproTicksOut>
															<alphatype>none</alphatype>
															<pixelaspectratio>square</pixelaspectratio>
															<anamorphic>FALSE</anamorphic>
															<file id="file-149">
																<name>(marygracebread)_7110340178492787970_TT.mp4</name>
																<pathurl>file://localhost/Volumes/ATM%201/EYE%20CANDY/8%3a14%3a23/3_Raw%20Files/cinnamon/(marygracebread)_7110340178492787970_TT.mp4</pathurl>
																<rate>
																	<timebase>60</timebase>
																	<ntsc>FALSE</ntsc>
																</rate>
																<duration>2029</duration>
																<timecode>
																	<rate>
																		<timebase>60</timebase>
																		<ntsc>FALSE</ntsc>
																	</rate>
																	<string>00:00:00:00</string>
																	<frame>0</frame>
																	<displayformat>NDF</displayformat>
																</timecode>
																<media>
																	<video>
																		<samplecharacteristics>
																			<rate>
																				<timebase>60</timebase>
																				<ntsc>FALSE</ntsc>
																			</rate>
																			<width>576</width>
																			<height>1024</height>
																			<anamorphic>FALSE</anamorphic>
																			<pixelaspectratio>square</pixelaspectratio>
																			<fielddominance>none</fielddominance>
																		</samplecharacteristics>
																	</video>
																	<audio>
																		<samplecharacteristics>
																			<depth>16</depth>
																			<samplerate>44100</samplerate>
																		</samplecharacteristics>
																		<channelcount>2</channelcount>
																	</audio>
																</media>
															</file>
															<filter>
																<effect>
																	<name>Basic Motion</name>
																	<effectid>basic</effectid>
																	<effectcategory>motion</effectcategory>
																	<effecttype>motion</effecttype>
																	<mediatype>video</mediatype>
																	<pproBypass>false</pproBypass>
																	<parameter authoringApp="PremierePro">
																		<parameterid>scale</parameterid>
																		<name>Scale</name>
																		<valuemin>0</valuemin>
																		<valuemax>1000</valuemax>
																		<value>100</value>
																	</parameter>
																	<parameter authoringApp="PremierePro">
																		<parameterid>rotation</parameterid>
																		<name>Rotation</name>
																		<valuemin>-8640</valuemin>
																		<valuemax>8640</valuemax>
																		<value>0</value>
																	</parameter>
																	<parameter authoringApp="PremierePro">
																		<parameterid>center</parameterid>
																		<name>Center</name>
																		<value>
																			<horiz>0.0243056</horiz>
																			<vert>0</vert>
																		</value>
																	</parameter>
																	<parameter authoringApp="PremierePro">
																		<parameterid>centerOffset</parameterid>
																		<name>Anchor Point</name>
																		<value>
																			<horiz>0</horiz>
																			<vert>0</vert>
																		</value>
																	</parameter>
																	<parameter authoringApp="PremierePro">
																		<parameterid>antiflicker</parameterid>
																		<name>Anti-flicker Filter</name>
																		<valuemin>0.0</valuemin>
																		<valuemax>1.0</valuemax>
																		<value>0</value>
																	</parameter>
																</effect>
															</filter>
															<logginginfo>
																<description></description>
																<scene></scene>
																<shottake></shottake>
																<lognote></lognote>
																<good></good>
																<originalvideofilename></originalvideofilename>
																<originalaudiofilename></originalaudiofilename>
															</logginginfo>
															<colorinfo>
																<lut></lut>
																<lut1></lut1>
																<asc_sop></asc_sop>
																<asc_sat></asc_sat>
																<lut2></lut2>
															</colorinfo>
															<labels>
																<label2>Violet</label2>
															</labels>
														</clipitem>
														<clipitem id="clipitem-429">
															<masterclipid>masterclip-174</masterclipid>
															<name>(goodeatzco)_CBji13IFz7x - 3_IG.mp4</name>
															<enabled>TRUE</enabled>
															<duration>657</duration>
															<rate>
																<timebase>30</timebase>
																<ntsc>TRUE</ntsc>
															</rate>
															<start>968</start>
															<end>1531</end>
															<in>3</in>
															<out>566</out>
															<pproTicksIn>25427001600</pproTicksIn>
															<pproTicksOut>4797227635200</pproTicksOut>
															<alphatype>none</alphatype>
															<pixelaspectratio>square</pixelaspectratio>
															<anamorphic>FALSE</anamorphic>
															<file id="file-150">
																<name>(goodeatzco)_CBji13IFz7x - 3_IG.mp4</name>
																<pathurl>file://localhost/Volumes/ATM%201/EYE%20CANDY/8%3a14%3a23/3_Raw%20Files/cinnamon/(goodeatzco)_CBji13IFz7x%20-%203_IG.mp4</pathurl>
																<rate>
																	<timebase>30</timebase>
																	<ntsc>FALSE</ntsc>
																</rate>
																<duration>658</duration>
																<timecode>
																	<rate>
																		<timebase>30</timebase>
																		<ntsc>FALSE</ntsc>
																	</rate>
																	<string>00:00:00:00</string>
																	<frame>0</frame>
																	<displayformat>NDF</displayformat>
																</timecode>
																<media>
																	<video>
																		<samplecharacteristics>
																			<rate>
																				<timebase>30</timebase>
																				<ntsc>FALSE</ntsc>
																			</rate>
																			<width>720</width>
																			<height>900</height>
																			<anamorphic>FALSE</anamorphic>
																			<pixelaspectratio>square</pixelaspectratio>
																			<fielddominance>none</fielddominance>
																		</samplecharacteristics>
																	</video>
																	<audio>
																		<samplecharacteristics>
																			<depth>16</depth>
																			<samplerate>44100</samplerate>
																		</samplecharacteristics>
																		<channelcount>2</channelcount>
																	</audio>
																</media>
															</file>
															<logginginfo>
																<description></description>
																<scene></scene>
																<shottake></shottake>
																<lognote></lognote>
																<good></good>
																<originalvideofilename></originalvideofilename>
																<originalaudiofilename></originalaudiofilename>
															</logginginfo>
															<colorinfo>
																<lut></lut>
																<lut1></lut1>
																<asc_sop></asc_sop>
																<asc_sat></asc_sat>
																<lut2></lut2>
															</colorinfo>
															<labels>
																<label2>Violet</label2>
															</labels>
														</clipitem>
														<clipitem id="clipitem-430">
															<masterclipid>masterclip-174</masterclipid>
															<name>(goodeatzco)_CBji13IFz7x - 3_IG.mp4</name>
															<enabled>TRUE</enabled>
															<duration>657</duration>
															<rate>
																<timebase>30</timebase>
																<ntsc>TRUE</ntsc>
															</rate>
															<start>1531</start>
															<end>1609</end>
															<in>579</in>
															<out>657</out>
															<pproTicksIn>4907411308800</pproTicksIn>
															<pproTicksOut>5568513350400</pproTicksOut>
															<alphatype>none</alphatype>
															<file id="file-150"/>
															<logginginfo>
																<description></description>
																<scene></scene>
																<shottake></shottake>
																<lognote></lognote>
																<good></good>
																<originalvideofilename></originalvideofilename>
																<originalaudiofilename></originalaudiofilename>
															</logginginfo>
															<colorinfo>
																<lut></lut>
																<lut1></lut1>
																<asc_sop></asc_sop>
																<asc_sat></asc_sat>
																<lut2></lut2>
															</colorinfo>
															<labels>
																<label2>Violet</label2>
															</labels>
														</clipitem>
														<clipitem id="clipitem-431">
															<masterclipid>masterclip-175</masterclipid>
															<name>(aquickspoonful)_CuA2TBKs1tV_IG.mp4</name>
															<enabled>TRUE</enabled>
															<duration>933</duration>
															<rate>
																<timebase>30</timebase>
																<ntsc>TRUE</ntsc>
															</rate>
															<start>1609</start>
															<end>2377</end>
															<in>0</in>
															<out>768</out>
															<pproTicksIn>0</pproTicksIn>
															<pproTicksOut>6509312409600</pproTicksOut>
															<alphatype>none</alphatype>
															<pixelaspectratio>square</pixelaspectratio>
															<anamorphic>FALSE</anamorphic>
															<file id="file-151">
																<name>(aquickspoonful)_CuA2TBKs1tV_IG.mp4</name>
																<pathurl>file://localhost/Volumes/ATM%201/EYE%20CANDY/8%3a14%3a23/3_Raw%20Files/cinnamon/(aquickspoonful)_CuA2TBKs1tV_IG.mp4</pathurl>
																<rate>
																	<timebase>30</timebase>
																	<ntsc>FALSE</ntsc>
																</rate>
																<duration>934</duration>
																<timecode>
																	<rate>
																		<timebase>30</timebase>
																		<ntsc>FALSE</ntsc>
																	</rate>
																	<string>00:00:00:00</string>
																	<frame>0</frame>
																	<displayformat>NDF</displayformat>
																</timecode>
																<media>
																	<video>
																		<samplecharacteristics>
																			<rate>
																				<timebase>30</timebase>
																				<ntsc>FALSE</ntsc>
																			</rate>
																			<width>576</width>
																			<height>1024</height>
																			<anamorphic>FALSE</anamorphic>
																			<pixelaspectratio>square</pixelaspectratio>
																			<fielddominance>none</fielddominance>
																		</samplecharacteristics>
																	</video>
																	<audio>
																		<samplecharacteristics>
																			<depth>16</depth>
																			<samplerate>44100</samplerate>
																		</samplecharacteristics>
																		<channelcount>1</channelcount>
																		<audiochannel>
																			<sourcechannel>1</sourcechannel>
																		</audiochannel>
																	</audio>
																</media>
															</file>
															<filter>
																<effect>
																	<name>Basic Motion</name>
																	<effectid>basic</effectid>
																	<effectcategory>motion</effectcategory>
																	<effecttype>motion</effecttype>
																	<mediatype>video</mediatype>
																	<pproBypass>false</pproBypass>
																	<parameter authoringApp="PremierePro">
																		<parameterid>scale</parameterid>
																		<name>Scale</name>
																		<valuemin>0</valuemin>
																		<valuemax>1000</valuemax>
																		<value>100</value>
																	</parameter>
																	<parameter authoringApp="PremierePro">
																		<parameterid>rotation</parameterid>
																		<name>Rotation</name>
																		<valuemin>-8640</valuemin>
																		<valuemax>8640</valuemax>
																		<value>0</value>
																	</parameter>
																	<parameter authoringApp="PremierePro">
																		<parameterid>center</parameterid>
																		<name>Center</name>
																		<value>
																			<horiz>0.0260417</horiz>
																			<vert>0</vert>
																		</value>
																	</parameter>
																	<parameter authoringApp="PremierePro">
																		<parameterid>centerOffset</parameterid>
																		<name>Anchor Point</name>
																		<value>
																			<horiz>0</horiz>
																			<vert>0</vert>
																		</value>
																	</parameter>
																	<parameter authoringApp="PremierePro">
																		<parameterid>antiflicker</parameterid>
																		<name>Anti-flicker Filter</name>
																		<valuemin>0.0</valuemin>
																		<valuemax>1.0</valuemax>
																		<value>0</value>
																	</parameter>
																</effect>
															</filter>
															<logginginfo>
																<description></description>
																<scene></scene>
																<shottake></shottake>
																<lognote></lognote>
																<good></good>
																<originalvideofilename></originalvideofilename>
																<originalaudiofilename></originalaudiofilename>
															</logginginfo>
															<colorinfo>
																<lut></lut>
																<lut1></lut1>
																<asc_sop></asc_sop>
																<asc_sat></asc_sat>
																<lut2></lut2>
															</colorinfo>
															<labels>
																<label2>Violet</label2>
															</labels>
														</clipitem>
														<clipitem id="clipitem-432">
															<masterclipid>masterclip-175</masterclipid>
															<name>(aquickspoonful)_CuA2TBKs1tV_IG.mp4</name>
															<enabled>TRUE</enabled>
															<duration>933</duration>
															<rate>
																<timebase>30</timebase>
																<ntsc>TRUE</ntsc>
															</rate>
															<start>2377</start>
															<end>2476</end>
															<in>834</in>
															<out>933</out>
															<pproTicksIn>7068706444800</pproTicksIn>
															<pproTicksOut>7907797497600</pproTicksOut>
															<alphatype>none</alphatype>
															<file id="file-151"/>
															<filter>
																<effect>
																	<name>Basic Motion</name>
																	<effectid>basic</effectid>
																	<effectcategory>motion</effectcategory>
																	<effecttype>motion</effecttype>
																	<mediatype>video</mediatype>
																	<pproBypass>false</pproBypass>
																	<parameter authoringApp="PremierePro">
																		<parameterid>scale</parameterid>
																		<name>Scale</name>
																		<valuemin>0</valuemin>
																		<valuemax>1000</valuemax>
																		<value>100</value>
																	</parameter>
																	<parameter authoringApp="PremierePro">
																		<parameterid>rotation</parameterid>
																		<name>Rotation</name>
																		<valuemin>-8640</valuemin>
																		<valuemax>8640</valuemax>
																		<value>0</value>
																	</parameter>
																	<parameter authoringApp="PremierePro">
																		<parameterid>center</parameterid>
																		<name>Center</name>
																		<value>
																			<horiz>0.0260417</horiz>
																			<vert>0</vert>
																		</value>
																	</parameter>
																	<parameter authoringApp="PremierePro">
																		<parameterid>centerOffset</parameterid>
																		<name>Anchor Point</name>
																		<value>
																			<horiz>0</horiz>
																			<vert>0</vert>
																		</value>
																	</parameter>
																	<parameter authoringApp="PremierePro">
																		<parameterid>antiflicker</parameterid>
																		<name>Anti-flicker Filter</name>
																		<valuemin>0.0</valuemin>
																		<valuemax>1.0</valuemax>
																		<value>0</value>
																	</parameter>
																</effect>
															</filter>
															<logginginfo>
																<description></description>
																<scene></scene>
																<shottake></shottake>
																<lognote></lognote>
																<good></good>
																<originalvideofilename></originalvideofilename>
																<originalaudiofilename></originalaudiofilename>
															</logginginfo>
															<colorinfo>
																<lut></lut>
																<lut1></lut1>
																<asc_sop></asc_sop>
																<asc_sat></asc_sat>
																<lut2></lut2>
															</colorinfo>
															<labels>
																<label2>Violet</label2>
															</labels>
														</clipitem>
														<clipitem id="clipitem-433">
															<masterclipid>masterclip-176</masterclipid>
															<name>(sugarandsparrowco)_Cr3cvXWt6ZR_IG.mp4</name>
															<enabled>TRUE</enabled>
															<duration>898</duration>
															<rate>
																<timebase>30</timebase>
																<ntsc>TRUE</ntsc>
															</rate>
															<start>2476</start>
															<end>3281</end>
															<in>93</in>
															<out>898</out>
															<pproTicksIn>788237049600</pproTicksIn>
															<pproTicksOut>7611149145600</pproTicksOut>
															<alphatype>none</alphatype>
															<pixelaspectratio>square</pixelaspectratio>
															<anamorphic>FALSE</anamorphic>
															<file id="file-152">
																<name>(sugarandsparrowco)_Cr3cvXWt6ZR_IG.mp4</name>
																<pathurl>file://localhost/Volumes/ATM%201/EYE%20CANDY/8%3a14%3a23/3_Raw%20Files/cinnamon/(sugarandsparrowco)_Cr3cvXWt6ZR_IG.mp4</pathurl>
																<rate>
																	<timebase>30</timebase>
																	<ntsc>FALSE</ntsc>
																</rate>
																<duration>899</duration>
																<timecode>
																	<rate>
																		<timebase>30</timebase>
																		<ntsc>FALSE</ntsc>
																	</rate>
																	<string>00:00:00:00</string>
																	<frame>0</frame>
																	<displayformat>NDF</displayformat>
																</timecode>
																<media>
																	<video>
																		<samplecharacteristics>
																			<rate>
																				<timebase>30</timebase>
																				<ntsc>FALSE</ntsc>
																			</rate>
																			<width>1080</width>
																			<height>1920</height>
																			<anamorphic>FALSE</anamorphic>
																			<pixelaspectratio>square</pixelaspectratio>
																			<fielddominance>none</fielddominance>
																		</samplecharacteristics>
																	</video>
																	<audio>
																		<samplecharacteristics>
																			<depth>16</depth>
																			<samplerate>44100</samplerate>
																		</samplecharacteristics>
																		<channelcount>2</channelcount>
																	</audio>
																</media>
															</file>
															<filter>
																<effect>
																	<name>Basic Motion</name>
																	<effectid>basic</effectid>
																	<effectcategory>motion</effectcategory>
																	<effecttype>motion</effecttype>
																	<mediatype>video</mediatype>
																	<pproBypass>false</pproBypass>
																	<parameter authoringApp="PremierePro">
																		<parameterid>scale</parameterid>
																		<name>Scale</name>
																		<valuemin>0</valuemin>
																		<valuemax>1000</valuemax>
																		<value>100</value>
																	</parameter>
																	<parameter authoringApp="PremierePro">
																		<parameterid>rotation</parameterid>
																		<name>Rotation</name>
																		<valuemin>-8640</valuemin>
																		<valuemax>8640</valuemax>
																		<value>0</value>
																	</parameter>
																	<parameter authoringApp="PremierePro">
																		<parameterid>center</parameterid>
																		<name>Center</name>
																		<value>
																			<horiz>0.0138889</horiz>
																			<vert>0</vert>
																		</value>
																	</parameter>
																	<parameter authoringApp="PremierePro">
																		<parameterid>centerOffset</parameterid>
																		<name>Anchor Point</name>
																		<value>
																			<horiz>0</horiz>
																			<vert>0</vert>
																		</value>
																	</parameter>
																	<parameter authoringApp="PremierePro">
																		<parameterid>antiflicker</parameterid>
																		<name>Anti-flicker Filter</name>
																		<valuemin>0.0</valuemin>
																		<valuemax>1.0</valuemax>
																		<value>0</value>
																	</parameter>
																</effect>
															</filter>
															<logginginfo>
																<description></description>
																<scene></scene>
																<shottake></shottake>
																<lognote></lognote>
																<good></good>
																<originalvideofilename></originalvideofilename>
																<originalaudiofilename></originalaudiofilename>
															</logginginfo>
															<colorinfo>
																<lut></lut>
																<lut1></lut1>
																<asc_sop></asc_sop>
																<asc_sat></asc_sat>
																<lut2></lut2>
															</colorinfo>
															<labels>
																<label2>Violet</label2>
															</labels>
														</clipitem>
														<enabled>TRUE</enabled>
														<locked>FALSE</locked>
													</track>
													<track TL.SQTrackShy="0" TL.SQTrackExpandedHeight="25" TL.SQTrackExpanded="0" MZ.TrackTargeted="0">
														<clipitem id="clipitem-434">
															<masterclipid>masterclip-36</masterclipid>
															<name>Eyecandy Vertical Video Frame 2</name>
															<enabled>TRUE</enabled>
															<duration>5700</duration>
															<rate>
																<timebase>30</timebase>
																<ntsc>TRUE</ntsc>
															</rate>
															<start>0</start>
															<end>968</end>
															<in>102</in>
															<out>1070</out>
															<pproTicksIn>864518054400</pproTicksIn>
															<pproTicksOut>9068963904000</pproTicksOut>
															<alphatype>straight</alphatype>
															<file id="file-29"/>
															<logginginfo>
																<description></description>
																<scene></scene>
																<shottake></shottake>
																<lognote></lognote>
																<good></good>
																<originalvideofilename></originalvideofilename>
																<originalaudiofilename></originalaudiofilename>
															</logginginfo>
															<colorinfo>
																<lut></lut>
																<lut1></lut1>
																<asc_sop></asc_sop>
																<asc_sat></asc_sat>
																<lut2></lut2>
															</colorinfo>
															<labels>
																<label2>Teal</label2>
															</labels>
														</clipitem>
														<clipitem id="clipitem-435">
															<masterclipid>masterclip-36</masterclipid>
															<name>Eyecandy Vertical Video Frame 2</name>
															<enabled>TRUE</enabled>
															<duration>5700</duration>
															<rate>
																<timebase>30</timebase>
																<ntsc>TRUE</ntsc>
															</rate>
															<start>968</start>
															<end>1609</end>
															<in>1070</in>
															<out>1711</out>
															<pproTicksIn>9068963904000</pproTicksIn>
															<pproTicksOut>14501866579200</pproTicksOut>
															<alphatype>straight</alphatype>
															<file id="file-29"/>
															<logginginfo>
																<description></description>
																<scene></scene>
																<shottake></shottake>
																<lognote></lognote>
																<good></good>
																<originalvideofilename></originalvideofilename>
																<originalaudiofilename></originalaudiofilename>
															</logginginfo>
															<colorinfo>
																<lut></lut>
																<lut1></lut1>
																<asc_sop></asc_sop>
																<asc_sat></asc_sat>
																<lut2></lut2>
															</colorinfo>
															<labels>
																<label2>Teal</label2>
															</labels>
														</clipitem>
														<clipitem id="clipitem-436">
															<masterclipid>masterclip-36</masterclipid>
															<name>Eyecandy Vertical Video Frame 2</name>
															<enabled>TRUE</enabled>
															<duration>5700</duration>
															<rate>
																<timebase>30</timebase>
																<ntsc>TRUE</ntsc>
															</rate>
															<start>1609</start>
															<end>2476</end>
															<in>1711</in>
															<out>2578</out>
															<pproTicksIn>14501866579200</pproTicksIn>
															<pproTicksOut>21850270041600</pproTicksOut>
															<alphatype>straight</alphatype>
															<file id="file-29"/>
															<logginginfo>
																<description></description>
																<scene></scene>
																<shottake></shottake>
																<lognote></lognote>
																<good></good>
																<originalvideofilename></originalvideofilename>
																<originalaudiofilename></originalaudiofilename>
															</logginginfo>
															<colorinfo>
																<lut></lut>
																<lut1></lut1>
																<asc_sop></asc_sop>
																<asc_sat></asc_sat>
																<lut2></lut2>
															</colorinfo>
															<labels>
																<label2>Teal</label2>
															</labels>
														</clipitem>
														<clipitem id="clipitem-437">
															<masterclipid>masterclip-36</masterclipid>
															<name>Eyecandy Vertical Video Frame 2</name>
															<enabled>TRUE</enabled>
															<duration>5700</duration>
															<rate>
																<timebase>30</timebase>
																<ntsc>TRUE</ntsc>
															</rate>
															<start>2476</start>
															<end>3281</end>
															<in>2578</in>
															<out>3383</out>
															<pproTicksIn>21850270041600</pproTicksIn>
															<pproTicksOut>28673182137600</pproTicksOut>
															<alphatype>straight</alphatype>
															<file id="file-29"/>
															<logginginfo>
																<description></description>
																<scene></scene>
																<shottake></shottake>
																<lognote></lognote>
																<good></good>
																<originalvideofilename></originalvideofilename>
																<originalaudiofilename></originalaudiofilename>
															</logginginfo>
															<colorinfo>
																<lut></lut>
																<lut1></lut1>
																<asc_sop></asc_sop>
																<asc_sat></asc_sat>
																<lut2></lut2>
															</colorinfo>
															<labels>
																<label2>Teal</label2>
															</labels>
														</clipitem>
														<enabled>TRUE</enabled>
														<locked>FALSE</locked>
													</track>
													<track TL.SQTrackShy="0" TL.SQTrackExpandedHeight="25" TL.SQTrackExpanded="0" MZ.TrackTargeted="0">
														<enabled>TRUE</enabled>
														<locked>FALSE</locked>
													</track>
													<track TL.SQTrackShy="0" TL.SQTrackExpandedHeight="25" TL.SQTrackExpanded="0" MZ.TrackTargeted="0">
														<enabled>TRUE</enabled>
														<locked>FALSE</locked>
													</track>
													<track TL.SQTrackShy="0" TL.SQTrackExpandedHeight="25" TL.SQTrackExpanded="0" MZ.TrackTargeted="0">
														<enabled>TRUE</enabled>
														<locked>FALSE</locked>
													</track>
													<track TL.SQTrackShy="0" TL.SQTrackExpandedHeight="25" TL.SQTrackExpanded="0" MZ.TrackTargeted="0">
														<enabled>TRUE</enabled>
														<locked>FALSE</locked>
													</track>
													<track TL.SQTrackShy="0" TL.SQTrackExpandedHeight="25" TL.SQTrackExpanded="0" MZ.TrackTargeted="0">
														<enabled>TRUE</enabled>
														<locked>FALSE</locked>
													</track>
													<track TL.SQTrackShy="0" TL.SQTrackExpandedHeight="25" TL.SQTrackExpanded="0" MZ.TrackTargeted="0">
														<enabled>TRUE</enabled>
														<locked>FALSE</locked>
													</track>
													<track TL.SQTrackShy="0" TL.SQTrackExpandedHeight="25" TL.SQTrackExpanded="0" MZ.TrackTargeted="0">
														<enabled>TRUE</enabled>
														<locked>FALSE</locked>
													</track>
													<track TL.SQTrackShy="0" TL.SQTrackExpandedHeight="25" TL.SQTrackExpanded="0" MZ.TrackTargeted="0">
														<enabled>TRUE</enabled>
														<locked>FALSE</locked>
													</track>
												</video>
												<audio>
													<numOutputChannels>2</numOutputChannels>
													<format>
														<samplecharacteristics>
															<depth>16</depth>
															<samplerate>48000</samplerate>
														</samplecharacteristics>
													</format>
													<outputs>
														<group>
															<index>1</index>
															<numchannels>1</numchannels>
															<downmix>0</downmix>
															<channel>
																<index>1</index>
															</channel>
														</group>
														<group>
															<index>2</index>
															<numchannels>1</numchannels>
															<downmix>0</downmix>
															<channel>
																<index>2</index>
															</channel>
														</group>
													</outputs>
													<track TL.SQTrackAudioKeyframeStyle="0" TL.SQTrackShy="0" TL.SQTrackExpandedHeight="25" TL.SQTrackExpanded="0" MZ.TrackTargeted="1" PannerCurrentValue="0.5" PannerIsInverted="true" PannerStartKeyframe="-91445760000000000,0.5,0,0,0,0,0,0" PannerName="Balance" currentExplodedTrackIndex="0" totalExplodedTrackCount="2" premiereTrackType="Stereo">
														<clipitem id="clipitem-438" premiereChannelType="stereo">
															<masterclipid>masterclip-177</masterclipid>
															<name>ES_Rhaeti - Lukas Got Lucky.mp3</name>
															<enabled>TRUE</enabled>
															<duration>6889</duration>
															<rate>
																<timebase>30</timebase>
																<ntsc>TRUE</ntsc>
															</rate>
															<start>0</start>
															<end>3281</end>
															<in>0</in>
															<out>3281</out>
															<pproTicksIn>0</pproTicksIn>
															<pproTicksOut>27808664083200</pproTicksOut>
															<file id="file-153">
																<name>ES_Rhaeti - Lukas Got Lucky.mp3</name>
																<pathurl>file://localhost/Volumes/CONTENT/VOD%20CONTENT%20ARCHIVE/O&amp;O%20Archive%202023/Eye%20Candy/8%3a14%3a23/4_Project%20Files/Adobe%20Premiere%20Pro%20Video%20Previews/8%3a14%3a23.PRV/../../../3_Raw%20Files/Artlist%20-%20Chocolate%20Pistachio%20Treat/../../5_Assets/Music/ES_Rhaeti%20-%20Lukas%20Got%20Lucky.mp3</pathurl>
																<rate>
																	<timebase>30</timebase>
																	<ntsc>TRUE</ntsc>
																</rate>
																<duration>6889</duration>
																<timecode>
																	<rate>
																		<timebase>30</timebase>
																		<ntsc>TRUE</ntsc>
																	</rate>
																	<string>00;00;00;00</string>
																	<frame>0</frame>
																	<displayformat>DF</displayformat>
																</timecode>
																<media>
																	<audio>
																		<samplecharacteristics>
																			<depth>16</depth>
																			<samplerate>48000</samplerate>
																		</samplecharacteristics>
																		<channelcount>2</channelcount>
																	</audio>
																</media>
															</file>
															<sourcetrack>
																<mediatype>audio</mediatype>
																<trackindex>1</trackindex>
															</sourcetrack>
															<link>
																<linkclipref>clipitem-438</linkclipref>
																<mediatype>audio</mediatype>
																<trackindex>1</trackindex>
																<clipindex>1</clipindex>
																<groupindex>1</groupindex>
															</link>
															<link>
																<linkclipref>clipitem-439</linkclipref>
																<mediatype>audio</mediatype>
																<trackindex>2</trackindex>
																<clipindex>1</clipindex>
																<groupindex>1</groupindex>
															</link>
															<logginginfo>
																<description></description>
																<scene></scene>
																<shottake></shottake>
																<lognote></lognote>
																<good></good>
																<originalvideofilename></originalvideofilename>
																<originalaudiofilename></originalaudiofilename>
															</logginginfo>
															<colorinfo>
																<lut></lut>
																<lut1></lut1>
																<asc_sop></asc_sop>
																<asc_sat></asc_sat>
																<lut2></lut2>
															</colorinfo>
															<labels>
																<label2>Caribbean</label2>
															</labels>
														</clipitem>
														<enabled>TRUE</enabled>
														<locked>FALSE</locked>
														<filter>
															<effect>
																<name>Audio Levels</name>
																<effectid>audiolevels</effectid>
																<effectcategory>audiolevels</effectcategory>
																<effecttype>audiolevels</effecttype>
																<mediatype>audio</mediatype>
																<parameter authoringApp="PremierePro">
																	<parameterid>level</parameterid>
																	<name>Level</name>
																	<valuemin>0</valuemin>
																	<valuemax>3.98109</valuemax>
																	<value>0.706272</value>
																</parameter>
															</effect>
														</filter>
														<outputchannelindex>1</outputchannelindex>
													</track>
													<track TL.SQTrackAudioKeyframeStyle="0" TL.SQTrackShy="0" TL.SQTrackExpandedHeight="25" TL.SQTrackExpanded="0" MZ.TrackTargeted="1" PannerCurrentValue="0.5" PannerIsInverted="true" PannerStartKeyframe="-91445760000000000,0.5,0,0,0,0,0,0" PannerName="Balance" currentExplodedTrackIndex="1" totalExplodedTrackCount="2" premiereTrackType="Stereo">
														<clipitem id="clipitem-439" premiereChannelType="stereo">
															<masterclipid>masterclip-177</masterclipid>
															<name>ES_Rhaeti - Lukas Got Lucky.mp3</name>
															<enabled>TRUE</enabled>
															<duration>6889</duration>
															<rate>
																<timebase>30</timebase>
																<ntsc>TRUE</ntsc>
															</rate>
															<start>0</start>
															<end>3281</end>
															<in>0</in>
															<out>3281</out>
															<pproTicksIn>0</pproTicksIn>
															<pproTicksOut>27808664083200</pproTicksOut>
															<file id="file-153"/>
															<sourcetrack>
																<mediatype>audio</mediatype>
																<trackindex>2</trackindex>
															</sourcetrack>
															<link>
																<linkclipref>clipitem-438</linkclipref>
																<mediatype>audio</mediatype>
																<trackindex>1</trackindex>
																<clipindex>1</clipindex>
																<groupindex>1</groupindex>
															</link>
															<link>
																<linkclipref>clipitem-439</linkclipref>
																<mediatype>audio</mediatype>
																<trackindex>2</trackindex>
																<clipindex>1</clipindex>
																<groupindex>1</groupindex>
															</link>
															<logginginfo>
																<description></description>
																<scene></scene>
																<shottake></shottake>
																<lognote></lognote>
																<good></good>
																<originalvideofilename></originalvideofilename>
																<originalaudiofilename></originalaudiofilename>
															</logginginfo>
															<colorinfo>
																<lut></lut>
																<lut1></lut1>
																<asc_sop></asc_sop>
																<asc_sat></asc_sat>
																<lut2></lut2>
															</colorinfo>
															<labels>
																<label2>Caribbean</label2>
															</labels>
														</clipitem>
														<enabled>TRUE</enabled>
														<locked>FALSE</locked>
														<filter>
															<effect>
																<name>Audio Levels</name>
																<effectid>audiolevels</effectid>
																<effectcategory>audiolevels</effectcategory>
																<effecttype>audiolevels</effecttype>
																<mediatype>audio</mediatype>
																<parameter authoringApp="PremierePro">
																	<parameterid>level</parameterid>
																	<name>Level</name>
																	<valuemin>0</valuemin>
																	<valuemax>3.98109</valuemax>
																	<value>0.706272</value>
																</parameter>
															</effect>
														</filter>
														<outputchannelindex>2</outputchannelindex>
													</track>
													<track TL.SQTrackAudioKeyframeStyle="0" TL.SQTrackShy="0" TL.SQTrackExpandedHeight="25" TL.SQTrackExpanded="0" MZ.TrackTargeted="0" PannerCurrentValue="0.5" PannerIsInverted="true" PannerStartKeyframe="-91445760000000000,0.5,0,0,0,0,0,0" PannerName="Balance" currentExplodedTrackIndex="0" totalExplodedTrackCount="2" premiereTrackType="Stereo">
														<enabled>TRUE</enabled>
														<locked>FALSE</locked>
														<outputchannelindex>1</outputchannelindex>
													</track>
													<track TL.SQTrackAudioKeyframeStyle="0" TL.SQTrackShy="0" TL.SQTrackExpandedHeight="25" TL.SQTrackExpanded="0" MZ.TrackTargeted="0" PannerCurrentValue="0.5" PannerIsInverted="true" PannerStartKeyframe="-91445760000000000,0.5,0,0,0,0,0,0" PannerName="Balance" currentExplodedTrackIndex="1" totalExplodedTrackCount="2" premiereTrackType="Stereo">
														<enabled>TRUE</enabled>
														<locked>FALSE</locked>
														<outputchannelindex>2</outputchannelindex>
													</track>
													<track TL.SQTrackAudioKeyframeStyle="0" TL.SQTrackShy="0" TL.SQTrackExpandedHeight="25" TL.SQTrackExpanded="0" MZ.TrackTargeted="0" PannerCurrentValue="0.5" PannerIsInverted="true" PannerStartKeyframe="-91445760000000000,0.5,0,0,0,0,0,0" PannerName="Balance" currentExplodedTrackIndex="0" totalExplodedTrackCount="2" premiereTrackType="Stereo">
														<enabled>TRUE</enabled>
														<locked>FALSE</locked>
														<outputchannelindex>1</outputchannelindex>
													</track>
													<track TL.SQTrackAudioKeyframeStyle="0" TL.SQTrackShy="0" TL.SQTrackExpandedHeight="25" TL.SQTrackExpanded="0" MZ.TrackTargeted="0" PannerCurrentValue="0.5" PannerIsInverted="true" PannerStartKeyframe="-91445760000000000,0.5,0,0,0,0,0,0" PannerName="Balance" currentExplodedTrackIndex="1" totalExplodedTrackCount="2" premiereTrackType="Stereo">
														<enabled>TRUE</enabled>
														<locked>FALSE</locked>
														<outputchannelindex>2</outputchannelindex>
													</track>
													<track TL.SQTrackAudioKeyframeStyle="0" TL.SQTrackShy="0" TL.SQTrackExpandedHeight="25" TL.SQTrackExpanded="0" MZ.TrackTargeted="0" PannerCurrentValue="0.5" PannerIsInverted="true" PannerStartKeyframe="-91445760000000000,0.5,0,0,0,0,0,0" PannerName="Balance" currentExplodedTrackIndex="0" totalExplodedTrackCount="2" premiereTrackType="Stereo">
														<enabled>TRUE</enabled>
														<locked>FALSE</locked>
														<outputchannelindex>1</outputchannelindex>
													</track>
													<track TL.SQTrackAudioKeyframeStyle="0" TL.SQTrackShy="0" TL.SQTrackExpandedHeight="25" TL.SQTrackExpanded="0" MZ.TrackTargeted="0" PannerCurrentValue="0.5" PannerIsInverted="true" PannerStartKeyframe="-91445760000000000,0.5,0,0,0,0,0,0" PannerName="Balance" currentExplodedTrackIndex="1" totalExplodedTrackCount="2" premiereTrackType="Stereo">
														<enabled>TRUE</enabled>
														<locked>FALSE</locked>
														<outputchannelindex>2</outputchannelindex>
													</track>
													<track TL.SQTrackAudioKeyframeStyle="0" TL.SQTrackShy="0" TL.SQTrackExpandedHeight="25" TL.SQTrackExpanded="0" MZ.TrackTargeted="0" PannerCurrentValue="0.5" PannerIsInverted="true" PannerStartKeyframe="-91445760000000000,0.5,0,0,0,0,0,0" PannerName="Balance" currentExplodedTrackIndex="0" totalExplodedTrackCount="2" premiereTrackType="Stereo">
														<enabled>TRUE</enabled>
														<locked>FALSE</locked>
														<outputchannelindex>1</outputchannelindex>
													</track>
													<track TL.SQTrackAudioKeyframeStyle="0" TL.SQTrackShy="0" TL.SQTrackExpandedHeight="25" TL.SQTrackExpanded="0" MZ.TrackTargeted="0" PannerCurrentValue="0.5" PannerIsInverted="true" PannerStartKeyframe="-91445760000000000,0.5,0,0,0,0,0,0" PannerName="Balance" currentExplodedTrackIndex="1" totalExplodedTrackCount="2" premiereTrackType="Stereo">
														<enabled>TRUE</enabled>
														<locked>FALSE</locked>
														<outputchannelindex>2</outputchannelindex>
													</track>
													<track TL.SQTrackAudioKeyframeStyle="0" TL.SQTrackShy="0" TL.SQTrackExpandedHeight="25" TL.SQTrackExpanded="0" MZ.TrackTargeted="0" PannerCurrentValue="0.5" PannerIsInverted="true" PannerStartKeyframe="-91445760000000000,0.5,0,0,0,0,0,0" PannerName="Balance" currentExplodedTrackIndex="0" totalExplodedTrackCount="2" premiereTrackType="Stereo">
														<enabled>TRUE</enabled>
														<locked>FALSE</locked>
														<outputchannelindex>1</outputchannelindex>
													</track>
													<track TL.SQTrackAudioKeyframeStyle="0" TL.SQTrackShy="0" TL.SQTrackExpandedHeight="25" TL.SQTrackExpanded="0" MZ.TrackTargeted="0" PannerCurrentValue="0.5" PannerIsInverted="true" PannerStartKeyframe="-91445760000000000,0.5,0,0,0,0,0,0" PannerName="Balance" currentExplodedTrackIndex="1" totalExplodedTrackCount="2" premiereTrackType="Stereo">
														<enabled>TRUE</enabled>
														<locked>FALSE</locked>
														<outputchannelindex>2</outputchannelindex>
													</track>
													<track TL.SQTrackAudioKeyframeStyle="0" TL.SQTrackShy="0" TL.SQTrackExpandedHeight="25" TL.SQTrackExpanded="0" MZ.TrackTargeted="0" PannerCurrentValue="0.5" PannerIsInverted="true" PannerStartKeyframe="-91445760000000000,0.5,0,0,0,0,0,0" PannerName="Balance" currentExplodedTrackIndex="0" totalExplodedTrackCount="2" premiereTrackType="Stereo">
														<enabled>TRUE</enabled>
														<locked>FALSE</locked>
														<outputchannelindex>1</outputchannelindex>
													</track>
													<track TL.SQTrackAudioKeyframeStyle="0" TL.SQTrackShy="0" TL.SQTrackExpandedHeight="25" TL.SQTrackExpanded="0" MZ.TrackTargeted="0" PannerCurrentValue="0.5" PannerIsInverted="true" PannerStartKeyframe="-91445760000000000,0.5,0,0,0,0,0,0" PannerName="Balance" currentExplodedTrackIndex="1" totalExplodedTrackCount="2" premiereTrackType="Stereo">
														<enabled>TRUE</enabled>
														<locked>FALSE</locked>
														<outputchannelindex>2</outputchannelindex>
													</track>
													<track TL.SQTrackAudioKeyframeStyle="0" TL.SQTrackShy="0" TL.SQTrackExpandedHeight="25" TL.SQTrackExpanded="0" MZ.TrackTargeted="0" PannerCurrentValue="0.5" PannerIsInverted="true" PannerStartKeyframe="-91445760000000000,0.5,0,0,0,0,0,0" PannerName="Balance" currentExplodedTrackIndex="0" totalExplodedTrackCount="2" premiereTrackType="Stereo">
														<enabled>TRUE</enabled>
														<locked>FALSE</locked>
														<outputchannelindex>1</outputchannelindex>
													</track>
													<track TL.SQTrackAudioKeyframeStyle="0" TL.SQTrackShy="0" TL.SQTrackExpandedHeight="25" TL.SQTrackExpanded="0" MZ.TrackTargeted="0" PannerCurrentValue="0.5" PannerIsInverted="true" PannerStartKeyframe="-91445760000000000,0.5,0,0,0,0,0,0" PannerName="Balance" currentExplodedTrackIndex="1" totalExplodedTrackCount="2" premiereTrackType="Stereo">
														<enabled>TRUE</enabled>
														<locked>FALSE</locked>
														<outputchannelindex>2</outputchannelindex>
													</track>
													<track TL.SQTrackAudioKeyframeStyle="0" TL.SQTrackShy="0" TL.SQTrackExpandedHeight="25" TL.SQTrackExpanded="0" MZ.TrackTargeted="0" PannerCurrentValue="0.5" PannerIsInverted="true" PannerStartKeyframe="-91445760000000000,0.5,0,0,0,0,0,0" PannerName="Balance" currentExplodedTrackIndex="0" totalExplodedTrackCount="2" premiereTrackType="Stereo">
														<enabled>TRUE</enabled>
														<locked>FALSE</locked>
														<outputchannelindex>1</outputchannelindex>
													</track>
													<track TL.SQTrackAudioKeyframeStyle="0" TL.SQTrackShy="0" TL.SQTrackExpandedHeight="25" TL.SQTrackExpanded="0" MZ.TrackTargeted="0" PannerCurrentValue="0.5" PannerIsInverted="true" PannerStartKeyframe="-91445760000000000,0.5,0,0,0,0,0,0" PannerName="Balance" currentExplodedTrackIndex="1" totalExplodedTrackCount="2" premiereTrackType="Stereo">
														<enabled>TRUE</enabled>
														<locked>FALSE</locked>
														<outputchannelindex>2</outputchannelindex>
													</track>
													<track TL.SQTrackAudioKeyframeStyle="0" TL.SQTrackShy="0" TL.SQTrackExpandedHeight="25" TL.SQTrackExpanded="0" MZ.TrackTargeted="0" PannerCurrentValue="0.5" PannerIsInverted="true" PannerStartKeyframe="-91445760000000000,0.5,0,0,0,0,0,0" PannerName="Balance" currentExplodedTrackIndex="0" totalExplodedTrackCount="2" premiereTrackType="Stereo">
														<enabled>TRUE</enabled>
														<locked>FALSE</locked>
														<outputchannelindex>1</outputchannelindex>
													</track>
													<track TL.SQTrackAudioKeyframeStyle="0" TL.SQTrackShy="0" TL.SQTrackExpandedHeight="25" TL.SQTrackExpanded="0" MZ.TrackTargeted="0" PannerCurrentValue="0.5" PannerIsInverted="true" PannerStartKeyframe="-91445760000000000,0.5,0,0,0,0,0,0" PannerName="Balance" currentExplodedTrackIndex="1" totalExplodedTrackCount="2" premiereTrackType="Stereo">
														<enabled>TRUE</enabled>
														<locked>FALSE</locked>
														<outputchannelindex>2</outputchannelindex>
													</track>
												</audio>
											</media>
											<timecode>
												<rate>
													<timebase>30</timebase>
													<ntsc>TRUE</ntsc>
												</rate>
												<string>00;00;00;00</string>
												<frame>0</frame>
												<displayformat>DF</displayformat>
											</timecode>
											<logginginfo>
												<description></description>
												<scene></scene>
												<shottake></shottake>
												<lognote></lognote>
												<good></good>
												<originalvideofilename></originalvideofilename>
												<originalaudiofilename></originalaudiofilename>
											</logginginfo>
										</sequence>
										<link>
											<linkclipref>clipitem-427</linkclipref>
											<mediatype>video</mediatype>
											<trackindex>1</trackindex>
											<clipindex>2</clipindex>
										</link>
										<link>
											<linkclipref>clipitem-447</linkclipref>
											<mediatype>audio</mediatype>
											<trackindex>1</trackindex>
											<clipindex>3</clipindex>
											<groupindex>1</groupindex>
										</link>
										<link>
											<linkclipref>clipitem-449</linkclipref>
											<mediatype>audio</mediatype>
											<trackindex>2</trackindex>
											<clipindex>3</clipindex>
											<groupindex>1</groupindex>
										</link>
										<labels>
											<label2>Forest</label2>
										</labels>
									</clipitem>
									<enabled>TRUE</enabled>
									<locked>FALSE</locked>
								</track>
								<track TL.SQTrackShy="0" TL.SQTrackExpandedHeight="25" TL.SQTrackExpanded="0" MZ.TrackTargeted="0">
									<clipitem id="clipitem-440">
										<masterclipid>masterclip-16</masterclipid>
										<name>ATM BUG_1080_Top Right.png</name>
										<enabled>TRUE</enabled>
										<duration>1294705</duration>
										<rate>
											<timebase>30</timebase>
											<ntsc>TRUE</ntsc>
										</rate>
										<start>82</start>
										<end>5146</end>
										<in>107892</in>
										<out>112956</out>
										<pproTicksIn>914456685542400</pproTicksIn>
										<pproTicksOut>957377464243200</pproTicksOut>
										<alphatype>straight</alphatype>
										<file id="file-14"/>
										<logginginfo>
											<description></description>
											<scene></scene>
											<shottake></shottake>
											<lognote></lognote>
											<good></good>
											<originalvideofilename></originalvideofilename>
											<originalaudiofilename></originalaudiofilename>
										</logginginfo>
										<colorinfo>
											<lut></lut>
											<lut1></lut1>
											<asc_sop></asc_sop>
											<asc_sat></asc_sat>
											<lut2></lut2>
										</colorinfo>
										<labels>
										</labels>
									</clipitem>
									<enabled>TRUE</enabled>
									<locked>FALSE</locked>
								</track>
								<track TL.SQTrackShy="0" TL.SQTrackExpandedHeight="25" TL.SQTrackExpanded="0" MZ.TrackTargeted="0">
									<clipitem id="clipitem-441">
										<masterclipid>masterclip-178</masterclipid>
										<name>Perfect Pistachio Pirouettes</name>
										<enabled>TRUE</enabled>
										<duration>6293</duration>
										<rate>
											<timebase>30</timebase>
											<ntsc>TRUE</ntsc>
										</rate>
										<start>115</start>
										<end>1831</end>
										<in>30</in>
										<out>1746</out>
										<pproTicksIn>254270016000</pproTicksIn>
										<pproTicksOut>14798514931200</pproTicksOut>
										<alphatype>straight</alphatype>
										<pixelaspectratio>square</pixelaspectratio>
										<anamorphic>FALSE</anamorphic>
										<file id="file-154">
											<name>EYECANDY_L3RD_JL_V03/EYECANDY_L3rd_JL_V04.aep</name>
											<pathurl>file://localhost/Volumes/ATM%201/EYE%20CANDY/Project%20Template/5_Assets/Eye%20Candy%20Mograph/EYECANDY_L3rd_JL_V04%20folder/EYECANDY_L3rd_JL_V04.aep</pathurl>
											<rate>
												<timebase>30</timebase>
												<ntsc>FALSE</ntsc>
											</rate>
											<duration>6300</duration>
											<timecode>
												<rate>
													<timebase>30</timebase>
													<ntsc>FALSE</ntsc>
												</rate>
												<string>00:00:00:00</string>
												<frame>0</frame>
												<displayformat>NDF</displayformat>
											</timecode>
											<media>
												<video>
													<samplecharacteristics>
														<rate>
															<timebase>30</timebase>
															<ntsc>FALSE</ntsc>
														</rate>
														<width>1920</width>
														<height>1080</height>
														<anamorphic>FALSE</anamorphic>
														<pixelaspectratio>square</pixelaspectratio>
														<fielddominance>lower</fielddominance>
													</samplecharacteristics>
												</video>
											</media>
										</file>
										<logginginfo>
											<description></description>
											<scene></scene>
											<shottake></shottake>
											<lognote></lognote>
											<good></good>
											<originalvideofilename></originalvideofilename>
											<originalaudiofilename></originalaudiofilename>
										</logginginfo>
										<colorinfo>
											<lut></lut>
											<lut1></lut1>
											<asc_sop></asc_sop>
											<asc_sat></asc_sat>
											<lut2></lut2>
										</colorinfo>
									</clipitem>
									<clipitem id="clipitem-442">
										<masterclipid>masterclip-179</masterclipid>
										<name>Cinnamon Spiced Bites</name>
										<enabled>TRUE</enabled>
										<duration>6293</duration>
										<rate>
											<timebase>30</timebase>
											<ntsc>TRUE</ntsc>
										</rate>
										<start>1930</start>
										<end>5146</end>
										<in>30</in>
										<out>3246</out>
										<pproTicksIn>254270016000</pproTicksIn>
										<pproTicksOut>27512015731200</pproTicksOut>
										<alphatype>straight</alphatype>
										<pixelaspectratio>square</pixelaspectratio>
										<anamorphic>FALSE</anamorphic>
										<file id="file-155">
											<name>EYECANDY_L3RD_JL_V03/EYECANDY_L3rd_JL_V04.aep</name>
											<pathurl>file://localhost/Volumes/ATM%201/EYE%20CANDY/Project%20Template/5_Assets/Eye%20Candy%20Mograph/EYECANDY_L3rd_JL_V04%20folder/EYECANDY_L3rd_JL_V04.aep</pathurl>
											<rate>
												<timebase>30</timebase>
												<ntsc>FALSE</ntsc>
											</rate>
											<duration>6300</duration>
											<timecode>
												<rate>
													<timebase>30</timebase>
													<ntsc>FALSE</ntsc>
												</rate>
												<string>00:00:00:00</string>
												<frame>0</frame>
												<displayformat>NDF</displayformat>
											</timecode>
											<media>
												<video>
													<samplecharacteristics>
														<rate>
															<timebase>30</timebase>
															<ntsc>FALSE</ntsc>
														</rate>
														<width>1920</width>
														<height>1080</height>
														<anamorphic>FALSE</anamorphic>
														<pixelaspectratio>square</pixelaspectratio>
														<fielddominance>lower</fielddominance>
													</samplecharacteristics>
												</video>
											</media>
										</file>
										<logginginfo>
											<description></description>
											<scene></scene>
											<shottake></shottake>
											<lognote></lognote>
											<good></good>
											<originalvideofilename></originalvideofilename>
											<originalaudiofilename></originalaudiofilename>
										</logginginfo>
										<colorinfo>
											<lut></lut>
											<lut1></lut1>
											<asc_sop></asc_sop>
											<asc_sat></asc_sat>
											<lut2></lut2>
										</colorinfo>
									</clipitem>
									<enabled>TRUE</enabled>
									<locked>FALSE</locked>
								</track>
								<track TL.SQTrackShy="0" TL.SQTrackExpandedHeight="25" TL.SQTrackExpanded="0" MZ.TrackTargeted="0">
									<clipitem id="clipitem-443">
										<masterclipid>masterclip-19</masterclipid>
										<name>Intro</name>
										<enabled>TRUE</enabled>
										<duration>160</duration>
										<rate>
											<timebase>30</timebase>
											<ntsc>TRUE</ntsc>
										</rate>
										<start>0</start>
										<end>115</end>
										<in>0</in>
										<out>115</out>
										<pproTicksIn>0</pproTicksIn>
										<pproTicksOut>974701728000</pproTicksOut>
										<sequence id="sequence-4"/>
											<marker>
												<comment></comment>
												<name></name>
												<in>82</in>
												<out>-1</out>
											</marker>
										<link>
											<linkclipref>clipitem-443</linkclipref>
											<mediatype>video</mediatype>
											<trackindex>4</trackindex>
											<clipindex>1</clipindex>
										</link>
										<link>
											<linkclipref>clipitem-450</linkclipref>
											<mediatype>audio</mediatype>
											<trackindex>3</trackindex>
											<clipindex>1</clipindex>
											<groupindex>1</groupindex>
										</link>
										<link>
											<linkclipref>clipitem-453</linkclipref>
											<mediatype>audio</mediatype>
											<trackindex>4</trackindex>
											<clipindex>1</clipindex>
											<groupindex>1</groupindex>
										</link>
										<labels>
											<label2>Forest</label2>
										</labels>
									</clipitem>
									<clipitem id="clipitem-444">
										<masterclipid>masterclip-21</masterclipid>
										<name>Transition 2</name>
										<enabled>TRUE</enabled>
										<duration>160</duration>
										<rate>
											<timebase>30</timebase>
											<ntsc>TRUE</ntsc>
										</rate>
										<start>1811</start>
										<end>1930</end>
										<in>0</in>
										<out>119</out>
										<pproTicksIn>0</pproTicksIn>
										<pproTicksOut>1008604396800</pproTicksOut>
										<sequence id="sequence-5"/>
											<marker>
												<comment></comment>
												<name></name>
												<in>54</in>
												<out>-1</out>
											</marker>
											<marker>
												<comment></comment>
												<name></name>
												<in>20</in>
												<out>-1</out>
											</marker>
										<link>
											<linkclipref>clipitem-444</linkclipref>
											<mediatype>video</mediatype>
											<trackindex>4</trackindex>
											<clipindex>2</clipindex>
										</link>
										<link>
											<linkclipref>clipitem-451</linkclipref>
											<mediatype>audio</mediatype>
											<trackindex>3</trackindex>
											<clipindex>2</clipindex>
											<groupindex>1</groupindex>
										</link>
										<link>
											<linkclipref>clipitem-454</linkclipref>
											<mediatype>audio</mediatype>
											<trackindex>4</trackindex>
											<clipindex>2</clipindex>
											<groupindex>1</groupindex>
										</link>
										<labels>
											<label2>Forest</label2>
										</labels>
									</clipitem>
									<clipitem id="clipitem-445">
										<masterclipid>masterclip-23</masterclipid>
										<name>Outro</name>
										<enabled>TRUE</enabled>
										<duration>160</duration>
										<rate>
											<timebase>30</timebase>
											<ntsc>TRUE</ntsc>
										</rate>
										<start>5104</start>
										<end>5241</end>
										<in>0</in>
										<out>137</out>
										<pproTicksIn>0</pproTicksIn>
										<pproTicksOut>1161166406400</pproTicksOut>
										<sequence id="sequence-6"/>
											<marker>
												<comment></comment>
												<name></name>
												<in>42</in>
												<out>-1</out>
											</marker>
										<link>
											<linkclipref>clipitem-445</linkclipref>
											<mediatype>video</mediatype>
											<trackindex>4</trackindex>
											<clipindex>3</clipindex>
										</link>
										<link>
											<linkclipref>clipitem-452</linkclipref>
											<mediatype>audio</mediatype>
											<trackindex>3</trackindex>
											<clipindex>3</clipindex>
											<groupindex>1</groupindex>
										</link>
										<link>
											<linkclipref>clipitem-455</linkclipref>
											<mediatype>audio</mediatype>
											<trackindex>4</trackindex>
											<clipindex>3</clipindex>
											<groupindex>1</groupindex>
										</link>
										<labels>
											<label2>Forest</label2>
										</labels>
									</clipitem>
									<enabled>TRUE</enabled>
									<locked>FALSE</locked>
								</track>
							</video>
							<audio>
								<numOutputChannels>2</numOutputChannels>
								<format>
									<samplecharacteristics>
										<depth>16</depth>
										<samplerate>48000</samplerate>
									</samplecharacteristics>
								</format>
								<outputs>
									<group>
										<index>1</index>
										<numchannels>1</numchannels>
										<downmix>0</downmix>
										<channel>
											<index>1</index>
										</channel>
									</group>
									<group>
										<index>2</index>
										<numchannels>1</numchannels>
										<downmix>0</downmix>
										<channel>
											<index>2</index>
										</channel>
									</group>
								</outputs>
								<track TL.SQTrackAudioKeyframeStyle="0" TL.SQTrackShy="0" TL.SQTrackExpandedHeight="25" TL.SQTrackExpanded="0" MZ.TrackTargeted="1" PannerCurrentValue="0.5" PannerIsInverted="true" PannerStartKeyframe="-91445760000000000,0.5,0,0,0,0,0,0" PannerName="Balance" currentExplodedTrackIndex="0" totalExplodedTrackCount="2" premiereTrackType="Stereo">
									<clipitem id="clipitem-446" premiereChannelType="stereo">
										<masterclipid>masterclip-160</masterclipid>
										<name>Perfect Pistachio Pirouettes_1</name>
										<enabled>TRUE</enabled>
										<duration>1795</duration>
										<rate>
											<timebase>30</timebase>
											<ntsc>TRUE</ntsc>
										</rate>
										<start>82</start>
										<end>-1</end>
										<in>0</in>
										<out>1749</out>
										<pproTicksIn>0</pproTicksIn>
										<pproTicksOut>14823941932800</pproTicksOut>
										<sequence id="sequence-32"/>
										<sourcetrack>
											<mediatype>audio</mediatype>
											<trackindex>0</trackindex>
										</sourcetrack>
										<link>
											<linkclipref>clipitem-414</linkclipref>
											<mediatype>video</mediatype>
											<trackindex>1</trackindex>
											<clipindex>1</clipindex>
										</link>
										<link>
											<linkclipref>clipitem-446</linkclipref>
											<mediatype>audio</mediatype>
											<trackindex>1</trackindex>
											<clipindex>1</clipindex>
											<groupindex>1</groupindex>
										</link>
										<link>
											<linkclipref>clipitem-448</linkclipref>
											<mediatype>audio</mediatype>
											<trackindex>2</trackindex>
											<clipindex>1</clipindex>
											<groupindex>1</groupindex>
										</link>
										<labels>
											<label2>Forest</label2>
										</labels>
									</clipitem>
									<transitionitem>
										<start>1801</start>
										<end>1831</end>
										<pproTicksIn>15264676627200</pproTicksIn>
										<pproTicksOut>15518946643200</pproTicksOut>
										<alignment>end-black</alignment>
										<cutPointTicks>254270016000</cutPointTicks>
										<rate>
											<timebase>30</timebase>
											<ntsc>TRUE</ntsc>
										</rate>
										<effect>
											<name>Cross Fade ( 0dB)</name>
											<effectid>KGAudioTransCrossFade0dB</effectid>
											<effecttype>transition</effecttype>
											<mediatype>audio</mediatype>
											<wipecode>0</wipecode>
											<wipeaccuracy>100</wipeaccuracy>
											<startratio>0</startratio>
											<endratio>1</endratio>
											<reverse>FALSE</reverse>
										</effect>
									</transitionitem>
									<clipitem id="clipitem-447" premiereChannelType="stereo">
										<masterclipid>masterclip-172</masterclipid>
										<name>Cinnamon Spiced Bites_2</name>
										<enabled>TRUE</enabled>
										<duration>5700</duration>
										<rate>
											<timebase>30</timebase>
											<ntsc>TRUE</ntsc>
										</rate>
										<start>1865</start>
										<end>-1</end>
										<in>0</in>
										<out>3281</out>
										<pproTicksIn>0</pproTicksIn>
										<pproTicksOut>27808664083200</pproTicksOut>
										<sequence id="sequence-33"/>
										<sourcetrack>
											<mediatype>audio</mediatype>
											<trackindex>0</trackindex>
										</sourcetrack>
										<link>
											<linkclipref>clipitem-427</linkclipref>
											<mediatype>video</mediatype>
											<trackindex>1</trackindex>
											<clipindex>2</clipindex>
										</link>
										<link>
											<linkclipref>clipitem-447</linkclipref>
											<mediatype>audio</mediatype>
											<trackindex>1</trackindex>
											<clipindex>3</clipindex>
											<groupindex>1</groupindex>
										</link>
										<link>
											<linkclipref>clipitem-449</linkclipref>
											<mediatype>audio</mediatype>
											<trackindex>2</trackindex>
											<clipindex>3</clipindex>
											<groupindex>1</groupindex>
										</link>
										<labels>
											<label2>Forest</label2>
										</labels>
									</clipitem>
									<transitionitem>
										<start>5116</start>
										<end>5146</end>
										<pproTicksIn>43361513395200</pproTicksIn>
										<pproTicksOut>43615783411200</pproTicksOut>
										<alignment>end-black</alignment>
										<cutPointTicks>254270016000</cutPointTicks>
										<rate>
											<timebase>30</timebase>
											<ntsc>TRUE</ntsc>
										</rate>
										<effect>
											<name>Cross Fade ( 0dB)</name>
											<effectid>KGAudioTransCrossFade0dB</effectid>
											<effecttype>transition</effecttype>
											<mediatype>audio</mediatype>
											<wipecode>0</wipecode>
											<wipeaccuracy>100</wipeaccuracy>
											<startratio>0</startratio>
											<endratio>1</endratio>
											<reverse>FALSE</reverse>
										</effect>
									</transitionitem>
									<enabled>TRUE</enabled>
									<locked>FALSE</locked>
									<outputchannelindex>1</outputchannelindex>
								</track>
								<track TL.SQTrackAudioKeyframeStyle="0" TL.SQTrackShy="0" TL.SQTrackExpandedHeight="25" TL.SQTrackExpanded="0" MZ.TrackTargeted="1" PannerCurrentValue="0.5" PannerIsInverted="true" PannerStartKeyframe="-91445760000000000,0.5,0,0,0,0,0,0" PannerName="Balance" currentExplodedTrackIndex="1" totalExplodedTrackCount="2" premiereTrackType="Stereo">
									<clipitem id="clipitem-448" premiereChannelType="stereo">
										<masterclipid>masterclip-160</masterclipid>
										<name>Perfect Pistachio Pirouettes_1</name>
										<enabled>TRUE</enabled>
										<duration>1795</duration>
										<rate>
											<timebase>30</timebase>
											<ntsc>TRUE</ntsc>
										</rate>
										<start>82</start>
										<end>-1</end>
										<in>0</in>
										<out>1749</out>
										<pproTicksIn>0</pproTicksIn>
										<pproTicksOut>14823941932800</pproTicksOut>
										<sequence id="sequence-32"/>
										<sourcetrack>
											<mediatype>audio</mediatype>
											<trackindex>1</trackindex>
										</sourcetrack>
										<link>
											<linkclipref>clipitem-414</linkclipref>
											<mediatype>video</mediatype>
											<trackindex>1</trackindex>
											<clipindex>1</clipindex>
										</link>
										<link>
											<linkclipref>clipitem-446</linkclipref>
											<mediatype>audio</mediatype>
											<trackindex>1</trackindex>
											<clipindex>1</clipindex>
											<groupindex>1</groupindex>
										</link>
										<link>
											<linkclipref>clipitem-448</linkclipref>
											<mediatype>audio</mediatype>
											<trackindex>2</trackindex>
											<clipindex>1</clipindex>
											<groupindex>1</groupindex>
										</link>
										<labels>
											<label2>Forest</label2>
										</labels>
									</clipitem>
									<transitionitem>
										<start>1801</start>
										<end>1831</end>
										<pproTicksIn>15264676627200</pproTicksIn>
										<pproTicksOut>15518946643200</pproTicksOut>
										<alignment>end-black</alignment>
										<cutPointTicks>254270016000</cutPointTicks>
										<rate>
											<timebase>30</timebase>
											<ntsc>TRUE</ntsc>
										</rate>
										<effect>
											<name>Cross Fade ( 0dB)</name>
											<effectid>KGAudioTransCrossFade0dB</effectid>
											<effecttype>transition</effecttype>
											<mediatype>audio</mediatype>
											<wipecode>0</wipecode>
											<wipeaccuracy>100</wipeaccuracy>
											<startratio>0</startratio>
											<endratio>1</endratio>
											<reverse>FALSE</reverse>
										</effect>
									</transitionitem>
									<clipitem id="clipitem-449" premiereChannelType="stereo">
										<masterclipid>masterclip-172</masterclipid>
										<name>Cinnamon Spiced Bites_2</name>
										<enabled>TRUE</enabled>
										<duration>5700</duration>
										<rate>
											<timebase>30</timebase>
											<ntsc>TRUE</ntsc>
										</rate>
										<start>1865</start>
										<end>-1</end>
										<in>0</in>
										<out>3281</out>
										<pproTicksIn>0</pproTicksIn>
										<pproTicksOut>27808664083200</pproTicksOut>
										<sequence id="sequence-33"/>
										<sourcetrack>
											<mediatype>audio</mediatype>
											<trackindex>1</trackindex>
										</sourcetrack>
										<link>
											<linkclipref>clipitem-427</linkclipref>
											<mediatype>video</mediatype>
											<trackindex>1</trackindex>
											<clipindex>2</clipindex>
										</link>
										<link>
											<linkclipref>clipitem-447</linkclipref>
											<mediatype>audio</mediatype>
											<trackindex>1</trackindex>
											<clipindex>3</clipindex>
											<groupindex>1</groupindex>
										</link>
										<link>
											<linkclipref>clipitem-449</linkclipref>
											<mediatype>audio</mediatype>
											<trackindex>2</trackindex>
											<clipindex>3</clipindex>
											<groupindex>1</groupindex>
										</link>
										<labels>
											<label2>Forest</label2>
										</labels>
									</clipitem>
									<transitionitem>
										<start>5116</start>
										<end>5146</end>
										<pproTicksIn>43361513395200</pproTicksIn>
										<pproTicksOut>43615783411200</pproTicksOut>
										<alignment>end-black</alignment>
										<cutPointTicks>254270016000</cutPointTicks>
										<rate>
											<timebase>30</timebase>
											<ntsc>TRUE</ntsc>
										</rate>
										<effect>
											<name>Cross Fade ( 0dB)</name>
											<effectid>KGAudioTransCrossFade0dB</effectid>
											<effecttype>transition</effecttype>
											<mediatype>audio</mediatype>
											<wipecode>0</wipecode>
											<wipeaccuracy>100</wipeaccuracy>
											<startratio>0</startratio>
											<endratio>1</endratio>
											<reverse>FALSE</reverse>
										</effect>
									</transitionitem>
									<enabled>TRUE</enabled>
									<locked>FALSE</locked>
									<outputchannelindex>2</outputchannelindex>
								</track>
								<track TL.SQTrackAudioKeyframeStyle="0" TL.SQTrackShy="0" TL.SQTrackExpandedHeight="25" TL.SQTrackExpanded="0" MZ.TrackTargeted="1" PannerCurrentValue="0.5" PannerIsInverted="true" PannerStartKeyframe="-91445760000000000,0.5,0,0,0,0,0,0" PannerName="Balance" currentExplodedTrackIndex="0" totalExplodedTrackCount="2" premiereTrackType="Stereo">
									<clipitem id="clipitem-450" premiereChannelType="stereo">
										<masterclipid>masterclip-19</masterclipid>
										<name>Intro</name>
										<enabled>TRUE</enabled>
										<duration>160</duration>
										<rate>
											<timebase>30</timebase>
											<ntsc>TRUE</ntsc>
										</rate>
										<start>0</start>
										<end>115</end>
										<in>0</in>
										<out>115</out>
										<pproTicksIn>0</pproTicksIn>
										<pproTicksOut>974701728000</pproTicksOut>
										<sequence id="sequence-4"/>
										<sourcetrack>
											<mediatype>audio</mediatype>
											<trackindex>0</trackindex>
										</sourcetrack>
											<marker>
												<comment></comment>
												<name></name>
												<in>82</in>
												<out>-1</out>
											</marker>
										<link>
											<linkclipref>clipitem-443</linkclipref>
											<mediatype>video</mediatype>
											<trackindex>4</trackindex>
											<clipindex>1</clipindex>
										</link>
										<link>
											<linkclipref>clipitem-450</linkclipref>
											<mediatype>audio</mediatype>
											<trackindex>3</trackindex>
											<clipindex>1</clipindex>
											<groupindex>1</groupindex>
										</link>
										<link>
											<linkclipref>clipitem-453</linkclipref>
											<mediatype>audio</mediatype>
											<trackindex>4</trackindex>
											<clipindex>1</clipindex>
											<groupindex>1</groupindex>
										</link>
										<labels>
											<label2>Forest</label2>
										</labels>
									</clipitem>
									<clipitem id="clipitem-451" premiereChannelType="stereo">
										<masterclipid>masterclip-21</masterclipid>
										<name>Transition 2</name>
										<enabled>TRUE</enabled>
										<duration>160</duration>
										<rate>
											<timebase>30</timebase>
											<ntsc>TRUE</ntsc>
										</rate>
										<start>1811</start>
										<end>1930</end>
										<in>0</in>
										<out>119</out>
										<pproTicksIn>0</pproTicksIn>
										<pproTicksOut>1008604396800</pproTicksOut>
										<sequence id="sequence-5"/>
										<sourcetrack>
											<mediatype>audio</mediatype>
											<trackindex>0</trackindex>
										</sourcetrack>
											<marker>
												<comment></comment>
												<name></name>
												<in>54</in>
												<out>-1</out>
											</marker>
											<marker>
												<comment></comment>
												<name></name>
												<in>20</in>
												<out>-1</out>
											</marker>
										<link>
											<linkclipref>clipitem-444</linkclipref>
											<mediatype>video</mediatype>
											<trackindex>4</trackindex>
											<clipindex>2</clipindex>
										</link>
										<link>
											<linkclipref>clipitem-451</linkclipref>
											<mediatype>audio</mediatype>
											<trackindex>3</trackindex>
											<clipindex>2</clipindex>
											<groupindex>1</groupindex>
										</link>
										<link>
											<linkclipref>clipitem-454</linkclipref>
											<mediatype>audio</mediatype>
											<trackindex>4</trackindex>
											<clipindex>2</clipindex>
											<groupindex>1</groupindex>
										</link>
										<labels>
											<label2>Forest</label2>
										</labels>
									</clipitem>
									<clipitem id="clipitem-452" premiereChannelType="stereo">
										<masterclipid>masterclip-23</masterclipid>
										<name>Outro</name>
										<enabled>TRUE</enabled>
										<duration>160</duration>
										<rate>
											<timebase>30</timebase>
											<ntsc>TRUE</ntsc>
										</rate>
										<start>5104</start>
										<end>5241</end>
										<in>0</in>
										<out>137</out>
										<pproTicksIn>0</pproTicksIn>
										<pproTicksOut>1161166406400</pproTicksOut>
										<sequence id="sequence-6"/>
										<sourcetrack>
											<mediatype>audio</mediatype>
											<trackindex>0</trackindex>
										</sourcetrack>
											<marker>
												<comment></comment>
												<name></name>
												<in>42</in>
												<out>-1</out>
											</marker>
										<link>
											<linkclipref>clipitem-445</linkclipref>
											<mediatype>video</mediatype>
											<trackindex>4</trackindex>
											<clipindex>3</clipindex>
										</link>
										<link>
											<linkclipref>clipitem-452</linkclipref>
											<mediatype>audio</mediatype>
											<trackindex>3</trackindex>
											<clipindex>3</clipindex>
											<groupindex>1</groupindex>
										</link>
										<link>
											<linkclipref>clipitem-455</linkclipref>
											<mediatype>audio</mediatype>
											<trackindex>4</trackindex>
											<clipindex>3</clipindex>
											<groupindex>1</groupindex>
										</link>
										<labels>
											<label2>Forest</label2>
										</labels>
									</clipitem>
									<enabled>TRUE</enabled>
									<locked>FALSE</locked>
									<outputchannelindex>1</outputchannelindex>
								</track>
								<track TL.SQTrackAudioKeyframeStyle="0" TL.SQTrackShy="0" TL.SQTrackExpandedHeight="25" TL.SQTrackExpanded="0" MZ.TrackTargeted="1" PannerCurrentValue="0.5" PannerIsInverted="true" PannerStartKeyframe="-91445760000000000,0.5,0,0,0,0,0,0" PannerName="Balance" currentExplodedTrackIndex="1" totalExplodedTrackCount="2" premiereTrackType="Stereo">
									<clipitem id="clipitem-453" premiereChannelType="stereo">
										<masterclipid>masterclip-19</masterclipid>
										<name>Intro</name>
										<enabled>TRUE</enabled>
										<duration>160</duration>
										<rate>
											<timebase>30</timebase>
											<ntsc>TRUE</ntsc>
										</rate>
										<start>0</start>
										<end>115</end>
										<in>0</in>
										<out>115</out>
										<pproTicksIn>0</pproTicksIn>
										<pproTicksOut>974701728000</pproTicksOut>
										<sequence id="sequence-4"/>
										<sourcetrack>
											<mediatype>audio</mediatype>
											<trackindex>1</trackindex>
										</sourcetrack>
											<marker>
												<comment></comment>
												<name></name>
												<in>82</in>
												<out>-1</out>
											</marker>
										<link>
											<linkclipref>clipitem-443</linkclipref>
											<mediatype>video</mediatype>
											<trackindex>4</trackindex>
											<clipindex>1</clipindex>
										</link>
										<link>
											<linkclipref>clipitem-450</linkclipref>
											<mediatype>audio</mediatype>
											<trackindex>3</trackindex>
											<clipindex>1</clipindex>
											<groupindex>1</groupindex>
										</link>
										<link>
											<linkclipref>clipitem-453</linkclipref>
											<mediatype>audio</mediatype>
											<trackindex>4</trackindex>
											<clipindex>1</clipindex>
											<groupindex>1</groupindex>
										</link>
										<labels>
											<label2>Forest</label2>
										</labels>
									</clipitem>
									<clipitem id="clipitem-454" premiereChannelType="stereo">
										<masterclipid>masterclip-21</masterclipid>
										<name>Transition 2</name>
										<enabled>TRUE</enabled>
										<duration>160</duration>
										<rate>
											<timebase>30</timebase>
											<ntsc>TRUE</ntsc>
										</rate>
										<start>1811</start>
										<end>1930</end>
										<in>0</in>
										<out>119</out>
										<pproTicksIn>0</pproTicksIn>
										<pproTicksOut>1008604396800</pproTicksOut>
										<sequence id="sequence-5"/>
										<sourcetrack>
											<mediatype>audio</mediatype>
											<trackindex>1</trackindex>
										</sourcetrack>
											<marker>
												<comment></comment>
												<name></name>
												<in>54</in>
												<out>-1</out>
											</marker>
											<marker>
												<comment></comment>
												<name></name>
												<in>20</in>
												<out>-1</out>
											</marker>
										<link>
											<linkclipref>clipitem-444</linkclipref>
											<mediatype>video</mediatype>
											<trackindex>4</trackindex>
											<clipindex>2</clipindex>
										</link>
										<link>
											<linkclipref>clipitem-451</linkclipref>
											<mediatype>audio</mediatype>
											<trackindex>3</trackindex>
											<clipindex>2</clipindex>
											<groupindex>1</groupindex>
										</link>
										<link>
											<linkclipref>clipitem-454</linkclipref>
											<mediatype>audio</mediatype>
											<trackindex>4</trackindex>
											<clipindex>2</clipindex>
											<groupindex>1</groupindex>
										</link>
										<labels>
											<label2>Forest</label2>
										</labels>
									</clipitem>
									<clipitem id="clipitem-455" premiereChannelType="stereo">
										<masterclipid>masterclip-23</masterclipid>
										<name>Outro</name>
										<enabled>TRUE</enabled>
										<duration>160</duration>
										<rate>
											<timebase>30</timebase>
											<ntsc>TRUE</ntsc>
										</rate>
										<start>5104</start>
										<end>5241</end>
										<in>0</in>
										<out>137</out>
										<pproTicksIn>0</pproTicksIn>
										<pproTicksOut>1161166406400</pproTicksOut>
										<sequence id="sequence-6"/>
										<sourcetrack>
											<mediatype>audio</mediatype>
											<trackindex>1</trackindex>
										</sourcetrack>
											<marker>
												<comment></comment>
												<name></name>
												<in>42</in>
												<out>-1</out>
											</marker>
										<link>
											<linkclipref>clipitem-445</linkclipref>
											<mediatype>video</mediatype>
											<trackindex>4</trackindex>
											<clipindex>3</clipindex>
										</link>
										<link>
											<linkclipref>clipitem-452</linkclipref>
											<mediatype>audio</mediatype>
											<trackindex>3</trackindex>
											<clipindex>3</clipindex>
											<groupindex>1</groupindex>
										</link>
										<link>
											<linkclipref>clipitem-455</linkclipref>
											<mediatype>audio</mediatype>
											<trackindex>4</trackindex>
											<clipindex>3</clipindex>
											<groupindex>1</groupindex>
										</link>
										<labels>
											<label2>Forest</label2>
										</labels>
									</clipitem>
									<enabled>TRUE</enabled>
									<locked>FALSE</locked>
									<outputchannelindex>2</outputchannelindex>
								</track>
								<track TL.SQTrackAudioKeyframeStyle="0" TL.SQTrackShy="0" TL.SQTrackExpandedHeight="25" TL.SQTrackExpanded="0" MZ.TrackTargeted="1" PannerCurrentValue="0.5" PannerIsInverted="true" PannerStartKeyframe="-91445760000000000,0.5,0,0,0,0,0,0" PannerName="Balance" currentExplodedTrackIndex="0" totalExplodedTrackCount="2" premiereTrackType="Stereo">
									<enabled>TRUE</enabled>
									<locked>FALSE</locked>
									<outputchannelindex>1</outputchannelindex>
								</track>
								<track TL.SQTrackAudioKeyframeStyle="0" TL.SQTrackShy="0" TL.SQTrackExpandedHeight="25" TL.SQTrackExpanded="0" MZ.TrackTargeted="1" PannerCurrentValue="0.5" PannerIsInverted="true" PannerStartKeyframe="-91445760000000000,0.5,0,0,0,0,0,0" PannerName="Balance" currentExplodedTrackIndex="1" totalExplodedTrackCount="2" premiereTrackType="Stereo">
									<enabled>TRUE</enabled>
									<locked>FALSE</locked>
									<outputchannelindex>2</outputchannelindex>
								</track>
							</audio>
						</media>
						<timecode>
							<rate>
								<timebase>30</timebase>
								<ntsc>TRUE</ntsc>
							</rate>
							<string>00;00;00;00</string>
							<frame>0</frame>
							<displayformat>DF</displayformat>
						</timecode>
						<labels>
							<label2>Forest</label2>
						</labels>
						<logginginfo>
							<description></description>
							<scene></scene>
							<shottake></shottake>
							<lognote></lognote>
							<good></good>
							<originalvideofilename></originalvideofilename>
							<originalaudiofilename></originalaudiofilename>
						</logginginfo>
					</sequence>
					<sequence id="sequence-34" TL.SQAudioVisibleBase="0" TL.SQVideoVisibleBase="0" TL.SQVisibleBaseTime="0" TL.SQAVDividerPosition="0.5" TL.SQHideShyTracks="0" TL.SQHeaderWidth="236" TL.SQDataTrackViewControlState="0" Monitor.ProgramZoomOut="45293965516800" Monitor.ProgramZoomIn="0" TL.SQTimePerPixel="0.21216824538077256" AM.TrackVScrollPosition="0" AM.TrackScrollPosition="0" MZ.EditLine="23392841472000" MZ.Sequence.PreviewFrameSizeHeight="1080" MZ.Sequence.PreviewFrameSizeWidth="1920" MZ.Sequence.AudioTimeDisplayFormat="200" MZ.Sequence.PreviewRenderingClassID="1061109567" MZ.Sequence.PreviewRenderingPresetCodec="1634755443" MZ.Sequence.PreviewRenderingPresetPath="EncoderPresets/SequencePreview/35d109db-457b-43c1-9452-9cb7be9f121c/QuickTime.epr" MZ.Sequence.PreviewUseMaxRenderQuality="false" MZ.Sequence.PreviewUseMaxBitDepth="false" MZ.Sequence.EditingModeGUID="35d109db-457b-43c1-9452-9cb7be9f121c" MZ.Sequence.VideoTimeDisplayFormat="102" MZ.WorkOutPoint="15239249625600" MZ.WorkInPoint="0" explodedTracks="true">
						<uuid>515b184e-448f-4df1-a923-6fb044c35701</uuid>
						<duration>5344</duration>
						<rate>
							<timebase>30</timebase>
							<ntsc>TRUE</ntsc>
						</rate>
						<name>ATM_EYECANDY_234</name>
						<media>
							<video>
								<format>
									<samplecharacteristics>
										<rate>
											<timebase>30</timebase>
											<ntsc>TRUE</ntsc>
										</rate>
										<codec>
											<name>Apple ProRes 422</name>
											<appspecificdata>
												<appname>Final Cut Pro</appname>
												<appmanufacturer>Apple Inc.</appmanufacturer>
												<appversion>7.0</appversion>
												<data>
													<qtcodec>
														<codecname>Apple ProRes 422</codecname>
														<codectypename>Apple ProRes 422</codectypename>
														<codectypecode>apcn</codectypecode>
														<codecvendorcode>appl</codecvendorcode>
														<spatialquality>1024</spatialquality>
														<temporalquality>0</temporalquality>
														<keyframerate>0</keyframerate>
														<datarate>0</datarate>
													</qtcodec>
												</data>
											</appspecificdata>
										</codec>
										<width>1920</width>
										<height>1080</height>
										<anamorphic>FALSE</anamorphic>
										<pixelaspectratio>square</pixelaspectratio>
										<fielddominance>none</fielddominance>
										<colordepth>24</colordepth>
									</samplecharacteristics>
								</format>
								<track TL.SQTrackShy="0" TL.SQTrackExpandedHeight="25" TL.SQTrackExpanded="0" MZ.TrackTargeted="1">
									<clipitem id="clipitem-456">
										<masterclipid>masterclip-180</masterclipid>
										<name>Cottagecore Treats_1.5</name>
										<enabled>TRUE</enabled>
										<duration>5700</duration>
										<rate>
											<timebase>30</timebase>
											<ntsc>TRUE</ntsc>
										</rate>
										<start>82</start>
										<end>2477</end>
										<in>0</in>
										<out>2395</out>
										<pproTicksIn>0</pproTicksIn>
										<pproTicksOut>20299222944000</pproTicksOut>
										<sequence id="sequence-35" TL.SQAudioVisibleBase="0" TL.SQVideoVisibleBase="0" TL.SQVisibleBaseTime="0" TL.SQAVDividerPosition="0.5" TL.SQHideShyTracks="0" TL.SQHeaderWidth="236" TL.SQDataTrackViewControlState="0" Monitor.ProgramZoomOut="20299222944000" Monitor.ProgramZoomIn="0" TL.SQTimePerPixel="0.088707370603551092" AM.TrackVScrollPosition="0" AM.TrackScrollPosition="0" MZ.EditLine="19994098924800" MZ.Sequence.PreviewFrameSizeHeight="1080" MZ.Sequence.PreviewFrameSizeWidth="1920" MZ.Sequence.AudioTimeDisplayFormat="200" MZ.Sequence.PreviewRenderingClassID="1061109567" MZ.Sequence.PreviewRenderingPresetCodec="1634755443" MZ.Sequence.PreviewRenderingPresetPath="EncoderPresets/SequencePreview/35d109db-457b-43c1-9452-9cb7be9f121c/QuickTime.epr" MZ.Sequence.PreviewUseMaxRenderQuality="false" MZ.Sequence.PreviewUseMaxBitDepth="false" MZ.Sequence.EditingModeGUID="35d109db-457b-43c1-9452-9cb7be9f121c" MZ.Sequence.VideoTimeDisplayFormat="102" MZ.WorkOutPoint="1262874412800" MZ.WorkInPoint="0">
											<duration>2395</duration>
											<rate>
												<timebase>30</timebase>
												<ntsc>TRUE</ntsc>
											</rate>
											<name>FND_Cottagecore Treats_1.5</name>
											<media>
												<video>
													<format>
														<samplecharacteristics>
															<rate>
																<timebase>30</timebase>
																<ntsc>TRUE</ntsc>
															</rate>
															<codec>
																<name>Apple ProRes 422</name>
																<appspecificdata>
																	<appname>Final Cut Pro</appname>
																	<appmanufacturer>Apple Inc.</appmanufacturer>
																	<appversion>7.0</appversion>
																	<data>
																		<qtcodec>
																			<codecname>Apple ProRes 422</codecname>
																			<codectypename>Apple ProRes 422</codectypename>
																			<codectypecode>apcn</codectypecode>
																			<codecvendorcode>appl</codecvendorcode>
																			<spatialquality>1024</spatialquality>
																			<temporalquality>0</temporalquality>
																			<keyframerate>0</keyframerate>
																			<datarate>0</datarate>
																		</qtcodec>
																	</data>
																</appspecificdata>
															</codec>
															<width>1920</width>
															<height>1080</height>
															<anamorphic>FALSE</anamorphic>
															<pixelaspectratio>square</pixelaspectratio>
															<fielddominance>none</fielddominance>
															<colordepth>24</colordepth>
														</samplecharacteristics>
													</format>
													<track TL.SQTrackShy="0" TL.SQTrackExpandedHeight="25" TL.SQTrackExpanded="0" MZ.TrackTargeted="1">
														<clipitem id="clipitem-457">
															<masterclipid>masterclip-181</masterclipid>
															<name>(allthesugartx)_CbKp32Ul4Zg_IG.mp4</name>
															<enabled>TRUE</enabled>
															<duration>522</duration>
															<rate>
																<timebase>30</timebase>
																<ntsc>TRUE</ntsc>
															</rate>
															<start>0</start>
															<end>522</end>
															<in>0</in>
															<out>522</out>
															<pproTicksIn>0</pproTicksIn>
															<pproTicksOut>4424298278400</pproTicksOut>
															<alphatype>none</alphatype>
															<pixelaspectratio>square</pixelaspectratio>
															<anamorphic>FALSE</anamorphic>
															<file id="file-156">
																<name>(allthesugartx)_CbKp32Ul4Zg_IG.mp4</name>
																<pathurl>file://localhost/Volumes/ATM%201/EYE%20CANDY/8%3a14%3a23/3_Raw%20Files/cottagecore/(allthesugartx)_CbKp32Ul4Zg_IG.mp4</pathurl>
																<rate>
																	<timebase>30</timebase>
																	<ntsc>FALSE</ntsc>
																</rate>
																<duration>523</duration>
																<timecode>
																	<rate>
																		<timebase>30</timebase>
																		<ntsc>FALSE</ntsc>
																	</rate>
																	<string>00:00:00:00</string>
																	<frame>0</frame>
																	<displayformat>NDF</displayformat>
																</timecode>
																<media>
																	<video>
																		<samplecharacteristics>
																			<rate>
																				<timebase>30</timebase>
																				<ntsc>FALSE</ntsc>
																			</rate>
																			<width>720</width>
																			<height>1280</height>
																			<anamorphic>FALSE</anamorphic>
																			<pixelaspectratio>square</pixelaspectratio>
																			<fielddominance>none</fielddominance>
																		</samplecharacteristics>
																	</video>
																	<audio>
																		<samplecharacteristics>
																			<depth>16</depth>
																			<samplerate>44100</samplerate>
																		</samplecharacteristics>
																		<channelcount>2</channelcount>
																	</audio>
																</media>
															</file>
															<logginginfo>
																<description></description>
																<scene></scene>
																<shottake></shottake>
																<lognote></lognote>
																<good></good>
																<originalvideofilename></originalvideofilename>
																<originalaudiofilename></originalaudiofilename>
															</logginginfo>
															<colorinfo>
																<lut></lut>
																<lut1></lut1>
																<asc_sop></asc_sop>
																<asc_sat></asc_sat>
																<lut2></lut2>
															</colorinfo>
															<labels>
																<label2>Violet</label2>
															</labels>
														</clipitem>
														<clipitem id="clipitem-458">
															<masterclipid>masterclip-182</masterclipid>
															<name>(Sugar and Sparrow)_Extra tall strawberry shortcake layer cake + piped whipped cream frosting _ #cakedecorating #cake__5vEbgMdPBc_YT.mp4</name>
															<enabled>TRUE</enabled>
															<duration>454</duration>
															<rate>
																<timebase>30</timebase>
																<ntsc>TRUE</ntsc>
															</rate>
															<start>522</start>
															<end>976</end>
															<in>0</in>
															<out>454</out>
															<pproTicksIn>0</pproTicksIn>
															<pproTicksOut>3847952908800</pproTicksOut>
															<alphatype>none</alphatype>
															<pixelaspectratio>square</pixelaspectratio>
															<anamorphic>FALSE</anamorphic>
															<file id="file-157">
																<name>(Sugar and Sparrow)_Extra tall strawberry shortcake layer cake + piped whipped cream frosting _ #cakedecorating #cake__5vEbgMdPBc_YT.mp4</name>
																<pathurl>file://localhost/Volumes/ATM%201/EYE%20CANDY/8%3a14%3a23/3_Raw%20Files/cottagecore/(Sugar%20and%20Sparrow)_Extra%20tall%20strawberry%20shortcake%20layer%20cake%20+%20piped%20whipped%20cream%20frosting%20_%20#cakedecorating%20#cake__5vEbgMdPBc_YT.mp4</pathurl>
																<rate>
																	<timebase>29</timebase>
																	<ntsc>FALSE</ntsc>
																</rate>
																<duration>454</duration>
																<timecode>
																	<rate>
																		<timebase>29</timebase>
																		<ntsc>FALSE</ntsc>
																	</rate>
																	<string>00:00:00:00</string>
																	<frame>0</frame>
																	<displayformat>NDF</displayformat>
																</timecode>
																<media>
																	<video>
																		<samplecharacteristics>
																			<rate>
																				<timebase>29</timebase>
																				<ntsc>FALSE</ntsc>
																			</rate>
																			<width>720</width>
																			<height>1280</height>
																			<anamorphic>FALSE</anamorphic>
																			<pixelaspectratio>square</pixelaspectratio>
																			<fielddominance>none</fielddominance>
																		</samplecharacteristics>
																	</video>
																	<audio>
																		<samplecharacteristics>
																			<depth>16</depth>
																			<samplerate>44100</samplerate>
																		</samplecharacteristics>
																		<channelcount>2</channelcount>
																	</audio>
																</media>
															</file>
															<logginginfo>
																<description></description>
																<scene></scene>
																<shottake></shottake>
																<lognote></lognote>
																<good></good>
																<originalvideofilename></originalvideofilename>
																<originalaudiofilename></originalaudiofilename>
															</logginginfo>
															<colorinfo>
																<lut></lut>
																<lut1></lut1>
																<asc_sop></asc_sop>
																<asc_sat></asc_sat>
																<lut2></lut2>
															</colorinfo>
															<labels>
																<label2>Violet</label2>
															</labels>
														</clipitem>
														<clipitem id="clipitem-459">
															<masterclipid>masterclip-183</masterclipid>
															<name>(thesugarhobby)_CgzGgYYgVZd_IG.mp4</name>
															<enabled>TRUE</enabled>
															<duration>489</duration>
															<rate>
																<timebase>30</timebase>
																<ntsc>TRUE</ntsc>
															</rate>
															<start>976</start>
															<end>1335</end>
															<in>130</in>
															<out>488</out>
															<pproTicksIn>822987285117</pproTicksIn>
															<pproTicksOut>3105060678717</pproTicksOut>
															<alphatype>none</alphatype>
															<pixelaspectratio>square</pixelaspectratio>
															<anamorphic>FALSE</anamorphic>
															<file id="file-158">
																<name>(thesugarhobby)_CgzGgYYgVZd_IG.mp4</name>
																<pathurl>file://localhost/Volumes/ATM%201/EYE%20CANDY/8%3a14%3a23/3_Raw%20Files/cottagecore/(thesugarhobby)_CgzGgYYgVZd_IG.mp4</pathurl>
																<rate>
																	<timebase>30</timebase>
																	<ntsc>FALSE</ntsc>
																</rate>
																<duration>368</duration>
																<timecode>
																	<rate>
																		<timebase>30</timebase>
																		<ntsc>FALSE</ntsc>
																	</rate>
																	<string>00:00:00:00</string>
																	<frame>0</frame>
																	<displayformat>NDF</displayformat>
																</timecode>
																<media>
																	<video>
																		<samplecharacteristics>
																			<rate>
																				<timebase>30</timebase>
																				<ntsc>FALSE</ntsc>
																			</rate>
																			<width>720</width>
																			<height>1280</height>
																			<anamorphic>FALSE</anamorphic>
																			<pixelaspectratio>square</pixelaspectratio>
																			<fielddominance>none</fielddominance>
																		</samplecharacteristics>
																	</video>
																	<audio>
																		<samplecharacteristics>
																			<depth>16</depth>
																			<samplerate>44100</samplerate>
																		</samplecharacteristics>
																		<channelcount>2</channelcount>
																	</audio>
																</media>
															</file>
															<filter>
																<effect>
																	<name>Time Remap</name>
																	<effectid>timeremap</effectid>
																	<effectcategory>motion</effectcategory>
																	<effecttype>motion</effecttype>
																	<mediatype>video</mediatype>
																	<parameter authoringApp="PremierePro">
																		<parameterid>variablespeed</parameterid>
																		<name>variablespeed</name>
																		<valuemin>0</valuemin>
																		<valuemax>1</valuemax>
																		<value>0</value>
																	</parameter>
																	<parameter authoringApp="PremierePro">
																		<parameterid>speed</parameterid>
																		<name>speed</name>
																		<valuemin>-100000</valuemin>
																		<valuemax>100000</valuemax>
																		<value>75</value>
																	</parameter>
																	<parameter authoringApp="PremierePro">
																		<parameterid>reverse</parameterid>
																		<name>reverse</name>
																		<value>FALSE</value>
																	</parameter>
																	<parameter authoringApp="PremierePro">
																		<parameterid>frameblending</parameterid>
																		<name>frameblending</name>
																		<value>FALSE</value>
																	</parameter>
																	<parameter authoringApp="PremierePro">
																		<parameterid>graphdict</parameterid>
																		<name>graphdict</name>
																		<valuemin>0</valuemin>
																		<valuemax>366</valuemax>
																		<value>0</value>
																		<keyframe>
																			<when>0</when>
																			<value>0</value>
																			<speedvirtualkf>TRUE</speedvirtualkf>
																			<speedkfstart>TRUE</speedkfstart>
																		</keyframe>
																		<keyframe>
																			<when>130</when>
																			<value>97</value>
																			<speedvirtualkf>TRUE</speedvirtualkf>
																			<speedkfin>TRUE</speedkfin>
																		</keyframe>
																		<keyframe>
																			<when>488</when>
																			<value>366</value>
																			<speedvirtualkf>TRUE</speedvirtualkf>
																			<speedkfout>TRUE</speedkfout>
																		</keyframe>
																		<keyframe>
																			<when>489</when>
																			<value>366</value>
																			<speedvirtualkf>TRUE</speedvirtualkf>
																			<speedkfend>TRUE</speedkfend>
																		</keyframe>
																		<interpolation>
																			<name>FCPCurve</name>
																		</interpolation>
																	</parameter>
																</effect>
															</filter>
															<logginginfo>
																<description></description>
																<scene></scene>
																<shottake></shottake>
																<lognote></lognote>
																<good></good>
																<originalvideofilename></originalvideofilename>
																<originalaudiofilename></originalaudiofilename>
															</logginginfo>
															<colorinfo>
																<lut></lut>
																<lut1></lut1>
																<asc_sop></asc_sop>
																<asc_sat></asc_sat>
																<lut2></lut2>
															</colorinfo>
															<labels>
																<label2>Violet</label2>
															</labels>
														</clipitem>
														<clipitem id="clipitem-460">
															<masterclipid>masterclip-183</masterclipid>
															<name>(thesugarhobby)_CgzGgYYgVZd_IG.mp4</name>
															<enabled>TRUE</enabled>
															<duration>367</duration>
															<rate>
																<timebase>30</timebase>
																<ntsc>TRUE</ntsc>
															</rate>
															<start>1335</start>
															<end>1429</end>
															<in>0</in>
															<out>94</out>
															<pproTicksIn>0</pproTicksIn>
															<pproTicksOut>796712716800</pproTicksOut>
															<alphatype>none</alphatype>
															<file id="file-158"/>
															<logginginfo>
																<description></description>
																<scene></scene>
																<shottake></shottake>
																<lognote></lognote>
																<good></good>
																<originalvideofilename></originalvideofilename>
																<originalaudiofilename></originalaudiofilename>
															</logginginfo>
															<colorinfo>
																<lut></lut>
																<lut1></lut1>
																<asc_sop></asc_sop>
																<asc_sat></asc_sat>
																<lut2></lut2>
															</colorinfo>
															<labels>
																<label2>Violet</label2>
															</labels>
														</clipitem>
														<clipitem id="clipitem-461">
															<masterclipid>masterclip-184</masterclipid>
															<name>(kerrysbouqcakes)_7217936596002147590_TT.mp4</name>
															<enabled>TRUE</enabled>
															<duration>499</duration>
															<rate>
																<timebase>30</timebase>
																<ntsc>TRUE</ntsc>
															</rate>
															<start>1429</start>
															<end>1928</end>
															<in>0</in>
															<out>499</out>
															<pproTicksIn>0</pproTicksIn>
															<pproTicksOut>6344036899200</pproTicksOut>
															<alphatype>none</alphatype>
															<pixelaspectratio>square</pixelaspectratio>
															<anamorphic>FALSE</anamorphic>
															<file id="file-159">
																<name>(kerrysbouqcakes)_7217936596002147590_TT.mp4</name>
																<pathurl>file://localhost/Volumes/ATM%201/EYE%20CANDY/8%3a14%3a23/3_Raw%20Files/cottagecore/(kerrysbouqcakes)_7217936596002147590_TT.mp4</pathurl>
																<rate>
																	<timebase>30</timebase>
																	<ntsc>FALSE</ntsc>
																</rate>
																<duration>750</duration>
																<timecode>
																	<rate>
																		<timebase>30</timebase>
																		<ntsc>FALSE</ntsc>
																	</rate>
																	<string>00:00:00:00</string>
																	<frame>0</frame>
																	<displayformat>NDF</displayformat>
																</timecode>
																<media>
																	<video>
																		<samplecharacteristics>
																			<rate>
																				<timebase>30</timebase>
																				<ntsc>FALSE</ntsc>
																			</rate>
																			<width>576</width>
																			<height>1024</height>
																			<anamorphic>FALSE</anamorphic>
																			<pixelaspectratio>square</pixelaspectratio>
																			<fielddominance>none</fielddominance>
																		</samplecharacteristics>
																	</video>
																	<audio>
																		<samplecharacteristics>
																			<depth>16</depth>
																			<samplerate>44100</samplerate>
																		</samplecharacteristics>
																		<channelcount>2</channelcount>
																	</audio>
																</media>
															</file>
															<filter>
																<effect>
																	<name>Time Remap</name>
																	<effectid>timeremap</effectid>
																	<effectcategory>motion</effectcategory>
																	<effecttype>motion</effecttype>
																	<mediatype>video</mediatype>
																	<parameter authoringApp="PremierePro">
																		<parameterid>variablespeed</parameterid>
																		<name>variablespeed</name>
																		<valuemin>0</valuemin>
																		<valuemax>1</valuemax>
																		<value>0</value>
																	</parameter>
																	<parameter authoringApp="PremierePro">
																		<parameterid>speed</parameterid>
																		<name>speed</name>
																		<valuemin>-100000</valuemin>
																		<valuemax>100000</valuemax>
																		<value>150</value>
																	</parameter>
																	<parameter authoringApp="PremierePro">
																		<parameterid>reverse</parameterid>
																		<name>reverse</name>
																		<value>FALSE</value>
																	</parameter>
																	<parameter authoringApp="PremierePro">
																		<parameterid>frameblending</parameterid>
																		<name>frameblending</name>
																		<value>FALSE</value>
																	</parameter>
																	<parameter authoringApp="PremierePro">
																		<parameterid>graphdict</parameterid>
																		<name>graphdict</name>
																		<valuemin>0</valuemin>
																		<valuemax>748</valuemax>
																		<value>0</value>
																		<keyframe>
																			<when>0</when>
																			<value>0</value>
																			<speedvirtualkf>TRUE</speedvirtualkf>
																			<speedkfin>TRUE</speedkfin>
																		</keyframe>
																		<keyframe>
																			<when>499</when>
																			<value>748</value>
																			<speedvirtualkf>TRUE</speedvirtualkf>
																			<speedkfout>TRUE</speedkfout>
																		</keyframe>
																		<interpolation>
																			<name>FCPCurve</name>
																		</interpolation>
																	</parameter>
																</effect>
															</filter>
															<logginginfo>
																<description></description>
																<scene></scene>
																<shottake></shottake>
																<lognote></lognote>
																<good></good>
																<originalvideofilename></originalvideofilename>
																<originalaudiofilename></originalaudiofilename>
															</logginginfo>
															<colorinfo>
																<lut></lut>
																<lut1></lut1>
																<asc_sop></asc_sop>
																<asc_sat></asc_sat>
																<lut2></lut2>
															</colorinfo>
															<labels>
																<label2>Violet</label2>
															</labels>
														</clipitem>
														<clipitem id="clipitem-462">
															<masterclipid>masterclip-185</masterclipid>
															<name>(charrajf)_CaNblf3jHPm_IG.mp4</name>
															<enabled>TRUE</enabled>
															<duration>3352</duration>
															<rate>
																<timebase>30</timebase>
																<ntsc>TRUE</ntsc>
															</rate>
															<start>1928</start>
															<end>1967</end>
															<in>198</in>
															<out>237</out>
															<pproTicksIn>1678182105600</pproTicksIn>
															<pproTicksOut>2008733126400</pproTicksOut>
															<alphatype>none</alphatype>
															<pixelaspectratio>square</pixelaspectratio>
															<anamorphic>FALSE</anamorphic>
															<file id="file-160">
																<name>(charrajf)_CaNblf3jHPm_IG.mp4</name>
																<pathurl>file://localhost/Volumes/ATM%201/EYE%20CANDY/8%3a14%3a23/3_Raw%20Files/cottagecore/(charrajf)_CaNblf3jHPm_IG.mp4</pathurl>
																<rate>
																	<timebase>30</timebase>
																	<ntsc>FALSE</ntsc>
																</rate>
																<duration>3356</duration>
																<timecode>
																	<rate>
																		<timebase>30</timebase>
																		<ntsc>FALSE</ntsc>
																	</rate>
																	<string>00:00:00:00</string>
																	<frame>0</frame>
																	<displayformat>NDF</displayformat>
																</timecode>
																<media>
																	<video>
																		<samplecharacteristics>
																			<rate>
																				<timebase>30</timebase>
																				<ntsc>FALSE</ntsc>
																			</rate>
																			<width>720</width>
																			<height>1280</height>
																			<anamorphic>FALSE</anamorphic>
																			<pixelaspectratio>square</pixelaspectratio>
																			<fielddominance>none</fielddominance>
																		</samplecharacteristics>
																	</video>
																	<audio>
																		<samplecharacteristics>
																			<depth>16</depth>
																			<samplerate>44100</samplerate>
																		</samplecharacteristics>
																		<channelcount>2</channelcount>
																	</audio>
																</media>
															</file>
															<logginginfo>
																<description></description>
																<scene></scene>
																<shottake></shottake>
																<lognote></lognote>
																<good></good>
																<originalvideofilename></originalvideofilename>
																<originalaudiofilename></originalaudiofilename>
															</logginginfo>
															<colorinfo>
																<lut></lut>
																<lut1></lut1>
																<asc_sop></asc_sop>
																<asc_sat></asc_sat>
																<lut2></lut2>
															</colorinfo>
															<labels>
																<label2>Forest</label2>
															</labels>
														</clipitem>
														<clipitem id="clipitem-463">
															<masterclipid>masterclip-185</masterclipid>
															<name>(charrajf)_CaNblf3jHPm_IG.mp4</name>
															<enabled>TRUE</enabled>
															<duration>3352</duration>
															<rate>
																<timebase>30</timebase>
																<ntsc>TRUE</ntsc>
															</rate>
															<start>1967</start>
															<end>1998</end>
															<in>359</in>
															<out>390</out>
															<pproTicksIn>3042764524800</pproTicksIn>
															<pproTicksOut>3305510208000</pproTicksOut>
															<alphatype>none</alphatype>
															<file id="file-160"/>
															<logginginfo>
																<description></description>
																<scene></scene>
																<shottake></shottake>
																<lognote></lognote>
																<good></good>
																<originalvideofilename></originalvideofilename>
																<originalaudiofilename></originalaudiofilename>
															</logginginfo>
															<colorinfo>
																<lut></lut>
																<lut1></lut1>
																<asc_sop></asc_sop>
																<asc_sat></asc_sat>
																<lut2></lut2>
															</colorinfo>
															<labels>
																<label2>Forest</label2>
															</labels>
														</clipitem>
														<clipitem id="clipitem-464">
															<masterclipid>masterclip-185</masterclipid>
															<name>(charrajf)_CaNblf3jHPm_IG.mp4</name>
															<enabled>TRUE</enabled>
															<duration>3352</duration>
															<rate>
																<timebase>30</timebase>
																<ntsc>TRUE</ntsc>
															</rate>
															<start>1998</start>
															<end>2072</end>
															<in>420</in>
															<out>494</out>
															<pproTicksIn>3559780224000</pproTicksIn>
															<pproTicksOut>4186979596800</pproTicksOut>
															<alphatype>none</alphatype>
															<file id="file-160"/>
															<logginginfo>
																<description></description>
																<scene></scene>
																<shottake></shottake>
																<lognote></lognote>
																<good></good>
																<originalvideofilename></originalvideofilename>
																<originalaudiofilename></originalaudiofilename>
															</logginginfo>
															<colorinfo>
																<lut></lut>
																<lut1></lut1>
																<asc_sop></asc_sop>
																<asc_sat></asc_sat>
																<lut2></lut2>
															</colorinfo>
															<labels>
																<label2>Forest</label2>
															</labels>
														</clipitem>
														<clipitem id="clipitem-465">
															<masterclipid>masterclip-185</masterclipid>
															<name>(charrajf)_CaNblf3jHPm_IG.mp4</name>
															<enabled>TRUE</enabled>
															<duration>3352</duration>
															<rate>
																<timebase>30</timebase>
																<ntsc>TRUE</ntsc>
															</rate>
															<start>2072</start>
															<end>2120</end>
															<in>588</in>
															<out>636</out>
															<pproTicksIn>4983692313600</pproTicksIn>
															<pproTicksOut>5390524339200</pproTicksOut>
															<alphatype>none</alphatype>
															<file id="file-160"/>
															<logginginfo>
																<description></description>
																<scene></scene>
																<shottake></shottake>
																<lognote></lognote>
																<good></good>
																<originalvideofilename></originalvideofilename>
																<originalaudiofilename></originalaudiofilename>
															</logginginfo>
															<colorinfo>
																<lut></lut>
																<lut1></lut1>
																<asc_sop></asc_sop>
																<asc_sat></asc_sat>
																<lut2></lut2>
															</colorinfo>
															<labels>
																<label2>Forest</label2>
															</labels>
														</clipitem>
														<clipitem id="clipitem-466">
															<masterclipid>masterclip-185</masterclipid>
															<name>(charrajf)_CaNblf3jHPm_IG.mp4</name>
															<enabled>TRUE</enabled>
															<duration>3352</duration>
															<rate>
																<timebase>30</timebase>
																<ntsc>TRUE</ntsc>
															</rate>
															<start>2120</start>
															<end>2147</end>
															<in>2156</in>
															<out>2183</out>
															<pproTicksIn>18273538483200</pproTicksIn>
															<pproTicksOut>18502381497600</pproTicksOut>
															<alphatype>none</alphatype>
															<file id="file-160"/>
															<logginginfo>
																<description></description>
																<scene></scene>
																<shottake></shottake>
																<lognote></lognote>
																<good></good>
																<originalvideofilename></originalvideofilename>
																<originalaudiofilename></originalaudiofilename>
															</logginginfo>
															<colorinfo>
																<lut></lut>
																<lut1></lut1>
																<asc_sop></asc_sop>
																<asc_sat></asc_sat>
																<lut2></lut2>
															</colorinfo>
															<labels>
																<label2>Forest</label2>
															</labels>
														</clipitem>
														<clipitem id="clipitem-467">
															<masterclipid>masterclip-185</masterclipid>
															<name>(charrajf)_CaNblf3jHPm_IG.mp4</name>
															<enabled>TRUE</enabled>
															<duration>3352</duration>
															<rate>
																<timebase>30</timebase>
																<ntsc>TRUE</ntsc>
															</rate>
															<start>2147</start>
															<end>2213</end>
															<in>2604</in>
															<out>2670</out>
															<pproTicksIn>22070637388800</pproTicksIn>
															<pproTicksOut>22630031424000</pproTicksOut>
															<alphatype>none</alphatype>
															<file id="file-160"/>
															<logginginfo>
																<description></description>
																<scene></scene>
																<shottake></shottake>
																<lognote></lognote>
																<good></good>
																<originalvideofilename></originalvideofilename>
																<originalaudiofilename></originalaudiofilename>
															</logginginfo>
															<colorinfo>
																<lut></lut>
																<lut1></lut1>
																<asc_sop></asc_sop>
																<asc_sat></asc_sat>
																<lut2></lut2>
															</colorinfo>
															<labels>
																<label2>Forest</label2>
															</labels>
														</clipitem>
														<clipitem id="clipitem-468">
															<masterclipid>masterclip-185</masterclipid>
															<name>(charrajf)_CaNblf3jHPm_IG.mp4</name>
															<enabled>TRUE</enabled>
															<duration>3352</duration>
															<rate>
																<timebase>30</timebase>
																<ntsc>TRUE</ntsc>
															</rate>
															<start>2213</start>
															<end>2243</end>
															<in>2835</in>
															<out>2865</out>
															<pproTicksIn>24028516512000</pproTicksIn>
															<pproTicksOut>24282786528000</pproTicksOut>
															<alphatype>none</alphatype>
															<file id="file-160"/>
															<logginginfo>
																<description></description>
																<scene></scene>
																<shottake></shottake>
																<lognote></lognote>
																<good></good>
																<originalvideofilename></originalvideofilename>
																<originalaudiofilename></originalaudiofilename>
															</logginginfo>
															<colorinfo>
																<lut></lut>
																<lut1></lut1>
																<asc_sop></asc_sop>
																<asc_sat></asc_sat>
																<lut2></lut2>
															</colorinfo>
															<labels>
																<label2>Forest</label2>
															</labels>
														</clipitem>
														<clipitem id="clipitem-469">
															<masterclipid>masterclip-185</masterclipid>
															<name>(charrajf)_CaNblf3jHPm_IG.mp4</name>
															<enabled>TRUE</enabled>
															<duration>3352</duration>
															<rate>
																<timebase>30</timebase>
																<ntsc>TRUE</ntsc>
															</rate>
															<start>2243</start>
															<end>2285</end>
															<in>2907</in>
															<out>2949</out>
															<pproTicksIn>24638764550400</pproTicksIn>
															<pproTicksOut>24994742572800</pproTicksOut>
															<alphatype>none</alphatype>
															<file id="file-160"/>
															<logginginfo>
																<description></description>
																<scene></scene>
																<shottake></shottake>
																<lognote></lognote>
																<good></good>
																<originalvideofilename></originalvideofilename>
																<originalaudiofilename></originalaudiofilename>
															</logginginfo>
															<colorinfo>
																<lut></lut>
																<lut1></lut1>
																<asc_sop></asc_sop>
																<asc_sat></asc_sat>
																<lut2></lut2>
															</colorinfo>
															<labels>
																<label2>Forest</label2>
															</labels>
														</clipitem>
														<clipitem id="clipitem-470">
															<masterclipid>masterclip-185</masterclipid>
															<name>(charrajf)_CaNblf3jHPm_IG.mp4</name>
															<enabled>TRUE</enabled>
															<duration>3352</duration>
															<rate>
																<timebase>30</timebase>
																<ntsc>TRUE</ntsc>
															</rate>
															<start>2285</start>
															<end>2331</end>
															<in>3052</in>
															<out>3098</out>
															<pproTicksIn>25867736294400</pproTicksIn>
															<pproTicksOut>26257616985600</pproTicksOut>
															<alphatype>none</alphatype>
															<file id="file-160"/>
															<logginginfo>
																<description></description>
																<scene></scene>
																<shottake></shottake>
																<lognote></lognote>
																<good></good>
																<originalvideofilename></originalvideofilename>
																<originalaudiofilename></originalaudiofilename>
															</logginginfo>
															<colorinfo>
																<lut></lut>
																<lut1></lut1>
																<asc_sop></asc_sop>
																<asc_sat></asc_sat>
																<lut2></lut2>
															</colorinfo>
															<labels>
																<label2>Forest</label2>
															</labels>
														</clipitem>
														<clipitem id="clipitem-471">
															<masterclipid>masterclip-185</masterclipid>
															<name>(charrajf)_CaNblf3jHPm_IG.mp4</name>
															<enabled>TRUE</enabled>
															<duration>3352</duration>
															<rate>
																<timebase>30</timebase>
																<ntsc>TRUE</ntsc>
															</rate>
															<start>2331</start>
															<end>2356</end>
															<in>23</in>
															<out>48</out>
															<pproTicksIn>194940345600</pproTicksIn>
															<pproTicksOut>406832025600</pproTicksOut>
															<alphatype>none</alphatype>
															<file id="file-160"/>
															<logginginfo>
																<description></description>
																<scene></scene>
																<shottake></shottake>
																<lognote></lognote>
																<good></good>
																<originalvideofilename></originalvideofilename>
																<originalaudiofilename></originalaudiofilename>
															</logginginfo>
															<colorinfo>
																<lut></lut>
																<lut1></lut1>
																<asc_sop></asc_sop>
																<asc_sat></asc_sat>
																<lut2></lut2>
															</colorinfo>
															<labels>
																<label2>Forest</label2>
															</labels>
														</clipitem>
														<clipitem id="clipitem-472">
															<masterclipid>masterclip-185</masterclipid>
															<name>(charrajf)_CaNblf3jHPm_IG.mp4</name>
															<enabled>TRUE</enabled>
															<duration>3352</duration>
															<rate>
																<timebase>30</timebase>
																<ntsc>TRUE</ntsc>
															</rate>
															<start>2356</start>
															<end>2395</end>
															<in>74</in>
															<out>113</out>
															<pproTicksIn>627199372800</pproTicksIn>
															<pproTicksOut>957750393600</pproTicksOut>
															<alphatype>none</alphatype>
															<file id="file-160"/>
															<logginginfo>
																<description></description>
																<scene></scene>
																<shottake></shottake>
																<lognote></lognote>
																<good></good>
																<originalvideofilename></originalvideofilename>
																<originalaudiofilename></originalaudiofilename>
															</logginginfo>
															<colorinfo>
																<lut></lut>
																<lut1></lut1>
																<asc_sop></asc_sop>
																<asc_sat></asc_sat>
																<lut2></lut2>
															</colorinfo>
															<labels>
																<label2>Forest</label2>
															</labels>
														</clipitem>
														<enabled>TRUE</enabled>
														<locked>FALSE</locked>
													</track>
													<track TL.SQTrackShy="0" TL.SQTrackExpandedHeight="25" TL.SQTrackExpanded="0" MZ.TrackTargeted="0">
														<clipitem id="clipitem-473">
															<masterclipid>masterclip-65</masterclipid>
															<name># Eyecandy Vertical Video Frame 3</name>
															<enabled>TRUE</enabled>
															<duration>5700</duration>
															<rate>
																<timebase>30</timebase>
																<ntsc>TRUE</ntsc>
															</rate>
															<start>0</start>
															<end>522</end>
															<in>114</in>
															<out>636</out>
															<pproTicksIn>966226060800</pproTicksIn>
															<pproTicksOut>5390524339200</pproTicksOut>
															<alphatype>straight</alphatype>
															<file id="file-54"/>
															<logginginfo>
																<description></description>
																<scene></scene>
																<shottake></shottake>
																<lognote></lognote>
																<good></good>
																<originalvideofilename></originalvideofilename>
																<originalaudiofilename></originalaudiofilename>
															</logginginfo>
															<colorinfo>
																<lut></lut>
																<lut1></lut1>
																<asc_sop></asc_sop>
																<asc_sat></asc_sat>
																<lut2></lut2>
															</colorinfo>
															<labels>
																<label2>Teal</label2>
															</labels>
														</clipitem>
														<clipitem id="clipitem-474">
															<masterclipid>masterclip-65</masterclipid>
															<name># Eyecandy Vertical Video Frame 3</name>
															<enabled>TRUE</enabled>
															<duration>5700</duration>
															<rate>
																<timebase>30</timebase>
																<ntsc>TRUE</ntsc>
															</rate>
															<start>522</start>
															<end>976</end>
															<in>636</in>
															<out>1090</out>
															<pproTicksIn>5390524339200</pproTicksIn>
															<pproTicksOut>9238477248000</pproTicksOut>
															<alphatype>straight</alphatype>
															<file id="file-54"/>
															<logginginfo>
																<description></description>
																<scene></scene>
																<shottake></shottake>
																<lognote></lognote>
																<good></good>
																<originalvideofilename></originalvideofilename>
																<originalaudiofilename></originalaudiofilename>
															</logginginfo>
															<colorinfo>
																<lut></lut>
																<lut1></lut1>
																<asc_sop></asc_sop>
																<asc_sat></asc_sat>
																<lut2></lut2>
															</colorinfo>
															<labels>
																<label2>Teal</label2>
															</labels>
														</clipitem>
														<clipitem id="clipitem-475">
															<masterclipid>masterclip-65</masterclipid>
															<name># Eyecandy Vertical Video Frame 3</name>
															<enabled>TRUE</enabled>
															<duration>5700</duration>
															<rate>
																<timebase>30</timebase>
																<ntsc>TRUE</ntsc>
															</rate>
															<start>976</start>
															<end>1429</end>
															<in>1090</in>
															<out>1543</out>
															<pproTicksIn>9238477248000</pproTicksIn>
															<pproTicksOut>13077954489600</pproTicksOut>
															<alphatype>straight</alphatype>
															<file id="file-54"/>
															<logginginfo>
																<description></description>
																<scene></scene>
																<shottake></shottake>
																<lognote></lognote>
																<good></good>
																<originalvideofilename></originalvideofilename>
																<originalaudiofilename></originalaudiofilename>
															</logginginfo>
															<colorinfo>
																<lut></lut>
																<lut1></lut1>
																<asc_sop></asc_sop>
																<asc_sat></asc_sat>
																<lut2></lut2>
															</colorinfo>
															<labels>
																<label2>Teal</label2>
															</labels>
														</clipitem>
														<clipitem id="clipitem-476">
															<masterclipid>masterclip-65</masterclipid>
															<name># Eyecandy Vertical Video Frame 3</name>
															<enabled>TRUE</enabled>
															<duration>5700</duration>
															<rate>
																<timebase>30</timebase>
																<ntsc>TRUE</ntsc>
															</rate>
															<start>1429</start>
															<end>1928</end>
															<in>1543</in>
															<out>2042</out>
															<pproTicksIn>13077954489600</pproTicksIn>
															<pproTicksOut>17307312422400</pproTicksOut>
															<alphatype>straight</alphatype>
															<file id="file-54"/>
															<logginginfo>
																<description></description>
																<scene></scene>
																<shottake></shottake>
																<lognote></lognote>
																<good></good>
																<originalvideofilename></originalvideofilename>
																<originalaudiofilename></originalaudiofilename>
															</logginginfo>
															<colorinfo>
																<lut></lut>
																<lut1></lut1>
																<asc_sop></asc_sop>
																<asc_sat></asc_sat>
																<lut2></lut2>
															</colorinfo>
															<labels>
																<label2>Teal</label2>
															</labels>
														</clipitem>
														<clipitem id="clipitem-477">
															<masterclipid>masterclip-65</masterclipid>
															<name># Eyecandy Vertical Video Frame 3</name>
															<enabled>TRUE</enabled>
															<duration>5700</duration>
															<rate>
																<timebase>30</timebase>
																<ntsc>TRUE</ntsc>
															</rate>
															<start>1928</start>
															<end>2395</end>
															<in>2042</in>
															<out>2509</out>
															<pproTicksIn>17307312422400</pproTicksIn>
															<pproTicksOut>21265449004800</pproTicksOut>
															<alphatype>straight</alphatype>
															<file id="file-54"/>
															<logginginfo>
																<description></description>
																<scene></scene>
																<shottake></shottake>
																<lognote></lognote>
																<good></good>
																<originalvideofilename></originalvideofilename>
																<originalaudiofilename></originalaudiofilename>
															</logginginfo>
															<colorinfo>
																<lut></lut>
																<lut1></lut1>
																<asc_sop></asc_sop>
																<asc_sat></asc_sat>
																<lut2></lut2>
															</colorinfo>
															<labels>
																<label2>Teal</label2>
															</labels>
														</clipitem>
														<enabled>TRUE</enabled>
														<locked>FALSE</locked>
													</track>
													<track TL.SQTrackShy="0" TL.SQTrackExpandedHeight="25" TL.SQTrackExpanded="0" MZ.TrackTargeted="0">
														<enabled>TRUE</enabled>
														<locked>FALSE</locked>
													</track>
													<track TL.SQTrackShy="0" TL.SQTrackExpandedHeight="25" TL.SQTrackExpanded="0" MZ.TrackTargeted="0">
														<enabled>TRUE</enabled>
														<locked>FALSE</locked>
													</track>
													<track TL.SQTrackShy="0" TL.SQTrackExpandedHeight="25" TL.SQTrackExpanded="0" MZ.TrackTargeted="0">
														<enabled>TRUE</enabled>
														<locked>FALSE</locked>
													</track>
													<track TL.SQTrackShy="0" TL.SQTrackExpandedHeight="25" TL.SQTrackExpanded="0" MZ.TrackTargeted="0">
														<enabled>TRUE</enabled>
														<locked>FALSE</locked>
													</track>
													<track TL.SQTrackShy="0" TL.SQTrackExpandedHeight="25" TL.SQTrackExpanded="0" MZ.TrackTargeted="0">
														<enabled>TRUE</enabled>
														<locked>FALSE</locked>
													</track>
													<track TL.SQTrackShy="0" TL.SQTrackExpandedHeight="25" TL.SQTrackExpanded="0" MZ.TrackTargeted="0">
														<enabled>TRUE</enabled>
														<locked>FALSE</locked>
													</track>
													<track TL.SQTrackShy="0" TL.SQTrackExpandedHeight="25" TL.SQTrackExpanded="0" MZ.TrackTargeted="0">
														<enabled>TRUE</enabled>
														<locked>FALSE</locked>
													</track>
													<track TL.SQTrackShy="0" TL.SQTrackExpandedHeight="25" TL.SQTrackExpanded="0" MZ.TrackTargeted="0">
														<enabled>TRUE</enabled>
														<locked>FALSE</locked>
													</track>
												</video>
												<audio>
													<numOutputChannels>2</numOutputChannels>
													<format>
														<samplecharacteristics>
															<depth>16</depth>
															<samplerate>48000</samplerate>
														</samplecharacteristics>
													</format>
													<outputs>
														<group>
															<index>1</index>
															<numchannels>1</numchannels>
															<downmix>0</downmix>
															<channel>
																<index>1</index>
															</channel>
														</group>
														<group>
															<index>2</index>
															<numchannels>1</numchannels>
															<downmix>0</downmix>
															<channel>
																<index>2</index>
															</channel>
														</group>
													</outputs>
													<track TL.SQTrackAudioKeyframeStyle="0" TL.SQTrackShy="0" TL.SQTrackExpandedHeight="25" TL.SQTrackExpanded="0" MZ.TrackTargeted="1" PannerCurrentValue="0.5" PannerIsInverted="true" PannerStartKeyframe="-91445760000000000,0.5,0,0,0,0,0,0" PannerName="Balance" currentExplodedTrackIndex="0" totalExplodedTrackCount="2" premiereTrackType="Stereo">
														<clipitem id="clipitem-478" premiereChannelType="stereo">
															<masterclipid>masterclip-186</masterclipid>
															<name>ES_Raspberry Road - Colton Walls.mp3</name>
															<enabled>TRUE</enabled>
															<duration>3633</duration>
															<rate>
																<timebase>30</timebase>
																<ntsc>TRUE</ntsc>
															</rate>
															<start>0</start>
															<end>2395</end>
															<in>0</in>
															<out>2395</out>
															<pproTicksIn>0</pproTicksIn>
															<pproTicksOut>20299222944000</pproTicksOut>
															<file id="file-161">
																<name>ES_Raspberry Road - Colton Walls.mp3</name>
																<pathurl>file://localhost/Volumes/CONTENT/VOD%20CONTENT%20ARCHIVE/O&amp;O%20Archive%202023/Eye%20Candy/8%3a14%3a23/4_Project%20Files/Adobe%20Premiere%20Pro%20Video%20Previews/8%3a14%3a23.PRV/../../../3_Raw%20Files/Artlist%20-%20Chocolate%20Pistachio%20Treat/../../5_Assets/Music/ES_Raspberry%20Road%20-%20Colton%20Walls.mp3</pathurl>
																<rate>
																	<timebase>30</timebase>
																	<ntsc>TRUE</ntsc>
																</rate>
																<duration>3633</duration>
																<timecode>
																	<rate>
																		<timebase>30</timebase>
																		<ntsc>TRUE</ntsc>
																	</rate>
																	<string>00;00;00;00</string>
																	<frame>0</frame>
																	<displayformat>DF</displayformat>
																</timecode>
																<media>
																	<audio>
																		<samplecharacteristics>
																			<depth>16</depth>
																			<samplerate>48000</samplerate>
																		</samplecharacteristics>
																		<channelcount>2</channelcount>
																	</audio>
																</media>
															</file>
															<sourcetrack>
																<mediatype>audio</mediatype>
																<trackindex>1</trackindex>
															</sourcetrack>
															<link>
																<linkclipref>clipitem-478</linkclipref>
																<mediatype>audio</mediatype>
																<trackindex>1</trackindex>
																<clipindex>1</clipindex>
																<groupindex>1</groupindex>
															</link>
															<link>
																<linkclipref>clipitem-479</linkclipref>
																<mediatype>audio</mediatype>
																<trackindex>2</trackindex>
																<clipindex>1</clipindex>
																<groupindex>1</groupindex>
															</link>
															<logginginfo>
																<description></description>
																<scene></scene>
																<shottake></shottake>
																<lognote></lognote>
																<good></good>
																<originalvideofilename></originalvideofilename>
																<originalaudiofilename></originalaudiofilename>
															</logginginfo>
															<colorinfo>
																<lut></lut>
																<lut1></lut1>
																<asc_sop></asc_sop>
																<asc_sat></asc_sat>
																<lut2></lut2>
															</colorinfo>
															<labels>
																<label2>Forest</label2>
															</labels>
														</clipitem>
														<enabled>TRUE</enabled>
														<locked>FALSE</locked>
														<filter>
															<effect>
																<name>Audio Levels</name>
																<effectid>audiolevels</effectid>
																<effectcategory>audiolevels</effectcategory>
																<effecttype>audiolevels</effecttype>
																<mediatype>audio</mediatype>
																<parameter authoringApp="PremierePro">
																	<parameterid>level</parameterid>
																	<name>Level</name>
																	<valuemin>0</valuemin>
																	<valuemax>3.98109</valuemax>
																	<value>0.706272</value>
																</parameter>
															</effect>
														</filter>
														<outputchannelindex>1</outputchannelindex>
													</track>
													<track TL.SQTrackAudioKeyframeStyle="0" TL.SQTrackShy="0" TL.SQTrackExpandedHeight="25" TL.SQTrackExpanded="0" MZ.TrackTargeted="1" PannerCurrentValue="0.5" PannerIsInverted="true" PannerStartKeyframe="-91445760000000000,0.5,0,0,0,0,0,0" PannerName="Balance" currentExplodedTrackIndex="1" totalExplodedTrackCount="2" premiereTrackType="Stereo">
														<clipitem id="clipitem-479" premiereChannelType="stereo">
															<masterclipid>masterclip-186</masterclipid>
															<name>ES_Raspberry Road - Colton Walls.mp3</name>
															<enabled>TRUE</enabled>
															<duration>3633</duration>
															<rate>
																<timebase>30</timebase>
																<ntsc>TRUE</ntsc>
															</rate>
															<start>0</start>
															<end>2395</end>
															<in>0</in>
															<out>2395</out>
															<pproTicksIn>0</pproTicksIn>
															<pproTicksOut>20299222944000</pproTicksOut>
															<file id="file-161"/>
															<sourcetrack>
																<mediatype>audio</mediatype>
																<trackindex>2</trackindex>
															</sourcetrack>
															<link>
																<linkclipref>clipitem-478</linkclipref>
																<mediatype>audio</mediatype>
																<trackindex>1</trackindex>
																<clipindex>1</clipindex>
																<groupindex>1</groupindex>
															</link>
															<link>
																<linkclipref>clipitem-479</linkclipref>
																<mediatype>audio</mediatype>
																<trackindex>2</trackindex>
																<clipindex>1</clipindex>
																<groupindex>1</groupindex>
															</link>
															<logginginfo>
																<description></description>
																<scene></scene>
																<shottake></shottake>
																<lognote></lognote>
																<good></good>
																<originalvideofilename></originalvideofilename>
																<originalaudiofilename></originalaudiofilename>
															</logginginfo>
															<colorinfo>
																<lut></lut>
																<lut1></lut1>
																<asc_sop></asc_sop>
																<asc_sat></asc_sat>
																<lut2></lut2>
															</colorinfo>
															<labels>
																<label2>Forest</label2>
															</labels>
														</clipitem>
														<enabled>TRUE</enabled>
														<locked>FALSE</locked>
														<filter>
															<effect>
																<name>Audio Levels</name>
																<effectid>audiolevels</effectid>
																<effectcategory>audiolevels</effectcategory>
																<effecttype>audiolevels</effecttype>
																<mediatype>audio</mediatype>
																<parameter authoringApp="PremierePro">
																	<parameterid>level</parameterid>
																	<name>Level</name>
																	<valuemin>0</valuemin>
																	<valuemax>3.98109</valuemax>
																	<value>0.706272</value>
																</parameter>
															</effect>
														</filter>
														<outputchannelindex>2</outputchannelindex>
													</track>
													<track TL.SQTrackAudioKeyframeStyle="0" TL.SQTrackShy="0" TL.SQTrackExpandedHeight="25" TL.SQTrackExpanded="0" MZ.TrackTargeted="0" PannerCurrentValue="0.5" PannerIsInverted="true" PannerStartKeyframe="-91445760000000000,0.5,0,0,0,0,0,0" PannerName="Balance" currentExplodedTrackIndex="0" totalExplodedTrackCount="2" premiereTrackType="Stereo">
														<enabled>TRUE</enabled>
														<locked>FALSE</locked>
														<outputchannelindex>1</outputchannelindex>
													</track>
													<track TL.SQTrackAudioKeyframeStyle="0" TL.SQTrackShy="0" TL.SQTrackExpandedHeight="25" TL.SQTrackExpanded="0" MZ.TrackTargeted="0" PannerCurrentValue="0.5" PannerIsInverted="true" PannerStartKeyframe="-91445760000000000,0.5,0,0,0,0,0,0" PannerName="Balance" currentExplodedTrackIndex="1" totalExplodedTrackCount="2" premiereTrackType="Stereo">
														<enabled>TRUE</enabled>
														<locked>FALSE</locked>
														<outputchannelindex>2</outputchannelindex>
													</track>
													<track TL.SQTrackAudioKeyframeStyle="0" TL.SQTrackShy="0" TL.SQTrackExpandedHeight="25" TL.SQTrackExpanded="0" MZ.TrackTargeted="0" PannerCurrentValue="0.5" PannerIsInverted="true" PannerStartKeyframe="-91445760000000000,0.5,0,0,0,0,0,0" PannerName="Balance" currentExplodedTrackIndex="0" totalExplodedTrackCount="2" premiereTrackType="Stereo">
														<enabled>TRUE</enabled>
														<locked>FALSE</locked>
														<outputchannelindex>1</outputchannelindex>
													</track>
													<track TL.SQTrackAudioKeyframeStyle="0" TL.SQTrackShy="0" TL.SQTrackExpandedHeight="25" TL.SQTrackExpanded="0" MZ.TrackTargeted="0" PannerCurrentValue="0.5" PannerIsInverted="true" PannerStartKeyframe="-91445760000000000,0.5,0,0,0,0,0,0" PannerName="Balance" currentExplodedTrackIndex="1" totalExplodedTrackCount="2" premiereTrackType="Stereo">
														<enabled>TRUE</enabled>
														<locked>FALSE</locked>
														<outputchannelindex>2</outputchannelindex>
													</track>
													<track TL.SQTrackAudioKeyframeStyle="0" TL.SQTrackShy="0" TL.SQTrackExpandedHeight="25" TL.SQTrackExpanded="0" MZ.TrackTargeted="0" PannerCurrentValue="0.5" PannerIsInverted="true" PannerStartKeyframe="-91445760000000000,0.5,0,0,0,0,0,0" PannerName="Balance" currentExplodedTrackIndex="0" totalExplodedTrackCount="2" premiereTrackType="Stereo">
														<enabled>TRUE</enabled>
														<locked>FALSE</locked>
														<outputchannelindex>1</outputchannelindex>
													</track>
													<track TL.SQTrackAudioKeyframeStyle="0" TL.SQTrackShy="0" TL.SQTrackExpandedHeight="25" TL.SQTrackExpanded="0" MZ.TrackTargeted="0" PannerCurrentValue="0.5" PannerIsInverted="true" PannerStartKeyframe="-91445760000000000,0.5,0,0,0,0,0,0" PannerName="Balance" currentExplodedTrackIndex="1" totalExplodedTrackCount="2" premiereTrackType="Stereo">
														<enabled>TRUE</enabled>
														<locked>FALSE</locked>
														<outputchannelindex>2</outputchannelindex>
													</track>
													<track TL.SQTrackAudioKeyframeStyle="0" TL.SQTrackShy="0" TL.SQTrackExpandedHeight="25" TL.SQTrackExpanded="0" MZ.TrackTargeted="0" PannerCurrentValue="0.5" PannerIsInverted="true" PannerStartKeyframe="-91445760000000000,0.5,0,0,0,0,0,0" PannerName="Balance" currentExplodedTrackIndex="0" totalExplodedTrackCount="2" premiereTrackType="Stereo">
														<enabled>TRUE</enabled>
														<locked>FALSE</locked>
														<outputchannelindex>1</outputchannelindex>
													</track>
													<track TL.SQTrackAudioKeyframeStyle="0" TL.SQTrackShy="0" TL.SQTrackExpandedHeight="25" TL.SQTrackExpanded="0" MZ.TrackTargeted="0" PannerCurrentValue="0.5" PannerIsInverted="true" PannerStartKeyframe="-91445760000000000,0.5,0,0,0,0,0,0" PannerName="Balance" currentExplodedTrackIndex="1" totalExplodedTrackCount="2" premiereTrackType="Stereo">
														<enabled>TRUE</enabled>
														<locked>FALSE</locked>
														<outputchannelindex>2</outputchannelindex>
													</track>
													<track TL.SQTrackAudioKeyframeStyle="0" TL.SQTrackShy="0" TL.SQTrackExpandedHeight="25" TL.SQTrackExpanded="0" MZ.TrackTargeted="0" PannerCurrentValue="0.5" PannerIsInverted="true" PannerStartKeyframe="-91445760000000000,0.5,0,0,0,0,0,0" PannerName="Balance" currentExplodedTrackIndex="0" totalExplodedTrackCount="2" premiereTrackType="Stereo">
														<enabled>TRUE</enabled>
														<locked>FALSE</locked>
														<outputchannelindex>1</outputchannelindex>
													</track>
													<track TL.SQTrackAudioKeyframeStyle="0" TL.SQTrackShy="0" TL.SQTrackExpandedHeight="25" TL.SQTrackExpanded="0" MZ.TrackTargeted="0" PannerCurrentValue="0.5" PannerIsInverted="true" PannerStartKeyframe="-91445760000000000,0.5,0,0,0,0,0,0" PannerName="Balance" currentExplodedTrackIndex="1" totalExplodedTrackCount="2" premiereTrackType="Stereo">
														<enabled>TRUE</enabled>
														<locked>FALSE</locked>
														<outputchannelindex>2</outputchannelindex>
													</track>
													<track TL.SQTrackAudioKeyframeStyle="0" TL.SQTrackShy="0" TL.SQTrackExpandedHeight="25" TL.SQTrackExpanded="0" MZ.TrackTargeted="0" PannerCurrentValue="0.5" PannerIsInverted="true" PannerStartKeyframe="-91445760000000000,0.5,0,0,0,0,0,0" PannerName="Balance" currentExplodedTrackIndex="0" totalExplodedTrackCount="2" premiereTrackType="Stereo">
														<enabled>TRUE</enabled>
														<locked>FALSE</locked>
														<outputchannelindex>1</outputchannelindex>
													</track>
													<track TL.SQTrackAudioKeyframeStyle="0" TL.SQTrackShy="0" TL.SQTrackExpandedHeight="25" TL.SQTrackExpanded="0" MZ.TrackTargeted="0" PannerCurrentValue="0.5" PannerIsInverted="true" PannerStartKeyframe="-91445760000000000,0.5,0,0,0,0,0,0" PannerName="Balance" currentExplodedTrackIndex="1" totalExplodedTrackCount="2" premiereTrackType="Stereo">
														<enabled>TRUE</enabled>
														<locked>FALSE</locked>
														<outputchannelindex>2</outputchannelindex>
													</track>
													<track TL.SQTrackAudioKeyframeStyle="0" TL.SQTrackShy="0" TL.SQTrackExpandedHeight="25" TL.SQTrackExpanded="0" MZ.TrackTargeted="0" PannerCurrentValue="0.5" PannerIsInverted="true" PannerStartKeyframe="-91445760000000000,0.5,0,0,0,0,0,0" PannerName="Balance" currentExplodedTrackIndex="0" totalExplodedTrackCount="2" premiereTrackType="Stereo">
														<enabled>TRUE</enabled>
														<locked>FALSE</locked>
														<outputchannelindex>1</outputchannelindex>
													</track>
													<track TL.SQTrackAudioKeyframeStyle="0" TL.SQTrackShy="0" TL.SQTrackExpandedHeight="25" TL.SQTrackExpanded="0" MZ.TrackTargeted="0" PannerCurrentValue="0.5" PannerIsInverted="true" PannerStartKeyframe="-91445760000000000,0.5,0,0,0,0,0,0" PannerName="Balance" currentExplodedTrackIndex="1" totalExplodedTrackCount="2" premiereTrackType="Stereo">
														<enabled>TRUE</enabled>
														<locked>FALSE</locked>
														<outputchannelindex>2</outputchannelindex>
													</track>
													<track TL.SQTrackAudioKeyframeStyle="0" TL.SQTrackShy="0" TL.SQTrackExpandedHeight="25" TL.SQTrackExpanded="0" MZ.TrackTargeted="0" PannerCurrentValue="0.5" PannerIsInverted="true" PannerStartKeyframe="-91445760000000000,0.5,0,0,0,0,0,0" PannerName="Balance" currentExplodedTrackIndex="0" totalExplodedTrackCount="2" premiereTrackType="Stereo">
														<enabled>TRUE</enabled>
														<locked>FALSE</locked>
														<outputchannelindex>1</outputchannelindex>
													</track>
													<track TL.SQTrackAudioKeyframeStyle="0" TL.SQTrackShy="0" TL.SQTrackExpandedHeight="25" TL.SQTrackExpanded="0" MZ.TrackTargeted="0" PannerCurrentValue="0.5" PannerIsInverted="true" PannerStartKeyframe="-91445760000000000,0.5,0,0,0,0,0,0" PannerName="Balance" currentExplodedTrackIndex="1" totalExplodedTrackCount="2" premiereTrackType="Stereo">
														<enabled>TRUE</enabled>
														<locked>FALSE</locked>
														<outputchannelindex>2</outputchannelindex>
													</track>
													<track TL.SQTrackAudioKeyframeStyle="0" TL.SQTrackShy="0" TL.SQTrackExpandedHeight="25" TL.SQTrackExpanded="0" MZ.TrackTargeted="0" PannerCurrentValue="0.5" PannerIsInverted="true" PannerStartKeyframe="-91445760000000000,0.5,0,0,0,0,0,0" PannerName="Balance" currentExplodedTrackIndex="0" totalExplodedTrackCount="2" premiereTrackType="Stereo">
														<enabled>TRUE</enabled>
														<locked>FALSE</locked>
														<outputchannelindex>1</outputchannelindex>
													</track>
													<track TL.SQTrackAudioKeyframeStyle="0" TL.SQTrackShy="0" TL.SQTrackExpandedHeight="25" TL.SQTrackExpanded="0" MZ.TrackTargeted="0" PannerCurrentValue="0.5" PannerIsInverted="true" PannerStartKeyframe="-91445760000000000,0.5,0,0,0,0,0,0" PannerName="Balance" currentExplodedTrackIndex="1" totalExplodedTrackCount="2" premiereTrackType="Stereo">
														<enabled>TRUE</enabled>
														<locked>FALSE</locked>
														<outputchannelindex>2</outputchannelindex>
													</track>
												</audio>
											</media>
											<timecode>
												<rate>
													<timebase>30</timebase>
													<ntsc>TRUE</ntsc>
												</rate>
												<string>00;00;00;00</string>
												<frame>0</frame>
												<displayformat>DF</displayformat>
											</timecode>
											<logginginfo>
												<description></description>
												<scene></scene>
												<shottake></shottake>
												<lognote></lognote>
												<good></good>
												<originalvideofilename></originalvideofilename>
												<originalaudiofilename></originalaudiofilename>
											</logginginfo>
										</sequence>
										<link>
											<linkclipref>clipitem-456</linkclipref>
											<mediatype>video</mediatype>
											<trackindex>1</trackindex>
											<clipindex>1</clipindex>
										</link>
										<link>
											<linkclipref>clipitem-507</linkclipref>
											<mediatype>audio</mediatype>
											<trackindex>1</trackindex>
											<clipindex>1</clipindex>
											<groupindex>1</groupindex>
										</link>
										<link>
											<linkclipref>clipitem-510</linkclipref>
											<mediatype>audio</mediatype>
											<trackindex>2</trackindex>
											<clipindex>1</clipindex>
											<groupindex>1</groupindex>
										</link>
										<labels>
											<label2>Forest</label2>
										</labels>
									</clipitem>
									<clipitem id="clipitem-480">
										<masterclipid>masterclip-187</masterclipid>
										<name>Bitefulls of Bliss_1.5</name>
										<enabled>TRUE</enabled>
										<duration>5844</duration>
										<rate>
											<timebase>30</timebase>
											<ntsc>TRUE</ntsc>
										</rate>
										<start>2477</start>
										<end>5105</end>
										<in>0</in>
										<out>2628</out>
										<pproTicksIn>0</pproTicksIn>
										<pproTicksOut>22274053401600</pproTicksOut>
										<sequence id="sequence-36" TL.SQAudioVisibleBase="0" TL.SQVideoVisibleBase="0" TL.SQVisibleBaseTime="0" TL.SQAVDividerPosition="0.5" TL.SQHideShyTracks="0" TL.SQHeaderWidth="236" TL.SQDataTrackViewControlState="0" Monitor.ProgramZoomOut="22274053401600" Monitor.ProgramZoomIn="0" TL.SQTimePerPixel="0.1779799531159133" AM.TrackVScrollPosition="0" AM.TrackScrollPosition="0" MZ.EditLine="2398613817600" MZ.Sequence.PreviewFrameSizeHeight="1080" MZ.Sequence.PreviewFrameSizeWidth="1920" MZ.Sequence.AudioTimeDisplayFormat="200" MZ.Sequence.PreviewRenderingClassID="1061109567" MZ.Sequence.PreviewRenderingPresetCodec="1634755443" MZ.Sequence.PreviewRenderingPresetPath="EncoderPresets/SequencePreview/35d109db-457b-43c1-9452-9cb7be9f121c/QuickTime.epr" MZ.Sequence.PreviewUseMaxRenderQuality="false" MZ.Sequence.PreviewUseMaxBitDepth="false" MZ.Sequence.EditingModeGUID="35d109db-457b-43c1-9452-9cb7be9f121c" MZ.Sequence.VideoTimeDisplayFormat="102" MZ.WorkOutPoint="1262874412800" MZ.WorkInPoint="0">
											<duration>2628</duration>
											<rate>
												<timebase>30</timebase>
												<ntsc>TRUE</ntsc>
											</rate>
											<name>FND_Bitefulls of Bliss_1.5</name>
											<media>
												<video>
													<format>
														<samplecharacteristics>
															<rate>
																<timebase>30</timebase>
																<ntsc>TRUE</ntsc>
															</rate>
															<codec>
																<name>Apple ProRes 422</name>
																<appspecificdata>
																	<appname>Final Cut Pro</appname>
																	<appmanufacturer>Apple Inc.</appmanufacturer>
																	<appversion>7.0</appversion>
																	<data>
																		<qtcodec>
																			<codecname>Apple ProRes 422</codecname>
																			<codectypename>Apple ProRes 422</codectypename>
																			<codectypecode>apcn</codectypecode>
																			<codecvendorcode>appl</codecvendorcode>
																			<spatialquality>1024</spatialquality>
																			<temporalquality>0</temporalquality>
																			<keyframerate>0</keyframerate>
																			<datarate>0</datarate>
																		</qtcodec>
																	</data>
																</appspecificdata>
															</codec>
															<width>1920</width>
															<height>1080</height>
															<anamorphic>FALSE</anamorphic>
															<pixelaspectratio>square</pixelaspectratio>
															<fielddominance>none</fielddominance>
															<colordepth>24</colordepth>
														</samplecharacteristics>
													</format>
													<track TL.SQTrackShy="0" TL.SQTrackExpandedHeight="25" TL.SQTrackExpanded="0" MZ.TrackTargeted="1">
														<clipitem id="clipitem-481">
															<masterclipid>masterclip-188</masterclipid>
															<name>Nested Sequence 02</name>
															<enabled>TRUE</enabled>
															<duration>2628</duration>
															<rate>
																<timebase>30</timebase>
																<ntsc>TRUE</ntsc>
															</rate>
															<start>0</start>
															<end>2628</end>
															<in>0</in>
															<out>2628</out>
															<pproTicksIn>0</pproTicksIn>
															<pproTicksOut>22274053401600</pproTicksOut>
															<sequence id="sequence-37" TL.SQAudioVisibleBase="0" TL.SQVideoVisibleBase="0" TL.SQVisibleBaseTime="0" TL.SQAVDividerPosition="0.5" TL.SQHideShyTracks="0" TL.SQHeaderWidth="236" Monitor.ProgramZoomOut="22274053401600" Monitor.ProgramZoomIn="0" TL.SQTimePerPixel="0.17797995311591114" AM.TrackVScrollPosition="0" AM.TrackScrollPosition="0" MZ.EditLine="8984207232000" MZ.Sequence.PreviewFrameSizeHeight="1080" MZ.Sequence.PreviewFrameSizeWidth="1920" MZ.Sequence.AudioTimeDisplayFormat="200" MZ.Sequence.PreviewRenderingClassID="1061109567" MZ.Sequence.PreviewRenderingPresetCodec="1634755443" MZ.Sequence.PreviewRenderingPresetPath="EncoderPresets/SequencePreview/35d109db-457b-43c1-9452-9cb7be9f121c/QuickTime.epr" MZ.Sequence.PreviewUseMaxRenderQuality="false" MZ.Sequence.PreviewUseMaxBitDepth="false" MZ.Sequence.EditingModeGUID="35d109db-457b-43c1-9452-9cb7be9f121c" MZ.Sequence.VideoTimeDisplayFormat="102" MZ.WorkOutPoint="22274053401600" MZ.WorkInPoint="0">
																<duration>2628</duration>
																<rate>
																	<timebase>30</timebase>
																	<ntsc>TRUE</ntsc>
																</rate>
																<name>Nested Sequence 02</name>
																<media>
																	<video>
																		<format>
																			<samplecharacteristics>
																				<rate>
																					<timebase>30</timebase>
																					<ntsc>TRUE</ntsc>
																				</rate>
																				<codec>
																					<name>Apple ProRes 422</name>
																					<appspecificdata>
																						<appname>Final Cut Pro</appname>
																						<appmanufacturer>Apple Inc.</appmanufacturer>
																						<appversion>7.0</appversion>
																						<data>
																							<qtcodec>
																								<codecname>Apple ProRes 422</codecname>
																								<codectypename>Apple ProRes 422</codectypename>
																								<codectypecode>apcn</codectypecode>
																								<codecvendorcode>appl</codecvendorcode>
																								<spatialquality>1024</spatialquality>
																								<temporalquality>0</temporalquality>
																								<keyframerate>0</keyframerate>
																								<datarate>0</datarate>
																							</qtcodec>
																						</data>
																					</appspecificdata>
																				</codec>
																				<width>1920</width>
																				<height>1080</height>
																				<anamorphic>FALSE</anamorphic>
																				<pixelaspectratio>square</pixelaspectratio>
																				<fielddominance>none</fielddominance>
																				<colordepth>24</colordepth>
																			</samplecharacteristics>
																		</format>
																		<track TL.SQTrackShy="0" TL.SQTrackExpandedHeight="25" TL.SQTrackExpanded="0" MZ.TrackTargeted="1">
																			<clipitem id="clipitem-482">
																				<masterclipid>masterclip-189</masterclipid>
																				<name>(succulentbite)_Bi4SIwCAC9p_IG.mp4</name>
																				<enabled>TRUE</enabled>
																				<duration>319</duration>
																				<rate>
																					<timebase>30</timebase>
																					<ntsc>TRUE</ntsc>
																				</rate>
																				<start>0</start>
																				<end>221</end>
																				<in>0</in>
																				<out>221</out>
																				<pproTicksIn>0</pproTicksIn>
																				<pproTicksOut>1873122451200</pproTicksOut>
																				<alphatype>none</alphatype>
																				<pixelaspectratio>square</pixelaspectratio>
																				<anamorphic>FALSE</anamorphic>
																				<file id="file-162">
																					<name>(succulentbite)_Bi4SIwCAC9p_IG.mp4</name>
																					<pathurl>file://localhost/Volumes/ATM%201/EYE%20CANDY/8%3a14%3a23/3_Raw%20Files/Bitefulls%20of%20Bliss/(succulentbite)_Bi4SIwCAC9p_IG.mp4</pathurl>
																					<rate>
																						<timebase>30</timebase>
																						<ntsc>FALSE</ntsc>
																					</rate>
																					<duration>320</duration>
																					<timecode>
																						<rate>
																							<timebase>30</timebase>
																							<ntsc>FALSE</ntsc>
																						</rate>
																						<string>00:00:00:00</string>
																						<frame>0</frame>
																						<displayformat>NDF</displayformat>
																					</timecode>
																					<media>
																						<video>
																							<samplecharacteristics>
																								<rate>
																									<timebase>30</timebase>
																									<ntsc>FALSE</ntsc>
																								</rate>
																								<width>640</width>
																								<height>640</height>
																								<anamorphic>FALSE</anamorphic>
																								<pixelaspectratio>square</pixelaspectratio>
																								<fielddominance>none</fielddominance>
																							</samplecharacteristics>
																						</video>
																					</media>
																				</file>
																				<logginginfo>
																					<description></description>
																					<scene></scene>
																					<shottake></shottake>
																					<lognote></lognote>
																					<good></good>
																					<originalvideofilename></originalvideofilename>
																					<originalaudiofilename></originalaudiofilename>
																				</logginginfo>
																				<colorinfo>
																					<lut></lut>
																					<lut1></lut1>
																					<asc_sop></asc_sop>
																					<asc_sat></asc_sat>
																					<lut2></lut2>
																				</colorinfo>
																				<labels>
																					<label2>Violet</label2>
																				</labels>
																			</clipitem>
																			<clipitem id="clipitem-483">
																				<masterclipid>masterclip-190</masterclipid>
																				<name>(succulentbite)_BiPzA58AX-B_IG.mp4</name>
																				<enabled>TRUE</enabled>
																				<duration>289</duration>
																				<rate>
																					<timebase>30</timebase>
																					<ntsc>TRUE</ntsc>
																				</rate>
																				<start>221</start>
																				<end>413</end>
																				<in>0</in>
																				<out>192</out>
																				<pproTicksIn>0</pproTicksIn>
																				<pproTicksOut>1627328102400</pproTicksOut>
																				<alphatype>none</alphatype>
																				<pixelaspectratio>square</pixelaspectratio>
																				<anamorphic>FALSE</anamorphic>
																				<file id="file-163">
																					<name>(succulentbite)_BiPzA58AX-B_IG.mp4</name>
																					<pathurl>file://localhost/Volumes/ATM%201/EYE%20CANDY/8%3a14%3a23/3_Raw%20Files/Bitefulls%20of%20Bliss/(succulentbite)_BiPzA58AX-B_IG.mp4</pathurl>
																					<rate>
																						<timebase>30</timebase>
																						<ntsc>FALSE</ntsc>
																					</rate>
																					<duration>290</duration>
																					<timecode>
																						<rate>
																							<timebase>30</timebase>
																							<ntsc>FALSE</ntsc>
																						</rate>
																						<string>00:00:00:00</string>
																						<frame>0</frame>
																						<displayformat>NDF</displayformat>
																					</timecode>
																					<media>
																						<video>
																							<samplecharacteristics>
																								<rate>
																									<timebase>30</timebase>
																									<ntsc>FALSE</ntsc>
																								</rate>
																								<width>640</width>
																								<height>640</height>
																								<anamorphic>FALSE</anamorphic>
																								<pixelaspectratio>square</pixelaspectratio>
																								<fielddominance>none</fielddominance>
																							</samplecharacteristics>
																						</video>
																					</media>
																				</file>
																				<logginginfo>
																					<description></description>
																					<scene></scene>
																					<shottake></shottake>
																					<lognote></lognote>
																					<good></good>
																					<originalvideofilename></originalvideofilename>
																					<originalaudiofilename></originalaudiofilename>
																				</logginginfo>
																				<colorinfo>
																					<lut></lut>
																					<lut1></lut1>
																					<asc_sop></asc_sop>
																					<asc_sat></asc_sat>
																					<lut2></lut2>
																				</colorinfo>
																				<labels>
																					<label2>Violet</label2>
																				</labels>
																			</clipitem>
																			<clipitem id="clipitem-484">
																				<masterclipid>masterclip-191</masterclipid>
																				<name>(succulentbite)_BiXqoD1ANAT_IG.mp4</name>
																				<enabled>TRUE</enabled>
																				<duration>326</duration>
																				<rate>
																					<timebase>30</timebase>
																					<ntsc>TRUE</ntsc>
																				</rate>
																				<start>413</start>
																				<end>647</end>
																				<in>0</in>
																				<out>234</out>
																				<pproTicksIn>0</pproTicksIn>
																				<pproTicksOut>1983306124800</pproTicksOut>
																				<alphatype>none</alphatype>
																				<pixelaspectratio>square</pixelaspectratio>
																				<anamorphic>FALSE</anamorphic>
																				<file id="file-164">
																					<name>(succulentbite)_BiXqoD1ANAT_IG.mp4</name>
																					<pathurl>file://localhost/Volumes/ATM%201/EYE%20CANDY/8%3a14%3a23/3_Raw%20Files/Bitefulls%20of%20Bliss/(succulentbite)_BiXqoD1ANAT_IG.mp4</pathurl>
																					<rate>
																						<timebase>30</timebase>
																						<ntsc>FALSE</ntsc>
																					</rate>
																					<duration>327</duration>
																					<timecode>
																						<rate>
																							<timebase>30</timebase>
																							<ntsc>FALSE</ntsc>
																						</rate>
																						<string>00:00:00:00</string>
																						<frame>0</frame>
																						<displayformat>NDF</displayformat>
																					</timecode>
																					<media>
																						<video>
																							<samplecharacteristics>
																								<rate>
																									<timebase>30</timebase>
																									<ntsc>FALSE</ntsc>
																								</rate>
																								<width>640</width>
																								<height>640</height>
																								<anamorphic>FALSE</anamorphic>
																								<pixelaspectratio>square</pixelaspectratio>
																								<fielddominance>none</fielddominance>
																							</samplecharacteristics>
																						</video>
																					</media>
																				</file>
																				<logginginfo>
																					<description></description>
																					<scene></scene>
																					<shottake></shottake>
																					<lognote></lognote>
																					<good></good>
																					<originalvideofilename></originalvideofilename>
																					<originalaudiofilename></originalaudiofilename>
																				</logginginfo>
																				<colorinfo>
																					<lut></lut>
																					<lut1></lut1>
																					<asc_sop></asc_sop>
																					<asc_sat></asc_sat>
																					<lut2></lut2>
																				</colorinfo>
																				<labels>
																					<label2>Violet</label2>
																				</labels>
																			</clipitem>
																			<clipitem id="clipitem-485">
																				<masterclipid>masterclip-192</masterclipid>
																				<name>(succulentbite)_BiZ03lwAc3d_IG.mp4</name>
																				<enabled>TRUE</enabled>
																				<duration>324</duration>
																				<rate>
																					<timebase>30</timebase>
																					<ntsc>TRUE</ntsc>
																				</rate>
																				<start>647</start>
																				<end>876</end>
																				<in>0</in>
																				<out>229</out>
																				<pproTicksIn>0</pproTicksIn>
																				<pproTicksOut>1940927788800</pproTicksOut>
																				<alphatype>none</alphatype>
																				<pixelaspectratio>square</pixelaspectratio>
																				<anamorphic>FALSE</anamorphic>
																				<file id="file-165">
																					<name>(succulentbite)_BiZ03lwAc3d_IG.mp4</name>
																					<pathurl>file://localhost/Volumes/ATM%201/EYE%20CANDY/8%3a14%3a23/3_Raw%20Files/Bitefulls%20of%20Bliss/(succulentbite)_BiZ03lwAc3d_IG.mp4</pathurl>
																					<rate>
																						<timebase>30</timebase>
																						<ntsc>FALSE</ntsc>
																					</rate>
																					<duration>325</duration>
																					<timecode>
																						<rate>
																							<timebase>30</timebase>
																							<ntsc>FALSE</ntsc>
																						</rate>
																						<string>00:00:00:00</string>
																						<frame>0</frame>
																						<displayformat>NDF</displayformat>
																					</timecode>
																					<media>
																						<video>
																							<samplecharacteristics>
																								<rate>
																									<timebase>30</timebase>
																									<ntsc>FALSE</ntsc>
																								</rate>
																								<width>640</width>
																								<height>640</height>
																								<anamorphic>FALSE</anamorphic>
																								<pixelaspectratio>square</pixelaspectratio>
																								<fielddominance>none</fielddominance>
																							</samplecharacteristics>
																						</video>
																						<audio>
																							<samplecharacteristics>
																								<depth>16</depth>
																								<samplerate>44100</samplerate>
																							</samplecharacteristics>
																							<channelcount>1</channelcount>
																							<audiochannel>
																								<sourcechannel>1</sourcechannel>
																							</audiochannel>
																						</audio>
																					</media>
																				</file>
																				<logginginfo>
																					<description></description>
																					<scene></scene>
																					<shottake></shottake>
																					<lognote></lognote>
																					<good></good>
																					<originalvideofilename></originalvideofilename>
																					<originalaudiofilename></originalaudiofilename>
																				</logginginfo>
																				<colorinfo>
																					<lut></lut>
																					<lut1></lut1>
																					<asc_sop></asc_sop>
																					<asc_sat></asc_sat>
																					<lut2></lut2>
																				</colorinfo>
																				<labels>
																					<label2>Violet</label2>
																				</labels>
																			</clipitem>
																			<clipitem id="clipitem-486">
																				<masterclipid>masterclip-193</masterclipid>
																				<name>(succulentbite)_BihqtRWgPXH_IG.mp4</name>
																				<enabled>TRUE</enabled>
																				<duration>309</duration>
																				<rate>
																					<timebase>30</timebase>
																					<ntsc>TRUE</ntsc>
																				</rate>
																				<start>876</start>
																				<end>1089</end>
																				<in>0</in>
																				<out>213</out>
																				<pproTicksIn>0</pproTicksIn>
																				<pproTicksOut>1805317113600</pproTicksOut>
																				<alphatype>none</alphatype>
																				<pixelaspectratio>square</pixelaspectratio>
																				<anamorphic>FALSE</anamorphic>
																				<file id="file-166">
																					<name>(succulentbite)_BihqtRWgPXH_IG.mp4</name>
																					<pathurl>file://localhost/Volumes/ATM%201/EYE%20CANDY/8%3a14%3a23/3_Raw%20Files/Bitefulls%20of%20Bliss/(succulentbite)_BihqtRWgPXH_IG.mp4</pathurl>
																					<rate>
																						<timebase>30</timebase>
																						<ntsc>FALSE</ntsc>
																					</rate>
																					<duration>310</duration>
																					<timecode>
																						<rate>
																							<timebase>30</timebase>
																							<ntsc>FALSE</ntsc>
																						</rate>
																						<string>00:00:00:00</string>
																						<frame>0</frame>
																						<displayformat>NDF</displayformat>
																					</timecode>
																					<media>
																						<video>
																							<samplecharacteristics>
																								<rate>
																									<timebase>30</timebase>
																									<ntsc>FALSE</ntsc>
																								</rate>
																								<width>640</width>
																								<height>640</height>
																								<anamorphic>FALSE</anamorphic>
																								<pixelaspectratio>square</pixelaspectratio>
																								<fielddominance>none</fielddominance>
																							</samplecharacteristics>
																						</video>
																					</media>
																				</file>
																				<logginginfo>
																					<description></description>
																					<scene></scene>
																					<shottake></shottake>
																					<lognote></lognote>
																					<good></good>
																					<originalvideofilename></originalvideofilename>
																					<originalaudiofilename></originalaudiofilename>
																				</logginginfo>
																				<colorinfo>
																					<lut></lut>
																					<lut1></lut1>
																					<asc_sop></asc_sop>
																					<asc_sat></asc_sat>
																					<lut2></lut2>
																				</colorinfo>
																				<labels>
																					<label2>Violet</label2>
																				</labels>
																			</clipitem>
																			<clipitem id="clipitem-487">
																				<masterclipid>masterclip-194</masterclipid>
																				<name>(succulentbite)_Bim_Q1_gGy__IG.mp4</name>
																				<enabled>TRUE</enabled>
																				<duration>305</duration>
																				<rate>
																					<timebase>30</timebase>
																					<ntsc>TRUE</ntsc>
																				</rate>
																				<start>1089</start>
																				<end>1286</end>
																				<in>0</in>
																				<out>197</out>
																				<pproTicksIn>0</pproTicksIn>
																				<pproTicksOut>1669706438400</pproTicksOut>
																				<alphatype>none</alphatype>
																				<pixelaspectratio>square</pixelaspectratio>
																				<anamorphic>FALSE</anamorphic>
																				<file id="file-167">
																					<name>(succulentbite)_Bim_Q1_gGy__IG.mp4</name>
																					<pathurl>file://localhost/Volumes/ATM%201/EYE%20CANDY/8%3a14%3a23/3_Raw%20Files/Bitefulls%20of%20Bliss/(succulentbite)_Bim_Q1_gGy__IG.mp4</pathurl>
																					<rate>
																						<timebase>30</timebase>
																						<ntsc>FALSE</ntsc>
																					</rate>
																					<duration>306</duration>
																					<timecode>
																						<rate>
																							<timebase>30</timebase>
																							<ntsc>FALSE</ntsc>
																						</rate>
																						<string>00:00:00:00</string>
																						<frame>0</frame>
																						<displayformat>NDF</displayformat>
																					</timecode>
																					<media>
																						<video>
																							<samplecharacteristics>
																								<rate>
																									<timebase>30</timebase>
																									<ntsc>FALSE</ntsc>
																								</rate>
																								<width>640</width>
																								<height>640</height>
																								<anamorphic>FALSE</anamorphic>
																								<pixelaspectratio>square</pixelaspectratio>
																								<fielddominance>none</fielddominance>
																							</samplecharacteristics>
																						</video>
																						<audio>
																							<samplecharacteristics>
																								<depth>16</depth>
																								<samplerate>44100</samplerate>
																							</samplecharacteristics>
																							<channelcount>1</channelcount>
																							<audiochannel>
																								<sourcechannel>1</sourcechannel>
																							</audiochannel>
																						</audio>
																					</media>
																				</file>
																				<logginginfo>
																					<description></description>
																					<scene></scene>
																					<shottake></shottake>
																					<lognote></lognote>
																					<good></good>
																					<originalvideofilename></originalvideofilename>
																					<originalaudiofilename></originalaudiofilename>
																				</logginginfo>
																				<colorinfo>
																					<lut></lut>
																					<lut1></lut1>
																					<asc_sop></asc_sop>
																					<asc_sat></asc_sat>
																					<lut2></lut2>
																				</colorinfo>
																				<labels>
																					<label2>Violet</label2>
																				</labels>
																			</clipitem>
																			<clipitem id="clipitem-488">
																				<masterclipid>masterclip-195</masterclipid>
																				<name>(succulentbite)_Bium7glAAso_IG.mp4</name>
																				<enabled>TRUE</enabled>
																				<duration>327</duration>
																				<rate>
																					<timebase>30</timebase>
																					<ntsc>TRUE</ntsc>
																				</rate>
																				<start>1286</start>
																				<end>1511</end>
																				<in>0</in>
																				<out>225</out>
																				<pproTicksIn>0</pproTicksIn>
																				<pproTicksOut>1907025120000</pproTicksOut>
																				<alphatype>none</alphatype>
																				<pixelaspectratio>square</pixelaspectratio>
																				<anamorphic>FALSE</anamorphic>
																				<file id="file-168">
																					<name>(succulentbite)_Bium7glAAso_IG.mp4</name>
																					<pathurl>file://localhost/Volumes/ATM%201/EYE%20CANDY/8%3a14%3a23/3_Raw%20Files/Bitefulls%20of%20Bliss/(succulentbite)_Bium7glAAso_IG.mp4</pathurl>
																					<rate>
																						<timebase>30</timebase>
																						<ntsc>FALSE</ntsc>
																					</rate>
																					<duration>328</duration>
																					<timecode>
																						<rate>
																							<timebase>30</timebase>
																							<ntsc>FALSE</ntsc>
																						</rate>
																						<string>00:00:00:00</string>
																						<frame>0</frame>
																						<displayformat>NDF</displayformat>
																					</timecode>
																					<media>
																						<video>
																							<samplecharacteristics>
																								<rate>
																									<timebase>30</timebase>
																									<ntsc>FALSE</ntsc>
																								</rate>
																								<width>640</width>
																								<height>640</height>
																								<anamorphic>FALSE</anamorphic>
																								<pixelaspectratio>square</pixelaspectratio>
																								<fielddominance>none</fielddominance>
																							</samplecharacteristics>
																						</video>
																					</media>
																				</file>
																				<logginginfo>
																					<description></description>
																					<scene></scene>
																					<shottake></shottake>
																					<lognote></lognote>
																					<good></good>
																					<originalvideofilename></originalvideofilename>
																					<originalaudiofilename></originalaudiofilename>
																				</logginginfo>
																				<colorinfo>
																					<lut></lut>
																					<lut1></lut1>
																					<asc_sop></asc_sop>
																					<asc_sat></asc_sat>
																					<lut2></lut2>
																				</colorinfo>
																				<labels>
																					<label2>Violet</label2>
																				</labels>
																			</clipitem>
																			<clipitem id="clipitem-489">
																				<masterclipid>masterclip-196</masterclipid>
																				<name>(succulentbite)_BixQ5lAAiV9_IG.mp4</name>
																				<enabled>TRUE</enabled>
																				<duration>281</duration>
																				<rate>
																					<timebase>30</timebase>
																					<ntsc>TRUE</ntsc>
																				</rate>
																				<start>1511</start>
																				<end>1684</end>
																				<in>0</in>
																				<out>173</out>
																				<pproTicksIn>0</pproTicksIn>
																				<pproTicksOut>1466290425600</pproTicksOut>
																				<alphatype>none</alphatype>
																				<pixelaspectratio>square</pixelaspectratio>
																				<anamorphic>FALSE</anamorphic>
																				<file id="file-169">
																					<name>(succulentbite)_BixQ5lAAiV9_IG.mp4</name>
																					<pathurl>file://localhost/Volumes/ATM%201/EYE%20CANDY/8%3a14%3a23/3_Raw%20Files/Bitefulls%20of%20Bliss/(succulentbite)_BixQ5lAAiV9_IG.mp4</pathurl>
																					<rate>
																						<timebase>30</timebase>
																						<ntsc>FALSE</ntsc>
																					</rate>
																					<duration>282</duration>
																					<timecode>
																						<rate>
																							<timebase>30</timebase>
																							<ntsc>FALSE</ntsc>
																						</rate>
																						<string>00:00:00:00</string>
																						<frame>0</frame>
																						<displayformat>NDF</displayformat>
																					</timecode>
																					<media>
																						<video>
																							<samplecharacteristics>
																								<rate>
																									<timebase>30</timebase>
																									<ntsc>FALSE</ntsc>
																								</rate>
																								<width>640</width>
																								<height>640</height>
																								<anamorphic>FALSE</anamorphic>
																								<pixelaspectratio>square</pixelaspectratio>
																								<fielddominance>none</fielddominance>
																							</samplecharacteristics>
																						</video>
																					</media>
																				</file>
																				<logginginfo>
																					<description></description>
																					<scene></scene>
																					<shottake></shottake>
																					<lognote></lognote>
																					<good></good>
																					<originalvideofilename></originalvideofilename>
																					<originalaudiofilename></originalaudiofilename>
																				</logginginfo>
																				<colorinfo>
																					<lut></lut>
																					<lut1></lut1>
																					<asc_sop></asc_sop>
																					<asc_sat></asc_sat>
																					<lut2></lut2>
																				</colorinfo>
																				<labels>
																					<label2>Violet</label2>
																				</labels>
																			</clipitem>
																			<clipitem id="clipitem-490">
																				<masterclipid>masterclip-197</masterclipid>
																				<name>(succulentbite)_Bj4qdKNAwAi_IG.mp4</name>
																				<enabled>TRUE</enabled>
																				<duration>388</duration>
																				<rate>
																					<timebase>30</timebase>
																					<ntsc>TRUE</ntsc>
																				</rate>
																				<start>1684</start>
																				<end>1966</end>
																				<in>0</in>
																				<out>282</out>
																				<pproTicksIn>0</pproTicksIn>
																				<pproTicksOut>2390138150400</pproTicksOut>
																				<alphatype>none</alphatype>
																				<pixelaspectratio>square</pixelaspectratio>
																				<anamorphic>FALSE</anamorphic>
																				<file id="file-170">
																					<name>(succulentbite)_Bj4qdKNAwAi_IG.mp4</name>
																					<pathurl>file://localhost/Volumes/ATM%201/EYE%20CANDY/8%3a14%3a23/3_Raw%20Files/Bitefulls%20of%20Bliss/(succulentbite)_Bj4qdKNAwAi_IG.mp4</pathurl>
																					<rate>
																						<timebase>30</timebase>
																						<ntsc>FALSE</ntsc>
																					</rate>
																					<duration>389</duration>
																					<timecode>
																						<rate>
																							<timebase>30</timebase>
																							<ntsc>FALSE</ntsc>
																						</rate>
																						<string>00:00:00:00</string>
																						<frame>0</frame>
																						<displayformat>NDF</displayformat>
																					</timecode>
																					<media>
																						<video>
																							<samplecharacteristics>
																								<rate>
																									<timebase>30</timebase>
																									<ntsc>FALSE</ntsc>
																								</rate>
																								<width>640</width>
																								<height>640</height>
																								<anamorphic>FALSE</anamorphic>
																								<pixelaspectratio>square</pixelaspectratio>
																								<fielddominance>none</fielddominance>
																							</samplecharacteristics>
																						</video>
																					</media>
																				</file>
																				<logginginfo>
																					<description></description>
																					<scene></scene>
																					<shottake></shottake>
																					<lognote></lognote>
																					<good></good>
																					<originalvideofilename></originalvideofilename>
																					<originalaudiofilename></originalaudiofilename>
																				</logginginfo>
																				<colorinfo>
																					<lut></lut>
																					<lut1></lut1>
																					<asc_sop></asc_sop>
																					<asc_sat></asc_sat>
																					<lut2></lut2>
																				</colorinfo>
																				<labels>
																					<label2>Violet</label2>
																				</labels>
																			</clipitem>
																			<clipitem id="clipitem-491">
																				<masterclipid>masterclip-198</masterclipid>
																				<name>(succulentbite)_BjF4fiqAOuH_IG.mp4</name>
																				<enabled>TRUE</enabled>
																				<duration>304</duration>
																				<rate>
																					<timebase>30</timebase>
																					<ntsc>TRUE</ntsc>
																				</rate>
																				<start>1966</start>
																				<end>2174</end>
																				<in>0</in>
																				<out>208</out>
																				<pproTicksIn>0</pproTicksIn>
																				<pproTicksOut>1762938777600</pproTicksOut>
																				<alphatype>none</alphatype>
																				<pixelaspectratio>square</pixelaspectratio>
																				<anamorphic>FALSE</anamorphic>
																				<file id="file-171">
																					<name>(succulentbite)_BjF4fiqAOuH_IG.mp4</name>
																					<pathurl>file://localhost/Volumes/ATM%201/EYE%20CANDY/8%3a14%3a23/3_Raw%20Files/Bitefulls%20of%20Bliss/(succulentbite)_BjF4fiqAOuH_IG.mp4</pathurl>
																					<rate>
																						<timebase>30</timebase>
																						<ntsc>FALSE</ntsc>
																					</rate>
																					<duration>305</duration>
																					<timecode>
																						<rate>
																							<timebase>30</timebase>
																							<ntsc>FALSE</ntsc>
																						</rate>
																						<string>00:00:00:00</string>
																						<frame>0</frame>
																						<displayformat>NDF</displayformat>
																					</timecode>
																					<media>
																						<video>
																							<samplecharacteristics>
																								<rate>
																									<timebase>30</timebase>
																									<ntsc>FALSE</ntsc>
																								</rate>
																								<width>640</width>
																								<height>640</height>
																								<anamorphic>FALSE</anamorphic>
																								<pixelaspectratio>square</pixelaspectratio>
																								<fielddominance>none</fielddominance>
																							</samplecharacteristics>
																						</video>
																					</media>
																				</file>
																				<logginginfo>
																					<description></description>
																					<scene></scene>
																					<shottake></shottake>
																					<lognote></lognote>
																					<good></good>
																					<originalvideofilename></originalvideofilename>
																					<originalaudiofilename></originalaudiofilename>
																				</logginginfo>
																				<colorinfo>
																					<lut></lut>
																					<lut1></lut1>
																					<asc_sop></asc_sop>
																					<asc_sat></asc_sat>
																					<lut2></lut2>
																				</colorinfo>
																				<labels>
																					<label2>Violet</label2>
																				</labels>
																			</clipitem>
																			<clipitem id="clipitem-492">
																				<masterclipid>masterclip-199</masterclipid>
																				<name>(succulentbite)_BjHxafugAJY_IG.mp4</name>
																				<enabled>TRUE</enabled>
																				<duration>348</duration>
																				<rate>
																					<timebase>30</timebase>
																					<ntsc>TRUE</ntsc>
																				</rate>
																				<start>2174</start>
																				<end>2417</end>
																				<in>0</in>
																				<out>243</out>
																				<pproTicksIn>0</pproTicksIn>
																				<pproTicksOut>2059587129600</pproTicksOut>
																				<alphatype>none</alphatype>
																				<pixelaspectratio>square</pixelaspectratio>
																				<anamorphic>FALSE</anamorphic>
																				<file id="file-172">
																					<name>(succulentbite)_BjHxafugAJY_IG.mp4</name>
																					<pathurl>file://localhost/Volumes/ATM%201/EYE%20CANDY/8%3a14%3a23/3_Raw%20Files/Bitefulls%20of%20Bliss/(succulentbite)_BjHxafugAJY_IG.mp4</pathurl>
																					<rate>
																						<timebase>30</timebase>
																						<ntsc>FALSE</ntsc>
																					</rate>
																					<duration>349</duration>
																					<timecode>
																						<rate>
																							<timebase>30</timebase>
																							<ntsc>FALSE</ntsc>
																						</rate>
																						<string>00:00:00:00</string>
																						<frame>0</frame>
																						<displayformat>NDF</displayformat>
																					</timecode>
																					<media>
																						<video>
																							<samplecharacteristics>
																								<rate>
																									<timebase>30</timebase>
																									<ntsc>FALSE</ntsc>
																								</rate>
																								<width>640</width>
																								<height>640</height>
																								<anamorphic>FALSE</anamorphic>
																								<pixelaspectratio>square</pixelaspectratio>
																								<fielddominance>none</fielddominance>
																							</samplecharacteristics>
																						</video>
																						<audio>
																							<samplecharacteristics>
																								<depth>16</depth>
																								<samplerate>44100</samplerate>
																							</samplecharacteristics>
																							<channelcount>1</channelcount>
																							<audiochannel>
																								<sourcechannel>1</sourcechannel>
																							</audiochannel>
																						</audio>
																					</media>
																				</file>
																				<logginginfo>
																					<description></description>
																					<scene></scene>
																					<shottake></shottake>
																					<lognote></lognote>
																					<good></good>
																					<originalvideofilename></originalvideofilename>
																					<originalaudiofilename></originalaudiofilename>
																				</logginginfo>
																				<colorinfo>
																					<lut></lut>
																					<lut1></lut1>
																					<asc_sop></asc_sop>
																					<asc_sat></asc_sat>
																					<lut2></lut2>
																				</colorinfo>
																				<labels>
																					<label2>Violet</label2>
																				</labels>
																			</clipitem>
																			<clipitem id="clipitem-493">
																				<masterclipid>masterclip-200</masterclipid>
																				<name>(succulentbite)_BjkSGpQg49z_IG.mp4</name>
																				<enabled>TRUE</enabled>
																				<duration>301</duration>
																				<rate>
																					<timebase>30</timebase>
																					<ntsc>TRUE</ntsc>
																				</rate>
																				<start>2417</start>
																				<end>2628</end>
																				<in>0</in>
																				<out>211</out>
																				<pproTicksIn>0</pproTicksIn>
																				<pproTicksOut>1788365779200</pproTicksOut>
																				<alphatype>none</alphatype>
																				<pixelaspectratio>square</pixelaspectratio>
																				<anamorphic>FALSE</anamorphic>
																				<file id="file-173">
																					<name>(succulentbite)_BjkSGpQg49z_IG.mp4</name>
																					<pathurl>file://localhost/Volumes/ATM%201/EYE%20CANDY/8%3a14%3a23/3_Raw%20Files/Bitefulls%20of%20Bliss/(succulentbite)_BjkSGpQg49z_IG.mp4</pathurl>
																					<rate>
																						<timebase>30</timebase>
																						<ntsc>FALSE</ntsc>
																					</rate>
																					<duration>302</duration>
																					<timecode>
																						<rate>
																							<timebase>30</timebase>
																							<ntsc>FALSE</ntsc>
																						</rate>
																						<string>00:00:00:00</string>
																						<frame>0</frame>
																						<displayformat>NDF</displayformat>
																					</timecode>
																					<media>
																						<video>
																							<samplecharacteristics>
																								<rate>
																									<timebase>30</timebase>
																									<ntsc>FALSE</ntsc>
																								</rate>
																								<width>640</width>
																								<height>640</height>
																								<anamorphic>FALSE</anamorphic>
																								<pixelaspectratio>square</pixelaspectratio>
																								<fielddominance>none</fielddominance>
																							</samplecharacteristics>
																						</video>
																					</media>
																				</file>
																				<logginginfo>
																					<description></description>
																					<scene></scene>
																					<shottake></shottake>
																					<lognote></lognote>
																					<good></good>
																					<originalvideofilename></originalvideofilename>
																					<originalaudiofilename></originalaudiofilename>
																				</logginginfo>
																				<colorinfo>
																					<lut></lut>
																					<lut1></lut1>
																					<asc_sop></asc_sop>
																					<asc_sat></asc_sat>
																					<lut2></lut2>
																				</colorinfo>
																				<labels>
																					<label2>Violet</label2>
																				</labels>
																			</clipitem>
																			<enabled>TRUE</enabled>
																			<locked>FALSE</locked>
																		</track>
																	</video>
																	<audio>
																		<numOutputChannels>2</numOutputChannels>
																		<format>
																			<samplecharacteristics>
																				<depth>16</depth>
																				<samplerate>48000</samplerate>
																			</samplecharacteristics>
																		</format>
																		<outputs>
																			<group>
																				<index>1</index>
																				<numchannels>1</numchannels>
																				<downmix>0</downmix>
																				<channel>
																					<index>1</index>
																				</channel>
																			</group>
																			<group>
																				<index>2</index>
																				<numchannels>1</numchannels>
																				<downmix>0</downmix>
																				<channel>
																					<index>2</index>
																				</channel>
																			</group>
																		</outputs>
																		<track TL.SQTrackAudioKeyframeStyle="0" TL.SQTrackShy="0" TL.SQTrackExpandedHeight="25" TL.SQTrackExpanded="0" MZ.TrackTargeted="1" PannerCurrentValue="0.5" PannerIsInverted="true" PannerStartKeyframe="-91445760000000000,0.5,0,0,0,0,0,0" PannerName="Balance" currentExplodedTrackIndex="0" totalExplodedTrackCount="2" premiereTrackType="Stereo">
																			<enabled>TRUE</enabled>
																			<locked>FALSE</locked>
																			<outputchannelindex>1</outputchannelindex>
																		</track>
																		<track TL.SQTrackAudioKeyframeStyle="0" TL.SQTrackShy="0" TL.SQTrackExpandedHeight="25" TL.SQTrackExpanded="0" MZ.TrackTargeted="1" PannerCurrentValue="0.5" PannerIsInverted="true" PannerStartKeyframe="-91445760000000000,0.5,0,0,0,0,0,0" PannerName="Balance" currentExplodedTrackIndex="1" totalExplodedTrackCount="2" premiereTrackType="Stereo">
																			<enabled>TRUE</enabled>
																			<locked>FALSE</locked>
																			<outputchannelindex>2</outputchannelindex>
																		</track>
																	</audio>
																</media>
																<timecode>
																	<rate>
																		<timebase>30</timebase>
																		<ntsc>TRUE</ntsc>
																	</rate>
																	<string>00;00;00;00</string>
																	<frame>0</frame>
																	<displayformat>DF</displayformat>
																</timecode>
																<logginginfo>
																	<description></description>
																	<scene></scene>
																	<shottake></shottake>
																	<lognote></lognote>
																	<good></good>
																	<originalvideofilename></originalvideofilename>
																	<originalaudiofilename></originalaudiofilename>
																</logginginfo>
															</sequence>
															<filter>
																<effect>
																	<name>Basic Motion</name>
																	<effectid>basic</effectid>
																	<effectcategory>motion</effectcategory>
																	<effecttype>motion</effecttype>
																	<mediatype>video</mediatype>
																	<pproBypass>false</pproBypass>
																	<parameter authoringApp="PremierePro">
																		<parameterid>scale</parameterid>
																		<name>Scale</name>
																		<valuemin>0</valuemin>
																		<valuemax>1000</valuemax>
																		<value>300</value>
																	</parameter>
																	<parameter authoringApp="PremierePro">
																		<parameterid>rotation</parameterid>
																		<name>Rotation</name>
																		<valuemin>-8640</valuemin>
																		<valuemax>8640</valuemax>
																		<value>0</value>
																	</parameter>
																	<parameter authoringApp="PremierePro">
																		<parameterid>center</parameterid>
																		<name>Center</name>
																		<value>
																			<horiz>-0.5</horiz>
																			<vert>-0.5</vert>
																		</value>
																	</parameter>
																	<parameter authoringApp="PremierePro">
																		<parameterid>centerOffset</parameterid>
																		<name>Anchor Point</name>
																		<value>
																			<horiz>0</horiz>
																			<vert>0</vert>
																		</value>
																	</parameter>
																	<parameter authoringApp="PremierePro">
																		<parameterid>antiflicker</parameterid>
																		<name>Anti-flicker Filter</name>
																		<valuemin>0.0</valuemin>
																		<valuemax>1.0</valuemax>
																		<value>0</value>
																	</parameter>
																</effect>
															</filter>
															<filter>
																<effect>
																	<name>Gaussian Blur</name>
																	<effectid>Gaussian Blur</effectid>
																	<effectcategory>Blur</effectcategory>
																	<effecttype>motion</effecttype>
																	<mediatype>video</mediatype>
																	<pproBypass>false</pproBypass>
																	<parameter authoringApp="PremierePro">
																		<parameterid>radius</parameterid>
																		<name>Radius</name>
																		<valuemin>0</valuemin>
																		<valuemax>100</valuemax>
																		<value>150</value>
																	</parameter>
																</effect>
															</filter>
															<labels>
																<label2>Forest</label2>
															</labels>
														</clipitem>
														<enabled>TRUE</enabled>
														<locked>FALSE</locked>
													</track>
													<track TL.SQTrackShy="0" TL.SQTrackExpandedHeight="25" TL.SQTrackExpanded="0" MZ.TrackTargeted="0">
														<clipitem id="clipitem-494">
															<masterclipid>masterclip-188</masterclipid>
															<name>Nested Sequence 02</name>
															<enabled>TRUE</enabled>
															<duration>2628</duration>
															<rate>
																<timebase>30</timebase>
																<ntsc>TRUE</ntsc>
															</rate>
															<start>0</start>
															<end>2628</end>
															<in>0</in>
															<out>2628</out>
															<pproTicksIn>0</pproTicksIn>
															<pproTicksOut>22274053401600</pproTicksOut>
															<sequence id="sequence-37"/>
															<labels>
																<label2>Forest</label2>
															</labels>
														</clipitem>
														<enabled>TRUE</enabled>
														<locked>FALSE</locked>
													</track>
													<track TL.SQTrackShy="0" TL.SQTrackExpandedHeight="25" TL.SQTrackExpanded="0" MZ.TrackTargeted="0">
														<clipitem id="clipitem-495">
															<masterclipid>masterclip-201</masterclipid>
															<name>succulentbite</name>
															<enabled>TRUE</enabled>
															<duration>5844</duration>
															<rate>
																<timebase>30</timebase>
																<ntsc>TRUE</ntsc>
															</rate>
															<start>0</start>
															<end>2628</end>
															<in>0</in>
															<out>2628</out>
															<pproTicksIn>0</pproTicksIn>
															<pproTicksOut>22274053401600</pproTicksOut>
															<alphatype>straight</alphatype>
															<pixelaspectratio>square</pixelaspectratio>
															<anamorphic>FALSE</anamorphic>
															<file id="file-174">
																<name>1080/AE Attribution.aep</name>
																<pathurl>file://localhost/Volumes/ATM%201/EYE%20CANDY/Project%20Template/5_Assets/AE%20Attribution.aep</pathurl>
																<rate>
																	<timebase>30</timebase>
																	<ntsc>TRUE</ntsc>
																</rate>
																<duration>5844</duration>
																<timecode>
																	<rate>
																		<timebase>30</timebase>
																		<ntsc>TRUE</ntsc>
																	</rate>
																	<string>00;00;00;00</string>
																	<frame>0</frame>
																	<displayformat>DF</displayformat>
																</timecode>
																<media>
																	<video>
																		<samplecharacteristics>
																			<rate>
																				<timebase>30</timebase>
																				<ntsc>TRUE</ntsc>
																			</rate>
																			<width>1920</width>
																			<height>1080</height>
																			<anamorphic>FALSE</anamorphic>
																			<pixelaspectratio>square</pixelaspectratio>
																			<fielddominance>lower</fielddominance>
																		</samplecharacteristics>
																	</video>
																</media>
															</file>
															<logginginfo>
																<description></description>
																<scene></scene>
																<shottake></shottake>
																<lognote></lognote>
																<good></good>
																<originalvideofilename></originalvideofilename>
																<originalaudiofilename></originalaudiofilename>
															</logginginfo>
															<colorinfo>
																<lut></lut>
																<lut1></lut1>
																<asc_sop></asc_sop>
																<asc_sat></asc_sat>
																<lut2></lut2>
															</colorinfo>
															<labels>
																<label2>Rose</label2>
															</labels>
														</clipitem>
														<enabled>TRUE</enabled>
														<locked>FALSE</locked>
													</track>
													<track TL.SQTrackShy="0" TL.SQTrackExpandedHeight="25" TL.SQTrackExpanded="0" MZ.TrackTargeted="0">
														<enabled>TRUE</enabled>
														<locked>FALSE</locked>
													</track>
													<track TL.SQTrackShy="0" TL.SQTrackExpandedHeight="25" TL.SQTrackExpanded="0" MZ.TrackTargeted="0">
														<enabled>TRUE</enabled>
														<locked>FALSE</locked>
													</track>
													<track TL.SQTrackShy="0" TL.SQTrackExpandedHeight="25" TL.SQTrackExpanded="0" MZ.TrackTargeted="0">
														<enabled>TRUE</enabled>
														<locked>FALSE</locked>
													</track>
													<track TL.SQTrackShy="0" TL.SQTrackExpandedHeight="25" TL.SQTrackExpanded="0" MZ.TrackTargeted="0">
														<enabled>TRUE</enabled>
														<locked>FALSE</locked>
													</track>
													<track TL.SQTrackShy="0" TL.SQTrackExpandedHeight="25" TL.SQTrackExpanded="0" MZ.TrackTargeted="0">
														<enabled>TRUE</enabled>
														<locked>FALSE</locked>
													</track>
													<track TL.SQTrackShy="0" TL.SQTrackExpandedHeight="25" TL.SQTrackExpanded="0" MZ.TrackTargeted="0">
														<enabled>TRUE</enabled>
														<locked>FALSE</locked>
													</track>
													<track TL.SQTrackShy="0" TL.SQTrackExpandedHeight="25" TL.SQTrackExpanded="0" MZ.TrackTargeted="0">
														<enabled>TRUE</enabled>
														<locked>FALSE</locked>
													</track>
												</video>
												<audio>
													<numOutputChannels>2</numOutputChannels>
													<format>
														<samplecharacteristics>
															<depth>16</depth>
															<samplerate>48000</samplerate>
														</samplecharacteristics>
													</format>
													<outputs>
														<group>
															<index>1</index>
															<numchannels>1</numchannels>
															<downmix>0</downmix>
															<channel>
																<index>1</index>
															</channel>
														</group>
														<group>
															<index>2</index>
															<numchannels>1</numchannels>
															<downmix>0</downmix>
															<channel>
																<index>2</index>
															</channel>
														</group>
													</outputs>
													<track TL.SQTrackAudioKeyframeStyle="0" TL.SQTrackShy="0" TL.SQTrackExpandedHeight="25" TL.SQTrackExpanded="0" MZ.TrackTargeted="1" PannerCurrentValue="0.5" PannerIsInverted="true" PannerStartKeyframe="-91445760000000000,0.5,0,0,0,0,0,0" PannerName="Balance" currentExplodedTrackIndex="0" totalExplodedTrackCount="2" premiereTrackType="Stereo">
														<clipitem id="clipitem-496" premiereChannelType="stereo">
															<masterclipid>masterclip-202</masterclipid>
															<name>ES_Another Wednesday Night - OTE.mp3</name>
															<enabled>TRUE</enabled>
															<duration>7005</duration>
															<rate>
																<timebase>30</timebase>
																<ntsc>TRUE</ntsc>
															</rate>
															<start>0</start>
															<end>2628</end>
															<in>0</in>
															<out>2628</out>
															<pproTicksIn>0</pproTicksIn>
															<pproTicksOut>22274053401600</pproTicksOut>
															<file id="file-175">
																<name>ES_Another Wednesday Night - OTE.mp3</name>
																<pathurl>file://localhost/Volumes/CONTENT/VOD%20CONTENT%20ARCHIVE/O&amp;O%20Archive%202023/Eye%20Candy/8%3a14%3a23/4_Project%20Files/Adobe%20Premiere%20Pro%20Video%20Previews/8%3a14%3a23.PRV/../../../3_Raw%20Files/Artlist%20-%20Chocolate%20Pistachio%20Treat/../../5_Assets/Music/ES_Another%20Wednesday%20Night%20-%20OTE.mp3</pathurl>
																<rate>
																	<timebase>30</timebase>
																	<ntsc>TRUE</ntsc>
																</rate>
																<duration>7005</duration>
																<timecode>
																	<rate>
																		<timebase>30</timebase>
																		<ntsc>TRUE</ntsc>
																	</rate>
																	<string>00;00;00;00</string>
																	<frame>0</frame>
																	<displayformat>DF</displayformat>
																</timecode>
																<media>
																	<audio>
																		<samplecharacteristics>
																			<depth>16</depth>
																			<samplerate>48000</samplerate>
																		</samplecharacteristics>
																		<channelcount>2</channelcount>
																	</audio>
																</media>
															</file>
															<sourcetrack>
																<mediatype>audio</mediatype>
																<trackindex>1</trackindex>
															</sourcetrack>
															<link>
																<linkclipref>clipitem-496</linkclipref>
																<mediatype>audio</mediatype>
																<trackindex>1</trackindex>
																<clipindex>1</clipindex>
																<groupindex>1</groupindex>
															</link>
															<link>
																<linkclipref>clipitem-497</linkclipref>
																<mediatype>audio</mediatype>
																<trackindex>2</trackindex>
																<clipindex>1</clipindex>
																<groupindex>1</groupindex>
															</link>
															<logginginfo>
																<description></description>
																<scene></scene>
																<shottake></shottake>
																<lognote></lognote>
																<good></good>
																<originalvideofilename></originalvideofilename>
																<originalaudiofilename></originalaudiofilename>
															</logginginfo>
															<colorinfo>
																<lut></lut>
																<lut1></lut1>
																<asc_sop></asc_sop>
																<asc_sat></asc_sat>
																<lut2></lut2>
															</colorinfo>
															<labels>
																<label2>Caribbean</label2>
															</labels>
														</clipitem>
														<enabled>TRUE</enabled>
														<locked>FALSE</locked>
														<filter>
															<effect>
																<name>Audio Levels</name>
																<effectid>audiolevels</effectid>
																<effectcategory>audiolevels</effectcategory>
																<effecttype>audiolevels</effecttype>
																<mediatype>audio</mediatype>
																<parameter authoringApp="PremierePro">
																	<parameterid>level</parameterid>
																	<name>Level</name>
																	<valuemin>0</valuemin>
																	<valuemax>3.98109</valuemax>
																	<value>0.706272</value>
																</parameter>
															</effect>
														</filter>
														<outputchannelindex>1</outputchannelindex>
													</track>
													<track TL.SQTrackAudioKeyframeStyle="0" TL.SQTrackShy="0" TL.SQTrackExpandedHeight="25" TL.SQTrackExpanded="0" MZ.TrackTargeted="1" PannerCurrentValue="0.5" PannerIsInverted="true" PannerStartKeyframe="-91445760000000000,0.5,0,0,0,0,0,0" PannerName="Balance" currentExplodedTrackIndex="1" totalExplodedTrackCount="2" premiereTrackType="Stereo">
														<clipitem id="clipitem-497" premiereChannelType="stereo">
															<masterclipid>masterclip-202</masterclipid>
															<name>ES_Another Wednesday Night - OTE.mp3</name>
															<enabled>TRUE</enabled>
															<duration>7005</duration>
															<rate>
																<timebase>30</timebase>
																<ntsc>TRUE</ntsc>
															</rate>
															<start>0</start>
															<end>2628</end>
															<in>0</in>
															<out>2628</out>
															<pproTicksIn>0</pproTicksIn>
															<pproTicksOut>22274053401600</pproTicksOut>
															<file id="file-175"/>
															<sourcetrack>
																<mediatype>audio</mediatype>
																<trackindex>2</trackindex>
															</sourcetrack>
															<link>
																<linkclipref>clipitem-496</linkclipref>
																<mediatype>audio</mediatype>
																<trackindex>1</trackindex>
																<clipindex>1</clipindex>
																<groupindex>1</groupindex>
															</link>
															<link>
																<linkclipref>clipitem-497</linkclipref>
																<mediatype>audio</mediatype>
																<trackindex>2</trackindex>
																<clipindex>1</clipindex>
																<groupindex>1</groupindex>
															</link>
															<logginginfo>
																<description></description>
																<scene></scene>
																<shottake></shottake>
																<lognote></lognote>
																<good></good>
																<originalvideofilename></originalvideofilename>
																<originalaudiofilename></originalaudiofilename>
															</logginginfo>
															<colorinfo>
																<lut></lut>
																<lut1></lut1>
																<asc_sop></asc_sop>
																<asc_sat></asc_sat>
																<lut2></lut2>
															</colorinfo>
															<labels>
																<label2>Caribbean</label2>
															</labels>
														</clipitem>
														<enabled>TRUE</enabled>
														<locked>FALSE</locked>
														<filter>
															<effect>
																<name>Audio Levels</name>
																<effectid>audiolevels</effectid>
																<effectcategory>audiolevels</effectcategory>
																<effecttype>audiolevels</effecttype>
																<mediatype>audio</mediatype>
																<parameter authoringApp="PremierePro">
																	<parameterid>level</parameterid>
																	<name>Level</name>
																	<valuemin>0</valuemin>
																	<valuemax>3.98109</valuemax>
																	<value>0.706272</value>
																</parameter>
															</effect>
														</filter>
														<outputchannelindex>2</outputchannelindex>
													</track>
													<track TL.SQTrackAudioKeyframeStyle="0" TL.SQTrackShy="0" TL.SQTrackExpandedHeight="25" TL.SQTrackExpanded="0" MZ.TrackTargeted="0" PannerCurrentValue="0.5" PannerIsInverted="true" PannerStartKeyframe="-91445760000000000,0.5,0,0,0,0,0,0" PannerName="Balance" currentExplodedTrackIndex="0" totalExplodedTrackCount="2" premiereTrackType="Stereo">
														<enabled>TRUE</enabled>
														<locked>FALSE</locked>
														<outputchannelindex>1</outputchannelindex>
													</track>
													<track TL.SQTrackAudioKeyframeStyle="0" TL.SQTrackShy="0" TL.SQTrackExpandedHeight="25" TL.SQTrackExpanded="0" MZ.TrackTargeted="0" PannerCurrentValue="0.5" PannerIsInverted="true" PannerStartKeyframe="-91445760000000000,0.5,0,0,0,0,0,0" PannerName="Balance" currentExplodedTrackIndex="1" totalExplodedTrackCount="2" premiereTrackType="Stereo">
														<enabled>TRUE</enabled>
														<locked>FALSE</locked>
														<outputchannelindex>2</outputchannelindex>
													</track>
													<track TL.SQTrackAudioKeyframeStyle="0" TL.SQTrackShy="0" TL.SQTrackExpandedHeight="25" TL.SQTrackExpanded="0" MZ.TrackTargeted="0" PannerCurrentValue="0.5" PannerIsInverted="true" PannerStartKeyframe="-91445760000000000,0.5,0,0,0,0,0,0" PannerName="Balance" currentExplodedTrackIndex="0" totalExplodedTrackCount="2" premiereTrackType="Stereo">
														<enabled>TRUE</enabled>
														<locked>FALSE</locked>
														<outputchannelindex>1</outputchannelindex>
													</track>
													<track TL.SQTrackAudioKeyframeStyle="0" TL.SQTrackShy="0" TL.SQTrackExpandedHeight="25" TL.SQTrackExpanded="0" MZ.TrackTargeted="0" PannerCurrentValue="0.5" PannerIsInverted="true" PannerStartKeyframe="-91445760000000000,0.5,0,0,0,0,0,0" PannerName="Balance" currentExplodedTrackIndex="1" totalExplodedTrackCount="2" premiereTrackType="Stereo">
														<enabled>TRUE</enabled>
														<locked>FALSE</locked>
														<outputchannelindex>2</outputchannelindex>
													</track>
													<track TL.SQTrackAudioKeyframeStyle="0" TL.SQTrackShy="0" TL.SQTrackExpandedHeight="25" TL.SQTrackExpanded="0" MZ.TrackTargeted="0" PannerCurrentValue="0.5" PannerIsInverted="true" PannerStartKeyframe="-91445760000000000,0.5,0,0,0,0,0,0" PannerName="Balance" currentExplodedTrackIndex="0" totalExplodedTrackCount="2" premiereTrackType="Stereo">
														<enabled>TRUE</enabled>
														<locked>FALSE</locked>
														<outputchannelindex>1</outputchannelindex>
													</track>
													<track TL.SQTrackAudioKeyframeStyle="0" TL.SQTrackShy="0" TL.SQTrackExpandedHeight="25" TL.SQTrackExpanded="0" MZ.TrackTargeted="0" PannerCurrentValue="0.5" PannerIsInverted="true" PannerStartKeyframe="-91445760000000000,0.5,0,0,0,0,0,0" PannerName="Balance" currentExplodedTrackIndex="1" totalExplodedTrackCount="2" premiereTrackType="Stereo">
														<enabled>TRUE</enabled>
														<locked>FALSE</locked>
														<outputchannelindex>2</outputchannelindex>
													</track>
													<track TL.SQTrackAudioKeyframeStyle="0" TL.SQTrackShy="0" TL.SQTrackExpandedHeight="25" TL.SQTrackExpanded="0" MZ.TrackTargeted="0" PannerCurrentValue="0.5" PannerIsInverted="true" PannerStartKeyframe="-91445760000000000,0.5,0,0,0,0,0,0" PannerName="Balance" currentExplodedTrackIndex="0" totalExplodedTrackCount="2" premiereTrackType="Stereo">
														<enabled>TRUE</enabled>
														<locked>FALSE</locked>
														<outputchannelindex>1</outputchannelindex>
													</track>
													<track TL.SQTrackAudioKeyframeStyle="0" TL.SQTrackShy="0" TL.SQTrackExpandedHeight="25" TL.SQTrackExpanded="0" MZ.TrackTargeted="0" PannerCurrentValue="0.5" PannerIsInverted="true" PannerStartKeyframe="-91445760000000000,0.5,0,0,0,0,0,0" PannerName="Balance" currentExplodedTrackIndex="1" totalExplodedTrackCount="2" premiereTrackType="Stereo">
														<enabled>TRUE</enabled>
														<locked>FALSE</locked>
														<outputchannelindex>2</outputchannelindex>
													</track>
													<track TL.SQTrackAudioKeyframeStyle="0" TL.SQTrackShy="0" TL.SQTrackExpandedHeight="25" TL.SQTrackExpanded="0" MZ.TrackTargeted="0" PannerCurrentValue="0.5" PannerIsInverted="true" PannerStartKeyframe="-91445760000000000,0.5,0,0,0,0,0,0" PannerName="Balance" currentExplodedTrackIndex="0" totalExplodedTrackCount="2" premiereTrackType="Stereo">
														<enabled>TRUE</enabled>
														<locked>FALSE</locked>
														<outputchannelindex>1</outputchannelindex>
													</track>
													<track TL.SQTrackAudioKeyframeStyle="0" TL.SQTrackShy="0" TL.SQTrackExpandedHeight="25" TL.SQTrackExpanded="0" MZ.TrackTargeted="0" PannerCurrentValue="0.5" PannerIsInverted="true" PannerStartKeyframe="-91445760000000000,0.5,0,0,0,0,0,0" PannerName="Balance" currentExplodedTrackIndex="1" totalExplodedTrackCount="2" premiereTrackType="Stereo">
														<enabled>TRUE</enabled>
														<locked>FALSE</locked>
														<outputchannelindex>2</outputchannelindex>
													</track>
													<track TL.SQTrackAudioKeyframeStyle="0" TL.SQTrackShy="0" TL.SQTrackExpandedHeight="25" TL.SQTrackExpanded="0" MZ.TrackTargeted="0" PannerCurrentValue="0.5" PannerIsInverted="true" PannerStartKeyframe="-91445760000000000,0.5,0,0,0,0,0,0" PannerName="Balance" currentExplodedTrackIndex="0" totalExplodedTrackCount="2" premiereTrackType="Stereo">
														<enabled>TRUE</enabled>
														<locked>FALSE</locked>
														<outputchannelindex>1</outputchannelindex>
													</track>
													<track TL.SQTrackAudioKeyframeStyle="0" TL.SQTrackShy="0" TL.SQTrackExpandedHeight="25" TL.SQTrackExpanded="0" MZ.TrackTargeted="0" PannerCurrentValue="0.5" PannerIsInverted="true" PannerStartKeyframe="-91445760000000000,0.5,0,0,0,0,0,0" PannerName="Balance" currentExplodedTrackIndex="1" totalExplodedTrackCount="2" premiereTrackType="Stereo">
														<enabled>TRUE</enabled>
														<locked>FALSE</locked>
														<outputchannelindex>2</outputchannelindex>
													</track>
													<track TL.SQTrackAudioKeyframeStyle="0" TL.SQTrackShy="0" TL.SQTrackExpandedHeight="25" TL.SQTrackExpanded="0" MZ.TrackTargeted="0" PannerCurrentValue="0.5" PannerIsInverted="true" PannerStartKeyframe="-91445760000000000,0.5,0,0,0,0,0,0" PannerName="Balance" currentExplodedTrackIndex="0" totalExplodedTrackCount="2" premiereTrackType="Stereo">
														<enabled>TRUE</enabled>
														<locked>FALSE</locked>
														<outputchannelindex>1</outputchannelindex>
													</track>
													<track TL.SQTrackAudioKeyframeStyle="0" TL.SQTrackShy="0" TL.SQTrackExpandedHeight="25" TL.SQTrackExpanded="0" MZ.TrackTargeted="0" PannerCurrentValue="0.5" PannerIsInverted="true" PannerStartKeyframe="-91445760000000000,0.5,0,0,0,0,0,0" PannerName="Balance" currentExplodedTrackIndex="1" totalExplodedTrackCount="2" premiereTrackType="Stereo">
														<enabled>TRUE</enabled>
														<locked>FALSE</locked>
														<outputchannelindex>2</outputchannelindex>
													</track>
													<track TL.SQTrackAudioKeyframeStyle="0" TL.SQTrackShy="0" TL.SQTrackExpandedHeight="25" TL.SQTrackExpanded="0" MZ.TrackTargeted="0" PannerCurrentValue="0.5" PannerIsInverted="true" PannerStartKeyframe="-91445760000000000,0.5,0,0,0,0,0,0" PannerName="Balance" currentExplodedTrackIndex="0" totalExplodedTrackCount="2" premiereTrackType="Stereo">
														<enabled>TRUE</enabled>
														<locked>FALSE</locked>
														<outputchannelindex>1</outputchannelindex>
													</track>
													<track TL.SQTrackAudioKeyframeStyle="0" TL.SQTrackShy="0" TL.SQTrackExpandedHeight="25" TL.SQTrackExpanded="0" MZ.TrackTargeted="0" PannerCurrentValue="0.5" PannerIsInverted="true" PannerStartKeyframe="-91445760000000000,0.5,0,0,0,0,0,0" PannerName="Balance" currentExplodedTrackIndex="1" totalExplodedTrackCount="2" premiereTrackType="Stereo">
														<enabled>TRUE</enabled>
														<locked>FALSE</locked>
														<outputchannelindex>2</outputchannelindex>
													</track>
													<track TL.SQTrackAudioKeyframeStyle="0" TL.SQTrackShy="0" TL.SQTrackExpandedHeight="25" TL.SQTrackExpanded="0" MZ.TrackTargeted="0" PannerCurrentValue="0.5" PannerIsInverted="true" PannerStartKeyframe="-91445760000000000,0.5,0,0,0,0,0,0" PannerName="Balance" currentExplodedTrackIndex="0" totalExplodedTrackCount="2" premiereTrackType="Stereo">
														<enabled>TRUE</enabled>
														<locked>FALSE</locked>
														<outputchannelindex>1</outputchannelindex>
													</track>
													<track TL.SQTrackAudioKeyframeStyle="0" TL.SQTrackShy="0" TL.SQTrackExpandedHeight="25" TL.SQTrackExpanded="0" MZ.TrackTargeted="0" PannerCurrentValue="0.5" PannerIsInverted="true" PannerStartKeyframe="-91445760000000000,0.5,0,0,0,0,0,0" PannerName="Balance" currentExplodedTrackIndex="1" totalExplodedTrackCount="2" premiereTrackType="Stereo">
														<enabled>TRUE</enabled>
														<locked>FALSE</locked>
														<outputchannelindex>2</outputchannelindex>
													</track>
												</audio>
											</media>
											<timecode>
												<rate>
													<timebase>30</timebase>
													<ntsc>TRUE</ntsc>
												</rate>
												<string>00;00;00;00</string>
												<frame>0</frame>
												<displayformat>DF</displayformat>
											</timecode>
											<logginginfo>
												<description></description>
												<scene></scene>
												<shottake></shottake>
												<lognote></lognote>
												<good></good>
												<originalvideofilename></originalvideofilename>
												<originalaudiofilename></originalaudiofilename>
											</logginginfo>
										</sequence>
										<link>
											<linkclipref>clipitem-480</linkclipref>
											<mediatype>video</mediatype>
											<trackindex>1</trackindex>
											<clipindex>2</clipindex>
										</link>
										<link>
											<linkclipref>clipitem-508</linkclipref>
											<mediatype>audio</mediatype>
											<trackindex>1</trackindex>
											<clipindex>3</clipindex>
											<groupindex>1</groupindex>
										</link>
										<link>
											<linkclipref>clipitem-511</linkclipref>
											<mediatype>audio</mediatype>
											<trackindex>2</trackindex>
											<clipindex>3</clipindex>
											<groupindex>1</groupindex>
										</link>
										<labels>
											<label2>Forest</label2>
										</labels>
									</clipitem>
									<clipitem id="clipitem-498">
										<masterclipid>masterclip-203</masterclipid>
										<name>Bumper 1</name>
										<enabled>TRUE</enabled>
										<duration>239</duration>
										<rate>
											<timebase>30</timebase>
											<ntsc>TRUE</ntsc>
										</rate>
										<start>5105</start>
										<end>5344</end>
										<in>0</in>
										<out>239</out>
										<pproTicksIn>0</pproTicksIn>
										<pproTicksOut>2025684460800</pproTicksOut>
										<sequence id="sequence-38" TL.SQAudioVisibleBase="0" TL.SQVideoVisibleBase="0" TL.SQVisibleBaseTime="0" TL.SQAVDividerPosition="0.5" TL.SQHideShyTracks="0" TL.SQHeaderWidth="236" Monitor.ProgramZoomOut="2025684460800" Monitor.ProgramZoomIn="0" TL.SQTimePerPixel="0.072184793070258338" MZ.EditLine="0" MZ.Sequence.PreviewFrameSizeHeight="1080" MZ.Sequence.PreviewFrameSizeWidth="1920" MZ.Sequence.AudioTimeDisplayFormat="200" MZ.Sequence.PreviewRenderingClassID="1061109567" MZ.Sequence.PreviewRenderingPresetCodec="1634755443" MZ.Sequence.PreviewRenderingPresetPath="EncoderPresets/SequencePreview/35d109db-457b-43c1-9452-9cb7be9f121c/QuickTime.epr" MZ.Sequence.PreviewUseMaxRenderQuality="false" MZ.Sequence.PreviewUseMaxBitDepth="false" MZ.Sequence.EditingModeGUID="35d109db-457b-43c1-9452-9cb7be9f121c" MZ.Sequence.VideoTimeDisplayFormat="102" MZ.WorkOutPoint="1262874412800" MZ.WorkInPoint="0">
											<duration>239</duration>
											<rate>
												<timebase>30</timebase>
												<ntsc>TRUE</ntsc>
											</rate>
											<name>Bumper 1</name>
											<media>
												<video>
													<format>
														<samplecharacteristics>
															<rate>
																<timebase>30</timebase>
																<ntsc>TRUE</ntsc>
															</rate>
															<codec>
																<name>Apple ProRes 422</name>
																<appspecificdata>
																	<appname>Final Cut Pro</appname>
																	<appmanufacturer>Apple Inc.</appmanufacturer>
																	<appversion>7.0</appversion>
																	<data>
																		<qtcodec>
																			<codecname>Apple ProRes 422</codecname>
																			<codectypename>Apple ProRes 422</codectypename>
																			<codectypecode>apcn</codectypecode>
																			<codecvendorcode>appl</codecvendorcode>
																			<spatialquality>1024</spatialquality>
																			<temporalquality>0</temporalquality>
																			<keyframerate>0</keyframerate>
																			<datarate>0</datarate>
																		</qtcodec>
																	</data>
																</appspecificdata>
															</codec>
															<width>1920</width>
															<height>1080</height>
															<anamorphic>FALSE</anamorphic>
															<pixelaspectratio>square</pixelaspectratio>
															<fielddominance>none</fielddominance>
															<colordepth>24</colordepth>
														</samplecharacteristics>
													</format>
													<track TL.SQTrackShy="0" TL.SQTrackExpandedHeight="25" TL.SQTrackExpanded="0" MZ.TrackTargeted="1">
														<clipitem id="clipitem-499">
															<masterclipid>masterclip-204</masterclipid>
															<name>ATM_HouseAd_2023_V2.mp4</name>
															<enabled>TRUE</enabled>
															<duration>239</duration>
															<rate>
																<timebase>30</timebase>
																<ntsc>TRUE</ntsc>
															</rate>
															<start>0</start>
															<end>239</end>
															<in>0</in>
															<out>239</out>
															<pproTicksIn>0</pproTicksIn>
															<pproTicksOut>2025684460800</pproTicksOut>
															<alphatype>none</alphatype>
															<pixelaspectratio>square</pixelaspectratio>
															<anamorphic>FALSE</anamorphic>
															<file id="file-176">
																<name>ATM_HouseAd_2023_V2.mp4</name>
																<pathurl>file://localhost/Volumes/ATM%201/EYE%20CANDY/Project%20Template/5_Assets/House%20Ads/ATM_HouseAd_2023_V2.mp4</pathurl>
																<rate>
																	<timebase>30</timebase>
																	<ntsc>FALSE</ntsc>
																</rate>
																<duration>240</duration>
																<timecode>
																	<rate>
																		<timebase>30</timebase>
																		<ntsc>FALSE</ntsc>
																	</rate>
																	<string>00:00:00:00</string>
																	<frame>0</frame>
																	<displayformat>NDF</displayformat>
																</timecode>
																<media>
																	<video>
																		<samplecharacteristics>
																			<rate>
																				<timebase>30</timebase>
																				<ntsc>FALSE</ntsc>
																			</rate>
																			<width>1920</width>
																			<height>1080</height>
																			<anamorphic>FALSE</anamorphic>
																			<pixelaspectratio>square</pixelaspectratio>
																			<fielddominance>none</fielddominance>
																		</samplecharacteristics>
																	</video>
																	<audio>
																		<samplecharacteristics>
																			<depth>16</depth>
																			<samplerate>48000</samplerate>
																		</samplecharacteristics>
																		<channelcount>2</channelcount>
																	</audio>
																</media>
															</file>
															<link>
																<linkclipref>clipitem-499</linkclipref>
																<mediatype>video</mediatype>
																<trackindex>1</trackindex>
																<clipindex>1</clipindex>
															</link>
															<link>
																<linkclipref>clipitem-500</linkclipref>
																<mediatype>audio</mediatype>
																<trackindex>1</trackindex>
																<clipindex>1</clipindex>
																<groupindex>1</groupindex>
															</link>
															<link>
																<linkclipref>clipitem-501</linkclipref>
																<mediatype>audio</mediatype>
																<trackindex>2</trackindex>
																<clipindex>1</clipindex>
																<groupindex>1</groupindex>
															</link>
															<logginginfo>
																<description></description>
																<scene></scene>
																<shottake></shottake>
																<lognote></lognote>
																<good></good>
																<originalvideofilename></originalvideofilename>
																<originalaudiofilename></originalaudiofilename>
															</logginginfo>
															<colorinfo>
																<lut></lut>
																<lut1></lut1>
																<asc_sop></asc_sop>
																<asc_sat></asc_sat>
																<lut2></lut2>
															</colorinfo>
															<labels>
																<label2>Iris</label2>
															</labels>
														</clipitem>
														<enabled>TRUE</enabled>
														<locked>FALSE</locked>
													</track>
												</video>
												<audio>
													<numOutputChannels>2</numOutputChannels>
													<format>
														<samplecharacteristics>
															<depth>16</depth>
															<samplerate>48000</samplerate>
														</samplecharacteristics>
													</format>
													<outputs>
														<group>
															<index>1</index>
															<numchannels>1</numchannels>
															<downmix>0</downmix>
															<channel>
																<index>1</index>
															</channel>
														</group>
														<group>
															<index>2</index>
															<numchannels>1</numchannels>
															<downmix>0</downmix>
															<channel>
																<index>2</index>
															</channel>
														</group>
													</outputs>
													<track TL.SQTrackAudioKeyframeStyle="0" TL.SQTrackShy="0" TL.SQTrackExpandedHeight="25" TL.SQTrackExpanded="0" MZ.TrackTargeted="1" PannerCurrentValue="0.5" PannerIsInverted="true" PannerStartKeyframe="-91445760000000000,0.5,0,0,0,0,0,0" PannerName="Balance" currentExplodedTrackIndex="0" totalExplodedTrackCount="2" premiereTrackType="Stereo">
														<clipitem id="clipitem-500" premiereChannelType="stereo">
															<masterclipid>masterclip-204</masterclipid>
															<name>ATM_HouseAd_2023_V2.mp4</name>
															<enabled>TRUE</enabled>
															<duration>239</duration>
															<rate>
																<timebase>30</timebase>
																<ntsc>TRUE</ntsc>
															</rate>
															<start>0</start>
															<end>239</end>
															<in>0</in>
															<out>239</out>
															<pproTicksIn>0</pproTicksIn>
															<pproTicksOut>2025684460800</pproTicksOut>
															<file id="file-176"/>
															<sourcetrack>
																<mediatype>audio</mediatype>
																<trackindex>1</trackindex>
															</sourcetrack>
															<filter>
																<effect>
																	<name>Audio Levels</name>
																	<effectid>audiolevels</effectid>
																	<effectcategory>audiolevels</effectcategory>
																	<effecttype>audiolevels</effecttype>
																	<mediatype>audio</mediatype>
																	<pproBypass>false</pproBypass>
																	<parameter authoringApp="PremierePro">
																		<parameterid>level</parameterid>
																		<name>Level</name>
																		<valuemin>0</valuemin>
																		<valuemax>3.98109</valuemax>
																		<value>0.354813</value>
																	</parameter>
																</effect>
															</filter>
															<link>
																<linkclipref>clipitem-499</linkclipref>
																<mediatype>video</mediatype>
																<trackindex>1</trackindex>
																<clipindex>1</clipindex>
															</link>
															<link>
																<linkclipref>clipitem-500</linkclipref>
																<mediatype>audio</mediatype>
																<trackindex>1</trackindex>
																<clipindex>1</clipindex>
																<groupindex>1</groupindex>
															</link>
															<link>
																<linkclipref>clipitem-501</linkclipref>
																<mediatype>audio</mediatype>
																<trackindex>2</trackindex>
																<clipindex>1</clipindex>
																<groupindex>1</groupindex>
															</link>
															<logginginfo>
																<description></description>
																<scene></scene>
																<shottake></shottake>
																<lognote></lognote>
																<good></good>
																<originalvideofilename></originalvideofilename>
																<originalaudiofilename></originalaudiofilename>
															</logginginfo>
															<colorinfo>
																<lut></lut>
																<lut1></lut1>
																<asc_sop></asc_sop>
																<asc_sat></asc_sat>
																<lut2></lut2>
															</colorinfo>
															<labels>
																<label2>Iris</label2>
															</labels>
														</clipitem>
														<enabled>TRUE</enabled>
														<locked>FALSE</locked>
														<outputchannelindex>1</outputchannelindex>
													</track>
													<track TL.SQTrackAudioKeyframeStyle="0" TL.SQTrackShy="0" TL.SQTrackExpandedHeight="25" TL.SQTrackExpanded="0" MZ.TrackTargeted="1" PannerCurrentValue="0.5" PannerIsInverted="true" PannerStartKeyframe="-91445760000000000,0.5,0,0,0,0,0,0" PannerName="Balance" currentExplodedTrackIndex="1" totalExplodedTrackCount="2" premiereTrackType="Stereo">
														<clipitem id="clipitem-501" premiereChannelType="stereo">
															<masterclipid>masterclip-204</masterclipid>
															<name>ATM_HouseAd_2023_V2.mp4</name>
															<enabled>TRUE</enabled>
															<duration>239</duration>
															<rate>
																<timebase>30</timebase>
																<ntsc>TRUE</ntsc>
															</rate>
															<start>0</start>
															<end>239</end>
															<in>0</in>
															<out>239</out>
															<pproTicksIn>0</pproTicksIn>
															<pproTicksOut>2025684460800</pproTicksOut>
															<file id="file-176"/>
															<sourcetrack>
																<mediatype>audio</mediatype>
																<trackindex>2</trackindex>
															</sourcetrack>
															<filter>
																<effect>
																	<name>Audio Levels</name>
																	<effectid>audiolevels</effectid>
																	<effectcategory>audiolevels</effectcategory>
																	<effecttype>audiolevels</effecttype>
																	<mediatype>audio</mediatype>
																	<pproBypass>false</pproBypass>
																	<parameter authoringApp="PremierePro">
																		<parameterid>level</parameterid>
																		<name>Level</name>
																		<valuemin>0</valuemin>
																		<valuemax>3.98109</valuemax>
																		<value>0.354813</value>
																	</parameter>
																</effect>
															</filter>
															<link>
																<linkclipref>clipitem-499</linkclipref>
																<mediatype>video</mediatype>
																<trackindex>1</trackindex>
																<clipindex>1</clipindex>
															</link>
															<link>
																<linkclipref>clipitem-500</linkclipref>
																<mediatype>audio</mediatype>
																<trackindex>1</trackindex>
																<clipindex>1</clipindex>
																<groupindex>1</groupindex>
															</link>
															<link>
																<linkclipref>clipitem-501</linkclipref>
																<mediatype>audio</mediatype>
																<trackindex>2</trackindex>
																<clipindex>1</clipindex>
																<groupindex>1</groupindex>
															</link>
															<logginginfo>
																<description></description>
																<scene></scene>
																<shottake></shottake>
																<lognote></lognote>
																<good></good>
																<originalvideofilename></originalvideofilename>
																<originalaudiofilename></originalaudiofilename>
															</logginginfo>
															<colorinfo>
																<lut></lut>
																<lut1></lut1>
																<asc_sop></asc_sop>
																<asc_sat></asc_sat>
																<lut2></lut2>
															</colorinfo>
															<labels>
																<label2>Iris</label2>
															</labels>
														</clipitem>
														<enabled>TRUE</enabled>
														<locked>FALSE</locked>
														<outputchannelindex>2</outputchannelindex>
													</track>
												</audio>
											</media>
											<timecode>
												<rate>
													<timebase>30</timebase>
													<ntsc>TRUE</ntsc>
												</rate>
												<string>00;00;00;00</string>
												<frame>0</frame>
												<displayformat>DF</displayformat>
											</timecode>
											<logginginfo>
												<description></description>
												<scene></scene>
												<shottake></shottake>
												<lognote></lognote>
												<good></good>
												<originalvideofilename></originalvideofilename>
												<originalaudiofilename></originalaudiofilename>
											</logginginfo>
										</sequence>
										<link>
											<linkclipref>clipitem-498</linkclipref>
											<mediatype>video</mediatype>
											<trackindex>1</trackindex>
											<clipindex>3</clipindex>
										</link>
										<link>
											<linkclipref>clipitem-509</linkclipref>
											<mediatype>audio</mediatype>
											<trackindex>1</trackindex>
											<clipindex>5</clipindex>
											<groupindex>1</groupindex>
										</link>
										<link>
											<linkclipref>clipitem-512</linkclipref>
											<mediatype>audio</mediatype>
											<trackindex>2</trackindex>
											<clipindex>5</clipindex>
											<groupindex>1</groupindex>
										</link>
										<labels>
											<label2>Forest</label2>
										</labels>
									</clipitem>
									<enabled>TRUE</enabled>
									<locked>FALSE</locked>
								</track>
								<track TL.SQTrackShy="0" TL.SQTrackExpandedHeight="25" TL.SQTrackExpanded="0" MZ.TrackTargeted="0">
									<clipitem id="clipitem-502">
										<masterclipid>masterclip-16</masterclipid>
										<name>ATM BUG_1080_Top Right.png</name>
										<enabled>TRUE</enabled>
										<duration>1294705</duration>
										<rate>
											<timebase>30</timebase>
											<ntsc>TRUE</ntsc>
										</rate>
										<start>82</start>
										<end>5105</end>
										<in>107892</in>
										<out>112915</out>
										<pproTicksIn>914456685542400</pproTicksIn>
										<pproTicksOut>957029961888000</pproTicksOut>
										<alphatype>straight</alphatype>
										<file id="file-14"/>
										<logginginfo>
											<description></description>
											<scene></scene>
											<shottake></shottake>
											<lognote></lognote>
											<good></good>
											<originalvideofilename></originalvideofilename>
											<originalaudiofilename></originalaudiofilename>
										</logginginfo>
										<colorinfo>
											<lut></lut>
											<lut1></lut1>
											<asc_sop></asc_sop>
											<asc_sat></asc_sat>
											<lut2></lut2>
										</colorinfo>
										<labels>
										</labels>
									</clipitem>
									<enabled>TRUE</enabled>
									<locked>FALSE</locked>
								</track>
								<track TL.SQTrackShy="0" TL.SQTrackExpandedHeight="25" TL.SQTrackExpanded="0" MZ.TrackTargeted="0">
									<clipitem id="clipitem-503">
										<masterclipid>masterclip-205</masterclipid>
										<name>Cottagecore Treats</name>
										<enabled>TRUE</enabled>
										<duration>6293</duration>
										<rate>
											<timebase>30</timebase>
											<ntsc>TRUE</ntsc>
										</rate>
										<start>115</start>
										<end>2477</end>
										<in>30</in>
										<out>2392</out>
										<pproTicksIn>254270016000</pproTicksIn>
										<pproTicksOut>20273795942400</pproTicksOut>
										<alphatype>straight</alphatype>
										<pixelaspectratio>square</pixelaspectratio>
										<anamorphic>FALSE</anamorphic>
										<file id="file-177">
											<name>EYECANDY_L3RD_JL_V03/EYECANDY_L3rd_JL_V04.aep</name>
											<pathurl>file://localhost/Volumes/ATM%201/EYE%20CANDY/Project%20Template/5_Assets/Eye%20Candy%20Mograph/EYECANDY_L3rd_JL_V04%20folder/EYECANDY_L3rd_JL_V04.aep</pathurl>
											<rate>
												<timebase>30</timebase>
												<ntsc>FALSE</ntsc>
											</rate>
											<duration>6300</duration>
											<timecode>
												<rate>
													<timebase>30</timebase>
													<ntsc>FALSE</ntsc>
												</rate>
												<string>00:00:00:00</string>
												<frame>0</frame>
												<displayformat>NDF</displayformat>
											</timecode>
											<media>
												<video>
													<samplecharacteristics>
														<rate>
															<timebase>30</timebase>
															<ntsc>FALSE</ntsc>
														</rate>
														<width>1920</width>
														<height>1080</height>
														<anamorphic>FALSE</anamorphic>
														<pixelaspectratio>square</pixelaspectratio>
														<fielddominance>lower</fielddominance>
													</samplecharacteristics>
												</video>
											</media>
										</file>
										<logginginfo>
											<description></description>
											<scene></scene>
											<shottake></shottake>
											<lognote></lognote>
											<good></good>
											<originalvideofilename></originalvideofilename>
											<originalaudiofilename></originalaudiofilename>
										</logginginfo>
										<colorinfo>
											<lut></lut>
											<lut1></lut1>
											<asc_sop></asc_sop>
											<asc_sat></asc_sat>
											<lut2></lut2>
										</colorinfo>
									</clipitem>
									<clipitem id="clipitem-504">
										<masterclipid>masterclip-206</masterclipid>
										<name>Bitefulls of Bliss</name>
										<enabled>TRUE</enabled>
										<duration>6293</duration>
										<rate>
											<timebase>30</timebase>
											<ntsc>TRUE</ntsc>
										</rate>
										<start>2539</start>
										<end>5105</end>
										<in>30</in>
										<out>2596</out>
										<pproTicksIn>254270016000</pproTicksIn>
										<pproTicksOut>22002832051200</pproTicksOut>
										<alphatype>straight</alphatype>
										<pixelaspectratio>square</pixelaspectratio>
										<anamorphic>FALSE</anamorphic>
										<file id="file-178">
											<name>EYECANDY_L3RD_JL_V03/EYECANDY_L3rd_JL_V04.aep</name>
											<pathurl>file://localhost/Volumes/ATM%201/EYE%20CANDY/Project%20Template/5_Assets/Eye%20Candy%20Mograph/EYECANDY_L3rd_JL_V04%20folder/EYECANDY_L3rd_JL_V04.aep</pathurl>
											<rate>
												<timebase>30</timebase>
												<ntsc>FALSE</ntsc>
											</rate>
											<duration>6300</duration>
											<timecode>
												<rate>
													<timebase>30</timebase>
													<ntsc>FALSE</ntsc>
												</rate>
												<string>00:00:00:00</string>
												<frame>0</frame>
												<displayformat>NDF</displayformat>
											</timecode>
											<media>
												<video>
													<samplecharacteristics>
														<rate>
															<timebase>30</timebase>
															<ntsc>FALSE</ntsc>
														</rate>
														<width>1920</width>
														<height>1080</height>
														<anamorphic>FALSE</anamorphic>
														<pixelaspectratio>square</pixelaspectratio>
														<fielddominance>lower</fielddominance>
													</samplecharacteristics>
												</video>
											</media>
										</file>
										<logginginfo>
											<description></description>
											<scene></scene>
											<shottake></shottake>
											<lognote></lognote>
											<good></good>
											<originalvideofilename></originalvideofilename>
											<originalaudiofilename></originalaudiofilename>
										</logginginfo>
										<colorinfo>
											<lut></lut>
											<lut1></lut1>
											<asc_sop></asc_sop>
											<asc_sat></asc_sat>
											<lut2></lut2>
										</colorinfo>
									</clipitem>
									<enabled>TRUE</enabled>
									<locked>FALSE</locked>
								</track>
								<track TL.SQTrackShy="0" TL.SQTrackExpandedHeight="25" TL.SQTrackExpanded="0" MZ.TrackTargeted="0">
									<clipitem id="clipitem-505">
										<masterclipid>masterclip-19</masterclipid>
										<name>Intro</name>
										<enabled>TRUE</enabled>
										<duration>160</duration>
										<rate>
											<timebase>30</timebase>
											<ntsc>TRUE</ntsc>
										</rate>
										<start>0</start>
										<end>115</end>
										<in>0</in>
										<out>115</out>
										<pproTicksIn>0</pproTicksIn>
										<pproTicksOut>974701728000</pproTicksOut>
										<sequence id="sequence-4"/>
											<marker>
												<comment></comment>
												<name></name>
												<in>82</in>
												<out>-1</out>
											</marker>
										<link>
											<linkclipref>clipitem-505</linkclipref>
											<mediatype>video</mediatype>
											<trackindex>4</trackindex>
											<clipindex>1</clipindex>
										</link>
										<link>
											<linkclipref>clipitem-513</linkclipref>
											<mediatype>audio</mediatype>
											<trackindex>3</trackindex>
											<clipindex>1</clipindex>
											<groupindex>1</groupindex>
										</link>
										<link>
											<linkclipref>clipitem-515</linkclipref>
											<mediatype>audio</mediatype>
											<trackindex>4</trackindex>
											<clipindex>1</clipindex>
											<groupindex>1</groupindex>
										</link>
										<labels>
											<label2>Forest</label2>
										</labels>
									</clipitem>
									<clipitem id="clipitem-506">
										<masterclipid>masterclip-42</masterclipid>
										<name>Transition 1</name>
										<enabled>TRUE</enabled>
										<duration>160</duration>
										<rate>
											<timebase>30</timebase>
											<ntsc>TRUE</ntsc>
										</rate>
										<start>2421</start>
										<end>2539</end>
										<in>0</in>
										<out>118</out>
										<pproTicksIn>0</pproTicksIn>
										<pproTicksOut>1000128729600</pproTicksOut>
										<sequence id="sequence-11"/>
											<marker>
												<comment></comment>
												<name></name>
												<in>56</in>
												<out>-1</out>
											</marker>
										<link>
											<linkclipref>clipitem-506</linkclipref>
											<mediatype>video</mediatype>
											<trackindex>4</trackindex>
											<clipindex>2</clipindex>
										</link>
										<link>
											<linkclipref>clipitem-514</linkclipref>
											<mediatype>audio</mediatype>
											<trackindex>3</trackindex>
											<clipindex>2</clipindex>
											<groupindex>1</groupindex>
										</link>
										<link>
											<linkclipref>clipitem-516</linkclipref>
											<mediatype>audio</mediatype>
											<trackindex>4</trackindex>
											<clipindex>2</clipindex>
											<groupindex>1</groupindex>
										</link>
										<labels>
											<label2>Forest</label2>
										</labels>
									</clipitem>
									<enabled>TRUE</enabled>
									<locked>FALSE</locked>
								</track>
							</video>
							<audio>
								<numOutputChannels>2</numOutputChannels>
								<format>
									<samplecharacteristics>
										<depth>16</depth>
										<samplerate>48000</samplerate>
									</samplecharacteristics>
								</format>
								<outputs>
									<group>
										<index>1</index>
										<numchannels>1</numchannels>
										<downmix>0</downmix>
										<channel>
											<index>1</index>
										</channel>
									</group>
									<group>
										<index>2</index>
										<numchannels>1</numchannels>
										<downmix>0</downmix>
										<channel>
											<index>2</index>
										</channel>
									</group>
								</outputs>
								<track TL.SQTrackAudioKeyframeStyle="0" TL.SQTrackShy="0" TL.SQTrackExpandedHeight="25" TL.SQTrackExpanded="0" MZ.TrackTargeted="1" PannerCurrentValue="0.5" PannerIsInverted="true" PannerStartKeyframe="-91445760000000000,0.5,0,0,0,0,0,0" PannerName="Balance" currentExplodedTrackIndex="0" totalExplodedTrackCount="2" premiereTrackType="Stereo">
									<clipitem id="clipitem-507" premiereChannelType="stereo">
										<masterclipid>masterclip-180</masterclipid>
										<name>Cottagecore Treats_1.5</name>
										<enabled>TRUE</enabled>
										<duration>5700</duration>
										<rate>
											<timebase>30</timebase>
											<ntsc>TRUE</ntsc>
										</rate>
										<start>82</start>
										<end>-1</end>
										<in>0</in>
										<out>2395</out>
										<pproTicksIn>0</pproTicksIn>
										<pproTicksOut>20299222944000</pproTicksOut>
										<sequence id="sequence-35"/>
										<sourcetrack>
											<mediatype>audio</mediatype>
											<trackindex>0</trackindex>
										</sourcetrack>
										<link>
											<linkclipref>clipitem-456</linkclipref>
											<mediatype>video</mediatype>
											<trackindex>1</trackindex>
											<clipindex>1</clipindex>
										</link>
										<link>
											<linkclipref>clipitem-507</linkclipref>
											<mediatype>audio</mediatype>
											<trackindex>1</trackindex>
											<clipindex>1</clipindex>
											<groupindex>1</groupindex>
										</link>
										<link>
											<linkclipref>clipitem-510</linkclipref>
											<mediatype>audio</mediatype>
											<trackindex>2</trackindex>
											<clipindex>1</clipindex>
											<groupindex>1</groupindex>
										</link>
										<labels>
											<label2>Forest</label2>
										</labels>
									</clipitem>
									<transitionitem>
										<start>2447</start>
										<end>2477</end>
										<pproTicksIn>20739957638400</pproTicksIn>
										<pproTicksOut>20994227654400</pproTicksOut>
										<alignment>end-black</alignment>
										<cutPointTicks>254270016000</cutPointTicks>
										<rate>
											<timebase>30</timebase>
											<ntsc>TRUE</ntsc>
										</rate>
										<effect>
											<name>Cross Fade ( 0dB)</name>
											<effectid>KGAudioTransCrossFade0dB</effectid>
											<effecttype>transition</effecttype>
											<mediatype>audio</mediatype>
											<wipecode>0</wipecode>
											<wipeaccuracy>100</wipeaccuracy>
											<startratio>0</startratio>
											<endratio>1</endratio>
											<reverse>FALSE</reverse>
										</effect>
									</transitionitem>
									<clipitem id="clipitem-508" premiereChannelType="stereo">
										<masterclipid>masterclip-187</masterclipid>
										<name>Bitefulls of Bliss_1.5</name>
										<enabled>TRUE</enabled>
										<duration>5844</duration>
										<rate>
											<timebase>30</timebase>
											<ntsc>TRUE</ntsc>
										</rate>
										<start>2477</start>
										<end>-1</end>
										<in>0</in>
										<out>2628</out>
										<pproTicksIn>0</pproTicksIn>
										<pproTicksOut>22274053401600</pproTicksOut>
										<sequence id="sequence-36"/>
										<sourcetrack>
											<mediatype>audio</mediatype>
											<trackindex>0</trackindex>
										</sourcetrack>
										<link>
											<linkclipref>clipitem-480</linkclipref>
											<mediatype>video</mediatype>
											<trackindex>1</trackindex>
											<clipindex>2</clipindex>
										</link>
										<link>
											<linkclipref>clipitem-508</linkclipref>
											<mediatype>audio</mediatype>
											<trackindex>1</trackindex>
											<clipindex>3</clipindex>
											<groupindex>1</groupindex>
										</link>
										<link>
											<linkclipref>clipitem-511</linkclipref>
											<mediatype>audio</mediatype>
											<trackindex>2</trackindex>
											<clipindex>3</clipindex>
											<groupindex>1</groupindex>
										</link>
										<labels>
											<label2>Forest</label2>
										</labels>
									</clipitem>
									<transitionitem>
										<start>5075</start>
										<end>5105</end>
										<pproTicksIn>43014011040000</pproTicksIn>
										<pproTicksOut>43268281056000</pproTicksOut>
										<alignment>end-black</alignment>
										<cutPointTicks>254270016000</cutPointTicks>
										<rate>
											<timebase>30</timebase>
											<ntsc>TRUE</ntsc>
										</rate>
										<effect>
											<name>Cross Fade ( 0dB)</name>
											<effectid>KGAudioTransCrossFade0dB</effectid>
											<effecttype>transition</effecttype>
											<mediatype>audio</mediatype>
											<wipecode>0</wipecode>
											<wipeaccuracy>100</wipeaccuracy>
											<startratio>0</startratio>
											<endratio>1</endratio>
											<reverse>FALSE</reverse>
										</effect>
									</transitionitem>
									<clipitem id="clipitem-509" premiereChannelType="stereo">
										<masterclipid>masterclip-203</masterclipid>
										<name>Bumper 1</name>
										<enabled>TRUE</enabled>
										<duration>239</duration>
										<rate>
											<timebase>30</timebase>
											<ntsc>TRUE</ntsc>
										</rate>
										<start>5105</start>
										<end>5344</end>
										<in>0</in>
										<out>239</out>
										<pproTicksIn>0</pproTicksIn>
										<pproTicksOut>2025684460800</pproTicksOut>
										<sequence id="sequence-38"/>
										<sourcetrack>
											<mediatype>audio</mediatype>
											<trackindex>0</trackindex>
										</sourcetrack>
										<link>
											<linkclipref>clipitem-498</linkclipref>
											<mediatype>video</mediatype>
											<trackindex>1</trackindex>
											<clipindex>3</clipindex>
										</link>
										<link>
											<linkclipref>clipitem-509</linkclipref>
											<mediatype>audio</mediatype>
											<trackindex>1</trackindex>
											<clipindex>5</clipindex>
											<groupindex>1</groupindex>
										</link>
										<link>
											<linkclipref>clipitem-512</linkclipref>
											<mediatype>audio</mediatype>
											<trackindex>2</trackindex>
											<clipindex>5</clipindex>
											<groupindex>1</groupindex>
										</link>
										<labels>
											<label2>Forest</label2>
										</labels>
									</clipitem>
									<enabled>TRUE</enabled>
									<locked>FALSE</locked>
									<outputchannelindex>1</outputchannelindex>
								</track>
								<track TL.SQTrackAudioKeyframeStyle="0" TL.SQTrackShy="0" TL.SQTrackExpandedHeight="25" TL.SQTrackExpanded="0" MZ.TrackTargeted="1" PannerCurrentValue="0.5" PannerIsInverted="true" PannerStartKeyframe="-91445760000000000,0.5,0,0,0,0,0,0" PannerName="Balance" currentExplodedTrackIndex="1" totalExplodedTrackCount="2" premiereTrackType="Stereo">
									<clipitem id="clipitem-510" premiereChannelType="stereo">
										<masterclipid>masterclip-180</masterclipid>
										<name>Cottagecore Treats_1.5</name>
										<enabled>TRUE</enabled>
										<duration>5700</duration>
										<rate>
											<timebase>30</timebase>
											<ntsc>TRUE</ntsc>
										</rate>
										<start>82</start>
										<end>-1</end>
										<in>0</in>
										<out>2395</out>
										<pproTicksIn>0</pproTicksIn>
										<pproTicksOut>20299222944000</pproTicksOut>
										<sequence id="sequence-35"/>
										<sourcetrack>
											<mediatype>audio</mediatype>
											<trackindex>1</trackindex>
										</sourcetrack>
										<link>
											<linkclipref>clipitem-456</linkclipref>
											<mediatype>video</mediatype>
											<trackindex>1</trackindex>
											<clipindex>1</clipindex>
										</link>
										<link>
											<linkclipref>clipitem-507</linkclipref>
											<mediatype>audio</mediatype>
											<trackindex>1</trackindex>
											<clipindex>1</clipindex>
											<groupindex>1</groupindex>
										</link>
										<link>
											<linkclipref>clipitem-510</linkclipref>
											<mediatype>audio</mediatype>
											<trackindex>2</trackindex>
											<clipindex>1</clipindex>
											<groupindex>1</groupindex>
										</link>
										<labels>
											<label2>Forest</label2>
										</labels>
									</clipitem>
									<transitionitem>
										<start>2447</start>
										<end>2477</end>
										<pproTicksIn>20739957638400</pproTicksIn>
										<pproTicksOut>20994227654400</pproTicksOut>
										<alignment>end-black</alignment>
										<cutPointTicks>254270016000</cutPointTicks>
										<rate>
											<timebase>30</timebase>
											<ntsc>TRUE</ntsc>
										</rate>
										<effect>
											<name>Cross Fade ( 0dB)</name>
											<effectid>KGAudioTransCrossFade0dB</effectid>
											<effecttype>transition</effecttype>
											<mediatype>audio</mediatype>
											<wipecode>0</wipecode>
											<wipeaccuracy>100</wipeaccuracy>
											<startratio>0</startratio>
											<endratio>1</endratio>
											<reverse>FALSE</reverse>
										</effect>
									</transitionitem>
									<clipitem id="clipitem-511" premiereChannelType="stereo">
										<masterclipid>masterclip-187</masterclipid>
										<name>Bitefulls of Bliss_1.5</name>
										<enabled>TRUE</enabled>
										<duration>5844</duration>
										<rate>
											<timebase>30</timebase>
											<ntsc>TRUE</ntsc>
										</rate>
										<start>2477</start>
										<end>-1</end>
										<in>0</in>
										<out>2628</out>
										<pproTicksIn>0</pproTicksIn>
										<pproTicksOut>22274053401600</pproTicksOut>
										<sequence id="sequence-36"/>
										<sourcetrack>
											<mediatype>audio</mediatype>
											<trackindex>1</trackindex>
										</sourcetrack>
										<link>
											<linkclipref>clipitem-480</linkclipref>
											<mediatype>video</mediatype>
											<trackindex>1</trackindex>
											<clipindex>2</clipindex>
										</link>
										<link>
											<linkclipref>clipitem-508</linkclipref>
											<mediatype>audio</mediatype>
											<trackindex>1</trackindex>
											<clipindex>3</clipindex>
											<groupindex>1</groupindex>
										</link>
										<link>
											<linkclipref>clipitem-511</linkclipref>
											<mediatype>audio</mediatype>
											<trackindex>2</trackindex>
											<clipindex>3</clipindex>
											<groupindex>1</groupindex>
										</link>
										<labels>
											<label2>Forest</label2>
										</labels>
									</clipitem>
									<transitionitem>
										<start>5075</start>
										<end>5105</end>
										<pproTicksIn>43014011040000</pproTicksIn>
										<pproTicksOut>43268281056000</pproTicksOut>
										<alignment>end-black</alignment>
										<cutPointTicks>254270016000</cutPointTicks>
										<rate>
											<timebase>30</timebase>
											<ntsc>TRUE</ntsc>
										</rate>
										<effect>
											<name>Cross Fade ( 0dB)</name>
											<effectid>KGAudioTransCrossFade0dB</effectid>
											<effecttype>transition</effecttype>
											<mediatype>audio</mediatype>
											<wipecode>0</wipecode>
											<wipeaccuracy>100</wipeaccuracy>
											<startratio>0</startratio>
											<endratio>1</endratio>
											<reverse>FALSE</reverse>
										</effect>
									</transitionitem>
									<clipitem id="clipitem-512" premiereChannelType="stereo">
										<masterclipid>masterclip-203</masterclipid>
										<name>Bumper 1</name>
										<enabled>TRUE</enabled>
										<duration>239</duration>
										<rate>
											<timebase>30</timebase>
											<ntsc>TRUE</ntsc>
										</rate>
										<start>5105</start>
										<end>5344</end>
										<in>0</in>
										<out>239</out>
										<pproTicksIn>0</pproTicksIn>
										<pproTicksOut>2025684460800</pproTicksOut>
										<sequence id="sequence-38"/>
										<sourcetrack>
											<mediatype>audio</mediatype>
											<trackindex>1</trackindex>
										</sourcetrack>
										<link>
											<linkclipref>clipitem-498</linkclipref>
											<mediatype>video</mediatype>
											<trackindex>1</trackindex>
											<clipindex>3</clipindex>
										</link>
										<link>
											<linkclipref>clipitem-509</linkclipref>
											<mediatype>audio</mediatype>
											<trackindex>1</trackindex>
											<clipindex>5</clipindex>
											<groupindex>1</groupindex>
										</link>
										<link>
											<linkclipref>clipitem-512</linkclipref>
											<mediatype>audio</mediatype>
											<trackindex>2</trackindex>
											<clipindex>5</clipindex>
											<groupindex>1</groupindex>
										</link>
										<labels>
											<label2>Forest</label2>
										</labels>
									</clipitem>
									<enabled>TRUE</enabled>
									<locked>FALSE</locked>
									<outputchannelindex>2</outputchannelindex>
								</track>
								<track TL.SQTrackAudioKeyframeStyle="0" TL.SQTrackShy="0" TL.SQTrackExpandedHeight="25" TL.SQTrackExpanded="0" MZ.TrackTargeted="1" PannerCurrentValue="0.5" PannerIsInverted="true" PannerStartKeyframe="-91445760000000000,0.5,0,0,0,0,0,0" PannerName="Balance" currentExplodedTrackIndex="0" totalExplodedTrackCount="2" premiereTrackType="Stereo">
									<clipitem id="clipitem-513" premiereChannelType="stereo">
										<masterclipid>masterclip-19</masterclipid>
										<name>Intro</name>
										<enabled>TRUE</enabled>
										<duration>160</duration>
										<rate>
											<timebase>30</timebase>
											<ntsc>TRUE</ntsc>
										</rate>
										<start>0</start>
										<end>115</end>
										<in>0</in>
										<out>115</out>
										<pproTicksIn>0</pproTicksIn>
										<pproTicksOut>974701728000</pproTicksOut>
										<sequence id="sequence-4"/>
										<sourcetrack>
											<mediatype>audio</mediatype>
											<trackindex>0</trackindex>
										</sourcetrack>
											<marker>
												<comment></comment>
												<name></name>
												<in>82</in>
												<out>-1</out>
											</marker>
										<link>
											<linkclipref>clipitem-505</linkclipref>
											<mediatype>video</mediatype>
											<trackindex>4</trackindex>
											<clipindex>1</clipindex>
										</link>
										<link>
											<linkclipref>clipitem-513</linkclipref>
											<mediatype>audio</mediatype>
											<trackindex>3</trackindex>
											<clipindex>1</clipindex>
											<groupindex>1</groupindex>
										</link>
										<link>
											<linkclipref>clipitem-515</linkclipref>
											<mediatype>audio</mediatype>
											<trackindex>4</trackindex>
											<clipindex>1</clipindex>
											<groupindex>1</groupindex>
										</link>
										<labels>
											<label2>Forest</label2>
										</labels>
									</clipitem>
									<clipitem id="clipitem-514" premiereChannelType="stereo">
										<masterclipid>masterclip-42</masterclipid>
										<name>Transition 1</name>
										<enabled>TRUE</enabled>
										<duration>160</duration>
										<rate>
											<timebase>30</timebase>
											<ntsc>TRUE</ntsc>
										</rate>
										<start>2421</start>
										<end>2539</end>
										<in>0</in>
										<out>118</out>
										<pproTicksIn>0</pproTicksIn>
										<pproTicksOut>1000128729600</pproTicksOut>
										<sequence id="sequence-11"/>
										<sourcetrack>
											<mediatype>audio</mediatype>
											<trackindex>0</trackindex>
										</sourcetrack>
											<marker>
												<comment></comment>
												<name></name>
												<in>56</in>
												<out>-1</out>
											</marker>
										<link>
											<linkclipref>clipitem-506</linkclipref>
											<mediatype>video</mediatype>
											<trackindex>4</trackindex>
											<clipindex>2</clipindex>
										</link>
										<link>
											<linkclipref>clipitem-514</linkclipref>
											<mediatype>audio</mediatype>
											<trackindex>3</trackindex>
											<clipindex>2</clipindex>
											<groupindex>1</groupindex>
										</link>
										<link>
											<linkclipref>clipitem-516</linkclipref>
											<mediatype>audio</mediatype>
											<trackindex>4</trackindex>
											<clipindex>2</clipindex>
											<groupindex>1</groupindex>
										</link>
										<labels>
											<label2>Forest</label2>
										</labels>
									</clipitem>
									<enabled>TRUE</enabled>
									<locked>FALSE</locked>
									<outputchannelindex>1</outputchannelindex>
								</track>
								<track TL.SQTrackAudioKeyframeStyle="0" TL.SQTrackShy="0" TL.SQTrackExpandedHeight="25" TL.SQTrackExpanded="0" MZ.TrackTargeted="1" PannerCurrentValue="0.5" PannerIsInverted="true" PannerStartKeyframe="-91445760000000000,0.5,0,0,0,0,0,0" PannerName="Balance" currentExplodedTrackIndex="1" totalExplodedTrackCount="2" premiereTrackType="Stereo">
									<clipitem id="clipitem-515" premiereChannelType="stereo">
										<masterclipid>masterclip-19</masterclipid>
										<name>Intro</name>
										<enabled>TRUE</enabled>
										<duration>160</duration>
										<rate>
											<timebase>30</timebase>
											<ntsc>TRUE</ntsc>
										</rate>
										<start>0</start>
										<end>115</end>
										<in>0</in>
										<out>115</out>
										<pproTicksIn>0</pproTicksIn>
										<pproTicksOut>974701728000</pproTicksOut>
										<sequence id="sequence-4"/>
										<sourcetrack>
											<mediatype>audio</mediatype>
											<trackindex>1</trackindex>
										</sourcetrack>
											<marker>
												<comment></comment>
												<name></name>
												<in>82</in>
												<out>-1</out>
											</marker>
										<link>
											<linkclipref>clipitem-505</linkclipref>
											<mediatype>video</mediatype>
											<trackindex>4</trackindex>
											<clipindex>1</clipindex>
										</link>
										<link>
											<linkclipref>clipitem-513</linkclipref>
											<mediatype>audio</mediatype>
											<trackindex>3</trackindex>
											<clipindex>1</clipindex>
											<groupindex>1</groupindex>
										</link>
										<link>
											<linkclipref>clipitem-515</linkclipref>
											<mediatype>audio</mediatype>
											<trackindex>4</trackindex>
											<clipindex>1</clipindex>
											<groupindex>1</groupindex>
										</link>
										<labels>
											<label2>Forest</label2>
										</labels>
									</clipitem>
									<clipitem id="clipitem-516" premiereChannelType="stereo">
										<masterclipid>masterclip-42</masterclipid>
										<name>Transition 1</name>
										<enabled>TRUE</enabled>
										<duration>160</duration>
										<rate>
											<timebase>30</timebase>
											<ntsc>TRUE</ntsc>
										</rate>
										<start>2421</start>
										<end>2539</end>
										<in>0</in>
										<out>118</out>
										<pproTicksIn>0</pproTicksIn>
										<pproTicksOut>1000128729600</pproTicksOut>
										<sequence id="sequence-11"/>
										<sourcetrack>
											<mediatype>audio</mediatype>
											<trackindex>1</trackindex>
										</sourcetrack>
											<marker>
												<comment></comment>
												<name></name>
												<in>56</in>
												<out>-1</out>
											</marker>
										<link>
											<linkclipref>clipitem-506</linkclipref>
											<mediatype>video</mediatype>
											<trackindex>4</trackindex>
											<clipindex>2</clipindex>
										</link>
										<link>
											<linkclipref>clipitem-514</linkclipref>
											<mediatype>audio</mediatype>
											<trackindex>3</trackindex>
											<clipindex>2</clipindex>
											<groupindex>1</groupindex>
										</link>
										<link>
											<linkclipref>clipitem-516</linkclipref>
											<mediatype>audio</mediatype>
											<trackindex>4</trackindex>
											<clipindex>2</clipindex>
											<groupindex>1</groupindex>
										</link>
										<labels>
											<label2>Forest</label2>
										</labels>
									</clipitem>
									<enabled>TRUE</enabled>
									<locked>FALSE</locked>
									<outputchannelindex>2</outputchannelindex>
								</track>
								<track TL.SQTrackAudioKeyframeStyle="0" TL.SQTrackShy="0" TL.SQTrackExpandedHeight="25" TL.SQTrackExpanded="0" MZ.TrackTargeted="1" PannerCurrentValue="0.5" PannerIsInverted="true" PannerStartKeyframe="-91445760000000000,0.5,0,0,0,0,0,0" PannerName="Balance" currentExplodedTrackIndex="0" totalExplodedTrackCount="2" premiereTrackType="Stereo">
									<enabled>TRUE</enabled>
									<locked>FALSE</locked>
									<outputchannelindex>1</outputchannelindex>
								</track>
								<track TL.SQTrackAudioKeyframeStyle="0" TL.SQTrackShy="0" TL.SQTrackExpandedHeight="25" TL.SQTrackExpanded="0" MZ.TrackTargeted="1" PannerCurrentValue="0.5" PannerIsInverted="true" PannerStartKeyframe="-91445760000000000,0.5,0,0,0,0,0,0" PannerName="Balance" currentExplodedTrackIndex="1" totalExplodedTrackCount="2" premiereTrackType="Stereo">
									<enabled>TRUE</enabled>
									<locked>FALSE</locked>
									<outputchannelindex>2</outputchannelindex>
								</track>
							</audio>
						</media>
						<timecode>
							<rate>
								<timebase>30</timebase>
								<ntsc>TRUE</ntsc>
							</rate>
							<string>00;00;00;00</string>
							<frame>0</frame>
							<displayformat>DF</displayformat>
						</timecode>
						<labels>
							<label2>Forest</label2>
						</labels>
						<logginginfo>
							<description></description>
							<scene></scene>
							<shottake></shottake>
							<lognote></lognote>
							<good></good>
							<originalvideofilename></originalvideofilename>
							<originalaudiofilename></originalaudiofilename>
						</logginginfo>
					</sequence>
					<sequence id="sequence-39" TL.SQAudioVisibleBase="0" TL.SQVideoVisibleBase="0" TL.SQVisibleBaseTime="0" TL.SQAVDividerPosition="0.5" TL.SQHideShyTracks="0" TL.SQHeaderWidth="236" TL.SQDataTrackViewControlState="0" Monitor.ProgramZoomOut="45582138201600" Monitor.ProgramZoomIn="0" TL.SQTimePerPixel="0.19866730222607598" AM.TrackVScrollPosition="0" AM.TrackScrollPosition="0" MZ.EditLine="31961741011200" MZ.Sequence.PreviewFrameSizeHeight="1080" MZ.Sequence.PreviewFrameSizeWidth="1920" MZ.Sequence.AudioTimeDisplayFormat="200" MZ.Sequence.PreviewRenderingClassID="1061109567" MZ.Sequence.PreviewRenderingPresetCodec="1634755443" MZ.Sequence.PreviewRenderingPresetPath="EncoderPresets/SequencePreview/35d109db-457b-43c1-9452-9cb7be9f121c/QuickTime.epr" MZ.Sequence.PreviewUseMaxRenderQuality="false" MZ.Sequence.PreviewUseMaxBitDepth="false" MZ.Sequence.EditingModeGUID="35d109db-457b-43c1-9452-9cb7be9f121c" MZ.Sequence.VideoTimeDisplayFormat="102" MZ.WorkOutPoint="15239249625600" MZ.WorkInPoint="0" explodedTracks="true">
						<uuid>ab379428-439a-4cb1-9c7e-d06639408901</uuid>
						<duration>5283</duration>
						<rate>
							<timebase>30</timebase>
							<ntsc>TRUE</ntsc>
						</rate>
						<name>ATM_EYECANDY_235</name>
						<media>
							<video>
								<format>
									<samplecharacteristics>
										<rate>
											<timebase>30</timebase>
											<ntsc>TRUE</ntsc>
										</rate>
										<codec>
											<name>Apple ProRes 422</name>
											<appspecificdata>
												<appname>Final Cut Pro</appname>
												<appmanufacturer>Apple Inc.</appmanufacturer>
												<appversion>7.0</appversion>
												<data>
													<qtcodec>
														<codecname>Apple ProRes 422</codecname>
														<codectypename>Apple ProRes 422</codectypename>
														<codectypecode>apcn</codectypecode>
														<codecvendorcode>appl</codecvendorcode>
														<spatialquality>1024</spatialquality>
														<temporalquality>0</temporalquality>
														<keyframerate>0</keyframerate>
														<datarate>0</datarate>
													</qtcodec>
												</data>
											</appspecificdata>
										</codec>
										<width>1920</width>
										<height>1080</height>
										<anamorphic>FALSE</anamorphic>
										<pixelaspectratio>square</pixelaspectratio>
										<fielddominance>none</fielddominance>
										<colordepth>24</colordepth>
									</samplecharacteristics>
								</format>
								<track TL.SQTrackShy="0" TL.SQTrackExpandedHeight="25" TL.SQTrackExpanded="0" MZ.TrackTargeted="1">
									<clipitem id="clipitem-517">
										<masterclipid>masterclip-207</masterclipid>
										<name>Teriffic Tiramisu Pancakes_2</name>
										<enabled>TRUE</enabled>
										<duration>5844</duration>
										<rate>
											<timebase>30</timebase>
											<ntsc>TRUE</ntsc>
										</rate>
										<start>82</start>
										<end>3233</end>
										<in>0</in>
										<out>3151</out>
										<pproTicksIn>0</pproTicksIn>
										<pproTicksOut>26706827347200</pproTicksOut>
										<sequence id="sequence-40" TL.SQAudioVisibleBase="0" TL.SQVideoVisibleBase="0" TL.SQVisibleBaseTime="26501422200014" TL.SQAVDividerPosition="0.5" TL.SQHideShyTracks="0" TL.SQHeaderWidth="236" TL.SQDataTrackViewControlState="0" Monitor.ProgramZoomOut="26689876012800" Monitor.ProgramZoomIn="0" TL.SQTimePerPixel="0.0017507281556024029" AM.TrackVScrollPosition="0" AM.TrackScrollPosition="0" MZ.EditLine="26689876012800" MZ.Sequence.PreviewFrameSizeHeight="1080" MZ.Sequence.PreviewFrameSizeWidth="1920" MZ.Sequence.AudioTimeDisplayFormat="200" MZ.Sequence.PreviewRenderingClassID="1061109567" MZ.Sequence.PreviewRenderingPresetCodec="1634755443" MZ.Sequence.PreviewRenderingPresetPath="EncoderPresets/SequencePreview/35d109db-457b-43c1-9452-9cb7be9f121c/QuickTime.epr" MZ.Sequence.PreviewUseMaxRenderQuality="false" MZ.Sequence.PreviewUseMaxBitDepth="false" MZ.Sequence.EditingModeGUID="35d109db-457b-43c1-9452-9cb7be9f121c" MZ.Sequence.VideoTimeDisplayFormat="102" MZ.WorkOutPoint="1262874412800" MZ.WorkInPoint="0">
											<duration>3149</duration>
											<rate>
												<timebase>30</timebase>
												<ntsc>TRUE</ntsc>
											</rate>
											<name>FND_Teriffic Tiramisu Pancakes_2</name>
											<media>
												<video>
													<format>
														<samplecharacteristics>
															<rate>
																<timebase>30</timebase>
																<ntsc>TRUE</ntsc>
															</rate>
															<codec>
																<name>Apple ProRes 422</name>
																<appspecificdata>
																	<appname>Final Cut Pro</appname>
																	<appmanufacturer>Apple Inc.</appmanufacturer>
																	<appversion>7.0</appversion>
																	<data>
																		<qtcodec>
																			<codecname>Apple ProRes 422</codecname>
																			<codectypename>Apple ProRes 422</codectypename>
																			<codectypecode>apcn</codectypecode>
																			<codecvendorcode>appl</codecvendorcode>
																			<spatialquality>1024</spatialquality>
																			<temporalquality>0</temporalquality>
																			<keyframerate>0</keyframerate>
																			<datarate>0</datarate>
																		</qtcodec>
																	</data>
																</appspecificdata>
															</codec>
															<width>1920</width>
															<height>1080</height>
															<anamorphic>FALSE</anamorphic>
															<pixelaspectratio>square</pixelaspectratio>
															<fielddominance>none</fielddominance>
															<colordepth>24</colordepth>
														</samplecharacteristics>
													</format>
													<track TL.SQTrackShy="0" TL.SQTrackExpandedHeight="25" TL.SQTrackExpanded="0" MZ.TrackTargeted="1">
														<clipitem id="clipitem-518">
															<masterclipid>masterclip-208</masterclipid>
															<name>(Camp Chef)_Tiramisu Pancakes for Mother's Day_3Rtmg-VHoMQ_YT.mp4</name>
															<enabled>TRUE</enabled>
															<duration>9358</duration>
															<rate>
																<timebase>30</timebase>
																<ntsc>TRUE</ntsc>
															</rate>
															<start>0</start>
															<end>77</end>
															<in>648</in>
															<out>725</out>
															<pproTicksIn>5492232345600</pproTicksIn>
															<pproTicksOut>6144858720000</pproTicksOut>
															<alphatype>none</alphatype>
															<pixelaspectratio>square</pixelaspectratio>
															<anamorphic>FALSE</anamorphic>
															<file id="file-179">
																<name>(Camp Chef)_Tiramisu Pancakes for Mother's Day_3Rtmg-VHoMQ_YT.mp4</name>
																<pathurl>file://localhost/Volumes/ATM%201/EYE%20CANDY/8%3a14%3a23/3_Raw%20Files/(Camp%20Chef)_Tiramisu%20Pancakes%20for%20Mother's%20Day_3Rtmg-VHoMQ_YT.mp4</pathurl>
																<rate>
																	<timebase>24</timebase>
																	<ntsc>FALSE</ntsc>
																</rate>
																<duration>7494</duration>
																<timecode>
																	<rate>
																		<timebase>24</timebase>
																		<ntsc>FALSE</ntsc>
																	</rate>
																	<string>00:00:00:00</string>
																	<frame>0</frame>
																	<displayformat>NDF</displayformat>
																</timecode>
																<media>
																	<video>
																		<samplecharacteristics>
																			<rate>
																				<timebase>24</timebase>
																				<ntsc>FALSE</ntsc>
																			</rate>
																			<width>1920</width>
																			<height>1080</height>
																			<anamorphic>FALSE</anamorphic>
																			<pixelaspectratio>square</pixelaspectratio>
																			<fielddominance>none</fielddominance>
																		</samplecharacteristics>
																	</video>
																	<audio>
																		<samplecharacteristics>
																			<depth>16</depth>
																			<samplerate>44100</samplerate>
																		</samplecharacteristics>
																		<channelcount>2</channelcount>
																	</audio>
																</media>
															</file>
															<logginginfo>
																<description>Tiramisu Pancakes for Mother's Day</description>
																<scene></scene>
																<shottake></shottake>
																<lognote>https://www.youtube.com/watch?v=3Rtmg-VHoMQ</lognote>
																<good></good>
																<originalvideofilename></originalvideofilename>
																<originalaudiofilename></originalaudiofilename>
															</logginginfo>
															<colorinfo>
																<lut></lut>
																<lut1></lut1>
																<asc_sop></asc_sop>
																<asc_sat></asc_sat>
																<lut2></lut2>
															</colorinfo>
															<labels>
																<label2>Violet</label2>
															</labels>
														</clipitem>
														<clipitem id="clipitem-519">
															<masterclipid>masterclip-208</masterclipid>
															<name>(Camp Chef)_Tiramisu Pancakes for Mother's Day_3Rtmg-VHoMQ_YT.mp4</name>
															<enabled>TRUE</enabled>
															<duration>9358</duration>
															<rate>
																<timebase>30</timebase>
																<ntsc>TRUE</ntsc>
															</rate>
															<start>77</start>
															<end>126</end>
															<in>801</in>
															<out>850</out>
															<pproTicksIn>6789009427200</pproTicksIn>
															<pproTicksOut>7204317120000</pproTicksOut>
															<alphatype>none</alphatype>
															<file id="file-179"/>
															<logginginfo>
																<description>Tiramisu Pancakes for Mother's Day</description>
																<scene></scene>
																<shottake></shottake>
																<lognote>https://www.youtube.com/watch?v=3Rtmg-VHoMQ</lognote>
																<good></good>
																<originalvideofilename></originalvideofilename>
																<originalaudiofilename></originalaudiofilename>
															</logginginfo>
															<colorinfo>
																<lut></lut>
																<lut1></lut1>
																<asc_sop></asc_sop>
																<asc_sat></asc_sat>
																<lut2></lut2>
															</colorinfo>
															<labels>
																<label2>Violet</label2>
															</labels>
														</clipitem>
														<clipitem id="clipitem-520">
															<masterclipid>masterclip-208</masterclipid>
															<name>(Camp Chef)_Tiramisu Pancakes for Mother's Day_3Rtmg-VHoMQ_YT.mp4</name>
															<enabled>TRUE</enabled>
															<duration>9358</duration>
															<rate>
																<timebase>30</timebase>
																<ntsc>TRUE</ntsc>
															</rate>
															<start>126</start>
															<end>292</end>
															<in>1248</in>
															<out>1414</out>
															<pproTicksIn>10577632665600</pproTicksIn>
															<pproTicksOut>11984593420800</pproTicksOut>
															<alphatype>none</alphatype>
															<file id="file-179"/>
															<logginginfo>
																<description>Tiramisu Pancakes for Mother's Day</description>
																<scene></scene>
																<shottake></shottake>
																<lognote>https://www.youtube.com/watch?v=3Rtmg-VHoMQ</lognote>
																<good></good>
																<originalvideofilename></originalvideofilename>
																<originalaudiofilename></originalaudiofilename>
															</logginginfo>
															<colorinfo>
																<lut></lut>
																<lut1></lut1>
																<asc_sop></asc_sop>
																<asc_sat></asc_sat>
																<lut2></lut2>
															</colorinfo>
															<labels>
																<label2>Violet</label2>
															</labels>
														</clipitem>
														<clipitem id="clipitem-521">
															<masterclipid>masterclip-208</masterclipid>
															<name>(Camp Chef)_Tiramisu Pancakes for Mother's Day_3Rtmg-VHoMQ_YT.mp4</name>
															<enabled>TRUE</enabled>
															<duration>9358</duration>
															<rate>
																<timebase>30</timebase>
																<ntsc>TRUE</ntsc>
															</rate>
															<start>292</start>
															<end>354</end>
															<in>1808</in>
															<out>1870</out>
															<pproTicksIn>15324006297600</pproTicksIn>
															<pproTicksOut>15849497664000</pproTicksOut>
															<alphatype>none</alphatype>
															<file id="file-179"/>
															<logginginfo>
																<description>Tiramisu Pancakes for Mother's Day</description>
																<scene></scene>
																<shottake></shottake>
																<lognote>https://www.youtube.com/watch?v=3Rtmg-VHoMQ</lognote>
																<good></good>
																<originalvideofilename></originalvideofilename>
																<originalaudiofilename></originalaudiofilename>
															</logginginfo>
															<colorinfo>
																<lut></lut>
																<lut1></lut1>
																<asc_sop></asc_sop>
																<asc_sat></asc_sat>
																<lut2></lut2>
															</colorinfo>
															<labels>
																<label2>Violet</label2>
															</labels>
														</clipitem>
														<clipitem id="clipitem-522">
															<masterclipid>masterclip-208</masterclipid>
															<name>(Camp Chef)_Tiramisu Pancakes for Mother's Day_3Rtmg-VHoMQ_YT.mp4</name>
															<enabled>TRUE</enabled>
															<duration>9358</duration>
															<rate>
																<timebase>30</timebase>
																<ntsc>TRUE</ntsc>
															</rate>
															<start>354</start>
															<end>426</end>
															<in>2340</in>
															<out>2412</out>
															<pproTicksIn>19833061248000</pproTicksIn>
															<pproTicksOut>20443309286400</pproTicksOut>
															<alphatype>none</alphatype>
															<file id="file-179"/>
															<logginginfo>
																<description>Tiramisu Pancakes for Mother's Day</description>
																<scene></scene>
																<shottake></shottake>
																<lognote>https://www.youtube.com/watch?v=3Rtmg-VHoMQ</lognote>
																<good></good>
																<originalvideofilename></originalvideofilename>
																<originalaudiofilename></originalaudiofilename>
															</logginginfo>
															<colorinfo>
																<lut></lut>
																<lut1></lut1>
																<asc_sop></asc_sop>
																<asc_sat></asc_sat>
																<lut2></lut2>
															</colorinfo>
															<labels>
																<label2>Violet</label2>
															</labels>
														</clipitem>
														<clipitem id="clipitem-523">
															<masterclipid>masterclip-208</masterclipid>
															<name>(Camp Chef)_Tiramisu Pancakes for Mother's Day_3Rtmg-VHoMQ_YT.mp4</name>
															<enabled>TRUE</enabled>
															<duration>9358</duration>
															<rate>
																<timebase>30</timebase>
																<ntsc>TRUE</ntsc>
															</rate>
															<start>426</start>
															<end>544</end>
															<in>2774</in>
															<out>2892</out>
															<pproTicksIn>23511500812800</pproTicksIn>
															<pproTicksOut>24511629542400</pproTicksOut>
															<alphatype>none</alphatype>
															<file id="file-179"/>
															<logginginfo>
																<description>Tiramisu Pancakes for Mother's Day</description>
																<scene></scene>
																<shottake></shottake>
																<lognote>https://www.youtube.com/watch?v=3Rtmg-VHoMQ</lognote>
																<good></good>
																<originalvideofilename></originalvideofilename>
																<originalaudiofilename></originalaudiofilename>
															</logginginfo>
															<colorinfo>
																<lut></lut>
																<lut1></lut1>
																<asc_sop></asc_sop>
																<asc_sat></asc_sat>
																<lut2></lut2>
															</colorinfo>
															<labels>
																<label2>Violet</label2>
															</labels>
														</clipitem>
														<clipitem id="clipitem-524">
															<masterclipid>masterclip-208</masterclipid>
															<name>(Camp Chef)_Tiramisu Pancakes for Mother's Day_3Rtmg-VHoMQ_YT.mp4</name>
															<enabled>TRUE</enabled>
															<duration>9358</duration>
															<rate>
																<timebase>30</timebase>
																<ntsc>TRUE</ntsc>
															</rate>
															<start>544</start>
															<end>624</end>
															<in>3180</in>
															<out>3260</out>
															<pproTicksIn>26952621696000</pproTicksIn>
															<pproTicksOut>27630675072000</pproTicksOut>
															<alphatype>none</alphatype>
															<file id="file-179"/>
															<logginginfo>
																<description>Tiramisu Pancakes for Mother's Day</description>
																<scene></scene>
																<shottake></shottake>
																<lognote>https://www.youtube.com/watch?v=3Rtmg-VHoMQ</lognote>
																<good></good>
																<originalvideofilename></originalvideofilename>
																<originalaudiofilename></originalaudiofilename>
															</logginginfo>
															<colorinfo>
																<lut></lut>
																<lut1></lut1>
																<asc_sop></asc_sop>
																<asc_sat></asc_sat>
																<lut2></lut2>
															</colorinfo>
															<labels>
																<label2>Violet</label2>
															</labels>
														</clipitem>
														<clipitem id="clipitem-525">
															<masterclipid>masterclip-208</masterclipid>
															<name>(Camp Chef)_Tiramisu Pancakes for Mother's Day_3Rtmg-VHoMQ_YT.mp4</name>
															<enabled>TRUE</enabled>
															<duration>9358</duration>
															<rate>
																<timebase>30</timebase>
																<ntsc>TRUE</ntsc>
															</rate>
															<start>624</start>
															<end>1007</end>
															<in>3314</in>
															<out>3697</out>
															<pproTicksIn>28088361100800</pproTicksIn>
															<pproTicksOut>31334541638400</pproTicksOut>
															<alphatype>none</alphatype>
															<file id="file-179"/>
															<logginginfo>
																<description>Tiramisu Pancakes for Mother's Day</description>
																<scene></scene>
																<shottake></shottake>
																<lognote>https://www.youtube.com/watch?v=3Rtmg-VHoMQ</lognote>
																<good></good>
																<originalvideofilename></originalvideofilename>
																<originalaudiofilename></originalaudiofilename>
															</logginginfo>
															<colorinfo>
																<lut></lut>
																<lut1></lut1>
																<asc_sop></asc_sop>
																<asc_sat></asc_sat>
																<lut2></lut2>
															</colorinfo>
															<labels>
																<label2>Violet</label2>
															</labels>
														</clipitem>
														<clipitem id="clipitem-526">
															<masterclipid>masterclip-208</masterclipid>
															<name>(Camp Chef)_Tiramisu Pancakes for Mother's Day_3Rtmg-VHoMQ_YT.mp4</name>
															<enabled>TRUE</enabled>
															<duration>9358</duration>
															<rate>
																<timebase>30</timebase>
																<ntsc>TRUE</ntsc>
															</rate>
															<start>1007</start>
															<end>1082</end>
															<in>3753</in>
															<out>3828</out>
															<pproTicksIn>31809179001600</pproTicksIn>
															<pproTicksOut>32444854041600</pproTicksOut>
															<alphatype>none</alphatype>
															<file id="file-179"/>
															<logginginfo>
																<description>Tiramisu Pancakes for Mother's Day</description>
																<scene></scene>
																<shottake></shottake>
																<lognote>https://www.youtube.com/watch?v=3Rtmg-VHoMQ</lognote>
																<good></good>
																<originalvideofilename></originalvideofilename>
																<originalaudiofilename></originalaudiofilename>
															</logginginfo>
															<colorinfo>
																<lut></lut>
																<lut1></lut1>
																<asc_sop></asc_sop>
																<asc_sat></asc_sat>
																<lut2></lut2>
															</colorinfo>
															<labels>
																<label2>Violet</label2>
															</labels>
														</clipitem>
														<clipitem id="clipitem-527">
															<masterclipid>masterclip-208</masterclipid>
															<name>(Camp Chef)_Tiramisu Pancakes for Mother's Day_3Rtmg-VHoMQ_YT.mp4</name>
															<enabled>TRUE</enabled>
															<duration>9358</duration>
															<rate>
																<timebase>30</timebase>
																<ntsc>TRUE</ntsc>
															</rate>
															<start>1082</start>
															<end>1318</end>
															<in>4361</in>
															<out>4597</out>
															<pproTicksIn>36962384659200</pproTicksIn>
															<pproTicksOut>38962642118400</pproTicksOut>
															<alphatype>none</alphatype>
															<file id="file-179"/>
															<logginginfo>
																<description>Tiramisu Pancakes for Mother's Day</description>
																<scene></scene>
																<shottake></shottake>
																<lognote>https://www.youtube.com/watch?v=3Rtmg-VHoMQ</lognote>
																<good></good>
																<originalvideofilename></originalvideofilename>
																<originalaudiofilename></originalaudiofilename>
															</logginginfo>
															<colorinfo>
																<lut></lut>
																<lut1></lut1>
																<asc_sop></asc_sop>
																<asc_sat></asc_sat>
																<lut2></lut2>
															</colorinfo>
															<labels>
																<label2>Violet</label2>
															</labels>
														</clipitem>
														<clipitem id="clipitem-528">
															<masterclipid>masterclip-208</masterclipid>
															<name>(Camp Chef)_Tiramisu Pancakes for Mother's Day_3Rtmg-VHoMQ_YT.mp4</name>
															<enabled>TRUE</enabled>
															<duration>9358</duration>
															<rate>
																<timebase>30</timebase>
																<ntsc>TRUE</ntsc>
															</rate>
															<start>1318</start>
															<end>1668</end>
															<in>4782</in>
															<out>5132</out>
															<pproTicksIn>40530640550400</pproTicksIn>
															<pproTicksOut>43497124070400</pproTicksOut>
															<alphatype>none</alphatype>
															<file id="file-179"/>
															<logginginfo>
																<description>Tiramisu Pancakes for Mother's Day</description>
																<scene></scene>
																<shottake></shottake>
																<lognote>https://www.youtube.com/watch?v=3Rtmg-VHoMQ</lognote>
																<good></good>
																<originalvideofilename></originalvideofilename>
																<originalaudiofilename></originalaudiofilename>
															</logginginfo>
															<colorinfo>
																<lut></lut>
																<lut1></lut1>
																<asc_sop></asc_sop>
																<asc_sat></asc_sat>
																<lut2></lut2>
															</colorinfo>
															<labels>
																<label2>Violet</label2>
															</labels>
														</clipitem>
														<clipitem id="clipitem-529">
															<masterclipid>masterclip-208</masterclipid>
															<name>(Camp Chef)_Tiramisu Pancakes for Mother's Day_3Rtmg-VHoMQ_YT.mp4</name>
															<enabled>TRUE</enabled>
															<duration>9358</duration>
															<rate>
																<timebase>30</timebase>
																<ntsc>TRUE</ntsc>
															</rate>
															<start>1668</start>
															<end>2080</end>
															<in>5179</in>
															<out>5591</out>
															<pproTicksIn>43895480428800</pproTicksIn>
															<pproTicksOut>47387455315200</pproTicksOut>
															<alphatype>none</alphatype>
															<file id="file-179"/>
															<logginginfo>
																<description>Tiramisu Pancakes for Mother's Day</description>
																<scene></scene>
																<shottake></shottake>
																<lognote>https://www.youtube.com/watch?v=3Rtmg-VHoMQ</lognote>
																<good></good>
																<originalvideofilename></originalvideofilename>
																<originalaudiofilename></originalaudiofilename>
															</logginginfo>
															<colorinfo>
																<lut></lut>
																<lut1></lut1>
																<asc_sop></asc_sop>
																<asc_sat></asc_sat>
																<lut2></lut2>
															</colorinfo>
															<labels>
																<label2>Violet</label2>
															</labels>
														</clipitem>
														<clipitem id="clipitem-530">
															<masterclipid>masterclip-208</masterclipid>
															<name>(Camp Chef)_Tiramisu Pancakes for Mother's Day_3Rtmg-VHoMQ_YT.mp4</name>
															<enabled>TRUE</enabled>
															<duration>9358</duration>
															<rate>
																<timebase>30</timebase>
																<ntsc>TRUE</ntsc>
															</rate>
															<start>2080</start>
															<end>2325</end>
															<in>6383</in>
															<out>6628</out>
															<pproTicksIn>54100183737600</pproTicksIn>
															<pproTicksOut>56176722201600</pproTicksOut>
															<alphatype>none</alphatype>
															<file id="file-179"/>
															<logginginfo>
																<description>Tiramisu Pancakes for Mother's Day</description>
																<scene></scene>
																<shottake></shottake>
																<lognote>https://www.youtube.com/watch?v=3Rtmg-VHoMQ</lognote>
																<good></good>
																<originalvideofilename></originalvideofilename>
																<originalaudiofilename></originalaudiofilename>
															</logginginfo>
															<colorinfo>
																<lut></lut>
																<lut1></lut1>
																<asc_sop></asc_sop>
																<asc_sat></asc_sat>
																<lut2></lut2>
															</colorinfo>
															<labels>
																<label2>Violet</label2>
															</labels>
														</clipitem>
														<clipitem id="clipitem-531">
															<masterclipid>masterclip-208</masterclipid>
															<name>(Camp Chef)_Tiramisu Pancakes for Mother's Day_3Rtmg-VHoMQ_YT.mp4</name>
															<enabled>TRUE</enabled>
															<duration>9358</duration>
															<rate>
																<timebase>30</timebase>
																<ntsc>TRUE</ntsc>
															</rate>
															<start>2325</start>
															<end>2505</end>
															<in>6766</in>
															<out>6946</out>
															<pproTicksIn>57346364275200</pproTicksIn>
															<pproTicksOut>58871984371200</pproTicksOut>
															<alphatype>none</alphatype>
															<file id="file-179"/>
															<logginginfo>
																<description>Tiramisu Pancakes for Mother's Day</description>
																<scene></scene>
																<shottake></shottake>
																<lognote>https://www.youtube.com/watch?v=3Rtmg-VHoMQ</lognote>
																<good></good>
																<originalvideofilename></originalvideofilename>
																<originalaudiofilename></originalaudiofilename>
															</logginginfo>
															<colorinfo>
																<lut></lut>
																<lut1></lut1>
																<asc_sop></asc_sop>
																<asc_sat></asc_sat>
																<lut2></lut2>
															</colorinfo>
															<labels>
																<label2>Violet</label2>
															</labels>
														</clipitem>
														<clipitem id="clipitem-532">
															<masterclipid>masterclip-208</masterclipid>
															<name>(Camp Chef)_Tiramisu Pancakes for Mother's Day_3Rtmg-VHoMQ_YT.mp4</name>
															<enabled>TRUE</enabled>
															<duration>9358</duration>
															<rate>
																<timebase>30</timebase>
																<ntsc>TRUE</ntsc>
															</rate>
															<start>2505</start>
															<end>2616</end>
															<in>7010</in>
															<out>7121</out>
															<pproTicksIn>59414427072000</pproTicksIn>
															<pproTicksOut>60355226131200</pproTicksOut>
															<alphatype>none</alphatype>
															<file id="file-179"/>
															<logginginfo>
																<description>Tiramisu Pancakes for Mother's Day</description>
																<scene></scene>
																<shottake></shottake>
																<lognote>https://www.youtube.com/watch?v=3Rtmg-VHoMQ</lognote>
																<good></good>
																<originalvideofilename></originalvideofilename>
																<originalaudiofilename></originalaudiofilename>
															</logginginfo>
															<colorinfo>
																<lut></lut>
																<lut1></lut1>
																<asc_sop></asc_sop>
																<asc_sat></asc_sat>
																<lut2></lut2>
															</colorinfo>
															<labels>
																<label2>Violet</label2>
															</labels>
														</clipitem>
														<clipitem id="clipitem-533">
															<masterclipid>masterclip-208</masterclipid>
															<name>(Camp Chef)_Tiramisu Pancakes for Mother's Day_3Rtmg-VHoMQ_YT.mp4</name>
															<enabled>TRUE</enabled>
															<duration>9358</duration>
															<rate>
																<timebase>30</timebase>
																<ntsc>TRUE</ntsc>
															</rate>
															<start>2616</start>
															<end>2748</end>
															<in>7186</in>
															<out>7318</out>
															<pproTicksIn>60906144499200</pproTicksIn>
															<pproTicksOut>62024932569600</pproTicksOut>
															<alphatype>none</alphatype>
															<file id="file-179"/>
															<logginginfo>
																<description>Tiramisu Pancakes for Mother's Day</description>
																<scene></scene>
																<shottake></shottake>
																<lognote>https://www.youtube.com/watch?v=3Rtmg-VHoMQ</lognote>
																<good></good>
																<originalvideofilename></originalvideofilename>
																<originalaudiofilename></originalaudiofilename>
															</logginginfo>
															<colorinfo>
																<lut></lut>
																<lut1></lut1>
																<asc_sop></asc_sop>
																<asc_sat></asc_sat>
																<lut2></lut2>
															</colorinfo>
															<labels>
																<label2>Violet</label2>
															</labels>
														</clipitem>
														<clipitem id="clipitem-534">
															<masterclipid>masterclip-208</masterclipid>
															<name>(Camp Chef)_Tiramisu Pancakes for Mother's Day_3Rtmg-VHoMQ_YT.mp4</name>
															<enabled>TRUE</enabled>
															<duration>9358</duration>
															<rate>
																<timebase>30</timebase>
																<ntsc>TRUE</ntsc>
															</rate>
															<start>2748</start>
															<end>2986</end>
															<in>7601</in>
															<out>7839</out>
															<pproTicksIn>64423546387200</pproTicksIn>
															<pproTicksOut>66440755180800</pproTicksOut>
															<alphatype>none</alphatype>
															<file id="file-179"/>
															<logginginfo>
																<description>Tiramisu Pancakes for Mother's Day</description>
																<scene></scene>
																<shottake></shottake>
																<lognote>https://www.youtube.com/watch?v=3Rtmg-VHoMQ</lognote>
																<good></good>
																<originalvideofilename></originalvideofilename>
																<originalaudiofilename></originalaudiofilename>
															</logginginfo>
															<colorinfo>
																<lut></lut>
																<lut1></lut1>
																<asc_sop></asc_sop>
																<asc_sat></asc_sat>
																<lut2></lut2>
															</colorinfo>
															<labels>
																<label2>Violet</label2>
															</labels>
														</clipitem>
														<clipitem id="clipitem-535">
															<masterclipid>masterclip-208</masterclipid>
															<name>(Camp Chef)_Tiramisu Pancakes for Mother's Day_3Rtmg-VHoMQ_YT.mp4</name>
															<enabled>TRUE</enabled>
															<duration>9358</duration>
															<rate>
																<timebase>30</timebase>
																<ntsc>TRUE</ntsc>
															</rate>
															<start>2986</start>
															<end>3021</end>
															<in>7958</in>
															<out>7993</out>
															<pproTicksIn>67449359577600</pproTicksIn>
															<pproTicksOut>67746007929600</pproTicksOut>
															<alphatype>none</alphatype>
															<file id="file-179"/>
															<logginginfo>
																<description>Tiramisu Pancakes for Mother's Day</description>
																<scene></scene>
																<shottake></shottake>
																<lognote>https://www.youtube.com/watch?v=3Rtmg-VHoMQ</lognote>
																<good></good>
																<originalvideofilename></originalvideofilename>
																<originalaudiofilename></originalaudiofilename>
															</logginginfo>
															<colorinfo>
																<lut></lut>
																<lut1></lut1>
																<asc_sop></asc_sop>
																<asc_sat></asc_sat>
																<lut2></lut2>
															</colorinfo>
															<labels>
																<label2>Violet</label2>
															</labels>
														</clipitem>
														<clipitem id="clipitem-536">
															<masterclipid>masterclip-208</masterclipid>
															<name>(Camp Chef)_Tiramisu Pancakes for Mother's Day_3Rtmg-VHoMQ_YT.mp4</name>
															<enabled>TRUE</enabled>
															<duration>9358</duration>
															<rate>
																<timebase>30</timebase>
																<ntsc>TRUE</ntsc>
															</rate>
															<start>3021</start>
															<end>3149</end>
															<in>8246</in>
															<out>8374</out>
															<pproTicksIn>69890351731200</pproTicksIn>
															<pproTicksOut>70975237132800</pproTicksOut>
															<alphatype>none</alphatype>
															<file id="file-179"/>
															<logginginfo>
																<description>Tiramisu Pancakes for Mother's Day</description>
																<scene></scene>
																<shottake></shottake>
																<lognote>https://www.youtube.com/watch?v=3Rtmg-VHoMQ</lognote>
																<good></good>
																<originalvideofilename></originalvideofilename>
																<originalaudiofilename></originalaudiofilename>
															</logginginfo>
															<colorinfo>
																<lut></lut>
																<lut1></lut1>
																<asc_sop></asc_sop>
																<asc_sat></asc_sat>
																<lut2></lut2>
															</colorinfo>
															<labels>
																<label2>Violet</label2>
															</labels>
														</clipitem>
														<enabled>TRUE</enabled>
														<locked>FALSE</locked>
													</track>
													<track TL.SQTrackShy="0" TL.SQTrackExpandedHeight="25" TL.SQTrackExpanded="0" MZ.TrackTargeted="0">
														<clipitem id="clipitem-537">
															<masterclipid>masterclip-209</masterclipid>
															<name>Camp Chef</name>
															<enabled>TRUE</enabled>
															<duration>5844</duration>
															<rate>
																<timebase>30</timebase>
																<ntsc>TRUE</ntsc>
															</rate>
															<start>0</start>
															<end>3149</end>
															<in>0</in>
															<out>3149</out>
															<pproTicksIn>0</pproTicksIn>
															<pproTicksOut>26689876012800</pproTicksOut>
															<alphatype>straight</alphatype>
															<pixelaspectratio>square</pixelaspectratio>
															<anamorphic>FALSE</anamorphic>
															<file id="file-180">
																<name>1080/AE Attribution.aep</name>
																<pathurl>file://localhost/Volumes/ATM%201/EYE%20CANDY/Project%20Template/5_Assets/AE%20Attribution.aep</pathurl>
																<rate>
																	<timebase>30</timebase>
																	<ntsc>TRUE</ntsc>
																</rate>
																<duration>5844</duration>
																<timecode>
																	<rate>
																		<timebase>30</timebase>
																		<ntsc>TRUE</ntsc>
																	</rate>
																	<string>00;00;00;00</string>
																	<frame>0</frame>
																	<displayformat>DF</displayformat>
																</timecode>
																<media>
																	<video>
																		<samplecharacteristics>
																			<rate>
																				<timebase>30</timebase>
																				<ntsc>TRUE</ntsc>
																			</rate>
																			<width>1920</width>
																			<height>1080</height>
																			<anamorphic>FALSE</anamorphic>
																			<pixelaspectratio>square</pixelaspectratio>
																			<fielddominance>lower</fielddominance>
																		</samplecharacteristics>
																	</video>
																</media>
															</file>
															<logginginfo>
																<description></description>
																<scene></scene>
																<shottake></shottake>
																<lognote></lognote>
																<good></good>
																<originalvideofilename></originalvideofilename>
																<originalaudiofilename></originalaudiofilename>
															</logginginfo>
															<colorinfo>
																<lut></lut>
																<lut1></lut1>
																<asc_sop></asc_sop>
																<asc_sat></asc_sat>
																<lut2></lut2>
															</colorinfo>
															<labels>
																<label2>Rose</label2>
															</labels>
														</clipitem>
														<enabled>TRUE</enabled>
														<locked>FALSE</locked>
													</track>
													<track TL.SQTrackShy="0" TL.SQTrackExpandedHeight="25" TL.SQTrackExpanded="0" MZ.TrackTargeted="0">
														<enabled>TRUE</enabled>
														<locked>FALSE</locked>
													</track>
													<track TL.SQTrackShy="0" TL.SQTrackExpandedHeight="25" TL.SQTrackExpanded="0" MZ.TrackTargeted="0">
														<enabled>TRUE</enabled>
														<locked>FALSE</locked>
													</track>
													<track TL.SQTrackShy="0" TL.SQTrackExpandedHeight="25" TL.SQTrackExpanded="0" MZ.TrackTargeted="0">
														<enabled>TRUE</enabled>
														<locked>FALSE</locked>
													</track>
													<track TL.SQTrackShy="0" TL.SQTrackExpandedHeight="25" TL.SQTrackExpanded="0" MZ.TrackTargeted="0">
														<enabled>TRUE</enabled>
														<locked>FALSE</locked>
													</track>
													<track TL.SQTrackShy="0" TL.SQTrackExpandedHeight="25" TL.SQTrackExpanded="0" MZ.TrackTargeted="0">
														<enabled>TRUE</enabled>
														<locked>FALSE</locked>
													</track>
													<track TL.SQTrackShy="0" TL.SQTrackExpandedHeight="25" TL.SQTrackExpanded="0" MZ.TrackTargeted="0">
														<enabled>TRUE</enabled>
														<locked>FALSE</locked>
													</track>
													<track TL.SQTrackShy="0" TL.SQTrackExpandedHeight="25" TL.SQTrackExpanded="0" MZ.TrackTargeted="0">
														<enabled>TRUE</enabled>
														<locked>FALSE</locked>
													</track>
													<track TL.SQTrackShy="0" TL.SQTrackExpandedHeight="25" TL.SQTrackExpanded="0" MZ.TrackTargeted="0">
														<enabled>TRUE</enabled>
														<locked>FALSE</locked>
													</track>
												</video>
												<audio>
													<numOutputChannels>2</numOutputChannels>
													<format>
														<samplecharacteristics>
															<depth>16</depth>
															<samplerate>48000</samplerate>
														</samplecharacteristics>
													</format>
													<outputs>
														<group>
															<index>1</index>
															<numchannels>1</numchannels>
															<downmix>0</downmix>
															<channel>
																<index>1</index>
															</channel>
														</group>
														<group>
															<index>2</index>
															<numchannels>1</numchannels>
															<downmix>0</downmix>
															<channel>
																<index>2</index>
															</channel>
														</group>
													</outputs>
													<track TL.SQTrackAudioKeyframeStyle="0" TL.SQTrackShy="0" TL.SQTrackExpandedHeight="25" TL.SQTrackExpanded="0" MZ.TrackTargeted="1" PannerCurrentValue="0.5" PannerIsInverted="true" PannerStartKeyframe="-91445760000000000,0.5,0,0,0,0,0,0" PannerName="Balance" currentExplodedTrackIndex="0" totalExplodedTrackCount="2" premiereTrackType="Stereo">
														<clipitem id="clipitem-538" premiereChannelType="stereo">
															<masterclipid>masterclip-210</masterclipid>
															<name>ES_new in the neighbourhood (Instrumental Version) - Ingrid Witt.mp3</name>
															<enabled>TRUE</enabled>
															<duration>5289</duration>
															<rate>
																<timebase>30</timebase>
																<ntsc>TRUE</ntsc>
															</rate>
															<start>0</start>
															<end>3149</end>
															<in>0</in>
															<out>3149</out>
															<pproTicksIn>0</pproTicksIn>
															<pproTicksOut>26689876012800</pproTicksOut>
															<file id="file-181">
																<name>ES_new in the neighbourhood (Instrumental Version) - Ingrid Witt.mp3</name>
																<pathurl>file://localhost/Volumes/CONTENT/VOD%20CONTENT%20ARCHIVE/O&amp;O%20Archive%202023/Eye%20Candy/8%3a14%3a23/4_Project%20Files/Adobe%20Premiere%20Pro%20Video%20Previews/8%3a14%3a23.PRV/../../../3_Raw%20Files/Artlist%20-%20Chocolate%20Pistachio%20Treat/../../5_Assets/Music/ES_new%20in%20the%20neighbourhood%20(Instrumental%20Version)%20-%20Ingrid%20Witt.mp3</pathurl>
																<rate>
																	<timebase>30</timebase>
																	<ntsc>TRUE</ntsc>
																</rate>
																<duration>5289</duration>
																<timecode>
																	<rate>
																		<timebase>30</timebase>
																		<ntsc>TRUE</ntsc>
																	</rate>
																	<string>00;00;00;00</string>
																	<frame>0</frame>
																	<displayformat>DF</displayformat>
																</timecode>
																<media>
																	<audio>
																		<samplecharacteristics>
																			<depth>16</depth>
																			<samplerate>48000</samplerate>
																		</samplecharacteristics>
																		<channelcount>2</channelcount>
																	</audio>
																</media>
															</file>
															<sourcetrack>
																<mediatype>audio</mediatype>
																<trackindex>1</trackindex>
															</sourcetrack>
															<link>
																<linkclipref>clipitem-538</linkclipref>
																<mediatype>audio</mediatype>
																<trackindex>1</trackindex>
																<clipindex>1</clipindex>
																<groupindex>1</groupindex>
															</link>
															<link>
																<linkclipref>clipitem-539</linkclipref>
																<mediatype>audio</mediatype>
																<trackindex>2</trackindex>
																<clipindex>1</clipindex>
																<groupindex>1</groupindex>
															</link>
															<logginginfo>
																<description></description>
																<scene></scene>
																<shottake></shottake>
																<lognote></lognote>
																<good></good>
																<originalvideofilename></originalvideofilename>
																<originalaudiofilename></originalaudiofilename>
															</logginginfo>
															<colorinfo>
																<lut></lut>
																<lut1></lut1>
																<asc_sop></asc_sop>
																<asc_sat></asc_sat>
																<lut2></lut2>
															</colorinfo>
															<labels>
																<label2>Caribbean</label2>
															</labels>
														</clipitem>
														<enabled>TRUE</enabled>
														<locked>FALSE</locked>
														<filter>
															<effect>
																<name>Audio Levels</name>
																<effectid>audiolevels</effectid>
																<effectcategory>audiolevels</effectcategory>
																<effecttype>audiolevels</effecttype>
																<mediatype>audio</mediatype>
																<parameter authoringApp="PremierePro">
																	<parameterid>level</parameterid>
																	<name>Level</name>
																	<valuemin>0</valuemin>
																	<valuemax>3.98109</valuemax>
																	<value>0.706272</value>
																</parameter>
															</effect>
														</filter>
														<outputchannelindex>1</outputchannelindex>
													</track>
													<track TL.SQTrackAudioKeyframeStyle="0" TL.SQTrackShy="0" TL.SQTrackExpandedHeight="25" TL.SQTrackExpanded="0" MZ.TrackTargeted="1" PannerCurrentValue="0.5" PannerIsInverted="true" PannerStartKeyframe="-91445760000000000,0.5,0,0,0,0,0,0" PannerName="Balance" currentExplodedTrackIndex="1" totalExplodedTrackCount="2" premiereTrackType="Stereo">
														<clipitem id="clipitem-539" premiereChannelType="stereo">
															<masterclipid>masterclip-210</masterclipid>
															<name>ES_new in the neighbourhood (Instrumental Version) - Ingrid Witt.mp3</name>
															<enabled>TRUE</enabled>
															<duration>5289</duration>
															<rate>
																<timebase>30</timebase>
																<ntsc>TRUE</ntsc>
															</rate>
															<start>0</start>
															<end>3149</end>
															<in>0</in>
															<out>3149</out>
															<pproTicksIn>0</pproTicksIn>
															<pproTicksOut>26689876012800</pproTicksOut>
															<file id="file-181"/>
															<sourcetrack>
																<mediatype>audio</mediatype>
																<trackindex>2</trackindex>
															</sourcetrack>
															<link>
																<linkclipref>clipitem-538</linkclipref>
																<mediatype>audio</mediatype>
																<trackindex>1</trackindex>
																<clipindex>1</clipindex>
																<groupindex>1</groupindex>
															</link>
															<link>
																<linkclipref>clipitem-539</linkclipref>
																<mediatype>audio</mediatype>
																<trackindex>2</trackindex>
																<clipindex>1</clipindex>
																<groupindex>1</groupindex>
															</link>
															<logginginfo>
																<description></description>
																<scene></scene>
																<shottake></shottake>
																<lognote></lognote>
																<good></good>
																<originalvideofilename></originalvideofilename>
																<originalaudiofilename></originalaudiofilename>
															</logginginfo>
															<colorinfo>
																<lut></lut>
																<lut1></lut1>
																<asc_sop></asc_sop>
																<asc_sat></asc_sat>
																<lut2></lut2>
															</colorinfo>
															<labels>
																<label2>Caribbean</label2>
															</labels>
														</clipitem>
														<enabled>TRUE</enabled>
														<locked>FALSE</locked>
														<filter>
															<effect>
																<name>Audio Levels</name>
																<effectid>audiolevels</effectid>
																<effectcategory>audiolevels</effectcategory>
																<effecttype>audiolevels</effecttype>
																<mediatype>audio</mediatype>
																<parameter authoringApp="PremierePro">
																	<parameterid>level</parameterid>
																	<name>Level</name>
																	<valuemin>0</valuemin>
																	<valuemax>3.98109</valuemax>
																	<value>0.706272</value>
																</parameter>
															</effect>
														</filter>
														<outputchannelindex>2</outputchannelindex>
													</track>
													<track TL.SQTrackAudioKeyframeStyle="0" TL.SQTrackShy="0" TL.SQTrackExpandedHeight="25" TL.SQTrackExpanded="0" MZ.TrackTargeted="0" PannerCurrentValue="0.5" PannerIsInverted="true" PannerStartKeyframe="-91445760000000000,0.5,0,0,0,0,0,0" PannerName="Balance" currentExplodedTrackIndex="0" totalExplodedTrackCount="2" premiereTrackType="Stereo">
														<enabled>TRUE</enabled>
														<locked>FALSE</locked>
														<outputchannelindex>1</outputchannelindex>
													</track>
													<track TL.SQTrackAudioKeyframeStyle="0" TL.SQTrackShy="0" TL.SQTrackExpandedHeight="25" TL.SQTrackExpanded="0" MZ.TrackTargeted="0" PannerCurrentValue="0.5" PannerIsInverted="true" PannerStartKeyframe="-91445760000000000,0.5,0,0,0,0,0,0" PannerName="Balance" currentExplodedTrackIndex="1" totalExplodedTrackCount="2" premiereTrackType="Stereo">
														<enabled>TRUE</enabled>
														<locked>FALSE</locked>
														<outputchannelindex>2</outputchannelindex>
													</track>
													<track TL.SQTrackAudioKeyframeStyle="0" TL.SQTrackShy="0" TL.SQTrackExpandedHeight="25" TL.SQTrackExpanded="0" MZ.TrackTargeted="0" PannerCurrentValue="0.5" PannerIsInverted="true" PannerStartKeyframe="-91445760000000000,0.5,0,0,0,0,0,0" PannerName="Balance" currentExplodedTrackIndex="0" totalExplodedTrackCount="2" premiereTrackType="Stereo">
														<enabled>TRUE</enabled>
														<locked>FALSE</locked>
														<outputchannelindex>1</outputchannelindex>
													</track>
													<track TL.SQTrackAudioKeyframeStyle="0" TL.SQTrackShy="0" TL.SQTrackExpandedHeight="25" TL.SQTrackExpanded="0" MZ.TrackTargeted="0" PannerCurrentValue="0.5" PannerIsInverted="true" PannerStartKeyframe="-91445760000000000,0.5,0,0,0,0,0,0" PannerName="Balance" currentExplodedTrackIndex="1" totalExplodedTrackCount="2" premiereTrackType="Stereo">
														<enabled>TRUE</enabled>
														<locked>FALSE</locked>
														<outputchannelindex>2</outputchannelindex>
													</track>
													<track TL.SQTrackAudioKeyframeStyle="0" TL.SQTrackShy="0" TL.SQTrackExpandedHeight="25" TL.SQTrackExpanded="0" MZ.TrackTargeted="0" PannerCurrentValue="0.5" PannerIsInverted="true" PannerStartKeyframe="-91445760000000000,0.5,0,0,0,0,0,0" PannerName="Balance" currentExplodedTrackIndex="0" totalExplodedTrackCount="2" premiereTrackType="Stereo">
														<enabled>TRUE</enabled>
														<locked>FALSE</locked>
														<outputchannelindex>1</outputchannelindex>
													</track>
													<track TL.SQTrackAudioKeyframeStyle="0" TL.SQTrackShy="0" TL.SQTrackExpandedHeight="25" TL.SQTrackExpanded="0" MZ.TrackTargeted="0" PannerCurrentValue="0.5" PannerIsInverted="true" PannerStartKeyframe="-91445760000000000,0.5,0,0,0,0,0,0" PannerName="Balance" currentExplodedTrackIndex="1" totalExplodedTrackCount="2" premiereTrackType="Stereo">
														<enabled>TRUE</enabled>
														<locked>FALSE</locked>
														<outputchannelindex>2</outputchannelindex>
													</track>
													<track TL.SQTrackAudioKeyframeStyle="0" TL.SQTrackShy="0" TL.SQTrackExpandedHeight="25" TL.SQTrackExpanded="0" MZ.TrackTargeted="0" PannerCurrentValue="0.5" PannerIsInverted="true" PannerStartKeyframe="-91445760000000000,0.5,0,0,0,0,0,0" PannerName="Balance" currentExplodedTrackIndex="0" totalExplodedTrackCount="2" premiereTrackType="Stereo">
														<enabled>TRUE</enabled>
														<locked>FALSE</locked>
														<outputchannelindex>1</outputchannelindex>
													</track>
													<track TL.SQTrackAudioKeyframeStyle="0" TL.SQTrackShy="0" TL.SQTrackExpandedHeight="25" TL.SQTrackExpanded="0" MZ.TrackTargeted="0" PannerCurrentValue="0.5" PannerIsInverted="true" PannerStartKeyframe="-91445760000000000,0.5,0,0,0,0,0,0" PannerName="Balance" currentExplodedTrackIndex="1" totalExplodedTrackCount="2" premiereTrackType="Stereo">
														<enabled>TRUE</enabled>
														<locked>FALSE</locked>
														<outputchannelindex>2</outputchannelindex>
													</track>
													<track TL.SQTrackAudioKeyframeStyle="0" TL.SQTrackShy="0" TL.SQTrackExpandedHeight="25" TL.SQTrackExpanded="0" MZ.TrackTargeted="0" PannerCurrentValue="0.5" PannerIsInverted="true" PannerStartKeyframe="-91445760000000000,0.5,0,0,0,0,0,0" PannerName="Balance" currentExplodedTrackIndex="0" totalExplodedTrackCount="2" premiereTrackType="Stereo">
														<enabled>TRUE</enabled>
														<locked>FALSE</locked>
														<outputchannelindex>1</outputchannelindex>
													</track>
													<track TL.SQTrackAudioKeyframeStyle="0" TL.SQTrackShy="0" TL.SQTrackExpandedHeight="25" TL.SQTrackExpanded="0" MZ.TrackTargeted="0" PannerCurrentValue="0.5" PannerIsInverted="true" PannerStartKeyframe="-91445760000000000,0.5,0,0,0,0,0,0" PannerName="Balance" currentExplodedTrackIndex="1" totalExplodedTrackCount="2" premiereTrackType="Stereo">
														<enabled>TRUE</enabled>
														<locked>FALSE</locked>
														<outputchannelindex>2</outputchannelindex>
													</track>
													<track TL.SQTrackAudioKeyframeStyle="0" TL.SQTrackShy="0" TL.SQTrackExpandedHeight="25" TL.SQTrackExpanded="0" MZ.TrackTargeted="0" PannerCurrentValue="0.5" PannerIsInverted="true" PannerStartKeyframe="-91445760000000000,0.5,0,0,0,0,0,0" PannerName="Balance" currentExplodedTrackIndex="0" totalExplodedTrackCount="2" premiereTrackType="Stereo">
														<enabled>TRUE</enabled>
														<locked>FALSE</locked>
														<outputchannelindex>1</outputchannelindex>
													</track>
													<track TL.SQTrackAudioKeyframeStyle="0" TL.SQTrackShy="0" TL.SQTrackExpandedHeight="25" TL.SQTrackExpanded="0" MZ.TrackTargeted="0" PannerCurrentValue="0.5" PannerIsInverted="true" PannerStartKeyframe="-91445760000000000,0.5,0,0,0,0,0,0" PannerName="Balance" currentExplodedTrackIndex="1" totalExplodedTrackCount="2" premiereTrackType="Stereo">
														<enabled>TRUE</enabled>
														<locked>FALSE</locked>
														<outputchannelindex>2</outputchannelindex>
													</track>
													<track TL.SQTrackAudioKeyframeStyle="0" TL.SQTrackShy="0" TL.SQTrackExpandedHeight="25" TL.SQTrackExpanded="0" MZ.TrackTargeted="0" PannerCurrentValue="0.5" PannerIsInverted="true" PannerStartKeyframe="-91445760000000000,0.5,0,0,0,0,0,0" PannerName="Balance" currentExplodedTrackIndex="0" totalExplodedTrackCount="2" premiereTrackType="Stereo">
														<enabled>TRUE</enabled>
														<locked>FALSE</locked>
														<outputchannelindex>1</outputchannelindex>
													</track>
													<track TL.SQTrackAudioKeyframeStyle="0" TL.SQTrackShy="0" TL.SQTrackExpandedHeight="25" TL.SQTrackExpanded="0" MZ.TrackTargeted="0" PannerCurrentValue="0.5" PannerIsInverted="true" PannerStartKeyframe="-91445760000000000,0.5,0,0,0,0,0,0" PannerName="Balance" currentExplodedTrackIndex="1" totalExplodedTrackCount="2" premiereTrackType="Stereo">
														<enabled>TRUE</enabled>
														<locked>FALSE</locked>
														<outputchannelindex>2</outputchannelindex>
													</track>
													<track TL.SQTrackAudioKeyframeStyle="0" TL.SQTrackShy="0" TL.SQTrackExpandedHeight="25" TL.SQTrackExpanded="0" MZ.TrackTargeted="0" PannerCurrentValue="0.5" PannerIsInverted="true" PannerStartKeyframe="-91445760000000000,0.5,0,0,0,0,0,0" PannerName="Balance" currentExplodedTrackIndex="0" totalExplodedTrackCount="2" premiereTrackType="Stereo">
														<enabled>TRUE</enabled>
														<locked>FALSE</locked>
														<outputchannelindex>1</outputchannelindex>
													</track>
													<track TL.SQTrackAudioKeyframeStyle="0" TL.SQTrackShy="0" TL.SQTrackExpandedHeight="25" TL.SQTrackExpanded="0" MZ.TrackTargeted="0" PannerCurrentValue="0.5" PannerIsInverted="true" PannerStartKeyframe="-91445760000000000,0.5,0,0,0,0,0,0" PannerName="Balance" currentExplodedTrackIndex="1" totalExplodedTrackCount="2" premiereTrackType="Stereo">
														<enabled>TRUE</enabled>
														<locked>FALSE</locked>
														<outputchannelindex>2</outputchannelindex>
													</track>
													<track TL.SQTrackAudioKeyframeStyle="0" TL.SQTrackShy="0" TL.SQTrackExpandedHeight="25" TL.SQTrackExpanded="0" MZ.TrackTargeted="0" PannerCurrentValue="0.5" PannerIsInverted="true" PannerStartKeyframe="-91445760000000000,0.5,0,0,0,0,0,0" PannerName="Balance" currentExplodedTrackIndex="0" totalExplodedTrackCount="2" premiereTrackType="Stereo">
														<enabled>TRUE</enabled>
														<locked>FALSE</locked>
														<outputchannelindex>1</outputchannelindex>
													</track>
													<track TL.SQTrackAudioKeyframeStyle="0" TL.SQTrackShy="0" TL.SQTrackExpandedHeight="25" TL.SQTrackExpanded="0" MZ.TrackTargeted="0" PannerCurrentValue="0.5" PannerIsInverted="true" PannerStartKeyframe="-91445760000000000,0.5,0,0,0,0,0,0" PannerName="Balance" currentExplodedTrackIndex="1" totalExplodedTrackCount="2" premiereTrackType="Stereo">
														<enabled>TRUE</enabled>
														<locked>FALSE</locked>
														<outputchannelindex>2</outputchannelindex>
													</track>
												</audio>
											</media>
											<timecode>
												<rate>
													<timebase>30</timebase>
													<ntsc>TRUE</ntsc>
												</rate>
												<string>00;00;00;00</string>
												<frame>0</frame>
												<displayformat>DF</displayformat>
											</timecode>
											<logginginfo>
												<description></description>
												<scene></scene>
												<shottake></shottake>
												<lognote></lognote>
												<good></good>
												<originalvideofilename></originalvideofilename>
												<originalaudiofilename></originalaudiofilename>
											</logginginfo>
										</sequence>
										<link>
											<linkclipref>clipitem-517</linkclipref>
											<mediatype>video</mediatype>
											<trackindex>1</trackindex>
											<clipindex>1</clipindex>
										</link>
										<link>
											<linkclipref>clipitem-571</linkclipref>
											<mediatype>audio</mediatype>
											<trackindex>1</trackindex>
											<clipindex>1</clipindex>
											<groupindex>1</groupindex>
										</link>
										<link>
											<linkclipref>clipitem-573</linkclipref>
											<mediatype>audio</mediatype>
											<trackindex>2</trackindex>
											<clipindex>1</clipindex>
											<groupindex>1</groupindex>
										</link>
										<labels>
											<label2>Forest</label2>
										</labels>
									</clipitem>
									<clipitem id="clipitem-540">
										<masterclipid>masterclip-211</masterclipid>
										<name>Snacks for A Hike_1</name>
										<enabled>TRUE</enabled>
										<duration>5700</duration>
										<rate>
											<timebase>30</timebase>
											<ntsc>TRUE</ntsc>
										</rate>
										<start>3267</start>
										<end>5283</end>
										<in>0</in>
										<out>2016</out>
										<pproTicksIn>0</pproTicksIn>
										<pproTicksOut>17086945075200</pproTicksOut>
										<sequence id="sequence-41" TL.SQAudioVisibleBase="0" TL.SQVideoVisibleBase="0" TL.SQVisibleBaseTime="0" TL.SQAVDividerPosition="0.5" TL.SQHideShyTracks="0" TL.SQHeaderWidth="236" TL.SQDataTrackViewControlState="0" Monitor.ProgramZoomOut="17086945075200" Monitor.ProgramZoomIn="0" TL.SQTimePerPixel="0.072184793070017128" AM.TrackVScrollPosition="0" AM.TrackScrollPosition="0" MZ.EditLine="4263260601600" MZ.Sequence.PreviewFrameSizeHeight="1080" MZ.Sequence.PreviewFrameSizeWidth="1920" MZ.Sequence.AudioTimeDisplayFormat="200" MZ.Sequence.PreviewRenderingClassID="1061109567" MZ.Sequence.PreviewRenderingPresetCodec="1634755443" MZ.Sequence.PreviewRenderingPresetPath="EncoderPresets/SequencePreview/35d109db-457b-43c1-9452-9cb7be9f121c/QuickTime.epr" MZ.Sequence.PreviewUseMaxRenderQuality="false" MZ.Sequence.PreviewUseMaxBitDepth="false" MZ.Sequence.EditingModeGUID="35d109db-457b-43c1-9452-9cb7be9f121c" MZ.Sequence.VideoTimeDisplayFormat="102" MZ.WorkOutPoint="1262874412800" MZ.WorkInPoint="0">
											<duration>2016</duration>
											<rate>
												<timebase>30</timebase>
												<ntsc>TRUE</ntsc>
											</rate>
											<name>FND_Snacks for A Hike_1</name>
											<media>
												<video>
													<format>
														<samplecharacteristics>
															<rate>
																<timebase>30</timebase>
																<ntsc>TRUE</ntsc>
															</rate>
															<codec>
																<name>Apple ProRes 422</name>
																<appspecificdata>
																	<appname>Final Cut Pro</appname>
																	<appmanufacturer>Apple Inc.</appmanufacturer>
																	<appversion>7.0</appversion>
																	<data>
																		<qtcodec>
																			<codecname>Apple ProRes 422</codecname>
																			<codectypename>Apple ProRes 422</codectypename>
																			<codectypecode>apcn</codectypecode>
																			<codecvendorcode>appl</codecvendorcode>
																			<spatialquality>1024</spatialquality>
																			<temporalquality>0</temporalquality>
																			<keyframerate>0</keyframerate>
																			<datarate>0</datarate>
																		</qtcodec>
																	</data>
																</appspecificdata>
															</codec>
															<width>1920</width>
															<height>1080</height>
															<anamorphic>FALSE</anamorphic>
															<pixelaspectratio>square</pixelaspectratio>
															<fielddominance>none</fielddominance>
															<colordepth>24</colordepth>
														</samplecharacteristics>
													</format>
													<track TL.SQTrackShy="0" TL.SQTrackExpandedHeight="25" TL.SQTrackExpanded="0" MZ.TrackTargeted="1">
														<clipitem id="clipitem-541">
															<masterclipid>masterclip-212</masterclipid>
															<name>(cookwithfoam)_Ca2VYYQh4yV_IG.mp4</name>
															<enabled>TRUE</enabled>
															<duration>434</duration>
															<rate>
																<timebase>30</timebase>
																<ntsc>TRUE</ntsc>
															</rate>
															<start>0</start>
															<end>434</end>
															<in>0</in>
															<out>434</out>
															<pproTicksIn>0</pproTicksIn>
															<pproTicksOut>3678439564800</pproTicksOut>
															<alphatype>none</alphatype>
															<pixelaspectratio>square</pixelaspectratio>
															<anamorphic>FALSE</anamorphic>
															<file id="file-182">
																<name>(cookwithfoam)_Ca2VYYQh4yV_IG.mp4</name>
																<pathurl>file://localhost/Volumes/ATM%201/EYE%20CANDY/8%3a14%3a23/3_Raw%20Files/snacks%20for%20a%20hike/(cookwithfoam)_Ca2VYYQh4yV_IG.mp4</pathurl>
																<rate>
																	<timebase>30</timebase>
																	<ntsc>FALSE</ntsc>
																</rate>
																<duration>435</duration>
																<timecode>
																	<rate>
																		<timebase>30</timebase>
																		<ntsc>FALSE</ntsc>
																	</rate>
																	<string>00:00:00:00</string>
																	<frame>0</frame>
																	<displayformat>NDF</displayformat>
																</timecode>
																<media>
																	<video>
																		<samplecharacteristics>
																			<rate>
																				<timebase>30</timebase>
																				<ntsc>FALSE</ntsc>
																			</rate>
																			<width>720</width>
																			<height>1280</height>
																			<anamorphic>FALSE</anamorphic>
																			<pixelaspectratio>square</pixelaspectratio>
																			<fielddominance>none</fielddominance>
																		</samplecharacteristics>
																	</video>
																	<audio>
																		<samplecharacteristics>
																			<depth>16</depth>
																			<samplerate>44100</samplerate>
																		</samplecharacteristics>
																		<channelcount>2</channelcount>
																	</audio>
																</media>
															</file>
															<logginginfo>
																<description>TT: indycafez</description>
																<scene></scene>
																<shottake></shottake>
																<lognote></lognote>
																<good></good>
																<originalvideofilename></originalvideofilename>
																<originalaudiofilename></originalaudiofilename>
															</logginginfo>
															<colorinfo>
																<lut></lut>
																<lut1></lut1>
																<asc_sop></asc_sop>
																<asc_sat></asc_sat>
																<lut2></lut2>
															</colorinfo>
															<labels>
																<label2>Violet</label2>
															</labels>
														</clipitem>
														<clipitem id="clipitem-542">
															<masterclipid>masterclip-213</masterclipid>
															<name>(alphafoodie)_B_P3sjig1GQ_IG.mp4</name>
															<enabled>TRUE</enabled>
															<duration>1960</duration>
															<rate>
																<timebase>30</timebase>
																<ntsc>TRUE</ntsc>
															</rate>
															<start>434</start>
															<end>503</end>
															<in>79</in>
															<out>148</out>
															<pproTicksIn>669577708800</pproTicksIn>
															<pproTicksOut>1254398745600</pproTicksOut>
															<alphatype>none</alphatype>
															<pixelaspectratio>square</pixelaspectratio>
															<anamorphic>FALSE</anamorphic>
															<file id="file-183">
																<name>(alphafoodie)_B_P3sjig1GQ_IG.mp4</name>
																<pathurl>file://localhost/Volumes/ATM%201/EYE%20CANDY/8%3a14%3a23/3_Raw%20Files/snacks%20for%20a%20hike/(alphafoodie)_B_P3sjig1GQ_IG.mp4</pathurl>
																<rate>
																	<timebase>30</timebase>
																	<ntsc>FALSE</ntsc>
																</rate>
																<duration>1962</duration>
																<timecode>
																	<rate>
																		<timebase>30</timebase>
																		<ntsc>FALSE</ntsc>
																	</rate>
																	<string>00:00:00:00</string>
																	<frame>0</frame>
																	<displayformat>NDF</displayformat>
																</timecode>
																<media>
																	<video>
																		<samplecharacteristics>
																			<rate>
																				<timebase>30</timebase>
																				<ntsc>FALSE</ntsc>
																			</rate>
																			<width>720</width>
																			<height>1280</height>
																			<anamorphic>FALSE</anamorphic>
																			<pixelaspectratio>square</pixelaspectratio>
																			<fielddominance>none</fielddominance>
																		</samplecharacteristics>
																	</video>
																	<audio>
																		<samplecharacteristics>
																			<depth>16</depth>
																			<samplerate>44100</samplerate>
																		</samplecharacteristics>
																		<channelcount>2</channelcount>
																	</audio>
																</media>
															</file>
															<logginginfo>
																<description></description>
																<scene></scene>
																<shottake></shottake>
																<lognote></lognote>
																<good></good>
																<originalvideofilename></originalvideofilename>
																<originalaudiofilename></originalaudiofilename>
															</logginginfo>
															<colorinfo>
																<lut></lut>
																<lut1></lut1>
																<asc_sop></asc_sop>
																<asc_sat></asc_sat>
																<lut2></lut2>
															</colorinfo>
															<labels>
																<label2>Violet</label2>
															</labels>
														</clipitem>
														<clipitem id="clipitem-543">
															<masterclipid>masterclip-213</masterclipid>
															<name>(alphafoodie)_B_P3sjig1GQ_IG.mp4</name>
															<enabled>TRUE</enabled>
															<duration>1960</duration>
															<rate>
																<timebase>30</timebase>
																<ntsc>TRUE</ntsc>
															</rate>
															<start>503</start>
															<end>603</end>
															<in>349</in>
															<out>449</out>
															<pproTicksIn>2958007852800</pproTicksIn>
															<pproTicksOut>3805574572800</pproTicksOut>
															<alphatype>none</alphatype>
															<file id="file-183"/>
															<logginginfo>
																<description></description>
																<scene></scene>
																<shottake></shottake>
																<lognote></lognote>
																<good></good>
																<originalvideofilename></originalvideofilename>
																<originalaudiofilename></originalaudiofilename>
															</logginginfo>
															<colorinfo>
																<lut></lut>
																<lut1></lut1>
																<asc_sop></asc_sop>
																<asc_sat></asc_sat>
																<lut2></lut2>
															</colorinfo>
															<labels>
																<label2>Violet</label2>
															</labels>
														</clipitem>
														<clipitem id="clipitem-544">
															<masterclipid>masterclip-213</masterclipid>
															<name>(alphafoodie)_B_P3sjig1GQ_IG.mp4</name>
															<enabled>TRUE</enabled>
															<duration>1960</duration>
															<rate>
																<timebase>30</timebase>
																<ntsc>TRUE</ntsc>
															</rate>
															<start>603</start>
															<end>688</end>
															<in>475</in>
															<out>560</out>
															<pproTicksIn>4025941920000</pproTicksIn>
															<pproTicksOut>4746373632000</pproTicksOut>
															<alphatype>none</alphatype>
															<file id="file-183"/>
															<logginginfo>
																<description></description>
																<scene></scene>
																<shottake></shottake>
																<lognote></lognote>
																<good></good>
																<originalvideofilename></originalvideofilename>
																<originalaudiofilename></originalaudiofilename>
															</logginginfo>
															<colorinfo>
																<lut></lut>
																<lut1></lut1>
																<asc_sop></asc_sop>
																<asc_sat></asc_sat>
																<lut2></lut2>
															</colorinfo>
															<labels>
																<label2>Violet</label2>
															</labels>
														</clipitem>
														<clipitem id="clipitem-545">
															<masterclipid>masterclip-213</masterclipid>
															<name>(alphafoodie)_B_P3sjig1GQ_IG.mp4</name>
															<enabled>TRUE</enabled>
															<duration>1960</duration>
															<rate>
																<timebase>30</timebase>
																<ntsc>TRUE</ntsc>
															</rate>
															<start>688</start>
															<end>762</end>
															<in>732</in>
															<out>806</out>
															<pproTicksIn>6204188390400</pproTicksIn>
															<pproTicksOut>6831387763200</pproTicksOut>
															<alphatype>none</alphatype>
															<file id="file-183"/>
															<logginginfo>
																<description></description>
																<scene></scene>
																<shottake></shottake>
																<lognote></lognote>
																<good></good>
																<originalvideofilename></originalvideofilename>
																<originalaudiofilename></originalaudiofilename>
															</logginginfo>
															<colorinfo>
																<lut></lut>
																<lut1></lut1>
																<asc_sop></asc_sop>
																<asc_sat></asc_sat>
																<lut2></lut2>
															</colorinfo>
															<labels>
																<label2>Violet</label2>
															</labels>
														</clipitem>
														<clipitem id="clipitem-546">
															<masterclipid>masterclip-213</masterclipid>
															<name>(alphafoodie)_B_P3sjig1GQ_IG.mp4</name>
															<enabled>TRUE</enabled>
															<duration>1960</duration>
															<rate>
																<timebase>30</timebase>
																<ntsc>TRUE</ntsc>
															</rate>
															<start>762</start>
															<end>870</end>
															<in>1072</in>
															<out>1180</out>
															<pproTicksIn>9085915238400</pproTicksIn>
															<pproTicksOut>10001287296000</pproTicksOut>
															<alphatype>none</alphatype>
															<file id="file-183"/>
															<logginginfo>
																<description></description>
																<scene></scene>
																<shottake></shottake>
																<lognote></lognote>
																<good></good>
																<originalvideofilename></originalvideofilename>
																<originalaudiofilename></originalaudiofilename>
															</logginginfo>
															<colorinfo>
																<lut></lut>
																<lut1></lut1>
																<asc_sop></asc_sop>
																<asc_sat></asc_sat>
																<lut2></lut2>
															</colorinfo>
															<labels>
																<label2>Violet</label2>
															</labels>
														</clipitem>
														<clipitem id="clipitem-547">
															<masterclipid>masterclip-213</masterclipid>
															<name>(alphafoodie)_B_P3sjig1GQ_IG.mp4</name>
															<enabled>TRUE</enabled>
															<duration>1960</duration>
															<rate>
																<timebase>30</timebase>
																<ntsc>TRUE</ntsc>
															</rate>
															<start>870</start>
															<end>894</end>
															<in>1581</in>
															<out>1605</out>
															<pproTicksIn>13400029843200</pproTicksIn>
															<pproTicksOut>13603445856000</pproTicksOut>
															<alphatype>none</alphatype>
															<file id="file-183"/>
															<logginginfo>
																<description></description>
																<scene></scene>
																<shottake></shottake>
																<lognote></lognote>
																<good></good>
																<originalvideofilename></originalvideofilename>
																<originalaudiofilename></originalaudiofilename>
															</logginginfo>
															<colorinfo>
																<lut></lut>
																<lut1></lut1>
																<asc_sop></asc_sop>
																<asc_sat></asc_sat>
																<lut2></lut2>
															</colorinfo>
															<labels>
																<label2>Violet</label2>
															</labels>
														</clipitem>
														<clipitem id="clipitem-548">
															<masterclipid>masterclip-213</masterclipid>
															<name>(alphafoodie)_B_P3sjig1GQ_IG.mp4</name>
															<enabled>TRUE</enabled>
															<duration>1960</duration>
															<rate>
																<timebase>30</timebase>
																<ntsc>TRUE</ntsc>
															</rate>
															<start>894</start>
															<end>977</end>
															<in>1792</in>
															<out>1875</out>
															<pproTicksIn>15188395622400</pproTicksIn>
															<pproTicksOut>15891876000000</pproTicksOut>
															<alphatype>none</alphatype>
															<file id="file-183"/>
															<logginginfo>
																<description></description>
																<scene></scene>
																<shottake></shottake>
																<lognote></lognote>
																<good></good>
																<originalvideofilename></originalvideofilename>
																<originalaudiofilename></originalaudiofilename>
															</logginginfo>
															<colorinfo>
																<lut></lut>
																<lut1></lut1>
																<asc_sop></asc_sop>
																<asc_sat></asc_sat>
																<lut2></lut2>
															</colorinfo>
															<labels>
																<label2>Violet</label2>
															</labels>
														</clipitem>
														<clipitem id="clipitem-549">
															<masterclipid>masterclip-214</masterclipid>
															<name>(refined.and.dandy)_7091735218834443563_TT.mp4</name>
															<enabled>TRUE</enabled>
															<duration>635</duration>
															<rate>
																<timebase>30</timebase>
																<ntsc>TRUE</ntsc>
															</rate>
															<start>977</start>
															<end>1499</end>
															<in>48</in>
															<out>570</out>
															<pproTicksIn>406832025600</pproTicksIn>
															<pproTicksOut>4831130304000</pproTicksOut>
															<alphatype>none</alphatype>
															<pixelaspectratio>square</pixelaspectratio>
															<anamorphic>FALSE</anamorphic>
															<file id="file-184">
																<name>(refined.and.dandy)_7091735218834443563_TT.mp4</name>
																<pathurl>file://localhost/Volumes/ATM%201/EYE%20CANDY/8%3a14%3a23/3_Raw%20Files/snacks%20for%20a%20hike/(refined.and.dandy)_7091735218834443563_TT.mp4</pathurl>
																<rate>
																	<timebase>30</timebase>
																	<ntsc>FALSE</ntsc>
																</rate>
																<duration>636</duration>
																<timecode>
																	<rate>
																		<timebase>30</timebase>
																		<ntsc>FALSE</ntsc>
																	</rate>
																	<string>00:00:00:00</string>
																	<frame>0</frame>
																	<displayformat>NDF</displayformat>
																</timecode>
																<media>
																	<video>
																		<samplecharacteristics>
																			<rate>
																				<timebase>30</timebase>
																				<ntsc>FALSE</ntsc>
																			</rate>
																			<width>576</width>
																			<height>1024</height>
																			<anamorphic>FALSE</anamorphic>
																			<pixelaspectratio>square</pixelaspectratio>
																			<fielddominance>none</fielddominance>
																		</samplecharacteristics>
																	</video>
																	<audio>
																		<samplecharacteristics>
																			<depth>16</depth>
																			<samplerate>44100</samplerate>
																		</samplecharacteristics>
																		<channelcount>2</channelcount>
																	</audio>
																</media>
															</file>
															<filter>
																<effect>
																	<name>Basic Motion</name>
																	<effectid>basic</effectid>
																	<effectcategory>motion</effectcategory>
																	<effecttype>motion</effecttype>
																	<mediatype>video</mediatype>
																	<pproBypass>false</pproBypass>
																	<parameter authoringApp="PremierePro">
																		<parameterid>scale</parameterid>
																		<name>Scale</name>
																		<valuemin>0</valuemin>
																		<valuemax>1000</valuemax>
																		<value>117</value>
																	</parameter>
																	<parameter authoringApp="PremierePro">
																		<parameterid>rotation</parameterid>
																		<name>Rotation</name>
																		<valuemin>-8640</valuemin>
																		<valuemax>8640</valuemax>
																		<value>0</value>
																	</parameter>
																	<parameter authoringApp="PremierePro">
																		<parameterid>center</parameterid>
																		<name>Center</name>
																		<value>
																			<horiz>0</horiz>
																			<vert>0</vert>
																		</value>
																	</parameter>
																	<parameter authoringApp="PremierePro">
																		<parameterid>centerOffset</parameterid>
																		<name>Anchor Point</name>
																		<value>
																			<horiz>0</horiz>
																			<vert>0</vert>
																		</value>
																	</parameter>
																	<parameter authoringApp="PremierePro">
																		<parameterid>antiflicker</parameterid>
																		<name>Anti-flicker Filter</name>
																		<valuemin>0.0</valuemin>
																		<valuemax>1.0</valuemax>
																		<value>0</value>
																	</parameter>
																</effect>
															</filter>
															<logginginfo>
																<description></description>
																<scene></scene>
																<shottake></shottake>
																<lognote></lognote>
																<good></good>
																<originalvideofilename></originalvideofilename>
																<originalaudiofilename></originalaudiofilename>
															</logginginfo>
															<colorinfo>
																<lut></lut>
																<lut1></lut1>
																<asc_sop></asc_sop>
																<asc_sat></asc_sat>
																<lut2></lut2>
															</colorinfo>
															<labels>
																<label2>Violet</label2>
															</labels>
														</clipitem>
														<clipitem id="clipitem-550">
															<masterclipid>masterclip-215</masterclipid>
															<name>(Lindsay Grimes)_Creamy Crunchy Peanut Butter Bars (vegan + gluten free)_o8cpngk1u0w_YT.mp4</name>
															<enabled>TRUE</enabled>
															<duration>6513</duration>
															<rate>
																<timebase>30</timebase>
																<ntsc>TRUE</ntsc>
															</rate>
															<start>1499</start>
															<end>1554</end>
															<in>2246</in>
															<out>2301</out>
															<pproTicksIn>19036348531200</pproTicksIn>
															<pproTicksOut>19502510227200</pproTicksOut>
															<alphatype>none</alphatype>
															<pixelaspectratio>square</pixelaspectratio>
															<anamorphic>FALSE</anamorphic>
															<file id="file-185">
																<name>(Lindsay Grimes)_Creamy Crunchy Peanut Butter Bars (vegan + gluten free)_o8cpngk1u0w_YT.mp4</name>
																<pathurl>file://localhost/Volumes/ATM%201/EYE%20CANDY/8%3a14%3a23/3_Raw%20Files/snacks%20for%20a%20hike/(Lindsay%20Grimes)_Creamy%20Crunchy%20Peanut%20Butter%20Bars%20(vegan%20+%20gluten%20free)_o8cpngk1u0w_YT.mp4</pathurl>
																<rate>
																	<timebase>23</timebase>
																	<ntsc>FALSE</ntsc>
																</rate>
																<duration>5211</duration>
																<timecode>
																	<rate>
																		<timebase>23</timebase>
																		<ntsc>FALSE</ntsc>
																	</rate>
																	<string>00:00:00:00</string>
																	<frame>0</frame>
																	<displayformat>NDF</displayformat>
																</timecode>
																<media>
																	<video>
																		<samplecharacteristics>
																			<rate>
																				<timebase>23</timebase>
																				<ntsc>FALSE</ntsc>
																			</rate>
																			<width>1920</width>
																			<height>1080</height>
																			<anamorphic>FALSE</anamorphic>
																			<pixelaspectratio>square</pixelaspectratio>
																			<fielddominance>none</fielddominance>
																		</samplecharacteristics>
																	</video>
																	<audio>
																		<samplecharacteristics>
																			<depth>16</depth>
																			<samplerate>44100</samplerate>
																		</samplecharacteristics>
																		<channelcount>2</channelcount>
																	</audio>
																</media>
															</file>
															<logginginfo>
																<description>Creamy Crunchy Peanut Butter Bars (vegan + gluten free)</description>
																<scene></scene>
																<shottake></shottake>
																<lognote>https://www.youtube.com/watch?v=o8cpngk1u0w</lognote>
																<good></good>
																<originalvideofilename></originalvideofilename>
																<originalaudiofilename></originalaudiofilename>
															</logginginfo>
															<colorinfo>
																<lut></lut>
																<lut1></lut1>
																<asc_sop></asc_sop>
																<asc_sat></asc_sat>
																<lut2></lut2>
															</colorinfo>
															<labels>
																<label2>Violet</label2>
															</labels>
														</clipitem>
														<clipitem id="clipitem-551">
															<masterclipid>masterclip-215</masterclipid>
															<name>(Lindsay Grimes)_Creamy Crunchy Peanut Butter Bars (vegan + gluten free)_o8cpngk1u0w_YT.mp4</name>
															<enabled>TRUE</enabled>
															<duration>6513</duration>
															<rate>
																<timebase>30</timebase>
																<ntsc>TRUE</ntsc>
															</rate>
															<start>1554</start>
															<end>1613</end>
															<in>2808</in>
															<out>2867</out>
															<pproTicksIn>23799673497600</pproTicksIn>
															<pproTicksOut>24299737862400</pproTicksOut>
															<alphatype>none</alphatype>
															<file id="file-185"/>
															<logginginfo>
																<description>Creamy Crunchy Peanut Butter Bars (vegan + gluten free)</description>
																<scene></scene>
																<shottake></shottake>
																<lognote>https://www.youtube.com/watch?v=o8cpngk1u0w</lognote>
																<good></good>
																<originalvideofilename></originalvideofilename>
																<originalaudiofilename></originalaudiofilename>
															</logginginfo>
															<colorinfo>
																<lut></lut>
																<lut1></lut1>
																<asc_sop></asc_sop>
																<asc_sat></asc_sat>
																<lut2></lut2>
															</colorinfo>
															<labels>
																<label2>Violet</label2>
															</labels>
														</clipitem>
														<clipitem id="clipitem-552">
															<masterclipid>masterclip-215</masterclipid>
															<name>(Lindsay Grimes)_Creamy Crunchy Peanut Butter Bars (vegan + gluten free)_o8cpngk1u0w_YT.mp4</name>
															<enabled>TRUE</enabled>
															<duration>6513</duration>
															<rate>
																<timebase>30</timebase>
																<ntsc>TRUE</ntsc>
															</rate>
															<start>1613</start>
															<end>1665</end>
															<in>3035</in>
															<out>3087</out>
															<pproTicksIn>25723649952000</pproTicksIn>
															<pproTicksOut>26164384646400</pproTicksOut>
															<alphatype>none</alphatype>
															<file id="file-185"/>
															<logginginfo>
																<description>Creamy Crunchy Peanut Butter Bars (vegan + gluten free)</description>
																<scene></scene>
																<shottake></shottake>
																<lognote>https://www.youtube.com/watch?v=o8cpngk1u0w</lognote>
																<good></good>
																<originalvideofilename></originalvideofilename>
																<originalaudiofilename></originalaudiofilename>
															</logginginfo>
															<colorinfo>
																<lut></lut>
																<lut1></lut1>
																<asc_sop></asc_sop>
																<asc_sat></asc_sat>
																<lut2></lut2>
															</colorinfo>
															<labels>
																<label2>Violet</label2>
															</labels>
														</clipitem>
														<clipitem id="clipitem-553">
															<masterclipid>masterclip-215</masterclipid>
															<name>(Lindsay Grimes)_Creamy Crunchy Peanut Butter Bars (vegan + gluten free)_o8cpngk1u0w_YT.mp4</name>
															<enabled>TRUE</enabled>
															<duration>6513</duration>
															<rate>
																<timebase>30</timebase>
																<ntsc>TRUE</ntsc>
															</rate>
															<start>1665</start>
															<end>1753</end>
															<in>3316</in>
															<out>3404</out>
															<pproTicksIn>28105312435200</pproTicksIn>
															<pproTicksOut>28851171148800</pproTicksOut>
															<alphatype>none</alphatype>
															<file id="file-185"/>
															<logginginfo>
																<description>Creamy Crunchy Peanut Butter Bars (vegan + gluten free)</description>
																<scene></scene>
																<shottake></shottake>
																<lognote>https://www.youtube.com/watch?v=o8cpngk1u0w</lognote>
																<good></good>
																<originalvideofilename></originalvideofilename>
																<originalaudiofilename></originalaudiofilename>
															</logginginfo>
															<colorinfo>
																<lut></lut>
																<lut1></lut1>
																<asc_sop></asc_sop>
																<asc_sat></asc_sat>
																<lut2></lut2>
															</colorinfo>
															<labels>
																<label2>Violet</label2>
															</labels>
														</clipitem>
														<clipitem id="clipitem-554">
															<masterclipid>masterclip-215</masterclipid>
															<name>(Lindsay Grimes)_Creamy Crunchy Peanut Butter Bars (vegan + gluten free)_o8cpngk1u0w_YT.mp4</name>
															<enabled>TRUE</enabled>
															<duration>6513</duration>
															<rate>
																<timebase>30</timebase>
																<ntsc>TRUE</ntsc>
															</rate>
															<start>1753</start>
															<end>1840</end>
															<in>4092</in>
															<out>4179</out>
															<pproTicksIn>34682430182400</pproTicksIn>
															<pproTicksOut>35419813228800</pproTicksOut>
															<alphatype>none</alphatype>
															<file id="file-185"/>
															<logginginfo>
																<description>Creamy Crunchy Peanut Butter Bars (vegan + gluten free)</description>
																<scene></scene>
																<shottake></shottake>
																<lognote>https://www.youtube.com/watch?v=o8cpngk1u0w</lognote>
																<good></good>
																<originalvideofilename></originalvideofilename>
																<originalaudiofilename></originalaudiofilename>
															</logginginfo>
															<colorinfo>
																<lut></lut>
																<lut1></lut1>
																<asc_sop></asc_sop>
																<asc_sat></asc_sat>
																<lut2></lut2>
															</colorinfo>
															<labels>
																<label2>Violet</label2>
															</labels>
														</clipitem>
														<clipitem id="clipitem-555">
															<masterclipid>masterclip-215</masterclipid>
															<name>(Lindsay Grimes)_Creamy Crunchy Peanut Butter Bars (vegan + gluten free)_o8cpngk1u0w_YT.mp4</name>
															<enabled>TRUE</enabled>
															<duration>6513</duration>
															<rate>
																<timebase>30</timebase>
																<ntsc>TRUE</ntsc>
															</rate>
															<start>1840</start>
															<end>1876</end>
															<in>4588</in>
															<out>4624</out>
															<pproTicksIn>38886361113600</pproTicksIn>
															<pproTicksOut>39191485132800</pproTicksOut>
															<alphatype>none</alphatype>
															<file id="file-185"/>
															<logginginfo>
																<description>Creamy Crunchy Peanut Butter Bars (vegan + gluten free)</description>
																<scene></scene>
																<shottake></shottake>
																<lognote>https://www.youtube.com/watch?v=o8cpngk1u0w</lognote>
																<good></good>
																<originalvideofilename></originalvideofilename>
																<originalaudiofilename></originalaudiofilename>
															</logginginfo>
															<colorinfo>
																<lut></lut>
																<lut1></lut1>
																<asc_sop></asc_sop>
																<asc_sat></asc_sat>
																<lut2></lut2>
															</colorinfo>
															<labels>
																<label2>Violet</label2>
															</labels>
														</clipitem>
														<clipitem id="clipitem-556">
															<masterclipid>masterclip-215</masterclipid>
															<name>(Lindsay Grimes)_Creamy Crunchy Peanut Butter Bars (vegan + gluten free)_o8cpngk1u0w_YT.mp4</name>
															<enabled>TRUE</enabled>
															<duration>6513</duration>
															<rate>
																<timebase>30</timebase>
																<ntsc>TRUE</ntsc>
															</rate>
															<start>1876</start>
															<end>1914</end>
															<in>5187</in>
															<out>5225</out>
															<pproTicksIn>43963285766400</pproTicksIn>
															<pproTicksOut>44285361120000</pproTicksOut>
															<alphatype>none</alphatype>
															<file id="file-185"/>
															<logginginfo>
																<description>Creamy Crunchy Peanut Butter Bars (vegan + gluten free)</description>
																<scene></scene>
																<shottake></shottake>
																<lognote>https://www.youtube.com/watch?v=o8cpngk1u0w</lognote>
																<good></good>
																<originalvideofilename></originalvideofilename>
																<originalaudiofilename></originalaudiofilename>
															</logginginfo>
															<colorinfo>
																<lut></lut>
																<lut1></lut1>
																<asc_sop></asc_sop>
																<asc_sat></asc_sat>
																<lut2></lut2>
															</colorinfo>
															<labels>
																<label2>Violet</label2>
															</labels>
														</clipitem>
														<clipitem id="clipitem-557">
															<masterclipid>masterclip-215</masterclipid>
															<name>(Lindsay Grimes)_Creamy Crunchy Peanut Butter Bars (vegan + gluten free)_o8cpngk1u0w_YT.mp4</name>
															<enabled>TRUE</enabled>
															<duration>6513</duration>
															<rate>
																<timebase>30</timebase>
																<ntsc>TRUE</ntsc>
															</rate>
															<start>1914</start>
															<end>1943</end>
															<in>5255</in>
															<out>5284</out>
															<pproTicksIn>44539631136000</pproTicksIn>
															<pproTicksOut>44785425484800</pproTicksOut>
															<alphatype>none</alphatype>
															<file id="file-185"/>
															<logginginfo>
																<description>Creamy Crunchy Peanut Butter Bars (vegan + gluten free)</description>
																<scene></scene>
																<shottake></shottake>
																<lognote>https://www.youtube.com/watch?v=o8cpngk1u0w</lognote>
																<good></good>
																<originalvideofilename></originalvideofilename>
																<originalaudiofilename></originalaudiofilename>
															</logginginfo>
															<colorinfo>
																<lut></lut>
																<lut1></lut1>
																<asc_sop></asc_sop>
																<asc_sat></asc_sat>
																<lut2></lut2>
															</colorinfo>
															<labels>
																<label2>Violet</label2>
															</labels>
														</clipitem>
														<clipitem id="clipitem-558">
															<masterclipid>masterclip-215</masterclipid>
															<name>(Lindsay Grimes)_Creamy Crunchy Peanut Butter Bars (vegan + gluten free)_o8cpngk1u0w_YT.mp4</name>
															<enabled>TRUE</enabled>
															<duration>6513</duration>
															<rate>
																<timebase>30</timebase>
																<ntsc>TRUE</ntsc>
															</rate>
															<start>1943</start>
															<end>2015</end>
															<in>5829</in>
															<out>5901</out>
															<pproTicksIn>49404664108800</pproTicksIn>
															<pproTicksOut>50014912147200</pproTicksOut>
															<alphatype>none</alphatype>
															<file id="file-185"/>
															<logginginfo>
																<description>Creamy Crunchy Peanut Butter Bars (vegan + gluten free)</description>
																<scene></scene>
																<shottake></shottake>
																<lognote>https://www.youtube.com/watch?v=o8cpngk1u0w</lognote>
																<good></good>
																<originalvideofilename></originalvideofilename>
																<originalaudiofilename></originalaudiofilename>
															</logginginfo>
															<colorinfo>
																<lut></lut>
																<lut1></lut1>
																<asc_sop></asc_sop>
																<asc_sat></asc_sat>
																<lut2></lut2>
															</colorinfo>
															<labels>
																<label2>Violet</label2>
															</labels>
														</clipitem>
														<enabled>TRUE</enabled>
														<locked>FALSE</locked>
													</track>
													<track TL.SQTrackShy="0" TL.SQTrackExpandedHeight="25" TL.SQTrackExpanded="0" MZ.TrackTargeted="0">
														<clipitem id="clipitem-559">
															<masterclipid>masterclip-6</masterclipid>
															<name># Eyecandy Vertical Video Frame 4</name>
															<enabled>TRUE</enabled>
															<duration>5700</duration>
															<rate>
																<timebase>30</timebase>
																<ntsc>TRUE</ntsc>
															</rate>
															<start>0</start>
															<end>434</end>
															<in>106</in>
															<out>540</out>
															<pproTicksIn>898420723200</pproTicksIn>
															<pproTicksOut>4576860288000</pproTicksOut>
															<alphatype>straight</alphatype>
															<file id="file-5"/>
															<logginginfo>
																<description></description>
																<scene></scene>
																<shottake></shottake>
																<lognote></lognote>
																<good></good>
																<originalvideofilename></originalvideofilename>
																<originalaudiofilename></originalaudiofilename>
															</logginginfo>
															<colorinfo>
																<lut></lut>
																<lut1></lut1>
																<asc_sop></asc_sop>
																<asc_sat></asc_sat>
																<lut2></lut2>
															</colorinfo>
															<labels>
																<label2>Teal</label2>
															</labels>
														</clipitem>
														<clipitem id="clipitem-560">
															<masterclipid>masterclip-6</masterclipid>
															<name># Eyecandy Vertical Video Frame 4</name>
															<enabled>TRUE</enabled>
															<duration>5700</duration>
															<rate>
																<timebase>30</timebase>
																<ntsc>TRUE</ntsc>
															</rate>
															<start>434</start>
															<end>977</end>
															<in>540</in>
															<out>1083</out>
															<pproTicksIn>4576860288000</pproTicksIn>
															<pproTicksOut>9179147577600</pproTicksOut>
															<alphatype>straight</alphatype>
															<file id="file-5"/>
															<logginginfo>
																<description></description>
																<scene></scene>
																<shottake></shottake>
																<lognote></lognote>
																<good></good>
																<originalvideofilename></originalvideofilename>
																<originalaudiofilename></originalaudiofilename>
															</logginginfo>
															<colorinfo>
																<lut></lut>
																<lut1></lut1>
																<asc_sop></asc_sop>
																<asc_sat></asc_sat>
																<lut2></lut2>
															</colorinfo>
															<labels>
																<label2>Teal</label2>
															</labels>
														</clipitem>
														<clipitem id="clipitem-561">
															<masterclipid>masterclip-6</masterclipid>
															<name># Eyecandy Vertical Video Frame 4</name>
															<enabled>TRUE</enabled>
															<duration>5700</duration>
															<rate>
																<timebase>30</timebase>
																<ntsc>TRUE</ntsc>
															</rate>
															<start>977</start>
															<end>1499</end>
															<in>1083</in>
															<out>1605</out>
															<pproTicksIn>9179147577600</pproTicksIn>
															<pproTicksOut>13603445856000</pproTicksOut>
															<alphatype>straight</alphatype>
															<file id="file-5"/>
															<logginginfo>
																<description></description>
																<scene></scene>
																<shottake></shottake>
																<lognote></lognote>
																<good></good>
																<originalvideofilename></originalvideofilename>
																<originalaudiofilename></originalaudiofilename>
															</logginginfo>
															<colorinfo>
																<lut></lut>
																<lut1></lut1>
																<asc_sop></asc_sop>
																<asc_sat></asc_sat>
																<lut2></lut2>
															</colorinfo>
															<labels>
																<label2>Teal</label2>
															</labels>
														</clipitem>
														<clipitem id="clipitem-562">
															<masterclipid>masterclip-216</masterclipid>
															<name>Lindsay Grimes</name>
															<enabled>TRUE</enabled>
															<duration>5844</duration>
															<rate>
																<timebase>30</timebase>
																<ntsc>TRUE</ntsc>
															</rate>
															<start>1499</start>
															<end>2016</end>
															<in>3</in>
															<out>520</out>
															<pproTicksIn>25427001600</pproTicksIn>
															<pproTicksOut>4407346944000</pproTicksOut>
															<alphatype>straight</alphatype>
															<pixelaspectratio>square</pixelaspectratio>
															<anamorphic>FALSE</anamorphic>
															<file id="file-186">
																<name>1080/AE Attribution.aep</name>
																<pathurl>file://localhost/Volumes/ATM%201/EYE%20CANDY/Project%20Template/5_Assets/AE%20Attribution.aep</pathurl>
																<rate>
																	<timebase>30</timebase>
																	<ntsc>TRUE</ntsc>
																</rate>
																<duration>5844</duration>
																<timecode>
																	<rate>
																		<timebase>30</timebase>
																		<ntsc>TRUE</ntsc>
																	</rate>
																	<string>00;00;00;00</string>
																	<frame>0</frame>
																	<displayformat>DF</displayformat>
																</timecode>
																<media>
																	<video>
																		<samplecharacteristics>
																			<rate>
																				<timebase>30</timebase>
																				<ntsc>TRUE</ntsc>
																			</rate>
																			<width>1920</width>
																			<height>1080</height>
																			<anamorphic>FALSE</anamorphic>
																			<pixelaspectratio>square</pixelaspectratio>
																			<fielddominance>lower</fielddominance>
																		</samplecharacteristics>
																	</video>
																</media>
															</file>
															<logginginfo>
																<description></description>
																<scene></scene>
																<shottake></shottake>
																<lognote></lognote>
																<good></good>
																<originalvideofilename></originalvideofilename>
																<originalaudiofilename></originalaudiofilename>
															</logginginfo>
															<colorinfo>
																<lut></lut>
																<lut1></lut1>
																<asc_sop></asc_sop>
																<asc_sat></asc_sat>
																<lut2></lut2>
															</colorinfo>
															<labels>
																<label2>Rose</label2>
															</labels>
														</clipitem>
														<enabled>TRUE</enabled>
														<locked>FALSE</locked>
													</track>
													<track TL.SQTrackShy="0" TL.SQTrackExpandedHeight="25" TL.SQTrackExpanded="0" MZ.TrackTargeted="0">
														<enabled>TRUE</enabled>
														<locked>FALSE</locked>
													</track>
													<track TL.SQTrackShy="0" TL.SQTrackExpandedHeight="25" TL.SQTrackExpanded="0" MZ.TrackTargeted="0">
														<enabled>TRUE</enabled>
														<locked>FALSE</locked>
													</track>
													<track TL.SQTrackShy="0" TL.SQTrackExpandedHeight="25" TL.SQTrackExpanded="0" MZ.TrackTargeted="0">
														<enabled>TRUE</enabled>
														<locked>FALSE</locked>
													</track>
													<track TL.SQTrackShy="0" TL.SQTrackExpandedHeight="25" TL.SQTrackExpanded="0" MZ.TrackTargeted="0">
														<enabled>TRUE</enabled>
														<locked>FALSE</locked>
													</track>
													<track TL.SQTrackShy="0" TL.SQTrackExpandedHeight="25" TL.SQTrackExpanded="0" MZ.TrackTargeted="0">
														<enabled>TRUE</enabled>
														<locked>FALSE</locked>
													</track>
													<track TL.SQTrackShy="0" TL.SQTrackExpandedHeight="25" TL.SQTrackExpanded="0" MZ.TrackTargeted="0">
														<enabled>TRUE</enabled>
														<locked>FALSE</locked>
													</track>
													<track TL.SQTrackShy="0" TL.SQTrackExpandedHeight="25" TL.SQTrackExpanded="0" MZ.TrackTargeted="0">
														<enabled>TRUE</enabled>
														<locked>FALSE</locked>
													</track>
													<track TL.SQTrackShy="0" TL.SQTrackExpandedHeight="25" TL.SQTrackExpanded="0" MZ.TrackTargeted="0">
														<enabled>TRUE</enabled>
														<locked>FALSE</locked>
													</track>
												</video>
												<audio>
													<numOutputChannels>2</numOutputChannels>
													<format>
														<samplecharacteristics>
															<depth>16</depth>
															<samplerate>48000</samplerate>
														</samplecharacteristics>
													</format>
													<outputs>
														<group>
															<index>1</index>
															<numchannels>1</numchannels>
															<downmix>0</downmix>
															<channel>
																<index>1</index>
															</channel>
														</group>
														<group>
															<index>2</index>
															<numchannels>1</numchannels>
															<downmix>0</downmix>
															<channel>
																<index>2</index>
															</channel>
														</group>
													</outputs>
													<track TL.SQTrackAudioKeyframeStyle="0" TL.SQTrackShy="0" TL.SQTrackExpandedHeight="25" TL.SQTrackExpanded="0" MZ.TrackTargeted="1" PannerCurrentValue="0.5" PannerIsInverted="true" PannerStartKeyframe="-91445760000000000,0.5,0,0,0,0,0,0" PannerName="Balance" currentExplodedTrackIndex="0" totalExplodedTrackCount="2" premiereTrackType="Stereo">
														<clipitem id="clipitem-563" premiereChannelType="stereo">
															<masterclipid>masterclip-217</masterclipid>
															<name>ES_Misty K-pop Night - Rymdklang Soundtracks.mp3</name>
															<enabled>TRUE</enabled>
															<duration>7358</duration>
															<rate>
																<timebase>30</timebase>
																<ntsc>TRUE</ntsc>
															</rate>
															<start>0</start>
															<end>2016</end>
															<in>0</in>
															<out>2016</out>
															<pproTicksIn>0</pproTicksIn>
															<pproTicksOut>17086945075200</pproTicksOut>
															<file id="file-187">
																<name>ES_Misty K-pop Night - Rymdklang Soundtracks.mp3</name>
																<pathurl>file://localhost/Volumes/CONTENT/VOD%20CONTENT%20ARCHIVE/O&amp;O%20Archive%202023/Eye%20Candy/8%3a14%3a23/4_Project%20Files/Adobe%20Premiere%20Pro%20Video%20Previews/8%3a14%3a23.PRV/../../../3_Raw%20Files/Artlist%20-%20Chocolate%20Pistachio%20Treat/../../5_Assets/Music/ES_Misty%20K-pop%20Night%20-%20Rymdklang%20Soundtracks.mp3</pathurl>
																<rate>
																	<timebase>30</timebase>
																	<ntsc>TRUE</ntsc>
																</rate>
																<duration>7358</duration>
																<timecode>
																	<rate>
																		<timebase>30</timebase>
																		<ntsc>TRUE</ntsc>
																	</rate>
																	<string>00;00;00;00</string>
																	<frame>0</frame>
																	<displayformat>DF</displayformat>
																</timecode>
																<media>
																	<audio>
																		<samplecharacteristics>
																			<depth>16</depth>
																			<samplerate>48000</samplerate>
																		</samplecharacteristics>
																		<channelcount>2</channelcount>
																	</audio>
																</media>
															</file>
															<sourcetrack>
																<mediatype>audio</mediatype>
																<trackindex>1</trackindex>
															</sourcetrack>
															<link>
																<linkclipref>clipitem-563</linkclipref>
																<mediatype>audio</mediatype>
																<trackindex>1</trackindex>
																<clipindex>1</clipindex>
																<groupindex>1</groupindex>
															</link>
															<link>
																<linkclipref>clipitem-564</linkclipref>
																<mediatype>audio</mediatype>
																<trackindex>2</trackindex>
																<clipindex>1</clipindex>
																<groupindex>1</groupindex>
															</link>
															<logginginfo>
																<description></description>
																<scene></scene>
																<shottake></shottake>
																<lognote></lognote>
																<good></good>
																<originalvideofilename></originalvideofilename>
																<originalaudiofilename></originalaudiofilename>
															</logginginfo>
															<colorinfo>
																<lut></lut>
																<lut1></lut1>
																<asc_sop></asc_sop>
																<asc_sat></asc_sat>
																<lut2></lut2>
															</colorinfo>
															<labels>
																<label2>Caribbean</label2>
															</labels>
														</clipitem>
														<enabled>TRUE</enabled>
														<locked>FALSE</locked>
														<filter>
															<effect>
																<name>Audio Levels</name>
																<effectid>audiolevels</effectid>
																<effectcategory>audiolevels</effectcategory>
																<effecttype>audiolevels</effecttype>
																<mediatype>audio</mediatype>
																<parameter authoringApp="PremierePro">
																	<parameterid>level</parameterid>
																	<name>Level</name>
																	<valuemin>0</valuemin>
																	<valuemax>3.98109</valuemax>
																	<value>0.706272</value>
																</parameter>
															</effect>
														</filter>
														<outputchannelindex>1</outputchannelindex>
													</track>
													<track TL.SQTrackAudioKeyframeStyle="0" TL.SQTrackShy="0" TL.SQTrackExpandedHeight="25" TL.SQTrackExpanded="0" MZ.TrackTargeted="1" PannerCurrentValue="0.5" PannerIsInverted="true" PannerStartKeyframe="-91445760000000000,0.5,0,0,0,0,0,0" PannerName="Balance" currentExplodedTrackIndex="1" totalExplodedTrackCount="2" premiereTrackType="Stereo">
														<clipitem id="clipitem-564" premiereChannelType="stereo">
															<masterclipid>masterclip-217</masterclipid>
															<name>ES_Misty K-pop Night - Rymdklang Soundtracks.mp3</name>
															<enabled>TRUE</enabled>
															<duration>7358</duration>
															<rate>
																<timebase>30</timebase>
																<ntsc>TRUE</ntsc>
															</rate>
															<start>0</start>
															<end>2016</end>
															<in>0</in>
															<out>2016</out>
															<pproTicksIn>0</pproTicksIn>
															<pproTicksOut>17086945075200</pproTicksOut>
															<file id="file-187"/>
															<sourcetrack>
																<mediatype>audio</mediatype>
																<trackindex>2</trackindex>
															</sourcetrack>
															<link>
																<linkclipref>clipitem-563</linkclipref>
																<mediatype>audio</mediatype>
																<trackindex>1</trackindex>
																<clipindex>1</clipindex>
																<groupindex>1</groupindex>
															</link>
															<link>
																<linkclipref>clipitem-564</linkclipref>
																<mediatype>audio</mediatype>
																<trackindex>2</trackindex>
																<clipindex>1</clipindex>
																<groupindex>1</groupindex>
															</link>
															<logginginfo>
																<description></description>
																<scene></scene>
																<shottake></shottake>
																<lognote></lognote>
																<good></good>
																<originalvideofilename></originalvideofilename>
																<originalaudiofilename></originalaudiofilename>
															</logginginfo>
															<colorinfo>
																<lut></lut>
																<lut1></lut1>
																<asc_sop></asc_sop>
																<asc_sat></asc_sat>
																<lut2></lut2>
															</colorinfo>
															<labels>
																<label2>Caribbean</label2>
															</labels>
														</clipitem>
														<enabled>TRUE</enabled>
														<locked>FALSE</locked>
														<filter>
															<effect>
																<name>Audio Levels</name>
																<effectid>audiolevels</effectid>
																<effectcategory>audiolevels</effectcategory>
																<effecttype>audiolevels</effecttype>
																<mediatype>audio</mediatype>
																<parameter authoringApp="PremierePro">
																	<parameterid>level</parameterid>
																	<name>Level</name>
																	<valuemin>0</valuemin>
																	<valuemax>3.98109</valuemax>
																	<value>0.706272</value>
																</parameter>
															</effect>
														</filter>
														<outputchannelindex>2</outputchannelindex>
													</track>
													<track TL.SQTrackAudioKeyframeStyle="0" TL.SQTrackShy="0" TL.SQTrackExpandedHeight="25" TL.SQTrackExpanded="0" MZ.TrackTargeted="0" PannerCurrentValue="0.5" PannerIsInverted="true" PannerStartKeyframe="-91445760000000000,0.5,0,0,0,0,0,0" PannerName="Balance" currentExplodedTrackIndex="0" totalExplodedTrackCount="2" premiereTrackType="Stereo">
														<enabled>TRUE</enabled>
														<locked>FALSE</locked>
														<outputchannelindex>1</outputchannelindex>
													</track>
													<track TL.SQTrackAudioKeyframeStyle="0" TL.SQTrackShy="0" TL.SQTrackExpandedHeight="25" TL.SQTrackExpanded="0" MZ.TrackTargeted="0" PannerCurrentValue="0.5" PannerIsInverted="true" PannerStartKeyframe="-91445760000000000,0.5,0,0,0,0,0,0" PannerName="Balance" currentExplodedTrackIndex="1" totalExplodedTrackCount="2" premiereTrackType="Stereo">
														<enabled>TRUE</enabled>
														<locked>FALSE</locked>
														<outputchannelindex>2</outputchannelindex>
													</track>
													<track TL.SQTrackAudioKeyframeStyle="0" TL.SQTrackShy="0" TL.SQTrackExpandedHeight="25" TL.SQTrackExpanded="0" MZ.TrackTargeted="0" PannerCurrentValue="0.5" PannerIsInverted="true" PannerStartKeyframe="-91445760000000000,0.5,0,0,0,0,0,0" PannerName="Balance" currentExplodedTrackIndex="0" totalExplodedTrackCount="2" premiereTrackType="Stereo">
														<enabled>TRUE</enabled>
														<locked>FALSE</locked>
														<outputchannelindex>1</outputchannelindex>
													</track>
													<track TL.SQTrackAudioKeyframeStyle="0" TL.SQTrackShy="0" TL.SQTrackExpandedHeight="25" TL.SQTrackExpanded="0" MZ.TrackTargeted="0" PannerCurrentValue="0.5" PannerIsInverted="true" PannerStartKeyframe="-91445760000000000,0.5,0,0,0,0,0,0" PannerName="Balance" currentExplodedTrackIndex="1" totalExplodedTrackCount="2" premiereTrackType="Stereo">
														<enabled>TRUE</enabled>
														<locked>FALSE</locked>
														<outputchannelindex>2</outputchannelindex>
													</track>
													<track TL.SQTrackAudioKeyframeStyle="0" TL.SQTrackShy="0" TL.SQTrackExpandedHeight="25" TL.SQTrackExpanded="0" MZ.TrackTargeted="0" PannerCurrentValue="0.5" PannerIsInverted="true" PannerStartKeyframe="-91445760000000000,0.5,0,0,0,0,0,0" PannerName="Balance" currentExplodedTrackIndex="0" totalExplodedTrackCount="2" premiereTrackType="Stereo">
														<enabled>TRUE</enabled>
														<locked>FALSE</locked>
														<outputchannelindex>1</outputchannelindex>
													</track>
													<track TL.SQTrackAudioKeyframeStyle="0" TL.SQTrackShy="0" TL.SQTrackExpandedHeight="25" TL.SQTrackExpanded="0" MZ.TrackTargeted="0" PannerCurrentValue="0.5" PannerIsInverted="true" PannerStartKeyframe="-91445760000000000,0.5,0,0,0,0,0,0" PannerName="Balance" currentExplodedTrackIndex="1" totalExplodedTrackCount="2" premiereTrackType="Stereo">
														<enabled>TRUE</enabled>
														<locked>FALSE</locked>
														<outputchannelindex>2</outputchannelindex>
													</track>
													<track TL.SQTrackAudioKeyframeStyle="0" TL.SQTrackShy="0" TL.SQTrackExpandedHeight="25" TL.SQTrackExpanded="0" MZ.TrackTargeted="0" PannerCurrentValue="0.5" PannerIsInverted="true" PannerStartKeyframe="-91445760000000000,0.5,0,0,0,0,0,0" PannerName="Balance" currentExplodedTrackIndex="0" totalExplodedTrackCount="2" premiereTrackType="Stereo">
														<enabled>TRUE</enabled>
														<locked>FALSE</locked>
														<outputchannelindex>1</outputchannelindex>
													</track>
													<track TL.SQTrackAudioKeyframeStyle="0" TL.SQTrackShy="0" TL.SQTrackExpandedHeight="25" TL.SQTrackExpanded="0" MZ.TrackTargeted="0" PannerCurrentValue="0.5" PannerIsInverted="true" PannerStartKeyframe="-91445760000000000,0.5,0,0,0,0,0,0" PannerName="Balance" currentExplodedTrackIndex="1" totalExplodedTrackCount="2" premiereTrackType="Stereo">
														<enabled>TRUE</enabled>
														<locked>FALSE</locked>
														<outputchannelindex>2</outputchannelindex>
													</track>
													<track TL.SQTrackAudioKeyframeStyle="0" TL.SQTrackShy="0" TL.SQTrackExpandedHeight="25" TL.SQTrackExpanded="0" MZ.TrackTargeted="0" PannerCurrentValue="0.5" PannerIsInverted="true" PannerStartKeyframe="-91445760000000000,0.5,0,0,0,0,0,0" PannerName="Balance" currentExplodedTrackIndex="0" totalExplodedTrackCount="2" premiereTrackType="Stereo">
														<enabled>TRUE</enabled>
														<locked>FALSE</locked>
														<outputchannelindex>1</outputchannelindex>
													</track>
													<track TL.SQTrackAudioKeyframeStyle="0" TL.SQTrackShy="0" TL.SQTrackExpandedHeight="25" TL.SQTrackExpanded="0" MZ.TrackTargeted="0" PannerCurrentValue="0.5" PannerIsInverted="true" PannerStartKeyframe="-91445760000000000,0.5,0,0,0,0,0,0" PannerName="Balance" currentExplodedTrackIndex="1" totalExplodedTrackCount="2" premiereTrackType="Stereo">
														<enabled>TRUE</enabled>
														<locked>FALSE</locked>
														<outputchannelindex>2</outputchannelindex>
													</track>
													<track TL.SQTrackAudioKeyframeStyle="0" TL.SQTrackShy="0" TL.SQTrackExpandedHeight="25" TL.SQTrackExpanded="0" MZ.TrackTargeted="0" PannerCurrentValue="0.5" PannerIsInverted="true" PannerStartKeyframe="-91445760000000000,0.5,0,0,0,0,0,0" PannerName="Balance" currentExplodedTrackIndex="0" totalExplodedTrackCount="2" premiereTrackType="Stereo">
														<enabled>TRUE</enabled>
														<locked>FALSE</locked>
														<outputchannelindex>1</outputchannelindex>
													</track>
													<track TL.SQTrackAudioKeyframeStyle="0" TL.SQTrackShy="0" TL.SQTrackExpandedHeight="25" TL.SQTrackExpanded="0" MZ.TrackTargeted="0" PannerCurrentValue="0.5" PannerIsInverted="true" PannerStartKeyframe="-91445760000000000,0.5,0,0,0,0,0,0" PannerName="Balance" currentExplodedTrackIndex="1" totalExplodedTrackCount="2" premiereTrackType="Stereo">
														<enabled>TRUE</enabled>
														<locked>FALSE</locked>
														<outputchannelindex>2</outputchannelindex>
													</track>
													<track TL.SQTrackAudioKeyframeStyle="0" TL.SQTrackShy="0" TL.SQTrackExpandedHeight="25" TL.SQTrackExpanded="0" MZ.TrackTargeted="0" PannerCurrentValue="0.5" PannerIsInverted="true" PannerStartKeyframe="-91445760000000000,0.5,0,0,0,0,0,0" PannerName="Balance" currentExplodedTrackIndex="0" totalExplodedTrackCount="2" premiereTrackType="Stereo">
														<enabled>TRUE</enabled>
														<locked>FALSE</locked>
														<outputchannelindex>1</outputchannelindex>
													</track>
													<track TL.SQTrackAudioKeyframeStyle="0" TL.SQTrackShy="0" TL.SQTrackExpandedHeight="25" TL.SQTrackExpanded="0" MZ.TrackTargeted="0" PannerCurrentValue="0.5" PannerIsInverted="true" PannerStartKeyframe="-91445760000000000,0.5,0,0,0,0,0,0" PannerName="Balance" currentExplodedTrackIndex="1" totalExplodedTrackCount="2" premiereTrackType="Stereo">
														<enabled>TRUE</enabled>
														<locked>FALSE</locked>
														<outputchannelindex>2</outputchannelindex>
													</track>
													<track TL.SQTrackAudioKeyframeStyle="0" TL.SQTrackShy="0" TL.SQTrackExpandedHeight="25" TL.SQTrackExpanded="0" MZ.TrackTargeted="0" PannerCurrentValue="0.5" PannerIsInverted="true" PannerStartKeyframe="-91445760000000000,0.5,0,0,0,0,0,0" PannerName="Balance" currentExplodedTrackIndex="0" totalExplodedTrackCount="2" premiereTrackType="Stereo">
														<enabled>TRUE</enabled>
														<locked>FALSE</locked>
														<outputchannelindex>1</outputchannelindex>
													</track>
													<track TL.SQTrackAudioKeyframeStyle="0" TL.SQTrackShy="0" TL.SQTrackExpandedHeight="25" TL.SQTrackExpanded="0" MZ.TrackTargeted="0" PannerCurrentValue="0.5" PannerIsInverted="true" PannerStartKeyframe="-91445760000000000,0.5,0,0,0,0,0,0" PannerName="Balance" currentExplodedTrackIndex="1" totalExplodedTrackCount="2" premiereTrackType="Stereo">
														<enabled>TRUE</enabled>
														<locked>FALSE</locked>
														<outputchannelindex>2</outputchannelindex>
													</track>
													<track TL.SQTrackAudioKeyframeStyle="0" TL.SQTrackShy="0" TL.SQTrackExpandedHeight="25" TL.SQTrackExpanded="0" MZ.TrackTargeted="0" PannerCurrentValue="0.5" PannerIsInverted="true" PannerStartKeyframe="-91445760000000000,0.5,0,0,0,0,0,0" PannerName="Balance" currentExplodedTrackIndex="0" totalExplodedTrackCount="2" premiereTrackType="Stereo">
														<enabled>TRUE</enabled>
														<locked>FALSE</locked>
														<outputchannelindex>1</outputchannelindex>
													</track>
													<track TL.SQTrackAudioKeyframeStyle="0" TL.SQTrackShy="0" TL.SQTrackExpandedHeight="25" TL.SQTrackExpanded="0" MZ.TrackTargeted="0" PannerCurrentValue="0.5" PannerIsInverted="true" PannerStartKeyframe="-91445760000000000,0.5,0,0,0,0,0,0" PannerName="Balance" currentExplodedTrackIndex="1" totalExplodedTrackCount="2" premiereTrackType="Stereo">
														<enabled>TRUE</enabled>
														<locked>FALSE</locked>
														<outputchannelindex>2</outputchannelindex>
													</track>
												</audio>
											</media>
											<timecode>
												<rate>
													<timebase>30</timebase>
													<ntsc>TRUE</ntsc>
												</rate>
												<string>00;00;00;00</string>
												<frame>0</frame>
												<displayformat>DF</displayformat>
											</timecode>
											<logginginfo>
												<description></description>
												<scene></scene>
												<shottake></shottake>
												<lognote></lognote>
												<good></good>
												<originalvideofilename></originalvideofilename>
												<originalaudiofilename></originalaudiofilename>
											</logginginfo>
										</sequence>
										<link>
											<linkclipref>clipitem-540</linkclipref>
											<mediatype>video</mediatype>
											<trackindex>1</trackindex>
											<clipindex>2</clipindex>
										</link>
										<link>
											<linkclipref>clipitem-572</linkclipref>
											<mediatype>audio</mediatype>
											<trackindex>1</trackindex>
											<clipindex>3</clipindex>
											<groupindex>1</groupindex>
										</link>
										<link>
											<linkclipref>clipitem-574</linkclipref>
											<mediatype>audio</mediatype>
											<trackindex>2</trackindex>
											<clipindex>3</clipindex>
											<groupindex>1</groupindex>
										</link>
										<labels>
											<label2>Forest</label2>
										</labels>
									</clipitem>
									<enabled>TRUE</enabled>
									<locked>FALSE</locked>
								</track>
								<track TL.SQTrackShy="0" TL.SQTrackExpandedHeight="25" TL.SQTrackExpanded="0" MZ.TrackTargeted="0">
									<clipitem id="clipitem-565">
										<masterclipid>masterclip-16</masterclipid>
										<name>ATM BUG_1080_Top Right.png</name>
										<enabled>TRUE</enabled>
										<duration>1294705</duration>
										<rate>
											<timebase>30</timebase>
											<ntsc>TRUE</ntsc>
										</rate>
										<start>82</start>
										<end>5283</end>
										<in>107892</in>
										<out>113093</out>
										<pproTicksIn>914456685542400</pproTicksIn>
										<pproTicksOut>958538630649600</pproTicksOut>
										<alphatype>straight</alphatype>
										<file id="file-14"/>
										<logginginfo>
											<description></description>
											<scene></scene>
											<shottake></shottake>
											<lognote></lognote>
											<good></good>
											<originalvideofilename></originalvideofilename>
											<originalaudiofilename></originalaudiofilename>
										</logginginfo>
										<colorinfo>
											<lut></lut>
											<lut1></lut1>
											<asc_sop></asc_sop>
											<asc_sat></asc_sat>
											<lut2></lut2>
										</colorinfo>
										<labels>
										</labels>
									</clipitem>
									<enabled>TRUE</enabled>
									<locked>FALSE</locked>
								</track>
								<track TL.SQTrackShy="0" TL.SQTrackExpandedHeight="25" TL.SQTrackExpanded="0" MZ.TrackTargeted="0">
									<clipitem id="clipitem-566">
										<masterclipid>masterclip-218</masterclipid>
										<name>Teriffic Tiramisu Pancakes</name>
										<enabled>TRUE</enabled>
										<duration>6293</duration>
										<rate>
											<timebase>30</timebase>
											<ntsc>TRUE</ntsc>
										</rate>
										<start>115</start>
										<end>3267</end>
										<in>30</in>
										<out>3182</out>
										<pproTicksIn>254270016000</pproTicksIn>
										<pproTicksOut>26969573030400</pproTicksOut>
										<alphatype>straight</alphatype>
										<pixelaspectratio>square</pixelaspectratio>
										<anamorphic>FALSE</anamorphic>
										<file id="file-188">
											<name>EYECANDY_L3RD_JL_V03/EYECANDY_L3rd_JL_V04.aep</name>
											<pathurl>file://localhost/Volumes/ATM%201/EYE%20CANDY/Project%20Template/5_Assets/Eye%20Candy%20Mograph/EYECANDY_L3rd_JL_V04%20folder/EYECANDY_L3rd_JL_V04.aep</pathurl>
											<rate>
												<timebase>30</timebase>
												<ntsc>FALSE</ntsc>
											</rate>
											<duration>6300</duration>
											<timecode>
												<rate>
													<timebase>30</timebase>
													<ntsc>FALSE</ntsc>
												</rate>
												<string>00:00:00:00</string>
												<frame>0</frame>
												<displayformat>NDF</displayformat>
											</timecode>
											<media>
												<video>
													<samplecharacteristics>
														<rate>
															<timebase>30</timebase>
															<ntsc>FALSE</ntsc>
														</rate>
														<width>1920</width>
														<height>1080</height>
														<anamorphic>FALSE</anamorphic>
														<pixelaspectratio>square</pixelaspectratio>
														<fielddominance>lower</fielddominance>
													</samplecharacteristics>
												</video>
											</media>
										</file>
										<logginginfo>
											<description></description>
											<scene></scene>
											<shottake></shottake>
											<lognote></lognote>
											<good></good>
											<originalvideofilename></originalvideofilename>
											<originalaudiofilename></originalaudiofilename>
										</logginginfo>
										<colorinfo>
											<lut></lut>
											<lut1></lut1>
											<asc_sop></asc_sop>
											<asc_sat></asc_sat>
											<lut2></lut2>
										</colorinfo>
									</clipitem>
									<clipitem id="clipitem-567">
										<masterclipid>masterclip-219</masterclipid>
										<name>Snacks for A Hike</name>
										<enabled>TRUE</enabled>
										<duration>6293</duration>
										<rate>
											<timebase>30</timebase>
											<ntsc>TRUE</ntsc>
										</rate>
										<start>3332</start>
										<end>5283</end>
										<in>30</in>
										<out>1981</out>
										<pproTicksIn>254270016000</pproTicksIn>
										<pproTicksOut>16790296723200</pproTicksOut>
										<alphatype>straight</alphatype>
										<pixelaspectratio>square</pixelaspectratio>
										<anamorphic>FALSE</anamorphic>
										<file id="file-189">
											<name>EYECANDY_L3RD_JL_V03/EYECANDY_L3rd_JL_V04.aep</name>
											<pathurl>file://localhost/Volumes/ATM%201/EYE%20CANDY/Project%20Template/5_Assets/Eye%20Candy%20Mograph/EYECANDY_L3rd_JL_V04%20folder/EYECANDY_L3rd_JL_V04.aep</pathurl>
											<rate>
												<timebase>30</timebase>
												<ntsc>FALSE</ntsc>
											</rate>
											<duration>6300</duration>
											<timecode>
												<rate>
													<timebase>30</timebase>
													<ntsc>FALSE</ntsc>
												</rate>
												<string>00:00:00:00</string>
												<frame>0</frame>
												<displayformat>NDF</displayformat>
											</timecode>
											<media>
												<video>
													<samplecharacteristics>
														<rate>
															<timebase>30</timebase>
															<ntsc>FALSE</ntsc>
														</rate>
														<width>1920</width>
														<height>1080</height>
														<anamorphic>FALSE</anamorphic>
														<pixelaspectratio>square</pixelaspectratio>
														<fielddominance>lower</fielddominance>
													</samplecharacteristics>
												</video>
											</media>
										</file>
										<logginginfo>
											<description></description>
											<scene></scene>
											<shottake></shottake>
											<lognote></lognote>
											<good></good>
											<originalvideofilename></originalvideofilename>
											<originalaudiofilename></originalaudiofilename>
										</logginginfo>
										<colorinfo>
											<lut></lut>
											<lut1></lut1>
											<asc_sop></asc_sop>
											<asc_sat></asc_sat>
											<lut2></lut2>
										</colorinfo>
									</clipitem>
									<enabled>TRUE</enabled>
									<locked>FALSE</locked>
								</track>
								<track TL.SQTrackShy="0" TL.SQTrackExpandedHeight="25" TL.SQTrackExpanded="0" MZ.TrackTargeted="0">
									<clipitem id="clipitem-568">
										<masterclipid>masterclip-19</masterclipid>
										<name>Intro</name>
										<enabled>TRUE</enabled>
										<duration>160</duration>
										<rate>
											<timebase>30</timebase>
											<ntsc>TRUE</ntsc>
										</rate>
										<start>0</start>
										<end>115</end>
										<in>0</in>
										<out>115</out>
										<pproTicksIn>0</pproTicksIn>
										<pproTicksOut>974701728000</pproTicksOut>
										<sequence id="sequence-4"/>
											<marker>
												<comment></comment>
												<name></name>
												<in>82</in>
												<out>-1</out>
											</marker>
										<link>
											<linkclipref>clipitem-568</linkclipref>
											<mediatype>video</mediatype>
											<trackindex>4</trackindex>
											<clipindex>1</clipindex>
										</link>
										<link>
											<linkclipref>clipitem-575</linkclipref>
											<mediatype>audio</mediatype>
											<trackindex>3</trackindex>
											<clipindex>1</clipindex>
											<groupindex>1</groupindex>
										</link>
										<link>
											<linkclipref>clipitem-578</linkclipref>
											<mediatype>audio</mediatype>
											<trackindex>4</trackindex>
											<clipindex>1</clipindex>
											<groupindex>1</groupindex>
										</link>
										<labels>
											<label2>Forest</label2>
										</labels>
									</clipitem>
									<clipitem id="clipitem-569">
										<masterclipid>masterclip-21</masterclipid>
										<name>Transition 2</name>
										<enabled>TRUE</enabled>
										<duration>160</duration>
										<rate>
											<timebase>30</timebase>
											<ntsc>TRUE</ntsc>
										</rate>
										<start>3213</start>
										<end>3332</end>
										<in>0</in>
										<out>119</out>
										<pproTicksIn>0</pproTicksIn>
										<pproTicksOut>1008604396800</pproTicksOut>
										<sequence id="sequence-5"/>
											<marker>
												<comment></comment>
												<name></name>
												<in>54</in>
												<out>-1</out>
											</marker>
											<marker>
												<comment></comment>
												<name></name>
												<in>20</in>
												<out>-1</out>
											</marker>
										<link>
											<linkclipref>clipitem-569</linkclipref>
											<mediatype>video</mediatype>
											<trackindex>4</trackindex>
											<clipindex>2</clipindex>
										</link>
										<link>
											<linkclipref>clipitem-576</linkclipref>
											<mediatype>audio</mediatype>
											<trackindex>3</trackindex>
											<clipindex>2</clipindex>
											<groupindex>1</groupindex>
										</link>
										<link>
											<linkclipref>clipitem-579</linkclipref>
											<mediatype>audio</mediatype>
											<trackindex>4</trackindex>
											<clipindex>2</clipindex>
											<groupindex>1</groupindex>
										</link>
										<labels>
											<label2>Forest</label2>
										</labels>
									</clipitem>
									<clipitem id="clipitem-570">
										<masterclipid>masterclip-23</masterclipid>
										<name>Outro</name>
										<enabled>TRUE</enabled>
										<duration>160</duration>
										<rate>
											<timebase>30</timebase>
											<ntsc>TRUE</ntsc>
										</rate>
										<start>5241</start>
										<end>5378</end>
										<in>0</in>
										<out>137</out>
										<pproTicksIn>0</pproTicksIn>
										<pproTicksOut>1161166406400</pproTicksOut>
										<sequence id="sequence-6"/>
											<marker>
												<comment></comment>
												<name></name>
												<in>42</in>
												<out>-1</out>
											</marker>
										<link>
											<linkclipref>clipitem-570</linkclipref>
											<mediatype>video</mediatype>
											<trackindex>4</trackindex>
											<clipindex>3</clipindex>
										</link>
										<link>
											<linkclipref>clipitem-577</linkclipref>
											<mediatype>audio</mediatype>
											<trackindex>3</trackindex>
											<clipindex>3</clipindex>
											<groupindex>1</groupindex>
										</link>
										<link>
											<linkclipref>clipitem-580</linkclipref>
											<mediatype>audio</mediatype>
											<trackindex>4</trackindex>
											<clipindex>3</clipindex>
											<groupindex>1</groupindex>
										</link>
										<labels>
											<label2>Forest</label2>
										</labels>
									</clipitem>
									<enabled>TRUE</enabled>
									<locked>FALSE</locked>
								</track>
							</video>
							<audio>
								<numOutputChannels>2</numOutputChannels>
								<format>
									<samplecharacteristics>
										<depth>16</depth>
										<samplerate>48000</samplerate>
									</samplecharacteristics>
								</format>
								<outputs>
									<group>
										<index>1</index>
										<numchannels>1</numchannels>
										<downmix>0</downmix>
										<channel>
											<index>1</index>
										</channel>
									</group>
									<group>
										<index>2</index>
										<numchannels>1</numchannels>
										<downmix>0</downmix>
										<channel>
											<index>2</index>
										</channel>
									</group>
								</outputs>
								<track TL.SQTrackAudioKeyframeStyle="0" TL.SQTrackShy="0" TL.SQTrackExpandedHeight="25" TL.SQTrackExpanded="0" MZ.TrackTargeted="1" PannerCurrentValue="0.5" PannerIsInverted="true" PannerStartKeyframe="-91445760000000000,0.5,0,0,0,0,0,0" PannerName="Balance" currentExplodedTrackIndex="0" totalExplodedTrackCount="2" premiereTrackType="Stereo">
									<clipitem id="clipitem-571" premiereChannelType="stereo">
										<masterclipid>masterclip-207</masterclipid>
										<name>Teriffic Tiramisu Pancakes_2</name>
										<enabled>TRUE</enabled>
										<duration>5844</duration>
										<rate>
											<timebase>30</timebase>
											<ntsc>TRUE</ntsc>
										</rate>
										<start>82</start>
										<end>-1</end>
										<in>0</in>
										<out>3151</out>
										<pproTicksIn>0</pproTicksIn>
										<pproTicksOut>26706827347200</pproTicksOut>
										<sequence id="sequence-40"/>
										<sourcetrack>
											<mediatype>audio</mediatype>
											<trackindex>0</trackindex>
										</sourcetrack>
										<link>
											<linkclipref>clipitem-517</linkclipref>
											<mediatype>video</mediatype>
											<trackindex>1</trackindex>
											<clipindex>1</clipindex>
										</link>
										<link>
											<linkclipref>clipitem-571</linkclipref>
											<mediatype>audio</mediatype>
											<trackindex>1</trackindex>
											<clipindex>1</clipindex>
											<groupindex>1</groupindex>
										</link>
										<link>
											<linkclipref>clipitem-573</linkclipref>
											<mediatype>audio</mediatype>
											<trackindex>2</trackindex>
											<clipindex>1</clipindex>
											<groupindex>1</groupindex>
										</link>
										<labels>
											<label2>Forest</label2>
										</labels>
									</clipitem>
									<transitionitem>
										<start>3203</start>
										<end>3233</end>
										<pproTicksIn>27147562041600</pproTicksIn>
										<pproTicksOut>27401832057600</pproTicksOut>
										<alignment>end-black</alignment>
										<cutPointTicks>254270016000</cutPointTicks>
										<rate>
											<timebase>30</timebase>
											<ntsc>TRUE</ntsc>
										</rate>
										<effect>
											<name>Cross Fade ( 0dB)</name>
											<effectid>KGAudioTransCrossFade0dB</effectid>
											<effecttype>transition</effecttype>
											<mediatype>audio</mediatype>
											<wipecode>0</wipecode>
											<wipeaccuracy>100</wipeaccuracy>
											<startratio>0</startratio>
											<endratio>1</endratio>
											<reverse>FALSE</reverse>
										</effect>
									</transitionitem>
									<clipitem id="clipitem-572" premiereChannelType="stereo">
										<masterclipid>masterclip-211</masterclipid>
										<name>Snacks for A Hike_1</name>
										<enabled>TRUE</enabled>
										<duration>5700</duration>
										<rate>
											<timebase>30</timebase>
											<ntsc>TRUE</ntsc>
										</rate>
										<start>3267</start>
										<end>-1</end>
										<in>0</in>
										<out>2016</out>
										<pproTicksIn>0</pproTicksIn>
										<pproTicksOut>17086945075200</pproTicksOut>
										<sequence id="sequence-41"/>
										<sourcetrack>
											<mediatype>audio</mediatype>
											<trackindex>0</trackindex>
										</sourcetrack>
										<link>
											<linkclipref>clipitem-540</linkclipref>
											<mediatype>video</mediatype>
											<trackindex>1</trackindex>
											<clipindex>2</clipindex>
										</link>
										<link>
											<linkclipref>clipitem-572</linkclipref>
											<mediatype>audio</mediatype>
											<trackindex>1</trackindex>
											<clipindex>3</clipindex>
											<groupindex>1</groupindex>
										</link>
										<link>
											<linkclipref>clipitem-574</linkclipref>
											<mediatype>audio</mediatype>
											<trackindex>2</trackindex>
											<clipindex>3</clipindex>
											<groupindex>1</groupindex>
										</link>
										<labels>
											<label2>Forest</label2>
										</labels>
									</clipitem>
									<transitionitem>
										<start>5253</start>
										<end>5283</end>
										<pproTicksIn>44522679801600</pproTicksIn>
										<pproTicksOut>44776949817600</pproTicksOut>
										<alignment>end-black</alignment>
										<cutPointTicks>254270016000</cutPointTicks>
										<rate>
											<timebase>30</timebase>
											<ntsc>TRUE</ntsc>
										</rate>
										<effect>
											<name>Cross Fade ( 0dB)</name>
											<effectid>KGAudioTransCrossFade0dB</effectid>
											<effecttype>transition</effecttype>
											<mediatype>audio</mediatype>
											<wipecode>0</wipecode>
											<wipeaccuracy>100</wipeaccuracy>
											<startratio>0</startratio>
											<endratio>1</endratio>
											<reverse>FALSE</reverse>
										</effect>
									</transitionitem>
									<enabled>TRUE</enabled>
									<locked>FALSE</locked>
									<outputchannelindex>1</outputchannelindex>
								</track>
								<track TL.SQTrackAudioKeyframeStyle="0" TL.SQTrackShy="0" TL.SQTrackExpandedHeight="25" TL.SQTrackExpanded="0" MZ.TrackTargeted="1" PannerCurrentValue="0.5" PannerIsInverted="true" PannerStartKeyframe="-91445760000000000,0.5,0,0,0,0,0,0" PannerName="Balance" currentExplodedTrackIndex="1" totalExplodedTrackCount="2" premiereTrackType="Stereo">
									<clipitem id="clipitem-573" premiereChannelType="stereo">
										<masterclipid>masterclip-207</masterclipid>
										<name>Teriffic Tiramisu Pancakes_2</name>
										<enabled>TRUE</enabled>
										<duration>5844</duration>
										<rate>
											<timebase>30</timebase>
											<ntsc>TRUE</ntsc>
										</rate>
										<start>82</start>
										<end>-1</end>
										<in>0</in>
										<out>3151</out>
										<pproTicksIn>0</pproTicksIn>
										<pproTicksOut>26706827347200</pproTicksOut>
										<sequence id="sequence-40"/>
										<sourcetrack>
											<mediatype>audio</mediatype>
											<trackindex>1</trackindex>
										</sourcetrack>
										<link>
											<linkclipref>clipitem-517</linkclipref>
											<mediatype>video</mediatype>
											<trackindex>1</trackindex>
											<clipindex>1</clipindex>
										</link>
										<link>
											<linkclipref>clipitem-571</linkclipref>
											<mediatype>audio</mediatype>
											<trackindex>1</trackindex>
											<clipindex>1</clipindex>
											<groupindex>1</groupindex>
										</link>
										<link>
											<linkclipref>clipitem-573</linkclipref>
											<mediatype>audio</mediatype>
											<trackindex>2</trackindex>
											<clipindex>1</clipindex>
											<groupindex>1</groupindex>
										</link>
										<labels>
											<label2>Forest</label2>
										</labels>
									</clipitem>
									<transitionitem>
										<start>3203</start>
										<end>3233</end>
										<pproTicksIn>27147562041600</pproTicksIn>
										<pproTicksOut>27401832057600</pproTicksOut>
										<alignment>end-black</alignment>
										<cutPointTicks>254270016000</cutPointTicks>
										<rate>
											<timebase>30</timebase>
											<ntsc>TRUE</ntsc>
										</rate>
										<effect>
											<name>Cross Fade ( 0dB)</name>
											<effectid>KGAudioTransCrossFade0dB</effectid>
											<effecttype>transition</effecttype>
											<mediatype>audio</mediatype>
											<wipecode>0</wipecode>
											<wipeaccuracy>100</wipeaccuracy>
											<startratio>0</startratio>
											<endratio>1</endratio>
											<reverse>FALSE</reverse>
										</effect>
									</transitionitem>
									<clipitem id="clipitem-574" premiereChannelType="stereo">
										<masterclipid>masterclip-211</masterclipid>
										<name>Snacks for A Hike_1</name>
										<enabled>TRUE</enabled>
										<duration>5700</duration>
										<rate>
											<timebase>30</timebase>
											<ntsc>TRUE</ntsc>
										</rate>
										<start>3267</start>
										<end>-1</end>
										<in>0</in>
										<out>2016</out>
										<pproTicksIn>0</pproTicksIn>
										<pproTicksOut>17086945075200</pproTicksOut>
										<sequence id="sequence-41"/>
										<sourcetrack>
											<mediatype>audio</mediatype>
											<trackindex>1</trackindex>
										</sourcetrack>
										<link>
											<linkclipref>clipitem-540</linkclipref>
											<mediatype>video</mediatype>
											<trackindex>1</trackindex>
											<clipindex>2</clipindex>
										</link>
										<link>
											<linkclipref>clipitem-572</linkclipref>
											<mediatype>audio</mediatype>
											<trackindex>1</trackindex>
											<clipindex>3</clipindex>
											<groupindex>1</groupindex>
										</link>
										<link>
											<linkclipref>clipitem-574</linkclipref>
											<mediatype>audio</mediatype>
											<trackindex>2</trackindex>
											<clipindex>3</clipindex>
											<groupindex>1</groupindex>
										</link>
										<labels>
											<label2>Forest</label2>
										</labels>
									</clipitem>
									<transitionitem>
										<start>5253</start>
										<end>5283</end>
										<pproTicksIn>44522679801600</pproTicksIn>
										<pproTicksOut>44776949817600</pproTicksOut>
										<alignment>end-black</alignment>
										<cutPointTicks>254270016000</cutPointTicks>
										<rate>
											<timebase>30</timebase>
											<ntsc>TRUE</ntsc>
										</rate>
										<effect>
											<name>Cross Fade ( 0dB)</name>
											<effectid>KGAudioTransCrossFade0dB</effectid>
											<effecttype>transition</effecttype>
											<mediatype>audio</mediatype>
											<wipecode>0</wipecode>
											<wipeaccuracy>100</wipeaccuracy>
											<startratio>0</startratio>
											<endratio>1</endratio>
											<reverse>FALSE</reverse>
										</effect>
									</transitionitem>
									<enabled>TRUE</enabled>
									<locked>FALSE</locked>
									<outputchannelindex>2</outputchannelindex>
								</track>
								<track TL.SQTrackAudioKeyframeStyle="0" TL.SQTrackShy="0" TL.SQTrackExpandedHeight="25" TL.SQTrackExpanded="0" MZ.TrackTargeted="1" PannerCurrentValue="0.5" PannerIsInverted="true" PannerStartKeyframe="-91445760000000000,0.5,0,0,0,0,0,0" PannerName="Balance" currentExplodedTrackIndex="0" totalExplodedTrackCount="2" premiereTrackType="Stereo">
									<clipitem id="clipitem-575" premiereChannelType="stereo">
										<masterclipid>masterclip-19</masterclipid>
										<name>Intro</name>
										<enabled>TRUE</enabled>
										<duration>160</duration>
										<rate>
											<timebase>30</timebase>
											<ntsc>TRUE</ntsc>
										</rate>
										<start>0</start>
										<end>115</end>
										<in>0</in>
										<out>115</out>
										<pproTicksIn>0</pproTicksIn>
										<pproTicksOut>974701728000</pproTicksOut>
										<sequence id="sequence-4"/>
										<sourcetrack>
											<mediatype>audio</mediatype>
											<trackindex>0</trackindex>
										</sourcetrack>
											<marker>
												<comment></comment>
												<name></name>
												<in>82</in>
												<out>-1</out>
											</marker>
										<link>
											<linkclipref>clipitem-568</linkclipref>
											<mediatype>video</mediatype>
											<trackindex>4</trackindex>
											<clipindex>1</clipindex>
										</link>
										<link>
											<linkclipref>clipitem-575</linkclipref>
											<mediatype>audio</mediatype>
											<trackindex>3</trackindex>
											<clipindex>1</clipindex>
											<groupindex>1</groupindex>
										</link>
										<link>
											<linkclipref>clipitem-578</linkclipref>
											<mediatype>audio</mediatype>
											<trackindex>4</trackindex>
											<clipindex>1</clipindex>
											<groupindex>1</groupindex>
										</link>
										<labels>
											<label2>Forest</label2>
										</labels>
									</clipitem>
									<clipitem id="clipitem-576" premiereChannelType="stereo">
										<masterclipid>masterclip-21</masterclipid>
										<name>Transition 2</name>
										<enabled>TRUE</enabled>
										<duration>160</duration>
										<rate>
											<timebase>30</timebase>
											<ntsc>TRUE</ntsc>
										</rate>
										<start>3213</start>
										<end>3332</end>
										<in>0</in>
										<out>119</out>
										<pproTicksIn>0</pproTicksIn>
										<pproTicksOut>1008604396800</pproTicksOut>
										<sequence id="sequence-5"/>
										<sourcetrack>
											<mediatype>audio</mediatype>
											<trackindex>0</trackindex>
										</sourcetrack>
											<marker>
												<comment></comment>
												<name></name>
												<in>54</in>
												<out>-1</out>
											</marker>
											<marker>
												<comment></comment>
												<name></name>
												<in>20</in>
												<out>-1</out>
											</marker>
										<link>
											<linkclipref>clipitem-569</linkclipref>
											<mediatype>video</mediatype>
											<trackindex>4</trackindex>
											<clipindex>2</clipindex>
										</link>
										<link>
											<linkclipref>clipitem-576</linkclipref>
											<mediatype>audio</mediatype>
											<trackindex>3</trackindex>
											<clipindex>2</clipindex>
											<groupindex>1</groupindex>
										</link>
										<link>
											<linkclipref>clipitem-579</linkclipref>
											<mediatype>audio</mediatype>
											<trackindex>4</trackindex>
											<clipindex>2</clipindex>
											<groupindex>1</groupindex>
										</link>
										<labels>
											<label2>Forest</label2>
										</labels>
									</clipitem>
									<clipitem id="clipitem-577" premiereChannelType="stereo">
										<masterclipid>masterclip-23</masterclipid>
										<name>Outro</name>
										<enabled>TRUE</enabled>
										<duration>160</duration>
										<rate>
											<timebase>30</timebase>
											<ntsc>TRUE</ntsc>
										</rate>
										<start>5241</start>
										<end>5378</end>
										<in>0</in>
										<out>137</out>
										<pproTicksIn>0</pproTicksIn>
										<pproTicksOut>1161166406400</pproTicksOut>
										<sequence id="sequence-6"/>
										<sourcetrack>
											<mediatype>audio</mediatype>
											<trackindex>0</trackindex>
										</sourcetrack>
											<marker>
												<comment></comment>
												<name></name>
												<in>42</in>
												<out>-1</out>
											</marker>
										<link>
											<linkclipref>clipitem-570</linkclipref>
											<mediatype>video</mediatype>
											<trackindex>4</trackindex>
											<clipindex>3</clipindex>
										</link>
										<link>
											<linkclipref>clipitem-577</linkclipref>
											<mediatype>audio</mediatype>
											<trackindex>3</trackindex>
											<clipindex>3</clipindex>
											<groupindex>1</groupindex>
										</link>
										<link>
											<linkclipref>clipitem-580</linkclipref>
											<mediatype>audio</mediatype>
											<trackindex>4</trackindex>
											<clipindex>3</clipindex>
											<groupindex>1</groupindex>
										</link>
										<labels>
											<label2>Forest</label2>
										</labels>
									</clipitem>
									<enabled>TRUE</enabled>
									<locked>FALSE</locked>
									<outputchannelindex>1</outputchannelindex>
								</track>
								<track TL.SQTrackAudioKeyframeStyle="0" TL.SQTrackShy="0" TL.SQTrackExpandedHeight="25" TL.SQTrackExpanded="0" MZ.TrackTargeted="1" PannerCurrentValue="0.5" PannerIsInverted="true" PannerStartKeyframe="-91445760000000000,0.5,0,0,0,0,0,0" PannerName="Balance" currentExplodedTrackIndex="1" totalExplodedTrackCount="2" premiereTrackType="Stereo">
									<clipitem id="clipitem-578" premiereChannelType="stereo">
										<masterclipid>masterclip-19</masterclipid>
										<name>Intro</name>
										<enabled>TRUE</enabled>
										<duration>160</duration>
										<rate>
											<timebase>30</timebase>
											<ntsc>TRUE</ntsc>
										</rate>
										<start>0</start>
										<end>115</end>
										<in>0</in>
										<out>115</out>
										<pproTicksIn>0</pproTicksIn>
										<pproTicksOut>974701728000</pproTicksOut>
										<sequence id="sequence-4"/>
										<sourcetrack>
											<mediatype>audio</mediatype>
											<trackindex>1</trackindex>
										</sourcetrack>
											<marker>
												<comment></comment>
												<name></name>
												<in>82</in>
												<out>-1</out>
											</marker>
										<link>
											<linkclipref>clipitem-568</linkclipref>
											<mediatype>video</mediatype>
											<trackindex>4</trackindex>
											<clipindex>1</clipindex>
										</link>
										<link>
											<linkclipref>clipitem-575</linkclipref>
											<mediatype>audio</mediatype>
											<trackindex>3</trackindex>
											<clipindex>1</clipindex>
											<groupindex>1</groupindex>
										</link>
										<link>
											<linkclipref>clipitem-578</linkclipref>
											<mediatype>audio</mediatype>
											<trackindex>4</trackindex>
											<clipindex>1</clipindex>
											<groupindex>1</groupindex>
										</link>
										<labels>
											<label2>Forest</label2>
										</labels>
									</clipitem>
									<clipitem id="clipitem-579" premiereChannelType="stereo">
										<masterclipid>masterclip-21</masterclipid>
										<name>Transition 2</name>
										<enabled>TRUE</enabled>
										<duration>160</duration>
										<rate>
											<timebase>30</timebase>
											<ntsc>TRUE</ntsc>
										</rate>
										<start>3213</start>
										<end>3332</end>
										<in>0</in>
										<out>119</out>
										<pproTicksIn>0</pproTicksIn>
										<pproTicksOut>1008604396800</pproTicksOut>
										<sequence id="sequence-5"/>
										<sourcetrack>
											<mediatype>audio</mediatype>
											<trackindex>1</trackindex>
										</sourcetrack>
											<marker>
												<comment></comment>
												<name></name>
												<in>54</in>
												<out>-1</out>
											</marker>
											<marker>
												<comment></comment>
												<name></name>
												<in>20</in>
												<out>-1</out>
											</marker>
										<link>
											<linkclipref>clipitem-569</linkclipref>
											<mediatype>video</mediatype>
											<trackindex>4</trackindex>
											<clipindex>2</clipindex>
										</link>
										<link>
											<linkclipref>clipitem-576</linkclipref>
											<mediatype>audio</mediatype>
											<trackindex>3</trackindex>
											<clipindex>2</clipindex>
											<groupindex>1</groupindex>
										</link>
										<link>
											<linkclipref>clipitem-579</linkclipref>
											<mediatype>audio</mediatype>
											<trackindex>4</trackindex>
											<clipindex>2</clipindex>
											<groupindex>1</groupindex>
										</link>
										<labels>
											<label2>Forest</label2>
										</labels>
									</clipitem>
									<clipitem id="clipitem-580" premiereChannelType="stereo">
										<masterclipid>masterclip-23</masterclipid>
										<name>Outro</name>
										<enabled>TRUE</enabled>
										<duration>160</duration>
										<rate>
											<timebase>30</timebase>
											<ntsc>TRUE</ntsc>
										</rate>
										<start>5241</start>
										<end>5378</end>
										<in>0</in>
										<out>137</out>
										<pproTicksIn>0</pproTicksIn>
										<pproTicksOut>1161166406400</pproTicksOut>
										<sequence id="sequence-6"/>
										<sourcetrack>
											<mediatype>audio</mediatype>
											<trackindex>1</trackindex>
										</sourcetrack>
											<marker>
												<comment></comment>
												<name></name>
												<in>42</in>
												<out>-1</out>
											</marker>
										<link>
											<linkclipref>clipitem-570</linkclipref>
											<mediatype>video</mediatype>
											<trackindex>4</trackindex>
											<clipindex>3</clipindex>
										</link>
										<link>
											<linkclipref>clipitem-577</linkclipref>
											<mediatype>audio</mediatype>
											<trackindex>3</trackindex>
											<clipindex>3</clipindex>
											<groupindex>1</groupindex>
										</link>
										<link>
											<linkclipref>clipitem-580</linkclipref>
											<mediatype>audio</mediatype>
											<trackindex>4</trackindex>
											<clipindex>3</clipindex>
											<groupindex>1</groupindex>
										</link>
										<labels>
											<label2>Forest</label2>
										</labels>
									</clipitem>
									<enabled>TRUE</enabled>
									<locked>FALSE</locked>
									<outputchannelindex>2</outputchannelindex>
								</track>
								<track TL.SQTrackAudioKeyframeStyle="0" TL.SQTrackShy="0" TL.SQTrackExpandedHeight="25" TL.SQTrackExpanded="0" MZ.TrackTargeted="1" PannerCurrentValue="0.5" PannerIsInverted="true" PannerStartKeyframe="-91445760000000000,0.5,0,0,0,0,0,0" PannerName="Balance" currentExplodedTrackIndex="0" totalExplodedTrackCount="2" premiereTrackType="Stereo">
									<enabled>TRUE</enabled>
									<locked>FALSE</locked>
									<outputchannelindex>1</outputchannelindex>
								</track>
								<track TL.SQTrackAudioKeyframeStyle="0" TL.SQTrackShy="0" TL.SQTrackExpandedHeight="25" TL.SQTrackExpanded="0" MZ.TrackTargeted="1" PannerCurrentValue="0.5" PannerIsInverted="true" PannerStartKeyframe="-91445760000000000,0.5,0,0,0,0,0,0" PannerName="Balance" currentExplodedTrackIndex="1" totalExplodedTrackCount="2" premiereTrackType="Stereo">
									<enabled>TRUE</enabled>
									<locked>FALSE</locked>
									<outputchannelindex>2</outputchannelindex>
								</track>
							</audio>
						</media>
						<timecode>
							<rate>
								<timebase>30</timebase>
								<ntsc>TRUE</ntsc>
							</rate>
							<string>00;00;00;00</string>
							<frame>0</frame>
							<displayformat>DF</displayformat>
						</timecode>
						<labels>
							<label2>Forest</label2>
						</labels>
						<logginginfo>
							<description></description>
							<scene></scene>
							<shottake></shottake>
							<lognote></lognote>
							<good></good>
							<originalvideofilename></originalvideofilename>
							<originalaudiofilename></originalaudiofilename>
						</logginginfo>
					</sequence>
					<sequence id="sequence-42" TL.SQAudioVisibleBase="0" TL.SQVideoVisibleBase="0" TL.SQVisibleBaseTime="0" TL.SQAVDividerPosition="0.5" TL.SQHideShyTracks="0" TL.SQHeaderWidth="236" TL.SQDataTrackViewControlState="0" Monitor.ProgramZoomOut="44429447462400" Monitor.ProgramZoomIn="0" TL.SQTimePerPixel="0.21318054369818507" AM.TrackVScrollPosition="0" AM.TrackScrollPosition="0" MZ.EditLine="32114303020800" MZ.Sequence.PreviewFrameSizeHeight="1080" MZ.Sequence.PreviewFrameSizeWidth="1920" MZ.Sequence.AudioTimeDisplayFormat="200" MZ.Sequence.PreviewRenderingClassID="1061109567" MZ.Sequence.PreviewRenderingPresetCodec="1634755443" MZ.Sequence.PreviewRenderingPresetPath="EncoderPresets/SequencePreview/35d109db-457b-43c1-9452-9cb7be9f121c/QuickTime.epr" MZ.Sequence.PreviewUseMaxRenderQuality="false" MZ.Sequence.PreviewUseMaxBitDepth="false" MZ.Sequence.EditingModeGUID="35d109db-457b-43c1-9452-9cb7be9f121c" MZ.Sequence.VideoTimeDisplayFormat="102" MZ.WorkOutPoint="15239249625600" MZ.WorkInPoint="0" explodedTracks="true">
						<uuid>bcfe911c-3b1e-4e53-b918-5c649305381d</uuid>
						<duration>5147</duration>
						<rate>
							<timebase>30</timebase>
							<ntsc>TRUE</ntsc>
						</rate>
						<name>ATM_EYECANDY_236</name>
						<media>
							<video>
								<format>
									<samplecharacteristics>
										<rate>
											<timebase>30</timebase>
											<ntsc>TRUE</ntsc>
										</rate>
										<codec>
											<name>Apple ProRes 422</name>
											<appspecificdata>
												<appname>Final Cut Pro</appname>
												<appmanufacturer>Apple Inc.</appmanufacturer>
												<appversion>7.0</appversion>
												<data>
													<qtcodec>
														<codecname>Apple ProRes 422</codecname>
														<codectypename>Apple ProRes 422</codectypename>
														<codectypecode>apcn</codectypecode>
														<codecvendorcode>appl</codecvendorcode>
														<spatialquality>1024</spatialquality>
														<temporalquality>0</temporalquality>
														<keyframerate>0</keyframerate>
														<datarate>0</datarate>
													</qtcodec>
												</data>
											</appspecificdata>
										</codec>
										<width>1920</width>
										<height>1080</height>
										<anamorphic>FALSE</anamorphic>
										<pixelaspectratio>square</pixelaspectratio>
										<fielddominance>none</fielddominance>
										<colordepth>24</colordepth>
									</samplecharacteristics>
								</format>
								<track TL.SQTrackShy="0" TL.SQTrackExpandedHeight="25" TL.SQTrackExpanded="0" MZ.TrackTargeted="1">
									<clipitem id="clipitem-581">
										<masterclipid>masterclip-220</masterclipid>
										<name>Cutesy Cactus Cupcakes_1.5</name>
										<enabled>TRUE</enabled>
										<duration>3263</duration>
										<rate>
											<timebase>30</timebase>
											<ntsc>TRUE</ntsc>
										</rate>
										<start>82</start>
										<end>2698</end>
										<in>0</in>
										<out>2616</out>
										<pproTicksIn>0</pproTicksIn>
										<pproTicksOut>22172345395200</pproTicksOut>
										<sequence id="sequence-43" TL.SQAudioVisibleBase="0" TL.SQVideoVisibleBase="0" TL.SQVisibleBaseTime="0" TL.SQAVDividerPosition="0.5" TL.SQHideShyTracks="0" TL.SQHeaderWidth="236" TL.SQDataTrackViewControlState="0" Monitor.ProgramZoomOut="22172345395200" Monitor.ProgramZoomIn="0" TL.SQTimePerPixel="0.12652671865874196" AM.TrackVScrollPosition="0" AM.TrackScrollPosition="0" MZ.EditLine="6509312409600" MZ.Sequence.PreviewFrameSizeHeight="1080" MZ.Sequence.PreviewFrameSizeWidth="1920" MZ.Sequence.AudioTimeDisplayFormat="200" MZ.Sequence.PreviewRenderingClassID="1061109567" MZ.Sequence.PreviewRenderingPresetCodec="1634755443" MZ.Sequence.PreviewRenderingPresetPath="EncoderPresets/SequencePreview/35d109db-457b-43c1-9452-9cb7be9f121c/QuickTime.epr" MZ.Sequence.PreviewUseMaxRenderQuality="false" MZ.Sequence.PreviewUseMaxBitDepth="false" MZ.Sequence.EditingModeGUID="35d109db-457b-43c1-9452-9cb7be9f121c" MZ.Sequence.VideoTimeDisplayFormat="102" MZ.WorkOutPoint="1262874412800" MZ.WorkInPoint="0">
											<duration>2616</duration>
											<rate>
												<timebase>30</timebase>
												<ntsc>TRUE</ntsc>
											</rate>
											<name>FND_Cutesy Cactus Cupcakes_1.5</name>
											<media>
												<video>
													<format>
														<samplecharacteristics>
															<rate>
																<timebase>30</timebase>
																<ntsc>TRUE</ntsc>
															</rate>
															<codec>
																<name>Apple ProRes 422</name>
																<appspecificdata>
																	<appname>Final Cut Pro</appname>
																	<appmanufacturer>Apple Inc.</appmanufacturer>
																	<appversion>7.0</appversion>
																	<data>
																		<qtcodec>
																			<codecname>Apple ProRes 422</codecname>
																			<codectypename>Apple ProRes 422</codectypename>
																			<codectypecode>apcn</codectypecode>
																			<codecvendorcode>appl</codecvendorcode>
																			<spatialquality>1024</spatialquality>
																			<temporalquality>0</temporalquality>
																			<keyframerate>0</keyframerate>
																			<datarate>0</datarate>
																		</qtcodec>
																	</data>
																</appspecificdata>
															</codec>
															<width>1920</width>
															<height>1080</height>
															<anamorphic>FALSE</anamorphic>
															<pixelaspectratio>square</pixelaspectratio>
															<fielddominance>none</fielddominance>
															<colordepth>24</colordepth>
														</samplecharacteristics>
													</format>
													<track TL.SQTrackShy="0" TL.SQTrackExpandedHeight="25" TL.SQTrackExpanded="0" MZ.TrackTargeted="1">
														<clipitem id="clipitem-582">
															<masterclipid>masterclip-221</masterclipid>
															<name>(Sugar and Sparrow)_Sprinkled Cactus Cupcakes Tutorial_PVQHnGJL5Ao_YT.mp4</name>
															<enabled>TRUE</enabled>
															<duration>4135</duration>
															<rate>
																<timebase>30</timebase>
																<ntsc>TRUE</ntsc>
															</rate>
															<start>0</start>
															<end>905</end>
															<in>428</in>
															<out>1333</out>
															<pproTicksIn>3627585561600</pproTicksIn>
															<pproTicksOut>11298064377600</pproTicksOut>
															<alphatype>none</alphatype>
															<pixelaspectratio>square</pixelaspectratio>
															<anamorphic>FALSE</anamorphic>
															<file id="file-190">
																<name>(Sugar and Sparrow)_Sprinkled Cactus Cupcakes Tutorial_PVQHnGJL5Ao_YT.mp4</name>
																<pathurl>file://localhost/Volumes/ATM%201/EYE%20CANDY/8%3a14%3a23/3_Raw%20Files/(Sugar%20and%20Sparrow)_Sprinkled%20Cactus%20Cupcakes%20Tutorial_PVQHnGJL5Ao_YT.mp4</pathurl>
																<rate>
																	<timebase>60</timebase>
																	<ntsc>FALSE</ntsc>
																</rate>
																<duration>8279</duration>
																<timecode>
																	<rate>
																		<timebase>60</timebase>
																		<ntsc>FALSE</ntsc>
																	</rate>
																	<string>00:00:00:00</string>
																	<frame>0</frame>
																	<displayformat>NDF</displayformat>
																</timecode>
																<media>
																	<video>
																		<samplecharacteristics>
																			<rate>
																				<timebase>60</timebase>
																				<ntsc>FALSE</ntsc>
																			</rate>
																			<width>1920</width>
																			<height>1080</height>
																			<anamorphic>FALSE</anamorphic>
																			<pixelaspectratio>square</pixelaspectratio>
																			<fielddominance>none</fielddominance>
																		</samplecharacteristics>
																	</video>
																	<audio>
																		<samplecharacteristics>
																			<depth>16</depth>
																			<samplerate>44100</samplerate>
																		</samplecharacteristics>
																		<channelcount>2</channelcount>
																	</audio>
																</media>
															</file>
															<logginginfo>
																<description>Sprinkled Cactus Cupcakes Tutorial</description>
																<scene></scene>
																<shottake></shottake>
																<lognote>https://www.youtube.com/watch?v=PVQHnGJL5Ao</lognote>
																<good></good>
																<originalvideofilename></originalvideofilename>
																<originalaudiofilename></originalaudiofilename>
															</logginginfo>
															<colorinfo>
																<lut></lut>
																<lut1></lut1>
																<asc_sop></asc_sop>
																<asc_sat></asc_sat>
																<lut2></lut2>
															</colorinfo>
															<labels>
																<label2>Violet</label2>
															</labels>
														</clipitem>
														<clipitem id="clipitem-583">
															<masterclipid>masterclip-221</masterclipid>
															<name>(Sugar and Sparrow)_Sprinkled Cactus Cupcakes Tutorial_PVQHnGJL5Ao_YT.mp4</name>
															<enabled>TRUE</enabled>
															<duration>4135</duration>
															<rate>
																<timebase>30</timebase>
																<ntsc>TRUE</ntsc>
															</rate>
															<start>905</start>
															<end>1013</end>
															<in>1599</in>
															<out>1707</out>
															<pproTicksIn>13552591852800</pproTicksIn>
															<pproTicksOut>14467963910400</pproTicksOut>
															<alphatype>none</alphatype>
															<file id="file-190"/>
															<logginginfo>
																<description>Sprinkled Cactus Cupcakes Tutorial</description>
																<scene></scene>
																<shottake></shottake>
																<lognote>https://www.youtube.com/watch?v=PVQHnGJL5Ao</lognote>
																<good></good>
																<originalvideofilename></originalvideofilename>
																<originalaudiofilename></originalaudiofilename>
															</logginginfo>
															<colorinfo>
																<lut></lut>
																<lut1></lut1>
																<asc_sop></asc_sop>
																<asc_sat></asc_sat>
																<lut2></lut2>
															</colorinfo>
															<labels>
																<label2>Violet</label2>
															</labels>
														</clipitem>
														<clipitem id="clipitem-584">
															<masterclipid>masterclip-221</masterclipid>
															<name>(Sugar and Sparrow)_Sprinkled Cactus Cupcakes Tutorial_PVQHnGJL5Ao_YT.mp4</name>
															<enabled>TRUE</enabled>
															<duration>4135</duration>
															<rate>
																<timebase>30</timebase>
																<ntsc>TRUE</ntsc>
															</rate>
															<start>1013</start>
															<end>1067</end>
															<in>1795</in>
															<out>1849</out>
															<pproTicksIn>15213822624000</pproTicksIn>
															<pproTicksOut>15671508652800</pproTicksOut>
															<alphatype>none</alphatype>
															<file id="file-190"/>
															<logginginfo>
																<description>Sprinkled Cactus Cupcakes Tutorial</description>
																<scene></scene>
																<shottake></shottake>
																<lognote>https://www.youtube.com/watch?v=PVQHnGJL5Ao</lognote>
																<good></good>
																<originalvideofilename></originalvideofilename>
																<originalaudiofilename></originalaudiofilename>
															</logginginfo>
															<colorinfo>
																<lut></lut>
																<lut1></lut1>
																<asc_sop></asc_sop>
																<asc_sat></asc_sat>
																<lut2></lut2>
															</colorinfo>
															<labels>
																<label2>Violet</label2>
															</labels>
														</clipitem>
														<clipitem id="clipitem-585">
															<masterclipid>masterclip-221</masterclipid>
															<name>(Sugar and Sparrow)_Sprinkled Cactus Cupcakes Tutorial_PVQHnGJL5Ao_YT.mp4</name>
															<enabled>TRUE</enabled>
															<duration>4135</duration>
															<rate>
																<timebase>30</timebase>
																<ntsc>TRUE</ntsc>
															</rate>
															<start>1067</start>
															<end>1137</end>
															<in>1889</in>
															<out>1959</out>
															<pproTicksIn>16010535340800</pproTicksIn>
															<pproTicksOut>16603832044800</pproTicksOut>
															<alphatype>none</alphatype>
															<file id="file-190"/>
															<logginginfo>
																<description>Sprinkled Cactus Cupcakes Tutorial</description>
																<scene></scene>
																<shottake></shottake>
																<lognote>https://www.youtube.com/watch?v=PVQHnGJL5Ao</lognote>
																<good></good>
																<originalvideofilename></originalvideofilename>
																<originalaudiofilename></originalaudiofilename>
															</logginginfo>
															<colorinfo>
																<lut></lut>
																<lut1></lut1>
																<asc_sop></asc_sop>
																<asc_sat></asc_sat>
																<lut2></lut2>
															</colorinfo>
															<labels>
																<label2>Violet</label2>
															</labels>
														</clipitem>
														<clipitem id="clipitem-586">
															<masterclipid>masterclip-221</masterclipid>
															<name>(Sugar and Sparrow)_Sprinkled Cactus Cupcakes Tutorial_PVQHnGJL5Ao_YT.mp4</name>
															<enabled>TRUE</enabled>
															<duration>4135</duration>
															<rate>
																<timebase>30</timebase>
																<ntsc>TRUE</ntsc>
															</rate>
															<start>1137</start>
															<end>1649</end>
															<in>2042</in>
															<out>2554</out>
															<pproTicksIn>17307312422400</pproTicksIn>
															<pproTicksOut>21646854028800</pproTicksOut>
															<alphatype>none</alphatype>
															<file id="file-190"/>
															<logginginfo>
																<description>Sprinkled Cactus Cupcakes Tutorial</description>
																<scene></scene>
																<shottake></shottake>
																<lognote>https://www.youtube.com/watch?v=PVQHnGJL5Ao</lognote>
																<good></good>
																<originalvideofilename></originalvideofilename>
																<originalaudiofilename></originalaudiofilename>
															</logginginfo>
															<colorinfo>
																<lut></lut>
																<lut1></lut1>
																<asc_sop></asc_sop>
																<asc_sat></asc_sat>
																<lut2></lut2>
															</colorinfo>
															<labels>
																<label2>Violet</label2>
															</labels>
														</clipitem>
														<clipitem id="clipitem-587">
															<masterclipid>masterclip-221</masterclipid>
															<name>(Sugar and Sparrow)_Sprinkled Cactus Cupcakes Tutorial_PVQHnGJL5Ao_YT.mp4</name>
															<enabled>TRUE</enabled>
															<duration>4135</duration>
															<rate>
																<timebase>30</timebase>
																<ntsc>TRUE</ntsc>
															</rate>
															<start>1649</start>
															<end>1709</end>
															<in>2683</in>
															<out>2743</out>
															<pproTicksIn>22740215097600</pproTicksIn>
															<pproTicksOut>23248755129600</pproTicksOut>
															<alphatype>none</alphatype>
															<file id="file-190"/>
															<logginginfo>
																<description>Sprinkled Cactus Cupcakes Tutorial</description>
																<scene></scene>
																<shottake></shottake>
																<lognote>https://www.youtube.com/watch?v=PVQHnGJL5Ao</lognote>
																<good></good>
																<originalvideofilename></originalvideofilename>
																<originalaudiofilename></originalaudiofilename>
															</logginginfo>
															<colorinfo>
																<lut></lut>
																<lut1></lut1>
																<asc_sop></asc_sop>
																<asc_sat></asc_sat>
																<lut2></lut2>
															</colorinfo>
															<labels>
																<label2>Violet</label2>
															</labels>
														</clipitem>
														<clipitem id="clipitem-588">
															<masterclipid>masterclip-221</masterclipid>
															<name>(Sugar and Sparrow)_Sprinkled Cactus Cupcakes Tutorial_PVQHnGJL5Ao_YT.mp4</name>
															<enabled>TRUE</enabled>
															<duration>4135</duration>
															<rate>
																<timebase>30</timebase>
																<ntsc>TRUE</ntsc>
															</rate>
															<start>1709</start>
															<end>2022</end>
															<in>2915</in>
															<out>3228</out>
															<pproTicksIn>24706569888000</pproTicksIn>
															<pproTicksOut>27359453721600</pproTicksOut>
															<alphatype>none</alphatype>
															<file id="file-190"/>
															<logginginfo>
																<description>Sprinkled Cactus Cupcakes Tutorial</description>
																<scene></scene>
																<shottake></shottake>
																<lognote>https://www.youtube.com/watch?v=PVQHnGJL5Ao</lognote>
																<good></good>
																<originalvideofilename></originalvideofilename>
																<originalaudiofilename></originalaudiofilename>
															</logginginfo>
															<colorinfo>
																<lut></lut>
																<lut1></lut1>
																<asc_sop></asc_sop>
																<asc_sat></asc_sat>
																<lut2></lut2>
															</colorinfo>
															<labels>
																<label2>Violet</label2>
															</labels>
														</clipitem>
														<clipitem id="clipitem-589">
															<masterclipid>masterclip-221</masterclipid>
															<name>(Sugar and Sparrow)_Sprinkled Cactus Cupcakes Tutorial_PVQHnGJL5Ao_YT.mp4</name>
															<enabled>TRUE</enabled>
															<duration>4135</duration>
															<rate>
																<timebase>30</timebase>
																<ntsc>TRUE</ntsc>
															</rate>
															<start>2022</start>
															<end>2515</end>
															<in>3324</in>
															<out>3817</out>
															<pproTicksIn>28173117772800</pproTicksIn>
															<pproTicksOut>32351621702400</pproTicksOut>
															<alphatype>none</alphatype>
															<file id="file-190"/>
															<logginginfo>
																<description>Sprinkled Cactus Cupcakes Tutorial</description>
																<scene></scene>
																<shottake></shottake>
																<lognote>https://www.youtube.com/watch?v=PVQHnGJL5Ao</lognote>
																<good></good>
																<originalvideofilename></originalvideofilename>
																<originalaudiofilename></originalaudiofilename>
															</logginginfo>
															<colorinfo>
																<lut></lut>
																<lut1></lut1>
																<asc_sop></asc_sop>
																<asc_sat></asc_sat>
																<lut2></lut2>
															</colorinfo>
															<labels>
																<label2>Violet</label2>
															</labels>
														</clipitem>
														<clipitem id="clipitem-590">
															<masterclipid>masterclip-221</masterclipid>
															<name>(Sugar and Sparrow)_Sprinkled Cactus Cupcakes Tutorial_PVQHnGJL5Ao_YT.mp4</name>
															<enabled>TRUE</enabled>
															<duration>4135</duration>
															<rate>
																<timebase>30</timebase>
																<ntsc>TRUE</ntsc>
															</rate>
															<start>2515</start>
															<end>2616</end>
															<in>3862</in>
															<out>3963</out>
															<pproTicksIn>32733026726400</pproTicksIn>
															<pproTicksOut>33589069113600</pproTicksOut>
															<alphatype>none</alphatype>
															<file id="file-190"/>
															<logginginfo>
																<description>Sprinkled Cactus Cupcakes Tutorial</description>
																<scene></scene>
																<shottake></shottake>
																<lognote>https://www.youtube.com/watch?v=PVQHnGJL5Ao</lognote>
																<good></good>
																<originalvideofilename></originalvideofilename>
																<originalaudiofilename></originalaudiofilename>
															</logginginfo>
															<colorinfo>
																<lut></lut>
																<lut1></lut1>
																<asc_sop></asc_sop>
																<asc_sat></asc_sat>
																<lut2></lut2>
															</colorinfo>
															<labels>
																<label2>Violet</label2>
															</labels>
														</clipitem>
														<enabled>TRUE</enabled>
														<locked>FALSE</locked>
													</track>
													<track TL.SQTrackShy="0" TL.SQTrackExpandedHeight="25" TL.SQTrackExpanded="0" MZ.TrackTargeted="0">
														<clipitem id="clipitem-591">
															<masterclipid>masterclip-222</masterclipid>
															<name>Sugar and Sparrow</name>
															<enabled>TRUE</enabled>
															<duration>5844</duration>
															<rate>
																<timebase>30</timebase>
																<ntsc>TRUE</ntsc>
															</rate>
															<start>0</start>
															<end>2616</end>
															<in>0</in>
															<out>2616</out>
															<pproTicksIn>0</pproTicksIn>
															<pproTicksOut>22172345395200</pproTicksOut>
															<alphatype>straight</alphatype>
															<pixelaspectratio>square</pixelaspectratio>
															<anamorphic>FALSE</anamorphic>
															<file id="file-191">
																<name>1080/AE Attribution.aep</name>
																<pathurl>file://localhost/Volumes/ATM%201/EYE%20CANDY/Project%20Template/5_Assets/AE%20Attribution.aep</pathurl>
																<rate>
																	<timebase>30</timebase>
																	<ntsc>TRUE</ntsc>
																</rate>
																<duration>5844</duration>
																<timecode>
																	<rate>
																		<timebase>30</timebase>
																		<ntsc>TRUE</ntsc>
																	</rate>
																	<string>00;00;00;00</string>
																	<frame>0</frame>
																	<displayformat>DF</displayformat>
																</timecode>
																<media>
																	<video>
																		<samplecharacteristics>
																			<rate>
																				<timebase>30</timebase>
																				<ntsc>TRUE</ntsc>
																			</rate>
																			<width>1920</width>
																			<height>1080</height>
																			<anamorphic>FALSE</anamorphic>
																			<pixelaspectratio>square</pixelaspectratio>
																			<fielddominance>lower</fielddominance>
																		</samplecharacteristics>
																	</video>
																</media>
															</file>
															<logginginfo>
																<description></description>
																<scene></scene>
																<shottake></shottake>
																<lognote></lognote>
																<good></good>
																<originalvideofilename></originalvideofilename>
																<originalaudiofilename></originalaudiofilename>
															</logginginfo>
															<colorinfo>
																<lut></lut>
																<lut1></lut1>
																<asc_sop></asc_sop>
																<asc_sat></asc_sat>
																<lut2></lut2>
															</colorinfo>
															<labels>
																<label2>Rose</label2>
															</labels>
														</clipitem>
														<enabled>TRUE</enabled>
														<locked>FALSE</locked>
													</track>
													<track TL.SQTrackShy="0" TL.SQTrackExpandedHeight="25" TL.SQTrackExpanded="0" MZ.TrackTargeted="0">
														<enabled>TRUE</enabled>
														<locked>FALSE</locked>
													</track>
													<track TL.SQTrackShy="0" TL.SQTrackExpandedHeight="25" TL.SQTrackExpanded="0" MZ.TrackTargeted="0">
														<enabled>TRUE</enabled>
														<locked>FALSE</locked>
													</track>
													<track TL.SQTrackShy="0" TL.SQTrackExpandedHeight="25" TL.SQTrackExpanded="0" MZ.TrackTargeted="0">
														<enabled>TRUE</enabled>
														<locked>FALSE</locked>
													</track>
													<track TL.SQTrackShy="0" TL.SQTrackExpandedHeight="25" TL.SQTrackExpanded="0" MZ.TrackTargeted="0">
														<enabled>TRUE</enabled>
														<locked>FALSE</locked>
													</track>
													<track TL.SQTrackShy="0" TL.SQTrackExpandedHeight="25" TL.SQTrackExpanded="0" MZ.TrackTargeted="0">
														<enabled>TRUE</enabled>
														<locked>FALSE</locked>
													</track>
													<track TL.SQTrackShy="0" TL.SQTrackExpandedHeight="25" TL.SQTrackExpanded="0" MZ.TrackTargeted="0">
														<enabled>TRUE</enabled>
														<locked>FALSE</locked>
													</track>
													<track TL.SQTrackShy="0" TL.SQTrackExpandedHeight="25" TL.SQTrackExpanded="0" MZ.TrackTargeted="0">
														<enabled>TRUE</enabled>
														<locked>FALSE</locked>
													</track>
													<track TL.SQTrackShy="0" TL.SQTrackExpandedHeight="25" TL.SQTrackExpanded="0" MZ.TrackTargeted="0">
														<enabled>TRUE</enabled>
														<locked>FALSE</locked>
													</track>
												</video>
												<audio>
													<numOutputChannels>2</numOutputChannels>
													<format>
														<samplecharacteristics>
															<depth>16</depth>
															<samplerate>48000</samplerate>
														</samplecharacteristics>
													</format>
													<outputs>
														<group>
															<index>1</index>
															<numchannels>1</numchannels>
															<downmix>0</downmix>
															<channel>
																<index>1</index>
															</channel>
														</group>
														<group>
															<index>2</index>
															<numchannels>1</numchannels>
															<downmix>0</downmix>
															<channel>
																<index>2</index>
															</channel>
														</group>
													</outputs>
													<track TL.SQTrackAudioKeyframeStyle="0" TL.SQTrackShy="0" TL.SQTrackExpandedHeight="25" TL.SQTrackExpanded="0" MZ.TrackTargeted="1" PannerCurrentValue="0.5" PannerIsInverted="true" PannerStartKeyframe="-91445760000000000,0.5,0,0,0,0,0,0" PannerName="Balance" currentExplodedTrackIndex="0" totalExplodedTrackCount="2" premiereTrackType="Stereo">
														<clipitem id="clipitem-592" premiereChannelType="stereo">
															<masterclipid>masterclip-223</masterclipid>
															<name>ES_Sunset Fever - Forever Sunset.mp3</name>
															<enabled>TRUE</enabled>
															<duration>6246</duration>
															<rate>
																<timebase>30</timebase>
																<ntsc>TRUE</ntsc>
															</rate>
															<start>0</start>
															<end>2616</end>
															<in>0</in>
															<out>2616</out>
															<pproTicksIn>0</pproTicksIn>
															<pproTicksOut>22172345395200</pproTicksOut>
															<file id="file-192">
																<name>ES_Sunset Fever - Forever Sunset.mp3</name>
																<pathurl>file://localhost/Volumes/CONTENT/VOD%20CONTENT%20ARCHIVE/O&amp;O%20Archive%202023/Eye%20Candy/8%3a14%3a23/4_Project%20Files/Adobe%20Premiere%20Pro%20Video%20Previews/8%3a14%3a23.PRV/../../../3_Raw%20Files/Artlist%20-%20Chocolate%20Pistachio%20Treat/../../5_Assets/Music/ES_Sunset%20Fever%20-%20Forever%20Sunset.mp3</pathurl>
																<rate>
																	<timebase>30</timebase>
																	<ntsc>TRUE</ntsc>
																</rate>
																<duration>6246</duration>
																<timecode>
																	<rate>
																		<timebase>30</timebase>
																		<ntsc>TRUE</ntsc>
																	</rate>
																	<string>00;00;00;00</string>
																	<frame>0</frame>
																	<displayformat>DF</displayformat>
																</timecode>
																<media>
																	<audio>
																		<samplecharacteristics>
																			<depth>16</depth>
																			<samplerate>48000</samplerate>
																		</samplecharacteristics>
																		<channelcount>2</channelcount>
																	</audio>
																</media>
															</file>
															<sourcetrack>
																<mediatype>audio</mediatype>
																<trackindex>1</trackindex>
															</sourcetrack>
															<link>
																<linkclipref>clipitem-592</linkclipref>
																<mediatype>audio</mediatype>
																<trackindex>1</trackindex>
																<clipindex>1</clipindex>
																<groupindex>1</groupindex>
															</link>
															<link>
																<linkclipref>clipitem-593</linkclipref>
																<mediatype>audio</mediatype>
																<trackindex>2</trackindex>
																<clipindex>1</clipindex>
																<groupindex>1</groupindex>
															</link>
															<logginginfo>
																<description></description>
																<scene></scene>
																<shottake></shottake>
																<lognote></lognote>
																<good></good>
																<originalvideofilename></originalvideofilename>
																<originalaudiofilename></originalaudiofilename>
															</logginginfo>
															<colorinfo>
																<lut></lut>
																<lut1></lut1>
																<asc_sop></asc_sop>
																<asc_sat></asc_sat>
																<lut2></lut2>
															</colorinfo>
															<labels>
																<label2>Caribbean</label2>
															</labels>
														</clipitem>
														<enabled>TRUE</enabled>
														<locked>FALSE</locked>
														<filter>
															<effect>
																<name>Audio Levels</name>
																<effectid>audiolevels</effectid>
																<effectcategory>audiolevels</effectcategory>
																<effecttype>audiolevels</effecttype>
																<mediatype>audio</mediatype>
																<parameter authoringApp="PremierePro">
																	<parameterid>level</parameterid>
																	<name>Level</name>
																	<valuemin>0</valuemin>
																	<valuemax>3.98109</valuemax>
																	<value>0.706272</value>
																</parameter>
															</effect>
														</filter>
														<outputchannelindex>1</outputchannelindex>
													</track>
													<track TL.SQTrackAudioKeyframeStyle="0" TL.SQTrackShy="0" TL.SQTrackExpandedHeight="25" TL.SQTrackExpanded="0" MZ.TrackTargeted="1" PannerCurrentValue="0.5" PannerIsInverted="true" PannerStartKeyframe="-91445760000000000,0.5,0,0,0,0,0,0" PannerName="Balance" currentExplodedTrackIndex="1" totalExplodedTrackCount="2" premiereTrackType="Stereo">
														<clipitem id="clipitem-593" premiereChannelType="stereo">
															<masterclipid>masterclip-223</masterclipid>
															<name>ES_Sunset Fever - Forever Sunset.mp3</name>
															<enabled>TRUE</enabled>
															<duration>6246</duration>
															<rate>
																<timebase>30</timebase>
																<ntsc>TRUE</ntsc>
															</rate>
															<start>0</start>
															<end>2616</end>
															<in>0</in>
															<out>2616</out>
															<pproTicksIn>0</pproTicksIn>
															<pproTicksOut>22172345395200</pproTicksOut>
															<file id="file-192"/>
															<sourcetrack>
																<mediatype>audio</mediatype>
																<trackindex>2</trackindex>
															</sourcetrack>
															<link>
																<linkclipref>clipitem-592</linkclipref>
																<mediatype>audio</mediatype>
																<trackindex>1</trackindex>
																<clipindex>1</clipindex>
																<groupindex>1</groupindex>
															</link>
															<link>
																<linkclipref>clipitem-593</linkclipref>
																<mediatype>audio</mediatype>
																<trackindex>2</trackindex>
																<clipindex>1</clipindex>
																<groupindex>1</groupindex>
															</link>
															<logginginfo>
																<description></description>
																<scene></scene>
																<shottake></shottake>
																<lognote></lognote>
																<good></good>
																<originalvideofilename></originalvideofilename>
																<originalaudiofilename></originalaudiofilename>
															</logginginfo>
															<colorinfo>
																<lut></lut>
																<lut1></lut1>
																<asc_sop></asc_sop>
																<asc_sat></asc_sat>
																<lut2></lut2>
															</colorinfo>
															<labels>
																<label2>Caribbean</label2>
															</labels>
														</clipitem>
														<enabled>TRUE</enabled>
														<locked>FALSE</locked>
														<filter>
															<effect>
																<name>Audio Levels</name>
																<effectid>audiolevels</effectid>
																<effectcategory>audiolevels</effectcategory>
																<effecttype>audiolevels</effecttype>
																<mediatype>audio</mediatype>
																<parameter authoringApp="PremierePro">
																	<parameterid>level</parameterid>
																	<name>Level</name>
																	<valuemin>0</valuemin>
																	<valuemax>3.98109</valuemax>
																	<value>0.706272</value>
																</parameter>
															</effect>
														</filter>
														<outputchannelindex>2</outputchannelindex>
													</track>
													<track TL.SQTrackAudioKeyframeStyle="0" TL.SQTrackShy="0" TL.SQTrackExpandedHeight="25" TL.SQTrackExpanded="0" MZ.TrackTargeted="0" PannerCurrentValue="0.5" PannerIsInverted="true" PannerStartKeyframe="-91445760000000000,0.5,0,0,0,0,0,0" PannerName="Balance" currentExplodedTrackIndex="0" totalExplodedTrackCount="2" premiereTrackType="Stereo">
														<enabled>TRUE</enabled>
														<locked>FALSE</locked>
														<outputchannelindex>1</outputchannelindex>
													</track>
													<track TL.SQTrackAudioKeyframeStyle="0" TL.SQTrackShy="0" TL.SQTrackExpandedHeight="25" TL.SQTrackExpanded="0" MZ.TrackTargeted="0" PannerCurrentValue="0.5" PannerIsInverted="true" PannerStartKeyframe="-91445760000000000,0.5,0,0,0,0,0,0" PannerName="Balance" currentExplodedTrackIndex="1" totalExplodedTrackCount="2" premiereTrackType="Stereo">
														<enabled>TRUE</enabled>
														<locked>FALSE</locked>
														<outputchannelindex>2</outputchannelindex>
													</track>
													<track TL.SQTrackAudioKeyframeStyle="0" TL.SQTrackShy="0" TL.SQTrackExpandedHeight="25" TL.SQTrackExpanded="0" MZ.TrackTargeted="0" PannerCurrentValue="0.5" PannerIsInverted="true" PannerStartKeyframe="-91445760000000000,0.5,0,0,0,0,0,0" PannerName="Balance" currentExplodedTrackIndex="0" totalExplodedTrackCount="2" premiereTrackType="Stereo">
														<enabled>TRUE</enabled>
														<locked>FALSE</locked>
														<outputchannelindex>1</outputchannelindex>
													</track>
													<track TL.SQTrackAudioKeyframeStyle="0" TL.SQTrackShy="0" TL.SQTrackExpandedHeight="25" TL.SQTrackExpanded="0" MZ.TrackTargeted="0" PannerCurrentValue="0.5" PannerIsInverted="true" PannerStartKeyframe="-91445760000000000,0.5,0,0,0,0,0,0" PannerName="Balance" currentExplodedTrackIndex="1" totalExplodedTrackCount="2" premiereTrackType="Stereo">
														<enabled>TRUE</enabled>
														<locked>FALSE</locked>
														<outputchannelindex>2</outputchannelindex>
													</track>
													<track TL.SQTrackAudioKeyframeStyle="0" TL.SQTrackShy="0" TL.SQTrackExpandedHeight="25" TL.SQTrackExpanded="0" MZ.TrackTargeted="0" PannerCurrentValue="0.5" PannerIsInverted="true" PannerStartKeyframe="-91445760000000000,0.5,0,0,0,0,0,0" PannerName="Balance" currentExplodedTrackIndex="0" totalExplodedTrackCount="2" premiereTrackType="Stereo">
														<enabled>TRUE</enabled>
														<locked>FALSE</locked>
														<outputchannelindex>1</outputchannelindex>
													</track>
													<track TL.SQTrackAudioKeyframeStyle="0" TL.SQTrackShy="0" TL.SQTrackExpandedHeight="25" TL.SQTrackExpanded="0" MZ.TrackTargeted="0" PannerCurrentValue="0.5" PannerIsInverted="true" PannerStartKeyframe="-91445760000000000,0.5,0,0,0,0,0,0" PannerName="Balance" currentExplodedTrackIndex="1" totalExplodedTrackCount="2" premiereTrackType="Stereo">
														<enabled>TRUE</enabled>
														<locked>FALSE</locked>
														<outputchannelindex>2</outputchannelindex>
													</track>
													<track TL.SQTrackAudioKeyframeStyle="0" TL.SQTrackShy="0" TL.SQTrackExpandedHeight="25" TL.SQTrackExpanded="0" MZ.TrackTargeted="0" PannerCurrentValue="0.5" PannerIsInverted="true" PannerStartKeyframe="-91445760000000000,0.5,0,0,0,0,0,0" PannerName="Balance" currentExplodedTrackIndex="0" totalExplodedTrackCount="2" premiereTrackType="Stereo">
														<enabled>TRUE</enabled>
														<locked>FALSE</locked>
														<outputchannelindex>1</outputchannelindex>
													</track>
													<track TL.SQTrackAudioKeyframeStyle="0" TL.SQTrackShy="0" TL.SQTrackExpandedHeight="25" TL.SQTrackExpanded="0" MZ.TrackTargeted="0" PannerCurrentValue="0.5" PannerIsInverted="true" PannerStartKeyframe="-91445760000000000,0.5,0,0,0,0,0,0" PannerName="Balance" currentExplodedTrackIndex="1" totalExplodedTrackCount="2" premiereTrackType="Stereo">
														<enabled>TRUE</enabled>
														<locked>FALSE</locked>
														<outputchannelindex>2</outputchannelindex>
													</track>
													<track TL.SQTrackAudioKeyframeStyle="0" TL.SQTrackShy="0" TL.SQTrackExpandedHeight="25" TL.SQTrackExpanded="0" MZ.TrackTargeted="0" PannerCurrentValue="0.5" PannerIsInverted="true" PannerStartKeyframe="-91445760000000000,0.5,0,0,0,0,0,0" PannerName="Balance" currentExplodedTrackIndex="0" totalExplodedTrackCount="2" premiereTrackType="Stereo">
														<enabled>TRUE</enabled>
														<locked>FALSE</locked>
														<outputchannelindex>1</outputchannelindex>
													</track>
													<track TL.SQTrackAudioKeyframeStyle="0" TL.SQTrackShy="0" TL.SQTrackExpandedHeight="25" TL.SQTrackExpanded="0" MZ.TrackTargeted="0" PannerCurrentValue="0.5" PannerIsInverted="true" PannerStartKeyframe="-91445760000000000,0.5,0,0,0,0,0,0" PannerName="Balance" currentExplodedTrackIndex="1" totalExplodedTrackCount="2" premiereTrackType="Stereo">
														<enabled>TRUE</enabled>
														<locked>FALSE</locked>
														<outputchannelindex>2</outputchannelindex>
													</track>
													<track TL.SQTrackAudioKeyframeStyle="0" TL.SQTrackShy="0" TL.SQTrackExpandedHeight="25" TL.SQTrackExpanded="0" MZ.TrackTargeted="0" PannerCurrentValue="0.5" PannerIsInverted="true" PannerStartKeyframe="-91445760000000000,0.5,0,0,0,0,0,0" PannerName="Balance" currentExplodedTrackIndex="0" totalExplodedTrackCount="2" premiereTrackType="Stereo">
														<enabled>TRUE</enabled>
														<locked>FALSE</locked>
														<outputchannelindex>1</outputchannelindex>
													</track>
													<track TL.SQTrackAudioKeyframeStyle="0" TL.SQTrackShy="0" TL.SQTrackExpandedHeight="25" TL.SQTrackExpanded="0" MZ.TrackTargeted="0" PannerCurrentValue="0.5" PannerIsInverted="true" PannerStartKeyframe="-91445760000000000,0.5,0,0,0,0,0,0" PannerName="Balance" currentExplodedTrackIndex="1" totalExplodedTrackCount="2" premiereTrackType="Stereo">
														<enabled>TRUE</enabled>
														<locked>FALSE</locked>
														<outputchannelindex>2</outputchannelindex>
													</track>
													<track TL.SQTrackAudioKeyframeStyle="0" TL.SQTrackShy="0" TL.SQTrackExpandedHeight="25" TL.SQTrackExpanded="0" MZ.TrackTargeted="0" PannerCurrentValue="0.5" PannerIsInverted="true" PannerStartKeyframe="-91445760000000000,0.5,0,0,0,0,0,0" PannerName="Balance" currentExplodedTrackIndex="0" totalExplodedTrackCount="2" premiereTrackType="Stereo">
														<enabled>TRUE</enabled>
														<locked>FALSE</locked>
														<outputchannelindex>1</outputchannelindex>
													</track>
													<track TL.SQTrackAudioKeyframeStyle="0" TL.SQTrackShy="0" TL.SQTrackExpandedHeight="25" TL.SQTrackExpanded="0" MZ.TrackTargeted="0" PannerCurrentValue="0.5" PannerIsInverted="true" PannerStartKeyframe="-91445760000000000,0.5,0,0,0,0,0,0" PannerName="Balance" currentExplodedTrackIndex="1" totalExplodedTrackCount="2" premiereTrackType="Stereo">
														<enabled>TRUE</enabled>
														<locked>FALSE</locked>
														<outputchannelindex>2</outputchannelindex>
													</track>
													<track TL.SQTrackAudioKeyframeStyle="0" TL.SQTrackShy="0" TL.SQTrackExpandedHeight="25" TL.SQTrackExpanded="0" MZ.TrackTargeted="0" PannerCurrentValue="0.5" PannerIsInverted="true" PannerStartKeyframe="-91445760000000000,0.5,0,0,0,0,0,0" PannerName="Balance" currentExplodedTrackIndex="0" totalExplodedTrackCount="2" premiereTrackType="Stereo">
														<enabled>TRUE</enabled>
														<locked>FALSE</locked>
														<outputchannelindex>1</outputchannelindex>
													</track>
													<track TL.SQTrackAudioKeyframeStyle="0" TL.SQTrackShy="0" TL.SQTrackExpandedHeight="25" TL.SQTrackExpanded="0" MZ.TrackTargeted="0" PannerCurrentValue="0.5" PannerIsInverted="true" PannerStartKeyframe="-91445760000000000,0.5,0,0,0,0,0,0" PannerName="Balance" currentExplodedTrackIndex="1" totalExplodedTrackCount="2" premiereTrackType="Stereo">
														<enabled>TRUE</enabled>
														<locked>FALSE</locked>
														<outputchannelindex>2</outputchannelindex>
													</track>
													<track TL.SQTrackAudioKeyframeStyle="0" TL.SQTrackShy="0" TL.SQTrackExpandedHeight="25" TL.SQTrackExpanded="0" MZ.TrackTargeted="0" PannerCurrentValue="0.5" PannerIsInverted="true" PannerStartKeyframe="-91445760000000000,0.5,0,0,0,0,0,0" PannerName="Balance" currentExplodedTrackIndex="0" totalExplodedTrackCount="2" premiereTrackType="Stereo">
														<enabled>TRUE</enabled>
														<locked>FALSE</locked>
														<outputchannelindex>1</outputchannelindex>
													</track>
													<track TL.SQTrackAudioKeyframeStyle="0" TL.SQTrackShy="0" TL.SQTrackExpandedHeight="25" TL.SQTrackExpanded="0" MZ.TrackTargeted="0" PannerCurrentValue="0.5" PannerIsInverted="true" PannerStartKeyframe="-91445760000000000,0.5,0,0,0,0,0,0" PannerName="Balance" currentExplodedTrackIndex="1" totalExplodedTrackCount="2" premiereTrackType="Stereo">
														<enabled>TRUE</enabled>
														<locked>FALSE</locked>
														<outputchannelindex>2</outputchannelindex>
													</track>
												</audio>
											</media>
											<timecode>
												<rate>
													<timebase>30</timebase>
													<ntsc>TRUE</ntsc>
												</rate>
												<string>00;00;00;00</string>
												<frame>0</frame>
												<displayformat>DF</displayformat>
											</timecode>
											<logginginfo>
												<description></description>
												<scene></scene>
												<shottake></shottake>
												<lognote></lognote>
												<good></good>
												<originalvideofilename></originalvideofilename>
												<originalaudiofilename></originalaudiofilename>
											</logginginfo>
										</sequence>
										<link>
											<linkclipref>clipitem-581</linkclipref>
											<mediatype>video</mediatype>
											<trackindex>1</trackindex>
											<clipindex>1</clipindex>
										</link>
										<link>
											<linkclipref>clipitem-621</linkclipref>
											<mediatype>audio</mediatype>
											<trackindex>1</trackindex>
											<clipindex>1</clipindex>
											<groupindex>1</groupindex>
										</link>
										<link>
											<linkclipref>clipitem-623</linkclipref>
											<mediatype>audio</mediatype>
											<trackindex>2</trackindex>
											<clipindex>1</clipindex>
											<groupindex>1</groupindex>
										</link>
										<labels>
											<label2>Forest</label2>
										</labels>
									</clipitem>
									<clipitem id="clipitem-594">
										<masterclipid>masterclip-224</masterclipid>
										<name>Cotton Candy Creations_1.5</name>
										<enabled>TRUE</enabled>
										<duration>5700</duration>
										<rate>
											<timebase>30</timebase>
											<ntsc>TRUE</ntsc>
										</rate>
										<start>2698</start>
										<end>5147</end>
										<in>0</in>
										<out>2449</out>
										<pproTicksIn>0</pproTicksIn>
										<pproTicksOut>20756908972800</pproTicksOut>
										<sequence id="sequence-44" TL.SQAudioVisibleBase="0" TL.SQVideoVisibleBase="0" TL.SQVisibleBaseTime="0" TL.SQAVDividerPosition="0.5" TL.SQHideShyTracks="0" TL.SQHeaderWidth="236" TL.SQDataTrackViewControlState="0" Monitor.ProgramZoomOut="20756908972800" Monitor.ProgramZoomIn="0" TL.SQTimePerPixel="0.0011122222220253841" AM.TrackVScrollPosition="0" AM.TrackScrollPosition="0" MZ.EditLine="12993197817600" MZ.Sequence.PreviewFrameSizeHeight="1080" MZ.Sequence.PreviewFrameSizeWidth="1920" MZ.Sequence.AudioTimeDisplayFormat="200" MZ.Sequence.PreviewRenderingClassID="1061109567" MZ.Sequence.PreviewRenderingPresetCodec="1634755443" MZ.Sequence.PreviewRenderingPresetPath="EncoderPresets/SequencePreview/35d109db-457b-43c1-9452-9cb7be9f121c/QuickTime.epr" MZ.Sequence.PreviewUseMaxRenderQuality="false" MZ.Sequence.PreviewUseMaxBitDepth="false" MZ.Sequence.EditingModeGUID="35d109db-457b-43c1-9452-9cb7be9f121c" MZ.Sequence.VideoTimeDisplayFormat="102" MZ.WorkOutPoint="1262874412800" MZ.WorkInPoint="0">
											<duration>2449</duration>
											<rate>
												<timebase>30</timebase>
												<ntsc>TRUE</ntsc>
											</rate>
											<name>FND_Cotton Candy Creations_1.5</name>
											<media>
												<video>
													<format>
														<samplecharacteristics>
															<rate>
																<timebase>30</timebase>
																<ntsc>TRUE</ntsc>
															</rate>
															<codec>
																<name>Apple ProRes 422</name>
																<appspecificdata>
																	<appname>Final Cut Pro</appname>
																	<appmanufacturer>Apple Inc.</appmanufacturer>
																	<appversion>7.0</appversion>
																	<data>
																		<qtcodec>
																			<codecname>Apple ProRes 422</codecname>
																			<codectypename>Apple ProRes 422</codectypename>
																			<codectypecode>apcn</codectypecode>
																			<codecvendorcode>appl</codecvendorcode>
																			<spatialquality>1024</spatialquality>
																			<temporalquality>0</temporalquality>
																			<keyframerate>0</keyframerate>
																			<datarate>0</datarate>
																		</qtcodec>
																	</data>
																</appspecificdata>
															</codec>
															<width>1920</width>
															<height>1080</height>
															<anamorphic>FALSE</anamorphic>
															<pixelaspectratio>square</pixelaspectratio>
															<fielddominance>none</fielddominance>
															<colordepth>24</colordepth>
														</samplecharacteristics>
													</format>
													<track TL.SQTrackShy="0" TL.SQTrackExpandedHeight="25" TL.SQTrackExpanded="0" MZ.TrackTargeted="1">
														<clipitem id="clipitem-595">
															<masterclipid>masterclip-225</masterclipid>
															<name>(allyoucansweet)_7071304615676874030_TT.mp4</name>
															<enabled>TRUE</enabled>
															<duration>1648</duration>
															<rate>
																<timebase>30</timebase>
																<ntsc>TRUE</ntsc>
															</rate>
															<start>0</start>
															<end>107</end>
															<in>175</in>
															<out>282</out>
															<pproTicksIn>1483241760000</pproTicksIn>
															<pproTicksOut>2390138150400</pproTicksOut>
															<alphatype>none</alphatype>
															<pixelaspectratio>square</pixelaspectratio>
															<anamorphic>FALSE</anamorphic>
															<file id="file-193">
																<name>(allyoucansweet)_7071304615676874030_TT.mp4</name>
																<pathurl>file://localhost/Volumes/CONTENT/VOD%20CONTENT%20ARCHIVE/O&amp;O%20Archive%202023/Eye%20Candy/8%3a14%3a23/4_Project%20Files/Adobe%20Premiere%20Pro%20Video%20Previews/8%3a14%3a23.PRV/../../../3_Raw%20Files/Artlist%20-%20Chocolate%20Pistachio%20Treat/../../5_Assets/Music/../../3_Raw%20Files/cotton%20candy%20flavor/(allyoucansweet)_7071304615676874030_TT.mp4</pathurl>
																<rate>
																	<timebase>30</timebase>
																	<ntsc>FALSE</ntsc>
																</rate>
																<duration>1650</duration>
																<timecode>
																	<rate>
																		<timebase>30</timebase>
																		<ntsc>FALSE</ntsc>
																	</rate>
																	<string>00:00:00:00</string>
																	<frame>0</frame>
																	<displayformat>NDF</displayformat>
																</timecode>
																<media>
																	<video>
																		<samplecharacteristics>
																			<rate>
																				<timebase>30</timebase>
																				<ntsc>FALSE</ntsc>
																			</rate>
																			<width>576</width>
																			<height>1024</height>
																			<anamorphic>FALSE</anamorphic>
																			<pixelaspectratio>square</pixelaspectratio>
																			<fielddominance>none</fielddominance>
																		</samplecharacteristics>
																	</video>
																	<audio>
																		<samplecharacteristics>
																			<depth>16</depth>
																			<samplerate>44100</samplerate>
																		</samplecharacteristics>
																		<channelcount>2</channelcount>
																	</audio>
																</media>
															</file>
															<logginginfo>
																<description></description>
																<scene></scene>
																<shottake></shottake>
																<lognote></lognote>
																<good></good>
																<originalvideofilename></originalvideofilename>
																<originalaudiofilename></originalaudiofilename>
															</logginginfo>
															<colorinfo>
																<lut></lut>
																<lut1></lut1>
																<asc_sop></asc_sop>
																<asc_sat></asc_sat>
																<lut2></lut2>
															</colorinfo>
															<labels>
																<label2>Violet</label2>
															</labels>
														</clipitem>
														<clipitem id="clipitem-596">
															<masterclipid>masterclip-225</masterclipid>
															<name>(allyoucansweet)_7071304615676874030_TT.mp4</name>
															<enabled>TRUE</enabled>
															<duration>1648</duration>
															<rate>
																<timebase>30</timebase>
																<ntsc>TRUE</ntsc>
															</rate>
															<start>107</start>
															<end>147</end>
															<in>602</in>
															<out>642</out>
															<pproTicksIn>5102351654400</pproTicksIn>
															<pproTicksOut>5441378342400</pproTicksOut>
															<alphatype>none</alphatype>
															<file id="file-193"/>
															<logginginfo>
																<description></description>
																<scene></scene>
																<shottake></shottake>
																<lognote></lognote>
																<good></good>
																<originalvideofilename></originalvideofilename>
																<originalaudiofilename></originalaudiofilename>
															</logginginfo>
															<colorinfo>
																<lut></lut>
																<lut1></lut1>
																<asc_sop></asc_sop>
																<asc_sat></asc_sat>
																<lut2></lut2>
															</colorinfo>
															<labels>
																<label2>Violet</label2>
															</labels>
														</clipitem>
														<clipitem id="clipitem-597">
															<masterclipid>masterclip-225</masterclipid>
															<name>(allyoucansweet)_7071304615676874030_TT.mp4</name>
															<enabled>TRUE</enabled>
															<duration>1648</duration>
															<rate>
																<timebase>30</timebase>
																<ntsc>TRUE</ntsc>
															</rate>
															<start>147</start>
															<end>247</end>
															<in>658</in>
															<out>758</out>
															<pproTicksIn>5576989017600</pproTicksIn>
															<pproTicksOut>6424555737600</pproTicksOut>
															<alphatype>none</alphatype>
															<file id="file-193"/>
															<logginginfo>
																<description></description>
																<scene></scene>
																<shottake></shottake>
																<lognote></lognote>
																<good></good>
																<originalvideofilename></originalvideofilename>
																<originalaudiofilename></originalaudiofilename>
															</logginginfo>
															<colorinfo>
																<lut></lut>
																<lut1></lut1>
																<asc_sop></asc_sop>
																<asc_sat></asc_sat>
																<lut2></lut2>
															</colorinfo>
															<labels>
																<label2>Violet</label2>
															</labels>
														</clipitem>
														<clipitem id="clipitem-598">
															<masterclipid>masterclip-225</masterclipid>
															<name>(allyoucansweet)_7071304615676874030_TT.mp4</name>
															<enabled>TRUE</enabled>
															<duration>1648</duration>
															<rate>
																<timebase>30</timebase>
																<ntsc>TRUE</ntsc>
															</rate>
															<start>247</start>
															<end>278</end>
															<in>816</in>
															<out>847</out>
															<pproTicksIn>6916144435200</pproTicksIn>
															<pproTicksOut>7178890118400</pproTicksOut>
															<alphatype>none</alphatype>
															<file id="file-193"/>
															<logginginfo>
																<description></description>
																<scene></scene>
																<shottake></shottake>
																<lognote></lognote>
																<good></good>
																<originalvideofilename></originalvideofilename>
																<originalaudiofilename></originalaudiofilename>
															</logginginfo>
															<colorinfo>
																<lut></lut>
																<lut1></lut1>
																<asc_sop></asc_sop>
																<asc_sat></asc_sat>
																<lut2></lut2>
															</colorinfo>
															<labels>
																<label2>Violet</label2>
															</labels>
														</clipitem>
														<clipitem id="clipitem-599">
															<masterclipid>masterclip-225</masterclipid>
															<name>(allyoucansweet)_7071304615676874030_TT.mp4</name>
															<enabled>TRUE</enabled>
															<duration>1648</duration>
															<rate>
																<timebase>30</timebase>
																<ntsc>TRUE</ntsc>
															</rate>
															<start>278</start>
															<end>342</end>
															<in>1035</in>
															<out>1099</out>
															<pproTicksIn>8772315552000</pproTicksIn>
															<pproTicksOut>9314758252800</pproTicksOut>
															<alphatype>none</alphatype>
															<file id="file-193"/>
															<logginginfo>
																<description></description>
																<scene></scene>
																<shottake></shottake>
																<lognote></lognote>
																<good></good>
																<originalvideofilename></originalvideofilename>
																<originalaudiofilename></originalaudiofilename>
															</logginginfo>
															<colorinfo>
																<lut></lut>
																<lut1></lut1>
																<asc_sop></asc_sop>
																<asc_sat></asc_sat>
																<lut2></lut2>
															</colorinfo>
															<labels>
																<label2>Violet</label2>
															</labels>
														</clipitem>
														<clipitem id="clipitem-600">
															<masterclipid>masterclip-225</masterclipid>
															<name>(allyoucansweet)_7071304615676874030_TT.mp4</name>
															<enabled>TRUE</enabled>
															<duration>1648</duration>
															<rate>
																<timebase>30</timebase>
																<ntsc>TRUE</ntsc>
															</rate>
															<start>342</start>
															<end>407</end>
															<in>1105</in>
															<out>1170</out>
															<pproTicksIn>9365612256000</pproTicksIn>
															<pproTicksOut>9916530624000</pproTicksOut>
															<alphatype>none</alphatype>
															<file id="file-193"/>
															<logginginfo>
																<description></description>
																<scene></scene>
																<shottake></shottake>
																<lognote></lognote>
																<good></good>
																<originalvideofilename></originalvideofilename>
																<originalaudiofilename></originalaudiofilename>
															</logginginfo>
															<colorinfo>
																<lut></lut>
																<lut1></lut1>
																<asc_sop></asc_sop>
																<asc_sat></asc_sat>
																<lut2></lut2>
															</colorinfo>
															<labels>
																<label2>Violet</label2>
															</labels>
														</clipitem>
														<clipitem id="clipitem-601">
															<masterclipid>masterclip-225</masterclipid>
															<name>(allyoucansweet)_7071304615676874030_TT.mp4</name>
															<enabled>TRUE</enabled>
															<duration>1648</duration>
															<rate>
																<timebase>30</timebase>
																<ntsc>TRUE</ntsc>
															</rate>
															<start>407</start>
															<end>479</end>
															<in>1208</in>
															<out>1280</out>
															<pproTicksIn>10238605977600</pproTicksIn>
															<pproTicksOut>10848854016000</pproTicksOut>
															<alphatype>none</alphatype>
															<file id="file-193"/>
															<logginginfo>
																<description></description>
																<scene></scene>
																<shottake></shottake>
																<lognote></lognote>
																<good></good>
																<originalvideofilename></originalvideofilename>
																<originalaudiofilename></originalaudiofilename>
															</logginginfo>
															<colorinfo>
																<lut></lut>
																<lut1></lut1>
																<asc_sop></asc_sop>
																<asc_sat></asc_sat>
																<lut2></lut2>
															</colorinfo>
															<labels>
																<label2>Violet</label2>
															</labels>
														</clipitem>
														<clipitem id="clipitem-602">
															<masterclipid>masterclip-225</masterclipid>
															<name>(allyoucansweet)_7071304615676874030_TT.mp4</name>
															<enabled>TRUE</enabled>
															<duration>1648</duration>
															<rate>
																<timebase>30</timebase>
																<ntsc>TRUE</ntsc>
															</rate>
															<start>479</start>
															<end>588</end>
															<in>1400</in>
															<out>1509</out>
															<pproTicksIn>11865934080000</pproTicksIn>
															<pproTicksOut>12789781804800</pproTicksOut>
															<alphatype>none</alphatype>
															<file id="file-193"/>
															<logginginfo>
																<description></description>
																<scene></scene>
																<shottake></shottake>
																<lognote></lognote>
																<good></good>
																<originalvideofilename></originalvideofilename>
																<originalaudiofilename></originalaudiofilename>
															</logginginfo>
															<colorinfo>
																<lut></lut>
																<lut1></lut1>
																<asc_sop></asc_sop>
																<asc_sat></asc_sat>
																<lut2></lut2>
															</colorinfo>
															<labels>
																<label2>Violet</label2>
															</labels>
														</clipitem>
														<clipitem id="clipitem-603">
															<masterclipid>masterclip-226</masterclipid>
															<name>(stockmans_bbd)_CUmMBnGBvTm_IG.mp4</name>
															<enabled>TRUE</enabled>
															<duration>605</duration>
															<rate>
																<timebase>30</timebase>
																<ntsc>TRUE</ntsc>
															</rate>
															<start>588</start>
															<end>1104</end>
															<in>0</in>
															<out>516</out>
															<pproTicksIn>0</pproTicksIn>
															<pproTicksOut>4373444275200</pproTicksOut>
															<alphatype>none</alphatype>
															<pixelaspectratio>square</pixelaspectratio>
															<anamorphic>FALSE</anamorphic>
															<file id="file-194">
																<name>(stockmans_bbd)_CUmMBnGBvTm_IG.mp4</name>
																<pathurl>file://localhost/Volumes/CONTENT/VOD%20CONTENT%20ARCHIVE/O&amp;O%20Archive%202023/Eye%20Candy/8%3a14%3a23/4_Project%20Files/Adobe%20Premiere%20Pro%20Video%20Previews/8%3a14%3a23.PRV/../../../3_Raw%20Files/Artlist%20-%20Chocolate%20Pistachio%20Treat/../../5_Assets/Music/../../3_Raw%20Files/cotton%20candy%20flavor/(stockmans_bbd)_CUmMBnGBvTm_IG.mp4</pathurl>
																<rate>
																	<timebase>30</timebase>
																	<ntsc>FALSE</ntsc>
																</rate>
																<duration>606</duration>
																<timecode>
																	<rate>
																		<timebase>30</timebase>
																		<ntsc>FALSE</ntsc>
																	</rate>
																	<string>00:00:00:00</string>
																	<frame>0</frame>
																	<displayformat>NDF</displayformat>
																</timecode>
																<media>
																	<video>
																		<samplecharacteristics>
																			<rate>
																				<timebase>30</timebase>
																				<ntsc>FALSE</ntsc>
																			</rate>
																			<width>720</width>
																			<height>1280</height>
																			<anamorphic>FALSE</anamorphic>
																			<pixelaspectratio>square</pixelaspectratio>
																			<fielddominance>none</fielddominance>
																		</samplecharacteristics>
																	</video>
																	<audio>
																		<samplecharacteristics>
																			<depth>16</depth>
																			<samplerate>44100</samplerate>
																		</samplecharacteristics>
																		<channelcount>2</channelcount>
																	</audio>
																</media>
															</file>
															<logginginfo>
																<description></description>
																<scene></scene>
																<shottake></shottake>
																<lognote></lognote>
																<good></good>
																<originalvideofilename></originalvideofilename>
																<originalaudiofilename></originalaudiofilename>
															</logginginfo>
															<colorinfo>
																<lut></lut>
																<lut1></lut1>
																<asc_sop></asc_sop>
																<asc_sat></asc_sat>
																<lut2></lut2>
															</colorinfo>
															<labels>
																<label2>Violet</label2>
															</labels>
														</clipitem>
														<clipitem id="clipitem-604">
															<masterclipid>masterclip-227</masterclipid>
															<name>(amoretti)_Chs2i5WggmB_IG.mp4</name>
															<enabled>TRUE</enabled>
															<duration>494</duration>
															<rate>
																<timebase>30</timebase>
																<ntsc>TRUE</ntsc>
															</rate>
															<start>1104</start>
															<end>1539</end>
															<in>60</in>
															<out>495</out>
															<pproTicksIn>508540032000</pproTicksIn>
															<pproTicksOut>4195455264000</pproTicksOut>
															<alphatype>none</alphatype>
															<pixelaspectratio>square</pixelaspectratio>
															<anamorphic>FALSE</anamorphic>
															<file id="file-195">
																<name>(amoretti)_Chs2i5WggmB_IG.mp4</name>
																<pathurl>file://localhost/Volumes/CONTENT/VOD%20CONTENT%20ARCHIVE/O&amp;O%20Archive%202023/Eye%20Candy/8%3a14%3a23/4_Project%20Files/Adobe%20Premiere%20Pro%20Video%20Previews/8%3a14%3a23.PRV/../../../3_Raw%20Files/Artlist%20-%20Chocolate%20Pistachio%20Treat/../../5_Assets/Music/../../3_Raw%20Files/cotton%20candy%20flavor/(amoretti)_Chs2i5WggmB_IG.mp4</pathurl>
																<rate>
																	<timebase>30</timebase>
																	<ntsc>FALSE</ntsc>
																</rate>
																<duration>495</duration>
																<timecode>
																	<rate>
																		<timebase>30</timebase>
																		<ntsc>FALSE</ntsc>
																	</rate>
																	<string>00:00:00:00</string>
																	<frame>0</frame>
																	<displayformat>NDF</displayformat>
																</timecode>
																<media>
																	<video>
																		<samplecharacteristics>
																			<rate>
																				<timebase>30</timebase>
																				<ntsc>FALSE</ntsc>
																			</rate>
																			<width>720</width>
																			<height>1280</height>
																			<anamorphic>FALSE</anamorphic>
																			<pixelaspectratio>square</pixelaspectratio>
																			<fielddominance>none</fielddominance>
																		</samplecharacteristics>
																	</video>
																	<audio>
																		<samplecharacteristics>
																			<depth>16</depth>
																			<samplerate>44100</samplerate>
																		</samplecharacteristics>
																		<channelcount>2</channelcount>
																	</audio>
																</media>
															</file>
															<logginginfo>
																<description></description>
																<scene></scene>
																<shottake></shottake>
																<lognote></lognote>
																<good></good>
																<originalvideofilename></originalvideofilename>
																<originalaudiofilename></originalaudiofilename>
															</logginginfo>
															<colorinfo>
																<lut></lut>
																<lut1></lut1>
																<asc_sop></asc_sop>
																<asc_sat></asc_sat>
																<lut2></lut2>
															</colorinfo>
															<labels>
																<label2>Violet</label2>
															</labels>
														</clipitem>
														<clipitem id="clipitem-605">
															<masterclipid>masterclip-228</masterclipid>
															<name>(loganscandies)_7052070626793622831_TT.mp4</name>
															<enabled>TRUE</enabled>
															<duration>322</duration>
															<rate>
																<timebase>30</timebase>
																<ntsc>TRUE</ntsc>
															</rate>
															<start>1539</start>
															<end>1861</end>
															<in>0</in>
															<out>322</out>
															<pproTicksIn>0</pproTicksIn>
															<pproTicksOut>2729164838400</pproTicksOut>
															<alphatype>none</alphatype>
															<pixelaspectratio>square</pixelaspectratio>
															<anamorphic>FALSE</anamorphic>
															<file id="file-196">
																<name>(loganscandies)_7052070626793622831_TT.mp4</name>
																<pathurl>file://localhost/Volumes/CONTENT/VOD%20CONTENT%20ARCHIVE/O&amp;O%20Archive%202023/Eye%20Candy/8%3a14%3a23/4_Project%20Files/Adobe%20Premiere%20Pro%20Video%20Previews/8%3a14%3a23.PRV/../../../3_Raw%20Files/Artlist%20-%20Chocolate%20Pistachio%20Treat/../../5_Assets/Music/../../3_Raw%20Files/cotton%20candy%20flavor/(loganscandies)_7052070626793622831_TT.mp4</pathurl>
																<rate>
																	<timebase>30</timebase>
																	<ntsc>FALSE</ntsc>
																</rate>
																<duration>323</duration>
																<timecode>
																	<rate>
																		<timebase>30</timebase>
																		<ntsc>FALSE</ntsc>
																	</rate>
																	<string>00:00:00:00</string>
																	<frame>0</frame>
																	<displayformat>NDF</displayformat>
																</timecode>
																<media>
																	<video>
																		<samplecharacteristics>
																			<rate>
																				<timebase>30</timebase>
																				<ntsc>FALSE</ntsc>
																			</rate>
																			<width>576</width>
																			<height>1024</height>
																			<anamorphic>FALSE</anamorphic>
																			<pixelaspectratio>square</pixelaspectratio>
																			<fielddominance>none</fielddominance>
																		</samplecharacteristics>
																	</video>
																	<audio>
																		<samplecharacteristics>
																			<depth>16</depth>
																			<samplerate>44100</samplerate>
																		</samplecharacteristics>
																		<channelcount>2</channelcount>
																	</audio>
																</media>
															</file>
															<logginginfo>
																<description></description>
																<scene></scene>
																<shottake></shottake>
																<lognote></lognote>
																<good></good>
																<originalvideofilename></originalvideofilename>
																<originalaudiofilename></originalaudiofilename>
															</logginginfo>
															<colorinfo>
																<lut></lut>
																<lut1></lut1>
																<asc_sop></asc_sop>
																<asc_sat></asc_sat>
																<lut2></lut2>
															</colorinfo>
															<labels>
																<label2>Violet</label2>
															</labels>
														</clipitem>
														<clipitem id="clipitem-606">
															<masterclipid>masterclip-229</masterclipid>
															<name>(ryanwilsonbakes)_B0HQ1fuAIh__IG.mp4</name>
															<enabled>TRUE</enabled>
															<duration>573</duration>
															<rate>
																<timebase>30</timebase>
																<ntsc>TRUE</ntsc>
															</rate>
															<start>1861</start>
															<end>2353</end>
															<in>0</in>
															<out>492</out>
															<pproTicksIn>0</pproTicksIn>
															<pproTicksOut>9255428582400</pproTicksOut>
															<alphatype>none</alphatype>
															<pixelaspectratio>square</pixelaspectratio>
															<anamorphic>FALSE</anamorphic>
															<file id="file-197">
																<name>(ryanwilsonbakes)_B0HQ1fuAIh__IG.mp4</name>
																<pathurl>file://localhost/Volumes/CONTENT/VOD%20CONTENT%20ARCHIVE/O&amp;O%20Archive%202023/Eye%20Candy/8%3a14%3a23/4_Project%20Files/Adobe%20Premiere%20Pro%20Video%20Previews/8%3a14%3a23.PRV/../../../3_Raw%20Files/Artlist%20-%20Chocolate%20Pistachio%20Treat/../../5_Assets/Music/../../3_Raw%20Files/cotton%20candy%20flavor/(ryanwilsonbakes)_B0HQ1fuAIh__IG.mp4</pathurl>
																<rate>
																	<timebase>30</timebase>
																	<ntsc>FALSE</ntsc>
																</rate>
																<duration>1275</duration>
																<timecode>
																	<rate>
																		<timebase>30</timebase>
																		<ntsc>FALSE</ntsc>
																	</rate>
																	<string>00:00:00:00</string>
																	<frame>0</frame>
																	<displayformat>NDF</displayformat>
																</timecode>
																<media>
																	<video>
																		<samplecharacteristics>
																			<rate>
																				<timebase>30</timebase>
																				<ntsc>FALSE</ntsc>
																			</rate>
																			<width>720</width>
																			<height>720</height>
																			<anamorphic>FALSE</anamorphic>
																			<pixelaspectratio>square</pixelaspectratio>
																			<fielddominance>none</fielddominance>
																		</samplecharacteristics>
																	</video>
																	<audio>
																		<samplecharacteristics>
																			<depth>16</depth>
																			<samplerate>44100</samplerate>
																		</samplecharacteristics>
																		<channelcount>2</channelcount>
																	</audio>
																</media>
															</file>
															<filter>
																<effect>
																	<name>Basic Motion</name>
																	<effectid>basic</effectid>
																	<effectcategory>motion</effectcategory>
																	<effecttype>motion</effecttype>
																	<mediatype>video</mediatype>
																	<pproBypass>false</pproBypass>
																	<parameter authoringApp="PremierePro">
																		<parameterid>scale</parameterid>
																		<name>Scale</name>
																		<valuemin>0</valuemin>
																		<valuemax>1000</valuemax>
																		<value>100</value>
																	</parameter>
																	<parameter authoringApp="PremierePro">
																		<parameterid>rotation</parameterid>
																		<name>Rotation</name>
																		<valuemin>-8640</valuemin>
																		<valuemax>8640</valuemax>
																		<value>0</value>
																	</parameter>
																	<parameter authoringApp="PremierePro">
																		<parameterid>center</parameterid>
																		<name>Center</name>
																		<value>
																			<horiz>0.136111</horiz>
																			<vert>0</vert>
																		</value>
																	</parameter>
																	<parameter authoringApp="PremierePro">
																		<parameterid>centerOffset</parameterid>
																		<name>Anchor Point</name>
																		<value>
																			<horiz>0</horiz>
																			<vert>0</vert>
																		</value>
																	</parameter>
																	<parameter authoringApp="PremierePro">
																		<parameterid>antiflicker</parameterid>
																		<name>Anti-flicker Filter</name>
																		<valuemin>0.0</valuemin>
																		<valuemax>1.0</valuemax>
																		<value>0</value>
																	</parameter>
																</effect>
															</filter>
															<filter>
																<effect>
																	<name>Time Remap</name>
																	<effectid>timeremap</effectid>
																	<effectcategory>motion</effectcategory>
																	<effecttype>motion</effecttype>
																	<mediatype>video</mediatype>
																	<parameter authoringApp="PremierePro">
																		<parameterid>variablespeed</parameterid>
																		<name>variablespeed</name>
																		<valuemin>0</valuemin>
																		<valuemax>1</valuemax>
																		<value>0</value>
																	</parameter>
																	<parameter authoringApp="PremierePro">
																		<parameterid>speed</parameterid>
																		<name>speed</name>
																		<valuemin>-100000</valuemin>
																		<valuemax>100000</valuemax>
																		<value>221.951</value>
																	</parameter>
																	<parameter authoringApp="PremierePro">
																		<parameterid>reverse</parameterid>
																		<name>reverse</name>
																		<value>FALSE</value>
																	</parameter>
																	<parameter authoringApp="PremierePro">
																		<parameterid>frameblending</parameterid>
																		<name>frameblending</name>
																		<value>FALSE</value>
																	</parameter>
																	<parameter authoringApp="PremierePro">
																		<parameterid>graphdict</parameterid>
																		<name>graphdict</name>
																		<valuemin>0</valuemin>
																		<valuemax>1271</valuemax>
																		<value>0</value>
																		<keyframe>
																			<when>0</when>
																			<value>0</value>
																			<speedvirtualkf>TRUE</speedvirtualkf>
																			<speedkfin>TRUE</speedkfin>
																		</keyframe>
																		<keyframe>
																			<when>492</when>
																			<value>1091</value>
																			<speedvirtualkf>TRUE</speedvirtualkf>
																			<speedkfout>TRUE</speedkfout>
																		</keyframe>
																		<keyframe>
																			<when>573</when>
																			<value>1271</value>
																			<speedvirtualkf>TRUE</speedvirtualkf>
																			<speedkfend>TRUE</speedkfend>
																		</keyframe>
																		<interpolation>
																			<name>FCPCurve</name>
																		</interpolation>
																	</parameter>
																</effect>
															</filter>
															<logginginfo>
																<description></description>
																<scene></scene>
																<shottake></shottake>
																<lognote></lognote>
																<good></good>
																<originalvideofilename></originalvideofilename>
																<originalaudiofilename></originalaudiofilename>
															</logginginfo>
															<colorinfo>
																<lut></lut>
																<lut1></lut1>
																<asc_sop></asc_sop>
																<asc_sat></asc_sat>
																<lut2></lut2>
															</colorinfo>
															<labels>
																<label2>Violet</label2>
															</labels>
														</clipitem>
														<clipitem id="clipitem-607">
															<masterclipid>masterclip-229</masterclipid>
															<name>(ryanwilsonbakes)_B0HQ1fuAIh__IG.mp4</name>
															<enabled>TRUE</enabled>
															<duration>1273</duration>
															<rate>
																<timebase>30</timebase>
																<ntsc>TRUE</ntsc>
															</rate>
															<start>2353</start>
															<end>2449</end>
															<in>1173</in>
															<out>1269</out>
															<pproTicksIn>9941957625600</pproTicksIn>
															<pproTicksOut>10755621676800</pproTicksOut>
															<alphatype>none</alphatype>
															<file id="file-197"/>
															<filter>
																<effect>
																	<name>Basic Motion</name>
																	<effectid>basic</effectid>
																	<effectcategory>motion</effectcategory>
																	<effecttype>motion</effecttype>
																	<mediatype>video</mediatype>
																	<pproBypass>false</pproBypass>
																	<parameter authoringApp="PremierePro">
																		<parameterid>scale</parameterid>
																		<name>Scale</name>
																		<valuemin>0</valuemin>
																		<valuemax>1000</valuemax>
																		<value>100</value>
																	</parameter>
																	<parameter authoringApp="PremierePro">
																		<parameterid>rotation</parameterid>
																		<name>Rotation</name>
																		<valuemin>-8640</valuemin>
																		<valuemax>8640</valuemax>
																		<value>0</value>
																	</parameter>
																	<parameter authoringApp="PremierePro">
																		<parameterid>center</parameterid>
																		<name>Center</name>
																		<value>
																			<horiz>-0.0277778</horiz>
																			<vert>0</vert>
																		</value>
																	</parameter>
																	<parameter authoringApp="PremierePro">
																		<parameterid>centerOffset</parameterid>
																		<name>Anchor Point</name>
																		<value>
																			<horiz>0</horiz>
																			<vert>0</vert>
																		</value>
																	</parameter>
																	<parameter authoringApp="PremierePro">
																		<parameterid>antiflicker</parameterid>
																		<name>Anti-flicker Filter</name>
																		<valuemin>0.0</valuemin>
																		<valuemax>1.0</valuemax>
																		<value>0</value>
																	</parameter>
																</effect>
															</filter>
															<logginginfo>
																<description></description>
																<scene></scene>
																<shottake></shottake>
																<lognote></lognote>
																<good></good>
																<originalvideofilename></originalvideofilename>
																<originalaudiofilename></originalaudiofilename>
															</logginginfo>
															<colorinfo>
																<lut></lut>
																<lut1></lut1>
																<asc_sop></asc_sop>
																<asc_sat></asc_sat>
																<lut2></lut2>
															</colorinfo>
															<labels>
																<label2>Violet</label2>
															</labels>
														</clipitem>
														<enabled>TRUE</enabled>
														<locked>FALSE</locked>
													</track>
													<track TL.SQTrackShy="0" TL.SQTrackExpandedHeight="25" TL.SQTrackExpanded="0" MZ.TrackTargeted="0">
														<clipitem id="clipitem-608">
															<masterclipid>masterclip-14</masterclipid>
															<name>Eyecandy Vertical Video Frame 1</name>
															<enabled>TRUE</enabled>
															<duration>5700</duration>
															<rate>
																<timebase>30</timebase>
																<ntsc>TRUE</ntsc>
															</rate>
															<start>0</start>
															<end>588</end>
															<in>73</in>
															<out>661</out>
															<pproTicksIn>618723705600</pproTicksIn>
															<pproTicksOut>5602416019200</pproTicksOut>
															<alphatype>straight</alphatype>
															<file id="file-12"/>
															<logginginfo>
																<description></description>
																<scene></scene>
																<shottake></shottake>
																<lognote></lognote>
																<good></good>
																<originalvideofilename></originalvideofilename>
																<originalaudiofilename></originalaudiofilename>
															</logginginfo>
															<colorinfo>
																<lut></lut>
																<lut1></lut1>
																<asc_sop></asc_sop>
																<asc_sat></asc_sat>
																<lut2></lut2>
															</colorinfo>
															<labels>
																<label2>Teal</label2>
															</labels>
														</clipitem>
														<clipitem id="clipitem-609">
															<masterclipid>masterclip-14</masterclipid>
															<name>Eyecandy Vertical Video Frame 1</name>
															<enabled>TRUE</enabled>
															<duration>5700</duration>
															<rate>
																<timebase>30</timebase>
																<ntsc>TRUE</ntsc>
															</rate>
															<start>588</start>
															<end>1104</end>
															<in>661</in>
															<out>1177</out>
															<pproTicksIn>5602416019200</pproTicksIn>
															<pproTicksOut>9975860294400</pproTicksOut>
															<alphatype>straight</alphatype>
															<file id="file-12"/>
															<logginginfo>
																<description></description>
																<scene></scene>
																<shottake></shottake>
																<lognote></lognote>
																<good></good>
																<originalvideofilename></originalvideofilename>
																<originalaudiofilename></originalaudiofilename>
															</logginginfo>
															<colorinfo>
																<lut></lut>
																<lut1></lut1>
																<asc_sop></asc_sop>
																<asc_sat></asc_sat>
																<lut2></lut2>
															</colorinfo>
															<labels>
																<label2>Teal</label2>
															</labels>
														</clipitem>
														<clipitem id="clipitem-610">
															<masterclipid>masterclip-14</masterclipid>
															<name>Eyecandy Vertical Video Frame 1</name>
															<enabled>TRUE</enabled>
															<duration>5700</duration>
															<rate>
																<timebase>30</timebase>
																<ntsc>TRUE</ntsc>
															</rate>
															<start>1104</start>
															<end>1539</end>
															<in>1177</in>
															<out>1612</out>
															<pproTicksIn>9975860294400</pproTicksIn>
															<pproTicksOut>13662775526400</pproTicksOut>
															<alphatype>straight</alphatype>
															<file id="file-12"/>
															<logginginfo>
																<description></description>
																<scene></scene>
																<shottake></shottake>
																<lognote></lognote>
																<good></good>
																<originalvideofilename></originalvideofilename>
																<originalaudiofilename></originalaudiofilename>
															</logginginfo>
															<colorinfo>
																<lut></lut>
																<lut1></lut1>
																<asc_sop></asc_sop>
																<asc_sat></asc_sat>
																<lut2></lut2>
															</colorinfo>
															<labels>
																<label2>Teal</label2>
															</labels>
														</clipitem>
														<clipitem id="clipitem-611">
															<masterclipid>masterclip-14</masterclipid>
															<name>Eyecandy Vertical Video Frame 1</name>
															<enabled>TRUE</enabled>
															<duration>5700</duration>
															<rate>
																<timebase>30</timebase>
																<ntsc>TRUE</ntsc>
															</rate>
															<start>1539</start>
															<end>1861</end>
															<in>1612</in>
															<out>1934</out>
															<pproTicksIn>13662775526400</pproTicksIn>
															<pproTicksOut>16391940364800</pproTicksOut>
															<alphatype>straight</alphatype>
															<file id="file-12"/>
															<logginginfo>
																<description></description>
																<scene></scene>
																<shottake></shottake>
																<lognote></lognote>
																<good></good>
																<originalvideofilename></originalvideofilename>
																<originalaudiofilename></originalaudiofilename>
															</logginginfo>
															<colorinfo>
																<lut></lut>
																<lut1></lut1>
																<asc_sop></asc_sop>
																<asc_sat></asc_sat>
																<lut2></lut2>
															</colorinfo>
															<labels>
																<label2>Teal</label2>
															</labels>
														</clipitem>
														<clipitem id="clipitem-612">
															<masterclipid>masterclip-14</masterclipid>
															<name>Eyecandy Vertical Video Frame 1</name>
															<enabled>TRUE</enabled>
															<duration>5700</duration>
															<rate>
																<timebase>30</timebase>
																<ntsc>TRUE</ntsc>
															</rate>
															<start>1861</start>
															<end>2449</end>
															<in>1934</in>
															<out>2522</out>
															<pproTicksIn>16391940364800</pproTicksIn>
															<pproTicksOut>21375632678400</pproTicksOut>
															<alphatype>straight</alphatype>
															<file id="file-12"/>
															<logginginfo>
																<description></description>
																<scene></scene>
																<shottake></shottake>
																<lognote></lognote>
																<good></good>
																<originalvideofilename></originalvideofilename>
																<originalaudiofilename></originalaudiofilename>
															</logginginfo>
															<colorinfo>
																<lut></lut>
																<lut1></lut1>
																<asc_sop></asc_sop>
																<asc_sat></asc_sat>
																<lut2></lut2>
															</colorinfo>
															<labels>
																<label2>Teal</label2>
															</labels>
														</clipitem>
														<enabled>TRUE</enabled>
														<locked>FALSE</locked>
													</track>
													<track TL.SQTrackShy="0" TL.SQTrackExpandedHeight="25" TL.SQTrackExpanded="0" MZ.TrackTargeted="0">
														<enabled>TRUE</enabled>
														<locked>FALSE</locked>
													</track>
													<track TL.SQTrackShy="0" TL.SQTrackExpandedHeight="25" TL.SQTrackExpanded="0" MZ.TrackTargeted="0">
														<enabled>TRUE</enabled>
														<locked>FALSE</locked>
													</track>
													<track TL.SQTrackShy="0" TL.SQTrackExpandedHeight="25" TL.SQTrackExpanded="0" MZ.TrackTargeted="0">
														<enabled>TRUE</enabled>
														<locked>FALSE</locked>
													</track>
													<track TL.SQTrackShy="0" TL.SQTrackExpandedHeight="25" TL.SQTrackExpanded="0" MZ.TrackTargeted="0">
														<enabled>TRUE</enabled>
														<locked>FALSE</locked>
													</track>
													<track TL.SQTrackShy="0" TL.SQTrackExpandedHeight="25" TL.SQTrackExpanded="0" MZ.TrackTargeted="0">
														<enabled>TRUE</enabled>
														<locked>FALSE</locked>
													</track>
													<track TL.SQTrackShy="0" TL.SQTrackExpandedHeight="25" TL.SQTrackExpanded="0" MZ.TrackTargeted="0">
														<enabled>TRUE</enabled>
														<locked>FALSE</locked>
													</track>
													<track TL.SQTrackShy="0" TL.SQTrackExpandedHeight="25" TL.SQTrackExpanded="0" MZ.TrackTargeted="0">
														<enabled>TRUE</enabled>
														<locked>FALSE</locked>
													</track>
													<track TL.SQTrackShy="0" TL.SQTrackExpandedHeight="25" TL.SQTrackExpanded="0" MZ.TrackTargeted="0">
														<enabled>TRUE</enabled>
														<locked>FALSE</locked>
													</track>
												</video>
												<audio>
													<numOutputChannels>2</numOutputChannels>
													<format>
														<samplecharacteristics>
															<depth>16</depth>
															<samplerate>48000</samplerate>
														</samplecharacteristics>
													</format>
													<outputs>
														<group>
															<index>1</index>
															<numchannels>1</numchannels>
															<downmix>0</downmix>
															<channel>
																<index>1</index>
															</channel>
														</group>
														<group>
															<index>2</index>
															<numchannels>1</numchannels>
															<downmix>0</downmix>
															<channel>
																<index>2</index>
															</channel>
														</group>
													</outputs>
													<track TL.SQTrackAudioKeyframeStyle="0" TL.SQTrackShy="0" TL.SQTrackExpandedHeight="25" TL.SQTrackExpanded="0" MZ.TrackTargeted="1" PannerCurrentValue="0.5" PannerIsInverted="true" PannerStartKeyframe="-91445760000000000,0.5,0,0,0,0,0,0" PannerName="Balance" currentExplodedTrackIndex="0" totalExplodedTrackCount="2" premiereTrackType="Stereo">
														<clipitem id="clipitem-613" premiereChannelType="stereo">
															<masterclipid>masterclip-230</masterclipid>
															<name>ES_Party On - John Runefelt.mp3</name>
															<enabled>TRUE</enabled>
															<duration>6370</duration>
															<rate>
																<timebase>30</timebase>
																<ntsc>TRUE</ntsc>
															</rate>
															<start>0</start>
															<end>2449</end>
															<in>592</in>
															<out>3041</out>
															<pproTicksIn>5017594982400</pproTicksIn>
															<pproTicksOut>25774503955200</pproTicksOut>
															<file id="file-198">
																<name>ES_Party On - John Runefelt.mp3</name>
																<pathurl>file://localhost/Volumes/ATM%201/EYE%20CANDY/8%3a14%3a23/5_Assets/Music/ES_Party%20On%20-%20John%20Runefelt.mp3</pathurl>
																<rate>
																	<timebase>30</timebase>
																	<ntsc>TRUE</ntsc>
																</rate>
																<duration>6370</duration>
																<timecode>
																	<rate>
																		<timebase>30</timebase>
																		<ntsc>TRUE</ntsc>
																	</rate>
																	<string>00;00;00;00</string>
																	<frame>0</frame>
																	<displayformat>DF</displayformat>
																</timecode>
																<media>
																	<audio>
																		<samplecharacteristics>
																			<depth>16</depth>
																			<samplerate>48000</samplerate>
																		</samplecharacteristics>
																		<channelcount>2</channelcount>
																	</audio>
																</media>
															</file>
															<sourcetrack>
																<mediatype>audio</mediatype>
																<trackindex>1</trackindex>
															</sourcetrack>
															<link>
																<linkclipref>clipitem-613</linkclipref>
																<mediatype>audio</mediatype>
																<trackindex>1</trackindex>
																<clipindex>1</clipindex>
																<groupindex>1</groupindex>
															</link>
															<link>
																<linkclipref>clipitem-614</linkclipref>
																<mediatype>audio</mediatype>
																<trackindex>2</trackindex>
																<clipindex>1</clipindex>
																<groupindex>1</groupindex>
															</link>
															<logginginfo>
																<description></description>
																<scene></scene>
																<shottake></shottake>
																<lognote></lognote>
																<good></good>
																<originalvideofilename></originalvideofilename>
																<originalaudiofilename></originalaudiofilename>
															</logginginfo>
															<colorinfo>
																<lut></lut>
																<lut1></lut1>
																<asc_sop></asc_sop>
																<asc_sat></asc_sat>
																<lut2></lut2>
															</colorinfo>
															<labels>
																<label2>Caribbean</label2>
															</labels>
														</clipitem>
														<enabled>TRUE</enabled>
														<locked>FALSE</locked>
														<filter>
															<effect>
																<name>Audio Levels</name>
																<effectid>audiolevels</effectid>
																<effectcategory>audiolevels</effectcategory>
																<effecttype>audiolevels</effecttype>
																<mediatype>audio</mediatype>
																<parameter authoringApp="PremierePro">
																	<parameterid>level</parameterid>
																	<name>Level</name>
																	<valuemin>0</valuemin>
																	<valuemax>3.98109</valuemax>
																	<value>0.706272</value>
																</parameter>
															</effect>
														</filter>
														<outputchannelindex>1</outputchannelindex>
													</track>
													<track TL.SQTrackAudioKeyframeStyle="0" TL.SQTrackShy="0" TL.SQTrackExpandedHeight="25" TL.SQTrackExpanded="0" MZ.TrackTargeted="1" PannerCurrentValue="0.5" PannerIsInverted="true" PannerStartKeyframe="-91445760000000000,0.5,0,0,0,0,0,0" PannerName="Balance" currentExplodedTrackIndex="1" totalExplodedTrackCount="2" premiereTrackType="Stereo">
														<clipitem id="clipitem-614" premiereChannelType="stereo">
															<masterclipid>masterclip-230</masterclipid>
															<name>ES_Party On - John Runefelt.mp3</name>
															<enabled>TRUE</enabled>
															<duration>6370</duration>
															<rate>
																<timebase>30</timebase>
																<ntsc>TRUE</ntsc>
															</rate>
															<start>0</start>
															<end>2449</end>
															<in>592</in>
															<out>3041</out>
															<pproTicksIn>5017594982400</pproTicksIn>
															<pproTicksOut>25774503955200</pproTicksOut>
															<file id="file-198"/>
															<sourcetrack>
																<mediatype>audio</mediatype>
																<trackindex>2</trackindex>
															</sourcetrack>
															<link>
																<linkclipref>clipitem-613</linkclipref>
																<mediatype>audio</mediatype>
																<trackindex>1</trackindex>
																<clipindex>1</clipindex>
																<groupindex>1</groupindex>
															</link>
															<link>
																<linkclipref>clipitem-614</linkclipref>
																<mediatype>audio</mediatype>
																<trackindex>2</trackindex>
																<clipindex>1</clipindex>
																<groupindex>1</groupindex>
															</link>
															<logginginfo>
																<description></description>
																<scene></scene>
																<shottake></shottake>
																<lognote></lognote>
																<good></good>
																<originalvideofilename></originalvideofilename>
																<originalaudiofilename></originalaudiofilename>
															</logginginfo>
															<colorinfo>
																<lut></lut>
																<lut1></lut1>
																<asc_sop></asc_sop>
																<asc_sat></asc_sat>
																<lut2></lut2>
															</colorinfo>
															<labels>
																<label2>Caribbean</label2>
															</labels>
														</clipitem>
														<enabled>TRUE</enabled>
														<locked>FALSE</locked>
														<filter>
															<effect>
																<name>Audio Levels</name>
																<effectid>audiolevels</effectid>
																<effectcategory>audiolevels</effectcategory>
																<effecttype>audiolevels</effecttype>
																<mediatype>audio</mediatype>
																<parameter authoringApp="PremierePro">
																	<parameterid>level</parameterid>
																	<name>Level</name>
																	<valuemin>0</valuemin>
																	<valuemax>3.98109</valuemax>
																	<value>0.706272</value>
																</parameter>
															</effect>
														</filter>
														<outputchannelindex>2</outputchannelindex>
													</track>
													<track TL.SQTrackAudioKeyframeStyle="0" TL.SQTrackShy="0" TL.SQTrackExpandedHeight="25" TL.SQTrackExpanded="0" MZ.TrackTargeted="0" PannerCurrentValue="0.5" PannerIsInverted="true" PannerStartKeyframe="-91445760000000000,0.5,0,0,0,0,0,0" PannerName="Balance" currentExplodedTrackIndex="0" totalExplodedTrackCount="2" premiereTrackType="Stereo">
														<enabled>TRUE</enabled>
														<locked>FALSE</locked>
														<outputchannelindex>1</outputchannelindex>
													</track>
													<track TL.SQTrackAudioKeyframeStyle="0" TL.SQTrackShy="0" TL.SQTrackExpandedHeight="25" TL.SQTrackExpanded="0" MZ.TrackTargeted="0" PannerCurrentValue="0.5" PannerIsInverted="true" PannerStartKeyframe="-91445760000000000,0.5,0,0,0,0,0,0" PannerName="Balance" currentExplodedTrackIndex="1" totalExplodedTrackCount="2" premiereTrackType="Stereo">
														<enabled>TRUE</enabled>
														<locked>FALSE</locked>
														<outputchannelindex>2</outputchannelindex>
													</track>
													<track TL.SQTrackAudioKeyframeStyle="0" TL.SQTrackShy="0" TL.SQTrackExpandedHeight="25" TL.SQTrackExpanded="0" MZ.TrackTargeted="0" PannerCurrentValue="0.5" PannerIsInverted="true" PannerStartKeyframe="-91445760000000000,0.5,0,0,0,0,0,0" PannerName="Balance" currentExplodedTrackIndex="0" totalExplodedTrackCount="2" premiereTrackType="Stereo">
														<enabled>TRUE</enabled>
														<locked>FALSE</locked>
														<outputchannelindex>1</outputchannelindex>
													</track>
													<track TL.SQTrackAudioKeyframeStyle="0" TL.SQTrackShy="0" TL.SQTrackExpandedHeight="25" TL.SQTrackExpanded="0" MZ.TrackTargeted="0" PannerCurrentValue="0.5" PannerIsInverted="true" PannerStartKeyframe="-91445760000000000,0.5,0,0,0,0,0,0" PannerName="Balance" currentExplodedTrackIndex="1" totalExplodedTrackCount="2" premiereTrackType="Stereo">
														<enabled>TRUE</enabled>
														<locked>FALSE</locked>
														<outputchannelindex>2</outputchannelindex>
													</track>
													<track TL.SQTrackAudioKeyframeStyle="0" TL.SQTrackShy="0" TL.SQTrackExpandedHeight="25" TL.SQTrackExpanded="0" MZ.TrackTargeted="0" PannerCurrentValue="0.5" PannerIsInverted="true" PannerStartKeyframe="-91445760000000000,0.5,0,0,0,0,0,0" PannerName="Balance" currentExplodedTrackIndex="0" totalExplodedTrackCount="2" premiereTrackType="Stereo">
														<enabled>TRUE</enabled>
														<locked>FALSE</locked>
														<outputchannelindex>1</outputchannelindex>
													</track>
													<track TL.SQTrackAudioKeyframeStyle="0" TL.SQTrackShy="0" TL.SQTrackExpandedHeight="25" TL.SQTrackExpanded="0" MZ.TrackTargeted="0" PannerCurrentValue="0.5" PannerIsInverted="true" PannerStartKeyframe="-91445760000000000,0.5,0,0,0,0,0,0" PannerName="Balance" currentExplodedTrackIndex="1" totalExplodedTrackCount="2" premiereTrackType="Stereo">
														<enabled>TRUE</enabled>
														<locked>FALSE</locked>
														<outputchannelindex>2</outputchannelindex>
													</track>
													<track TL.SQTrackAudioKeyframeStyle="0" TL.SQTrackShy="0" TL.SQTrackExpandedHeight="25" TL.SQTrackExpanded="0" MZ.TrackTargeted="0" PannerCurrentValue="0.5" PannerIsInverted="true" PannerStartKeyframe="-91445760000000000,0.5,0,0,0,0,0,0" PannerName="Balance" currentExplodedTrackIndex="0" totalExplodedTrackCount="2" premiereTrackType="Stereo">
														<enabled>TRUE</enabled>
														<locked>FALSE</locked>
														<outputchannelindex>1</outputchannelindex>
													</track>
													<track TL.SQTrackAudioKeyframeStyle="0" TL.SQTrackShy="0" TL.SQTrackExpandedHeight="25" TL.SQTrackExpanded="0" MZ.TrackTargeted="0" PannerCurrentValue="0.5" PannerIsInverted="true" PannerStartKeyframe="-91445760000000000,0.5,0,0,0,0,0,0" PannerName="Balance" currentExplodedTrackIndex="1" totalExplodedTrackCount="2" premiereTrackType="Stereo">
														<enabled>TRUE</enabled>
														<locked>FALSE</locked>
														<outputchannelindex>2</outputchannelindex>
													</track>
													<track TL.SQTrackAudioKeyframeStyle="0" TL.SQTrackShy="0" TL.SQTrackExpandedHeight="25" TL.SQTrackExpanded="0" MZ.TrackTargeted="0" PannerCurrentValue="0.5" PannerIsInverted="true" PannerStartKeyframe="-91445760000000000,0.5,0,0,0,0,0,0" PannerName="Balance" currentExplodedTrackIndex="0" totalExplodedTrackCount="2" premiereTrackType="Stereo">
														<enabled>TRUE</enabled>
														<locked>FALSE</locked>
														<outputchannelindex>1</outputchannelindex>
													</track>
													<track TL.SQTrackAudioKeyframeStyle="0" TL.SQTrackShy="0" TL.SQTrackExpandedHeight="25" TL.SQTrackExpanded="0" MZ.TrackTargeted="0" PannerCurrentValue="0.5" PannerIsInverted="true" PannerStartKeyframe="-91445760000000000,0.5,0,0,0,0,0,0" PannerName="Balance" currentExplodedTrackIndex="1" totalExplodedTrackCount="2" premiereTrackType="Stereo">
														<enabled>TRUE</enabled>
														<locked>FALSE</locked>
														<outputchannelindex>2</outputchannelindex>
													</track>
													<track TL.SQTrackAudioKeyframeStyle="0" TL.SQTrackShy="0" TL.SQTrackExpandedHeight="25" TL.SQTrackExpanded="0" MZ.TrackTargeted="0" PannerCurrentValue="0.5" PannerIsInverted="true" PannerStartKeyframe="-91445760000000000,0.5,0,0,0,0,0,0" PannerName="Balance" currentExplodedTrackIndex="0" totalExplodedTrackCount="2" premiereTrackType="Stereo">
														<enabled>TRUE</enabled>
														<locked>FALSE</locked>
														<outputchannelindex>1</outputchannelindex>
													</track>
													<track TL.SQTrackAudioKeyframeStyle="0" TL.SQTrackShy="0" TL.SQTrackExpandedHeight="25" TL.SQTrackExpanded="0" MZ.TrackTargeted="0" PannerCurrentValue="0.5" PannerIsInverted="true" PannerStartKeyframe="-91445760000000000,0.5,0,0,0,0,0,0" PannerName="Balance" currentExplodedTrackIndex="1" totalExplodedTrackCount="2" premiereTrackType="Stereo">
														<enabled>TRUE</enabled>
														<locked>FALSE</locked>
														<outputchannelindex>2</outputchannelindex>
													</track>
													<track TL.SQTrackAudioKeyframeStyle="0" TL.SQTrackShy="0" TL.SQTrackExpandedHeight="25" TL.SQTrackExpanded="0" MZ.TrackTargeted="0" PannerCurrentValue="0.5" PannerIsInverted="true" PannerStartKeyframe="-91445760000000000,0.5,0,0,0,0,0,0" PannerName="Balance" currentExplodedTrackIndex="0" totalExplodedTrackCount="2" premiereTrackType="Stereo">
														<enabled>TRUE</enabled>
														<locked>FALSE</locked>
														<outputchannelindex>1</outputchannelindex>
													</track>
													<track TL.SQTrackAudioKeyframeStyle="0" TL.SQTrackShy="0" TL.SQTrackExpandedHeight="25" TL.SQTrackExpanded="0" MZ.TrackTargeted="0" PannerCurrentValue="0.5" PannerIsInverted="true" PannerStartKeyframe="-91445760000000000,0.5,0,0,0,0,0,0" PannerName="Balance" currentExplodedTrackIndex="1" totalExplodedTrackCount="2" premiereTrackType="Stereo">
														<enabled>TRUE</enabled>
														<locked>FALSE</locked>
														<outputchannelindex>2</outputchannelindex>
													</track>
													<track TL.SQTrackAudioKeyframeStyle="0" TL.SQTrackShy="0" TL.SQTrackExpandedHeight="25" TL.SQTrackExpanded="0" MZ.TrackTargeted="0" PannerCurrentValue="0.5" PannerIsInverted="true" PannerStartKeyframe="-91445760000000000,0.5,0,0,0,0,0,0" PannerName="Balance" currentExplodedTrackIndex="0" totalExplodedTrackCount="2" premiereTrackType="Stereo">
														<enabled>TRUE</enabled>
														<locked>FALSE</locked>
														<outputchannelindex>1</outputchannelindex>
													</track>
													<track TL.SQTrackAudioKeyframeStyle="0" TL.SQTrackShy="0" TL.SQTrackExpandedHeight="25" TL.SQTrackExpanded="0" MZ.TrackTargeted="0" PannerCurrentValue="0.5" PannerIsInverted="true" PannerStartKeyframe="-91445760000000000,0.5,0,0,0,0,0,0" PannerName="Balance" currentExplodedTrackIndex="1" totalExplodedTrackCount="2" premiereTrackType="Stereo">
														<enabled>TRUE</enabled>
														<locked>FALSE</locked>
														<outputchannelindex>2</outputchannelindex>
													</track>
													<track TL.SQTrackAudioKeyframeStyle="0" TL.SQTrackShy="0" TL.SQTrackExpandedHeight="25" TL.SQTrackExpanded="0" MZ.TrackTargeted="0" PannerCurrentValue="0.5" PannerIsInverted="true" PannerStartKeyframe="-91445760000000000,0.5,0,0,0,0,0,0" PannerName="Balance" currentExplodedTrackIndex="0" totalExplodedTrackCount="2" premiereTrackType="Stereo">
														<enabled>TRUE</enabled>
														<locked>FALSE</locked>
														<outputchannelindex>1</outputchannelindex>
													</track>
													<track TL.SQTrackAudioKeyframeStyle="0" TL.SQTrackShy="0" TL.SQTrackExpandedHeight="25" TL.SQTrackExpanded="0" MZ.TrackTargeted="0" PannerCurrentValue="0.5" PannerIsInverted="true" PannerStartKeyframe="-91445760000000000,0.5,0,0,0,0,0,0" PannerName="Balance" currentExplodedTrackIndex="1" totalExplodedTrackCount="2" premiereTrackType="Stereo">
														<enabled>TRUE</enabled>
														<locked>FALSE</locked>
														<outputchannelindex>2</outputchannelindex>
													</track>
												</audio>
											</media>
											<timecode>
												<rate>
													<timebase>30</timebase>
													<ntsc>TRUE</ntsc>
												</rate>
												<string>00;00;00;00</string>
												<frame>0</frame>
												<displayformat>DF</displayformat>
											</timecode>
											<logginginfo>
												<description></description>
												<scene></scene>
												<shottake></shottake>
												<lognote></lognote>
												<good></good>
												<originalvideofilename></originalvideofilename>
												<originalaudiofilename></originalaudiofilename>
											</logginginfo>
										</sequence>
										<link>
											<linkclipref>clipitem-594</linkclipref>
											<mediatype>video</mediatype>
											<trackindex>1</trackindex>
											<clipindex>2</clipindex>
										</link>
										<link>
											<linkclipref>clipitem-622</linkclipref>
											<mediatype>audio</mediatype>
											<trackindex>1</trackindex>
											<clipindex>3</clipindex>
											<groupindex>1</groupindex>
										</link>
										<link>
											<linkclipref>clipitem-624</linkclipref>
											<mediatype>audio</mediatype>
											<trackindex>2</trackindex>
											<clipindex>3</clipindex>
											<groupindex>1</groupindex>
										</link>
										<labels>
											<label2>Forest</label2>
										</labels>
									</clipitem>
									<enabled>TRUE</enabled>
									<locked>FALSE</locked>
								</track>
								<track TL.SQTrackShy="0" TL.SQTrackExpandedHeight="25" TL.SQTrackExpanded="0" MZ.TrackTargeted="0">
									<clipitem id="clipitem-615">
										<masterclipid>masterclip-16</masterclipid>
										<name>ATM BUG_1080_Top Right.png</name>
										<enabled>TRUE</enabled>
										<duration>1294705</duration>
										<rate>
											<timebase>30</timebase>
											<ntsc>TRUE</ntsc>
										</rate>
										<start>82</start>
										<end>5147</end>
										<in>107892</in>
										<out>112957</out>
										<pproTicksIn>914456685542400</pproTicksIn>
										<pproTicksOut>957385939910400</pproTicksOut>
										<alphatype>straight</alphatype>
										<file id="file-14"/>
										<logginginfo>
											<description></description>
											<scene></scene>
											<shottake></shottake>
											<lognote></lognote>
											<good></good>
											<originalvideofilename></originalvideofilename>
											<originalaudiofilename></originalaudiofilename>
										</logginginfo>
										<colorinfo>
											<lut></lut>
											<lut1></lut1>
											<asc_sop></asc_sop>
											<asc_sat></asc_sat>
											<lut2></lut2>
										</colorinfo>
										<labels>
										</labels>
									</clipitem>
									<enabled>TRUE</enabled>
									<locked>FALSE</locked>
								</track>
								<track TL.SQTrackShy="0" TL.SQTrackExpandedHeight="25" TL.SQTrackExpanded="0" MZ.TrackTargeted="0">
									<clipitem id="clipitem-616">
										<masterclipid>masterclip-231</masterclipid>
										<name>Cutesy Cactus Cupcakes</name>
										<enabled>TRUE</enabled>
										<duration>6293</duration>
										<rate>
											<timebase>30</timebase>
											<ntsc>TRUE</ntsc>
										</rate>
										<start>115</start>
										<end>2698</end>
										<in>30</in>
										<out>2613</out>
										<pproTicksIn>254270016000</pproTicksIn>
										<pproTicksOut>22146918393600</pproTicksOut>
										<alphatype>straight</alphatype>
										<pixelaspectratio>square</pixelaspectratio>
										<anamorphic>FALSE</anamorphic>
										<file id="file-199">
											<name>EYECANDY_L3RD_JL_V03/EYECANDY_L3rd_JL_V04.aep</name>
											<pathurl>file://localhost/Volumes/ATM%201/EYE%20CANDY/Project%20Template/5_Assets/Eye%20Candy%20Mograph/EYECANDY_L3rd_JL_V04%20folder/EYECANDY_L3rd_JL_V04.aep</pathurl>
											<rate>
												<timebase>30</timebase>
												<ntsc>FALSE</ntsc>
											</rate>
											<duration>6300</duration>
											<timecode>
												<rate>
													<timebase>30</timebase>
													<ntsc>FALSE</ntsc>
												</rate>
												<string>00:00:00:00</string>
												<frame>0</frame>
												<displayformat>NDF</displayformat>
											</timecode>
											<media>
												<video>
													<samplecharacteristics>
														<rate>
															<timebase>30</timebase>
															<ntsc>FALSE</ntsc>
														</rate>
														<width>1920</width>
														<height>1080</height>
														<anamorphic>FALSE</anamorphic>
														<pixelaspectratio>square</pixelaspectratio>
														<fielddominance>lower</fielddominance>
													</samplecharacteristics>
												</video>
											</media>
										</file>
										<logginginfo>
											<description></description>
											<scene></scene>
											<shottake></shottake>
											<lognote></lognote>
											<good></good>
											<originalvideofilename></originalvideofilename>
											<originalaudiofilename></originalaudiofilename>
										</logginginfo>
										<colorinfo>
											<lut></lut>
											<lut1></lut1>
											<asc_sop></asc_sop>
											<asc_sat></asc_sat>
											<lut2></lut2>
										</colorinfo>
									</clipitem>
									<clipitem id="clipitem-617">
										<masterclipid>masterclip-232</masterclipid>
										<name>Cotton Candy Creations</name>
										<enabled>TRUE</enabled>
										<duration>6293</duration>
										<rate>
											<timebase>30</timebase>
											<ntsc>TRUE</ntsc>
										</rate>
										<start>2760</start>
										<end>5147</end>
										<in>30</in>
										<out>2417</out>
										<pproTicksIn>254270016000</pproTicksIn>
										<pproTicksOut>20485687622400</pproTicksOut>
										<alphatype>straight</alphatype>
										<pixelaspectratio>square</pixelaspectratio>
										<anamorphic>FALSE</anamorphic>
										<file id="file-200">
											<name>EYECANDY_L3RD_JL_V03/EYECANDY_L3rd_JL_V04.aep</name>
											<pathurl>file://localhost/Volumes/ATM%201/EYE%20CANDY/Project%20Template/5_Assets/Eye%20Candy%20Mograph/EYECANDY_L3rd_JL_V04%20folder/EYECANDY_L3rd_JL_V04.aep</pathurl>
											<rate>
												<timebase>30</timebase>
												<ntsc>FALSE</ntsc>
											</rate>
											<duration>6300</duration>
											<timecode>
												<rate>
													<timebase>30</timebase>
													<ntsc>FALSE</ntsc>
												</rate>
												<string>00:00:00:00</string>
												<frame>0</frame>
												<displayformat>NDF</displayformat>
											</timecode>
											<media>
												<video>
													<samplecharacteristics>
														<rate>
															<timebase>30</timebase>
															<ntsc>FALSE</ntsc>
														</rate>
														<width>1920</width>
														<height>1080</height>
														<anamorphic>FALSE</anamorphic>
														<pixelaspectratio>square</pixelaspectratio>
														<fielddominance>lower</fielddominance>
													</samplecharacteristics>
												</video>
											</media>
										</file>
										<logginginfo>
											<description></description>
											<scene></scene>
											<shottake></shottake>
											<lognote></lognote>
											<good></good>
											<originalvideofilename></originalvideofilename>
											<originalaudiofilename></originalaudiofilename>
										</logginginfo>
										<colorinfo>
											<lut></lut>
											<lut1></lut1>
											<asc_sop></asc_sop>
											<asc_sat></asc_sat>
											<lut2></lut2>
										</colorinfo>
									</clipitem>
									<enabled>TRUE</enabled>
									<locked>FALSE</locked>
								</track>
								<track TL.SQTrackShy="0" TL.SQTrackExpandedHeight="25" TL.SQTrackExpanded="0" MZ.TrackTargeted="0">
									<clipitem id="clipitem-618">
										<masterclipid>masterclip-19</masterclipid>
										<name>Intro</name>
										<enabled>TRUE</enabled>
										<duration>160</duration>
										<rate>
											<timebase>30</timebase>
											<ntsc>TRUE</ntsc>
										</rate>
										<start>0</start>
										<end>115</end>
										<in>0</in>
										<out>115</out>
										<pproTicksIn>0</pproTicksIn>
										<pproTicksOut>974701728000</pproTicksOut>
										<sequence id="sequence-4"/>
											<marker>
												<comment></comment>
												<name></name>
												<in>82</in>
												<out>-1</out>
											</marker>
										<link>
											<linkclipref>clipitem-618</linkclipref>
											<mediatype>video</mediatype>
											<trackindex>4</trackindex>
											<clipindex>1</clipindex>
										</link>
										<link>
											<linkclipref>clipitem-625</linkclipref>
											<mediatype>audio</mediatype>
											<trackindex>3</trackindex>
											<clipindex>1</clipindex>
											<groupindex>1</groupindex>
										</link>
										<link>
											<linkclipref>clipitem-628</linkclipref>
											<mediatype>audio</mediatype>
											<trackindex>4</trackindex>
											<clipindex>1</clipindex>
											<groupindex>1</groupindex>
										</link>
										<labels>
											<label2>Forest</label2>
										</labels>
									</clipitem>
									<clipitem id="clipitem-619">
										<masterclipid>masterclip-42</masterclipid>
										<name>Transition 1</name>
										<enabled>TRUE</enabled>
										<duration>160</duration>
										<rate>
											<timebase>30</timebase>
											<ntsc>TRUE</ntsc>
										</rate>
										<start>2642</start>
										<end>2760</end>
										<in>0</in>
										<out>118</out>
										<pproTicksIn>0</pproTicksIn>
										<pproTicksOut>1000128729600</pproTicksOut>
										<sequence id="sequence-11"/>
											<marker>
												<comment></comment>
												<name></name>
												<in>56</in>
												<out>-1</out>
											</marker>
										<link>
											<linkclipref>clipitem-619</linkclipref>
											<mediatype>video</mediatype>
											<trackindex>4</trackindex>
											<clipindex>2</clipindex>
										</link>
										<link>
											<linkclipref>clipitem-626</linkclipref>
											<mediatype>audio</mediatype>
											<trackindex>3</trackindex>
											<clipindex>2</clipindex>
											<groupindex>1</groupindex>
										</link>
										<link>
											<linkclipref>clipitem-629</linkclipref>
											<mediatype>audio</mediatype>
											<trackindex>4</trackindex>
											<clipindex>2</clipindex>
											<groupindex>1</groupindex>
										</link>
										<labels>
											<label2>Forest</label2>
										</labels>
									</clipitem>
									<clipitem id="clipitem-620">
										<masterclipid>masterclip-23</masterclipid>
										<name>Outro</name>
										<enabled>TRUE</enabled>
										<duration>160</duration>
										<rate>
											<timebase>30</timebase>
											<ntsc>TRUE</ntsc>
										</rate>
										<start>5105</start>
										<end>5242</end>
										<in>0</in>
										<out>137</out>
										<pproTicksIn>0</pproTicksIn>
										<pproTicksOut>1161166406400</pproTicksOut>
										<sequence id="sequence-6"/>
											<marker>
												<comment></comment>
												<name></name>
												<in>42</in>
												<out>-1</out>
											</marker>
										<link>
											<linkclipref>clipitem-620</linkclipref>
											<mediatype>video</mediatype>
											<trackindex>4</trackindex>
											<clipindex>3</clipindex>
										</link>
										<link>
											<linkclipref>clipitem-627</linkclipref>
											<mediatype>audio</mediatype>
											<trackindex>3</trackindex>
											<clipindex>3</clipindex>
											<groupindex>1</groupindex>
										</link>
										<link>
											<linkclipref>clipitem-630</linkclipref>
											<mediatype>audio</mediatype>
											<trackindex>4</trackindex>
											<clipindex>3</clipindex>
											<groupindex>1</groupindex>
										</link>
										<labels>
											<label2>Forest</label2>
										</labels>
									</clipitem>
									<enabled>TRUE</enabled>
									<locked>FALSE</locked>
								</track>
							</video>
							<audio>
								<numOutputChannels>2</numOutputChannels>
								<format>
									<samplecharacteristics>
										<depth>16</depth>
										<samplerate>48000</samplerate>
									</samplecharacteristics>
								</format>
								<outputs>
									<group>
										<index>1</index>
										<numchannels>1</numchannels>
										<downmix>0</downmix>
										<channel>
											<index>1</index>
										</channel>
									</group>
									<group>
										<index>2</index>
										<numchannels>1</numchannels>
										<downmix>0</downmix>
										<channel>
											<index>2</index>
										</channel>
									</group>
								</outputs>
								<track TL.SQTrackAudioKeyframeStyle="0" TL.SQTrackShy="0" TL.SQTrackExpandedHeight="25" TL.SQTrackExpanded="0" MZ.TrackTargeted="1" PannerCurrentValue="0.5" PannerIsInverted="true" PannerStartKeyframe="-91445760000000000,0.5,0,0,0,0,0,0" PannerName="Balance" currentExplodedTrackIndex="0" totalExplodedTrackCount="2" premiereTrackType="Stereo">
									<clipitem id="clipitem-621" premiereChannelType="stereo">
										<masterclipid>masterclip-220</masterclipid>
										<name>Cutesy Cactus Cupcakes_1.5</name>
										<enabled>TRUE</enabled>
										<duration>3263</duration>
										<rate>
											<timebase>30</timebase>
											<ntsc>TRUE</ntsc>
										</rate>
										<start>82</start>
										<end>-1</end>
										<in>0</in>
										<out>2616</out>
										<pproTicksIn>0</pproTicksIn>
										<pproTicksOut>22172345395200</pproTicksOut>
										<sequence id="sequence-43"/>
										<sourcetrack>
											<mediatype>audio</mediatype>
											<trackindex>0</trackindex>
										</sourcetrack>
										<link>
											<linkclipref>clipitem-581</linkclipref>
											<mediatype>video</mediatype>
											<trackindex>1</trackindex>
											<clipindex>1</clipindex>
										</link>
										<link>
											<linkclipref>clipitem-621</linkclipref>
											<mediatype>audio</mediatype>
											<trackindex>1</trackindex>
											<clipindex>1</clipindex>
											<groupindex>1</groupindex>
										</link>
										<link>
											<linkclipref>clipitem-623</linkclipref>
											<mediatype>audio</mediatype>
											<trackindex>2</trackindex>
											<clipindex>1</clipindex>
											<groupindex>1</groupindex>
										</link>
										<labels>
											<label2>Forest</label2>
										</labels>
									</clipitem>
									<transitionitem>
										<start>2668</start>
										<end>2698</end>
										<pproTicksIn>22613080089600</pproTicksIn>
										<pproTicksOut>22867350105600</pproTicksOut>
										<alignment>end-black</alignment>
										<cutPointTicks>254270016000</cutPointTicks>
										<rate>
											<timebase>30</timebase>
											<ntsc>TRUE</ntsc>
										</rate>
										<effect>
											<name>Cross Fade ( 0dB)</name>
											<effectid>KGAudioTransCrossFade0dB</effectid>
											<effecttype>transition</effecttype>
											<mediatype>audio</mediatype>
											<wipecode>0</wipecode>
											<wipeaccuracy>100</wipeaccuracy>
											<startratio>0</startratio>
											<endratio>1</endratio>
											<reverse>FALSE</reverse>
										</effect>
									</transitionitem>
									<clipitem id="clipitem-622" premiereChannelType="stereo">
										<masterclipid>masterclip-224</masterclipid>
										<name>Cotton Candy Creations_1.5</name>
										<enabled>TRUE</enabled>
										<duration>5700</duration>
										<rate>
											<timebase>30</timebase>
											<ntsc>TRUE</ntsc>
										</rate>
										<start>2698</start>
										<end>-1</end>
										<in>0</in>
										<out>2449</out>
										<pproTicksIn>0</pproTicksIn>
										<pproTicksOut>20756908972800</pproTicksOut>
										<sequence id="sequence-44"/>
										<sourcetrack>
											<mediatype>audio</mediatype>
											<trackindex>0</trackindex>
										</sourcetrack>
										<link>
											<linkclipref>clipitem-594</linkclipref>
											<mediatype>video</mediatype>
											<trackindex>1</trackindex>
											<clipindex>2</clipindex>
										</link>
										<link>
											<linkclipref>clipitem-622</linkclipref>
											<mediatype>audio</mediatype>
											<trackindex>1</trackindex>
											<clipindex>3</clipindex>
											<groupindex>1</groupindex>
										</link>
										<link>
											<linkclipref>clipitem-624</linkclipref>
											<mediatype>audio</mediatype>
											<trackindex>2</trackindex>
											<clipindex>3</clipindex>
											<groupindex>1</groupindex>
										</link>
										<labels>
											<label2>Forest</label2>
										</labels>
									</clipitem>
									<transitionitem>
										<start>5117</start>
										<end>5147</end>
										<pproTicksIn>43369989062400</pproTicksIn>
										<pproTicksOut>43624259078400</pproTicksOut>
										<alignment>end-black</alignment>
										<cutPointTicks>254270016000</cutPointTicks>
										<rate>
											<timebase>30</timebase>
											<ntsc>TRUE</ntsc>
										</rate>
										<effect>
											<name>Cross Fade ( 0dB)</name>
											<effectid>KGAudioTransCrossFade0dB</effectid>
											<effecttype>transition</effecttype>
											<mediatype>audio</mediatype>
											<wipecode>0</wipecode>
											<wipeaccuracy>100</wipeaccuracy>
											<startratio>0</startratio>
											<endratio>1</endratio>
											<reverse>FALSE</reverse>
										</effect>
									</transitionitem>
									<enabled>TRUE</enabled>
									<locked>FALSE</locked>
									<outputchannelindex>1</outputchannelindex>
								</track>
								<track TL.SQTrackAudioKeyframeStyle="0" TL.SQTrackShy="0" TL.SQTrackExpandedHeight="25" TL.SQTrackExpanded="0" MZ.TrackTargeted="1" PannerCurrentValue="0.5" PannerIsInverted="true" PannerStartKeyframe="-91445760000000000,0.5,0,0,0,0,0,0" PannerName="Balance" currentExplodedTrackIndex="1" totalExplodedTrackCount="2" premiereTrackType="Stereo">
									<clipitem id="clipitem-623" premiereChannelType="stereo">
										<masterclipid>masterclip-220</masterclipid>
										<name>Cutesy Cactus Cupcakes_1.5</name>
										<enabled>TRUE</enabled>
										<duration>3263</duration>
										<rate>
											<timebase>30</timebase>
											<ntsc>TRUE</ntsc>
										</rate>
										<start>82</start>
										<end>-1</end>
										<in>0</in>
										<out>2616</out>
										<pproTicksIn>0</pproTicksIn>
										<pproTicksOut>22172345395200</pproTicksOut>
										<sequence id="sequence-43"/>
										<sourcetrack>
											<mediatype>audio</mediatype>
											<trackindex>1</trackindex>
										</sourcetrack>
										<link>
											<linkclipref>clipitem-581</linkclipref>
											<mediatype>video</mediatype>
											<trackindex>1</trackindex>
											<clipindex>1</clipindex>
										</link>
										<link>
											<linkclipref>clipitem-621</linkclipref>
											<mediatype>audio</mediatype>
											<trackindex>1</trackindex>
											<clipindex>1</clipindex>
											<groupindex>1</groupindex>
										</link>
										<link>
											<linkclipref>clipitem-623</linkclipref>
											<mediatype>audio</mediatype>
											<trackindex>2</trackindex>
											<clipindex>1</clipindex>
											<groupindex>1</groupindex>
										</link>
										<labels>
											<label2>Forest</label2>
										</labels>
									</clipitem>
									<transitionitem>
										<start>2668</start>
										<end>2698</end>
										<pproTicksIn>22613080089600</pproTicksIn>
										<pproTicksOut>22867350105600</pproTicksOut>
										<alignment>end-black</alignment>
										<cutPointTicks>254270016000</cutPointTicks>
										<rate>
											<timebase>30</timebase>
											<ntsc>TRUE</ntsc>
										</rate>
										<effect>
											<name>Cross Fade ( 0dB)</name>
											<effectid>KGAudioTransCrossFade0dB</effectid>
											<effecttype>transition</effecttype>
											<mediatype>audio</mediatype>
											<wipecode>0</wipecode>
											<wipeaccuracy>100</wipeaccuracy>
											<startratio>0</startratio>
											<endratio>1</endratio>
											<reverse>FALSE</reverse>
										</effect>
									</transitionitem>
									<clipitem id="clipitem-624" premiereChannelType="stereo">
										<masterclipid>masterclip-224</masterclipid>
										<name>Cotton Candy Creations_1.5</name>
										<enabled>TRUE</enabled>
										<duration>5700</duration>
										<rate>
											<timebase>30</timebase>
											<ntsc>TRUE</ntsc>
										</rate>
										<start>2698</start>
										<end>-1</end>
										<in>0</in>
										<out>2449</out>
										<pproTicksIn>0</pproTicksIn>
										<pproTicksOut>20756908972800</pproTicksOut>
										<sequence id="sequence-44"/>
										<sourcetrack>
											<mediatype>audio</mediatype>
											<trackindex>1</trackindex>
										</sourcetrack>
										<link>
											<linkclipref>clipitem-594</linkclipref>
											<mediatype>video</mediatype>
											<trackindex>1</trackindex>
											<clipindex>2</clipindex>
										</link>
										<link>
											<linkclipref>clipitem-622</linkclipref>
											<mediatype>audio</mediatype>
											<trackindex>1</trackindex>
											<clipindex>3</clipindex>
											<groupindex>1</groupindex>
										</link>
										<link>
											<linkclipref>clipitem-624</linkclipref>
											<mediatype>audio</mediatype>
											<trackindex>2</trackindex>
											<clipindex>3</clipindex>
											<groupindex>1</groupindex>
										</link>
										<labels>
											<label2>Forest</label2>
										</labels>
									</clipitem>
									<transitionitem>
										<start>5117</start>
										<end>5147</end>
										<pproTicksIn>43369989062400</pproTicksIn>
										<pproTicksOut>43624259078400</pproTicksOut>
										<alignment>end-black</alignment>
										<cutPointTicks>254270016000</cutPointTicks>
										<rate>
											<timebase>30</timebase>
											<ntsc>TRUE</ntsc>
										</rate>
										<effect>
											<name>Cross Fade ( 0dB)</name>
											<effectid>KGAudioTransCrossFade0dB</effectid>
											<effecttype>transition</effecttype>
											<mediatype>audio</mediatype>
											<wipecode>0</wipecode>
											<wipeaccuracy>100</wipeaccuracy>
											<startratio>0</startratio>
											<endratio>1</endratio>
											<reverse>FALSE</reverse>
										</effect>
									</transitionitem>
									<enabled>TRUE</enabled>
									<locked>FALSE</locked>
									<outputchannelindex>2</outputchannelindex>
								</track>
								<track TL.SQTrackAudioKeyframeStyle="0" TL.SQTrackShy="0" TL.SQTrackExpandedHeight="25" TL.SQTrackExpanded="0" MZ.TrackTargeted="1" PannerCurrentValue="0.5" PannerIsInverted="true" PannerStartKeyframe="-91445760000000000,0.5,0,0,0,0,0,0" PannerName="Balance" currentExplodedTrackIndex="0" totalExplodedTrackCount="2" premiereTrackType="Stereo">
									<clipitem id="clipitem-625" premiereChannelType="stereo">
										<masterclipid>masterclip-19</masterclipid>
										<name>Intro</name>
										<enabled>TRUE</enabled>
										<duration>160</duration>
										<rate>
											<timebase>30</timebase>
											<ntsc>TRUE</ntsc>
										</rate>
										<start>0</start>
										<end>115</end>
										<in>0</in>
										<out>115</out>
										<pproTicksIn>0</pproTicksIn>
										<pproTicksOut>974701728000</pproTicksOut>
										<sequence id="sequence-4"/>
										<sourcetrack>
											<mediatype>audio</mediatype>
											<trackindex>0</trackindex>
										</sourcetrack>
											<marker>
												<comment></comment>
												<name></name>
												<in>82</in>
												<out>-1</out>
											</marker>
										<link>
											<linkclipref>clipitem-618</linkclipref>
											<mediatype>video</mediatype>
											<trackindex>4</trackindex>
											<clipindex>1</clipindex>
										</link>
										<link>
											<linkclipref>clipitem-625</linkclipref>
											<mediatype>audio</mediatype>
											<trackindex>3</trackindex>
											<clipindex>1</clipindex>
											<groupindex>1</groupindex>
										</link>
										<link>
											<linkclipref>clipitem-628</linkclipref>
											<mediatype>audio</mediatype>
											<trackindex>4</trackindex>
											<clipindex>1</clipindex>
											<groupindex>1</groupindex>
										</link>
										<labels>
											<label2>Forest</label2>
										</labels>
									</clipitem>
									<clipitem id="clipitem-626" premiereChannelType="stereo">
										<masterclipid>masterclip-42</masterclipid>
										<name>Transition 1</name>
										<enabled>TRUE</enabled>
										<duration>160</duration>
										<rate>
											<timebase>30</timebase>
											<ntsc>TRUE</ntsc>
										</rate>
										<start>2642</start>
										<end>2760</end>
										<in>0</in>
										<out>118</out>
										<pproTicksIn>0</pproTicksIn>
										<pproTicksOut>1000128729600</pproTicksOut>
										<sequence id="sequence-11"/>
										<sourcetrack>
											<mediatype>audio</mediatype>
											<trackindex>0</trackindex>
										</sourcetrack>
											<marker>
												<comment></comment>
												<name></name>
												<in>56</in>
												<out>-1</out>
											</marker>
										<link>
											<linkclipref>clipitem-619</linkclipref>
											<mediatype>video</mediatype>
											<trackindex>4</trackindex>
											<clipindex>2</clipindex>
										</link>
										<link>
											<linkclipref>clipitem-626</linkclipref>
											<mediatype>audio</mediatype>
											<trackindex>3</trackindex>
											<clipindex>2</clipindex>
											<groupindex>1</groupindex>
										</link>
										<link>
											<linkclipref>clipitem-629</linkclipref>
											<mediatype>audio</mediatype>
											<trackindex>4</trackindex>
											<clipindex>2</clipindex>
											<groupindex>1</groupindex>
										</link>
										<labels>
											<label2>Forest</label2>
										</labels>
									</clipitem>
									<clipitem id="clipitem-627" premiereChannelType="stereo">
										<masterclipid>masterclip-23</masterclipid>
										<name>Outro</name>
										<enabled>TRUE</enabled>
										<duration>160</duration>
										<rate>
											<timebase>30</timebase>
											<ntsc>TRUE</ntsc>
										</rate>
										<start>5105</start>
										<end>5242</end>
										<in>0</in>
										<out>137</out>
										<pproTicksIn>0</pproTicksIn>
										<pproTicksOut>1161166406400</pproTicksOut>
										<sequence id="sequence-6"/>
										<sourcetrack>
											<mediatype>audio</mediatype>
											<trackindex>0</trackindex>
										</sourcetrack>
											<marker>
												<comment></comment>
												<name></name>
												<in>42</in>
												<out>-1</out>
											</marker>
										<link>
											<linkclipref>clipitem-620</linkclipref>
											<mediatype>video</mediatype>
											<trackindex>4</trackindex>
											<clipindex>3</clipindex>
										</link>
										<link>
											<linkclipref>clipitem-627</linkclipref>
											<mediatype>audio</mediatype>
											<trackindex>3</trackindex>
											<clipindex>3</clipindex>
											<groupindex>1</groupindex>
										</link>
										<link>
											<linkclipref>clipitem-630</linkclipref>
											<mediatype>audio</mediatype>
											<trackindex>4</trackindex>
											<clipindex>3</clipindex>
											<groupindex>1</groupindex>
										</link>
										<labels>
											<label2>Forest</label2>
										</labels>
									</clipitem>
									<enabled>TRUE</enabled>
									<locked>FALSE</locked>
									<outputchannelindex>1</outputchannelindex>
								</track>
								<track TL.SQTrackAudioKeyframeStyle="0" TL.SQTrackShy="0" TL.SQTrackExpandedHeight="25" TL.SQTrackExpanded="0" MZ.TrackTargeted="1" PannerCurrentValue="0.5" PannerIsInverted="true" PannerStartKeyframe="-91445760000000000,0.5,0,0,0,0,0,0" PannerName="Balance" currentExplodedTrackIndex="1" totalExplodedTrackCount="2" premiereTrackType="Stereo">
									<clipitem id="clipitem-628" premiereChannelType="stereo">
										<masterclipid>masterclip-19</masterclipid>
										<name>Intro</name>
										<enabled>TRUE</enabled>
										<duration>160</duration>
										<rate>
											<timebase>30</timebase>
											<ntsc>TRUE</ntsc>
										</rate>
										<start>0</start>
										<end>115</end>
										<in>0</in>
										<out>115</out>
										<pproTicksIn>0</pproTicksIn>
										<pproTicksOut>974701728000</pproTicksOut>
										<sequence id="sequence-4"/>
										<sourcetrack>
											<mediatype>audio</mediatype>
											<trackindex>1</trackindex>
										</sourcetrack>
											<marker>
												<comment></comment>
												<name></name>
												<in>82</in>
												<out>-1</out>
											</marker>
										<link>
											<linkclipref>clipitem-618</linkclipref>
											<mediatype>video</mediatype>
											<trackindex>4</trackindex>
											<clipindex>1</clipindex>
										</link>
										<link>
											<linkclipref>clipitem-625</linkclipref>
											<mediatype>audio</mediatype>
											<trackindex>3</trackindex>
											<clipindex>1</clipindex>
											<groupindex>1</groupindex>
										</link>
										<link>
											<linkclipref>clipitem-628</linkclipref>
											<mediatype>audio</mediatype>
											<trackindex>4</trackindex>
											<clipindex>1</clipindex>
											<groupindex>1</groupindex>
										</link>
										<labels>
											<label2>Forest</label2>
										</labels>
									</clipitem>
									<clipitem id="clipitem-629" premiereChannelType="stereo">
										<masterclipid>masterclip-42</masterclipid>
										<name>Transition 1</name>
										<enabled>TRUE</enabled>
										<duration>160</duration>
										<rate>
											<timebase>30</timebase>
											<ntsc>TRUE</ntsc>
										</rate>
										<start>2642</start>
										<end>2760</end>
										<in>0</in>
										<out>118</out>
										<pproTicksIn>0</pproTicksIn>
										<pproTicksOut>1000128729600</pproTicksOut>
										<sequence id="sequence-11"/>
										<sourcetrack>
											<mediatype>audio</mediatype>
											<trackindex>1</trackindex>
										</sourcetrack>
											<marker>
												<comment></comment>
												<name></name>
												<in>56</in>
												<out>-1</out>
											</marker>
										<link>
											<linkclipref>clipitem-619</linkclipref>
											<mediatype>video</mediatype>
											<trackindex>4</trackindex>
											<clipindex>2</clipindex>
										</link>
										<link>
											<linkclipref>clipitem-626</linkclipref>
											<mediatype>audio</mediatype>
											<trackindex>3</trackindex>
											<clipindex>2</clipindex>
											<groupindex>1</groupindex>
										</link>
										<link>
											<linkclipref>clipitem-629</linkclipref>
											<mediatype>audio</mediatype>
											<trackindex>4</trackindex>
											<clipindex>2</clipindex>
											<groupindex>1</groupindex>
										</link>
										<labels>
											<label2>Forest</label2>
										</labels>
									</clipitem>
									<clipitem id="clipitem-630" premiereChannelType="stereo">
										<masterclipid>masterclip-23</masterclipid>
										<name>Outro</name>
										<enabled>TRUE</enabled>
										<duration>160</duration>
										<rate>
											<timebase>30</timebase>
											<ntsc>TRUE</ntsc>
										</rate>
										<start>5105</start>
										<end>5242</end>
										<in>0</in>
										<out>137</out>
										<pproTicksIn>0</pproTicksIn>
										<pproTicksOut>1161166406400</pproTicksOut>
										<sequence id="sequence-6"/>
										<sourcetrack>
											<mediatype>audio</mediatype>
											<trackindex>1</trackindex>
										</sourcetrack>
											<marker>
												<comment></comment>
												<name></name>
												<in>42</in>
												<out>-1</out>
											</marker>
										<link>
											<linkclipref>clipitem-620</linkclipref>
											<mediatype>video</mediatype>
											<trackindex>4</trackindex>
											<clipindex>3</clipindex>
										</link>
										<link>
											<linkclipref>clipitem-627</linkclipref>
											<mediatype>audio</mediatype>
											<trackindex>3</trackindex>
											<clipindex>3</clipindex>
											<groupindex>1</groupindex>
										</link>
										<link>
											<linkclipref>clipitem-630</linkclipref>
											<mediatype>audio</mediatype>
											<trackindex>4</trackindex>
											<clipindex>3</clipindex>
											<groupindex>1</groupindex>
										</link>
										<labels>
											<label2>Forest</label2>
										</labels>
									</clipitem>
									<enabled>TRUE</enabled>
									<locked>FALSE</locked>
									<outputchannelindex>2</outputchannelindex>
								</track>
								<track TL.SQTrackAudioKeyframeStyle="0" TL.SQTrackShy="0" TL.SQTrackExpandedHeight="25" TL.SQTrackExpanded="0" MZ.TrackTargeted="1" PannerCurrentValue="0.5" PannerIsInverted="true" PannerStartKeyframe="-91445760000000000,0.5,0,0,0,0,0,0" PannerName="Balance" currentExplodedTrackIndex="0" totalExplodedTrackCount="2" premiereTrackType="Stereo">
									<enabled>TRUE</enabled>
									<locked>FALSE</locked>
									<outputchannelindex>1</outputchannelindex>
								</track>
								<track TL.SQTrackAudioKeyframeStyle="0" TL.SQTrackShy="0" TL.SQTrackExpandedHeight="25" TL.SQTrackExpanded="0" MZ.TrackTargeted="1" PannerCurrentValue="0.5" PannerIsInverted="true" PannerStartKeyframe="-91445760000000000,0.5,0,0,0,0,0,0" PannerName="Balance" currentExplodedTrackIndex="1" totalExplodedTrackCount="2" premiereTrackType="Stereo">
									<enabled>TRUE</enabled>
									<locked>FALSE</locked>
									<outputchannelindex>2</outputchannelindex>
								</track>
							</audio>
						</media>
						<timecode>
							<rate>
								<timebase>30</timebase>
								<ntsc>TRUE</ntsc>
							</rate>
							<string>00;00;00;00</string>
							<frame>0</frame>
							<displayformat>DF</displayformat>
						</timecode>
						<labels>
							<label2>Forest</label2>
						</labels>
						<logginginfo>
							<description></description>
							<scene></scene>
							<shottake></shottake>
							<lognote></lognote>
							<good></good>
							<originalvideofilename></originalvideofilename>
							<originalaudiofilename></originalaudiofilename>
						</logginginfo>
					</sequence>
					<sequence id="sequence-45" TL.SQAudioVisibleBase="0" TL.SQVideoVisibleBase="0" TL.SQVisibleBaseTime="0" TL.SQAVDividerPosition="0.5" TL.SQHideShyTracks="0" TL.SQHeaderWidth="236" TL.SQDataTrackViewControlState="0" Monitor.ProgramZoomOut="48319778707200" Monitor.ProgramZoomIn="0" TL.SQTimePerPixel="0.19755584166666668" AM.TrackVScrollPosition="0" AM.TrackScrollPosition="0" MZ.EditLine="46217813241600" MZ.Sequence.PreviewFrameSizeHeight="1080" MZ.Sequence.PreviewFrameSizeWidth="1920" MZ.Sequence.AudioTimeDisplayFormat="200" MZ.Sequence.PreviewRenderingClassID="1061109567" MZ.Sequence.PreviewRenderingPresetCodec="1634755443" MZ.Sequence.PreviewRenderingPresetPath="EncoderPresets/SequencePreview/35d109db-457b-43c1-9452-9cb7be9f121c/QuickTime.epr" MZ.Sequence.PreviewUseMaxRenderQuality="false" MZ.Sequence.PreviewUseMaxBitDepth="false" MZ.Sequence.EditingModeGUID="35d109db-457b-43c1-9452-9cb7be9f121c" MZ.Sequence.VideoTimeDisplayFormat="102" MZ.WorkOutPoint="15239249625600" MZ.WorkInPoint="0" explodedTracks="true">
						<uuid>7d1d4761-1421-4fe4-9205-160c5fd87c6c</uuid>
						<duration>5701</duration>
						<rate>
							<timebase>30</timebase>
							<ntsc>TRUE</ntsc>
						</rate>
						<name>ATM_EYECANDY_237</name>
						<media>
							<video>
								<format>
									<samplecharacteristics>
										<rate>
											<timebase>30</timebase>
											<ntsc>TRUE</ntsc>
										</rate>
										<codec>
											<name>Apple ProRes 422</name>
											<appspecificdata>
												<appname>Final Cut Pro</appname>
												<appmanufacturer>Apple Inc.</appmanufacturer>
												<appversion>7.0</appversion>
												<data>
													<qtcodec>
														<codecname>Apple ProRes 422</codecname>
														<codectypename>Apple ProRes 422</codectypename>
														<codectypecode>apcn</codectypecode>
														<codecvendorcode>appl</codecvendorcode>
														<spatialquality>1024</spatialquality>
														<temporalquality>0</temporalquality>
														<keyframerate>0</keyframerate>
														<datarate>0</datarate>
													</qtcodec>
												</data>
											</appspecificdata>
										</codec>
										<width>1920</width>
										<height>1080</height>
										<anamorphic>FALSE</anamorphic>
										<pixelaspectratio>square</pixelaspectratio>
										<fielddominance>none</fielddominance>
										<colordepth>24</colordepth>
									</samplecharacteristics>
								</format>
								<track TL.SQTrackShy="0" TL.SQTrackExpandedHeight="25" TL.SQTrackExpanded="0" MZ.TrackTargeted="1">
									<clipitem id="clipitem-631">
										<masterclipid>masterclip-233</masterclipid>
										<name>Tripple the Toast_1.5</name>
										<enabled>TRUE</enabled>
										<duration>2953</duration>
										<rate>
											<timebase>30</timebase>
											<ntsc>TRUE</ntsc>
										</rate>
										<start>82</start>
										<end>2800</end>
										<in>0</in>
										<out>2718</out>
										<pproTicksIn>0</pproTicksIn>
										<pproTicksOut>23036863449600</pproTicksOut>
										<sequence id="sequence-46" TL.SQAudioVisibleBase="0" TL.SQVideoVisibleBase="0" TL.SQVisibleBaseTime="0" TL.SQAVDividerPosition="0.5" TL.SQHideShyTracks="0" TL.SQHeaderWidth="236" TL.SQDataTrackViewControlState="0" Monitor.ProgramZoomOut="9696163276800" Monitor.ProgramZoomIn="3966612249600" TL.SQTimePerPixel="0.11207125197087055" AM.TrackVScrollPosition="0" AM.TrackScrollPosition="0" MZ.EditLine="7619624812800" MZ.Sequence.PreviewFrameSizeHeight="1080" MZ.Sequence.PreviewFrameSizeWidth="1920" MZ.Sequence.AudioTimeDisplayFormat="200" MZ.Sequence.PreviewRenderingClassID="1061109567" MZ.Sequence.PreviewRenderingPresetCodec="1634755443" MZ.Sequence.PreviewRenderingPresetPath="EncoderPresets/SequencePreview/35d109db-457b-43c1-9452-9cb7be9f121c/QuickTime.epr" MZ.Sequence.PreviewUseMaxRenderQuality="false" MZ.Sequence.PreviewUseMaxBitDepth="false" MZ.Sequence.EditingModeGUID="35d109db-457b-43c1-9452-9cb7be9f121c" MZ.Sequence.VideoTimeDisplayFormat="102" MZ.WorkOutPoint="1262874412800" MZ.WorkInPoint="0">
											<duration>2718</duration>
											<rate>
												<timebase>30</timebase>
												<ntsc>TRUE</ntsc>
											</rate>
											<name>FND_Triple the Toast_1.5</name>
											<media>
												<video>
													<format>
														<samplecharacteristics>
															<rate>
																<timebase>30</timebase>
																<ntsc>TRUE</ntsc>
															</rate>
															<codec>
																<name>Apple ProRes 422</name>
																<appspecificdata>
																	<appname>Final Cut Pro</appname>
																	<appmanufacturer>Apple Inc.</appmanufacturer>
																	<appversion>7.0</appversion>
																	<data>
																		<qtcodec>
																			<codecname>Apple ProRes 422</codecname>
																			<codectypename>Apple ProRes 422</codectypename>
																			<codectypecode>apcn</codectypecode>
																			<codecvendorcode>appl</codecvendorcode>
																			<spatialquality>1024</spatialquality>
																			<temporalquality>0</temporalquality>
																			<keyframerate>0</keyframerate>
																			<datarate>0</datarate>
																		</qtcodec>
																	</data>
																</appspecificdata>
															</codec>
															<width>1920</width>
															<height>1080</height>
															<anamorphic>FALSE</anamorphic>
															<pixelaspectratio>square</pixelaspectratio>
															<fielddominance>none</fielddominance>
															<colordepth>24</colordepth>
														</samplecharacteristics>
													</format>
													<track TL.SQTrackShy="0" TL.SQTrackExpandedHeight="25" TL.SQTrackExpanded="0" MZ.TrackTargeted="1">
														<clipitem id="clipitem-632">
															<masterclipid>masterclip-234</masterclipid>
															<name>(eatsbyrachel)_Recreating Popular Brunch Toast from LA &amp; NYC (Davelle, Sqirl, &amp; Lodge Bread Co)_ExJXAxwy_GA_YT.mp4</name>
															<enabled>TRUE</enabled>
															<duration>14198</duration>
															<rate>
																<timebase>30</timebase>
																<ntsc>TRUE</ntsc>
															</rate>
															<start>0</start>
															<end>278</end>
															<in>2020</in>
															<out>2298</out>
															<pproTicksIn>17120847744000</pproTicksIn>
															<pproTicksOut>19477083225600</pproTicksOut>
															<alphatype>none</alphatype>
															<pixelaspectratio>square</pixelaspectratio>
															<anamorphic>FALSE</anamorphic>
															<file id="file-201">
																<name>(eatsbyrachel)_Recreating Popular Brunch Toast from LA &amp; NYC (Davelle, Sqirl, &amp; Lodge Bread Co)_ExJXAxwy_GA_YT.mp4</name>
																<pathurl>file://localhost/Volumes/ATM%201/EYE%20CANDY/8%3a14%3a23/3_Raw%20Files/(eatsbyrachel)_Recreating%20Popular%20Brunch%20Toast%20from%20LA%20&amp;%20NYC%20(Davelle,%20Sqirl,%20&amp;%20Lodge%20Bread%20Co)_ExJXAxwy_GA_YT.mp4</pathurl>
																<rate>
																	<timebase>30</timebase>
																	<ntsc>TRUE</ntsc>
																</rate>
																<duration>14198</duration>
																<timecode>
																	<rate>
																		<timebase>30</timebase>
																		<ntsc>TRUE</ntsc>
																	</rate>
																	<string>00:00:00:00</string>
																	<frame>0</frame>
																	<displayformat>NDF</displayformat>
																</timecode>
																<media>
																	<video>
																		<samplecharacteristics>
																			<rate>
																				<timebase>30</timebase>
																				<ntsc>TRUE</ntsc>
																			</rate>
																			<width>1920</width>
																			<height>1080</height>
																			<anamorphic>FALSE</anamorphic>
																			<pixelaspectratio>square</pixelaspectratio>
																			<fielddominance>none</fielddominance>
																		</samplecharacteristics>
																	</video>
																	<audio>
																		<samplecharacteristics>
																			<depth>16</depth>
																			<samplerate>44100</samplerate>
																		</samplecharacteristics>
																		<channelcount>2</channelcount>
																	</audio>
																</media>
															</file>
															<logginginfo>
																<description>Recreating Popular Brunch Toast from LA &amp; NYC (Davelle, Sqirl, &amp; Lodge Bread Co)</description>
																<scene></scene>
																<shottake></shottake>
																<lognote>https://www.youtube.com/watch?v=ExJXAxwy_GA</lognote>
																<good></good>
																<originalvideofilename></originalvideofilename>
																<originalaudiofilename></originalaudiofilename>
															</logginginfo>
															<colorinfo>
																<lut></lut>
																<lut1></lut1>
																<asc_sop></asc_sop>
																<asc_sat></asc_sat>
																<lut2></lut2>
															</colorinfo>
															<labels>
																<label2>Violet</label2>
															</labels>
														</clipitem>
														<clipitem id="clipitem-633">
															<masterclipid>masterclip-234</masterclipid>
															<name>(eatsbyrachel)_Recreating Popular Brunch Toast from LA &amp; NYC (Davelle, Sqirl, &amp; Lodge Bread Co)_ExJXAxwy_GA_YT.mp4</name>
															<enabled>TRUE</enabled>
															<duration>14198</duration>
															<rate>
																<timebase>30</timebase>
																<ntsc>TRUE</ntsc>
															</rate>
															<start>278</start>
															<end>533</end>
															<in>2344</in>
															<out>2599</out>
															<pproTicksIn>19866963916800</pproTicksIn>
															<pproTicksOut>22028259052800</pproTicksOut>
															<alphatype>none</alphatype>
															<file id="file-201"/>
															<logginginfo>
																<description>Recreating Popular Brunch Toast from LA &amp; NYC (Davelle, Sqirl, &amp; Lodge Bread Co)</description>
																<scene></scene>
																<shottake></shottake>
																<lognote>https://www.youtube.com/watch?v=ExJXAxwy_GA</lognote>
																<good></good>
																<originalvideofilename></originalvideofilename>
																<originalaudiofilename></originalaudiofilename>
															</logginginfo>
															<colorinfo>
																<lut></lut>
																<lut1></lut1>
																<asc_sop></asc_sop>
																<asc_sat></asc_sat>
																<lut2></lut2>
															</colorinfo>
															<labels>
																<label2>Violet</label2>
															</labels>
														</clipitem>
														<clipitem id="clipitem-634">
															<masterclipid>masterclip-234</masterclipid>
															<name>(eatsbyrachel)_Recreating Popular Brunch Toast from LA &amp; NYC (Davelle, Sqirl, &amp; Lodge Bread Co)_ExJXAxwy_GA_YT.mp4</name>
															<enabled>TRUE</enabled>
															<duration>10517</duration>
															<rate>
																<timebase>30</timebase>
																<ntsc>TRUE</ntsc>
															</rate>
															<start>533</start>
															<end>1191</end>
															<in>2526</in>
															<out>3183</out>
															<pproTicksIn>28902025152000</pproTicksIn>
															<pproTicksOut>36430960325760</pproTicksOut>
															<alphatype>none</alphatype>
															<file id="file-201"/>
															<filter>
																<effect>
																	<name>Time Remap</name>
																	<effectid>timeremap</effectid>
																	<effectcategory>motion</effectcategory>
																	<effecttype>motion</effecttype>
																	<mediatype>video</mediatype>
																	<parameter authoringApp="PremierePro">
																		<parameterid>variablespeed</parameterid>
																		<name>variablespeed</name>
																		<valuemin>0</valuemin>
																		<valuemax>1</valuemax>
																		<value>0</value>
																	</parameter>
																	<parameter authoringApp="PremierePro">
																		<parameterid>speed</parameterid>
																		<name>speed</name>
																		<valuemin>-100000</valuemin>
																		<valuemax>100000</valuemax>
																		<value>135</value>
																	</parameter>
																	<parameter authoringApp="PremierePro">
																		<parameterid>reverse</parameterid>
																		<name>reverse</name>
																		<value>FALSE</value>
																	</parameter>
																	<parameter authoringApp="PremierePro">
																		<parameterid>frameblending</parameterid>
																		<name>frameblending</name>
																		<value>FALSE</value>
																	</parameter>
																	<parameter authoringApp="PremierePro">
																		<parameterid>graphdict</parameterid>
																		<name>graphdict</name>
																		<valuemin>0</valuemin>
																		<valuemax>14197</valuemax>
																		<value>0</value>
																		<keyframe>
																			<when>0</when>
																			<value>0</value>
																			<speedvirtualkf>TRUE</speedvirtualkf>
																			<speedkfstart>TRUE</speedkfstart>
																		</keyframe>
																		<keyframe>
																			<when>2526</when>
																			<value>3410</value>
																			<speedvirtualkf>TRUE</speedvirtualkf>
																			<speedkfin>TRUE</speedkfin>
																		</keyframe>
																		<keyframe>
																			<when>3183</when>
																			<value>4297</value>
																			<speedvirtualkf>TRUE</speedvirtualkf>
																			<speedkfout>TRUE</speedkfout>
																		</keyframe>
																		<keyframe>
																			<when>10517</when>
																			<value>14197</value>
																			<speedvirtualkf>TRUE</speedvirtualkf>
																			<speedkfend>TRUE</speedkfend>
																		</keyframe>
																		<interpolation>
																			<name>FCPCurve</name>
																		</interpolation>
																	</parameter>
																</effect>
															</filter>
															<logginginfo>
																<description>Recreating Popular Brunch Toast from LA &amp; NYC (Davelle, Sqirl, &amp; Lodge Bread Co)</description>
																<scene></scene>
																<shottake></shottake>
																<lognote>https://www.youtube.com/watch?v=ExJXAxwy_GA</lognote>
																<good></good>
																<originalvideofilename></originalvideofilename>
																<originalaudiofilename></originalaudiofilename>
															</logginginfo>
															<colorinfo>
																<lut></lut>
																<lut1></lut1>
																<asc_sop></asc_sop>
																<asc_sat></asc_sat>
																<lut2></lut2>
															</colorinfo>
															<labels>
																<label2>Violet</label2>
															</labels>
														</clipitem>
														<clipitem id="clipitem-635">
															<masterclipid>masterclip-234</masterclipid>
															<name>(eatsbyrachel)_Recreating Popular Brunch Toast from LA &amp; NYC (Davelle, Sqirl, &amp; Lodge Bread Co)_ExJXAxwy_GA_YT.mp4</name>
															<enabled>TRUE</enabled>
															<duration>14198</duration>
															<rate>
																<timebase>30</timebase>
																<ntsc>TRUE</ntsc>
															</rate>
															<start>1191</start>
															<end>1267</end>
															<in>4299</in>
															<out>4375</out>
															<pproTicksIn>36436893292800</pproTicksIn>
															<pproTicksOut>37081044000000</pproTicksOut>
															<alphatype>none</alphatype>
															<file id="file-201"/>
															<logginginfo>
																<description>Recreating Popular Brunch Toast from LA &amp; NYC (Davelle, Sqirl, &amp; Lodge Bread Co)</description>
																<scene></scene>
																<shottake></shottake>
																<lognote>https://www.youtube.com/watch?v=ExJXAxwy_GA</lognote>
																<good></good>
																<originalvideofilename></originalvideofilename>
																<originalaudiofilename></originalaudiofilename>
															</logginginfo>
															<colorinfo>
																<lut></lut>
																<lut1></lut1>
																<asc_sop></asc_sop>
																<asc_sat></asc_sat>
																<lut2></lut2>
															</colorinfo>
															<labels>
																<label2>Violet</label2>
															</labels>
														</clipitem>
														<clipitem id="clipitem-636">
															<masterclipid>masterclip-234</masterclipid>
															<name>(eatsbyrachel)_Recreating Popular Brunch Toast from LA &amp; NYC (Davelle, Sqirl, &amp; Lodge Bread Co)_ExJXAxwy_GA_YT.mp4</name>
															<enabled>TRUE</enabled>
															<duration>14198</duration>
															<rate>
																<timebase>30</timebase>
																<ntsc>TRUE</ntsc>
															</rate>
															<start>1267</start>
															<end>1897</end>
															<in>5658</in>
															<out>6288</out>
															<pproTicksIn>47955325017600</pproTicksIn>
															<pproTicksOut>53294995353600</pproTicksOut>
															<alphatype>none</alphatype>
															<file id="file-201"/>
															<logginginfo>
																<description>Recreating Popular Brunch Toast from LA &amp; NYC (Davelle, Sqirl, &amp; Lodge Bread Co)</description>
																<scene></scene>
																<shottake></shottake>
																<lognote>https://www.youtube.com/watch?v=ExJXAxwy_GA</lognote>
																<good></good>
																<originalvideofilename></originalvideofilename>
																<originalaudiofilename></originalaudiofilename>
															</logginginfo>
															<colorinfo>
																<lut></lut>
																<lut1></lut1>
																<asc_sop></asc_sop>
																<asc_sat></asc_sat>
																<lut2></lut2>
															</colorinfo>
															<labels>
																<label2>Violet</label2>
															</labels>
														</clipitem>
														<clipitem id="clipitem-637">
															<masterclipid>masterclip-234</masterclipid>
															<name>(eatsbyrachel)_Recreating Popular Brunch Toast from LA &amp; NYC (Davelle, Sqirl, &amp; Lodge Bread Co)_ExJXAxwy_GA_YT.mp4</name>
															<enabled>TRUE</enabled>
															<duration>14198</duration>
															<rate>
																<timebase>30</timebase>
																<ntsc>TRUE</ntsc>
															</rate>
															<start>1897</start>
															<end>2439</end>
															<in>6403</in>
															<out>6945</out>
															<pproTicksIn>54269697081600</pproTicksIn>
															<pproTicksOut>58863508704000</pproTicksOut>
															<alphatype>none</alphatype>
															<file id="file-201"/>
															<logginginfo>
																<description>Recreating Popular Brunch Toast from LA &amp; NYC (Davelle, Sqirl, &amp; Lodge Bread Co)</description>
																<scene></scene>
																<shottake></shottake>
																<lognote>https://www.youtube.com/watch?v=ExJXAxwy_GA</lognote>
																<good></good>
																<originalvideofilename></originalvideofilename>
																<originalaudiofilename></originalaudiofilename>
															</logginginfo>
															<colorinfo>
																<lut></lut>
																<lut1></lut1>
																<asc_sop></asc_sop>
																<asc_sat></asc_sat>
																<lut2></lut2>
															</colorinfo>
															<labels>
																<label2>Violet</label2>
															</labels>
														</clipitem>
														<clipitem id="clipitem-638">
															<masterclipid>masterclip-234</masterclipid>
															<name>(eatsbyrachel)_Recreating Popular Brunch Toast from LA &amp; NYC (Davelle, Sqirl, &amp; Lodge Bread Co)_ExJXAxwy_GA_YT.mp4</name>
															<enabled>TRUE</enabled>
															<duration>14198</duration>
															<rate>
																<timebase>30</timebase>
																<ntsc>TRUE</ntsc>
															</rate>
															<start>2439</start>
															<end>2718</end>
															<in>7005</in>
															<out>7284</out>
															<pproTicksIn>59372048736000</pproTicksIn>
															<pproTicksOut>61736759884800</pproTicksOut>
															<alphatype>none</alphatype>
															<file id="file-201"/>
															<logginginfo>
																<description>Recreating Popular Brunch Toast from LA &amp; NYC (Davelle, Sqirl, &amp; Lodge Bread Co)</description>
																<scene></scene>
																<shottake></shottake>
																<lognote>https://www.youtube.com/watch?v=ExJXAxwy_GA</lognote>
																<good></good>
																<originalvideofilename></originalvideofilename>
																<originalaudiofilename></originalaudiofilename>
															</logginginfo>
															<colorinfo>
																<lut></lut>
																<lut1></lut1>
																<asc_sop></asc_sop>
																<asc_sat></asc_sat>
																<lut2></lut2>
															</colorinfo>
															<labels>
																<label2>Violet</label2>
															</labels>
														</clipitem>
														<enabled>TRUE</enabled>
														<locked>FALSE</locked>
													</track>
													<track TL.SQTrackShy="0" TL.SQTrackExpandedHeight="25" TL.SQTrackExpanded="0" MZ.TrackTargeted="0">
														<clipitem id="clipitem-639">
															<masterclipid>masterclip-235</masterclipid>
															<name>eatsbyrachel</name>
															<enabled>TRUE</enabled>
															<duration>5844</duration>
															<rate>
																<timebase>30</timebase>
																<ntsc>TRUE</ntsc>
															</rate>
															<start>0</start>
															<end>2718</end>
															<in>0</in>
															<out>2718</out>
															<pproTicksIn>0</pproTicksIn>
															<pproTicksOut>23036863449600</pproTicksOut>
															<alphatype>straight</alphatype>
															<pixelaspectratio>square</pixelaspectratio>
															<anamorphic>FALSE</anamorphic>
															<file id="file-202">
																<name>1080/AE Attribution.aep</name>
																<pathurl>file://localhost/Volumes/ATM%201/EYE%20CANDY/Project%20Template/5_Assets/AE%20Attribution.aep</pathurl>
																<rate>
																	<timebase>30</timebase>
																	<ntsc>TRUE</ntsc>
																</rate>
																<duration>5844</duration>
																<timecode>
																	<rate>
																		<timebase>30</timebase>
																		<ntsc>TRUE</ntsc>
																	</rate>
																	<string>00;00;00;00</string>
																	<frame>0</frame>
																	<displayformat>DF</displayformat>
																</timecode>
																<media>
																	<video>
																		<samplecharacteristics>
																			<rate>
																				<timebase>30</timebase>
																				<ntsc>TRUE</ntsc>
																			</rate>
																			<width>1920</width>
																			<height>1080</height>
																			<anamorphic>FALSE</anamorphic>
																			<pixelaspectratio>square</pixelaspectratio>
																			<fielddominance>lower</fielddominance>
																		</samplecharacteristics>
																	</video>
																</media>
															</file>
															<logginginfo>
																<description></description>
																<scene></scene>
																<shottake></shottake>
																<lognote></lognote>
																<good></good>
																<originalvideofilename></originalvideofilename>
																<originalaudiofilename></originalaudiofilename>
															</logginginfo>
															<colorinfo>
																<lut></lut>
																<lut1></lut1>
																<asc_sop></asc_sop>
																<asc_sat></asc_sat>
																<lut2></lut2>
															</colorinfo>
															<labels>
																<label2>Rose</label2>
															</labels>
														</clipitem>
														<enabled>TRUE</enabled>
														<locked>FALSE</locked>
													</track>
													<track TL.SQTrackShy="0" TL.SQTrackExpandedHeight="25" TL.SQTrackExpanded="0" MZ.TrackTargeted="0">
														<enabled>TRUE</enabled>
														<locked>FALSE</locked>
													</track>
													<track TL.SQTrackShy="0" TL.SQTrackExpandedHeight="25" TL.SQTrackExpanded="0" MZ.TrackTargeted="0">
														<enabled>TRUE</enabled>
														<locked>FALSE</locked>
													</track>
													<track TL.SQTrackShy="0" TL.SQTrackExpandedHeight="25" TL.SQTrackExpanded="0" MZ.TrackTargeted="0">
														<enabled>TRUE</enabled>
														<locked>FALSE</locked>
													</track>
													<track TL.SQTrackShy="0" TL.SQTrackExpandedHeight="25" TL.SQTrackExpanded="0" MZ.TrackTargeted="0">
														<enabled>TRUE</enabled>
														<locked>FALSE</locked>
													</track>
													<track TL.SQTrackShy="0" TL.SQTrackExpandedHeight="25" TL.SQTrackExpanded="0" MZ.TrackTargeted="0">
														<enabled>TRUE</enabled>
														<locked>FALSE</locked>
													</track>
													<track TL.SQTrackShy="0" TL.SQTrackExpandedHeight="25" TL.SQTrackExpanded="0" MZ.TrackTargeted="0">
														<enabled>TRUE</enabled>
														<locked>FALSE</locked>
													</track>
													<track TL.SQTrackShy="0" TL.SQTrackExpandedHeight="25" TL.SQTrackExpanded="0" MZ.TrackTargeted="0">
														<enabled>TRUE</enabled>
														<locked>FALSE</locked>
													</track>
													<track TL.SQTrackShy="0" TL.SQTrackExpandedHeight="25" TL.SQTrackExpanded="0" MZ.TrackTargeted="0">
														<enabled>TRUE</enabled>
														<locked>FALSE</locked>
													</track>
												</video>
												<audio>
													<numOutputChannels>2</numOutputChannels>
													<format>
														<samplecharacteristics>
															<depth>16</depth>
															<samplerate>48000</samplerate>
														</samplecharacteristics>
													</format>
													<outputs>
														<group>
															<index>1</index>
															<numchannels>1</numchannels>
															<downmix>0</downmix>
															<channel>
																<index>1</index>
															</channel>
														</group>
														<group>
															<index>2</index>
															<numchannels>1</numchannels>
															<downmix>0</downmix>
															<channel>
																<index>2</index>
															</channel>
														</group>
													</outputs>
													<track TL.SQTrackAudioKeyframeStyle="0" TL.SQTrackShy="0" TL.SQTrackExpandedHeight="25" TL.SQTrackExpanded="0" MZ.TrackTargeted="1" PannerCurrentValue="0.5" PannerIsInverted="true" PannerStartKeyframe="-91445760000000000,0.5,0,0,0,0,0,0" PannerName="Balance" currentExplodedTrackIndex="0" totalExplodedTrackCount="2" premiereTrackType="Stereo">
														<clipitem id="clipitem-640" premiereChannelType="stereo">
															<masterclipid>masterclip-236</masterclipid>
															<name>ES_Knowledge Is Power - Matt Large.mp3</name>
															<enabled>TRUE</enabled>
															<duration>6362</duration>
															<rate>
																<timebase>30</timebase>
																<ntsc>TRUE</ntsc>
															</rate>
															<start>0</start>
															<end>2718</end>
															<in>0</in>
															<out>2718</out>
															<pproTicksIn>0</pproTicksIn>
															<pproTicksOut>23036863449600</pproTicksOut>
															<file id="file-203">
																<name>ES_Knowledge Is Power - Matt Large.mp3</name>
																<pathurl>file://localhost/Volumes/ATM%201/EYE%20CANDY/8%3a14%3a23/5_Assets/Music/ES_Knowledge%20Is%20Power%20-%20Matt%20Large.mp3</pathurl>
																<rate>
																	<timebase>30</timebase>
																	<ntsc>TRUE</ntsc>
																</rate>
																<duration>6362</duration>
																<timecode>
																	<rate>
																		<timebase>30</timebase>
																		<ntsc>TRUE</ntsc>
																	</rate>
																	<string>00;00;00;00</string>
																	<frame>0</frame>
																	<displayformat>DF</displayformat>
																</timecode>
																<media>
																	<audio>
																		<samplecharacteristics>
																			<depth>16</depth>
																			<samplerate>48000</samplerate>
																		</samplecharacteristics>
																		<channelcount>2</channelcount>
																	</audio>
																</media>
															</file>
															<sourcetrack>
																<mediatype>audio</mediatype>
																<trackindex>1</trackindex>
															</sourcetrack>
															<link>
																<linkclipref>clipitem-640</linkclipref>
																<mediatype>audio</mediatype>
																<trackindex>1</trackindex>
																<clipindex>1</clipindex>
																<groupindex>1</groupindex>
															</link>
															<link>
																<linkclipref>clipitem-641</linkclipref>
																<mediatype>audio</mediatype>
																<trackindex>2</trackindex>
																<clipindex>1</clipindex>
																<groupindex>1</groupindex>
															</link>
															<logginginfo>
																<description></description>
																<scene></scene>
																<shottake></shottake>
																<lognote></lognote>
																<good></good>
																<originalvideofilename></originalvideofilename>
																<originalaudiofilename></originalaudiofilename>
															</logginginfo>
															<colorinfo>
																<lut></lut>
																<lut1></lut1>
																<asc_sop></asc_sop>
																<asc_sat></asc_sat>
																<lut2></lut2>
															</colorinfo>
															<labels>
																<label2>Forest</label2>
															</labels>
														</clipitem>
														<enabled>TRUE</enabled>
														<locked>FALSE</locked>
														<filter>
															<effect>
																<name>Audio Levels</name>
																<effectid>audiolevels</effectid>
																<effectcategory>audiolevels</effectcategory>
																<effecttype>audiolevels</effecttype>
																<mediatype>audio</mediatype>
																<parameter authoringApp="PremierePro">
																	<parameterid>level</parameterid>
																	<name>Level</name>
																	<valuemin>0</valuemin>
																	<valuemax>3.98109</valuemax>
																	<value>0.706272</value>
																</parameter>
															</effect>
														</filter>
														<outputchannelindex>1</outputchannelindex>
													</track>
													<track TL.SQTrackAudioKeyframeStyle="0" TL.SQTrackShy="0" TL.SQTrackExpandedHeight="25" TL.SQTrackExpanded="0" MZ.TrackTargeted="1" PannerCurrentValue="0.5" PannerIsInverted="true" PannerStartKeyframe="-91445760000000000,0.5,0,0,0,0,0,0" PannerName="Balance" currentExplodedTrackIndex="1" totalExplodedTrackCount="2" premiereTrackType="Stereo">
														<clipitem id="clipitem-641" premiereChannelType="stereo">
															<masterclipid>masterclip-236</masterclipid>
															<name>ES_Knowledge Is Power - Matt Large.mp3</name>
															<enabled>TRUE</enabled>
															<duration>6362</duration>
															<rate>
																<timebase>30</timebase>
																<ntsc>TRUE</ntsc>
															</rate>
															<start>0</start>
															<end>2718</end>
															<in>0</in>
															<out>2718</out>
															<pproTicksIn>0</pproTicksIn>
															<pproTicksOut>23036863449600</pproTicksOut>
															<file id="file-203"/>
															<sourcetrack>
																<mediatype>audio</mediatype>
																<trackindex>2</trackindex>
															</sourcetrack>
															<link>
																<linkclipref>clipitem-640</linkclipref>
																<mediatype>audio</mediatype>
																<trackindex>1</trackindex>
																<clipindex>1</clipindex>
																<groupindex>1</groupindex>
															</link>
															<link>
																<linkclipref>clipitem-641</linkclipref>
																<mediatype>audio</mediatype>
																<trackindex>2</trackindex>
																<clipindex>1</clipindex>
																<groupindex>1</groupindex>
															</link>
															<logginginfo>
																<description></description>
																<scene></scene>
																<shottake></shottake>
																<lognote></lognote>
																<good></good>
																<originalvideofilename></originalvideofilename>
																<originalaudiofilename></originalaudiofilename>
															</logginginfo>
															<colorinfo>
																<lut></lut>
																<lut1></lut1>
																<asc_sop></asc_sop>
																<asc_sat></asc_sat>
																<lut2></lut2>
															</colorinfo>
															<labels>
																<label2>Forest</label2>
															</labels>
														</clipitem>
														<enabled>TRUE</enabled>
														<locked>FALSE</locked>
														<filter>
															<effect>
																<name>Audio Levels</name>
																<effectid>audiolevels</effectid>
																<effectcategory>audiolevels</effectcategory>
																<effecttype>audiolevels</effecttype>
																<mediatype>audio</mediatype>
																<parameter authoringApp="PremierePro">
																	<parameterid>level</parameterid>
																	<name>Level</name>
																	<valuemin>0</valuemin>
																	<valuemax>3.98109</valuemax>
																	<value>0.706272</value>
																</parameter>
															</effect>
														</filter>
														<outputchannelindex>2</outputchannelindex>
													</track>
													<track TL.SQTrackAudioKeyframeStyle="0" TL.SQTrackShy="0" TL.SQTrackExpandedHeight="25" TL.SQTrackExpanded="0" MZ.TrackTargeted="0" PannerCurrentValue="0.5" PannerIsInverted="true" PannerStartKeyframe="-91445760000000000,0.5,0,0,0,0,0,0" PannerName="Balance" currentExplodedTrackIndex="0" totalExplodedTrackCount="2" premiereTrackType="Stereo">
														<enabled>TRUE</enabled>
														<locked>FALSE</locked>
														<outputchannelindex>1</outputchannelindex>
													</track>
													<track TL.SQTrackAudioKeyframeStyle="0" TL.SQTrackShy="0" TL.SQTrackExpandedHeight="25" TL.SQTrackExpanded="0" MZ.TrackTargeted="0" PannerCurrentValue="0.5" PannerIsInverted="true" PannerStartKeyframe="-91445760000000000,0.5,0,0,0,0,0,0" PannerName="Balance" currentExplodedTrackIndex="1" totalExplodedTrackCount="2" premiereTrackType="Stereo">
														<enabled>TRUE</enabled>
														<locked>FALSE</locked>
														<outputchannelindex>2</outputchannelindex>
													</track>
													<track TL.SQTrackAudioKeyframeStyle="0" TL.SQTrackShy="0" TL.SQTrackExpandedHeight="25" TL.SQTrackExpanded="0" MZ.TrackTargeted="0" PannerCurrentValue="0.5" PannerIsInverted="true" PannerStartKeyframe="-91445760000000000,0.5,0,0,0,0,0,0" PannerName="Balance" currentExplodedTrackIndex="0" totalExplodedTrackCount="2" premiereTrackType="Stereo">
														<enabled>TRUE</enabled>
														<locked>FALSE</locked>
														<outputchannelindex>1</outputchannelindex>
													</track>
													<track TL.SQTrackAudioKeyframeStyle="0" TL.SQTrackShy="0" TL.SQTrackExpandedHeight="25" TL.SQTrackExpanded="0" MZ.TrackTargeted="0" PannerCurrentValue="0.5" PannerIsInverted="true" PannerStartKeyframe="-91445760000000000,0.5,0,0,0,0,0,0" PannerName="Balance" currentExplodedTrackIndex="1" totalExplodedTrackCount="2" premiereTrackType="Stereo">
														<enabled>TRUE</enabled>
														<locked>FALSE</locked>
														<outputchannelindex>2</outputchannelindex>
													</track>
													<track TL.SQTrackAudioKeyframeStyle="0" TL.SQTrackShy="0" TL.SQTrackExpandedHeight="25" TL.SQTrackExpanded="0" MZ.TrackTargeted="0" PannerCurrentValue="0.5" PannerIsInverted="true" PannerStartKeyframe="-91445760000000000,0.5,0,0,0,0,0,0" PannerName="Balance" currentExplodedTrackIndex="0" totalExplodedTrackCount="2" premiereTrackType="Stereo">
														<enabled>TRUE</enabled>
														<locked>FALSE</locked>
														<outputchannelindex>1</outputchannelindex>
													</track>
													<track TL.SQTrackAudioKeyframeStyle="0" TL.SQTrackShy="0" TL.SQTrackExpandedHeight="25" TL.SQTrackExpanded="0" MZ.TrackTargeted="0" PannerCurrentValue="0.5" PannerIsInverted="true" PannerStartKeyframe="-91445760000000000,0.5,0,0,0,0,0,0" PannerName="Balance" currentExplodedTrackIndex="1" totalExplodedTrackCount="2" premiereTrackType="Stereo">
														<enabled>TRUE</enabled>
														<locked>FALSE</locked>
														<outputchannelindex>2</outputchannelindex>
													</track>
													<track TL.SQTrackAudioKeyframeStyle="0" TL.SQTrackShy="0" TL.SQTrackExpandedHeight="25" TL.SQTrackExpanded="0" MZ.TrackTargeted="0" PannerCurrentValue="0.5" PannerIsInverted="true" PannerStartKeyframe="-91445760000000000,0.5,0,0,0,0,0,0" PannerName="Balance" currentExplodedTrackIndex="0" totalExplodedTrackCount="2" premiereTrackType="Stereo">
														<enabled>TRUE</enabled>
														<locked>FALSE</locked>
														<outputchannelindex>1</outputchannelindex>
													</track>
													<track TL.SQTrackAudioKeyframeStyle="0" TL.SQTrackShy="0" TL.SQTrackExpandedHeight="25" TL.SQTrackExpanded="0" MZ.TrackTargeted="0" PannerCurrentValue="0.5" PannerIsInverted="true" PannerStartKeyframe="-91445760000000000,0.5,0,0,0,0,0,0" PannerName="Balance" currentExplodedTrackIndex="1" totalExplodedTrackCount="2" premiereTrackType="Stereo">
														<enabled>TRUE</enabled>
														<locked>FALSE</locked>
														<outputchannelindex>2</outputchannelindex>
													</track>
													<track TL.SQTrackAudioKeyframeStyle="0" TL.SQTrackShy="0" TL.SQTrackExpandedHeight="25" TL.SQTrackExpanded="0" MZ.TrackTargeted="0" PannerCurrentValue="0.5" PannerIsInverted="true" PannerStartKeyframe="-91445760000000000,0.5,0,0,0,0,0,0" PannerName="Balance" currentExplodedTrackIndex="0" totalExplodedTrackCount="2" premiereTrackType="Stereo">
														<enabled>TRUE</enabled>
														<locked>FALSE</locked>
														<outputchannelindex>1</outputchannelindex>
													</track>
													<track TL.SQTrackAudioKeyframeStyle="0" TL.SQTrackShy="0" TL.SQTrackExpandedHeight="25" TL.SQTrackExpanded="0" MZ.TrackTargeted="0" PannerCurrentValue="0.5" PannerIsInverted="true" PannerStartKeyframe="-91445760000000000,0.5,0,0,0,0,0,0" PannerName="Balance" currentExplodedTrackIndex="1" totalExplodedTrackCount="2" premiereTrackType="Stereo">
														<enabled>TRUE</enabled>
														<locked>FALSE</locked>
														<outputchannelindex>2</outputchannelindex>
													</track>
													<track TL.SQTrackAudioKeyframeStyle="0" TL.SQTrackShy="0" TL.SQTrackExpandedHeight="25" TL.SQTrackExpanded="0" MZ.TrackTargeted="0" PannerCurrentValue="0.5" PannerIsInverted="true" PannerStartKeyframe="-91445760000000000,0.5,0,0,0,0,0,0" PannerName="Balance" currentExplodedTrackIndex="0" totalExplodedTrackCount="2" premiereTrackType="Stereo">
														<enabled>TRUE</enabled>
														<locked>FALSE</locked>
														<outputchannelindex>1</outputchannelindex>
													</track>
													<track TL.SQTrackAudioKeyframeStyle="0" TL.SQTrackShy="0" TL.SQTrackExpandedHeight="25" TL.SQTrackExpanded="0" MZ.TrackTargeted="0" PannerCurrentValue="0.5" PannerIsInverted="true" PannerStartKeyframe="-91445760000000000,0.5,0,0,0,0,0,0" PannerName="Balance" currentExplodedTrackIndex="1" totalExplodedTrackCount="2" premiereTrackType="Stereo">
														<enabled>TRUE</enabled>
														<locked>FALSE</locked>
														<outputchannelindex>2</outputchannelindex>
													</track>
													<track TL.SQTrackAudioKeyframeStyle="0" TL.SQTrackShy="0" TL.SQTrackExpandedHeight="25" TL.SQTrackExpanded="0" MZ.TrackTargeted="0" PannerCurrentValue="0.5" PannerIsInverted="true" PannerStartKeyframe="-91445760000000000,0.5,0,0,0,0,0,0" PannerName="Balance" currentExplodedTrackIndex="0" totalExplodedTrackCount="2" premiereTrackType="Stereo">
														<enabled>TRUE</enabled>
														<locked>FALSE</locked>
														<outputchannelindex>1</outputchannelindex>
													</track>
													<track TL.SQTrackAudioKeyframeStyle="0" TL.SQTrackShy="0" TL.SQTrackExpandedHeight="25" TL.SQTrackExpanded="0" MZ.TrackTargeted="0" PannerCurrentValue="0.5" PannerIsInverted="true" PannerStartKeyframe="-91445760000000000,0.5,0,0,0,0,0,0" PannerName="Balance" currentExplodedTrackIndex="1" totalExplodedTrackCount="2" premiereTrackType="Stereo">
														<enabled>TRUE</enabled>
														<locked>FALSE</locked>
														<outputchannelindex>2</outputchannelindex>
													</track>
													<track TL.SQTrackAudioKeyframeStyle="0" TL.SQTrackShy="0" TL.SQTrackExpandedHeight="25" TL.SQTrackExpanded="0" MZ.TrackTargeted="0" PannerCurrentValue="0.5" PannerIsInverted="true" PannerStartKeyframe="-91445760000000000,0.5,0,0,0,0,0,0" PannerName="Balance" currentExplodedTrackIndex="0" totalExplodedTrackCount="2" premiereTrackType="Stereo">
														<enabled>TRUE</enabled>
														<locked>FALSE</locked>
														<outputchannelindex>1</outputchannelindex>
													</track>
													<track TL.SQTrackAudioKeyframeStyle="0" TL.SQTrackShy="0" TL.SQTrackExpandedHeight="25" TL.SQTrackExpanded="0" MZ.TrackTargeted="0" PannerCurrentValue="0.5" PannerIsInverted="true" PannerStartKeyframe="-91445760000000000,0.5,0,0,0,0,0,0" PannerName="Balance" currentExplodedTrackIndex="1" totalExplodedTrackCount="2" premiereTrackType="Stereo">
														<enabled>TRUE</enabled>
														<locked>FALSE</locked>
														<outputchannelindex>2</outputchannelindex>
													</track>
													<track TL.SQTrackAudioKeyframeStyle="0" TL.SQTrackShy="0" TL.SQTrackExpandedHeight="25" TL.SQTrackExpanded="0" MZ.TrackTargeted="0" PannerCurrentValue="0.5" PannerIsInverted="true" PannerStartKeyframe="-91445760000000000,0.5,0,0,0,0,0,0" PannerName="Balance" currentExplodedTrackIndex="0" totalExplodedTrackCount="2" premiereTrackType="Stereo">
														<enabled>TRUE</enabled>
														<locked>FALSE</locked>
														<outputchannelindex>1</outputchannelindex>
													</track>
													<track TL.SQTrackAudioKeyframeStyle="0" TL.SQTrackShy="0" TL.SQTrackExpandedHeight="25" TL.SQTrackExpanded="0" MZ.TrackTargeted="0" PannerCurrentValue="0.5" PannerIsInverted="true" PannerStartKeyframe="-91445760000000000,0.5,0,0,0,0,0,0" PannerName="Balance" currentExplodedTrackIndex="1" totalExplodedTrackCount="2" premiereTrackType="Stereo">
														<enabled>TRUE</enabled>
														<locked>FALSE</locked>
														<outputchannelindex>2</outputchannelindex>
													</track>
												</audio>
											</media>
											<timecode>
												<rate>
													<timebase>30</timebase>
													<ntsc>TRUE</ntsc>
												</rate>
												<string>00;00;00;00</string>
												<frame>0</frame>
												<displayformat>DF</displayformat>
											</timecode>
											<logginginfo>
												<description></description>
												<scene></scene>
												<shottake></shottake>
												<lognote></lognote>
												<good></good>
												<originalvideofilename></originalvideofilename>
												<originalaudiofilename></originalaudiofilename>
											</logginginfo>
										</sequence>
										<link>
											<linkclipref>clipitem-631</linkclipref>
											<mediatype>video</mediatype>
											<trackindex>1</trackindex>
											<clipindex>1</clipindex>
										</link>
										<link>
											<linkclipref>clipitem-667</linkclipref>
											<mediatype>audio</mediatype>
											<trackindex>1</trackindex>
											<clipindex>1</clipindex>
											<groupindex>1</groupindex>
										</link>
										<link>
											<linkclipref>clipitem-670</linkclipref>
											<mediatype>audio</mediatype>
											<trackindex>2</trackindex>
											<clipindex>1</clipindex>
											<groupindex>1</groupindex>
										</link>
										<labels>
											<label2>Forest</label2>
										</labels>
									</clipitem>
									<clipitem id="clipitem-642">
										<masterclipid>masterclip-237</masterclipid>
										<name>Cool Blue Treats_1.5</name>
										<enabled>TRUE</enabled>
										<duration>12979</duration>
										<rate>
											<timebase>30</timebase>
											<ntsc>TRUE</ntsc>
										</rate>
										<start>2834</start>
										<end>5402</end>
										<in>0</in>
										<out>2568</out>
										<pproTicksIn>0</pproTicksIn>
										<pproTicksOut>21765513369600</pproTicksOut>
										<sequence id="sequence-47" TL.SQAudioVisibleBase="0" TL.SQVideoVisibleBase="0" TL.SQVisibleBaseTime="13016523246814" TL.SQAVDividerPosition="0.5" TL.SQHideShyTracks="0" TL.SQHeaderWidth="236" TL.SQDataTrackViewControlState="0" Monitor.ProgramZoomOut="21765513369600" Monitor.ProgramZoomIn="0" TL.SQTimePerPixel="0.05206854677174666" AM.TrackVScrollPosition="0" AM.TrackScrollPosition="0" MZ.EditLine="20638249632000" MZ.Sequence.PreviewFrameSizeHeight="1080" MZ.Sequence.PreviewFrameSizeWidth="1920" MZ.Sequence.AudioTimeDisplayFormat="200" MZ.Sequence.PreviewRenderingClassID="1061109567" MZ.Sequence.PreviewRenderingPresetCodec="1634755443" MZ.Sequence.PreviewRenderingPresetPath="EncoderPresets/SequencePreview/35d109db-457b-43c1-9452-9cb7be9f121c/QuickTime.epr" MZ.Sequence.PreviewUseMaxRenderQuality="false" MZ.Sequence.PreviewUseMaxBitDepth="false" MZ.Sequence.EditingModeGUID="35d109db-457b-43c1-9452-9cb7be9f121c" MZ.Sequence.VideoTimeDisplayFormat="102" MZ.WorkOutPoint="1262874412800" MZ.WorkInPoint="0">
											<duration>2568</duration>
											<rate>
												<timebase>30</timebase>
												<ntsc>TRUE</ntsc>
											</rate>
											<name>FND_Cool Blue Treats_1.5</name>
											<media>
												<video>
													<format>
														<samplecharacteristics>
															<rate>
																<timebase>30</timebase>
																<ntsc>TRUE</ntsc>
															</rate>
															<codec>
																<name>Apple ProRes 422</name>
																<appspecificdata>
																	<appname>Final Cut Pro</appname>
																	<appmanufacturer>Apple Inc.</appmanufacturer>
																	<appversion>7.0</appversion>
																	<data>
																		<qtcodec>
																			<codecname>Apple ProRes 422</codecname>
																			<codectypename>Apple ProRes 422</codectypename>
																			<codectypecode>apcn</codectypecode>
																			<codecvendorcode>appl</codecvendorcode>
																			<spatialquality>1024</spatialquality>
																			<temporalquality>0</temporalquality>
																			<keyframerate>0</keyframerate>
																			<datarate>0</datarate>
																		</qtcodec>
																	</data>
																</appspecificdata>
															</codec>
															<width>1920</width>
															<height>1080</height>
															<anamorphic>FALSE</anamorphic>
															<pixelaspectratio>square</pixelaspectratio>
															<fielddominance>none</fielddominance>
															<colordepth>24</colordepth>
														</samplecharacteristics>
													</format>
													<track TL.SQTrackShy="0" TL.SQTrackExpandedHeight="25" TL.SQTrackExpanded="0" MZ.TrackTargeted="1">
														<clipitem id="clipitem-643">
															<masterclipid>masterclip-238</masterclipid>
															<name>(MILKY TREATS)_Making a chocolate cake batter milkshake _ _ #icecream  #milkshake #icecreamshop_0RpIpO8Wp9M_YT.mp4</name>
															<enabled>TRUE</enabled>
															<duration>624</duration>
															<rate>
																<timebase>30</timebase>
																<ntsc>TRUE</ntsc>
															</rate>
															<start>0</start>
															<end>240</end>
															<in>11</in>
															<out>251</out>
															<pproTicksIn>93232339200</pproTicksIn>
															<pproTicksOut>2127392467200</pproTicksOut>
															<alphatype>none</alphatype>
															<pixelaspectratio>square</pixelaspectratio>
															<anamorphic>FALSE</anamorphic>
															<file id="file-204">
																<name>(MILKY TREATS)_Making a chocolate cake batter milkshake _ _ #icecream  #milkshake #icecreamshop_0RpIpO8Wp9M_YT.mp4</name>
																<pathurl>file://localhost/Volumes/ATM%201/EYE%20CANDY/8%3a14%3a23/3_Raw%20Files/cold%20blue/(MILKY%20TREATS)_Making%20a%20chocolate%20cake%20batter%20milkshake%20_%20_%20#icecream%20%20#milkshake%20#icecreamshop_0RpIpO8Wp9M_YT.mp4</pathurl>
																<rate>
																	<timebase>30</timebase>
																	<ntsc>FALSE</ntsc>
																</rate>
																<duration>625</duration>
																<timecode>
																	<rate>
																		<timebase>30</timebase>
																		<ntsc>FALSE</ntsc>
																	</rate>
																	<string>00:00:00:00</string>
																	<frame>0</frame>
																	<displayformat>NDF</displayformat>
																</timecode>
																<media>
																	<video>
																		<samplecharacteristics>
																			<rate>
																				<timebase>30</timebase>
																				<ntsc>FALSE</ntsc>
																			</rate>
																			<width>720</width>
																			<height>1280</height>
																			<anamorphic>FALSE</anamorphic>
																			<pixelaspectratio>square</pixelaspectratio>
																			<fielddominance>none</fielddominance>
																		</samplecharacteristics>
																	</video>
																	<audio>
																		<samplecharacteristics>
																			<depth>16</depth>
																			<samplerate>44100</samplerate>
																		</samplecharacteristics>
																		<channelcount>2</channelcount>
																	</audio>
																</media>
															</file>
															<filter>
																<effect>
																	<name>Basic Motion</name>
																	<effectid>basic</effectid>
																	<effectcategory>motion</effectcategory>
																	<effecttype>motion</effecttype>
																	<mediatype>video</mediatype>
																	<pproBypass>false</pproBypass>
																	<parameter authoringApp="PremierePro">
																		<parameterid>scale</parameterid>
																		<name>Scale</name>
																		<valuemin>0</valuemin>
																		<valuemax>1000</valuemax>
																		<value>100</value>
																	</parameter>
																	<parameter authoringApp="PremierePro">
																		<parameterid>rotation</parameterid>
																		<name>Rotation</name>
																		<valuemin>-8640</valuemin>
																		<valuemax>8640</valuemax>
																		<value>0</value>
																	</parameter>
																	<parameter authoringApp="PremierePro">
																		<parameterid>center</parameterid>
																		<name>Center</name>
																		<value>
																			<horiz>0.0194445</horiz>
																			<vert>0</vert>
																		</value>
																	</parameter>
																	<parameter authoringApp="PremierePro">
																		<parameterid>centerOffset</parameterid>
																		<name>Anchor Point</name>
																		<value>
																			<horiz>0</horiz>
																			<vert>0</vert>
																		</value>
																	</parameter>
																	<parameter authoringApp="PremierePro">
																		<parameterid>antiflicker</parameterid>
																		<name>Anti-flicker Filter</name>
																		<valuemin>0.0</valuemin>
																		<valuemax>1.0</valuemax>
																		<value>0</value>
																	</parameter>
																</effect>
															</filter>
															<logginginfo>
																<description></description>
																<scene></scene>
																<shottake></shottake>
																<lognote></lognote>
																<good></good>
																<originalvideofilename></originalvideofilename>
																<originalaudiofilename></originalaudiofilename>
															</logginginfo>
															<colorinfo>
																<lut></lut>
																<lut1></lut1>
																<asc_sop></asc_sop>
																<asc_sat></asc_sat>
																<lut2></lut2>
															</colorinfo>
															<labels>
																<label2>Violet</label2>
															</labels>
														</clipitem>
														<clipitem id="clipitem-644">
															<masterclipid>masterclip-238</masterclipid>
															<name>(MILKY TREATS)_Making a chocolate cake batter milkshake _ _ #icecream  #milkshake #icecreamshop_0RpIpO8Wp9M_YT.mp4</name>
															<enabled>TRUE</enabled>
															<duration>624</duration>
															<rate>
																<timebase>30</timebase>
																<ntsc>TRUE</ntsc>
															</rate>
															<start>240</start>
															<end>572</end>
															<in>274</in>
															<out>606</out>
															<pproTicksIn>2322332812800</pproTicksIn>
															<pproTicksOut>5136254323200</pproTicksOut>
															<alphatype>none</alphatype>
															<file id="file-204"/>
															<filter>
																<effect>
																	<name>Basic Motion</name>
																	<effectid>basic</effectid>
																	<effectcategory>motion</effectcategory>
																	<effecttype>motion</effecttype>
																	<mediatype>video</mediatype>
																	<pproBypass>false</pproBypass>
																	<parameter authoringApp="PremierePro">
																		<parameterid>scale</parameterid>
																		<name>Scale</name>
																		<valuemin>0</valuemin>
																		<valuemax>1000</valuemax>
																		<value>100</value>
																	</parameter>
																	<parameter authoringApp="PremierePro">
																		<parameterid>rotation</parameterid>
																		<name>Rotation</name>
																		<valuemin>-8640</valuemin>
																		<valuemax>8640</valuemax>
																		<value>0</value>
																	</parameter>
																	<parameter authoringApp="PremierePro">
																		<parameterid>center</parameterid>
																		<name>Center</name>
																		<value>
																			<horiz>0.0194445</horiz>
																			<vert>0</vert>
																		</value>
																	</parameter>
																	<parameter authoringApp="PremierePro">
																		<parameterid>centerOffset</parameterid>
																		<name>Anchor Point</name>
																		<value>
																			<horiz>0</horiz>
																			<vert>0</vert>
																		</value>
																	</parameter>
																	<parameter authoringApp="PremierePro">
																		<parameterid>antiflicker</parameterid>
																		<name>Anti-flicker Filter</name>
																		<valuemin>0.0</valuemin>
																		<valuemax>1.0</valuemax>
																		<value>0</value>
																	</parameter>
																</effect>
															</filter>
															<logginginfo>
																<description></description>
																<scene></scene>
																<shottake></shottake>
																<lognote></lognote>
																<good></good>
																<originalvideofilename></originalvideofilename>
																<originalaudiofilename></originalaudiofilename>
															</logginginfo>
															<colorinfo>
																<lut></lut>
																<lut1></lut1>
																<asc_sop></asc_sop>
																<asc_sat></asc_sat>
																<lut2></lut2>
															</colorinfo>
															<labels>
																<label2>Violet</label2>
															</labels>
														</clipitem>
														<clipitem id="clipitem-645">
															<masterclipid>masterclip-239</masterclipid>
															<name>(goodeatzco)_B7jmiZClHPU - 3_IG.mp4</name>
															<enabled>TRUE</enabled>
															<duration>628</duration>
															<rate>
																<timebase>30</timebase>
																<ntsc>TRUE</ntsc>
															</rate>
															<start>572</start>
															<end>1086</end>
															<in>0</in>
															<out>514</out>
															<pproTicksIn>0</pproTicksIn>
															<pproTicksOut>4356492940800</pproTicksOut>
															<alphatype>none</alphatype>
															<pixelaspectratio>square</pixelaspectratio>
															<anamorphic>FALSE</anamorphic>
															<file id="file-205">
																<name>(goodeatzco)_B7jmiZClHPU - 3_IG.mp4</name>
																<pathurl>file://localhost/Volumes/ATM%201/EYE%20CANDY/8%3a14%3a23/3_Raw%20Files/cold%20blue/(goodeatzco)_B7jmiZClHPU%20-%203_IG.mp4</pathurl>
																<rate>
																	<timebase>30</timebase>
																	<ntsc>FALSE</ntsc>
																</rate>
																<duration>629</duration>
																<timecode>
																	<rate>
																		<timebase>30</timebase>
																		<ntsc>FALSE</ntsc>
																	</rate>
																	<string>00:00:00:00</string>
																	<frame>0</frame>
																	<displayformat>NDF</displayformat>
																</timecode>
																<media>
																	<video>
																		<samplecharacteristics>
																			<rate>
																				<timebase>30</timebase>
																				<ntsc>FALSE</ntsc>
																			</rate>
																			<width>720</width>
																			<height>900</height>
																			<anamorphic>FALSE</anamorphic>
																			<pixelaspectratio>square</pixelaspectratio>
																			<fielddominance>none</fielddominance>
																		</samplecharacteristics>
																	</video>
																	<audio>
																		<samplecharacteristics>
																			<depth>16</depth>
																			<samplerate>44100</samplerate>
																		</samplecharacteristics>
																		<channelcount>2</channelcount>
																	</audio>
																</media>
															</file>
															<logginginfo>
																<description></description>
																<scene></scene>
																<shottake></shottake>
																<lognote></lognote>
																<good></good>
																<originalvideofilename></originalvideofilename>
																<originalaudiofilename></originalaudiofilename>
															</logginginfo>
															<colorinfo>
																<lut></lut>
																<lut1></lut1>
																<asc_sop></asc_sop>
																<asc_sat></asc_sat>
																<lut2></lut2>
															</colorinfo>
															<labels>
																<label2>Violet</label2>
															</labels>
														</clipitem>
														<clipitem id="clipitem-646">
															<masterclipid>masterclip-240</masterclipid>
															<name>(thecustardco)_7030596310671723822_TT.mp4</name>
															<enabled>TRUE</enabled>
															<duration>871</duration>
															<rate>
																<timebase>30</timebase>
																<ntsc>TRUE</ntsc>
															</rate>
															<start>1086</start>
															<end>1849</end>
															<in>0</in>
															<out>763</out>
															<pproTicksIn>0</pproTicksIn>
															<pproTicksOut>6466934073600</pproTicksOut>
															<alphatype>none</alphatype>
															<pixelaspectratio>square</pixelaspectratio>
															<anamorphic>FALSE</anamorphic>
															<file id="file-206">
																<name>(thecustardco)_7030596310671723822_TT.mp4</name>
																<pathurl>file://localhost/Volumes/ATM%201/EYE%20CANDY/8%3a14%3a23/3_Raw%20Files/cold%20blue/(thecustardco)_7030596310671723822_TT.mp4</pathurl>
																<rate>
																	<timebase>30</timebase>
																	<ntsc>FALSE</ntsc>
																</rate>
																<duration>872</duration>
																<timecode>
																	<rate>
																		<timebase>30</timebase>
																		<ntsc>FALSE</ntsc>
																	</rate>
																	<string>00:00:00:00</string>
																	<frame>0</frame>
																	<displayformat>NDF</displayformat>
																</timecode>
																<media>
																	<video>
																		<samplecharacteristics>
																			<rate>
																				<timebase>30</timebase>
																				<ntsc>FALSE</ntsc>
																			</rate>
																			<width>576</width>
																			<height>1024</height>
																			<anamorphic>FALSE</anamorphic>
																			<pixelaspectratio>square</pixelaspectratio>
																			<fielddominance>none</fielddominance>
																		</samplecharacteristics>
																	</video>
																	<audio>
																		<samplecharacteristics>
																			<depth>16</depth>
																			<samplerate>44100</samplerate>
																		</samplecharacteristics>
																		<channelcount>2</channelcount>
																	</audio>
																</media>
															</file>
															<filter>
																<effect>
																	<name>Basic Motion</name>
																	<effectid>basic</effectid>
																	<effectcategory>motion</effectcategory>
																	<effecttype>motion</effecttype>
																	<mediatype>video</mediatype>
																	<pproBypass>false</pproBypass>
																	<parameter authoringApp="PremierePro">
																		<parameterid>scale</parameterid>
																		<name>Scale</name>
																		<valuemin>0</valuemin>
																		<valuemax>1000</valuemax>
																		<value>100</value>
																	</parameter>
																	<parameter authoringApp="PremierePro">
																		<parameterid>rotation</parameterid>
																		<name>Rotation</name>
																		<valuemin>-8640</valuemin>
																		<valuemax>8640</valuemax>
																		<value>0</value>
																	</parameter>
																	<parameter authoringApp="PremierePro">
																		<parameterid>center</parameterid>
																		<name>Center</name>
																		<value>
																			<horiz>0.0243056</horiz>
																			<vert>0</vert>
																		</value>
																	</parameter>
																	<parameter authoringApp="PremierePro">
																		<parameterid>centerOffset</parameterid>
																		<name>Anchor Point</name>
																		<value>
																			<horiz>0</horiz>
																			<vert>0</vert>
																		</value>
																	</parameter>
																	<parameter authoringApp="PremierePro">
																		<parameterid>antiflicker</parameterid>
																		<name>Anti-flicker Filter</name>
																		<valuemin>0.0</valuemin>
																		<valuemax>1.0</valuemax>
																		<value>0</value>
																	</parameter>
																</effect>
															</filter>
															<logginginfo>
																<description></description>
																<scene></scene>
																<shottake></shottake>
																<lognote></lognote>
																<good></good>
																<originalvideofilename></originalvideofilename>
																<originalaudiofilename></originalaudiofilename>
															</logginginfo>
															<colorinfo>
																<lut></lut>
																<lut1></lut1>
																<asc_sop></asc_sop>
																<asc_sat></asc_sat>
																<lut2></lut2>
															</colorinfo>
															<labels>
																<label2>Violet</label2>
															</labels>
														</clipitem>
														<clipitem id="clipitem-647">
															<masterclipid>masterclip-241</masterclipid>
															<name>(Taste Travel Food)_Ice Cream Roll With McFlurry Oreo_8Chj5T1Hna4_YT.mp4</name>
															<enabled>TRUE</enabled>
															<duration>13947</duration>
															<rate>
																<timebase>30</timebase>
																<ntsc>TRUE</ntsc>
															</rate>
															<start>1849</start>
															<end>1923</end>
															<in>2490</in>
															<out>2564</out>
															<pproTicksIn>21104411328000</pproTicksIn>
															<pproTicksOut>21731610700800</pproTicksOut>
															<alphatype>none</alphatype>
															<pixelaspectratio>square</pixelaspectratio>
															<anamorphic>FALSE</anamorphic>
															<file id="file-207">
																<name>(Taste Travel Food)_Ice Cream Roll With McFlurry Oreo_8Chj5T1Hna4_YT.mp4</name>
																<pathurl>file://localhost/Volumes/ATM%201/EYE%20CANDY/8%3a14%3a23/3_Raw%20Files/cold%20blue/(Taste%20Travel%20Food)_Ice%20Cream%20Roll%20With%20McFlurry%20Oreo_8Chj5T1Hna4_YT.mp4</pathurl>
																<rate>
																	<timebase>24</timebase>
																	<ntsc>TRUE</ntsc>
																</rate>
																<duration>11158</duration>
																<timecode>
																	<rate>
																		<timebase>24</timebase>
																		<ntsc>TRUE</ntsc>
																	</rate>
																	<string>00:00:00:00</string>
																	<frame>0</frame>
																	<displayformat>NDF</displayformat>
																</timecode>
																<media>
																	<video>
																		<samplecharacteristics>
																			<rate>
																				<timebase>24</timebase>
																				<ntsc>TRUE</ntsc>
																			</rate>
																			<width>1920</width>
																			<height>1080</height>
																			<anamorphic>FALSE</anamorphic>
																			<pixelaspectratio>square</pixelaspectratio>
																			<fielddominance>none</fielddominance>
																		</samplecharacteristics>
																	</video>
																	<audio>
																		<samplecharacteristics>
																			<depth>16</depth>
																			<samplerate>44100</samplerate>
																		</samplecharacteristics>
																		<channelcount>2</channelcount>
																	</audio>
																</media>
															</file>
															<logginginfo>
																<description>Ice Cream Roll With McFlurry Oreo</description>
																<scene></scene>
																<shottake></shottake>
																<lognote>https://www.youtube.com/watch?v=8Chj5T1Hna4</lognote>
																<good></good>
																<originalvideofilename></originalvideofilename>
																<originalaudiofilename></originalaudiofilename>
															</logginginfo>
															<colorinfo>
																<lut></lut>
																<lut1></lut1>
																<asc_sop></asc_sop>
																<asc_sat></asc_sat>
																<lut2></lut2>
															</colorinfo>
															<labels>
																<label2>Violet</label2>
															</labels>
														</clipitem>
														<clipitem id="clipitem-648">
															<masterclipid>masterclip-241</masterclipid>
															<name>(Taste Travel Food)_Ice Cream Roll With McFlurry Oreo_8Chj5T1Hna4_YT.mp4</name>
															<enabled>TRUE</enabled>
															<duration>13947</duration>
															<rate>
																<timebase>30</timebase>
																<ntsc>TRUE</ntsc>
															</rate>
															<start>1923</start>
															<end>2024</end>
															<in>2930</in>
															<out>3031</out>
															<pproTicksIn>24833704896000</pproTicksIn>
															<pproTicksOut>25689747283200</pproTicksOut>
															<alphatype>none</alphatype>
															<file id="file-207"/>
															<logginginfo>
																<description>Ice Cream Roll With McFlurry Oreo</description>
																<scene></scene>
																<shottake></shottake>
																<lognote>https://www.youtube.com/watch?v=8Chj5T1Hna4</lognote>
																<good></good>
																<originalvideofilename></originalvideofilename>
																<originalaudiofilename></originalaudiofilename>
															</logginginfo>
															<colorinfo>
																<lut></lut>
																<lut1></lut1>
																<asc_sop></asc_sop>
																<asc_sat></asc_sat>
																<lut2></lut2>
															</colorinfo>
															<labels>
																<label2>Violet</label2>
															</labels>
														</clipitem>
														<clipitem id="clipitem-649">
															<masterclipid>masterclip-241</masterclipid>
															<name>(Taste Travel Food)_Ice Cream Roll With McFlurry Oreo_8Chj5T1Hna4_YT.mp4</name>
															<enabled>TRUE</enabled>
															<duration>13947</duration>
															<rate>
																<timebase>30</timebase>
																<ntsc>TRUE</ntsc>
															</rate>
															<start>2024</start>
															<end>2083</end>
															<in>3640</in>
															<out>3699</out>
															<pproTicksIn>30851428608000</pproTicksIn>
															<pproTicksOut>31351492972800</pproTicksOut>
															<alphatype>none</alphatype>
															<file id="file-207"/>
															<logginginfo>
																<description>Ice Cream Roll With McFlurry Oreo</description>
																<scene></scene>
																<shottake></shottake>
																<lognote>https://www.youtube.com/watch?v=8Chj5T1Hna4</lognote>
																<good></good>
																<originalvideofilename></originalvideofilename>
																<originalaudiofilename></originalaudiofilename>
															</logginginfo>
															<colorinfo>
																<lut></lut>
																<lut1></lut1>
																<asc_sop></asc_sop>
																<asc_sat></asc_sat>
																<lut2></lut2>
															</colorinfo>
															<labels>
																<label2>Violet</label2>
															</labels>
														</clipitem>
														<clipitem id="clipitem-650">
															<masterclipid>masterclip-241</masterclipid>
															<name>(Taste Travel Food)_Ice Cream Roll With McFlurry Oreo_8Chj5T1Hna4_YT.mp4</name>
															<enabled>TRUE</enabled>
															<duration>13947</duration>
															<rate>
																<timebase>30</timebase>
																<ntsc>TRUE</ntsc>
															</rate>
															<start>2083</start>
															<end>2134</end>
															<in>3766</in>
															<out>3817</out>
															<pproTicksIn>31919362675200</pproTicksIn>
															<pproTicksOut>32351621702400</pproTicksOut>
															<alphatype>none</alphatype>
															<file id="file-207"/>
															<logginginfo>
																<description>Ice Cream Roll With McFlurry Oreo</description>
																<scene></scene>
																<shottake></shottake>
																<lognote>https://www.youtube.com/watch?v=8Chj5T1Hna4</lognote>
																<good></good>
																<originalvideofilename></originalvideofilename>
																<originalaudiofilename></originalaudiofilename>
															</logginginfo>
															<colorinfo>
																<lut></lut>
																<lut1></lut1>
																<asc_sop></asc_sop>
																<asc_sat></asc_sat>
																<lut2></lut2>
															</colorinfo>
															<labels>
																<label2>Violet</label2>
															</labels>
														</clipitem>
														<clipitem id="clipitem-651">
															<masterclipid>masterclip-241</masterclipid>
															<name>(Taste Travel Food)_Ice Cream Roll With McFlurry Oreo_8Chj5T1Hna4_YT.mp4</name>
															<enabled>TRUE</enabled>
															<duration>13947</duration>
															<rate>
																<timebase>30</timebase>
																<ntsc>TRUE</ntsc>
															</rate>
															<start>2134</start>
															<end>2263</end>
															<in>5907</in>
															<out>6036</out>
															<pproTicksIn>50065766150400</pproTicksIn>
															<pproTicksOut>51159127219200</pproTicksOut>
															<alphatype>none</alphatype>
															<file id="file-207"/>
															<logginginfo>
																<description>Ice Cream Roll With McFlurry Oreo</description>
																<scene></scene>
																<shottake></shottake>
																<lognote>https://www.youtube.com/watch?v=8Chj5T1Hna4</lognote>
																<good></good>
																<originalvideofilename></originalvideofilename>
																<originalaudiofilename></originalaudiofilename>
															</logginginfo>
															<colorinfo>
																<lut></lut>
																<lut1></lut1>
																<asc_sop></asc_sop>
																<asc_sat></asc_sat>
																<lut2></lut2>
															</colorinfo>
															<labels>
																<label2>Violet</label2>
															</labels>
														</clipitem>
														<clipitem id="clipitem-652">
															<masterclipid>masterclip-241</masterclipid>
															<name>(Taste Travel Food)_Ice Cream Roll With McFlurry Oreo_8Chj5T1Hna4_YT.mp4</name>
															<enabled>TRUE</enabled>
															<duration>5071</duration>
															<rate>
																<timebase>30</timebase>
																<ntsc>TRUE</ntsc>
															</rate>
															<start>2263</start>
															<end>2365</end>
															<in>2966</in>
															<out>3067</out>
															<pproTicksIn>69110590348800</pproTicksIn>
															<pproTicksOut>71488014998400</pproTicksOut>
															<alphatype>none</alphatype>
															<file id="file-207"/>
															<filter>
																<effect>
																	<name>Time Remap</name>
																	<effectid>timeremap</effectid>
																	<effectcategory>motion</effectcategory>
																	<effecttype>motion</effecttype>
																	<mediatype>video</mediatype>
																	<parameter authoringApp="PremierePro">
																		<parameterid>variablespeed</parameterid>
																		<name>variablespeed</name>
																		<valuemin>0</valuemin>
																		<valuemax>1</valuemax>
																		<value>0</value>
																	</parameter>
																	<parameter authoringApp="PremierePro">
																		<parameterid>speed</parameterid>
																		<name>speed</name>
																		<valuemin>-100000</valuemin>
																		<valuemax>100000</valuemax>
																		<value>275</value>
																	</parameter>
																	<parameter authoringApp="PremierePro">
																		<parameterid>reverse</parameterid>
																		<name>reverse</name>
																		<value>FALSE</value>
																	</parameter>
																	<parameter authoringApp="PremierePro">
																		<parameterid>frameblending</parameterid>
																		<name>frameblending</name>
																		<value>FALSE</value>
																	</parameter>
																	<parameter authoringApp="PremierePro">
																		<parameterid>graphdict</parameterid>
																		<name>graphdict</name>
																		<valuemin>0</valuemin>
																		<valuemax>13945</valuemax>
																		<value>0</value>
																		<keyframe>
																			<when>0</when>
																			<value>0</value>
																			<speedvirtualkf>TRUE</speedvirtualkf>
																			<speedkfstart>TRUE</speedkfstart>
																		</keyframe>
																		<keyframe>
																			<when>2966</when>
																			<value>8156</value>
																			<speedvirtualkf>TRUE</speedvirtualkf>
																			<speedkfin>TRUE</speedkfin>
																		</keyframe>
																		<keyframe>
																			<when>3067</when>
																			<value>8434</value>
																			<speedvirtualkf>TRUE</speedvirtualkf>
																			<speedkfout>TRUE</speedkfout>
																		</keyframe>
																		<keyframe>
																			<when>5071</when>
																			<value>13945</value>
																			<speedvirtualkf>TRUE</speedvirtualkf>
																			<speedkfend>TRUE</speedkfend>
																		</keyframe>
																		<interpolation>
																			<name>FCPCurve</name>
																		</interpolation>
																	</parameter>
																</effect>
															</filter>
															<logginginfo>
																<description>Ice Cream Roll With McFlurry Oreo</description>
																<scene></scene>
																<shottake></shottake>
																<lognote>https://www.youtube.com/watch?v=8Chj5T1Hna4</lognote>
																<good></good>
																<originalvideofilename></originalvideofilename>
																<originalaudiofilename></originalaudiofilename>
															</logginginfo>
															<colorinfo>
																<lut></lut>
																<lut1></lut1>
																<asc_sop></asc_sop>
																<asc_sat></asc_sat>
																<lut2></lut2>
															</colorinfo>
															<labels>
																<label2>Violet</label2>
															</labels>
														</clipitem>
														<clipitem id="clipitem-653">
															<masterclipid>masterclip-241</masterclipid>
															<name>(Taste Travel Food)_Ice Cream Roll With McFlurry Oreo_8Chj5T1Hna4_YT.mp4</name>
															<enabled>TRUE</enabled>
															<duration>5071</duration>
															<rate>
																<timebase>30</timebase>
																<ntsc>TRUE</ntsc>
															</rate>
															<start>2365</start>
															<end>2433</end>
															<in>3096</in>
															<out>3164</out>
															<pproTicksIn>72161830540800</pproTicksIn>
															<pproTicksOut>73746780307200</pproTicksOut>
															<alphatype>none</alphatype>
															<file id="file-207"/>
															<filter>
																<effect>
																	<name>Time Remap</name>
																	<effectid>timeremap</effectid>
																	<effectcategory>motion</effectcategory>
																	<effecttype>motion</effecttype>
																	<mediatype>video</mediatype>
																	<parameter authoringApp="PremierePro">
																		<parameterid>variablespeed</parameterid>
																		<name>variablespeed</name>
																		<valuemin>0</valuemin>
																		<valuemax>1</valuemax>
																		<value>0</value>
																	</parameter>
																	<parameter authoringApp="PremierePro">
																		<parameterid>speed</parameterid>
																		<name>speed</name>
																		<valuemin>-100000</valuemin>
																		<valuemax>100000</valuemax>
																		<value>275</value>
																	</parameter>
																	<parameter authoringApp="PremierePro">
																		<parameterid>reverse</parameterid>
																		<name>reverse</name>
																		<value>FALSE</value>
																	</parameter>
																	<parameter authoringApp="PremierePro">
																		<parameterid>frameblending</parameterid>
																		<name>frameblending</name>
																		<value>FALSE</value>
																	</parameter>
																	<parameter authoringApp="PremierePro">
																		<parameterid>graphdict</parameterid>
																		<name>graphdict</name>
																		<valuemin>0</valuemin>
																		<valuemax>13945</valuemax>
																		<value>0</value>
																		<keyframe>
																			<when>0</when>
																			<value>0</value>
																			<speedvirtualkf>TRUE</speedvirtualkf>
																			<speedkfstart>TRUE</speedkfstart>
																		</keyframe>
																		<keyframe>
																			<when>3096</when>
																			<value>8514</value>
																			<speedvirtualkf>TRUE</speedvirtualkf>
																			<speedkfin>TRUE</speedkfin>
																		</keyframe>
																		<keyframe>
																			<when>3164</when>
																			<value>8701</value>
																			<speedvirtualkf>TRUE</speedvirtualkf>
																			<speedkfout>TRUE</speedkfout>
																		</keyframe>
																		<keyframe>
																			<when>5071</when>
																			<value>13945</value>
																			<speedvirtualkf>TRUE</speedvirtualkf>
																			<speedkfend>TRUE</speedkfend>
																		</keyframe>
																		<interpolation>
																			<name>FCPCurve</name>
																		</interpolation>
																	</parameter>
																</effect>
															</filter>
															<logginginfo>
																<description>Ice Cream Roll With McFlurry Oreo</description>
																<scene></scene>
																<shottake></shottake>
																<lognote>https://www.youtube.com/watch?v=8Chj5T1Hna4</lognote>
																<good></good>
																<originalvideofilename></originalvideofilename>
																<originalaudiofilename></originalaudiofilename>
															</logginginfo>
															<colorinfo>
																<lut></lut>
																<lut1></lut1>
																<asc_sop></asc_sop>
																<asc_sat></asc_sat>
																<lut2></lut2>
															</colorinfo>
															<labels>
																<label2>Violet</label2>
															</labels>
														</clipitem>
														<clipitem id="clipitem-654">
															<masterclipid>masterclip-241</masterclipid>
															<name>(Taste Travel Food)_Ice Cream Roll With McFlurry Oreo_8Chj5T1Hna4_YT.mp4</name>
															<enabled>TRUE</enabled>
															<duration>5071</duration>
															<rate>
																<timebase>30</timebase>
																<ntsc>TRUE</ntsc>
															</rate>
															<start>2433</start>
															<end>2497</end>
															<in>3258</in>
															<out>3321</out>
															<pproTicksIn>75933502444800</pproTicksIn>
															<pproTicksOut>77425219872000</pproTicksOut>
															<alphatype>none</alphatype>
															<file id="file-207"/>
															<filter>
																<effect>
																	<name>Time Remap</name>
																	<effectid>timeremap</effectid>
																	<effectcategory>motion</effectcategory>
																	<effecttype>motion</effecttype>
																	<mediatype>video</mediatype>
																	<parameter authoringApp="PremierePro">
																		<parameterid>variablespeed</parameterid>
																		<name>variablespeed</name>
																		<valuemin>0</valuemin>
																		<valuemax>1</valuemax>
																		<value>0</value>
																	</parameter>
																	<parameter authoringApp="PremierePro">
																		<parameterid>speed</parameterid>
																		<name>speed</name>
																		<valuemin>-100000</valuemin>
																		<valuemax>100000</valuemax>
																		<value>275</value>
																	</parameter>
																	<parameter authoringApp="PremierePro">
																		<parameterid>reverse</parameterid>
																		<name>reverse</name>
																		<value>FALSE</value>
																	</parameter>
																	<parameter authoringApp="PremierePro">
																		<parameterid>frameblending</parameterid>
																		<name>frameblending</name>
																		<value>FALSE</value>
																	</parameter>
																	<parameter authoringApp="PremierePro">
																		<parameterid>graphdict</parameterid>
																		<name>graphdict</name>
																		<valuemin>0</valuemin>
																		<valuemax>13945</valuemax>
																		<value>0</value>
																		<keyframe>
																			<when>0</when>
																			<value>0</value>
																			<speedvirtualkf>TRUE</speedvirtualkf>
																			<speedkfstart>TRUE</speedkfstart>
																		</keyframe>
																		<keyframe>
																			<when>3258</when>
																			<value>8959</value>
																			<speedvirtualkf>TRUE</speedvirtualkf>
																			<speedkfin>TRUE</speedkfin>
																		</keyframe>
																		<keyframe>
																			<when>3321</when>
																			<value>9132</value>
																			<speedvirtualkf>TRUE</speedvirtualkf>
																			<speedkfout>TRUE</speedkfout>
																		</keyframe>
																		<keyframe>
																			<when>5071</when>
																			<value>13945</value>
																			<speedvirtualkf>TRUE</speedvirtualkf>
																			<speedkfend>TRUE</speedkfend>
																		</keyframe>
																		<interpolation>
																			<name>FCPCurve</name>
																		</interpolation>
																	</parameter>
																</effect>
															</filter>
															<logginginfo>
																<description>Ice Cream Roll With McFlurry Oreo</description>
																<scene></scene>
																<shottake></shottake>
																<lognote>https://www.youtube.com/watch?v=8Chj5T1Hna4</lognote>
																<good></good>
																<originalvideofilename></originalvideofilename>
																<originalaudiofilename></originalaudiofilename>
															</logginginfo>
															<colorinfo>
																<lut></lut>
																<lut1></lut1>
																<asc_sop></asc_sop>
																<asc_sat></asc_sat>
																<lut2></lut2>
															</colorinfo>
															<labels>
																<label2>Violet</label2>
															</labels>
														</clipitem>
														<clipitem id="clipitem-655">
															<masterclipid>masterclip-241</masterclipid>
															<name>(Taste Travel Food)_Ice Cream Roll With McFlurry Oreo_8Chj5T1Hna4_YT.mp4</name>
															<enabled>TRUE</enabled>
															<duration>5071</duration>
															<rate>
																<timebase>30</timebase>
																<ntsc>TRUE</ntsc>
															</rate>
															<start>2497</start>
															<end>2568</end>
															<in>3459</in>
															<out>3529</out>
															<pproTicksIn>80620546406400</pproTicksIn>
															<pproTicksOut>82275420427200</pproTicksOut>
															<alphatype>none</alphatype>
															<file id="file-207"/>
															<filter>
																<effect>
																	<name>Time Remap</name>
																	<effectid>timeremap</effectid>
																	<effectcategory>motion</effectcategory>
																	<effecttype>motion</effecttype>
																	<mediatype>video</mediatype>
																	<parameter authoringApp="PremierePro">
																		<parameterid>variablespeed</parameterid>
																		<name>variablespeed</name>
																		<valuemin>0</valuemin>
																		<valuemax>1</valuemax>
																		<value>0</value>
																	</parameter>
																	<parameter authoringApp="PremierePro">
																		<parameterid>speed</parameterid>
																		<name>speed</name>
																		<valuemin>-100000</valuemin>
																		<valuemax>100000</valuemax>
																		<value>275</value>
																	</parameter>
																	<parameter authoringApp="PremierePro">
																		<parameterid>reverse</parameterid>
																		<name>reverse</name>
																		<value>FALSE</value>
																	</parameter>
																	<parameter authoringApp="PremierePro">
																		<parameterid>frameblending</parameterid>
																		<name>frameblending</name>
																		<value>FALSE</value>
																	</parameter>
																	<parameter authoringApp="PremierePro">
																		<parameterid>graphdict</parameterid>
																		<name>graphdict</name>
																		<valuemin>0</valuemin>
																		<valuemax>13945</valuemax>
																		<value>0</value>
																		<keyframe>
																			<when>0</when>
																			<value>0</value>
																			<speedvirtualkf>TRUE</speedvirtualkf>
																			<speedkfstart>TRUE</speedkfstart>
																		</keyframe>
																		<keyframe>
																			<when>3459</when>
																			<value>9512</value>
																			<speedvirtualkf>TRUE</speedvirtualkf>
																			<speedkfin>TRUE</speedkfin>
																		</keyframe>
																		<keyframe>
																			<when>3529</when>
																			<value>9704</value>
																			<speedvirtualkf>TRUE</speedvirtualkf>
																			<speedkfout>TRUE</speedkfout>
																		</keyframe>
																		<keyframe>
																			<when>5071</when>
																			<value>13945</value>
																			<speedvirtualkf>TRUE</speedvirtualkf>
																			<speedkfend>TRUE</speedkfend>
																		</keyframe>
																		<interpolation>
																			<name>FCPCurve</name>
																		</interpolation>
																	</parameter>
																</effect>
															</filter>
															<logginginfo>
																<description>Ice Cream Roll With McFlurry Oreo</description>
																<scene></scene>
																<shottake></shottake>
																<lognote>https://www.youtube.com/watch?v=8Chj5T1Hna4</lognote>
																<good></good>
																<originalvideofilename></originalvideofilename>
																<originalaudiofilename></originalaudiofilename>
															</logginginfo>
															<colorinfo>
																<lut></lut>
																<lut1></lut1>
																<asc_sop></asc_sop>
																<asc_sat></asc_sat>
																<lut2></lut2>
															</colorinfo>
															<labels>
																<label2>Violet</label2>
															</labels>
														</clipitem>
														<enabled>TRUE</enabled>
														<locked>FALSE</locked>
													</track>
													<track TL.SQTrackShy="0" TL.SQTrackExpandedHeight="25" TL.SQTrackExpanded="0" MZ.TrackTargeted="0">
														<clipitem id="clipitem-656">
															<masterclipid>masterclip-36</masterclipid>
															<name>Eyecandy Vertical Video Frame 2</name>
															<enabled>TRUE</enabled>
															<duration>5700</duration>
															<rate>
																<timebase>30</timebase>
																<ntsc>TRUE</ntsc>
															</rate>
															<start>0</start>
															<end>572</end>
															<in>119</in>
															<out>691</out>
															<pproTicksIn>1008604396800</pproTicksIn>
															<pproTicksOut>5856686035200</pproTicksOut>
															<alphatype>straight</alphatype>
															<file id="file-29"/>
															<logginginfo>
																<description></description>
																<scene></scene>
																<shottake></shottake>
																<lognote></lognote>
																<good></good>
																<originalvideofilename></originalvideofilename>
																<originalaudiofilename></originalaudiofilename>
															</logginginfo>
															<colorinfo>
																<lut></lut>
																<lut1></lut1>
																<asc_sop></asc_sop>
																<asc_sat></asc_sat>
																<lut2></lut2>
															</colorinfo>
															<labels>
																<label2>Teal</label2>
															</labels>
														</clipitem>
														<clipitem id="clipitem-657">
															<masterclipid>masterclip-36</masterclipid>
															<name>Eyecandy Vertical Video Frame 2</name>
															<enabled>TRUE</enabled>
															<duration>5700</duration>
															<rate>
																<timebase>30</timebase>
																<ntsc>TRUE</ntsc>
															</rate>
															<start>572</start>
															<end>1086</end>
															<in>691</in>
															<out>1205</out>
															<pproTicksIn>5856686035200</pproTicksIn>
															<pproTicksOut>10213178976000</pproTicksOut>
															<alphatype>straight</alphatype>
															<file id="file-29"/>
															<logginginfo>
																<description></description>
																<scene></scene>
																<shottake></shottake>
																<lognote></lognote>
																<good></good>
																<originalvideofilename></originalvideofilename>
																<originalaudiofilename></originalaudiofilename>
															</logginginfo>
															<colorinfo>
																<lut></lut>
																<lut1></lut1>
																<asc_sop></asc_sop>
																<asc_sat></asc_sat>
																<lut2></lut2>
															</colorinfo>
															<labels>
																<label2>Teal</label2>
															</labels>
														</clipitem>
														<clipitem id="clipitem-658">
															<masterclipid>masterclip-36</masterclipid>
															<name>Eyecandy Vertical Video Frame 2</name>
															<enabled>TRUE</enabled>
															<duration>5700</duration>
															<rate>
																<timebase>30</timebase>
																<ntsc>TRUE</ntsc>
															</rate>
															<start>1086</start>
															<end>1849</end>
															<in>1205</in>
															<out>1968</out>
															<pproTicksIn>10213178976000</pproTicksIn>
															<pproTicksOut>16680113049600</pproTicksOut>
															<alphatype>straight</alphatype>
															<file id="file-29"/>
															<logginginfo>
																<description></description>
																<scene></scene>
																<shottake></shottake>
																<lognote></lognote>
																<good></good>
																<originalvideofilename></originalvideofilename>
																<originalaudiofilename></originalaudiofilename>
															</logginginfo>
															<colorinfo>
																<lut></lut>
																<lut1></lut1>
																<asc_sop></asc_sop>
																<asc_sat></asc_sat>
																<lut2></lut2>
															</colorinfo>
															<labels>
																<label2>Teal</label2>
															</labels>
														</clipitem>
														<enabled>TRUE</enabled>
														<locked>FALSE</locked>
													</track>
													<track TL.SQTrackShy="0" TL.SQTrackExpandedHeight="25" TL.SQTrackExpanded="0" MZ.TrackTargeted="0">
														<enabled>TRUE</enabled>
														<locked>FALSE</locked>
													</track>
													<track TL.SQTrackShy="0" TL.SQTrackExpandedHeight="25" TL.SQTrackExpanded="0" MZ.TrackTargeted="0">
														<enabled>TRUE</enabled>
														<locked>FALSE</locked>
													</track>
													<track TL.SQTrackShy="0" TL.SQTrackExpandedHeight="25" TL.SQTrackExpanded="0" MZ.TrackTargeted="0">
														<enabled>TRUE</enabled>
														<locked>FALSE</locked>
													</track>
													<track TL.SQTrackShy="0" TL.SQTrackExpandedHeight="25" TL.SQTrackExpanded="0" MZ.TrackTargeted="0">
														<enabled>TRUE</enabled>
														<locked>FALSE</locked>
													</track>
													<track TL.SQTrackShy="0" TL.SQTrackExpandedHeight="25" TL.SQTrackExpanded="0" MZ.TrackTargeted="0">
														<enabled>TRUE</enabled>
														<locked>FALSE</locked>
													</track>
													<track TL.SQTrackShy="0" TL.SQTrackExpandedHeight="25" TL.SQTrackExpanded="0" MZ.TrackTargeted="0">
														<enabled>TRUE</enabled>
														<locked>FALSE</locked>
													</track>
													<track TL.SQTrackShy="0" TL.SQTrackExpandedHeight="25" TL.SQTrackExpanded="0" MZ.TrackTargeted="0">
														<enabled>TRUE</enabled>
														<locked>FALSE</locked>
													</track>
													<track TL.SQTrackShy="0" TL.SQTrackExpandedHeight="25" TL.SQTrackExpanded="0" MZ.TrackTargeted="0">
														<enabled>TRUE</enabled>
														<locked>FALSE</locked>
													</track>
												</video>
												<audio>
													<numOutputChannels>2</numOutputChannels>
													<format>
														<samplecharacteristics>
															<depth>16</depth>
															<samplerate>48000</samplerate>
														</samplecharacteristics>
													</format>
													<outputs>
														<group>
															<index>1</index>
															<numchannels>1</numchannels>
															<downmix>0</downmix>
															<channel>
																<index>1</index>
															</channel>
														</group>
														<group>
															<index>2</index>
															<numchannels>1</numchannels>
															<downmix>0</downmix>
															<channel>
																<index>2</index>
															</channel>
														</group>
													</outputs>
													<track TL.SQTrackAudioKeyframeStyle="0" TL.SQTrackShy="0" TL.SQTrackExpandedHeight="25" TL.SQTrackExpanded="0" MZ.TrackTargeted="1" PannerCurrentValue="0.5" PannerIsInverted="true" PannerStartKeyframe="-91445760000000000,0.5,0,0,0,0,0,0" PannerName="Balance" currentExplodedTrackIndex="0" totalExplodedTrackCount="2" premiereTrackType="Stereo">
														<clipitem id="clipitem-659" premiereChannelType="stereo">
															<masterclipid>masterclip-242</masterclipid>
															<name>ES_Bewitched (Instrumental Version) - Zorro.mp3</name>
															<enabled>TRUE</enabled>
															<duration>5137</duration>
															<rate>
																<timebase>30</timebase>
																<ntsc>TRUE</ntsc>
															</rate>
															<start>0</start>
															<end>2568</end>
															<in>0</in>
															<out>2568</out>
															<pproTicksIn>0</pproTicksIn>
															<pproTicksOut>21765513369600</pproTicksOut>
															<file id="file-208">
																<name>ES_Bewitched (Instrumental Version) - Zorro.mp3</name>
																<pathurl>file://localhost/Volumes/ATM%201/EYE%20CANDY/8%3a14%3a23/5_Assets/Music/ES_Bewitched%20(Instrumental%20Version)%20-%20Zorro.mp3</pathurl>
																<rate>
																	<timebase>30</timebase>
																	<ntsc>TRUE</ntsc>
																</rate>
																<duration>5137</duration>
																<timecode>
																	<rate>
																		<timebase>30</timebase>
																		<ntsc>TRUE</ntsc>
																	</rate>
																	<string>00;00;00;00</string>
																	<frame>0</frame>
																	<displayformat>DF</displayformat>
																</timecode>
																<media>
																	<audio>
																		<samplecharacteristics>
																			<depth>16</depth>
																			<samplerate>48000</samplerate>
																		</samplecharacteristics>
																		<channelcount>2</channelcount>
																	</audio>
																</media>
															</file>
															<sourcetrack>
																<mediatype>audio</mediatype>
																<trackindex>1</trackindex>
															</sourcetrack>
															<link>
																<linkclipref>clipitem-659</linkclipref>
																<mediatype>audio</mediatype>
																<trackindex>1</trackindex>
																<clipindex>1</clipindex>
																<groupindex>1</groupindex>
															</link>
															<link>
																<linkclipref>clipitem-660</linkclipref>
																<mediatype>audio</mediatype>
																<trackindex>2</trackindex>
																<clipindex>1</clipindex>
																<groupindex>1</groupindex>
															</link>
															<logginginfo>
																<description></description>
																<scene></scene>
																<shottake></shottake>
																<lognote></lognote>
																<good></good>
																<originalvideofilename></originalvideofilename>
																<originalaudiofilename></originalaudiofilename>
															</logginginfo>
															<colorinfo>
																<lut></lut>
																<lut1></lut1>
																<asc_sop></asc_sop>
																<asc_sat></asc_sat>
																<lut2></lut2>
															</colorinfo>
															<labels>
																<label2>Caribbean</label2>
															</labels>
														</clipitem>
														<enabled>TRUE</enabled>
														<locked>FALSE</locked>
														<filter>
															<effect>
																<name>Audio Levels</name>
																<effectid>audiolevels</effectid>
																<effectcategory>audiolevels</effectcategory>
																<effecttype>audiolevels</effecttype>
																<mediatype>audio</mediatype>
																<parameter authoringApp="PremierePro">
																	<parameterid>level</parameterid>
																	<name>Level</name>
																	<valuemin>0</valuemin>
																	<valuemax>3.98109</valuemax>
																	<value>0.706272</value>
																</parameter>
															</effect>
														</filter>
														<outputchannelindex>1</outputchannelindex>
													</track>
													<track TL.SQTrackAudioKeyframeStyle="0" TL.SQTrackShy="0" TL.SQTrackExpandedHeight="25" TL.SQTrackExpanded="0" MZ.TrackTargeted="1" PannerCurrentValue="0.5" PannerIsInverted="true" PannerStartKeyframe="-91445760000000000,0.5,0,0,0,0,0,0" PannerName="Balance" currentExplodedTrackIndex="1" totalExplodedTrackCount="2" premiereTrackType="Stereo">
														<clipitem id="clipitem-660" premiereChannelType="stereo">
															<masterclipid>masterclip-242</masterclipid>
															<name>ES_Bewitched (Instrumental Version) - Zorro.mp3</name>
															<enabled>TRUE</enabled>
															<duration>5137</duration>
															<rate>
																<timebase>30</timebase>
																<ntsc>TRUE</ntsc>
															</rate>
															<start>0</start>
															<end>2568</end>
															<in>0</in>
															<out>2568</out>
															<pproTicksIn>0</pproTicksIn>
															<pproTicksOut>21765513369600</pproTicksOut>
															<file id="file-208"/>
															<sourcetrack>
																<mediatype>audio</mediatype>
																<trackindex>2</trackindex>
															</sourcetrack>
															<link>
																<linkclipref>clipitem-659</linkclipref>
																<mediatype>audio</mediatype>
																<trackindex>1</trackindex>
																<clipindex>1</clipindex>
																<groupindex>1</groupindex>
															</link>
															<link>
																<linkclipref>clipitem-660</linkclipref>
																<mediatype>audio</mediatype>
																<trackindex>2</trackindex>
																<clipindex>1</clipindex>
																<groupindex>1</groupindex>
															</link>
															<logginginfo>
																<description></description>
																<scene></scene>
																<shottake></shottake>
																<lognote></lognote>
																<good></good>
																<originalvideofilename></originalvideofilename>
																<originalaudiofilename></originalaudiofilename>
															</logginginfo>
															<colorinfo>
																<lut></lut>
																<lut1></lut1>
																<asc_sop></asc_sop>
																<asc_sat></asc_sat>
																<lut2></lut2>
															</colorinfo>
															<labels>
																<label2>Caribbean</label2>
															</labels>
														</clipitem>
														<enabled>TRUE</enabled>
														<locked>FALSE</locked>
														<filter>
															<effect>
																<name>Audio Levels</name>
																<effectid>audiolevels</effectid>
																<effectcategory>audiolevels</effectcategory>
																<effecttype>audiolevels</effecttype>
																<mediatype>audio</mediatype>
																<parameter authoringApp="PremierePro">
																	<parameterid>level</parameterid>
																	<name>Level</name>
																	<valuemin>0</valuemin>
																	<valuemax>3.98109</valuemax>
																	<value>0.706272</value>
																</parameter>
															</effect>
														</filter>
														<outputchannelindex>2</outputchannelindex>
													</track>
													<track TL.SQTrackAudioKeyframeStyle="0" TL.SQTrackShy="0" TL.SQTrackExpandedHeight="25" TL.SQTrackExpanded="0" MZ.TrackTargeted="0" PannerCurrentValue="0.5" PannerIsInverted="true" PannerStartKeyframe="-91445760000000000,0.5,0,0,0,0,0,0" PannerName="Balance" currentExplodedTrackIndex="0" totalExplodedTrackCount="2" premiereTrackType="Stereo">
														<enabled>TRUE</enabled>
														<locked>FALSE</locked>
														<outputchannelindex>1</outputchannelindex>
													</track>
													<track TL.SQTrackAudioKeyframeStyle="0" TL.SQTrackShy="0" TL.SQTrackExpandedHeight="25" TL.SQTrackExpanded="0" MZ.TrackTargeted="0" PannerCurrentValue="0.5" PannerIsInverted="true" PannerStartKeyframe="-91445760000000000,0.5,0,0,0,0,0,0" PannerName="Balance" currentExplodedTrackIndex="1" totalExplodedTrackCount="2" premiereTrackType="Stereo">
														<enabled>TRUE</enabled>
														<locked>FALSE</locked>
														<outputchannelindex>2</outputchannelindex>
													</track>
													<track TL.SQTrackAudioKeyframeStyle="0" TL.SQTrackShy="0" TL.SQTrackExpandedHeight="25" TL.SQTrackExpanded="0" MZ.TrackTargeted="0" PannerCurrentValue="0.5" PannerIsInverted="true" PannerStartKeyframe="-91445760000000000,0.5,0,0,0,0,0,0" PannerName="Balance" currentExplodedTrackIndex="0" totalExplodedTrackCount="2" premiereTrackType="Stereo">
														<enabled>TRUE</enabled>
														<locked>FALSE</locked>
														<outputchannelindex>1</outputchannelindex>
													</track>
													<track TL.SQTrackAudioKeyframeStyle="0" TL.SQTrackShy="0" TL.SQTrackExpandedHeight="25" TL.SQTrackExpanded="0" MZ.TrackTargeted="0" PannerCurrentValue="0.5" PannerIsInverted="true" PannerStartKeyframe="-91445760000000000,0.5,0,0,0,0,0,0" PannerName="Balance" currentExplodedTrackIndex="1" totalExplodedTrackCount="2" premiereTrackType="Stereo">
														<enabled>TRUE</enabled>
														<locked>FALSE</locked>
														<outputchannelindex>2</outputchannelindex>
													</track>
													<track TL.SQTrackAudioKeyframeStyle="0" TL.SQTrackShy="0" TL.SQTrackExpandedHeight="25" TL.SQTrackExpanded="0" MZ.TrackTargeted="0" PannerCurrentValue="0.5" PannerIsInverted="true" PannerStartKeyframe="-91445760000000000,0.5,0,0,0,0,0,0" PannerName="Balance" currentExplodedTrackIndex="0" totalExplodedTrackCount="2" premiereTrackType="Stereo">
														<enabled>TRUE</enabled>
														<locked>FALSE</locked>
														<outputchannelindex>1</outputchannelindex>
													</track>
													<track TL.SQTrackAudioKeyframeStyle="0" TL.SQTrackShy="0" TL.SQTrackExpandedHeight="25" TL.SQTrackExpanded="0" MZ.TrackTargeted="0" PannerCurrentValue="0.5" PannerIsInverted="true" PannerStartKeyframe="-91445760000000000,0.5,0,0,0,0,0,0" PannerName="Balance" currentExplodedTrackIndex="1" totalExplodedTrackCount="2" premiereTrackType="Stereo">
														<enabled>TRUE</enabled>
														<locked>FALSE</locked>
														<outputchannelindex>2</outputchannelindex>
													</track>
													<track TL.SQTrackAudioKeyframeStyle="0" TL.SQTrackShy="0" TL.SQTrackExpandedHeight="25" TL.SQTrackExpanded="0" MZ.TrackTargeted="0" PannerCurrentValue="0.5" PannerIsInverted="true" PannerStartKeyframe="-91445760000000000,0.5,0,0,0,0,0,0" PannerName="Balance" currentExplodedTrackIndex="0" totalExplodedTrackCount="2" premiereTrackType="Stereo">
														<enabled>TRUE</enabled>
														<locked>FALSE</locked>
														<outputchannelindex>1</outputchannelindex>
													</track>
													<track TL.SQTrackAudioKeyframeStyle="0" TL.SQTrackShy="0" TL.SQTrackExpandedHeight="25" TL.SQTrackExpanded="0" MZ.TrackTargeted="0" PannerCurrentValue="0.5" PannerIsInverted="true" PannerStartKeyframe="-91445760000000000,0.5,0,0,0,0,0,0" PannerName="Balance" currentExplodedTrackIndex="1" totalExplodedTrackCount="2" premiereTrackType="Stereo">
														<enabled>TRUE</enabled>
														<locked>FALSE</locked>
														<outputchannelindex>2</outputchannelindex>
													</track>
													<track TL.SQTrackAudioKeyframeStyle="0" TL.SQTrackShy="0" TL.SQTrackExpandedHeight="25" TL.SQTrackExpanded="0" MZ.TrackTargeted="0" PannerCurrentValue="0.5" PannerIsInverted="true" PannerStartKeyframe="-91445760000000000,0.5,0,0,0,0,0,0" PannerName="Balance" currentExplodedTrackIndex="0" totalExplodedTrackCount="2" premiereTrackType="Stereo">
														<enabled>TRUE</enabled>
														<locked>FALSE</locked>
														<outputchannelindex>1</outputchannelindex>
													</track>
													<track TL.SQTrackAudioKeyframeStyle="0" TL.SQTrackShy="0" TL.SQTrackExpandedHeight="25" TL.SQTrackExpanded="0" MZ.TrackTargeted="0" PannerCurrentValue="0.5" PannerIsInverted="true" PannerStartKeyframe="-91445760000000000,0.5,0,0,0,0,0,0" PannerName="Balance" currentExplodedTrackIndex="1" totalExplodedTrackCount="2" premiereTrackType="Stereo">
														<enabled>TRUE</enabled>
														<locked>FALSE</locked>
														<outputchannelindex>2</outputchannelindex>
													</track>
													<track TL.SQTrackAudioKeyframeStyle="0" TL.SQTrackShy="0" TL.SQTrackExpandedHeight="25" TL.SQTrackExpanded="0" MZ.TrackTargeted="0" PannerCurrentValue="0.5" PannerIsInverted="true" PannerStartKeyframe="-91445760000000000,0.5,0,0,0,0,0,0" PannerName="Balance" currentExplodedTrackIndex="0" totalExplodedTrackCount="2" premiereTrackType="Stereo">
														<enabled>TRUE</enabled>
														<locked>FALSE</locked>
														<outputchannelindex>1</outputchannelindex>
													</track>
													<track TL.SQTrackAudioKeyframeStyle="0" TL.SQTrackShy="0" TL.SQTrackExpandedHeight="25" TL.SQTrackExpanded="0" MZ.TrackTargeted="0" PannerCurrentValue="0.5" PannerIsInverted="true" PannerStartKeyframe="-91445760000000000,0.5,0,0,0,0,0,0" PannerName="Balance" currentExplodedTrackIndex="1" totalExplodedTrackCount="2" premiereTrackType="Stereo">
														<enabled>TRUE</enabled>
														<locked>FALSE</locked>
														<outputchannelindex>2</outputchannelindex>
													</track>
													<track TL.SQTrackAudioKeyframeStyle="0" TL.SQTrackShy="0" TL.SQTrackExpandedHeight="25" TL.SQTrackExpanded="0" MZ.TrackTargeted="0" PannerCurrentValue="0.5" PannerIsInverted="true" PannerStartKeyframe="-91445760000000000,0.5,0,0,0,0,0,0" PannerName="Balance" currentExplodedTrackIndex="0" totalExplodedTrackCount="2" premiereTrackType="Stereo">
														<enabled>TRUE</enabled>
														<locked>FALSE</locked>
														<outputchannelindex>1</outputchannelindex>
													</track>
													<track TL.SQTrackAudioKeyframeStyle="0" TL.SQTrackShy="0" TL.SQTrackExpandedHeight="25" TL.SQTrackExpanded="0" MZ.TrackTargeted="0" PannerCurrentValue="0.5" PannerIsInverted="true" PannerStartKeyframe="-91445760000000000,0.5,0,0,0,0,0,0" PannerName="Balance" currentExplodedTrackIndex="1" totalExplodedTrackCount="2" premiereTrackType="Stereo">
														<enabled>TRUE</enabled>
														<locked>FALSE</locked>
														<outputchannelindex>2</outputchannelindex>
													</track>
													<track TL.SQTrackAudioKeyframeStyle="0" TL.SQTrackShy="0" TL.SQTrackExpandedHeight="25" TL.SQTrackExpanded="0" MZ.TrackTargeted="0" PannerCurrentValue="0.5" PannerIsInverted="true" PannerStartKeyframe="-91445760000000000,0.5,0,0,0,0,0,0" PannerName="Balance" currentExplodedTrackIndex="0" totalExplodedTrackCount="2" premiereTrackType="Stereo">
														<enabled>TRUE</enabled>
														<locked>FALSE</locked>
														<outputchannelindex>1</outputchannelindex>
													</track>
													<track TL.SQTrackAudioKeyframeStyle="0" TL.SQTrackShy="0" TL.SQTrackExpandedHeight="25" TL.SQTrackExpanded="0" MZ.TrackTargeted="0" PannerCurrentValue="0.5" PannerIsInverted="true" PannerStartKeyframe="-91445760000000000,0.5,0,0,0,0,0,0" PannerName="Balance" currentExplodedTrackIndex="1" totalExplodedTrackCount="2" premiereTrackType="Stereo">
														<enabled>TRUE</enabled>
														<locked>FALSE</locked>
														<outputchannelindex>2</outputchannelindex>
													</track>
													<track TL.SQTrackAudioKeyframeStyle="0" TL.SQTrackShy="0" TL.SQTrackExpandedHeight="25" TL.SQTrackExpanded="0" MZ.TrackTargeted="0" PannerCurrentValue="0.5" PannerIsInverted="true" PannerStartKeyframe="-91445760000000000,0.5,0,0,0,0,0,0" PannerName="Balance" currentExplodedTrackIndex="0" totalExplodedTrackCount="2" premiereTrackType="Stereo">
														<enabled>TRUE</enabled>
														<locked>FALSE</locked>
														<outputchannelindex>1</outputchannelindex>
													</track>
													<track TL.SQTrackAudioKeyframeStyle="0" TL.SQTrackShy="0" TL.SQTrackExpandedHeight="25" TL.SQTrackExpanded="0" MZ.TrackTargeted="0" PannerCurrentValue="0.5" PannerIsInverted="true" PannerStartKeyframe="-91445760000000000,0.5,0,0,0,0,0,0" PannerName="Balance" currentExplodedTrackIndex="1" totalExplodedTrackCount="2" premiereTrackType="Stereo">
														<enabled>TRUE</enabled>
														<locked>FALSE</locked>
														<outputchannelindex>2</outputchannelindex>
													</track>
												</audio>
											</media>
											<timecode>
												<rate>
													<timebase>30</timebase>
													<ntsc>TRUE</ntsc>
												</rate>
												<string>00;00;00;00</string>
												<frame>0</frame>
												<displayformat>DF</displayformat>
											</timecode>
											<logginginfo>
												<description></description>
												<scene></scene>
												<shottake></shottake>
												<lognote></lognote>
												<good></good>
												<originalvideofilename></originalvideofilename>
												<originalaudiofilename></originalaudiofilename>
											</logginginfo>
										</sequence>
										<link>
											<linkclipref>clipitem-642</linkclipref>
											<mediatype>video</mediatype>
											<trackindex>1</trackindex>
											<clipindex>2</clipindex>
										</link>
										<link>
											<linkclipref>clipitem-668</linkclipref>
											<mediatype>audio</mediatype>
											<trackindex>1</trackindex>
											<clipindex>3</clipindex>
											<groupindex>1</groupindex>
										</link>
										<link>
											<linkclipref>clipitem-671</linkclipref>
											<mediatype>audio</mediatype>
											<trackindex>2</trackindex>
											<clipindex>3</clipindex>
											<groupindex>1</groupindex>
										</link>
										<labels>
											<label2>Forest</label2>
										</labels>
									</clipitem>
									<clipitem id="clipitem-661">
										<masterclipid>masterclip-111</masterclipid>
										<name>Bumper 3</name>
										<enabled>TRUE</enabled>
										<duration>299</duration>
										<rate>
											<timebase>30</timebase>
											<ntsc>TRUE</ntsc>
										</rate>
										<start>5402</start>
										<end>5701</end>
										<in>0</in>
										<out>299</out>
										<pproTicksIn>0</pproTicksIn>
										<pproTicksOut>2534224492800</pproTicksOut>
										<sequence id="sequence-21"/>
										<link>
											<linkclipref>clipitem-661</linkclipref>
											<mediatype>video</mediatype>
											<trackindex>1</trackindex>
											<clipindex>3</clipindex>
										</link>
										<link>
											<linkclipref>clipitem-669</linkclipref>
											<mediatype>audio</mediatype>
											<trackindex>1</trackindex>
											<clipindex>5</clipindex>
											<groupindex>1</groupindex>
										</link>
										<link>
											<linkclipref>clipitem-672</linkclipref>
											<mediatype>audio</mediatype>
											<trackindex>2</trackindex>
											<clipindex>5</clipindex>
											<groupindex>1</groupindex>
										</link>
										<labels>
											<label2>Forest</label2>
										</labels>
									</clipitem>
									<enabled>TRUE</enabled>
									<locked>FALSE</locked>
								</track>
								<track TL.SQTrackShy="0" TL.SQTrackExpandedHeight="25" TL.SQTrackExpanded="0" MZ.TrackTargeted="0">
									<clipitem id="clipitem-662">
										<masterclipid>masterclip-16</masterclipid>
										<name>ATM BUG_1080_Top Right.png</name>
										<enabled>TRUE</enabled>
										<duration>1294705</duration>
										<rate>
											<timebase>30</timebase>
											<ntsc>TRUE</ntsc>
										</rate>
										<start>82</start>
										<end>5402</end>
										<in>107892</in>
										<out>113212</out>
										<pproTicksIn>914456685542400</pproTicksIn>
										<pproTicksOut>959547235046400</pproTicksOut>
										<alphatype>straight</alphatype>
										<file id="file-14"/>
										<logginginfo>
											<description></description>
											<scene></scene>
											<shottake></shottake>
											<lognote></lognote>
											<good></good>
											<originalvideofilename></originalvideofilename>
											<originalaudiofilename></originalaudiofilename>
										</logginginfo>
										<colorinfo>
											<lut></lut>
											<lut1></lut1>
											<asc_sop></asc_sop>
											<asc_sat></asc_sat>
											<lut2></lut2>
										</colorinfo>
										<labels>
										</labels>
									</clipitem>
									<enabled>TRUE</enabled>
									<locked>FALSE</locked>
								</track>
								<track TL.SQTrackShy="0" TL.SQTrackExpandedHeight="25" TL.SQTrackExpanded="0" MZ.TrackTargeted="0">
									<clipitem id="clipitem-663">
										<masterclipid>masterclip-243</masterclipid>
										<name>Tripple the Toast</name>
										<enabled>TRUE</enabled>
										<duration>6293</duration>
										<rate>
											<timebase>30</timebase>
											<ntsc>TRUE</ntsc>
										</rate>
										<start>115</start>
										<end>2834</end>
										<in>30</in>
										<out>2749</out>
										<pproTicksIn>254270016000</pproTicksIn>
										<pproTicksOut>23299609132800</pproTicksOut>
										<alphatype>straight</alphatype>
										<pixelaspectratio>square</pixelaspectratio>
										<anamorphic>FALSE</anamorphic>
										<file id="file-209">
											<name>EYECANDY_L3RD_JL_V03/EYECANDY_L3rd_JL_V04.aep</name>
											<pathurl>file://localhost/Volumes/ATM%201/EYE%20CANDY/Project%20Template/5_Assets/Eye%20Candy%20Mograph/EYECANDY_L3rd_JL_V04%20folder/EYECANDY_L3rd_JL_V04.aep</pathurl>
											<rate>
												<timebase>30</timebase>
												<ntsc>FALSE</ntsc>
											</rate>
											<duration>6300</duration>
											<timecode>
												<rate>
													<timebase>30</timebase>
													<ntsc>FALSE</ntsc>
												</rate>
												<string>00:00:00:00</string>
												<frame>0</frame>
												<displayformat>NDF</displayformat>
											</timecode>
											<media>
												<video>
													<samplecharacteristics>
														<rate>
															<timebase>30</timebase>
															<ntsc>FALSE</ntsc>
														</rate>
														<width>1920</width>
														<height>1080</height>
														<anamorphic>FALSE</anamorphic>
														<pixelaspectratio>square</pixelaspectratio>
														<fielddominance>lower</fielddominance>
													</samplecharacteristics>
												</video>
											</media>
										</file>
										<logginginfo>
											<description></description>
											<scene></scene>
											<shottake></shottake>
											<lognote></lognote>
											<good></good>
											<originalvideofilename></originalvideofilename>
											<originalaudiofilename></originalaudiofilename>
										</logginginfo>
										<colorinfo>
											<lut></lut>
											<lut1></lut1>
											<asc_sop></asc_sop>
											<asc_sat></asc_sat>
											<lut2></lut2>
										</colorinfo>
									</clipitem>
									<clipitem id="clipitem-664">
										<masterclipid>masterclip-244</masterclipid>
										<name>Cool Blue Treats</name>
										<enabled>TRUE</enabled>
										<duration>6293</duration>
										<rate>
											<timebase>30</timebase>
											<ntsc>TRUE</ntsc>
										</rate>
										<start>2899</start>
										<end>5402</end>
										<in>30</in>
										<out>2533</out>
										<pproTicksIn>254270016000</pproTicksIn>
										<pproTicksOut>21468865017600</pproTicksOut>
										<alphatype>straight</alphatype>
										<pixelaspectratio>square</pixelaspectratio>
										<anamorphic>FALSE</anamorphic>
										<file id="file-210">
											<name>EYECANDY_L3RD_JL_V03/EYECANDY_L3rd_JL_V04.aep</name>
											<pathurl>file://localhost/Volumes/ATM%201/EYE%20CANDY/Project%20Template/5_Assets/Eye%20Candy%20Mograph/EYECANDY_L3rd_JL_V04%20folder/EYECANDY_L3rd_JL_V04.aep</pathurl>
											<rate>
												<timebase>30</timebase>
												<ntsc>FALSE</ntsc>
											</rate>
											<duration>6300</duration>
											<timecode>
												<rate>
													<timebase>30</timebase>
													<ntsc>FALSE</ntsc>
												</rate>
												<string>00:00:00:00</string>
												<frame>0</frame>
												<displayformat>NDF</displayformat>
											</timecode>
											<media>
												<video>
													<samplecharacteristics>
														<rate>
															<timebase>30</timebase>
															<ntsc>FALSE</ntsc>
														</rate>
														<width>1920</width>
														<height>1080</height>
														<anamorphic>FALSE</anamorphic>
														<pixelaspectratio>square</pixelaspectratio>
														<fielddominance>lower</fielddominance>
													</samplecharacteristics>
												</video>
											</media>
										</file>
										<logginginfo>
											<description></description>
											<scene></scene>
											<shottake></shottake>
											<lognote></lognote>
											<good></good>
											<originalvideofilename></originalvideofilename>
											<originalaudiofilename></originalaudiofilename>
										</logginginfo>
										<colorinfo>
											<lut></lut>
											<lut1></lut1>
											<asc_sop></asc_sop>
											<asc_sat></asc_sat>
											<lut2></lut2>
										</colorinfo>
									</clipitem>
									<enabled>TRUE</enabled>
									<locked>FALSE</locked>
								</track>
								<track TL.SQTrackShy="0" TL.SQTrackExpandedHeight="25" TL.SQTrackExpanded="0" MZ.TrackTargeted="0">
									<clipitem id="clipitem-665">
										<masterclipid>masterclip-19</masterclipid>
										<name>Intro</name>
										<enabled>TRUE</enabled>
										<duration>160</duration>
										<rate>
											<timebase>30</timebase>
											<ntsc>TRUE</ntsc>
										</rate>
										<start>0</start>
										<end>115</end>
										<in>0</in>
										<out>115</out>
										<pproTicksIn>0</pproTicksIn>
										<pproTicksOut>974701728000</pproTicksOut>
										<sequence id="sequence-4"/>
											<marker>
												<comment></comment>
												<name></name>
												<in>82</in>
												<out>-1</out>
											</marker>
										<link>
											<linkclipref>clipitem-665</linkclipref>
											<mediatype>video</mediatype>
											<trackindex>4</trackindex>
											<clipindex>1</clipindex>
										</link>
										<link>
											<linkclipref>clipitem-673</linkclipref>
											<mediatype>audio</mediatype>
											<trackindex>3</trackindex>
											<clipindex>1</clipindex>
											<groupindex>1</groupindex>
										</link>
										<link>
											<linkclipref>clipitem-675</linkclipref>
											<mediatype>audio</mediatype>
											<trackindex>4</trackindex>
											<clipindex>1</clipindex>
											<groupindex>1</groupindex>
										</link>
										<labels>
											<label2>Forest</label2>
										</labels>
									</clipitem>
									<clipitem id="clipitem-666">
										<masterclipid>masterclip-21</masterclipid>
										<name>Transition 2</name>
										<enabled>TRUE</enabled>
										<duration>160</duration>
										<rate>
											<timebase>30</timebase>
											<ntsc>TRUE</ntsc>
										</rate>
										<start>2780</start>
										<end>2899</end>
										<in>0</in>
										<out>119</out>
										<pproTicksIn>0</pproTicksIn>
										<pproTicksOut>1008604396800</pproTicksOut>
										<sequence id="sequence-5"/>
											<marker>
												<comment></comment>
												<name></name>
												<in>54</in>
												<out>-1</out>
											</marker>
											<marker>
												<comment></comment>
												<name></name>
												<in>20</in>
												<out>-1</out>
											</marker>
										<link>
											<linkclipref>clipitem-666</linkclipref>
											<mediatype>video</mediatype>
											<trackindex>4</trackindex>
											<clipindex>2</clipindex>
										</link>
										<link>
											<linkclipref>clipitem-674</linkclipref>
											<mediatype>audio</mediatype>
											<trackindex>3</trackindex>
											<clipindex>2</clipindex>
											<groupindex>1</groupindex>
										</link>
										<link>
											<linkclipref>clipitem-676</linkclipref>
											<mediatype>audio</mediatype>
											<trackindex>4</trackindex>
											<clipindex>2</clipindex>
											<groupindex>1</groupindex>
										</link>
										<labels>
											<label2>Forest</label2>
										</labels>
									</clipitem>
									<enabled>TRUE</enabled>
									<locked>FALSE</locked>
								</track>
							</video>
							<audio>
								<numOutputChannels>2</numOutputChannels>
								<format>
									<samplecharacteristics>
										<depth>16</depth>
										<samplerate>48000</samplerate>
									</samplecharacteristics>
								</format>
								<outputs>
									<group>
										<index>1</index>
										<numchannels>1</numchannels>
										<downmix>0</downmix>
										<channel>
											<index>1</index>
										</channel>
									</group>
									<group>
										<index>2</index>
										<numchannels>1</numchannels>
										<downmix>0</downmix>
										<channel>
											<index>2</index>
										</channel>
									</group>
								</outputs>
								<track TL.SQTrackAudioKeyframeStyle="0" TL.SQTrackShy="0" TL.SQTrackExpandedHeight="25" TL.SQTrackExpanded="0" MZ.TrackTargeted="1" PannerCurrentValue="0.5" PannerIsInverted="true" PannerStartKeyframe="-91445760000000000,0.5,0,0,0,0,0,0" PannerName="Balance" currentExplodedTrackIndex="0" totalExplodedTrackCount="2" premiereTrackType="Stereo">
									<clipitem id="clipitem-667" premiereChannelType="stereo">
										<masterclipid>masterclip-233</masterclipid>
										<name>Tripple the Toast_1.5</name>
										<enabled>TRUE</enabled>
										<duration>2953</duration>
										<rate>
											<timebase>30</timebase>
											<ntsc>TRUE</ntsc>
										</rate>
										<start>82</start>
										<end>-1</end>
										<in>0</in>
										<out>2718</out>
										<pproTicksIn>0</pproTicksIn>
										<pproTicksOut>23036863449600</pproTicksOut>
										<sequence id="sequence-46"/>
										<sourcetrack>
											<mediatype>audio</mediatype>
											<trackindex>0</trackindex>
										</sourcetrack>
										<link>
											<linkclipref>clipitem-631</linkclipref>
											<mediatype>video</mediatype>
											<trackindex>1</trackindex>
											<clipindex>1</clipindex>
										</link>
										<link>
											<linkclipref>clipitem-667</linkclipref>
											<mediatype>audio</mediatype>
											<trackindex>1</trackindex>
											<clipindex>1</clipindex>
											<groupindex>1</groupindex>
										</link>
										<link>
											<linkclipref>clipitem-670</linkclipref>
											<mediatype>audio</mediatype>
											<trackindex>2</trackindex>
											<clipindex>1</clipindex>
											<groupindex>1</groupindex>
										</link>
										<labels>
											<label2>Forest</label2>
										</labels>
									</clipitem>
									<transitionitem>
										<start>2770</start>
										<end>2800</end>
										<pproTicksIn>23477598144000</pproTicksIn>
										<pproTicksOut>23731868160000</pproTicksOut>
										<alignment>end-black</alignment>
										<cutPointTicks>254270016000</cutPointTicks>
										<rate>
											<timebase>30</timebase>
											<ntsc>TRUE</ntsc>
										</rate>
										<effect>
											<name>Cross Fade ( 0dB)</name>
											<effectid>KGAudioTransCrossFade0dB</effectid>
											<effecttype>transition</effecttype>
											<mediatype>audio</mediatype>
											<wipecode>0</wipecode>
											<wipeaccuracy>100</wipeaccuracy>
											<startratio>0</startratio>
											<endratio>1</endratio>
											<reverse>FALSE</reverse>
										</effect>
									</transitionitem>
									<clipitem id="clipitem-668" premiereChannelType="stereo">
										<masterclipid>masterclip-237</masterclipid>
										<name>Cool Blue Treats_1.5</name>
										<enabled>TRUE</enabled>
										<duration>12979</duration>
										<rate>
											<timebase>30</timebase>
											<ntsc>TRUE</ntsc>
										</rate>
										<start>2834</start>
										<end>-1</end>
										<in>0</in>
										<out>2568</out>
										<pproTicksIn>0</pproTicksIn>
										<pproTicksOut>21765513369600</pproTicksOut>
										<sequence id="sequence-47"/>
										<sourcetrack>
											<mediatype>audio</mediatype>
											<trackindex>0</trackindex>
										</sourcetrack>
										<link>
											<linkclipref>clipitem-642</linkclipref>
											<mediatype>video</mediatype>
											<trackindex>1</trackindex>
											<clipindex>2</clipindex>
										</link>
										<link>
											<linkclipref>clipitem-668</linkclipref>
											<mediatype>audio</mediatype>
											<trackindex>1</trackindex>
											<clipindex>3</clipindex>
											<groupindex>1</groupindex>
										</link>
										<link>
											<linkclipref>clipitem-671</linkclipref>
											<mediatype>audio</mediatype>
											<trackindex>2</trackindex>
											<clipindex>3</clipindex>
											<groupindex>1</groupindex>
										</link>
										<labels>
											<label2>Forest</label2>
										</labels>
									</clipitem>
									<transitionitem>
										<start>5372</start>
										<end>5402</end>
										<pproTicksIn>45531284198400</pproTicksIn>
										<pproTicksOut>45785554214400</pproTicksOut>
										<alignment>end-black</alignment>
										<cutPointTicks>254270016000</cutPointTicks>
										<rate>
											<timebase>30</timebase>
											<ntsc>TRUE</ntsc>
										</rate>
										<effect>
											<name>Cross Fade ( 0dB)</name>
											<effectid>KGAudioTransCrossFade0dB</effectid>
											<effecttype>transition</effecttype>
											<mediatype>audio</mediatype>
											<wipecode>0</wipecode>
											<wipeaccuracy>100</wipeaccuracy>
											<startratio>0</startratio>
											<endratio>1</endratio>
											<reverse>FALSE</reverse>
										</effect>
									</transitionitem>
									<clipitem id="clipitem-669" premiereChannelType="stereo">
										<masterclipid>masterclip-111</masterclipid>
										<name>Bumper 3</name>
										<enabled>TRUE</enabled>
										<duration>299</duration>
										<rate>
											<timebase>30</timebase>
											<ntsc>TRUE</ntsc>
										</rate>
										<start>5402</start>
										<end>5701</end>
										<in>0</in>
										<out>299</out>
										<pproTicksIn>0</pproTicksIn>
										<pproTicksOut>2534224492800</pproTicksOut>
										<sequence id="sequence-21"/>
										<sourcetrack>
											<mediatype>audio</mediatype>
											<trackindex>0</trackindex>
										</sourcetrack>
										<link>
											<linkclipref>clipitem-661</linkclipref>
											<mediatype>video</mediatype>
											<trackindex>1</trackindex>
											<clipindex>3</clipindex>
										</link>
										<link>
											<linkclipref>clipitem-669</linkclipref>
											<mediatype>audio</mediatype>
											<trackindex>1</trackindex>
											<clipindex>5</clipindex>
											<groupindex>1</groupindex>
										</link>
										<link>
											<linkclipref>clipitem-672</linkclipref>
											<mediatype>audio</mediatype>
											<trackindex>2</trackindex>
											<clipindex>5</clipindex>
											<groupindex>1</groupindex>
										</link>
										<labels>
											<label2>Forest</label2>
										</labels>
									</clipitem>
									<enabled>TRUE</enabled>
									<locked>FALSE</locked>
									<outputchannelindex>1</outputchannelindex>
								</track>
								<track TL.SQTrackAudioKeyframeStyle="0" TL.SQTrackShy="0" TL.SQTrackExpandedHeight="25" TL.SQTrackExpanded="0" MZ.TrackTargeted="1" PannerCurrentValue="0.5" PannerIsInverted="true" PannerStartKeyframe="-91445760000000000,0.5,0,0,0,0,0,0" PannerName="Balance" currentExplodedTrackIndex="1" totalExplodedTrackCount="2" premiereTrackType="Stereo">
									<clipitem id="clipitem-670" premiereChannelType="stereo">
										<masterclipid>masterclip-233</masterclipid>
										<name>Tripple the Toast_1.5</name>
										<enabled>TRUE</enabled>
										<duration>2953</duration>
										<rate>
											<timebase>30</timebase>
											<ntsc>TRUE</ntsc>
										</rate>
										<start>82</start>
										<end>-1</end>
										<in>0</in>
										<out>2718</out>
										<pproTicksIn>0</pproTicksIn>
										<pproTicksOut>23036863449600</pproTicksOut>
										<sequence id="sequence-46"/>
										<sourcetrack>
											<mediatype>audio</mediatype>
											<trackindex>1</trackindex>
										</sourcetrack>
										<link>
											<linkclipref>clipitem-631</linkclipref>
											<mediatype>video</mediatype>
											<trackindex>1</trackindex>
											<clipindex>1</clipindex>
										</link>
										<link>
											<linkclipref>clipitem-667</linkclipref>
											<mediatype>audio</mediatype>
											<trackindex>1</trackindex>
											<clipindex>1</clipindex>
											<groupindex>1</groupindex>
										</link>
										<link>
											<linkclipref>clipitem-670</linkclipref>
											<mediatype>audio</mediatype>
											<trackindex>2</trackindex>
											<clipindex>1</clipindex>
											<groupindex>1</groupindex>
										</link>
										<labels>
											<label2>Forest</label2>
										</labels>
									</clipitem>
									<transitionitem>
										<start>2770</start>
										<end>2800</end>
										<pproTicksIn>23477598144000</pproTicksIn>
										<pproTicksOut>23731868160000</pproTicksOut>
										<alignment>end-black</alignment>
										<cutPointTicks>254270016000</cutPointTicks>
										<rate>
											<timebase>30</timebase>
											<ntsc>TRUE</ntsc>
										</rate>
										<effect>
											<name>Cross Fade ( 0dB)</name>
											<effectid>KGAudioTransCrossFade0dB</effectid>
											<effecttype>transition</effecttype>
											<mediatype>audio</mediatype>
											<wipecode>0</wipecode>
											<wipeaccuracy>100</wipeaccuracy>
											<startratio>0</startratio>
											<endratio>1</endratio>
											<reverse>FALSE</reverse>
										</effect>
									</transitionitem>
									<clipitem id="clipitem-671" premiereChannelType="stereo">
										<masterclipid>masterclip-237</masterclipid>
										<name>Cool Blue Treats_1.5</name>
										<enabled>TRUE</enabled>
										<duration>12979</duration>
										<rate>
											<timebase>30</timebase>
											<ntsc>TRUE</ntsc>
										</rate>
										<start>2834</start>
										<end>-1</end>
										<in>0</in>
										<out>2568</out>
										<pproTicksIn>0</pproTicksIn>
										<pproTicksOut>21765513369600</pproTicksOut>
										<sequence id="sequence-47"/>
										<sourcetrack>
											<mediatype>audio</mediatype>
											<trackindex>1</trackindex>
										</sourcetrack>
										<link>
											<linkclipref>clipitem-642</linkclipref>
											<mediatype>video</mediatype>
											<trackindex>1</trackindex>
											<clipindex>2</clipindex>
										</link>
										<link>
											<linkclipref>clipitem-668</linkclipref>
											<mediatype>audio</mediatype>
											<trackindex>1</trackindex>
											<clipindex>3</clipindex>
											<groupindex>1</groupindex>
										</link>
										<link>
											<linkclipref>clipitem-671</linkclipref>
											<mediatype>audio</mediatype>
											<trackindex>2</trackindex>
											<clipindex>3</clipindex>
											<groupindex>1</groupindex>
										</link>
										<labels>
											<label2>Forest</label2>
										</labels>
									</clipitem>
									<transitionitem>
										<start>5372</start>
										<end>5402</end>
										<pproTicksIn>45531284198400</pproTicksIn>
										<pproTicksOut>45785554214400</pproTicksOut>
										<alignment>end-black</alignment>
										<cutPointTicks>254270016000</cutPointTicks>
										<rate>
											<timebase>30</timebase>
											<ntsc>TRUE</ntsc>
										</rate>
										<effect>
											<name>Cross Fade ( 0dB)</name>
											<effectid>KGAudioTransCrossFade0dB</effectid>
											<effecttype>transition</effecttype>
											<mediatype>audio</mediatype>
											<wipecode>0</wipecode>
											<wipeaccuracy>100</wipeaccuracy>
											<startratio>0</startratio>
											<endratio>1</endratio>
											<reverse>FALSE</reverse>
										</effect>
									</transitionitem>
									<clipitem id="clipitem-672" premiereChannelType="stereo">
										<masterclipid>masterclip-111</masterclipid>
										<name>Bumper 3</name>
										<enabled>TRUE</enabled>
										<duration>299</duration>
										<rate>
											<timebase>30</timebase>
											<ntsc>TRUE</ntsc>
										</rate>
										<start>5402</start>
										<end>5701</end>
										<in>0</in>
										<out>299</out>
										<pproTicksIn>0</pproTicksIn>
										<pproTicksOut>2534224492800</pproTicksOut>
										<sequence id="sequence-21"/>
										<sourcetrack>
											<mediatype>audio</mediatype>
											<trackindex>1</trackindex>
										</sourcetrack>
										<link>
											<linkclipref>clipitem-661</linkclipref>
											<mediatype>video</mediatype>
											<trackindex>1</trackindex>
											<clipindex>3</clipindex>
										</link>
										<link>
											<linkclipref>clipitem-669</linkclipref>
											<mediatype>audio</mediatype>
											<trackindex>1</trackindex>
											<clipindex>5</clipindex>
											<groupindex>1</groupindex>
										</link>
										<link>
											<linkclipref>clipitem-672</linkclipref>
											<mediatype>audio</mediatype>
											<trackindex>2</trackindex>
											<clipindex>5</clipindex>
											<groupindex>1</groupindex>
										</link>
										<labels>
											<label2>Forest</label2>
										</labels>
									</clipitem>
									<enabled>TRUE</enabled>
									<locked>FALSE</locked>
									<outputchannelindex>2</outputchannelindex>
								</track>
								<track TL.SQTrackAudioKeyframeStyle="0" TL.SQTrackShy="0" TL.SQTrackExpandedHeight="25" TL.SQTrackExpanded="0" MZ.TrackTargeted="1" PannerCurrentValue="0.5" PannerIsInverted="true" PannerStartKeyframe="-91445760000000000,0.5,0,0,0,0,0,0" PannerName="Balance" currentExplodedTrackIndex="0" totalExplodedTrackCount="2" premiereTrackType="Stereo">
									<clipitem id="clipitem-673" premiereChannelType="stereo">
										<masterclipid>masterclip-19</masterclipid>
										<name>Intro</name>
										<enabled>TRUE</enabled>
										<duration>160</duration>
										<rate>
											<timebase>30</timebase>
											<ntsc>TRUE</ntsc>
										</rate>
										<start>0</start>
										<end>115</end>
										<in>0</in>
										<out>115</out>
										<pproTicksIn>0</pproTicksIn>
										<pproTicksOut>974701728000</pproTicksOut>
										<sequence id="sequence-4"/>
										<sourcetrack>
											<mediatype>audio</mediatype>
											<trackindex>0</trackindex>
										</sourcetrack>
											<marker>
												<comment></comment>
												<name></name>
												<in>82</in>
												<out>-1</out>
											</marker>
										<link>
											<linkclipref>clipitem-665</linkclipref>
											<mediatype>video</mediatype>
											<trackindex>4</trackindex>
											<clipindex>1</clipindex>
										</link>
										<link>
											<linkclipref>clipitem-673</linkclipref>
											<mediatype>audio</mediatype>
											<trackindex>3</trackindex>
											<clipindex>1</clipindex>
											<groupindex>1</groupindex>
										</link>
										<link>
											<linkclipref>clipitem-675</linkclipref>
											<mediatype>audio</mediatype>
											<trackindex>4</trackindex>
											<clipindex>1</clipindex>
											<groupindex>1</groupindex>
										</link>
										<labels>
											<label2>Forest</label2>
										</labels>
									</clipitem>
									<clipitem id="clipitem-674" premiereChannelType="stereo">
										<masterclipid>masterclip-21</masterclipid>
										<name>Transition 2</name>
										<enabled>TRUE</enabled>
										<duration>160</duration>
										<rate>
											<timebase>30</timebase>
											<ntsc>TRUE</ntsc>
										</rate>
										<start>2780</start>
										<end>2899</end>
										<in>0</in>
										<out>119</out>
										<pproTicksIn>0</pproTicksIn>
										<pproTicksOut>1008604396800</pproTicksOut>
										<sequence id="sequence-5"/>
										<sourcetrack>
											<mediatype>audio</mediatype>
											<trackindex>0</trackindex>
										</sourcetrack>
											<marker>
												<comment></comment>
												<name></name>
												<in>54</in>
												<out>-1</out>
											</marker>
											<marker>
												<comment></comment>
												<name></name>
												<in>20</in>
												<out>-1</out>
											</marker>
										<link>
											<linkclipref>clipitem-666</linkclipref>
											<mediatype>video</mediatype>
											<trackindex>4</trackindex>
											<clipindex>2</clipindex>
										</link>
										<link>
											<linkclipref>clipitem-674</linkclipref>
											<mediatype>audio</mediatype>
											<trackindex>3</trackindex>
											<clipindex>2</clipindex>
											<groupindex>1</groupindex>
										</link>
										<link>
											<linkclipref>clipitem-676</linkclipref>
											<mediatype>audio</mediatype>
											<trackindex>4</trackindex>
											<clipindex>2</clipindex>
											<groupindex>1</groupindex>
										</link>
										<labels>
											<label2>Forest</label2>
										</labels>
									</clipitem>
									<enabled>TRUE</enabled>
									<locked>FALSE</locked>
									<outputchannelindex>1</outputchannelindex>
								</track>
								<track TL.SQTrackAudioKeyframeStyle="0" TL.SQTrackShy="0" TL.SQTrackExpandedHeight="25" TL.SQTrackExpanded="0" MZ.TrackTargeted="1" PannerCurrentValue="0.5" PannerIsInverted="true" PannerStartKeyframe="-91445760000000000,0.5,0,0,0,0,0,0" PannerName="Balance" currentExplodedTrackIndex="1" totalExplodedTrackCount="2" premiereTrackType="Stereo">
									<clipitem id="clipitem-675" premiereChannelType="stereo">
										<masterclipid>masterclip-19</masterclipid>
										<name>Intro</name>
										<enabled>TRUE</enabled>
										<duration>160</duration>
										<rate>
											<timebase>30</timebase>
											<ntsc>TRUE</ntsc>
										</rate>
										<start>0</start>
										<end>115</end>
										<in>0</in>
										<out>115</out>
										<pproTicksIn>0</pproTicksIn>
										<pproTicksOut>974701728000</pproTicksOut>
										<sequence id="sequence-4"/>
										<sourcetrack>
											<mediatype>audio</mediatype>
											<trackindex>1</trackindex>
										</sourcetrack>
											<marker>
												<comment></comment>
												<name></name>
												<in>82</in>
												<out>-1</out>
											</marker>
										<link>
											<linkclipref>clipitem-665</linkclipref>
											<mediatype>video</mediatype>
											<trackindex>4</trackindex>
											<clipindex>1</clipindex>
										</link>
										<link>
											<linkclipref>clipitem-673</linkclipref>
											<mediatype>audio</mediatype>
											<trackindex>3</trackindex>
											<clipindex>1</clipindex>
											<groupindex>1</groupindex>
										</link>
										<link>
											<linkclipref>clipitem-675</linkclipref>
											<mediatype>audio</mediatype>
											<trackindex>4</trackindex>
											<clipindex>1</clipindex>
											<groupindex>1</groupindex>
										</link>
										<labels>
											<label2>Forest</label2>
										</labels>
									</clipitem>
									<clipitem id="clipitem-676" premiereChannelType="stereo">
										<masterclipid>masterclip-21</masterclipid>
										<name>Transition 2</name>
										<enabled>TRUE</enabled>
										<duration>160</duration>
										<rate>
											<timebase>30</timebase>
											<ntsc>TRUE</ntsc>
										</rate>
										<start>2780</start>
										<end>2899</end>
										<in>0</in>
										<out>119</out>
										<pproTicksIn>0</pproTicksIn>
										<pproTicksOut>1008604396800</pproTicksOut>
										<sequence id="sequence-5"/>
										<sourcetrack>
											<mediatype>audio</mediatype>
											<trackindex>1</trackindex>
										</sourcetrack>
											<marker>
												<comment></comment>
												<name></name>
												<in>54</in>
												<out>-1</out>
											</marker>
											<marker>
												<comment></comment>
												<name></name>
												<in>20</in>
												<out>-1</out>
											</marker>
										<link>
											<linkclipref>clipitem-666</linkclipref>
											<mediatype>video</mediatype>
											<trackindex>4</trackindex>
											<clipindex>2</clipindex>
										</link>
										<link>
											<linkclipref>clipitem-674</linkclipref>
											<mediatype>audio</mediatype>
											<trackindex>3</trackindex>
											<clipindex>2</clipindex>
											<groupindex>1</groupindex>
										</link>
										<link>
											<linkclipref>clipitem-676</linkclipref>
											<mediatype>audio</mediatype>
											<trackindex>4</trackindex>
											<clipindex>2</clipindex>
											<groupindex>1</groupindex>
										</link>
										<labels>
											<label2>Forest</label2>
										</labels>
									</clipitem>
									<enabled>TRUE</enabled>
									<locked>FALSE</locked>
									<outputchannelindex>2</outputchannelindex>
								</track>
								<track TL.SQTrackAudioKeyframeStyle="0" TL.SQTrackShy="0" TL.SQTrackExpandedHeight="25" TL.SQTrackExpanded="0" MZ.TrackTargeted="1" PannerCurrentValue="0.5" PannerIsInverted="true" PannerStartKeyframe="-91445760000000000,0.5,0,0,0,0,0,0" PannerName="Balance" currentExplodedTrackIndex="0" totalExplodedTrackCount="2" premiereTrackType="Stereo">
									<enabled>TRUE</enabled>
									<locked>FALSE</locked>
									<outputchannelindex>1</outputchannelindex>
								</track>
								<track TL.SQTrackAudioKeyframeStyle="0" TL.SQTrackShy="0" TL.SQTrackExpandedHeight="25" TL.SQTrackExpanded="0" MZ.TrackTargeted="1" PannerCurrentValue="0.5" PannerIsInverted="true" PannerStartKeyframe="-91445760000000000,0.5,0,0,0,0,0,0" PannerName="Balance" currentExplodedTrackIndex="1" totalExplodedTrackCount="2" premiereTrackType="Stereo">
									<enabled>TRUE</enabled>
									<locked>FALSE</locked>
									<outputchannelindex>2</outputchannelindex>
								</track>
							</audio>
						</media>
						<timecode>
							<rate>
								<timebase>30</timebase>
								<ntsc>TRUE</ntsc>
							</rate>
							<string>00;00;00;00</string>
							<frame>0</frame>
							<displayformat>DF</displayformat>
						</timecode>
						<labels>
							<label2>Forest</label2>
						</labels>
						<logginginfo>
							<description></description>
							<scene></scene>
							<shottake></shottake>
							<lognote></lognote>
							<good></good>
							<originalvideofilename></originalvideofilename>
							<originalaudiofilename></originalaudiofilename>
						</logginginfo>
					</sequence>
					<sequence id="sequence-48" TL.SQAudioVisibleBase="0" TL.SQVideoVisibleBase="0" TL.SQVisibleBaseTime="0" TL.SQAVDividerPosition="0.5" TL.SQHideShyTracks="0" TL.SQHeaderWidth="236" TL.SQDataTrackViewControlState="0" Monitor.ProgramZoomOut="45082073836800" Monitor.ProgramZoomIn="0" TL.SQTimePerPixel="0.13726635714302704" AM.TrackVScrollPosition="0" AM.TrackScrollPosition="0" MZ.EditLine="10247081644800" MZ.Sequence.PreviewFrameSizeHeight="1080" MZ.Sequence.PreviewFrameSizeWidth="1920" MZ.Sequence.AudioTimeDisplayFormat="200" MZ.Sequence.PreviewRenderingClassID="1061109567" MZ.Sequence.PreviewRenderingPresetCodec="1634755443" MZ.Sequence.PreviewRenderingPresetPath="EncoderPresets/SequencePreview/35d109db-457b-43c1-9452-9cb7be9f121c/QuickTime.epr" MZ.Sequence.PreviewUseMaxRenderQuality="false" MZ.Sequence.PreviewUseMaxBitDepth="false" MZ.Sequence.EditingModeGUID="35d109db-457b-43c1-9452-9cb7be9f121c" MZ.Sequence.VideoTimeDisplayFormat="102" MZ.WorkOutPoint="15239249625600" MZ.WorkInPoint="0" explodedTracks="true">
						<uuid>79fe11b2-c992-4227-a9f3-410b8457f251</uuid>
						<duration>5224</duration>
						<rate>
							<timebase>30</timebase>
							<ntsc>TRUE</ntsc>
						</rate>
						<name>ATM_EYECANDY_238</name>
						<media>
							<video>
								<format>
									<samplecharacteristics>
										<rate>
											<timebase>30</timebase>
											<ntsc>TRUE</ntsc>
										</rate>
										<codec>
											<name>Apple ProRes 422</name>
											<appspecificdata>
												<appname>Final Cut Pro</appname>
												<appmanufacturer>Apple Inc.</appmanufacturer>
												<appversion>7.0</appversion>
												<data>
													<qtcodec>
														<codecname>Apple ProRes 422</codecname>
														<codectypename>Apple ProRes 422</codectypename>
														<codectypecode>apcn</codectypecode>
														<codecvendorcode>appl</codecvendorcode>
														<spatialquality>1024</spatialquality>
														<temporalquality>0</temporalquality>
														<keyframerate>0</keyframerate>
														<datarate>0</datarate>
													</qtcodec>
												</data>
											</appspecificdata>
										</codec>
										<width>1920</width>
										<height>1080</height>
										<anamorphic>FALSE</anamorphic>
										<pixelaspectratio>square</pixelaspectratio>
										<fielddominance>none</fielddominance>
										<colordepth>24</colordepth>
									</samplecharacteristics>
								</format>
								<track TL.SQTrackShy="0" TL.SQTrackExpandedHeight="25" TL.SQTrackExpanded="0" MZ.TrackTargeted="1">
									<clipitem id="clipitem-677">
										<masterclipid>masterclip-245</masterclipid>
										<name>Life is Brewtiful_1.5</name>
										<enabled>TRUE</enabled>
										<duration>2458</duration>
										<rate>
											<timebase>30</timebase>
											<ntsc>TRUE</ntsc>
										</rate>
										<start>82</start>
										<end>2478</end>
										<in>0</in>
										<out>2396</out>
										<pproTicksIn>0</pproTicksIn>
										<pproTicksOut>20307698611200</pproTicksOut>
										<sequence id="sequence-49" TL.SQAudioVisibleBase="0" TL.SQVideoVisibleBase="0" TL.SQVisibleBaseTime="0" TL.SQAVDividerPosition="0.5" TL.SQHideShyTracks="0" TL.SQHeaderWidth="236" TL.SQDataTrackViewControlState="0" Monitor.ProgramZoomOut="20307698611200" Monitor.ProgramZoomIn="0" TL.SQTimePerPixel="0.079412879611404391" AM.TrackVScrollPosition="0" AM.TrackScrollPosition="0" MZ.EditLine="9204574579200" MZ.Sequence.PreviewFrameSizeHeight="1080" MZ.Sequence.PreviewFrameSizeWidth="1920" MZ.Sequence.AudioTimeDisplayFormat="200" MZ.Sequence.PreviewRenderingClassID="1061109567" MZ.Sequence.PreviewRenderingPresetCodec="1634755443" MZ.Sequence.PreviewRenderingPresetPath="EncoderPresets/SequencePreview/35d109db-457b-43c1-9452-9cb7be9f121c/QuickTime.epr" MZ.Sequence.PreviewUseMaxRenderQuality="false" MZ.Sequence.PreviewUseMaxBitDepth="false" MZ.Sequence.EditingModeGUID="35d109db-457b-43c1-9452-9cb7be9f121c" MZ.Sequence.VideoTimeDisplayFormat="102" MZ.WorkOutPoint="1262874412800" MZ.WorkInPoint="0">
											<duration>2396</duration>
											<rate>
												<timebase>30</timebase>
												<ntsc>TRUE</ntsc>
											</rate>
											<name>FND_Life is Brewtiful_1.5</name>
											<media>
												<video>
													<format>
														<samplecharacteristics>
															<rate>
																<timebase>30</timebase>
																<ntsc>TRUE</ntsc>
															</rate>
															<codec>
																<name>Apple ProRes 422</name>
																<appspecificdata>
																	<appname>Final Cut Pro</appname>
																	<appmanufacturer>Apple Inc.</appmanufacturer>
																	<appversion>7.0</appversion>
																	<data>
																		<qtcodec>
																			<codecname>Apple ProRes 422</codecname>
																			<codectypename>Apple ProRes 422</codectypename>
																			<codectypecode>apcn</codectypecode>
																			<codecvendorcode>appl</codecvendorcode>
																			<spatialquality>1024</spatialquality>
																			<temporalquality>0</temporalquality>
																			<keyframerate>0</keyframerate>
																			<datarate>0</datarate>
																		</qtcodec>
																	</data>
																</appspecificdata>
															</codec>
															<width>1920</width>
															<height>1080</height>
															<anamorphic>FALSE</anamorphic>
															<pixelaspectratio>square</pixelaspectratio>
															<fielddominance>none</fielddominance>
															<colordepth>24</colordepth>
														</samplecharacteristics>
													</format>
													<track TL.SQTrackShy="0" TL.SQTrackExpandedHeight="25" TL.SQTrackExpanded="0" MZ.TrackTargeted="1">
														<clipitem id="clipitem-678">
															<masterclipid>masterclip-246</masterclipid>
															<name>23728_Coffee grinds fall into portafilter _By_Omri_Ohana_Artlist_HD.mp4</name>
															<enabled>TRUE</enabled>
															<duration>242</duration>
															<rate>
																<timebase>30</timebase>
																<ntsc>TRUE</ntsc>
															</rate>
															<start>0</start>
															<end>151</end>
															<in>0</in>
															<out>151</out>
															<pproTicksIn>0</pproTicksIn>
															<pproTicksOut>1279825747200</pproTicksOut>
															<alphatype>none</alphatype>
															<pixelaspectratio>NTSC-601</pixelaspectratio>
															<anamorphic>TRUE</anamorphic>
															<file id="file-211">
																<name>23728_Coffee grinds fall into portafilter _By_Omri_Ohana_Artlist_HD.mp4</name>
																<pathurl>file://localhost/Volumes/ATM%201/EYE%20CANDY/8%3a14%3a23/3_Raw%20Files/Artlist%20-%20Espresso%20Machine/23728_Coffee%20grinds%20fall%20into%20portafilter%20_By_Omri_Ohana_Artlist_HD.mp4</pathurl>
																<rate>
																	<timebase>25</timebase>
																	<ntsc>FALSE</ntsc>
																</rate>
																<duration>202</duration>
																<timecode>
																	<rate>
																		<timebase>25</timebase>
																		<ntsc>FALSE</ntsc>
																	</rate>
																	<string>12:27:48:05</string>
																	<frame>1121705</frame>
																	<displayformat>NDF</displayformat>
																</timecode>
																<media>
																	<video>
																		<samplecharacteristics>
																			<rate>
																				<timebase>25</timebase>
																				<ntsc>FALSE</ntsc>
																			</rate>
																			<width>1920</width>
																			<height>1080</height>
																			<anamorphic>TRUE</anamorphic>
																			<pixelaspectratio>NTSC-601</pixelaspectratio>
																			<fielddominance>none</fielddominance>
																		</samplecharacteristics>
																	</video>
																</media>
															</file>
															<filter>
																<effect>
																	<name>Distort</name>
																	<effectid>deformation</effectid>
																	<effectcategory>motion</effectcategory>
																	<effecttype>motion</effecttype>
																	<mediatype>video</mediatype>
																	<parameter authoringApp="PremierePro">
																		<parameterid>aspect</parameterid>
																		<name>Aspect</name>
																		<valuemin>-10000</valuemin>
																		<valuemax>10000</valuemax>
																		<value>-21.2121</value>
																	</parameter>
																</effect>
															</filter>
															<filter>
																<effect>
																	<name>Basic Motion</name>
																	<effectid>basic</effectid>
																	<effectcategory>motion</effectcategory>
																	<effecttype>motion</effecttype>
																	<mediatype>video</mediatype>
																	<parameter authoringApp="PremierePro">
																		<parameterid>scale</parameterid>
																		<name>Scale</name>
																		<value>121.212</value>
																	</parameter>
																</effect>
															</filter>
															<logginginfo>
																<description></description>
																<scene></scene>
																<shottake></shottake>
																<lognote></lognote>
																<good></good>
																<originalvideofilename></originalvideofilename>
																<originalaudiofilename></originalaudiofilename>
															</logginginfo>
															<colorinfo>
																<lut></lut>
																<lut1></lut1>
																<asc_sop></asc_sop>
																<asc_sat></asc_sat>
																<lut2></lut2>
															</colorinfo>
															<labels>
																<label2>Violet</label2>
															</labels>
														</clipitem>
														<clipitem id="clipitem-679">
															<masterclipid>masterclip-247</masterclipid>
															<name>23730_Coffee grounds fall into portafilter _By_Omri_Ohana_Artlist_HD.mp4</name>
															<enabled>TRUE</enabled>
															<duration>336</duration>
															<rate>
																<timebase>30</timebase>
																<ntsc>TRUE</ntsc>
															</rate>
															<start>151</start>
															<end>332</end>
															<in>155</in>
															<out>336</out>
															<pproTicksIn>1313728416000</pproTicksIn>
															<pproTicksOut>2847824179200</pproTicksOut>
															<alphatype>none</alphatype>
															<pixelaspectratio>NTSC-601</pixelaspectratio>
															<anamorphic>TRUE</anamorphic>
															<file id="file-212">
																<name>23730_Coffee grounds fall into portafilter _By_Omri_Ohana_Artlist_HD.mp4</name>
																<pathurl>file://localhost/Volumes/ATM%201/EYE%20CANDY/8%3a14%3a23/3_Raw%20Files/Artlist%20-%20Espresso%20Machine/23730_Coffee%20grounds%20fall%20into%20portafilter%20_By_Omri_Ohana_Artlist_HD.mp4</pathurl>
																<rate>
																	<timebase>25</timebase>
																	<ntsc>FALSE</ntsc>
																</rate>
																<duration>281</duration>
																<timecode>
																	<rate>
																		<timebase>25</timebase>
																		<ntsc>FALSE</ntsc>
																	</rate>
																	<string>12:31:24:12</string>
																	<frame>1127112</frame>
																	<displayformat>NDF</displayformat>
																</timecode>
																<media>
																	<video>
																		<samplecharacteristics>
																			<rate>
																				<timebase>25</timebase>
																				<ntsc>FALSE</ntsc>
																			</rate>
																			<width>1920</width>
																			<height>1080</height>
																			<anamorphic>TRUE</anamorphic>
																			<pixelaspectratio>NTSC-601</pixelaspectratio>
																			<fielddominance>none</fielddominance>
																		</samplecharacteristics>
																	</video>
																</media>
															</file>
															<filter>
																<effect>
																	<name>Distort</name>
																	<effectid>deformation</effectid>
																	<effectcategory>motion</effectcategory>
																	<effecttype>motion</effecttype>
																	<mediatype>video</mediatype>
																	<parameter authoringApp="PremierePro">
																		<parameterid>aspect</parameterid>
																		<name>Aspect</name>
																		<valuemin>-10000</valuemin>
																		<valuemax>10000</valuemax>
																		<value>-21.2121</value>
																	</parameter>
																</effect>
															</filter>
															<filter>
																<effect>
																	<name>Basic Motion</name>
																	<effectid>basic</effectid>
																	<effectcategory>motion</effectcategory>
																	<effecttype>motion</effecttype>
																	<mediatype>video</mediatype>
																	<parameter authoringApp="PremierePro">
																		<parameterid>scale</parameterid>
																		<name>Scale</name>
																		<value>121.212</value>
																	</parameter>
																</effect>
															</filter>
															<logginginfo>
																<description></description>
																<scene></scene>
																<shottake></shottake>
																<lognote></lognote>
																<good></good>
																<originalvideofilename></originalvideofilename>
																<originalaudiofilename></originalaudiofilename>
															</logginginfo>
															<colorinfo>
																<lut></lut>
																<lut1></lut1>
																<asc_sop></asc_sop>
																<asc_sat></asc_sat>
																<lut2></lut2>
															</colorinfo>
															<labels>
																<label2>Violet</label2>
															</labels>
														</clipitem>
														<clipitem id="clipitem-680">
															<masterclipid>masterclip-248</masterclipid>
															<name>23761_Barista compresses coffee grounds with tamper_By_Omri_Ohana_Artlist_HD.mp4</name>
															<enabled>TRUE</enabled>
															<duration>286</duration>
															<rate>
																<timebase>30</timebase>
																<ntsc>TRUE</ntsc>
															</rate>
															<start>332</start>
															<end>554</end>
															<in>0</in>
															<out>222</out>
															<pproTicksIn>0</pproTicksIn>
															<pproTicksOut>1881598118400</pproTicksOut>
															<alphatype>none</alphatype>
															<pixelaspectratio>NTSC-601</pixelaspectratio>
															<anamorphic>TRUE</anamorphic>
															<file id="file-213">
																<name>23761_Barista compresses coffee grounds with tamper_By_Omri_Ohana_Artlist_HD.mp4</name>
																<pathurl>file://localhost/Volumes/ATM%201/EYE%20CANDY/8%3a14%3a23/3_Raw%20Files/Artlist%20-%20Espresso%20Machine/23761_Barista%20compresses%20coffee%20grounds%20with%20tamper_By_Omri_Ohana_Artlist_HD.mp4</pathurl>
																<rate>
																	<timebase>25</timebase>
																	<ntsc>FALSE</ntsc>
																</rate>
																<duration>239</duration>
																<timecode>
																	<rate>
																		<timebase>25</timebase>
																		<ntsc>FALSE</ntsc>
																	</rate>
																	<string>14:00:14:05</string>
																	<frame>1260355</frame>
																	<displayformat>NDF</displayformat>
																</timecode>
																<media>
																	<video>
																		<samplecharacteristics>
																			<rate>
																				<timebase>25</timebase>
																				<ntsc>FALSE</ntsc>
																			</rate>
																			<width>1920</width>
																			<height>1080</height>
																			<anamorphic>TRUE</anamorphic>
																			<pixelaspectratio>NTSC-601</pixelaspectratio>
																			<fielddominance>none</fielddominance>
																		</samplecharacteristics>
																	</video>
																</media>
															</file>
															<filter>
																<effect>
																	<name>Distort</name>
																	<effectid>deformation</effectid>
																	<effectcategory>motion</effectcategory>
																	<effecttype>motion</effecttype>
																	<mediatype>video</mediatype>
																	<parameter authoringApp="PremierePro">
																		<parameterid>aspect</parameterid>
																		<name>Aspect</name>
																		<valuemin>-10000</valuemin>
																		<valuemax>10000</valuemax>
																		<value>-21.2121</value>
																	</parameter>
																</effect>
															</filter>
															<filter>
																<effect>
																	<name>Basic Motion</name>
																	<effectid>basic</effectid>
																	<effectcategory>motion</effectcategory>
																	<effecttype>motion</effecttype>
																	<mediatype>video</mediatype>
																	<parameter authoringApp="PremierePro">
																		<parameterid>scale</parameterid>
																		<name>Scale</name>
																		<value>121.212</value>
																	</parameter>
																</effect>
															</filter>
															<logginginfo>
																<description></description>
																<scene></scene>
																<shottake></shottake>
																<lognote></lognote>
																<good></good>
																<originalvideofilename></originalvideofilename>
																<originalaudiofilename></originalaudiofilename>
															</logginginfo>
															<colorinfo>
																<lut></lut>
																<lut1></lut1>
																<asc_sop></asc_sop>
																<asc_sat></asc_sat>
																<lut2></lut2>
															</colorinfo>
															<labels>
																<label2>Violet</label2>
															</labels>
														</clipitem>
														<clipitem id="clipitem-681">
															<masterclipid>masterclip-249</masterclipid>
															<name>23734_Brewed coffee pours out of espresso machine _By_Omri_Ohana_Artlist_HD.mp4</name>
															<enabled>TRUE</enabled>
															<duration>250</duration>
															<rate>
																<timebase>30</timebase>
																<ntsc>TRUE</ntsc>
															</rate>
															<start>554</start>
															<end>735</end>
															<in>19</in>
															<out>200</out>
															<pproTicksIn>161037676800</pproTicksIn>
															<pproTicksOut>1695133440000</pproTicksOut>
															<alphatype>none</alphatype>
															<pixelaspectratio>NTSC-601</pixelaspectratio>
															<anamorphic>TRUE</anamorphic>
															<file id="file-214">
																<name>23734_Brewed coffee pours out of espresso machine _By_Omri_Ohana_Artlist_HD.mp4</name>
																<pathurl>file://localhost/Volumes/ATM%201/EYE%20CANDY/8%3a14%3a23/3_Raw%20Files/Artlist%20-%20Espresso%20Machine/23734_Brewed%20coffee%20pours%20out%20of%20espresso%20machine%20_By_Omri_Ohana_Artlist_HD.mp4</pathurl>
																<rate>
																	<timebase>25</timebase>
																	<ntsc>FALSE</ntsc>
																</rate>
																<duration>209</duration>
																<timecode>
																	<rate>
																		<timebase>25</timebase>
																		<ntsc>FALSE</ntsc>
																	</rate>
																	<string>12:36:50:01</string>
																	<frame>1135251</frame>
																	<displayformat>NDF</displayformat>
																</timecode>
																<media>
																	<video>
																		<samplecharacteristics>
																			<rate>
																				<timebase>25</timebase>
																				<ntsc>FALSE</ntsc>
																			</rate>
																			<width>1920</width>
																			<height>1080</height>
																			<anamorphic>TRUE</anamorphic>
																			<pixelaspectratio>NTSC-601</pixelaspectratio>
																			<fielddominance>none</fielddominance>
																		</samplecharacteristics>
																	</video>
																</media>
															</file>
															<filter>
																<effect>
																	<name>Distort</name>
																	<effectid>deformation</effectid>
																	<effectcategory>motion</effectcategory>
																	<effecttype>motion</effecttype>
																	<mediatype>video</mediatype>
																	<parameter authoringApp="PremierePro">
																		<parameterid>aspect</parameterid>
																		<name>Aspect</name>
																		<valuemin>-10000</valuemin>
																		<valuemax>10000</valuemax>
																		<value>-21.2121</value>
																	</parameter>
																</effect>
															</filter>
															<filter>
																<effect>
																	<name>Basic Motion</name>
																	<effectid>basic</effectid>
																	<effectcategory>motion</effectcategory>
																	<effecttype>motion</effecttype>
																	<mediatype>video</mediatype>
																	<parameter authoringApp="PremierePro">
																		<parameterid>scale</parameterid>
																		<name>Scale</name>
																		<value>121.212</value>
																	</parameter>
																</effect>
															</filter>
															<logginginfo>
																<description></description>
																<scene></scene>
																<shottake></shottake>
																<lognote></lognote>
																<good></good>
																<originalvideofilename></originalvideofilename>
																<originalaudiofilename></originalaudiofilename>
															</logginginfo>
															<colorinfo>
																<lut></lut>
																<lut1></lut1>
																<asc_sop></asc_sop>
																<asc_sat></asc_sat>
																<lut2></lut2>
															</colorinfo>
															<labels>
																<label2>Violet</label2>
															</labels>
														</clipitem>
														<clipitem id="clipitem-682">
															<masterclipid>masterclip-250</masterclipid>
															<name>23724_Coffee pours out of espresso machine spout _By_Omri_Ohana_Artlist_HD.mp4</name>
															<enabled>TRUE</enabled>
															<duration>262</duration>
															<rate>
																<timebase>30</timebase>
																<ntsc>TRUE</ntsc>
															</rate>
															<start>735</start>
															<end>874</end>
															<in>0</in>
															<out>139</out>
															<pproTicksIn>0</pproTicksIn>
															<pproTicksOut>1178117740800</pproTicksOut>
															<alphatype>none</alphatype>
															<pixelaspectratio>NTSC-601</pixelaspectratio>
															<anamorphic>TRUE</anamorphic>
															<file id="file-215">
																<name>23724_Coffee pours out of espresso machine spout _By_Omri_Ohana_Artlist_HD.mp4</name>
																<pathurl>file://localhost/Volumes/ATM%201/EYE%20CANDY/8%3a14%3a23/3_Raw%20Files/Artlist%20-%20Espresso%20Machine/23724_Coffee%20pours%20out%20of%20espresso%20machine%20spout%20_By_Omri_Ohana_Artlist_HD.mp4</pathurl>
																<rate>
																	<timebase>25</timebase>
																	<ntsc>FALSE</ntsc>
																</rate>
																<duration>219</duration>
																<timecode>
																	<rate>
																		<timebase>25</timebase>
																		<ntsc>FALSE</ntsc>
																	</rate>
																	<string>11:03:12:23</string>
																	<frame>994823</frame>
																	<displayformat>NDF</displayformat>
																</timecode>
																<media>
																	<video>
																		<samplecharacteristics>
																			<rate>
																				<timebase>25</timebase>
																				<ntsc>FALSE</ntsc>
																			</rate>
																			<width>1920</width>
																			<height>1080</height>
																			<anamorphic>TRUE</anamorphic>
																			<pixelaspectratio>NTSC-601</pixelaspectratio>
																			<fielddominance>none</fielddominance>
																		</samplecharacteristics>
																	</video>
																</media>
															</file>
															<filter>
																<effect>
																	<name>Distort</name>
																	<effectid>deformation</effectid>
																	<effectcategory>motion</effectcategory>
																	<effecttype>motion</effecttype>
																	<mediatype>video</mediatype>
																	<parameter authoringApp="PremierePro">
																		<parameterid>aspect</parameterid>
																		<name>Aspect</name>
																		<valuemin>-10000</valuemin>
																		<valuemax>10000</valuemax>
																		<value>-21.2121</value>
																	</parameter>
																</effect>
															</filter>
															<filter>
																<effect>
																	<name>Basic Motion</name>
																	<effectid>basic</effectid>
																	<effectcategory>motion</effectcategory>
																	<effecttype>motion</effecttype>
																	<mediatype>video</mediatype>
																	<parameter authoringApp="PremierePro">
																		<parameterid>scale</parameterid>
																		<name>Scale</name>
																		<value>121.212</value>
																	</parameter>
																</effect>
															</filter>
															<logginginfo>
																<description></description>
																<scene></scene>
																<shottake></shottake>
																<lognote></lognote>
																<good></good>
																<originalvideofilename></originalvideofilename>
																<originalaudiofilename></originalaudiofilename>
															</logginginfo>
															<colorinfo>
																<lut></lut>
																<lut1></lut1>
																<asc_sop></asc_sop>
																<asc_sat></asc_sat>
																<lut2></lut2>
															</colorinfo>
															<labels>
																<label2>Violet</label2>
															</labels>
														</clipitem>
														<clipitem id="clipitem-683">
															<masterclipid>masterclip-251</masterclipid>
															<name>23739_Milk steamed in jug _By_Omri_Ohana_Artlist_HD.mp4</name>
															<enabled>TRUE</enabled>
															<duration>166</duration>
															<rate>
																<timebase>30</timebase>
																<ntsc>TRUE</ntsc>
															</rate>
															<start>874</start>
															<end>1031</end>
															<in>0</in>
															<out>157</out>
															<pproTicksIn>0</pproTicksIn>
															<pproTicksOut>1330679750400</pproTicksOut>
															<alphatype>none</alphatype>
															<pixelaspectratio>NTSC-601</pixelaspectratio>
															<anamorphic>TRUE</anamorphic>
															<file id="file-216">
																<name>23739_Milk steamed in jug _By_Omri_Ohana_Artlist_HD.mp4</name>
																<pathurl>file://localhost/Volumes/ATM%201/EYE%20CANDY/8%3a14%3a23/3_Raw%20Files/Artlist%20-%20Espresso%20Machine/23739_Milk%20steamed%20in%20jug%20_By_Omri_Ohana_Artlist_HD.mp4</pathurl>
																<rate>
																	<timebase>25</timebase>
																	<ntsc>FALSE</ntsc>
																</rate>
																<duration>139</duration>
																<timecode>
																	<rate>
																		<timebase>25</timebase>
																		<ntsc>FALSE</ntsc>
																	</rate>
																	<string>12:46:32:10</string>
																	<frame>1149810</frame>
																	<displayformat>NDF</displayformat>
																</timecode>
																<media>
																	<video>
																		<samplecharacteristics>
																			<rate>
																				<timebase>25</timebase>
																				<ntsc>FALSE</ntsc>
																			</rate>
																			<width>1920</width>
																			<height>1080</height>
																			<anamorphic>TRUE</anamorphic>
																			<pixelaspectratio>NTSC-601</pixelaspectratio>
																			<fielddominance>none</fielddominance>
																		</samplecharacteristics>
																	</video>
																</media>
															</file>
															<filter>
																<effect>
																	<name>Distort</name>
																	<effectid>deformation</effectid>
																	<effectcategory>motion</effectcategory>
																	<effecttype>motion</effecttype>
																	<mediatype>video</mediatype>
																	<parameter authoringApp="PremierePro">
																		<parameterid>aspect</parameterid>
																		<name>Aspect</name>
																		<valuemin>-10000</valuemin>
																		<valuemax>10000</valuemax>
																		<value>-21.2121</value>
																	</parameter>
																</effect>
															</filter>
															<filter>
																<effect>
																	<name>Basic Motion</name>
																	<effectid>basic</effectid>
																	<effectcategory>motion</effectcategory>
																	<effecttype>motion</effecttype>
																	<mediatype>video</mediatype>
																	<parameter authoringApp="PremierePro">
																		<parameterid>scale</parameterid>
																		<name>Scale</name>
																		<value>121.212</value>
																	</parameter>
																</effect>
															</filter>
															<logginginfo>
																<description></description>
																<scene></scene>
																<shottake></shottake>
																<lognote></lognote>
																<good></good>
																<originalvideofilename></originalvideofilename>
																<originalaudiofilename></originalaudiofilename>
															</logginginfo>
															<colorinfo>
																<lut></lut>
																<lut1></lut1>
																<asc_sop></asc_sop>
																<asc_sat></asc_sat>
																<lut2></lut2>
															</colorinfo>
															<labels>
																<label2>Violet</label2>
															</labels>
														</clipitem>
														<clipitem id="clipitem-684">
															<masterclipid>masterclip-252</masterclipid>
															<name>23752_Barista heats up milk in jug with steamer _By_Omri_Ohana_Artlist_HD.mp4</name>
															<enabled>TRUE</enabled>
															<duration>171</duration>
															<rate>
																<timebase>30</timebase>
																<ntsc>TRUE</ntsc>
															</rate>
															<start>1031</start>
															<end>1164</end>
															<in>0</in>
															<out>133</out>
															<pproTicksIn>0</pproTicksIn>
															<pproTicksOut>1127263737600</pproTicksOut>
															<alphatype>none</alphatype>
															<pixelaspectratio>NTSC-601</pixelaspectratio>
															<anamorphic>TRUE</anamorphic>
															<file id="file-217">
																<name>23752_Barista heats up milk in jug with steamer _By_Omri_Ohana_Artlist_HD.mp4</name>
																<pathurl>file://localhost/Volumes/ATM%201/EYE%20CANDY/8%3a14%3a23/3_Raw%20Files/Artlist%20-%20Espresso%20Machine/23752_Barista%20heats%20up%20milk%20in%20jug%20with%20steamer%20_By_Omri_Ohana_Artlist_HD.mp4</pathurl>
																<rate>
																	<timebase>25</timebase>
																	<ntsc>FALSE</ntsc>
																</rate>
																<duration>143</duration>
																<timecode>
																	<rate>
																		<timebase>25</timebase>
																		<ntsc>FALSE</ntsc>
																	</rate>
																	<string>13:51:16:01</string>
																	<frame>1246901</frame>
																	<displayformat>NDF</displayformat>
																</timecode>
																<media>
																	<video>
																		<samplecharacteristics>
																			<rate>
																				<timebase>25</timebase>
																				<ntsc>FALSE</ntsc>
																			</rate>
																			<width>1920</width>
																			<height>1080</height>
																			<anamorphic>TRUE</anamorphic>
																			<pixelaspectratio>NTSC-601</pixelaspectratio>
																			<fielddominance>none</fielddominance>
																		</samplecharacteristics>
																	</video>
																</media>
															</file>
															<filter>
																<effect>
																	<name>Distort</name>
																	<effectid>deformation</effectid>
																	<effectcategory>motion</effectcategory>
																	<effecttype>motion</effecttype>
																	<mediatype>video</mediatype>
																	<parameter authoringApp="PremierePro">
																		<parameterid>aspect</parameterid>
																		<name>Aspect</name>
																		<valuemin>-10000</valuemin>
																		<valuemax>10000</valuemax>
																		<value>-21.2121</value>
																	</parameter>
																</effect>
															</filter>
															<filter>
																<effect>
																	<name>Basic Motion</name>
																	<effectid>basic</effectid>
																	<effectcategory>motion</effectcategory>
																	<effecttype>motion</effecttype>
																	<mediatype>video</mediatype>
																	<parameter authoringApp="PremierePro">
																		<parameterid>scale</parameterid>
																		<name>Scale</name>
																		<value>121.212</value>
																	</parameter>
																</effect>
															</filter>
															<logginginfo>
																<description></description>
																<scene></scene>
																<shottake></shottake>
																<lognote></lognote>
																<good></good>
																<originalvideofilename></originalvideofilename>
																<originalaudiofilename></originalaudiofilename>
															</logginginfo>
															<colorinfo>
																<lut></lut>
																<lut1></lut1>
																<asc_sop></asc_sop>
																<asc_sat></asc_sat>
																<lut2></lut2>
															</colorinfo>
															<labels>
																<label2>Violet</label2>
															</labels>
														</clipitem>
														<clipitem id="clipitem-685">
															<masterclipid>masterclip-253</masterclipid>
															<name>23740_Barista swirls hot milk in jug _By_Omri_Ohana_Artlist_HD.mp4</name>
															<enabled>TRUE</enabled>
															<duration>261</duration>
															<rate>
																<timebase>30</timebase>
																<ntsc>TRUE</ntsc>
															</rate>
															<start>1164</start>
															<end>1371</end>
															<in>0</in>
															<out>207</out>
															<pproTicksIn>0</pproTicksIn>
															<pproTicksOut>1754463110400</pproTicksOut>
															<alphatype>none</alphatype>
															<pixelaspectratio>NTSC-601</pixelaspectratio>
															<anamorphic>TRUE</anamorphic>
															<file id="file-218">
																<name>23740_Barista swirls hot milk in jug _By_Omri_Ohana_Artlist_HD.mp4</name>
																<pathurl>file://localhost/Volumes/ATM%201/EYE%20CANDY/8%3a14%3a23/3_Raw%20Files/Artlist%20-%20Espresso%20Machine/23740_Barista%20swirls%20hot%20milk%20in%20jug%20_By_Omri_Ohana_Artlist_HD.mp4</pathurl>
																<rate>
																	<timebase>25</timebase>
																	<ntsc>FALSE</ntsc>
																</rate>
																<duration>218</duration>
																<timecode>
																	<rate>
																		<timebase>25</timebase>
																		<ntsc>FALSE</ntsc>
																	</rate>
																	<string>12:47:13:13</string>
																	<frame>1150838</frame>
																	<displayformat>NDF</displayformat>
																</timecode>
																<media>
																	<video>
																		<samplecharacteristics>
																			<rate>
																				<timebase>25</timebase>
																				<ntsc>FALSE</ntsc>
																			</rate>
																			<width>1920</width>
																			<height>1080</height>
																			<anamorphic>TRUE</anamorphic>
																			<pixelaspectratio>NTSC-601</pixelaspectratio>
																			<fielddominance>none</fielddominance>
																		</samplecharacteristics>
																	</video>
																</media>
															</file>
															<filter>
																<effect>
																	<name>Distort</name>
																	<effectid>deformation</effectid>
																	<effectcategory>motion</effectcategory>
																	<effecttype>motion</effecttype>
																	<mediatype>video</mediatype>
																	<parameter authoringApp="PremierePro">
																		<parameterid>aspect</parameterid>
																		<name>Aspect</name>
																		<valuemin>-10000</valuemin>
																		<valuemax>10000</valuemax>
																		<value>-21.2121</value>
																	</parameter>
																</effect>
															</filter>
															<filter>
																<effect>
																	<name>Basic Motion</name>
																	<effectid>basic</effectid>
																	<effectcategory>motion</effectcategory>
																	<effecttype>motion</effecttype>
																	<mediatype>video</mediatype>
																	<parameter authoringApp="PremierePro">
																		<parameterid>scale</parameterid>
																		<name>Scale</name>
																		<value>121.212</value>
																	</parameter>
																</effect>
															</filter>
															<logginginfo>
																<description></description>
																<scene></scene>
																<shottake></shottake>
																<lognote></lognote>
																<good></good>
																<originalvideofilename></originalvideofilename>
																<originalaudiofilename></originalaudiofilename>
															</logginginfo>
															<colorinfo>
																<lut></lut>
																<lut1></lut1>
																<asc_sop></asc_sop>
																<asc_sat></asc_sat>
																<lut2></lut2>
															</colorinfo>
															<labels>
																<label2>Violet</label2>
															</labels>
														</clipitem>
														<clipitem id="clipitem-686">
															<masterclipid>masterclip-254</masterclipid>
															<name>23742_Coffee swirls in white mug_By_Omri_Ohana_Artlist_HD.mp4</name>
															<enabled>TRUE</enabled>
															<duration>238</duration>
															<rate>
																<timebase>30</timebase>
																<ntsc>TRUE</ntsc>
															</rate>
															<start>1371</start>
															<end>1544</end>
															<in>0</in>
															<out>173</out>
															<pproTicksIn>0</pproTicksIn>
															<pproTicksOut>1466290425600</pproTicksOut>
															<alphatype>none</alphatype>
															<pixelaspectratio>NTSC-601</pixelaspectratio>
															<anamorphic>TRUE</anamorphic>
															<file id="file-219">
																<name>23742_Coffee swirls in white mug_By_Omri_Ohana_Artlist_HD.mp4</name>
																<pathurl>file://localhost/Volumes/ATM%201/EYE%20CANDY/8%3a14%3a23/3_Raw%20Files/Artlist%20-%20Espresso%20Machine/23742_Coffee%20swirls%20in%20white%20mug_By_Omri_Ohana_Artlist_HD.mp4</pathurl>
																<rate>
																	<timebase>25</timebase>
																	<ntsc>FALSE</ntsc>
																</rate>
																<duration>199</duration>
																<timecode>
																	<rate>
																		<timebase>25</timebase>
																		<ntsc>FALSE</ntsc>
																	</rate>
																	<string>12:48:58:00</string>
																	<frame>1153450</frame>
																	<displayformat>NDF</displayformat>
																</timecode>
																<media>
																	<video>
																		<samplecharacteristics>
																			<rate>
																				<timebase>25</timebase>
																				<ntsc>FALSE</ntsc>
																			</rate>
																			<width>1920</width>
																			<height>1080</height>
																			<anamorphic>TRUE</anamorphic>
																			<pixelaspectratio>NTSC-601</pixelaspectratio>
																			<fielddominance>none</fielddominance>
																		</samplecharacteristics>
																	</video>
																</media>
															</file>
															<filter>
																<effect>
																	<name>Distort</name>
																	<effectid>deformation</effectid>
																	<effectcategory>motion</effectcategory>
																	<effecttype>motion</effecttype>
																	<mediatype>video</mediatype>
																	<parameter authoringApp="PremierePro">
																		<parameterid>aspect</parameterid>
																		<name>Aspect</name>
																		<valuemin>-10000</valuemin>
																		<valuemax>10000</valuemax>
																		<value>-21.2121</value>
																	</parameter>
																</effect>
															</filter>
															<filter>
																<effect>
																	<name>Basic Motion</name>
																	<effectid>basic</effectid>
																	<effectcategory>motion</effectcategory>
																	<effecttype>motion</effecttype>
																	<mediatype>video</mediatype>
																	<parameter authoringApp="PremierePro">
																		<parameterid>scale</parameterid>
																		<name>Scale</name>
																		<value>121.212</value>
																	</parameter>
																</effect>
															</filter>
															<logginginfo>
																<description></description>
																<scene></scene>
																<shottake></shottake>
																<lognote></lognote>
																<good></good>
																<originalvideofilename></originalvideofilename>
																<originalaudiofilename></originalaudiofilename>
															</logginginfo>
															<colorinfo>
																<lut></lut>
																<lut1></lut1>
																<asc_sop></asc_sop>
																<asc_sat></asc_sat>
																<lut2></lut2>
															</colorinfo>
															<labels>
																<label2>Violet</label2>
															</labels>
														</clipitem>
														<clipitem id="clipitem-687">
															<masterclipid>masterclip-255</masterclipid>
															<name>23744_Milk poured into coffee _By_Omri_Ohana_Artlist_HD.mp4</name>
															<enabled>TRUE</enabled>
															<duration>300</duration>
															<rate>
																<timebase>30</timebase>
																<ntsc>TRUE</ntsc>
															</rate>
															<start>1544</start>
															<end>1727</end>
															<in>0</in>
															<out>183</out>
															<pproTicksIn>0</pproTicksIn>
															<pproTicksOut>1551047097600</pproTicksOut>
															<alphatype>none</alphatype>
															<pixelaspectratio>NTSC-601</pixelaspectratio>
															<anamorphic>TRUE</anamorphic>
															<file id="file-220">
																<name>23744_Milk poured into coffee _By_Omri_Ohana_Artlist_HD.mp4</name>
																<pathurl>file://localhost/Volumes/ATM%201/EYE%20CANDY/8%3a14%3a23/3_Raw%20Files/Artlist%20-%20Espresso%20Machine/23744_Milk%20poured%20into%20coffee%20_By_Omri_Ohana_Artlist_HD.mp4</pathurl>
																<rate>
																	<timebase>25</timebase>
																	<ntsc>FALSE</ntsc>
																</rate>
																<duration>251</duration>
																<timecode>
																	<rate>
																		<timebase>25</timebase>
																		<ntsc>FALSE</ntsc>
																	</rate>
																	<string>12:49:11:12</string>
																	<frame>1153787</frame>
																	<displayformat>NDF</displayformat>
																</timecode>
																<media>
																	<video>
																		<samplecharacteristics>
																			<rate>
																				<timebase>25</timebase>
																				<ntsc>FALSE</ntsc>
																			</rate>
																			<width>1920</width>
																			<height>1080</height>
																			<anamorphic>TRUE</anamorphic>
																			<pixelaspectratio>NTSC-601</pixelaspectratio>
																			<fielddominance>none</fielddominance>
																		</samplecharacteristics>
																	</video>
																</media>
															</file>
															<filter>
																<effect>
																	<name>Distort</name>
																	<effectid>deformation</effectid>
																	<effectcategory>motion</effectcategory>
																	<effecttype>motion</effecttype>
																	<mediatype>video</mediatype>
																	<parameter authoringApp="PremierePro">
																		<parameterid>aspect</parameterid>
																		<name>Aspect</name>
																		<valuemin>-10000</valuemin>
																		<valuemax>10000</valuemax>
																		<value>-21.2121</value>
																	</parameter>
																</effect>
															</filter>
															<filter>
																<effect>
																	<name>Basic Motion</name>
																	<effectid>basic</effectid>
																	<effectcategory>motion</effectcategory>
																	<effecttype>motion</effecttype>
																	<mediatype>video</mediatype>
																	<parameter authoringApp="PremierePro">
																		<parameterid>scale</parameterid>
																		<name>Scale</name>
																		<value>121.212</value>
																	</parameter>
																</effect>
															</filter>
															<logginginfo>
																<description></description>
																<scene></scene>
																<shottake></shottake>
																<lognote></lognote>
																<good></good>
																<originalvideofilename></originalvideofilename>
																<originalaudiofilename></originalaudiofilename>
															</logginginfo>
															<colorinfo>
																<lut></lut>
																<lut1></lut1>
																<asc_sop></asc_sop>
																<asc_sat></asc_sat>
																<lut2></lut2>
															</colorinfo>
															<labels>
																<label2>Violet</label2>
															</labels>
														</clipitem>
														<clipitem id="clipitem-688">
															<masterclipid>masterclip-256</masterclipid>
															<name>23753_Hot milk poured into cup of coffee_By_Omri_Ohana_Artlist_HD.mp4</name>
															<enabled>TRUE</enabled>
															<duration>158</duration>
															<rate>
																<timebase>30</timebase>
																<ntsc>TRUE</ntsc>
															</rate>
															<start>1727</start>
															<end>1867</end>
															<in>0</in>
															<out>140</out>
															<pproTicksIn>0</pproTicksIn>
															<pproTicksOut>1186593408000</pproTicksOut>
															<alphatype>none</alphatype>
															<pixelaspectratio>NTSC-601</pixelaspectratio>
															<anamorphic>TRUE</anamorphic>
															<file id="file-221">
																<name>23753_Hot milk poured into cup of coffee_By_Omri_Ohana_Artlist_HD.mp4</name>
																<pathurl>file://localhost/Volumes/ATM%201/EYE%20CANDY/8%3a14%3a23/3_Raw%20Files/Artlist%20-%20Espresso%20Machine/23753_Hot%20milk%20poured%20into%20cup%20of%20coffee_By_Omri_Ohana_Artlist_HD.mp4</pathurl>
																<rate>
																	<timebase>25</timebase>
																	<ntsc>FALSE</ntsc>
																</rate>
																<duration>132</duration>
																<timecode>
																	<rate>
																		<timebase>25</timebase>
																		<ntsc>FALSE</ntsc>
																	</rate>
																	<string>13:53:55:05</string>
																	<frame>1250880</frame>
																	<displayformat>NDF</displayformat>
																</timecode>
																<media>
																	<video>
																		<samplecharacteristics>
																			<rate>
																				<timebase>25</timebase>
																				<ntsc>FALSE</ntsc>
																			</rate>
																			<width>1920</width>
																			<height>1080</height>
																			<anamorphic>TRUE</anamorphic>
																			<pixelaspectratio>NTSC-601</pixelaspectratio>
																			<fielddominance>none</fielddominance>
																		</samplecharacteristics>
																	</video>
																</media>
															</file>
															<filter>
																<effect>
																	<name>Distort</name>
																	<effectid>deformation</effectid>
																	<effectcategory>motion</effectcategory>
																	<effecttype>motion</effecttype>
																	<mediatype>video</mediatype>
																	<parameter authoringApp="PremierePro">
																		<parameterid>aspect</parameterid>
																		<name>Aspect</name>
																		<valuemin>-10000</valuemin>
																		<valuemax>10000</valuemax>
																		<value>-21.2121</value>
																	</parameter>
																</effect>
															</filter>
															<filter>
																<effect>
																	<name>Basic Motion</name>
																	<effectid>basic</effectid>
																	<effectcategory>motion</effectcategory>
																	<effecttype>motion</effecttype>
																	<mediatype>video</mediatype>
																	<parameter authoringApp="PremierePro">
																		<parameterid>scale</parameterid>
																		<name>Scale</name>
																		<value>121.212</value>
																	</parameter>
																</effect>
															</filter>
															<logginginfo>
																<description></description>
																<scene></scene>
																<shottake></shottake>
																<lognote></lognote>
																<good></good>
																<originalvideofilename></originalvideofilename>
																<originalaudiofilename></originalaudiofilename>
															</logginginfo>
															<colorinfo>
																<lut></lut>
																<lut1></lut1>
																<asc_sop></asc_sop>
																<asc_sat></asc_sat>
																<lut2></lut2>
															</colorinfo>
															<labels>
																<label2>Violet</label2>
															</labels>
														</clipitem>
														<clipitem id="clipitem-689">
															<masterclipid>masterclip-257</masterclipid>
															<name>23747_Barista creates coffee art _By_Omri_Ohana_Artlist_HD.mp4</name>
															<enabled>TRUE</enabled>
															<duration>942</duration>
															<rate>
																<timebase>30</timebase>
																<ntsc>TRUE</ntsc>
															</rate>
															<start>1867</start>
															<end>2069</end>
															<in>58</in>
															<out>260</out>
															<pproTicksIn>491588697600</pproTicksIn>
															<pproTicksOut>2203673472000</pproTicksOut>
															<alphatype>none</alphatype>
															<pixelaspectratio>NTSC-601</pixelaspectratio>
															<anamorphic>TRUE</anamorphic>
															<file id="file-222">
																<name>23747_Barista creates coffee art _By_Omri_Ohana_Artlist_HD.mp4</name>
																<pathurl>file://localhost/Volumes/ATM%201/EYE%20CANDY/8%3a14%3a23/3_Raw%20Files/Artlist%20-%20Espresso%20Machine/23747_Barista%20creates%20coffee%20art%20_By_Omri_Ohana_Artlist_HD.mp4</pathurl>
																<rate>
																	<timebase>25</timebase>
																	<ntsc>FALSE</ntsc>
																</rate>
																<duration>786</duration>
																<timecode>
																	<rate>
																		<timebase>25</timebase>
																		<ntsc>FALSE</ntsc>
																	</rate>
																	<string>13:43:47:18</string>
																	<frame>1235693</frame>
																	<displayformat>NDF</displayformat>
																</timecode>
																<media>
																	<video>
																		<samplecharacteristics>
																			<rate>
																				<timebase>25</timebase>
																				<ntsc>FALSE</ntsc>
																			</rate>
																			<width>1920</width>
																			<height>1080</height>
																			<anamorphic>TRUE</anamorphic>
																			<pixelaspectratio>NTSC-601</pixelaspectratio>
																			<fielddominance>none</fielddominance>
																		</samplecharacteristics>
																	</video>
																</media>
															</file>
															<filter>
																<effect>
																	<name>Distort</name>
																	<effectid>deformation</effectid>
																	<effectcategory>motion</effectcategory>
																	<effecttype>motion</effecttype>
																	<mediatype>video</mediatype>
																	<parameter authoringApp="PremierePro">
																		<parameterid>aspect</parameterid>
																		<name>Aspect</name>
																		<valuemin>-10000</valuemin>
																		<valuemax>10000</valuemax>
																		<value>-21.2121</value>
																	</parameter>
																</effect>
															</filter>
															<filter>
																<effect>
																	<name>Basic Motion</name>
																	<effectid>basic</effectid>
																	<effectcategory>motion</effectcategory>
																	<effecttype>motion</effecttype>
																	<mediatype>video</mediatype>
																	<parameter authoringApp="PremierePro">
																		<parameterid>scale</parameterid>
																		<name>Scale</name>
																		<value>121.212</value>
																	</parameter>
																</effect>
															</filter>
															<logginginfo>
																<description></description>
																<scene></scene>
																<shottake></shottake>
																<lognote></lognote>
																<good></good>
																<originalvideofilename></originalvideofilename>
																<originalaudiofilename></originalaudiofilename>
															</logginginfo>
															<colorinfo>
																<lut></lut>
																<lut1></lut1>
																<asc_sop></asc_sop>
																<asc_sat></asc_sat>
																<lut2></lut2>
															</colorinfo>
															<labels>
																<label2>Violet</label2>
															</labels>
														</clipitem>
														<clipitem id="clipitem-690">
															<masterclipid>masterclip-257</masterclipid>
															<name>23747_Barista creates coffee art _By_Omri_Ohana_Artlist_HD.mp4</name>
															<enabled>TRUE</enabled>
															<duration>942</duration>
															<rate>
																<timebase>30</timebase>
																<ntsc>TRUE</ntsc>
															</rate>
															<start>2069</start>
															<end>2250</end>
															<in>725</in>
															<out>906</out>
															<pproTicksIn>6144858720000</pproTicksIn>
															<pproTicksOut>7678954483200</pproTicksOut>
															<alphatype>none</alphatype>
															<file id="file-222"/>
															<filter>
																<effect>
																	<name>Distort</name>
																	<effectid>deformation</effectid>
																	<effectcategory>motion</effectcategory>
																	<effecttype>motion</effecttype>
																	<mediatype>video</mediatype>
																	<parameter authoringApp="PremierePro">
																		<parameterid>aspect</parameterid>
																		<name>Aspect</name>
																		<valuemin>-10000</valuemin>
																		<valuemax>10000</valuemax>
																		<value>-21.2121</value>
																	</parameter>
																</effect>
															</filter>
															<filter>
																<effect>
																	<name>Basic Motion</name>
																	<effectid>basic</effectid>
																	<effectcategory>motion</effectcategory>
																	<effecttype>motion</effecttype>
																	<mediatype>video</mediatype>
																	<parameter authoringApp="PremierePro">
																		<parameterid>scale</parameterid>
																		<name>Scale</name>
																		<value>121.212</value>
																	</parameter>
																</effect>
															</filter>
															<logginginfo>
																<description></description>
																<scene></scene>
																<shottake></shottake>
																<lognote></lognote>
																<good></good>
																<originalvideofilename></originalvideofilename>
																<originalaudiofilename></originalaudiofilename>
															</logginginfo>
															<colorinfo>
																<lut></lut>
																<lut1></lut1>
																<asc_sop></asc_sop>
																<asc_sat></asc_sat>
																<lut2></lut2>
															</colorinfo>
															<labels>
																<label2>Violet</label2>
															</labels>
														</clipitem>
														<clipitem id="clipitem-691">
															<masterclipid>masterclip-258</masterclipid>
															<name>23750_Cup of coffee on surface with scattered coffee beans _By_Omri_Ohana_Artlist_HD.mp4</name>
															<enabled>TRUE</enabled>
															<duration>146</duration>
															<rate>
																<timebase>30</timebase>
																<ntsc>TRUE</ntsc>
															</rate>
															<start>2250</start>
															<end>2396</end>
															<in>0</in>
															<out>146</out>
															<pproTicksIn>0</pproTicksIn>
															<pproTicksOut>1237447411200</pproTicksOut>
															<alphatype>none</alphatype>
															<pixelaspectratio>NTSC-601</pixelaspectratio>
															<anamorphic>TRUE</anamorphic>
															<file id="file-223">
																<name>23750_Cup of coffee on surface with scattered coffee beans _By_Omri_Ohana_Artlist_HD.mp4</name>
																<pathurl>file://localhost/Volumes/ATM%201/EYE%20CANDY/8%3a14%3a23/3_Raw%20Files/Artlist%20-%20Espresso%20Machine/23750_Cup%20of%20coffee%20on%20surface%20with%20scattered%20coffee%20beans%20_By_Omri_Ohana_Artlist_HD.mp4</pathurl>
																<rate>
																	<timebase>25</timebase>
																	<ntsc>FALSE</ntsc>
																</rate>
																<duration>122</duration>
																<timecode>
																	<rate>
																		<timebase>25</timebase>
																		<ntsc>FALSE</ntsc>
																	</rate>
																	<string>13:44:37:14</string>
																	<frame>1236939</frame>
																	<displayformat>NDF</displayformat>
																</timecode>
																<media>
																	<video>
																		<samplecharacteristics>
																			<rate>
																				<timebase>25</timebase>
																				<ntsc>FALSE</ntsc>
																			</rate>
																			<width>1920</width>
																			<height>1080</height>
																			<anamorphic>TRUE</anamorphic>
																			<pixelaspectratio>NTSC-601</pixelaspectratio>
																			<fielddominance>none</fielddominance>
																		</samplecharacteristics>
																	</video>
																</media>
															</file>
															<filter>
																<effect>
																	<name>Distort</name>
																	<effectid>deformation</effectid>
																	<effectcategory>motion</effectcategory>
																	<effecttype>motion</effecttype>
																	<mediatype>video</mediatype>
																	<parameter authoringApp="PremierePro">
																		<parameterid>aspect</parameterid>
																		<name>Aspect</name>
																		<valuemin>-10000</valuemin>
																		<valuemax>10000</valuemax>
																		<value>-21.2121</value>
																	</parameter>
																</effect>
															</filter>
															<filter>
																<effect>
																	<name>Basic Motion</name>
																	<effectid>basic</effectid>
																	<effectcategory>motion</effectcategory>
																	<effecttype>motion</effecttype>
																	<mediatype>video</mediatype>
																	<parameter authoringApp="PremierePro">
																		<parameterid>scale</parameterid>
																		<name>Scale</name>
																		<value>121.212</value>
																	</parameter>
																</effect>
															</filter>
															<logginginfo>
																<description></description>
																<scene></scene>
																<shottake></shottake>
																<lognote></lognote>
																<good></good>
																<originalvideofilename></originalvideofilename>
																<originalaudiofilename></originalaudiofilename>
															</logginginfo>
															<colorinfo>
																<lut></lut>
																<lut1></lut1>
																<asc_sop></asc_sop>
																<asc_sat></asc_sat>
																<lut2></lut2>
															</colorinfo>
															<labels>
																<label2>Violet</label2>
															</labels>
														</clipitem>
														<enabled>TRUE</enabled>
														<locked>FALSE</locked>
													</track>
													<track TL.SQTrackShy="0" TL.SQTrackExpandedHeight="25" TL.SQTrackExpanded="0" MZ.TrackTargeted="0">
														<enabled>TRUE</enabled>
														<locked>FALSE</locked>
													</track>
													<track TL.SQTrackShy="0" TL.SQTrackExpandedHeight="25" TL.SQTrackExpanded="0" MZ.TrackTargeted="0">
														<enabled>TRUE</enabled>
														<locked>FALSE</locked>
													</track>
													<track TL.SQTrackShy="0" TL.SQTrackExpandedHeight="25" TL.SQTrackExpanded="0" MZ.TrackTargeted="0">
														<enabled>TRUE</enabled>
														<locked>FALSE</locked>
													</track>
													<track TL.SQTrackShy="0" TL.SQTrackExpandedHeight="25" TL.SQTrackExpanded="0" MZ.TrackTargeted="0">
														<enabled>TRUE</enabled>
														<locked>FALSE</locked>
													</track>
													<track TL.SQTrackShy="0" TL.SQTrackExpandedHeight="25" TL.SQTrackExpanded="0" MZ.TrackTargeted="0">
														<enabled>TRUE</enabled>
														<locked>FALSE</locked>
													</track>
													<track TL.SQTrackShy="0" TL.SQTrackExpandedHeight="25" TL.SQTrackExpanded="0" MZ.TrackTargeted="0">
														<enabled>TRUE</enabled>
														<locked>FALSE</locked>
													</track>
													<track TL.SQTrackShy="0" TL.SQTrackExpandedHeight="25" TL.SQTrackExpanded="0" MZ.TrackTargeted="0">
														<enabled>TRUE</enabled>
														<locked>FALSE</locked>
													</track>
													<track TL.SQTrackShy="0" TL.SQTrackExpandedHeight="25" TL.SQTrackExpanded="0" MZ.TrackTargeted="0">
														<enabled>TRUE</enabled>
														<locked>FALSE</locked>
													</track>
													<track TL.SQTrackShy="0" TL.SQTrackExpandedHeight="25" TL.SQTrackExpanded="0" MZ.TrackTargeted="0">
														<enabled>TRUE</enabled>
														<locked>FALSE</locked>
													</track>
												</video>
												<audio>
													<numOutputChannels>2</numOutputChannels>
													<format>
														<samplecharacteristics>
															<depth>16</depth>
															<samplerate>48000</samplerate>
														</samplecharacteristics>
													</format>
													<outputs>
														<group>
															<index>1</index>
															<numchannels>1</numchannels>
															<downmix>0</downmix>
															<channel>
																<index>1</index>
															</channel>
														</group>
														<group>
															<index>2</index>
															<numchannels>1</numchannels>
															<downmix>0</downmix>
															<channel>
																<index>2</index>
															</channel>
														</group>
													</outputs>
													<track TL.SQTrackAudioKeyframeStyle="0" TL.SQTrackShy="0" TL.SQTrackExpandedHeight="25" TL.SQTrackExpanded="0" MZ.TrackTargeted="1" PannerCurrentValue="0.5" PannerIsInverted="true" PannerStartKeyframe="-91445760000000000,0.5,0,0,0,0,0,0" PannerName="Balance" currentExplodedTrackIndex="0" totalExplodedTrackCount="2" premiereTrackType="Stereo">
														<clipitem id="clipitem-692" premiereChannelType="stereo">
															<masterclipid>masterclip-259</masterclipid>
															<name>ES_Fantasy Fragments - Ryan James Carr.mp3</name>
															<enabled>TRUE</enabled>
															<duration>4643</duration>
															<rate>
																<timebase>30</timebase>
																<ntsc>TRUE</ntsc>
															</rate>
															<start>0</start>
															<end>2396</end>
															<in>0</in>
															<out>2396</out>
															<pproTicksIn>0</pproTicksIn>
															<pproTicksOut>20307698611200</pproTicksOut>
															<file id="file-224">
																<name>ES_Fantasy Fragments - Ryan James Carr.mp3</name>
																<pathurl>file://localhost/Volumes/ATM%201/EYE%20CANDY/8%3a14%3a23/5_Assets/Music/ES_Fantasy%20Fragments%20-%20Ryan%20James%20Carr.mp3</pathurl>
																<rate>
																	<timebase>30</timebase>
																	<ntsc>TRUE</ntsc>
																</rate>
																<duration>4643</duration>
																<timecode>
																	<rate>
																		<timebase>30</timebase>
																		<ntsc>TRUE</ntsc>
																	</rate>
																	<string>00;00;00;00</string>
																	<frame>0</frame>
																	<displayformat>DF</displayformat>
																</timecode>
																<media>
																	<audio>
																		<samplecharacteristics>
																			<depth>16</depth>
																			<samplerate>48000</samplerate>
																		</samplecharacteristics>
																		<channelcount>2</channelcount>
																	</audio>
																</media>
															</file>
															<sourcetrack>
																<mediatype>audio</mediatype>
																<trackindex>1</trackindex>
															</sourcetrack>
															<link>
																<linkclipref>clipitem-692</linkclipref>
																<mediatype>audio</mediatype>
																<trackindex>1</trackindex>
																<clipindex>1</clipindex>
																<groupindex>1</groupindex>
															</link>
															<link>
																<linkclipref>clipitem-693</linkclipref>
																<mediatype>audio</mediatype>
																<trackindex>2</trackindex>
																<clipindex>1</clipindex>
																<groupindex>1</groupindex>
															</link>
															<logginginfo>
																<description></description>
																<scene></scene>
																<shottake></shottake>
																<lognote></lognote>
																<good></good>
																<originalvideofilename></originalvideofilename>
																<originalaudiofilename></originalaudiofilename>
															</logginginfo>
															<colorinfo>
																<lut></lut>
																<lut1></lut1>
																<asc_sop></asc_sop>
																<asc_sat></asc_sat>
																<lut2></lut2>
															</colorinfo>
															<labels>
																<label2>Caribbean</label2>
															</labels>
														</clipitem>
														<enabled>TRUE</enabled>
														<locked>FALSE</locked>
														<filter>
															<effect>
																<name>Audio Levels</name>
																<effectid>audiolevels</effectid>
																<effectcategory>audiolevels</effectcategory>
																<effecttype>audiolevels</effecttype>
																<mediatype>audio</mediatype>
																<parameter authoringApp="PremierePro">
																	<parameterid>level</parameterid>
																	<name>Level</name>
																	<valuemin>0</valuemin>
																	<valuemax>3.98109</valuemax>
																	<value>0.706272</value>
																</parameter>
															</effect>
														</filter>
														<outputchannelindex>1</outputchannelindex>
													</track>
													<track TL.SQTrackAudioKeyframeStyle="0" TL.SQTrackShy="0" TL.SQTrackExpandedHeight="25" TL.SQTrackExpanded="0" MZ.TrackTargeted="1" PannerCurrentValue="0.5" PannerIsInverted="true" PannerStartKeyframe="-91445760000000000,0.5,0,0,0,0,0,0" PannerName="Balance" currentExplodedTrackIndex="1" totalExplodedTrackCount="2" premiereTrackType="Stereo">
														<clipitem id="clipitem-693" premiereChannelType="stereo">
															<masterclipid>masterclip-259</masterclipid>
															<name>ES_Fantasy Fragments - Ryan James Carr.mp3</name>
															<enabled>TRUE</enabled>
															<duration>4643</duration>
															<rate>
																<timebase>30</timebase>
																<ntsc>TRUE</ntsc>
															</rate>
															<start>0</start>
															<end>2396</end>
															<in>0</in>
															<out>2396</out>
															<pproTicksIn>0</pproTicksIn>
															<pproTicksOut>20307698611200</pproTicksOut>
															<file id="file-224"/>
															<sourcetrack>
																<mediatype>audio</mediatype>
																<trackindex>2</trackindex>
															</sourcetrack>
															<link>
																<linkclipref>clipitem-692</linkclipref>
																<mediatype>audio</mediatype>
																<trackindex>1</trackindex>
																<clipindex>1</clipindex>
																<groupindex>1</groupindex>
															</link>
															<link>
																<linkclipref>clipitem-693</linkclipref>
																<mediatype>audio</mediatype>
																<trackindex>2</trackindex>
																<clipindex>1</clipindex>
																<groupindex>1</groupindex>
															</link>
															<logginginfo>
																<description></description>
																<scene></scene>
																<shottake></shottake>
																<lognote></lognote>
																<good></good>
																<originalvideofilename></originalvideofilename>
																<originalaudiofilename></originalaudiofilename>
															</logginginfo>
															<colorinfo>
																<lut></lut>
																<lut1></lut1>
																<asc_sop></asc_sop>
																<asc_sat></asc_sat>
																<lut2></lut2>
															</colorinfo>
															<labels>
																<label2>Caribbean</label2>
															</labels>
														</clipitem>
														<enabled>TRUE</enabled>
														<locked>FALSE</locked>
														<filter>
															<effect>
																<name>Audio Levels</name>
																<effectid>audiolevels</effectid>
																<effectcategory>audiolevels</effectcategory>
																<effecttype>audiolevels</effecttype>
																<mediatype>audio</mediatype>
																<parameter authoringApp="PremierePro">
																	<parameterid>level</parameterid>
																	<name>Level</name>
																	<valuemin>0</valuemin>
																	<valuemax>3.98109</valuemax>
																	<value>0.706272</value>
																</parameter>
															</effect>
														</filter>
														<outputchannelindex>2</outputchannelindex>
													</track>
													<track TL.SQTrackAudioKeyframeStyle="0" TL.SQTrackShy="0" TL.SQTrackExpandedHeight="25" TL.SQTrackExpanded="0" MZ.TrackTargeted="0" PannerCurrentValue="0.5" PannerIsInverted="true" PannerStartKeyframe="-91445760000000000,0.5,0,0,0,0,0,0" PannerName="Balance" currentExplodedTrackIndex="0" totalExplodedTrackCount="2" premiereTrackType="Stereo">
														<enabled>TRUE</enabled>
														<locked>FALSE</locked>
														<outputchannelindex>1</outputchannelindex>
													</track>
													<track TL.SQTrackAudioKeyframeStyle="0" TL.SQTrackShy="0" TL.SQTrackExpandedHeight="25" TL.SQTrackExpanded="0" MZ.TrackTargeted="0" PannerCurrentValue="0.5" PannerIsInverted="true" PannerStartKeyframe="-91445760000000000,0.5,0,0,0,0,0,0" PannerName="Balance" currentExplodedTrackIndex="1" totalExplodedTrackCount="2" premiereTrackType="Stereo">
														<enabled>TRUE</enabled>
														<locked>FALSE</locked>
														<outputchannelindex>2</outputchannelindex>
													</track>
													<track TL.SQTrackAudioKeyframeStyle="0" TL.SQTrackShy="0" TL.SQTrackExpandedHeight="25" TL.SQTrackExpanded="0" MZ.TrackTargeted="0" PannerCurrentValue="0.5" PannerIsInverted="true" PannerStartKeyframe="-91445760000000000,0.5,0,0,0,0,0,0" PannerName="Balance" currentExplodedTrackIndex="0" totalExplodedTrackCount="2" premiereTrackType="Stereo">
														<enabled>TRUE</enabled>
														<locked>FALSE</locked>
														<outputchannelindex>1</outputchannelindex>
													</track>
													<track TL.SQTrackAudioKeyframeStyle="0" TL.SQTrackShy="0" TL.SQTrackExpandedHeight="25" TL.SQTrackExpanded="0" MZ.TrackTargeted="0" PannerCurrentValue="0.5" PannerIsInverted="true" PannerStartKeyframe="-91445760000000000,0.5,0,0,0,0,0,0" PannerName="Balance" currentExplodedTrackIndex="1" totalExplodedTrackCount="2" premiereTrackType="Stereo">
														<enabled>TRUE</enabled>
														<locked>FALSE</locked>
														<outputchannelindex>2</outputchannelindex>
													</track>
													<track TL.SQTrackAudioKeyframeStyle="0" TL.SQTrackShy="0" TL.SQTrackExpandedHeight="25" TL.SQTrackExpanded="0" MZ.TrackTargeted="0" PannerCurrentValue="0.5" PannerIsInverted="true" PannerStartKeyframe="-91445760000000000,0.5,0,0,0,0,0,0" PannerName="Balance" currentExplodedTrackIndex="0" totalExplodedTrackCount="2" premiereTrackType="Stereo">
														<enabled>TRUE</enabled>
														<locked>FALSE</locked>
														<outputchannelindex>1</outputchannelindex>
													</track>
													<track TL.SQTrackAudioKeyframeStyle="0" TL.SQTrackShy="0" TL.SQTrackExpandedHeight="25" TL.SQTrackExpanded="0" MZ.TrackTargeted="0" PannerCurrentValue="0.5" PannerIsInverted="true" PannerStartKeyframe="-91445760000000000,0.5,0,0,0,0,0,0" PannerName="Balance" currentExplodedTrackIndex="1" totalExplodedTrackCount="2" premiereTrackType="Stereo">
														<enabled>TRUE</enabled>
														<locked>FALSE</locked>
														<outputchannelindex>2</outputchannelindex>
													</track>
													<track TL.SQTrackAudioKeyframeStyle="0" TL.SQTrackShy="0" TL.SQTrackExpandedHeight="25" TL.SQTrackExpanded="0" MZ.TrackTargeted="0" PannerCurrentValue="0.5" PannerIsInverted="true" PannerStartKeyframe="-91445760000000000,0.5,0,0,0,0,0,0" PannerName="Balance" currentExplodedTrackIndex="0" totalExplodedTrackCount="2" premiereTrackType="Stereo">
														<enabled>TRUE</enabled>
														<locked>FALSE</locked>
														<outputchannelindex>1</outputchannelindex>
													</track>
													<track TL.SQTrackAudioKeyframeStyle="0" TL.SQTrackShy="0" TL.SQTrackExpandedHeight="25" TL.SQTrackExpanded="0" MZ.TrackTargeted="0" PannerCurrentValue="0.5" PannerIsInverted="true" PannerStartKeyframe="-91445760000000000,0.5,0,0,0,0,0,0" PannerName="Balance" currentExplodedTrackIndex="1" totalExplodedTrackCount="2" premiereTrackType="Stereo">
														<enabled>TRUE</enabled>
														<locked>FALSE</locked>
														<outputchannelindex>2</outputchannelindex>
													</track>
													<track TL.SQTrackAudioKeyframeStyle="0" TL.SQTrackShy="0" TL.SQTrackExpandedHeight="25" TL.SQTrackExpanded="0" MZ.TrackTargeted="0" PannerCurrentValue="0.5" PannerIsInverted="true" PannerStartKeyframe="-91445760000000000,0.5,0,0,0,0,0,0" PannerName="Balance" currentExplodedTrackIndex="0" totalExplodedTrackCount="2" premiereTrackType="Stereo">
														<enabled>TRUE</enabled>
														<locked>FALSE</locked>
														<outputchannelindex>1</outputchannelindex>
													</track>
													<track TL.SQTrackAudioKeyframeStyle="0" TL.SQTrackShy="0" TL.SQTrackExpandedHeight="25" TL.SQTrackExpanded="0" MZ.TrackTargeted="0" PannerCurrentValue="0.5" PannerIsInverted="true" PannerStartKeyframe="-91445760000000000,0.5,0,0,0,0,0,0" PannerName="Balance" currentExplodedTrackIndex="1" totalExplodedTrackCount="2" premiereTrackType="Stereo">
														<enabled>TRUE</enabled>
														<locked>FALSE</locked>
														<outputchannelindex>2</outputchannelindex>
													</track>
													<track TL.SQTrackAudioKeyframeStyle="0" TL.SQTrackShy="0" TL.SQTrackExpandedHeight="25" TL.SQTrackExpanded="0" MZ.TrackTargeted="0" PannerCurrentValue="0.5" PannerIsInverted="true" PannerStartKeyframe="-91445760000000000,0.5,0,0,0,0,0,0" PannerName="Balance" currentExplodedTrackIndex="0" totalExplodedTrackCount="2" premiereTrackType="Stereo">
														<enabled>TRUE</enabled>
														<locked>FALSE</locked>
														<outputchannelindex>1</outputchannelindex>
													</track>
													<track TL.SQTrackAudioKeyframeStyle="0" TL.SQTrackShy="0" TL.SQTrackExpandedHeight="25" TL.SQTrackExpanded="0" MZ.TrackTargeted="0" PannerCurrentValue="0.5" PannerIsInverted="true" PannerStartKeyframe="-91445760000000000,0.5,0,0,0,0,0,0" PannerName="Balance" currentExplodedTrackIndex="1" totalExplodedTrackCount="2" premiereTrackType="Stereo">
														<enabled>TRUE</enabled>
														<locked>FALSE</locked>
														<outputchannelindex>2</outputchannelindex>
													</track>
													<track TL.SQTrackAudioKeyframeStyle="0" TL.SQTrackShy="0" TL.SQTrackExpandedHeight="25" TL.SQTrackExpanded="0" MZ.TrackTargeted="0" PannerCurrentValue="0.5" PannerIsInverted="true" PannerStartKeyframe="-91445760000000000,0.5,0,0,0,0,0,0" PannerName="Balance" currentExplodedTrackIndex="0" totalExplodedTrackCount="2" premiereTrackType="Stereo">
														<enabled>TRUE</enabled>
														<locked>FALSE</locked>
														<outputchannelindex>1</outputchannelindex>
													</track>
													<track TL.SQTrackAudioKeyframeStyle="0" TL.SQTrackShy="0" TL.SQTrackExpandedHeight="25" TL.SQTrackExpanded="0" MZ.TrackTargeted="0" PannerCurrentValue="0.5" PannerIsInverted="true" PannerStartKeyframe="-91445760000000000,0.5,0,0,0,0,0,0" PannerName="Balance" currentExplodedTrackIndex="1" totalExplodedTrackCount="2" premiereTrackType="Stereo">
														<enabled>TRUE</enabled>
														<locked>FALSE</locked>
														<outputchannelindex>2</outputchannelindex>
													</track>
													<track TL.SQTrackAudioKeyframeStyle="0" TL.SQTrackShy="0" TL.SQTrackExpandedHeight="25" TL.SQTrackExpanded="0" MZ.TrackTargeted="0" PannerCurrentValue="0.5" PannerIsInverted="true" PannerStartKeyframe="-91445760000000000,0.5,0,0,0,0,0,0" PannerName="Balance" currentExplodedTrackIndex="0" totalExplodedTrackCount="2" premiereTrackType="Stereo">
														<enabled>TRUE</enabled>
														<locked>FALSE</locked>
														<outputchannelindex>1</outputchannelindex>
													</track>
													<track TL.SQTrackAudioKeyframeStyle="0" TL.SQTrackShy="0" TL.SQTrackExpandedHeight="25" TL.SQTrackExpanded="0" MZ.TrackTargeted="0" PannerCurrentValue="0.5" PannerIsInverted="true" PannerStartKeyframe="-91445760000000000,0.5,0,0,0,0,0,0" PannerName="Balance" currentExplodedTrackIndex="1" totalExplodedTrackCount="2" premiereTrackType="Stereo">
														<enabled>TRUE</enabled>
														<locked>FALSE</locked>
														<outputchannelindex>2</outputchannelindex>
													</track>
													<track TL.SQTrackAudioKeyframeStyle="0" TL.SQTrackShy="0" TL.SQTrackExpandedHeight="25" TL.SQTrackExpanded="0" MZ.TrackTargeted="0" PannerCurrentValue="0.5" PannerIsInverted="true" PannerStartKeyframe="-91445760000000000,0.5,0,0,0,0,0,0" PannerName="Balance" currentExplodedTrackIndex="0" totalExplodedTrackCount="2" premiereTrackType="Stereo">
														<enabled>TRUE</enabled>
														<locked>FALSE</locked>
														<outputchannelindex>1</outputchannelindex>
													</track>
													<track TL.SQTrackAudioKeyframeStyle="0" TL.SQTrackShy="0" TL.SQTrackExpandedHeight="25" TL.SQTrackExpanded="0" MZ.TrackTargeted="0" PannerCurrentValue="0.5" PannerIsInverted="true" PannerStartKeyframe="-91445760000000000,0.5,0,0,0,0,0,0" PannerName="Balance" currentExplodedTrackIndex="1" totalExplodedTrackCount="2" premiereTrackType="Stereo">
														<enabled>TRUE</enabled>
														<locked>FALSE</locked>
														<outputchannelindex>2</outputchannelindex>
													</track>
												</audio>
											</media>
											<timecode>
												<rate>
													<timebase>30</timebase>
													<ntsc>TRUE</ntsc>
												</rate>
												<string>00;00;00;00</string>
												<frame>0</frame>
												<displayformat>DF</displayformat>
											</timecode>
											<logginginfo>
												<description></description>
												<scene></scene>
												<shottake></shottake>
												<lognote></lognote>
												<good></good>
												<originalvideofilename></originalvideofilename>
												<originalaudiofilename></originalaudiofilename>
											</logginginfo>
										</sequence>
										<link>
											<linkclipref>clipitem-677</linkclipref>
											<mediatype>video</mediatype>
											<trackindex>1</trackindex>
											<clipindex>1</clipindex>
										</link>
										<link>
											<linkclipref>clipitem-714</linkclipref>
											<mediatype>audio</mediatype>
											<trackindex>1</trackindex>
											<clipindex>1</clipindex>
											<groupindex>1</groupindex>
										</link>
										<link>
											<linkclipref>clipitem-716</linkclipref>
											<mediatype>audio</mediatype>
											<trackindex>2</trackindex>
											<clipindex>1</clipindex>
											<groupindex>1</groupindex>
										</link>
										<labels>
											<label2>Forest</label2>
										</labels>
									</clipitem>
									<clipitem id="clipitem-694">
										<masterclipid>masterclip-260</masterclipid>
										<name>Peanut Butter Me Up_1.5</name>
										<enabled>TRUE</enabled>
										<duration>5700</duration>
										<rate>
											<timebase>30</timebase>
											<ntsc>TRUE</ntsc>
										</rate>
										<start>2478</start>
										<end>5224</end>
										<in>0</in>
										<out>2746</out>
										<pproTicksIn>0</pproTicksIn>
										<pproTicksOut>23274182131200</pproTicksOut>
										<sequence id="sequence-50" TL.SQAudioVisibleBase="0" TL.SQVideoVisibleBase="0" TL.SQVisibleBaseTime="0" TL.SQAVDividerPosition="0.5" TL.SQHideShyTracks="0" TL.SQHeaderWidth="236" TL.SQDataTrackViewControlState="0" Monitor.ProgramZoomOut="23274182131200" Monitor.ProgramZoomIn="0" TL.SQTimePerPixel="0.10032103476997117" AM.TrackVScrollPosition="0" AM.TrackScrollPosition="0" MZ.EditLine="19468607558400" MZ.Sequence.PreviewFrameSizeHeight="1080" MZ.Sequence.PreviewFrameSizeWidth="1920" MZ.Sequence.AudioTimeDisplayFormat="200" MZ.Sequence.PreviewRenderingClassID="1061109567" MZ.Sequence.PreviewRenderingPresetCodec="1634755443" MZ.Sequence.PreviewRenderingPresetPath="EncoderPresets/SequencePreview/35d109db-457b-43c1-9452-9cb7be9f121c/QuickTime.epr" MZ.Sequence.PreviewUseMaxRenderQuality="false" MZ.Sequence.PreviewUseMaxBitDepth="false" MZ.Sequence.EditingModeGUID="35d109db-457b-43c1-9452-9cb7be9f121c" MZ.Sequence.VideoTimeDisplayFormat="102" MZ.WorkOutPoint="1262874412800" MZ.WorkInPoint="0">
											<duration>2746</duration>
											<rate>
												<timebase>30</timebase>
												<ntsc>TRUE</ntsc>
											</rate>
											<name>FND_Peanut Butter Me Up_1.5</name>
											<media>
												<video>
													<format>
														<samplecharacteristics>
															<rate>
																<timebase>30</timebase>
																<ntsc>TRUE</ntsc>
															</rate>
															<codec>
																<name>Apple ProRes 422</name>
																<appspecificdata>
																	<appname>Final Cut Pro</appname>
																	<appmanufacturer>Apple Inc.</appmanufacturer>
																	<appversion>7.0</appversion>
																	<data>
																		<qtcodec>
																			<codecname>Apple ProRes 422</codecname>
																			<codectypename>Apple ProRes 422</codectypename>
																			<codectypecode>apcn</codectypecode>
																			<codecvendorcode>appl</codecvendorcode>
																			<spatialquality>1024</spatialquality>
																			<temporalquality>0</temporalquality>
																			<keyframerate>0</keyframerate>
																			<datarate>0</datarate>
																		</qtcodec>
																	</data>
																</appspecificdata>
															</codec>
															<width>1920</width>
															<height>1080</height>
															<anamorphic>FALSE</anamorphic>
															<pixelaspectratio>square</pixelaspectratio>
															<fielddominance>none</fielddominance>
															<colordepth>24</colordepth>
														</samplecharacteristics>
													</format>
													<track TL.SQTrackShy="0" TL.SQTrackExpandedHeight="25" TL.SQTrackExpanded="0" MZ.TrackTargeted="1">
														<clipitem id="clipitem-695">
															<masterclipid>masterclip-261</masterclipid>
															<name>(infoods_specials)_CMyWl1FH_Ak_IG.mp4</name>
															<enabled>TRUE</enabled>
															<duration>895</duration>
															<rate>
																<timebase>30</timebase>
																<ntsc>TRUE</ntsc>
															</rate>
															<start>0</start>
															<end>726</end>
															<in>97</in>
															<out>823</out>
															<pproTicksIn>822139718400</pproTicksIn>
															<pproTicksOut>6975474105600</pproTicksOut>
															<alphatype>none</alphatype>
															<pixelaspectratio>square</pixelaspectratio>
															<anamorphic>FALSE</anamorphic>
															<file id="file-225">
																<name>(infoods_specials)_CMyWl1FH_Ak_IG.mp4</name>
																<pathurl>file://localhost/Volumes/ATM%201/EYE%20CANDY/8%3a14%3a23/3_Raw%20Files/peanut%20butter/(infoods_specials)_CMyWl1FH_Ak_IG.mp4</pathurl>
																<rate>
																	<timebase>30</timebase>
																	<ntsc>FALSE</ntsc>
																</rate>
																<duration>896</duration>
																<timecode>
																	<rate>
																		<timebase>30</timebase>
																		<ntsc>FALSE</ntsc>
																	</rate>
																	<string>00:00:00:00</string>
																	<frame>0</frame>
																	<displayformat>NDF</displayformat>
																</timecode>
																<media>
																	<video>
																		<samplecharacteristics>
																			<rate>
																				<timebase>30</timebase>
																				<ntsc>FALSE</ntsc>
																			</rate>
																			<width>720</width>
																			<height>1280</height>
																			<anamorphic>FALSE</anamorphic>
																			<pixelaspectratio>square</pixelaspectratio>
																			<fielddominance>none</fielddominance>
																		</samplecharacteristics>
																	</video>
																	<audio>
																		<samplecharacteristics>
																			<depth>16</depth>
																			<samplerate>44100</samplerate>
																		</samplecharacteristics>
																		<channelcount>1</channelcount>
																		<audiochannel>
																			<sourcechannel>1</sourcechannel>
																		</audiochannel>
																	</audio>
																</media>
															</file>
															<logginginfo>
																<description>IG: infoods_specials&#10;TT: infoodsspecials&#10;YT: Infoods Specials</description>
																<scene></scene>
																<shottake></shottake>
																<lognote></lognote>
																<good></good>
																<originalvideofilename></originalvideofilename>
																<originalaudiofilename></originalaudiofilename>
															</logginginfo>
															<colorinfo>
																<lut></lut>
																<lut1></lut1>
																<asc_sop></asc_sop>
																<asc_sat></asc_sat>
																<lut2></lut2>
															</colorinfo>
															<labels>
																<label2>Violet</label2>
															</labels>
														</clipitem>
														<clipitem id="clipitem-696">
															<masterclipid>masterclip-261</masterclipid>
															<name>(infoods_specials)_CMyWl1FH_Ak_IG.mp4</name>
															<enabled>TRUE</enabled>
															<duration>895</duration>
															<rate>
																<timebase>30</timebase>
																<ntsc>TRUE</ntsc>
															</rate>
															<start>726</start>
															<end>816</end>
															<in>0</in>
															<out>90</out>
															<pproTicksIn>0</pproTicksIn>
															<pproTicksOut>762810048000</pproTicksOut>
															<alphatype>none</alphatype>
															<file id="file-225"/>
															<logginginfo>
																<description>IG: infoods_specials&#10;TT: infoodsspecials&#10;YT: Infoods Specials</description>
																<scene></scene>
																<shottake></shottake>
																<lognote></lognote>
																<good></good>
																<originalvideofilename></originalvideofilename>
																<originalaudiofilename></originalaudiofilename>
															</logginginfo>
															<colorinfo>
																<lut></lut>
																<lut1></lut1>
																<asc_sop></asc_sop>
																<asc_sat></asc_sat>
																<lut2></lut2>
															</colorinfo>
															<labels>
																<label2>Violet</label2>
															</labels>
														</clipitem>
														<clipitem id="clipitem-697">
															<masterclipid>masterclip-262</masterclipid>
															<name>(thethriftwitch)_7112203504516681002_TT.mp4</name>
															<enabled>TRUE</enabled>
															<duration>1140</duration>
															<rate>
																<timebase>30</timebase>
																<ntsc>TRUE</ntsc>
															</rate>
															<start>816</start>
															<end>1046</end>
															<in>0</in>
															<out>230</out>
															<pproTicksIn>0</pproTicksIn>
															<pproTicksOut>1949403456000</pproTicksOut>
															<alphatype>none</alphatype>
															<pixelaspectratio>square</pixelaspectratio>
															<anamorphic>FALSE</anamorphic>
															<file id="file-226">
																<name>(thethriftwitch)_7112203504516681002_TT.mp4</name>
																<pathurl>file://localhost/Volumes/ATM%201/EYE%20CANDY/8%3a14%3a23/3_Raw%20Files/peanut%20butter/(thethriftwitch)_7112203504516681002_TT.mp4</pathurl>
																<rate>
																	<timebase>60</timebase>
																	<ntsc>FALSE</ntsc>
																</rate>
																<duration>2284</duration>
																<timecode>
																	<rate>
																		<timebase>60</timebase>
																		<ntsc>FALSE</ntsc>
																	</rate>
																	<string>00:00:00:00</string>
																	<frame>0</frame>
																	<displayformat>NDF</displayformat>
																</timecode>
																<media>
																	<video>
																		<samplecharacteristics>
																			<rate>
																				<timebase>60</timebase>
																				<ntsc>FALSE</ntsc>
																			</rate>
																			<width>576</width>
																			<height>1024</height>
																			<anamorphic>FALSE</anamorphic>
																			<pixelaspectratio>square</pixelaspectratio>
																			<fielddominance>none</fielddominance>
																		</samplecharacteristics>
																	</video>
																	<audio>
																		<samplecharacteristics>
																			<depth>16</depth>
																			<samplerate>44100</samplerate>
																		</samplecharacteristics>
																		<channelcount>2</channelcount>
																	</audio>
																</media>
															</file>
															<logginginfo>
																<description></description>
																<scene></scene>
																<shottake></shottake>
																<lognote></lognote>
																<good></good>
																<originalvideofilename></originalvideofilename>
																<originalaudiofilename></originalaudiofilename>
															</logginginfo>
															<colorinfo>
																<lut></lut>
																<lut1></lut1>
																<asc_sop></asc_sop>
																<asc_sat></asc_sat>
																<lut2></lut2>
															</colorinfo>
															<labels>
																<label2>Violet</label2>
															</labels>
														</clipitem>
														<clipitem id="clipitem-698">
															<masterclipid>masterclip-262</masterclipid>
															<name>(thethriftwitch)_7112203504516681002_TT.mp4</name>
															<enabled>TRUE</enabled>
															<duration>1140</duration>
															<rate>
																<timebase>30</timebase>
																<ntsc>TRUE</ntsc>
															</rate>
															<start>1046</start>
															<end>1434</end>
															<in>401</in>
															<out>789</out>
															<pproTicksIn>3398742547200</pproTicksIn>
															<pproTicksOut>6687301420800</pproTicksOut>
															<alphatype>none</alphatype>
															<file id="file-226"/>
															<logginginfo>
																<description></description>
																<scene></scene>
																<shottake></shottake>
																<lognote></lognote>
																<good></good>
																<originalvideofilename></originalvideofilename>
																<originalaudiofilename></originalaudiofilename>
															</logginginfo>
															<colorinfo>
																<lut></lut>
																<lut1></lut1>
																<asc_sop></asc_sop>
																<asc_sat></asc_sat>
																<lut2></lut2>
															</colorinfo>
															<labels>
																<label2>Violet</label2>
															</labels>
														</clipitem>
														<clipitem id="clipitem-699">
															<masterclipid>masterclip-262</masterclipid>
															<name>(thethriftwitch)_7112203504516681002_TT.mp4</name>
															<enabled>TRUE</enabled>
															<duration>1140</duration>
															<rate>
																<timebase>30</timebase>
																<ntsc>TRUE</ntsc>
															</rate>
															<start>1434</start>
															<end>1597</end>
															<in>878</in>
															<out>1041</out>
															<pproTicksIn>7441635801600</pproTicksIn>
															<pproTicksOut>8823169555200</pproTicksOut>
															<alphatype>none</alphatype>
															<file id="file-226"/>
															<logginginfo>
																<description></description>
																<scene></scene>
																<shottake></shottake>
																<lognote></lognote>
																<good></good>
																<originalvideofilename></originalvideofilename>
																<originalaudiofilename></originalaudiofilename>
															</logginginfo>
															<colorinfo>
																<lut></lut>
																<lut1></lut1>
																<asc_sop></asc_sop>
																<asc_sat></asc_sat>
																<lut2></lut2>
															</colorinfo>
															<labels>
																<label2>Violet</label2>
															</labels>
														</clipitem>
														<clipitem id="clipitem-700">
															<masterclipid>masterclip-263</masterclipid>
															<name>(The Custard Company)__ CALLING ALL REESE_S LOVERS __5AjTjQcXAPo_YT.mp4</name>
															<enabled>TRUE</enabled>
															<duration>623</duration>
															<rate>
																<timebase>30</timebase>
																<ntsc>TRUE</ntsc>
															</rate>
															<start>1597</start>
															<end>2220</end>
															<in>0</in>
															<out>623</out>
															<pproTicksIn>0</pproTicksIn>
															<pproTicksOut>5280340665600</pproTicksOut>
															<alphatype>none</alphatype>
															<pixelaspectratio>square</pixelaspectratio>
															<anamorphic>FALSE</anamorphic>
															<file id="file-227">
																<name>(The Custard Company)__ CALLING ALL REESE_S LOVERS __5AjTjQcXAPo_YT.mp4</name>
																<pathurl>file://localhost/Volumes/ATM%201/EYE%20CANDY/8%3a14%3a23/3_Raw%20Files/peanut%20butter/(The%20Custard%20Company)__%20CALLING%20ALL%20REESE_S%20LOVERS%20__5AjTjQcXAPo_YT.mp4</pathurl>
																<rate>
																	<timebase>30</timebase>
																	<ntsc>FALSE</ntsc>
																</rate>
																<duration>624</duration>
																<timecode>
																	<rate>
																		<timebase>30</timebase>
																		<ntsc>FALSE</ntsc>
																	</rate>
																	<string>00:00:00:00</string>
																	<frame>0</frame>
																	<displayformat>NDF</displayformat>
																</timecode>
																<media>
																	<video>
																		<samplecharacteristics>
																			<rate>
																				<timebase>30</timebase>
																				<ntsc>FALSE</ntsc>
																			</rate>
																			<width>406</width>
																			<height>720</height>
																			<anamorphic>FALSE</anamorphic>
																			<pixelaspectratio>square</pixelaspectratio>
																			<fielddominance>none</fielddominance>
																		</samplecharacteristics>
																	</video>
																	<audio>
																		<samplecharacteristics>
																			<depth>16</depth>
																			<samplerate>44100</samplerate>
																		</samplecharacteristics>
																		<channelcount>2</channelcount>
																	</audio>
																</media>
															</file>
															<logginginfo>
																<description></description>
																<scene></scene>
																<shottake></shottake>
																<lognote></lognote>
																<good></good>
																<originalvideofilename></originalvideofilename>
																<originalaudiofilename></originalaudiofilename>
															</logginginfo>
															<colorinfo>
																<lut></lut>
																<lut1></lut1>
																<asc_sop></asc_sop>
																<asc_sat></asc_sat>
																<lut2></lut2>
															</colorinfo>
															<labels>
																<label2>Violet</label2>
															</labels>
														</clipitem>
														<clipitem id="clipitem-701">
															<masterclipid>masterclip-264</masterclipid>
															<name>(aquickspoonful)_CsFPuVTrA8x_IG.mp4</name>
															<enabled>TRUE</enabled>
															<duration>526</duration>
															<rate>
																<timebase>30</timebase>
																<ntsc>TRUE</ntsc>
															</rate>
															<start>2220</start>
															<end>2746</end>
															<in>0</in>
															<out>526</out>
															<pproTicksIn>0</pproTicksIn>
															<pproTicksOut>4458200947200</pproTicksOut>
															<alphatype>none</alphatype>
															<pixelaspectratio>square</pixelaspectratio>
															<anamorphic>FALSE</anamorphic>
															<file id="file-228">
																<name>(aquickspoonful)_CsFPuVTrA8x_IG.mp4</name>
																<pathurl>file://localhost/Volumes/ATM%201/EYE%20CANDY/8%3a14%3a23/3_Raw%20Files/peanut%20butter/(aquickspoonful)_CsFPuVTrA8x_IG.mp4</pathurl>
																<rate>
																	<timebase>30</timebase>
																	<ntsc>FALSE</ntsc>
																</rate>
																<duration>527</duration>
																<timecode>
																	<rate>
																		<timebase>30</timebase>
																		<ntsc>FALSE</ntsc>
																	</rate>
																	<string>00:00:00:00</string>
																	<frame>0</frame>
																	<displayformat>NDF</displayformat>
																</timecode>
																<media>
																	<video>
																		<samplecharacteristics>
																			<rate>
																				<timebase>30</timebase>
																				<ntsc>FALSE</ntsc>
																			</rate>
																			<width>576</width>
																			<height>1024</height>
																			<anamorphic>FALSE</anamorphic>
																			<pixelaspectratio>square</pixelaspectratio>
																			<fielddominance>none</fielddominance>
																		</samplecharacteristics>
																	</video>
																	<audio>
																		<samplecharacteristics>
																			<depth>16</depth>
																			<samplerate>44100</samplerate>
																		</samplecharacteristics>
																		<channelcount>1</channelcount>
																		<audiochannel>
																			<sourcechannel>1</sourcechannel>
																		</audiochannel>
																	</audio>
																</media>
															</file>
															<logginginfo>
																<description></description>
																<scene></scene>
																<shottake></shottake>
																<lognote></lognote>
																<good></good>
																<originalvideofilename></originalvideofilename>
																<originalaudiofilename></originalaudiofilename>
															</logginginfo>
															<colorinfo>
																<lut></lut>
																<lut1></lut1>
																<asc_sop></asc_sop>
																<asc_sat></asc_sat>
																<lut2></lut2>
															</colorinfo>
															<labels>
																<label2>Violet</label2>
															</labels>
														</clipitem>
														<enabled>TRUE</enabled>
														<locked>FALSE</locked>
													</track>
													<track TL.SQTrackShy="0" TL.SQTrackExpandedHeight="25" TL.SQTrackExpanded="0" MZ.TrackTargeted="0">
														<clipitem id="clipitem-702">
															<masterclipid>masterclip-65</masterclipid>
															<name># Eyecandy Vertical Video Frame 3</name>
															<enabled>TRUE</enabled>
															<duration>5700</duration>
															<rate>
																<timebase>30</timebase>
																<ntsc>TRUE</ntsc>
															</rate>
															<start>0</start>
															<end>816</end>
															<in>78</in>
															<out>894</out>
															<pproTicksIn>661102041600</pproTicksIn>
															<pproTicksOut>7577246476800</pproTicksOut>
															<alphatype>straight</alphatype>
															<file id="file-54"/>
															<logginginfo>
																<description></description>
																<scene></scene>
																<shottake></shottake>
																<lognote></lognote>
																<good></good>
																<originalvideofilename></originalvideofilename>
																<originalaudiofilename></originalaudiofilename>
															</logginginfo>
															<colorinfo>
																<lut></lut>
																<lut1></lut1>
																<asc_sop></asc_sop>
																<asc_sat></asc_sat>
																<lut2></lut2>
															</colorinfo>
															<labels>
																<label2>Teal</label2>
															</labels>
														</clipitem>
														<clipitem id="clipitem-703">
															<masterclipid>masterclip-65</masterclipid>
															<name># Eyecandy Vertical Video Frame 3</name>
															<enabled>TRUE</enabled>
															<duration>5700</duration>
															<rate>
																<timebase>30</timebase>
																<ntsc>TRUE</ntsc>
															</rate>
															<start>816</start>
															<end>1597</end>
															<in>894</in>
															<out>1675</out>
															<pproTicksIn>7577246476800</pproTicksIn>
															<pproTicksOut>14196742560000</pproTicksOut>
															<alphatype>straight</alphatype>
															<file id="file-54"/>
															<logginginfo>
																<description></description>
																<scene></scene>
																<shottake></shottake>
																<lognote></lognote>
																<good></good>
																<originalvideofilename></originalvideofilename>
																<originalaudiofilename></originalaudiofilename>
															</logginginfo>
															<colorinfo>
																<lut></lut>
																<lut1></lut1>
																<asc_sop></asc_sop>
																<asc_sat></asc_sat>
																<lut2></lut2>
															</colorinfo>
															<labels>
																<label2>Teal</label2>
															</labels>
														</clipitem>
														<clipitem id="clipitem-704">
															<masterclipid>masterclip-65</masterclipid>
															<name># Eyecandy Vertical Video Frame 3</name>
															<enabled>TRUE</enabled>
															<duration>5700</duration>
															<rate>
																<timebase>30</timebase>
																<ntsc>TRUE</ntsc>
															</rate>
															<start>1597</start>
															<end>2220</end>
															<in>1675</in>
															<out>2298</out>
															<pproTicksIn>14196742560000</pproTicksIn>
															<pproTicksOut>19477083225600</pproTicksOut>
															<alphatype>straight</alphatype>
															<file id="file-54"/>
															<logginginfo>
																<description></description>
																<scene></scene>
																<shottake></shottake>
																<lognote></lognote>
																<good></good>
																<originalvideofilename></originalvideofilename>
																<originalaudiofilename></originalaudiofilename>
															</logginginfo>
															<colorinfo>
																<lut></lut>
																<lut1></lut1>
																<asc_sop></asc_sop>
																<asc_sat></asc_sat>
																<lut2></lut2>
															</colorinfo>
															<labels>
																<label2>Teal</label2>
															</labels>
														</clipitem>
														<clipitem id="clipitem-705">
															<masterclipid>masterclip-65</masterclipid>
															<name># Eyecandy Vertical Video Frame 3</name>
															<enabled>TRUE</enabled>
															<duration>5700</duration>
															<rate>
																<timebase>30</timebase>
																<ntsc>TRUE</ntsc>
															</rate>
															<start>2220</start>
															<end>2746</end>
															<in>2298</in>
															<out>2824</out>
															<pproTicksIn>19477083225600</pproTicksIn>
															<pproTicksOut>23935284172800</pproTicksOut>
															<alphatype>straight</alphatype>
															<file id="file-54"/>
															<logginginfo>
																<description></description>
																<scene></scene>
																<shottake></shottake>
																<lognote></lognote>
																<good></good>
																<originalvideofilename></originalvideofilename>
																<originalaudiofilename></originalaudiofilename>
															</logginginfo>
															<colorinfo>
																<lut></lut>
																<lut1></lut1>
																<asc_sop></asc_sop>
																<asc_sat></asc_sat>
																<lut2></lut2>
															</colorinfo>
															<labels>
																<label2>Teal</label2>
															</labels>
														</clipitem>
														<enabled>TRUE</enabled>
														<locked>FALSE</locked>
													</track>
													<track TL.SQTrackShy="0" TL.SQTrackExpandedHeight="25" TL.SQTrackExpanded="0" MZ.TrackTargeted="0">
														<enabled>TRUE</enabled>
														<locked>FALSE</locked>
													</track>
													<track TL.SQTrackShy="0" TL.SQTrackExpandedHeight="25" TL.SQTrackExpanded="0" MZ.TrackTargeted="0">
														<enabled>TRUE</enabled>
														<locked>FALSE</locked>
													</track>
													<track TL.SQTrackShy="0" TL.SQTrackExpandedHeight="25" TL.SQTrackExpanded="0" MZ.TrackTargeted="0">
														<enabled>TRUE</enabled>
														<locked>FALSE</locked>
													</track>
													<track TL.SQTrackShy="0" TL.SQTrackExpandedHeight="25" TL.SQTrackExpanded="0" MZ.TrackTargeted="0">
														<enabled>TRUE</enabled>
														<locked>FALSE</locked>
													</track>
													<track TL.SQTrackShy="0" TL.SQTrackExpandedHeight="25" TL.SQTrackExpanded="0" MZ.TrackTargeted="0">
														<enabled>TRUE</enabled>
														<locked>FALSE</locked>
													</track>
													<track TL.SQTrackShy="0" TL.SQTrackExpandedHeight="25" TL.SQTrackExpanded="0" MZ.TrackTargeted="0">
														<enabled>TRUE</enabled>
														<locked>FALSE</locked>
													</track>
													<track TL.SQTrackShy="0" TL.SQTrackExpandedHeight="25" TL.SQTrackExpanded="0" MZ.TrackTargeted="0">
														<enabled>TRUE</enabled>
														<locked>FALSE</locked>
													</track>
													<track TL.SQTrackShy="0" TL.SQTrackExpandedHeight="25" TL.SQTrackExpanded="0" MZ.TrackTargeted="0">
														<enabled>TRUE</enabled>
														<locked>FALSE</locked>
													</track>
												</video>
												<audio>
													<numOutputChannels>2</numOutputChannels>
													<format>
														<samplecharacteristics>
															<depth>16</depth>
															<samplerate>48000</samplerate>
														</samplecharacteristics>
													</format>
													<outputs>
														<group>
															<index>1</index>
															<numchannels>1</numchannels>
															<downmix>0</downmix>
															<channel>
																<index>1</index>
															</channel>
														</group>
														<group>
															<index>2</index>
															<numchannels>1</numchannels>
															<downmix>0</downmix>
															<channel>
																<index>2</index>
															</channel>
														</group>
													</outputs>
													<track TL.SQTrackAudioKeyframeStyle="0" TL.SQTrackShy="0" TL.SQTrackExpandedHeight="25" TL.SQTrackExpanded="0" MZ.TrackTargeted="1" PannerCurrentValue="0.5" PannerIsInverted="true" PannerStartKeyframe="-91445760000000000,0.5,0,0,0,0,0,0" PannerName="Balance" currentExplodedTrackIndex="0" totalExplodedTrackCount="2" premiereTrackType="Stereo">
														<clipitem id="clipitem-706" premiereChannelType="stereo">
															<masterclipid>masterclip-265</masterclipid>
															<name>ES_save yourself (Instrumental Version) - King Sis.mp3</name>
															<enabled>TRUE</enabled>
															<duration>5659</duration>
															<rate>
																<timebase>30</timebase>
																<ntsc>TRUE</ntsc>
															</rate>
															<start>0</start>
															<end>2746</end>
															<in>0</in>
															<out>2746</out>
															<pproTicksIn>0</pproTicksIn>
															<pproTicksOut>23274182131200</pproTicksOut>
															<file id="file-229">
																<name>ES_save yourself (Instrumental Version) - King Sis.mp3</name>
																<pathurl>file://localhost/Volumes/ATM%201/EYE%20CANDY/8%3a14%3a23/5_Assets/Music/ES_save%20yourself%20(Instrumental%20Version)%20-%20King%20Sis.mp3</pathurl>
																<rate>
																	<timebase>30</timebase>
																	<ntsc>TRUE</ntsc>
																</rate>
																<duration>5659</duration>
																<timecode>
																	<rate>
																		<timebase>30</timebase>
																		<ntsc>TRUE</ntsc>
																	</rate>
																	<string>00;00;00;00</string>
																	<frame>0</frame>
																	<displayformat>DF</displayformat>
																</timecode>
																<media>
																	<audio>
																		<samplecharacteristics>
																			<depth>16</depth>
																			<samplerate>48000</samplerate>
																		</samplecharacteristics>
																		<channelcount>2</channelcount>
																	</audio>
																</media>
															</file>
															<sourcetrack>
																<mediatype>audio</mediatype>
																<trackindex>1</trackindex>
															</sourcetrack>
															<link>
																<linkclipref>clipitem-706</linkclipref>
																<mediatype>audio</mediatype>
																<trackindex>1</trackindex>
																<clipindex>1</clipindex>
																<groupindex>1</groupindex>
															</link>
															<link>
																<linkclipref>clipitem-707</linkclipref>
																<mediatype>audio</mediatype>
																<trackindex>2</trackindex>
																<clipindex>1</clipindex>
																<groupindex>1</groupindex>
															</link>
															<logginginfo>
																<description></description>
																<scene></scene>
																<shottake></shottake>
																<lognote></lognote>
																<good></good>
																<originalvideofilename></originalvideofilename>
																<originalaudiofilename></originalaudiofilename>
															</logginginfo>
															<colorinfo>
																<lut></lut>
																<lut1></lut1>
																<asc_sop></asc_sop>
																<asc_sat></asc_sat>
																<lut2></lut2>
															</colorinfo>
															<labels>
																<label2>Caribbean</label2>
															</labels>
														</clipitem>
														<enabled>TRUE</enabled>
														<locked>FALSE</locked>
														<filter>
															<effect>
																<name>Audio Levels</name>
																<effectid>audiolevels</effectid>
																<effectcategory>audiolevels</effectcategory>
																<effecttype>audiolevels</effecttype>
																<mediatype>audio</mediatype>
																<parameter authoringApp="PremierePro">
																	<parameterid>level</parameterid>
																	<name>Level</name>
																	<valuemin>0</valuemin>
																	<valuemax>3.98109</valuemax>
																	<value>0.706272</value>
																</parameter>
															</effect>
														</filter>
														<outputchannelindex>1</outputchannelindex>
													</track>
													<track TL.SQTrackAudioKeyframeStyle="0" TL.SQTrackShy="0" TL.SQTrackExpandedHeight="25" TL.SQTrackExpanded="0" MZ.TrackTargeted="1" PannerCurrentValue="0.5" PannerIsInverted="true" PannerStartKeyframe="-91445760000000000,0.5,0,0,0,0,0,0" PannerName="Balance" currentExplodedTrackIndex="1" totalExplodedTrackCount="2" premiereTrackType="Stereo">
														<clipitem id="clipitem-707" premiereChannelType="stereo">
															<masterclipid>masterclip-265</masterclipid>
															<name>ES_save yourself (Instrumental Version) - King Sis.mp3</name>
															<enabled>TRUE</enabled>
															<duration>5659</duration>
															<rate>
																<timebase>30</timebase>
																<ntsc>TRUE</ntsc>
															</rate>
															<start>0</start>
															<end>2746</end>
															<in>0</in>
															<out>2746</out>
															<pproTicksIn>0</pproTicksIn>
															<pproTicksOut>23274182131200</pproTicksOut>
															<file id="file-229"/>
															<sourcetrack>
																<mediatype>audio</mediatype>
																<trackindex>2</trackindex>
															</sourcetrack>
															<link>
																<linkclipref>clipitem-706</linkclipref>
																<mediatype>audio</mediatype>
																<trackindex>1</trackindex>
																<clipindex>1</clipindex>
																<groupindex>1</groupindex>
															</link>
															<link>
																<linkclipref>clipitem-707</linkclipref>
																<mediatype>audio</mediatype>
																<trackindex>2</trackindex>
																<clipindex>1</clipindex>
																<groupindex>1</groupindex>
															</link>
															<logginginfo>
																<description></description>
																<scene></scene>
																<shottake></shottake>
																<lognote></lognote>
																<good></good>
																<originalvideofilename></originalvideofilename>
																<originalaudiofilename></originalaudiofilename>
															</logginginfo>
															<colorinfo>
																<lut></lut>
																<lut1></lut1>
																<asc_sop></asc_sop>
																<asc_sat></asc_sat>
																<lut2></lut2>
															</colorinfo>
															<labels>
																<label2>Caribbean</label2>
															</labels>
														</clipitem>
														<enabled>TRUE</enabled>
														<locked>FALSE</locked>
														<filter>
															<effect>
																<name>Audio Levels</name>
																<effectid>audiolevels</effectid>
																<effectcategory>audiolevels</effectcategory>
																<effecttype>audiolevels</effecttype>
																<mediatype>audio</mediatype>
																<parameter authoringApp="PremierePro">
																	<parameterid>level</parameterid>
																	<name>Level</name>
																	<valuemin>0</valuemin>
																	<valuemax>3.98109</valuemax>
																	<value>0.706272</value>
																</parameter>
															</effect>
														</filter>
														<outputchannelindex>2</outputchannelindex>
													</track>
													<track TL.SQTrackAudioKeyframeStyle="0" TL.SQTrackShy="0" TL.SQTrackExpandedHeight="25" TL.SQTrackExpanded="0" MZ.TrackTargeted="0" PannerCurrentValue="0.5" PannerIsInverted="true" PannerStartKeyframe="-91445760000000000,0.5,0,0,0,0,0,0" PannerName="Balance" currentExplodedTrackIndex="0" totalExplodedTrackCount="2" premiereTrackType="Stereo">
														<enabled>TRUE</enabled>
														<locked>FALSE</locked>
														<outputchannelindex>1</outputchannelindex>
													</track>
													<track TL.SQTrackAudioKeyframeStyle="0" TL.SQTrackShy="0" TL.SQTrackExpandedHeight="25" TL.SQTrackExpanded="0" MZ.TrackTargeted="0" PannerCurrentValue="0.5" PannerIsInverted="true" PannerStartKeyframe="-91445760000000000,0.5,0,0,0,0,0,0" PannerName="Balance" currentExplodedTrackIndex="1" totalExplodedTrackCount="2" premiereTrackType="Stereo">
														<enabled>TRUE</enabled>
														<locked>FALSE</locked>
														<outputchannelindex>2</outputchannelindex>
													</track>
													<track TL.SQTrackAudioKeyframeStyle="0" TL.SQTrackShy="0" TL.SQTrackExpandedHeight="25" TL.SQTrackExpanded="0" MZ.TrackTargeted="0" PannerCurrentValue="0.5" PannerIsInverted="true" PannerStartKeyframe="-91445760000000000,0.5,0,0,0,0,0,0" PannerName="Balance" currentExplodedTrackIndex="0" totalExplodedTrackCount="2" premiereTrackType="Stereo">
														<enabled>TRUE</enabled>
														<locked>FALSE</locked>
														<outputchannelindex>1</outputchannelindex>
													</track>
													<track TL.SQTrackAudioKeyframeStyle="0" TL.SQTrackShy="0" TL.SQTrackExpandedHeight="25" TL.SQTrackExpanded="0" MZ.TrackTargeted="0" PannerCurrentValue="0.5" PannerIsInverted="true" PannerStartKeyframe="-91445760000000000,0.5,0,0,0,0,0,0" PannerName="Balance" currentExplodedTrackIndex="1" totalExplodedTrackCount="2" premiereTrackType="Stereo">
														<enabled>TRUE</enabled>
														<locked>FALSE</locked>
														<outputchannelindex>2</outputchannelindex>
													</track>
													<track TL.SQTrackAudioKeyframeStyle="0" TL.SQTrackShy="0" TL.SQTrackExpandedHeight="25" TL.SQTrackExpanded="0" MZ.TrackTargeted="0" PannerCurrentValue="0.5" PannerIsInverted="true" PannerStartKeyframe="-91445760000000000,0.5,0,0,0,0,0,0" PannerName="Balance" currentExplodedTrackIndex="0" totalExplodedTrackCount="2" premiereTrackType="Stereo">
														<enabled>TRUE</enabled>
														<locked>FALSE</locked>
														<outputchannelindex>1</outputchannelindex>
													</track>
													<track TL.SQTrackAudioKeyframeStyle="0" TL.SQTrackShy="0" TL.SQTrackExpandedHeight="25" TL.SQTrackExpanded="0" MZ.TrackTargeted="0" PannerCurrentValue="0.5" PannerIsInverted="true" PannerStartKeyframe="-91445760000000000,0.5,0,0,0,0,0,0" PannerName="Balance" currentExplodedTrackIndex="1" totalExplodedTrackCount="2" premiereTrackType="Stereo">
														<enabled>TRUE</enabled>
														<locked>FALSE</locked>
														<outputchannelindex>2</outputchannelindex>
													</track>
													<track TL.SQTrackAudioKeyframeStyle="0" TL.SQTrackShy="0" TL.SQTrackExpandedHeight="25" TL.SQTrackExpanded="0" MZ.TrackTargeted="0" PannerCurrentValue="0.5" PannerIsInverted="true" PannerStartKeyframe="-91445760000000000,0.5,0,0,0,0,0,0" PannerName="Balance" currentExplodedTrackIndex="0" totalExplodedTrackCount="2" premiereTrackType="Stereo">
														<enabled>TRUE</enabled>
														<locked>FALSE</locked>
														<outputchannelindex>1</outputchannelindex>
													</track>
													<track TL.SQTrackAudioKeyframeStyle="0" TL.SQTrackShy="0" TL.SQTrackExpandedHeight="25" TL.SQTrackExpanded="0" MZ.TrackTargeted="0" PannerCurrentValue="0.5" PannerIsInverted="true" PannerStartKeyframe="-91445760000000000,0.5,0,0,0,0,0,0" PannerName="Balance" currentExplodedTrackIndex="1" totalExplodedTrackCount="2" premiereTrackType="Stereo">
														<enabled>TRUE</enabled>
														<locked>FALSE</locked>
														<outputchannelindex>2</outputchannelindex>
													</track>
													<track TL.SQTrackAudioKeyframeStyle="0" TL.SQTrackShy="0" TL.SQTrackExpandedHeight="25" TL.SQTrackExpanded="0" MZ.TrackTargeted="0" PannerCurrentValue="0.5" PannerIsInverted="true" PannerStartKeyframe="-91445760000000000,0.5,0,0,0,0,0,0" PannerName="Balance" currentExplodedTrackIndex="0" totalExplodedTrackCount="2" premiereTrackType="Stereo">
														<enabled>TRUE</enabled>
														<locked>FALSE</locked>
														<outputchannelindex>1</outputchannelindex>
													</track>
													<track TL.SQTrackAudioKeyframeStyle="0" TL.SQTrackShy="0" TL.SQTrackExpandedHeight="25" TL.SQTrackExpanded="0" MZ.TrackTargeted="0" PannerCurrentValue="0.5" PannerIsInverted="true" PannerStartKeyframe="-91445760000000000,0.5,0,0,0,0,0,0" PannerName="Balance" currentExplodedTrackIndex="1" totalExplodedTrackCount="2" premiereTrackType="Stereo">
														<enabled>TRUE</enabled>
														<locked>FALSE</locked>
														<outputchannelindex>2</outputchannelindex>
													</track>
													<track TL.SQTrackAudioKeyframeStyle="0" TL.SQTrackShy="0" TL.SQTrackExpandedHeight="25" TL.SQTrackExpanded="0" MZ.TrackTargeted="0" PannerCurrentValue="0.5" PannerIsInverted="true" PannerStartKeyframe="-91445760000000000,0.5,0,0,0,0,0,0" PannerName="Balance" currentExplodedTrackIndex="0" totalExplodedTrackCount="2" premiereTrackType="Stereo">
														<enabled>TRUE</enabled>
														<locked>FALSE</locked>
														<outputchannelindex>1</outputchannelindex>
													</track>
													<track TL.SQTrackAudioKeyframeStyle="0" TL.SQTrackShy="0" TL.SQTrackExpandedHeight="25" TL.SQTrackExpanded="0" MZ.TrackTargeted="0" PannerCurrentValue="0.5" PannerIsInverted="true" PannerStartKeyframe="-91445760000000000,0.5,0,0,0,0,0,0" PannerName="Balance" currentExplodedTrackIndex="1" totalExplodedTrackCount="2" premiereTrackType="Stereo">
														<enabled>TRUE</enabled>
														<locked>FALSE</locked>
														<outputchannelindex>2</outputchannelindex>
													</track>
													<track TL.SQTrackAudioKeyframeStyle="0" TL.SQTrackShy="0" TL.SQTrackExpandedHeight="25" TL.SQTrackExpanded="0" MZ.TrackTargeted="0" PannerCurrentValue="0.5" PannerIsInverted="true" PannerStartKeyframe="-91445760000000000,0.5,0,0,0,0,0,0" PannerName="Balance" currentExplodedTrackIndex="0" totalExplodedTrackCount="2" premiereTrackType="Stereo">
														<enabled>TRUE</enabled>
														<locked>FALSE</locked>
														<outputchannelindex>1</outputchannelindex>
													</track>
													<track TL.SQTrackAudioKeyframeStyle="0" TL.SQTrackShy="0" TL.SQTrackExpandedHeight="25" TL.SQTrackExpanded="0" MZ.TrackTargeted="0" PannerCurrentValue="0.5" PannerIsInverted="true" PannerStartKeyframe="-91445760000000000,0.5,0,0,0,0,0,0" PannerName="Balance" currentExplodedTrackIndex="1" totalExplodedTrackCount="2" premiereTrackType="Stereo">
														<enabled>TRUE</enabled>
														<locked>FALSE</locked>
														<outputchannelindex>2</outputchannelindex>
													</track>
													<track TL.SQTrackAudioKeyframeStyle="0" TL.SQTrackShy="0" TL.SQTrackExpandedHeight="25" TL.SQTrackExpanded="0" MZ.TrackTargeted="0" PannerCurrentValue="0.5" PannerIsInverted="true" PannerStartKeyframe="-91445760000000000,0.5,0,0,0,0,0,0" PannerName="Balance" currentExplodedTrackIndex="0" totalExplodedTrackCount="2" premiereTrackType="Stereo">
														<enabled>TRUE</enabled>
														<locked>FALSE</locked>
														<outputchannelindex>1</outputchannelindex>
													</track>
													<track TL.SQTrackAudioKeyframeStyle="0" TL.SQTrackShy="0" TL.SQTrackExpandedHeight="25" TL.SQTrackExpanded="0" MZ.TrackTargeted="0" PannerCurrentValue="0.5" PannerIsInverted="true" PannerStartKeyframe="-91445760000000000,0.5,0,0,0,0,0,0" PannerName="Balance" currentExplodedTrackIndex="1" totalExplodedTrackCount="2" premiereTrackType="Stereo">
														<enabled>TRUE</enabled>
														<locked>FALSE</locked>
														<outputchannelindex>2</outputchannelindex>
													</track>
													<track TL.SQTrackAudioKeyframeStyle="0" TL.SQTrackShy="0" TL.SQTrackExpandedHeight="25" TL.SQTrackExpanded="0" MZ.TrackTargeted="0" PannerCurrentValue="0.5" PannerIsInverted="true" PannerStartKeyframe="-91445760000000000,0.5,0,0,0,0,0,0" PannerName="Balance" currentExplodedTrackIndex="0" totalExplodedTrackCount="2" premiereTrackType="Stereo">
														<enabled>TRUE</enabled>
														<locked>FALSE</locked>
														<outputchannelindex>1</outputchannelindex>
													</track>
													<track TL.SQTrackAudioKeyframeStyle="0" TL.SQTrackShy="0" TL.SQTrackExpandedHeight="25" TL.SQTrackExpanded="0" MZ.TrackTargeted="0" PannerCurrentValue="0.5" PannerIsInverted="true" PannerStartKeyframe="-91445760000000000,0.5,0,0,0,0,0,0" PannerName="Balance" currentExplodedTrackIndex="1" totalExplodedTrackCount="2" premiereTrackType="Stereo">
														<enabled>TRUE</enabled>
														<locked>FALSE</locked>
														<outputchannelindex>2</outputchannelindex>
													</track>
												</audio>
											</media>
											<timecode>
												<rate>
													<timebase>30</timebase>
													<ntsc>TRUE</ntsc>
												</rate>
												<string>00;00;00;00</string>
												<frame>0</frame>
												<displayformat>DF</displayformat>
											</timecode>
											<logginginfo>
												<description></description>
												<scene></scene>
												<shottake></shottake>
												<lognote></lognote>
												<good></good>
												<originalvideofilename></originalvideofilename>
												<originalaudiofilename></originalaudiofilename>
											</logginginfo>
										</sequence>
										<link>
											<linkclipref>clipitem-694</linkclipref>
											<mediatype>video</mediatype>
											<trackindex>1</trackindex>
											<clipindex>2</clipindex>
										</link>
										<link>
											<linkclipref>clipitem-715</linkclipref>
											<mediatype>audio</mediatype>
											<trackindex>1</trackindex>
											<clipindex>3</clipindex>
											<groupindex>1</groupindex>
										</link>
										<link>
											<linkclipref>clipitem-717</linkclipref>
											<mediatype>audio</mediatype>
											<trackindex>2</trackindex>
											<clipindex>3</clipindex>
											<groupindex>1</groupindex>
										</link>
										<labels>
											<label2>Forest</label2>
										</labels>
									</clipitem>
									<enabled>TRUE</enabled>
									<locked>FALSE</locked>
								</track>
								<track TL.SQTrackShy="0" TL.SQTrackExpandedHeight="25" TL.SQTrackExpanded="0" MZ.TrackTargeted="0">
									<clipitem id="clipitem-708">
										<masterclipid>masterclip-16</masterclipid>
										<name>ATM BUG_1080_Top Right.png</name>
										<enabled>TRUE</enabled>
										<duration>1294705</duration>
										<rate>
											<timebase>30</timebase>
											<ntsc>TRUE</ntsc>
										</rate>
										<start>82</start>
										<end>5224</end>
										<in>107892</in>
										<out>113034</out>
										<pproTicksIn>914456685542400</pproTicksIn>
										<pproTicksOut>958038566284800</pproTicksOut>
										<alphatype>straight</alphatype>
										<file id="file-14"/>
										<logginginfo>
											<description></description>
											<scene></scene>
											<shottake></shottake>
											<lognote></lognote>
											<good></good>
											<originalvideofilename></originalvideofilename>
											<originalaudiofilename></originalaudiofilename>
										</logginginfo>
										<colorinfo>
											<lut></lut>
											<lut1></lut1>
											<asc_sop></asc_sop>
											<asc_sat></asc_sat>
											<lut2></lut2>
										</colorinfo>
										<labels>
										</labels>
									</clipitem>
									<enabled>TRUE</enabled>
									<locked>FALSE</locked>
								</track>
								<track TL.SQTrackShy="0" TL.SQTrackExpandedHeight="25" TL.SQTrackExpanded="0" MZ.TrackTargeted="0">
									<clipitem id="clipitem-709">
										<masterclipid>masterclip-266</masterclipid>
										<name>Life is Brewtiful</name>
										<enabled>TRUE</enabled>
										<duration>6293</duration>
										<rate>
											<timebase>30</timebase>
											<ntsc>TRUE</ntsc>
										</rate>
										<start>115</start>
										<end>2478</end>
										<in>30</in>
										<out>2393</out>
										<pproTicksIn>254270016000</pproTicksIn>
										<pproTicksOut>20282271609600</pproTicksOut>
										<alphatype>straight</alphatype>
										<pixelaspectratio>square</pixelaspectratio>
										<anamorphic>FALSE</anamorphic>
										<file id="file-230">
											<name>EYECANDY_L3RD_JL_V03/EYECANDY_L3rd_JL_V04.aep</name>
											<pathurl>file://localhost/Volumes/ATM%201/EYE%20CANDY/Project%20Template/5_Assets/Eye%20Candy%20Mograph/EYECANDY_L3rd_JL_V04%20folder/EYECANDY_L3rd_JL_V04.aep</pathurl>
											<rate>
												<timebase>30</timebase>
												<ntsc>FALSE</ntsc>
											</rate>
											<duration>6300</duration>
											<timecode>
												<rate>
													<timebase>30</timebase>
													<ntsc>FALSE</ntsc>
												</rate>
												<string>00:00:00:00</string>
												<frame>0</frame>
												<displayformat>NDF</displayformat>
											</timecode>
											<media>
												<video>
													<samplecharacteristics>
														<rate>
															<timebase>30</timebase>
															<ntsc>FALSE</ntsc>
														</rate>
														<width>1920</width>
														<height>1080</height>
														<anamorphic>FALSE</anamorphic>
														<pixelaspectratio>square</pixelaspectratio>
														<fielddominance>lower</fielddominance>
													</samplecharacteristics>
												</video>
											</media>
										</file>
										<logginginfo>
											<description></description>
											<scene></scene>
											<shottake></shottake>
											<lognote></lognote>
											<good></good>
											<originalvideofilename></originalvideofilename>
											<originalaudiofilename></originalaudiofilename>
										</logginginfo>
										<colorinfo>
											<lut></lut>
											<lut1></lut1>
											<asc_sop></asc_sop>
											<asc_sat></asc_sat>
											<lut2></lut2>
										</colorinfo>
									</clipitem>
									<clipitem id="clipitem-710">
										<masterclipid>masterclip-267</masterclipid>
										<name>Peanut Butter Me Up</name>
										<enabled>TRUE</enabled>
										<duration>6293</duration>
										<rate>
											<timebase>30</timebase>
											<ntsc>TRUE</ntsc>
										</rate>
										<start>2540</start>
										<end>5224</end>
										<in>30</in>
										<out>2714</out>
										<pproTicksIn>254270016000</pproTicksIn>
										<pproTicksOut>23002960780800</pproTicksOut>
										<alphatype>straight</alphatype>
										<pixelaspectratio>square</pixelaspectratio>
										<anamorphic>FALSE</anamorphic>
										<file id="file-231">
											<name>EYECANDY_L3RD_JL_V03/EYECANDY_L3rd_JL_V04.aep</name>
											<pathurl>file://localhost/Volumes/ATM%201/EYE%20CANDY/Project%20Template/5_Assets/Eye%20Candy%20Mograph/EYECANDY_L3rd_JL_V04%20folder/EYECANDY_L3rd_JL_V04.aep</pathurl>
											<rate>
												<timebase>30</timebase>
												<ntsc>FALSE</ntsc>
											</rate>
											<duration>6300</duration>
											<timecode>
												<rate>
													<timebase>30</timebase>
													<ntsc>FALSE</ntsc>
												</rate>
												<string>00:00:00:00</string>
												<frame>0</frame>
												<displayformat>NDF</displayformat>
											</timecode>
											<media>
												<video>
													<samplecharacteristics>
														<rate>
															<timebase>30</timebase>
															<ntsc>FALSE</ntsc>
														</rate>
														<width>1920</width>
														<height>1080</height>
														<anamorphic>FALSE</anamorphic>
														<pixelaspectratio>square</pixelaspectratio>
														<fielddominance>lower</fielddominance>
													</samplecharacteristics>
												</video>
											</media>
										</file>
										<logginginfo>
											<description></description>
											<scene></scene>
											<shottake></shottake>
											<lognote></lognote>
											<good></good>
											<originalvideofilename></originalvideofilename>
											<originalaudiofilename></originalaudiofilename>
										</logginginfo>
										<colorinfo>
											<lut></lut>
											<lut1></lut1>
											<asc_sop></asc_sop>
											<asc_sat></asc_sat>
											<lut2></lut2>
										</colorinfo>
									</clipitem>
									<enabled>TRUE</enabled>
									<locked>FALSE</locked>
								</track>
								<track TL.SQTrackShy="0" TL.SQTrackExpandedHeight="25" TL.SQTrackExpanded="0" MZ.TrackTargeted="0">
									<clipitem id="clipitem-711">
										<masterclipid>masterclip-19</masterclipid>
										<name>Intro</name>
										<enabled>TRUE</enabled>
										<duration>160</duration>
										<rate>
											<timebase>30</timebase>
											<ntsc>TRUE</ntsc>
										</rate>
										<start>0</start>
										<end>115</end>
										<in>0</in>
										<out>115</out>
										<pproTicksIn>0</pproTicksIn>
										<pproTicksOut>974701728000</pproTicksOut>
										<sequence id="sequence-4"/>
											<marker>
												<comment></comment>
												<name></name>
												<in>82</in>
												<out>-1</out>
											</marker>
										<link>
											<linkclipref>clipitem-711</linkclipref>
											<mediatype>video</mediatype>
											<trackindex>4</trackindex>
											<clipindex>1</clipindex>
										</link>
										<link>
											<linkclipref>clipitem-718</linkclipref>
											<mediatype>audio</mediatype>
											<trackindex>3</trackindex>
											<clipindex>1</clipindex>
											<groupindex>1</groupindex>
										</link>
										<link>
											<linkclipref>clipitem-721</linkclipref>
											<mediatype>audio</mediatype>
											<trackindex>4</trackindex>
											<clipindex>1</clipindex>
											<groupindex>1</groupindex>
										</link>
										<labels>
											<label2>Forest</label2>
										</labels>
									</clipitem>
									<clipitem id="clipitem-712">
										<masterclipid>masterclip-42</masterclipid>
										<name>Transition 1</name>
										<enabled>TRUE</enabled>
										<duration>160</duration>
										<rate>
											<timebase>30</timebase>
											<ntsc>TRUE</ntsc>
										</rate>
										<start>2422</start>
										<end>2540</end>
										<in>0</in>
										<out>118</out>
										<pproTicksIn>0</pproTicksIn>
										<pproTicksOut>1000128729600</pproTicksOut>
										<sequence id="sequence-11"/>
											<marker>
												<comment></comment>
												<name></name>
												<in>56</in>
												<out>-1</out>
											</marker>
										<link>
											<linkclipref>clipitem-712</linkclipref>
											<mediatype>video</mediatype>
											<trackindex>4</trackindex>
											<clipindex>2</clipindex>
										</link>
										<link>
											<linkclipref>clipitem-719</linkclipref>
											<mediatype>audio</mediatype>
											<trackindex>3</trackindex>
											<clipindex>2</clipindex>
											<groupindex>1</groupindex>
										</link>
										<link>
											<linkclipref>clipitem-722</linkclipref>
											<mediatype>audio</mediatype>
											<trackindex>4</trackindex>
											<clipindex>2</clipindex>
											<groupindex>1</groupindex>
										</link>
										<labels>
											<label2>Forest</label2>
										</labels>
									</clipitem>
									<clipitem id="clipitem-713">
										<masterclipid>masterclip-23</masterclipid>
										<name>Outro</name>
										<enabled>TRUE</enabled>
										<duration>160</duration>
										<rate>
											<timebase>30</timebase>
											<ntsc>TRUE</ntsc>
										</rate>
										<start>5182</start>
										<end>5319</end>
										<in>0</in>
										<out>137</out>
										<pproTicksIn>0</pproTicksIn>
										<pproTicksOut>1161166406400</pproTicksOut>
										<sequence id="sequence-6"/>
											<marker>
												<comment></comment>
												<name></name>
												<in>42</in>
												<out>-1</out>
											</marker>
										<link>
											<linkclipref>clipitem-713</linkclipref>
											<mediatype>video</mediatype>
											<trackindex>4</trackindex>
											<clipindex>3</clipindex>
										</link>
										<link>
											<linkclipref>clipitem-720</linkclipref>
											<mediatype>audio</mediatype>
											<trackindex>3</trackindex>
											<clipindex>3</clipindex>
											<groupindex>1</groupindex>
										</link>
										<link>
											<linkclipref>clipitem-723</linkclipref>
											<mediatype>audio</mediatype>
											<trackindex>4</trackindex>
											<clipindex>3</clipindex>
											<groupindex>1</groupindex>
										</link>
										<labels>
											<label2>Forest</label2>
										</labels>
									</clipitem>
									<enabled>TRUE</enabled>
									<locked>FALSE</locked>
								</track>
							</video>
							<audio>
								<numOutputChannels>2</numOutputChannels>
								<format>
									<samplecharacteristics>
										<depth>16</depth>
										<samplerate>48000</samplerate>
									</samplecharacteristics>
								</format>
								<outputs>
									<group>
										<index>1</index>
										<numchannels>1</numchannels>
										<downmix>0</downmix>
										<channel>
											<index>1</index>
										</channel>
									</group>
									<group>
										<index>2</index>
										<numchannels>1</numchannels>
										<downmix>0</downmix>
										<channel>
											<index>2</index>
										</channel>
									</group>
								</outputs>
								<track TL.SQTrackAudioKeyframeStyle="0" TL.SQTrackShy="0" TL.SQTrackExpandedHeight="25" TL.SQTrackExpanded="0" MZ.TrackTargeted="1" PannerCurrentValue="0.5" PannerIsInverted="true" PannerStartKeyframe="-91445760000000000,0.5,0,0,0,0,0,0" PannerName="Balance" currentExplodedTrackIndex="0" totalExplodedTrackCount="2" premiereTrackType="Stereo">
									<clipitem id="clipitem-714" premiereChannelType="stereo">
										<masterclipid>masterclip-245</masterclipid>
										<name>Life is Brewtiful_1.5</name>
										<enabled>TRUE</enabled>
										<duration>2458</duration>
										<rate>
											<timebase>30</timebase>
											<ntsc>TRUE</ntsc>
										</rate>
										<start>82</start>
										<end>-1</end>
										<in>0</in>
										<out>2396</out>
										<pproTicksIn>0</pproTicksIn>
										<pproTicksOut>20307698611200</pproTicksOut>
										<sequence id="sequence-49"/>
										<sourcetrack>
											<mediatype>audio</mediatype>
											<trackindex>0</trackindex>
										</sourcetrack>
										<link>
											<linkclipref>clipitem-677</linkclipref>
											<mediatype>video</mediatype>
											<trackindex>1</trackindex>
											<clipindex>1</clipindex>
										</link>
										<link>
											<linkclipref>clipitem-714</linkclipref>
											<mediatype>audio</mediatype>
											<trackindex>1</trackindex>
											<clipindex>1</clipindex>
											<groupindex>1</groupindex>
										</link>
										<link>
											<linkclipref>clipitem-716</linkclipref>
											<mediatype>audio</mediatype>
											<trackindex>2</trackindex>
											<clipindex>1</clipindex>
											<groupindex>1</groupindex>
										</link>
										<labels>
											<label2>Forest</label2>
										</labels>
									</clipitem>
									<transitionitem>
										<start>2448</start>
										<end>2478</end>
										<pproTicksIn>20748433305600</pproTicksIn>
										<pproTicksOut>21002703321600</pproTicksOut>
										<alignment>end-black</alignment>
										<cutPointTicks>254270016000</cutPointTicks>
										<rate>
											<timebase>30</timebase>
											<ntsc>TRUE</ntsc>
										</rate>
										<effect>
											<name>Cross Fade ( 0dB)</name>
											<effectid>KGAudioTransCrossFade0dB</effectid>
											<effecttype>transition</effecttype>
											<mediatype>audio</mediatype>
											<wipecode>0</wipecode>
											<wipeaccuracy>100</wipeaccuracy>
											<startratio>0</startratio>
											<endratio>1</endratio>
											<reverse>FALSE</reverse>
										</effect>
									</transitionitem>
									<clipitem id="clipitem-715" premiereChannelType="stereo">
										<masterclipid>masterclip-260</masterclipid>
										<name>Peanut Butter Me Up_1.5</name>
										<enabled>TRUE</enabled>
										<duration>5700</duration>
										<rate>
											<timebase>30</timebase>
											<ntsc>TRUE</ntsc>
										</rate>
										<start>2478</start>
										<end>-1</end>
										<in>0</in>
										<out>2746</out>
										<pproTicksIn>0</pproTicksIn>
										<pproTicksOut>23274182131200</pproTicksOut>
										<sequence id="sequence-50"/>
										<sourcetrack>
											<mediatype>audio</mediatype>
											<trackindex>0</trackindex>
										</sourcetrack>
										<link>
											<linkclipref>clipitem-694</linkclipref>
											<mediatype>video</mediatype>
											<trackindex>1</trackindex>
											<clipindex>2</clipindex>
										</link>
										<link>
											<linkclipref>clipitem-715</linkclipref>
											<mediatype>audio</mediatype>
											<trackindex>1</trackindex>
											<clipindex>3</clipindex>
											<groupindex>1</groupindex>
										</link>
										<link>
											<linkclipref>clipitem-717</linkclipref>
											<mediatype>audio</mediatype>
											<trackindex>2</trackindex>
											<clipindex>3</clipindex>
											<groupindex>1</groupindex>
										</link>
										<labels>
											<label2>Forest</label2>
										</labels>
									</clipitem>
									<transitionitem>
										<start>5155</start>
										<end>5224</end>
										<pproTicksIn>43692064416000</pproTicksIn>
										<pproTicksOut>44276885452800</pproTicksOut>
										<alignment>end-black</alignment>
										<cutPointTicks>584821036800</cutPointTicks>
										<rate>
											<timebase>30</timebase>
											<ntsc>TRUE</ntsc>
										</rate>
										<effect>
											<name>Cross Fade (+3dB)</name>
											<effectid>KGAudioTransCrossFade3dB</effectid>
											<effecttype>transition</effecttype>
											<mediatype>audio</mediatype>
											<wipecode>0</wipecode>
											<wipeaccuracy>100</wipeaccuracy>
											<startratio>0</startratio>
											<endratio>1</endratio>
											<reverse>FALSE</reverse>
										</effect>
									</transitionitem>
									<enabled>TRUE</enabled>
									<locked>FALSE</locked>
									<outputchannelindex>1</outputchannelindex>
								</track>
								<track TL.SQTrackAudioKeyframeStyle="0" TL.SQTrackShy="0" TL.SQTrackExpandedHeight="25" TL.SQTrackExpanded="0" MZ.TrackTargeted="1" PannerCurrentValue="0.5" PannerIsInverted="true" PannerStartKeyframe="-91445760000000000,0.5,0,0,0,0,0,0" PannerName="Balance" currentExplodedTrackIndex="1" totalExplodedTrackCount="2" premiereTrackType="Stereo">
									<clipitem id="clipitem-716" premiereChannelType="stereo">
										<masterclipid>masterclip-245</masterclipid>
										<name>Life is Brewtiful_1.5</name>
										<enabled>TRUE</enabled>
										<duration>2458</duration>
										<rate>
											<timebase>30</timebase>
											<ntsc>TRUE</ntsc>
										</rate>
										<start>82</start>
										<end>-1</end>
										<in>0</in>
										<out>2396</out>
										<pproTicksIn>0</pproTicksIn>
										<pproTicksOut>20307698611200</pproTicksOut>
										<sequence id="sequence-49"/>
										<sourcetrack>
											<mediatype>audio</mediatype>
											<trackindex>1</trackindex>
										</sourcetrack>
										<link>
											<linkclipref>clipitem-677</linkclipref>
											<mediatype>video</mediatype>
											<trackindex>1</trackindex>
											<clipindex>1</clipindex>
										</link>
										<link>
											<linkclipref>clipitem-714</linkclipref>
											<mediatype>audio</mediatype>
											<trackindex>1</trackindex>
											<clipindex>1</clipindex>
											<groupindex>1</groupindex>
										</link>
										<link>
											<linkclipref>clipitem-716</linkclipref>
											<mediatype>audio</mediatype>
											<trackindex>2</trackindex>
											<clipindex>1</clipindex>
											<groupindex>1</groupindex>
										</link>
										<labels>
											<label2>Forest</label2>
										</labels>
									</clipitem>
									<transitionitem>
										<start>2448</start>
										<end>2478</end>
										<pproTicksIn>20748433305600</pproTicksIn>
										<pproTicksOut>21002703321600</pproTicksOut>
										<alignment>end-black</alignment>
										<cutPointTicks>254270016000</cutPointTicks>
										<rate>
											<timebase>30</timebase>
											<ntsc>TRUE</ntsc>
										</rate>
										<effect>
											<name>Cross Fade ( 0dB)</name>
											<effectid>KGAudioTransCrossFade0dB</effectid>
											<effecttype>transition</effecttype>
											<mediatype>audio</mediatype>
											<wipecode>0</wipecode>
											<wipeaccuracy>100</wipeaccuracy>
											<startratio>0</startratio>
											<endratio>1</endratio>
											<reverse>FALSE</reverse>
										</effect>
									</transitionitem>
									<clipitem id="clipitem-717" premiereChannelType="stereo">
										<masterclipid>masterclip-260</masterclipid>
										<name>Peanut Butter Me Up_1.5</name>
										<enabled>TRUE</enabled>
										<duration>5700</duration>
										<rate>
											<timebase>30</timebase>
											<ntsc>TRUE</ntsc>
										</rate>
										<start>2478</start>
										<end>-1</end>
										<in>0</in>
										<out>2746</out>
										<pproTicksIn>0</pproTicksIn>
										<pproTicksOut>23274182131200</pproTicksOut>
										<sequence id="sequence-50"/>
										<sourcetrack>
											<mediatype>audio</mediatype>
											<trackindex>1</trackindex>
										</sourcetrack>
										<link>
											<linkclipref>clipitem-694</linkclipref>
											<mediatype>video</mediatype>
											<trackindex>1</trackindex>
											<clipindex>2</clipindex>
										</link>
										<link>
											<linkclipref>clipitem-715</linkclipref>
											<mediatype>audio</mediatype>
											<trackindex>1</trackindex>
											<clipindex>3</clipindex>
											<groupindex>1</groupindex>
										</link>
										<link>
											<linkclipref>clipitem-717</linkclipref>
											<mediatype>audio</mediatype>
											<trackindex>2</trackindex>
											<clipindex>3</clipindex>
											<groupindex>1</groupindex>
										</link>
										<labels>
											<label2>Forest</label2>
										</labels>
									</clipitem>
									<transitionitem>
										<start>5155</start>
										<end>5224</end>
										<pproTicksIn>43692064416000</pproTicksIn>
										<pproTicksOut>44276885452800</pproTicksOut>
										<alignment>end-black</alignment>
										<cutPointTicks>584821036800</cutPointTicks>
										<rate>
											<timebase>30</timebase>
											<ntsc>TRUE</ntsc>
										</rate>
										<effect>
											<name>Cross Fade (+3dB)</name>
											<effectid>KGAudioTransCrossFade3dB</effectid>
											<effecttype>transition</effecttype>
											<mediatype>audio</mediatype>
											<wipecode>0</wipecode>
											<wipeaccuracy>100</wipeaccuracy>
											<startratio>0</startratio>
											<endratio>1</endratio>
											<reverse>FALSE</reverse>
										</effect>
									</transitionitem>
									<enabled>TRUE</enabled>
									<locked>FALSE</locked>
									<outputchannelindex>2</outputchannelindex>
								</track>
								<track TL.SQTrackAudioKeyframeStyle="0" TL.SQTrackShy="0" TL.SQTrackExpandedHeight="25" TL.SQTrackExpanded="0" MZ.TrackTargeted="1" PannerCurrentValue="0.5" PannerIsInverted="true" PannerStartKeyframe="-91445760000000000,0.5,0,0,0,0,0,0" PannerName="Balance" currentExplodedTrackIndex="0" totalExplodedTrackCount="2" premiereTrackType="Stereo">
									<clipitem id="clipitem-718" premiereChannelType="stereo">
										<masterclipid>masterclip-19</masterclipid>
										<name>Intro</name>
										<enabled>TRUE</enabled>
										<duration>160</duration>
										<rate>
											<timebase>30</timebase>
											<ntsc>TRUE</ntsc>
										</rate>
										<start>0</start>
										<end>115</end>
										<in>0</in>
										<out>115</out>
										<pproTicksIn>0</pproTicksIn>
										<pproTicksOut>974701728000</pproTicksOut>
										<sequence id="sequence-4"/>
										<sourcetrack>
											<mediatype>audio</mediatype>
											<trackindex>0</trackindex>
										</sourcetrack>
											<marker>
												<comment></comment>
												<name></name>
												<in>82</in>
												<out>-1</out>
											</marker>
										<link>
											<linkclipref>clipitem-711</linkclipref>
											<mediatype>video</mediatype>
											<trackindex>4</trackindex>
											<clipindex>1</clipindex>
										</link>
										<link>
											<linkclipref>clipitem-718</linkclipref>
											<mediatype>audio</mediatype>
											<trackindex>3</trackindex>
											<clipindex>1</clipindex>
											<groupindex>1</groupindex>
										</link>
										<link>
											<linkclipref>clipitem-721</linkclipref>
											<mediatype>audio</mediatype>
											<trackindex>4</trackindex>
											<clipindex>1</clipindex>
											<groupindex>1</groupindex>
										</link>
										<labels>
											<label2>Forest</label2>
										</labels>
									</clipitem>
									<clipitem id="clipitem-719" premiereChannelType="stereo">
										<masterclipid>masterclip-42</masterclipid>
										<name>Transition 1</name>
										<enabled>TRUE</enabled>
										<duration>160</duration>
										<rate>
											<timebase>30</timebase>
											<ntsc>TRUE</ntsc>
										</rate>
										<start>2422</start>
										<end>2540</end>
										<in>0</in>
										<out>118</out>
										<pproTicksIn>0</pproTicksIn>
										<pproTicksOut>1000128729600</pproTicksOut>
										<sequence id="sequence-11"/>
										<sourcetrack>
											<mediatype>audio</mediatype>
											<trackindex>0</trackindex>
										</sourcetrack>
											<marker>
												<comment></comment>
												<name></name>
												<in>56</in>
												<out>-1</out>
											</marker>
										<link>
											<linkclipref>clipitem-712</linkclipref>
											<mediatype>video</mediatype>
											<trackindex>4</trackindex>
											<clipindex>2</clipindex>
										</link>
										<link>
											<linkclipref>clipitem-719</linkclipref>
											<mediatype>audio</mediatype>
											<trackindex>3</trackindex>
											<clipindex>2</clipindex>
											<groupindex>1</groupindex>
										</link>
										<link>
											<linkclipref>clipitem-722</linkclipref>
											<mediatype>audio</mediatype>
											<trackindex>4</trackindex>
											<clipindex>2</clipindex>
											<groupindex>1</groupindex>
										</link>
										<labels>
											<label2>Forest</label2>
										</labels>
									</clipitem>
									<clipitem id="clipitem-720" premiereChannelType="stereo">
										<masterclipid>masterclip-23</masterclipid>
										<name>Outro</name>
										<enabled>TRUE</enabled>
										<duration>160</duration>
										<rate>
											<timebase>30</timebase>
											<ntsc>TRUE</ntsc>
										</rate>
										<start>5182</start>
										<end>5319</end>
										<in>0</in>
										<out>137</out>
										<pproTicksIn>0</pproTicksIn>
										<pproTicksOut>1161166406400</pproTicksOut>
										<sequence id="sequence-6"/>
										<sourcetrack>
											<mediatype>audio</mediatype>
											<trackindex>0</trackindex>
										</sourcetrack>
											<marker>
												<comment></comment>
												<name></name>
												<in>42</in>
												<out>-1</out>
											</marker>
										<link>
											<linkclipref>clipitem-713</linkclipref>
											<mediatype>video</mediatype>
											<trackindex>4</trackindex>
											<clipindex>3</clipindex>
										</link>
										<link>
											<linkclipref>clipitem-720</linkclipref>
											<mediatype>audio</mediatype>
											<trackindex>3</trackindex>
											<clipindex>3</clipindex>
											<groupindex>1</groupindex>
										</link>
										<link>
											<linkclipref>clipitem-723</linkclipref>
											<mediatype>audio</mediatype>
											<trackindex>4</trackindex>
											<clipindex>3</clipindex>
											<groupindex>1</groupindex>
										</link>
										<labels>
											<label2>Forest</label2>
										</labels>
									</clipitem>
									<enabled>TRUE</enabled>
									<locked>FALSE</locked>
									<outputchannelindex>1</outputchannelindex>
								</track>
								<track TL.SQTrackAudioKeyframeStyle="0" TL.SQTrackShy="0" TL.SQTrackExpandedHeight="25" TL.SQTrackExpanded="0" MZ.TrackTargeted="1" PannerCurrentValue="0.5" PannerIsInverted="true" PannerStartKeyframe="-91445760000000000,0.5,0,0,0,0,0,0" PannerName="Balance" currentExplodedTrackIndex="1" totalExplodedTrackCount="2" premiereTrackType="Stereo">
									<clipitem id="clipitem-721" premiereChannelType="stereo">
										<masterclipid>masterclip-19</masterclipid>
										<name>Intro</name>
										<enabled>TRUE</enabled>
										<duration>160</duration>
										<rate>
											<timebase>30</timebase>
											<ntsc>TRUE</ntsc>
										</rate>
										<start>0</start>
										<end>115</end>
										<in>0</in>
										<out>115</out>
										<pproTicksIn>0</pproTicksIn>
										<pproTicksOut>974701728000</pproTicksOut>
										<sequence id="sequence-4"/>
										<sourcetrack>
											<mediatype>audio</mediatype>
											<trackindex>1</trackindex>
										</sourcetrack>
											<marker>
												<comment></comment>
												<name></name>
												<in>82</in>
												<out>-1</out>
											</marker>
										<link>
											<linkclipref>clipitem-711</linkclipref>
											<mediatype>video</mediatype>
											<trackindex>4</trackindex>
											<clipindex>1</clipindex>
										</link>
										<link>
											<linkclipref>clipitem-718</linkclipref>
											<mediatype>audio</mediatype>
											<trackindex>3</trackindex>
											<clipindex>1</clipindex>
											<groupindex>1</groupindex>
										</link>
										<link>
											<linkclipref>clipitem-721</linkclipref>
											<mediatype>audio</mediatype>
											<trackindex>4</trackindex>
											<clipindex>1</clipindex>
											<groupindex>1</groupindex>
										</link>
										<labels>
											<label2>Forest</label2>
										</labels>
									</clipitem>
									<clipitem id="clipitem-722" premiereChannelType="stereo">
										<masterclipid>masterclip-42</masterclipid>
										<name>Transition 1</name>
										<enabled>TRUE</enabled>
										<duration>160</duration>
										<rate>
											<timebase>30</timebase>
											<ntsc>TRUE</ntsc>
										</rate>
										<start>2422</start>
										<end>2540</end>
										<in>0</in>
										<out>118</out>
										<pproTicksIn>0</pproTicksIn>
										<pproTicksOut>1000128729600</pproTicksOut>
										<sequence id="sequence-11"/>
										<sourcetrack>
											<mediatype>audio</mediatype>
											<trackindex>1</trackindex>
										</sourcetrack>
											<marker>
												<comment></comment>
												<name></name>
												<in>56</in>
												<out>-1</out>
											</marker>
										<link>
											<linkclipref>clipitem-712</linkclipref>
											<mediatype>video</mediatype>
											<trackindex>4</trackindex>
											<clipindex>2</clipindex>
										</link>
										<link>
											<linkclipref>clipitem-719</linkclipref>
											<mediatype>audio</mediatype>
											<trackindex>3</trackindex>
											<clipindex>2</clipindex>
											<groupindex>1</groupindex>
										</link>
										<link>
											<linkclipref>clipitem-722</linkclipref>
											<mediatype>audio</mediatype>
											<trackindex>4</trackindex>
											<clipindex>2</clipindex>
											<groupindex>1</groupindex>
										</link>
										<labels>
											<label2>Forest</label2>
										</labels>
									</clipitem>
									<clipitem id="clipitem-723" premiereChannelType="stereo">
										<masterclipid>masterclip-23</masterclipid>
										<name>Outro</name>
										<enabled>TRUE</enabled>
										<duration>160</duration>
										<rate>
											<timebase>30</timebase>
											<ntsc>TRUE</ntsc>
										</rate>
										<start>5182</start>
										<end>5319</end>
										<in>0</in>
										<out>137</out>
										<pproTicksIn>0</pproTicksIn>
										<pproTicksOut>1161166406400</pproTicksOut>
										<sequence id="sequence-6"/>
										<sourcetrack>
											<mediatype>audio</mediatype>
											<trackindex>1</trackindex>
										</sourcetrack>
											<marker>
												<comment></comment>
												<name></name>
												<in>42</in>
												<out>-1</out>
											</marker>
										<link>
											<linkclipref>clipitem-713</linkclipref>
											<mediatype>video</mediatype>
											<trackindex>4</trackindex>
											<clipindex>3</clipindex>
										</link>
										<link>
											<linkclipref>clipitem-720</linkclipref>
											<mediatype>audio</mediatype>
											<trackindex>3</trackindex>
											<clipindex>3</clipindex>
											<groupindex>1</groupindex>
										</link>
										<link>
											<linkclipref>clipitem-723</linkclipref>
											<mediatype>audio</mediatype>
											<trackindex>4</trackindex>
											<clipindex>3</clipindex>
											<groupindex>1</groupindex>
										</link>
										<labels>
											<label2>Forest</label2>
										</labels>
									</clipitem>
									<enabled>TRUE</enabled>
									<locked>FALSE</locked>
									<outputchannelindex>2</outputchannelindex>
								</track>
								<track TL.SQTrackAudioKeyframeStyle="0" TL.SQTrackShy="0" TL.SQTrackExpandedHeight="25" TL.SQTrackExpanded="0" MZ.TrackTargeted="1" PannerCurrentValue="0.5" PannerIsInverted="true" PannerStartKeyframe="-91445760000000000,0.5,0,0,0,0,0,0" PannerName="Balance" currentExplodedTrackIndex="0" totalExplodedTrackCount="2" premiereTrackType="Stereo">
									<enabled>TRUE</enabled>
									<locked>FALSE</locked>
									<outputchannelindex>1</outputchannelindex>
								</track>
								<track TL.SQTrackAudioKeyframeStyle="0" TL.SQTrackShy="0" TL.SQTrackExpandedHeight="25" TL.SQTrackExpanded="0" MZ.TrackTargeted="1" PannerCurrentValue="0.5" PannerIsInverted="true" PannerStartKeyframe="-91445760000000000,0.5,0,0,0,0,0,0" PannerName="Balance" currentExplodedTrackIndex="1" totalExplodedTrackCount="2" premiereTrackType="Stereo">
									<enabled>TRUE</enabled>
									<locked>FALSE</locked>
									<outputchannelindex>2</outputchannelindex>
								</track>
							</audio>
						</media>
						<timecode>
							<rate>
								<timebase>30</timebase>
								<ntsc>TRUE</ntsc>
							</rate>
							<string>00;00;00;00</string>
							<frame>0</frame>
							<displayformat>DF</displayformat>
						</timecode>
						<labels>
							<label2>Forest</label2>
						</labels>
						<logginginfo>
							<description></description>
							<scene></scene>
							<shottake></shottake>
							<lognote></lognote>
							<good></good>
							<originalvideofilename></originalvideofilename>
							<originalaudiofilename></originalaudiofilename>
						</logginginfo>
					</sequence>
					<sequence id="sequence-51" TL.SQAudioVisibleBase="0" TL.SQVideoVisibleBase="0" TL.SQVisibleBaseTime="0" TL.SQAVDividerPosition="0.5" TL.SQHideShyTracks="0" TL.SQHeaderWidth="236" Monitor.ProgramZoomOut="609917487379200" Monitor.ProgramZoomIn="0" TL.SQTimePerPixel="2.1630652240542312" AM.TrackVScrollPosition="0" AM.TrackScrollPosition="0" MZ.EditLine="344993557708800" MZ.Sequence.PreviewFrameSizeHeight="1080" MZ.Sequence.PreviewFrameSizeWidth="1920" MZ.Sequence.AudioTimeDisplayFormat="200" MZ.Sequence.PreviewRenderingClassID="1061109567" MZ.Sequence.PreviewRenderingPresetCodec="1634755443" MZ.Sequence.PreviewRenderingPresetPath="EncoderPresets/SequencePreview/35d109db-457b-43c1-9452-9cb7be9f121c/QuickTime.epr" MZ.Sequence.PreviewUseMaxRenderQuality="false" MZ.Sequence.PreviewUseMaxBitDepth="false" MZ.Sequence.EditingModeGUID="35d109db-457b-43c1-9452-9cb7be9f121c" MZ.Sequence.VideoTimeDisplayFormat="102" MZ.WorkOutPoint="15239249625600" MZ.WorkInPoint="0" explodedTracks="true">
						<uuid>e56de4dc-518c-4b42-80e9-b4c744aba57a</uuid>
						<duration>71961</duration>
						<rate>
							<timebase>30</timebase>
							<ntsc>TRUE</ntsc>
						</rate>
						<name>00_EDL Sequence</name>
						<media>
							<video>
								<format>
									<samplecharacteristics>
										<rate>
											<timebase>30</timebase>
											<ntsc>TRUE</ntsc>
										</rate>
										<codec>
											<name>Apple ProRes 422</name>
											<appspecificdata>
												<appname>Final Cut Pro</appname>
												<appmanufacturer>Apple Inc.</appmanufacturer>
												<appversion>7.0</appversion>
												<data>
													<qtcodec>
														<codecname>Apple ProRes 422</codecname>
														<codectypename>Apple ProRes 422</codectypename>
														<codectypecode>apcn</codectypecode>
														<codecvendorcode>appl</codecvendorcode>
														<spatialquality>1024</spatialquality>
														<temporalquality>0</temporalquality>
														<keyframerate>0</keyframerate>
														<datarate>0</datarate>
													</qtcodec>
												</data>
											</appspecificdata>
										</codec>
										<width>1920</width>
										<height>1080</height>
										<anamorphic>FALSE</anamorphic>
										<pixelaspectratio>square</pixelaspectratio>
										<fielddominance>none</fielddominance>
										<colordepth>24</colordepth>
									</samplecharacteristics>
								</format>
								<track TL.SQTrackShy="0" TL.SQTrackExpandedHeight="25" TL.SQTrackExpanded="0" MZ.TrackTargeted="1">
									<clipitem id="clipitem-724">
										<masterclipid>masterclip-161</masterclipid>
										<name>23394_Woman placing waffle rolls on sheet_By_Omri_Ohana_Artlist_HD.mp4</name>
										<enabled>TRUE</enabled>
										<duration>252</duration>
										<rate>
											<timebase>30</timebase>
											<ntsc>TRUE</ntsc>
										</rate>
										<start>0</start>
										<end>252</end>
										<in>0</in>
										<out>252</out>
										<pproTicksIn>0</pproTicksIn>
										<pproTicksOut>2135868134400</pproTicksOut>
										<alphatype>none</alphatype>
										<file id="file-138"/>
										<filter>
											<effect>
												<name>Basic Motion</name>
												<effectid>basic</effectid>
												<effectcategory>motion</effectcategory>
												<effecttype>motion</effecttype>
												<mediatype>video</mediatype>
												<pproBypass>false</pproBypass>
												<parameter authoringApp="PremierePro">
													<parameterid>scale</parameterid>
													<name>Scale</name>
													<valuemin>0</valuemin>
													<valuemax>1000</valuemax>
													<value>120</value>
												</parameter>
												<parameter authoringApp="PremierePro">
													<parameterid>rotation</parameterid>
													<name>Rotation</name>
													<valuemin>-8640</valuemin>
													<valuemax>8640</valuemax>
													<value>0</value>
												</parameter>
												<parameter authoringApp="PremierePro">
													<parameterid>center</parameterid>
													<name>Center</name>
													<value>
														<horiz>0</horiz>
														<vert>0</vert>
													</value>
												</parameter>
												<parameter authoringApp="PremierePro">
													<parameterid>centerOffset</parameterid>
													<name>Anchor Point</name>
													<value>
														<horiz>0</horiz>
														<vert>0</vert>
													</value>
												</parameter>
												<parameter authoringApp="PremierePro">
													<parameterid>antiflicker</parameterid>
													<name>Anti-flicker Filter</name>
													<valuemin>0.0</valuemin>
													<valuemax>1.0</valuemax>
													<value>0</value>
												</parameter>
											</effect>
										</filter>
										<logginginfo>
											<description></description>
											<scene></scene>
											<shottake></shottake>
											<lognote></lognote>
											<good></good>
											<originalvideofilename></originalvideofilename>
											<originalaudiofilename></originalaudiofilename>
										</logginginfo>
										<colorinfo>
											<lut></lut>
											<lut1></lut1>
											<asc_sop></asc_sop>
											<asc_sat></asc_sat>
											<lut2></lut2>
										</colorinfo>
										<labels>
											<label2>Violet</label2>
										</labels>
									</clipitem>
									<clipitem id="clipitem-725">
										<masterclipid>masterclip-162</masterclipid>
										<name>23427_Girl places cream filled waffle cones on tray_By_Omri_Ohana_Artlist_HD.mp4</name>
										<enabled>TRUE</enabled>
										<duration>352</duration>
										<rate>
											<timebase>30</timebase>
											<ntsc>TRUE</ntsc>
										</rate>
										<start>252</start>
										<end>407</end>
										<in>143</in>
										<out>298</out>
										<pproTicksIn>1212020409600</pproTicksIn>
										<pproTicksOut>2525748825600</pproTicksOut>
										<alphatype>none</alphatype>
										<file id="file-139"/>
										<filter>
											<effect>
												<name>Basic Motion</name>
												<effectid>basic</effectid>
												<effectcategory>motion</effectcategory>
												<effecttype>motion</effecttype>
												<mediatype>video</mediatype>
												<pproBypass>false</pproBypass>
												<parameter authoringApp="PremierePro">
													<parameterid>scale</parameterid>
													<name>Scale</name>
													<valuemin>0</valuemin>
													<valuemax>1000</valuemax>
													<value>120</value>
												</parameter>
												<parameter authoringApp="PremierePro">
													<parameterid>rotation</parameterid>
													<name>Rotation</name>
													<valuemin>-8640</valuemin>
													<valuemax>8640</valuemax>
													<value>0</value>
												</parameter>
												<parameter authoringApp="PremierePro">
													<parameterid>center</parameterid>
													<name>Center</name>
													<value>
														<horiz>0.0791667</horiz>
														<vert>0</vert>
													</value>
												</parameter>
												<parameter authoringApp="PremierePro">
													<parameterid>centerOffset</parameterid>
													<name>Anchor Point</name>
													<value>
														<horiz>0</horiz>
														<vert>0</vert>
													</value>
												</parameter>
												<parameter authoringApp="PremierePro">
													<parameterid>antiflicker</parameterid>
													<name>Anti-flicker Filter</name>
													<valuemin>0.0</valuemin>
													<valuemax>1.0</valuemax>
													<value>0</value>
												</parameter>
											</effect>
										</filter>
										<logginginfo>
											<description></description>
											<scene></scene>
											<shottake></shottake>
											<lognote></lognote>
											<good></good>
											<originalvideofilename></originalvideofilename>
											<originalaudiofilename></originalaudiofilename>
										</logginginfo>
										<colorinfo>
											<lut></lut>
											<lut1></lut1>
											<asc_sop></asc_sop>
											<asc_sat></asc_sat>
											<lut2></lut2>
										</colorinfo>
										<labels>
											<label2>Violet</label2>
										</labels>
									</clipitem>
									<clipitem id="clipitem-726">
										<masterclipid>masterclip-163</masterclipid>
										<name>23357_Tasty treats filled with cream_By_Omri_Ohana_Artlist_HD.mp4</name>
										<enabled>TRUE</enabled>
										<duration>194</duration>
										<rate>
											<timebase>30</timebase>
											<ntsc>TRUE</ntsc>
										</rate>
										<start>407</start>
										<end>534</end>
										<in>0</in>
										<out>127</out>
										<pproTicksIn>0</pproTicksIn>
										<pproTicksOut>1076409734400</pproTicksOut>
										<alphatype>none</alphatype>
										<file id="file-140"/>
										<filter>
											<effect>
												<name>Basic Motion</name>
												<effectid>basic</effectid>
												<effectcategory>motion</effectcategory>
												<effecttype>motion</effecttype>
												<mediatype>video</mediatype>
												<pproBypass>false</pproBypass>
												<parameter authoringApp="PremierePro">
													<parameterid>scale</parameterid>
													<name>Scale</name>
													<valuemin>0</valuemin>
													<valuemax>1000</valuemax>
													<value>120</value>
												</parameter>
												<parameter authoringApp="PremierePro">
													<parameterid>rotation</parameterid>
													<name>Rotation</name>
													<valuemin>-8640</valuemin>
													<valuemax>8640</valuemax>
													<value>0</value>
												</parameter>
												<parameter authoringApp="PremierePro">
													<parameterid>center</parameterid>
													<name>Center</name>
													<value>
														<horiz>0</horiz>
														<vert>0</vert>
													</value>
												</parameter>
												<parameter authoringApp="PremierePro">
													<parameterid>centerOffset</parameterid>
													<name>Anchor Point</name>
													<value>
														<horiz>0</horiz>
														<vert>0</vert>
													</value>
												</parameter>
												<parameter authoringApp="PremierePro">
													<parameterid>antiflicker</parameterid>
													<name>Anti-flicker Filter</name>
													<valuemin>0.0</valuemin>
													<valuemax>1.0</valuemax>
													<value>0</value>
												</parameter>
											</effect>
										</filter>
										<logginginfo>
											<description></description>
											<scene></scene>
											<shottake></shottake>
											<lognote></lognote>
											<good></good>
											<originalvideofilename></originalvideofilename>
											<originalaudiofilename></originalaudiofilename>
										</logginginfo>
										<colorinfo>
											<lut></lut>
											<lut1></lut1>
											<asc_sop></asc_sop>
											<asc_sat></asc_sat>
											<lut2></lut2>
										</colorinfo>
										<labels>
											<label2>Violet</label2>
										</labels>
									</clipitem>
									<clipitem id="clipitem-727">
										<masterclipid>masterclip-164</masterclipid>
										<name>23384_Dipping cream filled waffle in chocolate _By_Omri_Ohana_Artlist_HD.mp4</name>
										<enabled>TRUE</enabled>
										<duration>278</duration>
										<rate>
											<timebase>30</timebase>
											<ntsc>TRUE</ntsc>
										</rate>
										<start>534</start>
										<end>754</end>
										<in>0</in>
										<out>220</out>
										<pproTicksIn>0</pproTicksIn>
										<pproTicksOut>1864646784000</pproTicksOut>
										<alphatype>none</alphatype>
										<file id="file-141"/>
										<filter>
											<effect>
												<name>Basic Motion</name>
												<effectid>basic</effectid>
												<effectcategory>motion</effectcategory>
												<effecttype>motion</effecttype>
												<mediatype>video</mediatype>
												<pproBypass>false</pproBypass>
												<parameter authoringApp="PremierePro">
													<parameterid>scale</parameterid>
													<name>Scale</name>
													<valuemin>0</valuemin>
													<valuemax>1000</valuemax>
													<value>120</value>
												</parameter>
												<parameter authoringApp="PremierePro">
													<parameterid>rotation</parameterid>
													<name>Rotation</name>
													<valuemin>-8640</valuemin>
													<valuemax>8640</valuemax>
													<value>0</value>
												</parameter>
												<parameter authoringApp="PremierePro">
													<parameterid>center</parameterid>
													<name>Center</name>
													<value>
														<horiz>0</horiz>
														<vert>0</vert>
													</value>
												</parameter>
												<parameter authoringApp="PremierePro">
													<parameterid>centerOffset</parameterid>
													<name>Anchor Point</name>
													<value>
														<horiz>0</horiz>
														<vert>0</vert>
													</value>
												</parameter>
												<parameter authoringApp="PremierePro">
													<parameterid>antiflicker</parameterid>
													<name>Anti-flicker Filter</name>
													<valuemin>0.0</valuemin>
													<valuemax>1.0</valuemax>
													<value>0</value>
												</parameter>
											</effect>
										</filter>
										<logginginfo>
											<description></description>
											<scene></scene>
											<shottake></shottake>
											<lognote></lognote>
											<good></good>
											<originalvideofilename></originalvideofilename>
											<originalaudiofilename></originalaudiofilename>
										</logginginfo>
										<colorinfo>
											<lut></lut>
											<lut1></lut1>
											<asc_sop></asc_sop>
											<asc_sat></asc_sat>
											<lut2></lut2>
										</colorinfo>
										<labels>
											<label2>Violet</label2>
										</labels>
									</clipitem>
									<clipitem id="clipitem-728">
										<masterclipid>masterclip-165</masterclipid>
										<name>23422_Woman dipping waffle cone into dark chocolate _By_Omri_Ohana_Artlist_HD.mp4</name>
										<enabled>TRUE</enabled>
										<duration>219</duration>
										<rate>
											<timebase>30</timebase>
											<ntsc>TRUE</ntsc>
										</rate>
										<start>754</start>
										<end>869</end>
										<in>74</in>
										<out>189</out>
										<pproTicksIn>627199372800</pproTicksIn>
										<pproTicksOut>1601901100800</pproTicksOut>
										<alphatype>none</alphatype>
										<file id="file-142"/>
										<filter>
											<effect>
												<name>Basic Motion</name>
												<effectid>basic</effectid>
												<effectcategory>motion</effectcategory>
												<effecttype>motion</effecttype>
												<mediatype>video</mediatype>
												<pproBypass>false</pproBypass>
												<parameter authoringApp="PremierePro">
													<parameterid>scale</parameterid>
													<name>Scale</name>
													<valuemin>0</valuemin>
													<valuemax>1000</valuemax>
													<value>120</value>
												</parameter>
												<parameter authoringApp="PremierePro">
													<parameterid>rotation</parameterid>
													<name>Rotation</name>
													<valuemin>-8640</valuemin>
													<valuemax>8640</valuemax>
													<value>0</value>
												</parameter>
												<parameter authoringApp="PremierePro">
													<parameterid>center</parameterid>
													<name>Center</name>
													<value>
														<horiz>0</horiz>
														<vert>0</vert>
													</value>
												</parameter>
												<parameter authoringApp="PremierePro">
													<parameterid>centerOffset</parameterid>
													<name>Anchor Point</name>
													<value>
														<horiz>0</horiz>
														<vert>0</vert>
													</value>
												</parameter>
												<parameter authoringApp="PremierePro">
													<parameterid>antiflicker</parameterid>
													<name>Anti-flicker Filter</name>
													<valuemin>0.0</valuemin>
													<valuemax>1.0</valuemax>
													<value>0</value>
												</parameter>
											</effect>
										</filter>
										<logginginfo>
											<description></description>
											<scene></scene>
											<shottake></shottake>
											<lognote></lognote>
											<good></good>
											<originalvideofilename></originalvideofilename>
											<originalaudiofilename></originalaudiofilename>
										</logginginfo>
										<colorinfo>
											<lut></lut>
											<lut1></lut1>
											<asc_sop></asc_sop>
											<asc_sat></asc_sat>
											<lut2></lut2>
										</colorinfo>
										<labels>
											<label2>Violet</label2>
										</labels>
									</clipitem>
									<clipitem id="clipitem-729">
										<masterclipid>masterclip-166</masterclipid>
										<name>23417_Twisting waffle cone with chocolate _By_Omri_Ohana_Artlist_HD.mp4</name>
										<enabled>TRUE</enabled>
										<duration>137</duration>
										<rate>
											<timebase>30</timebase>
											<ntsc>TRUE</ntsc>
										</rate>
										<start>869</start>
										<end>1006</end>
										<in>0</in>
										<out>137</out>
										<pproTicksIn>0</pproTicksIn>
										<pproTicksOut>1161166406400</pproTicksOut>
										<alphatype>none</alphatype>
										<file id="file-143"/>
										<filter>
											<effect>
												<name>Basic Motion</name>
												<effectid>basic</effectid>
												<effectcategory>motion</effectcategory>
												<effecttype>motion</effecttype>
												<mediatype>video</mediatype>
												<pproBypass>false</pproBypass>
												<parameter authoringApp="PremierePro">
													<parameterid>scale</parameterid>
													<name>Scale</name>
													<valuemin>0</valuemin>
													<valuemax>1000</valuemax>
													<value>120</value>
												</parameter>
												<parameter authoringApp="PremierePro">
													<parameterid>rotation</parameterid>
													<name>Rotation</name>
													<valuemin>-8640</valuemin>
													<valuemax>8640</valuemax>
													<value>0</value>
												</parameter>
												<parameter authoringApp="PremierePro">
													<parameterid>center</parameterid>
													<name>Center</name>
													<value>
														<horiz>0</horiz>
														<vert>0</vert>
													</value>
												</parameter>
												<parameter authoringApp="PremierePro">
													<parameterid>centerOffset</parameterid>
													<name>Anchor Point</name>
													<value>
														<horiz>0</horiz>
														<vert>0</vert>
													</value>
												</parameter>
												<parameter authoringApp="PremierePro">
													<parameterid>antiflicker</parameterid>
													<name>Anti-flicker Filter</name>
													<valuemin>0.0</valuemin>
													<valuemax>1.0</valuemax>
													<value>0</value>
												</parameter>
											</effect>
										</filter>
										<logginginfo>
											<description></description>
											<scene></scene>
											<shottake></shottake>
											<lognote></lognote>
											<good></good>
											<originalvideofilename></originalvideofilename>
											<originalaudiofilename></originalaudiofilename>
										</logginginfo>
										<colorinfo>
											<lut></lut>
											<lut1></lut1>
											<asc_sop></asc_sop>
											<asc_sat></asc_sat>
											<lut2></lut2>
										</colorinfo>
										<labels>
											<label2>Violet</label2>
										</labels>
									</clipitem>
									<clipitem id="clipitem-730">
										<masterclipid>masterclip-167</masterclipid>
										<name>23436_Chocolate covered waffle cone dipped in nuts _By_Omri_Ohana_Artlist_HD.mp4</name>
										<enabled>TRUE</enabled>
										<duration>370</duration>
										<rate>
											<timebase>30</timebase>
											<ntsc>TRUE</ntsc>
										</rate>
										<start>1006</start>
										<end>1225</end>
										<in>0</in>
										<out>219</out>
										<pproTicksIn>0</pproTicksIn>
										<pproTicksOut>1856171116800</pproTicksOut>
										<alphatype>none</alphatype>
										<file id="file-144"/>
										<filter>
											<effect>
												<name>Basic Motion</name>
												<effectid>basic</effectid>
												<effectcategory>motion</effectcategory>
												<effecttype>motion</effecttype>
												<mediatype>video</mediatype>
												<pproBypass>false</pproBypass>
												<parameter authoringApp="PremierePro">
													<parameterid>scale</parameterid>
													<name>Scale</name>
													<valuemin>0</valuemin>
													<valuemax>1000</valuemax>
													<value>120</value>
												</parameter>
												<parameter authoringApp="PremierePro">
													<parameterid>rotation</parameterid>
													<name>Rotation</name>
													<valuemin>-8640</valuemin>
													<valuemax>8640</valuemax>
													<value>0</value>
												</parameter>
												<parameter authoringApp="PremierePro">
													<parameterid>center</parameterid>
													<name>Center</name>
													<value>
														<horiz>0</horiz>
														<vert>0</vert>
													</value>
												</parameter>
												<parameter authoringApp="PremierePro">
													<parameterid>centerOffset</parameterid>
													<name>Anchor Point</name>
													<value>
														<horiz>0</horiz>
														<vert>0</vert>
													</value>
												</parameter>
												<parameter authoringApp="PremierePro">
													<parameterid>antiflicker</parameterid>
													<name>Anti-flicker Filter</name>
													<valuemin>0.0</valuemin>
													<valuemax>1.0</valuemax>
													<value>0</value>
												</parameter>
											</effect>
										</filter>
										<logginginfo>
											<description></description>
											<scene></scene>
											<shottake></shottake>
											<lognote></lognote>
											<good></good>
											<originalvideofilename></originalvideofilename>
											<originalaudiofilename></originalaudiofilename>
										</logginginfo>
										<colorinfo>
											<lut></lut>
											<lut1></lut1>
											<asc_sop></asc_sop>
											<asc_sat></asc_sat>
											<lut2></lut2>
										</colorinfo>
										<labels>
											<label2>Violet</label2>
										</labels>
									</clipitem>
									<clipitem id="clipitem-731">
										<masterclipid>masterclip-168</masterclipid>
										<name>23359_Waffle dessert covered in chocolate rolled in nuts_By_Omri_Ohana_Artlist_HD.mp4</name>
										<enabled>TRUE</enabled>
										<duration>228</duration>
										<rate>
											<timebase>30</timebase>
											<ntsc>TRUE</ntsc>
										</rate>
										<start>1225</start>
										<end>1350</end>
										<in>34</in>
										<out>159</out>
										<pproTicksIn>288172684800</pproTicksIn>
										<pproTicksOut>1347631084800</pproTicksOut>
										<alphatype>none</alphatype>
										<file id="file-145"/>
										<filter>
											<effect>
												<name>Basic Motion</name>
												<effectid>basic</effectid>
												<effectcategory>motion</effectcategory>
												<effecttype>motion</effecttype>
												<mediatype>video</mediatype>
												<pproBypass>false</pproBypass>
												<parameter authoringApp="PremierePro">
													<parameterid>scale</parameterid>
													<name>Scale</name>
													<valuemin>0</valuemin>
													<valuemax>1000</valuemax>
													<value>120</value>
												</parameter>
												<parameter authoringApp="PremierePro">
													<parameterid>rotation</parameterid>
													<name>Rotation</name>
													<valuemin>-8640</valuemin>
													<valuemax>8640</valuemax>
													<value>0</value>
												</parameter>
												<parameter authoringApp="PremierePro">
													<parameterid>center</parameterid>
													<name>Center</name>
													<value>
														<horiz>0</horiz>
														<vert>0</vert>
													</value>
												</parameter>
												<parameter authoringApp="PremierePro">
													<parameterid>centerOffset</parameterid>
													<name>Anchor Point</name>
													<value>
														<horiz>0</horiz>
														<vert>0</vert>
													</value>
												</parameter>
												<parameter authoringApp="PremierePro">
													<parameterid>antiflicker</parameterid>
													<name>Anti-flicker Filter</name>
													<valuemin>0.0</valuemin>
													<valuemax>1.0</valuemax>
													<value>0</value>
												</parameter>
											</effect>
										</filter>
										<logginginfo>
											<description></description>
											<scene></scene>
											<shottake></shottake>
											<lognote></lognote>
											<good></good>
											<originalvideofilename></originalvideofilename>
											<originalaudiofilename></originalaudiofilename>
										</logginginfo>
										<colorinfo>
											<lut></lut>
											<lut1></lut1>
											<asc_sop></asc_sop>
											<asc_sat></asc_sat>
											<lut2></lut2>
										</colorinfo>
										<labels>
											<label2>Violet</label2>
										</labels>
									</clipitem>
									<clipitem id="clipitem-732">
										<masterclipid>masterclip-169</masterclipid>
										<name>23354_Waffle roll dipped into chocolate rolled in nuts_By_Omri_Ohana_Artlist_HD.mp4</name>
										<enabled>TRUE</enabled>
										<duration>256</duration>
										<rate>
											<timebase>30</timebase>
											<ntsc>TRUE</ntsc>
										</rate>
										<start>1350</start>
										<end>1549</end>
										<in>57</in>
										<out>256</out>
										<pproTicksIn>483113030400</pproTicksIn>
										<pproTicksOut>2169770803200</pproTicksOut>
										<alphatype>none</alphatype>
										<file id="file-146"/>
										<filter>
											<effect>
												<name>Basic Motion</name>
												<effectid>basic</effectid>
												<effectcategory>motion</effectcategory>
												<effecttype>motion</effecttype>
												<mediatype>video</mediatype>
												<pproBypass>false</pproBypass>
												<parameter authoringApp="PremierePro">
													<parameterid>scale</parameterid>
													<name>Scale</name>
													<valuemin>0</valuemin>
													<valuemax>1000</valuemax>
													<value>120</value>
												</parameter>
												<parameter authoringApp="PremierePro">
													<parameterid>rotation</parameterid>
													<name>Rotation</name>
													<valuemin>-8640</valuemin>
													<valuemax>8640</valuemax>
													<value>0</value>
												</parameter>
												<parameter authoringApp="PremierePro">
													<parameterid>center</parameterid>
													<name>Center</name>
													<value>
														<horiz>0</horiz>
														<vert>0</vert>
													</value>
												</parameter>
												<parameter authoringApp="PremierePro">
													<parameterid>centerOffset</parameterid>
													<name>Anchor Point</name>
													<value>
														<horiz>0</horiz>
														<vert>0</vert>
													</value>
												</parameter>
												<parameter authoringApp="PremierePro">
													<parameterid>antiflicker</parameterid>
													<name>Anti-flicker Filter</name>
													<valuemin>0.0</valuemin>
													<valuemax>1.0</valuemax>
													<value>0</value>
												</parameter>
											</effect>
										</filter>
										<logginginfo>
											<description></description>
											<scene></scene>
											<shottake></shottake>
											<lognote></lognote>
											<good></good>
											<originalvideofilename></originalvideofilename>
											<originalaudiofilename></originalaudiofilename>
										</logginginfo>
										<colorinfo>
											<lut></lut>
											<lut1></lut1>
											<asc_sop></asc_sop>
											<asc_sat></asc_sat>
											<lut2></lut2>
										</colorinfo>
										<labels>
											<label2>Violet</label2>
										</labels>
									</clipitem>
									<clipitem id="clipitem-733">
										<masterclipid>masterclip-170</masterclipid>
										<name>23373_Woman pulling tray of desserts _By_Omri_Ohana_Artlist_HD.mp4</name>
										<enabled>TRUE</enabled>
										<duration>200</duration>
										<rate>
											<timebase>30</timebase>
											<ntsc>TRUE</ntsc>
										</rate>
										<start>1549</start>
										<end>1749</end>
										<in>0</in>
										<out>200</out>
										<pproTicksIn>0</pproTicksIn>
										<pproTicksOut>1695133440000</pproTicksOut>
										<alphatype>none</alphatype>
										<file id="file-147"/>
										<filter>
											<effect>
												<name>Basic Motion</name>
												<effectid>basic</effectid>
												<effectcategory>motion</effectcategory>
												<effecttype>motion</effecttype>
												<mediatype>video</mediatype>
												<pproBypass>false</pproBypass>
												<parameter authoringApp="PremierePro">
													<parameterid>scale</parameterid>
													<name>Scale</name>
													<valuemin>0</valuemin>
													<valuemax>1000</valuemax>
													<value>120</value>
												</parameter>
												<parameter authoringApp="PremierePro">
													<parameterid>rotation</parameterid>
													<name>Rotation</name>
													<valuemin>-8640</valuemin>
													<valuemax>8640</valuemax>
													<value>0</value>
												</parameter>
												<parameter authoringApp="PremierePro">
													<parameterid>center</parameterid>
													<name>Center</name>
													<value>
														<horiz>0</horiz>
														<vert>0</vert>
													</value>
												</parameter>
												<parameter authoringApp="PremierePro">
													<parameterid>centerOffset</parameterid>
													<name>Anchor Point</name>
													<value>
														<horiz>0</horiz>
														<vert>0</vert>
													</value>
												</parameter>
												<parameter authoringApp="PremierePro">
													<parameterid>antiflicker</parameterid>
													<name>Anti-flicker Filter</name>
													<valuemin>0.0</valuemin>
													<valuemax>1.0</valuemax>
													<value>0</value>
												</parameter>
											</effect>
										</filter>
										<logginginfo>
											<description></description>
											<scene></scene>
											<shottake></shottake>
											<lognote></lognote>
											<good></good>
											<originalvideofilename></originalvideofilename>
											<originalaudiofilename></originalaudiofilename>
										</logginginfo>
										<colorinfo>
											<lut></lut>
											<lut1></lut1>
											<asc_sop></asc_sop>
											<asc_sat></asc_sat>
											<lut2></lut2>
										</colorinfo>
										<labels>
											<label2>Violet</label2>
										</labels>
									</clipitem>
									<clipitem id="clipitem-734">
										<masterclipid>masterclip-173</masterclipid>
										<name>(marygracebread)_7110340178492787970_TT.mp4</name>
										<enabled>TRUE</enabled>
										<duration>1013</duration>
										<rate>
											<timebase>30</timebase>
											<ntsc>TRUE</ntsc>
										</rate>
										<start>1749</start>
										<end>2717</end>
										<in>45</in>
										<out>1013</out>
										<pproTicksIn>381405024000</pproTicksIn>
										<pproTicksOut>8585850873600</pproTicksOut>
										<alphatype>none</alphatype>
										<file id="file-149"/>
										<filter>
											<effect>
												<name>Basic Motion</name>
												<effectid>basic</effectid>
												<effectcategory>motion</effectcategory>
												<effecttype>motion</effecttype>
												<mediatype>video</mediatype>
												<pproBypass>false</pproBypass>
												<parameter authoringApp="PremierePro">
													<parameterid>scale</parameterid>
													<name>Scale</name>
													<valuemin>0</valuemin>
													<valuemax>1000</valuemax>
													<value>100</value>
												</parameter>
												<parameter authoringApp="PremierePro">
													<parameterid>rotation</parameterid>
													<name>Rotation</name>
													<valuemin>-8640</valuemin>
													<valuemax>8640</valuemax>
													<value>0</value>
												</parameter>
												<parameter authoringApp="PremierePro">
													<parameterid>center</parameterid>
													<name>Center</name>
													<value>
														<horiz>0.0243056</horiz>
														<vert>0</vert>
													</value>
												</parameter>
												<parameter authoringApp="PremierePro">
													<parameterid>centerOffset</parameterid>
													<name>Anchor Point</name>
													<value>
														<horiz>0</horiz>
														<vert>0</vert>
													</value>
												</parameter>
												<parameter authoringApp="PremierePro">
													<parameterid>antiflicker</parameterid>
													<name>Anti-flicker Filter</name>
													<valuemin>0.0</valuemin>
													<valuemax>1.0</valuemax>
													<value>0</value>
												</parameter>
											</effect>
										</filter>
										<logginginfo>
											<description></description>
											<scene></scene>
											<shottake></shottake>
											<lognote></lognote>
											<good></good>
											<originalvideofilename></originalvideofilename>
											<originalaudiofilename></originalaudiofilename>
										</logginginfo>
										<colorinfo>
											<lut></lut>
											<lut1></lut1>
											<asc_sop></asc_sop>
											<asc_sat></asc_sat>
											<lut2></lut2>
										</colorinfo>
										<labels>
											<label2>Violet</label2>
										</labels>
									</clipitem>
									<clipitem id="clipitem-735">
										<masterclipid>masterclip-174</masterclipid>
										<name>(goodeatzco)_CBji13IFz7x - 3_IG.mp4</name>
										<enabled>TRUE</enabled>
										<duration>657</duration>
										<rate>
											<timebase>30</timebase>
											<ntsc>TRUE</ntsc>
										</rate>
										<start>2717</start>
										<end>3280</end>
										<in>3</in>
										<out>566</out>
										<pproTicksIn>25427001600</pproTicksIn>
										<pproTicksOut>4797227635200</pproTicksOut>
										<alphatype>none</alphatype>
										<file id="file-150"/>
										<logginginfo>
											<description></description>
											<scene></scene>
											<shottake></shottake>
											<lognote></lognote>
											<good></good>
											<originalvideofilename></originalvideofilename>
											<originalaudiofilename></originalaudiofilename>
										</logginginfo>
										<colorinfo>
											<lut></lut>
											<lut1></lut1>
											<asc_sop></asc_sop>
											<asc_sat></asc_sat>
											<lut2></lut2>
										</colorinfo>
										<labels>
											<label2>Violet</label2>
										</labels>
									</clipitem>
									<clipitem id="clipitem-736">
										<masterclipid>masterclip-174</masterclipid>
										<name>(goodeatzco)_CBji13IFz7x - 3_IG.mp4</name>
										<enabled>TRUE</enabled>
										<duration>657</duration>
										<rate>
											<timebase>30</timebase>
											<ntsc>TRUE</ntsc>
										</rate>
										<start>3280</start>
										<end>3358</end>
										<in>579</in>
										<out>657</out>
										<pproTicksIn>4907411308800</pproTicksIn>
										<pproTicksOut>5568513350400</pproTicksOut>
										<alphatype>none</alphatype>
										<file id="file-150"/>
										<logginginfo>
											<description></description>
											<scene></scene>
											<shottake></shottake>
											<lognote></lognote>
											<good></good>
											<originalvideofilename></originalvideofilename>
											<originalaudiofilename></originalaudiofilename>
										</logginginfo>
										<colorinfo>
											<lut></lut>
											<lut1></lut1>
											<asc_sop></asc_sop>
											<asc_sat></asc_sat>
											<lut2></lut2>
										</colorinfo>
										<labels>
											<label2>Violet</label2>
										</labels>
									</clipitem>
									<clipitem id="clipitem-737">
										<masterclipid>masterclip-175</masterclipid>
										<name>(aquickspoonful)_CuA2TBKs1tV_IG.mp4</name>
										<enabled>TRUE</enabled>
										<duration>933</duration>
										<rate>
											<timebase>30</timebase>
											<ntsc>TRUE</ntsc>
										</rate>
										<start>3358</start>
										<end>4126</end>
										<in>0</in>
										<out>768</out>
										<pproTicksIn>0</pproTicksIn>
										<pproTicksOut>6509312409600</pproTicksOut>
										<alphatype>none</alphatype>
										<file id="file-151"/>
										<filter>
											<effect>
												<name>Basic Motion</name>
												<effectid>basic</effectid>
												<effectcategory>motion</effectcategory>
												<effecttype>motion</effecttype>
												<mediatype>video</mediatype>
												<pproBypass>false</pproBypass>
												<parameter authoringApp="PremierePro">
													<parameterid>scale</parameterid>
													<name>Scale</name>
													<valuemin>0</valuemin>
													<valuemax>1000</valuemax>
													<value>100</value>
												</parameter>
												<parameter authoringApp="PremierePro">
													<parameterid>rotation</parameterid>
													<name>Rotation</name>
													<valuemin>-8640</valuemin>
													<valuemax>8640</valuemax>
													<value>0</value>
												</parameter>
												<parameter authoringApp="PremierePro">
													<parameterid>center</parameterid>
													<name>Center</name>
													<value>
														<horiz>0.0260417</horiz>
														<vert>0</vert>
													</value>
												</parameter>
												<parameter authoringApp="PremierePro">
													<parameterid>centerOffset</parameterid>
													<name>Anchor Point</name>
													<value>
														<horiz>0</horiz>
														<vert>0</vert>
													</value>
												</parameter>
												<parameter authoringApp="PremierePro">
													<parameterid>antiflicker</parameterid>
													<name>Anti-flicker Filter</name>
													<valuemin>0.0</valuemin>
													<valuemax>1.0</valuemax>
													<value>0</value>
												</parameter>
											</effect>
										</filter>
										<logginginfo>
											<description></description>
											<scene></scene>
											<shottake></shottake>
											<lognote></lognote>
											<good></good>
											<originalvideofilename></originalvideofilename>
											<originalaudiofilename></originalaudiofilename>
										</logginginfo>
										<colorinfo>
											<lut></lut>
											<lut1></lut1>
											<asc_sop></asc_sop>
											<asc_sat></asc_sat>
											<lut2></lut2>
										</colorinfo>
										<labels>
											<label2>Violet</label2>
										</labels>
									</clipitem>
									<clipitem id="clipitem-738">
										<masterclipid>masterclip-175</masterclipid>
										<name>(aquickspoonful)_CuA2TBKs1tV_IG.mp4</name>
										<enabled>TRUE</enabled>
										<duration>933</duration>
										<rate>
											<timebase>30</timebase>
											<ntsc>TRUE</ntsc>
										</rate>
										<start>4126</start>
										<end>4225</end>
										<in>834</in>
										<out>933</out>
										<pproTicksIn>7068706444800</pproTicksIn>
										<pproTicksOut>7907797497600</pproTicksOut>
										<alphatype>none</alphatype>
										<file id="file-151"/>
										<filter>
											<effect>
												<name>Basic Motion</name>
												<effectid>basic</effectid>
												<effectcategory>motion</effectcategory>
												<effecttype>motion</effecttype>
												<mediatype>video</mediatype>
												<pproBypass>false</pproBypass>
												<parameter authoringApp="PremierePro">
													<parameterid>scale</parameterid>
													<name>Scale</name>
													<valuemin>0</valuemin>
													<valuemax>1000</valuemax>
													<value>100</value>
												</parameter>
												<parameter authoringApp="PremierePro">
													<parameterid>rotation</parameterid>
													<name>Rotation</name>
													<valuemin>-8640</valuemin>
													<valuemax>8640</valuemax>
													<value>0</value>
												</parameter>
												<parameter authoringApp="PremierePro">
													<parameterid>center</parameterid>
													<name>Center</name>
													<value>
														<horiz>0.0260417</horiz>
														<vert>0</vert>
													</value>
												</parameter>
												<parameter authoringApp="PremierePro">
													<parameterid>centerOffset</parameterid>
													<name>Anchor Point</name>
													<value>
														<horiz>0</horiz>
														<vert>0</vert>
													</value>
												</parameter>
												<parameter authoringApp="PremierePro">
													<parameterid>antiflicker</parameterid>
													<name>Anti-flicker Filter</name>
													<valuemin>0.0</valuemin>
													<valuemax>1.0</valuemax>
													<value>0</value>
												</parameter>
											</effect>
										</filter>
										<logginginfo>
											<description></description>
											<scene></scene>
											<shottake></shottake>
											<lognote></lognote>
											<good></good>
											<originalvideofilename></originalvideofilename>
											<originalaudiofilename></originalaudiofilename>
										</logginginfo>
										<colorinfo>
											<lut></lut>
											<lut1></lut1>
											<asc_sop></asc_sop>
											<asc_sat></asc_sat>
											<lut2></lut2>
										</colorinfo>
										<labels>
											<label2>Violet</label2>
										</labels>
									</clipitem>
									<clipitem id="clipitem-739">
										<masterclipid>masterclip-176</masterclipid>
										<name>(sugarandsparrowco)_Cr3cvXWt6ZR_IG.mp4</name>
										<enabled>TRUE</enabled>
										<duration>898</duration>
										<rate>
											<timebase>30</timebase>
											<ntsc>TRUE</ntsc>
										</rate>
										<start>4225</start>
										<end>5030</end>
										<in>93</in>
										<out>898</out>
										<pproTicksIn>788237049600</pproTicksIn>
										<pproTicksOut>7611149145600</pproTicksOut>
										<alphatype>none</alphatype>
										<file id="file-152"/>
										<filter>
											<effect>
												<name>Basic Motion</name>
												<effectid>basic</effectid>
												<effectcategory>motion</effectcategory>
												<effecttype>motion</effecttype>
												<mediatype>video</mediatype>
												<pproBypass>false</pproBypass>
												<parameter authoringApp="PremierePro">
													<parameterid>scale</parameterid>
													<name>Scale</name>
													<valuemin>0</valuemin>
													<valuemax>1000</valuemax>
													<value>100</value>
												</parameter>
												<parameter authoringApp="PremierePro">
													<parameterid>rotation</parameterid>
													<name>Rotation</name>
													<valuemin>-8640</valuemin>
													<valuemax>8640</valuemax>
													<value>0</value>
												</parameter>
												<parameter authoringApp="PremierePro">
													<parameterid>center</parameterid>
													<name>Center</name>
													<value>
														<horiz>0.0138889</horiz>
														<vert>0</vert>
													</value>
												</parameter>
												<parameter authoringApp="PremierePro">
													<parameterid>centerOffset</parameterid>
													<name>Anchor Point</name>
													<value>
														<horiz>0</horiz>
														<vert>0</vert>
													</value>
												</parameter>
												<parameter authoringApp="PremierePro">
													<parameterid>antiflicker</parameterid>
													<name>Anti-flicker Filter</name>
													<valuemin>0.0</valuemin>
													<valuemax>1.0</valuemax>
													<value>0</value>
												</parameter>
											</effect>
										</filter>
										<logginginfo>
											<description></description>
											<scene></scene>
											<shottake></shottake>
											<lognote></lognote>
											<good></good>
											<originalvideofilename></originalvideofilename>
											<originalaudiofilename></originalaudiofilename>
										</logginginfo>
										<colorinfo>
											<lut></lut>
											<lut1></lut1>
											<asc_sop></asc_sop>
											<asc_sat></asc_sat>
											<lut2></lut2>
										</colorinfo>
										<labels>
											<label2>Violet</label2>
										</labels>
									</clipitem>
									<clipitem id="clipitem-740">
										<masterclipid>masterclip-149</masterclipid>
										<name>(alphafoodie)_B1EX31VAyMJ_IG.mp4</name>
										<enabled>TRUE</enabled>
										<duration>3743</duration>
										<rate>
											<timebase>30</timebase>
											<ntsc>TRUE</ntsc>
										</rate>
										<start>5030</start>
										<end>5429</end>
										<in>129</in>
										<out>528</out>
										<pproTicksIn>1093361068800</pproTicksIn>
										<pproTicksOut>4475152281600</pproTicksOut>
										<alphatype>none</alphatype>
										<file id="file-128"/>
										<filter>
											<effect>
												<name>Basic Motion</name>
												<effectid>basic</effectid>
												<effectcategory>motion</effectcategory>
												<effecttype>motion</effecttype>
												<mediatype>video</mediatype>
												<pproBypass>false</pproBypass>
												<parameter authoringApp="PremierePro">
													<parameterid>scale</parameterid>
													<name>Scale</name>
													<valuemin>0</valuemin>
													<valuemax>1000</valuemax>
													<value>240</value>
												</parameter>
												<parameter authoringApp="PremierePro">
													<parameterid>rotation</parameterid>
													<name>Rotation</name>
													<valuemin>-8640</valuemin>
													<valuemax>8640</valuemax>
													<value>90</value>
												</parameter>
												<parameter authoringApp="PremierePro">
													<parameterid>center</parameterid>
													<name>Center</name>
													<value>
														<horiz>0</horiz>
														<vert>-0.10625</vert>
													</value>
												</parameter>
												<parameter authoringApp="PremierePro">
													<parameterid>centerOffset</parameterid>
													<name>Anchor Point</name>
													<value>
														<horiz>0</horiz>
														<vert>0</vert>
													</value>
												</parameter>
												<parameter authoringApp="PremierePro">
													<parameterid>antiflicker</parameterid>
													<name>Anti-flicker Filter</name>
													<valuemin>0.0</valuemin>
													<valuemax>1.0</valuemax>
													<value>0</value>
												</parameter>
											</effect>
										</filter>
										<logginginfo>
											<description></description>
											<scene></scene>
											<shottake></shottake>
											<lognote></lognote>
											<good></good>
											<originalvideofilename></originalvideofilename>
											<originalaudiofilename></originalaudiofilename>
										</logginginfo>
										<colorinfo>
											<lut></lut>
											<lut1></lut1>
											<asc_sop></asc_sop>
											<asc_sat></asc_sat>
											<lut2></lut2>
										</colorinfo>
										<labels>
											<label2>Violet</label2>
										</labels>
									</clipitem>
									<clipitem id="clipitem-741">
										<masterclipid>masterclip-149</masterclipid>
										<name>(alphafoodie)_B1EX31VAyMJ_IG.mp4</name>
										<enabled>TRUE</enabled>
										<duration>3743</duration>
										<rate>
											<timebase>30</timebase>
											<ntsc>TRUE</ntsc>
										</rate>
										<start>5429</start>
										<end>5709</end>
										<in>562</in>
										<out>842</out>
										<pproTicksIn>4763324966400</pproTicksIn>
										<pproTicksOut>7136511782400</pproTicksOut>
										<alphatype>none</alphatype>
										<file id="file-128"/>
										<filter>
											<effect>
												<name>Basic Motion</name>
												<effectid>basic</effectid>
												<effectcategory>motion</effectcategory>
												<effecttype>motion</effecttype>
												<mediatype>video</mediatype>
												<pproBypass>false</pproBypass>
												<parameter authoringApp="PremierePro">
													<parameterid>scale</parameterid>
													<name>Scale</name>
													<valuemin>0</valuemin>
													<valuemax>1000</valuemax>
													<value>180</value>
												</parameter>
												<parameter authoringApp="PremierePro">
													<parameterid>rotation</parameterid>
													<name>Rotation</name>
													<valuemin>-8640</valuemin>
													<valuemax>8640</valuemax>
													<value>90</value>
												</parameter>
												<parameter authoringApp="PremierePro">
													<parameterid>center</parameterid>
													<name>Center</name>
													<value>
														<horiz>0</horiz>
														<vert>0</vert>
													</value>
												</parameter>
												<parameter authoringApp="PremierePro">
													<parameterid>centerOffset</parameterid>
													<name>Anchor Point</name>
													<value>
														<horiz>0</horiz>
														<vert>0</vert>
													</value>
												</parameter>
												<parameter authoringApp="PremierePro">
													<parameterid>antiflicker</parameterid>
													<name>Anti-flicker Filter</name>
													<valuemin>0.0</valuemin>
													<valuemax>1.0</valuemax>
													<value>0</value>
												</parameter>
											</effect>
										</filter>
										<logginginfo>
											<description></description>
											<scene></scene>
											<shottake></shottake>
											<lognote></lognote>
											<good></good>
											<originalvideofilename></originalvideofilename>
											<originalaudiofilename></originalaudiofilename>
										</logginginfo>
										<colorinfo>
											<lut></lut>
											<lut1></lut1>
											<asc_sop></asc_sop>
											<asc_sat></asc_sat>
											<lut2></lut2>
										</colorinfo>
										<labels>
											<label2>Violet</label2>
										</labels>
									</clipitem>
									<clipitem id="clipitem-742">
										<masterclipid>masterclip-149</masterclipid>
										<name>(alphafoodie)_B1EX31VAyMJ_IG.mp4</name>
										<enabled>TRUE</enabled>
										<duration>3743</duration>
										<rate>
											<timebase>30</timebase>
											<ntsc>TRUE</ntsc>
										</rate>
										<start>5709</start>
										<end>5923</end>
										<in>972</in>
										<out>1186</out>
										<pproTicksIn>8238348518400</pproTicksIn>
										<pproTicksOut>10052141299200</pproTicksOut>
										<alphatype>none</alphatype>
										<file id="file-128"/>
										<filter>
											<effect>
												<name>Basic Motion</name>
												<effectid>basic</effectid>
												<effectcategory>motion</effectcategory>
												<effecttype>motion</effecttype>
												<mediatype>video</mediatype>
												<pproBypass>false</pproBypass>
												<parameter authoringApp="PremierePro">
													<parameterid>scale</parameterid>
													<name>Scale</name>
													<valuemin>0</valuemin>
													<valuemax>1000</valuemax>
													<value>240</value>
												</parameter>
												<parameter authoringApp="PremierePro">
													<parameterid>rotation</parameterid>
													<name>Rotation</name>
													<valuemin>-8640</valuemin>
													<valuemax>8640</valuemax>
													<value>90</value>
												</parameter>
												<parameter authoringApp="PremierePro">
													<parameterid>center</parameterid>
													<name>Center</name>
													<value>
														<horiz>0</horiz>
														<vert>0</vert>
													</value>
												</parameter>
												<parameter authoringApp="PremierePro">
													<parameterid>centerOffset</parameterid>
													<name>Anchor Point</name>
													<value>
														<horiz>0</horiz>
														<vert>0</vert>
													</value>
												</parameter>
												<parameter authoringApp="PremierePro">
													<parameterid>antiflicker</parameterid>
													<name>Anti-flicker Filter</name>
													<valuemin>0.0</valuemin>
													<valuemax>1.0</valuemax>
													<value>0</value>
												</parameter>
											</effect>
										</filter>
										<logginginfo>
											<description></description>
											<scene></scene>
											<shottake></shottake>
											<lognote></lognote>
											<good></good>
											<originalvideofilename></originalvideofilename>
											<originalaudiofilename></originalaudiofilename>
										</logginginfo>
										<colorinfo>
											<lut></lut>
											<lut1></lut1>
											<asc_sop></asc_sop>
											<asc_sat></asc_sat>
											<lut2></lut2>
										</colorinfo>
										<labels>
											<label2>Violet</label2>
										</labels>
									</clipitem>
									<clipitem id="clipitem-743">
										<masterclipid>masterclip-149</masterclipid>
										<name>(alphafoodie)_B1EX31VAyMJ_IG.mp4</name>
										<enabled>TRUE</enabled>
										<duration>3743</duration>
										<rate>
											<timebase>30</timebase>
											<ntsc>TRUE</ntsc>
										</rate>
										<start>5923</start>
										<end>6040</end>
										<in>1186</in>
										<out>1303</out>
										<pproTicksIn>10052141299200</pproTicksIn>
										<pproTicksOut>11043794361600</pproTicksOut>
										<alphatype>none</alphatype>
										<file id="file-128"/>
										<filter>
											<effect>
												<name>Basic Motion</name>
												<effectid>basic</effectid>
												<effectcategory>motion</effectcategory>
												<effecttype>motion</effecttype>
												<mediatype>video</mediatype>
												<pproBypass>false</pproBypass>
												<parameter authoringApp="PremierePro">
													<parameterid>scale</parameterid>
													<name>Scale</name>
													<valuemin>0</valuemin>
													<valuemax>1000</valuemax>
													<value>180</value>
												</parameter>
												<parameter authoringApp="PremierePro">
													<parameterid>rotation</parameterid>
													<name>Rotation</name>
													<valuemin>-8640</valuemin>
													<valuemax>8640</valuemax>
													<value>90</value>
												</parameter>
												<parameter authoringApp="PremierePro">
													<parameterid>center</parameterid>
													<name>Center</name>
													<value>
														<horiz>0</horiz>
														<vert>0</vert>
													</value>
												</parameter>
												<parameter authoringApp="PremierePro">
													<parameterid>centerOffset</parameterid>
													<name>Anchor Point</name>
													<value>
														<horiz>0</horiz>
														<vert>0</vert>
													</value>
												</parameter>
												<parameter authoringApp="PremierePro">
													<parameterid>antiflicker</parameterid>
													<name>Anti-flicker Filter</name>
													<valuemin>0.0</valuemin>
													<valuemax>1.0</valuemax>
													<value>0</value>
												</parameter>
											</effect>
										</filter>
										<logginginfo>
											<description></description>
											<scene></scene>
											<shottake></shottake>
											<lognote></lognote>
											<good></good>
											<originalvideofilename></originalvideofilename>
											<originalaudiofilename></originalaudiofilename>
										</logginginfo>
										<colorinfo>
											<lut></lut>
											<lut1></lut1>
											<asc_sop></asc_sop>
											<asc_sat></asc_sat>
											<lut2></lut2>
										</colorinfo>
										<labels>
											<label2>Violet</label2>
										</labels>
									</clipitem>
									<clipitem id="clipitem-744">
										<masterclipid>masterclip-149</masterclipid>
										<name>(alphafoodie)_B1EX31VAyMJ_IG.mp4</name>
										<enabled>TRUE</enabled>
										<duration>3743</duration>
										<rate>
											<timebase>30</timebase>
											<ntsc>TRUE</ntsc>
										</rate>
										<start>6040</start>
										<end>6114</end>
										<in>1303</in>
										<out>1377</out>
										<pproTicksIn>11043794361600</pproTicksIn>
										<pproTicksOut>11670993734400</pproTicksOut>
										<alphatype>none</alphatype>
										<file id="file-128"/>
										<filter>
											<effect>
												<name>Basic Motion</name>
												<effectid>basic</effectid>
												<effectcategory>motion</effectcategory>
												<effecttype>motion</effecttype>
												<mediatype>video</mediatype>
												<pproBypass>false</pproBypass>
												<parameter authoringApp="PremierePro">
													<parameterid>scale</parameterid>
													<name>Scale</name>
													<valuemin>0</valuemin>
													<valuemax>1000</valuemax>
													<value>237</value>
												</parameter>
												<parameter authoringApp="PremierePro">
													<parameterid>rotation</parameterid>
													<name>Rotation</name>
													<valuemin>-8640</valuemin>
													<valuemax>8640</valuemax>
													<value>90</value>
												</parameter>
												<parameter authoringApp="PremierePro">
													<parameterid>center</parameterid>
													<name>Center</name>
													<value>
														<horiz>0</horiz>
														<vert>0</vert>
													</value>
												</parameter>
												<parameter authoringApp="PremierePro">
													<parameterid>centerOffset</parameterid>
													<name>Anchor Point</name>
													<value>
														<horiz>0</horiz>
														<vert>0</vert>
													</value>
												</parameter>
												<parameter authoringApp="PremierePro">
													<parameterid>antiflicker</parameterid>
													<name>Anti-flicker Filter</name>
													<valuemin>0.0</valuemin>
													<valuemax>1.0</valuemax>
													<value>0</value>
												</parameter>
											</effect>
										</filter>
										<logginginfo>
											<description></description>
											<scene></scene>
											<shottake></shottake>
											<lognote></lognote>
											<good></good>
											<originalvideofilename></originalvideofilename>
											<originalaudiofilename></originalaudiofilename>
										</logginginfo>
										<colorinfo>
											<lut></lut>
											<lut1></lut1>
											<asc_sop></asc_sop>
											<asc_sat></asc_sat>
											<lut2></lut2>
										</colorinfo>
										<labels>
											<label2>Violet</label2>
										</labels>
									</clipitem>
									<clipitem id="clipitem-745">
										<masterclipid>masterclip-149</masterclipid>
										<name>(alphafoodie)_B1EX31VAyMJ_IG.mp4</name>
										<enabled>TRUE</enabled>
										<duration>3743</duration>
										<rate>
											<timebase>30</timebase>
											<ntsc>TRUE</ntsc>
										</rate>
										<start>6114</start>
										<end>6155</end>
										<in>1377</in>
										<out>1418</out>
										<pproTicksIn>11670993734400</pproTicksIn>
										<pproTicksOut>12018496089600</pproTicksOut>
										<alphatype>none</alphatype>
										<file id="file-128"/>
										<filter>
											<effect>
												<name>Basic Motion</name>
												<effectid>basic</effectid>
												<effectcategory>motion</effectcategory>
												<effecttype>motion</effecttype>
												<mediatype>video</mediatype>
												<pproBypass>false</pproBypass>
												<parameter authoringApp="PremierePro">
													<parameterid>scale</parameterid>
													<name>Scale</name>
													<valuemin>0</valuemin>
													<valuemax>1000</valuemax>
													<value>180</value>
												</parameter>
												<parameter authoringApp="PremierePro">
													<parameterid>rotation</parameterid>
													<name>Rotation</name>
													<valuemin>-8640</valuemin>
													<valuemax>8640</valuemax>
													<value>90</value>
												</parameter>
												<parameter authoringApp="PremierePro">
													<parameterid>center</parameterid>
													<name>Center</name>
													<value>
														<horiz>0</horiz>
														<vert>0</vert>
													</value>
												</parameter>
												<parameter authoringApp="PremierePro">
													<parameterid>centerOffset</parameterid>
													<name>Anchor Point</name>
													<value>
														<horiz>0</horiz>
														<vert>0</vert>
													</value>
												</parameter>
												<parameter authoringApp="PremierePro">
													<parameterid>antiflicker</parameterid>
													<name>Anti-flicker Filter</name>
													<valuemin>0.0</valuemin>
													<valuemax>1.0</valuemax>
													<value>0</value>
												</parameter>
											</effect>
										</filter>
										<logginginfo>
											<description></description>
											<scene></scene>
											<shottake></shottake>
											<lognote></lognote>
											<good></good>
											<originalvideofilename></originalvideofilename>
											<originalaudiofilename></originalaudiofilename>
										</logginginfo>
										<colorinfo>
											<lut></lut>
											<lut1></lut1>
											<asc_sop></asc_sop>
											<asc_sat></asc_sat>
											<lut2></lut2>
										</colorinfo>
										<labels>
											<label2>Violet</label2>
										</labels>
									</clipitem>
									<clipitem id="clipitem-746">
										<masterclipid>masterclip-149</masterclipid>
										<name>(alphafoodie)_B1EX31VAyMJ_IG.mp4</name>
										<enabled>TRUE</enabled>
										<duration>3743</duration>
										<rate>
											<timebase>30</timebase>
											<ntsc>TRUE</ntsc>
										</rate>
										<start>6155</start>
										<end>6228</end>
										<in>1667</in>
										<out>1740</out>
										<pproTicksIn>14128937222400</pproTicksIn>
										<pproTicksOut>14747660928000</pproTicksOut>
										<alphatype>none</alphatype>
										<file id="file-128"/>
										<filter>
											<effect>
												<name>Basic Motion</name>
												<effectid>basic</effectid>
												<effectcategory>motion</effectcategory>
												<effecttype>motion</effecttype>
												<mediatype>video</mediatype>
												<pproBypass>false</pproBypass>
												<parameter authoringApp="PremierePro">
													<parameterid>scale</parameterid>
													<name>Scale</name>
													<valuemin>0</valuemin>
													<valuemax>1000</valuemax>
													<value>180</value>
												</parameter>
												<parameter authoringApp="PremierePro">
													<parameterid>rotation</parameterid>
													<name>Rotation</name>
													<valuemin>-8640</valuemin>
													<valuemax>8640</valuemax>
													<value>90</value>
												</parameter>
												<parameter authoringApp="PremierePro">
													<parameterid>center</parameterid>
													<name>Center</name>
													<value>
														<horiz>0</horiz>
														<vert>0</vert>
													</value>
												</parameter>
												<parameter authoringApp="PremierePro">
													<parameterid>centerOffset</parameterid>
													<name>Anchor Point</name>
													<value>
														<horiz>0</horiz>
														<vert>0</vert>
													</value>
												</parameter>
												<parameter authoringApp="PremierePro">
													<parameterid>antiflicker</parameterid>
													<name>Anti-flicker Filter</name>
													<valuemin>0.0</valuemin>
													<valuemax>1.0</valuemax>
													<value>0</value>
												</parameter>
											</effect>
										</filter>
										<logginginfo>
											<description></description>
											<scene></scene>
											<shottake></shottake>
											<lognote></lognote>
											<good></good>
											<originalvideofilename></originalvideofilename>
											<originalaudiofilename></originalaudiofilename>
										</logginginfo>
										<colorinfo>
											<lut></lut>
											<lut1></lut1>
											<asc_sop></asc_sop>
											<asc_sat></asc_sat>
											<lut2></lut2>
										</colorinfo>
										<labels>
											<label2>Violet</label2>
										</labels>
									</clipitem>
									<clipitem id="clipitem-747">
										<masterclipid>masterclip-149</masterclipid>
										<name>(alphafoodie)_B1EX31VAyMJ_IG.mp4</name>
										<enabled>TRUE</enabled>
										<duration>3743</duration>
										<rate>
											<timebase>30</timebase>
											<ntsc>TRUE</ntsc>
										</rate>
										<start>6228</start>
										<end>6485</end>
										<in>1741</in>
										<out>1998</out>
										<pproTicksIn>14756136595200</pproTicksIn>
										<pproTicksOut>16934383065600</pproTicksOut>
										<alphatype>none</alphatype>
										<file id="file-128"/>
										<filter>
											<effect>
												<name>Basic Motion</name>
												<effectid>basic</effectid>
												<effectcategory>motion</effectcategory>
												<effecttype>motion</effecttype>
												<mediatype>video</mediatype>
												<pproBypass>false</pproBypass>
												<parameter authoringApp="PremierePro">
													<parameterid>scale</parameterid>
													<name>Scale</name>
													<valuemin>0</valuemin>
													<valuemax>1000</valuemax>
													<value>235</value>
												</parameter>
												<parameter authoringApp="PremierePro">
													<parameterid>rotation</parameterid>
													<name>Rotation</name>
													<valuemin>-8640</valuemin>
													<valuemax>8640</valuemax>
													<value>90</value>
												</parameter>
												<parameter authoringApp="PremierePro">
													<parameterid>center</parameterid>
													<name>Center</name>
													<value>
														<horiz>0</horiz>
														<vert>0</vert>
													</value>
												</parameter>
												<parameter authoringApp="PremierePro">
													<parameterid>centerOffset</parameterid>
													<name>Anchor Point</name>
													<value>
														<horiz>0</horiz>
														<vert>0</vert>
													</value>
												</parameter>
												<parameter authoringApp="PremierePro">
													<parameterid>antiflicker</parameterid>
													<name>Anti-flicker Filter</name>
													<valuemin>0.0</valuemin>
													<valuemax>1.0</valuemax>
													<value>0</value>
												</parameter>
											</effect>
										</filter>
										<logginginfo>
											<description></description>
											<scene></scene>
											<shottake></shottake>
											<lognote></lognote>
											<good></good>
											<originalvideofilename></originalvideofilename>
											<originalaudiofilename></originalaudiofilename>
										</logginginfo>
										<colorinfo>
											<lut></lut>
											<lut1></lut1>
											<asc_sop></asc_sop>
											<asc_sat></asc_sat>
											<lut2></lut2>
										</colorinfo>
										<labels>
											<label2>Violet</label2>
										</labels>
									</clipitem>
									<clipitem id="clipitem-748">
										<masterclipid>masterclip-149</masterclipid>
										<name>(alphafoodie)_B1EX31VAyMJ_IG.mp4</name>
										<enabled>TRUE</enabled>
										<duration>3743</duration>
										<rate>
											<timebase>30</timebase>
											<ntsc>TRUE</ntsc>
										</rate>
										<start>6485</start>
										<end>6553</end>
										<in>1998</in>
										<out>2066</out>
										<pproTicksIn>16934383065600</pproTicksIn>
										<pproTicksOut>17510728435200</pproTicksOut>
										<alphatype>none</alphatype>
										<file id="file-128"/>
										<filter>
											<effect>
												<name>Basic Motion</name>
												<effectid>basic</effectid>
												<effectcategory>motion</effectcategory>
												<effecttype>motion</effecttype>
												<mediatype>video</mediatype>
												<pproBypass>false</pproBypass>
												<parameter authoringApp="PremierePro">
													<parameterid>scale</parameterid>
													<name>Scale</name>
													<valuemin>0</valuemin>
													<valuemax>1000</valuemax>
													<value>180</value>
												</parameter>
												<parameter authoringApp="PremierePro">
													<parameterid>rotation</parameterid>
													<name>Rotation</name>
													<valuemin>-8640</valuemin>
													<valuemax>8640</valuemax>
													<value>90</value>
												</parameter>
												<parameter authoringApp="PremierePro">
													<parameterid>center</parameterid>
													<name>Center</name>
													<value>
														<horiz>0</horiz>
														<vert>0</vert>
													</value>
												</parameter>
												<parameter authoringApp="PremierePro">
													<parameterid>centerOffset</parameterid>
													<name>Anchor Point</name>
													<value>
														<horiz>0</horiz>
														<vert>0</vert>
													</value>
												</parameter>
												<parameter authoringApp="PremierePro">
													<parameterid>antiflicker</parameterid>
													<name>Anti-flicker Filter</name>
													<valuemin>0.0</valuemin>
													<valuemax>1.0</valuemax>
													<value>0</value>
												</parameter>
											</effect>
										</filter>
										<logginginfo>
											<description></description>
											<scene></scene>
											<shottake></shottake>
											<lognote></lognote>
											<good></good>
											<originalvideofilename></originalvideofilename>
											<originalaudiofilename></originalaudiofilename>
										</logginginfo>
										<colorinfo>
											<lut></lut>
											<lut1></lut1>
											<asc_sop></asc_sop>
											<asc_sat></asc_sat>
											<lut2></lut2>
										</colorinfo>
										<labels>
											<label2>Violet</label2>
										</labels>
									</clipitem>
									<clipitem id="clipitem-749">
										<masterclipid>masterclip-149</masterclipid>
										<name>(alphafoodie)_B1EX31VAyMJ_IG.mp4</name>
										<enabled>TRUE</enabled>
										<duration>3743</duration>
										<rate>
											<timebase>30</timebase>
											<ntsc>TRUE</ntsc>
										</rate>
										<start>6553</start>
										<end>7016</end>
										<in>2227</in>
										<out>2690</out>
										<pproTicksIn>18875310854400</pproTicksIn>
										<pproTicksOut>22799544768000</pproTicksOut>
										<alphatype>none</alphatype>
										<file id="file-128"/>
										<filter>
											<effect>
												<name>Basic Motion</name>
												<effectid>basic</effectid>
												<effectcategory>motion</effectcategory>
												<effecttype>motion</effecttype>
												<mediatype>video</mediatype>
												<pproBypass>false</pproBypass>
												<parameter authoringApp="PremierePro">
													<parameterid>scale</parameterid>
													<name>Scale</name>
													<valuemin>0</valuemin>
													<valuemax>1000</valuemax>
													<value>180</value>
												</parameter>
												<parameter authoringApp="PremierePro">
													<parameterid>rotation</parameterid>
													<name>Rotation</name>
													<valuemin>-8640</valuemin>
													<valuemax>8640</valuemax>
													<value>90</value>
												</parameter>
												<parameter authoringApp="PremierePro">
													<parameterid>center</parameterid>
													<name>Center</name>
													<value>
														<horiz>0</horiz>
														<vert>0</vert>
													</value>
												</parameter>
												<parameter authoringApp="PremierePro">
													<parameterid>centerOffset</parameterid>
													<name>Anchor Point</name>
													<value>
														<horiz>0</horiz>
														<vert>0</vert>
													</value>
												</parameter>
												<parameter authoringApp="PremierePro">
													<parameterid>antiflicker</parameterid>
													<name>Anti-flicker Filter</name>
													<valuemin>0.0</valuemin>
													<valuemax>1.0</valuemax>
													<value>0</value>
												</parameter>
											</effect>
										</filter>
										<logginginfo>
											<description></description>
											<scene></scene>
											<shottake></shottake>
											<lognote></lognote>
											<good></good>
											<originalvideofilename></originalvideofilename>
											<originalaudiofilename></originalaudiofilename>
										</logginginfo>
										<colorinfo>
											<lut></lut>
											<lut1></lut1>
											<asc_sop></asc_sop>
											<asc_sat></asc_sat>
											<lut2></lut2>
										</colorinfo>
										<labels>
											<label2>Violet</label2>
										</labels>
									</clipitem>
									<clipitem id="clipitem-750">
										<masterclipid>masterclip-149</masterclipid>
										<name>(alphafoodie)_B1EX31VAyMJ_IG.mp4</name>
										<enabled>TRUE</enabled>
										<duration>3743</duration>
										<rate>
											<timebase>30</timebase>
											<ntsc>TRUE</ntsc>
										</rate>
										<start>7016</start>
										<end>7310</end>
										<in>2766</in>
										<out>3060</out>
										<pproTicksIn>23443695475200</pproTicksIn>
										<pproTicksOut>25935541632000</pproTicksOut>
										<alphatype>none</alphatype>
										<file id="file-128"/>
										<filter>
											<effect>
												<name>Basic Motion</name>
												<effectid>basic</effectid>
												<effectcategory>motion</effectcategory>
												<effecttype>motion</effecttype>
												<mediatype>video</mediatype>
												<pproBypass>false</pproBypass>
												<parameter authoringApp="PremierePro">
													<parameterid>scale</parameterid>
													<name>Scale</name>
													<valuemin>0</valuemin>
													<valuemax>1000</valuemax>
													<value>180</value>
												</parameter>
												<parameter authoringApp="PremierePro">
													<parameterid>rotation</parameterid>
													<name>Rotation</name>
													<valuemin>-8640</valuemin>
													<valuemax>8640</valuemax>
													<value>90</value>
												</parameter>
												<parameter authoringApp="PremierePro">
													<parameterid>center</parameterid>
													<name>Center</name>
													<value>
														<horiz>0</horiz>
														<vert>0</vert>
													</value>
												</parameter>
												<parameter authoringApp="PremierePro">
													<parameterid>centerOffset</parameterid>
													<name>Anchor Point</name>
													<value>
														<horiz>0</horiz>
														<vert>0</vert>
													</value>
												</parameter>
												<parameter authoringApp="PremierePro">
													<parameterid>antiflicker</parameterid>
													<name>Anti-flicker Filter</name>
													<valuemin>0.0</valuemin>
													<valuemax>1.0</valuemax>
													<value>0</value>
												</parameter>
											</effect>
										</filter>
										<logginginfo>
											<description></description>
											<scene></scene>
											<shottake></shottake>
											<lognote></lognote>
											<good></good>
											<originalvideofilename></originalvideofilename>
											<originalaudiofilename></originalaudiofilename>
										</logginginfo>
										<colorinfo>
											<lut></lut>
											<lut1></lut1>
											<asc_sop></asc_sop>
											<asc_sat></asc_sat>
											<lut2></lut2>
										</colorinfo>
										<labels>
											<label2>Violet</label2>
										</labels>
									</clipitem>
									<clipitem id="clipitem-751">
										<masterclipid>masterclip-149</masterclipid>
										<name>(alphafoodie)_B1EX31VAyMJ_IG.mp4</name>
										<enabled>TRUE</enabled>
										<duration>3743</duration>
										<rate>
											<timebase>30</timebase>
											<ntsc>TRUE</ntsc>
										</rate>
										<start>7310</start>
										<end>7544</end>
										<in>3175</in>
										<out>3409</out>
										<pproTicksIn>26910243360000</pproTicksIn>
										<pproTicksOut>28893549484800</pproTicksOut>
										<alphatype>none</alphatype>
										<file id="file-128"/>
										<filter>
											<effect>
												<name>Basic Motion</name>
												<effectid>basic</effectid>
												<effectcategory>motion</effectcategory>
												<effecttype>motion</effecttype>
												<mediatype>video</mediatype>
												<pproBypass>false</pproBypass>
												<parameter authoringApp="PremierePro">
													<parameterid>scale</parameterid>
													<name>Scale</name>
													<valuemin>0</valuemin>
													<valuemax>1000</valuemax>
													<value>180</value>
												</parameter>
												<parameter authoringApp="PremierePro">
													<parameterid>rotation</parameterid>
													<name>Rotation</name>
													<valuemin>-8640</valuemin>
													<valuemax>8640</valuemax>
													<value>90</value>
												</parameter>
												<parameter authoringApp="PremierePro">
													<parameterid>center</parameterid>
													<name>Center</name>
													<value>
														<horiz>0</horiz>
														<vert>0</vert>
													</value>
												</parameter>
												<parameter authoringApp="PremierePro">
													<parameterid>centerOffset</parameterid>
													<name>Anchor Point</name>
													<value>
														<horiz>0</horiz>
														<vert>0</vert>
													</value>
												</parameter>
												<parameter authoringApp="PremierePro">
													<parameterid>antiflicker</parameterid>
													<name>Anti-flicker Filter</name>
													<valuemin>0.0</valuemin>
													<valuemax>1.0</valuemax>
													<value>0</value>
												</parameter>
											</effect>
										</filter>
										<logginginfo>
											<description></description>
											<scene></scene>
											<shottake></shottake>
											<lognote></lognote>
											<good></good>
											<originalvideofilename></originalvideofilename>
											<originalaudiofilename></originalaudiofilename>
										</logginginfo>
										<colorinfo>
											<lut></lut>
											<lut1></lut1>
											<asc_sop></asc_sop>
											<asc_sat></asc_sat>
											<lut2></lut2>
										</colorinfo>
										<labels>
											<label2>Violet</label2>
										</labels>
									</clipitem>
									<clipitem id="clipitem-752">
										<masterclipid>masterclip-149</masterclipid>
										<name>(alphafoodie)_B1EX31VAyMJ_IG.mp4</name>
										<enabled>TRUE</enabled>
										<duration>3743</duration>
										<rate>
											<timebase>30</timebase>
											<ntsc>TRUE</ntsc>
										</rate>
										<start>7544</start>
										<end>7670</end>
										<in>3506</in>
										<out>3632</out>
										<pproTicksIn>29715689203200</pproTicksIn>
										<pproTicksOut>30783623270400</pproTicksOut>
										<alphatype>none</alphatype>
										<file id="file-128"/>
										<filter>
											<effect>
												<name>Basic Motion</name>
												<effectid>basic</effectid>
												<effectcategory>motion</effectcategory>
												<effecttype>motion</effecttype>
												<mediatype>video</mediatype>
												<pproBypass>false</pproBypass>
												<parameter authoringApp="PremierePro">
													<parameterid>scale</parameterid>
													<name>Scale</name>
													<valuemin>0</valuemin>
													<valuemax>1000</valuemax>
													<value>180</value>
												</parameter>
												<parameter authoringApp="PremierePro">
													<parameterid>rotation</parameterid>
													<name>Rotation</name>
													<valuemin>-8640</valuemin>
													<valuemax>8640</valuemax>
													<value>90</value>
												</parameter>
												<parameter authoringApp="PremierePro">
													<parameterid>center</parameterid>
													<name>Center</name>
													<value>
														<horiz>0</horiz>
														<vert>0</vert>
													</value>
												</parameter>
												<parameter authoringApp="PremierePro">
													<parameterid>centerOffset</parameterid>
													<name>Anchor Point</name>
													<value>
														<horiz>0</horiz>
														<vert>0</vert>
													</value>
												</parameter>
												<parameter authoringApp="PremierePro">
													<parameterid>antiflicker</parameterid>
													<name>Anti-flicker Filter</name>
													<valuemin>0.0</valuemin>
													<valuemax>1.0</valuemax>
													<value>0</value>
												</parameter>
											</effect>
										</filter>
										<logginginfo>
											<description></description>
											<scene></scene>
											<shottake></shottake>
											<lognote></lognote>
											<good></good>
											<originalvideofilename></originalvideofilename>
											<originalaudiofilename></originalaudiofilename>
										</logginginfo>
										<colorinfo>
											<lut></lut>
											<lut1></lut1>
											<asc_sop></asc_sop>
											<asc_sat></asc_sat>
											<lut2></lut2>
										</colorinfo>
										<labels>
											<label2>Violet</label2>
										</labels>
									</clipitem>
									<clipitem id="clipitem-753">
										<masterclipid>masterclip-153</masterclipid>
										<name>(sophiabakessometimes)_7077244126927834374_TT.mp4</name>
										<enabled>TRUE</enabled>
										<duration>1172</duration>
										<rate>
											<timebase>30</timebase>
											<ntsc>TRUE</ntsc>
										</rate>
										<start>7670</start>
										<end>7876</end>
										<in>0</in>
										<out>206</out>
										<pproTicksIn>0</pproTicksIn>
										<pproTicksOut>1745987443200</pproTicksOut>
										<alphatype>none</alphatype>
										<file id="file-131"/>
										<logginginfo>
											<description></description>
											<scene></scene>
											<shottake></shottake>
											<lognote></lognote>
											<good></good>
											<originalvideofilename></originalvideofilename>
											<originalaudiofilename></originalaudiofilename>
										</logginginfo>
										<colorinfo>
											<lut></lut>
											<lut1></lut1>
											<asc_sop></asc_sop>
											<asc_sat></asc_sat>
											<lut2></lut2>
										</colorinfo>
										<labels>
											<label2>Violet</label2>
										</labels>
									</clipitem>
									<clipitem id="clipitem-754">
										<masterclipid>masterclip-153</masterclipid>
										<name>(sophiabakessometimes)_7077244126927834374_TT.mp4</name>
										<enabled>TRUE</enabled>
										<duration>1172</duration>
										<rate>
											<timebase>30</timebase>
											<ntsc>TRUE</ntsc>
										</rate>
										<start>7876</start>
										<end>7910</end>
										<in>440</in>
										<out>474</out>
										<pproTicksIn>3729293568000</pproTicksIn>
										<pproTicksOut>4017466252800</pproTicksOut>
										<alphatype>none</alphatype>
										<file id="file-131"/>
										<logginginfo>
											<description></description>
											<scene></scene>
											<shottake></shottake>
											<lognote></lognote>
											<good></good>
											<originalvideofilename></originalvideofilename>
											<originalaudiofilename></originalaudiofilename>
										</logginginfo>
										<colorinfo>
											<lut></lut>
											<lut1></lut1>
											<asc_sop></asc_sop>
											<asc_sat></asc_sat>
											<lut2></lut2>
										</colorinfo>
										<labels>
											<label2>Violet</label2>
										</labels>
									</clipitem>
									<clipitem id="clipitem-755">
										<masterclipid>masterclip-153</masterclipid>
										<name>(sophiabakessometimes)_7077244126927834374_TT.mp4</name>
										<enabled>TRUE</enabled>
										<duration>1172</duration>
										<rate>
											<timebase>30</timebase>
											<ntsc>TRUE</ntsc>
										</rate>
										<start>7910</start>
										<end>8122</end>
										<in>557</in>
										<out>769</out>
										<pproTicksIn>4720946630400</pproTicksIn>
										<pproTicksOut>6517788076800</pproTicksOut>
										<alphatype>none</alphatype>
										<file id="file-131"/>
										<logginginfo>
											<description></description>
											<scene></scene>
											<shottake></shottake>
											<lognote></lognote>
											<good></good>
											<originalvideofilename></originalvideofilename>
											<originalaudiofilename></originalaudiofilename>
										</logginginfo>
										<colorinfo>
											<lut></lut>
											<lut1></lut1>
											<asc_sop></asc_sop>
											<asc_sat></asc_sat>
											<lut2></lut2>
										</colorinfo>
										<labels>
											<label2>Violet</label2>
										</labels>
									</clipitem>
									<clipitem id="clipitem-756">
										<masterclipid>masterclip-153</masterclipid>
										<name>(sophiabakessometimes)_7077244126927834374_TT.mp4</name>
										<enabled>TRUE</enabled>
										<duration>1172</duration>
										<rate>
											<timebase>30</timebase>
											<ntsc>TRUE</ntsc>
										</rate>
										<start>8122</start>
										<end>8364</end>
										<in>864</in>
										<out>1106</out>
										<pproTicksIn>7322976460800</pproTicksIn>
										<pproTicksOut>9374087923200</pproTicksOut>
										<alphatype>none</alphatype>
										<file id="file-131"/>
										<logginginfo>
											<description></description>
											<scene></scene>
											<shottake></shottake>
											<lognote></lognote>
											<good></good>
											<originalvideofilename></originalvideofilename>
											<originalaudiofilename></originalaudiofilename>
										</logginginfo>
										<colorinfo>
											<lut></lut>
											<lut1></lut1>
											<asc_sop></asc_sop>
											<asc_sat></asc_sat>
											<lut2></lut2>
										</colorinfo>
										<labels>
											<label2>Violet</label2>
										</labels>
									</clipitem>
									<clipitem id="clipitem-757">
										<masterclipid>masterclip-154</masterclipid>
										<name>(goodeatzco)_CovuAFAJYQB_IG.mp4</name>
										<enabled>TRUE</enabled>
										<duration>608</duration>
										<rate>
											<timebase>30</timebase>
											<ntsc>TRUE</ntsc>
										</rate>
										<start>8364</start>
										<end>8972</end>
										<in>0</in>
										<out>608</out>
										<pproTicksIn>0</pproTicksIn>
										<pproTicksOut>5153205657600</pproTicksOut>
										<alphatype>none</alphatype>
										<file id="file-132"/>
										<logginginfo>
											<description></description>
											<scene></scene>
											<shottake></shottake>
											<lognote></lognote>
											<good></good>
											<originalvideofilename></originalvideofilename>
											<originalaudiofilename></originalaudiofilename>
										</logginginfo>
										<colorinfo>
											<lut></lut>
											<lut1></lut1>
											<asc_sop></asc_sop>
											<asc_sat></asc_sat>
											<lut2></lut2>
										</colorinfo>
										<labels>
											<label2>Violet</label2>
										</labels>
									</clipitem>
									<clipitem id="clipitem-758">
										<masterclipid>masterclip-155</masterclipid>
										<name>(sugarandsparrowco)_CpaepSqJ6U5_IG.mp4</name>
										<enabled>TRUE</enabled>
										<duration>734</duration>
										<rate>
											<timebase>30</timebase>
											<ntsc>TRUE</ntsc>
										</rate>
										<start>8972</start>
										<end>9596</end>
										<in>110</in>
										<out>734</out>
										<pproTicksIn>932323392000</pproTicksIn>
										<pproTicksOut>6221139724800</pproTicksOut>
										<alphatype>none</alphatype>
										<file id="file-133"/>
										<logginginfo>
											<description></description>
											<scene></scene>
											<shottake></shottake>
											<lognote></lognote>
											<good></good>
											<originalvideofilename></originalvideofilename>
											<originalaudiofilename></originalaudiofilename>
										</logginginfo>
										<colorinfo>
											<lut></lut>
											<lut1></lut1>
											<asc_sop></asc_sop>
											<asc_sat></asc_sat>
											<lut2></lut2>
										</colorinfo>
										<labels>
											<label2>Violet</label2>
										</labels>
									</clipitem>
									<clipitem id="clipitem-759">
										<masterclipid>masterclip-156</masterclipid>
										<name>(aquickspoonful)_CundzuWxQ1b_IG.mp4</name>
										<enabled>TRUE</enabled>
										<duration>452</duration>
										<rate>
											<timebase>30</timebase>
											<ntsc>TRUE</ntsc>
										</rate>
										<start>9596</start>
										<end>9971</end>
										<in>0</in>
										<out>375</out>
										<pproTicksIn>0</pproTicksIn>
										<pproTicksOut>3178375200000</pproTicksOut>
										<alphatype>none</alphatype>
										<file id="file-134"/>
										<logginginfo>
											<description></description>
											<scene></scene>
											<shottake></shottake>
											<lognote></lognote>
											<good></good>
											<originalvideofilename></originalvideofilename>
											<originalaudiofilename></originalaudiofilename>
										</logginginfo>
										<colorinfo>
											<lut></lut>
											<lut1></lut1>
											<asc_sop></asc_sop>
											<asc_sat></asc_sat>
											<lut2></lut2>
										</colorinfo>
										<labels>
											<label2>Violet</label2>
										</labels>
									</clipitem>
									<clipitem id="clipitem-760">
										<masterclipid>masterclip-156</masterclipid>
										<name>(aquickspoonful)_CundzuWxQ1b_IG.mp4</name>
										<enabled>TRUE</enabled>
										<duration>869</duration>
										<rate>
											<timebase>30</timebase>
											<ntsc>TRUE</ntsc>
										</rate>
										<start>9971</start>
										<end>10048</end>
										<in>793</in>
										<out>869</out>
										<pproTicksIn>3491974886400</pproTicksIn>
										<pproTicksOut>3831080845936</pproTicksOut>
										<alphatype>none</alphatype>
										<file id="file-134"/>
										<filter>
											<effect>
												<name>Time Remap</name>
												<effectid>timeremap</effectid>
												<effectcategory>motion</effectcategory>
												<effecttype>motion</effecttype>
												<mediatype>video</mediatype>
												<parameter authoringApp="PremierePro">
													<parameterid>variablespeed</parameterid>
													<name>variablespeed</name>
													<valuemin>0</valuemin>
													<valuemax>1</valuemax>
													<value>0</value>
												</parameter>
												<parameter authoringApp="PremierePro">
													<parameterid>speed</parameterid>
													<name>speed</name>
													<valuemin>-100000</valuemin>
													<valuemax>100000</valuemax>
													<value>51.9602</value>
												</parameter>
												<parameter authoringApp="PremierePro">
													<parameterid>reverse</parameterid>
													<name>reverse</name>
													<value>FALSE</value>
												</parameter>
												<parameter authoringApp="PremierePro">
													<parameterid>frameblending</parameterid>
													<name>frameblending</name>
													<value>FALSE</value>
												</parameter>
												<parameter authoringApp="PremierePro">
													<parameterid>graphdict</parameterid>
													<name>graphdict</name>
													<valuemin>0</valuemin>
													<valuemax>451</valuemax>
													<value>0</value>
													<keyframe>
														<when>0</when>
														<value>0</value>
														<speedvirtualkf>TRUE</speedvirtualkf>
														<speedkfstart>TRUE</speedkfstart>
													</keyframe>
													<keyframe>
														<when>793</when>
														<value>412</value>
														<speedvirtualkf>TRUE</speedvirtualkf>
														<speedkfin>TRUE</speedkfin>
													</keyframe>
													<keyframe>
														<when>869</when>
														<value>451</value>
														<speedvirtualkf>TRUE</speedvirtualkf>
														<speedkfout>TRUE</speedkfout>
													</keyframe>
													<interpolation>
														<name>FCPCurve</name>
													</interpolation>
												</parameter>
											</effect>
										</filter>
										<logginginfo>
											<description></description>
											<scene></scene>
											<shottake></shottake>
											<lognote></lognote>
											<good></good>
											<originalvideofilename></originalvideofilename>
											<originalaudiofilename></originalaudiofilename>
										</logginginfo>
										<colorinfo>
											<lut></lut>
											<lut1></lut1>
											<asc_sop></asc_sop>
											<asc_sat></asc_sat>
											<lut2></lut2>
										</colorinfo>
										<labels>
											<label2>Violet</label2>
										</labels>
									</clipitem>
									<clipitem id="clipitem-761">
										<masterclipid>masterclip-181</masterclipid>
										<name>(allthesugartx)_CbKp32Ul4Zg_IG.mp4</name>
										<enabled>TRUE</enabled>
										<duration>522</duration>
										<rate>
											<timebase>30</timebase>
											<ntsc>TRUE</ntsc>
										</rate>
										<start>10048</start>
										<end>10570</end>
										<in>0</in>
										<out>522</out>
										<pproTicksIn>0</pproTicksIn>
										<pproTicksOut>4424298278400</pproTicksOut>
										<alphatype>none</alphatype>
										<file id="file-156"/>
										<logginginfo>
											<description></description>
											<scene></scene>
											<shottake></shottake>
											<lognote></lognote>
											<good></good>
											<originalvideofilename></originalvideofilename>
											<originalaudiofilename></originalaudiofilename>
										</logginginfo>
										<colorinfo>
											<lut></lut>
											<lut1></lut1>
											<asc_sop></asc_sop>
											<asc_sat></asc_sat>
											<lut2></lut2>
										</colorinfo>
										<labels>
											<label2>Violet</label2>
										</labels>
									</clipitem>
									<clipitem id="clipitem-762">
										<masterclipid>masterclip-182</masterclipid>
										<name>(Sugar and Sparrow)_Extra tall strawberry shortcake layer cake + piped whipped cream frosting _ #cakedecorating #cake__5vEbgMdPBc_YT.mp4</name>
										<enabled>TRUE</enabled>
										<duration>454</duration>
										<rate>
											<timebase>30</timebase>
											<ntsc>TRUE</ntsc>
										</rate>
										<start>10570</start>
										<end>11024</end>
										<in>0</in>
										<out>454</out>
										<pproTicksIn>0</pproTicksIn>
										<pproTicksOut>3847952908800</pproTicksOut>
										<alphatype>none</alphatype>
										<file id="file-157"/>
										<logginginfo>
											<description></description>
											<scene></scene>
											<shottake></shottake>
											<lognote></lognote>
											<good></good>
											<originalvideofilename></originalvideofilename>
											<originalaudiofilename></originalaudiofilename>
										</logginginfo>
										<colorinfo>
											<lut></lut>
											<lut1></lut1>
											<asc_sop></asc_sop>
											<asc_sat></asc_sat>
											<lut2></lut2>
										</colorinfo>
										<labels>
											<label2>Violet</label2>
										</labels>
									</clipitem>
									<clipitem id="clipitem-763">
										<masterclipid>masterclip-183</masterclipid>
										<name>(thesugarhobby)_CgzGgYYgVZd_IG.mp4</name>
										<enabled>TRUE</enabled>
										<duration>489</duration>
										<rate>
											<timebase>30</timebase>
											<ntsc>TRUE</ntsc>
										</rate>
										<start>11024</start>
										<end>11383</end>
										<in>130</in>
										<out>488</out>
										<pproTicksIn>822987285117</pproTicksIn>
										<pproTicksOut>3105060678717</pproTicksOut>
										<alphatype>none</alphatype>
										<file id="file-158"/>
										<filter>
											<effect>
												<name>Time Remap</name>
												<effectid>timeremap</effectid>
												<effectcategory>motion</effectcategory>
												<effecttype>motion</effecttype>
												<mediatype>video</mediatype>
												<parameter authoringApp="PremierePro">
													<parameterid>variablespeed</parameterid>
													<name>variablespeed</name>
													<valuemin>0</valuemin>
													<valuemax>1</valuemax>
													<value>0</value>
												</parameter>
												<parameter authoringApp="PremierePro">
													<parameterid>speed</parameterid>
													<name>speed</name>
													<valuemin>-100000</valuemin>
													<valuemax>100000</valuemax>
													<value>75</value>
												</parameter>
												<parameter authoringApp="PremierePro">
													<parameterid>reverse</parameterid>
													<name>reverse</name>
													<value>FALSE</value>
												</parameter>
												<parameter authoringApp="PremierePro">
													<parameterid>frameblending</parameterid>
													<name>frameblending</name>
													<value>FALSE</value>
												</parameter>
												<parameter authoringApp="PremierePro">
													<parameterid>graphdict</parameterid>
													<name>graphdict</name>
													<valuemin>0</valuemin>
													<valuemax>366</valuemax>
													<value>0</value>
													<keyframe>
														<when>0</when>
														<value>0</value>
														<speedvirtualkf>TRUE</speedvirtualkf>
														<speedkfstart>TRUE</speedkfstart>
													</keyframe>
													<keyframe>
														<when>130</when>
														<value>97</value>
														<speedvirtualkf>TRUE</speedvirtualkf>
														<speedkfin>TRUE</speedkfin>
													</keyframe>
													<keyframe>
														<when>488</when>
														<value>366</value>
														<speedvirtualkf>TRUE</speedvirtualkf>
														<speedkfout>TRUE</speedkfout>
													</keyframe>
													<keyframe>
														<when>489</when>
														<value>366</value>
														<speedvirtualkf>TRUE</speedvirtualkf>
														<speedkfend>TRUE</speedkfend>
													</keyframe>
													<interpolation>
														<name>FCPCurve</name>
													</interpolation>
												</parameter>
											</effect>
										</filter>
										<logginginfo>
											<description></description>
											<scene></scene>
											<shottake></shottake>
											<lognote></lognote>
											<good></good>
											<originalvideofilename></originalvideofilename>
											<originalaudiofilename></originalaudiofilename>
										</logginginfo>
										<colorinfo>
											<lut></lut>
											<lut1></lut1>
											<asc_sop></asc_sop>
											<asc_sat></asc_sat>
											<lut2></lut2>
										</colorinfo>
										<labels>
											<label2>Violet</label2>
										</labels>
									</clipitem>
									<clipitem id="clipitem-764">
										<masterclipid>masterclip-183</masterclipid>
										<name>(thesugarhobby)_CgzGgYYgVZd_IG.mp4</name>
										<enabled>TRUE</enabled>
										<duration>367</duration>
										<rate>
											<timebase>30</timebase>
											<ntsc>TRUE</ntsc>
										</rate>
										<start>11383</start>
										<end>11477</end>
										<in>0</in>
										<out>94</out>
										<pproTicksIn>0</pproTicksIn>
										<pproTicksOut>796712716800</pproTicksOut>
										<alphatype>none</alphatype>
										<file id="file-158"/>
										<logginginfo>
											<description></description>
											<scene></scene>
											<shottake></shottake>
											<lognote></lognote>
											<good></good>
											<originalvideofilename></originalvideofilename>
											<originalaudiofilename></originalaudiofilename>
										</logginginfo>
										<colorinfo>
											<lut></lut>
											<lut1></lut1>
											<asc_sop></asc_sop>
											<asc_sat></asc_sat>
											<lut2></lut2>
										</colorinfo>
										<labels>
											<label2>Violet</label2>
										</labels>
									</clipitem>
									<clipitem id="clipitem-765">
										<masterclipid>masterclip-184</masterclipid>
										<name>(kerrysbouqcakes)_7217936596002147590_TT.mp4</name>
										<enabled>TRUE</enabled>
										<duration>499</duration>
										<rate>
											<timebase>30</timebase>
											<ntsc>TRUE</ntsc>
										</rate>
										<start>11477</start>
										<end>11976</end>
										<in>0</in>
										<out>499</out>
										<pproTicksIn>0</pproTicksIn>
										<pproTicksOut>6344036899200</pproTicksOut>
										<alphatype>none</alphatype>
										<file id="file-159"/>
										<filter>
											<effect>
												<name>Time Remap</name>
												<effectid>timeremap</effectid>
												<effectcategory>motion</effectcategory>
												<effecttype>motion</effecttype>
												<mediatype>video</mediatype>
												<parameter authoringApp="PremierePro">
													<parameterid>variablespeed</parameterid>
													<name>variablespeed</name>
													<valuemin>0</valuemin>
													<valuemax>1</valuemax>
													<value>0</value>
												</parameter>
												<parameter authoringApp="PremierePro">
													<parameterid>speed</parameterid>
													<name>speed</name>
													<valuemin>-100000</valuemin>
													<valuemax>100000</valuemax>
													<value>150</value>
												</parameter>
												<parameter authoringApp="PremierePro">
													<parameterid>reverse</parameterid>
													<name>reverse</name>
													<value>FALSE</value>
												</parameter>
												<parameter authoringApp="PremierePro">
													<parameterid>frameblending</parameterid>
													<name>frameblending</name>
													<value>FALSE</value>
												</parameter>
												<parameter authoringApp="PremierePro">
													<parameterid>graphdict</parameterid>
													<name>graphdict</name>
													<valuemin>0</valuemin>
													<valuemax>748</valuemax>
													<value>0</value>
													<keyframe>
														<when>0</when>
														<value>0</value>
														<speedvirtualkf>TRUE</speedvirtualkf>
														<speedkfin>TRUE</speedkfin>
													</keyframe>
													<keyframe>
														<when>499</when>
														<value>748</value>
														<speedvirtualkf>TRUE</speedvirtualkf>
														<speedkfout>TRUE</speedkfout>
													</keyframe>
													<interpolation>
														<name>FCPCurve</name>
													</interpolation>
												</parameter>
											</effect>
										</filter>
										<logginginfo>
											<description></description>
											<scene></scene>
											<shottake></shottake>
											<lognote></lognote>
											<good></good>
											<originalvideofilename></originalvideofilename>
											<originalaudiofilename></originalaudiofilename>
										</logginginfo>
										<colorinfo>
											<lut></lut>
											<lut1></lut1>
											<asc_sop></asc_sop>
											<asc_sat></asc_sat>
											<lut2></lut2>
										</colorinfo>
										<labels>
											<label2>Violet</label2>
										</labels>
									</clipitem>
									<clipitem id="clipitem-766">
										<masterclipid>masterclip-185</masterclipid>
										<name>(charrajf)_CaNblf3jHPm_IG.mp4</name>
										<enabled>TRUE</enabled>
										<duration>3352</duration>
										<rate>
											<timebase>30</timebase>
											<ntsc>TRUE</ntsc>
										</rate>
										<start>11976</start>
										<end>12015</end>
										<in>198</in>
										<out>237</out>
										<pproTicksIn>1678182105600</pproTicksIn>
										<pproTicksOut>2008733126400</pproTicksOut>
										<alphatype>none</alphatype>
										<file id="file-160"/>
										<logginginfo>
											<description></description>
											<scene></scene>
											<shottake></shottake>
											<lognote></lognote>
											<good></good>
											<originalvideofilename></originalvideofilename>
											<originalaudiofilename></originalaudiofilename>
										</logginginfo>
										<colorinfo>
											<lut></lut>
											<lut1></lut1>
											<asc_sop></asc_sop>
											<asc_sat></asc_sat>
											<lut2></lut2>
										</colorinfo>
										<labels>
											<label2>Forest</label2>
										</labels>
									</clipitem>
									<clipitem id="clipitem-767">
										<masterclipid>masterclip-185</masterclipid>
										<name>(charrajf)_CaNblf3jHPm_IG.mp4</name>
										<enabled>TRUE</enabled>
										<duration>3352</duration>
										<rate>
											<timebase>30</timebase>
											<ntsc>TRUE</ntsc>
										</rate>
										<start>12015</start>
										<end>12046</end>
										<in>359</in>
										<out>390</out>
										<pproTicksIn>3042764524800</pproTicksIn>
										<pproTicksOut>3305510208000</pproTicksOut>
										<alphatype>none</alphatype>
										<file id="file-160"/>
										<logginginfo>
											<description></description>
											<scene></scene>
											<shottake></shottake>
											<lognote></lognote>
											<good></good>
											<originalvideofilename></originalvideofilename>
											<originalaudiofilename></originalaudiofilename>
										</logginginfo>
										<colorinfo>
											<lut></lut>
											<lut1></lut1>
											<asc_sop></asc_sop>
											<asc_sat></asc_sat>
											<lut2></lut2>
										</colorinfo>
										<labels>
											<label2>Forest</label2>
										</labels>
									</clipitem>
									<clipitem id="clipitem-768">
										<masterclipid>masterclip-185</masterclipid>
										<name>(charrajf)_CaNblf3jHPm_IG.mp4</name>
										<enabled>TRUE</enabled>
										<duration>3352</duration>
										<rate>
											<timebase>30</timebase>
											<ntsc>TRUE</ntsc>
										</rate>
										<start>12046</start>
										<end>12120</end>
										<in>420</in>
										<out>494</out>
										<pproTicksIn>3559780224000</pproTicksIn>
										<pproTicksOut>4186979596800</pproTicksOut>
										<alphatype>none</alphatype>
										<file id="file-160"/>
										<logginginfo>
											<description></description>
											<scene></scene>
											<shottake></shottake>
											<lognote></lognote>
											<good></good>
											<originalvideofilename></originalvideofilename>
											<originalaudiofilename></originalaudiofilename>
										</logginginfo>
										<colorinfo>
											<lut></lut>
											<lut1></lut1>
											<asc_sop></asc_sop>
											<asc_sat></asc_sat>
											<lut2></lut2>
										</colorinfo>
										<labels>
											<label2>Forest</label2>
										</labels>
									</clipitem>
									<clipitem id="clipitem-769">
										<masterclipid>masterclip-185</masterclipid>
										<name>(charrajf)_CaNblf3jHPm_IG.mp4</name>
										<enabled>TRUE</enabled>
										<duration>3352</duration>
										<rate>
											<timebase>30</timebase>
											<ntsc>TRUE</ntsc>
										</rate>
										<start>12120</start>
										<end>12168</end>
										<in>588</in>
										<out>636</out>
										<pproTicksIn>4983692313600</pproTicksIn>
										<pproTicksOut>5390524339200</pproTicksOut>
										<alphatype>none</alphatype>
										<file id="file-160"/>
										<logginginfo>
											<description></description>
											<scene></scene>
											<shottake></shottake>
											<lognote></lognote>
											<good></good>
											<originalvideofilename></originalvideofilename>
											<originalaudiofilename></originalaudiofilename>
										</logginginfo>
										<colorinfo>
											<lut></lut>
											<lut1></lut1>
											<asc_sop></asc_sop>
											<asc_sat></asc_sat>
											<lut2></lut2>
										</colorinfo>
										<labels>
											<label2>Forest</label2>
										</labels>
									</clipitem>
									<clipitem id="clipitem-770">
										<masterclipid>masterclip-185</masterclipid>
										<name>(charrajf)_CaNblf3jHPm_IG.mp4</name>
										<enabled>TRUE</enabled>
										<duration>3352</duration>
										<rate>
											<timebase>30</timebase>
											<ntsc>TRUE</ntsc>
										</rate>
										<start>12168</start>
										<end>12195</end>
										<in>2156</in>
										<out>2183</out>
										<pproTicksIn>18273538483200</pproTicksIn>
										<pproTicksOut>18502381497600</pproTicksOut>
										<alphatype>none</alphatype>
										<file id="file-160"/>
										<logginginfo>
											<description></description>
											<scene></scene>
											<shottake></shottake>
											<lognote></lognote>
											<good></good>
											<originalvideofilename></originalvideofilename>
											<originalaudiofilename></originalaudiofilename>
										</logginginfo>
										<colorinfo>
											<lut></lut>
											<lut1></lut1>
											<asc_sop></asc_sop>
											<asc_sat></asc_sat>
											<lut2></lut2>
										</colorinfo>
										<labels>
											<label2>Forest</label2>
										</labels>
									</clipitem>
									<clipitem id="clipitem-771">
										<masterclipid>masterclip-185</masterclipid>
										<name>(charrajf)_CaNblf3jHPm_IG.mp4</name>
										<enabled>TRUE</enabled>
										<duration>3352</duration>
										<rate>
											<timebase>30</timebase>
											<ntsc>TRUE</ntsc>
										</rate>
										<start>12195</start>
										<end>12261</end>
										<in>2604</in>
										<out>2670</out>
										<pproTicksIn>22070637388800</pproTicksIn>
										<pproTicksOut>22630031424000</pproTicksOut>
										<alphatype>none</alphatype>
										<file id="file-160"/>
										<logginginfo>
											<description></description>
											<scene></scene>
											<shottake></shottake>
											<lognote></lognote>
											<good></good>
											<originalvideofilename></originalvideofilename>
											<originalaudiofilename></originalaudiofilename>
										</logginginfo>
										<colorinfo>
											<lut></lut>
											<lut1></lut1>
											<asc_sop></asc_sop>
											<asc_sat></asc_sat>
											<lut2></lut2>
										</colorinfo>
										<labels>
											<label2>Forest</label2>
										</labels>
									</clipitem>
									<clipitem id="clipitem-772">
										<masterclipid>masterclip-185</masterclipid>
										<name>(charrajf)_CaNblf3jHPm_IG.mp4</name>
										<enabled>TRUE</enabled>
										<duration>3352</duration>
										<rate>
											<timebase>30</timebase>
											<ntsc>TRUE</ntsc>
										</rate>
										<start>12261</start>
										<end>12291</end>
										<in>2835</in>
										<out>2865</out>
										<pproTicksIn>24028516512000</pproTicksIn>
										<pproTicksOut>24282786528000</pproTicksOut>
										<alphatype>none</alphatype>
										<file id="file-160"/>
										<logginginfo>
											<description></description>
											<scene></scene>
											<shottake></shottake>
											<lognote></lognote>
											<good></good>
											<originalvideofilename></originalvideofilename>
											<originalaudiofilename></originalaudiofilename>
										</logginginfo>
										<colorinfo>
											<lut></lut>
											<lut1></lut1>
											<asc_sop></asc_sop>
											<asc_sat></asc_sat>
											<lut2></lut2>
										</colorinfo>
										<labels>
											<label2>Forest</label2>
										</labels>
									</clipitem>
									<clipitem id="clipitem-773">
										<masterclipid>masterclip-185</masterclipid>
										<name>(charrajf)_CaNblf3jHPm_IG.mp4</name>
										<enabled>TRUE</enabled>
										<duration>3352</duration>
										<rate>
											<timebase>30</timebase>
											<ntsc>TRUE</ntsc>
										</rate>
										<start>12291</start>
										<end>12333</end>
										<in>2907</in>
										<out>2949</out>
										<pproTicksIn>24638764550400</pproTicksIn>
										<pproTicksOut>24994742572800</pproTicksOut>
										<alphatype>none</alphatype>
										<file id="file-160"/>
										<logginginfo>
											<description></description>
											<scene></scene>
											<shottake></shottake>
											<lognote></lognote>
											<good></good>
											<originalvideofilename></originalvideofilename>
											<originalaudiofilename></originalaudiofilename>
										</logginginfo>
										<colorinfo>
											<lut></lut>
											<lut1></lut1>
											<asc_sop></asc_sop>
											<asc_sat></asc_sat>
											<lut2></lut2>
										</colorinfo>
										<labels>
											<label2>Forest</label2>
										</labels>
									</clipitem>
									<clipitem id="clipitem-774">
										<masterclipid>masterclip-185</masterclipid>
										<name>(charrajf)_CaNblf3jHPm_IG.mp4</name>
										<enabled>TRUE</enabled>
										<duration>3352</duration>
										<rate>
											<timebase>30</timebase>
											<ntsc>TRUE</ntsc>
										</rate>
										<start>12333</start>
										<end>12379</end>
										<in>3052</in>
										<out>3098</out>
										<pproTicksIn>25867736294400</pproTicksIn>
										<pproTicksOut>26257616985600</pproTicksOut>
										<alphatype>none</alphatype>
										<file id="file-160"/>
										<logginginfo>
											<description></description>
											<scene></scene>
											<shottake></shottake>
											<lognote></lognote>
											<good></good>
											<originalvideofilename></originalvideofilename>
											<originalaudiofilename></originalaudiofilename>
										</logginginfo>
										<colorinfo>
											<lut></lut>
											<lut1></lut1>
											<asc_sop></asc_sop>
											<asc_sat></asc_sat>
											<lut2></lut2>
										</colorinfo>
										<labels>
											<label2>Forest</label2>
										</labels>
									</clipitem>
									<clipitem id="clipitem-775">
										<masterclipid>masterclip-185</masterclipid>
										<name>(charrajf)_CaNblf3jHPm_IG.mp4</name>
										<enabled>TRUE</enabled>
										<duration>3352</duration>
										<rate>
											<timebase>30</timebase>
											<ntsc>TRUE</ntsc>
										</rate>
										<start>12379</start>
										<end>12404</end>
										<in>23</in>
										<out>48</out>
										<pproTicksIn>194940345600</pproTicksIn>
										<pproTicksOut>406832025600</pproTicksOut>
										<alphatype>none</alphatype>
										<file id="file-160"/>
										<logginginfo>
											<description></description>
											<scene></scene>
											<shottake></shottake>
											<lognote></lognote>
											<good></good>
											<originalvideofilename></originalvideofilename>
											<originalaudiofilename></originalaudiofilename>
										</logginginfo>
										<colorinfo>
											<lut></lut>
											<lut1></lut1>
											<asc_sop></asc_sop>
											<asc_sat></asc_sat>
											<lut2></lut2>
										</colorinfo>
										<labels>
											<label2>Forest</label2>
										</labels>
									</clipitem>
									<clipitem id="clipitem-776">
										<masterclipid>masterclip-185</masterclipid>
										<name>(charrajf)_CaNblf3jHPm_IG.mp4</name>
										<enabled>TRUE</enabled>
										<duration>3352</duration>
										<rate>
											<timebase>30</timebase>
											<ntsc>TRUE</ntsc>
										</rate>
										<start>12404</start>
										<end>12443</end>
										<in>74</in>
										<out>113</out>
										<pproTicksIn>627199372800</pproTicksIn>
										<pproTicksOut>957750393600</pproTicksOut>
										<alphatype>none</alphatype>
										<file id="file-160"/>
										<logginginfo>
											<description></description>
											<scene></scene>
											<shottake></shottake>
											<lognote></lognote>
											<good></good>
											<originalvideofilename></originalvideofilename>
											<originalaudiofilename></originalaudiofilename>
										</logginginfo>
										<colorinfo>
											<lut></lut>
											<lut1></lut1>
											<asc_sop></asc_sop>
											<asc_sat></asc_sat>
											<lut2></lut2>
										</colorinfo>
										<labels>
											<label2>Forest</label2>
										</labels>
									</clipitem>
									<clipitem id="clipitem-777">
										<masterclipid>masterclip-189</masterclipid>
										<name>(succulentbite)_Bi4SIwCAC9p_IG.mp4</name>
										<enabled>TRUE</enabled>
										<duration>319</duration>
										<rate>
											<timebase>30</timebase>
											<ntsc>TRUE</ntsc>
										</rate>
										<start>12443</start>
										<end>12664</end>
										<in>0</in>
										<out>221</out>
										<pproTicksIn>0</pproTicksIn>
										<pproTicksOut>1873122451200</pproTicksOut>
										<alphatype>none</alphatype>
										<file id="file-162"/>
										<logginginfo>
											<description></description>
											<scene></scene>
											<shottake></shottake>
											<lognote></lognote>
											<good></good>
											<originalvideofilename></originalvideofilename>
											<originalaudiofilename></originalaudiofilename>
										</logginginfo>
										<colorinfo>
											<lut></lut>
											<lut1></lut1>
											<asc_sop></asc_sop>
											<asc_sat></asc_sat>
											<lut2></lut2>
										</colorinfo>
										<labels>
											<label2>Violet</label2>
										</labels>
									</clipitem>
									<clipitem id="clipitem-778">
										<masterclipid>masterclip-190</masterclipid>
										<name>(succulentbite)_BiPzA58AX-B_IG.mp4</name>
										<enabled>TRUE</enabled>
										<duration>289</duration>
										<rate>
											<timebase>30</timebase>
											<ntsc>TRUE</ntsc>
										</rate>
										<start>12664</start>
										<end>12856</end>
										<in>0</in>
										<out>192</out>
										<pproTicksIn>0</pproTicksIn>
										<pproTicksOut>1627328102400</pproTicksOut>
										<alphatype>none</alphatype>
										<file id="file-163"/>
										<logginginfo>
											<description></description>
											<scene></scene>
											<shottake></shottake>
											<lognote></lognote>
											<good></good>
											<originalvideofilename></originalvideofilename>
											<originalaudiofilename></originalaudiofilename>
										</logginginfo>
										<colorinfo>
											<lut></lut>
											<lut1></lut1>
											<asc_sop></asc_sop>
											<asc_sat></asc_sat>
											<lut2></lut2>
										</colorinfo>
										<labels>
											<label2>Violet</label2>
										</labels>
									</clipitem>
									<clipitem id="clipitem-779">
										<masterclipid>masterclip-191</masterclipid>
										<name>(succulentbite)_BiXqoD1ANAT_IG.mp4</name>
										<enabled>TRUE</enabled>
										<duration>326</duration>
										<rate>
											<timebase>30</timebase>
											<ntsc>TRUE</ntsc>
										</rate>
										<start>12856</start>
										<end>13090</end>
										<in>0</in>
										<out>234</out>
										<pproTicksIn>0</pproTicksIn>
										<pproTicksOut>1983306124800</pproTicksOut>
										<alphatype>none</alphatype>
										<file id="file-164"/>
										<logginginfo>
											<description></description>
											<scene></scene>
											<shottake></shottake>
											<lognote></lognote>
											<good></good>
											<originalvideofilename></originalvideofilename>
											<originalaudiofilename></originalaudiofilename>
										</logginginfo>
										<colorinfo>
											<lut></lut>
											<lut1></lut1>
											<asc_sop></asc_sop>
											<asc_sat></asc_sat>
											<lut2></lut2>
										</colorinfo>
										<labels>
											<label2>Violet</label2>
										</labels>
									</clipitem>
									<clipitem id="clipitem-780">
										<masterclipid>masterclip-192</masterclipid>
										<name>(succulentbite)_BiZ03lwAc3d_IG.mp4</name>
										<enabled>TRUE</enabled>
										<duration>324</duration>
										<rate>
											<timebase>30</timebase>
											<ntsc>TRUE</ntsc>
										</rate>
										<start>13090</start>
										<end>13319</end>
										<in>0</in>
										<out>229</out>
										<pproTicksIn>0</pproTicksIn>
										<pproTicksOut>1940927788800</pproTicksOut>
										<alphatype>none</alphatype>
										<file id="file-165"/>
										<logginginfo>
											<description></description>
											<scene></scene>
											<shottake></shottake>
											<lognote></lognote>
											<good></good>
											<originalvideofilename></originalvideofilename>
											<originalaudiofilename></originalaudiofilename>
										</logginginfo>
										<colorinfo>
											<lut></lut>
											<lut1></lut1>
											<asc_sop></asc_sop>
											<asc_sat></asc_sat>
											<lut2></lut2>
										</colorinfo>
										<labels>
											<label2>Violet</label2>
										</labels>
									</clipitem>
									<clipitem id="clipitem-781">
										<masterclipid>masterclip-193</masterclipid>
										<name>(succulentbite)_BihqtRWgPXH_IG.mp4</name>
										<enabled>TRUE</enabled>
										<duration>309</duration>
										<rate>
											<timebase>30</timebase>
											<ntsc>TRUE</ntsc>
										</rate>
										<start>13319</start>
										<end>13532</end>
										<in>0</in>
										<out>213</out>
										<pproTicksIn>0</pproTicksIn>
										<pproTicksOut>1805317113600</pproTicksOut>
										<alphatype>none</alphatype>
										<file id="file-166"/>
										<logginginfo>
											<description></description>
											<scene></scene>
											<shottake></shottake>
											<lognote></lognote>
											<good></good>
											<originalvideofilename></originalvideofilename>
											<originalaudiofilename></originalaudiofilename>
										</logginginfo>
										<colorinfo>
											<lut></lut>
											<lut1></lut1>
											<asc_sop></asc_sop>
											<asc_sat></asc_sat>
											<lut2></lut2>
										</colorinfo>
										<labels>
											<label2>Violet</label2>
										</labels>
									</clipitem>
									<clipitem id="clipitem-782">
										<masterclipid>masterclip-194</masterclipid>
										<name>(succulentbite)_Bim_Q1_gGy__IG.mp4</name>
										<enabled>TRUE</enabled>
										<duration>305</duration>
										<rate>
											<timebase>30</timebase>
											<ntsc>TRUE</ntsc>
										</rate>
										<start>13532</start>
										<end>13729</end>
										<in>0</in>
										<out>197</out>
										<pproTicksIn>0</pproTicksIn>
										<pproTicksOut>1669706438400</pproTicksOut>
										<alphatype>none</alphatype>
										<file id="file-167"/>
										<logginginfo>
											<description></description>
											<scene></scene>
											<shottake></shottake>
											<lognote></lognote>
											<good></good>
											<originalvideofilename></originalvideofilename>
											<originalaudiofilename></originalaudiofilename>
										</logginginfo>
										<colorinfo>
											<lut></lut>
											<lut1></lut1>
											<asc_sop></asc_sop>
											<asc_sat></asc_sat>
											<lut2></lut2>
										</colorinfo>
										<labels>
											<label2>Violet</label2>
										</labels>
									</clipitem>
									<clipitem id="clipitem-783">
										<masterclipid>masterclip-195</masterclipid>
										<name>(succulentbite)_Bium7glAAso_IG.mp4</name>
										<enabled>TRUE</enabled>
										<duration>327</duration>
										<rate>
											<timebase>30</timebase>
											<ntsc>TRUE</ntsc>
										</rate>
										<start>13729</start>
										<end>13954</end>
										<in>0</in>
										<out>225</out>
										<pproTicksIn>0</pproTicksIn>
										<pproTicksOut>1907025120000</pproTicksOut>
										<alphatype>none</alphatype>
										<file id="file-168"/>
										<logginginfo>
											<description></description>
											<scene></scene>
											<shottake></shottake>
											<lognote></lognote>
											<good></good>
											<originalvideofilename></originalvideofilename>
											<originalaudiofilename></originalaudiofilename>
										</logginginfo>
										<colorinfo>
											<lut></lut>
											<lut1></lut1>
											<asc_sop></asc_sop>
											<asc_sat></asc_sat>
											<lut2></lut2>
										</colorinfo>
										<labels>
											<label2>Violet</label2>
										</labels>
									</clipitem>
									<clipitem id="clipitem-784">
										<masterclipid>masterclip-196</masterclipid>
										<name>(succulentbite)_BixQ5lAAiV9_IG.mp4</name>
										<enabled>TRUE</enabled>
										<duration>281</duration>
										<rate>
											<timebase>30</timebase>
											<ntsc>TRUE</ntsc>
										</rate>
										<start>13954</start>
										<end>14127</end>
										<in>0</in>
										<out>173</out>
										<pproTicksIn>0</pproTicksIn>
										<pproTicksOut>1466290425600</pproTicksOut>
										<alphatype>none</alphatype>
										<file id="file-169"/>
										<logginginfo>
											<description></description>
											<scene></scene>
											<shottake></shottake>
											<lognote></lognote>
											<good></good>
											<originalvideofilename></originalvideofilename>
											<originalaudiofilename></originalaudiofilename>
										</logginginfo>
										<colorinfo>
											<lut></lut>
											<lut1></lut1>
											<asc_sop></asc_sop>
											<asc_sat></asc_sat>
											<lut2></lut2>
										</colorinfo>
										<labels>
											<label2>Violet</label2>
										</labels>
									</clipitem>
									<clipitem id="clipitem-785">
										<masterclipid>masterclip-197</masterclipid>
										<name>(succulentbite)_Bj4qdKNAwAi_IG.mp4</name>
										<enabled>TRUE</enabled>
										<duration>388</duration>
										<rate>
											<timebase>30</timebase>
											<ntsc>TRUE</ntsc>
										</rate>
										<start>14127</start>
										<end>14409</end>
										<in>0</in>
										<out>282</out>
										<pproTicksIn>0</pproTicksIn>
										<pproTicksOut>2390138150400</pproTicksOut>
										<alphatype>none</alphatype>
										<file id="file-170"/>
										<logginginfo>
											<description></description>
											<scene></scene>
											<shottake></shottake>
											<lognote></lognote>
											<good></good>
											<originalvideofilename></originalvideofilename>
											<originalaudiofilename></originalaudiofilename>
										</logginginfo>
										<colorinfo>
											<lut></lut>
											<lut1></lut1>
											<asc_sop></asc_sop>
											<asc_sat></asc_sat>
											<lut2></lut2>
										</colorinfo>
										<labels>
											<label2>Violet</label2>
										</labels>
									</clipitem>
									<clipitem id="clipitem-786">
										<masterclipid>masterclip-198</masterclipid>
										<name>(succulentbite)_BjF4fiqAOuH_IG.mp4</name>
										<enabled>TRUE</enabled>
										<duration>304</duration>
										<rate>
											<timebase>30</timebase>
											<ntsc>TRUE</ntsc>
										</rate>
										<start>14409</start>
										<end>14617</end>
										<in>0</in>
										<out>208</out>
										<pproTicksIn>0</pproTicksIn>
										<pproTicksOut>1762938777600</pproTicksOut>
										<alphatype>none</alphatype>
										<file id="file-171"/>
										<logginginfo>
											<description></description>
											<scene></scene>
											<shottake></shottake>
											<lognote></lognote>
											<good></good>
											<originalvideofilename></originalvideofilename>
											<originalaudiofilename></originalaudiofilename>
										</logginginfo>
										<colorinfo>
											<lut></lut>
											<lut1></lut1>
											<asc_sop></asc_sop>
											<asc_sat></asc_sat>
											<lut2></lut2>
										</colorinfo>
										<labels>
											<label2>Violet</label2>
										</labels>
									</clipitem>
									<clipitem id="clipitem-787">
										<masterclipid>masterclip-199</masterclipid>
										<name>(succulentbite)_BjHxafugAJY_IG.mp4</name>
										<enabled>TRUE</enabled>
										<duration>348</duration>
										<rate>
											<timebase>30</timebase>
											<ntsc>TRUE</ntsc>
										</rate>
										<start>14617</start>
										<end>14860</end>
										<in>0</in>
										<out>243</out>
										<pproTicksIn>0</pproTicksIn>
										<pproTicksOut>2059587129600</pproTicksOut>
										<alphatype>none</alphatype>
										<file id="file-172"/>
										<logginginfo>
											<description></description>
											<scene></scene>
											<shottake></shottake>
											<lognote></lognote>
											<good></good>
											<originalvideofilename></originalvideofilename>
											<originalaudiofilename></originalaudiofilename>
										</logginginfo>
										<colorinfo>
											<lut></lut>
											<lut1></lut1>
											<asc_sop></asc_sop>
											<asc_sat></asc_sat>
											<lut2></lut2>
										</colorinfo>
										<labels>
											<label2>Violet</label2>
										</labels>
									</clipitem>
									<clipitem id="clipitem-788">
										<masterclipid>masterclip-200</masterclipid>
										<name>(succulentbite)_BjkSGpQg49z_IG.mp4</name>
										<enabled>TRUE</enabled>
										<duration>301</duration>
										<rate>
											<timebase>30</timebase>
											<ntsc>TRUE</ntsc>
										</rate>
										<start>14860</start>
										<end>15071</end>
										<in>0</in>
										<out>211</out>
										<pproTicksIn>0</pproTicksIn>
										<pproTicksOut>1788365779200</pproTicksOut>
										<alphatype>none</alphatype>
										<file id="file-173"/>
										<logginginfo>
											<description></description>
											<scene></scene>
											<shottake></shottake>
											<lognote></lognote>
											<good></good>
											<originalvideofilename></originalvideofilename>
											<originalaudiofilename></originalaudiofilename>
										</logginginfo>
										<colorinfo>
											<lut></lut>
											<lut1></lut1>
											<asc_sop></asc_sop>
											<asc_sat></asc_sat>
											<lut2></lut2>
										</colorinfo>
										<labels>
											<label2>Violet</label2>
										</labels>
									</clipitem>
									<clipitem id="clipitem-789">
										<masterclipid>masterclip-208</masterclipid>
										<name>(Camp Chef)_Tiramisu Pancakes for Mother's Day_3Rtmg-VHoMQ_YT.mp4</name>
										<enabled>TRUE</enabled>
										<duration>9358</duration>
										<rate>
											<timebase>30</timebase>
											<ntsc>TRUE</ntsc>
										</rate>
										<start>15071</start>
										<end>15148</end>
										<in>648</in>
										<out>725</out>
										<pproTicksIn>5492232345600</pproTicksIn>
										<pproTicksOut>6144858720000</pproTicksOut>
										<alphatype>none</alphatype>
										<file id="file-179"/>
										<logginginfo>
											<description>Tiramisu Pancakes for Mother's Day</description>
											<scene></scene>
											<shottake></shottake>
											<lognote>https://www.youtube.com/watch?v=3Rtmg-VHoMQ</lognote>
											<good></good>
											<originalvideofilename></originalvideofilename>
											<originalaudiofilename></originalaudiofilename>
										</logginginfo>
										<colorinfo>
											<lut></lut>
											<lut1></lut1>
											<asc_sop></asc_sop>
											<asc_sat></asc_sat>
											<lut2></lut2>
										</colorinfo>
										<labels>
											<label2>Violet</label2>
										</labels>
									</clipitem>
									<clipitem id="clipitem-790">
										<masterclipid>masterclip-208</masterclipid>
										<name>(Camp Chef)_Tiramisu Pancakes for Mother's Day_3Rtmg-VHoMQ_YT.mp4</name>
										<enabled>TRUE</enabled>
										<duration>9358</duration>
										<rate>
											<timebase>30</timebase>
											<ntsc>TRUE</ntsc>
										</rate>
										<start>15148</start>
										<end>15197</end>
										<in>801</in>
										<out>850</out>
										<pproTicksIn>6789009427200</pproTicksIn>
										<pproTicksOut>7204317120000</pproTicksOut>
										<alphatype>none</alphatype>
										<file id="file-179"/>
										<logginginfo>
											<description>Tiramisu Pancakes for Mother's Day</description>
											<scene></scene>
											<shottake></shottake>
											<lognote>https://www.youtube.com/watch?v=3Rtmg-VHoMQ</lognote>
											<good></good>
											<originalvideofilename></originalvideofilename>
											<originalaudiofilename></originalaudiofilename>
										</logginginfo>
										<colorinfo>
											<lut></lut>
											<lut1></lut1>
											<asc_sop></asc_sop>
											<asc_sat></asc_sat>
											<lut2></lut2>
										</colorinfo>
										<labels>
											<label2>Violet</label2>
										</labels>
									</clipitem>
									<clipitem id="clipitem-791">
										<masterclipid>masterclip-208</masterclipid>
										<name>(Camp Chef)_Tiramisu Pancakes for Mother's Day_3Rtmg-VHoMQ_YT.mp4</name>
										<enabled>TRUE</enabled>
										<duration>9358</duration>
										<rate>
											<timebase>30</timebase>
											<ntsc>TRUE</ntsc>
										</rate>
										<start>15197</start>
										<end>15363</end>
										<in>1248</in>
										<out>1414</out>
										<pproTicksIn>10577632665600</pproTicksIn>
										<pproTicksOut>11984593420800</pproTicksOut>
										<alphatype>none</alphatype>
										<file id="file-179"/>
										<logginginfo>
											<description>Tiramisu Pancakes for Mother's Day</description>
											<scene></scene>
											<shottake></shottake>
											<lognote>https://www.youtube.com/watch?v=3Rtmg-VHoMQ</lognote>
											<good></good>
											<originalvideofilename></originalvideofilename>
											<originalaudiofilename></originalaudiofilename>
										</logginginfo>
										<colorinfo>
											<lut></lut>
											<lut1></lut1>
											<asc_sop></asc_sop>
											<asc_sat></asc_sat>
											<lut2></lut2>
										</colorinfo>
										<labels>
											<label2>Violet</label2>
										</labels>
									</clipitem>
									<clipitem id="clipitem-792">
										<masterclipid>masterclip-208</masterclipid>
										<name>(Camp Chef)_Tiramisu Pancakes for Mother's Day_3Rtmg-VHoMQ_YT.mp4</name>
										<enabled>TRUE</enabled>
										<duration>9358</duration>
										<rate>
											<timebase>30</timebase>
											<ntsc>TRUE</ntsc>
										</rate>
										<start>15363</start>
										<end>15425</end>
										<in>1808</in>
										<out>1870</out>
										<pproTicksIn>15324006297600</pproTicksIn>
										<pproTicksOut>15849497664000</pproTicksOut>
										<alphatype>none</alphatype>
										<file id="file-179"/>
										<logginginfo>
											<description>Tiramisu Pancakes for Mother's Day</description>
											<scene></scene>
											<shottake></shottake>
											<lognote>https://www.youtube.com/watch?v=3Rtmg-VHoMQ</lognote>
											<good></good>
											<originalvideofilename></originalvideofilename>
											<originalaudiofilename></originalaudiofilename>
										</logginginfo>
										<colorinfo>
											<lut></lut>
											<lut1></lut1>
											<asc_sop></asc_sop>
											<asc_sat></asc_sat>
											<lut2></lut2>
										</colorinfo>
										<labels>
											<label2>Violet</label2>
										</labels>
									</clipitem>
									<clipitem id="clipitem-793">
										<masterclipid>masterclip-208</masterclipid>
										<name>(Camp Chef)_Tiramisu Pancakes for Mother's Day_3Rtmg-VHoMQ_YT.mp4</name>
										<enabled>TRUE</enabled>
										<duration>9358</duration>
										<rate>
											<timebase>30</timebase>
											<ntsc>TRUE</ntsc>
										</rate>
										<start>15425</start>
										<end>15497</end>
										<in>2340</in>
										<out>2412</out>
										<pproTicksIn>19833061248000</pproTicksIn>
										<pproTicksOut>20443309286400</pproTicksOut>
										<alphatype>none</alphatype>
										<file id="file-179"/>
										<logginginfo>
											<description>Tiramisu Pancakes for Mother's Day</description>
											<scene></scene>
											<shottake></shottake>
											<lognote>https://www.youtube.com/watch?v=3Rtmg-VHoMQ</lognote>
											<good></good>
											<originalvideofilename></originalvideofilename>
											<originalaudiofilename></originalaudiofilename>
										</logginginfo>
										<colorinfo>
											<lut></lut>
											<lut1></lut1>
											<asc_sop></asc_sop>
											<asc_sat></asc_sat>
											<lut2></lut2>
										</colorinfo>
										<labels>
											<label2>Violet</label2>
										</labels>
									</clipitem>
									<clipitem id="clipitem-794">
										<masterclipid>masterclip-208</masterclipid>
										<name>(Camp Chef)_Tiramisu Pancakes for Mother's Day_3Rtmg-VHoMQ_YT.mp4</name>
										<enabled>TRUE</enabled>
										<duration>9358</duration>
										<rate>
											<timebase>30</timebase>
											<ntsc>TRUE</ntsc>
										</rate>
										<start>15497</start>
										<end>15615</end>
										<in>2774</in>
										<out>2892</out>
										<pproTicksIn>23511500812800</pproTicksIn>
										<pproTicksOut>24511629542400</pproTicksOut>
										<alphatype>none</alphatype>
										<file id="file-179"/>
										<logginginfo>
											<description>Tiramisu Pancakes for Mother's Day</description>
											<scene></scene>
											<shottake></shottake>
											<lognote>https://www.youtube.com/watch?v=3Rtmg-VHoMQ</lognote>
											<good></good>
											<originalvideofilename></originalvideofilename>
											<originalaudiofilename></originalaudiofilename>
										</logginginfo>
										<colorinfo>
											<lut></lut>
											<lut1></lut1>
											<asc_sop></asc_sop>
											<asc_sat></asc_sat>
											<lut2></lut2>
										</colorinfo>
										<labels>
											<label2>Violet</label2>
										</labels>
									</clipitem>
									<clipitem id="clipitem-795">
										<masterclipid>masterclip-208</masterclipid>
										<name>(Camp Chef)_Tiramisu Pancakes for Mother's Day_3Rtmg-VHoMQ_YT.mp4</name>
										<enabled>TRUE</enabled>
										<duration>9358</duration>
										<rate>
											<timebase>30</timebase>
											<ntsc>TRUE</ntsc>
										</rate>
										<start>15615</start>
										<end>15695</end>
										<in>3180</in>
										<out>3260</out>
										<pproTicksIn>26952621696000</pproTicksIn>
										<pproTicksOut>27630675072000</pproTicksOut>
										<alphatype>none</alphatype>
										<file id="file-179"/>
										<logginginfo>
											<description>Tiramisu Pancakes for Mother's Day</description>
											<scene></scene>
											<shottake></shottake>
											<lognote>https://www.youtube.com/watch?v=3Rtmg-VHoMQ</lognote>
											<good></good>
											<originalvideofilename></originalvideofilename>
											<originalaudiofilename></originalaudiofilename>
										</logginginfo>
										<colorinfo>
											<lut></lut>
											<lut1></lut1>
											<asc_sop></asc_sop>
											<asc_sat></asc_sat>
											<lut2></lut2>
										</colorinfo>
										<labels>
											<label2>Violet</label2>
										</labels>
									</clipitem>
									<clipitem id="clipitem-796">
										<masterclipid>masterclip-208</masterclipid>
										<name>(Camp Chef)_Tiramisu Pancakes for Mother's Day_3Rtmg-VHoMQ_YT.mp4</name>
										<enabled>TRUE</enabled>
										<duration>9358</duration>
										<rate>
											<timebase>30</timebase>
											<ntsc>TRUE</ntsc>
										</rate>
										<start>15695</start>
										<end>16078</end>
										<in>3314</in>
										<out>3697</out>
										<pproTicksIn>28088361100800</pproTicksIn>
										<pproTicksOut>31334541638400</pproTicksOut>
										<alphatype>none</alphatype>
										<file id="file-179"/>
										<logginginfo>
											<description>Tiramisu Pancakes for Mother's Day</description>
											<scene></scene>
											<shottake></shottake>
											<lognote>https://www.youtube.com/watch?v=3Rtmg-VHoMQ</lognote>
											<good></good>
											<originalvideofilename></originalvideofilename>
											<originalaudiofilename></originalaudiofilename>
										</logginginfo>
										<colorinfo>
											<lut></lut>
											<lut1></lut1>
											<asc_sop></asc_sop>
											<asc_sat></asc_sat>
											<lut2></lut2>
										</colorinfo>
										<labels>
											<label2>Violet</label2>
										</labels>
									</clipitem>
									<clipitem id="clipitem-797">
										<masterclipid>masterclip-208</masterclipid>
										<name>(Camp Chef)_Tiramisu Pancakes for Mother's Day_3Rtmg-VHoMQ_YT.mp4</name>
										<enabled>TRUE</enabled>
										<duration>9358</duration>
										<rate>
											<timebase>30</timebase>
											<ntsc>TRUE</ntsc>
										</rate>
										<start>16078</start>
										<end>16153</end>
										<in>3753</in>
										<out>3828</out>
										<pproTicksIn>31809179001600</pproTicksIn>
										<pproTicksOut>32444854041600</pproTicksOut>
										<alphatype>none</alphatype>
										<file id="file-179"/>
										<logginginfo>
											<description>Tiramisu Pancakes for Mother's Day</description>
											<scene></scene>
											<shottake></shottake>
											<lognote>https://www.youtube.com/watch?v=3Rtmg-VHoMQ</lognote>
											<good></good>
											<originalvideofilename></originalvideofilename>
											<originalaudiofilename></originalaudiofilename>
										</logginginfo>
										<colorinfo>
											<lut></lut>
											<lut1></lut1>
											<asc_sop></asc_sop>
											<asc_sat></asc_sat>
											<lut2></lut2>
										</colorinfo>
										<labels>
											<label2>Violet</label2>
										</labels>
									</clipitem>
									<clipitem id="clipitem-798">
										<masterclipid>masterclip-208</masterclipid>
										<name>(Camp Chef)_Tiramisu Pancakes for Mother's Day_3Rtmg-VHoMQ_YT.mp4</name>
										<enabled>TRUE</enabled>
										<duration>9358</duration>
										<rate>
											<timebase>30</timebase>
											<ntsc>TRUE</ntsc>
										</rate>
										<start>16153</start>
										<end>16389</end>
										<in>4361</in>
										<out>4597</out>
										<pproTicksIn>36962384659200</pproTicksIn>
										<pproTicksOut>38962642118400</pproTicksOut>
										<alphatype>none</alphatype>
										<file id="file-179"/>
										<logginginfo>
											<description>Tiramisu Pancakes for Mother's Day</description>
											<scene></scene>
											<shottake></shottake>
											<lognote>https://www.youtube.com/watch?v=3Rtmg-VHoMQ</lognote>
											<good></good>
											<originalvideofilename></originalvideofilename>
											<originalaudiofilename></originalaudiofilename>
										</logginginfo>
										<colorinfo>
											<lut></lut>
											<lut1></lut1>
											<asc_sop></asc_sop>
											<asc_sat></asc_sat>
											<lut2></lut2>
										</colorinfo>
										<labels>
											<label2>Violet</label2>
										</labels>
									</clipitem>
									<clipitem id="clipitem-799">
										<masterclipid>masterclip-208</masterclipid>
										<name>(Camp Chef)_Tiramisu Pancakes for Mother's Day_3Rtmg-VHoMQ_YT.mp4</name>
										<enabled>TRUE</enabled>
										<duration>9358</duration>
										<rate>
											<timebase>30</timebase>
											<ntsc>TRUE</ntsc>
										</rate>
										<start>16389</start>
										<end>16739</end>
										<in>4782</in>
										<out>5132</out>
										<pproTicksIn>40530640550400</pproTicksIn>
										<pproTicksOut>43497124070400</pproTicksOut>
										<alphatype>none</alphatype>
										<file id="file-179"/>
										<logginginfo>
											<description>Tiramisu Pancakes for Mother's Day</description>
											<scene></scene>
											<shottake></shottake>
											<lognote>https://www.youtube.com/watch?v=3Rtmg-VHoMQ</lognote>
											<good></good>
											<originalvideofilename></originalvideofilename>
											<originalaudiofilename></originalaudiofilename>
										</logginginfo>
										<colorinfo>
											<lut></lut>
											<lut1></lut1>
											<asc_sop></asc_sop>
											<asc_sat></asc_sat>
											<lut2></lut2>
										</colorinfo>
										<labels>
											<label2>Violet</label2>
										</labels>
									</clipitem>
									<clipitem id="clipitem-800">
										<masterclipid>masterclip-208</masterclipid>
										<name>(Camp Chef)_Tiramisu Pancakes for Mother's Day_3Rtmg-VHoMQ_YT.mp4</name>
										<enabled>TRUE</enabled>
										<duration>9358</duration>
										<rate>
											<timebase>30</timebase>
											<ntsc>TRUE</ntsc>
										</rate>
										<start>16739</start>
										<end>17151</end>
										<in>5179</in>
										<out>5591</out>
										<pproTicksIn>43895480428800</pproTicksIn>
										<pproTicksOut>47387455315200</pproTicksOut>
										<alphatype>none</alphatype>
										<file id="file-179"/>
										<logginginfo>
											<description>Tiramisu Pancakes for Mother's Day</description>
											<scene></scene>
											<shottake></shottake>
											<lognote>https://www.youtube.com/watch?v=3Rtmg-VHoMQ</lognote>
											<good></good>
											<originalvideofilename></originalvideofilename>
											<originalaudiofilename></originalaudiofilename>
										</logginginfo>
										<colorinfo>
											<lut></lut>
											<lut1></lut1>
											<asc_sop></asc_sop>
											<asc_sat></asc_sat>
											<lut2></lut2>
										</colorinfo>
										<labels>
											<label2>Violet</label2>
										</labels>
									</clipitem>
									<clipitem id="clipitem-801">
										<masterclipid>masterclip-208</masterclipid>
										<name>(Camp Chef)_Tiramisu Pancakes for Mother's Day_3Rtmg-VHoMQ_YT.mp4</name>
										<enabled>TRUE</enabled>
										<duration>9358</duration>
										<rate>
											<timebase>30</timebase>
											<ntsc>TRUE</ntsc>
										</rate>
										<start>17151</start>
										<end>17396</end>
										<in>6383</in>
										<out>6628</out>
										<pproTicksIn>54100183737600</pproTicksIn>
										<pproTicksOut>56176722201600</pproTicksOut>
										<alphatype>none</alphatype>
										<file id="file-179"/>
										<logginginfo>
											<description>Tiramisu Pancakes for Mother's Day</description>
											<scene></scene>
											<shottake></shottake>
											<lognote>https://www.youtube.com/watch?v=3Rtmg-VHoMQ</lognote>
											<good></good>
											<originalvideofilename></originalvideofilename>
											<originalaudiofilename></originalaudiofilename>
										</logginginfo>
										<colorinfo>
											<lut></lut>
											<lut1></lut1>
											<asc_sop></asc_sop>
											<asc_sat></asc_sat>
											<lut2></lut2>
										</colorinfo>
										<labels>
											<label2>Violet</label2>
										</labels>
									</clipitem>
									<clipitem id="clipitem-802">
										<masterclipid>masterclip-208</masterclipid>
										<name>(Camp Chef)_Tiramisu Pancakes for Mother's Day_3Rtmg-VHoMQ_YT.mp4</name>
										<enabled>TRUE</enabled>
										<duration>9358</duration>
										<rate>
											<timebase>30</timebase>
											<ntsc>TRUE</ntsc>
										</rate>
										<start>17396</start>
										<end>17576</end>
										<in>6766</in>
										<out>6946</out>
										<pproTicksIn>57346364275200</pproTicksIn>
										<pproTicksOut>58871984371200</pproTicksOut>
										<alphatype>none</alphatype>
										<file id="file-179"/>
										<logginginfo>
											<description>Tiramisu Pancakes for Mother's Day</description>
											<scene></scene>
											<shottake></shottake>
											<lognote>https://www.youtube.com/watch?v=3Rtmg-VHoMQ</lognote>
											<good></good>
											<originalvideofilename></originalvideofilename>
											<originalaudiofilename></originalaudiofilename>
										</logginginfo>
										<colorinfo>
											<lut></lut>
											<lut1></lut1>
											<asc_sop></asc_sop>
											<asc_sat></asc_sat>
											<lut2></lut2>
										</colorinfo>
										<labels>
											<label2>Violet</label2>
										</labels>
									</clipitem>
									<clipitem id="clipitem-803">
										<masterclipid>masterclip-208</masterclipid>
										<name>(Camp Chef)_Tiramisu Pancakes for Mother's Day_3Rtmg-VHoMQ_YT.mp4</name>
										<enabled>TRUE</enabled>
										<duration>9358</duration>
										<rate>
											<timebase>30</timebase>
											<ntsc>TRUE</ntsc>
										</rate>
										<start>17576</start>
										<end>17687</end>
										<in>7010</in>
										<out>7121</out>
										<pproTicksIn>59414427072000</pproTicksIn>
										<pproTicksOut>60355226131200</pproTicksOut>
										<alphatype>none</alphatype>
										<file id="file-179"/>
										<logginginfo>
											<description>Tiramisu Pancakes for Mother's Day</description>
											<scene></scene>
											<shottake></shottake>
											<lognote>https://www.youtube.com/watch?v=3Rtmg-VHoMQ</lognote>
											<good></good>
											<originalvideofilename></originalvideofilename>
											<originalaudiofilename></originalaudiofilename>
										</logginginfo>
										<colorinfo>
											<lut></lut>
											<lut1></lut1>
											<asc_sop></asc_sop>
											<asc_sat></asc_sat>
											<lut2></lut2>
										</colorinfo>
										<labels>
											<label2>Violet</label2>
										</labels>
									</clipitem>
									<clipitem id="clipitem-804">
										<masterclipid>masterclip-208</masterclipid>
										<name>(Camp Chef)_Tiramisu Pancakes for Mother's Day_3Rtmg-VHoMQ_YT.mp4</name>
										<enabled>TRUE</enabled>
										<duration>9358</duration>
										<rate>
											<timebase>30</timebase>
											<ntsc>TRUE</ntsc>
										</rate>
										<start>17687</start>
										<end>17819</end>
										<in>7186</in>
										<out>7318</out>
										<pproTicksIn>60906144499200</pproTicksIn>
										<pproTicksOut>62024932569600</pproTicksOut>
										<alphatype>none</alphatype>
										<file id="file-179"/>
										<logginginfo>
											<description>Tiramisu Pancakes for Mother's Day</description>
											<scene></scene>
											<shottake></shottake>
											<lognote>https://www.youtube.com/watch?v=3Rtmg-VHoMQ</lognote>
											<good></good>
											<originalvideofilename></originalvideofilename>
											<originalaudiofilename></originalaudiofilename>
										</logginginfo>
										<colorinfo>
											<lut></lut>
											<lut1></lut1>
											<asc_sop></asc_sop>
											<asc_sat></asc_sat>
											<lut2></lut2>
										</colorinfo>
										<labels>
											<label2>Violet</label2>
										</labels>
									</clipitem>
									<clipitem id="clipitem-805">
										<masterclipid>masterclip-208</masterclipid>
										<name>(Camp Chef)_Tiramisu Pancakes for Mother's Day_3Rtmg-VHoMQ_YT.mp4</name>
										<enabled>TRUE</enabled>
										<duration>9358</duration>
										<rate>
											<timebase>30</timebase>
											<ntsc>TRUE</ntsc>
										</rate>
										<start>17819</start>
										<end>18057</end>
										<in>7601</in>
										<out>7839</out>
										<pproTicksIn>64423546387200</pproTicksIn>
										<pproTicksOut>66440755180800</pproTicksOut>
										<alphatype>none</alphatype>
										<file id="file-179"/>
										<logginginfo>
											<description>Tiramisu Pancakes for Mother's Day</description>
											<scene></scene>
											<shottake></shottake>
											<lognote>https://www.youtube.com/watch?v=3Rtmg-VHoMQ</lognote>
											<good></good>
											<originalvideofilename></originalvideofilename>
											<originalaudiofilename></originalaudiofilename>
										</logginginfo>
										<colorinfo>
											<lut></lut>
											<lut1></lut1>
											<asc_sop></asc_sop>
											<asc_sat></asc_sat>
											<lut2></lut2>
										</colorinfo>
										<labels>
											<label2>Violet</label2>
										</labels>
									</clipitem>
									<clipitem id="clipitem-806">
										<masterclipid>masterclip-208</masterclipid>
										<name>(Camp Chef)_Tiramisu Pancakes for Mother's Day_3Rtmg-VHoMQ_YT.mp4</name>
										<enabled>TRUE</enabled>
										<duration>9358</duration>
										<rate>
											<timebase>30</timebase>
											<ntsc>TRUE</ntsc>
										</rate>
										<start>18057</start>
										<end>18092</end>
										<in>7958</in>
										<out>7993</out>
										<pproTicksIn>67449359577600</pproTicksIn>
										<pproTicksOut>67746007929600</pproTicksOut>
										<alphatype>none</alphatype>
										<file id="file-179"/>
										<logginginfo>
											<description>Tiramisu Pancakes for Mother's Day</description>
											<scene></scene>
											<shottake></shottake>
											<lognote>https://www.youtube.com/watch?v=3Rtmg-VHoMQ</lognote>
											<good></good>
											<originalvideofilename></originalvideofilename>
											<originalaudiofilename></originalaudiofilename>
										</logginginfo>
										<colorinfo>
											<lut></lut>
											<lut1></lut1>
											<asc_sop></asc_sop>
											<asc_sat></asc_sat>
											<lut2></lut2>
										</colorinfo>
										<labels>
											<label2>Violet</label2>
										</labels>
									</clipitem>
									<clipitem id="clipitem-807">
										<masterclipid>masterclip-208</masterclipid>
										<name>(Camp Chef)_Tiramisu Pancakes for Mother's Day_3Rtmg-VHoMQ_YT.mp4</name>
										<enabled>TRUE</enabled>
										<duration>9358</duration>
										<rate>
											<timebase>30</timebase>
											<ntsc>TRUE</ntsc>
										</rate>
										<start>18092</start>
										<end>18220</end>
										<in>8246</in>
										<out>8374</out>
										<pproTicksIn>69890351731200</pproTicksIn>
										<pproTicksOut>70975237132800</pproTicksOut>
										<alphatype>none</alphatype>
										<file id="file-179"/>
										<logginginfo>
											<description>Tiramisu Pancakes for Mother's Day</description>
											<scene></scene>
											<shottake></shottake>
											<lognote>https://www.youtube.com/watch?v=3Rtmg-VHoMQ</lognote>
											<good></good>
											<originalvideofilename></originalvideofilename>
											<originalaudiofilename></originalaudiofilename>
										</logginginfo>
										<colorinfo>
											<lut></lut>
											<lut1></lut1>
											<asc_sop></asc_sop>
											<asc_sat></asc_sat>
											<lut2></lut2>
										</colorinfo>
										<labels>
											<label2>Violet</label2>
										</labels>
									</clipitem>
									<clipitem id="clipitem-808">
										<masterclipid>masterclip-212</masterclipid>
										<name>(cookwithfoam)_Ca2VYYQh4yV_IG.mp4</name>
										<enabled>TRUE</enabled>
										<duration>434</duration>
										<rate>
											<timebase>30</timebase>
											<ntsc>TRUE</ntsc>
										</rate>
										<start>18220</start>
										<end>18654</end>
										<in>0</in>
										<out>434</out>
										<pproTicksIn>0</pproTicksIn>
										<pproTicksOut>3678439564800</pproTicksOut>
										<alphatype>none</alphatype>
										<file id="file-182"/>
										<logginginfo>
											<description>TT: indycafez</description>
											<scene></scene>
											<shottake></shottake>
											<lognote></lognote>
											<good></good>
											<originalvideofilename></originalvideofilename>
											<originalaudiofilename></originalaudiofilename>
										</logginginfo>
										<colorinfo>
											<lut></lut>
											<lut1></lut1>
											<asc_sop></asc_sop>
											<asc_sat></asc_sat>
											<lut2></lut2>
										</colorinfo>
										<labels>
											<label2>Violet</label2>
										</labels>
									</clipitem>
									<clipitem id="clipitem-809">
										<masterclipid>masterclip-213</masterclipid>
										<name>(alphafoodie)_B_P3sjig1GQ_IG.mp4</name>
										<enabled>TRUE</enabled>
										<duration>1960</duration>
										<rate>
											<timebase>30</timebase>
											<ntsc>TRUE</ntsc>
										</rate>
										<start>18654</start>
										<end>18723</end>
										<in>79</in>
										<out>148</out>
										<pproTicksIn>669577708800</pproTicksIn>
										<pproTicksOut>1254398745600</pproTicksOut>
										<alphatype>none</alphatype>
										<file id="file-183"/>
										<logginginfo>
											<description></description>
											<scene></scene>
											<shottake></shottake>
											<lognote></lognote>
											<good></good>
											<originalvideofilename></originalvideofilename>
											<originalaudiofilename></originalaudiofilename>
										</logginginfo>
										<colorinfo>
											<lut></lut>
											<lut1></lut1>
											<asc_sop></asc_sop>
											<asc_sat></asc_sat>
											<lut2></lut2>
										</colorinfo>
										<labels>
											<label2>Violet</label2>
										</labels>
									</clipitem>
									<clipitem id="clipitem-810">
										<masterclipid>masterclip-213</masterclipid>
										<name>(alphafoodie)_B_P3sjig1GQ_IG.mp4</name>
										<enabled>TRUE</enabled>
										<duration>1960</duration>
										<rate>
											<timebase>30</timebase>
											<ntsc>TRUE</ntsc>
										</rate>
										<start>18723</start>
										<end>18823</end>
										<in>349</in>
										<out>449</out>
										<pproTicksIn>2958007852800</pproTicksIn>
										<pproTicksOut>3805574572800</pproTicksOut>
										<alphatype>none</alphatype>
										<file id="file-183"/>
										<logginginfo>
											<description></description>
											<scene></scene>
											<shottake></shottake>
											<lognote></lognote>
											<good></good>
											<originalvideofilename></originalvideofilename>
											<originalaudiofilename></originalaudiofilename>
										</logginginfo>
										<colorinfo>
											<lut></lut>
											<lut1></lut1>
											<asc_sop></asc_sop>
											<asc_sat></asc_sat>
											<lut2></lut2>
										</colorinfo>
										<labels>
											<label2>Violet</label2>
										</labels>
									</clipitem>
									<clipitem id="clipitem-811">
										<masterclipid>masterclip-213</masterclipid>
										<name>(alphafoodie)_B_P3sjig1GQ_IG.mp4</name>
										<enabled>TRUE</enabled>
										<duration>1960</duration>
										<rate>
											<timebase>30</timebase>
											<ntsc>TRUE</ntsc>
										</rate>
										<start>18823</start>
										<end>18908</end>
										<in>475</in>
										<out>560</out>
										<pproTicksIn>4025941920000</pproTicksIn>
										<pproTicksOut>4746373632000</pproTicksOut>
										<alphatype>none</alphatype>
										<file id="file-183"/>
										<logginginfo>
											<description></description>
											<scene></scene>
											<shottake></shottake>
											<lognote></lognote>
											<good></good>
											<originalvideofilename></originalvideofilename>
											<originalaudiofilename></originalaudiofilename>
										</logginginfo>
										<colorinfo>
											<lut></lut>
											<lut1></lut1>
											<asc_sop></asc_sop>
											<asc_sat></asc_sat>
											<lut2></lut2>
										</colorinfo>
										<labels>
											<label2>Violet</label2>
										</labels>
									</clipitem>
									<clipitem id="clipitem-812">
										<masterclipid>masterclip-213</masterclipid>
										<name>(alphafoodie)_B_P3sjig1GQ_IG.mp4</name>
										<enabled>TRUE</enabled>
										<duration>1960</duration>
										<rate>
											<timebase>30</timebase>
											<ntsc>TRUE</ntsc>
										</rate>
										<start>18908</start>
										<end>18982</end>
										<in>732</in>
										<out>806</out>
										<pproTicksIn>6204188390400</pproTicksIn>
										<pproTicksOut>6831387763200</pproTicksOut>
										<alphatype>none</alphatype>
										<file id="file-183"/>
										<logginginfo>
											<description></description>
											<scene></scene>
											<shottake></shottake>
											<lognote></lognote>
											<good></good>
											<originalvideofilename></originalvideofilename>
											<originalaudiofilename></originalaudiofilename>
										</logginginfo>
										<colorinfo>
											<lut></lut>
											<lut1></lut1>
											<asc_sop></asc_sop>
											<asc_sat></asc_sat>
											<lut2></lut2>
										</colorinfo>
										<labels>
											<label2>Violet</label2>
										</labels>
									</clipitem>
									<clipitem id="clipitem-813">
										<masterclipid>masterclip-213</masterclipid>
										<name>(alphafoodie)_B_P3sjig1GQ_IG.mp4</name>
										<enabled>TRUE</enabled>
										<duration>1960</duration>
										<rate>
											<timebase>30</timebase>
											<ntsc>TRUE</ntsc>
										</rate>
										<start>18982</start>
										<end>19090</end>
										<in>1072</in>
										<out>1180</out>
										<pproTicksIn>9085915238400</pproTicksIn>
										<pproTicksOut>10001287296000</pproTicksOut>
										<alphatype>none</alphatype>
										<file id="file-183"/>
										<logginginfo>
											<description></description>
											<scene></scene>
											<shottake></shottake>
											<lognote></lognote>
											<good></good>
											<originalvideofilename></originalvideofilename>
											<originalaudiofilename></originalaudiofilename>
										</logginginfo>
										<colorinfo>
											<lut></lut>
											<lut1></lut1>
											<asc_sop></asc_sop>
											<asc_sat></asc_sat>
											<lut2></lut2>
										</colorinfo>
										<labels>
											<label2>Violet</label2>
										</labels>
									</clipitem>
									<clipitem id="clipitem-814">
										<masterclipid>masterclip-213</masterclipid>
										<name>(alphafoodie)_B_P3sjig1GQ_IG.mp4</name>
										<enabled>TRUE</enabled>
										<duration>1960</duration>
										<rate>
											<timebase>30</timebase>
											<ntsc>TRUE</ntsc>
										</rate>
										<start>19090</start>
										<end>19114</end>
										<in>1581</in>
										<out>1605</out>
										<pproTicksIn>13400029843200</pproTicksIn>
										<pproTicksOut>13603445856000</pproTicksOut>
										<alphatype>none</alphatype>
										<file id="file-183"/>
										<logginginfo>
											<description></description>
											<scene></scene>
											<shottake></shottake>
											<lognote></lognote>
											<good></good>
											<originalvideofilename></originalvideofilename>
											<originalaudiofilename></originalaudiofilename>
										</logginginfo>
										<colorinfo>
											<lut></lut>
											<lut1></lut1>
											<asc_sop></asc_sop>
											<asc_sat></asc_sat>
											<lut2></lut2>
										</colorinfo>
										<labels>
											<label2>Violet</label2>
										</labels>
									</clipitem>
									<clipitem id="clipitem-815">
										<masterclipid>masterclip-213</masterclipid>
										<name>(alphafoodie)_B_P3sjig1GQ_IG.mp4</name>
										<enabled>TRUE</enabled>
										<duration>1960</duration>
										<rate>
											<timebase>30</timebase>
											<ntsc>TRUE</ntsc>
										</rate>
										<start>19114</start>
										<end>19197</end>
										<in>1792</in>
										<out>1875</out>
										<pproTicksIn>15188395622400</pproTicksIn>
										<pproTicksOut>15891876000000</pproTicksOut>
										<alphatype>none</alphatype>
										<file id="file-183"/>
										<logginginfo>
											<description></description>
											<scene></scene>
											<shottake></shottake>
											<lognote></lognote>
											<good></good>
											<originalvideofilename></originalvideofilename>
											<originalaudiofilename></originalaudiofilename>
										</logginginfo>
										<colorinfo>
											<lut></lut>
											<lut1></lut1>
											<asc_sop></asc_sop>
											<asc_sat></asc_sat>
											<lut2></lut2>
										</colorinfo>
										<labels>
											<label2>Violet</label2>
										</labels>
									</clipitem>
									<clipitem id="clipitem-816">
										<masterclipid>masterclip-214</masterclipid>
										<name>(refined.and.dandy)_7091735218834443563_TT.mp4</name>
										<enabled>TRUE</enabled>
										<duration>635</duration>
										<rate>
											<timebase>30</timebase>
											<ntsc>TRUE</ntsc>
										</rate>
										<start>19197</start>
										<end>19719</end>
										<in>48</in>
										<out>570</out>
										<pproTicksIn>406832025600</pproTicksIn>
										<pproTicksOut>4831130304000</pproTicksOut>
										<alphatype>none</alphatype>
										<file id="file-184"/>
										<filter>
											<effect>
												<name>Basic Motion</name>
												<effectid>basic</effectid>
												<effectcategory>motion</effectcategory>
												<effecttype>motion</effecttype>
												<mediatype>video</mediatype>
												<pproBypass>false</pproBypass>
												<parameter authoringApp="PremierePro">
													<parameterid>scale</parameterid>
													<name>Scale</name>
													<valuemin>0</valuemin>
													<valuemax>1000</valuemax>
													<value>117</value>
												</parameter>
												<parameter authoringApp="PremierePro">
													<parameterid>rotation</parameterid>
													<name>Rotation</name>
													<valuemin>-8640</valuemin>
													<valuemax>8640</valuemax>
													<value>0</value>
												</parameter>
												<parameter authoringApp="PremierePro">
													<parameterid>center</parameterid>
													<name>Center</name>
													<value>
														<horiz>0</horiz>
														<vert>0</vert>
													</value>
												</parameter>
												<parameter authoringApp="PremierePro">
													<parameterid>centerOffset</parameterid>
													<name>Anchor Point</name>
													<value>
														<horiz>0</horiz>
														<vert>0</vert>
													</value>
												</parameter>
												<parameter authoringApp="PremierePro">
													<parameterid>antiflicker</parameterid>
													<name>Anti-flicker Filter</name>
													<valuemin>0.0</valuemin>
													<valuemax>1.0</valuemax>
													<value>0</value>
												</parameter>
											</effect>
										</filter>
										<logginginfo>
											<description></description>
											<scene></scene>
											<shottake></shottake>
											<lognote></lognote>
											<good></good>
											<originalvideofilename></originalvideofilename>
											<originalaudiofilename></originalaudiofilename>
										</logginginfo>
										<colorinfo>
											<lut></lut>
											<lut1></lut1>
											<asc_sop></asc_sop>
											<asc_sat></asc_sat>
											<lut2></lut2>
										</colorinfo>
										<labels>
											<label2>Violet</label2>
										</labels>
									</clipitem>
									<clipitem id="clipitem-817">
										<masterclipid>masterclip-215</masterclipid>
										<name>(Lindsay Grimes)_Creamy Crunchy Peanut Butter Bars (vegan + gluten free)_o8cpngk1u0w_YT.mp4</name>
										<enabled>TRUE</enabled>
										<duration>6513</duration>
										<rate>
											<timebase>30</timebase>
											<ntsc>TRUE</ntsc>
										</rate>
										<start>19719</start>
										<end>19774</end>
										<in>2246</in>
										<out>2301</out>
										<pproTicksIn>19036348531200</pproTicksIn>
										<pproTicksOut>19502510227200</pproTicksOut>
										<alphatype>none</alphatype>
										<file id="file-185"/>
										<logginginfo>
											<description>Creamy Crunchy Peanut Butter Bars (vegan + gluten free)</description>
											<scene></scene>
											<shottake></shottake>
											<lognote>https://www.youtube.com/watch?v=o8cpngk1u0w</lognote>
											<good></good>
											<originalvideofilename></originalvideofilename>
											<originalaudiofilename></originalaudiofilename>
										</logginginfo>
										<colorinfo>
											<lut></lut>
											<lut1></lut1>
											<asc_sop></asc_sop>
											<asc_sat></asc_sat>
											<lut2></lut2>
										</colorinfo>
										<labels>
											<label2>Violet</label2>
										</labels>
									</clipitem>
									<clipitem id="clipitem-818">
										<masterclipid>masterclip-215</masterclipid>
										<name>(Lindsay Grimes)_Creamy Crunchy Peanut Butter Bars (vegan + gluten free)_o8cpngk1u0w_YT.mp4</name>
										<enabled>TRUE</enabled>
										<duration>6513</duration>
										<rate>
											<timebase>30</timebase>
											<ntsc>TRUE</ntsc>
										</rate>
										<start>19774</start>
										<end>19833</end>
										<in>2808</in>
										<out>2867</out>
										<pproTicksIn>23799673497600</pproTicksIn>
										<pproTicksOut>24299737862400</pproTicksOut>
										<alphatype>none</alphatype>
										<file id="file-185"/>
										<logginginfo>
											<description>Creamy Crunchy Peanut Butter Bars (vegan + gluten free)</description>
											<scene></scene>
											<shottake></shottake>
											<lognote>https://www.youtube.com/watch?v=o8cpngk1u0w</lognote>
											<good></good>
											<originalvideofilename></originalvideofilename>
											<originalaudiofilename></originalaudiofilename>
										</logginginfo>
										<colorinfo>
											<lut></lut>
											<lut1></lut1>
											<asc_sop></asc_sop>
											<asc_sat></asc_sat>
											<lut2></lut2>
										</colorinfo>
										<labels>
											<label2>Violet</label2>
										</labels>
									</clipitem>
									<clipitem id="clipitem-819">
										<masterclipid>masterclip-215</masterclipid>
										<name>(Lindsay Grimes)_Creamy Crunchy Peanut Butter Bars (vegan + gluten free)_o8cpngk1u0w_YT.mp4</name>
										<enabled>TRUE</enabled>
										<duration>6513</duration>
										<rate>
											<timebase>30</timebase>
											<ntsc>TRUE</ntsc>
										</rate>
										<start>19833</start>
										<end>19885</end>
										<in>3035</in>
										<out>3087</out>
										<pproTicksIn>25723649952000</pproTicksIn>
										<pproTicksOut>26164384646400</pproTicksOut>
										<alphatype>none</alphatype>
										<file id="file-185"/>
										<logginginfo>
											<description>Creamy Crunchy Peanut Butter Bars (vegan + gluten free)</description>
											<scene></scene>
											<shottake></shottake>
											<lognote>https://www.youtube.com/watch?v=o8cpngk1u0w</lognote>
											<good></good>
											<originalvideofilename></originalvideofilename>
											<originalaudiofilename></originalaudiofilename>
										</logginginfo>
										<colorinfo>
											<lut></lut>
											<lut1></lut1>
											<asc_sop></asc_sop>
											<asc_sat></asc_sat>
											<lut2></lut2>
										</colorinfo>
										<labels>
											<label2>Violet</label2>
										</labels>
									</clipitem>
									<clipitem id="clipitem-820">
										<masterclipid>masterclip-215</masterclipid>
										<name>(Lindsay Grimes)_Creamy Crunchy Peanut Butter Bars (vegan + gluten free)_o8cpngk1u0w_YT.mp4</name>
										<enabled>TRUE</enabled>
										<duration>6513</duration>
										<rate>
											<timebase>30</timebase>
											<ntsc>TRUE</ntsc>
										</rate>
										<start>19885</start>
										<end>19973</end>
										<in>3316</in>
										<out>3404</out>
										<pproTicksIn>28105312435200</pproTicksIn>
										<pproTicksOut>28851171148800</pproTicksOut>
										<alphatype>none</alphatype>
										<file id="file-185"/>
										<logginginfo>
											<description>Creamy Crunchy Peanut Butter Bars (vegan + gluten free)</description>
											<scene></scene>
											<shottake></shottake>
											<lognote>https://www.youtube.com/watch?v=o8cpngk1u0w</lognote>
											<good></good>
											<originalvideofilename></originalvideofilename>
											<originalaudiofilename></originalaudiofilename>
										</logginginfo>
										<colorinfo>
											<lut></lut>
											<lut1></lut1>
											<asc_sop></asc_sop>
											<asc_sat></asc_sat>
											<lut2></lut2>
										</colorinfo>
										<labels>
											<label2>Violet</label2>
										</labels>
									</clipitem>
									<clipitem id="clipitem-821">
										<masterclipid>masterclip-215</masterclipid>
										<name>(Lindsay Grimes)_Creamy Crunchy Peanut Butter Bars (vegan + gluten free)_o8cpngk1u0w_YT.mp4</name>
										<enabled>TRUE</enabled>
										<duration>6513</duration>
										<rate>
											<timebase>30</timebase>
											<ntsc>TRUE</ntsc>
										</rate>
										<start>19973</start>
										<end>20060</end>
										<in>4092</in>
										<out>4179</out>
										<pproTicksIn>34682430182400</pproTicksIn>
										<pproTicksOut>35419813228800</pproTicksOut>
										<alphatype>none</alphatype>
										<file id="file-185"/>
										<logginginfo>
											<description>Creamy Crunchy Peanut Butter Bars (vegan + gluten free)</description>
											<scene></scene>
											<shottake></shottake>
											<lognote>https://www.youtube.com/watch?v=o8cpngk1u0w</lognote>
											<good></good>
											<originalvideofilename></originalvideofilename>
											<originalaudiofilename></originalaudiofilename>
										</logginginfo>
										<colorinfo>
											<lut></lut>
											<lut1></lut1>
											<asc_sop></asc_sop>
											<asc_sat></asc_sat>
											<lut2></lut2>
										</colorinfo>
										<labels>
											<label2>Violet</label2>
										</labels>
									</clipitem>
									<clipitem id="clipitem-822">
										<masterclipid>masterclip-215</masterclipid>
										<name>(Lindsay Grimes)_Creamy Crunchy Peanut Butter Bars (vegan + gluten free)_o8cpngk1u0w_YT.mp4</name>
										<enabled>TRUE</enabled>
										<duration>6513</duration>
										<rate>
											<timebase>30</timebase>
											<ntsc>TRUE</ntsc>
										</rate>
										<start>20060</start>
										<end>20096</end>
										<in>4588</in>
										<out>4624</out>
										<pproTicksIn>38886361113600</pproTicksIn>
										<pproTicksOut>39191485132800</pproTicksOut>
										<alphatype>none</alphatype>
										<file id="file-185"/>
										<logginginfo>
											<description>Creamy Crunchy Peanut Butter Bars (vegan + gluten free)</description>
											<scene></scene>
											<shottake></shottake>
											<lognote>https://www.youtube.com/watch?v=o8cpngk1u0w</lognote>
											<good></good>
											<originalvideofilename></originalvideofilename>
											<originalaudiofilename></originalaudiofilename>
										</logginginfo>
										<colorinfo>
											<lut></lut>
											<lut1></lut1>
											<asc_sop></asc_sop>
											<asc_sat></asc_sat>
											<lut2></lut2>
										</colorinfo>
										<labels>
											<label2>Violet</label2>
										</labels>
									</clipitem>
									<clipitem id="clipitem-823">
										<masterclipid>masterclip-215</masterclipid>
										<name>(Lindsay Grimes)_Creamy Crunchy Peanut Butter Bars (vegan + gluten free)_o8cpngk1u0w_YT.mp4</name>
										<enabled>TRUE</enabled>
										<duration>6513</duration>
										<rate>
											<timebase>30</timebase>
											<ntsc>TRUE</ntsc>
										</rate>
										<start>20096</start>
										<end>20134</end>
										<in>5187</in>
										<out>5225</out>
										<pproTicksIn>43963285766400</pproTicksIn>
										<pproTicksOut>44285361120000</pproTicksOut>
										<alphatype>none</alphatype>
										<file id="file-185"/>
										<logginginfo>
											<description>Creamy Crunchy Peanut Butter Bars (vegan + gluten free)</description>
											<scene></scene>
											<shottake></shottake>
											<lognote>https://www.youtube.com/watch?v=o8cpngk1u0w</lognote>
											<good></good>
											<originalvideofilename></originalvideofilename>
											<originalaudiofilename></originalaudiofilename>
										</logginginfo>
										<colorinfo>
											<lut></lut>
											<lut1></lut1>
											<asc_sop></asc_sop>
											<asc_sat></asc_sat>
											<lut2></lut2>
										</colorinfo>
										<labels>
											<label2>Violet</label2>
										</labels>
									</clipitem>
									<clipitem id="clipitem-824">
										<masterclipid>masterclip-215</masterclipid>
										<name>(Lindsay Grimes)_Creamy Crunchy Peanut Butter Bars (vegan + gluten free)_o8cpngk1u0w_YT.mp4</name>
										<enabled>TRUE</enabled>
										<duration>6513</duration>
										<rate>
											<timebase>30</timebase>
											<ntsc>TRUE</ntsc>
										</rate>
										<start>20134</start>
										<end>20163</end>
										<in>5255</in>
										<out>5284</out>
										<pproTicksIn>44539631136000</pproTicksIn>
										<pproTicksOut>44785425484800</pproTicksOut>
										<alphatype>none</alphatype>
										<file id="file-185"/>
										<logginginfo>
											<description>Creamy Crunchy Peanut Butter Bars (vegan + gluten free)</description>
											<scene></scene>
											<shottake></shottake>
											<lognote>https://www.youtube.com/watch?v=o8cpngk1u0w</lognote>
											<good></good>
											<originalvideofilename></originalvideofilename>
											<originalaudiofilename></originalaudiofilename>
										</logginginfo>
										<colorinfo>
											<lut></lut>
											<lut1></lut1>
											<asc_sop></asc_sop>
											<asc_sat></asc_sat>
											<lut2></lut2>
										</colorinfo>
										<labels>
											<label2>Violet</label2>
										</labels>
									</clipitem>
									<clipitem id="clipitem-825">
										<masterclipid>masterclip-215</masterclipid>
										<name>(Lindsay Grimes)_Creamy Crunchy Peanut Butter Bars (vegan + gluten free)_o8cpngk1u0w_YT.mp4</name>
										<enabled>TRUE</enabled>
										<duration>6513</duration>
										<rate>
											<timebase>30</timebase>
											<ntsc>TRUE</ntsc>
										</rate>
										<start>20163</start>
										<end>20235</end>
										<in>5829</in>
										<out>5901</out>
										<pproTicksIn>49404664108800</pproTicksIn>
										<pproTicksOut>50014912147200</pproTicksOut>
										<alphatype>none</alphatype>
										<file id="file-185"/>
										<logginginfo>
											<description>Creamy Crunchy Peanut Butter Bars (vegan + gluten free)</description>
											<scene></scene>
											<shottake></shottake>
											<lognote>https://www.youtube.com/watch?v=o8cpngk1u0w</lognote>
											<good></good>
											<originalvideofilename></originalvideofilename>
											<originalaudiofilename></originalaudiofilename>
										</logginginfo>
										<colorinfo>
											<lut></lut>
											<lut1></lut1>
											<asc_sop></asc_sop>
											<asc_sat></asc_sat>
											<lut2></lut2>
										</colorinfo>
										<labels>
											<label2>Violet</label2>
										</labels>
									</clipitem>
									<clipitem id="clipitem-826">
										<masterclipid>masterclip-221</masterclipid>
										<name>(Sugar and Sparrow)_Sprinkled Cactus Cupcakes Tutorial_PVQHnGJL5Ao_YT.mp4</name>
										<enabled>TRUE</enabled>
										<duration>4135</duration>
										<rate>
											<timebase>30</timebase>
											<ntsc>TRUE</ntsc>
										</rate>
										<start>20236</start>
										<end>21141</end>
										<in>428</in>
										<out>1333</out>
										<pproTicksIn>3627585561600</pproTicksIn>
										<pproTicksOut>11298064377600</pproTicksOut>
										<alphatype>none</alphatype>
										<file id="file-190"/>
										<logginginfo>
											<description>Sprinkled Cactus Cupcakes Tutorial</description>
											<scene></scene>
											<shottake></shottake>
											<lognote>https://www.youtube.com/watch?v=PVQHnGJL5Ao</lognote>
											<good></good>
											<originalvideofilename></originalvideofilename>
											<originalaudiofilename></originalaudiofilename>
										</logginginfo>
										<colorinfo>
											<lut></lut>
											<lut1></lut1>
											<asc_sop></asc_sop>
											<asc_sat></asc_sat>
											<lut2></lut2>
										</colorinfo>
										<labels>
											<label2>Violet</label2>
										</labels>
									</clipitem>
									<clipitem id="clipitem-827">
										<masterclipid>masterclip-221</masterclipid>
										<name>(Sugar and Sparrow)_Sprinkled Cactus Cupcakes Tutorial_PVQHnGJL5Ao_YT.mp4</name>
										<enabled>TRUE</enabled>
										<duration>4135</duration>
										<rate>
											<timebase>30</timebase>
											<ntsc>TRUE</ntsc>
										</rate>
										<start>21141</start>
										<end>21249</end>
										<in>1599</in>
										<out>1707</out>
										<pproTicksIn>13552591852800</pproTicksIn>
										<pproTicksOut>14467963910400</pproTicksOut>
										<alphatype>none</alphatype>
										<file id="file-190"/>
										<logginginfo>
											<description>Sprinkled Cactus Cupcakes Tutorial</description>
											<scene></scene>
											<shottake></shottake>
											<lognote>https://www.youtube.com/watch?v=PVQHnGJL5Ao</lognote>
											<good></good>
											<originalvideofilename></originalvideofilename>
											<originalaudiofilename></originalaudiofilename>
										</logginginfo>
										<colorinfo>
											<lut></lut>
											<lut1></lut1>
											<asc_sop></asc_sop>
											<asc_sat></asc_sat>
											<lut2></lut2>
										</colorinfo>
										<labels>
											<label2>Violet</label2>
										</labels>
									</clipitem>
									<clipitem id="clipitem-828">
										<masterclipid>masterclip-221</masterclipid>
										<name>(Sugar and Sparrow)_Sprinkled Cactus Cupcakes Tutorial_PVQHnGJL5Ao_YT.mp4</name>
										<enabled>TRUE</enabled>
										<duration>4135</duration>
										<rate>
											<timebase>30</timebase>
											<ntsc>TRUE</ntsc>
										</rate>
										<start>21249</start>
										<end>21303</end>
										<in>1795</in>
										<out>1849</out>
										<pproTicksIn>15213822624000</pproTicksIn>
										<pproTicksOut>15671508652800</pproTicksOut>
										<alphatype>none</alphatype>
										<file id="file-190"/>
										<logginginfo>
											<description>Sprinkled Cactus Cupcakes Tutorial</description>
											<scene></scene>
											<shottake></shottake>
											<lognote>https://www.youtube.com/watch?v=PVQHnGJL5Ao</lognote>
											<good></good>
											<originalvideofilename></originalvideofilename>
											<originalaudiofilename></originalaudiofilename>
										</logginginfo>
										<colorinfo>
											<lut></lut>
											<lut1></lut1>
											<asc_sop></asc_sop>
											<asc_sat></asc_sat>
											<lut2></lut2>
										</colorinfo>
										<labels>
											<label2>Violet</label2>
										</labels>
									</clipitem>
									<clipitem id="clipitem-829">
										<masterclipid>masterclip-221</masterclipid>
										<name>(Sugar and Sparrow)_Sprinkled Cactus Cupcakes Tutorial_PVQHnGJL5Ao_YT.mp4</name>
										<enabled>TRUE</enabled>
										<duration>4135</duration>
										<rate>
											<timebase>30</timebase>
											<ntsc>TRUE</ntsc>
										</rate>
										<start>21303</start>
										<end>21373</end>
										<in>1889</in>
										<out>1959</out>
										<pproTicksIn>16010535340800</pproTicksIn>
										<pproTicksOut>16603832044800</pproTicksOut>
										<alphatype>none</alphatype>
										<file id="file-190"/>
										<logginginfo>
											<description>Sprinkled Cactus Cupcakes Tutorial</description>
											<scene></scene>
											<shottake></shottake>
											<lognote>https://www.youtube.com/watch?v=PVQHnGJL5Ao</lognote>
											<good></good>
											<originalvideofilename></originalvideofilename>
											<originalaudiofilename></originalaudiofilename>
										</logginginfo>
										<colorinfo>
											<lut></lut>
											<lut1></lut1>
											<asc_sop></asc_sop>
											<asc_sat></asc_sat>
											<lut2></lut2>
										</colorinfo>
										<labels>
											<label2>Violet</label2>
										</labels>
									</clipitem>
									<clipitem id="clipitem-830">
										<masterclipid>masterclip-221</masterclipid>
										<name>(Sugar and Sparrow)_Sprinkled Cactus Cupcakes Tutorial_PVQHnGJL5Ao_YT.mp4</name>
										<enabled>TRUE</enabled>
										<duration>4135</duration>
										<rate>
											<timebase>30</timebase>
											<ntsc>TRUE</ntsc>
										</rate>
										<start>21373</start>
										<end>21885</end>
										<in>2042</in>
										<out>2554</out>
										<pproTicksIn>17307312422400</pproTicksIn>
										<pproTicksOut>21646854028800</pproTicksOut>
										<alphatype>none</alphatype>
										<file id="file-190"/>
										<logginginfo>
											<description>Sprinkled Cactus Cupcakes Tutorial</description>
											<scene></scene>
											<shottake></shottake>
											<lognote>https://www.youtube.com/watch?v=PVQHnGJL5Ao</lognote>
											<good></good>
											<originalvideofilename></originalvideofilename>
											<originalaudiofilename></originalaudiofilename>
										</logginginfo>
										<colorinfo>
											<lut></lut>
											<lut1></lut1>
											<asc_sop></asc_sop>
											<asc_sat></asc_sat>
											<lut2></lut2>
										</colorinfo>
										<labels>
											<label2>Violet</label2>
										</labels>
									</clipitem>
									<clipitem id="clipitem-831">
										<masterclipid>masterclip-221</masterclipid>
										<name>(Sugar and Sparrow)_Sprinkled Cactus Cupcakes Tutorial_PVQHnGJL5Ao_YT.mp4</name>
										<enabled>TRUE</enabled>
										<duration>4135</duration>
										<rate>
											<timebase>30</timebase>
											<ntsc>TRUE</ntsc>
										</rate>
										<start>21885</start>
										<end>21945</end>
										<in>2683</in>
										<out>2743</out>
										<pproTicksIn>22740215097600</pproTicksIn>
										<pproTicksOut>23248755129600</pproTicksOut>
										<alphatype>none</alphatype>
										<file id="file-190"/>
										<logginginfo>
											<description>Sprinkled Cactus Cupcakes Tutorial</description>
											<scene></scene>
											<shottake></shottake>
											<lognote>https://www.youtube.com/watch?v=PVQHnGJL5Ao</lognote>
											<good></good>
											<originalvideofilename></originalvideofilename>
											<originalaudiofilename></originalaudiofilename>
										</logginginfo>
										<colorinfo>
											<lut></lut>
											<lut1></lut1>
											<asc_sop></asc_sop>
											<asc_sat></asc_sat>
											<lut2></lut2>
										</colorinfo>
										<labels>
											<label2>Violet</label2>
										</labels>
									</clipitem>
									<clipitem id="clipitem-832">
										<masterclipid>masterclip-221</masterclipid>
										<name>(Sugar and Sparrow)_Sprinkled Cactus Cupcakes Tutorial_PVQHnGJL5Ao_YT.mp4</name>
										<enabled>TRUE</enabled>
										<duration>4135</duration>
										<rate>
											<timebase>30</timebase>
											<ntsc>TRUE</ntsc>
										</rate>
										<start>21945</start>
										<end>22258</end>
										<in>2915</in>
										<out>3228</out>
										<pproTicksIn>24706569888000</pproTicksIn>
										<pproTicksOut>27359453721600</pproTicksOut>
										<alphatype>none</alphatype>
										<file id="file-190"/>
										<logginginfo>
											<description>Sprinkled Cactus Cupcakes Tutorial</description>
											<scene></scene>
											<shottake></shottake>
											<lognote>https://www.youtube.com/watch?v=PVQHnGJL5Ao</lognote>
											<good></good>
											<originalvideofilename></originalvideofilename>
											<originalaudiofilename></originalaudiofilename>
										</logginginfo>
										<colorinfo>
											<lut></lut>
											<lut1></lut1>
											<asc_sop></asc_sop>
											<asc_sat></asc_sat>
											<lut2></lut2>
										</colorinfo>
										<labels>
											<label2>Violet</label2>
										</labels>
									</clipitem>
									<clipitem id="clipitem-833">
										<masterclipid>masterclip-221</masterclipid>
										<name>(Sugar and Sparrow)_Sprinkled Cactus Cupcakes Tutorial_PVQHnGJL5Ao_YT.mp4</name>
										<enabled>TRUE</enabled>
										<duration>4135</duration>
										<rate>
											<timebase>30</timebase>
											<ntsc>TRUE</ntsc>
										</rate>
										<start>22258</start>
										<end>22751</end>
										<in>3324</in>
										<out>3817</out>
										<pproTicksIn>28173117772800</pproTicksIn>
										<pproTicksOut>32351621702400</pproTicksOut>
										<alphatype>none</alphatype>
										<file id="file-190"/>
										<logginginfo>
											<description>Sprinkled Cactus Cupcakes Tutorial</description>
											<scene></scene>
											<shottake></shottake>
											<lognote>https://www.youtube.com/watch?v=PVQHnGJL5Ao</lognote>
											<good></good>
											<originalvideofilename></originalvideofilename>
											<originalaudiofilename></originalaudiofilename>
										</logginginfo>
										<colorinfo>
											<lut></lut>
											<lut1></lut1>
											<asc_sop></asc_sop>
											<asc_sat></asc_sat>
											<lut2></lut2>
										</colorinfo>
										<labels>
											<label2>Violet</label2>
										</labels>
									</clipitem>
									<clipitem id="clipitem-834">
										<masterclipid>masterclip-221</masterclipid>
										<name>(Sugar and Sparrow)_Sprinkled Cactus Cupcakes Tutorial_PVQHnGJL5Ao_YT.mp4</name>
										<enabled>TRUE</enabled>
										<duration>4135</duration>
										<rate>
											<timebase>30</timebase>
											<ntsc>TRUE</ntsc>
										</rate>
										<start>22751</start>
										<end>22852</end>
										<in>3862</in>
										<out>3963</out>
										<pproTicksIn>32733026726400</pproTicksIn>
										<pproTicksOut>33589069113600</pproTicksOut>
										<alphatype>none</alphatype>
										<file id="file-190"/>
										<logginginfo>
											<description>Sprinkled Cactus Cupcakes Tutorial</description>
											<scene></scene>
											<shottake></shottake>
											<lognote>https://www.youtube.com/watch?v=PVQHnGJL5Ao</lognote>
											<good></good>
											<originalvideofilename></originalvideofilename>
											<originalaudiofilename></originalaudiofilename>
										</logginginfo>
										<colorinfo>
											<lut></lut>
											<lut1></lut1>
											<asc_sop></asc_sop>
											<asc_sat></asc_sat>
											<lut2></lut2>
										</colorinfo>
										<labels>
											<label2>Violet</label2>
										</labels>
									</clipitem>
									<clipitem id="clipitem-835">
										<masterclipid>masterclip-225</masterclipid>
										<name>(allyoucansweet)_7071304615676874030_TT.mp4</name>
										<enabled>TRUE</enabled>
										<duration>1648</duration>
										<rate>
											<timebase>30</timebase>
											<ntsc>TRUE</ntsc>
										</rate>
										<start>22852</start>
										<end>22959</end>
										<in>175</in>
										<out>282</out>
										<pproTicksIn>1483241760000</pproTicksIn>
										<pproTicksOut>2390138150400</pproTicksOut>
										<alphatype>none</alphatype>
										<file id="file-193"/>
										<logginginfo>
											<description></description>
											<scene></scene>
											<shottake></shottake>
											<lognote></lognote>
											<good></good>
											<originalvideofilename></originalvideofilename>
											<originalaudiofilename></originalaudiofilename>
										</logginginfo>
										<colorinfo>
											<lut></lut>
											<lut1></lut1>
											<asc_sop></asc_sop>
											<asc_sat></asc_sat>
											<lut2></lut2>
										</colorinfo>
										<labels>
											<label2>Violet</label2>
										</labels>
									</clipitem>
									<clipitem id="clipitem-836">
										<masterclipid>masterclip-225</masterclipid>
										<name>(allyoucansweet)_7071304615676874030_TT.mp4</name>
										<enabled>TRUE</enabled>
										<duration>1648</duration>
										<rate>
											<timebase>30</timebase>
											<ntsc>TRUE</ntsc>
										</rate>
										<start>22959</start>
										<end>22999</end>
										<in>602</in>
										<out>642</out>
										<pproTicksIn>5102351654400</pproTicksIn>
										<pproTicksOut>5441378342400</pproTicksOut>
										<alphatype>none</alphatype>
										<file id="file-193"/>
										<logginginfo>
											<description></description>
											<scene></scene>
											<shottake></shottake>
											<lognote></lognote>
											<good></good>
											<originalvideofilename></originalvideofilename>
											<originalaudiofilename></originalaudiofilename>
										</logginginfo>
										<colorinfo>
											<lut></lut>
											<lut1></lut1>
											<asc_sop></asc_sop>
											<asc_sat></asc_sat>
											<lut2></lut2>
										</colorinfo>
										<labels>
											<label2>Violet</label2>
										</labels>
									</clipitem>
									<clipitem id="clipitem-837">
										<masterclipid>masterclip-225</masterclipid>
										<name>(allyoucansweet)_7071304615676874030_TT.mp4</name>
										<enabled>TRUE</enabled>
										<duration>1648</duration>
										<rate>
											<timebase>30</timebase>
											<ntsc>TRUE</ntsc>
										</rate>
										<start>22999</start>
										<end>23099</end>
										<in>658</in>
										<out>758</out>
										<pproTicksIn>5576989017600</pproTicksIn>
										<pproTicksOut>6424555737600</pproTicksOut>
										<alphatype>none</alphatype>
										<file id="file-193"/>
										<logginginfo>
											<description></description>
											<scene></scene>
											<shottake></shottake>
											<lognote></lognote>
											<good></good>
											<originalvideofilename></originalvideofilename>
											<originalaudiofilename></originalaudiofilename>
										</logginginfo>
										<colorinfo>
											<lut></lut>
											<lut1></lut1>
											<asc_sop></asc_sop>
											<asc_sat></asc_sat>
											<lut2></lut2>
										</colorinfo>
										<labels>
											<label2>Violet</label2>
										</labels>
									</clipitem>
									<clipitem id="clipitem-838">
										<masterclipid>masterclip-225</masterclipid>
										<name>(allyoucansweet)_7071304615676874030_TT.mp4</name>
										<enabled>TRUE</enabled>
										<duration>1648</duration>
										<rate>
											<timebase>30</timebase>
											<ntsc>TRUE</ntsc>
										</rate>
										<start>23099</start>
										<end>23130</end>
										<in>816</in>
										<out>847</out>
										<pproTicksIn>6916144435200</pproTicksIn>
										<pproTicksOut>7178890118400</pproTicksOut>
										<alphatype>none</alphatype>
										<file id="file-193"/>
										<logginginfo>
											<description></description>
											<scene></scene>
											<shottake></shottake>
											<lognote></lognote>
											<good></good>
											<originalvideofilename></originalvideofilename>
											<originalaudiofilename></originalaudiofilename>
										</logginginfo>
										<colorinfo>
											<lut></lut>
											<lut1></lut1>
											<asc_sop></asc_sop>
											<asc_sat></asc_sat>
											<lut2></lut2>
										</colorinfo>
										<labels>
											<label2>Violet</label2>
										</labels>
									</clipitem>
									<clipitem id="clipitem-839">
										<masterclipid>masterclip-225</masterclipid>
										<name>(allyoucansweet)_7071304615676874030_TT.mp4</name>
										<enabled>TRUE</enabled>
										<duration>1648</duration>
										<rate>
											<timebase>30</timebase>
											<ntsc>TRUE</ntsc>
										</rate>
										<start>23130</start>
										<end>23194</end>
										<in>1035</in>
										<out>1099</out>
										<pproTicksIn>8772315552000</pproTicksIn>
										<pproTicksOut>9314758252800</pproTicksOut>
										<alphatype>none</alphatype>
										<file id="file-193"/>
										<logginginfo>
											<description></description>
											<scene></scene>
											<shottake></shottake>
											<lognote></lognote>
											<good></good>
											<originalvideofilename></originalvideofilename>
											<originalaudiofilename></originalaudiofilename>
										</logginginfo>
										<colorinfo>
											<lut></lut>
											<lut1></lut1>
											<asc_sop></asc_sop>
											<asc_sat></asc_sat>
											<lut2></lut2>
										</colorinfo>
										<labels>
											<label2>Violet</label2>
										</labels>
									</clipitem>
									<clipitem id="clipitem-840">
										<masterclipid>masterclip-225</masterclipid>
										<name>(allyoucansweet)_7071304615676874030_TT.mp4</name>
										<enabled>TRUE</enabled>
										<duration>1648</duration>
										<rate>
											<timebase>30</timebase>
											<ntsc>TRUE</ntsc>
										</rate>
										<start>23194</start>
										<end>23259</end>
										<in>1105</in>
										<out>1170</out>
										<pproTicksIn>9365612256000</pproTicksIn>
										<pproTicksOut>9916530624000</pproTicksOut>
										<alphatype>none</alphatype>
										<file id="file-193"/>
										<logginginfo>
											<description></description>
											<scene></scene>
											<shottake></shottake>
											<lognote></lognote>
											<good></good>
											<originalvideofilename></originalvideofilename>
											<originalaudiofilename></originalaudiofilename>
										</logginginfo>
										<colorinfo>
											<lut></lut>
											<lut1></lut1>
											<asc_sop></asc_sop>
											<asc_sat></asc_sat>
											<lut2></lut2>
										</colorinfo>
										<labels>
											<label2>Violet</label2>
										</labels>
									</clipitem>
									<clipitem id="clipitem-841">
										<masterclipid>masterclip-225</masterclipid>
										<name>(allyoucansweet)_7071304615676874030_TT.mp4</name>
										<enabled>TRUE</enabled>
										<duration>1648</duration>
										<rate>
											<timebase>30</timebase>
											<ntsc>TRUE</ntsc>
										</rate>
										<start>23259</start>
										<end>23331</end>
										<in>1208</in>
										<out>1280</out>
										<pproTicksIn>10238605977600</pproTicksIn>
										<pproTicksOut>10848854016000</pproTicksOut>
										<alphatype>none</alphatype>
										<file id="file-193"/>
										<logginginfo>
											<description></description>
											<scene></scene>
											<shottake></shottake>
											<lognote></lognote>
											<good></good>
											<originalvideofilename></originalvideofilename>
											<originalaudiofilename></originalaudiofilename>
										</logginginfo>
										<colorinfo>
											<lut></lut>
											<lut1></lut1>
											<asc_sop></asc_sop>
											<asc_sat></asc_sat>
											<lut2></lut2>
										</colorinfo>
										<labels>
											<label2>Violet</label2>
										</labels>
									</clipitem>
									<clipitem id="clipitem-842">
										<masterclipid>masterclip-225</masterclipid>
										<name>(allyoucansweet)_7071304615676874030_TT.mp4</name>
										<enabled>TRUE</enabled>
										<duration>1648</duration>
										<rate>
											<timebase>30</timebase>
											<ntsc>TRUE</ntsc>
										</rate>
										<start>23331</start>
										<end>23440</end>
										<in>1400</in>
										<out>1509</out>
										<pproTicksIn>11865934080000</pproTicksIn>
										<pproTicksOut>12789781804800</pproTicksOut>
										<alphatype>none</alphatype>
										<file id="file-193"/>
										<logginginfo>
											<description></description>
											<scene></scene>
											<shottake></shottake>
											<lognote></lognote>
											<good></good>
											<originalvideofilename></originalvideofilename>
											<originalaudiofilename></originalaudiofilename>
										</logginginfo>
										<colorinfo>
											<lut></lut>
											<lut1></lut1>
											<asc_sop></asc_sop>
											<asc_sat></asc_sat>
											<lut2></lut2>
										</colorinfo>
										<labels>
											<label2>Violet</label2>
										</labels>
									</clipitem>
									<clipitem id="clipitem-843">
										<masterclipid>masterclip-226</masterclipid>
										<name>(stockmans_bbd)_CUmMBnGBvTm_IG.mp4</name>
										<enabled>TRUE</enabled>
										<duration>605</duration>
										<rate>
											<timebase>30</timebase>
											<ntsc>TRUE</ntsc>
										</rate>
										<start>23440</start>
										<end>23956</end>
										<in>0</in>
										<out>516</out>
										<pproTicksIn>0</pproTicksIn>
										<pproTicksOut>4373444275200</pproTicksOut>
										<alphatype>none</alphatype>
										<file id="file-194"/>
										<logginginfo>
											<description></description>
											<scene></scene>
											<shottake></shottake>
											<lognote></lognote>
											<good></good>
											<originalvideofilename></originalvideofilename>
											<originalaudiofilename></originalaudiofilename>
										</logginginfo>
										<colorinfo>
											<lut></lut>
											<lut1></lut1>
											<asc_sop></asc_sop>
											<asc_sat></asc_sat>
											<lut2></lut2>
										</colorinfo>
										<labels>
											<label2>Violet</label2>
										</labels>
									</clipitem>
									<clipitem id="clipitem-844">
										<masterclipid>masterclip-227</masterclipid>
										<name>(amoretti)_Chs2i5WggmB_IG.mp4</name>
										<enabled>TRUE</enabled>
										<duration>494</duration>
										<rate>
											<timebase>30</timebase>
											<ntsc>TRUE</ntsc>
										</rate>
										<start>23956</start>
										<end>24391</end>
										<in>60</in>
										<out>495</out>
										<pproTicksIn>508540032000</pproTicksIn>
										<pproTicksOut>4195455264000</pproTicksOut>
										<alphatype>none</alphatype>
										<file id="file-195"/>
										<logginginfo>
											<description></description>
											<scene></scene>
											<shottake></shottake>
											<lognote></lognote>
											<good></good>
											<originalvideofilename></originalvideofilename>
											<originalaudiofilename></originalaudiofilename>
										</logginginfo>
										<colorinfo>
											<lut></lut>
											<lut1></lut1>
											<asc_sop></asc_sop>
											<asc_sat></asc_sat>
											<lut2></lut2>
										</colorinfo>
										<labels>
											<label2>Violet</label2>
										</labels>
									</clipitem>
									<clipitem id="clipitem-845">
										<masterclipid>masterclip-228</masterclipid>
										<name>(loganscandies)_7052070626793622831_TT.mp4</name>
										<enabled>TRUE</enabled>
										<duration>322</duration>
										<rate>
											<timebase>30</timebase>
											<ntsc>TRUE</ntsc>
										</rate>
										<start>24391</start>
										<end>24713</end>
										<in>0</in>
										<out>322</out>
										<pproTicksIn>0</pproTicksIn>
										<pproTicksOut>2729164838400</pproTicksOut>
										<alphatype>none</alphatype>
										<file id="file-196"/>
										<logginginfo>
											<description></description>
											<scene></scene>
											<shottake></shottake>
											<lognote></lognote>
											<good></good>
											<originalvideofilename></originalvideofilename>
											<originalaudiofilename></originalaudiofilename>
										</logginginfo>
										<colorinfo>
											<lut></lut>
											<lut1></lut1>
											<asc_sop></asc_sop>
											<asc_sat></asc_sat>
											<lut2></lut2>
										</colorinfo>
										<labels>
											<label2>Violet</label2>
										</labels>
									</clipitem>
									<clipitem id="clipitem-846">
										<masterclipid>masterclip-229</masterclipid>
										<name>(ryanwilsonbakes)_B0HQ1fuAIh__IG.mp4</name>
										<enabled>TRUE</enabled>
										<duration>573</duration>
										<rate>
											<timebase>30</timebase>
											<ntsc>TRUE</ntsc>
										</rate>
										<start>24713</start>
										<end>25205</end>
										<in>0</in>
										<out>492</out>
										<pproTicksIn>0</pproTicksIn>
										<pproTicksOut>9255428582400</pproTicksOut>
										<alphatype>none</alphatype>
										<file id="file-197"/>
										<filter>
											<effect>
												<name>Basic Motion</name>
												<effectid>basic</effectid>
												<effectcategory>motion</effectcategory>
												<effecttype>motion</effecttype>
												<mediatype>video</mediatype>
												<pproBypass>false</pproBypass>
												<parameter authoringApp="PremierePro">
													<parameterid>scale</parameterid>
													<name>Scale</name>
													<valuemin>0</valuemin>
													<valuemax>1000</valuemax>
													<value>100</value>
												</parameter>
												<parameter authoringApp="PremierePro">
													<parameterid>rotation</parameterid>
													<name>Rotation</name>
													<valuemin>-8640</valuemin>
													<valuemax>8640</valuemax>
													<value>0</value>
												</parameter>
												<parameter authoringApp="PremierePro">
													<parameterid>center</parameterid>
													<name>Center</name>
													<value>
														<horiz>0.136111</horiz>
														<vert>0</vert>
													</value>
												</parameter>
												<parameter authoringApp="PremierePro">
													<parameterid>centerOffset</parameterid>
													<name>Anchor Point</name>
													<value>
														<horiz>0</horiz>
														<vert>0</vert>
													</value>
												</parameter>
												<parameter authoringApp="PremierePro">
													<parameterid>antiflicker</parameterid>
													<name>Anti-flicker Filter</name>
													<valuemin>0.0</valuemin>
													<valuemax>1.0</valuemax>
													<value>0</value>
												</parameter>
											</effect>
										</filter>
										<filter>
											<effect>
												<name>Time Remap</name>
												<effectid>timeremap</effectid>
												<effectcategory>motion</effectcategory>
												<effecttype>motion</effecttype>
												<mediatype>video</mediatype>
												<parameter authoringApp="PremierePro">
													<parameterid>variablespeed</parameterid>
													<name>variablespeed</name>
													<valuemin>0</valuemin>
													<valuemax>1</valuemax>
													<value>0</value>
												</parameter>
												<parameter authoringApp="PremierePro">
													<parameterid>speed</parameterid>
													<name>speed</name>
													<valuemin>-100000</valuemin>
													<valuemax>100000</valuemax>
													<value>221.951</value>
												</parameter>
												<parameter authoringApp="PremierePro">
													<parameterid>reverse</parameterid>
													<name>reverse</name>
													<value>FALSE</value>
												</parameter>
												<parameter authoringApp="PremierePro">
													<parameterid>frameblending</parameterid>
													<name>frameblending</name>
													<value>FALSE</value>
												</parameter>
												<parameter authoringApp="PremierePro">
													<parameterid>graphdict</parameterid>
													<name>graphdict</name>
													<valuemin>0</valuemin>
													<valuemax>1271</valuemax>
													<value>0</value>
													<keyframe>
														<when>0</when>
														<value>0</value>
														<speedvirtualkf>TRUE</speedvirtualkf>
														<speedkfin>TRUE</speedkfin>
													</keyframe>
													<keyframe>
														<when>492</when>
														<value>1091</value>
														<speedvirtualkf>TRUE</speedvirtualkf>
														<speedkfout>TRUE</speedkfout>
													</keyframe>
													<keyframe>
														<when>573</when>
														<value>1271</value>
														<speedvirtualkf>TRUE</speedvirtualkf>
														<speedkfend>TRUE</speedkfend>
													</keyframe>
													<interpolation>
														<name>FCPCurve</name>
													</interpolation>
												</parameter>
											</effect>
										</filter>
										<logginginfo>
											<description></description>
											<scene></scene>
											<shottake></shottake>
											<lognote></lognote>
											<good></good>
											<originalvideofilename></originalvideofilename>
											<originalaudiofilename></originalaudiofilename>
										</logginginfo>
										<colorinfo>
											<lut></lut>
											<lut1></lut1>
											<asc_sop></asc_sop>
											<asc_sat></asc_sat>
											<lut2></lut2>
										</colorinfo>
										<labels>
											<label2>Violet</label2>
										</labels>
									</clipitem>
									<clipitem id="clipitem-847">
										<masterclipid>masterclip-229</masterclipid>
										<name>(ryanwilsonbakes)_B0HQ1fuAIh__IG.mp4</name>
										<enabled>TRUE</enabled>
										<duration>1273</duration>
										<rate>
											<timebase>30</timebase>
											<ntsc>TRUE</ntsc>
										</rate>
										<start>25205</start>
										<end>25301</end>
										<in>1173</in>
										<out>1269</out>
										<pproTicksIn>9941957625600</pproTicksIn>
										<pproTicksOut>10755621676800</pproTicksOut>
										<alphatype>none</alphatype>
										<file id="file-197"/>
										<filter>
											<effect>
												<name>Basic Motion</name>
												<effectid>basic</effectid>
												<effectcategory>motion</effectcategory>
												<effecttype>motion</effecttype>
												<mediatype>video</mediatype>
												<pproBypass>false</pproBypass>
												<parameter authoringApp="PremierePro">
													<parameterid>scale</parameterid>
													<name>Scale</name>
													<valuemin>0</valuemin>
													<valuemax>1000</valuemax>
													<value>100</value>
												</parameter>
												<parameter authoringApp="PremierePro">
													<parameterid>rotation</parameterid>
													<name>Rotation</name>
													<valuemin>-8640</valuemin>
													<valuemax>8640</valuemax>
													<value>0</value>
												</parameter>
												<parameter authoringApp="PremierePro">
													<parameterid>center</parameterid>
													<name>Center</name>
													<value>
														<horiz>-0.0277778</horiz>
														<vert>0</vert>
													</value>
												</parameter>
												<parameter authoringApp="PremierePro">
													<parameterid>centerOffset</parameterid>
													<name>Anchor Point</name>
													<value>
														<horiz>0</horiz>
														<vert>0</vert>
													</value>
												</parameter>
												<parameter authoringApp="PremierePro">
													<parameterid>antiflicker</parameterid>
													<name>Anti-flicker Filter</name>
													<valuemin>0.0</valuemin>
													<valuemax>1.0</valuemax>
													<value>0</value>
												</parameter>
											</effect>
										</filter>
										<logginginfo>
											<description></description>
											<scene></scene>
											<shottake></shottake>
											<lognote></lognote>
											<good></good>
											<originalvideofilename></originalvideofilename>
											<originalaudiofilename></originalaudiofilename>
										</logginginfo>
										<colorinfo>
											<lut></lut>
											<lut1></lut1>
											<asc_sop></asc_sop>
											<asc_sat></asc_sat>
											<lut2></lut2>
										</colorinfo>
										<labels>
											<label2>Violet</label2>
										</labels>
									</clipitem>
									<clipitem id="clipitem-848">
										<masterclipid>masterclip-234</masterclipid>
										<name>(eatsbyrachel)_Recreating Popular Brunch Toast from LA &amp; NYC (Davelle, Sqirl, &amp; Lodge Bread Co)_ExJXAxwy_GA_YT.mp4</name>
										<enabled>TRUE</enabled>
										<duration>14198</duration>
										<rate>
											<timebase>30</timebase>
											<ntsc>TRUE</ntsc>
										</rate>
										<start>25301</start>
										<end>25579</end>
										<in>2020</in>
										<out>2298</out>
										<pproTicksIn>17120847744000</pproTicksIn>
										<pproTicksOut>19477083225600</pproTicksOut>
										<alphatype>none</alphatype>
										<file id="file-201"/>
										<logginginfo>
											<description>Recreating Popular Brunch Toast from LA &amp; NYC (Davelle, Sqirl, &amp; Lodge Bread Co)</description>
											<scene></scene>
											<shottake></shottake>
											<lognote>https://www.youtube.com/watch?v=ExJXAxwy_GA</lognote>
											<good></good>
											<originalvideofilename></originalvideofilename>
											<originalaudiofilename></originalaudiofilename>
										</logginginfo>
										<colorinfo>
											<lut></lut>
											<lut1></lut1>
											<asc_sop></asc_sop>
											<asc_sat></asc_sat>
											<lut2></lut2>
										</colorinfo>
										<labels>
											<label2>Violet</label2>
										</labels>
									</clipitem>
									<clipitem id="clipitem-849">
										<masterclipid>masterclip-234</masterclipid>
										<name>(eatsbyrachel)_Recreating Popular Brunch Toast from LA &amp; NYC (Davelle, Sqirl, &amp; Lodge Bread Co)_ExJXAxwy_GA_YT.mp4</name>
										<enabled>TRUE</enabled>
										<duration>14198</duration>
										<rate>
											<timebase>30</timebase>
											<ntsc>TRUE</ntsc>
										</rate>
										<start>25579</start>
										<end>25834</end>
										<in>2344</in>
										<out>2599</out>
										<pproTicksIn>19866963916800</pproTicksIn>
										<pproTicksOut>22028259052800</pproTicksOut>
										<alphatype>none</alphatype>
										<file id="file-201"/>
										<logginginfo>
											<description>Recreating Popular Brunch Toast from LA &amp; NYC (Davelle, Sqirl, &amp; Lodge Bread Co)</description>
											<scene></scene>
											<shottake></shottake>
											<lognote>https://www.youtube.com/watch?v=ExJXAxwy_GA</lognote>
											<good></good>
											<originalvideofilename></originalvideofilename>
											<originalaudiofilename></originalaudiofilename>
										</logginginfo>
										<colorinfo>
											<lut></lut>
											<lut1></lut1>
											<asc_sop></asc_sop>
											<asc_sat></asc_sat>
											<lut2></lut2>
										</colorinfo>
										<labels>
											<label2>Violet</label2>
										</labels>
									</clipitem>
									<clipitem id="clipitem-850">
										<masterclipid>masterclip-234</masterclipid>
										<name>(eatsbyrachel)_Recreating Popular Brunch Toast from LA &amp; NYC (Davelle, Sqirl, &amp; Lodge Bread Co)_ExJXAxwy_GA_YT.mp4</name>
										<enabled>TRUE</enabled>
										<duration>10517</duration>
										<rate>
											<timebase>30</timebase>
											<ntsc>TRUE</ntsc>
										</rate>
										<start>25834</start>
										<end>26492</end>
										<in>2526</in>
										<out>3183</out>
										<pproTicksIn>28902025152000</pproTicksIn>
										<pproTicksOut>36430960325760</pproTicksOut>
										<alphatype>none</alphatype>
										<file id="file-201"/>
										<filter>
											<effect>
												<name>Time Remap</name>
												<effectid>timeremap</effectid>
												<effectcategory>motion</effectcategory>
												<effecttype>motion</effecttype>
												<mediatype>video</mediatype>
												<parameter authoringApp="PremierePro">
													<parameterid>variablespeed</parameterid>
													<name>variablespeed</name>
													<valuemin>0</valuemin>
													<valuemax>1</valuemax>
													<value>0</value>
												</parameter>
												<parameter authoringApp="PremierePro">
													<parameterid>speed</parameterid>
													<name>speed</name>
													<valuemin>-100000</valuemin>
													<valuemax>100000</valuemax>
													<value>135</value>
												</parameter>
												<parameter authoringApp="PremierePro">
													<parameterid>reverse</parameterid>
													<name>reverse</name>
													<value>FALSE</value>
												</parameter>
												<parameter authoringApp="PremierePro">
													<parameterid>frameblending</parameterid>
													<name>frameblending</name>
													<value>FALSE</value>
												</parameter>
												<parameter authoringApp="PremierePro">
													<parameterid>graphdict</parameterid>
													<name>graphdict</name>
													<valuemin>0</valuemin>
													<valuemax>14197</valuemax>
													<value>0</value>
													<keyframe>
														<when>0</when>
														<value>0</value>
														<speedvirtualkf>TRUE</speedvirtualkf>
														<speedkfstart>TRUE</speedkfstart>
													</keyframe>
													<keyframe>
														<when>2526</when>
														<value>3410</value>
														<speedvirtualkf>TRUE</speedvirtualkf>
														<speedkfin>TRUE</speedkfin>
													</keyframe>
													<keyframe>
														<when>3183</when>
														<value>4297</value>
														<speedvirtualkf>TRUE</speedvirtualkf>
														<speedkfout>TRUE</speedkfout>
													</keyframe>
													<keyframe>
														<when>10517</when>
														<value>14197</value>
														<speedvirtualkf>TRUE</speedvirtualkf>
														<speedkfend>TRUE</speedkfend>
													</keyframe>
													<interpolation>
														<name>FCPCurve</name>
													</interpolation>
												</parameter>
											</effect>
										</filter>
										<logginginfo>
											<description>Recreating Popular Brunch Toast from LA &amp; NYC (Davelle, Sqirl, &amp; Lodge Bread Co)</description>
											<scene></scene>
											<shottake></shottake>
											<lognote>https://www.youtube.com/watch?v=ExJXAxwy_GA</lognote>
											<good></good>
											<originalvideofilename></originalvideofilename>
											<originalaudiofilename></originalaudiofilename>
										</logginginfo>
										<colorinfo>
											<lut></lut>
											<lut1></lut1>
											<asc_sop></asc_sop>
											<asc_sat></asc_sat>
											<lut2></lut2>
										</colorinfo>
										<labels>
											<label2>Violet</label2>
										</labels>
									</clipitem>
									<clipitem id="clipitem-851">
										<masterclipid>masterclip-234</masterclipid>
										<name>(eatsbyrachel)_Recreating Popular Brunch Toast from LA &amp; NYC (Davelle, Sqirl, &amp; Lodge Bread Co)_ExJXAxwy_GA_YT.mp4</name>
										<enabled>TRUE</enabled>
										<duration>14198</duration>
										<rate>
											<timebase>30</timebase>
											<ntsc>TRUE</ntsc>
										</rate>
										<start>26492</start>
										<end>26568</end>
										<in>4299</in>
										<out>4375</out>
										<pproTicksIn>36436893292800</pproTicksIn>
										<pproTicksOut>37081044000000</pproTicksOut>
										<alphatype>none</alphatype>
										<file id="file-201"/>
										<logginginfo>
											<description>Recreating Popular Brunch Toast from LA &amp; NYC (Davelle, Sqirl, &amp; Lodge Bread Co)</description>
											<scene></scene>
											<shottake></shottake>
											<lognote>https://www.youtube.com/watch?v=ExJXAxwy_GA</lognote>
											<good></good>
											<originalvideofilename></originalvideofilename>
											<originalaudiofilename></originalaudiofilename>
										</logginginfo>
										<colorinfo>
											<lut></lut>
											<lut1></lut1>
											<asc_sop></asc_sop>
											<asc_sat></asc_sat>
											<lut2></lut2>
										</colorinfo>
										<labels>
											<label2>Violet</label2>
										</labels>
									</clipitem>
									<clipitem id="clipitem-852">
										<masterclipid>masterclip-234</masterclipid>
										<name>(eatsbyrachel)_Recreating Popular Brunch Toast from LA &amp; NYC (Davelle, Sqirl, &amp; Lodge Bread Co)_ExJXAxwy_GA_YT.mp4</name>
										<enabled>TRUE</enabled>
										<duration>14198</duration>
										<rate>
											<timebase>30</timebase>
											<ntsc>TRUE</ntsc>
										</rate>
										<start>26568</start>
										<end>27198</end>
										<in>5658</in>
										<out>6288</out>
										<pproTicksIn>47955325017600</pproTicksIn>
										<pproTicksOut>53294995353600</pproTicksOut>
										<alphatype>none</alphatype>
										<file id="file-201"/>
										<logginginfo>
											<description>Recreating Popular Brunch Toast from LA &amp; NYC (Davelle, Sqirl, &amp; Lodge Bread Co)</description>
											<scene></scene>
											<shottake></shottake>
											<lognote>https://www.youtube.com/watch?v=ExJXAxwy_GA</lognote>
											<good></good>
											<originalvideofilename></originalvideofilename>
											<originalaudiofilename></originalaudiofilename>
										</logginginfo>
										<colorinfo>
											<lut></lut>
											<lut1></lut1>
											<asc_sop></asc_sop>
											<asc_sat></asc_sat>
											<lut2></lut2>
										</colorinfo>
										<labels>
											<label2>Violet</label2>
										</labels>
									</clipitem>
									<clipitem id="clipitem-853">
										<masterclipid>masterclip-234</masterclipid>
										<name>(eatsbyrachel)_Recreating Popular Brunch Toast from LA &amp; NYC (Davelle, Sqirl, &amp; Lodge Bread Co)_ExJXAxwy_GA_YT.mp4</name>
										<enabled>TRUE</enabled>
										<duration>14198</duration>
										<rate>
											<timebase>30</timebase>
											<ntsc>TRUE</ntsc>
										</rate>
										<start>27198</start>
										<end>27740</end>
										<in>6403</in>
										<out>6945</out>
										<pproTicksIn>54269697081600</pproTicksIn>
										<pproTicksOut>58863508704000</pproTicksOut>
										<alphatype>none</alphatype>
										<file id="file-201"/>
										<logginginfo>
											<description>Recreating Popular Brunch Toast from LA &amp; NYC (Davelle, Sqirl, &amp; Lodge Bread Co)</description>
											<scene></scene>
											<shottake></shottake>
											<lognote>https://www.youtube.com/watch?v=ExJXAxwy_GA</lognote>
											<good></good>
											<originalvideofilename></originalvideofilename>
											<originalaudiofilename></originalaudiofilename>
										</logginginfo>
										<colorinfo>
											<lut></lut>
											<lut1></lut1>
											<asc_sop></asc_sop>
											<asc_sat></asc_sat>
											<lut2></lut2>
										</colorinfo>
										<labels>
											<label2>Violet</label2>
										</labels>
									</clipitem>
									<clipitem id="clipitem-854">
										<masterclipid>masterclip-234</masterclipid>
										<name>(eatsbyrachel)_Recreating Popular Brunch Toast from LA &amp; NYC (Davelle, Sqirl, &amp; Lodge Bread Co)_ExJXAxwy_GA_YT.mp4</name>
										<enabled>TRUE</enabled>
										<duration>14198</duration>
										<rate>
											<timebase>30</timebase>
											<ntsc>TRUE</ntsc>
										</rate>
										<start>27740</start>
										<end>28019</end>
										<in>7005</in>
										<out>7284</out>
										<pproTicksIn>59372048736000</pproTicksIn>
										<pproTicksOut>61736759884800</pproTicksOut>
										<alphatype>none</alphatype>
										<file id="file-201"/>
										<logginginfo>
											<description>Recreating Popular Brunch Toast from LA &amp; NYC (Davelle, Sqirl, &amp; Lodge Bread Co)</description>
											<scene></scene>
											<shottake></shottake>
											<lognote>https://www.youtube.com/watch?v=ExJXAxwy_GA</lognote>
											<good></good>
											<originalvideofilename></originalvideofilename>
											<originalaudiofilename></originalaudiofilename>
										</logginginfo>
										<colorinfo>
											<lut></lut>
											<lut1></lut1>
											<asc_sop></asc_sop>
											<asc_sat></asc_sat>
											<lut2></lut2>
										</colorinfo>
										<labels>
											<label2>Violet</label2>
										</labels>
									</clipitem>
									<clipitem id="clipitem-855">
										<masterclipid>masterclip-238</masterclipid>
										<name>(MILKY TREATS)_Making a chocolate cake batter milkshake _ _ #icecream  #milkshake #icecreamshop_0RpIpO8Wp9M_YT.mp4</name>
										<enabled>TRUE</enabled>
										<duration>624</duration>
										<rate>
											<timebase>30</timebase>
											<ntsc>TRUE</ntsc>
										</rate>
										<start>28019</start>
										<end>28259</end>
										<in>11</in>
										<out>251</out>
										<pproTicksIn>93232339200</pproTicksIn>
										<pproTicksOut>2127392467200</pproTicksOut>
										<alphatype>none</alphatype>
										<file id="file-204"/>
										<filter>
											<effect>
												<name>Basic Motion</name>
												<effectid>basic</effectid>
												<effectcategory>motion</effectcategory>
												<effecttype>motion</effecttype>
												<mediatype>video</mediatype>
												<pproBypass>false</pproBypass>
												<parameter authoringApp="PremierePro">
													<parameterid>scale</parameterid>
													<name>Scale</name>
													<valuemin>0</valuemin>
													<valuemax>1000</valuemax>
													<value>100</value>
												</parameter>
												<parameter authoringApp="PremierePro">
													<parameterid>rotation</parameterid>
													<name>Rotation</name>
													<valuemin>-8640</valuemin>
													<valuemax>8640</valuemax>
													<value>0</value>
												</parameter>
												<parameter authoringApp="PremierePro">
													<parameterid>center</parameterid>
													<name>Center</name>
													<value>
														<horiz>0.0194445</horiz>
														<vert>0</vert>
													</value>
												</parameter>
												<parameter authoringApp="PremierePro">
													<parameterid>centerOffset</parameterid>
													<name>Anchor Point</name>
													<value>
														<horiz>0</horiz>
														<vert>0</vert>
													</value>
												</parameter>
												<parameter authoringApp="PremierePro">
													<parameterid>antiflicker</parameterid>
													<name>Anti-flicker Filter</name>
													<valuemin>0.0</valuemin>
													<valuemax>1.0</valuemax>
													<value>0</value>
												</parameter>
											</effect>
										</filter>
										<logginginfo>
											<description></description>
											<scene></scene>
											<shottake></shottake>
											<lognote></lognote>
											<good></good>
											<originalvideofilename></originalvideofilename>
											<originalaudiofilename></originalaudiofilename>
										</logginginfo>
										<colorinfo>
											<lut></lut>
											<lut1></lut1>
											<asc_sop></asc_sop>
											<asc_sat></asc_sat>
											<lut2></lut2>
										</colorinfo>
										<labels>
											<label2>Violet</label2>
										</labels>
									</clipitem>
									<clipitem id="clipitem-856">
										<masterclipid>masterclip-238</masterclipid>
										<name>(MILKY TREATS)_Making a chocolate cake batter milkshake _ _ #icecream  #milkshake #icecreamshop_0RpIpO8Wp9M_YT.mp4</name>
										<enabled>TRUE</enabled>
										<duration>624</duration>
										<rate>
											<timebase>30</timebase>
											<ntsc>TRUE</ntsc>
										</rate>
										<start>28259</start>
										<end>28591</end>
										<in>274</in>
										<out>606</out>
										<pproTicksIn>2322332812800</pproTicksIn>
										<pproTicksOut>5136254323200</pproTicksOut>
										<alphatype>none</alphatype>
										<file id="file-204"/>
										<filter>
											<effect>
												<name>Basic Motion</name>
												<effectid>basic</effectid>
												<effectcategory>motion</effectcategory>
												<effecttype>motion</effecttype>
												<mediatype>video</mediatype>
												<pproBypass>false</pproBypass>
												<parameter authoringApp="PremierePro">
													<parameterid>scale</parameterid>
													<name>Scale</name>
													<valuemin>0</valuemin>
													<valuemax>1000</valuemax>
													<value>100</value>
												</parameter>
												<parameter authoringApp="PremierePro">
													<parameterid>rotation</parameterid>
													<name>Rotation</name>
													<valuemin>-8640</valuemin>
													<valuemax>8640</valuemax>
													<value>0</value>
												</parameter>
												<parameter authoringApp="PremierePro">
													<parameterid>center</parameterid>
													<name>Center</name>
													<value>
														<horiz>0.0194445</horiz>
														<vert>0</vert>
													</value>
												</parameter>
												<parameter authoringApp="PremierePro">
													<parameterid>centerOffset</parameterid>
													<name>Anchor Point</name>
													<value>
														<horiz>0</horiz>
														<vert>0</vert>
													</value>
												</parameter>
												<parameter authoringApp="PremierePro">
													<parameterid>antiflicker</parameterid>
													<name>Anti-flicker Filter</name>
													<valuemin>0.0</valuemin>
													<valuemax>1.0</valuemax>
													<value>0</value>
												</parameter>
											</effect>
										</filter>
										<logginginfo>
											<description></description>
											<scene></scene>
											<shottake></shottake>
											<lognote></lognote>
											<good></good>
											<originalvideofilename></originalvideofilename>
											<originalaudiofilename></originalaudiofilename>
										</logginginfo>
										<colorinfo>
											<lut></lut>
											<lut1></lut1>
											<asc_sop></asc_sop>
											<asc_sat></asc_sat>
											<lut2></lut2>
										</colorinfo>
										<labels>
											<label2>Violet</label2>
										</labels>
									</clipitem>
									<clipitem id="clipitem-857">
										<masterclipid>masterclip-239</masterclipid>
										<name>(goodeatzco)_B7jmiZClHPU - 3_IG.mp4</name>
										<enabled>TRUE</enabled>
										<duration>628</duration>
										<rate>
											<timebase>30</timebase>
											<ntsc>TRUE</ntsc>
										</rate>
										<start>28591</start>
										<end>29105</end>
										<in>0</in>
										<out>514</out>
										<pproTicksIn>0</pproTicksIn>
										<pproTicksOut>4356492940800</pproTicksOut>
										<alphatype>none</alphatype>
										<file id="file-205"/>
										<logginginfo>
											<description></description>
											<scene></scene>
											<shottake></shottake>
											<lognote></lognote>
											<good></good>
											<originalvideofilename></originalvideofilename>
											<originalaudiofilename></originalaudiofilename>
										</logginginfo>
										<colorinfo>
											<lut></lut>
											<lut1></lut1>
											<asc_sop></asc_sop>
											<asc_sat></asc_sat>
											<lut2></lut2>
										</colorinfo>
										<labels>
											<label2>Violet</label2>
										</labels>
									</clipitem>
									<clipitem id="clipitem-858">
										<masterclipid>masterclip-240</masterclipid>
										<name>(thecustardco)_7030596310671723822_TT.mp4</name>
										<enabled>TRUE</enabled>
										<duration>871</duration>
										<rate>
											<timebase>30</timebase>
											<ntsc>TRUE</ntsc>
										</rate>
										<start>29105</start>
										<end>29868</end>
										<in>0</in>
										<out>763</out>
										<pproTicksIn>0</pproTicksIn>
										<pproTicksOut>6466934073600</pproTicksOut>
										<alphatype>none</alphatype>
										<file id="file-206"/>
										<filter>
											<effect>
												<name>Basic Motion</name>
												<effectid>basic</effectid>
												<effectcategory>motion</effectcategory>
												<effecttype>motion</effecttype>
												<mediatype>video</mediatype>
												<pproBypass>false</pproBypass>
												<parameter authoringApp="PremierePro">
													<parameterid>scale</parameterid>
													<name>Scale</name>
													<valuemin>0</valuemin>
													<valuemax>1000</valuemax>
													<value>100</value>
												</parameter>
												<parameter authoringApp="PremierePro">
													<parameterid>rotation</parameterid>
													<name>Rotation</name>
													<valuemin>-8640</valuemin>
													<valuemax>8640</valuemax>
													<value>0</value>
												</parameter>
												<parameter authoringApp="PremierePro">
													<parameterid>center</parameterid>
													<name>Center</name>
													<value>
														<horiz>0.0243056</horiz>
														<vert>0</vert>
													</value>
												</parameter>
												<parameter authoringApp="PremierePro">
													<parameterid>centerOffset</parameterid>
													<name>Anchor Point</name>
													<value>
														<horiz>0</horiz>
														<vert>0</vert>
													</value>
												</parameter>
												<parameter authoringApp="PremierePro">
													<parameterid>antiflicker</parameterid>
													<name>Anti-flicker Filter</name>
													<valuemin>0.0</valuemin>
													<valuemax>1.0</valuemax>
													<value>0</value>
												</parameter>
											</effect>
										</filter>
										<logginginfo>
											<description></description>
											<scene></scene>
											<shottake></shottake>
											<lognote></lognote>
											<good></good>
											<originalvideofilename></originalvideofilename>
											<originalaudiofilename></originalaudiofilename>
										</logginginfo>
										<colorinfo>
											<lut></lut>
											<lut1></lut1>
											<asc_sop></asc_sop>
											<asc_sat></asc_sat>
											<lut2></lut2>
										</colorinfo>
										<labels>
											<label2>Violet</label2>
										</labels>
									</clipitem>
									<clipitem id="clipitem-859">
										<masterclipid>masterclip-241</masterclipid>
										<name>(Taste Travel Food)_Ice Cream Roll With McFlurry Oreo_8Chj5T1Hna4_YT.mp4</name>
										<enabled>TRUE</enabled>
										<duration>13947</duration>
										<rate>
											<timebase>30</timebase>
											<ntsc>TRUE</ntsc>
										</rate>
										<start>29868</start>
										<end>29942</end>
										<in>2490</in>
										<out>2564</out>
										<pproTicksIn>21104411328000</pproTicksIn>
										<pproTicksOut>21731610700800</pproTicksOut>
										<alphatype>none</alphatype>
										<file id="file-207"/>
										<logginginfo>
											<description>Ice Cream Roll With McFlurry Oreo</description>
											<scene></scene>
											<shottake></shottake>
											<lognote>https://www.youtube.com/watch?v=8Chj5T1Hna4</lognote>
											<good></good>
											<originalvideofilename></originalvideofilename>
											<originalaudiofilename></originalaudiofilename>
										</logginginfo>
										<colorinfo>
											<lut></lut>
											<lut1></lut1>
											<asc_sop></asc_sop>
											<asc_sat></asc_sat>
											<lut2></lut2>
										</colorinfo>
										<labels>
											<label2>Violet</label2>
										</labels>
									</clipitem>
									<clipitem id="clipitem-860">
										<masterclipid>masterclip-241</masterclipid>
										<name>(Taste Travel Food)_Ice Cream Roll With McFlurry Oreo_8Chj5T1Hna4_YT.mp4</name>
										<enabled>TRUE</enabled>
										<duration>13947</duration>
										<rate>
											<timebase>30</timebase>
											<ntsc>TRUE</ntsc>
										</rate>
										<start>29942</start>
										<end>30043</end>
										<in>2930</in>
										<out>3031</out>
										<pproTicksIn>24833704896000</pproTicksIn>
										<pproTicksOut>25689747283200</pproTicksOut>
										<alphatype>none</alphatype>
										<file id="file-207"/>
										<logginginfo>
											<description>Ice Cream Roll With McFlurry Oreo</description>
											<scene></scene>
											<shottake></shottake>
											<lognote>https://www.youtube.com/watch?v=8Chj5T1Hna4</lognote>
											<good></good>
											<originalvideofilename></originalvideofilename>
											<originalaudiofilename></originalaudiofilename>
										</logginginfo>
										<colorinfo>
											<lut></lut>
											<lut1></lut1>
											<asc_sop></asc_sop>
											<asc_sat></asc_sat>
											<lut2></lut2>
										</colorinfo>
										<labels>
											<label2>Violet</label2>
										</labels>
									</clipitem>
									<clipitem id="clipitem-861">
										<masterclipid>masterclip-241</masterclipid>
										<name>(Taste Travel Food)_Ice Cream Roll With McFlurry Oreo_8Chj5T1Hna4_YT.mp4</name>
										<enabled>TRUE</enabled>
										<duration>13947</duration>
										<rate>
											<timebase>30</timebase>
											<ntsc>TRUE</ntsc>
										</rate>
										<start>30043</start>
										<end>30102</end>
										<in>3640</in>
										<out>3699</out>
										<pproTicksIn>30851428608000</pproTicksIn>
										<pproTicksOut>31351492972800</pproTicksOut>
										<alphatype>none</alphatype>
										<file id="file-207"/>
										<logginginfo>
											<description>Ice Cream Roll With McFlurry Oreo</description>
											<scene></scene>
											<shottake></shottake>
											<lognote>https://www.youtube.com/watch?v=8Chj5T1Hna4</lognote>
											<good></good>
											<originalvideofilename></originalvideofilename>
											<originalaudiofilename></originalaudiofilename>
										</logginginfo>
										<colorinfo>
											<lut></lut>
											<lut1></lut1>
											<asc_sop></asc_sop>
											<asc_sat></asc_sat>
											<lut2></lut2>
										</colorinfo>
										<labels>
											<label2>Violet</label2>
										</labels>
									</clipitem>
									<clipitem id="clipitem-862">
										<masterclipid>masterclip-241</masterclipid>
										<name>(Taste Travel Food)_Ice Cream Roll With McFlurry Oreo_8Chj5T1Hna4_YT.mp4</name>
										<enabled>TRUE</enabled>
										<duration>13947</duration>
										<rate>
											<timebase>30</timebase>
											<ntsc>TRUE</ntsc>
										</rate>
										<start>30102</start>
										<end>30153</end>
										<in>3766</in>
										<out>3817</out>
										<pproTicksIn>31919362675200</pproTicksIn>
										<pproTicksOut>32351621702400</pproTicksOut>
										<alphatype>none</alphatype>
										<file id="file-207"/>
										<logginginfo>
											<description>Ice Cream Roll With McFlurry Oreo</description>
											<scene></scene>
											<shottake></shottake>
											<lognote>https://www.youtube.com/watch?v=8Chj5T1Hna4</lognote>
											<good></good>
											<originalvideofilename></originalvideofilename>
											<originalaudiofilename></originalaudiofilename>
										</logginginfo>
										<colorinfo>
											<lut></lut>
											<lut1></lut1>
											<asc_sop></asc_sop>
											<asc_sat></asc_sat>
											<lut2></lut2>
										</colorinfo>
										<labels>
											<label2>Violet</label2>
										</labels>
									</clipitem>
									<clipitem id="clipitem-863">
										<masterclipid>masterclip-241</masterclipid>
										<name>(Taste Travel Food)_Ice Cream Roll With McFlurry Oreo_8Chj5T1Hna4_YT.mp4</name>
										<enabled>TRUE</enabled>
										<duration>13947</duration>
										<rate>
											<timebase>30</timebase>
											<ntsc>TRUE</ntsc>
										</rate>
										<start>30153</start>
										<end>30282</end>
										<in>5907</in>
										<out>6036</out>
										<pproTicksIn>50065766150400</pproTicksIn>
										<pproTicksOut>51159127219200</pproTicksOut>
										<alphatype>none</alphatype>
										<file id="file-207"/>
										<logginginfo>
											<description>Ice Cream Roll With McFlurry Oreo</description>
											<scene></scene>
											<shottake></shottake>
											<lognote>https://www.youtube.com/watch?v=8Chj5T1Hna4</lognote>
											<good></good>
											<originalvideofilename></originalvideofilename>
											<originalaudiofilename></originalaudiofilename>
										</logginginfo>
										<colorinfo>
											<lut></lut>
											<lut1></lut1>
											<asc_sop></asc_sop>
											<asc_sat></asc_sat>
											<lut2></lut2>
										</colorinfo>
										<labels>
											<label2>Violet</label2>
										</labels>
									</clipitem>
									<clipitem id="clipitem-864">
										<masterclipid>masterclip-241</masterclipid>
										<name>(Taste Travel Food)_Ice Cream Roll With McFlurry Oreo_8Chj5T1Hna4_YT.mp4</name>
										<enabled>TRUE</enabled>
										<duration>5071</duration>
										<rate>
											<timebase>30</timebase>
											<ntsc>TRUE</ntsc>
										</rate>
										<start>30282</start>
										<end>30384</end>
										<in>2966</in>
										<out>3067</out>
										<pproTicksIn>69110590348800</pproTicksIn>
										<pproTicksOut>71488014998400</pproTicksOut>
										<alphatype>none</alphatype>
										<file id="file-207"/>
										<filter>
											<effect>
												<name>Time Remap</name>
												<effectid>timeremap</effectid>
												<effectcategory>motion</effectcategory>
												<effecttype>motion</effecttype>
												<mediatype>video</mediatype>
												<parameter authoringApp="PremierePro">
													<parameterid>variablespeed</parameterid>
													<name>variablespeed</name>
													<valuemin>0</valuemin>
													<valuemax>1</valuemax>
													<value>0</value>
												</parameter>
												<parameter authoringApp="PremierePro">
													<parameterid>speed</parameterid>
													<name>speed</name>
													<valuemin>-100000</valuemin>
													<valuemax>100000</valuemax>
													<value>275</value>
												</parameter>
												<parameter authoringApp="PremierePro">
													<parameterid>reverse</parameterid>
													<name>reverse</name>
													<value>FALSE</value>
												</parameter>
												<parameter authoringApp="PremierePro">
													<parameterid>frameblending</parameterid>
													<name>frameblending</name>
													<value>FALSE</value>
												</parameter>
												<parameter authoringApp="PremierePro">
													<parameterid>graphdict</parameterid>
													<name>graphdict</name>
													<valuemin>0</valuemin>
													<valuemax>13945</valuemax>
													<value>0</value>
													<keyframe>
														<when>0</when>
														<value>0</value>
														<speedvirtualkf>TRUE</speedvirtualkf>
														<speedkfstart>TRUE</speedkfstart>
													</keyframe>
													<keyframe>
														<when>2966</when>
														<value>8156</value>
														<speedvirtualkf>TRUE</speedvirtualkf>
														<speedkfin>TRUE</speedkfin>
													</keyframe>
													<keyframe>
														<when>3067</when>
														<value>8434</value>
														<speedvirtualkf>TRUE</speedvirtualkf>
														<speedkfout>TRUE</speedkfout>
													</keyframe>
													<keyframe>
														<when>5071</when>
														<value>13945</value>
														<speedvirtualkf>TRUE</speedvirtualkf>
														<speedkfend>TRUE</speedkfend>
													</keyframe>
													<interpolation>
														<name>FCPCurve</name>
													</interpolation>
												</parameter>
											</effect>
										</filter>
										<logginginfo>
											<description>Ice Cream Roll With McFlurry Oreo</description>
											<scene></scene>
											<shottake></shottake>
											<lognote>https://www.youtube.com/watch?v=8Chj5T1Hna4</lognote>
											<good></good>
											<originalvideofilename></originalvideofilename>
											<originalaudiofilename></originalaudiofilename>
										</logginginfo>
										<colorinfo>
											<lut></lut>
											<lut1></lut1>
											<asc_sop></asc_sop>
											<asc_sat></asc_sat>
											<lut2></lut2>
										</colorinfo>
										<labels>
											<label2>Violet</label2>
										</labels>
									</clipitem>
									<clipitem id="clipitem-865">
										<masterclipid>masterclip-241</masterclipid>
										<name>(Taste Travel Food)_Ice Cream Roll With McFlurry Oreo_8Chj5T1Hna4_YT.mp4</name>
										<enabled>TRUE</enabled>
										<duration>5071</duration>
										<rate>
											<timebase>30</timebase>
											<ntsc>TRUE</ntsc>
										</rate>
										<start>30384</start>
										<end>30452</end>
										<in>3096</in>
										<out>3164</out>
										<pproTicksIn>72161830540800</pproTicksIn>
										<pproTicksOut>73746780307200</pproTicksOut>
										<alphatype>none</alphatype>
										<file id="file-207"/>
										<filter>
											<effect>
												<name>Time Remap</name>
												<effectid>timeremap</effectid>
												<effectcategory>motion</effectcategory>
												<effecttype>motion</effecttype>
												<mediatype>video</mediatype>
												<parameter authoringApp="PremierePro">
													<parameterid>variablespeed</parameterid>
													<name>variablespeed</name>
													<valuemin>0</valuemin>
													<valuemax>1</valuemax>
													<value>0</value>
												</parameter>
												<parameter authoringApp="PremierePro">
													<parameterid>speed</parameterid>
													<name>speed</name>
													<valuemin>-100000</valuemin>
													<valuemax>100000</valuemax>
													<value>275</value>
												</parameter>
												<parameter authoringApp="PremierePro">
													<parameterid>reverse</parameterid>
													<name>reverse</name>
													<value>FALSE</value>
												</parameter>
												<parameter authoringApp="PremierePro">
													<parameterid>frameblending</parameterid>
													<name>frameblending</name>
													<value>FALSE</value>
												</parameter>
												<parameter authoringApp="PremierePro">
													<parameterid>graphdict</parameterid>
													<name>graphdict</name>
													<valuemin>0</valuemin>
													<valuemax>13945</valuemax>
													<value>0</value>
													<keyframe>
														<when>0</when>
														<value>0</value>
														<speedvirtualkf>TRUE</speedvirtualkf>
														<speedkfstart>TRUE</speedkfstart>
													</keyframe>
													<keyframe>
														<when>3096</when>
														<value>8514</value>
														<speedvirtualkf>TRUE</speedvirtualkf>
														<speedkfin>TRUE</speedkfin>
													</keyframe>
													<keyframe>
														<when>3164</when>
														<value>8701</value>
														<speedvirtualkf>TRUE</speedvirtualkf>
														<speedkfout>TRUE</speedkfout>
													</keyframe>
													<keyframe>
														<when>5071</when>
														<value>13945</value>
														<speedvirtualkf>TRUE</speedvirtualkf>
														<speedkfend>TRUE</speedkfend>
													</keyframe>
													<interpolation>
														<name>FCPCurve</name>
													</interpolation>
												</parameter>
											</effect>
										</filter>
										<logginginfo>
											<description>Ice Cream Roll With McFlurry Oreo</description>
											<scene></scene>
											<shottake></shottake>
											<lognote>https://www.youtube.com/watch?v=8Chj5T1Hna4</lognote>
											<good></good>
											<originalvideofilename></originalvideofilename>
											<originalaudiofilename></originalaudiofilename>
										</logginginfo>
										<colorinfo>
											<lut></lut>
											<lut1></lut1>
											<asc_sop></asc_sop>
											<asc_sat></asc_sat>
											<lut2></lut2>
										</colorinfo>
										<labels>
											<label2>Violet</label2>
										</labels>
									</clipitem>
									<clipitem id="clipitem-866">
										<masterclipid>masterclip-241</masterclipid>
										<name>(Taste Travel Food)_Ice Cream Roll With McFlurry Oreo_8Chj5T1Hna4_YT.mp4</name>
										<enabled>TRUE</enabled>
										<duration>5071</duration>
										<rate>
											<timebase>30</timebase>
											<ntsc>TRUE</ntsc>
										</rate>
										<start>30452</start>
										<end>30516</end>
										<in>3258</in>
										<out>3321</out>
										<pproTicksIn>75933502444800</pproTicksIn>
										<pproTicksOut>77425219872000</pproTicksOut>
										<alphatype>none</alphatype>
										<file id="file-207"/>
										<filter>
											<effect>
												<name>Time Remap</name>
												<effectid>timeremap</effectid>
												<effectcategory>motion</effectcategory>
												<effecttype>motion</effecttype>
												<mediatype>video</mediatype>
												<parameter authoringApp="PremierePro">
													<parameterid>variablespeed</parameterid>
													<name>variablespeed</name>
													<valuemin>0</valuemin>
													<valuemax>1</valuemax>
													<value>0</value>
												</parameter>
												<parameter authoringApp="PremierePro">
													<parameterid>speed</parameterid>
													<name>speed</name>
													<valuemin>-100000</valuemin>
													<valuemax>100000</valuemax>
													<value>275</value>
												</parameter>
												<parameter authoringApp="PremierePro">
													<parameterid>reverse</parameterid>
													<name>reverse</name>
													<value>FALSE</value>
												</parameter>
												<parameter authoringApp="PremierePro">
													<parameterid>frameblending</parameterid>
													<name>frameblending</name>
													<value>FALSE</value>
												</parameter>
												<parameter authoringApp="PremierePro">
													<parameterid>graphdict</parameterid>
													<name>graphdict</name>
													<valuemin>0</valuemin>
													<valuemax>13945</valuemax>
													<value>0</value>
													<keyframe>
														<when>0</when>
														<value>0</value>
														<speedvirtualkf>TRUE</speedvirtualkf>
														<speedkfstart>TRUE</speedkfstart>
													</keyframe>
													<keyframe>
														<when>3258</when>
														<value>8959</value>
														<speedvirtualkf>TRUE</speedvirtualkf>
														<speedkfin>TRUE</speedkfin>
													</keyframe>
													<keyframe>
														<when>3321</when>
														<value>9132</value>
														<speedvirtualkf>TRUE</speedvirtualkf>
														<speedkfout>TRUE</speedkfout>
													</keyframe>
													<keyframe>
														<when>5071</when>
														<value>13945</value>
														<speedvirtualkf>TRUE</speedvirtualkf>
														<speedkfend>TRUE</speedkfend>
													</keyframe>
													<interpolation>
														<name>FCPCurve</name>
													</interpolation>
												</parameter>
											</effect>
										</filter>
										<logginginfo>
											<description>Ice Cream Roll With McFlurry Oreo</description>
											<scene></scene>
											<shottake></shottake>
											<lognote>https://www.youtube.com/watch?v=8Chj5T1Hna4</lognote>
											<good></good>
											<originalvideofilename></originalvideofilename>
											<originalaudiofilename></originalaudiofilename>
										</logginginfo>
										<colorinfo>
											<lut></lut>
											<lut1></lut1>
											<asc_sop></asc_sop>
											<asc_sat></asc_sat>
											<lut2></lut2>
										</colorinfo>
										<labels>
											<label2>Violet</label2>
										</labels>
									</clipitem>
									<clipitem id="clipitem-867">
										<masterclipid>masterclip-241</masterclipid>
										<name>(Taste Travel Food)_Ice Cream Roll With McFlurry Oreo_8Chj5T1Hna4_YT.mp4</name>
										<enabled>TRUE</enabled>
										<duration>5071</duration>
										<rate>
											<timebase>30</timebase>
											<ntsc>TRUE</ntsc>
										</rate>
										<start>30516</start>
										<end>30587</end>
										<in>3459</in>
										<out>3529</out>
										<pproTicksIn>80620546406400</pproTicksIn>
										<pproTicksOut>82275420427200</pproTicksOut>
										<alphatype>none</alphatype>
										<file id="file-207"/>
										<filter>
											<effect>
												<name>Time Remap</name>
												<effectid>timeremap</effectid>
												<effectcategory>motion</effectcategory>
												<effecttype>motion</effecttype>
												<mediatype>video</mediatype>
												<parameter authoringApp="PremierePro">
													<parameterid>variablespeed</parameterid>
													<name>variablespeed</name>
													<valuemin>0</valuemin>
													<valuemax>1</valuemax>
													<value>0</value>
												</parameter>
												<parameter authoringApp="PremierePro">
													<parameterid>speed</parameterid>
													<name>speed</name>
													<valuemin>-100000</valuemin>
													<valuemax>100000</valuemax>
													<value>275</value>
												</parameter>
												<parameter authoringApp="PremierePro">
													<parameterid>reverse</parameterid>
													<name>reverse</name>
													<value>FALSE</value>
												</parameter>
												<parameter authoringApp="PremierePro">
													<parameterid>frameblending</parameterid>
													<name>frameblending</name>
													<value>FALSE</value>
												</parameter>
												<parameter authoringApp="PremierePro">
													<parameterid>graphdict</parameterid>
													<name>graphdict</name>
													<valuemin>0</valuemin>
													<valuemax>13945</valuemax>
													<value>0</value>
													<keyframe>
														<when>0</when>
														<value>0</value>
														<speedvirtualkf>TRUE</speedvirtualkf>
														<speedkfstart>TRUE</speedkfstart>
													</keyframe>
													<keyframe>
														<when>3459</when>
														<value>9512</value>
														<speedvirtualkf>TRUE</speedvirtualkf>
														<speedkfin>TRUE</speedkfin>
													</keyframe>
													<keyframe>
														<when>3529</when>
														<value>9704</value>
														<speedvirtualkf>TRUE</speedvirtualkf>
														<speedkfout>TRUE</speedkfout>
													</keyframe>
													<keyframe>
														<when>5071</when>
														<value>13945</value>
														<speedvirtualkf>TRUE</speedvirtualkf>
														<speedkfend>TRUE</speedkfend>
													</keyframe>
													<interpolation>
														<name>FCPCurve</name>
													</interpolation>
												</parameter>
											</effect>
										</filter>
										<logginginfo>
											<description>Ice Cream Roll With McFlurry Oreo</description>
											<scene></scene>
											<shottake></shottake>
											<lognote>https://www.youtube.com/watch?v=8Chj5T1Hna4</lognote>
											<good></good>
											<originalvideofilename></originalvideofilename>
											<originalaudiofilename></originalaudiofilename>
										</logginginfo>
										<colorinfo>
											<lut></lut>
											<lut1></lut1>
											<asc_sop></asc_sop>
											<asc_sat></asc_sat>
											<lut2></lut2>
										</colorinfo>
										<labels>
											<label2>Violet</label2>
										</labels>
									</clipitem>
									<clipitem id="clipitem-868">
										<masterclipid>masterclip-246</masterclipid>
										<name>23728_Coffee grinds fall into portafilter _By_Omri_Ohana_Artlist_HD.mp4</name>
										<enabled>TRUE</enabled>
										<duration>242</duration>
										<rate>
											<timebase>30</timebase>
											<ntsc>TRUE</ntsc>
										</rate>
										<start>30587</start>
										<end>30738</end>
										<in>0</in>
										<out>151</out>
										<pproTicksIn>0</pproTicksIn>
										<pproTicksOut>1279825747200</pproTicksOut>
										<alphatype>none</alphatype>
										<file id="file-211"/>
										<filter>
											<effect>
												<name>Distort</name>
												<effectid>deformation</effectid>
												<effectcategory>motion</effectcategory>
												<effecttype>motion</effecttype>
												<mediatype>video</mediatype>
												<parameter authoringApp="PremierePro">
													<parameterid>aspect</parameterid>
													<name>Aspect</name>
													<valuemin>-10000</valuemin>
													<valuemax>10000</valuemax>
													<value>-21.2121</value>
												</parameter>
											</effect>
										</filter>
										<filter>
											<effect>
												<name>Basic Motion</name>
												<effectid>basic</effectid>
												<effectcategory>motion</effectcategory>
												<effecttype>motion</effecttype>
												<mediatype>video</mediatype>
												<parameter authoringApp="PremierePro">
													<parameterid>scale</parameterid>
													<name>Scale</name>
													<value>121.212</value>
												</parameter>
											</effect>
										</filter>
										<logginginfo>
											<description></description>
											<scene></scene>
											<shottake></shottake>
											<lognote></lognote>
											<good></good>
											<originalvideofilename></originalvideofilename>
											<originalaudiofilename></originalaudiofilename>
										</logginginfo>
										<colorinfo>
											<lut></lut>
											<lut1></lut1>
											<asc_sop></asc_sop>
											<asc_sat></asc_sat>
											<lut2></lut2>
										</colorinfo>
										<labels>
											<label2>Violet</label2>
										</labels>
									</clipitem>
									<clipitem id="clipitem-869">
										<masterclipid>masterclip-247</masterclipid>
										<name>23730_Coffee grounds fall into portafilter _By_Omri_Ohana_Artlist_HD.mp4</name>
										<enabled>TRUE</enabled>
										<duration>336</duration>
										<rate>
											<timebase>30</timebase>
											<ntsc>TRUE</ntsc>
										</rate>
										<start>30738</start>
										<end>30919</end>
										<in>155</in>
										<out>336</out>
										<pproTicksIn>1313728416000</pproTicksIn>
										<pproTicksOut>2847824179200</pproTicksOut>
										<alphatype>none</alphatype>
										<file id="file-212"/>
										<filter>
											<effect>
												<name>Distort</name>
												<effectid>deformation</effectid>
												<effectcategory>motion</effectcategory>
												<effecttype>motion</effecttype>
												<mediatype>video</mediatype>
												<parameter authoringApp="PremierePro">
													<parameterid>aspect</parameterid>
													<name>Aspect</name>
													<valuemin>-10000</valuemin>
													<valuemax>10000</valuemax>
													<value>-21.2121</value>
												</parameter>
											</effect>
										</filter>
										<filter>
											<effect>
												<name>Basic Motion</name>
												<effectid>basic</effectid>
												<effectcategory>motion</effectcategory>
												<effecttype>motion</effecttype>
												<mediatype>video</mediatype>
												<parameter authoringApp="PremierePro">
													<parameterid>scale</parameterid>
													<name>Scale</name>
													<value>121.212</value>
												</parameter>
											</effect>
										</filter>
										<logginginfo>
											<description></description>
											<scene></scene>
											<shottake></shottake>
											<lognote></lognote>
											<good></good>
											<originalvideofilename></originalvideofilename>
											<originalaudiofilename></originalaudiofilename>
										</logginginfo>
										<colorinfo>
											<lut></lut>
											<lut1></lut1>
											<asc_sop></asc_sop>
											<asc_sat></asc_sat>
											<lut2></lut2>
										</colorinfo>
										<labels>
											<label2>Violet</label2>
										</labels>
									</clipitem>
									<clipitem id="clipitem-870">
										<masterclipid>masterclip-248</masterclipid>
										<name>23761_Barista compresses coffee grounds with tamper_By_Omri_Ohana_Artlist_HD.mp4</name>
										<enabled>TRUE</enabled>
										<duration>286</duration>
										<rate>
											<timebase>30</timebase>
											<ntsc>TRUE</ntsc>
										</rate>
										<start>30919</start>
										<end>31141</end>
										<in>0</in>
										<out>222</out>
										<pproTicksIn>0</pproTicksIn>
										<pproTicksOut>1881598118400</pproTicksOut>
										<alphatype>none</alphatype>
										<file id="file-213"/>
										<filter>
											<effect>
												<name>Distort</name>
												<effectid>deformation</effectid>
												<effectcategory>motion</effectcategory>
												<effecttype>motion</effecttype>
												<mediatype>video</mediatype>
												<parameter authoringApp="PremierePro">
													<parameterid>aspect</parameterid>
													<name>Aspect</name>
													<valuemin>-10000</valuemin>
													<valuemax>10000</valuemax>
													<value>-21.2121</value>
												</parameter>
											</effect>
										</filter>
										<filter>
											<effect>
												<name>Basic Motion</name>
												<effectid>basic</effectid>
												<effectcategory>motion</effectcategory>
												<effecttype>motion</effecttype>
												<mediatype>video</mediatype>
												<parameter authoringApp="PremierePro">
													<parameterid>scale</parameterid>
													<name>Scale</name>
													<value>121.212</value>
												</parameter>
											</effect>
										</filter>
										<logginginfo>
											<description></description>
											<scene></scene>
											<shottake></shottake>
											<lognote></lognote>
											<good></good>
											<originalvideofilename></originalvideofilename>
											<originalaudiofilename></originalaudiofilename>
										</logginginfo>
										<colorinfo>
											<lut></lut>
											<lut1></lut1>
											<asc_sop></asc_sop>
											<asc_sat></asc_sat>
											<lut2></lut2>
										</colorinfo>
										<labels>
											<label2>Violet</label2>
										</labels>
									</clipitem>
									<clipitem id="clipitem-871">
										<masterclipid>masterclip-249</masterclipid>
										<name>23734_Brewed coffee pours out of espresso machine _By_Omri_Ohana_Artlist_HD.mp4</name>
										<enabled>TRUE</enabled>
										<duration>250</duration>
										<rate>
											<timebase>30</timebase>
											<ntsc>TRUE</ntsc>
										</rate>
										<start>31141</start>
										<end>31322</end>
										<in>19</in>
										<out>200</out>
										<pproTicksIn>161037676800</pproTicksIn>
										<pproTicksOut>1695133440000</pproTicksOut>
										<alphatype>none</alphatype>
										<file id="file-214"/>
										<filter>
											<effect>
												<name>Distort</name>
												<effectid>deformation</effectid>
												<effectcategory>motion</effectcategory>
												<effecttype>motion</effecttype>
												<mediatype>video</mediatype>
												<parameter authoringApp="PremierePro">
													<parameterid>aspect</parameterid>
													<name>Aspect</name>
													<valuemin>-10000</valuemin>
													<valuemax>10000</valuemax>
													<value>-21.2121</value>
												</parameter>
											</effect>
										</filter>
										<filter>
											<effect>
												<name>Basic Motion</name>
												<effectid>basic</effectid>
												<effectcategory>motion</effectcategory>
												<effecttype>motion</effecttype>
												<mediatype>video</mediatype>
												<parameter authoringApp="PremierePro">
													<parameterid>scale</parameterid>
													<name>Scale</name>
													<value>121.212</value>
												</parameter>
											</effect>
										</filter>
										<logginginfo>
											<description></description>
											<scene></scene>
											<shottake></shottake>
											<lognote></lognote>
											<good></good>
											<originalvideofilename></originalvideofilename>
											<originalaudiofilename></originalaudiofilename>
										</logginginfo>
										<colorinfo>
											<lut></lut>
											<lut1></lut1>
											<asc_sop></asc_sop>
											<asc_sat></asc_sat>
											<lut2></lut2>
										</colorinfo>
										<labels>
											<label2>Violet</label2>
										</labels>
									</clipitem>
									<clipitem id="clipitem-872">
										<masterclipid>masterclip-250</masterclipid>
										<name>23724_Coffee pours out of espresso machine spout _By_Omri_Ohana_Artlist_HD.mp4</name>
										<enabled>TRUE</enabled>
										<duration>262</duration>
										<rate>
											<timebase>30</timebase>
											<ntsc>TRUE</ntsc>
										</rate>
										<start>31322</start>
										<end>31461</end>
										<in>0</in>
										<out>139</out>
										<pproTicksIn>0</pproTicksIn>
										<pproTicksOut>1178117740800</pproTicksOut>
										<alphatype>none</alphatype>
										<file id="file-215"/>
										<filter>
											<effect>
												<name>Distort</name>
												<effectid>deformation</effectid>
												<effectcategory>motion</effectcategory>
												<effecttype>motion</effecttype>
												<mediatype>video</mediatype>
												<parameter authoringApp="PremierePro">
													<parameterid>aspect</parameterid>
													<name>Aspect</name>
													<valuemin>-10000</valuemin>
													<valuemax>10000</valuemax>
													<value>-21.2121</value>
												</parameter>
											</effect>
										</filter>
										<filter>
											<effect>
												<name>Basic Motion</name>
												<effectid>basic</effectid>
												<effectcategory>motion</effectcategory>
												<effecttype>motion</effecttype>
												<mediatype>video</mediatype>
												<parameter authoringApp="PremierePro">
													<parameterid>scale</parameterid>
													<name>Scale</name>
													<value>121.212</value>
												</parameter>
											</effect>
										</filter>
										<logginginfo>
											<description></description>
											<scene></scene>
											<shottake></shottake>
											<lognote></lognote>
											<good></good>
											<originalvideofilename></originalvideofilename>
											<originalaudiofilename></originalaudiofilename>
										</logginginfo>
										<colorinfo>
											<lut></lut>
											<lut1></lut1>
											<asc_sop></asc_sop>
											<asc_sat></asc_sat>
											<lut2></lut2>
										</colorinfo>
										<labels>
											<label2>Violet</label2>
										</labels>
									</clipitem>
									<clipitem id="clipitem-873">
										<masterclipid>masterclip-251</masterclipid>
										<name>23739_Milk steamed in jug _By_Omri_Ohana_Artlist_HD.mp4</name>
										<enabled>TRUE</enabled>
										<duration>166</duration>
										<rate>
											<timebase>30</timebase>
											<ntsc>TRUE</ntsc>
										</rate>
										<start>31461</start>
										<end>31618</end>
										<in>0</in>
										<out>157</out>
										<pproTicksIn>0</pproTicksIn>
										<pproTicksOut>1330679750400</pproTicksOut>
										<alphatype>none</alphatype>
										<file id="file-216"/>
										<filter>
											<effect>
												<name>Distort</name>
												<effectid>deformation</effectid>
												<effectcategory>motion</effectcategory>
												<effecttype>motion</effecttype>
												<mediatype>video</mediatype>
												<parameter authoringApp="PremierePro">
													<parameterid>aspect</parameterid>
													<name>Aspect</name>
													<valuemin>-10000</valuemin>
													<valuemax>10000</valuemax>
													<value>-21.2121</value>
												</parameter>
											</effect>
										</filter>
										<filter>
											<effect>
												<name>Basic Motion</name>
												<effectid>basic</effectid>
												<effectcategory>motion</effectcategory>
												<effecttype>motion</effecttype>
												<mediatype>video</mediatype>
												<parameter authoringApp="PremierePro">
													<parameterid>scale</parameterid>
													<name>Scale</name>
													<value>121.212</value>
												</parameter>
											</effect>
										</filter>
										<logginginfo>
											<description></description>
											<scene></scene>
											<shottake></shottake>
											<lognote></lognote>
											<good></good>
											<originalvideofilename></originalvideofilename>
											<originalaudiofilename></originalaudiofilename>
										</logginginfo>
										<colorinfo>
											<lut></lut>
											<lut1></lut1>
											<asc_sop></asc_sop>
											<asc_sat></asc_sat>
											<lut2></lut2>
										</colorinfo>
										<labels>
											<label2>Violet</label2>
										</labels>
									</clipitem>
									<clipitem id="clipitem-874">
										<masterclipid>masterclip-252</masterclipid>
										<name>23752_Barista heats up milk in jug with steamer _By_Omri_Ohana_Artlist_HD.mp4</name>
										<enabled>TRUE</enabled>
										<duration>171</duration>
										<rate>
											<timebase>30</timebase>
											<ntsc>TRUE</ntsc>
										</rate>
										<start>31618</start>
										<end>31751</end>
										<in>0</in>
										<out>133</out>
										<pproTicksIn>0</pproTicksIn>
										<pproTicksOut>1127263737600</pproTicksOut>
										<alphatype>none</alphatype>
										<file id="file-217"/>
										<filter>
											<effect>
												<name>Distort</name>
												<effectid>deformation</effectid>
												<effectcategory>motion</effectcategory>
												<effecttype>motion</effecttype>
												<mediatype>video</mediatype>
												<parameter authoringApp="PremierePro">
													<parameterid>aspect</parameterid>
													<name>Aspect</name>
													<valuemin>-10000</valuemin>
													<valuemax>10000</valuemax>
													<value>-21.2121</value>
												</parameter>
											</effect>
										</filter>
										<filter>
											<effect>
												<name>Basic Motion</name>
												<effectid>basic</effectid>
												<effectcategory>motion</effectcategory>
												<effecttype>motion</effecttype>
												<mediatype>video</mediatype>
												<parameter authoringApp="PremierePro">
													<parameterid>scale</parameterid>
													<name>Scale</name>
													<value>121.212</value>
												</parameter>
											</effect>
										</filter>
										<logginginfo>
											<description></description>
											<scene></scene>
											<shottake></shottake>
											<lognote></lognote>
											<good></good>
											<originalvideofilename></originalvideofilename>
											<originalaudiofilename></originalaudiofilename>
										</logginginfo>
										<colorinfo>
											<lut></lut>
											<lut1></lut1>
											<asc_sop></asc_sop>
											<asc_sat></asc_sat>
											<lut2></lut2>
										</colorinfo>
										<labels>
											<label2>Violet</label2>
										</labels>
									</clipitem>
									<clipitem id="clipitem-875">
										<masterclipid>masterclip-253</masterclipid>
										<name>23740_Barista swirls hot milk in jug _By_Omri_Ohana_Artlist_HD.mp4</name>
										<enabled>TRUE</enabled>
										<duration>261</duration>
										<rate>
											<timebase>30</timebase>
											<ntsc>TRUE</ntsc>
										</rate>
										<start>31751</start>
										<end>31958</end>
										<in>0</in>
										<out>207</out>
										<pproTicksIn>0</pproTicksIn>
										<pproTicksOut>1754463110400</pproTicksOut>
										<alphatype>none</alphatype>
										<file id="file-218"/>
										<filter>
											<effect>
												<name>Distort</name>
												<effectid>deformation</effectid>
												<effectcategory>motion</effectcategory>
												<effecttype>motion</effecttype>
												<mediatype>video</mediatype>
												<parameter authoringApp="PremierePro">
													<parameterid>aspect</parameterid>
													<name>Aspect</name>
													<valuemin>-10000</valuemin>
													<valuemax>10000</valuemax>
													<value>-21.2121</value>
												</parameter>
											</effect>
										</filter>
										<filter>
											<effect>
												<name>Basic Motion</name>
												<effectid>basic</effectid>
												<effectcategory>motion</effectcategory>
												<effecttype>motion</effecttype>
												<mediatype>video</mediatype>
												<parameter authoringApp="PremierePro">
													<parameterid>scale</parameterid>
													<name>Scale</name>
													<value>121.212</value>
												</parameter>
											</effect>
										</filter>
										<logginginfo>
											<description></description>
											<scene></scene>
											<shottake></shottake>
											<lognote></lognote>
											<good></good>
											<originalvideofilename></originalvideofilename>
											<originalaudiofilename></originalaudiofilename>
										</logginginfo>
										<colorinfo>
											<lut></lut>
											<lut1></lut1>
											<asc_sop></asc_sop>
											<asc_sat></asc_sat>
											<lut2></lut2>
										</colorinfo>
										<labels>
											<label2>Violet</label2>
										</labels>
									</clipitem>
									<clipitem id="clipitem-876">
										<masterclipid>masterclip-254</masterclipid>
										<name>23742_Coffee swirls in white mug_By_Omri_Ohana_Artlist_HD.mp4</name>
										<enabled>TRUE</enabled>
										<duration>238</duration>
										<rate>
											<timebase>30</timebase>
											<ntsc>TRUE</ntsc>
										</rate>
										<start>31958</start>
										<end>32131</end>
										<in>0</in>
										<out>173</out>
										<pproTicksIn>0</pproTicksIn>
										<pproTicksOut>1466290425600</pproTicksOut>
										<alphatype>none</alphatype>
										<file id="file-219"/>
										<filter>
											<effect>
												<name>Distort</name>
												<effectid>deformation</effectid>
												<effectcategory>motion</effectcategory>
												<effecttype>motion</effecttype>
												<mediatype>video</mediatype>
												<parameter authoringApp="PremierePro">
													<parameterid>aspect</parameterid>
													<name>Aspect</name>
													<valuemin>-10000</valuemin>
													<valuemax>10000</valuemax>
													<value>-21.2121</value>
												</parameter>
											</effect>
										</filter>
										<filter>
											<effect>
												<name>Basic Motion</name>
												<effectid>basic</effectid>
												<effectcategory>motion</effectcategory>
												<effecttype>motion</effecttype>
												<mediatype>video</mediatype>
												<parameter authoringApp="PremierePro">
													<parameterid>scale</parameterid>
													<name>Scale</name>
													<value>121.212</value>
												</parameter>
											</effect>
										</filter>
										<logginginfo>
											<description></description>
											<scene></scene>
											<shottake></shottake>
											<lognote></lognote>
											<good></good>
											<originalvideofilename></originalvideofilename>
											<originalaudiofilename></originalaudiofilename>
										</logginginfo>
										<colorinfo>
											<lut></lut>
											<lut1></lut1>
											<asc_sop></asc_sop>
											<asc_sat></asc_sat>
											<lut2></lut2>
										</colorinfo>
										<labels>
											<label2>Violet</label2>
										</labels>
									</clipitem>
									<clipitem id="clipitem-877">
										<masterclipid>masterclip-255</masterclipid>
										<name>23744_Milk poured into coffee _By_Omri_Ohana_Artlist_HD.mp4</name>
										<enabled>TRUE</enabled>
										<duration>300</duration>
										<rate>
											<timebase>30</timebase>
											<ntsc>TRUE</ntsc>
										</rate>
										<start>32131</start>
										<end>32314</end>
										<in>0</in>
										<out>183</out>
										<pproTicksIn>0</pproTicksIn>
										<pproTicksOut>1551047097600</pproTicksOut>
										<alphatype>none</alphatype>
										<file id="file-220"/>
										<filter>
											<effect>
												<name>Distort</name>
												<effectid>deformation</effectid>
												<effectcategory>motion</effectcategory>
												<effecttype>motion</effecttype>
												<mediatype>video</mediatype>
												<parameter authoringApp="PremierePro">
													<parameterid>aspect</parameterid>
													<name>Aspect</name>
													<valuemin>-10000</valuemin>
													<valuemax>10000</valuemax>
													<value>-21.2121</value>
												</parameter>
											</effect>
										</filter>
										<filter>
											<effect>
												<name>Basic Motion</name>
												<effectid>basic</effectid>
												<effectcategory>motion</effectcategory>
												<effecttype>motion</effecttype>
												<mediatype>video</mediatype>
												<parameter authoringApp="PremierePro">
													<parameterid>scale</parameterid>
													<name>Scale</name>
													<value>121.212</value>
												</parameter>
											</effect>
										</filter>
										<logginginfo>
											<description></description>
											<scene></scene>
											<shottake></shottake>
											<lognote></lognote>
											<good></good>
											<originalvideofilename></originalvideofilename>
											<originalaudiofilename></originalaudiofilename>
										</logginginfo>
										<colorinfo>
											<lut></lut>
											<lut1></lut1>
											<asc_sop></asc_sop>
											<asc_sat></asc_sat>
											<lut2></lut2>
										</colorinfo>
										<labels>
											<label2>Violet</label2>
										</labels>
									</clipitem>
									<clipitem id="clipitem-878">
										<masterclipid>masterclip-256</masterclipid>
										<name>23753_Hot milk poured into cup of coffee_By_Omri_Ohana_Artlist_HD.mp4</name>
										<enabled>TRUE</enabled>
										<duration>158</duration>
										<rate>
											<timebase>30</timebase>
											<ntsc>TRUE</ntsc>
										</rate>
										<start>32314</start>
										<end>32454</end>
										<in>0</in>
										<out>140</out>
										<pproTicksIn>0</pproTicksIn>
										<pproTicksOut>1186593408000</pproTicksOut>
										<alphatype>none</alphatype>
										<file id="file-221"/>
										<filter>
											<effect>
												<name>Distort</name>
												<effectid>deformation</effectid>
												<effectcategory>motion</effectcategory>
												<effecttype>motion</effecttype>
												<mediatype>video</mediatype>
												<parameter authoringApp="PremierePro">
													<parameterid>aspect</parameterid>
													<name>Aspect</name>
													<valuemin>-10000</valuemin>
													<valuemax>10000</valuemax>
													<value>-21.2121</value>
												</parameter>
											</effect>
										</filter>
										<filter>
											<effect>
												<name>Basic Motion</name>
												<effectid>basic</effectid>
												<effectcategory>motion</effectcategory>
												<effecttype>motion</effecttype>
												<mediatype>video</mediatype>
												<parameter authoringApp="PremierePro">
													<parameterid>scale</parameterid>
													<name>Scale</name>
													<value>121.212</value>
												</parameter>
											</effect>
										</filter>
										<logginginfo>
											<description></description>
											<scene></scene>
											<shottake></shottake>
											<lognote></lognote>
											<good></good>
											<originalvideofilename></originalvideofilename>
											<originalaudiofilename></originalaudiofilename>
										</logginginfo>
										<colorinfo>
											<lut></lut>
											<lut1></lut1>
											<asc_sop></asc_sop>
											<asc_sat></asc_sat>
											<lut2></lut2>
										</colorinfo>
										<labels>
											<label2>Violet</label2>
										</labels>
									</clipitem>
									<clipitem id="clipitem-879">
										<masterclipid>masterclip-257</masterclipid>
										<name>23747_Barista creates coffee art _By_Omri_Ohana_Artlist_HD.mp4</name>
										<enabled>TRUE</enabled>
										<duration>942</duration>
										<rate>
											<timebase>30</timebase>
											<ntsc>TRUE</ntsc>
										</rate>
										<start>32454</start>
										<end>32656</end>
										<in>58</in>
										<out>260</out>
										<pproTicksIn>491588697600</pproTicksIn>
										<pproTicksOut>2203673472000</pproTicksOut>
										<alphatype>none</alphatype>
										<file id="file-222"/>
										<filter>
											<effect>
												<name>Distort</name>
												<effectid>deformation</effectid>
												<effectcategory>motion</effectcategory>
												<effecttype>motion</effecttype>
												<mediatype>video</mediatype>
												<parameter authoringApp="PremierePro">
													<parameterid>aspect</parameterid>
													<name>Aspect</name>
													<valuemin>-10000</valuemin>
													<valuemax>10000</valuemax>
													<value>-21.2121</value>
												</parameter>
											</effect>
										</filter>
										<filter>
											<effect>
												<name>Basic Motion</name>
												<effectid>basic</effectid>
												<effectcategory>motion</effectcategory>
												<effecttype>motion</effecttype>
												<mediatype>video</mediatype>
												<parameter authoringApp="PremierePro">
													<parameterid>scale</parameterid>
													<name>Scale</name>
													<value>121.212</value>
												</parameter>
											</effect>
										</filter>
										<logginginfo>
											<description></description>
											<scene></scene>
											<shottake></shottake>
											<lognote></lognote>
											<good></good>
											<originalvideofilename></originalvideofilename>
											<originalaudiofilename></originalaudiofilename>
										</logginginfo>
										<colorinfo>
											<lut></lut>
											<lut1></lut1>
											<asc_sop></asc_sop>
											<asc_sat></asc_sat>
											<lut2></lut2>
										</colorinfo>
										<labels>
											<label2>Violet</label2>
										</labels>
									</clipitem>
									<clipitem id="clipitem-880">
										<masterclipid>masterclip-257</masterclipid>
										<name>23747_Barista creates coffee art _By_Omri_Ohana_Artlist_HD.mp4</name>
										<enabled>TRUE</enabled>
										<duration>942</duration>
										<rate>
											<timebase>30</timebase>
											<ntsc>TRUE</ntsc>
										</rate>
										<start>32656</start>
										<end>32837</end>
										<in>725</in>
										<out>906</out>
										<pproTicksIn>6144858720000</pproTicksIn>
										<pproTicksOut>7678954483200</pproTicksOut>
										<alphatype>none</alphatype>
										<file id="file-222"/>
										<filter>
											<effect>
												<name>Distort</name>
												<effectid>deformation</effectid>
												<effectcategory>motion</effectcategory>
												<effecttype>motion</effecttype>
												<mediatype>video</mediatype>
												<parameter authoringApp="PremierePro">
													<parameterid>aspect</parameterid>
													<name>Aspect</name>
													<valuemin>-10000</valuemin>
													<valuemax>10000</valuemax>
													<value>-21.2121</value>
												</parameter>
											</effect>
										</filter>
										<filter>
											<effect>
												<name>Basic Motion</name>
												<effectid>basic</effectid>
												<effectcategory>motion</effectcategory>
												<effecttype>motion</effecttype>
												<mediatype>video</mediatype>
												<parameter authoringApp="PremierePro">
													<parameterid>scale</parameterid>
													<name>Scale</name>
													<value>121.212</value>
												</parameter>
											</effect>
										</filter>
										<logginginfo>
											<description></description>
											<scene></scene>
											<shottake></shottake>
											<lognote></lognote>
											<good></good>
											<originalvideofilename></originalvideofilename>
											<originalaudiofilename></originalaudiofilename>
										</logginginfo>
										<colorinfo>
											<lut></lut>
											<lut1></lut1>
											<asc_sop></asc_sop>
											<asc_sat></asc_sat>
											<lut2></lut2>
										</colorinfo>
										<labels>
											<label2>Violet</label2>
										</labels>
									</clipitem>
									<clipitem id="clipitem-881">
										<masterclipid>masterclip-258</masterclipid>
										<name>23750_Cup of coffee on surface with scattered coffee beans _By_Omri_Ohana_Artlist_HD.mp4</name>
										<enabled>TRUE</enabled>
										<duration>146</duration>
										<rate>
											<timebase>30</timebase>
											<ntsc>TRUE</ntsc>
										</rate>
										<start>32837</start>
										<end>32983</end>
										<in>0</in>
										<out>146</out>
										<pproTicksIn>0</pproTicksIn>
										<pproTicksOut>1237447411200</pproTicksOut>
										<alphatype>none</alphatype>
										<file id="file-223"/>
										<filter>
											<effect>
												<name>Distort</name>
												<effectid>deformation</effectid>
												<effectcategory>motion</effectcategory>
												<effecttype>motion</effecttype>
												<mediatype>video</mediatype>
												<parameter authoringApp="PremierePro">
													<parameterid>aspect</parameterid>
													<name>Aspect</name>
													<valuemin>-10000</valuemin>
													<valuemax>10000</valuemax>
													<value>-21.2121</value>
												</parameter>
											</effect>
										</filter>
										<filter>
											<effect>
												<name>Basic Motion</name>
												<effectid>basic</effectid>
												<effectcategory>motion</effectcategory>
												<effecttype>motion</effecttype>
												<mediatype>video</mediatype>
												<parameter authoringApp="PremierePro">
													<parameterid>scale</parameterid>
													<name>Scale</name>
													<value>121.212</value>
												</parameter>
											</effect>
										</filter>
										<logginginfo>
											<description></description>
											<scene></scene>
											<shottake></shottake>
											<lognote></lognote>
											<good></good>
											<originalvideofilename></originalvideofilename>
											<originalaudiofilename></originalaudiofilename>
										</logginginfo>
										<colorinfo>
											<lut></lut>
											<lut1></lut1>
											<asc_sop></asc_sop>
											<asc_sat></asc_sat>
											<lut2></lut2>
										</colorinfo>
										<labels>
											<label2>Violet</label2>
										</labels>
									</clipitem>
									<clipitem id="clipitem-882">
										<masterclipid>masterclip-261</masterclipid>
										<name>(infoods_specials)_CMyWl1FH_Ak_IG.mp4</name>
										<enabled>TRUE</enabled>
										<duration>895</duration>
										<rate>
											<timebase>30</timebase>
											<ntsc>TRUE</ntsc>
										</rate>
										<start>32983</start>
										<end>33709</end>
										<in>97</in>
										<out>823</out>
										<pproTicksIn>822139718400</pproTicksIn>
										<pproTicksOut>6975474105600</pproTicksOut>
										<alphatype>none</alphatype>
										<file id="file-225"/>
										<logginginfo>
											<description>IG: infoods_specials&#10;TT: infoodsspecials&#10;YT: Infoods Specials</description>
											<scene></scene>
											<shottake></shottake>
											<lognote></lognote>
											<good></good>
											<originalvideofilename></originalvideofilename>
											<originalaudiofilename></originalaudiofilename>
										</logginginfo>
										<colorinfo>
											<lut></lut>
											<lut1></lut1>
											<asc_sop></asc_sop>
											<asc_sat></asc_sat>
											<lut2></lut2>
										</colorinfo>
										<labels>
											<label2>Violet</label2>
										</labels>
									</clipitem>
									<clipitem id="clipitem-883">
										<masterclipid>masterclip-261</masterclipid>
										<name>(infoods_specials)_CMyWl1FH_Ak_IG.mp4</name>
										<enabled>TRUE</enabled>
										<duration>895</duration>
										<rate>
											<timebase>30</timebase>
											<ntsc>TRUE</ntsc>
										</rate>
										<start>33709</start>
										<end>33799</end>
										<in>0</in>
										<out>90</out>
										<pproTicksIn>0</pproTicksIn>
										<pproTicksOut>762810048000</pproTicksOut>
										<alphatype>none</alphatype>
										<file id="file-225"/>
										<logginginfo>
											<description>IG: infoods_specials&#10;TT: infoodsspecials&#10;YT: Infoods Specials</description>
											<scene></scene>
											<shottake></shottake>
											<lognote></lognote>
											<good></good>
											<originalvideofilename></originalvideofilename>
											<originalaudiofilename></originalaudiofilename>
										</logginginfo>
										<colorinfo>
											<lut></lut>
											<lut1></lut1>
											<asc_sop></asc_sop>
											<asc_sat></asc_sat>
											<lut2></lut2>
										</colorinfo>
										<labels>
											<label2>Violet</label2>
										</labels>
									</clipitem>
									<clipitem id="clipitem-884">
										<masterclipid>masterclip-262</masterclipid>
										<name>(thethriftwitch)_7112203504516681002_TT.mp4</name>
										<enabled>TRUE</enabled>
										<duration>1140</duration>
										<rate>
											<timebase>30</timebase>
											<ntsc>TRUE</ntsc>
										</rate>
										<start>33799</start>
										<end>34029</end>
										<in>0</in>
										<out>230</out>
										<pproTicksIn>0</pproTicksIn>
										<pproTicksOut>1949403456000</pproTicksOut>
										<alphatype>none</alphatype>
										<file id="file-226"/>
										<logginginfo>
											<description></description>
											<scene></scene>
											<shottake></shottake>
											<lognote></lognote>
											<good></good>
											<originalvideofilename></originalvideofilename>
											<originalaudiofilename></originalaudiofilename>
										</logginginfo>
										<colorinfo>
											<lut></lut>
											<lut1></lut1>
											<asc_sop></asc_sop>
											<asc_sat></asc_sat>
											<lut2></lut2>
										</colorinfo>
										<labels>
											<label2>Violet</label2>
										</labels>
									</clipitem>
									<clipitem id="clipitem-885">
										<masterclipid>masterclip-262</masterclipid>
										<name>(thethriftwitch)_7112203504516681002_TT.mp4</name>
										<enabled>TRUE</enabled>
										<duration>1140</duration>
										<rate>
											<timebase>30</timebase>
											<ntsc>TRUE</ntsc>
										</rate>
										<start>34029</start>
										<end>34417</end>
										<in>401</in>
										<out>789</out>
										<pproTicksIn>3398742547200</pproTicksIn>
										<pproTicksOut>6687301420800</pproTicksOut>
										<alphatype>none</alphatype>
										<file id="file-226"/>
										<logginginfo>
											<description></description>
											<scene></scene>
											<shottake></shottake>
											<lognote></lognote>
											<good></good>
											<originalvideofilename></originalvideofilename>
											<originalaudiofilename></originalaudiofilename>
										</logginginfo>
										<colorinfo>
											<lut></lut>
											<lut1></lut1>
											<asc_sop></asc_sop>
											<asc_sat></asc_sat>
											<lut2></lut2>
										</colorinfo>
										<labels>
											<label2>Violet</label2>
										</labels>
									</clipitem>
									<clipitem id="clipitem-886">
										<masterclipid>masterclip-262</masterclipid>
										<name>(thethriftwitch)_7112203504516681002_TT.mp4</name>
										<enabled>TRUE</enabled>
										<duration>1140</duration>
										<rate>
											<timebase>30</timebase>
											<ntsc>TRUE</ntsc>
										</rate>
										<start>34417</start>
										<end>34580</end>
										<in>878</in>
										<out>1041</out>
										<pproTicksIn>7441635801600</pproTicksIn>
										<pproTicksOut>8823169555200</pproTicksOut>
										<alphatype>none</alphatype>
										<file id="file-226"/>
										<logginginfo>
											<description></description>
											<scene></scene>
											<shottake></shottake>
											<lognote></lognote>
											<good></good>
											<originalvideofilename></originalvideofilename>
											<originalaudiofilename></originalaudiofilename>
										</logginginfo>
										<colorinfo>
											<lut></lut>
											<lut1></lut1>
											<asc_sop></asc_sop>
											<asc_sat></asc_sat>
											<lut2></lut2>
										</colorinfo>
										<labels>
											<label2>Violet</label2>
										</labels>
									</clipitem>
									<clipitem id="clipitem-887">
										<masterclipid>masterclip-263</masterclipid>
										<name>(The Custard Company)__ CALLING ALL REESE_S LOVERS __5AjTjQcXAPo_YT.mp4</name>
										<enabled>TRUE</enabled>
										<duration>623</duration>
										<rate>
											<timebase>30</timebase>
											<ntsc>TRUE</ntsc>
										</rate>
										<start>34580</start>
										<end>35203</end>
										<in>0</in>
										<out>623</out>
										<pproTicksIn>0</pproTicksIn>
										<pproTicksOut>5280340665600</pproTicksOut>
										<alphatype>none</alphatype>
										<file id="file-227"/>
										<logginginfo>
											<description></description>
											<scene></scene>
											<shottake></shottake>
											<lognote></lognote>
											<good></good>
											<originalvideofilename></originalvideofilename>
											<originalaudiofilename></originalaudiofilename>
										</logginginfo>
										<colorinfo>
											<lut></lut>
											<lut1></lut1>
											<asc_sop></asc_sop>
											<asc_sat></asc_sat>
											<lut2></lut2>
										</colorinfo>
										<labels>
											<label2>Violet</label2>
										</labels>
									</clipitem>
									<clipitem id="clipitem-888">
										<masterclipid>masterclip-264</masterclipid>
										<name>(aquickspoonful)_CsFPuVTrA8x_IG.mp4</name>
										<enabled>TRUE</enabled>
										<duration>526</duration>
										<rate>
											<timebase>30</timebase>
											<ntsc>TRUE</ntsc>
										</rate>
										<start>35203</start>
										<end>35729</end>
										<in>0</in>
										<out>526</out>
										<pproTicksIn>0</pproTicksIn>
										<pproTicksOut>4458200947200</pproTicksOut>
										<alphatype>none</alphatype>
										<file id="file-228"/>
										<logginginfo>
											<description></description>
											<scene></scene>
											<shottake></shottake>
											<lognote></lognote>
											<good></good>
											<originalvideofilename></originalvideofilename>
											<originalaudiofilename></originalaudiofilename>
										</logginginfo>
										<colorinfo>
											<lut></lut>
											<lut1></lut1>
											<asc_sop></asc_sop>
											<asc_sat></asc_sat>
											<lut2></lut2>
										</colorinfo>
										<labels>
											<label2>Violet</label2>
										</labels>
									</clipitem>
									<clipitem id="clipitem-889">
										<masterclipid>masterclip-2</masterclipid>
										<name>(allthesugartx)_CeOdP_ol9uw_IG.mp4</name>
										<enabled>TRUE</enabled>
										<duration>382</duration>
										<rate>
											<timebase>30</timebase>
											<ntsc>TRUE</ntsc>
										</rate>
										<start>35729</start>
										<end>36111</end>
										<in>0</in>
										<out>382</out>
										<pproTicksIn>0</pproTicksIn>
										<pproTicksOut>3237704870400</pproTicksOut>
										<alphatype>none</alphatype>
										<file id="file-1"/>
										<logginginfo>
											<description></description>
											<scene></scene>
											<shottake></shottake>
											<lognote></lognote>
											<good></good>
											<originalvideofilename></originalvideofilename>
											<originalaudiofilename></originalaudiofilename>
										</logginginfo>
										<colorinfo>
											<lut></lut>
											<lut1></lut1>
											<asc_sop></asc_sop>
											<asc_sat></asc_sat>
											<lut2></lut2>
										</colorinfo>
										<labels>
											<label2>Violet</label2>
										</labels>
									</clipitem>
									<clipitem id="clipitem-890">
										<masterclipid>masterclip-3</masterclipid>
										<name>(allthesugartx)_CeRAqsfFOPT_IG.mp4</name>
										<enabled>TRUE</enabled>
										<duration>446</duration>
										<rate>
											<timebase>30</timebase>
											<ntsc>TRUE</ntsc>
										</rate>
										<start>36111</start>
										<end>36557</end>
										<in>0</in>
										<out>446</out>
										<pproTicksIn>0</pproTicksIn>
										<pproTicksOut>3780147571200</pproTicksOut>
										<alphatype>none</alphatype>
										<file id="file-2"/>
										<logginginfo>
											<description></description>
											<scene></scene>
											<shottake></shottake>
											<lognote></lognote>
											<good></good>
											<originalvideofilename></originalvideofilename>
											<originalaudiofilename></originalaudiofilename>
										</logginginfo>
										<colorinfo>
											<lut></lut>
											<lut1></lut1>
											<asc_sop></asc_sop>
											<asc_sat></asc_sat>
											<lut2></lut2>
										</colorinfo>
										<labels>
											<label2>Violet</label2>
										</labels>
									</clipitem>
									<clipitem id="clipitem-891">
										<masterclipid>masterclip-4</masterclipid>
										<name>(allthesugartx)_CbDjTWdFjh3_IG.mp4</name>
										<enabled>TRUE</enabled>
										<duration>462</duration>
										<rate>
											<timebase>30</timebase>
											<ntsc>TRUE</ntsc>
										</rate>
										<start>36557</start>
										<end>37020</end>
										<in>0</in>
										<out>462</out>
										<pproTicksIn>0</pproTicksIn>
										<pproTicksOut>5689958399998</pproTicksOut>
										<alphatype>none</alphatype>
										<file id="file-3"/>
										<filter>
											<effect>
												<name>Time Remap</name>
												<effectid>timeremap</effectid>
												<effectcategory>motion</effectcategory>
												<effecttype>motion</effecttype>
												<mediatype>video</mediatype>
												<parameter authoringApp="PremierePro">
													<parameterid>variablespeed</parameterid>
													<name>variablespeed</name>
													<valuemin>0</valuemin>
													<valuemax>1</valuemax>
													<value>0</value>
												</parameter>
												<parameter authoringApp="PremierePro">
													<parameterid>speed</parameterid>
													<name>speed</name>
													<valuemin>-100000</valuemin>
													<valuemax>100000</valuemax>
													<value>144.995</value>
												</parameter>
												<parameter authoringApp="PremierePro">
													<parameterid>reverse</parameterid>
													<name>reverse</name>
													<value>FALSE</value>
												</parameter>
												<parameter authoringApp="PremierePro">
													<parameterid>frameblending</parameterid>
													<name>frameblending</name>
													<value>FALSE</value>
												</parameter>
												<parameter authoringApp="PremierePro">
													<parameterid>graphdict</parameterid>
													<name>graphdict</name>
													<valuemin>0</valuemin>
													<valuemax>669</valuemax>
													<value>0</value>
													<keyframe>
														<when>0</when>
														<value>0</value>
														<speedvirtualkf>TRUE</speedvirtualkf>
														<speedkfin>TRUE</speedkfin>
													</keyframe>
													<keyframe>
														<when>462</when>
														<value>669</value>
														<speedvirtualkf>TRUE</speedvirtualkf>
														<speedkfout>TRUE</speedkfout>
													</keyframe>
													<interpolation>
														<name>FCPCurve</name>
													</interpolation>
												</parameter>
											</effect>
										</filter>
										<logginginfo>
											<description></description>
											<scene></scene>
											<shottake></shottake>
											<lognote></lognote>
											<good></good>
											<originalvideofilename></originalvideofilename>
											<originalaudiofilename></originalaudiofilename>
										</logginginfo>
										<colorinfo>
											<lut></lut>
											<lut1></lut1>
											<asc_sop></asc_sop>
											<asc_sat></asc_sat>
											<lut2></lut2>
										</colorinfo>
										<labels>
											<label2>Violet</label2>
										</labels>
									</clipitem>
									<clipitem id="clipitem-892">
										<masterclipid>masterclip-5</masterclipid>
										<name>(allthesugartx)_CeV_fcTlB4x_IG.mp4</name>
										<enabled>TRUE</enabled>
										<duration>371</duration>
										<rate>
											<timebase>30</timebase>
											<ntsc>TRUE</ntsc>
										</rate>
										<start>37020</start>
										<end>37391</end>
										<in>0</in>
										<out>371</out>
										<pproTicksIn>0</pproTicksIn>
										<pproTicksOut>3144472531200</pproTicksOut>
										<alphatype>none</alphatype>
										<file id="file-4"/>
										<logginginfo>
											<description></description>
											<scene></scene>
											<shottake></shottake>
											<lognote></lognote>
											<good></good>
											<originalvideofilename></originalvideofilename>
											<originalaudiofilename></originalaudiofilename>
										</logginginfo>
										<colorinfo>
											<lut></lut>
											<lut1></lut1>
											<asc_sop></asc_sop>
											<asc_sat></asc_sat>
											<lut2></lut2>
										</colorinfo>
										<labels>
											<label2>Violet</label2>
										</labels>
									</clipitem>
									<clipitem id="clipitem-893">
										<masterclipid>masterclip-9</masterclipid>
										<name>(join_jules)_CRrb6ReDSMH_IG.mp4</name>
										<enabled>TRUE</enabled>
										<duration>716</duration>
										<rate>
											<timebase>30</timebase>
											<ntsc>TRUE</ntsc>
										</rate>
										<start>37391</start>
										<end>38069</end>
										<in>38</in>
										<out>716</out>
										<pproTicksIn>322075353600</pproTicksIn>
										<pproTicksOut>6068577715200</pproTicksOut>
										<alphatype>none</alphatype>
										<file id="file-7"/>
										<logginginfo>
											<description></description>
											<scene></scene>
											<shottake></shottake>
											<lognote></lognote>
											<good></good>
											<originalvideofilename></originalvideofilename>
											<originalaudiofilename></originalaudiofilename>
										</logginginfo>
										<colorinfo>
											<lut></lut>
											<lut1></lut1>
											<asc_sop></asc_sop>
											<asc_sat></asc_sat>
											<lut2></lut2>
										</colorinfo>
										<labels>
											<label2>Violet</label2>
										</labels>
									</clipitem>
									<clipitem id="clipitem-894">
										<masterclipid>masterclip-10</masterclipid>
										<name>(sweet_potatou)_CdSE9FXAYje_IG.mp4</name>
										<enabled>TRUE</enabled>
										<duration>789</duration>
										<rate>
											<timebase>30</timebase>
											<ntsc>TRUE</ntsc>
										</rate>
										<start>38069</start>
										<end>38773</end>
										<in>85</in>
										<out>789</out>
										<pproTicksIn>720431712000</pproTicksIn>
										<pproTicksOut>6687301420800</pproTicksOut>
										<alphatype>none</alphatype>
										<file id="file-8"/>
										<logginginfo>
											<description></description>
											<scene></scene>
											<shottake></shottake>
											<lognote></lognote>
											<good></good>
											<originalvideofilename></originalvideofilename>
											<originalaudiofilename></originalaudiofilename>
										</logginginfo>
										<colorinfo>
											<lut></lut>
											<lut1></lut1>
											<asc_sop></asc_sop>
											<asc_sat></asc_sat>
											<lut2></lut2>
										</colorinfo>
										<labels>
											<label2>Violet</label2>
										</labels>
									</clipitem>
									<clipitem id="clipitem-895">
										<masterclipid>masterclip-11</masterclipid>
										<name>(viviannecafe)_6931904249563499777_TT.mp4</name>
										<enabled>TRUE</enabled>
										<duration>1061</duration>
										<rate>
											<timebase>30</timebase>
											<ntsc>TRUE</ntsc>
										</rate>
										<start>38773</start>
										<end>38870</end>
										<in>61</in>
										<out>158</out>
										<pproTicksIn>517015699200</pproTicksIn>
										<pproTicksOut>1339155417600</pproTicksOut>
										<alphatype>none</alphatype>
										<file id="file-9"/>
										<logginginfo>
											<description></description>
											<scene></scene>
											<shottake></shottake>
											<lognote></lognote>
											<good></good>
											<originalvideofilename></originalvideofilename>
											<originalaudiofilename></originalaudiofilename>
										</logginginfo>
										<colorinfo>
											<lut></lut>
											<lut1></lut1>
											<asc_sop></asc_sop>
											<asc_sat></asc_sat>
											<lut2></lut2>
										</colorinfo>
										<labels>
											<label2>Violet</label2>
										</labels>
									</clipitem>
									<clipitem id="clipitem-896">
										<masterclipid>masterclip-11</masterclipid>
										<name>(viviannecafe)_6931904249563499777_TT.mp4</name>
										<enabled>TRUE</enabled>
										<duration>1061</duration>
										<rate>
											<timebase>30</timebase>
											<ntsc>TRUE</ntsc>
										</rate>
										<start>38870</start>
										<end>39014</end>
										<in>248</in>
										<out>392</out>
										<pproTicksIn>2101965465600</pproTicksIn>
										<pproTicksOut>3322461542400</pproTicksOut>
										<alphatype>none</alphatype>
										<file id="file-9"/>
										<logginginfo>
											<description></description>
											<scene></scene>
											<shottake></shottake>
											<lognote></lognote>
											<good></good>
											<originalvideofilename></originalvideofilename>
											<originalaudiofilename></originalaudiofilename>
										</logginginfo>
										<colorinfo>
											<lut></lut>
											<lut1></lut1>
											<asc_sop></asc_sop>
											<asc_sat></asc_sat>
											<lut2></lut2>
										</colorinfo>
										<labels>
											<label2>Violet</label2>
										</labels>
									</clipitem>
									<clipitem id="clipitem-897">
										<masterclipid>masterclip-11</masterclipid>
										<name>(viviannecafe)_6931904249563499777_TT.mp4</name>
										<enabled>TRUE</enabled>
										<duration>1061</duration>
										<rate>
											<timebase>30</timebase>
											<ntsc>TRUE</ntsc>
										</rate>
										<start>39014</start>
										<end>39274</end>
										<in>454</in>
										<out>714</out>
										<pproTicksIn>3847952908800</pproTicksIn>
										<pproTicksOut>6051626380800</pproTicksOut>
										<alphatype>none</alphatype>
										<file id="file-9"/>
										<logginginfo>
											<description></description>
											<scene></scene>
											<shottake></shottake>
											<lognote></lognote>
											<good></good>
											<originalvideofilename></originalvideofilename>
											<originalaudiofilename></originalaudiofilename>
										</logginginfo>
										<colorinfo>
											<lut></lut>
											<lut1></lut1>
											<asc_sop></asc_sop>
											<asc_sat></asc_sat>
											<lut2></lut2>
										</colorinfo>
										<labels>
											<label2>Violet</label2>
										</labels>
									</clipitem>
									<clipitem id="clipitem-898">
										<masterclipid>masterclip-11</masterclipid>
										<name>(viviannecafe)_6931904249563499777_TT.mp4</name>
										<enabled>TRUE</enabled>
										<duration>1061</duration>
										<rate>
											<timebase>30</timebase>
											<ntsc>TRUE</ntsc>
										</rate>
										<start>39274</start>
										<end>39434</end>
										<in>889</in>
										<out>1049</out>
										<pproTicksIn>7534868140800</pproTicksIn>
										<pproTicksOut>8890974892800</pproTicksOut>
										<alphatype>none</alphatype>
										<file id="file-9"/>
										<logginginfo>
											<description></description>
											<scene></scene>
											<shottake></shottake>
											<lognote></lognote>
											<good></good>
											<originalvideofilename></originalvideofilename>
											<originalaudiofilename></originalaudiofilename>
										</logginginfo>
										<colorinfo>
											<lut></lut>
											<lut1></lut1>
											<asc_sop></asc_sop>
											<asc_sat></asc_sat>
											<lut2></lut2>
										</colorinfo>
										<labels>
											<label2>Violet</label2>
										</labels>
									</clipitem>
									<clipitem id="clipitem-899">
										<masterclipid>masterclip-12</masterclipid>
										<name>(tashaliana89)_7043844558660177158_TT.mp4</name>
										<enabled>TRUE</enabled>
										<duration>1696</duration>
										<rate>
											<timebase>30</timebase>
											<ntsc>TRUE</ntsc>
										</rate>
										<start>39434</start>
										<end>39561</end>
										<in>182</in>
										<out>309</out>
										<pproTicksIn>1542571430400</pproTicksIn>
										<pproTicksOut>2618981164800</pproTicksOut>
										<alphatype>none</alphatype>
										<file id="file-10"/>
										<logginginfo>
											<description></description>
											<scene></scene>
											<shottake></shottake>
											<lognote></lognote>
											<good></good>
											<originalvideofilename></originalvideofilename>
											<originalaudiofilename></originalaudiofilename>
										</logginginfo>
										<colorinfo>
											<lut></lut>
											<lut1></lut1>
											<asc_sop></asc_sop>
											<asc_sat></asc_sat>
											<lut2></lut2>
										</colorinfo>
										<labels>
											<label2>Violet</label2>
										</labels>
									</clipitem>
									<clipitem id="clipitem-900">
										<masterclipid>masterclip-12</masterclipid>
										<name>(tashaliana89)_7043844558660177158_TT.mp4</name>
										<enabled>TRUE</enabled>
										<duration>1696</duration>
										<rate>
											<timebase>30</timebase>
											<ntsc>TRUE</ntsc>
										</rate>
										<start>39561</start>
										<end>39583</end>
										<in>372</in>
										<out>394</out>
										<pproTicksIn>3152948198400</pproTicksIn>
										<pproTicksOut>3339412876800</pproTicksOut>
										<alphatype>none</alphatype>
										<file id="file-10"/>
										<logginginfo>
											<description></description>
											<scene></scene>
											<shottake></shottake>
											<lognote></lognote>
											<good></good>
											<originalvideofilename></originalvideofilename>
											<originalaudiofilename></originalaudiofilename>
										</logginginfo>
										<colorinfo>
											<lut></lut>
											<lut1></lut1>
											<asc_sop></asc_sop>
											<asc_sat></asc_sat>
											<lut2></lut2>
										</colorinfo>
										<labels>
											<label2>Violet</label2>
										</labels>
									</clipitem>
									<clipitem id="clipitem-901">
										<masterclipid>masterclip-12</masterclipid>
										<name>(tashaliana89)_7043844558660177158_TT.mp4</name>
										<enabled>TRUE</enabled>
										<duration>1696</duration>
										<rate>
											<timebase>30</timebase>
											<ntsc>TRUE</ntsc>
										</rate>
										<start>39583</start>
										<end>39686</end>
										<in>496</in>
										<out>599</out>
										<pproTicksIn>4203930931200</pproTicksIn>
										<pproTicksOut>5076924652800</pproTicksOut>
										<alphatype>none</alphatype>
										<file id="file-10"/>
										<logginginfo>
											<description></description>
											<scene></scene>
											<shottake></shottake>
											<lognote></lognote>
											<good></good>
											<originalvideofilename></originalvideofilename>
											<originalaudiofilename></originalaudiofilename>
										</logginginfo>
										<colorinfo>
											<lut></lut>
											<lut1></lut1>
											<asc_sop></asc_sop>
											<asc_sat></asc_sat>
											<lut2></lut2>
										</colorinfo>
										<labels>
											<label2>Violet</label2>
										</labels>
									</clipitem>
									<clipitem id="clipitem-902">
										<masterclipid>masterclip-12</masterclipid>
										<name>(tashaliana89)_7043844558660177158_TT.mp4</name>
										<enabled>TRUE</enabled>
										<duration>1696</duration>
										<rate>
											<timebase>30</timebase>
											<ntsc>TRUE</ntsc>
										</rate>
										<start>39686</start>
										<end>39833</end>
										<in>719</in>
										<out>866</out>
										<pproTicksIn>6094004716800</pproTicksIn>
										<pproTicksOut>7339927795200</pproTicksOut>
										<alphatype>none</alphatype>
										<file id="file-10"/>
										<logginginfo>
											<description></description>
											<scene></scene>
											<shottake></shottake>
											<lognote></lognote>
											<good></good>
											<originalvideofilename></originalvideofilename>
											<originalaudiofilename></originalaudiofilename>
										</logginginfo>
										<colorinfo>
											<lut></lut>
											<lut1></lut1>
											<asc_sop></asc_sop>
											<asc_sat></asc_sat>
											<lut2></lut2>
										</colorinfo>
										<labels>
											<label2>Violet</label2>
										</labels>
									</clipitem>
									<clipitem id="clipitem-903">
										<masterclipid>masterclip-12</masterclipid>
										<name>(tashaliana89)_7043844558660177158_TT.mp4</name>
										<enabled>TRUE</enabled>
										<duration>1696</duration>
										<rate>
											<timebase>30</timebase>
											<ntsc>TRUE</ntsc>
										</rate>
										<start>39833</start>
										<end>40007</end>
										<in>0</in>
										<out>174</out>
										<pproTicksIn>0</pproTicksIn>
										<pproTicksOut>1474766092800</pproTicksOut>
										<alphatype>none</alphatype>
										<file id="file-10"/>
										<logginginfo>
											<description></description>
											<scene></scene>
											<shottake></shottake>
											<lognote></lognote>
											<good></good>
											<originalvideofilename></originalvideofilename>
											<originalaudiofilename></originalaudiofilename>
										</logginginfo>
										<colorinfo>
											<lut></lut>
											<lut1></lut1>
											<asc_sop></asc_sop>
											<asc_sat></asc_sat>
											<lut2></lut2>
										</colorinfo>
										<labels>
											<label2>Violet</label2>
										</labels>
									</clipitem>
									<clipitem id="clipitem-904">
										<masterclipid>masterclip-13</masterclipid>
										<name>(allyoucansweet)_7075755185724820779_TT.mp4</name>
										<enabled>TRUE</enabled>
										<duration>718</duration>
										<rate>
											<timebase>30</timebase>
											<ntsc>TRUE</ntsc>
										</rate>
										<start>40007</start>
										<end>40673</end>
										<in>0</in>
										<out>666</out>
										<pproTicksIn>0</pproTicksIn>
										<pproTicksOut>5644794355200</pproTicksOut>
										<alphatype>none</alphatype>
										<file id="file-11"/>
										<logginginfo>
											<description></description>
											<scene></scene>
											<shottake></shottake>
											<lognote></lognote>
											<good></good>
											<originalvideofilename></originalvideofilename>
											<originalaudiofilename></originalaudiofilename>
										</logginginfo>
										<colorinfo>
											<lut></lut>
											<lut1></lut1>
											<asc_sop></asc_sop>
											<asc_sat></asc_sat>
											<lut2></lut2>
										</colorinfo>
										<labels>
											<label2>Violet</label2>
										</labels>
									</clipitem>
									<clipitem id="clipitem-905">
										<masterclipid>masterclip-26</masterclipid>
										<name>(Tuba Geçkil)_Realistic Nature and Jelly Cake_Pc3GNzhoGsc_YT.mp4</name>
										<enabled>TRUE</enabled>
										<duration>8868</duration>
										<rate>
											<timebase>30</timebase>
											<ntsc>TRUE</ntsc>
										</rate>
										<start>40673</start>
										<end>40692</end>
										<in>14</in>
										<out>33</out>
										<pproTicksIn>118659340800</pproTicksIn>
										<pproTicksOut>279697017600</pproTicksOut>
										<alphatype>none</alphatype>
										<file id="file-20"/>
										<logginginfo>
											<description>Realistic Nature and Jelly Cake</description>
											<scene></scene>
											<shottake></shottake>
											<lognote>https://www.youtube.com/watch?v=Pc3GNzhoGsc</lognote>
											<good></good>
											<originalvideofilename></originalvideofilename>
											<originalaudiofilename></originalaudiofilename>
										</logginginfo>
										<colorinfo>
											<lut></lut>
											<lut1></lut1>
											<asc_sop></asc_sop>
											<asc_sat></asc_sat>
											<lut2></lut2>
										</colorinfo>
										<labels>
											<label2>Iris</label2>
										</labels>
									</clipitem>
									<clipitem id="clipitem-906">
										<masterclipid>masterclip-26</masterclipid>
										<name>(Tuba Geçkil)_Realistic Nature and Jelly Cake_Pc3GNzhoGsc_YT.mp4</name>
										<enabled>TRUE</enabled>
										<duration>8868</duration>
										<rate>
											<timebase>30</timebase>
											<ntsc>TRUE</ntsc>
										</rate>
										<start>40692</start>
										<end>40713</end>
										<in>47</in>
										<out>68</out>
										<pproTicksIn>398356358400</pproTicksIn>
										<pproTicksOut>576345369600</pproTicksOut>
										<alphatype>none</alphatype>
										<file id="file-20"/>
										<logginginfo>
											<description>Realistic Nature and Jelly Cake</description>
											<scene></scene>
											<shottake></shottake>
											<lognote>https://www.youtube.com/watch?v=Pc3GNzhoGsc</lognote>
											<good></good>
											<originalvideofilename></originalvideofilename>
											<originalaudiofilename></originalaudiofilename>
										</logginginfo>
										<colorinfo>
											<lut></lut>
											<lut1></lut1>
											<asc_sop></asc_sop>
											<asc_sat></asc_sat>
											<lut2></lut2>
										</colorinfo>
										<labels>
											<label2>Iris</label2>
										</labels>
									</clipitem>
									<clipitem id="clipitem-907">
										<masterclipid>masterclip-26</masterclipid>
										<name>(Tuba Geçkil)_Realistic Nature and Jelly Cake_Pc3GNzhoGsc_YT.mp4</name>
										<enabled>TRUE</enabled>
										<duration>8868</duration>
										<rate>
											<timebase>30</timebase>
											<ntsc>TRUE</ntsc>
										</rate>
										<start>40713</start>
										<end>40841</end>
										<in>84</in>
										<out>212</out>
										<pproTicksIn>711956044800</pproTicksIn>
										<pproTicksOut>1796841446400</pproTicksOut>
										<alphatype>none</alphatype>
										<file id="file-20"/>
										<logginginfo>
											<description>Realistic Nature and Jelly Cake</description>
											<scene></scene>
											<shottake></shottake>
											<lognote>https://www.youtube.com/watch?v=Pc3GNzhoGsc</lognote>
											<good></good>
											<originalvideofilename></originalvideofilename>
											<originalaudiofilename></originalaudiofilename>
										</logginginfo>
										<colorinfo>
											<lut></lut>
											<lut1></lut1>
											<asc_sop></asc_sop>
											<asc_sat></asc_sat>
											<lut2></lut2>
										</colorinfo>
										<labels>
											<label2>Iris</label2>
										</labels>
									</clipitem>
									<clipitem id="clipitem-908">
										<masterclipid>masterclip-26</masterclipid>
										<name>(Tuba Geçkil)_Realistic Nature and Jelly Cake_Pc3GNzhoGsc_YT.mp4</name>
										<enabled>TRUE</enabled>
										<duration>8868</duration>
										<rate>
											<timebase>30</timebase>
											<ntsc>TRUE</ntsc>
										</rate>
										<start>40841</start>
										<end>40890</end>
										<in>1022</in>
										<out>1071</out>
										<pproTicksIn>8662131878400</pproTicksIn>
										<pproTicksOut>9077439571200</pproTicksOut>
										<alphatype>none</alphatype>
										<file id="file-20"/>
										<logginginfo>
											<description>Realistic Nature and Jelly Cake</description>
											<scene></scene>
											<shottake></shottake>
											<lognote>https://www.youtube.com/watch?v=Pc3GNzhoGsc</lognote>
											<good></good>
											<originalvideofilename></originalvideofilename>
											<originalaudiofilename></originalaudiofilename>
										</logginginfo>
										<colorinfo>
											<lut></lut>
											<lut1></lut1>
											<asc_sop></asc_sop>
											<asc_sat></asc_sat>
											<lut2></lut2>
										</colorinfo>
										<labels>
											<label2>Iris</label2>
										</labels>
									</clipitem>
									<clipitem id="clipitem-909">
										<masterclipid>masterclip-26</masterclipid>
										<name>(Tuba Geçkil)_Realistic Nature and Jelly Cake_Pc3GNzhoGsc_YT.mp4</name>
										<enabled>TRUE</enabled>
										<duration>8868</duration>
										<rate>
											<timebase>30</timebase>
											<ntsc>TRUE</ntsc>
										</rate>
										<start>40890</start>
										<end>40957</end>
										<in>1166</in>
										<out>1233</out>
										<pproTicksIn>9882627955200</pproTicksIn>
										<pproTicksOut>10450497657600</pproTicksOut>
										<alphatype>none</alphatype>
										<file id="file-20"/>
										<logginginfo>
											<description>Realistic Nature and Jelly Cake</description>
											<scene></scene>
											<shottake></shottake>
											<lognote>https://www.youtube.com/watch?v=Pc3GNzhoGsc</lognote>
											<good></good>
											<originalvideofilename></originalvideofilename>
											<originalaudiofilename></originalaudiofilename>
										</logginginfo>
										<colorinfo>
											<lut></lut>
											<lut1></lut1>
											<asc_sop></asc_sop>
											<asc_sat></asc_sat>
											<lut2></lut2>
										</colorinfo>
										<labels>
											<label2>Iris</label2>
										</labels>
									</clipitem>
									<clipitem id="clipitem-910">
										<masterclipid>masterclip-26</masterclipid>
										<name>(Tuba Geçkil)_Realistic Nature and Jelly Cake_Pc3GNzhoGsc_YT.mp4</name>
										<enabled>TRUE</enabled>
										<duration>8868</duration>
										<rate>
											<timebase>30</timebase>
											<ntsc>TRUE</ntsc>
										</rate>
										<start>40957</start>
										<end>41032</end>
										<in>1483</in>
										<out>1558</out>
										<pproTicksIn>12569414457600</pproTicksIn>
										<pproTicksOut>13205089497600</pproTicksOut>
										<alphatype>none</alphatype>
										<file id="file-20"/>
										<logginginfo>
											<description>Realistic Nature and Jelly Cake</description>
											<scene></scene>
											<shottake></shottake>
											<lognote>https://www.youtube.com/watch?v=Pc3GNzhoGsc</lognote>
											<good></good>
											<originalvideofilename></originalvideofilename>
											<originalaudiofilename></originalaudiofilename>
										</logginginfo>
										<colorinfo>
											<lut></lut>
											<lut1></lut1>
											<asc_sop></asc_sop>
											<asc_sat></asc_sat>
											<lut2></lut2>
										</colorinfo>
										<labels>
											<label2>Iris</label2>
										</labels>
									</clipitem>
									<clipitem id="clipitem-911">
										<masterclipid>masterclip-26</masterclipid>
										<name>(Tuba Geçkil)_Realistic Nature and Jelly Cake_Pc3GNzhoGsc_YT.mp4</name>
										<enabled>TRUE</enabled>
										<duration>8868</duration>
										<rate>
											<timebase>30</timebase>
											<ntsc>TRUE</ntsc>
										</rate>
										<start>41032</start>
										<end>41247</end>
										<in>1691</in>
										<out>1906</out>
										<pproTicksIn>14332353235200</pproTicksIn>
										<pproTicksOut>16154621683200</pproTicksOut>
										<alphatype>none</alphatype>
										<file id="file-20"/>
										<logginginfo>
											<description>Realistic Nature and Jelly Cake</description>
											<scene></scene>
											<shottake></shottake>
											<lognote>https://www.youtube.com/watch?v=Pc3GNzhoGsc</lognote>
											<good></good>
											<originalvideofilename></originalvideofilename>
											<originalaudiofilename></originalaudiofilename>
										</logginginfo>
										<colorinfo>
											<lut></lut>
											<lut1></lut1>
											<asc_sop></asc_sop>
											<asc_sat></asc_sat>
											<lut2></lut2>
										</colorinfo>
										<labels>
											<label2>Iris</label2>
										</labels>
									</clipitem>
									<clipitem id="clipitem-912">
										<masterclipid>masterclip-26</masterclipid>
										<name>(Tuba Geçkil)_Realistic Nature and Jelly Cake_Pc3GNzhoGsc_YT.mp4</name>
										<enabled>TRUE</enabled>
										<duration>8868</duration>
										<rate>
											<timebase>30</timebase>
											<ntsc>TRUE</ntsc>
										</rate>
										<start>41247</start>
										<end>41322</end>
										<in>2101</in>
										<out>2176</out>
										<pproTicksIn>17807376787200</pproTicksIn>
										<pproTicksOut>18443051827200</pproTicksOut>
										<alphatype>none</alphatype>
										<file id="file-20"/>
										<logginginfo>
											<description>Realistic Nature and Jelly Cake</description>
											<scene></scene>
											<shottake></shottake>
											<lognote>https://www.youtube.com/watch?v=Pc3GNzhoGsc</lognote>
											<good></good>
											<originalvideofilename></originalvideofilename>
											<originalaudiofilename></originalaudiofilename>
										</logginginfo>
										<colorinfo>
											<lut></lut>
											<lut1></lut1>
											<asc_sop></asc_sop>
											<asc_sat></asc_sat>
											<lut2></lut2>
										</colorinfo>
										<labels>
											<label2>Iris</label2>
										</labels>
									</clipitem>
									<clipitem id="clipitem-913">
										<masterclipid>masterclip-26</masterclipid>
										<name>(Tuba Geçkil)_Realistic Nature and Jelly Cake_Pc3GNzhoGsc_YT.mp4</name>
										<enabled>TRUE</enabled>
										<duration>8868</duration>
										<rate>
											<timebase>30</timebase>
											<ntsc>TRUE</ntsc>
										</rate>
										<start>41322</start>
										<end>41429</end>
										<in>2876</in>
										<out>2983</out>
										<pproTicksIn>24376018867200</pproTicksIn>
										<pproTicksOut>25282915257600</pproTicksOut>
										<alphatype>none</alphatype>
										<file id="file-20"/>
										<logginginfo>
											<description>Realistic Nature and Jelly Cake</description>
											<scene></scene>
											<shottake></shottake>
											<lognote>https://www.youtube.com/watch?v=Pc3GNzhoGsc</lognote>
											<good></good>
											<originalvideofilename></originalvideofilename>
											<originalaudiofilename></originalaudiofilename>
										</logginginfo>
										<colorinfo>
											<lut></lut>
											<lut1></lut1>
											<asc_sop></asc_sop>
											<asc_sat></asc_sat>
											<lut2></lut2>
										</colorinfo>
										<labels>
											<label2>Iris</label2>
										</labels>
									</clipitem>
									<clipitem id="clipitem-914">
										<masterclipid>masterclip-26</masterclipid>
										<name>(Tuba Geçkil)_Realistic Nature and Jelly Cake_Pc3GNzhoGsc_YT.mp4</name>
										<enabled>TRUE</enabled>
										<duration>8868</duration>
										<rate>
											<timebase>30</timebase>
											<ntsc>TRUE</ntsc>
										</rate>
										<start>41429</start>
										<end>41529</end>
										<in>3157</in>
										<out>3257</out>
										<pproTicksIn>26757681350400</pproTicksIn>
										<pproTicksOut>27605248070400</pproTicksOut>
										<alphatype>none</alphatype>
										<file id="file-20"/>
										<logginginfo>
											<description>Realistic Nature and Jelly Cake</description>
											<scene></scene>
											<shottake></shottake>
											<lognote>https://www.youtube.com/watch?v=Pc3GNzhoGsc</lognote>
											<good></good>
											<originalvideofilename></originalvideofilename>
											<originalaudiofilename></originalaudiofilename>
										</logginginfo>
										<colorinfo>
											<lut></lut>
											<lut1></lut1>
											<asc_sop></asc_sop>
											<asc_sat></asc_sat>
											<lut2></lut2>
										</colorinfo>
										<labels>
											<label2>Iris</label2>
										</labels>
									</clipitem>
									<clipitem id="clipitem-915">
										<masterclipid>masterclip-26</masterclipid>
										<name>(Tuba Geçkil)_Realistic Nature and Jelly Cake_Pc3GNzhoGsc_YT.mp4</name>
										<enabled>TRUE</enabled>
										<duration>8868</duration>
										<rate>
											<timebase>30</timebase>
											<ntsc>TRUE</ntsc>
										</rate>
										<start>41529</start>
										<end>41615</end>
										<in>3610</in>
										<out>3696</out>
										<pproTicksIn>30597158592000</pproTicksIn>
										<pproTicksOut>31326065971200</pproTicksOut>
										<alphatype>none</alphatype>
										<file id="file-20"/>
										<logginginfo>
											<description>Realistic Nature and Jelly Cake</description>
											<scene></scene>
											<shottake></shottake>
											<lognote>https://www.youtube.com/watch?v=Pc3GNzhoGsc</lognote>
											<good></good>
											<originalvideofilename></originalvideofilename>
											<originalaudiofilename></originalaudiofilename>
										</logginginfo>
										<colorinfo>
											<lut></lut>
											<lut1></lut1>
											<asc_sop></asc_sop>
											<asc_sat></asc_sat>
											<lut2></lut2>
										</colorinfo>
										<labels>
											<label2>Iris</label2>
										</labels>
									</clipitem>
									<clipitem id="clipitem-916">
										<masterclipid>masterclip-26</masterclipid>
										<name>(Tuba Geçkil)_Realistic Nature and Jelly Cake_Pc3GNzhoGsc_YT.mp4</name>
										<enabled>TRUE</enabled>
										<duration>8868</duration>
										<rate>
											<timebase>30</timebase>
											<ntsc>TRUE</ntsc>
										</rate>
										<start>41615</start>
										<end>41697</end>
										<in>4182</in>
										<out>4264</out>
										<pproTicksIn>35445240230400</pproTicksIn>
										<pproTicksOut>36140244940800</pproTicksOut>
										<alphatype>none</alphatype>
										<file id="file-20"/>
										<logginginfo>
											<description>Realistic Nature and Jelly Cake</description>
											<scene></scene>
											<shottake></shottake>
											<lognote>https://www.youtube.com/watch?v=Pc3GNzhoGsc</lognote>
											<good></good>
											<originalvideofilename></originalvideofilename>
											<originalaudiofilename></originalaudiofilename>
										</logginginfo>
										<colorinfo>
											<lut></lut>
											<lut1></lut1>
											<asc_sop></asc_sop>
											<asc_sat></asc_sat>
											<lut2></lut2>
										</colorinfo>
										<labels>
											<label2>Iris</label2>
										</labels>
									</clipitem>
									<clipitem id="clipitem-917">
										<masterclipid>masterclip-26</masterclipid>
										<name>(Tuba Geçkil)_Realistic Nature and Jelly Cake_Pc3GNzhoGsc_YT.mp4</name>
										<enabled>TRUE</enabled>
										<duration>8868</duration>
										<rate>
											<timebase>30</timebase>
											<ntsc>TRUE</ntsc>
										</rate>
										<start>41697</start>
										<end>41763</end>
										<in>4652</in>
										<out>4718</out>
										<pproTicksIn>39428803814400</pproTicksIn>
										<pproTicksOut>39988197849600</pproTicksOut>
										<alphatype>none</alphatype>
										<file id="file-20"/>
										<logginginfo>
											<description>Realistic Nature and Jelly Cake</description>
											<scene></scene>
											<shottake></shottake>
											<lognote>https://www.youtube.com/watch?v=Pc3GNzhoGsc</lognote>
											<good></good>
											<originalvideofilename></originalvideofilename>
											<originalaudiofilename></originalaudiofilename>
										</logginginfo>
										<colorinfo>
											<lut></lut>
											<lut1></lut1>
											<asc_sop></asc_sop>
											<asc_sat></asc_sat>
											<lut2></lut2>
										</colorinfo>
										<labels>
											<label2>Iris</label2>
										</labels>
									</clipitem>
									<clipitem id="clipitem-918">
										<masterclipid>masterclip-26</masterclipid>
										<name>(Tuba Geçkil)_Realistic Nature and Jelly Cake_Pc3GNzhoGsc_YT.mp4</name>
										<enabled>TRUE</enabled>
										<duration>8868</duration>
										<rate>
											<timebase>30</timebase>
											<ntsc>TRUE</ntsc>
										</rate>
										<start>41763</start>
										<end>41831</end>
										<in>4751</in>
										<out>4819</out>
										<pproTicksIn>40267894867200</pproTicksIn>
										<pproTicksOut>40844240236800</pproTicksOut>
										<alphatype>none</alphatype>
										<file id="file-20"/>
										<logginginfo>
											<description>Realistic Nature and Jelly Cake</description>
											<scene></scene>
											<shottake></shottake>
											<lognote>https://www.youtube.com/watch?v=Pc3GNzhoGsc</lognote>
											<good></good>
											<originalvideofilename></originalvideofilename>
											<originalaudiofilename></originalaudiofilename>
										</logginginfo>
										<colorinfo>
											<lut></lut>
											<lut1></lut1>
											<asc_sop></asc_sop>
											<asc_sat></asc_sat>
											<lut2></lut2>
										</colorinfo>
										<labels>
											<label2>Iris</label2>
										</labels>
									</clipitem>
									<clipitem id="clipitem-919">
										<masterclipid>masterclip-26</masterclipid>
										<name>(Tuba Geçkil)_Realistic Nature and Jelly Cake_Pc3GNzhoGsc_YT.mp4</name>
										<enabled>TRUE</enabled>
										<duration>8868</duration>
										<rate>
											<timebase>30</timebase>
											<ntsc>TRUE</ntsc>
										</rate>
										<start>41831</start>
										<end>41883</end>
										<in>4920</in>
										<out>4972</out>
										<pproTicksIn>41700282624000</pproTicksIn>
										<pproTicksOut>42141017318400</pproTicksOut>
										<alphatype>none</alphatype>
										<file id="file-20"/>
										<logginginfo>
											<description>Realistic Nature and Jelly Cake</description>
											<scene></scene>
											<shottake></shottake>
											<lognote>https://www.youtube.com/watch?v=Pc3GNzhoGsc</lognote>
											<good></good>
											<originalvideofilename></originalvideofilename>
											<originalaudiofilename></originalaudiofilename>
										</logginginfo>
										<colorinfo>
											<lut></lut>
											<lut1></lut1>
											<asc_sop></asc_sop>
											<asc_sat></asc_sat>
											<lut2></lut2>
										</colorinfo>
										<labels>
											<label2>Iris</label2>
										</labels>
									</clipitem>
									<clipitem id="clipitem-920">
										<masterclipid>masterclip-26</masterclipid>
										<name>(Tuba Geçkil)_Realistic Nature and Jelly Cake_Pc3GNzhoGsc_YT.mp4</name>
										<enabled>TRUE</enabled>
										<duration>8868</duration>
										<rate>
											<timebase>30</timebase>
											<ntsc>TRUE</ntsc>
										</rate>
										<start>41883</start>
										<end>41929</end>
										<in>5028</in>
										<out>5074</out>
										<pproTicksIn>42615654681600</pproTicksIn>
										<pproTicksOut>43005535372800</pproTicksOut>
										<alphatype>none</alphatype>
										<file id="file-20"/>
										<logginginfo>
											<description>Realistic Nature and Jelly Cake</description>
											<scene></scene>
											<shottake></shottake>
											<lognote>https://www.youtube.com/watch?v=Pc3GNzhoGsc</lognote>
											<good></good>
											<originalvideofilename></originalvideofilename>
											<originalaudiofilename></originalaudiofilename>
										</logginginfo>
										<colorinfo>
											<lut></lut>
											<lut1></lut1>
											<asc_sop></asc_sop>
											<asc_sat></asc_sat>
											<lut2></lut2>
										</colorinfo>
										<labels>
											<label2>Iris</label2>
										</labels>
									</clipitem>
									<clipitem id="clipitem-921">
										<masterclipid>masterclip-26</masterclipid>
										<name>(Tuba Geçkil)_Realistic Nature and Jelly Cake_Pc3GNzhoGsc_YT.mp4</name>
										<enabled>TRUE</enabled>
										<duration>8868</duration>
										<rate>
											<timebase>30</timebase>
											<ntsc>TRUE</ntsc>
										</rate>
										<start>41929</start>
										<end>41972</end>
										<in>5097</in>
										<out>5140</out>
										<pproTicksIn>43200475718400</pproTicksIn>
										<pproTicksOut>43564929408000</pproTicksOut>
										<alphatype>none</alphatype>
										<file id="file-20"/>
										<logginginfo>
											<description>Realistic Nature and Jelly Cake</description>
											<scene></scene>
											<shottake></shottake>
											<lognote>https://www.youtube.com/watch?v=Pc3GNzhoGsc</lognote>
											<good></good>
											<originalvideofilename></originalvideofilename>
											<originalaudiofilename></originalaudiofilename>
										</logginginfo>
										<colorinfo>
											<lut></lut>
											<lut1></lut1>
											<asc_sop></asc_sop>
											<asc_sat></asc_sat>
											<lut2></lut2>
										</colorinfo>
										<labels>
											<label2>Iris</label2>
										</labels>
									</clipitem>
									<clipitem id="clipitem-922">
										<masterclipid>masterclip-26</masterclipid>
										<name>(Tuba Geçkil)_Realistic Nature and Jelly Cake_Pc3GNzhoGsc_YT.mp4</name>
										<enabled>TRUE</enabled>
										<duration>8868</duration>
										<rate>
											<timebase>30</timebase>
											<ntsc>TRUE</ntsc>
										</rate>
										<start>41972</start>
										<end>42049</end>
										<in>5289</in>
										<out>5366</out>
										<pproTicksIn>44827803820800</pproTicksIn>
										<pproTicksOut>45480430195200</pproTicksOut>
										<alphatype>none</alphatype>
										<file id="file-20"/>
										<logginginfo>
											<description>Realistic Nature and Jelly Cake</description>
											<scene></scene>
											<shottake></shottake>
											<lognote>https://www.youtube.com/watch?v=Pc3GNzhoGsc</lognote>
											<good></good>
											<originalvideofilename></originalvideofilename>
											<originalaudiofilename></originalaudiofilename>
										</logginginfo>
										<colorinfo>
											<lut></lut>
											<lut1></lut1>
											<asc_sop></asc_sop>
											<asc_sat></asc_sat>
											<lut2></lut2>
										</colorinfo>
										<labels>
											<label2>Iris</label2>
										</labels>
									</clipitem>
									<clipitem id="clipitem-923">
										<masterclipid>masterclip-26</masterclipid>
										<name>(Tuba Geçkil)_Realistic Nature and Jelly Cake_Pc3GNzhoGsc_YT.mp4</name>
										<enabled>TRUE</enabled>
										<duration>8868</duration>
										<rate>
											<timebase>30</timebase>
											<ntsc>TRUE</ntsc>
										</rate>
										<start>42049</start>
										<end>42132</end>
										<in>5728</in>
										<out>5811</out>
										<pproTicksIn>48548621721600</pproTicksIn>
										<pproTicksOut>49252102099200</pproTicksOut>
										<alphatype>none</alphatype>
										<file id="file-20"/>
										<logginginfo>
											<description>Realistic Nature and Jelly Cake</description>
											<scene></scene>
											<shottake></shottake>
											<lognote>https://www.youtube.com/watch?v=Pc3GNzhoGsc</lognote>
											<good></good>
											<originalvideofilename></originalvideofilename>
											<originalaudiofilename></originalaudiofilename>
										</logginginfo>
										<colorinfo>
											<lut></lut>
											<lut1></lut1>
											<asc_sop></asc_sop>
											<asc_sat></asc_sat>
											<lut2></lut2>
										</colorinfo>
										<labels>
											<label2>Iris</label2>
										</labels>
									</clipitem>
									<clipitem id="clipitem-924">
										<masterclipid>masterclip-26</masterclipid>
										<name>(Tuba Geçkil)_Realistic Nature and Jelly Cake_Pc3GNzhoGsc_YT.mp4</name>
										<enabled>TRUE</enabled>
										<duration>8868</duration>
										<rate>
											<timebase>30</timebase>
											<ntsc>TRUE</ntsc>
										</rate>
										<start>42132</start>
										<end>42172</end>
										<in>5953</in>
										<out>5993</out>
										<pproTicksIn>50455646841600</pproTicksIn>
										<pproTicksOut>50794673529600</pproTicksOut>
										<alphatype>none</alphatype>
										<file id="file-20"/>
										<logginginfo>
											<description>Realistic Nature and Jelly Cake</description>
											<scene></scene>
											<shottake></shottake>
											<lognote>https://www.youtube.com/watch?v=Pc3GNzhoGsc</lognote>
											<good></good>
											<originalvideofilename></originalvideofilename>
											<originalaudiofilename></originalaudiofilename>
										</logginginfo>
										<colorinfo>
											<lut></lut>
											<lut1></lut1>
											<asc_sop></asc_sop>
											<asc_sat></asc_sat>
											<lut2></lut2>
										</colorinfo>
										<labels>
											<label2>Iris</label2>
										</labels>
									</clipitem>
									<clipitem id="clipitem-925">
										<masterclipid>masterclip-26</masterclipid>
										<name>(Tuba Geçkil)_Realistic Nature and Jelly Cake_Pc3GNzhoGsc_YT.mp4</name>
										<enabled>TRUE</enabled>
										<duration>8868</duration>
										<rate>
											<timebase>30</timebase>
											<ntsc>TRUE</ntsc>
										</rate>
										<start>42172</start>
										<end>42296</end>
										<in>6018</in>
										<out>6142</out>
										<pproTicksIn>51006565209600</pproTicksIn>
										<pproTicksOut>52057547942400</pproTicksOut>
										<alphatype>none</alphatype>
										<file id="file-20"/>
										<logginginfo>
											<description>Realistic Nature and Jelly Cake</description>
											<scene></scene>
											<shottake></shottake>
											<lognote>https://www.youtube.com/watch?v=Pc3GNzhoGsc</lognote>
											<good></good>
											<originalvideofilename></originalvideofilename>
											<originalaudiofilename></originalaudiofilename>
										</logginginfo>
										<colorinfo>
											<lut></lut>
											<lut1></lut1>
											<asc_sop></asc_sop>
											<asc_sat></asc_sat>
											<lut2></lut2>
										</colorinfo>
										<labels>
											<label2>Iris</label2>
										</labels>
									</clipitem>
									<clipitem id="clipitem-926">
										<masterclipid>masterclip-26</masterclipid>
										<name>(Tuba Geçkil)_Realistic Nature and Jelly Cake_Pc3GNzhoGsc_YT.mp4</name>
										<enabled>TRUE</enabled>
										<duration>8868</duration>
										<rate>
											<timebase>30</timebase>
											<ntsc>TRUE</ntsc>
										</rate>
										<start>42296</start>
										<end>42387</end>
										<in>6591</in>
										<out>6682</out>
										<pproTicksIn>55863122515200</pproTicksIn>
										<pproTicksOut>56634408230400</pproTicksOut>
										<alphatype>none</alphatype>
										<file id="file-20"/>
										<logginginfo>
											<description>Realistic Nature and Jelly Cake</description>
											<scene></scene>
											<shottake></shottake>
											<lognote>https://www.youtube.com/watch?v=Pc3GNzhoGsc</lognote>
											<good></good>
											<originalvideofilename></originalvideofilename>
											<originalaudiofilename></originalaudiofilename>
										</logginginfo>
										<colorinfo>
											<lut></lut>
											<lut1></lut1>
											<asc_sop></asc_sop>
											<asc_sat></asc_sat>
											<lut2></lut2>
										</colorinfo>
										<labels>
											<label2>Iris</label2>
										</labels>
									</clipitem>
									<clipitem id="clipitem-927">
										<masterclipid>masterclip-26</masterclipid>
										<name>(Tuba Geçkil)_Realistic Nature and Jelly Cake_Pc3GNzhoGsc_YT.mp4</name>
										<enabled>TRUE</enabled>
										<duration>8868</duration>
										<rate>
											<timebase>30</timebase>
											<ntsc>TRUE</ntsc>
										</rate>
										<start>42387</start>
										<end>42532</end>
										<in>8629</in>
										<out>8774</out>
										<pproTicksIn>73136532268800</pproTicksIn>
										<pproTicksOut>74365504012800</pproTicksOut>
										<alphatype>none</alphatype>
										<file id="file-20"/>
										<logginginfo>
											<description>Realistic Nature and Jelly Cake</description>
											<scene></scene>
											<shottake></shottake>
											<lognote>https://www.youtube.com/watch?v=Pc3GNzhoGsc</lognote>
											<good></good>
											<originalvideofilename></originalvideofilename>
											<originalaudiofilename></originalaudiofilename>
										</logginginfo>
										<colorinfo>
											<lut></lut>
											<lut1></lut1>
											<asc_sop></asc_sop>
											<asc_sat></asc_sat>
											<lut2></lut2>
										</colorinfo>
										<labels>
											<label2>Iris</label2>
										</labels>
									</clipitem>
									<clipitem id="clipitem-928">
										<masterclipid>masterclip-30</masterclipid>
										<name>(ennahs.cakes)_CQoE8xTDi3J_IG.mp4</name>
										<enabled>TRUE</enabled>
										<duration>450</duration>
										<rate>
											<timebase>30</timebase>
											<ntsc>TRUE</ntsc>
										</rate>
										<start>42532</start>
										<end>42697</end>
										<in>17</in>
										<out>182</out>
										<pproTicksIn>288172684800</pproTicksIn>
										<pproTicksOut>3085142860800</pproTicksOut>
										<alphatype>none</alphatype>
										<file id="file-23"/>
										<filter>
											<effect>
												<name>Basic Motion</name>
												<effectid>basic</effectid>
												<effectcategory>motion</effectcategory>
												<effecttype>motion</effecttype>
												<mediatype>video</mediatype>
												<pproBypass>false</pproBypass>
												<parameter authoringApp="PremierePro">
													<parameterid>scale</parameterid>
													<name>Scale</name>
													<valuemin>0</valuemin>
													<valuemax>1000</valuemax>
													<value>100</value>
												</parameter>
												<parameter authoringApp="PremierePro">
													<parameterid>rotation</parameterid>
													<name>Rotation</name>
													<valuemin>-8640</valuemin>
													<valuemax>8640</valuemax>
													<value>0</value>
												</parameter>
												<parameter authoringApp="PremierePro">
													<parameterid>center</parameterid>
													<name>Center</name>
													<value>
														<horiz>0.0194445</horiz>
														<vert>0</vert>
													</value>
												</parameter>
												<parameter authoringApp="PremierePro">
													<parameterid>centerOffset</parameterid>
													<name>Anchor Point</name>
													<value>
														<horiz>0</horiz>
														<vert>0</vert>
													</value>
												</parameter>
												<parameter authoringApp="PremierePro">
													<parameterid>antiflicker</parameterid>
													<name>Anti-flicker Filter</name>
													<valuemin>0.0</valuemin>
													<valuemax>1.0</valuemax>
													<value>0</value>
												</parameter>
											</effect>
										</filter>
										<filter>
											<effect>
												<name>Time Remap</name>
												<effectid>timeremap</effectid>
												<effectcategory>motion</effectcategory>
												<effecttype>motion</effecttype>
												<mediatype>video</mediatype>
												<parameter authoringApp="PremierePro">
													<parameterid>variablespeed</parameterid>
													<name>variablespeed</name>
													<valuemin>0</valuemin>
													<valuemax>1</valuemax>
													<value>0</value>
												</parameter>
												<parameter authoringApp="PremierePro">
													<parameterid>speed</parameterid>
													<name>speed</name>
													<valuemin>-100000</valuemin>
													<valuemax>100000</valuemax>
													<value>200</value>
												</parameter>
												<parameter authoringApp="PremierePro">
													<parameterid>reverse</parameterid>
													<name>reverse</name>
													<value>FALSE</value>
												</parameter>
												<parameter authoringApp="PremierePro">
													<parameterid>frameblending</parameterid>
													<name>frameblending</name>
													<value>FALSE</value>
												</parameter>
												<parameter authoringApp="PremierePro">
													<parameterid>graphdict</parameterid>
													<name>graphdict</name>
													<valuemin>0</valuemin>
													<valuemax>900</valuemax>
													<value>0</value>
													<keyframe>
														<when>0</when>
														<value>0</value>
														<speedvirtualkf>TRUE</speedvirtualkf>
														<speedkfstart>TRUE</speedkfstart>
													</keyframe>
													<keyframe>
														<when>17</when>
														<value>34</value>
														<speedvirtualkf>TRUE</speedvirtualkf>
														<speedkfin>TRUE</speedkfin>
													</keyframe>
													<keyframe>
														<when>182</when>
														<value>364</value>
														<speedvirtualkf>TRUE</speedvirtualkf>
														<speedkfout>TRUE</speedkfout>
													</keyframe>
													<keyframe>
														<when>450</when>
														<value>900</value>
														<speedvirtualkf>TRUE</speedvirtualkf>
														<speedkfend>TRUE</speedkfend>
													</keyframe>
													<interpolation>
														<name>FCPCurve</name>
													</interpolation>
												</parameter>
											</effect>
										</filter>
										<logginginfo>
											<description></description>
											<scene></scene>
											<shottake></shottake>
											<lognote></lognote>
											<good></good>
											<originalvideofilename></originalvideofilename>
											<originalaudiofilename></originalaudiofilename>
										</logginginfo>
										<colorinfo>
											<lut></lut>
											<lut1></lut1>
											<asc_sop></asc_sop>
											<asc_sat></asc_sat>
											<lut2></lut2>
										</colorinfo>
										<labels>
											<label2>Violet</label2>
										</labels>
									</clipitem>
									<clipitem id="clipitem-929">
										<masterclipid>masterclip-30</masterclipid>
										<name>(ennahs.cakes)_CQoE8xTDi3J_IG.mp4</name>
										<enabled>TRUE</enabled>
										<duration>900</duration>
										<rate>
											<timebase>30</timebase>
											<ntsc>TRUE</ntsc>
										</rate>
										<start>42697</start>
										<end>43182</end>
										<in>362</in>
										<out>847</out>
										<pproTicksIn>3068191526400</pproTicksIn>
										<pproTicksOut>7178890118400</pproTicksOut>
										<alphatype>none</alphatype>
										<file id="file-23"/>
										<filter>
											<effect>
												<name>Basic Motion</name>
												<effectid>basic</effectid>
												<effectcategory>motion</effectcategory>
												<effecttype>motion</effecttype>
												<mediatype>video</mediatype>
												<pproBypass>false</pproBypass>
												<parameter authoringApp="PremierePro">
													<parameterid>scale</parameterid>
													<name>Scale</name>
													<valuemin>0</valuemin>
													<valuemax>1000</valuemax>
													<value>100</value>
												</parameter>
												<parameter authoringApp="PremierePro">
													<parameterid>rotation</parameterid>
													<name>Rotation</name>
													<valuemin>-8640</valuemin>
													<valuemax>8640</valuemax>
													<value>0</value>
												</parameter>
												<parameter authoringApp="PremierePro">
													<parameterid>center</parameterid>
													<name>Center</name>
													<value>
														<horiz>0.0194445</horiz>
														<vert>0</vert>
													</value>
												</parameter>
												<parameter authoringApp="PremierePro">
													<parameterid>centerOffset</parameterid>
													<name>Anchor Point</name>
													<value>
														<horiz>0</horiz>
														<vert>0</vert>
													</value>
												</parameter>
												<parameter authoringApp="PremierePro">
													<parameterid>antiflicker</parameterid>
													<name>Anti-flicker Filter</name>
													<valuemin>0.0</valuemin>
													<valuemax>1.0</valuemax>
													<value>0</value>
												</parameter>
											</effect>
										</filter>
										<logginginfo>
											<description></description>
											<scene></scene>
											<shottake></shottake>
											<lognote></lognote>
											<good></good>
											<originalvideofilename></originalvideofilename>
											<originalaudiofilename></originalaudiofilename>
										</logginginfo>
										<colorinfo>
											<lut></lut>
											<lut1></lut1>
											<asc_sop></asc_sop>
											<asc_sat></asc_sat>
											<lut2></lut2>
										</colorinfo>
										<labels>
											<label2>Violet</label2>
										</labels>
									</clipitem>
									<clipitem id="clipitem-930">
										<masterclipid>masterclip-31</masterclipid>
										<name>(alphafoodie)_B_FkQqoAa-J_IG.mp4</name>
										<enabled>TRUE</enabled>
										<duration>6262</duration>
										<rate>
											<timebase>30</timebase>
											<ntsc>TRUE</ntsc>
										</rate>
										<start>43182</start>
										<end>43287</end>
										<in>582</in>
										<out>687</out>
										<pproTicksIn>4932838310400</pproTicksIn>
										<pproTicksOut>5822783366400</pproTicksOut>
										<alphatype>none</alphatype>
										<file id="file-24"/>
										<filter>
											<effect>
												<name>Basic Motion</name>
												<effectid>basic</effectid>
												<effectcategory>motion</effectcategory>
												<effecttype>motion</effecttype>
												<mediatype>video</mediatype>
												<pproBypass>false</pproBypass>
												<parameter authoringApp="PremierePro">
													<parameterid>scale</parameterid>
													<name>Scale</name>
													<valuemin>0</valuemin>
													<valuemax>1000</valuemax>
													<value>100</value>
												</parameter>
												<parameter authoringApp="PremierePro">
													<parameterid>rotation</parameterid>
													<name>Rotation</name>
													<valuemin>-8640</valuemin>
													<valuemax>8640</valuemax>
													<value>0</value>
												</parameter>
												<parameter authoringApp="PremierePro">
													<parameterid>center</parameterid>
													<name>Center</name>
													<value>
														<horiz>0.0194445</horiz>
														<vert>0</vert>
													</value>
												</parameter>
												<parameter authoringApp="PremierePro">
													<parameterid>centerOffset</parameterid>
													<name>Anchor Point</name>
													<value>
														<horiz>0</horiz>
														<vert>0</vert>
													</value>
												</parameter>
												<parameter authoringApp="PremierePro">
													<parameterid>antiflicker</parameterid>
													<name>Anti-flicker Filter</name>
													<valuemin>0.0</valuemin>
													<valuemax>1.0</valuemax>
													<value>0</value>
												</parameter>
											</effect>
										</filter>
										<logginginfo>
											<description></description>
											<scene></scene>
											<shottake></shottake>
											<lognote></lognote>
											<good></good>
											<originalvideofilename></originalvideofilename>
											<originalaudiofilename></originalaudiofilename>
										</logginginfo>
										<colorinfo>
											<lut></lut>
											<lut1></lut1>
											<asc_sop></asc_sop>
											<asc_sat></asc_sat>
											<lut2></lut2>
										</colorinfo>
										<labels>
											<label2>Violet</label2>
										</labels>
									</clipitem>
									<clipitem id="clipitem-931">
										<masterclipid>masterclip-31</masterclipid>
										<name>(alphafoodie)_B_FkQqoAa-J_IG.mp4</name>
										<enabled>TRUE</enabled>
										<duration>6262</duration>
										<rate>
											<timebase>30</timebase>
											<ntsc>TRUE</ntsc>
										</rate>
										<start>43287</start>
										<end>43342</end>
										<in>1088</in>
										<out>1143</out>
										<pproTicksIn>9221525913600</pproTicksIn>
										<pproTicksOut>9687687609600</pproTicksOut>
										<alphatype>none</alphatype>
										<file id="file-24"/>
										<filter>
											<effect>
												<name>Basic Motion</name>
												<effectid>basic</effectid>
												<effectcategory>motion</effectcategory>
												<effecttype>motion</effecttype>
												<mediatype>video</mediatype>
												<pproBypass>false</pproBypass>
												<parameter authoringApp="PremierePro">
													<parameterid>scale</parameterid>
													<name>Scale</name>
													<valuemin>0</valuemin>
													<valuemax>1000</valuemax>
													<value>100</value>
												</parameter>
												<parameter authoringApp="PremierePro">
													<parameterid>rotation</parameterid>
													<name>Rotation</name>
													<valuemin>-8640</valuemin>
													<valuemax>8640</valuemax>
													<value>0</value>
												</parameter>
												<parameter authoringApp="PremierePro">
													<parameterid>center</parameterid>
													<name>Center</name>
													<value>
														<horiz>0.0194445</horiz>
														<vert>0</vert>
													</value>
												</parameter>
												<parameter authoringApp="PremierePro">
													<parameterid>centerOffset</parameterid>
													<name>Anchor Point</name>
													<value>
														<horiz>0</horiz>
														<vert>0</vert>
													</value>
												</parameter>
												<parameter authoringApp="PremierePro">
													<parameterid>antiflicker</parameterid>
													<name>Anti-flicker Filter</name>
													<valuemin>0.0</valuemin>
													<valuemax>1.0</valuemax>
													<value>0</value>
												</parameter>
											</effect>
										</filter>
										<logginginfo>
											<description></description>
											<scene></scene>
											<shottake></shottake>
											<lognote></lognote>
											<good></good>
											<originalvideofilename></originalvideofilename>
											<originalaudiofilename></originalaudiofilename>
										</logginginfo>
										<colorinfo>
											<lut></lut>
											<lut1></lut1>
											<asc_sop></asc_sop>
											<asc_sat></asc_sat>
											<lut2></lut2>
										</colorinfo>
										<labels>
											<label2>Violet</label2>
										</labels>
									</clipitem>
									<clipitem id="clipitem-932">
										<masterclipid>masterclip-31</masterclipid>
										<name>(alphafoodie)_B_FkQqoAa-J_IG.mp4</name>
										<enabled>TRUE</enabled>
										<duration>6262</duration>
										<rate>
											<timebase>30</timebase>
											<ntsc>TRUE</ntsc>
										</rate>
										<start>43342</start>
										<end>43350</end>
										<in>1155</in>
										<out>1163</out>
										<pproTicksIn>9789395616000</pproTicksIn>
										<pproTicksOut>9857200953600</pproTicksOut>
										<alphatype>none</alphatype>
										<file id="file-24"/>
										<filter>
											<effect>
												<name>Basic Motion</name>
												<effectid>basic</effectid>
												<effectcategory>motion</effectcategory>
												<effecttype>motion</effecttype>
												<mediatype>video</mediatype>
												<pproBypass>false</pproBypass>
												<parameter authoringApp="PremierePro">
													<parameterid>scale</parameterid>
													<name>Scale</name>
													<valuemin>0</valuemin>
													<valuemax>1000</valuemax>
													<value>100</value>
												</parameter>
												<parameter authoringApp="PremierePro">
													<parameterid>rotation</parameterid>
													<name>Rotation</name>
													<valuemin>-8640</valuemin>
													<valuemax>8640</valuemax>
													<value>0</value>
												</parameter>
												<parameter authoringApp="PremierePro">
													<parameterid>center</parameterid>
													<name>Center</name>
													<value>
														<horiz>0.0180556</horiz>
														<vert>0</vert>
													</value>
												</parameter>
												<parameter authoringApp="PremierePro">
													<parameterid>centerOffset</parameterid>
													<name>Anchor Point</name>
													<value>
														<horiz>0</horiz>
														<vert>0</vert>
													</value>
												</parameter>
												<parameter authoringApp="PremierePro">
													<parameterid>antiflicker</parameterid>
													<name>Anti-flicker Filter</name>
													<valuemin>0.0</valuemin>
													<valuemax>1.0</valuemax>
													<value>0</value>
												</parameter>
											</effect>
										</filter>
										<logginginfo>
											<description></description>
											<scene></scene>
											<shottake></shottake>
											<lognote></lognote>
											<good></good>
											<originalvideofilename></originalvideofilename>
											<originalaudiofilename></originalaudiofilename>
										</logginginfo>
										<colorinfo>
											<lut></lut>
											<lut1></lut1>
											<asc_sop></asc_sop>
											<asc_sat></asc_sat>
											<lut2></lut2>
										</colorinfo>
										<labels>
											<label2>Violet</label2>
										</labels>
									</clipitem>
									<clipitem id="clipitem-933">
										<masterclipid>masterclip-31</masterclipid>
										<name>(alphafoodie)_B_FkQqoAa-J_IG.mp4</name>
										<enabled>TRUE</enabled>
										<duration>6262</duration>
										<rate>
											<timebase>30</timebase>
											<ntsc>TRUE</ntsc>
										</rate>
										<start>43350</start>
										<end>43455</end>
										<in>1199</in>
										<out>1304</out>
										<pproTicksIn>10162324972800</pproTicksIn>
										<pproTicksOut>11052270028800</pproTicksOut>
										<alphatype>none</alphatype>
										<file id="file-24"/>
										<filter>
											<effect>
												<name>Basic Motion</name>
												<effectid>basic</effectid>
												<effectcategory>motion</effectcategory>
												<effecttype>motion</effecttype>
												<mediatype>video</mediatype>
												<pproBypass>false</pproBypass>
												<parameter authoringApp="PremierePro">
													<parameterid>scale</parameterid>
													<name>Scale</name>
													<valuemin>0</valuemin>
													<valuemax>1000</valuemax>
													<value>100</value>
												</parameter>
												<parameter authoringApp="PremierePro">
													<parameterid>rotation</parameterid>
													<name>Rotation</name>
													<valuemin>-8640</valuemin>
													<valuemax>8640</valuemax>
													<value>0</value>
												</parameter>
												<parameter authoringApp="PremierePro">
													<parameterid>center</parameterid>
													<name>Center</name>
													<value>
														<horiz>0.0194445</horiz>
														<vert>0</vert>
													</value>
												</parameter>
												<parameter authoringApp="PremierePro">
													<parameterid>centerOffset</parameterid>
													<name>Anchor Point</name>
													<value>
														<horiz>0</horiz>
														<vert>0</vert>
													</value>
												</parameter>
												<parameter authoringApp="PremierePro">
													<parameterid>antiflicker</parameterid>
													<name>Anti-flicker Filter</name>
													<valuemin>0.0</valuemin>
													<valuemax>1.0</valuemax>
													<value>0</value>
												</parameter>
											</effect>
										</filter>
										<logginginfo>
											<description></description>
											<scene></scene>
											<shottake></shottake>
											<lognote></lognote>
											<good></good>
											<originalvideofilename></originalvideofilename>
											<originalaudiofilename></originalaudiofilename>
										</logginginfo>
										<colorinfo>
											<lut></lut>
											<lut1></lut1>
											<asc_sop></asc_sop>
											<asc_sat></asc_sat>
											<lut2></lut2>
										</colorinfo>
										<labels>
											<label2>Violet</label2>
										</labels>
									</clipitem>
									<clipitem id="clipitem-934">
										<masterclipid>masterclip-31</masterclipid>
										<name>(alphafoodie)_B_FkQqoAa-J_IG.mp4</name>
										<enabled>TRUE</enabled>
										<duration>6262</duration>
										<rate>
											<timebase>30</timebase>
											<ntsc>TRUE</ntsc>
										</rate>
										<start>43455</start>
										<end>43474</end>
										<in>1421</in>
										<out>1440</out>
										<pproTicksIn>12043923091200</pproTicksIn>
										<pproTicksOut>12204960768000</pproTicksOut>
										<alphatype>none</alphatype>
										<file id="file-24"/>
										<filter>
											<effect>
												<name>Basic Motion</name>
												<effectid>basic</effectid>
												<effectcategory>motion</effectcategory>
												<effecttype>motion</effecttype>
												<mediatype>video</mediatype>
												<pproBypass>false</pproBypass>
												<parameter authoringApp="PremierePro">
													<parameterid>scale</parameterid>
													<name>Scale</name>
													<valuemin>0</valuemin>
													<valuemax>1000</valuemax>
													<value>100</value>
												</parameter>
												<parameter authoringApp="PremierePro">
													<parameterid>rotation</parameterid>
													<name>Rotation</name>
													<valuemin>-8640</valuemin>
													<valuemax>8640</valuemax>
													<value>0</value>
												</parameter>
												<parameter authoringApp="PremierePro">
													<parameterid>center</parameterid>
													<name>Center</name>
													<value>
														<horiz>0.0194445</horiz>
														<vert>0</vert>
													</value>
												</parameter>
												<parameter authoringApp="PremierePro">
													<parameterid>centerOffset</parameterid>
													<name>Anchor Point</name>
													<value>
														<horiz>0</horiz>
														<vert>0</vert>
													</value>
												</parameter>
												<parameter authoringApp="PremierePro">
													<parameterid>antiflicker</parameterid>
													<name>Anti-flicker Filter</name>
													<valuemin>0.0</valuemin>
													<valuemax>1.0</valuemax>
													<value>0</value>
												</parameter>
											</effect>
										</filter>
										<logginginfo>
											<description></description>
											<scene></scene>
											<shottake></shottake>
											<lognote></lognote>
											<good></good>
											<originalvideofilename></originalvideofilename>
											<originalaudiofilename></originalaudiofilename>
										</logginginfo>
										<colorinfo>
											<lut></lut>
											<lut1></lut1>
											<asc_sop></asc_sop>
											<asc_sat></asc_sat>
											<lut2></lut2>
										</colorinfo>
										<labels>
											<label2>Violet</label2>
										</labels>
									</clipitem>
									<clipitem id="clipitem-935">
										<masterclipid>masterclip-31</masterclipid>
										<name>(alphafoodie)_B_FkQqoAa-J_IG.mp4</name>
										<enabled>TRUE</enabled>
										<duration>6262</duration>
										<rate>
											<timebase>30</timebase>
											<ntsc>TRUE</ntsc>
										</rate>
										<start>43474</start>
										<end>43517</end>
										<in>1456</in>
										<out>1499</out>
										<pproTicksIn>12340571443200</pproTicksIn>
										<pproTicksOut>12705025132800</pproTicksOut>
										<alphatype>none</alphatype>
										<file id="file-24"/>
										<filter>
											<effect>
												<name>Basic Motion</name>
												<effectid>basic</effectid>
												<effectcategory>motion</effectcategory>
												<effecttype>motion</effecttype>
												<mediatype>video</mediatype>
												<pproBypass>false</pproBypass>
												<parameter authoringApp="PremierePro">
													<parameterid>scale</parameterid>
													<name>Scale</name>
													<valuemin>0</valuemin>
													<valuemax>1000</valuemax>
													<value>100</value>
												</parameter>
												<parameter authoringApp="PremierePro">
													<parameterid>rotation</parameterid>
													<name>Rotation</name>
													<valuemin>-8640</valuemin>
													<valuemax>8640</valuemax>
													<value>0</value>
												</parameter>
												<parameter authoringApp="PremierePro">
													<parameterid>center</parameterid>
													<name>Center</name>
													<value>
														<horiz>0.0194445</horiz>
														<vert>0</vert>
													</value>
												</parameter>
												<parameter authoringApp="PremierePro">
													<parameterid>centerOffset</parameterid>
													<name>Anchor Point</name>
													<value>
														<horiz>0</horiz>
														<vert>0</vert>
													</value>
												</parameter>
												<parameter authoringApp="PremierePro">
													<parameterid>antiflicker</parameterid>
													<name>Anti-flicker Filter</name>
													<valuemin>0.0</valuemin>
													<valuemax>1.0</valuemax>
													<value>0</value>
												</parameter>
											</effect>
										</filter>
										<logginginfo>
											<description></description>
											<scene></scene>
											<shottake></shottake>
											<lognote></lognote>
											<good></good>
											<originalvideofilename></originalvideofilename>
											<originalaudiofilename></originalaudiofilename>
										</logginginfo>
										<colorinfo>
											<lut></lut>
											<lut1></lut1>
											<asc_sop></asc_sop>
											<asc_sat></asc_sat>
											<lut2></lut2>
										</colorinfo>
										<labels>
											<label2>Violet</label2>
										</labels>
									</clipitem>
									<clipitem id="clipitem-936">
										<masterclipid>masterclip-31</masterclipid>
										<name>(alphafoodie)_B_FkQqoAa-J_IG.mp4</name>
										<enabled>TRUE</enabled>
										<duration>6262</duration>
										<rate>
											<timebase>30</timebase>
											<ntsc>TRUE</ntsc>
										</rate>
										<start>43517</start>
										<end>43527</end>
										<in>1530</in>
										<out>1540</out>
										<pproTicksIn>12967770816000</pproTicksIn>
										<pproTicksOut>13052527488000</pproTicksOut>
										<alphatype>none</alphatype>
										<file id="file-24"/>
										<filter>
											<effect>
												<name>Basic Motion</name>
												<effectid>basic</effectid>
												<effectcategory>motion</effectcategory>
												<effecttype>motion</effecttype>
												<mediatype>video</mediatype>
												<pproBypass>false</pproBypass>
												<parameter authoringApp="PremierePro">
													<parameterid>scale</parameterid>
													<name>Scale</name>
													<valuemin>0</valuemin>
													<valuemax>1000</valuemax>
													<value>100</value>
												</parameter>
												<parameter authoringApp="PremierePro">
													<parameterid>rotation</parameterid>
													<name>Rotation</name>
													<valuemin>-8640</valuemin>
													<valuemax>8640</valuemax>
													<value>0</value>
												</parameter>
												<parameter authoringApp="PremierePro">
													<parameterid>center</parameterid>
													<name>Center</name>
													<value>
														<horiz>0.0194445</horiz>
														<vert>0</vert>
													</value>
												</parameter>
												<parameter authoringApp="PremierePro">
													<parameterid>centerOffset</parameterid>
													<name>Anchor Point</name>
													<value>
														<horiz>0</horiz>
														<vert>0</vert>
													</value>
												</parameter>
												<parameter authoringApp="PremierePro">
													<parameterid>antiflicker</parameterid>
													<name>Anti-flicker Filter</name>
													<valuemin>0.0</valuemin>
													<valuemax>1.0</valuemax>
													<value>0</value>
												</parameter>
											</effect>
										</filter>
										<logginginfo>
											<description></description>
											<scene></scene>
											<shottake></shottake>
											<lognote></lognote>
											<good></good>
											<originalvideofilename></originalvideofilename>
											<originalaudiofilename></originalaudiofilename>
										</logginginfo>
										<colorinfo>
											<lut></lut>
											<lut1></lut1>
											<asc_sop></asc_sop>
											<asc_sat></asc_sat>
											<lut2></lut2>
										</colorinfo>
										<labels>
											<label2>Violet</label2>
										</labels>
									</clipitem>
									<clipitem id="clipitem-937">
										<masterclipid>masterclip-31</masterclipid>
										<name>(alphafoodie)_B_FkQqoAa-J_IG.mp4</name>
										<enabled>TRUE</enabled>
										<duration>6262</duration>
										<rate>
											<timebase>30</timebase>
											<ntsc>TRUE</ntsc>
										</rate>
										<start>43527</start>
										<end>43874</end>
										<in>1659</in>
										<out>2006</out>
										<pproTicksIn>14061131884800</pproTicksIn>
										<pproTicksOut>17002188403200</pproTicksOut>
										<alphatype>none</alphatype>
										<file id="file-24"/>
										<filter>
											<effect>
												<name>Basic Motion</name>
												<effectid>basic</effectid>
												<effectcategory>motion</effectcategory>
												<effecttype>motion</effecttype>
												<mediatype>video</mediatype>
												<pproBypass>false</pproBypass>
												<parameter authoringApp="PremierePro">
													<parameterid>scale</parameterid>
													<name>Scale</name>
													<valuemin>0</valuemin>
													<valuemax>1000</valuemax>
													<value>100</value>
												</parameter>
												<parameter authoringApp="PremierePro">
													<parameterid>rotation</parameterid>
													<name>Rotation</name>
													<valuemin>-8640</valuemin>
													<valuemax>8640</valuemax>
													<value>0</value>
												</parameter>
												<parameter authoringApp="PremierePro">
													<parameterid>center</parameterid>
													<name>Center</name>
													<value>
														<horiz>0.0194445</horiz>
														<vert>0</vert>
													</value>
												</parameter>
												<parameter authoringApp="PremierePro">
													<parameterid>centerOffset</parameterid>
													<name>Anchor Point</name>
													<value>
														<horiz>0</horiz>
														<vert>0</vert>
													</value>
												</parameter>
												<parameter authoringApp="PremierePro">
													<parameterid>antiflicker</parameterid>
													<name>Anti-flicker Filter</name>
													<valuemin>0.0</valuemin>
													<valuemax>1.0</valuemax>
													<value>0</value>
												</parameter>
											</effect>
										</filter>
										<logginginfo>
											<description></description>
											<scene></scene>
											<shottake></shottake>
											<lognote></lognote>
											<good></good>
											<originalvideofilename></originalvideofilename>
											<originalaudiofilename></originalaudiofilename>
										</logginginfo>
										<colorinfo>
											<lut></lut>
											<lut1></lut1>
											<asc_sop></asc_sop>
											<asc_sat></asc_sat>
											<lut2></lut2>
										</colorinfo>
										<labels>
											<label2>Violet</label2>
										</labels>
									</clipitem>
									<clipitem id="clipitem-938">
										<masterclipid>masterclip-32</masterclipid>
										<name>(bakedbyprecious)_7052170681194269999_TT.mp4</name>
										<enabled>TRUE</enabled>
										<duration>433</duration>
										<rate>
											<timebase>30</timebase>
											<ntsc>TRUE</ntsc>
										</rate>
										<start>43874</start>
										<end>44301</end>
										<in>6</in>
										<out>433</out>
										<pproTicksIn>50854003200</pproTicksIn>
										<pproTicksOut>3669963897600</pproTicksOut>
										<alphatype>none</alphatype>
										<file id="file-25"/>
										<filter>
											<effect>
												<name>Basic Motion</name>
												<effectid>basic</effectid>
												<effectcategory>motion</effectcategory>
												<effecttype>motion</effecttype>
												<mediatype>video</mediatype>
												<pproBypass>false</pproBypass>
												<parameter authoringApp="PremierePro">
													<parameterid>scale</parameterid>
													<name>Scale</name>
													<valuemin>0</valuemin>
													<valuemax>1000</valuemax>
													<value>100</value>
												</parameter>
												<parameter authoringApp="PremierePro">
													<parameterid>rotation</parameterid>
													<name>Rotation</name>
													<valuemin>-8640</valuemin>
													<valuemax>8640</valuemax>
													<value>0</value>
												</parameter>
												<parameter authoringApp="PremierePro">
													<parameterid>center</parameterid>
													<name>Center</name>
													<value>
														<horiz>0.0243056</horiz>
														<vert>0</vert>
													</value>
												</parameter>
												<parameter authoringApp="PremierePro">
													<parameterid>centerOffset</parameterid>
													<name>Anchor Point</name>
													<value>
														<horiz>0</horiz>
														<vert>0</vert>
													</value>
												</parameter>
												<parameter authoringApp="PremierePro">
													<parameterid>antiflicker</parameterid>
													<name>Anti-flicker Filter</name>
													<valuemin>0.0</valuemin>
													<valuemax>1.0</valuemax>
													<value>0</value>
												</parameter>
											</effect>
										</filter>
										<logginginfo>
											<description></description>
											<scene></scene>
											<shottake></shottake>
											<lognote></lognote>
											<good></good>
											<originalvideofilename></originalvideofilename>
											<originalaudiofilename></originalaudiofilename>
										</logginginfo>
										<colorinfo>
											<lut></lut>
											<lut1></lut1>
											<asc_sop></asc_sop>
											<asc_sat></asc_sat>
											<lut2></lut2>
										</colorinfo>
										<labels>
											<label2>Violet</label2>
										</labels>
									</clipitem>
									<clipitem id="clipitem-939">
										<masterclipid>masterclip-33</masterclipid>
										<name>(roastedpepper)_7129231606341963051_TT.mp4</name>
										<enabled>TRUE</enabled>
										<duration>906</duration>
										<rate>
											<timebase>30</timebase>
											<ntsc>TRUE</ntsc>
										</rate>
										<start>44301</start>
										<end>44915</end>
										<in>238</in>
										<out>851</out>
										<pproTicksIn>2415565152000</pproTicksIn>
										<pproTicksOut>8660436744960</pproTicksOut>
										<alphatype>none</alphatype>
										<file id="file-26"/>
										<filter>
											<effect>
												<name>Basic Motion</name>
												<effectid>basic</effectid>
												<effectcategory>motion</effectcategory>
												<effecttype>motion</effecttype>
												<mediatype>video</mediatype>
												<pproBypass>false</pproBypass>
												<parameter authoringApp="PremierePro">
													<parameterid>scale</parameterid>
													<name>Scale</name>
													<valuemin>0</valuemin>
													<valuemax>1000</valuemax>
													<value>100</value>
												</parameter>
												<parameter authoringApp="PremierePro">
													<parameterid>rotation</parameterid>
													<name>Rotation</name>
													<valuemin>-8640</valuemin>
													<valuemax>8640</valuemax>
													<value>0</value>
												</parameter>
												<parameter authoringApp="PremierePro">
													<parameterid>center</parameterid>
													<name>Center</name>
													<value>
														<horiz>0.0243056</horiz>
														<vert>0</vert>
													</value>
												</parameter>
												<parameter authoringApp="PremierePro">
													<parameterid>centerOffset</parameterid>
													<name>Anchor Point</name>
													<value>
														<horiz>0</horiz>
														<vert>0</vert>
													</value>
												</parameter>
												<parameter authoringApp="PremierePro">
													<parameterid>antiflicker</parameterid>
													<name>Anti-flicker Filter</name>
													<valuemin>0.0</valuemin>
													<valuemax>1.0</valuemax>
													<value>0</value>
												</parameter>
											</effect>
										</filter>
										<filter>
											<effect>
												<name>Time Remap</name>
												<effectid>timeremap</effectid>
												<effectcategory>motion</effectcategory>
												<effecttype>motion</effecttype>
												<mediatype>video</mediatype>
												<parameter authoringApp="PremierePro">
													<parameterid>variablespeed</parameterid>
													<name>variablespeed</name>
													<valuemin>0</valuemin>
													<valuemax>1</valuemax>
													<value>0</value>
												</parameter>
												<parameter authoringApp="PremierePro">
													<parameterid>speed</parameterid>
													<name>speed</name>
													<valuemin>-100000</valuemin>
													<valuemax>100000</valuemax>
													<value>120</value>
												</parameter>
												<parameter authoringApp="PremierePro">
													<parameterid>reverse</parameterid>
													<name>reverse</name>
													<value>FALSE</value>
												</parameter>
												<parameter authoringApp="PremierePro">
													<parameterid>frameblending</parameterid>
													<name>frameblending</name>
													<value>FALSE</value>
												</parameter>
												<parameter authoringApp="PremierePro">
													<parameterid>graphdict</parameterid>
													<name>graphdict</name>
													<valuemin>0</valuemin>
													<valuemax>1087</valuemax>
													<value>0</value>
													<keyframe>
														<when>0</when>
														<value>0</value>
														<speedvirtualkf>TRUE</speedvirtualkf>
														<speedkfstart>TRUE</speedkfstart>
													</keyframe>
													<keyframe>
														<when>238</when>
														<value>285</value>
														<speedvirtualkf>TRUE</speedvirtualkf>
														<speedkfin>TRUE</speedkfin>
													</keyframe>
													<keyframe>
														<when>851</when>
														<value>1021</value>
														<speedvirtualkf>TRUE</speedvirtualkf>
														<speedkfout>TRUE</speedkfout>
													</keyframe>
													<keyframe>
														<when>906</when>
														<value>1087</value>
														<speedvirtualkf>TRUE</speedvirtualkf>
														<speedkfend>TRUE</speedkfend>
													</keyframe>
													<interpolation>
														<name>FCPCurve</name>
													</interpolation>
												</parameter>
											</effect>
										</filter>
										<logginginfo>
											<description></description>
											<scene></scene>
											<shottake></shottake>
											<lognote></lognote>
											<good></good>
											<originalvideofilename></originalvideofilename>
											<originalaudiofilename></originalaudiofilename>
										</logginginfo>
										<colorinfo>
											<lut></lut>
											<lut1></lut1>
											<asc_sop></asc_sop>
											<asc_sat></asc_sat>
											<lut2></lut2>
										</colorinfo>
										<labels>
											<label2>Violet</label2>
										</labels>
									</clipitem>
									<clipitem id="clipitem-940">
										<masterclipid>masterclip-34</masterclipid>
										<name>(loganscandies)_6941446682286574854_TT.mp4</name>
										<enabled>TRUE</enabled>
										<duration>595</duration>
										<rate>
											<timebase>30</timebase>
											<ntsc>TRUE</ntsc>
										</rate>
										<start>44915</start>
										<end>45510</end>
										<in>0</in>
										<out>595</out>
										<pproTicksIn>0</pproTicksIn>
										<pproTicksOut>5043021984000</pproTicksOut>
										<alphatype>none</alphatype>
										<file id="file-27"/>
										<filter>
											<effect>
												<name>Basic Motion</name>
												<effectid>basic</effectid>
												<effectcategory>motion</effectcategory>
												<effecttype>motion</effecttype>
												<mediatype>video</mediatype>
												<pproBypass>false</pproBypass>
												<parameter authoringApp="PremierePro">
													<parameterid>scale</parameterid>
													<name>Scale</name>
													<valuemin>0</valuemin>
													<valuemax>1000</valuemax>
													<value>100</value>
												</parameter>
												<parameter authoringApp="PremierePro">
													<parameterid>rotation</parameterid>
													<name>Rotation</name>
													<valuemin>-8640</valuemin>
													<valuemax>8640</valuemax>
													<value>0</value>
												</parameter>
												<parameter authoringApp="PremierePro">
													<parameterid>center</parameterid>
													<name>Center</name>
													<value>
														<horiz>0.0243056</horiz>
														<vert>0</vert>
													</value>
												</parameter>
												<parameter authoringApp="PremierePro">
													<parameterid>centerOffset</parameterid>
													<name>Anchor Point</name>
													<value>
														<horiz>0</horiz>
														<vert>0</vert>
													</value>
												</parameter>
												<parameter authoringApp="PremierePro">
													<parameterid>antiflicker</parameterid>
													<name>Anti-flicker Filter</name>
													<valuemin>0.0</valuemin>
													<valuemax>1.0</valuemax>
													<value>0</value>
												</parameter>
											</effect>
										</filter>
										<logginginfo>
											<description></description>
											<scene></scene>
											<shottake></shottake>
											<lognote></lognote>
											<good></good>
											<originalvideofilename></originalvideofilename>
											<originalaudiofilename></originalaudiofilename>
										</logginginfo>
										<colorinfo>
											<lut></lut>
											<lut1></lut1>
											<asc_sop></asc_sop>
											<asc_sat></asc_sat>
											<lut2></lut2>
										</colorinfo>
										<labels>
											<label2>Violet</label2>
										</labels>
									</clipitem>
									<clipitem id="clipitem-941">
										<masterclipid>masterclip-35</masterclipid>
										<name>(sugarandsparrowco)_CZe0T1NoJTE_IG.mp4</name>
										<enabled>TRUE</enabled>
										<duration>1012</duration>
										<rate>
											<timebase>30</timebase>
											<ntsc>TRUE</ntsc>
										</rate>
										<start>45510</start>
										<end>46102</end>
										<in>165</in>
										<out>757</out>
										<pproTicksIn>1398485088000</pproTicksIn>
										<pproTicksOut>6416080070400</pproTicksOut>
										<alphatype>none</alphatype>
										<file id="file-28"/>
										<filter>
											<effect>
												<name>Basic Motion</name>
												<effectid>basic</effectid>
												<effectcategory>motion</effectcategory>
												<effecttype>motion</effecttype>
												<mediatype>video</mediatype>
												<pproBypass>false</pproBypass>
												<parameter authoringApp="PremierePro">
													<parameterid>scale</parameterid>
													<name>Scale</name>
													<valuemin>0</valuemin>
													<valuemax>1000</valuemax>
													<value>100</value>
												</parameter>
												<parameter authoringApp="PremierePro">
													<parameterid>rotation</parameterid>
													<name>Rotation</name>
													<valuemin>-8640</valuemin>
													<valuemax>8640</valuemax>
													<value>0</value>
												</parameter>
												<parameter authoringApp="PremierePro">
													<parameterid>center</parameterid>
													<name>Center</name>
													<value>
														<horiz>0.0194445</horiz>
														<vert>0</vert>
													</value>
												</parameter>
												<parameter authoringApp="PremierePro">
													<parameterid>centerOffset</parameterid>
													<name>Anchor Point</name>
													<value>
														<horiz>0</horiz>
														<vert>0</vert>
													</value>
												</parameter>
												<parameter authoringApp="PremierePro">
													<parameterid>antiflicker</parameterid>
													<name>Anti-flicker Filter</name>
													<valuemin>0.0</valuemin>
													<valuemax>1.0</valuemax>
													<value>0</value>
												</parameter>
											</effect>
										</filter>
										<logginginfo>
											<description></description>
											<scene></scene>
											<shottake></shottake>
											<lognote></lognote>
											<good></good>
											<originalvideofilename></originalvideofilename>
											<originalaudiofilename></originalaudiofilename>
										</logginginfo>
										<colorinfo>
											<lut></lut>
											<lut1></lut1>
											<asc_sop></asc_sop>
											<asc_sat></asc_sat>
											<lut2></lut2>
										</colorinfo>
										<labels>
											<label2>Violet</label2>
										</labels>
									</clipitem>
									<clipitem id="clipitem-942">
										<masterclipid>masterclip-45</masterclipid>
										<name>202105_Man Chef Cook Cooking_By_Hans_Peter_Schepp_Artlist_HD.mp4</name>
										<enabled>TRUE</enabled>
										<duration>209</duration>
										<rate>
											<timebase>30</timebase>
											<ntsc>TRUE</ntsc>
										</rate>
										<start>46102</start>
										<end>46311</end>
										<in>0</in>
										<out>208</out>
										<pproTicksIn>0</pproTicksIn>
										<pproTicksOut>1948555889280</pproTicksOut>
										<alphatype>none</alphatype>
										<file id="file-35"/>
										<filter>
											<effect>
												<name>Time Remap</name>
												<effectid>timeremap</effectid>
												<effectcategory>motion</effectcategory>
												<effecttype>motion</effecttype>
												<mediatype>video</mediatype>
												<parameter authoringApp="PremierePro">
													<parameterid>variablespeed</parameterid>
													<name>variablespeed</name>
													<valuemin>0</valuemin>
													<valuemax>1</valuemax>
													<value>0</value>
												</parameter>
												<parameter authoringApp="PremierePro">
													<parameterid>speed</parameterid>
													<name>speed</name>
													<valuemin>-100000</valuemin>
													<valuemax>100000</valuemax>
													<value>110</value>
												</parameter>
												<parameter authoringApp="PremierePro">
													<parameterid>reverse</parameterid>
													<name>reverse</name>
													<value>FALSE</value>
												</parameter>
												<parameter authoringApp="PremierePro">
													<parameterid>frameblending</parameterid>
													<name>frameblending</name>
													<value>FALSE</value>
												</parameter>
												<parameter authoringApp="PremierePro">
													<parameterid>graphdict</parameterid>
													<name>graphdict</name>
													<valuemin>0</valuemin>
													<valuemax>229</valuemax>
													<value>0</value>
													<keyframe>
														<when>0</when>
														<value>0</value>
														<speedvirtualkf>TRUE</speedvirtualkf>
														<speedkfin>TRUE</speedkfin>
													</keyframe>
													<keyframe>
														<when>208</when>
														<value>228</value>
														<speedvirtualkf>TRUE</speedvirtualkf>
														<speedkfout>TRUE</speedkfout>
													</keyframe>
													<keyframe>
														<when>209</when>
														<value>229</value>
														<speedvirtualkf>TRUE</speedvirtualkf>
														<speedkfend>TRUE</speedkfend>
													</keyframe>
													<interpolation>
														<name>FCPCurve</name>
													</interpolation>
												</parameter>
											</effect>
										</filter>
										<filter>
											<effect>
												<name>Distort</name>
												<effectid>deformation</effectid>
												<effectcategory>motion</effectcategory>
												<effecttype>motion</effecttype>
												<mediatype>video</mediatype>
												<parameter authoringApp="PremierePro">
													<parameterid>aspect</parameterid>
													<name>Aspect</name>
													<valuemin>-10000</valuemin>
													<valuemax>10000</valuemax>
													<value>-9.36709</value>
												</parameter>
											</effect>
										</filter>
										<filter>
											<effect>
												<name>Basic Motion</name>
												<effectid>basic</effectid>
												<effectcategory>motion</effectcategory>
												<effecttype>motion</effecttype>
												<mediatype>video</mediatype>
												<parameter authoringApp="PremierePro">
													<parameterid>scale</parameterid>
													<name>Scale</name>
													<value>109.367</value>
												</parameter>
											</effect>
										</filter>
										<logginginfo>
											<description></description>
											<scene></scene>
											<shottake></shottake>
											<lognote></lognote>
											<good></good>
											<originalvideofilename></originalvideofilename>
											<originalaudiofilename></originalaudiofilename>
										</logginginfo>
										<colorinfo>
											<lut></lut>
											<lut1></lut1>
											<asc_sop></asc_sop>
											<asc_sat></asc_sat>
											<lut2></lut2>
										</colorinfo>
										<labels>
											<label2>Violet</label2>
										</labels>
									</clipitem>
									<clipitem id="clipitem-943">
										<masterclipid>masterclip-46</masterclipid>
										<name>202106_Man Chef Cook Cooking_By_Hans_Peter_Schepp_Artlist_HD.mp4</name>
										<enabled>TRUE</enabled>
										<duration>166</duration>
										<rate>
											<timebase>30</timebase>
											<ntsc>TRUE</ntsc>
										</rate>
										<start>46311</start>
										<end>46477</end>
										<in>0</in>
										<out>166</out>
										<pproTicksIn>0</pproTicksIn>
										<pproTicksOut>1547656830720</pproTicksOut>
										<alphatype>none</alphatype>
										<file id="file-36"/>
										<filter>
											<effect>
												<name>Time Remap</name>
												<effectid>timeremap</effectid>
												<effectcategory>motion</effectcategory>
												<effecttype>motion</effecttype>
												<mediatype>video</mediatype>
												<parameter authoringApp="PremierePro">
													<parameterid>variablespeed</parameterid>
													<name>variablespeed</name>
													<valuemin>0</valuemin>
													<valuemax>1</valuemax>
													<value>0</value>
												</parameter>
												<parameter authoringApp="PremierePro">
													<parameterid>speed</parameterid>
													<name>speed</name>
													<valuemin>-100000</valuemin>
													<valuemax>100000</valuemax>
													<value>110</value>
												</parameter>
												<parameter authoringApp="PremierePro">
													<parameterid>reverse</parameterid>
													<name>reverse</name>
													<value>FALSE</value>
												</parameter>
												<parameter authoringApp="PremierePro">
													<parameterid>frameblending</parameterid>
													<name>frameblending</name>
													<value>FALSE</value>
												</parameter>
												<parameter authoringApp="PremierePro">
													<parameterid>graphdict</parameterid>
													<name>graphdict</name>
													<valuemin>0</valuemin>
													<valuemax>182</valuemax>
													<value>0</value>
													<keyframe>
														<when>0</when>
														<value>0</value>
														<speedvirtualkf>TRUE</speedvirtualkf>
														<speedkfin>TRUE</speedkfin>
													</keyframe>
													<keyframe>
														<when>166</when>
														<value>182</value>
														<speedvirtualkf>TRUE</speedvirtualkf>
														<speedkfout>TRUE</speedkfout>
													</keyframe>
													<interpolation>
														<name>FCPCurve</name>
													</interpolation>
												</parameter>
											</effect>
										</filter>
										<filter>
											<effect>
												<name>Distort</name>
												<effectid>deformation</effectid>
												<effectcategory>motion</effectcategory>
												<effecttype>motion</effecttype>
												<mediatype>video</mediatype>
												<parameter authoringApp="PremierePro">
													<parameterid>aspect</parameterid>
													<name>Aspect</name>
													<valuemin>-10000</valuemin>
													<valuemax>10000</valuemax>
													<value>-9.36709</value>
												</parameter>
											</effect>
										</filter>
										<filter>
											<effect>
												<name>Basic Motion</name>
												<effectid>basic</effectid>
												<effectcategory>motion</effectcategory>
												<effecttype>motion</effecttype>
												<mediatype>video</mediatype>
												<parameter authoringApp="PremierePro">
													<parameterid>scale</parameterid>
													<name>Scale</name>
													<value>109.367</value>
												</parameter>
											</effect>
										</filter>
										<logginginfo>
											<description></description>
											<scene></scene>
											<shottake></shottake>
											<lognote></lognote>
											<good></good>
											<originalvideofilename></originalvideofilename>
											<originalaudiofilename></originalaudiofilename>
										</logginginfo>
										<colorinfo>
											<lut></lut>
											<lut1></lut1>
											<asc_sop></asc_sop>
											<asc_sat></asc_sat>
											<lut2></lut2>
										</colorinfo>
										<labels>
											<label2>Violet</label2>
										</labels>
									</clipitem>
									<clipitem id="clipitem-944">
										<masterclipid>masterclip-47</masterclipid>
										<name>202107_Man Chef Cook Cooking_By_Hans_Peter_Schepp_Artlist_HD.mp4</name>
										<enabled>TRUE</enabled>
										<duration>216</duration>
										<rate>
											<timebase>30</timebase>
											<ntsc>TRUE</ntsc>
										</rate>
										<start>46477</start>
										<end>46693</end>
										<in>0</in>
										<out>215</out>
										<pproTicksIn>0</pproTicksIn>
										<pproTicksOut>2013818526720</pproTicksOut>
										<alphatype>none</alphatype>
										<file id="file-37"/>
										<filter>
											<effect>
												<name>Time Remap</name>
												<effectid>timeremap</effectid>
												<effectcategory>motion</effectcategory>
												<effecttype>motion</effecttype>
												<mediatype>video</mediatype>
												<parameter authoringApp="PremierePro">
													<parameterid>variablespeed</parameterid>
													<name>variablespeed</name>
													<valuemin>0</valuemin>
													<valuemax>1</valuemax>
													<value>0</value>
												</parameter>
												<parameter authoringApp="PremierePro">
													<parameterid>speed</parameterid>
													<name>speed</name>
													<valuemin>-100000</valuemin>
													<valuemax>100000</valuemax>
													<value>110</value>
												</parameter>
												<parameter authoringApp="PremierePro">
													<parameterid>reverse</parameterid>
													<name>reverse</name>
													<value>FALSE</value>
												</parameter>
												<parameter authoringApp="PremierePro">
													<parameterid>frameblending</parameterid>
													<name>frameblending</name>
													<value>FALSE</value>
												</parameter>
												<parameter authoringApp="PremierePro">
													<parameterid>graphdict</parameterid>
													<name>graphdict</name>
													<valuemin>0</valuemin>
													<valuemax>237</valuemax>
													<value>0</value>
													<keyframe>
														<when>0</when>
														<value>0</value>
														<speedvirtualkf>TRUE</speedvirtualkf>
														<speedkfin>TRUE</speedkfin>
													</keyframe>
													<keyframe>
														<when>215</when>
														<value>236</value>
														<speedvirtualkf>TRUE</speedvirtualkf>
														<speedkfout>TRUE</speedkfout>
													</keyframe>
													<keyframe>
														<when>216</when>
														<value>237</value>
														<speedvirtualkf>TRUE</speedvirtualkf>
														<speedkfend>TRUE</speedkfend>
													</keyframe>
													<interpolation>
														<name>FCPCurve</name>
													</interpolation>
												</parameter>
											</effect>
										</filter>
										<filter>
											<effect>
												<name>Distort</name>
												<effectid>deformation</effectid>
												<effectcategory>motion</effectcategory>
												<effecttype>motion</effecttype>
												<mediatype>video</mediatype>
												<parameter authoringApp="PremierePro">
													<parameterid>aspect</parameterid>
													<name>Aspect</name>
													<valuemin>-10000</valuemin>
													<valuemax>10000</valuemax>
													<value>-9.36709</value>
												</parameter>
											</effect>
										</filter>
										<filter>
											<effect>
												<name>Basic Motion</name>
												<effectid>basic</effectid>
												<effectcategory>motion</effectcategory>
												<effecttype>motion</effecttype>
												<mediatype>video</mediatype>
												<parameter authoringApp="PremierePro">
													<parameterid>scale</parameterid>
													<name>Scale</name>
													<value>109.367</value>
												</parameter>
											</effect>
										</filter>
										<logginginfo>
											<description></description>
											<scene></scene>
											<shottake></shottake>
											<lognote></lognote>
											<good></good>
											<originalvideofilename></originalvideofilename>
											<originalaudiofilename></originalaudiofilename>
										</logginginfo>
										<colorinfo>
											<lut></lut>
											<lut1></lut1>
											<asc_sop></asc_sop>
											<asc_sat></asc_sat>
											<lut2></lut2>
										</colorinfo>
										<labels>
											<label2>Violet</label2>
										</labels>
									</clipitem>
									<clipitem id="clipitem-945">
										<masterclipid>masterclip-48</masterclipid>
										<name>202108_Man Chef Cook Cooking_By_Hans_Peter_Schepp_Artlist_HD.mp4</name>
										<enabled>TRUE</enabled>
										<duration>254</duration>
										<rate>
											<timebase>30</timebase>
											<ntsc>TRUE</ntsc>
										</rate>
										<start>46693</start>
										<end>46948</end>
										<in>0</in>
										<out>254</out>
										<pproTicksIn>0</pproTicksIn>
										<pproTicksOut>2377424649600</pproTicksOut>
										<alphatype>none</alphatype>
										<file id="file-38"/>
										<filter>
											<effect>
												<name>Time Remap</name>
												<effectid>timeremap</effectid>
												<effectcategory>motion</effectcategory>
												<effecttype>motion</effecttype>
												<mediatype>video</mediatype>
												<parameter authoringApp="PremierePro">
													<parameterid>variablespeed</parameterid>
													<name>variablespeed</name>
													<valuemin>0</valuemin>
													<valuemax>1</valuemax>
													<value>0</value>
												</parameter>
												<parameter authoringApp="PremierePro">
													<parameterid>speed</parameterid>
													<name>speed</name>
													<valuemin>-100000</valuemin>
													<valuemax>100000</valuemax>
													<value>110</value>
												</parameter>
												<parameter authoringApp="PremierePro">
													<parameterid>reverse</parameterid>
													<name>reverse</name>
													<value>FALSE</value>
												</parameter>
												<parameter authoringApp="PremierePro">
													<parameterid>frameblending</parameterid>
													<name>frameblending</name>
													<value>FALSE</value>
												</parameter>
												<parameter authoringApp="PremierePro">
													<parameterid>graphdict</parameterid>
													<name>graphdict</name>
													<valuemin>0</valuemin>
													<valuemax>279</valuemax>
													<value>0</value>
													<keyframe>
														<when>0</when>
														<value>0</value>
														<speedvirtualkf>TRUE</speedvirtualkf>
														<speedkfin>TRUE</speedkfin>
													</keyframe>
													<keyframe>
														<when>254</when>
														<value>279</value>
														<speedvirtualkf>TRUE</speedvirtualkf>
														<speedkfout>TRUE</speedkfout>
													</keyframe>
													<interpolation>
														<name>FCPCurve</name>
													</interpolation>
												</parameter>
											</effect>
										</filter>
										<filter>
											<effect>
												<name>Distort</name>
												<effectid>deformation</effectid>
												<effectcategory>motion</effectcategory>
												<effecttype>motion</effecttype>
												<mediatype>video</mediatype>
												<parameter authoringApp="PremierePro">
													<parameterid>aspect</parameterid>
													<name>Aspect</name>
													<valuemin>-10000</valuemin>
													<valuemax>10000</valuemax>
													<value>-9.36709</value>
												</parameter>
											</effect>
										</filter>
										<filter>
											<effect>
												<name>Basic Motion</name>
												<effectid>basic</effectid>
												<effectcategory>motion</effectcategory>
												<effecttype>motion</effecttype>
												<mediatype>video</mediatype>
												<parameter authoringApp="PremierePro">
													<parameterid>scale</parameterid>
													<name>Scale</name>
													<value>109.367</value>
												</parameter>
											</effect>
										</filter>
										<logginginfo>
											<description></description>
											<scene></scene>
											<shottake></shottake>
											<lognote></lognote>
											<good></good>
											<originalvideofilename></originalvideofilename>
											<originalaudiofilename></originalaudiofilename>
										</logginginfo>
										<colorinfo>
											<lut></lut>
											<lut1></lut1>
											<asc_sop></asc_sop>
											<asc_sat></asc_sat>
											<lut2></lut2>
										</colorinfo>
										<labels>
											<label2>Violet</label2>
										</labels>
									</clipitem>
									<clipitem id="clipitem-946">
										<masterclipid>masterclip-49</masterclipid>
										<name>202109_0042_By_Hans_Peter_Schepp_Artlist_HD.mp4</name>
										<enabled>TRUE</enabled>
										<duration>144</duration>
										<rate>
											<timebase>30</timebase>
											<ntsc>TRUE</ntsc>
										</rate>
										<start>46948</start>
										<end>47042</end>
										<in>0</in>
										<out>93</out>
										<pproTicksIn>0</pproTicksIn>
										<pproTicksOut>876383988480</pproTicksOut>
										<alphatype>none</alphatype>
										<file id="file-39"/>
										<filter>
											<effect>
												<name>Time Remap</name>
												<effectid>timeremap</effectid>
												<effectcategory>motion</effectcategory>
												<effecttype>motion</effecttype>
												<mediatype>video</mediatype>
												<parameter authoringApp="PremierePro">
													<parameterid>variablespeed</parameterid>
													<name>variablespeed</name>
													<valuemin>0</valuemin>
													<valuemax>1</valuemax>
													<value>0</value>
												</parameter>
												<parameter authoringApp="PremierePro">
													<parameterid>speed</parameterid>
													<name>speed</name>
													<valuemin>-100000</valuemin>
													<valuemax>100000</valuemax>
													<value>110</value>
												</parameter>
												<parameter authoringApp="PremierePro">
													<parameterid>reverse</parameterid>
													<name>reverse</name>
													<value>FALSE</value>
												</parameter>
												<parameter authoringApp="PremierePro">
													<parameterid>frameblending</parameterid>
													<name>frameblending</name>
													<value>FALSE</value>
												</parameter>
												<parameter authoringApp="PremierePro">
													<parameterid>graphdict</parameterid>
													<name>graphdict</name>
													<valuemin>0</valuemin>
													<valuemax>158</valuemax>
													<value>0</value>
													<keyframe>
														<when>0</when>
														<value>0</value>
														<speedvirtualkf>TRUE</speedvirtualkf>
														<speedkfin>TRUE</speedkfin>
													</keyframe>
													<keyframe>
														<when>93</when>
														<value>102</value>
														<speedvirtualkf>TRUE</speedvirtualkf>
														<speedkfout>TRUE</speedkfout>
													</keyframe>
													<keyframe>
														<when>144</when>
														<value>158</value>
														<speedvirtualkf>TRUE</speedvirtualkf>
														<speedkfend>TRUE</speedkfend>
													</keyframe>
													<interpolation>
														<name>FCPCurve</name>
													</interpolation>
												</parameter>
											</effect>
										</filter>
										<filter>
											<effect>
												<name>Distort</name>
												<effectid>deformation</effectid>
												<effectcategory>motion</effectcategory>
												<effecttype>motion</effecttype>
												<mediatype>video</mediatype>
												<parameter authoringApp="PremierePro">
													<parameterid>aspect</parameterid>
													<name>Aspect</name>
													<valuemin>-10000</valuemin>
													<valuemax>10000</valuemax>
													<value>-9.36709</value>
												</parameter>
											</effect>
										</filter>
										<filter>
											<effect>
												<name>Basic Motion</name>
												<effectid>basic</effectid>
												<effectcategory>motion</effectcategory>
												<effecttype>motion</effecttype>
												<mediatype>video</mediatype>
												<parameter authoringApp="PremierePro">
													<parameterid>scale</parameterid>
													<name>Scale</name>
													<value>109.367</value>
												</parameter>
											</effect>
										</filter>
										<logginginfo>
											<description></description>
											<scene></scene>
											<shottake></shottake>
											<lognote></lognote>
											<good></good>
											<originalvideofilename></originalvideofilename>
											<originalaudiofilename></originalaudiofilename>
										</logginginfo>
										<colorinfo>
											<lut></lut>
											<lut1></lut1>
											<asc_sop></asc_sop>
											<asc_sat></asc_sat>
											<lut2></lut2>
										</colorinfo>
									</clipitem>
									<clipitem id="clipitem-947">
										<masterclipid>masterclip-50</masterclipid>
										<name>202110_Man Chef Cook Cooking_By_Hans_Peter_Schepp_Artlist_HD.mp4</name>
										<enabled>TRUE</enabled>
										<duration>140</duration>
										<rate>
											<timebase>30</timebase>
											<ntsc>TRUE</ntsc>
										</rate>
										<start>47042</start>
										<end>47163</end>
										<in>0</in>
										<out>120</out>
										<pproTicksIn>0</pproTicksIn>
										<pproTicksOut>1128111304320</pproTicksOut>
										<alphatype>none</alphatype>
										<file id="file-40"/>
										<filter>
											<effect>
												<name>Time Remap</name>
												<effectid>timeremap</effectid>
												<effectcategory>motion</effectcategory>
												<effecttype>motion</effecttype>
												<mediatype>video</mediatype>
												<parameter authoringApp="PremierePro">
													<parameterid>variablespeed</parameterid>
													<name>variablespeed</name>
													<valuemin>0</valuemin>
													<valuemax>1</valuemax>
													<value>0</value>
												</parameter>
												<parameter authoringApp="PremierePro">
													<parameterid>speed</parameterid>
													<name>speed</name>
													<valuemin>-100000</valuemin>
													<valuemax>100000</valuemax>
													<value>110</value>
												</parameter>
												<parameter authoringApp="PremierePro">
													<parameterid>reverse</parameterid>
													<name>reverse</name>
													<value>FALSE</value>
												</parameter>
												<parameter authoringApp="PremierePro">
													<parameterid>frameblending</parameterid>
													<name>frameblending</name>
													<value>FALSE</value>
												</parameter>
												<parameter authoringApp="PremierePro">
													<parameterid>graphdict</parameterid>
													<name>graphdict</name>
													<valuemin>0</valuemin>
													<valuemax>154</valuemax>
													<value>0</value>
													<keyframe>
														<when>0</when>
														<value>0</value>
														<speedvirtualkf>TRUE</speedvirtualkf>
														<speedkfin>TRUE</speedkfin>
													</keyframe>
													<keyframe>
														<when>120</when>
														<value>132</value>
														<speedvirtualkf>TRUE</speedvirtualkf>
														<speedkfout>TRUE</speedkfout>
													</keyframe>
													<keyframe>
														<when>140</when>
														<value>154</value>
														<speedvirtualkf>TRUE</speedvirtualkf>
														<speedkfend>TRUE</speedkfend>
													</keyframe>
													<interpolation>
														<name>FCPCurve</name>
													</interpolation>
												</parameter>
											</effect>
										</filter>
										<filter>
											<effect>
												<name>Distort</name>
												<effectid>deformation</effectid>
												<effectcategory>motion</effectcategory>
												<effecttype>motion</effecttype>
												<mediatype>video</mediatype>
												<parameter authoringApp="PremierePro">
													<parameterid>aspect</parameterid>
													<name>Aspect</name>
													<valuemin>-10000</valuemin>
													<valuemax>10000</valuemax>
													<value>-9.36709</value>
												</parameter>
											</effect>
										</filter>
										<filter>
											<effect>
												<name>Basic Motion</name>
												<effectid>basic</effectid>
												<effectcategory>motion</effectcategory>
												<effecttype>motion</effecttype>
												<mediatype>video</mediatype>
												<parameter authoringApp="PremierePro">
													<parameterid>scale</parameterid>
													<name>Scale</name>
													<value>109.367</value>
												</parameter>
											</effect>
										</filter>
										<logginginfo>
											<description></description>
											<scene></scene>
											<shottake></shottake>
											<lognote></lognote>
											<good></good>
											<originalvideofilename></originalvideofilename>
											<originalaudiofilename></originalaudiofilename>
										</logginginfo>
										<colorinfo>
											<lut></lut>
											<lut1></lut1>
											<asc_sop></asc_sop>
											<asc_sat></asc_sat>
											<lut2></lut2>
										</colorinfo>
										<labels>
											<label2>Violet</label2>
										</labels>
									</clipitem>
									<clipitem id="clipitem-948">
										<masterclipid>masterclip-51</masterclipid>
										<name>202111_Man Chef Cook Cooking_By_Hans_Peter_Schepp_Artlist_HD.mp4</name>
										<enabled>TRUE</enabled>
										<duration>168</duration>
										<rate>
											<timebase>30</timebase>
											<ntsc>TRUE</ntsc>
										</rate>
										<start>47163</start>
										<end>47331</end>
										<in>0</in>
										<out>168</out>
										<pproTicksIn>0</pproTicksIn>
										<pproTicksOut>1566303298560</pproTicksOut>
										<alphatype>none</alphatype>
										<file id="file-41"/>
										<filter>
											<effect>
												<name>Time Remap</name>
												<effectid>timeremap</effectid>
												<effectcategory>motion</effectcategory>
												<effecttype>motion</effecttype>
												<mediatype>video</mediatype>
												<parameter authoringApp="PremierePro">
													<parameterid>variablespeed</parameterid>
													<name>variablespeed</name>
													<valuemin>0</valuemin>
													<valuemax>1</valuemax>
													<value>0</value>
												</parameter>
												<parameter authoringApp="PremierePro">
													<parameterid>speed</parameterid>
													<name>speed</name>
													<valuemin>-100000</valuemin>
													<valuemax>100000</valuemax>
													<value>110</value>
												</parameter>
												<parameter authoringApp="PremierePro">
													<parameterid>reverse</parameterid>
													<name>reverse</name>
													<value>FALSE</value>
												</parameter>
												<parameter authoringApp="PremierePro">
													<parameterid>frameblending</parameterid>
													<name>frameblending</name>
													<value>FALSE</value>
												</parameter>
												<parameter authoringApp="PremierePro">
													<parameterid>graphdict</parameterid>
													<name>graphdict</name>
													<valuemin>0</valuemin>
													<valuemax>184</valuemax>
													<value>0</value>
													<keyframe>
														<when>0</when>
														<value>0</value>
														<speedvirtualkf>TRUE</speedvirtualkf>
														<speedkfin>TRUE</speedkfin>
													</keyframe>
													<keyframe>
														<when>168</when>
														<value>184</value>
														<speedvirtualkf>TRUE</speedvirtualkf>
														<speedkfout>TRUE</speedkfout>
													</keyframe>
													<interpolation>
														<name>FCPCurve</name>
													</interpolation>
												</parameter>
											</effect>
										</filter>
										<filter>
											<effect>
												<name>Distort</name>
												<effectid>deformation</effectid>
												<effectcategory>motion</effectcategory>
												<effecttype>motion</effecttype>
												<mediatype>video</mediatype>
												<parameter authoringApp="PremierePro">
													<parameterid>aspect</parameterid>
													<name>Aspect</name>
													<valuemin>-10000</valuemin>
													<valuemax>10000</valuemax>
													<value>-9.36709</value>
												</parameter>
											</effect>
										</filter>
										<filter>
											<effect>
												<name>Basic Motion</name>
												<effectid>basic</effectid>
												<effectcategory>motion</effectcategory>
												<effecttype>motion</effecttype>
												<mediatype>video</mediatype>
												<parameter authoringApp="PremierePro">
													<parameterid>scale</parameterid>
													<name>Scale</name>
													<value>109.367</value>
												</parameter>
											</effect>
										</filter>
										<logginginfo>
											<description></description>
											<scene></scene>
											<shottake></shottake>
											<lognote></lognote>
											<good></good>
											<originalvideofilename></originalvideofilename>
											<originalaudiofilename></originalaudiofilename>
										</logginginfo>
										<colorinfo>
											<lut></lut>
											<lut1></lut1>
											<asc_sop></asc_sop>
											<asc_sat></asc_sat>
											<lut2></lut2>
										</colorinfo>
										<labels>
											<label2>Violet</label2>
										</labels>
									</clipitem>
									<clipitem id="clipitem-949">
										<masterclipid>masterclip-52</masterclipid>
										<name>202112_Man Chef Cook Cooking_By_Hans_Peter_Schepp_Artlist_HD.mp4</name>
										<enabled>TRUE</enabled>
										<duration>214</duration>
										<rate>
											<timebase>30</timebase>
											<ntsc>TRUE</ntsc>
										</rate>
										<start>47331</start>
										<end>47433</end>
										<in>0</in>
										<out>101</out>
										<pproTicksIn>0</pproTicksIn>
										<pproTicksOut>950969859840</pproTicksOut>
										<alphatype>none</alphatype>
										<file id="file-42"/>
										<filter>
											<effect>
												<name>Time Remap</name>
												<effectid>timeremap</effectid>
												<effectcategory>motion</effectcategory>
												<effecttype>motion</effecttype>
												<mediatype>video</mediatype>
												<parameter authoringApp="PremierePro">
													<parameterid>variablespeed</parameterid>
													<name>variablespeed</name>
													<valuemin>0</valuemin>
													<valuemax>1</valuemax>
													<value>0</value>
												</parameter>
												<parameter authoringApp="PremierePro">
													<parameterid>speed</parameterid>
													<name>speed</name>
													<valuemin>-100000</valuemin>
													<valuemax>100000</valuemax>
													<value>110</value>
												</parameter>
												<parameter authoringApp="PremierePro">
													<parameterid>reverse</parameterid>
													<name>reverse</name>
													<value>FALSE</value>
												</parameter>
												<parameter authoringApp="PremierePro">
													<parameterid>frameblending</parameterid>
													<name>frameblending</name>
													<value>FALSE</value>
												</parameter>
												<parameter authoringApp="PremierePro">
													<parameterid>graphdict</parameterid>
													<name>graphdict</name>
													<valuemin>0</valuemin>
													<valuemax>235</valuemax>
													<value>0</value>
													<keyframe>
														<when>0</when>
														<value>0</value>
														<speedvirtualkf>TRUE</speedvirtualkf>
														<speedkfin>TRUE</speedkfin>
													</keyframe>
													<keyframe>
														<when>101</when>
														<value>111</value>
														<speedvirtualkf>TRUE</speedvirtualkf>
														<speedkfout>TRUE</speedkfout>
													</keyframe>
													<keyframe>
														<when>214</when>
														<value>235</value>
														<speedvirtualkf>TRUE</speedvirtualkf>
														<speedkfend>TRUE</speedkfend>
													</keyframe>
													<interpolation>
														<name>FCPCurve</name>
													</interpolation>
												</parameter>
											</effect>
										</filter>
										<filter>
											<effect>
												<name>Distort</name>
												<effectid>deformation</effectid>
												<effectcategory>motion</effectcategory>
												<effecttype>motion</effecttype>
												<mediatype>video</mediatype>
												<parameter authoringApp="PremierePro">
													<parameterid>aspect</parameterid>
													<name>Aspect</name>
													<valuemin>-10000</valuemin>
													<valuemax>10000</valuemax>
													<value>-9.36709</value>
												</parameter>
											</effect>
										</filter>
										<filter>
											<effect>
												<name>Basic Motion</name>
												<effectid>basic</effectid>
												<effectcategory>motion</effectcategory>
												<effecttype>motion</effecttype>
												<mediatype>video</mediatype>
												<parameter authoringApp="PremierePro">
													<parameterid>scale</parameterid>
													<name>Scale</name>
													<value>109.367</value>
												</parameter>
											</effect>
										</filter>
										<logginginfo>
											<description></description>
											<scene></scene>
											<shottake></shottake>
											<lognote></lognote>
											<good></good>
											<originalvideofilename></originalvideofilename>
											<originalaudiofilename></originalaudiofilename>
										</logginginfo>
										<colorinfo>
											<lut></lut>
											<lut1></lut1>
											<asc_sop></asc_sop>
											<asc_sat></asc_sat>
											<lut2></lut2>
										</colorinfo>
									</clipitem>
									<clipitem id="clipitem-950">
										<masterclipid>masterclip-53</masterclipid>
										<name>202114_Man Chef Cook Cooking_By_Hans_Peter_Schepp_Artlist_HD.mp4</name>
										<enabled>TRUE</enabled>
										<duration>231</duration>
										<rate>
											<timebase>30</timebase>
											<ntsc>TRUE</ntsc>
										</rate>
										<start>47433</start>
										<end>47595</end>
										<in>70</in>
										<out>231</out>
										<pproTicksIn>652626374400</pproTicksIn>
										<pproTicksOut>2162990269440</pproTicksOut>
										<alphatype>none</alphatype>
										<file id="file-43"/>
										<filter>
											<effect>
												<name>Time Remap</name>
												<effectid>timeremap</effectid>
												<effectcategory>motion</effectcategory>
												<effecttype>motion</effecttype>
												<mediatype>video</mediatype>
												<parameter authoringApp="PremierePro">
													<parameterid>variablespeed</parameterid>
													<name>variablespeed</name>
													<valuemin>0</valuemin>
													<valuemax>1</valuemax>
													<value>0</value>
												</parameter>
												<parameter authoringApp="PremierePro">
													<parameterid>speed</parameterid>
													<name>speed</name>
													<valuemin>-100000</valuemin>
													<valuemax>100000</valuemax>
													<value>110</value>
												</parameter>
												<parameter authoringApp="PremierePro">
													<parameterid>reverse</parameterid>
													<name>reverse</name>
													<value>FALSE</value>
												</parameter>
												<parameter authoringApp="PremierePro">
													<parameterid>frameblending</parameterid>
													<name>frameblending</name>
													<value>FALSE</value>
												</parameter>
												<parameter authoringApp="PremierePro">
													<parameterid>graphdict</parameterid>
													<name>graphdict</name>
													<valuemin>0</valuemin>
													<valuemax>254</valuemax>
													<value>0</value>
													<keyframe>
														<when>0</when>
														<value>0</value>
														<speedvirtualkf>TRUE</speedvirtualkf>
														<speedkfstart>TRUE</speedkfstart>
													</keyframe>
													<keyframe>
														<when>70</when>
														<value>77</value>
														<speedvirtualkf>TRUE</speedvirtualkf>
														<speedkfin>TRUE</speedkfin>
													</keyframe>
													<keyframe>
														<when>231</when>
														<value>254</value>
														<speedvirtualkf>TRUE</speedvirtualkf>
														<speedkfout>TRUE</speedkfout>
													</keyframe>
													<interpolation>
														<name>FCPCurve</name>
													</interpolation>
												</parameter>
											</effect>
										</filter>
										<filter>
											<effect>
												<name>Distort</name>
												<effectid>deformation</effectid>
												<effectcategory>motion</effectcategory>
												<effecttype>motion</effecttype>
												<mediatype>video</mediatype>
												<parameter authoringApp="PremierePro">
													<parameterid>aspect</parameterid>
													<name>Aspect</name>
													<valuemin>-10000</valuemin>
													<valuemax>10000</valuemax>
													<value>-9.36709</value>
												</parameter>
											</effect>
										</filter>
										<filter>
											<effect>
												<name>Basic Motion</name>
												<effectid>basic</effectid>
												<effectcategory>motion</effectcategory>
												<effecttype>motion</effecttype>
												<mediatype>video</mediatype>
												<parameter authoringApp="PremierePro">
													<parameterid>scale</parameterid>
													<name>Scale</name>
													<value>109.367</value>
												</parameter>
											</effect>
										</filter>
										<logginginfo>
											<description></description>
											<scene></scene>
											<shottake></shottake>
											<lognote></lognote>
											<good></good>
											<originalvideofilename></originalvideofilename>
											<originalaudiofilename></originalaudiofilename>
										</logginginfo>
										<colorinfo>
											<lut></lut>
											<lut1></lut1>
											<asc_sop></asc_sop>
											<asc_sat></asc_sat>
											<lut2></lut2>
										</colorinfo>
										<labels>
											<label2>Violet</label2>
										</labels>
									</clipitem>
									<clipitem id="clipitem-951">
										<masterclipid>masterclip-54</masterclipid>
										<name>202113_Man Chef Cook Cooking_By_Hans_Peter_Schepp_Artlist_HD.mp4</name>
										<enabled>TRUE</enabled>
										<duration>135</duration>
										<rate>
											<timebase>30</timebase>
											<ntsc>TRUE</ntsc>
										</rate>
										<start>47595</start>
										<end>47719</end>
										<in>0</in>
										<out>123</out>
										<pproTicksIn>0</pproTicksIn>
										<pproTicksOut>1156081006080</pproTicksOut>
										<alphatype>none</alphatype>
										<file id="file-44"/>
										<filter>
											<effect>
												<name>Time Remap</name>
												<effectid>timeremap</effectid>
												<effectcategory>motion</effectcategory>
												<effecttype>motion</effecttype>
												<mediatype>video</mediatype>
												<parameter authoringApp="PremierePro">
													<parameterid>variablespeed</parameterid>
													<name>variablespeed</name>
													<valuemin>0</valuemin>
													<valuemax>1</valuemax>
													<value>0</value>
												</parameter>
												<parameter authoringApp="PremierePro">
													<parameterid>speed</parameterid>
													<name>speed</name>
													<valuemin>-100000</valuemin>
													<valuemax>100000</valuemax>
													<value>110</value>
												</parameter>
												<parameter authoringApp="PremierePro">
													<parameterid>reverse</parameterid>
													<name>reverse</name>
													<value>FALSE</value>
												</parameter>
												<parameter authoringApp="PremierePro">
													<parameterid>frameblending</parameterid>
													<name>frameblending</name>
													<value>FALSE</value>
												</parameter>
												<parameter authoringApp="PremierePro">
													<parameterid>graphdict</parameterid>
													<name>graphdict</name>
													<valuemin>0</valuemin>
													<valuemax>148</valuemax>
													<value>0</value>
													<keyframe>
														<when>0</when>
														<value>0</value>
														<speedvirtualkf>TRUE</speedvirtualkf>
														<speedkfin>TRUE</speedkfin>
													</keyframe>
													<keyframe>
														<when>123</when>
														<value>135</value>
														<speedvirtualkf>TRUE</speedvirtualkf>
														<speedkfout>TRUE</speedkfout>
													</keyframe>
													<keyframe>
														<when>135</when>
														<value>148</value>
														<speedvirtualkf>TRUE</speedvirtualkf>
														<speedkfend>TRUE</speedkfend>
													</keyframe>
													<interpolation>
														<name>FCPCurve</name>
													</interpolation>
												</parameter>
											</effect>
										</filter>
										<filter>
											<effect>
												<name>Distort</name>
												<effectid>deformation</effectid>
												<effectcategory>motion</effectcategory>
												<effecttype>motion</effecttype>
												<mediatype>video</mediatype>
												<parameter authoringApp="PremierePro">
													<parameterid>aspect</parameterid>
													<name>Aspect</name>
													<valuemin>-10000</valuemin>
													<valuemax>10000</valuemax>
													<value>-9.36709</value>
												</parameter>
											</effect>
										</filter>
										<filter>
											<effect>
												<name>Basic Motion</name>
												<effectid>basic</effectid>
												<effectcategory>motion</effectcategory>
												<effecttype>motion</effecttype>
												<mediatype>video</mediatype>
												<parameter authoringApp="PremierePro">
													<parameterid>scale</parameterid>
													<name>Scale</name>
													<value>109.367</value>
												</parameter>
											</effect>
										</filter>
										<logginginfo>
											<description></description>
											<scene></scene>
											<shottake></shottake>
											<lognote></lognote>
											<good></good>
											<originalvideofilename></originalvideofilename>
											<originalaudiofilename></originalaudiofilename>
										</logginginfo>
										<colorinfo>
											<lut></lut>
											<lut1></lut1>
											<asc_sop></asc_sop>
											<asc_sat></asc_sat>
											<lut2></lut2>
										</colorinfo>
										<labels>
											<label2>Violet</label2>
										</labels>
									</clipitem>
									<clipitem id="clipitem-952">
										<masterclipid>masterclip-55</masterclipid>
										<name>202116_Man Chef Cook Cooking_By_Hans_Peter_Schepp_Artlist_HD.mp4</name>
										<enabled>TRUE</enabled>
										<duration>183</duration>
										<rate>
											<timebase>30</timebase>
											<ntsc>TRUE</ntsc>
										</rate>
										<start>47719</start>
										<end>47903</end>
										<in>0</in>
										<out>183</out>
										<pproTicksIn>0</pproTicksIn>
										<pproTicksOut>1715475041280</pproTicksOut>
										<alphatype>none</alphatype>
										<file id="file-45"/>
										<filter>
											<effect>
												<name>Time Remap</name>
												<effectid>timeremap</effectid>
												<effectcategory>motion</effectcategory>
												<effecttype>motion</effecttype>
												<mediatype>video</mediatype>
												<parameter authoringApp="PremierePro">
													<parameterid>variablespeed</parameterid>
													<name>variablespeed</name>
													<valuemin>0</valuemin>
													<valuemax>1</valuemax>
													<value>0</value>
												</parameter>
												<parameter authoringApp="PremierePro">
													<parameterid>speed</parameterid>
													<name>speed</name>
													<valuemin>-100000</valuemin>
													<valuemax>100000</valuemax>
													<value>110</value>
												</parameter>
												<parameter authoringApp="PremierePro">
													<parameterid>reverse</parameterid>
													<name>reverse</name>
													<value>FALSE</value>
												</parameter>
												<parameter authoringApp="PremierePro">
													<parameterid>frameblending</parameterid>
													<name>frameblending</name>
													<value>FALSE</value>
												</parameter>
												<parameter authoringApp="PremierePro">
													<parameterid>graphdict</parameterid>
													<name>graphdict</name>
													<valuemin>0</valuemin>
													<valuemax>201</valuemax>
													<value>0</value>
													<keyframe>
														<when>0</when>
														<value>0</value>
														<speedvirtualkf>TRUE</speedvirtualkf>
														<speedkfin>TRUE</speedkfin>
													</keyframe>
													<keyframe>
														<when>183</when>
														<value>201</value>
														<speedvirtualkf>TRUE</speedvirtualkf>
														<speedkfout>TRUE</speedkfout>
													</keyframe>
													<interpolation>
														<name>FCPCurve</name>
													</interpolation>
												</parameter>
											</effect>
										</filter>
										<filter>
											<effect>
												<name>Distort</name>
												<effectid>deformation</effectid>
												<effectcategory>motion</effectcategory>
												<effecttype>motion</effecttype>
												<mediatype>video</mediatype>
												<parameter authoringApp="PremierePro">
													<parameterid>aspect</parameterid>
													<name>Aspect</name>
													<valuemin>-10000</valuemin>
													<valuemax>10000</valuemax>
													<value>-9.36709</value>
												</parameter>
											</effect>
										</filter>
										<filter>
											<effect>
												<name>Basic Motion</name>
												<effectid>basic</effectid>
												<effectcategory>motion</effectcategory>
												<effecttype>motion</effecttype>
												<mediatype>video</mediatype>
												<parameter authoringApp="PremierePro">
													<parameterid>scale</parameterid>
													<name>Scale</name>
													<value>109.367</value>
												</parameter>
											</effect>
										</filter>
										<logginginfo>
											<description></description>
											<scene></scene>
											<shottake></shottake>
											<lognote></lognote>
											<good></good>
											<originalvideofilename></originalvideofilename>
											<originalaudiofilename></originalaudiofilename>
										</logginginfo>
										<colorinfo>
											<lut></lut>
											<lut1></lut1>
											<asc_sop></asc_sop>
											<asc_sat></asc_sat>
											<lut2></lut2>
										</colorinfo>
										<labels>
											<label2>Violet</label2>
										</labels>
									</clipitem>
									<clipitem id="clipitem-953">
										<masterclipid>masterclip-56</masterclipid>
										<name>202117_Man Chef Cook Cooking_By_Hans_Peter_Schepp_Artlist_HD.mp4</name>
										<enabled>TRUE</enabled>
										<duration>150</duration>
										<rate>
											<timebase>30</timebase>
											<ntsc>TRUE</ntsc>
										</rate>
										<start>47903</start>
										<end>48054</end>
										<in>0</in>
										<out>151</out>
										<pproTicksIn>0</pproTicksIn>
										<pproTicksOut>1407808321920</pproTicksOut>
										<alphatype>none</alphatype>
										<file id="file-46"/>
										<filter>
											<effect>
												<name>Time Remap</name>
												<effectid>timeremap</effectid>
												<effectcategory>motion</effectcategory>
												<effecttype>motion</effecttype>
												<mediatype>video</mediatype>
												<parameter authoringApp="PremierePro">
													<parameterid>variablespeed</parameterid>
													<name>variablespeed</name>
													<valuemin>0</valuemin>
													<valuemax>1</valuemax>
													<value>0</value>
												</parameter>
												<parameter authoringApp="PremierePro">
													<parameterid>speed</parameterid>
													<name>speed</name>
													<valuemin>-100000</valuemin>
													<valuemax>100000</valuemax>
													<value>110</value>
												</parameter>
												<parameter authoringApp="PremierePro">
													<parameterid>reverse</parameterid>
													<name>reverse</name>
													<value>FALSE</value>
												</parameter>
												<parameter authoringApp="PremierePro">
													<parameterid>frameblending</parameterid>
													<name>frameblending</name>
													<value>FALSE</value>
												</parameter>
												<parameter authoringApp="PremierePro">
													<parameterid>graphdict</parameterid>
													<name>graphdict</name>
													<valuemin>0</valuemin>
													<valuemax>165</valuemax>
													<value>0</value>
													<keyframe>
														<when>0</when>
														<value>0</value>
														<speedvirtualkf>TRUE</speedvirtualkf>
														<speedkfin>TRUE</speedkfin>
													</keyframe>
													<keyframe>
														<when>150</when>
														<value>165</value>
														<speedvirtualkf>TRUE</speedvirtualkf>
														<speedkfout>TRUE</speedkfout>
													</keyframe>
													<interpolation>
														<name>FCPCurve</name>
													</interpolation>
												</parameter>
											</effect>
										</filter>
										<filter>
											<effect>
												<name>Distort</name>
												<effectid>deformation</effectid>
												<effectcategory>motion</effectcategory>
												<effecttype>motion</effecttype>
												<mediatype>video</mediatype>
												<parameter authoringApp="PremierePro">
													<parameterid>aspect</parameterid>
													<name>Aspect</name>
													<valuemin>-10000</valuemin>
													<valuemax>10000</valuemax>
													<value>-9.36709</value>
												</parameter>
											</effect>
										</filter>
										<filter>
											<effect>
												<name>Basic Motion</name>
												<effectid>basic</effectid>
												<effectcategory>motion</effectcategory>
												<effecttype>motion</effecttype>
												<mediatype>video</mediatype>
												<parameter authoringApp="PremierePro">
													<parameterid>scale</parameterid>
													<name>Scale</name>
													<value>109.367</value>
												</parameter>
											</effect>
										</filter>
										<logginginfo>
											<description></description>
											<scene></scene>
											<shottake></shottake>
											<lognote></lognote>
											<good></good>
											<originalvideofilename></originalvideofilename>
											<originalaudiofilename></originalaudiofilename>
										</logginginfo>
										<colorinfo>
											<lut></lut>
											<lut1></lut1>
											<asc_sop></asc_sop>
											<asc_sat></asc_sat>
											<lut2></lut2>
										</colorinfo>
										<labels>
											<label2>Violet</label2>
										</labels>
									</clipitem>
									<clipitem id="clipitem-954">
										<masterclipid>masterclip-59</masterclipid>
										<name>(allyoucansweet)_6835030356605897990_TT.mp4</name>
										<enabled>TRUE</enabled>
										<duration>599</duration>
										<rate>
											<timebase>30</timebase>
											<ntsc>TRUE</ntsc>
										</rate>
										<start>48054</start>
										<end>48586</end>
										<in>0</in>
										<out>532</out>
										<pproTicksIn>0</pproTicksIn>
										<pproTicksOut>4509054950400</pproTicksOut>
										<alphatype>none</alphatype>
										<file id="file-48"/>
										<logginginfo>
											<description></description>
											<scene></scene>
											<shottake></shottake>
											<lognote></lognote>
											<good></good>
											<originalvideofilename></originalvideofilename>
											<originalaudiofilename></originalaudiofilename>
										</logginginfo>
										<colorinfo>
											<lut></lut>
											<lut1></lut1>
											<asc_sop></asc_sop>
											<asc_sat></asc_sat>
											<lut2></lut2>
										</colorinfo>
										<labels>
											<label2>Violet</label2>
										</labels>
									</clipitem>
									<clipitem id="clipitem-955">
										<masterclipid>masterclip-60</masterclipid>
										<name>(Charlie Smark)_Making Issy’s fav drink on the menu! #dollysdesserts_2goCLkwSPH4_YT.mp4</name>
										<enabled>TRUE</enabled>
										<duration>1058</duration>
										<rate>
											<timebase>30</timebase>
											<ntsc>TRUE</ntsc>
										</rate>
										<start>48586</start>
										<end>48897</end>
										<in>82</in>
										<out>393</out>
										<pproTicksIn>695004710400</pproTicksIn>
										<pproTicksOut>3330937209600</pproTicksOut>
										<alphatype>none</alphatype>
										<file id="file-49"/>
										<logginginfo>
											<description></description>
											<scene></scene>
											<shottake></shottake>
											<lognote></lognote>
											<good></good>
											<originalvideofilename></originalvideofilename>
											<originalaudiofilename></originalaudiofilename>
										</logginginfo>
										<colorinfo>
											<lut></lut>
											<lut1></lut1>
											<asc_sop></asc_sop>
											<asc_sat></asc_sat>
											<lut2></lut2>
										</colorinfo>
										<labels>
											<label2>Violet</label2>
										</labels>
									</clipitem>
									<clipitem id="clipitem-956">
										<masterclipid>masterclip-60</masterclipid>
										<name>(Charlie Smark)_Making Issy’s fav drink on the menu! #dollysdesserts_2goCLkwSPH4_YT.mp4</name>
										<enabled>TRUE</enabled>
										<duration>1058</duration>
										<rate>
											<timebase>30</timebase>
											<ntsc>TRUE</ntsc>
										</rate>
										<start>48897</start>
										<end>49126</end>
										<in>507</in>
										<out>736</out>
										<pproTicksIn>4297163270400</pproTicksIn>
										<pproTicksOut>6238091059200</pproTicksOut>
										<alphatype>none</alphatype>
										<file id="file-49"/>
										<logginginfo>
											<description></description>
											<scene></scene>
											<shottake></shottake>
											<lognote></lognote>
											<good></good>
											<originalvideofilename></originalvideofilename>
											<originalaudiofilename></originalaudiofilename>
										</logginginfo>
										<colorinfo>
											<lut></lut>
											<lut1></lut1>
											<asc_sop></asc_sop>
											<asc_sat></asc_sat>
											<lut2></lut2>
										</colorinfo>
										<labels>
											<label2>Violet</label2>
										</labels>
									</clipitem>
									<clipitem id="clipitem-957">
										<masterclipid>masterclip-61</masterclipid>
										<name>(candidtreatofficial)_COb7dUOgnBc_IG.mp4</name>
										<enabled>TRUE</enabled>
										<duration>750</duration>
										<rate>
											<timebase>30</timebase>
											<ntsc>TRUE</ntsc>
										</rate>
										<start>49126</start>
										<end>49819</end>
										<in>57</in>
										<out>749</out>
										<pproTicksIn>576345369600</pproTicksIn>
										<pproTicksOut>7624710213120</pproTicksOut>
										<alphatype>none</alphatype>
										<file id="file-50"/>
										<filter>
											<effect>
												<name>Time Remap</name>
												<effectid>timeremap</effectid>
												<effectcategory>motion</effectcategory>
												<effecttype>motion</effecttype>
												<mediatype>video</mediatype>
												<parameter authoringApp="PremierePro">
													<parameterid>variablespeed</parameterid>
													<name>variablespeed</name>
													<valuemin>0</valuemin>
													<valuemax>1</valuemax>
													<value>0</value>
												</parameter>
												<parameter authoringApp="PremierePro">
													<parameterid>speed</parameterid>
													<name>speed</name>
													<valuemin>-100000</valuemin>
													<valuemax>100000</valuemax>
													<value>120</value>
												</parameter>
												<parameter authoringApp="PremierePro">
													<parameterid>reverse</parameterid>
													<name>reverse</name>
													<value>FALSE</value>
												</parameter>
												<parameter authoringApp="PremierePro">
													<parameterid>frameblending</parameterid>
													<name>frameblending</name>
													<value>FALSE</value>
												</parameter>
												<parameter authoringApp="PremierePro">
													<parameterid>graphdict</parameterid>
													<name>graphdict</name>
													<valuemin>0</valuemin>
													<valuemax>900</valuemax>
													<value>0</value>
													<keyframe>
														<when>0</when>
														<value>0</value>
														<speedvirtualkf>TRUE</speedvirtualkf>
														<speedkfstart>TRUE</speedkfstart>
													</keyframe>
													<keyframe>
														<when>57</when>
														<value>68</value>
														<speedvirtualkf>TRUE</speedvirtualkf>
														<speedkfin>TRUE</speedkfin>
													</keyframe>
													<keyframe>
														<when>749</when>
														<value>898</value>
														<speedvirtualkf>TRUE</speedvirtualkf>
														<speedkfout>TRUE</speedkfout>
													</keyframe>
													<keyframe>
														<when>750</when>
														<value>900</value>
														<speedvirtualkf>TRUE</speedvirtualkf>
														<speedkfend>TRUE</speedkfend>
													</keyframe>
													<interpolation>
														<name>FCPCurve</name>
													</interpolation>
												</parameter>
											</effect>
										</filter>
										<logginginfo>
											<description></description>
											<scene></scene>
											<shottake></shottake>
											<lognote></lognote>
											<good></good>
											<originalvideofilename></originalvideofilename>
											<originalaudiofilename></originalaudiofilename>
										</logginginfo>
										<colorinfo>
											<lut></lut>
											<lut1></lut1>
											<asc_sop></asc_sop>
											<asc_sat></asc_sat>
											<lut2></lut2>
										</colorinfo>
										<labels>
											<label2>Violet</label2>
										</labels>
									</clipitem>
									<clipitem id="clipitem-958">
										<masterclipid>masterclip-62</masterclipid>
										<name>(succulentbite)_CNaNDo1FLXA_IG.mp4</name>
										<enabled>TRUE</enabled>
										<duration>553</duration>
										<rate>
											<timebase>30</timebase>
											<ntsc>TRUE</ntsc>
										</rate>
										<start>49819</start>
										<end>50372</end>
										<in>0</in>
										<out>553</out>
										<pproTicksIn>0</pproTicksIn>
										<pproTicksOut>4687043961600</pproTicksOut>
										<alphatype>none</alphatype>
										<file id="file-51"/>
										<logginginfo>
											<description></description>
											<scene></scene>
											<shottake></shottake>
											<lognote></lognote>
											<good></good>
											<originalvideofilename></originalvideofilename>
											<originalaudiofilename></originalaudiofilename>
										</logginginfo>
										<colorinfo>
											<lut></lut>
											<lut1></lut1>
											<asc_sop></asc_sop>
											<asc_sat></asc_sat>
											<lut2></lut2>
										</colorinfo>
										<labels>
											<label2>Violet</label2>
										</labels>
									</clipitem>
									<clipitem id="clipitem-959">
										<masterclipid>masterclip-63</masterclipid>
										<name>(tastyselly)_CU5sN0-AGmu_IG.mp4</name>
										<enabled>TRUE</enabled>
										<duration>691</duration>
										<rate>
											<timebase>30</timebase>
											<ntsc>TRUE</ntsc>
										</rate>
										<start>50372</start>
										<end>50953</end>
										<in>110</in>
										<out>691</out>
										<pproTicksIn>932323392000</pproTicksIn>
										<pproTicksOut>5856686035200</pproTicksOut>
										<alphatype>none</alphatype>
										<file id="file-52"/>
										<logginginfo>
											<description></description>
											<scene></scene>
											<shottake></shottake>
											<lognote></lognote>
											<good></good>
											<originalvideofilename></originalvideofilename>
											<originalaudiofilename></originalaudiofilename>
										</logginginfo>
										<colorinfo>
											<lut></lut>
											<lut1></lut1>
											<asc_sop></asc_sop>
											<asc_sat></asc_sat>
											<lut2></lut2>
										</colorinfo>
										<labels>
											<label2>Violet</label2>
										</labels>
									</clipitem>
									<clipitem id="clipitem-960">
										<masterclipid>masterclip-64</masterclipid>
										<name>(sugarandsparrowco)_Cn7PlHyJ1CR_IG.mp4</name>
										<enabled>TRUE</enabled>
										<duration>687</duration>
										<rate>
											<timebase>30</timebase>
											<ntsc>TRUE</ntsc>
										</rate>
										<start>50953</start>
										<end>51561</end>
										<in>79</in>
										<out>687</out>
										<pproTicksIn>669577708800</pproTicksIn>
										<pproTicksOut>5822783366400</pproTicksOut>
										<alphatype>none</alphatype>
										<file id="file-53"/>
										<logginginfo>
											<description></description>
											<scene></scene>
											<shottake></shottake>
											<lognote></lognote>
											<good></good>
											<originalvideofilename></originalvideofilename>
											<originalaudiofilename></originalaudiofilename>
										</logginginfo>
										<colorinfo>
											<lut></lut>
											<lut1></lut1>
											<asc_sop></asc_sop>
											<asc_sat></asc_sat>
											<lut2></lut2>
										</colorinfo>
										<labels>
											<label2>Violet</label2>
										</labels>
									</clipitem>
									<clipitem id="clipitem-961">
										<masterclipid>masterclip-70</masterclipid>
										<name>(bakedbyprecious)_7109112263172328750_TT.mp4</name>
										<enabled>TRUE</enabled>
										<duration>708</duration>
										<rate>
											<timebase>30</timebase>
											<ntsc>TRUE</ntsc>
										</rate>
										<start>51561</start>
										<end>51923</end>
										<in>0</in>
										<out>362</out>
										<pproTicksIn>0</pproTicksIn>
										<pproTicksOut>3068191526400</pproTicksOut>
										<alphatype>none</alphatype>
										<file id="file-58"/>
										<logginginfo>
											<description></description>
											<scene></scene>
											<shottake></shottake>
											<lognote></lognote>
											<good></good>
											<originalvideofilename></originalvideofilename>
											<originalaudiofilename></originalaudiofilename>
										</logginginfo>
										<colorinfo>
											<lut></lut>
											<lut1></lut1>
											<asc_sop></asc_sop>
											<asc_sat></asc_sat>
											<lut2></lut2>
										</colorinfo>
										<labels>
											<label2>Violet</label2>
										</labels>
									</clipitem>
									<clipitem id="clipitem-962">
										<masterclipid>masterclip-70</masterclipid>
										<name>(bakedbyprecious)_7109112263172328750_TT.mp4</name>
										<enabled>TRUE</enabled>
										<duration>708</duration>
										<rate>
											<timebase>30</timebase>
											<ntsc>TRUE</ntsc>
										</rate>
										<start>51923</start>
										<end>52127</end>
										<in>407</in>
										<out>611</out>
										<pproTicksIn>3449596550400</pproTicksIn>
										<pproTicksOut>5178632659200</pproTicksOut>
										<alphatype>none</alphatype>
										<file id="file-58"/>
										<logginginfo>
											<description></description>
											<scene></scene>
											<shottake></shottake>
											<lognote></lognote>
											<good></good>
											<originalvideofilename></originalvideofilename>
											<originalaudiofilename></originalaudiofilename>
										</logginginfo>
										<colorinfo>
											<lut></lut>
											<lut1></lut1>
											<asc_sop></asc_sop>
											<asc_sat></asc_sat>
											<lut2></lut2>
										</colorinfo>
										<labels>
											<label2>Violet</label2>
										</labels>
									</clipitem>
									<clipitem id="clipitem-963">
										<masterclipid>masterclip-71</masterclipid>
										<name>(allthesugartx)_CZr5I4IJ1K9_IG.mp4</name>
										<enabled>TRUE</enabled>
										<duration>571</duration>
										<rate>
											<timebase>30</timebase>
											<ntsc>TRUE</ntsc>
										</rate>
										<start>52127</start>
										<end>52698</end>
										<in>0</in>
										<out>571</out>
										<pproTicksIn>0</pproTicksIn>
										<pproTicksOut>7259408956800</pproTicksOut>
										<alphatype>none</alphatype>
										<file id="file-59"/>
										<filter>
											<effect>
												<name>Time Remap</name>
												<effectid>timeremap</effectid>
												<effectcategory>motion</effectcategory>
												<effecttype>motion</effecttype>
												<mediatype>video</mediatype>
												<parameter authoringApp="PremierePro">
													<parameterid>variablespeed</parameterid>
													<name>variablespeed</name>
													<valuemin>0</valuemin>
													<valuemax>1</valuemax>
													<value>0</value>
												</parameter>
												<parameter authoringApp="PremierePro">
													<parameterid>speed</parameterid>
													<name>speed</name>
													<valuemin>-100000</valuemin>
													<valuemax>100000</valuemax>
													<value>150</value>
												</parameter>
												<parameter authoringApp="PremierePro">
													<parameterid>reverse</parameterid>
													<name>reverse</name>
													<value>FALSE</value>
												</parameter>
												<parameter authoringApp="PremierePro">
													<parameterid>frameblending</parameterid>
													<name>frameblending</name>
													<value>FALSE</value>
												</parameter>
												<parameter authoringApp="PremierePro">
													<parameterid>graphdict</parameterid>
													<name>graphdict</name>
													<valuemin>0</valuemin>
													<valuemax>856</valuemax>
													<value>0</value>
													<keyframe>
														<when>0</when>
														<value>0</value>
														<speedvirtualkf>TRUE</speedvirtualkf>
														<speedkfin>TRUE</speedkfin>
													</keyframe>
													<keyframe>
														<when>571</when>
														<value>856</value>
														<speedvirtualkf>TRUE</speedvirtualkf>
														<speedkfout>TRUE</speedkfout>
													</keyframe>
													<interpolation>
														<name>FCPCurve</name>
													</interpolation>
												</parameter>
											</effect>
										</filter>
										<logginginfo>
											<description></description>
											<scene></scene>
											<shottake></shottake>
											<lognote></lognote>
											<good></good>
											<originalvideofilename></originalvideofilename>
											<originalaudiofilename></originalaudiofilename>
										</logginginfo>
										<colorinfo>
											<lut></lut>
											<lut1></lut1>
											<asc_sop></asc_sop>
											<asc_sat></asc_sat>
											<lut2></lut2>
										</colorinfo>
										<labels>
											<label2>Violet</label2>
										</labels>
									</clipitem>
									<clipitem id="clipitem-964">
										<masterclipid>masterclip-72</masterclipid>
										<name>(daniel.83)_Bntp2fmFObe_IG.mp4</name>
										<enabled>TRUE</enabled>
										<duration>1597</duration>
										<rate>
											<timebase>30</timebase>
											<ntsc>TRUE</ntsc>
										</rate>
										<start>52698</start>
										<end>52934</end>
										<in>194</in>
										<out>430</out>
										<pproTicksIn>1644279436800</pproTicksIn>
										<pproTicksOut>3644536896000</pproTicksOut>
										<alphatype>none</alphatype>
										<file id="file-60"/>
										<logginginfo>
											<description></description>
											<scene></scene>
											<shottake></shottake>
											<lognote></lognote>
											<good></good>
											<originalvideofilename></originalvideofilename>
											<originalaudiofilename></originalaudiofilename>
										</logginginfo>
										<colorinfo>
											<lut></lut>
											<lut1></lut1>
											<asc_sop></asc_sop>
											<asc_sat></asc_sat>
											<lut2></lut2>
										</colorinfo>
										<labels>
											<label2>Violet</label2>
										</labels>
									</clipitem>
									<clipitem id="clipitem-965">
										<masterclipid>masterclip-72</masterclipid>
										<name>(daniel.83)_Bntp2fmFObe_IG.mp4</name>
										<enabled>TRUE</enabled>
										<duration>1597</duration>
										<rate>
											<timebase>30</timebase>
											<ntsc>TRUE</ntsc>
										</rate>
										<start>52934</start>
										<end>53034</end>
										<in>553</in>
										<out>653</out>
										<pproTicksIn>4687043961600</pproTicksIn>
										<pproTicksOut>5534610681600</pproTicksOut>
										<alphatype>none</alphatype>
										<file id="file-60"/>
										<logginginfo>
											<description></description>
											<scene></scene>
											<shottake></shottake>
											<lognote></lognote>
											<good></good>
											<originalvideofilename></originalvideofilename>
											<originalaudiofilename></originalaudiofilename>
										</logginginfo>
										<colorinfo>
											<lut></lut>
											<lut1></lut1>
											<asc_sop></asc_sop>
											<asc_sat></asc_sat>
											<lut2></lut2>
										</colorinfo>
										<labels>
											<label2>Violet</label2>
										</labels>
									</clipitem>
									<clipitem id="clipitem-966">
										<masterclipid>masterclip-72</masterclipid>
										<name>(daniel.83)_Bntp2fmFObe_IG.mp4</name>
										<enabled>TRUE</enabled>
										<duration>1597</duration>
										<rate>
											<timebase>30</timebase>
											<ntsc>TRUE</ntsc>
										</rate>
										<start>53034</start>
										<end>53133</end>
										<in>729</in>
										<out>828</out>
										<pproTicksIn>6178761388800</pproTicksIn>
										<pproTicksOut>7017852441600</pproTicksOut>
										<alphatype>none</alphatype>
										<file id="file-60"/>
										<logginginfo>
											<description></description>
											<scene></scene>
											<shottake></shottake>
											<lognote></lognote>
											<good></good>
											<originalvideofilename></originalvideofilename>
											<originalaudiofilename></originalaudiofilename>
										</logginginfo>
										<colorinfo>
											<lut></lut>
											<lut1></lut1>
											<asc_sop></asc_sop>
											<asc_sat></asc_sat>
											<lut2></lut2>
										</colorinfo>
										<labels>
											<label2>Violet</label2>
										</labels>
									</clipitem>
									<clipitem id="clipitem-967">
										<masterclipid>masterclip-72</masterclipid>
										<name>(daniel.83)_Bntp2fmFObe_IG.mp4</name>
										<enabled>TRUE</enabled>
										<duration>1597</duration>
										<rate>
											<timebase>30</timebase>
											<ntsc>TRUE</ntsc>
										</rate>
										<start>53133</start>
										<end>53253</end>
										<in>875</in>
										<out>995</out>
										<pproTicksIn>7416208800000</pproTicksIn>
										<pproTicksOut>8433288864000</pproTicksOut>
										<alphatype>none</alphatype>
										<file id="file-60"/>
										<logginginfo>
											<description></description>
											<scene></scene>
											<shottake></shottake>
											<lognote></lognote>
											<good></good>
											<originalvideofilename></originalvideofilename>
											<originalaudiofilename></originalaudiofilename>
										</logginginfo>
										<colorinfo>
											<lut></lut>
											<lut1></lut1>
											<asc_sop></asc_sop>
											<asc_sat></asc_sat>
											<lut2></lut2>
										</colorinfo>
										<labels>
											<label2>Violet</label2>
										</labels>
									</clipitem>
									<clipitem id="clipitem-968">
										<masterclipid>masterclip-72</masterclipid>
										<name>(daniel.83)_Bntp2fmFObe_IG.mp4</name>
										<enabled>TRUE</enabled>
										<duration>1597</duration>
										<rate>
											<timebase>30</timebase>
											<ntsc>TRUE</ntsc>
										</rate>
										<start>53253</start>
										<end>53376</end>
										<in>1383</in>
										<out>1506</out>
										<pproTicksIn>11721847737600</pproTicksIn>
										<pproTicksOut>12764354803200</pproTicksOut>
										<alphatype>none</alphatype>
										<file id="file-60"/>
										<logginginfo>
											<description></description>
											<scene></scene>
											<shottake></shottake>
											<lognote></lognote>
											<good></good>
											<originalvideofilename></originalvideofilename>
											<originalaudiofilename></originalaudiofilename>
										</logginginfo>
										<colorinfo>
											<lut></lut>
											<lut1></lut1>
											<asc_sop></asc_sop>
											<asc_sat></asc_sat>
											<lut2></lut2>
										</colorinfo>
										<labels>
											<label2>Violet</label2>
										</labels>
									</clipitem>
									<clipitem id="clipitem-969">
										<masterclipid>masterclip-73</masterclipid>
										<name>(sugarandsparrowco)_CQ1LcsSjxfE_IG.mp4</name>
										<enabled>TRUE</enabled>
										<duration>578</duration>
										<rate>
											<timebase>30</timebase>
											<ntsc>TRUE</ntsc>
										</rate>
										<start>53376</start>
										<end>53955</end>
										<in>0</in>
										<out>579</out>
										<pproTicksIn>0</pproTicksIn>
										<pproTicksOut>6866899200000</pproTicksOut>
										<alphatype>none</alphatype>
										<file id="file-61"/>
										<filter>
											<effect>
												<name>Time Remap</name>
												<effectid>timeremap</effectid>
												<effectcategory>motion</effectcategory>
												<effecttype>motion</effecttype>
												<mediatype>video</mediatype>
												<parameter authoringApp="PremierePro">
													<parameterid>variablespeed</parameterid>
													<name>variablespeed</name>
													<valuemin>0</valuemin>
													<valuemax>1</valuemax>
													<value>0</value>
												</parameter>
												<parameter authoringApp="PremierePro">
													<parameterid>speed</parameterid>
													<name>speed</name>
													<valuemin>-100000</valuemin>
													<valuemax>100000</valuemax>
													<value>139.929</value>
												</parameter>
												<parameter authoringApp="PremierePro">
													<parameterid>reverse</parameterid>
													<name>reverse</name>
													<value>FALSE</value>
												</parameter>
												<parameter authoringApp="PremierePro">
													<parameterid>frameblending</parameterid>
													<name>frameblending</name>
													<value>FALSE</value>
												</parameter>
												<parameter authoringApp="PremierePro">
													<parameterid>graphdict</parameterid>
													<name>graphdict</name>
													<valuemin>0</valuemin>
													<valuemax>808</valuemax>
													<value>0</value>
													<keyframe>
														<when>0</when>
														<value>0</value>
														<speedvirtualkf>TRUE</speedvirtualkf>
														<speedkfin>TRUE</speedkfin>
													</keyframe>
													<keyframe>
														<when>578</when>
														<value>808</value>
														<speedvirtualkf>TRUE</speedvirtualkf>
														<speedkfout>TRUE</speedkfout>
													</keyframe>
													<interpolation>
														<name>FCPCurve</name>
													</interpolation>
												</parameter>
											</effect>
										</filter>
										<logginginfo>
											<description></description>
											<scene></scene>
											<shottake></shottake>
											<lognote></lognote>
											<good></good>
											<originalvideofilename></originalvideofilename>
											<originalaudiofilename></originalaudiofilename>
										</logginginfo>
										<colorinfo>
											<lut></lut>
											<lut1></lut1>
											<asc_sop></asc_sop>
											<asc_sat></asc_sat>
											<lut2></lut2>
										</colorinfo>
										<labels>
											<label2>Violet</label2>
										</labels>
									</clipitem>
									<clipitem id="clipitem-970">
										<masterclipid>masterclip-74</masterclipid>
										<name>(gabby.jaye)_7067642196136086831_TT.mp4</name>
										<enabled>TRUE</enabled>
										<duration>782</duration>
										<rate>
											<timebase>30</timebase>
											<ntsc>TRUE</ntsc>
										</rate>
										<start>53955</start>
										<end>54447</end>
										<in>95</in>
										<out>587</out>
										<pproTicksIn>805188384000</pproTicksIn>
										<pproTicksOut>4975216646400</pproTicksOut>
										<alphatype>none</alphatype>
										<file id="file-62"/>
										<filter>
											<effect>
												<name>Basic Motion</name>
												<effectid>basic</effectid>
												<effectcategory>motion</effectcategory>
												<effecttype>motion</effecttype>
												<mediatype>video</mediatype>
												<pproBypass>false</pproBypass>
												<parameter authoringApp="PremierePro">
													<parameterid>scale</parameterid>
													<name>Scale</name>
													<valuemin>0</valuemin>
													<valuemax>1000</valuemax>
													<value>110</value>
												</parameter>
												<parameter authoringApp="PremierePro">
													<parameterid>rotation</parameterid>
													<name>Rotation</name>
													<valuemin>-8640</valuemin>
													<valuemax>8640</valuemax>
													<value>0</value>
												</parameter>
												<parameter authoringApp="PremierePro">
													<parameterid>center</parameterid>
													<name>Center</name>
													<value>
														<horiz>0</horiz>
														<vert>0</vert>
													</value>
												</parameter>
												<parameter authoringApp="PremierePro">
													<parameterid>centerOffset</parameterid>
													<name>Anchor Point</name>
													<value>
														<horiz>0</horiz>
														<vert>0</vert>
													</value>
												</parameter>
												<parameter authoringApp="PremierePro">
													<parameterid>antiflicker</parameterid>
													<name>Anti-flicker Filter</name>
													<valuemin>0.0</valuemin>
													<valuemax>1.0</valuemax>
													<value>0</value>
												</parameter>
											</effect>
										</filter>
										<logginginfo>
											<description></description>
											<scene></scene>
											<shottake></shottake>
											<lognote></lognote>
											<good></good>
											<originalvideofilename></originalvideofilename>
											<originalaudiofilename></originalaudiofilename>
										</logginginfo>
										<colorinfo>
											<lut></lut>
											<lut1></lut1>
											<asc_sop></asc_sop>
											<asc_sat></asc_sat>
											<lut2></lut2>
										</colorinfo>
										<labels>
											<label2>Violet</label2>
										</labels>
									</clipitem>
									<clipitem id="clipitem-971">
										<masterclipid>masterclip-74</masterclipid>
										<name>(gabby.jaye)_7067642196136086831_TT.mp4</name>
										<enabled>TRUE</enabled>
										<duration>782</duration>
										<rate>
											<timebase>30</timebase>
											<ntsc>TRUE</ntsc>
										</rate>
										<start>54447</start>
										<end>54503</end>
										<in>682</in>
										<out>738</out>
										<pproTicksIn>5780405030400</pproTicksIn>
										<pproTicksOut>6255042393600</pproTicksOut>
										<alphatype>none</alphatype>
										<file id="file-62"/>
										<filter>
											<effect>
												<name>Basic Motion</name>
												<effectid>basic</effectid>
												<effectcategory>motion</effectcategory>
												<effecttype>motion</effecttype>
												<mediatype>video</mediatype>
												<pproBypass>false</pproBypass>
												<parameter authoringApp="PremierePro">
													<parameterid>scale</parameterid>
													<name>Scale</name>
													<valuemin>0</valuemin>
													<valuemax>1000</valuemax>
													<value>110</value>
												</parameter>
												<parameter authoringApp="PremierePro">
													<parameterid>rotation</parameterid>
													<name>Rotation</name>
													<valuemin>-8640</valuemin>
													<valuemax>8640</valuemax>
													<value>0</value>
												</parameter>
												<parameter authoringApp="PremierePro">
													<parameterid>center</parameterid>
													<name>Center</name>
													<value>
														<horiz>0</horiz>
														<vert>0</vert>
													</value>
												</parameter>
												<parameter authoringApp="PremierePro">
													<parameterid>centerOffset</parameterid>
													<name>Anchor Point</name>
													<value>
														<horiz>0</horiz>
														<vert>0</vert>
													</value>
												</parameter>
												<parameter authoringApp="PremierePro">
													<parameterid>antiflicker</parameterid>
													<name>Anti-flicker Filter</name>
													<valuemin>0.0</valuemin>
													<valuemax>1.0</valuemax>
													<value>0</value>
												</parameter>
											</effect>
										</filter>
										<filter>
											<effect>
												<name>Gaussian Blur</name>
												<effectid>Gaussian Blur</effectid>
												<effectcategory>Blur</effectcategory>
												<effecttype>motion</effecttype>
												<mediatype>video</mediatype>
												<pproBypass>false</pproBypass>
												<parameter authoringApp="PremierePro">
													<parameterid>radius</parameterid>
													<name>Radius</name>
													<valuemin>0</valuemin>
													<valuemax>100</valuemax>
													<value>64</value>
												</parameter>
											</effect>
										</filter>
										<logginginfo>
											<description></description>
											<scene></scene>
											<shottake></shottake>
											<lognote></lognote>
											<good></good>
											<originalvideofilename></originalvideofilename>
											<originalaudiofilename></originalaudiofilename>
										</logginginfo>
										<colorinfo>
											<lut></lut>
											<lut1></lut1>
											<asc_sop></asc_sop>
											<asc_sat></asc_sat>
											<lut2></lut2>
										</colorinfo>
										<labels>
											<label2>Violet</label2>
										</labels>
									</clipitem>
									<clipitem id="clipitem-972">
										<masterclipid>masterclip-75</masterclipid>
										<name>(bakedbyprecious)_7089443248351087918_TT.mp4</name>
										<enabled>TRUE</enabled>
										<duration>440</duration>
										<rate>
											<timebase>30</timebase>
											<ntsc>TRUE</ntsc>
										</rate>
										<start>54503</start>
										<end>54943</end>
										<in>0</in>
										<out>440</out>
										<pproTicksIn>0</pproTicksIn>
										<pproTicksOut>3729293568000</pproTicksOut>
										<alphatype>none</alphatype>
										<file id="file-63"/>
										<logginginfo>
											<description></description>
											<scene></scene>
											<shottake></shottake>
											<lognote></lognote>
											<good></good>
											<originalvideofilename></originalvideofilename>
											<originalaudiofilename></originalaudiofilename>
										</logginginfo>
										<colorinfo>
											<lut></lut>
											<lut1></lut1>
											<asc_sop></asc_sop>
											<asc_sat></asc_sat>
											<lut2></lut2>
										</colorinfo>
										<labels>
											<label2>Violet</label2>
										</labels>
									</clipitem>
									<clipitem id="clipitem-973">
										<masterclipid>masterclip-78</masterclipid>
										<name>71898_Person filling a chocolate syringe and pouring the chocolate onto a tray_By_Lester_Platt_Artlist_HD.mp4</name>
										<enabled>TRUE</enabled>
										<duration>421</duration>
										<rate>
											<timebase>30</timebase>
											<ntsc>TRUE</ntsc>
										</rate>
										<start>54943</start>
										<end>55331</end>
										<in>0</in>
										<out>388</out>
										<pproTicksIn>0</pproTicksIn>
										<pproTicksOut>3288558873600</pproTicksOut>
										<alphatype>none</alphatype>
										<file id="file-65"/>
										<filter>
											<effect>
												<name>Distort</name>
												<effectid>deformation</effectid>
												<effectcategory>motion</effectcategory>
												<effecttype>motion</effecttype>
												<mediatype>video</mediatype>
												<parameter authoringApp="PremierePro">
													<parameterid>aspect</parameterid>
													<name>Aspect</name>
													<valuemin>-10000</valuemin>
													<valuemax>10000</valuemax>
													<value>-26.021</value>
												</parameter>
											</effect>
										</filter>
										<filter>
											<effect>
												<name>Basic Motion</name>
												<effectid>basic</effectid>
												<effectcategory>motion</effectcategory>
												<effecttype>motion</effecttype>
												<mediatype>video</mediatype>
												<parameter authoringApp="PremierePro">
													<parameterid>scale</parameterid>
													<name>Scale</name>
													<value>126.021</value>
												</parameter>
											</effect>
										</filter>
										<logginginfo>
											<description></description>
											<scene></scene>
											<shottake></shottake>
											<lognote></lognote>
											<good></good>
											<originalvideofilename></originalvideofilename>
											<originalaudiofilename></originalaudiofilename>
										</logginginfo>
										<colorinfo>
											<lut></lut>
											<lut1></lut1>
											<asc_sop></asc_sop>
											<asc_sat></asc_sat>
											<lut2></lut2>
										</colorinfo>
										<labels>
											<label2>Violet</label2>
										</labels>
									</clipitem>
									<clipitem id="clipitem-974">
										<masterclipid>masterclip-79</masterclipid>
										<name>71892_Woman pouring chocolate onto a tray from a chocolate syringe_By_Lester_Platt_Artlist_HD.mp4</name>
										<enabled>TRUE</enabled>
										<duration>298</duration>
										<rate>
											<timebase>30</timebase>
											<ntsc>TRUE</ntsc>
										</rate>
										<start>55331</start>
										<end>55629</end>
										<in>0</in>
										<out>298</out>
										<pproTicksIn>0</pproTicksIn>
										<pproTicksOut>2525748825600</pproTicksOut>
										<alphatype>none</alphatype>
										<file id="file-66"/>
										<filter>
											<effect>
												<name>Distort</name>
												<effectid>deformation</effectid>
												<effectcategory>motion</effectcategory>
												<effecttype>motion</effecttype>
												<mediatype>video</mediatype>
												<parameter authoringApp="PremierePro">
													<parameterid>aspect</parameterid>
													<name>Aspect</name>
													<valuemin>-10000</valuemin>
													<valuemax>10000</valuemax>
													<value>-26.021</value>
												</parameter>
											</effect>
										</filter>
										<filter>
											<effect>
												<name>Basic Motion</name>
												<effectid>basic</effectid>
												<effectcategory>motion</effectcategory>
												<effecttype>motion</effecttype>
												<mediatype>video</mediatype>
												<parameter authoringApp="PremierePro">
													<parameterid>scale</parameterid>
													<name>Scale</name>
													<value>126.021</value>
												</parameter>
											</effect>
										</filter>
										<logginginfo>
											<description></description>
											<scene></scene>
											<shottake></shottake>
											<lognote></lognote>
											<good></good>
											<originalvideofilename></originalvideofilename>
											<originalaudiofilename></originalaudiofilename>
										</logginginfo>
										<colorinfo>
											<lut></lut>
											<lut1></lut1>
											<asc_sop></asc_sop>
											<asc_sat></asc_sat>
											<lut2></lut2>
										</colorinfo>
										<labels>
											<label2>Violet</label2>
										</labels>
									</clipitem>
									<clipitem id="clipitem-975">
										<masterclipid>masterclip-80</masterclipid>
										<name>71899_Person spinning a bowl with dry orange slices _By_Lester_Platt_Artlist_HD.mp4</name>
										<enabled>TRUE</enabled>
										<duration>246</duration>
										<rate>
											<timebase>30</timebase>
											<ntsc>TRUE</ntsc>
										</rate>
										<start>55629</start>
										<end>55837</end>
										<in>0</in>
										<out>208</out>
										<pproTicksIn>0</pproTicksIn>
										<pproTicksOut>1762938777600</pproTicksOut>
										<alphatype>none</alphatype>
										<file id="file-67"/>
										<filter>
											<effect>
												<name>Distort</name>
												<effectid>deformation</effectid>
												<effectcategory>motion</effectcategory>
												<effecttype>motion</effecttype>
												<mediatype>video</mediatype>
												<parameter authoringApp="PremierePro">
													<parameterid>aspect</parameterid>
													<name>Aspect</name>
													<valuemin>-10000</valuemin>
													<valuemax>10000</valuemax>
													<value>-26.021</value>
												</parameter>
											</effect>
										</filter>
										<filter>
											<effect>
												<name>Basic Motion</name>
												<effectid>basic</effectid>
												<effectcategory>motion</effectcategory>
												<effecttype>motion</effecttype>
												<mediatype>video</mediatype>
												<parameter authoringApp="PremierePro">
													<parameterid>scale</parameterid>
													<name>Scale</name>
													<value>126.021</value>
												</parameter>
											</effect>
										</filter>
										<logginginfo>
											<description></description>
											<scene></scene>
											<shottake></shottake>
											<lognote></lognote>
											<good></good>
											<originalvideofilename></originalvideofilename>
											<originalaudiofilename></originalaudiofilename>
										</logginginfo>
										<colorinfo>
											<lut></lut>
											<lut1></lut1>
											<asc_sop></asc_sop>
											<asc_sat></asc_sat>
											<lut2></lut2>
										</colorinfo>
										<labels>
											<label2>Violet</label2>
										</labels>
									</clipitem>
									<clipitem id="clipitem-976">
										<masterclipid>masterclip-81</masterclipid>
										<name>71896_Man making chocolate with dry orange slices _By_Lester_Platt_Artlist_HD.mp4</name>
										<enabled>TRUE</enabled>
										<duration>495</duration>
										<rate>
											<timebase>30</timebase>
											<ntsc>TRUE</ntsc>
										</rate>
										<start>55837</start>
										<end>56105</end>
										<in>0</in>
										<out>268</out>
										<pproTicksIn>0</pproTicksIn>
										<pproTicksOut>2271478809600</pproTicksOut>
										<alphatype>none</alphatype>
										<file id="file-68"/>
										<filter>
											<effect>
												<name>Distort</name>
												<effectid>deformation</effectid>
												<effectcategory>motion</effectcategory>
												<effecttype>motion</effecttype>
												<mediatype>video</mediatype>
												<parameter authoringApp="PremierePro">
													<parameterid>aspect</parameterid>
													<name>Aspect</name>
													<valuemin>-10000</valuemin>
													<valuemax>10000</valuemax>
													<value>-26.021</value>
												</parameter>
											</effect>
										</filter>
										<filter>
											<effect>
												<name>Basic Motion</name>
												<effectid>basic</effectid>
												<effectcategory>motion</effectcategory>
												<effecttype>motion</effecttype>
												<mediatype>video</mediatype>
												<parameter authoringApp="PremierePro">
													<parameterid>scale</parameterid>
													<name>Scale</name>
													<value>126.021</value>
												</parameter>
											</effect>
										</filter>
										<logginginfo>
											<description></description>
											<scene></scene>
											<shottake></shottake>
											<lognote></lognote>
											<good></good>
											<originalvideofilename></originalvideofilename>
											<originalaudiofilename></originalaudiofilename>
										</logginginfo>
										<colorinfo>
											<lut></lut>
											<lut1></lut1>
											<asc_sop></asc_sop>
											<asc_sat></asc_sat>
											<lut2></lut2>
										</colorinfo>
										<labels>
											<label2>Violet</label2>
										</labels>
									</clipitem>
									<clipitem id="clipitem-977">
										<masterclipid>masterclip-82</masterclipid>
										<name>71893_Woman putting dry orange slices on chocolate in a tray_By_Lester_Platt_Artlist_HD.mp4</name>
										<enabled>TRUE</enabled>
										<duration>390</duration>
										<rate>
											<timebase>30</timebase>
											<ntsc>TRUE</ntsc>
										</rate>
										<start>56105</start>
										<end>56421</end>
										<in>0</in>
										<out>316</out>
										<pproTicksIn>0</pproTicksIn>
										<pproTicksOut>2678310835200</pproTicksOut>
										<alphatype>none</alphatype>
										<file id="file-69"/>
										<filter>
											<effect>
												<name>Distort</name>
												<effectid>deformation</effectid>
												<effectcategory>motion</effectcategory>
												<effecttype>motion</effecttype>
												<mediatype>video</mediatype>
												<parameter authoringApp="PremierePro">
													<parameterid>aspect</parameterid>
													<name>Aspect</name>
													<valuemin>-10000</valuemin>
													<valuemax>10000</valuemax>
													<value>-26.021</value>
												</parameter>
											</effect>
										</filter>
										<filter>
											<effect>
												<name>Basic Motion</name>
												<effectid>basic</effectid>
												<effectcategory>motion</effectcategory>
												<effecttype>motion</effecttype>
												<mediatype>video</mediatype>
												<parameter authoringApp="PremierePro">
													<parameterid>scale</parameterid>
													<name>Scale</name>
													<value>126.021</value>
												</parameter>
											</effect>
										</filter>
										<logginginfo>
											<description></description>
											<scene></scene>
											<shottake></shottake>
											<lognote></lognote>
											<good></good>
											<originalvideofilename></originalvideofilename>
											<originalaudiofilename></originalaudiofilename>
										</logginginfo>
										<colorinfo>
											<lut></lut>
											<lut1></lut1>
											<asc_sop></asc_sop>
											<asc_sat></asc_sat>
											<lut2></lut2>
										</colorinfo>
										<labels>
											<label2>Violet</label2>
										</labels>
									</clipitem>
									<clipitem id="clipitem-978">
										<masterclipid>masterclip-83</masterclipid>
										<name>71900_Person putting a tray of chocolate with orange slices on the shelf _By_Lester_Platt_Artlist_HD.mp4</name>
										<enabled>TRUE</enabled>
										<duration>137</duration>
										<rate>
											<timebase>30</timebase>
											<ntsc>TRUE</ntsc>
										</rate>
										<start>56421</start>
										<end>56526</end>
										<in>0</in>
										<out>105</out>
										<pproTicksIn>0</pproTicksIn>
										<pproTicksOut>889945056000</pproTicksOut>
										<alphatype>none</alphatype>
										<file id="file-70"/>
										<filter>
											<effect>
												<name>Distort</name>
												<effectid>deformation</effectid>
												<effectcategory>motion</effectcategory>
												<effecttype>motion</effecttype>
												<mediatype>video</mediatype>
												<parameter authoringApp="PremierePro">
													<parameterid>aspect</parameterid>
													<name>Aspect</name>
													<valuemin>-10000</valuemin>
													<valuemax>10000</valuemax>
													<value>-26.021</value>
												</parameter>
											</effect>
										</filter>
										<filter>
											<effect>
												<name>Basic Motion</name>
												<effectid>basic</effectid>
												<effectcategory>motion</effectcategory>
												<effecttype>motion</effecttype>
												<mediatype>video</mediatype>
												<parameter authoringApp="PremierePro">
													<parameterid>scale</parameterid>
													<name>Scale</name>
													<value>126.021</value>
												</parameter>
											</effect>
										</filter>
										<logginginfo>
											<description></description>
											<scene></scene>
											<shottake></shottake>
											<lognote></lognote>
											<good></good>
											<originalvideofilename></originalvideofilename>
											<originalaudiofilename></originalaudiofilename>
										</logginginfo>
										<colorinfo>
											<lut></lut>
											<lut1></lut1>
											<asc_sop></asc_sop>
											<asc_sat></asc_sat>
											<lut2></lut2>
										</colorinfo>
									</clipitem>
									<clipitem id="clipitem-979">
										<masterclipid>masterclip-84</masterclipid>
										<name>71897_Chocolate with orange slices on trays _By_Lester_Platt_Artlist_HD.mp4</name>
										<enabled>TRUE</enabled>
										<duration>350</duration>
										<rate>
											<timebase>30</timebase>
											<ntsc>TRUE</ntsc>
										</rate>
										<start>56526</start>
										<end>56798</end>
										<in>0</in>
										<out>272</out>
										<pproTicksIn>0</pproTicksIn>
										<pproTicksOut>2305381478400</pproTicksOut>
										<alphatype>none</alphatype>
										<file id="file-71"/>
										<filter>
											<effect>
												<name>Distort</name>
												<effectid>deformation</effectid>
												<effectcategory>motion</effectcategory>
												<effecttype>motion</effecttype>
												<mediatype>video</mediatype>
												<parameter authoringApp="PremierePro">
													<parameterid>aspect</parameterid>
													<name>Aspect</name>
													<valuemin>-10000</valuemin>
													<valuemax>10000</valuemax>
													<value>-26.021</value>
												</parameter>
											</effect>
										</filter>
										<filter>
											<effect>
												<name>Basic Motion</name>
												<effectid>basic</effectid>
												<effectcategory>motion</effectcategory>
												<effecttype>motion</effecttype>
												<mediatype>video</mediatype>
												<parameter authoringApp="PremierePro">
													<parameterid>scale</parameterid>
													<name>Scale</name>
													<value>126.021</value>
												</parameter>
											</effect>
										</filter>
										<logginginfo>
											<description></description>
											<scene></scene>
											<shottake></shottake>
											<lognote></lognote>
											<good></good>
											<originalvideofilename></originalvideofilename>
											<originalaudiofilename></originalaudiofilename>
										</logginginfo>
										<colorinfo>
											<lut></lut>
											<lut1></lut1>
											<asc_sop></asc_sop>
											<asc_sat></asc_sat>
											<lut2></lut2>
										</colorinfo>
										<labels>
											<label2>Violet</label2>
										</labels>
									</clipitem>
									<clipitem id="clipitem-980">
										<masterclipid>masterclip-89</masterclipid>
										<name>588791_Mixer Dough Hands Cookies_By_Erik_Nuenighoff_Artlist_HD.mp4</name>
										<enabled>TRUE</enabled>
										<duration>258</duration>
										<rate>
											<timebase>30</timebase>
											<ntsc>TRUE</ntsc>
										</rate>
										<start>56798</start>
										<end>56898</end>
										<in>85</in>
										<out>185</out>
										<pproTicksIn>720431712000</pproTicksIn>
										<pproTicksOut>1567998432000</pproTicksOut>
										<alphatype>none</alphatype>
										<file id="file-75"/>
										<logginginfo>
											<description></description>
											<scene></scene>
											<shottake></shottake>
											<lognote></lognote>
											<good></good>
											<originalvideofilename></originalvideofilename>
											<originalaudiofilename></originalaudiofilename>
										</logginginfo>
										<colorinfo>
											<lut></lut>
											<lut1></lut1>
											<asc_sop></asc_sop>
											<asc_sat></asc_sat>
											<lut2></lut2>
										</colorinfo>
									</clipitem>
									<clipitem id="clipitem-981">
										<masterclipid>masterclip-90</masterclipid>
										<name>588786_Cookies Kneading Baking Hands_By_Erik_Nuenighoff_Artlist_HD.mp4</name>
										<enabled>TRUE</enabled>
										<duration>1023</duration>
										<rate>
											<timebase>30</timebase>
											<ntsc>TRUE</ntsc>
										</rate>
										<start>56898</start>
										<end>57039</end>
										<in>161</in>
										<out>302</out>
										<pproTicksIn>1364582419200</pproTicksIn>
										<pproTicksOut>2559651494400</pproTicksOut>
										<alphatype>none</alphatype>
										<file id="file-76"/>
										<logginginfo>
											<description></description>
											<scene></scene>
											<shottake></shottake>
											<lognote></lognote>
											<good></good>
											<originalvideofilename></originalvideofilename>
											<originalaudiofilename></originalaudiofilename>
										</logginginfo>
										<colorinfo>
											<lut></lut>
											<lut1></lut1>
											<asc_sop></asc_sop>
											<asc_sat></asc_sat>
											<lut2></lut2>
										</colorinfo>
										<labels>
											<label2>Violet</label2>
										</labels>
									</clipitem>
									<clipitem id="clipitem-982">
										<masterclipid>masterclip-91</masterclipid>
										<name>588780_Cookies Baking Hands Dough_By_Erik_Nuenighoff_Artlist_HD.mp4</name>
										<enabled>TRUE</enabled>
										<duration>476</duration>
										<rate>
											<timebase>30</timebase>
											<ntsc>TRUE</ntsc>
										</rate>
										<start>57039</start>
										<end>57171</end>
										<in>291</in>
										<out>423</out>
										<pproTicksIn>2466419155200</pproTicksIn>
										<pproTicksOut>3585207225600</pproTicksOut>
										<alphatype>none</alphatype>
										<file id="file-77"/>
										<logginginfo>
											<description></description>
											<scene></scene>
											<shottake></shottake>
											<lognote></lognote>
											<good></good>
											<originalvideofilename></originalvideofilename>
											<originalaudiofilename></originalaudiofilename>
										</logginginfo>
										<colorinfo>
											<lut></lut>
											<lut1></lut1>
											<asc_sop></asc_sop>
											<asc_sat></asc_sat>
											<lut2></lut2>
										</colorinfo>
										<labels>
											<label2>Violet</label2>
										</labels>
									</clipitem>
									<clipitem id="clipitem-983">
										<masterclipid>masterclip-92</masterclipid>
										<name>588787_Cookies Kneading Baking Hands_By_Erik_Nuenighoff_Artlist_HD.mp4</name>
										<enabled>TRUE</enabled>
										<duration>771</duration>
										<rate>
											<timebase>30</timebase>
											<ntsc>TRUE</ntsc>
										</rate>
										<start>57171</start>
										<end>57370</end>
										<in>463</in>
										<out>662</out>
										<pproTicksIn>3924233913600</pproTicksIn>
										<pproTicksOut>5610891686400</pproTicksOut>
										<alphatype>none</alphatype>
										<file id="file-78"/>
										<logginginfo>
											<description></description>
											<scene></scene>
											<shottake></shottake>
											<lognote></lognote>
											<good></good>
											<originalvideofilename></originalvideofilename>
											<originalaudiofilename></originalaudiofilename>
										</logginginfo>
										<colorinfo>
											<lut></lut>
											<lut1></lut1>
											<asc_sop></asc_sop>
											<asc_sat></asc_sat>
											<lut2></lut2>
										</colorinfo>
										<labels>
											<label2>Violet</label2>
										</labels>
									</clipitem>
									<clipitem id="clipitem-984">
										<masterclipid>masterclip-93</masterclipid>
										<name>588783_Cookies Baking Hands Dough_By_Erik_Nuenighoff_Artlist_HD.mp4</name>
										<enabled>TRUE</enabled>
										<duration>233</duration>
										<rate>
											<timebase>30</timebase>
											<ntsc>TRUE</ntsc>
										</rate>
										<start>57370</start>
										<end>57456</end>
										<in>147</in>
										<out>233</out>
										<pproTicksIn>1245923078400</pproTicksIn>
										<pproTicksOut>1974830457600</pproTicksOut>
										<alphatype>none</alphatype>
										<file id="file-79"/>
										<logginginfo>
											<description></description>
											<scene></scene>
											<shottake></shottake>
											<lognote></lognote>
											<good></good>
											<originalvideofilename></originalvideofilename>
											<originalaudiofilename></originalaudiofilename>
										</logginginfo>
										<colorinfo>
											<lut></lut>
											<lut1></lut1>
											<asc_sop></asc_sop>
											<asc_sat></asc_sat>
											<lut2></lut2>
										</colorinfo>
										<labels>
											<label2>Violet</label2>
										</labels>
									</clipitem>
									<clipitem id="clipitem-985">
										<masterclipid>masterclip-94</masterclipid>
										<name>588788_Cookies Kneading Baking Hands_By_Erik_Nuenighoff_Artlist_HD.mp4</name>
										<enabled>TRUE</enabled>
										<duration>1176</duration>
										<rate>
											<timebase>30</timebase>
											<ntsc>TRUE</ntsc>
										</rate>
										<start>57456</start>
										<end>57837</end>
										<in>502</in>
										<out>883</out>
										<pproTicksIn>4254784934400</pproTicksIn>
										<pproTicksOut>7484014137600</pproTicksOut>
										<alphatype>none</alphatype>
										<file id="file-80"/>
										<logginginfo>
											<description></description>
											<scene></scene>
											<shottake></shottake>
											<lognote></lognote>
											<good></good>
											<originalvideofilename></originalvideofilename>
											<originalaudiofilename></originalaudiofilename>
										</logginginfo>
										<colorinfo>
											<lut></lut>
											<lut1></lut1>
											<asc_sop></asc_sop>
											<asc_sat></asc_sat>
											<lut2></lut2>
										</colorinfo>
										<labels>
											<label2>Violet</label2>
										</labels>
									</clipitem>
									<clipitem id="clipitem-986">
										<masterclipid>masterclip-95</masterclipid>
										<name>588779_Jam Hands Opening Jar_By_Erik_Nuenighoff_Artlist_HD.mp4</name>
										<enabled>TRUE</enabled>
										<duration>263</duration>
										<rate>
											<timebase>30</timebase>
											<ntsc>TRUE</ntsc>
										</rate>
										<start>57837</start>
										<end>58001</end>
										<in>22</in>
										<out>186</out>
										<pproTicksIn>186464678400</pproTicksIn>
										<pproTicksOut>1576474099200</pproTicksOut>
										<alphatype>none</alphatype>
										<file id="file-81"/>
										<logginginfo>
											<description></description>
											<scene></scene>
											<shottake></shottake>
											<lognote></lognote>
											<good></good>
											<originalvideofilename></originalvideofilename>
											<originalaudiofilename></originalaudiofilename>
										</logginginfo>
										<colorinfo>
											<lut></lut>
											<lut1></lut1>
											<asc_sop></asc_sop>
											<asc_sat></asc_sat>
											<lut2></lut2>
										</colorinfo>
										<labels>
											<label2>Violet</label2>
										</labels>
									</clipitem>
									<clipitem id="clipitem-987">
										<masterclipid>masterclip-96</masterclipid>
										<name>588775_Cookies Jam Baking Hands_By_Erik_Nuenighoff_Artlist_HD.mp4</name>
										<enabled>TRUE</enabled>
										<duration>205</duration>
										<rate>
											<timebase>30</timebase>
											<ntsc>TRUE</ntsc>
										</rate>
										<start>58001</start>
										<end>58184</end>
										<in>0</in>
										<out>183</out>
										<pproTicksIn>0</pproTicksIn>
										<pproTicksOut>1551047097600</pproTicksOut>
										<alphatype>none</alphatype>
										<file id="file-82"/>
										<logginginfo>
											<description></description>
											<scene></scene>
											<shottake></shottake>
											<lognote></lognote>
											<good></good>
											<originalvideofilename></originalvideofilename>
											<originalaudiofilename></originalaudiofilename>
										</logginginfo>
										<colorinfo>
											<lut></lut>
											<lut1></lut1>
											<asc_sop></asc_sop>
											<asc_sat></asc_sat>
											<lut2></lut2>
										</colorinfo>
										<labels>
											<label2>Violet</label2>
										</labels>
									</clipitem>
									<clipitem id="clipitem-988">
										<masterclipid>masterclip-97</masterclipid>
										<name>588774_Cookies Jam Baking Hands_By_Erik_Nuenighoff_Artlist_HD.mp4</name>
										<enabled>TRUE</enabled>
										<duration>360</duration>
										<rate>
											<timebase>30</timebase>
											<ntsc>TRUE</ntsc>
										</rate>
										<start>58184</start>
										<end>58390</end>
										<in>0</in>
										<out>206</out>
										<pproTicksIn>0</pproTicksIn>
										<pproTicksOut>1745987443200</pproTicksOut>
										<alphatype>none</alphatype>
										<file id="file-83"/>
										<logginginfo>
											<description></description>
											<scene></scene>
											<shottake></shottake>
											<lognote></lognote>
											<good></good>
											<originalvideofilename></originalvideofilename>
											<originalaudiofilename></originalaudiofilename>
										</logginginfo>
										<colorinfo>
											<lut></lut>
											<lut1></lut1>
											<asc_sop></asc_sop>
											<asc_sat></asc_sat>
											<lut2></lut2>
										</colorinfo>
										<labels>
											<label2>Violet</label2>
										</labels>
									</clipitem>
									<clipitem id="clipitem-989">
										<masterclipid>masterclip-98</masterclipid>
										<name>588776_Cookies Jam Baking Hands_By_Erik_Nuenighoff_Artlist_HD.mp4</name>
										<enabled>TRUE</enabled>
										<duration>605</duration>
										<rate>
											<timebase>30</timebase>
											<ntsc>TRUE</ntsc>
										</rate>
										<start>58390</start>
										<end>58545</end>
										<in>147</in>
										<out>302</out>
										<pproTicksIn>1245923078400</pproTicksIn>
										<pproTicksOut>2559651494400</pproTicksOut>
										<alphatype>none</alphatype>
										<file id="file-84"/>
										<logginginfo>
											<description></description>
											<scene></scene>
											<shottake></shottake>
											<lognote></lognote>
											<good></good>
											<originalvideofilename></originalvideofilename>
											<originalaudiofilename></originalaudiofilename>
										</logginginfo>
										<colorinfo>
											<lut></lut>
											<lut1></lut1>
											<asc_sop></asc_sop>
											<asc_sat></asc_sat>
											<lut2></lut2>
										</colorinfo>
										<labels>
											<label2>Violet</label2>
										</labels>
									</clipitem>
									<clipitem id="clipitem-990">
										<masterclipid>masterclip-99</masterclipid>
										<name>588777_Cookies Jam Baking Hands_By_Erik_Nuenighoff_Artlist_HD.mp4</name>
										<enabled>TRUE</enabled>
										<duration>447</duration>
										<rate>
											<timebase>30</timebase>
											<ntsc>TRUE</ntsc>
										</rate>
										<start>58545</start>
										<end>58701</end>
										<in>220</in>
										<out>376</out>
										<pproTicksIn>1864646784000</pproTicksIn>
										<pproTicksOut>3186850867200</pproTicksOut>
										<alphatype>none</alphatype>
										<file id="file-85"/>
										<logginginfo>
											<description></description>
											<scene></scene>
											<shottake></shottake>
											<lognote></lognote>
											<good></good>
											<originalvideofilename></originalvideofilename>
											<originalaudiofilename></originalaudiofilename>
										</logginginfo>
										<colorinfo>
											<lut></lut>
											<lut1></lut1>
											<asc_sop></asc_sop>
											<asc_sat></asc_sat>
											<lut2></lut2>
										</colorinfo>
										<labels>
											<label2>Violet</label2>
										</labels>
									</clipitem>
									<clipitem id="clipitem-991">
										<masterclipid>masterclip-100</masterclipid>
										<name>588792_Cookies Baking Jam Dough_By_Erik_Nuenighoff_Artlist_HD.mp4</name>
										<enabled>TRUE</enabled>
										<duration>387</duration>
										<rate>
											<timebase>30</timebase>
											<ntsc>TRUE</ntsc>
										</rate>
										<start>58701</start>
										<end>58862</end>
										<in>0</in>
										<out>161</out>
										<pproTicksIn>0</pproTicksIn>
										<pproTicksOut>1364582419200</pproTicksOut>
										<alphatype>none</alphatype>
										<file id="file-86"/>
										<logginginfo>
											<description></description>
											<scene></scene>
											<shottake></shottake>
											<lognote></lognote>
											<good></good>
											<originalvideofilename></originalvideofilename>
											<originalaudiofilename></originalaudiofilename>
										</logginginfo>
										<colorinfo>
											<lut></lut>
											<lut1></lut1>
											<asc_sop></asc_sop>
											<asc_sat></asc_sat>
											<lut2></lut2>
										</colorinfo>
										<labels>
											<label2>Violet</label2>
										</labels>
									</clipitem>
									<clipitem id="clipitem-992">
										<masterclipid>masterclip-101</masterclipid>
										<name>588784_Cookies Oven Baking Hands_By_Erik_Nuenighoff_Artlist_HD.mp4</name>
										<enabled>TRUE</enabled>
										<duration>482</duration>
										<rate>
											<timebase>30</timebase>
											<ntsc>TRUE</ntsc>
										</rate>
										<start>58862</start>
										<end>59139</end>
										<in>0</in>
										<out>277</out>
										<pproTicksIn>0</pproTicksIn>
										<pproTicksOut>2347759814400</pproTicksOut>
										<alphatype>none</alphatype>
										<file id="file-87"/>
										<logginginfo>
											<description></description>
											<scene></scene>
											<shottake></shottake>
											<lognote></lognote>
											<good></good>
											<originalvideofilename></originalvideofilename>
											<originalaudiofilename></originalaudiofilename>
										</logginginfo>
										<colorinfo>
											<lut></lut>
											<lut1></lut1>
											<asc_sop></asc_sop>
											<asc_sat></asc_sat>
											<lut2></lut2>
										</colorinfo>
										<labels>
											<label2>Violet</label2>
										</labels>
									</clipitem>
									<clipitem id="clipitem-993">
										<masterclipid>masterclip-104</masterclipid>
										<name>(aquickspoonful)_CtCL7euRzZF_IG.mp4</name>
										<enabled>TRUE</enabled>
										<duration>420</duration>
										<rate>
											<timebase>30</timebase>
											<ntsc>TRUE</ntsc>
										</rate>
										<start>59139</start>
										<end>59559</end>
										<in>0</in>
										<out>420</out>
										<pproTicksIn>0</pproTicksIn>
										<pproTicksOut>3559780224000</pproTicksOut>
										<alphatype>none</alphatype>
										<file id="file-89"/>
										<logginginfo>
											<description></description>
											<scene></scene>
											<shottake></shottake>
											<lognote></lognote>
											<good></good>
											<originalvideofilename></originalvideofilename>
											<originalaudiofilename></originalaudiofilename>
										</logginginfo>
										<colorinfo>
											<lut></lut>
											<lut1></lut1>
											<asc_sop></asc_sop>
											<asc_sat></asc_sat>
											<lut2></lut2>
										</colorinfo>
										<labels>
											<label2>Violet</label2>
										</labels>
									</clipitem>
									<clipitem id="clipitem-994">
										<masterclipid>masterclip-105</masterclipid>
										<name>(aquickspoonful)_CrhMm14svhT_IG.mp4</name>
										<enabled>TRUE</enabled>
										<duration>427</duration>
										<rate>
											<timebase>30</timebase>
											<ntsc>TRUE</ntsc>
										</rate>
										<start>59559</start>
										<end>59986</end>
										<in>0</in>
										<out>427</out>
										<pproTicksIn>0</pproTicksIn>
										<pproTicksOut>3619109894400</pproTicksOut>
										<alphatype>none</alphatype>
										<file id="file-90"/>
										<logginginfo>
											<description></description>
											<scene></scene>
											<shottake></shottake>
											<lognote></lognote>
											<good></good>
											<originalvideofilename></originalvideofilename>
											<originalaudiofilename></originalaudiofilename>
										</logginginfo>
										<colorinfo>
											<lut></lut>
											<lut1></lut1>
											<asc_sop></asc_sop>
											<asc_sat></asc_sat>
											<lut2></lut2>
										</colorinfo>
									</clipitem>
									<clipitem id="clipitem-995">
										<masterclipid>masterclip-106</masterclipid>
										<name>(aquickspoonful)_CqrH4zLN_GX_IG.mp4</name>
										<enabled>TRUE</enabled>
										<duration>440</duration>
										<rate>
											<timebase>30</timebase>
											<ntsc>TRUE</ntsc>
										</rate>
										<start>59986</start>
										<end>60426</end>
										<in>0</in>
										<out>440</out>
										<pproTicksIn>0</pproTicksIn>
										<pproTicksOut>3729293568000</pproTicksOut>
										<alphatype>none</alphatype>
										<file id="file-91"/>
										<logginginfo>
											<description></description>
											<scene></scene>
											<shottake></shottake>
											<lognote></lognote>
											<good></good>
											<originalvideofilename></originalvideofilename>
											<originalaudiofilename></originalaudiofilename>
										</logginginfo>
										<colorinfo>
											<lut></lut>
											<lut1></lut1>
											<asc_sop></asc_sop>
											<asc_sat></asc_sat>
											<lut2></lut2>
										</colorinfo>
									</clipitem>
									<clipitem id="clipitem-996">
										<masterclipid>masterclip-107</masterclipid>
										<name>(aquickspoonful)_CsXRW6_OFdm_IG.mp4</name>
										<enabled>TRUE</enabled>
										<duration>432</duration>
										<rate>
											<timebase>30</timebase>
											<ntsc>TRUE</ntsc>
										</rate>
										<start>60426</start>
										<end>60858</end>
										<in>0</in>
										<out>432</out>
										<pproTicksIn>0</pproTicksIn>
										<pproTicksOut>3661488230400</pproTicksOut>
										<alphatype>none</alphatype>
										<file id="file-92"/>
										<logginginfo>
											<description></description>
											<scene></scene>
											<shottake></shottake>
											<lognote></lognote>
											<good></good>
											<originalvideofilename></originalvideofilename>
											<originalaudiofilename></originalaudiofilename>
										</logginginfo>
										<colorinfo>
											<lut></lut>
											<lut1></lut1>
											<asc_sop></asc_sop>
											<asc_sat></asc_sat>
											<lut2></lut2>
										</colorinfo>
									</clipitem>
									<clipitem id="clipitem-997">
										<masterclipid>masterclip-108</masterclipid>
										<name>(aquickspoonful)_Cr6FrG0g6xs_IG.mp4</name>
										<enabled>TRUE</enabled>
										<duration>429</duration>
										<rate>
											<timebase>30</timebase>
											<ntsc>TRUE</ntsc>
										</rate>
										<start>60858</start>
										<end>61287</end>
										<in>0</in>
										<out>429</out>
										<pproTicksIn>0</pproTicksIn>
										<pproTicksOut>3636061228800</pproTicksOut>
										<alphatype>none</alphatype>
										<file id="file-93"/>
										<logginginfo>
											<description></description>
											<scene></scene>
											<shottake></shottake>
											<lognote></lognote>
											<good></good>
											<originalvideofilename></originalvideofilename>
											<originalaudiofilename></originalaudiofilename>
										</logginginfo>
										<colorinfo>
											<lut></lut>
											<lut1></lut1>
											<asc_sop></asc_sop>
											<asc_sat></asc_sat>
											<lut2></lut2>
										</colorinfo>
									</clipitem>
									<clipitem id="clipitem-998">
										<masterclipid>masterclip-109</masterclipid>
										<name>(aquickspoonful)_CtWyQ1ag-is_IG.mp4</name>
										<enabled>TRUE</enabled>
										<duration>450</duration>
										<rate>
											<timebase>30</timebase>
											<ntsc>TRUE</ntsc>
										</rate>
										<start>61287</start>
										<end>61737</end>
										<in>0</in>
										<out>450</out>
										<pproTicksIn>0</pproTicksIn>
										<pproTicksOut>3814050240000</pproTicksOut>
										<alphatype>none</alphatype>
										<file id="file-94"/>
										<logginginfo>
											<description></description>
											<scene></scene>
											<shottake></shottake>
											<lognote></lognote>
											<good></good>
											<originalvideofilename></originalvideofilename>
											<originalaudiofilename></originalaudiofilename>
										</logginginfo>
										<colorinfo>
											<lut></lut>
											<lut1></lut1>
											<asc_sop></asc_sop>
											<asc_sat></asc_sat>
											<lut2></lut2>
										</colorinfo>
									</clipitem>
									<clipitem id="clipitem-999">
										<masterclipid>masterclip-116</masterclipid>
										<name>(sweeterlayers)_7007192522430614790_TT.mp4</name>
										<enabled>TRUE</enabled>
										<duration>741</duration>
										<rate>
											<timebase>30</timebase>
											<ntsc>TRUE</ntsc>
										</rate>
										<start>61737</start>
										<end>62205</end>
										<in>0</in>
										<out>468</out>
										<pproTicksIn>0</pproTicksIn>
										<pproTicksOut>9916530624000</pproTicksOut>
										<alphatype>none</alphatype>
										<file id="file-99"/>
										<filter>
											<effect>
												<name>Basic Motion</name>
												<effectid>basic</effectid>
												<effectcategory>motion</effectcategory>
												<effecttype>motion</effecttype>
												<mediatype>video</mediatype>
												<pproBypass>false</pproBypass>
												<parameter authoringApp="PremierePro">
													<parameterid>scale</parameterid>
													<name>Scale</name>
													<valuemin>0</valuemin>
													<valuemax>1000</valuemax>
													<value>106</value>
												</parameter>
												<parameter authoringApp="PremierePro">
													<parameterid>rotation</parameterid>
													<name>Rotation</name>
													<valuemin>-8640</valuemin>
													<valuemax>8640</valuemax>
													<value>0</value>
												</parameter>
												<parameter authoringApp="PremierePro">
													<parameterid>center</parameterid>
													<name>Center</name>
													<value>
														<horiz>0</horiz>
														<vert>0</vert>
													</value>
												</parameter>
												<parameter authoringApp="PremierePro">
													<parameterid>centerOffset</parameterid>
													<name>Anchor Point</name>
													<value>
														<horiz>0</horiz>
														<vert>0</vert>
													</value>
												</parameter>
												<parameter authoringApp="PremierePro">
													<parameterid>antiflicker</parameterid>
													<name>Anti-flicker Filter</name>
													<valuemin>0.0</valuemin>
													<valuemax>1.0</valuemax>
													<value>0</value>
												</parameter>
											</effect>
										</filter>
										<filter>
											<effect>
												<name>Time Remap</name>
												<effectid>timeremap</effectid>
												<effectcategory>motion</effectcategory>
												<effecttype>motion</effecttype>
												<mediatype>video</mediatype>
												<parameter authoringApp="PremierePro">
													<parameterid>variablespeed</parameterid>
													<name>variablespeed</name>
													<valuemin>0</valuemin>
													<valuemax>1</valuemax>
													<value>0</value>
												</parameter>
												<parameter authoringApp="PremierePro">
													<parameterid>speed</parameterid>
													<name>speed</name>
													<valuemin>-100000</valuemin>
													<valuemax>100000</valuemax>
													<value>250</value>
												</parameter>
												<parameter authoringApp="PremierePro">
													<parameterid>reverse</parameterid>
													<name>reverse</name>
													<value>FALSE</value>
												</parameter>
												<parameter authoringApp="PremierePro">
													<parameterid>frameblending</parameterid>
													<name>frameblending</name>
													<value>FALSE</value>
												</parameter>
												<parameter authoringApp="PremierePro">
													<parameterid>graphdict</parameterid>
													<name>graphdict</name>
													<valuemin>0</valuemin>
													<valuemax>1852</valuemax>
													<value>0</value>
													<keyframe>
														<when>0</when>
														<value>0</value>
														<speedvirtualkf>TRUE</speedvirtualkf>
														<speedkfin>TRUE</speedkfin>
													</keyframe>
													<keyframe>
														<when>468</when>
														<value>1170</value>
														<speedvirtualkf>TRUE</speedvirtualkf>
														<speedkfout>TRUE</speedkfout>
													</keyframe>
													<keyframe>
														<when>741</when>
														<value>1852</value>
														<speedvirtualkf>TRUE</speedvirtualkf>
														<speedkfend>TRUE</speedkfend>
													</keyframe>
													<interpolation>
														<name>FCPCurve</name>
													</interpolation>
												</parameter>
											</effect>
										</filter>
										<logginginfo>
											<description></description>
											<scene></scene>
											<shottake></shottake>
											<lognote></lognote>
											<good></good>
											<originalvideofilename></originalvideofilename>
											<originalaudiofilename></originalaudiofilename>
										</logginginfo>
										<colorinfo>
											<lut></lut>
											<lut1></lut1>
											<asc_sop></asc_sop>
											<asc_sat></asc_sat>
											<lut2></lut2>
										</colorinfo>
										<labels>
											<label2>Violet</label2>
										</labels>
									</clipitem>
									<clipitem id="clipitem-1000">
										<masterclipid>masterclip-116</masterclipid>
										<name>(sweeterlayers)_7007192522430614790_TT.mp4</name>
										<enabled>TRUE</enabled>
										<duration>1853</duration>
										<rate>
											<timebase>30</timebase>
											<ntsc>TRUE</ntsc>
										</rate>
										<start>62205</start>
										<end>62276</end>
										<in>1645</in>
										<out>1716</out>
										<pproTicksIn>13942472544000</pproTicksIn>
										<pproTicksOut>14544244915200</pproTicksOut>
										<alphatype>none</alphatype>
										<file id="file-99"/>
										<filter>
											<effect>
												<name>Basic Motion</name>
												<effectid>basic</effectid>
												<effectcategory>motion</effectcategory>
												<effecttype>motion</effecttype>
												<mediatype>video</mediatype>
												<pproBypass>false</pproBypass>
												<parameter authoringApp="PremierePro">
													<parameterid>scale</parameterid>
													<name>Scale</name>
													<valuemin>0</valuemin>
													<valuemax>1000</valuemax>
													<value>106</value>
												</parameter>
												<parameter authoringApp="PremierePro">
													<parameterid>rotation</parameterid>
													<name>Rotation</name>
													<valuemin>-8640</valuemin>
													<valuemax>8640</valuemax>
													<value>0</value>
												</parameter>
												<parameter authoringApp="PremierePro">
													<parameterid>center</parameterid>
													<name>Center</name>
													<value>
														<horiz>0</horiz>
														<vert>0</vert>
													</value>
												</parameter>
												<parameter authoringApp="PremierePro">
													<parameterid>centerOffset</parameterid>
													<name>Anchor Point</name>
													<value>
														<horiz>0</horiz>
														<vert>0</vert>
													</value>
												</parameter>
												<parameter authoringApp="PremierePro">
													<parameterid>antiflicker</parameterid>
													<name>Anti-flicker Filter</name>
													<valuemin>0.0</valuemin>
													<valuemax>1.0</valuemax>
													<value>0</value>
												</parameter>
											</effect>
										</filter>
										<logginginfo>
											<description></description>
											<scene></scene>
											<shottake></shottake>
											<lognote></lognote>
											<good></good>
											<originalvideofilename></originalvideofilename>
											<originalaudiofilename></originalaudiofilename>
										</logginginfo>
										<colorinfo>
											<lut></lut>
											<lut1></lut1>
											<asc_sop></asc_sop>
											<asc_sat></asc_sat>
											<lut2></lut2>
										</colorinfo>
										<labels>
											<label2>Violet</label2>
										</labels>
									</clipitem>
									<clipitem id="clipitem-1001">
										<masterclipid>masterclip-116</masterclipid>
										<name>(sweeterlayers)_7007192522430614790_TT.mp4</name>
										<enabled>TRUE</enabled>
										<duration>1853</duration>
										<rate>
											<timebase>30</timebase>
											<ntsc>TRUE</ntsc>
										</rate>
										<start>62276</start>
										<end>62358</end>
										<in>1751</in>
										<out>1833</out>
										<pproTicksIn>14840893267200</pproTicksIn>
										<pproTicksOut>15535897977600</pproTicksOut>
										<alphatype>none</alphatype>
										<file id="file-99"/>
										<filter>
											<effect>
												<name>Basic Motion</name>
												<effectid>basic</effectid>
												<effectcategory>motion</effectcategory>
												<effecttype>motion</effecttype>
												<mediatype>video</mediatype>
												<pproBypass>false</pproBypass>
												<parameter authoringApp="PremierePro">
													<parameterid>scale</parameterid>
													<name>Scale</name>
													<valuemin>0</valuemin>
													<valuemax>1000</valuemax>
													<value>106</value>
												</parameter>
												<parameter authoringApp="PremierePro">
													<parameterid>rotation</parameterid>
													<name>Rotation</name>
													<valuemin>-8640</valuemin>
													<valuemax>8640</valuemax>
													<value>0</value>
												</parameter>
												<parameter authoringApp="PremierePro">
													<parameterid>center</parameterid>
													<name>Center</name>
													<value>
														<horiz>0</horiz>
														<vert>0</vert>
													</value>
												</parameter>
												<parameter authoringApp="PremierePro">
													<parameterid>centerOffset</parameterid>
													<name>Anchor Point</name>
													<value>
														<horiz>0</horiz>
														<vert>0</vert>
													</value>
												</parameter>
												<parameter authoringApp="PremierePro">
													<parameterid>antiflicker</parameterid>
													<name>Anti-flicker Filter</name>
													<valuemin>0.0</valuemin>
													<valuemax>1.0</valuemax>
													<value>0</value>
												</parameter>
											</effect>
										</filter>
										<logginginfo>
											<description></description>
											<scene></scene>
											<shottake></shottake>
											<lognote></lognote>
											<good></good>
											<originalvideofilename></originalvideofilename>
											<originalaudiofilename></originalaudiofilename>
										</logginginfo>
										<colorinfo>
											<lut></lut>
											<lut1></lut1>
											<asc_sop></asc_sop>
											<asc_sat></asc_sat>
											<lut2></lut2>
										</colorinfo>
										<labels>
											<label2>Violet</label2>
										</labels>
									</clipitem>
									<clipitem id="clipitem-1002">
										<masterclipid>masterclip-117</masterclipid>
										<name>(allthesugartx)_ChAK1pQlR1o_IG.mp4</name>
										<enabled>TRUE</enabled>
										<duration>482</duration>
										<rate>
											<timebase>30</timebase>
											<ntsc>TRUE</ntsc>
										</rate>
										<start>62358</start>
										<end>62840</end>
										<in>0</in>
										<out>482</out>
										<pproTicksIn>0</pproTicksIn>
										<pproTicksOut>4085271590400</pproTicksOut>
										<alphatype>none</alphatype>
										<file id="file-100"/>
										<logginginfo>
											<description></description>
											<scene></scene>
											<shottake></shottake>
											<lognote></lognote>
											<good></good>
											<originalvideofilename></originalvideofilename>
											<originalaudiofilename></originalaudiofilename>
										</logginginfo>
										<colorinfo>
											<lut></lut>
											<lut1></lut1>
											<asc_sop></asc_sop>
											<asc_sat></asc_sat>
											<lut2></lut2>
										</colorinfo>
										<labels>
											<label2>Caribbean</label2>
										</labels>
									</clipitem>
									<clipitem id="clipitem-1003">
										<masterclipid>masterclip-118</masterclipid>
										<name>(thesweetimpact)_CSHmlPGgov2_IG.mp4</name>
										<enabled>TRUE</enabled>
										<duration>1786</duration>
										<rate>
											<timebase>30</timebase>
											<ntsc>TRUE</ntsc>
										</rate>
										<start>62840</start>
										<end>62906</end>
										<in>236</in>
										<out>302</out>
										<pproTicksIn>2000257459200</pproTicksIn>
										<pproTicksOut>2559651494400</pproTicksOut>
										<alphatype>none</alphatype>
										<file id="file-101"/>
										<logginginfo>
											<description></description>
											<scene></scene>
											<shottake></shottake>
											<lognote></lognote>
											<good></good>
											<originalvideofilename></originalvideofilename>
											<originalaudiofilename></originalaudiofilename>
										</logginginfo>
										<colorinfo>
											<lut></lut>
											<lut1></lut1>
											<asc_sop></asc_sop>
											<asc_sat></asc_sat>
											<lut2></lut2>
										</colorinfo>
									</clipitem>
									<clipitem id="clipitem-1004">
										<masterclipid>masterclip-118</masterclipid>
										<name>(thesweetimpact)_CSHmlPGgov2_IG.mp4</name>
										<enabled>TRUE</enabled>
										<duration>1786</duration>
										<rate>
											<timebase>30</timebase>
											<ntsc>TRUE</ntsc>
										</rate>
										<start>62906</start>
										<end>62928</end>
										<in>550</in>
										<out>572</out>
										<pproTicksIn>4661616960000</pproTicksIn>
										<pproTicksOut>4848081638400</pproTicksOut>
										<alphatype>none</alphatype>
										<file id="file-101"/>
										<logginginfo>
											<description></description>
											<scene></scene>
											<shottake></shottake>
											<lognote></lognote>
											<good></good>
											<originalvideofilename></originalvideofilename>
											<originalaudiofilename></originalaudiofilename>
										</logginginfo>
										<colorinfo>
											<lut></lut>
											<lut1></lut1>
											<asc_sop></asc_sop>
											<asc_sat></asc_sat>
											<lut2></lut2>
										</colorinfo>
									</clipitem>
									<clipitem id="clipitem-1005">
										<masterclipid>masterclip-118</masterclipid>
										<name>(thesweetimpact)_CSHmlPGgov2_IG.mp4</name>
										<enabled>TRUE</enabled>
										<duration>1786</duration>
										<rate>
											<timebase>30</timebase>
											<ntsc>TRUE</ntsc>
										</rate>
										<start>62928</start>
										<end>62956</end>
										<in>624</in>
										<out>652</out>
										<pproTicksIn>5288816332800</pproTicksIn>
										<pproTicksOut>5526135014400</pproTicksOut>
										<alphatype>none</alphatype>
										<file id="file-101"/>
										<logginginfo>
											<description></description>
											<scene></scene>
											<shottake></shottake>
											<lognote></lognote>
											<good></good>
											<originalvideofilename></originalvideofilename>
											<originalaudiofilename></originalaudiofilename>
										</logginginfo>
										<colorinfo>
											<lut></lut>
											<lut1></lut1>
											<asc_sop></asc_sop>
											<asc_sat></asc_sat>
											<lut2></lut2>
										</colorinfo>
									</clipitem>
									<clipitem id="clipitem-1006">
										<masterclipid>masterclip-118</masterclipid>
										<name>(thesweetimpact)_CSHmlPGgov2_IG.mp4</name>
										<enabled>TRUE</enabled>
										<duration>1786</duration>
										<rate>
											<timebase>30</timebase>
											<ntsc>TRUE</ntsc>
										</rate>
										<start>62956</start>
										<end>62984</end>
										<in>729</in>
										<out>757</out>
										<pproTicksIn>6178761388800</pproTicksIn>
										<pproTicksOut>6416080070400</pproTicksOut>
										<alphatype>none</alphatype>
										<file id="file-101"/>
										<logginginfo>
											<description></description>
											<scene></scene>
											<shottake></shottake>
											<lognote></lognote>
											<good></good>
											<originalvideofilename></originalvideofilename>
											<originalaudiofilename></originalaudiofilename>
										</logginginfo>
										<colorinfo>
											<lut></lut>
											<lut1></lut1>
											<asc_sop></asc_sop>
											<asc_sat></asc_sat>
											<lut2></lut2>
										</colorinfo>
									</clipitem>
									<clipitem id="clipitem-1007">
										<masterclipid>masterclip-118</masterclipid>
										<name>(thesweetimpact)_CSHmlPGgov2_IG.mp4</name>
										<enabled>TRUE</enabled>
										<duration>1786</duration>
										<rate>
											<timebase>30</timebase>
											<ntsc>TRUE</ntsc>
										</rate>
										<start>62984</start>
										<end>63054</end>
										<in>864</in>
										<out>934</out>
										<pproTicksIn>7322976460800</pproTicksIn>
										<pproTicksOut>7916273164800</pproTicksOut>
										<alphatype>none</alphatype>
										<file id="file-101"/>
										<logginginfo>
											<description></description>
											<scene></scene>
											<shottake></shottake>
											<lognote></lognote>
											<good></good>
											<originalvideofilename></originalvideofilename>
											<originalaudiofilename></originalaudiofilename>
										</logginginfo>
										<colorinfo>
											<lut></lut>
											<lut1></lut1>
											<asc_sop></asc_sop>
											<asc_sat></asc_sat>
											<lut2></lut2>
										</colorinfo>
									</clipitem>
									<clipitem id="clipitem-1008">
										<masterclipid>masterclip-118</masterclipid>
										<name>(thesweetimpact)_CSHmlPGgov2_IG.mp4</name>
										<enabled>TRUE</enabled>
										<duration>1786</duration>
										<rate>
											<timebase>30</timebase>
											<ntsc>TRUE</ntsc>
										</rate>
										<start>63054</start>
										<end>63174</end>
										<in>947</in>
										<out>1067</out>
										<pproTicksIn>8026456838400</pproTicksIn>
										<pproTicksOut>9043536902400</pproTicksOut>
										<alphatype>none</alphatype>
										<file id="file-101"/>
										<logginginfo>
											<description></description>
											<scene></scene>
											<shottake></shottake>
											<lognote></lognote>
											<good></good>
											<originalvideofilename></originalvideofilename>
											<originalaudiofilename></originalaudiofilename>
										</logginginfo>
										<colorinfo>
											<lut></lut>
											<lut1></lut1>
											<asc_sop></asc_sop>
											<asc_sat></asc_sat>
											<lut2></lut2>
										</colorinfo>
									</clipitem>
									<clipitem id="clipitem-1009">
										<masterclipid>masterclip-118</masterclipid>
										<name>(thesweetimpact)_CSHmlPGgov2_IG.mp4</name>
										<enabled>TRUE</enabled>
										<duration>1786</duration>
										<rate>
											<timebase>30</timebase>
											<ntsc>TRUE</ntsc>
										</rate>
										<start>63174</start>
										<end>63222</end>
										<in>1116</in>
										<out>1164</out>
										<pproTicksIn>9458844595200</pproTicksIn>
										<pproTicksOut>9865676620800</pproTicksOut>
										<alphatype>none</alphatype>
										<file id="file-101"/>
										<logginginfo>
											<description></description>
											<scene></scene>
											<shottake></shottake>
											<lognote></lognote>
											<good></good>
											<originalvideofilename></originalvideofilename>
											<originalaudiofilename></originalaudiofilename>
										</logginginfo>
										<colorinfo>
											<lut></lut>
											<lut1></lut1>
											<asc_sop></asc_sop>
											<asc_sat></asc_sat>
											<lut2></lut2>
										</colorinfo>
									</clipitem>
									<clipitem id="clipitem-1010">
										<masterclipid>masterclip-118</masterclipid>
										<name>(thesweetimpact)_CSHmlPGgov2_IG.mp4</name>
										<enabled>TRUE</enabled>
										<duration>1786</duration>
										<rate>
											<timebase>30</timebase>
											<ntsc>TRUE</ntsc>
										</rate>
										<start>63222</start>
										<end>63265</end>
										<in>1206</in>
										<out>1249</out>
										<pproTicksIn>10221654643200</pproTicksIn>
										<pproTicksOut>10586108332800</pproTicksOut>
										<alphatype>none</alphatype>
										<file id="file-101"/>
										<logginginfo>
											<description></description>
											<scene></scene>
											<shottake></shottake>
											<lognote></lognote>
											<good></good>
											<originalvideofilename></originalvideofilename>
											<originalaudiofilename></originalaudiofilename>
										</logginginfo>
										<colorinfo>
											<lut></lut>
											<lut1></lut1>
											<asc_sop></asc_sop>
											<asc_sat></asc_sat>
											<lut2></lut2>
										</colorinfo>
									</clipitem>
									<clipitem id="clipitem-1011">
										<masterclipid>masterclip-118</masterclipid>
										<name>(thesweetimpact)_CSHmlPGgov2_IG.mp4</name>
										<enabled>TRUE</enabled>
										<duration>1786</duration>
										<rate>
											<timebase>30</timebase>
											<ntsc>TRUE</ntsc>
										</rate>
										<start>63265</start>
										<end>63338</end>
										<in>1288</in>
										<out>1361</out>
										<pproTicksIn>10916659353600</pproTicksIn>
										<pproTicksOut>11535383059200</pproTicksOut>
										<alphatype>none</alphatype>
										<file id="file-101"/>
										<logginginfo>
											<description></description>
											<scene></scene>
											<shottake></shottake>
											<lognote></lognote>
											<good></good>
											<originalvideofilename></originalvideofilename>
											<originalaudiofilename></originalaudiofilename>
										</logginginfo>
										<colorinfo>
											<lut></lut>
											<lut1></lut1>
											<asc_sop></asc_sop>
											<asc_sat></asc_sat>
											<lut2></lut2>
										</colorinfo>
									</clipitem>
									<clipitem id="clipitem-1012">
										<masterclipid>masterclip-118</masterclipid>
										<name>(thesweetimpact)_CSHmlPGgov2_IG.mp4</name>
										<enabled>TRUE</enabled>
										<duration>1786</duration>
										<rate>
											<timebase>30</timebase>
											<ntsc>TRUE</ntsc>
										</rate>
										<start>63338</start>
										<end>63362</end>
										<in>1423</in>
										<out>1447</out>
										<pproTicksIn>12060874425600</pproTicksIn>
										<pproTicksOut>12264290438400</pproTicksOut>
										<alphatype>none</alphatype>
										<file id="file-101"/>
										<logginginfo>
											<description></description>
											<scene></scene>
											<shottake></shottake>
											<lognote></lognote>
											<good></good>
											<originalvideofilename></originalvideofilename>
											<originalaudiofilename></originalaudiofilename>
										</logginginfo>
										<colorinfo>
											<lut></lut>
											<lut1></lut1>
											<asc_sop></asc_sop>
											<asc_sat></asc_sat>
											<lut2></lut2>
										</colorinfo>
									</clipitem>
									<clipitem id="clipitem-1013">
										<masterclipid>masterclip-118</masterclipid>
										<name>(thesweetimpact)_CSHmlPGgov2_IG.mp4</name>
										<enabled>TRUE</enabled>
										<duration>1786</duration>
										<rate>
											<timebase>30</timebase>
											<ntsc>TRUE</ntsc>
										</rate>
										<start>63362</start>
										<end>63402</end>
										<in>1518</in>
										<out>1558</out>
										<pproTicksIn>12866062809600</pproTicksIn>
										<pproTicksOut>13205089497600</pproTicksOut>
										<alphatype>none</alphatype>
										<file id="file-101"/>
										<logginginfo>
											<description></description>
											<scene></scene>
											<shottake></shottake>
											<lognote></lognote>
											<good></good>
											<originalvideofilename></originalvideofilename>
											<originalaudiofilename></originalaudiofilename>
										</logginginfo>
										<colorinfo>
											<lut></lut>
											<lut1></lut1>
											<asc_sop></asc_sop>
											<asc_sat></asc_sat>
											<lut2></lut2>
										</colorinfo>
									</clipitem>
									<clipitem id="clipitem-1014">
										<masterclipid>masterclip-118</masterclipid>
										<name>(thesweetimpact)_CSHmlPGgov2_IG.mp4</name>
										<enabled>TRUE</enabled>
										<duration>1786</duration>
										<rate>
											<timebase>30</timebase>
											<ntsc>TRUE</ntsc>
										</rate>
										<start>63402</start>
										<end>63451</end>
										<in>1667</in>
										<out>1716</out>
										<pproTicksIn>14128937222400</pproTicksIn>
										<pproTicksOut>14544244915200</pproTicksOut>
										<alphatype>none</alphatype>
										<file id="file-101"/>
										<logginginfo>
											<description></description>
											<scene></scene>
											<shottake></shottake>
											<lognote></lognote>
											<good></good>
											<originalvideofilename></originalvideofilename>
											<originalaudiofilename></originalaudiofilename>
										</logginginfo>
										<colorinfo>
											<lut></lut>
											<lut1></lut1>
											<asc_sop></asc_sop>
											<asc_sat></asc_sat>
											<lut2></lut2>
										</colorinfo>
									</clipitem>
									<clipitem id="clipitem-1015">
										<masterclipid>masterclip-118</masterclipid>
										<name>(thesweetimpact)_CSHmlPGgov2_IG.mp4</name>
										<enabled>TRUE</enabled>
										<duration>1786</duration>
										<rate>
											<timebase>30</timebase>
											<ntsc>TRUE</ntsc>
										</rate>
										<start>63451</start>
										<end>63498</end>
										<in>0</in>
										<out>47</out>
										<pproTicksIn>0</pproTicksIn>
										<pproTicksOut>398356358400</pproTicksOut>
										<alphatype>none</alphatype>
										<file id="file-101"/>
										<logginginfo>
											<description></description>
											<scene></scene>
											<shottake></shottake>
											<lognote></lognote>
											<good></good>
											<originalvideofilename></originalvideofilename>
											<originalaudiofilename></originalaudiofilename>
										</logginginfo>
										<colorinfo>
											<lut></lut>
											<lut1></lut1>
											<asc_sop></asc_sop>
											<asc_sat></asc_sat>
											<lut2></lut2>
										</colorinfo>
									</clipitem>
									<clipitem id="clipitem-1016">
										<masterclipid>masterclip-119</masterclipid>
										<name>(thesugarhobby)_CeybcMPAnpo_IG.mp4</name>
										<enabled>TRUE</enabled>
										<duration>881</duration>
										<rate>
											<timebase>30</timebase>
											<ntsc>TRUE</ntsc>
										</rate>
										<start>63498</start>
										<end>63720</end>
										<in>69</in>
										<out>291</out>
										<pproTicksIn>584821036800</pproTicksIn>
										<pproTicksOut>2466419155200</pproTicksOut>
										<alphatype>none</alphatype>
										<file id="file-102"/>
										<logginginfo>
											<description></description>
											<scene></scene>
											<shottake></shottake>
											<lognote></lognote>
											<good></good>
											<originalvideofilename></originalvideofilename>
											<originalaudiofilename></originalaudiofilename>
										</logginginfo>
										<colorinfo>
											<lut></lut>
											<lut1></lut1>
											<asc_sop></asc_sop>
											<asc_sat></asc_sat>
											<lut2></lut2>
										</colorinfo>
										<labels>
											<label2>Lavender</label2>
										</labels>
									</clipitem>
									<clipitem id="clipitem-1017">
										<masterclipid>masterclip-119</masterclipid>
										<name>(thesugarhobby)_CeybcMPAnpo_IG.mp4</name>
										<enabled>TRUE</enabled>
										<duration>881</duration>
										<rate>
											<timebase>30</timebase>
											<ntsc>TRUE</ntsc>
										</rate>
										<start>63720</start>
										<end>64137</end>
										<in>346</in>
										<out>763</out>
										<pproTicksIn>2932580851200</pproTicksIn>
										<pproTicksOut>6466934073600</pproTicksOut>
										<alphatype>none</alphatype>
										<file id="file-102"/>
										<logginginfo>
											<description></description>
											<scene></scene>
											<shottake></shottake>
											<lognote></lognote>
											<good></good>
											<originalvideofilename></originalvideofilename>
											<originalaudiofilename></originalaudiofilename>
										</logginginfo>
										<colorinfo>
											<lut></lut>
											<lut1></lut1>
											<asc_sop></asc_sop>
											<asc_sat></asc_sat>
											<lut2></lut2>
										</colorinfo>
										<labels>
											<label2>Lavender</label2>
										</labels>
									</clipitem>
									<clipitem id="clipitem-1018">
										<masterclipid>masterclip-120</masterclipid>
										<name>(allyoucansweet)_6874699336299678982_TT.mp4</name>
										<enabled>TRUE</enabled>
										<duration>1742</duration>
										<rate>
											<timebase>30</timebase>
											<ntsc>TRUE</ntsc>
										</rate>
										<start>64137</start>
										<end>64278</end>
										<in>460</in>
										<out>601</out>
										<pproTicksIn>3898806912000</pproTicksIn>
										<pproTicksOut>5093875987200</pproTicksOut>
										<alphatype>none</alphatype>
										<file id="file-103"/>
										<filter>
											<effect>
												<name>Basic Motion</name>
												<effectid>basic</effectid>
												<effectcategory>motion</effectcategory>
												<effecttype>motion</effecttype>
												<mediatype>video</mediatype>
												<pproBypass>false</pproBypass>
												<parameter authoringApp="PremierePro">
													<parameterid>scale</parameterid>
													<name>Scale</name>
													<valuemin>0</valuemin>
													<valuemax>1000</valuemax>
													<value>109</value>
												</parameter>
												<parameter authoringApp="PremierePro">
													<parameterid>rotation</parameterid>
													<name>Rotation</name>
													<valuemin>-8640</valuemin>
													<valuemax>8640</valuemax>
													<value>0</value>
												</parameter>
												<parameter authoringApp="PremierePro">
													<parameterid>center</parameterid>
													<name>Center</name>
													<value>
														<horiz>0</horiz>
														<vert>0</vert>
													</value>
												</parameter>
												<parameter authoringApp="PremierePro">
													<parameterid>centerOffset</parameterid>
													<name>Anchor Point</name>
													<value>
														<horiz>0</horiz>
														<vert>0</vert>
													</value>
												</parameter>
												<parameter authoringApp="PremierePro">
													<parameterid>antiflicker</parameterid>
													<name>Anti-flicker Filter</name>
													<valuemin>0.0</valuemin>
													<valuemax>1.0</valuemax>
													<value>0</value>
												</parameter>
											</effect>
										</filter>
										<logginginfo>
											<description></description>
											<scene></scene>
											<shottake></shottake>
											<lognote></lognote>
											<good></good>
											<originalvideofilename></originalvideofilename>
											<originalaudiofilename></originalaudiofilename>
										</logginginfo>
										<colorinfo>
											<lut></lut>
											<lut1></lut1>
											<asc_sop></asc_sop>
											<asc_sat></asc_sat>
											<lut2></lut2>
										</colorinfo>
										<labels>
											<label2>Cerulean</label2>
										</labels>
									</clipitem>
									<clipitem id="clipitem-1019">
										<masterclipid>masterclip-120</masterclipid>
										<name>(allyoucansweet)_6874699336299678982_TT.mp4</name>
										<enabled>TRUE</enabled>
										<duration>1742</duration>
										<rate>
											<timebase>30</timebase>
											<ntsc>TRUE</ntsc>
										</rate>
										<start>64278</start>
										<end>64408</end>
										<in>800</in>
										<out>930</out>
										<pproTicksIn>6780533760000</pproTicksIn>
										<pproTicksOut>7882370496000</pproTicksOut>
										<alphatype>none</alphatype>
										<file id="file-103"/>
										<filter>
											<effect>
												<name>Basic Motion</name>
												<effectid>basic</effectid>
												<effectcategory>motion</effectcategory>
												<effecttype>motion</effecttype>
												<mediatype>video</mediatype>
												<pproBypass>false</pproBypass>
												<parameter authoringApp="PremierePro">
													<parameterid>scale</parameterid>
													<name>Scale</name>
													<valuemin>0</valuemin>
													<valuemax>1000</valuemax>
													<value>109</value>
												</parameter>
												<parameter authoringApp="PremierePro">
													<parameterid>rotation</parameterid>
													<name>Rotation</name>
													<valuemin>-8640</valuemin>
													<valuemax>8640</valuemax>
													<value>0</value>
												</parameter>
												<parameter authoringApp="PremierePro">
													<parameterid>center</parameterid>
													<name>Center</name>
													<value>
														<horiz>0</horiz>
														<vert>0</vert>
													</value>
												</parameter>
												<parameter authoringApp="PremierePro">
													<parameterid>centerOffset</parameterid>
													<name>Anchor Point</name>
													<value>
														<horiz>0</horiz>
														<vert>0</vert>
													</value>
												</parameter>
												<parameter authoringApp="PremierePro">
													<parameterid>antiflicker</parameterid>
													<name>Anti-flicker Filter</name>
													<valuemin>0.0</valuemin>
													<valuemax>1.0</valuemax>
													<value>0</value>
												</parameter>
											</effect>
										</filter>
										<logginginfo>
											<description></description>
											<scene></scene>
											<shottake></shottake>
											<lognote></lognote>
											<good></good>
											<originalvideofilename></originalvideofilename>
											<originalaudiofilename></originalaudiofilename>
										</logginginfo>
										<colorinfo>
											<lut></lut>
											<lut1></lut1>
											<asc_sop></asc_sop>
											<asc_sat></asc_sat>
											<lut2></lut2>
										</colorinfo>
										<labels>
											<label2>Cerulean</label2>
										</labels>
									</clipitem>
									<clipitem id="clipitem-1020">
										<masterclipid>masterclip-120</masterclipid>
										<name>(allyoucansweet)_6874699336299678982_TT.mp4</name>
										<enabled>TRUE</enabled>
										<duration>1742</duration>
										<rate>
											<timebase>30</timebase>
											<ntsc>TRUE</ntsc>
										</rate>
										<start>64408</start>
										<end>64468</end>
										<in>971</in>
										<out>1031</out>
										<pproTicksIn>8229872851200</pproTicksIn>
										<pproTicksOut>8738412883200</pproTicksOut>
										<alphatype>none</alphatype>
										<file id="file-103"/>
										<filter>
											<effect>
												<name>Basic Motion</name>
												<effectid>basic</effectid>
												<effectcategory>motion</effectcategory>
												<effecttype>motion</effecttype>
												<mediatype>video</mediatype>
												<pproBypass>false</pproBypass>
												<parameter authoringApp="PremierePro">
													<parameterid>scale</parameterid>
													<name>Scale</name>
													<valuemin>0</valuemin>
													<valuemax>1000</valuemax>
													<value>109</value>
												</parameter>
												<parameter authoringApp="PremierePro">
													<parameterid>rotation</parameterid>
													<name>Rotation</name>
													<valuemin>-8640</valuemin>
													<valuemax>8640</valuemax>
													<value>0</value>
												</parameter>
												<parameter authoringApp="PremierePro">
													<parameterid>center</parameterid>
													<name>Center</name>
													<value>
														<horiz>0</horiz>
														<vert>0</vert>
													</value>
												</parameter>
												<parameter authoringApp="PremierePro">
													<parameterid>centerOffset</parameterid>
													<name>Anchor Point</name>
													<value>
														<horiz>0</horiz>
														<vert>0</vert>
													</value>
												</parameter>
												<parameter authoringApp="PremierePro">
													<parameterid>antiflicker</parameterid>
													<name>Anti-flicker Filter</name>
													<valuemin>0.0</valuemin>
													<valuemax>1.0</valuemax>
													<value>0</value>
												</parameter>
											</effect>
										</filter>
										<logginginfo>
											<description></description>
											<scene></scene>
											<shottake></shottake>
											<lognote></lognote>
											<good></good>
											<originalvideofilename></originalvideofilename>
											<originalaudiofilename></originalaudiofilename>
										</logginginfo>
										<colorinfo>
											<lut></lut>
											<lut1></lut1>
											<asc_sop></asc_sop>
											<asc_sat></asc_sat>
											<lut2></lut2>
										</colorinfo>
										<labels>
											<label2>Cerulean</label2>
										</labels>
									</clipitem>
									<clipitem id="clipitem-1021">
										<masterclipid>masterclip-120</masterclipid>
										<name>(allyoucansweet)_6874699336299678982_TT.mp4</name>
										<enabled>TRUE</enabled>
										<duration>1742</duration>
										<rate>
											<timebase>30</timebase>
											<ntsc>TRUE</ntsc>
										</rate>
										<start>64468</start>
										<end>64515</end>
										<in>1135</in>
										<out>1182</out>
										<pproTicksIn>9619882272000</pproTicksIn>
										<pproTicksOut>10018238630400</pproTicksOut>
										<alphatype>none</alphatype>
										<file id="file-103"/>
										<filter>
											<effect>
												<name>Basic Motion</name>
												<effectid>basic</effectid>
												<effectcategory>motion</effectcategory>
												<effecttype>motion</effecttype>
												<mediatype>video</mediatype>
												<pproBypass>false</pproBypass>
												<parameter authoringApp="PremierePro">
													<parameterid>scale</parameterid>
													<name>Scale</name>
													<valuemin>0</valuemin>
													<valuemax>1000</valuemax>
													<value>109</value>
												</parameter>
												<parameter authoringApp="PremierePro">
													<parameterid>rotation</parameterid>
													<name>Rotation</name>
													<valuemin>-8640</valuemin>
													<valuemax>8640</valuemax>
													<value>0</value>
												</parameter>
												<parameter authoringApp="PremierePro">
													<parameterid>center</parameterid>
													<name>Center</name>
													<value>
														<horiz>0</horiz>
														<vert>0</vert>
													</value>
												</parameter>
												<parameter authoringApp="PremierePro">
													<parameterid>centerOffset</parameterid>
													<name>Anchor Point</name>
													<value>
														<horiz>0</horiz>
														<vert>0</vert>
													</value>
												</parameter>
												<parameter authoringApp="PremierePro">
													<parameterid>antiflicker</parameterid>
													<name>Anti-flicker Filter</name>
													<valuemin>0.0</valuemin>
													<valuemax>1.0</valuemax>
													<value>0</value>
												</parameter>
											</effect>
										</filter>
										<logginginfo>
											<description></description>
											<scene></scene>
											<shottake></shottake>
											<lognote></lognote>
											<good></good>
											<originalvideofilename></originalvideofilename>
											<originalaudiofilename></originalaudiofilename>
										</logginginfo>
										<colorinfo>
											<lut></lut>
											<lut1></lut1>
											<asc_sop></asc_sop>
											<asc_sat></asc_sat>
											<lut2></lut2>
										</colorinfo>
										<labels>
											<label2>Cerulean</label2>
										</labels>
									</clipitem>
									<clipitem id="clipitem-1022">
										<masterclipid>masterclip-120</masterclipid>
										<name>(allyoucansweet)_6874699336299678982_TT.mp4</name>
										<enabled>TRUE</enabled>
										<duration>1742</duration>
										<rate>
											<timebase>30</timebase>
											<ntsc>TRUE</ntsc>
										</rate>
										<start>64515</start>
										<end>64749</end>
										<in>1348</in>
										<out>1582</out>
										<pproTicksIn>11425199385600</pproTicksIn>
										<pproTicksOut>13408505510400</pproTicksOut>
										<alphatype>none</alphatype>
										<file id="file-103"/>
										<filter>
											<effect>
												<name>Basic Motion</name>
												<effectid>basic</effectid>
												<effectcategory>motion</effectcategory>
												<effecttype>motion</effecttype>
												<mediatype>video</mediatype>
												<pproBypass>false</pproBypass>
												<parameter authoringApp="PremierePro">
													<parameterid>scale</parameterid>
													<name>Scale</name>
													<valuemin>0</valuemin>
													<valuemax>1000</valuemax>
													<value>109</value>
												</parameter>
												<parameter authoringApp="PremierePro">
													<parameterid>rotation</parameterid>
													<name>Rotation</name>
													<valuemin>-8640</valuemin>
													<valuemax>8640</valuemax>
													<value>0</value>
												</parameter>
												<parameter authoringApp="PremierePro">
													<parameterid>center</parameterid>
													<name>Center</name>
													<value>
														<horiz>0</horiz>
														<vert>0</vert>
													</value>
												</parameter>
												<parameter authoringApp="PremierePro">
													<parameterid>centerOffset</parameterid>
													<name>Anchor Point</name>
													<value>
														<horiz>0</horiz>
														<vert>0</vert>
													</value>
												</parameter>
												<parameter authoringApp="PremierePro">
													<parameterid>antiflicker</parameterid>
													<name>Anti-flicker Filter</name>
													<valuemin>0.0</valuemin>
													<valuemax>1.0</valuemax>
													<value>0</value>
												</parameter>
											</effect>
										</filter>
										<logginginfo>
											<description></description>
											<scene></scene>
											<shottake></shottake>
											<lognote></lognote>
											<good></good>
											<originalvideofilename></originalvideofilename>
											<originalaudiofilename></originalaudiofilename>
										</logginginfo>
										<colorinfo>
											<lut></lut>
											<lut1></lut1>
											<asc_sop></asc_sop>
											<asc_sat></asc_sat>
											<lut2></lut2>
										</colorinfo>
										<labels>
											<label2>Cerulean</label2>
										</labels>
									</clipitem>
									<clipitem id="clipitem-1023">
										<masterclipid>masterclip-121</masterclipid>
										<name>(All the Sugar Cookie Studio)___ #shorts #ad_HeSlNuWClNU_YT.mp4</name>
										<enabled>TRUE</enabled>
										<duration>438</duration>
										<rate>
											<timebase>30</timebase>
											<ntsc>TRUE</ntsc>
										</rate>
										<start>64749</start>
										<end>65187</end>
										<in>0</in>
										<out>438</out>
										<pproTicksIn>0</pproTicksIn>
										<pproTicksOut>3712342233600</pproTicksOut>
										<alphatype>none</alphatype>
										<file id="file-104"/>
										<filter>
											<effect>
												<name>Basic Motion</name>
												<effectid>basic</effectid>
												<effectcategory>motion</effectcategory>
												<effecttype>motion</effecttype>
												<mediatype>video</mediatype>
												<pproBypass>false</pproBypass>
												<parameter authoringApp="PremierePro">
													<parameterid>scale</parameterid>
													<name>Scale</name>
													<valuemin>0</valuemin>
													<valuemax>1000</valuemax>
													<value>106</value>
												</parameter>
												<parameter authoringApp="PremierePro">
													<parameterid>rotation</parameterid>
													<name>Rotation</name>
													<valuemin>-8640</valuemin>
													<valuemax>8640</valuemax>
													<value>0</value>
												</parameter>
												<parameter authoringApp="PremierePro">
													<parameterid>center</parameterid>
													<name>Center</name>
													<value>
														<horiz>0</horiz>
														<vert>0</vert>
													</value>
												</parameter>
												<parameter authoringApp="PremierePro">
													<parameterid>centerOffset</parameterid>
													<name>Anchor Point</name>
													<value>
														<horiz>0</horiz>
														<vert>0</vert>
													</value>
												</parameter>
												<parameter authoringApp="PremierePro">
													<parameterid>antiflicker</parameterid>
													<name>Anti-flicker Filter</name>
													<valuemin>0.0</valuemin>
													<valuemax>1.0</valuemax>
													<value>0</value>
												</parameter>
											</effect>
										</filter>
										<logginginfo>
											<description>🍫🍦 #shorts #ad</description>
											<scene></scene>
											<shottake></shottake>
											<lognote>https://www.youtube.com/watch?v=HeSlNuWClNU</lognote>
											<good></good>
											<originalvideofilename></originalvideofilename>
											<originalaudiofilename></originalaudiofilename>
										</logginginfo>
										<colorinfo>
											<lut></lut>
											<lut1></lut1>
											<asc_sop></asc_sop>
											<asc_sat></asc_sat>
											<lut2></lut2>
										</colorinfo>
										<labels>
											<label2>Rose</label2>
										</labels>
									</clipitem>
									<clipitem id="clipitem-1024">
										<masterclipid>masterclip-124</masterclipid>
										<name>21071_Fresh clementine hitting a wet counter top and breaking in half_By_Ira_Belsky_Artlist_HD.mp4</name>
										<enabled>TRUE</enabled>
										<duration>400</duration>
										<rate>
											<timebase>30</timebase>
											<ntsc>TRUE</ntsc>
										</rate>
										<start>65187</start>
										<end>65429</end>
										<in>0</in>
										<out>242</out>
										<pproTicksIn>0</pproTicksIn>
										<pproTicksOut>2051111462400</pproTicksOut>
										<alphatype>none</alphatype>
										<file id="file-106"/>
										<filter>
											<effect>
												<name>Distort</name>
												<effectid>deformation</effectid>
												<effectcategory>motion</effectcategory>
												<effecttype>motion</effecttype>
												<mediatype>video</mediatype>
												<parameter authoringApp="PremierePro">
													<parameterid>aspect</parameterid>
													<name>Aspect</name>
													<valuemin>-10000</valuemin>
													<valuemax>10000</valuemax>
													<value>-9.40171</value>
												</parameter>
											</effect>
										</filter>
										<filter>
											<effect>
												<name>Basic Motion</name>
												<effectid>basic</effectid>
												<effectcategory>motion</effectcategory>
												<effecttype>motion</effecttype>
												<mediatype>video</mediatype>
												<parameter authoringApp="PremierePro">
													<parameterid>scale</parameterid>
													<name>Scale</name>
													<value>109.402</value>
												</parameter>
											</effect>
										</filter>
										<logginginfo>
											<description></description>
											<scene></scene>
											<shottake></shottake>
											<lognote></lognote>
											<good></good>
											<originalvideofilename></originalvideofilename>
											<originalaudiofilename></originalaudiofilename>
										</logginginfo>
										<colorinfo>
											<lut></lut>
											<lut1></lut1>
											<asc_sop></asc_sop>
											<asc_sat></asc_sat>
											<lut2></lut2>
										</colorinfo>
									</clipitem>
									<clipitem id="clipitem-1025">
										<masterclipid>masterclip-125</masterclipid>
										<name>21072_Person squeezing half a clementine and letting the juice drip down_By_Ira_Belsky_Artlist_HD.mp4</name>
										<enabled>TRUE</enabled>
										<duration>452</duration>
										<rate>
											<timebase>30</timebase>
											<ntsc>TRUE</ntsc>
										</rate>
										<start>65429</start>
										<end>65738</end>
										<in>96</in>
										<out>405</out>
										<pproTicksIn>813664051200</pproTicksIn>
										<pproTicksOut>3432645216000</pproTicksOut>
										<alphatype>none</alphatype>
										<file id="file-107"/>
										<filter>
											<effect>
												<name>Distort</name>
												<effectid>deformation</effectid>
												<effectcategory>motion</effectcategory>
												<effecttype>motion</effecttype>
												<mediatype>video</mediatype>
												<parameter authoringApp="PremierePro">
													<parameterid>aspect</parameterid>
													<name>Aspect</name>
													<valuemin>-10000</valuemin>
													<valuemax>10000</valuemax>
													<value>-9.40171</value>
												</parameter>
											</effect>
										</filter>
										<filter>
											<effect>
												<name>Basic Motion</name>
												<effectid>basic</effectid>
												<effectcategory>motion</effectcategory>
												<effecttype>motion</effecttype>
												<mediatype>video</mediatype>
												<parameter authoringApp="PremierePro">
													<parameterid>scale</parameterid>
													<name>Scale</name>
													<value>109.402</value>
												</parameter>
											</effect>
										</filter>
										<logginginfo>
											<description></description>
											<scene></scene>
											<shottake></shottake>
											<lognote></lognote>
											<good></good>
											<originalvideofilename></originalvideofilename>
											<originalaudiofilename></originalaudiofilename>
										</logginginfo>
										<colorinfo>
											<lut></lut>
											<lut1></lut1>
											<asc_sop></asc_sop>
											<asc_sat></asc_sat>
											<lut2></lut2>
										</colorinfo>
									</clipitem>
									<clipitem id="clipitem-1026">
										<masterclipid>masterclip-126</masterclipid>
										<name>21068_Fresh clementine bounces off of a stone counter_By_Ira_Belsky_Artlist_HD.mp4</name>
										<enabled>TRUE</enabled>
										<duration>232</duration>
										<rate>
											<timebase>30</timebase>
											<ntsc>TRUE</ntsc>
										</rate>
										<start>65738</start>
										<end>65926</end>
										<in>0</in>
										<out>188</out>
										<pproTicksIn>0</pproTicksIn>
										<pproTicksOut>1593425433600</pproTicksOut>
										<alphatype>none</alphatype>
										<file id="file-108"/>
										<filter>
											<effect>
												<name>Distort</name>
												<effectid>deformation</effectid>
												<effectcategory>motion</effectcategory>
												<effecttype>motion</effecttype>
												<mediatype>video</mediatype>
												<parameter authoringApp="PremierePro">
													<parameterid>aspect</parameterid>
													<name>Aspect</name>
													<valuemin>-10000</valuemin>
													<valuemax>10000</valuemax>
													<value>-9.40171</value>
												</parameter>
											</effect>
										</filter>
										<filter>
											<effect>
												<name>Basic Motion</name>
												<effectid>basic</effectid>
												<effectcategory>motion</effectcategory>
												<effecttype>motion</effecttype>
												<mediatype>video</mediatype>
												<parameter authoringApp="PremierePro">
													<parameterid>scale</parameterid>
													<name>Scale</name>
													<value>109.402</value>
												</parameter>
											</effect>
										</filter>
										<logginginfo>
											<description></description>
											<scene></scene>
											<shottake></shottake>
											<lognote></lognote>
											<good></good>
											<originalvideofilename></originalvideofilename>
											<originalaudiofilename></originalaudiofilename>
										</logginginfo>
										<colorinfo>
											<lut></lut>
											<lut1></lut1>
											<asc_sop></asc_sop>
											<asc_sat></asc_sat>
											<lut2></lut2>
										</colorinfo>
									</clipitem>
									<clipitem id="clipitem-1027">
										<masterclipid>masterclip-127</masterclipid>
										<name>21074_Fresh clementines falling into a bowl of water_By_Ira_Belsky_Artlist_HD.mp4</name>
										<enabled>TRUE</enabled>
										<duration>314</duration>
										<rate>
											<timebase>30</timebase>
											<ntsc>TRUE</ntsc>
										</rate>
										<start>65926</start>
										<end>66191</end>
										<in>0</in>
										<out>265</out>
										<pproTicksIn>0</pproTicksIn>
										<pproTicksOut>2246051808000</pproTicksOut>
										<alphatype>none</alphatype>
										<file id="file-109"/>
										<filter>
											<effect>
												<name>Distort</name>
												<effectid>deformation</effectid>
												<effectcategory>motion</effectcategory>
												<effecttype>motion</effecttype>
												<mediatype>video</mediatype>
												<parameter authoringApp="PremierePro">
													<parameterid>aspect</parameterid>
													<name>Aspect</name>
													<valuemin>-10000</valuemin>
													<valuemax>10000</valuemax>
													<value>-9.40171</value>
												</parameter>
											</effect>
										</filter>
										<filter>
											<effect>
												<name>Basic Motion</name>
												<effectid>basic</effectid>
												<effectcategory>motion</effectcategory>
												<effecttype>motion</effecttype>
												<mediatype>video</mediatype>
												<parameter authoringApp="PremierePro">
													<parameterid>scale</parameterid>
													<name>Scale</name>
													<value>109.402</value>
												</parameter>
											</effect>
										</filter>
										<logginginfo>
											<description></description>
											<scene></scene>
											<shottake></shottake>
											<lognote></lognote>
											<good></good>
											<originalvideofilename></originalvideofilename>
											<originalaudiofilename></originalaudiofilename>
										</logginginfo>
										<colorinfo>
											<lut></lut>
											<lut1></lut1>
											<asc_sop></asc_sop>
											<asc_sat></asc_sat>
											<lut2></lut2>
										</colorinfo>
									</clipitem>
									<clipitem id="clipitem-1028">
										<masterclipid>masterclip-128</masterclipid>
										<name>21073_Person squeezing a fresh clementine_By_Ira_Belsky_Artlist_HD.mp4</name>
										<enabled>TRUE</enabled>
										<duration>402</duration>
										<rate>
											<timebase>30</timebase>
											<ntsc>TRUE</ntsc>
										</rate>
										<start>66191</start>
										<end>66498</end>
										<in>0</in>
										<out>307</out>
										<pproTicksIn>0</pproTicksIn>
										<pproTicksOut>2602029830400</pproTicksOut>
										<alphatype>none</alphatype>
										<file id="file-110"/>
										<filter>
											<effect>
												<name>Distort</name>
												<effectid>deformation</effectid>
												<effectcategory>motion</effectcategory>
												<effecttype>motion</effecttype>
												<mediatype>video</mediatype>
												<parameter authoringApp="PremierePro">
													<parameterid>aspect</parameterid>
													<name>Aspect</name>
													<valuemin>-10000</valuemin>
													<valuemax>10000</valuemax>
													<value>-9.40171</value>
												</parameter>
											</effect>
										</filter>
										<filter>
											<effect>
												<name>Basic Motion</name>
												<effectid>basic</effectid>
												<effectcategory>motion</effectcategory>
												<effecttype>motion</effecttype>
												<mediatype>video</mediatype>
												<parameter authoringApp="PremierePro">
													<parameterid>scale</parameterid>
													<name>Scale</name>
													<value>109.402</value>
												</parameter>
											</effect>
										</filter>
										<logginginfo>
											<description></description>
											<scene></scene>
											<shottake></shottake>
											<lognote></lognote>
											<good></good>
											<originalvideofilename></originalvideofilename>
											<originalaudiofilename></originalaudiofilename>
										</logginginfo>
										<colorinfo>
											<lut></lut>
											<lut1></lut1>
											<asc_sop></asc_sop>
											<asc_sat></asc_sat>
											<lut2></lut2>
										</colorinfo>
									</clipitem>
									<clipitem id="clipitem-1029">
										<masterclipid>masterclip-129</masterclipid>
										<name>21069_Fresh clementine splashing into water on a counter top_By_Ira_Belsky_Artlist_HD.mp4</name>
										<enabled>TRUE</enabled>
										<duration>250</duration>
										<rate>
											<timebase>30</timebase>
											<ntsc>TRUE</ntsc>
										</rate>
										<start>66498</start>
										<end>66652</end>
										<in>34</in>
										<out>188</out>
										<pproTicksIn>288172684800</pproTicksIn>
										<pproTicksOut>1593425433600</pproTicksOut>
										<alphatype>none</alphatype>
										<file id="file-111"/>
										<filter>
											<effect>
												<name>Distort</name>
												<effectid>deformation</effectid>
												<effectcategory>motion</effectcategory>
												<effecttype>motion</effecttype>
												<mediatype>video</mediatype>
												<parameter authoringApp="PremierePro">
													<parameterid>aspect</parameterid>
													<name>Aspect</name>
													<valuemin>-10000</valuemin>
													<valuemax>10000</valuemax>
													<value>-9.40171</value>
												</parameter>
											</effect>
										</filter>
										<filter>
											<effect>
												<name>Basic Motion</name>
												<effectid>basic</effectid>
												<effectcategory>motion</effectcategory>
												<effecttype>motion</effecttype>
												<mediatype>video</mediatype>
												<parameter authoringApp="PremierePro">
													<parameterid>scale</parameterid>
													<name>Scale</name>
													<value>109.402</value>
												</parameter>
											</effect>
										</filter>
										<logginginfo>
											<description></description>
											<scene></scene>
											<shottake></shottake>
											<lognote></lognote>
											<good></good>
											<originalvideofilename></originalvideofilename>
											<originalaudiofilename></originalaudiofilename>
										</logginginfo>
										<colorinfo>
											<lut></lut>
											<lut1></lut1>
											<asc_sop></asc_sop>
											<asc_sat></asc_sat>
											<lut2></lut2>
										</colorinfo>
									</clipitem>
									<clipitem id="clipitem-1030">
										<masterclipid>masterclip-130</masterclipid>
										<name>21076_Fresh clementines falling into a glass bowl of water_By_Ira_Belsky_Artlist_HD.mp4</name>
										<enabled>TRUE</enabled>
										<duration>236</duration>
										<rate>
											<timebase>30</timebase>
											<ntsc>TRUE</ntsc>
										</rate>
										<start>66652</start>
										<end>66888</end>
										<in>0</in>
										<out>236</out>
										<pproTicksIn>0</pproTicksIn>
										<pproTicksOut>2000257459200</pproTicksOut>
										<alphatype>none</alphatype>
										<file id="file-112"/>
										<filter>
											<effect>
												<name>Distort</name>
												<effectid>deformation</effectid>
												<effectcategory>motion</effectcategory>
												<effecttype>motion</effecttype>
												<mediatype>video</mediatype>
												<parameter authoringApp="PremierePro">
													<parameterid>aspect</parameterid>
													<name>Aspect</name>
													<valuemin>-10000</valuemin>
													<valuemax>10000</valuemax>
													<value>-9.40171</value>
												</parameter>
											</effect>
										</filter>
										<filter>
											<effect>
												<name>Basic Motion</name>
												<effectid>basic</effectid>
												<effectcategory>motion</effectcategory>
												<effecttype>motion</effecttype>
												<mediatype>video</mediatype>
												<parameter authoringApp="PremierePro">
													<parameterid>scale</parameterid>
													<name>Scale</name>
													<value>109.402</value>
												</parameter>
											</effect>
										</filter>
										<logginginfo>
											<description></description>
											<scene></scene>
											<shottake></shottake>
											<lognote></lognote>
											<good></good>
											<originalvideofilename></originalvideofilename>
											<originalaudiofilename></originalaudiofilename>
										</logginginfo>
										<colorinfo>
											<lut></lut>
											<lut1></lut1>
											<asc_sop></asc_sop>
											<asc_sat></asc_sat>
											<lut2></lut2>
										</colorinfo>
									</clipitem>
									<clipitem id="clipitem-1031">
										<masterclipid>masterclip-131</masterclipid>
										<name>21070_Fresh clementine splashing onto a wet counter top_By_Ira_Belsky_Artlist_HD.mp4</name>
										<enabled>TRUE</enabled>
										<duration>241</duration>
										<rate>
											<timebase>30</timebase>
											<ntsc>TRUE</ntsc>
										</rate>
										<start>66888</start>
										<end>67034</end>
										<in>36</in>
										<out>182</out>
										<pproTicksIn>305124019200</pproTicksIn>
										<pproTicksOut>1542571430400</pproTicksOut>
										<alphatype>none</alphatype>
										<file id="file-113"/>
										<filter>
											<effect>
												<name>Distort</name>
												<effectid>deformation</effectid>
												<effectcategory>motion</effectcategory>
												<effecttype>motion</effecttype>
												<mediatype>video</mediatype>
												<parameter authoringApp="PremierePro">
													<parameterid>aspect</parameterid>
													<name>Aspect</name>
													<valuemin>-10000</valuemin>
													<valuemax>10000</valuemax>
													<value>-9.40171</value>
												</parameter>
											</effect>
										</filter>
										<filter>
											<effect>
												<name>Basic Motion</name>
												<effectid>basic</effectid>
												<effectcategory>motion</effectcategory>
												<effecttype>motion</effecttype>
												<mediatype>video</mediatype>
												<parameter authoringApp="PremierePro">
													<parameterid>scale</parameterid>
													<name>Scale</name>
													<value>109.402</value>
												</parameter>
											</effect>
										</filter>
										<logginginfo>
											<description></description>
											<scene></scene>
											<shottake></shottake>
											<lognote></lognote>
											<good></good>
											<originalvideofilename></originalvideofilename>
											<originalaudiofilename></originalaudiofilename>
										</logginginfo>
										<colorinfo>
											<lut></lut>
											<lut1></lut1>
											<asc_sop></asc_sop>
											<asc_sat></asc_sat>
											<lut2></lut2>
										</colorinfo>
									</clipitem>
									<clipitem id="clipitem-1032">
										<masterclipid>masterclip-136</masterclipid>
										<name>(sugarandsparrowco)_B4c64wKpARD_IG.mp4</name>
										<enabled>TRUE</enabled>
										<duration>1792</duration>
										<rate>
											<timebase>30</timebase>
											<ntsc>TRUE</ntsc>
										</rate>
										<start>67034</start>
										<end>68601</end>
										<in>0</in>
										<out>1567</out>
										<pproTicksIn>0</pproTicksIn>
										<pproTicksOut>13281370502400</pproTicksOut>
										<alphatype>none</alphatype>
										<file id="file-117"/>
										<filter>
											<effect>
												<name>Basic Motion</name>
												<effectid>basic</effectid>
												<effectcategory>motion</effectcategory>
												<effecttype>motion</effecttype>
												<mediatype>video</mediatype>
												<pproBypass>false</pproBypass>
												<parameter authoringApp="PremierePro">
													<parameterid>scale</parameterid>
													<name>Scale</name>
													<valuemin>0</valuemin>
													<valuemax>1000</valuemax>
													<value>300</value>
												</parameter>
												<parameter authoringApp="PremierePro">
													<parameterid>rotation</parameterid>
													<name>Rotation</name>
													<valuemin>-8640</valuemin>
													<valuemax>8640</valuemax>
													<value>0</value>
												</parameter>
												<parameter authoringApp="PremierePro">
													<parameterid>center</parameterid>
													<name>Center</name>
													<value>
														<horiz>0</horiz>
														<vert>0</vert>
													</value>
												</parameter>
												<parameter authoringApp="PremierePro">
													<parameterid>centerOffset</parameterid>
													<name>Anchor Point</name>
													<value>
														<horiz>0</horiz>
														<vert>0</vert>
													</value>
												</parameter>
												<parameter authoringApp="PremierePro">
													<parameterid>antiflicker</parameterid>
													<name>Anti-flicker Filter</name>
													<valuemin>0.0</valuemin>
													<valuemax>1.0</valuemax>
													<value>0</value>
												</parameter>
											</effect>
										</filter>
										<filter>
											<effect>
												<name>Gaussian Blur</name>
												<effectid>Gaussian Blur</effectid>
												<effectcategory>Blur</effectcategory>
												<effecttype>motion</effecttype>
												<mediatype>video</mediatype>
												<pproBypass>false</pproBypass>
												<parameter authoringApp="PremierePro">
													<parameterid>radius</parameterid>
													<name>Radius</name>
													<valuemin>0</valuemin>
													<valuemax>100</valuemax>
													<value>150</value>
												</parameter>
											</effect>
										</filter>
										<logginginfo>
											<description></description>
											<scene></scene>
											<shottake></shottake>
											<lognote></lognote>
											<good></good>
											<originalvideofilename></originalvideofilename>
											<originalaudiofilename></originalaudiofilename>
										</logginginfo>
										<colorinfo>
											<lut></lut>
											<lut1></lut1>
											<asc_sop></asc_sop>
											<asc_sat></asc_sat>
											<lut2></lut2>
										</colorinfo>
										<labels>
											<label2>Iris</label2>
										</labels>
									</clipitem>
									<clipitem id="clipitem-1033">
										<masterclipid>masterclip-140</masterclipid>
										<name>(succulentbite)_BYn2PhkAupy_IG.mp4</name>
										<enabled>TRUE</enabled>
										<duration>677</duration>
										<rate>
											<timebase>30</timebase>
											<ntsc>TRUE</ntsc>
										</rate>
										<start>68601</start>
										<end>68632</end>
										<in>38</in>
										<out>69</out>
										<pproTicksIn>322075353600</pproTicksIn>
										<pproTicksOut>584821036800</pproTicksOut>
										<alphatype>none</alphatype>
										<file id="file-120"/>
										<logginginfo>
											<description></description>
											<scene></scene>
											<shottake></shottake>
											<lognote></lognote>
											<good></good>
											<originalvideofilename></originalvideofilename>
											<originalaudiofilename></originalaudiofilename>
										</logginginfo>
										<colorinfo>
											<lut></lut>
											<lut1></lut1>
											<asc_sop></asc_sop>
											<asc_sat></asc_sat>
											<lut2></lut2>
										</colorinfo>
									</clipitem>
									<clipitem id="clipitem-1034">
										<masterclipid>masterclip-140</masterclipid>
										<name>(succulentbite)_BYn2PhkAupy_IG.mp4</name>
										<enabled>TRUE</enabled>
										<duration>677</duration>
										<rate>
											<timebase>30</timebase>
											<ntsc>TRUE</ntsc>
										</rate>
										<start>68632</start>
										<end>68670</end>
										<in>0</in>
										<out>38</out>
										<pproTicksIn>0</pproTicksIn>
										<pproTicksOut>322075353600</pproTicksOut>
										<alphatype>none</alphatype>
										<file id="file-120"/>
										<logginginfo>
											<description></description>
											<scene></scene>
											<shottake></shottake>
											<lognote></lognote>
											<good></good>
											<originalvideofilename></originalvideofilename>
											<originalaudiofilename></originalaudiofilename>
										</logginginfo>
										<colorinfo>
											<lut></lut>
											<lut1></lut1>
											<asc_sop></asc_sop>
											<asc_sat></asc_sat>
											<lut2></lut2>
										</colorinfo>
									</clipitem>
									<clipitem id="clipitem-1035">
										<masterclipid>masterclip-140</masterclipid>
										<name>(succulentbite)_BYn2PhkAupy_IG.mp4</name>
										<enabled>TRUE</enabled>
										<duration>677</duration>
										<rate>
											<timebase>30</timebase>
											<ntsc>TRUE</ntsc>
										</rate>
										<start>68670</start>
										<end>69193</end>
										<in>69</in>
										<out>592</out>
										<pproTicksIn>584821036800</pproTicksIn>
										<pproTicksOut>5017594982400</pproTicksOut>
										<alphatype>none</alphatype>
										<file id="file-120"/>
										<logginginfo>
											<description></description>
											<scene></scene>
											<shottake></shottake>
											<lognote></lognote>
											<good></good>
											<originalvideofilename></originalvideofilename>
											<originalaudiofilename></originalaudiofilename>
										</logginginfo>
										<colorinfo>
											<lut></lut>
											<lut1></lut1>
											<asc_sop></asc_sop>
											<asc_sat></asc_sat>
											<lut2></lut2>
										</colorinfo>
									</clipitem>
									<clipitem id="clipitem-1036">
										<masterclipid>masterclip-141</masterclipid>
										<name>(thethriftwitch)_7121112613890706734_TT.mp4</name>
										<enabled>TRUE</enabled>
										<duration>948</duration>
										<rate>
											<timebase>30</timebase>
											<ntsc>TRUE</ntsc>
										</rate>
										<start>69193</start>
										<end>69814</end>
										<in>327</in>
										<out>948</out>
										<pproTicksIn>2771543174400</pproTicksIn>
										<pproTicksOut>8034932505600</pproTicksOut>
										<alphatype>none</alphatype>
										<file id="file-121"/>
										<logginginfo>
											<description></description>
											<scene></scene>
											<shottake></shottake>
											<lognote></lognote>
											<good></good>
											<originalvideofilename></originalvideofilename>
											<originalaudiofilename></originalaudiofilename>
										</logginginfo>
										<colorinfo>
											<lut></lut>
											<lut1></lut1>
											<asc_sop></asc_sop>
											<asc_sat></asc_sat>
											<lut2></lut2>
										</colorinfo>
										<labels>
											<label2>Caribbean</label2>
										</labels>
									</clipitem>
									<clipitem id="clipitem-1037">
										<masterclipid>masterclip-142</masterclipid>
										<name>(aquickspoonful)_CtxhoFwsCJl_IG.mp4</name>
										<enabled>TRUE</enabled>
										<duration>832</duration>
										<rate>
											<timebase>30</timebase>
											<ntsc>TRUE</ntsc>
										</rate>
										<start>69814</start>
										<end>70165</end>
										<in>0</in>
										<out>351</out>
										<pproTicksIn>0</pproTicksIn>
										<pproTicksOut>2974959187200</pproTicksOut>
										<alphatype>none</alphatype>
										<file id="file-122"/>
										<logginginfo>
											<description></description>
											<scene></scene>
											<shottake></shottake>
											<lognote></lognote>
											<good></good>
											<originalvideofilename></originalvideofilename>
											<originalaudiofilename></originalaudiofilename>
										</logginginfo>
										<colorinfo>
											<lut></lut>
											<lut1></lut1>
											<asc_sop></asc_sop>
											<asc_sat></asc_sat>
											<lut2></lut2>
										</colorinfo>
										<labels>
											<label2>Lavender</label2>
										</labels>
									</clipitem>
									<clipitem id="clipitem-1038">
										<masterclipid>masterclip-142</masterclipid>
										<name>(aquickspoonful)_CtxhoFwsCJl_IG.mp4</name>
										<enabled>TRUE</enabled>
										<duration>832</duration>
										<rate>
											<timebase>30</timebase>
											<ntsc>TRUE</ntsc>
										</rate>
										<start>70165</start>
										<end>70409</end>
										<in>588</in>
										<out>832</out>
										<pproTicksIn>4983692313600</pproTicksIn>
										<pproTicksOut>7051755110400</pproTicksOut>
										<alphatype>none</alphatype>
										<file id="file-122"/>
										<logginginfo>
											<description></description>
											<scene></scene>
											<shottake></shottake>
											<lognote></lognote>
											<good></good>
											<originalvideofilename></originalvideofilename>
											<originalaudiofilename></originalaudiofilename>
										</logginginfo>
										<colorinfo>
											<lut></lut>
											<lut1></lut1>
											<asc_sop></asc_sop>
											<asc_sat></asc_sat>
											<lut2></lut2>
										</colorinfo>
										<labels>
											<label2>Lavender</label2>
										</labels>
									</clipitem>
									<clipitem id="clipitem-1039">
										<masterclipid>masterclip-143</masterclipid>
										<name>(khaliaskuisine)_CUDmfwhFrJ4_IG.mp4</name>
										<enabled>TRUE</enabled>
										<duration>898</duration>
										<rate>
											<timebase>30</timebase>
											<ntsc>TRUE</ntsc>
										</rate>
										<start>70409</start>
										<end>71248</end>
										<in>0</in>
										<out>839</out>
										<pproTicksIn>0</pproTicksIn>
										<pproTicksOut>7111084780800</pproTicksOut>
										<alphatype>none</alphatype>
										<file id="file-123"/>
										<logginginfo>
											<description></description>
											<scene></scene>
											<shottake></shottake>
											<lognote></lognote>
											<good></good>
											<originalvideofilename></originalvideofilename>
											<originalaudiofilename></originalaudiofilename>
										</logginginfo>
										<colorinfo>
											<lut></lut>
											<lut1></lut1>
											<asc_sop></asc_sop>
											<asc_sat></asc_sat>
											<lut2></lut2>
										</colorinfo>
										<labels>
											<label2>Cerulean</label2>
										</labels>
									</clipitem>
									<clipitem id="clipitem-1040">
										<masterclipid>masterclip-144</masterclipid>
										<name>(Charlie Smark)_Storytime while I make a customer order ✨ #dollysdesserts_YyHSO6GzAEQ_YT.mp4</name>
										<enabled>TRUE</enabled>
										<duration>1491</duration>
										<rate>
											<timebase>30</timebase>
											<ntsc>TRUE</ntsc>
										</rate>
										<start>71248</start>
										<end>71683</end>
										<in>344</in>
										<out>779</out>
										<pproTicksIn>2915629516800</pproTicksIn>
										<pproTicksOut>6602544748800</pproTicksOut>
										<alphatype>none</alphatype>
										<file id="file-124"/>
										<logginginfo>
											<description></description>
											<scene></scene>
											<shottake></shottake>
											<lognote></lognote>
											<good></good>
											<originalvideofilename></originalvideofilename>
											<originalaudiofilename></originalaudiofilename>
										</logginginfo>
										<colorinfo>
											<lut></lut>
											<lut1></lut1>
											<asc_sop></asc_sop>
											<asc_sat></asc_sat>
											<lut2></lut2>
										</colorinfo>
									</clipitem>
									<clipitem id="clipitem-1041">
										<masterclipid>masterclip-144</masterclipid>
										<name>(Charlie Smark)_Storytime while I make a customer order ✨ #dollysdesserts_YyHSO6GzAEQ_YT.mp4</name>
										<enabled>TRUE</enabled>
										<duration>1491</duration>
										<rate>
											<timebase>30</timebase>
											<ntsc>TRUE</ntsc>
										</rate>
										<start>71683</start>
										<end>71800</end>
										<in>1054</in>
										<out>1171</out>
										<pproTicksIn>8933353228800</pproTicksIn>
										<pproTicksOut>9925006291200</pproTicksOut>
										<alphatype>none</alphatype>
										<file id="file-124"/>
										<logginginfo>
											<description></description>
											<scene></scene>
											<shottake></shottake>
											<lognote></lognote>
											<good></good>
											<originalvideofilename></originalvideofilename>
											<originalaudiofilename></originalaudiofilename>
										</logginginfo>
										<colorinfo>
											<lut></lut>
											<lut1></lut1>
											<asc_sop></asc_sop>
											<asc_sat></asc_sat>
											<lut2></lut2>
										</colorinfo>
									</clipitem>
									<clipitem id="clipitem-1042">
										<masterclipid>masterclip-144</masterclipid>
										<name>(Charlie Smark)_Storytime while I make a customer order ✨ #dollysdesserts_YyHSO6GzAEQ_YT.mp4</name>
										<enabled>TRUE</enabled>
										<duration>1491</duration>
										<rate>
											<timebase>30</timebase>
											<ntsc>TRUE</ntsc>
										</rate>
										<start>71800</start>
										<end>71961</end>
										<in>1264</in>
										<out>1425</out>
										<pproTicksIn>10713243340800</pproTicksIn>
										<pproTicksOut>12077825760000</pproTicksOut>
										<alphatype>none</alphatype>
										<file id="file-124"/>
										<logginginfo>
											<description></description>
											<scene></scene>
											<shottake></shottake>
											<lognote></lognote>
											<good></good>
											<originalvideofilename></originalvideofilename>
											<originalaudiofilename></originalaudiofilename>
										</logginginfo>
										<colorinfo>
											<lut></lut>
											<lut1></lut1>
											<asc_sop></asc_sop>
											<asc_sat></asc_sat>
											<lut2></lut2>
										</colorinfo>
									</clipitem>
									<enabled>TRUE</enabled>
									<locked>FALSE</locked>
								</track>
								<track TL.SQTrackShy="0" TL.SQTrackExpandedHeight="25" TL.SQTrackExpanded="0" MZ.TrackTargeted="0">
									<clipitem id="clipitem-1043">
										<masterclipid>masterclip-36</masterclipid>
										<name>Eyecandy Vertical Video Frame 2</name>
										<enabled>TRUE</enabled>
										<duration>5700</duration>
										<rate>
											<timebase>30</timebase>
											<ntsc>TRUE</ntsc>
										</rate>
										<start>1749</start>
										<end>2717</end>
										<in>102</in>
										<out>1070</out>
										<pproTicksIn>864518054400</pproTicksIn>
										<pproTicksOut>9068963904000</pproTicksOut>
										<alphatype>straight</alphatype>
										<file id="file-29"/>
										<logginginfo>
											<description></description>
											<scene></scene>
											<shottake></shottake>
											<lognote></lognote>
											<good></good>
											<originalvideofilename></originalvideofilename>
											<originalaudiofilename></originalaudiofilename>
										</logginginfo>
										<colorinfo>
											<lut></lut>
											<lut1></lut1>
											<asc_sop></asc_sop>
											<asc_sat></asc_sat>
											<lut2></lut2>
										</colorinfo>
										<labels>
											<label2>Teal</label2>
										</labels>
									</clipitem>
									<clipitem id="clipitem-1044">
										<masterclipid>masterclip-36</masterclipid>
										<name>Eyecandy Vertical Video Frame 2</name>
										<enabled>TRUE</enabled>
										<duration>5700</duration>
										<rate>
											<timebase>30</timebase>
											<ntsc>TRUE</ntsc>
										</rate>
										<start>2717</start>
										<end>3358</end>
										<in>1070</in>
										<out>1711</out>
										<pproTicksIn>9068963904000</pproTicksIn>
										<pproTicksOut>14501866579200</pproTicksOut>
										<alphatype>straight</alphatype>
										<file id="file-29"/>
										<logginginfo>
											<description></description>
											<scene></scene>
											<shottake></shottake>
											<lognote></lognote>
											<good></good>
											<originalvideofilename></originalvideofilename>
											<originalaudiofilename></originalaudiofilename>
										</logginginfo>
										<colorinfo>
											<lut></lut>
											<lut1></lut1>
											<asc_sop></asc_sop>
											<asc_sat></asc_sat>
											<lut2></lut2>
										</colorinfo>
										<labels>
											<label2>Teal</label2>
										</labels>
									</clipitem>
									<clipitem id="clipitem-1045">
										<masterclipid>masterclip-36</masterclipid>
										<name>Eyecandy Vertical Video Frame 2</name>
										<enabled>TRUE</enabled>
										<duration>5700</duration>
										<rate>
											<timebase>30</timebase>
											<ntsc>TRUE</ntsc>
										</rate>
										<start>3358</start>
										<end>4225</end>
										<in>1711</in>
										<out>2578</out>
										<pproTicksIn>14501866579200</pproTicksIn>
										<pproTicksOut>21850270041600</pproTicksOut>
										<alphatype>straight</alphatype>
										<file id="file-29"/>
										<logginginfo>
											<description></description>
											<scene></scene>
											<shottake></shottake>
											<lognote></lognote>
											<good></good>
											<originalvideofilename></originalvideofilename>
											<originalaudiofilename></originalaudiofilename>
										</logginginfo>
										<colorinfo>
											<lut></lut>
											<lut1></lut1>
											<asc_sop></asc_sop>
											<asc_sat></asc_sat>
											<lut2></lut2>
										</colorinfo>
										<labels>
											<label2>Teal</label2>
										</labels>
									</clipitem>
									<clipitem id="clipitem-1046">
										<masterclipid>masterclip-36</masterclipid>
										<name>Eyecandy Vertical Video Frame 2</name>
										<enabled>TRUE</enabled>
										<duration>5700</duration>
										<rate>
											<timebase>30</timebase>
											<ntsc>TRUE</ntsc>
										</rate>
										<start>4225</start>
										<end>5030</end>
										<in>2578</in>
										<out>3383</out>
										<pproTicksIn>21850270041600</pproTicksIn>
										<pproTicksOut>28673182137600</pproTicksOut>
										<alphatype>straight</alphatype>
										<file id="file-29"/>
										<logginginfo>
											<description></description>
											<scene></scene>
											<shottake></shottake>
											<lognote></lognote>
											<good></good>
											<originalvideofilename></originalvideofilename>
											<originalaudiofilename></originalaudiofilename>
										</logginginfo>
										<colorinfo>
											<lut></lut>
											<lut1></lut1>
											<asc_sop></asc_sop>
											<asc_sat></asc_sat>
											<lut2></lut2>
										</colorinfo>
										<labels>
											<label2>Teal</label2>
										</labels>
									</clipitem>
									<clipitem id="clipitem-1047">
										<masterclipid>masterclip-150</masterclipid>
										<name>alphafoodie</name>
										<enabled>TRUE</enabled>
										<duration>5844</duration>
										<rate>
											<timebase>30</timebase>
											<ntsc>TRUE</ntsc>
										</rate>
										<start>5030</start>
										<end>7670</end>
										<in>0</in>
										<out>2640</out>
										<pproTicksIn>0</pproTicksIn>
										<pproTicksOut>22375761408000</pproTicksOut>
										<alphatype>straight</alphatype>
										<file id="file-129"/>
										<logginginfo>
											<description></description>
											<scene></scene>
											<shottake></shottake>
											<lognote></lognote>
											<good></good>
											<originalvideofilename></originalvideofilename>
											<originalaudiofilename></originalaudiofilename>
										</logginginfo>
										<colorinfo>
											<lut></lut>
											<lut1></lut1>
											<asc_sop></asc_sop>
											<asc_sat></asc_sat>
											<lut2></lut2>
										</colorinfo>
										<labels>
											<label2>Rose</label2>
										</labels>
									</clipitem>
									<clipitem id="clipitem-1048">
										<masterclipid>masterclip-65</masterclipid>
										<name># Eyecandy Vertical Video Frame 3</name>
										<enabled>TRUE</enabled>
										<duration>5700</duration>
										<rate>
											<timebase>30</timebase>
											<ntsc>TRUE</ntsc>
										</rate>
										<start>10048</start>
										<end>10570</end>
										<in>114</in>
										<out>636</out>
										<pproTicksIn>966226060800</pproTicksIn>
										<pproTicksOut>5390524339200</pproTicksOut>
										<alphatype>straight</alphatype>
										<file id="file-54"/>
										<logginginfo>
											<description></description>
											<scene></scene>
											<shottake></shottake>
											<lognote></lognote>
											<good></good>
											<originalvideofilename></originalvideofilename>
											<originalaudiofilename></originalaudiofilename>
										</logginginfo>
										<colorinfo>
											<lut></lut>
											<lut1></lut1>
											<asc_sop></asc_sop>
											<asc_sat></asc_sat>
											<lut2></lut2>
										</colorinfo>
										<labels>
											<label2>Teal</label2>
										</labels>
									</clipitem>
									<clipitem id="clipitem-1049">
										<masterclipid>masterclip-65</masterclipid>
										<name># Eyecandy Vertical Video Frame 3</name>
										<enabled>TRUE</enabled>
										<duration>5700</duration>
										<rate>
											<timebase>30</timebase>
											<ntsc>TRUE</ntsc>
										</rate>
										<start>10570</start>
										<end>11024</end>
										<in>636</in>
										<out>1090</out>
										<pproTicksIn>5390524339200</pproTicksIn>
										<pproTicksOut>9238477248000</pproTicksOut>
										<alphatype>straight</alphatype>
										<file id="file-54"/>
										<logginginfo>
											<description></description>
											<scene></scene>
											<shottake></shottake>
											<lognote></lognote>
											<good></good>
											<originalvideofilename></originalvideofilename>
											<originalaudiofilename></originalaudiofilename>
										</logginginfo>
										<colorinfo>
											<lut></lut>
											<lut1></lut1>
											<asc_sop></asc_sop>
											<asc_sat></asc_sat>
											<lut2></lut2>
										</colorinfo>
										<labels>
											<label2>Teal</label2>
										</labels>
									</clipitem>
									<clipitem id="clipitem-1050">
										<masterclipid>masterclip-65</masterclipid>
										<name># Eyecandy Vertical Video Frame 3</name>
										<enabled>TRUE</enabled>
										<duration>5700</duration>
										<rate>
											<timebase>30</timebase>
											<ntsc>TRUE</ntsc>
										</rate>
										<start>11024</start>
										<end>11477</end>
										<in>1090</in>
										<out>1543</out>
										<pproTicksIn>9238477248000</pproTicksIn>
										<pproTicksOut>13077954489600</pproTicksOut>
										<alphatype>straight</alphatype>
										<file id="file-54"/>
										<logginginfo>
											<description></description>
											<scene></scene>
											<shottake></shottake>
											<lognote></lognote>
											<good></good>
											<originalvideofilename></originalvideofilename>
											<originalaudiofilename></originalaudiofilename>
										</logginginfo>
										<colorinfo>
											<lut></lut>
											<lut1></lut1>
											<asc_sop></asc_sop>
											<asc_sat></asc_sat>
											<lut2></lut2>
										</colorinfo>
										<labels>
											<label2>Teal</label2>
										</labels>
									</clipitem>
									<clipitem id="clipitem-1051">
										<masterclipid>masterclip-65</masterclipid>
										<name># Eyecandy Vertical Video Frame 3</name>
										<enabled>TRUE</enabled>
										<duration>5700</duration>
										<rate>
											<timebase>30</timebase>
											<ntsc>TRUE</ntsc>
										</rate>
										<start>11477</start>
										<end>11976</end>
										<in>1543</in>
										<out>2042</out>
										<pproTicksIn>13077954489600</pproTicksIn>
										<pproTicksOut>17307312422400</pproTicksOut>
										<alphatype>straight</alphatype>
										<file id="file-54"/>
										<logginginfo>
											<description></description>
											<scene></scene>
											<shottake></shottake>
											<lognote></lognote>
											<good></good>
											<originalvideofilename></originalvideofilename>
											<originalaudiofilename></originalaudiofilename>
										</logginginfo>
										<colorinfo>
											<lut></lut>
											<lut1></lut1>
											<asc_sop></asc_sop>
											<asc_sat></asc_sat>
											<lut2></lut2>
										</colorinfo>
										<labels>
											<label2>Teal</label2>
										</labels>
									</clipitem>
									<clipitem id="clipitem-1052">
										<masterclipid>masterclip-65</masterclipid>
										<name># Eyecandy Vertical Video Frame 3</name>
										<enabled>TRUE</enabled>
										<duration>5700</duration>
										<rate>
											<timebase>30</timebase>
											<ntsc>TRUE</ntsc>
										</rate>
										<start>11976</start>
										<end>12443</end>
										<in>2042</in>
										<out>2509</out>
										<pproTicksIn>17307312422400</pproTicksIn>
										<pproTicksOut>21265449004800</pproTicksOut>
										<alphatype>straight</alphatype>
										<file id="file-54"/>
										<logginginfo>
											<description></description>
											<scene></scene>
											<shottake></shottake>
											<lognote></lognote>
											<good></good>
											<originalvideofilename></originalvideofilename>
											<originalaudiofilename></originalaudiofilename>
										</logginginfo>
										<colorinfo>
											<lut></lut>
											<lut1></lut1>
											<asc_sop></asc_sop>
											<asc_sat></asc_sat>
											<lut2></lut2>
										</colorinfo>
										<labels>
											<label2>Teal</label2>
										</labels>
									</clipitem>
									<clipitem id="clipitem-1053">
										<masterclipid>masterclip-209</masterclipid>
										<name>Camp Chef</name>
										<enabled>TRUE</enabled>
										<duration>5844</duration>
										<rate>
											<timebase>30</timebase>
											<ntsc>TRUE</ntsc>
										</rate>
										<start>15071</start>
										<end>18220</end>
										<in>0</in>
										<out>3149</out>
										<pproTicksIn>0</pproTicksIn>
										<pproTicksOut>26689876012800</pproTicksOut>
										<alphatype>straight</alphatype>
										<file id="file-180"/>
										<logginginfo>
											<description></description>
											<scene></scene>
											<shottake></shottake>
											<lognote></lognote>
											<good></good>
											<originalvideofilename></originalvideofilename>
											<originalaudiofilename></originalaudiofilename>
										</logginginfo>
										<colorinfo>
											<lut></lut>
											<lut1></lut1>
											<asc_sop></asc_sop>
											<asc_sat></asc_sat>
											<lut2></lut2>
										</colorinfo>
										<labels>
											<label2>Rose</label2>
										</labels>
									</clipitem>
									<clipitem id="clipitem-1054">
										<masterclipid>masterclip-6</masterclipid>
										<name># Eyecandy Vertical Video Frame 4</name>
										<enabled>TRUE</enabled>
										<duration>5700</duration>
										<rate>
											<timebase>30</timebase>
											<ntsc>TRUE</ntsc>
										</rate>
										<start>18220</start>
										<end>18654</end>
										<in>106</in>
										<out>540</out>
										<pproTicksIn>898420723200</pproTicksIn>
										<pproTicksOut>4576860288000</pproTicksOut>
										<alphatype>straight</alphatype>
										<file id="file-5"/>
										<logginginfo>
											<description></description>
											<scene></scene>
											<shottake></shottake>
											<lognote></lognote>
											<good></good>
											<originalvideofilename></originalvideofilename>
											<originalaudiofilename></originalaudiofilename>
										</logginginfo>
										<colorinfo>
											<lut></lut>
											<lut1></lut1>
											<asc_sop></asc_sop>
											<asc_sat></asc_sat>
											<lut2></lut2>
										</colorinfo>
										<labels>
											<label2>Teal</label2>
										</labels>
									</clipitem>
									<clipitem id="clipitem-1055">
										<masterclipid>masterclip-6</masterclipid>
										<name># Eyecandy Vertical Video Frame 4</name>
										<enabled>TRUE</enabled>
										<duration>5700</duration>
										<rate>
											<timebase>30</timebase>
											<ntsc>TRUE</ntsc>
										</rate>
										<start>18654</start>
										<end>19197</end>
										<in>540</in>
										<out>1083</out>
										<pproTicksIn>4576860288000</pproTicksIn>
										<pproTicksOut>9179147577600</pproTicksOut>
										<alphatype>straight</alphatype>
										<file id="file-5"/>
										<logginginfo>
											<description></description>
											<scene></scene>
											<shottake></shottake>
											<lognote></lognote>
											<good></good>
											<originalvideofilename></originalvideofilename>
											<originalaudiofilename></originalaudiofilename>
										</logginginfo>
										<colorinfo>
											<lut></lut>
											<lut1></lut1>
											<asc_sop></asc_sop>
											<asc_sat></asc_sat>
											<lut2></lut2>
										</colorinfo>
										<labels>
											<label2>Teal</label2>
										</labels>
									</clipitem>
									<clipitem id="clipitem-1056">
										<masterclipid>masterclip-6</masterclipid>
										<name># Eyecandy Vertical Video Frame 4</name>
										<enabled>TRUE</enabled>
										<duration>5700</duration>
										<rate>
											<timebase>30</timebase>
											<ntsc>TRUE</ntsc>
										</rate>
										<start>19197</start>
										<end>19719</end>
										<in>1083</in>
										<out>1605</out>
										<pproTicksIn>9179147577600</pproTicksIn>
										<pproTicksOut>13603445856000</pproTicksOut>
										<alphatype>straight</alphatype>
										<file id="file-5"/>
										<logginginfo>
											<description></description>
											<scene></scene>
											<shottake></shottake>
											<lognote></lognote>
											<good></good>
											<originalvideofilename></originalvideofilename>
											<originalaudiofilename></originalaudiofilename>
										</logginginfo>
										<colorinfo>
											<lut></lut>
											<lut1></lut1>
											<asc_sop></asc_sop>
											<asc_sat></asc_sat>
											<lut2></lut2>
										</colorinfo>
										<labels>
											<label2>Teal</label2>
										</labels>
									</clipitem>
									<clipitem id="clipitem-1057">
										<masterclipid>masterclip-216</masterclipid>
										<name>Lindsay Grimes</name>
										<enabled>TRUE</enabled>
										<duration>5844</duration>
										<rate>
											<timebase>30</timebase>
											<ntsc>TRUE</ntsc>
										</rate>
										<start>19719</start>
										<end>20236</end>
										<in>3</in>
										<out>520</out>
										<pproTicksIn>25427001600</pproTicksIn>
										<pproTicksOut>4407346944000</pproTicksOut>
										<alphatype>straight</alphatype>
										<file id="file-186"/>
										<logginginfo>
											<description></description>
											<scene></scene>
											<shottake></shottake>
											<lognote></lognote>
											<good></good>
											<originalvideofilename></originalvideofilename>
											<originalaudiofilename></originalaudiofilename>
										</logginginfo>
										<colorinfo>
											<lut></lut>
											<lut1></lut1>
											<asc_sop></asc_sop>
											<asc_sat></asc_sat>
											<lut2></lut2>
										</colorinfo>
										<labels>
											<label2>Rose</label2>
										</labels>
									</clipitem>
									<clipitem id="clipitem-1058">
										<masterclipid>masterclip-222</masterclipid>
										<name>Sugar and Sparrow</name>
										<enabled>TRUE</enabled>
										<duration>5844</duration>
										<rate>
											<timebase>30</timebase>
											<ntsc>TRUE</ntsc>
										</rate>
										<start>20236</start>
										<end>22852</end>
										<in>0</in>
										<out>2616</out>
										<pproTicksIn>0</pproTicksIn>
										<pproTicksOut>22172345395200</pproTicksOut>
										<alphatype>straight</alphatype>
										<file id="file-191"/>
										<logginginfo>
											<description></description>
											<scene></scene>
											<shottake></shottake>
											<lognote></lognote>
											<good></good>
											<originalvideofilename></originalvideofilename>
											<originalaudiofilename></originalaudiofilename>
										</logginginfo>
										<colorinfo>
											<lut></lut>
											<lut1></lut1>
											<asc_sop></asc_sop>
											<asc_sat></asc_sat>
											<lut2></lut2>
										</colorinfo>
										<labels>
											<label2>Rose</label2>
										</labels>
									</clipitem>
									<clipitem id="clipitem-1059">
										<masterclipid>masterclip-14</masterclipid>
										<name>Eyecandy Vertical Video Frame 1</name>
										<enabled>TRUE</enabled>
										<duration>5700</duration>
										<rate>
											<timebase>30</timebase>
											<ntsc>TRUE</ntsc>
										</rate>
										<start>22852</start>
										<end>23440</end>
										<in>73</in>
										<out>661</out>
										<pproTicksIn>618723705600</pproTicksIn>
										<pproTicksOut>5602416019200</pproTicksOut>
										<alphatype>straight</alphatype>
										<file id="file-12"/>
										<logginginfo>
											<description></description>
											<scene></scene>
											<shottake></shottake>
											<lognote></lognote>
											<good></good>
											<originalvideofilename></originalvideofilename>
											<originalaudiofilename></originalaudiofilename>
										</logginginfo>
										<colorinfo>
											<lut></lut>
											<lut1></lut1>
											<asc_sop></asc_sop>
											<asc_sat></asc_sat>
											<lut2></lut2>
										</colorinfo>
										<labels>
											<label2>Teal</label2>
										</labels>
									</clipitem>
									<clipitem id="clipitem-1060">
										<masterclipid>masterclip-14</masterclipid>
										<name>Eyecandy Vertical Video Frame 1</name>
										<enabled>TRUE</enabled>
										<duration>5700</duration>
										<rate>
											<timebase>30</timebase>
											<ntsc>TRUE</ntsc>
										</rate>
										<start>23440</start>
										<end>23956</end>
										<in>661</in>
										<out>1177</out>
										<pproTicksIn>5602416019200</pproTicksIn>
										<pproTicksOut>9975860294400</pproTicksOut>
										<alphatype>straight</alphatype>
										<file id="file-12"/>
										<logginginfo>
											<description></description>
											<scene></scene>
											<shottake></shottake>
											<lognote></lognote>
											<good></good>
											<originalvideofilename></originalvideofilename>
											<originalaudiofilename></originalaudiofilename>
										</logginginfo>
										<colorinfo>
											<lut></lut>
											<lut1></lut1>
											<asc_sop></asc_sop>
											<asc_sat></asc_sat>
											<lut2></lut2>
										</colorinfo>
										<labels>
											<label2>Teal</label2>
										</labels>
									</clipitem>
									<clipitem id="clipitem-1061">
										<masterclipid>masterclip-14</masterclipid>
										<name>Eyecandy Vertical Video Frame 1</name>
										<enabled>TRUE</enabled>
										<duration>5700</duration>
										<rate>
											<timebase>30</timebase>
											<ntsc>TRUE</ntsc>
										</rate>
										<start>23956</start>
										<end>24391</end>
										<in>1177</in>
										<out>1612</out>
										<pproTicksIn>9975860294400</pproTicksIn>
										<pproTicksOut>13662775526400</pproTicksOut>
										<alphatype>straight</alphatype>
										<file id="file-12"/>
										<logginginfo>
											<description></description>
											<scene></scene>
											<shottake></shottake>
											<lognote></lognote>
											<good></good>
											<originalvideofilename></originalvideofilename>
											<originalaudiofilename></originalaudiofilename>
										</logginginfo>
										<colorinfo>
											<lut></lut>
											<lut1></lut1>
											<asc_sop></asc_sop>
											<asc_sat></asc_sat>
											<lut2></lut2>
										</colorinfo>
										<labels>
											<label2>Teal</label2>
										</labels>
									</clipitem>
									<clipitem id="clipitem-1062">
										<masterclipid>masterclip-14</masterclipid>
										<name>Eyecandy Vertical Video Frame 1</name>
										<enabled>TRUE</enabled>
										<duration>5700</duration>
										<rate>
											<timebase>30</timebase>
											<ntsc>TRUE</ntsc>
										</rate>
										<start>24391</start>
										<end>24713</end>
										<in>1612</in>
										<out>1934</out>
										<pproTicksIn>13662775526400</pproTicksIn>
										<pproTicksOut>16391940364800</pproTicksOut>
										<alphatype>straight</alphatype>
										<file id="file-12"/>
										<logginginfo>
											<description></description>
											<scene></scene>
											<shottake></shottake>
											<lognote></lognote>
											<good></good>
											<originalvideofilename></originalvideofilename>
											<originalaudiofilename></originalaudiofilename>
										</logginginfo>
										<colorinfo>
											<lut></lut>
											<lut1></lut1>
											<asc_sop></asc_sop>
											<asc_sat></asc_sat>
											<lut2></lut2>
										</colorinfo>
										<labels>
											<label2>Teal</label2>
										</labels>
									</clipitem>
									<clipitem id="clipitem-1063">
										<masterclipid>masterclip-14</masterclipid>
										<name>Eyecandy Vertical Video Frame 1</name>
										<enabled>TRUE</enabled>
										<duration>5700</duration>
										<rate>
											<timebase>30</timebase>
											<ntsc>TRUE</ntsc>
										</rate>
										<start>24713</start>
										<end>25301</end>
										<in>1934</in>
										<out>2522</out>
										<pproTicksIn>16391940364800</pproTicksIn>
										<pproTicksOut>21375632678400</pproTicksOut>
										<alphatype>straight</alphatype>
										<file id="file-12"/>
										<logginginfo>
											<description></description>
											<scene></scene>
											<shottake></shottake>
											<lognote></lognote>
											<good></good>
											<originalvideofilename></originalvideofilename>
											<originalaudiofilename></originalaudiofilename>
										</logginginfo>
										<colorinfo>
											<lut></lut>
											<lut1></lut1>
											<asc_sop></asc_sop>
											<asc_sat></asc_sat>
											<lut2></lut2>
										</colorinfo>
										<labels>
											<label2>Teal</label2>
										</labels>
									</clipitem>
									<clipitem id="clipitem-1064">
										<masterclipid>masterclip-235</masterclipid>
										<name>eatsbyrachel</name>
										<enabled>TRUE</enabled>
										<duration>5844</duration>
										<rate>
											<timebase>30</timebase>
											<ntsc>TRUE</ntsc>
										</rate>
										<start>25301</start>
										<end>28019</end>
										<in>0</in>
										<out>2718</out>
										<pproTicksIn>0</pproTicksIn>
										<pproTicksOut>23036863449600</pproTicksOut>
										<alphatype>straight</alphatype>
										<file id="file-202"/>
										<logginginfo>
											<description></description>
											<scene></scene>
											<shottake></shottake>
											<lognote></lognote>
											<good></good>
											<originalvideofilename></originalvideofilename>
											<originalaudiofilename></originalaudiofilename>
										</logginginfo>
										<colorinfo>
											<lut></lut>
											<lut1></lut1>
											<asc_sop></asc_sop>
											<asc_sat></asc_sat>
											<lut2></lut2>
										</colorinfo>
										<labels>
											<label2>Rose</label2>
										</labels>
									</clipitem>
									<clipitem id="clipitem-1065">
										<masterclipid>masterclip-36</masterclipid>
										<name>Eyecandy Vertical Video Frame 2</name>
										<enabled>TRUE</enabled>
										<duration>5700</duration>
										<rate>
											<timebase>30</timebase>
											<ntsc>TRUE</ntsc>
										</rate>
										<start>28019</start>
										<end>28591</end>
										<in>119</in>
										<out>691</out>
										<pproTicksIn>1008604396800</pproTicksIn>
										<pproTicksOut>5856686035200</pproTicksOut>
										<alphatype>straight</alphatype>
										<file id="file-29"/>
										<logginginfo>
											<description></description>
											<scene></scene>
											<shottake></shottake>
											<lognote></lognote>
											<good></good>
											<originalvideofilename></originalvideofilename>
											<originalaudiofilename></originalaudiofilename>
										</logginginfo>
										<colorinfo>
											<lut></lut>
											<lut1></lut1>
											<asc_sop></asc_sop>
											<asc_sat></asc_sat>
											<lut2></lut2>
										</colorinfo>
										<labels>
											<label2>Teal</label2>
										</labels>
									</clipitem>
									<clipitem id="clipitem-1066">
										<masterclipid>masterclip-36</masterclipid>
										<name>Eyecandy Vertical Video Frame 2</name>
										<enabled>TRUE</enabled>
										<duration>5700</duration>
										<rate>
											<timebase>30</timebase>
											<ntsc>TRUE</ntsc>
										</rate>
										<start>28591</start>
										<end>29105</end>
										<in>691</in>
										<out>1205</out>
										<pproTicksIn>5856686035200</pproTicksIn>
										<pproTicksOut>10213178976000</pproTicksOut>
										<alphatype>straight</alphatype>
										<file id="file-29"/>
										<logginginfo>
											<description></description>
											<scene></scene>
											<shottake></shottake>
											<lognote></lognote>
											<good></good>
											<originalvideofilename></originalvideofilename>
											<originalaudiofilename></originalaudiofilename>
										</logginginfo>
										<colorinfo>
											<lut></lut>
											<lut1></lut1>
											<asc_sop></asc_sop>
											<asc_sat></asc_sat>
											<lut2></lut2>
										</colorinfo>
										<labels>
											<label2>Teal</label2>
										</labels>
									</clipitem>
									<clipitem id="clipitem-1067">
										<masterclipid>masterclip-36</masterclipid>
										<name>Eyecandy Vertical Video Frame 2</name>
										<enabled>TRUE</enabled>
										<duration>5700</duration>
										<rate>
											<timebase>30</timebase>
											<ntsc>TRUE</ntsc>
										</rate>
										<start>29105</start>
										<end>29868</end>
										<in>1205</in>
										<out>1968</out>
										<pproTicksIn>10213178976000</pproTicksIn>
										<pproTicksOut>16680113049600</pproTicksOut>
										<alphatype>straight</alphatype>
										<file id="file-29"/>
										<logginginfo>
											<description></description>
											<scene></scene>
											<shottake></shottake>
											<lognote></lognote>
											<good></good>
											<originalvideofilename></originalvideofilename>
											<originalaudiofilename></originalaudiofilename>
										</logginginfo>
										<colorinfo>
											<lut></lut>
											<lut1></lut1>
											<asc_sop></asc_sop>
											<asc_sat></asc_sat>
											<lut2></lut2>
										</colorinfo>
										<labels>
											<label2>Teal</label2>
										</labels>
									</clipitem>
									<clipitem id="clipitem-1068">
										<masterclipid>masterclip-65</masterclipid>
										<name># Eyecandy Vertical Video Frame 3</name>
										<enabled>TRUE</enabled>
										<duration>5700</duration>
										<rate>
											<timebase>30</timebase>
											<ntsc>TRUE</ntsc>
										</rate>
										<start>32983</start>
										<end>33799</end>
										<in>78</in>
										<out>894</out>
										<pproTicksIn>661102041600</pproTicksIn>
										<pproTicksOut>7577246476800</pproTicksOut>
										<alphatype>straight</alphatype>
										<file id="file-54"/>
										<logginginfo>
											<description></description>
											<scene></scene>
											<shottake></shottake>
											<lognote></lognote>
											<good></good>
											<originalvideofilename></originalvideofilename>
											<originalaudiofilename></originalaudiofilename>
										</logginginfo>
										<colorinfo>
											<lut></lut>
											<lut1></lut1>
											<asc_sop></asc_sop>
											<asc_sat></asc_sat>
											<lut2></lut2>
										</colorinfo>
										<labels>
											<label2>Teal</label2>
										</labels>
									</clipitem>
									<clipitem id="clipitem-1069">
										<masterclipid>masterclip-65</masterclipid>
										<name># Eyecandy Vertical Video Frame 3</name>
										<enabled>TRUE</enabled>
										<duration>5700</duration>
										<rate>
											<timebase>30</timebase>
											<ntsc>TRUE</ntsc>
										</rate>
										<start>33799</start>
										<end>34580</end>
										<in>894</in>
										<out>1675</out>
										<pproTicksIn>7577246476800</pproTicksIn>
										<pproTicksOut>14196742560000</pproTicksOut>
										<alphatype>straight</alphatype>
										<file id="file-54"/>
										<logginginfo>
											<description></description>
											<scene></scene>
											<shottake></shottake>
											<lognote></lognote>
											<good></good>
											<originalvideofilename></originalvideofilename>
											<originalaudiofilename></originalaudiofilename>
										</logginginfo>
										<colorinfo>
											<lut></lut>
											<lut1></lut1>
											<asc_sop></asc_sop>
											<asc_sat></asc_sat>
											<lut2></lut2>
										</colorinfo>
										<labels>
											<label2>Teal</label2>
										</labels>
									</clipitem>
									<clipitem id="clipitem-1070">
										<masterclipid>masterclip-65</masterclipid>
										<name># Eyecandy Vertical Video Frame 3</name>
										<enabled>TRUE</enabled>
										<duration>5700</duration>
										<rate>
											<timebase>30</timebase>
											<ntsc>TRUE</ntsc>
										</rate>
										<start>34580</start>
										<end>35203</end>
										<in>1675</in>
										<out>2298</out>
										<pproTicksIn>14196742560000</pproTicksIn>
										<pproTicksOut>19477083225600</pproTicksOut>
										<alphatype>straight</alphatype>
										<file id="file-54"/>
										<logginginfo>
											<description></description>
											<scene></scene>
											<shottake></shottake>
											<lognote></lognote>
											<good></good>
											<originalvideofilename></originalvideofilename>
											<originalaudiofilename></originalaudiofilename>
										</logginginfo>
										<colorinfo>
											<lut></lut>
											<lut1></lut1>
											<asc_sop></asc_sop>
											<asc_sat></asc_sat>
											<lut2></lut2>
										</colorinfo>
										<labels>
											<label2>Teal</label2>
										</labels>
									</clipitem>
									<clipitem id="clipitem-1071">
										<masterclipid>masterclip-65</masterclipid>
										<name># Eyecandy Vertical Video Frame 3</name>
										<enabled>TRUE</enabled>
										<duration>5700</duration>
										<rate>
											<timebase>30</timebase>
											<ntsc>TRUE</ntsc>
										</rate>
										<start>35203</start>
										<end>35729</end>
										<in>2298</in>
										<out>2824</out>
										<pproTicksIn>19477083225600</pproTicksIn>
										<pproTicksOut>23935284172800</pproTicksOut>
										<alphatype>straight</alphatype>
										<file id="file-54"/>
										<logginginfo>
											<description></description>
											<scene></scene>
											<shottake></shottake>
											<lognote></lognote>
											<good></good>
											<originalvideofilename></originalvideofilename>
											<originalaudiofilename></originalaudiofilename>
										</logginginfo>
										<colorinfo>
											<lut></lut>
											<lut1></lut1>
											<asc_sop></asc_sop>
											<asc_sat></asc_sat>
											<lut2></lut2>
										</colorinfo>
										<labels>
											<label2>Teal</label2>
										</labels>
									</clipitem>
									<clipitem id="clipitem-1072">
										<masterclipid>masterclip-6</masterclipid>
										<name># Eyecandy Vertical Video Frame 4</name>
										<enabled>TRUE</enabled>
										<duration>5700</duration>
										<rate>
											<timebase>30</timebase>
											<ntsc>TRUE</ntsc>
										</rate>
										<start>35729</start>
										<end>37391</end>
										<in>82</in>
										<out>1744</out>
										<pproTicksIn>695004710400</pproTicksIn>
										<pproTicksOut>14781563596800</pproTicksOut>
										<alphatype>straight</alphatype>
										<file id="file-5"/>
										<logginginfo>
											<description></description>
											<scene></scene>
											<shottake></shottake>
											<lognote></lognote>
											<good></good>
											<originalvideofilename></originalvideofilename>
											<originalaudiofilename></originalaudiofilename>
										</logginginfo>
										<colorinfo>
											<lut></lut>
											<lut1></lut1>
											<asc_sop></asc_sop>
											<asc_sat></asc_sat>
											<lut2></lut2>
										</colorinfo>
										<labels>
											<label2>Teal</label2>
										</labels>
									</clipitem>
									<clipitem id="clipitem-1073">
										<masterclipid>masterclip-14</masterclipid>
										<name>Eyecandy Vertical Video Frame 1</name>
										<enabled>TRUE</enabled>
										<duration>5700</duration>
										<rate>
											<timebase>30</timebase>
											<ntsc>TRUE</ntsc>
										</rate>
										<start>37391</start>
										<end>38069</end>
										<in>209</in>
										<out>887</out>
										<pproTicksIn>1771414444800</pproTicksIn>
										<pproTicksOut>7517916806400</pproTicksOut>
										<alphatype>straight</alphatype>
										<file id="file-12"/>
										<logginginfo>
											<description></description>
											<scene></scene>
											<shottake></shottake>
											<lognote></lognote>
											<good></good>
											<originalvideofilename></originalvideofilename>
											<originalaudiofilename></originalaudiofilename>
										</logginginfo>
										<colorinfo>
											<lut></lut>
											<lut1></lut1>
											<asc_sop></asc_sop>
											<asc_sat></asc_sat>
											<lut2></lut2>
										</colorinfo>
										<labels>
											<label2>Teal</label2>
										</labels>
									</clipitem>
									<clipitem id="clipitem-1074">
										<masterclipid>masterclip-14</masterclipid>
										<name>Eyecandy Vertical Video Frame 1</name>
										<enabled>TRUE</enabled>
										<duration>5700</duration>
										<rate>
											<timebase>30</timebase>
											<ntsc>TRUE</ntsc>
										</rate>
										<start>38069</start>
										<end>38773</end>
										<in>887</in>
										<out>1591</out>
										<pproTicksIn>7517916806400</pproTicksIn>
										<pproTicksOut>13484786515200</pproTicksOut>
										<alphatype>straight</alphatype>
										<file id="file-12"/>
										<logginginfo>
											<description></description>
											<scene></scene>
											<shottake></shottake>
											<lognote></lognote>
											<good></good>
											<originalvideofilename></originalvideofilename>
											<originalaudiofilename></originalaudiofilename>
										</logginginfo>
										<colorinfo>
											<lut></lut>
											<lut1></lut1>
											<asc_sop></asc_sop>
											<asc_sat></asc_sat>
											<lut2></lut2>
										</colorinfo>
										<labels>
											<label2>Teal</label2>
										</labels>
									</clipitem>
									<clipitem id="clipitem-1075">
										<masterclipid>masterclip-14</masterclipid>
										<name>Eyecandy Vertical Video Frame 1</name>
										<enabled>TRUE</enabled>
										<duration>5700</duration>
										<rate>
											<timebase>30</timebase>
											<ntsc>TRUE</ntsc>
										</rate>
										<start>38773</start>
										<end>39434</end>
										<in>1591</in>
										<out>2252</out>
										<pproTicksIn>13484786515200</pproTicksIn>
										<pproTicksOut>19087202534400</pproTicksOut>
										<alphatype>straight</alphatype>
										<file id="file-12"/>
										<logginginfo>
											<description></description>
											<scene></scene>
											<shottake></shottake>
											<lognote></lognote>
											<good></good>
											<originalvideofilename></originalvideofilename>
											<originalaudiofilename></originalaudiofilename>
										</logginginfo>
										<colorinfo>
											<lut></lut>
											<lut1></lut1>
											<asc_sop></asc_sop>
											<asc_sat></asc_sat>
											<lut2></lut2>
										</colorinfo>
										<labels>
											<label2>Teal</label2>
										</labels>
									</clipitem>
									<clipitem id="clipitem-1076">
										<masterclipid>masterclip-14</masterclipid>
										<name>Eyecandy Vertical Video Frame 1</name>
										<enabled>TRUE</enabled>
										<duration>5700</duration>
										<rate>
											<timebase>30</timebase>
											<ntsc>TRUE</ntsc>
										</rate>
										<start>39434</start>
										<end>40007</end>
										<in>2252</in>
										<out>2825</out>
										<pproTicksIn>19087202534400</pproTicksIn>
										<pproTicksOut>23943759840000</pproTicksOut>
										<alphatype>straight</alphatype>
										<file id="file-12"/>
										<logginginfo>
											<description></description>
											<scene></scene>
											<shottake></shottake>
											<lognote></lognote>
											<good></good>
											<originalvideofilename></originalvideofilename>
											<originalaudiofilename></originalaudiofilename>
										</logginginfo>
										<colorinfo>
											<lut></lut>
											<lut1></lut1>
											<asc_sop></asc_sop>
											<asc_sat></asc_sat>
											<lut2></lut2>
										</colorinfo>
										<labels>
											<label2>Teal</label2>
										</labels>
									</clipitem>
									<clipitem id="clipitem-1077">
										<masterclipid>masterclip-14</masterclipid>
										<name>Eyecandy Vertical Video Frame 1</name>
										<enabled>TRUE</enabled>
										<duration>5700</duration>
										<rate>
											<timebase>30</timebase>
											<ntsc>TRUE</ntsc>
										</rate>
										<start>40007</start>
										<end>40673</end>
										<in>2825</in>
										<out>3491</out>
										<pproTicksIn>23943759840000</pproTicksIn>
										<pproTicksOut>29588554195200</pproTicksOut>
										<alphatype>straight</alphatype>
										<file id="file-12"/>
										<logginginfo>
											<description></description>
											<scene></scene>
											<shottake></shottake>
											<lognote></lognote>
											<good></good>
											<originalvideofilename></originalvideofilename>
											<originalaudiofilename></originalaudiofilename>
										</logginginfo>
										<colorinfo>
											<lut></lut>
											<lut1></lut1>
											<asc_sop></asc_sop>
											<asc_sat></asc_sat>
											<lut2></lut2>
										</colorinfo>
										<labels>
											<label2>Teal</label2>
										</labels>
									</clipitem>
									<clipitem id="clipitem-1078">
										<masterclipid>masterclip-27</masterclipid>
										<name>Tuba Geçkil</name>
										<enabled>TRUE</enabled>
										<duration>5844</duration>
										<rate>
											<timebase>30</timebase>
											<ntsc>TRUE</ntsc>
										</rate>
										<start>40673</start>
										<end>42532</end>
										<in>0</in>
										<out>1859</out>
										<pproTicksIn>0</pproTicksIn>
										<pproTicksOut>15756265324800</pproTicksOut>
										<alphatype>straight</alphatype>
										<file id="file-21"/>
										<logginginfo>
											<description></description>
											<scene></scene>
											<shottake></shottake>
											<lognote></lognote>
											<good></good>
											<originalvideofilename></originalvideofilename>
											<originalaudiofilename></originalaudiofilename>
										</logginginfo>
										<colorinfo>
											<lut></lut>
											<lut1></lut1>
											<asc_sop></asc_sop>
											<asc_sat></asc_sat>
											<lut2></lut2>
										</colorinfo>
										<labels>
											<label2>Rose</label2>
										</labels>
									</clipitem>
									<clipitem id="clipitem-1079">
										<masterclipid>masterclip-36</masterclipid>
										<name>Eyecandy Vertical Video Frame 2</name>
										<enabled>TRUE</enabled>
										<duration>5700</duration>
										<rate>
											<timebase>30</timebase>
											<ntsc>TRUE</ntsc>
										</rate>
										<start>42532</start>
										<end>43182</end>
										<in>50</in>
										<out>700</out>
										<pproTicksIn>423783360000</pproTicksIn>
										<pproTicksOut>5932967040000</pproTicksOut>
										<alphatype>straight</alphatype>
										<file id="file-29"/>
										<logginginfo>
											<description></description>
											<scene></scene>
											<shottake></shottake>
											<lognote></lognote>
											<good></good>
											<originalvideofilename></originalvideofilename>
											<originalaudiofilename></originalaudiofilename>
										</logginginfo>
										<colorinfo>
											<lut></lut>
											<lut1></lut1>
											<asc_sop></asc_sop>
											<asc_sat></asc_sat>
											<lut2></lut2>
										</colorinfo>
										<labels>
											<label2>Teal</label2>
										</labels>
									</clipitem>
									<clipitem id="clipitem-1080">
										<masterclipid>masterclip-36</masterclipid>
										<name>Eyecandy Vertical Video Frame 2</name>
										<enabled>TRUE</enabled>
										<duration>5700</duration>
										<rate>
											<timebase>30</timebase>
											<ntsc>TRUE</ntsc>
										</rate>
										<start>43182</start>
										<end>43874</end>
										<in>700</in>
										<out>1392</out>
										<pproTicksIn>5932967040000</pproTicksIn>
										<pproTicksOut>11798128742400</pproTicksOut>
										<alphatype>straight</alphatype>
										<file id="file-29"/>
										<logginginfo>
											<description></description>
											<scene></scene>
											<shottake></shottake>
											<lognote></lognote>
											<good></good>
											<originalvideofilename></originalvideofilename>
											<originalaudiofilename></originalaudiofilename>
										</logginginfo>
										<colorinfo>
											<lut></lut>
											<lut1></lut1>
											<asc_sop></asc_sop>
											<asc_sat></asc_sat>
											<lut2></lut2>
										</colorinfo>
										<labels>
											<label2>Teal</label2>
										</labels>
									</clipitem>
									<clipitem id="clipitem-1081">
										<masterclipid>masterclip-36</masterclipid>
										<name>Eyecandy Vertical Video Frame 2</name>
										<enabled>TRUE</enabled>
										<duration>5700</duration>
										<rate>
											<timebase>30</timebase>
											<ntsc>TRUE</ntsc>
										</rate>
										<start>43874</start>
										<end>44301</end>
										<in>1392</in>
										<out>1819</out>
										<pproTicksIn>11798128742400</pproTicksIn>
										<pproTicksOut>15417238636800</pproTicksOut>
										<alphatype>straight</alphatype>
										<file id="file-29"/>
										<logginginfo>
											<description></description>
											<scene></scene>
											<shottake></shottake>
											<lognote></lognote>
											<good></good>
											<originalvideofilename></originalvideofilename>
											<originalaudiofilename></originalaudiofilename>
										</logginginfo>
										<colorinfo>
											<lut></lut>
											<lut1></lut1>
											<asc_sop></asc_sop>
											<asc_sat></asc_sat>
											<lut2></lut2>
										</colorinfo>
										<labels>
											<label2>Teal</label2>
										</labels>
									</clipitem>
									<clipitem id="clipitem-1082">
										<masterclipid>masterclip-36</masterclipid>
										<name>Eyecandy Vertical Video Frame 2</name>
										<enabled>TRUE</enabled>
										<duration>5700</duration>
										<rate>
											<timebase>30</timebase>
											<ntsc>TRUE</ntsc>
										</rate>
										<start>44301</start>
										<end>44915</end>
										<in>1819</in>
										<out>2433</out>
										<pproTicksIn>15417238636800</pproTicksIn>
										<pproTicksOut>20621298297600</pproTicksOut>
										<alphatype>straight</alphatype>
										<file id="file-29"/>
										<logginginfo>
											<description></description>
											<scene></scene>
											<shottake></shottake>
											<lognote></lognote>
											<good></good>
											<originalvideofilename></originalvideofilename>
											<originalaudiofilename></originalaudiofilename>
										</logginginfo>
										<colorinfo>
											<lut></lut>
											<lut1></lut1>
											<asc_sop></asc_sop>
											<asc_sat></asc_sat>
											<lut2></lut2>
										</colorinfo>
										<labels>
											<label2>Teal</label2>
										</labels>
									</clipitem>
									<clipitem id="clipitem-1083">
										<masterclipid>masterclip-36</masterclipid>
										<name>Eyecandy Vertical Video Frame 2</name>
										<enabled>TRUE</enabled>
										<duration>5700</duration>
										<rate>
											<timebase>30</timebase>
											<ntsc>TRUE</ntsc>
										</rate>
										<start>44915</start>
										<end>45510</end>
										<in>2433</in>
										<out>3028</out>
										<pproTicksIn>20621298297600</pproTicksIn>
										<pproTicksOut>25664320281600</pproTicksOut>
										<alphatype>straight</alphatype>
										<file id="file-29"/>
										<logginginfo>
											<description></description>
											<scene></scene>
											<shottake></shottake>
											<lognote></lognote>
											<good></good>
											<originalvideofilename></originalvideofilename>
											<originalaudiofilename></originalaudiofilename>
										</logginginfo>
										<colorinfo>
											<lut></lut>
											<lut1></lut1>
											<asc_sop></asc_sop>
											<asc_sat></asc_sat>
											<lut2></lut2>
										</colorinfo>
										<labels>
											<label2>Teal</label2>
										</labels>
									</clipitem>
									<clipitem id="clipitem-1084">
										<masterclipid>masterclip-36</masterclipid>
										<name>Eyecandy Vertical Video Frame 2</name>
										<enabled>TRUE</enabled>
										<duration>5700</duration>
										<rate>
											<timebase>30</timebase>
											<ntsc>TRUE</ntsc>
										</rate>
										<start>45510</start>
										<end>46102</end>
										<in>3028</in>
										<out>3620</out>
										<pproTicksIn>25664320281600</pproTicksIn>
										<pproTicksOut>30681915264000</pproTicksOut>
										<alphatype>straight</alphatype>
										<file id="file-29"/>
										<logginginfo>
											<description></description>
											<scene></scene>
											<shottake></shottake>
											<lognote></lognote>
											<good></good>
											<originalvideofilename></originalvideofilename>
											<originalaudiofilename></originalaudiofilename>
										</logginginfo>
										<colorinfo>
											<lut></lut>
											<lut1></lut1>
											<asc_sop></asc_sop>
											<asc_sat></asc_sat>
											<lut2></lut2>
										</colorinfo>
										<labels>
											<label2>Teal</label2>
										</labels>
									</clipitem>
									<clipitem id="clipitem-1085">
										<masterclipid>masterclip-65</masterclipid>
										<name># Eyecandy Vertical Video Frame 3</name>
										<enabled>TRUE</enabled>
										<duration>5700</duration>
										<rate>
											<timebase>30</timebase>
											<ntsc>TRUE</ntsc>
										</rate>
										<start>48054</start>
										<end>48586</end>
										<in>177</in>
										<out>709</out>
										<pproTicksIn>1500193094400</pproTicksIn>
										<pproTicksOut>6009248044800</pproTicksOut>
										<alphatype>straight</alphatype>
										<file id="file-54"/>
										<logginginfo>
											<description></description>
											<scene></scene>
											<shottake></shottake>
											<lognote></lognote>
											<good></good>
											<originalvideofilename></originalvideofilename>
											<originalaudiofilename></originalaudiofilename>
										</logginginfo>
										<colorinfo>
											<lut></lut>
											<lut1></lut1>
											<asc_sop></asc_sop>
											<asc_sat></asc_sat>
											<lut2></lut2>
										</colorinfo>
										<labels>
											<label2>Teal</label2>
										</labels>
									</clipitem>
									<clipitem id="clipitem-1086">
										<masterclipid>masterclip-65</masterclipid>
										<name># Eyecandy Vertical Video Frame 3</name>
										<enabled>TRUE</enabled>
										<duration>5700</duration>
										<rate>
											<timebase>30</timebase>
											<ntsc>TRUE</ntsc>
										</rate>
										<start>48586</start>
										<end>49126</end>
										<in>709</in>
										<out>1249</out>
										<pproTicksIn>6009248044800</pproTicksIn>
										<pproTicksOut>10586108332800</pproTicksOut>
										<alphatype>straight</alphatype>
										<file id="file-54"/>
										<logginginfo>
											<description></description>
											<scene></scene>
											<shottake></shottake>
											<lognote></lognote>
											<good></good>
											<originalvideofilename></originalvideofilename>
											<originalaudiofilename></originalaudiofilename>
										</logginginfo>
										<colorinfo>
											<lut></lut>
											<lut1></lut1>
											<asc_sop></asc_sop>
											<asc_sat></asc_sat>
											<lut2></lut2>
										</colorinfo>
										<labels>
											<label2>Teal</label2>
										</labels>
									</clipitem>
									<clipitem id="clipitem-1087">
										<masterclipid>masterclip-65</masterclipid>
										<name># Eyecandy Vertical Video Frame 3</name>
										<enabled>TRUE</enabled>
										<duration>5700</duration>
										<rate>
											<timebase>30</timebase>
											<ntsc>TRUE</ntsc>
										</rate>
										<start>49126</start>
										<end>49819</end>
										<in>1249</in>
										<out>1942</out>
										<pproTicksIn>10586108332800</pproTicksIn>
										<pproTicksOut>16459745702400</pproTicksOut>
										<alphatype>straight</alphatype>
										<file id="file-54"/>
										<logginginfo>
											<description></description>
											<scene></scene>
											<shottake></shottake>
											<lognote></lognote>
											<good></good>
											<originalvideofilename></originalvideofilename>
											<originalaudiofilename></originalaudiofilename>
										</logginginfo>
										<colorinfo>
											<lut></lut>
											<lut1></lut1>
											<asc_sop></asc_sop>
											<asc_sat></asc_sat>
											<lut2></lut2>
										</colorinfo>
										<labels>
											<label2>Teal</label2>
										</labels>
									</clipitem>
									<clipitem id="clipitem-1088">
										<masterclipid>masterclip-65</masterclipid>
										<name># Eyecandy Vertical Video Frame 3</name>
										<enabled>TRUE</enabled>
										<duration>5700</duration>
										<rate>
											<timebase>30</timebase>
											<ntsc>TRUE</ntsc>
										</rate>
										<start>49819</start>
										<end>50372</end>
										<in>1942</in>
										<out>2495</out>
										<pproTicksIn>16459745702400</pproTicksIn>
										<pproTicksOut>21146789664000</pproTicksOut>
										<alphatype>straight</alphatype>
										<file id="file-54"/>
										<logginginfo>
											<description></description>
											<scene></scene>
											<shottake></shottake>
											<lognote></lognote>
											<good></good>
											<originalvideofilename></originalvideofilename>
											<originalaudiofilename></originalaudiofilename>
										</logginginfo>
										<colorinfo>
											<lut></lut>
											<lut1></lut1>
											<asc_sop></asc_sop>
											<asc_sat></asc_sat>
											<lut2></lut2>
										</colorinfo>
										<labels>
											<label2>Teal</label2>
										</labels>
									</clipitem>
									<clipitem id="clipitem-1089">
										<masterclipid>masterclip-65</masterclipid>
										<name># Eyecandy Vertical Video Frame 3</name>
										<enabled>TRUE</enabled>
										<duration>5700</duration>
										<rate>
											<timebase>30</timebase>
											<ntsc>TRUE</ntsc>
										</rate>
										<start>50372</start>
										<end>50953</end>
										<in>2495</in>
										<out>3076</out>
										<pproTicksIn>21146789664000</pproTicksIn>
										<pproTicksOut>26071152307200</pproTicksOut>
										<alphatype>straight</alphatype>
										<file id="file-54"/>
										<logginginfo>
											<description></description>
											<scene></scene>
											<shottake></shottake>
											<lognote></lognote>
											<good></good>
											<originalvideofilename></originalvideofilename>
											<originalaudiofilename></originalaudiofilename>
										</logginginfo>
										<colorinfo>
											<lut></lut>
											<lut1></lut1>
											<asc_sop></asc_sop>
											<asc_sat></asc_sat>
											<lut2></lut2>
										</colorinfo>
										<labels>
											<label2>Teal</label2>
										</labels>
									</clipitem>
									<clipitem id="clipitem-1090">
										<masterclipid>masterclip-65</masterclipid>
										<name># Eyecandy Vertical Video Frame 3</name>
										<enabled>TRUE</enabled>
										<duration>5700</duration>
										<rate>
											<timebase>30</timebase>
											<ntsc>TRUE</ntsc>
										</rate>
										<start>50953</start>
										<end>51561</end>
										<in>3076</in>
										<out>3684</out>
										<pproTicksIn>26071152307200</pproTicksIn>
										<pproTicksOut>31224357964800</pproTicksOut>
										<alphatype>straight</alphatype>
										<file id="file-54"/>
										<logginginfo>
											<description></description>
											<scene></scene>
											<shottake></shottake>
											<lognote></lognote>
											<good></good>
											<originalvideofilename></originalvideofilename>
											<originalaudiofilename></originalaudiofilename>
										</logginginfo>
										<colorinfo>
											<lut></lut>
											<lut1></lut1>
											<asc_sop></asc_sop>
											<asc_sat></asc_sat>
											<lut2></lut2>
										</colorinfo>
										<labels>
											<label2>Teal</label2>
										</labels>
									</clipitem>
									<clipitem id="clipitem-1091">
										<masterclipid>masterclip-6</masterclipid>
										<name># Eyecandy Vertical Video Frame 4</name>
										<enabled>TRUE</enabled>
										<duration>5700</duration>
										<rate>
											<timebase>30</timebase>
											<ntsc>TRUE</ntsc>
										</rate>
										<start>51561</start>
										<end>52127</end>
										<in>95</in>
										<out>661</out>
										<pproTicksIn>805188384000</pproTicksIn>
										<pproTicksOut>5602416019200</pproTicksOut>
										<alphatype>straight</alphatype>
										<file id="file-5"/>
										<logginginfo>
											<description></description>
											<scene></scene>
											<shottake></shottake>
											<lognote></lognote>
											<good></good>
											<originalvideofilename></originalvideofilename>
											<originalaudiofilename></originalaudiofilename>
										</logginginfo>
										<colorinfo>
											<lut></lut>
											<lut1></lut1>
											<asc_sop></asc_sop>
											<asc_sat></asc_sat>
											<lut2></lut2>
										</colorinfo>
										<labels>
											<label2>Teal</label2>
										</labels>
									</clipitem>
									<clipitem id="clipitem-1092">
										<masterclipid>masterclip-6</masterclipid>
										<name># Eyecandy Vertical Video Frame 4</name>
										<enabled>TRUE</enabled>
										<duration>5700</duration>
										<rate>
											<timebase>30</timebase>
											<ntsc>TRUE</ntsc>
										</rate>
										<start>52127</start>
										<end>52698</end>
										<in>661</in>
										<out>1232</out>
										<pproTicksIn>5602416019200</pproTicksIn>
										<pproTicksOut>10442021990400</pproTicksOut>
										<alphatype>straight</alphatype>
										<file id="file-5"/>
										<logginginfo>
											<description></description>
											<scene></scene>
											<shottake></shottake>
											<lognote></lognote>
											<good></good>
											<originalvideofilename></originalvideofilename>
											<originalaudiofilename></originalaudiofilename>
										</logginginfo>
										<colorinfo>
											<lut></lut>
											<lut1></lut1>
											<asc_sop></asc_sop>
											<asc_sat></asc_sat>
											<lut2></lut2>
										</colorinfo>
										<labels>
											<label2>Teal</label2>
										</labels>
									</clipitem>
									<clipitem id="clipitem-1093">
										<masterclipid>masterclip-6</masterclipid>
										<name># Eyecandy Vertical Video Frame 4</name>
										<enabled>TRUE</enabled>
										<duration>5700</duration>
										<rate>
											<timebase>30</timebase>
											<ntsc>TRUE</ntsc>
										</rate>
										<start>52698</start>
										<end>53376</end>
										<in>1232</in>
										<out>1910</out>
										<pproTicksIn>10442021990400</pproTicksIn>
										<pproTicksOut>16188524352000</pproTicksOut>
										<alphatype>straight</alphatype>
										<file id="file-5"/>
										<logginginfo>
											<description></description>
											<scene></scene>
											<shottake></shottake>
											<lognote></lognote>
											<good></good>
											<originalvideofilename></originalvideofilename>
											<originalaudiofilename></originalaudiofilename>
										</logginginfo>
										<colorinfo>
											<lut></lut>
											<lut1></lut1>
											<asc_sop></asc_sop>
											<asc_sat></asc_sat>
											<lut2></lut2>
										</colorinfo>
										<labels>
											<label2>Teal</label2>
										</labels>
									</clipitem>
									<clipitem id="clipitem-1094">
										<masterclipid>masterclip-6</masterclipid>
										<name># Eyecandy Vertical Video Frame 4</name>
										<enabled>TRUE</enabled>
										<duration>5700</duration>
										<rate>
											<timebase>30</timebase>
											<ntsc>TRUE</ntsc>
										</rate>
										<start>53376</start>
										<end>53955</end>
										<in>1910</in>
										<out>2489</out>
										<pproTicksIn>16188524352000</pproTicksIn>
										<pproTicksOut>21095935660800</pproTicksOut>
										<alphatype>straight</alphatype>
										<file id="file-5"/>
										<logginginfo>
											<description></description>
											<scene></scene>
											<shottake></shottake>
											<lognote></lognote>
											<good></good>
											<originalvideofilename></originalvideofilename>
											<originalaudiofilename></originalaudiofilename>
										</logginginfo>
										<colorinfo>
											<lut></lut>
											<lut1></lut1>
											<asc_sop></asc_sop>
											<asc_sat></asc_sat>
											<lut2></lut2>
										</colorinfo>
										<labels>
											<label2>Teal</label2>
										</labels>
									</clipitem>
									<clipitem id="clipitem-1095">
										<masterclipid>masterclip-6</masterclipid>
										<name># Eyecandy Vertical Video Frame 4</name>
										<enabled>TRUE</enabled>
										<duration>5700</duration>
										<rate>
											<timebase>30</timebase>
											<ntsc>TRUE</ntsc>
										</rate>
										<start>53955</start>
										<end>54503</end>
										<in>2489</in>
										<out>3037</out>
										<pproTicksIn>21095935660800</pproTicksIn>
										<pproTicksOut>25740601286400</pproTicksOut>
										<alphatype>straight</alphatype>
										<file id="file-5"/>
										<logginginfo>
											<description></description>
											<scene></scene>
											<shottake></shottake>
											<lognote></lognote>
											<good></good>
											<originalvideofilename></originalvideofilename>
											<originalaudiofilename></originalaudiofilename>
										</logginginfo>
										<colorinfo>
											<lut></lut>
											<lut1></lut1>
											<asc_sop></asc_sop>
											<asc_sat></asc_sat>
											<lut2></lut2>
										</colorinfo>
										<labels>
											<label2>Teal</label2>
										</labels>
									</clipitem>
									<clipitem id="clipitem-1096">
										<masterclipid>masterclip-6</masterclipid>
										<name># Eyecandy Vertical Video Frame 4</name>
										<enabled>TRUE</enabled>
										<duration>5700</duration>
										<rate>
											<timebase>30</timebase>
											<ntsc>TRUE</ntsc>
										</rate>
										<start>54503</start>
										<end>54943</end>
										<in>3037</in>
										<out>3477</out>
										<pproTicksIn>25740601286400</pproTicksIn>
										<pproTicksOut>29469894854400</pproTicksOut>
										<alphatype>straight</alphatype>
										<file id="file-5"/>
										<logginginfo>
											<description></description>
											<scene></scene>
											<shottake></shottake>
											<lognote></lognote>
											<good></good>
											<originalvideofilename></originalvideofilename>
											<originalaudiofilename></originalaudiofilename>
										</logginginfo>
										<colorinfo>
											<lut></lut>
											<lut1></lut1>
											<asc_sop></asc_sop>
											<asc_sat></asc_sat>
											<lut2></lut2>
										</colorinfo>
										<labels>
											<label2>Teal</label2>
										</labels>
									</clipitem>
									<clipitem id="clipitem-1097">
										<masterclipid>masterclip-14</masterclipid>
										<name>Eyecandy Vertical Video Frame 1</name>
										<enabled>TRUE</enabled>
										<duration>5700</duration>
										<rate>
											<timebase>30</timebase>
											<ntsc>TRUE</ntsc>
										</rate>
										<start>59139</start>
										<end>61737</end>
										<in>80</in>
										<out>2678</out>
										<pproTicksIn>678053376000</pproTicksIn>
										<pproTicksOut>22697836761600</pproTicksOut>
										<alphatype>straight</alphatype>
										<file id="file-12"/>
										<logginginfo>
											<description></description>
											<scene></scene>
											<shottake></shottake>
											<lognote></lognote>
											<good></good>
											<originalvideofilename></originalvideofilename>
											<originalaudiofilename></originalaudiofilename>
										</logginginfo>
										<colorinfo>
											<lut></lut>
											<lut1></lut1>
											<asc_sop></asc_sop>
											<asc_sat></asc_sat>
											<lut2></lut2>
										</colorinfo>
										<labels>
											<label2>Teal</label2>
										</labels>
									</clipitem>
									<clipitem id="clipitem-1098">
										<masterclipid>masterclip-36</masterclipid>
										<name>Eyecandy Vertical Video Frame 2</name>
										<enabled>TRUE</enabled>
										<duration>5700</duration>
										<rate>
											<timebase>30</timebase>
											<ntsc>TRUE</ntsc>
										</rate>
										<start>61737</start>
										<end>62358</end>
										<in>118</in>
										<out>739</out>
										<pproTicksIn>1000128729600</pproTicksIn>
										<pproTicksOut>6263518060800</pproTicksOut>
										<alphatype>straight</alphatype>
										<file id="file-29"/>
										<filter>
											<effect>
												<name>Basic Motion</name>
												<effectid>basic</effectid>
												<effectcategory>motion</effectcategory>
												<effecttype>motion</effecttype>
												<mediatype>video</mediatype>
												<pproBypass>false</pproBypass>
												<parameter authoringApp="PremierePro">
													<parameterid>scale</parameterid>
													<name>Scale</name>
													<valuemin>0</valuemin>
													<valuemax>1000</valuemax>
													<value>102</value>
												</parameter>
												<parameter authoringApp="PremierePro">
													<parameterid>rotation</parameterid>
													<name>Rotation</name>
													<valuemin>-8640</valuemin>
													<valuemax>8640</valuemax>
													<value>0</value>
												</parameter>
												<parameter authoringApp="PremierePro">
													<parameterid>center</parameterid>
													<name>Center</name>
													<value>
														<horiz>-0.00729167</horiz>
														<vert>0</vert>
													</value>
												</parameter>
												<parameter authoringApp="PremierePro">
													<parameterid>centerOffset</parameterid>
													<name>Anchor Point</name>
													<value>
														<horiz>0</horiz>
														<vert>0</vert>
													</value>
												</parameter>
												<parameter authoringApp="PremierePro">
													<parameterid>antiflicker</parameterid>
													<name>Anti-flicker Filter</name>
													<valuemin>0.0</valuemin>
													<valuemax>1.0</valuemax>
													<value>0</value>
												</parameter>
											</effect>
										</filter>
										<logginginfo>
											<description></description>
											<scene></scene>
											<shottake></shottake>
											<lognote></lognote>
											<good></good>
											<originalvideofilename></originalvideofilename>
											<originalaudiofilename></originalaudiofilename>
										</logginginfo>
										<colorinfo>
											<lut></lut>
											<lut1></lut1>
											<asc_sop></asc_sop>
											<asc_sat></asc_sat>
											<lut2></lut2>
										</colorinfo>
										<labels>
											<label2>Teal</label2>
										</labels>
									</clipitem>
									<clipitem id="clipitem-1099">
										<masterclipid>masterclip-36</masterclipid>
										<name>Eyecandy Vertical Video Frame 2</name>
										<enabled>TRUE</enabled>
										<duration>5700</duration>
										<rate>
											<timebase>30</timebase>
											<ntsc>TRUE</ntsc>
										</rate>
										<start>62358</start>
										<end>62840</end>
										<in>739</in>
										<out>1221</out>
										<pproTicksIn>6263518060800</pproTicksIn>
										<pproTicksOut>10348789651200</pproTicksOut>
										<alphatype>straight</alphatype>
										<file id="file-29"/>
										<filter>
											<effect>
												<name>Basic Motion</name>
												<effectid>basic</effectid>
												<effectcategory>motion</effectcategory>
												<effecttype>motion</effecttype>
												<mediatype>video</mediatype>
												<pproBypass>false</pproBypass>
												<parameter authoringApp="PremierePro">
													<parameterid>scale</parameterid>
													<name>Scale</name>
													<valuemin>0</valuemin>
													<valuemax>1000</valuemax>
													<value>102</value>
												</parameter>
												<parameter authoringApp="PremierePro">
													<parameterid>rotation</parameterid>
													<name>Rotation</name>
													<valuemin>-8640</valuemin>
													<valuemax>8640</valuemax>
													<value>0</value>
												</parameter>
												<parameter authoringApp="PremierePro">
													<parameterid>center</parameterid>
													<name>Center</name>
													<value>
														<horiz>-0.00729167</horiz>
														<vert>0</vert>
													</value>
												</parameter>
												<parameter authoringApp="PremierePro">
													<parameterid>centerOffset</parameterid>
													<name>Anchor Point</name>
													<value>
														<horiz>0</horiz>
														<vert>0</vert>
													</value>
												</parameter>
												<parameter authoringApp="PremierePro">
													<parameterid>antiflicker</parameterid>
													<name>Anti-flicker Filter</name>
													<valuemin>0.0</valuemin>
													<valuemax>1.0</valuemax>
													<value>0</value>
												</parameter>
											</effect>
										</filter>
										<logginginfo>
											<description></description>
											<scene></scene>
											<shottake></shottake>
											<lognote></lognote>
											<good></good>
											<originalvideofilename></originalvideofilename>
											<originalaudiofilename></originalaudiofilename>
										</logginginfo>
										<colorinfo>
											<lut></lut>
											<lut1></lut1>
											<asc_sop></asc_sop>
											<asc_sat></asc_sat>
											<lut2></lut2>
										</colorinfo>
										<labels>
											<label2>Teal</label2>
										</labels>
									</clipitem>
									<clipitem id="clipitem-1100">
										<masterclipid>masterclip-36</masterclipid>
										<name>Eyecandy Vertical Video Frame 2</name>
										<enabled>TRUE</enabled>
										<duration>5700</duration>
										<rate>
											<timebase>30</timebase>
											<ntsc>TRUE</ntsc>
										</rate>
										<start>62840</start>
										<end>63498</end>
										<in>1221</in>
										<out>1879</out>
										<pproTicksIn>10348789651200</pproTicksIn>
										<pproTicksOut>15925778668800</pproTicksOut>
										<alphatype>straight</alphatype>
										<file id="file-29"/>
										<filter>
											<effect>
												<name>Basic Motion</name>
												<effectid>basic</effectid>
												<effectcategory>motion</effectcategory>
												<effecttype>motion</effecttype>
												<mediatype>video</mediatype>
												<pproBypass>false</pproBypass>
												<parameter authoringApp="PremierePro">
													<parameterid>scale</parameterid>
													<name>Scale</name>
													<valuemin>0</valuemin>
													<valuemax>1000</valuemax>
													<value>102</value>
												</parameter>
												<parameter authoringApp="PremierePro">
													<parameterid>rotation</parameterid>
													<name>Rotation</name>
													<valuemin>-8640</valuemin>
													<valuemax>8640</valuemax>
													<value>0</value>
												</parameter>
												<parameter authoringApp="PremierePro">
													<parameterid>center</parameterid>
													<name>Center</name>
													<value>
														<horiz>-0.00729167</horiz>
														<vert>0</vert>
													</value>
												</parameter>
												<parameter authoringApp="PremierePro">
													<parameterid>centerOffset</parameterid>
													<name>Anchor Point</name>
													<value>
														<horiz>0</horiz>
														<vert>0</vert>
													</value>
												</parameter>
												<parameter authoringApp="PremierePro">
													<parameterid>antiflicker</parameterid>
													<name>Anti-flicker Filter</name>
													<valuemin>0.0</valuemin>
													<valuemax>1.0</valuemax>
													<value>0</value>
												</parameter>
											</effect>
										</filter>
										<logginginfo>
											<description></description>
											<scene></scene>
											<shottake></shottake>
											<lognote></lognote>
											<good></good>
											<originalvideofilename></originalvideofilename>
											<originalaudiofilename></originalaudiofilename>
										</logginginfo>
										<colorinfo>
											<lut></lut>
											<lut1></lut1>
											<asc_sop></asc_sop>
											<asc_sat></asc_sat>
											<lut2></lut2>
										</colorinfo>
										<labels>
											<label2>Teal</label2>
										</labels>
									</clipitem>
									<clipitem id="clipitem-1101">
										<masterclipid>masterclip-36</masterclipid>
										<name>Eyecandy Vertical Video Frame 2</name>
										<enabled>TRUE</enabled>
										<duration>5700</duration>
										<rate>
											<timebase>30</timebase>
											<ntsc>TRUE</ntsc>
										</rate>
										<start>63498</start>
										<end>64137</end>
										<in>1879</in>
										<out>2518</out>
										<pproTicksIn>15925778668800</pproTicksIn>
										<pproTicksOut>21341730009600</pproTicksOut>
										<alphatype>straight</alphatype>
										<file id="file-29"/>
										<filter>
											<effect>
												<name>Basic Motion</name>
												<effectid>basic</effectid>
												<effectcategory>motion</effectcategory>
												<effecttype>motion</effecttype>
												<mediatype>video</mediatype>
												<pproBypass>false</pproBypass>
												<parameter authoringApp="PremierePro">
													<parameterid>scale</parameterid>
													<name>Scale</name>
													<valuemin>0</valuemin>
													<valuemax>1000</valuemax>
													<value>102</value>
												</parameter>
												<parameter authoringApp="PremierePro">
													<parameterid>rotation</parameterid>
													<name>Rotation</name>
													<valuemin>-8640</valuemin>
													<valuemax>8640</valuemax>
													<value>0</value>
												</parameter>
												<parameter authoringApp="PremierePro">
													<parameterid>center</parameterid>
													<name>Center</name>
													<value>
														<horiz>-0.00729167</horiz>
														<vert>0</vert>
													</value>
												</parameter>
												<parameter authoringApp="PremierePro">
													<parameterid>centerOffset</parameterid>
													<name>Anchor Point</name>
													<value>
														<horiz>0</horiz>
														<vert>0</vert>
													</value>
												</parameter>
												<parameter authoringApp="PremierePro">
													<parameterid>antiflicker</parameterid>
													<name>Anti-flicker Filter</name>
													<valuemin>0.0</valuemin>
													<valuemax>1.0</valuemax>
													<value>0</value>
												</parameter>
											</effect>
										</filter>
										<logginginfo>
											<description></description>
											<scene></scene>
											<shottake></shottake>
											<lognote></lognote>
											<good></good>
											<originalvideofilename></originalvideofilename>
											<originalaudiofilename></originalaudiofilename>
										</logginginfo>
										<colorinfo>
											<lut></lut>
											<lut1></lut1>
											<asc_sop></asc_sop>
											<asc_sat></asc_sat>
											<lut2></lut2>
										</colorinfo>
										<labels>
											<label2>Teal</label2>
										</labels>
									</clipitem>
									<clipitem id="clipitem-1102">
										<masterclipid>masterclip-36</masterclipid>
										<name>Eyecandy Vertical Video Frame 2</name>
										<enabled>TRUE</enabled>
										<duration>5700</duration>
										<rate>
											<timebase>30</timebase>
											<ntsc>TRUE</ntsc>
										</rate>
										<start>64137</start>
										<end>64749</end>
										<in>2518</in>
										<out>3130</out>
										<pproTicksIn>21341730009600</pproTicksIn>
										<pproTicksOut>26528838336000</pproTicksOut>
										<alphatype>straight</alphatype>
										<file id="file-29"/>
										<filter>
											<effect>
												<name>Basic Motion</name>
												<effectid>basic</effectid>
												<effectcategory>motion</effectcategory>
												<effecttype>motion</effecttype>
												<mediatype>video</mediatype>
												<pproBypass>false</pproBypass>
												<parameter authoringApp="PremierePro">
													<parameterid>scale</parameterid>
													<name>Scale</name>
													<valuemin>0</valuemin>
													<valuemax>1000</valuemax>
													<value>102</value>
												</parameter>
												<parameter authoringApp="PremierePro">
													<parameterid>rotation</parameterid>
													<name>Rotation</name>
													<valuemin>-8640</valuemin>
													<valuemax>8640</valuemax>
													<value>0</value>
												</parameter>
												<parameter authoringApp="PremierePro">
													<parameterid>center</parameterid>
													<name>Center</name>
													<value>
														<horiz>-0.00729167</horiz>
														<vert>0</vert>
													</value>
												</parameter>
												<parameter authoringApp="PremierePro">
													<parameterid>centerOffset</parameterid>
													<name>Anchor Point</name>
													<value>
														<horiz>0</horiz>
														<vert>0</vert>
													</value>
												</parameter>
												<parameter authoringApp="PremierePro">
													<parameterid>antiflicker</parameterid>
													<name>Anti-flicker Filter</name>
													<valuemin>0.0</valuemin>
													<valuemax>1.0</valuemax>
													<value>0</value>
												</parameter>
											</effect>
										</filter>
										<logginginfo>
											<description></description>
											<scene></scene>
											<shottake></shottake>
											<lognote></lognote>
											<good></good>
											<originalvideofilename></originalvideofilename>
											<originalaudiofilename></originalaudiofilename>
										</logginginfo>
										<colorinfo>
											<lut></lut>
											<lut1></lut1>
											<asc_sop></asc_sop>
											<asc_sat></asc_sat>
											<lut2></lut2>
										</colorinfo>
										<labels>
											<label2>Teal</label2>
										</labels>
									</clipitem>
									<clipitem id="clipitem-1103">
										<masterclipid>masterclip-36</masterclipid>
										<name>Eyecandy Vertical Video Frame 2</name>
										<enabled>TRUE</enabled>
										<duration>5700</duration>
										<rate>
											<timebase>30</timebase>
											<ntsc>TRUE</ntsc>
										</rate>
										<start>64749</start>
										<end>65187</end>
										<in>3130</in>
										<out>3568</out>
										<pproTicksIn>26528838336000</pproTicksIn>
										<pproTicksOut>30241180569600</pproTicksOut>
										<alphatype>straight</alphatype>
										<file id="file-29"/>
										<filter>
											<effect>
												<name>Basic Motion</name>
												<effectid>basic</effectid>
												<effectcategory>motion</effectcategory>
												<effecttype>motion</effecttype>
												<mediatype>video</mediatype>
												<pproBypass>false</pproBypass>
												<parameter authoringApp="PremierePro">
													<parameterid>scale</parameterid>
													<name>Scale</name>
													<valuemin>0</valuemin>
													<valuemax>1000</valuemax>
													<value>102</value>
												</parameter>
												<parameter authoringApp="PremierePro">
													<parameterid>rotation</parameterid>
													<name>Rotation</name>
													<valuemin>-8640</valuemin>
													<valuemax>8640</valuemax>
													<value>0</value>
												</parameter>
												<parameter authoringApp="PremierePro">
													<parameterid>center</parameterid>
													<name>Center</name>
													<value>
														<horiz>-0.00729167</horiz>
														<vert>0</vert>
													</value>
												</parameter>
												<parameter authoringApp="PremierePro">
													<parameterid>centerOffset</parameterid>
													<name>Anchor Point</name>
													<value>
														<horiz>0</horiz>
														<vert>0</vert>
													</value>
												</parameter>
												<parameter authoringApp="PremierePro">
													<parameterid>antiflicker</parameterid>
													<name>Anti-flicker Filter</name>
													<valuemin>0.0</valuemin>
													<valuemax>1.0</valuemax>
													<value>0</value>
												</parameter>
											</effect>
										</filter>
										<logginginfo>
											<description></description>
											<scene></scene>
											<shottake></shottake>
											<lognote></lognote>
											<good></good>
											<originalvideofilename></originalvideofilename>
											<originalaudiofilename></originalaudiofilename>
										</logginginfo>
										<colorinfo>
											<lut></lut>
											<lut1></lut1>
											<asc_sop></asc_sop>
											<asc_sat></asc_sat>
											<lut2></lut2>
										</colorinfo>
										<labels>
											<label2>Teal</label2>
										</labels>
									</clipitem>
									<clipitem id="clipitem-1104">
										<masterclipid>masterclip-136</masterclipid>
										<name>(sugarandsparrowco)_B4c64wKpARD_IG.mp4</name>
										<enabled>TRUE</enabled>
										<duration>1792</duration>
										<rate>
											<timebase>30</timebase>
											<ntsc>TRUE</ntsc>
										</rate>
										<start>67034</start>
										<end>68601</end>
										<in>0</in>
										<out>1567</out>
										<pproTicksIn>0</pproTicksIn>
										<pproTicksOut>13281370502400</pproTicksOut>
										<alphatype>none</alphatype>
										<file id="file-117"/>
										<logginginfo>
											<description></description>
											<scene></scene>
											<shottake></shottake>
											<lognote></lognote>
											<good></good>
											<originalvideofilename></originalvideofilename>
											<originalaudiofilename></originalaudiofilename>
										</logginginfo>
										<colorinfo>
											<lut></lut>
											<lut1></lut1>
											<asc_sop></asc_sop>
											<asc_sat></asc_sat>
											<lut2></lut2>
										</colorinfo>
										<labels>
											<label2>Iris</label2>
										</labels>
									</clipitem>
									<clipitem id="clipitem-1105">
										<masterclipid>masterclip-65</masterclipid>
										<name># Eyecandy Vertical Video Frame 3</name>
										<enabled>TRUE</enabled>
										<duration>5700</duration>
										<rate>
											<timebase>30</timebase>
											<ntsc>TRUE</ntsc>
										</rate>
										<start>68601</start>
										<end>69193</end>
										<in>105</in>
										<out>697</out>
										<pproTicksIn>889945056000</pproTicksIn>
										<pproTicksOut>5907540038400</pproTicksOut>
										<alphatype>straight</alphatype>
										<file id="file-54"/>
										<logginginfo>
											<description></description>
											<scene></scene>
											<shottake></shottake>
											<lognote></lognote>
											<good></good>
											<originalvideofilename></originalvideofilename>
											<originalaudiofilename></originalaudiofilename>
										</logginginfo>
										<colorinfo>
											<lut></lut>
											<lut1></lut1>
											<asc_sop></asc_sop>
											<asc_sat></asc_sat>
											<lut2></lut2>
										</colorinfo>
										<labels>
											<label2>Teal</label2>
										</labels>
									</clipitem>
									<clipitem id="clipitem-1106">
										<masterclipid>masterclip-65</masterclipid>
										<name># Eyecandy Vertical Video Frame 3</name>
										<enabled>TRUE</enabled>
										<duration>5700</duration>
										<rate>
											<timebase>30</timebase>
											<ntsc>TRUE</ntsc>
										</rate>
										<start>69193</start>
										<end>69814</end>
										<in>697</in>
										<out>1318</out>
										<pproTicksIn>5907540038400</pproTicksIn>
										<pproTicksOut>11170929369600</pproTicksOut>
										<alphatype>straight</alphatype>
										<file id="file-54"/>
										<logginginfo>
											<description></description>
											<scene></scene>
											<shottake></shottake>
											<lognote></lognote>
											<good></good>
											<originalvideofilename></originalvideofilename>
											<originalaudiofilename></originalaudiofilename>
										</logginginfo>
										<colorinfo>
											<lut></lut>
											<lut1></lut1>
											<asc_sop></asc_sop>
											<asc_sat></asc_sat>
											<lut2></lut2>
										</colorinfo>
										<labels>
											<label2>Teal</label2>
										</labels>
									</clipitem>
									<clipitem id="clipitem-1107">
										<masterclipid>masterclip-65</masterclipid>
										<name># Eyecandy Vertical Video Frame 3</name>
										<enabled>TRUE</enabled>
										<duration>5700</duration>
										<rate>
											<timebase>30</timebase>
											<ntsc>TRUE</ntsc>
										</rate>
										<start>69814</start>
										<end>70409</end>
										<in>1318</in>
										<out>1913</out>
										<pproTicksIn>11170929369600</pproTicksIn>
										<pproTicksOut>16213951353600</pproTicksOut>
										<alphatype>straight</alphatype>
										<file id="file-54"/>
										<logginginfo>
											<description></description>
											<scene></scene>
											<shottake></shottake>
											<lognote></lognote>
											<good></good>
											<originalvideofilename></originalvideofilename>
											<originalaudiofilename></originalaudiofilename>
										</logginginfo>
										<colorinfo>
											<lut></lut>
											<lut1></lut1>
											<asc_sop></asc_sop>
											<asc_sat></asc_sat>
											<lut2></lut2>
										</colorinfo>
										<labels>
											<label2>Teal</label2>
										</labels>
									</clipitem>
									<clipitem id="clipitem-1108">
										<masterclipid>masterclip-65</masterclipid>
										<name># Eyecandy Vertical Video Frame 3</name>
										<enabled>TRUE</enabled>
										<duration>5700</duration>
										<rate>
											<timebase>30</timebase>
											<ntsc>TRUE</ntsc>
										</rate>
										<start>70409</start>
										<end>71248</end>
										<in>1913</in>
										<out>2752</out>
										<pproTicksIn>16213951353600</pproTicksIn>
										<pproTicksOut>23325036134400</pproTicksOut>
										<alphatype>straight</alphatype>
										<file id="file-54"/>
										<logginginfo>
											<description></description>
											<scene></scene>
											<shottake></shottake>
											<lognote></lognote>
											<good></good>
											<originalvideofilename></originalvideofilename>
											<originalaudiofilename></originalaudiofilename>
										</logginginfo>
										<colorinfo>
											<lut></lut>
											<lut1></lut1>
											<asc_sop></asc_sop>
											<asc_sat></asc_sat>
											<lut2></lut2>
										</colorinfo>
										<labels>
											<label2>Teal</label2>
										</labels>
									</clipitem>
									<clipitem id="clipitem-1109">
										<masterclipid>masterclip-65</masterclipid>
										<name># Eyecandy Vertical Video Frame 3</name>
										<enabled>TRUE</enabled>
										<duration>5700</duration>
										<rate>
											<timebase>30</timebase>
											<ntsc>TRUE</ntsc>
										</rate>
										<start>71248</start>
										<end>71961</end>
										<in>2752</in>
										<out>3465</out>
										<pproTicksIn>23325036134400</pproTicksIn>
										<pproTicksOut>29368186848000</pproTicksOut>
										<alphatype>straight</alphatype>
										<file id="file-54"/>
										<logginginfo>
											<description></description>
											<scene></scene>
											<shottake></shottake>
											<lognote></lognote>
											<good></good>
											<originalvideofilename></originalvideofilename>
											<originalaudiofilename></originalaudiofilename>
										</logginginfo>
										<colorinfo>
											<lut></lut>
											<lut1></lut1>
											<asc_sop></asc_sop>
											<asc_sat></asc_sat>
											<lut2></lut2>
										</colorinfo>
										<labels>
											<label2>Teal</label2>
										</labels>
									</clipitem>
									<enabled>TRUE</enabled>
									<locked>FALSE</locked>
								</track>
								<track TL.SQTrackShy="0" TL.SQTrackExpandedHeight="25" TL.SQTrackExpanded="0" MZ.TrackTargeted="0">
									<clipitem id="clipitem-1110">
										<masterclipid>masterclip-14</masterclipid>
										<name>Eyecandy Vertical Video Frame 1</name>
										<enabled>TRUE</enabled>
										<duration>5700</duration>
										<rate>
											<timebase>30</timebase>
											<ntsc>TRUE</ntsc>
										</rate>
										<start>7670</start>
										<end>8364</end>
										<in>80</in>
										<out>774</out>
										<pproTicksIn>678053376000</pproTicksIn>
										<pproTicksOut>6560166412800</pproTicksOut>
										<alphatype>straight</alphatype>
										<file id="file-12"/>
										<logginginfo>
											<description></description>
											<scene></scene>
											<shottake></shottake>
											<lognote></lognote>
											<good></good>
											<originalvideofilename></originalvideofilename>
											<originalaudiofilename></originalaudiofilename>
										</logginginfo>
										<colorinfo>
											<lut></lut>
											<lut1></lut1>
											<asc_sop></asc_sop>
											<asc_sat></asc_sat>
											<lut2></lut2>
										</colorinfo>
										<labels>
											<label2>Teal</label2>
										</labels>
									</clipitem>
									<clipitem id="clipitem-1111">
										<masterclipid>masterclip-14</masterclipid>
										<name>Eyecandy Vertical Video Frame 1</name>
										<enabled>TRUE</enabled>
										<duration>5700</duration>
										<rate>
											<timebase>30</timebase>
											<ntsc>TRUE</ntsc>
										</rate>
										<start>8364</start>
										<end>8972</end>
										<in>774</in>
										<out>1382</out>
										<pproTicksIn>6560166412800</pproTicksIn>
										<pproTicksOut>11713372070400</pproTicksOut>
										<alphatype>straight</alphatype>
										<file id="file-12"/>
										<logginginfo>
											<description></description>
											<scene></scene>
											<shottake></shottake>
											<lognote></lognote>
											<good></good>
											<originalvideofilename></originalvideofilename>
											<originalaudiofilename></originalaudiofilename>
										</logginginfo>
										<colorinfo>
											<lut></lut>
											<lut1></lut1>
											<asc_sop></asc_sop>
											<asc_sat></asc_sat>
											<lut2></lut2>
										</colorinfo>
										<labels>
											<label2>Teal</label2>
										</labels>
									</clipitem>
									<clipitem id="clipitem-1112">
										<masterclipid>masterclip-14</masterclipid>
										<name>Eyecandy Vertical Video Frame 1</name>
										<enabled>TRUE</enabled>
										<duration>5700</duration>
										<rate>
											<timebase>30</timebase>
											<ntsc>TRUE</ntsc>
										</rate>
										<start>8972</start>
										<end>9596</end>
										<in>1382</in>
										<out>2006</out>
										<pproTicksIn>11713372070400</pproTicksIn>
										<pproTicksOut>17002188403200</pproTicksOut>
										<alphatype>straight</alphatype>
										<file id="file-12"/>
										<logginginfo>
											<description></description>
											<scene></scene>
											<shottake></shottake>
											<lognote></lognote>
											<good></good>
											<originalvideofilename></originalvideofilename>
											<originalaudiofilename></originalaudiofilename>
										</logginginfo>
										<colorinfo>
											<lut></lut>
											<lut1></lut1>
											<asc_sop></asc_sop>
											<asc_sat></asc_sat>
											<lut2></lut2>
										</colorinfo>
										<labels>
											<label2>Teal</label2>
										</labels>
									</clipitem>
									<clipitem id="clipitem-1113">
										<masterclipid>masterclip-14</masterclipid>
										<name>Eyecandy Vertical Video Frame 1</name>
										<enabled>TRUE</enabled>
										<duration>5700</duration>
										<rate>
											<timebase>30</timebase>
											<ntsc>TRUE</ntsc>
										</rate>
										<start>9596</start>
										<end>10048</end>
										<in>2006</in>
										<out>2458</out>
										<pproTicksIn>17002188403200</pproTicksIn>
										<pproTicksOut>20833189977600</pproTicksOut>
										<alphatype>straight</alphatype>
										<file id="file-12"/>
										<logginginfo>
											<description></description>
											<scene></scene>
											<shottake></shottake>
											<lognote></lognote>
											<good></good>
											<originalvideofilename></originalvideofilename>
											<originalaudiofilename></originalaudiofilename>
										</logginginfo>
										<colorinfo>
											<lut></lut>
											<lut1></lut1>
											<asc_sop></asc_sop>
											<asc_sat></asc_sat>
											<lut2></lut2>
										</colorinfo>
										<labels>
											<label2>Teal</label2>
										</labels>
									</clipitem>
									<clipitem id="clipitem-1114">
										<masterclipid>masterclip-201</masterclipid>
										<name>succulentbite</name>
										<enabled>TRUE</enabled>
										<duration>5844</duration>
										<rate>
											<timebase>30</timebase>
											<ntsc>TRUE</ntsc>
										</rate>
										<start>12443</start>
										<end>15071</end>
										<in>0</in>
										<out>2628</out>
										<pproTicksIn>0</pproTicksIn>
										<pproTicksOut>22274053401600</pproTicksOut>
										<alphatype>straight</alphatype>
										<file id="file-174"/>
										<logginginfo>
											<description></description>
											<scene></scene>
											<shottake></shottake>
											<lognote></lognote>
											<good></good>
											<originalvideofilename></originalvideofilename>
											<originalaudiofilename></originalaudiofilename>
										</logginginfo>
										<colorinfo>
											<lut></lut>
											<lut1></lut1>
											<asc_sop></asc_sop>
											<asc_sat></asc_sat>
											<lut2></lut2>
										</colorinfo>
										<labels>
											<label2>Rose</label2>
										</labels>
									</clipitem>
									<clipitem id="clipitem-1115">
										<masterclipid>masterclip-137</masterclipid>
										<name>sugarandsparrowco</name>
										<enabled>TRUE</enabled>
										<duration>5844</duration>
										<rate>
											<timebase>30</timebase>
											<ntsc>TRUE</ntsc>
										</rate>
										<start>67034</start>
										<end>68601</end>
										<in>0</in>
										<out>1567</out>
										<pproTicksIn>0</pproTicksIn>
										<pproTicksOut>13281370502400</pproTicksOut>
										<alphatype>straight</alphatype>
										<file id="file-118"/>
										<logginginfo>
											<description></description>
											<scene></scene>
											<shottake></shottake>
											<lognote></lognote>
											<good></good>
											<originalvideofilename></originalvideofilename>
											<originalaudiofilename></originalaudiofilename>
										</logginginfo>
										<colorinfo>
											<lut></lut>
											<lut1></lut1>
											<asc_sop></asc_sop>
											<asc_sat></asc_sat>
											<lut2></lut2>
										</colorinfo>
										<labels>
											<label2>Rose</label2>
										</labels>
									</clipitem>
									<enabled>TRUE</enabled>
									<locked>FALSE</locked>
								</track>
							</video>
							<audio>
								<numOutputChannels>2</numOutputChannels>
								<format>
									<samplecharacteristics>
										<depth>16</depth>
										<samplerate>48000</samplerate>
									</samplecharacteristics>
								</format>
								<outputs>
									<group>
										<index>1</index>
										<numchannels>1</numchannels>
										<downmix>0</downmix>
										<channel>
											<index>1</index>
										</channel>
									</group>
									<group>
										<index>2</index>
										<numchannels>1</numchannels>
										<downmix>0</downmix>
										<channel>
											<index>2</index>
										</channel>
									</group>
								</outputs>
								<track TL.SQTrackAudioKeyframeStyle="0" TL.SQTrackShy="0" TL.SQTrackExpandedHeight="25" TL.SQTrackExpanded="0" MZ.TrackTargeted="1" PannerCurrentValue="0.5" PannerIsInverted="true" PannerStartKeyframe="-91445760000000000,0.5,0,0,0,0,0,0" PannerName="Balance" currentExplodedTrackIndex="0" totalExplodedTrackCount="2" premiereTrackType="Stereo">
									<clipitem id="clipitem-1116" premiereChannelType="stereo">
										<masterclipid>masterclip-171</masterclipid>
										<name>ES_Project Bulow - Lukas Got Lucky.mp3</name>
										<enabled>TRUE</enabled>
										<duration>4026</duration>
										<rate>
											<timebase>30</timebase>
											<ntsc>TRUE</ntsc>
										</rate>
										<start>0</start>
										<end>1749</end>
										<in>0</in>
										<out>1749</out>
										<pproTicksIn>0</pproTicksIn>
										<pproTicksOut>14823941932800</pproTicksOut>
										<file id="file-148"/>
										<sourcetrack>
											<mediatype>audio</mediatype>
											<trackindex>1</trackindex>
										</sourcetrack>
										<link>
											<linkclipref>clipitem-1116</linkclipref>
											<mediatype>audio</mediatype>
											<trackindex>1</trackindex>
											<clipindex>1</clipindex>
											<groupindex>1</groupindex>
										</link>
										<link>
											<linkclipref>clipitem-1144</linkclipref>
											<mediatype>audio</mediatype>
											<trackindex>2</trackindex>
											<clipindex>1</clipindex>
											<groupindex>1</groupindex>
										</link>
										<logginginfo>
											<description></description>
											<scene></scene>
											<shottake></shottake>
											<lognote></lognote>
											<good></good>
											<originalvideofilename></originalvideofilename>
											<originalaudiofilename></originalaudiofilename>
										</logginginfo>
										<colorinfo>
											<lut></lut>
											<lut1></lut1>
											<asc_sop></asc_sop>
											<asc_sat></asc_sat>
											<lut2></lut2>
										</colorinfo>
										<labels>
											<label2>Caribbean</label2>
										</labels>
									</clipitem>
									<clipitem id="clipitem-1117" premiereChannelType="stereo">
										<masterclipid>masterclip-177</masterclipid>
										<name>ES_Rhaeti - Lukas Got Lucky.mp3</name>
										<enabled>TRUE</enabled>
										<duration>6889</duration>
										<rate>
											<timebase>30</timebase>
											<ntsc>TRUE</ntsc>
										</rate>
										<start>1749</start>
										<end>5030</end>
										<in>0</in>
										<out>3281</out>
										<pproTicksIn>0</pproTicksIn>
										<pproTicksOut>27808664083200</pproTicksOut>
										<file id="file-153"/>
										<sourcetrack>
											<mediatype>audio</mediatype>
											<trackindex>1</trackindex>
										</sourcetrack>
										<link>
											<linkclipref>clipitem-1117</linkclipref>
											<mediatype>audio</mediatype>
											<trackindex>1</trackindex>
											<clipindex>2</clipindex>
											<groupindex>1</groupindex>
										</link>
										<link>
											<linkclipref>clipitem-1145</linkclipref>
											<mediatype>audio</mediatype>
											<trackindex>2</trackindex>
											<clipindex>2</clipindex>
											<groupindex>1</groupindex>
										</link>
										<logginginfo>
											<description></description>
											<scene></scene>
											<shottake></shottake>
											<lognote></lognote>
											<good></good>
											<originalvideofilename></originalvideofilename>
											<originalaudiofilename></originalaudiofilename>
										</logginginfo>
										<colorinfo>
											<lut></lut>
											<lut1></lut1>
											<asc_sop></asc_sop>
											<asc_sat></asc_sat>
											<lut2></lut2>
										</colorinfo>
										<labels>
											<label2>Caribbean</label2>
										</labels>
									</clipitem>
									<clipitem id="clipitem-1118" premiereChannelType="stereo">
										<masterclipid>masterclip-151</masterclipid>
										<name>ES_Delicate - Ben Elson.mp3</name>
										<enabled>TRUE</enabled>
										<duration>5648</duration>
										<rate>
											<timebase>30</timebase>
											<ntsc>TRUE</ntsc>
										</rate>
										<start>5030</start>
										<end>7670</end>
										<in>0</in>
										<out>2640</out>
										<pproTicksIn>0</pproTicksIn>
										<pproTicksOut>22375761408000</pproTicksOut>
										<file id="file-130"/>
										<sourcetrack>
											<mediatype>audio</mediatype>
											<trackindex>1</trackindex>
										</sourcetrack>
										<link>
											<linkclipref>clipitem-1118</linkclipref>
											<mediatype>audio</mediatype>
											<trackindex>1</trackindex>
											<clipindex>3</clipindex>
											<groupindex>1</groupindex>
										</link>
										<link>
											<linkclipref>clipitem-1146</linkclipref>
											<mediatype>audio</mediatype>
											<trackindex>2</trackindex>
											<clipindex>3</clipindex>
											<groupindex>1</groupindex>
										</link>
										<logginginfo>
											<description></description>
											<scene></scene>
											<shottake></shottake>
											<lognote></lognote>
											<good></good>
											<originalvideofilename></originalvideofilename>
											<originalaudiofilename></originalaudiofilename>
										</logginginfo>
										<colorinfo>
											<lut></lut>
											<lut1></lut1>
											<asc_sop></asc_sop>
											<asc_sat></asc_sat>
											<lut2></lut2>
										</colorinfo>
										<labels>
											<label2>Caribbean</label2>
										</labels>
									</clipitem>
									<clipitem id="clipitem-1119" premiereChannelType="stereo">
										<masterclipid>masterclip-157</masterclipid>
										<name>ES_Faster Car (Sped Up Version) (Instrumental Version) - Loving Caliber.wav</name>
										<enabled>TRUE</enabled>
										<duration>5769</duration>
										<rate>
											<timebase>30</timebase>
											<ntsc>TRUE</ntsc>
										</rate>
										<start>7670</start>
										<end>10048</end>
										<in>0</in>
										<out>2378</out>
										<pproTicksIn>0</pproTicksIn>
										<pproTicksOut>20155136601600</pproTicksOut>
										<file id="file-135"/>
										<sourcetrack>
											<mediatype>audio</mediatype>
											<trackindex>1</trackindex>
										</sourcetrack>
										<link>
											<linkclipref>clipitem-1119</linkclipref>
											<mediatype>audio</mediatype>
											<trackindex>1</trackindex>
											<clipindex>4</clipindex>
											<groupindex>1</groupindex>
										</link>
										<link>
											<linkclipref>clipitem-1147</linkclipref>
											<mediatype>audio</mediatype>
											<trackindex>2</trackindex>
											<clipindex>4</clipindex>
											<groupindex>1</groupindex>
										</link>
										<logginginfo>
											<description></description>
											<scene></scene>
											<shottake></shottake>
											<lognote></lognote>
											<good></good>
											<originalvideofilename></originalvideofilename>
											<originalaudiofilename></originalaudiofilename>
										</logginginfo>
										<colorinfo>
											<lut></lut>
											<lut1></lut1>
											<asc_sop></asc_sop>
											<asc_sat></asc_sat>
											<lut2></lut2>
										</colorinfo>
										<labels>
											<label2>Caribbean</label2>
										</labels>
									</clipitem>
									<clipitem id="clipitem-1120" premiereChannelType="stereo">
										<masterclipid>masterclip-186</masterclipid>
										<name>ES_Raspberry Road - Colton Walls.mp3</name>
										<enabled>TRUE</enabled>
										<duration>3633</duration>
										<rate>
											<timebase>30</timebase>
											<ntsc>TRUE</ntsc>
										</rate>
										<start>10048</start>
										<end>12443</end>
										<in>0</in>
										<out>2395</out>
										<pproTicksIn>0</pproTicksIn>
										<pproTicksOut>20299222944000</pproTicksOut>
										<file id="file-161"/>
										<sourcetrack>
											<mediatype>audio</mediatype>
											<trackindex>1</trackindex>
										</sourcetrack>
										<link>
											<linkclipref>clipitem-1120</linkclipref>
											<mediatype>audio</mediatype>
											<trackindex>1</trackindex>
											<clipindex>5</clipindex>
											<groupindex>1</groupindex>
										</link>
										<link>
											<linkclipref>clipitem-1148</linkclipref>
											<mediatype>audio</mediatype>
											<trackindex>2</trackindex>
											<clipindex>5</clipindex>
											<groupindex>1</groupindex>
										</link>
										<logginginfo>
											<description></description>
											<scene></scene>
											<shottake></shottake>
											<lognote></lognote>
											<good></good>
											<originalvideofilename></originalvideofilename>
											<originalaudiofilename></originalaudiofilename>
										</logginginfo>
										<colorinfo>
											<lut></lut>
											<lut1></lut1>
											<asc_sop></asc_sop>
											<asc_sat></asc_sat>
											<lut2></lut2>
										</colorinfo>
										<labels>
											<label2>Forest</label2>
										</labels>
									</clipitem>
									<clipitem id="clipitem-1121" premiereChannelType="stereo">
										<masterclipid>masterclip-202</masterclipid>
										<name>ES_Another Wednesday Night - OTE.mp3</name>
										<enabled>TRUE</enabled>
										<duration>7005</duration>
										<rate>
											<timebase>30</timebase>
											<ntsc>TRUE</ntsc>
										</rate>
										<start>12443</start>
										<end>15071</end>
										<in>0</in>
										<out>2628</out>
										<pproTicksIn>0</pproTicksIn>
										<pproTicksOut>22274053401600</pproTicksOut>
										<file id="file-175"/>
										<sourcetrack>
											<mediatype>audio</mediatype>
											<trackindex>1</trackindex>
										</sourcetrack>
										<link>
											<linkclipref>clipitem-1121</linkclipref>
											<mediatype>audio</mediatype>
											<trackindex>1</trackindex>
											<clipindex>6</clipindex>
											<groupindex>1</groupindex>
										</link>
										<link>
											<linkclipref>clipitem-1149</linkclipref>
											<mediatype>audio</mediatype>
											<trackindex>2</trackindex>
											<clipindex>6</clipindex>
											<groupindex>1</groupindex>
										</link>
										<logginginfo>
											<description></description>
											<scene></scene>
											<shottake></shottake>
											<lognote></lognote>
											<good></good>
											<originalvideofilename></originalvideofilename>
											<originalaudiofilename></originalaudiofilename>
										</logginginfo>
										<colorinfo>
											<lut></lut>
											<lut1></lut1>
											<asc_sop></asc_sop>
											<asc_sat></asc_sat>
											<lut2></lut2>
										</colorinfo>
										<labels>
											<label2>Caribbean</label2>
										</labels>
									</clipitem>
									<clipitem id="clipitem-1122" premiereChannelType="stereo">
										<masterclipid>masterclip-210</masterclipid>
										<name>ES_new in the neighbourhood (Instrumental Version) - Ingrid Witt.mp3</name>
										<enabled>TRUE</enabled>
										<duration>5289</duration>
										<rate>
											<timebase>30</timebase>
											<ntsc>TRUE</ntsc>
										</rate>
										<start>15071</start>
										<end>18220</end>
										<in>0</in>
										<out>3149</out>
										<pproTicksIn>0</pproTicksIn>
										<pproTicksOut>26689876012800</pproTicksOut>
										<file id="file-181"/>
										<sourcetrack>
											<mediatype>audio</mediatype>
											<trackindex>1</trackindex>
										</sourcetrack>
										<link>
											<linkclipref>clipitem-1122</linkclipref>
											<mediatype>audio</mediatype>
											<trackindex>1</trackindex>
											<clipindex>7</clipindex>
											<groupindex>1</groupindex>
										</link>
										<link>
											<linkclipref>clipitem-1150</linkclipref>
											<mediatype>audio</mediatype>
											<trackindex>2</trackindex>
											<clipindex>7</clipindex>
											<groupindex>1</groupindex>
										</link>
										<logginginfo>
											<description></description>
											<scene></scene>
											<shottake></shottake>
											<lognote></lognote>
											<good></good>
											<originalvideofilename></originalvideofilename>
											<originalaudiofilename></originalaudiofilename>
										</logginginfo>
										<colorinfo>
											<lut></lut>
											<lut1></lut1>
											<asc_sop></asc_sop>
											<asc_sat></asc_sat>
											<lut2></lut2>
										</colorinfo>
										<labels>
											<label2>Caribbean</label2>
										</labels>
									</clipitem>
									<clipitem id="clipitem-1123" premiereChannelType="stereo">
										<masterclipid>masterclip-217</masterclipid>
										<name>ES_Misty K-pop Night - Rymdklang Soundtracks.mp3</name>
										<enabled>TRUE</enabled>
										<duration>7358</duration>
										<rate>
											<timebase>30</timebase>
											<ntsc>TRUE</ntsc>
										</rate>
										<start>18220</start>
										<end>20236</end>
										<in>0</in>
										<out>2016</out>
										<pproTicksIn>0</pproTicksIn>
										<pproTicksOut>17086945075200</pproTicksOut>
										<file id="file-187"/>
										<sourcetrack>
											<mediatype>audio</mediatype>
											<trackindex>1</trackindex>
										</sourcetrack>
										<link>
											<linkclipref>clipitem-1123</linkclipref>
											<mediatype>audio</mediatype>
											<trackindex>1</trackindex>
											<clipindex>8</clipindex>
											<groupindex>1</groupindex>
										</link>
										<link>
											<linkclipref>clipitem-1151</linkclipref>
											<mediatype>audio</mediatype>
											<trackindex>2</trackindex>
											<clipindex>8</clipindex>
											<groupindex>1</groupindex>
										</link>
										<logginginfo>
											<description></description>
											<scene></scene>
											<shottake></shottake>
											<lognote></lognote>
											<good></good>
											<originalvideofilename></originalvideofilename>
											<originalaudiofilename></originalaudiofilename>
										</logginginfo>
										<colorinfo>
											<lut></lut>
											<lut1></lut1>
											<asc_sop></asc_sop>
											<asc_sat></asc_sat>
											<lut2></lut2>
										</colorinfo>
										<labels>
											<label2>Caribbean</label2>
										</labels>
									</clipitem>
									<clipitem id="clipitem-1124" premiereChannelType="stereo">
										<masterclipid>masterclip-223</masterclipid>
										<name>ES_Sunset Fever - Forever Sunset.mp3</name>
										<enabled>TRUE</enabled>
										<duration>6246</duration>
										<rate>
											<timebase>30</timebase>
											<ntsc>TRUE</ntsc>
										</rate>
										<start>20236</start>
										<end>22852</end>
										<in>0</in>
										<out>2616</out>
										<pproTicksIn>0</pproTicksIn>
										<pproTicksOut>22172345395200</pproTicksOut>
										<file id="file-192"/>
										<sourcetrack>
											<mediatype>audio</mediatype>
											<trackindex>1</trackindex>
										</sourcetrack>
										<link>
											<linkclipref>clipitem-1124</linkclipref>
											<mediatype>audio</mediatype>
											<trackindex>1</trackindex>
											<clipindex>9</clipindex>
											<groupindex>1</groupindex>
										</link>
										<link>
											<linkclipref>clipitem-1152</linkclipref>
											<mediatype>audio</mediatype>
											<trackindex>2</trackindex>
											<clipindex>9</clipindex>
											<groupindex>1</groupindex>
										</link>
										<logginginfo>
											<description></description>
											<scene></scene>
											<shottake></shottake>
											<lognote></lognote>
											<good></good>
											<originalvideofilename></originalvideofilename>
											<originalaudiofilename></originalaudiofilename>
										</logginginfo>
										<colorinfo>
											<lut></lut>
											<lut1></lut1>
											<asc_sop></asc_sop>
											<asc_sat></asc_sat>
											<lut2></lut2>
										</colorinfo>
										<labels>
											<label2>Caribbean</label2>
										</labels>
									</clipitem>
									<clipitem id="clipitem-1125" premiereChannelType="stereo">
										<masterclipid>masterclip-230</masterclipid>
										<name>ES_Party On - John Runefelt.mp3</name>
										<enabled>TRUE</enabled>
										<duration>6370</duration>
										<rate>
											<timebase>30</timebase>
											<ntsc>TRUE</ntsc>
										</rate>
										<start>22852</start>
										<end>25301</end>
										<in>592</in>
										<out>3041</out>
										<pproTicksIn>5017594982400</pproTicksIn>
										<pproTicksOut>25774503955200</pproTicksOut>
										<file id="file-198"/>
										<sourcetrack>
											<mediatype>audio</mediatype>
											<trackindex>1</trackindex>
										</sourcetrack>
										<link>
											<linkclipref>clipitem-1125</linkclipref>
											<mediatype>audio</mediatype>
											<trackindex>1</trackindex>
											<clipindex>10</clipindex>
											<groupindex>1</groupindex>
										</link>
										<link>
											<linkclipref>clipitem-1153</linkclipref>
											<mediatype>audio</mediatype>
											<trackindex>2</trackindex>
											<clipindex>10</clipindex>
											<groupindex>1</groupindex>
										</link>
										<logginginfo>
											<description></description>
											<scene></scene>
											<shottake></shottake>
											<lognote></lognote>
											<good></good>
											<originalvideofilename></originalvideofilename>
											<originalaudiofilename></originalaudiofilename>
										</logginginfo>
										<colorinfo>
											<lut></lut>
											<lut1></lut1>
											<asc_sop></asc_sop>
											<asc_sat></asc_sat>
											<lut2></lut2>
										</colorinfo>
										<labels>
											<label2>Caribbean</label2>
										</labels>
									</clipitem>
									<clipitem id="clipitem-1126" premiereChannelType="stereo">
										<masterclipid>masterclip-236</masterclipid>
										<name>ES_Knowledge Is Power - Matt Large.mp3</name>
										<enabled>TRUE</enabled>
										<duration>6362</duration>
										<rate>
											<timebase>30</timebase>
											<ntsc>TRUE</ntsc>
										</rate>
										<start>25301</start>
										<end>28019</end>
										<in>0</in>
										<out>2718</out>
										<pproTicksIn>0</pproTicksIn>
										<pproTicksOut>23036863449600</pproTicksOut>
										<file id="file-203"/>
										<sourcetrack>
											<mediatype>audio</mediatype>
											<trackindex>1</trackindex>
										</sourcetrack>
										<link>
											<linkclipref>clipitem-1126</linkclipref>
											<mediatype>audio</mediatype>
											<trackindex>1</trackindex>
											<clipindex>11</clipindex>
											<groupindex>1</groupindex>
										</link>
										<link>
											<linkclipref>clipitem-1154</linkclipref>
											<mediatype>audio</mediatype>
											<trackindex>2</trackindex>
											<clipindex>11</clipindex>
											<groupindex>1</groupindex>
										</link>
										<logginginfo>
											<description></description>
											<scene></scene>
											<shottake></shottake>
											<lognote></lognote>
											<good></good>
											<originalvideofilename></originalvideofilename>
											<originalaudiofilename></originalaudiofilename>
										</logginginfo>
										<colorinfo>
											<lut></lut>
											<lut1></lut1>
											<asc_sop></asc_sop>
											<asc_sat></asc_sat>
											<lut2></lut2>
										</colorinfo>
										<labels>
											<label2>Forest</label2>
										</labels>
									</clipitem>
									<clipitem id="clipitem-1127" premiereChannelType="stereo">
										<masterclipid>masterclip-242</masterclipid>
										<name>ES_Bewitched (Instrumental Version) - Zorro.mp3</name>
										<enabled>TRUE</enabled>
										<duration>5137</duration>
										<rate>
											<timebase>30</timebase>
											<ntsc>TRUE</ntsc>
										</rate>
										<start>28019</start>
										<end>30587</end>
										<in>0</in>
										<out>2568</out>
										<pproTicksIn>0</pproTicksIn>
										<pproTicksOut>21765513369600</pproTicksOut>
										<file id="file-208"/>
										<sourcetrack>
											<mediatype>audio</mediatype>
											<trackindex>1</trackindex>
										</sourcetrack>
										<link>
											<linkclipref>clipitem-1127</linkclipref>
											<mediatype>audio</mediatype>
											<trackindex>1</trackindex>
											<clipindex>12</clipindex>
											<groupindex>1</groupindex>
										</link>
										<link>
											<linkclipref>clipitem-1155</linkclipref>
											<mediatype>audio</mediatype>
											<trackindex>2</trackindex>
											<clipindex>12</clipindex>
											<groupindex>1</groupindex>
										</link>
										<logginginfo>
											<description></description>
											<scene></scene>
											<shottake></shottake>
											<lognote></lognote>
											<good></good>
											<originalvideofilename></originalvideofilename>
											<originalaudiofilename></originalaudiofilename>
										</logginginfo>
										<colorinfo>
											<lut></lut>
											<lut1></lut1>
											<asc_sop></asc_sop>
											<asc_sat></asc_sat>
											<lut2></lut2>
										</colorinfo>
										<labels>
											<label2>Caribbean</label2>
										</labels>
									</clipitem>
									<clipitem id="clipitem-1128" premiereChannelType="stereo">
										<masterclipid>masterclip-259</masterclipid>
										<name>ES_Fantasy Fragments - Ryan James Carr.mp3</name>
										<enabled>TRUE</enabled>
										<duration>4643</duration>
										<rate>
											<timebase>30</timebase>
											<ntsc>TRUE</ntsc>
										</rate>
										<start>30587</start>
										<end>32983</end>
										<in>0</in>
										<out>2396</out>
										<pproTicksIn>0</pproTicksIn>
										<pproTicksOut>20307698611200</pproTicksOut>
										<file id="file-224"/>
										<sourcetrack>
											<mediatype>audio</mediatype>
											<trackindex>1</trackindex>
										</sourcetrack>
										<link>
											<linkclipref>clipitem-1128</linkclipref>
											<mediatype>audio</mediatype>
											<trackindex>1</trackindex>
											<clipindex>13</clipindex>
											<groupindex>1</groupindex>
										</link>
										<link>
											<linkclipref>clipitem-1156</linkclipref>
											<mediatype>audio</mediatype>
											<trackindex>2</trackindex>
											<clipindex>13</clipindex>
											<groupindex>1</groupindex>
										</link>
										<logginginfo>
											<description></description>
											<scene></scene>
											<shottake></shottake>
											<lognote></lognote>
											<good></good>
											<originalvideofilename></originalvideofilename>
											<originalaudiofilename></originalaudiofilename>
										</logginginfo>
										<colorinfo>
											<lut></lut>
											<lut1></lut1>
											<asc_sop></asc_sop>
											<asc_sat></asc_sat>
											<lut2></lut2>
										</colorinfo>
										<labels>
											<label2>Caribbean</label2>
										</labels>
									</clipitem>
									<clipitem id="clipitem-1129" premiereChannelType="stereo">
										<masterclipid>masterclip-265</masterclipid>
										<name>ES_save yourself (Instrumental Version) - King Sis.mp3</name>
										<enabled>TRUE</enabled>
										<duration>5659</duration>
										<rate>
											<timebase>30</timebase>
											<ntsc>TRUE</ntsc>
										</rate>
										<start>32983</start>
										<end>35729</end>
										<in>0</in>
										<out>2746</out>
										<pproTicksIn>0</pproTicksIn>
										<pproTicksOut>23274182131200</pproTicksOut>
										<file id="file-229"/>
										<sourcetrack>
											<mediatype>audio</mediatype>
											<trackindex>1</trackindex>
										</sourcetrack>
										<link>
											<linkclipref>clipitem-1129</linkclipref>
											<mediatype>audio</mediatype>
											<trackindex>1</trackindex>
											<clipindex>14</clipindex>
											<groupindex>1</groupindex>
										</link>
										<link>
											<linkclipref>clipitem-1157</linkclipref>
											<mediatype>audio</mediatype>
											<trackindex>2</trackindex>
											<clipindex>14</clipindex>
											<groupindex>1</groupindex>
										</link>
										<logginginfo>
											<description></description>
											<scene></scene>
											<shottake></shottake>
											<lognote></lognote>
											<good></good>
											<originalvideofilename></originalvideofilename>
											<originalaudiofilename></originalaudiofilename>
										</logginginfo>
										<colorinfo>
											<lut></lut>
											<lut1></lut1>
											<asc_sop></asc_sop>
											<asc_sat></asc_sat>
											<lut2></lut2>
										</colorinfo>
										<labels>
											<label2>Caribbean</label2>
										</labels>
									</clipitem>
									<clipitem id="clipitem-1130" premiereChannelType="stereo">
										<masterclipid>masterclip-7</masterclipid>
										<name>ES_Welcome Party People - John Runefelt.mp3</name>
										<enabled>TRUE</enabled>
										<duration>5704</duration>
										<rate>
											<timebase>30</timebase>
											<ntsc>TRUE</ntsc>
										</rate>
										<start>35729</start>
										<end>37391</end>
										<in>0</in>
										<out>1662</out>
										<pproTicksIn>0</pproTicksIn>
										<pproTicksOut>14086558886400</pproTicksOut>
										<file id="file-6"/>
										<sourcetrack>
											<mediatype>audio</mediatype>
											<trackindex>1</trackindex>
										</sourcetrack>
										<link>
											<linkclipref>clipitem-1130</linkclipref>
											<mediatype>audio</mediatype>
											<trackindex>1</trackindex>
											<clipindex>15</clipindex>
											<groupindex>1</groupindex>
										</link>
										<link>
											<linkclipref>clipitem-1158</linkclipref>
											<mediatype>audio</mediatype>
											<trackindex>2</trackindex>
											<clipindex>15</clipindex>
											<groupindex>1</groupindex>
										</link>
										<logginginfo>
											<description></description>
											<scene></scene>
											<shottake></shottake>
											<lognote></lognote>
											<good></good>
											<originalvideofilename></originalvideofilename>
											<originalaudiofilename></originalaudiofilename>
										</logginginfo>
										<colorinfo>
											<lut></lut>
											<lut1></lut1>
											<asc_sop></asc_sop>
											<asc_sat></asc_sat>
											<lut2></lut2>
										</colorinfo>
										<labels>
											<label2>Caribbean</label2>
										</labels>
									</clipitem>
									<clipitem id="clipitem-1131" premiereChannelType="stereo">
										<masterclipid>masterclip-15</masterclipid>
										<name>ES_Violent Heart (Instrumental Version) - Torii Wolf.mp3</name>
										<enabled>TRUE</enabled>
										<duration>5474</duration>
										<rate>
											<timebase>30</timebase>
											<ntsc>TRUE</ntsc>
										</rate>
										<start>37391</start>
										<end>40673</end>
										<in>0</in>
										<out>3282</out>
										<pproTicksIn>0</pproTicksIn>
										<pproTicksOut>27817139750400</pproTicksOut>
										<file id="file-13"/>
										<sourcetrack>
											<mediatype>audio</mediatype>
											<trackindex>1</trackindex>
										</sourcetrack>
										<link>
											<linkclipref>clipitem-1131</linkclipref>
											<mediatype>audio</mediatype>
											<trackindex>1</trackindex>
											<clipindex>16</clipindex>
											<groupindex>1</groupindex>
										</link>
										<link>
											<linkclipref>clipitem-1159</linkclipref>
											<mediatype>audio</mediatype>
											<trackindex>2</trackindex>
											<clipindex>16</clipindex>
											<groupindex>1</groupindex>
										</link>
										<logginginfo>
											<description></description>
											<scene></scene>
											<shottake></shottake>
											<lognote></lognote>
											<good></good>
											<originalvideofilename></originalvideofilename>
											<originalaudiofilename></originalaudiofilename>
										</logginginfo>
										<colorinfo>
											<lut></lut>
											<lut1></lut1>
											<asc_sop></asc_sop>
											<asc_sat></asc_sat>
											<lut2></lut2>
										</colorinfo>
										<labels>
											<label2>Caribbean</label2>
										</labels>
									</clipitem>
									<clipitem id="clipitem-1132" premiereChannelType="stereo">
										<masterclipid>masterclip-28</masterclipid>
										<name>ES_paint him in 3d (Instrumental Version) - Ingrid Witt.mp3</name>
										<enabled>TRUE</enabled>
										<duration>5349</duration>
										<rate>
											<timebase>30</timebase>
											<ntsc>TRUE</ntsc>
										</rate>
										<start>40673</start>
										<end>42532</end>
										<in>0</in>
										<out>1859</out>
										<pproTicksIn>0</pproTicksIn>
										<pproTicksOut>15756265324800</pproTicksOut>
										<file id="file-22"/>
										<sourcetrack>
											<mediatype>audio</mediatype>
											<trackindex>1</trackindex>
										</sourcetrack>
										<link>
											<linkclipref>clipitem-1132</linkclipref>
											<mediatype>audio</mediatype>
											<trackindex>1</trackindex>
											<clipindex>17</clipindex>
											<groupindex>1</groupindex>
										</link>
										<link>
											<linkclipref>clipitem-1160</linkclipref>
											<mediatype>audio</mediatype>
											<trackindex>2</trackindex>
											<clipindex>17</clipindex>
											<groupindex>1</groupindex>
										</link>
										<logginginfo>
											<description></description>
											<scene></scene>
											<shottake></shottake>
											<lognote></lognote>
											<good></good>
											<originalvideofilename></originalvideofilename>
											<originalaudiofilename></originalaudiofilename>
										</logginginfo>
										<colorinfo>
											<lut></lut>
											<lut1></lut1>
											<asc_sop></asc_sop>
											<asc_sat></asc_sat>
											<lut2></lut2>
										</colorinfo>
										<labels>
											<label2>Caribbean</label2>
										</labels>
									</clipitem>
									<clipitem id="clipitem-1133" premiereChannelType="stereo">
										<masterclipid>masterclip-37</masterclipid>
										<name>ES_Getting Lost - Lupus Nocte.mp3</name>
										<enabled>TRUE</enabled>
										<duration>5147</duration>
										<rate>
											<timebase>30</timebase>
											<ntsc>TRUE</ntsc>
										</rate>
										<start>42532</start>
										<end>46102</end>
										<in>0</in>
										<out>3570</out>
										<pproTicksIn>0</pproTicksIn>
										<pproTicksOut>30258131904000</pproTicksOut>
										<file id="file-30"/>
										<sourcetrack>
											<mediatype>audio</mediatype>
											<trackindex>1</trackindex>
										</sourcetrack>
										<link>
											<linkclipref>clipitem-1133</linkclipref>
											<mediatype>audio</mediatype>
											<trackindex>1</trackindex>
											<clipindex>18</clipindex>
											<groupindex>1</groupindex>
										</link>
										<link>
											<linkclipref>clipitem-1161</linkclipref>
											<mediatype>audio</mediatype>
											<trackindex>2</trackindex>
											<clipindex>18</clipindex>
											<groupindex>1</groupindex>
										</link>
										<logginginfo>
											<description></description>
											<scene></scene>
											<shottake></shottake>
											<lognote></lognote>
											<good></good>
											<originalvideofilename></originalvideofilename>
											<originalaudiofilename></originalaudiofilename>
										</logginginfo>
										<colorinfo>
											<lut></lut>
											<lut1></lut1>
											<asc_sop></asc_sop>
											<asc_sat></asc_sat>
											<lut2></lut2>
										</colorinfo>
										<labels>
											<label2>Caribbean</label2>
										</labels>
									</clipitem>
									<clipitem id="clipitem-1134" premiereChannelType="stereo">
										<masterclipid>masterclip-57</masterclipid>
										<name>ES_WHY (Tell Me) (Instrumental Version) - SRA.mp3</name>
										<enabled>TRUE</enabled>
										<duration>5553</duration>
										<rate>
											<timebase>30</timebase>
											<ntsc>TRUE</ntsc>
										</rate>
										<start>46102</start>
										<end>48054</end>
										<in>0</in>
										<out>1952</out>
										<pproTicksIn>0</pproTicksIn>
										<pproTicksOut>16544502374400</pproTicksOut>
										<file id="file-47"/>
										<sourcetrack>
											<mediatype>audio</mediatype>
											<trackindex>1</trackindex>
										</sourcetrack>
										<link>
											<linkclipref>clipitem-1134</linkclipref>
											<mediatype>audio</mediatype>
											<trackindex>1</trackindex>
											<clipindex>19</clipindex>
											<groupindex>1</groupindex>
										</link>
										<link>
											<linkclipref>clipitem-1162</linkclipref>
											<mediatype>audio</mediatype>
											<trackindex>2</trackindex>
											<clipindex>19</clipindex>
											<groupindex>1</groupindex>
										</link>
										<logginginfo>
											<description></description>
											<scene></scene>
											<shottake></shottake>
											<lognote></lognote>
											<good></good>
											<originalvideofilename></originalvideofilename>
											<originalaudiofilename></originalaudiofilename>
										</logginginfo>
										<colorinfo>
											<lut></lut>
											<lut1></lut1>
											<asc_sop></asc_sop>
											<asc_sat></asc_sat>
											<lut2></lut2>
										</colorinfo>
										<labels>
											<label2>Caribbean</label2>
										</labels>
									</clipitem>
									<clipitem id="clipitem-1135" premiereChannelType="stereo">
										<masterclipid>masterclip-66</masterclipid>
										<name>ES_Arcadewave - Lupus Nocte.mp3</name>
										<enabled>TRUE</enabled>
										<duration>4644</duration>
										<rate>
											<timebase>30</timebase>
											<ntsc>TRUE</ntsc>
										</rate>
										<start>48054</start>
										<end>51561</end>
										<in>0</in>
										<out>3507</out>
										<pproTicksIn>0</pproTicksIn>
										<pproTicksOut>29724164870400</pproTicksOut>
										<file id="file-55"/>
										<sourcetrack>
											<mediatype>audio</mediatype>
											<trackindex>1</trackindex>
										</sourcetrack>
										<link>
											<linkclipref>clipitem-1135</linkclipref>
											<mediatype>audio</mediatype>
											<trackindex>1</trackindex>
											<clipindex>20</clipindex>
											<groupindex>1</groupindex>
										</link>
										<link>
											<linkclipref>clipitem-1163</linkclipref>
											<mediatype>audio</mediatype>
											<trackindex>2</trackindex>
											<clipindex>20</clipindex>
											<groupindex>1</groupindex>
										</link>
										<logginginfo>
											<description></description>
											<scene></scene>
											<shottake></shottake>
											<lognote></lognote>
											<good></good>
											<originalvideofilename></originalvideofilename>
											<originalaudiofilename></originalaudiofilename>
										</logginginfo>
										<colorinfo>
											<lut></lut>
											<lut1></lut1>
											<asc_sop></asc_sop>
											<asc_sat></asc_sat>
											<lut2></lut2>
										</colorinfo>
										<labels>
											<label2>Caribbean</label2>
										</labels>
									</clipitem>
									<clipitem id="clipitem-1136" premiereChannelType="stereo">
										<masterclipid>masterclip-76</masterclipid>
										<name>ES_Why Not_ - Victor Lundberg.mp3</name>
										<enabled>TRUE</enabled>
										<duration>6532</duration>
										<rate>
											<timebase>30</timebase>
											<ntsc>TRUE</ntsc>
										</rate>
										<start>51561</start>
										<end>54943</end>
										<in>0</in>
										<out>3382</out>
										<pproTicksIn>0</pproTicksIn>
										<pproTicksOut>28664706470400</pproTicksOut>
										<file id="file-64"/>
										<sourcetrack>
											<mediatype>audio</mediatype>
											<trackindex>1</trackindex>
										</sourcetrack>
										<link>
											<linkclipref>clipitem-1136</linkclipref>
											<mediatype>audio</mediatype>
											<trackindex>1</trackindex>
											<clipindex>21</clipindex>
											<groupindex>1</groupindex>
										</link>
										<link>
											<linkclipref>clipitem-1164</linkclipref>
											<mediatype>audio</mediatype>
											<trackindex>2</trackindex>
											<clipindex>21</clipindex>
											<groupindex>1</groupindex>
										</link>
										<logginginfo>
											<description></description>
											<scene></scene>
											<shottake></shottake>
											<lognote></lognote>
											<good></good>
											<originalvideofilename></originalvideofilename>
											<originalaudiofilename></originalaudiofilename>
										</logginginfo>
										<colorinfo>
											<lut></lut>
											<lut1></lut1>
											<asc_sop></asc_sop>
											<asc_sat></asc_sat>
											<lut2></lut2>
										</colorinfo>
										<labels>
											<label2>Caribbean</label2>
										</labels>
									</clipitem>
									<clipitem id="clipitem-1137" premiereChannelType="stereo">
										<masterclipid>masterclip-85</masterclipid>
										<name>ES_My Trust in You - Daniel Fridell.mp3</name>
										<enabled>TRUE</enabled>
										<duration>7568</duration>
										<rate>
											<timebase>30</timebase>
											<ntsc>TRUE</ntsc>
										</rate>
										<start>54943</start>
										<end>56798</end>
										<in>0</in>
										<out>1855</out>
										<pproTicksIn>0</pproTicksIn>
										<pproTicksOut>15722362656000</pproTicksOut>
										<file id="file-72"/>
										<sourcetrack>
											<mediatype>audio</mediatype>
											<trackindex>1</trackindex>
										</sourcetrack>
										<link>
											<linkclipref>clipitem-1137</linkclipref>
											<mediatype>audio</mediatype>
											<trackindex>1</trackindex>
											<clipindex>22</clipindex>
											<groupindex>1</groupindex>
										</link>
										<link>
											<linkclipref>clipitem-1165</linkclipref>
											<mediatype>audio</mediatype>
											<trackindex>2</trackindex>
											<clipindex>22</clipindex>
											<groupindex>1</groupindex>
										</link>
										<logginginfo>
											<description></description>
											<scene></scene>
											<shottake></shottake>
											<lognote></lognote>
											<good></good>
											<originalvideofilename></originalvideofilename>
											<originalaudiofilename></originalaudiofilename>
										</logginginfo>
										<colorinfo>
											<lut></lut>
											<lut1></lut1>
											<asc_sop></asc_sop>
											<asc_sat></asc_sat>
											<lut2></lut2>
										</colorinfo>
										<labels>
											<label2>Caribbean</label2>
										</labels>
									</clipitem>
									<clipitem id="clipitem-1138" premiereChannelType="stereo">
										<masterclipid>masterclip-102</masterclipid>
										<name>ES_Aquatic Flower Dance - Ryan James Carr.mp3</name>
										<enabled>TRUE</enabled>
										<duration>4542</duration>
										<rate>
											<timebase>30</timebase>
											<ntsc>TRUE</ntsc>
										</rate>
										<start>56798</start>
										<end>59139</end>
										<in>0</in>
										<out>2341</out>
										<pproTicksIn>0</pproTicksIn>
										<pproTicksOut>19841536915200</pproTicksOut>
										<file id="file-88"/>
										<sourcetrack>
											<mediatype>audio</mediatype>
											<trackindex>1</trackindex>
										</sourcetrack>
										<link>
											<linkclipref>clipitem-1138</linkclipref>
											<mediatype>audio</mediatype>
											<trackindex>1</trackindex>
											<clipindex>23</clipindex>
											<groupindex>1</groupindex>
										</link>
										<link>
											<linkclipref>clipitem-1166</linkclipref>
											<mediatype>audio</mediatype>
											<trackindex>2</trackindex>
											<clipindex>23</clipindex>
											<groupindex>1</groupindex>
										</link>
										<logginginfo>
											<description></description>
											<scene></scene>
											<shottake></shottake>
											<lognote></lognote>
											<good></good>
											<originalvideofilename></originalvideofilename>
											<originalaudiofilename></originalaudiofilename>
										</logginginfo>
										<colorinfo>
											<lut></lut>
											<lut1></lut1>
											<asc_sop></asc_sop>
											<asc_sat></asc_sat>
											<lut2></lut2>
										</colorinfo>
										<labels>
											<label2>Caribbean</label2>
										</labels>
									</clipitem>
									<clipitem id="clipitem-1139" premiereChannelType="stereo">
										<masterclipid>masterclip-110</masterclipid>
										<name>ES_Basement Vibes (Instrumental Version) - DAJANA.mp3</name>
										<enabled>TRUE</enabled>
										<duration>4641</duration>
										<rate>
											<timebase>30</timebase>
											<ntsc>TRUE</ntsc>
										</rate>
										<start>59139</start>
										<end>61737</end>
										<in>0</in>
										<out>2598</out>
										<pproTicksIn>0</pproTicksIn>
										<pproTicksOut>22019783385600</pproTicksOut>
										<file id="file-95"/>
										<sourcetrack>
											<mediatype>audio</mediatype>
											<trackindex>1</trackindex>
										</sourcetrack>
										<link>
											<linkclipref>clipitem-1139</linkclipref>
											<mediatype>audio</mediatype>
											<trackindex>1</trackindex>
											<clipindex>24</clipindex>
											<groupindex>1</groupindex>
										</link>
										<link>
											<linkclipref>clipitem-1167</linkclipref>
											<mediatype>audio</mediatype>
											<trackindex>2</trackindex>
											<clipindex>24</clipindex>
											<groupindex>1</groupindex>
										</link>
										<logginginfo>
											<description></description>
											<scene></scene>
											<shottake></shottake>
											<lognote></lognote>
											<good></good>
											<originalvideofilename></originalvideofilename>
											<originalaudiofilename></originalaudiofilename>
										</logginginfo>
										<colorinfo>
											<lut></lut>
											<lut1></lut1>
											<asc_sop></asc_sop>
											<asc_sat></asc_sat>
											<lut2></lut2>
										</colorinfo>
										<labels>
											<label2>Caribbean</label2>
										</labels>
									</clipitem>
									<clipitem id="clipitem-1140" premiereChannelType="stereo">
										<masterclipid>masterclip-122</masterclipid>
										<name>ES_Shroom Stew - El Flaco Collective.mp3</name>
										<enabled>TRUE</enabled>
										<duration>6592</duration>
										<rate>
											<timebase>30</timebase>
											<ntsc>TRUE</ntsc>
										</rate>
										<start>61737</start>
										<end>65187</end>
										<in>0</in>
										<out>3450</out>
										<pproTicksIn>0</pproTicksIn>
										<pproTicksOut>29241051840000</pproTicksOut>
										<file id="file-105"/>
										<sourcetrack>
											<mediatype>audio</mediatype>
											<trackindex>1</trackindex>
										</sourcetrack>
										<link>
											<linkclipref>clipitem-1140</linkclipref>
											<mediatype>audio</mediatype>
											<trackindex>1</trackindex>
											<clipindex>25</clipindex>
											<groupindex>1</groupindex>
										</link>
										<link>
											<linkclipref>clipitem-1168</linkclipref>
											<mediatype>audio</mediatype>
											<trackindex>2</trackindex>
											<clipindex>25</clipindex>
											<groupindex>1</groupindex>
										</link>
										<logginginfo>
											<description></description>
											<scene></scene>
											<shottake></shottake>
											<lognote></lognote>
											<good></good>
											<originalvideofilename></originalvideofilename>
											<originalaudiofilename></originalaudiofilename>
										</logginginfo>
										<colorinfo>
											<lut></lut>
											<lut1></lut1>
											<asc_sop></asc_sop>
											<asc_sat></asc_sat>
											<lut2></lut2>
										</colorinfo>
										<labels>
											<label2>Caribbean</label2>
										</labels>
									</clipitem>
									<clipitem id="clipitem-1141" premiereChannelType="stereo">
										<masterclipid>masterclip-132</masterclipid>
										<name>ES_Imagination Celebration - Ryan James Carr.mp3</name>
										<enabled>TRUE</enabled>
										<duration>4653</duration>
										<rate>
											<timebase>30</timebase>
											<ntsc>TRUE</ntsc>
										</rate>
										<start>65187</start>
										<end>67034</end>
										<in>0</in>
										<out>1847</out>
										<pproTicksIn>0</pproTicksIn>
										<pproTicksOut>15654557318400</pproTicksOut>
										<file id="file-114"/>
										<sourcetrack>
											<mediatype>audio</mediatype>
											<trackindex>1</trackindex>
										</sourcetrack>
										<link>
											<linkclipref>clipitem-1141</linkclipref>
											<mediatype>audio</mediatype>
											<trackindex>1</trackindex>
											<clipindex>26</clipindex>
											<groupindex>1</groupindex>
										</link>
										<link>
											<linkclipref>clipitem-1169</linkclipref>
											<mediatype>audio</mediatype>
											<trackindex>2</trackindex>
											<clipindex>26</clipindex>
											<groupindex>1</groupindex>
										</link>
										<logginginfo>
											<description></description>
											<scene></scene>
											<shottake></shottake>
											<lognote></lognote>
											<good></good>
											<originalvideofilename></originalvideofilename>
											<originalaudiofilename></originalaudiofilename>
										</logginginfo>
										<colorinfo>
											<lut></lut>
											<lut1></lut1>
											<asc_sop></asc_sop>
											<asc_sat></asc_sat>
											<lut2></lut2>
										</colorinfo>
										<labels>
											<label2>Caribbean</label2>
										</labels>
									</clipitem>
									<clipitem id="clipitem-1142" premiereChannelType="stereo">
										<masterclipid>masterclip-138</masterclipid>
										<name>ES_Anticipation - Future Joust.mp3</name>
										<enabled>TRUE</enabled>
										<duration>6353</duration>
										<rate>
											<timebase>30</timebase>
											<ntsc>TRUE</ntsc>
										</rate>
										<start>67034</start>
										<end>68601</end>
										<in>0</in>
										<out>1567</out>
										<pproTicksIn>0</pproTicksIn>
										<pproTicksOut>13281370502400</pproTicksOut>
										<file id="file-119"/>
										<sourcetrack>
											<mediatype>audio</mediatype>
											<trackindex>1</trackindex>
										</sourcetrack>
										<link>
											<linkclipref>clipitem-1142</linkclipref>
											<mediatype>audio</mediatype>
											<trackindex>1</trackindex>
											<clipindex>27</clipindex>
											<groupindex>1</groupindex>
										</link>
										<link>
											<linkclipref>clipitem-1170</linkclipref>
											<mediatype>audio</mediatype>
											<trackindex>2</trackindex>
											<clipindex>27</clipindex>
											<groupindex>1</groupindex>
										</link>
										<logginginfo>
											<description></description>
											<scene></scene>
											<shottake></shottake>
											<lognote></lognote>
											<good></good>
											<originalvideofilename></originalvideofilename>
											<originalaudiofilename></originalaudiofilename>
										</logginginfo>
										<colorinfo>
											<lut></lut>
											<lut1></lut1>
											<asc_sop></asc_sop>
											<asc_sat></asc_sat>
											<lut2></lut2>
										</colorinfo>
										<labels>
											<label2>Caribbean</label2>
										</labels>
									</clipitem>
									<clipitem id="clipitem-1143" premiereChannelType="stereo">
										<masterclipid>masterclip-145</masterclipid>
										<name>ES_Just a Little Bit (Instrumental Version) - Chris Shards.mp3</name>
										<enabled>TRUE</enabled>
										<duration>5435</duration>
										<rate>
											<timebase>30</timebase>
											<ntsc>TRUE</ntsc>
										</rate>
										<start>68601</start>
										<end>71961</end>
										<in>0</in>
										<out>3360</out>
										<pproTicksIn>0</pproTicksIn>
										<pproTicksOut>28478241792000</pproTicksOut>
										<file id="file-125"/>
										<sourcetrack>
											<mediatype>audio</mediatype>
											<trackindex>1</trackindex>
										</sourcetrack>
										<link>
											<linkclipref>clipitem-1143</linkclipref>
											<mediatype>audio</mediatype>
											<trackindex>1</trackindex>
											<clipindex>28</clipindex>
											<groupindex>1</groupindex>
										</link>
										<link>
											<linkclipref>clipitem-1171</linkclipref>
											<mediatype>audio</mediatype>
											<trackindex>2</trackindex>
											<clipindex>28</clipindex>
											<groupindex>1</groupindex>
										</link>
										<logginginfo>
											<description></description>
											<scene></scene>
											<shottake></shottake>
											<lognote></lognote>
											<good></good>
											<originalvideofilename></originalvideofilename>
											<originalaudiofilename></originalaudiofilename>
										</logginginfo>
										<colorinfo>
											<lut></lut>
											<lut1></lut1>
											<asc_sop></asc_sop>
											<asc_sat></asc_sat>
											<lut2></lut2>
										</colorinfo>
										<labels>
											<label2>Caribbean</label2>
										</labels>
									</clipitem>
									<enabled>TRUE</enabled>
									<locked>FALSE</locked>
									<outputchannelindex>1</outputchannelindex>
								</track>
								<track TL.SQTrackAudioKeyframeStyle="0" TL.SQTrackShy="0" TL.SQTrackExpandedHeight="25" TL.SQTrackExpanded="0" MZ.TrackTargeted="1" PannerCurrentValue="0.5" PannerIsInverted="true" PannerStartKeyframe="-91445760000000000,0.5,0,0,0,0,0,0" PannerName="Balance" currentExplodedTrackIndex="1" totalExplodedTrackCount="2" premiereTrackType="Stereo">
									<clipitem id="clipitem-1144" premiereChannelType="stereo">
										<masterclipid>masterclip-171</masterclipid>
										<name>ES_Project Bulow - Lukas Got Lucky.mp3</name>
										<enabled>TRUE</enabled>
										<duration>4026</duration>
										<rate>
											<timebase>30</timebase>
											<ntsc>TRUE</ntsc>
										</rate>
										<start>0</start>
										<end>1749</end>
										<in>0</in>
										<out>1749</out>
										<pproTicksIn>0</pproTicksIn>
										<pproTicksOut>14823941932800</pproTicksOut>
										<file id="file-148"/>
										<sourcetrack>
											<mediatype>audio</mediatype>
											<trackindex>2</trackindex>
										</sourcetrack>
										<link>
											<linkclipref>clipitem-1116</linkclipref>
											<mediatype>audio</mediatype>
											<trackindex>1</trackindex>
											<clipindex>1</clipindex>
											<groupindex>1</groupindex>
										</link>
										<link>
											<linkclipref>clipitem-1144</linkclipref>
											<mediatype>audio</mediatype>
											<trackindex>2</trackindex>
											<clipindex>1</clipindex>
											<groupindex>1</groupindex>
										</link>
										<logginginfo>
											<description></description>
											<scene></scene>
											<shottake></shottake>
											<lognote></lognote>
											<good></good>
											<originalvideofilename></originalvideofilename>
											<originalaudiofilename></originalaudiofilename>
										</logginginfo>
										<colorinfo>
											<lut></lut>
											<lut1></lut1>
											<asc_sop></asc_sop>
											<asc_sat></asc_sat>
											<lut2></lut2>
										</colorinfo>
										<labels>
											<label2>Caribbean</label2>
										</labels>
									</clipitem>
									<clipitem id="clipitem-1145" premiereChannelType="stereo">
										<masterclipid>masterclip-177</masterclipid>
										<name>ES_Rhaeti - Lukas Got Lucky.mp3</name>
										<enabled>TRUE</enabled>
										<duration>6889</duration>
										<rate>
											<timebase>30</timebase>
											<ntsc>TRUE</ntsc>
										</rate>
										<start>1749</start>
										<end>5030</end>
										<in>0</in>
										<out>3281</out>
										<pproTicksIn>0</pproTicksIn>
										<pproTicksOut>27808664083200</pproTicksOut>
										<file id="file-153"/>
										<sourcetrack>
											<mediatype>audio</mediatype>
											<trackindex>2</trackindex>
										</sourcetrack>
										<link>
											<linkclipref>clipitem-1117</linkclipref>
											<mediatype>audio</mediatype>
											<trackindex>1</trackindex>
											<clipindex>2</clipindex>
											<groupindex>1</groupindex>
										</link>
										<link>
											<linkclipref>clipitem-1145</linkclipref>
											<mediatype>audio</mediatype>
											<trackindex>2</trackindex>
											<clipindex>2</clipindex>
											<groupindex>1</groupindex>
										</link>
										<logginginfo>
											<description></description>
											<scene></scene>
											<shottake></shottake>
											<lognote></lognote>
											<good></good>
											<originalvideofilename></originalvideofilename>
											<originalaudiofilename></originalaudiofilename>
										</logginginfo>
										<colorinfo>
											<lut></lut>
											<lut1></lut1>
											<asc_sop></asc_sop>
											<asc_sat></asc_sat>
											<lut2></lut2>
										</colorinfo>
										<labels>
											<label2>Caribbean</label2>
										</labels>
									</clipitem>
									<clipitem id="clipitem-1146" premiereChannelType="stereo">
										<masterclipid>masterclip-151</masterclipid>
										<name>ES_Delicate - Ben Elson.mp3</name>
										<enabled>TRUE</enabled>
										<duration>5648</duration>
										<rate>
											<timebase>30</timebase>
											<ntsc>TRUE</ntsc>
										</rate>
										<start>5030</start>
										<end>7670</end>
										<in>0</in>
										<out>2640</out>
										<pproTicksIn>0</pproTicksIn>
										<pproTicksOut>22375761408000</pproTicksOut>
										<file id="file-130"/>
										<sourcetrack>
											<mediatype>audio</mediatype>
											<trackindex>2</trackindex>
										</sourcetrack>
										<link>
											<linkclipref>clipitem-1118</linkclipref>
											<mediatype>audio</mediatype>
											<trackindex>1</trackindex>
											<clipindex>3</clipindex>
											<groupindex>1</groupindex>
										</link>
										<link>
											<linkclipref>clipitem-1146</linkclipref>
											<mediatype>audio</mediatype>
											<trackindex>2</trackindex>
											<clipindex>3</clipindex>
											<groupindex>1</groupindex>
										</link>
										<logginginfo>
											<description></description>
											<scene></scene>
											<shottake></shottake>
											<lognote></lognote>
											<good></good>
											<originalvideofilename></originalvideofilename>
											<originalaudiofilename></originalaudiofilename>
										</logginginfo>
										<colorinfo>
											<lut></lut>
											<lut1></lut1>
											<asc_sop></asc_sop>
											<asc_sat></asc_sat>
											<lut2></lut2>
										</colorinfo>
										<labels>
											<label2>Caribbean</label2>
										</labels>
									</clipitem>
									<clipitem id="clipitem-1147" premiereChannelType="stereo">
										<masterclipid>masterclip-157</masterclipid>
										<name>ES_Faster Car (Sped Up Version) (Instrumental Version) - Loving Caliber.wav</name>
										<enabled>TRUE</enabled>
										<duration>5769</duration>
										<rate>
											<timebase>30</timebase>
											<ntsc>TRUE</ntsc>
										</rate>
										<start>7670</start>
										<end>10048</end>
										<in>0</in>
										<out>2378</out>
										<pproTicksIn>0</pproTicksIn>
										<pproTicksOut>20155136601600</pproTicksOut>
										<file id="file-135"/>
										<sourcetrack>
											<mediatype>audio</mediatype>
											<trackindex>2</trackindex>
										</sourcetrack>
										<link>
											<linkclipref>clipitem-1119</linkclipref>
											<mediatype>audio</mediatype>
											<trackindex>1</trackindex>
											<clipindex>4</clipindex>
											<groupindex>1</groupindex>
										</link>
										<link>
											<linkclipref>clipitem-1147</linkclipref>
											<mediatype>audio</mediatype>
											<trackindex>2</trackindex>
											<clipindex>4</clipindex>
											<groupindex>1</groupindex>
										</link>
										<logginginfo>
											<description></description>
											<scene></scene>
											<shottake></shottake>
											<lognote></lognote>
											<good></good>
											<originalvideofilename></originalvideofilename>
											<originalaudiofilename></originalaudiofilename>
										</logginginfo>
										<colorinfo>
											<lut></lut>
											<lut1></lut1>
											<asc_sop></asc_sop>
											<asc_sat></asc_sat>
											<lut2></lut2>
										</colorinfo>
										<labels>
											<label2>Caribbean</label2>
										</labels>
									</clipitem>
									<clipitem id="clipitem-1148" premiereChannelType="stereo">
										<masterclipid>masterclip-186</masterclipid>
										<name>ES_Raspberry Road - Colton Walls.mp3</name>
										<enabled>TRUE</enabled>
										<duration>3633</duration>
										<rate>
											<timebase>30</timebase>
											<ntsc>TRUE</ntsc>
										</rate>
										<start>10048</start>
										<end>12443</end>
										<in>0</in>
										<out>2395</out>
										<pproTicksIn>0</pproTicksIn>
										<pproTicksOut>20299222944000</pproTicksOut>
										<file id="file-161"/>
										<sourcetrack>
											<mediatype>audio</mediatype>
											<trackindex>2</trackindex>
										</sourcetrack>
										<link>
											<linkclipref>clipitem-1120</linkclipref>
											<mediatype>audio</mediatype>
											<trackindex>1</trackindex>
											<clipindex>5</clipindex>
											<groupindex>1</groupindex>
										</link>
										<link>
											<linkclipref>clipitem-1148</linkclipref>
											<mediatype>audio</mediatype>
											<trackindex>2</trackindex>
											<clipindex>5</clipindex>
											<groupindex>1</groupindex>
										</link>
										<logginginfo>
											<description></description>
											<scene></scene>
											<shottake></shottake>
											<lognote></lognote>
											<good></good>
											<originalvideofilename></originalvideofilename>
											<originalaudiofilename></originalaudiofilename>
										</logginginfo>
										<colorinfo>
											<lut></lut>
											<lut1></lut1>
											<asc_sop></asc_sop>
											<asc_sat></asc_sat>
											<lut2></lut2>
										</colorinfo>
										<labels>
											<label2>Forest</label2>
										</labels>
									</clipitem>
									<clipitem id="clipitem-1149" premiereChannelType="stereo">
										<masterclipid>masterclip-202</masterclipid>
										<name>ES_Another Wednesday Night - OTE.mp3</name>
										<enabled>TRUE</enabled>
										<duration>7005</duration>
										<rate>
											<timebase>30</timebase>
											<ntsc>TRUE</ntsc>
										</rate>
										<start>12443</start>
										<end>15071</end>
										<in>0</in>
										<out>2628</out>
										<pproTicksIn>0</pproTicksIn>
										<pproTicksOut>22274053401600</pproTicksOut>
										<file id="file-175"/>
										<sourcetrack>
											<mediatype>audio</mediatype>
											<trackindex>2</trackindex>
										</sourcetrack>
										<link>
											<linkclipref>clipitem-1121</linkclipref>
											<mediatype>audio</mediatype>
											<trackindex>1</trackindex>
											<clipindex>6</clipindex>
											<groupindex>1</groupindex>
										</link>
										<link>
											<linkclipref>clipitem-1149</linkclipref>
											<mediatype>audio</mediatype>
											<trackindex>2</trackindex>
											<clipindex>6</clipindex>
											<groupindex>1</groupindex>
										</link>
										<logginginfo>
											<description></description>
											<scene></scene>
											<shottake></shottake>
											<lognote></lognote>
											<good></good>
											<originalvideofilename></originalvideofilename>
											<originalaudiofilename></originalaudiofilename>
										</logginginfo>
										<colorinfo>
											<lut></lut>
											<lut1></lut1>
											<asc_sop></asc_sop>
											<asc_sat></asc_sat>
											<lut2></lut2>
										</colorinfo>
										<labels>
											<label2>Caribbean</label2>
										</labels>
									</clipitem>
									<clipitem id="clipitem-1150" premiereChannelType="stereo">
										<masterclipid>masterclip-210</masterclipid>
										<name>ES_new in the neighbourhood (Instrumental Version) - Ingrid Witt.mp3</name>
										<enabled>TRUE</enabled>
										<duration>5289</duration>
										<rate>
											<timebase>30</timebase>
											<ntsc>TRUE</ntsc>
										</rate>
										<start>15071</start>
										<end>18220</end>
										<in>0</in>
										<out>3149</out>
										<pproTicksIn>0</pproTicksIn>
										<pproTicksOut>26689876012800</pproTicksOut>
										<file id="file-181"/>
										<sourcetrack>
											<mediatype>audio</mediatype>
											<trackindex>2</trackindex>
										</sourcetrack>
										<link>
											<linkclipref>clipitem-1122</linkclipref>
											<mediatype>audio</mediatype>
											<trackindex>1</trackindex>
											<clipindex>7</clipindex>
											<groupindex>1</groupindex>
										</link>
										<link>
											<linkclipref>clipitem-1150</linkclipref>
											<mediatype>audio</mediatype>
											<trackindex>2</trackindex>
											<clipindex>7</clipindex>
											<groupindex>1</groupindex>
										</link>
										<logginginfo>
											<description></description>
											<scene></scene>
											<shottake></shottake>
											<lognote></lognote>
											<good></good>
											<originalvideofilename></originalvideofilename>
											<originalaudiofilename></originalaudiofilename>
										</logginginfo>
										<colorinfo>
											<lut></lut>
											<lut1></lut1>
											<asc_sop></asc_sop>
											<asc_sat></asc_sat>
											<lut2></lut2>
										</colorinfo>
										<labels>
											<label2>Caribbean</label2>
										</labels>
									</clipitem>
									<clipitem id="clipitem-1151" premiereChannelType="stereo">
										<masterclipid>masterclip-217</masterclipid>
										<name>ES_Misty K-pop Night - Rymdklang Soundtracks.mp3</name>
										<enabled>TRUE</enabled>
										<duration>7358</duration>
										<rate>
											<timebase>30</timebase>
											<ntsc>TRUE</ntsc>
										</rate>
										<start>18220</start>
										<end>20236</end>
										<in>0</in>
										<out>2016</out>
										<pproTicksIn>0</pproTicksIn>
										<pproTicksOut>17086945075200</pproTicksOut>
										<file id="file-187"/>
										<sourcetrack>
											<mediatype>audio</mediatype>
											<trackindex>2</trackindex>
										</sourcetrack>
										<link>
											<linkclipref>clipitem-1123</linkclipref>
											<mediatype>audio</mediatype>
											<trackindex>1</trackindex>
											<clipindex>8</clipindex>
											<groupindex>1</groupindex>
										</link>
										<link>
											<linkclipref>clipitem-1151</linkclipref>
											<mediatype>audio</mediatype>
											<trackindex>2</trackindex>
											<clipindex>8</clipindex>
											<groupindex>1</groupindex>
										</link>
										<logginginfo>
											<description></description>
											<scene></scene>
											<shottake></shottake>
											<lognote></lognote>
											<good></good>
											<originalvideofilename></originalvideofilename>
											<originalaudiofilename></originalaudiofilename>
										</logginginfo>
										<colorinfo>
											<lut></lut>
											<lut1></lut1>
											<asc_sop></asc_sop>
											<asc_sat></asc_sat>
											<lut2></lut2>
										</colorinfo>
										<labels>
											<label2>Caribbean</label2>
										</labels>
									</clipitem>
									<clipitem id="clipitem-1152" premiereChannelType="stereo">
										<masterclipid>masterclip-223</masterclipid>
										<name>ES_Sunset Fever - Forever Sunset.mp3</name>
										<enabled>TRUE</enabled>
										<duration>6246</duration>
										<rate>
											<timebase>30</timebase>
											<ntsc>TRUE</ntsc>
										</rate>
										<start>20236</start>
										<end>22852</end>
										<in>0</in>
										<out>2616</out>
										<pproTicksIn>0</pproTicksIn>
										<pproTicksOut>22172345395200</pproTicksOut>
										<file id="file-192"/>
										<sourcetrack>
											<mediatype>audio</mediatype>
											<trackindex>2</trackindex>
										</sourcetrack>
										<link>
											<linkclipref>clipitem-1124</linkclipref>
											<mediatype>audio</mediatype>
											<trackindex>1</trackindex>
											<clipindex>9</clipindex>
											<groupindex>1</groupindex>
										</link>
										<link>
											<linkclipref>clipitem-1152</linkclipref>
											<mediatype>audio</mediatype>
											<trackindex>2</trackindex>
											<clipindex>9</clipindex>
											<groupindex>1</groupindex>
										</link>
										<logginginfo>
											<description></description>
											<scene></scene>
											<shottake></shottake>
											<lognote></lognote>
											<good></good>
											<originalvideofilename></originalvideofilename>
											<originalaudiofilename></originalaudiofilename>
										</logginginfo>
										<colorinfo>
											<lut></lut>
											<lut1></lut1>
											<asc_sop></asc_sop>
											<asc_sat></asc_sat>
											<lut2></lut2>
										</colorinfo>
										<labels>
											<label2>Caribbean</label2>
										</labels>
									</clipitem>
									<clipitem id="clipitem-1153" premiereChannelType="stereo">
										<masterclipid>masterclip-230</masterclipid>
										<name>ES_Party On - John Runefelt.mp3</name>
										<enabled>TRUE</enabled>
										<duration>6370</duration>
										<rate>
											<timebase>30</timebase>
											<ntsc>TRUE</ntsc>
										</rate>
										<start>22852</start>
										<end>25301</end>
										<in>592</in>
										<out>3041</out>
										<pproTicksIn>5017594982400</pproTicksIn>
										<pproTicksOut>25774503955200</pproTicksOut>
										<file id="file-198"/>
										<sourcetrack>
											<mediatype>audio</mediatype>
											<trackindex>2</trackindex>
										</sourcetrack>
										<link>
											<linkclipref>clipitem-1125</linkclipref>
											<mediatype>audio</mediatype>
											<trackindex>1</trackindex>
											<clipindex>10</clipindex>
											<groupindex>1</groupindex>
										</link>
										<link>
											<linkclipref>clipitem-1153</linkclipref>
											<mediatype>audio</mediatype>
											<trackindex>2</trackindex>
											<clipindex>10</clipindex>
											<groupindex>1</groupindex>
										</link>
										<logginginfo>
											<description></description>
											<scene></scene>
											<shottake></shottake>
											<lognote></lognote>
											<good></good>
											<originalvideofilename></originalvideofilename>
											<originalaudiofilename></originalaudiofilename>
										</logginginfo>
										<colorinfo>
											<lut></lut>
											<lut1></lut1>
											<asc_sop></asc_sop>
											<asc_sat></asc_sat>
											<lut2></lut2>
										</colorinfo>
										<labels>
											<label2>Caribbean</label2>
										</labels>
									</clipitem>
									<clipitem id="clipitem-1154" premiereChannelType="stereo">
										<masterclipid>masterclip-236</masterclipid>
										<name>ES_Knowledge Is Power - Matt Large.mp3</name>
										<enabled>TRUE</enabled>
										<duration>6362</duration>
										<rate>
											<timebase>30</timebase>
											<ntsc>TRUE</ntsc>
										</rate>
										<start>25301</start>
										<end>28019</end>
										<in>0</in>
										<out>2718</out>
										<pproTicksIn>0</pproTicksIn>
										<pproTicksOut>23036863449600</pproTicksOut>
										<file id="file-203"/>
										<sourcetrack>
											<mediatype>audio</mediatype>
											<trackindex>2</trackindex>
										</sourcetrack>
										<link>
											<linkclipref>clipitem-1126</linkclipref>
											<mediatype>audio</mediatype>
											<trackindex>1</trackindex>
											<clipindex>11</clipindex>
											<groupindex>1</groupindex>
										</link>
										<link>
											<linkclipref>clipitem-1154</linkclipref>
											<mediatype>audio</mediatype>
											<trackindex>2</trackindex>
											<clipindex>11</clipindex>
											<groupindex>1</groupindex>
										</link>
										<logginginfo>
											<description></description>
											<scene></scene>
											<shottake></shottake>
											<lognote></lognote>
											<good></good>
											<originalvideofilename></originalvideofilename>
											<originalaudiofilename></originalaudiofilename>
										</logginginfo>
										<colorinfo>
											<lut></lut>
											<lut1></lut1>
											<asc_sop></asc_sop>
											<asc_sat></asc_sat>
											<lut2></lut2>
										</colorinfo>
										<labels>
											<label2>Forest</label2>
										</labels>
									</clipitem>
									<clipitem id="clipitem-1155" premiereChannelType="stereo">
										<masterclipid>masterclip-242</masterclipid>
										<name>ES_Bewitched (Instrumental Version) - Zorro.mp3</name>
										<enabled>TRUE</enabled>
										<duration>5137</duration>
										<rate>
											<timebase>30</timebase>
											<ntsc>TRUE</ntsc>
										</rate>
										<start>28019</start>
										<end>30587</end>
										<in>0</in>
										<out>2568</out>
										<pproTicksIn>0</pproTicksIn>
										<pproTicksOut>21765513369600</pproTicksOut>
										<file id="file-208"/>
										<sourcetrack>
											<mediatype>audio</mediatype>
											<trackindex>2</trackindex>
										</sourcetrack>
										<link>
											<linkclipref>clipitem-1127</linkclipref>
											<mediatype>audio</mediatype>
											<trackindex>1</trackindex>
											<clipindex>12</clipindex>
											<groupindex>1</groupindex>
										</link>
										<link>
											<linkclipref>clipitem-1155</linkclipref>
											<mediatype>audio</mediatype>
											<trackindex>2</trackindex>
											<clipindex>12</clipindex>
											<groupindex>1</groupindex>
										</link>
										<logginginfo>
											<description></description>
											<scene></scene>
											<shottake></shottake>
											<lognote></lognote>
											<good></good>
											<originalvideofilename></originalvideofilename>
											<originalaudiofilename></originalaudiofilename>
										</logginginfo>
										<colorinfo>
											<lut></lut>
											<lut1></lut1>
											<asc_sop></asc_sop>
											<asc_sat></asc_sat>
											<lut2></lut2>
										</colorinfo>
										<labels>
											<label2>Caribbean</label2>
										</labels>
									</clipitem>
									<clipitem id="clipitem-1156" premiereChannelType="stereo">
										<masterclipid>masterclip-259</masterclipid>
										<name>ES_Fantasy Fragments - Ryan James Carr.mp3</name>
										<enabled>TRUE</enabled>
										<duration>4643</duration>
										<rate>
											<timebase>30</timebase>
											<ntsc>TRUE</ntsc>
										</rate>
										<start>30587</start>
										<end>32983</end>
										<in>0</in>
										<out>2396</out>
										<pproTicksIn>0</pproTicksIn>
										<pproTicksOut>20307698611200</pproTicksOut>
										<file id="file-224"/>
										<sourcetrack>
											<mediatype>audio</mediatype>
											<trackindex>2</trackindex>
										</sourcetrack>
										<link>
											<linkclipref>clipitem-1128</linkclipref>
											<mediatype>audio</mediatype>
											<trackindex>1</trackindex>
											<clipindex>13</clipindex>
											<groupindex>1</groupindex>
										</link>
										<link>
											<linkclipref>clipitem-1156</linkclipref>
											<mediatype>audio</mediatype>
											<trackindex>2</trackindex>
											<clipindex>13</clipindex>
											<groupindex>1</groupindex>
										</link>
										<logginginfo>
											<description></description>
											<scene></scene>
											<shottake></shottake>
											<lognote></lognote>
											<good></good>
											<originalvideofilename></originalvideofilename>
											<originalaudiofilename></originalaudiofilename>
										</logginginfo>
										<colorinfo>
											<lut></lut>
											<lut1></lut1>
											<asc_sop></asc_sop>
											<asc_sat></asc_sat>
											<lut2></lut2>
										</colorinfo>
										<labels>
											<label2>Caribbean</label2>
										</labels>
									</clipitem>
									<clipitem id="clipitem-1157" premiereChannelType="stereo">
										<masterclipid>masterclip-265</masterclipid>
										<name>ES_save yourself (Instrumental Version) - King Sis.mp3</name>
										<enabled>TRUE</enabled>
										<duration>5659</duration>
										<rate>
											<timebase>30</timebase>
											<ntsc>TRUE</ntsc>
										</rate>
										<start>32983</start>
										<end>35729</end>
										<in>0</in>
										<out>2746</out>
										<pproTicksIn>0</pproTicksIn>
										<pproTicksOut>23274182131200</pproTicksOut>
										<file id="file-229"/>
										<sourcetrack>
											<mediatype>audio</mediatype>
											<trackindex>2</trackindex>
										</sourcetrack>
										<link>
											<linkclipref>clipitem-1129</linkclipref>
											<mediatype>audio</mediatype>
											<trackindex>1</trackindex>
											<clipindex>14</clipindex>
											<groupindex>1</groupindex>
										</link>
										<link>
											<linkclipref>clipitem-1157</linkclipref>
											<mediatype>audio</mediatype>
											<trackindex>2</trackindex>
											<clipindex>14</clipindex>
											<groupindex>1</groupindex>
										</link>
										<logginginfo>
											<description></description>
											<scene></scene>
											<shottake></shottake>
											<lognote></lognote>
											<good></good>
											<originalvideofilename></originalvideofilename>
											<originalaudiofilename></originalaudiofilename>
										</logginginfo>
										<colorinfo>
											<lut></lut>
											<lut1></lut1>
											<asc_sop></asc_sop>
											<asc_sat></asc_sat>
											<lut2></lut2>
										</colorinfo>
										<labels>
											<label2>Caribbean</label2>
										</labels>
									</clipitem>
									<clipitem id="clipitem-1158" premiereChannelType="stereo">
										<masterclipid>masterclip-7</masterclipid>
										<name>ES_Welcome Party People - John Runefelt.mp3</name>
										<enabled>TRUE</enabled>
										<duration>5704</duration>
										<rate>
											<timebase>30</timebase>
											<ntsc>TRUE</ntsc>
										</rate>
										<start>35729</start>
										<end>37391</end>
										<in>0</in>
										<out>1662</out>
										<pproTicksIn>0</pproTicksIn>
										<pproTicksOut>14086558886400</pproTicksOut>
										<file id="file-6"/>
										<sourcetrack>
											<mediatype>audio</mediatype>
											<trackindex>2</trackindex>
										</sourcetrack>
										<link>
											<linkclipref>clipitem-1130</linkclipref>
											<mediatype>audio</mediatype>
											<trackindex>1</trackindex>
											<clipindex>15</clipindex>
											<groupindex>1</groupindex>
										</link>
										<link>
											<linkclipref>clipitem-1158</linkclipref>
											<mediatype>audio</mediatype>
											<trackindex>2</trackindex>
											<clipindex>15</clipindex>
											<groupindex>1</groupindex>
										</link>
										<logginginfo>
											<description></description>
											<scene></scene>
											<shottake></shottake>
											<lognote></lognote>
											<good></good>
											<originalvideofilename></originalvideofilename>
											<originalaudiofilename></originalaudiofilename>
										</logginginfo>
										<colorinfo>
											<lut></lut>
											<lut1></lut1>
											<asc_sop></asc_sop>
											<asc_sat></asc_sat>
											<lut2></lut2>
										</colorinfo>
										<labels>
											<label2>Caribbean</label2>
										</labels>
									</clipitem>
									<clipitem id="clipitem-1159" premiereChannelType="stereo">
										<masterclipid>masterclip-15</masterclipid>
										<name>ES_Violent Heart (Instrumental Version) - Torii Wolf.mp3</name>
										<enabled>TRUE</enabled>
										<duration>5474</duration>
										<rate>
											<timebase>30</timebase>
											<ntsc>TRUE</ntsc>
										</rate>
										<start>37391</start>
										<end>40673</end>
										<in>0</in>
										<out>3282</out>
										<pproTicksIn>0</pproTicksIn>
										<pproTicksOut>27817139750400</pproTicksOut>
										<file id="file-13"/>
										<sourcetrack>
											<mediatype>audio</mediatype>
											<trackindex>2</trackindex>
										</sourcetrack>
										<link>
											<linkclipref>clipitem-1131</linkclipref>
											<mediatype>audio</mediatype>
											<trackindex>1</trackindex>
											<clipindex>16</clipindex>
											<groupindex>1</groupindex>
										</link>
										<link>
											<linkclipref>clipitem-1159</linkclipref>
											<mediatype>audio</mediatype>
											<trackindex>2</trackindex>
											<clipindex>16</clipindex>
											<groupindex>1</groupindex>
										</link>
										<logginginfo>
											<description></description>
											<scene></scene>
											<shottake></shottake>
											<lognote></lognote>
											<good></good>
											<originalvideofilename></originalvideofilename>
											<originalaudiofilename></originalaudiofilename>
										</logginginfo>
										<colorinfo>
											<lut></lut>
											<lut1></lut1>
											<asc_sop></asc_sop>
											<asc_sat></asc_sat>
											<lut2></lut2>
										</colorinfo>
										<labels>
											<label2>Caribbean</label2>
										</labels>
									</clipitem>
									<clipitem id="clipitem-1160" premiereChannelType="stereo">
										<masterclipid>masterclip-28</masterclipid>
										<name>ES_paint him in 3d (Instrumental Version) - Ingrid Witt.mp3</name>
										<enabled>TRUE</enabled>
										<duration>5349</duration>
										<rate>
											<timebase>30</timebase>
											<ntsc>TRUE</ntsc>
										</rate>
										<start>40673</start>
										<end>42532</end>
										<in>0</in>
										<out>1859</out>
										<pproTicksIn>0</pproTicksIn>
										<pproTicksOut>15756265324800</pproTicksOut>
										<file id="file-22"/>
										<sourcetrack>
											<mediatype>audio</mediatype>
											<trackindex>2</trackindex>
										</sourcetrack>
										<link>
											<linkclipref>clipitem-1132</linkclipref>
											<mediatype>audio</mediatype>
											<trackindex>1</trackindex>
											<clipindex>17</clipindex>
											<groupindex>1</groupindex>
										</link>
										<link>
											<linkclipref>clipitem-1160</linkclipref>
											<mediatype>audio</mediatype>
											<trackindex>2</trackindex>
											<clipindex>17</clipindex>
											<groupindex>1</groupindex>
										</link>
										<logginginfo>
											<description></description>
											<scene></scene>
											<shottake></shottake>
											<lognote></lognote>
											<good></good>
											<originalvideofilename></originalvideofilename>
											<originalaudiofilename></originalaudiofilename>
										</logginginfo>
										<colorinfo>
											<lut></lut>
											<lut1></lut1>
											<asc_sop></asc_sop>
											<asc_sat></asc_sat>
											<lut2></lut2>
										</colorinfo>
										<labels>
											<label2>Caribbean</label2>
										</labels>
									</clipitem>
									<clipitem id="clipitem-1161" premiereChannelType="stereo">
										<masterclipid>masterclip-37</masterclipid>
										<name>ES_Getting Lost - Lupus Nocte.mp3</name>
										<enabled>TRUE</enabled>
										<duration>5147</duration>
										<rate>
											<timebase>30</timebase>
											<ntsc>TRUE</ntsc>
										</rate>
										<start>42532</start>
										<end>46102</end>
										<in>0</in>
										<out>3570</out>
										<pproTicksIn>0</pproTicksIn>
										<pproTicksOut>30258131904000</pproTicksOut>
										<file id="file-30"/>
										<sourcetrack>
											<mediatype>audio</mediatype>
											<trackindex>2</trackindex>
										</sourcetrack>
										<link>
											<linkclipref>clipitem-1133</linkclipref>
											<mediatype>audio</mediatype>
											<trackindex>1</trackindex>
											<clipindex>18</clipindex>
											<groupindex>1</groupindex>
										</link>
										<link>
											<linkclipref>clipitem-1161</linkclipref>
											<mediatype>audio</mediatype>
											<trackindex>2</trackindex>
											<clipindex>18</clipindex>
											<groupindex>1</groupindex>
										</link>
										<logginginfo>
											<description></description>
											<scene></scene>
											<shottake></shottake>
											<lognote></lognote>
											<good></good>
											<originalvideofilename></originalvideofilename>
											<originalaudiofilename></originalaudiofilename>
										</logginginfo>
										<colorinfo>
											<lut></lut>
											<lut1></lut1>
											<asc_sop></asc_sop>
											<asc_sat></asc_sat>
											<lut2></lut2>
										</colorinfo>
										<labels>
											<label2>Caribbean</label2>
										</labels>
									</clipitem>
									<clipitem id="clipitem-1162" premiereChannelType="stereo">
										<masterclipid>masterclip-57</masterclipid>
										<name>ES_WHY (Tell Me) (Instrumental Version) - SRA.mp3</name>
										<enabled>TRUE</enabled>
										<duration>5553</duration>
										<rate>
											<timebase>30</timebase>
											<ntsc>TRUE</ntsc>
										</rate>
										<start>46102</start>
										<end>48054</end>
										<in>0</in>
										<out>1952</out>
										<pproTicksIn>0</pproTicksIn>
										<pproTicksOut>16544502374400</pproTicksOut>
										<file id="file-47"/>
										<sourcetrack>
											<mediatype>audio</mediatype>
											<trackindex>2</trackindex>
										</sourcetrack>
										<link>
											<linkclipref>clipitem-1134</linkclipref>
											<mediatype>audio</mediatype>
											<trackindex>1</trackindex>
											<clipindex>19</clipindex>
											<groupindex>1</groupindex>
										</link>
										<link>
											<linkclipref>clipitem-1162</linkclipref>
											<mediatype>audio</mediatype>
											<trackindex>2</trackindex>
											<clipindex>19</clipindex>
											<groupindex>1</groupindex>
										</link>
										<logginginfo>
											<description></description>
											<scene></scene>
											<shottake></shottake>
											<lognote></lognote>
											<good></good>
											<originalvideofilename></originalvideofilename>
											<originalaudiofilename></originalaudiofilename>
										</logginginfo>
										<colorinfo>
											<lut></lut>
											<lut1></lut1>
											<asc_sop></asc_sop>
											<asc_sat></asc_sat>
											<lut2></lut2>
										</colorinfo>
										<labels>
											<label2>Caribbean</label2>
										</labels>
									</clipitem>
									<clipitem id="clipitem-1163" premiereChannelType="stereo">
										<masterclipid>masterclip-66</masterclipid>
										<name>ES_Arcadewave - Lupus Nocte.mp3</name>
										<enabled>TRUE</enabled>
										<duration>4644</duration>
										<rate>
											<timebase>30</timebase>
											<ntsc>TRUE</ntsc>
										</rate>
										<start>48054</start>
										<end>51561</end>
										<in>0</in>
										<out>3507</out>
										<pproTicksIn>0</pproTicksIn>
										<pproTicksOut>29724164870400</pproTicksOut>
										<file id="file-55"/>
										<sourcetrack>
											<mediatype>audio</mediatype>
											<trackindex>2</trackindex>
										</sourcetrack>
										<link>
											<linkclipref>clipitem-1135</linkclipref>
											<mediatype>audio</mediatype>
											<trackindex>1</trackindex>
											<clipindex>20</clipindex>
											<groupindex>1</groupindex>
										</link>
										<link>
											<linkclipref>clipitem-1163</linkclipref>
											<mediatype>audio</mediatype>
											<trackindex>2</trackindex>
											<clipindex>20</clipindex>
											<groupindex>1</groupindex>
										</link>
										<logginginfo>
											<description></description>
											<scene></scene>
											<shottake></shottake>
											<lognote></lognote>
											<good></good>
											<originalvideofilename></originalvideofilename>
											<originalaudiofilename></originalaudiofilename>
										</logginginfo>
										<colorinfo>
											<lut></lut>
											<lut1></lut1>
											<asc_sop></asc_sop>
											<asc_sat></asc_sat>
											<lut2></lut2>
										</colorinfo>
										<labels>
											<label2>Caribbean</label2>
										</labels>
									</clipitem>
									<clipitem id="clipitem-1164" premiereChannelType="stereo">
										<masterclipid>masterclip-76</masterclipid>
										<name>ES_Why Not_ - Victor Lundberg.mp3</name>
										<enabled>TRUE</enabled>
										<duration>6532</duration>
										<rate>
											<timebase>30</timebase>
											<ntsc>TRUE</ntsc>
										</rate>
										<start>51561</start>
										<end>54943</end>
										<in>0</in>
										<out>3382</out>
										<pproTicksIn>0</pproTicksIn>
										<pproTicksOut>28664706470400</pproTicksOut>
										<file id="file-64"/>
										<sourcetrack>
											<mediatype>audio</mediatype>
											<trackindex>2</trackindex>
										</sourcetrack>
										<link>
											<linkclipref>clipitem-1136</linkclipref>
											<mediatype>audio</mediatype>
											<trackindex>1</trackindex>
											<clipindex>21</clipindex>
											<groupindex>1</groupindex>
										</link>
										<link>
											<linkclipref>clipitem-1164</linkclipref>
											<mediatype>audio</mediatype>
											<trackindex>2</trackindex>
											<clipindex>21</clipindex>
											<groupindex>1</groupindex>
										</link>
										<logginginfo>
											<description></description>
											<scene></scene>
											<shottake></shottake>
											<lognote></lognote>
											<good></good>
											<originalvideofilename></originalvideofilename>
											<originalaudiofilename></originalaudiofilename>
										</logginginfo>
										<colorinfo>
											<lut></lut>
											<lut1></lut1>
											<asc_sop></asc_sop>
											<asc_sat></asc_sat>
											<lut2></lut2>
										</colorinfo>
										<labels>
											<label2>Caribbean</label2>
										</labels>
									</clipitem>
									<clipitem id="clipitem-1165" premiereChannelType="stereo">
										<masterclipid>masterclip-85</masterclipid>
										<name>ES_My Trust in You - Daniel Fridell.mp3</name>
										<enabled>TRUE</enabled>
										<duration>7568</duration>
										<rate>
											<timebase>30</timebase>
											<ntsc>TRUE</ntsc>
										</rate>
										<start>54943</start>
										<end>56798</end>
										<in>0</in>
										<out>1855</out>
										<pproTicksIn>0</pproTicksIn>
										<pproTicksOut>15722362656000</pproTicksOut>
										<file id="file-72"/>
										<sourcetrack>
											<mediatype>audio</mediatype>
											<trackindex>2</trackindex>
										</sourcetrack>
										<link>
											<linkclipref>clipitem-1137</linkclipref>
											<mediatype>audio</mediatype>
											<trackindex>1</trackindex>
											<clipindex>22</clipindex>
											<groupindex>1</groupindex>
										</link>
										<link>
											<linkclipref>clipitem-1165</linkclipref>
											<mediatype>audio</mediatype>
											<trackindex>2</trackindex>
											<clipindex>22</clipindex>
											<groupindex>1</groupindex>
										</link>
										<logginginfo>
											<description></description>
											<scene></scene>
											<shottake></shottake>
											<lognote></lognote>
											<good></good>
											<originalvideofilename></originalvideofilename>
											<originalaudiofilename></originalaudiofilename>
										</logginginfo>
										<colorinfo>
											<lut></lut>
											<lut1></lut1>
											<asc_sop></asc_sop>
											<asc_sat></asc_sat>
											<lut2></lut2>
										</colorinfo>
										<labels>
											<label2>Caribbean</label2>
										</labels>
									</clipitem>
									<clipitem id="clipitem-1166" premiereChannelType="stereo">
										<masterclipid>masterclip-102</masterclipid>
										<name>ES_Aquatic Flower Dance - Ryan James Carr.mp3</name>
										<enabled>TRUE</enabled>
										<duration>4542</duration>
										<rate>
											<timebase>30</timebase>
											<ntsc>TRUE</ntsc>
										</rate>
										<start>56798</start>
										<end>59139</end>
										<in>0</in>
										<out>2341</out>
										<pproTicksIn>0</pproTicksIn>
										<pproTicksOut>19841536915200</pproTicksOut>
										<file id="file-88"/>
										<sourcetrack>
											<mediatype>audio</mediatype>
											<trackindex>2</trackindex>
										</sourcetrack>
										<link>
											<linkclipref>clipitem-1138</linkclipref>
											<mediatype>audio</mediatype>
											<trackindex>1</trackindex>
											<clipindex>23</clipindex>
											<groupindex>1</groupindex>
										</link>
										<link>
											<linkclipref>clipitem-1166</linkclipref>
											<mediatype>audio</mediatype>
											<trackindex>2</trackindex>
											<clipindex>23</clipindex>
											<groupindex>1</groupindex>
										</link>
										<logginginfo>
											<description></description>
											<scene></scene>
											<shottake></shottake>
											<lognote></lognote>
											<good></good>
											<originalvideofilename></originalvideofilename>
											<originalaudiofilename></originalaudiofilename>
										</logginginfo>
										<colorinfo>
											<lut></lut>
											<lut1></lut1>
											<asc_sop></asc_sop>
											<asc_sat></asc_sat>
											<lut2></lut2>
										</colorinfo>
										<labels>
											<label2>Caribbean</label2>
										</labels>
									</clipitem>
									<clipitem id="clipitem-1167" premiereChannelType="stereo">
										<masterclipid>masterclip-110</masterclipid>
										<name>ES_Basement Vibes (Instrumental Version) - DAJANA.mp3</name>
										<enabled>TRUE</enabled>
										<duration>4641</duration>
										<rate>
											<timebase>30</timebase>
											<ntsc>TRUE</ntsc>
										</rate>
										<start>59139</start>
										<end>61737</end>
										<in>0</in>
										<out>2598</out>
										<pproTicksIn>0</pproTicksIn>
										<pproTicksOut>22019783385600</pproTicksOut>
										<file id="file-95"/>
										<sourcetrack>
											<mediatype>audio</mediatype>
											<trackindex>2</trackindex>
										</sourcetrack>
										<link>
											<linkclipref>clipitem-1139</linkclipref>
											<mediatype>audio</mediatype>
											<trackindex>1</trackindex>
											<clipindex>24</clipindex>
											<groupindex>1</groupindex>
										</link>
										<link>
											<linkclipref>clipitem-1167</linkclipref>
											<mediatype>audio</mediatype>
											<trackindex>2</trackindex>
											<clipindex>24</clipindex>
											<groupindex>1</groupindex>
										</link>
										<logginginfo>
											<description></description>
											<scene></scene>
											<shottake></shottake>
											<lognote></lognote>
											<good></good>
											<originalvideofilename></originalvideofilename>
											<originalaudiofilename></originalaudiofilename>
										</logginginfo>
										<colorinfo>
											<lut></lut>
											<lut1></lut1>
											<asc_sop></asc_sop>
											<asc_sat></asc_sat>
											<lut2></lut2>
										</colorinfo>
										<labels>
											<label2>Caribbean</label2>
										</labels>
									</clipitem>
									<clipitem id="clipitem-1168" premiereChannelType="stereo">
										<masterclipid>masterclip-122</masterclipid>
										<name>ES_Shroom Stew - El Flaco Collective.mp3</name>
										<enabled>TRUE</enabled>
										<duration>6592</duration>
										<rate>
											<timebase>30</timebase>
											<ntsc>TRUE</ntsc>
										</rate>
										<start>61737</start>
										<end>65187</end>
										<in>0</in>
										<out>3450</out>
										<pproTicksIn>0</pproTicksIn>
										<pproTicksOut>29241051840000</pproTicksOut>
										<file id="file-105"/>
										<sourcetrack>
											<mediatype>audio</mediatype>
											<trackindex>2</trackindex>
										</sourcetrack>
										<link>
											<linkclipref>clipitem-1140</linkclipref>
											<mediatype>audio</mediatype>
											<trackindex>1</trackindex>
											<clipindex>25</clipindex>
											<groupindex>1</groupindex>
										</link>
										<link>
											<linkclipref>clipitem-1168</linkclipref>
											<mediatype>audio</mediatype>
											<trackindex>2</trackindex>
											<clipindex>25</clipindex>
											<groupindex>1</groupindex>
										</link>
										<logginginfo>
											<description></description>
											<scene></scene>
											<shottake></shottake>
											<lognote></lognote>
											<good></good>
											<originalvideofilename></originalvideofilename>
											<originalaudiofilename></originalaudiofilename>
										</logginginfo>
										<colorinfo>
											<lut></lut>
											<lut1></lut1>
											<asc_sop></asc_sop>
											<asc_sat></asc_sat>
											<lut2></lut2>
										</colorinfo>
										<labels>
											<label2>Caribbean</label2>
										</labels>
									</clipitem>
									<clipitem id="clipitem-1169" premiereChannelType="stereo">
										<masterclipid>masterclip-132</masterclipid>
										<name>ES_Imagination Celebration - Ryan James Carr.mp3</name>
										<enabled>TRUE</enabled>
										<duration>4653</duration>
										<rate>
											<timebase>30</timebase>
											<ntsc>TRUE</ntsc>
										</rate>
										<start>65187</start>
										<end>67034</end>
										<in>0</in>
										<out>1847</out>
										<pproTicksIn>0</pproTicksIn>
										<pproTicksOut>15654557318400</pproTicksOut>
										<file id="file-114"/>
										<sourcetrack>
											<mediatype>audio</mediatype>
											<trackindex>2</trackindex>
										</sourcetrack>
										<link>
											<linkclipref>clipitem-1141</linkclipref>
											<mediatype>audio</mediatype>
											<trackindex>1</trackindex>
											<clipindex>26</clipindex>
											<groupindex>1</groupindex>
										</link>
										<link>
											<linkclipref>clipitem-1169</linkclipref>
											<mediatype>audio</mediatype>
											<trackindex>2</trackindex>
											<clipindex>26</clipindex>
											<groupindex>1</groupindex>
										</link>
										<logginginfo>
											<description></description>
											<scene></scene>
											<shottake></shottake>
											<lognote></lognote>
											<good></good>
											<originalvideofilename></originalvideofilename>
											<originalaudiofilename></originalaudiofilename>
										</logginginfo>
										<colorinfo>
											<lut></lut>
											<lut1></lut1>
											<asc_sop></asc_sop>
											<asc_sat></asc_sat>
											<lut2></lut2>
										</colorinfo>
										<labels>
											<label2>Caribbean</label2>
										</labels>
									</clipitem>
									<clipitem id="clipitem-1170" premiereChannelType="stereo">
										<masterclipid>masterclip-138</masterclipid>
										<name>ES_Anticipation - Future Joust.mp3</name>
										<enabled>TRUE</enabled>
										<duration>6353</duration>
										<rate>
											<timebase>30</timebase>
											<ntsc>TRUE</ntsc>
										</rate>
										<start>67034</start>
										<end>68601</end>
										<in>0</in>
										<out>1567</out>
										<pproTicksIn>0</pproTicksIn>
										<pproTicksOut>13281370502400</pproTicksOut>
										<file id="file-119"/>
										<sourcetrack>
											<mediatype>audio</mediatype>
											<trackindex>2</trackindex>
										</sourcetrack>
										<link>
											<linkclipref>clipitem-1142</linkclipref>
											<mediatype>audio</mediatype>
											<trackindex>1</trackindex>
											<clipindex>27</clipindex>
											<groupindex>1</groupindex>
										</link>
										<link>
											<linkclipref>clipitem-1170</linkclipref>
											<mediatype>audio</mediatype>
											<trackindex>2</trackindex>
											<clipindex>27</clipindex>
											<groupindex>1</groupindex>
										</link>
										<logginginfo>
											<description></description>
											<scene></scene>
											<shottake></shottake>
											<lognote></lognote>
											<good></good>
											<originalvideofilename></originalvideofilename>
											<originalaudiofilename></originalaudiofilename>
										</logginginfo>
										<colorinfo>
											<lut></lut>
											<lut1></lut1>
											<asc_sop></asc_sop>
											<asc_sat></asc_sat>
											<lut2></lut2>
										</colorinfo>
										<labels>
											<label2>Caribbean</label2>
										</labels>
									</clipitem>
									<clipitem id="clipitem-1171" premiereChannelType="stereo">
										<masterclipid>masterclip-145</masterclipid>
										<name>ES_Just a Little Bit (Instrumental Version) - Chris Shards.mp3</name>
										<enabled>TRUE</enabled>
										<duration>5435</duration>
										<rate>
											<timebase>30</timebase>
											<ntsc>TRUE</ntsc>
										</rate>
										<start>68601</start>
										<end>71961</end>
										<in>0</in>
										<out>3360</out>
										<pproTicksIn>0</pproTicksIn>
										<pproTicksOut>28478241792000</pproTicksOut>
										<file id="file-125"/>
										<sourcetrack>
											<mediatype>audio</mediatype>
											<trackindex>2</trackindex>
										</sourcetrack>
										<link>
											<linkclipref>clipitem-1143</linkclipref>
											<mediatype>audio</mediatype>
											<trackindex>1</trackindex>
											<clipindex>28</clipindex>
											<groupindex>1</groupindex>
										</link>
										<link>
											<linkclipref>clipitem-1171</linkclipref>
											<mediatype>audio</mediatype>
											<trackindex>2</trackindex>
											<clipindex>28</clipindex>
											<groupindex>1</groupindex>
										</link>
										<logginginfo>
											<description></description>
											<scene></scene>
											<shottake></shottake>
											<lognote></lognote>
											<good></good>
											<originalvideofilename></originalvideofilename>
											<originalaudiofilename></originalaudiofilename>
										</logginginfo>
										<colorinfo>
											<lut></lut>
											<lut1></lut1>
											<asc_sop></asc_sop>
											<asc_sat></asc_sat>
											<lut2></lut2>
										</colorinfo>
										<labels>
											<label2>Caribbean</label2>
										</labels>
									</clipitem>
									<enabled>TRUE</enabled>
									<locked>FALSE</locked>
									<outputchannelindex>2</outputchannelindex>
								</track>
								<track TL.SQTrackAudioKeyframeStyle="0" TL.SQTrackShy="0" TL.SQTrackExpandedHeight="25" TL.SQTrackExpanded="0" MZ.TrackTargeted="1" PannerCurrentValue="0.5" PannerIsInverted="true" PannerStartKeyframe="-91445760000000000,0.5,0,0,0,0,0,0" PannerName="Balance" currentExplodedTrackIndex="0" totalExplodedTrackCount="2" premiereTrackType="Stereo">
									<enabled>TRUE</enabled>
									<locked>FALSE</locked>
									<outputchannelindex>1</outputchannelindex>
								</track>
								<track TL.SQTrackAudioKeyframeStyle="0" TL.SQTrackShy="0" TL.SQTrackExpandedHeight="25" TL.SQTrackExpanded="0" MZ.TrackTargeted="1" PannerCurrentValue="0.5" PannerIsInverted="true" PannerStartKeyframe="-91445760000000000,0.5,0,0,0,0,0,0" PannerName="Balance" currentExplodedTrackIndex="1" totalExplodedTrackCount="2" premiereTrackType="Stereo">
									<enabled>TRUE</enabled>
									<locked>FALSE</locked>
									<outputchannelindex>2</outputchannelindex>
								</track>
								<track TL.SQTrackAudioKeyframeStyle="0" TL.SQTrackShy="0" TL.SQTrackExpandedHeight="25" TL.SQTrackExpanded="0" MZ.TrackTargeted="1" PannerCurrentValue="0.5" PannerIsInverted="true" PannerStartKeyframe="-91445760000000000,0.5,0,0,0,0,0,0" PannerName="Balance" currentExplodedTrackIndex="0" totalExplodedTrackCount="2" premiereTrackType="Stereo">
									<enabled>TRUE</enabled>
									<locked>FALSE</locked>
									<outputchannelindex>1</outputchannelindex>
								</track>
								<track TL.SQTrackAudioKeyframeStyle="0" TL.SQTrackShy="0" TL.SQTrackExpandedHeight="25" TL.SQTrackExpanded="0" MZ.TrackTargeted="1" PannerCurrentValue="0.5" PannerIsInverted="true" PannerStartKeyframe="-91445760000000000,0.5,0,0,0,0,0,0" PannerName="Balance" currentExplodedTrackIndex="1" totalExplodedTrackCount="2" premiereTrackType="Stereo">
									<enabled>TRUE</enabled>
									<locked>FALSE</locked>
									<outputchannelindex>2</outputchannelindex>
								</track>
							</audio>
						</media>
						<timecode>
							<rate>
								<timebase>30</timebase>
								<ntsc>TRUE</ntsc>
							</rate>
							<string>00;00;00;00</string>
							<frame>0</frame>
							<displayformat>DF</displayformat>
						</timecode>
						<labels>
							<label2>Forest</label2>
						</labels>
						<logginginfo>
							<description></description>
							<scene></scene>
							<shottake></shottake>
							<lognote></lognote>
							<good></good>
							<originalvideofilename></originalvideofilename>
							<originalaudiofilename></originalaudiofilename>
						</logginginfo>
					</sequence>
				</children>
			</bin>
			<bin>
				<name>1_Raw Footage</name>
				<labels>
					<label2>Mango</label2>
				</labels>
				<children>
					<clip id="masterclip-234" explodedTracks="true">
						<uuid>e1fa8a56-beb2-45e5-ad39-75dec024818b</uuid>
						<masterclipid>masterclip-234</masterclipid>
						<ismasterclip>TRUE</ismasterclip>
						<duration>14198</duration>
						<rate>
							<timebase>30</timebase>
							<ntsc>TRUE</ntsc>
						</rate>
						<in>7005</in>
						<out>7284</out>
						<name>(eatsbyrachel)_Recreating Popular Brunch Toast from LA &amp; NYC (Davelle, Sqirl, &amp; Lodge Bread Co)_ExJXAxwy_GA_YT.mp4</name>
						<media>
							<video>
								<track>
									<clipitem id="clipitem-1172">
										<masterclipid>masterclip-234</masterclipid>
										<name>(eatsbyrachel)_Recreating Popular Brunch Toast from LA &amp; NYC (Davelle, Sqirl, &amp; Lodge Bread Co)_ExJXAxwy_GA_YT.mp4</name>
										<rate>
											<timebase>30</timebase>
											<ntsc>TRUE</ntsc>
										</rate>
										<alphatype>none</alphatype>
										<file id="file-201"/>
										<link>
											<linkclipref>clipitem-1172</linkclipref>
											<mediatype>video</mediatype>
											<trackindex>1</trackindex>
											<clipindex>1</clipindex>
										</link>
										<link>
											<linkclipref>clipitem-1173</linkclipref>
											<mediatype>audio</mediatype>
											<trackindex>1</trackindex>
											<clipindex>1</clipindex>
											<groupindex>1</groupindex>
										</link>
										<link>
											<linkclipref>clipitem-1174</linkclipref>
											<mediatype>audio</mediatype>
											<trackindex>2</trackindex>
											<clipindex>1</clipindex>
											<groupindex>1</groupindex>
										</link>
									</clipitem>
								</track>
							</video>
							<audio>
								<track>
									<clipitem id="clipitem-1173">
										<masterclipid>masterclip-234</masterclipid>
										<name>(eatsbyrachel)_Recreating Popular Brunch Toast from LA &amp; NYC (Davelle, Sqirl, &amp; Lodge Bread Co)_ExJXAxwy_GA_YT.mp4</name>
										<rate>
											<timebase>30</timebase>
											<ntsc>TRUE</ntsc>
										</rate>
										<file id="file-201"/>
										<sourcetrack>
											<mediatype>audio</mediatype>
											<trackindex>1</trackindex>
										</sourcetrack>
										<link>
											<linkclipref>clipitem-1172</linkclipref>
											<mediatype>video</mediatype>
											<trackindex>1</trackindex>
											<clipindex>1</clipindex>
										</link>
										<link>
											<linkclipref>clipitem-1173</linkclipref>
											<mediatype>audio</mediatype>
											<trackindex>1</trackindex>
											<clipindex>1</clipindex>
											<groupindex>1</groupindex>
										</link>
										<link>
											<linkclipref>clipitem-1174</linkclipref>
											<mediatype>audio</mediatype>
											<trackindex>2</trackindex>
											<clipindex>1</clipindex>
											<groupindex>1</groupindex>
										</link>
									</clipitem>
								</track>
								<track>
									<clipitem id="clipitem-1174">
										<masterclipid>masterclip-234</masterclipid>
										<name>(eatsbyrachel)_Recreating Popular Brunch Toast from LA &amp; NYC (Davelle, Sqirl, &amp; Lodge Bread Co)_ExJXAxwy_GA_YT.mp4</name>
										<rate>
											<timebase>30</timebase>
											<ntsc>TRUE</ntsc>
										</rate>
										<file id="file-201"/>
										<sourcetrack>
											<mediatype>audio</mediatype>
											<trackindex>2</trackindex>
										</sourcetrack>
										<link>
											<linkclipref>clipitem-1172</linkclipref>
											<mediatype>video</mediatype>
											<trackindex>1</trackindex>
											<clipindex>1</clipindex>
										</link>
										<link>
											<linkclipref>clipitem-1173</linkclipref>
											<mediatype>audio</mediatype>
											<trackindex>1</trackindex>
											<clipindex>1</clipindex>
											<groupindex>1</groupindex>
										</link>
										<link>
											<linkclipref>clipitem-1174</linkclipref>
											<mediatype>audio</mediatype>
											<trackindex>2</trackindex>
											<clipindex>1</clipindex>
											<groupindex>1</groupindex>
										</link>
									</clipitem>
								</track>
							</audio>
						</media>
						<logginginfo>
							<description>Recreating Popular Brunch Toast from LA &amp; NYC (Davelle, Sqirl, &amp; Lodge Bread Co)</description>
							<scene></scene>
							<shottake></shottake>
							<lognote>https://www.youtube.com/watch?v=ExJXAxwy_GA</lognote>
							<good></good>
							<originalvideofilename></originalvideofilename>
							<originalaudiofilename></originalaudiofilename>
						</logginginfo>
						<colorinfo>
							<lut></lut>
							<lut1></lut1>
							<asc_sop></asc_sop>
							<asc_sat></asc_sat>
							<lut2></lut2>
						</colorinfo>
						<labels>
							<label2>Violet</label2>
						</labels>
					</clip>
					<bin>
						<name>Confectionary Casseroles</name>
						<children>
							<clip id="masterclip-106" explodedTracks="true">
								<uuid>bd654e84-ff25-4ef3-ba46-7fe5f4abe928</uuid>
								<masterclipid>masterclip-106</masterclipid>
								<ismasterclip>TRUE</ismasterclip>
								<duration>441</duration>
								<rate>
									<timebase>30</timebase>
									<ntsc>FALSE</ntsc>
								</rate>
								<name>(aquickspoonful)_CqrH4zLN_GX_IG.mp4</name>
								<media>
									<video>
										<track>
											<clipitem id="clipitem-1175">
												<masterclipid>masterclip-106</masterclipid>
												<name>(aquickspoonful)_CqrH4zLN_GX_IG.mp4</name>
												<rate>
													<timebase>30</timebase>
													<ntsc>FALSE</ntsc>
												</rate>
												<alphatype>none</alphatype>
												<file id="file-91"/>
												<link>
													<linkclipref>clipitem-1175</linkclipref>
													<mediatype>video</mediatype>
													<trackindex>1</trackindex>
													<clipindex>1</clipindex>
												</link>
												<link>
													<linkclipref>clipitem-1176</linkclipref>
													<mediatype>audio</mediatype>
													<trackindex>1</trackindex>
													<clipindex>1</clipindex>
												</link>
											</clipitem>
										</track>
									</video>
									<audio>
										<track>
											<clipitem id="clipitem-1176">
												<masterclipid>masterclip-106</masterclipid>
												<name>(aquickspoonful)_CqrH4zLN_GX_IG.mp4</name>
												<rate>
													<timebase>30</timebase>
													<ntsc>FALSE</ntsc>
												</rate>
												<file id="file-91"/>
												<sourcetrack>
													<mediatype>audio</mediatype>
													<trackindex>1</trackindex>
												</sourcetrack>
												<link>
													<linkclipref>clipitem-1175</linkclipref>
													<mediatype>video</mediatype>
													<trackindex>1</trackindex>
													<clipindex>1</clipindex>
												</link>
												<link>
													<linkclipref>clipitem-1176</linkclipref>
													<mediatype>audio</mediatype>
													<trackindex>1</trackindex>
													<clipindex>1</clipindex>
												</link>
											</clipitem>
										</track>
									</audio>
								</media>
								<logginginfo>
									<description></description>
									<scene></scene>
									<shottake></shottake>
									<lognote></lognote>
									<good></good>
									<originalvideofilename></originalvideofilename>
									<originalaudiofilename></originalaudiofilename>
								</logginginfo>
								<colorinfo>
									<lut></lut>
									<lut1></lut1>
									<asc_sop></asc_sop>
									<asc_sat></asc_sat>
									<lut2></lut2>
								</colorinfo>
								<labels>
								</labels>
							</clip>
							<clip id="masterclip-108" explodedTracks="true">
								<uuid>5d168814-5a35-4803-808d-2f5b5080194d</uuid>
								<masterclipid>masterclip-108</masterclipid>
								<ismasterclip>TRUE</ismasterclip>
								<duration>430</duration>
								<rate>
									<timebase>30</timebase>
									<ntsc>FALSE</ntsc>
								</rate>
								<name>(aquickspoonful)_Cr6FrG0g6xs_IG.mp4</name>
								<media>
									<video>
										<track>
											<clipitem id="clipitem-1177">
												<masterclipid>masterclip-108</masterclipid>
												<name>(aquickspoonful)_Cr6FrG0g6xs_IG.mp4</name>
												<rate>
													<timebase>30</timebase>
													<ntsc>FALSE</ntsc>
												</rate>
												<alphatype>none</alphatype>
												<file id="file-93"/>
												<link>
													<linkclipref>clipitem-1177</linkclipref>
													<mediatype>video</mediatype>
													<trackindex>1</trackindex>
													<clipindex>1</clipindex>
												</link>
												<link>
													<linkclipref>clipitem-1178</linkclipref>
													<mediatype>audio</mediatype>
													<trackindex>1</trackindex>
													<clipindex>1</clipindex>
												</link>
											</clipitem>
										</track>
									</video>
									<audio>
										<track>
											<clipitem id="clipitem-1178">
												<masterclipid>masterclip-108</masterclipid>
												<name>(aquickspoonful)_Cr6FrG0g6xs_IG.mp4</name>
												<rate>
													<timebase>30</timebase>
													<ntsc>FALSE</ntsc>
												</rate>
												<file id="file-93"/>
												<sourcetrack>
													<mediatype>audio</mediatype>
													<trackindex>1</trackindex>
												</sourcetrack>
												<link>
													<linkclipref>clipitem-1177</linkclipref>
													<mediatype>video</mediatype>
													<trackindex>1</trackindex>
													<clipindex>1</clipindex>
												</link>
												<link>
													<linkclipref>clipitem-1178</linkclipref>
													<mediatype>audio</mediatype>
													<trackindex>1</trackindex>
													<clipindex>1</clipindex>
												</link>
											</clipitem>
										</track>
									</audio>
								</media>
								<logginginfo>
									<description></description>
									<scene></scene>
									<shottake></shottake>
									<lognote></lognote>
									<good></good>
									<originalvideofilename></originalvideofilename>
									<originalaudiofilename></originalaudiofilename>
								</logginginfo>
								<colorinfo>
									<lut></lut>
									<lut1></lut1>
									<asc_sop></asc_sop>
									<asc_sat></asc_sat>
									<lut2></lut2>
								</colorinfo>
								<labels>
								</labels>
							</clip>
							<clip id="masterclip-105" explodedTracks="true">
								<uuid>956be3d2-8a0d-44e1-a881-eb4b332dd71c</uuid>
								<masterclipid>masterclip-105</masterclipid>
								<ismasterclip>TRUE</ismasterclip>
								<duration>428</duration>
								<rate>
									<timebase>30</timebase>
									<ntsc>FALSE</ntsc>
								</rate>
								<name>(aquickspoonful)_CrhMm14svhT_IG.mp4</name>
								<media>
									<video>
										<track>
											<clipitem id="clipitem-1179">
												<masterclipid>masterclip-105</masterclipid>
												<name>(aquickspoonful)_CrhMm14svhT_IG.mp4</name>
												<rate>
													<timebase>30</timebase>
													<ntsc>FALSE</ntsc>
												</rate>
												<alphatype>none</alphatype>
												<file id="file-90"/>
												<link>
													<linkclipref>clipitem-1179</linkclipref>
													<mediatype>video</mediatype>
													<trackindex>1</trackindex>
													<clipindex>1</clipindex>
												</link>
												<link>
													<linkclipref>clipitem-1180</linkclipref>
													<mediatype>audio</mediatype>
													<trackindex>1</trackindex>
													<clipindex>1</clipindex>
												</link>
											</clipitem>
										</track>
									</video>
									<audio>
										<track>
											<clipitem id="clipitem-1180">
												<masterclipid>masterclip-105</masterclipid>
												<name>(aquickspoonful)_CrhMm14svhT_IG.mp4</name>
												<rate>
													<timebase>30</timebase>
													<ntsc>FALSE</ntsc>
												</rate>
												<file id="file-90"/>
												<sourcetrack>
													<mediatype>audio</mediatype>
													<trackindex>1</trackindex>
												</sourcetrack>
												<link>
													<linkclipref>clipitem-1179</linkclipref>
													<mediatype>video</mediatype>
													<trackindex>1</trackindex>
													<clipindex>1</clipindex>
												</link>
												<link>
													<linkclipref>clipitem-1180</linkclipref>
													<mediatype>audio</mediatype>
													<trackindex>1</trackindex>
													<clipindex>1</clipindex>
												</link>
											</clipitem>
										</track>
									</audio>
								</media>
								<logginginfo>
									<description></description>
									<scene></scene>
									<shottake></shottake>
									<lognote></lognote>
									<good></good>
									<originalvideofilename></originalvideofilename>
									<originalaudiofilename></originalaudiofilename>
								</logginginfo>
								<colorinfo>
									<lut></lut>
									<lut1></lut1>
									<asc_sop></asc_sop>
									<asc_sat></asc_sat>
									<lut2></lut2>
								</colorinfo>
								<labels>
								</labels>
							</clip>
							<clip id="masterclip-107" explodedTracks="true">
								<uuid>c6693483-1621-4318-b53c-b5791da83d6f</uuid>
								<masterclipid>masterclip-107</masterclipid>
								<ismasterclip>TRUE</ismasterclip>
								<duration>433</duration>
								<rate>
									<timebase>30</timebase>
									<ntsc>FALSE</ntsc>
								</rate>
								<name>(aquickspoonful)_CsXRW6_OFdm_IG.mp4</name>
								<media>
									<video>
										<track>
											<clipitem id="clipitem-1181">
												<masterclipid>masterclip-107</masterclipid>
												<name>(aquickspoonful)_CsXRW6_OFdm_IG.mp4</name>
												<rate>
													<timebase>30</timebase>
													<ntsc>FALSE</ntsc>
												</rate>
												<alphatype>none</alphatype>
												<file id="file-92"/>
												<link>
													<linkclipref>clipitem-1181</linkclipref>
													<mediatype>video</mediatype>
													<trackindex>1</trackindex>
													<clipindex>1</clipindex>
												</link>
												<link>
													<linkclipref>clipitem-1182</linkclipref>
													<mediatype>audio</mediatype>
													<trackindex>1</trackindex>
													<clipindex>1</clipindex>
												</link>
											</clipitem>
										</track>
									</video>
									<audio>
										<track>
											<clipitem id="clipitem-1182">
												<masterclipid>masterclip-107</masterclipid>
												<name>(aquickspoonful)_CsXRW6_OFdm_IG.mp4</name>
												<rate>
													<timebase>30</timebase>
													<ntsc>FALSE</ntsc>
												</rate>
												<file id="file-92"/>
												<sourcetrack>
													<mediatype>audio</mediatype>
													<trackindex>1</trackindex>
												</sourcetrack>
												<link>
													<linkclipref>clipitem-1181</linkclipref>
													<mediatype>video</mediatype>
													<trackindex>1</trackindex>
													<clipindex>1</clipindex>
												</link>
												<link>
													<linkclipref>clipitem-1182</linkclipref>
													<mediatype>audio</mediatype>
													<trackindex>1</trackindex>
													<clipindex>1</clipindex>
												</link>
											</clipitem>
										</track>
									</audio>
								</media>
								<logginginfo>
									<description></description>
									<scene></scene>
									<shottake></shottake>
									<lognote></lognote>
									<good></good>
									<originalvideofilename></originalvideofilename>
									<originalaudiofilename></originalaudiofilename>
								</logginginfo>
								<colorinfo>
									<lut></lut>
									<lut1></lut1>
									<asc_sop></asc_sop>
									<asc_sat></asc_sat>
									<lut2></lut2>
								</colorinfo>
								<labels>
								</labels>
							</clip>
							<clip id="masterclip-104" explodedTracks="true">
								<uuid>dedf429f-c455-47db-bb0d-69bba7b9f41a</uuid>
								<masterclipid>masterclip-104</masterclipid>
								<ismasterclip>TRUE</ismasterclip>
								<duration>421</duration>
								<rate>
									<timebase>30</timebase>
									<ntsc>FALSE</ntsc>
								</rate>
								<name>(aquickspoonful)_CtCL7euRzZF_IG.mp4</name>
								<media>
									<video>
										<track>
											<clipitem id="clipitem-1183">
												<masterclipid>masterclip-104</masterclipid>
												<name>(aquickspoonful)_CtCL7euRzZF_IG.mp4</name>
												<rate>
													<timebase>30</timebase>
													<ntsc>FALSE</ntsc>
												</rate>
												<alphatype>none</alphatype>
												<file id="file-89"/>
												<link>
													<linkclipref>clipitem-1183</linkclipref>
													<mediatype>video</mediatype>
													<trackindex>1</trackindex>
													<clipindex>1</clipindex>
												</link>
												<link>
													<linkclipref>clipitem-1184</linkclipref>
													<mediatype>audio</mediatype>
													<trackindex>1</trackindex>
													<clipindex>1</clipindex>
												</link>
											</clipitem>
										</track>
									</video>
									<audio>
										<track>
											<clipitem id="clipitem-1184">
												<masterclipid>masterclip-104</masterclipid>
												<name>(aquickspoonful)_CtCL7euRzZF_IG.mp4</name>
												<rate>
													<timebase>30</timebase>
													<ntsc>FALSE</ntsc>
												</rate>
												<file id="file-89"/>
												<sourcetrack>
													<mediatype>audio</mediatype>
													<trackindex>1</trackindex>
												</sourcetrack>
												<link>
													<linkclipref>clipitem-1183</linkclipref>
													<mediatype>video</mediatype>
													<trackindex>1</trackindex>
													<clipindex>1</clipindex>
												</link>
												<link>
													<linkclipref>clipitem-1184</linkclipref>
													<mediatype>audio</mediatype>
													<trackindex>1</trackindex>
													<clipindex>1</clipindex>
												</link>
											</clipitem>
										</track>
									</audio>
								</media>
								<logginginfo>
									<description></description>
									<scene></scene>
									<shottake></shottake>
									<lognote></lognote>
									<good></good>
									<originalvideofilename></originalvideofilename>
									<originalaudiofilename></originalaudiofilename>
								</logginginfo>
								<colorinfo>
									<lut></lut>
									<lut1></lut1>
									<asc_sop></asc_sop>
									<asc_sat></asc_sat>
									<lut2></lut2>
								</colorinfo>
								<labels>
									<label2>Violet</label2>
								</labels>
							</clip>
							<clip id="masterclip-109" explodedTracks="true">
								<uuid>224799bc-813d-43c3-a637-51b0a8ba08f2</uuid>
								<masterclipid>masterclip-109</masterclipid>
								<ismasterclip>TRUE</ismasterclip>
								<duration>451</duration>
								<rate>
									<timebase>30</timebase>
									<ntsc>FALSE</ntsc>
								</rate>
								<name>(aquickspoonful)_CtWyQ1ag-is_IG.mp4</name>
								<media>
									<video>
										<track>
											<clipitem id="clipitem-1185">
												<masterclipid>masterclip-109</masterclipid>
												<name>(aquickspoonful)_CtWyQ1ag-is_IG.mp4</name>
												<rate>
													<timebase>30</timebase>
													<ntsc>FALSE</ntsc>
												</rate>
												<alphatype>none</alphatype>
												<file id="file-94"/>
												<link>
													<linkclipref>clipitem-1185</linkclipref>
													<mediatype>video</mediatype>
													<trackindex>1</trackindex>
													<clipindex>1</clipindex>
												</link>
												<link>
													<linkclipref>clipitem-1186</linkclipref>
													<mediatype>audio</mediatype>
													<trackindex>1</trackindex>
													<clipindex>1</clipindex>
												</link>
											</clipitem>
										</track>
									</video>
									<audio>
										<track>
											<clipitem id="clipitem-1186">
												<masterclipid>masterclip-109</masterclipid>
												<name>(aquickspoonful)_CtWyQ1ag-is_IG.mp4</name>
												<rate>
													<timebase>30</timebase>
													<ntsc>FALSE</ntsc>
												</rate>
												<file id="file-94"/>
												<sourcetrack>
													<mediatype>audio</mediatype>
													<trackindex>1</trackindex>
												</sourcetrack>
												<link>
													<linkclipref>clipitem-1185</linkclipref>
													<mediatype>video</mediatype>
													<trackindex>1</trackindex>
													<clipindex>1</clipindex>
												</link>
												<link>
													<linkclipref>clipitem-1186</linkclipref>
													<mediatype>audio</mediatype>
													<trackindex>1</trackindex>
													<clipindex>1</clipindex>
												</link>
											</clipitem>
										</track>
									</audio>
								</media>
								<logginginfo>
									<description></description>
									<scene></scene>
									<shottake></shottake>
									<lognote></lognote>
									<good></good>
									<originalvideofilename></originalvideofilename>
									<originalaudiofilename></originalaudiofilename>
								</logginginfo>
								<colorinfo>
									<lut></lut>
									<lut1></lut1>
									<asc_sop></asc_sop>
									<asc_sat></asc_sat>
									<lut2></lut2>
								</colorinfo>
								<labels>
								</labels>
							</clip>
						</children>
					</bin>
					<bin>
						<name>Artlist - Lime Water</name>
						<children>
							<clip id="masterclip-268" explodedTracks="true">
								<uuid>e640e7ff-45f8-4fb6-9f3f-889dde7fe457</uuid>
								<masterclipid>masterclip-268</masterclipid>
								<ismasterclip>TRUE</ismasterclip>
								<duration>137</duration>
								<rate>
									<timebase>24</timebase>
									<ntsc>TRUE</ntsc>
								</rate>
								<name>149869_Lime Lemon Drink Glass_By_Hugo_Will_Artlist_HD.mp4</name>
								<media>
									<video>
										<track>
											<clipitem id="clipitem-1187">
												<masterclipid>masterclip-268</masterclipid>
												<name>149869_Lime Lemon Drink Glass_By_Hugo_Will_Artlist_HD.mp4</name>
												<rate>
													<timebase>24</timebase>
													<ntsc>TRUE</ntsc>
												</rate>
												<alphatype>none</alphatype>
												<pixelaspectratio>square</pixelaspectratio>
												<anamorphic>FALSE</anamorphic>
												<file id="file-232">
													<name>149869_Lime Lemon Drink Glass_By_Hugo_Will_Artlist_HD.mp4</name>
													<pathurl>file://localhost/Volumes/ATM%201/EYE%20CANDY/8%3a14%3a23/3_Raw%20Files/Artlist%20-%20Lime%20Water/149869_Lime%20Lemon%20Drink%20Glass_By_Hugo_Will_Artlist_HD.mp4</pathurl>
													<rate>
														<timebase>24</timebase>
														<ntsc>TRUE</ntsc>
													</rate>
													<duration>137</duration>
													<timecode>
														<rate>
															<timebase>24</timebase>
															<ntsc>TRUE</ntsc>
														</rate>
														<string>19:47:44:00</string>
														<frame>1710336</frame>
														<displayformat>NDF</displayformat>
													</timecode>
													<media>
														<video>
															<samplecharacteristics>
																<rate>
																	<timebase>24</timebase>
																	<ntsc>TRUE</ntsc>
																</rate>
																<width>1920</width>
																<height>1080</height>
																<anamorphic>FALSE</anamorphic>
																<pixelaspectratio>square</pixelaspectratio>
																<fielddominance>none</fielddominance>
															</samplecharacteristics>
														</video>
													</media>
												</file>
											</clipitem>
										</track>
									</video>
								</media>
								<logginginfo>
									<description></description>
									<scene></scene>
									<shottake></shottake>
									<lognote></lognote>
									<good></good>
									<originalvideofilename></originalvideofilename>
									<originalaudiofilename></originalaudiofilename>
								</logginginfo>
								<colorinfo>
									<lut></lut>
									<lut1></lut1>
									<asc_sop></asc_sop>
									<asc_sat></asc_sat>
									<lut2></lut2>
								</colorinfo>
								<labels>
								</labels>
							</clip>
							<clip id="masterclip-269" explodedTracks="true">
								<uuid>d5fac2d7-2d9c-41c7-bee2-a312c1b5024d</uuid>
								<masterclipid>masterclip-269</masterclipid>
								<ismasterclip>TRUE</ismasterclip>
								<duration>256</duration>
								<rate>
									<timebase>24</timebase>
									<ntsc>TRUE</ntsc>
								</rate>
								<name>149871_Spinning Drink Lemon Lime_By_Hugo_Will_Artlist_HD.mp4</name>
								<media>
									<video>
										<track>
											<clipitem id="clipitem-1188">
												<masterclipid>masterclip-269</masterclipid>
												<name>149871_Spinning Drink Lemon Lime_By_Hugo_Will_Artlist_HD.mp4</name>
												<rate>
													<timebase>24</timebase>
													<ntsc>TRUE</ntsc>
												</rate>
												<alphatype>none</alphatype>
												<pixelaspectratio>square</pixelaspectratio>
												<anamorphic>FALSE</anamorphic>
												<file id="file-233">
													<name>149871_Spinning Drink Lemon Lime_By_Hugo_Will_Artlist_HD.mp4</name>
													<pathurl>file://localhost/Volumes/ATM%201/EYE%20CANDY/8%3a14%3a23/3_Raw%20Files/Artlist%20-%20Lime%20Water/149871_Spinning%20Drink%20Lemon%20Lime_By_Hugo_Will_Artlist_HD.mp4</pathurl>
													<rate>
														<timebase>24</timebase>
														<ntsc>TRUE</ntsc>
													</rate>
													<duration>256</duration>
													<timecode>
														<rate>
															<timebase>24</timebase>
															<ntsc>TRUE</ntsc>
														</rate>
														<string>19:46:46:09</string>
														<frame>1708953</frame>
														<displayformat>NDF</displayformat>
													</timecode>
													<media>
														<video>
															<samplecharacteristics>
																<rate>
																	<timebase>24</timebase>
																	<ntsc>TRUE</ntsc>
																</rate>
																<width>1920</width>
																<height>1080</height>
																<anamorphic>FALSE</anamorphic>
																<pixelaspectratio>square</pixelaspectratio>
																<fielddominance>none</fielddominance>
															</samplecharacteristics>
														</video>
													</media>
												</file>
											</clipitem>
										</track>
									</video>
								</media>
								<logginginfo>
									<description></description>
									<scene></scene>
									<shottake></shottake>
									<lognote></lognote>
									<good></good>
									<originalvideofilename></originalvideofilename>
									<originalaudiofilename></originalaudiofilename>
								</logginginfo>
								<colorinfo>
									<lut></lut>
									<lut1></lut1>
									<asc_sop></asc_sop>
									<asc_sat></asc_sat>
									<lut2></lut2>
								</colorinfo>
								<labels>
								</labels>
							</clip>
							<clip id="masterclip-270" explodedTracks="true">
								<uuid>03f5f3d1-f89e-4f9a-9f36-25d1a27577ab</uuid>
								<masterclipid>masterclip-270</masterclipid>
								<ismasterclip>TRUE</ismasterclip>
								<duration>415</duration>
								<rate>
									<timebase>24</timebase>
									<ntsc>TRUE</ntsc>
								</rate>
								<in>262</in>
								<out>403</out>
								<name>149873_Slices Lime Lemon Refreshment_By_Hugo_Will_Artlist_HD.mp4</name>
								<media>
									<video>
										<track>
											<clipitem id="clipitem-1189">
												<masterclipid>masterclip-270</masterclipid>
												<name>149873_Slices Lime Lemon Refreshment_By_Hugo_Will_Artlist_HD.mp4</name>
												<rate>
													<timebase>24</timebase>
													<ntsc>TRUE</ntsc>
												</rate>
												<alphatype>none</alphatype>
												<pixelaspectratio>square</pixelaspectratio>
												<anamorphic>FALSE</anamorphic>
												<file id="file-234">
													<name>149873_Slices Lime Lemon Refreshment_By_Hugo_Will_Artlist_HD.mp4</name>
													<pathurl>file://localhost/Volumes/ATM%201/EYE%20CANDY/8%3a14%3a23/3_Raw%20Files/Artlist%20-%20Lime%20Water/149873_Slices%20Lime%20Lemon%20Refreshment_By_Hugo_Will_Artlist_HD.mp4</pathurl>
													<rate>
														<timebase>24</timebase>
														<ntsc>TRUE</ntsc>
													</rate>
													<duration>415</duration>
													<timecode>
														<rate>
															<timebase>24</timebase>
															<ntsc>TRUE</ntsc>
														</rate>
														<string>19:53:16:10</string>
														<frame>1718314</frame>
														<displayformat>NDF</displayformat>
													</timecode>
													<media>
														<video>
															<samplecharacteristics>
																<rate>
																	<timebase>24</timebase>
																	<ntsc>TRUE</ntsc>
																</rate>
																<width>1920</width>
																<height>1080</height>
																<anamorphic>FALSE</anamorphic>
																<pixelaspectratio>square</pixelaspectratio>
																<fielddominance>none</fielddominance>
															</samplecharacteristics>
														</video>
													</media>
												</file>
											</clipitem>
										</track>
									</video>
								</media>
								<logginginfo>
									<description></description>
									<scene></scene>
									<shottake></shottake>
									<lognote></lognote>
									<good></good>
									<originalvideofilename></originalvideofilename>
									<originalaudiofilename></originalaudiofilename>
								</logginginfo>
								<colorinfo>
									<lut></lut>
									<lut1></lut1>
									<asc_sop></asc_sop>
									<asc_sat></asc_sat>
									<lut2></lut2>
								</colorinfo>
								<labels>
								</labels>
							</clip>
							<clip id="masterclip-271" explodedTracks="true">
								<uuid>c08c3a2a-a839-45d5-aefb-fc3a25141790</uuid>
								<masterclipid>masterclip-271</masterclipid>
								<ismasterclip>TRUE</ismasterclip>
								<duration>546</duration>
								<rate>
									<timebase>24</timebase>
									<ntsc>TRUE</ntsc>
								</rate>
								<in>308</in>
								<out>497</out>
								<name>149875_Lime Lemon Drink Ice_By_Hugo_Will_Artlist_HD.mp4</name>
								<media>
									<video>
										<track>
											<clipitem id="clipitem-1190">
												<masterclipid>masterclip-271</masterclipid>
												<name>149875_Lime Lemon Drink Ice_By_Hugo_Will_Artlist_HD.mp4</name>
												<rate>
													<timebase>24</timebase>
													<ntsc>TRUE</ntsc>
												</rate>
												<alphatype>none</alphatype>
												<pixelaspectratio>square</pixelaspectratio>
												<anamorphic>FALSE</anamorphic>
												<file id="file-235">
													<name>149875_Lime Lemon Drink Ice_By_Hugo_Will_Artlist_HD.mp4</name>
													<pathurl>file://localhost/Volumes/ATM%201/EYE%20CANDY/8%3a14%3a23/3_Raw%20Files/Artlist%20-%20Lime%20Water/149875_Lime%20Lemon%20Drink%20Ice_By_Hugo_Will_Artlist_HD.mp4</pathurl>
													<rate>
														<timebase>24</timebase>
														<ntsc>TRUE</ntsc>
													</rate>
													<duration>546</duration>
													<timecode>
														<rate>
															<timebase>24</timebase>
															<ntsc>TRUE</ntsc>
														</rate>
														<string>19:53:53:08</string>
														<frame>1719200</frame>
														<displayformat>NDF</displayformat>
													</timecode>
													<media>
														<video>
															<samplecharacteristics>
																<rate>
																	<timebase>24</timebase>
																	<ntsc>TRUE</ntsc>
																</rate>
																<width>1920</width>
																<height>1080</height>
																<anamorphic>FALSE</anamorphic>
																<pixelaspectratio>square</pixelaspectratio>
																<fielddominance>none</fielddominance>
															</samplecharacteristics>
														</video>
													</media>
												</file>
											</clipitem>
										</track>
									</video>
								</media>
								<logginginfo>
									<description></description>
									<scene></scene>
									<shottake></shottake>
									<lognote></lognote>
									<good></good>
									<originalvideofilename></originalvideofilename>
									<originalaudiofilename></originalaudiofilename>
								</logginginfo>
								<colorinfo>
									<lut></lut>
									<lut1></lut1>
									<asc_sop></asc_sop>
									<asc_sat></asc_sat>
									<lut2></lut2>
								</colorinfo>
								<labels>
								</labels>
							</clip>
							<clip id="masterclip-272" explodedTracks="true">
								<uuid>e1ab5699-b6bc-4c7f-af2d-8548922a1143</uuid>
								<masterclipid>masterclip-272</masterclipid>
								<ismasterclip>TRUE</ismasterclip>
								<duration>419</duration>
								<rate>
									<timebase>24</timebase>
									<ntsc>TRUE</ntsc>
								</rate>
								<in>190</in>
								<out>374</out>
								<name>149877_Cold Drink Ice Lemon_By_Hugo_Will_Artlist_HD.mp4</name>
								<media>
									<video>
										<track>
											<clipitem id="clipitem-1191">
												<masterclipid>masterclip-272</masterclipid>
												<name>149877_Cold Drink Ice Lemon_By_Hugo_Will_Artlist_HD.mp4</name>
												<rate>
													<timebase>24</timebase>
													<ntsc>TRUE</ntsc>
												</rate>
												<alphatype>none</alphatype>
												<pixelaspectratio>square</pixelaspectratio>
												<anamorphic>FALSE</anamorphic>
												<file id="file-236">
													<name>149877_Cold Drink Ice Lemon_By_Hugo_Will_Artlist_HD.mp4</name>
													<pathurl>file://localhost/Volumes/ATM%201/EYE%20CANDY/8%3a14%3a23/3_Raw%20Files/Artlist%20-%20Lime%20Water/149877_Cold%20Drink%20Ice%20Lemon_By_Hugo_Will_Artlist_HD.mp4</pathurl>
													<rate>
														<timebase>24</timebase>
														<ntsc>TRUE</ntsc>
													</rate>
													<duration>419</duration>
													<timecode>
														<rate>
															<timebase>24</timebase>
															<ntsc>TRUE</ntsc>
														</rate>
														<string>19:54:50:05</string>
														<frame>1720565</frame>
														<displayformat>NDF</displayformat>
													</timecode>
													<media>
														<video>
															<samplecharacteristics>
																<rate>
																	<timebase>24</timebase>
																	<ntsc>TRUE</ntsc>
																</rate>
																<width>1920</width>
																<height>1080</height>
																<anamorphic>FALSE</anamorphic>
																<pixelaspectratio>square</pixelaspectratio>
																<fielddominance>none</fielddominance>
															</samplecharacteristics>
														</video>
													</media>
												</file>
											</clipitem>
										</track>
									</video>
								</media>
								<logginginfo>
									<description></description>
									<scene></scene>
									<shottake></shottake>
									<lognote></lognote>
									<good></good>
									<originalvideofilename></originalvideofilename>
									<originalaudiofilename></originalaudiofilename>
								</logginginfo>
								<colorinfo>
									<lut></lut>
									<lut1></lut1>
									<asc_sop></asc_sop>
									<asc_sat></asc_sat>
									<lut2></lut2>
								</colorinfo>
								<labels>
								</labels>
							</clip>
							<clip id="masterclip-273" explodedTracks="true">
								<uuid>f18bc76e-96a0-427a-8a73-7ec34f5a05a4</uuid>
								<masterclipid>masterclip-273</masterclipid>
								<ismasterclip>TRUE</ismasterclip>
								<duration>323</duration>
								<rate>
									<timebase>24</timebase>
									<ntsc>TRUE</ntsc>
								</rate>
								<in>167</in>
								<out>317</out>
								<name>149879_Lime Lemon Cold Ice Cubes_By_Hugo_Will_Artlist_HD.mp4</name>
								<media>
									<video>
										<track>
											<clipitem id="clipitem-1192">
												<masterclipid>masterclip-273</masterclipid>
												<name>149879_Lime Lemon Cold Ice Cubes_By_Hugo_Will_Artlist_HD.mp4</name>
												<rate>
													<timebase>24</timebase>
													<ntsc>TRUE</ntsc>
												</rate>
												<alphatype>none</alphatype>
												<pixelaspectratio>square</pixelaspectratio>
												<anamorphic>FALSE</anamorphic>
												<file id="file-237">
													<name>149879_Lime Lemon Cold Ice Cubes_By_Hugo_Will_Artlist_HD.mp4</name>
													<pathurl>file://localhost/Volumes/ATM%201/EYE%20CANDY/8%3a14%3a23/3_Raw%20Files/Artlist%20-%20Lime%20Water/149879_Lime%20Lemon%20Cold%20Ice%20Cubes_By_Hugo_Will_Artlist_HD.mp4</pathurl>
													<rate>
														<timebase>24</timebase>
														<ntsc>TRUE</ntsc>
													</rate>
													<duration>323</duration>
													<timecode>
														<rate>
															<timebase>24</timebase>
															<ntsc>TRUE</ntsc>
														</rate>
														<string>19:52:51:14</string>
														<frame>1717718</frame>
														<displayformat>NDF</displayformat>
													</timecode>
													<media>
														<video>
															<samplecharacteristics>
																<rate>
																	<timebase>24</timebase>
																	<ntsc>TRUE</ntsc>
																</rate>
																<width>1920</width>
																<height>1080</height>
																<anamorphic>FALSE</anamorphic>
																<pixelaspectratio>square</pixelaspectratio>
																<fielddominance>none</fielddominance>
															</samplecharacteristics>
														</video>
													</media>
												</file>
											</clipitem>
										</track>
									</video>
								</media>
								<logginginfo>
									<description></description>
									<scene></scene>
									<shottake></shottake>
									<lognote></lognote>
									<good></good>
									<originalvideofilename></originalvideofilename>
									<originalaudiofilename></originalaudiofilename>
								</logginginfo>
								<colorinfo>
									<lut></lut>
									<lut1></lut1>
									<asc_sop></asc_sop>
									<asc_sat></asc_sat>
									<lut2></lut2>
								</colorinfo>
								<labels>
								</labels>
							</clip>
							<clip id="masterclip-274" explodedTracks="true">
								<uuid>cea0a621-f792-4535-9e64-fa10230b66a0</uuid>
								<masterclipid>masterclip-274</masterclipid>
								<ismasterclip>TRUE</ismasterclip>
								<duration>263</duration>
								<rate>
									<timebase>24</timebase>
									<ntsc>TRUE</ntsc>
								</rate>
								<name>150052_Soda Ice Cubes Lime Slices_By_Hugo_Will_Artlist_HD.mp4</name>
								<media>
									<video>
										<track>
											<clipitem id="clipitem-1193">
												<masterclipid>masterclip-274</masterclipid>
												<name>150052_Soda Ice Cubes Lime Slices_By_Hugo_Will_Artlist_HD.mp4</name>
												<rate>
													<timebase>24</timebase>
													<ntsc>TRUE</ntsc>
												</rate>
												<alphatype>none</alphatype>
												<pixelaspectratio>square</pixelaspectratio>
												<anamorphic>FALSE</anamorphic>
												<file id="file-238">
													<name>150052_Soda Ice Cubes Lime Slices_By_Hugo_Will_Artlist_HD.mp4</name>
													<pathurl>file://localhost/Volumes/ATM%201/EYE%20CANDY/8%3a14%3a23/3_Raw%20Files/Artlist%20-%20Lime%20Water/150052_Soda%20Ice%20Cubes%20Lime%20Slices_By_Hugo_Will_Artlist_HD.mp4</pathurl>
													<rate>
														<timebase>24</timebase>
														<ntsc>TRUE</ntsc>
													</rate>
													<duration>263</duration>
													<timecode>
														<rate>
															<timebase>24</timebase>
															<ntsc>TRUE</ntsc>
														</rate>
														<string>19:35:31:07</string>
														<frame>1692751</frame>
														<displayformat>NDF</displayformat>
													</timecode>
													<media>
														<video>
															<samplecharacteristics>
																<rate>
																	<timebase>24</timebase>
																	<ntsc>TRUE</ntsc>
																</rate>
																<width>1920</width>
																<height>1080</height>
																<anamorphic>FALSE</anamorphic>
																<pixelaspectratio>square</pixelaspectratio>
																<fielddominance>none</fielddominance>
															</samplecharacteristics>
														</video>
													</media>
												</file>
											</clipitem>
										</track>
									</video>
								</media>
								<logginginfo>
									<description></description>
									<scene></scene>
									<shottake></shottake>
									<lognote></lognote>
									<good></good>
									<originalvideofilename></originalvideofilename>
									<originalaudiofilename></originalaudiofilename>
								</logginginfo>
								<colorinfo>
									<lut></lut>
									<lut1></lut1>
									<asc_sop></asc_sop>
									<asc_sat></asc_sat>
									<lut2></lut2>
								</colorinfo>
								<labels>
								</labels>
							</clip>
						</children>
					</bin>
					<bin>
						<name>Artlist - Espresso Machine</name>
						<children>
							<clip id="masterclip-250" explodedTracks="true">
								<uuid>1bc9322f-c4a7-41e0-9faf-0cc7ff812792</uuid>
								<masterclipid>masterclip-250</masterclipid>
								<ismasterclip>TRUE</ismasterclip>
								<duration>219</duration>
								<rate>
									<timebase>25</timebase>
									<ntsc>FALSE</ntsc>
								</rate>
								<out>116</out>
								<name>23724_Coffee pours out of espresso machine spout _By_Omri_Ohana_Artlist_HD.mp4</name>
								<media>
									<video>
										<track>
											<clipitem id="clipitem-1194">
												<masterclipid>masterclip-250</masterclipid>
												<name>23724_Coffee pours out of espresso machine spout _By_Omri_Ohana_Artlist_HD.mp4</name>
												<rate>
													<timebase>25</timebase>
													<ntsc>FALSE</ntsc>
												</rate>
												<alphatype>none</alphatype>
												<file id="file-215"/>
											</clipitem>
										</track>
									</video>
								</media>
								<logginginfo>
									<description></description>
									<scene></scene>
									<shottake></shottake>
									<lognote></lognote>
									<good></good>
									<originalvideofilename></originalvideofilename>
									<originalaudiofilename></originalaudiofilename>
								</logginginfo>
								<colorinfo>
									<lut></lut>
									<lut1></lut1>
									<asc_sop></asc_sop>
									<asc_sat></asc_sat>
									<lut2></lut2>
								</colorinfo>
								<labels>
									<label2>Violet</label2>
								</labels>
							</clip>
							<clip id="masterclip-246" explodedTracks="true">
								<uuid>d0983cd2-2add-4f9a-8842-dc936c231762</uuid>
								<masterclipid>masterclip-246</masterclipid>
								<ismasterclip>TRUE</ismasterclip>
								<duration>202</duration>
								<rate>
									<timebase>25</timebase>
									<ntsc>FALSE</ntsc>
								</rate>
								<out>126</out>
								<name>23728_Coffee grinds fall into portafilter _By_Omri_Ohana_Artlist_HD.mp4</name>
								<media>
									<video>
										<track>
											<clipitem id="clipitem-1195">
												<masterclipid>masterclip-246</masterclipid>
												<name>23728_Coffee grinds fall into portafilter _By_Omri_Ohana_Artlist_HD.mp4</name>
												<rate>
													<timebase>25</timebase>
													<ntsc>FALSE</ntsc>
												</rate>
												<alphatype>none</alphatype>
												<file id="file-211"/>
											</clipitem>
										</track>
									</video>
								</media>
								<logginginfo>
									<description></description>
									<scene></scene>
									<shottake></shottake>
									<lognote></lognote>
									<good></good>
									<originalvideofilename></originalvideofilename>
									<originalaudiofilename></originalaudiofilename>
								</logginginfo>
								<colorinfo>
									<lut></lut>
									<lut1></lut1>
									<asc_sop></asc_sop>
									<asc_sat></asc_sat>
									<lut2></lut2>
								</colorinfo>
								<labels>
									<label2>Violet</label2>
								</labels>
							</clip>
							<clip id="masterclip-247" explodedTracks="true">
								<uuid>2d5d8796-8339-488c-b05f-134cb5f2b0b3</uuid>
								<masterclipid>masterclip-247</masterclipid>
								<ismasterclip>TRUE</ismasterclip>
								<duration>281</duration>
								<rate>
									<timebase>25</timebase>
									<ntsc>FALSE</ntsc>
								</rate>
								<in>130</in>
								<name>23730_Coffee grounds fall into portafilter _By_Omri_Ohana_Artlist_HD.mp4</name>
								<media>
									<video>
										<track>
											<clipitem id="clipitem-1196">
												<masterclipid>masterclip-247</masterclipid>
												<name>23730_Coffee grounds fall into portafilter _By_Omri_Ohana_Artlist_HD.mp4</name>
												<rate>
													<timebase>25</timebase>
													<ntsc>FALSE</ntsc>
												</rate>
												<alphatype>none</alphatype>
												<file id="file-212"/>
											</clipitem>
										</track>
									</video>
								</media>
								<logginginfo>
									<description></description>
									<scene></scene>
									<shottake></shottake>
									<lognote></lognote>
									<good></good>
									<originalvideofilename></originalvideofilename>
									<originalaudiofilename></originalaudiofilename>
								</logginginfo>
								<colorinfo>
									<lut></lut>
									<lut1></lut1>
									<asc_sop></asc_sop>
									<asc_sat></asc_sat>
									<lut2></lut2>
								</colorinfo>
								<labels>
									<label2>Violet</label2>
								</labels>
							</clip>
							<clip id="masterclip-275" explodedTracks="true">
								<uuid>2cc5d713-04c3-4113-9844-315dbbff46df</uuid>
								<masterclipid>masterclip-275</masterclipid>
								<ismasterclip>TRUE</ismasterclip>
								<duration>146</duration>
								<rate>
									<timebase>25</timebase>
									<ntsc>FALSE</ntsc>
								</rate>
								<name>23733_Coffee pours into cup out of espresso spout _By_Omri_Ohana_Artlist_HD.mp4</name>
								<media>
									<video>
										<track>
											<clipitem id="clipitem-1197">
												<masterclipid>masterclip-275</masterclipid>
												<name>23733_Coffee pours into cup out of espresso spout _By_Omri_Ohana_Artlist_HD.mp4</name>
												<rate>
													<timebase>25</timebase>
													<ntsc>FALSE</ntsc>
												</rate>
												<alphatype>none</alphatype>
												<pixelaspectratio>NTSC-601</pixelaspectratio>
												<anamorphic>TRUE</anamorphic>
												<file id="file-239">
													<name>23733_Coffee pours into cup out of espresso spout _By_Omri_Ohana_Artlist_HD.mp4</name>
													<pathurl>file://localhost/Volumes/ATM%201/EYE%20CANDY/8%3a14%3a23/3_Raw%20Files/Artlist%20-%20Espresso%20Machine/23733_Coffee%20pours%20into%20cup%20out%20of%20espresso%20spout%20_By_Omri_Ohana_Artlist_HD.mp4</pathurl>
													<rate>
														<timebase>25</timebase>
														<ntsc>FALSE</ntsc>
													</rate>
													<duration>146</duration>
													<timecode>
														<rate>
															<timebase>25</timebase>
															<ntsc>FALSE</ntsc>
														</rate>
														<string>12:34:00:24</string>
														<frame>1131024</frame>
														<displayformat>NDF</displayformat>
													</timecode>
													<media>
														<video>
															<samplecharacteristics>
																<rate>
																	<timebase>25</timebase>
																	<ntsc>FALSE</ntsc>
																</rate>
																<width>1920</width>
																<height>1080</height>
																<anamorphic>TRUE</anamorphic>
																<pixelaspectratio>NTSC-601</pixelaspectratio>
																<fielddominance>none</fielddominance>
															</samplecharacteristics>
														</video>
													</media>
												</file>
											</clipitem>
										</track>
									</video>
								</media>
								<logginginfo>
									<description></description>
									<scene></scene>
									<shottake></shottake>
									<lognote></lognote>
									<good></good>
									<originalvideofilename></originalvideofilename>
									<originalaudiofilename></originalaudiofilename>
								</logginginfo>
								<colorinfo>
									<lut></lut>
									<lut1></lut1>
									<asc_sop></asc_sop>
									<asc_sat></asc_sat>
									<lut2></lut2>
								</colorinfo>
								<labels>
								</labels>
							</clip>
							<clip id="masterclip-249" explodedTracks="true">
								<uuid>f784b490-1170-41f1-9030-8b609d1675af</uuid>
								<masterclipid>masterclip-249</masterclipid>
								<ismasterclip>TRUE</ismasterclip>
								<duration>209</duration>
								<rate>
									<timebase>25</timebase>
									<ntsc>FALSE</ntsc>
								</rate>
								<in>16</in>
								<out>167</out>
								<name>23734_Brewed coffee pours out of espresso machine _By_Omri_Ohana_Artlist_HD.mp4</name>
								<media>
									<video>
										<track>
											<clipitem id="clipitem-1198">
												<masterclipid>masterclip-249</masterclipid>
												<name>23734_Brewed coffee pours out of espresso machine _By_Omri_Ohana_Artlist_HD.mp4</name>
												<rate>
													<timebase>25</timebase>
													<ntsc>FALSE</ntsc>
												</rate>
												<alphatype>none</alphatype>
												<file id="file-214"/>
											</clipitem>
										</track>
									</video>
								</media>
								<logginginfo>
									<description></description>
									<scene></scene>
									<shottake></shottake>
									<lognote></lognote>
									<good></good>
									<originalvideofilename></originalvideofilename>
									<originalaudiofilename></originalaudiofilename>
								</logginginfo>
								<colorinfo>
									<lut></lut>
									<lut1></lut1>
									<asc_sop></asc_sop>
									<asc_sat></asc_sat>
									<lut2></lut2>
								</colorinfo>
								<labels>
									<label2>Violet</label2>
								</labels>
							</clip>
							<clip id="masterclip-251" explodedTracks="true">
								<uuid>5c08fbcd-c32f-4fce-8765-2f3578ba4249</uuid>
								<masterclipid>masterclip-251</masterclipid>
								<ismasterclip>TRUE</ismasterclip>
								<duration>139</duration>
								<rate>
									<timebase>25</timebase>
									<ntsc>FALSE</ntsc>
								</rate>
								<out>131</out>
								<name>23739_Milk steamed in jug _By_Omri_Ohana_Artlist_HD.mp4</name>
								<media>
									<video>
										<track>
											<clipitem id="clipitem-1199">
												<masterclipid>masterclip-251</masterclipid>
												<name>23739_Milk steamed in jug _By_Omri_Ohana_Artlist_HD.mp4</name>
												<rate>
													<timebase>25</timebase>
													<ntsc>FALSE</ntsc>
												</rate>
												<alphatype>none</alphatype>
												<file id="file-216"/>
											</clipitem>
										</track>
									</video>
								</media>
								<logginginfo>
									<description></description>
									<scene></scene>
									<shottake></shottake>
									<lognote></lognote>
									<good></good>
									<originalvideofilename></originalvideofilename>
									<originalaudiofilename></originalaudiofilename>
								</logginginfo>
								<colorinfo>
									<lut></lut>
									<lut1></lut1>
									<asc_sop></asc_sop>
									<asc_sat></asc_sat>
									<lut2></lut2>
								</colorinfo>
								<labels>
									<label2>Violet</label2>
								</labels>
							</clip>
							<clip id="masterclip-253" explodedTracks="true">
								<uuid>dbc5cd90-1156-458a-ad60-0e2489513dbe</uuid>
								<masterclipid>masterclip-253</masterclipid>
								<ismasterclip>TRUE</ismasterclip>
								<duration>218</duration>
								<rate>
									<timebase>25</timebase>
									<ntsc>FALSE</ntsc>
								</rate>
								<out>173</out>
								<name>23740_Barista swirls hot milk in jug _By_Omri_Ohana_Artlist_HD.mp4</name>
								<media>
									<video>
										<track>
											<clipitem id="clipitem-1200">
												<masterclipid>masterclip-253</masterclipid>
												<name>23740_Barista swirls hot milk in jug _By_Omri_Ohana_Artlist_HD.mp4</name>
												<rate>
													<timebase>25</timebase>
													<ntsc>FALSE</ntsc>
												</rate>
												<alphatype>none</alphatype>
												<file id="file-218"/>
											</clipitem>
										</track>
									</video>
								</media>
								<logginginfo>
									<description></description>
									<scene></scene>
									<shottake></shottake>
									<lognote></lognote>
									<good></good>
									<originalvideofilename></originalvideofilename>
									<originalaudiofilename></originalaudiofilename>
								</logginginfo>
								<colorinfo>
									<lut></lut>
									<lut1></lut1>
									<asc_sop></asc_sop>
									<asc_sat></asc_sat>
									<lut2></lut2>
								</colorinfo>
								<labels>
									<label2>Violet</label2>
								</labels>
							</clip>
							<clip id="masterclip-254" explodedTracks="true">
								<uuid>e984ba41-ded5-493a-a775-e0dcc38d819d</uuid>
								<masterclipid>masterclip-254</masterclipid>
								<ismasterclip>TRUE</ismasterclip>
								<duration>199</duration>
								<rate>
									<timebase>25</timebase>
									<ntsc>FALSE</ntsc>
								</rate>
								<out>145</out>
								<name>23742_Coffee swirls in white mug_By_Omri_Ohana_Artlist_HD.mp4</name>
								<media>
									<video>
										<track>
											<clipitem id="clipitem-1201">
												<masterclipid>masterclip-254</masterclipid>
												<name>23742_Coffee swirls in white mug_By_Omri_Ohana_Artlist_HD.mp4</name>
												<rate>
													<timebase>25</timebase>
													<ntsc>FALSE</ntsc>
												</rate>
												<alphatype>none</alphatype>
												<file id="file-219"/>
											</clipitem>
										</track>
									</video>
								</media>
								<logginginfo>
									<description></description>
									<scene></scene>
									<shottake></shottake>
									<lognote></lognote>
									<good></good>
									<originalvideofilename></originalvideofilename>
									<originalaudiofilename></originalaudiofilename>
								</logginginfo>
								<colorinfo>
									<lut></lut>
									<lut1></lut1>
									<asc_sop></asc_sop>
									<asc_sat></asc_sat>
									<lut2></lut2>
								</colorinfo>
								<labels>
									<label2>Violet</label2>
								</labels>
							</clip>
							<clip id="masterclip-255" explodedTracks="true">
								<uuid>80fe51df-70cd-417c-8ef1-1b1da43b8911</uuid>
								<masterclipid>masterclip-255</masterclipid>
								<ismasterclip>TRUE</ismasterclip>
								<duration>251</duration>
								<rate>
									<timebase>25</timebase>
									<ntsc>FALSE</ntsc>
								</rate>
								<out>153</out>
								<name>23744_Milk poured into coffee _By_Omri_Ohana_Artlist_HD.mp4</name>
								<media>
									<video>
										<track>
											<clipitem id="clipitem-1202">
												<masterclipid>masterclip-255</masterclipid>
												<name>23744_Milk poured into coffee _By_Omri_Ohana_Artlist_HD.mp4</name>
												<rate>
													<timebase>25</timebase>
													<ntsc>FALSE</ntsc>
												</rate>
												<alphatype>none</alphatype>
												<file id="file-220"/>
											</clipitem>
										</track>
									</video>
								</media>
								<logginginfo>
									<description></description>
									<scene></scene>
									<shottake></shottake>
									<lognote></lognote>
									<good></good>
									<originalvideofilename></originalvideofilename>
									<originalaudiofilename></originalaudiofilename>
								</logginginfo>
								<colorinfo>
									<lut></lut>
									<lut1></lut1>
									<asc_sop></asc_sop>
									<asc_sat></asc_sat>
									<lut2></lut2>
								</colorinfo>
								<labels>
									<label2>Violet</label2>
								</labels>
							</clip>
							<clip id="masterclip-257" explodedTracks="true">
								<uuid>4eeb219f-9efd-491d-acca-265ea6117336</uuid>
								<masterclipid>masterclip-257</masterclipid>
								<ismasterclip>TRUE</ismasterclip>
								<duration>786</duration>
								<rate>
									<timebase>25</timebase>
									<ntsc>FALSE</ntsc>
								</rate>
								<in>49</in>
								<out>217</out>
								<name>23747_Barista creates coffee art _By_Omri_Ohana_Artlist_HD.mp4</name>
								<media>
									<video>
										<track>
											<clipitem id="clipitem-1203">
												<masterclipid>masterclip-257</masterclipid>
												<name>23747_Barista creates coffee art _By_Omri_Ohana_Artlist_HD.mp4</name>
												<rate>
													<timebase>25</timebase>
													<ntsc>FALSE</ntsc>
												</rate>
												<alphatype>none</alphatype>
												<file id="file-222"/>
											</clipitem>
										</track>
									</video>
								</media>
								<logginginfo>
									<description></description>
									<scene></scene>
									<shottake></shottake>
									<lognote></lognote>
									<good></good>
									<originalvideofilename></originalvideofilename>
									<originalaudiofilename></originalaudiofilename>
								</logginginfo>
								<colorinfo>
									<lut></lut>
									<lut1></lut1>
									<asc_sop></asc_sop>
									<asc_sat></asc_sat>
									<lut2></lut2>
								</colorinfo>
								<labels>
									<label2>Violet</label2>
								</labels>
							</clip>
							<clip id="masterclip-258" explodedTracks="true">
								<uuid>df580812-3b27-4260-a481-900bc5197cf5</uuid>
								<masterclipid>masterclip-258</masterclipid>
								<ismasterclip>TRUE</ismasterclip>
								<duration>122</duration>
								<rate>
									<timebase>25</timebase>
									<ntsc>FALSE</ntsc>
								</rate>
								<name>23750_Cup of coffee on surface with scattered coffee beans _By_Omri_Ohana_Artlist_HD.mp4</name>
								<media>
									<video>
										<track>
											<clipitem id="clipitem-1204">
												<masterclipid>masterclip-258</masterclipid>
												<name>23750_Cup of coffee on surface with scattered coffee beans _By_Omri_Ohana_Artlist_HD.mp4</name>
												<rate>
													<timebase>25</timebase>
													<ntsc>FALSE</ntsc>
												</rate>
												<alphatype>none</alphatype>
												<file id="file-223"/>
											</clipitem>
										</track>
									</video>
								</media>
								<logginginfo>
									<description></description>
									<scene></scene>
									<shottake></shottake>
									<lognote></lognote>
									<good></good>
									<originalvideofilename></originalvideofilename>
									<originalaudiofilename></originalaudiofilename>
								</logginginfo>
								<colorinfo>
									<lut></lut>
									<lut1></lut1>
									<asc_sop></asc_sop>
									<asc_sat></asc_sat>
									<lut2></lut2>
								</colorinfo>
								<labels>
									<label2>Violet</label2>
								</labels>
							</clip>
							<clip id="masterclip-252" explodedTracks="true">
								<uuid>835c3210-6b7a-4d69-bc06-0098adf76a9f</uuid>
								<masterclipid>masterclip-252</masterclipid>
								<ismasterclip>TRUE</ismasterclip>
								<duration>143</duration>
								<rate>
									<timebase>25</timebase>
									<ntsc>FALSE</ntsc>
								</rate>
								<out>111</out>
								<name>23752_Barista heats up milk in jug with steamer _By_Omri_Ohana_Artlist_HD.mp4</name>
								<media>
									<video>
										<track>
											<clipitem id="clipitem-1205">
												<masterclipid>masterclip-252</masterclipid>
												<name>23752_Barista heats up milk in jug with steamer _By_Omri_Ohana_Artlist_HD.mp4</name>
												<rate>
													<timebase>25</timebase>
													<ntsc>FALSE</ntsc>
												</rate>
												<alphatype>none</alphatype>
												<file id="file-217"/>
											</clipitem>
										</track>
									</video>
								</media>
								<logginginfo>
									<description></description>
									<scene></scene>
									<shottake></shottake>
									<lognote></lognote>
									<good></good>
									<originalvideofilename></originalvideofilename>
									<originalaudiofilename></originalaudiofilename>
								</logginginfo>
								<colorinfo>
									<lut></lut>
									<lut1></lut1>
									<asc_sop></asc_sop>
									<asc_sat></asc_sat>
									<lut2></lut2>
								</colorinfo>
								<labels>
									<label2>Violet</label2>
								</labels>
							</clip>
							<clip id="masterclip-256" explodedTracks="true">
								<uuid>688f950c-4fd6-4eaa-82cd-462d6aef2e4e</uuid>
								<masterclipid>masterclip-256</masterclipid>
								<ismasterclip>TRUE</ismasterclip>
								<duration>132</duration>
								<rate>
									<timebase>25</timebase>
									<ntsc>FALSE</ntsc>
								</rate>
								<out>117</out>
								<name>23753_Hot milk poured into cup of coffee_By_Omri_Ohana_Artlist_HD.mp4</name>
								<media>
									<video>
										<track>
											<clipitem id="clipitem-1206">
												<masterclipid>masterclip-256</masterclipid>
												<name>23753_Hot milk poured into cup of coffee_By_Omri_Ohana_Artlist_HD.mp4</name>
												<rate>
													<timebase>25</timebase>
													<ntsc>FALSE</ntsc>
												</rate>
												<alphatype>none</alphatype>
												<file id="file-221"/>
											</clipitem>
										</track>
									</video>
								</media>
								<logginginfo>
									<description></description>
									<scene></scene>
									<shottake></shottake>
									<lognote></lognote>
									<good></good>
									<originalvideofilename></originalvideofilename>
									<originalaudiofilename></originalaudiofilename>
								</logginginfo>
								<colorinfo>
									<lut></lut>
									<lut1></lut1>
									<asc_sop></asc_sop>
									<asc_sat></asc_sat>
									<lut2></lut2>
								</colorinfo>
								<labels>
									<label2>Violet</label2>
								</labels>
							</clip>
							<clip id="masterclip-276" explodedTracks="true">
								<uuid>d2da7ada-2eb3-4e99-8e3b-ac782b47317f</uuid>
								<masterclipid>masterclip-276</masterclipid>
								<ismasterclip>TRUE</ismasterclip>
								<duration>160</duration>
								<rate>
									<timebase>25</timebase>
									<ntsc>FALSE</ntsc>
								</rate>
								<name>23760_Coffee grounds in portafilter _By_Omri_Ohana_Artlist_HD.mp4</name>
								<media>
									<video>
										<track>
											<clipitem id="clipitem-1207">
												<masterclipid>masterclip-276</masterclipid>
												<name>23760_Coffee grounds in portafilter _By_Omri_Ohana_Artlist_HD.mp4</name>
												<rate>
													<timebase>25</timebase>
													<ntsc>FALSE</ntsc>
												</rate>
												<alphatype>none</alphatype>
												<pixelaspectratio>NTSC-601</pixelaspectratio>
												<anamorphic>TRUE</anamorphic>
												<file id="file-240">
													<name>23760_Coffee grounds in portafilter _By_Omri_Ohana_Artlist_HD.mp4</name>
													<pathurl>file://localhost/Volumes/ATM%201/EYE%20CANDY/8%3a14%3a23/3_Raw%20Files/Artlist%20-%20Espresso%20Machine/23760_Coffee%20grounds%20in%20portafilter%20_By_Omri_Ohana_Artlist_HD.mp4</pathurl>
													<rate>
														<timebase>25</timebase>
														<ntsc>FALSE</ntsc>
													</rate>
													<duration>160</duration>
													<timecode>
														<rate>
															<timebase>25</timebase>
															<ntsc>FALSE</ntsc>
														</rate>
														<string>13:59:43:03</string>
														<frame>1259578</frame>
														<displayformat>NDF</displayformat>
													</timecode>
													<media>
														<video>
															<samplecharacteristics>
																<rate>
																	<timebase>25</timebase>
																	<ntsc>FALSE</ntsc>
																</rate>
																<width>1920</width>
																<height>1080</height>
																<anamorphic>TRUE</anamorphic>
																<pixelaspectratio>NTSC-601</pixelaspectratio>
																<fielddominance>none</fielddominance>
															</samplecharacteristics>
														</video>
													</media>
												</file>
											</clipitem>
										</track>
									</video>
								</media>
								<logginginfo>
									<description></description>
									<scene></scene>
									<shottake></shottake>
									<lognote></lognote>
									<good></good>
									<originalvideofilename></originalvideofilename>
									<originalaudiofilename></originalaudiofilename>
								</logginginfo>
								<colorinfo>
									<lut></lut>
									<lut1></lut1>
									<asc_sop></asc_sop>
									<asc_sat></asc_sat>
									<lut2></lut2>
								</colorinfo>
								<labels>
								</labels>
							</clip>
							<clip id="masterclip-248" explodedTracks="true">
								<uuid>4c8ab383-b913-40ea-a33e-59abc66f901e</uuid>
								<masterclipid>masterclip-248</masterclipid>
								<ismasterclip>TRUE</ismasterclip>
								<duration>239</duration>
								<rate>
									<timebase>25</timebase>
									<ntsc>FALSE</ntsc>
								</rate>
								<out>186</out>
								<name>23761_Barista compresses coffee grounds with tamper_By_Omri_Ohana_Artlist_HD.mp4</name>
								<media>
									<video>
										<track>
											<clipitem id="clipitem-1208">
												<masterclipid>masterclip-248</masterclipid>
												<name>23761_Barista compresses coffee grounds with tamper_By_Omri_Ohana_Artlist_HD.mp4</name>
												<rate>
													<timebase>25</timebase>
													<ntsc>FALSE</ntsc>
												</rate>
												<alphatype>none</alphatype>
												<file id="file-213"/>
											</clipitem>
										</track>
									</video>
								</media>
								<logginginfo>
									<description></description>
									<scene></scene>
									<shottake></shottake>
									<lognote></lognote>
									<good></good>
									<originalvideofilename></originalvideofilename>
									<originalaudiofilename></originalaudiofilename>
								</logginginfo>
								<colorinfo>
									<lut></lut>
									<lut1></lut1>
									<asc_sop></asc_sop>
									<asc_sat></asc_sat>
									<lut2></lut2>
								</colorinfo>
								<labels>
									<label2>Violet</label2>
								</labels>
							</clip>
						</children>
					</bin>
					<bin>
						<name>Artlist -  Thumbprint Cookies</name>
						<children>
							<clip id="masterclip-97" explodedTracks="true">
								<uuid>d41cf5ae-94ec-4e20-b05e-7c398cb2772b</uuid>
								<masterclipid>masterclip-97</masterclipid>
								<ismasterclip>TRUE</ismasterclip>
								<duration>288</duration>
								<rate>
									<timebase>24</timebase>
									<ntsc>TRUE</ntsc>
								</rate>
								<out>165</out>
								<name>588774_Cookies Jam Baking Hands_By_Erik_Nuenighoff_Artlist_HD.mp4</name>
								<media>
									<video>
										<track>
											<clipitem id="clipitem-1209">
												<masterclipid>masterclip-97</masterclipid>
												<name>588774_Cookies Jam Baking Hands_By_Erik_Nuenighoff_Artlist_HD.mp4</name>
												<rate>
													<timebase>24</timebase>
													<ntsc>TRUE</ntsc>
												</rate>
												<alphatype>none</alphatype>
												<file id="file-83"/>
											</clipitem>
										</track>
									</video>
								</media>
								<logginginfo>
									<description></description>
									<scene></scene>
									<shottake></shottake>
									<lognote></lognote>
									<good></good>
									<originalvideofilename></originalvideofilename>
									<originalaudiofilename></originalaudiofilename>
								</logginginfo>
								<colorinfo>
									<lut></lut>
									<lut1></lut1>
									<asc_sop></asc_sop>
									<asc_sat></asc_sat>
									<lut2></lut2>
								</colorinfo>
								<labels>
									<label2>Violet</label2>
								</labels>
							</clip>
							<clip id="masterclip-96" explodedTracks="true">
								<uuid>f7d46d6c-32cd-4df9-83ba-4973fdb383ad</uuid>
								<masterclipid>masterclip-96</masterclipid>
								<ismasterclip>TRUE</ismasterclip>
								<duration>164</duration>
								<rate>
									<timebase>24</timebase>
									<ntsc>TRUE</ntsc>
								</rate>
								<out>147</out>
								<name>588775_Cookies Jam Baking Hands_By_Erik_Nuenighoff_Artlist_HD.mp4</name>
								<media>
									<video>
										<track>
											<clipitem id="clipitem-1210">
												<masterclipid>masterclip-96</masterclipid>
												<name>588775_Cookies Jam Baking Hands_By_Erik_Nuenighoff_Artlist_HD.mp4</name>
												<rate>
													<timebase>24</timebase>
													<ntsc>TRUE</ntsc>
												</rate>
												<alphatype>none</alphatype>
												<file id="file-82"/>
											</clipitem>
										</track>
									</video>
								</media>
								<logginginfo>
									<description></description>
									<scene></scene>
									<shottake></shottake>
									<lognote></lognote>
									<good></good>
									<originalvideofilename></originalvideofilename>
									<originalaudiofilename></originalaudiofilename>
								</logginginfo>
								<colorinfo>
									<lut></lut>
									<lut1></lut1>
									<asc_sop></asc_sop>
									<asc_sat></asc_sat>
									<lut2></lut2>
								</colorinfo>
								<labels>
									<label2>Violet</label2>
								</labels>
							</clip>
							<clip id="masterclip-98" explodedTracks="true">
								<uuid>ae1b8176-a447-49c0-a4fc-d5af47103b65</uuid>
								<masterclipid>masterclip-98</masterclipid>
								<ismasterclip>TRUE</ismasterclip>
								<duration>484</duration>
								<rate>
									<timebase>24</timebase>
									<ntsc>TRUE</ntsc>
								</rate>
								<in>118</in>
								<out>242</out>
								<name>588776_Cookies Jam Baking Hands_By_Erik_Nuenighoff_Artlist_HD.mp4</name>
								<media>
									<video>
										<track>
											<clipitem id="clipitem-1211">
												<masterclipid>masterclip-98</masterclipid>
												<name>588776_Cookies Jam Baking Hands_By_Erik_Nuenighoff_Artlist_HD.mp4</name>
												<rate>
													<timebase>24</timebase>
													<ntsc>TRUE</ntsc>
												</rate>
												<alphatype>none</alphatype>
												<file id="file-84"/>
											</clipitem>
										</track>
									</video>
								</media>
								<logginginfo>
									<description></description>
									<scene></scene>
									<shottake></shottake>
									<lognote></lognote>
									<good></good>
									<originalvideofilename></originalvideofilename>
									<originalaudiofilename></originalaudiofilename>
								</logginginfo>
								<colorinfo>
									<lut></lut>
									<lut1></lut1>
									<asc_sop></asc_sop>
									<asc_sat></asc_sat>
									<lut2></lut2>
								</colorinfo>
								<labels>
									<label2>Violet</label2>
								</labels>
							</clip>
							<clip id="masterclip-99" explodedTracks="true">
								<uuid>f043af64-e62f-4392-ade1-988373f3febe</uuid>
								<masterclipid>masterclip-99</masterclipid>
								<ismasterclip>TRUE</ismasterclip>
								<duration>358</duration>
								<rate>
									<timebase>24</timebase>
									<ntsc>TRUE</ntsc>
								</rate>
								<in>176</in>
								<out>301</out>
								<name>588777_Cookies Jam Baking Hands_By_Erik_Nuenighoff_Artlist_HD.mp4</name>
								<media>
									<video>
										<track>
											<clipitem id="clipitem-1212">
												<masterclipid>masterclip-99</masterclipid>
												<name>588777_Cookies Jam Baking Hands_By_Erik_Nuenighoff_Artlist_HD.mp4</name>
												<rate>
													<timebase>24</timebase>
													<ntsc>TRUE</ntsc>
												</rate>
												<alphatype>none</alphatype>
												<file id="file-85"/>
											</clipitem>
										</track>
									</video>
								</media>
								<logginginfo>
									<description></description>
									<scene></scene>
									<shottake></shottake>
									<lognote></lognote>
									<good></good>
									<originalvideofilename></originalvideofilename>
									<originalaudiofilename></originalaudiofilename>
								</logginginfo>
								<colorinfo>
									<lut></lut>
									<lut1></lut1>
									<asc_sop></asc_sop>
									<asc_sat></asc_sat>
									<lut2></lut2>
								</colorinfo>
								<labels>
									<label2>Violet</label2>
								</labels>
							</clip>
							<clip id="masterclip-91" explodedTracks="true">
								<uuid>2db90131-5675-4ead-a654-b793678e735c</uuid>
								<masterclipid>masterclip-91</masterclipid>
								<ismasterclip>TRUE</ismasterclip>
								<duration>381</duration>
								<rate>
									<timebase>24</timebase>
									<ntsc>TRUE</ntsc>
								</rate>
								<in>233</in>
								<out>339</out>
								<name>588780_Cookies Baking Hands Dough_By_Erik_Nuenighoff_Artlist_HD.mp4</name>
								<media>
									<video>
										<track>
											<clipitem id="clipitem-1213">
												<masterclipid>masterclip-91</masterclipid>
												<name>588780_Cookies Baking Hands Dough_By_Erik_Nuenighoff_Artlist_HD.mp4</name>
												<rate>
													<timebase>24</timebase>
													<ntsc>TRUE</ntsc>
												</rate>
												<alphatype>none</alphatype>
												<file id="file-77"/>
											</clipitem>
										</track>
									</video>
								</media>
								<logginginfo>
									<description></description>
									<scene></scene>
									<shottake></shottake>
									<lognote></lognote>
									<good></good>
									<originalvideofilename></originalvideofilename>
									<originalaudiofilename></originalaudiofilename>
								</logginginfo>
								<colorinfo>
									<lut></lut>
									<lut1></lut1>
									<asc_sop></asc_sop>
									<asc_sat></asc_sat>
									<lut2></lut2>
								</colorinfo>
								<labels>
									<label2>Violet</label2>
								</labels>
							</clip>
							<clip id="masterclip-277" explodedTracks="true">
								<uuid>442c3b18-27b2-4d0c-af5a-ac2174c2e433</uuid>
								<masterclipid>masterclip-277</masterclipid>
								<ismasterclip>TRUE</ismasterclip>
								<duration>195</duration>
								<rate>
									<timebase>24</timebase>
									<ntsc>TRUE</ntsc>
								</rate>
								<name>588781_Cookies Baking Hands Dough_By_Erik_Nuenighoff_Artlist_HD.mp4</name>
								<media>
									<video>
										<track>
											<clipitem id="clipitem-1214">
												<masterclipid>masterclip-277</masterclipid>
												<name>588781_Cookies Baking Hands Dough_By_Erik_Nuenighoff_Artlist_HD.mp4</name>
												<rate>
													<timebase>24</timebase>
													<ntsc>TRUE</ntsc>
												</rate>
												<alphatype>none</alphatype>
												<pixelaspectratio>square</pixelaspectratio>
												<anamorphic>FALSE</anamorphic>
												<file id="file-241">
													<name>588781_Cookies Baking Hands Dough_By_Erik_Nuenighoff_Artlist_HD.mp4</name>
													<pathurl>file://localhost/Volumes/ATM%201/EYE%20CANDY/8%3a14%3a23/3_Raw%20Files/Artlist%20-%20%20Thumbprint%20Cookies/588781_Cookies%20Baking%20Hands%20Dough_By_Erik_Nuenighoff_Artlist_HD.mp4</pathurl>
													<rate>
														<timebase>24</timebase>
														<ntsc>TRUE</ntsc>
													</rate>
													<duration>195</duration>
													<timecode>
														<rate>
															<timebase>24</timebase>
															<ntsc>TRUE</ntsc>
														</rate>
														<string>13:33:36:10</string>
														<frame>1171594</frame>
														<displayformat>NDF</displayformat>
													</timecode>
													<media>
														<video>
															<samplecharacteristics>
																<rate>
																	<timebase>24</timebase>
																	<ntsc>TRUE</ntsc>
																</rate>
																<width>1920</width>
																<height>1080</height>
																<anamorphic>FALSE</anamorphic>
																<pixelaspectratio>square</pixelaspectratio>
																<fielddominance>none</fielddominance>
															</samplecharacteristics>
														</video>
													</media>
												</file>
											</clipitem>
										</track>
									</video>
								</media>
								<logginginfo>
									<description></description>
									<scene></scene>
									<shottake></shottake>
									<lognote></lognote>
									<good></good>
									<originalvideofilename></originalvideofilename>
									<originalaudiofilename></originalaudiofilename>
								</logginginfo>
								<colorinfo>
									<lut></lut>
									<lut1></lut1>
									<asc_sop></asc_sop>
									<asc_sat></asc_sat>
									<lut2></lut2>
								</colorinfo>
								<labels>
								</labels>
							</clip>
							<clip id="masterclip-278" explodedTracks="true">
								<uuid>0a4d7c85-6d48-4175-8e8d-83d66fa62d61</uuid>
								<masterclipid>masterclip-278</masterclipid>
								<ismasterclip>TRUE</ismasterclip>
								<duration>346</duration>
								<rate>
									<timebase>24</timebase>
									<ntsc>TRUE</ntsc>
								</rate>
								<name>588782_Cookies Baking Hands Dough_By_Erik_Nuenighoff_Artlist_HD.mp4</name>
								<media>
									<video>
										<track>
											<clipitem id="clipitem-1215">
												<masterclipid>masterclip-278</masterclipid>
												<name>588782_Cookies Baking Hands Dough_By_Erik_Nuenighoff_Artlist_HD.mp4</name>
												<rate>
													<timebase>24</timebase>
													<ntsc>TRUE</ntsc>
												</rate>
												<alphatype>none</alphatype>
												<pixelaspectratio>square</pixelaspectratio>
												<anamorphic>FALSE</anamorphic>
												<file id="file-242">
													<name>588782_Cookies Baking Hands Dough_By_Erik_Nuenighoff_Artlist_HD.mp4</name>
													<pathurl>file://localhost/Volumes/ATM%201/EYE%20CANDY/8%3a14%3a23/3_Raw%20Files/Artlist%20-%20%20Thumbprint%20Cookies/588782_Cookies%20Baking%20Hands%20Dough_By_Erik_Nuenighoff_Artlist_HD.mp4</pathurl>
													<rate>
														<timebase>24</timebase>
														<ntsc>TRUE</ntsc>
													</rate>
													<duration>346</duration>
													<timecode>
														<rate>
															<timebase>24</timebase>
															<ntsc>TRUE</ntsc>
														</rate>
														<string>13:34:31:19</string>
														<frame>1172923</frame>
														<displayformat>NDF</displayformat>
													</timecode>
													<media>
														<video>
															<samplecharacteristics>
																<rate>
																	<timebase>24</timebase>
																	<ntsc>TRUE</ntsc>
																</rate>
																<width>1920</width>
																<height>1080</height>
																<anamorphic>FALSE</anamorphic>
																<pixelaspectratio>square</pixelaspectratio>
																<fielddominance>none</fielddominance>
															</samplecharacteristics>
														</video>
													</media>
												</file>
											</clipitem>
										</track>
									</video>
								</media>
								<logginginfo>
									<description></description>
									<scene></scene>
									<shottake></shottake>
									<lognote></lognote>
									<good></good>
									<originalvideofilename></originalvideofilename>
									<originalaudiofilename></originalaudiofilename>
								</logginginfo>
								<colorinfo>
									<lut></lut>
									<lut1></lut1>
									<asc_sop></asc_sop>
									<asc_sat></asc_sat>
									<lut2></lut2>
								</colorinfo>
								<labels>
								</labels>
							</clip>
							<clip id="masterclip-93" explodedTracks="true">
								<uuid>18bfdefd-23a6-440d-942f-f51e4b5bd984</uuid>
								<masterclipid>masterclip-93</masterclipid>
								<ismasterclip>TRUE</ismasterclip>
								<duration>187</duration>
								<rate>
									<timebase>24</timebase>
									<ntsc>TRUE</ntsc>
								</rate>
								<in>118</in>
								<name>588783_Cookies Baking Hands Dough_By_Erik_Nuenighoff_Artlist_HD.mp4</name>
								<media>
									<video>
										<track>
											<clipitem id="clipitem-1216">
												<masterclipid>masterclip-93</masterclipid>
												<name>588783_Cookies Baking Hands Dough_By_Erik_Nuenighoff_Artlist_HD.mp4</name>
												<rate>
													<timebase>24</timebase>
													<ntsc>TRUE</ntsc>
												</rate>
												<alphatype>none</alphatype>
												<file id="file-79"/>
											</clipitem>
										</track>
									</video>
								</media>
								<logginginfo>
									<description></description>
									<scene></scene>
									<shottake></shottake>
									<lognote></lognote>
									<good></good>
									<originalvideofilename></originalvideofilename>
									<originalaudiofilename></originalaudiofilename>
								</logginginfo>
								<colorinfo>
									<lut></lut>
									<lut1></lut1>
									<asc_sop></asc_sop>
									<asc_sat></asc_sat>
									<lut2></lut2>
								</colorinfo>
								<labels>
									<label2>Violet</label2>
								</labels>
							</clip>
							<clip id="masterclip-101" explodedTracks="true">
								<uuid>f142d08b-b83c-4353-a373-86e2cb56c306</uuid>
								<masterclipid>masterclip-101</masterclipid>
								<ismasterclip>TRUE</ismasterclip>
								<duration>386</duration>
								<rate>
									<timebase>24</timebase>
									<ntsc>TRUE</ntsc>
								</rate>
								<name>588784_Cookies Oven Baking Hands_By_Erik_Nuenighoff_Artlist_HD.mp4</name>
								<media>
									<video>
										<track>
											<clipitem id="clipitem-1217">
												<masterclipid>masterclip-101</masterclipid>
												<name>588784_Cookies Oven Baking Hands_By_Erik_Nuenighoff_Artlist_HD.mp4</name>
												<rate>
													<timebase>24</timebase>
													<ntsc>TRUE</ntsc>
												</rate>
												<alphatype>none</alphatype>
												<file id="file-87"/>
											</clipitem>
										</track>
									</video>
								</media>
								<logginginfo>
									<description></description>
									<scene></scene>
									<shottake></shottake>
									<lognote></lognote>
									<good></good>
									<originalvideofilename></originalvideofilename>
									<originalaudiofilename></originalaudiofilename>
								</logginginfo>
								<colorinfo>
									<lut></lut>
									<lut1></lut1>
									<asc_sop></asc_sop>
									<asc_sat></asc_sat>
									<lut2></lut2>
								</colorinfo>
								<labels>
									<label2>Violet</label2>
								</labels>
							</clip>
							<clip id="masterclip-279" explodedTracks="true">
								<uuid>d93b8a43-863f-41eb-a7f3-064c85cd2364</uuid>
								<masterclipid>masterclip-279</masterclipid>
								<ismasterclip>TRUE</ismasterclip>
								<duration>282</duration>
								<rate>
									<timebase>24</timebase>
									<ntsc>TRUE</ntsc>
								</rate>
								<name>588785_Cookies Baking Mixer Hands_By_Erik_Nuenighoff_Artlist_HD.mp4</name>
								<media>
									<video>
										<track>
											<clipitem id="clipitem-1218">
												<masterclipid>masterclip-279</masterclipid>
												<name>588785_Cookies Baking Mixer Hands_By_Erik_Nuenighoff_Artlist_HD.mp4</name>
												<rate>
													<timebase>24</timebase>
													<ntsc>TRUE</ntsc>
												</rate>
												<alphatype>none</alphatype>
												<pixelaspectratio>square</pixelaspectratio>
												<anamorphic>FALSE</anamorphic>
												<file id="file-243">
													<name>588785_Cookies Baking Mixer Hands_By_Erik_Nuenighoff_Artlist_HD.mp4</name>
													<pathurl>file://localhost/Volumes/ATM%201/EYE%20CANDY/8%3a14%3a23/3_Raw%20Files/Artlist%20-%20%20Thumbprint%20Cookies/588785_Cookies%20Baking%20Mixer%20Hands_By_Erik_Nuenighoff_Artlist_HD.mp4</pathurl>
													<rate>
														<timebase>24</timebase>
														<ntsc>TRUE</ntsc>
													</rate>
													<duration>282</duration>
													<timecode>
														<rate>
															<timebase>24</timebase>
															<ntsc>TRUE</ntsc>
														</rate>
														<string>13:30:22:20</string>
														<frame>1166948</frame>
														<displayformat>NDF</displayformat>
													</timecode>
													<media>
														<video>
															<samplecharacteristics>
																<rate>
																	<timebase>24</timebase>
																	<ntsc>TRUE</ntsc>
																</rate>
																<width>1920</width>
																<height>1080</height>
																<anamorphic>FALSE</anamorphic>
																<pixelaspectratio>square</pixelaspectratio>
																<fielddominance>none</fielddominance>
															</samplecharacteristics>
														</video>
													</media>
												</file>
											</clipitem>
										</track>
									</video>
								</media>
								<logginginfo>
									<description></description>
									<scene></scene>
									<shottake></shottake>
									<lognote></lognote>
									<good></good>
									<originalvideofilename></originalvideofilename>
									<originalaudiofilename></originalaudiofilename>
								</logginginfo>
								<colorinfo>
									<lut></lut>
									<lut1></lut1>
									<asc_sop></asc_sop>
									<asc_sat></asc_sat>
									<lut2></lut2>
								</colorinfo>
								<labels>
								</labels>
							</clip>
							<clip id="masterclip-90" explodedTracks="true">
								<uuid>1af333a5-ef91-4749-a55b-c24f2896c215</uuid>
								<masterclipid>masterclip-90</masterclipid>
								<ismasterclip>TRUE</ismasterclip>
								<duration>819</duration>
								<rate>
									<timebase>24</timebase>
									<ntsc>TRUE</ntsc>
								</rate>
								<in>129</in>
								<out>242</out>
								<name>588786_Cookies Kneading Baking Hands_By_Erik_Nuenighoff_Artlist_HD.mp4</name>
								<media>
									<video>
										<track>
											<clipitem id="clipitem-1219">
												<masterclipid>masterclip-90</masterclipid>
												<name>588786_Cookies Kneading Baking Hands_By_Erik_Nuenighoff_Artlist_HD.mp4</name>
												<rate>
													<timebase>24</timebase>
													<ntsc>TRUE</ntsc>
												</rate>
												<alphatype>none</alphatype>
												<file id="file-76"/>
											</clipitem>
										</track>
									</video>
								</media>
								<logginginfo>
									<description></description>
									<scene></scene>
									<shottake></shottake>
									<lognote></lognote>
									<good></good>
									<originalvideofilename></originalvideofilename>
									<originalaudiofilename></originalaudiofilename>
								</logginginfo>
								<colorinfo>
									<lut></lut>
									<lut1></lut1>
									<asc_sop></asc_sop>
									<asc_sat></asc_sat>
									<lut2></lut2>
								</colorinfo>
								<labels>
									<label2>Violet</label2>
								</labels>
							</clip>
							<clip id="masterclip-92" explodedTracks="true">
								<uuid>d08c7055-2fdd-4dc8-bc20-888a71fb4607</uuid>
								<masterclipid>masterclip-92</masterclipid>
								<ismasterclip>TRUE</ismasterclip>
								<duration>617</duration>
								<rate>
									<timebase>24</timebase>
									<ntsc>TRUE</ntsc>
								</rate>
								<in>371</in>
								<out>572</out>
								<name>588787_Cookies Kneading Baking Hands_By_Erik_Nuenighoff_Artlist_HD.mp4</name>
								<media>
									<video>
										<track>
											<clipitem id="clipitem-1220">
												<masterclipid>masterclip-92</masterclipid>
												<name>588787_Cookies Kneading Baking Hands_By_Erik_Nuenighoff_Artlist_HD.mp4</name>
												<rate>
													<timebase>24</timebase>
													<ntsc>TRUE</ntsc>
												</rate>
												<alphatype>none</alphatype>
												<file id="file-78"/>
											</clipitem>
										</track>
									</video>
								</media>
								<logginginfo>
									<description></description>
									<scene></scene>
									<shottake></shottake>
									<lognote></lognote>
									<good></good>
									<originalvideofilename></originalvideofilename>
									<originalaudiofilename></originalaudiofilename>
								</logginginfo>
								<colorinfo>
									<lut></lut>
									<lut1></lut1>
									<asc_sop></asc_sop>
									<asc_sat></asc_sat>
									<lut2></lut2>
								</colorinfo>
								<labels>
									<label2>Violet</label2>
								</labels>
							</clip>
							<clip id="masterclip-94" explodedTracks="true">
								<uuid>2851cdbb-cc11-4817-90fa-20226abef39f</uuid>
								<masterclipid>masterclip-94</masterclipid>
								<ismasterclip>TRUE</ismasterclip>
								<duration>941</duration>
								<rate>
									<timebase>24</timebase>
									<ntsc>TRUE</ntsc>
								</rate>
								<in>402</in>
								<out>707</out>
								<name>588788_Cookies Kneading Baking Hands_By_Erik_Nuenighoff_Artlist_HD.mp4</name>
								<media>
									<video>
										<track>
											<clipitem id="clipitem-1221">
												<masterclipid>masterclip-94</masterclipid>
												<name>588788_Cookies Kneading Baking Hands_By_Erik_Nuenighoff_Artlist_HD.mp4</name>
												<rate>
													<timebase>24</timebase>
													<ntsc>TRUE</ntsc>
												</rate>
												<alphatype>none</alphatype>
												<file id="file-80"/>
											</clipitem>
										</track>
									</video>
								</media>
								<logginginfo>
									<description></description>
									<scene></scene>
									<shottake></shottake>
									<lognote></lognote>
									<good></good>
									<originalvideofilename></originalvideofilename>
									<originalaudiofilename></originalaudiofilename>
								</logginginfo>
								<colorinfo>
									<lut></lut>
									<lut1></lut1>
									<asc_sop></asc_sop>
									<asc_sat></asc_sat>
									<lut2></lut2>
								</colorinfo>
								<labels>
									<label2>Violet</label2>
								</labels>
							</clip>
							<clip id="masterclip-89" explodedTracks="true">
								<uuid>e9b337dd-0657-43b2-b53c-ee0d4ffc298a</uuid>
								<masterclipid>masterclip-89</masterclipid>
								<ismasterclip>TRUE</ismasterclip>
								<duration>207</duration>
								<rate>
									<timebase>24</timebase>
									<ntsc>TRUE</ntsc>
								</rate>
								<in>68</in>
								<out>148</out>
								<name>588791_Mixer Dough Hands Cookies_By_Erik_Nuenighoff_Artlist_HD.mp4</name>
								<media>
									<video>
										<track>
											<clipitem id="clipitem-1222">
												<masterclipid>masterclip-89</masterclipid>
												<name>588791_Mixer Dough Hands Cookies_By_Erik_Nuenighoff_Artlist_HD.mp4</name>
												<rate>
													<timebase>24</timebase>
													<ntsc>TRUE</ntsc>
												</rate>
												<alphatype>none</alphatype>
												<file id="file-75"/>
											</clipitem>
										</track>
									</video>
								</media>
								<logginginfo>
									<description></description>
									<scene></scene>
									<shottake></shottake>
									<lognote></lognote>
									<good></good>
									<originalvideofilename></originalvideofilename>
									<originalaudiofilename></originalaudiofilename>
								</logginginfo>
								<colorinfo>
									<lut></lut>
									<lut1></lut1>
									<asc_sop></asc_sop>
									<asc_sat></asc_sat>
									<lut2></lut2>
								</colorinfo>
								<labels>
								</labels>
							</clip>
							<clip id="masterclip-100" explodedTracks="true">
								<uuid>759bf92b-eaca-4ece-8118-cd1b3ea28355</uuid>
								<masterclipid>masterclip-100</masterclipid>
								<ismasterclip>TRUE</ismasterclip>
								<duration>310</duration>
								<rate>
									<timebase>24</timebase>
									<ntsc>TRUE</ntsc>
								</rate>
								<out>129</out>
								<name>588792_Cookies Baking Jam Dough_By_Erik_Nuenighoff_Artlist_HD.mp4</name>
								<media>
									<video>
										<track>
											<clipitem id="clipitem-1223">
												<masterclipid>masterclip-100</masterclipid>
												<name>588792_Cookies Baking Jam Dough_By_Erik_Nuenighoff_Artlist_HD.mp4</name>
												<rate>
													<timebase>24</timebase>
													<ntsc>TRUE</ntsc>
												</rate>
												<alphatype>none</alphatype>
												<file id="file-86"/>
											</clipitem>
										</track>
									</video>
								</media>
								<logginginfo>
									<description></description>
									<scene></scene>
									<shottake></shottake>
									<lognote></lognote>
									<good></good>
									<originalvideofilename></originalvideofilename>
									<originalaudiofilename></originalaudiofilename>
								</logginginfo>
								<colorinfo>
									<lut></lut>
									<lut1></lut1>
									<asc_sop></asc_sop>
									<asc_sat></asc_sat>
									<lut2></lut2>
								</colorinfo>
								<labels>
									<label2>Violet</label2>
								</labels>
							</clip>
							<clip id="masterclip-95" explodedTracks="true">
								<uuid>358975cd-d71d-44b7-943a-1a5d86fa1626</uuid>
								<masterclipid>masterclip-95</masterclipid>
								<ismasterclip>TRUE</ismasterclip>
								<duration>211</duration>
								<rate>
									<timebase>24</timebase>
									<ntsc>TRUE</ntsc>
								</rate>
								<in>18</in>
								<out>149</out>
								<name>588779_Jam Hands Opening Jar_By_Erik_Nuenighoff_Artlist_HD.mp4</name>
								<media>
									<video>
										<track>
											<clipitem id="clipitem-1224">
												<masterclipid>masterclip-95</masterclipid>
												<name>588779_Jam Hands Opening Jar_By_Erik_Nuenighoff_Artlist_HD.mp4</name>
												<rate>
													<timebase>24</timebase>
													<ntsc>TRUE</ntsc>
												</rate>
												<alphatype>none</alphatype>
												<file id="file-81"/>
											</clipitem>
										</track>
									</video>
								</media>
								<logginginfo>
									<description></description>
									<scene></scene>
									<shottake></shottake>
									<lognote></lognote>
									<good></good>
									<originalvideofilename></originalvideofilename>
									<originalaudiofilename></originalaudiofilename>
								</logginginfo>
								<colorinfo>
									<lut></lut>
									<lut1></lut1>
									<asc_sop></asc_sop>
									<asc_sat></asc_sat>
									<lut2></lut2>
								</colorinfo>
								<labels>
									<label2>Violet</label2>
								</labels>
							</clip>
						</children>
					</bin>
					<clip id="masterclip-149" explodedTracks="true">
						<uuid>dbcc7ead-ca62-451d-b6ff-c26713b9504c</uuid>
						<masterclipid>masterclip-149</masterclipid>
						<ismasterclip>TRUE</ismasterclip>
						<duration>3747</duration>
						<rate>
							<timebase>30</timebase>
							<ntsc>FALSE</ntsc>
						</rate>
						<in>129</in>
						<name>(alphafoodie)_B1EX31VAyMJ_IG.mp4</name>
						<media>
							<video>
								<track>
									<clipitem id="clipitem-1225">
										<masterclipid>masterclip-149</masterclipid>
										<name>(alphafoodie)_B1EX31VAyMJ_IG.mp4</name>
										<rate>
											<timebase>30</timebase>
											<ntsc>FALSE</ntsc>
										</rate>
										<alphatype>none</alphatype>
										<file id="file-128"/>
										<link>
											<linkclipref>clipitem-1225</linkclipref>
											<mediatype>video</mediatype>
											<trackindex>1</trackindex>
											<clipindex>1</clipindex>
										</link>
										<link>
											<linkclipref>clipitem-1226</linkclipref>
											<mediatype>audio</mediatype>
											<trackindex>1</trackindex>
											<clipindex>1</clipindex>
											<groupindex>1</groupindex>
										</link>
										<link>
											<linkclipref>clipitem-1227</linkclipref>
											<mediatype>audio</mediatype>
											<trackindex>2</trackindex>
											<clipindex>1</clipindex>
											<groupindex>1</groupindex>
										</link>
									</clipitem>
								</track>
							</video>
							<audio>
								<track>
									<clipitem id="clipitem-1226">
										<masterclipid>masterclip-149</masterclipid>
										<name>(alphafoodie)_B1EX31VAyMJ_IG.mp4</name>
										<rate>
											<timebase>30</timebase>
											<ntsc>FALSE</ntsc>
										</rate>
										<file id="file-128"/>
										<sourcetrack>
											<mediatype>audio</mediatype>
											<trackindex>1</trackindex>
										</sourcetrack>
										<link>
											<linkclipref>clipitem-1225</linkclipref>
											<mediatype>video</mediatype>
											<trackindex>1</trackindex>
											<clipindex>1</clipindex>
										</link>
										<link>
											<linkclipref>clipitem-1226</linkclipref>
											<mediatype>audio</mediatype>
											<trackindex>1</trackindex>
											<clipindex>1</clipindex>
											<groupindex>1</groupindex>
										</link>
										<link>
											<linkclipref>clipitem-1227</linkclipref>
											<mediatype>audio</mediatype>
											<trackindex>2</trackindex>
											<clipindex>1</clipindex>
											<groupindex>1</groupindex>
										</link>
									</clipitem>
								</track>
								<track>
									<clipitem id="clipitem-1227">
										<masterclipid>masterclip-149</masterclipid>
										<name>(alphafoodie)_B1EX31VAyMJ_IG.mp4</name>
										<rate>
											<timebase>30</timebase>
											<ntsc>FALSE</ntsc>
										</rate>
										<file id="file-128"/>
										<sourcetrack>
											<mediatype>audio</mediatype>
											<trackindex>2</trackindex>
										</sourcetrack>
										<link>
											<linkclipref>clipitem-1225</linkclipref>
											<mediatype>video</mediatype>
											<trackindex>1</trackindex>
											<clipindex>1</clipindex>
										</link>
										<link>
											<linkclipref>clipitem-1226</linkclipref>
											<mediatype>audio</mediatype>
											<trackindex>1</trackindex>
											<clipindex>1</clipindex>
											<groupindex>1</groupindex>
										</link>
										<link>
											<linkclipref>clipitem-1227</linkclipref>
											<mediatype>audio</mediatype>
											<trackindex>2</trackindex>
											<clipindex>1</clipindex>
											<groupindex>1</groupindex>
										</link>
									</clipitem>
								</track>
							</audio>
						</media>
						<logginginfo>
							<description></description>
							<scene></scene>
							<shottake></shottake>
							<lognote></lognote>
							<good></good>
							<originalvideofilename></originalvideofilename>
							<originalaudiofilename></originalaudiofilename>
						</logginginfo>
						<colorinfo>
							<lut></lut>
							<lut1></lut1>
							<asc_sop></asc_sop>
							<asc_sat></asc_sat>
							<lut2></lut2>
						</colorinfo>
						<labels>
							<label2>Violet</label2>
						</labels>
					</clip>
					<bin>
						<name>pastel</name>
						<children>
							<clip id="masterclip-31" explodedTracks="true">
								<uuid>d155df25-4f1f-473a-a7ac-ecc671fad941</uuid>
								<masterclipid>masterclip-31</masterclipid>
								<ismasterclip>TRUE</ismasterclip>
								<duration>6269</duration>
								<rate>
									<timebase>30</timebase>
									<ntsc>FALSE</ntsc>
								</rate>
								<in>1661</in>
								<out>2009</out>
								<name>(alphafoodie)_B_FkQqoAa-J_IG.mp4</name>
								<media>
									<video>
										<track>
											<clipitem id="clipitem-1228">
												<masterclipid>masterclip-31</masterclipid>
												<name>(alphafoodie)_B_FkQqoAa-J_IG.mp4</name>
												<rate>
													<timebase>30</timebase>
													<ntsc>FALSE</ntsc>
												</rate>
												<alphatype>none</alphatype>
												<file id="file-24"/>
												<link>
													<linkclipref>clipitem-1228</linkclipref>
													<mediatype>video</mediatype>
													<trackindex>1</trackindex>
													<clipindex>1</clipindex>
												</link>
												<link>
													<linkclipref>clipitem-1229</linkclipref>
													<mediatype>audio</mediatype>
													<trackindex>1</trackindex>
													<clipindex>1</clipindex>
													<groupindex>1</groupindex>
												</link>
												<link>
													<linkclipref>clipitem-1230</linkclipref>
													<mediatype>audio</mediatype>
													<trackindex>2</trackindex>
													<clipindex>1</clipindex>
													<groupindex>1</groupindex>
												</link>
											</clipitem>
										</track>
									</video>
									<audio>
										<track>
											<clipitem id="clipitem-1229">
												<masterclipid>masterclip-31</masterclipid>
												<name>(alphafoodie)_B_FkQqoAa-J_IG.mp4</name>
												<rate>
													<timebase>30</timebase>
													<ntsc>FALSE</ntsc>
												</rate>
												<file id="file-24"/>
												<sourcetrack>
													<mediatype>audio</mediatype>
													<trackindex>1</trackindex>
												</sourcetrack>
												<link>
													<linkclipref>clipitem-1228</linkclipref>
													<mediatype>video</mediatype>
													<trackindex>1</trackindex>
													<clipindex>1</clipindex>
												</link>
												<link>
													<linkclipref>clipitem-1229</linkclipref>
													<mediatype>audio</mediatype>
													<trackindex>1</trackindex>
													<clipindex>1</clipindex>
													<groupindex>1</groupindex>
												</link>
												<link>
													<linkclipref>clipitem-1230</linkclipref>
													<mediatype>audio</mediatype>
													<trackindex>2</trackindex>
													<clipindex>1</clipindex>
													<groupindex>1</groupindex>
												</link>
											</clipitem>
										</track>
										<track>
											<clipitem id="clipitem-1230">
												<masterclipid>masterclip-31</masterclipid>
												<name>(alphafoodie)_B_FkQqoAa-J_IG.mp4</name>
												<rate>
													<timebase>30</timebase>
													<ntsc>FALSE</ntsc>
												</rate>
												<file id="file-24"/>
												<sourcetrack>
													<mediatype>audio</mediatype>
													<trackindex>2</trackindex>
												</sourcetrack>
												<link>
													<linkclipref>clipitem-1228</linkclipref>
													<mediatype>video</mediatype>
													<trackindex>1</trackindex>
													<clipindex>1</clipindex>
												</link>
												<link>
													<linkclipref>clipitem-1229</linkclipref>
													<mediatype>audio</mediatype>
													<trackindex>1</trackindex>
													<clipindex>1</clipindex>
													<groupindex>1</groupindex>
												</link>
												<link>
													<linkclipref>clipitem-1230</linkclipref>
													<mediatype>audio</mediatype>
													<trackindex>2</trackindex>
													<clipindex>1</clipindex>
													<groupindex>1</groupindex>
												</link>
											</clipitem>
										</track>
									</audio>
								</media>
								<logginginfo>
									<description></description>
									<scene></scene>
									<shottake></shottake>
									<lognote></lognote>
									<good></good>
									<originalvideofilename></originalvideofilename>
									<originalaudiofilename></originalaudiofilename>
								</logginginfo>
								<colorinfo>
									<lut></lut>
									<lut1></lut1>
									<asc_sop></asc_sop>
									<asc_sat></asc_sat>
									<lut2></lut2>
								</colorinfo>
								<labels>
									<label2>Violet</label2>
								</labels>
							</clip>
							<clip id="masterclip-32" explodedTracks="true">
								<uuid>25fcfcf8-a8e5-4dbd-af7d-42008d71152f</uuid>
								<masterclipid>masterclip-32</masterclipid>
								<ismasterclip>TRUE</ismasterclip>
								<duration>434</duration>
								<rate>
									<timebase>30</timebase>
									<ntsc>FALSE</ntsc>
								</rate>
								<in>7</in>
								<name>(bakedbyprecious)_7052170681194269999_TT.mp4</name>
								<media>
									<video>
										<track>
											<clipitem id="clipitem-1231">
												<masterclipid>masterclip-32</masterclipid>
												<name>(bakedbyprecious)_7052170681194269999_TT.mp4</name>
												<rate>
													<timebase>30</timebase>
													<ntsc>FALSE</ntsc>
												</rate>
												<alphatype>none</alphatype>
												<file id="file-25"/>
												<link>
													<linkclipref>clipitem-1231</linkclipref>
													<mediatype>video</mediatype>
													<trackindex>1</trackindex>
													<clipindex>1</clipindex>
												</link>
												<link>
													<linkclipref>clipitem-1232</linkclipref>
													<mediatype>audio</mediatype>
													<trackindex>1</trackindex>
													<clipindex>1</clipindex>
													<groupindex>1</groupindex>
												</link>
												<link>
													<linkclipref>clipitem-1233</linkclipref>
													<mediatype>audio</mediatype>
													<trackindex>2</trackindex>
													<clipindex>1</clipindex>
													<groupindex>1</groupindex>
												</link>
											</clipitem>
										</track>
									</video>
									<audio>
										<track>
											<clipitem id="clipitem-1232">
												<masterclipid>masterclip-32</masterclipid>
												<name>(bakedbyprecious)_7052170681194269999_TT.mp4</name>
												<rate>
													<timebase>30</timebase>
													<ntsc>FALSE</ntsc>
												</rate>
												<file id="file-25"/>
												<sourcetrack>
													<mediatype>audio</mediatype>
													<trackindex>1</trackindex>
												</sourcetrack>
												<link>
													<linkclipref>clipitem-1231</linkclipref>
													<mediatype>video</mediatype>
													<trackindex>1</trackindex>
													<clipindex>1</clipindex>
												</link>
												<link>
													<linkclipref>clipitem-1232</linkclipref>
													<mediatype>audio</mediatype>
													<trackindex>1</trackindex>
													<clipindex>1</clipindex>
													<groupindex>1</groupindex>
												</link>
												<link>
													<linkclipref>clipitem-1233</linkclipref>
													<mediatype>audio</mediatype>
													<trackindex>2</trackindex>
													<clipindex>1</clipindex>
													<groupindex>1</groupindex>
												</link>
											</clipitem>
										</track>
										<track>
											<clipitem id="clipitem-1233">
												<masterclipid>masterclip-32</masterclipid>
												<name>(bakedbyprecious)_7052170681194269999_TT.mp4</name>
												<rate>
													<timebase>30</timebase>
													<ntsc>FALSE</ntsc>
												</rate>
												<file id="file-25"/>
												<sourcetrack>
													<mediatype>audio</mediatype>
													<trackindex>2</trackindex>
												</sourcetrack>
												<link>
													<linkclipref>clipitem-1231</linkclipref>
													<mediatype>video</mediatype>
													<trackindex>1</trackindex>
													<clipindex>1</clipindex>
												</link>
												<link>
													<linkclipref>clipitem-1232</linkclipref>
													<mediatype>audio</mediatype>
													<trackindex>1</trackindex>
													<clipindex>1</clipindex>
													<groupindex>1</groupindex>
												</link>
												<link>
													<linkclipref>clipitem-1233</linkclipref>
													<mediatype>audio</mediatype>
													<trackindex>2</trackindex>
													<clipindex>1</clipindex>
													<groupindex>1</groupindex>
												</link>
											</clipitem>
										</track>
									</audio>
								</media>
								<logginginfo>
									<description></description>
									<scene></scene>
									<shottake></shottake>
									<lognote></lognote>
									<good></good>
									<originalvideofilename></originalvideofilename>
									<originalaudiofilename></originalaudiofilename>
								</logginginfo>
								<colorinfo>
									<lut></lut>
									<lut1></lut1>
									<asc_sop></asc_sop>
									<asc_sat></asc_sat>
									<lut2></lut2>
								</colorinfo>
								<labels>
									<label2>Violet</label2>
								</labels>
							</clip>
							<clip id="masterclip-30" explodedTracks="true">
								<uuid>ca4382c7-42ed-45f2-9ab2-ff8bb1c3a088</uuid>
								<masterclipid>masterclip-30</masterclipid>
								<ismasterclip>TRUE</ismasterclip>
								<duration>901</duration>
								<rate>
									<timebase>30</timebase>
									<ntsc>FALSE</ntsc>
								</rate>
								<in>363</in>
								<out>848</out>
								<name>(ennahs.cakes)_CQoE8xTDi3J_IG.mp4</name>
								<media>
									<video>
										<track>
											<clipitem id="clipitem-1234">
												<masterclipid>masterclip-30</masterclipid>
												<name>(ennahs.cakes)_CQoE8xTDi3J_IG.mp4</name>
												<rate>
													<timebase>30</timebase>
													<ntsc>FALSE</ntsc>
												</rate>
												<alphatype>none</alphatype>
												<file id="file-23"/>
												<link>
													<linkclipref>clipitem-1234</linkclipref>
													<mediatype>video</mediatype>
													<trackindex>1</trackindex>
													<clipindex>1</clipindex>
												</link>
												<link>
													<linkclipref>clipitem-1235</linkclipref>
													<mediatype>audio</mediatype>
													<trackindex>1</trackindex>
													<clipindex>1</clipindex>
													<groupindex>1</groupindex>
												</link>
												<link>
													<linkclipref>clipitem-1236</linkclipref>
													<mediatype>audio</mediatype>
													<trackindex>2</trackindex>
													<clipindex>1</clipindex>
													<groupindex>1</groupindex>
												</link>
											</clipitem>
										</track>
									</video>
									<audio>
										<track>
											<clipitem id="clipitem-1235">
												<masterclipid>masterclip-30</masterclipid>
												<name>(ennahs.cakes)_CQoE8xTDi3J_IG.mp4</name>
												<rate>
													<timebase>30</timebase>
													<ntsc>FALSE</ntsc>
												</rate>
												<file id="file-23"/>
												<sourcetrack>
													<mediatype>audio</mediatype>
													<trackindex>1</trackindex>
												</sourcetrack>
												<link>
													<linkclipref>clipitem-1234</linkclipref>
													<mediatype>video</mediatype>
													<trackindex>1</trackindex>
													<clipindex>1</clipindex>
												</link>
												<link>
													<linkclipref>clipitem-1235</linkclipref>
													<mediatype>audio</mediatype>
													<trackindex>1</trackindex>
													<clipindex>1</clipindex>
													<groupindex>1</groupindex>
												</link>
												<link>
													<linkclipref>clipitem-1236</linkclipref>
													<mediatype>audio</mediatype>
													<trackindex>2</trackindex>
													<clipindex>1</clipindex>
													<groupindex>1</groupindex>
												</link>
											</clipitem>
										</track>
										<track>
											<clipitem id="clipitem-1236">
												<masterclipid>masterclip-30</masterclipid>
												<name>(ennahs.cakes)_CQoE8xTDi3J_IG.mp4</name>
												<rate>
													<timebase>30</timebase>
													<ntsc>FALSE</ntsc>
												</rate>
												<file id="file-23"/>
												<sourcetrack>
													<mediatype>audio</mediatype>
													<trackindex>2</trackindex>
												</sourcetrack>
												<link>
													<linkclipref>clipitem-1234</linkclipref>
													<mediatype>video</mediatype>
													<trackindex>1</trackindex>
													<clipindex>1</clipindex>
												</link>
												<link>
													<linkclipref>clipitem-1235</linkclipref>
													<mediatype>audio</mediatype>
													<trackindex>1</trackindex>
													<clipindex>1</clipindex>
													<groupindex>1</groupindex>
												</link>
												<link>
													<linkclipref>clipitem-1236</linkclipref>
													<mediatype>audio</mediatype>
													<trackindex>2</trackindex>
													<clipindex>1</clipindex>
													<groupindex>1</groupindex>
												</link>
											</clipitem>
										</track>
									</audio>
								</media>
								<logginginfo>
									<description></description>
									<scene></scene>
									<shottake></shottake>
									<lognote></lognote>
									<good></good>
									<originalvideofilename></originalvideofilename>
									<originalaudiofilename></originalaudiofilename>
								</logginginfo>
								<colorinfo>
									<lut></lut>
									<lut1></lut1>
									<asc_sop></asc_sop>
									<asc_sat></asc_sat>
									<lut2></lut2>
								</colorinfo>
								<labels>
									<label2>Violet</label2>
								</labels>
							</clip>
							<clip id="masterclip-34" explodedTracks="true">
								<uuid>ffdacb1d-37c9-4aaf-97eb-924643b6f7c9</uuid>
								<masterclipid>masterclip-34</masterclipid>
								<ismasterclip>TRUE</ismasterclip>
								<duration>576</duration>
								<rate>
									<timebase>29</timebase>
									<ntsc>FALSE</ntsc>
								</rate>
								<name>(loganscandies)_6941446682286574854_TT.mp4</name>
								<media>
									<video>
										<track>
											<clipitem id="clipitem-1237">
												<masterclipid>masterclip-34</masterclipid>
												<name>(loganscandies)_6941446682286574854_TT.mp4</name>
												<rate>
													<timebase>29</timebase>
													<ntsc>FALSE</ntsc>
												</rate>
												<alphatype>none</alphatype>
												<file id="file-27"/>
												<link>
													<linkclipref>clipitem-1237</linkclipref>
													<mediatype>video</mediatype>
													<trackindex>1</trackindex>
													<clipindex>1</clipindex>
												</link>
												<link>
													<linkclipref>clipitem-1238</linkclipref>
													<mediatype>audio</mediatype>
													<trackindex>1</trackindex>
													<clipindex>1</clipindex>
													<groupindex>1</groupindex>
												</link>
												<link>
													<linkclipref>clipitem-1239</linkclipref>
													<mediatype>audio</mediatype>
													<trackindex>2</trackindex>
													<clipindex>1</clipindex>
													<groupindex>1</groupindex>
												</link>
											</clipitem>
										</track>
									</video>
									<audio>
										<track>
											<clipitem id="clipitem-1238">
												<masterclipid>masterclip-34</masterclipid>
												<name>(loganscandies)_6941446682286574854_TT.mp4</name>
												<rate>
													<timebase>29</timebase>
													<ntsc>FALSE</ntsc>
												</rate>
												<file id="file-27"/>
												<sourcetrack>
													<mediatype>audio</mediatype>
													<trackindex>1</trackindex>
												</sourcetrack>
												<link>
													<linkclipref>clipitem-1237</linkclipref>
													<mediatype>video</mediatype>
													<trackindex>1</trackindex>
													<clipindex>1</clipindex>
												</link>
												<link>
													<linkclipref>clipitem-1238</linkclipref>
													<mediatype>audio</mediatype>
													<trackindex>1</trackindex>
													<clipindex>1</clipindex>
													<groupindex>1</groupindex>
												</link>
												<link>
													<linkclipref>clipitem-1239</linkclipref>
													<mediatype>audio</mediatype>
													<trackindex>2</trackindex>
													<clipindex>1</clipindex>
													<groupindex>1</groupindex>
												</link>
											</clipitem>
										</track>
										<track>
											<clipitem id="clipitem-1239">
												<masterclipid>masterclip-34</masterclipid>
												<name>(loganscandies)_6941446682286574854_TT.mp4</name>
												<rate>
													<timebase>29</timebase>
													<ntsc>FALSE</ntsc>
												</rate>
												<file id="file-27"/>
												<sourcetrack>
													<mediatype>audio</mediatype>
													<trackindex>2</trackindex>
												</sourcetrack>
												<link>
													<linkclipref>clipitem-1237</linkclipref>
													<mediatype>video</mediatype>
													<trackindex>1</trackindex>
													<clipindex>1</clipindex>
												</link>
												<link>
													<linkclipref>clipitem-1238</linkclipref>
													<mediatype>audio</mediatype>
													<trackindex>1</trackindex>
													<clipindex>1</clipindex>
													<groupindex>1</groupindex>
												</link>
												<link>
													<linkclipref>clipitem-1239</linkclipref>
													<mediatype>audio</mediatype>
													<trackindex>2</trackindex>
													<clipindex>1</clipindex>
													<groupindex>1</groupindex>
												</link>
											</clipitem>
										</track>
									</audio>
								</media>
								<logginginfo>
									<description></description>
									<scene></scene>
									<shottake></shottake>
									<lognote></lognote>
									<good></good>
									<originalvideofilename></originalvideofilename>
									<originalaudiofilename></originalaudiofilename>
								</logginginfo>
								<colorinfo>
									<lut></lut>
									<lut1></lut1>
									<asc_sop></asc_sop>
									<asc_sat></asc_sat>
									<lut2></lut2>
								</colorinfo>
								<labels>
									<label2>Violet</label2>
								</labels>
							</clip>
							<clip id="masterclip-33" explodedTracks="true">
								<uuid>95a40a60-6b77-43de-9a74-0479a907b692</uuid>
								<masterclipid>masterclip-33</masterclipid>
								<ismasterclip>TRUE</ismasterclip>
								<duration>1090</duration>
								<rate>
									<timebase>30</timebase>
									<ntsc>FALSE</ntsc>
								</rate>
								<in>286</in>
								<out>1024</out>
								<name>(roastedpepper)_7129231606341963051_TT.mp4</name>
								<media>
									<video>
										<track>
											<clipitem id="clipitem-1240">
												<masterclipid>masterclip-33</masterclipid>
												<name>(roastedpepper)_7129231606341963051_TT.mp4</name>
												<rate>
													<timebase>30</timebase>
													<ntsc>FALSE</ntsc>
												</rate>
												<alphatype>none</alphatype>
												<file id="file-26"/>
												<link>
													<linkclipref>clipitem-1240</linkclipref>
													<mediatype>video</mediatype>
													<trackindex>1</trackindex>
													<clipindex>1</clipindex>
												</link>
												<link>
													<linkclipref>clipitem-1241</linkclipref>
													<mediatype>audio</mediatype>
													<trackindex>1</trackindex>
													<clipindex>1</clipindex>
													<groupindex>1</groupindex>
												</link>
												<link>
													<linkclipref>clipitem-1242</linkclipref>
													<mediatype>audio</mediatype>
													<trackindex>2</trackindex>
													<clipindex>1</clipindex>
													<groupindex>1</groupindex>
												</link>
											</clipitem>
										</track>
									</video>
									<audio>
										<track>
											<clipitem id="clipitem-1241">
												<masterclipid>masterclip-33</masterclipid>
												<name>(roastedpepper)_7129231606341963051_TT.mp4</name>
												<rate>
													<timebase>30</timebase>
													<ntsc>FALSE</ntsc>
												</rate>
												<file id="file-26"/>
												<sourcetrack>
													<mediatype>audio</mediatype>
													<trackindex>1</trackindex>
												</sourcetrack>
												<link>
													<linkclipref>clipitem-1240</linkclipref>
													<mediatype>video</mediatype>
													<trackindex>1</trackindex>
													<clipindex>1</clipindex>
												</link>
												<link>
													<linkclipref>clipitem-1241</linkclipref>
													<mediatype>audio</mediatype>
													<trackindex>1</trackindex>
													<clipindex>1</clipindex>
													<groupindex>1</groupindex>
												</link>
												<link>
													<linkclipref>clipitem-1242</linkclipref>
													<mediatype>audio</mediatype>
													<trackindex>2</trackindex>
													<clipindex>1</clipindex>
													<groupindex>1</groupindex>
												</link>
											</clipitem>
										</track>
										<track>
											<clipitem id="clipitem-1242">
												<masterclipid>masterclip-33</masterclipid>
												<name>(roastedpepper)_7129231606341963051_TT.mp4</name>
												<rate>
													<timebase>30</timebase>
													<ntsc>FALSE</ntsc>
												</rate>
												<file id="file-26"/>
												<sourcetrack>
													<mediatype>audio</mediatype>
													<trackindex>2</trackindex>
												</sourcetrack>
												<link>
													<linkclipref>clipitem-1240</linkclipref>
													<mediatype>video</mediatype>
													<trackindex>1</trackindex>
													<clipindex>1</clipindex>
												</link>
												<link>
													<linkclipref>clipitem-1241</linkclipref>
													<mediatype>audio</mediatype>
													<trackindex>1</trackindex>
													<clipindex>1</clipindex>
													<groupindex>1</groupindex>
												</link>
												<link>
													<linkclipref>clipitem-1242</linkclipref>
													<mediatype>audio</mediatype>
													<trackindex>2</trackindex>
													<clipindex>1</clipindex>
													<groupindex>1</groupindex>
												</link>
											</clipitem>
										</track>
									</audio>
								</media>
								<logginginfo>
									<description></description>
									<scene></scene>
									<shottake></shottake>
									<lognote></lognote>
									<good></good>
									<originalvideofilename></originalvideofilename>
									<originalaudiofilename></originalaudiofilename>
								</logginginfo>
								<colorinfo>
									<lut></lut>
									<lut1></lut1>
									<asc_sop></asc_sop>
									<asc_sat></asc_sat>
									<lut2></lut2>
								</colorinfo>
								<labels>
									<label2>Violet</label2>
								</labels>
							</clip>
							<clip id="masterclip-35" explodedTracks="true">
								<uuid>0e7ff328-8d34-4dbb-8d54-5846f5c5a113</uuid>
								<masterclipid>masterclip-35</masterclipid>
								<ismasterclip>TRUE</ismasterclip>
								<duration>1014</duration>
								<rate>
									<timebase>30</timebase>
									<ntsc>FALSE</ntsc>
								</rate>
								<in>166</in>
								<out>758</out>
								<name>(sugarandsparrowco)_CZe0T1NoJTE_IG.mp4</name>
								<media>
									<video>
										<track>
											<clipitem id="clipitem-1243">
												<masterclipid>masterclip-35</masterclipid>
												<name>(sugarandsparrowco)_CZe0T1NoJTE_IG.mp4</name>
												<rate>
													<timebase>30</timebase>
													<ntsc>FALSE</ntsc>
												</rate>
												<alphatype>none</alphatype>
												<file id="file-28"/>
												<link>
													<linkclipref>clipitem-1243</linkclipref>
													<mediatype>video</mediatype>
													<trackindex>1</trackindex>
													<clipindex>1</clipindex>
												</link>
												<link>
													<linkclipref>clipitem-1244</linkclipref>
													<mediatype>audio</mediatype>
													<trackindex>1</trackindex>
													<clipindex>1</clipindex>
													<groupindex>1</groupindex>
												</link>
												<link>
													<linkclipref>clipitem-1245</linkclipref>
													<mediatype>audio</mediatype>
													<trackindex>2</trackindex>
													<clipindex>1</clipindex>
													<groupindex>1</groupindex>
												</link>
											</clipitem>
										</track>
									</video>
									<audio>
										<track>
											<clipitem id="clipitem-1244">
												<masterclipid>masterclip-35</masterclipid>
												<name>(sugarandsparrowco)_CZe0T1NoJTE_IG.mp4</name>
												<rate>
													<timebase>30</timebase>
													<ntsc>FALSE</ntsc>
												</rate>
												<file id="file-28"/>
												<sourcetrack>
													<mediatype>audio</mediatype>
													<trackindex>1</trackindex>
												</sourcetrack>
												<link>
													<linkclipref>clipitem-1243</linkclipref>
													<mediatype>video</mediatype>
													<trackindex>1</trackindex>
													<clipindex>1</clipindex>
												</link>
												<link>
													<linkclipref>clipitem-1244</linkclipref>
													<mediatype>audio</mediatype>
													<trackindex>1</trackindex>
													<clipindex>1</clipindex>
													<groupindex>1</groupindex>
												</link>
												<link>
													<linkclipref>clipitem-1245</linkclipref>
													<mediatype>audio</mediatype>
													<trackindex>2</trackindex>
													<clipindex>1</clipindex>
													<groupindex>1</groupindex>
												</link>
											</clipitem>
										</track>
										<track>
											<clipitem id="clipitem-1245">
												<masterclipid>masterclip-35</masterclipid>
												<name>(sugarandsparrowco)_CZe0T1NoJTE_IG.mp4</name>
												<rate>
													<timebase>30</timebase>
													<ntsc>FALSE</ntsc>
												</rate>
												<file id="file-28"/>
												<sourcetrack>
													<mediatype>audio</mediatype>
													<trackindex>2</trackindex>
												</sourcetrack>
												<link>
													<linkclipref>clipitem-1243</linkclipref>
													<mediatype>video</mediatype>
													<trackindex>1</trackindex>
													<clipindex>1</clipindex>
												</link>
												<link>
													<linkclipref>clipitem-1244</linkclipref>
													<mediatype>audio</mediatype>
													<trackindex>1</trackindex>
													<clipindex>1</clipindex>
													<groupindex>1</groupindex>
												</link>
												<link>
													<linkclipref>clipitem-1245</linkclipref>
													<mediatype>audio</mediatype>
													<trackindex>2</trackindex>
													<clipindex>1</clipindex>
													<groupindex>1</groupindex>
												</link>
											</clipitem>
										</track>
									</audio>
								</media>
								<logginginfo>
									<description></description>
									<scene></scene>
									<shottake></shottake>
									<lognote></lognote>
									<good></good>
									<originalvideofilename></originalvideofilename>
									<originalaudiofilename></originalaudiofilename>
								</logginginfo>
								<colorinfo>
									<lut></lut>
									<lut1></lut1>
									<asc_sop></asc_sop>
									<asc_sat></asc_sat>
									<lut2></lut2>
								</colorinfo>
								<labels>
									<label2>Violet</label2>
								</labels>
							</clip>
						</children>
					</bin>
					<bin>
						<name>blueberry lemon</name>
						<children>
							<clip id="masterclip-156" explodedTracks="true">
								<uuid>ffdcff71-0fe9-4248-8686-fadd24b617cf</uuid>
								<masterclipid>masterclip-156</masterclipid>
								<ismasterclip>TRUE</ismasterclip>
								<duration>453</duration>
								<rate>
									<timebase>30</timebase>
									<ntsc>FALSE</ntsc>
								</rate>
								<name>(aquickspoonful)_CundzuWxQ1b_IG.mp4</name>
								<media>
									<video>
										<track>
											<clipitem id="clipitem-1246">
												<masterclipid>masterclip-156</masterclipid>
												<name>(aquickspoonful)_CundzuWxQ1b_IG.mp4</name>
												<rate>
													<timebase>30</timebase>
													<ntsc>FALSE</ntsc>
												</rate>
												<alphatype>none</alphatype>
												<file id="file-134"/>
												<link>
													<linkclipref>clipitem-1246</linkclipref>
													<mediatype>video</mediatype>
													<trackindex>1</trackindex>
													<clipindex>1</clipindex>
												</link>
												<link>
													<linkclipref>clipitem-1247</linkclipref>
													<mediatype>audio</mediatype>
													<trackindex>1</trackindex>
													<clipindex>1</clipindex>
												</link>
											</clipitem>
										</track>
									</video>
									<audio>
										<track>
											<clipitem id="clipitem-1247">
												<masterclipid>masterclip-156</masterclipid>
												<name>(aquickspoonful)_CundzuWxQ1b_IG.mp4</name>
												<rate>
													<timebase>30</timebase>
													<ntsc>FALSE</ntsc>
												</rate>
												<file id="file-134"/>
												<sourcetrack>
													<mediatype>audio</mediatype>
													<trackindex>1</trackindex>
												</sourcetrack>
												<link>
													<linkclipref>clipitem-1246</linkclipref>
													<mediatype>video</mediatype>
													<trackindex>1</trackindex>
													<clipindex>1</clipindex>
												</link>
												<link>
													<linkclipref>clipitem-1247</linkclipref>
													<mediatype>audio</mediatype>
													<trackindex>1</trackindex>
													<clipindex>1</clipindex>
												</link>
											</clipitem>
										</track>
									</audio>
								</media>
								<logginginfo>
									<description></description>
									<scene></scene>
									<shottake></shottake>
									<lognote></lognote>
									<good></good>
									<originalvideofilename></originalvideofilename>
									<originalaudiofilename></originalaudiofilename>
								</logginginfo>
								<colorinfo>
									<lut></lut>
									<lut1></lut1>
									<asc_sop></asc_sop>
									<asc_sat></asc_sat>
									<lut2></lut2>
								</colorinfo>
								<labels>
									<label2>Violet</label2>
								</labels>
							</clip>
							<clip id="masterclip-154" explodedTracks="true">
								<uuid>d64ca870-40b9-49f1-89fa-17d6fd43aca2</uuid>
								<masterclipid>masterclip-154</masterclipid>
								<ismasterclip>TRUE</ismasterclip>
								<duration>609</duration>
								<rate>
									<timebase>30</timebase>
									<ntsc>FALSE</ntsc>
								</rate>
								<name>(goodeatzco)_CovuAFAJYQB_IG.mp4</name>
								<media>
									<video>
										<track>
											<clipitem id="clipitem-1248">
												<masterclipid>masterclip-154</masterclipid>
												<name>(goodeatzco)_CovuAFAJYQB_IG.mp4</name>
												<rate>
													<timebase>30</timebase>
													<ntsc>FALSE</ntsc>
												</rate>
												<alphatype>none</alphatype>
												<file id="file-132"/>
												<link>
													<linkclipref>clipitem-1248</linkclipref>
													<mediatype>video</mediatype>
													<trackindex>1</trackindex>
													<clipindex>1</clipindex>
												</link>
												<link>
													<linkclipref>clipitem-1249</linkclipref>
													<mediatype>audio</mediatype>
													<trackindex>1</trackindex>
													<clipindex>1</clipindex>
													<groupindex>1</groupindex>
												</link>
												<link>
													<linkclipref>clipitem-1250</linkclipref>
													<mediatype>audio</mediatype>
													<trackindex>2</trackindex>
													<clipindex>1</clipindex>
													<groupindex>1</groupindex>
												</link>
											</clipitem>
										</track>
									</video>
									<audio>
										<track>
											<clipitem id="clipitem-1249">
												<masterclipid>masterclip-154</masterclipid>
												<name>(goodeatzco)_CovuAFAJYQB_IG.mp4</name>
												<rate>
													<timebase>30</timebase>
													<ntsc>FALSE</ntsc>
												</rate>
												<file id="file-132"/>
												<sourcetrack>
													<mediatype>audio</mediatype>
													<trackindex>1</trackindex>
												</sourcetrack>
												<link>
													<linkclipref>clipitem-1248</linkclipref>
													<mediatype>video</mediatype>
													<trackindex>1</trackindex>
													<clipindex>1</clipindex>
												</link>
												<link>
													<linkclipref>clipitem-1249</linkclipref>
													<mediatype>audio</mediatype>
													<trackindex>1</trackindex>
													<clipindex>1</clipindex>
													<groupindex>1</groupindex>
												</link>
												<link>
													<linkclipref>clipitem-1250</linkclipref>
													<mediatype>audio</mediatype>
													<trackindex>2</trackindex>
													<clipindex>1</clipindex>
													<groupindex>1</groupindex>
												</link>
											</clipitem>
										</track>
										<track>
											<clipitem id="clipitem-1250">
												<masterclipid>masterclip-154</masterclipid>
												<name>(goodeatzco)_CovuAFAJYQB_IG.mp4</name>
												<rate>
													<timebase>30</timebase>
													<ntsc>FALSE</ntsc>
												</rate>
												<file id="file-132"/>
												<sourcetrack>
													<mediatype>audio</mediatype>
													<trackindex>2</trackindex>
												</sourcetrack>
												<link>
													<linkclipref>clipitem-1248</linkclipref>
													<mediatype>video</mediatype>
													<trackindex>1</trackindex>
													<clipindex>1</clipindex>
												</link>
												<link>
													<linkclipref>clipitem-1249</linkclipref>
													<mediatype>audio</mediatype>
													<trackindex>1</trackindex>
													<clipindex>1</clipindex>
													<groupindex>1</groupindex>
												</link>
												<link>
													<linkclipref>clipitem-1250</linkclipref>
													<mediatype>audio</mediatype>
													<trackindex>2</trackindex>
													<clipindex>1</clipindex>
													<groupindex>1</groupindex>
												</link>
											</clipitem>
										</track>
									</audio>
								</media>
								<logginginfo>
									<description></description>
									<scene></scene>
									<shottake></shottake>
									<lognote></lognote>
									<good></good>
									<originalvideofilename></originalvideofilename>
									<originalaudiofilename></originalaudiofilename>
								</logginginfo>
								<colorinfo>
									<lut></lut>
									<lut1></lut1>
									<asc_sop></asc_sop>
									<asc_sat></asc_sat>
									<lut2></lut2>
								</colorinfo>
								<labels>
									<label2>Violet</label2>
								</labels>
							</clip>
							<clip id="masterclip-153" explodedTracks="true">
								<uuid>46ecc5a5-ae6f-424e-8b7c-1c1dd68b5d51</uuid>
								<masterclipid>masterclip-153</masterclipid>
								<ismasterclip>TRUE</ismasterclip>
								<duration>1174</duration>
								<rate>
									<timebase>30</timebase>
									<ntsc>FALSE</ntsc>
								</rate>
								<in>558</in>
								<out>1108</out>
								<name>(sophiabakessometimes)_7077244126927834374_TT.mp4</name>
								<media>
									<video>
										<track>
											<clipitem id="clipitem-1251">
												<masterclipid>masterclip-153</masterclipid>
												<name>(sophiabakessometimes)_7077244126927834374_TT.mp4</name>
												<rate>
													<timebase>30</timebase>
													<ntsc>FALSE</ntsc>
												</rate>
												<alphatype>none</alphatype>
												<file id="file-131"/>
												<link>
													<linkclipref>clipitem-1251</linkclipref>
													<mediatype>video</mediatype>
													<trackindex>1</trackindex>
													<clipindex>1</clipindex>
												</link>
												<link>
													<linkclipref>clipitem-1252</linkclipref>
													<mediatype>audio</mediatype>
													<trackindex>1</trackindex>
													<clipindex>1</clipindex>
													<groupindex>1</groupindex>
												</link>
												<link>
													<linkclipref>clipitem-1253</linkclipref>
													<mediatype>audio</mediatype>
													<trackindex>2</trackindex>
													<clipindex>1</clipindex>
													<groupindex>1</groupindex>
												</link>
											</clipitem>
										</track>
									</video>
									<audio>
										<track>
											<clipitem id="clipitem-1252">
												<masterclipid>masterclip-153</masterclipid>
												<name>(sophiabakessometimes)_7077244126927834374_TT.mp4</name>
												<rate>
													<timebase>30</timebase>
													<ntsc>FALSE</ntsc>
												</rate>
												<file id="file-131"/>
												<sourcetrack>
													<mediatype>audio</mediatype>
													<trackindex>1</trackindex>
												</sourcetrack>
												<link>
													<linkclipref>clipitem-1251</linkclipref>
													<mediatype>video</mediatype>
													<trackindex>1</trackindex>
													<clipindex>1</clipindex>
												</link>
												<link>
													<linkclipref>clipitem-1252</linkclipref>
													<mediatype>audio</mediatype>
													<trackindex>1</trackindex>
													<clipindex>1</clipindex>
													<groupindex>1</groupindex>
												</link>
												<link>
													<linkclipref>clipitem-1253</linkclipref>
													<mediatype>audio</mediatype>
													<trackindex>2</trackindex>
													<clipindex>1</clipindex>
													<groupindex>1</groupindex>
												</link>
											</clipitem>
										</track>
										<track>
											<clipitem id="clipitem-1253">
												<masterclipid>masterclip-153</masterclipid>
												<name>(sophiabakessometimes)_7077244126927834374_TT.mp4</name>
												<rate>
													<timebase>30</timebase>
													<ntsc>FALSE</ntsc>
												</rate>
												<file id="file-131"/>
												<sourcetrack>
													<mediatype>audio</mediatype>
													<trackindex>2</trackindex>
												</sourcetrack>
												<link>
													<linkclipref>clipitem-1251</linkclipref>
													<mediatype>video</mediatype>
													<trackindex>1</trackindex>
													<clipindex>1</clipindex>
												</link>
												<link>
													<linkclipref>clipitem-1252</linkclipref>
													<mediatype>audio</mediatype>
													<trackindex>1</trackindex>
													<clipindex>1</clipindex>
													<groupindex>1</groupindex>
												</link>
												<link>
													<linkclipref>clipitem-1253</linkclipref>
													<mediatype>audio</mediatype>
													<trackindex>2</trackindex>
													<clipindex>1</clipindex>
													<groupindex>1</groupindex>
												</link>
											</clipitem>
										</track>
									</audio>
								</media>
								<logginginfo>
									<description></description>
									<scene></scene>
									<shottake></shottake>
									<lognote></lognote>
									<good></good>
									<originalvideofilename></originalvideofilename>
									<originalaudiofilename></originalaudiofilename>
								</logginginfo>
								<colorinfo>
									<lut></lut>
									<lut1></lut1>
									<asc_sop></asc_sop>
									<asc_sat></asc_sat>
									<lut2></lut2>
								</colorinfo>
								<labels>
									<label2>Violet</label2>
								</labels>
							</clip>
							<clip id="masterclip-155" explodedTracks="true">
								<uuid>0006a6c2-3b25-41c6-be23-baccec72815a</uuid>
								<masterclipid>masterclip-155</masterclipid>
								<ismasterclip>TRUE</ismasterclip>
								<duration>735</duration>
								<rate>
									<timebase>30</timebase>
									<ntsc>FALSE</ntsc>
								</rate>
								<in>111</in>
								<name>(sugarandsparrowco)_CpaepSqJ6U5_IG.mp4</name>
								<media>
									<video>
										<track>
											<clipitem id="clipitem-1254">
												<masterclipid>masterclip-155</masterclipid>
												<name>(sugarandsparrowco)_CpaepSqJ6U5_IG.mp4</name>
												<rate>
													<timebase>30</timebase>
													<ntsc>FALSE</ntsc>
												</rate>
												<alphatype>none</alphatype>
												<file id="file-133"/>
												<link>
													<linkclipref>clipitem-1254</linkclipref>
													<mediatype>video</mediatype>
													<trackindex>1</trackindex>
													<clipindex>1</clipindex>
												</link>
												<link>
													<linkclipref>clipitem-1255</linkclipref>
													<mediatype>audio</mediatype>
													<trackindex>1</trackindex>
													<clipindex>1</clipindex>
													<groupindex>1</groupindex>
												</link>
												<link>
													<linkclipref>clipitem-1256</linkclipref>
													<mediatype>audio</mediatype>
													<trackindex>2</trackindex>
													<clipindex>1</clipindex>
													<groupindex>1</groupindex>
												</link>
											</clipitem>
										</track>
									</video>
									<audio>
										<track>
											<clipitem id="clipitem-1255">
												<masterclipid>masterclip-155</masterclipid>
												<name>(sugarandsparrowco)_CpaepSqJ6U5_IG.mp4</name>
												<rate>
													<timebase>30</timebase>
													<ntsc>FALSE</ntsc>
												</rate>
												<file id="file-133"/>
												<sourcetrack>
													<mediatype>audio</mediatype>
													<trackindex>1</trackindex>
												</sourcetrack>
												<link>
													<linkclipref>clipitem-1254</linkclipref>
													<mediatype>video</mediatype>
													<trackindex>1</trackindex>
													<clipindex>1</clipindex>
												</link>
												<link>
													<linkclipref>clipitem-1255</linkclipref>
													<mediatype>audio</mediatype>
													<trackindex>1</trackindex>
													<clipindex>1</clipindex>
													<groupindex>1</groupindex>
												</link>
												<link>
													<linkclipref>clipitem-1256</linkclipref>
													<mediatype>audio</mediatype>
													<trackindex>2</trackindex>
													<clipindex>1</clipindex>
													<groupindex>1</groupindex>
												</link>
											</clipitem>
										</track>
										<track>
											<clipitem id="clipitem-1256">
												<masterclipid>masterclip-155</masterclipid>
												<name>(sugarandsparrowco)_CpaepSqJ6U5_IG.mp4</name>
												<rate>
													<timebase>30</timebase>
													<ntsc>FALSE</ntsc>
												</rate>
												<file id="file-133"/>
												<sourcetrack>
													<mediatype>audio</mediatype>
													<trackindex>2</trackindex>
												</sourcetrack>
												<link>
													<linkclipref>clipitem-1254</linkclipref>
													<mediatype>video</mediatype>
													<trackindex>1</trackindex>
													<clipindex>1</clipindex>
												</link>
												<link>
													<linkclipref>clipitem-1255</linkclipref>
													<mediatype>audio</mediatype>
													<trackindex>1</trackindex>
													<clipindex>1</clipindex>
													<groupindex>1</groupindex>
												</link>
												<link>
													<linkclipref>clipitem-1256</linkclipref>
													<mediatype>audio</mediatype>
													<trackindex>2</trackindex>
													<clipindex>1</clipindex>
													<groupindex>1</groupindex>
												</link>
											</clipitem>
										</track>
									</audio>
								</media>
								<logginginfo>
									<description></description>
									<scene></scene>
									<shottake></shottake>
									<lognote></lognote>
									<good></good>
									<originalvideofilename></originalvideofilename>
									<originalaudiofilename></originalaudiofilename>
								</logginginfo>
								<colorinfo>
									<lut></lut>
									<lut1></lut1>
									<asc_sop></asc_sop>
									<asc_sat></asc_sat>
									<lut2></lut2>
								</colorinfo>
								<labels>
									<label2>Violet</label2>
								</labels>
							</clip>
						</children>
					</bin>
					<bin>
						<name>snacks for a hike</name>
						<children>
							<clip id="masterclip-215" explodedTracks="true">
								<uuid>01ca3165-b7c7-4108-bc60-b521a3079aee</uuid>
								<masterclipid>masterclip-215</masterclipid>
								<ismasterclip>TRUE</ismasterclip>
								<duration>5211</duration>
								<rate>
									<timebase>23</timebase>
									<ntsc>FALSE</ntsc>
								</rate>
								<in>4664</in>
								<out>4777</out>
								<name>(Lindsay Grimes)_Creamy Crunchy Peanut Butter Bars (vegan + gluten free)_o8cpngk1u0w_YT.mp4</name>
								<media>
									<video>
										<track>
											<clipitem id="clipitem-1257">
												<masterclipid>masterclip-215</masterclipid>
												<name>(Lindsay Grimes)_Creamy Crunchy Peanut Butter Bars (vegan + gluten free)_o8cpngk1u0w_YT.mp4</name>
												<rate>
													<timebase>23</timebase>
													<ntsc>FALSE</ntsc>
												</rate>
												<alphatype>none</alphatype>
												<file id="file-185"/>
												<link>
													<linkclipref>clipitem-1257</linkclipref>
													<mediatype>video</mediatype>
													<trackindex>1</trackindex>
													<clipindex>1</clipindex>
												</link>
												<link>
													<linkclipref>clipitem-1258</linkclipref>
													<mediatype>audio</mediatype>
													<trackindex>1</trackindex>
													<clipindex>1</clipindex>
													<groupindex>1</groupindex>
												</link>
												<link>
													<linkclipref>clipitem-1259</linkclipref>
													<mediatype>audio</mediatype>
													<trackindex>2</trackindex>
													<clipindex>1</clipindex>
													<groupindex>1</groupindex>
												</link>
											</clipitem>
										</track>
									</video>
									<audio>
										<track>
											<clipitem id="clipitem-1258">
												<masterclipid>masterclip-215</masterclipid>
												<name>(Lindsay Grimes)_Creamy Crunchy Peanut Butter Bars (vegan + gluten free)_o8cpngk1u0w_YT.mp4</name>
												<rate>
													<timebase>23</timebase>
													<ntsc>FALSE</ntsc>
												</rate>
												<file id="file-185"/>
												<sourcetrack>
													<mediatype>audio</mediatype>
													<trackindex>1</trackindex>
												</sourcetrack>
												<link>
													<linkclipref>clipitem-1257</linkclipref>
													<mediatype>video</mediatype>
													<trackindex>1</trackindex>
													<clipindex>1</clipindex>
												</link>
												<link>
													<linkclipref>clipitem-1258</linkclipref>
													<mediatype>audio</mediatype>
													<trackindex>1</trackindex>
													<clipindex>1</clipindex>
													<groupindex>1</groupindex>
												</link>
												<link>
													<linkclipref>clipitem-1259</linkclipref>
													<mediatype>audio</mediatype>
													<trackindex>2</trackindex>
													<clipindex>1</clipindex>
													<groupindex>1</groupindex>
												</link>
											</clipitem>
										</track>
										<track>
											<clipitem id="clipitem-1259">
												<masterclipid>masterclip-215</masterclipid>
												<name>(Lindsay Grimes)_Creamy Crunchy Peanut Butter Bars (vegan + gluten free)_o8cpngk1u0w_YT.mp4</name>
												<rate>
													<timebase>23</timebase>
													<ntsc>FALSE</ntsc>
												</rate>
												<file id="file-185"/>
												<sourcetrack>
													<mediatype>audio</mediatype>
													<trackindex>2</trackindex>
												</sourcetrack>
												<link>
													<linkclipref>clipitem-1257</linkclipref>
													<mediatype>video</mediatype>
													<trackindex>1</trackindex>
													<clipindex>1</clipindex>
												</link>
												<link>
													<linkclipref>clipitem-1258</linkclipref>
													<mediatype>audio</mediatype>
													<trackindex>1</trackindex>
													<clipindex>1</clipindex>
													<groupindex>1</groupindex>
												</link>
												<link>
													<linkclipref>clipitem-1259</linkclipref>
													<mediatype>audio</mediatype>
													<trackindex>2</trackindex>
													<clipindex>1</clipindex>
													<groupindex>1</groupindex>
												</link>
											</clipitem>
										</track>
									</audio>
								</media>
								<logginginfo>
									<description>Creamy Crunchy Peanut Butter Bars (vegan + gluten free)</description>
									<scene></scene>
									<shottake></shottake>
									<lognote>https://www.youtube.com/watch?v=o8cpngk1u0w</lognote>
									<good></good>
									<originalvideofilename></originalvideofilename>
									<originalaudiofilename></originalaudiofilename>
								</logginginfo>
								<colorinfo>
									<lut></lut>
									<lut1></lut1>
									<asc_sop></asc_sop>
									<asc_sat></asc_sat>
									<lut2></lut2>
								</colorinfo>
								<labels>
									<label2>Violet</label2>
								</labels>
							</clip>
							<clip id="masterclip-213" explodedTracks="true">
								<uuid>4b099b3f-32b7-4189-acff-b99f89577801</uuid>
								<masterclipid>masterclip-213</masterclipid>
								<ismasterclip>TRUE</ismasterclip>
								<duration>1962</duration>
								<rate>
									<timebase>30</timebase>
									<ntsc>FALSE</ntsc>
								</rate>
								<in>1794</in>
								<out>1877</out>
								<name>(alphafoodie)_B_P3sjig1GQ_IG.mp4</name>
								<media>
									<video>
										<track>
											<clipitem id="clipitem-1260">
												<masterclipid>masterclip-213</masterclipid>
												<name>(alphafoodie)_B_P3sjig1GQ_IG.mp4</name>
												<rate>
													<timebase>30</timebase>
													<ntsc>FALSE</ntsc>
												</rate>
												<alphatype>none</alphatype>
												<file id="file-183"/>
												<link>
													<linkclipref>clipitem-1260</linkclipref>
													<mediatype>video</mediatype>
													<trackindex>1</trackindex>
													<clipindex>1</clipindex>
												</link>
												<link>
													<linkclipref>clipitem-1261</linkclipref>
													<mediatype>audio</mediatype>
													<trackindex>1</trackindex>
													<clipindex>1</clipindex>
													<groupindex>1</groupindex>
												</link>
												<link>
													<linkclipref>clipitem-1262</linkclipref>
													<mediatype>audio</mediatype>
													<trackindex>2</trackindex>
													<clipindex>1</clipindex>
													<groupindex>1</groupindex>
												</link>
											</clipitem>
										</track>
									</video>
									<audio>
										<track>
											<clipitem id="clipitem-1261">
												<masterclipid>masterclip-213</masterclipid>
												<name>(alphafoodie)_B_P3sjig1GQ_IG.mp4</name>
												<rate>
													<timebase>30</timebase>
													<ntsc>FALSE</ntsc>
												</rate>
												<file id="file-183"/>
												<sourcetrack>
													<mediatype>audio</mediatype>
													<trackindex>1</trackindex>
												</sourcetrack>
												<link>
													<linkclipref>clipitem-1260</linkclipref>
													<mediatype>video</mediatype>
													<trackindex>1</trackindex>
													<clipindex>1</clipindex>
												</link>
												<link>
													<linkclipref>clipitem-1261</linkclipref>
													<mediatype>audio</mediatype>
													<trackindex>1</trackindex>
													<clipindex>1</clipindex>
													<groupindex>1</groupindex>
												</link>
												<link>
													<linkclipref>clipitem-1262</linkclipref>
													<mediatype>audio</mediatype>
													<trackindex>2</trackindex>
													<clipindex>1</clipindex>
													<groupindex>1</groupindex>
												</link>
											</clipitem>
										</track>
										<track>
											<clipitem id="clipitem-1262">
												<masterclipid>masterclip-213</masterclipid>
												<name>(alphafoodie)_B_P3sjig1GQ_IG.mp4</name>
												<rate>
													<timebase>30</timebase>
													<ntsc>FALSE</ntsc>
												</rate>
												<file id="file-183"/>
												<sourcetrack>
													<mediatype>audio</mediatype>
													<trackindex>2</trackindex>
												</sourcetrack>
												<link>
													<linkclipref>clipitem-1260</linkclipref>
													<mediatype>video</mediatype>
													<trackindex>1</trackindex>
													<clipindex>1</clipindex>
												</link>
												<link>
													<linkclipref>clipitem-1261</linkclipref>
													<mediatype>audio</mediatype>
													<trackindex>1</trackindex>
													<clipindex>1</clipindex>
													<groupindex>1</groupindex>
												</link>
												<link>
													<linkclipref>clipitem-1262</linkclipref>
													<mediatype>audio</mediatype>
													<trackindex>2</trackindex>
													<clipindex>1</clipindex>
													<groupindex>1</groupindex>
												</link>
											</clipitem>
										</track>
									</audio>
								</media>
								<logginginfo>
									<description></description>
									<scene></scene>
									<shottake></shottake>
									<lognote></lognote>
									<good></good>
									<originalvideofilename></originalvideofilename>
									<originalaudiofilename></originalaudiofilename>
								</logginginfo>
								<colorinfo>
									<lut></lut>
									<lut1></lut1>
									<asc_sop></asc_sop>
									<asc_sat></asc_sat>
									<lut2></lut2>
								</colorinfo>
								<labels>
									<label2>Violet</label2>
								</labels>
							</clip>
							<clip id="masterclip-212" explodedTracks="true">
								<uuid>768cc249-089d-4177-91d5-333d8dd4c072</uuid>
								<masterclipid>masterclip-212</masterclipid>
								<ismasterclip>TRUE</ismasterclip>
								<duration>435</duration>
								<rate>
									<timebase>30</timebase>
									<ntsc>FALSE</ntsc>
								</rate>
								<name>(cookwithfoam)_Ca2VYYQh4yV_IG.mp4</name>
								<media>
									<video>
										<track>
											<clipitem id="clipitem-1263">
												<masterclipid>masterclip-212</masterclipid>
												<name>(cookwithfoam)_Ca2VYYQh4yV_IG.mp4</name>
												<rate>
													<timebase>30</timebase>
													<ntsc>FALSE</ntsc>
												</rate>
												<alphatype>none</alphatype>
												<file id="file-182"/>
												<link>
													<linkclipref>clipitem-1263</linkclipref>
													<mediatype>video</mediatype>
													<trackindex>1</trackindex>
													<clipindex>1</clipindex>
												</link>
												<link>
													<linkclipref>clipitem-1264</linkclipref>
													<mediatype>audio</mediatype>
													<trackindex>1</trackindex>
													<clipindex>1</clipindex>
													<groupindex>1</groupindex>
												</link>
												<link>
													<linkclipref>clipitem-1265</linkclipref>
													<mediatype>audio</mediatype>
													<trackindex>2</trackindex>
													<clipindex>1</clipindex>
													<groupindex>1</groupindex>
												</link>
											</clipitem>
										</track>
									</video>
									<audio>
										<track>
											<clipitem id="clipitem-1264">
												<masterclipid>masterclip-212</masterclipid>
												<name>(cookwithfoam)_Ca2VYYQh4yV_IG.mp4</name>
												<rate>
													<timebase>30</timebase>
													<ntsc>FALSE</ntsc>
												</rate>
												<file id="file-182"/>
												<sourcetrack>
													<mediatype>audio</mediatype>
													<trackindex>1</trackindex>
												</sourcetrack>
												<link>
													<linkclipref>clipitem-1263</linkclipref>
													<mediatype>video</mediatype>
													<trackindex>1</trackindex>
													<clipindex>1</clipindex>
												</link>
												<link>
													<linkclipref>clipitem-1264</linkclipref>
													<mediatype>audio</mediatype>
													<trackindex>1</trackindex>
													<clipindex>1</clipindex>
													<groupindex>1</groupindex>
												</link>
												<link>
													<linkclipref>clipitem-1265</linkclipref>
													<mediatype>audio</mediatype>
													<trackindex>2</trackindex>
													<clipindex>1</clipindex>
													<groupindex>1</groupindex>
												</link>
											</clipitem>
										</track>
										<track>
											<clipitem id="clipitem-1265">
												<masterclipid>masterclip-212</masterclipid>
												<name>(cookwithfoam)_Ca2VYYQh4yV_IG.mp4</name>
												<rate>
													<timebase>30</timebase>
													<ntsc>FALSE</ntsc>
												</rate>
												<file id="file-182"/>
												<sourcetrack>
													<mediatype>audio</mediatype>
													<trackindex>2</trackindex>
												</sourcetrack>
												<link>
													<linkclipref>clipitem-1263</linkclipref>
													<mediatype>video</mediatype>
													<trackindex>1</trackindex>
													<clipindex>1</clipindex>
												</link>
												<link>
													<linkclipref>clipitem-1264</linkclipref>
													<mediatype>audio</mediatype>
													<trackindex>1</trackindex>
													<clipindex>1</clipindex>
													<groupindex>1</groupindex>
												</link>
												<link>
													<linkclipref>clipitem-1265</linkclipref>
													<mediatype>audio</mediatype>
													<trackindex>2</trackindex>
													<clipindex>1</clipindex>
													<groupindex>1</groupindex>
												</link>
											</clipitem>
										</track>
									</audio>
								</media>
								<logginginfo>
									<description>TT: indycafez</description>
									<scene></scene>
									<shottake></shottake>
									<lognote></lognote>
									<good></good>
									<originalvideofilename></originalvideofilename>
									<originalaudiofilename></originalaudiofilename>
								</logginginfo>
								<colorinfo>
									<lut></lut>
									<lut1></lut1>
									<asc_sop></asc_sop>
									<asc_sat></asc_sat>
									<lut2></lut2>
								</colorinfo>
								<labels>
									<label2>Violet</label2>
								</labels>
							</clip>
							<clip id="masterclip-214" explodedTracks="true">
								<uuid>c7b2413f-5901-4f1e-bdb8-a2cbdb23e9c5</uuid>
								<masterclipid>masterclip-214</masterclipid>
								<ismasterclip>TRUE</ismasterclip>
								<duration>636</duration>
								<rate>
									<timebase>30</timebase>
									<ntsc>FALSE</ntsc>
								</rate>
								<in>49</in>
								<out>571</out>
								<name>(refined.and.dandy)_7091735218834443563_TT.mp4</name>
								<media>
									<video>
										<track>
											<clipitem id="clipitem-1266">
												<masterclipid>masterclip-214</masterclipid>
												<name>(refined.and.dandy)_7091735218834443563_TT.mp4</name>
												<rate>
													<timebase>30</timebase>
													<ntsc>FALSE</ntsc>
												</rate>
												<alphatype>none</alphatype>
												<file id="file-184"/>
												<link>
													<linkclipref>clipitem-1266</linkclipref>
													<mediatype>video</mediatype>
													<trackindex>1</trackindex>
													<clipindex>1</clipindex>
												</link>
												<link>
													<linkclipref>clipitem-1267</linkclipref>
													<mediatype>audio</mediatype>
													<trackindex>1</trackindex>
													<clipindex>1</clipindex>
													<groupindex>1</groupindex>
												</link>
												<link>
													<linkclipref>clipitem-1268</linkclipref>
													<mediatype>audio</mediatype>
													<trackindex>2</trackindex>
													<clipindex>1</clipindex>
													<groupindex>1</groupindex>
												</link>
											</clipitem>
										</track>
									</video>
									<audio>
										<track>
											<clipitem id="clipitem-1267">
												<masterclipid>masterclip-214</masterclipid>
												<name>(refined.and.dandy)_7091735218834443563_TT.mp4</name>
												<rate>
													<timebase>30</timebase>
													<ntsc>FALSE</ntsc>
												</rate>
												<file id="file-184"/>
												<sourcetrack>
													<mediatype>audio</mediatype>
													<trackindex>1</trackindex>
												</sourcetrack>
												<link>
													<linkclipref>clipitem-1266</linkclipref>
													<mediatype>video</mediatype>
													<trackindex>1</trackindex>
													<clipindex>1</clipindex>
												</link>
												<link>
													<linkclipref>clipitem-1267</linkclipref>
													<mediatype>audio</mediatype>
													<trackindex>1</trackindex>
													<clipindex>1</clipindex>
													<groupindex>1</groupindex>
												</link>
												<link>
													<linkclipref>clipitem-1268</linkclipref>
													<mediatype>audio</mediatype>
													<trackindex>2</trackindex>
													<clipindex>1</clipindex>
													<groupindex>1</groupindex>
												</link>
											</clipitem>
										</track>
										<track>
											<clipitem id="clipitem-1268">
												<masterclipid>masterclip-214</masterclipid>
												<name>(refined.and.dandy)_7091735218834443563_TT.mp4</name>
												<rate>
													<timebase>30</timebase>
													<ntsc>FALSE</ntsc>
												</rate>
												<file id="file-184"/>
												<sourcetrack>
													<mediatype>audio</mediatype>
													<trackindex>2</trackindex>
												</sourcetrack>
												<link>
													<linkclipref>clipitem-1266</linkclipref>
													<mediatype>video</mediatype>
													<trackindex>1</trackindex>
													<clipindex>1</clipindex>
												</link>
												<link>
													<linkclipref>clipitem-1267</linkclipref>
													<mediatype>audio</mediatype>
													<trackindex>1</trackindex>
													<clipindex>1</clipindex>
													<groupindex>1</groupindex>
												</link>
												<link>
													<linkclipref>clipitem-1268</linkclipref>
													<mediatype>audio</mediatype>
													<trackindex>2</trackindex>
													<clipindex>1</clipindex>
													<groupindex>1</groupindex>
												</link>
											</clipitem>
										</track>
									</audio>
								</media>
								<logginginfo>
									<description></description>
									<scene></scene>
									<shottake></shottake>
									<lognote></lognote>
									<good></good>
									<originalvideofilename></originalvideofilename>
									<originalaudiofilename></originalaudiofilename>
								</logginginfo>
								<colorinfo>
									<lut></lut>
									<lut1></lut1>
									<asc_sop></asc_sop>
									<asc_sat></asc_sat>
									<lut2></lut2>
								</colorinfo>
								<labels>
									<label2>Violet</label2>
								</labels>
							</clip>
						</children>
					</bin>
					<bin>
						<name>cinnamon</name>
						<children>
							<clip id="masterclip-175" explodedTracks="true">
								<uuid>bc954707-4dcb-402f-94d8-3461db1a21d1</uuid>
								<masterclipid>masterclip-175</masterclipid>
								<ismasterclip>TRUE</ismasterclip>
								<duration>934</duration>
								<rate>
									<timebase>30</timebase>
									<ntsc>FALSE</ntsc>
								</rate>
								<name>(aquickspoonful)_CuA2TBKs1tV_IG.mp4</name>
								<media>
									<video>
										<track>
											<clipitem id="clipitem-1269">
												<masterclipid>masterclip-175</masterclipid>
												<name>(aquickspoonful)_CuA2TBKs1tV_IG.mp4</name>
												<rate>
													<timebase>30</timebase>
													<ntsc>FALSE</ntsc>
												</rate>
												<alphatype>none</alphatype>
												<file id="file-151"/>
												<link>
													<linkclipref>clipitem-1269</linkclipref>
													<mediatype>video</mediatype>
													<trackindex>1</trackindex>
													<clipindex>1</clipindex>
												</link>
												<link>
													<linkclipref>clipitem-1270</linkclipref>
													<mediatype>audio</mediatype>
													<trackindex>1</trackindex>
													<clipindex>1</clipindex>
												</link>
											</clipitem>
										</track>
									</video>
									<audio>
										<track>
											<clipitem id="clipitem-1270">
												<masterclipid>masterclip-175</masterclipid>
												<name>(aquickspoonful)_CuA2TBKs1tV_IG.mp4</name>
												<rate>
													<timebase>30</timebase>
													<ntsc>FALSE</ntsc>
												</rate>
												<file id="file-151"/>
												<sourcetrack>
													<mediatype>audio</mediatype>
													<trackindex>1</trackindex>
												</sourcetrack>
												<link>
													<linkclipref>clipitem-1269</linkclipref>
													<mediatype>video</mediatype>
													<trackindex>1</trackindex>
													<clipindex>1</clipindex>
												</link>
												<link>
													<linkclipref>clipitem-1270</linkclipref>
													<mediatype>audio</mediatype>
													<trackindex>1</trackindex>
													<clipindex>1</clipindex>
												</link>
											</clipitem>
										</track>
									</audio>
								</media>
								<logginginfo>
									<description></description>
									<scene></scene>
									<shottake></shottake>
									<lognote></lognote>
									<good></good>
									<originalvideofilename></originalvideofilename>
									<originalaudiofilename></originalaudiofilename>
								</logginginfo>
								<colorinfo>
									<lut></lut>
									<lut1></lut1>
									<asc_sop></asc_sop>
									<asc_sat></asc_sat>
									<lut2></lut2>
								</colorinfo>
								<labels>
									<label2>Violet</label2>
								</labels>
							</clip>
							<clip id="masterclip-174" explodedTracks="true">
								<uuid>76fad379-de16-439c-a771-0249b0d7f6a6</uuid>
								<masterclipid>masterclip-174</masterclipid>
								<ismasterclip>TRUE</ismasterclip>
								<duration>658</duration>
								<rate>
									<timebase>30</timebase>
									<ntsc>FALSE</ntsc>
								</rate>
								<name>(goodeatzco)_CBji13IFz7x - 3_IG.mp4</name>
								<media>
									<video>
										<track>
											<clipitem id="clipitem-1271">
												<masterclipid>masterclip-174</masterclipid>
												<name>(goodeatzco)_CBji13IFz7x - 3_IG.mp4</name>
												<rate>
													<timebase>30</timebase>
													<ntsc>FALSE</ntsc>
												</rate>
												<alphatype>none</alphatype>
												<file id="file-150"/>
												<link>
													<linkclipref>clipitem-1271</linkclipref>
													<mediatype>video</mediatype>
													<trackindex>1</trackindex>
													<clipindex>1</clipindex>
												</link>
												<link>
													<linkclipref>clipitem-1272</linkclipref>
													<mediatype>audio</mediatype>
													<trackindex>1</trackindex>
													<clipindex>1</clipindex>
													<groupindex>1</groupindex>
												</link>
												<link>
													<linkclipref>clipitem-1273</linkclipref>
													<mediatype>audio</mediatype>
													<trackindex>2</trackindex>
													<clipindex>1</clipindex>
													<groupindex>1</groupindex>
												</link>
											</clipitem>
										</track>
									</video>
									<audio>
										<track>
											<clipitem id="clipitem-1272">
												<masterclipid>masterclip-174</masterclipid>
												<name>(goodeatzco)_CBji13IFz7x - 3_IG.mp4</name>
												<rate>
													<timebase>30</timebase>
													<ntsc>FALSE</ntsc>
												</rate>
												<file id="file-150"/>
												<sourcetrack>
													<mediatype>audio</mediatype>
													<trackindex>1</trackindex>
												</sourcetrack>
												<link>
													<linkclipref>clipitem-1271</linkclipref>
													<mediatype>video</mediatype>
													<trackindex>1</trackindex>
													<clipindex>1</clipindex>
												</link>
												<link>
													<linkclipref>clipitem-1272</linkclipref>
													<mediatype>audio</mediatype>
													<trackindex>1</trackindex>
													<clipindex>1</clipindex>
													<groupindex>1</groupindex>
												</link>
												<link>
													<linkclipref>clipitem-1273</linkclipref>
													<mediatype>audio</mediatype>
													<trackindex>2</trackindex>
													<clipindex>1</clipindex>
													<groupindex>1</groupindex>
												</link>
											</clipitem>
										</track>
										<track>
											<clipitem id="clipitem-1273">
												<masterclipid>masterclip-174</masterclipid>
												<name>(goodeatzco)_CBji13IFz7x - 3_IG.mp4</name>
												<rate>
													<timebase>30</timebase>
													<ntsc>FALSE</ntsc>
												</rate>
												<file id="file-150"/>
												<sourcetrack>
													<mediatype>audio</mediatype>
													<trackindex>2</trackindex>
												</sourcetrack>
												<link>
													<linkclipref>clipitem-1271</linkclipref>
													<mediatype>video</mediatype>
													<trackindex>1</trackindex>
													<clipindex>1</clipindex>
												</link>
												<link>
													<linkclipref>clipitem-1272</linkclipref>
													<mediatype>audio</mediatype>
													<trackindex>1</trackindex>
													<clipindex>1</clipindex>
													<groupindex>1</groupindex>
												</link>
												<link>
													<linkclipref>clipitem-1273</linkclipref>
													<mediatype>audio</mediatype>
													<trackindex>2</trackindex>
													<clipindex>1</clipindex>
													<groupindex>1</groupindex>
												</link>
											</clipitem>
										</track>
									</audio>
								</media>
								<logginginfo>
									<description></description>
									<scene></scene>
									<shottake></shottake>
									<lognote></lognote>
									<good></good>
									<originalvideofilename></originalvideofilename>
									<originalaudiofilename></originalaudiofilename>
								</logginginfo>
								<colorinfo>
									<lut></lut>
									<lut1></lut1>
									<asc_sop></asc_sop>
									<asc_sat></asc_sat>
									<lut2></lut2>
								</colorinfo>
								<labels>
									<label2>Violet</label2>
								</labels>
							</clip>
							<clip id="masterclip-173" explodedTracks="true">
								<uuid>aada1ffe-c136-4bcc-a97b-63fdd0dbfd49</uuid>
								<masterclipid>masterclip-173</masterclipid>
								<ismasterclip>TRUE</ismasterclip>
								<duration>2029</duration>
								<rate>
									<timebase>60</timebase>
									<ntsc>FALSE</ntsc>
								</rate>
								<in>91</in>
								<name>(marygracebread)_7110340178492787970_TT.mp4</name>
								<media>
									<video>
										<track>
											<clipitem id="clipitem-1274">
												<masterclipid>masterclip-173</masterclipid>
												<name>(marygracebread)_7110340178492787970_TT.mp4</name>
												<rate>
													<timebase>60</timebase>
													<ntsc>FALSE</ntsc>
												</rate>
												<alphatype>none</alphatype>
												<file id="file-149"/>
												<link>
													<linkclipref>clipitem-1274</linkclipref>
													<mediatype>video</mediatype>
													<trackindex>1</trackindex>
													<clipindex>1</clipindex>
												</link>
												<link>
													<linkclipref>clipitem-1275</linkclipref>
													<mediatype>audio</mediatype>
													<trackindex>1</trackindex>
													<clipindex>1</clipindex>
													<groupindex>1</groupindex>
												</link>
												<link>
													<linkclipref>clipitem-1276</linkclipref>
													<mediatype>audio</mediatype>
													<trackindex>2</trackindex>
													<clipindex>1</clipindex>
													<groupindex>1</groupindex>
												</link>
											</clipitem>
										</track>
									</video>
									<audio>
										<track>
											<clipitem id="clipitem-1275">
												<masterclipid>masterclip-173</masterclipid>
												<name>(marygracebread)_7110340178492787970_TT.mp4</name>
												<rate>
													<timebase>60</timebase>
													<ntsc>FALSE</ntsc>
												</rate>
												<file id="file-149"/>
												<sourcetrack>
													<mediatype>audio</mediatype>
													<trackindex>1</trackindex>
												</sourcetrack>
												<link>
													<linkclipref>clipitem-1274</linkclipref>
													<mediatype>video</mediatype>
													<trackindex>1</trackindex>
													<clipindex>1</clipindex>
												</link>
												<link>
													<linkclipref>clipitem-1275</linkclipref>
													<mediatype>audio</mediatype>
													<trackindex>1</trackindex>
													<clipindex>1</clipindex>
													<groupindex>1</groupindex>
												</link>
												<link>
													<linkclipref>clipitem-1276</linkclipref>
													<mediatype>audio</mediatype>
													<trackindex>2</trackindex>
													<clipindex>1</clipindex>
													<groupindex>1</groupindex>
												</link>
											</clipitem>
										</track>
										<track>
											<clipitem id="clipitem-1276">
												<masterclipid>masterclip-173</masterclipid>
												<name>(marygracebread)_7110340178492787970_TT.mp4</name>
												<rate>
													<timebase>60</timebase>
													<ntsc>FALSE</ntsc>
												</rate>
												<file id="file-149"/>
												<sourcetrack>
													<mediatype>audio</mediatype>
													<trackindex>2</trackindex>
												</sourcetrack>
												<link>
													<linkclipref>clipitem-1274</linkclipref>
													<mediatype>video</mediatype>
													<trackindex>1</trackindex>
													<clipindex>1</clipindex>
												</link>
												<link>
													<linkclipref>clipitem-1275</linkclipref>
													<mediatype>audio</mediatype>
													<trackindex>1</trackindex>
													<clipindex>1</clipindex>
													<groupindex>1</groupindex>
												</link>
												<link>
													<linkclipref>clipitem-1276</linkclipref>
													<mediatype>audio</mediatype>
													<trackindex>2</trackindex>
													<clipindex>1</clipindex>
													<groupindex>1</groupindex>
												</link>
											</clipitem>
										</track>
									</audio>
								</media>
								<logginginfo>
									<description></description>
									<scene></scene>
									<shottake></shottake>
									<lognote></lognote>
									<good></good>
									<originalvideofilename></originalvideofilename>
									<originalaudiofilename></originalaudiofilename>
								</logginginfo>
								<colorinfo>
									<lut></lut>
									<lut1></lut1>
									<asc_sop></asc_sop>
									<asc_sat></asc_sat>
									<lut2></lut2>
								</colorinfo>
								<labels>
									<label2>Violet</label2>
								</labels>
							</clip>
							<clip id="masterclip-176" explodedTracks="true">
								<uuid>9d9852c0-eda3-445c-a0a8-d1bbab8fd96a</uuid>
								<masterclipid>masterclip-176</masterclipid>
								<ismasterclip>TRUE</ismasterclip>
								<duration>899</duration>
								<rate>
									<timebase>30</timebase>
									<ntsc>FALSE</ntsc>
								</rate>
								<in>94</in>
								<name>(sugarandsparrowco)_Cr3cvXWt6ZR_IG.mp4</name>
								<media>
									<video>
										<track>
											<clipitem id="clipitem-1277">
												<masterclipid>masterclip-176</masterclipid>
												<name>(sugarandsparrowco)_Cr3cvXWt6ZR_IG.mp4</name>
												<rate>
													<timebase>30</timebase>
													<ntsc>FALSE</ntsc>
												</rate>
												<alphatype>none</alphatype>
												<file id="file-152"/>
												<link>
													<linkclipref>clipitem-1277</linkclipref>
													<mediatype>video</mediatype>
													<trackindex>1</trackindex>
													<clipindex>1</clipindex>
												</link>
												<link>
													<linkclipref>clipitem-1278</linkclipref>
													<mediatype>audio</mediatype>
													<trackindex>1</trackindex>
													<clipindex>1</clipindex>
													<groupindex>1</groupindex>
												</link>
												<link>
													<linkclipref>clipitem-1279</linkclipref>
													<mediatype>audio</mediatype>
													<trackindex>2</trackindex>
													<clipindex>1</clipindex>
													<groupindex>1</groupindex>
												</link>
											</clipitem>
										</track>
									</video>
									<audio>
										<track>
											<clipitem id="clipitem-1278">
												<masterclipid>masterclip-176</masterclipid>
												<name>(sugarandsparrowco)_Cr3cvXWt6ZR_IG.mp4</name>
												<rate>
													<timebase>30</timebase>
													<ntsc>FALSE</ntsc>
												</rate>
												<file id="file-152"/>
												<sourcetrack>
													<mediatype>audio</mediatype>
													<trackindex>1</trackindex>
												</sourcetrack>
												<link>
													<linkclipref>clipitem-1277</linkclipref>
													<mediatype>video</mediatype>
													<trackindex>1</trackindex>
													<clipindex>1</clipindex>
												</link>
												<link>
													<linkclipref>clipitem-1278</linkclipref>
													<mediatype>audio</mediatype>
													<trackindex>1</trackindex>
													<clipindex>1</clipindex>
													<groupindex>1</groupindex>
												</link>
												<link>
													<linkclipref>clipitem-1279</linkclipref>
													<mediatype>audio</mediatype>
													<trackindex>2</trackindex>
													<clipindex>1</clipindex>
													<groupindex>1</groupindex>
												</link>
											</clipitem>
										</track>
										<track>
											<clipitem id="clipitem-1279">
												<masterclipid>masterclip-176</masterclipid>
												<name>(sugarandsparrowco)_Cr3cvXWt6ZR_IG.mp4</name>
												<rate>
													<timebase>30</timebase>
													<ntsc>FALSE</ntsc>
												</rate>
												<file id="file-152"/>
												<sourcetrack>
													<mediatype>audio</mediatype>
													<trackindex>2</trackindex>
												</sourcetrack>
												<link>
													<linkclipref>clipitem-1277</linkclipref>
													<mediatype>video</mediatype>
													<trackindex>1</trackindex>
													<clipindex>1</clipindex>
												</link>
												<link>
													<linkclipref>clipitem-1278</linkclipref>
													<mediatype>audio</mediatype>
													<trackindex>1</trackindex>
													<clipindex>1</clipindex>
													<groupindex>1</groupindex>
												</link>
												<link>
													<linkclipref>clipitem-1279</linkclipref>
													<mediatype>audio</mediatype>
													<trackindex>2</trackindex>
													<clipindex>1</clipindex>
													<groupindex>1</groupindex>
												</link>
											</clipitem>
										</track>
									</audio>
								</media>
								<logginginfo>
									<description></description>
									<scene></scene>
									<shottake></shottake>
									<lognote></lognote>
									<good></good>
									<originalvideofilename></originalvideofilename>
									<originalaudiofilename></originalaudiofilename>
								</logginginfo>
								<colorinfo>
									<lut></lut>
									<lut1></lut1>
									<asc_sop></asc_sop>
									<asc_sat></asc_sat>
									<lut2></lut2>
								</colorinfo>
								<labels>
									<label2>Violet</label2>
								</labels>
							</clip>
						</children>
					</bin>
					<bin>
						<name>Artlist - Chocolate Pistachio Treat</name>
						<children>
							<clip id="masterclip-169" explodedTracks="true">
								<uuid>9446ca31-a391-4a70-b924-aa06a0df2678</uuid>
								<masterclipid>masterclip-169</masterclipid>
								<ismasterclip>TRUE</ismasterclip>
								<duration>214</duration>
								<rate>
									<timebase>25</timebase>
									<ntsc>FALSE</ntsc>
								</rate>
								<in>48</in>
								<name>23354_Waffle roll dipped into chocolate rolled in nuts_By_Omri_Ohana_Artlist_HD.mp4</name>
								<media>
									<video>
										<track>
											<clipitem id="clipitem-1280">
												<masterclipid>masterclip-169</masterclipid>
												<name>23354_Waffle roll dipped into chocolate rolled in nuts_By_Omri_Ohana_Artlist_HD.mp4</name>
												<rate>
													<timebase>25</timebase>
													<ntsc>FALSE</ntsc>
												</rate>
												<alphatype>none</alphatype>
												<file id="file-146"/>
											</clipitem>
										</track>
									</video>
								</media>
								<logginginfo>
									<description></description>
									<scene></scene>
									<shottake></shottake>
									<lognote></lognote>
									<good></good>
									<originalvideofilename></originalvideofilename>
									<originalaudiofilename></originalaudiofilename>
								</logginginfo>
								<colorinfo>
									<lut></lut>
									<lut1></lut1>
									<asc_sop></asc_sop>
									<asc_sat></asc_sat>
									<lut2></lut2>
								</colorinfo>
								<labels>
									<label2>Violet</label2>
								</labels>
							</clip>
							<clip id="masterclip-163" explodedTracks="true">
								<uuid>23b891d8-605f-4365-9923-e412ec13f056</uuid>
								<masterclipid>masterclip-163</masterclipid>
								<ismasterclip>TRUE</ismasterclip>
								<duration>162</duration>
								<rate>
									<timebase>25</timebase>
									<ntsc>FALSE</ntsc>
								</rate>
								<out>106</out>
								<name>23357_Tasty treats filled with cream_By_Omri_Ohana_Artlist_HD.mp4</name>
								<media>
									<video>
										<track>
											<clipitem id="clipitem-1281">
												<masterclipid>masterclip-163</masterclipid>
												<name>23357_Tasty treats filled with cream_By_Omri_Ohana_Artlist_HD.mp4</name>
												<rate>
													<timebase>25</timebase>
													<ntsc>FALSE</ntsc>
												</rate>
												<alphatype>none</alphatype>
												<file id="file-140"/>
											</clipitem>
										</track>
									</video>
								</media>
								<logginginfo>
									<description></description>
									<scene></scene>
									<shottake></shottake>
									<lognote></lognote>
									<good></good>
									<originalvideofilename></originalvideofilename>
									<originalaudiofilename></originalaudiofilename>
								</logginginfo>
								<colorinfo>
									<lut></lut>
									<lut1></lut1>
									<asc_sop></asc_sop>
									<asc_sat></asc_sat>
									<lut2></lut2>
								</colorinfo>
								<labels>
									<label2>Violet</label2>
								</labels>
							</clip>
							<clip id="masterclip-168" explodedTracks="true">
								<uuid>652177ad-7645-4f6d-89c5-54eb492ea1b5</uuid>
								<masterclipid>masterclip-168</masterclipid>
								<ismasterclip>TRUE</ismasterclip>
								<duration>191</duration>
								<rate>
									<timebase>25</timebase>
									<ntsc>FALSE</ntsc>
								</rate>
								<out>133</out>
								<name>23359_Waffle dessert covered in chocolate rolled in nuts_By_Omri_Ohana_Artlist_HD.mp4</name>
								<media>
									<video>
										<track>
											<clipitem id="clipitem-1282">
												<masterclipid>masterclip-168</masterclipid>
												<name>23359_Waffle dessert covered in chocolate rolled in nuts_By_Omri_Ohana_Artlist_HD.mp4</name>
												<rate>
													<timebase>25</timebase>
													<ntsc>FALSE</ntsc>
												</rate>
												<alphatype>none</alphatype>
												<file id="file-145"/>
											</clipitem>
										</track>
									</video>
								</media>
								<logginginfo>
									<description></description>
									<scene></scene>
									<shottake></shottake>
									<lognote></lognote>
									<good></good>
									<originalvideofilename></originalvideofilename>
									<originalaudiofilename></originalaudiofilename>
								</logginginfo>
								<colorinfo>
									<lut></lut>
									<lut1></lut1>
									<asc_sop></asc_sop>
									<asc_sat></asc_sat>
									<lut2></lut2>
								</colorinfo>
								<labels>
									<label2>Violet</label2>
								</labels>
							</clip>
							<clip id="masterclip-170" explodedTracks="true">
								<uuid>6866093f-7e75-4612-969d-2f43fc5f51fa</uuid>
								<masterclipid>masterclip-170</masterclipid>
								<ismasterclip>TRUE</ismasterclip>
								<duration>167</duration>
								<rate>
									<timebase>25</timebase>
									<ntsc>FALSE</ntsc>
								</rate>
								<name>23373_Woman pulling tray of desserts _By_Omri_Ohana_Artlist_HD.mp4</name>
								<media>
									<video>
										<track>
											<clipitem id="clipitem-1283">
												<masterclipid>masterclip-170</masterclipid>
												<name>23373_Woman pulling tray of desserts _By_Omri_Ohana_Artlist_HD.mp4</name>
												<rate>
													<timebase>25</timebase>
													<ntsc>FALSE</ntsc>
												</rate>
												<alphatype>none</alphatype>
												<file id="file-147"/>
											</clipitem>
										</track>
									</video>
								</media>
								<logginginfo>
									<description></description>
									<scene></scene>
									<shottake></shottake>
									<lognote></lognote>
									<good></good>
									<originalvideofilename></originalvideofilename>
									<originalaudiofilename></originalaudiofilename>
								</logginginfo>
								<colorinfo>
									<lut></lut>
									<lut1></lut1>
									<asc_sop></asc_sop>
									<asc_sat></asc_sat>
									<lut2></lut2>
								</colorinfo>
								<labels>
									<label2>Violet</label2>
								</labels>
							</clip>
							<clip id="masterclip-164" explodedTracks="true">
								<uuid>0fe2e0fa-cec8-4c4d-93f8-ebca51a45901</uuid>
								<masterclipid>masterclip-164</masterclipid>
								<ismasterclip>TRUE</ismasterclip>
								<duration>232</duration>
								<rate>
									<timebase>25</timebase>
									<ntsc>FALSE</ntsc>
								</rate>
								<out>184</out>
								<name>23384_Dipping cream filled waffle in chocolate _By_Omri_Ohana_Artlist_HD.mp4</name>
								<media>
									<video>
										<track>
											<clipitem id="clipitem-1284">
												<masterclipid>masterclip-164</masterclipid>
												<name>23384_Dipping cream filled waffle in chocolate _By_Omri_Ohana_Artlist_HD.mp4</name>
												<rate>
													<timebase>25</timebase>
													<ntsc>FALSE</ntsc>
												</rate>
												<alphatype>none</alphatype>
												<file id="file-141"/>
											</clipitem>
										</track>
									</video>
								</media>
								<logginginfo>
									<description></description>
									<scene></scene>
									<shottake></shottake>
									<lognote></lognote>
									<good></good>
									<originalvideofilename></originalvideofilename>
									<originalaudiofilename></originalaudiofilename>
								</logginginfo>
								<colorinfo>
									<lut></lut>
									<lut1></lut1>
									<asc_sop></asc_sop>
									<asc_sat></asc_sat>
									<lut2></lut2>
								</colorinfo>
								<labels>
									<label2>Violet</label2>
								</labels>
							</clip>
							<clip id="masterclip-161" explodedTracks="true">
								<uuid>0a876dfa-5885-4e7d-bee3-1cf9dfd12e63</uuid>
								<masterclipid>masterclip-161</masterclipid>
								<ismasterclip>TRUE</ismasterclip>
								<duration>211</duration>
								<rate>
									<timebase>25</timebase>
									<ntsc>FALSE</ntsc>
								</rate>
								<name>23394_Woman placing waffle rolls on sheet_By_Omri_Ohana_Artlist_HD.mp4</name>
								<media>
									<video>
										<track>
											<clipitem id="clipitem-1285">
												<masterclipid>masterclip-161</masterclipid>
												<name>23394_Woman placing waffle rolls on sheet_By_Omri_Ohana_Artlist_HD.mp4</name>
												<rate>
													<timebase>25</timebase>
													<ntsc>FALSE</ntsc>
												</rate>
												<alphatype>none</alphatype>
												<file id="file-138"/>
											</clipitem>
										</track>
									</video>
								</media>
								<logginginfo>
									<description></description>
									<scene></scene>
									<shottake></shottake>
									<lognote></lognote>
									<good></good>
									<originalvideofilename></originalvideofilename>
									<originalaudiofilename></originalaudiofilename>
								</logginginfo>
								<colorinfo>
									<lut></lut>
									<lut1></lut1>
									<asc_sop></asc_sop>
									<asc_sat></asc_sat>
									<lut2></lut2>
								</colorinfo>
								<labels>
									<label2>Violet</label2>
								</labels>
							</clip>
							<clip id="masterclip-166" explodedTracks="true">
								<uuid>dd12e6b6-4309-4ea2-8f94-bc69463d33b6</uuid>
								<masterclipid>masterclip-166</masterclipid>
								<ismasterclip>TRUE</ismasterclip>
								<duration>115</duration>
								<rate>
									<timebase>25</timebase>
									<ntsc>FALSE</ntsc>
								</rate>
								<name>23417_Twisting waffle cone with chocolate _By_Omri_Ohana_Artlist_HD.mp4</name>
								<media>
									<video>
										<track>
											<clipitem id="clipitem-1286">
												<masterclipid>masterclip-166</masterclipid>
												<name>23417_Twisting waffle cone with chocolate _By_Omri_Ohana_Artlist_HD.mp4</name>
												<rate>
													<timebase>25</timebase>
													<ntsc>FALSE</ntsc>
												</rate>
												<alphatype>none</alphatype>
												<file id="file-143"/>
											</clipitem>
										</track>
									</video>
								</media>
								<logginginfo>
									<description></description>
									<scene></scene>
									<shottake></shottake>
									<lognote></lognote>
									<good></good>
									<originalvideofilename></originalvideofilename>
									<originalaudiofilename></originalaudiofilename>
								</logginginfo>
								<colorinfo>
									<lut></lut>
									<lut1></lut1>
									<asc_sop></asc_sop>
									<asc_sat></asc_sat>
									<lut2></lut2>
								</colorinfo>
								<labels>
									<label2>Violet</label2>
								</labels>
							</clip>
							<clip id="masterclip-165" explodedTracks="true">
								<uuid>dc05708f-1b04-4761-a06c-7004d8e465e5</uuid>
								<masterclipid>masterclip-165</masterclipid>
								<ismasterclip>TRUE</ismasterclip>
								<duration>183</duration>
								<rate>
									<timebase>25</timebase>
									<ntsc>FALSE</ntsc>
								</rate>
								<in>62</in>
								<out>158</out>
								<name>23422_Woman dipping waffle cone into dark chocolate _By_Omri_Ohana_Artlist_HD.mp4</name>
								<media>
									<video>
										<track>
											<clipitem id="clipitem-1287">
												<masterclipid>masterclip-165</masterclipid>
												<name>23422_Woman dipping waffle cone into dark chocolate _By_Omri_Ohana_Artlist_HD.mp4</name>
												<rate>
													<timebase>25</timebase>
													<ntsc>FALSE</ntsc>
												</rate>
												<alphatype>none</alphatype>
												<file id="file-142"/>
											</clipitem>
										</track>
									</video>
								</media>
								<logginginfo>
									<description></description>
									<scene></scene>
									<shottake></shottake>
									<lognote></lognote>
									<good></good>
									<originalvideofilename></originalvideofilename>
									<originalaudiofilename></originalaudiofilename>
								</logginginfo>
								<colorinfo>
									<lut></lut>
									<lut1></lut1>
									<asc_sop></asc_sop>
									<asc_sat></asc_sat>
									<lut2></lut2>
								</colorinfo>
								<labels>
									<label2>Violet</label2>
								</labels>
							</clip>
							<clip id="masterclip-162" explodedTracks="true">
								<uuid>98e42abf-faf2-42d3-843f-0e082d59e1ef</uuid>
								<masterclipid>masterclip-162</masterclipid>
								<ismasterclip>TRUE</ismasterclip>
								<duration>294</duration>
								<rate>
									<timebase>25</timebase>
									<ntsc>FALSE</ntsc>
								</rate>
								<in>120</in>
								<out>249</out>
								<name>23427_Girl places cream filled waffle cones on tray_By_Omri_Ohana_Artlist_HD.mp4</name>
								<media>
									<video>
										<track>
											<clipitem id="clipitem-1288">
												<masterclipid>masterclip-162</masterclipid>
												<name>23427_Girl places cream filled waffle cones on tray_By_Omri_Ohana_Artlist_HD.mp4</name>
												<rate>
													<timebase>25</timebase>
													<ntsc>FALSE</ntsc>
												</rate>
												<alphatype>none</alphatype>
												<file id="file-139"/>
											</clipitem>
										</track>
									</video>
								</media>
								<logginginfo>
									<description></description>
									<scene></scene>
									<shottake></shottake>
									<lognote></lognote>
									<good></good>
									<originalvideofilename></originalvideofilename>
									<originalaudiofilename></originalaudiofilename>
								</logginginfo>
								<colorinfo>
									<lut></lut>
									<lut1></lut1>
									<asc_sop></asc_sop>
									<asc_sat></asc_sat>
									<lut2></lut2>
								</colorinfo>
								<labels>
									<label2>Violet</label2>
								</labels>
							</clip>
							<clip id="masterclip-167" explodedTracks="true">
								<uuid>30a1bc7e-abea-4923-8d96-eff45aa97fa7</uuid>
								<masterclipid>masterclip-167</masterclipid>
								<ismasterclip>TRUE</ismasterclip>
								<duration>309</duration>
								<rate>
									<timebase>25</timebase>
									<ntsc>FALSE</ntsc>
								</rate>
								<out>183</out>
								<name>23436_Chocolate covered waffle cone dipped in nuts _By_Omri_Ohana_Artlist_HD.mp4</name>
								<media>
									<video>
										<track>
											<clipitem id="clipitem-1289">
												<masterclipid>masterclip-167</masterclipid>
												<name>23436_Chocolate covered waffle cone dipped in nuts _By_Omri_Ohana_Artlist_HD.mp4</name>
												<rate>
													<timebase>25</timebase>
													<ntsc>FALSE</ntsc>
												</rate>
												<alphatype>none</alphatype>
												<file id="file-144"/>
											</clipitem>
										</track>
									</video>
								</media>
								<logginginfo>
									<description></description>
									<scene></scene>
									<shottake></shottake>
									<lognote></lognote>
									<good></good>
									<originalvideofilename></originalvideofilename>
									<originalaudiofilename></originalaudiofilename>
								</logginginfo>
								<colorinfo>
									<lut></lut>
									<lut1></lut1>
									<asc_sop></asc_sop>
									<asc_sat></asc_sat>
									<lut2></lut2>
								</colorinfo>
								<labels>
									<label2>Violet</label2>
								</labels>
							</clip>
						</children>
					</bin>
					<bin>
						<name>cotton candy flavor</name>
						<children>
							<clip id="masterclip-225" explodedTracks="true">
								<uuid>beb930bb-43f8-4ad9-927e-3bb395e595e2</uuid>
								<masterclipid>masterclip-225</masterclipid>
								<ismasterclip>TRUE</ismasterclip>
								<duration>1650</duration>
								<rate>
									<timebase>30</timebase>
									<ntsc>FALSE</ntsc>
								</rate>
								<in>1402</in>
								<out>1511</out>
								<name>(allyoucansweet)_7071304615676874030_TT.mp4</name>
								<media>
									<video>
										<track>
											<clipitem id="clipitem-1290">
												<masterclipid>masterclip-225</masterclipid>
												<name>(allyoucansweet)_7071304615676874030_TT.mp4</name>
												<rate>
													<timebase>30</timebase>
													<ntsc>FALSE</ntsc>
												</rate>
												<alphatype>none</alphatype>
												<file id="file-193"/>
												<link>
													<linkclipref>clipitem-1290</linkclipref>
													<mediatype>video</mediatype>
													<trackindex>1</trackindex>
													<clipindex>1</clipindex>
												</link>
												<link>
													<linkclipref>clipitem-1291</linkclipref>
													<mediatype>audio</mediatype>
													<trackindex>1</trackindex>
													<clipindex>1</clipindex>
													<groupindex>1</groupindex>
												</link>
												<link>
													<linkclipref>clipitem-1292</linkclipref>
													<mediatype>audio</mediatype>
													<trackindex>2</trackindex>
													<clipindex>1</clipindex>
													<groupindex>1</groupindex>
												</link>
											</clipitem>
										</track>
									</video>
									<audio>
										<track>
											<clipitem id="clipitem-1291">
												<masterclipid>masterclip-225</masterclipid>
												<name>(allyoucansweet)_7071304615676874030_TT.mp4</name>
												<rate>
													<timebase>30</timebase>
													<ntsc>FALSE</ntsc>
												</rate>
												<file id="file-193"/>
												<sourcetrack>
													<mediatype>audio</mediatype>
													<trackindex>1</trackindex>
												</sourcetrack>
												<link>
													<linkclipref>clipitem-1290</linkclipref>
													<mediatype>video</mediatype>
													<trackindex>1</trackindex>
													<clipindex>1</clipindex>
												</link>
												<link>
													<linkclipref>clipitem-1291</linkclipref>
													<mediatype>audio</mediatype>
													<trackindex>1</trackindex>
													<clipindex>1</clipindex>
													<groupindex>1</groupindex>
												</link>
												<link>
													<linkclipref>clipitem-1292</linkclipref>
													<mediatype>audio</mediatype>
													<trackindex>2</trackindex>
													<clipindex>1</clipindex>
													<groupindex>1</groupindex>
												</link>
											</clipitem>
										</track>
										<track>
											<clipitem id="clipitem-1292">
												<masterclipid>masterclip-225</masterclipid>
												<name>(allyoucansweet)_7071304615676874030_TT.mp4</name>
												<rate>
													<timebase>30</timebase>
													<ntsc>FALSE</ntsc>
												</rate>
												<file id="file-193"/>
												<sourcetrack>
													<mediatype>audio</mediatype>
													<trackindex>2</trackindex>
												</sourcetrack>
												<link>
													<linkclipref>clipitem-1290</linkclipref>
													<mediatype>video</mediatype>
													<trackindex>1</trackindex>
													<clipindex>1</clipindex>
												</link>
												<link>
													<linkclipref>clipitem-1291</linkclipref>
													<mediatype>audio</mediatype>
													<trackindex>1</trackindex>
													<clipindex>1</clipindex>
													<groupindex>1</groupindex>
												</link>
												<link>
													<linkclipref>clipitem-1292</linkclipref>
													<mediatype>audio</mediatype>
													<trackindex>2</trackindex>
													<clipindex>1</clipindex>
													<groupindex>1</groupindex>
												</link>
											</clipitem>
										</track>
									</audio>
								</media>
								<logginginfo>
									<description></description>
									<scene></scene>
									<shottake></shottake>
									<lognote></lognote>
									<good></good>
									<originalvideofilename></originalvideofilename>
									<originalaudiofilename></originalaudiofilename>
								</logginginfo>
								<colorinfo>
									<lut></lut>
									<lut1></lut1>
									<asc_sop></asc_sop>
									<asc_sat></asc_sat>
									<lut2></lut2>
								</colorinfo>
								<labels>
									<label2>Violet</label2>
								</labels>
							</clip>
							<clip id="masterclip-227" explodedTracks="true">
								<uuid>8a444f49-58b6-4219-b867-7a8a1a14d82d</uuid>
								<masterclipid>masterclip-227</masterclipid>
								<ismasterclip>TRUE</ismasterclip>
								<duration>495</duration>
								<rate>
									<timebase>30</timebase>
									<ntsc>FALSE</ntsc>
								</rate>
								<in>60</in>
								<name>(amoretti)_Chs2i5WggmB_IG.mp4</name>
								<media>
									<video>
										<track>
											<clipitem id="clipitem-1293">
												<masterclipid>masterclip-227</masterclipid>
												<name>(amoretti)_Chs2i5WggmB_IG.mp4</name>
												<rate>
													<timebase>30</timebase>
													<ntsc>FALSE</ntsc>
												</rate>
												<alphatype>none</alphatype>
												<file id="file-195"/>
												<link>
													<linkclipref>clipitem-1293</linkclipref>
													<mediatype>video</mediatype>
													<trackindex>1</trackindex>
													<clipindex>1</clipindex>
												</link>
												<link>
													<linkclipref>clipitem-1294</linkclipref>
													<mediatype>audio</mediatype>
													<trackindex>1</trackindex>
													<clipindex>1</clipindex>
													<groupindex>1</groupindex>
												</link>
												<link>
													<linkclipref>clipitem-1295</linkclipref>
													<mediatype>audio</mediatype>
													<trackindex>2</trackindex>
													<clipindex>1</clipindex>
													<groupindex>1</groupindex>
												</link>
											</clipitem>
										</track>
									</video>
									<audio>
										<track>
											<clipitem id="clipitem-1294">
												<masterclipid>masterclip-227</masterclipid>
												<name>(amoretti)_Chs2i5WggmB_IG.mp4</name>
												<rate>
													<timebase>30</timebase>
													<ntsc>FALSE</ntsc>
												</rate>
												<file id="file-195"/>
												<sourcetrack>
													<mediatype>audio</mediatype>
													<trackindex>1</trackindex>
												</sourcetrack>
												<link>
													<linkclipref>clipitem-1293</linkclipref>
													<mediatype>video</mediatype>
													<trackindex>1</trackindex>
													<clipindex>1</clipindex>
												</link>
												<link>
													<linkclipref>clipitem-1294</linkclipref>
													<mediatype>audio</mediatype>
													<trackindex>1</trackindex>
													<clipindex>1</clipindex>
													<groupindex>1</groupindex>
												</link>
												<link>
													<linkclipref>clipitem-1295</linkclipref>
													<mediatype>audio</mediatype>
													<trackindex>2</trackindex>
													<clipindex>1</clipindex>
													<groupindex>1</groupindex>
												</link>
											</clipitem>
										</track>
										<track>
											<clipitem id="clipitem-1295">
												<masterclipid>masterclip-227</masterclipid>
												<name>(amoretti)_Chs2i5WggmB_IG.mp4</name>
												<rate>
													<timebase>30</timebase>
													<ntsc>FALSE</ntsc>
												</rate>
												<file id="file-195"/>
												<sourcetrack>
													<mediatype>audio</mediatype>
													<trackindex>2</trackindex>
												</sourcetrack>
												<link>
													<linkclipref>clipitem-1293</linkclipref>
													<mediatype>video</mediatype>
													<trackindex>1</trackindex>
													<clipindex>1</clipindex>
												</link>
												<link>
													<linkclipref>clipitem-1294</linkclipref>
													<mediatype>audio</mediatype>
													<trackindex>1</trackindex>
													<clipindex>1</clipindex>
													<groupindex>1</groupindex>
												</link>
												<link>
													<linkclipref>clipitem-1295</linkclipref>
													<mediatype>audio</mediatype>
													<trackindex>2</trackindex>
													<clipindex>1</clipindex>
													<groupindex>1</groupindex>
												</link>
											</clipitem>
										</track>
									</audio>
								</media>
								<logginginfo>
									<description></description>
									<scene></scene>
									<shottake></shottake>
									<lognote></lognote>
									<good></good>
									<originalvideofilename></originalvideofilename>
									<originalaudiofilename></originalaudiofilename>
								</logginginfo>
								<colorinfo>
									<lut></lut>
									<lut1></lut1>
									<asc_sop></asc_sop>
									<asc_sat></asc_sat>
									<lut2></lut2>
								</colorinfo>
								<labels>
									<label2>Violet</label2>
								</labels>
							</clip>
							<clip id="masterclip-228" explodedTracks="true">
								<uuid>087f47ae-2f4c-4415-bfcd-eba064dab0b5</uuid>
								<masterclipid>masterclip-228</masterclipid>
								<ismasterclip>TRUE</ismasterclip>
								<duration>323</duration>
								<rate>
									<timebase>30</timebase>
									<ntsc>FALSE</ntsc>
								</rate>
								<name>(loganscandies)_7052070626793622831_TT.mp4</name>
								<media>
									<video>
										<track>
											<clipitem id="clipitem-1296">
												<masterclipid>masterclip-228</masterclipid>
												<name>(loganscandies)_7052070626793622831_TT.mp4</name>
												<rate>
													<timebase>30</timebase>
													<ntsc>FALSE</ntsc>
												</rate>
												<alphatype>none</alphatype>
												<file id="file-196"/>
												<link>
													<linkclipref>clipitem-1296</linkclipref>
													<mediatype>video</mediatype>
													<trackindex>1</trackindex>
													<clipindex>1</clipindex>
												</link>
												<link>
													<linkclipref>clipitem-1297</linkclipref>
													<mediatype>audio</mediatype>
													<trackindex>1</trackindex>
													<clipindex>1</clipindex>
													<groupindex>1</groupindex>
												</link>
												<link>
													<linkclipref>clipitem-1298</linkclipref>
													<mediatype>audio</mediatype>
													<trackindex>2</trackindex>
													<clipindex>1</clipindex>
													<groupindex>1</groupindex>
												</link>
											</clipitem>
										</track>
									</video>
									<audio>
										<track>
											<clipitem id="clipitem-1297">
												<masterclipid>masterclip-228</masterclipid>
												<name>(loganscandies)_7052070626793622831_TT.mp4</name>
												<rate>
													<timebase>30</timebase>
													<ntsc>FALSE</ntsc>
												</rate>
												<file id="file-196"/>
												<sourcetrack>
													<mediatype>audio</mediatype>
													<trackindex>1</trackindex>
												</sourcetrack>
												<link>
													<linkclipref>clipitem-1296</linkclipref>
													<mediatype>video</mediatype>
													<trackindex>1</trackindex>
													<clipindex>1</clipindex>
												</link>
												<link>
													<linkclipref>clipitem-1297</linkclipref>
													<mediatype>audio</mediatype>
													<trackindex>1</trackindex>
													<clipindex>1</clipindex>
													<groupindex>1</groupindex>
												</link>
												<link>
													<linkclipref>clipitem-1298</linkclipref>
													<mediatype>audio</mediatype>
													<trackindex>2</trackindex>
													<clipindex>1</clipindex>
													<groupindex>1</groupindex>
												</link>
											</clipitem>
										</track>
										<track>
											<clipitem id="clipitem-1298">
												<masterclipid>masterclip-228</masterclipid>
												<name>(loganscandies)_7052070626793622831_TT.mp4</name>
												<rate>
													<timebase>30</timebase>
													<ntsc>FALSE</ntsc>
												</rate>
												<file id="file-196"/>
												<sourcetrack>
													<mediatype>audio</mediatype>
													<trackindex>2</trackindex>
												</sourcetrack>
												<link>
													<linkclipref>clipitem-1296</linkclipref>
													<mediatype>video</mediatype>
													<trackindex>1</trackindex>
													<clipindex>1</clipindex>
												</link>
												<link>
													<linkclipref>clipitem-1297</linkclipref>
													<mediatype>audio</mediatype>
													<trackindex>1</trackindex>
													<clipindex>1</clipindex>
													<groupindex>1</groupindex>
												</link>
												<link>
													<linkclipref>clipitem-1298</linkclipref>
													<mediatype>audio</mediatype>
													<trackindex>2</trackindex>
													<clipindex>1</clipindex>
													<groupindex>1</groupindex>
												</link>
											</clipitem>
										</track>
									</audio>
								</media>
								<logginginfo>
									<description></description>
									<scene></scene>
									<shottake></shottake>
									<lognote></lognote>
									<good></good>
									<originalvideofilename></originalvideofilename>
									<originalaudiofilename></originalaudiofilename>
								</logginginfo>
								<colorinfo>
									<lut></lut>
									<lut1></lut1>
									<asc_sop></asc_sop>
									<asc_sat></asc_sat>
									<lut2></lut2>
								</colorinfo>
								<labels>
									<label2>Violet</label2>
								</labels>
							</clip>
							<clip id="masterclip-229" explodedTracks="true">
								<uuid>53fb0d28-86e8-475b-a62f-9c4291a6117d</uuid>
								<masterclipid>masterclip-229</masterclipid>
								<ismasterclip>TRUE</ismasterclip>
								<duration>1275</duration>
								<rate>
									<timebase>30</timebase>
									<ntsc>FALSE</ntsc>
								</rate>
								<in>1175</in>
								<out>1271</out>
								<name>(ryanwilsonbakes)_B0HQ1fuAIh__IG.mp4</name>
								<media>
									<video>
										<track>
											<clipitem id="clipitem-1299">
												<masterclipid>masterclip-229</masterclipid>
												<name>(ryanwilsonbakes)_B0HQ1fuAIh__IG.mp4</name>
												<rate>
													<timebase>30</timebase>
													<ntsc>FALSE</ntsc>
												</rate>
												<alphatype>none</alphatype>
												<file id="file-197"/>
												<link>
													<linkclipref>clipitem-1299</linkclipref>
													<mediatype>video</mediatype>
													<trackindex>1</trackindex>
													<clipindex>1</clipindex>
												</link>
												<link>
													<linkclipref>clipitem-1300</linkclipref>
													<mediatype>audio</mediatype>
													<trackindex>1</trackindex>
													<clipindex>1</clipindex>
													<groupindex>1</groupindex>
												</link>
												<link>
													<linkclipref>clipitem-1301</linkclipref>
													<mediatype>audio</mediatype>
													<trackindex>2</trackindex>
													<clipindex>1</clipindex>
													<groupindex>1</groupindex>
												</link>
											</clipitem>
										</track>
									</video>
									<audio>
										<track>
											<clipitem id="clipitem-1300">
												<masterclipid>masterclip-229</masterclipid>
												<name>(ryanwilsonbakes)_B0HQ1fuAIh__IG.mp4</name>
												<rate>
													<timebase>30</timebase>
													<ntsc>FALSE</ntsc>
												</rate>
												<file id="file-197"/>
												<sourcetrack>
													<mediatype>audio</mediatype>
													<trackindex>1</trackindex>
												</sourcetrack>
												<link>
													<linkclipref>clipitem-1299</linkclipref>
													<mediatype>video</mediatype>
													<trackindex>1</trackindex>
													<clipindex>1</clipindex>
												</link>
												<link>
													<linkclipref>clipitem-1300</linkclipref>
													<mediatype>audio</mediatype>
													<trackindex>1</trackindex>
													<clipindex>1</clipindex>
													<groupindex>1</groupindex>
												</link>
												<link>
													<linkclipref>clipitem-1301</linkclipref>
													<mediatype>audio</mediatype>
													<trackindex>2</trackindex>
													<clipindex>1</clipindex>
													<groupindex>1</groupindex>
												</link>
											</clipitem>
										</track>
										<track>
											<clipitem id="clipitem-1301">
												<masterclipid>masterclip-229</masterclipid>
												<name>(ryanwilsonbakes)_B0HQ1fuAIh__IG.mp4</name>
												<rate>
													<timebase>30</timebase>
													<ntsc>FALSE</ntsc>
												</rate>
												<file id="file-197"/>
												<sourcetrack>
													<mediatype>audio</mediatype>
													<trackindex>2</trackindex>
												</sourcetrack>
												<link>
													<linkclipref>clipitem-1299</linkclipref>
													<mediatype>video</mediatype>
													<trackindex>1</trackindex>
													<clipindex>1</clipindex>
												</link>
												<link>
													<linkclipref>clipitem-1300</linkclipref>
													<mediatype>audio</mediatype>
													<trackindex>1</trackindex>
													<clipindex>1</clipindex>
													<groupindex>1</groupindex>
												</link>
												<link>
													<linkclipref>clipitem-1301</linkclipref>
													<mediatype>audio</mediatype>
													<trackindex>2</trackindex>
													<clipindex>1</clipindex>
													<groupindex>1</groupindex>
												</link>
											</clipitem>
										</track>
									</audio>
								</media>
								<logginginfo>
									<description></description>
									<scene></scene>
									<shottake></shottake>
									<lognote></lognote>
									<good></good>
									<originalvideofilename></originalvideofilename>
									<originalaudiofilename></originalaudiofilename>
								</logginginfo>
								<colorinfo>
									<lut></lut>
									<lut1></lut1>
									<asc_sop></asc_sop>
									<asc_sat></asc_sat>
									<lut2></lut2>
								</colorinfo>
								<labels>
									<label2>Violet</label2>
								</labels>
							</clip>
							<clip id="masterclip-226" explodedTracks="true">
								<uuid>85126923-e12b-4a92-afc2-7381091090fc</uuid>
								<masterclipid>masterclip-226</masterclipid>
								<ismasterclip>TRUE</ismasterclip>
								<duration>606</duration>
								<rate>
									<timebase>30</timebase>
									<ntsc>FALSE</ntsc>
								</rate>
								<out>517</out>
								<name>(stockmans_bbd)_CUmMBnGBvTm_IG.mp4</name>
								<media>
									<video>
										<track>
											<clipitem id="clipitem-1302">
												<masterclipid>masterclip-226</masterclipid>
												<name>(stockmans_bbd)_CUmMBnGBvTm_IG.mp4</name>
												<rate>
													<timebase>30</timebase>
													<ntsc>FALSE</ntsc>
												</rate>
												<alphatype>none</alphatype>
												<file id="file-194"/>
												<link>
													<linkclipref>clipitem-1302</linkclipref>
													<mediatype>video</mediatype>
													<trackindex>1</trackindex>
													<clipindex>1</clipindex>
												</link>
												<link>
													<linkclipref>clipitem-1303</linkclipref>
													<mediatype>audio</mediatype>
													<trackindex>1</trackindex>
													<clipindex>1</clipindex>
													<groupindex>1</groupindex>
												</link>
												<link>
													<linkclipref>clipitem-1304</linkclipref>
													<mediatype>audio</mediatype>
													<trackindex>2</trackindex>
													<clipindex>1</clipindex>
													<groupindex>1</groupindex>
												</link>
											</clipitem>
										</track>
									</video>
									<audio>
										<track>
											<clipitem id="clipitem-1303">
												<masterclipid>masterclip-226</masterclipid>
												<name>(stockmans_bbd)_CUmMBnGBvTm_IG.mp4</name>
												<rate>
													<timebase>30</timebase>
													<ntsc>FALSE</ntsc>
												</rate>
												<file id="file-194"/>
												<sourcetrack>
													<mediatype>audio</mediatype>
													<trackindex>1</trackindex>
												</sourcetrack>
												<link>
													<linkclipref>clipitem-1302</linkclipref>
													<mediatype>video</mediatype>
													<trackindex>1</trackindex>
													<clipindex>1</clipindex>
												</link>
												<link>
													<linkclipref>clipitem-1303</linkclipref>
													<mediatype>audio</mediatype>
													<trackindex>1</trackindex>
													<clipindex>1</clipindex>
													<groupindex>1</groupindex>
												</link>
												<link>
													<linkclipref>clipitem-1304</linkclipref>
													<mediatype>audio</mediatype>
													<trackindex>2</trackindex>
													<clipindex>1</clipindex>
													<groupindex>1</groupindex>
												</link>
											</clipitem>
										</track>
										<track>
											<clipitem id="clipitem-1304">
												<masterclipid>masterclip-226</masterclipid>
												<name>(stockmans_bbd)_CUmMBnGBvTm_IG.mp4</name>
												<rate>
													<timebase>30</timebase>
													<ntsc>FALSE</ntsc>
												</rate>
												<file id="file-194"/>
												<sourcetrack>
													<mediatype>audio</mediatype>
													<trackindex>2</trackindex>
												</sourcetrack>
												<link>
													<linkclipref>clipitem-1302</linkclipref>
													<mediatype>video</mediatype>
													<trackindex>1</trackindex>
													<clipindex>1</clipindex>
												</link>
												<link>
													<linkclipref>clipitem-1303</linkclipref>
													<mediatype>audio</mediatype>
													<trackindex>1</trackindex>
													<clipindex>1</clipindex>
													<groupindex>1</groupindex>
												</link>
												<link>
													<linkclipref>clipitem-1304</linkclipref>
													<mediatype>audio</mediatype>
													<trackindex>2</trackindex>
													<clipindex>1</clipindex>
													<groupindex>1</groupindex>
												</link>
											</clipitem>
										</track>
									</audio>
								</media>
								<logginginfo>
									<description></description>
									<scene></scene>
									<shottake></shottake>
									<lognote></lognote>
									<good></good>
									<originalvideofilename></originalvideofilename>
									<originalaudiofilename></originalaudiofilename>
								</logginginfo>
								<colorinfo>
									<lut></lut>
									<lut1></lut1>
									<asc_sop></asc_sop>
									<asc_sat></asc_sat>
									<lut2></lut2>
								</colorinfo>
								<labels>
									<label2>Violet</label2>
								</labels>
							</clip>
						</children>
					</bin>
					<clip id="masterclip-221" explodedTracks="true">
						<uuid>ee463f42-2398-40a4-b3f8-a49942a3be19</uuid>
						<masterclipid>masterclip-221</masterclipid>
						<ismasterclip>TRUE</ismasterclip>
						<duration>8279</duration>
						<rate>
							<timebase>60</timebase>
							<ntsc>FALSE</ntsc>
						</rate>
						<in>7733</in>
						<out>7934</out>
						<name>(Sugar and Sparrow)_Sprinkled Cactus Cupcakes Tutorial_PVQHnGJL5Ao_YT.mp4</name>
						<media>
							<video>
								<track>
									<clipitem id="clipitem-1305">
										<masterclipid>masterclip-221</masterclipid>
										<name>(Sugar and Sparrow)_Sprinkled Cactus Cupcakes Tutorial_PVQHnGJL5Ao_YT.mp4</name>
										<rate>
											<timebase>60</timebase>
											<ntsc>FALSE</ntsc>
										</rate>
										<alphatype>none</alphatype>
										<file id="file-190"/>
										<link>
											<linkclipref>clipitem-1305</linkclipref>
											<mediatype>video</mediatype>
											<trackindex>1</trackindex>
											<clipindex>1</clipindex>
										</link>
										<link>
											<linkclipref>clipitem-1306</linkclipref>
											<mediatype>audio</mediatype>
											<trackindex>1</trackindex>
											<clipindex>1</clipindex>
											<groupindex>1</groupindex>
										</link>
										<link>
											<linkclipref>clipitem-1307</linkclipref>
											<mediatype>audio</mediatype>
											<trackindex>2</trackindex>
											<clipindex>1</clipindex>
											<groupindex>1</groupindex>
										</link>
									</clipitem>
								</track>
							</video>
							<audio>
								<track>
									<clipitem id="clipitem-1306">
										<masterclipid>masterclip-221</masterclipid>
										<name>(Sugar and Sparrow)_Sprinkled Cactus Cupcakes Tutorial_PVQHnGJL5Ao_YT.mp4</name>
										<rate>
											<timebase>60</timebase>
											<ntsc>FALSE</ntsc>
										</rate>
										<file id="file-190"/>
										<sourcetrack>
											<mediatype>audio</mediatype>
											<trackindex>1</trackindex>
										</sourcetrack>
										<link>
											<linkclipref>clipitem-1305</linkclipref>
											<mediatype>video</mediatype>
											<trackindex>1</trackindex>
											<clipindex>1</clipindex>
										</link>
										<link>
											<linkclipref>clipitem-1306</linkclipref>
											<mediatype>audio</mediatype>
											<trackindex>1</trackindex>
											<clipindex>1</clipindex>
											<groupindex>1</groupindex>
										</link>
										<link>
											<linkclipref>clipitem-1307</linkclipref>
											<mediatype>audio</mediatype>
											<trackindex>2</trackindex>
											<clipindex>1</clipindex>
											<groupindex>1</groupindex>
										</link>
									</clipitem>
								</track>
								<track>
									<clipitem id="clipitem-1307">
										<masterclipid>masterclip-221</masterclipid>
										<name>(Sugar and Sparrow)_Sprinkled Cactus Cupcakes Tutorial_PVQHnGJL5Ao_YT.mp4</name>
										<rate>
											<timebase>60</timebase>
											<ntsc>FALSE</ntsc>
										</rate>
										<file id="file-190"/>
										<sourcetrack>
											<mediatype>audio</mediatype>
											<trackindex>2</trackindex>
										</sourcetrack>
										<link>
											<linkclipref>clipitem-1305</linkclipref>
											<mediatype>video</mediatype>
											<trackindex>1</trackindex>
											<clipindex>1</clipindex>
										</link>
										<link>
											<linkclipref>clipitem-1306</linkclipref>
											<mediatype>audio</mediatype>
											<trackindex>1</trackindex>
											<clipindex>1</clipindex>
											<groupindex>1</groupindex>
										</link>
										<link>
											<linkclipref>clipitem-1307</linkclipref>
											<mediatype>audio</mediatype>
											<trackindex>2</trackindex>
											<clipindex>1</clipindex>
											<groupindex>1</groupindex>
										</link>
									</clipitem>
								</track>
							</audio>
						</media>
						<logginginfo>
							<description>Sprinkled Cactus Cupcakes Tutorial</description>
							<scene></scene>
							<shottake></shottake>
							<lognote>https://www.youtube.com/watch?v=PVQHnGJL5Ao</lognote>
							<good></good>
							<originalvideofilename></originalvideofilename>
							<originalaudiofilename></originalaudiofilename>
						</logginginfo>
						<colorinfo>
							<lut></lut>
							<lut1></lut1>
							<asc_sop></asc_sop>
							<asc_sat></asc_sat>
							<lut2></lut2>
						</colorinfo>
						<labels>
							<label2>Violet</label2>
						</labels>
					</clip>
					<bin>
						<name>Artlist - Orange Chocolate</name>
						<children>
							<clip id="masterclip-79" explodedTracks="true">
								<uuid>966b49af-3ed7-46e0-8c7c-15d07bbac960</uuid>
								<masterclipid>masterclip-79</masterclipid>
								<ismasterclip>TRUE</ismasterclip>
								<duration>239</duration>
								<rate>
									<timebase>24</timebase>
									<ntsc>TRUE</ntsc>
								</rate>
								<name>71892_Woman pouring chocolate onto a tray from a chocolate syringe_By_Lester_Platt_Artlist_HD.mp4</name>
								<media>
									<video>
										<track>
											<clipitem id="clipitem-1308">
												<masterclipid>masterclip-79</masterclipid>
												<name>71892_Woman pouring chocolate onto a tray from a chocolate syringe_By_Lester_Platt_Artlist_HD.mp4</name>
												<rate>
													<timebase>24</timebase>
													<ntsc>TRUE</ntsc>
												</rate>
												<alphatype>none</alphatype>
												<file id="file-66"/>
												<link>
													<linkclipref>clipitem-1308</linkclipref>
													<mediatype>video</mediatype>
													<trackindex>1</trackindex>
													<clipindex>1</clipindex>
												</link>
												<link>
													<linkclipref>clipitem-1309</linkclipref>
													<mediatype>audio</mediatype>
													<trackindex>1</trackindex>
													<clipindex>1</clipindex>
													<groupindex>1</groupindex>
												</link>
												<link>
													<linkclipref>clipitem-1310</linkclipref>
													<mediatype>audio</mediatype>
													<trackindex>2</trackindex>
													<clipindex>1</clipindex>
													<groupindex>1</groupindex>
												</link>
											</clipitem>
										</track>
									</video>
									<audio>
										<track>
											<clipitem id="clipitem-1309">
												<masterclipid>masterclip-79</masterclipid>
												<name>71892_Woman pouring chocolate onto a tray from a chocolate syringe_By_Lester_Platt_Artlist_HD.mp4</name>
												<rate>
													<timebase>24</timebase>
													<ntsc>TRUE</ntsc>
												</rate>
												<file id="file-66"/>
												<sourcetrack>
													<mediatype>audio</mediatype>
													<trackindex>1</trackindex>
												</sourcetrack>
												<link>
													<linkclipref>clipitem-1308</linkclipref>
													<mediatype>video</mediatype>
													<trackindex>1</trackindex>
													<clipindex>1</clipindex>
												</link>
												<link>
													<linkclipref>clipitem-1309</linkclipref>
													<mediatype>audio</mediatype>
													<trackindex>1</trackindex>
													<clipindex>1</clipindex>
													<groupindex>1</groupindex>
												</link>
												<link>
													<linkclipref>clipitem-1310</linkclipref>
													<mediatype>audio</mediatype>
													<trackindex>2</trackindex>
													<clipindex>1</clipindex>
													<groupindex>1</groupindex>
												</link>
											</clipitem>
										</track>
										<track>
											<clipitem id="clipitem-1310">
												<masterclipid>masterclip-79</masterclipid>
												<name>71892_Woman pouring chocolate onto a tray from a chocolate syringe_By_Lester_Platt_Artlist_HD.mp4</name>
												<rate>
													<timebase>24</timebase>
													<ntsc>TRUE</ntsc>
												</rate>
												<file id="file-66"/>
												<sourcetrack>
													<mediatype>audio</mediatype>
													<trackindex>2</trackindex>
												</sourcetrack>
												<link>
													<linkclipref>clipitem-1308</linkclipref>
													<mediatype>video</mediatype>
													<trackindex>1</trackindex>
													<clipindex>1</clipindex>
												</link>
												<link>
													<linkclipref>clipitem-1309</linkclipref>
													<mediatype>audio</mediatype>
													<trackindex>1</trackindex>
													<clipindex>1</clipindex>
													<groupindex>1</groupindex>
												</link>
												<link>
													<linkclipref>clipitem-1310</linkclipref>
													<mediatype>audio</mediatype>
													<trackindex>2</trackindex>
													<clipindex>1</clipindex>
													<groupindex>1</groupindex>
												</link>
											</clipitem>
										</track>
									</audio>
								</media>
								<logginginfo>
									<description></description>
									<scene></scene>
									<shottake></shottake>
									<lognote></lognote>
									<good></good>
									<originalvideofilename></originalvideofilename>
									<originalaudiofilename></originalaudiofilename>
								</logginginfo>
								<colorinfo>
									<lut></lut>
									<lut1></lut1>
									<asc_sop></asc_sop>
									<asc_sat></asc_sat>
									<lut2></lut2>
								</colorinfo>
								<labels>
									<label2>Violet</label2>
								</labels>
							</clip>
							<clip id="masterclip-82" explodedTracks="true">
								<uuid>f595a106-33cf-4074-975c-b42fbebc4b0f</uuid>
								<masterclipid>masterclip-82</masterclipid>
								<ismasterclip>TRUE</ismasterclip>
								<duration>312</duration>
								<rate>
									<timebase>24</timebase>
									<ntsc>TRUE</ntsc>
								</rate>
								<out>253</out>
								<name>71893_Woman putting dry orange slices on chocolate in a tray_By_Lester_Platt_Artlist_HD.mp4</name>
								<media>
									<video>
										<track>
											<clipitem id="clipitem-1311">
												<masterclipid>masterclip-82</masterclipid>
												<name>71893_Woman putting dry orange slices on chocolate in a tray_By_Lester_Platt_Artlist_HD.mp4</name>
												<rate>
													<timebase>24</timebase>
													<ntsc>TRUE</ntsc>
												</rate>
												<alphatype>none</alphatype>
												<file id="file-69"/>
												<link>
													<linkclipref>clipitem-1311</linkclipref>
													<mediatype>video</mediatype>
													<trackindex>1</trackindex>
													<clipindex>1</clipindex>
												</link>
												<link>
													<linkclipref>clipitem-1312</linkclipref>
													<mediatype>audio</mediatype>
													<trackindex>1</trackindex>
													<clipindex>1</clipindex>
													<groupindex>1</groupindex>
												</link>
												<link>
													<linkclipref>clipitem-1313</linkclipref>
													<mediatype>audio</mediatype>
													<trackindex>2</trackindex>
													<clipindex>1</clipindex>
													<groupindex>1</groupindex>
												</link>
											</clipitem>
										</track>
									</video>
									<audio>
										<track>
											<clipitem id="clipitem-1312">
												<masterclipid>masterclip-82</masterclipid>
												<name>71893_Woman putting dry orange slices on chocolate in a tray_By_Lester_Platt_Artlist_HD.mp4</name>
												<rate>
													<timebase>24</timebase>
													<ntsc>TRUE</ntsc>
												</rate>
												<file id="file-69"/>
												<sourcetrack>
													<mediatype>audio</mediatype>
													<trackindex>1</trackindex>
												</sourcetrack>
												<link>
													<linkclipref>clipitem-1311</linkclipref>
													<mediatype>video</mediatype>
													<trackindex>1</trackindex>
													<clipindex>1</clipindex>
												</link>
												<link>
													<linkclipref>clipitem-1312</linkclipref>
													<mediatype>audio</mediatype>
													<trackindex>1</trackindex>
													<clipindex>1</clipindex>
													<groupindex>1</groupindex>
												</link>
												<link>
													<linkclipref>clipitem-1313</linkclipref>
													<mediatype>audio</mediatype>
													<trackindex>2</trackindex>
													<clipindex>1</clipindex>
													<groupindex>1</groupindex>
												</link>
											</clipitem>
										</track>
										<track>
											<clipitem id="clipitem-1313">
												<masterclipid>masterclip-82</masterclipid>
												<name>71893_Woman putting dry orange slices on chocolate in a tray_By_Lester_Platt_Artlist_HD.mp4</name>
												<rate>
													<timebase>24</timebase>
													<ntsc>TRUE</ntsc>
												</rate>
												<file id="file-69"/>
												<sourcetrack>
													<mediatype>audio</mediatype>
													<trackindex>2</trackindex>
												</sourcetrack>
												<link>
													<linkclipref>clipitem-1311</linkclipref>
													<mediatype>video</mediatype>
													<trackindex>1</trackindex>
													<clipindex>1</clipindex>
												</link>
												<link>
													<linkclipref>clipitem-1312</linkclipref>
													<mediatype>audio</mediatype>
													<trackindex>1</trackindex>
													<clipindex>1</clipindex>
													<groupindex>1</groupindex>
												</link>
												<link>
													<linkclipref>clipitem-1313</linkclipref>
													<mediatype>audio</mediatype>
													<trackindex>2</trackindex>
													<clipindex>1</clipindex>
													<groupindex>1</groupindex>
												</link>
											</clipitem>
										</track>
									</audio>
								</media>
								<logginginfo>
									<description></description>
									<scene></scene>
									<shottake></shottake>
									<lognote></lognote>
									<good></good>
									<originalvideofilename></originalvideofilename>
									<originalaudiofilename></originalaudiofilename>
								</logginginfo>
								<colorinfo>
									<lut></lut>
									<lut1></lut1>
									<asc_sop></asc_sop>
									<asc_sat></asc_sat>
									<lut2></lut2>
								</colorinfo>
								<labels>
									<label2>Violet</label2>
								</labels>
							</clip>
							<clip id="masterclip-280" explodedTracks="true">
								<uuid>b5bb668e-f015-4e9d-8637-7a2abb336a4c</uuid>
								<masterclipid>masterclip-280</masterclipid>
								<ismasterclip>TRUE</ismasterclip>
								<duration>185</duration>
								<rate>
									<timebase>24</timebase>
									<ntsc>TRUE</ntsc>
								</rate>
								<name>71895_Trays of chocolate in the making _By_Lester_Platt_Artlist_HD.mp4</name>
								<media>
									<video>
										<track>
											<clipitem id="clipitem-1314">
												<masterclipid>masterclip-280</masterclipid>
												<name>71895_Trays of chocolate in the making _By_Lester_Platt_Artlist_HD.mp4</name>
												<rate>
													<timebase>24</timebase>
													<ntsc>TRUE</ntsc>
												</rate>
												<alphatype>none</alphatype>
												<pixelaspectratio>square</pixelaspectratio>
												<anamorphic>FALSE</anamorphic>
												<file id="file-244">
													<name>71895_Trays of chocolate in the making _By_Lester_Platt_Artlist_HD.mp4</name>
													<pathurl>file://localhost/Volumes/ATM%201/EYE%20CANDY/8%3a14%3a23/3_Raw%20Files/Artlist%20-%20Orange%20Chocolate/71895_Trays%20of%20chocolate%20in%20the%20making%20_By_Lester_Platt_Artlist_HD.mp4</pathurl>
													<rate>
														<timebase>24</timebase>
														<ntsc>TRUE</ntsc>
													</rate>
													<duration>185</duration>
													<timecode>
														<rate>
															<timebase>24</timebase>
															<ntsc>TRUE</ntsc>
														</rate>
														<string>22:40:03:21</string>
														<frame>1958493</frame>
														<displayformat>NDF</displayformat>
													</timecode>
													<media>
														<video>
															<samplecharacteristics>
																<rate>
																	<timebase>24</timebase>
																	<ntsc>TRUE</ntsc>
																</rate>
																<width>1920</width>
																<height>1080</height>
																<anamorphic>FALSE</anamorphic>
																<pixelaspectratio>square</pixelaspectratio>
																<fielddominance>none</fielddominance>
															</samplecharacteristics>
														</video>
														<audio>
															<samplecharacteristics>
																<depth>16</depth>
																<samplerate>48000</samplerate>
															</samplecharacteristics>
															<channelcount>2</channelcount>
														</audio>
													</media>
												</file>
												<link>
													<linkclipref>clipitem-1314</linkclipref>
													<mediatype>video</mediatype>
													<trackindex>1</trackindex>
													<clipindex>1</clipindex>
												</link>
												<link>
													<linkclipref>clipitem-1315</linkclipref>
													<mediatype>audio</mediatype>
													<trackindex>1</trackindex>
													<clipindex>1</clipindex>
													<groupindex>1</groupindex>
												</link>
												<link>
													<linkclipref>clipitem-1316</linkclipref>
													<mediatype>audio</mediatype>
													<trackindex>2</trackindex>
													<clipindex>1</clipindex>
													<groupindex>1</groupindex>
												</link>
											</clipitem>
										</track>
									</video>
									<audio>
										<track>
											<clipitem id="clipitem-1315">
												<masterclipid>masterclip-280</masterclipid>
												<name>71895_Trays of chocolate in the making _By_Lester_Platt_Artlist_HD.mp4</name>
												<rate>
													<timebase>24</timebase>
													<ntsc>TRUE</ntsc>
												</rate>
												<file id="file-244"/>
												<sourcetrack>
													<mediatype>audio</mediatype>
													<trackindex>1</trackindex>
												</sourcetrack>
												<link>
													<linkclipref>clipitem-1314</linkclipref>
													<mediatype>video</mediatype>
													<trackindex>1</trackindex>
													<clipindex>1</clipindex>
												</link>
												<link>
													<linkclipref>clipitem-1315</linkclipref>
													<mediatype>audio</mediatype>
													<trackindex>1</trackindex>
													<clipindex>1</clipindex>
													<groupindex>1</groupindex>
												</link>
												<link>
													<linkclipref>clipitem-1316</linkclipref>
													<mediatype>audio</mediatype>
													<trackindex>2</trackindex>
													<clipindex>1</clipindex>
													<groupindex>1</groupindex>
												</link>
											</clipitem>
										</track>
										<track>
											<clipitem id="clipitem-1316">
												<masterclipid>masterclip-280</masterclipid>
												<name>71895_Trays of chocolate in the making _By_Lester_Platt_Artlist_HD.mp4</name>
												<rate>
													<timebase>24</timebase>
													<ntsc>TRUE</ntsc>
												</rate>
												<file id="file-244"/>
												<sourcetrack>
													<mediatype>audio</mediatype>
													<trackindex>2</trackindex>
												</sourcetrack>
												<link>
													<linkclipref>clipitem-1314</linkclipref>
													<mediatype>video</mediatype>
													<trackindex>1</trackindex>
													<clipindex>1</clipindex>
												</link>
												<link>
													<linkclipref>clipitem-1315</linkclipref>
													<mediatype>audio</mediatype>
													<trackindex>1</trackindex>
													<clipindex>1</clipindex>
													<groupindex>1</groupindex>
												</link>
												<link>
													<linkclipref>clipitem-1316</linkclipref>
													<mediatype>audio</mediatype>
													<trackindex>2</trackindex>
													<clipindex>1</clipindex>
													<groupindex>1</groupindex>
												</link>
											</clipitem>
										</track>
									</audio>
								</media>
								<logginginfo>
									<description></description>
									<scene></scene>
									<shottake></shottake>
									<lognote></lognote>
									<good></good>
									<originalvideofilename></originalvideofilename>
									<originalaudiofilename></originalaudiofilename>
								</logginginfo>
								<colorinfo>
									<lut></lut>
									<lut1></lut1>
									<asc_sop></asc_sop>
									<asc_sat></asc_sat>
									<lut2></lut2>
								</colorinfo>
								<labels>
								</labels>
							</clip>
							<clip id="masterclip-81" explodedTracks="true">
								<uuid>72714243-0c9e-4042-acdd-c15510425fbc</uuid>
								<masterclipid>masterclip-81</masterclipid>
								<ismasterclip>TRUE</ismasterclip>
								<duration>396</duration>
								<rate>
									<timebase>24</timebase>
									<ntsc>TRUE</ntsc>
								</rate>
								<out>215</out>
								<name>71896_Man making chocolate with dry orange slices _By_Lester_Platt_Artlist_HD.mp4</name>
								<media>
									<video>
										<track>
											<clipitem id="clipitem-1317">
												<masterclipid>masterclip-81</masterclipid>
												<name>71896_Man making chocolate with dry orange slices _By_Lester_Platt_Artlist_HD.mp4</name>
												<rate>
													<timebase>24</timebase>
													<ntsc>TRUE</ntsc>
												</rate>
												<alphatype>none</alphatype>
												<file id="file-68"/>
												<link>
													<linkclipref>clipitem-1317</linkclipref>
													<mediatype>video</mediatype>
													<trackindex>1</trackindex>
													<clipindex>1</clipindex>
												</link>
												<link>
													<linkclipref>clipitem-1318</linkclipref>
													<mediatype>audio</mediatype>
													<trackindex>1</trackindex>
													<clipindex>1</clipindex>
													<groupindex>1</groupindex>
												</link>
												<link>
													<linkclipref>clipitem-1319</linkclipref>
													<mediatype>audio</mediatype>
													<trackindex>2</trackindex>
													<clipindex>1</clipindex>
													<groupindex>1</groupindex>
												</link>
											</clipitem>
										</track>
									</video>
									<audio>
										<track>
											<clipitem id="clipitem-1318">
												<masterclipid>masterclip-81</masterclipid>
												<name>71896_Man making chocolate with dry orange slices _By_Lester_Platt_Artlist_HD.mp4</name>
												<rate>
													<timebase>24</timebase>
													<ntsc>TRUE</ntsc>
												</rate>
												<file id="file-68"/>
												<sourcetrack>
													<mediatype>audio</mediatype>
													<trackindex>1</trackindex>
												</sourcetrack>
												<link>
													<linkclipref>clipitem-1317</linkclipref>
													<mediatype>video</mediatype>
													<trackindex>1</trackindex>
													<clipindex>1</clipindex>
												</link>
												<link>
													<linkclipref>clipitem-1318</linkclipref>
													<mediatype>audio</mediatype>
													<trackindex>1</trackindex>
													<clipindex>1</clipindex>
													<groupindex>1</groupindex>
												</link>
												<link>
													<linkclipref>clipitem-1319</linkclipref>
													<mediatype>audio</mediatype>
													<trackindex>2</trackindex>
													<clipindex>1</clipindex>
													<groupindex>1</groupindex>
												</link>
											</clipitem>
										</track>
										<track>
											<clipitem id="clipitem-1319">
												<masterclipid>masterclip-81</masterclipid>
												<name>71896_Man making chocolate with dry orange slices _By_Lester_Platt_Artlist_HD.mp4</name>
												<rate>
													<timebase>24</timebase>
													<ntsc>TRUE</ntsc>
												</rate>
												<file id="file-68"/>
												<sourcetrack>
													<mediatype>audio</mediatype>
													<trackindex>2</trackindex>
												</sourcetrack>
												<link>
													<linkclipref>clipitem-1317</linkclipref>
													<mediatype>video</mediatype>
													<trackindex>1</trackindex>
													<clipindex>1</clipindex>
												</link>
												<link>
													<linkclipref>clipitem-1318</linkclipref>
													<mediatype>audio</mediatype>
													<trackindex>1</trackindex>
													<clipindex>1</clipindex>
													<groupindex>1</groupindex>
												</link>
												<link>
													<linkclipref>clipitem-1319</linkclipref>
													<mediatype>audio</mediatype>
													<trackindex>2</trackindex>
													<clipindex>1</clipindex>
													<groupindex>1</groupindex>
												</link>
											</clipitem>
										</track>
									</audio>
								</media>
								<logginginfo>
									<description></description>
									<scene></scene>
									<shottake></shottake>
									<lognote></lognote>
									<good></good>
									<originalvideofilename></originalvideofilename>
									<originalaudiofilename></originalaudiofilename>
								</logginginfo>
								<colorinfo>
									<lut></lut>
									<lut1></lut1>
									<asc_sop></asc_sop>
									<asc_sat></asc_sat>
									<lut2></lut2>
								</colorinfo>
								<labels>
									<label2>Violet</label2>
								</labels>
							</clip>
							<clip id="masterclip-84" explodedTracks="true">
								<uuid>4bea7159-ebe5-4937-a34d-cb3cd0161f42</uuid>
								<masterclipid>masterclip-84</masterclipid>
								<ismasterclip>TRUE</ismasterclip>
								<duration>280</duration>
								<rate>
									<timebase>24</timebase>
									<ntsc>TRUE</ntsc>
								</rate>
								<out>218</out>
								<name>71897_Chocolate with orange slices on trays _By_Lester_Platt_Artlist_HD.mp4</name>
								<media>
									<video>
										<track>
											<clipitem id="clipitem-1320">
												<masterclipid>masterclip-84</masterclipid>
												<name>71897_Chocolate with orange slices on trays _By_Lester_Platt_Artlist_HD.mp4</name>
												<rate>
													<timebase>24</timebase>
													<ntsc>TRUE</ntsc>
												</rate>
												<alphatype>none</alphatype>
												<file id="file-71"/>
												<link>
													<linkclipref>clipitem-1320</linkclipref>
													<mediatype>video</mediatype>
													<trackindex>1</trackindex>
													<clipindex>1</clipindex>
												</link>
												<link>
													<linkclipref>clipitem-1321</linkclipref>
													<mediatype>audio</mediatype>
													<trackindex>1</trackindex>
													<clipindex>1</clipindex>
													<groupindex>1</groupindex>
												</link>
												<link>
													<linkclipref>clipitem-1322</linkclipref>
													<mediatype>audio</mediatype>
													<trackindex>2</trackindex>
													<clipindex>1</clipindex>
													<groupindex>1</groupindex>
												</link>
											</clipitem>
										</track>
									</video>
									<audio>
										<track>
											<clipitem id="clipitem-1321">
												<masterclipid>masterclip-84</masterclipid>
												<name>71897_Chocolate with orange slices on trays _By_Lester_Platt_Artlist_HD.mp4</name>
												<rate>
													<timebase>24</timebase>
													<ntsc>TRUE</ntsc>
												</rate>
												<file id="file-71"/>
												<sourcetrack>
													<mediatype>audio</mediatype>
													<trackindex>1</trackindex>
												</sourcetrack>
												<link>
													<linkclipref>clipitem-1320</linkclipref>
													<mediatype>video</mediatype>
													<trackindex>1</trackindex>
													<clipindex>1</clipindex>
												</link>
												<link>
													<linkclipref>clipitem-1321</linkclipref>
													<mediatype>audio</mediatype>
													<trackindex>1</trackindex>
													<clipindex>1</clipindex>
													<groupindex>1</groupindex>
												</link>
												<link>
													<linkclipref>clipitem-1322</linkclipref>
													<mediatype>audio</mediatype>
													<trackindex>2</trackindex>
													<clipindex>1</clipindex>
													<groupindex>1</groupindex>
												</link>
											</clipitem>
										</track>
										<track>
											<clipitem id="clipitem-1322">
												<masterclipid>masterclip-84</masterclipid>
												<name>71897_Chocolate with orange slices on trays _By_Lester_Platt_Artlist_HD.mp4</name>
												<rate>
													<timebase>24</timebase>
													<ntsc>TRUE</ntsc>
												</rate>
												<file id="file-71"/>
												<sourcetrack>
													<mediatype>audio</mediatype>
													<trackindex>2</trackindex>
												</sourcetrack>
												<link>
													<linkclipref>clipitem-1320</linkclipref>
													<mediatype>video</mediatype>
													<trackindex>1</trackindex>
													<clipindex>1</clipindex>
												</link>
												<link>
													<linkclipref>clipitem-1321</linkclipref>
													<mediatype>audio</mediatype>
													<trackindex>1</trackindex>
													<clipindex>1</clipindex>
													<groupindex>1</groupindex>
												</link>
												<link>
													<linkclipref>clipitem-1322</linkclipref>
													<mediatype>audio</mediatype>
													<trackindex>2</trackindex>
													<clipindex>1</clipindex>
													<groupindex>1</groupindex>
												</link>
											</clipitem>
										</track>
									</audio>
								</media>
								<logginginfo>
									<description></description>
									<scene></scene>
									<shottake></shottake>
									<lognote></lognote>
									<good></good>
									<originalvideofilename></originalvideofilename>
									<originalaudiofilename></originalaudiofilename>
								</logginginfo>
								<colorinfo>
									<lut></lut>
									<lut1></lut1>
									<asc_sop></asc_sop>
									<asc_sat></asc_sat>
									<lut2></lut2>
								</colorinfo>
								<labels>
									<label2>Violet</label2>
								</labels>
							</clip>
							<clip id="masterclip-78" explodedTracks="true">
								<uuid>20dd3b25-ad1c-4074-9469-fab7490887da</uuid>
								<masterclipid>masterclip-78</masterclipid>
								<ismasterclip>TRUE</ismasterclip>
								<duration>337</duration>
								<rate>
									<timebase>24</timebase>
									<ntsc>TRUE</ntsc>
								</rate>
								<out>311</out>
								<name>71898_Person filling a chocolate syringe and pouring the chocolate onto a tray_By_Lester_Platt_Artlist_HD.mp4</name>
								<media>
									<video>
										<track>
											<clipitem id="clipitem-1323">
												<masterclipid>masterclip-78</masterclipid>
												<name>71898_Person filling a chocolate syringe and pouring the chocolate onto a tray_By_Lester_Platt_Artlist_HD.mp4</name>
												<rate>
													<timebase>24</timebase>
													<ntsc>TRUE</ntsc>
												</rate>
												<alphatype>none</alphatype>
												<file id="file-65"/>
												<link>
													<linkclipref>clipitem-1323</linkclipref>
													<mediatype>video</mediatype>
													<trackindex>1</trackindex>
													<clipindex>1</clipindex>
												</link>
												<link>
													<linkclipref>clipitem-1324</linkclipref>
													<mediatype>audio</mediatype>
													<trackindex>1</trackindex>
													<clipindex>1</clipindex>
													<groupindex>1</groupindex>
												</link>
												<link>
													<linkclipref>clipitem-1325</linkclipref>
													<mediatype>audio</mediatype>
													<trackindex>2</trackindex>
													<clipindex>1</clipindex>
													<groupindex>1</groupindex>
												</link>
											</clipitem>
										</track>
									</video>
									<audio>
										<track>
											<clipitem id="clipitem-1324">
												<masterclipid>masterclip-78</masterclipid>
												<name>71898_Person filling a chocolate syringe and pouring the chocolate onto a tray_By_Lester_Platt_Artlist_HD.mp4</name>
												<rate>
													<timebase>24</timebase>
													<ntsc>TRUE</ntsc>
												</rate>
												<file id="file-65"/>
												<sourcetrack>
													<mediatype>audio</mediatype>
													<trackindex>1</trackindex>
												</sourcetrack>
												<link>
													<linkclipref>clipitem-1323</linkclipref>
													<mediatype>video</mediatype>
													<trackindex>1</trackindex>
													<clipindex>1</clipindex>
												</link>
												<link>
													<linkclipref>clipitem-1324</linkclipref>
													<mediatype>audio</mediatype>
													<trackindex>1</trackindex>
													<clipindex>1</clipindex>
													<groupindex>1</groupindex>
												</link>
												<link>
													<linkclipref>clipitem-1325</linkclipref>
													<mediatype>audio</mediatype>
													<trackindex>2</trackindex>
													<clipindex>1</clipindex>
													<groupindex>1</groupindex>
												</link>
											</clipitem>
										</track>
										<track>
											<clipitem id="clipitem-1325">
												<masterclipid>masterclip-78</masterclipid>
												<name>71898_Person filling a chocolate syringe and pouring the chocolate onto a tray_By_Lester_Platt_Artlist_HD.mp4</name>
												<rate>
													<timebase>24</timebase>
													<ntsc>TRUE</ntsc>
												</rate>
												<file id="file-65"/>
												<sourcetrack>
													<mediatype>audio</mediatype>
													<trackindex>2</trackindex>
												</sourcetrack>
												<link>
													<linkclipref>clipitem-1323</linkclipref>
													<mediatype>video</mediatype>
													<trackindex>1</trackindex>
													<clipindex>1</clipindex>
												</link>
												<link>
													<linkclipref>clipitem-1324</linkclipref>
													<mediatype>audio</mediatype>
													<trackindex>1</trackindex>
													<clipindex>1</clipindex>
													<groupindex>1</groupindex>
												</link>
												<link>
													<linkclipref>clipitem-1325</linkclipref>
													<mediatype>audio</mediatype>
													<trackindex>2</trackindex>
													<clipindex>1</clipindex>
													<groupindex>1</groupindex>
												</link>
											</clipitem>
										</track>
									</audio>
								</media>
								<logginginfo>
									<description></description>
									<scene></scene>
									<shottake></shottake>
									<lognote></lognote>
									<good></good>
									<originalvideofilename></originalvideofilename>
									<originalaudiofilename></originalaudiofilename>
								</logginginfo>
								<colorinfo>
									<lut></lut>
									<lut1></lut1>
									<asc_sop></asc_sop>
									<asc_sat></asc_sat>
									<lut2></lut2>
								</colorinfo>
								<labels>
									<label2>Violet</label2>
								</labels>
							</clip>
							<clip id="masterclip-80" explodedTracks="true">
								<uuid>da9c7b1a-b930-40a5-a90b-4f9fd0615a7d</uuid>
								<masterclipid>masterclip-80</masterclipid>
								<ismasterclip>TRUE</ismasterclip>
								<duration>197</duration>
								<rate>
									<timebase>24</timebase>
									<ntsc>TRUE</ntsc>
								</rate>
								<out>167</out>
								<name>71899_Person spinning a bowl with dry orange slices _By_Lester_Platt_Artlist_HD.mp4</name>
								<media>
									<video>
										<track>
											<clipitem id="clipitem-1326">
												<masterclipid>masterclip-80</masterclipid>
												<name>71899_Person spinning a bowl with dry orange slices _By_Lester_Platt_Artlist_HD.mp4</name>
												<rate>
													<timebase>24</timebase>
													<ntsc>TRUE</ntsc>
												</rate>
												<alphatype>none</alphatype>
												<file id="file-67"/>
												<link>
													<linkclipref>clipitem-1326</linkclipref>
													<mediatype>video</mediatype>
													<trackindex>1</trackindex>
													<clipindex>1</clipindex>
												</link>
												<link>
													<linkclipref>clipitem-1327</linkclipref>
													<mediatype>audio</mediatype>
													<trackindex>1</trackindex>
													<clipindex>1</clipindex>
													<groupindex>1</groupindex>
												</link>
												<link>
													<linkclipref>clipitem-1328</linkclipref>
													<mediatype>audio</mediatype>
													<trackindex>2</trackindex>
													<clipindex>1</clipindex>
													<groupindex>1</groupindex>
												</link>
											</clipitem>
										</track>
									</video>
									<audio>
										<track>
											<clipitem id="clipitem-1327">
												<masterclipid>masterclip-80</masterclipid>
												<name>71899_Person spinning a bowl with dry orange slices _By_Lester_Platt_Artlist_HD.mp4</name>
												<rate>
													<timebase>24</timebase>
													<ntsc>TRUE</ntsc>
												</rate>
												<file id="file-67"/>
												<sourcetrack>
													<mediatype>audio</mediatype>
													<trackindex>1</trackindex>
												</sourcetrack>
												<link>
													<linkclipref>clipitem-1326</linkclipref>
													<mediatype>video</mediatype>
													<trackindex>1</trackindex>
													<clipindex>1</clipindex>
												</link>
												<link>
													<linkclipref>clipitem-1327</linkclipref>
													<mediatype>audio</mediatype>
													<trackindex>1</trackindex>
													<clipindex>1</clipindex>
													<groupindex>1</groupindex>
												</link>
												<link>
													<linkclipref>clipitem-1328</linkclipref>
													<mediatype>audio</mediatype>
													<trackindex>2</trackindex>
													<clipindex>1</clipindex>
													<groupindex>1</groupindex>
												</link>
											</clipitem>
										</track>
										<track>
											<clipitem id="clipitem-1328">
												<masterclipid>masterclip-80</masterclipid>
												<name>71899_Person spinning a bowl with dry orange slices _By_Lester_Platt_Artlist_HD.mp4</name>
												<rate>
													<timebase>24</timebase>
													<ntsc>TRUE</ntsc>
												</rate>
												<file id="file-67"/>
												<sourcetrack>
													<mediatype>audio</mediatype>
													<trackindex>2</trackindex>
												</sourcetrack>
												<link>
													<linkclipref>clipitem-1326</linkclipref>
													<mediatype>video</mediatype>
													<trackindex>1</trackindex>
													<clipindex>1</clipindex>
												</link>
												<link>
													<linkclipref>clipitem-1327</linkclipref>
													<mediatype>audio</mediatype>
													<trackindex>1</trackindex>
													<clipindex>1</clipindex>
													<groupindex>1</groupindex>
												</link>
												<link>
													<linkclipref>clipitem-1328</linkclipref>
													<mediatype>audio</mediatype>
													<trackindex>2</trackindex>
													<clipindex>1</clipindex>
													<groupindex>1</groupindex>
												</link>
											</clipitem>
										</track>
									</audio>
								</media>
								<logginginfo>
									<description></description>
									<scene></scene>
									<shottake></shottake>
									<lognote></lognote>
									<good></good>
									<originalvideofilename></originalvideofilename>
									<originalaudiofilename></originalaudiofilename>
								</logginginfo>
								<colorinfo>
									<lut></lut>
									<lut1></lut1>
									<asc_sop></asc_sop>
									<asc_sat></asc_sat>
									<lut2></lut2>
								</colorinfo>
								<labels>
									<label2>Violet</label2>
								</labels>
							</clip>
							<clip id="masterclip-83" explodedTracks="true">
								<uuid>29df045f-0616-4a43-9cb1-1a84dd55a728</uuid>
								<masterclipid>masterclip-83</masterclipid>
								<ismasterclip>TRUE</ismasterclip>
								<duration>110</duration>
								<rate>
									<timebase>24</timebase>
									<ntsc>TRUE</ntsc>
								</rate>
								<out>84</out>
								<name>71900_Person putting a tray of chocolate with orange slices on the shelf _By_Lester_Platt_Artlist_HD.mp4</name>
								<media>
									<video>
										<track>
											<clipitem id="clipitem-1329">
												<masterclipid>masterclip-83</masterclipid>
												<name>71900_Person putting a tray of chocolate with orange slices on the shelf _By_Lester_Platt_Artlist_HD.mp4</name>
												<rate>
													<timebase>24</timebase>
													<ntsc>TRUE</ntsc>
												</rate>
												<alphatype>none</alphatype>
												<file id="file-70"/>
												<link>
													<linkclipref>clipitem-1329</linkclipref>
													<mediatype>video</mediatype>
													<trackindex>1</trackindex>
													<clipindex>1</clipindex>
												</link>
												<link>
													<linkclipref>clipitem-1330</linkclipref>
													<mediatype>audio</mediatype>
													<trackindex>1</trackindex>
													<clipindex>1</clipindex>
													<groupindex>1</groupindex>
												</link>
												<link>
													<linkclipref>clipitem-1331</linkclipref>
													<mediatype>audio</mediatype>
													<trackindex>2</trackindex>
													<clipindex>1</clipindex>
													<groupindex>1</groupindex>
												</link>
											</clipitem>
										</track>
									</video>
									<audio>
										<track>
											<clipitem id="clipitem-1330">
												<masterclipid>masterclip-83</masterclipid>
												<name>71900_Person putting a tray of chocolate with orange slices on the shelf _By_Lester_Platt_Artlist_HD.mp4</name>
												<rate>
													<timebase>24</timebase>
													<ntsc>TRUE</ntsc>
												</rate>
												<file id="file-70"/>
												<sourcetrack>
													<mediatype>audio</mediatype>
													<trackindex>1</trackindex>
												</sourcetrack>
												<link>
													<linkclipref>clipitem-1329</linkclipref>
													<mediatype>video</mediatype>
													<trackindex>1</trackindex>
													<clipindex>1</clipindex>
												</link>
												<link>
													<linkclipref>clipitem-1330</linkclipref>
													<mediatype>audio</mediatype>
													<trackindex>1</trackindex>
													<clipindex>1</clipindex>
													<groupindex>1</groupindex>
												</link>
												<link>
													<linkclipref>clipitem-1331</linkclipref>
													<mediatype>audio</mediatype>
													<trackindex>2</trackindex>
													<clipindex>1</clipindex>
													<groupindex>1</groupindex>
												</link>
											</clipitem>
										</track>
										<track>
											<clipitem id="clipitem-1331">
												<masterclipid>masterclip-83</masterclipid>
												<name>71900_Person putting a tray of chocolate with orange slices on the shelf _By_Lester_Platt_Artlist_HD.mp4</name>
												<rate>
													<timebase>24</timebase>
													<ntsc>TRUE</ntsc>
												</rate>
												<file id="file-70"/>
												<sourcetrack>
													<mediatype>audio</mediatype>
													<trackindex>2</trackindex>
												</sourcetrack>
												<link>
													<linkclipref>clipitem-1329</linkclipref>
													<mediatype>video</mediatype>
													<trackindex>1</trackindex>
													<clipindex>1</clipindex>
												</link>
												<link>
													<linkclipref>clipitem-1330</linkclipref>
													<mediatype>audio</mediatype>
													<trackindex>1</trackindex>
													<clipindex>1</clipindex>
													<groupindex>1</groupindex>
												</link>
												<link>
													<linkclipref>clipitem-1331</linkclipref>
													<mediatype>audio</mediatype>
													<trackindex>2</trackindex>
													<clipindex>1</clipindex>
													<groupindex>1</groupindex>
												</link>
											</clipitem>
										</track>
									</audio>
								</media>
								<logginginfo>
									<description></description>
									<scene></scene>
									<shottake></shottake>
									<lognote></lognote>
									<good></good>
									<originalvideofilename></originalvideofilename>
									<originalaudiofilename></originalaudiofilename>
								</logginginfo>
								<colorinfo>
									<lut></lut>
									<lut1></lut1>
									<asc_sop></asc_sop>
									<asc_sat></asc_sat>
									<lut2></lut2>
								</colorinfo>
								<labels>
								</labels>
							</clip>
						</children>
					</bin>
					<bin>
						<name>Artlist - Gourmet Desert Plate</name>
						<children>
							<clip id="masterclip-45" explodedTracks="true">
								<uuid>effc4712-b032-494d-b6c7-b36f8b65fc7f</uuid>
								<masterclipid>masterclip-45</masterclipid>
								<ismasterclip>TRUE</ismasterclip>
								<duration>192</duration>
								<rate>
									<timebase>25</timebase>
									<ntsc>FALSE</ntsc>
								</rate>
								<name>202105_Man Chef Cook Cooking_By_Hans_Peter_Schepp_Artlist_HD.mp4</name>
								<media>
									<video>
										<track>
											<clipitem id="clipitem-1332">
												<masterclipid>masterclip-45</masterclipid>
												<name>202105_Man Chef Cook Cooking_By_Hans_Peter_Schepp_Artlist_HD.mp4</name>
												<rate>
													<timebase>25</timebase>
													<ntsc>FALSE</ntsc>
												</rate>
												<alphatype>none</alphatype>
												<file id="file-35"/>
											</clipitem>
										</track>
									</video>
								</media>
								<logginginfo>
									<description></description>
									<scene></scene>
									<shottake></shottake>
									<lognote></lognote>
									<good></good>
									<originalvideofilename></originalvideofilename>
									<originalaudiofilename></originalaudiofilename>
								</logginginfo>
								<colorinfo>
									<lut></lut>
									<lut1></lut1>
									<asc_sop></asc_sop>
									<asc_sat></asc_sat>
									<lut2></lut2>
								</colorinfo>
								<labels>
									<label2>Violet</label2>
								</labels>
							</clip>
							<clip id="masterclip-46" explodedTracks="true">
								<uuid>fa4635fe-750e-43b7-8995-53c322029847</uuid>
								<masterclipid>masterclip-46</masterclipid>
								<ismasterclip>TRUE</ismasterclip>
								<duration>153</duration>
								<rate>
									<timebase>25</timebase>
									<ntsc>FALSE</ntsc>
								</rate>
								<name>202106_Man Chef Cook Cooking_By_Hans_Peter_Schepp_Artlist_HD.mp4</name>
								<media>
									<video>
										<track>
											<clipitem id="clipitem-1333">
												<masterclipid>masterclip-46</masterclipid>
												<name>202106_Man Chef Cook Cooking_By_Hans_Peter_Schepp_Artlist_HD.mp4</name>
												<rate>
													<timebase>25</timebase>
													<ntsc>FALSE</ntsc>
												</rate>
												<alphatype>none</alphatype>
												<file id="file-36"/>
											</clipitem>
										</track>
									</video>
								</media>
								<logginginfo>
									<description></description>
									<scene></scene>
									<shottake></shottake>
									<lognote></lognote>
									<good></good>
									<originalvideofilename></originalvideofilename>
									<originalaudiofilename></originalaudiofilename>
								</logginginfo>
								<colorinfo>
									<lut></lut>
									<lut1></lut1>
									<asc_sop></asc_sop>
									<asc_sat></asc_sat>
									<lut2></lut2>
								</colorinfo>
								<labels>
									<label2>Violet</label2>
								</labels>
							</clip>
							<clip id="masterclip-47" explodedTracks="true">
								<uuid>bd8c162c-d205-4548-8e46-bd89bbb0741a</uuid>
								<masterclipid>masterclip-47</masterclipid>
								<ismasterclip>TRUE</ismasterclip>
								<duration>199</duration>
								<rate>
									<timebase>25</timebase>
									<ntsc>FALSE</ntsc>
								</rate>
								<name>202107_Man Chef Cook Cooking_By_Hans_Peter_Schepp_Artlist_HD.mp4</name>
								<media>
									<video>
										<track>
											<clipitem id="clipitem-1334">
												<masterclipid>masterclip-47</masterclipid>
												<name>202107_Man Chef Cook Cooking_By_Hans_Peter_Schepp_Artlist_HD.mp4</name>
												<rate>
													<timebase>25</timebase>
													<ntsc>FALSE</ntsc>
												</rate>
												<alphatype>none</alphatype>
												<file id="file-37"/>
											</clipitem>
										</track>
									</video>
								</media>
								<logginginfo>
									<description></description>
									<scene></scene>
									<shottake></shottake>
									<lognote></lognote>
									<good></good>
									<originalvideofilename></originalvideofilename>
									<originalaudiofilename></originalaudiofilename>
								</logginginfo>
								<colorinfo>
									<lut></lut>
									<lut1></lut1>
									<asc_sop></asc_sop>
									<asc_sat></asc_sat>
									<lut2></lut2>
								</colorinfo>
								<labels>
									<label2>Violet</label2>
								</labels>
							</clip>
							<clip id="masterclip-48" explodedTracks="true">
								<uuid>53d872da-5ab2-462f-8de8-1ddf69570a09</uuid>
								<masterclipid>masterclip-48</masterclipid>
								<ismasterclip>TRUE</ismasterclip>
								<duration>234</duration>
								<rate>
									<timebase>25</timebase>
									<ntsc>FALSE</ntsc>
								</rate>
								<name>202108_Man Chef Cook Cooking_By_Hans_Peter_Schepp_Artlist_HD.mp4</name>
								<media>
									<video>
										<track>
											<clipitem id="clipitem-1335">
												<masterclipid>masterclip-48</masterclipid>
												<name>202108_Man Chef Cook Cooking_By_Hans_Peter_Schepp_Artlist_HD.mp4</name>
												<rate>
													<timebase>25</timebase>
													<ntsc>FALSE</ntsc>
												</rate>
												<alphatype>none</alphatype>
												<file id="file-38"/>
											</clipitem>
										</track>
									</video>
								</media>
								<logginginfo>
									<description></description>
									<scene></scene>
									<shottake></shottake>
									<lognote></lognote>
									<good></good>
									<originalvideofilename></originalvideofilename>
									<originalaudiofilename></originalaudiofilename>
								</logginginfo>
								<colorinfo>
									<lut></lut>
									<lut1></lut1>
									<asc_sop></asc_sop>
									<asc_sat></asc_sat>
									<lut2></lut2>
								</colorinfo>
								<labels>
									<label2>Violet</label2>
								</labels>
							</clip>
							<clip id="masterclip-49" explodedTracks="true">
								<uuid>819d06ab-4441-4e43-856c-3f0224333495</uuid>
								<masterclipid>masterclip-49</masterclipid>
								<ismasterclip>TRUE</ismasterclip>
								<duration>133</duration>
								<rate>
									<timebase>25</timebase>
									<ntsc>FALSE</ntsc>
								</rate>
								<out>86</out>
								<name>202109_0042_By_Hans_Peter_Schepp_Artlist_HD.mp4</name>
								<media>
									<video>
										<track>
											<clipitem id="clipitem-1336">
												<masterclipid>masterclip-49</masterclipid>
												<name>202109_0042_By_Hans_Peter_Schepp_Artlist_HD.mp4</name>
												<rate>
													<timebase>25</timebase>
													<ntsc>FALSE</ntsc>
												</rate>
												<alphatype>none</alphatype>
												<file id="file-39"/>
											</clipitem>
										</track>
									</video>
								</media>
								<logginginfo>
									<description></description>
									<scene></scene>
									<shottake></shottake>
									<lognote></lognote>
									<good></good>
									<originalvideofilename></originalvideofilename>
									<originalaudiofilename></originalaudiofilename>
								</logginginfo>
								<colorinfo>
									<lut></lut>
									<lut1></lut1>
									<asc_sop></asc_sop>
									<asc_sat></asc_sat>
									<lut2></lut2>
								</colorinfo>
								<labels>
								</labels>
							</clip>
							<clip id="masterclip-50" explodedTracks="true">
								<uuid>aad5c5f8-2e40-44dd-945d-34f9086c4fd5</uuid>
								<masterclipid>masterclip-50</masterclipid>
								<ismasterclip>TRUE</ismasterclip>
								<duration>129</duration>
								<rate>
									<timebase>25</timebase>
									<ntsc>FALSE</ntsc>
								</rate>
								<out>111</out>
								<name>202110_Man Chef Cook Cooking_By_Hans_Peter_Schepp_Artlist_HD.mp4</name>
								<media>
									<video>
										<track>
											<clipitem id="clipitem-1337">
												<masterclipid>masterclip-50</masterclipid>
												<name>202110_Man Chef Cook Cooking_By_Hans_Peter_Schepp_Artlist_HD.mp4</name>
												<rate>
													<timebase>25</timebase>
													<ntsc>FALSE</ntsc>
												</rate>
												<alphatype>none</alphatype>
												<file id="file-40"/>
											</clipitem>
										</track>
									</video>
								</media>
								<logginginfo>
									<description></description>
									<scene></scene>
									<shottake></shottake>
									<lognote></lognote>
									<good></good>
									<originalvideofilename></originalvideofilename>
									<originalaudiofilename></originalaudiofilename>
								</logginginfo>
								<colorinfo>
									<lut></lut>
									<lut1></lut1>
									<asc_sop></asc_sop>
									<asc_sat></asc_sat>
									<lut2></lut2>
								</colorinfo>
								<labels>
									<label2>Violet</label2>
								</labels>
							</clip>
							<clip id="masterclip-51" explodedTracks="true">
								<uuid>01cd6659-8872-49eb-92ad-489858af4a60</uuid>
								<masterclipid>masterclip-51</masterclipid>
								<ismasterclip>TRUE</ismasterclip>
								<duration>155</duration>
								<rate>
									<timebase>25</timebase>
									<ntsc>FALSE</ntsc>
								</rate>
								<name>202111_Man Chef Cook Cooking_By_Hans_Peter_Schepp_Artlist_HD.mp4</name>
								<media>
									<video>
										<track>
											<clipitem id="clipitem-1338">
												<masterclipid>masterclip-51</masterclipid>
												<name>202111_Man Chef Cook Cooking_By_Hans_Peter_Schepp_Artlist_HD.mp4</name>
												<rate>
													<timebase>25</timebase>
													<ntsc>FALSE</ntsc>
												</rate>
												<alphatype>none</alphatype>
												<file id="file-41"/>
											</clipitem>
										</track>
									</video>
								</media>
								<logginginfo>
									<description></description>
									<scene></scene>
									<shottake></shottake>
									<lognote></lognote>
									<good></good>
									<originalvideofilename></originalvideofilename>
									<originalaudiofilename></originalaudiofilename>
								</logginginfo>
								<colorinfo>
									<lut></lut>
									<lut1></lut1>
									<asc_sop></asc_sop>
									<asc_sat></asc_sat>
									<lut2></lut2>
								</colorinfo>
								<labels>
									<label2>Violet</label2>
								</labels>
							</clip>
							<clip id="masterclip-52" explodedTracks="true">
								<uuid>fba09d3a-9a3d-49c8-bc87-713d09ebb20c</uuid>
								<masterclipid>masterclip-52</masterclipid>
								<ismasterclip>TRUE</ismasterclip>
								<duration>197</duration>
								<rate>
									<timebase>25</timebase>
									<ntsc>FALSE</ntsc>
								</rate>
								<out>94</out>
								<name>202112_Man Chef Cook Cooking_By_Hans_Peter_Schepp_Artlist_HD.mp4</name>
								<media>
									<video>
										<track>
											<clipitem id="clipitem-1339">
												<masterclipid>masterclip-52</masterclipid>
												<name>202112_Man Chef Cook Cooking_By_Hans_Peter_Schepp_Artlist_HD.mp4</name>
												<rate>
													<timebase>25</timebase>
													<ntsc>FALSE</ntsc>
												</rate>
												<alphatype>none</alphatype>
												<file id="file-42"/>
											</clipitem>
										</track>
									</video>
								</media>
								<logginginfo>
									<description></description>
									<scene></scene>
									<shottake></shottake>
									<lognote></lognote>
									<good></good>
									<originalvideofilename></originalvideofilename>
									<originalaudiofilename></originalaudiofilename>
								</logginginfo>
								<colorinfo>
									<lut></lut>
									<lut1></lut1>
									<asc_sop></asc_sop>
									<asc_sat></asc_sat>
									<lut2></lut2>
								</colorinfo>
								<labels>
								</labels>
							</clip>
							<clip id="masterclip-54" explodedTracks="true">
								<uuid>0383e221-fbec-470a-b0cf-6f6d997adc3b</uuid>
								<masterclipid>masterclip-54</masterclipid>
								<ismasterclip>TRUE</ismasterclip>
								<duration>125</duration>
								<rate>
									<timebase>25</timebase>
									<ntsc>FALSE</ntsc>
								</rate>
								<out>114</out>
								<name>202113_Man Chef Cook Cooking_By_Hans_Peter_Schepp_Artlist_HD.mp4</name>
								<media>
									<video>
										<track>
											<clipitem id="clipitem-1340">
												<masterclipid>masterclip-54</masterclipid>
												<name>202113_Man Chef Cook Cooking_By_Hans_Peter_Schepp_Artlist_HD.mp4</name>
												<rate>
													<timebase>25</timebase>
													<ntsc>FALSE</ntsc>
												</rate>
												<alphatype>none</alphatype>
												<file id="file-44"/>
											</clipitem>
										</track>
									</video>
								</media>
								<logginginfo>
									<description></description>
									<scene></scene>
									<shottake></shottake>
									<lognote></lognote>
									<good></good>
									<originalvideofilename></originalvideofilename>
									<originalaudiofilename></originalaudiofilename>
								</logginginfo>
								<colorinfo>
									<lut></lut>
									<lut1></lut1>
									<asc_sop></asc_sop>
									<asc_sat></asc_sat>
									<lut2></lut2>
								</colorinfo>
								<labels>
									<label2>Violet</label2>
								</labels>
							</clip>
							<clip id="masterclip-53" explodedTracks="true">
								<uuid>2f97286b-24a2-46b9-a762-d9a320ce80e7</uuid>
								<masterclipid>masterclip-53</masterclipid>
								<ismasterclip>TRUE</ismasterclip>
								<duration>213</duration>
								<rate>
									<timebase>25</timebase>
									<ntsc>FALSE</ntsc>
								</rate>
								<in>65</in>
								<name>202114_Man Chef Cook Cooking_By_Hans_Peter_Schepp_Artlist_HD.mp4</name>
								<media>
									<video>
										<track>
											<clipitem id="clipitem-1341">
												<masterclipid>masterclip-53</masterclipid>
												<name>202114_Man Chef Cook Cooking_By_Hans_Peter_Schepp_Artlist_HD.mp4</name>
												<rate>
													<timebase>25</timebase>
													<ntsc>FALSE</ntsc>
												</rate>
												<alphatype>none</alphatype>
												<file id="file-43"/>
											</clipitem>
										</track>
									</video>
								</media>
								<logginginfo>
									<description></description>
									<scene></scene>
									<shottake></shottake>
									<lognote></lognote>
									<good></good>
									<originalvideofilename></originalvideofilename>
									<originalaudiofilename></originalaudiofilename>
								</logginginfo>
								<colorinfo>
									<lut></lut>
									<lut1></lut1>
									<asc_sop></asc_sop>
									<asc_sat></asc_sat>
									<lut2></lut2>
								</colorinfo>
								<labels>
									<label2>Violet</label2>
								</labels>
							</clip>
							<clip id="masterclip-55" explodedTracks="true">
								<uuid>2959f126-eefd-462a-834f-efe0ed5e23f0</uuid>
								<masterclipid>masterclip-55</masterclipid>
								<ismasterclip>TRUE</ismasterclip>
								<duration>169</duration>
								<rate>
									<timebase>25</timebase>
									<ntsc>FALSE</ntsc>
								</rate>
								<name>202116_Man Chef Cook Cooking_By_Hans_Peter_Schepp_Artlist_HD.mp4</name>
								<media>
									<video>
										<track>
											<clipitem id="clipitem-1342">
												<masterclipid>masterclip-55</masterclipid>
												<name>202116_Man Chef Cook Cooking_By_Hans_Peter_Schepp_Artlist_HD.mp4</name>
												<rate>
													<timebase>25</timebase>
													<ntsc>FALSE</ntsc>
												</rate>
												<alphatype>none</alphatype>
												<file id="file-45"/>
											</clipitem>
										</track>
									</video>
								</media>
								<logginginfo>
									<description></description>
									<scene></scene>
									<shottake></shottake>
									<lognote></lognote>
									<good></good>
									<originalvideofilename></originalvideofilename>
									<originalaudiofilename></originalaudiofilename>
								</logginginfo>
								<colorinfo>
									<lut></lut>
									<lut1></lut1>
									<asc_sop></asc_sop>
									<asc_sat></asc_sat>
									<lut2></lut2>
								</colorinfo>
								<labels>
									<label2>Violet</label2>
								</labels>
							</clip>
							<clip id="masterclip-56" explodedTracks="true">
								<uuid>74d915de-b08d-4dec-b689-4be0b5029319</uuid>
								<masterclipid>masterclip-56</masterclipid>
								<ismasterclip>TRUE</ismasterclip>
								<duration>139</duration>
								<rate>
									<timebase>25</timebase>
									<ntsc>FALSE</ntsc>
								</rate>
								<name>202117_Man Chef Cook Cooking_By_Hans_Peter_Schepp_Artlist_HD.mp4</name>
								<media>
									<video>
										<track>
											<clipitem id="clipitem-1343">
												<masterclipid>masterclip-56</masterclipid>
												<name>202117_Man Chef Cook Cooking_By_Hans_Peter_Schepp_Artlist_HD.mp4</name>
												<rate>
													<timebase>25</timebase>
													<ntsc>FALSE</ntsc>
												</rate>
												<alphatype>none</alphatype>
												<file id="file-46"/>
											</clipitem>
										</track>
									</video>
								</media>
								<logginginfo>
									<description></description>
									<scene></scene>
									<shottake></shottake>
									<lognote></lognote>
									<good></good>
									<originalvideofilename></originalvideofilename>
									<originalaudiofilename></originalaudiofilename>
								</logginginfo>
								<colorinfo>
									<lut></lut>
									<lut1></lut1>
									<asc_sop></asc_sop>
									<asc_sat></asc_sat>
									<lut2></lut2>
								</colorinfo>
								<labels>
									<label2>Violet</label2>
								</labels>
							</clip>
						</children>
					</bin>
					<clip id="masterclip-281" explodedTracks="true">
						<uuid>745356b8-2493-4528-b805-07647981a88d</uuid>
						<masterclipid>masterclip-281</masterclipid>
						<ismasterclip>TRUE</ismasterclip>
						<duration>1801</duration>
						<rate>
							<timebase>30</timebase>
							<ntsc>FALSE</ntsc>
						</rate>
						<name>(amauryguichon)_CXtdir0JJx4_IG.mp4</name>
						<media>
							<video>
								<track>
									<clipitem id="clipitem-1344">
										<masterclipid>masterclip-281</masterclipid>
										<name>(amauryguichon)_CXtdir0JJx4_IG.mp4</name>
										<rate>
											<timebase>30</timebase>
											<ntsc>FALSE</ntsc>
										</rate>
										<alphatype>none</alphatype>
										<pixelaspectratio>square</pixelaspectratio>
										<anamorphic>FALSE</anamorphic>
										<file id="file-245">
											<name>(amauryguichon)_CXtdir0JJx4_IG.mp4</name>
											<pathurl>file://localhost/Volumes/ATM%201/EYE%20CANDY/8%3a14%3a23/3_Raw%20Files/(amauryguichon)_CXtdir0JJx4_IG.mp4</pathurl>
											<rate>
												<timebase>30</timebase>
												<ntsc>FALSE</ntsc>
											</rate>
											<duration>1801</duration>
											<timecode>
												<rate>
													<timebase>30</timebase>
													<ntsc>FALSE</ntsc>
												</rate>
												<string>00:00:00:00</string>
												<frame>0</frame>
												<displayformat>NDF</displayformat>
											</timecode>
											<media>
												<video>
													<samplecharacteristics>
														<rate>
															<timebase>30</timebase>
															<ntsc>FALSE</ntsc>
														</rate>
														<width>720</width>
														<height>1280</height>
														<anamorphic>FALSE</anamorphic>
														<pixelaspectratio>square</pixelaspectratio>
														<fielddominance>none</fielddominance>
													</samplecharacteristics>
												</video>
												<audio>
													<samplecharacteristics>
														<depth>16</depth>
														<samplerate>44100</samplerate>
													</samplecharacteristics>
													<channelcount>2</channelcount>
												</audio>
											</media>
										</file>
										<link>
											<linkclipref>clipitem-1344</linkclipref>
											<mediatype>video</mediatype>
											<trackindex>1</trackindex>
											<clipindex>1</clipindex>
										</link>
										<link>
											<linkclipref>clipitem-1345</linkclipref>
											<mediatype>audio</mediatype>
											<trackindex>1</trackindex>
											<clipindex>1</clipindex>
											<groupindex>1</groupindex>
										</link>
										<link>
											<linkclipref>clipitem-1346</linkclipref>
											<mediatype>audio</mediatype>
											<trackindex>2</trackindex>
											<clipindex>1</clipindex>
											<groupindex>1</groupindex>
										</link>
									</clipitem>
								</track>
							</video>
							<audio>
								<track>
									<clipitem id="clipitem-1345">
										<masterclipid>masterclip-281</masterclipid>
										<name>(amauryguichon)_CXtdir0JJx4_IG.mp4</name>
										<rate>
											<timebase>30</timebase>
											<ntsc>FALSE</ntsc>
										</rate>
										<file id="file-245"/>
										<sourcetrack>
											<mediatype>audio</mediatype>
											<trackindex>1</trackindex>
										</sourcetrack>
										<link>
											<linkclipref>clipitem-1344</linkclipref>
											<mediatype>video</mediatype>
											<trackindex>1</trackindex>
											<clipindex>1</clipindex>
										</link>
										<link>
											<linkclipref>clipitem-1345</linkclipref>
											<mediatype>audio</mediatype>
											<trackindex>1</trackindex>
											<clipindex>1</clipindex>
											<groupindex>1</groupindex>
										</link>
										<link>
											<linkclipref>clipitem-1346</linkclipref>
											<mediatype>audio</mediatype>
											<trackindex>2</trackindex>
											<clipindex>1</clipindex>
											<groupindex>1</groupindex>
										</link>
									</clipitem>
								</track>
								<track>
									<clipitem id="clipitem-1346">
										<masterclipid>masterclip-281</masterclipid>
										<name>(amauryguichon)_CXtdir0JJx4_IG.mp4</name>
										<rate>
											<timebase>30</timebase>
											<ntsc>FALSE</ntsc>
										</rate>
										<file id="file-245"/>
										<sourcetrack>
											<mediatype>audio</mediatype>
											<trackindex>2</trackindex>
										</sourcetrack>
										<link>
											<linkclipref>clipitem-1344</linkclipref>
											<mediatype>video</mediatype>
											<trackindex>1</trackindex>
											<clipindex>1</clipindex>
										</link>
										<link>
											<linkclipref>clipitem-1345</linkclipref>
											<mediatype>audio</mediatype>
											<trackindex>1</trackindex>
											<clipindex>1</clipindex>
											<groupindex>1</groupindex>
										</link>
										<link>
											<linkclipref>clipitem-1346</linkclipref>
											<mediatype>audio</mediatype>
											<trackindex>2</trackindex>
											<clipindex>1</clipindex>
											<groupindex>1</groupindex>
										</link>
									</clipitem>
								</track>
							</audio>
						</media>
						<logginginfo>
							<description></description>
							<scene></scene>
							<shottake></shottake>
							<lognote></lognote>
							<good></good>
							<originalvideofilename></originalvideofilename>
							<originalaudiofilename></originalaudiofilename>
						</logginginfo>
						<colorinfo>
							<lut></lut>
							<lut1></lut1>
							<asc_sop></asc_sop>
							<asc_sat></asc_sat>
							<lut2></lut2>
						</colorinfo>
						<labels>
						</labels>
					</clip>
					<bin>
						<name>oreo</name>
						<children>
							<clip id="masterclip-60" explodedTracks="true">
								<uuid>7dea9a2a-4a3e-4ca3-b4ad-70f54b640e0a</uuid>
								<masterclipid>masterclip-60</masterclipid>
								<ismasterclip>TRUE</ismasterclip>
								<duration>1060</duration>
								<rate>
									<timebase>30</timebase>
									<ntsc>FALSE</ntsc>
								</rate>
								<in>83</in>
								<out>737</out>
								<name>(Charlie Smark)_Making Issy’s fav drink on the menu! #dollysdesserts_2goCLkwSPH4_YT.mp4</name>
								<media>
									<video>
										<track>
											<clipitem id="clipitem-1347">
												<masterclipid>masterclip-60</masterclipid>
												<name>(Charlie Smark)_Making Issy’s fav drink on the menu! #dollysdesserts_2goCLkwSPH4_YT.mp4</name>
												<rate>
													<timebase>30</timebase>
													<ntsc>FALSE</ntsc>
												</rate>
												<alphatype>none</alphatype>
												<file id="file-49"/>
												<link>
													<linkclipref>clipitem-1347</linkclipref>
													<mediatype>video</mediatype>
													<trackindex>1</trackindex>
													<clipindex>1</clipindex>
												</link>
												<link>
													<linkclipref>clipitem-1348</linkclipref>
													<mediatype>audio</mediatype>
													<trackindex>1</trackindex>
													<clipindex>1</clipindex>
													<groupindex>1</groupindex>
												</link>
												<link>
													<linkclipref>clipitem-1349</linkclipref>
													<mediatype>audio</mediatype>
													<trackindex>2</trackindex>
													<clipindex>1</clipindex>
													<groupindex>1</groupindex>
												</link>
											</clipitem>
										</track>
									</video>
									<audio>
										<track>
											<clipitem id="clipitem-1348">
												<masterclipid>masterclip-60</masterclipid>
												<name>(Charlie Smark)_Making Issy’s fav drink on the menu! #dollysdesserts_2goCLkwSPH4_YT.mp4</name>
												<rate>
													<timebase>30</timebase>
													<ntsc>FALSE</ntsc>
												</rate>
												<file id="file-49"/>
												<sourcetrack>
													<mediatype>audio</mediatype>
													<trackindex>1</trackindex>
												</sourcetrack>
												<link>
													<linkclipref>clipitem-1347</linkclipref>
													<mediatype>video</mediatype>
													<trackindex>1</trackindex>
													<clipindex>1</clipindex>
												</link>
												<link>
													<linkclipref>clipitem-1348</linkclipref>
													<mediatype>audio</mediatype>
													<trackindex>1</trackindex>
													<clipindex>1</clipindex>
													<groupindex>1</groupindex>
												</link>
												<link>
													<linkclipref>clipitem-1349</linkclipref>
													<mediatype>audio</mediatype>
													<trackindex>2</trackindex>
													<clipindex>1</clipindex>
													<groupindex>1</groupindex>
												</link>
											</clipitem>
										</track>
										<track>
											<clipitem id="clipitem-1349">
												<masterclipid>masterclip-60</masterclipid>
												<name>(Charlie Smark)_Making Issy’s fav drink on the menu! #dollysdesserts_2goCLkwSPH4_YT.mp4</name>
												<rate>
													<timebase>30</timebase>
													<ntsc>FALSE</ntsc>
												</rate>
												<file id="file-49"/>
												<sourcetrack>
													<mediatype>audio</mediatype>
													<trackindex>2</trackindex>
												</sourcetrack>
												<link>
													<linkclipref>clipitem-1347</linkclipref>
													<mediatype>video</mediatype>
													<trackindex>1</trackindex>
													<clipindex>1</clipindex>
												</link>
												<link>
													<linkclipref>clipitem-1348</linkclipref>
													<mediatype>audio</mediatype>
													<trackindex>1</trackindex>
													<clipindex>1</clipindex>
													<groupindex>1</groupindex>
												</link>
												<link>
													<linkclipref>clipitem-1349</linkclipref>
													<mediatype>audio</mediatype>
													<trackindex>2</trackindex>
													<clipindex>1</clipindex>
													<groupindex>1</groupindex>
												</link>
											</clipitem>
										</track>
									</audio>
								</media>
								<logginginfo>
									<description></description>
									<scene></scene>
									<shottake></shottake>
									<lognote></lognote>
									<good></good>
									<originalvideofilename></originalvideofilename>
									<originalaudiofilename></originalaudiofilename>
								</logginginfo>
								<colorinfo>
									<lut></lut>
									<lut1></lut1>
									<asc_sop></asc_sop>
									<asc_sat></asc_sat>
									<lut2></lut2>
								</colorinfo>
								<labels>
									<label2>Violet</label2>
								</labels>
							</clip>
							<clip id="masterclip-59" explodedTracks="true">
								<uuid>bccc8096-0bfb-4c81-9b97-16bf7550105a</uuid>
								<masterclipid>masterclip-59</masterclipid>
								<ismasterclip>TRUE</ismasterclip>
								<duration>600</duration>
								<rate>
									<timebase>30</timebase>
									<ntsc>FALSE</ntsc>
								</rate>
								<out>533</out>
								<name>(allyoucansweet)_6835030356605897990_TT.mp4</name>
								<media>
									<video>
										<track>
											<clipitem id="clipitem-1350">
												<masterclipid>masterclip-59</masterclipid>
												<name>(allyoucansweet)_6835030356605897990_TT.mp4</name>
												<rate>
													<timebase>30</timebase>
													<ntsc>FALSE</ntsc>
												</rate>
												<alphatype>none</alphatype>
												<file id="file-48"/>
												<link>
													<linkclipref>clipitem-1350</linkclipref>
													<mediatype>video</mediatype>
													<trackindex>1</trackindex>
													<clipindex>1</clipindex>
												</link>
												<link>
													<linkclipref>clipitem-1351</linkclipref>
													<mediatype>audio</mediatype>
													<trackindex>1</trackindex>
													<clipindex>1</clipindex>
													<groupindex>1</groupindex>
												</link>
												<link>
													<linkclipref>clipitem-1352</linkclipref>
													<mediatype>audio</mediatype>
													<trackindex>2</trackindex>
													<clipindex>1</clipindex>
													<groupindex>1</groupindex>
												</link>
											</clipitem>
										</track>
									</video>
									<audio>
										<track>
											<clipitem id="clipitem-1351">
												<masterclipid>masterclip-59</masterclipid>
												<name>(allyoucansweet)_6835030356605897990_TT.mp4</name>
												<rate>
													<timebase>30</timebase>
													<ntsc>FALSE</ntsc>
												</rate>
												<file id="file-48"/>
												<sourcetrack>
													<mediatype>audio</mediatype>
													<trackindex>1</trackindex>
												</sourcetrack>
												<link>
													<linkclipref>clipitem-1350</linkclipref>
													<mediatype>video</mediatype>
													<trackindex>1</trackindex>
													<clipindex>1</clipindex>
												</link>
												<link>
													<linkclipref>clipitem-1351</linkclipref>
													<mediatype>audio</mediatype>
													<trackindex>1</trackindex>
													<clipindex>1</clipindex>
													<groupindex>1</groupindex>
												</link>
												<link>
													<linkclipref>clipitem-1352</linkclipref>
													<mediatype>audio</mediatype>
													<trackindex>2</trackindex>
													<clipindex>1</clipindex>
													<groupindex>1</groupindex>
												</link>
											</clipitem>
										</track>
										<track>
											<clipitem id="clipitem-1352">
												<masterclipid>masterclip-59</masterclipid>
												<name>(allyoucansweet)_6835030356605897990_TT.mp4</name>
												<rate>
													<timebase>30</timebase>
													<ntsc>FALSE</ntsc>
												</rate>
												<file id="file-48"/>
												<sourcetrack>
													<mediatype>audio</mediatype>
													<trackindex>2</trackindex>
												</sourcetrack>
												<link>
													<linkclipref>clipitem-1350</linkclipref>
													<mediatype>video</mediatype>
													<trackindex>1</trackindex>
													<clipindex>1</clipindex>
												</link>
												<link>
													<linkclipref>clipitem-1351</linkclipref>
													<mediatype>audio</mediatype>
													<trackindex>1</trackindex>
													<clipindex>1</clipindex>
													<groupindex>1</groupindex>
												</link>
												<link>
													<linkclipref>clipitem-1352</linkclipref>
													<mediatype>audio</mediatype>
													<trackindex>2</trackindex>
													<clipindex>1</clipindex>
													<groupindex>1</groupindex>
												</link>
											</clipitem>
										</track>
									</audio>
								</media>
								<logginginfo>
									<description></description>
									<scene></scene>
									<shottake></shottake>
									<lognote></lognote>
									<good></good>
									<originalvideofilename></originalvideofilename>
									<originalaudiofilename></originalaudiofilename>
								</logginginfo>
								<colorinfo>
									<lut></lut>
									<lut1></lut1>
									<asc_sop></asc_sop>
									<asc_sat></asc_sat>
									<lut2></lut2>
								</colorinfo>
								<labels>
									<label2>Violet</label2>
								</labels>
							</clip>
							<clip id="masterclip-61" explodedTracks="true">
								<uuid>18a029ee-f3eb-4aaa-a993-10dbf8ffc5db</uuid>
								<masterclipid>masterclip-61</masterclipid>
								<ismasterclip>TRUE</ismasterclip>
								<duration>901</duration>
								<rate>
									<timebase>30</timebase>
									<ntsc>FALSE</ntsc>
								</rate>
								<in>69</in>
								<name>(candidtreatofficial)_COb7dUOgnBc_IG.mp4</name>
								<media>
									<video>
										<track>
											<clipitem id="clipitem-1353">
												<masterclipid>masterclip-61</masterclipid>
												<name>(candidtreatofficial)_COb7dUOgnBc_IG.mp4</name>
												<rate>
													<timebase>30</timebase>
													<ntsc>FALSE</ntsc>
												</rate>
												<alphatype>none</alphatype>
												<file id="file-50"/>
												<link>
													<linkclipref>clipitem-1353</linkclipref>
													<mediatype>video</mediatype>
													<trackindex>1</trackindex>
													<clipindex>1</clipindex>
												</link>
												<link>
													<linkclipref>clipitem-1354</linkclipref>
													<mediatype>audio</mediatype>
													<trackindex>1</trackindex>
													<clipindex>1</clipindex>
													<groupindex>1</groupindex>
												</link>
												<link>
													<linkclipref>clipitem-1355</linkclipref>
													<mediatype>audio</mediatype>
													<trackindex>2</trackindex>
													<clipindex>1</clipindex>
													<groupindex>1</groupindex>
												</link>
											</clipitem>
										</track>
									</video>
									<audio>
										<track>
											<clipitem id="clipitem-1354">
												<masterclipid>masterclip-61</masterclipid>
												<name>(candidtreatofficial)_COb7dUOgnBc_IG.mp4</name>
												<rate>
													<timebase>30</timebase>
													<ntsc>FALSE</ntsc>
												</rate>
												<file id="file-50"/>
												<sourcetrack>
													<mediatype>audio</mediatype>
													<trackindex>1</trackindex>
												</sourcetrack>
												<link>
													<linkclipref>clipitem-1353</linkclipref>
													<mediatype>video</mediatype>
													<trackindex>1</trackindex>
													<clipindex>1</clipindex>
												</link>
												<link>
													<linkclipref>clipitem-1354</linkclipref>
													<mediatype>audio</mediatype>
													<trackindex>1</trackindex>
													<clipindex>1</clipindex>
													<groupindex>1</groupindex>
												</link>
												<link>
													<linkclipref>clipitem-1355</linkclipref>
													<mediatype>audio</mediatype>
													<trackindex>2</trackindex>
													<clipindex>1</clipindex>
													<groupindex>1</groupindex>
												</link>
											</clipitem>
										</track>
										<track>
											<clipitem id="clipitem-1355">
												<masterclipid>masterclip-61</masterclipid>
												<name>(candidtreatofficial)_COb7dUOgnBc_IG.mp4</name>
												<rate>
													<timebase>30</timebase>
													<ntsc>FALSE</ntsc>
												</rate>
												<file id="file-50"/>
												<sourcetrack>
													<mediatype>audio</mediatype>
													<trackindex>2</trackindex>
												</sourcetrack>
												<link>
													<linkclipref>clipitem-1353</linkclipref>
													<mediatype>video</mediatype>
													<trackindex>1</trackindex>
													<clipindex>1</clipindex>
												</link>
												<link>
													<linkclipref>clipitem-1354</linkclipref>
													<mediatype>audio</mediatype>
													<trackindex>1</trackindex>
													<clipindex>1</clipindex>
													<groupindex>1</groupindex>
												</link>
												<link>
													<linkclipref>clipitem-1355</linkclipref>
													<mediatype>audio</mediatype>
													<trackindex>2</trackindex>
													<clipindex>1</clipindex>
													<groupindex>1</groupindex>
												</link>
											</clipitem>
										</track>
									</audio>
								</media>
								<logginginfo>
									<description></description>
									<scene></scene>
									<shottake></shottake>
									<lognote></lognote>
									<good></good>
									<originalvideofilename></originalvideofilename>
									<originalaudiofilename></originalaudiofilename>
								</logginginfo>
								<colorinfo>
									<lut></lut>
									<lut1></lut1>
									<asc_sop></asc_sop>
									<asc_sat></asc_sat>
									<lut2></lut2>
								</colorinfo>
								<labels>
									<label2>Violet</label2>
								</labels>
							</clip>
							<clip id="masterclip-62" explodedTracks="true">
								<uuid>f2295f85-ca0f-475b-bcb8-1040f0b826f4</uuid>
								<masterclipid>masterclip-62</masterclipid>
								<ismasterclip>TRUE</ismasterclip>
								<duration>554</duration>
								<rate>
									<timebase>30</timebase>
									<ntsc>FALSE</ntsc>
								</rate>
								<out>554</out>
								<name>(succulentbite)_CNaNDo1FLXA_IG.mp4</name>
								<media>
									<video>
										<track>
											<clipitem id="clipitem-1356">
												<masterclipid>masterclip-62</masterclipid>
												<name>(succulentbite)_CNaNDo1FLXA_IG.mp4</name>
												<rate>
													<timebase>30</timebase>
													<ntsc>FALSE</ntsc>
												</rate>
												<alphatype>none</alphatype>
												<file id="file-51"/>
												<link>
													<linkclipref>clipitem-1356</linkclipref>
													<mediatype>video</mediatype>
													<trackindex>1</trackindex>
													<clipindex>1</clipindex>
												</link>
												<link>
													<linkclipref>clipitem-1357</linkclipref>
													<mediatype>audio</mediatype>
													<trackindex>1</trackindex>
													<clipindex>1</clipindex>
													<groupindex>1</groupindex>
												</link>
												<link>
													<linkclipref>clipitem-1358</linkclipref>
													<mediatype>audio</mediatype>
													<trackindex>2</trackindex>
													<clipindex>1</clipindex>
													<groupindex>1</groupindex>
												</link>
											</clipitem>
										</track>
									</video>
									<audio>
										<track>
											<clipitem id="clipitem-1357">
												<masterclipid>masterclip-62</masterclipid>
												<name>(succulentbite)_CNaNDo1FLXA_IG.mp4</name>
												<rate>
													<timebase>30</timebase>
													<ntsc>FALSE</ntsc>
												</rate>
												<file id="file-51"/>
												<sourcetrack>
													<mediatype>audio</mediatype>
													<trackindex>1</trackindex>
												</sourcetrack>
												<link>
													<linkclipref>clipitem-1356</linkclipref>
													<mediatype>video</mediatype>
													<trackindex>1</trackindex>
													<clipindex>1</clipindex>
												</link>
												<link>
													<linkclipref>clipitem-1357</linkclipref>
													<mediatype>audio</mediatype>
													<trackindex>1</trackindex>
													<clipindex>1</clipindex>
													<groupindex>1</groupindex>
												</link>
												<link>
													<linkclipref>clipitem-1358</linkclipref>
													<mediatype>audio</mediatype>
													<trackindex>2</trackindex>
													<clipindex>1</clipindex>
													<groupindex>1</groupindex>
												</link>
											</clipitem>
										</track>
										<track>
											<clipitem id="clipitem-1358">
												<masterclipid>masterclip-62</masterclipid>
												<name>(succulentbite)_CNaNDo1FLXA_IG.mp4</name>
												<rate>
													<timebase>30</timebase>
													<ntsc>FALSE</ntsc>
												</rate>
												<file id="file-51"/>
												<sourcetrack>
													<mediatype>audio</mediatype>
													<trackindex>2</trackindex>
												</sourcetrack>
												<link>
													<linkclipref>clipitem-1356</linkclipref>
													<mediatype>video</mediatype>
													<trackindex>1</trackindex>
													<clipindex>1</clipindex>
												</link>
												<link>
													<linkclipref>clipitem-1357</linkclipref>
													<mediatype>audio</mediatype>
													<trackindex>1</trackindex>
													<clipindex>1</clipindex>
													<groupindex>1</groupindex>
												</link>
												<link>
													<linkclipref>clipitem-1358</linkclipref>
													<mediatype>audio</mediatype>
													<trackindex>2</trackindex>
													<clipindex>1</clipindex>
													<groupindex>1</groupindex>
												</link>
											</clipitem>
										</track>
									</audio>
								</media>
								<logginginfo>
									<description></description>
									<scene></scene>
									<shottake></shottake>
									<lognote></lognote>
									<good></good>
									<originalvideofilename></originalvideofilename>
									<originalaudiofilename></originalaudiofilename>
								</logginginfo>
								<colorinfo>
									<lut></lut>
									<lut1></lut1>
									<asc_sop></asc_sop>
									<asc_sat></asc_sat>
									<lut2></lut2>
								</colorinfo>
								<labels>
									<label2>Violet</label2>
								</labels>
							</clip>
							<clip id="masterclip-64" explodedTracks="true">
								<uuid>49078a17-6c73-429c-aff7-dd032902db1d</uuid>
								<masterclipid>masterclip-64</masterclipid>
								<ismasterclip>TRUE</ismasterclip>
								<duration>688</duration>
								<rate>
									<timebase>30</timebase>
									<ntsc>FALSE</ntsc>
								</rate>
								<in>80</in>
								<name>(sugarandsparrowco)_Cn7PlHyJ1CR_IG.mp4</name>
								<media>
									<video>
										<track>
											<clipitem id="clipitem-1359">
												<masterclipid>masterclip-64</masterclipid>
												<name>(sugarandsparrowco)_Cn7PlHyJ1CR_IG.mp4</name>
												<rate>
													<timebase>30</timebase>
													<ntsc>FALSE</ntsc>
												</rate>
												<alphatype>none</alphatype>
												<file id="file-53"/>
												<link>
													<linkclipref>clipitem-1359</linkclipref>
													<mediatype>video</mediatype>
													<trackindex>1</trackindex>
													<clipindex>1</clipindex>
												</link>
												<link>
													<linkclipref>clipitem-1360</linkclipref>
													<mediatype>audio</mediatype>
													<trackindex>1</trackindex>
													<clipindex>1</clipindex>
													<groupindex>1</groupindex>
												</link>
												<link>
													<linkclipref>clipitem-1361</linkclipref>
													<mediatype>audio</mediatype>
													<trackindex>2</trackindex>
													<clipindex>1</clipindex>
													<groupindex>1</groupindex>
												</link>
											</clipitem>
										</track>
									</video>
									<audio>
										<track>
											<clipitem id="clipitem-1360">
												<masterclipid>masterclip-64</masterclipid>
												<name>(sugarandsparrowco)_Cn7PlHyJ1CR_IG.mp4</name>
												<rate>
													<timebase>30</timebase>
													<ntsc>FALSE</ntsc>
												</rate>
												<file id="file-53"/>
												<sourcetrack>
													<mediatype>audio</mediatype>
													<trackindex>1</trackindex>
												</sourcetrack>
												<link>
													<linkclipref>clipitem-1359</linkclipref>
													<mediatype>video</mediatype>
													<trackindex>1</trackindex>
													<clipindex>1</clipindex>
												</link>
												<link>
													<linkclipref>clipitem-1360</linkclipref>
													<mediatype>audio</mediatype>
													<trackindex>1</trackindex>
													<clipindex>1</clipindex>
													<groupindex>1</groupindex>
												</link>
												<link>
													<linkclipref>clipitem-1361</linkclipref>
													<mediatype>audio</mediatype>
													<trackindex>2</trackindex>
													<clipindex>1</clipindex>
													<groupindex>1</groupindex>
												</link>
											</clipitem>
										</track>
										<track>
											<clipitem id="clipitem-1361">
												<masterclipid>masterclip-64</masterclipid>
												<name>(sugarandsparrowco)_Cn7PlHyJ1CR_IG.mp4</name>
												<rate>
													<timebase>30</timebase>
													<ntsc>FALSE</ntsc>
												</rate>
												<file id="file-53"/>
												<sourcetrack>
													<mediatype>audio</mediatype>
													<trackindex>2</trackindex>
												</sourcetrack>
												<link>
													<linkclipref>clipitem-1359</linkclipref>
													<mediatype>video</mediatype>
													<trackindex>1</trackindex>
													<clipindex>1</clipindex>
												</link>
												<link>
													<linkclipref>clipitem-1360</linkclipref>
													<mediatype>audio</mediatype>
													<trackindex>1</trackindex>
													<clipindex>1</clipindex>
													<groupindex>1</groupindex>
												</link>
												<link>
													<linkclipref>clipitem-1361</linkclipref>
													<mediatype>audio</mediatype>
													<trackindex>2</trackindex>
													<clipindex>1</clipindex>
													<groupindex>1</groupindex>
												</link>
											</clipitem>
										</track>
									</audio>
								</media>
								<logginginfo>
									<description></description>
									<scene></scene>
									<shottake></shottake>
									<lognote></lognote>
									<good></good>
									<originalvideofilename></originalvideofilename>
									<originalaudiofilename></originalaudiofilename>
								</logginginfo>
								<colorinfo>
									<lut></lut>
									<lut1></lut1>
									<asc_sop></asc_sop>
									<asc_sat></asc_sat>
									<lut2></lut2>
								</colorinfo>
								<labels>
									<label2>Violet</label2>
								</labels>
							</clip>
							<clip id="masterclip-63" explodedTracks="true">
								<uuid>c374cb6a-ee9d-40c3-b19d-b86f2e877cb5</uuid>
								<masterclipid>masterclip-63</masterclipid>
								<ismasterclip>TRUE</ismasterclip>
								<duration>692</duration>
								<rate>
									<timebase>30</timebase>
									<ntsc>FALSE</ntsc>
								</rate>
								<in>111</in>
								<name>(tastyselly)_CU5sN0-AGmu_IG.mp4</name>
								<media>
									<video>
										<track>
											<clipitem id="clipitem-1362">
												<masterclipid>masterclip-63</masterclipid>
												<name>(tastyselly)_CU5sN0-AGmu_IG.mp4</name>
												<rate>
													<timebase>30</timebase>
													<ntsc>FALSE</ntsc>
												</rate>
												<alphatype>none</alphatype>
												<file id="file-52"/>
												<link>
													<linkclipref>clipitem-1362</linkclipref>
													<mediatype>video</mediatype>
													<trackindex>1</trackindex>
													<clipindex>1</clipindex>
												</link>
												<link>
													<linkclipref>clipitem-1363</linkclipref>
													<mediatype>audio</mediatype>
													<trackindex>1</trackindex>
													<clipindex>1</clipindex>
													<groupindex>1</groupindex>
												</link>
												<link>
													<linkclipref>clipitem-1364</linkclipref>
													<mediatype>audio</mediatype>
													<trackindex>2</trackindex>
													<clipindex>1</clipindex>
													<groupindex>1</groupindex>
												</link>
											</clipitem>
										</track>
									</video>
									<audio>
										<track>
											<clipitem id="clipitem-1363">
												<masterclipid>masterclip-63</masterclipid>
												<name>(tastyselly)_CU5sN0-AGmu_IG.mp4</name>
												<rate>
													<timebase>30</timebase>
													<ntsc>FALSE</ntsc>
												</rate>
												<file id="file-52"/>
												<sourcetrack>
													<mediatype>audio</mediatype>
													<trackindex>1</trackindex>
												</sourcetrack>
												<link>
													<linkclipref>clipitem-1362</linkclipref>
													<mediatype>video</mediatype>
													<trackindex>1</trackindex>
													<clipindex>1</clipindex>
												</link>
												<link>
													<linkclipref>clipitem-1363</linkclipref>
													<mediatype>audio</mediatype>
													<trackindex>1</trackindex>
													<clipindex>1</clipindex>
													<groupindex>1</groupindex>
												</link>
												<link>
													<linkclipref>clipitem-1364</linkclipref>
													<mediatype>audio</mediatype>
													<trackindex>2</trackindex>
													<clipindex>1</clipindex>
													<groupindex>1</groupindex>
												</link>
											</clipitem>
										</track>
										<track>
											<clipitem id="clipitem-1364">
												<masterclipid>masterclip-63</masterclipid>
												<name>(tastyselly)_CU5sN0-AGmu_IG.mp4</name>
												<rate>
													<timebase>30</timebase>
													<ntsc>FALSE</ntsc>
												</rate>
												<file id="file-52"/>
												<sourcetrack>
													<mediatype>audio</mediatype>
													<trackindex>2</trackindex>
												</sourcetrack>
												<link>
													<linkclipref>clipitem-1362</linkclipref>
													<mediatype>video</mediatype>
													<trackindex>1</trackindex>
													<clipindex>1</clipindex>
												</link>
												<link>
													<linkclipref>clipitem-1363</linkclipref>
													<mediatype>audio</mediatype>
													<trackindex>1</trackindex>
													<clipindex>1</clipindex>
													<groupindex>1</groupindex>
												</link>
												<link>
													<linkclipref>clipitem-1364</linkclipref>
													<mediatype>audio</mediatype>
													<trackindex>2</trackindex>
													<clipindex>1</clipindex>
													<groupindex>1</groupindex>
												</link>
											</clipitem>
										</track>
									</audio>
								</media>
								<logginginfo>
									<description></description>
									<scene></scene>
									<shottake></shottake>
									<lognote></lognote>
									<good></good>
									<originalvideofilename></originalvideofilename>
									<originalaudiofilename></originalaudiofilename>
								</logginginfo>
								<colorinfo>
									<lut></lut>
									<lut1></lut1>
									<asc_sop></asc_sop>
									<asc_sat></asc_sat>
									<lut2></lut2>
								</colorinfo>
								<labels>
									<label2>Violet</label2>
								</labels>
							</clip>
						</children>
					</bin>
					<bin>
						<name>cottagecore</name>
						<children>
							<clip id="masterclip-182" explodedTracks="true">
								<uuid>bd1e4e03-d8ef-4059-a8b6-fe35b74097a8</uuid>
								<masterclipid>masterclip-182</masterclipid>
								<ismasterclip>TRUE</ismasterclip>
								<duration>454</duration>
								<rate>
									<timebase>29</timebase>
									<ntsc>FALSE</ntsc>
								</rate>
								<name>(Sugar and Sparrow)_Extra tall strawberry shortcake layer cake + piped whipped cream frosting _ #cakedecorating #cake__5vEbgMdPBc_YT.mp4</name>
								<media>
									<video>
										<track>
											<clipitem id="clipitem-1365">
												<masterclipid>masterclip-182</masterclipid>
												<name>(Sugar and Sparrow)_Extra tall strawberry shortcake layer cake + piped whipped cream frosting _ #cakedecorating #cake__5vEbgMdPBc_YT.mp4</name>
												<rate>
													<timebase>29</timebase>
													<ntsc>FALSE</ntsc>
												</rate>
												<alphatype>none</alphatype>
												<file id="file-157"/>
												<link>
													<linkclipref>clipitem-1365</linkclipref>
													<mediatype>video</mediatype>
													<trackindex>1</trackindex>
													<clipindex>1</clipindex>
												</link>
												<link>
													<linkclipref>clipitem-1366</linkclipref>
													<mediatype>audio</mediatype>
													<trackindex>1</trackindex>
													<clipindex>1</clipindex>
													<groupindex>1</groupindex>
												</link>
												<link>
													<linkclipref>clipitem-1367</linkclipref>
													<mediatype>audio</mediatype>
													<trackindex>2</trackindex>
													<clipindex>1</clipindex>
													<groupindex>1</groupindex>
												</link>
											</clipitem>
										</track>
									</video>
									<audio>
										<track>
											<clipitem id="clipitem-1366">
												<masterclipid>masterclip-182</masterclipid>
												<name>(Sugar and Sparrow)_Extra tall strawberry shortcake layer cake + piped whipped cream frosting _ #cakedecorating #cake__5vEbgMdPBc_YT.mp4</name>
												<rate>
													<timebase>29</timebase>
													<ntsc>FALSE</ntsc>
												</rate>
												<file id="file-157"/>
												<sourcetrack>
													<mediatype>audio</mediatype>
													<trackindex>1</trackindex>
												</sourcetrack>
												<link>
													<linkclipref>clipitem-1365</linkclipref>
													<mediatype>video</mediatype>
													<trackindex>1</trackindex>
													<clipindex>1</clipindex>
												</link>
												<link>
													<linkclipref>clipitem-1366</linkclipref>
													<mediatype>audio</mediatype>
													<trackindex>1</trackindex>
													<clipindex>1</clipindex>
													<groupindex>1</groupindex>
												</link>
												<link>
													<linkclipref>clipitem-1367</linkclipref>
													<mediatype>audio</mediatype>
													<trackindex>2</trackindex>
													<clipindex>1</clipindex>
													<groupindex>1</groupindex>
												</link>
											</clipitem>
										</track>
										<track>
											<clipitem id="clipitem-1367">
												<masterclipid>masterclip-182</masterclipid>
												<name>(Sugar and Sparrow)_Extra tall strawberry shortcake layer cake + piped whipped cream frosting _ #cakedecorating #cake__5vEbgMdPBc_YT.mp4</name>
												<rate>
													<timebase>29</timebase>
													<ntsc>FALSE</ntsc>
												</rate>
												<file id="file-157"/>
												<sourcetrack>
													<mediatype>audio</mediatype>
													<trackindex>2</trackindex>
												</sourcetrack>
												<link>
													<linkclipref>clipitem-1365</linkclipref>
													<mediatype>video</mediatype>
													<trackindex>1</trackindex>
													<clipindex>1</clipindex>
												</link>
												<link>
													<linkclipref>clipitem-1366</linkclipref>
													<mediatype>audio</mediatype>
													<trackindex>1</trackindex>
													<clipindex>1</clipindex>
													<groupindex>1</groupindex>
												</link>
												<link>
													<linkclipref>clipitem-1367</linkclipref>
													<mediatype>audio</mediatype>
													<trackindex>2</trackindex>
													<clipindex>1</clipindex>
													<groupindex>1</groupindex>
												</link>
											</clipitem>
										</track>
									</audio>
								</media>
								<logginginfo>
									<description></description>
									<scene></scene>
									<shottake></shottake>
									<lognote></lognote>
									<good></good>
									<originalvideofilename></originalvideofilename>
									<originalaudiofilename></originalaudiofilename>
								</logginginfo>
								<colorinfo>
									<lut></lut>
									<lut1></lut1>
									<asc_sop></asc_sop>
									<asc_sat></asc_sat>
									<lut2></lut2>
								</colorinfo>
								<labels>
									<label2>Violet</label2>
								</labels>
							</clip>
							<clip id="masterclip-181" explodedTracks="true">
								<uuid>5f04758a-5073-4800-9b1d-2ce0029e4173</uuid>
								<masterclipid>masterclip-181</masterclipid>
								<ismasterclip>TRUE</ismasterclip>
								<duration>523</duration>
								<rate>
									<timebase>30</timebase>
									<ntsc>FALSE</ntsc>
								</rate>
								<name>(allthesugartx)_CbKp32Ul4Zg_IG.mp4</name>
								<media>
									<video>
										<track>
											<clipitem id="clipitem-1368">
												<masterclipid>masterclip-181</masterclipid>
												<name>(allthesugartx)_CbKp32Ul4Zg_IG.mp4</name>
												<rate>
													<timebase>30</timebase>
													<ntsc>FALSE</ntsc>
												</rate>
												<alphatype>none</alphatype>
												<file id="file-156"/>
												<link>
													<linkclipref>clipitem-1368</linkclipref>
													<mediatype>video</mediatype>
													<trackindex>1</trackindex>
													<clipindex>1</clipindex>
												</link>
												<link>
													<linkclipref>clipitem-1369</linkclipref>
													<mediatype>audio</mediatype>
													<trackindex>1</trackindex>
													<clipindex>1</clipindex>
													<groupindex>1</groupindex>
												</link>
												<link>
													<linkclipref>clipitem-1370</linkclipref>
													<mediatype>audio</mediatype>
													<trackindex>2</trackindex>
													<clipindex>1</clipindex>
													<groupindex>1</groupindex>
												</link>
											</clipitem>
										</track>
									</video>
									<audio>
										<track>
											<clipitem id="clipitem-1369">
												<masterclipid>masterclip-181</masterclipid>
												<name>(allthesugartx)_CbKp32Ul4Zg_IG.mp4</name>
												<rate>
													<timebase>30</timebase>
													<ntsc>FALSE</ntsc>
												</rate>
												<file id="file-156"/>
												<sourcetrack>
													<mediatype>audio</mediatype>
													<trackindex>1</trackindex>
												</sourcetrack>
												<link>
													<linkclipref>clipitem-1368</linkclipref>
													<mediatype>video</mediatype>
													<trackindex>1</trackindex>
													<clipindex>1</clipindex>
												</link>
												<link>
													<linkclipref>clipitem-1369</linkclipref>
													<mediatype>audio</mediatype>
													<trackindex>1</trackindex>
													<clipindex>1</clipindex>
													<groupindex>1</groupindex>
												</link>
												<link>
													<linkclipref>clipitem-1370</linkclipref>
													<mediatype>audio</mediatype>
													<trackindex>2</trackindex>
													<clipindex>1</clipindex>
													<groupindex>1</groupindex>
												</link>
											</clipitem>
										</track>
										<track>
											<clipitem id="clipitem-1370">
												<masterclipid>masterclip-181</masterclipid>
												<name>(allthesugartx)_CbKp32Ul4Zg_IG.mp4</name>
												<rate>
													<timebase>30</timebase>
													<ntsc>FALSE</ntsc>
												</rate>
												<file id="file-156"/>
												<sourcetrack>
													<mediatype>audio</mediatype>
													<trackindex>2</trackindex>
												</sourcetrack>
												<link>
													<linkclipref>clipitem-1368</linkclipref>
													<mediatype>video</mediatype>
													<trackindex>1</trackindex>
													<clipindex>1</clipindex>
												</link>
												<link>
													<linkclipref>clipitem-1369</linkclipref>
													<mediatype>audio</mediatype>
													<trackindex>1</trackindex>
													<clipindex>1</clipindex>
													<groupindex>1</groupindex>
												</link>
												<link>
													<linkclipref>clipitem-1370</linkclipref>
													<mediatype>audio</mediatype>
													<trackindex>2</trackindex>
													<clipindex>1</clipindex>
													<groupindex>1</groupindex>
												</link>
											</clipitem>
										</track>
									</audio>
								</media>
								<logginginfo>
									<description></description>
									<scene></scene>
									<shottake></shottake>
									<lognote></lognote>
									<good></good>
									<originalvideofilename></originalvideofilename>
									<originalaudiofilename></originalaudiofilename>
								</logginginfo>
								<colorinfo>
									<lut></lut>
									<lut1></lut1>
									<asc_sop></asc_sop>
									<asc_sat></asc_sat>
									<lut2></lut2>
								</colorinfo>
								<labels>
									<label2>Violet</label2>
								</labels>
							</clip>
							<clip id="masterclip-282" explodedTracks="true">
								<uuid>b8e7ca94-8a61-4b5e-8b8c-610485d6c862</uuid>
								<masterclipid>masterclip-282</masterclipid>
								<ismasterclip>TRUE</ismasterclip>
								<duration>901</duration>
								<rate>
									<timebase>30</timebase>
									<ntsc>FALSE</ntsc>
								</rate>
								<in>765</in>
								<out>842</out>
								<name>(amauryguichon)_CUVEdjkpGE4_IG.mp4</name>
								<media>
									<video>
										<track>
											<clipitem id="clipitem-1371">
												<masterclipid>masterclip-282</masterclipid>
												<name>(amauryguichon)_CUVEdjkpGE4_IG.mp4</name>
												<rate>
													<timebase>30</timebase>
													<ntsc>FALSE</ntsc>
												</rate>
												<alphatype>none</alphatype>
												<pixelaspectratio>square</pixelaspectratio>
												<anamorphic>FALSE</anamorphic>
												<file id="file-246">
													<name>(amauryguichon)_CUVEdjkpGE4_IG.mp4</name>
													<pathurl>file://localhost/Volumes/ATM%201/EYE%20CANDY/8%3a14%3a23/3_Raw%20Files/cottagecore/(amauryguichon)_CUVEdjkpGE4_IG.mp4</pathurl>
													<rate>
														<timebase>30</timebase>
														<ntsc>FALSE</ntsc>
													</rate>
													<duration>901</duration>
													<timecode>
														<rate>
															<timebase>30</timebase>
															<ntsc>FALSE</ntsc>
														</rate>
														<string>00:00:00:00</string>
														<frame>0</frame>
														<displayformat>NDF</displayformat>
													</timecode>
													<media>
														<video>
															<samplecharacteristics>
																<rate>
																	<timebase>30</timebase>
																	<ntsc>FALSE</ntsc>
																</rate>
																<width>720</width>
																<height>1280</height>
																<anamorphic>FALSE</anamorphic>
																<pixelaspectratio>square</pixelaspectratio>
																<fielddominance>none</fielddominance>
															</samplecharacteristics>
														</video>
														<audio>
															<samplecharacteristics>
																<depth>16</depth>
																<samplerate>44100</samplerate>
															</samplecharacteristics>
															<channelcount>2</channelcount>
														</audio>
													</media>
												</file>
												<link>
													<linkclipref>clipitem-1371</linkclipref>
													<mediatype>video</mediatype>
													<trackindex>1</trackindex>
													<clipindex>1</clipindex>
												</link>
												<link>
													<linkclipref>clipitem-1372</linkclipref>
													<mediatype>audio</mediatype>
													<trackindex>1</trackindex>
													<clipindex>1</clipindex>
													<groupindex>1</groupindex>
												</link>
												<link>
													<linkclipref>clipitem-1373</linkclipref>
													<mediatype>audio</mediatype>
													<trackindex>2</trackindex>
													<clipindex>1</clipindex>
													<groupindex>1</groupindex>
												</link>
											</clipitem>
										</track>
									</video>
									<audio>
										<track>
											<clipitem id="clipitem-1372">
												<masterclipid>masterclip-282</masterclipid>
												<name>(amauryguichon)_CUVEdjkpGE4_IG.mp4</name>
												<rate>
													<timebase>30</timebase>
													<ntsc>FALSE</ntsc>
												</rate>
												<file id="file-246"/>
												<sourcetrack>
													<mediatype>audio</mediatype>
													<trackindex>1</trackindex>
												</sourcetrack>
												<link>
													<linkclipref>clipitem-1371</linkclipref>
													<mediatype>video</mediatype>
													<trackindex>1</trackindex>
													<clipindex>1</clipindex>
												</link>
												<link>
													<linkclipref>clipitem-1372</linkclipref>
													<mediatype>audio</mediatype>
													<trackindex>1</trackindex>
													<clipindex>1</clipindex>
													<groupindex>1</groupindex>
												</link>
												<link>
													<linkclipref>clipitem-1373</linkclipref>
													<mediatype>audio</mediatype>
													<trackindex>2</trackindex>
													<clipindex>1</clipindex>
													<groupindex>1</groupindex>
												</link>
											</clipitem>
										</track>
										<track>
											<clipitem id="clipitem-1373">
												<masterclipid>masterclip-282</masterclipid>
												<name>(amauryguichon)_CUVEdjkpGE4_IG.mp4</name>
												<rate>
													<timebase>30</timebase>
													<ntsc>FALSE</ntsc>
												</rate>
												<file id="file-246"/>
												<sourcetrack>
													<mediatype>audio</mediatype>
													<trackindex>2</trackindex>
												</sourcetrack>
												<link>
													<linkclipref>clipitem-1371</linkclipref>
													<mediatype>video</mediatype>
													<trackindex>1</trackindex>
													<clipindex>1</clipindex>
												</link>
												<link>
													<linkclipref>clipitem-1372</linkclipref>
													<mediatype>audio</mediatype>
													<trackindex>1</trackindex>
													<clipindex>1</clipindex>
													<groupindex>1</groupindex>
												</link>
												<link>
													<linkclipref>clipitem-1373</linkclipref>
													<mediatype>audio</mediatype>
													<trackindex>2</trackindex>
													<clipindex>1</clipindex>
													<groupindex>1</groupindex>
												</link>
											</clipitem>
										</track>
									</audio>
								</media>
								<logginginfo>
									<description></description>
									<scene></scene>
									<shottake></shottake>
									<lognote></lognote>
									<good></good>
									<originalvideofilename></originalvideofilename>
									<originalaudiofilename></originalaudiofilename>
								</logginginfo>
								<colorinfo>
									<lut></lut>
									<lut1></lut1>
									<asc_sop></asc_sop>
									<asc_sat></asc_sat>
									<lut2></lut2>
								</colorinfo>
								<labels>
								</labels>
							</clip>
							<clip id="masterclip-185" explodedTracks="true">
								<uuid>fda13621-1fb8-4ef3-b1ff-81348eb437ea</uuid>
								<masterclipid>masterclip-185</masterclipid>
								<ismasterclip>TRUE</ismasterclip>
								<duration>3356</duration>
								<rate>
									<timebase>30</timebase>
									<ntsc>FALSE</ntsc>
								</rate>
								<in>75</in>
								<out>114</out>
								<name>(charrajf)_CaNblf3jHPm_IG.mp4</name>
								<media>
									<video>
										<track>
											<clipitem id="clipitem-1374">
												<masterclipid>masterclip-185</masterclipid>
												<name>(charrajf)_CaNblf3jHPm_IG.mp4</name>
												<rate>
													<timebase>30</timebase>
													<ntsc>FALSE</ntsc>
												</rate>
												<alphatype>none</alphatype>
												<file id="file-160"/>
												<link>
													<linkclipref>clipitem-1374</linkclipref>
													<mediatype>video</mediatype>
													<trackindex>1</trackindex>
													<clipindex>1</clipindex>
												</link>
												<link>
													<linkclipref>clipitem-1375</linkclipref>
													<mediatype>audio</mediatype>
													<trackindex>1</trackindex>
													<clipindex>1</clipindex>
													<groupindex>1</groupindex>
												</link>
												<link>
													<linkclipref>clipitem-1376</linkclipref>
													<mediatype>audio</mediatype>
													<trackindex>2</trackindex>
													<clipindex>1</clipindex>
													<groupindex>1</groupindex>
												</link>
											</clipitem>
										</track>
									</video>
									<audio>
										<track>
											<clipitem id="clipitem-1375">
												<masterclipid>masterclip-185</masterclipid>
												<name>(charrajf)_CaNblf3jHPm_IG.mp4</name>
												<rate>
													<timebase>30</timebase>
													<ntsc>FALSE</ntsc>
												</rate>
												<file id="file-160"/>
												<sourcetrack>
													<mediatype>audio</mediatype>
													<trackindex>1</trackindex>
												</sourcetrack>
												<link>
													<linkclipref>clipitem-1374</linkclipref>
													<mediatype>video</mediatype>
													<trackindex>1</trackindex>
													<clipindex>1</clipindex>
												</link>
												<link>
													<linkclipref>clipitem-1375</linkclipref>
													<mediatype>audio</mediatype>
													<trackindex>1</trackindex>
													<clipindex>1</clipindex>
													<groupindex>1</groupindex>
												</link>
												<link>
													<linkclipref>clipitem-1376</linkclipref>
													<mediatype>audio</mediatype>
													<trackindex>2</trackindex>
													<clipindex>1</clipindex>
													<groupindex>1</groupindex>
												</link>
											</clipitem>
										</track>
										<track>
											<clipitem id="clipitem-1376">
												<masterclipid>masterclip-185</masterclipid>
												<name>(charrajf)_CaNblf3jHPm_IG.mp4</name>
												<rate>
													<timebase>30</timebase>
													<ntsc>FALSE</ntsc>
												</rate>
												<file id="file-160"/>
												<sourcetrack>
													<mediatype>audio</mediatype>
													<trackindex>2</trackindex>
												</sourcetrack>
												<link>
													<linkclipref>clipitem-1374</linkclipref>
													<mediatype>video</mediatype>
													<trackindex>1</trackindex>
													<clipindex>1</clipindex>
												</link>
												<link>
													<linkclipref>clipitem-1375</linkclipref>
													<mediatype>audio</mediatype>
													<trackindex>1</trackindex>
													<clipindex>1</clipindex>
													<groupindex>1</groupindex>
												</link>
												<link>
													<linkclipref>clipitem-1376</linkclipref>
													<mediatype>audio</mediatype>
													<trackindex>2</trackindex>
													<clipindex>1</clipindex>
													<groupindex>1</groupindex>
												</link>
											</clipitem>
										</track>
									</audio>
								</media>
								<logginginfo>
									<description></description>
									<scene></scene>
									<shottake></shottake>
									<lognote></lognote>
									<good></good>
									<originalvideofilename></originalvideofilename>
									<originalaudiofilename></originalaudiofilename>
								</logginginfo>
								<colorinfo>
									<lut></lut>
									<lut1></lut1>
									<asc_sop></asc_sop>
									<asc_sat></asc_sat>
									<lut2></lut2>
								</colorinfo>
								<labels>
								</labels>
							</clip>
							<clip id="masterclip-184" explodedTracks="true">
								<uuid>ba3e8a91-101b-42f6-837c-199664ae7e3d</uuid>
								<masterclipid>masterclip-184</masterclipid>
								<ismasterclip>TRUE</ismasterclip>
								<duration>750</duration>
								<rate>
									<timebase>30</timebase>
									<ntsc>FALSE</ntsc>
								</rate>
								<name>(kerrysbouqcakes)_7217936596002147590_TT.mp4</name>
								<media>
									<video>
										<track>
											<clipitem id="clipitem-1377">
												<masterclipid>masterclip-184</masterclipid>
												<name>(kerrysbouqcakes)_7217936596002147590_TT.mp4</name>
												<rate>
													<timebase>30</timebase>
													<ntsc>FALSE</ntsc>
												</rate>
												<alphatype>none</alphatype>
												<file id="file-159"/>
												<link>
													<linkclipref>clipitem-1377</linkclipref>
													<mediatype>video</mediatype>
													<trackindex>1</trackindex>
													<clipindex>1</clipindex>
												</link>
												<link>
													<linkclipref>clipitem-1378</linkclipref>
													<mediatype>audio</mediatype>
													<trackindex>1</trackindex>
													<clipindex>1</clipindex>
													<groupindex>1</groupindex>
												</link>
												<link>
													<linkclipref>clipitem-1379</linkclipref>
													<mediatype>audio</mediatype>
													<trackindex>2</trackindex>
													<clipindex>1</clipindex>
													<groupindex>1</groupindex>
												</link>
											</clipitem>
										</track>
									</video>
									<audio>
										<track>
											<clipitem id="clipitem-1378">
												<masterclipid>masterclip-184</masterclipid>
												<name>(kerrysbouqcakes)_7217936596002147590_TT.mp4</name>
												<rate>
													<timebase>30</timebase>
													<ntsc>FALSE</ntsc>
												</rate>
												<file id="file-159"/>
												<sourcetrack>
													<mediatype>audio</mediatype>
													<trackindex>1</trackindex>
												</sourcetrack>
												<link>
													<linkclipref>clipitem-1377</linkclipref>
													<mediatype>video</mediatype>
													<trackindex>1</trackindex>
													<clipindex>1</clipindex>
												</link>
												<link>
													<linkclipref>clipitem-1378</linkclipref>
													<mediatype>audio</mediatype>
													<trackindex>1</trackindex>
													<clipindex>1</clipindex>
													<groupindex>1</groupindex>
												</link>
												<link>
													<linkclipref>clipitem-1379</linkclipref>
													<mediatype>audio</mediatype>
													<trackindex>2</trackindex>
													<clipindex>1</clipindex>
													<groupindex>1</groupindex>
												</link>
											</clipitem>
										</track>
										<track>
											<clipitem id="clipitem-1379">
												<masterclipid>masterclip-184</masterclipid>
												<name>(kerrysbouqcakes)_7217936596002147590_TT.mp4</name>
												<rate>
													<timebase>30</timebase>
													<ntsc>FALSE</ntsc>
												</rate>
												<file id="file-159"/>
												<sourcetrack>
													<mediatype>audio</mediatype>
													<trackindex>2</trackindex>
												</sourcetrack>
												<link>
													<linkclipref>clipitem-1377</linkclipref>
													<mediatype>video</mediatype>
													<trackindex>1</trackindex>
													<clipindex>1</clipindex>
												</link>
												<link>
													<linkclipref>clipitem-1378</linkclipref>
													<mediatype>audio</mediatype>
													<trackindex>1</trackindex>
													<clipindex>1</clipindex>
													<groupindex>1</groupindex>
												</link>
												<link>
													<linkclipref>clipitem-1379</linkclipref>
													<mediatype>audio</mediatype>
													<trackindex>2</trackindex>
													<clipindex>1</clipindex>
													<groupindex>1</groupindex>
												</link>
											</clipitem>
										</track>
									</audio>
								</media>
								<logginginfo>
									<description></description>
									<scene></scene>
									<shottake></shottake>
									<lognote></lognote>
									<good></good>
									<originalvideofilename></originalvideofilename>
									<originalaudiofilename></originalaudiofilename>
								</logginginfo>
								<colorinfo>
									<lut></lut>
									<lut1></lut1>
									<asc_sop></asc_sop>
									<asc_sat></asc_sat>
									<lut2></lut2>
								</colorinfo>
								<labels>
									<label2>Violet</label2>
								</labels>
							</clip>
							<clip id="masterclip-183" explodedTracks="true">
								<uuid>31025580-b9e5-408d-9945-fe009387b8ef</uuid>
								<masterclipid>masterclip-183</masterclipid>
								<ismasterclip>TRUE</ismasterclip>
								<duration>368</duration>
								<rate>
									<timebase>30</timebase>
									<ntsc>FALSE</ntsc>
								</rate>
								<out>95</out>
								<name>(thesugarhobby)_CgzGgYYgVZd_IG.mp4</name>
								<media>
									<video>
										<track>
											<clipitem id="clipitem-1380">
												<masterclipid>masterclip-183</masterclipid>
												<name>(thesugarhobby)_CgzGgYYgVZd_IG.mp4</name>
												<rate>
													<timebase>30</timebase>
													<ntsc>FALSE</ntsc>
												</rate>
												<alphatype>none</alphatype>
												<file id="file-158"/>
												<link>
													<linkclipref>clipitem-1380</linkclipref>
													<mediatype>video</mediatype>
													<trackindex>1</trackindex>
													<clipindex>1</clipindex>
												</link>
												<link>
													<linkclipref>clipitem-1381</linkclipref>
													<mediatype>audio</mediatype>
													<trackindex>1</trackindex>
													<clipindex>1</clipindex>
													<groupindex>1</groupindex>
												</link>
												<link>
													<linkclipref>clipitem-1382</linkclipref>
													<mediatype>audio</mediatype>
													<trackindex>2</trackindex>
													<clipindex>1</clipindex>
													<groupindex>1</groupindex>
												</link>
											</clipitem>
										</track>
									</video>
									<audio>
										<track>
											<clipitem id="clipitem-1381">
												<masterclipid>masterclip-183</masterclipid>
												<name>(thesugarhobby)_CgzGgYYgVZd_IG.mp4</name>
												<rate>
													<timebase>30</timebase>
													<ntsc>FALSE</ntsc>
												</rate>
												<file id="file-158"/>
												<sourcetrack>
													<mediatype>audio</mediatype>
													<trackindex>1</trackindex>
												</sourcetrack>
												<link>
													<linkclipref>clipitem-1380</linkclipref>
													<mediatype>video</mediatype>
													<trackindex>1</trackindex>
													<clipindex>1</clipindex>
												</link>
												<link>
													<linkclipref>clipitem-1381</linkclipref>
													<mediatype>audio</mediatype>
													<trackindex>1</trackindex>
													<clipindex>1</clipindex>
													<groupindex>1</groupindex>
												</link>
												<link>
													<linkclipref>clipitem-1382</linkclipref>
													<mediatype>audio</mediatype>
													<trackindex>2</trackindex>
													<clipindex>1</clipindex>
													<groupindex>1</groupindex>
												</link>
											</clipitem>
										</track>
										<track>
											<clipitem id="clipitem-1382">
												<masterclipid>masterclip-183</masterclipid>
												<name>(thesugarhobby)_CgzGgYYgVZd_IG.mp4</name>
												<rate>
													<timebase>30</timebase>
													<ntsc>FALSE</ntsc>
												</rate>
												<file id="file-158"/>
												<sourcetrack>
													<mediatype>audio</mediatype>
													<trackindex>2</trackindex>
												</sourcetrack>
												<link>
													<linkclipref>clipitem-1380</linkclipref>
													<mediatype>video</mediatype>
													<trackindex>1</trackindex>
													<clipindex>1</clipindex>
												</link>
												<link>
													<linkclipref>clipitem-1381</linkclipref>
													<mediatype>audio</mediatype>
													<trackindex>1</trackindex>
													<clipindex>1</clipindex>
													<groupindex>1</groupindex>
												</link>
												<link>
													<linkclipref>clipitem-1382</linkclipref>
													<mediatype>audio</mediatype>
													<trackindex>2</trackindex>
													<clipindex>1</clipindex>
													<groupindex>1</groupindex>
												</link>
											</clipitem>
										</track>
									</audio>
								</media>
								<logginginfo>
									<description></description>
									<scene></scene>
									<shottake></shottake>
									<lognote></lognote>
									<good></good>
									<originalvideofilename></originalvideofilename>
									<originalaudiofilename></originalaudiofilename>
								</logginginfo>
								<colorinfo>
									<lut></lut>
									<lut1></lut1>
									<asc_sop></asc_sop>
									<asc_sat></asc_sat>
									<lut2></lut2>
								</colorinfo>
								<labels>
									<label2>Violet</label2>
								</labels>
							</clip>
						</children>
					</bin>
					<bin>
						<name>Bitefulls of Bliss</name>
						<children>
							<clip id="masterclip-189" explodedTracks="true">
								<uuid>8651efe1-20af-4aaa-a3ac-3de8d186eefd</uuid>
								<masterclipid>masterclip-189</masterclipid>
								<ismasterclip>TRUE</ismasterclip>
								<duration>320</duration>
								<rate>
									<timebase>30</timebase>
									<ntsc>FALSE</ntsc>
								</rate>
								<out>222</out>
								<name>(succulentbite)_Bi4SIwCAC9p_IG.mp4</name>
								<media>
									<video>
										<track>
											<clipitem id="clipitem-1383">
												<masterclipid>masterclip-189</masterclipid>
												<name>(succulentbite)_Bi4SIwCAC9p_IG.mp4</name>
												<rate>
													<timebase>30</timebase>
													<ntsc>FALSE</ntsc>
												</rate>
												<alphatype>none</alphatype>
												<file id="file-162"/>
											</clipitem>
										</track>
									</video>
								</media>
								<logginginfo>
									<description></description>
									<scene></scene>
									<shottake></shottake>
									<lognote></lognote>
									<good></good>
									<originalvideofilename></originalvideofilename>
									<originalaudiofilename></originalaudiofilename>
								</logginginfo>
								<colorinfo>
									<lut></lut>
									<lut1></lut1>
									<asc_sop></asc_sop>
									<asc_sat></asc_sat>
									<lut2></lut2>
								</colorinfo>
								<labels>
									<label2>Violet</label2>
								</labels>
							</clip>
							<clip id="masterclip-190" explodedTracks="true">
								<uuid>f92bb9c5-41a6-471d-8d3b-b03178e3c6c6</uuid>
								<masterclipid>masterclip-190</masterclipid>
								<ismasterclip>TRUE</ismasterclip>
								<duration>290</duration>
								<rate>
									<timebase>30</timebase>
									<ntsc>FALSE</ntsc>
								</rate>
								<out>193</out>
								<name>(succulentbite)_BiPzA58AX-B_IG.mp4</name>
								<media>
									<video>
										<track>
											<clipitem id="clipitem-1384">
												<masterclipid>masterclip-190</masterclipid>
												<name>(succulentbite)_BiPzA58AX-B_IG.mp4</name>
												<rate>
													<timebase>30</timebase>
													<ntsc>FALSE</ntsc>
												</rate>
												<alphatype>none</alphatype>
												<file id="file-163"/>
											</clipitem>
										</track>
									</video>
								</media>
								<logginginfo>
									<description></description>
									<scene></scene>
									<shottake></shottake>
									<lognote></lognote>
									<good></good>
									<originalvideofilename></originalvideofilename>
									<originalaudiofilename></originalaudiofilename>
								</logginginfo>
								<colorinfo>
									<lut></lut>
									<lut1></lut1>
									<asc_sop></asc_sop>
									<asc_sat></asc_sat>
									<lut2></lut2>
								</colorinfo>
								<labels>
									<label2>Violet</label2>
								</labels>
							</clip>
							<clip id="masterclip-191" explodedTracks="true">
								<uuid>dfcd628d-2732-44b6-a7eb-fadbd80ca53e</uuid>
								<masterclipid>masterclip-191</masterclipid>
								<ismasterclip>TRUE</ismasterclip>
								<duration>327</duration>
								<rate>
									<timebase>30</timebase>
									<ntsc>FALSE</ntsc>
								</rate>
								<out>235</out>
								<name>(succulentbite)_BiXqoD1ANAT_IG.mp4</name>
								<media>
									<video>
										<track>
											<clipitem id="clipitem-1385">
												<masterclipid>masterclip-191</masterclipid>
												<name>(succulentbite)_BiXqoD1ANAT_IG.mp4</name>
												<rate>
													<timebase>30</timebase>
													<ntsc>FALSE</ntsc>
												</rate>
												<alphatype>none</alphatype>
												<file id="file-164"/>
											</clipitem>
										</track>
									</video>
								</media>
								<logginginfo>
									<description></description>
									<scene></scene>
									<shottake></shottake>
									<lognote></lognote>
									<good></good>
									<originalvideofilename></originalvideofilename>
									<originalaudiofilename></originalaudiofilename>
								</logginginfo>
								<colorinfo>
									<lut></lut>
									<lut1></lut1>
									<asc_sop></asc_sop>
									<asc_sat></asc_sat>
									<lut2></lut2>
								</colorinfo>
								<labels>
									<label2>Violet</label2>
								</labels>
							</clip>
							<clip id="masterclip-192" explodedTracks="true">
								<uuid>abdc716e-abfc-42a9-a7dd-6cd1ee1bb6c3</uuid>
								<masterclipid>masterclip-192</masterclipid>
								<ismasterclip>TRUE</ismasterclip>
								<duration>325</duration>
								<rate>
									<timebase>30</timebase>
									<ntsc>FALSE</ntsc>
								</rate>
								<out>230</out>
								<name>(succulentbite)_BiZ03lwAc3d_IG.mp4</name>
								<media>
									<video>
										<track>
											<clipitem id="clipitem-1386">
												<masterclipid>masterclip-192</masterclipid>
												<name>(succulentbite)_BiZ03lwAc3d_IG.mp4</name>
												<rate>
													<timebase>30</timebase>
													<ntsc>FALSE</ntsc>
												</rate>
												<alphatype>none</alphatype>
												<file id="file-165"/>
												<link>
													<linkclipref>clipitem-1386</linkclipref>
													<mediatype>video</mediatype>
													<trackindex>1</trackindex>
													<clipindex>1</clipindex>
												</link>
												<link>
													<linkclipref>clipitem-1387</linkclipref>
													<mediatype>audio</mediatype>
													<trackindex>1</trackindex>
													<clipindex>1</clipindex>
												</link>
											</clipitem>
										</track>
									</video>
									<audio>
										<track>
											<clipitem id="clipitem-1387">
												<masterclipid>masterclip-192</masterclipid>
												<name>(succulentbite)_BiZ03lwAc3d_IG.mp4</name>
												<rate>
													<timebase>30</timebase>
													<ntsc>FALSE</ntsc>
												</rate>
												<file id="file-165"/>
												<sourcetrack>
													<mediatype>audio</mediatype>
													<trackindex>1</trackindex>
												</sourcetrack>
												<link>
													<linkclipref>clipitem-1386</linkclipref>
													<mediatype>video</mediatype>
													<trackindex>1</trackindex>
													<clipindex>1</clipindex>
												</link>
												<link>
													<linkclipref>clipitem-1387</linkclipref>
													<mediatype>audio</mediatype>
													<trackindex>1</trackindex>
													<clipindex>1</clipindex>
												</link>
											</clipitem>
										</track>
									</audio>
								</media>
								<logginginfo>
									<description></description>
									<scene></scene>
									<shottake></shottake>
									<lognote></lognote>
									<good></good>
									<originalvideofilename></originalvideofilename>
									<originalaudiofilename></originalaudiofilename>
								</logginginfo>
								<colorinfo>
									<lut></lut>
									<lut1></lut1>
									<asc_sop></asc_sop>
									<asc_sat></asc_sat>
									<lut2></lut2>
								</colorinfo>
								<labels>
									<label2>Violet</label2>
								</labels>
							</clip>
							<clip id="masterclip-193" explodedTracks="true">
								<uuid>912a69b8-2049-4575-bf14-6761af6db993</uuid>
								<masterclipid>masterclip-193</masterclipid>
								<ismasterclip>TRUE</ismasterclip>
								<duration>310</duration>
								<rate>
									<timebase>30</timebase>
									<ntsc>FALSE</ntsc>
								</rate>
								<out>214</out>
								<name>(succulentbite)_BihqtRWgPXH_IG.mp4</name>
								<media>
									<video>
										<track>
											<clipitem id="clipitem-1388">
												<masterclipid>masterclip-193</masterclipid>
												<name>(succulentbite)_BihqtRWgPXH_IG.mp4</name>
												<rate>
													<timebase>30</timebase>
													<ntsc>FALSE</ntsc>
												</rate>
												<alphatype>none</alphatype>
												<file id="file-166"/>
											</clipitem>
										</track>
									</video>
								</media>
								<logginginfo>
									<description></description>
									<scene></scene>
									<shottake></shottake>
									<lognote></lognote>
									<good></good>
									<originalvideofilename></originalvideofilename>
									<originalaudiofilename></originalaudiofilename>
								</logginginfo>
								<colorinfo>
									<lut></lut>
									<lut1></lut1>
									<asc_sop></asc_sop>
									<asc_sat></asc_sat>
									<lut2></lut2>
								</colorinfo>
								<labels>
									<label2>Violet</label2>
								</labels>
							</clip>
							<clip id="masterclip-194" explodedTracks="true">
								<uuid>89c56e75-b8b3-4dd6-8dd5-a52758476e6f</uuid>
								<masterclipid>masterclip-194</masterclipid>
								<ismasterclip>TRUE</ismasterclip>
								<duration>306</duration>
								<rate>
									<timebase>30</timebase>
									<ntsc>FALSE</ntsc>
								</rate>
								<out>198</out>
								<name>(succulentbite)_Bim_Q1_gGy__IG.mp4</name>
								<media>
									<video>
										<track>
											<clipitem id="clipitem-1389">
												<masterclipid>masterclip-194</masterclipid>
												<name>(succulentbite)_Bim_Q1_gGy__IG.mp4</name>
												<rate>
													<timebase>30</timebase>
													<ntsc>FALSE</ntsc>
												</rate>
												<alphatype>none</alphatype>
												<file id="file-167"/>
												<link>
													<linkclipref>clipitem-1389</linkclipref>
													<mediatype>video</mediatype>
													<trackindex>1</trackindex>
													<clipindex>1</clipindex>
												</link>
												<link>
													<linkclipref>clipitem-1390</linkclipref>
													<mediatype>audio</mediatype>
													<trackindex>1</trackindex>
													<clipindex>1</clipindex>
												</link>
											</clipitem>
										</track>
									</video>
									<audio>
										<track>
											<clipitem id="clipitem-1390">
												<masterclipid>masterclip-194</masterclipid>
												<name>(succulentbite)_Bim_Q1_gGy__IG.mp4</name>
												<rate>
													<timebase>30</timebase>
													<ntsc>FALSE</ntsc>
												</rate>
												<file id="file-167"/>
												<sourcetrack>
													<mediatype>audio</mediatype>
													<trackindex>1</trackindex>
												</sourcetrack>
												<link>
													<linkclipref>clipitem-1389</linkclipref>
													<mediatype>video</mediatype>
													<trackindex>1</trackindex>
													<clipindex>1</clipindex>
												</link>
												<link>
													<linkclipref>clipitem-1390</linkclipref>
													<mediatype>audio</mediatype>
													<trackindex>1</trackindex>
													<clipindex>1</clipindex>
												</link>
											</clipitem>
										</track>
									</audio>
								</media>
								<logginginfo>
									<description></description>
									<scene></scene>
									<shottake></shottake>
									<lognote></lognote>
									<good></good>
									<originalvideofilename></originalvideofilename>
									<originalaudiofilename></originalaudiofilename>
								</logginginfo>
								<colorinfo>
									<lut></lut>
									<lut1></lut1>
									<asc_sop></asc_sop>
									<asc_sat></asc_sat>
									<lut2></lut2>
								</colorinfo>
								<labels>
									<label2>Violet</label2>
								</labels>
							</clip>
							<clip id="masterclip-195" explodedTracks="true">
								<uuid>0e3e1bb4-0172-4015-95a2-c871283077e7</uuid>
								<masterclipid>masterclip-195</masterclipid>
								<ismasterclip>TRUE</ismasterclip>
								<duration>328</duration>
								<rate>
									<timebase>30</timebase>
									<ntsc>FALSE</ntsc>
								</rate>
								<out>226</out>
								<name>(succulentbite)_Bium7glAAso_IG.mp4</name>
								<media>
									<video>
										<track>
											<clipitem id="clipitem-1391">
												<masterclipid>masterclip-195</masterclipid>
												<name>(succulentbite)_Bium7glAAso_IG.mp4</name>
												<rate>
													<timebase>30</timebase>
													<ntsc>FALSE</ntsc>
												</rate>
												<alphatype>none</alphatype>
												<file id="file-168"/>
											</clipitem>
										</track>
									</video>
								</media>
								<logginginfo>
									<description></description>
									<scene></scene>
									<shottake></shottake>
									<lognote></lognote>
									<good></good>
									<originalvideofilename></originalvideofilename>
									<originalaudiofilename></originalaudiofilename>
								</logginginfo>
								<colorinfo>
									<lut></lut>
									<lut1></lut1>
									<asc_sop></asc_sop>
									<asc_sat></asc_sat>
									<lut2></lut2>
								</colorinfo>
								<labels>
									<label2>Violet</label2>
								</labels>
							</clip>
							<clip id="masterclip-196" explodedTracks="true">
								<uuid>e49a9805-a992-4785-ab76-385535f97eae</uuid>
								<masterclipid>masterclip-196</masterclipid>
								<ismasterclip>TRUE</ismasterclip>
								<duration>282</duration>
								<rate>
									<timebase>30</timebase>
									<ntsc>FALSE</ntsc>
								</rate>
								<out>174</out>
								<name>(succulentbite)_BixQ5lAAiV9_IG.mp4</name>
								<media>
									<video>
										<track>
											<clipitem id="clipitem-1392">
												<masterclipid>masterclip-196</masterclipid>
												<name>(succulentbite)_BixQ5lAAiV9_IG.mp4</name>
												<rate>
													<timebase>30</timebase>
													<ntsc>FALSE</ntsc>
												</rate>
												<alphatype>none</alphatype>
												<file id="file-169"/>
											</clipitem>
										</track>
									</video>
								</media>
								<logginginfo>
									<description></description>
									<scene></scene>
									<shottake></shottake>
									<lognote></lognote>
									<good></good>
									<originalvideofilename></originalvideofilename>
									<originalaudiofilename></originalaudiofilename>
								</logginginfo>
								<colorinfo>
									<lut></lut>
									<lut1></lut1>
									<asc_sop></asc_sop>
									<asc_sat></asc_sat>
									<lut2></lut2>
								</colorinfo>
								<labels>
									<label2>Violet</label2>
								</labels>
							</clip>
							<clip id="masterclip-197" explodedTracks="true">
								<uuid>b712cf81-f278-4afc-bb17-88a506512742</uuid>
								<masterclipid>masterclip-197</masterclipid>
								<ismasterclip>TRUE</ismasterclip>
								<duration>389</duration>
								<rate>
									<timebase>30</timebase>
									<ntsc>FALSE</ntsc>
								</rate>
								<out>283</out>
								<name>(succulentbite)_Bj4qdKNAwAi_IG.mp4</name>
								<media>
									<video>
										<track>
											<clipitem id="clipitem-1393">
												<masterclipid>masterclip-197</masterclipid>
												<name>(succulentbite)_Bj4qdKNAwAi_IG.mp4</name>
												<rate>
													<timebase>30</timebase>
													<ntsc>FALSE</ntsc>
												</rate>
												<alphatype>none</alphatype>
												<file id="file-170"/>
											</clipitem>
										</track>
									</video>
								</media>
								<logginginfo>
									<description></description>
									<scene></scene>
									<shottake></shottake>
									<lognote></lognote>
									<good></good>
									<originalvideofilename></originalvideofilename>
									<originalaudiofilename></originalaudiofilename>
								</logginginfo>
								<colorinfo>
									<lut></lut>
									<lut1></lut1>
									<asc_sop></asc_sop>
									<asc_sat></asc_sat>
									<lut2></lut2>
								</colorinfo>
								<labels>
									<label2>Violet</label2>
								</labels>
							</clip>
							<clip id="masterclip-198" explodedTracks="true">
								<uuid>42889259-01ea-4ea8-8ffc-e55e871b635e</uuid>
								<masterclipid>masterclip-198</masterclipid>
								<ismasterclip>TRUE</ismasterclip>
								<duration>305</duration>
								<rate>
									<timebase>30</timebase>
									<ntsc>FALSE</ntsc>
								</rate>
								<out>209</out>
								<name>(succulentbite)_BjF4fiqAOuH_IG.mp4</name>
								<media>
									<video>
										<track>
											<clipitem id="clipitem-1394">
												<masterclipid>masterclip-198</masterclipid>
												<name>(succulentbite)_BjF4fiqAOuH_IG.mp4</name>
												<rate>
													<timebase>30</timebase>
													<ntsc>FALSE</ntsc>
												</rate>
												<alphatype>none</alphatype>
												<file id="file-171"/>
											</clipitem>
										</track>
									</video>
								</media>
								<logginginfo>
									<description></description>
									<scene></scene>
									<shottake></shottake>
									<lognote></lognote>
									<good></good>
									<originalvideofilename></originalvideofilename>
									<originalaudiofilename></originalaudiofilename>
								</logginginfo>
								<colorinfo>
									<lut></lut>
									<lut1></lut1>
									<asc_sop></asc_sop>
									<asc_sat></asc_sat>
									<lut2></lut2>
								</colorinfo>
								<labels>
									<label2>Violet</label2>
								</labels>
							</clip>
							<clip id="masterclip-199" explodedTracks="true">
								<uuid>b137a005-4d4f-4dfe-aca2-d9230f5411a5</uuid>
								<masterclipid>masterclip-199</masterclipid>
								<ismasterclip>TRUE</ismasterclip>
								<duration>349</duration>
								<rate>
									<timebase>30</timebase>
									<ntsc>FALSE</ntsc>
								</rate>
								<out>244</out>
								<name>(succulentbite)_BjHxafugAJY_IG.mp4</name>
								<media>
									<video>
										<track>
											<clipitem id="clipitem-1395">
												<masterclipid>masterclip-199</masterclipid>
												<name>(succulentbite)_BjHxafugAJY_IG.mp4</name>
												<rate>
													<timebase>30</timebase>
													<ntsc>FALSE</ntsc>
												</rate>
												<alphatype>none</alphatype>
												<file id="file-172"/>
												<link>
													<linkclipref>clipitem-1395</linkclipref>
													<mediatype>video</mediatype>
													<trackindex>1</trackindex>
													<clipindex>1</clipindex>
												</link>
												<link>
													<linkclipref>clipitem-1396</linkclipref>
													<mediatype>audio</mediatype>
													<trackindex>1</trackindex>
													<clipindex>1</clipindex>
												</link>
											</clipitem>
										</track>
									</video>
									<audio>
										<track>
											<clipitem id="clipitem-1396">
												<masterclipid>masterclip-199</masterclipid>
												<name>(succulentbite)_BjHxafugAJY_IG.mp4</name>
												<rate>
													<timebase>30</timebase>
													<ntsc>FALSE</ntsc>
												</rate>
												<file id="file-172"/>
												<sourcetrack>
													<mediatype>audio</mediatype>
													<trackindex>1</trackindex>
												</sourcetrack>
												<link>
													<linkclipref>clipitem-1395</linkclipref>
													<mediatype>video</mediatype>
													<trackindex>1</trackindex>
													<clipindex>1</clipindex>
												</link>
												<link>
													<linkclipref>clipitem-1396</linkclipref>
													<mediatype>audio</mediatype>
													<trackindex>1</trackindex>
													<clipindex>1</clipindex>
												</link>
											</clipitem>
										</track>
									</audio>
								</media>
								<logginginfo>
									<description></description>
									<scene></scene>
									<shottake></shottake>
									<lognote></lognote>
									<good></good>
									<originalvideofilename></originalvideofilename>
									<originalaudiofilename></originalaudiofilename>
								</logginginfo>
								<colorinfo>
									<lut></lut>
									<lut1></lut1>
									<asc_sop></asc_sop>
									<asc_sat></asc_sat>
									<lut2></lut2>
								</colorinfo>
								<labels>
									<label2>Violet</label2>
								</labels>
							</clip>
							<clip id="masterclip-200" explodedTracks="true">
								<uuid>c9fe918d-6873-41ea-8cc5-ef4e25f84352</uuid>
								<masterclipid>masterclip-200</masterclipid>
								<ismasterclip>TRUE</ismasterclip>
								<duration>302</duration>
								<rate>
									<timebase>30</timebase>
									<ntsc>FALSE</ntsc>
								</rate>
								<out>212</out>
								<name>(succulentbite)_BjkSGpQg49z_IG.mp4</name>
								<media>
									<video>
										<track>
											<clipitem id="clipitem-1397">
												<masterclipid>masterclip-200</masterclipid>
												<name>(succulentbite)_BjkSGpQg49z_IG.mp4</name>
												<rate>
													<timebase>30</timebase>
													<ntsc>FALSE</ntsc>
												</rate>
												<alphatype>none</alphatype>
												<file id="file-173"/>
											</clipitem>
										</track>
									</video>
								</media>
								<logginginfo>
									<description></description>
									<scene></scene>
									<shottake></shottake>
									<lognote></lognote>
									<good></good>
									<originalvideofilename></originalvideofilename>
									<originalaudiofilename></originalaudiofilename>
								</logginginfo>
								<colorinfo>
									<lut></lut>
									<lut1></lut1>
									<asc_sop></asc_sop>
									<asc_sat></asc_sat>
									<lut2></lut2>
								</colorinfo>
								<labels>
									<label2>Violet</label2>
								</labels>
							</clip>
						</children>
					</bin>
					<clip id="masterclip-208" explodedTracks="true">
						<uuid>ce572f9a-06b6-4607-9a45-894e3e7fa0c5</uuid>
						<masterclipid>masterclip-208</masterclipid>
						<ismasterclip>TRUE</ismasterclip>
						<duration>7494</duration>
						<rate>
							<timebase>24</timebase>
							<ntsc>FALSE</ntsc>
						</rate>
						<in>6603</in>
						<out>6706</out>
						<name>(Camp Chef)_Tiramisu Pancakes for Mother's Day_3Rtmg-VHoMQ_YT.mp4</name>
						<media>
							<video>
								<track>
									<clipitem id="clipitem-1398">
										<masterclipid>masterclip-208</masterclipid>
										<name>(Camp Chef)_Tiramisu Pancakes for Mother's Day_3Rtmg-VHoMQ_YT.mp4</name>
										<rate>
											<timebase>24</timebase>
											<ntsc>FALSE</ntsc>
										</rate>
										<alphatype>none</alphatype>
										<file id="file-179"/>
										<link>
											<linkclipref>clipitem-1398</linkclipref>
											<mediatype>video</mediatype>
											<trackindex>1</trackindex>
											<clipindex>1</clipindex>
										</link>
										<link>
											<linkclipref>clipitem-1399</linkclipref>
											<mediatype>audio</mediatype>
											<trackindex>1</trackindex>
											<clipindex>1</clipindex>
											<groupindex>1</groupindex>
										</link>
										<link>
											<linkclipref>clipitem-1400</linkclipref>
											<mediatype>audio</mediatype>
											<trackindex>2</trackindex>
											<clipindex>1</clipindex>
											<groupindex>1</groupindex>
										</link>
									</clipitem>
								</track>
							</video>
							<audio>
								<track>
									<clipitem id="clipitem-1399">
										<masterclipid>masterclip-208</masterclipid>
										<name>(Camp Chef)_Tiramisu Pancakes for Mother's Day_3Rtmg-VHoMQ_YT.mp4</name>
										<rate>
											<timebase>24</timebase>
											<ntsc>FALSE</ntsc>
										</rate>
										<file id="file-179"/>
										<sourcetrack>
											<mediatype>audio</mediatype>
											<trackindex>1</trackindex>
										</sourcetrack>
										<link>
											<linkclipref>clipitem-1398</linkclipref>
											<mediatype>video</mediatype>
											<trackindex>1</trackindex>
											<clipindex>1</clipindex>
										</link>
										<link>
											<linkclipref>clipitem-1399</linkclipref>
											<mediatype>audio</mediatype>
											<trackindex>1</trackindex>
											<clipindex>1</clipindex>
											<groupindex>1</groupindex>
										</link>
										<link>
											<linkclipref>clipitem-1400</linkclipref>
											<mediatype>audio</mediatype>
											<trackindex>2</trackindex>
											<clipindex>1</clipindex>
											<groupindex>1</groupindex>
										</link>
									</clipitem>
								</track>
								<track>
									<clipitem id="clipitem-1400">
										<masterclipid>masterclip-208</masterclipid>
										<name>(Camp Chef)_Tiramisu Pancakes for Mother's Day_3Rtmg-VHoMQ_YT.mp4</name>
										<rate>
											<timebase>24</timebase>
											<ntsc>FALSE</ntsc>
										</rate>
										<file id="file-179"/>
										<sourcetrack>
											<mediatype>audio</mediatype>
											<trackindex>2</trackindex>
										</sourcetrack>
										<link>
											<linkclipref>clipitem-1398</linkclipref>
											<mediatype>video</mediatype>
											<trackindex>1</trackindex>
											<clipindex>1</clipindex>
										</link>
										<link>
											<linkclipref>clipitem-1399</linkclipref>
											<mediatype>audio</mediatype>
											<trackindex>1</trackindex>
											<clipindex>1</clipindex>
											<groupindex>1</groupindex>
										</link>
										<link>
											<linkclipref>clipitem-1400</linkclipref>
											<mediatype>audio</mediatype>
											<trackindex>2</trackindex>
											<clipindex>1</clipindex>
											<groupindex>1</groupindex>
										</link>
									</clipitem>
								</track>
							</audio>
						</media>
						<logginginfo>
							<description>Tiramisu Pancakes for Mother's Day</description>
							<scene></scene>
							<shottake></shottake>
							<lognote>https://www.youtube.com/watch?v=3Rtmg-VHoMQ</lognote>
							<good></good>
							<originalvideofilename></originalvideofilename>
							<originalaudiofilename></originalaudiofilename>
						</logginginfo>
						<colorinfo>
							<lut></lut>
							<lut1></lut1>
							<asc_sop></asc_sop>
							<asc_sat></asc_sat>
							<lut2></lut2>
						</colorinfo>
						<labels>
							<label2>Violet</label2>
						</labels>
					</clip>
					<bin>
						<name>orange</name>
						<children>
							<clip id="masterclip-13" explodedTracks="true">
								<uuid>1616ee54-1dd9-4157-bc3a-b1df765a90c9</uuid>
								<masterclipid>masterclip-13</masterclipid>
								<ismasterclip>TRUE</ismasterclip>
								<duration>719</duration>
								<rate>
									<timebase>30</timebase>
									<ntsc>FALSE</ntsc>
								</rate>
								<out>667</out>
								<name>(allyoucansweet)_7075755185724820779_TT.mp4</name>
								<media>
									<video>
										<track>
											<clipitem id="clipitem-1401">
												<masterclipid>masterclip-13</masterclipid>
												<name>(allyoucansweet)_7075755185724820779_TT.mp4</name>
												<rate>
													<timebase>30</timebase>
													<ntsc>FALSE</ntsc>
												</rate>
												<alphatype>none</alphatype>
												<file id="file-11"/>
												<link>
													<linkclipref>clipitem-1401</linkclipref>
													<mediatype>video</mediatype>
													<trackindex>1</trackindex>
													<clipindex>1</clipindex>
												</link>
												<link>
													<linkclipref>clipitem-1402</linkclipref>
													<mediatype>audio</mediatype>
													<trackindex>1</trackindex>
													<clipindex>1</clipindex>
													<groupindex>1</groupindex>
												</link>
												<link>
													<linkclipref>clipitem-1403</linkclipref>
													<mediatype>audio</mediatype>
													<trackindex>2</trackindex>
													<clipindex>1</clipindex>
													<groupindex>1</groupindex>
												</link>
											</clipitem>
										</track>
									</video>
									<audio>
										<track>
											<clipitem id="clipitem-1402">
												<masterclipid>masterclip-13</masterclipid>
												<name>(allyoucansweet)_7075755185724820779_TT.mp4</name>
												<rate>
													<timebase>30</timebase>
													<ntsc>FALSE</ntsc>
												</rate>
												<file id="file-11"/>
												<sourcetrack>
													<mediatype>audio</mediatype>
													<trackindex>1</trackindex>
												</sourcetrack>
												<link>
													<linkclipref>clipitem-1401</linkclipref>
													<mediatype>video</mediatype>
													<trackindex>1</trackindex>
													<clipindex>1</clipindex>
												</link>
												<link>
													<linkclipref>clipitem-1402</linkclipref>
													<mediatype>audio</mediatype>
													<trackindex>1</trackindex>
													<clipindex>1</clipindex>
													<groupindex>1</groupindex>
												</link>
												<link>
													<linkclipref>clipitem-1403</linkclipref>
													<mediatype>audio</mediatype>
													<trackindex>2</trackindex>
													<clipindex>1</clipindex>
													<groupindex>1</groupindex>
												</link>
											</clipitem>
										</track>
										<track>
											<clipitem id="clipitem-1403">
												<masterclipid>masterclip-13</masterclipid>
												<name>(allyoucansweet)_7075755185724820779_TT.mp4</name>
												<rate>
													<timebase>30</timebase>
													<ntsc>FALSE</ntsc>
												</rate>
												<file id="file-11"/>
												<sourcetrack>
													<mediatype>audio</mediatype>
													<trackindex>2</trackindex>
												</sourcetrack>
												<link>
													<linkclipref>clipitem-1401</linkclipref>
													<mediatype>video</mediatype>
													<trackindex>1</trackindex>
													<clipindex>1</clipindex>
												</link>
												<link>
													<linkclipref>clipitem-1402</linkclipref>
													<mediatype>audio</mediatype>
													<trackindex>1</trackindex>
													<clipindex>1</clipindex>
													<groupindex>1</groupindex>
												</link>
												<link>
													<linkclipref>clipitem-1403</linkclipref>
													<mediatype>audio</mediatype>
													<trackindex>2</trackindex>
													<clipindex>1</clipindex>
													<groupindex>1</groupindex>
												</link>
											</clipitem>
										</track>
									</audio>
								</media>
								<logginginfo>
									<description></description>
									<scene></scene>
									<shottake></shottake>
									<lognote></lognote>
									<good></good>
									<originalvideofilename></originalvideofilename>
									<originalaudiofilename></originalaudiofilename>
								</logginginfo>
								<colorinfo>
									<lut></lut>
									<lut1></lut1>
									<asc_sop></asc_sop>
									<asc_sat></asc_sat>
									<lut2></lut2>
								</colorinfo>
								<labels>
									<label2>Violet</label2>
								</labels>
							</clip>
							<clip id="masterclip-9" explodedTracks="true">
								<uuid>0eeedd5c-87fb-4470-9c94-fca4162fbff3</uuid>
								<masterclipid>masterclip-9</masterclipid>
								<ismasterclip>TRUE</ismasterclip>
								<duration>717</duration>
								<rate>
									<timebase>30</timebase>
									<ntsc>FALSE</ntsc>
								</rate>
								<in>39</in>
								<name>(join_jules)_CRrb6ReDSMH_IG.mp4</name>
								<media>
									<video>
										<track>
											<clipitem id="clipitem-1404">
												<masterclipid>masterclip-9</masterclipid>
												<name>(join_jules)_CRrb6ReDSMH_IG.mp4</name>
												<rate>
													<timebase>30</timebase>
													<ntsc>FALSE</ntsc>
												</rate>
												<alphatype>none</alphatype>
												<file id="file-7"/>
												<link>
													<linkclipref>clipitem-1404</linkclipref>
													<mediatype>video</mediatype>
													<trackindex>1</trackindex>
													<clipindex>1</clipindex>
												</link>
												<link>
													<linkclipref>clipitem-1405</linkclipref>
													<mediatype>audio</mediatype>
													<trackindex>1</trackindex>
													<clipindex>1</clipindex>
													<groupindex>1</groupindex>
												</link>
												<link>
													<linkclipref>clipitem-1406</linkclipref>
													<mediatype>audio</mediatype>
													<trackindex>2</trackindex>
													<clipindex>1</clipindex>
													<groupindex>1</groupindex>
												</link>
											</clipitem>
										</track>
									</video>
									<audio>
										<track>
											<clipitem id="clipitem-1405">
												<masterclipid>masterclip-9</masterclipid>
												<name>(join_jules)_CRrb6ReDSMH_IG.mp4</name>
												<rate>
													<timebase>30</timebase>
													<ntsc>FALSE</ntsc>
												</rate>
												<file id="file-7"/>
												<sourcetrack>
													<mediatype>audio</mediatype>
													<trackindex>1</trackindex>
												</sourcetrack>
												<link>
													<linkclipref>clipitem-1404</linkclipref>
													<mediatype>video</mediatype>
													<trackindex>1</trackindex>
													<clipindex>1</clipindex>
												</link>
												<link>
													<linkclipref>clipitem-1405</linkclipref>
													<mediatype>audio</mediatype>
													<trackindex>1</trackindex>
													<clipindex>1</clipindex>
													<groupindex>1</groupindex>
												</link>
												<link>
													<linkclipref>clipitem-1406</linkclipref>
													<mediatype>audio</mediatype>
													<trackindex>2</trackindex>
													<clipindex>1</clipindex>
													<groupindex>1</groupindex>
												</link>
											</clipitem>
										</track>
										<track>
											<clipitem id="clipitem-1406">
												<masterclipid>masterclip-9</masterclipid>
												<name>(join_jules)_CRrb6ReDSMH_IG.mp4</name>
												<rate>
													<timebase>30</timebase>
													<ntsc>FALSE</ntsc>
												</rate>
												<file id="file-7"/>
												<sourcetrack>
													<mediatype>audio</mediatype>
													<trackindex>2</trackindex>
												</sourcetrack>
												<link>
													<linkclipref>clipitem-1404</linkclipref>
													<mediatype>video</mediatype>
													<trackindex>1</trackindex>
													<clipindex>1</clipindex>
												</link>
												<link>
													<linkclipref>clipitem-1405</linkclipref>
													<mediatype>audio</mediatype>
													<trackindex>1</trackindex>
													<clipindex>1</clipindex>
													<groupindex>1</groupindex>
												</link>
												<link>
													<linkclipref>clipitem-1406</linkclipref>
													<mediatype>audio</mediatype>
													<trackindex>2</trackindex>
													<clipindex>1</clipindex>
													<groupindex>1</groupindex>
												</link>
											</clipitem>
										</track>
									</audio>
								</media>
								<logginginfo>
									<description></description>
									<scene></scene>
									<shottake></shottake>
									<lognote></lognote>
									<good></good>
									<originalvideofilename></originalvideofilename>
									<originalaudiofilename></originalaudiofilename>
								</logginginfo>
								<colorinfo>
									<lut></lut>
									<lut1></lut1>
									<asc_sop></asc_sop>
									<asc_sat></asc_sat>
									<lut2></lut2>
								</colorinfo>
								<labels>
									<label2>Violet</label2>
								</labels>
							</clip>
							<clip id="masterclip-10" explodedTracks="true">
								<uuid>7fd0da0c-c661-4aef-b955-7048b45d2370</uuid>
								<masterclipid>masterclip-10</masterclipid>
								<ismasterclip>TRUE</ismasterclip>
								<duration>790</duration>
								<rate>
									<timebase>30</timebase>
									<ntsc>FALSE</ntsc>
								</rate>
								<in>86</in>
								<name>(sweet_potatou)_CdSE9FXAYje_IG.mp4</name>
								<media>
									<video>
										<track>
											<clipitem id="clipitem-1407">
												<masterclipid>masterclip-10</masterclipid>
												<name>(sweet_potatou)_CdSE9FXAYje_IG.mp4</name>
												<rate>
													<timebase>30</timebase>
													<ntsc>FALSE</ntsc>
												</rate>
												<alphatype>none</alphatype>
												<file id="file-8"/>
												<link>
													<linkclipref>clipitem-1407</linkclipref>
													<mediatype>video</mediatype>
													<trackindex>1</trackindex>
													<clipindex>1</clipindex>
												</link>
												<link>
													<linkclipref>clipitem-1408</linkclipref>
													<mediatype>audio</mediatype>
													<trackindex>1</trackindex>
													<clipindex>1</clipindex>
													<groupindex>1</groupindex>
												</link>
												<link>
													<linkclipref>clipitem-1409</linkclipref>
													<mediatype>audio</mediatype>
													<trackindex>2</trackindex>
													<clipindex>1</clipindex>
													<groupindex>1</groupindex>
												</link>
											</clipitem>
										</track>
									</video>
									<audio>
										<track>
											<clipitem id="clipitem-1408">
												<masterclipid>masterclip-10</masterclipid>
												<name>(sweet_potatou)_CdSE9FXAYje_IG.mp4</name>
												<rate>
													<timebase>30</timebase>
													<ntsc>FALSE</ntsc>
												</rate>
												<file id="file-8"/>
												<sourcetrack>
													<mediatype>audio</mediatype>
													<trackindex>1</trackindex>
												</sourcetrack>
												<link>
													<linkclipref>clipitem-1407</linkclipref>
													<mediatype>video</mediatype>
													<trackindex>1</trackindex>
													<clipindex>1</clipindex>
												</link>
												<link>
													<linkclipref>clipitem-1408</linkclipref>
													<mediatype>audio</mediatype>
													<trackindex>1</trackindex>
													<clipindex>1</clipindex>
													<groupindex>1</groupindex>
												</link>
												<link>
													<linkclipref>clipitem-1409</linkclipref>
													<mediatype>audio</mediatype>
													<trackindex>2</trackindex>
													<clipindex>1</clipindex>
													<groupindex>1</groupindex>
												</link>
											</clipitem>
										</track>
										<track>
											<clipitem id="clipitem-1409">
												<masterclipid>masterclip-10</masterclipid>
												<name>(sweet_potatou)_CdSE9FXAYje_IG.mp4</name>
												<rate>
													<timebase>30</timebase>
													<ntsc>FALSE</ntsc>
												</rate>
												<file id="file-8"/>
												<sourcetrack>
													<mediatype>audio</mediatype>
													<trackindex>2</trackindex>
												</sourcetrack>
												<link>
													<linkclipref>clipitem-1407</linkclipref>
													<mediatype>video</mediatype>
													<trackindex>1</trackindex>
													<clipindex>1</clipindex>
												</link>
												<link>
													<linkclipref>clipitem-1408</linkclipref>
													<mediatype>audio</mediatype>
													<trackindex>1</trackindex>
													<clipindex>1</clipindex>
													<groupindex>1</groupindex>
												</link>
												<link>
													<linkclipref>clipitem-1409</linkclipref>
													<mediatype>audio</mediatype>
													<trackindex>2</trackindex>
													<clipindex>1</clipindex>
													<groupindex>1</groupindex>
												</link>
											</clipitem>
										</track>
									</audio>
								</media>
								<logginginfo>
									<description></description>
									<scene></scene>
									<shottake></shottake>
									<lognote></lognote>
									<good></good>
									<originalvideofilename></originalvideofilename>
									<originalaudiofilename></originalaudiofilename>
								</logginginfo>
								<colorinfo>
									<lut></lut>
									<lut1></lut1>
									<asc_sop></asc_sop>
									<asc_sat></asc_sat>
									<lut2></lut2>
								</colorinfo>
								<labels>
									<label2>Violet</label2>
								</labels>
							</clip>
							<clip id="masterclip-12" explodedTracks="true">
								<uuid>acc51d33-8ad6-40bc-a4eb-bee6e94d30f3</uuid>
								<masterclipid>masterclip-12</masterclipid>
								<ismasterclip>TRUE</ismasterclip>
								<duration>1698</duration>
								<rate>
									<timebase>30</timebase>
									<ntsc>FALSE</ntsc>
								</rate>
								<out>175</out>
								<name>(tashaliana89)_7043844558660177158_TT.mp4</name>
								<media>
									<video>
										<track>
											<clipitem id="clipitem-1410">
												<masterclipid>masterclip-12</masterclipid>
												<name>(tashaliana89)_7043844558660177158_TT.mp4</name>
												<rate>
													<timebase>30</timebase>
													<ntsc>FALSE</ntsc>
												</rate>
												<alphatype>none</alphatype>
												<file id="file-10"/>
												<link>
													<linkclipref>clipitem-1410</linkclipref>
													<mediatype>video</mediatype>
													<trackindex>1</trackindex>
													<clipindex>1</clipindex>
												</link>
												<link>
													<linkclipref>clipitem-1411</linkclipref>
													<mediatype>audio</mediatype>
													<trackindex>1</trackindex>
													<clipindex>1</clipindex>
													<groupindex>1</groupindex>
												</link>
												<link>
													<linkclipref>clipitem-1412</linkclipref>
													<mediatype>audio</mediatype>
													<trackindex>2</trackindex>
													<clipindex>1</clipindex>
													<groupindex>1</groupindex>
												</link>
											</clipitem>
										</track>
									</video>
									<audio>
										<track>
											<clipitem id="clipitem-1411">
												<masterclipid>masterclip-12</masterclipid>
												<name>(tashaliana89)_7043844558660177158_TT.mp4</name>
												<rate>
													<timebase>30</timebase>
													<ntsc>FALSE</ntsc>
												</rate>
												<file id="file-10"/>
												<sourcetrack>
													<mediatype>audio</mediatype>
													<trackindex>1</trackindex>
												</sourcetrack>
												<link>
													<linkclipref>clipitem-1410</linkclipref>
													<mediatype>video</mediatype>
													<trackindex>1</trackindex>
													<clipindex>1</clipindex>
												</link>
												<link>
													<linkclipref>clipitem-1411</linkclipref>
													<mediatype>audio</mediatype>
													<trackindex>1</trackindex>
													<clipindex>1</clipindex>
													<groupindex>1</groupindex>
												</link>
												<link>
													<linkclipref>clipitem-1412</linkclipref>
													<mediatype>audio</mediatype>
													<trackindex>2</trackindex>
													<clipindex>1</clipindex>
													<groupindex>1</groupindex>
												</link>
											</clipitem>
										</track>
										<track>
											<clipitem id="clipitem-1412">
												<masterclipid>masterclip-12</masterclipid>
												<name>(tashaliana89)_7043844558660177158_TT.mp4</name>
												<rate>
													<timebase>30</timebase>
													<ntsc>FALSE</ntsc>
												</rate>
												<file id="file-10"/>
												<sourcetrack>
													<mediatype>audio</mediatype>
													<trackindex>2</trackindex>
												</sourcetrack>
												<link>
													<linkclipref>clipitem-1410</linkclipref>
													<mediatype>video</mediatype>
													<trackindex>1</trackindex>
													<clipindex>1</clipindex>
												</link>
												<link>
													<linkclipref>clipitem-1411</linkclipref>
													<mediatype>audio</mediatype>
													<trackindex>1</trackindex>
													<clipindex>1</clipindex>
													<groupindex>1</groupindex>
												</link>
												<link>
													<linkclipref>clipitem-1412</linkclipref>
													<mediatype>audio</mediatype>
													<trackindex>2</trackindex>
													<clipindex>1</clipindex>
													<groupindex>1</groupindex>
												</link>
											</clipitem>
										</track>
									</audio>
								</media>
								<logginginfo>
									<description></description>
									<scene></scene>
									<shottake></shottake>
									<lognote></lognote>
									<good></good>
									<originalvideofilename></originalvideofilename>
									<originalaudiofilename></originalaudiofilename>
								</logginginfo>
								<colorinfo>
									<lut></lut>
									<lut1></lut1>
									<asc_sop></asc_sop>
									<asc_sat></asc_sat>
									<lut2></lut2>
								</colorinfo>
								<labels>
									<label2>Violet</label2>
								</labels>
							</clip>
							<clip id="masterclip-11" explodedTracks="true">
								<uuid>e562a548-8053-4b8f-b54a-6b647b97920a</uuid>
								<masterclipid>masterclip-11</masterclipid>
								<ismasterclip>TRUE</ismasterclip>
								<duration>1063</duration>
								<rate>
									<timebase>30</timebase>
									<ntsc>FALSE</ntsc>
								</rate>
								<in>890</in>
								<name>(viviannecafe)_6931904249563499777_TT.mp4</name>
								<media>
									<video>
										<track>
											<clipitem id="clipitem-1413">
												<masterclipid>masterclip-11</masterclipid>
												<name>(viviannecafe)_6931904249563499777_TT.mp4</name>
												<rate>
													<timebase>30</timebase>
													<ntsc>FALSE</ntsc>
												</rate>
												<alphatype>none</alphatype>
												<file id="file-9"/>
												<link>
													<linkclipref>clipitem-1413</linkclipref>
													<mediatype>video</mediatype>
													<trackindex>1</trackindex>
													<clipindex>1</clipindex>
												</link>
												<link>
													<linkclipref>clipitem-1414</linkclipref>
													<mediatype>audio</mediatype>
													<trackindex>1</trackindex>
													<clipindex>1</clipindex>
													<groupindex>1</groupindex>
												</link>
												<link>
													<linkclipref>clipitem-1415</linkclipref>
													<mediatype>audio</mediatype>
													<trackindex>2</trackindex>
													<clipindex>1</clipindex>
													<groupindex>1</groupindex>
												</link>
											</clipitem>
										</track>
									</video>
									<audio>
										<track>
											<clipitem id="clipitem-1414">
												<masterclipid>masterclip-11</masterclipid>
												<name>(viviannecafe)_6931904249563499777_TT.mp4</name>
												<rate>
													<timebase>30</timebase>
													<ntsc>FALSE</ntsc>
												</rate>
												<file id="file-9"/>
												<sourcetrack>
													<mediatype>audio</mediatype>
													<trackindex>1</trackindex>
												</sourcetrack>
												<link>
													<linkclipref>clipitem-1413</linkclipref>
													<mediatype>video</mediatype>
													<trackindex>1</trackindex>
													<clipindex>1</clipindex>
												</link>
												<link>
													<linkclipref>clipitem-1414</linkclipref>
													<mediatype>audio</mediatype>
													<trackindex>1</trackindex>
													<clipindex>1</clipindex>
													<groupindex>1</groupindex>
												</link>
												<link>
													<linkclipref>clipitem-1415</linkclipref>
													<mediatype>audio</mediatype>
													<trackindex>2</trackindex>
													<clipindex>1</clipindex>
													<groupindex>1</groupindex>
												</link>
											</clipitem>
										</track>
										<track>
											<clipitem id="clipitem-1415">
												<masterclipid>masterclip-11</masterclipid>
												<name>(viviannecafe)_6931904249563499777_TT.mp4</name>
												<rate>
													<timebase>30</timebase>
													<ntsc>FALSE</ntsc>
												</rate>
												<file id="file-9"/>
												<sourcetrack>
													<mediatype>audio</mediatype>
													<trackindex>2</trackindex>
												</sourcetrack>
												<link>
													<linkclipref>clipitem-1413</linkclipref>
													<mediatype>video</mediatype>
													<trackindex>1</trackindex>
													<clipindex>1</clipindex>
												</link>
												<link>
													<linkclipref>clipitem-1414</linkclipref>
													<mediatype>audio</mediatype>
													<trackindex>1</trackindex>
													<clipindex>1</clipindex>
													<groupindex>1</groupindex>
												</link>
												<link>
													<linkclipref>clipitem-1415</linkclipref>
													<mediatype>audio</mediatype>
													<trackindex>2</trackindex>
													<clipindex>1</clipindex>
													<groupindex>1</groupindex>
												</link>
											</clipitem>
										</track>
									</audio>
								</media>
								<logginginfo>
									<description></description>
									<scene></scene>
									<shottake></shottake>
									<lognote></lognote>
									<good></good>
									<originalvideofilename></originalvideofilename>
									<originalaudiofilename></originalaudiofilename>
								</logginginfo>
								<colorinfo>
									<lut></lut>
									<lut1></lut1>
									<asc_sop></asc_sop>
									<asc_sat></asc_sat>
									<lut2></lut2>
								</colorinfo>
								<labels>
									<label2>Violet</label2>
								</labels>
							</clip>
						</children>
					</bin>
					<bin>
						<name>cold blue</name>
						<children>
							<clip id="masterclip-238" explodedTracks="true">
								<uuid>57f55eb1-614c-49ef-96a0-4b467a327f1c</uuid>
								<masterclipid>masterclip-238</masterclipid>
								<ismasterclip>TRUE</ismasterclip>
								<duration>625</duration>
								<rate>
									<timebase>30</timebase>
									<ntsc>FALSE</ntsc>
								</rate>
								<in>12</in>
								<out>607</out>
								<name>(MILKY TREATS)_Making a chocolate cake batter milkshake _ _ #icecream  #milkshake #icecreamshop_0RpIpO8Wp9M_YT.mp4</name>
								<media>
									<video>
										<track>
											<clipitem id="clipitem-1416">
												<masterclipid>masterclip-238</masterclipid>
												<name>(MILKY TREATS)_Making a chocolate cake batter milkshake _ _ #icecream  #milkshake #icecreamshop_0RpIpO8Wp9M_YT.mp4</name>
												<rate>
													<timebase>30</timebase>
													<ntsc>FALSE</ntsc>
												</rate>
												<alphatype>none</alphatype>
												<file id="file-204"/>
												<link>
													<linkclipref>clipitem-1416</linkclipref>
													<mediatype>video</mediatype>
													<trackindex>1</trackindex>
													<clipindex>1</clipindex>
												</link>
												<link>
													<linkclipref>clipitem-1417</linkclipref>
													<mediatype>audio</mediatype>
													<trackindex>1</trackindex>
													<clipindex>1</clipindex>
													<groupindex>1</groupindex>
												</link>
												<link>
													<linkclipref>clipitem-1418</linkclipref>
													<mediatype>audio</mediatype>
													<trackindex>2</trackindex>
													<clipindex>1</clipindex>
													<groupindex>1</groupindex>
												</link>
											</clipitem>
										</track>
									</video>
									<audio>
										<track>
											<clipitem id="clipitem-1417">
												<masterclipid>masterclip-238</masterclipid>
												<name>(MILKY TREATS)_Making a chocolate cake batter milkshake _ _ #icecream  #milkshake #icecreamshop_0RpIpO8Wp9M_YT.mp4</name>
												<rate>
													<timebase>30</timebase>
													<ntsc>FALSE</ntsc>
												</rate>
												<file id="file-204"/>
												<sourcetrack>
													<mediatype>audio</mediatype>
													<trackindex>1</trackindex>
												</sourcetrack>
												<link>
													<linkclipref>clipitem-1416</linkclipref>
													<mediatype>video</mediatype>
													<trackindex>1</trackindex>
													<clipindex>1</clipindex>
												</link>
												<link>
													<linkclipref>clipitem-1417</linkclipref>
													<mediatype>audio</mediatype>
													<trackindex>1</trackindex>
													<clipindex>1</clipindex>
													<groupindex>1</groupindex>
												</link>
												<link>
													<linkclipref>clipitem-1418</linkclipref>
													<mediatype>audio</mediatype>
													<trackindex>2</trackindex>
													<clipindex>1</clipindex>
													<groupindex>1</groupindex>
												</link>
											</clipitem>
										</track>
										<track>
											<clipitem id="clipitem-1418">
												<masterclipid>masterclip-238</masterclipid>
												<name>(MILKY TREATS)_Making a chocolate cake batter milkshake _ _ #icecream  #milkshake #icecreamshop_0RpIpO8Wp9M_YT.mp4</name>
												<rate>
													<timebase>30</timebase>
													<ntsc>FALSE</ntsc>
												</rate>
												<file id="file-204"/>
												<sourcetrack>
													<mediatype>audio</mediatype>
													<trackindex>2</trackindex>
												</sourcetrack>
												<link>
													<linkclipref>clipitem-1416</linkclipref>
													<mediatype>video</mediatype>
													<trackindex>1</trackindex>
													<clipindex>1</clipindex>
												</link>
												<link>
													<linkclipref>clipitem-1417</linkclipref>
													<mediatype>audio</mediatype>
													<trackindex>1</trackindex>
													<clipindex>1</clipindex>
													<groupindex>1</groupindex>
												</link>
												<link>
													<linkclipref>clipitem-1418</linkclipref>
													<mediatype>audio</mediatype>
													<trackindex>2</trackindex>
													<clipindex>1</clipindex>
													<groupindex>1</groupindex>
												</link>
											</clipitem>
										</track>
									</audio>
								</media>
								<logginginfo>
									<description></description>
									<scene></scene>
									<shottake></shottake>
									<lognote></lognote>
									<good></good>
									<originalvideofilename></originalvideofilename>
									<originalaudiofilename></originalaudiofilename>
								</logginginfo>
								<colorinfo>
									<lut></lut>
									<lut1></lut1>
									<asc_sop></asc_sop>
									<asc_sat></asc_sat>
									<lut2></lut2>
								</colorinfo>
								<labels>
									<label2>Violet</label2>
								</labels>
							</clip>
							<clip id="masterclip-241" explodedTracks="true">
								<uuid>72ac60a5-1800-424a-afd8-52fc754f3760</uuid>
								<masterclipid>masterclip-241</masterclipid>
								<ismasterclip>TRUE</ismasterclip>
								<duration>11158</duration>
								<rate>
									<timebase>24</timebase>
									<ntsc>TRUE</ntsc>
								</rate>
								<in>2344</in>
								<name>(Taste Travel Food)_Ice Cream Roll With McFlurry Oreo_8Chj5T1Hna4_YT.mp4</name>
								<media>
									<video>
										<track>
											<clipitem id="clipitem-1419">
												<masterclipid>masterclip-241</masterclipid>
												<name>(Taste Travel Food)_Ice Cream Roll With McFlurry Oreo_8Chj5T1Hna4_YT.mp4</name>
												<rate>
													<timebase>24</timebase>
													<ntsc>TRUE</ntsc>
												</rate>
												<alphatype>none</alphatype>
												<file id="file-207"/>
												<link>
													<linkclipref>clipitem-1419</linkclipref>
													<mediatype>video</mediatype>
													<trackindex>1</trackindex>
													<clipindex>1</clipindex>
												</link>
												<link>
													<linkclipref>clipitem-1420</linkclipref>
													<mediatype>audio</mediatype>
													<trackindex>1</trackindex>
													<clipindex>1</clipindex>
													<groupindex>1</groupindex>
												</link>
												<link>
													<linkclipref>clipitem-1421</linkclipref>
													<mediatype>audio</mediatype>
													<trackindex>2</trackindex>
													<clipindex>1</clipindex>
													<groupindex>1</groupindex>
												</link>
											</clipitem>
										</track>
									</video>
									<audio>
										<track>
											<clipitem id="clipitem-1420">
												<masterclipid>masterclip-241</masterclipid>
												<name>(Taste Travel Food)_Ice Cream Roll With McFlurry Oreo_8Chj5T1Hna4_YT.mp4</name>
												<rate>
													<timebase>24</timebase>
													<ntsc>TRUE</ntsc>
												</rate>
												<file id="file-207"/>
												<sourcetrack>
													<mediatype>audio</mediatype>
													<trackindex>1</trackindex>
												</sourcetrack>
												<link>
													<linkclipref>clipitem-1419</linkclipref>
													<mediatype>video</mediatype>
													<trackindex>1</trackindex>
													<clipindex>1</clipindex>
												</link>
												<link>
													<linkclipref>clipitem-1420</linkclipref>
													<mediatype>audio</mediatype>
													<trackindex>1</trackindex>
													<clipindex>1</clipindex>
													<groupindex>1</groupindex>
												</link>
												<link>
													<linkclipref>clipitem-1421</linkclipref>
													<mediatype>audio</mediatype>
													<trackindex>2</trackindex>
													<clipindex>1</clipindex>
													<groupindex>1</groupindex>
												</link>
											</clipitem>
										</track>
										<track>
											<clipitem id="clipitem-1421">
												<masterclipid>masterclip-241</masterclipid>
												<name>(Taste Travel Food)_Ice Cream Roll With McFlurry Oreo_8Chj5T1Hna4_YT.mp4</name>
												<rate>
													<timebase>24</timebase>
													<ntsc>TRUE</ntsc>
												</rate>
												<file id="file-207"/>
												<sourcetrack>
													<mediatype>audio</mediatype>
													<trackindex>2</trackindex>
												</sourcetrack>
												<link>
													<linkclipref>clipitem-1419</linkclipref>
													<mediatype>video</mediatype>
													<trackindex>1</trackindex>
													<clipindex>1</clipindex>
												</link>
												<link>
													<linkclipref>clipitem-1420</linkclipref>
													<mediatype>audio</mediatype>
													<trackindex>1</trackindex>
													<clipindex>1</clipindex>
													<groupindex>1</groupindex>
												</link>
												<link>
													<linkclipref>clipitem-1421</linkclipref>
													<mediatype>audio</mediatype>
													<trackindex>2</trackindex>
													<clipindex>1</clipindex>
													<groupindex>1</groupindex>
												</link>
											</clipitem>
										</track>
									</audio>
								</media>
								<logginginfo>
									<description>Ice Cream Roll With McFlurry Oreo</description>
									<scene></scene>
									<shottake></shottake>
									<lognote>https://www.youtube.com/watch?v=8Chj5T1Hna4</lognote>
									<good></good>
									<originalvideofilename></originalvideofilename>
									<originalaudiofilename></originalaudiofilename>
								</logginginfo>
								<colorinfo>
									<lut></lut>
									<lut1></lut1>
									<asc_sop></asc_sop>
									<asc_sat></asc_sat>
									<lut2></lut2>
								</colorinfo>
								<labels>
									<label2>Violet</label2>
								</labels>
							</clip>
							<clip id="masterclip-239" explodedTracks="true">
								<uuid>0710afbe-6423-48f2-b6c1-ae7b5515cf6e</uuid>
								<masterclipid>masterclip-239</masterclipid>
								<ismasterclip>TRUE</ismasterclip>
								<duration>629</duration>
								<rate>
									<timebase>30</timebase>
									<ntsc>FALSE</ntsc>
								</rate>
								<out>515</out>
								<name>(goodeatzco)_B7jmiZClHPU - 3_IG.mp4</name>
								<media>
									<video>
										<track>
											<clipitem id="clipitem-1422">
												<masterclipid>masterclip-239</masterclipid>
												<name>(goodeatzco)_B7jmiZClHPU - 3_IG.mp4</name>
												<rate>
													<timebase>30</timebase>
													<ntsc>FALSE</ntsc>
												</rate>
												<alphatype>none</alphatype>
												<file id="file-205"/>
												<link>
													<linkclipref>clipitem-1422</linkclipref>
													<mediatype>video</mediatype>
													<trackindex>1</trackindex>
													<clipindex>1</clipindex>
												</link>
												<link>
													<linkclipref>clipitem-1423</linkclipref>
													<mediatype>audio</mediatype>
													<trackindex>1</trackindex>
													<clipindex>1</clipindex>
													<groupindex>1</groupindex>
												</link>
												<link>
													<linkclipref>clipitem-1424</linkclipref>
													<mediatype>audio</mediatype>
													<trackindex>2</trackindex>
													<clipindex>1</clipindex>
													<groupindex>1</groupindex>
												</link>
											</clipitem>
										</track>
									</video>
									<audio>
										<track>
											<clipitem id="clipitem-1423">
												<masterclipid>masterclip-239</masterclipid>
												<name>(goodeatzco)_B7jmiZClHPU - 3_IG.mp4</name>
												<rate>
													<timebase>30</timebase>
													<ntsc>FALSE</ntsc>
												</rate>
												<file id="file-205"/>
												<sourcetrack>
													<mediatype>audio</mediatype>
													<trackindex>1</trackindex>
												</sourcetrack>
												<link>
													<linkclipref>clipitem-1422</linkclipref>
													<mediatype>video</mediatype>
													<trackindex>1</trackindex>
													<clipindex>1</clipindex>
												</link>
												<link>
													<linkclipref>clipitem-1423</linkclipref>
													<mediatype>audio</mediatype>
													<trackindex>1</trackindex>
													<clipindex>1</clipindex>
													<groupindex>1</groupindex>
												</link>
												<link>
													<linkclipref>clipitem-1424</linkclipref>
													<mediatype>audio</mediatype>
													<trackindex>2</trackindex>
													<clipindex>1</clipindex>
													<groupindex>1</groupindex>
												</link>
											</clipitem>
										</track>
										<track>
											<clipitem id="clipitem-1424">
												<masterclipid>masterclip-239</masterclipid>
												<name>(goodeatzco)_B7jmiZClHPU - 3_IG.mp4</name>
												<rate>
													<timebase>30</timebase>
													<ntsc>FALSE</ntsc>
												</rate>
												<file id="file-205"/>
												<sourcetrack>
													<mediatype>audio</mediatype>
													<trackindex>2</trackindex>
												</sourcetrack>
												<link>
													<linkclipref>clipitem-1422</linkclipref>
													<mediatype>video</mediatype>
													<trackindex>1</trackindex>
													<clipindex>1</clipindex>
												</link>
												<link>
													<linkclipref>clipitem-1423</linkclipref>
													<mediatype>audio</mediatype>
													<trackindex>1</trackindex>
													<clipindex>1</clipindex>
													<groupindex>1</groupindex>
												</link>
												<link>
													<linkclipref>clipitem-1424</linkclipref>
													<mediatype>audio</mediatype>
													<trackindex>2</trackindex>
													<clipindex>1</clipindex>
													<groupindex>1</groupindex>
												</link>
											</clipitem>
										</track>
									</audio>
								</media>
								<logginginfo>
									<description></description>
									<scene></scene>
									<shottake></shottake>
									<lognote></lognote>
									<good></good>
									<originalvideofilename></originalvideofilename>
									<originalaudiofilename></originalaudiofilename>
								</logginginfo>
								<colorinfo>
									<lut></lut>
									<lut1></lut1>
									<asc_sop></asc_sop>
									<asc_sat></asc_sat>
									<lut2></lut2>
								</colorinfo>
								<labels>
									<label2>Violet</label2>
								</labels>
							</clip>
							<clip id="masterclip-240" explodedTracks="true">
								<uuid>dce0e5e6-5aa8-431f-8ac9-6bad7f3cbb33</uuid>
								<masterclipid>masterclip-240</masterclipid>
								<ismasterclip>TRUE</ismasterclip>
								<duration>872</duration>
								<rate>
									<timebase>30</timebase>
									<ntsc>FALSE</ntsc>
								</rate>
								<out>764</out>
								<name>(thecustardco)_7030596310671723822_TT.mp4</name>
								<media>
									<video>
										<track>
											<clipitem id="clipitem-1425">
												<masterclipid>masterclip-240</masterclipid>
												<name>(thecustardco)_7030596310671723822_TT.mp4</name>
												<rate>
													<timebase>30</timebase>
													<ntsc>FALSE</ntsc>
												</rate>
												<alphatype>none</alphatype>
												<file id="file-206"/>
												<link>
													<linkclipref>clipitem-1425</linkclipref>
													<mediatype>video</mediatype>
													<trackindex>1</trackindex>
													<clipindex>1</clipindex>
												</link>
												<link>
													<linkclipref>clipitem-1426</linkclipref>
													<mediatype>audio</mediatype>
													<trackindex>1</trackindex>
													<clipindex>1</clipindex>
													<groupindex>1</groupindex>
												</link>
												<link>
													<linkclipref>clipitem-1427</linkclipref>
													<mediatype>audio</mediatype>
													<trackindex>2</trackindex>
													<clipindex>1</clipindex>
													<groupindex>1</groupindex>
												</link>
											</clipitem>
										</track>
									</video>
									<audio>
										<track>
											<clipitem id="clipitem-1426">
												<masterclipid>masterclip-240</masterclipid>
												<name>(thecustardco)_7030596310671723822_TT.mp4</name>
												<rate>
													<timebase>30</timebase>
													<ntsc>FALSE</ntsc>
												</rate>
												<file id="file-206"/>
												<sourcetrack>
													<mediatype>audio</mediatype>
													<trackindex>1</trackindex>
												</sourcetrack>
												<link>
													<linkclipref>clipitem-1425</linkclipref>
													<mediatype>video</mediatype>
													<trackindex>1</trackindex>
													<clipindex>1</clipindex>
												</link>
												<link>
													<linkclipref>clipitem-1426</linkclipref>
													<mediatype>audio</mediatype>
													<trackindex>1</trackindex>
													<clipindex>1</clipindex>
													<groupindex>1</groupindex>
												</link>
												<link>
													<linkclipref>clipitem-1427</linkclipref>
													<mediatype>audio</mediatype>
													<trackindex>2</trackindex>
													<clipindex>1</clipindex>
													<groupindex>1</groupindex>
												</link>
											</clipitem>
										</track>
										<track>
											<clipitem id="clipitem-1427">
												<masterclipid>masterclip-240</masterclipid>
												<name>(thecustardco)_7030596310671723822_TT.mp4</name>
												<rate>
													<timebase>30</timebase>
													<ntsc>FALSE</ntsc>
												</rate>
												<file id="file-206"/>
												<sourcetrack>
													<mediatype>audio</mediatype>
													<trackindex>2</trackindex>
												</sourcetrack>
												<link>
													<linkclipref>clipitem-1425</linkclipref>
													<mediatype>video</mediatype>
													<trackindex>1</trackindex>
													<clipindex>1</clipindex>
												</link>
												<link>
													<linkclipref>clipitem-1426</linkclipref>
													<mediatype>audio</mediatype>
													<trackindex>1</trackindex>
													<clipindex>1</clipindex>
													<groupindex>1</groupindex>
												</link>
												<link>
													<linkclipref>clipitem-1427</linkclipref>
													<mediatype>audio</mediatype>
													<trackindex>2</trackindex>
													<clipindex>1</clipindex>
													<groupindex>1</groupindex>
												</link>
											</clipitem>
										</track>
									</audio>
								</media>
								<logginginfo>
									<description></description>
									<scene></scene>
									<shottake></shottake>
									<lognote></lognote>
									<good></good>
									<originalvideofilename></originalvideofilename>
									<originalaudiofilename></originalaudiofilename>
								</logginginfo>
								<colorinfo>
									<lut></lut>
									<lut1></lut1>
									<asc_sop></asc_sop>
									<asc_sat></asc_sat>
									<lut2></lut2>
								</colorinfo>
								<labels>
									<label2>Violet</label2>
								</labels>
							</clip>
						</children>
					</bin>
					<bin>
						<name>sports cookies</name>
						<children>
							<clip id="masterclip-4" explodedTracks="true">
								<uuid>f88de078-666d-4c1a-ab9c-bc178b59432e</uuid>
								<masterclipid>masterclip-4</masterclipid>
								<ismasterclip>TRUE</ismasterclip>
								<duration>672</duration>
								<rate>
									<timebase>30</timebase>
									<ntsc>FALSE</ntsc>
								</rate>
								<name>(allthesugartx)_CbDjTWdFjh3_IG.mp4</name>
								<media>
									<video>
										<track>
											<clipitem id="clipitem-1428">
												<masterclipid>masterclip-4</masterclipid>
												<name>(allthesugartx)_CbDjTWdFjh3_IG.mp4</name>
												<rate>
													<timebase>30</timebase>
													<ntsc>FALSE</ntsc>
												</rate>
												<alphatype>none</alphatype>
												<file id="file-3"/>
												<link>
													<linkclipref>clipitem-1428</linkclipref>
													<mediatype>video</mediatype>
													<trackindex>1</trackindex>
													<clipindex>1</clipindex>
												</link>
												<link>
													<linkclipref>clipitem-1429</linkclipref>
													<mediatype>audio</mediatype>
													<trackindex>1</trackindex>
													<clipindex>1</clipindex>
													<groupindex>1</groupindex>
												</link>
												<link>
													<linkclipref>clipitem-1430</linkclipref>
													<mediatype>audio</mediatype>
													<trackindex>2</trackindex>
													<clipindex>1</clipindex>
													<groupindex>1</groupindex>
												</link>
											</clipitem>
										</track>
									</video>
									<audio>
										<track>
											<clipitem id="clipitem-1429">
												<masterclipid>masterclip-4</masterclipid>
												<name>(allthesugartx)_CbDjTWdFjh3_IG.mp4</name>
												<rate>
													<timebase>30</timebase>
													<ntsc>FALSE</ntsc>
												</rate>
												<file id="file-3"/>
												<sourcetrack>
													<mediatype>audio</mediatype>
													<trackindex>1</trackindex>
												</sourcetrack>
												<link>
													<linkclipref>clipitem-1428</linkclipref>
													<mediatype>video</mediatype>
													<trackindex>1</trackindex>
													<clipindex>1</clipindex>
												</link>
												<link>
													<linkclipref>clipitem-1429</linkclipref>
													<mediatype>audio</mediatype>
													<trackindex>1</trackindex>
													<clipindex>1</clipindex>
													<groupindex>1</groupindex>
												</link>
												<link>
													<linkclipref>clipitem-1430</linkclipref>
													<mediatype>audio</mediatype>
													<trackindex>2</trackindex>
													<clipindex>1</clipindex>
													<groupindex>1</groupindex>
												</link>
											</clipitem>
										</track>
										<track>
											<clipitem id="clipitem-1430">
												<masterclipid>masterclip-4</masterclipid>
												<name>(allthesugartx)_CbDjTWdFjh3_IG.mp4</name>
												<rate>
													<timebase>30</timebase>
													<ntsc>FALSE</ntsc>
												</rate>
												<file id="file-3"/>
												<sourcetrack>
													<mediatype>audio</mediatype>
													<trackindex>2</trackindex>
												</sourcetrack>
												<link>
													<linkclipref>clipitem-1428</linkclipref>
													<mediatype>video</mediatype>
													<trackindex>1</trackindex>
													<clipindex>1</clipindex>
												</link>
												<link>
													<linkclipref>clipitem-1429</linkclipref>
													<mediatype>audio</mediatype>
													<trackindex>1</trackindex>
													<clipindex>1</clipindex>
													<groupindex>1</groupindex>
												</link>
												<link>
													<linkclipref>clipitem-1430</linkclipref>
													<mediatype>audio</mediatype>
													<trackindex>2</trackindex>
													<clipindex>1</clipindex>
													<groupindex>1</groupindex>
												</link>
											</clipitem>
										</track>
									</audio>
								</media>
								<logginginfo>
									<description></description>
									<scene></scene>
									<shottake></shottake>
									<lognote></lognote>
									<good></good>
									<originalvideofilename></originalvideofilename>
									<originalaudiofilename></originalaudiofilename>
								</logginginfo>
								<colorinfo>
									<lut></lut>
									<lut1></lut1>
									<asc_sop></asc_sop>
									<asc_sat></asc_sat>
									<lut2></lut2>
								</colorinfo>
								<labels>
									<label2>Violet</label2>
								</labels>
							</clip>
							<clip id="masterclip-2" explodedTracks="true">
								<uuid>82e44486-ddbd-458b-a7a6-effb8f25e2ae</uuid>
								<masterclipid>masterclip-2</masterclipid>
								<ismasterclip>TRUE</ismasterclip>
								<duration>383</duration>
								<rate>
									<timebase>30</timebase>
									<ntsc>FALSE</ntsc>
								</rate>
								<name>(allthesugartx)_CeOdP_ol9uw_IG.mp4</name>
								<media>
									<video>
										<track>
											<clipitem id="clipitem-1431">
												<masterclipid>masterclip-2</masterclipid>
												<name>(allthesugartx)_CeOdP_ol9uw_IG.mp4</name>
												<rate>
													<timebase>30</timebase>
													<ntsc>FALSE</ntsc>
												</rate>
												<alphatype>none</alphatype>
												<file id="file-1"/>
												<link>
													<linkclipref>clipitem-1431</linkclipref>
													<mediatype>video</mediatype>
													<trackindex>1</trackindex>
													<clipindex>1</clipindex>
												</link>
												<link>
													<linkclipref>clipitem-1432</linkclipref>
													<mediatype>audio</mediatype>
													<trackindex>1</trackindex>
													<clipindex>1</clipindex>
													<groupindex>1</groupindex>
												</link>
												<link>
													<linkclipref>clipitem-1433</linkclipref>
													<mediatype>audio</mediatype>
													<trackindex>2</trackindex>
													<clipindex>1</clipindex>
													<groupindex>1</groupindex>
												</link>
											</clipitem>
										</track>
									</video>
									<audio>
										<track>
											<clipitem id="clipitem-1432">
												<masterclipid>masterclip-2</masterclipid>
												<name>(allthesugartx)_CeOdP_ol9uw_IG.mp4</name>
												<rate>
													<timebase>30</timebase>
													<ntsc>FALSE</ntsc>
												</rate>
												<file id="file-1"/>
												<sourcetrack>
													<mediatype>audio</mediatype>
													<trackindex>1</trackindex>
												</sourcetrack>
												<link>
													<linkclipref>clipitem-1431</linkclipref>
													<mediatype>video</mediatype>
													<trackindex>1</trackindex>
													<clipindex>1</clipindex>
												</link>
												<link>
													<linkclipref>clipitem-1432</linkclipref>
													<mediatype>audio</mediatype>
													<trackindex>1</trackindex>
													<clipindex>1</clipindex>
													<groupindex>1</groupindex>
												</link>
												<link>
													<linkclipref>clipitem-1433</linkclipref>
													<mediatype>audio</mediatype>
													<trackindex>2</trackindex>
													<clipindex>1</clipindex>
													<groupindex>1</groupindex>
												</link>
											</clipitem>
										</track>
										<track>
											<clipitem id="clipitem-1433">
												<masterclipid>masterclip-2</masterclipid>
												<name>(allthesugartx)_CeOdP_ol9uw_IG.mp4</name>
												<rate>
													<timebase>30</timebase>
													<ntsc>FALSE</ntsc>
												</rate>
												<file id="file-1"/>
												<sourcetrack>
													<mediatype>audio</mediatype>
													<trackindex>2</trackindex>
												</sourcetrack>
												<link>
													<linkclipref>clipitem-1431</linkclipref>
													<mediatype>video</mediatype>
													<trackindex>1</trackindex>
													<clipindex>1</clipindex>
												</link>
												<link>
													<linkclipref>clipitem-1432</linkclipref>
													<mediatype>audio</mediatype>
													<trackindex>1</trackindex>
													<clipindex>1</clipindex>
													<groupindex>1</groupindex>
												</link>
												<link>
													<linkclipref>clipitem-1433</linkclipref>
													<mediatype>audio</mediatype>
													<trackindex>2</trackindex>
													<clipindex>1</clipindex>
													<groupindex>1</groupindex>
												</link>
											</clipitem>
										</track>
									</audio>
								</media>
								<logginginfo>
									<description></description>
									<scene></scene>
									<shottake></shottake>
									<lognote></lognote>
									<good></good>
									<originalvideofilename></originalvideofilename>
									<originalaudiofilename></originalaudiofilename>
								</logginginfo>
								<colorinfo>
									<lut></lut>
									<lut1></lut1>
									<asc_sop></asc_sop>
									<asc_sat></asc_sat>
									<lut2></lut2>
								</colorinfo>
								<labels>
									<label2>Violet</label2>
								</labels>
							</clip>
							<clip id="masterclip-3" explodedTracks="true">
								<uuid>bd9a265a-83e6-49e0-8cdf-60f3754d26e2</uuid>
								<masterclipid>masterclip-3</masterclipid>
								<ismasterclip>TRUE</ismasterclip>
								<duration>447</duration>
								<rate>
									<timebase>30</timebase>
									<ntsc>FALSE</ntsc>
								</rate>
								<name>(allthesugartx)_CeRAqsfFOPT_IG.mp4</name>
								<media>
									<video>
										<track>
											<clipitem id="clipitem-1434">
												<masterclipid>masterclip-3</masterclipid>
												<name>(allthesugartx)_CeRAqsfFOPT_IG.mp4</name>
												<rate>
													<timebase>30</timebase>
													<ntsc>FALSE</ntsc>
												</rate>
												<alphatype>none</alphatype>
												<file id="file-2"/>
												<link>
													<linkclipref>clipitem-1434</linkclipref>
													<mediatype>video</mediatype>
													<trackindex>1</trackindex>
													<clipindex>1</clipindex>
												</link>
												<link>
													<linkclipref>clipitem-1435</linkclipref>
													<mediatype>audio</mediatype>
													<trackindex>1</trackindex>
													<clipindex>1</clipindex>
													<groupindex>1</groupindex>
												</link>
												<link>
													<linkclipref>clipitem-1436</linkclipref>
													<mediatype>audio</mediatype>
													<trackindex>2</trackindex>
													<clipindex>1</clipindex>
													<groupindex>1</groupindex>
												</link>
											</clipitem>
										</track>
									</video>
									<audio>
										<track>
											<clipitem id="clipitem-1435">
												<masterclipid>masterclip-3</masterclipid>
												<name>(allthesugartx)_CeRAqsfFOPT_IG.mp4</name>
												<rate>
													<timebase>30</timebase>
													<ntsc>FALSE</ntsc>
												</rate>
												<file id="file-2"/>
												<sourcetrack>
													<mediatype>audio</mediatype>
													<trackindex>1</trackindex>
												</sourcetrack>
												<link>
													<linkclipref>clipitem-1434</linkclipref>
													<mediatype>video</mediatype>
													<trackindex>1</trackindex>
													<clipindex>1</clipindex>
												</link>
												<link>
													<linkclipref>clipitem-1435</linkclipref>
													<mediatype>audio</mediatype>
													<trackindex>1</trackindex>
													<clipindex>1</clipindex>
													<groupindex>1</groupindex>
												</link>
												<link>
													<linkclipref>clipitem-1436</linkclipref>
													<mediatype>audio</mediatype>
													<trackindex>2</trackindex>
													<clipindex>1</clipindex>
													<groupindex>1</groupindex>
												</link>
											</clipitem>
										</track>
										<track>
											<clipitem id="clipitem-1436">
												<masterclipid>masterclip-3</masterclipid>
												<name>(allthesugartx)_CeRAqsfFOPT_IG.mp4</name>
												<rate>
													<timebase>30</timebase>
													<ntsc>FALSE</ntsc>
												</rate>
												<file id="file-2"/>
												<sourcetrack>
													<mediatype>audio</mediatype>
													<trackindex>2</trackindex>
												</sourcetrack>
												<link>
													<linkclipref>clipitem-1434</linkclipref>
													<mediatype>video</mediatype>
													<trackindex>1</trackindex>
													<clipindex>1</clipindex>
												</link>
												<link>
													<linkclipref>clipitem-1435</linkclipref>
													<mediatype>audio</mediatype>
													<trackindex>1</trackindex>
													<clipindex>1</clipindex>
													<groupindex>1</groupindex>
												</link>
												<link>
													<linkclipref>clipitem-1436</linkclipref>
													<mediatype>audio</mediatype>
													<trackindex>2</trackindex>
													<clipindex>1</clipindex>
													<groupindex>1</groupindex>
												</link>
											</clipitem>
										</track>
									</audio>
								</media>
								<logginginfo>
									<description></description>
									<scene></scene>
									<shottake></shottake>
									<lognote></lognote>
									<good></good>
									<originalvideofilename></originalvideofilename>
									<originalaudiofilename></originalaudiofilename>
								</logginginfo>
								<colorinfo>
									<lut></lut>
									<lut1></lut1>
									<asc_sop></asc_sop>
									<asc_sat></asc_sat>
									<lut2></lut2>
								</colorinfo>
								<labels>
									<label2>Violet</label2>
								</labels>
							</clip>
							<clip id="masterclip-5" explodedTracks="true">
								<uuid>3d0e46e2-c834-40bf-9f33-a8d03804519a</uuid>
								<masterclipid>masterclip-5</masterclipid>
								<ismasterclip>TRUE</ismasterclip>
								<duration>372</duration>
								<rate>
									<timebase>30</timebase>
									<ntsc>FALSE</ntsc>
								</rate>
								<name>(allthesugartx)_CeV_fcTlB4x_IG.mp4</name>
								<media>
									<video>
										<track>
											<clipitem id="clipitem-1437">
												<masterclipid>masterclip-5</masterclipid>
												<name>(allthesugartx)_CeV_fcTlB4x_IG.mp4</name>
												<rate>
													<timebase>30</timebase>
													<ntsc>FALSE</ntsc>
												</rate>
												<alphatype>none</alphatype>
												<file id="file-4"/>
												<link>
													<linkclipref>clipitem-1437</linkclipref>
													<mediatype>video</mediatype>
													<trackindex>1</trackindex>
													<clipindex>1</clipindex>
												</link>
												<link>
													<linkclipref>clipitem-1438</linkclipref>
													<mediatype>audio</mediatype>
													<trackindex>1</trackindex>
													<clipindex>1</clipindex>
													<groupindex>1</groupindex>
												</link>
												<link>
													<linkclipref>clipitem-1439</linkclipref>
													<mediatype>audio</mediatype>
													<trackindex>2</trackindex>
													<clipindex>1</clipindex>
													<groupindex>1</groupindex>
												</link>
											</clipitem>
										</track>
									</video>
									<audio>
										<track>
											<clipitem id="clipitem-1438">
												<masterclipid>masterclip-5</masterclipid>
												<name>(allthesugartx)_CeV_fcTlB4x_IG.mp4</name>
												<rate>
													<timebase>30</timebase>
													<ntsc>FALSE</ntsc>
												</rate>
												<file id="file-4"/>
												<sourcetrack>
													<mediatype>audio</mediatype>
													<trackindex>1</trackindex>
												</sourcetrack>
												<link>
													<linkclipref>clipitem-1437</linkclipref>
													<mediatype>video</mediatype>
													<trackindex>1</trackindex>
													<clipindex>1</clipindex>
												</link>
												<link>
													<linkclipref>clipitem-1438</linkclipref>
													<mediatype>audio</mediatype>
													<trackindex>1</trackindex>
													<clipindex>1</clipindex>
													<groupindex>1</groupindex>
												</link>
												<link>
													<linkclipref>clipitem-1439</linkclipref>
													<mediatype>audio</mediatype>
													<trackindex>2</trackindex>
													<clipindex>1</clipindex>
													<groupindex>1</groupindex>
												</link>
											</clipitem>
										</track>
										<track>
											<clipitem id="clipitem-1439">
												<masterclipid>masterclip-5</masterclipid>
												<name>(allthesugartx)_CeV_fcTlB4x_IG.mp4</name>
												<rate>
													<timebase>30</timebase>
													<ntsc>FALSE</ntsc>
												</rate>
												<file id="file-4"/>
												<sourcetrack>
													<mediatype>audio</mediatype>
													<trackindex>2</trackindex>
												</sourcetrack>
												<link>
													<linkclipref>clipitem-1437</linkclipref>
													<mediatype>video</mediatype>
													<trackindex>1</trackindex>
													<clipindex>1</clipindex>
												</link>
												<link>
													<linkclipref>clipitem-1438</linkclipref>
													<mediatype>audio</mediatype>
													<trackindex>1</trackindex>
													<clipindex>1</clipindex>
													<groupindex>1</groupindex>
												</link>
												<link>
													<linkclipref>clipitem-1439</linkclipref>
													<mediatype>audio</mediatype>
													<trackindex>2</trackindex>
													<clipindex>1</clipindex>
													<groupindex>1</groupindex>
												</link>
											</clipitem>
										</track>
									</audio>
								</media>
								<logginginfo>
									<description></description>
									<scene></scene>
									<shottake></shottake>
									<lognote></lognote>
									<good></good>
									<originalvideofilename></originalvideofilename>
									<originalaudiofilename></originalaudiofilename>
								</logginginfo>
								<colorinfo>
									<lut></lut>
									<lut1></lut1>
									<asc_sop></asc_sop>
									<asc_sat></asc_sat>
									<lut2></lut2>
								</colorinfo>
								<labels>
									<label2>Violet</label2>
								</labels>
							</clip>
						</children>
					</bin>
					<bin>
						<name>Clementines</name>
						<children>
							<clip id="masterclip-126" explodedTracks="true">
								<uuid>032d2224-d364-407a-bbd1-5da14c6da411</uuid>
								<masterclipid>masterclip-126</masterclipid>
								<ismasterclip>TRUE</ismasterclip>
								<duration>186</duration>
								<rate>
									<timebase>24</timebase>
									<ntsc>FALSE</ntsc>
								</rate>
								<out>151</out>
								<name>21068_Fresh clementine bounces off of a stone counter_By_Ira_Belsky_Artlist_HD.mp4</name>
								<media>
									<video>
										<track>
											<clipitem id="clipitem-1440">
												<masterclipid>masterclip-126</masterclipid>
												<name>21068_Fresh clementine bounces off of a stone counter_By_Ira_Belsky_Artlist_HD.mp4</name>
												<rate>
													<timebase>24</timebase>
													<ntsc>FALSE</ntsc>
												</rate>
												<alphatype>none</alphatype>
												<file id="file-108"/>
											</clipitem>
										</track>
									</video>
								</media>
								<logginginfo>
									<description></description>
									<scene></scene>
									<shottake></shottake>
									<lognote></lognote>
									<good></good>
									<originalvideofilename></originalvideofilename>
									<originalaudiofilename></originalaudiofilename>
								</logginginfo>
								<colorinfo>
									<lut></lut>
									<lut1></lut1>
									<asc_sop></asc_sop>
									<asc_sat></asc_sat>
									<lut2></lut2>
								</colorinfo>
								<labels>
								</labels>
							</clip>
							<clip id="masterclip-129" explodedTracks="true">
								<uuid>874e55a9-1710-48f4-9ef1-6befd9029a47</uuid>
								<masterclipid>masterclip-129</masterclipid>
								<ismasterclip>TRUE</ismasterclip>
								<duration>201</duration>
								<rate>
									<timebase>24</timebase>
									<ntsc>FALSE</ntsc>
								</rate>
								<in>28</in>
								<out>151</out>
								<name>21069_Fresh clementine splashing into water on a counter top_By_Ira_Belsky_Artlist_HD.mp4</name>
								<media>
									<video>
										<track>
											<clipitem id="clipitem-1441">
												<masterclipid>masterclip-129</masterclipid>
												<name>21069_Fresh clementine splashing into water on a counter top_By_Ira_Belsky_Artlist_HD.mp4</name>
												<rate>
													<timebase>24</timebase>
													<ntsc>FALSE</ntsc>
												</rate>
												<alphatype>none</alphatype>
												<file id="file-111"/>
											</clipitem>
										</track>
									</video>
								</media>
								<logginginfo>
									<description></description>
									<scene></scene>
									<shottake></shottake>
									<lognote></lognote>
									<good></good>
									<originalvideofilename></originalvideofilename>
									<originalaudiofilename></originalaudiofilename>
								</logginginfo>
								<colorinfo>
									<lut></lut>
									<lut1></lut1>
									<asc_sop></asc_sop>
									<asc_sat></asc_sat>
									<lut2></lut2>
								</colorinfo>
								<labels>
								</labels>
							</clip>
							<clip id="masterclip-131" explodedTracks="true">
								<uuid>6404c9f2-81d4-47af-8289-fc1a6660a410</uuid>
								<masterclipid>masterclip-131</masterclipid>
								<ismasterclip>TRUE</ismasterclip>
								<duration>193</duration>
								<rate>
									<timebase>24</timebase>
									<ntsc>FALSE</ntsc>
								</rate>
								<in>29</in>
								<out>146</out>
								<name>21070_Fresh clementine splashing onto a wet counter top_By_Ira_Belsky_Artlist_HD.mp4</name>
								<media>
									<video>
										<track>
											<clipitem id="clipitem-1442">
												<masterclipid>masterclip-131</masterclipid>
												<name>21070_Fresh clementine splashing onto a wet counter top_By_Ira_Belsky_Artlist_HD.mp4</name>
												<rate>
													<timebase>24</timebase>
													<ntsc>FALSE</ntsc>
												</rate>
												<alphatype>none</alphatype>
												<file id="file-113"/>
											</clipitem>
										</track>
									</video>
								</media>
								<logginginfo>
									<description></description>
									<scene></scene>
									<shottake></shottake>
									<lognote></lognote>
									<good></good>
									<originalvideofilename></originalvideofilename>
									<originalaudiofilename></originalaudiofilename>
								</logginginfo>
								<colorinfo>
									<lut></lut>
									<lut1></lut1>
									<asc_sop></asc_sop>
									<asc_sat></asc_sat>
									<lut2></lut2>
								</colorinfo>
								<labels>
								</labels>
							</clip>
							<clip id="masterclip-124" explodedTracks="true">
								<uuid>af199c54-5d79-4f32-8988-ca3ede8ee89d</uuid>
								<masterclipid>masterclip-124</masterclipid>
								<ismasterclip>TRUE</ismasterclip>
								<duration>321</duration>
								<rate>
									<timebase>24</timebase>
									<ntsc>FALSE</ntsc>
								</rate>
								<out>194</out>
								<name>21071_Fresh clementine hitting a wet counter top and breaking in half_By_Ira_Belsky_Artlist_HD.mp4</name>
								<media>
									<video>
										<track>
											<clipitem id="clipitem-1443">
												<masterclipid>masterclip-124</masterclipid>
												<name>21071_Fresh clementine hitting a wet counter top and breaking in half_By_Ira_Belsky_Artlist_HD.mp4</name>
												<rate>
													<timebase>24</timebase>
													<ntsc>FALSE</ntsc>
												</rate>
												<alphatype>none</alphatype>
												<file id="file-106"/>
											</clipitem>
										</track>
									</video>
								</media>
								<logginginfo>
									<description></description>
									<scene></scene>
									<shottake></shottake>
									<lognote></lognote>
									<good></good>
									<originalvideofilename></originalvideofilename>
									<originalaudiofilename></originalaudiofilename>
								</logginginfo>
								<colorinfo>
									<lut></lut>
									<lut1></lut1>
									<asc_sop></asc_sop>
									<asc_sat></asc_sat>
									<lut2></lut2>
								</colorinfo>
								<labels>
								</labels>
							</clip>
							<clip id="masterclip-125" explodedTracks="true">
								<uuid>e8fc0751-fad2-4d26-b525-0bf1dd351b3e</uuid>
								<masterclipid>masterclip-125</masterclipid>
								<ismasterclip>TRUE</ismasterclip>
								<duration>362</duration>
								<rate>
									<timebase>24</timebase>
									<ntsc>FALSE</ntsc>
								</rate>
								<in>77</in>
								<out>325</out>
								<name>21072_Person squeezing half a clementine and letting the juice drip down_By_Ira_Belsky_Artlist_HD.mp4</name>
								<media>
									<video>
										<track>
											<clipitem id="clipitem-1444">
												<masterclipid>masterclip-125</masterclipid>
												<name>21072_Person squeezing half a clementine and letting the juice drip down_By_Ira_Belsky_Artlist_HD.mp4</name>
												<rate>
													<timebase>24</timebase>
													<ntsc>FALSE</ntsc>
												</rate>
												<alphatype>none</alphatype>
												<file id="file-107"/>
											</clipitem>
										</track>
									</video>
								</media>
								<logginginfo>
									<description></description>
									<scene></scene>
									<shottake></shottake>
									<lognote></lognote>
									<good></good>
									<originalvideofilename></originalvideofilename>
									<originalaudiofilename></originalaudiofilename>
								</logginginfo>
								<colorinfo>
									<lut></lut>
									<lut1></lut1>
									<asc_sop></asc_sop>
									<asc_sat></asc_sat>
									<lut2></lut2>
								</colorinfo>
								<labels>
								</labels>
							</clip>
							<clip id="masterclip-128" explodedTracks="true">
								<uuid>4ca396c8-8b60-46a1-8add-cd4f7729c3f2</uuid>
								<masterclipid>masterclip-128</masterclipid>
								<ismasterclip>TRUE</ismasterclip>
								<duration>322</duration>
								<rate>
									<timebase>24</timebase>
									<ntsc>FALSE</ntsc>
								</rate>
								<out>246</out>
								<name>21073_Person squeezing a fresh clementine_By_Ira_Belsky_Artlist_HD.mp4</name>
								<media>
									<video>
										<track>
											<clipitem id="clipitem-1445">
												<masterclipid>masterclip-128</masterclipid>
												<name>21073_Person squeezing a fresh clementine_By_Ira_Belsky_Artlist_HD.mp4</name>
												<rate>
													<timebase>24</timebase>
													<ntsc>FALSE</ntsc>
												</rate>
												<alphatype>none</alphatype>
												<file id="file-110"/>
											</clipitem>
										</track>
									</video>
								</media>
								<logginginfo>
									<description></description>
									<scene></scene>
									<shottake></shottake>
									<lognote></lognote>
									<good></good>
									<originalvideofilename></originalvideofilename>
									<originalaudiofilename></originalaudiofilename>
								</logginginfo>
								<colorinfo>
									<lut></lut>
									<lut1></lut1>
									<asc_sop></asc_sop>
									<asc_sat></asc_sat>
									<lut2></lut2>
								</colorinfo>
								<labels>
								</labels>
							</clip>
							<clip id="masterclip-127" explodedTracks="true">
								<uuid>f31583ac-3549-46ae-ad41-1b49f254e1e0</uuid>
								<masterclipid>masterclip-127</masterclipid>
								<ismasterclip>TRUE</ismasterclip>
								<duration>252</duration>
								<rate>
									<timebase>24</timebase>
									<ntsc>FALSE</ntsc>
								</rate>
								<out>213</out>
								<name>21074_Fresh clementines falling into a bowl of water_By_Ira_Belsky_Artlist_HD.mp4</name>
								<media>
									<video>
										<track>
											<clipitem id="clipitem-1446">
												<masterclipid>masterclip-127</masterclipid>
												<name>21074_Fresh clementines falling into a bowl of water_By_Ira_Belsky_Artlist_HD.mp4</name>
												<rate>
													<timebase>24</timebase>
													<ntsc>FALSE</ntsc>
												</rate>
												<alphatype>none</alphatype>
												<file id="file-109"/>
											</clipitem>
										</track>
									</video>
								</media>
								<logginginfo>
									<description></description>
									<scene></scene>
									<shottake></shottake>
									<lognote></lognote>
									<good></good>
									<originalvideofilename></originalvideofilename>
									<originalaudiofilename></originalaudiofilename>
								</logginginfo>
								<colorinfo>
									<lut></lut>
									<lut1></lut1>
									<asc_sop></asc_sop>
									<asc_sat></asc_sat>
									<lut2></lut2>
								</colorinfo>
								<labels>
								</labels>
							</clip>
							<clip id="masterclip-283" explodedTracks="true">
								<uuid>54dfd5e0-06c8-4de0-b68f-37820cb47c23</uuid>
								<masterclipid>masterclip-283</masterclipid>
								<ismasterclip>TRUE</ismasterclip>
								<duration>113</duration>
								<rate>
									<timebase>24</timebase>
									<ntsc>FALSE</ntsc>
								</rate>
								<name>21075_Fresh clementines floating in a bowl of water_By_Ira_Belsky_Artlist_HD.mp4</name>
								<media>
									<video>
										<track>
											<clipitem id="clipitem-1447">
												<masterclipid>masterclip-283</masterclipid>
												<name>21075_Fresh clementines floating in a bowl of water_By_Ira_Belsky_Artlist_HD.mp4</name>
												<rate>
													<timebase>24</timebase>
													<ntsc>FALSE</ntsc>
												</rate>
												<alphatype>none</alphatype>
												<pixelaspectratio>PAL-601</pixelaspectratio>
												<anamorphic>FALSE</anamorphic>
												<file id="file-247">
													<name>21075_Fresh clementines floating in a bowl of water_By_Ira_Belsky_Artlist_HD.mp4</name>
													<pathurl>file://localhost/Volumes/ATM%201/EYE%20CANDY/8%3a14%3a23/3_Raw%20Files/Clementines/21075_Fresh%20clementines%20floating%20in%20a%20bowl%20of%20water_By_Ira_Belsky_Artlist_HD.mp4</pathurl>
													<rate>
														<timebase>24</timebase>
														<ntsc>FALSE</ntsc>
													</rate>
													<duration>113</duration>
													<timecode>
														<rate>
															<timebase>24</timebase>
															<ntsc>FALSE</ntsc>
														</rate>
														<string>13:12:21:18</string>
														<frame>1141002</frame>
														<displayformat>NDF</displayformat>
													</timecode>
													<media>
														<video>
															<samplecharacteristics>
																<rate>
																	<timebase>24</timebase>
																	<ntsc>FALSE</ntsc>
																</rate>
																<width>1920</width>
																<height>1080</height>
																<anamorphic>FALSE</anamorphic>
																<pixelaspectratio>PAL-601</pixelaspectratio>
																<fielddominance>none</fielddominance>
															</samplecharacteristics>
														</video>
													</media>
												</file>
											</clipitem>
										</track>
									</video>
								</media>
								<logginginfo>
									<description></description>
									<scene></scene>
									<shottake></shottake>
									<lognote></lognote>
									<good></good>
									<originalvideofilename></originalvideofilename>
									<originalaudiofilename></originalaudiofilename>
								</logginginfo>
								<colorinfo>
									<lut></lut>
									<lut1></lut1>
									<asc_sop></asc_sop>
									<asc_sat></asc_sat>
									<lut2></lut2>
								</colorinfo>
								<labels>
								</labels>
							</clip>
							<clip id="masterclip-130" explodedTracks="true">
								<uuid>89fc9d81-5a7a-4add-862f-b28827077018</uuid>
								<masterclipid>masterclip-130</masterclipid>
								<ismasterclip>TRUE</ismasterclip>
								<duration>189</duration>
								<rate>
									<timebase>24</timebase>
									<ntsc>FALSE</ntsc>
								</rate>
								<name>21076_Fresh clementines falling into a glass bowl of water_By_Ira_Belsky_Artlist_HD.mp4</name>
								<media>
									<video>
										<track>
											<clipitem id="clipitem-1448">
												<masterclipid>masterclip-130</masterclipid>
												<name>21076_Fresh clementines falling into a glass bowl of water_By_Ira_Belsky_Artlist_HD.mp4</name>
												<rate>
													<timebase>24</timebase>
													<ntsc>FALSE</ntsc>
												</rate>
												<alphatype>none</alphatype>
												<file id="file-112"/>
											</clipitem>
										</track>
									</video>
								</media>
								<logginginfo>
									<description></description>
									<scene></scene>
									<shottake></shottake>
									<lognote></lognote>
									<good></good>
									<originalvideofilename></originalvideofilename>
									<originalaudiofilename></originalaudiofilename>
								</logginginfo>
								<colorinfo>
									<lut></lut>
									<lut1></lut1>
									<asc_sop></asc_sop>
									<asc_sat></asc_sat>
									<lut2></lut2>
								</colorinfo>
								<labels>
								</labels>
							</clip>
						</children>
					</bin>
					<clip id="masterclip-26" explodedTracks="true">
						<uuid>714e081b-e2e3-444f-a32c-6f51d46f0997</uuid>
						<masterclipid>masterclip-26</masterclipid>
						<ismasterclip>TRUE</ismasterclip>
						<duration>17736</duration>
						<rate>
							<timebase>60</timebase>
							<ntsc>TRUE</ntsc>
						</rate>
						<in>17258</in>
						<out>17548</out>
						<name>(Tuba Geçkil)_Realistic Nature and Jelly Cake_Pc3GNzhoGsc_YT.mp4</name>
						<media>
							<video>
								<track>
									<clipitem id="clipitem-1449">
										<masterclipid>masterclip-26</masterclipid>
										<name>(Tuba Geçkil)_Realistic Nature and Jelly Cake_Pc3GNzhoGsc_YT.mp4</name>
										<rate>
											<timebase>60</timebase>
											<ntsc>TRUE</ntsc>
										</rate>
										<alphatype>none</alphatype>
										<file id="file-20"/>
										<link>
											<linkclipref>clipitem-1449</linkclipref>
											<mediatype>video</mediatype>
											<trackindex>1</trackindex>
											<clipindex>1</clipindex>
										</link>
										<link>
											<linkclipref>clipitem-1450</linkclipref>
											<mediatype>audio</mediatype>
											<trackindex>1</trackindex>
											<clipindex>1</clipindex>
											<groupindex>1</groupindex>
										</link>
										<link>
											<linkclipref>clipitem-1451</linkclipref>
											<mediatype>audio</mediatype>
											<trackindex>2</trackindex>
											<clipindex>1</clipindex>
											<groupindex>1</groupindex>
										</link>
									</clipitem>
								</track>
							</video>
							<audio>
								<track>
									<clipitem id="clipitem-1450">
										<masterclipid>masterclip-26</masterclipid>
										<name>(Tuba Geçkil)_Realistic Nature and Jelly Cake_Pc3GNzhoGsc_YT.mp4</name>
										<rate>
											<timebase>60</timebase>
											<ntsc>TRUE</ntsc>
										</rate>
										<file id="file-20"/>
										<sourcetrack>
											<mediatype>audio</mediatype>
											<trackindex>1</trackindex>
										</sourcetrack>
										<link>
											<linkclipref>clipitem-1449</linkclipref>
											<mediatype>video</mediatype>
											<trackindex>1</trackindex>
											<clipindex>1</clipindex>
										</link>
										<link>
											<linkclipref>clipitem-1450</linkclipref>
											<mediatype>audio</mediatype>
											<trackindex>1</trackindex>
											<clipindex>1</clipindex>
											<groupindex>1</groupindex>
										</link>
										<link>
											<linkclipref>clipitem-1451</linkclipref>
											<mediatype>audio</mediatype>
											<trackindex>2</trackindex>
											<clipindex>1</clipindex>
											<groupindex>1</groupindex>
										</link>
									</clipitem>
								</track>
								<track>
									<clipitem id="clipitem-1451">
										<masterclipid>masterclip-26</masterclipid>
										<name>(Tuba Geçkil)_Realistic Nature and Jelly Cake_Pc3GNzhoGsc_YT.mp4</name>
										<rate>
											<timebase>60</timebase>
											<ntsc>TRUE</ntsc>
										</rate>
										<file id="file-20"/>
										<sourcetrack>
											<mediatype>audio</mediatype>
											<trackindex>2</trackindex>
										</sourcetrack>
										<link>
											<linkclipref>clipitem-1449</linkclipref>
											<mediatype>video</mediatype>
											<trackindex>1</trackindex>
											<clipindex>1</clipindex>
										</link>
										<link>
											<linkclipref>clipitem-1450</linkclipref>
											<mediatype>audio</mediatype>
											<trackindex>1</trackindex>
											<clipindex>1</clipindex>
											<groupindex>1</groupindex>
										</link>
										<link>
											<linkclipref>clipitem-1451</linkclipref>
											<mediatype>audio</mediatype>
											<trackindex>2</trackindex>
											<clipindex>1</clipindex>
											<groupindex>1</groupindex>
										</link>
									</clipitem>
								</track>
							</audio>
						</media>
						<logginginfo>
							<description>Realistic Nature and Jelly Cake</description>
							<scene></scene>
							<shottake></shottake>
							<lognote>https://www.youtube.com/watch?v=Pc3GNzhoGsc</lognote>
							<good></good>
							<originalvideofilename></originalvideofilename>
							<originalaudiofilename></originalaudiofilename>
						</logginginfo>
						<colorinfo>
							<lut></lut>
							<lut1></lut1>
							<asc_sop></asc_sop>
							<asc_sat></asc_sat>
							<lut2></lut2>
						</colorinfo>
						<labels>
							<label2>Iris</label2>
						</labels>
					</clip>
					<bin>
						<name>space</name>
						<children>
							<clip id="masterclip-71" explodedTracks="true">
								<uuid>3af0b9fa-5677-4fb0-9887-2911f5f7908c</uuid>
								<masterclipid>masterclip-71</masterclipid>
								<ismasterclip>TRUE</ismasterclip>
								<duration>858</duration>
								<rate>
									<timebase>30</timebase>
									<ntsc>FALSE</ntsc>
								</rate>
								<name>(allthesugartx)_CZr5I4IJ1K9_IG.mp4</name>
								<media>
									<video>
										<track>
											<clipitem id="clipitem-1452">
												<masterclipid>masterclip-71</masterclipid>
												<name>(allthesugartx)_CZr5I4IJ1K9_IG.mp4</name>
												<rate>
													<timebase>30</timebase>
													<ntsc>FALSE</ntsc>
												</rate>
												<alphatype>none</alphatype>
												<file id="file-59"/>
												<link>
													<linkclipref>clipitem-1452</linkclipref>
													<mediatype>video</mediatype>
													<trackindex>1</trackindex>
													<clipindex>1</clipindex>
												</link>
												<link>
													<linkclipref>clipitem-1453</linkclipref>
													<mediatype>audio</mediatype>
													<trackindex>1</trackindex>
													<clipindex>1</clipindex>
													<groupindex>1</groupindex>
												</link>
												<link>
													<linkclipref>clipitem-1454</linkclipref>
													<mediatype>audio</mediatype>
													<trackindex>2</trackindex>
													<clipindex>1</clipindex>
													<groupindex>1</groupindex>
												</link>
											</clipitem>
										</track>
									</video>
									<audio>
										<track>
											<clipitem id="clipitem-1453">
												<masterclipid>masterclip-71</masterclipid>
												<name>(allthesugartx)_CZr5I4IJ1K9_IG.mp4</name>
												<rate>
													<timebase>30</timebase>
													<ntsc>FALSE</ntsc>
												</rate>
												<file id="file-59"/>
												<sourcetrack>
													<mediatype>audio</mediatype>
													<trackindex>1</trackindex>
												</sourcetrack>
												<link>
													<linkclipref>clipitem-1452</linkclipref>
													<mediatype>video</mediatype>
													<trackindex>1</trackindex>
													<clipindex>1</clipindex>
												</link>
												<link>
													<linkclipref>clipitem-1453</linkclipref>
													<mediatype>audio</mediatype>
													<trackindex>1</trackindex>
													<clipindex>1</clipindex>
													<groupindex>1</groupindex>
												</link>
												<link>
													<linkclipref>clipitem-1454</linkclipref>
													<mediatype>audio</mediatype>
													<trackindex>2</trackindex>
													<clipindex>1</clipindex>
													<groupindex>1</groupindex>
												</link>
											</clipitem>
										</track>
										<track>
											<clipitem id="clipitem-1454">
												<masterclipid>masterclip-71</masterclipid>
												<name>(allthesugartx)_CZr5I4IJ1K9_IG.mp4</name>
												<rate>
													<timebase>30</timebase>
													<ntsc>FALSE</ntsc>
												</rate>
												<file id="file-59"/>
												<sourcetrack>
													<mediatype>audio</mediatype>
													<trackindex>2</trackindex>
												</sourcetrack>
												<link>
													<linkclipref>clipitem-1452</linkclipref>
													<mediatype>video</mediatype>
													<trackindex>1</trackindex>
													<clipindex>1</clipindex>
												</link>
												<link>
													<linkclipref>clipitem-1453</linkclipref>
													<mediatype>audio</mediatype>
													<trackindex>1</trackindex>
													<clipindex>1</clipindex>
													<groupindex>1</groupindex>
												</link>
												<link>
													<linkclipref>clipitem-1454</linkclipref>
													<mediatype>audio</mediatype>
													<trackindex>2</trackindex>
													<clipindex>1</clipindex>
													<groupindex>1</groupindex>
												</link>
											</clipitem>
										</track>
									</audio>
								</media>
								<logginginfo>
									<description></description>
									<scene></scene>
									<shottake></shottake>
									<lognote></lognote>
									<good></good>
									<originalvideofilename></originalvideofilename>
									<originalaudiofilename></originalaudiofilename>
								</logginginfo>
								<colorinfo>
									<lut></lut>
									<lut1></lut1>
									<asc_sop></asc_sop>
									<asc_sat></asc_sat>
									<lut2></lut2>
								</colorinfo>
								<labels>
									<label2>Violet</label2>
								</labels>
							</clip>
							<clip id="masterclip-75" explodedTracks="true">
								<uuid>4a6ddea3-5df2-4165-8774-7778fa0d66c5</uuid>
								<masterclipid>masterclip-75</masterclipid>
								<ismasterclip>TRUE</ismasterclip>
								<duration>441</duration>
								<rate>
									<timebase>30</timebase>
									<ntsc>FALSE</ntsc>
								</rate>
								<name>(bakedbyprecious)_7089443248351087918_TT.mp4</name>
								<media>
									<video>
										<track>
											<clipitem id="clipitem-1455">
												<masterclipid>masterclip-75</masterclipid>
												<name>(bakedbyprecious)_7089443248351087918_TT.mp4</name>
												<rate>
													<timebase>30</timebase>
													<ntsc>FALSE</ntsc>
												</rate>
												<alphatype>none</alphatype>
												<file id="file-63"/>
												<link>
													<linkclipref>clipitem-1455</linkclipref>
													<mediatype>video</mediatype>
													<trackindex>1</trackindex>
													<clipindex>1</clipindex>
												</link>
												<link>
													<linkclipref>clipitem-1456</linkclipref>
													<mediatype>audio</mediatype>
													<trackindex>1</trackindex>
													<clipindex>1</clipindex>
													<groupindex>1</groupindex>
												</link>
												<link>
													<linkclipref>clipitem-1457</linkclipref>
													<mediatype>audio</mediatype>
													<trackindex>2</trackindex>
													<clipindex>1</clipindex>
													<groupindex>1</groupindex>
												</link>
											</clipitem>
										</track>
									</video>
									<audio>
										<track>
											<clipitem id="clipitem-1456">
												<masterclipid>masterclip-75</masterclipid>
												<name>(bakedbyprecious)_7089443248351087918_TT.mp4</name>
												<rate>
													<timebase>30</timebase>
													<ntsc>FALSE</ntsc>
												</rate>
												<file id="file-63"/>
												<sourcetrack>
													<mediatype>audio</mediatype>
													<trackindex>1</trackindex>
												</sourcetrack>
												<link>
													<linkclipref>clipitem-1455</linkclipref>
													<mediatype>video</mediatype>
													<trackindex>1</trackindex>
													<clipindex>1</clipindex>
												</link>
												<link>
													<linkclipref>clipitem-1456</linkclipref>
													<mediatype>audio</mediatype>
													<trackindex>1</trackindex>
													<clipindex>1</clipindex>
													<groupindex>1</groupindex>
												</link>
												<link>
													<linkclipref>clipitem-1457</linkclipref>
													<mediatype>audio</mediatype>
													<trackindex>2</trackindex>
													<clipindex>1</clipindex>
													<groupindex>1</groupindex>
												</link>
											</clipitem>
										</track>
										<track>
											<clipitem id="clipitem-1457">
												<masterclipid>masterclip-75</masterclipid>
												<name>(bakedbyprecious)_7089443248351087918_TT.mp4</name>
												<rate>
													<timebase>30</timebase>
													<ntsc>FALSE</ntsc>
												</rate>
												<file id="file-63"/>
												<sourcetrack>
													<mediatype>audio</mediatype>
													<trackindex>2</trackindex>
												</sourcetrack>
												<link>
													<linkclipref>clipitem-1455</linkclipref>
													<mediatype>video</mediatype>
													<trackindex>1</trackindex>
													<clipindex>1</clipindex>
												</link>
												<link>
													<linkclipref>clipitem-1456</linkclipref>
													<mediatype>audio</mediatype>
													<trackindex>1</trackindex>
													<clipindex>1</clipindex>
													<groupindex>1</groupindex>
												</link>
												<link>
													<linkclipref>clipitem-1457</linkclipref>
													<mediatype>audio</mediatype>
													<trackindex>2</trackindex>
													<clipindex>1</clipindex>
													<groupindex>1</groupindex>
												</link>
											</clipitem>
										</track>
									</audio>
								</media>
								<logginginfo>
									<description></description>
									<scene></scene>
									<shottake></shottake>
									<lognote></lognote>
									<good></good>
									<originalvideofilename></originalvideofilename>
									<originalaudiofilename></originalaudiofilename>
								</logginginfo>
								<colorinfo>
									<lut></lut>
									<lut1></lut1>
									<asc_sop></asc_sop>
									<asc_sat></asc_sat>
									<lut2></lut2>
								</colorinfo>
								<labels>
									<label2>Violet</label2>
								</labels>
							</clip>
							<clip id="masterclip-70" explodedTracks="true">
								<uuid>e4a337d9-a9eb-4019-9ba8-3c23b3851bf0</uuid>
								<masterclipid>masterclip-70</masterclipid>
								<ismasterclip>TRUE</ismasterclip>
								<duration>709</duration>
								<rate>
									<timebase>30</timebase>
									<ntsc>FALSE</ntsc>
								</rate>
								<in>408</in>
								<out>655</out>
								<name>(bakedbyprecious)_7109112263172328750_TT.mp4</name>
								<media>
									<video>
										<track>
											<clipitem id="clipitem-1458">
												<masterclipid>masterclip-70</masterclipid>
												<name>(bakedbyprecious)_7109112263172328750_TT.mp4</name>
												<rate>
													<timebase>30</timebase>
													<ntsc>FALSE</ntsc>
												</rate>
												<alphatype>none</alphatype>
												<file id="file-58"/>
												<link>
													<linkclipref>clipitem-1458</linkclipref>
													<mediatype>video</mediatype>
													<trackindex>1</trackindex>
													<clipindex>1</clipindex>
												</link>
												<link>
													<linkclipref>clipitem-1459</linkclipref>
													<mediatype>audio</mediatype>
													<trackindex>1</trackindex>
													<clipindex>1</clipindex>
													<groupindex>1</groupindex>
												</link>
												<link>
													<linkclipref>clipitem-1460</linkclipref>
													<mediatype>audio</mediatype>
													<trackindex>2</trackindex>
													<clipindex>1</clipindex>
													<groupindex>1</groupindex>
												</link>
											</clipitem>
										</track>
									</video>
									<audio>
										<track>
											<clipitem id="clipitem-1459">
												<masterclipid>masterclip-70</masterclipid>
												<name>(bakedbyprecious)_7109112263172328750_TT.mp4</name>
												<rate>
													<timebase>30</timebase>
													<ntsc>FALSE</ntsc>
												</rate>
												<file id="file-58"/>
												<sourcetrack>
													<mediatype>audio</mediatype>
													<trackindex>1</trackindex>
												</sourcetrack>
												<link>
													<linkclipref>clipitem-1458</linkclipref>
													<mediatype>video</mediatype>
													<trackindex>1</trackindex>
													<clipindex>1</clipindex>
												</link>
												<link>
													<linkclipref>clipitem-1459</linkclipref>
													<mediatype>audio</mediatype>
													<trackindex>1</trackindex>
													<clipindex>1</clipindex>
													<groupindex>1</groupindex>
												</link>
												<link>
													<linkclipref>clipitem-1460</linkclipref>
													<mediatype>audio</mediatype>
													<trackindex>2</trackindex>
													<clipindex>1</clipindex>
													<groupindex>1</groupindex>
												</link>
											</clipitem>
										</track>
										<track>
											<clipitem id="clipitem-1460">
												<masterclipid>masterclip-70</masterclipid>
												<name>(bakedbyprecious)_7109112263172328750_TT.mp4</name>
												<rate>
													<timebase>30</timebase>
													<ntsc>FALSE</ntsc>
												</rate>
												<file id="file-58"/>
												<sourcetrack>
													<mediatype>audio</mediatype>
													<trackindex>2</trackindex>
												</sourcetrack>
												<link>
													<linkclipref>clipitem-1458</linkclipref>
													<mediatype>video</mediatype>
													<trackindex>1</trackindex>
													<clipindex>1</clipindex>
												</link>
												<link>
													<linkclipref>clipitem-1459</linkclipref>
													<mediatype>audio</mediatype>
													<trackindex>1</trackindex>
													<clipindex>1</clipindex>
													<groupindex>1</groupindex>
												</link>
												<link>
													<linkclipref>clipitem-1460</linkclipref>
													<mediatype>audio</mediatype>
													<trackindex>2</trackindex>
													<clipindex>1</clipindex>
													<groupindex>1</groupindex>
												</link>
											</clipitem>
										</track>
									</audio>
								</media>
								<logginginfo>
									<description></description>
									<scene></scene>
									<shottake></shottake>
									<lognote></lognote>
									<good></good>
									<originalvideofilename></originalvideofilename>
									<originalaudiofilename></originalaudiofilename>
								</logginginfo>
								<colorinfo>
									<lut></lut>
									<lut1></lut1>
									<asc_sop></asc_sop>
									<asc_sat></asc_sat>
									<lut2></lut2>
								</colorinfo>
								<labels>
									<label2>Violet</label2>
								</labels>
							</clip>
							<clip id="masterclip-72" explodedTracks="true">
								<uuid>375170cb-0866-4617-bbda-cec581144bfd</uuid>
								<masterclipid>masterclip-72</masterclipid>
								<ismasterclip>TRUE</ismasterclip>
								<duration>1599</duration>
								<rate>
									<timebase>30</timebase>
									<ntsc>FALSE</ntsc>
								</rate>
								<in>1385</in>
								<out>1508</out>
								<name>(daniel.83)_Bntp2fmFObe_IG.mp4</name>
								<media>
									<video>
										<track>
											<clipitem id="clipitem-1461">
												<masterclipid>masterclip-72</masterclipid>
												<name>(daniel.83)_Bntp2fmFObe_IG.mp4</name>
												<rate>
													<timebase>30</timebase>
													<ntsc>FALSE</ntsc>
												</rate>
												<alphatype>none</alphatype>
												<file id="file-60"/>
												<link>
													<linkclipref>clipitem-1461</linkclipref>
													<mediatype>video</mediatype>
													<trackindex>1</trackindex>
													<clipindex>1</clipindex>
												</link>
												<link>
													<linkclipref>clipitem-1462</linkclipref>
													<mediatype>audio</mediatype>
													<trackindex>1</trackindex>
													<clipindex>1</clipindex>
												</link>
											</clipitem>
										</track>
									</video>
									<audio>
										<track>
											<clipitem id="clipitem-1462">
												<masterclipid>masterclip-72</masterclipid>
												<name>(daniel.83)_Bntp2fmFObe_IG.mp4</name>
												<rate>
													<timebase>30</timebase>
													<ntsc>FALSE</ntsc>
												</rate>
												<file id="file-60"/>
												<sourcetrack>
													<mediatype>audio</mediatype>
													<trackindex>1</trackindex>
												</sourcetrack>
												<link>
													<linkclipref>clipitem-1461</linkclipref>
													<mediatype>video</mediatype>
													<trackindex>1</trackindex>
													<clipindex>1</clipindex>
												</link>
												<link>
													<linkclipref>clipitem-1462</linkclipref>
													<mediatype>audio</mediatype>
													<trackindex>1</trackindex>
													<clipindex>1</clipindex>
												</link>
											</clipitem>
										</track>
									</audio>
								</media>
								<logginginfo>
									<description></description>
									<scene></scene>
									<shottake></shottake>
									<lognote></lognote>
									<good></good>
									<originalvideofilename></originalvideofilename>
									<originalaudiofilename></originalaudiofilename>
								</logginginfo>
								<colorinfo>
									<lut></lut>
									<lut1></lut1>
									<asc_sop></asc_sop>
									<asc_sat></asc_sat>
									<lut2></lut2>
								</colorinfo>
								<labels>
									<label2>Violet</label2>
								</labels>
							</clip>
							<clip id="masterclip-74" explodedTracks="true">
								<uuid>27038336-5011-4e03-8acb-46486535ea03</uuid>
								<masterclipid>masterclip-74</masterclipid>
								<ismasterclip>TRUE</ismasterclip>
								<duration>801</duration>
								<rate>
									<timebase>30</timebase>
									<ntsc>FALSE</ntsc>
								</rate>
								<in>698</in>
								<out>756</out>
								<name>(gabby.jaye)_7067642196136086831_TT.mp4</name>
								<media>
									<video>
										<track>
											<clipitem id="clipitem-1463">
												<masterclipid>masterclip-74</masterclipid>
												<name>(gabby.jaye)_7067642196136086831_TT.mp4</name>
												<rate>
													<timebase>30</timebase>
													<ntsc>FALSE</ntsc>
												</rate>
												<alphatype>none</alphatype>
												<file id="file-62"/>
												<link>
													<linkclipref>clipitem-1463</linkclipref>
													<mediatype>video</mediatype>
													<trackindex>1</trackindex>
													<clipindex>1</clipindex>
												</link>
												<link>
													<linkclipref>clipitem-1464</linkclipref>
													<mediatype>audio</mediatype>
													<trackindex>1</trackindex>
													<clipindex>1</clipindex>
													<groupindex>1</groupindex>
												</link>
												<link>
													<linkclipref>clipitem-1465</linkclipref>
													<mediatype>audio</mediatype>
													<trackindex>2</trackindex>
													<clipindex>1</clipindex>
													<groupindex>1</groupindex>
												</link>
											</clipitem>
										</track>
									</video>
									<audio>
										<track>
											<clipitem id="clipitem-1464">
												<masterclipid>masterclip-74</masterclipid>
												<name>(gabby.jaye)_7067642196136086831_TT.mp4</name>
												<rate>
													<timebase>30</timebase>
													<ntsc>FALSE</ntsc>
												</rate>
												<file id="file-62"/>
												<sourcetrack>
													<mediatype>audio</mediatype>
													<trackindex>1</trackindex>
												</sourcetrack>
												<link>
													<linkclipref>clipitem-1463</linkclipref>
													<mediatype>video</mediatype>
													<trackindex>1</trackindex>
													<clipindex>1</clipindex>
												</link>
												<link>
													<linkclipref>clipitem-1464</linkclipref>
													<mediatype>audio</mediatype>
													<trackindex>1</trackindex>
													<clipindex>1</clipindex>
													<groupindex>1</groupindex>
												</link>
												<link>
													<linkclipref>clipitem-1465</linkclipref>
													<mediatype>audio</mediatype>
													<trackindex>2</trackindex>
													<clipindex>1</clipindex>
													<groupindex>1</groupindex>
												</link>
											</clipitem>
										</track>
										<track>
											<clipitem id="clipitem-1465">
												<masterclipid>masterclip-74</masterclipid>
												<name>(gabby.jaye)_7067642196136086831_TT.mp4</name>
												<rate>
													<timebase>30</timebase>
													<ntsc>FALSE</ntsc>
												</rate>
												<file id="file-62"/>
												<sourcetrack>
													<mediatype>audio</mediatype>
													<trackindex>2</trackindex>
												</sourcetrack>
												<link>
													<linkclipref>clipitem-1463</linkclipref>
													<mediatype>video</mediatype>
													<trackindex>1</trackindex>
													<clipindex>1</clipindex>
												</link>
												<link>
													<linkclipref>clipitem-1464</linkclipref>
													<mediatype>audio</mediatype>
													<trackindex>1</trackindex>
													<clipindex>1</clipindex>
													<groupindex>1</groupindex>
												</link>
												<link>
													<linkclipref>clipitem-1465</linkclipref>
													<mediatype>audio</mediatype>
													<trackindex>2</trackindex>
													<clipindex>1</clipindex>
													<groupindex>1</groupindex>
												</link>
											</clipitem>
										</track>
									</audio>
								</media>
								<logginginfo>
									<description></description>
									<scene></scene>
									<shottake></shottake>
									<lognote></lognote>
									<good></good>
									<originalvideofilename></originalvideofilename>
									<originalaudiofilename></originalaudiofilename>
								</logginginfo>
								<colorinfo>
									<lut></lut>
									<lut1></lut1>
									<asc_sop></asc_sop>
									<asc_sat></asc_sat>
									<lut2></lut2>
								</colorinfo>
								<labels>
									<label2>Violet</label2>
								</labels>
							</clip>
							<clip id="masterclip-73" explodedTracks="true">
								<uuid>6c9cd789-3455-45c0-92bf-2cdfcb838be7</uuid>
								<masterclipid>masterclip-73</masterclipid>
								<ismasterclip>TRUE</ismasterclip>
								<duration>811</duration>
								<rate>
									<timebase>30</timebase>
									<ntsc>FALSE</ntsc>
								</rate>
								<name>(sugarandsparrowco)_CQ1LcsSjxfE_IG.mp4</name>
								<media>
									<video>
										<track>
											<clipitem id="clipitem-1466">
												<masterclipid>masterclip-73</masterclipid>
												<name>(sugarandsparrowco)_CQ1LcsSjxfE_IG.mp4</name>
												<rate>
													<timebase>30</timebase>
													<ntsc>FALSE</ntsc>
												</rate>
												<alphatype>none</alphatype>
												<file id="file-61"/>
												<link>
													<linkclipref>clipitem-1466</linkclipref>
													<mediatype>video</mediatype>
													<trackindex>1</trackindex>
													<clipindex>1</clipindex>
												</link>
												<link>
													<linkclipref>clipitem-1467</linkclipref>
													<mediatype>audio</mediatype>
													<trackindex>1</trackindex>
													<clipindex>1</clipindex>
													<groupindex>1</groupindex>
												</link>
												<link>
													<linkclipref>clipitem-1468</linkclipref>
													<mediatype>audio</mediatype>
													<trackindex>2</trackindex>
													<clipindex>1</clipindex>
													<groupindex>1</groupindex>
												</link>
											</clipitem>
										</track>
									</video>
									<audio>
										<track>
											<clipitem id="clipitem-1467">
												<masterclipid>masterclip-73</masterclipid>
												<name>(sugarandsparrowco)_CQ1LcsSjxfE_IG.mp4</name>
												<rate>
													<timebase>30</timebase>
													<ntsc>FALSE</ntsc>
												</rate>
												<file id="file-61"/>
												<sourcetrack>
													<mediatype>audio</mediatype>
													<trackindex>1</trackindex>
												</sourcetrack>
												<link>
													<linkclipref>clipitem-1466</linkclipref>
													<mediatype>video</mediatype>
													<trackindex>1</trackindex>
													<clipindex>1</clipindex>
												</link>
												<link>
													<linkclipref>clipitem-1467</linkclipref>
													<mediatype>audio</mediatype>
													<trackindex>1</trackindex>
													<clipindex>1</clipindex>
													<groupindex>1</groupindex>
												</link>
												<link>
													<linkclipref>clipitem-1468</linkclipref>
													<mediatype>audio</mediatype>
													<trackindex>2</trackindex>
													<clipindex>1</clipindex>
													<groupindex>1</groupindex>
												</link>
											</clipitem>
										</track>
										<track>
											<clipitem id="clipitem-1468">
												<masterclipid>masterclip-73</masterclipid>
												<name>(sugarandsparrowco)_CQ1LcsSjxfE_IG.mp4</name>
												<rate>
													<timebase>30</timebase>
													<ntsc>FALSE</ntsc>
												</rate>
												<file id="file-61"/>
												<sourcetrack>
													<mediatype>audio</mediatype>
													<trackindex>2</trackindex>
												</sourcetrack>
												<link>
													<linkclipref>clipitem-1466</linkclipref>
													<mediatype>video</mediatype>
													<trackindex>1</trackindex>
													<clipindex>1</clipindex>
												</link>
												<link>
													<linkclipref>clipitem-1467</linkclipref>
													<mediatype>audio</mediatype>
													<trackindex>1</trackindex>
													<clipindex>1</clipindex>
													<groupindex>1</groupindex>
												</link>
												<link>
													<linkclipref>clipitem-1468</linkclipref>
													<mediatype>audio</mediatype>
													<trackindex>2</trackindex>
													<clipindex>1</clipindex>
													<groupindex>1</groupindex>
												</link>
											</clipitem>
										</track>
									</audio>
								</media>
								<logginginfo>
									<description></description>
									<scene></scene>
									<shottake></shottake>
									<lognote></lognote>
									<good></good>
									<originalvideofilename></originalvideofilename>
									<originalaudiofilename></originalaudiofilename>
								</logginginfo>
								<colorinfo>
									<lut></lut>
									<lut1></lut1>
									<asc_sop></asc_sop>
									<asc_sat></asc_sat>
									<lut2></lut2>
								</colorinfo>
								<labels>
									<label2>Violet</label2>
								</labels>
							</clip>
						</children>
					</bin>
					<bin>
						<name>not ice cream</name>
						<children>
							<clip id="masterclip-121" explodedTracks="true">
								<uuid>eff87bbf-08ba-4c2a-a84d-cacd5c3f4ac9</uuid>
								<masterclipid>masterclip-121</masterclipid>
								<ismasterclip>TRUE</ismasterclip>
								<duration>439</duration>
								<rate>
									<timebase>30</timebase>
									<ntsc>FALSE</ntsc>
								</rate>
								<name>(All the Sugar Cookie Studio)___ #shorts #ad_HeSlNuWClNU_YT.mp4</name>
								<media>
									<video>
										<track>
											<clipitem id="clipitem-1469">
												<masterclipid>masterclip-121</masterclipid>
												<name>(All the Sugar Cookie Studio)___ #shorts #ad_HeSlNuWClNU_YT.mp4</name>
												<rate>
													<timebase>30</timebase>
													<ntsc>FALSE</ntsc>
												</rate>
												<alphatype>none</alphatype>
												<file id="file-104"/>
												<link>
													<linkclipref>clipitem-1469</linkclipref>
													<mediatype>video</mediatype>
													<trackindex>1</trackindex>
													<clipindex>1</clipindex>
												</link>
												<link>
													<linkclipref>clipitem-1470</linkclipref>
													<mediatype>audio</mediatype>
													<trackindex>1</trackindex>
													<clipindex>1</clipindex>
													<groupindex>1</groupindex>
												</link>
												<link>
													<linkclipref>clipitem-1471</linkclipref>
													<mediatype>audio</mediatype>
													<trackindex>2</trackindex>
													<clipindex>1</clipindex>
													<groupindex>1</groupindex>
												</link>
											</clipitem>
										</track>
									</video>
									<audio>
										<track>
											<clipitem id="clipitem-1470">
												<masterclipid>masterclip-121</masterclipid>
												<name>(All the Sugar Cookie Studio)___ #shorts #ad_HeSlNuWClNU_YT.mp4</name>
												<rate>
													<timebase>30</timebase>
													<ntsc>FALSE</ntsc>
												</rate>
												<file id="file-104"/>
												<sourcetrack>
													<mediatype>audio</mediatype>
													<trackindex>1</trackindex>
												</sourcetrack>
												<link>
													<linkclipref>clipitem-1469</linkclipref>
													<mediatype>video</mediatype>
													<trackindex>1</trackindex>
													<clipindex>1</clipindex>
												</link>
												<link>
													<linkclipref>clipitem-1470</linkclipref>
													<mediatype>audio</mediatype>
													<trackindex>1</trackindex>
													<clipindex>1</clipindex>
													<groupindex>1</groupindex>
												</link>
												<link>
													<linkclipref>clipitem-1471</linkclipref>
													<mediatype>audio</mediatype>
													<trackindex>2</trackindex>
													<clipindex>1</clipindex>
													<groupindex>1</groupindex>
												</link>
											</clipitem>
										</track>
										<track>
											<clipitem id="clipitem-1471">
												<masterclipid>masterclip-121</masterclipid>
												<name>(All the Sugar Cookie Studio)___ #shorts #ad_HeSlNuWClNU_YT.mp4</name>
												<rate>
													<timebase>30</timebase>
													<ntsc>FALSE</ntsc>
												</rate>
												<file id="file-104"/>
												<sourcetrack>
													<mediatype>audio</mediatype>
													<trackindex>2</trackindex>
												</sourcetrack>
												<link>
													<linkclipref>clipitem-1469</linkclipref>
													<mediatype>video</mediatype>
													<trackindex>1</trackindex>
													<clipindex>1</clipindex>
												</link>
												<link>
													<linkclipref>clipitem-1470</linkclipref>
													<mediatype>audio</mediatype>
													<trackindex>1</trackindex>
													<clipindex>1</clipindex>
													<groupindex>1</groupindex>
												</link>
												<link>
													<linkclipref>clipitem-1471</linkclipref>
													<mediatype>audio</mediatype>
													<trackindex>2</trackindex>
													<clipindex>1</clipindex>
													<groupindex>1</groupindex>
												</link>
											</clipitem>
										</track>
									</audio>
								</media>
								<logginginfo>
									<description>🍫🍦 #shorts #ad</description>
									<scene></scene>
									<shottake></shottake>
									<lognote>https://www.youtube.com/watch?v=HeSlNuWClNU</lognote>
									<good></good>
									<originalvideofilename></originalvideofilename>
									<originalaudiofilename></originalaudiofilename>
								</logginginfo>
								<colorinfo>
									<lut></lut>
									<lut1></lut1>
									<asc_sop></asc_sop>
									<asc_sat></asc_sat>
									<lut2></lut2>
								</colorinfo>
								<labels>
								</labels>
							</clip>
							<clip id="masterclip-117" explodedTracks="true">
								<uuid>5f064d1f-49a5-4648-baff-bf05fc279673</uuid>
								<masterclipid>masterclip-117</masterclipid>
								<ismasterclip>TRUE</ismasterclip>
								<duration>483</duration>
								<rate>
									<timebase>30</timebase>
									<ntsc>FALSE</ntsc>
								</rate>
								<name>(allthesugartx)_ChAK1pQlR1o_IG.mp4</name>
								<media>
									<video>
										<track>
											<clipitem id="clipitem-1472">
												<masterclipid>masterclip-117</masterclipid>
												<name>(allthesugartx)_ChAK1pQlR1o_IG.mp4</name>
												<rate>
													<timebase>30</timebase>
													<ntsc>FALSE</ntsc>
												</rate>
												<alphatype>none</alphatype>
												<file id="file-100"/>
												<link>
													<linkclipref>clipitem-1472</linkclipref>
													<mediatype>video</mediatype>
													<trackindex>1</trackindex>
													<clipindex>1</clipindex>
												</link>
												<link>
													<linkclipref>clipitem-1473</linkclipref>
													<mediatype>audio</mediatype>
													<trackindex>1</trackindex>
													<clipindex>1</clipindex>
													<groupindex>1</groupindex>
												</link>
												<link>
													<linkclipref>clipitem-1474</linkclipref>
													<mediatype>audio</mediatype>
													<trackindex>2</trackindex>
													<clipindex>1</clipindex>
													<groupindex>1</groupindex>
												</link>
											</clipitem>
										</track>
									</video>
									<audio>
										<track>
											<clipitem id="clipitem-1473">
												<masterclipid>masterclip-117</masterclipid>
												<name>(allthesugartx)_ChAK1pQlR1o_IG.mp4</name>
												<rate>
													<timebase>30</timebase>
													<ntsc>FALSE</ntsc>
												</rate>
												<file id="file-100"/>
												<sourcetrack>
													<mediatype>audio</mediatype>
													<trackindex>1</trackindex>
												</sourcetrack>
												<link>
													<linkclipref>clipitem-1472</linkclipref>
													<mediatype>video</mediatype>
													<trackindex>1</trackindex>
													<clipindex>1</clipindex>
												</link>
												<link>
													<linkclipref>clipitem-1473</linkclipref>
													<mediatype>audio</mediatype>
													<trackindex>1</trackindex>
													<clipindex>1</clipindex>
													<groupindex>1</groupindex>
												</link>
												<link>
													<linkclipref>clipitem-1474</linkclipref>
													<mediatype>audio</mediatype>
													<trackindex>2</trackindex>
													<clipindex>1</clipindex>
													<groupindex>1</groupindex>
												</link>
											</clipitem>
										</track>
										<track>
											<clipitem id="clipitem-1474">
												<masterclipid>masterclip-117</masterclipid>
												<name>(allthesugartx)_ChAK1pQlR1o_IG.mp4</name>
												<rate>
													<timebase>30</timebase>
													<ntsc>FALSE</ntsc>
												</rate>
												<file id="file-100"/>
												<sourcetrack>
													<mediatype>audio</mediatype>
													<trackindex>2</trackindex>
												</sourcetrack>
												<link>
													<linkclipref>clipitem-1472</linkclipref>
													<mediatype>video</mediatype>
													<trackindex>1</trackindex>
													<clipindex>1</clipindex>
												</link>
												<link>
													<linkclipref>clipitem-1473</linkclipref>
													<mediatype>audio</mediatype>
													<trackindex>1</trackindex>
													<clipindex>1</clipindex>
													<groupindex>1</groupindex>
												</link>
												<link>
													<linkclipref>clipitem-1474</linkclipref>
													<mediatype>audio</mediatype>
													<trackindex>2</trackindex>
													<clipindex>1</clipindex>
													<groupindex>1</groupindex>
												</link>
											</clipitem>
										</track>
									</audio>
								</media>
								<logginginfo>
									<description></description>
									<scene></scene>
									<shottake></shottake>
									<lognote></lognote>
									<good></good>
									<originalvideofilename></originalvideofilename>
									<originalaudiofilename></originalaudiofilename>
								</logginginfo>
								<colorinfo>
									<lut></lut>
									<lut1></lut1>
									<asc_sop></asc_sop>
									<asc_sat></asc_sat>
									<lut2></lut2>
								</colorinfo>
								<labels>
								</labels>
							</clip>
							<clip id="masterclip-120" explodedTracks="true">
								<uuid>dcc7bde0-2088-4c13-bda4-bd55c10ac953</uuid>
								<masterclipid>masterclip-120</masterclipid>
								<ismasterclip>TRUE</ismasterclip>
								<duration>1744</duration>
								<rate>
									<timebase>30</timebase>
									<ntsc>FALSE</ntsc>
								</rate>
								<in>1350</in>
								<out>1584</out>
								<name>(allyoucansweet)_6874699336299678982_TT.mp4</name>
								<media>
									<video>
										<track>
											<clipitem id="clipitem-1475">
												<masterclipid>masterclip-120</masterclipid>
												<name>(allyoucansweet)_6874699336299678982_TT.mp4</name>
												<rate>
													<timebase>30</timebase>
													<ntsc>FALSE</ntsc>
												</rate>
												<alphatype>none</alphatype>
												<file id="file-103"/>
												<link>
													<linkclipref>clipitem-1475</linkclipref>
													<mediatype>video</mediatype>
													<trackindex>1</trackindex>
													<clipindex>1</clipindex>
												</link>
												<link>
													<linkclipref>clipitem-1476</linkclipref>
													<mediatype>audio</mediatype>
													<trackindex>1</trackindex>
													<clipindex>1</clipindex>
													<groupindex>1</groupindex>
												</link>
												<link>
													<linkclipref>clipitem-1477</linkclipref>
													<mediatype>audio</mediatype>
													<trackindex>2</trackindex>
													<clipindex>1</clipindex>
													<groupindex>1</groupindex>
												</link>
											</clipitem>
										</track>
									</video>
									<audio>
										<track>
											<clipitem id="clipitem-1476">
												<masterclipid>masterclip-120</masterclipid>
												<name>(allyoucansweet)_6874699336299678982_TT.mp4</name>
												<rate>
													<timebase>30</timebase>
													<ntsc>FALSE</ntsc>
												</rate>
												<file id="file-103"/>
												<sourcetrack>
													<mediatype>audio</mediatype>
													<trackindex>1</trackindex>
												</sourcetrack>
												<link>
													<linkclipref>clipitem-1475</linkclipref>
													<mediatype>video</mediatype>
													<trackindex>1</trackindex>
													<clipindex>1</clipindex>
												</link>
												<link>
													<linkclipref>clipitem-1476</linkclipref>
													<mediatype>audio</mediatype>
													<trackindex>1</trackindex>
													<clipindex>1</clipindex>
													<groupindex>1</groupindex>
												</link>
												<link>
													<linkclipref>clipitem-1477</linkclipref>
													<mediatype>audio</mediatype>
													<trackindex>2</trackindex>
													<clipindex>1</clipindex>
													<groupindex>1</groupindex>
												</link>
											</clipitem>
										</track>
										<track>
											<clipitem id="clipitem-1477">
												<masterclipid>masterclip-120</masterclipid>
												<name>(allyoucansweet)_6874699336299678982_TT.mp4</name>
												<rate>
													<timebase>30</timebase>
													<ntsc>FALSE</ntsc>
												</rate>
												<file id="file-103"/>
												<sourcetrack>
													<mediatype>audio</mediatype>
													<trackindex>2</trackindex>
												</sourcetrack>
												<link>
													<linkclipref>clipitem-1475</linkclipref>
													<mediatype>video</mediatype>
													<trackindex>1</trackindex>
													<clipindex>1</clipindex>
												</link>
												<link>
													<linkclipref>clipitem-1476</linkclipref>
													<mediatype>audio</mediatype>
													<trackindex>1</trackindex>
													<clipindex>1</clipindex>
													<groupindex>1</groupindex>
												</link>
												<link>
													<linkclipref>clipitem-1477</linkclipref>
													<mediatype>audio</mediatype>
													<trackindex>2</trackindex>
													<clipindex>1</clipindex>
													<groupindex>1</groupindex>
												</link>
											</clipitem>
										</track>
									</audio>
								</media>
								<logginginfo>
									<description></description>
									<scene></scene>
									<shottake></shottake>
									<lognote></lognote>
									<good></good>
									<originalvideofilename></originalvideofilename>
									<originalaudiofilename></originalaudiofilename>
								</logginginfo>
								<colorinfo>
									<lut></lut>
									<lut1></lut1>
									<asc_sop></asc_sop>
									<asc_sat></asc_sat>
									<lut2></lut2>
								</colorinfo>
								<labels>
								</labels>
							</clip>
							<clip id="masterclip-116" explodedTracks="true">
								<uuid>af61e69b-921b-4958-b72a-e847dd16bb52</uuid>
								<masterclipid>masterclip-116</masterclipid>
								<ismasterclip>TRUE</ismasterclip>
								<duration>3711</duration>
								<rate>
									<timebase>60</timebase>
									<ntsc>FALSE</ntsc>
								</rate>
								<in>3507</in>
								<out>3670</out>
								<name>(sweeterlayers)_7007192522430614790_TT.mp4</name>
								<media>
									<video>
										<track>
											<clipitem id="clipitem-1478">
												<masterclipid>masterclip-116</masterclipid>
												<name>(sweeterlayers)_7007192522430614790_TT.mp4</name>
												<rate>
													<timebase>60</timebase>
													<ntsc>FALSE</ntsc>
												</rate>
												<alphatype>none</alphatype>
												<file id="file-99"/>
												<link>
													<linkclipref>clipitem-1478</linkclipref>
													<mediatype>video</mediatype>
													<trackindex>1</trackindex>
													<clipindex>1</clipindex>
												</link>
												<link>
													<linkclipref>clipitem-1479</linkclipref>
													<mediatype>audio</mediatype>
													<trackindex>1</trackindex>
													<clipindex>1</clipindex>
													<groupindex>1</groupindex>
												</link>
												<link>
													<linkclipref>clipitem-1480</linkclipref>
													<mediatype>audio</mediatype>
													<trackindex>2</trackindex>
													<clipindex>1</clipindex>
													<groupindex>1</groupindex>
												</link>
											</clipitem>
										</track>
									</video>
									<audio>
										<track>
											<clipitem id="clipitem-1479">
												<masterclipid>masterclip-116</masterclipid>
												<name>(sweeterlayers)_7007192522430614790_TT.mp4</name>
												<rate>
													<timebase>60</timebase>
													<ntsc>FALSE</ntsc>
												</rate>
												<file id="file-99"/>
												<sourcetrack>
													<mediatype>audio</mediatype>
													<trackindex>1</trackindex>
												</sourcetrack>
												<link>
													<linkclipref>clipitem-1478</linkclipref>
													<mediatype>video</mediatype>
													<trackindex>1</trackindex>
													<clipindex>1</clipindex>
												</link>
												<link>
													<linkclipref>clipitem-1479</linkclipref>
													<mediatype>audio</mediatype>
													<trackindex>1</trackindex>
													<clipindex>1</clipindex>
													<groupindex>1</groupindex>
												</link>
												<link>
													<linkclipref>clipitem-1480</linkclipref>
													<mediatype>audio</mediatype>
													<trackindex>2</trackindex>
													<clipindex>1</clipindex>
													<groupindex>1</groupindex>
												</link>
											</clipitem>
										</track>
										<track>
											<clipitem id="clipitem-1480">
												<masterclipid>masterclip-116</masterclipid>
												<name>(sweeterlayers)_7007192522430614790_TT.mp4</name>
												<rate>
													<timebase>60</timebase>
													<ntsc>FALSE</ntsc>
												</rate>
												<file id="file-99"/>
												<sourcetrack>
													<mediatype>audio</mediatype>
													<trackindex>2</trackindex>
												</sourcetrack>
												<link>
													<linkclipref>clipitem-1478</linkclipref>
													<mediatype>video</mediatype>
													<trackindex>1</trackindex>
													<clipindex>1</clipindex>
												</link>
												<link>
													<linkclipref>clipitem-1479</linkclipref>
													<mediatype>audio</mediatype>
													<trackindex>1</trackindex>
													<clipindex>1</clipindex>
													<groupindex>1</groupindex>
												</link>
												<link>
													<linkclipref>clipitem-1480</linkclipref>
													<mediatype>audio</mediatype>
													<trackindex>2</trackindex>
													<clipindex>1</clipindex>
													<groupindex>1</groupindex>
												</link>
											</clipitem>
										</track>
									</audio>
								</media>
								<logginginfo>
									<description></description>
									<scene></scene>
									<shottake></shottake>
									<lognote></lognote>
									<good></good>
									<originalvideofilename></originalvideofilename>
									<originalaudiofilename></originalaudiofilename>
								</logginginfo>
								<colorinfo>
									<lut></lut>
									<lut1></lut1>
									<asc_sop></asc_sop>
									<asc_sat></asc_sat>
									<lut2></lut2>
								</colorinfo>
								<labels>
								</labels>
							</clip>
							<clip id="masterclip-119" explodedTracks="true">
								<uuid>92a71a1a-17b2-4ee2-b2f3-7d8c16d63a56</uuid>
								<masterclipid>masterclip-119</masterclipid>
								<ismasterclip>TRUE</ismasterclip>
								<duration>882</duration>
								<rate>
									<timebase>30</timebase>
									<ntsc>FALSE</ntsc>
								</rate>
								<in>347</in>
								<out>764</out>
								<name>(thesugarhobby)_CeybcMPAnpo_IG.mp4</name>
								<media>
									<video>
										<track>
											<clipitem id="clipitem-1481">
												<masterclipid>masterclip-119</masterclipid>
												<name>(thesugarhobby)_CeybcMPAnpo_IG.mp4</name>
												<rate>
													<timebase>30</timebase>
													<ntsc>FALSE</ntsc>
												</rate>
												<alphatype>none</alphatype>
												<file id="file-102"/>
												<link>
													<linkclipref>clipitem-1481</linkclipref>
													<mediatype>video</mediatype>
													<trackindex>1</trackindex>
													<clipindex>1</clipindex>
												</link>
												<link>
													<linkclipref>clipitem-1482</linkclipref>
													<mediatype>audio</mediatype>
													<trackindex>1</trackindex>
													<clipindex>1</clipindex>
													<groupindex>1</groupindex>
												</link>
												<link>
													<linkclipref>clipitem-1483</linkclipref>
													<mediatype>audio</mediatype>
													<trackindex>2</trackindex>
													<clipindex>1</clipindex>
													<groupindex>1</groupindex>
												</link>
											</clipitem>
										</track>
									</video>
									<audio>
										<track>
											<clipitem id="clipitem-1482">
												<masterclipid>masterclip-119</masterclipid>
												<name>(thesugarhobby)_CeybcMPAnpo_IG.mp4</name>
												<rate>
													<timebase>30</timebase>
													<ntsc>FALSE</ntsc>
												</rate>
												<file id="file-102"/>
												<sourcetrack>
													<mediatype>audio</mediatype>
													<trackindex>1</trackindex>
												</sourcetrack>
												<link>
													<linkclipref>clipitem-1481</linkclipref>
													<mediatype>video</mediatype>
													<trackindex>1</trackindex>
													<clipindex>1</clipindex>
												</link>
												<link>
													<linkclipref>clipitem-1482</linkclipref>
													<mediatype>audio</mediatype>
													<trackindex>1</trackindex>
													<clipindex>1</clipindex>
													<groupindex>1</groupindex>
												</link>
												<link>
													<linkclipref>clipitem-1483</linkclipref>
													<mediatype>audio</mediatype>
													<trackindex>2</trackindex>
													<clipindex>1</clipindex>
													<groupindex>1</groupindex>
												</link>
											</clipitem>
										</track>
										<track>
											<clipitem id="clipitem-1483">
												<masterclipid>masterclip-119</masterclipid>
												<name>(thesugarhobby)_CeybcMPAnpo_IG.mp4</name>
												<rate>
													<timebase>30</timebase>
													<ntsc>FALSE</ntsc>
												</rate>
												<file id="file-102"/>
												<sourcetrack>
													<mediatype>audio</mediatype>
													<trackindex>2</trackindex>
												</sourcetrack>
												<link>
													<linkclipref>clipitem-1481</linkclipref>
													<mediatype>video</mediatype>
													<trackindex>1</trackindex>
													<clipindex>1</clipindex>
												</link>
												<link>
													<linkclipref>clipitem-1482</linkclipref>
													<mediatype>audio</mediatype>
													<trackindex>1</trackindex>
													<clipindex>1</clipindex>
													<groupindex>1</groupindex>
												</link>
												<link>
													<linkclipref>clipitem-1483</linkclipref>
													<mediatype>audio</mediatype>
													<trackindex>2</trackindex>
													<clipindex>1</clipindex>
													<groupindex>1</groupindex>
												</link>
											</clipitem>
										</track>
									</audio>
								</media>
								<logginginfo>
									<description></description>
									<scene></scene>
									<shottake></shottake>
									<lognote></lognote>
									<good></good>
									<originalvideofilename></originalvideofilename>
									<originalaudiofilename></originalaudiofilename>
								</logginginfo>
								<colorinfo>
									<lut></lut>
									<lut1></lut1>
									<asc_sop></asc_sop>
									<asc_sat></asc_sat>
									<lut2></lut2>
								</colorinfo>
								<labels>
								</labels>
							</clip>
							<clip id="masterclip-118" explodedTracks="true">
								<uuid>1175c495-da4e-4488-9183-309dcc42685c</uuid>
								<masterclipid>masterclip-118</masterclipid>
								<ismasterclip>TRUE</ismasterclip>
								<duration>1788</duration>
								<rate>
									<timebase>30</timebase>
									<ntsc>FALSE</ntsc>
								</rate>
								<out>48</out>
								<name>(thesweetimpact)_CSHmlPGgov2_IG.mp4</name>
								<media>
									<video>
										<track>
											<clipitem id="clipitem-1484">
												<masterclipid>masterclip-118</masterclipid>
												<name>(thesweetimpact)_CSHmlPGgov2_IG.mp4</name>
												<rate>
													<timebase>30</timebase>
													<ntsc>FALSE</ntsc>
												</rate>
												<alphatype>none</alphatype>
												<file id="file-101"/>
												<link>
													<linkclipref>clipitem-1484</linkclipref>
													<mediatype>video</mediatype>
													<trackindex>1</trackindex>
													<clipindex>1</clipindex>
												</link>
												<link>
													<linkclipref>clipitem-1485</linkclipref>
													<mediatype>audio</mediatype>
													<trackindex>1</trackindex>
													<clipindex>1</clipindex>
													<groupindex>1</groupindex>
												</link>
												<link>
													<linkclipref>clipitem-1486</linkclipref>
													<mediatype>audio</mediatype>
													<trackindex>2</trackindex>
													<clipindex>1</clipindex>
													<groupindex>1</groupindex>
												</link>
											</clipitem>
										</track>
									</video>
									<audio>
										<track>
											<clipitem id="clipitem-1485">
												<masterclipid>masterclip-118</masterclipid>
												<name>(thesweetimpact)_CSHmlPGgov2_IG.mp4</name>
												<rate>
													<timebase>30</timebase>
													<ntsc>FALSE</ntsc>
												</rate>
												<file id="file-101"/>
												<sourcetrack>
													<mediatype>audio</mediatype>
													<trackindex>1</trackindex>
												</sourcetrack>
												<link>
													<linkclipref>clipitem-1484</linkclipref>
													<mediatype>video</mediatype>
													<trackindex>1</trackindex>
													<clipindex>1</clipindex>
												</link>
												<link>
													<linkclipref>clipitem-1485</linkclipref>
													<mediatype>audio</mediatype>
													<trackindex>1</trackindex>
													<clipindex>1</clipindex>
													<groupindex>1</groupindex>
												</link>
												<link>
													<linkclipref>clipitem-1486</linkclipref>
													<mediatype>audio</mediatype>
													<trackindex>2</trackindex>
													<clipindex>1</clipindex>
													<groupindex>1</groupindex>
												</link>
											</clipitem>
										</track>
										<track>
											<clipitem id="clipitem-1486">
												<masterclipid>masterclip-118</masterclipid>
												<name>(thesweetimpact)_CSHmlPGgov2_IG.mp4</name>
												<rate>
													<timebase>30</timebase>
													<ntsc>FALSE</ntsc>
												</rate>
												<file id="file-101"/>
												<sourcetrack>
													<mediatype>audio</mediatype>
													<trackindex>2</trackindex>
												</sourcetrack>
												<link>
													<linkclipref>clipitem-1484</linkclipref>
													<mediatype>video</mediatype>
													<trackindex>1</trackindex>
													<clipindex>1</clipindex>
												</link>
												<link>
													<linkclipref>clipitem-1485</linkclipref>
													<mediatype>audio</mediatype>
													<trackindex>1</trackindex>
													<clipindex>1</clipindex>
													<groupindex>1</groupindex>
												</link>
												<link>
													<linkclipref>clipitem-1486</linkclipref>
													<mediatype>audio</mediatype>
													<trackindex>2</trackindex>
													<clipindex>1</clipindex>
													<groupindex>1</groupindex>
												</link>
											</clipitem>
										</track>
									</audio>
								</media>
								<logginginfo>
									<description></description>
									<scene></scene>
									<shottake></shottake>
									<lognote></lognote>
									<good></good>
									<originalvideofilename></originalvideofilename>
									<originalaudiofilename></originalaudiofilename>
								</logginginfo>
								<colorinfo>
									<lut></lut>
									<lut1></lut1>
									<asc_sop></asc_sop>
									<asc_sat></asc_sat>
									<lut2></lut2>
								</colorinfo>
								<labels>
								</labels>
							</clip>
						</children>
					</bin>
					<clip id="masterclip-136" explodedTracks="true">
						<uuid>6ff5276f-df73-45de-8f39-0d737875458d</uuid>
						<masterclipid>masterclip-136</masterclipid>
						<ismasterclip>TRUE</ismasterclip>
						<duration>1794</duration>
						<rate>
							<timebase>30</timebase>
							<ntsc>FALSE</ntsc>
						</rate>
						<out>1569</out>
						<name>(sugarandsparrowco)_B4c64wKpARD_IG.mp4</name>
						<media>
							<video>
								<track>
									<clipitem id="clipitem-1487">
										<masterclipid>masterclip-136</masterclipid>
										<name>(sugarandsparrowco)_B4c64wKpARD_IG.mp4</name>
										<rate>
											<timebase>30</timebase>
											<ntsc>FALSE</ntsc>
										</rate>
										<alphatype>none</alphatype>
										<file id="file-117"/>
										<link>
											<linkclipref>clipitem-1487</linkclipref>
											<mediatype>video</mediatype>
											<trackindex>1</trackindex>
											<clipindex>1</clipindex>
										</link>
										<link>
											<linkclipref>clipitem-1488</linkclipref>
											<mediatype>audio</mediatype>
											<trackindex>1</trackindex>
											<clipindex>1</clipindex>
											<groupindex>1</groupindex>
										</link>
										<link>
											<linkclipref>clipitem-1489</linkclipref>
											<mediatype>audio</mediatype>
											<trackindex>2</trackindex>
											<clipindex>1</clipindex>
											<groupindex>1</groupindex>
										</link>
									</clipitem>
								</track>
							</video>
							<audio>
								<track>
									<clipitem id="clipitem-1488">
										<masterclipid>masterclip-136</masterclipid>
										<name>(sugarandsparrowco)_B4c64wKpARD_IG.mp4</name>
										<rate>
											<timebase>30</timebase>
											<ntsc>FALSE</ntsc>
										</rate>
										<file id="file-117"/>
										<sourcetrack>
											<mediatype>audio</mediatype>
											<trackindex>1</trackindex>
										</sourcetrack>
										<link>
											<linkclipref>clipitem-1487</linkclipref>
											<mediatype>video</mediatype>
											<trackindex>1</trackindex>
											<clipindex>1</clipindex>
										</link>
										<link>
											<linkclipref>clipitem-1488</linkclipref>
											<mediatype>audio</mediatype>
											<trackindex>1</trackindex>
											<clipindex>1</clipindex>
											<groupindex>1</groupindex>
										</link>
										<link>
											<linkclipref>clipitem-1489</linkclipref>
											<mediatype>audio</mediatype>
											<trackindex>2</trackindex>
											<clipindex>1</clipindex>
											<groupindex>1</groupindex>
										</link>
									</clipitem>
								</track>
								<track>
									<clipitem id="clipitem-1489">
										<masterclipid>masterclip-136</masterclipid>
										<name>(sugarandsparrowco)_B4c64wKpARD_IG.mp4</name>
										<rate>
											<timebase>30</timebase>
											<ntsc>FALSE</ntsc>
										</rate>
										<file id="file-117"/>
										<sourcetrack>
											<mediatype>audio</mediatype>
											<trackindex>2</trackindex>
										</sourcetrack>
										<link>
											<linkclipref>clipitem-1487</linkclipref>
											<mediatype>video</mediatype>
											<trackindex>1</trackindex>
											<clipindex>1</clipindex>
										</link>
										<link>
											<linkclipref>clipitem-1488</linkclipref>
											<mediatype>audio</mediatype>
											<trackindex>1</trackindex>
											<clipindex>1</clipindex>
											<groupindex>1</groupindex>
										</link>
										<link>
											<linkclipref>clipitem-1489</linkclipref>
											<mediatype>audio</mediatype>
											<trackindex>2</trackindex>
											<clipindex>1</clipindex>
											<groupindex>1</groupindex>
										</link>
									</clipitem>
								</track>
							</audio>
						</media>
						<logginginfo>
							<description></description>
							<scene></scene>
							<shottake></shottake>
							<lognote></lognote>
							<good></good>
							<originalvideofilename></originalvideofilename>
							<originalaudiofilename></originalaudiofilename>
						</logginginfo>
						<colorinfo>
							<lut></lut>
							<lut1></lut1>
							<asc_sop></asc_sop>
							<asc_sat></asc_sat>
							<lut2></lut2>
						</colorinfo>
						<labels>
							<label2>Iris</label2>
						</labels>
					</clip>
					<bin>
						<name>peanut butter</name>
						<children>
							<clip id="masterclip-263" explodedTracks="true">
								<uuid>2374ec09-cdfb-44ca-8e58-73b0a07dea0d</uuid>
								<masterclipid>masterclip-263</masterclipid>
								<ismasterclip>TRUE</ismasterclip>
								<duration>624</duration>
								<rate>
									<timebase>30</timebase>
									<ntsc>FALSE</ntsc>
								</rate>
								<name>(The Custard Company)__ CALLING ALL REESE_S LOVERS __5AjTjQcXAPo_YT.mp4</name>
								<media>
									<video>
										<track>
											<clipitem id="clipitem-1490">
												<masterclipid>masterclip-263</masterclipid>
												<name>(The Custard Company)__ CALLING ALL REESE_S LOVERS __5AjTjQcXAPo_YT.mp4</name>
												<rate>
													<timebase>30</timebase>
													<ntsc>FALSE</ntsc>
												</rate>
												<alphatype>none</alphatype>
												<file id="file-227"/>
												<link>
													<linkclipref>clipitem-1490</linkclipref>
													<mediatype>video</mediatype>
													<trackindex>1</trackindex>
													<clipindex>1</clipindex>
												</link>
												<link>
													<linkclipref>clipitem-1491</linkclipref>
													<mediatype>audio</mediatype>
													<trackindex>1</trackindex>
													<clipindex>1</clipindex>
													<groupindex>1</groupindex>
												</link>
												<link>
													<linkclipref>clipitem-1492</linkclipref>
													<mediatype>audio</mediatype>
													<trackindex>2</trackindex>
													<clipindex>1</clipindex>
													<groupindex>1</groupindex>
												</link>
											</clipitem>
										</track>
									</video>
									<audio>
										<track>
											<clipitem id="clipitem-1491">
												<masterclipid>masterclip-263</masterclipid>
												<name>(The Custard Company)__ CALLING ALL REESE_S LOVERS __5AjTjQcXAPo_YT.mp4</name>
												<rate>
													<timebase>30</timebase>
													<ntsc>FALSE</ntsc>
												</rate>
												<file id="file-227"/>
												<sourcetrack>
													<mediatype>audio</mediatype>
													<trackindex>1</trackindex>
												</sourcetrack>
												<link>
													<linkclipref>clipitem-1490</linkclipref>
													<mediatype>video</mediatype>
													<trackindex>1</trackindex>
													<clipindex>1</clipindex>
												</link>
												<link>
													<linkclipref>clipitem-1491</linkclipref>
													<mediatype>audio</mediatype>
													<trackindex>1</trackindex>
													<clipindex>1</clipindex>
													<groupindex>1</groupindex>
												</link>
												<link>
													<linkclipref>clipitem-1492</linkclipref>
													<mediatype>audio</mediatype>
													<trackindex>2</trackindex>
													<clipindex>1</clipindex>
													<groupindex>1</groupindex>
												</link>
											</clipitem>
										</track>
										<track>
											<clipitem id="clipitem-1492">
												<masterclipid>masterclip-263</masterclipid>
												<name>(The Custard Company)__ CALLING ALL REESE_S LOVERS __5AjTjQcXAPo_YT.mp4</name>
												<rate>
													<timebase>30</timebase>
													<ntsc>FALSE</ntsc>
												</rate>
												<file id="file-227"/>
												<sourcetrack>
													<mediatype>audio</mediatype>
													<trackindex>2</trackindex>
												</sourcetrack>
												<link>
													<linkclipref>clipitem-1490</linkclipref>
													<mediatype>video</mediatype>
													<trackindex>1</trackindex>
													<clipindex>1</clipindex>
												</link>
												<link>
													<linkclipref>clipitem-1491</linkclipref>
													<mediatype>audio</mediatype>
													<trackindex>1</trackindex>
													<clipindex>1</clipindex>
													<groupindex>1</groupindex>
												</link>
												<link>
													<linkclipref>clipitem-1492</linkclipref>
													<mediatype>audio</mediatype>
													<trackindex>2</trackindex>
													<clipindex>1</clipindex>
													<groupindex>1</groupindex>
												</link>
											</clipitem>
										</track>
									</audio>
								</media>
								<logginginfo>
									<description></description>
									<scene></scene>
									<shottake></shottake>
									<lognote></lognote>
									<good></good>
									<originalvideofilename></originalvideofilename>
									<originalaudiofilename></originalaudiofilename>
								</logginginfo>
								<colorinfo>
									<lut></lut>
									<lut1></lut1>
									<asc_sop></asc_sop>
									<asc_sat></asc_sat>
									<lut2></lut2>
								</colorinfo>
								<labels>
									<label2>Violet</label2>
								</labels>
							</clip>
							<clip id="masterclip-264" explodedTracks="true">
								<uuid>1cc37c87-a26c-4941-9ff3-103794701682</uuid>
								<masterclipid>masterclip-264</masterclipid>
								<ismasterclip>TRUE</ismasterclip>
								<duration>527</duration>
								<rate>
									<timebase>30</timebase>
									<ntsc>FALSE</ntsc>
								</rate>
								<name>(aquickspoonful)_CsFPuVTrA8x_IG.mp4</name>
								<media>
									<video>
										<track>
											<clipitem id="clipitem-1493">
												<masterclipid>masterclip-264</masterclipid>
												<name>(aquickspoonful)_CsFPuVTrA8x_IG.mp4</name>
												<rate>
													<timebase>30</timebase>
													<ntsc>FALSE</ntsc>
												</rate>
												<alphatype>none</alphatype>
												<file id="file-228"/>
												<link>
													<linkclipref>clipitem-1493</linkclipref>
													<mediatype>video</mediatype>
													<trackindex>1</trackindex>
													<clipindex>1</clipindex>
												</link>
												<link>
													<linkclipref>clipitem-1494</linkclipref>
													<mediatype>audio</mediatype>
													<trackindex>1</trackindex>
													<clipindex>1</clipindex>
												</link>
											</clipitem>
										</track>
									</video>
									<audio>
										<track>
											<clipitem id="clipitem-1494">
												<masterclipid>masterclip-264</masterclipid>
												<name>(aquickspoonful)_CsFPuVTrA8x_IG.mp4</name>
												<rate>
													<timebase>30</timebase>
													<ntsc>FALSE</ntsc>
												</rate>
												<file id="file-228"/>
												<sourcetrack>
													<mediatype>audio</mediatype>
													<trackindex>1</trackindex>
												</sourcetrack>
												<link>
													<linkclipref>clipitem-1493</linkclipref>
													<mediatype>video</mediatype>
													<trackindex>1</trackindex>
													<clipindex>1</clipindex>
												</link>
												<link>
													<linkclipref>clipitem-1494</linkclipref>
													<mediatype>audio</mediatype>
													<trackindex>1</trackindex>
													<clipindex>1</clipindex>
												</link>
											</clipitem>
										</track>
									</audio>
								</media>
								<logginginfo>
									<description></description>
									<scene></scene>
									<shottake></shottake>
									<lognote></lognote>
									<good></good>
									<originalvideofilename></originalvideofilename>
									<originalaudiofilename></originalaudiofilename>
								</logginginfo>
								<colorinfo>
									<lut></lut>
									<lut1></lut1>
									<asc_sop></asc_sop>
									<asc_sat></asc_sat>
									<lut2></lut2>
								</colorinfo>
								<labels>
									<label2>Violet</label2>
								</labels>
							</clip>
							<clip id="masterclip-261" explodedTracks="true">
								<uuid>24cbe72f-bd43-4464-be53-95f0ef595367</uuid>
								<masterclipid>masterclip-261</masterclipid>
								<ismasterclip>TRUE</ismasterclip>
								<duration>896</duration>
								<rate>
									<timebase>30</timebase>
									<ntsc>FALSE</ntsc>
								</rate>
								<out>91</out>
								<name>(infoods_specials)_CMyWl1FH_Ak_IG.mp4</name>
								<media>
									<video>
										<track>
											<clipitem id="clipitem-1495">
												<masterclipid>masterclip-261</masterclipid>
												<name>(infoods_specials)_CMyWl1FH_Ak_IG.mp4</name>
												<rate>
													<timebase>30</timebase>
													<ntsc>FALSE</ntsc>
												</rate>
												<alphatype>none</alphatype>
												<file id="file-225"/>
												<link>
													<linkclipref>clipitem-1495</linkclipref>
													<mediatype>video</mediatype>
													<trackindex>1</trackindex>
													<clipindex>1</clipindex>
												</link>
												<link>
													<linkclipref>clipitem-1496</linkclipref>
													<mediatype>audio</mediatype>
													<trackindex>1</trackindex>
													<clipindex>1</clipindex>
												</link>
											</clipitem>
										</track>
									</video>
									<audio>
										<track>
											<clipitem id="clipitem-1496">
												<masterclipid>masterclip-261</masterclipid>
												<name>(infoods_specials)_CMyWl1FH_Ak_IG.mp4</name>
												<rate>
													<timebase>30</timebase>
													<ntsc>FALSE</ntsc>
												</rate>
												<file id="file-225"/>
												<sourcetrack>
													<mediatype>audio</mediatype>
													<trackindex>1</trackindex>
												</sourcetrack>
												<link>
													<linkclipref>clipitem-1495</linkclipref>
													<mediatype>video</mediatype>
													<trackindex>1</trackindex>
													<clipindex>1</clipindex>
												</link>
												<link>
													<linkclipref>clipitem-1496</linkclipref>
													<mediatype>audio</mediatype>
													<trackindex>1</trackindex>
													<clipindex>1</clipindex>
												</link>
											</clipitem>
										</track>
									</audio>
								</media>
								<logginginfo>
									<description>IG: infoods_specials&#10;TT: infoodsspecials&#10;YT: Infoods Specials</description>
									<scene></scene>
									<shottake></shottake>
									<lognote></lognote>
									<good></good>
									<originalvideofilename></originalvideofilename>
									<originalaudiofilename></originalaudiofilename>
								</logginginfo>
								<colorinfo>
									<lut></lut>
									<lut1></lut1>
									<asc_sop></asc_sop>
									<asc_sat></asc_sat>
									<lut2></lut2>
								</colorinfo>
								<labels>
									<label2>Violet</label2>
								</labels>
							</clip>
							<clip id="masterclip-262" explodedTracks="true">
								<uuid>38f444a5-020c-4810-9314-f90ceaf87444</uuid>
								<masterclipid>masterclip-262</masterclipid>
								<ismasterclip>TRUE</ismasterclip>
								<duration>2284</duration>
								<rate>
									<timebase>60</timebase>
									<ntsc>FALSE</ntsc>
								</rate>
								<in>1758</in>
								<out>2085</out>
								<name>(thethriftwitch)_7112203504516681002_TT.mp4</name>
								<media>
									<video>
										<track>
											<clipitem id="clipitem-1497">
												<masterclipid>masterclip-262</masterclipid>
												<name>(thethriftwitch)_7112203504516681002_TT.mp4</name>
												<rate>
													<timebase>60</timebase>
													<ntsc>FALSE</ntsc>
												</rate>
												<alphatype>none</alphatype>
												<file id="file-226"/>
												<link>
													<linkclipref>clipitem-1497</linkclipref>
													<mediatype>video</mediatype>
													<trackindex>1</trackindex>
													<clipindex>1</clipindex>
												</link>
												<link>
													<linkclipref>clipitem-1498</linkclipref>
													<mediatype>audio</mediatype>
													<trackindex>1</trackindex>
													<clipindex>1</clipindex>
													<groupindex>1</groupindex>
												</link>
												<link>
													<linkclipref>clipitem-1499</linkclipref>
													<mediatype>audio</mediatype>
													<trackindex>2</trackindex>
													<clipindex>1</clipindex>
													<groupindex>1</groupindex>
												</link>
											</clipitem>
										</track>
									</video>
									<audio>
										<track>
											<clipitem id="clipitem-1498">
												<masterclipid>masterclip-262</masterclipid>
												<name>(thethriftwitch)_7112203504516681002_TT.mp4</name>
												<rate>
													<timebase>60</timebase>
													<ntsc>FALSE</ntsc>
												</rate>
												<file id="file-226"/>
												<sourcetrack>
													<mediatype>audio</mediatype>
													<trackindex>1</trackindex>
												</sourcetrack>
												<link>
													<linkclipref>clipitem-1497</linkclipref>
													<mediatype>video</mediatype>
													<trackindex>1</trackindex>
													<clipindex>1</clipindex>
												</link>
												<link>
													<linkclipref>clipitem-1498</linkclipref>
													<mediatype>audio</mediatype>
													<trackindex>1</trackindex>
													<clipindex>1</clipindex>
													<groupindex>1</groupindex>
												</link>
												<link>
													<linkclipref>clipitem-1499</linkclipref>
													<mediatype>audio</mediatype>
													<trackindex>2</trackindex>
													<clipindex>1</clipindex>
													<groupindex>1</groupindex>
												</link>
											</clipitem>
										</track>
										<track>
											<clipitem id="clipitem-1499">
												<masterclipid>masterclip-262</masterclipid>
												<name>(thethriftwitch)_7112203504516681002_TT.mp4</name>
												<rate>
													<timebase>60</timebase>
													<ntsc>FALSE</ntsc>
												</rate>
												<file id="file-226"/>
												<sourcetrack>
													<mediatype>audio</mediatype>
													<trackindex>2</trackindex>
												</sourcetrack>
												<link>
													<linkclipref>clipitem-1497</linkclipref>
													<mediatype>video</mediatype>
													<trackindex>1</trackindex>
													<clipindex>1</clipindex>
												</link>
												<link>
													<linkclipref>clipitem-1498</linkclipref>
													<mediatype>audio</mediatype>
													<trackindex>1</trackindex>
													<clipindex>1</clipindex>
													<groupindex>1</groupindex>
												</link>
												<link>
													<linkclipref>clipitem-1499</linkclipref>
													<mediatype>audio</mediatype>
													<trackindex>2</trackindex>
													<clipindex>1</clipindex>
													<groupindex>1</groupindex>
												</link>
											</clipitem>
										</track>
									</audio>
								</media>
								<logginginfo>
									<description></description>
									<scene></scene>
									<shottake></shottake>
									<lognote></lognote>
									<good></good>
									<originalvideofilename></originalvideofilename>
									<originalaudiofilename></originalaudiofilename>
								</logginginfo>
								<colorinfo>
									<lut></lut>
									<lut1></lut1>
									<asc_sop></asc_sop>
									<asc_sat></asc_sat>
									<lut2></lut2>
								</colorinfo>
								<labels>
									<label2>Violet</label2>
								</labels>
							</clip>
						</children>
					</bin>
					<bin>
						<name>banana</name>
						<children>
							<clip id="masterclip-144" explodedTracks="true">
								<uuid>e5f969a9-0eac-4ee3-8342-e3d0cbef613c</uuid>
								<masterclipid>masterclip-144</masterclipid>
								<ismasterclip>TRUE</ismasterclip>
								<duration>1493</duration>
								<rate>
									<timebase>30</timebase>
									<ntsc>FALSE</ntsc>
								</rate>
								<in>1266</in>
								<out>1427</out>
								<name>(Charlie Smark)_Storytime while I make a customer order ✨ #dollysdesserts_YyHSO6GzAEQ_YT.mp4</name>
								<media>
									<video>
										<track>
											<clipitem id="clipitem-1500">
												<masterclipid>masterclip-144</masterclipid>
												<name>(Charlie Smark)_Storytime while I make a customer order ✨ #dollysdesserts_YyHSO6GzAEQ_YT.mp4</name>
												<rate>
													<timebase>30</timebase>
													<ntsc>FALSE</ntsc>
												</rate>
												<alphatype>none</alphatype>
												<file id="file-124"/>
												<link>
													<linkclipref>clipitem-1500</linkclipref>
													<mediatype>video</mediatype>
													<trackindex>1</trackindex>
													<clipindex>1</clipindex>
												</link>
												<link>
													<linkclipref>clipitem-1501</linkclipref>
													<mediatype>audio</mediatype>
													<trackindex>1</trackindex>
													<clipindex>1</clipindex>
													<groupindex>1</groupindex>
												</link>
												<link>
													<linkclipref>clipitem-1502</linkclipref>
													<mediatype>audio</mediatype>
													<trackindex>2</trackindex>
													<clipindex>1</clipindex>
													<groupindex>1</groupindex>
												</link>
											</clipitem>
										</track>
									</video>
									<audio>
										<track>
											<clipitem id="clipitem-1501">
												<masterclipid>masterclip-144</masterclipid>
												<name>(Charlie Smark)_Storytime while I make a customer order ✨ #dollysdesserts_YyHSO6GzAEQ_YT.mp4</name>
												<rate>
													<timebase>30</timebase>
													<ntsc>FALSE</ntsc>
												</rate>
												<file id="file-124"/>
												<sourcetrack>
													<mediatype>audio</mediatype>
													<trackindex>1</trackindex>
												</sourcetrack>
												<link>
													<linkclipref>clipitem-1500</linkclipref>
													<mediatype>video</mediatype>
													<trackindex>1</trackindex>
													<clipindex>1</clipindex>
												</link>
												<link>
													<linkclipref>clipitem-1501</linkclipref>
													<mediatype>audio</mediatype>
													<trackindex>1</trackindex>
													<clipindex>1</clipindex>
													<groupindex>1</groupindex>
												</link>
												<link>
													<linkclipref>clipitem-1502</linkclipref>
													<mediatype>audio</mediatype>
													<trackindex>2</trackindex>
													<clipindex>1</clipindex>
													<groupindex>1</groupindex>
												</link>
											</clipitem>
										</track>
										<track>
											<clipitem id="clipitem-1502">
												<masterclipid>masterclip-144</masterclipid>
												<name>(Charlie Smark)_Storytime while I make a customer order ✨ #dollysdesserts_YyHSO6GzAEQ_YT.mp4</name>
												<rate>
													<timebase>30</timebase>
													<ntsc>FALSE</ntsc>
												</rate>
												<file id="file-124"/>
												<sourcetrack>
													<mediatype>audio</mediatype>
													<trackindex>2</trackindex>
												</sourcetrack>
												<link>
													<linkclipref>clipitem-1500</linkclipref>
													<mediatype>video</mediatype>
													<trackindex>1</trackindex>
													<clipindex>1</clipindex>
												</link>
												<link>
													<linkclipref>clipitem-1501</linkclipref>
													<mediatype>audio</mediatype>
													<trackindex>1</trackindex>
													<clipindex>1</clipindex>
													<groupindex>1</groupindex>
												</link>
												<link>
													<linkclipref>clipitem-1502</linkclipref>
													<mediatype>audio</mediatype>
													<trackindex>2</trackindex>
													<clipindex>1</clipindex>
													<groupindex>1</groupindex>
												</link>
											</clipitem>
										</track>
									</audio>
								</media>
								<logginginfo>
									<description></description>
									<scene></scene>
									<shottake></shottake>
									<lognote></lognote>
									<good></good>
									<originalvideofilename></originalvideofilename>
									<originalaudiofilename></originalaudiofilename>
								</logginginfo>
								<colorinfo>
									<lut></lut>
									<lut1></lut1>
									<asc_sop></asc_sop>
									<asc_sat></asc_sat>
									<lut2></lut2>
								</colorinfo>
								<labels>
								</labels>
							</clip>
							<clip id="masterclip-142" explodedTracks="true">
								<uuid>c54694d9-73d0-45d1-8346-5a5aac469ee3</uuid>
								<masterclipid>masterclip-142</masterclipid>
								<ismasterclip>TRUE</ismasterclip>
								<duration>833</duration>
								<rate>
									<timebase>30</timebase>
									<ntsc>FALSE</ntsc>
								</rate>
								<in>589</in>
								<name>(aquickspoonful)_CtxhoFwsCJl_IG.mp4</name>
								<media>
									<video>
										<track>
											<clipitem id="clipitem-1503">
												<masterclipid>masterclip-142</masterclipid>
												<name>(aquickspoonful)_CtxhoFwsCJl_IG.mp4</name>
												<rate>
													<timebase>30</timebase>
													<ntsc>FALSE</ntsc>
												</rate>
												<alphatype>none</alphatype>
												<file id="file-122"/>
												<link>
													<linkclipref>clipitem-1503</linkclipref>
													<mediatype>video</mediatype>
													<trackindex>1</trackindex>
													<clipindex>1</clipindex>
												</link>
												<link>
													<linkclipref>clipitem-1504</linkclipref>
													<mediatype>audio</mediatype>
													<trackindex>1</trackindex>
													<clipindex>1</clipindex>
												</link>
											</clipitem>
										</track>
									</video>
									<audio>
										<track>
											<clipitem id="clipitem-1504">
												<masterclipid>masterclip-142</masterclipid>
												<name>(aquickspoonful)_CtxhoFwsCJl_IG.mp4</name>
												<rate>
													<timebase>30</timebase>
													<ntsc>FALSE</ntsc>
												</rate>
												<file id="file-122"/>
												<sourcetrack>
													<mediatype>audio</mediatype>
													<trackindex>1</trackindex>
												</sourcetrack>
												<link>
													<linkclipref>clipitem-1503</linkclipref>
													<mediatype>video</mediatype>
													<trackindex>1</trackindex>
													<clipindex>1</clipindex>
												</link>
												<link>
													<linkclipref>clipitem-1504</linkclipref>
													<mediatype>audio</mediatype>
													<trackindex>1</trackindex>
													<clipindex>1</clipindex>
												</link>
											</clipitem>
										</track>
									</audio>
								</media>
								<logginginfo>
									<description></description>
									<scene></scene>
									<shottake></shottake>
									<lognote></lognote>
									<good></good>
									<originalvideofilename></originalvideofilename>
									<originalaudiofilename></originalaudiofilename>
								</logginginfo>
								<colorinfo>
									<lut></lut>
									<lut1></lut1>
									<asc_sop></asc_sop>
									<asc_sat></asc_sat>
									<lut2></lut2>
								</colorinfo>
								<labels>
								</labels>
							</clip>
							<clip id="masterclip-143" explodedTracks="true">
								<uuid>6192e3a4-3a63-4e72-8f83-45d809e786ff</uuid>
								<masterclipid>masterclip-143</masterclipid>
								<ismasterclip>TRUE</ismasterclip>
								<duration>899</duration>
								<rate>
									<timebase>30</timebase>
									<ntsc>FALSE</ntsc>
								</rate>
								<in>615</in>
								<out>845</out>
								<name>(khaliaskuisine)_CUDmfwhFrJ4_IG.mp4</name>
								<media>
									<video>
										<track>
											<clipitem id="clipitem-1505">
												<masterclipid>masterclip-143</masterclipid>
												<name>(khaliaskuisine)_CUDmfwhFrJ4_IG.mp4</name>
												<rate>
													<timebase>30</timebase>
													<ntsc>FALSE</ntsc>
												</rate>
												<alphatype>none</alphatype>
												<file id="file-123"/>
												<link>
													<linkclipref>clipitem-1505</linkclipref>
													<mediatype>video</mediatype>
													<trackindex>1</trackindex>
													<clipindex>1</clipindex>
												</link>
												<link>
													<linkclipref>clipitem-1506</linkclipref>
													<mediatype>audio</mediatype>
													<trackindex>1</trackindex>
													<clipindex>1</clipindex>
													<groupindex>1</groupindex>
												</link>
												<link>
													<linkclipref>clipitem-1507</linkclipref>
													<mediatype>audio</mediatype>
													<trackindex>2</trackindex>
													<clipindex>1</clipindex>
													<groupindex>1</groupindex>
												</link>
											</clipitem>
										</track>
									</video>
									<audio>
										<track>
											<clipitem id="clipitem-1506">
												<masterclipid>masterclip-143</masterclipid>
												<name>(khaliaskuisine)_CUDmfwhFrJ4_IG.mp4</name>
												<rate>
													<timebase>30</timebase>
													<ntsc>FALSE</ntsc>
												</rate>
												<file id="file-123"/>
												<sourcetrack>
													<mediatype>audio</mediatype>
													<trackindex>1</trackindex>
												</sourcetrack>
												<link>
													<linkclipref>clipitem-1505</linkclipref>
													<mediatype>video</mediatype>
													<trackindex>1</trackindex>
													<clipindex>1</clipindex>
												</link>
												<link>
													<linkclipref>clipitem-1506</linkclipref>
													<mediatype>audio</mediatype>
													<trackindex>1</trackindex>
													<clipindex>1</clipindex>
													<groupindex>1</groupindex>
												</link>
												<link>
													<linkclipref>clipitem-1507</linkclipref>
													<mediatype>audio</mediatype>
													<trackindex>2</trackindex>
													<clipindex>1</clipindex>
													<groupindex>1</groupindex>
												</link>
											</clipitem>
										</track>
										<track>
											<clipitem id="clipitem-1507">
												<masterclipid>masterclip-143</masterclipid>
												<name>(khaliaskuisine)_CUDmfwhFrJ4_IG.mp4</name>
												<rate>
													<timebase>30</timebase>
													<ntsc>FALSE</ntsc>
												</rate>
												<file id="file-123"/>
												<sourcetrack>
													<mediatype>audio</mediatype>
													<trackindex>2</trackindex>
												</sourcetrack>
												<link>
													<linkclipref>clipitem-1505</linkclipref>
													<mediatype>video</mediatype>
													<trackindex>1</trackindex>
													<clipindex>1</clipindex>
												</link>
												<link>
													<linkclipref>clipitem-1506</linkclipref>
													<mediatype>audio</mediatype>
													<trackindex>1</trackindex>
													<clipindex>1</clipindex>
													<groupindex>1</groupindex>
												</link>
												<link>
													<linkclipref>clipitem-1507</linkclipref>
													<mediatype>audio</mediatype>
													<trackindex>2</trackindex>
													<clipindex>1</clipindex>
													<groupindex>1</groupindex>
												</link>
											</clipitem>
										</track>
									</audio>
								</media>
								<logginginfo>
									<description></description>
									<scene></scene>
									<shottake></shottake>
									<lognote></lognote>
									<good></good>
									<originalvideofilename></originalvideofilename>
									<originalaudiofilename></originalaudiofilename>
								</logginginfo>
								<colorinfo>
									<lut></lut>
									<lut1></lut1>
									<asc_sop></asc_sop>
									<asc_sat></asc_sat>
									<lut2></lut2>
								</colorinfo>
								<labels>
								</labels>
							</clip>
							<clip id="masterclip-140" explodedTracks="true">
								<uuid>6382d219-8d61-459b-93a3-47830b0ed7c7</uuid>
								<masterclipid>masterclip-140</masterclipid>
								<ismasterclip>TRUE</ismasterclip>
								<duration>678</duration>
								<rate>
									<timebase>30</timebase>
									<ntsc>FALSE</ntsc>
								</rate>
								<out>593</out>
								<name>(succulentbite)_BYn2PhkAupy_IG.mp4</name>
								<media>
									<video>
										<track>
											<clipitem id="clipitem-1508">
												<masterclipid>masterclip-140</masterclipid>
												<name>(succulentbite)_BYn2PhkAupy_IG.mp4</name>
												<rate>
													<timebase>30</timebase>
													<ntsc>FALSE</ntsc>
												</rate>
												<alphatype>none</alphatype>
												<file id="file-120"/>
											</clipitem>
										</track>
									</video>
								</media>
								<logginginfo>
									<description></description>
									<scene></scene>
									<shottake></shottake>
									<lognote></lognote>
									<good></good>
									<originalvideofilename></originalvideofilename>
									<originalaudiofilename></originalaudiofilename>
								</logginginfo>
								<colorinfo>
									<lut></lut>
									<lut1></lut1>
									<asc_sop></asc_sop>
									<asc_sat></asc_sat>
									<lut2></lut2>
								</colorinfo>
								<labels>
								</labels>
							</clip>
							<clip id="masterclip-141" explodedTracks="true">
								<uuid>57f014b2-cd58-4d6f-b335-184486f40ba7</uuid>
								<masterclipid>masterclip-141</masterclipid>
								<ismasterclip>TRUE</ismasterclip>
								<duration>1899</duration>
								<rate>
									<timebase>60</timebase>
									<ntsc>FALSE</ntsc>
								</rate>
								<in>655</in>
								<name>(thethriftwitch)_7121112613890706734_TT.mp4</name>
								<media>
									<video>
										<track>
											<clipitem id="clipitem-1509">
												<masterclipid>masterclip-141</masterclipid>
												<name>(thethriftwitch)_7121112613890706734_TT.mp4</name>
												<rate>
													<timebase>60</timebase>
													<ntsc>FALSE</ntsc>
												</rate>
												<alphatype>none</alphatype>
												<file id="file-121"/>
												<link>
													<linkclipref>clipitem-1509</linkclipref>
													<mediatype>video</mediatype>
													<trackindex>1</trackindex>
													<clipindex>1</clipindex>
												</link>
												<link>
													<linkclipref>clipitem-1510</linkclipref>
													<mediatype>audio</mediatype>
													<trackindex>1</trackindex>
													<clipindex>1</clipindex>
													<groupindex>1</groupindex>
												</link>
												<link>
													<linkclipref>clipitem-1511</linkclipref>
													<mediatype>audio</mediatype>
													<trackindex>2</trackindex>
													<clipindex>1</clipindex>
													<groupindex>1</groupindex>
												</link>
											</clipitem>
										</track>
									</video>
									<audio>
										<track>
											<clipitem id="clipitem-1510">
												<masterclipid>masterclip-141</masterclipid>
												<name>(thethriftwitch)_7121112613890706734_TT.mp4</name>
												<rate>
													<timebase>60</timebase>
													<ntsc>FALSE</ntsc>
												</rate>
												<file id="file-121"/>
												<sourcetrack>
													<mediatype>audio</mediatype>
													<trackindex>1</trackindex>
												</sourcetrack>
												<link>
													<linkclipref>clipitem-1509</linkclipref>
													<mediatype>video</mediatype>
													<trackindex>1</trackindex>
													<clipindex>1</clipindex>
												</link>
												<link>
													<linkclipref>clipitem-1510</linkclipref>
													<mediatype>audio</mediatype>
													<trackindex>1</trackindex>
													<clipindex>1</clipindex>
													<groupindex>1</groupindex>
												</link>
												<link>
													<linkclipref>clipitem-1511</linkclipref>
													<mediatype>audio</mediatype>
													<trackindex>2</trackindex>
													<clipindex>1</clipindex>
													<groupindex>1</groupindex>
												</link>
											</clipitem>
										</track>
										<track>
											<clipitem id="clipitem-1511">
												<masterclipid>masterclip-141</masterclipid>
												<name>(thethriftwitch)_7121112613890706734_TT.mp4</name>
												<rate>
													<timebase>60</timebase>
													<ntsc>FALSE</ntsc>
												</rate>
												<file id="file-121"/>
												<sourcetrack>
													<mediatype>audio</mediatype>
													<trackindex>2</trackindex>
												</sourcetrack>
												<link>
													<linkclipref>clipitem-1509</linkclipref>
													<mediatype>video</mediatype>
													<trackindex>1</trackindex>
													<clipindex>1</clipindex>
												</link>
												<link>
													<linkclipref>clipitem-1510</linkclipref>
													<mediatype>audio</mediatype>
													<trackindex>1</trackindex>
													<clipindex>1</clipindex>
													<groupindex>1</groupindex>
												</link>
												<link>
													<linkclipref>clipitem-1511</linkclipref>
													<mediatype>audio</mediatype>
													<trackindex>2</trackindex>
													<clipindex>1</clipindex>
													<groupindex>1</groupindex>
												</link>
											</clipitem>
										</track>
									</audio>
								</media>
								<logginginfo>
									<description></description>
									<scene></scene>
									<shottake></shottake>
									<lognote></lognote>
									<good></good>
									<originalvideofilename></originalvideofilename>
									<originalaudiofilename></originalaudiofilename>
								</logginginfo>
								<colorinfo>
									<lut></lut>
									<lut1></lut1>
									<asc_sop></asc_sop>
									<asc_sat></asc_sat>
									<lut2></lut2>
								</colorinfo>
								<labels>
								</labels>
							</clip>
						</children>
					</bin>
				</children>
			</bin>
			<bin>
				<name>2_Lower Thirds</name>
				<labels>
					<label2>Mango</label2>
				</labels>
				<children>
					<clip id="masterclip-284" explodedTracks="true">
						<uuid>c6589ead-80c3-4b80-a73c-cec224e5a640</uuid>
						<masterclipid>masterclip-284</masterclipid>
						<ismasterclip>TRUE</ismasterclip>
						<duration>6300</duration>
						<rate>
							<timebase>30</timebase>
							<ntsc>FALSE</ntsc>
						</rate>
						<in>31</in>
						<out>208</out>
						<name>EYECANDY_L3RD_JL_V03/EYECANDY_L3rd_JL_V04.aep</name>
						<media>
							<video>
								<track>
									<clipitem id="clipitem-1512">
										<masterclipid>masterclip-284</masterclipid>
										<name>EYECANDY_L3RD_JL_V03/EYECANDY_L3rd_JL_V04.aep</name>
										<rate>
											<timebase>30</timebase>
											<ntsc>FALSE</ntsc>
										</rate>
										<alphatype>straight</alphatype>
										<pixelaspectratio>square</pixelaspectratio>
										<anamorphic>FALSE</anamorphic>
										<file id="file-248">
											<name>EYECANDY_L3RD_JL_V03/EYECANDY_L3rd_JL_V04.aep</name>
											<pathurl>file://localhost/Volumes/ATM%201/EYE%20CANDY/Project%20Template/5_Assets/Eye%20Candy%20Mograph/EYECANDY_L3rd_JL_V04%20folder/EYECANDY_L3rd_JL_V04.aep</pathurl>
											<rate>
												<timebase>30</timebase>
												<ntsc>FALSE</ntsc>
											</rate>
											<duration>6300</duration>
											<timecode>
												<rate>
													<timebase>30</timebase>
													<ntsc>FALSE</ntsc>
												</rate>
												<string>00:00:00:00</string>
												<frame>0</frame>
												<displayformat>NDF</displayformat>
											</timecode>
											<media>
												<video>
													<samplecharacteristics>
														<rate>
															<timebase>30</timebase>
															<ntsc>FALSE</ntsc>
														</rate>
														<width>1920</width>
														<height>1080</height>
														<anamorphic>FALSE</anamorphic>
														<pixelaspectratio>square</pixelaspectratio>
														<fielddominance>lower</fielddominance>
													</samplecharacteristics>
												</video>
											</media>
										</file>
									</clipitem>
								</track>
							</video>
						</media>
						<logginginfo>
							<description></description>
							<scene></scene>
							<shottake></shottake>
							<lognote></lognote>
							<good></good>
							<originalvideofilename></originalvideofilename>
							<originalaudiofilename></originalaudiofilename>
						</logginginfo>
						<colorinfo>
							<lut></lut>
							<lut1></lut1>
							<asc_sop></asc_sop>
							<asc_sat></asc_sat>
							<lut2></lut2>
						</colorinfo>
						<labels>
						</labels>
					</clip>
					<clip id="masterclip-158" explodedTracks="true">
						<uuid>d15b50f1-79d9-4e6d-bc19-cafc2c602b79</uuid>
						<masterclipid>masterclip-158</masterclipid>
						<ismasterclip>TRUE</ismasterclip>
						<duration>6300</duration>
						<rate>
							<timebase>30</timebase>
							<ntsc>FALSE</ntsc>
						</rate>
						<in>31</in>
						<out>208</out>
						<name>Three Flavored Cake</name>
						<media>
							<video>
								<track>
									<clipitem id="clipitem-1513">
										<masterclipid>masterclip-158</masterclipid>
										<name>Three Flavored Cake</name>
										<rate>
											<timebase>30</timebase>
											<ntsc>FALSE</ntsc>
										</rate>
										<alphatype>straight</alphatype>
										<file id="file-136"/>
									</clipitem>
								</track>
							</video>
						</media>
						<logginginfo>
							<description></description>
							<scene></scene>
							<shottake></shottake>
							<lognote></lognote>
							<good></good>
							<originalvideofilename></originalvideofilename>
							<originalaudiofilename></originalaudiofilename>
						</logginginfo>
						<colorinfo>
							<lut></lut>
							<lut1></lut1>
							<asc_sop></asc_sop>
							<asc_sat></asc_sat>
							<lut2></lut2>
						</colorinfo>
						<labels>
						</labels>
					</clip>
					<clip id="masterclip-159" explodedTracks="true">
						<uuid>f461daf5-ff6a-4387-9aeb-ccd267991379</uuid>
						<masterclipid>masterclip-159</masterclipid>
						<ismasterclip>TRUE</ismasterclip>
						<duration>6300</duration>
						<rate>
							<timebase>30</timebase>
							<ntsc>FALSE</ntsc>
						</rate>
						<in>31</in>
						<out>208</out>
						<name>Lemon Blueberry Bliss</name>
						<media>
							<video>
								<track>
									<clipitem id="clipitem-1514">
										<masterclipid>masterclip-159</masterclipid>
										<name>Lemon Blueberry Bliss</name>
										<rate>
											<timebase>30</timebase>
											<ntsc>FALSE</ntsc>
										</rate>
										<alphatype>straight</alphatype>
										<file id="file-137"/>
									</clipitem>
								</track>
							</video>
						</media>
						<logginginfo>
							<description></description>
							<scene></scene>
							<shottake></shottake>
							<lognote></lognote>
							<good></good>
							<originalvideofilename></originalvideofilename>
							<originalaudiofilename></originalaudiofilename>
						</logginginfo>
						<colorinfo>
							<lut></lut>
							<lut1></lut1>
							<asc_sop></asc_sop>
							<asc_sat></asc_sat>
							<lut2></lut2>
						</colorinfo>
						<labels>
						</labels>
					</clip>
					<clip id="masterclip-178" explodedTracks="true">
						<uuid>825d80b8-cf63-495c-8f91-bd17b344eeab</uuid>
						<masterclipid>masterclip-178</masterclipid>
						<ismasterclip>TRUE</ismasterclip>
						<duration>6300</duration>
						<rate>
							<timebase>30</timebase>
							<ntsc>FALSE</ntsc>
						</rate>
						<in>31</in>
						<out>208</out>
						<name>Perfect Pistachio Pirouettes</name>
						<media>
							<video>
								<track>
									<clipitem id="clipitem-1515">
										<masterclipid>masterclip-178</masterclipid>
										<name>Perfect Pistachio Pirouettes</name>
										<rate>
											<timebase>30</timebase>
											<ntsc>FALSE</ntsc>
										</rate>
										<alphatype>straight</alphatype>
										<file id="file-154"/>
									</clipitem>
								</track>
							</video>
						</media>
						<logginginfo>
							<description></description>
							<scene></scene>
							<shottake></shottake>
							<lognote></lognote>
							<good></good>
							<originalvideofilename></originalvideofilename>
							<originalaudiofilename></originalaudiofilename>
						</logginginfo>
						<colorinfo>
							<lut></lut>
							<lut1></lut1>
							<asc_sop></asc_sop>
							<asc_sat></asc_sat>
							<lut2></lut2>
						</colorinfo>
						<labels>
						</labels>
					</clip>
					<clip id="masterclip-179" explodedTracks="true">
						<uuid>4c06c952-fc4c-498c-86f9-ed41686b697b</uuid>
						<masterclipid>masterclip-179</masterclipid>
						<ismasterclip>TRUE</ismasterclip>
						<duration>6300</duration>
						<rate>
							<timebase>30</timebase>
							<ntsc>FALSE</ntsc>
						</rate>
						<in>31</in>
						<out>208</out>
						<name>Cinnamon Spiced Bites</name>
						<media>
							<video>
								<track>
									<clipitem id="clipitem-1516">
										<masterclipid>masterclip-179</masterclipid>
										<name>Cinnamon Spiced Bites</name>
										<rate>
											<timebase>30</timebase>
											<ntsc>FALSE</ntsc>
										</rate>
										<alphatype>straight</alphatype>
										<file id="file-155"/>
									</clipitem>
								</track>
							</video>
						</media>
						<logginginfo>
							<description></description>
							<scene></scene>
							<shottake></shottake>
							<lognote></lognote>
							<good></good>
							<originalvideofilename></originalvideofilename>
							<originalaudiofilename></originalaudiofilename>
						</logginginfo>
						<colorinfo>
							<lut></lut>
							<lut1></lut1>
							<asc_sop></asc_sop>
							<asc_sat></asc_sat>
							<lut2></lut2>
						</colorinfo>
						<labels>
						</labels>
					</clip>
					<clip id="masterclip-205" explodedTracks="true">
						<uuid>ef5dd672-e752-4f2c-88c2-eddae25cfc58</uuid>
						<masterclipid>masterclip-205</masterclipid>
						<ismasterclip>TRUE</ismasterclip>
						<duration>6300</duration>
						<rate>
							<timebase>30</timebase>
							<ntsc>FALSE</ntsc>
						</rate>
						<in>31</in>
						<out>208</out>
						<name>Cottagecore Treats</name>
						<media>
							<video>
								<track>
									<clipitem id="clipitem-1517">
										<masterclipid>masterclip-205</masterclipid>
										<name>Cottagecore Treats</name>
										<rate>
											<timebase>30</timebase>
											<ntsc>FALSE</ntsc>
										</rate>
										<alphatype>straight</alphatype>
										<file id="file-177"/>
									</clipitem>
								</track>
							</video>
						</media>
						<logginginfo>
							<description></description>
							<scene></scene>
							<shottake></shottake>
							<lognote></lognote>
							<good></good>
							<originalvideofilename></originalvideofilename>
							<originalaudiofilename></originalaudiofilename>
						</logginginfo>
						<colorinfo>
							<lut></lut>
							<lut1></lut1>
							<asc_sop></asc_sop>
							<asc_sat></asc_sat>
							<lut2></lut2>
						</colorinfo>
						<labels>
						</labels>
					</clip>
					<clip id="masterclip-206" explodedTracks="true">
						<uuid>acc5232c-16b5-4519-8229-78f21a181210</uuid>
						<masterclipid>masterclip-206</masterclipid>
						<ismasterclip>TRUE</ismasterclip>
						<duration>6300</duration>
						<rate>
							<timebase>30</timebase>
							<ntsc>FALSE</ntsc>
						</rate>
						<in>31</in>
						<out>208</out>
						<name>Bitefulls of Bliss</name>
						<media>
							<video>
								<track>
									<clipitem id="clipitem-1518">
										<masterclipid>masterclip-206</masterclipid>
										<name>Bitefulls of Bliss</name>
										<rate>
											<timebase>30</timebase>
											<ntsc>FALSE</ntsc>
										</rate>
										<alphatype>straight</alphatype>
										<file id="file-178"/>
									</clipitem>
								</track>
							</video>
						</media>
						<logginginfo>
							<description></description>
							<scene></scene>
							<shottake></shottake>
							<lognote></lognote>
							<good></good>
							<originalvideofilename></originalvideofilename>
							<originalaudiofilename></originalaudiofilename>
						</logginginfo>
						<colorinfo>
							<lut></lut>
							<lut1></lut1>
							<asc_sop></asc_sop>
							<asc_sat></asc_sat>
							<lut2></lut2>
						</colorinfo>
						<labels>
						</labels>
					</clip>
					<clip id="masterclip-218" explodedTracks="true">
						<uuid>2e7062a7-fda3-41e9-8e6f-de783e367896</uuid>
						<masterclipid>masterclip-218</masterclipid>
						<ismasterclip>TRUE</ismasterclip>
						<duration>6300</duration>
						<rate>
							<timebase>30</timebase>
							<ntsc>FALSE</ntsc>
						</rate>
						<in>31</in>
						<out>208</out>
						<name>Teriffic Tiramisu Pancakes</name>
						<media>
							<video>
								<track>
									<clipitem id="clipitem-1519">
										<masterclipid>masterclip-218</masterclipid>
										<name>Teriffic Tiramisu Pancakes</name>
										<rate>
											<timebase>30</timebase>
											<ntsc>FALSE</ntsc>
										</rate>
										<alphatype>straight</alphatype>
										<file id="file-188"/>
									</clipitem>
								</track>
							</video>
						</media>
						<logginginfo>
							<description></description>
							<scene></scene>
							<shottake></shottake>
							<lognote></lognote>
							<good></good>
							<originalvideofilename></originalvideofilename>
							<originalaudiofilename></originalaudiofilename>
						</logginginfo>
						<colorinfo>
							<lut></lut>
							<lut1></lut1>
							<asc_sop></asc_sop>
							<asc_sat></asc_sat>
							<lut2></lut2>
						</colorinfo>
						<labels>
						</labels>
					</clip>
					<clip id="masterclip-219" explodedTracks="true">
						<uuid>8584c9ec-86ad-4207-8261-8bb6946b89fe</uuid>
						<masterclipid>masterclip-219</masterclipid>
						<ismasterclip>TRUE</ismasterclip>
						<duration>6300</duration>
						<rate>
							<timebase>30</timebase>
							<ntsc>FALSE</ntsc>
						</rate>
						<in>31</in>
						<out>208</out>
						<name>Snacks for A Hike</name>
						<media>
							<video>
								<track>
									<clipitem id="clipitem-1520">
										<masterclipid>masterclip-219</masterclipid>
										<name>Snacks for A Hike</name>
										<rate>
											<timebase>30</timebase>
											<ntsc>FALSE</ntsc>
										</rate>
										<alphatype>straight</alphatype>
										<file id="file-189"/>
									</clipitem>
								</track>
							</video>
						</media>
						<logginginfo>
							<description></description>
							<scene></scene>
							<shottake></shottake>
							<lognote></lognote>
							<good></good>
							<originalvideofilename></originalvideofilename>
							<originalaudiofilename></originalaudiofilename>
						</logginginfo>
						<colorinfo>
							<lut></lut>
							<lut1></lut1>
							<asc_sop></asc_sop>
							<asc_sat></asc_sat>
							<lut2></lut2>
						</colorinfo>
						<labels>
						</labels>
					</clip>
					<clip id="masterclip-231" explodedTracks="true">
						<uuid>b09e4715-b79f-43ab-8d95-129a9f2e7b13</uuid>
						<masterclipid>masterclip-231</masterclipid>
						<ismasterclip>TRUE</ismasterclip>
						<duration>6300</duration>
						<rate>
							<timebase>30</timebase>
							<ntsc>FALSE</ntsc>
						</rate>
						<in>31</in>
						<out>208</out>
						<name>Cutesy Cactus Cupcakes</name>
						<media>
							<video>
								<track>
									<clipitem id="clipitem-1521">
										<masterclipid>masterclip-231</masterclipid>
										<name>Cutesy Cactus Cupcakes</name>
										<rate>
											<timebase>30</timebase>
											<ntsc>FALSE</ntsc>
										</rate>
										<alphatype>straight</alphatype>
										<file id="file-199"/>
									</clipitem>
								</track>
							</video>
						</media>
						<logginginfo>
							<description></description>
							<scene></scene>
							<shottake></shottake>
							<lognote></lognote>
							<good></good>
							<originalvideofilename></originalvideofilename>
							<originalaudiofilename></originalaudiofilename>
						</logginginfo>
						<colorinfo>
							<lut></lut>
							<lut1></lut1>
							<asc_sop></asc_sop>
							<asc_sat></asc_sat>
							<lut2></lut2>
						</colorinfo>
						<labels>
						</labels>
					</clip>
					<clip id="masterclip-232" explodedTracks="true">
						<uuid>1793a543-0a87-4624-b771-6152d4a0e42a</uuid>
						<masterclipid>masterclip-232</masterclipid>
						<ismasterclip>TRUE</ismasterclip>
						<duration>6300</duration>
						<rate>
							<timebase>30</timebase>
							<ntsc>FALSE</ntsc>
						</rate>
						<in>31</in>
						<out>208</out>
						<name>Cotton Candy Creations</name>
						<media>
							<video>
								<track>
									<clipitem id="clipitem-1522">
										<masterclipid>masterclip-232</masterclipid>
										<name>Cotton Candy Creations</name>
										<rate>
											<timebase>30</timebase>
											<ntsc>FALSE</ntsc>
										</rate>
										<alphatype>straight</alphatype>
										<file id="file-200"/>
									</clipitem>
								</track>
							</video>
						</media>
						<logginginfo>
							<description></description>
							<scene></scene>
							<shottake></shottake>
							<lognote></lognote>
							<good></good>
							<originalvideofilename></originalvideofilename>
							<originalaudiofilename></originalaudiofilename>
						</logginginfo>
						<colorinfo>
							<lut></lut>
							<lut1></lut1>
							<asc_sop></asc_sop>
							<asc_sat></asc_sat>
							<lut2></lut2>
						</colorinfo>
						<labels>
						</labels>
					</clip>
					<clip id="masterclip-243" explodedTracks="true">
						<uuid>0b6fc023-3b41-45ac-91d0-5b43a29909c9</uuid>
						<masterclipid>masterclip-243</masterclipid>
						<ismasterclip>TRUE</ismasterclip>
						<duration>6300</duration>
						<rate>
							<timebase>30</timebase>
							<ntsc>FALSE</ntsc>
						</rate>
						<in>31</in>
						<out>208</out>
						<name>Tripple the Toast</name>
						<media>
							<video>
								<track>
									<clipitem id="clipitem-1523">
										<masterclipid>masterclip-243</masterclipid>
										<name>Tripple the Toast</name>
										<rate>
											<timebase>30</timebase>
											<ntsc>FALSE</ntsc>
										</rate>
										<alphatype>straight</alphatype>
										<file id="file-209"/>
									</clipitem>
								</track>
							</video>
						</media>
						<logginginfo>
							<description></description>
							<scene></scene>
							<shottake></shottake>
							<lognote></lognote>
							<good></good>
							<originalvideofilename></originalvideofilename>
							<originalaudiofilename></originalaudiofilename>
						</logginginfo>
						<colorinfo>
							<lut></lut>
							<lut1></lut1>
							<asc_sop></asc_sop>
							<asc_sat></asc_sat>
							<lut2></lut2>
						</colorinfo>
						<labels>
						</labels>
					</clip>
					<clip id="masterclip-244" explodedTracks="true">
						<uuid>9693fabe-e5f8-4c77-b32e-81e0fa5688de</uuid>
						<masterclipid>masterclip-244</masterclipid>
						<ismasterclip>TRUE</ismasterclip>
						<duration>6300</duration>
						<rate>
							<timebase>30</timebase>
							<ntsc>FALSE</ntsc>
						</rate>
						<in>31</in>
						<out>208</out>
						<name>Cool Blue Treats</name>
						<media>
							<video>
								<track>
									<clipitem id="clipitem-1524">
										<masterclipid>masterclip-244</masterclipid>
										<name>Cool Blue Treats</name>
										<rate>
											<timebase>30</timebase>
											<ntsc>FALSE</ntsc>
										</rate>
										<alphatype>straight</alphatype>
										<file id="file-210"/>
									</clipitem>
								</track>
							</video>
						</media>
						<logginginfo>
							<description></description>
							<scene></scene>
							<shottake></shottake>
							<lognote></lognote>
							<good></good>
							<originalvideofilename></originalvideofilename>
							<originalaudiofilename></originalaudiofilename>
						</logginginfo>
						<colorinfo>
							<lut></lut>
							<lut1></lut1>
							<asc_sop></asc_sop>
							<asc_sat></asc_sat>
							<lut2></lut2>
						</colorinfo>
						<labels>
						</labels>
					</clip>
					<clip id="masterclip-266" explodedTracks="true">
						<uuid>153baa27-1624-4f55-8aab-f7673a4db301</uuid>
						<masterclipid>masterclip-266</masterclipid>
						<ismasterclip>TRUE</ismasterclip>
						<duration>6300</duration>
						<rate>
							<timebase>30</timebase>
							<ntsc>FALSE</ntsc>
						</rate>
						<in>31</in>
						<out>208</out>
						<name>Life is Brewtiful</name>
						<media>
							<video>
								<track>
									<clipitem id="clipitem-1525">
										<masterclipid>masterclip-266</masterclipid>
										<name>Life is Brewtiful</name>
										<rate>
											<timebase>30</timebase>
											<ntsc>FALSE</ntsc>
										</rate>
										<alphatype>straight</alphatype>
										<file id="file-230"/>
									</clipitem>
								</track>
							</video>
						</media>
						<logginginfo>
							<description></description>
							<scene></scene>
							<shottake></shottake>
							<lognote></lognote>
							<good></good>
							<originalvideofilename></originalvideofilename>
							<originalaudiofilename></originalaudiofilename>
						</logginginfo>
						<colorinfo>
							<lut></lut>
							<lut1></lut1>
							<asc_sop></asc_sop>
							<asc_sat></asc_sat>
							<lut2></lut2>
						</colorinfo>
						<labels>
						</labels>
					</clip>
					<clip id="masterclip-267" explodedTracks="true">
						<uuid>5e0e967f-272c-4d4e-9847-6a4a64968b67</uuid>
						<masterclipid>masterclip-267</masterclipid>
						<ismasterclip>TRUE</ismasterclip>
						<duration>6300</duration>
						<rate>
							<timebase>30</timebase>
							<ntsc>FALSE</ntsc>
						</rate>
						<in>31</in>
						<out>208</out>
						<name>Peanut Butter Me Up</name>
						<media>
							<video>
								<track>
									<clipitem id="clipitem-1526">
										<masterclipid>masterclip-267</masterclipid>
										<name>Peanut Butter Me Up</name>
										<rate>
											<timebase>30</timebase>
											<ntsc>FALSE</ntsc>
										</rate>
										<alphatype>straight</alphatype>
										<file id="file-231"/>
									</clipitem>
								</track>
							</video>
						</media>
						<logginginfo>
							<description></description>
							<scene></scene>
							<shottake></shottake>
							<lognote></lognote>
							<good></good>
							<originalvideofilename></originalvideofilename>
							<originalaudiofilename></originalaudiofilename>
						</logginginfo>
						<colorinfo>
							<lut></lut>
							<lut1></lut1>
							<asc_sop></asc_sop>
							<asc_sat></asc_sat>
							<lut2></lut2>
						</colorinfo>
						<labels>
						</labels>
					</clip>
					<clip id="masterclip-17" explodedTracks="true">
						<uuid>4103b824-3a8e-4180-9ac5-ed44fd1764f7</uuid>
						<masterclipid>masterclip-17</masterclipid>
						<ismasterclip>TRUE</ismasterclip>
						<duration>6300</duration>
						<rate>
							<timebase>30</timebase>
							<ntsc>FALSE</ntsc>
						</rate>
						<in>31</in>
						<out>208</out>
						<name>Batter Up!</name>
						<media>
							<video>
								<track>
									<clipitem id="clipitem-1527">
										<masterclipid>masterclip-17</masterclipid>
										<name>Batter Up!</name>
										<rate>
											<timebase>30</timebase>
											<ntsc>FALSE</ntsc>
										</rate>
										<alphatype>straight</alphatype>
										<file id="file-15"/>
									</clipitem>
								</track>
							</video>
						</media>
						<logginginfo>
							<description></description>
							<scene></scene>
							<shottake></shottake>
							<lognote></lognote>
							<good></good>
							<originalvideofilename></originalvideofilename>
							<originalaudiofilename></originalaudiofilename>
						</logginginfo>
						<colorinfo>
							<lut></lut>
							<lut1></lut1>
							<asc_sop></asc_sop>
							<asc_sat></asc_sat>
							<lut2></lut2>
						</colorinfo>
						<labels>
						</labels>
					</clip>
					<clip id="masterclip-18" explodedTracks="true">
						<uuid>052c7a49-3f79-46e2-9b01-b3a392294c6f</uuid>
						<masterclipid>masterclip-18</masterclipid>
						<ismasterclip>TRUE</ismasterclip>
						<duration>6300</duration>
						<rate>
							<timebase>30</timebase>
							<ntsc>FALSE</ntsc>
						</rate>
						<in>31</in>
						<out>208</out>
						<name>Overwhelmingly Orange</name>
						<media>
							<video>
								<track>
									<clipitem id="clipitem-1528">
										<masterclipid>masterclip-18</masterclipid>
										<name>Overwhelmingly Orange</name>
										<rate>
											<timebase>30</timebase>
											<ntsc>FALSE</ntsc>
										</rate>
										<alphatype>straight</alphatype>
										<file id="file-16"/>
									</clipitem>
								</track>
							</video>
						</media>
						<logginginfo>
							<description></description>
							<scene></scene>
							<shottake></shottake>
							<lognote></lognote>
							<good></good>
							<originalvideofilename></originalvideofilename>
							<originalaudiofilename></originalaudiofilename>
						</logginginfo>
						<colorinfo>
							<lut></lut>
							<lut1></lut1>
							<asc_sop></asc_sop>
							<asc_sat></asc_sat>
							<lut2></lut2>
						</colorinfo>
						<labels>
						</labels>
					</clip>
					<clip id="masterclip-40" explodedTracks="true">
						<uuid>7c00e8f4-0c1a-4465-b02d-d06973d9dd2e</uuid>
						<masterclipid>masterclip-40</masterclipid>
						<ismasterclip>TRUE</ismasterclip>
						<duration>6300</duration>
						<rate>
							<timebase>30</timebase>
							<ntsc>FALSE</ntsc>
						</rate>
						<in>31</in>
						<out>208</out>
						<name>Nature Never Tasted So Good</name>
						<media>
							<video>
								<track>
									<clipitem id="clipitem-1529">
										<masterclipid>masterclip-40</masterclipid>
										<name>Nature Never Tasted So Good</name>
										<rate>
											<timebase>30</timebase>
											<ntsc>FALSE</ntsc>
										</rate>
										<alphatype>straight</alphatype>
										<file id="file-32"/>
									</clipitem>
								</track>
							</video>
						</media>
						<logginginfo>
							<description></description>
							<scene></scene>
							<shottake></shottake>
							<lognote></lognote>
							<good></good>
							<originalvideofilename></originalvideofilename>
							<originalaudiofilename></originalaudiofilename>
						</logginginfo>
						<colorinfo>
							<lut></lut>
							<lut1></lut1>
							<asc_sop></asc_sop>
							<asc_sat></asc_sat>
							<lut2></lut2>
						</colorinfo>
						<labels>
						</labels>
					</clip>
					<clip id="masterclip-41" explodedTracks="true">
						<uuid>af19f9b5-19fc-467f-b5d0-565bb353c722</uuid>
						<masterclipid>masterclip-41</masterclipid>
						<ismasterclip>TRUE</ismasterclip>
						<duration>6300</duration>
						<rate>
							<timebase>30</timebase>
							<ntsc>FALSE</ntsc>
						</rate>
						<in>31</in>
						<out>208</out>
						<name>Pastel Power</name>
						<media>
							<video>
								<track>
									<clipitem id="clipitem-1530">
										<masterclipid>masterclip-41</masterclipid>
										<name>Pastel Power</name>
										<rate>
											<timebase>30</timebase>
											<ntsc>FALSE</ntsc>
										</rate>
										<alphatype>straight</alphatype>
										<file id="file-33"/>
									</clipitem>
								</track>
							</video>
						</media>
						<logginginfo>
							<description></description>
							<scene></scene>
							<shottake></shottake>
							<lognote></lognote>
							<good></good>
							<originalvideofilename></originalvideofilename>
							<originalaudiofilename></originalaudiofilename>
						</logginginfo>
						<colorinfo>
							<lut></lut>
							<lut1></lut1>
							<asc_sop></asc_sop>
							<asc_sat></asc_sat>
							<lut2></lut2>
						</colorinfo>
						<labels>
						</labels>
					</clip>
					<clip id="masterclip-67" explodedTracks="true">
						<uuid>bac0bef2-6a08-48f2-9967-2aab685ab35d</uuid>
						<masterclipid>masterclip-67</masterclipid>
						<ismasterclip>TRUE</ismasterclip>
						<duration>6300</duration>
						<rate>
							<timebase>30</timebase>
							<ntsc>FALSE</ntsc>
						</rate>
						<in>31</in>
						<out>208</out>
						<name>Gourmet Desert Plate</name>
						<media>
							<video>
								<track>
									<clipitem id="clipitem-1531">
										<masterclipid>masterclip-67</masterclipid>
										<name>Gourmet Desert Plate</name>
										<rate>
											<timebase>30</timebase>
											<ntsc>FALSE</ntsc>
										</rate>
										<alphatype>straight</alphatype>
										<file id="file-56"/>
									</clipitem>
								</track>
							</video>
						</media>
						<logginginfo>
							<description></description>
							<scene></scene>
							<shottake></shottake>
							<lognote></lognote>
							<good></good>
							<originalvideofilename></originalvideofilename>
							<originalaudiofilename></originalaudiofilename>
						</logginginfo>
						<colorinfo>
							<lut></lut>
							<lut1></lut1>
							<asc_sop></asc_sop>
							<asc_sat></asc_sat>
							<lut2></lut2>
						</colorinfo>
						<labels>
						</labels>
					</clip>
					<clip id="masterclip-68" explodedTracks="true">
						<uuid>1fb1bdf6-b9e0-4a0f-a826-35771c9b619e</uuid>
						<masterclipid>masterclip-68</masterclipid>
						<ismasterclip>TRUE</ismasterclip>
						<duration>6300</duration>
						<rate>
							<timebase>30</timebase>
							<ntsc>FALSE</ntsc>
						</rate>
						<in>31</in>
						<out>208</out>
						<name>Way to Go, Oreo!</name>
						<media>
							<video>
								<track>
									<clipitem id="clipitem-1532">
										<masterclipid>masterclip-68</masterclipid>
										<name>Way to Go, Oreo!</name>
										<rate>
											<timebase>30</timebase>
											<ntsc>FALSE</ntsc>
										</rate>
										<alphatype>straight</alphatype>
										<file id="file-57"/>
									</clipitem>
								</track>
							</video>
						</media>
						<logginginfo>
							<description></description>
							<scene></scene>
							<shottake></shottake>
							<lognote></lognote>
							<good></good>
							<originalvideofilename></originalvideofilename>
							<originalaudiofilename></originalaudiofilename>
						</logginginfo>
						<colorinfo>
							<lut></lut>
							<lut1></lut1>
							<asc_sop></asc_sop>
							<asc_sat></asc_sat>
							<lut2></lut2>
						</colorinfo>
						<labels>
						</labels>
					</clip>
					<clip id="masterclip-86" explodedTracks="true">
						<uuid>0d8f4b20-82de-4c8e-a1a9-402990115164</uuid>
						<masterclipid>masterclip-86</masterclipid>
						<ismasterclip>TRUE</ismasterclip>
						<duration>6300</duration>
						<rate>
							<timebase>30</timebase>
							<ntsc>FALSE</ntsc>
						</rate>
						<in>31</in>
						<out>208</out>
						<name>Out of this World Desserts</name>
						<media>
							<video>
								<track>
									<clipitem id="clipitem-1533">
										<masterclipid>masterclip-86</masterclipid>
										<name>Out of this World Desserts</name>
										<rate>
											<timebase>30</timebase>
											<ntsc>FALSE</ntsc>
										</rate>
										<alphatype>straight</alphatype>
										<file id="file-73"/>
									</clipitem>
								</track>
							</video>
						</media>
						<logginginfo>
							<description></description>
							<scene></scene>
							<shottake></shottake>
							<lognote></lognote>
							<good></good>
							<originalvideofilename></originalvideofilename>
							<originalaudiofilename></originalaudiofilename>
						</logginginfo>
						<colorinfo>
							<lut></lut>
							<lut1></lut1>
							<asc_sop></asc_sop>
							<asc_sat></asc_sat>
							<lut2></lut2>
						</colorinfo>
						<labels>
						</labels>
					</clip>
					<clip id="masterclip-87" explodedTracks="true">
						<uuid>7736a49e-1292-422a-a2ef-893c14d38c73</uuid>
						<masterclipid>masterclip-87</masterclipid>
						<ismasterclip>TRUE</ismasterclip>
						<duration>6300</duration>
						<rate>
							<timebase>30</timebase>
							<ntsc>FALSE</ntsc>
						</rate>
						<in>31</in>
						<out>208</out>
						<name>Chocolate and Orange the Gourmet Way</name>
						<media>
							<video>
								<track>
									<clipitem id="clipitem-1534">
										<masterclipid>masterclip-87</masterclipid>
										<name>Chocolate and Orange the Gourmet Way</name>
										<rate>
											<timebase>30</timebase>
											<ntsc>FALSE</ntsc>
										</rate>
										<alphatype>straight</alphatype>
										<file id="file-74"/>
									</clipitem>
								</track>
							</video>
						</media>
						<logginginfo>
							<description></description>
							<scene></scene>
							<shottake></shottake>
							<lognote></lognote>
							<good></good>
							<originalvideofilename></originalvideofilename>
							<originalaudiofilename></originalaudiofilename>
						</logginginfo>
						<colorinfo>
							<lut></lut>
							<lut1></lut1>
							<asc_sop></asc_sop>
							<asc_sat></asc_sat>
							<lut2></lut2>
						</colorinfo>
						<labels>
						</labels>
					</clip>
					<clip id="masterclip-113" explodedTracks="true">
						<uuid>db2d5fd7-d683-48f6-a9d8-c4f3c788f7d0</uuid>
						<masterclipid>masterclip-113</masterclipid>
						<ismasterclip>TRUE</ismasterclip>
						<duration>6300</duration>
						<rate>
							<timebase>30</timebase>
							<ntsc>FALSE</ntsc>
						</rate>
						<in>31</in>
						<out>208</out>
						<name>These Cookies Are My Jam</name>
						<media>
							<video>
								<track>
									<clipitem id="clipitem-1535">
										<masterclipid>masterclip-113</masterclipid>
										<name>These Cookies Are My Jam</name>
										<rate>
											<timebase>30</timebase>
											<ntsc>FALSE</ntsc>
										</rate>
										<alphatype>straight</alphatype>
										<file id="file-97"/>
									</clipitem>
								</track>
							</video>
						</media>
						<logginginfo>
							<description></description>
							<scene></scene>
							<shottake></shottake>
							<lognote></lognote>
							<good></good>
							<originalvideofilename></originalvideofilename>
							<originalaudiofilename></originalaudiofilename>
						</logginginfo>
						<colorinfo>
							<lut></lut>
							<lut1></lut1>
							<asc_sop></asc_sop>
							<asc_sat></asc_sat>
							<lut2></lut2>
						</colorinfo>
						<labels>
						</labels>
					</clip>
					<clip id="masterclip-114" explodedTracks="true">
						<uuid>5a8a7474-d87e-4dc1-b51a-1cfcf02d246f</uuid>
						<masterclipid>masterclip-114</masterclipid>
						<ismasterclip>TRUE</ismasterclip>
						<duration>6300</duration>
						<rate>
							<timebase>30</timebase>
							<ntsc>FALSE</ntsc>
						</rate>
						<in>31</in>
						<out>208</out>
						<name>Confectionary Casseroles</name>
						<media>
							<video>
								<track>
									<clipitem id="clipitem-1536">
										<masterclipid>masterclip-114</masterclipid>
										<name>Confectionary Casseroles</name>
										<rate>
											<timebase>30</timebase>
											<ntsc>FALSE</ntsc>
										</rate>
										<alphatype>straight</alphatype>
										<file id="file-98"/>
									</clipitem>
								</track>
							</video>
						</media>
						<logginginfo>
							<description></description>
							<scene></scene>
							<shottake></shottake>
							<lognote></lognote>
							<good></good>
							<originalvideofilename></originalvideofilename>
							<originalaudiofilename></originalaudiofilename>
						</logginginfo>
						<colorinfo>
							<lut></lut>
							<lut1></lut1>
							<asc_sop></asc_sop>
							<asc_sat></asc_sat>
							<lut2></lut2>
						</colorinfo>
						<labels>
						</labels>
					</clip>
					<clip id="masterclip-133" explodedTracks="true">
						<uuid>37969357-469e-4dcb-8324-2535416d09a6</uuid>
						<masterclipid>masterclip-133</masterclipid>
						<ismasterclip>TRUE</ismasterclip>
						<duration>6300</duration>
						<rate>
							<timebase>30</timebase>
							<ntsc>FALSE</ntsc>
						</rate>
						<in>31</in>
						<out>208</out>
						<name>Not Quite Ice Cream</name>
						<media>
							<video>
								<track>
									<clipitem id="clipitem-1537">
										<masterclipid>masterclip-133</masterclipid>
										<name>Not Quite Ice Cream</name>
										<rate>
											<timebase>30</timebase>
											<ntsc>FALSE</ntsc>
										</rate>
										<alphatype>straight</alphatype>
										<file id="file-115"/>
									</clipitem>
								</track>
							</video>
						</media>
						<logginginfo>
							<description></description>
							<scene></scene>
							<shottake></shottake>
							<lognote></lognote>
							<good></good>
							<originalvideofilename></originalvideofilename>
							<originalaudiofilename></originalaudiofilename>
						</logginginfo>
						<colorinfo>
							<lut></lut>
							<lut1></lut1>
							<asc_sop></asc_sop>
							<asc_sat></asc_sat>
							<lut2></lut2>
						</colorinfo>
						<labels>
						</labels>
					</clip>
					<clip id="masterclip-134" explodedTracks="true">
						<uuid>ef65433b-6de9-419c-b4f0-6047d86e69fb</uuid>
						<masterclipid>masterclip-134</masterclipid>
						<ismasterclip>TRUE</ismasterclip>
						<duration>6300</duration>
						<rate>
							<timebase>30</timebase>
							<ntsc>FALSE</ntsc>
						</rate>
						<in>31</in>
						<out>208</out>
						<name>Fresh Morning Fruit</name>
						<media>
							<video>
								<track>
									<clipitem id="clipitem-1538">
										<masterclipid>masterclip-134</masterclipid>
										<name>Fresh Morning Fruit</name>
										<rate>
											<timebase>30</timebase>
											<ntsc>FALSE</ntsc>
										</rate>
										<alphatype>straight</alphatype>
										<file id="file-116"/>
									</clipitem>
								</track>
							</video>
						</media>
						<logginginfo>
							<description></description>
							<scene></scene>
							<shottake></shottake>
							<lognote></lognote>
							<good></good>
							<originalvideofilename></originalvideofilename>
							<originalaudiofilename></originalaudiofilename>
						</logginginfo>
						<colorinfo>
							<lut></lut>
							<lut1></lut1>
							<asc_sop></asc_sop>
							<asc_sat></asc_sat>
							<lut2></lut2>
						</colorinfo>
						<labels>
						</labels>
					</clip>
					<clip id="masterclip-146" explodedTracks="true">
						<uuid>54efed43-8857-4fe7-95e8-9169674fdb84</uuid>
						<masterclipid>masterclip-146</masterclipid>
						<ismasterclip>TRUE</ismasterclip>
						<duration>6300</duration>
						<rate>
							<timebase>30</timebase>
							<ntsc>FALSE</ntsc>
						</rate>
						<in>31</in>
						<out>208</out>
						<name>Cupcaked Up</name>
						<media>
							<video>
								<track>
									<clipitem id="clipitem-1539">
										<masterclipid>masterclip-146</masterclipid>
										<name>Cupcaked Up</name>
										<rate>
											<timebase>30</timebase>
											<ntsc>FALSE</ntsc>
										</rate>
										<alphatype>straight</alphatype>
										<file id="file-126"/>
									</clipitem>
								</track>
							</video>
						</media>
						<logginginfo>
							<description></description>
							<scene></scene>
							<shottake></shottake>
							<lognote></lognote>
							<good></good>
							<originalvideofilename></originalvideofilename>
							<originalaudiofilename></originalaudiofilename>
						</logginginfo>
						<colorinfo>
							<lut></lut>
							<lut1></lut1>
							<asc_sop></asc_sop>
							<asc_sat></asc_sat>
							<lut2></lut2>
						</colorinfo>
						<labels>
						</labels>
					</clip>
					<clip id="masterclip-147" explodedTracks="true">
						<uuid>1c2faa98-fc66-4813-8b93-82fc36ef934d</uuid>
						<masterclipid>masterclip-147</masterclipid>
						<ismasterclip>TRUE</ismasterclip>
						<duration>6300</duration>
						<rate>
							<timebase>30</timebase>
							<ntsc>FALSE</ntsc>
						</rate>
						<in>31</in>
						<out>208</out>
						<name>It's Bananas</name>
						<media>
							<video>
								<track>
									<clipitem id="clipitem-1540">
										<masterclipid>masterclip-147</masterclipid>
										<name>It's Bananas</name>
										<rate>
											<timebase>30</timebase>
											<ntsc>FALSE</ntsc>
										</rate>
										<alphatype>straight</alphatype>
										<file id="file-127"/>
									</clipitem>
								</track>
							</video>
						</media>
						<logginginfo>
							<description></description>
							<scene></scene>
							<shottake></shottake>
							<lognote></lognote>
							<good></good>
							<originalvideofilename></originalvideofilename>
							<originalaudiofilename></originalaudiofilename>
						</logginginfo>
						<colorinfo>
							<lut></lut>
							<lut1></lut1>
							<asc_sop></asc_sop>
							<asc_sat></asc_sat>
							<lut2></lut2>
						</colorinfo>
						<labels>
						</labels>
					</clip>
				</children>
			</bin>
			<bin>
				<name>3_Nest Sequences</name>
				<labels>
					<label2>Mango</label2>
				</labels>
				<children>
					<sequence id="sequence-52" TL.SQAudioVisibleBase="0" TL.SQVideoVisibleBase="0" TL.SQVisibleBaseTime="0" TL.SQAVDividerPosition="0.5" TL.SQHideShyTracks="0" TL.SQHeaderWidth="236" TL.SQDataTrackViewControlState="0" Monitor.ProgramZoomOut="0" Monitor.ProgramZoomIn="0" TL.SQTimePerPixel="0.072184793070250441" AM.TrackVScrollPosition="0" AM.TrackScrollPosition="0" MZ.EditLine="0" MZ.Sequence.PreviewFrameSizeHeight="1080" MZ.Sequence.PreviewFrameSizeWidth="1920" MZ.Sequence.AudioTimeDisplayFormat="200" MZ.Sequence.PreviewRenderingClassID="1061109567" MZ.Sequence.PreviewRenderingPresetCodec="1634755443" MZ.Sequence.PreviewRenderingPresetPath="EncoderPresets/SequencePreview/35d109db-457b-43c1-9452-9cb7be9f121c/QuickTime.epr" MZ.Sequence.PreviewUseMaxRenderQuality="false" MZ.Sequence.PreviewUseMaxBitDepth="false" MZ.Sequence.EditingModeGUID="35d109db-457b-43c1-9452-9cb7be9f121c" MZ.Sequence.VideoTimeDisplayFormat="102" MZ.WorkOutPoint="1262874412800" MZ.WorkInPoint="0" explodedTracks="true">
						<uuid>7bb4d0a8-0757-450e-839e-9e7cb3c41cca</uuid>
						<duration>0</duration>
						<rate>
							<timebase>30</timebase>
							<ntsc>TRUE</ntsc>
						</rate>
						<name>FND_Nested Sequence Template</name>
						<media>
							<video>
								<format>
									<samplecharacteristics>
										<rate>
											<timebase>30</timebase>
											<ntsc>TRUE</ntsc>
										</rate>
										<codec>
											<name>Apple ProRes 422</name>
											<appspecificdata>
												<appname>Final Cut Pro</appname>
												<appmanufacturer>Apple Inc.</appmanufacturer>
												<appversion>7.0</appversion>
												<data>
													<qtcodec>
														<codecname>Apple ProRes 422</codecname>
														<codectypename>Apple ProRes 422</codectypename>
														<codectypecode>apcn</codectypecode>
														<codecvendorcode>appl</codecvendorcode>
														<spatialquality>1024</spatialquality>
														<temporalquality>0</temporalquality>
														<keyframerate>0</keyframerate>
														<datarate>0</datarate>
													</qtcodec>
												</data>
											</appspecificdata>
										</codec>
										<width>1920</width>
										<height>1080</height>
										<anamorphic>FALSE</anamorphic>
										<pixelaspectratio>square</pixelaspectratio>
										<fielddominance>none</fielddominance>
										<colordepth>24</colordepth>
									</samplecharacteristics>
								</format>
								<track TL.SQTrackShy="0" TL.SQTrackExpandedHeight="25" TL.SQTrackExpanded="0" MZ.TrackTargeted="1">
									<enabled>TRUE</enabled>
									<locked>FALSE</locked>
								</track>
								<track TL.SQTrackShy="0" TL.SQTrackExpandedHeight="25" TL.SQTrackExpanded="0" MZ.TrackTargeted="0">
									<enabled>TRUE</enabled>
									<locked>FALSE</locked>
								</track>
								<track TL.SQTrackShy="0" TL.SQTrackExpandedHeight="25" TL.SQTrackExpanded="0" MZ.TrackTargeted="0">
									<enabled>TRUE</enabled>
									<locked>FALSE</locked>
								</track>
								<track TL.SQTrackShy="0" TL.SQTrackExpandedHeight="25" TL.SQTrackExpanded="0" MZ.TrackTargeted="0">
									<enabled>TRUE</enabled>
									<locked>FALSE</locked>
								</track>
								<track TL.SQTrackShy="0" TL.SQTrackExpandedHeight="25" TL.SQTrackExpanded="0" MZ.TrackTargeted="0">
									<enabled>TRUE</enabled>
									<locked>FALSE</locked>
								</track>
								<track TL.SQTrackShy="0" TL.SQTrackExpandedHeight="25" TL.SQTrackExpanded="0" MZ.TrackTargeted="0">
									<enabled>TRUE</enabled>
									<locked>FALSE</locked>
								</track>
								<track TL.SQTrackShy="0" TL.SQTrackExpandedHeight="25" TL.SQTrackExpanded="0" MZ.TrackTargeted="0">
									<enabled>TRUE</enabled>
									<locked>FALSE</locked>
								</track>
								<track TL.SQTrackShy="0" TL.SQTrackExpandedHeight="25" TL.SQTrackExpanded="0" MZ.TrackTargeted="0">
									<enabled>TRUE</enabled>
									<locked>FALSE</locked>
								</track>
								<track TL.SQTrackShy="0" TL.SQTrackExpandedHeight="25" TL.SQTrackExpanded="0" MZ.TrackTargeted="0">
									<enabled>TRUE</enabled>
									<locked>FALSE</locked>
								</track>
								<track TL.SQTrackShy="0" TL.SQTrackExpandedHeight="25" TL.SQTrackExpanded="0" MZ.TrackTargeted="0">
									<enabled>TRUE</enabled>
									<locked>FALSE</locked>
								</track>
							</video>
							<audio>
								<numOutputChannels>2</numOutputChannels>
								<format>
									<samplecharacteristics>
										<depth>16</depth>
										<samplerate>48000</samplerate>
									</samplecharacteristics>
								</format>
								<outputs>
									<group>
										<index>1</index>
										<numchannels>1</numchannels>
										<downmix>0</downmix>
										<channel>
											<index>1</index>
										</channel>
									</group>
									<group>
										<index>2</index>
										<numchannels>1</numchannels>
										<downmix>0</downmix>
										<channel>
											<index>2</index>
										</channel>
									</group>
								</outputs>
								<track TL.SQTrackAudioKeyframeStyle="0" TL.SQTrackShy="0" TL.SQTrackExpandedHeight="25" TL.SQTrackExpanded="0" MZ.TrackTargeted="1" PannerCurrentValue="0.5" PannerIsInverted="true" PannerStartKeyframe="-91445760000000000,0.5,0,0,0,0,0,0" PannerName="Balance" currentExplodedTrackIndex="0" totalExplodedTrackCount="2" premiereTrackType="Stereo">
									<enabled>TRUE</enabled>
									<locked>FALSE</locked>
									<outputchannelindex>1</outputchannelindex>
								</track>
								<track TL.SQTrackAudioKeyframeStyle="0" TL.SQTrackShy="0" TL.SQTrackExpandedHeight="25" TL.SQTrackExpanded="0" MZ.TrackTargeted="1" PannerCurrentValue="0.5" PannerIsInverted="true" PannerStartKeyframe="-91445760000000000,0.5,0,0,0,0,0,0" PannerName="Balance" currentExplodedTrackIndex="1" totalExplodedTrackCount="2" premiereTrackType="Stereo">
									<enabled>TRUE</enabled>
									<locked>FALSE</locked>
									<outputchannelindex>2</outputchannelindex>
								</track>
								<track TL.SQTrackAudioKeyframeStyle="0" TL.SQTrackShy="0" TL.SQTrackExpandedHeight="25" TL.SQTrackExpanded="0" MZ.TrackTargeted="0" PannerCurrentValue="0.5" PannerIsInverted="true" PannerStartKeyframe="-91445760000000000,0.5,0,0,0,0,0,0" PannerName="Balance" currentExplodedTrackIndex="0" totalExplodedTrackCount="2" premiereTrackType="Stereo">
									<enabled>TRUE</enabled>
									<locked>FALSE</locked>
									<outputchannelindex>1</outputchannelindex>
								</track>
								<track TL.SQTrackAudioKeyframeStyle="0" TL.SQTrackShy="0" TL.SQTrackExpandedHeight="25" TL.SQTrackExpanded="0" MZ.TrackTargeted="0" PannerCurrentValue="0.5" PannerIsInverted="true" PannerStartKeyframe="-91445760000000000,0.5,0,0,0,0,0,0" PannerName="Balance" currentExplodedTrackIndex="1" totalExplodedTrackCount="2" premiereTrackType="Stereo">
									<enabled>TRUE</enabled>
									<locked>FALSE</locked>
									<outputchannelindex>2</outputchannelindex>
								</track>
								<track TL.SQTrackAudioKeyframeStyle="0" TL.SQTrackShy="0" TL.SQTrackExpandedHeight="25" TL.SQTrackExpanded="0" MZ.TrackTargeted="0" PannerCurrentValue="0.5" PannerIsInverted="true" PannerStartKeyframe="-91445760000000000,0.5,0,0,0,0,0,0" PannerName="Balance" currentExplodedTrackIndex="0" totalExplodedTrackCount="2" premiereTrackType="Stereo">
									<enabled>TRUE</enabled>
									<locked>FALSE</locked>
									<outputchannelindex>1</outputchannelindex>
								</track>
								<track TL.SQTrackAudioKeyframeStyle="0" TL.SQTrackShy="0" TL.SQTrackExpandedHeight="25" TL.SQTrackExpanded="0" MZ.TrackTargeted="0" PannerCurrentValue="0.5" PannerIsInverted="true" PannerStartKeyframe="-91445760000000000,0.5,0,0,0,0,0,0" PannerName="Balance" currentExplodedTrackIndex="1" totalExplodedTrackCount="2" premiereTrackType="Stereo">
									<enabled>TRUE</enabled>
									<locked>FALSE</locked>
									<outputchannelindex>2</outputchannelindex>
								</track>
								<track TL.SQTrackAudioKeyframeStyle="0" TL.SQTrackShy="0" TL.SQTrackExpandedHeight="25" TL.SQTrackExpanded="0" MZ.TrackTargeted="0" PannerCurrentValue="0.5" PannerIsInverted="true" PannerStartKeyframe="-91445760000000000,0.5,0,0,0,0,0,0" PannerName="Balance" currentExplodedTrackIndex="0" totalExplodedTrackCount="2" premiereTrackType="Stereo">
									<enabled>TRUE</enabled>
									<locked>FALSE</locked>
									<outputchannelindex>1</outputchannelindex>
								</track>
								<track TL.SQTrackAudioKeyframeStyle="0" TL.SQTrackShy="0" TL.SQTrackExpandedHeight="25" TL.SQTrackExpanded="0" MZ.TrackTargeted="0" PannerCurrentValue="0.5" PannerIsInverted="true" PannerStartKeyframe="-91445760000000000,0.5,0,0,0,0,0,0" PannerName="Balance" currentExplodedTrackIndex="1" totalExplodedTrackCount="2" premiereTrackType="Stereo">
									<enabled>TRUE</enabled>
									<locked>FALSE</locked>
									<outputchannelindex>2</outputchannelindex>
								</track>
								<track TL.SQTrackAudioKeyframeStyle="0" TL.SQTrackShy="0" TL.SQTrackExpandedHeight="25" TL.SQTrackExpanded="0" MZ.TrackTargeted="0" PannerCurrentValue="0.5" PannerIsInverted="true" PannerStartKeyframe="-91445760000000000,0.5,0,0,0,0,0,0" PannerName="Balance" currentExplodedTrackIndex="0" totalExplodedTrackCount="2" premiereTrackType="Stereo">
									<enabled>TRUE</enabled>
									<locked>FALSE</locked>
									<outputchannelindex>1</outputchannelindex>
								</track>
								<track TL.SQTrackAudioKeyframeStyle="0" TL.SQTrackShy="0" TL.SQTrackExpandedHeight="25" TL.SQTrackExpanded="0" MZ.TrackTargeted="0" PannerCurrentValue="0.5" PannerIsInverted="true" PannerStartKeyframe="-91445760000000000,0.5,0,0,0,0,0,0" PannerName="Balance" currentExplodedTrackIndex="1" totalExplodedTrackCount="2" premiereTrackType="Stereo">
									<enabled>TRUE</enabled>
									<locked>FALSE</locked>
									<outputchannelindex>2</outputchannelindex>
								</track>
								<track TL.SQTrackAudioKeyframeStyle="0" TL.SQTrackShy="0" TL.SQTrackExpandedHeight="25" TL.SQTrackExpanded="0" MZ.TrackTargeted="0" PannerCurrentValue="0.5" PannerIsInverted="true" PannerStartKeyframe="-91445760000000000,0.5,0,0,0,0,0,0" PannerName="Balance" currentExplodedTrackIndex="0" totalExplodedTrackCount="2" premiereTrackType="Stereo">
									<enabled>TRUE</enabled>
									<locked>FALSE</locked>
									<outputchannelindex>1</outputchannelindex>
								</track>
								<track TL.SQTrackAudioKeyframeStyle="0" TL.SQTrackShy="0" TL.SQTrackExpandedHeight="25" TL.SQTrackExpanded="0" MZ.TrackTargeted="0" PannerCurrentValue="0.5" PannerIsInverted="true" PannerStartKeyframe="-91445760000000000,0.5,0,0,0,0,0,0" PannerName="Balance" currentExplodedTrackIndex="1" totalExplodedTrackCount="2" premiereTrackType="Stereo">
									<enabled>TRUE</enabled>
									<locked>FALSE</locked>
									<outputchannelindex>2</outputchannelindex>
								</track>
								<track TL.SQTrackAudioKeyframeStyle="0" TL.SQTrackShy="0" TL.SQTrackExpandedHeight="25" TL.SQTrackExpanded="0" MZ.TrackTargeted="0" PannerCurrentValue="0.5" PannerIsInverted="true" PannerStartKeyframe="-91445760000000000,0.5,0,0,0,0,0,0" PannerName="Balance" currentExplodedTrackIndex="0" totalExplodedTrackCount="2" premiereTrackType="Stereo">
									<enabled>TRUE</enabled>
									<locked>FALSE</locked>
									<outputchannelindex>1</outputchannelindex>
								</track>
								<track TL.SQTrackAudioKeyframeStyle="0" TL.SQTrackShy="0" TL.SQTrackExpandedHeight="25" TL.SQTrackExpanded="0" MZ.TrackTargeted="0" PannerCurrentValue="0.5" PannerIsInverted="true" PannerStartKeyframe="-91445760000000000,0.5,0,0,0,0,0,0" PannerName="Balance" currentExplodedTrackIndex="1" totalExplodedTrackCount="2" premiereTrackType="Stereo">
									<enabled>TRUE</enabled>
									<locked>FALSE</locked>
									<outputchannelindex>2</outputchannelindex>
								</track>
								<track TL.SQTrackAudioKeyframeStyle="0" TL.SQTrackShy="0" TL.SQTrackExpandedHeight="25" TL.SQTrackExpanded="0" MZ.TrackTargeted="0" PannerCurrentValue="0.5" PannerIsInverted="true" PannerStartKeyframe="-91445760000000000,0.5,0,0,0,0,0,0" PannerName="Balance" currentExplodedTrackIndex="0" totalExplodedTrackCount="2" premiereTrackType="Stereo">
									<enabled>TRUE</enabled>
									<locked>FALSE</locked>
									<outputchannelindex>1</outputchannelindex>
								</track>
								<track TL.SQTrackAudioKeyframeStyle="0" TL.SQTrackShy="0" TL.SQTrackExpandedHeight="25" TL.SQTrackExpanded="0" MZ.TrackTargeted="0" PannerCurrentValue="0.5" PannerIsInverted="true" PannerStartKeyframe="-91445760000000000,0.5,0,0,0,0,0,0" PannerName="Balance" currentExplodedTrackIndex="1" totalExplodedTrackCount="2" premiereTrackType="Stereo">
									<enabled>TRUE</enabled>
									<locked>FALSE</locked>
									<outputchannelindex>2</outputchannelindex>
								</track>
								<track TL.SQTrackAudioKeyframeStyle="0" TL.SQTrackShy="0" TL.SQTrackExpandedHeight="25" TL.SQTrackExpanded="0" MZ.TrackTargeted="0" PannerCurrentValue="0.5" PannerIsInverted="true" PannerStartKeyframe="-91445760000000000,0.5,0,0,0,0,0,0" PannerName="Balance" currentExplodedTrackIndex="0" totalExplodedTrackCount="2" premiereTrackType="Stereo">
									<enabled>TRUE</enabled>
									<locked>FALSE</locked>
									<outputchannelindex>1</outputchannelindex>
								</track>
								<track TL.SQTrackAudioKeyframeStyle="0" TL.SQTrackShy="0" TL.SQTrackExpandedHeight="25" TL.SQTrackExpanded="0" MZ.TrackTargeted="0" PannerCurrentValue="0.5" PannerIsInverted="true" PannerStartKeyframe="-91445760000000000,0.5,0,0,0,0,0,0" PannerName="Balance" currentExplodedTrackIndex="1" totalExplodedTrackCount="2" premiereTrackType="Stereo">
									<enabled>TRUE</enabled>
									<locked>FALSE</locked>
									<outputchannelindex>2</outputchannelindex>
								</track>
								<track TL.SQTrackAudioKeyframeStyle="0" TL.SQTrackShy="0" TL.SQTrackExpandedHeight="25" TL.SQTrackExpanded="0" MZ.TrackTargeted="0" PannerCurrentValue="0.5" PannerIsInverted="true" PannerStartKeyframe="-91445760000000000,0.5,0,0,0,0,0,0" PannerName="Balance" currentExplodedTrackIndex="0" totalExplodedTrackCount="2" premiereTrackType="Stereo">
									<enabled>TRUE</enabled>
									<locked>FALSE</locked>
									<outputchannelindex>1</outputchannelindex>
								</track>
								<track TL.SQTrackAudioKeyframeStyle="0" TL.SQTrackShy="0" TL.SQTrackExpandedHeight="25" TL.SQTrackExpanded="0" MZ.TrackTargeted="0" PannerCurrentValue="0.5" PannerIsInverted="true" PannerStartKeyframe="-91445760000000000,0.5,0,0,0,0,0,0" PannerName="Balance" currentExplodedTrackIndex="1" totalExplodedTrackCount="2" premiereTrackType="Stereo">
									<enabled>TRUE</enabled>
									<locked>FALSE</locked>
									<outputchannelindex>2</outputchannelindex>
								</track>
							</audio>
						</media>
						<timecode>
							<rate>
								<timebase>30</timebase>
								<ntsc>TRUE</ntsc>
							</rate>
							<string>00;00;00;00</string>
							<frame>0</frame>
							<displayformat>DF</displayformat>
						</timecode>
						<labels>
							<label2>Forest</label2>
						</labels>
						<logginginfo>
							<description></description>
							<scene></scene>
							<shottake></shottake>
							<lognote></lognote>
							<good></good>
							<originalvideofilename></originalvideofilename>
							<originalaudiofilename></originalaudiofilename>
						</logginginfo>
					</sequence>
<sequence id="sequence-46"/>
<sequence id="sequence-20"/>
					<sequence id="sequence-53" TL.SQAudioVisibleBase="0" TL.SQVideoVisibleBase="0" TL.SQVisibleBaseTime="0" TL.SQAVDividerPosition="0.5" TL.SQHideShyTracks="0" TL.SQHeaderWidth="236" TL.SQDataTrackViewControlState="0" Monitor.ProgramZoomOut="20723006304000" Monitor.ProgramZoomIn="0" TL.SQTimePerPixel="0.14436958614049888" AM.TrackVScrollPosition="0" AM.TrackScrollPosition="0" MZ.EditLine="15052784947200" MZ.Sequence.PreviewFrameSizeHeight="1080" MZ.Sequence.PreviewFrameSizeWidth="1920" MZ.Sequence.AudioTimeDisplayFormat="200" MZ.Sequence.PreviewRenderingClassID="1061109567" MZ.Sequence.PreviewRenderingPresetCodec="1634755443" MZ.Sequence.PreviewRenderingPresetPath="EncoderPresets/SequencePreview/35d109db-457b-43c1-9452-9cb7be9f121c/QuickTime.epr" MZ.Sequence.PreviewUseMaxRenderQuality="false" MZ.Sequence.PreviewUseMaxBitDepth="false" MZ.Sequence.EditingModeGUID="35d109db-457b-43c1-9452-9cb7be9f121c" MZ.Sequence.VideoTimeDisplayFormat="102" MZ.WorkOutPoint="1262874412800" MZ.WorkInPoint="0" explodedTracks="true">
						<uuid>09d897d2-df99-410c-bcbe-6ed6bf453682</uuid>
						<duration>2445</duration>
						<rate>
							<timebase>30</timebase>
							<ntsc>TRUE</ntsc>
						</rate>
						<name>FND_Lime Up For Water_1.5</name>
						<media>
							<video>
								<format>
									<samplecharacteristics>
										<rate>
											<timebase>30</timebase>
											<ntsc>TRUE</ntsc>
										</rate>
										<codec>
											<name>Apple ProRes 422</name>
											<appspecificdata>
												<appname>Final Cut Pro</appname>
												<appmanufacturer>Apple Inc.</appmanufacturer>
												<appversion>7.0</appversion>
												<data>
													<qtcodec>
														<codecname>Apple ProRes 422</codecname>
														<codectypename>Apple ProRes 422</codectypename>
														<codectypecode>apcn</codectypecode>
														<codecvendorcode>appl</codecvendorcode>
														<spatialquality>1024</spatialquality>
														<temporalquality>0</temporalquality>
														<keyframerate>0</keyframerate>
														<datarate>0</datarate>
													</qtcodec>
												</data>
											</appspecificdata>
										</codec>
										<width>1920</width>
										<height>1080</height>
										<anamorphic>FALSE</anamorphic>
										<pixelaspectratio>square</pixelaspectratio>
										<fielddominance>none</fielddominance>
										<colordepth>24</colordepth>
									</samplecharacteristics>
								</format>
								<track TL.SQTrackShy="0" TL.SQTrackExpandedHeight="25" TL.SQTrackExpanded="0" MZ.TrackTargeted="1">
									<clipitem id="clipitem-1541">
										<masterclipid>masterclip-274</masterclipid>
										<name>150052_Soda Ice Cubes Lime Slices_By_Hugo_Will_Artlist_HD.mp4</name>
										<enabled>TRUE</enabled>
										<duration>328</duration>
										<rate>
											<timebase>30</timebase>
											<ntsc>TRUE</ntsc>
										</rate>
										<start>0</start>
										<end>328</end>
										<in>0</in>
										<out>328</out>
										<pproTicksIn>0</pproTicksIn>
										<pproTicksOut>2780018841600</pproTicksOut>
										<alphatype>none</alphatype>
										<file id="file-238"/>
										<filter>
											<effect>
												<name>Basic Motion</name>
												<effectid>basic</effectid>
												<effectcategory>motion</effectcategory>
												<effecttype>motion</effecttype>
												<mediatype>video</mediatype>
												<pproBypass>false</pproBypass>
												<parameter authoringApp="PremierePro">
													<parameterid>scale</parameterid>
													<name>Scale</name>
													<valuemin>0</valuemin>
													<valuemax>1000</valuemax>
													<value>100</value>
													<keyframe>
														<when>0</when>
														<value>123</value>
													</keyframe>
													<keyframe>
														<when>328</when>
														<value>100</value>
													</keyframe>
												</parameter>
												<parameter authoringApp="PremierePro">
													<parameterid>rotation</parameterid>
													<name>Rotation</name>
													<valuemin>-8640</valuemin>
													<valuemax>8640</valuemax>
													<value>0</value>
												</parameter>
												<parameter authoringApp="PremierePro">
													<parameterid>center</parameterid>
													<name>Center</name>
													<value>
														<horiz>0</horiz>
														<vert>0</vert>
													</value>
												</parameter>
												<parameter authoringApp="PremierePro">
													<parameterid>centerOffset</parameterid>
													<name>Anchor Point</name>
													<value>
														<horiz>0</horiz>
														<vert>0</vert>
													</value>
												</parameter>
												<parameter authoringApp="PremierePro">
													<parameterid>antiflicker</parameterid>
													<name>Anti-flicker Filter</name>
													<valuemin>0.0</valuemin>
													<valuemax>1.0</valuemax>
													<value>0</value>
												</parameter>
											</effect>
										</filter>
										<logginginfo>
											<description></description>
											<scene></scene>
											<shottake></shottake>
											<lognote></lognote>
											<good></good>
											<originalvideofilename></originalvideofilename>
											<originalaudiofilename></originalaudiofilename>
										</logginginfo>
										<colorinfo>
											<lut></lut>
											<lut1></lut1>
											<asc_sop></asc_sop>
											<asc_sat></asc_sat>
											<lut2></lut2>
										</colorinfo>
									</clipitem>
									<clipitem id="clipitem-1542">
										<masterclipid>masterclip-273</masterclipid>
										<name>149879_Lime Lemon Cold Ice Cubes_By_Hugo_Will_Artlist_HD.mp4</name>
										<enabled>TRUE</enabled>
										<duration>403</duration>
										<rate>
											<timebase>30</timebase>
											<ntsc>TRUE</ntsc>
										</rate>
										<start>328</start>
										<end>531</end>
										<in>0</in>
										<out>203</out>
										<pproTicksIn>0</pproTicksIn>
										<pproTicksOut>1720560441600</pproTicksOut>
										<alphatype>none</alphatype>
										<file id="file-237"/>
										<logginginfo>
											<description></description>
											<scene></scene>
											<shottake></shottake>
											<lognote></lognote>
											<good></good>
											<originalvideofilename></originalvideofilename>
											<originalaudiofilename></originalaudiofilename>
										</logginginfo>
										<colorinfo>
											<lut></lut>
											<lut1></lut1>
											<asc_sop></asc_sop>
											<asc_sat></asc_sat>
											<lut2></lut2>
										</colorinfo>
									</clipitem>
									<clipitem id="clipitem-1543">
										<masterclipid>masterclip-272</masterclipid>
										<name>149877_Cold Drink Ice Lemon_By_Hugo_Will_Artlist_HD.mp4</name>
										<enabled>TRUE</enabled>
										<duration>523</duration>
										<rate>
											<timebase>30</timebase>
											<ntsc>TRUE</ntsc>
										</rate>
										<start>531</start>
										<end>704</end>
										<in>0</in>
										<out>173</out>
										<pproTicksIn>0</pproTicksIn>
										<pproTicksOut>1466290425600</pproTicksOut>
										<alphatype>none</alphatype>
										<file id="file-236"/>
										<logginginfo>
											<description></description>
											<scene></scene>
											<shottake></shottake>
											<lognote></lognote>
											<good></good>
											<originalvideofilename></originalvideofilename>
											<originalaudiofilename></originalaudiofilename>
										</logginginfo>
										<colorinfo>
											<lut></lut>
											<lut1></lut1>
											<asc_sop></asc_sop>
											<asc_sat></asc_sat>
											<lut2></lut2>
										</colorinfo>
									</clipitem>
									<clipitem id="clipitem-1544">
										<masterclipid>masterclip-271</masterclipid>
										<name>149875_Lime Lemon Drink Ice_By_Hugo_Will_Artlist_HD.mp4</name>
										<enabled>TRUE</enabled>
										<duration>682</duration>
										<rate>
											<timebase>30</timebase>
											<ntsc>TRUE</ntsc>
										</rate>
										<start>704</start>
										<end>911</end>
										<in>163</in>
										<out>370</out>
										<pproTicksIn>1381533753600</pproTicksIn>
										<pproTicksOut>3135996864000</pproTicksOut>
										<alphatype>none</alphatype>
										<file id="file-235"/>
										<logginginfo>
											<description></description>
											<scene></scene>
											<shottake></shottake>
											<lognote></lognote>
											<good></good>
											<originalvideofilename></originalvideofilename>
											<originalaudiofilename></originalaudiofilename>
										</logginginfo>
										<colorinfo>
											<lut></lut>
											<lut1></lut1>
											<asc_sop></asc_sop>
											<asc_sat></asc_sat>
											<lut2></lut2>
										</colorinfo>
									</clipitem>
									<clipitem id="clipitem-1545">
										<masterclipid>masterclip-270</masterclipid>
										<name>149873_Slices Lime Lemon Refreshment_By_Hugo_Will_Artlist_HD.mp4</name>
										<enabled>TRUE</enabled>
										<duration>518</duration>
										<rate>
											<timebase>30</timebase>
											<ntsc>TRUE</ntsc>
										</rate>
										<start>911</start>
										<end>1124</end>
										<in>0</in>
										<out>213</out>
										<pproTicksIn>0</pproTicksIn>
										<pproTicksOut>1805317113600</pproTicksOut>
										<alphatype>none</alphatype>
										<file id="file-234"/>
										<logginginfo>
											<description></description>
											<scene></scene>
											<shottake></shottake>
											<lognote></lognote>
											<good></good>
											<originalvideofilename></originalvideofilename>
											<originalaudiofilename></originalaudiofilename>
										</logginginfo>
										<colorinfo>
											<lut></lut>
											<lut1></lut1>
											<asc_sop></asc_sop>
											<asc_sat></asc_sat>
											<lut2></lut2>
										</colorinfo>
									</clipitem>
									<clipitem id="clipitem-1546">
										<masterclipid>masterclip-273</masterclipid>
										<name>149879_Lime Lemon Cold Ice Cubes_By_Hugo_Will_Artlist_HD.mp4</name>
										<enabled>TRUE</enabled>
										<duration>403</duration>
										<rate>
											<timebase>30</timebase>
											<ntsc>TRUE</ntsc>
										</rate>
										<start>1124</start>
										<end>1312</end>
										<in>208</in>
										<out>396</out>
										<pproTicksIn>1762938777600</pproTicksIn>
										<pproTicksOut>3356364211200</pproTicksOut>
										<alphatype>none</alphatype>
										<file id="file-237"/>
										<logginginfo>
											<description></description>
											<scene></scene>
											<shottake></shottake>
											<lognote></lognote>
											<good></good>
											<originalvideofilename></originalvideofilename>
											<originalaudiofilename></originalaudiofilename>
										</logginginfo>
										<colorinfo>
											<lut></lut>
											<lut1></lut1>
											<asc_sop></asc_sop>
											<asc_sat></asc_sat>
											<lut2></lut2>
										</colorinfo>
									</clipitem>
									<clipitem id="clipitem-1547">
										<masterclipid>masterclip-271</masterclipid>
										<name>149875_Lime Lemon Drink Ice_By_Hugo_Will_Artlist_HD.mp4</name>
										<enabled>TRUE</enabled>
										<duration>682</duration>
										<rate>
											<timebase>30</timebase>
											<ntsc>TRUE</ntsc>
										</rate>
										<start>1312</start>
										<end>1548</end>
										<in>385</in>
										<out>621</out>
										<pproTicksIn>3263131872000</pproTicksIn>
										<pproTicksOut>5263389331200</pproTicksOut>
										<alphatype>none</alphatype>
										<file id="file-235"/>
										<logginginfo>
											<description></description>
											<scene></scene>
											<shottake></shottake>
											<lognote></lognote>
											<good></good>
											<originalvideofilename></originalvideofilename>
											<originalaudiofilename></originalaudiofilename>
										</logginginfo>
										<colorinfo>
											<lut></lut>
											<lut1></lut1>
											<asc_sop></asc_sop>
											<asc_sat></asc_sat>
											<lut2></lut2>
										</colorinfo>
									</clipitem>
									<clipitem id="clipitem-1548">
										<masterclipid>masterclip-270</masterclipid>
										<name>149873_Slices Lime Lemon Refreshment_By_Hugo_Will_Artlist_HD.mp4</name>
										<enabled>TRUE</enabled>
										<duration>518</duration>
										<rate>
											<timebase>30</timebase>
											<ntsc>TRUE</ntsc>
										</rate>
										<start>1548</start>
										<end>1724</end>
										<in>327</in>
										<out>503</out>
										<pproTicksIn>2771543174400</pproTicksIn>
										<pproTicksOut>4263260601600</pproTicksOut>
										<alphatype>none</alphatype>
										<file id="file-234"/>
										<logginginfo>
											<description></description>
											<scene></scene>
											<shottake></shottake>
											<lognote></lognote>
											<good></good>
											<originalvideofilename></originalvideofilename>
											<originalaudiofilename></originalaudiofilename>
										</logginginfo>
										<colorinfo>
											<lut></lut>
											<lut1></lut1>
											<asc_sop></asc_sop>
											<asc_sat></asc_sat>
											<lut2></lut2>
										</colorinfo>
									</clipitem>
									<clipitem id="clipitem-1549">
										<masterclipid>masterclip-272</masterclipid>
										<name>149877_Cold Drink Ice Lemon_By_Hugo_Will_Artlist_HD.mp4</name>
										<enabled>TRUE</enabled>
										<duration>523</duration>
										<rate>
											<timebase>30</timebase>
											<ntsc>TRUE</ntsc>
										</rate>
										<start>1724</start>
										<end>1954</end>
										<in>237</in>
										<out>467</out>
										<pproTicksIn>2008733126400</pproTicksIn>
										<pproTicksOut>3958136582400</pproTicksOut>
										<alphatype>none</alphatype>
										<file id="file-236"/>
										<logginginfo>
											<description></description>
											<scene></scene>
											<shottake></shottake>
											<lognote></lognote>
											<good></good>
											<originalvideofilename></originalvideofilename>
											<originalaudiofilename></originalaudiofilename>
										</logginginfo>
										<colorinfo>
											<lut></lut>
											<lut1></lut1>
											<asc_sop></asc_sop>
											<asc_sat></asc_sat>
											<lut2></lut2>
										</colorinfo>
									</clipitem>
									<clipitem id="clipitem-1550">
										<masterclipid>masterclip-268</masterclipid>
										<name>149869_Lime Lemon Drink Glass_By_Hugo_Will_Artlist_HD.mp4</name>
										<enabled>TRUE</enabled>
										<duration>171</duration>
										<rate>
											<timebase>30</timebase>
											<ntsc>TRUE</ntsc>
										</rate>
										<start>1954</start>
										<end>2125</end>
										<in>0</in>
										<out>171</out>
										<pproTicksIn>0</pproTicksIn>
										<pproTicksOut>1449339091200</pproTicksOut>
										<alphatype>none</alphatype>
										<file id="file-232"/>
										<logginginfo>
											<description></description>
											<scene></scene>
											<shottake></shottake>
											<lognote></lognote>
											<good></good>
											<originalvideofilename></originalvideofilename>
											<originalaudiofilename></originalaudiofilename>
										</logginginfo>
										<colorinfo>
											<lut></lut>
											<lut1></lut1>
											<asc_sop></asc_sop>
											<asc_sat></asc_sat>
											<lut2></lut2>
										</colorinfo>
									</clipitem>
									<clipitem id="clipitem-1551">
										<masterclipid>masterclip-269</masterclipid>
										<name>149871_Spinning Drink Lemon Lime_By_Hugo_Will_Artlist_HD.mp4</name>
										<enabled>TRUE</enabled>
										<duration>320</duration>
										<rate>
											<timebase>30</timebase>
											<ntsc>TRUE</ntsc>
										</rate>
										<start>2125</start>
										<end>2445</end>
										<in>0</in>
										<out>320</out>
										<pproTicksIn>0</pproTicksIn>
										<pproTicksOut>2712213504000</pproTicksOut>
										<alphatype>none</alphatype>
										<file id="file-233"/>
										<logginginfo>
											<description></description>
											<scene></scene>
											<shottake></shottake>
											<lognote></lognote>
											<good></good>
											<originalvideofilename></originalvideofilename>
											<originalaudiofilename></originalaudiofilename>
										</logginginfo>
										<colorinfo>
											<lut></lut>
											<lut1></lut1>
											<asc_sop></asc_sop>
											<asc_sat></asc_sat>
											<lut2></lut2>
										</colorinfo>
									</clipitem>
									<enabled>TRUE</enabled>
									<locked>FALSE</locked>
								</track>
								<track TL.SQTrackShy="0" TL.SQTrackExpandedHeight="25" TL.SQTrackExpanded="0" MZ.TrackTargeted="0">
									<enabled>TRUE</enabled>
									<locked>FALSE</locked>
								</track>
								<track TL.SQTrackShy="0" TL.SQTrackExpandedHeight="25" TL.SQTrackExpanded="0" MZ.TrackTargeted="0">
									<enabled>TRUE</enabled>
									<locked>FALSE</locked>
								</track>
								<track TL.SQTrackShy="0" TL.SQTrackExpandedHeight="25" TL.SQTrackExpanded="0" MZ.TrackTargeted="0">
									<enabled>TRUE</enabled>
									<locked>FALSE</locked>
								</track>
								<track TL.SQTrackShy="0" TL.SQTrackExpandedHeight="25" TL.SQTrackExpanded="0" MZ.TrackTargeted="0">
									<enabled>TRUE</enabled>
									<locked>FALSE</locked>
								</track>
								<track TL.SQTrackShy="0" TL.SQTrackExpandedHeight="25" TL.SQTrackExpanded="0" MZ.TrackTargeted="0">
									<enabled>TRUE</enabled>
									<locked>FALSE</locked>
								</track>
								<track TL.SQTrackShy="0" TL.SQTrackExpandedHeight="25" TL.SQTrackExpanded="0" MZ.TrackTargeted="0">
									<enabled>TRUE</enabled>
									<locked>FALSE</locked>
								</track>
								<track TL.SQTrackShy="0" TL.SQTrackExpandedHeight="25" TL.SQTrackExpanded="0" MZ.TrackTargeted="0">
									<enabled>TRUE</enabled>
									<locked>FALSE</locked>
								</track>
								<track TL.SQTrackShy="0" TL.SQTrackExpandedHeight="25" TL.SQTrackExpanded="0" MZ.TrackTargeted="0">
									<enabled>TRUE</enabled>
									<locked>FALSE</locked>
								</track>
								<track TL.SQTrackShy="0" TL.SQTrackExpandedHeight="25" TL.SQTrackExpanded="0" MZ.TrackTargeted="0">
									<enabled>TRUE</enabled>
									<locked>FALSE</locked>
								</track>
							</video>
							<audio>
								<numOutputChannels>2</numOutputChannels>
								<format>
									<samplecharacteristics>
										<depth>16</depth>
										<samplerate>48000</samplerate>
									</samplecharacteristics>
								</format>
								<outputs>
									<group>
										<index>1</index>
										<numchannels>1</numchannels>
										<downmix>0</downmix>
										<channel>
											<index>1</index>
										</channel>
									</group>
									<group>
										<index>2</index>
										<numchannels>1</numchannels>
										<downmix>0</downmix>
										<channel>
											<index>2</index>
										</channel>
									</group>
								</outputs>
								<track TL.SQTrackAudioKeyframeStyle="0" TL.SQTrackShy="0" TL.SQTrackExpandedHeight="25" TL.SQTrackExpanded="0" MZ.TrackTargeted="1" PannerCurrentValue="0.5" PannerIsInverted="true" PannerStartKeyframe="-91445760000000000,0.5,0,0,0,0,0,0" PannerName="Balance" currentExplodedTrackIndex="0" totalExplodedTrackCount="2" premiereTrackType="Stereo">
									<clipitem id="clipitem-1552" premiereChannelType="stereo">
										<masterclipid>masterclip-285</masterclipid>
										<name>ES_can't take this pill (Instrumental Version) - dasloe.mp3</name>
										<enabled>TRUE</enabled>
										<duration>5408</duration>
										<rate>
											<timebase>30</timebase>
											<ntsc>TRUE</ntsc>
										</rate>
										<start>0</start>
										<end>2445</end>
										<in>0</in>
										<out>2445</out>
										<pproTicksIn>0</pproTicksIn>
										<pproTicksOut>20723006304000</pproTicksOut>
										<file id="file-249">
											<name>ES_can't take this pill (Instrumental Version) - dasloe.mp3</name>
											<pathurl>file://localhost/Volumes/ATM%201/EYE%20CANDY/8%3a14%3a23/5_Assets/Music/ES_can't%20take%20this%20pill%20(Instrumental%20Version)%20-%20dasloe.mp3</pathurl>
											<rate>
												<timebase>30</timebase>
												<ntsc>TRUE</ntsc>
											</rate>
											<duration>5408</duration>
											<timecode>
												<rate>
													<timebase>30</timebase>
													<ntsc>TRUE</ntsc>
												</rate>
												<string>00;00;00;00</string>
												<frame>0</frame>
												<displayformat>DF</displayformat>
											</timecode>
											<media>
												<audio>
													<samplecharacteristics>
														<depth>16</depth>
														<samplerate>48000</samplerate>
													</samplecharacteristics>
													<channelcount>2</channelcount>
												</audio>
											</media>
										</file>
										<sourcetrack>
											<mediatype>audio</mediatype>
											<trackindex>1</trackindex>
										</sourcetrack>
										<link>
											<linkclipref>clipitem-1552</linkclipref>
											<mediatype>audio</mediatype>
											<trackindex>1</trackindex>
											<clipindex>1</clipindex>
											<groupindex>1</groupindex>
										</link>
										<link>
											<linkclipref>clipitem-1553</linkclipref>
											<mediatype>audio</mediatype>
											<trackindex>2</trackindex>
											<clipindex>1</clipindex>
											<groupindex>1</groupindex>
										</link>
										<logginginfo>
											<description></description>
											<scene></scene>
											<shottake></shottake>
											<lognote></lognote>
											<good></good>
											<originalvideofilename></originalvideofilename>
											<originalaudiofilename></originalaudiofilename>
										</logginginfo>
										<colorinfo>
											<lut></lut>
											<lut1></lut1>
											<asc_sop></asc_sop>
											<asc_sat></asc_sat>
											<lut2></lut2>
										</colorinfo>
										<labels>
											<label2>Caribbean</label2>
										</labels>
									</clipitem>
									<enabled>TRUE</enabled>
									<locked>FALSE</locked>
									<filter>
										<effect>
											<name>Audio Levels</name>
											<effectid>audiolevels</effectid>
											<effectcategory>audiolevels</effectcategory>
											<effecttype>audiolevels</effecttype>
											<mediatype>audio</mediatype>
											<parameter authoringApp="PremierePro">
												<parameterid>level</parameterid>
												<name>Level</name>
												<valuemin>0</valuemin>
												<valuemax>3.98109</valuemax>
												<value>0.706272</value>
											</parameter>
										</effect>
									</filter>
									<outputchannelindex>1</outputchannelindex>
								</track>
								<track TL.SQTrackAudioKeyframeStyle="0" TL.SQTrackShy="0" TL.SQTrackExpandedHeight="25" TL.SQTrackExpanded="0" MZ.TrackTargeted="1" PannerCurrentValue="0.5" PannerIsInverted="true" PannerStartKeyframe="-91445760000000000,0.5,0,0,0,0,0,0" PannerName="Balance" currentExplodedTrackIndex="1" totalExplodedTrackCount="2" premiereTrackType="Stereo">
									<clipitem id="clipitem-1553" premiereChannelType="stereo">
										<masterclipid>masterclip-285</masterclipid>
										<name>ES_can't take this pill (Instrumental Version) - dasloe.mp3</name>
										<enabled>TRUE</enabled>
										<duration>5408</duration>
										<rate>
											<timebase>30</timebase>
											<ntsc>TRUE</ntsc>
										</rate>
										<start>0</start>
										<end>2445</end>
										<in>0</in>
										<out>2445</out>
										<pproTicksIn>0</pproTicksIn>
										<pproTicksOut>20723006304000</pproTicksOut>
										<file id="file-249"/>
										<sourcetrack>
											<mediatype>audio</mediatype>
											<trackindex>2</trackindex>
										</sourcetrack>
										<link>
											<linkclipref>clipitem-1552</linkclipref>
											<mediatype>audio</mediatype>
											<trackindex>1</trackindex>
											<clipindex>1</clipindex>
											<groupindex>1</groupindex>
										</link>
										<link>
											<linkclipref>clipitem-1553</linkclipref>
											<mediatype>audio</mediatype>
											<trackindex>2</trackindex>
											<clipindex>1</clipindex>
											<groupindex>1</groupindex>
										</link>
										<logginginfo>
											<description></description>
											<scene></scene>
											<shottake></shottake>
											<lognote></lognote>
											<good></good>
											<originalvideofilename></originalvideofilename>
											<originalaudiofilename></originalaudiofilename>
										</logginginfo>
										<colorinfo>
											<lut></lut>
											<lut1></lut1>
											<asc_sop></asc_sop>
											<asc_sat></asc_sat>
											<lut2></lut2>
										</colorinfo>
										<labels>
											<label2>Caribbean</label2>
										</labels>
									</clipitem>
									<enabled>TRUE</enabled>
									<locked>FALSE</locked>
									<filter>
										<effect>
											<name>Audio Levels</name>
											<effectid>audiolevels</effectid>
											<effectcategory>audiolevels</effectcategory>
											<effecttype>audiolevels</effecttype>
											<mediatype>audio</mediatype>
											<parameter authoringApp="PremierePro">
												<parameterid>level</parameterid>
												<name>Level</name>
												<valuemin>0</valuemin>
												<valuemax>3.98109</valuemax>
												<value>0.706272</value>
											</parameter>
										</effect>
									</filter>
									<outputchannelindex>2</outputchannelindex>
								</track>
								<track TL.SQTrackAudioKeyframeStyle="0" TL.SQTrackShy="0" TL.SQTrackExpandedHeight="25" TL.SQTrackExpanded="0" MZ.TrackTargeted="0" PannerCurrentValue="0.5" PannerIsInverted="true" PannerStartKeyframe="-91445760000000000,0.5,0,0,0,0,0,0" PannerName="Balance" currentExplodedTrackIndex="0" totalExplodedTrackCount="2" premiereTrackType="Stereo">
									<enabled>TRUE</enabled>
									<locked>FALSE</locked>
									<outputchannelindex>1</outputchannelindex>
								</track>
								<track TL.SQTrackAudioKeyframeStyle="0" TL.SQTrackShy="0" TL.SQTrackExpandedHeight="25" TL.SQTrackExpanded="0" MZ.TrackTargeted="0" PannerCurrentValue="0.5" PannerIsInverted="true" PannerStartKeyframe="-91445760000000000,0.5,0,0,0,0,0,0" PannerName="Balance" currentExplodedTrackIndex="1" totalExplodedTrackCount="2" premiereTrackType="Stereo">
									<enabled>TRUE</enabled>
									<locked>FALSE</locked>
									<outputchannelindex>2</outputchannelindex>
								</track>
								<track TL.SQTrackAudioKeyframeStyle="0" TL.SQTrackShy="0" TL.SQTrackExpandedHeight="25" TL.SQTrackExpanded="0" MZ.TrackTargeted="0" PannerCurrentValue="0.5" PannerIsInverted="true" PannerStartKeyframe="-91445760000000000,0.5,0,0,0,0,0,0" PannerName="Balance" currentExplodedTrackIndex="0" totalExplodedTrackCount="2" premiereTrackType="Stereo">
									<enabled>TRUE</enabled>
									<locked>FALSE</locked>
									<outputchannelindex>1</outputchannelindex>
								</track>
								<track TL.SQTrackAudioKeyframeStyle="0" TL.SQTrackShy="0" TL.SQTrackExpandedHeight="25" TL.SQTrackExpanded="0" MZ.TrackTargeted="0" PannerCurrentValue="0.5" PannerIsInverted="true" PannerStartKeyframe="-91445760000000000,0.5,0,0,0,0,0,0" PannerName="Balance" currentExplodedTrackIndex="1" totalExplodedTrackCount="2" premiereTrackType="Stereo">
									<enabled>TRUE</enabled>
									<locked>FALSE</locked>
									<outputchannelindex>2</outputchannelindex>
								</track>
								<track TL.SQTrackAudioKeyframeStyle="0" TL.SQTrackShy="0" TL.SQTrackExpandedHeight="25" TL.SQTrackExpanded="0" MZ.TrackTargeted="0" PannerCurrentValue="0.5" PannerIsInverted="true" PannerStartKeyframe="-91445760000000000,0.5,0,0,0,0,0,0" PannerName="Balance" currentExplodedTrackIndex="0" totalExplodedTrackCount="2" premiereTrackType="Stereo">
									<enabled>TRUE</enabled>
									<locked>FALSE</locked>
									<outputchannelindex>1</outputchannelindex>
								</track>
								<track TL.SQTrackAudioKeyframeStyle="0" TL.SQTrackShy="0" TL.SQTrackExpandedHeight="25" TL.SQTrackExpanded="0" MZ.TrackTargeted="0" PannerCurrentValue="0.5" PannerIsInverted="true" PannerStartKeyframe="-91445760000000000,0.5,0,0,0,0,0,0" PannerName="Balance" currentExplodedTrackIndex="1" totalExplodedTrackCount="2" premiereTrackType="Stereo">
									<enabled>TRUE</enabled>
									<locked>FALSE</locked>
									<outputchannelindex>2</outputchannelindex>
								</track>
								<track TL.SQTrackAudioKeyframeStyle="0" TL.SQTrackShy="0" TL.SQTrackExpandedHeight="25" TL.SQTrackExpanded="0" MZ.TrackTargeted="0" PannerCurrentValue="0.5" PannerIsInverted="true" PannerStartKeyframe="-91445760000000000,0.5,0,0,0,0,0,0" PannerName="Balance" currentExplodedTrackIndex="0" totalExplodedTrackCount="2" premiereTrackType="Stereo">
									<enabled>TRUE</enabled>
									<locked>FALSE</locked>
									<outputchannelindex>1</outputchannelindex>
								</track>
								<track TL.SQTrackAudioKeyframeStyle="0" TL.SQTrackShy="0" TL.SQTrackExpandedHeight="25" TL.SQTrackExpanded="0" MZ.TrackTargeted="0" PannerCurrentValue="0.5" PannerIsInverted="true" PannerStartKeyframe="-91445760000000000,0.5,0,0,0,0,0,0" PannerName="Balance" currentExplodedTrackIndex="1" totalExplodedTrackCount="2" premiereTrackType="Stereo">
									<enabled>TRUE</enabled>
									<locked>FALSE</locked>
									<outputchannelindex>2</outputchannelindex>
								</track>
								<track TL.SQTrackAudioKeyframeStyle="0" TL.SQTrackShy="0" TL.SQTrackExpandedHeight="25" TL.SQTrackExpanded="0" MZ.TrackTargeted="0" PannerCurrentValue="0.5" PannerIsInverted="true" PannerStartKeyframe="-91445760000000000,0.5,0,0,0,0,0,0" PannerName="Balance" currentExplodedTrackIndex="0" totalExplodedTrackCount="2" premiereTrackType="Stereo">
									<enabled>TRUE</enabled>
									<locked>FALSE</locked>
									<outputchannelindex>1</outputchannelindex>
								</track>
								<track TL.SQTrackAudioKeyframeStyle="0" TL.SQTrackShy="0" TL.SQTrackExpandedHeight="25" TL.SQTrackExpanded="0" MZ.TrackTargeted="0" PannerCurrentValue="0.5" PannerIsInverted="true" PannerStartKeyframe="-91445760000000000,0.5,0,0,0,0,0,0" PannerName="Balance" currentExplodedTrackIndex="1" totalExplodedTrackCount="2" premiereTrackType="Stereo">
									<enabled>TRUE</enabled>
									<locked>FALSE</locked>
									<outputchannelindex>2</outputchannelindex>
								</track>
								<track TL.SQTrackAudioKeyframeStyle="0" TL.SQTrackShy="0" TL.SQTrackExpandedHeight="25" TL.SQTrackExpanded="0" MZ.TrackTargeted="0" PannerCurrentValue="0.5" PannerIsInverted="true" PannerStartKeyframe="-91445760000000000,0.5,0,0,0,0,0,0" PannerName="Balance" currentExplodedTrackIndex="0" totalExplodedTrackCount="2" premiereTrackType="Stereo">
									<enabled>TRUE</enabled>
									<locked>FALSE</locked>
									<outputchannelindex>1</outputchannelindex>
								</track>
								<track TL.SQTrackAudioKeyframeStyle="0" TL.SQTrackShy="0" TL.SQTrackExpandedHeight="25" TL.SQTrackExpanded="0" MZ.TrackTargeted="0" PannerCurrentValue="0.5" PannerIsInverted="true" PannerStartKeyframe="-91445760000000000,0.5,0,0,0,0,0,0" PannerName="Balance" currentExplodedTrackIndex="1" totalExplodedTrackCount="2" premiereTrackType="Stereo">
									<enabled>TRUE</enabled>
									<locked>FALSE</locked>
									<outputchannelindex>2</outputchannelindex>
								</track>
								<track TL.SQTrackAudioKeyframeStyle="0" TL.SQTrackShy="0" TL.SQTrackExpandedHeight="25" TL.SQTrackExpanded="0" MZ.TrackTargeted="0" PannerCurrentValue="0.5" PannerIsInverted="true" PannerStartKeyframe="-91445760000000000,0.5,0,0,0,0,0,0" PannerName="Balance" currentExplodedTrackIndex="0" totalExplodedTrackCount="2" premiereTrackType="Stereo">
									<enabled>TRUE</enabled>
									<locked>FALSE</locked>
									<outputchannelindex>1</outputchannelindex>
								</track>
								<track TL.SQTrackAudioKeyframeStyle="0" TL.SQTrackShy="0" TL.SQTrackExpandedHeight="25" TL.SQTrackExpanded="0" MZ.TrackTargeted="0" PannerCurrentValue="0.5" PannerIsInverted="true" PannerStartKeyframe="-91445760000000000,0.5,0,0,0,0,0,0" PannerName="Balance" currentExplodedTrackIndex="1" totalExplodedTrackCount="2" premiereTrackType="Stereo">
									<enabled>TRUE</enabled>
									<locked>FALSE</locked>
									<outputchannelindex>2</outputchannelindex>
								</track>
								<track TL.SQTrackAudioKeyframeStyle="0" TL.SQTrackShy="0" TL.SQTrackExpandedHeight="25" TL.SQTrackExpanded="0" MZ.TrackTargeted="0" PannerCurrentValue="0.5" PannerIsInverted="true" PannerStartKeyframe="-91445760000000000,0.5,0,0,0,0,0,0" PannerName="Balance" currentExplodedTrackIndex="0" totalExplodedTrackCount="2" premiereTrackType="Stereo">
									<enabled>TRUE</enabled>
									<locked>FALSE</locked>
									<outputchannelindex>1</outputchannelindex>
								</track>
								<track TL.SQTrackAudioKeyframeStyle="0" TL.SQTrackShy="0" TL.SQTrackExpandedHeight="25" TL.SQTrackExpanded="0" MZ.TrackTargeted="0" PannerCurrentValue="0.5" PannerIsInverted="true" PannerStartKeyframe="-91445760000000000,0.5,0,0,0,0,0,0" PannerName="Balance" currentExplodedTrackIndex="1" totalExplodedTrackCount="2" premiereTrackType="Stereo">
									<enabled>TRUE</enabled>
									<locked>FALSE</locked>
									<outputchannelindex>2</outputchannelindex>
								</track>
								<track TL.SQTrackAudioKeyframeStyle="0" TL.SQTrackShy="0" TL.SQTrackExpandedHeight="25" TL.SQTrackExpanded="0" MZ.TrackTargeted="0" PannerCurrentValue="0.5" PannerIsInverted="true" PannerStartKeyframe="-91445760000000000,0.5,0,0,0,0,0,0" PannerName="Balance" currentExplodedTrackIndex="0" totalExplodedTrackCount="2" premiereTrackType="Stereo">
									<enabled>TRUE</enabled>
									<locked>FALSE</locked>
									<outputchannelindex>1</outputchannelindex>
								</track>
								<track TL.SQTrackAudioKeyframeStyle="0" TL.SQTrackShy="0" TL.SQTrackExpandedHeight="25" TL.SQTrackExpanded="0" MZ.TrackTargeted="0" PannerCurrentValue="0.5" PannerIsInverted="true" PannerStartKeyframe="-91445760000000000,0.5,0,0,0,0,0,0" PannerName="Balance" currentExplodedTrackIndex="1" totalExplodedTrackCount="2" premiereTrackType="Stereo">
									<enabled>TRUE</enabled>
									<locked>FALSE</locked>
									<outputchannelindex>2</outputchannelindex>
								</track>
							</audio>
						</media>
						<timecode>
							<rate>
								<timebase>30</timebase>
								<ntsc>TRUE</ntsc>
							</rate>
							<string>00;00;00;00</string>
							<frame>0</frame>
							<displayformat>DF</displayformat>
						</timecode>
						<labels>
							<label2>Forest</label2>
						</labels>
						<logginginfo>
							<description></description>
							<scene></scene>
							<shottake></shottake>
							<lognote></lognote>
							<good></good>
							<originalvideofilename></originalvideofilename>
							<originalaudiofilename></originalaudiofilename>
						</logginginfo>
					</sequence>
<sequence id="sequence-49"/>
<sequence id="sequence-19"/>
<sequence id="sequence-29"/>
<sequence id="sequence-9"/>
<sequence id="sequence-30"/>
<sequence id="sequence-41"/>
<sequence id="sequence-33"/>
<sequence id="sequence-32"/>
<sequence id="sequence-44"/>
<sequence id="sequence-43"/>
<sequence id="sequence-17"/>
<sequence id="sequence-13"/>
<sequence id="sequence-14"/>
<sequence id="sequence-35"/>
<sequence id="sequence-36"/>
<sequence id="sequence-40"/>
<sequence id="sequence-3"/>
<sequence id="sequence-47"/>
<sequence id="sequence-2"/>
<sequence id="sequence-24"/>
<sequence id="sequence-8"/>
<sequence id="sequence-16"/>
<sequence id="sequence-23"/>
<sequence id="sequence-26"/>
<sequence id="sequence-50"/>
<sequence id="sequence-27"/>
					<bin>
						<name>Blurred Nests</name>
						<labels>
							<label2>Mango</label2>
						</labels>
						<children>
<sequence id="sequence-37"/>
						</children>
					</bin>
				</children>
			</bin>
			<bin>
				<name>4_Template Assets</name>
				<labels>
					<label2>Mango</label2>
				</labels>
				<children>
					<bin>
						<name>Bugs</name>
						<labels>
							<label2>Mango</label2>
						</labels>
						<children>
							<clip id="masterclip-286" explodedTracks="true">
								<uuid>9ac9699b-cf67-413d-8167-f093939827a5</uuid>
								<masterclipid>masterclip-286</masterclipid>
								<ismasterclip>TRUE</ismasterclip>
								<duration>150</duration>
								<rate>
									<timebase>30</timebase>
									<ntsc>TRUE</ntsc>
								</rate>
								<in>0</in>
								<out>149</out>
								<name>ATM BUG_1080_Lower Left.png</name>
								<media>
									<video>
										<track>
											<clipitem id="clipitem-1554">
												<masterclipid>masterclip-286</masterclipid>
												<name>ATM BUG_1080_Lower Left.png</name>
												<rate>
													<timebase>30</timebase>
													<ntsc>TRUE</ntsc>
												</rate>
												<alphatype>straight</alphatype>
												<pixelaspectratio>square</pixelaspectratio>
												<anamorphic>FALSE</anamorphic>
												<file id="file-250">
													<name>ATM BUG_1080_Lower Left.png</name>
													<pathurl>file://localhost/Volumes/ATM%201/EYE%20CANDY/Project%20Template/5_Assets/ATM%20Bug%20Box/ATM%20BUG_1080_Lower%20Left.png</pathurl>
													<rate>
														<timebase>30</timebase>
														<ntsc>TRUE</ntsc>
													</rate>
													<timecode>
														<rate>
															<timebase>30</timebase>
															<ntsc>TRUE</ntsc>
														</rate>
														<string>00:00:00:00</string>
														<frame>0</frame>
														<displayformat>NDF</displayformat>
													</timecode>
													<media>
														<video>
															<samplecharacteristics>
																<rate>
																	<timebase>30</timebase>
																	<ntsc>TRUE</ntsc>
																</rate>
																<width>1920</width>
																<height>1080</height>
																<anamorphic>FALSE</anamorphic>
																<pixelaspectratio>square</pixelaspectratio>
																<fielddominance>none</fielddominance>
															</samplecharacteristics>
														</video>
													</media>
												</file>
											</clipitem>
										</track>
									</video>
								</media>
								<logginginfo>
									<description></description>
									<scene></scene>
									<shottake></shottake>
									<lognote></lognote>
									<good></good>
									<originalvideofilename></originalvideofilename>
									<originalaudiofilename></originalaudiofilename>
								</logginginfo>
								<colorinfo>
									<lut></lut>
									<lut1></lut1>
									<asc_sop></asc_sop>
									<asc_sat></asc_sat>
									<lut2></lut2>
								</colorinfo>
								<labels>
								</labels>
							</clip>
							<clip id="masterclip-287" explodedTracks="true">
								<uuid>9443e974-b53a-4a0e-954d-8c863576be83</uuid>
								<masterclipid>masterclip-287</masterclipid>
								<ismasterclip>TRUE</ismasterclip>
								<duration>150</duration>
								<rate>
									<timebase>30</timebase>
									<ntsc>TRUE</ntsc>
								</rate>
								<in>0</in>
								<out>149</out>
								<name>ATM BUG_1080_Lower Right.png</name>
								<media>
									<video>
										<track>
											<clipitem id="clipitem-1555">
												<masterclipid>masterclip-287</masterclipid>
												<name>ATM BUG_1080_Lower Right.png</name>
												<rate>
													<timebase>30</timebase>
													<ntsc>TRUE</ntsc>
												</rate>
												<alphatype>straight</alphatype>
												<pixelaspectratio>square</pixelaspectratio>
												<anamorphic>FALSE</anamorphic>
												<file id="file-251">
													<name>ATM BUG_1080_Lower Right.png</name>
													<pathurl>file://localhost/Volumes/ATM%201/EYE%20CANDY/Project%20Template/5_Assets/ATM%20Bug%20Box/ATM%20BUG_1080_Lower%20Right.png</pathurl>
													<rate>
														<timebase>30</timebase>
														<ntsc>TRUE</ntsc>
													</rate>
													<timecode>
														<rate>
															<timebase>30</timebase>
															<ntsc>TRUE</ntsc>
														</rate>
														<string>00:00:00:00</string>
														<frame>0</frame>
														<displayformat>NDF</displayformat>
													</timecode>
													<media>
														<video>
															<samplecharacteristics>
																<rate>
																	<timebase>30</timebase>
																	<ntsc>TRUE</ntsc>
																</rate>
																<width>1920</width>
																<height>1080</height>
																<anamorphic>FALSE</anamorphic>
																<pixelaspectratio>square</pixelaspectratio>
																<fielddominance>none</fielddominance>
															</samplecharacteristics>
														</video>
													</media>
												</file>
											</clipitem>
										</track>
									</video>
								</media>
								<logginginfo>
									<description></description>
									<scene></scene>
									<shottake></shottake>
									<lognote></lognote>
									<good></good>
									<originalvideofilename></originalvideofilename>
									<originalaudiofilename></originalaudiofilename>
								</logginginfo>
								<colorinfo>
									<lut></lut>
									<lut1></lut1>
									<asc_sop></asc_sop>
									<asc_sat></asc_sat>
									<lut2></lut2>
								</colorinfo>
								<labels>
								</labels>
							</clip>
							<clip id="masterclip-288" explodedTracks="true">
								<uuid>9d0d2925-7928-46dd-a8ad-bd634a35377f</uuid>
								<masterclipid>masterclip-288</masterclipid>
								<ismasterclip>TRUE</ismasterclip>
								<duration>150</duration>
								<rate>
									<timebase>30</timebase>
									<ntsc>TRUE</ntsc>
								</rate>
								<in>0</in>
								<out>149</out>
								<name>ATM BUG_1080_Top Left.png</name>
								<media>
									<video>
										<track>
											<clipitem id="clipitem-1556">
												<masterclipid>masterclip-288</masterclipid>
												<name>ATM BUG_1080_Top Left.png</name>
												<rate>
													<timebase>30</timebase>
													<ntsc>TRUE</ntsc>
												</rate>
												<alphatype>straight</alphatype>
												<pixelaspectratio>square</pixelaspectratio>
												<anamorphic>FALSE</anamorphic>
												<file id="file-252">
													<name>ATM BUG_1080_Top Left.png</name>
													<pathurl>file://localhost/Volumes/ATM%201/EYE%20CANDY/Project%20Template/5_Assets/ATM%20Bug%20Box/ATM%20BUG_1080_Top%20Left.png</pathurl>
													<rate>
														<timebase>30</timebase>
														<ntsc>TRUE</ntsc>
													</rate>
													<timecode>
														<rate>
															<timebase>30</timebase>
															<ntsc>TRUE</ntsc>
														</rate>
														<string>00:00:00:00</string>
														<frame>0</frame>
														<displayformat>NDF</displayformat>
													</timecode>
													<media>
														<video>
															<samplecharacteristics>
																<rate>
																	<timebase>30</timebase>
																	<ntsc>TRUE</ntsc>
																</rate>
																<width>1920</width>
																<height>1080</height>
																<anamorphic>FALSE</anamorphic>
																<pixelaspectratio>square</pixelaspectratio>
																<fielddominance>none</fielddominance>
															</samplecharacteristics>
														</video>
													</media>
												</file>
											</clipitem>
										</track>
									</video>
								</media>
								<logginginfo>
									<description></description>
									<scene></scene>
									<shottake></shottake>
									<lognote></lognote>
									<good></good>
									<originalvideofilename></originalvideofilename>
									<originalaudiofilename></originalaudiofilename>
								</logginginfo>
								<colorinfo>
									<lut></lut>
									<lut1></lut1>
									<asc_sop></asc_sop>
									<asc_sat></asc_sat>
									<lut2></lut2>
								</colorinfo>
								<labels>
								</labels>
							</clip>
							<clip id="masterclip-16" explodedTracks="true">
								<uuid>af14ba10-6872-411e-a678-451642076a42</uuid>
								<masterclipid>masterclip-16</masterclipid>
								<ismasterclip>TRUE</ismasterclip>
								<duration>150</duration>
								<rate>
									<timebase>30</timebase>
									<ntsc>TRUE</ntsc>
								</rate>
								<in>0</in>
								<out>149</out>
								<name>ATM BUG_1080_Top Right.png</name>
								<media>
									<video>
										<track>
											<clipitem id="clipitem-1557">
												<masterclipid>masterclip-16</masterclipid>
												<name>ATM BUG_1080_Top Right.png</name>
												<rate>
													<timebase>30</timebase>
													<ntsc>TRUE</ntsc>
												</rate>
												<alphatype>straight</alphatype>
												<file id="file-14"/>
											</clipitem>
										</track>
									</video>
								</media>
								<logginginfo>
									<description></description>
									<scene></scene>
									<shottake></shottake>
									<lognote></lognote>
									<good></good>
									<originalvideofilename></originalvideofilename>
									<originalaudiofilename></originalaudiofilename>
								</logginginfo>
								<colorinfo>
									<lut></lut>
									<lut1></lut1>
									<asc_sop></asc_sop>
									<asc_sat></asc_sat>
									<lut2></lut2>
								</colorinfo>
								<labels>
								</labels>
							</clip>
						</children>
					</bin>
					<bin>
						<name>Attributions</name>
						<children>
							<clip id="masterclip-289" explodedTracks="true">
								<uuid>9f31fed9-9544-431a-bd87-159f0cf9eea9</uuid>
								<masterclipid>masterclip-289</masterclipid>
								<ismasterclip>TRUE</ismasterclip>
								<duration>5844</duration>
								<rate>
									<timebase>30</timebase>
									<ntsc>TRUE</ntsc>
								</rate>
								<name>Attribution Template</name>
								<media>
									<video>
										<track>
											<clipitem id="clipitem-1558">
												<masterclipid>masterclip-289</masterclipid>
												<name>Attribution Template</name>
												<rate>
													<timebase>30</timebase>
													<ntsc>TRUE</ntsc>
												</rate>
												<alphatype>straight</alphatype>
												<pixelaspectratio>square</pixelaspectratio>
												<anamorphic>FALSE</anamorphic>
												<file id="file-253">
													<name>1080/AE Attribution.aep</name>
													<pathurl>file://localhost/Volumes/ATM%201/EYE%20CANDY/Project%20Template/5_Assets/AE%20Attribution.aep</pathurl>
													<rate>
														<timebase>30</timebase>
														<ntsc>TRUE</ntsc>
													</rate>
													<duration>5844</duration>
													<timecode>
														<rate>
															<timebase>30</timebase>
															<ntsc>TRUE</ntsc>
														</rate>
														<string>00;00;00;00</string>
														<frame>0</frame>
														<displayformat>DF</displayformat>
													</timecode>
													<media>
														<video>
															<samplecharacteristics>
																<rate>
																	<timebase>30</timebase>
																	<ntsc>TRUE</ntsc>
																</rate>
																<width>1920</width>
																<height>1080</height>
																<anamorphic>FALSE</anamorphic>
																<pixelaspectratio>square</pixelaspectratio>
																<fielddominance>lower</fielddominance>
															</samplecharacteristics>
														</video>
													</media>
												</file>
											</clipitem>
										</track>
									</video>
								</media>
								<logginginfo>
									<description></description>
									<scene></scene>
									<shottake></shottake>
									<lognote></lognote>
									<good></good>
									<originalvideofilename></originalvideofilename>
									<originalaudiofilename></originalaudiofilename>
								</logginginfo>
								<colorinfo>
									<lut></lut>
									<lut1></lut1>
									<asc_sop></asc_sop>
									<asc_sat></asc_sat>
									<lut2></lut2>
								</colorinfo>
								<labels>
									<label2>Rose</label2>
								</labels>
							</clip>
							<clip id="masterclip-150" explodedTracks="true">
								<uuid>1bd333f8-3fa0-45be-a046-40912748b796</uuid>
								<masterclipid>masterclip-150</masterclipid>
								<ismasterclip>TRUE</ismasterclip>
								<duration>5844</duration>
								<rate>
									<timebase>30</timebase>
									<ntsc>TRUE</ntsc>
								</rate>
								<name>alphafoodie</name>
								<media>
									<video>
										<track>
											<clipitem id="clipitem-1559">
												<masterclipid>masterclip-150</masterclipid>
												<name>alphafoodie</name>
												<rate>
													<timebase>30</timebase>
													<ntsc>TRUE</ntsc>
												</rate>
												<alphatype>straight</alphatype>
												<file id="file-129"/>
											</clipitem>
										</track>
									</video>
								</media>
								<logginginfo>
									<description></description>
									<scene></scene>
									<shottake></shottake>
									<lognote></lognote>
									<good></good>
									<originalvideofilename></originalvideofilename>
									<originalaudiofilename></originalaudiofilename>
								</logginginfo>
								<colorinfo>
									<lut></lut>
									<lut1></lut1>
									<asc_sop></asc_sop>
									<asc_sat></asc_sat>
									<lut2></lut2>
								</colorinfo>
								<labels>
									<label2>Rose</label2>
								</labels>
							</clip>
							<clip id="masterclip-201" explodedTracks="true">
								<uuid>db189895-575f-45ac-aebf-0c91345a3edb</uuid>
								<masterclipid>masterclip-201</masterclipid>
								<ismasterclip>TRUE</ismasterclip>
								<duration>5844</duration>
								<rate>
									<timebase>30</timebase>
									<ntsc>TRUE</ntsc>
								</rate>
								<name>succulentbite</name>
								<media>
									<video>
										<track>
											<clipitem id="clipitem-1560">
												<masterclipid>masterclip-201</masterclipid>
												<name>succulentbite</name>
												<rate>
													<timebase>30</timebase>
													<ntsc>TRUE</ntsc>
												</rate>
												<alphatype>straight</alphatype>
												<file id="file-174"/>
											</clipitem>
										</track>
									</video>
								</media>
								<logginginfo>
									<description></description>
									<scene></scene>
									<shottake></shottake>
									<lognote></lognote>
									<good></good>
									<originalvideofilename></originalvideofilename>
									<originalaudiofilename></originalaudiofilename>
								</logginginfo>
								<colorinfo>
									<lut></lut>
									<lut1></lut1>
									<asc_sop></asc_sop>
									<asc_sat></asc_sat>
									<lut2></lut2>
								</colorinfo>
								<labels>
									<label2>Rose</label2>
								</labels>
							</clip>
							<clip id="masterclip-209" explodedTracks="true">
								<uuid>eee3908d-6785-426c-8910-0b1102564df5</uuid>
								<masterclipid>masterclip-209</masterclipid>
								<ismasterclip>TRUE</ismasterclip>
								<duration>5844</duration>
								<rate>
									<timebase>30</timebase>
									<ntsc>TRUE</ntsc>
								</rate>
								<name>Camp Chef</name>
								<media>
									<video>
										<track>
											<clipitem id="clipitem-1561">
												<masterclipid>masterclip-209</masterclipid>
												<name>Camp Chef</name>
												<rate>
													<timebase>30</timebase>
													<ntsc>TRUE</ntsc>
												</rate>
												<alphatype>straight</alphatype>
												<file id="file-180"/>
											</clipitem>
										</track>
									</video>
								</media>
								<logginginfo>
									<description></description>
									<scene></scene>
									<shottake></shottake>
									<lognote></lognote>
									<good></good>
									<originalvideofilename></originalvideofilename>
									<originalaudiofilename></originalaudiofilename>
								</logginginfo>
								<colorinfo>
									<lut></lut>
									<lut1></lut1>
									<asc_sop></asc_sop>
									<asc_sat></asc_sat>
									<lut2></lut2>
								</colorinfo>
								<labels>
									<label2>Rose</label2>
								</labels>
							</clip>
							<clip id="masterclip-222" explodedTracks="true">
								<uuid>24e1867c-1155-47f8-88f8-004e4b291571</uuid>
								<masterclipid>masterclip-222</masterclipid>
								<ismasterclip>TRUE</ismasterclip>
								<duration>5844</duration>
								<rate>
									<timebase>30</timebase>
									<ntsc>TRUE</ntsc>
								</rate>
								<out>520</out>
								<name>Sugar and Sparrow</name>
								<media>
									<video>
										<track>
											<clipitem id="clipitem-1562">
												<masterclipid>masterclip-222</masterclipid>
												<name>Sugar and Sparrow</name>
												<rate>
													<timebase>30</timebase>
													<ntsc>TRUE</ntsc>
												</rate>
												<alphatype>straight</alphatype>
												<file id="file-191"/>
											</clipitem>
										</track>
									</video>
								</media>
								<logginginfo>
									<description></description>
									<scene></scene>
									<shottake></shottake>
									<lognote></lognote>
									<good></good>
									<originalvideofilename></originalvideofilename>
									<originalaudiofilename></originalaudiofilename>
								</logginginfo>
								<colorinfo>
									<lut></lut>
									<lut1></lut1>
									<asc_sop></asc_sop>
									<asc_sat></asc_sat>
									<lut2></lut2>
								</colorinfo>
								<labels>
									<label2>Rose</label2>
								</labels>
							</clip>
							<clip id="masterclip-235" explodedTracks="true">
								<uuid>49d7c9b2-1143-41e0-80cb-db86107e8337</uuid>
								<masterclipid>masterclip-235</masterclipid>
								<ismasterclip>TRUE</ismasterclip>
								<duration>5844</duration>
								<rate>
									<timebase>30</timebase>
									<ntsc>TRUE</ntsc>
								</rate>
								<out>520</out>
								<name>eatsbyrachel</name>
								<media>
									<video>
										<track>
											<clipitem id="clipitem-1563">
												<masterclipid>masterclip-235</masterclipid>
												<name>eatsbyrachel</name>
												<rate>
													<timebase>30</timebase>
													<ntsc>TRUE</ntsc>
												</rate>
												<alphatype>straight</alphatype>
												<file id="file-202"/>
											</clipitem>
										</track>
									</video>
								</media>
								<logginginfo>
									<description></description>
									<scene></scene>
									<shottake></shottake>
									<lognote></lognote>
									<good></good>
									<originalvideofilename></originalvideofilename>
									<originalaudiofilename></originalaudiofilename>
								</logginginfo>
								<colorinfo>
									<lut></lut>
									<lut1></lut1>
									<asc_sop></asc_sop>
									<asc_sat></asc_sat>
									<lut2></lut2>
								</colorinfo>
								<labels>
									<label2>Rose</label2>
								</labels>
							</clip>
							<clip id="masterclip-216" explodedTracks="true">
								<uuid>f4f67a70-0bb8-46f7-92c1-99c152fab821</uuid>
								<masterclipid>masterclip-216</masterclipid>
								<ismasterclip>TRUE</ismasterclip>
								<duration>5844</duration>
								<rate>
									<timebase>30</timebase>
									<ntsc>TRUE</ntsc>
								</rate>
								<out>520</out>
								<name>Lindsay Grimes</name>
								<media>
									<video>
										<track>
											<clipitem id="clipitem-1564">
												<masterclipid>masterclip-216</masterclipid>
												<name>Lindsay Grimes</name>
												<rate>
													<timebase>30</timebase>
													<ntsc>TRUE</ntsc>
												</rate>
												<alphatype>straight</alphatype>
												<file id="file-186"/>
											</clipitem>
										</track>
									</video>
								</media>
								<logginginfo>
									<description></description>
									<scene></scene>
									<shottake></shottake>
									<lognote></lognote>
									<good></good>
									<originalvideofilename></originalvideofilename>
									<originalaudiofilename></originalaudiofilename>
								</logginginfo>
								<colorinfo>
									<lut></lut>
									<lut1></lut1>
									<asc_sop></asc_sop>
									<asc_sat></asc_sat>
									<lut2></lut2>
								</colorinfo>
								<labels>
									<label2>Rose</label2>
								</labels>
							</clip>
							<clip id="masterclip-27" explodedTracks="true">
								<uuid>b93306e8-6068-40ab-8b99-7061b671888d</uuid>
								<masterclipid>masterclip-27</masterclipid>
								<ismasterclip>TRUE</ismasterclip>
								<duration>5844</duration>
								<rate>
									<timebase>30</timebase>
									<ntsc>TRUE</ntsc>
								</rate>
								<out>520</out>
								<name>Tuba Geçkil</name>
								<media>
									<video>
										<track>
											<clipitem id="clipitem-1565">
												<masterclipid>masterclip-27</masterclipid>
												<name>Tuba Geçkil</name>
												<rate>
													<timebase>30</timebase>
													<ntsc>TRUE</ntsc>
												</rate>
												<alphatype>straight</alphatype>
												<file id="file-21"/>
											</clipitem>
										</track>
									</video>
								</media>
								<logginginfo>
									<description></description>
									<scene></scene>
									<shottake></shottake>
									<lognote></lognote>
									<good></good>
									<originalvideofilename></originalvideofilename>
									<originalaudiofilename></originalaudiofilename>
								</logginginfo>
								<colorinfo>
									<lut></lut>
									<lut1></lut1>
									<asc_sop></asc_sop>
									<asc_sat></asc_sat>
									<lut2></lut2>
								</colorinfo>
								<labels>
									<label2>Rose</label2>
								</labels>
							</clip>
							<clip id="masterclip-137" explodedTracks="true">
								<uuid>5d7c917b-105f-4771-aa71-c2df13fee781</uuid>
								<masterclipid>masterclip-137</masterclipid>
								<ismasterclip>TRUE</ismasterclip>
								<duration>5844</duration>
								<rate>
									<timebase>30</timebase>
									<ntsc>TRUE</ntsc>
								</rate>
								<out>520</out>
								<name>sugarandsparrowco</name>
								<media>
									<video>
										<track>
											<clipitem id="clipitem-1566">
												<masterclipid>masterclip-137</masterclipid>
												<name>sugarandsparrowco</name>
												<rate>
													<timebase>30</timebase>
													<ntsc>TRUE</ntsc>
												</rate>
												<alphatype>straight</alphatype>
												<file id="file-118"/>
											</clipitem>
										</track>
									</video>
								</media>
								<logginginfo>
									<description></description>
									<scene></scene>
									<shottake></shottake>
									<lognote></lognote>
									<good></good>
									<originalvideofilename></originalvideofilename>
									<originalaudiofilename></originalaudiofilename>
								</logginginfo>
								<colorinfo>
									<lut></lut>
									<lut1></lut1>
									<asc_sop></asc_sop>
									<asc_sat></asc_sat>
									<lut2></lut2>
								</colorinfo>
								<labels>
									<label2>Rose</label2>
								</labels>
							</clip>
						</children>
					</bin>
					<bin>
						<name>House Ads</name>
						<children>
<sequence id="sequence-38"/>
<sequence id="sequence-10"/>
							<bin>
								<name>Raw Bumpers</name>
								<children>
									<clip id="masterclip-204" explodedTracks="true">
										<uuid>ba1a9bc9-18c4-40be-b43a-011ef793361b</uuid>
										<masterclipid>masterclip-204</masterclipid>
										<ismasterclip>TRUE</ismasterclip>
										<duration>240</duration>
										<rate>
											<timebase>30</timebase>
											<ntsc>FALSE</ntsc>
										</rate>
										<name>ATM_HouseAd_2023_V2.mp4</name>
										<media>
											<video>
												<track>
													<clipitem id="clipitem-1567">
														<masterclipid>masterclip-204</masterclipid>
														<name>ATM_HouseAd_2023_V2.mp4</name>
														<rate>
															<timebase>30</timebase>
															<ntsc>FALSE</ntsc>
														</rate>
														<alphatype>none</alphatype>
														<file id="file-176"/>
														<link>
															<linkclipref>clipitem-1567</linkclipref>
															<mediatype>video</mediatype>
															<trackindex>1</trackindex>
															<clipindex>1</clipindex>
														</link>
														<link>
															<linkclipref>clipitem-1568</linkclipref>
															<mediatype>audio</mediatype>
															<trackindex>1</trackindex>
															<clipindex>1</clipindex>
															<groupindex>1</groupindex>
														</link>
														<link>
															<linkclipref>clipitem-1569</linkclipref>
															<mediatype>audio</mediatype>
															<trackindex>2</trackindex>
															<clipindex>1</clipindex>
															<groupindex>1</groupindex>
														</link>
													</clipitem>
												</track>
											</video>
											<audio>
												<track>
													<clipitem id="clipitem-1568">
														<masterclipid>masterclip-204</masterclipid>
														<name>ATM_HouseAd_2023_V2.mp4</name>
														<rate>
															<timebase>30</timebase>
															<ntsc>FALSE</ntsc>
														</rate>
														<file id="file-176"/>
														<sourcetrack>
															<mediatype>audio</mediatype>
															<trackindex>1</trackindex>
														</sourcetrack>
														<link>
															<linkclipref>clipitem-1567</linkclipref>
															<mediatype>video</mediatype>
															<trackindex>1</trackindex>
															<clipindex>1</clipindex>
														</link>
														<link>
															<linkclipref>clipitem-1568</linkclipref>
															<mediatype>audio</mediatype>
															<trackindex>1</trackindex>
															<clipindex>1</clipindex>
															<groupindex>1</groupindex>
														</link>
														<link>
															<linkclipref>clipitem-1569</linkclipref>
															<mediatype>audio</mediatype>
															<trackindex>2</trackindex>
															<clipindex>1</clipindex>
															<groupindex>1</groupindex>
														</link>
													</clipitem>
												</track>
												<track>
													<clipitem id="clipitem-1569">
														<masterclipid>masterclip-204</masterclipid>
														<name>ATM_HouseAd_2023_V2.mp4</name>
														<rate>
															<timebase>30</timebase>
															<ntsc>FALSE</ntsc>
														</rate>
														<file id="file-176"/>
														<sourcetrack>
															<mediatype>audio</mediatype>
															<trackindex>2</trackindex>
														</sourcetrack>
														<link>
															<linkclipref>clipitem-1567</linkclipref>
															<mediatype>video</mediatype>
															<trackindex>1</trackindex>
															<clipindex>1</clipindex>
														</link>
														<link>
															<linkclipref>clipitem-1568</linkclipref>
															<mediatype>audio</mediatype>
															<trackindex>1</trackindex>
															<clipindex>1</clipindex>
															<groupindex>1</groupindex>
														</link>
														<link>
															<linkclipref>clipitem-1569</linkclipref>
															<mediatype>audio</mediatype>
															<trackindex>2</trackindex>
															<clipindex>1</clipindex>
															<groupindex>1</groupindex>
														</link>
													</clipitem>
												</track>
											</audio>
										</media>
										<logginginfo>
											<description></description>
											<scene></scene>
											<shottake></shottake>
											<lognote></lognote>
											<good></good>
											<originalvideofilename></originalvideofilename>
											<originalaudiofilename></originalaudiofilename>
										</logginginfo>
										<colorinfo>
											<lut></lut>
											<lut1></lut1>
											<asc_sop></asc_sop>
											<asc_sat></asc_sat>
											<lut2></lut2>
										</colorinfo>
										<labels>
											<label2>Iris</label2>
										</labels>
									</clip>
									<clip id="masterclip-39" explodedTracks="true">
										<uuid>91090985-1cc6-4750-b578-2add3344e5d5</uuid>
										<masterclipid>masterclip-39</masterclipid>
										<ismasterclip>TRUE</ismasterclip>
										<duration>300</duration>
										<rate>
											<timebase>30</timebase>
											<ntsc>FALSE</ntsc>
										</rate>
										<name>ATM_YouAreWatching.mp4</name>
										<media>
											<video>
												<track>
													<clipitem id="clipitem-1570">
														<masterclipid>masterclip-39</masterclipid>
														<name>ATM_YouAreWatching.mp4</name>
														<rate>
															<timebase>30</timebase>
															<ntsc>FALSE</ntsc>
														</rate>
														<alphatype>none</alphatype>
														<file id="file-31"/>
														<link>
															<linkclipref>clipitem-1570</linkclipref>
															<mediatype>video</mediatype>
															<trackindex>1</trackindex>
															<clipindex>1</clipindex>
														</link>
														<link>
															<linkclipref>clipitem-1571</linkclipref>
															<mediatype>audio</mediatype>
															<trackindex>1</trackindex>
															<clipindex>1</clipindex>
															<groupindex>1</groupindex>
														</link>
														<link>
															<linkclipref>clipitem-1572</linkclipref>
															<mediatype>audio</mediatype>
															<trackindex>2</trackindex>
															<clipindex>1</clipindex>
															<groupindex>1</groupindex>
														</link>
													</clipitem>
												</track>
											</video>
											<audio>
												<track>
													<clipitem id="clipitem-1571">
														<masterclipid>masterclip-39</masterclipid>
														<name>ATM_YouAreWatching.mp4</name>
														<rate>
															<timebase>30</timebase>
															<ntsc>FALSE</ntsc>
														</rate>
														<file id="file-31"/>
														<sourcetrack>
															<mediatype>audio</mediatype>
															<trackindex>1</trackindex>
														</sourcetrack>
														<link>
															<linkclipref>clipitem-1570</linkclipref>
															<mediatype>video</mediatype>
															<trackindex>1</trackindex>
															<clipindex>1</clipindex>
														</link>
														<link>
															<linkclipref>clipitem-1571</linkclipref>
															<mediatype>audio</mediatype>
															<trackindex>1</trackindex>
															<clipindex>1</clipindex>
															<groupindex>1</groupindex>
														</link>
														<link>
															<linkclipref>clipitem-1572</linkclipref>
															<mediatype>audio</mediatype>
															<trackindex>2</trackindex>
															<clipindex>1</clipindex>
															<groupindex>1</groupindex>
														</link>
													</clipitem>
												</track>
												<track>
													<clipitem id="clipitem-1572">
														<masterclipid>masterclip-39</masterclipid>
														<name>ATM_YouAreWatching.mp4</name>
														<rate>
															<timebase>30</timebase>
															<ntsc>FALSE</ntsc>
														</rate>
														<file id="file-31"/>
														<sourcetrack>
															<mediatype>audio</mediatype>
															<trackindex>2</trackindex>
														</sourcetrack>
														<link>
															<linkclipref>clipitem-1570</linkclipref>
															<mediatype>video</mediatype>
															<trackindex>1</trackindex>
															<clipindex>1</clipindex>
														</link>
														<link>
															<linkclipref>clipitem-1571</linkclipref>
															<mediatype>audio</mediatype>
															<trackindex>1</trackindex>
															<clipindex>1</clipindex>
															<groupindex>1</groupindex>
														</link>
														<link>
															<linkclipref>clipitem-1572</linkclipref>
															<mediatype>audio</mediatype>
															<trackindex>2</trackindex>
															<clipindex>1</clipindex>
															<groupindex>1</groupindex>
														</link>
													</clipitem>
												</track>
											</audio>
										</media>
										<logginginfo>
											<description></description>
											<scene></scene>
											<shottake></shottake>
											<lognote></lognote>
											<good></good>
											<originalvideofilename></originalvideofilename>
											<originalaudiofilename></originalaudiofilename>
										</logginginfo>
										<colorinfo>
											<lut></lut>
											<lut1></lut1>
											<asc_sop></asc_sop>
											<asc_sat></asc_sat>
											<lut2></lut2>
										</colorinfo>
										<labels>
										</labels>
									</clip>
									<clip id="masterclip-112" explodedTracks="true">
										<uuid>77a3da05-11a1-4f98-9c80-ec00bd1f4b74</uuid>
										<masterclipid>masterclip-112</masterclipid>
										<ismasterclip>TRUE</ismasterclip>
										<duration>300</duration>
										<rate>
											<timebase>30</timebase>
											<ntsc>FALSE</ntsc>
										</rate>
										<name>ATM_Content Submit QR_Music 2.mp4</name>
										<media>
											<video>
												<track>
													<clipitem id="clipitem-1573">
														<masterclipid>masterclip-112</masterclipid>
														<name>ATM_Content Submit QR_Music 2.mp4</name>
														<rate>
															<timebase>30</timebase>
															<ntsc>FALSE</ntsc>
														</rate>
														<alphatype>none</alphatype>
														<file id="file-96"/>
														<link>
															<linkclipref>clipitem-1573</linkclipref>
															<mediatype>video</mediatype>
															<trackindex>1</trackindex>
															<clipindex>1</clipindex>
														</link>
														<link>
															<linkclipref>clipitem-1574</linkclipref>
															<mediatype>audio</mediatype>
															<trackindex>1</trackindex>
															<clipindex>1</clipindex>
															<groupindex>1</groupindex>
														</link>
														<link>
															<linkclipref>clipitem-1575</linkclipref>
															<mediatype>audio</mediatype>
															<trackindex>2</trackindex>
															<clipindex>1</clipindex>
															<groupindex>1</groupindex>
														</link>
													</clipitem>
												</track>
											</video>
											<audio>
												<track>
													<clipitem id="clipitem-1574">
														<masterclipid>masterclip-112</masterclipid>
														<name>ATM_Content Submit QR_Music 2.mp4</name>
														<rate>
															<timebase>30</timebase>
															<ntsc>FALSE</ntsc>
														</rate>
														<file id="file-96"/>
														<sourcetrack>
															<mediatype>audio</mediatype>
															<trackindex>1</trackindex>
														</sourcetrack>
														<link>
															<linkclipref>clipitem-1573</linkclipref>
															<mediatype>video</mediatype>
															<trackindex>1</trackindex>
															<clipindex>1</clipindex>
														</link>
														<link>
															<linkclipref>clipitem-1574</linkclipref>
															<mediatype>audio</mediatype>
															<trackindex>1</trackindex>
															<clipindex>1</clipindex>
															<groupindex>1</groupindex>
														</link>
														<link>
															<linkclipref>clipitem-1575</linkclipref>
															<mediatype>audio</mediatype>
															<trackindex>2</trackindex>
															<clipindex>1</clipindex>
															<groupindex>1</groupindex>
														</link>
													</clipitem>
												</track>
												<track>
													<clipitem id="clipitem-1575">
														<masterclipid>masterclip-112</masterclipid>
														<name>ATM_Content Submit QR_Music 2.mp4</name>
														<rate>
															<timebase>30</timebase>
															<ntsc>FALSE</ntsc>
														</rate>
														<file id="file-96"/>
														<sourcetrack>
															<mediatype>audio</mediatype>
															<trackindex>2</trackindex>
														</sourcetrack>
														<link>
															<linkclipref>clipitem-1573</linkclipref>
															<mediatype>video</mediatype>
															<trackindex>1</trackindex>
															<clipindex>1</clipindex>
														</link>
														<link>
															<linkclipref>clipitem-1574</linkclipref>
															<mediatype>audio</mediatype>
															<trackindex>1</trackindex>
															<clipindex>1</clipindex>
															<groupindex>1</groupindex>
														</link>
														<link>
															<linkclipref>clipitem-1575</linkclipref>
															<mediatype>audio</mediatype>
															<trackindex>2</trackindex>
															<clipindex>1</clipindex>
															<groupindex>1</groupindex>
														</link>
													</clipitem>
												</track>
											</audio>
										</media>
										<logginginfo>
											<description></description>
											<scene></scene>
											<shottake></shottake>
											<lognote></lognote>
											<good></good>
											<originalvideofilename></originalvideofilename>
											<originalaudiofilename></originalaudiofilename>
										</logginginfo>
										<colorinfo>
											<lut></lut>
											<lut1></lut1>
											<asc_sop></asc_sop>
											<asc_sat></asc_sat>
											<lut2></lut2>
										</colorinfo>
										<labels>
										</labels>
									</clip>
								</children>
							</bin>
<sequence id="sequence-21"/>
						</children>
					</bin>
				</children>
			</bin>
			<bin>
				<name>5_Transitions</name>
				<labels>
					<label2>Mango</label2>
				</labels>
				<children>
					<bin>
						<name>Raw Transitions</name>
						<children>
							<clip id="masterclip-20" explodedTracks="true">
								<uuid>e5ff6f48-8edc-4c68-8cbe-ffff7d57d814</uuid>
								<masterclipid>masterclip-20</masterclipid>
								<ismasterclip>TRUE</ismasterclip>
								<duration>122</duration>
								<rate>
									<timebase>30</timebase>
									<ntsc>TRUE</ntsc>
								</rate>
								<name>ATM_Yummy_Transtion_1.mov</name>
								<media>
									<video>
										<track>
											<clipitem id="clipitem-1576">
												<masterclipid>masterclip-20</masterclipid>
												<name>ATM_Yummy_Transtion_1.mov</name>
												<rate>
													<timebase>30</timebase>
													<ntsc>TRUE</ntsc>
												</rate>
												<alphatype>straight</alphatype>
												<file id="file-17"/>
												<link>
													<linkclipref>clipitem-1576</linkclipref>
													<mediatype>video</mediatype>
													<trackindex>1</trackindex>
													<clipindex>1</clipindex>
												</link>
												<link>
													<linkclipref>clipitem-1577</linkclipref>
													<mediatype>audio</mediatype>
													<trackindex>1</trackindex>
													<clipindex>1</clipindex>
													<groupindex>1</groupindex>
												</link>
												<link>
													<linkclipref>clipitem-1578</linkclipref>
													<mediatype>audio</mediatype>
													<trackindex>2</trackindex>
													<clipindex>1</clipindex>
													<groupindex>1</groupindex>
												</link>
											</clipitem>
										</track>
									</video>
									<audio>
										<track>
											<clipitem id="clipitem-1577">
												<masterclipid>masterclip-20</masterclipid>
												<name>ATM_Yummy_Transtion_1.mov</name>
												<rate>
													<timebase>30</timebase>
													<ntsc>TRUE</ntsc>
												</rate>
												<file id="file-17"/>
												<sourcetrack>
													<mediatype>audio</mediatype>
													<trackindex>1</trackindex>
												</sourcetrack>
												<link>
													<linkclipref>clipitem-1576</linkclipref>
													<mediatype>video</mediatype>
													<trackindex>1</trackindex>
													<clipindex>1</clipindex>
												</link>
												<link>
													<linkclipref>clipitem-1577</linkclipref>
													<mediatype>audio</mediatype>
													<trackindex>1</trackindex>
													<clipindex>1</clipindex>
													<groupindex>1</groupindex>
												</link>
												<link>
													<linkclipref>clipitem-1578</linkclipref>
													<mediatype>audio</mediatype>
													<trackindex>2</trackindex>
													<clipindex>1</clipindex>
													<groupindex>1</groupindex>
												</link>
											</clipitem>
										</track>
										<track>
											<clipitem id="clipitem-1578">
												<masterclipid>masterclip-20</masterclipid>
												<name>ATM_Yummy_Transtion_1.mov</name>
												<rate>
													<timebase>30</timebase>
													<ntsc>TRUE</ntsc>
												</rate>
												<file id="file-17"/>
												<sourcetrack>
													<mediatype>audio</mediatype>
													<trackindex>2</trackindex>
												</sourcetrack>
												<link>
													<linkclipref>clipitem-1576</linkclipref>
													<mediatype>video</mediatype>
													<trackindex>1</trackindex>
													<clipindex>1</clipindex>
												</link>
												<link>
													<linkclipref>clipitem-1577</linkclipref>
													<mediatype>audio</mediatype>
													<trackindex>1</trackindex>
													<clipindex>1</clipindex>
													<groupindex>1</groupindex>
												</link>
												<link>
													<linkclipref>clipitem-1578</linkclipref>
													<mediatype>audio</mediatype>
													<trackindex>2</trackindex>
													<clipindex>1</clipindex>
													<groupindex>1</groupindex>
												</link>
											</clipitem>
										</track>
									</audio>
								</media>
									<marker>
										<comment></comment>
										<name></name>
										<in>82</in>
										<out>-1</out>
									</marker>
									<marker>
										<comment></comment>
										<name></name>
										<in>0</in>
										<out>-1</out>
									</marker>
								<logginginfo>
									<description></description>
									<scene></scene>
									<shottake></shottake>
									<lognote></lognote>
									<good></good>
									<originalvideofilename></originalvideofilename>
									<originalaudiofilename></originalaudiofilename>
								</logginginfo>
								<colorinfo>
									<lut></lut>
									<lut1></lut1>
									<asc_sop></asc_sop>
									<asc_sat></asc_sat>
									<lut2></lut2>
								</colorinfo>
								<labels>
								</labels>
							</clip>
							<clip id="masterclip-24" explodedTracks="true">
								<uuid>8b22cd02-3a02-4f05-ad39-14f59940fe8b</uuid>
								<masterclipid>masterclip-24</masterclipid>
								<ismasterclip>TRUE</ismasterclip>
								<duration>137</duration>
								<rate>
									<timebase>30</timebase>
									<ntsc>TRUE</ntsc>
								</rate>
								<name>ATM_Yummy_Transtion_3.mov</name>
								<media>
									<video>
										<track>
											<clipitem id="clipitem-1579">
												<masterclipid>masterclip-24</masterclipid>
												<name>ATM_Yummy_Transtion_3.mov</name>
												<rate>
													<timebase>30</timebase>
													<ntsc>TRUE</ntsc>
												</rate>
												<alphatype>straight</alphatype>
												<file id="file-19"/>
												<link>
													<linkclipref>clipitem-1579</linkclipref>
													<mediatype>video</mediatype>
													<trackindex>1</trackindex>
													<clipindex>1</clipindex>
												</link>
												<link>
													<linkclipref>clipitem-1580</linkclipref>
													<mediatype>audio</mediatype>
													<trackindex>1</trackindex>
													<clipindex>1</clipindex>
													<groupindex>1</groupindex>
												</link>
												<link>
													<linkclipref>clipitem-1581</linkclipref>
													<mediatype>audio</mediatype>
													<trackindex>2</trackindex>
													<clipindex>1</clipindex>
													<groupindex>1</groupindex>
												</link>
											</clipitem>
										</track>
									</video>
									<audio>
										<track>
											<clipitem id="clipitem-1580">
												<masterclipid>masterclip-24</masterclipid>
												<name>ATM_Yummy_Transtion_3.mov</name>
												<rate>
													<timebase>30</timebase>
													<ntsc>TRUE</ntsc>
												</rate>
												<file id="file-19"/>
												<sourcetrack>
													<mediatype>audio</mediatype>
													<trackindex>1</trackindex>
												</sourcetrack>
												<link>
													<linkclipref>clipitem-1579</linkclipref>
													<mediatype>video</mediatype>
													<trackindex>1</trackindex>
													<clipindex>1</clipindex>
												</link>
												<link>
													<linkclipref>clipitem-1580</linkclipref>
													<mediatype>audio</mediatype>
													<trackindex>1</trackindex>
													<clipindex>1</clipindex>
													<groupindex>1</groupindex>
												</link>
												<link>
													<linkclipref>clipitem-1581</linkclipref>
													<mediatype>audio</mediatype>
													<trackindex>2</trackindex>
													<clipindex>1</clipindex>
													<groupindex>1</groupindex>
												</link>
											</clipitem>
										</track>
										<track>
											<clipitem id="clipitem-1581">
												<masterclipid>masterclip-24</masterclipid>
												<name>ATM_Yummy_Transtion_3.mov</name>
												<rate>
													<timebase>30</timebase>
													<ntsc>TRUE</ntsc>
												</rate>
												<file id="file-19"/>
												<sourcetrack>
													<mediatype>audio</mediatype>
													<trackindex>2</trackindex>
												</sourcetrack>
												<link>
													<linkclipref>clipitem-1579</linkclipref>
													<mediatype>video</mediatype>
													<trackindex>1</trackindex>
													<clipindex>1</clipindex>
												</link>
												<link>
													<linkclipref>clipitem-1580</linkclipref>
													<mediatype>audio</mediatype>
													<trackindex>1</trackindex>
													<clipindex>1</clipindex>
													<groupindex>1</groupindex>
												</link>
												<link>
													<linkclipref>clipitem-1581</linkclipref>
													<mediatype>audio</mediatype>
													<trackindex>2</trackindex>
													<clipindex>1</clipindex>
													<groupindex>1</groupindex>
												</link>
											</clipitem>
										</track>
									</audio>
								</media>
									<marker>
										<comment></comment>
										<name></name>
										<in>32</in>
										<out>-1</out>
									</marker>
								<logginginfo>
									<description></description>
									<scene></scene>
									<shottake></shottake>
									<lognote></lognote>
									<good></good>
									<originalvideofilename></originalvideofilename>
									<originalaudiofilename></originalaudiofilename>
								</logginginfo>
								<colorinfo>
									<lut></lut>
									<lut1></lut1>
									<asc_sop></asc_sop>
									<asc_sat></asc_sat>
									<lut2></lut2>
								</colorinfo>
								<labels>
								</labels>
							</clip>
							<clip id="masterclip-43" explodedTracks="true">
								<uuid>3865f28e-80ea-4a08-94f6-f9ad3ae80a87</uuid>
								<masterclipid>masterclip-43</masterclipid>
								<ismasterclip>TRUE</ismasterclip>
								<duration>118</duration>
								<rate>
									<timebase>30</timebase>
									<ntsc>TRUE</ntsc>
								</rate>
								<name>ATM_Yummy_Transtion_2.mov</name>
								<media>
									<video>
										<track>
											<clipitem id="clipitem-1582">
												<masterclipid>masterclip-43</masterclipid>
												<name>ATM_Yummy_Transtion_2.mov</name>
												<rate>
													<timebase>30</timebase>
													<ntsc>TRUE</ntsc>
												</rate>
												<alphatype>straight</alphatype>
												<file id="file-34"/>
												<link>
													<linkclipref>clipitem-1582</linkclipref>
													<mediatype>video</mediatype>
													<trackindex>1</trackindex>
													<clipindex>1</clipindex>
												</link>
												<link>
													<linkclipref>clipitem-1583</linkclipref>
													<mediatype>audio</mediatype>
													<trackindex>1</trackindex>
													<clipindex>1</clipindex>
													<groupindex>1</groupindex>
												</link>
												<link>
													<linkclipref>clipitem-1584</linkclipref>
													<mediatype>audio</mediatype>
													<trackindex>2</trackindex>
													<clipindex>1</clipindex>
													<groupindex>1</groupindex>
												</link>
											</clipitem>
										</track>
									</video>
									<audio>
										<track>
											<clipitem id="clipitem-1583">
												<masterclipid>masterclip-43</masterclipid>
												<name>ATM_Yummy_Transtion_2.mov</name>
												<rate>
													<timebase>30</timebase>
													<ntsc>TRUE</ntsc>
												</rate>
												<file id="file-34"/>
												<sourcetrack>
													<mediatype>audio</mediatype>
													<trackindex>1</trackindex>
												</sourcetrack>
												<link>
													<linkclipref>clipitem-1582</linkclipref>
													<mediatype>video</mediatype>
													<trackindex>1</trackindex>
													<clipindex>1</clipindex>
												</link>
												<link>
													<linkclipref>clipitem-1583</linkclipref>
													<mediatype>audio</mediatype>
													<trackindex>1</trackindex>
													<clipindex>1</clipindex>
													<groupindex>1</groupindex>
												</link>
												<link>
													<linkclipref>clipitem-1584</linkclipref>
													<mediatype>audio</mediatype>
													<trackindex>2</trackindex>
													<clipindex>1</clipindex>
													<groupindex>1</groupindex>
												</link>
											</clipitem>
										</track>
										<track>
											<clipitem id="clipitem-1584">
												<masterclipid>masterclip-43</masterclipid>
												<name>ATM_Yummy_Transtion_2.mov</name>
												<rate>
													<timebase>30</timebase>
													<ntsc>TRUE</ntsc>
												</rate>
												<file id="file-34"/>
												<sourcetrack>
													<mediatype>audio</mediatype>
													<trackindex>2</trackindex>
												</sourcetrack>
												<link>
													<linkclipref>clipitem-1582</linkclipref>
													<mediatype>video</mediatype>
													<trackindex>1</trackindex>
													<clipindex>1</clipindex>
												</link>
												<link>
													<linkclipref>clipitem-1583</linkclipref>
													<mediatype>audio</mediatype>
													<trackindex>1</trackindex>
													<clipindex>1</clipindex>
													<groupindex>1</groupindex>
												</link>
												<link>
													<linkclipref>clipitem-1584</linkclipref>
													<mediatype>audio</mediatype>
													<trackindex>2</trackindex>
													<clipindex>1</clipindex>
													<groupindex>1</groupindex>
												</link>
											</clipitem>
										</track>
									</audio>
								</media>
									<marker>
										<comment></comment>
										<name></name>
										<in>54</in>
										<out>-1</out>
									</marker>
								<logginginfo>
									<description></description>
									<scene></scene>
									<shottake></shottake>
									<lognote></lognote>
									<good></good>
									<originalvideofilename></originalvideofilename>
									<originalaudiofilename></originalaudiofilename>
								</logginginfo>
								<colorinfo>
									<lut></lut>
									<lut1></lut1>
									<asc_sop></asc_sop>
									<asc_sat></asc_sat>
									<lut2></lut2>
								</colorinfo>
								<labels>
								</labels>
							</clip>
							<clip id="masterclip-22" explodedTracks="true">
								<uuid>6451a06f-0c33-4959-a33e-57b5ab8f2dcc</uuid>
								<masterclipid>masterclip-22</masterclipid>
								<ismasterclip>TRUE</ismasterclip>
								<duration>119</duration>
								<rate>
									<timebase>30</timebase>
									<ntsc>TRUE</ntsc>
								</rate>
								<name>ATM_Yummy_Transtion_4.mov</name>
								<media>
									<video>
										<track>
											<clipitem id="clipitem-1585">
												<masterclipid>masterclip-22</masterclipid>
												<name>ATM_Yummy_Transtion_4.mov</name>
												<rate>
													<timebase>30</timebase>
													<ntsc>TRUE</ntsc>
												</rate>
												<alphatype>straight</alphatype>
												<file id="file-18"/>
												<link>
													<linkclipref>clipitem-1585</linkclipref>
													<mediatype>video</mediatype>
													<trackindex>1</trackindex>
													<clipindex>1</clipindex>
												</link>
												<link>
													<linkclipref>clipitem-1586</linkclipref>
													<mediatype>audio</mediatype>
													<trackindex>1</trackindex>
													<clipindex>1</clipindex>
													<groupindex>1</groupindex>
												</link>
												<link>
													<linkclipref>clipitem-1587</linkclipref>
													<mediatype>audio</mediatype>
													<trackindex>2</trackindex>
													<clipindex>1</clipindex>
													<groupindex>1</groupindex>
												</link>
											</clipitem>
										</track>
									</video>
									<audio>
										<track>
											<clipitem id="clipitem-1586">
												<masterclipid>masterclip-22</masterclipid>
												<name>ATM_Yummy_Transtion_4.mov</name>
												<rate>
													<timebase>30</timebase>
													<ntsc>TRUE</ntsc>
												</rate>
												<file id="file-18"/>
												<sourcetrack>
													<mediatype>audio</mediatype>
													<trackindex>1</trackindex>
												</sourcetrack>
												<link>
													<linkclipref>clipitem-1585</linkclipref>
													<mediatype>video</mediatype>
													<trackindex>1</trackindex>
													<clipindex>1</clipindex>
												</link>
												<link>
													<linkclipref>clipitem-1586</linkclipref>
													<mediatype>audio</mediatype>
													<trackindex>1</trackindex>
													<clipindex>1</clipindex>
													<groupindex>1</groupindex>
												</link>
												<link>
													<linkclipref>clipitem-1587</linkclipref>
													<mediatype>audio</mediatype>
													<trackindex>2</trackindex>
													<clipindex>1</clipindex>
													<groupindex>1</groupindex>
												</link>
											</clipitem>
										</track>
										<track>
											<clipitem id="clipitem-1587">
												<masterclipid>masterclip-22</masterclipid>
												<name>ATM_Yummy_Transtion_4.mov</name>
												<rate>
													<timebase>30</timebase>
													<ntsc>TRUE</ntsc>
												</rate>
												<file id="file-18"/>
												<sourcetrack>
													<mediatype>audio</mediatype>
													<trackindex>2</trackindex>
												</sourcetrack>
												<link>
													<linkclipref>clipitem-1585</linkclipref>
													<mediatype>video</mediatype>
													<trackindex>1</trackindex>
													<clipindex>1</clipindex>
												</link>
												<link>
													<linkclipref>clipitem-1586</linkclipref>
													<mediatype>audio</mediatype>
													<trackindex>1</trackindex>
													<clipindex>1</clipindex>
													<groupindex>1</groupindex>
												</link>
												<link>
													<linkclipref>clipitem-1587</linkclipref>
													<mediatype>audio</mediatype>
													<trackindex>2</trackindex>
													<clipindex>1</clipindex>
													<groupindex>1</groupindex>
												</link>
											</clipitem>
										</track>
									</audio>
								</media>
									<marker>
										<comment></comment>
										<name></name>
										<in>20</in>
										<out>-1</out>
									</marker>
									<marker>
										<comment></comment>
										<name></name>
										<in>55</in>
										<out>-1</out>
									</marker>
								<logginginfo>
									<description></description>
									<scene></scene>
									<shottake></shottake>
									<lognote></lognote>
									<good></good>
									<originalvideofilename></originalvideofilename>
									<originalaudiofilename></originalaudiofilename>
								</logginginfo>
								<colorinfo>
									<lut></lut>
									<lut1></lut1>
									<asc_sop></asc_sop>
									<asc_sat></asc_sat>
									<lut2></lut2>
								</colorinfo>
								<labels>
								</labels>
							</clip>
						</children>
					</bin>
<sequence id="sequence-4"/>
<sequence id="sequence-6"/>
<sequence id="sequence-11"/>
<sequence id="sequence-5"/>
				</children>
			</bin>
			<bin>
				<name>6_Music</name>
				<labels>
					<label2>Mango</label2>
				</labels>
				<children>
					<clip id="masterclip-242" explodedTracks="true">
						<uuid>19f743c7-7844-4924-8a7e-923f308ea7ff</uuid>
						<masterclipid>masterclip-242</masterclipid>
						<ismasterclip>TRUE</ismasterclip>
						<duration>5137</duration>
						<rate>
							<timebase>30</timebase>
							<ntsc>TRUE</ntsc>
						</rate>
						<out>2419</out>
						<name>ES_Bewitched (Instrumental Version) - Zorro.mp3</name>
						<media>
							<audio>
								<track>
									<clipitem id="clipitem-1588">
										<masterclipid>masterclip-242</masterclipid>
										<name>ES_Bewitched (Instrumental Version) - Zorro.mp3</name>
										<rate>
											<timebase>30</timebase>
											<ntsc>TRUE</ntsc>
										</rate>
										<file id="file-208"/>
										<sourcetrack>
											<mediatype>audio</mediatype>
											<trackindex>1</trackindex>
										</sourcetrack>
										<link>
											<linkclipref>clipitem-1588</linkclipref>
											<mediatype>audio</mediatype>
											<trackindex>1</trackindex>
											<clipindex>1</clipindex>
											<groupindex>1</groupindex>
										</link>
										<link>
											<linkclipref>clipitem-1589</linkclipref>
											<mediatype>audio</mediatype>
											<trackindex>2</trackindex>
											<clipindex>1</clipindex>
											<groupindex>1</groupindex>
										</link>
									</clipitem>
								</track>
								<track>
									<clipitem id="clipitem-1589">
										<masterclipid>masterclip-242</masterclipid>
										<name>ES_Bewitched (Instrumental Version) - Zorro.mp3</name>
										<rate>
											<timebase>30</timebase>
											<ntsc>TRUE</ntsc>
										</rate>
										<file id="file-208"/>
										<sourcetrack>
											<mediatype>audio</mediatype>
											<trackindex>2</trackindex>
										</sourcetrack>
										<link>
											<linkclipref>clipitem-1588</linkclipref>
											<mediatype>audio</mediatype>
											<trackindex>1</trackindex>
											<clipindex>1</clipindex>
											<groupindex>1</groupindex>
										</link>
										<link>
											<linkclipref>clipitem-1589</linkclipref>
											<mediatype>audio</mediatype>
											<trackindex>2</trackindex>
											<clipindex>1</clipindex>
											<groupindex>1</groupindex>
										</link>
									</clipitem>
								</track>
							</audio>
						</media>
						<logginginfo>
							<description></description>
							<scene></scene>
							<shottake></shottake>
							<lognote></lognote>
							<good></good>
							<originalvideofilename></originalvideofilename>
							<originalaudiofilename></originalaudiofilename>
						</logginginfo>
						<colorinfo>
							<lut></lut>
							<lut1></lut1>
							<asc_sop></asc_sop>
							<asc_sat></asc_sat>
							<lut2></lut2>
						</colorinfo>
						<labels>
							<label2>Caribbean</label2>
						</labels>
					</clip>
					<clip id="masterclip-230" explodedTracks="true">
						<uuid>c9ea741a-9a07-4ea5-ae9b-b7f3661813ed</uuid>
						<masterclipid>masterclip-230</masterclipid>
						<ismasterclip>TRUE</ismasterclip>
						<duration>6370</duration>
						<rate>
							<timebase>30</timebase>
							<ntsc>TRUE</ntsc>
						</rate>
						<in>592</in>
						<out>3186</out>
						<name>ES_Party On - John Runefelt.mp3</name>
						<media>
							<audio>
								<track>
									<clipitem id="clipitem-1590">
										<masterclipid>masterclip-230</masterclipid>
										<name>ES_Party On - John Runefelt.mp3</name>
										<rate>
											<timebase>30</timebase>
											<ntsc>TRUE</ntsc>
										</rate>
										<file id="file-198"/>
										<sourcetrack>
											<mediatype>audio</mediatype>
											<trackindex>1</trackindex>
										</sourcetrack>
										<link>
											<linkclipref>clipitem-1590</linkclipref>
											<mediatype>audio</mediatype>
											<trackindex>1</trackindex>
											<clipindex>1</clipindex>
											<groupindex>1</groupindex>
										</link>
										<link>
											<linkclipref>clipitem-1591</linkclipref>
											<mediatype>audio</mediatype>
											<trackindex>2</trackindex>
											<clipindex>1</clipindex>
											<groupindex>1</groupindex>
										</link>
									</clipitem>
								</track>
								<track>
									<clipitem id="clipitem-1591">
										<masterclipid>masterclip-230</masterclipid>
										<name>ES_Party On - John Runefelt.mp3</name>
										<rate>
											<timebase>30</timebase>
											<ntsc>TRUE</ntsc>
										</rate>
										<file id="file-198"/>
										<sourcetrack>
											<mediatype>audio</mediatype>
											<trackindex>2</trackindex>
										</sourcetrack>
										<link>
											<linkclipref>clipitem-1590</linkclipref>
											<mediatype>audio</mediatype>
											<trackindex>1</trackindex>
											<clipindex>1</clipindex>
											<groupindex>1</groupindex>
										</link>
										<link>
											<linkclipref>clipitem-1591</linkclipref>
											<mediatype>audio</mediatype>
											<trackindex>2</trackindex>
											<clipindex>1</clipindex>
											<groupindex>1</groupindex>
										</link>
									</clipitem>
								</track>
							</audio>
						</media>
						<logginginfo>
							<description></description>
							<scene></scene>
							<shottake></shottake>
							<lognote></lognote>
							<good></good>
							<originalvideofilename></originalvideofilename>
							<originalaudiofilename></originalaudiofilename>
						</logginginfo>
						<colorinfo>
							<lut></lut>
							<lut1></lut1>
							<asc_sop></asc_sop>
							<asc_sat></asc_sat>
							<lut2></lut2>
						</colorinfo>
						<labels>
							<label2>Caribbean</label2>
						</labels>
					</clip>
					<clip id="masterclip-177" explodedTracks="true">
						<uuid>0c7755c7-d4b5-4321-adf7-7afd3ae2c03a</uuid>
						<masterclipid>masterclip-177</masterclipid>
						<ismasterclip>TRUE</ismasterclip>
						<duration>6889</duration>
						<rate>
							<timebase>30</timebase>
							<ntsc>TRUE</ntsc>
						</rate>
						<out>3720</out>
						<name>ES_Rhaeti - Lukas Got Lucky.mp3</name>
						<media>
							<audio>
								<track>
									<clipitem id="clipitem-1592">
										<masterclipid>masterclip-177</masterclipid>
										<name>ES_Rhaeti - Lukas Got Lucky.mp3</name>
										<rate>
											<timebase>30</timebase>
											<ntsc>TRUE</ntsc>
										</rate>
										<file id="file-153"/>
										<sourcetrack>
											<mediatype>audio</mediatype>
											<trackindex>1</trackindex>
										</sourcetrack>
										<link>
											<linkclipref>clipitem-1592</linkclipref>
											<mediatype>audio</mediatype>
											<trackindex>1</trackindex>
											<clipindex>1</clipindex>
											<groupindex>1</groupindex>
										</link>
										<link>
											<linkclipref>clipitem-1593</linkclipref>
											<mediatype>audio</mediatype>
											<trackindex>2</trackindex>
											<clipindex>1</clipindex>
											<groupindex>1</groupindex>
										</link>
									</clipitem>
								</track>
								<track>
									<clipitem id="clipitem-1593">
										<masterclipid>masterclip-177</masterclipid>
										<name>ES_Rhaeti - Lukas Got Lucky.mp3</name>
										<rate>
											<timebase>30</timebase>
											<ntsc>TRUE</ntsc>
										</rate>
										<file id="file-153"/>
										<sourcetrack>
											<mediatype>audio</mediatype>
											<trackindex>2</trackindex>
										</sourcetrack>
										<link>
											<linkclipref>clipitem-1592</linkclipref>
											<mediatype>audio</mediatype>
											<trackindex>1</trackindex>
											<clipindex>1</clipindex>
											<groupindex>1</groupindex>
										</link>
										<link>
											<linkclipref>clipitem-1593</linkclipref>
											<mediatype>audio</mediatype>
											<trackindex>2</trackindex>
											<clipindex>1</clipindex>
											<groupindex>1</groupindex>
										</link>
									</clipitem>
								</track>
							</audio>
						</media>
						<logginginfo>
							<description></description>
							<scene></scene>
							<shottake></shottake>
							<lognote></lognote>
							<good></good>
							<originalvideofilename></originalvideofilename>
							<originalaudiofilename></originalaudiofilename>
						</logginginfo>
						<colorinfo>
							<lut></lut>
							<lut1></lut1>
							<asc_sop></asc_sop>
							<asc_sat></asc_sat>
							<lut2></lut2>
						</colorinfo>
						<labels>
							<label2>Caribbean</label2>
						</labels>
					</clip>
					<clip id="masterclip-217" explodedTracks="true">
						<uuid>94a2a6b5-4f31-4836-bdd7-d8e5f94d82cd</uuid>
						<masterclipid>masterclip-217</masterclipid>
						<ismasterclip>TRUE</ismasterclip>
						<duration>7358</duration>
						<rate>
							<timebase>30</timebase>
							<ntsc>TRUE</ntsc>
						</rate>
						<out>1704</out>
						<name>ES_Misty K-pop Night - Rymdklang Soundtracks.mp3</name>
						<media>
							<audio>
								<track>
									<clipitem id="clipitem-1594">
										<masterclipid>masterclip-217</masterclipid>
										<name>ES_Misty K-pop Night - Rymdklang Soundtracks.mp3</name>
										<rate>
											<timebase>30</timebase>
											<ntsc>TRUE</ntsc>
										</rate>
										<file id="file-187"/>
										<sourcetrack>
											<mediatype>audio</mediatype>
											<trackindex>1</trackindex>
										</sourcetrack>
										<link>
											<linkclipref>clipitem-1594</linkclipref>
											<mediatype>audio</mediatype>
											<trackindex>1</trackindex>
											<clipindex>1</clipindex>
											<groupindex>1</groupindex>
										</link>
										<link>
											<linkclipref>clipitem-1595</linkclipref>
											<mediatype>audio</mediatype>
											<trackindex>2</trackindex>
											<clipindex>1</clipindex>
											<groupindex>1</groupindex>
										</link>
									</clipitem>
								</track>
								<track>
									<clipitem id="clipitem-1595">
										<masterclipid>masterclip-217</masterclipid>
										<name>ES_Misty K-pop Night - Rymdklang Soundtracks.mp3</name>
										<rate>
											<timebase>30</timebase>
											<ntsc>TRUE</ntsc>
										</rate>
										<file id="file-187"/>
										<sourcetrack>
											<mediatype>audio</mediatype>
											<trackindex>2</trackindex>
										</sourcetrack>
										<link>
											<linkclipref>clipitem-1594</linkclipref>
											<mediatype>audio</mediatype>
											<trackindex>1</trackindex>
											<clipindex>1</clipindex>
											<groupindex>1</groupindex>
										</link>
										<link>
											<linkclipref>clipitem-1595</linkclipref>
											<mediatype>audio</mediatype>
											<trackindex>2</trackindex>
											<clipindex>1</clipindex>
											<groupindex>1</groupindex>
										</link>
									</clipitem>
								</track>
							</audio>
						</media>
						<logginginfo>
							<description></description>
							<scene></scene>
							<shottake></shottake>
							<lognote></lognote>
							<good></good>
							<originalvideofilename></originalvideofilename>
							<originalaudiofilename></originalaudiofilename>
						</logginginfo>
						<colorinfo>
							<lut></lut>
							<lut1></lut1>
							<asc_sop></asc_sop>
							<asc_sat></asc_sat>
							<lut2></lut2>
						</colorinfo>
						<labels>
							<label2>Caribbean</label2>
						</labels>
					</clip>
					<clip id="masterclip-171" explodedTracks="true">
						<uuid>10522497-7ecc-4731-9fbd-a40209afd9b9</uuid>
						<masterclipid>masterclip-171</masterclipid>
						<ismasterclip>TRUE</ismasterclip>
						<duration>4026</duration>
						<rate>
							<timebase>30</timebase>
							<ntsc>TRUE</ntsc>
						</rate>
						<out>1437</out>
						<name>ES_Project Bulow - Lukas Got Lucky.mp3</name>
						<media>
							<audio>
								<track>
									<clipitem id="clipitem-1596">
										<masterclipid>masterclip-171</masterclipid>
										<name>ES_Project Bulow - Lukas Got Lucky.mp3</name>
										<rate>
											<timebase>30</timebase>
											<ntsc>TRUE</ntsc>
										</rate>
										<file id="file-148"/>
										<sourcetrack>
											<mediatype>audio</mediatype>
											<trackindex>1</trackindex>
										</sourcetrack>
										<link>
											<linkclipref>clipitem-1596</linkclipref>
											<mediatype>audio</mediatype>
											<trackindex>1</trackindex>
											<clipindex>1</clipindex>
											<groupindex>1</groupindex>
										</link>
										<link>
											<linkclipref>clipitem-1597</linkclipref>
											<mediatype>audio</mediatype>
											<trackindex>2</trackindex>
											<clipindex>1</clipindex>
											<groupindex>1</groupindex>
										</link>
									</clipitem>
								</track>
								<track>
									<clipitem id="clipitem-1597">
										<masterclipid>masterclip-171</masterclipid>
										<name>ES_Project Bulow - Lukas Got Lucky.mp3</name>
										<rate>
											<timebase>30</timebase>
											<ntsc>TRUE</ntsc>
										</rate>
										<file id="file-148"/>
										<sourcetrack>
											<mediatype>audio</mediatype>
											<trackindex>2</trackindex>
										</sourcetrack>
										<link>
											<linkclipref>clipitem-1596</linkclipref>
											<mediatype>audio</mediatype>
											<trackindex>1</trackindex>
											<clipindex>1</clipindex>
											<groupindex>1</groupindex>
										</link>
										<link>
											<linkclipref>clipitem-1597</linkclipref>
											<mediatype>audio</mediatype>
											<trackindex>2</trackindex>
											<clipindex>1</clipindex>
											<groupindex>1</groupindex>
										</link>
									</clipitem>
								</track>
							</audio>
						</media>
						<logginginfo>
							<description></description>
							<scene></scene>
							<shottake></shottake>
							<lognote></lognote>
							<good></good>
							<originalvideofilename></originalvideofilename>
							<originalaudiofilename></originalaudiofilename>
						</logginginfo>
						<colorinfo>
							<lut></lut>
							<lut1></lut1>
							<asc_sop></asc_sop>
							<asc_sat></asc_sat>
							<lut2></lut2>
						</colorinfo>
						<labels>
							<label2>Caribbean</label2>
						</labels>
					</clip>
					<clip id="masterclip-157" explodedTracks="true">
						<uuid>9cc180a2-0199-47bd-ac0c-e1e66cbbf813</uuid>
						<masterclipid>masterclip-157</masterclipid>
						<ismasterclip>TRUE</ismasterclip>
						<duration>5769</duration>
						<rate>
							<timebase>30</timebase>
							<ntsc>TRUE</ntsc>
						</rate>
						<out>2607</out>
						<name>ES_Faster Car (Sped Up Version) (Instrumental Version) - Loving Caliber.wav</name>
						<media>
							<audio>
								<track>
									<clipitem id="clipitem-1598">
										<masterclipid>masterclip-157</masterclipid>
										<name>ES_Faster Car (Sped Up Version) (Instrumental Version) - Loving Caliber.wav</name>
										<rate>
											<timebase>30</timebase>
											<ntsc>TRUE</ntsc>
										</rate>
										<file id="file-135"/>
										<sourcetrack>
											<mediatype>audio</mediatype>
											<trackindex>1</trackindex>
										</sourcetrack>
										<link>
											<linkclipref>clipitem-1598</linkclipref>
											<mediatype>audio</mediatype>
											<trackindex>1</trackindex>
											<clipindex>1</clipindex>
											<groupindex>1</groupindex>
										</link>
										<link>
											<linkclipref>clipitem-1599</linkclipref>
											<mediatype>audio</mediatype>
											<trackindex>2</trackindex>
											<clipindex>1</clipindex>
											<groupindex>1</groupindex>
										</link>
									</clipitem>
								</track>
								<track>
									<clipitem id="clipitem-1599">
										<masterclipid>masterclip-157</masterclipid>
										<name>ES_Faster Car (Sped Up Version) (Instrumental Version) - Loving Caliber.wav</name>
										<rate>
											<timebase>30</timebase>
											<ntsc>TRUE</ntsc>
										</rate>
										<file id="file-135"/>
										<sourcetrack>
											<mediatype>audio</mediatype>
											<trackindex>2</trackindex>
										</sourcetrack>
										<link>
											<linkclipref>clipitem-1598</linkclipref>
											<mediatype>audio</mediatype>
											<trackindex>1</trackindex>
											<clipindex>1</clipindex>
											<groupindex>1</groupindex>
										</link>
										<link>
											<linkclipref>clipitem-1599</linkclipref>
											<mediatype>audio</mediatype>
											<trackindex>2</trackindex>
											<clipindex>1</clipindex>
											<groupindex>1</groupindex>
										</link>
									</clipitem>
								</track>
							</audio>
						</media>
						<logginginfo>
							<description></description>
							<scene></scene>
							<shottake></shottake>
							<lognote></lognote>
							<good></good>
							<originalvideofilename></originalvideofilename>
							<originalaudiofilename></originalaudiofilename>
						</logginginfo>
						<colorinfo>
							<lut></lut>
							<lut1></lut1>
							<asc_sop></asc_sop>
							<asc_sat></asc_sat>
							<lut2></lut2>
						</colorinfo>
						<labels>
							<label2>Caribbean</label2>
						</labels>
					</clip>
					<clip id="masterclip-290" explodedTracks="true">
						<uuid>7751e643-eaf7-4641-9eda-fffc0207d955</uuid>
						<masterclipid>masterclip-290</masterclipid>
						<ismasterclip>TRUE</ismasterclip>
						<duration>6953</duration>
						<rate>
							<timebase>30</timebase>
							<ntsc>TRUE</ntsc>
						</rate>
						<out>2270</out>
						<name>ES_Arm Pillow (Instrumental Version) - Collin Lim.mp3</name>
						<media>
							<audio>
								<track>
									<clipitem id="clipitem-1600">
										<masterclipid>masterclip-290</masterclipid>
										<name>ES_Arm Pillow (Instrumental Version) - Collin Lim.mp3</name>
										<rate>
											<timebase>30</timebase>
											<ntsc>TRUE</ntsc>
										</rate>
										<file id="file-254">
											<name>ES_Arm Pillow (Instrumental Version) - Collin Lim.mp3</name>
											<pathurl>file://localhost/Volumes/ATM%201/EYE%20CANDY/8%3a14%3a23/5_Assets/Music/ES_Arm%20Pillow%20(Instrumental%20Version)%20-%20Collin%20Lim.mp3</pathurl>
											<rate>
												<timebase>30</timebase>
												<ntsc>TRUE</ntsc>
											</rate>
											<duration>6953</duration>
											<timecode>
												<rate>
													<timebase>30</timebase>
													<ntsc>TRUE</ntsc>
												</rate>
												<string>00;00;00;00</string>
												<frame>0</frame>
												<displayformat>DF</displayformat>
											</timecode>
											<media>
												<audio>
													<samplecharacteristics>
														<depth>16</depth>
														<samplerate>48000</samplerate>
													</samplecharacteristics>
													<channelcount>2</channelcount>
												</audio>
											</media>
										</file>
										<sourcetrack>
											<mediatype>audio</mediatype>
											<trackindex>1</trackindex>
										</sourcetrack>
										<link>
											<linkclipref>clipitem-1600</linkclipref>
											<mediatype>audio</mediatype>
											<trackindex>1</trackindex>
											<clipindex>1</clipindex>
											<groupindex>1</groupindex>
										</link>
										<link>
											<linkclipref>clipitem-1601</linkclipref>
											<mediatype>audio</mediatype>
											<trackindex>2</trackindex>
											<clipindex>1</clipindex>
											<groupindex>1</groupindex>
										</link>
									</clipitem>
								</track>
								<track>
									<clipitem id="clipitem-1601">
										<masterclipid>masterclip-290</masterclipid>
										<name>ES_Arm Pillow (Instrumental Version) - Collin Lim.mp3</name>
										<rate>
											<timebase>30</timebase>
											<ntsc>TRUE</ntsc>
										</rate>
										<file id="file-254"/>
										<sourcetrack>
											<mediatype>audio</mediatype>
											<trackindex>2</trackindex>
										</sourcetrack>
										<link>
											<linkclipref>clipitem-1600</linkclipref>
											<mediatype>audio</mediatype>
											<trackindex>1</trackindex>
											<clipindex>1</clipindex>
											<groupindex>1</groupindex>
										</link>
										<link>
											<linkclipref>clipitem-1601</linkclipref>
											<mediatype>audio</mediatype>
											<trackindex>2</trackindex>
											<clipindex>1</clipindex>
											<groupindex>1</groupindex>
										</link>
									</clipitem>
								</track>
							</audio>
						</media>
						<logginginfo>
							<description></description>
							<scene></scene>
							<shottake></shottake>
							<lognote></lognote>
							<good></good>
							<originalvideofilename></originalvideofilename>
							<originalaudiofilename></originalaudiofilename>
						</logginginfo>
						<colorinfo>
							<lut></lut>
							<lut1></lut1>
							<asc_sop></asc_sop>
							<asc_sat></asc_sat>
							<lut2></lut2>
						</colorinfo>
						<labels>
							<label2>Caribbean</label2>
						</labels>
					</clip>
					<clip id="masterclip-223" explodedTracks="true">
						<uuid>ed56e5e1-0770-4b03-8be1-904160e83cd2</uuid>
						<masterclipid>masterclip-223</masterclipid>
						<ismasterclip>TRUE</ismasterclip>
						<duration>6246</duration>
						<rate>
							<timebase>30</timebase>
							<ntsc>TRUE</ntsc>
						</rate>
						<out>2609</out>
						<name>ES_Sunset Fever - Forever Sunset.mp3</name>
						<media>
							<audio>
								<track>
									<clipitem id="clipitem-1602">
										<masterclipid>masterclip-223</masterclipid>
										<name>ES_Sunset Fever - Forever Sunset.mp3</name>
										<rate>
											<timebase>30</timebase>
											<ntsc>TRUE</ntsc>
										</rate>
										<file id="file-192"/>
										<sourcetrack>
											<mediatype>audio</mediatype>
											<trackindex>1</trackindex>
										</sourcetrack>
										<link>
											<linkclipref>clipitem-1602</linkclipref>
											<mediatype>audio</mediatype>
											<trackindex>1</trackindex>
											<clipindex>1</clipindex>
											<groupindex>1</groupindex>
										</link>
										<link>
											<linkclipref>clipitem-1603</linkclipref>
											<mediatype>audio</mediatype>
											<trackindex>2</trackindex>
											<clipindex>1</clipindex>
											<groupindex>1</groupindex>
										</link>
									</clipitem>
								</track>
								<track>
									<clipitem id="clipitem-1603">
										<masterclipid>masterclip-223</masterclipid>
										<name>ES_Sunset Fever - Forever Sunset.mp3</name>
										<rate>
											<timebase>30</timebase>
											<ntsc>TRUE</ntsc>
										</rate>
										<file id="file-192"/>
										<sourcetrack>
											<mediatype>audio</mediatype>
											<trackindex>2</trackindex>
										</sourcetrack>
										<link>
											<linkclipref>clipitem-1602</linkclipref>
											<mediatype>audio</mediatype>
											<trackindex>1</trackindex>
											<clipindex>1</clipindex>
											<groupindex>1</groupindex>
										</link>
										<link>
											<linkclipref>clipitem-1603</linkclipref>
											<mediatype>audio</mediatype>
											<trackindex>2</trackindex>
											<clipindex>1</clipindex>
											<groupindex>1</groupindex>
										</link>
									</clipitem>
								</track>
							</audio>
						</media>
						<logginginfo>
							<description></description>
							<scene></scene>
							<shottake></shottake>
							<lognote></lognote>
							<good></good>
							<originalvideofilename></originalvideofilename>
							<originalaudiofilename></originalaudiofilename>
						</logginginfo>
						<colorinfo>
							<lut></lut>
							<lut1></lut1>
							<asc_sop></asc_sop>
							<asc_sat></asc_sat>
							<lut2></lut2>
						</colorinfo>
						<labels>
							<label2>Caribbean</label2>
						</labels>
					</clip>
					<clip id="masterclip-15" explodedTracks="true">
						<uuid>1f5ebff3-374f-4084-bfe5-f3759e6ee09c</uuid>
						<masterclipid>masterclip-15</masterclipid>
						<ismasterclip>TRUE</ismasterclip>
						<duration>5474</duration>
						<rate>
							<timebase>30</timebase>
							<ntsc>TRUE</ntsc>
						</rate>
						<out>3055</out>
						<name>ES_Violent Heart (Instrumental Version) - Torii Wolf.mp3</name>
						<media>
							<audio>
								<track>
									<clipitem id="clipitem-1604">
										<masterclipid>masterclip-15</masterclipid>
										<name>ES_Violent Heart (Instrumental Version) - Torii Wolf.mp3</name>
										<rate>
											<timebase>30</timebase>
											<ntsc>TRUE</ntsc>
										</rate>
										<file id="file-13"/>
										<sourcetrack>
											<mediatype>audio</mediatype>
											<trackindex>1</trackindex>
										</sourcetrack>
										<link>
											<linkclipref>clipitem-1604</linkclipref>
											<mediatype>audio</mediatype>
											<trackindex>1</trackindex>
											<clipindex>1</clipindex>
											<groupindex>1</groupindex>
										</link>
										<link>
											<linkclipref>clipitem-1605</linkclipref>
											<mediatype>audio</mediatype>
											<trackindex>2</trackindex>
											<clipindex>1</clipindex>
											<groupindex>1</groupindex>
										</link>
									</clipitem>
								</track>
								<track>
									<clipitem id="clipitem-1605">
										<masterclipid>masterclip-15</masterclipid>
										<name>ES_Violent Heart (Instrumental Version) - Torii Wolf.mp3</name>
										<rate>
											<timebase>30</timebase>
											<ntsc>TRUE</ntsc>
										</rate>
										<file id="file-13"/>
										<sourcetrack>
											<mediatype>audio</mediatype>
											<trackindex>2</trackindex>
										</sourcetrack>
										<link>
											<linkclipref>clipitem-1604</linkclipref>
											<mediatype>audio</mediatype>
											<trackindex>1</trackindex>
											<clipindex>1</clipindex>
											<groupindex>1</groupindex>
										</link>
										<link>
											<linkclipref>clipitem-1605</linkclipref>
											<mediatype>audio</mediatype>
											<trackindex>2</trackindex>
											<clipindex>1</clipindex>
											<groupindex>1</groupindex>
										</link>
									</clipitem>
								</track>
							</audio>
						</media>
						<logginginfo>
							<description></description>
							<scene></scene>
							<shottake></shottake>
							<lognote></lognote>
							<good></good>
							<originalvideofilename></originalvideofilename>
							<originalaudiofilename></originalaudiofilename>
						</logginginfo>
						<colorinfo>
							<lut></lut>
							<lut1></lut1>
							<asc_sop></asc_sop>
							<asc_sat></asc_sat>
							<lut2></lut2>
						</colorinfo>
						<labels>
							<label2>Caribbean</label2>
						</labels>
					</clip>
					<clip id="masterclip-151" explodedTracks="true">
						<uuid>0247cd68-3c0e-4d07-9185-18583fdf3411</uuid>
						<masterclipid>masterclip-151</masterclipid>
						<ismasterclip>TRUE</ismasterclip>
						<duration>5648</duration>
						<rate>
							<timebase>30</timebase>
							<ntsc>TRUE</ntsc>
						</rate>
						<out>2514</out>
						<name>ES_Delicate - Ben Elson.mp3</name>
						<media>
							<audio>
								<track>
									<clipitem id="clipitem-1606">
										<masterclipid>masterclip-151</masterclipid>
										<name>ES_Delicate - Ben Elson.mp3</name>
										<rate>
											<timebase>30</timebase>
											<ntsc>TRUE</ntsc>
										</rate>
										<file id="file-130"/>
										<sourcetrack>
											<mediatype>audio</mediatype>
											<trackindex>1</trackindex>
										</sourcetrack>
										<link>
											<linkclipref>clipitem-1606</linkclipref>
											<mediatype>audio</mediatype>
											<trackindex>1</trackindex>
											<clipindex>1</clipindex>
											<groupindex>1</groupindex>
										</link>
										<link>
											<linkclipref>clipitem-1607</linkclipref>
											<mediatype>audio</mediatype>
											<trackindex>2</trackindex>
											<clipindex>1</clipindex>
											<groupindex>1</groupindex>
										</link>
									</clipitem>
								</track>
								<track>
									<clipitem id="clipitem-1607">
										<masterclipid>masterclip-151</masterclipid>
										<name>ES_Delicate - Ben Elson.mp3</name>
										<rate>
											<timebase>30</timebase>
											<ntsc>TRUE</ntsc>
										</rate>
										<file id="file-130"/>
										<sourcetrack>
											<mediatype>audio</mediatype>
											<trackindex>2</trackindex>
										</sourcetrack>
										<link>
											<linkclipref>clipitem-1606</linkclipref>
											<mediatype>audio</mediatype>
											<trackindex>1</trackindex>
											<clipindex>1</clipindex>
											<groupindex>1</groupindex>
										</link>
										<link>
											<linkclipref>clipitem-1607</linkclipref>
											<mediatype>audio</mediatype>
											<trackindex>2</trackindex>
											<clipindex>1</clipindex>
											<groupindex>1</groupindex>
										</link>
									</clipitem>
								</track>
							</audio>
						</media>
						<logginginfo>
							<description></description>
							<scene></scene>
							<shottake></shottake>
							<lognote></lognote>
							<good></good>
							<originalvideofilename></originalvideofilename>
							<originalaudiofilename></originalaudiofilename>
						</logginginfo>
						<colorinfo>
							<lut></lut>
							<lut1></lut1>
							<asc_sop></asc_sop>
							<asc_sat></asc_sat>
							<lut2></lut2>
						</colorinfo>
						<labels>
							<label2>Caribbean</label2>
						</labels>
					</clip>
					<clip id="masterclip-28" explodedTracks="true">
						<uuid>d2098158-803d-44cc-9506-f6d8fea47a22</uuid>
						<masterclipid>masterclip-28</masterclipid>
						<ismasterclip>TRUE</ismasterclip>
						<duration>5349</duration>
						<rate>
							<timebase>30</timebase>
							<ntsc>TRUE</ntsc>
						</rate>
						<out>1874</out>
						<name>ES_paint him in 3d (Instrumental Version) - Ingrid Witt.mp3</name>
						<media>
							<audio>
								<track>
									<clipitem id="clipitem-1608">
										<masterclipid>masterclip-28</masterclipid>
										<name>ES_paint him in 3d (Instrumental Version) - Ingrid Witt.mp3</name>
										<rate>
											<timebase>30</timebase>
											<ntsc>TRUE</ntsc>
										</rate>
										<file id="file-22"/>
										<sourcetrack>
											<mediatype>audio</mediatype>
											<trackindex>1</trackindex>
										</sourcetrack>
										<link>
											<linkclipref>clipitem-1608</linkclipref>
											<mediatype>audio</mediatype>
											<trackindex>1</trackindex>
											<clipindex>1</clipindex>
											<groupindex>1</groupindex>
										</link>
										<link>
											<linkclipref>clipitem-1609</linkclipref>
											<mediatype>audio</mediatype>
											<trackindex>2</trackindex>
											<clipindex>1</clipindex>
											<groupindex>1</groupindex>
										</link>
									</clipitem>
								</track>
								<track>
									<clipitem id="clipitem-1609">
										<masterclipid>masterclip-28</masterclipid>
										<name>ES_paint him in 3d (Instrumental Version) - Ingrid Witt.mp3</name>
										<rate>
											<timebase>30</timebase>
											<ntsc>TRUE</ntsc>
										</rate>
										<file id="file-22"/>
										<sourcetrack>
											<mediatype>audio</mediatype>
											<trackindex>2</trackindex>
										</sourcetrack>
										<link>
											<linkclipref>clipitem-1608</linkclipref>
											<mediatype>audio</mediatype>
											<trackindex>1</trackindex>
											<clipindex>1</clipindex>
											<groupindex>1</groupindex>
										</link>
										<link>
											<linkclipref>clipitem-1609</linkclipref>
											<mediatype>audio</mediatype>
											<trackindex>2</trackindex>
											<clipindex>1</clipindex>
											<groupindex>1</groupindex>
										</link>
									</clipitem>
								</track>
							</audio>
						</media>
						<logginginfo>
							<description></description>
							<scene></scene>
							<shottake></shottake>
							<lognote></lognote>
							<good></good>
							<originalvideofilename></originalvideofilename>
							<originalaudiofilename></originalaudiofilename>
						</logginginfo>
						<colorinfo>
							<lut></lut>
							<lut1></lut1>
							<asc_sop></asc_sop>
							<asc_sat></asc_sat>
							<lut2></lut2>
						</colorinfo>
						<labels>
							<label2>Caribbean</label2>
						</labels>
					</clip>
					<clip id="masterclip-210" explodedTracks="true">
						<uuid>feb8b3e6-bf7c-48a0-85a5-e5f418760fd1</uuid>
						<masterclipid>masterclip-210</masterclipid>
						<ismasterclip>TRUE</ismasterclip>
						<duration>5289</duration>
						<rate>
							<timebase>30</timebase>
							<ntsc>TRUE</ntsc>
						</rate>
						<out>3509</out>
						<name>ES_new in the neighbourhood (Instrumental Version) - Ingrid Witt.mp3</name>
						<media>
							<audio>
								<track>
									<clipitem id="clipitem-1610">
										<masterclipid>masterclip-210</masterclipid>
										<name>ES_new in the neighbourhood (Instrumental Version) - Ingrid Witt.mp3</name>
										<rate>
											<timebase>30</timebase>
											<ntsc>TRUE</ntsc>
										</rate>
										<file id="file-181"/>
										<sourcetrack>
											<mediatype>audio</mediatype>
											<trackindex>1</trackindex>
										</sourcetrack>
										<link>
											<linkclipref>clipitem-1610</linkclipref>
											<mediatype>audio</mediatype>
											<trackindex>1</trackindex>
											<clipindex>1</clipindex>
											<groupindex>1</groupindex>
										</link>
										<link>
											<linkclipref>clipitem-1611</linkclipref>
											<mediatype>audio</mediatype>
											<trackindex>2</trackindex>
											<clipindex>1</clipindex>
											<groupindex>1</groupindex>
										</link>
									</clipitem>
								</track>
								<track>
									<clipitem id="clipitem-1611">
										<masterclipid>masterclip-210</masterclipid>
										<name>ES_new in the neighbourhood (Instrumental Version) - Ingrid Witt.mp3</name>
										<rate>
											<timebase>30</timebase>
											<ntsc>TRUE</ntsc>
										</rate>
										<file id="file-181"/>
										<sourcetrack>
											<mediatype>audio</mediatype>
											<trackindex>2</trackindex>
										</sourcetrack>
										<link>
											<linkclipref>clipitem-1610</linkclipref>
											<mediatype>audio</mediatype>
											<trackindex>1</trackindex>
											<clipindex>1</clipindex>
											<groupindex>1</groupindex>
										</link>
										<link>
											<linkclipref>clipitem-1611</linkclipref>
											<mediatype>audio</mediatype>
											<trackindex>2</trackindex>
											<clipindex>1</clipindex>
											<groupindex>1</groupindex>
										</link>
									</clipitem>
								</track>
							</audio>
						</media>
						<logginginfo>
							<description></description>
							<scene></scene>
							<shottake></shottake>
							<lognote></lognote>
							<good></good>
							<originalvideofilename></originalvideofilename>
							<originalaudiofilename></originalaudiofilename>
						</logginginfo>
						<colorinfo>
							<lut></lut>
							<lut1></lut1>
							<asc_sop></asc_sop>
							<asc_sat></asc_sat>
							<lut2></lut2>
						</colorinfo>
						<labels>
							<label2>Caribbean</label2>
						</labels>
					</clip>
					<clip id="masterclip-37" explodedTracks="true">
						<uuid>96d4798f-cffa-4d3e-8e8f-0f523f5dbbc9</uuid>
						<masterclipid>masterclip-37</masterclipid>
						<ismasterclip>TRUE</ismasterclip>
						<duration>5147</duration>
						<rate>
							<timebase>30</timebase>
							<ntsc>TRUE</ntsc>
						</rate>
						<out>3595</out>
						<name>ES_Getting Lost - Lupus Nocte.mp3</name>
						<media>
							<audio>
								<track>
									<clipitem id="clipitem-1612">
										<masterclipid>masterclip-37</masterclipid>
										<name>ES_Getting Lost - Lupus Nocte.mp3</name>
										<rate>
											<timebase>30</timebase>
											<ntsc>TRUE</ntsc>
										</rate>
										<file id="file-30"/>
										<sourcetrack>
											<mediatype>audio</mediatype>
											<trackindex>1</trackindex>
										</sourcetrack>
										<link>
											<linkclipref>clipitem-1612</linkclipref>
											<mediatype>audio</mediatype>
											<trackindex>1</trackindex>
											<clipindex>1</clipindex>
											<groupindex>1</groupindex>
										</link>
										<link>
											<linkclipref>clipitem-1613</linkclipref>
											<mediatype>audio</mediatype>
											<trackindex>2</trackindex>
											<clipindex>1</clipindex>
											<groupindex>1</groupindex>
										</link>
									</clipitem>
								</track>
								<track>
									<clipitem id="clipitem-1613">
										<masterclipid>masterclip-37</masterclipid>
										<name>ES_Getting Lost - Lupus Nocte.mp3</name>
										<rate>
											<timebase>30</timebase>
											<ntsc>TRUE</ntsc>
										</rate>
										<file id="file-30"/>
										<sourcetrack>
											<mediatype>audio</mediatype>
											<trackindex>2</trackindex>
										</sourcetrack>
										<link>
											<linkclipref>clipitem-1612</linkclipref>
											<mediatype>audio</mediatype>
											<trackindex>1</trackindex>
											<clipindex>1</clipindex>
											<groupindex>1</groupindex>
										</link>
										<link>
											<linkclipref>clipitem-1613</linkclipref>
											<mediatype>audio</mediatype>
											<trackindex>2</trackindex>
											<clipindex>1</clipindex>
											<groupindex>1</groupindex>
										</link>
									</clipitem>
								</track>
							</audio>
						</media>
						<logginginfo>
							<description></description>
							<scene></scene>
							<shottake></shottake>
							<lognote></lognote>
							<good></good>
							<originalvideofilename></originalvideofilename>
							<originalaudiofilename></originalaudiofilename>
						</logginginfo>
						<colorinfo>
							<lut></lut>
							<lut1></lut1>
							<asc_sop></asc_sop>
							<asc_sat></asc_sat>
							<lut2></lut2>
						</colorinfo>
						<labels>
							<label2>Caribbean</label2>
						</labels>
					</clip>
					<clip id="masterclip-7" explodedTracks="true">
						<uuid>8047c3ed-1d46-4e55-87cb-3ca3e14f28b4</uuid>
						<masterclipid>masterclip-7</masterclipid>
						<ismasterclip>TRUE</ismasterclip>
						<duration>5704</duration>
						<rate>
							<timebase>30</timebase>
							<ntsc>TRUE</ntsc>
						</rate>
						<out>1462</out>
						<name>ES_Welcome Party People - John Runefelt.mp3</name>
						<media>
							<audio>
								<track>
									<clipitem id="clipitem-1614">
										<masterclipid>masterclip-7</masterclipid>
										<name>ES_Welcome Party People - John Runefelt.mp3</name>
										<rate>
											<timebase>30</timebase>
											<ntsc>TRUE</ntsc>
										</rate>
										<file id="file-6"/>
										<sourcetrack>
											<mediatype>audio</mediatype>
											<trackindex>1</trackindex>
										</sourcetrack>
										<link>
											<linkclipref>clipitem-1614</linkclipref>
											<mediatype>audio</mediatype>
											<trackindex>1</trackindex>
											<clipindex>1</clipindex>
											<groupindex>1</groupindex>
										</link>
										<link>
											<linkclipref>clipitem-1615</linkclipref>
											<mediatype>audio</mediatype>
											<trackindex>2</trackindex>
											<clipindex>1</clipindex>
											<groupindex>1</groupindex>
										</link>
									</clipitem>
								</track>
								<track>
									<clipitem id="clipitem-1615">
										<masterclipid>masterclip-7</masterclipid>
										<name>ES_Welcome Party People - John Runefelt.mp3</name>
										<rate>
											<timebase>30</timebase>
											<ntsc>TRUE</ntsc>
										</rate>
										<file id="file-6"/>
										<sourcetrack>
											<mediatype>audio</mediatype>
											<trackindex>2</trackindex>
										</sourcetrack>
										<link>
											<linkclipref>clipitem-1614</linkclipref>
											<mediatype>audio</mediatype>
											<trackindex>1</trackindex>
											<clipindex>1</clipindex>
											<groupindex>1</groupindex>
										</link>
										<link>
											<linkclipref>clipitem-1615</linkclipref>
											<mediatype>audio</mediatype>
											<trackindex>2</trackindex>
											<clipindex>1</clipindex>
											<groupindex>1</groupindex>
										</link>
									</clipitem>
								</track>
							</audio>
						</media>
						<logginginfo>
							<description></description>
							<scene></scene>
							<shottake></shottake>
							<lognote></lognote>
							<good></good>
							<originalvideofilename></originalvideofilename>
							<originalaudiofilename></originalaudiofilename>
						</logginginfo>
						<colorinfo>
							<lut></lut>
							<lut1></lut1>
							<asc_sop></asc_sop>
							<asc_sat></asc_sat>
							<lut2></lut2>
						</colorinfo>
						<labels>
							<label2>Caribbean</label2>
						</labels>
					</clip>
					<clip id="masterclip-76" explodedTracks="true">
						<uuid>46a0b6d7-568a-483b-9f97-0c728195d937</uuid>
						<masterclipid>masterclip-76</masterclipid>
						<ismasterclip>TRUE</ismasterclip>
						<duration>6532</duration>
						<rate>
							<timebase>30</timebase>
							<ntsc>TRUE</ntsc>
						</rate>
						<out>3825</out>
						<name>ES_Why Not_ - Victor Lundberg.mp3</name>
						<media>
							<audio>
								<track>
									<clipitem id="clipitem-1616">
										<masterclipid>masterclip-76</masterclipid>
										<name>ES_Why Not_ - Victor Lundberg.mp3</name>
										<rate>
											<timebase>30</timebase>
											<ntsc>TRUE</ntsc>
										</rate>
										<file id="file-64"/>
										<sourcetrack>
											<mediatype>audio</mediatype>
											<trackindex>1</trackindex>
										</sourcetrack>
										<link>
											<linkclipref>clipitem-1616</linkclipref>
											<mediatype>audio</mediatype>
											<trackindex>1</trackindex>
											<clipindex>1</clipindex>
											<groupindex>1</groupindex>
										</link>
										<link>
											<linkclipref>clipitem-1617</linkclipref>
											<mediatype>audio</mediatype>
											<trackindex>2</trackindex>
											<clipindex>1</clipindex>
											<groupindex>1</groupindex>
										</link>
									</clipitem>
								</track>
								<track>
									<clipitem id="clipitem-1617">
										<masterclipid>masterclip-76</masterclipid>
										<name>ES_Why Not_ - Victor Lundberg.mp3</name>
										<rate>
											<timebase>30</timebase>
											<ntsc>TRUE</ntsc>
										</rate>
										<file id="file-64"/>
										<sourcetrack>
											<mediatype>audio</mediatype>
											<trackindex>2</trackindex>
										</sourcetrack>
										<link>
											<linkclipref>clipitem-1616</linkclipref>
											<mediatype>audio</mediatype>
											<trackindex>1</trackindex>
											<clipindex>1</clipindex>
											<groupindex>1</groupindex>
										</link>
										<link>
											<linkclipref>clipitem-1617</linkclipref>
											<mediatype>audio</mediatype>
											<trackindex>2</trackindex>
											<clipindex>1</clipindex>
											<groupindex>1</groupindex>
										</link>
									</clipitem>
								</track>
							</audio>
						</media>
						<logginginfo>
							<description></description>
							<scene></scene>
							<shottake></shottake>
							<lognote></lognote>
							<good></good>
							<originalvideofilename></originalvideofilename>
							<originalaudiofilename></originalaudiofilename>
						</logginginfo>
						<colorinfo>
							<lut></lut>
							<lut1></lut1>
							<asc_sop></asc_sop>
							<asc_sat></asc_sat>
							<lut2></lut2>
						</colorinfo>
						<labels>
							<label2>Caribbean</label2>
						</labels>
					</clip>
					<clip id="masterclip-66" explodedTracks="true">
						<uuid>82b693c4-bc89-4c05-abb0-ef45247504fc</uuid>
						<masterclipid>masterclip-66</masterclipid>
						<ismasterclip>TRUE</ismasterclip>
						<duration>4644</duration>
						<rate>
							<timebase>30</timebase>
							<ntsc>TRUE</ntsc>
						</rate>
						<out>3566</out>
						<name>ES_Arcadewave - Lupus Nocte.mp3</name>
						<media>
							<audio>
								<track>
									<clipitem id="clipitem-1618">
										<masterclipid>masterclip-66</masterclipid>
										<name>ES_Arcadewave - Lupus Nocte.mp3</name>
										<rate>
											<timebase>30</timebase>
											<ntsc>TRUE</ntsc>
										</rate>
										<file id="file-55"/>
										<sourcetrack>
											<mediatype>audio</mediatype>
											<trackindex>1</trackindex>
										</sourcetrack>
										<link>
											<linkclipref>clipitem-1618</linkclipref>
											<mediatype>audio</mediatype>
											<trackindex>1</trackindex>
											<clipindex>1</clipindex>
											<groupindex>1</groupindex>
										</link>
										<link>
											<linkclipref>clipitem-1619</linkclipref>
											<mediatype>audio</mediatype>
											<trackindex>2</trackindex>
											<clipindex>1</clipindex>
											<groupindex>1</groupindex>
										</link>
									</clipitem>
								</track>
								<track>
									<clipitem id="clipitem-1619">
										<masterclipid>masterclip-66</masterclipid>
										<name>ES_Arcadewave - Lupus Nocte.mp3</name>
										<rate>
											<timebase>30</timebase>
											<ntsc>TRUE</ntsc>
										</rate>
										<file id="file-55"/>
										<sourcetrack>
											<mediatype>audio</mediatype>
											<trackindex>2</trackindex>
										</sourcetrack>
										<link>
											<linkclipref>clipitem-1618</linkclipref>
											<mediatype>audio</mediatype>
											<trackindex>1</trackindex>
											<clipindex>1</clipindex>
											<groupindex>1</groupindex>
										</link>
										<link>
											<linkclipref>clipitem-1619</linkclipref>
											<mediatype>audio</mediatype>
											<trackindex>2</trackindex>
											<clipindex>1</clipindex>
											<groupindex>1</groupindex>
										</link>
									</clipitem>
								</track>
							</audio>
						</media>
						<logginginfo>
							<description></description>
							<scene></scene>
							<shottake></shottake>
							<lognote></lognote>
							<good></good>
							<originalvideofilename></originalvideofilename>
							<originalaudiofilename></originalaudiofilename>
						</logginginfo>
						<colorinfo>
							<lut></lut>
							<lut1></lut1>
							<asc_sop></asc_sop>
							<asc_sat></asc_sat>
							<lut2></lut2>
						</colorinfo>
						<labels>
							<label2>Caribbean</label2>
						</labels>
					</clip>
					<clip id="masterclip-291" explodedTracks="true">
						<uuid>23472ee2-3ee6-43f9-83a9-01d5b79bc297</uuid>
						<masterclipid>masterclip-291</masterclipid>
						<ismasterclip>TRUE</ismasterclip>
						<duration>5754</duration>
						<rate>
							<timebase>30</timebase>
							<ntsc>TRUE</ntsc>
						</rate>
						<out>2409</out>
						<name>ES_Walk On By (Instrumental Version) - Torii Wolf.mp3</name>
						<media>
							<audio>
								<track>
									<clipitem id="clipitem-1620">
										<masterclipid>masterclip-291</masterclipid>
										<name>ES_Walk On By (Instrumental Version) - Torii Wolf.mp3</name>
										<rate>
											<timebase>30</timebase>
											<ntsc>TRUE</ntsc>
										</rate>
										<file id="file-255">
											<name>ES_Walk On By (Instrumental Version) - Torii Wolf.mp3</name>
											<pathurl>file://localhost/Volumes/ATM%201/EYE%20CANDY/8%3a14%3a23/5_Assets/Music/ES_Walk%20On%20By%20(Instrumental%20Version)%20-%20Torii%20Wolf.mp3</pathurl>
											<rate>
												<timebase>30</timebase>
												<ntsc>TRUE</ntsc>
											</rate>
											<duration>5754</duration>
											<timecode>
												<rate>
													<timebase>30</timebase>
													<ntsc>TRUE</ntsc>
												</rate>
												<string>00;00;00;00</string>
												<frame>0</frame>
												<displayformat>DF</displayformat>
											</timecode>
											<media>
												<audio>
													<samplecharacteristics>
														<depth>16</depth>
														<samplerate>48000</samplerate>
													</samplecharacteristics>
													<channelcount>2</channelcount>
												</audio>
											</media>
										</file>
										<sourcetrack>
											<mediatype>audio</mediatype>
											<trackindex>1</trackindex>
										</sourcetrack>
										<link>
											<linkclipref>clipitem-1620</linkclipref>
											<mediatype>audio</mediatype>
											<trackindex>1</trackindex>
											<clipindex>1</clipindex>
											<groupindex>1</groupindex>
										</link>
										<link>
											<linkclipref>clipitem-1621</linkclipref>
											<mediatype>audio</mediatype>
											<trackindex>2</trackindex>
											<clipindex>1</clipindex>
											<groupindex>1</groupindex>
										</link>
									</clipitem>
								</track>
								<track>
									<clipitem id="clipitem-1621">
										<masterclipid>masterclip-291</masterclipid>
										<name>ES_Walk On By (Instrumental Version) - Torii Wolf.mp3</name>
										<rate>
											<timebase>30</timebase>
											<ntsc>TRUE</ntsc>
										</rate>
										<file id="file-255"/>
										<sourcetrack>
											<mediatype>audio</mediatype>
											<trackindex>2</trackindex>
										</sourcetrack>
										<link>
											<linkclipref>clipitem-1620</linkclipref>
											<mediatype>audio</mediatype>
											<trackindex>1</trackindex>
											<clipindex>1</clipindex>
											<groupindex>1</groupindex>
										</link>
										<link>
											<linkclipref>clipitem-1621</linkclipref>
											<mediatype>audio</mediatype>
											<trackindex>2</trackindex>
											<clipindex>1</clipindex>
											<groupindex>1</groupindex>
										</link>
									</clipitem>
								</track>
							</audio>
						</media>
						<logginginfo>
							<description></description>
							<scene></scene>
							<shottake></shottake>
							<lognote></lognote>
							<good></good>
							<originalvideofilename></originalvideofilename>
							<originalaudiofilename></originalaudiofilename>
						</logginginfo>
						<colorinfo>
							<lut></lut>
							<lut1></lut1>
							<asc_sop></asc_sop>
							<asc_sat></asc_sat>
							<lut2></lut2>
						</colorinfo>
						<labels>
							<label2>Caribbean</label2>
						</labels>
					</clip>
					<clip id="masterclip-57" explodedTracks="true">
						<uuid>39092e00-c3cf-4094-8eda-eae6d9a3b0ce</uuid>
						<masterclipid>masterclip-57</masterclipid>
						<ismasterclip>TRUE</ismasterclip>
						<duration>5553</duration>
						<rate>
							<timebase>30</timebase>
							<ntsc>TRUE</ntsc>
						</rate>
						<out>1577</out>
						<name>ES_WHY (Tell Me) (Instrumental Version) - SRA.mp3</name>
						<media>
							<audio>
								<track>
									<clipitem id="clipitem-1622">
										<masterclipid>masterclip-57</masterclipid>
										<name>ES_WHY (Tell Me) (Instrumental Version) - SRA.mp3</name>
										<rate>
											<timebase>30</timebase>
											<ntsc>TRUE</ntsc>
										</rate>
										<file id="file-47"/>
										<sourcetrack>
											<mediatype>audio</mediatype>
											<trackindex>1</trackindex>
										</sourcetrack>
										<link>
											<linkclipref>clipitem-1622</linkclipref>
											<mediatype>audio</mediatype>
											<trackindex>1</trackindex>
											<clipindex>1</clipindex>
											<groupindex>1</groupindex>
										</link>
										<link>
											<linkclipref>clipitem-1623</linkclipref>
											<mediatype>audio</mediatype>
											<trackindex>2</trackindex>
											<clipindex>1</clipindex>
											<groupindex>1</groupindex>
										</link>
									</clipitem>
								</track>
								<track>
									<clipitem id="clipitem-1623">
										<masterclipid>masterclip-57</masterclipid>
										<name>ES_WHY (Tell Me) (Instrumental Version) - SRA.mp3</name>
										<rate>
											<timebase>30</timebase>
											<ntsc>TRUE</ntsc>
										</rate>
										<file id="file-47"/>
										<sourcetrack>
											<mediatype>audio</mediatype>
											<trackindex>2</trackindex>
										</sourcetrack>
										<link>
											<linkclipref>clipitem-1622</linkclipref>
											<mediatype>audio</mediatype>
											<trackindex>1</trackindex>
											<clipindex>1</clipindex>
											<groupindex>1</groupindex>
										</link>
										<link>
											<linkclipref>clipitem-1623</linkclipref>
											<mediatype>audio</mediatype>
											<trackindex>2</trackindex>
											<clipindex>1</clipindex>
											<groupindex>1</groupindex>
										</link>
									</clipitem>
								</track>
							</audio>
						</media>
						<logginginfo>
							<description></description>
							<scene></scene>
							<shottake></shottake>
							<lognote></lognote>
							<good></good>
							<originalvideofilename></originalvideofilename>
							<originalaudiofilename></originalaudiofilename>
						</logginginfo>
						<colorinfo>
							<lut></lut>
							<lut1></lut1>
							<asc_sop></asc_sop>
							<asc_sat></asc_sat>
							<lut2></lut2>
						</colorinfo>
						<labels>
							<label2>Caribbean</label2>
						</labels>
					</clip>
					<clip id="masterclip-122" explodedTracks="true">
						<uuid>0e5a2424-119b-46a0-ad70-e5bdc4211d55</uuid>
						<masterclipid>masterclip-122</masterclipid>
						<ismasterclip>TRUE</ismasterclip>
						<duration>6592</duration>
						<rate>
							<timebase>30</timebase>
							<ntsc>TRUE</ntsc>
						</rate>
						<out>3541</out>
						<name>ES_Shroom Stew - El Flaco Collective.mp3</name>
						<media>
							<audio>
								<track>
									<clipitem id="clipitem-1624">
										<masterclipid>masterclip-122</masterclipid>
										<name>ES_Shroom Stew - El Flaco Collective.mp3</name>
										<rate>
											<timebase>30</timebase>
											<ntsc>TRUE</ntsc>
										</rate>
										<file id="file-105"/>
										<sourcetrack>
											<mediatype>audio</mediatype>
											<trackindex>1</trackindex>
										</sourcetrack>
										<link>
											<linkclipref>clipitem-1624</linkclipref>
											<mediatype>audio</mediatype>
											<trackindex>1</trackindex>
											<clipindex>1</clipindex>
											<groupindex>1</groupindex>
										</link>
										<link>
											<linkclipref>clipitem-1625</linkclipref>
											<mediatype>audio</mediatype>
											<trackindex>2</trackindex>
											<clipindex>1</clipindex>
											<groupindex>1</groupindex>
										</link>
									</clipitem>
								</track>
								<track>
									<clipitem id="clipitem-1625">
										<masterclipid>masterclip-122</masterclipid>
										<name>ES_Shroom Stew - El Flaco Collective.mp3</name>
										<rate>
											<timebase>30</timebase>
											<ntsc>TRUE</ntsc>
										</rate>
										<file id="file-105"/>
										<sourcetrack>
											<mediatype>audio</mediatype>
											<trackindex>2</trackindex>
										</sourcetrack>
										<link>
											<linkclipref>clipitem-1624</linkclipref>
											<mediatype>audio</mediatype>
											<trackindex>1</trackindex>
											<clipindex>1</clipindex>
											<groupindex>1</groupindex>
										</link>
										<link>
											<linkclipref>clipitem-1625</linkclipref>
											<mediatype>audio</mediatype>
											<trackindex>2</trackindex>
											<clipindex>1</clipindex>
											<groupindex>1</groupindex>
										</link>
									</clipitem>
								</track>
							</audio>
						</media>
						<logginginfo>
							<description></description>
							<scene></scene>
							<shottake></shottake>
							<lognote></lognote>
							<good></good>
							<originalvideofilename></originalvideofilename>
							<originalaudiofilename></originalaudiofilename>
						</logginginfo>
						<colorinfo>
							<lut></lut>
							<lut1></lut1>
							<asc_sop></asc_sop>
							<asc_sat></asc_sat>
							<lut2></lut2>
						</colorinfo>
						<labels>
							<label2>Caribbean</label2>
						</labels>
					</clip>
					<clip id="masterclip-110" explodedTracks="true">
						<uuid>3afd9286-5068-4024-a345-bdb230b42f2b</uuid>
						<masterclipid>masterclip-110</masterclipid>
						<ismasterclip>TRUE</ismasterclip>
						<duration>4641</duration>
						<rate>
							<timebase>30</timebase>
							<ntsc>TRUE</ntsc>
						</rate>
						<out>2529</out>
						<name>ES_Basement Vibes (Instrumental Version) - DAJANA.mp3</name>
						<media>
							<audio>
								<track>
									<clipitem id="clipitem-1626">
										<masterclipid>masterclip-110</masterclipid>
										<name>ES_Basement Vibes (Instrumental Version) - DAJANA.mp3</name>
										<rate>
											<timebase>30</timebase>
											<ntsc>TRUE</ntsc>
										</rate>
										<file id="file-95"/>
										<sourcetrack>
											<mediatype>audio</mediatype>
											<trackindex>1</trackindex>
										</sourcetrack>
										<link>
											<linkclipref>clipitem-1626</linkclipref>
											<mediatype>audio</mediatype>
											<trackindex>1</trackindex>
											<clipindex>1</clipindex>
											<groupindex>1</groupindex>
										</link>
										<link>
											<linkclipref>clipitem-1627</linkclipref>
											<mediatype>audio</mediatype>
											<trackindex>2</trackindex>
											<clipindex>1</clipindex>
											<groupindex>1</groupindex>
										</link>
									</clipitem>
								</track>
								<track>
									<clipitem id="clipitem-1627">
										<masterclipid>masterclip-110</masterclipid>
										<name>ES_Basement Vibes (Instrumental Version) - DAJANA.mp3</name>
										<rate>
											<timebase>30</timebase>
											<ntsc>TRUE</ntsc>
										</rate>
										<file id="file-95"/>
										<sourcetrack>
											<mediatype>audio</mediatype>
											<trackindex>2</trackindex>
										</sourcetrack>
										<link>
											<linkclipref>clipitem-1626</linkclipref>
											<mediatype>audio</mediatype>
											<trackindex>1</trackindex>
											<clipindex>1</clipindex>
											<groupindex>1</groupindex>
										</link>
										<link>
											<linkclipref>clipitem-1627</linkclipref>
											<mediatype>audio</mediatype>
											<trackindex>2</trackindex>
											<clipindex>1</clipindex>
											<groupindex>1</groupindex>
										</link>
									</clipitem>
								</track>
							</audio>
						</media>
						<logginginfo>
							<description></description>
							<scene></scene>
							<shottake></shottake>
							<lognote></lognote>
							<good></good>
							<originalvideofilename></originalvideofilename>
							<originalaudiofilename></originalaudiofilename>
						</logginginfo>
						<colorinfo>
							<lut></lut>
							<lut1></lut1>
							<asc_sop></asc_sop>
							<asc_sat></asc_sat>
							<lut2></lut2>
						</colorinfo>
						<labels>
							<label2>Caribbean</label2>
						</labels>
					</clip>
					<clip id="masterclip-285" explodedTracks="true">
						<uuid>578d0c4b-bea3-4b19-ba8b-84a13067caf2</uuid>
						<masterclipid>masterclip-285</masterclipid>
						<ismasterclip>TRUE</ismasterclip>
						<duration>5408</duration>
						<rate>
							<timebase>30</timebase>
							<ntsc>TRUE</ntsc>
						</rate>
						<out>2485</out>
						<name>ES_can't take this pill (Instrumental Version) - dasloe.mp3</name>
						<media>
							<audio>
								<track>
									<clipitem id="clipitem-1628">
										<masterclipid>masterclip-285</masterclipid>
										<name>ES_can't take this pill (Instrumental Version) - dasloe.mp3</name>
										<rate>
											<timebase>30</timebase>
											<ntsc>TRUE</ntsc>
										</rate>
										<file id="file-249"/>
										<sourcetrack>
											<mediatype>audio</mediatype>
											<trackindex>1</trackindex>
										</sourcetrack>
										<link>
											<linkclipref>clipitem-1628</linkclipref>
											<mediatype>audio</mediatype>
											<trackindex>1</trackindex>
											<clipindex>1</clipindex>
											<groupindex>1</groupindex>
										</link>
										<link>
											<linkclipref>clipitem-1629</linkclipref>
											<mediatype>audio</mediatype>
											<trackindex>2</trackindex>
											<clipindex>1</clipindex>
											<groupindex>1</groupindex>
										</link>
									</clipitem>
								</track>
								<track>
									<clipitem id="clipitem-1629">
										<masterclipid>masterclip-285</masterclipid>
										<name>ES_can't take this pill (Instrumental Version) - dasloe.mp3</name>
										<rate>
											<timebase>30</timebase>
											<ntsc>TRUE</ntsc>
										</rate>
										<file id="file-249"/>
										<sourcetrack>
											<mediatype>audio</mediatype>
											<trackindex>2</trackindex>
										</sourcetrack>
										<link>
											<linkclipref>clipitem-1628</linkclipref>
											<mediatype>audio</mediatype>
											<trackindex>1</trackindex>
											<clipindex>1</clipindex>
											<groupindex>1</groupindex>
										</link>
										<link>
											<linkclipref>clipitem-1629</linkclipref>
											<mediatype>audio</mediatype>
											<trackindex>2</trackindex>
											<clipindex>1</clipindex>
											<groupindex>1</groupindex>
										</link>
									</clipitem>
								</track>
							</audio>
						</media>
						<logginginfo>
							<description></description>
							<scene></scene>
							<shottake></shottake>
							<lognote></lognote>
							<good></good>
							<originalvideofilename></originalvideofilename>
							<originalaudiofilename></originalaudiofilename>
						</logginginfo>
						<colorinfo>
							<lut></lut>
							<lut1></lut1>
							<asc_sop></asc_sop>
							<asc_sat></asc_sat>
							<lut2></lut2>
						</colorinfo>
						<labels>
							<label2>Caribbean</label2>
						</labels>
					</clip>
					<clip id="masterclip-102" explodedTracks="true">
						<uuid>2c3f81cb-fe2a-45f9-8ecd-65e11e3fa8ed</uuid>
						<masterclipid>masterclip-102</masterclipid>
						<ismasterclip>TRUE</ismasterclip>
						<duration>4542</duration>
						<rate>
							<timebase>30</timebase>
							<ntsc>TRUE</ntsc>
						</rate>
						<out>2751</out>
						<name>ES_Aquatic Flower Dance - Ryan James Carr.mp3</name>
						<media>
							<audio>
								<track>
									<clipitem id="clipitem-1630">
										<masterclipid>masterclip-102</masterclipid>
										<name>ES_Aquatic Flower Dance - Ryan James Carr.mp3</name>
										<rate>
											<timebase>30</timebase>
											<ntsc>TRUE</ntsc>
										</rate>
										<file id="file-88"/>
										<sourcetrack>
											<mediatype>audio</mediatype>
											<trackindex>1</trackindex>
										</sourcetrack>
										<link>
											<linkclipref>clipitem-1630</linkclipref>
											<mediatype>audio</mediatype>
											<trackindex>1</trackindex>
											<clipindex>1</clipindex>
											<groupindex>1</groupindex>
										</link>
										<link>
											<linkclipref>clipitem-1631</linkclipref>
											<mediatype>audio</mediatype>
											<trackindex>2</trackindex>
											<clipindex>1</clipindex>
											<groupindex>1</groupindex>
										</link>
									</clipitem>
								</track>
								<track>
									<clipitem id="clipitem-1631">
										<masterclipid>masterclip-102</masterclipid>
										<name>ES_Aquatic Flower Dance - Ryan James Carr.mp3</name>
										<rate>
											<timebase>30</timebase>
											<ntsc>TRUE</ntsc>
										</rate>
										<file id="file-88"/>
										<sourcetrack>
											<mediatype>audio</mediatype>
											<trackindex>2</trackindex>
										</sourcetrack>
										<link>
											<linkclipref>clipitem-1630</linkclipref>
											<mediatype>audio</mediatype>
											<trackindex>1</trackindex>
											<clipindex>1</clipindex>
											<groupindex>1</groupindex>
										</link>
										<link>
											<linkclipref>clipitem-1631</linkclipref>
											<mediatype>audio</mediatype>
											<trackindex>2</trackindex>
											<clipindex>1</clipindex>
											<groupindex>1</groupindex>
										</link>
									</clipitem>
								</track>
							</audio>
						</media>
						<logginginfo>
							<description></description>
							<scene></scene>
							<shottake></shottake>
							<lognote></lognote>
							<good></good>
							<originalvideofilename></originalvideofilename>
							<originalaudiofilename></originalaudiofilename>
						</logginginfo>
						<colorinfo>
							<lut></lut>
							<lut1></lut1>
							<asc_sop></asc_sop>
							<asc_sat></asc_sat>
							<lut2></lut2>
						</colorinfo>
						<labels>
							<label2>Caribbean</label2>
						</labels>
					</clip>
					<clip id="masterclip-202" explodedTracks="true">
						<uuid>c0dca9b3-5ecd-4351-a42e-404c3b842323</uuid>
						<masterclipid>masterclip-202</masterclipid>
						<ismasterclip>TRUE</ismasterclip>
						<duration>7005</duration>
						<rate>
							<timebase>30</timebase>
							<ntsc>TRUE</ntsc>
						</rate>
						<out>2527</out>
						<name>ES_Another Wednesday Night - OTE.mp3</name>
						<media>
							<audio>
								<track>
									<clipitem id="clipitem-1632">
										<masterclipid>masterclip-202</masterclipid>
										<name>ES_Another Wednesday Night - OTE.mp3</name>
										<rate>
											<timebase>30</timebase>
											<ntsc>TRUE</ntsc>
										</rate>
										<file id="file-175"/>
										<sourcetrack>
											<mediatype>audio</mediatype>
											<trackindex>1</trackindex>
										</sourcetrack>
										<link>
											<linkclipref>clipitem-1632</linkclipref>
											<mediatype>audio</mediatype>
											<trackindex>1</trackindex>
											<clipindex>1</clipindex>
											<groupindex>1</groupindex>
										</link>
										<link>
											<linkclipref>clipitem-1633</linkclipref>
											<mediatype>audio</mediatype>
											<trackindex>2</trackindex>
											<clipindex>1</clipindex>
											<groupindex>1</groupindex>
										</link>
									</clipitem>
								</track>
								<track>
									<clipitem id="clipitem-1633">
										<masterclipid>masterclip-202</masterclipid>
										<name>ES_Another Wednesday Night - OTE.mp3</name>
										<rate>
											<timebase>30</timebase>
											<ntsc>TRUE</ntsc>
										</rate>
										<file id="file-175"/>
										<sourcetrack>
											<mediatype>audio</mediatype>
											<trackindex>2</trackindex>
										</sourcetrack>
										<link>
											<linkclipref>clipitem-1632</linkclipref>
											<mediatype>audio</mediatype>
											<trackindex>1</trackindex>
											<clipindex>1</clipindex>
											<groupindex>1</groupindex>
										</link>
										<link>
											<linkclipref>clipitem-1633</linkclipref>
											<mediatype>audio</mediatype>
											<trackindex>2</trackindex>
											<clipindex>1</clipindex>
											<groupindex>1</groupindex>
										</link>
									</clipitem>
								</track>
							</audio>
						</media>
						<logginginfo>
							<description></description>
							<scene></scene>
							<shottake></shottake>
							<lognote></lognote>
							<good></good>
							<originalvideofilename></originalvideofilename>
							<originalaudiofilename></originalaudiofilename>
						</logginginfo>
						<colorinfo>
							<lut></lut>
							<lut1></lut1>
							<asc_sop></asc_sop>
							<asc_sat></asc_sat>
							<lut2></lut2>
						</colorinfo>
						<labels>
							<label2>Caribbean</label2>
						</labels>
					</clip>
					<clip id="masterclip-138" explodedTracks="true">
						<uuid>8b3c7042-7391-4768-bfbc-a8568a6185d4</uuid>
						<masterclipid>masterclip-138</masterclipid>
						<ismasterclip>TRUE</ismasterclip>
						<duration>6353</duration>
						<rate>
							<timebase>30</timebase>
							<ntsc>TRUE</ntsc>
						</rate>
						<out>1958</out>
						<name>ES_Anticipation - Future Joust.mp3</name>
						<media>
							<audio>
								<track>
									<clipitem id="clipitem-1634">
										<masterclipid>masterclip-138</masterclipid>
										<name>ES_Anticipation - Future Joust.mp3</name>
										<rate>
											<timebase>30</timebase>
											<ntsc>TRUE</ntsc>
										</rate>
										<file id="file-119"/>
										<sourcetrack>
											<mediatype>audio</mediatype>
											<trackindex>1</trackindex>
										</sourcetrack>
										<link>
											<linkclipref>clipitem-1634</linkclipref>
											<mediatype>audio</mediatype>
											<trackindex>1</trackindex>
											<clipindex>1</clipindex>
											<groupindex>1</groupindex>
										</link>
										<link>
											<linkclipref>clipitem-1635</linkclipref>
											<mediatype>audio</mediatype>
											<trackindex>2</trackindex>
											<clipindex>1</clipindex>
											<groupindex>1</groupindex>
										</link>
									</clipitem>
								</track>
								<track>
									<clipitem id="clipitem-1635">
										<masterclipid>masterclip-138</masterclipid>
										<name>ES_Anticipation - Future Joust.mp3</name>
										<rate>
											<timebase>30</timebase>
											<ntsc>TRUE</ntsc>
										</rate>
										<file id="file-119"/>
										<sourcetrack>
											<mediatype>audio</mediatype>
											<trackindex>2</trackindex>
										</sourcetrack>
										<link>
											<linkclipref>clipitem-1634</linkclipref>
											<mediatype>audio</mediatype>
											<trackindex>1</trackindex>
											<clipindex>1</clipindex>
											<groupindex>1</groupindex>
										</link>
										<link>
											<linkclipref>clipitem-1635</linkclipref>
											<mediatype>audio</mediatype>
											<trackindex>2</trackindex>
											<clipindex>1</clipindex>
											<groupindex>1</groupindex>
										</link>
									</clipitem>
								</track>
							</audio>
						</media>
						<logginginfo>
							<description></description>
							<scene></scene>
							<shottake></shottake>
							<lognote></lognote>
							<good></good>
							<originalvideofilename></originalvideofilename>
							<originalaudiofilename></originalaudiofilename>
						</logginginfo>
						<colorinfo>
							<lut></lut>
							<lut1></lut1>
							<asc_sop></asc_sop>
							<asc_sat></asc_sat>
							<lut2></lut2>
						</colorinfo>
						<labels>
							<label2>Caribbean</label2>
						</labels>
					</clip>
					<clip id="masterclip-259" explodedTracks="true">
						<uuid>929b8ba6-22bb-4b3c-b686-fd355b4e1e83</uuid>
						<masterclipid>masterclip-259</masterclipid>
						<ismasterclip>TRUE</ismasterclip>
						<duration>4643</duration>
						<rate>
							<timebase>30</timebase>
							<ntsc>TRUE</ntsc>
						</rate>
						<out>2336</out>
						<name>ES_Fantasy Fragments - Ryan James Carr.mp3</name>
						<media>
							<audio>
								<track>
									<clipitem id="clipitem-1636">
										<masterclipid>masterclip-259</masterclipid>
										<name>ES_Fantasy Fragments - Ryan James Carr.mp3</name>
										<rate>
											<timebase>30</timebase>
											<ntsc>TRUE</ntsc>
										</rate>
										<file id="file-224"/>
										<sourcetrack>
											<mediatype>audio</mediatype>
											<trackindex>1</trackindex>
										</sourcetrack>
										<link>
											<linkclipref>clipitem-1636</linkclipref>
											<mediatype>audio</mediatype>
											<trackindex>1</trackindex>
											<clipindex>1</clipindex>
											<groupindex>1</groupindex>
										</link>
										<link>
											<linkclipref>clipitem-1637</linkclipref>
											<mediatype>audio</mediatype>
											<trackindex>2</trackindex>
											<clipindex>1</clipindex>
											<groupindex>1</groupindex>
										</link>
									</clipitem>
								</track>
								<track>
									<clipitem id="clipitem-1637">
										<masterclipid>masterclip-259</masterclipid>
										<name>ES_Fantasy Fragments - Ryan James Carr.mp3</name>
										<rate>
											<timebase>30</timebase>
											<ntsc>TRUE</ntsc>
										</rate>
										<file id="file-224"/>
										<sourcetrack>
											<mediatype>audio</mediatype>
											<trackindex>2</trackindex>
										</sourcetrack>
										<link>
											<linkclipref>clipitem-1636</linkclipref>
											<mediatype>audio</mediatype>
											<trackindex>1</trackindex>
											<clipindex>1</clipindex>
											<groupindex>1</groupindex>
										</link>
										<link>
											<linkclipref>clipitem-1637</linkclipref>
											<mediatype>audio</mediatype>
											<trackindex>2</trackindex>
											<clipindex>1</clipindex>
											<groupindex>1</groupindex>
										</link>
									</clipitem>
								</track>
							</audio>
						</media>
						<logginginfo>
							<description></description>
							<scene></scene>
							<shottake></shottake>
							<lognote></lognote>
							<good></good>
							<originalvideofilename></originalvideofilename>
							<originalaudiofilename></originalaudiofilename>
						</logginginfo>
						<colorinfo>
							<lut></lut>
							<lut1></lut1>
							<asc_sop></asc_sop>
							<asc_sat></asc_sat>
							<lut2></lut2>
						</colorinfo>
						<labels>
							<label2>Caribbean</label2>
						</labels>
					</clip>
					<clip id="masterclip-132" explodedTracks="true">
						<uuid>5f459558-2631-4a60-b6aa-869a8a2023c5</uuid>
						<masterclipid>masterclip-132</masterclipid>
						<ismasterclip>TRUE</ismasterclip>
						<duration>4653</duration>
						<rate>
							<timebase>30</timebase>
							<ntsc>TRUE</ntsc>
						</rate>
						<out>1884</out>
						<name>ES_Imagination Celebration - Ryan James Carr.mp3</name>
						<media>
							<audio>
								<track>
									<clipitem id="clipitem-1638">
										<masterclipid>masterclip-132</masterclipid>
										<name>ES_Imagination Celebration - Ryan James Carr.mp3</name>
										<rate>
											<timebase>30</timebase>
											<ntsc>TRUE</ntsc>
										</rate>
										<file id="file-114"/>
										<sourcetrack>
											<mediatype>audio</mediatype>
											<trackindex>1</trackindex>
										</sourcetrack>
										<link>
											<linkclipref>clipitem-1638</linkclipref>
											<mediatype>audio</mediatype>
											<trackindex>1</trackindex>
											<clipindex>1</clipindex>
											<groupindex>1</groupindex>
										</link>
										<link>
											<linkclipref>clipitem-1639</linkclipref>
											<mediatype>audio</mediatype>
											<trackindex>2</trackindex>
											<clipindex>1</clipindex>
											<groupindex>1</groupindex>
										</link>
									</clipitem>
								</track>
								<track>
									<clipitem id="clipitem-1639">
										<masterclipid>masterclip-132</masterclipid>
										<name>ES_Imagination Celebration - Ryan James Carr.mp3</name>
										<rate>
											<timebase>30</timebase>
											<ntsc>TRUE</ntsc>
										</rate>
										<file id="file-114"/>
										<sourcetrack>
											<mediatype>audio</mediatype>
											<trackindex>2</trackindex>
										</sourcetrack>
										<link>
											<linkclipref>clipitem-1638</linkclipref>
											<mediatype>audio</mediatype>
											<trackindex>1</trackindex>
											<clipindex>1</clipindex>
											<groupindex>1</groupindex>
										</link>
										<link>
											<linkclipref>clipitem-1639</linkclipref>
											<mediatype>audio</mediatype>
											<trackindex>2</trackindex>
											<clipindex>1</clipindex>
											<groupindex>1</groupindex>
										</link>
									</clipitem>
								</track>
							</audio>
						</media>
						<logginginfo>
							<description></description>
							<scene></scene>
							<shottake></shottake>
							<lognote></lognote>
							<good></good>
							<originalvideofilename></originalvideofilename>
							<originalaudiofilename></originalaudiofilename>
						</logginginfo>
						<colorinfo>
							<lut></lut>
							<lut1></lut1>
							<asc_sop></asc_sop>
							<asc_sat></asc_sat>
							<lut2></lut2>
						</colorinfo>
						<labels>
							<label2>Caribbean</label2>
						</labels>
					</clip>
					<clip id="masterclip-145" explodedTracks="true">
						<uuid>80133c7b-b127-4d7d-9123-22b56324dc05</uuid>
						<masterclipid>masterclip-145</masterclipid>
						<ismasterclip>TRUE</ismasterclip>
						<duration>5435</duration>
						<rate>
							<timebase>30</timebase>
							<ntsc>TRUE</ntsc>
						</rate>
						<out>3626</out>
						<name>ES_Just a Little Bit (Instrumental Version) - Chris Shards.mp3</name>
						<media>
							<audio>
								<track>
									<clipitem id="clipitem-1640">
										<masterclipid>masterclip-145</masterclipid>
										<name>ES_Just a Little Bit (Instrumental Version) - Chris Shards.mp3</name>
										<rate>
											<timebase>30</timebase>
											<ntsc>TRUE</ntsc>
										</rate>
										<file id="file-125"/>
										<sourcetrack>
											<mediatype>audio</mediatype>
											<trackindex>1</trackindex>
										</sourcetrack>
										<link>
											<linkclipref>clipitem-1640</linkclipref>
											<mediatype>audio</mediatype>
											<trackindex>1</trackindex>
											<clipindex>1</clipindex>
											<groupindex>1</groupindex>
										</link>
										<link>
											<linkclipref>clipitem-1641</linkclipref>
											<mediatype>audio</mediatype>
											<trackindex>2</trackindex>
											<clipindex>1</clipindex>
											<groupindex>1</groupindex>
										</link>
									</clipitem>
								</track>
								<track>
									<clipitem id="clipitem-1641">
										<masterclipid>masterclip-145</masterclipid>
										<name>ES_Just a Little Bit (Instrumental Version) - Chris Shards.mp3</name>
										<rate>
											<timebase>30</timebase>
											<ntsc>TRUE</ntsc>
										</rate>
										<file id="file-125"/>
										<sourcetrack>
											<mediatype>audio</mediatype>
											<trackindex>2</trackindex>
										</sourcetrack>
										<link>
											<linkclipref>clipitem-1640</linkclipref>
											<mediatype>audio</mediatype>
											<trackindex>1</trackindex>
											<clipindex>1</clipindex>
											<groupindex>1</groupindex>
										</link>
										<link>
											<linkclipref>clipitem-1641</linkclipref>
											<mediatype>audio</mediatype>
											<trackindex>2</trackindex>
											<clipindex>1</clipindex>
											<groupindex>1</groupindex>
										</link>
									</clipitem>
								</track>
							</audio>
						</media>
						<logginginfo>
							<description></description>
							<scene></scene>
							<shottake></shottake>
							<lognote></lognote>
							<good></good>
							<originalvideofilename></originalvideofilename>
							<originalaudiofilename></originalaudiofilename>
						</logginginfo>
						<colorinfo>
							<lut></lut>
							<lut1></lut1>
							<asc_sop></asc_sop>
							<asc_sat></asc_sat>
							<lut2></lut2>
						</colorinfo>
						<labels>
							<label2>Caribbean</label2>
						</labels>
					</clip>
					<clip id="masterclip-85" explodedTracks="true">
						<uuid>0dda4923-62a3-4c06-9942-480f7071a7c1</uuid>
						<masterclipid>masterclip-85</masterclipid>
						<ismasterclip>TRUE</ismasterclip>
						<duration>7568</duration>
						<rate>
							<timebase>30</timebase>
							<ntsc>TRUE</ntsc>
						</rate>
						<out>2040</out>
						<name>ES_My Trust in You - Daniel Fridell.mp3</name>
						<media>
							<audio>
								<track>
									<clipitem id="clipitem-1642">
										<masterclipid>masterclip-85</masterclipid>
										<name>ES_My Trust in You - Daniel Fridell.mp3</name>
										<rate>
											<timebase>30</timebase>
											<ntsc>TRUE</ntsc>
										</rate>
										<file id="file-72"/>
										<sourcetrack>
											<mediatype>audio</mediatype>
											<trackindex>1</trackindex>
										</sourcetrack>
										<link>
											<linkclipref>clipitem-1642</linkclipref>
											<mediatype>audio</mediatype>
											<trackindex>1</trackindex>
											<clipindex>1</clipindex>
											<groupindex>1</groupindex>
										</link>
										<link>
											<linkclipref>clipitem-1643</linkclipref>
											<mediatype>audio</mediatype>
											<trackindex>2</trackindex>
											<clipindex>1</clipindex>
											<groupindex>1</groupindex>
										</link>
									</clipitem>
								</track>
								<track>
									<clipitem id="clipitem-1643">
										<masterclipid>masterclip-85</masterclipid>
										<name>ES_My Trust in You - Daniel Fridell.mp3</name>
										<rate>
											<timebase>30</timebase>
											<ntsc>TRUE</ntsc>
										</rate>
										<file id="file-72"/>
										<sourcetrack>
											<mediatype>audio</mediatype>
											<trackindex>2</trackindex>
										</sourcetrack>
										<link>
											<linkclipref>clipitem-1642</linkclipref>
											<mediatype>audio</mediatype>
											<trackindex>1</trackindex>
											<clipindex>1</clipindex>
											<groupindex>1</groupindex>
										</link>
										<link>
											<linkclipref>clipitem-1643</linkclipref>
											<mediatype>audio</mediatype>
											<trackindex>2</trackindex>
											<clipindex>1</clipindex>
											<groupindex>1</groupindex>
										</link>
									</clipitem>
								</track>
							</audio>
						</media>
						<logginginfo>
							<description></description>
							<scene></scene>
							<shottake></shottake>
							<lognote></lognote>
							<good></good>
							<originalvideofilename></originalvideofilename>
							<originalaudiofilename></originalaudiofilename>
						</logginginfo>
						<colorinfo>
							<lut></lut>
							<lut1></lut1>
							<asc_sop></asc_sop>
							<asc_sat></asc_sat>
							<lut2></lut2>
						</colorinfo>
						<labels>
							<label2>Caribbean</label2>
						</labels>
					</clip>
					<clip id="masterclip-292" explodedTracks="true">
						<uuid>05194af5-2998-4057-af02-061589f7864d</uuid>
						<masterclipid>masterclip-292</masterclipid>
						<ismasterclip>TRUE</ismasterclip>
						<duration>5659</duration>
						<rate>
							<timebase>30</timebase>
							<ntsc>TRUE</ntsc>
						</rate>
						<name>ES_save yourself (Instrumental Version) - King Sis.mp3</name>
						<media>
							<audio>
								<track>
									<clipitem id="clipitem-1644">
										<masterclipid>masterclip-292</masterclipid>
										<name>ES_save yourself (Instrumental Version) - King Sis.mp3</name>
										<rate>
											<timebase>30</timebase>
											<ntsc>TRUE</ntsc>
										</rate>
										<file id="file-256">
											<name>ES_save yourself (Instrumental Version) - King Sis.mp3</name>
											<pathurl>file://localhost/Volumes/ATM%201/EYE%20CANDY/8%3a14%3a23/5_Assets/Music/ES_save%20yourself%20(Instrumental%20Version)%20-%20King%20Sis.mp3</pathurl>
											<rate>
												<timebase>30</timebase>
												<ntsc>TRUE</ntsc>
											</rate>
											<duration>5659</duration>
											<timecode>
												<rate>
													<timebase>30</timebase>
													<ntsc>TRUE</ntsc>
												</rate>
												<string>00;00;00;00</string>
												<frame>0</frame>
												<displayformat>DF</displayformat>
											</timecode>
											<media>
												<audio>
													<samplecharacteristics>
														<depth>16</depth>
														<samplerate>48000</samplerate>
													</samplecharacteristics>
													<channelcount>2</channelcount>
												</audio>
											</media>
										</file>
										<sourcetrack>
											<mediatype>audio</mediatype>
											<trackindex>1</trackindex>
										</sourcetrack>
										<link>
											<linkclipref>clipitem-1644</linkclipref>
											<mediatype>audio</mediatype>
											<trackindex>1</trackindex>
											<clipindex>1</clipindex>
											<groupindex>1</groupindex>
										</link>
										<link>
											<linkclipref>clipitem-1645</linkclipref>
											<mediatype>audio</mediatype>
											<trackindex>2</trackindex>
											<clipindex>1</clipindex>
											<groupindex>1</groupindex>
										</link>
									</clipitem>
								</track>
								<track>
									<clipitem id="clipitem-1645">
										<masterclipid>masterclip-292</masterclipid>
										<name>ES_save yourself (Instrumental Version) - King Sis.mp3</name>
										<rate>
											<timebase>30</timebase>
											<ntsc>TRUE</ntsc>
										</rate>
										<file id="file-256"/>
										<sourcetrack>
											<mediatype>audio</mediatype>
											<trackindex>2</trackindex>
										</sourcetrack>
										<link>
											<linkclipref>clipitem-1644</linkclipref>
											<mediatype>audio</mediatype>
											<trackindex>1</trackindex>
											<clipindex>1</clipindex>
											<groupindex>1</groupindex>
										</link>
										<link>
											<linkclipref>clipitem-1645</linkclipref>
											<mediatype>audio</mediatype>
											<trackindex>2</trackindex>
											<clipindex>1</clipindex>
											<groupindex>1</groupindex>
										</link>
									</clipitem>
								</track>
							</audio>
						</media>
						<logginginfo>
							<description></description>
							<scene></scene>
							<shottake></shottake>
							<lognote></lognote>
							<good></good>
							<originalvideofilename></originalvideofilename>
							<originalaudiofilename></originalaudiofilename>
						</logginginfo>
						<colorinfo>
							<lut></lut>
							<lut1></lut1>
							<asc_sop></asc_sop>
							<asc_sat></asc_sat>
							<lut2></lut2>
						</colorinfo>
						<labels>
							<label2>Caribbean</label2>
						</labels>
					</clip>
					<clip id="masterclip-265" explodedTracks="true">
						<uuid>08463deb-39a3-4c85-a919-c2dd2977d92c</uuid>
						<masterclipid>masterclip-265</masterclipid>
						<ismasterclip>TRUE</ismasterclip>
						<duration>5659</duration>
						<rate>
							<timebase>30</timebase>
							<ntsc>TRUE</ntsc>
						</rate>
						<out>2804</out>
						<name>ES_save yourself (Instrumental Version) - King Sis.mp3</name>
						<media>
							<audio>
								<track>
									<clipitem id="clipitem-1646">
										<masterclipid>masterclip-265</masterclipid>
										<name>ES_save yourself (Instrumental Version) - King Sis.mp3</name>
										<rate>
											<timebase>30</timebase>
											<ntsc>TRUE</ntsc>
										</rate>
										<file id="file-229"/>
										<sourcetrack>
											<mediatype>audio</mediatype>
											<trackindex>1</trackindex>
										</sourcetrack>
										<link>
											<linkclipref>clipitem-1646</linkclipref>
											<mediatype>audio</mediatype>
											<trackindex>1</trackindex>
											<clipindex>1</clipindex>
											<groupindex>1</groupindex>
										</link>
										<link>
											<linkclipref>clipitem-1647</linkclipref>
											<mediatype>audio</mediatype>
											<trackindex>2</trackindex>
											<clipindex>1</clipindex>
											<groupindex>1</groupindex>
										</link>
									</clipitem>
								</track>
								<track>
									<clipitem id="clipitem-1647">
										<masterclipid>masterclip-265</masterclipid>
										<name>ES_save yourself (Instrumental Version) - King Sis.mp3</name>
										<rate>
											<timebase>30</timebase>
											<ntsc>TRUE</ntsc>
										</rate>
										<file id="file-229"/>
										<sourcetrack>
											<mediatype>audio</mediatype>
											<trackindex>2</trackindex>
										</sourcetrack>
										<link>
											<linkclipref>clipitem-1646</linkclipref>
											<mediatype>audio</mediatype>
											<trackindex>1</trackindex>
											<clipindex>1</clipindex>
											<groupindex>1</groupindex>
										</link>
										<link>
											<linkclipref>clipitem-1647</linkclipref>
											<mediatype>audio</mediatype>
											<trackindex>2</trackindex>
											<clipindex>1</clipindex>
											<groupindex>1</groupindex>
										</link>
									</clipitem>
								</track>
							</audio>
						</media>
						<logginginfo>
							<description></description>
							<scene></scene>
							<shottake></shottake>
							<lognote></lognote>
							<good></good>
							<originalvideofilename></originalvideofilename>
							<originalaudiofilename></originalaudiofilename>
						</logginginfo>
						<colorinfo>
							<lut></lut>
							<lut1></lut1>
							<asc_sop></asc_sop>
							<asc_sat></asc_sat>
							<lut2></lut2>
						</colorinfo>
						<labels>
							<label2>Caribbean</label2>
						</labels>
					</clip>
					<clip id="masterclip-186" explodedTracks="true">
						<uuid>260c3f5c-301d-4b3e-940e-8f2d71518257</uuid>
						<masterclipid>masterclip-186</masterclipid>
						<ismasterclip>TRUE</ismasterclip>
						<duration>3633</duration>
						<rate>
							<timebase>30</timebase>
							<ntsc>TRUE</ntsc>
						</rate>
						<out>2359</out>
						<name>ES_Raspberry Road - Colton Walls.mp3</name>
						<media>
							<audio>
								<track>
									<clipitem id="clipitem-1648">
										<masterclipid>masterclip-186</masterclipid>
										<name>ES_Raspberry Road - Colton Walls.mp3</name>
										<rate>
											<timebase>30</timebase>
											<ntsc>TRUE</ntsc>
										</rate>
										<file id="file-161"/>
										<sourcetrack>
											<mediatype>audio</mediatype>
											<trackindex>1</trackindex>
										</sourcetrack>
										<link>
											<linkclipref>clipitem-1648</linkclipref>
											<mediatype>audio</mediatype>
											<trackindex>1</trackindex>
											<clipindex>1</clipindex>
											<groupindex>1</groupindex>
										</link>
										<link>
											<linkclipref>clipitem-1649</linkclipref>
											<mediatype>audio</mediatype>
											<trackindex>2</trackindex>
											<clipindex>1</clipindex>
											<groupindex>1</groupindex>
										</link>
									</clipitem>
								</track>
								<track>
									<clipitem id="clipitem-1649">
										<masterclipid>masterclip-186</masterclipid>
										<name>ES_Raspberry Road - Colton Walls.mp3</name>
										<rate>
											<timebase>30</timebase>
											<ntsc>TRUE</ntsc>
										</rate>
										<file id="file-161"/>
										<sourcetrack>
											<mediatype>audio</mediatype>
											<trackindex>2</trackindex>
										</sourcetrack>
										<link>
											<linkclipref>clipitem-1648</linkclipref>
											<mediatype>audio</mediatype>
											<trackindex>1</trackindex>
											<clipindex>1</clipindex>
											<groupindex>1</groupindex>
										</link>
										<link>
											<linkclipref>clipitem-1649</linkclipref>
											<mediatype>audio</mediatype>
											<trackindex>2</trackindex>
											<clipindex>1</clipindex>
											<groupindex>1</groupindex>
										</link>
									</clipitem>
								</track>
							</audio>
						</media>
						<logginginfo>
							<description></description>
							<scene></scene>
							<shottake></shottake>
							<lognote></lognote>
							<good></good>
							<originalvideofilename></originalvideofilename>
							<originalaudiofilename></originalaudiofilename>
						</logginginfo>
						<colorinfo>
							<lut></lut>
							<lut1></lut1>
							<asc_sop></asc_sop>
							<asc_sat></asc_sat>
							<lut2></lut2>
						</colorinfo>
						<labels>
							<label2>Forest</label2>
						</labels>
					</clip>
					<clip id="masterclip-236" explodedTracks="true">
						<uuid>2b77ae04-85bd-499e-9c90-24624b21ca10</uuid>
						<masterclipid>masterclip-236</masterclipid>
						<ismasterclip>TRUE</ismasterclip>
						<duration>6362</duration>
						<rate>
							<timebase>30</timebase>
							<ntsc>TRUE</ntsc>
						</rate>
						<out>2440</out>
						<name>ES_Knowledge Is Power - Matt Large.mp3</name>
						<media>
							<audio>
								<track>
									<clipitem id="clipitem-1650">
										<masterclipid>masterclip-236</masterclipid>
										<name>ES_Knowledge Is Power - Matt Large.mp3</name>
										<rate>
											<timebase>30</timebase>
											<ntsc>TRUE</ntsc>
										</rate>
										<file id="file-203"/>
										<sourcetrack>
											<mediatype>audio</mediatype>
											<trackindex>1</trackindex>
										</sourcetrack>
										<link>
											<linkclipref>clipitem-1650</linkclipref>
											<mediatype>audio</mediatype>
											<trackindex>1</trackindex>
											<clipindex>1</clipindex>
											<groupindex>1</groupindex>
										</link>
										<link>
											<linkclipref>clipitem-1651</linkclipref>
											<mediatype>audio</mediatype>
											<trackindex>2</trackindex>
											<clipindex>1</clipindex>
											<groupindex>1</groupindex>
										</link>
									</clipitem>
								</track>
								<track>
									<clipitem id="clipitem-1651">
										<masterclipid>masterclip-236</masterclipid>
										<name>ES_Knowledge Is Power - Matt Large.mp3</name>
										<rate>
											<timebase>30</timebase>
											<ntsc>TRUE</ntsc>
										</rate>
										<file id="file-203"/>
										<sourcetrack>
											<mediatype>audio</mediatype>
											<trackindex>2</trackindex>
										</sourcetrack>
										<link>
											<linkclipref>clipitem-1650</linkclipref>
											<mediatype>audio</mediatype>
											<trackindex>1</trackindex>
											<clipindex>1</clipindex>
											<groupindex>1</groupindex>
										</link>
										<link>
											<linkclipref>clipitem-1651</linkclipref>
											<mediatype>audio</mediatype>
											<trackindex>2</trackindex>
											<clipindex>1</clipindex>
											<groupindex>1</groupindex>
										</link>
									</clipitem>
								</track>
							</audio>
						</media>
						<logginginfo>
							<description></description>
							<scene></scene>
							<shottake></shottake>
							<lognote></lognote>
							<good></good>
							<originalvideofilename></originalvideofilename>
							<originalaudiofilename></originalaudiofilename>
						</logginginfo>
						<colorinfo>
							<lut></lut>
							<lut1></lut1>
							<asc_sop></asc_sop>
							<asc_sat></asc_sat>
							<lut2></lut2>
						</colorinfo>
						<labels>
							<label2>Forest</label2>
						</labels>
					</clip>
				</children>
			</bin>
			<bin>
				<name>Motion Graphics Template Media</name>
				<children>
					<clip id="masterclip-14" explodedTracks="true">
						<uuid>e463df3a-bfbb-4e6a-9e3d-a1c68e27a289</uuid>
						<masterclipid>masterclip-14</masterclipid>
						<ismasterclip>TRUE</ismasterclip>
						<duration>4560</duration>
						<rate>
							<timebase>24</timebase>
							<ntsc>TRUE</ntsc>
						</rate>
						<name>Eyecandy Vertical Video Frame 1</name>
						<media>
							<video>
								<track>
									<clipitem id="clipitem-1652">
										<masterclipid>masterclip-14</masterclipid>
										<name>Eyecandy Vertical Video Frame 1</name>
										<rate>
											<timebase>24</timebase>
											<ntsc>TRUE</ntsc>
										</rate>
										<alphatype>straight</alphatype>
										<file id="file-12"/>
									</clipitem>
								</track>
							</video>
						</media>
						<logginginfo>
							<description></description>
							<scene></scene>
							<shottake></shottake>
							<lognote></lognote>
							<good></good>
							<originalvideofilename></originalvideofilename>
							<originalaudiofilename></originalaudiofilename>
						</logginginfo>
						<colorinfo>
							<lut></lut>
							<lut1></lut1>
							<asc_sop></asc_sop>
							<asc_sat></asc_sat>
							<lut2></lut2>
						</colorinfo>
						<labels>
							<label2>Teal</label2>
						</labels>
					</clip>
					<clip id="masterclip-36" explodedTracks="true">
						<uuid>49408b19-9643-4808-a694-277abb3d40b4</uuid>
						<masterclipid>masterclip-36</masterclipid>
						<ismasterclip>TRUE</ismasterclip>
						<duration>4560</duration>
						<rate>
							<timebase>24</timebase>
							<ntsc>TRUE</ntsc>
						</rate>
						<name>Eyecandy Vertical Video Frame 2</name>
						<media>
							<video>
								<track>
									<clipitem id="clipitem-1653">
										<masterclipid>masterclip-36</masterclipid>
										<name>Eyecandy Vertical Video Frame 2</name>
										<rate>
											<timebase>24</timebase>
											<ntsc>TRUE</ntsc>
										</rate>
										<alphatype>straight</alphatype>
										<file id="file-29"/>
									</clipitem>
								</track>
							</video>
						</media>
						<logginginfo>
							<description></description>
							<scene></scene>
							<shottake></shottake>
							<lognote></lognote>
							<good></good>
							<originalvideofilename></originalvideofilename>
							<originalaudiofilename></originalaudiofilename>
						</logginginfo>
						<colorinfo>
							<lut></lut>
							<lut1></lut1>
							<asc_sop></asc_sop>
							<asc_sat></asc_sat>
							<lut2></lut2>
						</colorinfo>
						<labels>
							<label2>Teal</label2>
						</labels>
					</clip>
					<clip id="masterclip-65" explodedTracks="true">
						<uuid>ecd2c378-7019-46be-b7ed-51b6af81a20f</uuid>
						<masterclipid>masterclip-65</masterclipid>
						<ismasterclip>TRUE</ismasterclip>
						<duration>4560</duration>
						<rate>
							<timebase>24</timebase>
							<ntsc>TRUE</ntsc>
						</rate>
						<name># Eyecandy Vertical Video Frame 3</name>
						<media>
							<video>
								<track>
									<clipitem id="clipitem-1654">
										<masterclipid>masterclip-65</masterclipid>
										<name># Eyecandy Vertical Video Frame 3</name>
										<rate>
											<timebase>24</timebase>
											<ntsc>TRUE</ntsc>
										</rate>
										<alphatype>straight</alphatype>
										<file id="file-54"/>
									</clipitem>
								</track>
							</video>
						</media>
						<logginginfo>
							<description></description>
							<scene></scene>
							<shottake></shottake>
							<lognote></lognote>
							<good></good>
							<originalvideofilename></originalvideofilename>
							<originalaudiofilename></originalaudiofilename>
						</logginginfo>
						<colorinfo>
							<lut></lut>
							<lut1></lut1>
							<asc_sop></asc_sop>
							<asc_sat></asc_sat>
							<lut2></lut2>
						</colorinfo>
						<labels>
							<label2>Teal</label2>
						</labels>
					</clip>
					<clip id="masterclip-6" explodedTracks="true">
						<uuid>5c00874e-2d28-4ed2-bdb0-e08a0426d8b8</uuid>
						<masterclipid>masterclip-6</masterclipid>
						<ismasterclip>TRUE</ismasterclip>
						<duration>4560</duration>
						<rate>
							<timebase>24</timebase>
							<ntsc>TRUE</ntsc>
						</rate>
						<name># Eyecandy Vertical Video Frame 4</name>
						<media>
							<video>
								<track>
									<clipitem id="clipitem-1655">
										<masterclipid>masterclip-6</masterclipid>
										<name># Eyecandy Vertical Video Frame 4</name>
										<rate>
											<timebase>24</timebase>
											<ntsc>TRUE</ntsc>
										</rate>
										<alphatype>straight</alphatype>
										<file id="file-5"/>
									</clipitem>
								</track>
							</video>
						</media>
						<logginginfo>
							<description></description>
							<scene></scene>
							<shottake></shottake>
							<lognote></lognote>
							<good></good>
							<originalvideofilename></originalvideofilename>
							<originalaudiofilename></originalaudiofilename>
						</logginginfo>
						<colorinfo>
							<lut></lut>
							<lut1></lut1>
							<asc_sop></asc_sop>
							<asc_sat></asc_sat>
							<lut2></lut2>
						</colorinfo>
						<labels>
							<label2>Teal</label2>
						</labels>
					</clip>
				</children>
			</bin>
		</children>
	</project>
</xmeml>
